# Wavafront OBJ file of BodyParts3D
# BodyParts3D, Copyright(C) 2010-2011 The Database Center for Life Science licensed under CC Attribution-Share Alike 2.1 Japan.
vn -0.988168 0.088613 -0.125183
v 2.56351 -147.947 1044.91
vn -0.674349 -0.728614 0.119897
v 2.64611 -148.758 1046.26
vn -0.841543 0.226894 -0.49023
v 3.03681 -146.256 1044.57
vn -0.674349 -0.728614 0.119897
v 5.22308 -150.975 1047.28
vn -0.674349 -0.728614 0.119897
v 5.8839 -151.441 1048.16
vn -0.166382 -0.917989 -0.360018
v 7.49248 -151.572 1047.75
vn 0.17704 -0.582569 0.793266
v 7.87494 -150.752 1048.71
vn 0.319969 -0.693963 0.645008
v 8.27641 -151.495 1047.96
vn -0.567947 0.388805 -0.725442
v 4.6477 -145.563 1043.07
vn 0.156402 -0.37885 -0.912147
v 7.37206 -144.571 1043.13
vn 0.888377 -0.257952 0.379798
v 10.9751 -148.745 1046.89
vn 0.0814814 -0.606063 -0.791233
v 11.1294 -148.587 1045.44
vn -0.592762 0.091621 0.800149
v 4.64578 -117.531 1069.48
vn -0.992541 0.11392 0.0434052
v 2.54797 -118.779 1065.68
vn -0.728926 0.531965 -0.430907
v 3.39574 -117.85 1063.85
vn -0.860405 0.160826 0.483568
v 3.46988 -117.874 1068.25
vn -0.702362 -0.27865 0.655014
v 3.92718 -119.233 1068.71
vn -0.835613 0.542681 0.085143
v 3.53704 -116.591 1067.01
vn -0.682425 0.520565 0.513135
v 4.45771 -116.329 1068.75
vn -0.303222 0.835645 -0.457989
v 5.46947 -115.69 1064.72
vn -0.580957 0.783023 -0.222179
v 4.45718 -115.841 1065.68
vn -0.582568 0.805014 0.112106
v 4.59515 -115.569 1067.44
vn -0.241255 0.651054 -0.71967
v 5.2711 -117.557 1062.43
vn -0.0996364 -0.291925 0.951237
v 6.31038 -118.461 1070.13
vn -0.29765 0.430511 0.852094
v 5.70129 -116.422 1069.82
vn 0.369441 0.903198 -0.218512
v 8.60801 -115.052 1066.34
vn 0.386529 0.350362 0.853137
v 8.88168 -116.757 1069.88
vn 0.531476 -0.417469 0.737057
v 10.0347 -118.519 1069.06
vn 0.530674 0.817907 0.222291
v 8.93997 -115.138 1067.87
vn 0.982782 -0.098408 0.15638
v 10.8264 -117.407 1067.98
vn -0.377405 0.861246 0.340323
v 5.68382 -115.198 1068.5
vn -0.283882 0.951846 -0.115757
v 6.18783 -114.874 1066.49
vn 0.00315557 0.9574 -0.288748
v 7.11944 -114.889 1065.98
vn 0.030603 0.834713 0.549834
v 7.04166 -114.997 1068.88
vn 0.0243175 0.998645 0.0460185
v 7.34394 -114.688 1067.54
vn 0.2005 0.779046 -0.594042
v 7.76976 -115.54 1064.59
vn 0.660491 0.641141 -0.390756
v 10.7434 -117.234 1065.06
vn -0.486614 -0.76181 -0.427612
v 2.56351 -147.947 1044.91
vn -0.691784 0.049169 -0.720429
v 2.56351 -147.947 1044.91
vn 0.00287931 -0.613495 -0.789694
v 2.56351 -147.947 1044.91
vn -0.904642 -0.242051 0.350763
v 2.64611 -148.758 1046.26
vn -0.486614 -0.76181 -0.427612
v 2.64611 -148.758 1046.26
vn -0.486614 -0.76181 -0.427612
v 5.22308 -150.975 1047.28
vn -0.166382 -0.917989 -0.360018
v 5.22308 -150.975 1047.28
vn 0.00269459 -0.614522 -0.788895
v 5.22308 -150.975 1047.28
vn -0.166382 -0.917989 -0.360018
v 5.8839 -151.441 1048.16
vn -0.21189 -0.678569 0.703311
v 5.8839 -151.441 1048.16
vn 0.120774 -0.695742 -0.708066
v 7.49248 -151.572 1047.75
vn 0.00606815 -0.946226 0.32345
v 7.49248 -151.572 1047.75
vn 0.23563 -0.758178 -0.607984
v 8.27641 -151.495 1047.96
vn 0.713771 -0.70038 -0.000118946
v 8.27641 -151.495 1047.96
vn 0.0806502 -0.501474 -0.861405
v 4.6477 -145.563 1043.07
vn 0.317275 0.546536 -0.775007
v 7.37206 -144.571 1043.13
vn 0.713771 -0.70038 -0.000118946
v 10.9751 -148.745 1046.89
vn 0.713771 -0.70038 -0.000118946
v 11.1294 -148.587 1045.44
vn 0.999207 -0.0164879 0.0362479
v 11.1294 -148.587 1045.44
vn 0.738504 0.364186 -0.567434
v 11.1294 -148.587 1045.44
vn 0.717265 0.151794 0.680066
v 10.0347 -118.519 1069.06
vn 0.766174 0.486686 0.41966
v 10.8264 -117.407 1067.98
vn 0.99922 0.0290401 -0.0267458
v 10.7434 -117.234 1065.06
f 2//2 4//4 5//5
f 41//41 14//14 1//1
f 14//14 3//3 1//1
f 43//43 42//42 38//38
f 9//9 39//39 3//3
f 46//46 44//44 6//6
f 48//48 45//45 12//12
f 7//7 24//24 47//47
f 47//47 49//49 8//8
f 7//7 47//47 8//8
f 48//48 12//12 50//50
f 7//7 8//8 28//28
f 7//7 28//28 24//24
f 28//28 8//8 11//11
f 55//55 54//54 51//51
f 12//12 45//45 40//40
f 40//40 52//52 12//12
f 10//10 12//12 52//52
f 30//30 11//11 56//56
f 24//24 17//17 47//47
f 17//17 24//24 13//13
f 13//13 24//24 25//25
f 17//17 14//14 41//41
f 14//14 15//15 3//3
f 41//41 47//47 17//17
f 17//17 16//16 14//14
f 21//21 20//20 15//15
f 16//16 18//18 14//14
f 15//15 14//14 18//18
f 15//15 18//18 21//21
f 16//16 17//17 13//13
f 19//19 16//16 13//13
f 19//19 18//18 16//16
f 18//18 19//19 22//22
f 21//21 18//18 22//22
f 13//13 25//25 19//19
f 31//31 22//22 19//19
f 32//32 21//21 22//22
f 32//32 20//20 21//21
f 3//3 15//15 9//9
f 9//9 23//23 53//53
f 9//9 15//15 23//23
f 23//23 15//15 20//20
f 27//27 25//25 24//24
f 11//11 30//30 28//28
f 25//25 31//31 19//19
f 23//23 20//20 36//36
f 20//20 33//33 36//36
f 27//27 34//34 25//25
f 35//35 34//34 29//29
f 26//26 33//33 35//35
f 37//37 36//36 26//26
f 26//26 36//36 33//33
f 24//24 28//28 27//27
f 27//27 29//29 34//34
f 26//26 29//29 37//37
f 35//35 29//29 26//26
f 27//27 58//58 59//59
f 27//27 59//59 29//29
f 59//59 37//37 29//29
f 31//31 32//32 22//22
f 32//32 33//33 20//20
f 31//31 25//25 34//34
f 34//34 35//35 31//31
f 35//35 32//32 31//31
f 35//35 33//33 32//32
f 30//30 56//56 60//60
f 53//53 23//23 36//36
f 37//37 53//53 36//36
f 53//53 37//37 57//57
