# Wavafront OBJ file of BodyParts3D
# BodyParts3D, Copyright(C) 2010-2011 The Database Center for Life Science licensed under CC Attribution-Share Alike 2.1 Japan.
vn 0.790979 -0.528 0.309142
v 31.1028 -71.0345 762.01
vn 0.810345 0.286775 -0.510981
v 30.4614 -73.5545 762.64
vn 0.790979 -0.528 0.309142
v 29.8412 -72.9245 762.01
vn 0.790979 -0.528 0.309142
v 30.0155 -72.2945 762.64
vn 0.272424 -0.17399 -0.946315
v 29.1354 -72.2945 761.552
vn 0.167386 0.0687823 -0.983489
v 29.1354 -71.0345 761.454
vn 0.560448 0.09695 0.822495
v 30.3954 -69.0829 762.01
vn 0.787941 0.0194634 0.615443
v 29.5537 -68.5145 762.64
vn 0.903895 -0.235974 0.356776
v 29.3175 -67.8845 763.27
vn 0.912618 -0.408013 -0.0255494
v 29.7654 -65.9945 764.446
vn 0.76949 -0.0439446 0.637145
v 29.1354 -69.1445 763.195
vn -0.0419985 0.364294 -0.930337
v 29.1354 -68.5145 762.017
vn 0.951721 0.302018 0.054877
v 29.1354 -67.2545 762.961
vn -0.0292577 0.768109 -0.63965
v 29.1354 -66.2751 763.9
vn 0.924315 -0.274729 0.264887
v 30.6169 -64.7345 767.05
vn 0.898113 -0.355945 0.258255
v 30.3954 -65.3645 767.169
vn 0.837097 0.356266 -0.415142
v 30.3954 -64.5032 766.42
vn 0.842714 -0.339539 0.417788
v 29.7654 -65.3265 768.31
vn 0.247827 0.856155 0.45341
v 29.7654 -64.8217 767.68
vn -0.533877 0.840551 -0.0919226
v 29.1354 -65.1332 766.42
vn 0.906424 -0.419803 -0.046488
v 30.4495 -65.3645 765.79
vn 0.708494 -0.130298 0.693584
v 25.6145 -77.9645 765.79
vn 0.892454 -0.391859 0.223545
v 27.585 -71.0345 767.05
vn 0.471836 0.0183095 0.881496
v 26.1478 -71.6645 770.2
vn 0.514398 0.00323909 0.857545
v 25.9854 -71.0345 770.274
vn 0.00116471 0.175556 -0.984469
v 27.8754 -71.0345 761.336
vn 0.0789159 -0.0235944 -0.996602
v 25.9854 -73.5545 761.089
vn -0.194848 0.299579 -0.933963
v 24.0954 -72.9245 761.247
vn -0.192875 0.556809 -0.807937
v 28.5054 -67.8845 762.497
vn -0.267882 0.701499 -0.660408
v 28.5054 -67.0195 763.27
vn -0.42723 0.800271 -0.420762
v 28.5054 -66.0881 764.53
vn -0.405902 0.601767 -0.687837
v 24.7034 -69.7745 762.64
vn 0.975562 -0.164416 -0.145764
v 18.4894 -100.645 770.2
vn 0.974927 -0.15568 -0.159001
v 18.5976 -99.3845 769.57
vn 0.916367 -0.23124 -0.326802
v 18.7748 -96.8645 768.31
vn 0.638533 0.0806341 0.765359
v 18.8247 -96.2345 768.94
vn 0.673053 -0.148626 0.724506
v 20.9454 -88.6745 766.867
vn 0.72809 -0.0772775 0.681112
v 18.5779 -89.9345 768.94
vn 0.883032 -0.46911 0.0137932
v 21.659 -81.1145 773.35
vn 0.897089 -0.369302 0.242583
v 21.1638 -81.7445 773.35
vn 0.891248 -0.440911 0.106185
v 21.3342 -81.7445 772.72
vn 0.901146 -0.415605 0.12332
v 20.6451 -83.0045 773.35
vn -0.0445676 -0.694825 0.717797
v 20.9454 -81.1145 773.305
vn 0.171307 0.117973 0.978129
v 20.3154 -82.3745 773.601
vn 0.870225 -0.369774 0.32554
v 19.7297 -85.5245 768.94
vn 0.620938 -0.0878468 0.778922
v 23.1947 -78.5945 772.09
vn 0.874786 -0.477297 0.0832868
v 22.0036 -80.4845 772.72
vn 0.711099 -0.0216643 0.702758
v 21.5754 -80.4845 773.227
vn 0.254923 -0.255009 -0.93273
v 22.8354 -79.2245 761.463
vn -0.130278 0.0579773 -0.989781
v 20.9454 -77.3345 761.089
vn -0.613145 0.654803 0.441912
v 18.5501 -74.1845 767.05
vn -0.436299 0.408242 -0.801861
v 21.5754 -73.5545 761.887
vn -0.641993 0.727029 -0.243463
v 20.9454 -71.7088 763.9
vn 0.955917 -0.0647851 0.2864
v 14.729 -124.585 777.76
vn 0.955423 -0.207506 -0.210018
v 16.1761 -111.985 772.09
vn 0.680168 0.134639 0.720585
v 15.2754 -108.205 776.373
vn 0.0550862 0.489108 0.870482
v 14.0154 -109.465 777.371
vn 0.968679 -0.1437 0.202514
v 16.5009 -110.725 773.35
vn 0.830251 -0.253661 -0.496327
v 16.1859 -108.205 769.57
vn 0.542057 -0.285448 -0.790375
v 14.0154 -108.835 768.049
vn 0.978351 -0.0830267 0.189567
v 18.2925 -102.535 771.46
vn 0.871127 -0.0323961 0.489989
v 17.1654 -105.527 773.98
vn 0.824014 0.0937644 0.558757
v 17.1654 -104.425 773.797
vn 0.0880128 0.483822 0.87073
v 14.6454 -105.685 774.9
vn 0.881471 -0.331668 0.336163
v 13.7053 -97.4945 776.5
vn 0.973574 0.000793804 0.228372
v 18.4254 -100.645 770.895
vn 0.447878 0.324384 0.833175
v 16.5354 -99.3845 771.002
vn 0.555611 0.306338 0.772951
v 17.7954 -99.3845 770.431
vn 0.614294 0.0828847 0.784712
v 17.7954 -96.2345 769.683
vn 0.354247 -0.332221 -0.87415
v 15.9054 -91.8245 763.678
vn 0.0586127 -0.175206 -0.982786
v 17.7954 -83.6345 761.601
vn -0.159041 -0.0668808 -0.985004
v 15.2754 -84.8945 761.877
vn -0.501989 0.275167 -0.819933
v 15.2754 -81.1145 762.241
vn -0.671682 0.541904 -0.505156
v 16.3631 -76.7045 763.9
vn -0.753486 0.655983 0.0441047
v 15.8315 -76.7045 765.79
vn 0.926083 -0.376769 -0.0203855
v 8.63576 -188.845 736.18
vn 0.97025 -0.188949 -0.15137
v 8.43889 -186.955 724.21
vn 0.685474 -0.6509 0.326274
v 8.85232 -182.545 763.27
vn 0.949122 -0.31045 0.0527931
v 10.1222 -183.805 753.82
vn 0.802132 -0.5693 0.180226
v 9.15748 -185.695 754.45
vn 0.998058 -0.00531206 -0.0620635
v 9.44295 -185.695 735.55
vn 0.926165 0.372064 -0.0615315
v 8.91139 -182.545 734.29
vn 0.981983 0.122808 -0.143621
v 8.43889 -183.805 723.58
vn 0.690107 -0.52582 0.497259
v 8.9606 -176.875 770.83
vn 0.854049 -0.443093 0.272522
v 9.91545 -180.655 763.9
vn 0.998768 -0.00691929 -0.0491299
v 10.5848 -181.285 753.82
vn 0.932767 0.316339 -0.172846
v 10.4569 -178.765 754.45
vn 0.840496 0.522433 -0.143633
v 8.81295 -181.285 739.96
vn 0.982678 -0.159812 0.0938315
v 11.0475 -175.615 766.42
vn 0.890586 -0.318837 0.324344
v 10.4864 -173.725 770.83
vn 0.822191 0.457808 -0.33825
v 9.89576 -172.465 762.01
vn 0.956336 0.238725 -0.168615
v 10.4765 -175.615 759.49
vn 0.978617 0.142483 -0.148351
v 11.077 -170.575 768.94
vn 0.873184 0.304774 -0.380345
v 10.575 -168.055 768.94
vn 0.668674 -0.302018 0.679456
v 8.62592 -162.385 782.17
vn 0.985249 -0.0999905 0.138877
v 11.1558 -162.385 777.76
vn 0.776216 -0.348601 0.525324
v 9.51185 -166.165 779.02
vn 0.954097 0.15453 -0.256554
v 10.9884 -166.165 771.46
vn 0.763995 0.328695 -0.555222
v 9.60537 -164.698 769.57
vn 0.842548 -0.177395 0.50857
v 10.762 -157.975 780.91
vn 0.906495 0.13038 -0.401581
v 11.0179 -157.975 774.61
vn 0.604336 0.248579 -0.756959
v 9.60537 -157.345 773.05
vn 0.462022 0.130361 -0.877235
v 8.97537 -151.675 774.073
vn 0.76791 -0.101677 0.632437
v 10.0631 -149.155 784.06
vn 0.651223 -0.00478572 0.758871
v 8.96919 -146.635 785.32
vn 0.98095 -0.0746306 0.179354
v 12.0122 -147.895 780.91
vn 0.896171 0.00942737 -0.443609
v 11.6479 -146.635 777.76
vn 0.648475 -0.0194214 -0.760988
v 9.60537 -146.635 774.821
vn 0.864839 -0.035732 0.500776
v 11.7562 -144.115 782.17
vn 0.857941 -0.105553 -0.502787
v 11.835 -141.595 777.13
vn 0.990663 -0.117718 -0.0687704
v 12.5044 -140.335 780.28
vn 0.849922 -0.224228 -0.476818
v 13.3017 -130.885 776.5
vn 0.5971 -0.211545 -0.77377
v 12.1254 -127.105 773.67
vn 0.64182 0.0800524 0.762665
v 10.8654 -124.585 782.45
vn 0.311378 0.352395 0.882531
v 12.7554 -112.615 778.975
vn -0.0745449 0.521362 0.850073
v 12.7554 -110.725 777.853
vn 0.260242 0.419274 0.86976
v 11.4954 -108.205 776.495
vn 0.591375 0.147418 0.792808
v 10.8654 -107.575 776.603
vn 0.764818 -0.00817283 0.644195
v 9.2067 -107.575 778.39
vn 0.439372 0.237004 0.866476
v 13.3854 -104.425 774.703
vn 0.788691 -0.103349 0.606041
v 13.1344 -101.275 774.61
vn -0.264046 0.48946 0.831089
v 8.97537 -93.0845 775.274
vn -0.290147 -0.0814878 -0.953506
v 12.1254 -89.9345 762.979
vn -0.625034 0.180764 -0.759379
v 10.2354 -87.4145 764.065
vn -0.781595 0.513506 -0.354148
v 12.8883 -80.4845 765.16
vn 0.466861 -0.87334 0.13899
v 5.19537 -192.403 741.85
vn 0.475785 -0.874089 0.0979646
v 5.19537 -192.964 734.29
vn 0.762472 -0.646541 -0.0249255
v 5.82537 -193.322 725.47
vn 0.718076 -0.650128 -0.248398
v 5.32826 -193.255 722.32
vn 0.592468 -0.798788 -0.104496
v 4.56537 -194.421 724.21
vn 0.199788 -0.878821 0.43331
v 3.93537 -186.566 761.38
vn 0.623356 -0.755293 0.202385
v 7.08537 -188.845 751.477
vn 0.579426 -0.760297 0.293622
v 6.45537 -187.964 755.71
vn 0.327191 -0.894781 0.30383
v 4.56537 -189.893 753.19
vn 0.740511 -0.667341 0.0793715
v 7.51357 -190.735 740.59
vn 0.89542 -0.424478 -0.134323
v 7.16904 -190.735 723.58
vn 0.857668 -0.407555 -0.313534
v 6.6867 -190.105 720.43
vn 0.790398 -0.432095 -0.434241
v 4.71795 -188.215 714.13
vn 0.586963 -0.670476 0.453803
v 7.71537 -181.915 766.141
vn 0.449283 -0.803435 0.390688
v 5.82537 -185.857 761.38
vn 0.310474 -0.80899 0.49914
v 5.19537 -184.435 764.588
vn -0.99885 0.0325181 0.0352203
v 4.29467 -183.175 733.03
vn -0.844223 0.531718 -0.0675488
v 3.68436 -185.065 734.92
vn -0.911777 0.408967 0.0375263
v 3.79264 -185.065 729.25
vn 0.933377 -0.105257 -0.343115
v 6.58826 -185.065 716.02
vn 0.935724 0.234273 -0.263698
v 6.70639 -181.915 716.65
vn 0.818589 -0.247994 -0.518084
v 3.93537 -185.009 710.35
vn 0.813462 0.00113823 -0.581616
v 3.8166 -183.175 709.72
vn 0.407361 -0.710515 0.573781
v 5.19537 -180.025 770.896
vn -0.8715 0.439165 -0.218224
v 3.71389 -179.395 755.71
vn 0.50549 0.796272 -0.332312
v 7.71537 -176.811 750.04
vn -0.114172 0.954987 -0.273795
v 5.82537 -177.185 747.52
vn -0.685541 0.691374 -0.228115
v 4.75962 -177.505 748.15
vn -0.954424 0.284714 -0.0895119
v 4.1667 -181.285 748.15
vn -0.988987 0.140622 -0.0461444
v 4.47186 -178.135 749.41
vn 0.502389 0.847753 -0.170058
v 7.08537 -178.868 742.48
vn -0.210544 0.965928 -0.150515
v 5.19537 -178.533 741.22
vn -0.936 0.351865 -0.0097269
v 4.29467 -179.395 741.85
vn 0.683569 0.727184 -0.0627508
v 7.08537 -179.99 734.92
vn 0.0874145 0.995531 -0.0357349
v 5.19537 -179.075 734.29
vn -0.912202 0.409244 0.0201795
v 3.95998 -180.025 734.92
vn -0.198937 0.979332 -0.0364964
v 4.56537 -179.203 734.29
vn -0.0521437 0.998381 0.0227268
v 5.19537 -179.035 728.62
vn -0.469782 0.881805 0.0415439
v 4.56537 -179.183 728.62
vn -0.997411 -0.0274409 0.0664659
v 3.41857 -181.285 726.1
vn -0.874257 0.481581 0.0612741
v 3.6942 -180.025 727.99
vn 0.847855 0.520657 -0.10029
v 7.21826 -180.655 722.32
vn 0.418846 0.907934 -0.0149582
v 5.82537 -179.055 722.95
vn 0.542496 0.831261 -0.121261
v 5.19537 -179.006 717.91
vn -0.0556496 0.998394 -0.0105939
v 3.93537 -178.691 718.54
vn 0.782745 0.568456 -0.253314
v 5.48576 -180.025 715.39
vn 0.81532 0.302468 -0.493727
v 4.29467 -181.285 710.98
vn 0.598331 0.706881 -0.377252
v 3.93537 -179.754 712.24
vn 0.320784 0.927323 -0.192794
v 3.93537 -179.124 714.13
vn 0.347694 -0.656003 0.669902
v 5.19537 -175.494 775.87
vn 0.598543 0.682227 -0.419896
v 8.34537 -172.095 759.49
vn 0.28191 0.823054 -0.493061
v 7.08537 -171.721 758.86
vn 0.0356972 0.864669 -0.501072
v 5.82537 -173.031 756.34
vn -0.885345 0.41261 -0.214282
v 4.45217 -176.245 752.56
vn -0.0242339 0.903847 -0.427169
v 5.82537 -175.984 750.67
vn 0.579037 -0.501686 0.642672
v 7.08537 -171.205 778.119
vn 0.30886 -0.559722 0.768971
v 4.56537 -170.581 780.28
vn -0.973829 0.172431 -0.148072
v 4.78686 -168.055 768.31
vn -0.849435 0.360178 -0.385657
v 3.93537 -168.685 770.718
vn 0.375037 0.716629 -0.588039
v 7.71537 -168.936 763.27
vn 0.108923 0.733131 -0.671309
v 6.45537 -168.055 763.707
vn -0.706506 0.59214 -0.387582
v 5.82537 -169.959 761.38
vn -0.311181 0.711984 -0.62948
v 5.82537 -167.922 763.9
vn -0.991563 0.121994 -0.0438223
v 4.61951 -170.575 763.27
vn 0.499779 -0.440908 0.745534
v 5.82537 -166.165 782.5
vn 0.436292 -0.355012 0.826811
v 4.56537 -162.385 785.128
vn -0.970252 0.148395 -0.191286
v 4.84592 -161.755 772.09
vn 0.63739 0.498198 -0.58782
v 8.34537 -165.322 767.68
vn 0.488797 0.44085 -0.752814
v 8.34537 -162.608 769.57
vn 0.309302 0.610775 -0.728894
v 7.08537 -164.302 767.68
vn -0.0490099 0.677458 -0.733927
v 6.45537 -164.275 767.596
vn -0.746603 0.473025 -0.467794
v 5.82537 -164.905 767.164
vn -0.56574 0.531001 -0.630854
v 5.82537 -163.685 768.31
vn -0.852087 0.369597 -0.370601
v 5.1117 -164.275 768.94
vn -0.829355 0.31805 -0.459363
v 5.19537 -161.755 770.702
vn 0.593045 -0.205075 0.778615
v 7.08537 -157.345 785.374
vn -0.873131 0.184733 -0.451127
v 4.56537 -158.177 776.5
vn -0.656245 0.333792 -0.676702
v 3.36935 -160.495 777.13
vn -0.00245063 0.352806 -0.935693
v 7.08537 -157.345 771.898
vn -0.691687 0.304776 -0.654738
v 5.53498 -157.345 772.72
vn -0.978103 0.103977 -0.180285
v 4.99357 -157.975 775.24
vn -0.961384 0.144239 -0.234383
v 5.1117 -157.975 773.35
vn -0.218784 0.536454 -0.815077
v 6.45537 -160.495 770.362
vn 0.571909 -0.0977489 0.814472
v 7.08537 -151.675 786.388
vn 0.331173 -0.114573 0.936588
v 4.04441 -152.935 787.84
vn 0.0976127 0.216887 -0.971304
v 7.08537 -153.565 773.04
vn -0.409986 0.203541 -0.889091
v 6.45537 -154.825 772.823
vn -0.923238 0.108194 -0.368681
v 5.25936 -154.195 774.61
vn 0.467273 -0.00908131 0.884066
v 6.45537 -147.895 787.018
vn -0.907911 0.0443709 -0.416808
v 4.62935 -148.525 778.39
vn 0.101957 0.0997414 -0.989776
v 7.71537 -148.525 773.906
vn -0.223732 0.132273 -0.965634
v 6.45537 -147.895 774.014
vn -0.867619 -0.0506673 -0.494642
v 4.85576 -142.225 777.76
vn 0.0350728 0.0166178 -0.999247
v 7.71537 -145.375 773.975
vn -0.705952 0.0602021 -0.705697
v 5.88837 -146.005 774.61
vn -0.947776 0.0270646 -0.317786
v 5.34795 -145.375 775.87
vn 0.469146 0.0770106 0.879757
v 7.08537 -138.445 786.26
vn -0.633051 -0.194456 -0.749288
v 3.93537 -138.445 778.158
vn 0.322219 -0.0964438 -0.94174
v 8.34537 -140.965 773.847
vn -0.510034 -0.0844945 -0.855994
v 6.45537 -137.815 773.775
vn -0.904023 -0.0277363 -0.426584
v 5.61373 -140.335 775.24
vn 0.327373 -0.234673 -0.91529
v 7.08537 -127.735 771.858
vn -0.748368 -0.156734 -0.6445
v 5.64326 -129.625 773.35
vn -0.590339 -0.26469 -0.762521
v 3.93537 -128.995 774.969
vn 0.385455 0.175245 0.905932
v 8.34537 -123.955 783.74
vn 0.175039 0.235191 0.956058
v 5.19537 -120.805 784.016
vn -0.515698 -0.229444 -0.825476
v 5.82537 -120.805 770.589
vn 0.422271 0.259992 0.868384
v 7.08537 -113.087 781.54
vn -0.040624 -0.233237 -0.971571
v 8.34537 -111.355 767.143
vn 0.770386 -0.150564 0.619544
v 7.71537 -107.575 780.345
vn -0.467577 -0.118559 -0.875966
v 7.71537 -106.945 766.454
vn -0.0691619 0.410266 0.909339
v 3.93537 -100.015 778.168
vn -0.298153 -0.0599892 -0.952631
v 4.56537 -91.8245 768.069
vn -0.562631 0.659453 0.498567
v 6.24274 -90.5645 771.46
vn -0.633243 0.155989 -0.75807
v 7.77312 -88.6745 766.42
vn -0.749634 0.65109 0.118871
v 7.49389 -88.0445 768.94
vn -0.777565 0.494065 -0.388962
v 7.60217 -88.0445 767.05
vn 0.0759977 -0.951188 0.299107
v 0.78537 -191.995 748.984
vn 0.176881 -0.969244 0.17111
v 2.67537 -193.043 743.11
vn 0.243752 -0.960331 0.135457
v 2.67537 -194.155 733.03
vn 0.128701 -0.98433 0.120546
v 2.04537 -195.435 726.73
vn 0.42906 -0.90173 0.0528289
v 3.30537 -195.228 725.47
vn 0.407744 -0.87997 -0.243714
v 2.67537 -195.14 722.32
vn 0.125791 -0.989282 -0.0741447
v 1.41537 -195.691 723.58
vn 0.127588 -0.946549 -0.296255
v 0.78537 -195.297 721.06
vn 0.576416 -0.690726 -0.436627
v 3.30537 -193.2 718.54
vn 0.233437 -0.854979 -0.46316
v 1.41537 -193.885 717.979
vn 0.0371177 -0.914302 0.403329
v 0.78537 -188.948 756.97
vn -0.344681 0.929916 -0.128263
v 1.41537 -186.477 737.44
vn 0.0470364 0.987722 -0.148971
v -1.10463 -186.704 737.44
vn -0.63225 0.774763 -0.00144784
v 2.67537 -186.487 727.99
vn -0.22049 0.975173 -0.0205553
v 1.41537 -187.196 727.36
vn -0.0345994 0.998635 0.0391181
v 0.15537 -187.304 721.69
vn -0.458459 0.885243 0.0784919
v 1.41537 -186.871 720.43
vn -0.138452 0.982899 0.121409
v 0.15537 -186.91 717.28
vn 0.622689 -0.52939 -0.576198
v 3.00514 -187.585 710.98
vn 0.424329 -0.487637 -0.76299
v 1.41537 -186.955 709.203
vn 0.317023 -0.707437 -0.631688
v 0.15537 -189.036 710.35
vn 0.149738 -0.545206 -0.824821
v 0.15537 -187.585 709.095
vn -0.112583 -0.715222 -0.68977
v -1.10463 -189.155 710.35
vn 0.0326584 -0.853812 0.519557
v 0.78537 -184.154 766.42
vn -0.218889 0.920353 -0.324096
v 1.41537 -182.717 751.93
vn -0.120075 0.907034 -0.403573
v 0.78537 -181.821 754.45
vn -0.62662 0.750749 -0.209103
v 2.67537 -183.494 747.52
vn -0.184505 0.953888 -0.23676
v 0.78537 -185.493 743.11
vn -0.606894 0.787423 -0.107913
v 2.67537 -185.975 736.18
vn -0.78409 0.61488 0.0844129
v 2.72951 -185.695 720.43
vn -0.955189 0.291987 0.0485538
v 2.52279 -184.435 712.24
vn 0.683869 -0.307387 -0.661693
v 3.30537 -185.065 709.538
vn 0.722427 -0.149795 -0.675027
v 3.30537 -184.435 709.37
vn 0.678476 0.173952 -0.71373
v 3.30537 -183.175 709.232
vn 0.562272 -0.406686 -0.720039
v 2.67537 -185.695 709.311
vn 0.513361 -0.310845 -0.799898
v 2.67537 -185.065 709.036
vn -0.840203 0.541637 0.0262562
v 2.44404 -184.435 709.72
vn -0.900555 0.0663144 -0.429654
v 2.67537 -183.78 709.72
vn -0.488374 0.866328 0.104723
v 1.41537 -185.404 709.09
vn 0.276963 -0.398519 -0.874342
v 0.78537 -186.325 708.642
vn -0.0631498 0.990906 0.118819
v 0.15537 -185.778 709.09
vn -0.0653972 -0.510019 -0.857673
v -1.10463 -186.325 708.396
vn 0.0580647 -0.731549 0.679312
v 0.78537 -177.933 774.61
vn 0.154597 -0.780955 0.605152
v 3.13575 -181.285 770.2
vn -0.204437 0.846595 -0.491408
v 1.41537 -179.252 759.49
vn -0.53219 0.767093 -0.358248
v 2.67537 -180.655 755.438
vn 0.309037 0.82947 -0.465269
v 3.30537 -179.705 711.61
vn 0.177123 0.943403 -0.280391
v 3.30537 -179.395 712.356
vn -0.994202 -0.0595334 -0.089542
v 2.16842 -180.655 711.61
vn 0.0600191 0.891485 -0.449058
v 2.67537 -179.616 711.61
vn -0.723814 0.689484 0.0265358
v 2.67537 -179.232 713.5
vn -0.939008 0.326957 -0.106595
v 2.04537 -180.025 712.397
vn 0.443666 0.662515 -0.603519
v 3.30537 -180.655 710.315
vn -0.857809 0.232996 -0.458123
v 2.67537 -180.655 710.207
vn 0.0878175 -0.647559 0.756938
v 0.78537 -173.725 778.7
vn -0.0492002 0.766631 -0.640201
v 0.15537 -173.414 768.31
vn -0.55716 0.671949 -0.48791
v 2.67537 -174.468 765.79
vn -0.0430251 -0.541967 0.839298
v 0.15537 -167.425 783.445
vn -0.494309 0.514481 -0.700691
v 2.67537 -166.795 773.817
vn -0.40343 0.644135 -0.649873
v 2.04537 -169.315 772.105
vn -0.106113 0.631978 -0.767688
v 0.78537 -168.685 773.069
vn 0.211581 -0.45015 0.867525
v 2.67537 -164.647 784.69
vn -0.159048 0.484774 -0.860057
v 1.41537 -162.385 777.312
vn 0.261619 -0.295609 0.918788
v 3.30537 -159.235 786.791
vn -0.00588056 -0.232132 0.972667
v 0.15537 -157.345 787.855
vn -0.0561622 -0.382581 0.922213
v -1.10463 -161.125 786.555
vn -0.339654 0.288251 -0.895291
v 2.04537 -156.715 779.438
vn 0.156484 0.330109 -0.930882
v -1.10463 -157.345 779.556
vn -0.0488166 -0.0678414 0.996501
v -0.47463 -151.675 788.839
vn -0.67588 0.162882 -0.718788
v 3.30537 -154.825 779.153
vn -0.355063 0.10936 -0.928424
v 2.04537 -152.305 780.403
vn -0.0825456 0.20308 -0.975676
v 0.78537 -154.195 780.413
vn -0.632321 0.0139861 -0.77458
v 3.30537 -148.525 779.93
vn -0.18795 -0.0626458 -0.980179
v 1.41537 -146.635 780.777
vn 0.0161815 0.0607372 -0.998023
v -0.47463 -151.045 780.895
vn 0.244438 0.034226 0.969061
v 2.67537 -142.225 788.425
vn -0.571958 -0.0964854 -0.814588
v 3.30537 -144.115 779.714
vn -0.269488 -0.203115 -0.94134
v 2.04537 -141.595 779.911
vn 0.0727075 0.10715 0.991581
v 0.15537 -138.445 788.583
vn 0.217377 0.173395 0.960563
v 2.67537 -135.925 787.766
vn -0.114637 0.175502 0.977782
v -1.10463 -135.925 788.179
vn -0.379507 -0.285237 -0.880122
v 2.67537 -135.295 777.962
vn -0.0953457 -0.305822 -0.947303
v 0.78537 -134.665 778.227
vn -0.344423 -0.279536 -0.896232
v 2.67537 -120.175 772.36
vn -0.186082 -0.12594 -0.974429
v 0.78537 -108.835 770.323
vn -0.153369 0.668168 0.728031
v 1.41537 -97.4945 776.032
vn -0.000582059 0.461367 0.887209
v -1.10463 -100.015 777.43
vn -0.197954 0.864067 0.46282
v 0.15537 -96.1017 773.98
vn 0.223275 0.974575 0.0187561
v -0.47463 -95.7867 772.72
vn -0.759205 0.572418 -0.309752
v 0.78537 -96.2345 769.075
vn 0.0489659 -0.00728267 -0.998774
v -0.47463 -96.8645 769.083
vn -0.290249 0.869669 -0.399289
v -1.10463 -96.0032 770.2
vn -0.364207 0.714059 0.59789
v 3.30537 -95.1468 774.61
vn -0.522802 0.806698 0.27553
v 1.43787 -94.9745 772.72
vn -0.755518 0.632876 -0.169291
v 2.48342 -93.7145 769.57
vn -0.487945 0.860249 -0.147926
v 0.78537 -95.3338 770.83
vn -0.0977779 -0.971309 0.21679
v -1.73463 -192.423 747.52
vn -0.0595937 -0.973564 -0.220501
v -1.73463 -195.337 721.06
vn -0.0943866 -0.993656 0.061141
v -2.99463 -195.691 724.84
vn -0.26245 -0.951711 -0.159269
v -3.62463 -195.425 722.95
vn -0.433117 -0.900883 -0.0286349
v -4.88463 -195.081 724.21
vn -0.492772 -0.835973 -0.241505
v -4.88463 -194.756 722.32
vn -0.661397 -0.746473 -0.0730281
v -6.14463 -194.244 724.21
vn -0.0768603 -0.892171 -0.445111
v -1.73463 -194.136 717.91
vn -0.321193 -0.884092 -0.339436
v -2.99463 -194.953 720.43
vn -0.450909 -0.7468 -0.488847
v -3.62463 -193.171 717.28
vn -0.654768 -0.678504 -0.333032
v -6.14463 -192.73 719.8
vn -0.168312 -0.91818 0.358633
v -3.62463 -190.336 753.19
vn -0.300427 -0.91816 0.258313
v -4.88463 -191.301 749.41
vn 0.349034 0.935215 -0.059563
v -2.99463 -186.891 732.4
vn 0.421113 0.905656 0.0495095
v -2.99463 -186.871 721.69
vn 0.0779287 0.99065 0.111984
v -1.73463 -186.881 717.28
vn -0.677433 -0.518837 -0.521433
v -4.88463 -188.879 712.87
vn -0.448851 -0.625807 -0.637886
v -2.99463 -188.215 710.207
vn -0.186553 -0.814793 0.548918
v -4.25463 -183.347 767.05
vn -0.171681 -0.871116 0.46009
v -4.25463 -185.985 762.64
vn 0.213885 0.911061 -0.352451
v -2.36463 -182.983 751.3
vn 0.117944 0.955159 -0.271589
v -1.73463 -184.321 747.52
vn 0.514727 0.815782 -0.263736
v -3.62463 -183.307 748.78
vn 0.845379 0.506241 -0.170453
v -5.00768 -181.915 748.78
vn 0.4313 0.883208 -0.184183
v -2.99463 -185.493 741.85
vn 0.680388 0.711949 -0.173785
v -4.28908 -183.805 745
vn 0.836123 0.541854 -0.0853985
v -5.01752 -184.435 738.07
vn 0.999175 0.0018775 0.0405748
v -5.61799 -182.545 733.66
vn 0.830843 0.555955 0.0247693
v -4.71236 -185.695 728.62
vn 0.98189 -0.186465 0.0335021
v -4.03314 -182.545 711.61
vn -0.871187 -0.222587 -0.437594
v -6.14463 -185.065 711.762
vn -0.237758 0.197242 -0.951087
v -2.99463 -186.325 708.868
vn 0.577408 0.80765 0.11959
v -2.99463 -185.257 709.09
vn 0.521433 0.581725 -0.624262
v -3.91163 -184.435 709.09
vn 0.98609 0.157172 0.0540656
v -3.98393 -183.805 709.72
vn 0.995796 -0.0428692 -0.0809457
v -4.05283 -182.545 709.72
vn 0.405246 0.376843 -0.832926
v -4.25463 -184.435 708.849
vn 0.574614 0.0429162 -0.817299
v -4.25463 -183.175 708.915
vn -0.699645 -0.369271 -0.611666
v -4.88463 -185.232 709.72
vn -0.789289 -0.158883 -0.59311
v -5.15533 -184.435 709.72
vn -0.652899 0.026589 -0.756978
v -4.88463 -183.175 709.23
vn -0.574046 0.302731 -0.760806
v -4.88463 -181.915 709.445
vn -0.862703 0.0481155 -0.503416
v -5.69674 -182.545 710.35
vn -0.0807074 -0.778824 0.622028
v -2.36463 -180.433 771.46
vn -0.308937 -0.722375 0.618654
v -4.88463 -180.025 771.231
vn 0.107085 0.831875 -0.544533
v -1.73463 -177.844 762.01
vn 0.230642 0.857816 -0.459298
v -2.36463 -179.587 758.86
vn 0.631994 0.691118 -0.350627
v -4.25463 -179.395 757.166
vn 0.993869 0.10759 -0.02546
v -5.77549 -180.025 746.26
vn 0.924623 0.369919 -0.0907267
v -5.82471 -178.135 746.89
vn 0.785068 0.56835 -0.246265
v -5.87393 -177.505 748.15
vn 0.637763 0.740925 -0.210446
v -6.14463 -177.796 746.26
vn 0.95321 0.301777 0.0179316
v -5.39158 -180.025 737.44
vn 0.712489 0.701646 -0.00726358
v -6.14463 -178.976 736.18
vn 0.426143 0.897174 -0.11611
v -6.14463 -178.62 740.59
vn 0.909785 0.411899 0.0512872
v -5.05689 -180.025 728.62
vn 0.632051 0.773485 0.0472562
v -5.49986 -179.395 728.62
vn 0.997011 -0.0111408 0.076453
v -4.4958 -181.285 722.95
vn 0.813167 0.576114 0.0827793
v -4.86002 -179.395 722.32
vn 0.126073 0.991977 -0.00930793
v -5.51463 -178.632 718.54
vn 0.97204 -0.048065 -0.229843
v -3.51143 -180.655 710.98
vn 0.82986 0.555851 0.0485943
v -3.35393 -180.025 712.87
vn 0.922649 0.148398 -0.355944
v -3.62463 -179.951 710.98
vn -0.0376599 0.899874 -0.434521
v -4.25463 -179.793 710.98
vn 0.673736 0.738594 0.0236509
v -4.25463 -179.084 713.5
vn -0.518035 0.717604 -0.465493
v -4.88463 -180.025 711.006
vn -0.291614 0.927894 -0.232323
v -4.88463 -179.065 713.5
vn -0.806744 0.366589 -0.46344
v -5.77549 -181.285 710.98
vn -0.732194 0.607853 -0.307256
v -6.14463 -180.025 713.255
vn 0.813257 0.172829 -0.555647
v -4.25463 -180.655 709.892
vn -0.582597 0.537511 -0.609642
v -4.88463 -180.655 710.276
vn -0.173438 -0.666062 0.725452
v -2.36463 -174.985 777.371
vn 0.469886 0.701977 -0.535197
v -2.99463 -174.802 765.79
vn 0.928385 0.312993 -0.200341
v -5.5294 -176.245 758.86
vn 0.958425 0.23942 -0.155237
v -5.71643 -173.095 759.49
vn -0.369043 -0.5362 0.759142
v -5.51463 -170.769 779.65
vn 0.282116 0.620917 -0.731349
v -2.36463 -168.055 773.217
vn 0.699847 0.518112 -0.491705
v -4.4958 -171.205 768.31
vn 0.925937 0.235961 -0.294894
v -5.37189 -167.425 770.2
vn 0.721902 0.518508 -0.458265
v -6.02158 -168.685 763.27
vn -0.370154 -0.417629 0.829802
v -4.25463 -163.645 784.626
vn 0.301302 0.477111 -0.82558
v -2.36463 -163.645 776.288
vn 0.670332 0.425932 -0.607649
v -3.62463 -165.893 773.98
vn 0.909361 0.289334 -0.298913
v -5.96252 -166.165 766.42
vn 0.705366 0.404299 -0.582237
v -6.32674 -162.385 768.94
vn -0.346714 -0.273121 0.897326
v -3.62463 -159.235 786.644
vn 0.585262 0.330377 -0.740486
v -3.62463 -160.495 777.154
vn 0.893911 0.162171 -0.41788
v -5.17502 -157.345 776.5
vn 0.957538 0.159359 -0.240262
v -5.69674 -160.495 772.09
vn 0.957214 0.111882 -0.266877
v -5.86408 -157.345 773.35
vn 0.847239 0.227208 -0.480169
v -6.14463 -157.693 772.09
vn -0.300337 -0.143742 0.94294
v -3.62463 -154.16 787.84
vn -0.505168 -0.155548 0.848887
v -6.14463 -153.565 786.742
vn 0.273983 0.138606 -0.951694
v -1.73463 -152.935 780.472
vn 0.55577 0.204365 -0.805825
v -2.99463 -154.825 779.537
vn 0.773055 0.1116 -0.624445
v -4.55486 -153.565 778.39
vn 0.83004 0.138824 -0.540149
v -6.29721 -155.455 772.72
vn -0.429224 -0.0254491 0.902839
v -6.13413 -147.895 787.21
vn 0.293916 -0.0451246 -0.954765
v -2.36463 -146.635 780.541
vn 0.616182 0.0488135 -0.78609
v -3.62463 -149.155 779.871
vn 0.92518 0.0571899 -0.375196
v -6.20861 -146.635 774.61
vn -0.151673 0.0427207 0.987507
v -1.73463 -142.225 788.77
vn 0.598762 -0.0974621 -0.794975
v -4.25463 -144.115 779.251
vn 0.874683 -0.0136121 -0.484505
v -5.48018 -143.485 777.76
vn -0.39932 0.083238 0.913025
v -5.51463 -136.555 787.018
vn 0.191067 -0.203289 -0.960295
v -1.73463 -140.965 779.92
vn 0.229115 -0.301539 -0.925516
v -1.73463 -134.035 777.952
vn 0.590181 -0.212613 -0.778769
v -4.88463 -135.295 776.928
vn 0.806772 -0.128281 -0.576769
v -6.17908 -130.255 773.98
vn -0.0416669 0.260607 0.964545
v -3.62463 -119.545 784.222
vn 0.0686382 -0.281665 -0.957055
v -1.73463 -120.175 772.922
vn 0.396416 -0.26096 -0.880201
v -4.25463 -120.805 772.351
vn 0.576349 -0.207811 -0.790339
v -6.14463 -119.545 770.825
vn 0.298571 -0.166261 -0.939794
v -3.62463 -109.465 770.116
vn 0.203656 -0.0655868 -0.976843
v -3.62463 -102.535 769.25
vn 0.233927 0.890359 0.390561
v -1.73463 -95.7473 773.35
vn 0.220691 0.655531 0.722202
v -2.36463 -97.3895 775.87
vn 0.0926882 0.134863 -0.98652
v -1.73463 -96.8645 769.102
vn 0.480173 0.843358 -0.241209
v -1.73463 -95.767 770.2
vn 0.226917 0.346289 -0.910271
v -1.73463 -96.2345 769.302
vn 0.33674 0.221971 -0.91506
v -2.36463 -96.2345 769.053
vn 0.531546 0.846908 -0.0143699
v -1.73463 -95.5012 772.09
vn 0.728386 0.67209 -0.133222
v -2.71408 -94.9745 769.57
vn 0.700534 0.360402 -0.615924
v -4.86986 -92.4545 768.94
vn 0.301064 -0.0401253 -0.952759
v -5.51463 -92.4545 768.206
vn -0.450355 -0.881268 0.143345
v -6.77463 -192.216 741.85
vn -0.874349 -0.469289 -0.123622
v -8.03463 -192.046 724.84
vn -0.534881 -0.799166 0.274292
v -7.40463 -188.741 753.82
vn -0.775815 -0.605826 0.17631
v -9.75236 -186.955 752.56
vn -0.784336 -0.615229 0.0794403
v -8.76799 -190.735 740.59
vn -0.980565 -0.192854 -0.0360389
v -10.5792 -186.955 735.55
vn -0.974659 -0.201203 -0.0977597
v -9.91971 -186.955 725.47
vn -0.952425 -0.220625 -0.210267
v -9.40783 -186.955 721.69
vn -0.810973 -0.449239 -0.374843
v -7.12408 -190.105 717.91
vn -0.431387 -0.808803 0.39968
v -6.77463 -185.778 761.38
vn -0.390068 -0.763051 0.515364
v -6.77463 -183.209 765.79
vn -0.617017 -0.653894 0.437851
v -8.66463 -182.372 765.16
vn -0.736549 -0.61427 0.283141
v -10.3135 -183.175 760.75
vn -0.946212 -0.316341 0.0679066
v -11.416 -183.805 753.19
vn -0.997639 -0.0135671 -0.0673233
v -11.3667 -183.175 748.78
vn -0.964366 0.254449 -0.072488
v -10.5005 -183.175 734.29
vn -0.990286 0.0222295 -0.137256
v -9.89018 -184.435 723.58
vn -0.955738 0.24031 -0.169754
v -9.31924 -182.545 721.69
vn -0.947022 -0.0824445 -0.310405
v -8.03463 -185.065 716.033
vn -0.927412 0.175968 -0.330065
v -7.40463 -181.915 714.472
vn -0.573175 -0.600721 0.557319
v -8.03463 -177.854 771.46
vn -0.795893 -0.44903 0.40611
v -10.658 -177.505 768.31
vn -0.859067 -0.432211 0.274221
v -11.1896 -180.025 763.9
vn -0.0395024 0.957643 -0.285237
v -7.40463 -177.155 746.89
vn -0.546641 0.794642 -0.26406
v -8.66463 -177.775 746.26
vn -0.344697 0.851229 -0.395718
v -8.66463 -176.761 748.78
vn -0.853332 0.477932 -0.208342
v -10.6875 -180.655 745
vn -0.459323 0.872835 -0.164867
v -8.03463 -178.976 739.96
vn -0.31482 0.948494 -0.0353119
v -6.77463 -179.055 734.29
vn -0.730272 0.679281 -0.0726612
v -9.20111 -180.655 735.55
vn -0.152351 0.988326 0.00112494
v -6.77463 -178.809 723.58
vn -0.605847 0.79528 -0.0218694
v -7.40463 -179.134 724.21
vn -0.838195 0.540105 -0.0755941
v -8.66463 -180.684 722.95
vn -0.573534 0.809892 -0.123022
v -6.77463 -179.124 717.91
vn -0.846444 0.495163 -0.195821
v -7.44893 -180.025 717.28
vn -0.510749 -0.568953 0.644537
v -6.77463 -174.473 775.87
vn -0.808439 -0.369601 0.458063
v -11.1108 -172.465 772.09
vn -0.814596 0.475087 -0.332755
v -10.9927 -173.095 759.49
vn 0.248552 0.886407 -0.390517
v -6.77463 -175.984 750.04
vn 0.528359 0.638669 -0.559409
v -7.40463 -166.795 764.121
vn -0.625602 0.569043 -0.533678
v -10.0871 -168.055 764.53
vn 0.792423 0.492689 -0.359616
v -6.77463 -170.333 760.12
vn -0.462618 0.735748 -0.49463
v -9.34713 -171.205 759.49
vn -0.648252 -0.399426 0.64825
v -8.60963 -166.165 780.28
vn 0.568497 0.554712 -0.607541
v -7.40463 -164.458 766.42
vn 0.530492 0.473874 -0.702866
v -7.40463 -161.755 768.551
vn -0.384328 0.56733 -0.728305
v -8.66463 -164.275 766.809
vn -0.199316 0.536549 -0.819993
v -8.66463 -162.385 768.167
vn -0.53912 0.423447 -0.72804
v -9.92463 -162.385 768.866
vn -0.723242 0.378733 -0.577479
v -10.8155 -164.905 768.31
vn -0.636826 -0.247633 0.730158
v -8.66463 -159.55 783.43
vn -0.827308 -0.235842 0.509844
v -11.1699 -161.125 779.65
vn -0.721349 0.288916 -0.629431
v -11.1846 -159.865 771.423
vn -0.809076 0.184974 -0.557836
v -11.7802 -156.715 773.35
vn 0.616827 0.358817 -0.700553
v -7.40463 -157.975 770.717
vn -0.342648 0.401448 -0.849371
v -9.29463 -159.203 770.2
vn -0.625202 -0.1052 0.77334
v -8.66463 -152.305 785.128
vn 0.271746 0.245161 -0.930618
v -7.40463 -153.565 772.164
vn -0.519398 0.246288 -0.818271
v -10.5546 -155.455 772.42
vn -0.693945 0.0944595 -0.713805
v -11.1846 -151.675 773.896
vn -0.765136 -0.107321 0.634861
v -10.8844 -149.155 783.43
vn 0.579176 0.0836644 -0.810898
v -6.77463 -146.635 773.733
vn 0.189669 0.154273 -0.969652
v -7.40463 -149.155 773.01
vn -0.207711 0.116904 -0.971179
v -8.66463 -149.155 772.971
vn -0.596955 -0.00968522 0.802216
v -8.66463 -144.745 785.689
vn -0.0041505 0.0332472 -0.999439
v -8.66463 -146.005 773.168
vn -0.427373 0.00715439 -0.904047
v -9.92463 -146.005 773.473
vn 0.823072 -0.0281416 -0.567239
v -6.77463 -137.815 773.933
vn 0.225837 -0.0857866 -0.97038
v -8.03463 -137.815 772.862
vn -0.42215 -0.100401 -0.900949
v -10.5546 -137.72 773.35
vn 0.513292 -0.163879 -0.842422
v -7.40463 -128.496 772.09
vn 0.117502 -0.160227 -0.980062
v -8.66463 -128.365 771.612
vn -0.347516 0.169025 0.922314
v -9.29463 -124.585 783.828
vn -0.226635 -0.218032 -0.949262
v -10.5546 -124.585 771.179
vn 0.0301142 -0.241055 -0.970044
v -8.66463 -124.565 770.83
vn -0.350378 0.25062 0.902455
v -8.03463 -113.875 781.85
vn -0.34806 0.349586 0.869853
v -10.5546 -115.765 781.436
vn -0.586804 0.267799 0.764163
v -9.29463 -113.245 780.846
vn 0.249957 -0.170396 -0.953146
v -9.92463 -111.484 767.05
vn -0.57619 0.0458013 0.816031
v -9.29463 -108.205 779.992
vn -0.65327 0.108655 0.749288
v -11.5144 -107.575 777.13
vn 0.0419302 0.366246 0.929573
v -6.77463 -100.015 778.316
vn 0.448922 0.584901 0.675545
v -7.40463 -91.7212 772.72
vn 0.719212 0.287875 -0.632346
v -6.77463 -90.4635 767.68
vn 0.731319 0.668448 0.13546
v -8.66463 -88.1204 768.94
vn 0.779384 0.438815 -0.447216
v -8.66463 -88.3595 767.05
vn 0.676288 0.256837 -0.690412
v -11.5538 -86.1545 764.53
vn -0.997672 -0.0254133 -0.0632748
v -11.9574 -180.655 753.19
vn -0.977819 -0.164196 0.13004
v -12.2625 -175.615 765.16
vn -0.977634 0.164733 -0.130747
v -12.2625 -173.725 763.9
vn -0.993391 0.063475 -0.0956274
v -12.233 -169.315 768.94
vn -0.897996 0.298348 -0.323407
v -11.8146 -168.258 767.68
vn -0.959521 -0.154521 0.235464
v -11.9771 -163.645 776.5
vn -0.881834 0.231922 -0.410585
v -11.8146 -165.535 769.56
vn -0.999465 -0.0324994 -0.00376601
v -12.4102 -161.125 775.24
vn -0.922248 0.144942 -0.358401
v -11.9672 -161.125 772.09
vn -0.972405 0.0094904 -0.233105
v -12.8039 -150.415 777.76
vn -0.952368 -0.089588 0.291496
v -12.8827 -148.525 780.28
vn -0.817597 -0.0472775 0.573847
v -11.8146 -143.485 782.827
vn -0.991413 -0.105846 0.0767864
v -13.7883 -138.445 779.02
vn -0.827239 -0.0914854 -0.554352
v -12.8433 -140.335 775.87
vn -0.612392 0.0672194 0.787691
v -12.4446 -127.105 782.332
vn -0.945458 -0.19071 -0.264082
v -15.5897 -127.105 776.5
vn -0.582074 -0.223344 -0.781862
v -12.5252 -127.105 772.72
vn -0.928015 -0.0611994 0.367481
v -15.5946 -125.845 778.457
vn -0.989282 -0.127531 0.0711153
v -16.4953 -121.435 775.87
vn -0.306721 0.414891 0.856614
v -11.8146 -110.725 777.922
vn -0.632042 0.195773 0.749797
v -15.5946 -110.095 777.511
vn -0.119598 0.488006 0.864608
v -15.5946 -108.835 776.869
vn -0.287514 -0.268859 -0.919267
v -12.4446 -110.095 767.084
vn -0.814366 -0.118097 0.568208
v -14.3346 -101.275 774.759
vn -0.370824 0.316632 0.87306
v -14.9646 -104.425 774.526
vn -0.930381 -0.330461 0.158705
v -16.3181 -96.2345 772.72
vn 0.0270121 0.282092 0.959007
v -16.2246 -93.7145 776.268
vn 0.198846 0.457055 0.866926
v -13.7046 -91.8245 775.451
vn -0.892462 -0.332374 0.305024
v -16.2246 -94.985 775.87
vn -0.00589526 -0.19248 -0.981283
v -13.7046 -94.9745 763.757
vn 0.502145 0.0468739 -0.863512
v -12.4446 -89.3045 763.304
vn 0.61306 0.589175 0.526336
v -13.0746 -83.0587 769.57
vn 0.766129 0.627231 0.140098
v -13.5717 -81.1145 767.05
vn 0.630449 0.333725 -0.700829
v -14.8796 -81.7445 763.27
vn 0.344686 0.0550761 -0.937101
v -15.5946 -84.2645 762.143
vn 0.780646 0.530072 -0.331082
v -14.2017 -80.4845 765.16
vn -0.78176 -0.27229 -0.560989
v -16.8546 -108.835 768.99
vn -0.894114 -0.0312133 0.446751
v -18.1146 -104.425 773.817
vn -0.898635 -0.238629 -0.368118
v -18.8578 -105.685 770.83
vn -0.62358 0.134065 0.770178
v -17.4846 -98.7545 771.051
vn -0.965555 -0.198334 -0.168425
v -20.0046 -98.7545 769.371
vn -0.676869 0.0236325 0.735724
v -20.0553 -94.9745 768.94
vn -0.952685 -0.122701 0.278092
v -20.6346 -95.2895 768.31
vn -0.911284 -0.317968 -0.261645
v -21.2646 -91.8789 767.05
vn -0.830133 -0.121034 0.544269
v -21.2646 -91.1945 767.633
vn -0.631805 -0.161597 0.758096
v -19.665 -88.0445 774.61
vn 0.250825 0.384436 0.888423
v -20.0046 -86.207 774.61
vn 0.177648 0.710585 -0.680816
v -20.1621 -86.1545 774.61
vn 0.177648 0.710585 -0.680816
v -20.6346 -86.0364 774.61
vn 0.177648 0.710585 -0.680816
v -20.6346 -86.1545 774.487
vn -0.829403 -0.217854 0.514422
v -20.3738 -87.4145 768.94
vn -0.442902 -0.350906 -0.825047
v -18.1146 -90.5645 763.55
vn -0.913261 -0.405965 0.0338592
v -20.5313 -85.5245 772.09
vn -0.0661349 -0.562072 0.82444
v -21.7371 -83.6345 773.98
vn 0.434448 0.242423 -0.867459
v -16.8546 -81.1145 762.084
vn -0.0629192 -0.172708 -0.982961
v -19.3746 -83.6345 761.621
vn 0.59323 0.481359 -0.645269
v -18.7446 -76.7045 762.802
vn 0.554517 0.635138 0.53769
v -20.0046 -74.8145 767.875
vn 0.644558 0.680339 0.348832
v -20.0046 -73.7859 766.42
vn 0.736639 0.657897 -0.156632
v -18.7446 -74.896 765.16
vn -0.888495 -0.297792 0.349138
v -23.2196 -86.7845 766.42
vn -0.727281 -0.511487 -0.45765
v -23.1546 -85.7542 764.53
vn -0.0661349 -0.562072 0.82444
v -21.8946 -83.616 773.98
vn -0.0661349 -0.562072 0.82444
v -21.8946 -83.6345 773.967
vn -0.652749 -0.16437 0.739528
v -22.5099 -85.5245 767.05
vn -0.737502 -0.577439 -0.350223
v -26.3046 -82.1132 765.16
vn -0.867526 -0.490198 -0.0842918
v -25.0446 -77.537 772.09
vn 0 -1 0
v -25.2721 -76.0745 772.09
vn 0 -1 0
v -25.6746 -76.0745 772.232
vn 0.312109 0.346785 0.884493
v -25.6746 -75.7123 772.09
vn 0 -1 0
v -25.6746 -76.0745 771.607
vn -0.72756 -0.205277 0.654613
v -26.3096 -77.9645 766.42
vn 0.175212 0.080501 -0.981234
v -21.8946 -77.3345 761.139
vn -0.0636673 -0.0772136 -0.99498
v -23.7846 -77.3345 761.03
vn -0.372399 -0.37326 -0.849703
v -24.4146 -79.2245 761.542
vn 0.395188 0.460361 0.794918
v -25.6746 -75.4445 771.932
vn -0.511375 -0.434662 0.741326
v -26.8874 -73.5545 771.46
vn 0.367272 0.327201 -0.870661
v -22.5246 -74.8145 761.513
vn 0.624037 0.729375 -0.280338
v -22.5246 -71.4431 763.9
vn 0.103246 0.203142 -0.973691
v -25.6746 -72.9245 761.188
vn 0.399419 0.517772 -0.756556
v -25.6746 -70.4045 762.32
vn -0.579533 -0.0864721 0.810348
v -28.8246 -77.3345 764.456
vn -0.511375 -0.434662 0.741326
v -26.9346 -73.499 771.46
vn -0.511375 -0.434662 0.741326
v -26.9346 -73.5545 771.427
vn 0.499882 0.554132 0.665624
v -26.9346 -71.6645 770.5
vn 0.534868 0.415978 -0.735444
v -28.183 -71.0345 770.83
vn -0.620381 -0.00868856 0.784252
v -27.8237 -71.0345 770.2
vn 0.534868 0.415978 -0.735444
v -28.1946 -71.0195 770.83
vn 0.534868 0.415978 -0.735444
v -28.1946 -71.0345 770.821
vn -0.224662 -0.155436 -0.96196
v -28.9914 -73.5545 761.38
vn -0.475352 0.102829 0.873766
v -29.4546 -72.9245 763.787
vn -0.603551 -0.53858 -0.587927
v -31.0821 -74.8145 763.27
vn -0.521823 -0.556664 -0.646394
v -30.7146 -74.5934 762.64
vn -0.732952 0.50719 0.453365
v -30.7146 -74.1845 763.159
vn -0.619613 -0.616743 0.485497
v -31.7487 -73.5545 762.64
vn -0.501211 0.153911 0.851527
v -31.3446 -72.9245 762.792
vn -0.372821 -0.322614 -0.870014
v -31.3446 -72.6883 762.01
vn -0.544774 0.168771 0.821424
v -31.3609 -72.2945 762.64
vn -0.26672 0.0186551 -0.963594
v -31.3446 -71.0345 761.621
vn 0.503366 0.595374 0.626221
v -28.8246 -68.2454 769.57
vn -0.876784 -0.461876 0.133866
v -29.4546 -68.3177 768.94
vn 0.422724 0.720717 -0.549427
v -27.5646 -68.2143 763.27
vn 0.195372 0.555918 -0.807951
v -30.0846 -67.8845 762.428
vn -0.891653 -0.396783 0.217985
v -30.9164 -66.6245 763.9
vn 0.193197 0.692756 -0.694813
v -30.7146 -66.2332 763.9
vn 0.354701 0.80787 -0.470674
v -30.7146 -65.6451 764.53
vn 0.0289969 0.397282 -0.917238
v -31.3446 -68.5145 761.956
vn -0.663742 -0.275531 0.695363
v -31.3446 -65.3547 768.31
vn 0.524067 0.81617 0.243351
v -31.3446 -64.641 767.68
vn 0.439481 0.865814 -0.239212
v -30.7146 -65.0938 765.79
vn -0.74206 -0.576903 0.341365
v -31.9746 -71.8779 762.01
vn -0.836469 -0.540662 0.0894607
v -32.1075 -64.7345 765.79
vn 0.374289 0.135678 0.917333
v 31.1028 -71.0345 762.01
vn 0.305774 -0.0743537 -0.949196
v 31.1028 -71.0345 762.01
vn 0.507971 -0.451914 -0.733307
v 30.4614 -73.5545 762.64
vn 0.56513 -0.0322823 0.82437
v 30.4614 -73.5545 762.64
vn 0.810345 0.286775 -0.510981
v 29.8412 -72.9245 762.01
vn 0.373068 -0.310827 -0.874189
v 29.8412 -72.9245 762.01
vn 0.429318 0.135037 0.893001
v 30.0155 -72.2945 762.64
vn 0.810345 0.286775 -0.510981
v 30.0155 -72.2945 762.64
vn 0.18259 0.158623 -0.970309
v 30.3954 -69.0829 762.01
vn 0.395144 0.87942 -0.265485
v 30.3954 -69.0829 762.01
vn 0.395144 0.87942 -0.265485
v 29.5537 -68.5145 762.64
vn 0.951721 0.302018 0.054877
v 29.5537 -68.5145 762.64
vn 0.765921 0.385428 -0.514598
v 29.5537 -68.5145 762.64
vn 0.951721 0.302018 0.054877
v 29.3175 -67.8845 763.27
vn 0.902869 0.0516765 -0.426798
v 29.3175 -67.8845 763.27
vn 0.688296 0.455958 -0.564226
v 29.7654 -65.9945 764.446
vn 0.260098 0.703624 -0.661258
v 29.7654 -65.9945 764.446
vn 0.902869 0.0516765 -0.426798
v 29.7654 -65.9945 764.446
vn 0.395144 0.87942 -0.265485
v 29.1354 -68.5145 762.017
vn 0.765921 0.385428 -0.514598
v 29.1354 -68.5145 762.017
vn 0.765921 0.385428 -0.514598
v 29.1354 -67.2545 762.961
vn 0.0204981 0.662724 -0.748583
v 29.1354 -67.2545 762.961
vn 0.902869 0.0516765 -0.426798
v 29.1354 -67.2545 762.961
vn 0.940438 0.237227 -0.243514
v 30.6169 -64.7345 767.05
vn 0.247827 0.856155 0.45341
v 30.6169 -64.7345 767.05
vn -0.238158 0.895831 -0.37519
v 30.3954 -64.5032 766.42
vn 0.126939 0.944736 0.302259
v 30.3954 -64.5032 766.42
vn 0.357488 0.728784 0.584017
v 29.7654 -65.3265 768.31
vn 0.448169 0.0107557 0.893884
v 29.7654 -65.3265 768.31
vn -0.54362 0.605633 0.581107
v 29.7654 -65.3265 768.31
vn -0.590353 0.782878 0.196433
v 29.7654 -64.8217 767.68
vn 0.837097 0.356266 -0.415142
v 30.4495 -65.3645 765.79
vn 0.878805 -0.342257 0.332508
v 26.1478 -71.6645 770.2
vn -0.402265 0.486246 0.775724
v 25.9854 -71.0345 770.274
vn 0.695066 0.312652 0.647404
v 18.5976 -99.3845 769.57
vn 0.985716 -0.151556 0.0734453
v 18.8247 -96.2345 768.94
vn 0.961712 -0.228111 0.151903
v 20.9454 -88.6745 766.867
vn 0.705934 -0.379377 -0.598106
v 20.9454 -88.6745 766.867
vn 0.745352 0.22127 0.62888
v 21.659 -81.1145 773.35
vn -0.0445676 -0.694825 0.717797
v 21.659 -81.1145 773.35
vn -0.060927 0.182707 0.981278
v 21.659 -81.1145 773.35
vn 0.910247 0.332964 0.246141
v 21.1638 -81.7445 773.35
vn 0.292466 -0.0129633 0.956188
v 21.1638 -81.7445 773.35
vn -0.0445676 -0.694825 0.717797
v 21.3342 -81.7445 772.72
vn 0.910247 0.332964 0.246141
v 21.3342 -81.7445 772.72
vn 0.591513 -0.15987 0.790287
v 20.6451 -83.0045 773.35
vn 0.910247 0.332964 0.246141
v 20.9454 -81.1145 773.305
vn -0.112718 0.287146 0.951232
v 20.9454 -81.1145 773.305
vn 0.887589 -0.420812 0.187358
v 23.1947 -78.5945 772.09
vn 0.764163 -0.0187622 0.644751
v 22.0036 -80.4845 772.72
vn -0.185298 0.301375 0.935328
v 21.5754 -80.4845 773.227
vn 0.198533 0.502435 0.841512
v 17.1654 -104.425 773.797
vn 0.457389 0.502057 0.733985
v 18.4254 -100.645 770.895
vn -0.75089 0.66042 0.00307368
v 4.56537 -179.203 734.29
vn -0.645607 0.68139 -0.344818
v 5.82537 -173.031 756.34
vn -0.0322148 0.788489 -0.614205
v 5.82537 -169.959 761.38
vn -0.79463 0.500091 -0.344198
v 4.61951 -170.575 763.27
vn -0.220661 0.692277 -0.687067
v 5.82537 -164.905 767.164
vn -0.822268 0.414858 -0.389576
v 5.1117 -164.275 768.94
vn -0.451389 -0.189701 -0.87193
v 7.08537 -127.735 771.858
vn 0.0162923 0.288593 0.957313
v 7.71537 -107.575 780.345
vn -0.742889 0.492885 -0.452969
v 4.56537 -91.8245 768.069
vn -0.00135269 0.470172 -0.882574
v 3.30537 -184.435 709.37
vn -0.553372 -0.0905657 -0.827996
v 3.30537 -184.435 709.37
vn -0.618805 0.0117036 -0.785458
v 3.30537 -183.175 709.232
vn 0.155974 0.389957 -0.907527
v 3.30537 -183.175 709.232
vn -0.00135269 0.470172 -0.882574
v 2.67537 -185.065 709.036
vn -0.799213 0.282596 -0.53047
v 2.67537 -185.065 709.036
vn -0.196721 0.607128 -0.769867
v 2.67537 -185.065 709.036
vn -0.799213 0.282596 -0.53047
v 2.44404 -184.435 709.72
vn -0.213767 0.681526 -0.699876
v 2.44404 -184.435 709.72
vn -0.00135269 0.470172 -0.882574
v 2.67537 -183.78 709.72
vn -0.799213 0.282596 -0.53047
v 2.67537 -183.78 709.72
vn -0.182387 0.577352 -0.795864
v 1.41537 -185.404 709.09
vn -0.080145 0.58552 -0.806687
v 0.78537 -186.325 708.642
vn 0.017388 0.634631 -0.772619
v 0.15537 -185.778 709.09
vn 0.102235 0.682952 -0.723273
v -1.10463 -186.325 708.396
vn -0.237758 0.197242 -0.951087
v -1.10463 -186.325 708.396
vn -0.73444 0.625642 -0.263002
v 2.67537 -179.616 711.61
vn -0.05221 0.98765 -0.14772
v 2.67537 -179.232 713.5
vn 0.155974 0.389957 -0.907527
v 3.30537 -180.655 710.315
vn 0.101733 0.799545 -0.591927
v 2.67537 -180.655 710.207
vn 0.155974 0.389957 -0.907527
v 2.67537 -180.655 710.207
vn -0.369041 0.921568 0.120502
v -0.47463 -95.7867 772.72
vn -0.0527975 -0.0984315 -0.993742
v 0.78537 -96.2345 769.075
vn -0.249064 0.77696 -0.578187
v 0.78537 -96.2345 769.075
vn -0.328813 0.649181 -0.68589
v -0.47463 -96.8645 769.083
vn 0.335805 0.828029 -0.449003
v -0.47463 -96.8645 769.083
vn 0.335776 0.872696 -0.35448
v -1.10463 -96.0032 770.2
vn -0.210919 -0.560199 -0.801056
v -2.99463 -186.325 708.868
vn -0.611555 -0.444893 -0.65427
v -2.99463 -186.325 708.868
vn 0.304664 0.193412 -0.932616
v -2.99463 -186.325 708.868
vn -0.237758 0.197242 -0.951087
v -2.99463 -185.257 709.09
vn 0.111383 0.672507 -0.731661
v -2.99463 -185.257 709.09
vn 0.464385 0.467459 -0.752215
v -2.99463 -185.257 709.09
vn 0.574614 0.0429162 -0.817299
v -3.91163 -184.435 709.09
vn 0.978172 0.127718 -0.163915
v -3.91163 -184.435 709.09
vn 0.555014 0.619189 -0.555485
v -3.98393 -183.805 709.72
vn -0.603521 -0.175405 -0.777814
v -4.25463 -184.435 708.849
vn 0.574614 0.0429162 -0.817299
v -4.25463 -184.435 708.849
vn 0.905061 0.193803 -0.378557
v -4.25463 -183.175 708.915
vn -0.325387 0.190909 -0.926108
v -4.25463 -183.175 708.915
vn 0.806606 0.213712 -0.551103
v -4.25463 -183.175 708.915
vn 0.968852 -0.241755 -0.0536709
v -4.25463 -183.175 708.915
vn -0.0374541 0.998874 -0.0291361
v -6.14463 -178.976 736.18
vn 0.990465 -0.136473 -0.0188179
v -3.35393 -180.025 712.87
vn 0.695756 0.714687 -0.0717334
v -3.62463 -179.951 710.98
vn 0.21725 0.868995 -0.444579
v -3.62463 -179.951 710.98
vn 0.0992755 0.973291 -0.207001
v -4.25463 -179.084 713.5
vn -0.208744 0.646946 -0.733407
v -4.25463 -180.655 709.892
vn 0.465499 0.782469 -0.413585
v -1.73463 -96.2345 769.302
vn 0.573807 0.441526 -0.689782
v -2.71408 -94.9745 769.57
vn 0.752252 0.658633 -0.0178951
v -4.86986 -92.4545 768.94
vn 0.693523 0.384559 -0.609213
v -5.51463 -92.4545 768.206
vn -0.257237 0.699838 -0.666376
v -7.40463 -166.795 764.121
vn 0.0276873 0.845659 -0.533005
v -6.77463 -170.333 760.12
vn -0.117048 0.631719 -0.76631
v -7.40463 -164.458 766.42
vn -0.0272172 0.55931 -0.828511
v -7.40463 -161.755 768.551
vn -0.0112965 0.446336 -0.894794
v -7.40463 -157.975 770.717
vn 0.75124 0.653964 -0.0892695
v -6.77463 -90.4635 767.68
vn 0.538952 0.0861681 -0.837918
v -6.77463 -90.4635 767.68
vn -0.77012 -0.0637637 0.634705
v -16.3181 -96.2345 772.72
vn -0.674224 -0.174255 0.717675
v -16.2246 -93.7145 776.268
vn -0.293956 0.451545 0.842435
v -18.1146 -104.425 773.817
vn -0.615293 0.196252 0.763479
v -20.0046 -98.7545 769.371
vn -0.897543 -0.373435 -0.234441
v -21.2646 -91.8789 767.05
vn -0.944492 -0.328512 -0.00384346
v -19.665 -88.0445 774.61
vn -0.566614 -0.104722 0.817301
v -20.0046 -86.207 774.61
vn -0.934556 -0.34056 0.103073
v -20.0046 -86.207 774.61
vn -0.604753 -0.122837 0.786883
v -20.0046 -86.207 774.61
vn -0.177648 -0.710585 0.680816
v -20.1621 -86.1545 774.61
vn -0.177648 -0.710585 0.680816
v -20.6346 -86.0364 774.61
vn -0.177648 -0.710585 0.680816
v -20.6346 -86.1545 774.487
vn 0.0661349 0.562072 -0.82444
v -21.7371 -83.6345 773.98
vn -0.826606 -0.481696 -0.291018
v -23.2196 -86.7845 766.42
vn -0.577932 -0.148414 0.802476
v -23.2196 -86.7845 766.42
vn 0.0661349 0.562072 -0.82444
v -21.8946 -83.616 773.98
vn 0.0661349 0.562072 -0.82444
v -21.8946 -83.6345 773.967
vn -0.638515 -0.226754 0.735446
v -26.3046 -82.1132 765.16
vn -0.719868 -0.165996 0.67397
v -25.0446 -77.537 772.09
vn 0.312109 0.346785 0.884493
v -25.2721 -76.0745 772.09
vn 0.584316 0.649235 -0.486896
v -25.2721 -76.0745 772.09
vn 0.312109 0.346785 0.884493
v -25.6746 -76.0745 772.232
vn -1 0 0
v -25.6746 -76.0745 772.232
vn 0.584316 0.649235 -0.486896
v -25.6746 -75.7123 772.09
vn -1 0 0
v -25.6746 -75.7123 772.09
vn 0.584316 0.649235 -0.486896
v -25.6746 -76.0745 771.607
vn -1 0 0
v -25.6746 -76.0745 771.607
vn -0.665238 -0.0866474 0.741587
v -25.6746 -75.4445 771.932
vn -0.0852327 0.328061 0.940803
v -25.6746 -75.4445 771.932
vn 0.511375 0.434662 -0.741326
v -26.8874 -73.5545 771.46
vn 0.511375 0.434662 -0.741326
v -26.9346 -73.499 771.46
vn 0.511375 0.434662 -0.741326
v -26.9346 -73.5545 771.427
vn -0.15857 0.233405 0.959363
v -26.9346 -71.6645 770.5
vn -0.534868 -0.415978 0.735444
v -28.183 -71.0345 770.83
vn -0.15857 0.233405 0.959363
v -27.8237 -71.0345 770.2
vn -0.534868 -0.415978 0.735444
v -28.1946 -71.0195 770.83
vn -0.534868 -0.415978 0.735444
v -28.1946 -71.0345 770.821
vn -0.732952 0.50719 0.453365
v -29.4546 -72.9245 763.787
vn -0.528458 -0.0753862 0.845606
v -31.0821 -74.8145 763.27
vn -0.732952 0.50719 0.453365
v -31.0821 -74.8145 763.27
vn -0.837596 0.429249 -0.337903
v -31.0821 -74.8145 763.27
vn -0.837596 0.429249 -0.337903
v -30.7146 -74.5934 762.64
vn -0.619613 -0.616743 0.485497
v -30.7146 -74.5934 762.64
vn -0.837596 0.429249 -0.337903
v -30.7146 -74.1845 763.159
vn -0.619613 -0.616743 0.485497
v -30.7146 -74.1845 763.159
vn -0.447667 0.00238445 0.894197
v -30.7146 -74.1845 763.159
vn -0.499183 0.0885302 0.861962
v -31.7487 -73.5545 762.64
vn -0.453376 -0.435936 -0.777438
v -31.7487 -73.5545 762.64
vn -0.935643 0.287918 -0.204145
v -31.7487 -73.5545 762.64
vn -0.935643 0.287918 -0.204145
v -31.3446 -72.6883 762.01
vn -0.74206 -0.576903 0.341365
v -31.3446 -72.6883 762.01
vn -0.935643 0.287918 -0.204145
v -31.3609 -72.2945 762.64
vn -0.74206 -0.576903 0.341365
v -31.3609 -72.2945 762.64
vn -0.229579 0.135323 0.963837
v -28.8246 -68.2454 769.57
vn -0.684418 -0.183885 0.70552
v -28.8246 -68.2454 769.57
vn -0.690644 -0.126827 0.711987
v -29.4546 -68.3177 768.94
vn -0.842426 0.434363 -0.318821
v -30.9164 -66.6245 763.9
vn -0.325645 0.558032 -0.763253
v -30.9164 -66.6245 763.9
vn -0.842426 0.434363 -0.318821
v -30.7146 -66.2332 763.9
vn -0.817177 0.421345 -0.393306
v -30.7146 -65.6451 764.53
vn -0.325645 0.558032 -0.763253
v -30.7146 -65.6451 764.53
vn -0.539334 0.151259 0.828396
v -31.3446 -68.5145 761.956
vn -0.61893 0.1034 -0.77861
v -31.3446 -68.5145 761.956
vn -0.863139 -0.253614 0.436658
v -31.3446 -68.5145 761.956
vn -0.862321 0.444621 -0.242309
v -31.3446 -68.5145 761.956
vn 0.358712 0.61775 0.699794
v -31.3446 -65.3547 768.31
vn -0.848223 -0.51332 0.130463
v -31.3446 -65.3547 768.31
vn -0.888704 0.30342 0.343718
v -31.3446 -65.3547 768.31
vn -0.888704 0.30342 0.343718
v -31.3446 -64.641 767.68
vn -0.663174 0.136066 0.735994
v -31.9746 -71.8779 762.01
vn -0.43279 -0.12263 -0.893115
v -31.9746 -71.8779 762.01
vn 0.240446 0.932135 -0.27076
v -32.1075 -64.7345 765.79
vn -0.888704 0.30342 0.343718
v -32.1075 -64.7345 765.79
vn -0.325645 0.558032 -0.763253
v -32.1075 -64.7345 765.79
f 1//1 4//4 3//3
f 663//663 7//7 669//669
f 2//2 667//667 670//670
f 668//668 49//49 5//5
f 5//5 664//664 668//668
f 5//5 6//6 664//664
f 668//668 665//665 49//49
f 22//22 669//669 7//7
f 666//666 669//669 22//22
f 6//6 5//5 27//27
f 16//16 23//23 21//21
f 23//23 10//10 21//21
f 18//18 16//16 15//15
f 23//23 16//16 18//18
f 664//664 6//6 671//671
f 12//12 671//671 6//6
f 694//694 678//678 17//17
f 11//11 22//22 7//7
f 8//8 11//11 7//7
f 672//672 681//681 673//673
f 9//9 11//11 8//8
f 674//674 13//13 676//676
f 682//682 683//683 675//675
f 684//684 14//14 679//679
f 685//685 680//680 677//677
f 14//14 688//688 679//679
f 22//22 11//11 9//9
f 29//29 684//684 12//12
f 684//684 30//30 14//14
f 29//29 30//30 684//684
f 14//14 30//30 31//31
f 688//688 31//31 20//20
f 31//31 688//688 14//14
f 16//16 21//21 15//15
f 694//694 17//17 686//686
f 690//690 687//687 19//19
f 19//19 687//687 689//689
f 20//20 693//693 688//688
f 37//37 22//22 45//45
f 666//666 22//22 37//37
f 46//46 24//24 25//25
f 23//23 45//45 22//22
f 49//49 665//665 70//70
f 695//695 711//711 23//23
f 9//9 10//10 23//23
f 9//9 23//23 22//22
f 23//23 18//18 695//695
f 5//5 49//49 27//27
f 27//27 26//26 6//6
f 28//28 26//26 27//27
f 52//52 32//32 28//28
f 691//691 25//25 24//24
f 26//26 12//12 6//6
f 12//12 28//28 29//29
f 26//26 28//28 12//12
f 32//32 31//31 30//30
f 32//32 30//30 29//29
f 32//32 53//53 31//31
f 20//20 53//53 693//693
f 53//53 20//20 31//31
f 28//28 32//32 29//29
f 66//66 33//33 34//34
f 36//36 68//68 697//697
f 34//34 35//35 698//698
f 35//35 699//699 698//698
f 37//37 38//38 36//36
f 38//38 37//37 45//45
f 665//665 700//700 70//70
f 39//39 41//41 47//47
f 48//48 701//701 712//712
f 42//42 41//41 40//40
f 706//706 702//702 43//43
f 707//707 709//709 704//704
f 45//45 47//47 41//41
f 703//703 713//713 710//710
f 42//42 45//45 41//41
f 705//705 44//44 708//708
f 705//705 710//710 44//44
f 50//50 49//49 71//71
f 711//711 45//45 23//23
f 711//711 47//47 45//45
f 712//712 46//46 48//48
f 48//48 46//46 25//25
f 710//710 713//713 696//696
f 122//122 710//710 696//696
f 50//50 27//27 49//49
f 50//50 28//28 27//27
f 51//51 696//696 692//692
f 51//51 692//692 693//693
f 693//693 53//53 51//51
f 52//52 53//53 32//32
f 50//50 52//52 28//28
f 74//74 53//53 52//52
f 109//109 111//111 54//54
f 112//112 55//55 111//111
f 109//109 54//54 114//114
f 111//111 55//55 54//54
f 112//112 113//113 60//60
f 59//59 112//112 60//60
f 112//112 59//59 55//55
f 114//114 54//54 56//56
f 55//55 58//58 54//54
f 54//54 58//58 56//56
f 57//57 115//115 56//56
f 57//57 64//64 116//116
f 61//61 58//58 55//55
f 55//55 33//33 61//61
f 61//61 62//62 58//58
f 58//58 62//62 56//56
f 55//55 59//59 33//33
f 61//61 66//66 63//63
f 67//67 714//714 715//715
f 63//63 62//62 61//61
f 56//56 62//62 63//63
f 57//57 56//56 714//714
f 64//64 57//57 714//714
f 714//714 67//67 64//64
f 64//64 67//67 120//120
f 120//120 67//67 121//121
f 61//61 33//33 66//66
f 34//34 59//59 35//35
f 67//67 68//68 69//69
f 69//69 121//121 67//67
f 65//65 121//121 45//45
f 715//715 68//68 67//67
f 59//59 34//34 33//33
f 715//715 697//697 68//68
f 36//36 69//69 68//68
f 700//700 35//35 60//60
f 35//35 59//59 60//60
f 69//69 38//38 121//121
f 45//45 121//121 38//38
f 36//36 38//38 69//69
f 60//60 70//70 700//700
f 60//60 234//234 70//70
f 235//235 708//708 44//44
f 235//235 65//65 708//708
f 65//65 45//45 42//42
f 122//122 723//723 44//44
f 72//72 71//71 70//70
f 710//710 122//122 44//44
f 239//239 122//122 51//51
f 70//70 71//71 49//49
f 72//72 50//50 71//71
f 124//124 73//73 72//72
f 73//73 124//124 125//125
f 74//74 73//73 125//125
f 123//123 124//124 72//72
f 122//122 696//696 51//51
f 75//75 239//239 51//51
f 73//73 50//50 72//72
f 52//52 50//50 73//73
f 52//52 73//73 74//74
f 75//75 74//74 125//125
f 53//53 75//75 51//51
f 74//74 75//75 53//53
f 79//79 80//80 135//135
f 79//79 76//76 81//81
f 79//79 135//135 76//76
f 81//81 76//76 77//77
f 85//85 80//80 79//79
f 80//80 85//85 78//78
f 86//86 81//81 87//87
f 86//86 79//79 81//81
f 81//81 82//82 88//88
f 81//81 77//77 83//83
f 77//77 145//145 83//83
f 81//81 83//83 82//82
f 90//90 84//84 85//85
f 84//84 139//139 85//85
f 90//90 97//97 84//84
f 90//90 85//85 89//89
f 89//89 85//85 79//79
f 85//85 139//139 78//78
f 87//87 151//151 91//91
f 88//88 87//87 81//81
f 181//181 84//84 97//97
f 86//86 93//93 89//89
f 79//79 86//86 89//89
f 86//86 92//92 93//93
f 86//86 87//87 92//92
f 92//92 91//91 93//93
f 87//87 91//91 92//92
f 176//176 91//91 151//151
f 97//97 90//90 96//96
f 90//90 89//89 96//96
f 89//89 93//93 96//96
f 96//96 93//93 98//98
f 93//93 94//94 98//98
f 91//91 94//94 93//93
f 91//91 176//176 185//185
f 96//96 100//100 97//97
f 98//98 101//101 96//96
f 98//98 99//99 101//101
f 94//94 99//99 98//98
f 99//99 194//194 101//101
f 99//99 94//94 193//193
f 94//94 91//91 193//193
f 99//99 193//193 194//194
f 97//97 100//100 95//95
f 95//95 100//100 201//201
f 96//96 101//101 106//106
f 106//106 100//100 96//96
f 102//102 101//101 194//194
f 204//204 103//103 102//102
f 204//204 102//102 194//194
f 201//201 100//100 104//104
f 106//106 101//101 107//107
f 104//104 100//100 106//106
f 101//101 102//102 107//107
f 102//102 103//103 107//107
f 108//108 107//107 103//103
f 211//211 103//103 204//204
f 104//104 106//106 109//109
f 105//105 104//104 109//109
f 105//105 209//209 104//104
f 106//106 107//107 111//111
f 108//108 103//103 219//219
f 103//103 216//216 219//219
f 108//108 110//110 107//107
f 107//107 110//110 111//111
f 106//106 111//111 109//109
f 112//112 111//111 110//110
f 108//108 224//224 110//110
f 110//110 224//224 113//113
f 112//112 110//110 113//113
f 224//224 227//227 113//113
f 105//105 114//114 222//222
f 105//105 109//109 114//114
f 230//230 114//114 115//115
f 222//222 114//114 230//230
f 227//227 60//60 113//113
f 234//234 60//60 227//227
f 114//114 56//56 115//115
f 116//116 117//117 115//115
f 115//115 117//117 233//233
f 116//116 115//115 57//57
f 64//64 117//117 116//116
f 233//233 117//117 118//118
f 235//235 233//233 119//119
f 118//118 119//119 233//233
f 64//64 120//120 117//117
f 117//117 120//120 118//118
f 120//120 121//121 118//118
f 119//119 121//121 235//235
f 118//118 121//121 119//119
f 121//121 65//65 235//235
f 234//234 72//72 70//70
f 123//123 72//72 234//234
f 236//236 123//123 234//234
f 240//240 124//124 236//236
f 236//236 124//124 123//123
f 242//242 124//124 240//240
f 75//75 125//125 241//241
f 75//75 241//241 239//239
f 241//241 125//125 242//242
f 242//242 125//125 124//124
f 126//126 245//245 127//127
f 132//132 134//134 126//126
f 134//134 244//244 126//126
f 126//126 127//127 135//135
f 135//135 128//128 76//76
f 76//76 128//128 136//136
f 247//247 128//128 135//135
f 127//127 247//247 135//135
f 245//245 247//247 127//127
f 128//128 129//129 136//136
f 129//129 137//137 136//136
f 128//128 130//130 129//129
f 129//129 251//251 137//137
f 130//130 128//128 247//247
f 249//249 248//248 247//247
f 248//248 130//130 247//247
f 248//248 129//129 130//130
f 251//251 129//129 248//248
f 78//78 133//133 80//80
f 78//78 140//140 133//133
f 133//133 140//140 134//134
f 131//131 134//134 140//140
f 132//132 80//80 133//133
f 134//134 132//132 133//133
f 132//132 126//126 135//135
f 80//80 132//132 135//135
f 76//76 136//136 77//77
f 136//136 137//137 77//77
f 77//77 137//137 145//145
f 138//138 145//145 137//137
f 137//137 251//251 138//138
f 251//251 261//261 138//138
f 138//138 261//261 147//147
f 149//149 139//139 84//84
f 141//141 149//149 286//286
f 141//141 139//139 149//149
f 141//141 286//286 266//266
f 140//140 78//78 139//139
f 140//140 139//139 141//141
f 140//140 141//141 131//131
f 141//141 266//266 131//131
f 154//154 155//155 142//142
f 142//142 155//155 158//158
f 142//142 158//158 165//165
f 143//143 144//144 256//256
f 142//142 143//143 154//154
f 144//144 143//143 142//142
f 142//142 273//273 144//144
f 273//273 142//142 291//291
f 142//142 165//165 291//291
f 83//83 146//146 167//167
f 82//82 83//83 167//167
f 83//83 145//145 146//146
f 172//172 146//146 145//145
f 145//145 138//138 147//147
f 145//145 148//148 172//172
f 145//145 147//147 148//148
f 276//276 172//172 148//148
f 147//147 274//274 275//275
f 148//148 147//147 275//275
f 275//275 276//276 148//148
f 175//175 149//149 84//84
f 149//149 175//175 286//286
f 154//154 150//150 189//189
f 154//154 189//189 179//179
f 152//152 180//180 151//151
f 153//153 180//180 152//152
f 154//154 179//179 155//155
f 155//155 179//179 153//153
f 151//151 87//87 88//88
f 88//88 156//156 151//151
f 156//156 160//160 157//157
f 156//156 157//157 151//151
f 153//153 152//152 157//157
f 152//152 151//151 157//157
f 155//155 153//153 158//158
f 158//158 153//153 157//157
f 159//159 88//88 82//82
f 156//156 88//88 159//159
f 156//156 159//159 160//160
f 162//162 157//157 160//160
f 716//716 158//158 157//157
f 160//160 159//159 168//168
f 162//162 160//160 164//164
f 158//158 161//161 165//165
f 161//161 716//716 166//166
f 161//161 158//158 716//716
f 161//161 166//166 165//165
f 82//82 167//167 159//159
f 167//167 168//168 159//159
f 160//160 168//168 163//163
f 163//163 168//168 170//170
f 160//160 163//163 164//164
f 163//163 170//170 164//164
f 716//716 164//164 166//166
f 172//172 171//171 146//146
f 171//171 167//167 146//146
f 167//167 171//171 169//169
f 168//168 167//167 169//169
f 168//168 169//169 170//170
f 169//169 171//171 174//174
f 169//169 174//174 170//170
f 171//171 172//172 173//173
f 174//174 171//171 173//173
f 173//173 295//295 289//289
f 173//173 172//172 295//295
f 172//172 276//276 295//295
f 173//173 289//289 290//290
f 174//174 173//173 290//290
f 182//182 175//175 181//181
f 297//297 182//182 300//300
f 84//84 181//181 175//175
f 297//297 175//175 182//182
f 299//299 184//184 150//150
f 150//150 183//183 189//189
f 176//176 151//151 177//177
f 151//151 180//180 177//177
f 177//177 180//180 178//178
f 178//178 180//180 153//153
f 179//179 717//717 153//153
f 179//179 719//719 187//187
f 187//187 717//717 179//179
f 304//304 182//182 190//190
f 190//190 181//181 97//97
f 182//182 181//181 190//190
f 182//182 304//304 300//300
f 199//199 197//197 188//188
f 183//183 150//150 184//184
f 184//184 299//299 302//302
f 185//185 176//176 177//177
f 185//185 186//186 196//196
f 718//718 188//188 186//186
f 188//188 196//196 186//186
f 188//188 720//720 196//196
f 199//199 188//188 718//718
f 183//183 199//199 189//189
f 721//721 187//187 719//719
f 177//177 178//178 185//185
f 718//718 185//185 178//178
f 718//718 186//186 185//185
f 190//190 97//97 95//95
f 190//190 95//95 191//191
f 191//191 95//95 201//201
f 190//190 191//191 304//304
f 184//184 301//301 203//203
f 91//91 185//185 193//193
f 195//195 194//194 193//193
f 185//185 195//195 193//193
f 208//208 194//194 195//195
f 195//195 185//185 196//196
f 196//196 208//208 195//195
f 720//720 198//198 196//196
f 198//198 208//208 196//196
f 199//199 198//198 197//197
f 199//199 200//200 198//198
f 198//198 200//200 208//208
f 183//183 184//184 192//192
f 192//192 199//199 183//183
f 192//192 200//200 199//199
f 201//201 210//210 306//306
f 191//191 201//201 306//306
f 202//202 215//215 206//206
f 206//206 215//215 213//213
f 184//184 203//203 202//202
f 208//208 204//204 194//194
f 205//205 204//204 208//208
f 207//207 205//205 200//200
f 207//207 213//213 205//205
f 202//202 206//206 184//184
f 184//184 206//206 192//192
f 192//192 206//206 207//207
f 207//207 200//200 192//192
f 213//213 207//207 206//206
f 200//200 205//205 208//208
f 210//210 201//201 209//209
f 201//201 104//104 209//209
f 312//312 215//215 202//202
f 312//312 202//202 203//203
f 211//211 216//216 103//103
f 204//204 205//205 212//212
f 212//212 211//211 204//204
f 212//212 216//216 211//211
f 213//213 212//212 205//205
f 212//212 213//213 220//220
f 105//105 214//214 209//209
f 210//210 209//209 214//214
f 213//213 215//215 221//221
f 315//315 215//215 312//312
f 215//215 218//218 221//221
f 315//315 218//218 215//215
f 315//315 312//312 313//313
f 315//315 319//319 218//218
f 216//216 217//217 219//219
f 212//212 217//217 216//216
f 219//219 217//217 220//220
f 212//212 220//220 217//217
f 220//220 213//213 221//221
f 214//214 105//105 222//222
f 210//210 214//214 318//318
f 221//221 218//218 226//226
f 223//223 218//218 319//319
f 320//320 223//223 319//319
f 219//219 224//224 108//108
f 224//224 219//219 225//225
f 225//225 219//219 220//220
f 225//225 220//220 226//226
f 220//220 221//221 226//226
f 222//222 318//318 214//214
f 322//322 318//318 222//222
f 228//228 226//226 218//218
f 225//225 226//226 228//228
f 218//218 223//223 228//228
f 223//223 324//324 229//229
f 225//225 722//722 224//224
f 228//228 722//722 225//225
f 223//223 229//229 228//228
f 232//232 722//722 228//228
f 232//232 228//228 229//229
f 229//229 324//324 326//326
f 231//231 322//322 230//230
f 229//229 326//326 232//232
f 115//115 233//233 230//230
f 231//231 230//230 233//233
f 231//231 448//448 322//322
f 232//232 326//326 236//236
f 234//234 722//722 232//232
f 231//231 233//233 448//448
f 232//232 236//236 234//234
f 448//448 233//233 723//723
f 723//723 237//237 448//448
f 723//723 122//122 237//237
f 327//327 240//240 236//236
f 239//239 335//335 122//122
f 238//238 240//240 327//327
f 241//241 242//242 337//337
f 337//337 242//242 724//724
f 337//337 724//724 332//332
f 242//242 240//240 724//724
f 244//244 134//134 243//243
f 244//244 243//243 339//339
f 126//126 244//244 245//245
f 339//339 341//341 244//244
f 244//244 341//341 245//245
f 247//247 245//245 246//246
f 341//341 246//246 245//245
f 247//247 246//246 249//249
f 250//250 248//248 249//249
f 250//250 252//252 248//248
f 246//246 341//341 249//249
f 346//346 252//252 250//250
f 340//340 346//346 250//250
f 249//249 340//340 250//250
f 252//252 251//251 248//248
f 252//252 346//346 265//265
f 265//265 346//346 348//348
f 253//253 134//134 131//131
f 131//131 266//266 253//253
f 253//253 266//266 358//358
f 243//243 253//253 350//350
f 253//253 358//358 350//350
f 253//253 243//243 134//134
f 270//270 254//254 255//255
f 271//271 256//256 254//254
f 254//254 256//256 257//257
f 254//254 257//257 255//255
f 144//144 272//272 256//256
f 352//352 257//257 258//258
f 255//255 257//257 352//352
f 258//258 257//257 259//259
f 259//259 257//257 256//256
f 260//260 258//258 259//259
f 259//259 281//281 260//260
f 354//354 258//258 260//260
f 263//263 262//262 261//261
f 263//263 261//261 251//251
f 263//263 251//251 252//252
f 265//265 263//263 252//252
f 354//354 260//260 281//281
f 354//354 281//281 283//283
f 265//265 348//348 356//356
f 264//264 262//262 263//263
f 282//282 262//262 264//264
f 282//282 264//264 284//284
f 265//265 264//264 263//263
f 265//265 284//284 264//264
f 286//286 382//382 266//266
f 288//288 150//150 269//269
f 267//267 269//269 270//270
f 268//268 288//288 267//267
f 288//288 269//269 267//267
f 268//268 267//267 359//359
f 154//154 269//269 150//150
f 270//270 360//360 267//267
f 269//269 143//143 271//271
f 154//154 143//143 269//269
f 270//270 269//269 254//254
f 269//269 271//271 254//254
f 271//271 143//143 256//256
f 272//272 144//144 273//273
f 259//259 256//256 272//272
f 259//259 272//272 281//281
f 272//272 273//273 281//281
f 273//273 280//280 279//279
f 273//273 291//291 280//280
f 291//291 296//296 280//280
f 273//273 279//279 281//281
f 354//354 283//283 371//371
f 261//261 274//274 147//147
f 261//261 277//277 274//274
f 277//277 278//278 274//274
f 278//278 275//275 274//274
f 729//729 734//734 725//725
f 280//280 727//727 726//726
f 280//280 296//296 727//727
f 277//277 261//261 262//262
f 277//277 262//262 278//278
f 278//278 262//262 282//282
f 730//730 732//732 735//735
f 736//736 731//731 737//737
f 731//731 736//736 733//733
f 738//738 736//736 737//737
f 737//737 739//739 738//738
f 370//370 755//755 740//740
f 739//739 756//756 738//738
f 285//285 175//175 297//297
f 175//175 285//285 286//286
f 286//286 285//285 382//382
f 287//287 384//384 298//298
f 288//288 299//299 150//150
f 299//299 288//288 287//287
f 288//288 268//268 287//287
f 268//268 359//359 385//385
f 385//385 287//287 268//268
f 385//385 384//384 287//287
f 164//164 293//293 166//166
f 293//293 164//164 170//170
f 742//742 170//170 174//174
f 165//165 166//166 294//294
f 165//165 294//294 291//291
f 166//166 293//293 294//294
f 295//295 744//744 292//292
f 290//290 289//289 292//292
f 289//289 295//295 292//292
f 174//174 290//290 742//742
f 291//291 294//294 296//296
f 741//741 296//296 294//294
f 293//293 741//741 294//294
f 290//290 292//292 742//742
f 745//745 743//743 728//728
f 297//297 410//410 285//285
f 297//297 300//300 410//410
f 298//298 302//302 299//299
f 299//299 287//287 298//298
f 302//302 301//301 184//184
f 303//303 302//302 298//298
f 303//303 301//301 302//302
f 303//303 305//305 301//301
f 415//415 303//303 298//298
f 415//415 305//305 303//303
f 305//305 415//415 420//420
f 306//306 304//304 191//191
f 306//306 308//308 304//304
f 304//304 308//308 300//300
f 419//419 300//300 308//308
f 305//305 420//420 310//310
f 301//301 305//305 203//203
f 307//307 306//306 210//210
f 308//308 306//306 307//307
f 424//424 308//308 307//307
f 305//305 309//309 203//203
f 309//309 305//305 310//310
f 310//310 314//314 309//309
f 425//425 310//310 420//420
f 433//433 310//310 425//425
f 318//318 311//311 210//210
f 311//311 307//307 210//210
f 440//440 311//311 318//318
f 311//311 430//430 307//307
f 309//309 313//313 312//312
f 309//309 312//312 203//203
f 309//309 314//314 313//313
f 314//314 317//317 313//313
f 317//317 316//316 313//313
f 314//314 310//310 432//432
f 432//432 317//317 314//314
f 437//437 317//317 432//432
f 316//316 315//315 313//313
f 316//316 319//319 315//315
f 317//317 437//437 316//316
f 440//440 318//318 321//321
f 320//320 319//319 316//316
f 444//444 320//320 316//316
f 318//318 322//322 321//321
f 323//323 440//440 321//321
f 320//320 324//324 223//223
f 444//444 325//325 320//320
f 445//445 325//325 444//444
f 322//322 222//222 230//230
f 321//321 322//322 323//323
f 323//323 322//322 448//448
f 325//325 324//324 320//320
f 445//445 449//449 325//325
f 449//449 445//445 450//450
f 325//325 326//326 324//324
f 325//325 449//449 326//326
f 326//326 327//327 236//236
f 449//449 327//327 326//326
f 327//327 449//449 452//452
f 237//237 329//329 448//448
f 452//452 333//333 327//327
f 328//328 237//237 122//122
f 328//328 329//329 237//237
f 122//122 335//335 328//328
f 454//454 330//330 331//331
f 454//454 328//328 330//330
f 455//455 328//328 454//454
f 331//331 460//460 454//454
f 327//327 747//747 238//238
f 333//333 747//747 327//327
f 746//746 338//338 334//334
f 338//338 748//748 334//334
f 334//334 748//748 749//749
f 456//456 458//458 333//333
f 773//773 751//751 750//750
f 331//331 751//751 457//457
f 773//773 457//457 751//751
f 239//239 336//336 335//335
f 330//330 328//328 335//335
f 330//330 335//335 336//336
f 336//336 746//746 330//330
f 338//338 746//746 336//336
f 239//239 241//241 336//336
f 336//336 337//337 338//338
f 332//332 338//338 337//337
f 337//337 336//336 241//241
f 350//350 351//351 339//339
f 351//351 464//464 339//339
f 339//339 464//464 341//341
f 249//249 341//341 340//340
f 341//341 342//342 340//340
f 347//347 340//340 342//342
f 464//464 343//343 341//341
f 341//341 343//343 342//342
f 344//344 342//342 343//343
f 342//342 344//344 347//347
f 344//344 349//349 347//347
f 345//345 349//349 344//344
f 345//345 343//343 464//464
f 343//343 345//345 344//344
f 345//345 464//464 468//468
f 468//468 465//465 345//345
f 465//465 349//349 345//345
f 340//340 347//347 346//346
f 347//347 348//348 346//346
f 349//349 348//348 347//347
f 349//349 472//472 348//348
f 472//472 355//355 348//348
f 465//465 472//472 349//349
f 473//473 350//350 358//358
f 350//350 473//473 466//466
f 350//350 339//339 243//243
f 351//351 350//350 466//466
f 466//466 464//464 351//351
f 367//367 365//365 352//352
f 352//352 258//258 353//353
f 353//353 367//367 352//352
f 353//353 258//258 354//354
f 472//472 369//369 355//355
f 348//348 355//355 356//356
f 355//355 369//369 377//377
f 265//265 356//356 752//752
f 284//284 265//265 752//752
f 355//355 753//753 356//356
f 753//753 355//355 377//377
f 266//266 382//382 357//357
f 357//357 382//382 383//383
f 357//357 383//383 474//474
f 357//357 358//358 266//266
f 358//358 357//357 474//474
f 358//358 474//474 473//473
f 359//359 267//267 360//360
f 386//386 361//361 362//362
f 359//359 360//360 361//361
f 361//361 360//360 363//363
f 359//359 361//361 386//386
f 361//361 363//363 364//364
f 364//364 362//362 361//361
f 360//360 270//270 255//255
f 360//360 255//255 363//363
f 365//365 362//362 364//364
f 362//362 365//365 387//387
f 363//363 255//255 352//352
f 365//365 364//364 363//363
f 365//365 366//366 387//387
f 363//363 352//352 365//365
f 367//367 366//366 365//365
f 366//366 396//396 391//391
f 366//366 367//367 373//373
f 373//373 367//367 371//371
f 367//367 353//353 371//371
f 353//353 354//354 371//371
f 757//757 372//372 760//760
f 373//373 374//374 368//368
f 373//373 368//368 366//366
f 381//381 369//369 483//483
f 381//381 483//483 406//406
f 375//375 757//757 754//754
f 372//372 757//757 375//375
f 377//377 761//761 753//753
f 762//762 376//376 758//758
f 373//373 759//759 374//374
f 759//759 763//763 374//374
f 761//761 379//379 764//764
f 379//379 380//380 764//764
f 378//378 369//369 381//381
f 378//378 377//377 369//369
f 377//377 378//378 761//761
f 761//761 378//378 379//379
f 381//381 406//406 380//380
f 379//379 381//381 380//380
f 378//378 381//381 379//379
f 382//382 285//285 410//410
f 382//382 410//410 383//383
f 484//484 474//474 383//383
f 411//411 384//384 385//385
f 385//385 359//359 386//386
f 411//411 385//385 386//386
f 411//411 386//386 412//412
f 412//412 386//386 362//362
f 387//387 412//412 362//362
f 387//387 388//388 413//413
f 413//413 388//388 389//389
f 388//388 390//390 389//389
f 389//389 390//390 502//502
f 502//502 390//390 487//487
f 387//387 366//366 391//391
f 387//387 391//391 388//388
f 388//388 391//391 393//393
f 390//390 388//388 393//393
f 390//390 393//393 487//487
f 393//393 491//491 487//487
f 393//393 391//391 392//392
f 393//393 492//492 491//491
f 492//492 393//393 767//767
f 391//391 396//396 394//394
f 391//391 394//394 395//395
f 395//395 392//392 391//391
f 392//392 395//395 494//494
f 767//767 494//494 492//492
f 394//394 396//396 397//397
f 395//395 394//394 397//397
f 395//395 397//397 398//398
f 398//398 494//494 395//395
f 396//396 400//400 397//397
f 397//397 400//400 403//403
f 403//403 398//398 397//397
f 494//494 398//398 497//497
f 494//494 497//497 495//495
f 768//768 368//368 399//399
f 768//768 399//399 401//401
f 403//403 400//400 769//769
f 396//396 366//366 368//368
f 768//768 396//396 368//368
f 368//368 374//374 399//399
f 408//408 401//401 399//399
f 772//772 402//402 770//770
f 770//770 402//402 771//771
f 772//772 404//404 402//402
f 402//402 404//404 405//405
f 398//398 771//771 405//405
f 405//405 771//771 402//402
f 406//406 404//404 409//409
f 772//772 409//409 404//404
f 405//405 404//404 407//407
f 497//497 398//398 405//405
f 407//407 404//404 406//406
f 405//405 407//407 497//497
f 408//408 399//399 765//765
f 766//766 399//399 374//374
f 380//380 409//409 772//772
f 380//380 772//772 764//764
f 380//380 406//406 409//409
f 410//410 300//300 414//414
f 410//410 499//499 383//383
f 499//499 410//410 414//414
f 507//507 499//499 414//414
f 384//384 411//411 298//298
f 298//298 411//411 415//415
f 415//415 411//411 416//416
f 412//412 416//416 411//411
f 412//412 417//417 416//416
f 387//387 413//413 412//412
f 505//505 413//413 389//389
f 389//389 502//502 778//778
f 507//507 414//414 419//419
f 300//300 419//419 414//414
f 415//415 416//416 421//421
f 412//412 422//422 417//417
f 412//412 413//413 422//422
f 413//413 418//418 422//422
f 503//503 418//418 505//505
f 505//505 418//418 413//413
f 308//308 424//424 419//419
f 514//514 419//419 424//424
f 419//419 514//514 507//507
f 421//421 425//425 420//420
f 421//421 420//420 415//415
f 416//416 417//417 421//421
f 421//421 426//426 425//425
f 417//417 426//426 421//421
f 417//417 427//427 426//426
f 417//417 422//422 427//427
f 422//422 423//423 427//427
f 427//427 423//423 429//429
f 418//418 508//508 422//422
f 503//503 508//508 418//418
f 422//422 508//508 423//423
f 307//307 430//430 424//424
f 431//431 514//514 424//424
f 431//431 424//424 430//430
f 426//426 433//433 425//425
f 428//428 427//427 429//429
f 427//427 428//428 426//426
f 435//435 428//428 429//429
f 429//429 521//521 435//435
f 518//518 521//521 429//429
f 429//429 423//423 518//518
f 436//436 431//431 430//430
f 432//432 310//310 433//433
f 433//433 438//438 432//432
f 432//432 438//438 437//437
f 434//434 433//433 426//426
f 438//438 433//433 434//434
f 434//434 426//426 442//442
f 428//428 439//439 426//426
f 428//428 435//435 439//439
f 426//426 439//439 442//442
f 435//435 525//525 439//439
f 521//521 525//525 435//435
f 436//436 430//430 311//311
f 440//440 436//436 311//311
f 438//438 434//434 442//442
f 441//441 438//438 442//442
f 436//436 440//440 443//443
f 528//528 436//436 443//443
f 437//437 444//444 316//316
f 437//437 441//441 444//444
f 444//444 441//441 446//446
f 438//438 441//441 437//437
f 442//442 446//446 441//441
f 442//442 439//439 531//531
f 525//525 531//531 439//439
f 323//323 443//443 440//440
f 536//536 443//443 323//323
f 528//528 443//443 565//565
f 445//445 444//444 446//446
f 536//536 323//323 448//448
f 565//565 443//443 536//536
f 450//450 445//445 446//446
f 447//447 446//446 442//442
f 447//447 451//451 446//446
f 446//446 451//451 450//450
f 447//447 534//534 451//451
f 539//539 448//448 543//543
f 536//536 448//448 539//539
f 450//450 452//452 449//449
f 450//450 451//451 452//452
f 448//448 329//329 545//545
f 543//543 448//448 545//545
f 577//577 543//543 545//545
f 333//333 452//452 453//453
f 542//542 453//453 452//452
f 545//545 329//329 455//455
f 329//329 328//328 455//455
f 453//453 456//456 333//333
f 453//453 459//459 456//456
f 459//459 458//458 456//456
f 457//457 460//460 331//331
f 461//461 457//457 773//773
f 774//774 458//458 459//459
f 453//453 463//463 459//459
f 542//542 463//463 453//453
f 454//454 460//460 548//548
f 460//460 461//461 548//548
f 455//455 454//454 548//548
f 455//455 548//548 546//546
f 461//461 460//460 457//457
f 459//459 776//776 774//774
f 774//774 776//776 462//462
f 548//548 461//461 775//775
f 776//776 547//547 462//462
f 548//548 775//775 782//782
f 466//466 468//468 464//464
f 469//469 465//465 468//468
f 473//473 476//476 466//466
f 476//476 467//467 466//466
f 468//468 467//467 477//477
f 467//467 468//468 466//466
f 477//477 469//469 468//468
f 465//465 469//469 470//470
f 472//472 465//465 471//471
f 472//472 471//471 482//482
f 465//465 470//470 471//471
f 474//474 484//484 475//475
f 474//474 475//475 473//473
f 473//473 475//475 476//476
f 467//467 476//476 477//477
f 477//477 476//476 486//486
f 477//477 551//551 478//478
f 477//477 478//478 469//469
f 479//479 478//478 490//490
f 479//479 490//490 493//493
f 479//479 469//469 478//478
f 470//470 469//469 480//480
f 469//469 479//479 480//480
f 479//479 496//496 481//481
f 470//470 480//480 471//471
f 480//480 479//479 481//481
f 472//472 482//482 369//369
f 498//498 407//407 483//483
f 483//483 481//481 498//498
f 482//482 481//481 483//483
f 471//471 480//480 482//482
f 480//480 481//481 482//482
f 483//483 407//407 406//406
f 482//482 483//483 369//369
f 383//383 499//499 484//484
f 484//484 500//500 485//485
f 486//486 475//475 485//485
f 484//484 485//485 475//475
f 486//486 476//476 475//475
f 486//486 485//485 552//552
f 486//486 552//552 477//477
f 551//551 490//490 478//478
f 553//553 490//490 551//551
f 489//489 502//502 487//487
f 487//487 491//491 488//488
f 487//487 488//488 489//489
f 488//488 490//490 489//489
f 490//490 488//488 491//491
f 490//490 491//491 493//493
f 493//493 491//491 492//492
f 492//492 494//494 495//495
f 492//492 495//495 493//493
f 496//496 493//493 495//495
f 496//496 479//479 493//493
f 497//497 407//407 498//498
f 497//497 496//496 495//495
f 497//497 498//498 496//496
f 498//498 481//481 496//496
f 507//507 500//500 499//499
f 499//499 500//500 484//484
f 485//485 500//500 552//552
f 553//553 555//555 501//501
f 489//489 506//506 778//778
f 501//501 490//490 553//553
f 778//778 502//502 489//489
f 490//490 506//506 489//489
f 490//490 501//501 506//506
f 556//556 552//552 500//500
f 513//513 504//504 555//555
f 555//555 557//557 513//513
f 777//777 778//778 506//506
f 504//504 777//777 506//506
f 504//504 501//501 555//555
f 504//504 506//506 501//501
f 507//507 514//514 515//515
f 507//507 515//515 500//500
f 500//500 515//515 556//556
f 423//423 508//508 509//509
f 423//423 509//509 518//518
f 779//779 511//511 780//780
f 510//510 779//779 777//777
f 510//510 511//511 779//779
f 504//504 510//510 777//777
f 504//504 513//513 510//510
f 513//513 512//512 510//510
f 512//512 511//511 510//510
f 513//513 516//516 512//512
f 557//557 516//516 513//513
f 559//559 516//516 557//557
f 514//514 431//431 520//520
f 514//514 524//524 515//515
f 515//515 524//524 561//561
f 519//519 521//521 781//781
f 522//522 519//519 516//516
f 560//560 517//517 559//559
f 559//559 517//517 516//516
f 517//517 522//522 516//516
f 511//511 781//781 780//780
f 511//511 519//519 781//781
f 511//511 512//512 519//519
f 516//516 519//519 512//512
f 436//436 520//520 431//431
f 520//520 524//524 514//514
f 519//519 522//522 521//521
f 522//522 527//527 521//521
f 523//523 527//527 522//522
f 517//517 523//523 522//522
f 520//520 436//436 528//528
f 528//528 524//524 520//520
f 524//524 528//528 562//562
f 528//528 565//565 562//562
f 521//521 526//526 525//525
f 527//527 526//526 521//521
f 527//527 529//529 526//526
f 529//529 525//525 526//526
f 530//530 529//529 527//527
f 527//527 523//523 530//530
f 564//564 530//530 523//523
f 525//525 532//532 531//531
f 529//529 532//532 525//525
f 529//529 530//530 533//533
f 533//533 530//530 564//564
f 442//442 531//531 447//447
f 531//531 534//534 447//447
f 532//532 534//534 531//531
f 529//529 533//533 532//532
f 533//533 537//537 532//532
f 534//534 532//532 535//535
f 537//537 535//535 532//532
f 537//537 538//538 535//535
f 567//567 537//537 533//533
f 538//538 534//534 535//535
f 534//534 542//542 451//451
f 534//534 538//538 542//542
f 539//539 540//540 536//536
f 540//540 565//565 536//536
f 542//542 452//452 451//451
f 537//537 542//542 538//538
f 541//541 539//539 543//543
f 540//540 539//539 541//541
f 541//541 570//570 540//540
f 537//537 573//573 542//542
f 579//579 543//543 785//785
f 570//570 541//541 544//544
f 541//541 543//543 544//544
f 573//573 580//580 542//542
f 580//580 573//573 602//602
f 455//455 546//546 578//578
f 455//455 578//578 545//545
f 542//542 783//783 463//463
f 783//783 542//542 581//581
f 580//580 581//581 542//542
f 549//549 548//548 782//782
f 549//549 783//783 581//581
f 550//550 549//549 581//581
f 546//546 548//548 582//582
f 477//477 552//552 551//551
f 552//552 554//554 553//553
f 555//555 553//553 554//554
f 552//552 553//553 551//551
f 552//552 556//556 554//554
f 557//557 555//555 554//554
f 554//554 559//559 557//557
f 556//556 561//561 558//558
f 556//556 558//558 554//554
f 554//554 558//558 559//559
f 515//515 561//561 556//556
f 559//559 558//558 560//560
f 558//558 561//561 560//560
f 561//561 563//563 560//560
f 560//560 523//523 517//517
f 524//524 562//562 561//561
f 561//561 562//562 563//563
f 523//523 560//560 564//564
f 563//563 564//564 560//560
f 563//563 566//566 564//564
f 564//564 567//567 533//533
f 564//564 566//566 567//567
f 562//562 565//565 568//568
f 562//562 568//568 563//563
f 563//563 568//568 566//566
f 571//571 565//565 540//540
f 566//566 568//568 569//569
f 566//566 587//587 567//567
f 587//587 566//566 569//569
f 571//571 568//568 565//565
f 569//569 568//568 571//571
f 571//571 588//588 569//569
f 540//540 570//570 572//572
f 540//540 572//572 571//571
f 786//786 571//571 572//572
f 572//572 570//570 575//575
f 537//537 567//567 573//573
f 567//567 587//587 573//573
f 573//573 587//587 602//602
f 543//543 574//574 544//544
f 579//579 574//574 543//543
f 575//575 570//570 544//544
f 575//575 544//544 574//574
f 574//574 579//579 576//576
f 575//575 574//574 590//590
f 574//574 784//784 590//590
f 578//578 577//577 545//545
f 580//580 602//602 606//606
f 585//585 581//581 580//580
f 606//606 585//585 580//580
f 586//586 549//549 550//550
f 582//582 548//548 583//583
f 609//609 582//582 583//583
f 548//548 549//549 586//586
f 548//548 586//586 583//583
f 581//581 585//585 550//550
f 550//550 585//585 584//584
f 584//584 586//586 550//550
f 585//585 605//605 584//584
f 586//586 584//584 607//607
f 607//607 584//584 605//605
f 605//605 585//585 623//623
f 586//586 607//607 610//610
f 610//610 583//583 586//586
f 610//610 607//607 629//629
f 589//589 587//587 569//569
f 569//569 588//588 591//591
f 786//786 572//572 575//575
f 591//591 589//589 569//569
f 591//591 587//587 589//589
f 593//593 587//587 591//591
f 786//786 575//575 590//590
f 787//787 786//786 590//590
f 594//594 602//602 587//587
f 587//587 593//593 594//594
f 590//590 784//784 601//601
f 576//576 579//579 601//601
f 592//592 787//787 590//590
f 601//601 592//592 590//590
f 593//593 787//787 592//592
f 593//593 592//592 601//601
f 601//601 595//595 593//593
f 594//594 593//593 595//595
f 577//577 578//578 597//597
f 597//597 578//578 546//546
f 596//596 579//579 785//785
f 596//596 785//785 790//790
f 789//789 603//603 579//579
f 789//789 791//791 603//603
f 598//598 600//600 599//599
f 791//791 617//617 603//603
f 794//794 795//795 793//793
f 579//579 603//603 601//601
f 611//611 594//594 595//595
f 615//615 595//595 601//601
f 788//788 797//797 612//612
f 602//602 594//594 612//612
f 614//614 604//604 613//613
f 796//796 800//800 799//799
f 603//603 651//651 601//601
f 651//651 622//622 601//601
f 606//606 623//623 585//585
f 606//606 602//602 625//625
f 582//582 609//609 608//608
f 628//628 607//607 605//605
f 609//609 583//583 610//610
f 628//628 605//605 623//623
f 635//635 608//608 609//609
f 582//582 608//608 635//635
f 607//607 631//631 629//629
f 631//631 607//607 628//628
f 609//609 610//610 629//629
f 798//798 595//595 615//615
f 651//651 603//603 617//617
f 622//622 615//615 601//601
f 798//798 615//615 622//622
f 602//602 612//612 642//642
f 602//602 642//642 625//625
f 616//616 642//642 612//612
f 797//797 616//616 612//612
f 798//798 622//622 801//801
f 546//546 626//626 597//597
f 546//546 582//582 626//626
f 811//811 802//802 792//792
f 619//619 621//621 618//618
f 805//805 803//803 620//620
f 804//804 809//809 807//807
f 808//808 810//810 806//806
f 624//624 623//623 606//606
f 630//630 623//623 624//624
f 625//625 624//624 606//606
f 640//640 624//624 625//625
f 626//626 582//582 635//635
f 634//634 627//627 633//633
f 813//813 815//815 814//814
f 811//811 839//839 802//802
f 609//609 650//650 635//635
f 630//630 628//628 623//623
f 630//630 631//631 628//628
f 624//624 640//640 630//630
f 629//629 631//631 652//652
f 652//652 631//631 653//653
f 632//632 801//801 622//622
f 642//642 643//643 625//625
f 822//822 801//801 632//632
f 641//641 632//632 622//622
f 822//822 632//632 641//641
f 839//839 811//811 637//637
f 812//812 816//816 818//818
f 638//638 636//636 639//639
f 819//819 820//820 817//817
f 818//818 816//816 837//837
f 839//839 637//637 838//838
f 622//622 651//651 654//654
f 630//630 653//653 631//631
f 649//649 630//630 640//640
f 657//657 630//630 649//649
f 845//845 641//641 622//622
f 823//823 821//821 644//644
f 827//827 825//825 824//824
f 645//645 826//826 828//828
f 830//830 829//829 641//641
f 831//831 625//625 643//643
f 830//830 641//641 646//646
f 646//646 641//641 648//648
f 625//625 647//647 640//640
f 832//832 835//835 833//833
f 831//831 647//647 625//625
f 648//648 830//830 646//646
f 661//661 834//834 836//836
f 853//853 648//648 845//845
f 845//845 648//648 641//641
f 647//647 854//854 640//640
f 854//854 649//649 640//640
f 854//854 846//846 649//649
f 629//629 659//659 609//609
f 659//659 650//650 609//609
f 658//658 839//839 838//838
f 849//849 650//650 659//659
f 662//662 654//654 651//651
f 655//655 652//652 653//653
f 660//660 629//629 652//652
f 622//622 654//654 847//847
f 652//652 655//655 656//656
f 660//660 652//652 656//656
f 657//657 653//653 630//630
f 657//657 655//655 653//653
f 848//848 840//840 842//842
f 843//843 842//842 840//840
f 659//659 629//629 660//660
f 855//855 659//659 660//660
f 651//651 850//850 662//662
f 856//856 851//851 852//852
f 855//855 660//660 656//656
f 857//857 844//844 841//841
