# Wavafront OBJ file of BodyParts3D
# BodyParts3D, Copyright(C) 2010-2011 The Database Center for Life Science licensed under CC Attribution-Share Alike 2.1 Japan.
vn -0.253382 -0.958159 -0.13315
v -8 -207.02 1073.5
vn -0.0202822 -0.98664 -0.16165
v -7.48809 -207 1073
vn -0.0989346 -0.99509 0.00278658
v -6.5 -207.965 1105
vn -0.3329 -0.942956 0.00334902
v -7.76639 -207.5 1110
vn -0.821513 -0.570097 -0.0103226
v -7.5 -207.451 1117.5
vn 0.0902616 -0.995591 -0.0255325
v -6.5 -207.535 1117
vn -0.962358 -0.271559 0.0111126
v -8.15234 -206.5 1120.5
vn -0.857265 -0.514696 -0.0136394
v -7.85547 -208 1136.5
vn -0.852352 -0.522944 -0.00513216
v -7 -209.434 1140.5
vn -0.984819 -0.173499 -0.00549235
v -8.81641 -205.5 1072
vn -0.997127 0.0552599 -0.0518015
v -8.80859 -204.5 1173
vn 0.220116 -0.951978 0.212806
v -7 -205.043 1173
vn -0.307536 -0.923065 0.231026
v -8.85547 -203 1184
vn -0.300582 -0.933746 0.194343
v -8 -203.41 1183.5
vn -0.241266 -0.910987 0.334503
v -8 -203.043 1184.5
vn 0.851891 -0.468892 0.233285
v -7.5 -203 1183.42
vn -0.187126 -0.976047 -0.110981
v -7.5 -199.191 1014
vn -0.592363 -0.804287 -0.0472019
v -8.5 -200.027 1024.5
vn -0.0811583 -0.996637 -0.0113393
v -7.5 -200.645 1032
vn -0.108206 -0.992371 -0.059086
v -7.5 -200.316 1043
vn -0.98514 -0.171687 -0.00473895
v -8.99609 -199.5 1049.5
vn -0.652063 -0.757903 -0.0199138
v -8.5 -200.206 1046
vn -0.388501 -0.907592 -0.159196
v -8.89453 -201 1052.5
vn -0.0926205 -0.97653 -0.19445
v -7.5 -201.129 1050.5
vn -0.993052 0.11314 -0.0323692
v -8.62891 -200.5 1169.5
vn -0.790006 -0.603406 0.108589
v -8.66797 -199.5 1181
vn -0.68808 0.420585 0.591316
v -8.36328 -200 1181.5
vn -0.68298 0.509639 0.523265
v -8 -200 1181.92
vn 0.9692 -0.0744193 0.234761
v -7.5 -200 1181.66
vn 0.968198 -0.0170128 0.249608
v -6.5 -201.5 1178.98
vn -0.989949 0.141415 0.00182806
v -8.81641 -202 1184
vn -0.699058 -0.679326 0.223235
v -8.84766 -199 1183
vn -0.664104 -0.0910231 0.742079
v -8.43382 -202 1184.5
vn -0.973275 0.229298 0.0125602
v -8.46759 -200.5 1182
vn -0.628091 0.668008 0.399083
v -8 -200.324 1182.5
vn -0.639667 -0.717606 0.275441
v -8 -199.645 1183
vn -0.49292 0.473159 0.730172
v -8 -199 1183.98
vn 0.962021 -0.0650392 0.265115
v -7.5 -202 1184.22
vn 0.442923 -0.775645 0.44966
v -7.37891 -199 1183.5
vn -0.991439 -0.124279 -0.0400371
v -9.25391 -194.5 997
vn -0.0299858 -0.921165 -0.388017
v -8.5 -196.145 996.5
vn -0.491772 -0.86206 -0.122531
v -7.5 -197.02 998.5
vn -0.489757 -0.863547 -0.120102
v -9.26953 -198 1012.5
vn -0.853386 0.513921 0.0872777
v -8.22266 -195 1070.5
vn -0.867132 0.497094 0.0313122
v -7.24609 -195.5 1101
vn -0.91716 0.398487 -0.005043
v -6.30078 -197 1145.5
vn -0.781508 0.619736 -0.0719161
v -7.91797 -198 1165.5
vn -0.343979 0.938339 0.0346133
v -6.5 -195.043 1174
vn -0.89063 0.454186 -0.0222082
v -8.58203 -197 1178
vn 0.944137 -0.154892 0.290886
v -6.79297 -198 1181.5
vn 0.432544 0.813872 0.387967
v -7 -197 1181.68
vn -0.529615 0.843488 0.089644
v -7 -195.637 1178
vn -0.984002 0.177181 0.0185975
v -8.5 -196.964 1182
vn -0.580137 0.452088 0.677538
v -8 -197 1182.68
vn -0.257425 0.525487 0.810923
v -7.47222 -198 1183.5
vn -0.325894 -0.93903 -0.109616
v -6.5 -191.137 962.5
vn -0.627835 -0.768752 -0.121831
v -8.83203 -190.5 970.5
vn -0.683941 -0.728122 -0.0454294
v -8.59766 -191.5 976
vn -0.246522 -0.969022 -0.0149335
v -7.5 -192.121 976.5
vn -0.534517 -0.845041 0.0140229
v -8.5 -191.5 984.083
vn -0.173263 -0.984469 -0.0283109
v -7.5 -191.848 983
vn -0.931425 -0.358105 -0.064875
v -9.24609 -190.5 987.5
vn -0.216437 -0.943835 -0.24966
v -7 -192.402 987.5
vn -0.941985 0.334688 0.0254565
v -8.41016 -190.5 1032.5
vn -0.972912 0.228245 0.0366961
v -8.55078 -191 1046.5
vn -0.437265 0.895786 0.0797869
v -8 -190.215 1047
vn -0.667797 0.728879 0.150937
v -6.5 -191 1058.81
vn -0.982515 0.182749 0.0355828
v -8.87891 -187.5 1001
vn -0.457124 0.885338 0.0849367
v -7.5 -189.738 1035
vn -0.562921 -0.808974 -0.169356
v -7.26953 -185.5 933
vn -0.997909 -0.0433601 -0.0479289
v -8.16797 -184.5 941
vn -0.720337 0.682994 0.120968
v -8 -184.725 998
vn -0.168536 0.970847 0.170446
v -6.5 -183.949 998
vn -0.989609 0.140238 -0.0317237
v -8.27734 -179 962
vn -0.986758 0.162029 -0.00744514
v -8.38672 -178.5 965.5
vn -0.962864 0.267287 -0.0380977
v -8.01953 -178 962.5
vn -0.282233 0.948318 0.145045
v -7 -177.402 965
vn -0.960139 -0.194023 -0.201218
v -7.79297 -143.5 803.5
vn -0.636375 -0.634135 -0.439204
v -7.5 -144.168 803.5
vn -0.708714 -0.153302 -0.688639
v -7 -143.5 802.418
vn -0.137827 -0.771838 -0.620701
v -6.5 -144.207 803
vn -0.895056 0.215763 -0.390284
v -7.86328 -141 803
vn -0.90241 0.385298 0.19288
v -6.5 -137.456 805
vn 0.303175 -0.952822 0.01468
v -6 -209.27 1139.5
vn 0.257292 -0.958672 0.121447
v -4 -206.527 1157.5
vn 0.343022 -0.914836 0.213099
v -5.5 -204.59 1170.5
vn 0.483837 -0.747106 0.45578
v -5 -203.5 1173.59
vn 0.604511 -0.367363 0.706831
v -2.5 -203 1171.64
vn 0.743184 0.0371521 0.668054
v -4.33203 -200 1173.5
vn 0.625707 -0.514058 0.586715
v -4 -199 1173.68
vn 0.66061 -0.00972704 0.750666
v -2.5 -202 1171.88
vn 0.57062 -0.197723 0.797056
v -2.5 -200 1171.71
vn 0.837564 -0.24267 0.489487
v -5.17578 -199.5 1174.5
vn 0.819166 -0.0175074 0.573289
v -4.90234 -201 1174.5
vn 0.733985 -0.547327 0.402117
v -5 -199.02 1175
vn 0.735083 -0.489496 0.469091
v -4.69922 -198.5 1175
vn 0.714658 0.0795778 0.694932
v -3.83468 -198.5 1174
vn -0.303845 0.951718 0.0437078
v -3.5 -194.777 1144
vn 0.515321 0.402326 0.756689
v -2.5 -194.978 1172
vn 0.242198 0.930585 0.274503
v -5.14113 -195.5 1175
vn -0.339224 0.935841 0.095544
v -6 -193.254 1071
vn -0.138503 0.990184 0.0187936
v -4 -193.645 1090.5
vn -0.319886 0.946212 0.0485417
v -4.5 -193.754 1133.5
vn -0.150087 -0.969671 -0.192902
v -6 -186.926 937
vn -0.336702 -0.911119 -0.237685
v -4.5 -175 882.717
vn -0.999284 0.0272766 -0.0262227
v -5 -173 877.317
vn -0.312647 -0.901787 -0.298384
v -3 -167.09 854.5
vn -0.990854 0.1332 -0.0215727
v -4.99576 -168 895.5
vn -0.207897 0.960236 0.18635
v -3 -167.121 895.5
vn -0.782604 -0.586971 -0.207356
v -4.21484 -166 856
vn -0.724848 -0.671664 -0.153176
v -4.5 -154.319 819.5
vn -0.709039 -0.687133 -0.15847
v -4.71484 -154.5 823
vn -0.588571 -0.789319 -0.174813
v -3 -155.668 822.5
vn -0.180181 0.946967 0.26606
v -3.57422 -157.5 856.5
vn -0.253512 -0.846205 -0.468688
v -4.5 -152.5 815.609
vn -0.970322 -0.241809 0.00165393
v -5.24609 -153 818.5
vn -0.96644 0.190831 0.171982
v -4.5 -150.5 822.353
vn -0.985061 0.124174 0.119312
v -3.87109 -150.5 825
vn -0.976977 0.184731 0.106729
v -4.30078 -152 826
vn -0.994494 0.0989479 0.0345001
v -3.48828 -153.5 842
vn -0.971586 0.0845448 0.221072
v -5.69922 -148 816.5
vn -0.974003 0.111905 0.196963
v -4.45703 -148 821
vn -0.997901 0.0103976 0.0639151
v -4.05078 -149 825.5
vn -0.637928 0.673925 0.372657
v -4 -145 819.826
vn -0.195695 0.166403 -0.966444
v -5 -139.5 801.371
vn -0.763604 0.609714 -0.212504
v -6 -136.705 804
vn -0.62849 0.735143 0.254095
v -6 -136.782 805
vn -0.561731 0.544312 -0.623043
v -5.5 -137 803.004
vn -0.468284 0.873636 -0.132178
v -5.5 -136.293 804
vn -0.215476 0.892714 0.395768
v -5 -136.5 805.553
vn -0.232621 0.744675 -0.625576
v -4.5 -136.296 803
vn -0.0979355 0.994955 -0.0217541
v -4 -135.848 804
vn 0.00157522 -0.999885 0.0151041
v -0.5 -206.676 1143
vn -0.0231133 -0.912756 0.407851
v -0.5 -203.801 1169.5
vn 0.352782 -0.750587 0.558717
v -2 -203.684 1170.5
vn 0.396836 -0.240501 0.885822
v -1.5 -202.5 1171.18
vn 0.26168 -0.557313 0.787988
v -0.5 -203 1170.68
vn -0.55064 -0.382713 0.74184
v 1.01339 -203 1171.5
vn -0.385065 -0.811477 0.43958
v 1.5 -203.746 1171
vn -0.692337 -0.0860052 0.716431
v 1.5 -202.5 1172.15
vn -0.0511207 -0.990359 -0.128748
v -0.5 -199.801 1051.5
vn 0.508023 0.104651 0.854962
v -1.5 -198.5 1171.86
vn 0.252463 -0.146242 0.956491
v -0.5 -202 1170.99
vn 0.268773 -0.202831 0.941605
v -0.5 -199.887 1171
vn 0.194597 -0.413238 0.889588
v -0.5 -198.5 1171.64
vn -0.514146 -0.0873931 0.853239
v 0.5 -202 1171.39
vn -0.558181 -0.126482 0.820022
v 0.5 -198.5 1172.11
vn 0.118991 0.992325 0.0336374
v -0.5 -194.941 1150.5
vn -0.235469 0.97028 -0.0557748
v -2 -194.77 1163
vn 0.0431627 0.997796 -0.0504018
v 1 -194.832 1163.5
vn 0.119618 0.991932 -0.0419853
v 1.5 -194.395 1169.5
vn 0.00886713 0.998857 0.0469733
v -2 -194.34 1171
vn 0.284938 0.0890184 0.954404
v -0.5 -195 1171.24
vn -0.0744822 0.997201 -0.00656096
v -0.5 -194.434 1170
vn -0.0921014 0.99381 0.0621132
v -0.5 -194.465 1170.5
vn -0.0861571 0.996146 -0.0164296
v -0 -194.316 1170.5
vn -0.544114 0.124097 0.829783
v 0.5 -195 1171.58
vn 0.0503437 0.982305 0.180392
v -0.5 -168.199 901
vn -0.0027817 -0.92383 -0.382794
v -1 -155.27 821
vn 0.292951 -0.907452 -0.301183
v 1.5 -155.848 823
vn 0.396025 0.878098 0.26853
v 1.5 -156.316 854.5
vn -0.722913 0.653976 0.222963
v -2 -150.832 839
vn 0.0574178 0.942121 0.33032
v 1.5 -147.355 827.5
vn -0.0281622 -0.678668 -0.733905
v -1 -143.035 802
vn 0.0730883 0.89004 0.449986
v 1 -144.434 820
vn -0.124359 -0.991458 -0.0393058
v 5 -207.605 1083.5
vn -0.197471 -0.980285 0.00682256
v 3.5 -207.293 1094
vn -0.322838 -0.946449 -0.00333797
v 4.9569 -208 1094
vn 0.171812 -0.985102 0.0073397
v 5.5 -208.113 1094
vn -0.224826 -0.974119 0.0233705
v 5 -207.871 1098.5
vn 0.136752 -0.990421 0.0191008
v 5.5 -207.91 1098
vn -0.199723 -0.979788 0.0112593
v 5 -207.855 1105
vn -0.148386 -0.988699 -0.0213347
v 5 -207.52 1119.5
vn -0.362398 -0.931038 0.0428539
v 4.42021 -209 1141.5
vn -0.248115 -0.966574 0.0646048
v 5.5 -209.465 1140.5
vn -0.0421889 -0.978672 0.201052
v 2 -205.746 1162
vn -0.61711 -0.60724 0.500435
v 3.5 -203.418 1173.5
vn -0.935073 -0.04188 0.351972
v 4.25391 -203 1175.5
vn 0.0804564 -0.991 -0.106981
v 5.5 -199.082 1014
vn -0.180313 -0.943567 -0.277793
v 4 -201.863 1055.5
vn -0.66243 -0.00575728 0.749102
v 2.05078 -200.5 1172.5
vn -0.544111 -0.485468 0.684298
v 2.5 -199.027 1173.5
vn -0.685592 -0.339435 0.644009
v 3.05078 -199.5 1173.5
vn -0.787062 -0.0907919 0.610156
v 3.12891 -202 1174
vn -0.811726 0.0394522 0.582704
v 3.44141 -200 1174
vn -0.78865 0.053193 0.612538
v 3.01172 -198.5 1174.5
vn -0.904119 -0.133451 0.405905
v 4.58984 -200 1176
vn -0.841609 -0.474561 0.25785
v 4.61328 -199 1177.5
vn -0.972242 -0.142618 0.185489
v 5.80078 -199.5 1181.5
vn -0.904652 -0.319439 0.28207
v 5.85547 -199 1183
vn 0.681568 0.731201 0.0284717
v 5 -194.738 1103.5
vn 0.507974 0.860707 0.0338615
v 4.98828 -197 1145
vn -0.874546 -0.00600174 0.484905
v 3.95703 -196 1175.5
vn 0.170187 0.984859 -0.0330045
v 4.5 -194.816 1174
vn -0.964792 0.0575585 0.256637
v 5.55859 -198 1182
vn 0.344554 -0.931107 -0.119674
v 5.5 -191.676 966.5
vn 0.240705 0.961132 0.135226
v 5 -190.855 1058
vn 0.226988 0.967541 0.111092
v 4.5 -193.426 1073
vn 0.361938 0.931545 0.0350011
v 5 -193.621 1090
vn 0.137199 0.990491 0.0101739
v 3 -193.965 1103.5
vn 0.39096 0.919742 0.0349943
v 3 -193.348 1125
vn 0.329972 0.938233 0.104099
v 5.5 -189.098 1030.5
vn -0.000520681 0.985045 0.172298
v 5 -184.293 1000
vn -0.0130953 0.981174 0.192684
v 5 -180.824 985.5
vn 0.232781 -0.942932 -0.238103
v 3 -174.5 880.603
vn 0.686866 -0.701231 -0.191026
v 4.09766 -174 882
vn 0.208223 0.968733 0.134903
v 5.71721 -173.5 937
vn 0.848047 -0.496694 -0.184692
v 2.87109 -167 857.5
vn 0.788731 -0.579682 -0.204627
v 2.5 -168.5 859.83
vn 0.487271 0.863213 0.132027
v 4.10547 -169 897
vn 0.169447 0.979367 0.110125
v 2.5 -169.762 916.5
vn 0.839833 -0.518459 -0.160876
v 2.90234 -159.5 837.5
vn 0.617978 -0.744642 -0.252214
v 2 -160.973 838
vn 0.473561 -0.843699 -0.252807
v 3 -154.707 820.5
vn 0.931011 -0.361512 -0.0502708
v 3.20703 -155 824
vn 0.746097 -0.632396 -0.208363
v 3 -157.5 829.93
vn 0.974695 -0.217026 -0.0535665
v 3.26953 -157 830
vn 0.978853 0.197721 0.0524718
v 2.37109 -157 852.5
vn 0.191851 -0.862313 -0.468624
v 3 -153 816.467
vn 0.785538 -0.588464 -0.191418
v 3.87109 -153 817.5
vn 0.933227 -0.359274 -0.00303227
v 3.59766 -154 821
vn 0.987917 0.103149 0.115677
v 2.71484 -150.5 823.5
vn 0.994647 0.100328 0.0247291
v 3.19922 -153 827.5
vn 0.274572 -0.831359 -0.483169
v 5 -146.348 806.5
vn 0.581672 -0.721419 -0.375783
v 5 -148.657 810.5
vn 0.979712 -0.195833 0.0425808
v 5.65234 -147 810
vn 0.980967 0.0888497 0.172655
v 3.19141 -148 820.5
vn 0.998987 0.00701992 0.0444563
v 2.69922 -149.5 826
vn 0.946968 0.293568 0.130652
v 2.5 -149.5 829.75
vn 0.896085 0.424105 0.131019
v 2.41016 -150 833
vn 0.0742909 -0.332383 -0.940214
v 2.5 -142.5 801.402
vn 0.087939 -0.749126 -0.656564
v 5 -144.199 803
vn 0.972654 0.100522 0.20938
v 5.62109 -145.5 811.5
vn 0.696864 0.647824 0.30774
v 2.59914 -144.5 819
vn 0.502109 0.245517 -0.829221
v 5.5 -140.104 802
vn 0.924052 0.320244 0.208737
v 5.73828 -139.5 805
vn 0.768165 0.513539 -0.382361
v 5.5 -139 803.063
vn 0.902966 0.429207 -0.0208328
v 5.69141 -139 804
vn 0.215591 0.964722 -0.151101
v 3.5 -136.448 803
vn 0.280205 0.906298 0.316401
v 3.5 -136.426 805.5
vn 0.86082 0.503514 0.0739052
v 5.24609 -137.5 804.5
vn 0.109628 -0.986876 -0.118563
v 6 -206.941 1073
vn 0.278718 -0.953237 -0.116861
v 7 -206.71 1073.5
vn 0.0793016 -0.994232 -0.0722044
v 6.5 -207.309 1078
vn 0.656397 -0.754331 0.0113175
v 6 -207.707 1097.5
vn 0.765468 -0.643305 0.0147387
v 6.38672 -207.5 1094
vn 0.947181 -0.320429 0.0132045
v 6.71484 -206.5 1099.5
vn 0.379752 -0.924997 0.0130337
v 6 -207.848 1107.5
vn 0.914067 -0.40553 -0.00517495
v 6.75391 -207 1109
vn 0.707844 -0.706223 -0.0143845
v 6.60547 -207 1118.5
vn 0.977352 -0.211615 0.00127759
v 6.49609 -208.5 1139
vn 0.174878 -0.95684 -0.232108
v 6.5 -202.363 1055.5
vn 0.0572799 -0.960082 -0.27379
v 6.5 -205 1063.54
vn 0.620859 -0.751431 -0.22335
v 7 -205 1064.13
vn -0.015269 -0.972454 -0.232594
v 6 -205.988 1067.5
vn 0.210086 -0.958716 -0.191643
v 7 -205.848 1067.5
vn 0.959168 -0.276789 -0.0581729
v 7.64453 -204.5 1066.5
vn 0.972759 -0.231383 0.0142189
v 7.39453 -206 1076
vn 0.996693 -0.0811947 0.00323248
v 7.03516 -205.5 1123
vn -0.346943 -0.910802 0.223764
v 6 -205.098 1173.5
vn 0.0193115 -0.988979 0.146793
v 7 -205.152 1173
vn -0.582415 -0.792564 0.180653
v 6.40234 -203 1184
vn -0.274677 -0.483053 0.831392
v 7 -203.34 1184
vn 0.985827 0.0719385 0.151556
v 7.69141 -202.5 1183.5
vn 0.0377522 -0.998258 -0.0453481
v 6 -200.613 1031.5
vn 0.301734 -0.952599 -0.0388848
v 7 -200.426 1030.5
vn 0.235835 -0.971433 -0.0264451
v 6.5 -200.348 1044
vn 0.888949 -0.456069 -0.0420782
v 7.56641 -199.5 1044.5
vn -0.0522697 -0.993981 -0.0962835
v 6 -200.426 1046.5
vn 0.041942 -0.978281 -0.202994
v 6.5 -200.848 1049
vn 0.594293 -0.785396 -0.173116
v 7 -200.816 1049.5
vn 0.110643 -0.987204 -0.114831
v 7 -200.363 1046.5
vn 0.929751 -0.358263 -0.0849182
v 7.57422 -200 1049.5
vn -0.112807 -0.968364 -0.22259
v 6.5 -201.863 1053
vn 0.363542 -0.912326 -0.18841
v 7 -202 1053.7
vn 0.813862 -0.564218 -0.138876
v 7.41204 -201.5 1053
vn 0.976426 -0.212551 -0.0376139
v 7.62891 -201 1053.5
vn 0.997557 -0.069028 -0.0107479
v 7.73828 -199.5 1052.5
vn 0.831068 -0.546123 -0.10524
v 7.41797 -202 1056.5
vn 0.995322 -0.0959941 -0.0109584
v 7.63672 -201 1057
vn 0.999777 0.00213298 0.0209979
v 7.80859 -202 1068.5
vn 0.998864 0.0418389 0.0227866
v 7.19141 -201 1080.5
vn -0.810712 -0.469235 0.350092
v 6.14453 -200 1181.5
vn -0.615678 0.556396 0.558001
v 6.5 -200 1181.89
vn 0.986217 0.108934 0.12454
v 7.15234 -200 1181
vn 0.435886 0.659789 0.612113
v 7.05078 -200 1181.5
vn -0.955518 0.161182 0.246994
v 6.14583 -200.5 1182
vn -0.539528 -0.77605 0.326582
v 6.45339 -199.5 1183.5
vn -0.77548 -0.329213 0.538748
v 6.0754 -199 1183.5
vn -0.89053 0.0282981 0.454044
v 6 -198.466 1183.5
vn -0.970976 0.0506442 0.233753
v 6.5 -202 1184.61
vn -0.0638423 -0.965244 0.253434
v 6.5 -199.668 1182.5
vn 0.116526 -0.579835 0.806358
v 6.5 -199 1183.92
vn 0.839683 0.441201 0.316661
v 7.10547 -200.5 1182
vn 0.917762 -0.394495 0.0456892
v 7.18952 -199.5 1182
vn 0.152621 -0.982411 0.107592
v 7 -199.481 1183.5
vn 0.208781 -0.508899 0.835124
v 7 -199 1183.79
vn 0.833175 -0.552774 0.016121
v 7.5 -199 1183.1
vn 0.0385595 -0.959905 -0.277661
v 6 -197.199 999.5
vn 0.190913 -0.951572 -0.240961
v 7 -197.105 999.5
vn 0.969448 -0.241296 -0.0441154
v 7.93359 -196 1001.5
vn 0.998867 -0.0475306 0.00216839
v 8.22266 -196.5 1014
vn 0.998972 0.0431551 0.0138992
v 7.70703 -196.5 1051.5
vn 0.985873 0.161837 0.0431662
v 7.17578 -196 1067.5
vn 0.958991 0.281038 0.0367935
v 6.70703 -195.5 1076
vn 0.89717 0.440359 0.0341891
v 6.52734 -195 1089
vn 0.973709 0.227694 0.00675585
v 6.35547 -197.5 1106.5
vn 0.940914 0.338238 0.0166002
v 6.76172 -197 1118
vn 0.978306 0.201238 -0.0491888
v 6.57422 -198 1165
vn -0.0448603 0.856555 0.514103
v 6 -196.871 1182
vn -0.164389 0.666863 0.726822
v 7 -198 1183.54
vn 0.741738 0.667516 -0.0651748
v 7.16803 -197 1182
vn 0.0580946 -0.993482 -0.0980773
v 6 -191.934 985.5
vn 0.797978 -0.598198 -0.0734168
v 7 -191.66 985
vn 0.14072 -0.941963 -0.304801
v 6.5 -192.418 987.5
vn 0.311326 -0.905677 -0.287794
v 7 -192.246 987.5
vn 0.922936 -0.371475 -0.100971
v 7.90234 -190.5 986.5
vn 0.805228 0.590561 0.0533394
v 7.05078 -190.5 1033.5
vn 0.983006 0.182918 0.0154859
v 7.33984 -191.5 1035
vn 0.943738 0.330232 0.017466
v 7.27734 -191 1043
vn -0.00759401 0.997847 0.0651455
v 6.5 -190.074 1046.5
vn 0.99376 0.109887 0.0191073
v 7.32422 -192.5 1049
vn 0.943504 0.326182 0.0583591
v 7.08984 -191.5 1052
vn 0.690355 0.70996 0.139165
v 6.50391 -192 1060
vn 0.896882 0.433375 0.0882548
v 6.79297 -194 1065.5
vn 0.66568 0.732778 0.141092
v 6 -193.093 1066.5
vn 0.690048 0.721529 0.0568239
v 6.0754 -194 1072.5
vn 0.731154 -0.676376 -0.0890524
v 7.46484 -189.5 964.5
vn 0.999518 0.0308779 -0.0032332
v 7.98047 -189 987.5
vn 0.996882 0.078887 -0.00163556
v 7.41016 -183.5 988.5
vn 0.837701 0.539334 0.0858781
v 7.26953 -186 1001
vn 0.269544 0.956375 0.112659
v 6 -185.199 1008
vn 0.561204 -0.692063 -0.453981
v 6 -144.316 803.5
vn 0.546582 -0.375732 -0.748381
v 6 -143.5 802.635
vn 0.948146 -0.233557 -0.215569
v 6.48047 -143.5 803.5
vn 0.883399 -0.445296 -0.146006
v 6.05078 -145.5 806.5
vn 0.836829 0.446704 -0.316501
v 6.23828 -140 803
vn 0.999421 0.0320497 -0.0114216
v 6.66016 -141.5 803.5
vn 0.907037 0.078013 -0.41376
v 6.55859 -141 803
vn 0.9491 0.308163 0.0651563
v 6.5 -140.457 803.5
vn -0.851427 -0.520562 -0.063933
v -8 -207.02 1073.5
vn -0.863151 -0.504806 0.0118707
v -7.76639 -207.5 1110
vn -0.160067 -0.987054 -0.0101827
v -7.5 -207.451 1117.5
vn -0.989631 0.143556 0.00466178
v -7.85547 -208 1136.5
vn 0.0296459 -0.998593 0.0439623
v -7 -209.434 1140.5
vn -0.884002 -0.466979 0.0216948
v -8.80859 -204.5 1173
vn -0.313515 -0.941393 0.124448
v -8.80859 -204.5 1173
vn 0.64059 -0.747158 0.177196
v -7 -205.043 1173
vn 0.943607 -0.313401 0.106706
v -7 -205.043 1173
vn -0.99924 0.0379034 -0.00907806
v -8.85547 -203 1184
vn -0.664104 -0.0910231 0.742079
v -8.85547 -203 1184
vn 0.638907 -0.736602 0.221844
v -8 -203.41 1183.5
vn -0.5013 -0.208516 0.839773
v -8 -203.043 1184.5
vn 0.774681 -0.534457 0.337972
v -8 -203.043 1184.5
vn 0.28228 0.117414 0.95212
v -8 -203.043 1184.5
vn -0.499481 -0.855758 -0.134898
v -8.5 -200.206 1046
vn -0.816186 -0.563701 -0.126815
v -8.89453 -201 1052.5
vn -0.999158 -0.0410212 -0.000627477
v -8.89453 -201 1052.5
vn -0.876719 -0.479443 0.0387127
v -8.62891 -200.5 1169.5
vn -0.745146 0.186283 0.640356
v -8.66797 -199.5 1181
vn -0.976253 0.216267 0.0125987
v -8.36328 -200 1181.5
vn -0.870423 -0.490701 0.039713
v -8.36328 -200 1181.5
vn -0.752818 -0.625078 0.206258
v -8 -200 1181.92
vn 0.245337 0.845525 0.474233
v -8 -200 1181.92
vn 0.160019 -0.9374 0.309315
v -8 -200 1181.92
vn 0.356367 0.779543 0.515088
v -7.5 -200 1181.66
vn 0.33206 -0.873241 0.356633
v -7.5 -200 1181.66
vn 0.473444 -0.774725 0.419109
v -6.5 -201.5 1178.98
vn -0.7938 0.0310078 0.607388
v -8.81641 -202 1184
vn -0.617635 0.669747 0.41227
v -8.81641 -202 1184
vn -0.992177 0.124809 -0.00278584
v -8.84766 -199 1183
vn -0.714072 0.39395 0.57871
v -8.84766 -199 1183
vn 0.28228 0.117414 0.95212
v -8.43382 -202 1184.5
vn -0.581383 0.681248 0.444854
v -8.43382 -202 1184.5
vn 0.194048 0.730721 0.654517
v -8.43382 -202 1184.5
vn -0.63158 0.651569 0.420196
v -8.46759 -200.5 1182
vn 0.303562 0.767299 0.564891
v -8 -200.324 1182.5
vn 0.353421 -0.841535 0.408548
v -8 -199.645 1183
vn -0.536283 -0.705294 0.463639
v -8 -199 1183.98
vn 0.391092 -0.769062 0.505559
v -8 -199 1183.98
vn 0.610877 0.0570046 0.789671
v -8 -199 1183.98
vn 0.28228 0.117414 0.95212
v -7.5 -202 1184.22
vn 0.33094 0.722602 0.606898
v -7.5 -202 1184.22
vn 0.967308 -0.120633 0.223074
v -7.37891 -199 1183.5
vn 0.610877 0.0570046 0.789671
v -7.37891 -199 1183.5
vn -0.834848 -0.504783 -0.219597
v -8.5 -196.145 996.5
vn -0.502128 -0.855943 -0.123411
v -8.5 -196.145 996.5
vn 0.000428195 -0.973705 -0.227811
v -7.5 -197.02 998.5
vn -0.986177 -0.164627 -0.018793
v -9.26953 -198 1012.5
vn 0.941533 0.139399 0.306731
v -7 -197 1181.68
vn 0.326488 0.905309 0.271702
v -7 -195.637 1178
vn -0.731006 0.397347 0.554748
v -8.5 -196.964 1182
vn -0.46075 0.8795 0.119116
v -8.5 -196.964 1182
vn -0.239047 0.944832 0.223938
v -8 -197 1182.68
vn 0.427096 0.797758 0.425642
v -8 -197 1182.68
vn 0.94089 0.112305 0.319551
v -7.47222 -198 1183.5
vn 0.610877 0.0570046 0.789671
v -7.47222 -198 1183.5
vn 0.513647 0.68857 0.511897
v -7.47222 -198 1183.5
vn -0.99377 -0.105864 -0.0348471
v -8.83203 -190.5 970.5
vn -0.00862331 0.99255 0.121531
v -6.5 -191 1058.81
vn -0.969533 -0.23155 -0.0799394
v -7.26953 -185.5 933
vn -0.59241 0.798192 0.109269
v -8.38672 -178.5 965.5
vn -0.627933 0.775041 0.0707956
v -8.01953 -178 962.5
vn -0.134005 -0.557413 -0.81935
v -7 -143.5 802.418
vn 0.936349 -0.151489 0.316704
v -5 -203.5 1173.59
vn 0.86682 0.127685 0.481996
v -4.69922 -198.5 1175
vn 0.593149 -0.562293 0.576196
v -3.83468 -198.5 1174
vn 0.802896 0.193043 0.563996
v -5.14113 -195.5 1175
vn -0.682567 -0.6966 -0.221024
v -5 -173 877.317
vn -0.486096 0.862309 0.141896
v -4.99576 -168 895.5
vn -0.995901 0.085862 0.0284448
v -4.21484 -166 856
vn -0.07876 -0.914786 -0.396185
v -4.5 -154.319 819.5
vn -0.994381 0.0602228 0.08706
v -4.71484 -154.5 823
vn -0.0786459 -0.932482 -0.352552
v -3 -155.668 822.5
vn -0.994986 0.0998254 0.00618073
v -3.57422 -157.5 856.5
vn -0.7705 0.615644 0.165266
v -3.57422 -157.5 856.5
vn -0.722913 0.653976 0.222963
v -3.48828 -153.5 842
vn -0.670221 0.687689 0.279085
v -4 -145 819.826
vn -0.409932 -0.587204 0.69796
v -0.5 -203 1170.68
vn 0.427553 -0.448484 0.784896
v -1.5 -198.5 1171.86
vn -0.407063 -0.12252 0.905146
v -0.5 -202 1170.99
vn -0.487411 -0.249541 0.836756
v -0.5 -199.887 1171
vn -0.414088 -0.146566 0.89836
v -0.5 -198.5 1171.64
vn 0.212336 0.112668 0.97068
v -0.5 -198.5 1171.64
vn 0.375225 0.696461 0.611677
v -2 -194.34 1171
vn 0.014697 0.80048 0.599179
v -0.5 -195 1171.24
vn -0.36961 0.122607 0.921063
v -0.5 -195 1171.24
vn 0.01069 0.809615 0.586864
v -0.5 -194.465 1170.5
vn -0.322824 0.748229 0.579602
v -0 -194.316 1170.5
vn -0.371057 0.698015 0.612447
v 0.5 -195 1171.58
vn 0.00527175 0.947908 0.318502
v -2 -150.832 839
vn 0.742991 0.632524 0.21881
v 1.5 -147.355 827.5
vn 0.565699 -0.824009 -0.0315229
v 5.5 -209.465 1140.5
vn -0.600832 -0.753801 0.266053
v 4.25391 -203 1175.5
vn -0.683848 -0.539231 0.49151
v 3.01172 -198.5 1174.5
vn -0.920538 0.0563451 0.386569
v 4.61328 -199 1177.5
vn -0.679665 -0.664529 0.310575
v 5.80078 -199.5 1181.5
vn 0.953975 0.299617 -0.0127299
v 4.98828 -197 1145
vn -0.624132 0.632141 0.459192
v 3.95703 -196 1175.5
vn -0.499692 0.758764 0.417834
v 4.5 -194.816 1174
vn 0.768041 0.638534 -0.0488609
v 4.5 -194.816 1174
vn 0.106793 0.967667 0.228508
v 4.5 -194.816 1174
vn 0.567056 0.81668 0.107148
v 5 -184.293 1000
vn 0.614435 0.772779 0.159
v 5 -180.824 985.5
vn 0.997817 0.0592913 -0.0290825
v 4.09766 -174 882
vn 0.998155 0.0528656 -0.0298728
v 5.71721 -173.5 937
vn 0.666313 0.735795 0.120969
v 5.71721 -173.5 937
vn 0.998917 0.0457571 -0.00837757
v 2.87109 -167 857.5
vn 0.124519 -0.942685 -0.309581
v 2.5 -168.5 859.83
vn 0.996753 0.0762285 -0.0259287
v 4.10547 -169 897
vn 0.998146 0.0433448 0.0427288
v 2.90234 -159.5 837.5
vn 0.72933 0.577572 0.366727
v 2.59914 -144.5 819
vn 0.0415731 0.377824 -0.924944
v 3.5 -136.448 803
vn 0.692162 0.530373 -0.489506
v 3.5 -136.448 803
vn 0.86215 -0.506027 -0.0251876
v 7 -206.71 1073.5
vn 0.668986 -0.743263 -0.00415512
v 6.5 -207.309 1078
vn 0.867869 -0.487192 -0.0971999
v 7 -205.848 1067.5
vn 0.841342 -0.537396 0.0578619
v 7 -205.152 1173
vn -0.968015 -0.0555211 0.244673
v 6.40234 -203 1184
vn -0.274677 -0.483053 0.831392
v 6.40234 -203 1184
vn 0.0273201 -0.986327 0.16252
v 7 -203.34 1184
vn -0.485381 -0.853601 0.189129
v 7 -203.34 1184
vn 0.796231 -0.596943 0.0983599
v 7 -203.34 1184
vn 0.657615 -0.0965772 0.747138
v 7 -203.34 1184
vn 0.657615 -0.0965772 0.747138
v 7.69141 -202.5 1183.5
vn 0.887534 -0.459136 -0.038435
v 7 -200.426 1030.5
vn 0.677608 -0.725368 -0.121197
v 7 -200.363 1046.5
vn -0.929142 0.260219 0.262641
v 6.14453 -200 1181.5
vn -0.615678 0.556396 0.558001
v 6.14453 -200 1181.5
vn -0.672169 -0.5606 0.483649
v 6.5 -200 1181.89
vn 0.435886 0.659789 0.612113
v 6.5 -200 1181.89
vn 0.454505 -0.735192 0.502909
v 6.5 -200 1181.89
vn 0 0.210735 0.977543
v 6.5 -200 1181.89
vn 0.93703 0.292825 0.190336
v 7.05078 -200 1181.5
vn 0.886577 -0.426087 0.180088
v 7.05078 -200 1181.5
vn 0.415214 -0.698292 0.583083
v 7.05078 -200 1181.5
vn -0.615678 0.556396 0.558001
v 6.14583 -200.5 1182
vn 0 0.867284 0.497813
v 6.14583 -200.5 1182
vn 0 0.210735 0.977543
v 6.14583 -200.5 1182
vn 0.0225967 -0.642438 0.766004
v 6.45339 -199.5 1183.5
vn -0.285982 0.553613 0.78213
v 6 -198.466 1183.5
vn -0.274677 -0.483053 0.831392
v 6.5 -202 1184.61
vn 0.657615 -0.0965772 0.747138
v 6.5 -202 1184.61
vn 0 0.867284 0.497813
v 6.5 -202 1184.61
vn 0.679691 0.557036 0.477211
v 6.5 -202 1184.61
vn -0.67158 -0.289012 0.68224
v 6.5 -199 1183.92
vn -0.24004 0.449068 0.86065
v 6.5 -199 1183.92
vn 0.235314 0.242208 0.941256
v 6.5 -199 1183.92
vn 0.435886 0.659789 0.612113
v 7.10547 -200.5 1182
vn 0 0.867284 0.497813
v 7.10547 -200.5 1182
vn 0 0.210735 0.977543
v 7.10547 -200.5 1182
vn 0.405659 -0.839159 0.362288
v 7.18952 -199.5 1182
vn 0.116526 -0.579835 0.806358
v 7 -199.481 1183.5
vn 0.730563 -0.675341 0.100958
v 7 -199.481 1183.5
vn 0.764804 -0.335253 0.550164
v 7 -199.481 1183.5
vn 0.235314 0.242208 0.941256
v 7 -199 1183.79
vn 0.808017 -0.0962124 0.58125
v 7 -199 1183.79
vn 0.925406 0.0723548 0.372007
v 7.5 -199 1183.1
vn 0.838346 -0.52418 -0.149705
v 7 -197.105 999.5
vn 0.98913 0.14067 -0.0428253
v 6.57422 -198 1165
vn -0.819679 0.465059 0.334434
v 6 -196.871 1182
vn 0.235314 0.242208 0.941256
v 7 -198 1183.54
vn 0.862853 0.235694 0.447139
v 7 -198 1183.54
vn 0.100748 0.912888 0.395583
v 7.16803 -197 1182
vn 0.963263 0.2331 0.133373
v 7.16803 -197 1182
vn 0.235847 -0.957128 -0.168174
v 7 -191.66 985
vn 0.832296 -0.527567 -0.170164
v 7 -192.246 987.5
vn 0.716408 0.695313 0.0574502
v 6.5 -190.074 1046.5
vn 0.998166 0.0560583 -0.0228537
v 7.46484 -189.5 964.5
vn 0.652983 0.744436 0.139385
v 7.41016 -183.5 988.5
f 24//24 2//2 1//1
f 1//1 2//2 3//3
f 2//2 167//167 3//3
f 1//1 3//3 4//4
f 342//342 10//10 341//341
f 342//342 5//5 7//7
f 342//342 7//7 10//10
f 3//3 343//343 4//4
f 3//3 6//6 343//343
f 167//167 6//6 3//3
f 5//5 8//8 7//7
f 5//5 9//9 8//8
f 343//343 6//6 345//345
f 6//6 84//84 345//345
f 344//344 11//11 46//46
f 9//9 346//346 8//8
f 84//84 85//85 345//345
f 1//1 23//23 24//24
f 341//341 10//10 357//357
f 10//10 65//65 358//358
f 10//10 7//7 45//45
f 7//7 344//344 45//45
f 46//46 45//45 344//344
f 86//86 12//12 85//85
f 85//85 12//12 345//345
f 347//347 345//345 12//12
f 347//347 12//12 14//14
f 16//16 352//352 348//348
f 30//30 16//16 349//349
f 347//347 14//14 13//13
f 11//11 350//350 25//25
f 25//25 350//350 31//31
f 13//13 14//14 15//15
f 33//33 351//351 353//353
f 351//351 33//33 369//369
f 354//354 352//352 16//16
f 16//16 38//38 354//354
f 355//355 382//382 373//373
f 30//30 38//38 16//16
f 42//42 17//17 43//43
f 43//43 17//17 18//18
f 18//18 21//21 389//389
f 17//17 19//19 18//18
f 18//18 22//22 21//21
f 18//18 19//19 22//22
f 19//19 20//20 22//22
f 22//22 358//358 21//21
f 356//356 20//20 23//23
f 20//20 24//24 23//23
f 141//141 24//24 20//20
f 358//358 65//65 21//21
f 25//25 46//46 11//11
f 25//25 47//47 46//46
f 93//93 29//29 30//30
f 50//50 29//29 93//93
f 95//95 50//50 93//93
f 26//26 32//32 359//359
f 25//25 371//371 49//49
f 371//371 53//53 49//49
f 31//31 34//34 25//25
f 27//27 376//376 28//28
f 361//361 25//25 34//34
f 26//26 359//359 362//362
f 28//28 360//360 27//27
f 29//29 38//38 30//30
f 26//26 36//36 32//32
f 372//372 54//54 392//392
f 372//372 37//37 54//54
f 370//370 374//374 35//35
f 28//28 376//376 35//35
f 376//376 370//370 35//35
f 363//363 36//36 26//26
f 32//32 36//36 379//379
f 366//366 377//377 383//383
f 375//375 383//383 377//377
f 377//377 366//366 364//364
f 365//365 367//367 378//378
f 367//367 39//39 378//378
f 39//39 380//380 378//378
f 55//55 54//54 37//37
f 384//384 29//29 50//50
f 384//384 50//50 396//396
f 381//381 385//385 397//397
f 41//41 63//63 388//388
f 62//62 386//386 40//40
f 43//43 387//387 42//42
f 386//386 389//389 40//40
f 389//389 64//64 40//40
f 389//389 21//21 64//64
f 65//65 10//10 44//44
f 45//45 101//101 44//44
f 10//10 45//45 44//44
f 102//102 101//101 45//45
f 47//47 98//98 46//46
f 25//25 49//49 47//47
f 48//48 47//47 49//49
f 48//48 49//49 52//52
f 48//48 391//391 100//100
f 52//52 393//393 394//394
f 49//49 393//393 52//52
f 100//100 391//391 51//51
f 50//50 408//408 390//390
f 398//398 51//51 395//395
f 391//391 395//395 51//51
f 396//396 50//50 390//390
f 56//56 59//59 58//58
f 57//57 56//56 58//58
f 60//60 58//58 59//59
f 61//61 60//60 59//59
f 56//56 313//313 59//59
f 59//59 313//313 61//61
f 58//58 62//62 399//399
f 58//58 60//60 62//62
f 313//313 63//63 61//61
f 60//60 63//63 62//62
f 61//61 63//63 60//60
f 386//386 62//62 63//63
f 40//40 64//64 68//68
f 21//21 65//65 64//64
f 64//64 66//66 69//69
f 64//64 65//65 66//66
f 44//44 66//66 65//65
f 66//66 44//44 67//67
f 400//400 101//101 198//198
f 44//44 101//101 67//67
f 70//70 104//104 56//56
f 57//57 70//70 56//56
f 68//68 62//62 40//40
f 62//62 68//68 75//75
f 64//64 72//72 68//68
f 401//401 71//71 106//106
f 71//71 401//401 399//399
f 71//71 399//399 74//74
f 75//75 68//68 72//72
f 77//77 72//72 73//73
f 72//72 69//69 73//73
f 72//72 64//64 69//69
f 105//105 70//70 409//409
f 71//71 74//74 108//108
f 75//75 74//74 399//399
f 74//74 75//75 76//76
f 62//62 75//75 399//399
f 77//77 402//402 72//72
f 410//410 403//403 77//77
f 108//108 74//74 76//76
f 403//403 402//402 77//77
f 71//71 108//108 106//106
f 80//80 79//79 78//78
f 80//80 78//78 82//82
f 78//78 121//121 82//82
f 79//79 404//404 81//81
f 125//125 80//80 82//82
f 125//125 82//82 128//128
f 82//82 121//121 83//83
f 126//126 82//82 83//83
f 128//128 82//82 126//126
f 124//124 127//127 83//83
f 126//126 83//83 127//127
f 167//167 133//133 6//6
f 6//6 133//133 84//84
f 84//84 133//133 85//85
f 85//85 176//176 86//86
f 87//87 12//12 86//86
f 86//86 176//176 87//87
f 176//176 135//135 87//87
f 88//88 94//94 87//87
f 88//88 87//87 135//135
f 91//91 94//94 88//88
f 135//135 136//136 88//88
f 88//88 136//136 91//91
f 87//87 368//368 12//12
f 94//94 30//30 405//405
f 265//265 19//19 17//17
f 141//141 20//20 19//19
f 89//89 94//94 91//91
f 92//92 89//89 91//91
f 93//93 89//89 92//92
f 97//97 142//142 408//408
f 90//90 93//93 92//92
f 92//92 91//91 136//136
f 92//92 420//420 90//90
f 90//90 420//420 407//407
f 93//93 30//30 94//94
f 93//93 94//94 89//89
f 50//50 95//95 96//96
f 95//95 93//93 90//90
f 96//96 95//95 90//90
f 50//50 406//406 408//408
f 407//407 96//96 90//90
f 406//406 97//97 408//408
f 103//103 102//102 45//45
f 45//45 46//46 103//103
f 103//103 46//46 98//98
f 98//98 47//47 149//149
f 47//47 48//48 149//149
f 149//149 48//48 152//152
f 48//48 100//100 152//152
f 99//99 425//425 408//408
f 99//99 142//142 153//153
f 142//142 99//99 408//408
f 426//426 425//425 99//99
f 102//102 198//198 101//101
f 102//102 103//103 200//200
f 200//200 103//103 201//201
f 104//104 196//196 56//56
f 70//70 105//105 104//104
f 409//409 107//107 105//105
f 109//109 410//410 77//77
f 109//109 77//77 158//158
f 107//107 110//110 112//112
f 107//107 409//409 110//110
f 410//410 109//109 114//114
f 158//158 114//114 109//109
f 108//108 415//415 106//106
f 112//112 113//113 107//107
f 107//107 414//414 159//159
f 119//119 413//413 411//411
f 119//119 411//411 120//120
f 120//120 411//411 106//106
f 115//115 111//111 116//116
f 111//111 112//112 116//116
f 115//115 159//159 412//412
f 412//412 159//159 414//414
f 111//111 113//113 112//112
f 106//106 415//415 120//120
f 79//79 81//81 115//115
f 79//79 116//116 78//78
f 116//116 79//79 115//115
f 164//164 115//115 81//81
f 116//116 121//121 78//78
f 116//116 122//122 121//121
f 116//116 117//117 122//122
f 117//117 118//118 122//122
f 119//119 117//117 116//116
f 117//117 119//119 118//118
f 119//119 120//120 118//118
f 116//116 413//413 119//119
f 120//120 123//123 118//118
f 417//417 162//162 418//418
f 416//416 162//162 417//417
f 431//431 114//114 161//161
f 122//122 83//83 121//121
f 83//83 122//122 124//124
f 122//122 118//118 123//123
f 122//122 123//123 124//124
f 120//120 124//124 123//123
f 81//81 404//404 164//164
f 164//164 404//404 125//125
f 130//130 124//124 165//165
f 124//124 130//130 127//127
f 126//126 129//129 128//128
f 127//127 129//129 126//126
f 129//129 127//127 130//130
f 132//132 129//129 130//130
f 128//128 131//131 125//125
f 128//128 129//129 131//131
f 131//131 129//129 132//132
f 239//239 131//131 132//132
f 130//130 240//240 132//132
f 125//125 131//131 453//453
f 240//240 130//130 165//165
f 173//173 174//174 133//133
f 133//133 174//174 176//176
f 176//176 85//85 133//133
f 166//166 167//167 2//2
f 134//134 176//176 139//139
f 134//134 135//135 176//176
f 135//135 134//134 137//137
f 136//136 135//135 137//137
f 136//136 137//137 143//143
f 134//134 139//139 419//419
f 421//421 419//419 138//138
f 138//138 146//146 421//421
f 419//419 139//139 138//138
f 138//138 140//140 146//146
f 138//138 184//184 140//140
f 17//17 388//388 265//265
f 388//388 179//179 265//265
f 19//19 265//265 141//141
f 265//265 267//267 141//141
f 267//267 269//269 141//141
f 141//141 2//2 24//24
f 144//144 92//92 136//136
f 144//144 420//420 92//92
f 420//420 144//144 145//145
f 143//143 144//144 136//136
f 422//422 421//421 146//146
f 147//147 423//423 422//422
f 181//181 146//146 140//140
f 422//422 146//146 181//181
f 183//183 422//422 181//181
f 299//299 388//388 63//63
f 102//102 199//199 198//198
f 200//200 199//199 102//102
f 148//148 98//98 150//150
f 98//98 149//149 150//150
f 150//150 149//149 152//152
f 154//154 150//150 152//152
f 154//154 156//156 150//150
f 151//151 150//150 156//156
f 150//150 151//151 194//194
f 153//153 142//142 424//424
f 154//154 152//152 155//155
f 428//428 425//425 426//426
f 147//147 427//427 423//423
f 147//147 157//157 427//427
f 426//426 429//429 428//428
f 430//430 429//429 426//426
f 154//154 155//155 156//156
f 157//157 147//147 193//193
f 429//429 430//430 439//439
f 147//147 186//186 193//193
f 429//429 439//439 440//440
f 151//151 156//156 194//194
f 196//196 313//313 56//56
f 197//197 400//400 198//198
f 148//148 201//201 103//103
f 103//103 98//98 148//148
f 332//332 69//69 66//66
f 321//321 66//66 400//400
f 73//73 69//69 332//332
f 205//205 105//105 107//107
f 210//210 158//158 211//211
f 107//107 159//159 160//160
f 114//114 158//158 161//161
f 158//158 210//210 161//161
f 431//431 161//161 163//163
f 230//230 161//161 218//218
f 159//159 115//115 219//219
f 115//115 164//164 219//219
f 164//164 224//224 219//219
f 431//431 163//163 124//124
f 234//234 432//432 229//229
f 231//231 164//164 125//125
f 231//231 232//232 164//164
f 224//224 164//164 232//232
f 124//124 163//163 165//165
f 163//163 452//452 165//165
f 239//239 132//132 240//240
f 166//166 2//2 242//242
f 2//2 255//255 242//242
f 166//166 169//169 168//168
f 166//166 168//168 167//167
f 168//168 170//170 167//167
f 170//170 168//168 169//169
f 169//169 171//171 170//170
f 169//169 245//245 171//171
f 172//172 167//167 170//170
f 170//170 171//171 172//172
f 245//245 248//248 171//171
f 171//171 248//248 172//172
f 173//173 167//167 172//172
f 172//172 248//248 173//173
f 248//248 250//250 173//173
f 173//173 133//133 167//167
f 173//173 175//175 174//174
f 174//174 175//175 260//260
f 173//173 250//250 433//433
f 250//250 251//251 433//433
f 260//260 176//176 174//174
f 175//175 261//261 260//260
f 433//433 251//251 458//458
f 2//2 141//141 180//180
f 255//255 180//180 253//253
f 2//2 180//180 255//255
f 176//176 260//260 139//139
f 139//139 177//177 138//138
f 138//138 177//177 184//184
f 177//177 178//178 184//184
f 139//139 260//260 177//177
f 178//178 187//187 184//184
f 434//434 177//177 260//260
f 299//299 179//179 388//388
f 269//269 270//270 141//141
f 141//141 274//274 180//180
f 181//181 184//184 185//185
f 181//181 140//140 184//184
f 181//181 185//185 183//183
f 182//182 422//422 183//183
f 147//147 422//422 182//182
f 182//182 435//435 147//147
f 185//185 187//187 183//183
f 182//182 183//183 435//435
f 187//187 435//435 183//183
f 187//187 188//188 435//435
f 185//185 184//184 187//187
f 187//187 283//283 188//188
f 436//436 189//189 193//193
f 178//178 291//291 287//287
f 178//178 287//287 187//187
f 287//287 468//468 187//187
f 283//283 437//437 188//188
f 190//190 195//195 189//189
f 190//190 290//290 195//195
f 299//299 63//63 315//315
f 200//200 191//191 199//199
f 201//201 308//308 191//191
f 308//308 201//201 192//192
f 192//192 201//201 148//148
f 148//148 194//194 192//192
f 309//309 438//438 441//441
f 251//251 438//438 309//309
f 148//148 150//150 194//194
f 441//441 312//312 309//309
f 310//310 504//504 442//442
f 186//186 436//436 193//193
f 195//195 193//193 189//189
f 439//439 195//195 501//501
f 195//195 290//290 501//501
f 440//440 439//439 501//501
f 311//311 310//310 481//481
f 321//321 400//400 197//197
f 197//197 198//198 324//324
f 198//198 326//326 324//324
f 198//198 327//327 326//326
f 191//191 200//200 201//201
f 66//66 202//202 332//332
f 66//66 321//321 202//202
f 104//104 205//205 196//196
f 205//205 206//206 196//196
f 73//73 203//203 204//204
f 443//443 331//331 444//444
f 331//331 443//443 332//332
f 73//73 332//332 203//203
f 105//105 205//205 104//104
f 207//207 77//77 204//204
f 77//77 73//73 204//204
f 205//205 209//209 206//206
f 450//450 446//446 445//445
f 211//211 207//207 210//210
f 211//211 77//77 207//207
f 160//160 449//449 107//107
f 107//107 449//449 205//205
f 208//208 206//206 209//209
f 158//158 77//77 211//211
f 449//449 160//160 213//213
f 212//212 209//209 213//213
f 209//209 212//212 208//208
f 448//448 451//451 218//218
f 448//448 218//218 445//445
f 160//160 216//216 213//213
f 216//216 212//212 213//213
f 451//451 223//223 218//218
f 445//445 218//218 450//450
f 214//214 215//215 160//160
f 160//160 159//159 214//214
f 221//221 215//215 214//214
f 221//221 214//214 220//220
f 160//160 215//215 216//216
f 216//216 215//215 217//217
f 217//217 215//215 223//223
f 216//216 217//217 212//212
f 451//451 217//217 223//223
f 161//161 230//230 432//432
f 210//210 218//218 161//161
f 214//214 219//219 220//220
f 225//225 220//220 219//219
f 224//224 225//225 219//219
f 214//214 159//159 219//219
f 223//223 222//222 218//218
f 233//233 227//227 222//222
f 215//215 222//222 223//223
f 233//233 222//222 215//215
f 221//221 233//233 215//215
f 218//218 228//228 230//230
f 224//224 336//336 225//225
f 220//220 226//226 221//221
f 225//225 336//336 220//220
f 220//220 336//336 226//226
f 226//226 233//233 221//221
f 336//336 233//233 226//226
f 222//222 228//228 218//218
f 222//222 227//227 228//228
f 228//228 227//227 229//229
f 227//227 452//452 229//229
f 229//229 432//432 230//230
f 229//229 230//230 228//228
f 235//235 231//231 125//125
f 232//232 231//231 334//334
f 232//232 334//334 333//333
f 232//232 333//333 224//224
f 231//231 235//235 334//334
f 224//224 333//333 336//336
f 452//452 227//227 233//233
f 236//236 238//238 241//241
f 236//236 241//241 233//233
f 233//233 241//241 452//452
f 237//237 238//238 337//337
f 340//340 238//238 236//236
f 165//165 452//452 240//240
f 340//340 236//236 233//233
f 240//240 452//452 241//241
f 239//239 240//240 241//241
f 453//453 235//235 125//125
f 454//454 237//237 235//235
f 454//454 241//241 237//237
f 238//238 237//237 241//241
f 255//255 256//256 242//242
f 256//256 243//243 242//242
f 242//242 244//244 166//166
f 244//244 242//242 243//243
f 169//169 166//166 244//244
f 246//246 169//169 456//456
f 246//246 456//456 455//455
f 258//258 246//246 455//455
f 245//245 169//169 246//246
f 258//258 247//247 246//246
f 246//246 247//247 245//245
f 247//247 258//258 282//282
f 245//245 247//247 249//249
f 249//249 248//248 245//245
f 249//249 282//282 259//259
f 248//248 249//249 250//250
f 249//249 259//259 250//250
f 251//251 250//250 259//259
f 180//180 252//252 253//253
f 274//274 252//252 180//180
f 252//252 254//254 253//253
f 274//274 275//275 252//252
f 275//275 279//279 252//252
f 252//252 279//279 254//254
f 254//254 279//279 257//257
f 253//253 256//256 255//255
f 253//253 254//254 256//256
f 257//257 457//457 254//254
f 457//457 257//257 455//455
f 455//455 257//257 258//258
f 257//257 281//281 258//258
f 281//281 282//282 258//258
f 247//247 282//282 249//249
f 308//308 251//251 259//259
f 458//458 251//251 264//264
f 251//251 309//309 264//264
f 262//262 434//434 260//260
f 178//178 459//459 291//291
f 263//263 482//482 460//460
f 261//261 461//461 260//260
f 260//260 462//462 262//262
f 463//463 458//458 264//264
f 465//465 483//483 464//464
f 179//179 266//266 265//265
f 268//268 466//466 302//302
f 267//267 265//265 266//266
f 266//266 268//268 267//267
f 267//267 272//272 269//269
f 268//268 467//467 267//267
f 270//270 269//269 272//272
f 272//272 271//271 270//270
f 271//271 467//467 268//268
f 271//271 268//268 273//273
f 268//268 303//303 278//278
f 141//141 270//270 274//274
f 274//274 270//270 275//275
f 275//275 270//270 271//271
f 275//275 276//276 279//279
f 276//276 275//275 271//271
f 273//273 276//276 271//271
f 277//277 276//276 273//273
f 279//279 276//276 277//277
f 273//273 278//278 277//277
f 277//277 278//278 280//280
f 273//273 268//268 278//278
f 257//257 279//279 280//280
f 280//280 279//279 277//277
f 280//280 303//303 257//257
f 280//280 278//278 303//303
f 281//281 303//303 282//282
f 257//257 303//303 281//281
f 282//282 305//305 306//306
f 282//282 307//307 259//259
f 259//259 307//307 308//308
f 477//477 284//284 469//469
f 470//470 437//437 283//283
f 264//264 285//285 294//294
f 286//286 471//471 489//489
f 474//474 294//294 285//285
f 309//309 295//295 285//285
f 285//285 295//295 475//475
f 472//472 476//476 492//492
f 309//309 285//285 264//264
f 478//478 484//484 490//490
f 473//473 479//479 491//491
f 292//292 437//437 470//470
f 292//292 296//296 288//288
f 493//493 293//293 480//480
f 288//288 437//437 292//292
f 190//190 437//437 288//288
f 190//190 288//288 289//289
f 288//288 486//486 289//289
f 289//289 290//290 190//190
f 290//290 289//289 486//486
f 311//311 481//481 487//487
f 472//472 492//492 292//292
f 492//492 296//296 292//292
f 493//493 297//297 293//293
f 496//496 502//502 488//488
f 294//294 485//485 264//264
f 494//494 295//295 298//298
f 309//309 298//298 295//295
f 495//495 498//498 497//497
f 497//497 498//498 503//503
f 315//315 300//300 299//299
f 499//499 317//317 301//301
f 300//300 179//179 299//299
f 300//300 266//266 179//179
f 499//499 301//301 466//466
f 301//301 302//302 466//466
f 268//268 302//302 303//303
f 303//303 304//304 282//282
f 304//304 325//325 305//305
f 282//282 304//304 305//305
f 305//305 325//325 327//327
f 305//305 327//327 306//306
f 327//327 199//199 306//306
f 282//282 306//306 307//307
f 307//307 306//306 191//191
f 306//306 199//199 191//191
f 307//307 191//191 308//308
f 251//251 308//308 438//438
f 498//498 500//500 505//505
f 311//311 504//504 310//310
f 503//503 498//498 505//505
f 196//196 328//328 314//314
f 317//317 314//314 328//328
f 196//196 506//506 313//313
f 63//63 313//313 315//315
f 506//506 315//315 313//313
f 315//315 316//316 300//300
f 506//506 316//316 315//315
f 507//507 317//317 499//499
f 314//314 317//317 507//507
f 329//329 330//330 301//301
f 317//317 329//329 301//301
f 302//302 331//331 319//319
f 331//331 318//318 319//319
f 302//302 319//319 322//322
f 319//319 320//320 322//322
f 319//319 318//318 320//320
f 320//320 318//318 508//508
f 322//322 320//320 323//323
f 320//320 508//508 323//323
f 302//302 322//322 303//303
f 303//303 322//322 323//323
f 323//323 508//508 324//324
f 324//324 508//508 197//197
f 304//304 303//303 323//323
f 325//325 323//323 324//324
f 304//304 323//323 325//325
f 326//326 325//325 324//324
f 327//327 325//325 326//326
f 199//199 327//327 198//198
f 329//329 509//509 330//330
f 317//317 509//509 329//329
f 330//330 302//302 301//301
f 318//318 331//331 332//332
f 202//202 318//318 332//332
f 318//318 202//202 508//508
f 196//196 206//206 328//328
f 445//445 330//330 509//509
f 302//302 330//330 331//331
f 510//510 444//444 331//331
f 447//447 444//444 510//510
f 445//445 446//446 330//330
f 333//333 334//334 335//335
f 333//333 335//335 336//336
f 336//336 335//335 233//233
f 334//334 235//235 339//339
f 335//335 339//339 338//338
f 334//334 339//339 335//335
f 338//338 233//233 335//335
f 339//339 235//235 337//337
f 339//339 337//337 340//340
f 337//337 235//235 237//237
f 340//340 337//337 238//238
f 233//233 338//338 340//340
f 338//338 339//339 340//340
