# Wavafront OBJ file of BodyParts3D
# BodyParts3D, Copyright(C) 2010-2011 The Database Center for Life Science licensed under CC Attribution-Share Alike 2.1 Japan.
vn -0.610746 -0.791296 0.0289744
v 14.686 -103.991 912.304
vn -0.57146 -0.756559 -0.317886
v 15.4472 -104.518 911.604
vn -0.933086 0.295552 -0.204938
v 13.5604 -100.491 911.604
vn -0.738332 -0.469927 -0.483771
v 14.3808 -103.291 911.604
vn -0.541699 -0.000543059 0.840572
v 14.0472 -100.491 912.115
vn -0.858186 0.503046 0.102285
v 14.686 -96.9906 912.304
vn -0.885799 0.432115 -0.169225
v 14.7472 -96.744 911.604
vn -0.325981 0.153979 0.932752
v 17.5042 -94.1906 913.004
vn -0.33094 -0.853825 0.401822
v 18.7388 -106.091 913.704
vn -0.082633 -0.947473 -0.308978
v 18.9472 -106.501 913.004
vn 0.32773 -0.942542 -0.0648585
v 21.8847 -106.091 913.704
vn -0.126466 -0.871817 0.473225
v 21.7472 -106.091 914.508
vn -0.287626 -0.0917837 0.953335
v 21.7472 -105.391 914.803
vn 0.466234 -0.863621 0.191793
v 23.2274 -105.391 914.404
vn 0.363133 -0.832332 0.418757
v 23.1472 -105.073 915.104
vn -0.910365 0.0522179 -0.410498
v 20.6042 -97.6906 899.004
vn -0.301519 0.400975 0.865046
v 20.3472 -93.5629 913.704
vn 0.251451 0.835532 0.488528
v 22.8767 -94.1906 914.404
vn -0.342667 0.138467 0.929197
v 23.1472 -94.8906 915.295
vn 0.657 -0.702904 0.272537
v 23.8472 -104.816 915.104
vn -0.569376 -0.670732 -0.475321
v 23.8472 -99.0906 895.814
vn -0.189816 -0.909213 -0.370543
v 25.2472 -100.463 896.904
vn 0.574671 -0.818364 -0.00584181
v 26.6472 -103.176 907.404
vn 0.859892 -0.285896 0.422906
v 25.8542 -101.891 915.104
vn -0.125573 -0.175973 0.976353
v 25.2472 -101.891 916.006
vn -0.853555 -0.471926 -0.220747
v 28.9604 -92.7906 875.904
vn -0.824108 -0.425515 -0.373875
v 26.8167 -93.4906 883.604
vn -0.493507 -0.810631 -0.315163
v 28.8541 -96.2906 884.304
vn 0.543142 0.564701 0.621377
v 24.5472 -95.5906 915.055
vn -0.326721 -0.00184921 0.945119
v 24.5472 -96.9906 915.787
vn 0.751974 0.202736 0.627243
v 25.9472 -97.6906 915.112
vn -0.9755 -0.0304525 -0.217882
v 28.5229 -90.6906 875.204
vn -0.939786 -0.107837 -0.324304
v 25.0448 -91.3906 887.804
vn -0.141396 0.968744 0.203821
v 28.0472 -87.2727 894.104
vn 0.123774 0.927835 0.351857
v 28.0472 -89.2523 901.104
vn -0.883853 -0.427253 0.190417
v 33.9261 -150.891 826.904
vn -0.934782 -0.10582 -0.339093
v 33.6472 -148.791 826.428
vn -0.988231 -0.139807 -0.0620748
v 33.062 -147.391 827.604
vn -0.950913 0.125162 -0.283019
v 33.3245 -145.291 826.904
vn -0.778028 -0.430801 0.457255
v 34.3636 -145.991 833.904
vn -0.564027 0.409407 -0.717119
v 34.3525 -140.391 829.004
vn -0.99895 -0.0347644 0.0298413
v 32.8104 -139.691 834.604
vn -0.772287 -0.299802 0.560081
v 34.1776 -137.591 839.504
vn -0.974534 -0.100172 0.200622
v 32.6901 -129.891 840.204
vn -0.81952 0.205983 -0.534751
v 32.9745 -127.091 837.404
vn -0.922407 -0.155922 0.353346
v 32.2745 -108.891 847.204
vn -0.665 -0.339163 0.66539
v 34.3472 -104.404 852.104
vn -0.961898 0.0721289 -0.263721
v 32.012 -103.291 845.804
vn -0.824342 0.229196 -0.517619
v 32.6901 -99.0906 845.804
vn -0.536458 0.383114 -0.751955
v 34.3472 -98.2606 844.404
vn -0.797745 -0.315024 0.514162
v 32.0011 -101.891 850.004
vn -0.99741 -3.69439e-006 -0.0719234
v 31.6948 -99.0906 848.604
vn 0.323222 -0.931433 -0.167213
v 30.1472 -99.9492 895.504
vn 0.782511 -0.605492 0.145109
v 29.737 -100.491 905.304
vn -0.66278 0.442961 -0.603745
v 33.6472 -94.8906 847.122
vn -0.893628 -0.357519 0.271309
v 31.662 -97.6906 852.804
vn -0.895503 0.303398 -0.325614
v 32.1432 -94.1906 850.004
vn -0.556606 0.6164 -0.556993
v 34.3472 -92.4124 848.604
vn -0.974755 -0.223223 -0.00497444
v 31.137 -94.1906 856.304
vn -0.627423 -0.748926 0.213191
v 32.8749 -96.2906 860.504
vn -0.773695 -0.632133 -0.0424653
v 31.2464 -94.1906 868.204
vn -0.36399 -0.928695 0.070963
v 33.6472 -95.9024 866.804
vn -0.640604 -0.757352 -0.126662
v 30.4638 -94.1906 873.804
vn -0.615068 -0.750968 -0.240289
v 30.1472 -95.2133 878.704
vn -0.225614 -0.968789 -0.102693
v 32.9472 -95.968 875.904
vn 0.220788 -0.967051 -0.126745
v 33.6472 -97.3461 886.404
vn 0.932156 -0.059848 0.357076
v 34.0026 -94.1906 899.004
vn -0.776457 0.562655 -0.283785
v 31.8808 -88.5906 858.404
vn -0.454381 0.789396 -0.412786
v 34.3472 -87.9617 854.904
vn -0.989578 -0.00475504 -0.143916
v 29.912 -90.6906 866.804
vn 0.386741 0.83386 0.393839
v 32.2472 -87.7648 894.804
vn 0.780057 0.450357 0.434384
v 33.6472 -91.3906 898.332
vn -0.537897 0.830076 -0.147106
v 31.5873 -86.4906 865.404
vn -0.161886 0.986496 -0.0248701
v 33.6472 -84.1008 875.204
vn -0.543658 0.838671 -0.0326579
v 30.1472 -85.3695 882.904
vn 0.183629 0.968269 0.169516
v 34.3472 -84.6258 882.204
vn -0.608029 -0.635601 -0.475723
v 35.0472 -151.591 826.406
vn -0.602979 -0.642986 0.472213
v 35.0472 -150.558 829.704
vn -0.427361 -0.76088 0.488286
v 36.4472 -153.302 826.904
vn -0.0622917 -0.995001 0.0780586
v 38.5472 -153.379 827.604
vn -0.0364686 -0.323356 -0.945574
v 38.5472 -152.991 826.406
vn 0.140481 -0.69929 -0.700899
v 39.9472 -153.521 826.904
vn 0.282436 -0.570712 -0.77105
v 39.9472 -152.991 826.406
vn -0.253019 -0.72329 0.642521
v 37.1472 -149.638 832.504
vn 0.281258 -0.747505 0.601772
v 39.9472 -150.721 831.104
vn 0.126877 -0.632384 0.764194
v 39.2472 -146.691 835.484
vn -0.389915 -0.531732 0.751816
v 35.7472 -143.191 837.475
vn -0.111685 0.288074 -0.951073
v 37.1472 -141.091 826.406
vn 0.0100893 -0.498886 0.866609
v 38.5472 -140.391 839.958
vn 0.291715 0.442424 -0.848035
v 39.9472 -134.791 830.901
vn -0.288442 0.43504 -0.85296
v 36.4472 -133.391 831.591
vn -0.318838 -0.375605 0.870209
v 35.7472 -134.791 842.145
vn 0.312399 -0.357262 0.880211
v 39.9472 -135.491 842.102
vn 0.30182 0.311678 -0.900978
v 39.9472 -126.391 834.5
vn -0.266539 0.30292 -0.914984
v 36.4472 -122.191 835.725
vn -0.513436 0.273549 -0.81336
v 35.0472 -106.791 840.658
vn -0.0660136 0.324666 -0.943522
v 37.1472 -106.143 840.204
vn 0.376136 0.353049 -0.856667
v 39.9472 -104.691 841.161
vn -0.738726 -0.531302 0.414731
v 35.0472 -100.212 855.604
vn 0.0800835 -0.46136 0.883592
v 38.5472 -103.291 853.684
vn 0.366114 -0.657407 0.658617
v 39.9472 -99.9248 855.604
vn 0.0397726 -0.915018 0.401448
v 37.1472 -98.068 859.804
vn -0.39551 0.541648 -0.741747
v 35.0472 -94.8906 846.039
vn -0.129455 0.470621 -0.872787
v 36.4472 -96.9906 844.169
vn -0.153074 0.663028 -0.732777
v 36.4472 -92.7906 847.253
vn 0.253155 0.561364 -0.787898
v 38.5472 -94.1906 846.137
vn 0.508302 0.609634 -0.608257
v 39.9472 -92.98 847.904
vn 0.288156 -0.934848 0.207425
v 38.5472 -96.4164 864.004
vn 0.443262 -0.894138 0.0635307
v 37.8472 -95.2898 874.504
vn 0.769639 -0.628184 0.114196
v 39.2411 -94.1906 874.504
vn 0.648233 -0.760334 0.0410513
v 37.1472 -95.274 882.204
vn -0.220545 0.787546 -0.575439
v 35.7472 -89.8977 850.704
vn 0.160738 0.763881 -0.625019
v 37.8472 -91.407 848.604
vn 0.087224 0.896973 -0.433396
v 37.1472 -87.6664 854.204
vn 0.461649 0.86007 -0.217163
v 39.9472 -87.0758 858.404
vn 0.923979 -0.335661 0.183288
v 39.4495 -92.0906 880.804
vn 0.936011 0.239318 0.258091
v 39.4495 -89.2906 881.504
vn -0.239156 0.932686 -0.270001
v 35.0472 -85.807 859.804
vn -0.00303784 0.990461 -0.137757
v 36.4472 -84.6367 864.704
vn 0.403489 0.914968 0.00549842
v 37.8472 -84.6258 871.704
vn 0.73891 0.658697 0.141879
v 39.2526 -85.7906 873.804
vn 0.656608 0.694978 0.293038
v 36.4472 -86.4906 885.631
vn 0.641704 -0.630362 0.436874
v 42.0472 -151.73 827.604
vn 0.415563 -0.492851 -0.764464
v 42.5229 -151.591 826.904
vn 0.149229 0 -0.988803
v 42.7472 -150.191 826.406
vn 0.922723 -0.369781 0.108828
v 43.0807 -150.191 827.604
vn 0.439683 0.0652937 -0.895777
v 42.7472 -144.591 826.406
vn 0.871287 0.201485 -0.447508
v 42.9604 -143.891 826.904
vn 0.961189 -0.0271482 -0.274553
v 43.7698 -147.391 826.904
vn 0.566864 -0.549829 0.613476
v 41.3472 -146.691 834.354
vn 0.852617 -0.362491 0.376358
v 42.7417 -146.691 832.504
vn 0.983403 -0.0913654 0.156751
v 43.5729 -139.691 835.304
vn 0.475016 -0.448082 0.757352
v 40.6472 -140.391 839.312
vn 0.785331 -0.327582 0.525304
v 42.6104 -140.391 837.404
vn 0.824769 0.242831 -0.510676
v 42.8729 -134.091 833.904
vn 0.769645 -0.247608 0.588505
v 42.5667 -133.391 840.904
vn 0.935467 -0.111344 0.335416
v 43.2448 -129.891 840.904
vn 0.645207 -0.337346 0.685497
v 41.3472 -103.349 852.104
vn 0.917573 -0.17677 0.356106
v 42.6542 -103.991 850.004
vn 0.715608 0.359157 -0.599092
v 42.0472 -98.4606 845.804
vn 0.988287 0.0910026 -0.122504
v 43.037 -99.7906 847.204
vn 0.968221 -0.144433 0.204174
v 42.9386 -98.3906 852.104
vn 0.760078 -0.414886 0.50015
v 41.3964 -99.0906 854.904
vn 0.826524 0.43782 -0.353796
v 41.9651 -92.7906 850.704
vn 0.60442 -0.683786 0.408795
v 40.6472 -97.6906 857.695
vn 0.918144 -0.304409 0.253665
v 42.6651 -96.2906 854.904
vn 0.986439 0.162352 -0.0240888
v 42.8948 -93.4906 854.204
vn 0.771997 -0.598559 0.213886
v 41.2542 -94.1906 864.004
vn 0.525267 0.73448 -0.429689
v 40.6472 -89.9906 852.529
vn 0.826514 0.52918 -0.191946
v 41.6808 -89.9906 854.904
vn 0.825564 0.563996 -0.0187701
v 41.0354 -87.1906 864.704
vn 0.99091 -0.00869731 0.134245
v 41.8667 -89.9906 867.504
vn -0.476384 -0.0443173 0.87812
v 14.686 -103.991 912.304
vn -0.950732 -0.278535 0.136113
v 14.686 -103.991 912.304
vn -0.723886 0 0.68992
v 13.5604 -100.491 911.604
vn -0.950732 -0.278535 0.136113
v 13.5604 -100.491 911.604
vn -0.823283 -0.241196 -0.513838
v 13.5604 -100.491 911.604
vn -0.950732 -0.278535 0.136113
v 14.3808 -103.291 911.604
vn -0.456051 0.0510616 0.888487
v 14.686 -96.9906 912.304
vn -0.540607 0.835564 0.097865
v 17.5042 -94.1906 913.004
vn -0.29356 -0.204723 0.933762
v 18.7388 -106.091 913.704
vn -0.399709 -0.866806 0.298128
v 18.9472 -106.501 913.004
vn -0.174541 -0.382708 0.907232
v 21.7472 -106.091 914.508
vn 0.334587 -0.925936 0.175198
v 21.7472 -106.091 914.508
vn -0.0519289 -0.302704 0.951669
v 23.1472 -105.073 915.104
vn -0.751854 -0.42403 -0.504891
v 20.6042 -97.6906 899.004
vn -0.0524274 0.924676 0.377128
v 20.3472 -93.5629 913.704
vn 0.335372 0.712862 0.615917
v 23.1472 -94.8906 915.295
vn 0.127617 -0.347559 0.928933
v 23.8472 -104.816 915.104
vn 0.71878 -0.144482 0.680059
v 25.2472 -101.891 916.006
vn 0.468471 0.313667 0.825923
v 24.5472 -96.9906 915.787
vn -0.816859 0.549558 -0.175296
v 25.0448 -91.3906 887.804
vn -0.608029 -0.635601 -0.475723
v 33.9261 -150.891 826.904
vn -0.520452 -0.253988 -0.815242
v 33.9261 -150.891 826.904
vn -0.520452 -0.253988 -0.815242
v 33.6472 -148.791 826.428
vn -0.0825666 0.0394924 -0.995803
v 33.6472 -148.791 826.428
vn -0.414893 0.274852 -0.867364
v 33.3245 -145.291 826.904
vn -0.93914 0.194797 -0.282967
v 34.3525 -140.391 829.004
vn -0.995214 -0.083308 0.0510869
v 32.0011 -101.891 850.004
vn -0.950489 0.249442 -0.185335
v 31.5873 -86.4906 865.404
vn -0.520452 -0.253988 -0.815242
v 35.0472 -151.591 826.406
vn -0.0783721 -0.195931 -0.977481
v 35.0472 -151.591 826.406
vn -0.608029 -0.635601 -0.475723
v 36.4472 -153.302 826.904
vn -0.104286 -0.583331 -0.805512
v 36.4472 -153.302 826.904
vn -0.0622917 -0.995001 0.0780586
v 36.4472 -153.302 826.904
vn -0.00990668 -0.817303 0.576123
v 38.5472 -153.379 827.604
vn -0.0622917 -0.995001 0.0780586
v 39.9472 -153.521 826.904
vn 0.421767 -0.795061 0.43588
v 39.9472 -153.521 826.904
vn 0 0 -1
v 39.9472 -152.991 826.406
vn -0.0989908 -0.865399 0.491207
v 35.0472 -100.212 855.604
vn -0.0480803 -0.567219 0.822162
v 35.0472 -100.212 855.604
vn 0.680329 -0.652965 0.332851
v 42.5229 -151.591 826.904
vn 0.93464 -0.242223 -0.260337
v 42.5229 -151.591 826.904
vn 0.363146 -0.363146 -0.85805
v 42.7472 -150.191 826.406
vn 0.928438 -0.266692 -0.258609
v 42.7472 -150.191 826.406
vn 0.305154 0.488247 -0.817616
v 42.7472 -144.591 826.406
vn 0.394132 0.483351 -0.781685
v 42.9604 -143.891 826.904
f 10//10 2//2 21//21
f 2//2 1//1 4//4
f 2//2 162//162 1//1
f 9//9 1//1 162//162
f 7//7 16//16 3//3
f 2//2 4//4 21//21
f 153//153 5//5 155//155
f 158//158 154//154 156//156
f 3//3 6//6 7//7
f 153//153 13//13 5//5
f 159//159 155//155 5//5
f 13//13 159//159 5//5
f 13//13 8//8 159//159
f 6//6 160//160 7//7
f 8//8 13//13 19//19
f 22//22 53//53 10//10
f 161//161 13//13 153//153
f 162//162 12//12 9//9
f 163//163 13//13 161//161
f 164//164 10//10 11//11
f 14//14 164//164 11//11
f 14//14 15//15 164//164
f 163//163 165//165 13//13
f 53//53 11//11 10//10
f 25//25 13//13 165//165
f 14//14 11//11 23//23
f 14//14 20//20 15//15
f 169//169 25//25 165//165
f 4//4 157//157 166//166
f 21//21 4//4 166//166
f 7//7 33//33 16//16
f 172//172 7//7 75//75
f 75//75 7//7 160//160
f 8//8 19//19 17//17
f 167//167 168//168 18//18
f 30//30 19//19 13//13
f 29//29 168//168 171//171
f 75//75 73//73 172//172
f 35//35 167//167 18//18
f 53//53 23//23 11//11
f 20//20 14//14 23//23
f 28//28 66//66 22//22
f 22//22 10//10 21//21
f 21//21 28//28 22//22
f 23//23 54//54 20//20
f 20//20 54//54 24//24
f 67//67 24//24 54//54
f 30//30 13//13 25//25
f 20//20 24//24 170//170
f 24//24 31//31 170//170
f 61//61 26//26 70//70
f 33//33 26//26 27//27
f 33//33 27//27 16//16
f 21//21 27//27 28//28
f 27//27 26//26 28//28
f 65//65 66//66 28//28
f 21//21 166//166 27//27
f 168//168 71//71 18//18
f 168//168 29//29 71//71
f 170//170 31//31 171//171
f 29//29 171//171 31//31
f 180//180 68//68 70//70
f 32//32 33//33 180//180
f 70//70 26//26 32//32
f 33//33 32//32 26//26
f 32//32 180//180 70//70
f 34//34 160//160 167//167
f 75//75 160//160 34//34
f 34//34 167//167 35//35
f 18//18 71//71 35//35
f 37//37 36//36 38//38
f 39//39 37//37 38//38
f 36//36 79//79 78//78
f 78//78 40//40 36//36
f 183//183 173//173 77//77
f 181//181 174//174 175//175
f 38//38 42//42 39//39
f 88//88 176//176 177//177
f 36//36 40//40 38//38
f 88//88 177//177 41//41
f 42//42 178//178 39//39
f 42//42 45//45 178//178
f 88//88 41//41 45//45
f 38//38 40//40 42//42
f 42//42 43//43 44//44
f 40//40 43//43 42//42
f 40//40 87//87 43//43
f 91//91 88//88 45//45
f 95//95 91//91 45//45
f 44//44 45//45 42//42
f 43//43 47//47 44//44
f 47//47 43//43 92//92
f 44//44 47//47 46//46
f 49//49 96//96 45//45
f 44//44 46//46 52//52
f 44//44 52//52 48//48
f 44//44 48//48 45//45
f 45//45 48//48 49//49
f 47//47 51//51 46//46
f 46//46 179//179 52//52
f 52//52 49//49 48//48
f 49//49 52//52 57//57
f 49//49 50//50 96//96
f 50//50 104//104 96//96
f 179//179 56//56 52//52
f 47//47 56//56 51//51
f 56//56 47//47 99//99
f 22//22 66//66 53//53
f 23//23 53//53 54//54
f 55//55 49//49 57//57
f 49//49 55//55 50//50
f 104//104 50//50 103//103
f 50//50 55//55 103//103
f 55//55 58//58 103//103
f 56//56 59//59 52//52
f 58//58 55//55 57//57
f 56//56 60//60 59//59
f 52//52 59//59 57//57
f 60//60 56//56 99//99
f 61//61 59//59 60//60
f 102//102 62//62 60//60
f 102//102 60//60 190//190
f 61//61 70//70 59//59
f 62//62 61//61 60//60
f 61//61 62//62 63//63
f 65//65 63//63 62//62
f 26//26 61//61 63//63
f 63//63 65//65 64//64
f 26//26 64//64 28//28
f 65//65 28//28 64//64
f 64//64 26//26 63//63
f 54//54 53//53 111//111
f 72//72 31//31 67//67
f 29//29 31//31 72//72
f 24//24 67//67 31//31
f 112//112 58//58 69//69
f 68//68 58//58 57//57
f 68//68 69//69 58//58
f 69//69 68//68 118//118
f 73//73 118//118 68//68
f 68//68 57//57 70//70
f 59//59 70//70 57//57
f 34//34 71//71 76//76
f 35//35 71//71 34//34
f 29//29 72//72 71//71
f 73//73 119//119 118//118
f 74//74 73//73 75//75
f 74//74 75//75 76//76
f 34//34 76//76 75//75
f 184//184 182//182 81//81
f 81//81 182//182 176//176
f 88//88 81//81 176//176
f 82//82 184//184 81//81
f 80//80 185//185 187//187
f 84//84 79//79 186//186
f 83//83 82//82 81//81
f 186//186 188//188 85//85
f 84//84 186//186 85//85
f 189//189 81//81 88//88
f 188//188 123//123 85//85
f 78//78 84//84 40//40
f 78//78 79//79 84//84
f 87//87 40//40 84//84
f 87//87 84//84 86//86
f 86//86 84//84 85//85
f 86//86 85//85 130//130
f 92//92 87//87 89//89
f 89//89 87//87 86//86
f 43//43 87//87 92//92
f 92//92 89//89 93//93
f 86//86 133//133 89//89
f 90//90 88//88 91//91
f 94//94 135//135 90//90
f 89//89 133//133 93//93
f 92//92 93//93 100//100
f 133//133 136//136 93//93
f 93//93 136//136 138//138
f 90//90 91//91 95//95
f 95//95 94//94 90//90
f 47//47 92//92 100//100
f 138//138 100//100 93//93
f 95//95 45//45 96//96
f 95//95 96//96 97//97
f 97//97 96//96 104//104
f 94//94 95//95 97//97
f 94//94 97//97 98//98
f 94//94 98//98 135//135
f 98//98 97//97 104//104
f 100//100 191//191 47//47
f 101//101 102//102 190//190
f 191//191 100//100 101//101
f 138//138 101//101 100//100
f 104//104 103//103 105//105
f 103//103 58//58 105//105
f 106//106 104//104 105//105
f 105//105 113//113 106//106
f 98//98 104//104 106//106
f 140//140 98//98 106//106
f 106//106 107//107 140//140
f 113//113 107//107 106//106
f 144//144 140//140 107//107
f 101//101 145//145 102//102
f 108//108 102//102 145//145
f 145//145 148//148 108//108
f 108//108 62//62 102//102
f 108//108 65//65 62//62
f 109//109 108//108 148//148
f 109//109 66//66 65//65
f 65//65 108//108 109//109
f 66//66 109//109 110//110
f 110//110 109//109 148//148
f 152//152 116//116 110//110
f 152//152 110//110 148//148
f 111//111 66//66 110//110
f 116//116 111//111 110//110
f 66//66 111//111 53//53
f 54//54 111//111 116//116
f 54//54 116//116 67//67
f 58//58 112//112 105//105
f 105//105 112//112 113//113
f 149//149 107//107 113//113
f 144//144 107//107 149//149
f 114//114 113//113 112//112
f 112//112 69//69 114//114
f 114//114 115//115 149//149
f 113//113 114//114 149//149
f 150//150 149//149 115//115
f 151//151 150//150 115//115
f 115//115 120//120 151//151
f 117//117 152//152 121//121
f 116//116 152//152 117//117
f 121//121 122//122 117//117
f 122//122 72//72 117//117
f 71//71 72//72 122//122
f 116//116 117//117 67//67
f 72//72 67//67 117//117
f 115//115 114//114 118//118
f 114//114 69//69 118//118
f 118//118 119//119 115//115
f 119//119 73//73 74//74
f 120//120 115//115 119//119
f 120//120 74//74 76//76
f 119//119 74//74 120//120
f 120//120 76//76 121//121
f 121//121 76//76 122//122
f 76//76 71//71 122//122
f 189//189 88//88 125//125
f 82//82 83//83 124//124
f 123//123 188//188 192//192
f 124//124 83//83 194//194
f 192//192 126//126 123//123
f 126//126 193//193 195//195
f 131//131 123//123 126//126
f 125//125 88//88 127//127
f 128//128 129//129 127//127
f 129//129 126//126 195//195
f 126//126 129//129 131//131
f 127//127 129//129 125//125
f 131//131 129//129 132//132
f 123//123 130//130 85//85
f 131//131 130//130 123//123
f 130//130 131//131 134//134
f 134//134 131//131 132//132
f 133//133 130//130 134//134
f 130//130 133//133 86//86
f 88//88 197//197 196//196
f 197//197 88//88 90//90
f 197//197 90//90 135//135
f 129//129 128//128 135//135
f 132//132 129//129 135//135
f 132//132 136//136 134//134
f 132//132 137//137 136//136
f 133//133 134//134 136//136
f 138//138 136//136 137//137
f 137//137 141//141 139//139
f 137//137 132//132 141//141
f 137//137 139//139 138//138
f 132//132 135//135 141//141
f 140//140 141//141 135//135
f 98//98 140//140 135//135
f 141//141 140//140 144//144
f 144//144 147//147 141//141
f 143//143 138//138 139//139
f 139//139 142//142 143//143
f 142//142 146//146 143//143
f 139//139 141//141 142//142
f 142//142 141//141 147//147
f 146//146 142//142 147//147
f 138//138 143//143 101//101
f 143//143 145//145 101//101
f 145//145 143//143 146//146
f 148//148 145//145 146//146
f 146//146 152//152 148//148
f 152//152 146//146 147//147
f 144//144 149//149 150//150
f 144//144 150//150 147//147
f 147//147 150//150 151//151
f 151//151 152//152 147//147
f 121//121 151//151 120//120
f 152//152 151//151 121//121
