# Wavafront OBJ file of BodyParts3D
# BodyParts3D, Copyright(C) 2010-2011 The Database Center for Life Science licensed under CC Attribution-Share Alike 2.1 Japan.
vn -0.854324 -0.519735 0.00223054
v -30.0931 -102.545 915.489
vn -0.982018 -0.187995 -0.0172594
v -30.4922 -101.565 915.281
vn -0.914005 -0.346622 0.210828
v -30.3451 -101.849 915.906
vn -0.885169 -0.27216 0.377366
v -30.1287 -101.678 916.727
vn -0.776865 -0.61241 0.146409
v -29.7744 -102.854 916.046
vn -0.963504 -0.106952 0.245402
v -30.4262 -101.179 916.255
vn -0.898259 -0.0527353 0.436292
v -30.1085 -100.83 917.129
vn -0.725833 -0.100035 0.680558
v -29.72 -101.15 917.658
vn -0.934123 0.188422 0.303169
v -30.363 -99.6114 916.179
vn -0.826867 0.138526 0.54507
v -29.9481 -100.197 917.381
vn -0.581396 0.113754 0.805629
v -29.2682 -99.9028 918.111
vn -0.637121 0.4504 0.625473
v -29.2549 -98.9855 917.738
vn -0.0888114 -0.730183 0.677455
v -29.1293 -101.545 917.275
vn -0.265674 0.431075 0.862318
v -27.6055 -99.099 918.765
vn -0.811833 -0.489113 -0.318899
v -29.876 -102.461 913.839
vn -0.675838 -0.706822 -0.208915
v -29.1985 -103.39 913.981
vn -0.543387 -0.658809 -0.52029
v -28.7639 -103.235 913.104
vn -0.503672 -0.775979 -0.379698
v -28.6171 -103.693 913.646
vn -0.482717 -0.84834 -0.217495
v -28.428 -104.012 914.24
vn -0.349436 -0.819276 -0.454622
v -27.997 -103.869 913.359
vn -0.227042 -0.727755 -0.647167
v -27.4938 -103.488 912.568
vn -0.135961 -0.835826 -0.531892
v -27.3441 -103.936 913.113
vn -0.108022 -0.904946 -0.411587
v -27.1586 -104.267 913.703
vn -0.00170907 -0.893417 0.449225
v -26.8063 -104.047 914.504
vn 0.169607 -0.790289 -0.588792
v -25.9251 -103.698 912.765
vn 0.472387 -0.837561 -0.274485
v -25.3522 -104.178 913.966
vn -0.894449 -0.305761 -0.326299
v -30.6105 -92.7369 904.505
vn -0.538172 -0.586228 -0.605564
v -29.4821 -94.0254 904.005
vn 0.176944 0.62352 0.761521
v -25.9844 -97.8329 918.035
vn 0.927203 0.229689 0.295868
v -22.88 -99.5494 916.197
vn 0.02975 -0.69662 0.716824
v -27.3063 -100.063 919.013
vn 0.0266029 -0.688544 0.724707
v -26.0999 -100.301 918.678
vn 0.24978 0.332739 0.909338
v -25.8698 -99.7302 919.04
vn 0.131119 -0.689591 0.71223
v -24.0484 -100.769 918.275
vn 0.599273 0.198998 0.775417
v -23.978 -99.9621 918.147
vn 0.632585 0.46576 0.618792
v -23.9951 -98.8771 917.694
vn 0.814928 0.146034 0.560861
v -23.4505 -99.8873 917.533
vn 0.304266 -0.805999 0.507729
v -23.8633 -102.886 915.722
vn 0.851739 -0.284851 0.439773
v -23.1184 -101.345 917.008
vn -0.471692 -0.507246 -0.721254
v -29.5094 -85.4871 896.893
vn -0.993345 0.0719978 0.0898952
v -31.1183 -87.3784 903.115
vn -0.683408 0.476596 0.553001
v -29.8822 -86.0377 904.74
vn -0.0960427 0.671697 0.734574
v -28.3284 -86.1111 905.818
vn 0.434695 0.657584 0.615324
v -25.6508 -88.6543 907.769
vn -0.872168 -0.240114 -0.426225
v -30.4222 -79.5312 894.261
vn -0.894584 0.283492 0.345472
v -30.714 -79.4857 898.448
vn -0.299884 0.561971 0.770882
v -28.4324 -81.136 901.768
vn -0.950378 0.227417 0.212279
v -29.6762 -57.4608 882.797
vn -0.553467 0.527223 0.644755
v -28.5557 -57.3597 885.719
vn 0.584795 -0.631814 -0.508749
v -23.8653 -102.825 913.323
vn 0.110142 -0.654427 -0.74806
v -27.1439 -92.3701 901.61
vn 0.772043 -0.604209 -0.197183
v -23.276 -102.518 914.088
vn 0.938855 -0.251859 -0.234773
v -22.9445 -101.91 914.273
vn 0.871161 -0.486634 0.0653188
v -22.9382 -102.172 914.954
vn 0.994056 -0.0904217 0.0606323
v -22.6274 -100.903 915.463
vn -0.143515 -0.54929 -0.823216
v -26.6384 -85.7202 896.548
vn 0.788292 -0.368359 -0.492857
v -24.7576 -87.9988 899.696
vn 0.997192 0.0301943 -0.0685368
v -23.4745 -92.6452 906.758
vn 0.833663 0.421731 0.356581
v -24.1848 -91.0882 908.549
vn 0.461722 0.498314 0.733823
v -25.8678 -78.7336 899.658
vn 0.956642 -0.160045 -0.243354
v -24.0611 -83.1108 898.582
vn 0.89127 0.240785 0.384265
v -24.3324 -79.7555 898.17
vn 0.663337 0.49042 0.565219
v -25.2035 -84.6709 903.568
vn -0.889495 -0.199294 -0.411193
v -29.3067 -66.7831 886.516
vn -0.376743 -0.458518 -0.804876
v -27.4552 -66.9883 885.586
vn -0.906537 -0.231879 -0.352737
v -29.1145 -60.7514 882.811
vn 0.578129 -0.533577 -0.617302
v -25.9051 -60.1418 881.087
vn 0.981819 0.0964714 0.163475
v -23.8715 -62.5268 887.373
vn 0.538131 -0.472839 -0.697738
v -24.2111 -63.007 884.824
vn 0.194928 0.540544 0.818422
v -26.4013 -62.9331 890.441
vn 0.799244 0.305968 0.517294
v -24.4813 -65.1375 890.364
vn -0.953973 -0.284463 -0.0949553
v -29.1419 -46.6531 865.962
vn -0.948011 -0.294135 -0.121489
v -29.473 -46.3501 867.835
vn -0.827923 -0.485095 -0.281472
v -28.2111 -50.7853 871.767
vn -0.703714 0.53913 0.462736
v -28.6803 -52.095 880.196
vn -0.200978 0.714569 0.670074
v -26.8441 -51.8615 881.329
vn -0.206032 -0.720103 -0.662573
v -27.7388 -54.8171 876.384
vn -0.181215 -0.722561 -0.667134
v -26.2851 -55.1347 876.333
vn 0.187465 0.643766 0.741904
v -26.0017 -55.444 884.796
vn 0.751081 0.454056 0.479282
v -24.4295 -54.3297 882.593
vn 0.648668 0.441077 0.620226
v -24.8405 -59.7251 887.418
vn -0.814809 0.26888 -0.513605
v -29.8458 -42.8867 863.146
vn -0.814809 0.26888 -0.513605
v -29.1758 -42.0683 862.512
vn -0.446176 0.875476 0.185655
v -28.9614 -41.7042 863.427
vn -0.994156 -0.0982075 0.0448267
v -29.0717 -47.8444 873.463
vn -0.322838 0.775137 0.543082
v -27.2006 -48.6619 877.317
vn 0.317316 0.826921 0.464233
v -25.9101 -46.3567 873.957
vn 0.294812 0.73076 0.615691
v -25.7216 -50.7162 879.895
vn -0.814809 0.26888 -0.513605
v -29.272 -44.9286 861.167
vn -0.180041 0.446706 -0.876378
v -28.6115 -44.9711 860.931
vn -0.155652 -0.700766 -0.696204
v -28.5284 -45.6394 861.392
vn 0.318103 -0.766292 -0.558217
v -26.4517 -45.3714 860.843
vn 0.12359 -0.104435 -0.986823
v -26.3347 -44.6025 860.777
vn 0.695007 -0.595081 -0.40354
v -25.6628 -45.0939 861.529
vn -0.372561 -0.829727 -0.415633
v -26.6807 -48.3479 866.773
vn 0.551548 -0.753569 -0.357671
v -25.658 -47.2094 865.368
vn -0.216778 -0.784589 -0.580885
v -26.0639 -51.3085 871.625
vn 0.609687 -0.582348 -0.537728
v -23.8615 -51.5136 874.856
vn 0.995804 0.0728281 0.0554097
v -23.6191 -52.8574 878.179
vn 0.653374 -0.494724 -0.573018
v -23.9064 -57.9117 881.441
vn 0.19735 0.944662 0.262045
v -26.3048 -41.4664 863.484
vn -0.0777027 0.504997 -0.859617
v -26.179 -42.0436 862.109
vn -0.108732 0.627532 -0.770961
v -25.9329 -41.4964 862.52
vn 0.49719 0.469317 -0.729756
v -24.9399 -43.2292 862.191
vn 0.859715 -0.311972 -0.40443
v -25.3476 -44.2221 861.036
vn 0.964931 -0.0772697 -0.250873
v -24.9897 -43.8796 861.894
vn 0.985792 0.166743 0.0202526
v -23.943 -47.4362 870.367
vn 0.75797 0.61456 0.218626
v -25.0035 -43.7701 867.619
vn 0.779071 -0.520856 -0.348937
v -24.3032 -47.2554 868.143
vn 0.766679 0.531814 0.359689
v -24.4273 -49.3411 876.896
vn -0.273092 -0.693396 0.6668
v -30.1287 -101.678 916.727
vn -0.0963657 -0.735559 0.670572
v -29.7744 -102.854 916.046
vn -0.121337 -0.778616 0.615657
v -29.72 -101.15 917.658
vn -0.0833314 -0.916823 0.390501
v -28.428 -104.012 914.24
vn -0.0295221 -0.960421 0.276982
v -27.1586 -104.267 913.703
vn 0.0636892 -0.915748 0.396674
v -25.3522 -104.178 913.966
vn -0.309478 0.05636 0.949235
v -27.3063 -100.063 919.013
vn 0.0778662 -0.555416 0.827919
v -25.8698 -99.7302 919.04
vn 0.678535 0.0367157 0.73365
v -24.0484 -100.769 918.275
vn -0.830052 -0.234713 -0.505888
v -30.4222 -79.5312 894.261
vn -0.916607 -0.188476 -0.352574
v -29.6762 -57.4608 882.797
vn 0.491853 -0.479289 -0.726886
v -26.6384 -85.7202 896.548
vn 0.945429 0.200313 0.256978
v -24.0611 -83.1108 898.582
vn -0.44061 -0.448681 -0.777527
v -29.3067 -66.7831 886.516
vn 0.447958 -0.506049 -0.737054
v -27.4552 -66.9883 885.586
vn -0.346567 -0.540804 -0.766435
v -29.1145 -60.7514 882.811
vn -0.25728 -0.616208 -0.744376
v -25.9051 -60.1418 881.087
vn 0.974607 -0.135983 -0.177906
v -24.2111 -63.007 884.824
vn -0.505229 -0.794764 -0.336294
v -29.1419 -46.6531 865.962
vn -0.280076 -0.794294 -0.539123
v -28.2111 -50.7853 871.767
vn -0.983677 -0.178497 0.0227604
v -27.7388 -54.8171 876.384
vn -0.681094 -0.584605 -0.440848
v -27.7388 -54.8171 876.384
vn -0.786747 -0.360354 -0.501173
v -27.7388 -54.8171 876.384
vn 0.554491 -0.631114 -0.542434
v -26.2851 -55.1347 876.333
vn -0.984407 -0.171851 -0.0375407
v -29.8458 -42.8867 863.146
vn -0.808541 0.573982 0.129639
v -29.8458 -42.8867 863.146
vn -0.793216 0.606413 -0.0554271
v -29.1758 -42.0683 862.512
vn -0.172444 0.504212 -0.846187
v -29.1758 -42.0683 862.512
vn -0.163035 0.929232 -0.331582
v -29.1758 -42.0683 862.512
vn -0.750157 0.553095 0.362424
v -29.0717 -47.8444 873.463
vn -0.888512 -0.267207 -0.373024
v -29.0717 -47.8444 873.463
vn -0.282027 0.41597 -0.86454
v -29.272 -44.9286 861.167
vn -0.973615 -0.221865 -0.0533764
v -29.272 -44.9286 861.167
vn -0.309387 -0.565707 -0.764366
v -29.272 -44.9286 861.167
vn -0.629181 -0.736679 -0.247861
v -29.272 -44.9286 861.167
vn -0.225095 -0.572037 -0.788737
v -28.6115 -44.9711 860.931
vn -0.054751 -0.0780323 -0.995446
v -28.6115 -44.9711 860.931
vn -0.562364 -0.788098 -0.250297
v -28.5284 -45.6394 861.392
vn 0.12359 -0.104435 -0.986823
v -26.4517 -45.3714 860.843
vn -0.0390733 0.463316 -0.885331
v -26.3347 -44.6025 860.777
vn 0.381474 -0.826508 -0.413958
v -26.6807 -48.3479 866.773
vn 0.548599 -0.669075 -0.501376
v -26.0639 -51.3085 871.625
vn 0.980743 -0.138163 -0.138037
v -23.8615 -51.5136 874.856
vn 0.985327 -0.129437 -0.111252
v -23.9064 -57.9117 881.441
vn 0.49719 0.469317 -0.729756
v -26.179 -42.0436 862.109
vn -0.126592 0.971547 -0.200176
v -25.9329 -41.4964 862.52
vn 0.763906 0.629619 0.141518
v -25.9329 -41.4964 862.52
vn 0.439654 0.404199 -0.802077
v -25.9329 -41.4964 862.52
vn 0.964916 0.234631 -0.117839
v -24.9399 -43.2292 862.191
vn 0.297904 -0.127436 -0.946051
v -25.3476 -44.2221 861.036
vn 0.548373 0.528436 -0.648107
v -25.3476 -44.2221 861.036
vn 0.0565823 0.45835 -0.886969
v -25.3476 -44.2221 861.036
f 2//2 3//3 6//6
f 6//6 3//3 4//4
f 15//15 16//16 1//1
f 2//2 15//15 1//1
f 16//16 5//5 1//1
f 27//27 15//15 2//2
f 1//1 3//3 2//2
f 1//1 5//5 3//3
f 4//4 3//3 5//5
f 111//111 112//112 13//13
f 2//2 9//9 41//41
f 9//9 42//42 41//41
f 4//4 7//7 6//6
f 4//4 8//8 7//7
f 2//2 6//6 9//9
f 6//6 7//7 9//9
f 7//7 10//10 9//9
f 7//7 8//8 10//10
f 8//8 11//11 10//10
f 9//9 10//10 12//12
f 11//11 12//12 10//10
f 42//42 9//9 12//12
f 113//113 111//111 13//13
f 11//11 14//14 12//12
f 12//12 14//14 43//43
f 14//14 29//29 43//43
f 13//13 31//31 113//113
f 117//117 11//11 8//8
f 14//14 11//11 117//117
f 17//17 16//16 15//15
f 17//17 18//18 16//16
f 18//18 19//19 16//16
f 16//16 19//19 5//5
f 21//21 20//20 17//17
f 17//17 20//20 18//18
f 20//20 19//19 18//18
f 24//24 38//38 112//112
f 21//21 22//22 20//20
f 22//22 23//23 20//20
f 20//20 23//23 19//19
f 24//24 112//112 114//114
f 24//24 114//114 115//115
f 51//51 25//25 21//21
f 21//21 25//25 22//22
f 22//22 25//25 23//23
f 25//25 26//26 23//23
f 115//115 116//116 24//24
f 116//116 38//38 24//24
f 54//54 39//39 38//38
f 28//28 40//40 51//51
f 41//41 45//45 27//27
f 27//27 2//2 41//41
f 40//40 27//27 45//45
f 15//15 28//28 17//17
f 28//28 15//15 27//27
f 28//28 27//27 40//40
f 21//21 17//17 28//28
f 28//28 51//51 21//21
f 43//43 29//29 44//44
f 38//38 13//13 112//112
f 38//38 32//32 13//13
f 34//34 32//32 38//38
f 29//29 36//36 44//44
f 37//37 30//30 36//36
f 55//55 30//30 39//39
f 31//31 13//13 32//32
f 14//14 117//117 33//33
f 31//31 32//32 118//118
f 14//14 33//33 29//29
f 34//34 118//118 32//32
f 33//33 36//36 29//29
f 35//35 33//33 119//119
f 35//35 36//36 33//33
f 37//37 36//36 35//35
f 38//38 39//39 34//34
f 39//39 37//37 119//119
f 39//39 30//30 37//37
f 37//37 35//35 119//119
f 56//56 40//40 65//65
f 65//65 40//40 45//45
f 41//41 42//42 46//46
f 45//45 41//41 46//46
f 42//42 12//12 43//43
f 63//63 44//44 59//59
f 44//44 36//36 59//59
f 48//48 45//45 46//46
f 121//121 64//64 120//120
f 124//124 65//65 45//45
f 42//42 47//47 46//46
f 43//43 60//60 47//47
f 63//63 60//60 43//43
f 47//47 42//42 43//43
f 63//63 43//43 44//44
f 47//47 60//60 70//70
f 64//64 121//121 66//66
f 47//47 49//49 46//46
f 46//46 49//49 48//48
f 25//25 51//51 50//50
f 26//26 25//25 50//50
f 52//52 26//26 50//50
f 26//26 52//52 38//38
f 50//50 57//57 52//52
f 54//54 38//38 52//52
f 57//57 50//50 51//51
f 57//57 58//58 53//53
f 57//57 53//53 52//52
f 52//52 53//53 54//54
f 54//54 53//53 55//55
f 39//39 54//54 55//55
f 53//53 58//58 55//55
f 58//58 59//59 30//30
f 55//55 58//58 30//30
f 30//30 59//59 36//36
f 122//122 57//57 51//51
f 40//40 56//56 51//51
f 61//61 58//58 57//57
f 123//123 63//63 59//59
f 58//58 123//123 59//59
f 122//122 125//125 69//69
f 69//69 57//57 122//122
f 62//62 60//60 63//63
f 128//128 61//61 57//57
f 123//123 62//62 63//63
f 69//69 125//125 67//67
f 60//60 62//62 71//71
f 71//71 70//70 60//60
f 71//71 62//62 123//123
f 124//124 126//126 65//65
f 126//126 127//127 65//65
f 126//126 77//77 127//127
f 69//69 67//67 100//100
f 67//67 98//98 100//100
f 71//71 81//81 70//70
f 71//71 68//68 81//81
f 128//128 154//154 68//68
f 49//49 47//47 70//70
f 71//71 123//123 68//68
f 68//68 61//61 128//128
f 82//82 83//83 89//89
f 73//73 85//85 135//135
f 135//135 72//72 73//73
f 73//73 72//72 74//74
f 75//75 140//140 48//48
f 73//73 131//131 85//85
f 132//132 73//73 74//74
f 95//95 97//97 130//130
f 130//130 97//97 77//77
f 77//77 97//97 78//78
f 152//152 109//109 134//134
f 141//141 66//66 121//121
f 48//48 49//49 75//75
f 76//76 75//75 49//49
f 141//141 133//133 66//66
f 76//76 79//79 88//88
f 77//77 78//78 127//127
f 134//134 98//98 67//67
f 134//134 109//109 98//98
f 76//76 49//49 79//79
f 79//79 80//80 88//88
f 80//80 99//99 110//110
f 80//80 110//110 88//88
f 70//70 79//79 49//49
f 81//81 79//79 70//70
f 80//80 79//79 81//81
f 68//68 80//80 81//81
f 99//99 80//80 68//68
f 136//136 140//140 84//84
f 84//84 137//137 136//136
f 86//86 84//84 140//140
f 86//86 76//76 88//88
f 140//140 75//75 86//86
f 84//84 86//86 87//87
f 86//86 88//88 87//87
f 88//88 110//110 87//87
f 75//75 76//76 86//86
f 138//138 90//90 142//142
f 143//143 72//72 135//135
f 130//130 129//129 95//95
f 146//146 91//91 144//144
f 145//145 148//148 129//129
f 148//148 95//95 129//129
f 91//91 92//92 151//151
f 90//90 138//138 102//102
f 91//91 146//146 92//92
f 92//92 94//94 96//96
f 149//149 147//147 93//93
f 150//150 90//90 102//102
f 105//105 109//109 94//94
f 105//105 94//94 92//92
f 149//149 93//93 160//160
f 92//92 96//96 151//151
f 96//96 109//109 151//151
f 153//153 109//109 107//107
f 109//109 96//96 94//94
f 151//151 109//109 152//152
f 153//153 99//99 154//154
f 154//154 99//99 68//68
f 153//153 107//107 99//99
f 107//107 110//110 99//99
f 102//102 138//138 103//103
f 156//156 139//139 84//84
f 156//156 84//84 101//101
f 84//84 87//87 101//101
f 101//101 87//87 108//108
f 101//101 108//108 157//157
f 155//155 158//158 104//104
f 159//159 157//157 108//108
f 107//107 159//159 108//108
f 109//109 105//105 106//106
f 106//106 159//159 107//107
f 161//161 155//155 104//104
f 102//102 162//162 150//150
f 159//159 106//106 105//105
f 87//87 107//107 108//108
f 109//109 106//106 107//107
f 110//110 107//107 87//87
