# Wavafront OBJ file of BodyParts3D
# BodyParts3D, Copyright(C) 2010-2011 The Database Center for Life Science licensed under CC Attribution-Share Alike 2.1 Japan.
vn 0.949737 0.0296798 0.311639
v 33.813 -65.7387 817.211
vn 0.970785 0.0961299 0.219854
v 34.0919 -65.7387 816.361
vn 0.883114 -0.228452 -0.40978
v 33.6939 -66.1637 815.511
vn 0.776742 0.314915 0.545436
v 33.7732 -64.4637 817.211
vn 0.64348 -0.73859 0.201043
v 33.3515 -66.6252 816.786
vn 0.290513 -0.743031 0.602915
v 32.9265 -66.665 817.211
vn 0.340241 -0.904565 0.256903
v 32.9265 -66.851 816.786
vn 0.376947 -0.925016 -0.0474943
v 32.9265 -66.9107 816.361
vn 0.0384267 -0.968375 0.246521
v 32.5015 -66.9506 816.786
vn 0.136943 -0.942983 -0.303365
v 32.5015 -66.9373 815.936
vn -0.196807 -0.464465 0.863446
v 32.5015 -65.7387 817.998
vn -0.331889 -0.94069 -0.0703678
v 31.6515 -66.9107 816.361
vn -0.215009 -0.77445 0.594977
v 31.6515 -66.5887 817.229
vn 0.0975108 -0.805812 -0.584089
v 32.5015 -65.1842 812.961
vn -0.238933 -0.845586 -0.477383
v 31.6515 -65.8748 813.811
vn 0.94268 0.328277 0.0599045
v 33.9591 -63.6137 814.661
vn 0.734935 0.666935 0.122753
v 33.0294 -61.4887 813.811
vn 0.790971 -0.195867 -0.579657
v 32.724 -61.4887 812.111
vn 0.794214 0.60117 -0.0884232
v 31.5552 -60.2137 810.836
vn -0.274633 -0.185038 0.943577
v 30.3765 -62.3387 818.317
vn 0.382366 0.796608 0.468201
v 30.3765 -60.5158 816.786
vn 0.479737 -0.613262 -0.627504
v 30.3765 -61.6314 809.136
vn -0.0614016 -0.866343 -0.495662
v 29.9515 -61.9137 809.532
vn 0.696641 -0.399857 -0.595656
v 29.4557 -60.6387 807.436
vn 0.783617 0.0152945 -0.621056
v 28.0689 -60.6387 805.736
vn 0.38087 0.864252 0.328643
v 29.1015 -59.9514 815.936
vn 0.551123 0.760938 0.342398
v 29.1015 -59.7887 815.405
vn 0.355328 0.724544 0.590575
v 28.2515 -60.0443 816.786
vn 0.530504 0.668516 0.521202
v 28.2515 -59.6731 816.361
vn 0.617582 0.747417 0.244868
v 30.3765 -59.0947 811.686
vn 0.524213 0.803377 0.282464
v 29.9515 -59.6392 813.386
vn 0.791388 0.334082 -0.511952
v 30.2736 -59.3637 808.286
vn 0.641273 0.76303 0.0809556
v 29.9515 -57.9392 809.986
vn 0.524558 0.773522 -0.355671
v 29.1015 -57.6537 808.711
vn 0.236165 0.971607 -0.014316
v 28.6765 -57.2619 809.561
vn 0.316112 0.910403 0.266908
v 28.2515 -57.6072 811.261
vn 0.748858 0.280616 -0.600388
v 28.6765 -59.3637 806.573
vn -0.284729 -0.279769 0.916874
v 26.1265 -63.8361 816.786
vn -0.0542933 0.445799 0.893485
v 26.1398 -60.6387 817.211
vn -0.964615 -0.187963 -0.184901
v 25.4658 -61.4887 816.361
vn -0.407121 -0.561086 0.720719
v 25.2821 -60.6387 816.786
vn -0.432884 -0.802913 -0.409807
v 26.5515 -62.0166 811.686
vn -0.477325 -0.814677 -0.329335
v 26.1265 -62.7892 814.236
vn 0.385028 -0.893267 -0.232008
v 27.7782 -61.4887 807.011
vn 0.601582 -0.760299 -0.245039
v 25.7015 -62.3387 802.273
vn 0.289854 -0.955423 -0.0561303
v 25.2765 -62.7471 802.761
vn 0.202296 0.479234 0.854056
v 27.8265 -60.2137 817.101
vn 0.475675 0.54788 0.688157
v 27.8265 -59.7367 816.786
vn 0.440837 0.64396 0.625283
v 26.9765 -58.2693 816.361
vn -0.458282 -0.425041 0.780588
v 25.2765 -59.7887 817.32
vn 0.0337239 0.880435 0.472967
v 25.2765 -57.833 816.361
vn 0.471993 0.877134 0.0886435
v 27.8265 -57.7467 812.536
vn 0.505219 0.846089 0.169963
v 26.5515 -56.8834 814.236
vn 0.0737351 0.995972 -0.0510118
v 26.9765 -57.3017 809.986
vn 0.577284 0.671514 -0.464556
v 27.7695 -58.0887 806.586
vn 0.13565 0.974048 -0.181189
v 26.9765 -57.7002 806.586
vn 0.275306 0.91746 -0.287183
v 26.1265 -57.8596 804.886
vn -0.0684281 0.997628 0.00752218
v 24.8515 -57.8861 807.011
vn 0.617532 0.418383 -0.666041
v 26.5515 -58.9387 803.681
vn 0.15501 0.920328 0.359122
v 26.1265 -56.724 814.236
vn 0.322713 0.935189 -0.145868
v 25.7015 -56.5713 812.111
vn -0.376932 -0.734191 0.5647
v 21.4515 -60.2635 814.661
vn -0.032876 -0.976655 0.212281
v 23.5765 -62.2224 806.161
vn 0.427601 -0.304808 -0.851028
v 23.6532 -62.7637 801.061
vn 0.442434 0.0549639 -0.895115
v 24.0015 -61.9137 800.931
vn 0.50417 -0.642092 -0.577521
v 21.8765 -62.7637 800.44
vn 0.324859 -0.91203 -0.250335
v 21.4515 -63.3978 801.061
vn -0.300352 0.307916 0.90276
v 22.3015 -57.6637 814.93
vn -0.404541 -0.377546 0.83295
v 21.8765 -59.3637 815.275
vn 0.108029 0.974449 -0.196922
v 24.0015 -57.9127 807.011
vn -0.0273198 0.996175 0.083003
v 23.1515 -57.7201 804.886
vn 0.0174757 0.999844 0.00247345
v 22.7265 -57.906 805.736
vn 0.262383 0.885313 -0.383896
v 21.7158 -57.6637 805.736
vn 0.143698 -0.950967 0.273885
v 20.1765 -63.6137 801.2
vn 0.626016 -0.685699 -0.371377
v 20.9501 -63.1887 799.786
vn 0.642181 -0.350556 -0.6817
v 20.731 -62.7637 799.361
vn 0.467115 -0.883587 -0.0328284
v 20.6015 -63.6137 800.423
vn 0.643862 -0.762381 -0.0649344
v 20.3658 -63.6137 798.086
vn 0.814059 0.211496 -0.540904
v 20.3857 -63.1887 798.086
vn 0.488798 0.300705 -0.818934
v 20.6015 -60.6387 799.982
vn 0.656293 0.471361 -0.58915
v 19.7515 -60.6273 799.361
vn 0.454157 0.595946 -0.662261
v 18.4765 -61.0637 797.419
vn -0.394268 -0.534794 0.747361
v 19.7515 -58.5137 815.016
vn 0.15502 0.804732 -0.57304
v 21.0265 -57.8264 801.911
vn -0.0900237 0.989769 0.11069
v 20.6015 -57.833 804.461
vn -0.101119 0.993988 -0.0419966
v 20.6015 -57.481 802.761
vn 0.278695 0.785562 -0.552469
v 19.7515 -57.8596 804.461
vn -0.132536 0.990779 -0.028119
v 19.3265 -57.9326 803.611
vn 0.170362 0.909605 -0.378939
v 18.9015 -57.8463 804.036
vn -0.236124 0.958475 -0.15991
v 18.6155 -58.0887 802.336
vn 0.362597 0.603817 -0.709879
v 19.3265 -59.8252 799.786
vn -0.0131008 0.877568 -0.479273
v 18.0515 -58.6299 801.061
vn -0.266805 0.775062 0.572796
v 18.4765 -54.7916 810.836
vn 0.551882 0.0707047 -0.83092
v 17.2015 -64.0387 795.446
vn 0.420983 -0.900389 0.109874
v 16.3515 -66.2002 795.536
vn 0.512637 -0.362497 -0.778331
v 15.0765 -66.1707 794.261
vn -0.0727886 -0.941614 0.328733
v 14.6515 -60.9474 805.736
vn 0.0027157 0.94903 -0.315174
v 17.6265 -58.3576 802.336
vn -0.484344 0.729471 0.482994
v 14.6515 -56.4042 810.411
vn 0.170902 0.888375 -0.426125
v 15.6457 -56.8137 803.611
vn 0.227831 -0.908272 0.350905
v 12.9515 -67.7076 794.261
vn 0.344956 0.129109 -0.929697
v 14.2265 -65.3137 793.766
vn -0.0328583 -0.863321 0.503584
v 13.8015 -62.7637 801.509
vn 0.141643 -0.860093 0.490079
v 12.9515 -62.7637 801.64
vn -0.0699804 -0.818571 0.570127
v 11.2515 -61.7576 804.036
vn -0.0814684 0.921964 -0.378609
v 11.6765 -61.9137 794.37
vn -0.430451 -0.674721 0.599553
v 14.2265 -59.6099 809.561
vn -0.0715508 0.992387 -0.10024
v 11.4779 -56.8137 806.586
vn 0.145155 -0.804115 0.57648
v 8.70151 -67.5084 796.386
vn 0.461672 -0.881109 -0.102496
v 9.55151 -68.3385 792.986
vn 0.426416 -0.904429 -0.0133092
v 9.12651 -68.5576 794.261
vn 0.454427 -0.23883 -0.85817
v 8.95514 -67.8637 792.136
vn 0.667443 -0.615482 -0.419168
v 8.70151 -68.7137 792.49
vn 0.665059 -0.74163 0.0876476
v 8.27651 -69.2947 793.411
vn 0.828838 -0.419329 -0.370393
v 8.1603 -69.1387 792.136
vn 0.70208 -0.135764 -0.699036
v 7.85151 -69.1387 791.62
vn 0.455292 0.1173 -0.882581
v 7.85151 -67.4387 791.787
vn 0.0181113 -0.876212 0.481586
v 9.12651 -63.9756 801.061
vn -0.393647 -0.544994 0.740286
v 9.97651 -60.6387 804.776
vn 0.0955836 -0.817596 0.567803
v 9.12651 -63.2318 802.761
vn -0.160649 -0.588555 0.792335
v 9.12651 -62.3509 803.611
vn -0.261177 -0.73926 0.620711
v 8.27651 -63.1887 802.718
vn -0.63412 -0.148479 0.758845
v 9.26929 -59.3637 804.886
vn -0.567915 0.7324 0.375582
v 8.70151 -57.0892 803.186
vn -0.697893 0.358876 0.619801
v 8.1603 -58.0887 803.611
vn -0.324751 0.845939 -0.422994
v 8.27651 -57.4412 801.061
vn -0.252123 0.967253 -0.0292636
v 9.12651 -56.7439 802.761
vn 0.68931 -0.696418 0.199632
v 4.87651 -74.8179 790.436
vn 0.35791 -0.609273 -0.707592
v 4.45151 -74.9583 790.011
vn 0.339993 -0.429698 -0.836519
v 4.45151 -74.6637 789.808
vn 0.744352 -0.616438 0.256795
v 6.69937 -71.2637 792.561
vn 0.219958 -0.670541 0.708515
v 5.30151 -72.1137 793.162
vn -0.124631 -0.593796 0.794904
v 5.30151 -71.0565 793.836
vn 0.874004 -0.333618 -0.353294
v 6.49351 -71.6887 790.011
vn 0.598612 0.133898 -0.789769
v 6.15151 -70.8387 789.51
vn 0.870955 -0.491361 -0.000893824
v 5.5771 -73.8137 790.436
vn 0.720035 -0.49416 -0.487191
v 5.51733 -73.8137 790.011
vn 0.51122 -0.231703 -0.827628
v 5.72651 -72.1137 789.284
vn 0.179594 -0.241611 -0.953609
v 4.95824 -72.5387 789.161
vn 0.281538 0.0583922 -0.957772
v 5.30151 -71.2637 789.058
vn 0.504421 -0.693371 0.514584
v 6.93068 -70.4137 793.836
vn 0.770816 0.036002 -0.63604
v 7.23726 -69.9887 790.861
vn 0.504095 0.330186 -0.798039
v 7.00151 -69.3423 790.861
vn 0.283745 0.427395 -0.858384
v 5.30151 -70.4137 789.277
vn 0.0644476 0.590782 -0.804253
v 4.87651 -68.0845 790.861
vn -0.327224 -0.744457 0.581986
v 6.57651 -63.876 800.636
vn -0.203692 -0.701947 0.682481
v 6.15151 -65.0115 798.936
vn -0.701912 -0.384012 0.599878
v 5.17866 -64.0387 799.361
vn -0.629668 -0.33563 0.700621
v 6.15151 -61.9137 802.094
vn -0.816845 0.205733 0.538924
v 5.90249 -60.6387 801.911
vn -0.900824 -0.0412898 0.432218
v 4.78022 -61.4887 800.211
vn -0.845122 0.530583 0.0652018
v 4.74038 -61.0637 799.786
vn -0.492156 0.755737 -0.432024
v 6.15151 -60.8678 796.811
vn -0.303735 0.655995 -0.690952
v 4.87651 -63.1887 794.988
vn -0.949414 0.131801 0.285029
v 4.08296 -62.7637 797.661
vn -0.808595 0.588135 -0.0164824
v 4.45151 -61.9627 797.661
vn -0.55702 0.830492 -0.00343732
v 7.42651 -57.5541 801.911
vn -0.716853 0.531792 0.450909
v 6.98491 -58.0887 802.336
vn -0.824991 0.563048 0.0486461
v 6.81225 -58.0887 801.911
vn -0.613362 0.706654 -0.352742
v 7.00151 -58.0322 801.486
vn -0.728487 0.62601 -0.278242
v 6.57651 -59.0128 800.636
vn -0.860824 0.367607 0.35192
v 5.73647 -60.2137 801.061
vn -0.685662 0.704246 -0.184134
v 6.15151 -59.8185 799.361
vn -0.169009 -0.719162 0.673975
v 4.02651 -75.0189 790.436
vn 0.0438516 -0.994212 -0.0980755
v 4.02651 -74.977 790.011
vn 0.0167599 -0.52917 -0.84835
v 4.02651 -74.6637 789.722
vn -0.466261 -0.880374 -0.0868457
v 2.75151 -74.3017 790.011
vn -0.527708 -0.518445 0.672858
v 3.17651 -73.3887 791.747
vn 0.0760055 0.00508657 -0.997094
v 4.02651 -71.2637 788.812
vn 0.0604562 0.286826 -0.956073
v 4.02651 -70.8387 788.872
vn -0.0365156 -0.336091 -0.941121
v 3.17651 -73.8137 789.317
vn -0.13824 -0.11638 -0.983537
v 3.17651 -71.6887 788.819
vn -0.368722 0.339601 -0.865284
v 3.17651 -71.2637 788.852
vn -0.417272 -0.453923 -0.787298
v 2.75151 -73.8137 789.403
vn -0.843016 -0.245687 -0.4785
v 2.3938 -73.3887 789.586
vn -0.634491 0.0655113 -0.770149
v 2.75151 -71.6887 788.989
vn -0.7687 0.37896 -0.515257
v 2.47593 -71.2637 789.586
vn -0.966436 -0.222717 0.128059
v 2.27671 -73.3887 790.011
vn -0.935425 0.087889 -0.342426
v 2.32651 -71.8215 789.586
vn -0.779072 -0.297534 0.551833
v 3.00718 -68.7137 793.836
vn -0.980907 0.165501 -0.102129
v 2.48921 -67.4387 792.986
vn -0.1161 0.558519 -0.821327
v 4.02651 -69.9887 789.297
vn -0.597233 0.599702 -0.532607
v 3.00718 -64.8887 794.686
vn -0.962539 0.0783478 0.259577
v 3.05366 -64.4637 795.961
vn -0.522062 0.573797 -0.631037
v 3.17651 -66.5887 792.717
vn -0.906039 0.229999 0.355238
v 3.59155 -63.1887 796.811
vn -0.557898 0.707433 -0.433923
v 3.50522 -63.1887 796.386
vn 0.635924 -0.41304 0.651919
v 33.813 -65.7387 817.211
vn 0.921735 -0.205508 -0.328893
v 34.0919 -65.7387 816.361
vn 0.789118 -0.603001 0.116975
v 34.0919 -65.7387 816.361
vn 0.556892 -0.791235 -0.252623
v 33.6939 -66.1637 815.511
vn 0.474685 -0.0909448 0.875445
v 32.5015 -65.7387 817.998
vn 0.812968 -0.203489 -0.545596
v 32.5015 -65.1842 812.961
vn 0.864826 -0.210948 -0.455606
v 33.9591 -63.6137 814.661
vn 0.855683 0.48298 -0.185841
v 32.724 -61.4887 812.111
vn 0.277466 0.46797 0.839057
v 30.3765 -62.3387 818.317
vn 0.639721 -0.698809 -0.320035
v 28.0689 -60.6387 805.736
vn -0.443583 -0.840217 0.311882
v 26.1265 -63.8361 816.786
vn -0.477871 -0.812605 -0.333635
v 26.1265 -63.8361 816.786
vn -0.949994 -0.288867 -0.118601
v 26.1265 -63.8361 816.786
vn -0.73695 -0.086051 0.670448
v 26.1265 -63.8361 816.786
vn -0.297053 -0.124596 0.946697
v 26.1398 -60.6387 817.211
vn -0.388186 -0.485355 0.783417
v 26.1398 -60.6387 817.211
vn -0.73695 -0.086051 0.670448
v 26.1398 -60.6387 817.211
vn 0.0772489 -0.0498897 0.995763
v 26.1398 -60.6387 817.211
vn -0.390023 -0.477827 0.787124
v 25.4658 -61.4887 816.361
vn -0.73695 -0.086051 0.670448
v 25.4658 -61.4887 816.361
vn -0.964967 -0.0842791 -0.248465
v 25.2821 -60.6387 816.786
vn -0.0340815 -0.999382 -0.00856357
v 26.5515 -62.0166 811.686
vn -0.964615 -0.187963 -0.184901
v 26.1265 -62.7892 814.236
vn -0.366835 -0.767468 0.525761
v 26.1265 -62.7892 814.236
vn 0.683907 -0.0508884 -0.727792
v 25.7015 -62.3387 802.273
vn -0.107708 0.315074 0.942935
v 25.2765 -59.7887 817.32
vn -0.136461 0.436361 0.889364
v 25.2765 -57.833 816.361
vn -0.472056 -0.818784 -0.326736
v 21.4515 -60.2635 814.661
vn 0.297485 -0.858084 -0.418561
v 23.6532 -62.7637 801.061
vn 0.284522 -0.165397 -0.944294
v 21.8765 -62.7637 800.44
vn 0.664519 0.246591 -0.705413
v 21.8765 -62.7637 800.44
vn -0.146663 0.801919 0.57915
v 22.3015 -57.6637 814.93
vn -0.258629 0.253981 0.931989
v 21.8765 -59.3637 815.275
vn 0.947109 0.0639873 -0.314468
v 20.9501 -63.1887 799.786
vn 0.782342 0.277047 -0.557841
v 20.731 -62.7637 799.361
vn 0.644999 -0.156447 -0.747998
v 20.3658 -63.6137 798.086
vn 0.948116 -0.0444439 -0.314802
v 20.3658 -63.6137 798.086
vn -0.0360926 0.207601 0.977547
v 19.7515 -58.5137 815.016
vn -0.279245 0.67327 0.684639
v 19.7515 -58.5137 815.016
vn -0.689142 -0.0989804 0.717834
v 19.7515 -58.5137 815.016
vn 0.00506062 0.99958 -0.0285488
v 19.7515 -57.8596 804.461
vn 0.157806 0.961904 -0.223243
v 18.4765 -54.7916 810.836
vn 0.619306 -0.433035 -0.654936
v 16.3515 -66.2002 795.536
vn -0.702964 -0.0501098 0.709458
v 14.6515 -56.4042 810.411
vn 0.215948 -0.971768 -0.0950415
v 12.9515 -67.7076 794.261
vn 0.426888 -0.649357 -0.629367
v 12.9515 -67.7076 794.261
vn 0.292318 0.322214 -0.900405
v 11.6765 -61.9137 794.37
vn -0.0213486 0.74793 -0.663434
v 11.6765 -61.9137 794.37
vn -0.549039 0.743477 0.381835
v 11.4779 -56.8137 806.586
vn 0.483546 -0.574679 -0.660248
v 9.55151 -68.3385 792.986
vn 0.227404 -0.854345 0.467313
v 9.12651 -68.5576 794.261
vn 0.0453729 0.513103 -0.857127
v 7.85151 -67.4387 791.787
vn 0.229217 -0.969124 0.090877
v 4.87651 -74.8179 790.436
vn 0.137757 -0.990459 -0.00363149
v 4.45151 -74.9583 790.011
vn -0.784798 0.612809 -0.0925064
v 5.73647 -60.2137 801.061
vn 0.137757 -0.990459 -0.00363149
v 4.02651 -75.0189 790.436
vn -0.466261 -0.880374 -0.0868457
v 4.02651 -75.0189 790.436
vn -0.207248 -0.696642 -0.686832
v 4.02651 -74.977 790.011
vn -0.466261 -0.880374 -0.0868457
v 4.02651 -74.977 790.011
vn -0.702372 -0.575102 -0.419442
v 2.75151 -74.3017 790.011
vn -0.688111 -0.559163 0.462428
v 2.75151 -74.3017 790.011
vn -0.973828 0.223893 -0.039127
v 2.48921 -67.4387 792.986
vn -0.954488 0.291645 -0.0624157
v 3.00718 -64.8887 794.686
vn -0.922345 0.374561 0.0947778
v 3.50522 -63.1887 796.386
f 9//9 13//13 12//12
f 38//38 13//13 11//11
f 11//11 20//20 38//38
f 2//2 4//4 1//1
f 2//2 16//16 4//4
f 189//189 3//3 194//194
f 5//5 190//190 188//188
f 6//6 5//5 188//188
f 191//191 190//190 5//5
f 6//6 188//188 192//192
f 5//5 6//6 7//7
f 7//7 8//8 5//5
f 5//5 8//8 191//191
f 10//10 191//191 8//8
f 14//14 191//191 10//10
f 192//192 188//188 4//4
f 13//13 9//9 6//6
f 6//6 9//9 7//7
f 8//8 7//7 9//9
f 9//9 10//10 8//8
f 14//14 10//10 15//15
f 13//13 6//6 11//11
f 12//12 10//10 9//9
f 12//12 15//15 10//10
f 3//3 193//193 194//194
f 192//192 4//4 196//196
f 21//21 196//196 4//4
f 193//193 18//18 194//194
f 17//17 21//21 4//4
f 4//4 16//16 17//17
f 195//195 17//17 16//16
f 195//195 19//19 17//17
f 18//18 193//193 22//22
f 17//17 31//31 21//21
f 17//17 19//19 30//30
f 13//13 198//198 12//12
f 199//199 43//43 12//12
f 12//12 43//43 15//15
f 15//15 23//23 14//14
f 196//196 21//21 47//47
f 27//27 26//26 31//31
f 47//47 21//21 28//28
f 47//47 39//39 196//196
f 42//42 23//23 15//15
f 23//23 22//22 14//14
f 18//18 22//22 24//24
f 22//22 44//44 24//24
f 44//44 22//22 23//23
f 32//32 18//18 24//24
f 209//209 44//44 23//23
f 24//24 25//25 32//32
f 44//44 197//197 24//24
f 21//21 31//31 26//26
f 28//28 21//21 26//26
f 29//29 28//28 26//26
f 29//29 27//27 49//49
f 29//29 26//26 27//27
f 28//28 48//48 47//47
f 28//28 29//29 48//48
f 31//31 17//17 30//30
f 31//31 30//30 33//33
f 30//30 19//19 33//33
f 31//31 49//49 27//27
f 36//36 31//31 33//33
f 49//49 31//31 53//53
f 53//53 31//31 52//52
f 52//52 31//31 36//36
f 32//32 19//19 195//195
f 19//19 32//32 33//33
f 32//32 37//37 55//55
f 33//33 32//32 34//34
f 34//34 32//32 55//55
f 36//36 33//33 35//35
f 33//33 34//34 35//35
f 35//35 34//34 56//56
f 55//55 56//56 34//34
f 36//36 35//35 54//54
f 54//54 35//35 56//56
f 32//32 25//25 37//37
f 25//25 59//59 37//37
f 40//40 210//210 200//200
f 202//202 38//38 20//20
f 203//203 41//41 206//206
f 208//208 210//210 40//40
f 203//203 50//50 41//41
f 204//204 207//207 201//201
f 41//41 62//62 211//211
f 41//41 50//50 62//62
f 15//15 43//43 42//42
f 215//215 42//42 43//43
f 209//209 63//63 44//44
f 45//45 197//197 44//44
f 45//45 44//44 46//46
f 44//44 63//63 46//46
f 59//59 25//25 212//212
f 212//212 64//64 65//65
f 59//59 212//212 65//65
f 45//45 46//46 216//216
f 48//48 29//29 49//49
f 47//47 48//48 49//49
f 213//213 205//205 47//47
f 47//47 49//49 213//213
f 51//51 49//49 60//60
f 49//49 53//53 60//60
f 213//213 49//49 214//214
f 62//62 50//50 69//69
f 213//213 68//68 220//220
f 68//68 213//213 214//214
f 52//52 36//36 54//54
f 53//53 52//52 61//61
f 52//52 54//54 61//61
f 37//37 59//59 55//55
f 55//55 59//59 57//57
f 56//56 55//55 57//57
f 58//58 54//54 56//56
f 54//54 58//58 70//70
f 71//71 56//56 57//57
f 57//57 59//59 84//84
f 91//91 84//84 59//59
f 60//60 53//53 61//61
f 216//216 46//46 67//67
f 74//74 67//67 46//46
f 63//63 74//74 46//46
f 216//216 67//67 66//66
f 65//65 64//64 217//217
f 91//91 59//59 65//65
f 80//80 91//91 65//65
f 217//217 80//80 65//65
f 75//75 67//67 77//77
f 66//66 67//67 75//75
f 75//75 76//76 66//66
f 80//80 218//218 222//222
f 60//60 219//219 51//51
f 219//219 60//60 93//93
f 69//69 83//83 62//62
f 225//225 220//220 68//68
f 61//61 54//54 70//70
f 70//70 58//58 72//72
f 72//72 58//58 71//71
f 58//58 56//56 71//71
f 61//61 70//70 73//73
f 70//70 72//72 73//73
f 73//73 72//72 87//87
f 72//72 71//71 86//86
f 73//73 87//87 100//100
f 228//228 72//72 85//85
f 72//72 86//86 85//85
f 86//86 71//71 57//57
f 61//61 229//229 60//60
f 61//61 73//73 229//229
f 229//229 73//73 100//100
f 77//77 95//95 78//78
f 230//230 94//94 223//223
f 77//77 74//74 95//95
f 74//74 77//77 67//67
f 77//77 78//78 75//75
f 224//224 79//79 221//221
f 79//79 81//81 222//222
f 221//221 79//79 222//222
f 80//80 222//222 81//81
f 81//81 91//91 80//80
f 81//81 79//79 82//82
f 94//94 82//82 79//79
f 223//223 94//94 79//79
f 107//107 62//62 83//83
f 226//226 93//93 99//99
f 219//219 93//93 226//226
f 85//85 86//86 88//88
f 86//86 57//57 84//84
f 228//228 85//85 88//88
f 92//92 84//84 91//91
f 87//87 89//89 100//100
f 89//89 228//228 88//88
f 88//88 86//86 90//90
f 84//84 92//92 86//86
f 89//89 88//88 98//98
f 88//88 90//90 98//98
f 90//90 86//86 92//92
f 98//98 90//90 106//106
f 92//92 106//106 90//90
f 98//98 100//100 89//89
f 81//81 82//82 91//91
f 91//91 82//82 92//92
f 106//106 92//92 82//82
f 96//96 102//102 94//94
f 234//234 94//94 102//102
f 230//230 96//96 94//94
f 95//95 74//74 101//101
f 63//63 62//62 97//97
f 63//63 97//97 103//103
f 62//62 107//107 97//97
f 63//63 103//103 74//74
f 104//104 103//103 97//97
f 62//62 63//63 209//209
f 98//98 235//235 100//100
f 229//229 100//100 108//108
f 111//111 110//110 232//232
f 238//238 101//101 109//109
f 230//230 233//233 96//96
f 112//112 96//96 233//233
f 96//96 112//112 102//102
f 237//237 112//112 233//233
f 109//109 101//101 74//74
f 74//74 103//103 109//109
f 234//234 102//102 112//112
f 97//97 107//107 104//104
f 107//107 105//105 104//104
f 107//107 119//119 105//105
f 109//109 103//103 104//104
f 118//118 109//109 104//104
f 234//234 82//82 94//94
f 231//231 107//107 227//227
f 125//125 99//99 236//236
f 93//93 236//236 99//99
f 127//127 108//108 100//100
f 238//238 109//109 114//114
f 109//109 141//141 114//114
f 111//111 114//114 110//110
f 112//112 237//237 113//113
f 110//110 114//114 113//113
f 112//112 113//113 116//116
f 112//112 116//116 117//117
f 114//114 115//115 113//113
f 113//113 115//115 116//116
f 142//142 143//143 116//116
f 115//115 142//142 116//116
f 143//143 117//117 116//116
f 118//118 122//122 146//146
f 146//146 109//109 118//118
f 234//234 112//112 117//117
f 154//154 235//235 239//239
f 120//120 118//118 104//104
f 104//104 105//105 121//121
f 120//120 104//104 121//121
f 121//121 105//105 119//119
f 121//121 119//119 123//123
f 122//122 118//118 120//120
f 122//122 120//120 121//121
f 121//121 149//149 122//122
f 121//121 123//123 149//149
f 122//122 149//149 146//146
f 124//124 125//125 236//236
f 107//107 231//231 123//123
f 231//231 125//125 123//123
f 107//107 123//123 119//119
f 124//124 236//236 127//127
f 157//157 124//124 127//127
f 157//157 127//127 126//126
f 158//158 125//125 124//124
f 158//158 124//124 157//157
f 100//100 235//235 126//126
f 127//127 100//100 126//126
f 128//128 131//131 132//132
f 164//164 128//128 132//132
f 164//164 132//132 168//168
f 131//131 128//128 136//136
f 128//128 129//129 137//137
f 128//128 137//137 136//136
f 129//129 130//130 137//137
f 243//243 241//241 240//240
f 243//243 165//165 241//241
f 129//129 245//245 166//166
f 130//130 129//129 166//166
f 139//139 130//130 166//166
f 139//139 166//166 171//171
f 131//131 134//134 114//114
f 131//131 136//136 134//134
f 114//114 141//141 131//131
f 132//132 131//131 141//141
f 132//132 141//141 133//133
f 133//133 168//168 132//132
f 134//134 142//142 115//115
f 114//114 134//134 115//115
f 136//136 137//137 134//134
f 138//138 135//135 134//134
f 134//134 135//135 142//142
f 142//142 135//135 143//143
f 137//137 138//138 134//134
f 138//138 140//140 135//135
f 138//138 137//137 130//130
f 138//138 139//139 140//140
f 144//144 135//135 140//140
f 144//144 143//143 135//135
f 139//139 138//138 130//130
f 169//169 140//140 139//139
f 170//170 140//140 169//169
f 141//141 109//109 133//133
f 143//143 145//145 239//239
f 154//154 239//239 145//145
f 144//144 182//182 145//145
f 143//143 144//144 145//145
f 170//170 144//144 140//140
f 182//182 144//144 170//170
f 109//109 147//147 133//133
f 133//133 147//147 148//148
f 147//147 109//109 146//146
f 148//148 147//147 146//146
f 150//150 149//149 123//123
f 149//149 151//151 148//148
f 151//151 149//149 150//150
f 151//151 150//150 152//152
f 148//148 146//146 149//149
f 126//126 153//153 163//163
f 150//150 162//162 152//152
f 148//148 151//151 155//155
f 151//151 152//152 155//155
f 152//152 163//163 153//153
f 156//156 155//155 152//152
f 152//152 153//153 156//156
f 126//126 235//235 153//153
f 153//153 235//235 154//154
f 187//187 153//153 154//154
f 155//155 156//156 186//186
f 157//157 160//160 159//159
f 126//126 160//160 157//157
f 157//157 159//159 158//158
f 150//150 158//158 159//159
f 150//150 159//159 162//162
f 125//125 150//150 123//123
f 150//150 125//125 158//158
f 161//161 160//160 126//126
f 161//161 159//159 160//160
f 163//163 242//242 161//161
f 126//126 163//163 161//161
f 242//242 159//159 161//161
f 163//163 152//152 242//242
f 245//245 174//174 166//166
f 166//166 174//174 171//171
f 244//244 167//167 246//246
f 247//247 174//174 245//245
f 133//133 180//180 168//168
f 164//164 168//168 248//248
f 168//168 178//178 248//248
f 168//168 180//180 178//178
f 178//178 180//180 181//181
f 173//173 170//170 169//169
f 172//172 139//139 171//171
f 172//172 169//169 139//139
f 172//172 173//173 169//169
f 174//174 172//172 171//171
f 174//174 176//176 172//172
f 176//176 173//173 172//172
f 177//177 185//185 173//173
f 178//178 175//175 247//247
f 175//175 174//174 247//247
f 176//176 174//174 175//175
f 179//179 176//176 175//175
f 177//177 173//173 176//176
f 177//177 176//176 179//179
f 181//181 177//177 179//179
f 179//179 178//178 181//181
f 178//178 179//179 175//175
f 182//182 185//185 145//145
f 148//148 180//180 133//133
f 181//181 185//185 177//177
f 173//173 182//182 170//170
f 173//173 185//185 182//182
f 183//183 187//187 154//154
f 185//185 154//154 145//145
f 185//185 183//183 154//154
f 148//148 184//184 180//180
f 180//180 184//184 181//181
f 249//249 184//184 250//250
f 183//183 185//185 181//181
f 251//251 186//186 156//156
f 153//153 187//187 156//156
f 186//186 184//184 148//148
f 155//155 186//186 148//148
f 184//184 186//186 251//251
f 251//251 250//250 184//184
