# Wavafront OBJ file of BodyParts3D
# BodyParts3D, Copyright(C) 2010-2011 The Database Center for Life Science licensed under CC Attribution-Share Alike 2.1 Japan.
vn 0.889242 -0.152777 -0.431171
v 8.66529 -95.6045 756.97
vn 0.99164 -0.0157162 -0.128076
v 10.1911 -88.6745 760.75
vn 0.891639 0.0388128 0.45108
v 9.70873 -84.2645 764.53
vn 0.983666 0.172077 0.0528257
v 9.96467 -83.6345 763.27
vn 0.874991 0.307591 0.373868
v 9.22639 -81.7445 764.53
vn 0.924482 0.336063 -0.179984
v 9.14764 -81.1145 761.38
vn 0.623256 0.0520773 0.780282
v 8.97537 -84.2645 765.45
vn 0.713215 0.253364 0.653552
v 8.79755 -81.7445 765.16
vn 0.879818 0.126021 -0.458299
v 9.09842 -85.5245 757.6
vn 0.957315 0.174333 -0.230554
v 9.60537 -84.2645 759.621
vn 0.85479 0.330991 -0.399724
v 9.00982 -83.0045 758.86
vn 0.888284 0.452621 0.0780112
v 9.03935 -80.4845 763.27
vn 0.840505 -0.533243 0.0959356
v 3.83201 -184.435 736.81
vn 0.996695 0.0643629 -0.0495671
v 4.45217 -182.545 734.92
vn 0.884558 -0.46457 -0.0416261
v 3.64498 -185.065 726.73
vn 0.866721 -0.436784 0.240861
v 4.12732 -176.875 758.23
vn 0.987762 -0.150193 0.0420399
v 4.56537 -179.395 749.489
vn 0.73482 -0.635181 0.237876
v 3.52037 -181.285 750.67
vn 0.790652 0.584491 -0.182318
v 3.88123 -179.395 738.7
vn 0.826366 0.556484 -0.0862838
v 3.71389 -181.285 729.88
vn 0.999024 0.0258662 -0.0358086
v 4.67857 -171.835 762.64
vn 0.743593 -0.540036 0.394246
v 3.54654 -173.725 764.53
vn 0.885058 0.424589 -0.190778
v 3.70404 -174.355 751.93
vn 0.854193 -0.349226 0.385221
v 4.05842 -168.055 770.2
vn 0.73648 0.568786 -0.366168
v 3.45795 -170.575 758.23
vn 0.740717 -0.267943 0.616072
v 4.09779 -158.605 776.5
vn 0.977951 -0.110731 0.177058
v 4.82623 -157.975 775.24
vn 0.921485 0.16013 -0.35387
v 4.45217 -160.495 770.2
vn 0.887335 -0.0877284 0.452703
v 4.75732 -152.935 777.13
vn 0.995888 -0.0267332 -0.0865631
v 5.29873 -154.195 773.98
vn 0.929093 -0.0316182 -0.368492
v 5.23967 -147.895 773.98
vn 0.800313 0.092615 -0.592387
v 4.35373 -151.045 772.09
vn 0.975987 -0.00502863 0.217772
v 5.46607 -144.115 776.5
vn 0.748351 0.0340807 0.662427
v 4.83607 -144.745 777.76
vn 0.779206 -0.156146 -0.607007
v 4.35373 -141.595 771.46
vn 0.881475 0.0904538 0.463487
v 4.92467 -140.335 777.13
vn 0.996779 -0.0364548 -0.0714382
v 5.80076 -140.335 773.98
vn 0.687149 -0.288877 -0.666616
v 4.44232 -135.295 769.57
vn 0.977933 -0.120735 -0.170499
v 6.2142 -129.625 770.2
vn 0.952148 0.00630028 0.305572
v 6.90326 -121.435 768.31
vn 0.602831 0.20358 0.771459
v 5.19537 -117.655 770.018
vn 0.967034 -0.16144 -0.196932
v 7.21826 -118.915 765.79
vn 0.888876 -0.212659 -0.405801
v 6.82451 -111.985 760.75
vn 0.991799 -0.0874832 0.0931697
v 8.13373 -110.095 764.53
vn 0.650466 -0.297679 -0.698771
v 5.70232 -110.095 758.23
vn 0.68134 0.0504575 0.730226
v 6.45537 -104.425 767.104
vn 0.635975 -0.193671 -0.747012
v 5.82537 -99.3845 754.632
vn 0.441699 -0.137258 -0.886602
v 3.93537 -97.4945 753.067
vn 0.766929 -0.0482155 -0.639918
v 8.27154 -92.4545 755.71
vn 0.454118 -0.00446093 -0.89093
v 4.02396 -92.4545 752.56
vn 0.67225 0.094772 -0.734233
v 7.08537 -87.4145 754.701
vn 0.410078 0.251579 0.876666
v 7.71537 -81.7445 765.982
vn 0.724759 0.282097 -0.628606
v 7.71537 -83.7002 756.34
vn 0.496897 0.182035 -0.848503
v 5.82537 -85.5245 754.11
vn 0.508459 0.370689 -0.777213
v 5.82537 -83.0045 754.908
vn 0.658749 0.53836 0.525564
v 7.79904 -79.2245 764.53
vn 0.701637 0.709401 0.0667511
v 7.08537 -77.6545 762.64
vn 0.48905 0.743958 0.455364
v 6.45537 -77.6151 763.9
vn 0.293624 0.552454 0.780115
v 5.82537 -78.5037 765.16
vn 0.463238 0.873324 0.150721
v 5.68219 -76.7045 762.64
vn 0.317183 0.800766 0.508104
v 4.56537 -76.6996 763.9
vn 0.36026 0.924415 -0.125178
v 3.93537 -75.8235 761.38
vn 0.780763 0.555225 -0.286591
v 8.00576 -79.2245 760.75
vn 0.664169 0.489983 -0.56462
v 7.05092 -79.8545 758.23
vn 0.501347 0.66617 -0.552149
v 5.21255 -77.9645 758.23
vn 0.568314 0.783497 -0.2513
v 5.82537 -76.9753 760.75
vn 0.350746 0.82002 -0.452266
v 3.93537 -76.4142 759.49
vn 0.327131 0.510728 -0.795074
v 3.51957 -80.4845 755.08
vn 0.363965 -0.921774 0.133649
v 1.41537 -186.556 735.55
vn 0.509525 -0.860437 -0.00571506
v 2.04537 -186.861 727.36
vn 0.103479 -0.994351 0.023619
v 0.78537 -187.265 727.36
vn 0.629767 -0.772502 -0.0814475
v 2.04537 -186.477 721.06
vn 0.298612 -0.949654 -0.094802
v 0.78537 -186.851 718.54
vn 0.104287 -0.94368 0.313993
v 0.15537 -184.085 746.89
vn 0.478372 -0.845192 0.238351
v 2.67537 -183.805 745.052
vn 0.117569 -0.965775 0.231205
v 0.15537 -185.69 741.22
vn 0.703524 -0.708203 0.0591813
v 3.25732 -185.695 733.03
vn 0.643814 -0.674798 -0.360765
v 2.3456 -184.435 709.72
vn 0.9378 -0.0439732 -0.344379
v 2.62123 -183.805 709.72
vn 0.420234 -0.128723 -0.898239
v 2.05029 -183.805 709.09
vn 0.59588 0.350747 -0.722429
v 2.04537 -182.545 709.331
vn 0.157548 0.229563 -0.960458
v 1.41537 -182.545 709.114
vn 0.0578994 -0.942703 -0.32857
v 0.15537 -185.808 710.35
vn 0.104808 -0.532813 -0.839718
v 0.15537 -185.065 709.164
vn -0.0275154 -0.0183799 -0.999452
v 0.15537 -183.805 708.898
vn -0.147869 -0.197389 -0.969109
v -0.47463 -184.435 709.036
vn -0.141412 0.28572 -0.947822
v -0.47463 -181.915 709.213
vn -0.13393 -0.868547 -0.477168
v -1.10463 -185.065 709.351
vn 0.551382 -0.728725 0.406125
v 2.67537 -178.765 757.887
vn 0.205428 -0.843294 0.496643
v 1.41537 -178.13 760.12
vn -0.0919319 -0.878379 0.46904
v -1.10463 -179.395 758.125
vn 0.252118 -0.889346 0.381446
v 1.41537 -181.014 754.45
vn 0.477047 0.83478 -0.274896
v 2.04537 -176.328 743.11
vn -0.021214 0.962186 -0.271565
v 0.15537 -177.037 739.33
vn 0.463211 0.868752 -0.175231
v 2.67537 -179.114 734.29
vn 0.551552 0.830897 -0.0734829
v 2.04537 -179.537 728.62
vn 0.184363 0.982244 -0.0347408
v 0.15537 -178.986 725.47
vn 0.587703 0.806738 -0.0614664
v 1.41537 -179.793 716.02
vn 0.197574 0.978863 -0.0528459
v 0.15537 -179.153 717.28
vn 0.873478 0.419612 -0.246903
v 2.3456 -181.285 710.98
vn 0.689021 0.708479 -0.152666
v 1.8269 -180.655 710.98
vn 0.412779 0.87742 -0.244431
v 0.78537 -179.902 710.98
vn 0.127108 0.950747 -0.282706
v 0.15537 -179.705 710.98
vn 0.108532 0.768018 -0.631165
v 0.15537 -180.025 710.411
vn -0.143061 0.980722 -0.133109
v -1.10463 -179.557 711.61
vn -0.225899 0.838444 -0.495965
v -1.10463 -179.714 710.98
vn 0.516908 0.6706 -0.532073
v 1.41537 -180.522 710.35
vn 0.156486 0.503455 -0.849732
v 0.78537 -181.285 709.488
vn -0.183399 0.585356 -0.789762
v -1.10463 -180.655 709.971
vn 0.295513 -0.761013 0.577522
v 1.41537 -173.503 767.05
vn -0.038719 -0.769081 0.637977
v -1.10463 -172.745 768.31
vn 0.427613 0.816939 -0.386986
v 2.04537 -173.139 751.3
vn 0.111105 -0.672951 0.731295
v 0.15537 -168.685 772.616
vn 0.527285 -0.609605 0.591906
v 2.67537 -169.945 770.306
vn 0.294797 0.769769 -0.566172
v 0.78537 -168.808 758.23
vn 0.0412048 -0.525137 0.850019
v 0.15537 -163.645 776.347
vn 0.513689 -0.488181 0.705552
v 2.67537 -165.535 774.142
vn 0.697455 0.490455 -0.522505
v 3.30537 -164.256 765.16
vn 0.179478 0.687118 -0.704029
v 1.41537 -164.905 763.127
vn 0.268889 -0.373899 0.887636
v 0.78537 -159.865 778.237
vn 0.677859 0.329726 -0.657105
v 2.06735 -159.235 767.68
vn 0.657738 -0.143487 0.739454
v 3.30537 -152.935 778.936
vn 0.420151 -0.236811 0.87601
v 2.04537 -155.455 779.251
vn 0.365026 -0.107323 0.924791
v 2.04537 -152.305 779.832
vn 0.0106558 -0.185255 0.982633
v -0.47463 -154.195 780.009
vn 0.302846 0.157847 -0.939877
v 2.04537 -151.675 770.096
vn 0.127531 0.228878 -0.965065
v -1.10463 -154.195 769.083
vn 0.592437 -0.0288138 0.805102
v 3.30537 -149.785 779.3
vn 0.116295 -0.0114515 0.993149
v 0.78537 -149.155 780.344
vn -0.0900893 0.0489045 -0.994732
v -1.10463 -149.155 769.919
vn 0.35977 0.0940814 0.928285
v 2.04537 -145.375 779.881
vn -0.129071 0.106525 0.985897
v -1.10463 -144.745 780.117
vn 0.651953 -0.048443 -0.756711
v 3.30537 -146.005 771.15
vn 0.197283 -0.0845219 -0.976696
v 0.78537 -146.005 769.949
vn 0.492299 0.192295 0.848919
v 3.30537 -139.705 778.355
vn 0.129657 0.225524 0.965571
v 1.41537 -140.335 779.172
vn 0.486338 -0.211125 -0.847881
v 2.67537 -139.705 769.594
vn 0.0146853 -0.281344 -0.959494
v 0.15537 -139.075 768.551
vn 0.168074 0.305858 0.937124
v 1.41537 -134.665 777.528
vn 0.179995 -0.382719 -0.906161
v 0.15537 -130.255 765.214
vn 0.298785 0.229788 0.926242
v 2.04537 -120.175 772.193
vn 0.263041 -0.399615 -0.878133
v 0.78537 -113.875 757.3
vn 0.0205502 -0.310739 -0.950273
v 0.15537 -107.575 754.632
vn 0.211685 0.11154 0.970952
v 2.04537 -104.425 769.388
vn 0.376516 -0.288576 -0.880318
v 2.67537 -105.685 754.573
vn 0.151399 -0.194288 -0.969191
v 1.41537 -98.1245 752.279
vn 0.123557 -0.0352408 -0.991712
v 0.78537 -93.7145 751.639
vn 0.258371 0.120312 -0.958525
v 2.67537 -88.0445 752.348
vn -0.0161675 0.190506 -0.981553
v -1.10463 -86.1545 752.151
vn 0.234525 0.298008 -0.925305
v 2.04537 -84.2645 752.949
vn 0.0305349 0.432046 -0.901335
v -0.47463 -82.973 753.19
vn 0.119175 0.282086 0.951958
v 0.78537 -80.3353 767.05
vn 0.243281 0.934292 0.260601
v 2.67537 -75.5085 762.64
vn 0.134458 0.773459 0.619421
v 0.78537 -76.0303 764.53
vn 0.0934596 0.537079 0.838339
v 0.15537 -77.3345 765.765
vn 0.142229 0.669307 -0.729245
v 2.04537 -78.5945 756.118
vn 0.153907 0.880384 -0.448594
v 1.41537 -75.6463 759.49
vn 0.135431 0.988605 -0.0657114
v 1.41537 -75.0951 761.38
vn -0.147533 -0.979825 0.13482
v -1.73463 -186.654 736.18
vn -0.425166 -0.904895 0.01994
v -2.99463 -187.019 727.36
vn -0.176223 -0.981335 -0.0769933
v -1.73463 -187.274 722.95
vn -0.652174 -0.754584 -0.0726094
v -3.62463 -186.379 722.32
vn -0.213464 -0.896645 0.387893
v -2.36463 -181.614 753.19
vn -0.307477 -0.916215 0.25692
v -2.36463 -184.715 744.37
vn -0.706771 -0.682532 0.186076
v -4.25463 -183.805 743.551
vn -0.648081 -0.753927 0.107635
v -4.27924 -185.695 734.92
vn -0.950782 -0.307894 -0.0348507
v -5.32268 -184.435 731.14
vn -0.956934 -0.285927 0.0502368
v -5.45064 -183.805 734.92
vn -0.96514 0.25017 -0.0769365
v -5.47033 -181.915 733.03
vn -0.894891 -0.437582 -0.0877058
v -3.75752 -184.435 710.98
vn -0.99755 0.0121657 -0.0688929
v -3.91502 -183.175 710.98
vn -0.318441 -0.00269826 -0.947939
v -1.73463 -183.805 709.242
vn -0.392138 -0.896733 -0.205178
v -2.99463 -185.138 710.35
vn -0.613491 -0.147482 -0.775808
v -2.99463 -184.435 709.922
vn -0.471387 -0.754137 0.457244
v -3.62463 -176.377 762.01
vn -0.815891 -0.502973 0.285202
v -4.88463 -177.973 756.97
vn -0.608104 -0.732732 0.305472
v -4.25463 -180.595 753.19
vn -0.919772 -0.370028 0.130762
v -5.2833 -180.655 749.41
vn -0.976844 0.199366 -0.0776458
v -5.51463 -178.135 745.997
vn -0.661491 0.717872 -0.217003
v -4.43674 -177.505 742.48
vn -0.737867 0.668518 -0.0929298
v -4.25463 -180.031 731.14
vn -0.186662 0.979615 -0.0742429
v -1.73463 -179.025 725.47
vn -0.524991 0.812083 -0.254766
v -2.45176 -180.025 711.61
vn -0.892942 0.39561 -0.214818
v -3.7083 -181.285 712.24
vn -0.544955 0.418137 -0.726764
v -2.36463 -181.285 710.118
vn -0.338131 -0.742047 0.578821
v -2.36463 -173.095 767.575
vn -0.678712 -0.570223 0.462813
v -4.52533 -171.835 767.05
vn -0.0989277 -0.829855 0.549139
v -1.73463 -175.895 763.9
vn -0.906608 -0.341825 0.24742
v -5.24393 -172.465 764.53
vn -0.963896 0.225435 -0.141719
v -5.4408 -173.725 756.34
vn -0.988431 -0.135439 0.0682618
v -5.62783 -176.245 756.34
vn -0.767826 0.555754 -0.318717
v -4.68283 -172.465 755.71
vn -0.240983 -0.599451 0.763273
v -2.36463 -167.425 773.443
vn -0.608892 -0.50922 0.608232
v -3.62463 -168.113 772.09
vn -0.296491 -0.693997 0.656095
v -2.36463 -170.826 770.2
vn -0.872811 -0.31726 0.370873
v -5.31283 -167.425 770.2
vn -0.998145 -0.0437066 0.0423734
v -5.85424 -166.795 768.31
vn -0.893253 0.324461 -0.311164
v -5.49986 -167.425 764.53
vn -0.103928 0.881065 -0.461437
v -2.36463 -170.934 755.08
vn -0.441167 -0.415674 0.795354
v -2.99463 -161.755 776.898
vn -0.657573 0.543483 -0.52175
v -2.99463 -165.535 762.765
vn -0.241329 -0.332359 0.911755
v -1.73463 -159.392 778.39
vn -0.768562 -0.287579 0.571499
v -4.7419 -159.235 776.5
vn -0.985436 0.0671614 -0.156224
v -5.7558 -159.865 772.09
vn -0.90172 0.139524 -0.409187
v -5.51463 -158.237 771.46
vn -0.95419 -0.109136 0.278585
v -5.65736 -157.975 775.24
vn 0.0380079 0.461798 -0.88617
v -2.36463 -159.235 767.429
vn -0.615497 0.265153 -0.742197
v -3.62463 -156.715 769.348
vn -0.785063 0.332613 -0.522537
v -4.80096 -161.125 768.31
vn -0.418013 -0.0804966 0.904868
v -2.99463 -152.501 779.65
vn -0.73136 -0.163265 0.662161
v -4.54502 -156.085 777.76
vn -0.897262 0.0298358 -0.440489
v -5.51463 -148.84 773.35
vn -0.990246 -0.0337175 0.135186
v -6.04127 -147.265 775.87
vn -0.512462 0.0697981 -0.855868
v -2.99463 -149.785 770.589
vn -0.562555 0.092474 0.821572
v -4.25463 -143.485 778.769
vn -0.814518 -0.0105763 0.580042
v -5.37189 -145.375 777.76
vn -0.76284 -0.130296 -0.633323
v -5.07658 -143.485 772.09
vn -0.98397 -0.0602551 -0.167846
v -6.14463 -144.272 774.61
vn -0.286383 -0.121773 -0.950345
v -1.73463 -144.115 769.86
vn -0.322163 0.248048 0.91361
v -2.99463 -139.705 778.739
vn -0.915515 0.0570229 0.398223
v -6.10033 -138.445 775.87
vn -0.444012 -0.300268 -0.844211
v -2.99463 -137.185 768.561
vn -0.948465 -0.165143 -0.270446
v -6.45471 -135.925 772.09
vn -0.748433 -0.273702 -0.604099
v -5.51463 -135.925 770.267
vn -0.278282 -0.394566 -0.875715
v -2.36463 -128.995 764.919
vn -0.580439 -0.359676 -0.730564
v -5.51463 -127.105 765.667
vn -0.133598 0.253539 0.958055
v -1.73463 -120.905 772.72
vn -0.16449 -0.40616 -0.898875
v -1.73463 -114.505 757.506
vn -0.310572 0.109249 0.944251
v -3.62463 -106.315 769.506
vn -0.595359 -0.327128 -0.733849
v -6.14463 -110.725 757.723
vn -0.318923 -0.299754 -0.899131
v -4.25463 -105.685 754.661
vn -0.209487 -0.167657 -0.963331
v -3.62463 -97.4945 752.378
vn -0.538079 -0.198326 -0.81923
v -6.14463 -100.645 754.228
vn -0.181094 0.0216079 -0.983228
v -2.99463 -91.8245 751.797
vn -0.474573 -0.0350794 -0.879517
v -5.51463 -92.4545 752.624
vn -0.303492 0.177213 -0.93621
v -4.25463 -86.1545 752.712
vn -0.0565479 0.172525 0.983381
v -1.73463 -81.7445 767.419
vn -0.171944 0.351602 -0.920223
v -2.99463 -83.4286 753.19
vn -0.416433 0.379003 -0.826402
v -6.14463 -82.3745 754.593
vn -0.110373 0.424016 0.898904
v -1.73463 -78.5945 766.474
vn -0.11452 0.691022 0.713704
v -1.73463 -76.7045 765.283
vn -0.29195 0.863123 0.412049
v -4.88463 -75.9909 763.27
vn -0.421448 0.906217 0.0339517
v -6.14463 -76.1976 762.01
vn -0.0805791 0.771024 -0.631688
v -2.36463 -76.424 758.23
vn -0.246445 0.865025 -0.437031
v -3.62463 -75.8235 759.49
vn -0.353995 0.735803 -0.577305
v -5.52292 -77.3345 758.23
vn -0.431598 0.85706 -0.281375
v -6.14463 -76.3649 760.75
vn -0.159329 0.567134 -0.808068
v -2.99463 -80.4845 754.661
vn -0.0486393 0.938311 0.342355
v -1.73463 -75.2132 763.27
vn -0.0744652 0.995863 -0.0520762
v -1.73463 -74.9573 761.38
vn -0.247748 0.964013 0.0964314
v -3.62463 -75.2821 762.01
vn -0.0489328 0.934022 -0.353849
v -1.73463 -75.2526 760.12
vn -0.261049 0.946222 -0.191093
v -3.62463 -75.3707 760.75
vn -0.938444 0.0138332 0.345154
v -7.68518 -123.325 769.57
vn -0.81224 -0.286556 -0.508087
v -7.40463 -121.028 764.53
vn -0.627855 0.165803 0.760465
v -6.77463 -120.805 770.395
vn -0.983574 -0.144208 -0.108561
v -8.46283 -118.915 765.79
vn -0.604996 0.0995443 0.789982
v -7.40463 -107.575 767.635
vn -0.827883 0.041217 0.559384
v -8.86643 -110.725 766.42
vn -0.888586 -0.211461 -0.407062
v -8.82705 -109.465 760.75
vn -0.625642 0.0276692 0.77962
v -8.03463 -103.165 766.809
vn -0.839377 -0.0199516 0.543184
v -9.04361 -103.165 765.79
vn -0.99249 -0.0824307 0.0903774
v -9.87049 -105.685 763.27
vn -0.932872 -0.125781 -0.337535
v -10.0772 -96.8645 757.6
vn -0.734625 -0.170294 -0.656754
v -8.96486 -96.8645 755.71
vn -0.79764 -0.0363565 -0.602037
v -9.57518 -92.4545 755.71
vn -0.821285 0.114278 -0.558956
v -9.84096 -86.7845 756.34
vn -0.987221 -0.011426 -0.158948
v -11.4947 -88.6745 760.75
vn -0.554611 0.122449 -0.823051
v -7.40463 -87.4145 753.953
vn -0.301406 0.226898 0.926105
v -8.03463 -81.1145 766.179
vn -0.649347 0.058664 0.758227
v -9.92463 -84.2645 765.805
vn -0.641618 0.340535 0.687286
v -9.92463 -81.2383 765.16
vn -0.888365 0.272252 0.369711
v -10.5497 -81.7445 764.53
vn -0.939555 0.0212825 0.341737
v -11.2585 -84.2645 763.9
vn -0.981807 0.189336 0.0143936
v -11.288 -83.6345 763.27
vn -0.63122 0.428444 -0.646527
v -8.03463 -81.8657 756.34
vn -0.766424 0.312583 -0.561147
v -9.21096 -83.0045 756.97
vn -0.755992 0.424496 -0.498276
v -9.13221 -81.1145 758.23
vn -0.919095 0.233016 -0.317755
v -10.7072 -84.2645 758.86
vn -0.6368 0.278882 -0.718826
v -8.03463 -83.6345 755.341
vn -0.293159 0.663772 0.688087
v -6.77463 -77.6052 764.53
vn -0.453598 0.814262 0.362252
v -7.40463 -77.0835 763.27
vn -0.624652 0.779114 0.0528248
v -8.01265 -77.3345 762.64
vn -0.584033 0.79588 -0.159627
v -7.40463 -76.9753 761.38
vn -0.364137 0.46764 0.80543
v -8.03463 -79.8545 765.667
vn -0.441364 0.648556 0.62014
v -8.03463 -78.3042 764.53
vn -0.587903 0.537415 0.604611
v -9.09648 -79.2245 764.53
vn -0.62243 0.694976 0.359984
v -8.66463 -78.2746 763.9
vn -0.773472 0.632445 0.0418818
v -9.27002 -78.5945 762.64
vn -0.760919 0.612177 -0.215038
v -9.09283 -78.5945 761.38
vn -0.79091 0.525494 0.313556
v -9.5358 -79.2245 763.9
vn -0.91207 0.406982 -0.0499471
v -10.0575 -79.8545 762.64
vn -0.522753 0.569124 -0.634687
v -6.77463 -79.2245 757.132
vn -0.589356 0.707358 -0.390262
v -7.40463 -77.4281 760.12
vn -0.714619 0.548038 -0.434711
v -8.66463 -79.2245 759.387
vn -0.855879 0.413083 -0.311181
v -9.77205 -80.4845 760.12
vn -0.291388 -0.321971 -0.900793
v -1.10463 -185.065 709.351
vn 0.0498737 0.471011 -0.880716
v 2.06735 -159.235 767.68
vn -0.380346 0.243797 -0.892132
v -1.10463 -154.195 769.083
vn -0.791375 -0.219637 -0.570513
v -3.75752 -184.435 710.98
vn -0.760131 0.165973 -0.628214
v -3.91502 -183.175 710.98
vn -0.596029 -0.417361 -0.685974
v -2.99463 -185.138 710.35
vn -0.1789 0.977032 -0.115775
v -1.73463 -179.025 725.47
vn -0.0445883 0.71392 -0.698807
v -2.99463 -165.535 762.765
vn -0.541829 0.408118 -0.734752
v -2.36463 -159.235 767.429
f 44//44 3//3 46//46
f 2//2 44//44 1//1
f 3//3 44//44 2//2
f 52//52 7//7 8//8
f 3//3 7//7 46//46
f 2//2 4//4 3//3
f 7//7 3//3 8//8
f 5//5 8//8 3//3
f 3//3 4//4 5//5
f 4//4 12//12 5//5
f 4//4 6//6 12//12
f 8//8 5//5 56//56
f 56//56 5//5 12//12
f 6//6 63//63 12//12
f 2//2 9//9 10//10
f 10//10 11//11 6//6
f 53//53 11//11 9//9
f 9//9 11//11 10//10
f 10//10 4//4 2//2
f 10//10 6//6 4//4
f 13//13 17//17 18//18
f 13//13 18//18 75//75
f 13//13 14//14 17//17
f 77//77 15//15 13//13
f 13//13 15//15 14//14
f 15//15 79//79 14//14
f 14//14 79//79 100//100
f 14//14 100//100 20//20
f 110//110 89//89 22//22
f 22//22 89//89 16//16
f 17//17 16//16 18//18
f 23//23 14//14 19//19
f 20//20 19//19 14//14
f 95//95 19//19 20//20
f 22//22 16//16 21//21
f 24//24 22//22 21//21
f 22//22 114//114 110//110
f 21//21 16//16 17//17
f 17//17 23//23 21//21
f 17//17 14//14 23//23
f 25//25 21//21 23//23
f 26//26 117//117 24//24
f 21//21 27//27 24//24
f 21//21 28//28 27//27
f 118//118 28//28 21//21
f 118//118 21//21 25//25
f 29//29 26//26 27//27
f 27//27 28//28 30//30
f 26//26 24//24 27//27
f 28//28 32//32 30//30
f 28//28 121//121 32//32
f 27//27 30//30 29//29
f 26//26 29//29 122//122
f 29//29 128//128 122//122
f 128//128 124//124 122//122
f 30//30 31//31 33//33
f 30//30 32//32 31//31
f 30//30 33//33 29//29
f 31//31 133//133 35//35
f 133//133 31//31 32//32
f 34//34 29//29 33//33
f 36//36 34//34 33//33
f 34//34 128//128 29//29
f 135//135 34//34 36//36
f 31//31 37//37 33//33
f 31//31 35//35 37//37
f 135//135 36//36 41//41
f 33//33 37//37 36//36
f 37//37 39//39 36//36
f 35//35 39//39 37//37
f 35//35 38//38 39//39
f 36//36 40//40 41//41
f 40//40 36//36 39//39
f 39//39 42//42 40//40
f 39//39 38//38 42//42
f 44//44 40//40 42//42
f 46//46 41//41 40//40
f 46//46 141//141 41//41
f 38//38 43//43 42//42
f 43//43 38//38 45//45
f 141//141 46//46 144//144
f 43//43 44//44 42//42
f 43//43 45//45 1//1
f 44//44 46//46 40//40
f 1//1 45//45 47//47
f 47//47 45//45 145//145
f 46//46 7//7 144//144
f 1//1 44//44 43//43
f 49//49 1//1 47//47
f 47//47 48//48 49//49
f 145//145 48//48 47//47
f 52//52 144//144 7//7
f 2//2 1//1 49//49
f 9//9 2//2 49//49
f 49//49 51//51 9//9
f 48//48 50//50 49//49
f 49//49 50//50 51//51
f 54//54 51//51 50//50
f 53//53 9//9 51//51
f 148//148 54//54 50//50
f 148//148 150//150 54//54
f 8//8 56//56 52//52
f 6//6 11//11 63//63
f 53//53 55//55 64//64
f 53//53 51//51 54//54
f 53//53 54//54 55//55
f 54//54 150//150 55//55
f 68//68 55//55 150//150
f 68//68 150//150 151//151
f 56//56 57//57 58//58
f 12//12 57//57 56//56
f 63//63 57//57 12//12
f 56//56 59//59 52//52
f 52//52 59//59 152//152
f 57//57 60//60 58//58
f 152//152 59//59 155//155
f 59//59 56//56 58//58
f 60//60 57//57 66//66
f 57//57 63//63 66//66
f 59//59 154//154 155//155
f 60//60 66//66 62//62
f 61//61 59//59 58//58
f 61//61 154//154 59//59
f 58//58 60//60 61//61
f 66//66 67//67 62//62
f 60//60 62//62 153//153
f 53//53 64//64 11//11
f 11//11 64//64 63//63
f 64//64 55//55 68//68
f 66//66 63//63 65//65
f 64//64 68//68 65//65
f 64//64 65//65 63//63
f 66//66 65//65 67//67
f 68//68 156//156 65//65
f 65//65 156//156 67//67
f 69//69 71//71 70//70
f 71//71 69//69 159//159
f 72//72 15//15 70//70
f 73//73 70//70 71//71
f 72//72 70//70 73//73
f 71//71 161//161 73//73
f 18//18 92//92 75//75
f 92//92 74//74 75//75
f 92//92 163//163 74//74
f 74//74 76//76 75//75
f 75//75 76//76 69//69
f 74//74 164//164 76//76
f 75//75 69//69 13//13
f 76//76 159//159 69//69
f 164//164 159//159 76//76
f 13//13 69//69 77//77
f 69//69 70//70 77//77
f 15//15 77//77 70//70
f 15//15 72//72 78//78
f 15//15 78//78 79//79
f 72//72 73//73 78//78
f 73//73 83//83 78//78
f 73//73 161//161 83//83
f 161//161 173//173 83//83
f 78//78 80//80 79//79
f 80//80 81//81 79//79
f 80//80 82//82 81//81
f 84//84 78//78 83//83
f 84//84 80//80 78//78
f 85//85 82//82 80//80
f 108//108 81//81 82//82
f 86//86 85//85 84//84
f 85//85 80//80 84//84
f 87//87 108//108 82//82
f 172//172 85//85 86//86
f 82//82 85//85 87//87
f 84//84 83//83 88//88
f 84//84 297//297 86//86
f 172//172 87//87 85//85
f 83//83 173//173 88//88
f 86//86 297//297 172//172
f 89//89 110//110 90//90
f 18//18 89//89 92//92
f 92//92 89//89 90//90
f 188//188 91//91 90//90
f 91//91 92//92 90//90
f 89//89 18//18 16//16
f 93//93 95//95 199//199
f 93//93 19//19 95//95
f 199//199 95//95 94//94
f 95//95 182//182 94//94
f 96//96 20//20 98//98
f 95//95 20//20 96//96
f 95//95 96//96 97//97
f 95//95 97//97 182//182
f 20//20 100//100 101//101
f 20//20 101//101 98//98
f 97//97 96//96 99//99
f 182//182 97//97 99//99
f 96//96 98//98 99//99
f 182//182 99//99 105//105
f 101//101 100//100 107//107
f 102//102 101//101 107//107
f 98//98 101//101 102//102
f 98//98 102//102 99//99
f 107//107 104//104 102//102
f 99//99 102//102 103//103
f 104//104 103//103 102//102
f 105//105 103//103 106//106
f 106//106 103//103 104//104
f 109//109 106//106 104//104
f 99//99 103//103 105//105
f 79//79 81//81 100//100
f 100//100 81//81 107//107
f 108//108 107//107 81//81
f 108//108 104//104 107//107
f 87//87 109//109 108//108
f 109//109 104//104 108//108
f 22//22 24//24 114//114
f 114//114 113//113 110//110
f 110//110 113//113 111//111
f 188//188 90//90 110//110
f 110//110 111//111 188//188
f 23//23 19//19 112//112
f 25//25 23//23 112//112
f 25//25 112//112 115//115
f 112//112 199//199 115//115
f 112//112 19//19 93//93
f 112//112 93//93 199//199
f 117//117 113//113 114//114
f 117//117 116//116 113//113
f 113//113 116//116 193//193
f 25//25 115//115 118//118
f 118//118 115//115 119//119
f 199//199 119//119 115//115
f 116//116 117//117 120//120
f 114//114 24//24 117//117
f 28//28 118//118 121//121
f 119//119 121//121 118//118
f 117//117 26//26 120//120
f 123//123 120//120 26//26
f 202//202 120//120 125//125
f 116//116 120//120 202//202
f 126//126 298//298 207//207
f 126//126 32//32 121//121
f 119//119 207//207 298//298
f 26//26 122//122 123//123
f 123//123 122//122 124//124
f 120//120 123//123 125//125
f 125//125 123//123 124//124
f 125//125 124//124 129//129
f 129//129 124//124 128//128
f 210//210 125//125 129//129
f 210//210 202//202 125//125
f 207//207 127//127 126//126
f 130//130 126//126 127//127
f 128//128 131//131 129//129
f 129//129 131//131 132//132
f 210//210 129//129 132//132
f 126//126 133//133 32//32
f 126//126 134//134 133//133
f 130//130 134//134 126//126
f 131//131 128//128 34//34
f 131//131 34//34 135//135
f 136//136 131//131 135//135
f 131//131 136//136 132//132
f 215//215 132//132 220//220
f 133//133 137//137 35//35
f 133//133 134//134 137//137
f 219//219 134//134 130//130
f 135//135 41//41 139//139
f 136//136 135//135 139//139
f 220//220 132//132 136//136
f 139//139 220//220 136//136
f 38//38 35//35 137//137
f 138//138 137//137 134//134
f 134//134 219//219 138//138
f 139//139 227//227 220//220
f 140//140 137//137 138//138
f 141//141 227//227 139//139
f 139//139 41//41 141//141
f 140//140 38//38 137//137
f 225//225 140//140 138//138
f 140//140 225//225 228//228
f 141//141 144//144 227//227
f 140//140 142//142 38//38
f 45//45 38//38 142//142
f 45//45 142//142 145//145
f 140//140 228//228 142//142
f 142//142 143//143 145//145
f 228//228 143//143 142//142
f 231//231 143//143 228//228
f 48//48 145//145 146//146
f 147//147 48//48 146//146
f 147//147 50//50 48//48
f 143//143 146//146 145//145
f 143//143 232//232 146//146
f 232//232 147//147 146//146
f 147//147 148//148 50//50
f 148//148 147//147 149//149
f 234//234 147//147 232//232
f 234//234 149//149 147//147
f 149//149 150//150 148//148
f 144//144 52//52 152//152
f 237//237 229//229 144//144
f 237//237 144//144 152//152
f 149//149 151//151 150//150
f 156//156 151//151 248//248
f 240//240 152//152 155//155
f 237//237 152//152 240//240
f 154//154 61//61 153//153
f 61//61 60//60 153//153
f 249//249 154//154 153//153
f 241//241 154//154 249//249
f 241//241 155//155 154//154
f 155//155 241//241 240//240
f 62//62 157//157 158//158
f 62//62 67//67 157//157
f 67//67 156//156 157//157
f 156//156 244//244 157//157
f 252//252 157//157 244//244
f 151//151 156//156 68//68
f 153//153 62//62 158//158
f 249//249 153//153 158//158
f 249//249 158//158 250//250
f 250//250 158//158 252//252
f 157//157 252//252 158//158
f 159//159 160//160 71//71
f 160//160 159//159 166//166
f 71//71 160//160 161//161
f 160//160 162//162 161//161
f 167//167 162//162 160//160
f 170//170 162//162 167//167
f 162//162 170//170 173//173
f 173//173 161//161 162//162
f 164//164 74//74 163//163
f 163//163 177//177 164//164
f 165//165 164//164 177//177
f 168//168 165//165 178//178
f 164//164 166//166 159//159
f 164//164 165//165 166//166
f 166//166 165//165 168//168
f 166//166 168//168 167//167
f 167//167 168//168 169//169
f 167//167 160//160 166//166
f 167//167 169//169 184//184
f 174//174 302//302 300//300
f 167//167 171//171 170//170
f 174//174 300//300 301//301
f 171//171 167//167 184//184
f 301//301 184//184 185//185
f 172//172 185//185 87//87
f 297//297 302//302 174//174
f 297//297 174//174 172//172
f 174//174 185//185 172//172
f 174//174 301//301 185//185
f 188//188 175//175 91//91
f 91//91 175//175 163//163
f 163//163 175//175 177//177
f 175//175 176//176 177//177
f 92//92 91//91 163//163
f 178//178 165//165 177//177
f 177//177 176//176 178//178
f 176//176 191//191 178//178
f 179//179 178//178 191//191
f 192//192 180//180 179//179
f 168//168 178//178 179//179
f 168//168 179//179 169//169
f 94//94 180//180 199//199
f 169//169 179//179 180//180
f 94//94 303//303 180//180
f 180//180 182//182 181//181
f 184//184 169//169 181//181
f 169//169 180//180 181//181
f 182//182 183//183 181//181
f 183//183 106//106 185//185
f 185//185 106//106 109//109
f 106//106 183//183 105//105
f 105//105 183//183 182//182
f 181//181 183//183 184//184
f 184//184 183//183 185//185
f 185//185 109//109 87//87
f 195//195 187//187 186//186
f 194//194 196//196 187//187
f 111//111 186//186 188//188
f 175//175 188//188 186//186
f 175//175 186//186 187//187
f 187//187 176//176 175//175
f 189//189 176//176 187//187
f 189//189 187//187 196//196
f 191//191 189//189 197//197
f 176//176 189//189 191//191
f 198//198 192//192 190//190
f 190//190 191//191 197//197
f 190//190 192//192 179//179
f 191//191 190//190 179//179
f 180//180 192//192 199//199
f 195//195 113//113 193//193
f 195//195 193//193 194//194
f 111//111 113//113 195//195
f 186//186 111//111 195//195
f 195//195 194//194 187//187
f 196//196 197//197 189//189
f 198//198 201//201 192//192
f 204//204 198//198 197//197
f 209//209 198//198 204//204
f 199//199 304//304 119//119
f 192//192 201//201 199//199
f 197//197 198//198 190//190
f 200//200 203//203 194//194
f 116//116 200//200 193//193
f 194//194 193//193 200//200
f 203//203 196//196 194//194
f 206//206 196//196 203//203
f 206//206 197//197 196//196
f 197//197 206//206 204//204
f 304//304 207//207 119//119
f 209//209 305//305 201//201
f 209//209 201//201 198//198
f 200//200 116//116 202//202
f 203//203 200//200 211//211
f 211//211 200//200 202//202
f 203//203 211//211 206//206
f 205//205 209//209 204//204
f 205//205 212//212 208//208
f 212//212 205//205 204//204
f 305//305 208//208 299//299
f 305//305 209//209 208//208
f 209//209 205//205 208//208
f 210//210 211//211 202//202
f 211//211 210//210 216//216
f 208//208 212//212 214//214
f 206//206 211//211 213//213
f 206//206 213//213 204//204
f 211//211 216//216 213//213
f 204//204 213//213 212//212
f 130//130 299//299 214//214
f 208//208 214//214 299//299
f 215//215 210//210 132//132
f 213//213 216//216 221//221
f 212//212 217//217 214//214
f 212//212 213//213 218//218
f 214//214 219//219 130//130
f 210//210 215//215 216//216
f 219//219 214//214 217//217
f 217//217 224//224 222//222
f 212//212 218//218 217//217
f 213//213 221//221 218//218
f 217//217 218//218 223//223
f 217//217 223//223 224//224
f 218//218 221//221 223//223
f 217//217 222//222 219//219
f 215//215 221//221 216//216
f 221//221 215//215 220//220
f 256//256 221//221 220//220
f 220//220 227//227 256//256
f 256//256 254//254 221//221
f 222//222 138//138 219//219
f 138//138 222//222 225//225
f 222//222 224//224 226//226
f 226//226 224//224 255//255
f 223//223 255//255 224//224
f 225//225 222//222 226//226
f 227//227 229//229 256//256
f 255//255 230//230 226//226
f 228//228 225//225 230//230
f 225//225 226//226 230//230
f 144//144 229//229 227//227
f 228//228 230//230 231//231
f 231//231 230//230 233//233
f 233//233 230//230 265//265
f 231//231 232//232 143//143
f 234//234 232//232 235//235
f 232//232 231//231 233//233
f 234//234 236//236 149//149
f 236//236 238//238 149//149
f 236//236 239//239 238//238
f 235//235 236//236 234//234
f 235//235 269//269 236//236
f 149//149 238//238 151//151
f 238//238 248//248 151//151
f 238//238 239//239 248//248
f 269//269 239//239 236//236
f 281//281 240//240 241//241
f 240//240 270//270 237//237
f 241//241 242//242 281//281
f 249//249 242//242 241//241
f 281//281 285//285 240//240
f 242//242 282//282 281//281
f 282//282 242//242 243//243
f 253//253 247//247 243//243
f 156//156 248//248 244//244
f 245//245 252//252 244//244
f 245//245 253//253 252//252
f 244//244 246//246 245//245
f 246//246 244//244 248//248
f 247//247 253//253 245//245
f 239//239 293//293 248//248
f 293//293 246//246 248//248
f 245//245 246//246 247//247
f 294//294 246//246 293//293
f 246//246 294//294 247//247
f 249//249 250//250 251//251
f 242//242 249//249 251//251
f 251//251 250//250 253//253
f 253//253 250//250 252//252
f 251//251 243//243 242//242
f 253//253 243//243 251//251
f 221//221 257//257 223//223
f 221//221 254//254 257//257
f 223//223 257//257 255//255
f 257//257 254//254 263//263
f 257//257 263//263 260//260
f 259//259 263//263 254//254
f 256//256 259//259 254//254
f 260//260 255//255 257//257
f 256//256 229//229 258//258
f 256//256 258//258 259//259
f 259//259 258//258 261//261
f 259//259 261//261 262//262
f 260//260 230//230 255//255
f 258//258 229//229 261//261
f 261//261 271//271 262//262
f 263//263 262//262 274//274
f 262//262 263//263 259//259
f 262//262 271//271 274//274
f 230//230 260//260 265//265
f 265//265 260//260 264//264
f 260//260 263//263 264//264
f 235//235 232//232 233//233
f 233//233 265//265 235//235
f 229//229 271//271 261//261
f 264//264 266//266 265//265
f 264//264 268//268 266//266
f 264//264 263//263 268//268
f 269//269 266//266 267//267
f 265//265 266//266 235//235
f 235//235 266//266 269//269
f 263//263 274//274 268//268
f 267//267 266//266 268//268
f 268//268 279//279 267//267
f 267//267 280//280 269//269
f 270//270 229//229 237//237
f 271//271 229//229 270//270
f 271//271 270//270 272//272
f 273//273 292//292 275//275
f 291//291 273//273 272//272
f 273//273 291//291 292//292
f 292//292 296//296 279//279
f 271//271 272//272 273//273
f 275//275 279//279 268//268
f 279//279 275//275 292//292
f 268//268 274//274 275//275
f 274//274 271//271 273//273
f 273//273 275//275 274//274
f 277//277 278//278 276//276
f 276//276 278//278 293//293
f 278//278 277//277 279//279
f 277//277 267//267 279//279
f 277//277 280//280 267//267
f 296//296 278//278 279//279
f 293//293 239//239 276//276
f 280//280 239//239 269//269
f 280//280 276//276 239//239
f 280//280 277//277 276//276
f 285//285 270//270 240//240
f 281//281 286//286 285//285
f 247//247 284//284 243//243
f 247//247 294//294 284//284
f 282//282 286//286 281//281
f 243//243 283//283 282//282
f 284//284 283//283 243//243
f 270//270 285//285 272//272
f 285//285 287//287 272//272
f 285//285 286//286 287//287
f 286//286 282//282 288//288
f 287//287 286//286 288//288
f 288//288 283//283 289//289
f 283//283 288//288 282//282
f 290//290 283//283 284//284
f 294//294 290//290 284//284
f 291//291 272//272 287//287
f 287//287 288//288 291//291
f 291//291 289//289 292//292
f 288//288 289//289 291//291
f 290//290 289//289 283//283
f 292//292 290//290 296//296
f 290//290 292//292 289//289
f 295//295 294//294 293//293
f 278//278 295//295 293//293
f 290//290 295//295 296//296
f 295//295 278//278 296//296
f 295//295 290//290 294//294
