# Wavafront OBJ file of BodyParts3D
# BodyParts3D, Copyright(C) 2010-2011 The Database Center for Life Science licensed under CC Attribution-Share Alike 2.1 Japan.
vn 0.902657 -0.309148 -0.299396
v 23.5392 -149.392 717.104
vn 0.980784 -0.0353153 0.191873
v 23.9337 -148.24 717.104
vn 0.979604 0.0362928 0.197631
v 24.004 -147.24 716.604
vn 0.794958 -0.219545 -0.565545
v 23.5392 -148.24 716.1
vn 0.979381 0.171643 -0.106547
v 23.7697 -144.24 717.104
vn 0.992467 0.0918218 -0.0811091
v 23.1056 -144.24 715.104
vn 0.869107 0.38258 0.313504
v 23.4337 -143.74 718.104
vn 0.924527 0.36565 -0.107471
v 23.2853 -143.24 717.104
vn 0.934042 0.312977 0.172079
v 23.129 -142.74 717.104
vn 0.836579 0.45462 0.305706
v 23.1759 -141.24 716.104
vn 0.998554 -0.0513804 -0.0157789
v 23.4337 -143.74 713.104
vn 0.961866 -0.00511067 -0.273474
v 23.3478 -142.74 712.604
vn 0.997909 0.0247379 0.0597132
v 23.1759 -141.24 714.604
vn 0.522854 -0.473693 -0.708688
v 19.7147 -158.24 717.604
vn 0.539433 -0.793733 0.281069
v 19.5114 -158.74 718.104
vn 0.827579 -0.379975 0.413196
v 21.0392 -152.74 724.956
vn 0.858656 -0.394214 0.327575
v 22.7931 -154.74 719.604
vn 0.482521 -0.167717 -0.859677
v 21.5392 -153.24 717.295
vn 0.968458 -0.0295295 0.247422
v 22.5392 -148.74 724.14
vn 0.151805 0.163192 0.974845
v 21.5392 -149.24 724.795
vn -0.175946 0.174363 0.968834
v 20.0392 -151.24 725.116
vn 0.818468 -0.353758 -0.452731
v 23.0392 -151.24 717.592
vn 0.0376274 -0.462712 -0.88571
v 23.0392 -149.24 716.881
vn 0.0803467 -0.178332 -0.980685
v 22.5392 -150.74 717.389
vn 0.290143 -0.300337 -0.908634
v 21.0392 -149.74 717.272
vn 0.564852 0.617817 0.547033
v 21.0392 -145.297 723.104
vn -0.28116 0.134404 0.950202
v 20.0392 -147.74 724.295
vn 0.18162 0.571265 0.800419
v 20.0392 -145.24 723.795
vn -0.206547 0.20191 0.957377
v 19.5392 -145.74 723.952
vn 0.671225 0.494143 0.552521
v 21.5392 -144.733 721.604
vn 0.823136 -0.156532 -0.545844
v 23.0392 -145.433 715.104
vn 0.337889 -0.554155 -0.760752
v 22.5392 -146.438 715.104
vn -0.0112761 -0.545917 -0.837763
v 22.0392 -146.74 715.272
vn 0.813512 -0.429441 -0.392146
v 23.0392 -144.826 714.604
vn 0.500212 -0.619056 -0.60544
v 22.5392 -145.08 714.104
vn 0.318991 -0.822986 -0.470042
v 22.5392 -144.72 713.604
vn 0.0508306 -0.79855 -0.599779
v 22.0392 -144.752 713.604
vn -0.0320802 -0.797133 -0.602951
v 20.0392 -144.439 713.604
vn 0.59366 0.471674 0.65199
v 21.7462 -143.24 720.604
vn 0.594789 0.679765 0.429121
v 21.5392 -141.9 719.604
vn 0.0425946 0.792863 0.60791
v 20.5392 -141.74 720.066
vn 0.239666 0.725388 0.645269
v 20.0392 -144.04 722.104
vn 0.704487 0.525604 0.476905
v 22.1915 -141.74 718.104
vn 0.506116 0.724699 0.467609
v 22.5392 -140.572 716.604
vn 0.372506 0.806377 0.459342
v 21.5392 -141.322 718.104
vn 0.493153 -0.786297 -0.372206
v 23.0392 -143.74 712.049
vn 0.444417 0.885532 -0.135372
v 21.5392 -140.322 713.604
vn 0.798875 -0.164232 -0.578642
v 22.3009 -142.24 710.604
vn 0.155684 -0.933955 -0.3217
v 21.0392 -142.861 709.604
vn -0.10878 -0.923941 -0.366743
v 20.0392 -143.165 710.104
vn -0.136404 -0.954175 -0.266354
v 20.0392 -142.978 709.604
vn -0.129292 -0.983089 -0.129689
v 20.0392 -142.884 709.104
vn 0.221713 -0.973032 -0.0636491
v 20.0392 -142.845 708.604
vn 0.514232 -0.765262 -0.387221
v 19.5392 -143.24 710.523
vn -0.326936 -0.909477 -0.256837
v 19.5392 -142.767 709.604
vn 0.555869 -0.811689 -0.179363
v 20.2853 -142.24 706.604
vn 0.693299 -0.714126 -0.0967486
v 19.1915 -143.24 699.604
vn 0.947233 0.270367 -0.172193
v 19.5392 -142.173 702.604
vn 0.481709 0.876325 -0.00321834
v 22.5829 -140.24 715.604
vn 0.146044 0.983857 -0.103421
v 21.5392 -140.103 715.104
vn 0.11482 0.989725 0.0852113
v 20.0392 -139.876 715.604
vn 0.0736707 0.927756 0.365844
v 19.5392 -140.189 717.104
vn 0.252701 0.965662 0.060325
v 20.0392 -139.447 712.104
vn 0.665829 0.724803 -0.177011
v 20.0392 -139.501 711.104
vn 0.176749 0.982796 0.0535935
v 19.5392 -139.33 711.604
vn 0.562192 -0.759059 0.328282
v 19.0392 -157.24 723.246
vn -0.27701 -0.767077 0.57867
v 16.0392 -159.345 720.604
vn 0.150811 -0.685694 -0.712096
v 19.0392 -158.579 717.604
vn 0.11895 -0.451959 -0.884073
v 19.0392 -158.24 717.381
vn 0.222972 -0.948438 0.225274
v 17.0392 -159.58 718.604
vn -0.0787229 -0.192427 0.978148
v 17.0392 -155.24 724.819
vn 0.0032755 -0.651553 0.758596
v 16.5392 -155.74 724.545
vn -0.538684 -0.0158353 0.842359
v 16.0392 -155.24 724.498
vn -0.711331 0.189384 0.676862
v 15.9572 -154.24 724.104
vn -0.568617 0.0292786 0.822081
v 16.0392 -153.24 723.873
vn -0.828185 -0.0305881 0.55962
v 15.3322 -152.74 723.104
vn 0.375163 -0.284019 -0.882375
v 18.0392 -153.24 715.342
vn -0.368748 0.144828 0.918177
v 18.0392 -152.24 724.772
vn -0.442852 0.4089 0.797924
v 17.1497 -149.74 723.604
vn -0.372499 0.0707662 0.925331
v 16.5392 -151.74 724.209
vn -0.627721 0.581051 0.518021
v 16.5229 -149.74 723.104
vn -0.492582 0.409828 0.767726
v 16.0392 -150.74 723.873
vn -0.75186 0.0323763 0.658527
v 15.5392 -151.74 723.689
vn -0.797935 0.478911 0.365983
v 15.4494 -150.74 723.104
vn -0.736663 0.571291 0.361876
v 15.7384 -150.24 722.604
vn -0.863787 0.366962 0.345269
v 15.2306 -150.74 722.104
vn -0.437394 0.155 0.885811
v 19.0392 -147.24 723.834
vn -0.471266 0.0920624 0.877173
v 18.6642 -145.74 723.604
vn -0.300064 0.461744 0.834718
v 19.0392 -145.24 723.67
vn -0.173618 0.761715 0.624217
v 19.0392 -144.74 723.143
vn -0.597525 0.196105 0.7775
v 18.0392 -147.24 723.178
vn -0.582543 0.379342 0.718849
v 18.0392 -145.24 723.08
vn -0.776252 0.427489 0.463341
v 15.6681 -145.24 719.604
vn 0.522477 -0.746168 -0.412616
v 17.0392 -144.455 709.604
vn 0.52137 -0.847263 0.101584
v 17.0392 -144.611 708.604
vn 0.51135 -0.721907 -0.466231
v 16.5392 -144.486 709.104
vn 0.632543 -0.527997 -0.566664
v 16.0392 -145.486 710.104
vn -0.393155 -0.918826 -0.0344809
v 16.0392 -144.261 709.104
vn 0.480172 -0.877122 -0.00957163
v 17.0392 -144.783 706.604
vn -0.395939 -0.916693 -0.0539198
v 16.5392 -144.508 705.604
vn -0.332748 0.87769 0.344876
v 18.5392 -141.626 719.104
vn -0.374428 0.686489 0.623327
v 18.0392 -143.74 721.467
vn -0.490581 0.780406 0.387681
v 18.0392 -141.9 719.604
vn -0.448297 0.812733 0.372148
v 19.0392 -140.74 717.916
vn -0.558574 0.809135 0.182472
v 18.1131 -141.74 718.604
vn 0.568285 -0.821527 0.0463146
v 18.0392 -144.235 706.604
vn 0.704907 -0.693925 -0.146878
v 19.0392 -143.394 699.604
vn 0.678151 -0.667586 -0.30731
v 19.0392 -143.24 699.268
vn 0.07446 -0.963762 -0.256159
v 18.0108 -143.74 700.604
vn -0.284111 0.922212 -0.262309
v 17.4626 -143.24 701.104
vn -0.314912 -0.943642 -0.101838
v 17.0392 -144.135 700.604
vn -0.313186 0.928473 0.199632
v 19.0392 -140.017 716.104
vn -0.0776525 -0.993952 0.0776525
v 15.0392 -159.345 719.604
vn -0.374936 -0.750568 0.544124
v 14.3869 -157.24 722.604
vn -0.888882 -0.44865 -0.0927459
v 13.7619 -157.24 720.604
vn -0.0542413 -0.60815 -0.791967
v 15.0119 -158.24 717.604
vn -0.870675 0.0754943 0.486031
v 14.2931 -156.24 722.604
vn -0.926428 0.129305 0.353568
v 13.9181 -152.74 720.104
vn -0.817787 0.289579 0.497361
v 15.0392 -150.344 721.604
vn -0.508361 -0.478351 -0.716065
v 12.9962 -148.24 714.104
vn -0.795856 0.585498 0.154288
v 14.4884 -144.24 716.104
vn 0.223397 -0.495145 -0.839598
v 23.5392 -149.392 717.104
vn 0.887069 -0.296147 -0.354126
v 23.9337 -148.24 717.104
vn 0.884104 -0.0584083 -0.463626
v 24.004 -147.24 716.604
vn 0.00315234 -0.574398 -0.81857
v 23.5392 -148.24 716.1
vn 0.999686 -0.0247318 0.00390484
v 23.1759 -141.24 716.104
vn 0.722815 -0.635981 -0.270308
v 23.4337 -143.74 713.104
vn 0.814045 0.496059 -0.302087
v 23.3478 -142.74 712.604
vn 0.787956 0.578889 -0.209794
v 23.1759 -141.24 714.604
vn 0.284459 -0.801344 -0.526242
v 19.5114 -158.74 718.104
vn 0.792748 -0.560921 -0.238577
v 19.5114 -158.74 718.104
vn 0.263415 -0.143438 0.953959
v 21.0392 -152.74 724.956
vn 0.771075 -0.406619 -0.490005
v 22.7931 -154.74 719.604
vn 0.614013 0.36159 0.701599
v 22.5392 -148.74 724.14
vn 0.220191 -0.249622 -0.942977
v 23.0392 -151.24 717.592
vn 0.453066 -0.225384 -0.862516
v 22.5392 -146.438 715.104
vn 0.973074 -0.203169 0.108853
v 23.0392 -144.826 714.604
vn 0.594814 -0.629371 -0.500089
v 20.0392 -144.439 713.604
vn 0.851283 -0.141765 -0.505193
v 23.0392 -143.74 712.049
vn 0.696363 0.648714 -0.307
v 22.3009 -142.24 710.604
vn 0.603833 -0.736752 -0.304275
v 22.3009 -142.24 710.604
vn 0.679397 -0.307441 -0.666258
v 21.0392 -142.861 709.604
vn -0.195274 -0.898942 -0.392136
v 19.5392 -143.24 710.523
vn 0.514672 -0.762477 -0.392099
v 19.5392 -142.767 709.604
vn 0.464812 -0.864621 0.190735
v 19.5392 -142.767 709.604
vn 0.884292 0.402274 -0.237073
v 20.2853 -142.24 706.604
vn 0.966886 0.183565 -0.177299
v 19.1915 -143.24 699.604
vn 0.689147 0.653872 -0.312293
v 19.1915 -143.24 699.604
vn 0.689147 0.653872 -0.312293
v 19.5392 -142.173 702.604
vn -0.284111 0.922212 -0.262309
v 19.5392 -142.173 702.604
vn -0.42873 0.631693 -0.645875
v 20.0392 -139.501 711.104
vn -0.774563 0.627619 -0.0783968
v 20.0392 -139.501 711.104
vn -0.275709 0.921525 -0.273452
v 20.0392 -139.501 711.104
vn -0.72575 0.684635 -0.0675415
v 19.5392 -139.33 711.604
vn -0.42873 0.631693 -0.645875
v 19.5392 -139.33 711.604
vn 0.0397707 -0.625671 0.779073
v 19.0392 -157.24 723.246
vn 0.149799 -0.970555 0.188637
v 16.0392 -159.345 720.604
vn -0.0623874 -0.811209 -0.581418
v 17.0392 -159.58 718.604
vn -0.381307 -0.299308 0.874654
v 16.5392 -155.74 724.545
vn 0.558654 -0.819729 0.126292
v 17.0392 -144.455 709.604
vn -0.0922313 -0.983801 0.153719
v 17.0392 -144.455 709.604
vn -0.267745 -0.963297 0.0192751
v 17.0392 -144.611 708.604
vn -0.254675 -0.96694 -0.0129402
v 16.5392 -144.486 709.104
vn -0.273373 -0.608386 -0.745073
v 16.5392 -144.486 709.104
vn 0.21563 -0.507828 -0.834035
v 16.0392 -145.486 710.104
vn -0.433038 -0.526289 -0.731777
v 16.0392 -145.486 710.104
vn -0.341133 -0.594539 -0.728115
v 16.0392 -144.261 709.104
vn -0.827227 0.530577 -0.184888
v 16.0392 -144.261 709.104
vn -0.42873 0.631693 -0.645875
v 16.0392 -144.261 709.104
vn -0.72464 0.672397 -0.150927
v 16.0392 -144.261 709.104
vn -0.362493 -0.931947 -0.00853567
v 17.0392 -144.783 706.604
vn -0.817375 0.571709 -0.0710442
v 16.5392 -144.508 705.604
vn 0.245585 -0.96599 -0.0809421
v 18.0392 -144.235 706.604
vn -0.699993 -0.711991 -0.0554878
v 18.0392 -144.235 706.604
vn 0.923917 -0.347628 -0.159785
v 18.0392 -144.235 706.604
vn 0.07446 -0.963762 -0.256159
v 19.0392 -143.394 699.604
vn 0.689147 0.653872 -0.312293
v 19.0392 -143.24 699.268
vn -0.101132 -0.903719 -0.416009
v 19.0392 -143.24 699.268
vn -0.746645 -0.177531 -0.641096
v 19.0392 -143.24 699.268
vn -0.292458 0.922719 -0.251115
v 19.0392 -143.24 699.268
vn -0.699993 -0.711991 -0.0554878
v 18.0108 -143.74 700.604
vn -0.746645 -0.177531 -0.641096
v 18.0108 -143.74 700.604
vn -0.856161 0.515818 -0.0303142
v 17.4626 -143.24 701.104
vn -0.699993 -0.711991 -0.0554878
v 17.4626 -143.24 701.104
vn -0.746645 -0.177531 -0.641096
v 17.4626 -143.24 701.104
vn 0.923917 -0.347628 -0.159785
v 17.4626 -143.24 701.104
vn 0.478056 -0.873259 -0.0942424
v 17.0392 -144.135 700.604
vn -0.890357 0.451886 -0.0553483
v 17.0392 -144.135 700.604
vn 0.923917 -0.347628 -0.159785
v 17.0392 -144.135 700.604
vn -0.750877 -0.639091 0.166572
v 15.0392 -159.345 719.604
vn -0.324339 -0.829761 -0.454203
v 15.0392 -159.345 719.604
vn -0.749867 -0.190138 0.633677
v 14.3869 -157.24 722.604
vn -0.970723 0.00848595 0.240053
v 13.7619 -157.24 720.604
vn -0.89869 -0.356358 -0.255668
v 15.0119 -158.24 717.604
vn -0.599299 -0.369372 -0.710215
v 15.0119 -158.24 717.604
vn -0.882321 0.427536 -0.196778
v 12.9962 -148.24 714.104
vn -0.914881 -0.28462 -0.286327
v 12.9962 -148.24 714.104
vn -0.948311 0.16129 0.273299
v 12.9962 -148.24 714.104
f 17//17 19//19 16//16
f 17//17 2//2 19//19
f 22//22 1//1 123//123
f 1//1 4//4 123//123
f 133//133 22//22 123//123
f 23//23 122//122 135//135
f 125//125 122//122 23//23
f 2//2 3//3 19//19
f 123//123 4//4 124//124
f 3//3 5//5 19//19
f 19//19 5//5 7//7
f 31//31 124//124 4//4
f 31//31 5//5 124//124
f 31//31 34//34 5//5
f 5//5 34//34 6//6
f 137//137 11//11 6//6
f 34//34 46//46 127//127
f 9//9 40//40 7//7
f 8//8 7//7 5//5
f 5//5 6//6 8//8
f 9//9 7//7 8//8
f 8//8 6//6 9//9
f 10//10 43//43 9//9
f 9//9 6//6 126//126
f 6//6 13//13 126//126
f 44//44 10//10 59//59
f 129//129 59//59 10//10
f 11//11 13//13 6//6
f 11//11 12//12 13//13
f 11//11 139//139 12//12
f 139//139 48//48 12//12
f 129//129 128//128 140//140
f 59//59 129//129 140//140
f 66//66 15//15 17//17
f 16//16 66//66 17//17
f 68//68 14//14 130//130
f 14//14 68//68 69//69
f 156//156 132//132 71//71
f 21//21 71//71 132//132
f 131//131 14//14 133//133
f 14//14 18//18 133//133
f 18//18 14//14 77//77
f 132//132 134//134 20//20
f 132//132 20//20 21//21
f 21//21 20//20 27//27
f 133//133 18//18 22//22
f 18//18 24//24 135//135
f 24//24 23//23 135//135
f 24//24 25//25 23//23
f 18//18 25//25 24//24
f 77//77 25//25 18//18
f 25//25 77//77 97//97
f 28//28 26//26 42//42
f 26//26 28//28 134//134
f 134//134 28//28 20//20
f 27//27 20//20 29//29
f 29//29 20//20 28//28
f 28//28 42//42 90//90
f 87//87 27//27 88//88
f 88//88 27//27 29//29
f 88//88 29//29 89//89
f 89//89 29//29 28//28
f 28//28 90//90 89//89
f 30//30 134//134 7//7
f 30//30 26//26 134//134
f 39//39 30//30 7//7
f 42//42 26//26 30//30
f 30//30 39//39 42//42
f 125//125 23//23 33//33
f 33//33 32//32 125//125
f 136//136 31//31 4//4
f 34//34 31//31 32//32
f 32//32 35//35 34//34
f 23//23 25//25 33//33
f 25//25 38//38 33//33
f 32//32 33//33 38//38
f 138//138 25//25 97//97
f 35//35 36//36 34//34
f 34//34 36//36 46//46
f 46//46 36//36 49//49
f 35//35 37//37 36//36
f 32//32 37//37 35//35
f 49//49 36//36 37//37
f 38//38 37//37 32//32
f 7//7 40//40 39//39
f 40//40 43//43 45//45
f 40//40 45//45 62//62
f 41//41 42//42 39//39
f 40//40 41//41 39//39
f 40//40 62//62 41//41
f 102//102 42//42 41//41
f 103//103 102//102 41//41
f 9//9 43//43 40//40
f 10//10 44//44 43//43
f 44//44 45//45 43//43
f 62//62 45//45 44//44
f 104//104 41//41 62//62
f 48//48 139//139 142//142
f 140//140 47//47 59//59
f 37//37 38//38 49//49
f 64//64 47//47 140//140
f 138//138 94//94 54//54
f 49//49 56//56 141//141
f 50//50 51//51 49//49
f 49//49 53//53 56//56
f 50//50 49//49 38//38
f 51//51 52//52 49//49
f 52//52 53//53 49//49
f 146//146 64//64 140//140
f 143//143 50//50 38//38
f 143//143 55//55 50//50
f 50//50 55//55 51//51
f 55//55 52//52 51//51
f 53//53 52//52 55//55
f 56//56 53//53 106//106
f 94//94 144//144 54//54
f 106//106 145//145 160//160
f 53//53 145//145 106//106
f 56//56 106//106 57//57
f 64//64 146//146 58//58
f 106//106 107//107 57//57
f 147//147 58//58 146//146
f 107//107 108//108 57//57
f 148//148 177//177 149//149
f 59//59 47//47 60//60
f 44//44 59//59 62//62
f 62//62 59//59 61//61
f 59//59 60//60 61//61
f 60//60 47//47 61//61
f 62//62 61//61 112//112
f 104//104 62//62 112//112
f 63//63 61//61 47//47
f 63//63 47//47 64//64
f 63//63 112//112 61//61
f 112//112 63//63 65//65
f 63//63 64//64 65//65
f 156//156 72//72 114//114
f 192//192 159//159 73//73
f 66//66 70//70 15//15
f 114//114 67//67 156//156
f 157//157 70//70 66//66
f 157//157 113//113 70//70
f 114//114 190//190 67//67
f 77//77 14//14 69//69
f 116//116 69//69 68//68
f 68//68 130//130 158//158
f 158//158 116//116 68//68
f 116//116 77//77 69//69
f 191//191 116//116 158//158
f 72//72 156//156 71//71
f 78//78 71//71 21//21
f 73//73 159//159 71//71
f 71//71 78//78 73//73
f 78//78 74//74 73//73
f 78//78 75//75 74//74
f 74//74 75//75 76//76
f 75//75 83//83 76//76
f 76//76 83//83 118//118
f 74//74 76//76 118//118
f 77//77 116//116 165//165
f 27//27 87//87 21//21
f 21//21 87//87 79//79
f 87//87 91//91 79//79
f 75//75 78//78 80//80
f 80//80 78//78 21//21
f 80//80 21//21 82//82
f 79//79 82//82 21//21
f 79//79 81//81 82//82
f 91//91 81//81 79//79
f 82//82 81//81 84//84
f 84//84 81//81 85//85
f 83//83 75//75 80//80
f 82//82 83//83 80//80
f 84//84 85//85 86//86
f 83//83 82//82 84//84
f 83//83 84//84 118//118
f 118//118 84//84 86//86
f 81//81 91//91 119//119
f 85//85 81//81 119//119
f 85//85 119//119 86//86
f 118//118 86//86 119//119
f 88//88 91//91 87//87
f 91//91 88//88 92//92
f 88//88 89//89 92//92
f 89//89 90//90 92//92
f 92//92 90//90 102//102
f 102//102 93//93 92//92
f 42//42 102//102 90//90
f 91//91 92//92 119//119
f 119//119 92//92 93//93
f 93//93 102//102 103//103
f 95//95 99//99 106//106
f 160//160 95//95 106//106
f 96//96 94//94 97//97
f 161//161 163//163 162//162
f 162//162 98//98 171//171
f 166//166 167//167 164//164
f 98//98 162//162 163//163
f 100//100 171//171 98//98
f 167//167 166//166 120//120
f 100//100 111//111 171//171
f 99//99 187//187 106//106
f 103//103 41//41 101//101
f 104//104 101//101 41//41
f 105//105 103//103 101//101
f 104//104 105//105 101//101
f 105//105 121//121 103//103
f 105//105 104//104 121//121
f 112//112 121//121 104//104
f 93//93 103//103 121//121
f 94//94 138//138 97//97
f 154//154 121//121 112//112
f 121//121 154//154 168//168
f 196//196 121//121 168//168
f 155//155 151//151 169//169
f 170//170 152//152 172//172
f 150//150 110//110 153//153
f 183//183 172//172 152//152
f 188//188 172//172 183//183
f 173//173 109//109 176//176
f 176//176 109//109 178//178
f 174//174 184//184 181//181
f 182//182 185//185 179//179
f 110//110 150//150 180//180
f 186//186 175//175 189//189
f 73//73 117//117 192//192
f 190//190 114//114 115//115
f 115//115 194//194 190//190
f 117//117 193//193 192//192
f 115//115 197//197 194//194
f 120//120 166//166 195//195
f 73//73 74//74 117//117
f 117//117 74//74 118//118
f 193//193 117//117 118//118
f 193//193 118//118 198//198
f 198//198 118//118 119//119
f 119//119 93//93 121//121
f 119//119 121//121 198//198
