# Wavafront OBJ file of BodyParts3D
# BodyParts3D, Copyright(C) 2010-2011 The Database Center for Life Science licensed under CC Attribution-Share Alike 2.1 Japan.
vn -0.978911 -0.203937 -0.0119696
v 2.88509 -132.086 1428.76
vn -0.989056 -0.138492 0.0508699
v 3.07571 -132.286 1429.96
vn -0.999874 -0.00574286 0.0147835
v 2.99759 -132.286 1431.76
vn -0.849674 -0.525638 -0.0419493
v 3.03034 -132.886 1434.56
vn -0.353367 0.863361 0.360194
v 3.30227 -132.686 1434.4
vn -0.851375 -0.495669 -0.171674
v 3.30227 -131.486 1424.45
vn -0.978102 0.191386 0.0817816
v 3.10227 -131.486 1430.02
vn -0.938464 -0.308994 -0.154296
v 2.95384 -130.086 1422.56
vn -0.998589 0.050929 0.0150177
v 2.96009 -129.286 1421.56
vn -0.932382 -0.322119 -0.164023
v 3.10397 -130.086 1421.96
vn -0.97286 -0.207519 -0.102369
v 2.82571 -127.686 1418.76
vn -0.944844 -0.301342 -0.128309
v 3.03402 -127.086 1415.96
vn -0.767782 0.597445 0.231451
v 2.87884 -126.486 1416.76
vn -0.844936 -0.516488 -0.139009
v 2.81009 -123.486 1407.16
vn -0.688102 0.699934 0.191332
v 3.30227 -122.806 1407.76
vn -0.962086 0.265319 -0.0632174
v 3.42259 -122.086 1396.76
vn -0.962693 -0.252056 -0.0984354
v 3.06009 -122.286 1403.96
vn -0.807515 -0.568466 -0.157373
v 3.50227 -132.187 1425.96
vn 0.0790845 -0.926291 -0.368416
v 3.70227 -132.086 1425.64
vn 0.0754532 -0.959085 -0.272877
v 3.70227 -132.653 1427.36
vn -0.811296 -0.571227 -0.124498
v 3.50227 -132.962 1428.76
vn -0.0498181 -0.980922 -0.187908
v 3.70227 -133.081 1429.16
vn 0.0466097 -0.989062 -0.139939
v 4.30227 -133.1 1429.56
vn -0.892519 -0.450618 -0.0187816
v 3.50227 -133.409 1431.56
vn -0.0957721 -0.994401 -0.0446606
v 4.70227 -133.325 1431.96
vn 0.0176466 -0.998883 -0.0438408
v 4.50227 -133.343 1432.96
vn -0.766399 -0.642308 -0.00849289
v 3.50227 -133.443 1434.16
vn -0.361016 0.802061 0.475779
v 3.50227 -132.85 1434.96
vn 0.0444117 -0.996732 0.0674683
v 4.90227 -133.39 1434.56
vn -0.648024 0.0517687 0.759858
v 4.50227 -133.086 1435.83
vn -0.328206 0.779552 0.533459
v 4.70227 -132.886 1435.79
vn 0.09165 -0.897063 -0.432293
v 3.70227 -131.086 1423.41
vn -0.679485 -0.0914897 -0.727963
v 4.8937 -129.486 1332.96
vn -0.74041 0.324722 -0.588514
v 4.76321 -129.086 1333.16
vn 0.207376 -0.963843 -0.167341
v 4.90227 -129.531 1333.16
vn -0.909629 -0.0543278 -0.411855
v 4.56321 -129.286 1333.36
vn -0.846006 -0.378377 -0.37564
v 4.70227 -129.597 1333.36
vn -0.949121 -0.228433 -0.216764
v 4.30227 -129.909 1335.16
vn -0.374078 -0.917955 -0.132001
v 4.50227 -129.962 1334.96
vn -0.632878 -0.653267 0.415581
v 4.50227 -129.886 1335.59
vn -0.417358 -0.87011 0.262145
v 4.70227 -130.022 1335.56
vn -0.275044 -0.796683 0.538188
v 4.90227 -129.886 1335.95
vn -0.566248 -0.74296 0.356894
v 4.50227 -128.865 1336.96
vn -0.195045 -0.879993 -0.433093
v 3.50227 -129.886 1421.14
vn -0.937013 -0.31788 0.144771
v 3.92571 -127.886 1336.76
vn -0.525486 -0.833476 0.170826
v 3.99759 -128.086 1338.76
vn -0.180897 -0.96435 0.193145
v 4.50227 -128.39 1338.56
vn -0.746699 -0.663691 0.044221
v 3.89759 -127.686 1340.36
vn -0.404886 -0.911756 0.0690516
v 4.30227 -128.084 1340.16
vn 0.165169 -0.98415 0.0645542
v 4.70227 -128.1 1340.36
vn 0.389379 -0.919039 0.0612466
v 4.90227 -128.003 1341.56
vn -0.594397 -0.803362 0.0360862
v 4.10227 -127.984 1344.16
vn 0.141995 -0.989591 0.0233878
v 4.50227 -128.131 1342.96
vn -0.783366 -0.616367 0.080177
v 3.68196 -127.286 1345.36
vn -0.26996 -0.954046 0.130067
v 4.70227 -127.831 1348.76
vn 0.401885 -0.828697 -0.389551
v 4.10227 -128.528 1418.56
vn -0.726179 0.632858 0.268616
v 3.70227 -127.286 1421.18
vn 0.123141 -0.948235 -0.292723
v 3.70227 -125.725 1410.96
vn -0.271885 -0.896884 -0.348822
v 4.10227 -126.787 1414.36
vn -0.958503 0.284265 -0.0215787
v 4.37571 -124.686 1341.56
vn -0.772294 -0.624361 0.117197
v 4.26946 -124.886 1362.96
vn -0.817811 -0.564498 0.111921
v 4.47259 -124.686 1365.16
vn -0.996876 0.06977 0.0370318
v 4.31321 -124.486 1364.56
vn -0.49201 -0.863373 0.111858
v 4.90227 -125.125 1365.16
vn -0.958914 -0.278669 0.0531762
v 4.49759 -124.486 1366.56
vn -0.348592 -0.907547 -0.234184
v 3.70227 -124 1405.36
vn 0.320084 -0.922847 -0.214242
v 4.30227 -123.975 1405.36
vn 0.52167 -0.820315 -0.234399
v 4.35143 -125.486 1411.36
vn -0.566191 0.782077 0.26035
v 4.90227 -124.086 1415.2
vn -0.969703 0.243046 -0.024591
v 4.77259 -123.086 1369.76
vn -0.994366 0.103262 -0.0239617
v 4.50696 -123.486 1370.96
vn -0.826504 -0.561465 0.0405894
v 4.70227 -123.588 1377.96
vn -0.99948 0.0177796 -0.0269115
v 4.42571 -122.686 1378.16
vn -0.979375 -0.197553 -0.0423871
v 4.26009 -122.686 1385.36
vn -0.685458 -0.72795 0.0153611
v 4.70227 -123.2 1385.16
vn -0.827916 -0.560072 -0.0295841
v 3.90227 -122.709 1393.36
vn 0.186606 -0.982273 0.0178439
v 4.70227 -122.875 1392.56
vn -0.651768 -0.7578 -0.0306384
v 3.85035 -122.686 1395.96
vn -0.22609 -0.973898 -0.020138
v 4.30227 -122.893 1395.76
vn 0.0133789 -0.998787 -0.0473822
v 4.71894 -122.886 1397.16
vn -0.469606 -0.879381 -0.078488
v 3.90227 -122.85 1397.56
vn -0.743522 -0.654851 -0.135447
v 3.50227 -123.193 1401.96
vn -0.0797461 -0.984742 -0.154673
v 3.90227 -123.465 1402.56
vn 0.429313 -0.895546 -0.116994
v 4.50227 -123.381 1402.76
vn -0.903983 0.417525 -0.0921321
v 4.39446 -120.886 1385.16
vn -0.980552 0.187506 -0.0579582
v 4.00384 -121.086 1388.56
vn -0.999124 -0.0156108 -0.0388382
v 3.91634 -121.086 1393.56
vn -0.976009 0.208627 -0.062303
v 3.70227 -120.928 1397.36
vn -0.601494 0.791956 0.104934
v 3.66834 -121.486 1401.56
vn -0.493509 0.861625 0.118534
v 4.70227 -120.946 1403.16
vn -0.40511 0.912343 -0.0592943
v 4.90227 -120.086 1386.72
vn -0.774914 0.631149 -0.0340568
v 4.26321 -120.486 1388.56
vn -0.539963 0.841686 0.00180192
v 4.90227 -120.062 1390.76
vn 0.435061 -0.848042 -0.302567
v 5.90227 -132.048 1427.96
vn 0.49715 -0.847854 -0.184353
v 5.90227 -132.409 1429.36
vn 0.269878 -0.948355 -0.166699
v 6.10227 -132.437 1429.96
vn 0.299389 -0.945769 -0.126042
v 5.30227 -133.343 1431.36
vn 0.192508 -0.980008 -0.0502466
v 6.50227 -132.747 1432.96
vn 0.179888 -0.978962 0.0962954
v 6.50227 -132.734 1433.96
vn -0.245722 0.884525 0.396531
v 5.10227 -132.231 1434.76
vn 0.341756 -0.923222 0.175684
v 5.30227 -133.243 1435.16
vn 0.257179 -0.850088 0.459575
v 6.50227 -132.486 1435.44
vn -0.196803 0.855433 0.479064
v 6.50227 -132.272 1435.56
vn 0.215786 -0.931636 -0.292388
v 5.30227 -129.359 1332.96
vn 0.177726 -0.944992 -0.274596
v 5.30227 -129.286 1332.71
vn -0.473265 0.0376004 -0.880117
v 5.48999 -129.086 1332.56
vn 0.157632 -0.973604 -0.165069
v 6.10227 -129.128 1332.36
vn 0.11879 -0.828748 0.546869
v 5.30227 -129.809 1336.16
vn 0.134167 -0.79366 0.593383
v 6.50227 -129.355 1336.36
vn -0.058542 -0.818644 0.57131
v 5.10227 -129.086 1336.94
vn -0.385066 0.457775 -0.801353
v 6.10227 -127.125 1332.96
vn 0.274407 -0.788539 0.55037
v 5.90227 -128.508 1337.36
vn 0.106236 -0.867586 0.485806
v 6.30227 -127.997 1337.96
vn 0.264305 -0.901322 0.343165
v 6.30227 -127.575 1338.76
vn 0.389563 -0.919987 0.0431824
v 5.30227 -127.728 1342.36
vn 0.225067 -0.970923 0.0815662
v 5.70227 -127.659 1341.96
vn 0.321983 -0.945006 0.0573676
v 5.90227 -127.64 1341.96
vn 0.320954 -0.941819 0.0998314
v 6.10227 -127.35 1343.36
vn 0.402513 -0.913438 0.0601222
v 5.90227 -127.528 1349.76
vn -0.23396 -0.960517 0.150565
v 5.30227 -125.912 1359.96
vn 0.186962 -0.972184 0.141082
v 5.90227 -125.365 1363.16
vn -0.483763 0.873216 -0.0588837
v 5.30227 -122.878 1365.96
vn -0.591234 0.798991 -0.109801
v 5.54134 -122.486 1368.16
vn -0.021251 -0.995334 0.094122
v 5.10227 -123.84 1377.76
vn 0.2919 -0.953878 0.070077
v 5.30227 -123.143 1385.16
vn -0.508949 0.848881 -0.142727
v 6.50227 -121.086 1373.06
vn 0.535984 -0.840037 -0.0840194
v 5.70227 -122.272 1401.96
vn -0.67158 0.731103 -0.120283
v 5.70227 -120.686 1378.75
vn -0.286847 0.957799 0.0184582
v 5.70227 -119.881 1394.56
vn 0.46439 -0.868965 -0.171002
v 7.50227 -132.147 1431.36
vn 0.206128 -0.964436 -0.16545
v 7.70227 -132.086 1431.51
vn 0.0520129 -0.995683 0.0768724
v 6.70227 -132.768 1433.56
vn 0.293661 -0.952572 -0.0798071
v 6.90227 -132.803 1432.96
vn 0.161858 -0.949996 0.267039
v 7.10227 -132.486 1435.38
vn -0.203482 0.86145 0.465294
v 7.10227 -132.086 1435.45
vn -0.246686 -0.484743 0.839148
v 7.30227 -132.286 1435.79
vn 0.403203 -0.874645 -0.269117
v 8.10227 -131.384 1428.96
vn 0.264132 -0.915677 -0.302936
v 7.50227 -128.815 1333.16
vn 0.222511 -0.965222 0.137244
v 6.90227 -129.378 1336.16
vn 0.140649 -0.990023 0.00846827
v 8.10227 -129.184 1336.36
vn -0.593752 0.719974 0.3593
v 8.13509 -128.886 1429.96
vn 0.469549 -0.506597 -0.723106
v 7.30227 -128.486 1332.8
vn 0.104543 -0.791361 0.602344
v 6.70227 -128.44 1337.16
vn 0.311319 -0.80757 0.50091
v 6.90227 -128.193 1337.56
vn 0.143488 -0.68678 0.712562
v 7.30227 -128.454 1337.16
vn 0.274143 -0.552557 0.7871
v 7.70227 -128.686 1336.88
vn 0.15931 -0.588858 0.792381
v 7.90227 -128.286 1337.04
vn 0.264234 -0.915724 0.302703
v 7.10227 -127.147 1339.76
vn 0.458181 -0.887398 0.0509358
v 6.70227 -127.143 1343.36
vn 0.363051 0.254304 -0.896395
v 7.90227 -126.486 1333.41
vn 0.477882 -0.876194 0.0625529
v 7.62571 -126.486 1342.36
vn 0.364977 -0.928718 0.0653784
v 6.90227 -126.662 1351.56
vn -0.471494 0.871704 -0.133511
v 6.90227 -121.687 1368.36
vn 0.259365 0.961146 -0.0944897
v 6.70227 -121.05 1373.96
vn 0.0903074 0.993986 -0.0619369
v 6.70227 -120.99 1374.76
vn -0.291517 0.948185 -0.126342
v 7.90227 -120.75 1374.76
vn 0.0270861 0.994624 -0.0999513
v 6.90227 -120.987 1375.16
vn -0.356456 0.929409 -0.0955924
v 8.16321 -119.886 1380.36
vn -0.145948 0.988301 -0.044276
v 6.70227 -119.897 1388.36
vn -0.309181 0.950205 -0.0389638
v 6.90227 -119.453 1391.16
vn -0.0944632 0.993484 0.0637626
v 7.30227 -119.4 1392.36
vn -0.217307 0.975894 0.020194
v 7.50227 -119.422 1392.56
vn 0.0208681 -0.990593 -0.135239
v 8.30227 -132.184 1432.16
vn 0.218147 -0.974807 -0.0465183
v 8.30227 -132.206 1433.36
vn 0.445838 -0.891593 -0.0793078
v 8.70227 -132.215 1432.56
vn 0.318993 -0.932229 0.170856
v 8.30227 -132.215 1435.16
vn -0.405768 0.822039 0.399506
v 8.73894 -131.486 1434.96
vn 0.341966 -0.867832 0.360454
v 8.90227 -131.886 1435.42
vn -0.308042 0.845078 0.436981
v 8.90227 -131.662 1435.56
vn -0.500919 0.769248 0.396658
v 9.21404 -131.486 1435.56
vn 0.42166 -0.887349 0.186586
v 9.38283 -131.686 1435.36
vn 0.0729751 -0.531241 0.844072
v 9.30227 -131.607 1435.56
vn -0.183432 -0.649731 0.737701
v 9.10227 -129.086 1336.6
vn -0.172111 -0.524085 0.834094
v 9.10227 -128.886 1336.77
vn 0.3666 -0.896026 0.250483
v 8.50228 -126.886 1338.67
vn 0.076172 -0.892196 0.445179
v 8.70227 -126.925 1338.16
vn 0.0852743 -0.965896 0.244485
v 8.70227 -126.897 1338.36
vn 0.0038282 -0.873886 0.486116
v 8.90227 -126.965 1338.16
vn 0.0289337 -0.951333 0.306802
v 8.90227 -126.912 1338.36
vn 0.239622 -0.89881 0.367044
v 8.90227 -126.718 1338.76
vn 0.182825 -0.915358 0.358741
v 9.10227 -126.859 1338.36
vn 0.211555 -0.780555 0.5882
v 9.30227 -126.886 1338.23
vn 0.39983 -0.841406 0.363554
v 9.50228 -126.372 1338.96
vn 0.438457 -0.881715 0.174169
v 8.70227 -126.086 1341.46
vn 0.358995 -0.922861 0.139466
v 9.50228 -125.668 1341.36
vn 0.420111 -0.904175 0.0772914
v 8.50228 -125.978 1342.96
vn -0.474772 0.861046 -0.182183
v 9.30227 -122.606 1337.76
vn -0.0441558 0.998942 -0.0128875
v 9.70227 -122.55 1353.16
vn -0.0905067 0.993722 -0.0657713
v 9.10227 -122.406 1357.56
vn 0.106022 0.993956 -0.0284851
v 9.70227 -122.512 1357.76
vn 0.543371 -0.771207 -0.331644
v 9.10227 -123.003 1414.56
vn -0.298498 0.946431 -0.123156
v 9.30227 -120.525 1372.36
vn -0.407862 0.905877 -0.114176
v 9.73821 -119.286 1381.16
vn -0.235323 0.968418 -0.0824032
v 8.90227 -119.34 1381.96
vn -0.184646 0.982094 -0.0373918
v 8.90227 -119.325 1383.96
vn -0.259008 0.965056 -0.0397789
v 8.30227 -119.253 1387.56
vn -0.846514 0.50646 -0.164052
v 9.43488 -118.886 1383.96
vn -0.52018 0.850585 -0.076926
v 8.77259 -119.086 1386.76
vn -0.418462 0.907777 -0.0288377
v 8.50228 -118.872 1396.56
vn -0.499106 0.861421 -0.0940614
v 9.18776 -118.486 1396.96
vn 0.424177 -0.818643 0.387165
v 9.90471 -131.286 1435.56
vn -0.612275 0.608936 0.504297
v 9.90227 -131.09 1435.76
vn 0.566761 -0.810473 0.14804
v 10.5023 -130.906 1435.76
vn 0.283725 -0.752529 0.594306
v 10.5023 -130.831 1435.96
vn -0.614536 0.554092 0.56154
v 10.5072 -130.486 1435.96
vn 0.581888 -0.727771 0.362983
v 10.7023 -130.686 1436
vn 0.295831 -0.626517 0.721083
v 10.7023 -130.53 1436.16
vn -0.542126 0.568769 0.618548
v 10.7023 -130.3 1435.96
vn 0.63801 -0.678289 0.364509
v 10.9023 -130.486 1436.02
vn 0.0929945 -0.993157 -0.0706545
v 10.3023 -129.15 1336.96
vn 0.180126 -0.973939 -0.137833
v 10.5023 -129.103 1336.76
vn 0.22819 -0.973616 0
v 10.5023 -129.103 1336.96
vn 0.971842 -0.113709 0.206382
v 10.5695 -128.886 1336.76
vn 0.579692 -0.806377 0.117106
v 11.4633 -130.086 1435.16
vn -0.596185 0.618081 0.512387
v 10.9023 -130.086 1435.94
vn 0.123628 -0.950604 0.284724
v 11.1023 -130.086 1435.92
vn -0.856178 0.267187 0.442233
v 11.1023 -129.886 1436.31
vn 0.434307 -0.84863 0.302001
v 11.3023 -129.951 1436.16
vn 0.418944 -0.650978 -0.633019
v 10.1023 -128.086 1334.13
vn 0.320831 -0.858318 -0.400447
v 10.8448 -128.686 1335.56
vn 0.735964 -0.0179252 -0.676784
v 11.0601 -127.286 1335.16
vn 0.0687982 -0.50574 0.859938
v 10.1023 -127.954 1337.36
vn -0.0373285 -0.330363 0.943115
v 10.3023 -128.686 1337.16
vn 0.89192 -0.00860798 0.452111
v 10.4663 -128.486 1336.96
vn 0.417887 -0.333088 0.845235
v 10.3483 -127.686 1337.36
vn 0.954684 -0.00475565 0.297582
v 10.5601 -127.886 1336.56
vn 0.568858 0.218785 -0.792801
v 10.5023 -126.496 1334.76
vn 0.669626 0.124044 -0.732267
v 11.1023 -126.193 1335.36
vn 0.959778 -0.0981034 -0.263064
v 11.1476 -126.286 1335.56
vn 0.438997 -0.520411 0.73243
v 10.1023 -127.086 1337.82
vn 0.867927 -0.290246 0.403064
v 10.3023 -126.912 1337.76
vn 0.578393 -0.710686 0.400484
v 10.1023 -126.059 1338.96
vn 0.274552 -0.959962 0.055627
v 10.1023 -125.515 1342.36
vn -0.386904 0.849906 0.357722
v 11.3773 -125.686 1428.36
vn -0.676962 0.667237 0.310671
v 11.3023 -126.886 1433.43
vn 0.553535 0.323872 -0.767272
v 11.311 -125.086 1335.76
vn 0.608833 -0.789172 0.0808113
v 10.1601 -125.486 1340.76
vn 0.303247 -0.951488 0.052081
v 10.5023 -125.237 1344.16
vn 0.481407 -0.87412 -0.0645056
v 11.1023 -124.95 1345.16
vn 0.368774 -0.929204 -0.0242111
v 10.9023 -125.072 1346.36
vn -0.497485 0.761063 0.416282
v 10.9023 -124.678 1426.16
vn 0.379126 0.543634 -0.748816
v 10.9023 -123.686 1336.25
vn -0.0996654 0.993995 -0.0451665
v 9.90227 -122.518 1357.76
vn 0.31877 -0.938199 0.134789
v 11.1023 -123.003 1366.76
vn 0.512863 -0.85344 0.0927997
v 9.90227 -123.518 1367.76
vn 0.474653 -0.874089 0.103307
v 10.4372 -123.086 1367.96
vn 0.292636 -0.95483 0.0516074
v 10.3023 -119.875 1392.96
vn 0.394225 -0.916221 0.0715978
v 9.90227 -119.892 1394.36
vn 0.261741 -0.96483 -0.0243896
v 9.90227 -119.922 1395.76
vn -0.742203 0.631545 0.224242
v 11.3023 -119.686 1416.73
vn -0.632961 0.762749 0.132571
v 11.3288 -117.686 1408.96
vn -0.869614 0.478834 0.120368
v 11.3851 -118.686 1413.36
vn 0.608703 -0.755271 0.242992
v 12.3023 -129.334 1435.36
vn -0.782601 0.500858 0.369698
v 11.682 -128.886 1436.36
vn -0.121414 0.019502 0.99241
v 11.9023 -129.086 1436.39
vn 0.520161 -0.746103 0.415647
v 12.3023 -128.975 1436.36
vn -0.574481 -0.537511 0.617295
v 12.1023 -128.686 1436.93
vn -0.742308 0.538695 0.39848
v 12.1023 -128.464 1436.76
vn -0.0879723 0.00679523 0.9961
v 12.5257 -128.286 1436.96
vn -0.684296 0.529057 0.501834
v 12.5412 -128.086 1436.96
vn 0.73579 -0.581231 0.34754
v 12.8257 -128.486 1436.16
vn -0.667383 0.60755 0.430678
v 12.7023 -127.768 1436.76
vn 0.747455 -0.477686 0.461657
v 12.9663 -127.686 1436.76
vn -0.55213 0.804903 0.217446
v 11.5023 -126.012 1429.96
vn -0.728661 0.645078 0.23006
v 12.1663 -126.286 1433.76
vn 0.626584 0.275549 -0.729016
v 11.532 -125.086 1335.96
vn -0.528213 0.735936 0.423545
v 12.5023 -124.017 1426.96
vn -0.213633 0.870485 0.443415
v 11.5023 -125.453 1427.96
vn -0.462893 0.823353 0.32836
v 11.9023 -125.454 1428.16
vn 0.591108 0.225847 -0.774329
v 12.5023 -123.886 1337.31
vn 0.669675 -0.724104 0.164951
v 12.3023 -123.781 1338.56
vn 0.480861 -0.876436 -0.0251534
v 11.7023 -123.575 1341.96
vn -0.236436 -0.969312 0.0673212
v 12.9023 -123.603 1343.16
vn 0.195986 -0.96583 0.169596
v 12.7023 -122.643 1366.16
vn 0.363955 0.752998 -0.548207
v 12.1023 -122.209 1338.56
vn 0.208427 -0.963322 0.169025
v 12.7598 -121.286 1374.76
vn -0.578783 0.749218 0.321997
v 11.7023 -119.153 1416.56
vn -0.605428 0.770496 0.199481
v 11.7023 -118.318 1414.16
vn -0.182085 0.929499 0.320743
v 12.9023 -118.775 1417.16
vn -0.478032 0.871655 -0.108178
v 12.9023 -116.547 1393.16
vn -0.414172 0.908657 0.0529465
v 12.1023 -116.497 1402.16
vn -0.715538 0.517443 0.469317
v 13.1023 -127.193 1436.56
vn 0.575215 -0.736116 -0.356737
v 13.7023 -126.886 1427.57
vn 0.978042 -0.0588765 0.199918
v 14.657 -126.486 1434.96
vn 0 0 1
v 13.4023 -127.086 1436.76
vn 0.036724 -0.406446 0.912937
v 13.7023 -126.686 1436.93
vn -0.61208 0.512961 0.601855
v 13.7023 -126.486 1436.84
vn 0.735051 -0.32781 0.593499
v 13.9913 -126.486 1436.76
vn 0.821774 -0.448396 0.351608
v 14.2538 -126.886 1435.96
vn 0.885879 -0.0806446 0.456854
v 14.1023 -126.074 1436.76
vn 0.94932 0.123749 0.288926
v 14.3695 -125.886 1435.96
vn 0.122806 0.786044 0.605849
v 14.3023 -125.686 1436.02
vn -0.395768 -0.916711 0.0548562
v 13.7023 -124.347 1338.36
vn 0.0919788 -0.599896 -0.794773
v 14.3023 -124.286 1338.38
vn -0.55055 0.827785 0.108013
v 13.7023 -124.412 1430.56
vn -0.540544 0.805138 0.24406
v 14.1023 -124.059 1429.56
vn -0.145187 0.988915 -0.0311093
v 14.5023 -124.197 1431.36
vn -0.772752 0.63066 -0.0715685
v 14.1023 -124.05 1432.56
vn 0.0857315 0.973244 -0.213181
v 14.5102 -124.086 1432.56
vn -0.704442 0.578745 0.410872
v 14.1023 -125.298 1435.56
vn 0.934856 0.212847 0.284149
v 14.4663 -125.286 1435.16
vn 0.185348 0.642485 0.743545
v 14.3163 -125.086 1435.36
vn 0.567222 0.426079 -0.704781
v 13.3023 -123.686 1337.97
vn 0.0568666 -0.98231 0.178419
v 13.1023 -122.734 1365.56
vn -0.339865 0.848892 0.404814
v 14.3023 -122.525 1425.96
vn -0.793419 0.608617 0.00848286
v 14.1023 -123.759 1433.56
vn -0.114807 0.974933 -0.190592
v 14.3023 -123.715 1433.56
vn 0.789602 0.6136 0.00481526
v 14.5132 -123.886 1433.76
vn 0.961699 0.168904 0.215884
v 14.4416 -123.886 1434.36
vn -0.75507 0.553514 0.351413
v 14.3023 -123.753 1434.36
vn 0.00723939 -0.988056 0.153926
v 13.1023 -121.618 1371.96
vn 0.0373315 -0.984038 0.174001
v 13.1023 -121.231 1374.76
vn 0.0903533 -0.98094 0.172026
v 13.5023 -121.328 1374.36
vn 0.692237 -0.684965 -0.227225
v 14.5023 -119.886 1415.8
vn -0.360553 0.838529 0.408497
v 13.5023 -120.286 1421.17
vn -0.051624 0.925165 0.376039
v 13.9023 -120.143 1420.96
vn 0.360766 -0.932651 0.00325546
v 14.5023 -117.946 1396.56
vn 0.410383 0.863138 0.294243
v 14.3023 -118.815 1416.96
vn -0.311481 0.94914 -0.0459628
v 13.5023 -116.175 1395.16
vn 0.0166043 0.977723 0.209242
v 14.1023 -117.162 1411.56
vn -0.144157 0.988311 0.0495996
v 14.3023 -115.75 1401.96
vn 0.823758 -0.566328 0.0263746
v 14.7413 -127.486 1431.36
vn 0.569474 -0.744911 -0.347574
v 15.1023 -126.486 1429.01
vn 0.999734 -0.0131183 0.0189754
v 15.2663 -125.686 1428.96
vn 0.0996128 -0.714307 -0.692707
v 15.3023 -125.086 1339.35
vn 0.731453 -0.0634561 -0.678933
v 15.5023 -124.886 1339.45
vn -0.248094 -0.966869 0.060114
v 15.617 -125.086 1340.16
vn -0.135603 -0.990612 -0.0173183
v 15.7023 -125.09 1339.76
vn 0.237841 -0.961444 -0.138044
v 14.7023 -123.937 1347.56
vn 0.621688 -0.661494 -0.419439
v 15.1023 -124.486 1425.86
vn 0.999598 0.0234465 -0.0159552
v 15.1413 -124.286 1425.96
vn 0.778727 0.611216 0.141416
v 14.9695 -124.486 1430.16
vn 0.964969 0.253032 0.0693536
v 14.9382 -124.886 1431.76
vn 0.876591 0.438989 0.197174
v 15.0163 -122.486 1424.56
vn 0.929447 0.339151 0.145277
v 15.0132 -123.686 1426.36
vn -0.189128 0.972716 -0.134367
v 14.9023 -121.606 1355.76
vn 0.87497 -0.425734 -0.230605
v 14.9726 -121.886 1421.56
vn 0.863454 -0.470648 -0.181488
v 14.9023 -119.486 1415.92
vn 0.999858 -0.0106735 -0.0130154
v 14.9632 -119.286 1415.96
vn 0.328864 -0.936678 0.120346
v 14.7023 -118.199 1389.36
vn 0.386129 -0.922126 -0.0242534
v 15.5023 -117.737 1404.36
vn 0.647739 -0.7616 0.0199724
v 15.7023 -117.75 1406.16
vn 0.833859 -0.539062 0.118706
v 15.7023 -117.703 1406.76
vn 0.595898 -0.802298 -0.034984
v 15.3023 -117.978 1407.96
vn 0.950812 -0.30242 0.0670788
v 15.5695 -117.686 1408.96
vn 0.911378 -0.407619 0.056898
v 15.3663 -118.086 1410.76
vn 0.979754 -0.00608693 0.200114
v 15.4226 -117.886 1410.76
vn 0.975008 -0.00355694 0.22214
v 15.357 -117.886 1410.96
vn 0.921878 0.278319 0.26959
v 15.3257 -117.686 1410.96
vn 0.859101 0.476753 0.186152
v 14.8382 -118.486 1414.76
vn 0.61056 -0.785235 -0.103062
v 14.9023 -118.89 1413.36
vn 0.858035 -0.504233 -0.0975965
v 14.9538 -118.886 1414.36
vn -0.2556 0.959255 -0.120413
v 15.1023 -116.159 1388.76
vn 0.72535 -0.686952 0.0443126
v 16.0257 -117.486 1405.16
vn 0.365063 0.919522 0.145631
v 15.5023 -116.556 1406.36
vn 0.92433 -0.358398 0.131015
v 15.8851 -117.486 1406.56
vn 0.911774 -0.365665 0.18697
v 15.8351 -117.486 1406.76
vn 0.981553 -0.147738 0.121355
v 15.8788 -117.286 1406.76
vn 0.968116 0.217333 0.124572
v 15.9023 -117.086 1406.69
vn 0.86217 0.477207 0.170107
v 15.6898 -117.086 1407.96
vn 0.983269 -0.135159 0.122125
v 15.8507 -117.286 1407.16
vn 0.979453 0.123468 0.159459
v 15.7507 -117.286 1407.96
vn 0.893511 0.420358 0.157916
v 15.4695 -117.286 1409.36
vn 0.968318 0.227802 0.102305
v 15.5163 -117.486 1409.76
vn 0.589624 0.745894 0.309816
v 15.1023 -117.478 1411.16
vn 0.536132 0.813799 0.224263
v 15.1023 -117.122 1410.16
vn 0.82959 0.492722 0.262688
v 15.3413 -117.486 1410.76
vn 0.239391 0.970506 0.0284682
v 15.9023 -115.728 1396.76
vn 0.0745826 0.996847 0.0270718
v 15.1023 -115.709 1399.16
vn -0.307257 -0.946268 0.100848
v 16.5023 -125.34 1340.76
vn 0.706371 0.277692 -0.651097
v 17.1023 -125.286 1340.97
vn 0.670551 0.427025 -0.60664
v 16.4902 -123.286 1341.16
vn 0.147875 -0.975543 0.162631
v 17.5166 -118.286 1383.96
vn 0.408329 -0.903402 0.130889
v 17.7737 -117.086 1390.76
vn 0.334027 -0.939318 0.0781478
v 16.9023 -117.422 1391.16
vn 0.908148 -0.397357 0.131814
v 17.2689 -117.086 1393.76
vn 0.771029 0.627094 0.110762
v 17.2445 -116.286 1394.36
vn 0.985827 -0.107992 0.128382
v 17.3788 -116.686 1394.16
vn 0.307526 -0.856285 -0.414974
v 19.1023 -125.581 1343.36
vn -0.206651 -0.977496 0.0423873
v 19.4795 -125.686 1343.56
vn 0.175593 -0.951453 -0.252793
v 18.0183 -125.486 1342.36
vn 0.584615 -0.548908 -0.597432
v 18.1023 -125.286 1342.26
vn 0.412669 -0.720845 -0.556854
v 19.3023 -125.486 1343.31
vn 0.685747 0.485011 -0.542693
v 19.3101 -124.086 1343.76
vn -0.14968 -0.980861 0.12453
v 19.1023 -124.286 1353.73
vn 0.152812 -0.969455 0.191849
v 17.9023 -121.725 1365.16
vn -0.0922443 0.979737 -0.17778
v 18.9023 -119.947 1362.16
vn -0.131914 0.978706 -0.15727
v 19.3023 -118.984 1367.96
vn 0.511776 -0.831427 0.216368
v 18.9023 -118.184 1383.36
vn 0.860951 0.505397 0.0577652
v 19.4386 -117.486 1380.76
vn 0.526405 0.850233 -0.001107
v 18.7023 -116.437 1382.36
vn 0.874525 -0.431342 0.221697
v 19.0288 -117.486 1384.56
vn 0.901743 -0.396959 0.171121
v 18.1023 -116.696 1389.96
vn 0.0704226 -0.158479 -0.984848
v 19.5299 -125.686 1343.36
vn -0.0592689 -0.998112 0.0161057
v 20.1023 -125.734 1344.16
vn 0.645744 -0.135515 -0.751432
v 20.7023 -125.74 1344.76
vn 0.21254 0.154551 -0.964853
v 19.5223 -125.486 1343.36
vn 0.750193 0.167147 -0.639744
v 20.257 -125.486 1344.16
vn 0.68291 -0.16883 -0.710725
v 20.7557 -125.486 1344.76
vn 0.601405 0.550305 -0.579203
v 20.9379 -124.286 1345.76
vn -0.233335 0.95989 -0.155455
v 20.1023 -119.093 1366.56
vn 0.252084 -0.936882 0.242294
v 20.9023 -120.522 1370.76
vn -0.00309103 -0.980065 0.198652
v 19.5023 -120.062 1372.76
vn 0.2068 -0.95784 0.199438
v 20.7023 -120.24 1372.36
vn 0.92389 -0.310479 0.223675
v 20.9695 -119.286 1373.96
vn 0.931541 0.329571 0.15367
v 19.6351 -117.686 1378.96
vn 0.944541 0.282492 0.167452
v 19.5023 -117.486 1379.31
vn 0.948522 0.255923 0.186571
v 19.7851 -117.486 1378.36
vn 0.298041 -0.852878 -0.428686
v 21.1023 -125.79 1345.16
vn 0.521227 -0.109384 -0.846379
v 21.7023 -125.686 1345.37
vn -0.152995 -0.987408 0.0402142
v 22.3023 -125.9 1346.16
vn 0.618156 -0.502217 -0.6047
v 22.5094 -125.886 1346.36
vn 0.532847 -0.777804 0.333309
v 22.2351 -121.086 1366.96
vn 0.20401 -0.93655 0.285051
v 21.1023 -121.09 1368.76
vn 0.104796 0.981015 -0.163176
v 21.5023 -120.375 1358.16
vn 0.419602 0.894354 -0.155125
v 22.5023 -120.515 1359.56
vn -0.0113241 0.97003 -0.24272
v 22.1023 -120.215 1360.76
vn 0.759286 -0.596902 0.259214
v 21.5023 -120.286 1370.37
vn -0.119811 0.973316 -0.195705
v 21.1023 -118.847 1365.96
vn 0.0736163 0.968232 -0.238971
v 21.7023 -118.94 1365.96
vn -0.196886 -0.980398 0.0074313
v 24.1023 -126.247 1347.36
vn 0.0544481 -0.751588 -0.657382
v 24.1023 -126.072 1347.16
vn 0.545567 0.598326 -0.586825
v 24.1023 -125.886 1347.36
vn -0.201572 -0.974827 0.0952935
v 23.5023 -126.086 1352.7
vn 0.722026 0.532097 -0.442211
v 23.9007 -124.486 1348.56
vn 0.609518 0.434866 -0.662857
v 23.5023 -123.722 1348.56
vn 0.819963 0.530287 -0.215539
v 23.9023 -123.286 1350.37
vn 0.929582 0.368476 -0.0101115
v 23.7913 -122.886 1351.56
vn 0.705272 0.698462 -0.12142
v 23.6118 -122.486 1352.76
vn 0.627226 0.70837 -0.323728
v 23.3023 -121.825 1352.36
vn 0.958701 0.277845 0.0607889
v 23.6351 -122.286 1352.56
vn 0.964634 0.1572 0.211586
v 23.057 -121.686 1355.16
vn 0.955884 0.182411 0.230242
v 23.0163 -121.486 1355.16
vn 0.200125 0.963331 -0.178727
v 23.0294 -121.286 1354.96
vn 0.57934 0.805471 -0.124827
v 22.7976 -121.286 1355.96
vn 0.980956 -0.0335322 0.191313
v 23.9257 -121.686 1358.56
vn -0.128845 -0.746431 -0.652871
v 24.3023 -126.281 1347.36
vn 0.654272 0.55889 -0.50948
v 24.3695 -126.086 1347.36
vn -0.190455 -0.977955 -0.0856218
v 25.1023 -126.486 1349.35
vn 0.793873 -0.0660952 -0.60448
v 25.2726 -126.286 1349.36
vn 0.794361 0.200462 -0.573416
v 25.6853 -126.286 1349.76
vn 0.0649354 -0.98167 -0.179184
v 25.7023 -126.522 1349.76
vn 0.985188 0.171472 -0.00107317
v 25.8632 -126.486 1350.76
vn 0.948032 0.258738 -0.185176
v 25.7445 -126.286 1349.96
vn -0.161723 -0.978413 -0.128663
v 25.5023 -126.79 1351.16
vn 0.783536 0.548381 -0.292147
v 24.632 -124.286 1350.16
vn -0.161398 -0.923762 0.347297
v 24.5851 -124.886 1355.76
vn 0.854901 0.513604 -0.0731831
v 24.7555 -123.486 1353.76
vn -0.954386 0.289466 0.0731948
v 3.03034 -132.886 1434.56
vn -0.410575 0.838217 0.358916
v 3.03034 -132.886 1434.56
vn -0.648024 0.0517687 0.759858
v 3.03034 -132.886 1434.56
vn -0.492464 -0.74239 0.454242
v 3.03034 -132.886 1434.56
vn -0.262526 -0.871571 -0.414059
v 3.30227 -131.486 1424.45
vn -0.433435 -0.804329 -0.406435
v 3.10397 -130.086 1421.96
vn -0.877004 0.410055 0.250438
v 2.82571 -127.686 1418.76
vn -0.304326 -0.886878 -0.347611
v 3.03402 -127.086 1415.96
vn -0.985152 -0.15423 -0.0754217
v 2.87884 -126.486 1416.76
vn -0.856747 0.496172 0.140707
v 2.81009 -123.486 1407.16
vn -0.975834 -0.168307 -0.139355
v 2.81009 -123.486 1407.16
vn -0.858663 -0.509907 -0.0518997
v 3.42259 -122.086 1396.76
vn -0.673648 0.728853 0.12236
v 3.06009 -122.286 1403.96
vn -0.966037 0.255041 -0.0415532
v 3.06009 -122.286 1403.96
vn -0.186665 -0.927852 -0.322874
v 3.50227 -132.187 1425.96
vn -0.244241 -0.946292 -0.211841
v 3.50227 -132.962 1428.76
vn 0.0141446 -0.995315 -0.0956397
v 3.50227 -133.409 1431.56
vn 0.0357061 -0.99772 0.0572654
v 3.50227 -133.443 1434.16
vn -0.492464 -0.74239 0.454242
v 3.50227 -133.443 1434.16
vn -0.648024 0.0517687 0.759858
v 3.50227 -132.85 1434.96
vn -0.0113853 -0.973108 0.230069
v 4.50227 -133.086 1435.83
vn -0.492464 -0.74239 0.454242
v 4.50227 -133.086 1435.83
vn -0.454032 0.576736 0.679139
v 4.50227 -133.086 1435.83
vn 0.101901 0.077281 0.991788
v 4.50227 -133.086 1435.83
vn 0.326124 -0.620408 0.713258
v 4.50227 -133.086 1435.83
vn 0.101901 0.077281 0.991788
v 4.70227 -132.886 1435.79
vn 0.224538 -0.920127 -0.320856
v 4.8937 -129.486 1332.96
vn 0.204917 -0.966534 -0.154342
v 4.70227 -129.597 1333.36
vn -0.474442 -0.843431 -0.252049
v 4.70227 -129.597 1333.36
vn -0.548925 -0.828266 0.112506
v 4.30227 -129.909 1335.16
vn 0.253703 -0.949927 -0.182409
v 4.50227 -129.962 1334.96
vn 0.21447 -0.976327 0.0280667
v 4.70227 -130.022 1335.56
vn -0.724453 0.601065 -0.337473
v 3.92571 -127.886 1336.76
vn -0.985246 -0.0552526 -0.161981
v 3.92571 -127.886 1336.76
vn -0.919158 -0.393838 -0.00634951
v 3.99759 -128.086 1338.76
vn 0.418374 -0.870119 0.260492
v 4.50227 -128.39 1338.56
vn -0.999442 0.0246823 -0.0224992
v 3.89759 -127.686 1340.36
vn -0.991878 0.126996 -0.00705699
v 3.68196 -127.286 1345.36
vn 0.51834 -0.79515 -0.314739
v 4.10227 -126.787 1414.36
vn -0.525263 0.818392 -0.233094
v 4.37571 -124.686 1341.56
vn -0.734081 0.673058 -0.0901004
v 4.77259 -123.086 1369.76
vn 0.00851422 -0.998178 0.0597287
v 4.70227 -123.2 1385.16
vn -0.273543 -0.961856 0.00266078
v 3.90227 -122.709 1393.36
vn 0.605421 -0.795594 -0.022246
v 4.71894 -122.886 1397.16
vn -0.807527 0.589669 -0.0138096
v 3.91634 -121.086 1393.56
vn -0.506455 0.858658 0.0788089
v 3.70227 -120.928 1397.36
vn -0.806874 0.586596 -0.0697099
v 3.70227 -120.928 1397.36
vn -0.246686 -0.484743 0.839148
v 6.50227 -132.486 1435.44
vn 0.101901 0.077281 0.991788
v 6.50227 -132.272 1435.56
vn 0.304799 -0.4764 0.824706
v 6.50227 -132.272 1435.56
vn -0.246686 -0.484743 0.839148
v 6.50227 -132.272 1435.56
vn -0.365386 -0.304947 -0.879489
v 5.30227 -129.286 1332.71
vn -0.312179 -0.355884 -0.880847
v 6.10227 -129.128 1332.36
vn -0.0452917 0.286661 -0.956961
v 6.10227 -129.128 1332.36
vn 0.514463 -0.471702 -0.716118
v 6.10227 -129.128 1332.36
vn -0.108433 0.758873 -0.642148
v 6.10227 -127.125 1332.96
vn 0.167401 0.982658 -0.0797547
v 6.50227 -121.086 1373.06
vn -0.115526 0.988796 -0.0945353
v 5.70227 -120.686 1378.75
vn 0.168537 -0.913759 0.369648
v 7.30227 -132.286 1435.79
vn -0.182919 0.790207 0.584905
v 7.30227 -132.286 1435.79
vn 0.311365 -0.506183 0.804258
v 7.30227 -132.286 1435.79
vn 0.24379 -0.968626 -0.048268
v 7.50227 -128.815 1333.16
vn 0.143518 -0.656633 0.74043
v 8.10227 -129.184 1336.36
vn -0.125332 -0.636219 0.76126
v 8.10227 -129.184 1336.36
vn -0.811544 0.375574 0.447594
v 8.13509 -128.886 1429.96
vn 0.252563 0.229442 -0.939983
v 7.30227 -128.486 1332.8
vn -0.102973 0.758458 -0.643536
v 7.90227 -126.486 1333.41
vn 0.282288 0.954254 -0.0985498
v 6.90227 -121.687 1368.36
vn -0.139738 0.985479 -0.09646
v 6.90227 -121.687 1368.36
vn 0.193604 -0.522583 0.830316
v 8.90227 -131.886 1435.42
vn 0.193604 -0.522583 0.830316
v 8.90227 -131.662 1435.56
vn 0 0 1
v 8.90227 -131.662 1435.56
vn -0.100221 -0.0727156 0.992304
v 9.21404 -131.486 1435.56
vn -0.100221 -0.0727156 0.992304
v 9.30227 -131.607 1435.56
vn 0.388627 -0.750395 0.534675
v 9.30227 -131.607 1435.56
vn 0.0476677 -0.993813 -0.100322
v 9.10227 -129.086 1336.6
vn -0.0555653 0.78612 -0.615571
v 9.30227 -122.606 1337.76
vn -0.378598 0.920325 -0.0983121
v 9.43488 -118.886 1383.96
vn -0.1989 -0.144312 0.969336
v 9.90227 -131.09 1435.76
vn 0.128394 -0.649427 0.749506
v 9.90227 -131.09 1435.76
vn -0.575281 0.474516 0.666248
v 10.7023 -130.53 1436.16
vn 0.357668 0.612415 0.704997
v 10.7023 -130.53 1436.16
vn 0.357668 0.612415 0.704997
v 10.7023 -130.3 1435.96
vn -0.104827 0.201782 0.973805
v 10.7023 -130.3 1435.96
vn 0.357668 0.612415 0.704997
v 10.9023 -130.486 1436.02
vn -0.104827 0.201782 0.973805
v 10.9023 -130.486 1436.02
vn 0.804935 0.120393 0.581021
v 10.9023 -130.486 1436.02
vn -0.131437 -0.479194 0.867812
v 10.3023 -129.15 1336.96
vn 0.951953 -0.294476 0.0840758
v 10.5023 -129.103 1336.76
vn 0.090544 -0.386323 0.917909
v 10.5023 -129.103 1336.96
vn 0.955336 -0.295522 0
v 10.5023 -129.103 1336.96
vn 0.882248 0.0636066 0.466468
v 10.5023 -129.103 1336.96
vn 0.804935 0.120393 0.581021
v 11.4633 -130.086 1435.16
vn -0.104827 0.201782 0.973805
v 10.9023 -130.086 1435.94
vn 0.804935 0.120393 0.581021
v 10.9023 -130.086 1435.94
vn 0.0184389 -0.971574 0.236017
v 10.9023 -130.086 1435.94
vn -0.896559 0.0913302 0.433406
v 10.9023 -130.086 1435.94
vn 0.0444178 -0.887605 0.458458
v 11.1023 -129.886 1436.31
vn -0.121414 0.019502 0.99241
v 11.1023 -129.886 1436.31
vn 0.411937 -0.490777 0.767753
v 11.1023 -129.886 1436.31
vn 0.411937 -0.490777 0.767753
v 11.3023 -129.951 1436.16
vn 0.611155 0.0583232 -0.789359
v 10.1023 -128.086 1334.13
vn 0.96551 -0.0984383 0.241039
v 10.8448 -128.686 1335.56
vn 0.801137 -0.275055 -0.53153
v 10.8448 -128.686 1335.56
vn 0.94504 -0.12247 0.303152
v 11.0601 -127.286 1335.16
vn 0.975526 0.00259462 -0.219869
v 11.0601 -127.286 1335.16
vn 0.790824 -0.0532956 0.609718
v 10.3023 -128.686 1337.16
vn 0.929666 -0.0734163 0.361014
v 10.3483 -127.686 1337.36
vn 0.959778 -0.0981034 -0.263064
v 11.1023 -126.193 1335.36
vn 0.918916 -0.286012 0.271644
v 11.1476 -126.286 1335.56
vn -0.121414 0.019502 0.99241
v 11.682 -128.886 1436.36
vn -0.574481 -0.537511 0.617295
v 11.682 -128.886 1436.36
vn 0.487437 -0.789815 0.372287
v 11.9023 -129.086 1436.39
vn 0.411937 -0.490777 0.767753
v 11.9023 -129.086 1436.39
vn -0.574481 -0.537511 0.617295
v 11.9023 -129.086 1436.39
vn 0.41985 -0.739243 0.526541
v 12.1023 -128.686 1436.93
vn -0.737708 0.40317 0.541517
v 12.1023 -128.686 1436.93
vn -0.0879723 0.00679523 0.9961
v 12.1023 -128.686 1436.93
vn 0.692404 -0.562069 0.452387
v 12.5257 -128.286 1436.96
vn 0.452019 -0.0349152 0.891325
v 12.5257 -128.286 1436.96
vn -0.0879723 0.00679523 0.9961
v 12.5412 -128.086 1436.96
vn 0.452019 -0.0349152 0.891325
v 12.5412 -128.086 1436.96
vn -0.183891 0.588886 0.787018
v 12.5412 -128.086 1436.96
vn 0.036724 -0.406446 0.912937
v 12.8257 -128.486 1436.16
vn -0.183891 0.588886 0.787018
v 12.7023 -127.768 1436.76
vn 0 0 1
v 12.7023 -127.768 1436.76
vn 0.452019 -0.0349152 0.891325
v 12.9663 -127.686 1436.76
vn -0.183891 0.588886 0.787018
v 12.9663 -127.686 1436.76
vn 0 0 1
v 12.9663 -127.686 1436.76
vn 0.932268 -0.197599 -0.303036
v 11.532 -125.086 1335.96
vn 0.790341 -0.575499 0.210147
v 11.532 -125.086 1335.96
vn 0.66616 -0.726793 0.167342
v 12.5023 -123.886 1337.31
vn -0.372313 -0.92793 0.0181338
v 12.5023 -123.886 1337.31
vn -0.271771 -0.961046 0.0503032
v 12.3023 -123.781 1338.56
vn -0.0931237 0.995635 -0.00622513
v 12.1023 -122.209 1338.56
vn -0.58241 0.597381 0.551302
v 13.4023 -127.086 1436.76
vn 0.036724 -0.406446 0.912937
v 13.4023 -127.086 1436.76
vn 0.695547 -0.505359 0.510712
v 13.4023 -127.086 1436.76
vn -0.575681 0.0946766 0.812175
v 13.4023 -127.086 1436.76
vn -0.51149 0.274366 0.81431
v 13.7023 -126.686 1436.93
vn 0.657785 -0.429166 0.61898
v 13.7023 -126.686 1436.93
vn -0.24345 0.399243 0.883933
v 14.1023 -126.074 1436.76
vn -0.605695 0.66825 0.431943
v 14.1023 -126.074 1436.76
vn 0.348981 0.78703 0.50872
v 14.1023 -126.074 1436.76
vn 0.912345 0.254638 0.320601
v 14.3023 -125.686 1436.02
vn 0.0919788 -0.599896 -0.794773
v 13.7023 -124.347 1338.36
vn 0.64371 -0.0630089 -0.762671
v 13.7023 -124.347 1338.36
vn 0.658311 0.199923 -0.725712
v 14.3023 -124.286 1338.38
vn 0.326895 0.926526 0.186251
v 14.1023 -124.059 1429.56
vn 0.726121 0.687063 0.0263047
v 14.5023 -124.197 1431.36
vn -0.036396 0.975741 -0.215881
v 14.1023 -124.05 1432.56
vn 0.800617 0.592503 -0.0891808
v 14.5102 -124.086 1432.56
vn 0.132154 0.726757 0.674062
v 14.1023 -125.298 1435.56
vn 0.88229 0.293953 0.367636
v 14.3163 -125.086 1435.36
vn 0.0821773 -0.471349 -0.87811
v 13.3023 -123.686 1337.97
vn 0.171292 0.902863 0.394332
v 14.3023 -122.525 1425.96
vn 0.71897 0.63662 0.278924
v 14.3023 -122.525 1425.96
vn -0.212295 0.970394 -0.115178
v 14.1023 -123.759 1433.56
vn 0.651413 0.757566 -0.0418838
v 14.3023 -123.715 1433.56
vn 0.498938 0.523475 0.690677
v 14.4416 -123.886 1434.36
vn 0.687611 0.721428 0.0820506
v 14.4416 -123.886 1434.36
vn 0.328803 0.568999 0.753743
v 14.3023 -123.753 1434.36
vn -0.213494 0.975873 0.0457487
v 14.3023 -123.753 1434.36
vn 0.648018 0.759277 0.0597521
v 14.3023 -123.753 1434.36
vn 0.579347 0.753451 0.310917
v 13.9023 -120.143 1420.96
vn 0.978687 -0.202748 -0.0326352
v 15.1023 -126.486 1429.01
vn -0.279889 -0.95742 0.0707775
v 15.3023 -125.086 1339.35
vn 0.634456 -0.271886 -0.723563
v 15.3023 -125.086 1339.35
vn 0.752736 -0.0118749 -0.658215
v 15.7023 -125.09 1339.76
vn 0.221568 -0.889497 -0.399629
v 15.7023 -125.09 1339.76
vn 0.979821 -0.161958 -0.117134
v 15.1023 -124.486 1425.86
vn 0.986406 0.114939 0.117442
v 14.9538 -118.886 1414.36
vn 0.199267 -0.923657 -0.327338
v 16.5023 -125.34 1340.76
vn 0.199267 -0.923657 -0.327338
v 17.1023 -125.286 1340.97
vn 0.66423 -0.540952 -0.515916
v 17.1023 -125.286 1340.97
vn 0.883261 -0.430007 0.186934
v 17.7737 -117.086 1390.76
vn 0.468819 -0.881997 0.0478426
v 17.2689 -117.086 1393.76
vn -0.253846 -0.965385 0.0599522
v 19.1023 -125.581 1343.36
vn -0.0777087 -0.317463 -0.945081
v 19.1023 -125.581 1343.36
vn 0.50345 -0.667188 -0.548997
v 18.0183 -125.486 1342.36
vn -0.277721 -0.948299 0.153624
v 18.0183 -125.486 1342.36
vn 0.707031 0.229949 -0.668753
v 18.1023 -125.286 1342.26
vn 0.271061 0.0574134 -0.960848
v 19.3023 -125.486 1343.31
vn 0.538414 0.240478 -0.807639
v 19.3101 -124.086 1343.76
vn 0.954419 -0.0944683 0.283125
v 18.7023 -116.437 1382.36
vn 0.77933 0.624835 0.0471919
v 18.7023 -116.437 1382.36
vn 0.891434 0.443554 0.0927592
v 19.0288 -117.486 1384.56
vn 0.878076 0.465093 0.112566
v 18.1023 -116.696 1389.96
vn -0.0437269 -0.995256 -0.0869145
v 19.5299 -125.686 1343.36
vn 0.750803 -0.121634 -0.649231
v 19.5299 -125.686 1343.36
vn -0.0711644 -0.997201 0.0229465
v 20.7023 -125.74 1344.76
vn 0.290777 -0.869371 -0.399552
v 20.7023 -125.74 1344.76
vn 0.72685 0.161367 -0.667571
v 19.5223 -125.486 1343.36
vn 0.630206 0.438371 -0.640836
v 20.7557 -125.486 1344.76
vn 0.967772 0.158586 0.195624
v 20.9695 -119.286 1373.96
vn 0.860173 0.506512 0.0595664
v 20.9695 -119.286 1373.96
vn -0.214342 -0.969343 0.120134
v 21.1023 -125.79 1345.16
vn 0.41684 -0.757858 -0.501892
v 21.7023 -125.686 1345.37
vn 0.643831 0.413445 -0.643851
v 21.7023 -125.686 1345.37
vn 0.475477 -0.688974 -0.547025
v 22.3023 -125.9 1346.16
vn 0.619971 0.4011 -0.674355
v 22.5094 -125.886 1346.36
vn -0.0550802 -0.99822 -0.0228803
v 22.5094 -125.886 1346.36
vn 0.235909 -0.73146 -0.639776
v 22.5094 -125.886 1346.36
vn 0.979554 0.0563573 0.193124
v 22.2351 -121.086 1366.96
vn 0.745975 0.643133 0.172921
v 21.5023 -120.375 1358.16
vn 0.754535 0.656258 -0.00150603
v 21.7023 -118.94 1365.96
vn 0.0544481 -0.751588 -0.657382
v 24.1023 -126.247 1347.36
vn 0.671916 0.543081 -0.503579
v 24.1023 -126.072 1347.16
vn 0.427063 0.540776 -0.724692
v 24.1023 -126.072 1347.16
vn 0.580583 -0.199569 -0.789364
v 24.1023 -126.072 1347.16
vn 0.678886 0.637155 -0.364893
v 23.5023 -123.722 1348.56
vn 0.984119 0.0544349 0.168959
v 23.6118 -122.486 1352.76
vn 0.0433962 0.985783 -0.162321
v 23.3023 -121.825 1352.36
vn 0.654729 0.746891 -0.116119
v 23.057 -121.686 1355.16
vn 0.745975 0.643133 0.172921
v 23.0294 -121.286 1354.96
vn 0.947234 0.277904 0.15974
v 23.0294 -121.286 1354.96
vn 0.745975 0.643133 0.172921
v 22.7976 -121.286 1355.96
vn 0.95969 0.177309 0.218074
v 22.7976 -121.286 1355.96
vn 0.768817 0.638503 -0.0351342
v 23.9257 -121.686 1358.56
vn -0.207653 -0.978191 0.00469919
v 24.3023 -126.281 1347.36
vn 0.751344 -0.377252 -0.541445
v 24.3023 -126.281 1347.36
vn 0.741095 -0.254743 -0.621196
v 24.3695 -126.086 1347.36
vn 0.639117 -0.502669 -0.582111
v 25.1023 -126.486 1349.35
vn 0.823635 0.536426 -0.184045
v 25.6853 -126.286 1349.76
vn 0.849792 -0.0819588 -0.520707
v 25.7023 -126.522 1349.76
vn 0.598725 -0.79809 -0.0676788
v 25.7023 -126.522 1349.76
vn 0.801322 -0.479164 0.35817
v 25.8632 -126.486 1350.76
vn 0.598725 -0.79809 -0.0676788
v 25.8632 -126.486 1350.76
vn -0.0376905 -0.925909 0.375861
v 25.5023 -126.79 1351.16
vn 0.801322 -0.479164 0.35817
v 25.5023 -126.79 1351.16
vn 0.598725 -0.79809 -0.0676788
v 25.5023 -126.79 1351.16
vn 0.587465 -0.720823 0.36783
v 24.5851 -124.886 1355.76
vn 0.979907 0.0913011 0.17733
v 24.5851 -124.886 1355.76
vn 0.801322 -0.479164 0.35817
v 24.5851 -124.886 1355.76
f 1//1 6//6 18//18
f 1//1 18//18 21//21
f 21//21 24//24 1//1
f 2//2 1//1 24//24
f 2//2 3//3 7//7
f 24//24 3//3 2//2
f 24//24 4//4 3//3
f 24//24 27//27 4//4
f 57//57 3//3 449//449
f 100//100 57//57 5//5
f 57//57 450//450 5//5
f 450//450 28//28 5//5
f 451//451 30//30 468//468
f 10//10 6//6 8//8
f 453//453 454//454 44//44
f 1//1 8//8 6//6
f 1//1 2//2 7//7
f 7//7 3//3 57//57
f 10//10 8//8 9//9
f 7//7 57//57 1//1
f 11//11 12//12 10//10
f 454//454 456//456 44//44
f 57//57 13//13 455//455
f 10//10 9//9 11//11
f 455//455 9//9 57//57
f 1//1 57//57 9//9
f 8//8 1//1 9//9
f 12//12 11//11 457//457
f 12//12 14//14 66//66
f 14//14 12//12 457//457
f 13//13 15//15 458//458
f 13//13 69//69 15//15
f 82//82 459//459 17//17
f 82//82 66//66 14//14
f 458//458 15//15 461//461
f 90//90 461//461 15//15
f 15//15 69//69 90//90
f 16//16 88//88 74//74
f 16//16 462//462 88//88
f 461//461 89//89 494//494
f 90//90 89//89 461//461
f 25//25 97//97 29//29
f 466//466 465//465 26//26
f 453//453 19//19 463//463
f 19//19 94//94 20//20
f 20//20 464//464 463//463
f 20//20 463//463 19//19
f 464//464 22//22 465//465
f 20//20 22//22 464//464
f 20//20 23//23 22//22
f 167//167 57//57 100//100
f 465//465 22//22 23//23
f 23//23 26//26 465//465
f 23//23 25//25 26//26
f 25//25 29//29 26//26
f 25//25 23//23 97//97
f 26//26 29//29 466//466
f 97//97 101//101 29//29
f 28//28 100//100 5//5
f 469//469 466//466 29//29
f 467//467 470//470 452//452
f 28//28 31//31 100//100
f 31//31 103//103 100//100
f 31//31 28//28 471//471
f 472//472 497//497 474//474
f 44//44 56//56 32//32
f 56//56 94//94 32//32
f 32//32 19//19 453//453
f 32//32 453//453 44//44
f 19//19 32//32 94//94
f 33//33 37//37 36//36
f 36//36 34//34 33//33
f 475//475 35//35 476//476
f 475//475 138//138 35//35
f 104//104 138//138 475//475
f 138//138 476//476 35//35
f 36//36 37//37 38//38
f 39//39 478//478 477//477
f 476//476 138//138 479//479
f 478//478 40//40 45//45
f 39//39 41//41 478//478
f 478//478 41//41 40//40
f 40//40 41//41 42//42
f 479//479 138//138 480//480
f 42//42 43//43 40//40
f 43//43 42//42 110//110
f 481//481 34//34 36//36
f 482//482 36//36 38//38
f 34//34 481//481 111//111
f 45//45 40//40 43//43
f 43//43 47//47 46//46
f 483//483 45//45 43//43
f 110//110 47//47 43//43
f 46//46 49//49 48//48
f 45//45 483//483 485//485
f 49//49 46//46 47//47
f 485//485 60//60 45//45
f 48//48 49//49 52//52
f 47//47 50//50 49//49
f 47//47 116//116 50//50
f 116//116 51//51 50//50
f 50//50 53//53 49//49
f 53//53 50//50 51//51
f 53//53 51//51 115//115
f 48//48 52//52 54//54
f 485//485 486//486 60//60
f 49//49 53//53 52//52
f 55//55 54//54 52//52
f 54//54 55//55 61//61
f 53//53 55//55 52//52
f 59//59 44//44 456//456
f 487//487 56//56 44//44
f 488//488 187//187 481//481
f 486//486 63//63 60//60
f 486//486 61//61 63//63
f 67//67 58//58 66//66
f 68//68 58//58 67//67
f 456//456 66//66 58//58
f 191//191 487//487 68//68
f 59//59 456//456 58//58
f 191//191 56//56 487//487
f 122//122 60//60 63//63
f 120//120 64//64 61//61
f 61//61 62//62 63//63
f 62//62 61//61 64//64
f 63//63 62//62 65//65
f 63//63 65//65 70//70
f 70//70 65//65 71//71
f 65//65 62//62 64//64
f 72//72 65//65 64//64
f 72//72 64//64 124//124
f 71//71 65//65 72//72
f 68//68 67//67 127//127
f 58//58 68//68 487//487
f 13//13 57//57 69//69
f 122//122 63//63 489//489
f 122//122 489//489 123//123
f 71//71 73//73 70//70
f 71//71 72//72 73//73
f 73//73 85//85 70//70
f 124//124 75//75 72//72
f 72//72 75//75 74//74
f 72//72 74//74 73//73
f 490//490 124//124 125//125
f 76//76 74//74 75//75
f 490//490 77//77 491//491
f 460//460 74//74 76//76
f 79//79 78//78 491//491
f 76//76 78//78 460//460
f 77//77 79//79 491//491
f 78//78 81//81 460//460
f 81//81 78//78 79//79
f 77//77 80//80 79//79
f 460//460 81//81 82//82
f 79//79 80//80 81//81
f 460//460 82//82 17//17
f 82//82 81//81 83//83
f 81//81 80//80 83//83
f 83//83 80//80 84//84
f 83//83 84//84 67//67
f 82//82 83//83 66//66
f 67//67 66//66 83//83
f 127//127 67//67 84//84
f 489//489 85//85 128//128
f 73//73 74//74 85//85
f 91//91 128//128 85//85
f 85//85 74//74 86//86
f 74//74 87//87 86//86
f 86//86 493//493 92//92
f 88//88 87//87 74//74
f 93//93 493//493 495//495
f 92//92 91//91 85//85
f 85//85 86//86 92//92
f 93//93 91//91 92//92
f 493//493 93//93 92//92
f 93//93 494//494 129//129
f 89//89 90//90 494//494
f 20//20 94//94 97//97
f 94//94 95//95 97//97
f 94//94 96//96 95//95
f 94//94 133//133 96//96
f 20//20 97//97 23//23
f 95//95 98//98 97//97
f 95//95 96//96 98//98
f 96//96 133//133 98//98
f 98//98 101//101 97//97
f 99//99 101//101 98//98
f 133//133 132//132 98//98
f 98//98 132//132 99//99
f 29//29 101//101 469//469
f 99//99 102//102 101//101
f 102//102 473//473 101//101
f 102//102 498//498 473//473
f 134//134 102//102 99//99
f 475//475 105//105 104//104
f 107//107 510//510 104//104
f 107//107 104//104 105//105
f 501//501 500//500 106//106
f 106//106 500//500 33//33
f 33//33 34//34 106//106
f 111//111 502//502 106//106
f 108//108 42//42 480//480
f 110//110 42//42 108//108
f 108//108 480//480 139//139
f 139//139 480//480 138//138
f 139//139 140//140 109//109
f 139//139 109//109 108//108
f 108//108 112//112 110//110
f 94//94 56//56 191//191
f 167//167 141//141 57//57
f 34//34 111//111 106//106
f 143//143 108//108 109//109
f 143//143 112//112 108//108
f 112//112 143//143 113//113
f 484//484 110//110 112//112
f 112//112 114//114 484//484
f 112//112 113//113 114//114
f 148//148 113//113 143//143
f 148//148 114//114 113//113
f 114//114 151//151 484//484
f 51//51 116//116 115//115
f 47//47 117//117 116//116
f 116//116 117//117 115//115
f 115//115 117//117 118//118
f 117//117 484//484 151//151
f 149//149 117//117 151//151
f 115//115 119//119 53//53
f 152//152 115//115 118//118
f 117//117 149//149 118//118
f 152//152 118//118 149//149
f 53//53 119//119 55//55
f 119//119 115//115 152//152
f 119//119 121//121 55//55
f 119//119 152//152 121//121
f 111//111 481//481 187//187
f 55//55 120//120 61//61
f 121//121 120//120 55//55
f 121//121 64//64 120//120
f 488//488 122//122 187//187
f 64//64 121//121 124//124
f 248//248 124//124 121//121
f 69//69 57//57 141//141
f 248//248 125//125 124//124
f 125//125 77//77 490//490
f 125//125 248//248 77//77
f 77//77 127//127 492//492
f 492//492 127//127 84//84
f 123//123 489//489 128//128
f 123//123 128//128 126//126
f 154//154 505//505 157//157
f 157//157 505//505 155//155
f 155//155 505//505 506//506
f 127//127 77//77 248//248
f 91//91 159//159 506//506
f 129//129 159//159 91//91
f 91//91 93//93 129//129
f 494//494 90//90 129//129
f 133//133 137//137 130//130
f 137//137 131//131 130//130
f 131//131 164//164 130//130
f 137//137 163//163 131//131
f 131//131 163//163 164//164
f 132//132 133//133 166//166
f 164//164 133//133 130//130
f 134//134 99//99 132//132
f 100//100 103//103 135//135
f 134//134 132//132 166//166
f 136//136 499//499 496//496
f 507//507 102//102 134//134
f 103//103 508//508 135//135
f 135//135 167//167 100//100
f 169//169 167//167 135//135
f 168//168 507//507 134//134
f 509//509 518//518 519//519
f 508//508 169//169 135//135
f 166//166 168//168 134//134
f 137//137 133//133 94//94
f 94//94 191//191 137//137
f 142//142 138//138 503//503
f 109//109 511//511 143//143
f 139//139 138//138 140//140
f 143//143 511//511 145//145
f 511//511 146//146 145//145
f 111//111 514//514 502//502
f 150//150 514//514 111//111
f 145//145 144//144 143//143
f 145//145 147//147 144//144
f 146//146 511//511 147//147
f 146//146 147//147 145//145
f 114//114 148//148 151//151
f 144//144 148//148 143//143
f 175//175 148//148 144//144
f 504//504 525//525 515//515
f 152//152 149//149 151//151
f 151//151 148//148 186//186
f 151//151 186//186 152//152
f 525//525 242//242 515//515
f 248//248 121//121 152//152
f 245//245 248//248 152//152
f 351//351 68//68 127//127
f 122//122 123//123 153//153
f 126//126 153//153 123//123
f 516//516 505//505 154//154
f 516//516 154//154 157//157
f 517//517 157//157 156//156
f 155//155 506//506 157//157
f 90//90 69//69 281//281
f 156//156 506//506 158//158
f 156//156 157//157 506//506
f 506//506 159//159 158//158
f 192//192 158//158 194//194
f 194//194 158//158 160//160
f 159//159 129//129 158//158
f 160//160 161//161 196//196
f 162//162 196//196 161//161
f 162//162 198//198 196//196
f 199//199 198//198 162//162
f 158//158 129//129 160//160
f 160//160 129//129 161//161
f 161//161 129//129 162//162
f 199//199 162//162 129//129
f 129//129 90//90 199//199
f 137//137 165//165 163//163
f 163//163 165//165 164//164
f 171//171 164//164 165//165
f 164//164 171//171 133//133
f 133//133 171//171 166//166
f 137//137 283//283 165//165
f 167//167 169//169 170//170
f 519//519 518//518 172//172
f 521//521 520//520 522//522
f 202//202 167//167 170//170
f 171//171 168//168 166//166
f 171//171 523//523 168//168
f 527//527 521//521 522//522
f 523//523 171//171 201//201
f 167//167 202//202 141//141
f 173//173 174//174 512//512
f 140//140 138//138 524//524
f 137//137 191//191 283//283
f 142//142 219//219 138//138
f 144//144 147//147 176//176
f 176//176 147//147 222//222
f 174//174 147//147 512//512
f 174//174 222//222 147//147
f 222//222 178//178 176//176
f 230//230 182//182 222//222
f 176//176 175//175 144//144
f 176//176 177//177 175//175
f 178//178 179//179 176//176
f 176//176 179//179 177//177
f 179//179 180//180 177//177
f 177//177 180//180 175//175
f 178//178 181//181 179//179
f 181//181 180//180 179//179
f 178//178 222//222 182//182
f 182//182 181//181 178//178
f 183//183 185//185 180//180
f 181//181 182//182 180//180
f 182//182 183//183 180//180
f 182//182 232//232 183//183
f 185//185 183//183 232//232
f 237//237 185//185 232//232
f 175//175 180//180 185//185
f 148//148 175//175 184//184
f 175//175 185//185 184//184
f 148//148 184//184 186//186
f 237//237 233//233 185//185
f 185//185 186//186 184//184
f 186//186 185//185 152//152
f 185//185 240//240 152//152
f 188//188 122//122 189//189
f 122//122 153//153 189//189
f 188//188 189//189 190//190
f 188//188 190//190 243//243
f 517//517 190//190 189//189
f 243//243 190//190 517//517
f 351//351 191//191 68//68
f 69//69 141//141 241//241
f 517//517 156//156 192//192
f 246//246 247//247 248//248
f 156//156 158//158 192//192
f 336//336 192//192 194//194
f 336//336 194//194 193//193
f 194//194 160//160 195//195
f 194//194 195//195 193//193
f 195//195 160//160 196//196
f 196//196 193//193 195//195
f 196//196 198//198 193//193
f 198//198 197//197 193//193
f 198//198 199//199 526//526
f 248//248 249//249 127//127
f 251//251 281//281 69//69
f 250//250 251//251 69//69
f 200//200 526//526 199//199
f 199//199 281//281 200//200
f 199//199 90//90 281//281
f 203//203 165//165 214//214
f 283//283 322//322 165//165
f 322//322 214//214 165//165
f 165//165 201//201 171//171
f 201//201 528//528 523//523
f 201//201 204//204 528//528
f 202//202 205//205 141//141
f 201//201 165//165 203//203
f 201//201 203//203 204//204
f 528//528 204//204 207//207
f 202//202 529//529 205//205
f 203//203 206//206 204//204
f 207//207 204//204 206//206
f 205//205 208//208 215//215
f 205//205 529//529 208//208
f 214//214 206//206 203//203
f 206//206 209//209 207//207
f 530//530 533//533 531//531
f 209//209 206//206 214//214
f 542//542 532//532 534//534
f 543//543 535//535 541//541
f 524//524 138//138 210//210
f 138//138 220//220 211//211
f 138//138 211//211 210//210
f 174//174 173//173 536//536
f 222//222 174//174 223//223
f 174//174 536//536 223//223
f 211//211 212//212 210//210
f 538//538 223//223 536//536
f 537//537 551//551 213//213
f 537//537 213//213 539//539
f 551//551 226//226 213//213
f 226//226 540//540 213//213
f 141//141 205//205 215//215
f 214//214 216//216 544//544
f 545//545 217//217 513//513
f 546//546 544//544 216//216
f 217//217 254//254 513//513
f 214//214 218//218 216//216
f 216//216 218//218 546//546
f 255//255 559//559 547//547
f 254//254 282//282 513//513
f 218//218 214//214 561//561
f 562//562 548//548 549//549
f 550//550 514//514 150//150
f 138//138 219//219 220//220
f 550//550 227//227 221//221
f 551//551 553//553 226//226
f 226//226 553//553 231//231
f 550//550 221//221 552//552
f 230//230 222//222 225//225
f 222//222 223//223 225//225
f 224//224 540//540 226//226
f 555//555 540//540 224//224
f 555//555 224//224 556//556
f 224//224 226//226 556//556
f 226//226 231//231 556//556
f 235//235 513//513 282//282
f 550//550 150//150 227//227
f 227//227 150//150 242//242
f 227//227 228//228 221//221
f 557//557 229//229 554//554
f 228//228 227//227 266//266
f 557//557 578//578 229//229
f 182//182 230//230 232//232
f 231//231 230//230 225//225
f 230//230 231//231 232//232
f 558//558 231//231 553//553
f 579//579 232//232 231//231
f 558//558 579//579 231//231
f 579//579 237//237 232//232
f 239//239 233//233 237//237
f 141//141 264//264 234//234
f 242//242 236//236 227//227
f 266//266 227//227 236//236
f 236//236 242//242 266//266
f 579//579 272//272 237//237
f 233//233 238//238 185//185
f 233//233 239//239 238//238
f 238//238 240//240 185//185
f 238//238 239//239 240//240
f 241//241 141//141 234//234
f 268//268 269//269 241//241
f 268//268 241//241 234//234
f 275//275 242//242 525//525
f 239//239 237//237 272//272
f 152//152 244//244 246//246
f 246//246 245//245 152//152
f 244//244 247//247 246//246
f 583//583 187//187 122//122
f 583//583 122//122 188//188
f 243//243 583//583 188//188
f 517//517 336//336 243//243
f 336//336 517//517 192//192
f 245//245 246//246 248//248
f 351//351 314//314 191//191
f 241//241 250//250 69//69
f 250//250 241//241 277//277
f 387//387 336//336 526//526
f 526//526 336//336 193//193
f 248//248 247//247 249//249
f 247//247 351//351 249//249
f 249//249 351//351 127//127
f 353//353 526//526 200//200
f 250//250 252//252 251//251
f 251//251 252//252 278//278
f 252//252 250//250 278//278
f 322//322 253//253 214//214
f 261//261 253//253 322//322
f 253//253 561//561 214//214
f 563//563 257//257 560//560
f 561//561 253//253 256//256
f 561//561 256//256 564//564
f 261//261 256//256 253//253
f 282//282 265//265 235//235
f 258//258 254//254 565//565
f 565//565 260//260 258//258
f 566//566 259//259 569//569
f 282//282 254//254 258//258
f 261//261 567//567 256//256
f 567//567 564//564 256//256
f 262//262 282//282 258//258
f 258//258 260//260 262//262
f 567//567 261//261 263//263
f 568//568 575//575 570//570
f 571//571 576//576 573//573
f 234//234 264//264 269//269
f 269//269 264//264 295//295
f 264//264 141//141 295//295
f 235//235 295//295 141//141
f 265//265 295//295 235//235
f 300//300 265//265 282//282
f 270//270 266//266 242//242
f 239//239 329//329 240//240
f 240//240 329//329 152//152
f 241//241 269//269 267//267
f 269//269 268//268 234//234
f 269//269 295//295 296//296
f 269//269 296//296 267//267
f 298//298 295//295 265//265
f 242//242 275//275 303//303
f 579//579 271//271 272//272
f 580//580 271//271 579//579
f 293//293 273//273 582//582
f 293//293 582//582 581//581
f 582//582 273//273 272//272
f 239//239 272//272 329//329
f 272//272 273//273 329//329
f 152//152 274//274 244//244
f 152//152 304//304 274//274
f 315//315 241//241 267//267
f 296//296 305//305 267//267
f 304//304 311//311 274//274
f 276//276 244//244 274//274
f 276//276 247//247 244//244
f 274//274 311//311 276//276
f 311//311 313//313 276//276
f 312//312 247//247 276//276
f 241//241 315//315 277//277
f 387//387 526//526 353//353
f 280//280 353//353 200//200
f 247//247 344//344 351//351
f 320//320 281//281 251//251
f 278//278 320//320 251//251
f 250//250 277//277 278//278
f 277//277 279//279 278//278
f 320//320 278//278 279//279
f 277//277 315//315 279//279
f 200//200 281//281 280//280
f 281//281 355//355 321//321
f 355//355 281//281 320//320
f 283//283 323//323 322//322
f 322//322 289//289 261//261
f 284//284 289//289 322//322
f 577//577 285//285 574//574
f 191//191 337//337 283//283
f 284//284 301//301 291//291
f 333//333 309//309 284//284
f 262//262 584//584 282//282
f 572//572 286//286 585//585
f 261//261 586//586 263//263
f 587//587 588//588 282//282
f 588//588 287//287 282//282
f 287//287 300//300 282//282
f 289//289 589//589 261//261
f 289//289 288//288 589//589
f 589//589 288//288 290//290
f 588//588 590//590 287//287
f 591//591 300//300 287//287
f 288//288 289//289 290//290
f 592//592 292//292 601//601
f 289//289 284//284 290//290
f 284//284 291//291 290//290
f 291//291 593//593 290//290
f 593//593 291//291 301//301
f 603//603 294//294 594//594
f 325//325 594//594 294//294
f 337//337 330//330 283//283
f 296//296 295//295 297//297
f 597//597 598//598 332//332
f 297//297 295//295 599//599
f 299//299 297//297 599//599
f 333//333 600//600 308//308
f 306//306 298//298 265//265
f 265//265 300//300 310//310
f 610//610 601//601 302//302
f 610//610 302//302 608//608
f 309//309 602//602 301//301
f 284//284 309//309 301//301
f 309//309 333//333 308//308
f 292//292 302//302 601//601
f 301//301 602//602 593//593
f 595//595 270//270 303//303
f 242//242 303//303 270//270
f 303//303 275//275 372//372
f 152//152 386//386 304//304
f 332//332 604//604 597//597
f 599//599 606//606 307//307
f 307//307 606//606 611//611
f 299//299 599//599 307//307
f 600//600 607//607 308//308
f 308//308 607//607 612//612
f 265//265 310//310 306//306
f 609//609 308//308 612//612
f 372//372 275//275 430//430
f 583//583 243//243 336//336
f 313//313 311//311 304//304
f 386//386 313//313 304//304
f 313//313 386//386 340//340
f 313//313 312//312 276//276
f 312//312 313//313 247//247
f 267//267 305//305 315//315
f 313//313 340//340 247//247
f 316//316 318//318 279//279
f 334//334 318//318 613//613
f 316//316 279//279 315//315
f 316//316 315//315 305//305
f 317//317 247//247 340//340
f 247//247 317//317 344//344
f 344//344 317//317 341//341
f 279//279 318//318 320//320
f 318//318 334//334 350//350
f 280//280 319//319 353//353
f 353//353 319//319 321//321
f 319//319 280//280 281//281
f 353//353 321//321 369//369
f 321//321 319//319 281//281
f 321//321 355//355 369//369
f 323//323 283//283 330//330
f 324//324 322//322 614//614
f 324//324 333//333 322//322
f 322//322 333//333 284//284
f 615//615 327//327 273//273
f 293//293 615//615 273//273
f 326//326 616//616 596//596
f 615//615 328//328 327//327
f 617//617 616//616 326//326
f 372//372 326//326 596//596
f 326//326 372//372 617//617
f 617//617 372//372 371//371
f 370//370 273//273 327//327
f 328//328 370//370 327//327
f 618//618 622//622 621//621
f 385//385 152//152 329//329
f 335//335 331//331 334//334
f 337//337 331//331 619//619
f 619//619 324//324 614//614
f 619//619 331//331 324//324
f 335//335 324//324 331//331
f 332//332 324//324 335//335
f 335//335 605//605 332//332
f 324//324 332//332 333//333
f 600//600 333//333 598//598
f 333//333 332//332 598//598
f 303//303 372//372 596//596
f 273//273 385//385 329//329
f 335//335 334//334 605//605
f 334//334 331//331 337//337
f 336//336 661//661 583//583
f 337//337 191//191 314//314
f 605//605 334//334 613//613
f 338//338 337//337 314//314
f 314//314 351//351 352//352
f 337//337 339//339 334//334
f 338//338 314//314 352//352
f 338//338 339//339 337//337
f 352//352 339//339 338//338
f 340//340 386//386 373//373
f 317//317 340//340 375//375
f 341//341 317//317 375//375
f 342//342 341//341 354//354
f 341//341 342//342 344//344
f 343//343 342//342 356//356
f 357//357 343//343 356//356
f 354//354 356//356 342//342
f 361//361 343//343 357//357
f 378//378 356//356 354//354
f 344//344 342//342 345//345
f 346//346 344//344 345//345
f 345//345 342//342 343//343
f 345//345 343//343 361//361
f 344//344 346//346 351//351
f 345//345 362//362 363//363
f 345//345 363//363 364//364
f 352//352 351//351 346//346
f 346//346 345//345 347//347
f 346//346 347//347 348//348
f 346//346 348//348 620//620
f 345//345 364//364 347//347
f 348//348 347//347 349//349
f 620//620 348//348 349//349
f 364//364 367//367 347//347
f 365//365 349//349 367//367
f 367//367 349//349 347//347
f 365//365 318//318 350//350
f 320//320 318//318 365//365
f 620//620 349//349 350//350
f 365//365 350//350 349//349
f 339//339 620//620 350//350
f 339//339 350//350 334//334
f 369//369 355//355 368//368
f 391//391 368//368 377//377
f 368//368 355//355 377//377
f 358//358 357//357 356//356
f 357//357 358//358 361//361
f 359//359 358//358 356//356
f 358//358 359//359 361//361
f 359//359 377//377 355//355
f 359//359 355//355 360//360
f 356//356 378//378 359//359
f 378//378 377//377 359//359
f 345//345 361//361 362//362
f 361//361 359//359 360//360
f 361//361 360//360 362//362
f 366//366 355//355 320//320
f 355//355 366//366 360//360
f 366//366 363//363 360//360
f 363//363 362//362 360//360
f 320//320 365//365 366//366
f 363//363 366//366 367//367
f 363//363 367//367 364//364
f 367//367 366//366 365//365
f 353//353 369//369 368//368
f 368//368 391//391 353//353
f 621//621 622//622 381//381
f 623//623 382//382 628//628
f 629//629 273//273 370//370
f 371//371 372//372 630//630
f 273//273 629//629 385//385
f 152//152 385//385 386//386
f 430//430 384//384 372//372
f 385//385 414//414 386//386
f 373//373 375//375 340//340
f 373//373 389//389 375//375
f 341//341 375//375 354//354
f 389//389 374//374 375//375
f 376//376 624//624 393//393
f 625//625 375//375 374//374
f 393//393 378//378 376//376
f 378//378 636//636 377//377
f 354//354 375//375 625//625
f 354//354 376//376 378//378
f 379//379 628//628 383//383
f 385//385 629//629 626//626
f 626//626 380//380 385//385
f 380//380 395//395 385//385
f 394//394 627//627 631//631
f 380//380 626//626 637//637
f 382//382 383//383 628//628
f 630//630 632//632 631//631
f 372//372 632//632 630//630
f 631//631 632//632 397//397
f 373//373 386//386 403//403
f 403//403 404//404 373//373
f 387//387 353//353 388//388
f 387//387 388//388 401//401
f 401//401 388//388 353//353
f 406//406 407//407 390//390
f 404//404 389//389 373//373
f 392//392 624//624 389//389
f 407//407 391//391 390//390
f 635//635 390//390 391//391
f 635//635 391//391 636//636
f 391//391 377//377 636//636
f 624//624 392//392 393//393
f 631//631 397//397 394//394
f 638//638 641//641 398//398
f 395//395 380//380 637//637
f 398//398 399//399 638//638
f 638//638 399//399 396//396
f 637//637 639//639 395//395
f 385//385 395//395 639//639
f 396//396 399//399 410//410
f 646//646 409//409 640//640
f 639//639 645//645 385//385
f 385//385 645//645 411//411
f 409//409 646//646 648//648
f 641//641 384//384 398//398
f 398//398 384//384 400//400
f 398//398 400//400 642//642
f 430//430 400//400 384//384
f 385//385 411//411 424//424
f 414//414 385//385 447//447
f 414//414 418//418 402//402
f 401//401 419//419 387//387
f 414//414 403//403 386//386
f 414//414 402//402 403//403
f 402//402 404//404 403//403
f 418//418 389//389 404//404
f 404//404 402//402 418//418
f 405//405 392//392 418//418
f 418//418 392//392 389//389
f 419//419 401//401 353//353
f 419//419 353//353 391//391
f 387//387 419//419 420//420
f 408//408 406//406 643//643
f 406//406 390//390 644//644
f 407//407 406//406 408//408
f 635//635 644//644 390//390
f 407//407 408//408 633//633
f 648//648 646//646 412//412
f 647//647 642//642 400//400
f 647//647 400//400 426//426
f 647//647 426//426 649//649
f 400//400 430//430 659//659
f 415//415 661//661 336//336
f 415//415 336//336 387//387
f 416//416 435//435 415//415
f 413//413 414//414 680//680
f 436//436 652//652 681//681
f 418//418 414//414 413//413
f 652//652 436//436 418//418
f 387//387 416//416 415//415
f 417//417 416//416 387//387
f 417//417 387//387 420//420
f 416//416 417//417 420//420
f 418//418 436//436 405//405
f 419//419 391//391 420//420
f 654//654 634//634 408//408
f 408//408 667//667 654//654
f 643//643 667//667 408//408
f 650//650 424//424 411//411
f 421//421 424//424 650//650
f 422//422 655//655 651//651
f 425//425 423//423 656//656
f 422//422 437//437 655//655
f 421//421 668//668 424//424
f 656//656 423//423 438//438
f 438//438 423//423 425//425
f 424//424 447//447 385//385
f 426//426 657//657 649//649
f 656//656 659//659 425//425
f 425//425 659//659 427//427
f 430//430 427//427 659//659
f 446//446 425//425 427//427
f 427//427 430//430 431//431
f 446//446 428//428 429//429
f 446//446 427//427 428//428
f 428//428 427//427 431//431
f 428//428 431//431 660//660
f 448//448 446//446 429//429
f 660//660 431//431 432//432
f 416//416 448//448 429//429
f 662//662 416//416 429//429
f 434//434 661//661 415//415
f 665//665 663//663 653//653
f 664//664 433//433 432//432
f 432//432 433//433 666//666
f 662//662 435//435 416//416
f 433//433 664//664 666//666
f 664//664 431//431 430//430
f 664//664 432//432 431//431
f 667//667 448//448 416//416
f 654//654 667//667 416//416
f 669//669 658//658 670//670
f 670//670 440//440 669//669
f 425//425 446//446 438//438
f 668//668 439//439 424//424
f 671//671 669//669 440//440
f 438//438 446//446 440//440
f 424//424 439//439 445//445
f 446//446 441//441 440//440
f 439//439 442//442 445//445
f 440//440 673//673 671//671
f 673//673 440//440 441//441
f 441//441 444//444 673//673
f 673//673 444//444 443//443
f 677//677 447//447 424//424
f 678//678 675//675 682//682
f 674//674 676//676 679//679
f 446//446 448//448 672//672
f 444//444 672//672 448//448
f 444//444 448//448 443//443
f 681//681 443//443 448//448
f 681//681 448//448 436//436
