# Wavafront OBJ file of BodyParts3D
# BodyParts3D, Copyright(C) 2010-2011 The Database Center for Life Science licensed under CC Attribution-Share Alike 2.1 Japan.
vn -0.948345 0.256086 -0.187245
v -14.1614 -126.966 1049.75
vn -0.641216 -0.206867 -0.73895
v -12.7636 -127.806 1048.77
vn -0.963301 0.267738 -0.0191703
v -15.2836 -128.646 1057.47
vn -0.988145 -0.0308325 -0.150396
v -14.4436 -130.215 1052.27
vn -0.249196 -0.795245 0.552708
v -14.4436 -129.335 1058.15
vn -0.908497 0.416492 0.0341731
v -12.7006 -121.926 1057.31
vn -0.656374 -0.0548863 0.752436
v -12.7636 -123.606 1060.03
vn -0.567783 0.0132515 -0.823072
v -11.9236 -123.606 1048.26
vn 0.050912 0.491526 -0.869373
v -11.0836 -122.766 1048.69
vn 0.0768957 0.755648 -0.650448
v -11.0836 -121.926 1049.24
vn -0.843177 0.507774 -0.176687
v -11.9236 -121 1051.43
vn -0.624022 0.773349 0.111928
v -11.9236 -120.76 1055.63
vn -0.149538 0.906988 0.393714
v -11.0836 -120.607 1056.47
vn 0.0276549 0.897409 -0.440333
v -11.0836 -120.03 1053.11
vn -0.250538 0.798011 0.548096
v -11.0836 -122.766 1059.27
vn -0.109594 -0.993332 0.0357798
v -3.52356 -132.945 1053.95
vn -0.108354 -0.835593 -0.538557
v -3.52356 -132.288 1051.43
vn 0.238785 0.8246 -0.512852
v 0.676441 -122.405 1053.95
vn 0.0770062 -0.935455 -0.344954
v 4.87644 -132.564 1051.43
vn 0.127113 -0.718058 0.684277
v 5.71644 -132.603 1055.63
vn 0.0959102 0.21632 -0.9716
v 1.51644 -126.966 1048.43
vn 0.0367403 -0.498017 -0.866389
v 4.87644 -130.326 1049.09
vn 0.234292 0.568959 0.788285
v 2.35644 -128.646 1059.52
vn 0.345694 -0.926033 -0.151518
v 9.91644 -132.065 1053.95
vn 0.263188 -0.725964 -0.63538
v 9.91644 -131.028 1050.59
vn -0.304744 0.587337 0.749778
v 13.2764 -119.085 1056.47
vn -0.42655 0.613837 -0.664274
v 14.1164 -117.365 1052.27
vn 0.539618 -0.696744 -0.47261
v 17.6284 -126.966 1050.59
vn 0.600839 -0.735718 0.31259
v 19.9964 -125.463 1055.63
vn 0.239024 -0.292371 -0.925952
v 14.9564 -123.606 1048.05
vn 0.405912 -0.577765 0.708113
v 18.9261 -124.446 1057.31
vn -0.662486 0.532241 -0.527096
v 19.9964 -114.366 1049.23
vn -0.739013 0.662306 0.12333
v 17.8374 -113.526 1053.95
vn -0.0840601 0.0103652 0.996407
v 19.1564 -116.886 1057.77
vn 0.680545 -0.508255 0.527764
v 24.7543 -120.246 1055.63
vn 0.77873 -0.626212 -0.0379122
v 25.0364 -120.909 1053.11
vn 0.439094 -0.244545 0.86452
v 25.0364 -116.664 1057.31
vn 0.646027 -0.382954 -0.660299
v 26.5261 -117.726 1051.43
vn 0.855605 -0.426371 0.29351
v 27.2349 -116.886 1054.79
vn 0.214644 -0.207361 -0.954426
v 26.7164 -106.806 1049.1
vn -0.759617 0.509153 -0.404655
v 25.0364 -104.286 1049.97
vn -0.784204 0.469625 0.405558
v 25.4058 -103.446 1056.47
vn -0.0284376 -0.123474 0.99194
v 28.3964 -105.126 1057.83
vn 0.750471 -0.298174 -0.589819
v 30.4899 -109.326 1053.95
vn 0.595141 -0.370488 0.713124
v 30.0764 -107.914 1056.47
vn 0.713444 -0.456411 -0.531683
v 33.4364 -98.34 1050.59
vn 0.685971 -0.576645 0.443762
v 33.4364 -101.766 1057.52
vn 0.667172 -0.55425 -0.497683
v 34.7555 -100.926 1055.63
vn 0.0649812 -0.415886 0.907092
v 30.9164 -101.766 1058.81
vn -0.615801 0.570256 -0.543688
v 30.0764 -97.5663 1050.82
vn -0.16063 0.0823688 -0.983572
v 31.7564 -97.5663 1050.36
vn -0.562734 0.349981 -0.748895
v 31.9944 -95.8863 1050.59
vn -0.755565 0.630277 0.178528
v 30.4243 -94.2063 1053.95
vn -0.766256 0.537323 0.352328
v 30.9164 -94.8297 1057.31
vn -0.472624 0.830985 -0.293411
v 34.2764 -93.2154 1056.47
vn -0.570201 0.0722991 0.818318
v 30.9416 -97.5663 1059.83
vn 0.865227 -0.497988 -0.0582227
v 35.858 -98.4063 1057.31
vn -0.692895 0.293873 -0.658434
v 35.1164 -91.6863 1049.37
vn 0.514658 -0.641074 -0.569343
v 36.7964 -94.2731 1049.75
vn -0.279428 0.801374 -0.528886
v 35.1164 -92.441 1057.31
vn -0.0532233 0.827438 0.559029
v 35.9564 -93.1073 1056.47
vn -0.0532233 0.827438 0.559029
v 36.1664 -92.5263 1055.63
vn 0.822802 -0.223633 0.52248
v 37.2361 -95.0463 1054.79
vn 0.88213 -0.206623 -0.423266
v 36.9868 -95.0463 1056.47
vn 0.677128 -0.728841 0.101431
v 40.9964 -91.391 1063.19
vn -0.236031 0.881609 -0.408724
v 39.3164 -87.821 1061.51
vn 0.669031 0.068525 -0.740069
v 40.9964 -89.1663 1060.44
vn -0.663702 0.277214 0.694731
v 38.4764 -88.5116 1064.87
vn 0.245611 -0.70554 0.664747
v 40.1564 -90.8463 1065.32
vn -0.375717 -0.112249 0.919912
v 40.1564 -89.1663 1066.25
vn 0.818179 -0.385103 -0.426941
v 41.8364 -89.9629 1061.51
vn 0.704339 0.0476201 -0.708265
v 45.1964 -87.4863 1064.73
vn -0.434051 0.241894 0.867806
v 42.1514 -86.6463 1066.55
vn 0.411364 -0.808901 0.42007
v 43.5164 -88.8796 1066.55
vn -0.154324 -0.48165 0.862668
v 43.5164 -88.3263 1067.32
vn 0.577745 -0.779308 0.242673
v 44.3564 -88.3263 1066.57
vn 0.653036 0.218738 -0.72505
v 45.1964 -86.6463 1064.98
vn -0.743221 0.286295 -0.604697
v 43.5164 -81.6063 1043.82
vn -0.388234 -0.187889 -0.902204
v 45.1964 -81.898 1043.03
vn -0.441951 -0.128703 -0.887758
v 45.1964 -80.7663 1042.86
vn -0.642513 0.765705 -0.0295419
v 45.1964 -79.6441 1046.39
vn 0.141236 0.943304 -0.300384
v 46.0364 -79.9263 1045.9
vn 0.455251 -0.648761 -0.6098
v 46.8993 -82.4463 1044.71
vn 0.0122896 0.575166 0.817945
v 46.8764 -80.7663 1047.48
vn -0.641216 -0.206867 -0.73895
v -14.1614 -126.966 1049.75
vn -0.077822 -0.448821 -0.890227
v -12.7636 -127.806 1048.77
vn -0.681585 -0.723691 0.108231
v -15.2836 -128.646 1057.47
vn -0.656374 -0.0548863 0.752436
v -15.2836 -128.646 1057.47
vn -0.675586 -0.414383 -0.609812
v -14.4436 -130.215 1052.27
vn -0.361062 -0.917633 -0.166083
v -14.4436 -130.215 1052.27
vn -0.656374 -0.0548863 0.752436
v -14.4436 -129.335 1058.15
vn -0.332112 0.81021 0.482971
v -12.7006 -121.926 1057.31
vn -0.91332 0.355704 0.198298
v -12.7636 -123.606 1060.03
vn 0.177204 0.442326 0.879174
v -12.7636 -123.606 1060.03
vn -0.186731 0.838045 0.512652
v -12.7636 -123.606 1060.03
vn -0.065779 -0.294169 0.953487
v -12.7636 -123.606 1060.03
vn -0.745383 0.514888 -0.423432
v -11.9236 -123.606 1048.26
vn -0.0101754 0.279212 -0.960175
v -11.9236 -123.606 1048.26
vn -0.62488 0.603004 -0.495896
v -11.0836 -121.926 1049.24
vn -0.15376 0.887076 -0.435263
v -11.9236 -121 1051.43
vn -0.314966 0.943341 0.104421
v -11.0836 -120.03 1053.11
vn 0.239757 0.641608 0.728598
v -11.0836 -122.766 1059.27
vn 0.245925 0.833594 0.494613
v 0.676441 -122.405 1053.95
vn -0.340633 0.698631 -0.629193
v 0.676441 -122.405 1053.95
vn -0.304744 0.587337 0.749778
v 0.676441 -122.405 1053.95
vn -0.299726 0.90243 0.309491
v 0.676441 -122.405 1053.95
vn 0.0772561 -0.996703 -0.0247939
v 5.71644 -132.603 1055.63
vn -0.252462 0.626267 -0.737599
v 1.51644 -126.966 1048.43
vn 0.0530761 -0.540293 0.839801
v 2.35644 -128.646 1059.52
vn -0.304744 0.587337 0.749778
v 2.35644 -128.646 1059.52
vn 0.0718479 0.227858 0.97104
v 2.35644 -128.646 1059.52
vn 0.344452 -0.688691 0.63801
v 9.91644 -132.065 1053.95
vn -0.0638565 0.0884638 0.99403
v 13.2764 -119.085 1056.47
vn -0.299726 0.90243 0.309491
v 13.2764 -119.085 1056.47
vn -0.739013 0.662306 0.12333
v 13.2764 -119.085 1056.47
vn -0.3844 0.623901 0.680429
v 13.2764 -119.085 1056.47
vn -0.299726 0.90243 0.309491
v 14.1164 -117.365 1052.27
vn -0.739013 0.662306 0.12333
v 14.1164 -117.365 1052.27
vn -0.375806 0.483819 -0.790373
v 14.9564 -123.606 1048.05
vn -0.0149418 0.0372437 0.999195
v 18.9261 -124.446 1057.31
vn 0.258221 -0.124992 -0.957966
v 19.9964 -114.366 1049.23
vn -0.222382 0.181044 -0.958003
v 19.9964 -114.366 1049.23
vn -0.737469 0.569935 -0.362371
v 17.8374 -113.526 1053.95
vn -0.651712 0.527181 0.545299
v 17.8374 -113.526 1053.95
vn -0.560145 0.517073 0.647204
v 19.1564 -116.886 1057.77
vn 0.73997 -0.152655 -0.655088
v 26.5261 -117.726 1051.43
vn 0.6885 -0.266828 -0.674367
v 26.7164 -106.806 1049.1
vn -0.0778462 0.15277 -0.985191
v 26.7164 -106.806 1049.1
vn -0.213139 0.236132 -0.948058
v 25.0364 -104.286 1049.97
vn -0.378272 0.0728449 0.922824
v 25.4058 -103.446 1056.47
vn 0.861879 -0.438454 0.2548
v 30.4899 -109.326 1053.95
vn 0.0943718 -0.0893424 -0.99152
v 33.4364 -98.34 1050.59
vn 0.874445 -0.412214 0.255784
v 34.7555 -100.926 1055.63
vn -0.256259 0.236516 -0.937225
v 30.0764 -97.5663 1050.82
vn -0.718768 0.478646 -0.504252
v 30.4243 -94.2063 1053.95
vn -0.530803 0.811922 -0.242964
v 30.9164 -94.8297 1057.31
vn -0.109705 0.649873 0.752084
v 30.9164 -94.8297 1057.31
vn -0.0532233 0.827438 0.559029
v 34.2764 -93.2154 1056.47
vn 0.0607108 0.54298 0.837548
v 34.2764 -93.2154 1056.47
vn -0.0487719 0.758233 -0.650157
v 34.2764 -93.2154 1056.47
vn -0.249225 -0.199169 -0.947744
v 35.1164 -91.6863 1049.37
vn -0.0884769 -0.232436 -0.968579
v 36.7964 -94.2731 1049.75
vn -0.032533 0.718756 -0.694501
v 35.9564 -93.1073 1056.47
vn 0.894269 0.360835 0.264727
v 35.9564 -93.1073 1056.47
vn 0.470829 0.25018 -0.846008
v 35.9564 -93.1073 1056.47
vn 0.25517 0.382567 0.887993
v 36.1664 -92.5263 1055.63
vn 0.886654 0.245806 0.391695
v 36.1664 -92.5263 1055.63
vn 0.609241 -0.00570057 0.792964
v 36.1664 -92.5263 1055.63
vn 0.894269 0.360835 0.264727
v 37.2361 -95.0463 1054.79
vn 0.875584 0.465252 0.129974
v 36.9868 -95.0463 1056.47
vn 0.138638 0.716632 -0.683534
v 40.9964 -89.1663 1060.44
vn -0.560149 0.827844 0.0301157
v 38.4764 -88.5116 1064.87
vn 0.69924 -0.704701 -0.120247
v 45.1964 -87.4863 1064.73
vn 0.922277 -0.111641 0.370056
v 45.1964 -87.4863 1064.73
vn -0.290513 0.955039 -0.0591801
v 42.1514 -86.6463 1066.55
vn 0.449412 0.597764 0.663857
v 42.1514 -86.6463 1066.55
vn -0.334984 0.156273 0.929174
v 43.5164 -88.3263 1067.32
vn 0.360841 -0.758909 0.54208
v 43.5164 -88.3263 1067.32
vn 0.500208 0.663158 0.556789
v 43.5164 -88.3263 1067.32
vn 0.449412 0.597764 0.663857
v 44.3564 -88.3263 1066.57
vn 0.922277 -0.111641 0.370056
v 44.3564 -88.3263 1066.57
vn 0.213354 0.757259 -0.617284
v 45.1964 -86.6463 1064.98
vn -0.0911365 0.979958 -0.177136
v 45.1964 -86.6463 1064.98
vn 0.390383 0.52142 0.758764
v 45.1964 -86.6463 1064.98
vn 0.922277 -0.111641 0.370056
v 45.1964 -86.6463 1064.98
vn -0.441657 -0.12528 -0.888394
v 43.5164 -81.6063 1043.82
vn -0.636838 0.754251 -0.159823
v 43.5164 -81.6063 1043.82
vn 0.426938 -0.637863 -0.64098
v 45.1964 -81.898 1043.03
vn 0.681053 -0.105057 -0.724659
v 45.1964 -81.898 1043.03
vn -0.544678 0.799107 -0.254467
v 45.1964 -80.7663 1042.86
vn 0.681053 -0.105057 -0.724659
v 45.1964 -80.7663 1042.86
vn 0.141236 0.943304 -0.300384
v 45.1964 -80.7663 1042.86
vn 0.822254 0.447465 -0.351672
v 45.1964 -80.7663 1042.86
vn 0.141236 0.943304 -0.300384
v 45.1964 -79.6441 1046.39
vn -0.0814842 0.631256 0.771282
v 45.1964 -79.6441 1046.39
vn 0.429824 0.872051 0.23405
v 45.1964 -79.6441 1046.39
vn 0.850967 0.432187 -0.298445
v 46.0364 -79.9263 1045.9
vn 0.429824 0.872051 0.23405
v 46.0364 -79.9263 1045.9
vn 0.681053 -0.105057 -0.724659
v 46.8993 -82.4463 1044.71
vn 0.850967 0.432187 -0.298445
v 46.8993 -82.4463 1044.71
vn 0.870311 -0.418136 0.260234
v 46.8993 -82.4463 1044.71
vn 0.794535 -0.237972 0.558645
v 46.8764 -80.7663 1047.48
vn 0.429824 0.872051 0.23405
v 46.8764 -80.7663 1047.48
vn 0.876369 0.415227 -0.244057
v 46.8764 -80.7663 1047.48
f 1//1 4//4 3//3
f 2//2 89//89 85//85
f 86//86 17//17 90//90
f 2//2 85//85 8//8
f 87//87 90//90 5//5
f 91//91 7//7 88//88
f 3//3 93//93 6//6
f 1//1 3//3 11//11
f 11//11 97//97 1//1
f 3//3 6//6 11//11
f 11//11 6//6 12//12
f 21//21 22//22 86//86
f 21//21 86//86 98//98
f 16//16 90//90 17//17
f 21//21 98//98 9//9
f 10//10 9//9 98//98
f 99//99 97//97 11//11
f 10//10 21//21 9//9
f 14//14 10//10 100//100
f 12//12 101//101 11//11
f 12//12 92//92 13//13
f 92//92 15//15 13//13
f 12//12 13//13 101//101
f 10//10 14//14 18//18
f 101//101 13//13 103//103
f 103//103 13//13 102//102
f 23//23 102//102 94//94
f 15//15 92//92 95//95
f 103//103 102//102 23//23
f 22//22 17//17 86//86
f 22//22 19//19 17//17
f 16//16 5//5 90//90
f 19//19 16//16 17//17
f 20//20 5//5 16//16
f 19//19 107//107 16//16
f 109//109 96//96 5//5
f 20//20 109//109 5//5
f 21//21 10//10 18//18
f 19//19 22//22 25//25
f 24//24 107//107 19//19
f 25//25 24//24 19//19
f 20//20 112//112 31//31
f 20//20 31//31 109//109
f 25//25 28//28 24//24
f 30//30 22//22 21//21
f 25//25 30//30 28//28
f 30//30 25//25 22//22
f 38//38 28//28 30//30
f 29//29 31//31 112//112
f 27//27 108//108 104//104
f 119//119 108//108 27//27
f 110//110 26//26 105//105
f 120//120 113//113 111//111
f 117//117 106//106 114//114
f 113//113 120//120 34//34
f 118//118 115//115 33//33
f 29//29 24//24 28//28
f 31//31 29//29 35//35
f 31//31 35//35 37//37
f 123//123 32//32 27//27
f 27//27 32//32 119//119
f 30//30 121//121 38//38
f 116//116 125//125 124//124
f 37//37 34//34 120//120
f 125//125 42//42 124//124
f 42//42 53//53 124//124
f 28//28 38//38 36//36
f 29//29 28//28 36//36
f 29//29 36//36 35//35
f 35//35 36//36 39//39
f 39//39 37//37 35//35
f 121//121 40//40 38//38
f 126//126 127//127 44//44
f 37//37 43//43 34//34
f 38//38 39//39 36//36
f 131//131 45//45 39//39
f 45//45 37//37 39//39
f 135//135 41//41 123//123
f 32//32 123//123 41//41
f 128//128 122//122 129//129
f 43//43 130//130 34//34
f 128//128 129//129 51//51
f 50//50 41//41 135//135
f 129//129 134//134 51//51
f 53//53 42//42 54//54
f 130//130 43//43 56//56
f 38//38 131//131 39//39
f 37//37 45//45 43//43
f 131//131 47//47 45//45
f 127//127 46//46 44//44
f 51//51 132//132 128//128
f 44//44 46//46 48//48
f 54//54 42//42 56//56
f 133//133 47//47 131//131
f 47//47 133//133 57//57
f 56//56 43//43 49//49
f 45//45 49//49 43//43
f 45//45 47//47 49//49
f 51//51 134//134 52//52
f 50//50 135//135 52//52
f 135//135 58//58 52//52
f 51//51 52//52 58//58
f 46//46 59//59 48//48
f 142//142 132//132 51//51
f 55//55 136//136 60//60
f 142//142 51//51 141//141
f 138//138 61//61 62//62
f 84//84 137//137 139//139
f 146//146 84//84 139//139
f 143//143 140//140 60//60
f 133//133 63//63 64//64
f 149//149 147//147 144//144
f 57//57 133//133 64//64
f 150//150 149//149 144//144
f 148//148 63//63 182//182
f 182//182 63//63 133//133
f 60//60 136//136 66//66
f 57//57 65//65 47//47
f 69//69 47//47 65//65
f 49//49 47//47 69//69
f 143//143 60//60 66//66
f 49//49 70//70 56//56
f 57//57 64//64 71//71
f 65//65 57//57 71//71
f 49//49 69//69 70//70
f 141//141 79//79 142//142
f 54//54 56//56 68//68
f 136//136 152//152 66//66
f 67//67 71//71 64//64
f 145//145 67//67 64//64
f 151//151 143//143 66//66
f 56//56 70//70 68//68
f 68//68 70//70 73//73
f 152//152 155//155 66//66
f 70//70 69//69 75//75
f 70//70 157//157 73//73
f 65//65 74//74 69//69
f 69//69 74//74 158//158
f 58//58 135//135 78//78
f 141//141 166//166 79//79
f 83//83 59//59 168//168
f 71//71 67//67 72//72
f 153//153 65//65 71//71
f 77//77 72//72 67//67
f 66//66 162//162 151//151
f 163//163 66//66 155//155
f 65//65 76//76 74//74
f 158//158 74//74 76//76
f 160//160 156//156 159//159
f 76//76 65//65 153//153
f 164//164 156//156 160//160
f 165//165 161//161 154//154
f 80//80 79//79 166//166
f 170//170 167//167 81//81
f 81//81 167//167 53//53
f 179//179 169//169 171//171
f 172//172 174//174 82//82
f 177//177 180//180 173//173
f 54//54 81//81 53//53
f 137//137 84//84 175//175
f 48//48 59//59 83//83
f 182//182 133//133 181//181
f 183//183 178//178 176//176
f 180//180 177//177 184//184
