# Wavafront OBJ file of BodyParts3D
# BodyParts3D, Copyright(C) 2010-2011 The Database Center for Life Science licensed under CC Attribution-Share Alike 2.1 Japan.
vn -0.92852 0.160209 0.334938
v 225.435 -138.19 751.515
vn -0.879356 -0.366264 0.304276
v 225.511 -139.264 751.382
vn -0.950489 -0.30035 0.0797498
v 224.725 -139.162 748.591
vn -0.765098 -0.637658 0.0895407
v 225.126 -139.879 748.722
vn -0.689825 -0.687833 -0.225893
v 225.118 -139.705 747.634
vn -0.993121 0.0922575 0.0721092
v 224.497 -137.994 747.659
vn -0.854086 -0.436973 -0.28212
v 224.8 -138.852 746.771
vn -0.911602 -0.165375 -0.37634
v 224.662 -137.919 746.234
vn -0.641965 -0.475202 -0.601718
v 225.137 -138.629 746.009
vn -0.784347 -0.359555 0.50549
v 227.749 -132.355 756.868
vn -0.770796 0.0754488 0.632599
v 226.173 -138.541 752.956
vn -0.473165 -0.263429 0.840667
v 227.078 -139.028 753.66
vn -0.129918 -0.853178 0.505182
v 227.093 -139.676 753.15
vn 0.220124 -0.85395 0.471503
v 227.772 -139.582 753.101
vn -0.669752 -0.129663 0.731177
v 227.63 -136.821 753.939
vn -0.910798 0.40795 0.0634311
v 226.515 -129.752 752.88
vn -0.550623 -0.791482 0.265273
v 225.945 -139.977 751.16
vn -0.746544 -0.398791 0.532576
v 226.137 -139.286 752.761
vn -0.894275 0.331847 0.300248
v 225.623 -137.572 751.028
vn -0.906301 0.30445 0.293135
v 225.4 -137.477 750.317
vn -0.958062 0.168292 0.231939
v 225.534 -136.367 750.082
vn -0.897584 0.139789 0.418093
v 226.333 -136.576 752.193
vn -0.986418 0.0584864 0.153487
v 225.416 -133.073 749.057
vn -0.483275 -0.87378 -0.0543526
v 225.836 -140.412 748.45
vn -0.217482 -0.973738 0.0673477
v 226.565 -140.689 748.825
vn -0.818064 0.559097 -0.134836
v 226.164 -130.371 748.116
vn -0.667254 0.649768 -0.364108
v 226.42 -131.068 745.794
vn -0.345854 0.757268 -0.554013
v 227.081 -130.739 745.697
vn -0.395638 0.850045 -0.347698
v 227.108 -130.059 746.958
vn -0.551461 -0.679662 -0.483684
v 225.66 -139.552 746.442
vn -0.321682 -0.882588 -0.342868
v 227.107 -140.463 746.571
vn -0.677135 -0.202541 -0.707436
v 225.401 -137.078 744.897
vn -0.476444 -0.417576 -0.773713
v 227.15 -138.153 744.099
vn -0.340863 -0.654879 -0.674497
v 227.581 -139.089 744.504
vn -0.969666 0.238975 0.0513678
v 225.15 -135.122 745.986
vn -0.916728 0.133069 -0.3767
v 225.33 -134.64 744.827
vn -0.571304 0.0943997 -0.815292
v 226.501 -134.083 743.65
vn -0.943308 0.284435 -0.171075
v 225.683 -132.727 745.468
vn -0.70665 0.350189 -0.614828
v 226.117 -132.924 744.324
vn -0.601052 0.585907 -0.543553
v 226.415 -131.505 745.184
vn -0.996757 -0.0280357 0.0754265
v 231.293 -121.194 782.803
vn -0.865124 0.50114 0.0204913
v 231.489 -120.438 782.989
vn -0.983467 0.18002 0.0196277
v 231.272 -121.204 779.3
vn -0.986871 0.122094 0.10573
v 230.529 -123.089 773.763
vn -0.625085 -0.713169 0.317267
v 230.901 -124.274 774.692
vn -0.673773 0.732147 -0.0999546
v 230.175 -124.832 764.323
vn -0.924385 0.379229 0.0412051
v 228.963 -126.591 764.038
vn -0.97829 -0.0103857 0.20698
v 228.354 -128.863 761.73
vn -0.298403 -0.708829 0.639153
v 231.065 -134.351 757.835
vn -0.0122111 -0.647204 0.762219
v 230.133 -137.068 755.192
vn -0.473477 -0.417883 0.775367
v 229.401 -135.929 755.78
vn -0.47012 -0.235461 0.850615
v 228.392 -137.337 754.552
vn -0.48981 0.852171 -0.184097
v 228.338 -127.709 753.079
vn 0.079077 -0.99387 0.0772545
v 228.584 -140.929 747.734
vn -0.0766216 -0.890365 -0.448753
v 228.44 -140.406 745.879
vn -0.372681 0.518327 -0.769705
v 227.543 -132.604 743.608
vn -0.258713 -0.490338 -0.832248
v 227.852 -138.477 743.954
vn -0.385729 -0.191481 -0.902523
v 227.677 -136.531 743.232
vn -0.351508 0.129913 -0.927127
v 227.653 -133.744 743.137
vn -0.821793 0.257815 0.508121
v 233.75 -120.59 795.19
vn -0.615934 -0.577895 0.535409
v 234.161 -122.179 795.85
vn -0.807654 0.525776 0.266936
v 233.678 -119.452 793.907
vn -0.551996 0.6648 0.50333
v 234.597 -118.602 794.274
vn -0.563785 -0.779274 0.273639
v 234.943 -125.235 792.59
vn -0.947244 0.251823 0.198275
v 232.502 -121.021 791.829
vn -0.90989 -0.33403 0.246017
v 232.757 -122.552 792.834
vn -0.573642 -0.818094 0.0406955
v 234.015 -124.92 788.71
vn -0.703011 0.709064 0.0548097
v 232.983 -119.044 787.543
vn -0.400999 0.907746 -0.123274
v 232.941 -119.11 783.001
vn 0.118245 0.973113 -0.19766
v 234.005 -118.764 783.934
vn -0.854236 -0.50294 0.131651
v 231.773 -123.392 780.431
vn -0.40253 -0.868007 0.290745
v 233.656 -126.377 775.355
vn -0.733964 0.670623 -0.107523
v 231.261 -121.663 774.838
vn -0.641601 -0.666764 0.379174
v 232.041 -128.939 767.892
vn 0.11818 -0.919406 0.375134
v 233.746 -129.538 766.889
vn 0.204318 -0.777893 0.594253
v 231.826 -135.641 756.365
vn 0.332507 -0.782839 0.525929
v 231.474 -138.371 753.037
vn -0.142794 0.926776 -0.347413
v 231.296 -127.312 751.113
vn 0.19784 -0.95401 -0.225219
v 231.575 -140.435 746.448
vn -0.196074 0.589091 -0.783918
v 231.106 -131.31 743.183
vn 0.0189341 0.426797 -0.904149
v 231.803 -131.712 742.86
vn 0.26071 0.620778 -0.739368
v 232.123 -130.884 743.4
vn 0.494983 0.30082 -0.815168
v 232.513 -132.001 742.888
vn -0.186001 0.805778 -0.56225
v 231.775 -130.328 744.002
vn 0.133386 0.813994 -0.565352
v 232.478 -129.754 744.904
vn 0.0293377 -0.727066 -0.68594
v 231.349 -139.249 743.959
vn -0.0413556 -0.34815 -0.936526
v 230.437 -137.137 742.616
vn 0.262067 -0.501235 -0.824672
v 232.967 -138.169 743.451
vn 0.423011 -0.202456 -0.883218
v 232.818 -136.566 742.76
vn -0.148099 -0.0248361 -0.988661
v 230.621 -135.089 742.256
vn 0.16151 -0.0761806 -0.983926
v 231.992 -134.974 742.281
vn 0.627254 0.0752434 -0.775171
v 232.687 -134.871 742.514
vn -0.203732 0.299565 -0.93207
v 230.148 -132.963 742.539
vn 0.106004 0.173759 -0.979066
v 231.533 -133.245 742.334
vn -0.138908 -0.637457 0.757861
v 237.89 -124.087 797.084
vn -0.440608 0.423645 0.791448
v 235.207 -120.549 796.549
vn -0.617523 0.0599092 0.784268
v 236.046 -122.08 797.327
vn 0.0688214 0.524799 0.84844
v 235.894 -120.485 796.593
vn -0.388763 -0.688016 0.612778
v 237.196 -124.213 796.837
vn -0.0920711 0.813016 0.574915
v 236.008 -118.475 795.004
vn -0.0837318 0.989644 0.116588
v 236.531 -117.696 793.067
vn -0.273431 -0.935969 0.221807
v 237.421 -126.3 792.35
vn -0.430744 0.882492 0.188859
v 234.804 -117.83 792.821
vn -0.296649 -0.954982 -0.00307858
v 236.257 -126.163 790.27
vn -0.109644 0.983629 -0.143008
v 235.211 -117.899 787.909
vn -0.223617 -0.972764 -0.0610405
v 236.367 -125.801 786.684
vn 0.169966 0.943246 -0.285305
v 236.528 -119.235 785.322
vn -0.240435 -0.96757 0.0774591
v 235.394 -125.791 781.818
vn 0.256812 0.944996 -0.20256
v 236.708 -119.989 781.614
vn 0.0862106 -0.973285 0.212802
v 235.319 -127.438 772.696
vn 0.187291 0.967051 -0.172435
v 234.849 -120.811 772.401
vn -0.215782 0.953362 -0.211043
v 234.905 -122.067 765.997
vn 0.108495 0.942324 -0.31663
v 235.481 -122.716 763.301
vn 0.37992 0.900681 -0.210796
v 235.872 -122.548 764.3
vn 0.420661 -0.807087 0.414313
v 233.934 -132.185 761.117
vn 0.865204 -0.485911 0.123748
v 236.133 -129.748 761.218
vn 0.542496 -0.68667 0.483923
v 234.135 -135.506 754.782
vn 0.577289 -0.570771 0.583916
v 234.78 -136.455 752.917
vn 0.855713 -0.355639 0.375869
v 235.172 -135.295 753.29
vn 0.993819 0.0635457 0.0910291
v 235.515 -134.397 752.389
vn 0.828091 0.334618 -0.449773
v 235.555 -128.995 751.314
vn 0.972291 -0.0584483 -0.226348
v 235.946 -130.998 751.668
vn 0.59035 0.649493 -0.479214
v 234.409 -128.099 750.437
vn 0.696613 -0.483816 0.529766
v 236.115 -137.543 750.908
vn 0.907144 0.393339 -0.149578
v 235.972 -135.517 750.146
vn 0.982239 0.0627697 -0.176822
v 235.418 -134.003 750.909
vn 0.95928 -0.24478 0.14094
v 235.306 -132.667 748.886
vn 0.914773 0.390232 -0.104452
v 234.996 -130.398 748.081
vn 0.897968 0.324906 -0.296798
v 235.164 -129.71 749.674
vn 0.994864 0.0659008 -0.0768332
v 235.438 -131.916 749.076
vn 0.991924 0.113798 0.0560013
v 235.515 -132.047 748.398
vn 0.294652 0.883951 -0.363059
v 232.955 -128.118 749.103
vn 0.675344 0.667531 -0.313549
v 234.007 -128.896 748.516
vn 0.43824 -0.863243 0.250515
v 235.783 -138.96 749.463
vn 0.918855 -0.390087 -0.0594763
v 236.288 -138.465 749.338
vn 0.596312 0.673499 -0.436818
v 233.993 -135.998 746.827
vn 0.964739 0.0967819 -0.244771
v 233.784 -135.675 746.77
vn 0.739026 0.671967 -0.0479676
v 233.925 -136.071 746.495
vn 0.552492 0.71215 -0.433122
v 234.742 -136.216 747.19
vn 0.490057 0.847237 -0.205019
v 234.396 -136.294 746.52
vn 0.771651 0.413284 -0.483479
v 235.229 -135.167 748.704
vn 0.879012 0.326437 -0.347529
v 236.129 -136.927 748.327
vn 0.928509 -0.272599 -0.252112
v 233.955 -134.99 746.621
vn 0.999681 -0.0186021 -0.0171113
v 233.833 -135.403 746.361
vn 0.924949 -0.105265 -0.365224
v 234.601 -134.336 747.859
vn 0.928488 -0.365382 -0.0663704
v 235.026 -133.496 748.368
vn 0.947509 -0.311992 0.0699158
v 235.554 -132.786 748.199
vn 0.71367 0.224537 -0.663519
v 234.337 -130.246 745.625
vn 0.92914 0.36618 -0.0511
v 234.794 -130.079 746.271
vn 0.843304 -0.174384 -0.508358
v 235.465 -132.255 747.392
vn 0.496764 0.649052 -0.576157
v 233.529 -129.509 745.508
vn 0.439576 -0.694847 -0.569175
v 233.77 -138.947 744.491
vn 0.602582 -0.752272 -0.266425
v 234.607 -139.438 746.458
vn 0.743574 0.662582 -0.0899028
v 234.188 -136.19 745.806
vn 0.940283 0.340037 0.0156043
v 233.98 -135.906 745.757
vn 0.840369 0.171374 -0.51421
v 234.253 -137.2 744.259
vn 0.853797 -0.182106 -0.487718
v 234.583 -138.12 744.785
vn 0.743187 0.580242 -0.333155
v 234.892 -136.747 746.241
vn 0.926427 0.264302 -0.268101
v 233.346 -135.309 743.558
vn 0.978164 0.136072 -0.157097
v 233.781 -135.138 745.958
vn 0.960273 0.00567734 -0.279006
v 233.524 -134.571 745.395
vn 0.54738 0.49013 -0.678342
v 233.023 -130.609 744.356
vn 0.762404 0.309598 -0.568234
v 233.095 -131.415 743.818
vn 0.903853 0.0697762 -0.422116
v 233.242 -133.226 743.484
vn 0.902535 -0.0147912 -0.430362
v 233.511 -132.666 744.408
vn 0.793953 0.130944 -0.59371
v 233.592 -131.061 744.774
vn 0.605032 -0.307821 -0.73429
v 233.666 -138.052 743.752
vn -0.144114 -0.895019 0.422103
v 239.278 -126.012 795.013
vn -0.0304178 0.894934 0.445161
v 239.248 -117.509 792.632
vn -0.259123 0.95719 0.129011
v 237.83 -117.523 791.922
vn 0.0121804 0.814364 0.580226
v 240.106 -116.322 791.223
vn 0.0233791 -0.999697 -0.00767729
v 240.506 -126.726 791.6
vn -0.154022 0.952013 -0.264477
v 237.684 -117.747 789.171
vn 0.151984 -0.972474 -0.176622
v 238.597 -126.42 788.766
vn 0.134277 -0.984626 -0.111722
v 238.422 -125.976 786.279
vn 0.450168 -0.886266 -0.108997
v 239.474 -125.661 786.968
vn 0.0235016 0.886392 -0.462338
v 239.677 -118.421 787.118
vn 0.154723 0.921804 -0.35544
v 238.853 -120.022 782.928
vn 0.544338 -0.837631 -0.045489
v 239.493 -125.253 781.876
vn 0.479626 0.840611 -0.251659
v 238.766 -120.969 780.323
vn 0.970537 -0.18463 -0.154819
v 238.964 -125.204 775.579
vn 0.801385 0.52642 -0.284014
v 239.374 -122.792 776.816
vn 0.975571 -0.112254 -0.188841
v 238.897 -123.392 774.156
vn 0.65439 0.732367 -0.188184
v 236.841 -122.24 769.452
vn 0.309215 -0.917699 0.249428
v 236.84 -127.538 769.144
vn 0.975642 -0.210661 -0.0611879
v 237.753 -125.922 763.862
vn 0.588771 0.769734 -0.246696
v 237.051 -124.426 761.13
vn 0.977355 -0.209983 -0.0261727
v 236.616 -129.191 755.122
vn 0.97592 -0.0466893 -0.213076
v 236.574 -128.861 753.303
vn 0.590904 0.704133 -0.393737
v 236.291 -126.33 755.247
vn 0.963097 0.166375 -0.211576
v 236.667 -128.044 753.831
vn 0.837411 0.288093 -0.464484
v 236.223 -128.347 752.511
vn 0.988416 0.0590274 0.139818
v 236.453 -136.832 750.396
vn 0.107172 -0.848106 0.518874
v 242.047 -126.27 794.943
vn 0.214671 -0.960268 0.178329
v 242.039 -126.429 794.626
vn 0.198797 0.442272 0.874571
v 241.736 -121.31 795.41
vn 0.356099 0.67067 0.650689
v 242.789 -118.384 793.283
vn 0.241939 0.824976 0.510765
v 241.502 -116.603 791.016
vn 0.430933 -0.874439 -0.22283
v 243.102 -125.596 790.2
vn 0.666296 0.541598 -0.512563
v 242.509 -118.711 788.104
vn -0.0817932 0.898432 -0.431427
v 240.384 -116.889 789.225
vn 0.338111 0.828927 -0.445602
v 241.773 -117.073 789.201
vn 0.757696 0.618163 -0.209216
v 242.37 -117.588 789.281
vn 0.477919 0.762347 -0.436372
v 240.287 -119.246 784.808
vn 0.416459 0.741306 -0.526334
v 241.053 -118.898 786.805
vn 0.648263 0.538855 -0.537951
v 242.541 -120.118 786.991
vn 0.631106 -0.725643 -0.274131
v 241.642 -124.055 784.688
vn 0.877262 0.119151 -0.464988
v 241.723 -122.098 782.879
vn 0.890747 -0.378611 -0.251443
v 240.514 -124.006 780.872
vn 0.902169 0.208356 -0.377729
v 240.944 -122.492 781.242
vn 0.590204 0.703384 -0.39612
v 240.241 -121.727 781.115
vn 0.960902 0.0139843 -0.276536
v 239.972 -123.173 778.27
vn 0.705329 -0.184477 0.684456
v 244.688 -125.186 794.252
vn 0.227311 0.266688 0.936593
v 243.865 -122.182 795.463
vn 0.412922 -0.157839 0.896985
v 243.937 -123.226 795.483
vn 0.33197 0.315896 0.888823
v 244.202 -122.177 795.353
vn 0.972821 0.166647 0.160775
v 244.728 -122.336 794.363
vn 0.361344 0.600189 0.713585
v 243.296 -120.041 794.131
vn 0.264765 0.524949 0.808906
v 243.773 -121.227 795.017
vn 0.414067 0.596164 0.68785
v 244.112 -121.263 794.87
vn 0.796071 0.516538 0.315372
v 243.951 -120.018 793.569
vn 0.798284 0.596473 0.0834393
v 243.214 -118.601 792.608
vn 0.872017 -0.400522 -0.281368
v 244.519 -123.848 788.725
vn 0.901021 0.410209 -0.141032
v 244.176 -120.565 789.465
vn 0.800781 0.425745 -0.421296
v 244.182 -121.58 787.921
vn 0.964811 0.102708 -0.242056
v 244.63 -122.492 788.44
vn -0.968438 -0.144652 0.202985
v 230.901 -124.274 774.692
vn -0.619357 -0.653907 0.434513
v 228.354 -128.863 761.73
vn -0.749976 0.0441344 0.659991
v 234.161 -122.179 795.85
vn -0.0763119 -0.907813 0.412373
v 232.041 -128.939 767.892
vn 0.249756 0.0601277 0.96644
v 237.89 -124.087 797.084
vn -0.403083 -0.405713 0.820318
v 236.046 -122.08 797.327
vn 0.176854 0.387555 0.904723
v 236.046 -122.08 797.327
vn 0.536719 0.758663 -0.369275
v 234.794 -130.079 746.271
vn 0.820872 -0.0401193 -0.569702
v 234.794 -130.079 746.271
vn 0.983953 0.158676 -0.0815977
v 235.465 -132.255 747.392
vn 0.00714472 0.931931 -0.362564
v 233.529 -129.509 745.508
vn -0.124736 0.968567 -0.215217
v 240.106 -116.322 791.223
vn 0.824707 0.519643 -0.223226
v 238.897 -123.392 774.156
vn 0.820156 -0.571137 0.0338582
v 236.84 -127.538 769.144
vn 0.967796 0.192915 -0.161724
v 237.051 -124.426 761.13
vn 0.332403 -0.360756 0.871415
v 242.047 -126.27 794.943
vn 0.160228 0.961106 -0.224949
v 241.502 -116.603 791.016
vn 0.699667 0.713685 0.0334676
v 241.502 -116.603 791.016
vn 0.531843 -0.845646 0.0450072
v 244.688 -125.186 794.252
vn 0.999349 -0.0129125 -0.033696
v 244.688 -125.186 794.252
vn 0.852596 0.0539105 0.519782
v 244.202 -122.177 795.353
vn 0.876422 0.345148 0.335793
v 244.112 -121.263 794.87
f 18//18 1//1 2//2
f 3//3 2//2 1//1
f 1//1 19//19 20//20
f 20//20 21//21 6//6
f 6//6 1//1 20//20
f 2//2 3//3 4//4
f 4//4 3//3 5//5
f 2//2 4//4 17//17
f 24//24 4//4 5//5
f 17//17 4//4 24//24
f 31//31 24//24 5//5
f 3//3 1//1 6//6
f 6//6 35//35 36//36
f 7//7 5//5 3//3
f 30//30 5//5 7//7
f 6//6 7//7 3//3
f 6//6 8//8 7//7
f 6//6 36//36 8//8
f 30//30 7//7 9//9
f 7//7 8//8 9//9
f 9//9 8//8 32//32
f 8//8 36//36 32//32
f 48//48 47//47 16//16
f 16//16 47//47 46//46
f 23//23 10//10 48//48
f 23//23 48//48 16//16
f 12//12 15//15 11//11
f 18//18 12//12 11//11
f 11//11 15//15 22//22
f 13//13 12//12 18//18
f 13//13 18//18 17//17
f 13//13 50//50 12//12
f 50//50 52//52 12//12
f 12//12 52//52 15//15
f 13//13 14//14 50//50
f 22//22 10//10 23//23
f 10//10 22//22 15//15
f 22//22 23//23 21//21
f 53//53 26//26 16//16
f 18//18 2//2 17//17
f 1//1 18//18 11//11
f 11//11 22//22 1//1
f 17//17 25//25 13//13
f 54//54 13//13 25//25
f 14//14 13//13 54//54
f 1//1 22//22 19//19
f 21//21 20//20 19//19
f 21//21 19//19 22//22
f 38//38 23//23 26//26
f 23//23 16//16 26//26
f 5//5 30//30 31//31
f 25//25 17//17 24//24
f 31//31 25//25 24//24
f 23//23 38//38 21//21
f 21//21 38//38 35//35
f 6//6 21//21 35//35
f 26//26 27//27 38//38
f 53//53 29//29 26//26
f 29//29 27//27 26//26
f 31//31 30//30 34//34
f 34//34 30//30 9//9
f 31//31 34//34 55//55
f 54//54 25//25 31//31
f 31//31 55//55 54//54
f 33//33 34//34 9//9
f 32//32 33//33 9//9
f 57//57 34//34 33//33
f 58//58 57//57 33//33
f 37//37 32//32 36//36
f 36//36 39//39 37//37
f 35//35 38//38 36//36
f 39//39 36//36 38//38
f 40//40 38//38 27//27
f 38//38 40//40 39//39
f 56//56 39//39 40//40
f 39//39 56//56 37//37
f 28//28 40//40 27//27
f 37//37 59//59 58//58
f 37//37 56//56 59//59
f 56//56 40//40 28//28
f 33//33 32//32 58//58
f 32//32 37//37 58//58
f 65//65 41//41 66//66
f 65//65 42//42 41//41
f 71//71 66//66 41//41
f 41//41 43//43 71//71
f 42//42 43//43 41//41
f 44//44 71//71 43//43
f 43//43 73//73 44//44
f 74//74 45//45 228//228
f 44//44 227//227 71//71
f 44//44 48//48 227//227
f 73//73 47//47 44//44
f 73//73 46//46 47//47
f 47//47 48//48 44//44
f 74//74 228//228 49//49
f 49//49 228//228 10//10
f 46//46 112//112 53//53
f 53//53 16//16 46//46
f 15//15 49//49 10//10
f 51//51 52//52 50//50
f 52//52 51//51 15//15
f 49//49 15//15 51//51
f 49//49 51//51 50//50
f 49//49 50//50 76//76
f 76//76 50//50 77//77
f 77//77 50//50 14//14
f 14//14 54//54 77//77
f 54//54 134//134 77//77
f 79//79 134//134 54//54
f 29//29 28//28 27//27
f 78//78 29//29 53//53
f 86//86 34//34 57//57
f 55//55 34//34 86//86
f 59//59 56//56 93//93
f 28//28 29//29 84//84
f 84//84 56//56 28//28
f 86//86 57//57 87//87
f 57//57 58//58 87//87
f 90//90 58//58 59//59
f 87//87 58//58 90//90
f 90//90 59//59 93//93
f 61//61 66//66 64//64
f 61//61 64//64 99//99
f 60//60 62//62 65//65
f 60//60 65//65 66//66
f 229//229 97//97 96//96
f 229//229 60//60 66//66
f 60//60 229//229 96//96
f 60//60 63//63 62//62
f 63//63 60//60 96//96
f 63//63 103//103 62//62
f 68//68 62//62 103//103
f 62//62 68//68 65//65
f 105//105 68//68 103//103
f 67//67 64//64 66//66
f 104//104 67//67 106//106
f 68//68 105//105 69//69
f 105//105 70//70 69//69
f 66//66 71//71 67//67
f 42//42 65//65 68//68
f 42//42 68//68 69//69
f 73//73 43//43 42//42
f 42//42 69//69 73//73
f 72//72 108//108 71//71
f 71//71 45//45 72//72
f 74//74 72//72 45//45
f 112//112 46//46 73//73
f 112//112 73//73 69//69
f 72//72 230//230 75//75
f 230//230 49//49 75//75
f 115//115 49//49 76//76
f 115//115 75//75 49//49
f 117//117 115//115 76//76
f 113//113 78//78 53//53
f 117//117 76//76 77//77
f 84//84 29//29 78//78
f 86//86 79//79 55//55
f 79//79 54//54 55//55
f 79//79 86//86 152//152
f 86//86 88//88 152//152
f 152//152 153//153 79//79
f 80//80 56//56 84//84
f 93//93 56//56 80//80
f 94//94 93//93 81//81
f 93//93 80//80 81//81
f 84//84 82//82 80//80
f 82//82 81//81 80//80
f 85//85 82//82 84//84
f 83//83 94//94 81//81
f 82//82 83//83 81//81
f 162//162 163//163 82//82
f 85//85 162//162 82//82
f 85//85 84//84 78//78
f 87//87 88//88 86//86
f 167//167 88//88 89//89
f 88//88 87//87 89//89
f 90//90 94//94 91//91
f 90//90 91//91 87//87
f 87//87 91//91 89//89
f 89//89 91//91 92//92
f 94//94 92//92 91//91
f 94//94 83//83 92//92
f 156//156 89//89 92//92
f 90//90 93//93 94//94
f 95//95 232//232 99//99
f 233//233 98//98 96//96
f 232//232 61//61 99//99
f 102//102 99//99 64//64
f 233//233 197//197 98//98
f 63//63 96//96 100//100
f 100//100 103//103 63//63
f 103//103 100//100 101//101
f 98//98 100//100 96//96
f 98//98 197//197 100//100
f 197//197 169//169 100//100
f 100//100 169//169 101//101
f 102//102 64//64 104//104
f 101//101 105//105 103//103
f 101//101 170//170 173//173
f 101//101 173//173 105//105
f 104//104 174//174 172//172
f 172//172 102//102 104//104
f 104//104 64//64 67//67
f 106//106 174//174 104//104
f 174//174 106//106 175//175
f 105//105 107//107 70//70
f 173//173 107//107 105//105
f 108//108 67//67 71//71
f 67//67 108//108 106//106
f 106//106 108//108 175//175
f 108//108 179//179 175//175
f 107//107 109//109 70//70
f 178//178 109//109 107//107
f 111//111 70//70 109//109
f 179//179 108//108 110//110
f 110//110 108//108 72//72
f 185//185 179//179 110//110
f 111//111 69//69 70//70
f 111//111 112//112 69//69
f 72//72 75//75 110//110
f 185//185 110//110 75//75
f 114//114 112//112 111//111
f 240//240 115//115 116//116
f 112//112 113//113 53//53
f 114//114 113//113 112//112
f 114//114 111//111 184//184
f 115//115 185//185 75//75
f 115//115 119//119 116//116
f 116//116 119//119 188//188
f 117//117 119//119 115//115
f 132//132 78//78 113//113
f 117//117 118//118 119//119
f 132//132 190//190 123//123
f 118//118 117//117 77//77
f 119//119 120//120 188//188
f 188//188 120//120 126//126
f 188//188 126//126 122//122
f 123//123 121//121 133//133
f 129//129 133//133 121//121
f 121//121 123//123 192//192
f 124//124 77//77 134//134
f 77//77 124//124 118//118
f 118//118 124//124 119//119
f 119//119 124//124 193//193
f 193//193 124//124 135//135
f 134//134 135//135 124//124
f 120//120 125//125 126//126
f 125//125 141//141 126//126
f 120//120 119//119 193//193
f 193//193 125//125 120//120
f 142//142 141//141 125//125
f 126//126 145//145 146//146
f 126//126 141//141 145//145
f 126//126 146//146 122//122
f 122//122 146//146 127//127
f 147//147 127//127 146//146
f 122//122 127//127 130//130
f 130//130 127//127 131//131
f 127//127 147//147 131//131
f 129//129 128//128 133//133
f 128//128 149//149 133//133
f 121//121 122//122 129//129
f 130//130 131//131 128//128
f 122//122 130//130 129//129
f 130//130 128//128 129//129
f 133//133 132//132 123//123
f 234//234 132//132 133//133
f 134//134 79//79 153//153
f 153//153 135//135 134//134
f 135//135 153//153 157//157
f 135//135 157//157 142//142
f 140//140 136//136 139//139
f 138//138 136//136 140//140
f 136//136 138//138 137//137
f 137//137 138//138 155//155
f 137//137 155//155 144//144
f 137//137 145//145 141//141
f 141//141 139//139 136//136
f 141//141 136//136 137//137
f 138//138 140//140 154//154
f 138//138 154//154 155//155
f 139//139 158//158 140//140
f 142//142 158//158 139//139
f 142//142 139//139 141//141
f 158//158 157//157 156//156
f 158//158 142//142 157//157
f 137//137 143//143 145//145
f 137//137 144//144 143//143
f 143//143 144//144 160//160
f 143//143 160//160 161//161
f 144//144 155//155 160//160
f 161//161 160//160 155//155
f 161//161 150//150 143//143
f 143//143 146//146 145//145
f 146//146 143//143 147//147
f 236//236 131//131 147//147
f 143//143 150//150 147//147
f 151//151 148//148 162//162
f 148//148 166//166 162//162
f 166//166 148//148 150//150
f 235//235 150//150 148//148
f 149//149 128//128 131//131
f 236//236 149//149 131//131
f 237//237 78//78 132//132
f 78//78 237//237 85//85
f 234//234 151//151 132//132
f 162//162 85//85 151//151
f 148//148 151//151 234//234
f 153//153 152//152 157//157
f 167//167 152//152 88//88
f 161//161 155//155 159//159
f 159//159 155//155 154//154
f 159//159 154//154 156//156
f 152//152 167//167 157//157
f 167//167 156//156 157//157
f 154//154 158//158 156//156
f 140//140 158//158 154//154
f 161//161 165//165 150//150
f 165//165 161//161 164//164
f 161//161 159//159 164//164
f 159//159 156//156 92//92
f 165//165 164//164 163//163
f 83//83 82//82 163//163
f 83//83 163//163 164//164
f 163//163 162//162 166//166
f 165//165 166//166 150//150
f 163//163 166//166 165//165
f 156//156 167//167 89//89
f 164//164 159//159 92//92
f 83//83 164//164 92//92
f 102//102 168//168 99//99
f 95//95 99//99 168//168
f 102//102 172//172 168//168
f 172//172 195//195 168//168
f 194//194 95//95 168//168
f 194//194 168//168 195//195
f 231//231 242//242 215//215
f 231//231 214//214 196//196
f 196//196 233//233 231//231
f 170//170 169//169 171//171
f 170//170 101//101 169//169
f 238//238 173//173 170//170
f 177//177 173//173 201//201
f 173//173 238//238 201//201
f 201//201 202//202 177//177
f 175//175 176//176 174//174
f 178//178 107//107 173//173
f 178//178 173//173 177//177
f 176//176 175//175 179//179
f 178//178 180//180 109//109
f 178//178 211//211 180//180
f 204//204 178//178 177//177
f 211//211 178//178 204//204
f 209//209 181//181 212//212
f 181//181 183//183 212//212
f 209//209 179//179 181//181
f 212//212 239//239 182//182
f 109//109 180//180 111//111
f 184//184 180//180 182//182
f 182//182 180//180 211//211
f 186//186 181//181 179//179
f 180//180 184//184 111//111
f 182//182 239//239 184//184
f 187//187 184//184 239//239
f 240//240 186//186 179//179
f 116//116 186//186 240//240
f 183//183 181//181 241//241
f 186//186 116//116 188//188
f 181//181 186//186 241//241
f 186//186 188//188 191//191
f 113//113 114//114 187//187
f 184//184 187//187 114//114
f 113//113 187//187 190//190
f 191//191 241//241 186//186
f 113//113 190//190 132//132
f 241//241 191//191 190//190
f 188//188 122//122 189//189
f 188//188 189//189 191//191
f 192//192 190//190 191//191
f 123//123 190//190 192//192
f 121//121 192//192 122//122
f 189//189 122//122 192//192
f 192//192 191//191 189//189
f 135//135 142//142 193//193
f 193//193 142//142 125//125
f 242//242 213//213 215//215
f 245//245 194//194 195//195
f 196//196 197//197 233//233
f 214//214 219//219 196//196
f 196//196 218//218 197//197
f 196//196 219//219 218//218
f 171//171 197//197 198//198
f 172//172 199//199 195//195
f 199//199 245//245 195//195
f 197//197 171//171 169//169
f 243//243 202//202 238//238
f 244//244 203//203 202//202
f 174//174 199//199 172//172
f 205//205 177//177 202//202
f 202//202 200//200 205//205
f 203//203 244//244 222//222
f 238//238 202//202 201//201
f 202//202 203//203 200//200
f 174//174 176//176 207//207
f 207//207 199//199 174//174
f 204//204 177//177 205//205
f 204//204 205//205 206//206
f 200//200 206//206 205//205
f 207//207 176//176 179//179
f 208//208 207//207 209//209
f 208//208 211//211 204//204
f 210//210 209//209 212//212
f 210//210 212//212 182//182
f 207//207 179//179 209//209
f 209//209 210//210 208//208
f 210//210 211//211 208//208
f 182//182 211//211 210//210
f 214//214 231//231 215//215
f 216//216 214//214 215//215
f 216//216 219//219 214//214
f 213//213 247//247 215//215
f 247//247 213//213 217//217
f 197//197 218//218 221//221
f 216//216 220//220 219//219
f 219//219 220//220 218//218
f 221//221 218//218 220//220
f 217//217 221//221 248//248
f 222//222 221//221 224//224
f 221//221 222//222 197//197
f 248//248 247//247 217//217
f 224//224 221//221 217//217
f 197//197 222//222 244//244
f 199//199 223//223 245//245
f 223//223 199//199 207//207
f 223//223 207//207 208//208
f 217//217 246//246 223//223
f 223//223 208//208 226//226
f 217//217 223//223 226//226
f 206//206 200//200 225//225
f 224//224 226//226 225//225
f 225//225 200//200 224//224
f 217//217 226//226 224//224
f 224//224 203//203 222//222
f 203//203 224//224 200//200
f 204//204 206//206 225//225
f 225//225 208//208 204//204
f 226//226 208//208 225//225
