# Wavafront OBJ file of BodyParts3D
# BodyParts3D, Copyright(C) 2010-2011 The Database Center for Life Science licensed under CC Attribution-Share Alike 2.1 Japan.
vn -0.564502 -0.0610779 -0.823169
v 96.7971 -108.268 19.9797
vn -0.898762 0.0632987 -0.433843
v 94.8099 -108.953 22.1047
vn -0.671461 -0.19417 -0.715149
v 95.9157 -108.39 20.6841
vn -0.723501 -0.487929 -0.488336
v 95.5005 -110.612 22.2339
vn -0.900898 -0.400385 -0.167558
v 94.4745 -109.418 23.3706
vn -0.990429 0.127974 -0.0516982
v 94.3464 -109.073 23.8832
vn -0.986063 0.0997785 0.133129
v 94.4843 -108.9 24.7749
vn -0.845562 -0.517897 0.129643
v 94.6047 -109.871 24.9184
vn -0.950264 -0.239584 0.198994
v 94.52 -109.407 25.4199
vn -0.48234 0.837115 0.258044
v 95.2263 -108.666 25.6188
vn -0.515114 0.18037 -0.837929
v 96.9653 -107.553 20.0301
vn -0.218706 0.0873721 -0.971871
v 98.5181 -107.655 19.2058
vn -0.326829 0.875652 -0.355552
v 98.3428 -106.642 20.3902
vn -0.0113143 0.755667 -0.654858
v 99.4176 -107.304 19.4979
vn -0.709196 0.269574 -0.651437
v 95.931 -108.01 20.6659
vn -0.77832 0.524875 -0.344564
v 95.5515 -107.959 21.2522
vn -0.63499 0.772461 -0.00959786
v 95.3703 -108.009 21.9663
vn -0.555521 0.786492 -0.269863
v 95.9562 -107.66 21.066
vn -0.43023 0.902693 0.00682449
v 96.3772 -107.424 21.3046
vn -0.554178 -0.152266 -0.818353
v 101.659 -113.607 17.5749
vn -0.874298 -0.345218 -0.341215
v 97.8916 -113.519 21.4348
vn -0.767791 -0.503966 -0.395619
v 96.8906 -112.151 22.3689
vn -0.767784 -0.640708 -0.000488398
v 96.7718 -112.311 23.129
vn -0.918111 -0.396002 -0.0159462
v 97.9313 -114.069 22.3193
vn 0.0388817 0.291391 -0.955814
v 99.7146 -110.011 18.9897
vn -0.606202 -0.223949 -0.763129
v 98.6193 -111.141 19.243
vn -0.589633 -0.700115 0.402706
v 95.5707 -109.73 27.0517
vn -0.456183 -0.735646 0.500722
v 96.2177 -110.117 27.1464
vn -0.713167 -0.558236 0.423988
v 96.8791 -111.213 25.9495
vn 0.465457 0.305255 -0.830764
v 100.8 -108.444 19.9618
vn -0.673935 0.517773 0.526994
v 95.8032 -109.056 27.2281
vn -0.12285 0.740974 -0.660201
v 100.578 -105.469 21.6625
vn -0.055846 0.705783 -0.706224
v 100.895 -106.226 20.8808
vn -0.0382206 0.308311 -0.950517
v 101.403 -105.721 21.1979
vn 0.0457077 0.614497 -0.787594
v 102.459 -105.002 21.5403
vn 0.209076 0.238852 -0.948281
v 102.78 -105.541 21.3641
vn 0.324546 0.453631 -0.829993
v 102.813 -105.202 21.5358
vn 0.188444 -0.117271 -0.975057
v 102.589 -106.625 21.4516
vn -0.472558 0.864131 0.17311
v 99.1367 -106.462 24.1414
vn -0.652679 -0.526013 -0.545271
v 100.776 -117.235 20.7304
vn -0.78265 -0.507556 -0.360342
v 98.6079 -115.573 21.198
vn -0.857031 -0.515044 -0.015056
v 98.6727 -115.615 22.4712
vn -0.672634 -0.679933 -0.291985
v 99.4862 -116.445 21.3843
vn -0.77199 -0.626912 -0.104939
v 99.3454 -116.507 22.1238
vn -0.850901 -0.509483 -0.12804
v 98.8099 -115.95 23.3993
vn -0.582242 -0.396299 -0.709888
v 100.26 -114.937 19.6938
vn -0.993034 -0.10516 0.0531412
v 97.8266 -113.498 25.9067
vn -0.901215 -0.396228 0.175542
v 97.9141 -115.209 26.0837
vn -0.764659 -0.441723 0.469231
v 98.3214 -114.401 27.5034
vn 0.251006 0.453325 -0.855273
v 105.2 -113.73 16.6606
vn -0.94706 -0.266621 0.178858
v 97.6653 -112.59 25.743
vn -0.889821 -0.148674 0.43141
v 97.9766 -111.877 27.2362
vn -0.927742 -0.0585816 0.368595
v 97.9933 -113.1 27.6426
vn 0.366058 0.712549 -0.598561
v 102.857 -110.081 19.6882
vn 0.416878 0.219836 -0.881978
v 102.729 -108.978 21.4698
vn 0.13344 0.260506 -0.956206
v 104.258 -108.914 21.9639
vn 0.400751 0.791305 -0.461775
v 104.465 -109.718 21.7056
vn -0.0273673 -0.134417 -0.990547
v 103.48 -106.609 21.491
vn 0.205024 0.260712 -0.943395
v 103.749 -105.969 21.5828
vn -0.342865 -0.294309 -0.892091
v 103.726 -107.503 21.6702
vn -0.387233 -0.186641 -0.902893
v 105.247 -108.803 21.2216
vn 0.128391 -0.124323 -0.9839
v 103.175 -107.687 21.8074
vn -0.500688 0.83267 0.236584
v 103.444 -103.43 25.3067
vn -0.0432293 0.836987 -0.545513
v 104.717 -102.638 24.3814
vn -0.772916 -0.510662 -0.376598
v 102.306 -120.213 20.908
vn -0.268255 -0.041979 -0.962433
v 104.988 -117.385 16.1873
vn -0.608693 -0.290032 -0.738495
v 104.184 -119.119 17.0461
vn -0.780625 -0.552586 -0.292016
v 100.314 -117.81 22.3963
vn -0.797567 -0.550064 0.247621
v 99.1815 -117.004 25.3423
vn -0.850578 -0.352486 0.390218
v 98.6164 -113.875 28.4648
vn -0.677167 -0.577531 0.455965
v 98.9726 -115.818 26.7706
vn -0.744916 -0.535692 0.397661
v 98.791 -114.294 28.2683
vn -0.854059 -0.384919 0.349888
v 98.8755 -114.039 29.0443
vn -0.910323 -0.0876022 0.404522
v 98.557 -113.487 28.5706
vn -0.908017 0.183651 0.376533
v 98.7446 -112.838 28.7977
vn -0.943203 0.00725529 0.332137
v 98.7608 -113.282 29.1218
vn -0.896938 0.0906483 0.432765
v 99.3868 -111.677 29.4306
vn -0.941428 0.224056 0.252015
v 98.8718 -112.989 29.3762
vn -0.889328 -0.177951 0.421223
v 99.5119 -112.79 31.164
vn -0.00865999 -0.0513698 -0.998642
v 106.844 -110.534 20.8822
vn 0.474832 0.642539 -0.601397
v 105.771 -110.865 20.8757
vn -0.117985 0.40906 -0.904848
v 105.833 -110.201 21.3088
vn -0.196002 -0.245233 -0.949444
v 106.708 -111.297 21.1884
vn -0.425996 -0.722441 0.544615
v 99.3297 -109.212 30.7814
vn -0.725472 -0.115373 0.678513
v 100.271 -109.834 31.6388
vn 0.317366 0.362775 -0.876169
v 106.257 -108.465 21.3313
vn -0.651746 0.145594 0.744332
v 101.082 -108.274 32.329
vn -0.500879 0.47979 0.720362
v 101.628 -107.774 32.5855
vn -0.431998 0.81639 0.383255
v 102.221 -107.086 32.2133
vn -0.466551 0.148206 0.871989
v 101.72 -108.227 32.7836
vn -0.463949 0.816661 0.343243
v 103.336 -105.642 29.5243
vn -0.455371 0.815494 0.357221
v 104.239 -104.839 28.7628
vn 0.191346 0.642037 -0.742412
v 106.584 -102.35 24.9972
vn -0.223804 0.968298 -0.110949
v 107.156 -101.977 25.8143
vn -0.364193 0.86652 0.34133
v 108.15 -101.836 27.2282
vn -0.0286975 0.977166 -0.21053
v 108.86 -101.457 26.4009
vn 0.439078 0.624517 -0.645902
v 109.394 -102.087 25.7739
vn -0.803492 -0.386169 -0.453071
v 106.097 -124.359 18.5871
vn -0.823969 -0.564572 -0.04831
v 103.319 -122.419 22.5035
vn -0.685628 -0.710239 -0.159608
v 101.341 -120.791 24.0562
vn -0.594026 -0.790576 -0.148739
v 102.121 -121.079 23.3198
vn -0.770883 -0.63415 -0.0599493
v 102.885 -121.746 23.0112
vn -0.539293 -0.83728 0.0901375
v 102.754 -121.464 24.1423
vn -0.820371 -0.568079 0.0654056
v 101.084 -120.487 24.6983
vn -0.585509 -0.729411 0.35375
v 101.709 -120.892 25.5173
vn -0.434373 -0.812918 0.387923
v 102.744 -121.22 25.7598
vn -0.709536 -0.567606 0.417591
v 101.332 -118.189 27.5541
vn -0.517092 -0.633369 0.575726
v 102.258 -120.354 26.5011
vn 0.645908 0.320501 -0.69288
v 109.128 -117.035 17.7846
vn -0.714668 -0.589055 0.377179
v 102.082 -118.013 30.0485
vn 0.469519 0.573839 -0.671015
v 109.782 -114.6 20.1181
vn 0.504807 0.585759 -0.634079
v 108.219 -112.336 21.4665
vn -0.0526126 -0.197264 -0.978938
v 108.077 -111.886 21.4087
vn 0.150821 0.193484 -0.969442
v 108.638 -110.945 21.2898
vn 0.171307 0.575685 -0.799525
v 108.737 -112.53 21.3847
vn -0.117229 -0.261249 -0.958127
v 108.875 -112.195 21.3323
vn 0.0068585 -0.592218 -0.805748
v 109.78 -112.149 21.1699
vn 0.145191 -0.30397 -0.941553
v 109.6 -112.494 21.3771
vn 0.00770586 -0.0490895 -0.998765
v 110.193 -111.893 20.9364
vn 0.350062 0.168845 -0.921384
v 109.789 -112.959 21.4166
vn 0.466997 0.0650831 -0.88186
v 109.901 -112.637 21.4998
vn 0.15086 -0.585213 -0.796722
v 110.126 -112.328 21.3964
vn -0.479236 -0.089831 0.873077
v 101.393 -110.753 32.6845
vn -0.32805 0.836446 0.439023
v 105.745 -105.012 30.5106
vn -0.066282 0.76148 0.644791
v 106.316 -106.092 32.9866
vn -0.291382 0.716963 0.633293
v 104.465 -106.736 33.2333
vn -0.188154 0.318183 0.92917
v 105.039 -107.46 33.8775
vn 0.775586 0.428094 0.463899
v 110.301 -103.41 28.2379
vn -0.245983 0.786205 0.566898
v 107.578 -103.631 29.4721
vn 0.0733362 0.742839 0.665441
v 108.787 -102.515 28.4848
vn 0.0526569 0.749133 0.660323
v 108.432 -103.6 29.5785
vn 0.421543 0.611999 0.669148
v 109.718 -103.104 28.6824
vn -0.0645204 0.872517 0.484305
v 109.043 -101.677 27.3487
vn 0.598551 0.679011 -0.425066
v 109.831 -101.945 26.6158
vn 0.524371 0.714122 0.46375
v 109.547 -102.044 27.6813
vn 0.791289 0.551394 0.264248
v 110.294 -102.723 27.3633
vn -0.208015 0.810164 0.548055
v 108.477 -102.084 27.9028
vn -0.800019 -0.0713041 -0.595722
v 107.891 -129.108 17.5587
vn -0.574719 -0.161633 -0.80223
v 107.961 -124.745 16.4648
vn -0.924006 -0.345469 -0.163903
v 104.619 -124.845 22.648
vn 0.440217 0.206834 -0.873744
v 109.102 -123.613 16.0979
vn -0.711432 -0.636922 0.296977
v 103.672 -121.621 26.1116
vn -0.556628 -0.702221 0.443905
v 103.286 -119.945 28.0476
vn -0.41845 -0.585614 0.69423
v 104.326 -120.11 29.1175
vn -0.331406 -0.746646 0.576792
v 103.43 -118.847 30.1069
vn 0.821354 0.231372 -0.521387
v 110.871 -118.768 19.3278
vn 0.961004 0.115637 -0.251195
v 111.478 -117.816 21.2559
vn -0.419662 -0.585907 0.693251
v 102.553 -118.128 30.6335
vn 0.98185 -0.0443318 -0.184404
v 111.684 -115.449 22.565
vn 0.567799 0.100483 -0.817011
v 110.68 -112.271 21.991
vn 0.714046 0.248869 -0.654372
v 111.208 -113.693 22.1488
vn 0.731003 0.118219 -0.672056
v 112.224 -111.644 23.614
vn 0.889292 -0.275863 -0.364774
v 112.699 -110.693 23.635
vn -0.246328 -0.062237 0.967186
v 105.324 -110.715 34.3573
vn 0.328343 0.0972885 0.939535
v 106.889 -110.989 34.5098
vn 0.286472 0.442541 -0.84976
v 112.975 -108.161 23.8181
vn 0.977586 -0.0441097 0.205866
v 113.083 -108.859 25.3987
vn 0.896609 0.00691652 0.44277
v 110.51 -109.228 29.607
vn 0.310165 0.461678 0.831054
v 106.793 -106.538 33.2973
vn 0.715758 0.245374 0.653821
v 108.256 -107.393 32.6177
vn 0.702673 0.553758 -0.44677
v 111.833 -104.999 26.0012
vn 0.909855 0.233082 0.343274
v 112.394 -106.469 26.4485
vn -0.958806 -0.222601 -0.176466
v 107.295 -131.869 19.4483
vn -0.563539 -0.0011591 -0.826089
v 110.346 -129.726 15.4017
vn 0.433913 0.316031 -0.843708
v 111.655 -127.335 16.2062
vn 0.112385 -0.547147 0.829457
v 107.441 -123.456 27.9498
vn 0.960683 0.206029 -0.186117
v 111.82 -120.196 20.9399
vn 0.997726 0.0673788 -0.00196231
v 111.689 -118.476 22.377
vn -0.0806908 -0.592635 0.801419
v 108.218 -119.974 30.2242
vn 0.965202 -0.19407 0.175277
v 111.634 -115.253 23.7617
vn 0.971191 -0.0523825 0.232475
v 111.086 -116.775 27.221
vn 0.882246 -0.389708 0.264139
v 111.885 -114.291 24.2443
vn 0.937596 -0.195447 0.287601
v 111.327 -112.957 26.6805
vn 0.931209 -0.30601 0.198009
v 112.225 -112.722 25.5679
vn 0.0998152 -0.334766 0.937
v 107.204 -113.717 34.0785
vn 0.784554 0.0269518 0.619475
v 110.418 -112.647 31.4395
vn -0.652366 0.139791 -0.7449
v 113.17 -154.657 0.460867
vn -0.926824 0.0807299 -0.366714
v 112.925 -155.377 0.774116
vn -0.400074 0.602101 -0.690953
v 114.035 -153.096 0.46285
vn -0.847459 0.36289 -0.387458
v 113.008 -153.241 1.4905
vn -0.961551 0.271703 -0.0399767
v 112.928 -153.271 1.85437
vn -0.717726 0.672822 -0.179386
v 113.224 -152.65 1.98928
vn -0.496362 0.287497 -0.819127
v 111.824 -142.325 11.8787
vn -0.220801 0.337929 -0.914905
v 112.748 -142.585 11.2277
vn -0.953382 -0.072216 -0.292999
v 109.453 -139.858 16.4143
vn -0.857181 -0.408033 0.314244
v 108.202 -134.57 21.4251
vn 0.161951 -0.358857 0.919235
v 110.203 -131.542 24.0617
vn -0.391428 -0.461271 0.796249
v 108.311 -131.149 23.984
vn 0.900947 0.0407928 0.432007
v 113.097 -125.706 23.3452
vn 0.442451 -0.367979 0.81782
v 109.587 -122.726 27.562
vn 0.59505 -0.583414 0.55276
v 109.365 -121.35 28.9691
vn 0.978859 0.20428 0.0102255
v 112.277 -121.243 23.7551
vn 0.914531 -0.350181 0.202502
v 109.936 -120.726 28.4497
vn 0.779895 -0.446279 0.438861
v 109.958 -120.179 29.6544
vn 0.357006 -0.539112 0.762827
v 109.73 -120.133 29.9231
vn 0.954893 -0.138709 0.262564
v 111.014 -116.852 30.0544
vn 0.644355 -0.278152 0.712347
v 109.922 -117.738 31.0967
vn -0.55308 -0.148985 -0.819699
v 113.791 -161.34 0.091313
vn -0.856269 -0.319273 -0.40604
v 110.958 -160.6 2.41997
vn -0.882487 -0.430077 0.190396
v 110.49 -160.09 4.56002
vn -0.88479 0.132319 -0.446808
v 110.316 -157.89 3.06457
vn -0.585022 0.323104 -0.743877
v 110.799 -157.881 2.53673
vn -0.590347 0.296165 -0.75085
v 111.69 -157.422 2.22403
vn -0.725587 -0.0373489 -0.687116
v 111.048 -159.8 2.00609
vn -0.967434 0.252606 -0.0161872
v 110.092 -157.173 4.51759
vn -0.984164 -0.148522 -0.0967612
v 110.146 -158.987 3.86125
vn -0.916798 -0.106887 0.384781
v 110.176 -158.43 4.96379
vn -0.948201 0.250008 -0.195987
v 112.703 -154.775 2.23666
vn -0.8365 0.185138 -0.515743
v 112.428 -156.497 1.78434
vn -0.742276 0.451046 -0.495564
v 112.013 -156.111 2.73534
vn -0.721011 0.547922 -0.424174
v 110.613 -156.839 3.57913
vn -0.890542 0.160066 0.42581
v 110.34 -156.999 5.14593
vn -0.758752 0.540394 -0.363688
v 111.549 -155.141 4.84486
vn -0.928394 0.371585 0.00282201
v 111.275 -155.144 5.49916
vn -0.891287 -0.082986 0.445782
v 111.739 -155.778 7.46794
vn -0.217279 0.24801 -0.944077
v 114.324 -154.262 -0.09813
vn 0.16897 0.573279 -0.801748
v 114.959 -153.076 0.403705
vn 0.517911 0.675904 -0.524331
v 116.307 -153.198 1.02929
vn -0.900766 0.428039 0.0735066
v 113.241 -152.802 2.83122
vn -0.945161 0.325449 -0.0274662
v 113.008 -153.527 3.15263
vn -0.887027 0.453166 -0.088451
v 113.199 -152.923 3.63509
vn -0.735777 0.672318 -0.0813605
v 113.614 -152.291 3.43062
vn -0.851014 0.461912 -0.249825
v 113.014 -152.971 4.3465
vn -0.966376 -0.188229 0.175179
v 111.985 -153.129 9.88684
vn -0.00974391 0.946555 -0.322395
v 114.915 -151.867 2.13903
vn 0.627604 0.741073 -0.238588
v 116.29 -152.636 2.2087
vn -0.591732 0.754748 -0.28321
v 113.76 -152.05 3.91225
vn 0.0511365 0.942786 -0.329455
v 114.666 -151.681 4.08239
vn -0.762458 0.508133 -0.400572
v 113.039 -152.038 5.52488
vn -0.701521 0.438755 -0.561571
v 113.207 -150.089 7.12672
vn -0.280956 0.606686 -0.743637
v 113.631 -149.848 6.95677
vn -0.295548 0.763051 -0.574808
v 114.057 -150.936 5.62171
vn 0.303557 0.7787 -0.549071
v 114.882 -150.907 5.7418
vn -0.909733 0.275995 -0.310181
v 111.982 -151.436 8.94216
vn 0.204858 0.663782 -0.719324
v 115.09 -149.699 7.11674
vn -0.591457 0.36284 -0.720087
v 113.071 -147.983 8.53276
vn 0.0902776 0.525635 -0.845906
v 113.934 -146.89 9.03864
vn 0.281488 0.382366 -0.880091
v 114.291 -142.122 11.5832
vn 0.625456 -0.162267 0.7632
v 113.36 -132.134 22.3298
vn -0.776143 -0.55355 -0.301967
v 113.42 -164.674 2.56873
vn -0.23185 -0.0375694 -0.972026
v 116.008 -158.987 -1.01183
vn 0.163054 -0.0872771 -0.982749
v 117.15 -160.221 -0.953281
vn -0.126492 -0.283475 -0.950601
v 116.646 -161.611 -0.575552
vn -0.791964 -0.0872036 0.604308
v 111.402 -158.437 6.57432
vn -0.869051 -0.214706 0.445702
v 112.358 -161.207 7.10533
vn 0.252473 0.203704 -0.945919
v 116.897 -157.077 -0.867125
vn 0.695293 0.269363 -0.666341
v 118.447 -157.459 -0.058305
vn 0.51852 0.435114 -0.73608
v 117.491 -155.854 -0.110745
vn 0.815672 0.576549 -0.0476406
v 117.479 -153.731 3.00991
vn 0.845271 0.488499 -0.21653
v 118.503 -155.166 1.6843
vn 0.892085 0.421649 0.162473
v 118.824 -156.116 2.35833
vn 0.910341 0.410465 0.0528967
v 118.293 -155.356 3.62235
vn 0.645542 0.719419 -0.256344
v 116.75 -152.339 5.25001
vn 0.820974 0.472886 -0.31997
v 117.709 -153.565 5.59947
vn 0.661314 0.554411 -0.505265
v 116.743 -151.101 6.95277
vn -0.451514 -0.474594 0.755576
v 112.784 -149.162 16.0496
vn -0.793933 -0.40229 0.455888
v 111.367 -147.116 16.3613
vn 0.546422 0.46055 -0.699512
v 115.808 -144.958 11.1904
vn 0.974981 0.155331 0.159009
v 116.107 -137.89 18.2607
vn 0.694374 -0.118761 0.709747
v 115.523 -140.126 19.2984
vn -0.339441 -0.633139 -0.69564
v 115.098 -165.436 1.5916
vn -0.903086 -0.403328 0.147519
v 113.715 -165.704 5.63529
vn -0.10272 -0.451471 -0.886353
v 116.62 -164.016 0.361826
vn 0.0822563 -0.619705 -0.780512
v 117.283 -165.228 1.1822
vn -0.905999 -0.406637 0.117526
v 113.28 -164.29 5.32744
vn -0.8897 -0.289315 0.353171
v 113.408 -164.309 5.81699
vn -0.817753 -0.451126 0.357443
v 113.305 -162.678 7.27746
vn 0.600926 0.130734 -0.788541
v 119.002 -159.967 -0.104003
vn 0.308155 -0.299826 -0.902854
v 118.359 -162.349 -0.302501
vn -0.936525 0.000390281 0.3506
v 113.659 -161.207 10.7162
vn -0.830544 -0.420815 0.364844
v 113.707 -161.991 10.7199
vn 0.906656 0.410484 -0.0973539
v 119.563 -157.861 2.11288
vn 0.86432 0.357731 -0.353524
v 119.893 -159.088 1.58198
vn 0.83071 0.43922 -0.342064
v 119.977 -158.787 2.84216
vn -0.830808 -0.094112 0.548545
v 114.27 -157.813 11.7709
vn 0.894854 0.397801 0.202462
v 118.6 -156.611 3.89951
vn 0.724842 0.685696 -0.066519
v 119.148 -157.003 3.44013
vn 0.426521 0.779838 -0.458185
v 119.286 -156.961 3.96317
vn 0.787448 0.580123 -0.208284
v 119.647 -157.382 3.77073
vn 0.377961 0.771726 -0.511453
v 119.349 -156.067 5.28208
vn 0.369091 0.742697 -0.558724
v 120.272 -156.39 5.001
vn 0.656342 0.583477 -0.478298
v 118.741 -155.655 5.14665
vn -0.692 -0.387297 0.60921
v 114.077 -155.439 12.5556
vn -0.314613 -0.449522 0.836032
v 115.449 -154.329 14.1283
vn 0.929181 0.359567 -0.0856474
v 118.904 -151.153 11.0734
vn -0.158204 -0.439086 0.884407
v 114.492 -149.227 16.8669
vn 0.435918 -0.292179 0.851238
v 115.801 -147.894 17.1582
vn 0.879799 0.327182 -0.344827
v 117.31 -144.047 14.5138
vn -0.000574158 -0.836625 -0.547776
v 116.561 -166.997 3.00326
vn 0.250218 -0.90237 -0.350883
v 118.422 -167.234 4.15022
vn -0.404217 -0.817433 -0.41038
v 115.648 -167.376 4.11739
vn -0.569644 -0.814412 -0.11063
v 114.882 -167.39 5.29451
vn -0.0926217 -0.96326 -0.252093
v 115.979 -167.703 4.752
vn -0.134572 -0.990904 0.000360602
v 116.199 -167.832 5.7154
vn 0.137251 -0.984057 -0.113114
v 116.999 -167.747 5.37506
vn 0.0701028 -0.987809 0.138996
v 116.824 -167.764 6.91066
vn -0.830052 -0.518525 0.205294
v 115.24 -167.381 7.56218
vn -0.85356 -0.155053 0.497386
v 115.178 -166.166 9.33103
vn -0.0639072 -0.868929 0.490794
v 116.214 -167.392 8.15421
vn 0.346736 -0.648464 -0.677694
v 119.857 -165.356 2.01377
vn -0.786796 -0.156112 0.597143
v 115.48 -165.187 9.60031
vn -0.613008 -0.684352 0.394821
v 115.385 -164.191 9.88093
vn -0.0598506 -0.64809 0.759209
v 115.859 -165.915 9.88299
vn 0.69634 0.0319005 -0.717003
v 120.85 -161.712 1.26658
vn 0.681312 -0.275819 -0.678039
v 121.326 -163.539 1.88652
vn -0.696119 -0.0837136 0.713029
v 113.953 -161.455 11.4702
vn -0.584876 -0.629297 0.511766
v 115.019 -162.68 11.6547
vn 0.783679 0.389043 -0.484245
v 120.8 -160.592 1.53346
vn 0.677439 0.324999 -0.659888
v 121.493 -158.749 4.74367
vn -0.253941 -0.271475 0.92834
v 116.956 -159.871 12.9997
vn 0.722826 0.350837 -0.595346
v 122.08 -157.246 5.73502
vn 0.805369 0.56409 -0.182164
v 122.273 -156.734 6.54865
vn -0.279564 -0.242433 0.929016
v 116.051 -156.879 13.2718
vn 0.522758 -0.0431078 0.851391
v 118.08 -157.982 12.7089
vn 0.763787 0.540194 -0.353298
v 119.682 -154.075 8.46576
vn 0.57739 0.750527 -0.321449
v 120.346 -154.979 8.12326
vn 0.800467 0.598617 0.0301667
v 121.081 -155.58 8.61348
vn 0.872729 0.487998 0.0142348
v 119.972 -153.886 10.2787
vn 0.900969 0.315568 0.297778
v 120.218 -155.097 10.9264
vn 0.816493 -0.0235318 0.576876
v 119.17 -153.368 12.216
vn 0.232938 -0.33534 0.912845
v 116.329 -154.234 14.2459
vn 0.377935 -0.924706 -0.0456501
v 118.984 -167.322 5.31873
vn 0.302334 -0.895112 0.32767
v 118.591 -167.231 7.53496
vn 0.593472 -0.686565 -0.420023
v 121.266 -165.431 3.28541
vn 0.141853 -0.705878 0.693984
v 118.067 -165.912 9.97757
vn -0.725932 -0.202504 0.657278
v 116.518 -163.957 11.1254
vn 0.881839 0.117898 -0.456574
v 122.604 -162.438 3.59597
vn 0.897054 -0.262458 -0.355542
v 122.981 -163.914 4.62715
vn 0.973046 0.184899 -0.137815
v 123.332 -162.464 5.96585
vn 0.741453 -0.66769 -0.066614
v 122.677 -165.205 6.17676
vn 0.170258 -0.376249 0.910741
v 119.675 -163.015 11.5801
vn 0.867886 0.296347 -0.398688
v 122.365 -160.009 5.20095
vn 0.952851 0.285038 0.104063
v 122.64 -160.614 6.23241
vn 0.785931 0.112982 0.607904
v 121.316 -159.56 9.86481
vn 0.912037 0.13173 0.388375
v 122.035 -161.191 8.77861
vn 0.992683 0.0711681 -0.0975491
v 122.671 -158.643 6.5188
vn 0.90274 0.180631 0.390426
v 122.473 -158.249 8.42139
vn 0.979941 -0.196352 -0.0340939
v 123.441 -163.662 6.52901
vn 0.871391 -0.429087 0.237829
v 123.052 -164.451 7.58086
vn 0.431907 -0.711332 0.554494
v 120.957 -165.108 9.63806
vn 0.573785 -0.766008 0.289833
v 122.133 -165.283 7.90361
vn 0.772584 -0.257549 0.58033
v 122.571 -163.473 9.6795
vn 0.376959 -0.51345 0.77089
v 120.544 -164.337 10.5627
vn 0.679438 0.0412621 0.732572
v 121.279 -162.779 10.8959
vn 0.9597 0.159001 0.231721
v 123.347 -162.668 7.63096
vn 0.796846 0.412812 0.44116
v 122.58 -162.176 8.77027
vn -0.667069 0.703164 0.246126
v 94.4843 -108.9 24.7749
vn -0.799955 0.324768 0.504577
v 94.52 -109.407 25.4199
vn -0.453595 0.729008 -0.512639
v 96.9653 -107.553 20.0301
vn -0.190062 0.732033 -0.654221
v 98.5181 -107.655 19.2058
vn 0.40929 0.244042 -0.879162
v 99.4176 -107.304 19.4979
vn -0.767657 0.0990809 0.633156
v 95.5707 -109.73 27.0517
vn 0.530778 0.737115 -0.418253
v 100.8 -108.444 19.9618
vn -0.538636 0.842515 0.00638514
v 100.578 -105.469 21.6625
vn 0.455855 0.147618 -0.877727
v 100.895 -106.226 20.8808
vn 0.356492 0.212476 -0.909817
v 101.403 -105.721 21.1979
vn 0.466783 0.76654 -0.441056
v 102.729 -108.978 21.4698
vn -0.423073 -0.306121 -0.852818
v 104.258 -108.914 21.9639
vn 0.0141331 0.398799 -0.916929
v 104.465 -109.718 21.7056
vn -0.430332 0.895806 0.11111
v 104.717 -102.638 24.3814
vn -0.533859 -0.13054 0.835436
v 99.5119 -112.79 31.164
vn -0.0483716 0.548618 -0.834673
v 105.771 -110.865 20.8757
vn -0.481613 -0.254346 -0.838664
v 105.833 -110.201 21.3088
vn 0.462846 0.453158 -0.761854
v 105.833 -110.201 21.3088
vn 0.46634 0.469556 -0.749696
v 106.708 -111.297 21.1884
vn -0.72313 -0.0411544 0.689485
v 99.3297 -109.212 30.7814
vn -0.940696 0.278697 0.193439
v 100.271 -109.834 31.6388
vn 0.423119 0.897314 0.125691
v 108.86 -101.457 26.4009
vn -0.0755249 -0.115174 -0.99047
v 108.219 -112.336 21.4665
vn 0.0738 0.547329 -0.833657
v 108.219 -112.336 21.4665
vn -0.10647 -0.110385 -0.98817
v 108.737 -112.53 21.3847
vn 0.722869 -0.37672 -0.57926
v 110.193 -111.893 20.9364
vn 0.165317 -0.419267 -0.892684
v 109.901 -112.637 21.4998
vn 0.607154 -0.612358 -0.506341
v 109.901 -112.637 21.4998
vn 0.604653 -0.617107 -0.503561
v 110.126 -112.328 21.3964
vn 0.454032 0.875189 0.167029
v 109.043 -101.677 27.3487
vn 0.63107 0.758751 0.161394
v 109.831 -101.945 26.6158
vn -0.33179 -0.0938443 -0.938674
v 109.102 -123.613 16.0979
vn 0.681093 -0.511615 -0.523796
v 110.68 -112.271 21.991
vn 0.899972 -0.31458 -0.301812
v 112.224 -111.644 23.614
vn 0.984465 0.173307 -0.0281765
v 112.975 -108.161 23.8181
vn 0.739427 -0.0320455 -0.672474
v 112.975 -108.161 23.8181
vn 0.705795 0.557088 -0.437615
v 112.975 -108.161 23.8181
vn 0.88706 0.433637 0.158375
v 111.833 -104.999 26.0012
vn 0.149567 0.24079 -0.958984
v 110.346 -129.726 15.4017
vn -0.883216 0.0130576 -0.468784
v 111.824 -142.325 11.8787
vn 0.901607 -0.297059 0.314422
v 109.587 -122.726 27.562
vn 0.565304 0.698009 -0.439562
v 118.6 -156.611 3.89951
vn 0.54645 0.489714 -0.679392
v 119.647 -157.382 3.77073
vn -0.250982 -0.937105 0.242572
v 115.24 -167.381 7.56218
vn -0.271624 -0.775768 0.569565
v 115.178 -166.166 9.33103
vn -0.759559 -0.242315 0.603617
v 115.385 -164.191 9.88093
vn -0.696342 -0.0855705 0.712591
v 115.859 -165.915 9.88299
vn -0.661964 -0.490248 0.566975
v 113.953 -161.455 11.4702
vn -0.135244 -0.340835 0.930344
v 115.019 -162.68 11.6547
vn 0.323361 -0.0469135 0.945112
v 116.956 -159.871 12.9997
vn 0.701429 -0.0823931 0.707961
v 120.218 -155.097 10.9264
vn -0.433057 -0.728375 0.530972
v 116.518 -163.957 11.1254
vn 0.014271 -0.472929 0.880985
v 116.518 -163.957 11.1254
f 15//15 1//1 3//3
f 1//1 4//4 3//3
f 4//4 1//1 26//26
f 1//1 12//12 26//26
f 22//22 4//4 26//26
f 15//15 3//3 2//2
f 2//2 16//16 15//15
f 2//2 17//17 16//16
f 4//4 2//2 3//3
f 2//2 6//6 17//17
f 2//2 4//4 5//5
f 4//4 22//22 23//23
f 5//5 4//4 23//23
f 5//5 6//6 2//2
f 5//5 23//23 8//8
f 5//5 8//8 6//6
f 8//8 9//9 6//6
f 6//6 9//9 7//7
f 347//347 17//17 6//6
f 347//347 348//348 31//31
f 27//27 8//8 23//23
f 31//31 348//348 352//352
f 10//10 347//347 31//31
f 1//1 15//15 11//11
f 15//15 18//18 349//349
f 11//11 12//12 1//1
f 18//18 19//19 13//13
f 13//13 349//349 18//18
f 14//14 350//350 13//13
f 13//13 350//350 349//349
f 14//14 13//13 32//32
f 12//12 351//351 25//25
f 13//13 19//19 39//39
f 32//32 33//33 14//14
f 15//15 16//16 18//18
f 18//18 16//16 17//17
f 18//18 17//17 19//19
f 19//19 17//17 39//39
f 347//347 10//10 17//17
f 13//13 39//39 354//354
f 22//22 26//26 21//21
f 21//21 23//23 22//22
f 21//21 24//24 23//23
f 26//26 41//41 21//21
f 21//21 41//41 24//24
f 41//41 42//42 24//24
f 41//41 26//26 46//46
f 24//24 42//42 45//45
f 25//25 26//26 12//12
f 25//25 20//20 26//26
f 8//8 27//27 9//9
f 29//29 23//23 24//24
f 29//29 27//27 23//23
f 28//28 27//27 29//29
f 29//29 84//84 28//28
f 27//27 28//28 84//84
f 351//351 30//30 25//25
f 30//30 351//351 355//355
f 25//25 30//30 54//54
f 55//55 30//30 355//355
f 357//357 54//54 353//353
f 17//17 10//10 39//39
f 39//39 10//10 31//31
f 31//31 352//352 366//366
f 36//36 58//58 34//34
f 59//59 58//58 36//36
f 36//36 37//37 59//59
f 32//32 34//34 33//33
f 35//35 34//34 32//32
f 36//36 34//34 35//35
f 39//39 63//63 354//354
f 35//35 32//32 64//64
f 37//37 36//36 35//35
f 35//35 93//93 37//37
f 64//64 93//93 35//35
f 38//38 355//355 356//356
f 38//38 34//34 58//58
f 62//62 38//38 58//58
f 62//62 355//355 38//38
f 354//354 63//63 360//360
f 46//46 20//20 40//40
f 41//41 44//44 42//42
f 41//41 40//40 43//43
f 43//43 44//44 41//41
f 45//45 42//42 44//44
f 40//40 68//68 43//43
f 68//68 44//44 43//43
f 45//45 44//44 68//68
f 69//69 48//48 45//45
f 20//20 66//66 67//67
f 50//50 20//20 25//25
f 20//20 50//50 66//66
f 65//65 20//20 67//67
f 46//46 26//26 20//20
f 40//40 41//41 46//46
f 45//45 48//48 24//24
f 24//24 47//47 51//51
f 24//24 48//48 47//47
f 47//47 48//48 53//53
f 53//53 51//51 47//47
f 48//48 69//69 71//71
f 71//71 49//49 48//48
f 53//53 48//48 49//49
f 70//70 53//53 49//49
f 74//74 53//53 70//70
f 50//50 25//25 54//54
f 51//51 29//29 24//24
f 51//51 52//52 29//29
f 51//51 53//53 52//52
f 29//29 52//52 77//77
f 77//77 52//52 53//53
f 77//77 53//53 75//75
f 77//77 85//85 29//29
f 75//75 53//53 74//74
f 54//54 357//357 57//57
f 54//54 57//57 81//81
f 359//359 55//55 56//56
f 55//55 62//62 56//56
f 362//362 359//359 82//82
f 62//62 55//55 355//355
f 31//31 89//89 39//39
f 29//29 85//85 366//366
f 58//58 60//60 62//62
f 61//61 58//58 59//59
f 61//61 60//60 58//58
f 358//358 60//60 61//61
f 358//358 62//62 60//60
f 93//93 86//86 59//59
f 37//37 93//93 59//59
f 86//86 93//93 114//114
f 93//93 64//64 94//94
f 98//98 65//65 67//67
f 101//101 100//100 65//65
f 65//65 40//40 20//20
f 68//68 40//40 65//65
f 65//65 100//100 68//68
f 68//68 100//100 45//45
f 104//104 69//69 45//45
f 104//104 45//45 100//100
f 105//105 69//69 104//104
f 69//69 105//105 107//107
f 50//50 141//141 66//66
f 141//141 50//50 109//109
f 70//70 49//49 72//72
f 71//71 107//107 72//72
f 72//72 49//49 71//71
f 73//73 70//70 72//72
f 73//73 74//74 70//70
f 71//71 69//69 107//107
f 72//72 107//107 73//73
f 73//73 107//107 110//110
f 76//76 78//78 75//75
f 74//74 76//76 75//75
f 77//77 75//75 78//78
f 79//79 76//76 73//73
f 76//76 74//74 73//73
f 78//78 76//76 79//79
f 78//78 367//367 77//77
f 79//79 73//73 110//110
f 79//79 367//367 78//78
f 85//85 361//361 123//123
f 50//50 54//54 81//81
f 112//112 111//111 81//81
f 111//111 50//50 81//81
f 83//83 80//80 113//113
f 113//113 80//80 114//114
f 359//359 56//56 82//82
f 358//358 61//61 363//363
f 59//59 86//86 80//80
f 59//59 80//80 61//61
f 83//83 363//363 61//61
f 81//81 364//364 365//365
f 80//80 83//83 61//61
f 80//80 86//86 114//114
f 112//112 81//81 365//365
f 369//369 83//83 113//113
f 85//85 87//87 366//366
f 87//87 31//31 366//366
f 123//123 87//87 85//85
f 39//39 89//89 91//91
f 88//88 89//89 31//31
f 88//88 31//31 87//87
f 123//123 90//90 87//87
f 90//90 88//88 87//87
f 124//124 95//95 91//91
f 63//63 39//39 91//91
f 63//63 91//91 92//92
f 95//95 92//92 91//91
f 89//89 124//124 91//91
f 89//89 126//126 124//124
f 114//114 93//93 119//119
f 96//96 97//97 93//93
f 93//93 94//94 96//96
f 96//96 94//94 95//95
f 119//119 93//93 97//97
f 94//94 360//360 95//95
f 95//95 63//63 92//92
f 360//360 63//63 95//95
f 95//95 137//137 133//133
f 97//97 96//96 134//134
f 95//95 133//133 96//96
f 66//66 378//378 67//67
f 378//378 139//139 67//67
f 98//98 99//99 65//65
f 102//102 65//65 99//99
f 102//102 101//101 65//65
f 101//101 103//103 100//100
f 100//100 103//103 105//105
f 105//105 104//104 100//100
f 102//102 103//103 101//101
f 103//103 102//102 99//99
f 103//103 106//106 105//105
f 103//103 142//142 106//106
f 99//99 142//142 103//103
f 110//110 107//107 143//143
f 108//108 107//107 105//105
f 107//107 108//108 143//143
f 106//106 108//108 105//105
f 106//106 143//143 108//108
f 145//145 148//148 143//143
f 146//146 141//141 109//109
f 148//148 79//79 110//110
f 148//148 110//110 143//143
f 151//151 146//146 109//109
f 151//151 109//109 111//111
f 50//50 111//111 109//109
f 148//148 123//123 361//361
f 369//369 113//113 116//116
f 113//113 119//119 116//116
f 114//114 119//119 113//113
f 111//111 370//370 115//115
f 371//371 369//369 116//116
f 111//111 115//115 120//120
f 371//371 116//116 120//120
f 119//119 117//117 116//116
f 111//111 120//120 151//151
f 120//120 116//116 118//118
f 118//118 116//116 117//117
f 121//121 120//120 118//118
f 122//122 118//118 117//117
f 122//122 373//373 118//118
f 117//117 119//119 122//122
f 151//151 120//120 150//150
f 150//150 120//120 121//121
f 379//379 374//374 375//375
f 372//372 379//379 375//375
f 379//379 372//372 153//153
f 123//123 127//127 90//90
f 127//127 88//88 90//90
f 124//124 126//126 125//125
f 127//127 125//125 126//126
f 159//159 125//125 127//127
f 89//89 88//88 126//126
f 127//127 126//126 88//88
f 127//127 155//155 159//159
f 161//161 97//97 134//134
f 119//119 97//97 156//156
f 136//136 384//384 377//377
f 130//130 132//132 135//135
f 135//135 128//128 136//136
f 132//132 128//128 135//135
f 128//128 384//384 136//136
f 129//129 95//95 124//124
f 137//137 95//95 129//129
f 130//130 137//137 129//129
f 131//131 130//130 129//129
f 132//132 130//130 131//131
f 129//129 124//124 125//125
f 131//131 129//129 125//125
f 132//132 131//131 125//125
f 377//377 368//368 376//376
f 130//130 133//133 137//137
f 377//377 376//376 135//135
f 135//135 133//133 130//130
f 135//135 136//136 377//377
f 164//164 138//138 139//139
f 378//378 164//164 139//139
f 385//385 141//141 165//165
f 67//67 139//139 98//98
f 138//138 98//98 139//139
f 138//138 140//140 98//98
f 99//99 98//98 140//140
f 163//163 186//186 140//140
f 140//140 142//142 99//99
f 142//142 186//186 144//144
f 142//142 144//144 143//143
f 146//146 165//165 141//141
f 142//142 143//143 106//106
f 145//145 143//143 144//144
f 146//146 147//147 167//167
f 169//169 148//148 145//145
f 144//144 169//169 145//145
f 169//169 144//144 166//166
f 151//151 149//149 146//146
f 146//146 149//149 147//147
f 151//151 150//150 152//152
f 151//151 152//152 149//149
f 172//172 170//170 149//149
f 149//149 174//174 172//172
f 380//380 174//174 149//149
f 148//148 175//175 123//123
f 379//379 153//153 380//380
f 153//153 381//381 157//157
f 153//153 174//174 380//380
f 153//153 157//157 174//174
f 154//154 127//127 123//123
f 123//123 175//175 154//154
f 155//155 154//154 175//175
f 155//155 127//127 154//154
f 382//382 153//153 372//372
f 157//157 381//381 162//162
f 157//157 162//162 158//158
f 158//158 162//162 160//160
f 158//158 160//160 176//176
f 125//125 159//159 132//132
f 155//155 160//160 159//159
f 132//132 159//159 160//160
f 97//97 161//161 383//383
f 381//381 384//384 162//162
f 128//128 162//162 384//384
f 160//160 162//162 128//128
f 160//160 128//128 132//132
f 183//183 138//138 184//184
f 184//184 138//138 164//164
f 257//257 163//163 185//185
f 185//185 163//163 138//138
f 257//257 186//186 163//163
f 163//163 140//140 138//138
f 165//165 146//146 288//288
f 186//186 142//142 140//140
f 186//186 188//188 144//144
f 144//144 188//188 187//187
f 288//288 146//146 167//167
f 191//191 166//166 190//190
f 144//144 187//187 166//166
f 167//167 147//147 168//168
f 167//167 168//168 192//192
f 192//192 168//168 171//171
f 175//175 148//148 169//169
f 169//169 195//195 175//175
f 149//149 170//170 168//168
f 168//168 147//147 149//149
f 168//168 173//173 171//171
f 171//171 196//196 193//193
f 168//168 170//170 173//173
f 170//170 172//172 173//173
f 172//172 174//174 173//173
f 173//173 174//174 158//158
f 173//173 196//196 171//171
f 155//155 175//175 176//176
f 174//174 157//157 158//158
f 173//173 158//158 196//196
f 158//158 176//176 196//196
f 155//155 176//176 160//160
f 202//202 201//201 211//211
f 210//210 202//202 211//211
f 179//179 216//216 177//177
f 178//178 180//180 177//177
f 177//177 180//180 179//179
f 180//180 182//182 179//179
f 182//182 225//225 179//179
f 178//178 181//181 180//180
f 178//178 208//208 181//181
f 180//180 181//181 182//182
f 181//181 208//208 220//220
f 181//181 219//219 182//182
f 182//182 222//222 225//225
f 182//182 219//219 222//222
f 185//185 138//138 386//386
f 238//238 165//165 258//258
f 184//184 385//385 165//165
f 258//258 165//165 288//288
f 187//187 239//239 190//190
f 288//288 167//167 192//192
f 171//171 189//189 192//192
f 239//239 171//171 190//190
f 187//187 190//190 166//166
f 387//387 171//171 193//193
f 191//191 387//387 193//193
f 166//166 191//191 195//195
f 191//191 193//193 194//194
f 195//195 191//191 194//194
f 195//195 194//194 197//197
f 166//166 195//195 169//169
f 193//193 196//196 194//194
f 194//194 196//196 197//197
f 195//195 197//197 175//175
f 197//197 176//176 175//175
f 176//176 197//197 196//196
f 199//199 201//201 204//204
f 198//198 199//199 204//204
f 240//240 200//200 199//199
f 199//199 198//198 240//240
f 198//198 177//177 241//241
f 198//198 178//178 177//177
f 204//204 201//201 202//202
f 202//202 210//210 203//203
f 203//203 210//210 209//209
f 204//204 202//202 198//198
f 209//209 198//198 203//203
f 198//198 202//202 203//203
f 201//201 205//205 211//211
f 205//205 214//214 211//211
f 206//206 205//205 201//201
f 205//205 212//212 214//214
f 199//199 200//200 206//206
f 201//201 199//199 206//206
f 205//205 206//206 207//207
f 205//205 207//207 212//212
f 200//200 207//207 206//206
f 207//207 244//244 212//212
f 246//246 216//216 217//217
f 178//178 198//198 209//209
f 216//216 241//241 177//177
f 246//246 241//241 216//216
f 209//209 208//208 178//178
f 208//208 209//209 210//210
f 210//210 223//223 208//208
f 213//213 210//210 211//211
f 211//211 214//214 213//213
f 210//210 213//213 223//223
f 224//224 234//234 214//214
f 212//212 215//215 214//214
f 214//214 215//215 224//224
f 179//179 217//217 216//216
f 217//217 179//179 225//225
f 218//218 217//217 225//225
f 226//226 218//218 225//225
f 217//217 218//218 248//248
f 223//223 220//220 208//208
f 223//223 221//221 220//220
f 219//219 181//181 220//220
f 220//220 221//221 219//219
f 222//222 219//219 221//221
f 221//221 223//223 222//222
f 222//222 227//227 225//225
f 223//223 227//227 222//222
f 223//223 229//229 227//227
f 223//223 213//213 234//234
f 214//214 234//234 213//213
f 223//223 234//234 229//229
f 226//226 225//225 253//253
f 253//253 249//249 226//226
f 225//225 227//227 228//228
f 227//227 232//232 228//228
f 227//227 229//229 232//232
f 228//228 232//232 233//233
f 253//253 225//225 228//228
f 228//228 233//233 253//253
f 229//229 230//230 232//232
f 229//229 234//234 230//230
f 234//234 236//236 230//230
f 230//230 231//231 232//232
f 230//230 236//236 231//231
f 232//232 235//235 233//233
f 235//235 255//255 233//233
f 237//237 231//231 236//236
f 235//235 232//232 231//231
f 235//235 231//231 237//237
f 237//237 258//258 235//235
f 236//236 183//183 184//184
f 236//236 184//184 237//237
f 234//234 185//185 236//236
f 236//236 185//185 386//386
f 224//224 185//185 234//234
f 184//184 238//238 237//237
f 238//238 258//258 237//237
f 238//238 184//184 165//165
f 224//224 257//257 185//185
f 186//186 257//257 188//188
f 257//257 286//286 188//188
f 286//286 187//187 188//188
f 187//187 260//260 239//239
f 239//239 189//189 171//171
f 198//198 261//261 240//240
f 198//198 241//241 243//243
f 263//263 198//198 243//243
f 269//269 263//263 243//243
f 242//242 269//269 243//243
f 200//200 240//240 265//265
f 266//266 200//200 265//265
f 245//245 200//200 267//267
f 267//267 200//200 266//266
f 242//242 243//243 241//241
f 242//242 241//241 246//246
f 268//268 242//242 246//246
f 268//268 246//246 247//247
f 269//269 242//242 268//268
f 244//244 207//207 245//245
f 245//245 207//207 200//200
f 244//244 245//245 215//215
f 246//246 217//217 248//248
f 247//247 246//246 248//248
f 250//250 247//247 248//248
f 273//273 268//268 247//247
f 250//250 273//273 247//247
f 215//215 212//212 244//244
f 250//250 272//272 273//273
f 250//250 218//218 226//226
f 249//249 250//250 226//226
f 250//250 248//248 218//218
f 253//253 252//252 249//249
f 252//252 250//250 249//249
f 254//254 252//252 253//253
f 250//250 251//251 272//272
f 252//252 251//251 250//250
f 283//283 224//224 215//215
f 233//233 255//255 253//253
f 283//283 257//257 224//224
f 235//235 258//258 255//255
f 258//258 288//288 255//255
f 283//283 256//256 257//257
f 283//283 284//284 256//256
f 259//259 189//189 260//260
f 260//260 189//189 239//239
f 259//259 288//288 192//192
f 259//259 192//192 189//189
f 289//289 261//261 264//264
f 291//291 240//240 261//261
f 291//291 261//261 289//289
f 265//265 240//240 262//262
f 262//262 240//240 292//292
f 292//292 297//297 262//262
f 298//298 262//262 297//297
f 240//240 291//291 292//292
f 261//261 198//198 263//263
f 264//264 261//261 263//263
f 263//263 269//269 264//264
f 300//300 264//264 269//269
f 262//262 266//266 265//265
f 266//266 262//262 298//298
f 266//266 298//298 301//301
f 267//267 302//302 271//271
f 267//267 266//266 301//301
f 301//301 392//392 267//267
f 245//245 267//267 271//271
f 245//245 270//270 275//275
f 275//275 270//270 306//306
f 245//245 271//271 270//270
f 271//271 306//306 270//270
f 308//308 268//268 273//273
f 273//273 274//274 308//308
f 273//273 272//272 274//274
f 272//272 279//279 274//274
f 275//275 215//215 245//245
f 215//215 275//275 283//283
f 313//313 283//283 275//275
f 251//251 277//277 272//272
f 277//277 251//251 276//276
f 276//276 251//251 252//252
f 252//252 254//254 276//276
f 278//278 277//277 388//388
f 254//254 282//282 388//388
f 279//279 272//272 277//277
f 279//279 277//277 278//278
f 278//278 388//388 280//280
f 388//388 282//282 280//280
f 278//278 280//280 281//281
f 278//278 281//281 389//389
f 281//281 280//280 316//316
f 282//282 316//316 280//280
f 282//282 315//315 316//316
f 284//284 283//283 313//313
f 315//315 282//282 254//254
f 254//254 253//253 255//255
f 254//254 255//255 315//315
f 288//288 285//285 255//255
f 315//315 255//255 285//285
f 320//320 287//287 321//321
f 284//284 286//286 256//256
f 256//256 286//286 257//257
f 321//321 286//286 284//284
f 285//285 288//288 259//259
f 286//286 321//321 287//287
f 286//286 287//287 187//187
f 320//320 260//260 287//287
f 287//287 260//260 187//187
f 320//320 259//259 260//260
f 289//289 293//293 291//291
f 289//289 290//290 293//293
f 289//289 264//264 300//300
f 290//290 295//295 293//293
f 290//290 322//322 295//295
f 289//289 300//300 290//290
f 295//295 322//322 296//296
f 291//291 293//293 292//292
f 293//293 294//294 292//292
f 294//294 390//390 292//292
f 295//295 294//294 293//293
f 295//295 296//296 294//294
f 390//390 294//294 296//296
f 296//296 299//299 390//390
f 299//299 296//296 323//323
f 325//325 299//299 323//323
f 391//391 390//390 299//299
f 303//303 391//391 299//299
f 325//325 303//303 299//299
f 305//305 300//300 269//269
f 326//326 301//301 393//393
f 301//301 298//298 393//393
f 302//302 307//307 271//271
f 392//392 301//301 326//326
f 302//302 398//398 307//307
f 304//304 268//268 308//308
f 269//269 268//268 304//304
f 305//305 269//269 304//304
f 304//304 308//308 327//327
f 304//304 327//327 305//305
f 308//308 332//332 327//327
f 394//394 271//271 307//307
f 310//310 306//306 395//395
f 313//313 306//306 310//310
f 331//331 310//310 395//395
f 395//395 399//399 331//331
f 332//332 308//308 274//274
f 332//332 329//329 327//327
f 309//309 332//332 274//274
f 311//311 332//332 309//309
f 332//332 311//311 336//336
f 306//306 313//313 275//275
f 396//396 314//314 313//313
f 331//331 314//314 396//396
f 281//281 311//311 389//389
f 309//309 274//274 389//389
f 311//311 309//309 389//389
f 312//312 311//311 281//281
f 312//312 336//336 311//311
f 336//336 312//312 337//337
f 281//281 316//316 312//312
f 316//316 317//317 312//312
f 312//312 317//317 337//337
f 313//313 321//321 284//284
f 313//313 314//314 321//321
f 285//285 318//318 315//315
f 315//315 318//318 316//316
f 318//318 317//317 316//316
f 285//285 319//319 318//318
f 319//319 285//285 320//320
f 318//318 337//337 317//317
f 337//337 318//318 319//319
f 314//314 397//397 320//320
f 314//314 320//320 321//321
f 285//285 259//259 320//320
f 322//322 323//323 296//296
f 322//322 341//341 323//323
f 300//300 305//305 324//324
f 305//305 328//328 324//324
f 300//300 324//324 290//290
f 324//324 322//322 290//290
f 322//322 324//324 330//330
f 330//330 341//341 322//322
f 341//341 340//340 323//323
f 340//340 325//325 323//323
f 331//331 303//303 325//325
f 325//325 340//340 343//343
f 303//303 331//331 399//399
f 328//328 305//305 327//327
f 328//328 327//327 329//329
f 328//328 338//338 330//330
f 328//328 330//330 324//324
f 338//338 328//328 329//329
f 331//331 325//325 343//343
f 344//344 331//331 343//343
f 332//332 336//336 333//333
f 333//333 329//329 332//332
f 333//333 336//336 335//335
f 329//329 333//333 345//345
f 333//333 335//335 346//346
f 335//335 344//344 346//346
f 335//335 334//334 344//344
f 346//346 345//345 333//333
f 346//346 344//344 342//342
f 331//331 344//344 314//314
f 314//314 344//344 334//334
f 334//334 335//335 337//337
f 337//337 335//335 336//336
f 397//397 314//314 337//337
f 334//334 337//337 314//314
f 329//329 345//345 338//338
f 339//339 345//345 342//342
f 330//330 339//339 341//341
f 339//339 330//330 338//338
f 345//345 339//339 338//338
f 340//340 341//341 342//342
f 339//339 342//342 341//341
f 340//340 342//342 343//343
f 342//342 344//344 343//343
f 345//345 346//346 342//342
