# Wavafront OBJ file of BodyParts3D
# BodyParts3D, Copyright(C) 2010-2011 The Database Center for Life Science licensed under CC Attribution-Share Alike 2.1 Japan.
vn -0.806442 -0.254438 0.533771
v 232.609 -128.698 810.34
vn -0.883043 0.26421 0.38785
v 231.575 -125.814 809.075
vn -0.914251 -0.103204 0.391783
v 231.771 -126.418 809.549
vn -0.756607 0.113145 0.644006
v 232.22 -126.248 810.209
vn -0.666361 0.405762 0.625556
v 232.422 -125.531 810.135
vn -0.665025 0.590921 0.456676
v 232.418 -124.311 809.086
vn -0.807887 -0.539334 0.237565
v 232.828 -131.373 807.663
vn -0.911926 -0.356555 0.203124
v 232.107 -129.977 807.765
vn -0.985877 -0.10136 0.133316
v 231.151 -126.191 807.383
vn -0.911394 0.411175 -0.0172255
v 231.315 -124.874 806.746
vn -0.785434 0.591224 0.183163
v 231.841 -124.266 807.671
vn -0.613949 0.763698 -0.199581
v 231.784 -124.334 806.614
vn -0.271609 0.886693 -0.374171
v 232.113 -124.333 806.242
vn -0.920394 -0.388052 -0.0478578
v 232.194 -130.598 804.67
vn -0.948149 -0.317433 0.015816
v 231.248 -127.773 804.844
vn -0.915113 -0.365067 -0.171157
v 231.742 -128.979 803.998
vn -0.650225 0.677689 -0.34343
v 231.727 -125.447 804.343
vn -0.987861 0.0867367 -0.128869
v 231.122 -127.372 803.336
vn -0.885447 -0.460924 -0.0594359
v 231.532 -128.42 803.534
vn -0.923862 -0.366483 -0.110314
v 231.477 -128.384 801.74
vn -0.815228 -0.462692 -0.34831
v 231.855 -128.841 801.103
vn -0.796169 0.279944 -0.53642
v 231.687 -127.808 800.897
vn -0.404691 -0.447644 0.797396
v 233.735 -129.514 811.174
vn 0.0462946 0.0447575 0.997925
v 234.46 -128.264 811.748
vn -0.442073 0.398561 0.803567
v 232.816 -125.766 810.584
vn -0.51809 0.0545474 0.853585
v 233.32 -127.365 811.333
vn -0.117141 0.407868 0.905495
v 233.909 -125.942 811.052
vn -0.3809 0.606605 0.697814
v 233.034 -124.474 809.805
vn -0.442564 0.709497 0.548408
v 233.595 -123.254 808.815
vn -0.107854 0.647493 0.7544
v 234.091 -124.347 810.011
vn 0.225259 0.955264 -0.191648
v 233.949 -123.296 808.808
vn 0.15179 0.87361 0.462348
v 234.333 -123.412 809.231
vn 0.152766 0.725332 0.671234
v 234.714 -123.71 809.377
vn 0.295356 0.900152 0.320143
v 234.693 -123.567 809.189
vn -0.00192233 0.925215 0.37944
v 235.062 -123.689 809.344
vn 0.259633 0.946168 -0.193281
v 235.032 -123.684 808.84
vn -0.725578 -0.536711 0.430671
v 233.072 -131.143 808.678
vn -0.589909 -0.709352 0.385781
v 233.815 -132.711 807.538
vn -0.399695 -0.673454 0.621855
v 234.572 -131.843 809.472
vn -0.233641 -0.816263 0.528325
v 235.658 -133.063 808.602
vn -0.471286 0.881542 -0.027802
v 232.513 -123.646 807.871
vn 0.0512216 0.925483 -0.37531
v 233.218 -123.442 808.155
vn -0.803335 -0.59182 0.0663475
v 233.369 -132.811 805.79
vn -0.621704 -0.758216 0.196451
v 233.781 -133.063 806.539
vn -0.564338 -0.824365 0.0441162
v 233.746 -133.144 805.842
vn -0.392639 -0.867468 0.305507
v 234.162 -133.191 806.906
vn -0.314189 -0.945387 0.0867697
v 235.207 -133.888 805.931
vn -0.0370399 0.935236 -0.352081
v 232.398 -125.328 803.93
vn -0.638624 -0.755556 -0.14593
v 233.652 -133.019 804.389
vn -0.264592 -0.944587 -0.194286
v 235.432 -133.876 803.772
vn -0.355014 -0.817464 -0.453561
v 235.314 -133.314 802.409
vn -0.825822 -0.549853 -0.125217
v 232.603 -129.965 802.017
vn -0.741318 -0.544883 -0.391855
v 233.269 -131.974 802.76
vn -0.840679 -0.456555 -0.291233
v 233.117 -131.023 802.212
vn -0.615642 -0.582712 -0.530501
v 233.737 -131.444 801.654
vn -0.327873 0.795607 -0.50942
v 232.364 -125.689 802.933
vn -0.092198 0.604044 -0.7916
v 233.393 -126.439 801.612
vn -0.0284881 0.83593 -0.548096
v 234.081 -126.023 801.853
vn -0.701179 -0.575474 -0.420925
v 232.891 -129.969 800.932
vn -0.123017 -0.31939 -0.939605
v 234.621 -130.249 800.133
vn -0.701793 -0.447746 -0.554085
v 232.404 -128.628 800.171
vn -0.117042 0.582272 -0.804525
v 232.713 -127.748 800.481
vn -0.410704 -0.497962 -0.763777
v 233.182 -129.613 800.306
vn 0.241083 0.4024 -0.88315
v 233.815 -128.926 799.913
vn 0.110649 -0.625336 0.772471
v 236.711 -131.773 810.078
vn -0.0242898 -0.441725 0.896821
v 237.012 -130.396 810.828
vn 0.657149 -0.31599 0.684329
v 238.042 -130.894 809.837
vn 0.634438 0.119017 0.763756
v 237.582 -128.593 810.66
vn 0.744022 0.353956 0.566697
v 237.29 -125.254 809.576
vn 0.0262961 0.935722 0.351757
v 235.422 -123.664 809.534
vn 0.364286 0.550594 0.751094
v 236.185 -124.168 809.962
vn 0.230834 0.808722 0.541003
v 236.141 -123.877 809.547
vn 0.174334 -0.816585 0.55027
v 236.719 -132.916 808.883
vn 0.576874 -0.607073 0.546514
v 237.741 -132.287 809.065
vn 0.455818 -0.846551 0.274921
v 237.716 -133.282 807.483
vn 0.769561 0.592748 0.237539
v 238.124 -125.436 808.35
vn 0.000883996 -0.95689 0.290449
v 236.329 -133.726 807.278
vn 0.0291401 -0.916835 -0.398201
v 236.079 -133.719 802.995
vn 0.240858 -0.968303 -0.0661594
v 236.514 -133.991 804.105
vn 0.437637 -0.811266 -0.387713
v 237.447 -133.303 802.849
vn 0.499713 -0.483115 -0.718949
v 237.942 -131.864 801.457
vn 0.556079 0.0411769 -0.830109
v 237.912 -131.195 801.234
vn 0.231891 0.352028 -0.906809
v 235.212 -127.878 800.993
vn 0.492196 0.264363 -0.82937
v 236.234 -129.23 800.989
vn 0.287737 0.381419 -0.87848
v 236.204 -126.649 801.36
vn 0.438314 0.117494 -0.891109
v 236.365 -127.706 801.384
vn 0.610972 0.083866 -0.787197
v 237.042 -128.29 801.774
vn 0.23973 0.86849 -0.433884
v 237.28 -126.052 802.433
vn 0.679402 0.596295 -0.427605
v 237.647 -126.268 802.461
vn -0.387153 -0.669669 -0.633764
v 235.536 -132.471 801.183
vn 0.000881582 -0.793075 -0.609123
v 235.916 -132.721 801.366
vn 0.224382 -0.683696 -0.694415
v 236.231 -132.435 801.083
vn -0.0774227 -0.54718 -0.833426
v 235.845 -132.162 800.815
vn 0.256545 -0.459988 -0.850056
v 236.293 -132.116 800.867
vn 0.195933 -0.283578 -0.938719
v 236.076 -130.81 800.324
vn 0.847067 -0.304539 0.435585
v 238.973 -130.675 808.678
vn 0.861685 0.015026 0.507222
v 238.85 -129.512 809.159
vn 0.984938 -0.0422413 0.167668
v 239.477 -130.162 807.477
vn 0.899619 0.251805 0.356763
v 238.867 -126.9 807.904
vn 0.917035 0.383894 -0.108037
v 238.873 -126.216 805.974
vn 0.789139 -0.604314 0.109841
v 238.768 -132.482 806.914
vn 0.461451 0.860332 -0.216544
v 238.106 -125.54 805.153
vn 0.75939 -0.574243 -0.305894
v 238.694 -131.947 802.514
vn 0.714581 0.245673 -0.654996
v 238.586 -130.649 801.893
vn 0.789878 -0.184961 -0.584707
v 238.788 -131.323 802.023
vn 0.969022 -0.0687989 -0.237199
v 239.409 -131.002 803.36
vn 0.792353 0.225051 -0.567036
v 238.612 -128.236 803.183
vn 0.00139705 0.994048 -0.10893
v 233.595 -123.254 808.815
vn -0.229989 0.394864 -0.889487
v 232.404 -128.628 800.171
vn -0.234222 -0.311529 -0.920918
v 232.404 -128.628 800.171
vn -0.132832 -0.246211 -0.960071
v 233.815 -128.926 799.913
vn 0.498103 -0.225317 0.837332
v 237.012 -130.396 810.828
vn 0.499082 0.866329 -0.0197729
v 236.141 -123.877 809.547
vn 0.627479 0.0758871 -0.774927
v 237.647 -126.268 802.461
vn 0.445973 0.308477 -0.840208
v 236.076 -130.81 800.324
f 4//4 3//3 1//1
f 4//4 1//1 26//26
f 3//3 2//2 9//9
f 3//3 4//4 2//2
f 5//5 2//2 4//4
f 2//2 5//5 6//6
f 4//4 26//26 25//25
f 25//25 5//5 4//4
f 10//10 2//2 11//11
f 2//2 6//6 11//11
f 6//6 41//41 11//11
f 8//8 7//7 37//37
f 1//1 3//3 8//8
f 3//3 9//9 8//8
f 1//1 8//8 37//37
f 8//8 9//9 14//14
f 9//9 15//15 14//14
f 37//37 23//23 1//1
f 2//2 10//10 9//9
f 9//9 10//10 18//18
f 10//10 17//17 18//18
f 11//11 12//12 10//10
f 10//10 12//12 17//17
f 11//11 41//41 12//12
f 13//13 12//12 41//41
f 17//17 12//12 13//13
f 13//13 42//42 48//48
f 42//42 13//13 41//41
f 15//15 16//16 14//14
f 14//14 16//16 53//53
f 15//15 9//9 18//18
f 18//18 20//20 15//15
f 15//15 20//20 19//19
f 18//18 22//22 20//20
f 19//19 16//16 15//15
f 18//18 17//17 22//22
f 17//17 13//13 48//48
f 17//17 56//56 22//22
f 56//56 17//17 48//48
f 19//19 54//54 16//16
f 19//19 52//52 54//54
f 19//19 20//20 52//52
f 52//52 20//20 21//21
f 20//20 22//22 21//21
f 56//56 62//62 22//22
f 59//59 52//52 21//21
f 57//57 62//62 56//56
f 61//61 59//59 21//21
f 61//61 21//21 22//22
f 62//62 109//109 22//22
f 23//23 26//26 1//1
f 37//37 39//39 23//23
f 65//65 23//23 39//39
f 23//23 24//24 26//26
f 66//66 24//24 23//23
f 65//65 66//66 23//23
f 24//24 112//112 68//68
f 27//27 25//25 26//26
f 24//24 27//27 26//26
f 30//30 25//25 27//27
f 71//71 27//27 24//24
f 71//71 24//24 68//68
f 69//69 71//71 68//68
f 30//30 28//28 25//25
f 28//28 5//5 25//25
f 6//6 5//5 28//28
f 6//6 28//28 29//29
f 29//29 41//41 6//6
f 42//42 41//41 108//108
f 28//28 30//30 32//32
f 32//32 29//29 28//28
f 108//108 32//32 31//31
f 31//31 42//42 108//108
f 31//31 36//36 42//42
f 32//32 36//36 31//31
f 30//30 27//27 71//71
f 30//30 33//33 32//32
f 34//34 32//32 33//33
f 36//36 32//32 34//34
f 30//30 35//35 33//33
f 33//33 35//35 34//34
f 70//70 30//30 71//71
f 70//70 35//35 30//30
f 35//35 70//70 36//36
f 34//34 35//35 36//36
f 38//38 37//37 7//7
f 46//46 38//38 44//44
f 38//38 7//7 44//44
f 39//39 37//37 38//38
f 39//39 38//38 40//40
f 40//40 38//38 46//46
f 73//73 40//40 77//77
f 48//48 42//42 36//36
f 43//43 7//7 8//8
f 8//8 14//14 43//43
f 14//14 49//49 43//43
f 44//44 43//43 45//45
f 7//7 43//43 44//44
f 49//49 45//45 43//43
f 46//46 44//44 47//47
f 47//47 44//44 45//45
f 45//45 49//49 47//47
f 47//47 77//77 46//46
f 77//77 40//40 46//46
f 88//88 58//58 48//48
f 14//14 53//53 49//49
f 50//50 49//49 51//51
f 51//51 49//49 53//53
f 49//49 50//50 47//47
f 90//90 51//51 53//53
f 90//90 53//53 55//55
f 47//47 50//50 79//79
f 79//79 50//50 78//78
f 51//51 78//78 50//50
f 90//90 91//91 51//51
f 54//54 53//53 16//16
f 55//55 53//53 54//54
f 59//59 54//54 52//52
f 59//59 55//55 54//54
f 63//63 55//55 59//59
f 57//57 58//58 85//85
f 57//57 85//85 83//83
f 57//57 83//83 62//62
f 83//83 64//64 62//62
f 64//64 83//83 84//84
f 58//58 57//57 56//56
f 58//58 56//56 48//48
f 60//60 63//63 111//111
f 63//63 90//90 55//55
f 63//63 59//59 61//61
f 63//63 110//110 111//111
f 62//62 64//64 109//109
f 40//40 65//65 39//39
f 65//65 67//67 112//112
f 97//97 67//67 96//96
f 68//68 112//112 67//67
f 99//99 69//69 68//68
f 68//68 67//67 97//97
f 76//76 71//71 69//69
f 76//76 69//69 99//99
f 48//48 36//36 102//102
f 70//70 71//71 72//72
f 113//113 102//102 36//36
f 113//113 36//36 70//70
f 76//76 113//113 71//71
f 113//113 76//76 102//102
f 40//40 73//73 65//65
f 74//74 65//65 73//73
f 73//73 77//77 75//75
f 65//65 74//74 67//67
f 75//75 74//74 73//73
f 74//74 96//96 67//67
f 74//74 101//101 96//96
f 75//75 101//101 74//74
f 77//77 47//47 79//79
f 77//77 79//79 75//75
f 101//101 75//75 79//79
f 102//102 88//88 48//48
f 89//89 102//102 100//100
f 102//102 89//89 88//88
f 51//51 91//91 78//78
f 80//80 79//79 78//78
f 80//80 78//78 91//91
f 92//92 80//80 91//91
f 80//80 101//101 79//79
f 94//94 81//81 92//92
f 80//80 92//92 81//81
f 80//80 81//81 103//103
f 81//81 95//95 82//82
f 115//115 84//84 82//82
f 83//83 86//86 84//84
f 83//83 85//85 86//86
f 86//86 85//85 87//87
f 107//107 84//84 87//87
f 86//86 87//87 84//84
f 89//89 85//85 88//88
f 87//87 85//85 114//114
f 114//114 107//107 87//87
f 85//85 58//58 88//88
f 93//93 91//91 90//90
f 91//91 93//93 92//92
f 94//94 92//92 93//93
f 94//94 93//93 95//95
f 90//90 63//63 93//93
f 93//93 63//63 60//60
f 95//95 60//60 111//111
f 93//93 60//60 95//95
f 94//94 95//95 81//81
f 64//64 84//84 115//115
f 101//101 98//98 96//96
f 97//97 99//99 68//68
f 97//97 96//96 98//98
f 98//98 99//99 97//97
f 76//76 99//99 100//100
f 76//76 100//100 102//102
f 99//99 98//98 100//100
f 106//106 98//98 101//101
f 98//98 106//106 100//100
f 100//100 106//106 107//107
f 80//80 103//103 101//101
f 106//106 101//101 103//103
f 104//104 84//84 107//107
f 82//82 84//84 104//104
f 81//81 105//105 103//103
f 82//82 105//105 81//81
f 106//106 104//104 107//107
f 105//105 82//82 104//104
f 106//106 103//103 105//105
f 106//106 105//105 104//104
f 89//89 100//100 107//107
