# Wavafront OBJ file of BodyParts3D
# BodyParts3D, Copyright(C) 2010-2011 The Database Center for Life Science licensed under CC Attribution-Share Alike 2.1 Japan.
vn -0.84663 -0.298223 0.440772
v -309.876 -143.777 781.91
vn -0.856958 0.434152 0.277731
v -310.32 -142.601 781.258
vn -0.75337 0.253768 0.606659
v -309.981 -142.358 781.853
vn -0.890959 -0.41685 0.180079
v -309.921 -144.752 779.674
vn -0.641769 0.267313 0.718802
v -307.988 -141.536 783.084
vn -0.664795 0.510763 0.545131
v -307.782 -140.462 782.718
vn -0.639387 -0.113735 0.760427
v -309.337 -143.845 782.522
vn -0.507828 -0.752289 0.419729
v -307.966 -146.764 781.423
vn -0.466555 -0.874927 0.129726
v -307.468 -146.945 780.306
vn -0.980144 -0.189946 -0.0569077
v -310.014 -144.629 778.854
vn -0.418257 -0.572663 0.705066
v -309.286 -146.437 778.998
vn -0.672989 -0.69871 0.242671
v -308.698 -146.149 780.265
vn -0.984062 -0.0317644 -0.174965
v -310.047 -143.021 778.07
vn -0.951193 0.0577384 -0.303148
v -309.856 -139.434 777.658
vn -0.768711 0.597911 0.227126
v -309.455 -138.908 778.155
vn -0.916488 -0.363119 -0.16791
v -309.759 -145.418 778.399
vn -0.746572 -0.627065 -0.222307
v -308.664 -147.168 777.666
vn -0.726333 -0.398004 -0.560387
v -308.358 -146.652 776.584
vn -0.924969 -0.192133 -0.327899
v -309.846 -144.512 777.77
vn -0.924127 -0.0315432 -0.380781
v -309.783 -142.277 777.069
vn -0.808124 -0.184264 -0.559449
v -309.514 -143.939 776.879
vn -0.722806 0.261072 0.639838
v -305.737 -139.811 784.721
vn -0.64229 0.717691 0.269042
v -305.781 -137.416 781.437
vn -0.315335 -0.645688 0.69545
v -304.464 -149.224 779.055
vn -0.178068 -0.794148 0.581052
v -303.692 -148.464 780.509
vn -0.317514 -0.87717 0.360218
v -303.939 -148.6 780.229
vn -0.32178 -0.669159 0.669839
v -304.052 -149.497 779.071
vn -0.300581 -0.719446 0.626138
v -303.664 -149.034 779.59
vn -0.398674 -0.796232 0.455053
v -305.981 -147.705 779.929
vn -0.486348 -0.846203 -0.217729
v -305.87 -149.625 777.232
vn -0.257112 -0.950975 0.171869
v -305.018 -149.966 777.559
vn -0.309778 -0.71217 0.629962
v -304.468 -149.525 778.785
vn -0.281682 -0.830679 0.480236
v -304.498 -149.721 778.487
vn -0.146551 -0.926196 -0.347394
v -304.127 -150.027 776.702
vn -0.398561 -0.783599 0.476572
v -306.386 -149.052 778.595
vn -0.516293 -0.603665 -0.607479
v -305.859 -149.026 776.318
vn -0.304363 -0.737922 -0.602358
v -305.017 -149.548 776.319
vn -0.267544 -0.517977 -0.812478
v -304.896 -148.932 775.779
vn -0.439534 -0.454077 -0.774999
v -307.073 -146.934 775.707
vn -0.821508 -0.0185338 -0.569896
v -308.626 -140.597 774.904
vn -0.865148 0.392008 -0.312806
v -308.739 -138.236 775.647
vn -0.762582 0.64438 -0.0569448
v -308.171 -137.331 775.637
vn -0.508182 -0.272391 0.81704
v -301.265 -142.547 787.728
vn -0.174362 -0.737433 0.652526
v -303.005 -146.492 783.057
vn -0.0385893 -0.695115 0.717862
v -303.254 -148.981 779.869
vn -0.19203 -0.844716 0.499579
v -303.284 -149.814 779.041
vn -0.13301 -0.714083 0.687309
v -302.896 -149.673 779.296
vn 0.0245949 -0.881862 0.470866
v -302.569 -149.923 778.955
vn 0.263114 -0.449222 0.853798
v -302.209 -148.712 779.975
vn 0.228198 -0.913752 0.33613
v -301.885 -149.9 778.834
vn 0.222314 -0.690635 0.688186
v -301.482 -149.503 779.371
vn 0.608816 -0.735977 0.296111
v -301.195 -149.587 778.986
vn 0.623328 -0.323767 0.711784
v -300.881 -148.777 779.47
vn 0.848762 -0.358389 0.388793
v -300.628 -148.835 779.022
vn 0.461216 -0.557587 0.690201
v -302.275 -147.49 780.699
vn 0.539225 -0.332381 0.773796
v -301.662 -147.5 780.237
vn 0.826992 -0.145044 0.543183
v -301.083 -147.273 779.823
vn -0.446099 0.849605 0.281367
v -305.802 -135.569 776.515
vn -0.564884 0.814597 0.131676
v -306.666 -135.645 775.229
vn -0.0239529 -0.999498 -0.020712
v -303.584 -150.193 777.39
vn -0.0838422 -0.955354 0.28332
v -302.969 -150.014 778.686
vn -0.0377301 -0.717536 -0.695499
v -303.631 -149.642 776.049
vn 0.103788 -0.978762 0.176783
v -302.275 -150.037 778.577
vn 0.210446 -0.974034 -0.0834867
v -302.489 -150.125 777.55
vn 0.165175 -0.903503 -0.395475
v -302.674 -150.013 776.819
vn 0.255543 -0.614439 -0.746433
v -302.953 -149.483 776.018
vn 0.411994 -0.911154 0.00768293
v -301.621 -149.893 778.424
vn 0.505704 -0.764158 -0.400406
v -301.953 -149.825 777.004
vn -0.0221464 -0.487355 -0.872923
v -303.825 -149.062 775.669
vn -0.736275 0.636489 -0.229741
v -306.823 -135.818 774.945
vn -0.789432 0.314873 -0.526928
v -306.904 -137.42 772.909
vn 0.268372 0.750801 -0.603551
v -304.728 -135.808 773.139
vn -0.27606 0.921463 -0.273307
v -305.996 -135.302 774.284
vn -0.657257 0.627963 -0.416745
v -306.149 -135.953 773.057
vn -0.629443 0.363867 -0.686588
v -305.582 -136.095 772.279
vn 0.212487 0.833752 -0.509615
v -305.185 -135.999 772.538
vn 0.262754 -0.546062 -0.795473
v -302.685 -146.873 774.61
vn -0.22685 -0.482075 -0.846252
v -305.026 -146.041 774.426
vn -0.0618978 -0.537659 -0.840887
v -303.118 -146.658 774.451
vn -0.0625807 -0.581316 -0.811268
v -303.195 -145.468 773.512
vn -0.487929 -0.342656 -0.802815
v -305.744 -142.373 772.427
vn -0.442863 -0.147111 -0.884438
v -304.453 -139.89 770.965
vn -0.676365 -0.0452408 -0.735176
v -306.522 -138.553 772.414
vn -0.644172 0.175418 -0.744494
v -306.393 -137.453 772.314
vn -0.675237 0.730857 0.0995177
v -300.961 -132.944 784.349
vn 0.758397 -0.450023 0.471502
v -300.856 -145.627 780.614
vn 0.784024 -0.581469 0.217255
v -300.248 -144.346 781.208
vn 0.918634 -0.384069 -0.0927522
v -300.295 -144.524 779.817
vn -0.519605 0.854245 0.0166292
v -302.669 -134.232 778.852
vn -0.200105 0.94677 -0.252161
v -301.554 -133.803 777.806
vn 0.907809 0.0136222 0.419163
v -300.542 -148.054 779.13
vn 0.849259 -0.505338 0.152947
v -300.547 -148.909 778.668
vn 0.99368 -0.0986536 0.0535491
v -300.385 -148.542 778.528
vn 0.988357 0.130445 0.0783254
v -300.694 -147.071 778.852
vn 0.972062 -0.233286 0.0259297
v -300.508 -145.328 779.737
vn 0.948367 -0.313424 -0.048636
v -300.863 -144.585 777.386
vn 0.861506 -0.498085 -0.0985828
v -299.9 -142.629 776.985
vn -0.410317 0.910702 0.0475523
v -303.705 -134.739 777
vn -0.366737 0.906558 -0.208943
v -303.203 -134.619 776.152
vn -0.0418594 0.914597 -0.402194
v -302.653 -134.691 775.356
vn 0.24177 0.818578 -0.521036
v -302.409 -135.096 774.713
vn 0.157789 0.880195 -0.447616
v -301.825 -134.298 776.187
vn -0.276222 0.93454 -0.224357
v -302.53 -134.235 776.285
vn 0.773519 -0.617897 -0.14097
v -300.671 -149.112 778.025
vn 0.959988 0.222629 -0.169883
v -300.611 -147.842 777.259
vn 0.920343 -0.194526 -0.339307
v -300.585 -148.264 777.022
vn 0.938011 -0.321238 0.130158
v -301.192 -146.107 776.093
vn 0.927616 0.143537 -0.344856
v -301.11 -147.193 776.051
vn 0.979171 0.0452624 -0.197926
v -301.295 -146.554 775.884
vn 0.496369 -0.502094 -0.70818
v -301.105 -147.997 775.935
vn 0.451105 -0.474132 -0.75611
v -301.489 -146.762 775.254
vn 0.902082 -0.297346 0.312784
v -300.134 -143.369 775.798
vn 0.851127 -0.475029 0.223451
v -299.748 -142.196 775.735
vn 0.356644 0.68407 -0.63628
v -302.345 -138.045 772.341
vn 0.422343 0.659916 -0.621399
v -302.06 -135.893 773.811
vn -0.008164 0.914302 -0.40495
v -303.565 -135.063 774.168
vn 0.330111 -0.685215 -0.649236
v -301.019 -144.336 773.004
vn -0.226597 -0.289811 -0.929873
v -303.34 -140.413 770.708
vn -0.0730511 0.035571 -0.996694
v -303.159 -139.687 770.528
vn -0.118848 -0.42766 -0.896093
v -302.353 -141.561 770.966
vn 0.0545128 -0.146079 -0.98777
v -301.931 -140.466 770.575
vn 0.216541 0.224231 -0.950174
v -301.677 -140.016 770.658
vn -0.272648 0.241365 -0.931346
v -304.392 -138.445 770.85
vn 0.444257 0.759817 -0.474673
v -303.725 -137.679 771.732
vn 0.323463 0.69067 -0.646798
v -304.053 -137.665 771.418
vn 0.208981 0.47746 -0.853439
v -302.921 -138.697 770.821
vn -0.54756 -0.306912 0.77845
v -296.911 -134.611 794.637
vn 0.749469 -0.659672 -0.0559357
v -297.85 -141.23 784.935
vn -0.508643 0.850739 -0.132382
v -299.888 -132.228 781.768
vn 0.84887 -0.498747 -0.175132
v -297.071 -139.426 779.522
vn 0.904862 -0.399115 -0.148096
v -297.387 -139.507 778.146
vn 0.96427 -0.139849 -0.225
v -297.333 -138.912 777.59
vn 0.265855 0.802739 -0.533789
v -300.774 -133.981 777.368
vn 0.713621 0.390237 -0.581774
v -298.003 -135.304 778.049
vn 0.704732 -0.709096 0.0231566
v -299.297 -141.618 776.572
vn 0.788744 -0.614717 0.00233973
v -298.171 -140.721 777.561
vn 0.956562 -0.279816 0.0818015
v -297.65 -139.915 776.862
vn 0.547081 -0.813425 0.197591
v -297.844 -140.846 775.728
vn 0.999508 0.0137571 -0.0282036
v -297.505 -139.214 776.621
vn 0.9728 0.151057 0.175617
v -297.433 -139.38 775.934
vn 0.50554 0.79271 -0.340648
v -298.521 -138.429 774.731
vn 0.944024 0.184893 -0.273192
v -297.58 -138.464 776.766
vn 0.959289 0.278058 -0.0494825
v -297.536 -138.972 776.188
vn 0.80861 0.506523 -0.299306
v -297.845 -138.356 776.049
vn 0.91342 0.405043 0.0400475
v -297.508 -139.057 775.846
vn 0.703838 0.709667 -0.0313804
v -297.641 -138.835 775.436
vn 0.821498 -0.428548 0.376147
v -299.451 -143.222 774.548
vn 0.765297 -0.379716 0.519747
v -298.92 -142.904 773.998
vn 0.715017 -0.6702 0.198953
v -299.025 -143.114 773.353
vn 0.430106 -0.719505 0.545272
v -298.155 -142.254 774.76
vn 0.557327 -0.761063 0.331919
v -297.919 -142.453 774.055
vn 0.719234 -0.466246 0.51509
v -297.525 -141.382 775.113
vn 0.473677 0.629556 -0.615865
v -300.327 -137.65 773.701
vn 0.281591 0.8555 -0.434542
v -299.596 -138.773 772.835
vn 0.458209 0.473537 -0.752201
v -298.204 -139.501 772.101
vn 0.170526 -0.459059 -0.871886
v -299.728 -141.945 771.198
vn 0.30517 -0.0721894 -0.949558
v -299.185 -141.096 771.141
vn 0.506674 -0.529523 -0.680358
v -298.563 -141.903 771.644
vn 0.68887 -0.621807 -0.372578
v -298.006 -141.981 772.47
vn 0.774247 -0.260648 -0.576719
v -297.97 -141.323 771.898
vn 0.559878 -0.00478648 -0.828561
v -298.32 -141.141 771.536
vn 0.313616 0.775115 -0.54849
v -300.92 -139.191 771.367
vn 0.300157 0.472917 -0.828405
v -300.917 -139.519 771.105
vn 0.369497 0.252554 -0.894253
v -298.88 -140.61 771.309
vn -0.588187 -0.315796 0.744519
v -291.27 -131.578 799.396
vn -0.193936 -0.69362 0.693743
v -293.747 -136.496 794.422
vn 0.728334 -0.613853 -0.304489
v -293.027 -136.974 786.088
vn 0.828977 -0.0232092 -0.558801
v -294.705 -135.882 782.396
vn 0.691761 0.180575 -0.699185
v -295.183 -133.094 782.341
vn -0.156024 0.878689 -0.451178
v -296.36 -130.655 782.875
vn 0.829291 -0.440025 -0.344462
v -295.811 -138.224 781.486
vn 0.893732 0.0295959 -0.447623
v -296.405 -137.008 779.755
vn 0.904815 -0.272722 -0.327007
v -296.547 -138.473 779.868
vn 0.890105 -0.134154 0.435564
v -297.336 -139.785 775.694
vn 0.883168 0.227404 0.410245
v -297.312 -139.447 775.571
vn 0.919669 -0.0322673 0.391368
v -297.06 -139.827 775.283
vn 0.896032 0.324769 0.30274
v -297.078 -139.493 775.182
vn 0.983603 0.151677 0.0975621
v -297.003 -139.569 774.83
vn 0.849858 0.471748 0.234936
v -297.418 -139.13 775.49
vn 0.791408 0.611177 0.0116694
v -297.114 -139.253 774.751
vn 0.949469 -0.310169 -0.04799
v -296.952 -141.268 773.892
vn 0.703429 0.128644 -0.699026
v -297.635 -140.417 772.245
vn 0.960667 0.255224 -0.109453
v -296.9 -139.909 773.464
vn 0.880158 0.100644 -0.463888
v -296.959 -140.01 773.141
vn 0.40272 0.902773 -0.151055
v -297.915 -138.726 773.995
vn 0.756231 0.557206 -0.342982
v -297.319 -139.403 773.014
vn 0.439754 0.806985 -0.394197
v -297.725 -139.059 772.975
vn 0.658295 0.419969 -0.624719
v -297.476 -139.523 772.713
vn -0.845893 -0.0288563 0.532572
v -287.693 -130.662 803.607
vn -0.799856 0.310837 0.513431
v -288.699 -125.901 801.865
vn -0.791681 0.0123491 0.610809
v -288.58 -131.278 802.127
vn -0.225848 -0.865826 0.446472
v -288.033 -132.47 800.95
vn -0.251537 -0.740002 0.623799
v -288.927 -133.229 799.516
vn 0.521268 -0.853235 -0.0164405
v -289.196 -134.961 792.098
vn 0.780716 -0.210397 -0.5884
v -292.067 -134.737 785.601
vn -0.588466 -0.101696 0.802101
v -286.094 -131.173 805.679
vn -0.756192 0.0882575 0.64837
v -286.636 -126.958 805.558
vn -0.546028 0.14653 0.824853
v -285.818 -126.596 806.159
vn -0.674742 0.460863 0.576479
v -285.89 -125.29 805.646
vn -0.200355 -0.938266 0.281984
v -286.163 -131.912 803.374
vn -0.515502 -0.734549 0.441243
v -286.881 -131.476 803.722
vn 0.11996 -0.979274 0.163194
v -284.919 -132.525 800.448
vn 0.672217 -0.572781 -0.469091
v -287.388 -132.95 790.685
vn 0.705617 -0.120247 -0.698316
v -287.615 -132.431 790.106
vn -0.328116 0.0420075 0.943703
v -283.542 -127.47 807.61
vn -0.10038 -0.0370002 0.994261
v -282.782 -127.628 807.681
vn 0.505626 8.48885e-005 0.862753
v -281.84 -125.257 807.485
vn -0.418777 0.470068 0.776957
v -283.883 -123.559 806.171
vn -0.101688 -0.770673 0.629065
v -283.106 -130.391 807.12
vn -0.588955 0.707198 0.391156
v -283.349 -121.106 803.93
vn -0.660062 0.718384 0.219643
v -286.395 -122.614 800.541
vn 0.55206 -0.717799 -0.424257
v -283.46 -132.051 794.605
vn 0.493521 0.497189 -0.71361
v -285.936 -124.577 791.983
vn 0.577124 0.144636 -0.803746
v -285.7 -125.281 791.865
vn -0.327073 0.900074 -0.287905
v -288.072 -123.467 792.36
vn 0.128821 0.804855 -0.579321
v -286.53 -122.856 793.368
vn 0.605883 -0.300106 -0.736778
v -285.535 -131.789 791.947
vn 0.484774 0.461866 -0.742748
v -287.018 -124.802 790.779
vn -0.158759 0.780357 0.604846
v -282.678 -120.859 804.233
vn -0.00249656 -0.994014 0.109224
v -279.232 -132.642 804.988
vn 0.379884 -0.197117 0.903788
v -278.273 -131.962 805.053
vn 0.483048 -0.00859952 0.875552
v -279.65 -129.58 805.678
vn -0.326216 0.944941 0.0258787
v -282.395 -119.846 801.564
vn 0.25162 -0.967824 0.00187038
v -282.096 -131.799 796.118
vn 0.353611 0.321383 -0.878449
v -283.029 -123.702 793.935
vn 0.729416 0.0837132 0.678929
v -278.492 -124.617 805.423
vn 0.420204 0.584522 0.694091
v -278.133 -121.838 804.562
vn 0.431574 -0.27613 0.858776
v -277.582 -132.349 804.623
vn 0.937939 0.134351 0.31972
v -277.207 -124.272 802.793
vn 0.210827 0.949497 0.232397
v -279.779 -119.719 802.18
vn 0.349138 0.819546 0.454365
v -278.606 -120.835 803.291
vn 0.130182 -0.953612 -0.271434
v -276.327 -132.052 802.504
vn 0.131007 0.930117 -0.343102
v -281.014 -120.571 797.559
vn 0.422917 0.644669 -0.636822
v -279.264 -121.959 796.242
vn 0.330791 -0.868627 -0.36887
v -278.194 -131.42 797.895
vn 0.460766 -0.738544 -0.492186
v -279.567 -129.837 795.091
vn 0.396367 -0.035502 -0.917406
v -280.614 -128.469 794.351
vn 0.577906 -0.0740533 0.812736
v -274.57 -131.213 803.069
vn 0.616087 0.261887 0.742867
v -275.941 -129.289 803.339
vn 0.878883 0.139215 0.456272
v -277.212 -121.891 803.513
vn 0.70388 0.613247 0.358444
v -277.193 -121.303 802.965
vn 0.979961 0.158771 0.120285
v -276.993 -121.692 802.688
vn 0.873599 0.485232 0.0370717
v -277.16 -121.139 802.181
vn 0.549604 0.808246 0.21136
v -277.439 -120.825 802.131
vn 0.647453 0.738072 -0.18988
v -277.429 -120.785 801.026
vn 0.950266 0.291515 -0.109606
v -277.139 -121.495 800.834
vn 0.231174 -0.971355 0.0550191
v -275.462 -132.16 803.081
vn 0.15746 -0.894597 -0.418214
v -275.455 -131.279 800.666
vn 0.61138 -0.614992 0.497995
v -274.51 -131.796 802.85
vn 0.619031 0.159443 0.769012
v -274.328 -130.843 802.863
vn 0.312858 -0.934599 -0.169245
v -274.137 -131.745 802.045
vn 0.629397 0.395379 0.66898
v -273.973 -129.849 802.159
vn 0.806197 -0.191428 0.559822
v -273.749 -131.245 802.189
vn 0.787799 0.139653 0.599892
v -273.807 -130.504 802.285
vn 0.778973 -0.617395 0.109652
v -273.718 -131.459 801.886
vn 0.410533 -0.803332 -0.431417
v -273.805 -131.422 801.526
vn 0.944912 -0.123168 0.303266
v -273.49 -130.936 801.743
vn 0.818328 0.315661 0.48031
v -273.619 -129.872 801.744
vn 0.825929 -0.505902 -0.248805
v -273.499 -131.041 801.357
vn 0.463605 -0.705775 -0.535679
v -273.762 -130.596 800.537
vn 0.744285 0.463827 0.480525
v -275.374 -127.141 801.292
vn 0.965163 0.25579 0.0550638
v -276.807 -123.298 800.608
vn 0.306154 -0.886103 -0.34798
v -276.204 -131.351 800.45
vn 0.324352 -0.816526 -0.477579
v -275.706 -130.89 799.87
vn 0.801487 0.566842 0.190547
v -274.901 -126.021 798.223
vn 0.45032 0.196282 -0.871025
v -275.709 -126.118 795.876
vn 0.8075 0.555597 -0.19813
v -277.288 -122.668 797.949
vn 0.409933 -0.291469 -0.864292
v -277.629 -128.265 795.085
vn 0.978422 -0.192926 0.0739605
v -273.303 -130.33 801.105
vn 0.766657 -0.549699 -0.331766
v -273.439 -130.45 800.784
vn 0.744004 0.589128 0.315256
v -273.433 -128.174 799.734
vn 0.963254 0.178866 0.200371
v -272.891 -128.837 799.485
vn 0.822336 -0.472483 -0.317054
v -272.979 -129.28 799.273
vn 0.454945 -0.6344 -0.624949
v -273.512 -128.944 798.531
vn 0.945609 0.319858 -0.0592823
v -272.937 -128.598 799.055
vn 0.601657 -0.376378 -0.70452
v -273.001 -128.7 798.734
vn 0.701083 0.433291 -0.566341
v -275.135 -125.839 796.389
vn 0.616822 -0.139552 -0.774633
v -275.107 -126.961 796.262
vn 0.795337 0.604976 0.0379943
v -274.166 -126.737 797.595
vn 0.79114 0.604617 -0.092388
v -274.73 -126.046 797.112
vn 0.850546 0.483828 -0.206113
v -274.158 -126.825 797.257
vn -0.986262 -0.118679 0.114903
v -310.32 -142.601 781.258
vn -0.725737 -0.658818 0.198152
v -309.286 -146.437 778.998
vn -0.836367 0.537845 0.105888
v -309.856 -139.434 777.658
vn 0.397829 -0.695302 0.598572
v -303.692 -148.464 780.509
vn -0.304384 -0.61007 0.73155
v -301.265 -142.547 787.728
vn 0.545316 -0.794989 0.26575
v -301.265 -142.547 787.728
vn 0.657946 -0.628597 0.414697
v -303.005 -146.492 783.057
vn 0.0166621 0.794381 -0.607191
v -305.582 -136.095 772.279
vn 0.910053 0.0640089 -0.40952
v -301.105 -147.997 775.935
vn 0.9396 0.0477563 -0.338926
v -301.489 -146.762 775.254
vn 0.848569 -0.518712 0.104252
v -301.489 -146.762 775.254
vn 0.339534 -0.725845 0.598219
v -299.748 -142.196 775.735
vn 0.70053 -0.490205 0.518611
v -297.844 -140.846 775.728
vn 0.413833 -0.856917 0.307303
v -298.92 -142.904 773.998
vn 0.518584 -0.722694 -0.456929
v -299.025 -143.114 773.353
vn 0.677013 -0.694474 -0.243636
v -297.919 -142.453 774.055
vn 0.398659 -0.897709 0.187586
v -293.747 -136.496 794.422
vn 0.50772 0.4706 -0.721635
v -296.36 -130.655 782.875
vn -0.653021 -0.582971 0.483433
v -287.693 -130.662 803.607
vn -0.495118 -0.665243 0.558846
v -288.58 -131.278 802.127
vn -0.350853 -0.838203 0.417514
v -286.094 -131.173 805.679
vn 0.451544 -0.173822 0.875154
v -282.782 -127.628 807.681
vn -0.0909698 0.415916 0.904841
v -281.84 -125.257 807.485
vn -0.256775 -0.197189 0.946141
v -283.106 -130.391 807.12
vn 0.35496 -0.225226 0.907346
v -283.106 -130.391 807.12
vn 0.25373 -0.440385 0.86121
v -279.232 -132.642 804.988
vn 0.476191 -0.78202 -0.402103
v -282.096 -131.799 796.118
vn 0.317446 -0.889843 0.32773
v -277.582 -132.349 804.623
vn 0.372512 -0.203996 -0.905329
v -279.567 -129.837 795.091
vn 0.966901 0.112689 -0.228919
v -273.001 -128.7 798.734
vn 0.723492 0.00414557 -0.690321
v -274.158 -126.825 797.257
f 7//7 1//1 8//8
f 1//1 4//4 8//8
f 2//2 3//3 15//15
f 1//1 282//282 4//4
f 7//7 3//3 1//1
f 3//3 282//282 1//1
f 3//3 6//6 15//15
f 10//10 16//16 4//4
f 282//282 10//10 4//4
f 43//43 22//22 7//7
f 5//5 22//22 6//6
f 22//22 5//5 7//7
f 8//8 286//286 7//7
f 5//5 3//3 7//7
f 6//6 3//3 5//5
f 23//23 15//15 6//6
f 35//35 29//29 11//11
f 8//8 12//12 9//9
f 9//9 283//283 29//29
f 8//8 9//9 26//26
f 16//16 283//283 4//4
f 13//13 19//19 10//10
f 8//8 4//4 12//12
f 4//4 283//283 12//12
f 16//16 17//17 283//283
f 9//9 12//12 283//283
f 10//10 282//282 13//13
f 14//14 13//13 282//282
f 20//20 19//19 13//13
f 13//13 14//14 20//20
f 15//15 284//284 2//2
f 284//284 15//15 41//41
f 36//36 17//17 18//18
f 283//283 17//17 35//35
f 36//36 18//18 39//39
f 19//19 16//16 10//10
f 17//17 16//16 18//18
f 16//16 19//19 18//18
f 19//19 21//21 18//18
f 39//39 18//18 81//81
f 20//20 21//21 19//19
f 14//14 40//40 20//20
f 20//20 40//40 21//21
f 14//14 41//41 40//40
f 44//44 286//286 8//8
f 23//23 6//6 22//22
f 8//8 25//25 44//44
f 8//8 26//26 25//25
f 35//35 24//24 28//28
f 32//32 24//24 35//35
f 28//28 24//24 27//27
f 27//27 32//32 33//33
f 27//27 24//24 32//32
f 45//45 25//25 26//26
f 28//28 45//45 26//26
f 33//33 46//46 27//27
f 288//288 285//285 55//55
f 45//45 55//55 285//285
f 45//45 28//28 47//47
f 47//47 28//28 27//27
f 47//47 27//27 46//46
f 26//26 9//9 29//29
f 29//29 35//35 28//28
f 26//26 29//29 28//28
f 15//15 42//42 41//41
f 15//15 23//23 42//42
f 23//23 59//59 42//42
f 70//70 42//42 59//59
f 17//17 30//30 35//35
f 32//32 35//35 33//33
f 35//35 31//31 33//33
f 35//35 30//30 31//31
f 31//31 34//34 60//60
f 31//31 30//30 34//34
f 34//34 30//30 37//37
f 65//65 60//60 34//34
f 62//62 34//34 37//37
f 33//33 31//31 46//46
f 31//31 60//60 61//61
f 61//61 46//46 31//31
f 17//17 36//36 30//30
f 36//36 39//39 38//38
f 37//37 30//30 36//36
f 37//37 36//36 38//38
f 69//69 62//62 38//38
f 62//62 37//37 38//38
f 41//41 71//71 40//40
f 41//41 42//42 71//71
f 71//71 42//42 70//70
f 71//71 70//70 74//74
f 74//74 75//75 71//71
f 38//38 39//39 78//78
f 69//69 38//38 78//78
f 81//81 18//18 21//21
f 21//21 40//40 81//81
f 81//81 40//40 83//83
f 127//127 22//22 43//43
f 87//87 128//128 287//287
f 23//23 22//22 190//190
f 190//190 85//85 23//23
f 287//287 288//288 87//87
f 85//85 129//129 23//23
f 86//86 288//288 55//55
f 288//288 86//86 87//87
f 89//89 98//98 23//23
f 48//48 47//47 46//46
f 48//48 46//46 61//61
f 51//51 45//45 47//47
f 51//51 47//47 48//48
f 63//63 48//48 61//61
f 49//49 55//55 45//45
f 50//50 51//51 48//48
f 50//50 48//48 63//63
f 51//51 49//49 45//45
f 51//51 50//50 52//52
f 52//52 50//50 67//67
f 67//67 50//50 63//63
f 104//104 52//52 67//67
f 56//56 53//53 57//57
f 49//49 51//51 53//53
f 56//56 49//49 53//53
f 52//52 53//53 51//51
f 54//54 91//91 53//53
f 53//53 91//91 57//57
f 52//52 54//54 53//53
f 52//52 104//104 92//92
f 52//52 92//92 54//54
f 86//86 55//55 56//56
f 56//56 55//55 49//49
f 57//57 86//86 56//56
f 23//23 58//58 59//59
f 70//70 59//59 73//73
f 58//58 98//98 59//59
f 98//98 58//58 23//23
f 99//99 116//116 98//98
f 59//59 98//98 73//73
f 116//116 73//73 98//98
f 61//61 60//60 63//63
f 63//63 60//60 64//64
f 64//64 60//60 65//65
f 34//34 62//62 65//65
f 66//66 65//65 62//62
f 68//68 64//64 65//65
f 66//66 62//62 69//69
f 68//68 65//65 66//66
f 64//64 67//67 63//63
f 68//68 67//67 64//64
f 110//110 68//68 66//66
f 104//104 67//67 68//68
f 68//68 110//110 106//106
f 66//66 69//69 77//77
f 110//110 66//66 77//77
f 110//110 77//77 111//111
f 74//74 70//70 73//73
f 71//71 75//75 84//84
f 72//72 125//125 76//76
f 289//289 74//74 73//73
f 72//72 76//76 73//73
f 76//76 289//289 73//73
f 76//76 125//125 289//289
f 77//77 69//69 79//79
f 79//79 69//69 78//78
f 81//81 78//78 39//39
f 80//80 79//79 78//78
f 77//77 79//79 80//80
f 80//80 78//78 81//81
f 118//118 81//81 82//82
f 81//81 83//83 82//82
f 118//118 82//82 119//119
f 82//82 123//123 119//119
f 40//40 71//71 83//83
f 83//83 71//71 84//84
f 82//82 83//83 123//123
f 84//84 75//75 123//123
f 123//123 83//83 84//84
f 289//289 125//125 123//123
f 166//166 127//127 43//43
f 298//298 287//287 194//194
f 287//287 128//128 194//194
f 89//89 23//23 129//129
f 89//89 129//129 90//90
f 86//86 57//57 95//95
f 86//86 95//95 87//87
f 95//95 88//88 87//87
f 88//88 128//128 87//87
f 98//98 89//89 103//103
f 90//90 103//103 89//89
f 133//133 102//102 90//90
f 93//93 91//91 54//54
f 54//54 92//92 93//93
f 104//104 93//93 92//92
f 57//57 91//91 94//94
f 57//57 94//94 95//95
f 105//105 109//109 94//94
f 109//109 95//95 94//94
f 94//94 91//91 93//93
f 94//94 93//93 105//105
f 95//95 109//109 96//96
f 88//88 95//95 96//96
f 88//88 96//96 128//128
f 96//96 97//97 128//128
f 97//97 96//96 113//113
f 97//97 113//113 135//135
f 100//100 116//116 99//99
f 100//100 101//101 116//116
f 100//100 102//102 101//101
f 116//116 101//101 115//115
f 102//102 115//115 101//101
f 115//115 102//102 133//133
f 98//98 103//103 99//99
f 99//99 103//103 100//100
f 102//102 103//103 90//90
f 102//102 100//100 103//103
f 68//68 106//106 104//104
f 105//105 93//93 106//106
f 106//106 93//93 104//104
f 105//105 106//106 108//108
f 105//105 108//108 109//109
f 106//106 290//290 108//108
f 108//108 291//291 109//109
f 109//109 291//291 107//107
f 107//107 292//292 149//149
f 291//291 108//108 290//290
f 111//111 77//77 296//296
f 109//109 107//107 96//96
f 296//296 77//77 117//117
f 112//112 113//113 96//96
f 96//96 107//107 112//112
f 107//107 147//147 112//112
f 117//117 158//158 296//296
f 113//113 112//112 147//147
f 107//107 149//149 147//147
f 72//72 124//124 125//125
f 116//116 72//72 73//73
f 114//114 124//124 72//72
f 115//115 72//72 116//116
f 115//115 114//114 72//72
f 80//80 81//81 120//120
f 117//117 77//77 80//80
f 156//156 80//80 120//120
f 156//156 120//120 121//121
f 119//119 123//123 126//126
f 120//120 81//81 118//118
f 120//120 118//118 121//121
f 119//119 121//121 118//118
f 126//126 122//122 119//119
f 119//119 122//122 121//121
f 163//163 122//122 126//126
f 126//126 123//123 125//125
f 124//124 162//162 125//125
f 124//124 114//114 162//162
f 162//162 126//126 125//125
f 127//127 190//190 22//22
f 211//211 85//85 190//190
f 85//85 215//215 129//129
f 171//171 128//128 130//130
f 170//170 133//133 90//90
f 299//299 134//134 133//133
f 170//170 90//90 129//129
f 128//128 135//135 136//136
f 130//130 128//128 136//136
f 136//136 131//131 130//130
f 137//137 131//131 136//136
f 131//131 137//137 132//132
f 131//131 173//173 130//130
f 173//173 131//131 132//132
f 133//133 134//134 115//115
f 97//97 135//135 128//128
f 138//138 135//135 113//113
f 135//135 138//138 136//136
f 136//136 294//294 137//137
f 137//137 294//294 174//174
f 132//132 137//137 139//139
f 294//294 152//152 174//174
f 139//139 137//137 140//140
f 139//139 140//140 143//143
f 143//143 140//140 145//145
f 174//174 140//140 137//137
f 140//140 179//179 145//145
f 141//141 144//144 146//146
f 185//185 141//141 146//146
f 132//132 139//139 142//142
f 139//139 143//143 142//142
f 142//142 143//143 144//144
f 143//143 145//145 144//144
f 179//179 146//146 145//145
f 146//146 144//144 145//145
f 179//179 180//180 146//146
f 146//146 180//180 185//185
f 115//115 141//141 153//153
f 141//141 115//115 144//144
f 144//144 115//115 134//134
f 113//113 147//147 148//148
f 149//149 295//295 147//147
f 150//150 293//293 295//295
f 294//294 293//293 150//150
f 296//296 158//158 159//159
f 150//150 152//152 294//294
f 150//150 295//295 151//151
f 151//151 295//295 149//149
f 296//296 159//159 297//297
f 150//150 151//151 152//152
f 297//297 159//159 181//181
f 153//153 114//114 115//115
f 114//114 154//154 162//162
f 153//153 154//154 114//114
f 141//141 154//154 153//153
f 141//141 185//185 154//154
f 187//187 162//162 154//154
f 185//185 187//187 154//154
f 187//187 155//155 162//162
f 80//80 156//156 117//117
f 157//157 158//158 156//156
f 121//121 157//157 156//156
f 117//117 156//156 158//158
f 161//161 157//157 164//164
f 157//157 122//122 164//164
f 121//121 122//122 157//157
f 161//161 158//158 157//157
f 159//159 158//158 160//160
f 182//182 160//160 161//161
f 155//155 182//182 161//161
f 164//164 155//155 161//161
f 161//161 160//160 158//158
f 162//162 163//163 126//126
f 163//163 164//164 122//122
f 155//155 163//163 162//162
f 155//155 164//164 163//163
f 165//165 191//191 190//190
f 193//193 165//165 127//127
f 193//193 127//127 166//166
f 190//190 127//127 165//165
f 128//128 167//167 194//194
f 167//167 128//128 171//171
f 167//167 171//171 195//195
f 195//195 171//171 168//168
f 134//134 169//169 168//168
f 195//195 168//168 169//169
f 134//134 299//299 169//169
f 171//171 130//130 173//173
f 171//171 173//173 168//168
f 173//173 172//172 168//168
f 134//134 168//168 172//172
f 132//132 172//172 173//173
f 172//172 142//142 134//134
f 142//142 172//172 132//132
f 134//134 142//142 144//144
f 175//175 140//140 174//174
f 179//179 140//140 175//175
f 152//152 176//176 174//174
f 175//175 174//174 176//176
f 177//177 175//175 176//176
f 179//179 175//175 177//177
f 180//180 179//179 177//177
f 176//176 178//178 177//177
f 177//177 178//178 180//180
f 151//151 181//181 152//152
f 181//181 159//159 160//160
f 152//152 181//181 176//176
f 178//178 176//176 181//181
f 181//181 160//160 184//184
f 183//183 178//178 181//181
f 178//178 183//183 180//180
f 181//181 184//184 183//183
f 184//184 160//160 182//182
f 188//188 155//155 187//187
f 188//188 182//182 155//155
f 185//185 180//180 187//187
f 180//180 186//186 187//187
f 184//184 188//188 186//186
f 186//186 188//188 187//187
f 188//188 184//184 182//182
f 183//183 184//184 186//186
f 180//180 183//183 186//186
f 196//196 197//197 189//189
f 201//201 300//300 301//301
f 302//302 300//300 201//201
f 189//189 197//197 190//190
f 301//301 192//192 201//201
f 200//200 201//201 192//192
f 190//190 191//191 189//189
f 165//165 193//193 301//301
f 301//301 193//193 192//192
f 202//202 192//192 193//193
f 211//211 215//215 85//85
f 202//202 298//298 194//194
f 193//193 166//166 202//202
f 224//224 202//202 194//194
f 203//203 194//194 167//167
f 167//167 195//195 203//203
f 204//204 195//195 169//169
f 215//215 170//170 129//129
f 299//299 218//218 169//169
f 201//201 200//200 302//302
f 220//220 209//209 302//302
f 302//302 200//200 220//220
f 206//206 205//205 305//305
f 196//196 205//205 198//198
f 196//196 305//305 205//205
f 198//198 197//197 196//196
f 197//197 198//198 199//199
f 200//200 202//202 220//220
f 199//199 190//190 197//197
f 190//190 199//199 211//211
f 202//202 200//200 192//192
f 308//308 194//194 203//203
f 218//218 170//170 215//215
f 195//195 204//204 203//203
f 204//204 169//169 218//218
f 306//306 222//222 303//303
f 222//222 207//207 303//303
f 208//208 199//199 198//198
f 205//205 304//304 208//208
f 208//208 198//198 205//205
f 206//206 304//304 205//205
f 219//219 304//304 227//227
f 304//304 219//219 208//208
f 199//199 208//208 210//210
f 219//219 210//210 208//208
f 306//306 221//221 222//222
f 210//210 211//211 199//199
f 223//223 211//211 210//210
f 215//215 211//211 223//223
f 308//308 203//203 212//212
f 212//212 203//203 217//217
f 225//225 213//213 216//216
f 213//213 218//218 216//216
f 214//214 213//213 225//225
f 218//218 213//213 214//214
f 223//223 216//216 215//215
f 204//204 217//217 203//203
f 204//204 214//214 217//217
f 237//237 217//217 214//214
f 204//204 218//218 214//214
f 215//215 216//216 218//218
f 222//222 226//226 207//207
f 207//207 226//226 227//227
f 306//306 307//307 221//221
f 221//221 238//238 222//222
f 307//307 228//228 221//221
f 223//223 210//210 219//219
f 220//220 202//202 235//235
f 235//235 202//202 224//224
f 216//216 234//234 225//225
f 308//308 212//212 236//236
f 212//212 217//217 236//236
f 310//310 217//217 237//237
f 225//225 237//237 214//214
f 240//240 226//226 229//229
f 226//226 240//240 227//227
f 227//227 231//231 230//230
f 220//220 247//247 309//309
f 249//249 309//309 247//247
f 228//228 238//238 221//221
f 238//238 228//228 249//249
f 226//226 261//261 229//229
f 239//239 226//226 222//222
f 226//226 239//239 261//261
f 223//223 219//219 230//230
f 230//230 219//219 227//227
f 220//220 232//232 247//247
f 232//232 220//220 235//235
f 263//263 232//232 235//235
f 248//248 232//232 263//263
f 223//223 230//230 233//233
f 230//230 245//245 233//233
f 235//235 264//264 263//263
f 264//264 235//235 274//274
f 233//233 216//216 223//223
f 245//245 234//234 233//233
f 234//234 216//216 233//233
f 236//236 235//235 308//308
f 236//236 268//268 235//235
f 274//274 235//235 268//268
f 268//268 310//310 237//237
f 225//225 268//268 237//237
f 222//222 250//250 239//239
f 252//252 239//239 250//250
f 242//242 240//240 229//229
f 242//242 241//241 240//240
f 227//227 240//240 241//241
f 262//262 242//242 229//229
f 241//241 242//242 243//243
f 242//242 262//262 246//246
f 241//241 231//231 227//227
f 231//231 241//241 244//244
f 244//244 230//230 231//231
f 245//245 230//230 244//244
f 241//241 243//243 244//244
f 244//244 243//243 245//245
f 242//242 246//246 243//243
f 245//245 243//243 246//246
f 251//251 247//247 232//232
f 232//232 248//248 251//251
f 249//249 253//253 238//238
f 238//238 250//250 222//222
f 253//253 250//250 238//238
f 252//252 261//261 239//239
f 249//249 247//247 251//251
f 252//252 258//258 261//261
f 248//248 256//256 251//251
f 253//253 254//254 250//250
f 253//253 249//249 255//255
f 255//255 249//249 251//251
f 256//256 255//255 251//251
f 256//256 264//264 260//260
f 254//254 252//252 250//250
f 253//253 255//255 257//257
f 256//256 260//260 259//259
f 258//258 252//252 254//254
f 254//254 253//253 257//257
f 254//254 257//257 258//258
f 259//259 257//257 255//255
f 256//256 259//259 255//255
f 257//257 259//259 269//269
f 258//258 257//257 269//269
f 259//259 260//260 270//270
f 259//259 270//270 269//269
f 270//270 260//260 273//273
f 258//258 271//271 261//261
f 271//271 265//265 261//261
f 265//265 229//229 261//261
f 229//229 265//265 262//262
f 262//262 265//265 267//267
f 262//262 267//267 246//246
f 267//267 245//245 246//246
f 245//245 267//267 234//234
f 248//248 263//263 264//264
f 256//256 248//248 264//264
f 260//260 264//264 274//274
f 279//279 280//280 265//265
f 267//267 265//265 280//280
f 267//267 277//277 234//234
f 280//280 277//277 267//267
f 274//274 268//268 278//278
f 225//225 266//266 268//268
f 266//266 278//278 268//268
f 277//277 266//266 234//234
f 234//234 266//266 225//225
f 270//270 273//273 269//269
f 260//260 274//274 273//273
f 269//269 272//272 258//258
f 272//272 271//271 258//258
f 279//279 265//265 271//271
f 275//275 279//279 271//271
f 269//269 273//273 272//272
f 275//275 271//271 272//272
f 275//275 272//272 273//273
f 281//281 279//279 275//275
f 274//274 276//276 273//273
f 276//276 274//274 278//278
f 276//276 278//278 312//312
f 273//273 311//311 275//275
f 275//275 311//311 281//281
f 278//278 277//277 312//312
f 281//281 277//277 280//280
f 278//278 266//266 277//277
f 279//279 281//281 280//280
