# Wavafront OBJ file of BodyParts3D
# BodyParts3D, Copyright(C) 2010-2011 The Database Center for Life Science licensed under CC Attribution-Share Alike 2.1 Japan.
vn -0.888494 -0.204407 0.410847
v 309.568 -156.775 744.962
vn -0.530871 -0.553714 0.641543
v 313.718 -162.936 752.153
vn -0.209455 0.120517 0.970363
v 312.669 -160.472 752.29
vn 0.0759159 0.52199 0.849566
v 312.958 -160.409 752.235
vn -0.838058 -0.10139 0.536076
v 312.027 -160.281 751.599
vn -0.678726 0.498395 0.539381
v 310.845 -157.285 749.295
vn -0.0696548 0.602598 0.794999
v 311.575 -157.721 750.127
vn -0.673791 -0.727322 -0.130415
v 313.672 -163.867 749.65
vn -0.508493 -0.802035 0.313328
v 313.667 -163.709 750.853
vn -0.836076 -0.519567 0.176145
v 312.968 -162.952 750.803
vn -0.824158 -0.553611 -0.119494
v 312.075 -160.051 748.054
vn -0.954436 -0.279711 0.103985
v 310.636 -157.529 748.841
vn -0.683887 0.634833 0.359563
v 310.364 -155.483 745.96
vn -0.936957 0.185535 0.296122
v 309.952 -156.217 746.069
vn -0.88444 -0.434861 0.169298
v 310.286 -157.373 746.218
vn -0.912562 0.320152 -0.254428
v 309.873 -155.773 743.966
vn -0.821275 0.563509 0.0892445
v 310.041 -155.365 744.856
vn -0.671698 0.587555 -0.451222
v 310.343 -155.269 743.567
vn -0.745845 -0.633268 -0.206607
v 310.588 -158.277 743.75
vn -0.766954 -0.427579 -0.478496
v 310.508 -157.377 742.781
vn -0.661584 -0.525652 -0.534787
v 311.702 -157.658 742.029
vn -0.83909 0.108454 -0.533072
v 310.021 -156.237 743.52
vn -0.464477 0.29285 -0.835763
v 310.905 -156.062 742.667
vn -0.906069 -0.364477 -0.214933
v 313.192 -159.746 741.466
vn -0.949529 -0.26873 0.161798
v 313.544 -161.007 741.341
vn -0.986909 -0.155488 -0.0428329
v 313.326 -160.214 741.023
vn -0.704298 -0.578108 -0.412014
v 312.358 -158.695 742.237
vn -0.772129 -0.33663 -0.538978
v 312.274 -158.258 741.752
vn -0.435284 0.181544 -0.881799
v 312.382 -157.851 741.617
vn -0.941417 -0.331822 0.0602312
v 313.61 -161.781 741.001
vn -0.955053 -0.132832 -0.265009
v 313.436 -160.974 740.685
vn -0.160763 -0.306139 0.938314
v 314.21 -162.552 752.526
vn -0.118774 -0.627125 0.76981
v 314.362 -163.042 752.274
vn 0.123362 -0.0216189 0.992126
v 314.674 -162.055 752.607
vn 0.215138 -0.417855 0.882674
v 314.955 -162.976 752.326
vn -0.198812 -0.811811 0.549033
v 314.501 -163.477 751.82
vn -0.172084 -0.93059 0.323094
v 315.151 -164.512 750.074
vn 0.0885375 -0.769326 0.632692
v 315.113 -163.476 751.898
vn 0.495921 -0.574495 0.651166
v 315.39 -163.375 751.897
vn -0.440995 -0.852802 -0.279737
v 314.784 -164.086 748.296
vn -0.229573 -0.972688 -0.0342569
v 315.196 -164.628 749.492
vn 0.343182 -0.891722 0.295057
v 315.776 -164.538 749.848
vn -0.523724 -0.842946 -0.123108
v 315.802 -164.528 748.272
vn 0.248662 -0.966329 0.066148
v 316.349 -164.344 748.905
vn -0.71144 -0.67971 -0.178459
v 314.95 -163.795 747.265
vn -0.538999 0.824302 0.173221
v 311.508 -154.114 744.87
vn 0.231301 -0.954252 0.189481
v 316.757 -164.552 746.827
vn -0.850883 -0.512054 -0.117467
v 313.386 -160.27 743.258
vn -0.196967 0.662514 -0.722688
v 311.709 -154.683 743.212
vn 0.271605 -0.905268 0.326681
v 316.332 -165.075 745.072
vn -0.900422 -0.433151 0.0402576
v 314.82 -163.442 743.338
vn -0.869598 -0.0884143 -0.48578
v 313.476 -159.383 740.53
vn 0.0510952 0.631841 -0.773412
v 314.643 -158.189 741.084
vn -0.767861 -0.640444 -0.0148695
v 315.286 -164.479 742.055
vn -0.885691 -0.23309 -0.401521
v 314.006 -162.133 739.919
vn -0.581178 -0.806725 0.106902
v 317.268 -166.305 739.336
vn -0.0726491 0.785441 -0.614658
v 315.653 -161.343 737.635
vn -0.919294 -0.291514 -0.264422
v 316.4 -163.616 736.038
vn -0.820995 0.311153 -0.478698
v 316.582 -162.813 735.453
vn 0.125356 0.423318 0.897267
v 317.541 -160.299 751.617
vn -0.101176 0.620305 0.777808
v 316.357 -154.73 749.181
vn 0.827443 -0.473038 0.30261
v 317.219 -163.087 749.819
vn 0.972693 -0.131564 0.191206
v 318.336 -161.059 746.7
vn 0.0805655 0.987575 -0.134925
v 315.445 -154.437 744.86
vn 0.838429 -0.488896 0.240868
v 317.165 -163.895 747.27
vn 0.667581 0.626401 -0.402439
v 316.784 -157.717 743.076
vn 0.588707 -0.679766 0.437427
v 318.178 -164.996 743.559
vn 0.392873 -0.714577 0.578818
v 319.184 -166.154 741.102
vn 0.852827 -0.299995 0.427421
v 318.971 -164.518 742.685
vn 0.0221173 -0.871526 0.48985
v 317.735 -166.418 740.698
vn -0.508531 -0.843676 0.172068
v 318.901 -167.181 739.865
vn 0.309364 -0.672502 0.672335
v 319.603 -167.447 739.421
vn 0.635107 -0.435855 0.637707
v 319.858 -167.271 739.39
vn 0.278301 0.861851 -0.423983
v 318.347 -161.148 738.223
vn 0.315034 -0.756753 0.572781
v 320.379 -168.894 737.527
vn -0.00882615 -0.808289 0.588719
v 319.847 -168.202 738.456
vn 0.274823 -0.688658 0.670987
v 320.099 -168.033 738.691
vn -0.183351 0.881266 -0.435606
v 316.92 -162.375 735.652
vn 0.175543 0.938621 -0.296945
v 317.636 -162.671 734.906
vn -0.395682 -0.912791 0.101232
v 320.627 -169.004 735.077
vn -0.914071 -0.00388946 -0.405536
v 317.263 -164.365 732.731
vn 0.220029 0.951057 -0.216976
v 318.827 -163.444 732.818
vn -0.631973 0.609722 -0.478381
v 317.67 -163.656 732.433
vn -0.620092 -0.732799 -0.280165
v 320.046 -168.512 732.643
vn -0.856764 -0.448477 -0.254607
v 317.564 -165.277 732.695
vn -0.815571 0.0343823 -0.577634
v 317.785 -164.012 731.947
vn -0.773957 -0.326034 -0.542856
v 318.239 -165.504 731.639
vn -0.0882958 0.741559 -0.665051
v 319.07 -164.155 731.218
vn -0.103851 0.874801 -0.473222
v 318.267 -163.583 732.167
vn -0.729104 -0.198644 -0.654941
v 319.874 -165.729 729.888
vn -0.649632 -0.517504 -0.556928
v 320.371 -166.62 729.761
vn 0.980668 -0.140898 0.13579
v 318.481 -158.036 750.028
vn 0.989588 -0.131224 0.0591252
v 318.495 -159.665 748.418
vn 0.905353 0.402742 -0.134665
v 318.212 -156.886 747.368
vn 0.957976 0.275156 -0.0810609
v 318.308 -158.887 745.589
vn 0.962686 0.205394 0.176207
v 319.898 -162.781 739.648
vn 0.80418 0.588971 -0.0800453
v 319.444 -161.795 739.23
vn 0.867985 -0.0484251 0.494223
v 320.855 -166.639 738.341
vn 0.669925 -0.450062 0.590461
v 321.109 -168.269 737.707
vn 0.658531 -0.536869 0.52736
v 321.69 -169.07 735.867
vn 0.0690285 -0.966336 0.247851
v 321.793 -169.381 735.363
vn 0.662396 -0.641429 0.387041
v 322.06 -169.247 735.348
vn 0.893624 -0.16236 0.41842
v 322.659 -168.394 735.114
vn 0.914667 0.353921 0.195253
v 322.535 -166.823 734.21
vn 0.341437 0.894447 -0.288766
v 319.677 -163.627 733.624
vn 0.4386 0.893053 -0.100428
v 319.545 -163.774 732.539
vn -0.242445 -0.964213 -0.107303
v 321.563 -169.506 733.147
vn 0.0917592 -0.984173 0.151606
v 322.158 -169.465 733.549
vn 0.49647 -0.84081 0.215766
v 322.466 -169.401 733.565
vn 0.0206177 -0.988315 0.151026
v 322.507 -169.572 733.003
vn -0.0727228 -0.997214 -0.0166083
v 322.511 -169.567 732.686
vn 0.870717 -0.446317 0.206526
v 323.125 -168.741 733.094
vn 0.757141 -0.642877 -0.115963
v 322.994 -169.125 732.586
vn 0.983617 0.065322 0.168022
v 323.284 -168.121 732.887
vn 0.337977 0.906547 -0.252872
v 319.558 -163.789 732.092
vn 0.648069 0.749615 -0.13448
v 321.93 -165.378 731.714
vn -0.195411 -0.800966 -0.565923
v 321.484 -168.531 731.546
vn 0.679652 -0.620196 -0.391702
v 323.315 -168.443 732.063
vn 0.0871731 -0.795091 -0.600193
v 323.094 -168.376 731.575
vn 0.719019 -0.254655 -0.646655
v 323.028 -168.143 731.388
vn -0.439041 -0.71426 -0.545047
v 320.94 -167.594 730.19
vn -0.114652 -0.864513 -0.48936
v 321.427 -167.862 730.349
vn -0.078577 -0.58991 -0.803637
v 321.286 -167.354 729.72
vn -0.456601 -0.668274 -0.587304
v 321.957 -167.862 730.417
vn 0.210535 -0.54905 -0.808838
v 322.125 -167.086 729.774
vn 0.810544 -0.307101 -0.498705
v 322.91 -167.927 731.193
vn 0.926998 -0.0501044 -0.371705
v 323.131 -167.75 731.472
vn 0.953478 0.295183 -0.0612093
v 322.999 -167.217 731.26
vn 0.838549 0.533014 -0.112834
v 322.649 -166.463 730.941
vn 0.963862 -0.139926 -0.226696
v 323.01 -167.61 731.09
vn 0.968923 0.168744 -0.180869
v 322.966 -167.162 730.606
vn 0.240639 -0.780226 -0.577356
v 322.879 -167.591 730.436
vn 0.747771 0.552738 -0.367858
v 322.8 -167.036 730.223
vn 0.426773 0.724378 -0.541425
v 321.303 -165.387 730.061
vn -0.0988809 -0.177025 -0.979227
v 321.613 -166.382 729.447
vn 0.9678 0.249438 -0.0338101
v 323.266 -167.775 732.128
vn -0.988982 -0.0987967 -0.110241
v 309.568 -156.775 744.962
vn -0.662781 0.281858 0.693742
v 312.669 -160.472 752.29
vn -0.648885 0.289916 0.703489
v 311.575 -157.721 750.127
vn -0.614451 0.117659 -0.780133
v 310.508 -157.377 742.781
vn -0.520525 0.016274 -0.853692
v 311.702 -157.658 742.029
vn 0.236921 -0.967844 0.0845421
v 315.802 -164.528 748.272
vn 0.728139 -0.647059 0.226116
v 316.349 -164.344 748.905
vn 0.0805655 0.987575 -0.134925
v 311.508 -154.114 744.87
vn 0.731989 -0.600187 0.32244
v 316.757 -164.552 746.827
vn 0.0766932 0.945809 -0.315536
v 311.709 -154.683 743.212
vn -0.572903 -0.816681 0.0693816
v 316.332 -165.075 745.072
vn -0.230952 0.586018 -0.776688
v 313.476 -159.383 740.53
vn -0.823827 0.108132 -0.556432
v 315.653 -161.343 737.635
vn -0.457356 0.634993 -0.622583
v 315.653 -161.343 737.635
vn 0.687911 -0.301772 0.660084
v 317.541 -160.299 751.617
vn 0.0816679 0.995388 0.0503249
v 316.357 -154.73 749.181
vn 0.76985 0.63753 0.0297697
v 316.357 -154.73 749.181
vn 0.595065 0.641423 -0.484225
v 315.445 -154.437 744.86
vn -0.499486 -0.860536 0.0999588
v 317.735 -166.418 740.698
vn 0.0549426 -0.76948 0.636303
v 318.901 -167.181 739.865
vn -0.0881508 -0.995466 0.0357205
v 320.379 -168.894 737.527
vn -0.581968 -0.807345 0.097505
v 320.379 -168.894 737.527
vn -0.502434 -0.815886 0.286164
v 319.847 -168.202 738.456
vn -0.355564 0.625407 -0.694579
v 317.785 -164.012 731.947
vn -0.160911 0.547196 -0.821392
v 319.874 -165.729 729.888
vn -0.245681 0.000258223 -0.969351
v 319.874 -165.729 729.888
vn -0.226258 -0.10068 -0.96885
v 320.371 -166.62 729.761
vn 0.34945 0.436859 0.828878
v 318.481 -158.036 750.028
vn 0.811015 0.562355 0.161281
v 318.481 -158.036 750.028
vn -0.238063 -0.94062 0.241992
v 321.69 -169.07 735.867
vn 0.4012 -0.74057 0.539069
v 321.69 -169.07 735.867
vn 0.742341 -0.649654 0.16395
v 322.507 -169.572 733.003
vn -0.107953 -0.782033 -0.613817
v 322.511 -169.567 732.686
vn 0.628437 -0.739926 -0.239953
v 322.511 -169.567 732.686
vn 0.989097 -0.11615 -0.0905299
v 323.315 -168.443 732.063
vn 0.614468 -0.662019 -0.429139
v 323.094 -168.376 731.575
vn 0.797366 -0.232826 -0.556777
v 323.094 -168.376 731.575
vn 0.0925298 -0.87305 -0.478771
v 321.957 -167.862 730.417
vn 0.561002 -0.388045 -0.73123
v 321.957 -167.862 730.417
vn 0.173095 -0.80671 -0.565028
v 321.957 -167.862 730.417
vn 0.55681 -0.107093 -0.823707
v 322.125 -167.086 729.774
vn 0.26539 -0.877327 -0.399832
v 322.91 -167.927 731.193
vn 0.948582 -0.167157 -0.268796
v 322.879 -167.591 730.436
vn 0.551525 -0.228718 -0.80219
v 322.879 -167.591 730.436
vn 0.55681 -0.107093 -0.823707
v 322.8 -167.036 730.223
vn 0.914688 -0.0242501 -0.403432
v 322.8 -167.036 730.223
vn 0.553586 0.0161697 -0.832635
v 321.613 -166.382 729.447
vn -0.0211228 0.520373 -0.853678
v 321.613 -166.382 729.447
vn 0.648528 0.53581 -0.540665
v 321.613 -166.382 729.447
f 14//14 1//1 15//15
f 14//14 17//17 137//137
f 15//15 137//137 19//19
f 3//3 5//5 2//2
f 5//5 10//10 2//2
f 32//32 2//2 33//33
f 32//32 3//3 2//2
f 36//36 33//33 2//2
f 10//10 5//5 12//12
f 3//3 4//4 7//7
f 3//3 60//60 4//4
f 5//5 6//6 12//12
f 138//138 139//139 5//5
f 139//139 6//6 5//5
f 6//6 7//7 61//61
f 61//61 46//46 6//6
f 9//9 2//2 10//10
f 10//10 8//8 9//9
f 9//9 36//36 2//2
f 8//8 37//37 9//9
f 10//10 12//12 8//8
f 12//12 15//15 11//11
f 12//12 6//6 14//14
f 12//12 14//14 15//15
f 13//13 14//14 6//6
f 13//13 6//6 46//46
f 45//45 40//40 8//8
f 12//12 11//11 8//8
f 8//8 11//11 45//45
f 19//19 11//11 15//15
f 48//48 11//11 19//19
f 16//16 137//137 17//17
f 14//14 13//13 17//17
f 16//16 18//18 22//22
f 23//23 22//22 18//18
f 16//16 17//17 18//18
f 46//46 17//17 13//13
f 49//49 23//23 18//18
f 18//18 17//17 46//46
f 46//46 49//49 18//18
f 146//146 144//144 64//64
f 48//48 51//51 11//11
f 11//11 51//51 45//45
f 48//48 19//19 27//27
f 27//27 19//19 20//20
f 19//19 137//137 20//20
f 16//16 22//22 137//137
f 137//137 22//22 20//20
f 27//27 20//20 21//21
f 22//22 23//23 140//140
f 141//141 140//140 23//23
f 51//51 25//25 30//30
f 27//27 28//28 24//24
f 52//52 24//24 28//28
f 48//48 24//24 26//26
f 24//24 52//52 26//26
f 25//25 48//48 26//26
f 30//30 25//25 26//26
f 26//26 31//31 30//30
f 52//52 31//31 26//26
f 28//28 27//27 21//21
f 141//141 23//23 29//29
f 29//29 52//52 28//28
f 29//29 28//28 141//141
f 148//148 29//29 53//53
f 31//31 55//55 30//30
f 32//32 34//34 3//3
f 38//38 33//33 36//36
f 32//32 35//35 34//34
f 35//35 32//32 33//33
f 33//33 38//38 35//35
f 35//35 38//38 39//39
f 35//35 39//39 151//151
f 35//35 151//151 34//34
f 62//62 151//151 39//39
f 34//34 60//60 3//3
f 60//60 7//7 4//4
f 37//37 36//36 9//9
f 41//41 37//37 8//8
f 42//42 38//38 37//37
f 38//38 36//36 37//37
f 37//37 41//41 42//42
f 39//39 38//38 42//42
f 42//42 62//62 39//39
f 8//8 40//40 41//41
f 43//43 41//41 40//40
f 42//42 41//41 142//142
f 45//45 43//43 40//40
f 142//142 44//44 42//42
f 44//44 142//142 47//47
f 143//143 62//62 42//42
f 143//143 145//145 65//65
f 50//50 47//47 142//142
f 53//53 23//23 49//49
f 154//154 53//53 49//49
f 68//68 50//50 70//70
f 67//67 50//50 68//68
f 43//43 45//45 54//54
f 45//45 51//51 54//54
f 43//43 54//54 147//147
f 54//54 51//51 30//30
f 24//24 48//48 27//27
f 48//48 25//25 51//51
f 23//23 53//53 29//29
f 155//155 147//147 56//56
f 56//56 147//147 54//54
f 55//55 54//54 30//30
f 54//54 55//55 84//84
f 31//31 52//52 55//55
f 57//57 148//148 53//53
f 74//74 57//57 53//53
f 54//54 84//84 56//56
f 55//55 52//52 149//149
f 59//59 55//55 149//149
f 78//78 59//59 150//150
f 55//55 58//58 84//84
f 55//55 59//59 58//58
f 59//59 81//81 58//58
f 59//59 83//83 81//81
f 59//59 78//78 83//83
f 84//84 58//58 85//85
f 58//58 81//81 85//85
f 60//60 61//61 7//7
f 62//62 93//93 92//92
f 92//92 151//151 62//62
f 64//64 144//144 152//152
f 65//65 62//62 143//143
f 62//62 65//65 93//93
f 65//65 63//63 93//93
f 94//94 154//154 153//153
f 94//94 66//66 154//154
f 65//65 145//145 69//69
f 69//69 63//63 65//65
f 69//69 96//96 63//63
f 47//47 50//50 67//67
f 145//145 67//67 69//69
f 66//66 74//74 53//53
f 154//154 66//66 53//53
f 68//68 69//69 67//67
f 155//155 56//56 71//71
f 70//70 156//156 68//68
f 68//68 156//156 72//72
f 77//77 72//72 156//156
f 73//73 68//68 72//72
f 73//73 72//72 77//77
f 73//73 69//69 68//68
f 74//74 78//78 57//57
f 99//99 75//75 100//100
f 166//166 157//157 80//80
f 158//158 56//56 84//84
f 77//77 156//156 76//76
f 159//159 71//71 56//56
f 56//56 158//158 159//159
f 77//77 76//76 75//75
f 77//77 99//99 73//73
f 99//99 77//77 75//75
f 73//73 99//99 98//98
f 74//74 79//79 78//78
f 74//74 105//105 79//79
f 82//82 78//78 79//79
f 89//89 78//78 82//82
f 82//82 115//115 89//89
f 106//106 79//79 105//105
f 82//82 79//79 106//106
f 82//82 106//106 115//115
f 80//80 158//158 84//84
f 84//84 107//107 80//80
f 91//91 84//84 87//87
f 87//87 85//85 81//81
f 81//81 83//83 86//86
f 87//87 81//81 86//86
f 84//84 85//85 87//87
f 89//89 83//83 78//78
f 160//160 83//83 89//89
f 90//90 87//87 86//86
f 88//88 160//160 89//89
f 161//161 160//160 88//88
f 89//89 115//115 88//88
f 134//134 88//88 115//115
f 121//121 84//84 91//91
f 91//91 87//87 90//90
f 61//61 60//60 164//164
f 165//165 94//94 153//153
f 92//92 93//93 94//94
f 93//93 63//63 95//95
f 93//93 95//95 94//94
f 95//95 66//66 94//94
f 63//63 96//96 95//95
f 66//66 95//95 97//97
f 95//95 96//96 97//97
f 97//97 74//74 66//66
f 73//73 98//98 69//69
f 69//69 104//104 96//96
f 97//97 116//116 74//74
f 96//96 104//104 97//97
f 99//99 100//100 103//103
f 103//103 98//98 99//99
f 69//69 98//98 104//104
f 116//116 105//105 74//74
f 116//116 97//97 104//104
f 101//101 166//166 80//80
f 103//103 100//100 102//102
f 102//102 167//167 101//101
f 98//98 103//103 104//104
f 103//103 112//112 114//114
f 102//102 112//112 103//103
f 103//103 114//114 104//104
f 106//106 105//105 116//116
f 107//107 101//101 80//80
f 117//117 107//107 84//84
f 108//108 101//101 107//107
f 102//102 101//101 109//109
f 109//109 101//101 108//108
f 109//109 108//108 110//110
f 110//110 108//108 107//107
f 107//107 111//111 110//110
f 107//107 117//117 169//169
f 112//112 109//109 168//168
f 117//117 119//119 169//169
f 109//109 112//112 102//102
f 112//112 168//168 113//113
f 168//168 170//170 113//113
f 172//172 113//113 170//170
f 113//113 172//172 118//118
f 112//112 113//113 171//171
f 114//114 112//112 171//171
f 104//104 129//129 116//116
f 136//136 128//128 104//104
f 104//104 128//128 129//129
f 106//106 116//116 115//115
f 116//116 134//134 115//115
f 134//134 116//116 129//129
f 84//84 124//124 117//117
f 117//117 174//174 119//119
f 175//175 120//120 173//173
f 175//175 126//126 120//120
f 136//136 171//171 127//127
f 171//171 173//173 127//127
f 120//120 127//127 173//173
f 126//126 127//127 120//120
f 84//84 121//121 122//122
f 84//84 122//122 176//176
f 123//123 121//121 91//91
f 122//122 121//121 123//123
f 176//176 122//122 123//123
f 176//176 123//123 125//125
f 123//123 135//135 125//125
f 129//129 133//133 134//134
f 178//178 176//176 132//132
f 125//125 132//132 176//176
f 181//181 177//177 183//183
f 136//136 127//127 128//128
f 129//129 128//128 131//131
f 126//126 130//130 127//127
f 127//127 130//130 128//128
f 130//130 126//126 179//179
f 179//179 131//131 130//130
f 130//130 131//131 128//128
f 129//129 131//131 133//133
f 131//131 179//179 182//182
f 177//177 181//181 180//180
f 135//135 123//123 163//163
f 88//88 134//134 161//161
f 162//162 135//135 163//163
f 161//161 134//134 184//184
f 185//185 134//134 133//133
f 136//136 114//114 171//171
f 114//114 136//136 104//104
