# Wavafront OBJ file of BodyParts3D
# BodyParts3D, Copyright(C) 2010-2011 The Database Center for Life Science licensed under CC Attribution-Share Alike 2.1 Japan.
vn -0.920834 0.21747 -0.323683
v -120.262 -92.6484 11.3715
vn -0.664319 0.221992 -0.713723
v -119.305 -91.3954 10.5895
vn -0.802934 0.392317 -0.448759
v -119.308 -89.961 11.2605
vn -0.921412 0.383656 0.061713
v -119.498 -89.9928 11.9735
vn -0.489013 0.3232 -0.81019
v -118.015 -89.2136 10.328
vn -0.647981 0.50485 -0.570305
v -117.881 -87.8524 11.0916
vn -0.35154 0.4752 -0.806601
v -116.739 -87.4824 10.5198
vn -0.513347 0.715989 -0.473112
v -116.565 -85.8178 11.6889
vn -0.779989 0.615339 -0.113908
v -117.642 -86.6148 12.3476
vn -0.438947 0.106921 -0.892128
v -116.901 -96.2593 8.05451
vn -0.977998 0.0103203 -0.208358
v -120.833 -95.6082 12.1629
vn -0.98814 0.00559732 0.153453
v -120.819 -96.2742 13.8974
vn -0.746762 0.0652602 -0.661882
v -119.918 -94.1991 10.5108
vn -0.966792 0.201055 0.157763
v -120.726 -94.691 13.3713
vn -0.0362199 0.197184 -0.979697
v -115.342 -93.4619 8.03884
vn -0.0992282 0.367576 -0.924685
v -114.977 -89.5713 9.21647
vn -0.770055 0.548268 0.326217
v -117.63 -86.8821 13.211
vn -0.0985358 0.593783 -0.798569
v -114.695 -85.055 11.526
vn -0.270436 0.864163 -0.424367
v -114.356 -84.5204 12.0921
vn -0.476328 0.869093 0.133374
v -115.048 -84.5233 13.3178
vn 0.0346559 0.749471 -0.661129
v -114.041 -84.6232 11.8855
vn -0.0552915 0.965348 -0.255042
v -113.843 -84.3155 12.3882
vn 0.280275 0.546381 -0.789249
v -113.318 -85.2292 11.5718
vn 0.232197 0.837584 -0.494508
v -113.363 -84.4148 12.2833
vn 0.130956 0.983882 -0.121769
v -113.515 -84.3084 12.5913
vn 0.0374271 0.987462 0.153356
v -113.693 -84.2935 13.7197
vn -0.784509 5.57951e-005 -0.620118
v -137.312 -149.724 2.38769
vn -0.58501 0.110888 -0.80341
v -132.764 -145.29 -1.47201
vn -0.512995 0.523155 -0.680548
v -133.292 -144.099 -0.273113
vn -0.841607 0.238261 -0.484695
v -135.832 -142.62 2.12817
vn -0.942634 0.327143 -0.0664699
v -136.774 -142.581 4.4344
vn -0.253244 0.666639 -0.701042
v -132.395 -142.364 0.92328
vn -0.488546 0.857158 0.163103
v -135.519 -141.68 2.63474
vn -0.446591 0.885604 0.127518
v -136.391 -142.558 5.6743
vn -0.672228 0.186903 -0.716364
v -119.271 -107.718 9.05774
vn -0.489924 0.0353669 -0.871047
v -118.263 -103.885 8.857
vn -0.842827 0.0425176 -0.536503
v -119.202 -103.628 9.77771
vn -0.999154 -0.0396431 -0.0109663
v -120.447 -100.581 13.3507
vn -0.907898 0.0709391 0.413145
v -120.065 -100.421 15.6384
vn -0.107032 -0.0269897 -0.993889
v -116.169 -97.6936 7.83569
vn -0.913064 0.0500489 0.404733
v -120.386 -96.2953 15.2833
vn 0.205776 -0.033633 -0.978021
v -114.187 -96.633 7.91991
vn 0.52079 -0.0277019 -0.853235
v -112.712 -95.8097 8.44274
vn -0.853259 0.273015 0.444311
v -119.541 -93.2679 15.7526
vn 0.31725 0.103822 -0.942642
v -113.3 -93.6131 8.31979
vn 0.690916 -0.0164646 -0.722748
v -112.379 -94.8415 8.71917
vn 0.436898 0.202718 -0.876371
v -112.086 -91.1843 9.13458
vn 0.227288 0.384014 -0.894915
v -112.708 -89.078 9.67245
vn -0.678983 0.457149 0.574454
v -117.027 -89.2053 17.3079
vn -0.61733 0.319011 0.719122
v -116.862 -90.3603 18.197
vn -0.469366 0.64261 0.605597
v -114.987 -87.0076 17.3448
vn 0.514942 0.687868 -0.511539
v -112.295 -84.7104 12.5639
vn 0.352381 0.926921 -0.129018
v -112.421 -84.4981 12.8761
vn 0.381449 0.909301 0.166342
v -112.325 -84.5735 13.3573
vn 0.304014 0.881001 0.362509
v -112.917 -84.5724 14.231
vn 0.683257 0.726309 -0.0750633
v -111.898 -84.7972 13.2327
vn 0.575313 0.761106 0.299553
v -111.836 -84.9522 13.7013
vn -0.0894558 0.838033 0.538237
v -113.846 -85.1967 15.7897
vn 0.481973 0.670097 0.56451
v -112.62 -85.8368 16.2051
vn -0.692085 -0.529768 -0.49027
v -136.677 -152.411 3.07085
vn -0.890798 -0.415759 -0.183366
v -137.172 -152.187 3.97999
vn -0.85435 -0.511433 0.0923155
v -137.022 -152.63 5.36166
vn -0.566762 -0.266868 -0.779463
v -133.468 -150.92 -0.475958
vn -0.724598 -0.290097 -0.625141
v -137.217 -150.558 2.53629
vn -0.88247 -0.261457 -0.391007
v -137.409 -150.522 2.82689
vn -0.978884 -0.0152945 -0.203843
v -138.103 -149.18 4.32032
vn -0.954059 -0.240303 0.178956
v -137.795 -150.756 5.34923
vn -0.229418 -0.152383 -0.961326
v -129.826 -147.447 -3.10437
vn -0.454732 -0.168511 -0.874541
v -131.426 -149.221 -2.14794
vn -0.964189 0.102151 0.244755
v -137.746 -146.276 6.09351
vn -0.302751 0.101369 -0.947664
v -129.592 -145.217 -3.23491
vn 0.0183385 -0.0248549 -0.999523
v -128.048 -145.458 -3.46937
vn -0.903671 0.191282 0.383132
v -137.151 -145.546 7.15924
vn -0.35612 0.440267 -0.824223
v -129.852 -143.645 -2.73779
vn -0.264595 0.682773 -0.681036
v -129.355 -143.128 -2.48538
vn -0.0497709 0.220971 -0.97401
v -127.975 -144.349 -3.38167
vn 0.0904954 0.49759 -0.862679
v -127.785 -143.698 -3.14647
vn 0.151662 0.664382 -0.731844
v -127.922 -142.648 -2.11332
vn 0.268133 0.122325 -0.955584
v -127.253 -144.666 -3.33282
vn -0.519509 0.606222 -0.602167
v -131.803 -142.224 0.861649
vn -0.339032 0.610187 -0.716051
v -128.395 -140.453 -0.109666
vn -0.00103201 0.546019 -0.837772
v -127.51 -140.55 -0.37749
vn -0.722184 0.668233 -0.178645
v -130.841 -139.483 2.81776
vn -0.801033 0.574206 -0.169215
v -130.529 -139.192 2.56643
vn -0.850178 0.526468 -0.00535166
v -130.342 -138.958 3.01378
vn -0.372276 0.799599 -0.471225
v -132.347 -140.766 2.84928
vn -0.25814 0.944088 -0.20509
v -132.9 -140.47 4.90748
vn -0.58816 0.72696 -0.354398
v -131.207 -139.745 3.03264
vn -0.483483 0.725152 -0.490305
v -130.816 -139.238 3.63454
vn -0.747565 0.583458 -0.31737
v -130.346 -139.032 3.48977
vn -0.673424 0.719127 0.171338
v -132.45 -140.864 7.34479
vn -0.257266 0.456398 -0.851772
v -127.836 -139.243 0.455786
vn -0.038377 0.437798 -0.898254
v -127.345 -139.425 0.271215
vn -0.0471208 0.347003 -0.936679
v -127.075 -138.446 0.647873
vn -0.908338 0.344577 -0.237042
v -130.276 -138.678 3.49539
vn -0.761913 0.364652 -0.535274
v -130.418 -138.669 3.81964
vn -0.76311 0.605377 -0.226234
v -130.889 -138.549 4.34196
vn -0.83856 0.537077 -0.0914645
v -131.018 -138.289 5.47457
vn -0.204562 0.413947 -0.887019
v -126.512 -136.115 1.41854
vn -0.742985 0.488218 -0.457839
v -128.201 -135.284 3.17615
vn -0.296736 0.409082 -0.862902
v -125.92 -132.784 3.08122
vn -0.557505 0.396184 -0.729538
v -125.08 -129.128 4.44951
vn -0.886739 0.373815 -0.27195
v -126.739 -128.513 7.49015
vn -0.713603 0.3371 -0.614113
v -124.86 -125.664 6.28121
vn -0.433076 0.307146 -0.847412
v -123.161 -122.005 6.52776
vn -0.283409 0.273683 -0.919117
v -122.379 -119.88 6.78442
vn -0.457145 0.245788 -0.854756
v -120.066 -113.357 7.93055
vn -0.688438 0.298028 -0.661236
v -120.62 -113.193 8.39676
vn -0.139087 0.187578 -0.972353
v -120.28 -115.133 7.5754
vn -0.40459 0.282506 -0.869769
v -120.682 -114.987 7.74531
vn -0.900092 0.292971 -0.322493
v -121.357 -110.982 11.0105
vn -0.971877 0.211997 0.102529
v -121.394 -110.512 13.0048
vn -0.277387 0.141213 -0.950324
v -118.601 -109.053 8.37658
vn -0.964334 0.150399 -0.217809
v -120.836 -108.195 11.447
vn 0.0172892 -0.0315892 -0.999351
v -116.004 -102.858 8.40011
vn -0.977464 0.0611367 0.202054
v -120.294 -104.646 14.2968
vn 0.76402 -0.0448424 -0.643633
v -112.365 -96.4042 8.82525
vn -0.617357 0.246091 0.747201
v -116.486 -95.2408 19.9211
vn 0.819982 -0.10311 -0.563025
v -112.082 -95.055 9.25952
vn 0.663172 0.453295 -0.595589
v -109.889 -87.9428 11.8736
vn 0.900246 0.434077 -0.0336735
v -109.613 -87.8438 12.9097
vn 0.894121 0.0521046 -0.444784
v -109.2 -90.1568 11.8345
vn 0.784881 0.39827 0.474702
v -110.15 -88.1517 15.505
vn 0.144666 0.579521 0.802014
v -113.776 -86.9882 17.6802
vn 0.543901 0.433594 0.718448
v -112.023 -87.7786 17.1983
vn -0.249054 0.414664 0.875229
v -114.438 -88.1798 18.3961
vn 0.765258 0.591442 0.25412
v -110.662 -86.437 14.176
vn -0.468523 -0.56254 -0.681201
v -133.685 -153.075 0.862124
vn -0.296206 -0.775143 -0.558046
v -132.171 -154.262 1.10158
vn -0.459892 -0.787276 -0.410726
v -135.035 -154.059 3.43929
vn -0.544407 -0.803598 -0.240521
v -135.432 -154.065 4.02067
vn -0.709752 -0.696661 -0.104476
v -136.406 -153.436 4.5898
vn -0.81075 -0.439295 0.386917
v -136.723 -152.635 6.37476
vn -0.704192 -0.685504 0.184927
v -136.327 -153.391 5.87445
vn -0.481277 -0.866661 0.131423
v -134.913 -154.513 5.63113
vn -0.595785 -0.660563 0.456833
v -135.518 -153.622 7.22815
vn -0.160583 -0.430624 -0.888131
v -130.671 -151.543 -1.68861
vn -0.149398 -0.644172 -0.750148
v -130.289 -153.097 -0.751797
vn -0.872423 -0.126919 0.471985
v -137.087 -150.238 7.44508
vn -0.634207 -0.31133 0.707711
v -135.69 -150.373 9.37267
vn 0.353804 -0.440648 -0.825017
v -128.38 -149.301 -2.60943
vn 0.402027 -0.449763 -0.797551
v -128.556 -150.489 -1.92524
vn 0.698646 -0.411628 -0.585197
v -128.203 -149.866 -1.95386
vn 0.782833 -0.367659 -0.501996
v -127.447 -149.164 -1.14724
vn -0.659139 0.161711 0.734429
v -135.798 -147.672 9.62273
vn 0.168191 -0.218087 -0.961327
v -128.088 -147.011 -3.27535
vn 0.356605 -0.108742 -0.927905
v -127.224 -145.451 -3.31449
vn 0.557377 -0.338384 -0.758174
v -127.157 -147.899 -2.62184
vn 0.81896 -0.26448 -0.509268
v -126.217 -146.011 -2.5133
vn 0.770318 -0.494786 -0.40224
v -127.181 -148.333 -2.24774
vn 0.899894 -0.296066 -0.320212
v -125.829 -146.387 -1.18895
vn -0.288191 0.37542 0.880912
v -133.907 -146.675 10.3524
vn 0.446249 0.281818 -0.849376
v -126.726 -144.17 -3.03386
vn 0.445839 0.598395 -0.665695
v -126.675 -143.802 -2.81857
vn 0.416615 0.658518 -0.626726
v -126.74 -143.484 -2.47005
vn 0.344044 0.57961 -0.738706
v -126.756 -143.139 -2.17427
vn 0.577475 0.0550611 -0.81455
v -126.547 -144.639 -2.98818
vn 0.733697 0.314676 -0.602219
v -126.394 -143.982 -2.69282
vn 0.653362 0.501093 -0.567471
v -126.441 -143.632 -2.34612
vn 0.581262 -0.138757 -0.801798
v -126.526 -145.423 -2.95597
vn 0.787465 -0.0115898 -0.616251
v -126.174 -145.238 -2.64733
vn 0.929636 0.0570195 -0.364042
v -125.417 -144.632 -1.23544
vn 0.888808 0.233582 -0.394285
v -125.602 -142.039 -0.275019
vn 0.864017 0.160641 -0.477147
v -125.25 -141.584 0.931423
vn 0.287955 0.31719 -0.903589
v -126.476 -139.426 0.352758
vn 0.502741 0.429881 -0.74997
v -126.224 -139.908 0.282725
vn 0.699073 0.16794 -0.695049
v -125.83 -139.388 0.794587
vn -0.860636 0.349621 0.370231
v -130.306 -137.394 7.61286
vn 0.205947 0.264547 -0.942126
v -124.547 -132.238 3.19911
vn 0.681753 0.00825425 -0.731536
v -122.829 -132.333 4.00305
vn -0.0831093 0.293711 -0.952275
v -121.899 -124.49 5.42905
vn -0.902033 0.194301 0.385466
v -124.021 -121.771 13.4424
vn -0.760733 0.0409462 0.647773
v -123.127 -121.189 14.6321
vn 0.349603 0.0339002 -0.936284
v -117.308 -119.12 7.68586
vn -0.865889 0.0269552 0.499509
v -119.354 -107.051 17.2059
vn 0.568789 -0.0778719 -0.818789
v -112.842 -102.808 9.23714
vn -0.746934 0.281476 0.60238
v -115.134 -96.8608 21.6219
vn 0.681379 -0.00607702 -0.731906
v -110.073 -96.2997 11.6699
vn 0.57519 0.118674 -0.809366
v -109.735 -96.1126 12.0017
vn 0.441118 0.0633894 -0.895207
v -109.515 -96.5889 11.9826
vn -0.398547 0.345718 0.849494
v -114.696 -93.35 20.1428
vn -0.0581685 0.415356 0.907797
v -114.226 -93.1858 20.2617
vn -0.278529 0.518035 0.80874
v -114.253 -94.8374 21.0425
vn -0.0818066 0.649789 0.7557
v -113.039 -94.0565 20.5518
vn 0.438583 0.499434 0.747135
v -112.319 -93.5971 20.1217
vn 0.846015 0.144509 -0.513201
v -108.891 -90.9026 13.2728
vn 0.929257 0.315752 0.191787
v -108.774 -90.7425 14.1552
vn 0.0505865 -0.84396 -0.534016
v -128.575 -155.014 1.34464
vn -0.221146 -0.92358 -0.313202
v -131.099 -155.399 2.71561
vn -0.157601 -0.987423 -0.0125594
v -130.92 -155.579 3.67329
vn -0.337277 -0.934135 -0.116775
v -133.971 -154.917 4.60446
vn -0.203061 -0.950086 0.236859
v -133.585 -154.914 6.08436
vn -0.219177 -0.830084 0.51276
v -134.19 -154.024 7.68138
vn 0.332823 -0.475995 -0.814038
v -128.46 -153.038 -0.673595
vn 0.633851 -0.22883 -0.73883
v -127.796 -151.785 -0.661402
vn 0.348908 -0.161933 -0.923061
v -126.919 -152.664 0.080048
vn -0.30153 -0.604754 0.737124
v -134.389 -153.108 8.70009
vn -0.131154 -0.38053 0.915421
v -133.35 -151.111 10.1148
vn 0.510108 -0.112196 -0.852761
v -126.321 -149.84 0.069471
vn -0.375967 -0.086162 0.922619
v -134.682 -149.031 10.3127
vn 0.727707 -0.316074 -0.608719
v -125.095 -146.975 0.528493
vn 0.20488 0.0757294 -0.975853
v -125.122 -148.872 0.43135
vn 0.363452 0.22668 -0.903615
v -124.644 -147.587 0.744382
vn -0.288141 0.359849 0.887403
v -132.833 -145.932 10.04
vn 0.0206664 -0.122759 0.992221
v -132.185 -147.893 10.9437
vn 0.919798 0.0543671 -0.388608
v -125.086 -144.732 0.926052
vn 0.633785 0.29697 -0.714231
v -124.255 -144.139 2.21761
vn 0.888315 0.0710628 -0.453704
v -123.497 -142.411 3.83291
vn -0.610918 0.171414 0.772914
v -129.494 -140.014 9.80053
vn -0.601272 -0.039728 0.798056
v -122.227 -125.192 15.595
vn -0.562452 -0.0854609 0.822401
v -119.449 -117.125 17.8847
vn 0.44174 -0.101604 -0.891371
v -112.407 -110.535 10.6676
vn -0.783768 -0.00934661 0.620984
v -116.849 -105.073 22.2267
vn 0.460214 0.0234607 -0.887498
v -110.248 -104.658 11.4524
vn 0.451651 -0.00378456 -0.892187
v -109.443 -99.3797 12.398
vn -0.545317 0.497534 0.674604
v -113.913 -97.8139 24.3265
vn 0.507603 0.186547 -0.841154
v -106.235 -96.6556 13.2351
vn -0.474229 0.594375 0.649481
v -114.108 -95.8351 22.0862
vn -0.0844662 0.705285 0.703874
v -113.201 -96.228 23.1663
vn 0.446615 0.587404 0.674901
v -112.719 -96.3246 23.0619
vn 0.801752 0.390031 -0.452847
v -107.054 -94.4296 13.5507
vn 0.723433 0.530641 0.441662
v -107.82 -94.8776 16.0192
vn 0.0552641 -0.991151 -0.120689
v -129.715 -155.671 3.18935
vn 0.0652478 -0.968091 0.241958
v -130.495 -155.488 5.16739
vn 0.0869473 -0.86165 0.5
v -130.714 -154.917 6.62449
vn 0.40895 -0.598603 -0.688792
v -126.488 -154.15 0.99822
vn 0.411466 -0.865901 -0.284449
v -126.43 -154.688 1.81253
vn 0.740945 -0.624368 -0.247316
v -125.888 -154.104 1.5141
vn 0.82545 -0.499291 0.263328
v -125.405 -153.348 2.71771
vn 0.364208 -0.927225 0.0872115
v -126.924 -155.143 3.58447
vn 0.688692 -0.725037 -0.00497064
v -126.17 -154.637 3.20913
vn 0.908337 -0.157847 0.387309
v -126.268 -153.934 3.89972
vn 0.78502 -0.0844678 0.613684
v -126.736 -153.883 4.84444
vn 0.368878 -0.844139 0.389049
v -126.607 -154.669 4.59588
vn 0.134876 -0.60865 0.781891
v -130.87 -153.449 8.43789
vn 0.773989 -0.311005 0.551559
v -126.154 -152.888 4.27168
vn 0.184884 0.206791 -0.960758
v -124.177 -148.887 0.391836
vn 0.529047 -0.258449 -0.808278
v -123.447 -149.986 0.491409
vn 0.628845 0.291657 -0.720757
v -122.73 -148.869 1.00023
vn 0.7962 -0.458063 -0.395277
v -122.421 -149.427 1.46824
vn 0.897105 -0.347485 0.272867
v -122.509 -149.544 2.45
vn 0.401513 -0.277041 0.872947
v -128.364 -147.879 10.2195
vn 0.946594 0.220076 -0.235639
v -122.641 -147.144 2.23606
vn 0.834206 0.312857 -0.454116
v -123.282 -145.377 2.53368
vn 0.0720841 0.156262 0.985082
v -129.363 -146.374 10.7144
vn 0.108356 -0.0663817 0.991893
v -128.524 -145.151 10.4443
vn 0.394467 -0.224413 0.891086
v -127.434 -145.191 10.1696
vn 0.998177 0.00761481 -0.0598712
v -123.052 -143.995 5.33474
vn 0.950646 -0.201225 0.236181
v -123.246 -144.143 6.78886
vn 0.683 -0.423193 0.595331
v -123.908 -144.77 7.68588
vn -0.101458 -0.199632 0.974604
v -126.606 -142.941 10.7304
vn 0.397491 -0.461858 0.792899
v -125.69 -143.632 10.1807
vn 0.975643 -0.199345 -0.0915507
v -122.71 -142.014 6.4787
vn 0.933432 -0.345394 0.0969871
v -122.994 -142.52 8.01126
vn 0.740625 -0.466448 0.483633
v -123.197 -142.22 9.09339
vn 0.354766 -0.43549 0.827338
v -124.927 -141.434 11.2444
vn 0.921444 -0.247415 -0.299545
v -121.879 -139.412 7.23415
vn 0.327085 -0.400494 0.855932
v -120.378 -130.761 14.1581
vn -0.135182 -0.25358 0.957822
v -119.836 -123.352 16.9379
vn 0.824404 -0.258117 -0.50372
v -114.14 -120.675 11.3366
vn -0.138668 -0.33747 0.931067
v -117.63 -119.14 18.3832
vn 0.61182 -0.1733 -0.771779
v -113.627 -117.868 10.755
vn 0.784743 -0.310507 -0.536436
v -112.176 -115.352 11.2902
vn -0.455887 -0.370438 0.809285
v -116.088 -114.374 20.565
vn 0.71922 -0.47886 -0.503404
v -109.783 -112.248 12.9478
vn -0.758387 -0.171398 0.628865
v -117.206 -112.673 20.1477
vn -0.871559 -0.180968 0.45567
v -116.87 -111.802 21.0248
vn -0.923259 -0.171979 0.343534
v -116.648 -111.253 21.8143
vn -0.78915 -0.350623 0.504287
v -116.459 -112.489 21.2403
vn -0.59122 -0.513358 0.622031
v -115.974 -113.368 21.1932
vn -0.808424 -0.314404 0.497595
v -116.356 -111.628 22.4524
vn 0.561036 -0.258905 -0.786262
v -110.165 -109.695 11.4378
vn 0.591885 -0.278904 -0.756231
v -109.769 -111.174 12.4116
vn 0.464719 -0.172496 -0.868494
v -109.356 -111 12.623
vn 0.47378 -0.333913 -0.814883
v -109.224 -111.404 12.7905
vn 0.582902 -0.180081 -0.792336
v -108.635 -110.195 12.8799
vn -0.898829 -0.033866 0.436989
v -116.849 -108.098 21.8799
vn -0.793818 0.00529137 0.608132
v -116.408 -109.243 23.0522
vn -0.358581 -0.227908 0.90525
v -115.841 -110.314 23.4156
vn 0.433037 -0.125412 -0.892609
v -108.392 -107.801 11.6874
vn -0.717852 0.0792788 0.691667
v -116.191 -107.378 22.8439
vn -0.649838 0.0364133 0.7592
v -115.275 -106.704 23.3913
vn 0.201557 0.543413 0.81491
v -113.249 -97.996 24.5674
vn -0.706165 0.169385 0.687488
v -114.14 -99.7728 25.1586
vn -0.182132 0.398431 0.898933
v -113.572 -99.3478 25.3393
vn 0.857277 -0.43961 0.26799
v -117.644 -130.779 11.7204
vn 0.617615 -0.449511 0.645362
v -118.2 -130.355 12.9837
vn 0.924119 -0.357819 -0.134047
v -117.146 -129.737 11.0896
vn 0.743478 -0.486386 0.458987
v -113.981 -120.614 15.3797
vn 0.29675 -0.448817 0.842913
v -116.556 -119.575 18.2202
vn 0.907323 -0.418285 -0.0424606
v -112.687 -118.301 14.279
vn 0.176827 -0.577808 0.796787
v -114.533 -114.987 20.2222
vn -0.00997898 -0.512189 0.858815
v -115.373 -115.033 20.3543
vn 0.816057 -0.576577 -0.0401246
v -110.372 -113.995 14.8383
vn 0.77657 -0.555654 0.296964
v -110.952 -114.217 17.8109
vn 0.517961 -0.594548 0.615004
v -112.634 -114.89 19.3217
vn 0.518758 -0.552024 0.652809
v -112.138 -113.398 20.7095
vn -0.413496 -0.534761 0.736921
v -115.843 -112.119 22.6715
vn -0.170976 -0.614352 0.770285
v -115.293 -113.679 21.3088
vn 0.06705 -0.519254 0.851986
v -114.843 -111.83 22.9987
vn 0.672858 -0.343274 -0.655305
v -108.641 -110.975 12.9537
vn 0.756833 -0.163339 -0.63287
v -108.527 -110.652 13.0413
vn 0.665129 -0.384978 -0.639841
v -108.251 -110.016 13.1376
vn 0.681237 -0.729224 0.0644131
v -108.348 -111.165 15.789
vn -0.425266 -0.268274 0.864395
v -114.631 -109.006 24.0316
vn 0.304761 -0.470152 0.828298
v -114.236 -109.873 23.5782
vn -0.0162134 -0.491089 0.870959
v -114.28 -109.367 23.9102
vn 0.772681 -0.54339 -0.328164
v -107.454 -110.156 14.5809
vn 0.693081 -0.706643 -0.14246
v -106.457 -109.651 15.5582
vn -0.651218 -0.0360949 0.758032
v -114.802 -108.538 23.972
vn -0.738797 -0.0871452 0.66827
v -114.349 -107.687 24.6593
vn 0.238261 -0.522998 0.818355
v -113.763 -108.303 24.5296
vn -0.039695 -0.441478 0.896393
v -114.016 -107.499 25.0004
vn 0.716851 -0.380403 -0.584311
v -104.836 -106.643 14.1721
vn 0.772763 -0.557564 -0.30325
v -105.062 -107.781 14.9815
vn 0.153169 -0.423941 0.892644
v -113.026 -106.091 25.5764
vn 0.395468 -0.438352 0.807126
v -112.479 -105.21 25.8204
vn 0.473618 -0.489675 0.732055
v -111.467 -105.877 24.8655
vn 0.526893 -0.417247 0.740465
v -109.377 -103.667 24.6836
vn -0.733429 -0.0443842 0.678316
v -112.768 -103.27 26.5083
vn -0.21619 0.0965737 0.971563
v -112.678 -102.944 26.6329
vn 0.269975 0.380833 0.884353
v -111.896 -101.975 26.2475
vn 0.125696 -0.30696 0.943385
v -112.273 -103.496 26.5908
vn 0.393039 0.0257385 0.919161
v -111.683 -102.967 26.5117
vn 0.491439 -0.364738 0.790856
v -110.87 -103.59 25.8169
vn 0.711013 0.340767 -0.615093
v -102.354 -101.318 15.139
vn 0.835129 -0.00208857 -0.550049
v -102.285 -101.712 15.0075
vn 0.8576 0.477184 0.191877
v -102.386 -101.248 15.5246
vn 0.971054 0.201965 0.127529
v -102.207 -101.855 15.7013
vn 0.647173 0.546305 0.531713
v -105.494 -99.7739 19.2286
vn 0.737808 0.579283 0.346512
v -104.015 -99.1936 15.9477
vn 0.69454 -0.690836 0.200899
v -106.442 -109.514 17.207
vn 0.680643 -0.635212 0.365008
v -108.191 -110.149 19.0859
vn 0.522094 -0.493514 0.695602
v -108.914 -109.705 20.2438
vn 0.798379 -0.601081 -0.0359509
v -105.234 -108.263 15.7541
vn 0.647296 -0.599577 0.470654
v -105.525 -106.883 19.9743
vn 0.707572 -0.675812 0.206444
v -103.813 -105.185 19.1989
vn 0.837965 -0.526204 0.144651
v -102.718 -104.331 18.1319
vn 0.617632 -0.625586 0.476627
v -104.377 -105.474 20.1212
vn 0.674529 -0.721217 0.157658
v -103.514 -104.696 20.1587
vn 0.288496 -0.872242 0.394924
v -106.932 -103.728 23.3112
vn 0.611634 0.369459 0.699574
v -106.756 -103.107 23.7673
vn 0.485188 -0.553314 0.677079
v -105.675 -104.07 22.0601
vn 0.363328 -0.869005 0.335891
v -106.597 -103.517 23.4963
vn 0.302091 -0.918949 0.253524
v -106.723 -103.516 23.8318
vn 0.686315 -0.301667 0.661792
v -105.209 -103.47 21.8705
vn 0.702418 0.375554 0.604622
v -106.485 -103.185 23.53
vn 0.409925 -0.655588 0.634166
v -108.073 -104.033 23.4634
vn 0.492954 -0.393218 0.776129
v -107.926 -103.395 23.8998
vn 0.468233 -0.0377346 0.882799
v -108.049 -102.624 24.154
vn 0.21324 -0.89496 0.391887
v -107.433 -103.627 23.8166
vn -0.0503967 -0.43992 0.896622
v -107.378 -103.265 24.0218
vn 0.433545 0.312717 0.845131
v -107.123 -102.904 23.9313
vn 0.945667 -0.293034 -0.140872
v -102.238 -103.473 16.2737
vn 0.786399 0.416908 0.455811
v -103.292 -101.657 17.9018
vn 0.951619 0.032299 0.305577
v -102.435 -103.617 17.8168
vn 0.498844 0.422226 0.756889
v -107.72 -102.316 23.9116
vn -0.30648 0.586715 -0.749557
v -135.832 -142.62 2.12817
vn -0.455362 0.881649 0.123859
v -136.774 -142.581 4.4344
vn -0.262471 0.781321 -0.566256
v -135.519 -141.68 2.63474
vn -0.820213 0.457901 -0.342895
v -135.519 -141.68 2.63474
vn -0.892987 0.360795 0.269076
v -136.391 -142.558 5.6743
vn -0.454598 0.519612 0.723425
v -136.391 -142.558 5.6743
vn -0.522456 0.482259 0.703183
v -137.151 -145.546 7.15924
vn -0.712377 0.653414 -0.256064
v -132.347 -140.766 2.84928
vn -0.313815 0.663617 -0.679067
v -132.347 -140.766 2.84928
vn -0.672448 0.701028 0.237431
v -132.9 -140.47 4.90748
vn -0.689264 0.667697 -0.281239
v -132.9 -140.47 4.90748
vn -0.606068 0.395787 0.689952
v -132.45 -140.864 7.34479
vn -0.522257 0.523019 -0.673571
v -130.889 -138.549 4.34196
vn 0.662313 0.100823 -0.742413
v -125.095 -146.975 0.528493
vn 0.81569 0.540528 0.206107
v -107.054 -94.4296 13.5507
vn 0.895254 -0.229906 0.381658
v -126.17 -154.637 3.20913
vn 0.852968 -0.0968293 0.512904
v -126.607 -154.669 4.59588
vn 0.664607 -0.259798 0.700573
v -130.87 -153.449 8.43789
vn 0.725042 -0.160482 -0.669746
v -122.73 -148.869 1.00023
vn 0.981316 0.139494 -0.132515
v -122.421 -149.427 1.46824
vn -0.672593 -0.131487 0.728238
v -114.016 -107.499 25.0004
vn -0.227212 -0.285327 0.931109
v -112.768 -103.27 26.5083
vn 0.935216 0.353231 -0.0244777
v -102.354 -101.318 15.139
vn 0.920437 -0.222244 0.321563
v -103.514 -104.696 20.1587
vn 0.78597 0.330646 0.522422
v -103.514 -104.696 20.1587
vn 0.541204 -0.392004 0.74393
v -103.514 -104.696 20.1587
vn 0.784073 -0.338287 0.520376
v -106.597 -103.517 23.4963
vn 0.492195 0.12789 0.861039
v -106.723 -103.516 23.8318
vn 0.883168 -0.331438 0.331908
v -106.723 -103.516 23.8318
vn 0.0592158 -0.499376 0.864359
v -106.723 -103.516 23.8318
vn 0.748172 0.401298 0.528393
v -105.209 -103.47 21.8705
vn 0.816253 -0.323756 0.478448
v -106.485 -103.185 23.53
vn -0.114525 -0.54315 0.831788
v -108.073 -104.033 23.4634
vn -0.10854 -0.453944 0.884395
v -107.926 -103.395 23.8998
vn -0.130072 -0.328854 0.93538
v -108.049 -102.624 24.154
vn -0.0450264 -0.510097 0.858938
v -107.433 -103.627 23.8166
vn 0.271166 0.0494235 0.961263
v -107.378 -103.265 24.0218
f 2//2 13//13 1//1
f 1//1 13//13 11//11
f 11//11 14//14 1//1
f 1//1 14//14 4//4
f 1//1 3//3 2//2
f 1//1 4//4 3//3
f 2//2 3//3 5//5
f 5//5 3//3 6//6
f 5//5 10//10 2//2
f 14//14 44//44 4//4
f 3//3 9//9 6//6
f 3//3 4//4 9//9
f 5//5 6//6 7//7
f 6//6 9//9 8//8
f 8//8 7//7 6//6
f 4//4 44//44 17//17
f 4//4 17//17 9//9
f 10//10 40//40 36//36
f 40//40 10//10 15//15
f 38//38 11//11 37//37
f 11//11 38//38 12//12
f 12//12 14//14 11//11
f 12//12 41//41 14//14
f 38//38 41//41 12//12
f 37//37 11//11 13//13
f 10//10 13//13 2//2
f 36//36 13//13 10//10
f 41//41 44//44 14//14
f 45//45 42//42 15//15
f 15//15 10//10 5//5
f 7//7 16//16 5//5
f 48//48 16//16 18//18
f 5//5 16//16 15//15
f 16//16 48//48 15//15
f 7//7 18//18 16//16
f 44//44 49//49 17//17
f 18//18 23//23 48//48
f 48//48 23//23 120//120
f 8//8 18//18 7//7
f 19//19 18//18 8//8
f 9//9 20//20 8//8
f 9//9 17//17 20//20
f 17//17 51//51 20//20
f 23//23 18//18 21//21
f 21//21 18//18 19//19
f 21//21 19//19 22//22
f 20//20 19//19 8//8
f 20//20 22//22 19//19
f 23//23 21//21 24//24
f 21//21 22//22 24//24
f 24//24 22//22 25//25
f 25//25 22//22 26//26
f 22//22 20//20 26//26
f 24//24 52//52 23//23
f 52//52 24//24 53//53
f 53//53 24//24 25//25
f 53//53 25//25 26//26
f 30//30 27//27 66//66
f 64//64 65//65 27//27
f 65//65 66//66 27//27
f 30//30 66//66 31//31
f 66//66 67//67 70//70
f 31//31 66//66 70//70
f 74//74 71//71 28//28
f 28//28 29//29 74//74
f 27//27 29//29 28//28
f 27//27 30//30 29//29
f 34//34 33//33 359//359
f 29//29 358//358 32//32
f 360//360 32//32 358//358
f 360//360 86//86 32//32
f 87//87 86//86 360//360
f 30//30 31//31 361//361
f 35//35 114//114 37//37
f 35//35 37//37 36//36
f 114//114 35//35 108//108
f 36//36 113//113 35//35
f 37//37 13//13 36//36
f 40//40 115//115 36//36
f 37//37 114//114 38//38
f 38//38 114//114 39//39
f 39//39 41//41 38//38
f 115//115 40//40 42//42
f 115//115 42//42 176//176
f 40//40 15//15 42//42
f 43//43 176//176 42//42
f 43//43 42//42 45//45
f 45//45 46//46 43//43
f 176//176 43//43 117//117
f 46//46 117//117 43//43
f 46//46 119//119 117//117
f 48//48 47//47 15//15
f 47//47 45//45 15//15
f 46//46 45//45 47//47
f 119//119 46//46 122//122
f 122//122 46//46 47//47
f 50//50 49//49 44//44
f 47//47 120//120 122//122
f 47//47 48//48 120//120
f 20//20 51//51 58//58
f 124//124 58//58 51//51
f 51//51 17//17 49//49
f 51//51 49//49 126//126
f 126//126 124//124 51//51
f 50//50 126//126 49//49
f 23//23 52//52 120//120
f 52//52 53//53 56//56
f 56//56 53//53 54//54
f 53//53 26//26 54//54
f 54//54 26//26 55//55
f 120//120 52//52 56//56
f 56//56 54//54 57//57
f 54//54 55//55 57//57
f 58//58 55//55 26//26
f 121//121 120//120 56//56
f 55//55 59//59 57//57
f 59//59 55//55 58//58
f 127//127 56//56 57//57
f 127//127 121//121 56//56
f 127//127 57//57 59//59
f 26//26 20//20 58//58
f 124//124 59//59 58//58
f 63//63 60//60 64//64
f 60//60 63//63 128//128
f 60//60 61//61 65//65
f 60//60 132//132 61//61
f 128//128 130//130 60//60
f 132//132 62//62 61//61
f 62//62 67//67 61//61
f 137//137 63//63 69//69
f 128//128 63//63 137//137
f 27//27 63//63 64//64
f 64//64 60//60 65//65
f 65//65 61//61 66//66
f 61//61 67//67 66//66
f 28//28 71//71 68//68
f 28//28 69//69 63//63
f 28//28 68//68 69//69
f 69//69 68//68 137//137
f 63//63 27//27 28//28
f 67//67 139//139 70//70
f 70//70 139//139 73//73
f 139//139 145//145 73//73
f 72//72 68//68 71//71
f 68//68 72//72 146//146
f 147//147 146//146 72//72
f 79//79 147//147 72//72
f 148//148 146//146 147//147
f 157//157 147//147 79//79
f 31//31 73//73 362//362
f 31//31 70//70 73//73
f 145//145 363//363 364//364
f 74//74 75//75 77//77
f 75//75 78//78 77//77
f 74//74 76//76 71//71
f 77//77 76//76 74//74
f 75//75 82//82 78//78
f 71//71 76//76 72//72
f 76//76 77//77 79//79
f 77//77 78//78 154//154
f 79//79 72//72 76//76
f 155//155 154//154 78//78
f 78//78 156//156 155//155
f 156//156 78//78 166//166
f 78//78 82//82 166//166
f 157//157 79//79 153//153
f 153//153 79//79 77//77
f 77//77 154//154 153//153
f 74//74 29//29 75//75
f 80//80 81//81 75//75
f 75//75 29//29 80//80
f 29//29 32//32 80//80
f 32//32 86//86 80//80
f 91//91 33//33 34//34
f 91//91 367//367 33//33
f 81//81 82//82 75//75
f 81//81 92//92 82//82
f 81//81 80//80 92//92
f 93//93 165//165 82//82
f 92//92 93//93 82//82
f 166//166 82//82 165//165
f 83//83 84//84 80//80
f 88//88 83//83 80//80
f 88//88 90//90 83//83
f 84//84 100//100 80//80
f 85//85 84//84 83//83
f 83//83 90//90 85//85
f 84//84 85//85 100//100
f 95//95 85//85 90//90
f 100//100 85//85 95//95
f 86//86 88//88 80//80
f 368//368 98//98 365//365
f 98//98 97//97 365//365
f 89//89 88//88 86//86
f 366//366 370//370 89//89
f 89//89 90//90 88//88
f 370//370 90//90 89//89
f 90//90 96//96 95//95
f 90//90 370//370 96//96
f 367//367 91//91 98//98
f 99//99 92//92 80//80
f 92//92 94//94 93//93
f 93//93 94//94 165//165
f 94//94 99//99 165//165
f 94//94 92//92 99//99
f 100//100 99//99 80//80
f 95//95 96//96 100//100
f 96//96 370//370 100//100
f 98//98 100//100 97//97
f 100//100 98//98 103//103
f 98//98 91//91 168//168
f 99//99 169//169 165//165
f 99//99 101//101 169//169
f 100//100 101//101 99//99
f 101//101 100//100 102//102
f 102//102 105//105 171//171
f 102//102 171//171 101//101
f 100//100 103//103 102//102
f 102//102 104//104 105//105
f 101//101 171//171 169//169
f 102//102 103//103 104//104
f 103//103 111//111 104//104
f 105//105 104//104 106//106
f 171//171 105//105 106//106
f 171//171 106//106 174//174
f 103//103 112//112 111//111
f 174//174 106//106 109//109
f 104//104 111//111 108//108
f 104//104 108//108 106//106
f 103//103 172//172 112//112
f 110//110 106//106 108//108
f 107//107 109//109 110//110
f 110//110 108//108 107//107
f 106//106 110//110 109//109
f 174//174 109//109 113//113
f 107//107 108//108 35//35
f 109//109 107//107 113//113
f 112//112 114//114 111//111
f 172//172 175//175 112//112
f 35//35 113//113 107//107
f 111//111 114//114 108//108
f 113//113 36//36 115//115
f 113//113 115//115 174//174
f 116//116 114//114 112//112
f 116//116 112//112 175//175
f 174//174 115//115 176//176
f 116//116 39//39 114//114
f 175//175 39//39 116//116
f 119//119 178//178 117//117
f 179//179 178//178 119//119
f 118//118 50//50 44//44
f 41//41 118//118 44//44
f 126//126 118//118 181//181
f 119//119 122//122 186//186
f 126//126 50//50 118//118
f 121//121 122//122 120//120
f 121//121 127//127 123//123
f 187//187 122//122 121//121
f 121//121 123//123 187//187
f 122//122 187//187 186//186
f 123//123 59//59 125//125
f 123//123 185//185 187//187
f 59//59 124//124 125//125
f 125//125 124//124 185//185
f 125//125 185//185 123//123
f 126//126 185//185 124//124
f 123//123 127//127 59//59
f 188//188 129//129 138//138
f 128//128 129//129 130//130
f 128//128 138//138 129//129
f 129//129 189//189 130//130
f 188//188 189//189 129//129
f 130//130 131//131 60//60
f 60//60 131//131 132//132
f 130//130 189//189 191//191
f 191//191 131//131 130//130
f 191//191 135//135 131//131
f 134//134 62//62 132//132
f 62//62 133//133 67//67
f 62//62 134//134 133//133
f 135//135 134//134 132//132
f 135//135 132//132 131//131
f 134//134 135//135 136//136
f 134//134 136//136 133//133
f 194//194 137//137 142//142
f 137//137 194//194 138//138
f 128//128 137//137 138//138
f 133//133 139//139 67//67
f 140//140 139//139 133//133
f 140//140 133//133 136//136
f 140//140 145//145 139//139
f 140//140 198//198 200//200
f 200//200 145//145 140//140
f 137//137 68//68 141//141
f 141//141 68//68 146//146
f 146//146 148//148 141//141
f 150//150 141//141 148//148
f 141//141 143//143 142//142
f 137//137 141//141 142//142
f 150//150 143//143 141//141
f 150//150 144//144 143//143
f 143//143 194//194 142//142
f 143//143 195//195 194//194
f 200//200 152//152 145//145
f 160//160 147//147 157//157
f 160//160 148//148 147//147
f 148//148 160//160 149//149
f 149//149 160//160 161//161
f 150//150 149//149 151//151
f 148//148 149//149 150//150
f 151//151 144//144 150//150
f 152//152 363//363 145//145
f 152//152 204//204 363//363
f 157//157 153//153 158//158
f 158//158 153//153 154//154
f 159//159 158//158 154//154
f 154//154 155//155 159//159
f 155//155 156//156 159//159
f 159//159 156//156 166//166
f 159//159 162//162 158//158
f 161//161 160//160 157//157
f 158//158 161//161 157//157
f 158//158 162//162 161//161
f 162//162 159//159 163//163
f 161//161 162//162 149//149
f 151//151 149//149 162//162
f 206//206 162//162 163//163
f 204//204 369//369 363//363
f 166//166 163//163 159//159
f 163//163 164//164 206//206
f 164//164 163//163 166//166
f 167//167 164//164 166//166
f 164//164 208//208 206//206
f 204//204 209//209 369//369
f 167//167 166//166 165//165
f 170//170 167//167 165//165
f 168//168 369//369 209//209
f 172//172 168//168 209//209
f 165//165 169//169 170//170
f 172//172 98//98 168//168
f 174//174 170//170 169//169
f 170//170 174//174 260//260
f 171//171 174//174 169//169
f 103//103 98//98 172//172
f 172//172 173//173 175//175
f 262//262 174//174 176//176
f 212//212 262//262 176//176
f 176//176 215//215 214//214
f 176//176 117//117 178//178
f 215//215 176//176 178//178
f 39//39 118//118 41//41
f 180//180 215//215 178//178
f 217//217 215//215 180//180
f 118//118 39//39 177//177
f 177//177 218//218 118//118
f 216//216 177//177 39//39
f 216//216 218//218 177//177
f 180//180 178//178 179//179
f 179//179 217//217 180//180
f 183//183 181//181 118//118
f 183//183 182//182 181//181
f 182//182 126//126 181//181
f 183//183 184//184 182//182
f 118//118 218//218 183//183
f 183//183 218//218 184//184
f 185//185 182//182 184//184
f 179//179 119//119 186//186
f 187//187 221//221 186//186
f 217//217 179//179 186//186
f 185//185 222//222 187//187
f 217//217 186//186 221//221
f 222//222 372//372 187//187
f 182//182 185//185 126//126
f 138//138 194//194 188//188
f 189//189 190//190 191//191
f 190//190 192//192 191//191
f 190//190 224//224 192//192
f 188//188 223//223 189//189
f 189//189 223//223 190//190
f 191//191 192//192 135//135
f 225//225 193//193 192//192
f 225//225 192//192 224//224
f 225//225 235//235 193//193
f 193//193 136//136 135//135
f 197//197 136//136 193//193
f 197//197 140//140 136//136
f 193//193 135//135 192//192
f 226//226 194//194 196//196
f 195//195 196//196 194//194
f 196//196 195//195 199//199
f 188//188 194//194 226//226
f 197//197 193//193 235//235
f 197//197 198//198 140//140
f 197//197 235//235 198//198
f 235//235 205//205 198//198
f 195//195 143//143 144//144
f 199//199 195//195 144//144
f 205//205 235//235 242//242
f 200//200 205//205 152//152
f 205//205 200//200 198//198
f 201//201 144//144 151//151
f 199//199 144//144 201//201
f 196//196 199//199 202//202
f 202//202 199//199 371//371
f 202//202 371//371 203//203
f 202//202 237//237 196//196
f 203//203 237//237 202//202
f 245//245 204//204 152//152
f 152//152 205//205 245//245
f 205//205 242//242 245//245
f 162//162 206//206 151//151
f 206//206 371//371 151//151
f 371//371 206//206 207//207
f 203//203 371//371 207//207
f 207//207 208//208 244//244
f 245//245 246//246 204//204
f 167//167 208//208 164//164
f 208//208 167//167 170//170
f 208//208 207//207 206//206
f 251//251 209//209 204//204
f 204//204 246//246 251//251
f 209//209 210//210 172//172
f 210//210 209//209 251//251
f 210//210 173//173 172//172
f 175//175 173//173 210//210
f 210//210 211//211 175//175
f 211//211 266//266 175//175
f 262//262 212//212 272//272
f 277//277 213//213 175//175
f 212//212 176//176 214//214
f 280//280 212//212 214//214
f 215//215 280//280 214//214
f 213//213 39//39 175//175
f 213//213 284//284 39//39
f 215//215 217//217 280//280
f 284//284 216//216 39//39
f 219//219 283//283 220//220
f 216//216 283//283 219//219
f 372//372 222//222 331//331
f 220//220 330//330 185//185
f 330//330 222//222 185//185
f 185//185 219//219 220//220
f 219//219 185//185 184//184
f 219//219 218//218 216//216
f 218//218 219//219 184//184
f 188//188 227//227 223//223
f 227//227 230//230 223//223
f 223//223 224//224 190//190
f 224//224 223//223 230//230
f 230//230 234//234 224//224
f 225//225 224//224 234//234
f 227//227 188//188 226//226
f 226//226 228//228 227//227
f 231//231 227//227 228//228
f 231//231 228//228 229//229
f 373//373 229//229 236//236
f 373//373 236//236 232//232
f 230//230 227//227 231//231
f 232//232 236//236 233//233
f 374//374 373//373 232//232
f 232//232 233//233 374//374
f 375//375 233//233 236//236
f 234//234 230//230 231//231
f 375//375 374//374 233//233
f 235//235 225//225 234//234
f 238//238 226//226 196//196
f 238//238 228//228 226//226
f 238//238 240//240 228//228
f 228//228 240//240 241//241
f 229//229 228//228 241//241
f 241//241 236//236 229//229
f 236//236 241//241 250//250
f 236//236 250//250 375//375
f 375//375 250//250 242//242
f 203//203 207//207 237//237
f 238//238 196//196 237//237
f 238//238 237//237 239//239
f 239//239 237//237 207//207
f 240//240 238//238 376//376
f 239//239 207//207 243//243
f 377//377 239//239 243//243
f 377//377 243//243 241//241
f 250//250 241//241 249//249
f 241//241 243//243 249//249
f 247//247 245//245 242//242
f 246//246 245//245 247//247
f 243//243 207//207 244//244
f 243//243 244//244 248//248
f 243//243 248//248 249//249
f 247//247 252//252 246//246
f 242//242 250//250 247//247
f 244//244 208//208 248//248
f 248//248 208//208 253//253
f 249//249 248//248 254//254
f 248//248 253//253 254//254
f 250//250 249//249 255//255
f 249//249 254//254 255//255
f 255//255 252//252 250//250
f 252//252 247//247 250//250
f 251//251 246//246 252//252
f 208//208 170//170 257//257
f 257//257 253//253 208//208
f 257//257 254//254 253//253
f 286//286 255//255 254//254
f 286//286 287//287 255//255
f 251//251 256//256 259//259
f 256//256 252//252 255//255
f 251//251 252//252 256//256
f 255//255 287//287 256//256
f 170//170 260//260 257//257
f 259//259 256//256 258//258
f 258//258 256//256 287//287
f 288//288 254//254 257//257
f 260//260 288//288 257//257
f 259//259 210//210 251//251
f 259//259 258//258 290//290
f 261//261 259//259 290//290
f 260//260 174//174 262//262
f 291//291 288//288 260//260
f 259//259 211//211 210//210
f 261//261 211//211 259//259
f 262//262 263//263 260//260
f 260//260 263//263 291//291
f 291//291 263//263 265//265
f 295//295 291//291 294//294
f 264//264 261//261 293//293
f 264//264 266//266 211//211
f 266//266 264//264 269//269
f 211//211 261//261 264//264
f 273//273 265//265 263//263
f 265//265 294//294 291//291
f 267//267 175//175 266//266
f 175//175 267//267 277//277
f 267//267 266//266 269//269
f 278//278 277//277 268//268
f 277//277 267//267 268//268
f 268//268 267//267 269//269
f 269//269 271//271 268//268
f 271//271 278//278 268//268
f 269//269 264//264 270//270
f 269//269 270//270 271//271
f 298//298 271//271 270//270
f 271//271 279//279 278//278
f 279//279 271//271 298//298
f 263//263 262//262 272//272
f 263//263 272//272 273//273
f 276//276 273//273 272//272
f 274//274 273//273 276//276
f 265//265 273//273 275//275
f 275//275 273//273 274//274
f 294//294 265//265 301//301
f 301//301 265//265 275//275
f 275//275 274//274 301//301
f 301//301 274//274 276//276
f 301//301 276//276 302//302
f 302//302 276//276 303//303
f 213//213 277//277 281//281
f 281//281 277//277 278//278
f 279//279 282//282 278//278
f 279//279 310//310 282//282
f 280//280 272//272 212//212
f 303//303 276//276 272//272
f 303//303 272//272 280//280
f 281//281 282//282 213//213
f 278//278 282//282 281//281
f 311//311 282//282 310//310
f 213//213 320//320 284//284
f 285//285 216//216 284//284
f 285//285 283//283 216//216
f 220//220 283//283 357//357
f 222//222 330//330 331//331
f 254//254 288//288 286//286
f 288//288 291//291 286//286
f 290//290 258//258 287//287
f 286//286 291//291 289//289
f 286//286 289//289 287//287
f 287//287 289//289 290//290
f 289//289 291//291 295//295
f 290//290 292//292 261//261
f 261//261 292//292 293//293
f 290//290 296//296 292//292
f 290//290 289//289 296//296
f 264//264 299//299 270//270
f 299//299 264//264 293//293
f 293//293 292//292 299//299
f 289//289 295//295 296//296
f 295//295 294//294 333//333
f 296//296 295//295 297//297
f 295//295 333//333 297//297
f 292//292 296//296 297//297
f 299//299 298//298 270//270
f 292//292 300//300 299//299
f 300//300 298//298 299//299
f 300//300 279//279 298//298
f 300//300 292//292 297//297
f 308//308 294//294 301//301
f 302//302 308//308 301//301
f 308//308 302//302 303//303
f 308//308 304//304 294//294
f 333//333 304//304 332//332
f 304//304 333//333 294//294
f 333//333 334//334 297//297
f 334//334 306//306 297//297
f 300//300 297//297 306//306
f 318//318 312//312 306//306
f 310//310 279//279 305//305
f 307//307 305//305 279//279
f 300//300 306//306 279//279
f 279//279 306//306 307//307
f 307//307 306//306 312//312
f 315//315 303//303 314//314
f 303//303 315//315 308//308
f 315//315 309//309 308//308
f 308//308 309//309 304//304
f 304//304 309//309 332//332
f 309//309 315//315 335//335
f 309//309 335//335 332//332
f 305//305 311//311 310//310
f 320//320 282//282 311//311
f 282//282 320//320 213//213
f 307//307 313//313 305//305
f 378//378 311//311 305//305
f 320//320 311//311 378//378
f 307//307 312//312 313//313
f 313//313 316//316 379//379
f 318//318 316//316 312//312
f 312//312 316//316 313//313
f 314//314 303//303 280//280
f 334//334 318//318 306//306
f 318//318 334//334 319//319
f 379//379 316//316 323//323
f 318//318 317//317 316//316
f 316//316 317//317 323//323
f 318//318 319//319 325//325
f 318//318 325//325 317//317
f 350//350 324//324 325//325
f 357//357 324//324 350//350
f 325//325 319//319 350//350
f 319//319 349//349 350//350
f 321//321 285//285 284//284
f 321//321 284//284 320//320
f 322//322 283//283 285//285
f 283//283 322//322 357//357
f 323//323 321//321 379//379
f 322//322 285//285 321//321
f 323//323 324//324 321//321
f 324//324 322//322 321//321
f 324//324 357//357 322//322
f 317//317 325//325 323//323
f 323//323 325//325 324//324
f 326//326 217//217 221//221
f 380//380 372//372 328//328
f 327//327 314//314 280//280
f 380//380 329//329 327//327
f 326//326 327//327 217//217
f 217//217 327//327 280//280
f 329//329 380//380 328//328
f 329//329 354//354 327//327
f 327//327 354//354 314//314
f 355//355 329//329 328//328
f 354//354 329//329 356//356
f 330//330 355//355 331//331
f 329//329 355//355 356//356
f 328//328 372//372 331//331
f 331//331 355//355 328//328
f 338//338 332//332 335//335
f 333//333 332//332 336//336
f 333//333 336//336 334//334
f 335//335 315//315 338//338
f 332//332 338//338 336//336
f 336//336 338//338 337//337
f 343//343 334//334 336//336
f 337//337 339//339 336//336
f 336//336 339//339 343//343
f 334//334 348//348 319//319
f 354//354 315//315 314//314
f 315//315 354//354 338//338
f 354//354 356//356 338//338
f 339//339 337//337 340//340
f 356//356 381//381 338//338
f 340//340 337//337 338//338
f 355//355 382//382 356//356
f 339//339 383//383 343//343
f 383//383 346//346 343//343
f 388//388 382//382 355//355
f 334//334 343//343 348//348
f 341//341 348//348 343//343
f 341//341 351//351 348//348
f 357//357 330//330 220//220
f 357//357 353//353 330//330
f 341//341 343//343 344//344
f 351//351 341//341 345//345
f 344//344 345//345 341//341
f 342//342 353//353 385//385
f 388//388 330//330 347//347
f 342//342 347//347 330//330
f 353//353 342//342 330//330
f 384//384 346//346 389//389
f 342//342 385//385 347//347
f 389//389 386//386 384//384
f 384//384 343//343 346//346
f 319//319 348//348 349//349
f 390//390 393//393 391//391
f 393//393 352//352 391//391
f 352//352 392//392 391//391
f 350//350 394//394 353//353
f 350//350 353//353 357//357
f 393//393 387//387 352//352
f 385//385 353//353 394//394
f 330//330 388//388 355//355
