# Wavafront OBJ file of BodyParts3D
# BodyParts3D, Copyright(C) 2010-2011 The Database Center for Life Science licensed under CC Attribution-Share Alike 2.1 Japan.
vn -0.936435 -0.277641 0.21449
v 270.815 -178.216 674.303
vn -0.968481 0.243614 -0.0519312
v 270.706 -177.626 673.713
vn -0.986731 -0.119251 -0.110189
v 270.679 -177.919 673.381
vn -0.512267 -0.458321 0.726309
v 271.968 -179.319 675.171
vn -0.214929 -0.623158 0.751983
v 273.961 -180.46 675.139
vn -0.36142 -0.194397 0.911913
v 273.173 -177.473 676.288
vn -0.868838 -0.488472 0.0807137
v 271.227 -179.649 673.563
vn -0.500403 -0.627633 0.596384
v 272.546 -180.248 674.679
vn -0.40014 -0.8868 0.231243
v 272.643 -180.31 674.027
vn -0.0397181 -0.956174 0.290094
v 273.692 -180.612 674.3
vn -0.28426 0.9115 0.297259
v 272.325 -177.344 674.718
vn -0.308915 0.755126 0.578235
v 271.713 -176.672 673.055
vn -0.477691 -0.695027 0.537354
v 272.627 -181.293 672.184
vn -0.880497 -0.368594 -0.298099
v 272.623 -181.285 671.566
vn -0.859169 -0.236512 -0.453752
v 271.314 -179.034 672.226
vn -0.928915 0.185337 -0.320574
v 270.868 -177.601 672.728
vn -0.815827 0.0215326 -0.577894
v 271.358 -177.551 671.786
vn -0.786583 0.326473 -0.524122
v 271.361 -177.257 671.864
vn -0.539021 0.0556928 -0.840449
v 271.6 -177.823 671.515
vn -0.598868 0.156819 -0.785344
v 271.586 -177.473 671.557
vn -0.338547 0.088707 -0.936759
v 272.373 -176.877 671.265
vn -0.785834 0.526361 -0.324666
v 271.635 -176.359 672.457
vn -0.486138 0.359236 -0.79663
v 272.358 -176.289 671.36
vn -0.0519493 -0.211476 0.976002
v 274.547 -177.668 676.631
vn -0.0386621 -0.0567383 0.99764
v 274.834 -177.218 676.668
vn 0.0227915 0.995829 0.0883419
v 275.667 -177.131 676.389
vn 0.149683 -0.988451 0.0236689
v 274.146 -180.45 674.767
vn -0.0116307 -0.787521 0.616178
v 274.61 -180.416 675.231
vn -0.0572463 -0.928372 0.367217
v 274.33 -180.421 674.395
vn -0.0948903 -0.492337 0.865217
v 275.067 -179.976 675.773
vn -0.0843003 -0.978781 0.186767
v 274.894 -180.476 675.137
vn -0.107172 -0.994171 0.0117864
v 274.797 -180.429 674.859
vn -0.163735 -0.956011 0.243378
v 275.084 -180.517 674.764
vn -0.149136 -0.812279 0.563881
v 274.916 -180.776 674.203
vn -0.103391 0.984138 0.144165
v 274.458 -177.173 676.483
vn -0.279288 -0.734193 0.618837
v 274.104 -181.49 673.243
vn -0.109846 -0.629425 0.769258
v 275.499 -182.327 672.786
vn -0.218243 0.713105 0.666221
v 274.356 -174.662 672.147
vn -0.208973 0.786413 0.581279
v 274.895 -174.384 671.964
vn -0.101631 0.80752 -0.581018
v 274.811 -174.515 671.683
vn -0.269506 -0.627459 0.730522
v 275.385 -184.605 670.969
vn -0.895756 -0.424673 0.131427
v 273.112 -182.417 670.796
vn -0.481202 -0.624362 0.615319
v 273.571 -183.269 670.962
vn -0.720144 0.094994 -0.687291
v 273.508 -180.313 670.113
vn -0.191538 0.220975 -0.956286
v 274.412 -177.598 670.679
vn -0.399181 0.719571 -0.568219
v 273.344 -174.841 671.868
vn -0.294597 0.480643 -0.825951
v 273.515 -175.316 671.334
vn -0.160064 0.582995 -0.796553
v 274.418 -174.953 671.333
vn -0.0907701 0.286684 -0.953716
v 274.664 -175.813 670.932
vn -0.743298 -0.308859 0.593392
v 273.655 -188.524 667.586
vn -0.889794 0.0204902 0.455903
v 273.633 -188.231 667.59
vn -0.998335 -0.054524 -0.0188362
v 273.575 -188.527 667.303
vn -0.530723 -0.613672 0.584585
v 274.133 -189.661 667.13
vn -0.217307 -0.430186 0.876195
v 274.376 -188.769 667.888
vn -0.666733 -0.451016 0.59334
v 273.932 -185.865 668.702
vn -0.995361 0.0961924 0.00194077
v 273.761 -187.041 667.534
vn -0.817884 -0.152859 0.554708
v 273.925 -187.034 667.888
vn -0.522686 -0.333045 0.78478
v 274.516 -186.997 668.521
vn -0.206739 -0.420782 0.88329
v 274.762 -187.384 668.443
vn -0.906282 0.155 -0.393229
v 273.99 -184.667 667.722
vn -0.720337 -0.673073 0.167594
v 274.429 -190.51 666.112
vn -0.881975 -0.438586 0.172519
v 273.783 -189.39 666.898
vn -0.92624 -0.211907 -0.311729
v 274.187 -189.927 665.255
vn 0.219858 -0.694918 0.684654
v 277.207 -180.106 675.631
vn 0.238013 -0.151501 0.959373
v 277.793 -177.709 676.099
vn 0.187071 0.846232 0.498894
v 277.917 -177.309 675.638
vn -0.0143498 -0.627419 0.77855
v 276.926 -181.574 673.514
vn 0.378931 -0.604818 0.700433
v 277.489 -181.822 673.278
vn 0.364729 -0.662432 0.654337
v 278.18 -180.784 673.732
vn 0.116629 -0.907321 0.40394
v 276.697 -180.429 674.844
vn 0.328379 -0.897063 0.295711
v 277.142 -180.39 674.44
vn 0.32832 -0.880106 0.342956
v 278.489 -179.932 674.859
vn 0.0704026 0.895013 0.440449
v 277.536 -177.202 675.455
vn 0.07588 0.562226 -0.823495
v 275.339 -174.882 671.315
vn 0.117631 0.906178 -0.406208
v 276.111 -174.437 671.868
vn 0.0861905 0.899604 0.428116
v 276.617 -174.506 672.434
vn 0.158359 0.34046 -0.926828
v 276.265 -175.694 671.098
vn 0.316619 0.94486 -0.0836233
v 277.063 -174.706 671.863
vn 0.26013 0.48741 -0.833525
v 277.054 -175.05 671.56
vn 0.45621 0.506345 -0.73177
v 277.653 -175.301 671.673
vn 0.368102 0.264681 -0.891316
v 277.277 -175.914 671.28
vn 0.0897446 -0.608823 0.788213
v 276.353 -185.699 670.061
vn -0.206942 0.426946 -0.88028
v 275.458 -179.369 669.665
vn 0.23858 0.396291 -0.886585
v 276.311 -178.333 670.297
vn -0.0423866 -0.985627 -0.163535
v 276.949 -191.651 666.522
vn -0.206795 -0.590758 0.779898
v 275.187 -186.838 668.914
vn -0.0380427 -0.494072 0.868588
v 276.508 -187.73 668.484
vn -0.823383 -0.564021 -0.0626208
v 274.71 -190.764 664.695
vn -0.143465 -0.853968 -0.500157
v 275.151 -191.312 664.95
vn -0.820674 0.228316 -0.5238
v 274.123 -188.459 665.354
vn -0.689982 0.0794922 -0.719448
v 274.813 -189.572 664.361
vn -0.912749 0.216954 -0.346149
v 274.264 -187.278 666.058
vn -0.46445 -0.00985995 -0.885545
v 275.813 -189.781 663.584
vn 0.250652 0.835926 0.488264
v 279.591 -177.257 675.078
vn 0.49727 -0.0237451 0.867271
v 279.981 -178.119 675.106
vn 0.622262 -0.66356 0.415306
v 278.823 -181.125 672.787
vn 0.368346 -0.789964 0.490183
v 279.231 -179.882 674.3
vn 0.588772 -0.590353 0.552115
v 279.91 -179.297 674.611
vn 0.804441 -0.59113 0.0586572
v 279.421 -180.49 672.867
vn 0.915957 -0.289594 -0.277773
v 279.57 -180.181 672.64
vn 0.6598 -0.6793 0.321271
v 280.045 -179.557 674.024
vn 0.953512 -0.298346 0.0424867
v 280.274 -179.261 673.944
vn 0.347938 0.760074 0.548842
v 279.421 -176.372 673.575
vn 0.991162 -0.0345421 0.128079
v 280.257 -177.501 674.549
vn 0.790307 -0.0113906 -0.612605
v 279.944 -177.792 672.487
vn 0.859164 0.511695 0.0023065
v 280.088 -177.489 672.745
vn 0.284261 0.765976 0.576608
v 278.415 -175.306 672.968
vn 0.347797 0.875871 0.334495
v 278.983 -175.414 672.78
vn 0.885745 -0.327883 0.328554
v 278.413 -183.197 671.065
vn 0.943928 -0.299768 -0.138345
v 279.114 -181.089 671.807
vn 0.72484 0.194001 -0.661038
v 278.851 -179.333 671.32
vn 0.795779 -0.0577124 -0.60283
v 279.652 -178.696 672.285
vn 0.605147 0.311926 -0.732461
v 278.998 -176.09 672.162
vn 0.553457 0.137161 -0.821506
v 279.358 -177.831 672.063
vn 0.155812 -0.411934 0.897793
v 278.493 -188.166 668.254
vn 0.643094 -0.332448 0.689862
v 278.613 -185.303 669.301
vn 0.262662 -0.384408 0.885008
v 278.813 -187.26 668.499
vn 0.459747 -0.368128 0.808155
v 279.356 -187.216 668.273
vn 0.970001 0.183938 0.158949
v 279.419 -186.914 668.121
vn 0.973696 0.0887907 0.20984
v 278.798 -185.203 668.947
vn 0.667611 0.392519 -0.632633
v 278.042 -180.848 669.748
vn 0.961863 0.094133 -0.256824
v 278.532 -182.578 669.605
vn 0.789204 -0.517838 0.330153
v 278.773 -191.119 665.596
vn 0.482713 -0.49881 0.719845
v 278.772 -189.022 667.742
vn 0.788369 0.407328 -0.46104
v 278.306 -184.046 667.838
vn 0.0494827 -0.870632 -0.48944
v 278.054 -191.482 665.221
vn 0.208099 -0.651291 -0.729737
v 278.786 -190.749 664.658
vn 0.706054 0.252107 -0.661763
v 278.739 -188.983 664.652
vn -0.135069 -0.566134 -0.813172
v 276.157 -190.344 663.547
vn -0.401666 0.406412 -0.820667
v 276.089 -189.17 663.625
vn 0.0694052 0.355618 -0.932051
v 276.95 -189.69 663.285
vn 0.903881 -0.255308 0.343244
v 279.709 -188.354 667.198
vn 0.975903 0.186653 -0.113019
v 279.752 -188.345 666.786
vn 0.940685 -0.331573 0.0719153
v 279.702 -188.93 666.19
vn 0.847812 0.316664 -0.425368
v 279.566 -188.351 666.228
vn -0.633153 -0.0539771 0.772142
v 270.815 -178.216 674.303
vn -0.530626 0.674711 0.513032
v 270.815 -178.216 674.303
vn -0.458722 0.71038 0.533793
v 270.706 -177.626 673.713
vn 0.0294576 -0.994574 0.0997697
v 273.961 -180.46 675.139
vn -0.402564 0.868562 0.289037
v 273.173 -177.473 676.288
vn -0.261809 0.669263 0.695373
v 273.173 -177.473 676.288
vn -0.459563 -0.844176 0.275986
v 271.227 -179.649 673.563
vn -0.314966 -0.943285 0.104924
v 272.546 -180.248 674.679
vn -0.86185 -0.506705 0.02153
v 272.627 -181.293 672.184
vn -0.466403 0.757223 0.457254
v 271.635 -176.359 672.457
vn -0.261809 0.669263 0.695373
v 274.834 -177.218 676.668
vn -0.013548 0.965296 0.260807
v 274.834 -177.218 676.668
vn 0.240427 0.453794 0.85806
v 274.834 -177.218 676.668
vn 0.262347 0.576607 0.773756
v 275.667 -177.131 676.389
vn -0.0884534 -0.996033 -0.00972411
v 274.61 -180.416 675.231
vn -0.261809 0.669263 0.695373
v 274.458 -177.173 676.483
vn 0.465535 -0.768884 0.438286
v 275.499 -182.327 672.786
vn -0.0651475 0.968046 -0.242162
v 274.895 -174.384 671.964
vn -0.935584 -0.0170527 -0.352691
v 273.112 -182.417 670.796
vn -0.878429 -0.435645 0.196407
v 273.571 -183.269 670.962
vn -0.364217 0.766414 0.529108
v 273.344 -174.841 671.868
vn -0.857892 -0.399898 0.322649
v 273.932 -185.865 668.702
vn -0.997326 -0.010737 -0.0722899
v 273.932 -185.865 668.702
vn 0.243345 0.623979 0.742586
v 277.793 -177.709 676.099
vn 0.126942 -0.624166 0.77091
v 277.142 -180.39 674.44
vn 0.313197 0.649065 -0.693269
v 277.063 -174.706 671.863
vn -0.0942453 -0.682014 0.725241
v 276.949 -191.651 666.522
vn 0.362027 -0.912754 0.189251
v 276.949 -191.651 666.522
vn -0.605907 -0.300347 -0.73666
v 274.71 -190.764 664.695
vn -0.770119 -0.63671 -0.038963
v 275.151 -191.312 664.95
vn -0.433462 -0.844712 0.313962
v 275.151 -191.312 664.95
vn -0.509444 0.450995 -0.73285
v 274.264 -187.278 666.058
vn 0.554685 0.275938 0.784973
v 279.591 -177.257 675.078
vn 0.899473 -0.176327 0.399822
v 279.981 -178.119 675.106
vn 0.859164 0.511695 0.0023065
v 279.421 -176.372 673.575
vn 0.658922 0.319708 0.680888
v 280.257 -177.501 674.549
vn 0.564809 0.737575 0.3701
v 280.257 -177.501 674.549
vn 0.830884 0.551497 -0.0740397
v 280.257 -177.501 674.549
vn 0.972885 -0.0509895 -0.225597
v 280.088 -177.489 672.745
vn 0.74562 0.343311 -0.571129
v 280.088 -177.489 672.745
vn 0.624833 0.564122 -0.539769
v 278.983 -175.414 672.78
vn 0.880388 0.46769 0.0786337
v 278.983 -175.414 672.78
vn 0.897107 0.0434947 0.439667
v 279.356 -187.216 668.273
vn 0.362027 -0.912754 0.189251
v 278.773 -191.119 665.596
vn 0.550327 -0.779065 -0.300329
v 278.773 -191.119 665.596
vn 0.362027 -0.912754 0.189251
v 278.054 -191.482 665.221
vn 0.550327 -0.779065 -0.300329
v 278.054 -191.482 665.221
vn 0.550327 -0.779065 -0.300329
v 278.786 -190.749 664.658
vn 0.737469 0.0175236 -0.675154
v 278.786 -190.749 664.658
vn 0.924965 -0.357544 -0.128848
v 278.786 -190.749 664.658
vn 0.234279 -0.592946 -0.770408
v 276.95 -189.69 663.285
vn 0.603879 0.0136068 -0.79696
v 276.95 -189.69 663.285
vn 0.87279 0.16346 -0.459911
v 279.702 -188.93 666.19
f 3//3 7//7 1//1
f 1//1 2//2 3//3
f 2//2 16//16 3//3
f 8//8 5//5 4//4
f 4//4 5//5 30//30
f 10//10 139//139 143//143
f 30//30 5//5 28//28
f 27//27 139//139 10//10
f 4//4 30//30 6//6
f 6//6 136//136 4//4
f 137//137 140//140 11//11
f 24//24 25//25 6//6
f 24//24 6//6 30//30
f 35//35 11//11 140//140
f 146//146 151//151 141//141
f 26//26 11//11 35//35
f 43//43 36//36 13//13
f 7//7 8//8 4//4
f 1//1 7//7 4//4
f 15//15 7//7 3//3
f 9//9 10//10 143//143
f 143//143 142//142 9//9
f 142//142 36//36 9//9
f 10//10 9//9 36//36
f 36//36 142//142 13//13
f 138//138 137//137 11//11
f 2//2 22//22 16//16
f 145//145 138//138 12//12
f 12//12 138//138 11//11
f 7//7 14//14 144//144
f 14//14 42//42 144//144
f 154//154 14//14 44//44
f 144//144 42//42 155//155
f 7//7 15//15 14//14
f 44//44 14//14 15//15
f 44//44 15//15 19//19
f 3//3 16//16 15//15
f 15//15 16//16 17//17
f 17//17 16//16 18//18
f 16//16 22//22 18//18
f 19//19 15//15 17//17
f 17//17 18//18 20//20
f 19//19 17//17 20//20
f 20//20 18//18 23//23
f 18//18 22//22 23//23
f 20//20 21//21 19//19
f 21//21 20//20 23//23
f 45//45 19//19 21//21
f 83//83 19//19 45//45
f 22//22 46//46 23//23
f 64//64 65//65 30//30
f 147//147 26//26 35//35
f 25//25 24//24 65//65
f 148//148 159//159 149//149
f 30//30 65//65 24//24
f 32//32 150//150 139//139
f 29//29 32//32 27//27
f 27//27 32//32 139//139
f 29//29 27//27 10//10
f 29//29 10//10 36//36
f 64//64 30//30 28//28
f 64//64 28//28 31//31
f 31//31 150//150 32//32
f 33//33 31//31 32//32
f 34//34 33//33 29//29
f 33//33 32//32 29//29
f 34//34 29//29 36//36
f 33//33 34//34 70//70
f 70//70 34//34 36//36
f 70//70 31//31 33//33
f 64//64 31//31 70//70
f 11//11 26//26 73//73
f 73//73 12//12 11//11
f 37//37 36//36 41//41
f 37//37 70//70 36//36
f 41//41 82//82 67//67
f 67//67 37//37 41//41
f 12//12 156//156 145//145
f 12//12 38//38 156//156
f 12//12 76//76 38//38
f 39//39 156//156 38//38
f 40//40 46//46 153//153
f 46//46 40//40 48//48
f 57//57 58//58 55//55
f 155//155 42//42 157//157
f 55//55 41//41 43//43
f 36//36 43//43 41//41
f 58//58 41//41 55//55
f 86//86 41//41 58//58
f 154//154 44//44 60//60
f 158//158 154//154 60//60
f 44//44 19//19 83//83
f 44//44 83//83 130//130
f 23//23 45//45 21//21
f 84//84 49//49 77//77
f 45//45 49//49 84//84
f 47//47 23//23 46//46
f 48//48 47//47 46//46
f 23//23 47//47 49//49
f 49//49 47//47 48//48
f 49//49 45//45 23//23
f 48//48 74//74 49//49
f 40//40 74//74 48//48
f 54//54 50//50 53//53
f 58//58 51//51 50//50
f 53//53 50//50 62//62
f 50//50 52//52 62//62
f 50//50 51//51 52//52
f 51//51 56//56 52//52
f 62//62 52//52 63//63
f 52//52 90//90 63//63
f 52//52 56//56 90//90
f 50//50 54//54 58//58
f 57//57 55//55 56//56
f 58//58 57//57 51//51
f 57//57 56//56 51//51
f 60//60 56//56 158//158
f 56//56 60//60 92//92
f 58//58 54//54 59//59
f 58//58 59//59 86//86
f 62//62 61//61 53//53
f 62//62 63//63 61//61
f 90//90 56//56 92//92
f 130//130 167//167 60//60
f 64//64 70//70 72//72
f 64//64 72//72 98//98
f 159//159 66//66 149//149
f 66//66 73//73 26//26
f 66//66 159//159 94//94
f 94//94 73//73 66//66
f 71//71 70//70 152//152
f 160//160 37//37 67//67
f 67//67 68//68 160//160
f 67//67 82//82 68//68
f 68//68 69//69 160//160
f 96//96 69//69 68//68
f 68//68 109//109 96//96
f 69//69 97//97 160//160
f 72//72 70//70 71//71
f 97//97 72//72 71//71
f 98//98 72//72 97//97
f 69//69 96//96 97//97
f 73//73 76//76 12//12
f 107//107 76//76 73//73
f 107//107 73//73 103//103
f 108//108 107//107 103//103
f 77//77 81//81 84//84
f 114//114 81//81 113//113
f 81//81 114//114 84//84
f 38//38 76//76 39//39
f 74//74 40//40 75//75
f 75//75 40//40 153//153
f 76//76 75//75 153//153
f 76//76 78//78 75//75
f 161//161 74//74 75//75
f 107//107 108//108 76//76
f 74//74 79//79 77//77
f 161//161 79//79 74//74
f 77//77 79//79 81//81
f 108//108 78//78 76//76
f 80//80 79//79 161//161
f 80//80 81//81 79//79
f 80//80 161//161 176//176
f 87//87 115//115 117//117
f 87//87 54//54 115//115
f 41//41 86//86 82//82
f 82//82 86//86 87//87
f 82//82 116//116 68//68
f 117//117 116//116 82//82
f 87//87 117//117 82//82
f 83//83 84//84 130//130
f 111//111 84//84 114//114
f 84//84 83//83 45//45
f 74//74 77//77 49//49
f 89//89 126//126 85//85
f 61//61 162//162 53//53
f 59//59 54//54 87//87
f 162//162 54//54 53//53
f 59//59 87//87 86//86
f 60//60 44//44 130//130
f 84//84 131//131 130//130
f 63//63 88//88 61//61
f 164//164 63//63 91//91
f 61//61 88//88 165//165
f 126//126 89//89 129//129
f 129//129 89//89 164//164
f 162//162 61//61 166//166
f 91//91 63//63 90//90
f 90//90 167//167 130//130
f 91//91 90//90 130//130
f 129//129 164//164 93//93
f 164//164 91//91 93//93
f 93//93 91//91 130//130
f 95//95 65//65 64//64
f 64//64 98//98 95//95
f 98//98 102//102 169//169
f 169//169 102//102 104//104
f 95//95 168//168 65//65
f 95//95 171//171 168//168
f 99//99 110//110 100//100
f 101//101 98//98 97//97
f 101//101 97//97 96//96
f 98//98 101//101 102//102
f 96//96 99//99 101//101
f 101//101 99//99 102//102
f 102//102 99//99 100//100
f 100//100 105//105 102//102
f 110//110 112//112 100//100
f 100//100 112//112 105//105
f 103//103 73//73 94//94
f 172//172 103//103 94//94
f 170//170 106//106 177//177
f 102//102 174//174 104//104
f 173//173 106//106 170//170
f 113//113 176//176 175//175
f 114//114 113//113 105//105
f 174//174 102//102 105//105
f 113//113 175//175 105//105
f 109//109 110//110 96//96
f 96//96 110//110 99//99
f 109//109 122//122 110//110
f 112//112 110//110 111//111
f 111//111 114//114 112//112
f 110//110 122//122 111//111
f 114//114 105//105 112//112
f 113//113 81//81 80//80
f 176//176 113//113 80//80
f 124//124 115//115 162//162
f 124//124 118//118 115//115
f 117//117 115//115 118//118
f 162//162 123//123 124//124
f 119//119 178//178 132//132
f 116//116 120//120 109//109
f 116//116 117//117 118//118
f 116//116 178//178 120//120
f 119//119 120//120 178//178
f 120//120 119//119 125//125
f 122//122 109//109 120//120
f 68//68 116//116 109//109
f 120//120 125//125 122//122
f 125//125 121//121 122//122
f 121//121 125//125 84//84
f 125//125 131//131 84//84
f 84//84 111//111 121//121
f 121//121 111//111 122//122
f 181//181 179//179 163//163
f 162//162 115//115 54//54
f 124//124 132//132 118//118
f 123//123 132//132 124//124
f 131//131 125//125 128//128
f 186//186 127//127 129//129
f 127//127 126//126 129//129
f 182//182 183//183 180//180
f 184//184 187//187 128//128
f 131//131 129//129 93//93
f 131//131 93//93 130//130
f 132//132 133//133 119//119
f 119//119 133//133 125//125
f 132//132 134//134 133//133
f 133//133 188//188 135//135
f 133//133 135//135 125//125
f 132//132 123//123 134//134
f 123//123 185//185 134//134
f 188//188 184//184 128//128
f 188//188 128//128 135//135
f 135//135 128//128 125//125
