# Wavafront OBJ file of BodyParts3D
# BodyParts3D, Copyright(C) 2010-2011 The Database Center for Life Science licensed under CC Attribution-Share Alike 2.1 Japan.
vn -0.926168 -0.325725 -0.190044
v 136.398 -179.291 -1.02515
vn -0.773773 0.416736 -0.477081
v 136.269 -176.632 -2.60722
vn -0.967417 -0.0749485 0.24184
v 135.899 -177.848 -0.499557
vn -0.753469 0.560373 0.343899
v 136.382 -176.806 -0.152067
vn -0.959882 -0.260501 -0.103754
v 135.784 -177.895 -1.24017
vn -0.992711 0.120515 -0.000739868
v 135.762 -177.494 -1.37728
vn -0.903777 0.366778 0.220594
v 135.935 -177.064 -0.829688
vn -0.924717 -0.35479 0.13792
v 135.983 -178.367 -0.857771
vn -0.896957 0.435221 -0.0777864
v 136.097 -176.491 -1.74643
vn -0.621913 0.748041 0.231646
v 136.238 -176.342 -1.349
vn -0.943785 0.027592 -0.329405
v 135.967 -177.287 -2.29111
vn -0.620834 0.752958 -0.218219
v 136.386 -176.174 -2.06555
vn -0.734214 -0.368641 -0.570118
v 136.137 -177.647 -2.46075
vn -0.709406 -0.0747536 -0.700824
v 136.133 -177.265 -2.59171
vn -0.870313 0.167019 0.463314
v 136.333 -177.406 0.684733
vn -0.659931 -0.00768829 0.751287
v 137.208 -177.859 1.86086
vn -0.786065 -0.24884 0.565846
v 136.889 -178.254 1.41718
vn -0.908548 -0.299351 0.291427
v 136.259 -178.543 0.046875
vn -0.506328 -0.347093 0.789404
v 138.021 -179.637 1.90473
vn -0.492502 0.6778 0.545919
v 137.168 -177.057 1.58398
vn -0.147805 0.9454 0.290469
v 138.022 -176.677 0.935345
vn -0.288243 0.0925609 0.953073
v 138.518 -177.332 2.5959
vn -0.352835 0.717007 0.601173
v 139.099 -176.897 2.52521
vn -0.0211704 0.954847 0.296344
v 139.015 -176.763 2.26396
vn 0.165893 0.191371 0.967397
v 139.664 -177.525 2.60527
vn 0.0241616 0.96729 0.252521
v 139.488 -176.785 1.98121
vn 0.151233 0.837436 0.525195
v 139.638 -176.883 2.22598
vn 0.237581 0.509769 0.826856
v 139.726 -177.153 2.43807
vn -0.776187 -0.62281 0.0981931
v 137.451 -182.311 -1.71725
vn -0.407086 -0.86654 0.288772
v 137.903 -182.604 -0.982932
vn -0.843507 -0.419749 -0.335122
v 137.507 -182.07 -2.77235
vn -0.65859 -0.690873 -0.298252
v 137.682 -182.537 -2.37305
vn -0.587341 -0.807276 0.0577601
v 137.991 -182.716 -1.87812
vn -0.56663 -0.63398 -0.526308
v 137.708 -182.211 -2.97112
vn -0.769644 -0.28434 -0.571664
v 137.647 -181.938 -3.14632
vn -0.905666 -0.0396292 -0.422135
v 136.761 -179.859 -1.91032
vn -0.822992 0.0535441 -0.565524
v 136.847 -180.141 -2.22484
vn -0.661851 0.0202441 -0.749362
v 136.998 -179.523 -2.21506
vn -0.440012 0.0370586 -0.897227
v 137.292 -179.247 -2.41861
vn -0.428473 0.271036 -0.861946
v 137.464 -179.62 -2.58135
vn -0.254081 0.185295 -0.949268
v 138.055 -179.505 -2.71864
vn -0.951782 -0.281489 -0.121966
v 136.748 -180.842 -1.60604
vn 0.254945 -0.9638 -0.0780547
v 138.29 -182.617 -0.961311
vn -0.774957 -0.466508 0.426394
v 137.647 -181.64 0.128545
vn -0.376622 -0.64308 0.666786
v 138.14 -181.692 0.63492
vn 0.089518 -0.915546 0.392125
v 139.957 -182.443 0.277224
vn -0.542151 0.18497 -0.81967
v 136.695 -176.686 -3.04579
vn -0.444508 0.627538 -0.639225
v 137.174 -176.217 -3.0511
vn -0.307242 0.243437 -0.919968
v 137.297 -176.537 -3.30057
vn -0.570412 -0.258545 -0.779606
v 136.791 -178.726 -2.24049
vn -0.288628 -0.267786 -0.919231
v 137.245 -177.227 -3.23028
vn -0.18907 -0.24103 -0.951923
v 137.652 -178.653 -2.63354
vn 0.0950775 -0.401554 0.910887
v 140.215 -179.793 2.41035
vn -0.250343 0.518553 -0.817576
v 137.814 -176.107 -3.24082
vn -0.093774 0.193721 -0.976565
v 138.369 -176.297 -3.45169
vn -0.31356 0.93121 0.185817
v 137.704 -175.422 -2.02359
vn -0.387324 0.854916 -0.345106
v 138.078 -175.356 -2.58681
vn 0.0292708 0.936981 0.348151
v 139.021 -175.17 -1.84586
vn -0.198123 0.713211 -0.672367
v 138.631 -175.313 -2.87661
vn -0.0653174 0.975913 -0.20815
v 138.932 -175.091 -2.52592
vn 0.248852 0.875535 0.414139
v 139.787 -175.783 -1.09249
vn 0.352663 0.935664 0.0127444
v 139.803 -175.207 -2.31423
vn 0.0207996 0.899475 0.436477
v 139.07 -176.026 -0.439956
vn 0.0220929 0.958173 0.285334
v 139.792 -176.313 0.144074
vn 0.165077 0.946657 0.276749
v 140.336 -176.291 -0.152459
vn 0.0366644 0.891735 0.45107
v 139.988 -176.808 2.07118
vn 0.166579 0.673568 0.720109
v 140.35 -176.921 2.18634
vn 0.327848 0.394373 0.858479
v 140.7 -177.164 2.23099
vn 0.335954 0.711965 0.616637
v 140.915 -176.854 1.90463
vn 0.0847749 0.949018 0.303608
v 140.662 -176.553 1.4501
vn 0.508498 0.436359 0.742308
v 141.245 -177.137 1.93593
vn 0.54929 0.00740818 0.835599
v 141.487 -178.599 2.22871
vn -0.170605 -0.793805 -0.583752
v 138.072 -182.421 -2.9157
vn -0.367851 -0.51487 -0.774335
v 137.891 -181.969 -3.31987
vn -0.0334314 -0.426126 -0.904046
v 138.201 -181.876 -3.44104
vn -0.485549 -0.0355304 -0.873487
v 137.891 -181.61 -3.43721
vn -0.123416 0.205673 -0.970807
v 139.05 -180.685 -3.6906
vn -0.179432 0.551907 -0.814372
v 139.781 -180.092 -3.38201
vn 0.342264 -0.675256 -0.653364
v 138.573 -181.968 -3.31929
vn 0.513774 -0.817673 -0.259705
v 139.321 -181.888 -2.53022
vn 0.323608 -0.869817 -0.372419
v 140.201 -181.334 -2.31202
vn 0.209175 -0.280694 -0.936727
v 139.514 -180.925 -3.62134
vn 0.278613 -0.551645 -0.78617
v 140.239 -180.624 -3.46537
vn -0.10698 -0.27911 -0.954281
v 139.03 -177.012 -3.34102
vn -0.324552 -0.330975 -0.886071
v 140.703 -178.386 -3.17032
vn -0.0576218 -0.0329088 -0.997796
v 140.972 -177.845 -3.49595
vn -0.192594 -0.218163 -0.95672
v 140.408 -179.198 -2.79142
vn 0.131442 -0.0602823 -0.989489
v 140.468 -180.032 -3.48861
vn -0.305946 -0.294617 -0.905316
v 140.978 -179.015 -3.10403
vn 0.0162131 -0.135153 -0.990692
v 141.019 -179.94 -3.50077
vn -0.255208 0.466687 -0.846801
v 141.035 -179.654 -3.34212
vn 0.293926 -0.935074 -0.1981
v 142.163 -181.716 -0.545725
vn 0.364934 -0.929366 0.0556996
v 143.019 -181.346 0.011236
vn 0.571934 -0.412563 0.709001
v 143.151 -181.097 0.115513
vn -0.00232107 0.0451071 -0.998979
v 139.118 -176.302 -3.44987
vn 0.16948 0.591823 -0.78805
v 139.787 -175.644 -3.24971
vn 0.333525 0.911749 0.23974
v 140.793 -175.913 -1.74347
vn 0.390004 0.920744 -0.0113289
v 140.743 -175.749 -2.39543
vn 0.199855 0.497854 -0.843919
v 140.515 -176.015 -3.157
vn 0.314492 0.843017 -0.436368
v 140.794 -175.886 -2.89576
vn 0.143193 0.780302 -0.608789
v 141.476 -176.152 -3.05411
vn 0.212576 0.962265 -0.169876
v 141.64 -176.009 -2.67297
vn 0.029168 0.381072 -0.924085
v 141.521 -176.451 -3.25854
vn 0.325736 0.94234 -0.0767586
v 142.302 -176.106 -2.71928
vn 0.724351 0.261764 0.637805
v 142.916 -177.368 0.672361
vn 0.903374 0.388624 0.18135
v 143.413 -176.941 -0.349875
vn 0.461378 0.762241 0.454003
v 142.732 -176.87 0.470002
vn 0.145919 -0.751811 -0.64303
v 141.56 -180.513 -3.37427
vn 0.157296 -0.857341 -0.490127
v 142.263 -180.841 -2.80371
vn 0.221144 -0.433002 -0.873845
v 142.836 -180.108 -3.46993
vn 0.36287 -0.695697 -0.619945
v 143.205 -180.409 -3.08192
vn 0.0721622 0.0942829 -0.992927
v 142.75 -179.308 -3.67575
vn 0.535883 -0.320097 -0.78126
v 143.557 -179.806 -3.3113
vn 0.828848 0.092142 -0.551834
v 143.822 -179.291 -3.15487
vn 0.391983 -0.919382 -0.0329693
v 143.555 -181.129 -0.359192
vn 0.827791 -0.230699 0.51141
v 143.663 -180.853 -0.298285
vn 0.56663 -0.814805 -0.122572
v 143.727 -180.995 -1.00631
vn 0.919047 -0.393933 -0.0130402
v 143.995 -180.661 -1.34853
vn 0.450154 -0.81797 -0.358172
v 143.439 -180.786 -2.27346
vn 0.784182 -0.462647 -0.413542
v 143.888 -180.206 -2.5721
vn 0.982931 -0.101574 -0.153393
v 144.039 -180.076 -2.13444
vn 0.246717 0.432238 -0.867353
v 142.216 -176.43 -3.26187
vn 0.747002 0.472983 -0.467199
v 143.071 -176.954 -2.8862
vn 0.0437818 0.0895153 -0.995023
v 142.77 -178.361 -3.43095
vn 0.458381 0.239393 -0.855907
v 143.156 -178.236 -3.31141
vn 0.751416 0.308619 -0.583206
v 143.439 -178.121 -3.01521
vn 0.916536 0.322017 -0.237208
v 143.746 -178.118 -2.41045
vn 0.914419 0.00950587 0.404658
v 143.973 -179.819 -0.728665
vn 0.993287 0.115521 0.00594389
v 144.031 -178.907 -1.47375
vn -0.277131 0.909355 0.310278
v 136.382 -176.806 -0.152067
vn 0.227572 0.552855 0.8016
v 139.099 -176.897 2.52521
vn -0.58388 -0.808581 0.0726721
v 137.682 -182.537 -2.37305
vn -0.0386174 -0.991988 0.120288
v 137.991 -182.716 -1.87812
vn -0.105005 -0.954431 -0.27935
v 137.991 -182.716 -1.87812
vn 0.472135 -0.869968 -0.142283
v 137.991 -182.716 -1.87812
vn 0.449513 -0.847372 -0.282665
v 138.072 -182.421 -2.9157
vn -0.284661 0.51137 -0.810845
v 140.408 -179.198 -2.79142
vn -0.14984 0.55908 -0.815462
v 140.468 -180.032 -3.48861
vn -0.34688 0.276764 -0.896145
v 140.978 -179.015 -3.10403
vn -0.18095 0.485116 -0.855523
v 141.019 -179.94 -3.50077
vn 0.429389 -0.573216 0.697888
v 143.019 -181.346 0.011236
vn 0.314738 0.931855 0.180516
v 143.413 -176.941 -0.349875
vn 0.0238201 -0.206899 -0.978072
v 141.56 -180.513 -3.37427
vn 0.780124 -0.493943 0.383962
v 143.555 -181.129 -0.359192
f 42//42 1//1 36//36
f 36//36 1//1 50//50
f 8//8 1//1 18//18
f 18//18 42//42 44//44
f 18//18 1//1 42//42
f 42//42 29//29 44//44
f 12//12 2//2 9//9
f 47//47 14//14 2//2
f 48//48 47//47 2//2
f 2//2 12//12 48//48
f 4//4 7//7 15//15
f 3//3 15//15 7//7
f 3//3 18//18 15//15
f 6//6 5//5 3//3
f 3//3 5//5 8//8
f 18//18 3//3 8//8
f 7//7 9//9 6//6
f 6//6 3//3 7//7
f 10//10 9//9 7//7
f 7//7 4//4 10//10
f 21//21 10//10 130//130
f 8//8 5//5 1//1
f 9//9 11//11 6//6
f 5//5 6//6 11//11
f 11//11 9//9 2//2
f 12//12 9//9 10//10
f 11//11 14//14 13//13
f 13//13 5//5 11//11
f 1//1 5//5 13//13
f 14//14 11//11 2//2
f 1//1 13//13 50//50
f 18//18 17//17 15//15
f 17//17 16//16 15//15
f 15//15 20//20 4//4
f 15//15 16//16 20//20
f 18//18 44//44 17//17
f 17//17 19//19 16//16
f 17//17 44//44 19//19
f 22//22 16//16 19//19
f 19//19 44//44 45//45
f 53//53 22//22 19//19
f 56//56 10//10 21//21
f 63//63 56//56 21//21
f 12//12 10//10 56//56
f 130//130 20//20 21//21
f 16//16 22//22 20//20
f 21//21 20//20 24//24
f 21//21 24//24 26//26
f 25//25 22//22 53//53
f 24//24 20//20 23//23
f 20//20 22//22 23//23
f 131//131 22//22 25//25
f 131//131 28//28 27//27
f 131//131 25//25 28//28
f 24//24 131//131 27//27
f 26//26 24//24 27//27
f 26//26 27//27 66//66
f 66//66 27//27 67//67
f 67//67 27//27 28//28
f 35//35 76//76 74//74
f 42//42 31//31 32//32
f 132//132 33//33 29//29
f 29//29 33//33 30//30
f 43//43 30//30 133//133
f 31//31 42//42 35//35
f 31//31 35//35 34//34
f 31//31 34//34 32//32
f 34//34 35//35 74//74
f 74//74 73//73 34//34
f 34//34 73//73 32//32
f 73//73 134//134 32//32
f 135//135 80//80 43//43
f 38//38 36//36 50//50
f 37//37 36//36 38//38
f 37//37 42//42 36//36
f 39//39 38//38 50//50
f 40//40 37//37 38//38
f 40//40 38//38 39//39
f 41//41 40//40 39//39
f 41//41 39//39 50//50
f 35//35 42//42 37//37
f 37//37 40//40 76//76
f 76//76 35//35 37//37
f 44//44 29//29 30//30
f 29//29 42//42 32//32
f 45//45 44//44 30//30
f 45//45 30//30 46//46
f 30//30 43//43 46//46
f 92//92 46//46 43//43
f 14//14 47//47 51//51
f 49//49 47//47 48//48
f 47//47 49//49 51//51
f 55//55 51//51 49//49
f 54//54 55//55 49//49
f 48//48 54//54 49//49
f 50//50 13//13 51//51
f 51//51 13//13 14//14
f 51//51 52//52 50//50
f 41//41 50//50 52//52
f 51//51 84//84 52//52
f 55//55 84//84 51//51
f 45//45 53//53 19//19
f 46//46 53//53 45//45
f 48//48 12//12 57//57
f 59//59 54//54 48//48
f 55//55 54//54 59//59
f 63//63 58//58 56//56
f 57//57 12//12 56//56
f 60//60 57//57 56//56
f 60//60 56//56 58//58
f 57//57 59//59 48//48
f 60//60 59//59 57//57
f 61//61 63//63 65//65
f 58//58 63//63 61//61
f 96//96 59//59 60//60
f 60//60 62//62 96//96
f 58//58 62//62 60//60
f 62//62 58//58 61//61
f 84//84 55//55 95//95
f 55//55 59//59 96//96
f 100//100 96//96 62//62
f 100//100 62//62 98//98
f 98//98 62//62 97//97
f 62//62 61//61 97//97
f 70//70 21//21 26//26
f 21//21 70//70 64//64
f 63//63 21//21 64//64
f 64//64 65//65 63//63
f 65//65 64//64 70//70
f 67//67 28//28 25//25
f 26//26 66//66 70//70
f 70//70 66//66 67//67
f 25//25 53//53 72//72
f 25//25 68//68 67//67
f 70//70 67//67 69//69
f 69//69 67//67 68//68
f 69//69 68//68 71//71
f 72//72 68//68 25//25
f 72//72 71//71 68//68
f 70//70 69//69 107//107
f 107//107 69//69 71//71
f 74//74 76//76 75//75
f 135//135 136//136 80//80
f 74//74 75//75 73//73
f 79//79 73//73 75//75
f 80//80 136//136 79//79
f 76//76 77//77 75//75
f 40//40 77//77 76//76
f 82//82 75//75 77//77
f 77//77 40//40 78//78
f 78//78 40//40 41//41
f 82//82 77//77 88//88
f 138//138 77//77 78//78
f 43//43 80//80 81//81
f 81//81 80//80 83//83
f 75//75 82//82 79//79
f 79//79 82//82 83//83
f 79//79 83//83 80//80
f 92//92 43//43 81//81
f 82//82 88//88 83//83
f 90//90 83//83 88//88
f 83//83 109//109 81//81
f 41//41 52//52 87//87
f 52//52 84//84 87//87
f 87//87 84//84 85//85
f 86//86 85//85 84//84
f 89//89 85//85 86//86
f 86//86 124//124 89//89
f 137//137 78//78 41//41
f 138//138 78//78 91//91
f 137//137 91//91 78//78
f 137//137 139//139 91//91
f 89//89 87//87 85//85
f 140//140 138//138 91//91
f 91//91 112//112 140//140
f 91//91 139//139 112//112
f 72//72 53//53 94//94
f 46//46 92//92 93//93
f 53//53 46//46 141//141
f 94//94 53//53 141//141
f 94//94 116//116 72//72
f 115//115 93//93 92//92
f 141//141 144//144 94//94
f 84//84 95//95 86//86
f 86//86 95//95 96//96
f 96//96 95//95 55//55
f 65//65 97//97 61//61
f 97//97 65//65 104//104
f 86//86 96//96 99//99
f 100//100 99//99 96//96
f 102//102 100//100 98//98
f 98//98 97//97 102//102
f 104//104 102//102 97//97
f 100//100 101//101 99//99
f 101//101 103//103 99//99
f 101//101 100//100 102//102
f 101//101 102//102 104//104
f 99//99 103//103 86//86
f 86//86 103//103 122//122
f 103//103 101//101 122//122
f 122//122 101//101 104//104
f 123//123 104//104 106//106
f 65//65 70//70 104//104
f 104//104 70//70 107//107
f 105//105 71//71 72//72
f 71//71 105//105 107//107
f 105//105 128//128 106//106
f 116//116 128//128 72//72
f 128//128 105//105 72//72
f 104//104 107//107 142//142
f 107//107 105//105 106//106
f 109//109 83//83 108//108
f 83//83 90//90 143//143
f 143//143 90//90 112//112
f 109//109 92//92 81//81
f 124//124 112//112 139//139
f 111//111 108//108 110//110
f 109//109 108//108 111//111
f 119//119 109//109 111//111
f 111//111 120//120 119//119
f 125//125 112//112 124//124
f 111//111 110//110 113//113
f 120//120 111//111 113//113
f 110//110 143//143 112//112
f 110//110 112//112 113//113
f 125//125 114//114 112//112
f 112//112 114//114 113//113
f 113//113 114//114 120//120
f 120//120 114//114 121//121
f 144//144 116//116 94//94
f 117//117 115//115 92//92
f 144//144 118//118 116//116
f 118//118 128//128 116//116
f 92//92 119//119 117//117
f 144//144 117//117 118//118
f 129//129 128//128 118//118
f 109//109 119//119 92//92
f 118//118 121//121 129//129
f 118//118 119//119 120//120
f 118//118 117//117 119//119
f 118//118 120//120 121//121
f 122//122 124//124 86//86
f 122//122 104//104 123//123
f 122//122 123//123 125//125
f 122//122 125//125 124//124
f 125//125 123//123 126//126
f 126//126 123//123 127//127
f 127//127 123//123 106//106
f 129//129 114//114 127//127
f 106//106 129//129 127//127
f 125//125 126//126 114//114
f 127//127 114//114 126//126
f 106//106 128//128 129//129
f 114//114 129//129 121//121
