# Wavafront OBJ file of BodyParts3D
# BodyParts3D, Copyright(C) 2010-2011 The Database Center for Life Science licensed under CC Attribution-Share Alike 2.1 Japan.
vn -0.165178 -0.544669 0.822224
v -254.01 -179.016 683.123
vn -0.910252 -0.413376 -0.0237049
v -253.897 -179.538 682.359
vn -0.321643 -0.838185 0.440444
v -253.746 -179.793 682.451
vn -0.113498 0.900469 0.41985
v -249.465 -177.26 684.305
vn -0.033684 0.811271 0.583699
v -254.196 -176.938 682.334
vn -0.956736 -0.282679 -0.0689136
v -254.269 -177.946 680.635
vn -0.762764 0.590848 -0.26285
v -253.643 -177.168 680.211
vn -0.451652 -0.777843 0.437002
v -253.162 -180.265 681.752
vn -0.887774 -0.433398 -0.154992
v -253.353 -180.252 681.419
vn -0.48187 -0.470615 0.739137
v -252.669 -181.608 680.707
vn -0.949 -0.297672 -0.10388
v -252.782 -180.818 679.663
vn -0.127464 -0.458739 0.879381
v -251.09 -188.023 679.264
vn -0.629332 -0.147269 0.763055
v -252.918 -188.176 677.826
vn -0.283706 -0.729731 0.622096
v -252.556 -189.982 676.971
vn -0.516623 -0.449114 0.72897
v -252.957 -189.229 677.198
vn -0.982478 -0.175575 -0.0625329
v -253.086 -189.065 676.969
vn 0.361718 -0.0300077 0.931805
v -248.488 -177.911 683.855
vn 0.38749 0.199467 0.900036
v -248.192 -177.49 683.634
vn 0.361272 -0.265829 0.893766
v -247.305 -177.728 683.426
vn -0.702227 0.664681 -0.255099
v -251.653 -175.017 680.339
vn -0.192426 0.418409 -0.887641
v -250.872 -175.535 679.714
vn 0.184175 -0.412965 0.89193
v -249.098 -179.733 683.555
vn 0.663522 -0.412103 0.624427
v -248.48 -182.901 680.218
vn -0.270233 -0.655479 0.70521
v -249.502 -181.281 682.227
vn -0.060246 0.234393 -0.970273
v -250.613 -180.415 678.44
vn -0.625972 -0.18669 0.75717
v -250.948 -186.664 679.548
vn 0.460204 -0.327745 0.825103
v -249.736 -185.88 679.767
vn -0.73724 -0.151263 0.65848
v -252.211 -186.109 678.262
vn -0.956553 0.290256 0.0275242
v -252.602 -186.764 677.27
vn -0.989142 -0.130066 0.0684156
v -252.304 -186.161 677.324
vn -0.504209 0.388577 -0.771221
v -251.482 -186.591 675.882
vn -0.0324121 -0.765835 0.64222
v -249.545 -190.68 676.827
vn -0.884109 -0.42572 -0.192648
v -252.274 -190.38 676.149
vn -0.849087 0.260109 -0.459777
v -252.8 -188.198 676.2
vn -0.556351 0.288639 -0.779205
v -252.432 -188.344 675.673
vn -0.359655 -0.145948 -0.921601
v -252.418 -189.302 675.413
vn 0.546925 -0.628804 0.552702
v -246.718 -179.315 682.726
vn 0.817272 0.0487742 0.574185
v -245.936 -178.391 681.534
vn 0.325612 0.231835 -0.91664
v -248.282 -175.878 679.836
vn -0.033684 0.811271 0.583699
v -247.923 -175.171 680.24
vn 0.863473 0.421353 -0.277264
v -247.285 -176.516 680.181
vn 0.161545 0.277725 -0.946981
v -249.065 -175.205 679.853
vn 0.831472 -0.541411 0.124615
v -247.584 -180.728 680.932
vn 0.847552 -0.190357 -0.495398
v -247.287 -179.502 680.114
vn 0.953443 -0.264277 -0.145274
v -247.952 -181.681 679.814
vn 0.746383 0.0999385 -0.65797
v -248.042 -180.927 679.338
vn 0.741201 -0.188014 0.644416
v -248.464 -184.909 678.773
vn 0.986181 -0.0841156 -0.142726
v -248.208 -182.442 678.896
vn 0.809865 0.141023 -0.569412
v -248.535 -182.917 678.147
vn 0.581315 -0.326171 0.745443
v -248.479 -187.676 678.408
vn 0.700714 -0.139857 0.699599
v -248.481 -187.36 678.497
vn 0.939892 -0.136056 0.313197
v -248.29 -187.477 678.228
vn 0.999856 -0.00809002 0.014906
v -248.4 -185.008 677.814
vn 0.44566 0.316158 -0.837515
v -249.369 -183.708 677.058
vn 0.283061 -0.507814 0.813635
v -248.687 -189.048 677.788
vn 0.964854 -0.259402 0.0420418
v -248.458 -189.01 676.016
vn 0.22728 -0.744846 -0.627335
v -251.081 -189.618 675.01
vn -0.0436473 0.191591 -0.980504
v -251.222 -189.1 675.005
vn -0.964413 -0.248611 0.0900041
v -254.01 -179.016 683.123
vn -0.34843 0.305224 0.886248
v -254.01 -179.016 683.123
vn -0.866167 -0.49739 0.0485639
v -253.746 -179.793 682.451
vn -0.34843 0.305224 0.886248
v -249.465 -177.26 684.305
vn 0.217892 -0.151148 0.964198
v -249.465 -177.26 684.305
vn 0.415168 0.735414 0.535539
v -249.465 -177.26 684.305
vn -0.34843 0.305224 0.886248
v -254.196 -176.938 682.334
vn -0.9952 -0.0590237 0.0780606
v -254.196 -176.938 682.334
vn -0.762764 0.590848 -0.26285
v -254.196 -176.938 682.334
vn -0.816301 0.511592 -0.26819
v -254.269 -177.946 680.635
vn -0.513779 0.00177473 -0.857921
v -254.269 -177.946 680.635
vn -0.415963 0.205215 -0.885924
v -253.643 -177.168 680.211
vn -0.597337 -0.73848 0.312786
v -253.353 -180.252 681.419
vn -0.722592 -0.569758 0.391455
v -252.669 -181.608 680.707
vn -0.977189 -0.211903 -0.014114
v -252.669 -181.608 680.707
vn -0.635121 0.200565 -0.745919
v -252.782 -180.818 679.663
vn -0.907453 -0.189988 0.374745
v -252.918 -188.176 677.826
vn -0.965532 0.24782 0.0795796
v -252.918 -188.176 677.826
vn -0.865182 -0.500105 0.0368011
v -252.556 -189.982 676.971
vn -0.900984 -0.350066 0.256284
v -252.957 -189.229 677.198
vn 0.374937 0.751256 0.543172
v -248.192 -177.49 683.634
vn 0.288849 0.277447 0.916291
v -247.305 -177.728 683.426
vn 0.553726 0.698523 0.453269
v -247.305 -177.728 683.426
vn 0.817272 0.0487742 0.574185
v -247.305 -177.728 683.426
vn -0.240186 0.579272 -0.778944
v -251.653 -175.017 680.339
vn 0.0475168 0.68867 0.723516
v -251.653 -175.017 680.339
vn 0.0353086 0.981191 -0.189784
v -251.653 -175.017 680.339
vn 0.951437 -0.296174 0.083956
v -248.48 -182.901 680.218
vn 0.535399 -0.587328 0.606954
v -249.502 -181.281 682.227
vn 0.148703 -0.472226 0.868844
v -249.502 -181.281 682.227
vn 0.0513985 -0.341316 0.938542
v -250.948 -186.664 679.548
vn -0.981797 -0.157505 0.106143
v -252.211 -186.109 678.262
vn -0.923767 0.362062 0.12476
v -252.211 -186.109 678.262
vn -0.722766 0.446572 -0.52743
v -252.602 -186.764 677.27
vn -0.793577 0.285387 -0.537392
v -252.304 -186.161 677.324
vn -0.897071 0.437129 0.0646722
v -252.304 -186.161 677.324
vn 0.22728 -0.744846 -0.627335
v -249.545 -190.68 676.827
vn 0.855236 -0.508593 0.0995237
v -249.545 -190.68 676.827
vn -0.19255 -0.907562 0.373171
v -252.274 -190.38 676.149
vn 0.0375832 -0.848633 -0.527645
v -252.274 -190.38 676.149
vn -0.35766 -0.559029 -0.748041
v -252.274 -190.38 676.149
vn -0.889992 -0.079773 -0.448944
v -252.418 -189.302 675.413
vn 0.817272 0.0487742 0.574185
v -246.718 -179.315 682.726
vn 0.739081 0.588015 0.32863
v -245.936 -178.391 681.534
vn 0.863473 0.421353 -0.277264
v -245.936 -178.391 681.534
vn 0.825546 -0.538952 -0.167345
v -245.936 -178.391 681.534
vn 0.718369 0.0151529 -0.695497
v -245.936 -178.391 681.534
vn 0.508125 0.713271 0.482755
v -247.923 -175.171 680.24
vn 0.863473 0.421353 -0.277264
v -247.923 -175.171 680.24
vn 0.375912 0.308418 -0.873824
v -247.923 -175.171 680.24
vn 0.0353086 0.981191 -0.189784
v -247.923 -175.171 680.24
vn 0.532303 0.100754 -0.840537
v -247.285 -176.516 680.181
vn -0.0780033 0.718247 -0.691402
v -249.065 -175.205 679.853
vn 0.0353086 0.981191 -0.189784
v -249.065 -175.205 679.853
vn 0.993379 -0.054308 0.101237
v -248.464 -184.909 678.773
vn 0.799652 0.178346 -0.573366
v -248.4 -185.008 677.814
vn 0.893541 -0.381828 0.236203
v -248.687 -189.048 677.788
vn 0.779847 0.247117 -0.575128
v -248.458 -189.01 676.016
vn 0.404091 -0.598829 -0.691458
v -248.458 -189.01 676.016
vn 0.334599 0.159876 -0.9287
v -248.458 -189.01 676.016
vn -0.343917 -0.337204 -0.876364
v -251.081 -189.618 675.01
vn 0.34007 0.0827007 -0.936757
v -251.081 -189.618 675.01
f 1//1 3//3 24//24
f 2//2 61//61 59//59
f 40//40 5//5 4//4
f 62//62 65//65 60//60
f 59//59 66//66 6//6
f 1//1 22//22 63//63
f 24//24 22//22 1//1
f 7//7 68//68 67//67
f 6//6 2//2 59//59
f 7//7 67//67 20//20
f 21//21 70//70 83//83
f 25//25 69//69 70//70
f 2//2 9//9 61//61
f 2//2 6//6 9//9
f 8//8 10//10 24//24
f 3//3 8//8 24//24
f 72//72 8//8 71//71
f 8//8 3//3 71//71
f 9//9 6//6 11//11
f 9//9 11//11 73//73
f 10//10 28//28 26//26
f 26//26 28//28 13//13
f 12//12 26//26 13//13
f 12//12 15//15 14//14
f 12//12 13//13 15//15
f 75//75 16//16 78//78
f 76//76 29//29 16//16
f 77//77 78//78 16//16
f 16//16 29//29 34//34
f 19//19 22//22 37//37
f 22//22 17//17 63//63
f 63//63 17//17 18//18
f 79//79 106//106 64//64
f 80//80 18//18 17//17
f 19//19 17//17 22//22
f 79//79 81//81 106//106
f 5//5 40//40 84//84
f 87//87 23//23 43//43
f 37//37 87//87 43//43
f 21//21 25//25 70//70
f 25//25 74//74 69//69
f 24//24 10//10 26//26
f 23//23 87//87 27//27
f 27//27 88//88 89//89
f 47//47 23//23 27//27
f 48//48 86//86 113//113
f 27//27 89//89 12//12
f 51//51 27//27 50//50
f 47//47 27//27 51//51
f 90//90 73//73 30//30
f 11//11 30//30 73//73
f 31//31 93//93 74//74
f 12//12 50//50 27//27
f 55//55 50//50 12//12
f 55//55 12//12 32//32
f 76//76 91//91 29//29
f 94//94 29//29 91//91
f 31//31 92//92 93//93
f 31//31 34//34 92//92
f 35//35 34//34 31//31
f 31//31 58//58 35//35
f 31//31 54//54 58//58
f 14//14 32//32 12//12
f 16//16 33//33 77//77
f 97//97 32//32 14//14
f 57//57 95//95 98//98
f 119//119 99//99 36//36
f 100//100 16//16 34//34
f 35//35 100//100 34//34
f 100//100 33//33 16//16
f 36//36 35//35 58//58
f 58//58 119//119 36//36
f 38//38 82//82 101//101
f 81//81 102//102 106//106
f 107//107 103//103 41//41
f 39//39 25//25 42//42
f 110//110 25//25 39//39
f 108//108 110//110 39//39
f 108//108 39//39 42//42
f 83//83 111//111 21//21
f 42//42 25//25 21//21
f 109//109 112//112 85//85
f 22//22 87//87 37//37
f 43//43 104//104 37//37
f 104//104 43//43 44//44
f 110//110 105//105 44//44
f 43//43 86//86 45//45
f 45//45 44//44 43//43
f 46//46 25//25 110//110
f 45//45 48//48 46//46
f 44//44 46//46 110//110
f 44//44 45//45 46//46
f 45//45 86//86 48//48
f 53//53 48//48 113//113
f 46//46 48//48 49//49
f 46//46 49//49 54//54
f 48//48 114//114 49//49
f 114//114 54//54 49//49
f 46//46 54//54 25//25
f 51//51 50//50 52//52
f 52//52 50//50 115//115
f 52//52 47//47 51//51
f 53//53 113//113 52//52
f 56//56 52//52 115//115
f 56//56 115//115 96//96
f 52//52 56//56 53//53
f 114//114 116//116 54//54
f 25//25 31//31 74//74
f 54//54 31//31 25//25
f 57//57 117//117 95//95
f 118//118 58//58 54//54
f 118//118 120//120 58//58
