# Wavafront OBJ file of BodyParts3D
# BodyParts3D, Copyright(C) 2010-2011 The Database Center for Life Science licensed under CC Attribution-Share Alike 2.1 Japan.
vn -0.806553 -0.489381 0.33163
v 261.689 -121.138 804.448
vn -0.875114 0.477454 -0.0788178
v 261.457 -121.924 798.897
vn -0.679464 -0.389827 0.621582
v 262.028 -121.021 804.892
vn -0.523711 0.372952 0.76592
v 263.612 -118.821 804.513
vn -0.277564 0.244222 0.929147
v 264.24 -117.688 804.554
vn -0.624132 -0.731131 0.275513
v 262.82 -122.253 804.986
vn -0.239434 -0.675645 0.697262
v 264.801 -123.332 804.763
vn -0.639458 0.492401 0.590453
v 262.059 -120.081 804.214
vn -0.664703 0.437195 0.605831
v 263.147 -118.632 803.866
vn -0.840251 0.530848 -0.110357
v 262.939 -119.064 801.818
vn -0.871607 0.323689 -0.36814
v 263.112 -118.708 802.095
vn -0.912072 0.252158 -0.323329
v 263.278 -118.283 802
vn -0.978935 0.0347283 -0.201197
v 263.396 -117.953 801.816
vn -0.860329 0.0921484 -0.50134
v 263.481 -118.683 801.716
vn -0.974684 -0.0829743 -0.207621
v 263.541 -118.335 801.641
vn -0.995089 -0.0885045 -0.0443166
v 263.464 -117.996 801.575
vn -0.674429 0.351618 0.649238
v 263.978 -116.098 803.664
vn -0.726458 0.354038 0.588995
v 263.157 -112.86 800.528
vn -0.965842 -0.248473 0.0735506
v 263.653 -113.857 800.712
vn -0.945299 -0.157154 0.285853
v 263.757 -113.367 801.325
vn -0.777679 -0.626465 0.0525056
v 262.222 -123.382 800.237
vn -0.433233 -0.89411 0.113479
v 262.666 -123.709 800.643
vn -0.323516 -0.940306 0.105648
v 264.528 -123.777 802.363
vn -0.922436 0.353443 0.155529
v 262.999 -118.855 801.057
vn -0.813323 0.564621 -0.140385
v 263.089 -118.943 801.429
vn -0.625195 0.202971 0.753614
v 263.143 -118.501 800.978
vn -0.454069 0.888473 0.0666157
v 263.535 -118.749 801.369
vn -0.978671 0.0662342 0.194466
v 263.411 -118.07 801.234
vn -0.957909 0.283032 0.047996
v 263.07 -117.205 798.567
vn -0.991189 0.129722 -0.026764
v 263.682 -114.957 800.58
vn -0.863197 0.478706 -0.160407
v 263.68 -115.166 799.55
vn -0.832423 0.549184 -0.0739564
v 263.702 -115.234 799.205
vn -0.967447 -0.109594 -0.228113
v 263.808 -114.33 800.087
vn -0.909382 0.339306 -0.240617
v 263.774 -114.881 799.845
vn -0.818551 0.522665 0.238319
v 263.777 -115.094 798.1
vn -0.802993 0.506802 0.313615
v 262.807 -111.787 798.891
vn -0.807925 -0.589247 0.00679316
v 263.349 -113.678 798.185
vn -0.567899 0.707857 0.420035
v 263.523 -111.226 799.817
vn -0.787912 -0.60969 -0.0864413
v 263.744 -114.06 799.677
vn -0.808268 -0.575461 0.124691
v 263.799 -114.061 797.886
vn -0.614323 -0.604603 -0.507014
v 262.927 -123.682 798.479
vn -0.0950715 -0.990847 -0.0958303
v 263.997 -124.123 798.881
vn -0.766209 -0.539055 -0.349776
v 261.788 -122.54 799.009
vn -0.934648 0.340613 -0.102063
v 261.751 -121.217 798.738
vn -0.662613 -0.328416 -0.673118
v 261.718 -121.995 798.445
vn -0.834485 0.187228 -0.518247
v 261.85 -121.279 798.389
vn -0.615709 -0.48634 -0.61998
v 262.127 -122.629 798.691
vn -0.608453 -0.024395 -0.793215
v 262.03 -121.671 798.152
vn -0.536317 -0.415949 -0.734405
v 262.432 -122.339 798.233
vn -0.395125 -0.273912 -0.87684
v 262.372 -121.681 797.971
vn -0.833649 0.0786947 -0.54666
v 262.868 -118.81 797.797
vn -0.987907 0.120328 0.0977844
v 263.311 -115.953 797.583
vn -0.984662 -0.0322595 0.171465
v 263.253 -115.682 797.172
vn -0.972292 -0.129015 -0.194944
v 263.292 -116.093 796.897
vn -0.895263 0.262409 0.360064
v 263.452 -115.53 797.847
vn -0.767609 0.368571 0.524339
v 263.64 -114.852 797.582
vn -0.827548 0.255525 0.499872
v 263.225 -114.653 796.96
vn -0.997261 -0.0722077 0.016029
v 262.825 -113.858 795.741
vn -0.828177 0.222616 0.514359
v 262.835 -112.825 795.527
vn -0.745153 -0.351437 -0.566779
v 263.076 -114.254 795.454
vn -0.908704 -0.41052 0.0756975
v 263.241 -113.276 796.676
vn -0.724316 0.689418 -0.00825734
v 262.842 -110.897 796.202
vn -0.994195 -0.106592 -0.0146385
v 262.801 -112.07 795.731
vn -0.924992 -0.0856969 -0.370197
v 263.148 -111.294 794.124
vn -0.0763672 -0.133378 0.988119
v 264.956 -122.06 805.676
vn 0.520869 -0.478038 0.70723
v 265.69 -122.445 805.256
vn -0.0895684 0.317093 0.944156
v 265.114 -119.636 805.202
vn 0.268022 0.395899 0.87831
v 265.084 -119.306 805.074
vn -0.0786597 0.46601 0.881276
v 265.494 -119.934 805.347
vn 0.278367 0.540239 0.794137
v 265.461 -119.619 805.15
vn 0.700699 0.286164 0.653552
v 265.39 -119.013 804.633
vn -0.183508 0.202727 0.961887
v 266.055 -119.874 805.425
vn -0.0473822 0.892098 0.449351
v 265.758 -119.367 804.509
vn -0.18158 0.795046 0.578732
v 266.157 -119.577 805.079
vn -0.302412 0.774374 0.555781
v 266.107 -119.34 804.504
vn -0.213347 0.406306 0.888481
v 266.55 -119.814 805.522
vn -0.579415 0.53172 0.617699
v 266.429 -118.972 804.425
vn -0.422508 0.484343 0.766094
v 266.872 -119.446 805.443
vn -0.642453 0.0912903 0.760868
v 267.165 -118.742 805.266
vn -0.150821 0.214989 0.9649
v 265.027 -118.632 804.887
vn -0.155832 0.0738248 0.985021
v 265.298 -117.563 804.755
vn -0.23434 0.0271504 0.971776
v 265.624 -117.171 804.788
vn 0.787014 -0.0419753 0.615505
v 265.66 -118.061 804.353
vn -0.183575 -0.42367 0.88702
v 265.999 -117.497 804.803
vn -0.386281 -0.28747 0.87644
v 266.025 -118.316 804.286
vn -0.341493 0.0877504 0.935779
v 267.069 -117.313 805.284
vn -0.368556 0.380934 0.847972
v 265.102 -115.187 804.184
vn -0.476782 -0.813733 0.332442
v 264.991 -123.882 804.153
vn 0.297469 -0.600551 0.742194
v 265.358 -124.081 804.178
vn -0.429715 -0.902964 0.000105529
v 265.674 -124.435 803.163
vn 0.647505 -0.508407 0.567679
v 266.712 -124.526 802.779
vn -0.23461 0.677821 0.696791
v 265.717 -119.089 804.129
vn -0.524839 0.52003 0.673879
v 264.09 -112.946 801.502
vn 0.0676616 0.905996 0.417844
v 265.609 -110.756 799.985
vn 0.615733 -0.570118 0.54391
v 266.714 -124.809 802.479
vn -0.108126 -0.981949 -0.155192
v 265.54 -124.056 801.303
vn -0.303841 -0.820029 -0.485009
v 266.262 -124.253 801.414
vn -0.379315 -0.866919 -0.323374
v 266.689 -124.805 802.053
vn -0.270247 -0.809653 -0.520989
v 266.646 -124.537 801.63
vn 0.767289 -0.610816 0.195378
v 267.349 -124.508 801.674
vn 0.553923 -0.832553 0.00490781
v 267.33 -124.534 801.322
vn -0.00289341 -0.751516 -0.659708
v 267.291 -124.261 800.968
vn 0.109482 -0.882116 -0.458132
v 267.216 -123.671 800.375
vn -0.881911 0.432206 -0.188232
v 264.122 -114.861 799.11
vn -0.956424 0.181582 0.228649
v 264.228 -114.65 798.346
vn -0.864597 -0.485644 -0.128923
v 264.073 -114.177 798.971
vn -0.836334 -0.515821 0.185671
v 264.141 -114.312 798.28
vn -0.896187 -0.109475 0.429957
v 263.976 -114.415 797.837
vn -0.135272 0.974108 0.181151
v 264.705 -110.042 797.374
vn 0.230513 -0.966763 -0.110599
v 265.061 -124.018 799.17
vn -0.15768 -0.423282 -0.892171
v 265.266 -123.349 797.432
vn 0.117908 -0.854718 -0.505525
v 265.999 -123.641 797.62
vn 0.214643 -0.51674 -0.828799
v 266.313 -123.269 797.414
vn -0.297958 -0.315954 -0.900774
v 264.51 -118.226 796.498
vn 0.045135 -0.329611 -0.943037
v 266.642 -118.799 796.234
vn -0.567235 -0.35401 -0.743587
v 263.991 -116.227 795.963
vn -0.481656 0.87636 -0.000948662
v 263.585 -110.226 796.031
vn -0.545987 0.757168 -0.358601
v 263.522 -110.739 794.351
vn -0.133905 0.97 -0.202901
v 265.246 -109.859 794.808
vn -0.439833 -0.249857 -0.862623
v 263.557 -111.671 793.868
vn -0.224238 0.647663 -0.728183
v 264.87 -110.548 793.588
vn -0.294886 -0.344317 -0.891341
v 264.964 -111.987 793.519
vn -0.237066 0.0299835 -0.971031
v 264.908 -111.311 793.343
vn 0.466189 -0.337182 0.81791
v 267.574 -119.378 805.504
vn -0.193577 0.0820634 0.977647
v 267.541 -118.886 805.513
vn -0.0832103 0.0442499 0.995549
v 268.472 -117.174 805.417
vn 0.235436 -0.211667 0.94856
v 269.178 -117.114 805.432
vn 0.118411 -0.058712 0.991227
v 269.81 -116.063 805.545
vn -0.0672381 0.756888 0.650076
v 268.848 -113.461 804.145
vn -0.146571 0.174245 0.973733
v 269.751 -115.272 805.46
vn -0.0427432 0.481091 0.875628
v 269.693 -114.601 805.257
vn 0.291935 -0.787875 -0.542243
v 268.349 -123.238 800.294
vn 0.800364 -0.57928 0.154443
v 269.183 -122.231 799.632
vn 0.637843 -0.734751 -0.230861
v 269.45 -122.187 798.24
vn 0.675755 0.445543 -0.587237
v 268.182 -114.867 795.712
vn 0.558841 0.751823 -0.34994
v 268.328 -115.271 795.431
vn -0.0516423 -0.472322 -0.879912
v 268.084 -115.422 794.783
vn 0.565574 0.327622 -0.756829
v 268.461 -114.796 795.951
vn 0.620652 0.602621 -0.501635
v 268.48 -115.236 795.775
vn -0.137261 -0.349235 -0.926927
v 268.525 -116.375 795.206
vn 0.446488 0.835088 -0.321365
v 268.834 -115.529 795.462
vn 0.666201 -0.241257 -0.705671
v 268.277 -114.173 795.565
vn 0.980703 0.014524 0.194966
v 268.208 -114.591 795.296
vn 0.248939 0.965629 0.0747613
v 267.402 -110.008 795.459
vn 0.216564 0.881973 -0.418596
v 267.689 -110.251 794.066
vn 0.864033 0.240579 0.442231
v 268.482 -114.024 794.452
vn 0.123126 -0.416547 -0.900738
v 268.27 -113.808 793.832
vn 0.514341 -0.795762 -0.319713
v 268.978 -113.482 794.318
vn -0.0172975 -0.317033 -0.948257
v 267.764 -112.216 793.051
vn 0.0121894 0.00109243 -0.999925
v 267.736 -111.874 792.982
vn 0.161704 0.454089 -0.876159
v 267.694 -111.131 793.132
vn 0.290008 -0.0994852 -0.951839
v 268.088 -111.835 793.036
vn 0.555653 -0.296276 0.776833
v 270.167 -116.34 805.327
vn 0.650237 -0.49226 0.578681
v 270.176 -116.77 804.971
vn 0.771363 -0.241934 0.588614
v 270.782 -116.043 804.782
vn 0.790193 -0.48563 0.373844
v 271.128 -116.159 804.076
vn 0.414021 0.16135 0.895853
v 270.101 -115.241 805.472
vn 0.391891 0.60029 0.69719
v 270.35 -114.273 804.847
vn 0.87968 -0.27448 0.388361
v 271.679 -115.503 803.558
vn 0.780106 0.163379 0.603938
v 271.699 -114.39 803.738
vn 0.594465 0.537756 0.597854
v 271.667 -114.069 803.567
vn 0.795199 -0.497033 0.347298
v 270.61 -117.504 802.945
vn 0.84006 -0.484977 0.243098
v 271.55 -115.925 803.293
vn 0.93182 -0.0219282 0.362259
v 272.302 -114.224 802.551
vn 0.775601 0.47567 0.414947
v 272.236 -113.541 802.413
vn 0.416057 0.821667 0.389564
v 271.889 -113.208 802.36
vn 0.967052 0.170694 0.188875
v 272.554 -113.659 801.708
vn 0.935635 -0.30586 0.176172
v 272.36 -115.117 801.66
vn 0.77602 0.622615 0.100711
v 272.47 -113.186 800.541
vn 0.93605 -0.222853 -0.272298
v 272.453 -115.807 798.221
vn 0.777071 -0.180619 -0.602941
v 272.258 -115.202 797.747
vn 0.573502 0.816614 0.0650863
v 271.564 -112.086 797.492
vn 0.874053 0.44845 -0.186878
v 271.911 -112.489 797.56
vn 0.845821 -0.531576 0.0448856
v 270.26 -121.393 798.04
vn 0.587816 -0.407256 -0.69901
v 270.073 -121.478 797.694
vn 0.449638 -0.316818 -0.835136
v 270.142 -118.059 796.863
vn 0.191922 0.185851 -0.963652
v 269.537 -115.524 795.472
vn 0.290862 -0.541172 -0.789007
v 269.647 -116.212 795.567
vn -0.0325379 0.433724 -0.900458
v 269.853 -114.709 795.832
vn 0.481197 -0.101281 -0.870742
v 270.224 -115.05 795.768
vn -0.278059 -0.512226 -0.812593
v 269.799 -114.021 795.714
vn -0.510848 -0.309112 -0.802175
v 270.168 -114.374 795.592
vn -0.618252 -0.539052 -0.572003
v 270.135 -114.06 795.389
vn 0.38516 -0.728653 -0.566318
v 270.033 -113.265 794.584
vn 0.718915 -0.373693 -0.586102
v 270.3 -112.799 794.476
vn 0.518325 -0.413102 -0.74879
v 270.522 -114.324 795.701
vn 0.486915 -0.488652 -0.72397
v 270.414 -113.417 794.914
vn 0.799408 0.0274899 -0.60016
v 270.317 -112.464 794.352
vn 0.384043 0.903544 0.190052
v 270.741 -111.526 796.698
vn 0.802283 0.492894 -0.336746
v 270.932 -111.789 795.671
vn 0.884591 0.184399 -0.428364
v 271.828 -112.895 796.932
vn 0.741789 -0.197965 -0.640749
v 272.035 -113.912 797.133
vn 0.457662 0.873718 -0.164809
v 269.53 -110.84 794.821
vn 0.584605 0.631486 -0.509375
v 269.509 -111.093 794.159
vn 0.567851 0.819337 -0.0789418
v 270.633 -111.396 795.96
vn 0.316957 -0.302855 -0.898787
v 269.438 -112.997 793.84
vn 0.419842 -0.164029 -0.892652
v 269.525 -112.647 793.764
vn 0.614517 -0.32024 -0.720982
v 269.978 -112.909 794.058
vn 0.526472 0.209628 -0.823944
v 269.256 -111.634 793.566
vn 0.991757 0.112607 -0.0611311
v 272.7 -113.862 798.882
vn 0.916822 0.0573457 -0.395158
v 272.491 -114.085 797.864
vn -0.780276 0.382846 0.494569
v 261.689 -121.138 804.448
vn -0.944318 0.328957 -0.0071725
v 261.689 -121.138 804.448
vn -0.879709 -0.464465 -0.101901
v 261.457 -121.924 798.897
vn -0.950726 0.286374 -0.118783
v 261.457 -121.924 798.897
vn -0.437324 0.278371 0.855136
v 262.028 -121.021 804.892
vn -0.298374 -0.498077 0.814182
v 262.82 -122.253 804.986
vn -0.884482 0.459412 -0.0814373
v 262.059 -120.081 804.214
vn -0.884076 0.466668 0.0251097
v 263.147 -118.632 803.866
vn -0.53299 0.819574 -0.210286
v 262.939 -119.064 801.818
vn -0.558923 0.661311 -0.500273
v 263.112 -118.708 802.095
vn -0.579356 0.724678 -0.37308
v 263.481 -118.683 801.716
vn -0.984698 0.160327 0.0683052
v 263.978 -116.098 803.664
vn -0.916876 -0.359061 0.174395
v 263.157 -112.86 800.528
vn -0.728621 0.322715 0.604125
v 263.757 -113.367 801.325
vn -0.348412 0.889486 0.295675
v 262.999 -118.855 801.057
vn -0.520184 0.383844 0.762936
v 262.999 -118.855 801.057
vn -0.365886 0.905138 0.216454
v 263.089 -118.943 801.429
vn -0.921689 0.261013 0.286986
v 263.089 -118.943 801.429
vn -0.911335 0.371396 0.177575
v 263.143 -118.501 800.978
vn -0.999714 -0.00088182 0.023884
v 263.535 -118.749 801.369
vn -0.625195 0.202971 0.753614
v 263.535 -118.749 801.369
vn -0.702804 0.0132026 0.711261
v 263.411 -118.07 801.234
vn -0.983622 -0.17958 0.0154642
v 262.807 -111.787 798.891
vn -0.149072 -0.807313 -0.570985
v 262.927 -123.682 798.479
vn -0.977801 -0.208354 0.0222148
v 262.835 -112.825 795.527
vn -0.994243 0.0678346 -0.0829417
v 262.842 -110.897 796.202
vn -0.761706 0.606389 -0.228248
v 263.148 -111.294 794.124
vn -0.425111 0.349978 -0.834743
v 263.148 -111.294 794.124
vn -0.0193343 0.933474 0.358123
v 265.461 -119.619 805.15
vn -0.189062 0.772349 0.60641
v 266.055 -119.874 805.425
vn 0.694179 0.566107 0.444566
v 265.758 -119.367 804.509
vn -0.546119 -0.16154 0.821985
v 266.429 -118.972 804.425
vn 0.642063 0.105344 0.75938
v 265.027 -118.632 804.887
vn 0.647442 -0.02286 0.761772
v 265.298 -117.563 804.755
vn 0.00509805 -0.625324 0.780348
v 265.298 -117.563 804.755
vn -0.0610947 -0.466092 0.882625
v 265.66 -118.061 804.353
vn -0.306565 -0.434746 0.846767
v 267.069 -117.313 805.284
vn -0.366416 -0.870767 0.327879
v 265.358 -124.081 804.178
vn -0.177822 -0.126934 0.975842
v 265.717 -119.089 804.129
vn 0.706032 0.605748 0.366863
v 265.717 -119.089 804.129
vn 0.831416 -0.0736709 0.550745
v 265.717 -119.089 804.129
vn -0.247269 -0.957526 0.148332
v 266.714 -124.809 802.479
vn 0.415661 -0.909504 0.00529965
v 266.714 -124.809 802.479
vn 0.359916 -0.932507 -0.0298656
v 266.689 -124.805 802.053
vn -0.244722 -0.797653 -0.551236
v 267.33 -124.534 801.322
vn 0.323328 -0.730797 -0.601161
v 267.33 -124.534 801.322
vn -0.0375443 0.0868295 0.995515
v 267.574 -119.378 805.504
vn 0.782767 -0.621895 0.0228732
v 268.349 -123.238 800.294
vn 0.344832 -0.918309 -0.194421
v 269.45 -122.187 798.24
vn 0.995898 0.0336849 0.0839784
v 268.182 -114.867 795.712
vn 0.666201 -0.241257 -0.705671
v 268.182 -114.867 795.712
vn 0.918947 0.226579 0.322797
v 268.328 -115.271 795.431
vn 0.908122 -0.322338 -0.267231
v 268.328 -115.271 795.431
vn 0.880374 -0.331482 -0.339207
v 268.084 -115.422 794.783
vn 0.669707 -0.0195787 -0.742368
v 268.084 -115.422 794.783
vn 0.442184 0.822239 -0.358323
v 268.084 -115.422 794.783
vn -0.101842 0.364893 -0.925463
v 268.461 -114.796 795.951
vn 0.666201 -0.241257 -0.705671
v 268.461 -114.796 795.951
vn 0.03119 -0.33993 -0.939934
v 268.461 -114.796 795.951
vn -0.150774 0.48537 -0.861211
v 268.48 -115.236 795.775
vn 0.669707 -0.0195787 -0.742368
v 268.525 -116.375 795.206
vn 0.325502 -0.572077 -0.752845
v 268.525 -116.375 795.206
vn 0.168448 0.105818 -0.980014
v 268.525 -116.375 795.206
vn -0.0594507 0.434397 -0.898757
v 268.834 -115.529 795.462
vn 0.669707 -0.0195787 -0.742368
v 268.834 -115.529 795.462
vn 0.928766 -0.366703 0.0540606
v 268.277 -114.173 795.565
vn 0.188627 -0.774755 -0.603469
v 268.277 -114.173 795.565
vn 0.85842 -0.474177 -0.19563
v 268.482 -114.024 794.452
vn 0.687899 -0.615243 -0.385059
v 268.27 -113.808 793.832
vn 0.541131 -0.159257 -0.825721
v 269.647 -116.212 795.567
vn -0.3149 -0.210077 -0.925584
v 269.853 -114.709 795.832
vn -0.39205 -0.262495 -0.881699
v 270.224 -115.05 795.768
vn 0.168728 -0.474274 -0.864057
v 270.168 -114.374 795.592
vn 0.0988504 -0.618844 -0.779269
v 270.135 -114.06 795.389
vn -0.586506 -0.61201 -0.530523
v 270.033 -113.265 794.584
vn 0.402929 -0.793909 -0.455365
v 269.438 -112.997 793.84
f 6//6 3//3 1//1
f 206//206 8//8 202//202
f 203//203 208//208 2//2
f 1//1 204//204 21//21
f 204//204 43//43 21//21
f 43//43 204//204 45//45
f 205//205 44//44 46//46
f 205//205 46//46 45//45
f 206//206 207//207 65//65
f 65//65 207//207 7//7
f 206//206 67//67 4//4
f 67//67 206//206 65//65
f 4//4 17//17 9//9
f 67//67 5//5 4//4
f 5//5 17//17 4//4
f 80//80 81//81 5//5
f 5//5 87//87 17//17
f 7//7 207//207 88//88
f 6//6 90//90 88//88
f 206//206 4//4 8//8
f 1//1 21//21 6//6
f 208//208 209//209 12//12
f 4//4 9//9 8//8
f 209//209 213//213 12//12
f 11//11 208//208 12//12
f 208//208 11//11 10//10
f 2//2 208//208 10//10
f 10//10 25//25 2//2
f 213//213 13//13 12//12
f 213//213 30//30 13//13
f 12//12 14//14 11//11
f 212//212 210//210 211//211
f 212//212 27//27 210//210
f 27//27 218//218 210//210
f 15//15 14//14 12//12
f 13//13 15//15 12//12
f 16//16 15//15 13//13
f 30//30 16//16 13//13
f 14//14 15//15 221//221
f 15//15 28//28 221//221
f 15//15 16//16 28//28
f 16//16 30//30 28//28
f 213//213 19//19 30//30
f 213//213 20//20 19//19
f 33//33 30//30 19//19
f 93//93 215//215 17//17
f 18//18 93//93 38//38
f 93//93 18//18 215//215
f 20//20 214//214 19//19
f 94//94 93//93 129//129
f 94//94 38//38 93//93
f 22//22 6//6 21//21
f 41//41 22//22 21//21
f 21//21 43//43 41//41
f 6//6 22//22 23//23
f 110//110 96//96 42//42
f 42//42 96//96 23//23
f 219//219 24//24 205//205
f 205//205 24//24 44//44
f 27//27 216//216 218//218
f 26//26 217//217 222//222
f 220//220 28//28 29//29
f 44//44 24//24 220//220
f 29//29 44//44 220//220
f 26//26 222//222 223//223
f 28//28 30//30 29//29
f 34//34 31//31 30//30
f 34//34 104//104 31//31
f 30//30 31//31 29//29
f 31//31 32//32 29//29
f 31//31 104//104 32//32
f 32//32 35//35 29//29
f 35//35 55//55 29//29
f 55//55 35//35 56//56
f 34//34 30//30 33//33
f 19//19 39//39 33//33
f 33//33 106//106 104//104
f 33//33 104//104 34//34
f 104//104 35//35 32//32
f 104//104 105//105 35//35
f 35//35 105//105 56//56
f 56//56 108//108 59//59
f 117//117 62//62 38//38
f 38//38 36//36 18//18
f 38//38 62//62 36//36
f 214//214 224//224 37//37
f 214//214 37//37 19//19
f 61//61 40//40 37//37
f 19//19 37//37 39//39
f 39//39 37//37 106//106
f 107//107 106//106 37//37
f 40//40 107//107 37//37
f 108//108 107//107 40//40
f 108//108 40//40 226//226
f 226//226 40//40 61//61
f 47//47 41//41 43//43
f 22//22 41//41 42//42
f 23//23 22//22 42//42
f 112//112 42//42 225//225
f 112//112 225//225 111//111
f 47//47 43//43 45//45
f 44//44 51//51 46//46
f 46//46 48//48 45//45
f 48//48 46//46 51//51
f 47//47 45//45 49//49
f 50//50 49//49 45//45
f 45//45 48//48 50//50
f 48//48 51//51 114//114
f 50//50 48//48 114//114
f 49//49 41//41 47//47
f 49//49 50//50 41//41
f 115//115 50//50 114//114
f 111//111 41//41 50//50
f 51//51 44//44 29//29
f 29//29 52//52 54//54
f 52//52 55//55 53//53
f 52//52 53//53 54//54
f 56//56 59//59 57//57
f 55//55 56//56 57//57
f 29//29 54//54 51//51
f 53//53 58//58 54//54
f 53//53 55//55 58//58
f 55//55 57//57 58//58
f 51//51 54//54 116//116
f 55//55 52//52 29//29
f 116//116 54//54 60//60
f 114//114 51//51 116//116
f 122//122 114//114 116//116
f 120//120 116//116 60//60
f 37//37 63//63 61//61
f 61//61 63//63 226//226
f 57//57 59//59 58//58
f 60//60 54//54 58//58
f 58//58 64//64 60//60
f 58//58 226//226 64//64
f 226//226 63//63 64//64
f 120//120 60//60 64//64
f 224//224 63//63 37//37
f 224//224 227//227 63//63
f 63//63 227//227 64//64
f 62//62 118//118 228//228
f 62//62 117//117 118//118
f 65//65 66//66 124//124
f 68//68 5//5 67//67
f 80//80 5//5 68//68
f 65//65 69//69 67//67
f 69//69 70//70 67//67
f 70//70 68//68 67//67
f 71//71 68//68 70//70
f 234//234 68//68 71//71
f 72//72 69//69 65//65
f 231//231 74//74 69//69
f 69//69 74//74 70//70
f 230//230 74//74 73//73
f 71//71 70//70 232//232
f 75//75 73//73 74//74
f 92//92 73//73 75//75
f 248//248 76//76 65//65
f 65//65 76//76 72//72
f 231//231 76//76 74//74
f 77//77 92//92 75//75
f 85//85 240//240 233//233
f 74//74 76//76 78//78
f 78//78 76//76 248//248
f 78//78 75//75 74//74
f 75//75 78//78 77//77
f 78//78 79//79 77//77
f 248//248 125//125 78//78
f 86//86 79//79 125//125
f 79//79 78//78 125//125
f 66//66 154//154 124//124
f 81//81 82//82 5//5
f 87//87 5//5 82//82
f 234//234 71//71 235//235
f 71//71 83//83 235//235
f 82//82 81//81 84//84
f 84//84 236//236 237//237
f 237//237 240//240 85//85
f 84//84 237//237 85//85
f 82//82 84//84 238//238
f 86//86 87//87 82//82
f 86//86 130//130 87//87
f 238//238 84//84 85//85
f 233//233 79//79 85//85
f 130//130 86//86 126//126
f 85//85 79//79 86//86
f 93//93 17//17 87//87
f 89//89 95//95 91//91
f 89//89 65//65 7//7
f 7//7 88//88 239//239
f 239//239 88//88 90//90
f 23//23 90//90 6//6
f 65//65 89//89 66//66
f 90//90 243//243 239//239
f 98//98 243//243 90//90
f 89//89 91//91 66//66
f 232//232 241//241 71//71
f 71//71 242//242 83//83
f 129//129 93//93 87//87
f 23//23 96//96 90//90
f 103//103 96//96 110//110
f 98//98 90//90 97//97
f 90//90 96//96 97//97
f 98//98 97//97 99//99
f 97//97 96//96 103//103
f 245//245 101//101 244//244
f 246//246 98//98 99//99
f 246//246 99//99 97//97
f 91//91 95//95 100//100
f 100//100 244//244 101//101
f 102//102 246//246 97//97
f 103//103 102//102 97//97
f 132//132 102//102 103//103
f 102//102 132//132 247//247
f 33//33 39//39 106//106
f 104//104 106//106 105//105
f 106//106 107//107 105//105
f 107//107 108//108 105//105
f 108//108 56//56 105//105
f 38//38 94//94 109//109
f 117//117 38//38 109//109
f 94//94 144//144 109//109
f 112//112 110//110 42//42
f 111//111 50//50 115//115
f 134//134 112//112 113//113
f 113//113 112//112 111//111
f 113//113 111//111 115//115
f 112//112 250//250 110//110
f 115//115 114//114 140//140
f 122//122 116//116 120//120
f 117//117 119//119 118//118
f 109//109 119//119 117//117
f 119//119 121//121 118//118
f 229//229 118//118 121//121
f 109//109 144//144 119//119
f 145//145 121//121 119//119
f 144//144 145//145 119//119
f 122//122 120//120 123//123
f 123//123 120//120 229//229
f 229//229 121//121 123//123
f 121//121 145//145 151//151
f 149//149 122//122 123//123
f 125//125 126//126 86//86
f 127//127 128//128 126//126
f 248//248 127//127 125//125
f 126//126 125//125 127//127
f 130//130 126//126 128//128
f 124//124 154//154 127//127
f 154//154 153//153 127//127
f 127//127 153//153 128//128
f 128//128 157//157 130//130
f 128//128 153//153 157//157
f 130//130 131//131 87//87
f 131//131 129//129 87//87
f 130//130 157//157 131//131
f 129//129 131//131 158//158
f 66//66 162//162 154//154
f 66//66 91//91 162//162
f 91//91 100//100 162//162
f 162//162 100//100 133//133
f 94//94 129//129 166//166
f 101//101 249//249 100//100
f 100//100 249//249 133//133
f 133//133 249//249 134//134
f 94//94 189//189 144//144
f 110//110 250//250 103//103
f 132//132 103//103 250//250
f 134//134 113//113 175//175
f 113//113 115//115 175//175
f 174//174 133//133 134//134
f 174//174 134//134 175//175
f 140//140 114//114 137//137
f 139//139 135//135 138//138
f 136//136 139//139 141//141
f 139//139 136//136 135//135
f 251//251 253//253 143//143
f 143//143 253//253 146//146
f 269//269 254//254 255//255
f 261//261 258//258 179//179
f 179//179 265//265 261//261
f 262//262 256//256 266//266
f 136//136 141//141 257//257
f 177//177 265//265 179//179
f 178//178 115//115 263//263
f 271//271 264//264 177//177
f 264//264 265//265 177//177
f 252//252 142//142 259//259
f 251//251 143//143 267//267
f 143//143 269//269 267//267
f 181//181 272//272 260//260
f 181//181 260//260 268//268
f 268//268 184//184 181//181
f 148//148 184//184 268//268
f 269//269 148//148 267//267
f 144//144 193//193 145//145
f 114//114 122//122 149//149
f 147//147 114//114 149//149
f 147//147 137//137 114//114
f 255//255 270//270 269//269
f 152//152 147//147 149//149
f 148//148 269//269 270//270
f 147//147 152//152 196//196
f 148//148 270//270 277//277
f 121//121 151//151 123//123
f 151//151 150//150 123//123
f 149//149 123//123 150//150
f 149//149 150//150 152//152
f 152//152 150//150 151//151
f 199//199 151//151 194//194
f 194//194 151//151 145//145
f 151//151 199//199 152//152
f 153//153 155//155 157//157
f 160//160 157//157 155//155
f 153//153 154//154 155//155
f 155//155 154//154 156//156
f 156//156 154//154 162//162
f 163//163 156//156 162//162
f 156//156 163//163 159//159
f 155//155 156//156 159//159
f 158//158 131//131 157//157
f 160//160 158//158 157//157
f 158//158 161//161 166//166
f 129//129 158//158 166//166
f 160//160 161//161 158//158
f 160//160 155//155 159//159
f 159//159 164//164 160//160
f 159//159 163//163 168//168
f 159//159 168//168 164//164
f 165//165 161//161 160//160
f 163//163 162//162 168//168
f 165//165 160//160 164//164
f 161//161 165//165 166//166
f 167//167 169//169 165//165
f 165//165 169//169 166//166
f 167//167 164//164 168//168
f 167//167 165//165 164//164
f 166//166 169//169 172//172
f 133//133 174//174 162//162
f 174//174 168//168 162//162
f 167//167 168//168 200//200
f 168//168 174//174 170//170
f 175//175 170//170 174//174
f 170//170 171//171 201//201
f 171//171 192//192 201//201
f 171//171 170//170 175//175
f 192//192 171//171 175//175
f 166//166 172//172 94//94
f 172//172 189//189 94//94
f 173//173 190//190 172//172
f 172//172 190//190 195//195
f 189//189 172//172 195//195
f 191//191 190//190 173//173
f 169//169 200//200 173//173
f 169//169 173//173 172//172
f 200//200 201//201 173//173
f 201//201 191//191 173//173
f 175//175 115//115 176//176
f 192//192 175//175 176//176
f 176//176 271//271 192//192
f 178//178 176//176 115//115
f 271//271 180//180 192//192
f 177//177 180//180 271//271
f 179//179 180//180 177//177
f 273//273 272//272 182//182
f 180//180 274//274 186//186
f 180//180 186//186 192//192
f 277//277 184//184 148//148
f 183//183 182//182 181//181
f 182//182 272//272 181//181
f 183//183 181//181 276//276
f 277//277 198//198 184//184
f 187//187 274//274 275//275
f 187//187 186//186 274//274
f 187//187 275//275 184//184
f 187//187 185//185 188//188
f 184//184 185//185 187//187
f 184//184 198//198 185//185
f 185//185 198//198 188//188
f 187//187 192//192 186//186
f 188//188 190//190 191//191
f 192//192 187//187 188//188
f 188//188 191//191 192//192
f 195//195 193//193 144//144
f 194//194 145//145 193//193
f 195//195 194//194 193//193
f 195//195 190//190 194//194
f 188//188 194//194 190//190
f 194//194 188//188 199//199
f 189//189 195//195 144//144
f 196//196 197//197 198//198
f 152//152 197//197 196//196
f 199//199 197//197 152//152
f 198//198 197//197 199//199
f 199//199 188//188 198//198
f 169//169 167//167 200//200
f 170//170 200//200 168//168
f 170//170 201//201 200//200
f 191//191 201//201 192//192
