# Wavafront OBJ file of BodyParts3D
# BodyParts3D, Copyright(C) 2010-2011 The Database Center for Life Science licensed under CC Attribution-Share Alike 2.1 Japan.
vn -0.573462 0.263982 0.775535
v -278.376 -159.538 696.736
vn -0.407769 0.082912 0.909313
v -277.338 -160.83 697.566
vn -0.808015 0.101073 0.580428
v -279.363 -160.323 695.903
vn -0.959669 -0.263687 0.0974917
v -279.511 -160.369 695.335
vn -0.616717 -0.77296 0.148973
v -278.861 -161.204 695.23
vn -0.828031 0.336218 0.448689
v -279.327 -158.845 695.466
vn -0.376763 0.39621 0.837298
v -278.381 -156.937 694.751
vn -0.77638 0.578134 0.250989
v -278.49 -156.791 694.463
vn -0.741493 0.669999 -0.0359191
v -278.385 -156.652 693.812
vn -0.914164 -0.405182 -0.0114829
v -278.904 -160.698 692.147
vn -0.566234 -0.816397 0.113466
v -278.026 -161.434 692.583
vn -0.983388 0.179654 -0.0259155
v -279.633 -158.654 694.006
vn -0.93448 0.205454 -0.29075
v -279.005 -159.538 691.773
vn -0.782681 0.583003 -0.217988
v -278.827 -157.063 693.354
vn -0.6293 -0.565091 0.533529
v -280.328 -176.41 677.334
vn -0.853005 -0.376153 0.361789
v -280.537 -176.465 676.784
vn -0.282854 -0.624757 0.727785
v -280.025 -176.351 677.599
vn -0.291601 -0.862288 0.414038
v -280.08 -176.584 677.282
vn -0.8174 -0.28161 0.502547
v -280.94 -174.706 677.663
vn -0.498752 -0.242787 0.832046
v -280.505 -174.309 678.43
vn -0.769105 -0.0178141 0.638874
v -280.775 -173.47 678.128
vn -0.976324 0.17103 0.132441
v -280.67 -172.315 676.784
vn -0.15073 -0.306415 0.939888
v -274.924 -161.62 698.063
vn -0.321935 -0.855339 0.405897
v -275.307 -162.302 697.423
vn -0.180227 -0.982427 0.0485315
v -275.091 -162.387 697.066
vn 0.040262 -0.999027 0.0179914
v -274.811 -162.534 695.783
vn -0.0893046 -0.712717 0.695744
v -273.978 -162.475 697.692
vn -0.263456 -0.959036 0.104124
v -274.105 -162.675 697.132
vn -0.259355 -0.960993 -0.096057
v -274.351 -162.495 696.267
vn 0.0192101 0.453972 0.890809
v -275.772 -160.27 697.946
vn 0.0127108 -0.987017 0.160114
v -274.966 -162.562 695.216
vn -0.142306 -0.927604 0.345397
v -274.739 -162.685 694.86
vn -0.729505 0.678402 -0.0871406
v -277.786 -155.806 694.193
vn -0.361307 0.759211 0.541346
v -276.68 -155.038 694.139
vn -0.512339 0.786299 -0.345316
v -276.915 -155.063 693.288
vn -0.354296 -0.924989 0.137366
v -276.259 -162.636 692.82
vn -0.69318 0.703539 -0.156634
v -278.264 -156.607 693.166
vn -0.67497 0.653297 -0.342956
v -277.813 -156.33 692.717
vn -0.531463 -0.772199 0.348219
v -276.507 -163.104 689.567
vn -0.449766 -0.777005 0.440424
v -275.977 -163.62 689.467
vn -0.633887 0.600403 -0.487549
v -277.329 -157.971 690.28
vn -0.692451 -0.634639 0.34314
v -278.585 -162.9 687.969
vn -0.960036 -0.234331 0.153036
v -278.771 -162.643 687.692
vn -0.999333 -0.030192 0.0205612
v -278.852 -162.085 687.057
vn -0.998256 0.052319 0.0273599
v -278.902 -163.362 685.131
vn -0.992718 -0.0459844 0.111341
v -279.158 -166.79 682.336
vn -0.180475 -0.311984 0.932789
v -279.239 -173.202 678.756
vn -0.672991 0.0488553 0.738035
v -280.021 -172.135 678.727
vn -0.52121 -0.346114 0.780093
v -279.436 -169.916 679.777
vn -0.398626 -0.41777 0.816435
v -278.845 -170.714 679.827
vn -0.987189 0.0641969 0.146074
v -279.494 -169.065 678.915
vn 0.0353629 -0.832439 0.552987
v -279.728 -176.493 677.486
vn -0.071907 -0.982114 0.174016
v -279.618 -176.879 676.572
vn 0.0333961 -0.520321 0.853318
v -279.027 -175.875 678.11
vn -0.563948 -0.808365 -0.168842
v -280.138 -176.206 674.214
vn -0.338455 -0.930042 -0.143075
v -279.646 -176.593 674.419
vn -0.0439577 -0.554098 -0.83129
v -279.265 -176.083 673.843
vn -0.981538 -0.0428139 -0.186415
v -280.154 -174.381 673.762
vn -0.191709 -0.217438 -0.957062
v -279.651 -174.376 673.358
vn -0.499084 0.53884 -0.678651
v -279.384 -173.122 673.871
vn 0.14018 -0.110283 0.983965
v -272.462 -161.832 697.937
vn 0.135927 -0.672529 0.727481
v -272.45 -162.437 697.664
vn -0.531458 -0.842662 -0.0864493
v -274.059 -162.662 696.202
vn 0.107801 -0.991582 -0.0717207
v -274.151 -162.475 695.969
vn -0.706895 -0.705284 -0.0536094
v -273.908 -162.739 695.863
vn -0.0796769 -0.946952 0.311343
v -273.144 -162.81 697.191
vn -0.442895 -0.894801 0.0563528
v -273.495 -163.103 695.782
vn 0.121451 0.623876 0.772029
v -273.43 -159.087 695.919
vn -0.152877 -0.956903 0.246912
v -274.336 -162.411 695.34
vn -0.603481 -0.775867 0.183961
v -274.005 -162.692 695.275
vn -0.222 -0.934517 0.278199
v -274.131 -162.902 694.715
vn -0.509532 -0.82678 0.238351
v -273.758 -162.946 694.924
vn -0.238462 0.970038 -0.0465038
v -275.161 -154.266 693.364
vn -0.187246 0.844621 0.501552
v -274.242 -154.435 694.353
vn -0.227619 0.730434 -0.643938
v -275.011 -156.606 690.464
vn -0.137043 0.778972 -0.611901
v -274.482 -154.632 692.29
vn -0.168473 -0.925673 0.338742
v -274.342 -164.162 689.99
vn -0.045519 -0.836632 0.54587
v -275.167 -165.279 687.555
vn -0.0139063 -0.665524 0.746247
v -275.357 -170.723 680.708
vn -0.189812 0.701265 -0.687167
v -276.745 -165.236 679.731
vn 0.0845809 -0.876439 0.474027
v -276.492 -175.993 677.19
vn -0.139394 -0.984225 -0.108953
v -276.089 -176.622 674.996
vn -0.0593998 -0.281949 -0.957589
v -276.901 -175.412 673.828
vn -0.0747748 0.538154 -0.839523
v -278.378 -173.573 673.526
vn -0.182047 0.202436 -0.962226
v -276.686 -173.537 673.376
vn 0.245858 0.351993 0.903136
v -270.222 -161.503 697.301
vn 0.201324 0.641989 0.73981
v -270.479 -160.669 696.819
vn 0.407003 -0.290335 0.866057
v -269.296 -161.962 697.062
vn -0.0354098 0.585358 0.810002
v -272.542 -154.52 694.876
vn -0.027567 0.896332 0.442526
v -272.675 -154.273 694.531
vn -0.0051017 -0.0638499 0.997947
v -271.838 -155.002 694.937
vn 0.161006 0.949194 0.270383
v -272.103 -154.263 694.377
vn 0.236874 0.833899 0.498501
v -271.71 -154.43 694.591
vn -0.0017557 -0.0601329 0.998189
v -271.233 -154.906 694.944
vn -0.0276763 0.991122 0.130042
v -273.233 -154.062 693.747
vn 0.131553 0.991229 0.012624
v -272.363 -154.124 693.52
vn 0.0623485 0.947479 -0.313683
v -272.517 -154.157 692.953
vn 0.273914 0.955932 -0.105665
v -271.476 -154.291 693.296
vn 0.112301 -0.976858 0.182034
v -272.021 -163.433 692.057
vn 0.0432928 -0.676121 0.735518
v -273.043 -176.345 677.211
vn 0.222824 -0.505882 0.833327
v -274.378 -174.253 677.947
vn 0.0486968 -0.255269 0.965643
v -274.015 -174.795 677.857
vn -0.0468247 -0.968936 0.242837
v -273.093 -177.116 675.762
vn -0.318676 -0.821205 -0.473359
v -274.474 -176.243 673.252
vn 0.438231 0.401942 0.803988
v -268.643 -160.984 696.604
vn 0.151574 -0.985858 -0.0714774
v -268.879 -163.269 694.561
vn 0.228882 -0.830245 0.508239
v -268.379 -163.108 695.33
vn 0.467507 -0.803447 -0.36866
v -268.182 -162.734 694.025
vn 0.626815 -0.723912 -0.288191
v -267.821 -162.701 694.231
vn 0.871849 -0.279728 0.402035
v -267.552 -162.35 695.378
vn 0.658205 -0.663893 -0.354981
v -267.87 -162.458 693.919
vn 0.929047 -0.33774 -0.151006
v -267.395 -161.782 694.042
vn 0.312823 0.33369 0.889265
v -269.921 -155.9 694.703
vn 0.558594 0.578853 0.594055
v -269.151 -155.798 694.203
vn 0.738381 0.673807 0.027878
v -268.845 -155.773 693.63
vn 0.432805 0.859916 0.270601
v -270.613 -154.615 694.008
vn 0.485716 -0.871085 -0.0727353
v -268.931 -162.828 692.401
vn 0.816311 -0.560159 -0.140921
v -267.947 -161.949 692.066
vn 0.602942 0.591294 -0.535567
v -269.262 -155.882 692.529
vn 0.216139 0.776328 -0.592114
v -271.3 -154.594 692.663
vn 0.499332 0.835673 -0.228733
v -269.853 -154.982 693.224
vn 0.411097 -0.88683 0.211024
v -269.074 -163.122 690.632
vn 0.730206 -0.677519 0.0881255
v -268.682 -162.976 689.905
vn 0.378464 -0.833861 0.401796
v -270.748 -166.406 684.023
vn 0.811196 -0.562296 0.160572
v -270.547 -166.367 683.661
vn 0.348804 -0.596857 0.722563
v -271.816 -170.514 679.151
vn 0.232895 0.668621 -0.706191
v -272.011 -166.668 679.498
vn 0.499505 -0.375731 0.78059
v -272.162 -176.017 677.228
vn 0.924051 -0.0887259 0.371829
v -271.375 -174.416 676.912
vn 0.631785 -0.139454 0.762496
v -271.876 -172.672 677.802
vn 0.989729 0.0429689 0.136347
v -271.665 -172.059 677.406
vn 0.996109 0.0156909 -0.0867204
v -271.67 -170.254 677.87
vn 0.257691 -0.908496 0.328983
v -271.981 -176.807 676.355
vn 0.780505 -0.35313 0.51586
v -271.541 -176.567 675.912
vn 0.830852 0.152716 -0.535129
v -272.147 -173.758 674.059
vn 0.972568 0.107284 -0.206402
v -271.391 -173.282 675.907
vn 0.668728 0.432802 -0.604553
v -272.206 -172.557 674.539
vn 0.930577 0.271229 -0.245888
v -271.719 -172.436 675.62
vn 0.870139 0.27253 -0.410591
v -271.802 -172.77 675.059
vn 0.0893676 -0.990157 -0.107719
v -272.351 -177.08 673.728
vn 0.867499 -0.03797 -0.495987
v -272.084 -176.138 673.885
vn -0.0161532 -0.125577 -0.991952
v -273.904 -174.986 672.643
vn 0.553267 0.16525 -0.816449
v -273.004 -174.05 673.043
vn 0.140518 0.478458 -0.866795
v -274.054 -173.511 672.881
vn 0.177024 0.697634 0.69424
v -267.55 -159.396 694.731
vn 0.979335 0.0846051 0.1837
v -267.176 -159.66 694.114
vn 0.912999 0.360466 -0.191043
v -267.518 -157.941 693.758
vn 0.786784 0.397344 0.472323
v -267.656 -157.648 694.169
vn 0.968704 -0.0563098 -0.241747
v -267.226 -160.322 692.655
vn 0.041344 0.747264 0.66324
v -278.376 -159.538 696.736
vn -0.4754 -0.665244 0.575713
v -277.338 -160.83 697.566
vn -0.662382 -0.655274 0.363134
v -279.363 -160.323 695.903
vn 0.0161874 0.50588 0.862452
v -278.381 -156.937 694.751
vn -0.979716 -0.0837853 -0.182034
v -280.537 -176.465 676.784
vn -0.481926 -0.875627 0.0320181
v -280.537 -176.465 676.784
vn -0.991995 0.0141046 -0.125489
v -280.94 -174.706 677.663
vn -0.95516 0.257332 0.146459
v -280.775 -173.47 678.128
vn -0.716812 0.522759 -0.461415
v -280.67 -172.315 676.784
vn -0.49026 0.579498 0.651019
v -277.786 -155.806 694.193
vn -0.770752 0.544518 -0.33082
v -278.852 -162.085 687.057
vn -0.685788 0.588375 -0.42838
v -278.902 -163.362 685.131
vn -0.484021 -0.619809 0.617706
v -279.158 -166.79 682.336
vn -0.925817 0.246536 0.286501
v -280.021 -172.135 678.727
vn -0.303404 -0.197048 0.932265
v -280.021 -172.135 678.727
vn -0.971454 0.103014 0.213692
v -279.436 -169.916 679.777
vn -0.674957 0.569778 -0.468813
v -279.494 -169.065 678.915
vn -0.986275 -0.0477926 -0.158042
v -280.138 -176.206 674.214
vn -0.400097 -0.407302 -0.820992
v -280.138 -176.206 674.214
vn -0.0603843 -0.727129 -0.68384
v -279.646 -176.593 674.419
vn -0.66341 0.457303 -0.59225
v -280.154 -174.381 673.762
vn -0.613693 -0.194533 -0.765204
v -280.154 -174.381 673.762
vn -0.363612 0.418146 -0.83243
v -279.651 -174.376 673.358
vn -0.67628 -0.728619 -0.108448
v -274.151 -162.475 695.969
vn -0.0744558 -0.990048 -0.119423
v -273.758 -162.946 694.924
vn -0.0924688 -0.33181 0.938803
v -276.492 -175.993 677.19
vn 0.134127 -0.703187 -0.698239
v -276.089 -176.622 674.996
vn -0.384555 -0.76172 -0.52144
v -276.901 -175.412 673.828
vn 0.0368508 -0.133268 -0.990395
v -278.378 -173.573 673.526
vn 0.386163 0.656176 0.648314
v -271.233 -154.906 694.944
vn -0.0113985 -0.172211 0.984994
v -274.378 -174.253 677.947
vn -0.147354 -0.376196 -0.914748
v -274.474 -176.243 673.252
vn 0.566303 -0.824003 -0.0179148
v -268.379 -163.108 695.33
vn 0.0255393 -0.200514 0.979358
v -269.921 -155.9 694.703
vn 0.935446 0.1072 -0.336821
v -270.547 -166.367 683.661
vn 0.937957 -0.291384 0.18797
v -271.816 -170.514 679.151
vn 0.908934 0.218391 -0.355168
v -272.011 -166.668 679.498
vn 0.362687 -0.501372 0.785548
v -271.876 -172.672 677.802
vn 0.7486 -0.407054 0.523359
v -271.981 -176.807 676.355
vn 0.97195 -0.102397 -0.211725
v -271.541 -176.567 675.912
vn 0.49497 -0.868666 0.020604
v -271.541 -176.567 675.912
vn 0.931139 -0.214653 -0.294794
v -272.351 -177.08 673.728
vn 0.025423 -0.445033 -0.895153
v -272.351 -177.08 673.728
vn 0.552404 -0.0686625 -0.830744
v -272.351 -177.08 673.728
vn 0.32114 0.224931 0.919932
v -267.55 -159.396 694.731
vn 0.852275 0.142791 0.503228
v -267.55 -159.396 694.731
f 1//1 6//6 3//3
f 6//6 1//1 7//7
f 2//2 30//30 1//1
f 24//24 23//23 151//151
f 2//2 23//23 30//30
f 24//24 151//151 5//5
f 151//151 152//152 5//5
f 152//152 4//4 5//5
f 3//3 6//6 4//4
f 4//4 6//6 12//12
f 4//4 10//10 5//5
f 10//10 4//4 12//12
f 1//1 3//3 2//2
f 10//10 11//11 5//5
f 24//24 5//5 36//36
f 5//5 11//11 36//36
f 6//6 7//7 8//8
f 6//6 8//8 12//12
f 8//8 14//14 12//12
f 9//9 14//14 8//8
f 9//9 37//37 14//14
f 9//9 8//8 33//33
f 9//9 33//33 37//37
f 12//12 13//13 10//10
f 12//12 14//14 13//13
f 13//13 44//44 10//10
f 48//48 21//21 20//20
f 22//22 157//157 163//163
f 20//20 47//47 164//164
f 15//15 20//20 19//19
f 16//16 15//15 19//19
f 156//156 58//58 154//154
f 17//17 54//54 20//20
f 15//15 18//18 17//17
f 15//15 17//17 20//20
f 15//15 155//155 18//18
f 17//17 52//52 54//54
f 52//52 18//18 53//53
f 52//52 17//17 18//18
f 53//53 18//18 155//155
f 56//56 53//53 155//155
f 19//19 20//20 21//21
f 157//157 22//22 156//156
f 156//156 22//22 58//58
f 56//56 155//155 55//55
f 61//61 23//23 27//27
f 24//24 36//36 25//25
f 27//27 23//23 24//24
f 28//28 24//24 25//25
f 25//25 36//36 26//26
f 27//27 24//24 28//28
f 29//29 25//25 26//26
f 66//66 27//27 28//28
f 25//25 29//29 28//28
f 29//29 26//26 64//64
f 64//64 26//26 69//69
f 63//63 66//66 28//28
f 63//63 28//28 29//29
f 63//63 29//29 173//173
f 68//68 150//150 30//30
f 153//153 150//150 68//68
f 69//69 26//26 31//31
f 31//31 26//26 36//36
f 32//32 69//69 31//31
f 31//31 36//36 32//32
f 71//71 69//69 32//32
f 71//71 32//32 36//36
f 7//7 159//159 8//8
f 159//159 7//7 34//34
f 33//33 34//34 35//35
f 34//34 73//73 35//35
f 74//74 73//73 34//34
f 37//37 38//38 14//14
f 37//37 33//33 38//38
f 35//35 38//38 33//33
f 14//14 38//38 41//41
f 35//35 41//41 38//38
f 42//42 11//11 10//10
f 39//39 11//11 42//42
f 39//39 36//36 11//11
f 39//39 40//40 36//36
f 41//41 13//13 14//14
f 10//10 43//43 42//42
f 10//10 44//44 43//43
f 42//42 43//43 46//46
f 43//43 44//44 46//46
f 162//162 39//39 42//42
f 13//13 41//41 160//160
f 40//40 162//162 79//79
f 162//162 40//40 39//39
f 45//45 46//46 44//44
f 161//161 160//160 41//41
f 79//79 162//162 50//50
f 161//161 41//41 80//80
f 50//50 162//162 49//49
f 46//46 45//45 51//51
f 161//161 80//80 166//166
f 54//54 101//101 47//47
f 22//22 163//163 165//165
f 49//49 164//164 47//47
f 60//60 166//166 80//80
f 47//47 50//50 49//49
f 165//165 46//46 51//51
f 81//81 53//53 82//82
f 47//47 20//20 54//54
f 52//52 53//53 81//81
f 54//54 52//52 81//81
f 54//54 81//81 101//101
f 22//22 165//165 51//51
f 170//170 158//158 60//60
f 158//158 166//166 60//60
f 56//56 82//82 53//53
f 154//154 58//58 167//167
f 57//57 168//168 59//59
f 57//57 169//169 168//168
f 83//83 57//57 59//59
f 168//168 171//171 59//59
f 170//170 60//60 172//172
f 61//61 30//30 23//23
f 61//61 27//27 62//62
f 27//27 66//66 62//62
f 61//61 86//86 30//30
f 30//30 86//86 87//87
f 66//66 67//67 106//106
f 63//63 67//67 66//66
f 65//65 67//67 63//63
f 173//173 65//65 63//63
f 173//173 70//70 65//65
f 173//173 69//69 70//70
f 65//65 70//70 67//67
f 67//67 70//70 72//72
f 67//67 174//174 106//106
f 30//30 87//87 68//68
f 7//7 89//89 34//34
f 34//34 89//89 74//74
f 89//89 7//7 91//91
f 90//90 74//74 89//89
f 70//70 69//69 71//71
f 70//70 71//71 72//72
f 106//106 174//174 71//71
f 95//95 73//73 74//74
f 76//76 35//35 73//73
f 73//73 97//97 76//76
f 36//36 77//77 71//71
f 75//75 76//76 120//120
f 75//75 41//41 35//35
f 76//76 75//75 35//35
f 77//77 36//36 40//40
f 40//40 78//78 77//77
f 99//99 71//71 77//77
f 77//77 124//124 99//99
f 124//124 77//77 78//78
f 120//120 80//80 75//75
f 124//124 78//78 79//79
f 41//41 75//75 80//80
f 78//78 40//40 79//79
f 124//124 79//79 126//126
f 175//175 102//102 180//180
f 79//79 50//50 47//47
f 79//79 47//47 101//101
f 176//176 169//169 57//57
f 83//83 176//176 57//57
f 177//177 104//104 82//82
f 80//80 84//84 60//60
f 59//59 178//178 83//83
f 60//60 84//84 172//172
f 84//84 80//80 85//85
f 80//80 144//144 85//85
f 178//178 85//85 83//83
f 66//66 107//107 62//62
f 62//62 107//107 88//88
f 88//88 107//107 110//110
f 88//88 86//86 61//61
f 88//88 61//61 62//62
f 87//87 86//86 105//105
f 105//105 68//68 87//87
f 86//86 88//88 105//105
f 68//68 105//105 145//145
f 113//113 68//68 194//194
f 68//68 113//113 153//153
f 91//91 94//94 89//89
f 92//92 90//90 89//89
f 90//90 92//92 95//95
f 91//91 7//7 183//183
f 89//89 179//179 93//93
f 93//93 92//92 89//89
f 91//91 183//183 94//94
f 93//93 116//116 92//92
f 106//106 71//71 99//99
f 117//117 106//106 99//99
f 97//97 73//73 95//95
f 95//95 74//74 90//90
f 92//92 96//96 95//95
f 96//96 97//97 95//95
f 97//97 120//120 76//76
f 97//97 96//96 98//98
f 98//98 96//96 92//92
f 92//92 116//116 98//98
f 97//97 98//98 120//120
f 101//101 126//126 79//79
f 175//175 100//100 102//102
f 130//130 180//180 102//102
f 130//130 102//102 128//128
f 103//103 81//81 82//82
f 82//82 140//140 103//103
f 100//100 81//81 103//103
f 140//140 82//82 104//104
f 181//181 83//83 142//142
f 142//142 83//83 85//85
f 110//110 105//105 88//88
f 110//110 195//195 105//105
f 107//107 66//66 106//106
f 109//109 110//110 182//182
f 109//109 182//182 106//106
f 106//106 108//108 109//109
f 108//108 111//111 109//109
f 109//109 112//112 110//110
f 112//112 109//109 111//111
f 148//148 113//113 194//194
f 148//148 114//114 113//113
f 114//114 179//179 113//113
f 115//115 114//114 148//148
f 114//114 115//115 116//116
f 93//93 179//179 116//116
f 114//114 116//116 179//179
f 115//115 121//121 116//116
f 108//108 106//106 117//117
f 111//111 108//108 117//117
f 117//117 118//118 111//111
f 117//117 122//122 123//123
f 123//123 118//118 117//117
f 149//149 119//119 147//147
f 98//98 116//116 121//121
f 120//120 98//98 121//121
f 115//115 119//119 121//121
f 120//120 121//121 119//119
f 147//147 119//119 115//115
f 122//122 117//117 99//99
f 122//122 99//99 124//124
f 123//123 122//122 124//124
f 149//149 118//118 123//123
f 119//119 80//80 120//120
f 119//119 127//127 80//80
f 186//186 119//119 149//149
f 125//125 123//123 124//124
f 123//123 125//125 149//149
f 125//125 124//124 185//185
f 185//185 132//132 125//125
f 149//149 184//184 186//186
f 132//132 186//186 184//184
f 102//102 100//100 128//128
f 128//128 100//100 133//133
f 130//130 128//128 129//129
f 129//129 128//128 134//134
f 129//129 189//189 136//136
f 129//129 136//136 131//131
f 101//101 187//187 126//126
f 130//130 131//131 185//185
f 130//130 129//129 131//131
f 131//131 132//132 185//185
f 131//131 138//138 132//132
f 132//132 138//138 186//186
f 127//127 144//144 80//80
f 103//103 133//133 100//100
f 133//133 103//103 140//140
f 188//188 134//134 128//128
f 133//133 140//140 190//190
f 141//141 136//136 189//189
f 136//136 141//141 135//135
f 139//139 136//136 135//135
f 127//127 137//137 144//144
f 138//138 137//137 186//186
f 139//139 135//135 137//137
f 136//136 138//138 131//131
f 136//136 139//139 138//138
f 138//138 139//139 137//137
f 189//189 191//191 141//141
f 85//85 144//144 142//142
f 142//142 192//192 181//181
f 142//142 144//144 143//143
f 141//141 193//193 143//143
f 142//142 143//143 193//193
f 143//143 135//135 141//141
f 143//143 144//144 137//137
f 137//137 135//135 143//143
f 146//146 195//195 110//110
f 111//111 118//118 112//112
f 146//146 110//110 112//112
f 195//195 146//146 148//148
f 146//146 147//147 148//148
f 147//147 146//146 149//149
f 115//115 148//148 147//147
f 112//112 118//118 149//149
f 112//112 149//149 146//146
