# Wavafront OBJ file of BodyParts3D
# BodyParts3D, Copyright(C) 2010-2011 The Database Center for Life Science licensed under CC Attribution-Share Alike 2.1 Japan.
vn -0.743547 -0.386024 0.546007
v -302.931 -150.936 704.06
vn -0.903873 0.0607699 0.423462
v -302.995 -150.603 703.994
vn -0.72854 -0.0806542 0.680238
v -302.56 -150.437 704.642
vn -0.549324 -0.458667 0.698475
v -302.294 -150.749 704.731
vn -0.553844 0.0533103 0.830912
v -302.313 -150.375 704.851
vn 0.304368 -0.175377 0.936271
v -301.973 -150.359 704.794
vn -0.722132 0.160526 0.672872
v -302.55 -149.088 704.363
vn -0.667274 0.093423 0.73893
v -302.148 -147.953 704.609
vn -0.0228163 0.000873725 0.999739
v -302.022 -149.669 704.753
vn -0.923234 0.178636 0.340188
v -302.391 -147.393 704.006
vn -0.9829 0.0722393 0.169377
v -303.207 -150.754 703.334
vn -0.748626 -0.563952 0.348592
v -303.213 -151.97 702.533
vn -0.284538 -0.90321 0.321325
v -302.666 -152.462 702.26
vn -0.396998 -0.726956 0.560292
v -302.3 -151.969 703.194
vn 0.166807 -0.949595 0.265413
v -301.991 -152.563 701.9
vn -0.959777 0.209244 0.187201
v -302.493 -146.325 702.388
vn -0.936139 -0.351409 0.0124728
v -303.469 -151.992 700.796
vn -0.596571 -0.801806 -0.0347968
v -303.07 -152.462 701.226
vn -0.619406 -0.634788 -0.46193
v -303.203 -151.825 699.698
vn -0.179206 -0.983309 -0.0314539
v -302.714 -152.622 701.244
vn -0.263733 -0.885388 -0.382797
v -302.799 -152.327 700.135
vn -0.215056 -0.75437 -0.620224
v -302.534 -151.867 699.313
vn 0.0947287 -0.980587 -0.171683
v -301.733 -152.518 700.477
vn -0.937216 -0.140287 -0.31929
v -303.369 -150.91 699.166
vn -0.980493 0.129481 -0.147876
v -303.279 -148.882 698.744
vn -0.772018 0.0463031 -0.633912
v -303.133 -148.946 698.37
vn -0.513494 0.0307928 -0.857541
v -302.801 -148.969 698.13
vn -0.460022 -0.330397 -0.824147
v -302.705 -150.365 698.129
vn -0.286497 0.0802077 -0.954718
v -302.13 -148.981 697.802
vn -0.966398 0.237653 0.097954
v -302.981 -147.851 698.518
vn -0.496483 0.264427 -0.826791
v -302.531 -147.902 698.089
vn -0.616761 0.720815 -0.316276
v -302.218 -146.965 698.652
vn -0.699509 -0.595652 0.394824
v -298.815 -141.932 713.939
vn -0.714159 -0.495589 0.494337
v -300.402 -143.874 708.45
vn -0.939221 0.213581 0.268788
v -301.321 -145.494 706.021
vn 0.319679 -0.74261 0.588502
v -301.28 -151.073 704.015
vn 0.403633 -0.489384 0.773036
v -300.287 -150.61 703.876
vn -0.0244516 -0.319851 0.947152
v -301.383 -148.907 704.797
vn -0.563956 -0.381477 0.732413
v -301.099 -147.272 705.677
vn 0.328624 -0.222492 0.91788
v -300.986 -150.007 704.409
vn 0.20186 -0.43953 0.875252
v -300.336 -149.611 704.373
vn -0.143614 -0.615645 0.774827
v -300.345 -148.867 704.921
vn 0.356126 -0.497015 0.791297
v -300.144 -150.003 704.095
vn 0.10405 -0.726354 0.679399
v -299.649 -149.493 704.318
vn -0.00620486 -0.898893 -0.438124
v -300.814 -151.891 699.256
vn -0.0225546 -0.997049 -0.0733773
v -299.365 -152.056 700.277
vn -0.28634 -0.903615 -0.318575
v -299.122 -151.823 698.816
vn -0.22764 -0.686685 -0.690394
v -300.234 -151.212 698.172
vn -0.22064 0.317284 -0.922307
v -301.556 -147.141 697.993
vn -0.409167 0.64715 -0.643257
v -301.569 -146.747 698.227
vn -0.0322714 0.622877 -0.781654
v -300.55 -146.701 698.037
vn -0.309903 -0.00627578 -0.950747
v -299.71 -149.606 697.226
vn -0.888786 0.133673 0.438397
v -296.559 -133.644 731.409
vn -0.745421 -0.136014 0.65257
v -295.596 -135.395 732.779
vn -0.813457 0.474437 0.336449
v -296.17 -132.269 731.108
vn -0.310575 0.89103 0.331073
v -295.819 -132.237 731.128
vn -0.403713 0.902949 0.147303
v -295.847 -132.171 730.723
vn -0.846466 -0.531953 -0.0228436
v -296.319 -137.543 729.398
vn -0.825509 -0.387278 0.410549
v -296.155 -136.785 731.338
vn -0.970543 -0.163074 0.177348
v -296.899 -136.03 730.164
vn -0.999969 0.00491526 0.00615924
v -296.949 -134.621 728.473
vn -0.964887 0.209673 0.158207
v -296.669 -133.114 730.603
vn -0.870188 0.486574 -0.0775787
v -296.626 -132.842 730.195
vn -0.609099 0.793058 0.00756779
v -296.2 -132.31 730.417
vn -0.812963 -0.564855 0.141527
v -296.15 -137.399 728.31
vn -0.953899 -0.297415 -0.0402733
v -296.595 -136.35 728.463
vn -0.93939 -0.300281 0.165462
v -296.615 -136.42 728.128
vn -0.921624 -0.315736 0.225656
v -297.071 -139.501 721.773
vn -0.583311 -0.757817 0.292339
v -296.678 -139.743 722.156
vn -0.929301 0.367111 -0.0403724
v -296.726 -136.138 722.817
vn -0.92897 -0.21607 0.300546
v -298.256 -140.2 717.062
vn -0.702028 -0.626466 0.338669
v -297.873 -140.78 717.515
vn -0.788695 0.609238 -0.0823947
v -298.478 -139.826 712.087
vn -0.343174 -0.724995 0.597172
v -297.951 -146.403 708.864
vn 0.103704 -0.876107 0.470832
v -298.635 -151.833 701.251
vn 0.239524 -0.643806 0.726734
v -297.973 -150.246 702.647
vn 0.045072 -0.562875 0.825312
v -297.272 -150.874 702.129
vn 0.0925752 0.807134 -0.583065
v -297.076 -145.737 699.688
vn -0.343891 -0.938665 0.0254504
v -298.003 -152.421 699.591
vn 0.103912 -0.837108 0.537078
v -296.223 -153.2 699.673
vn -0.163065 0.657622 -0.735489
v -298.12 -146.922 698.111
vn -0.371277 -0.731709 -0.571625
v -298.52 -151.522 697.676
vn -0.3371 -0.860923 -0.381019
v -296.693 -152.889 697.877
vn -0.262539 -0.3615 -0.894646
v -296.947 -150.658 696.143
vn -0.181439 0.331344 -0.9259
v -299.09 -148.472 697.381
vn -0.349762 0.405669 -0.844452
v -297.747 -148.486 696.782
vn -0.206771 0.552316 -0.807585
v -296.766 -147.692 696.808
vn -0.669774 -0.441582 0.596999
v -294.173 -138.399 732.986
vn -0.288638 -0.236825 0.927686
v -293.544 -138.223 733.604
vn -0.402487 -0.725175 0.558682
v -292.776 -140.238 732.602
vn 0.145763 0.135103 0.980051
v -292.951 -136.756 733.68
vn -0.455268 0.294844 0.840118
v -295.299 -133.226 732.968
vn -0.420782 0.74323 0.520146
v -295.338 -132.944 732.643
vn 0.106872 0.281347 0.953636
v -293.612 -132.746 732.942
vn -0.368287 0.88251 0.292475
v -294.229 -130.923 730.394
vn 0.101819 0.443041 0.890701
v -293.7 -131.774 732.575
vn -0.700029 -0.681263 0.214103
v -294.294 -139.827 731.183
vn -0.32136 -0.946691 0.0224558
v -293.209 -140.65 730.603
vn -0.548763 -0.831728 -0.0841848
v -293.288 -140.424 729.508
vn -0.442322 0.879785 -0.174152
v -294.009 -130.66 728.577
vn -0.662239 -0.736285 0.13901
v -294.46 -139.424 728.302
vn -0.374345 -0.920825 0.109302
v -293.474 -140.145 726.655
vn -0.612069 -0.755207 0.234595
v -295.252 -139.129 726.874
vn -0.666823 0.70778 -0.233224
v -295.134 -134.066 723.019
vn -0.275599 -0.899464 0.339132
v -295.17 -141.21 719.938
vn -0.194446 0.872075 -0.449084
v -294.929 -138.487 709.55
vn 0.301451 -0.84953 0.432927
v -295.115 -146.275 709.062
vn 0.156713 -0.345521 0.925233
v -295.566 -150.769 701.972
vn 0.105403 -0.60818 0.78677
v -293.654 -151.791 701.372
vn 0.368698 -0.66699 0.647445
v -294.255 -149.24 702.625
vn 0.213944 -0.886038 0.411297
v -294.22 -153.241 698.542
vn 0.569235 0.598194 -0.564035
v -294.979 -146.781 698.995
vn -0.38425 -0.593335 -0.707323
v -295.068 -152.509 696.675
vn 0.559226 -0.65324 -0.510435
v -294.317 -152.605 697.621
vn -0.0228817 0.292395 -0.956024
v -296.028 -149.095 696.013
vn 0.574149 0.441438 -0.689554
v -295.328 -149.008 696.315
vn 0.166792 -0.0142813 -0.985889
v -295.288 -149.754 696.116
vn 0.146282 0.718311 -0.68017
v -296.43 -147.343 697.071
vn 0.025649 -0.631455 0.774988
v -291.39 -139.898 733.146
vn 0.344958 0.39578 0.851095
v -292.344 -131.732 732.244
vn 0.365119 0.587353 0.722291
v -292.378 -131.43 732.019
vn 0.38182 0.447078 0.80891
v -292.011 -131.747 732.04
vn -0.0264108 -0.934951 0.353792
v -292.089 -140.748 731.976
vn 0.114916 -0.991022 0.0683304
v -290.772 -140.795 730.876
vn 0.0259859 -0.999523 -0.0166966
v -290.729 -140.352 726.225
vn -0.369609 0.867014 -0.334179
v -292.535 -132.714 721.924
vn 0.529747 -0.809605 0.2528
v -290.822 -144.632 707.832
vn 0.912173 0.108649 -0.39514
v -290.968 -143.48 706.668
vn 0.4387 0.680777 -0.586588
v -292.871 -141.256 706.174
vn 0.625771 -0.716382 0.308555
v -292.577 -147.275 704.172
vn 0.887974 -0.457371 0.0480979
v -292.228 -146.968 703.819
vn 0.424981 -0.332946 0.841747
v -293.209 -150.308 701.586
vn 0.800566 -0.486011 0.350553
v -292.785 -150.789 700.776
vn 0.864635 0.219506 -0.451912
v -293.215 -147.717 700.512
vn 0.727093 -0.603452 0.327386
v -292.841 -148.293 702.718
vn 0.642482 -0.651098 0.40409
v -292.759 -148.829 701.773
vn 0.989669 -0.00159244 -0.143363
v -292.721 -148.49 701.701
vn 0.708018 -0.314623 0.632237
v -292.788 -149.979 701.31
vn 0.968417 -0.248827 -0.0159556
v -292.608 -147.94 702.634
vn 0.903228 0.18451 -0.387473
v -292.651 -146.595 702.359
vn 0.22592 -0.857831 0.461612
v -289.016 -139.755 732.687
vn 0.283051 -0.268769 0.920677
v -288.351 -138.933 733.242
vn 0.33739 0.223875 0.914357
v -288.376 -138.591 733.21
vn 0.39841 -0.443214 0.803014
v -287.022 -139.015 732.317
vn 0.12072 -0.9922 0.0310881
v -287.807 -140.239 729.228
vn 0.134685 0.920466 0.366881
v -289.844 -130.428 729.396
vn 0.0236695 0.997182 -0.0711919
v -289.25 -130.287 727.939
vn 0.14192 0.969019 -0.202142
v -287.901 -130.495 727.221
vn 0.11052 0.899269 -0.423203
v -289.055 -131.493 723.972
vn 0.447515 -0.889918 0.0881799
v -287.737 -140.691 718.1
vn 0.409233 0.748278 -0.522119
v -288.82 -134.464 718.616
vn 0.415704 0.0567622 0.907727
v -286.706 -138.653 732.245
vn 0.295099 0.681525 0.669657
v -286.073 -130.931 728.524
vn 0.292749 0.936382 0.193616
v -285.749 -130.859 728.252
vn -0.0828902 -0.995537 0.0451212
v -285.428 -140.171 728.758
vn -0.253452 -0.959307 -0.12447
v -284.524 -140.129 726.606
vn 0.313372 0.899658 -0.303995
v -285.843 -131.217 726.227
vn 0.0891824 -0.983824 -0.155361
v -284.998 -139.771 724.8
vn 0.30987 -0.950733 -0.00933251
v -286.522 -139.931 722.096
vn 0.647121 -0.732655 -0.210836
v -285.573 -139.377 721.305
vn 0.799148 -0.572334 -0.183837
v -286.838 -139.485 717.811
vn 0.749507 0.394115 -0.531896
v -287.136 -136.605 718.282
vn 0.316094 0.260349 0.912306
v -284.054 -137.921 731.341
vn 0.30957 -0.778466 0.546037
v -283.644 -139.729 730.34
vn 0.561075 -0.15952 0.812249
v -283.018 -138.26 730.993
vn 0.789204 -0.559121 0.254047
v -282.348 -139.778 728.891
vn 0.51359 0.302309 0.803016
v -282.204 -135.954 729.927
vn 0.35783 0.476888 0.80283
v -283.092 -133.73 729.124
vn 0.438005 0.537728 0.720417
v -282.625 -132.833 728.171
vn 0.673638 0.449827 0.586402
v -281.908 -134.064 728.744
vn 0.936426 0.347721 0.0468626
v -281.754 -134.121 728.398
vn 0.52083 0.853648 0.00452651
v -284.121 -131.587 727.98
vn 0.444011 0.681263 0.58201
v -283.953 -131.847 728.366
vn 0.260699 -0.956428 0.131461
v -283.365 -140.462 728.376
vn -0.217928 -0.971801 -0.090058
v -283.471 -140.41 726.617
vn 0.511533 -0.671148 -0.536557
v -283.189 -139.98 726.042
vn 0.692841 -0.658819 -0.293138
v -282.813 -140.039 726.511
vn 0.791608 0.277392 -0.544436
v -282.832 -134.204 724.957
vn 0.889094 0.378159 -0.257889
v -282.032 -134.076 726.999
vn 0.597647 0.685616 -0.415631
v -283.393 -132.758 725.385
vn 0.299176 -0.876179 -0.377894
v -284.295 -139.362 724.334
vn 0.789903 -0.325458 -0.519741
v -283.121 -137.55 724.153
vn 0.823304 0.0588239 -0.564545
v -283.109 -136.517 724.045
vn 0.583301 0.538728 -0.607891
v -284.799 -133.928 723.235
vn 0.702903 0.293669 -0.647832
v -283.684 -134.484 724.001
vn 0.84726 -0.253574 -0.466745
v -284.436 -138.028 722.312
vn 0.790217 0.205283 -0.577421
v -284.731 -136.016 721.965
vn 0.919805 0.0434772 0.389959
v -281.482 -136.056 729.136
vn 0.9656 -0.0625002 -0.252407
v -281.448 -137.137 727.254
vn 0.28043 -0.527367 0.802025
v -302.294 -150.749 704.731
vn 0.168379 -0.113554 0.97916
v -302.313 -150.375 704.851
vn -0.597165 -0.266484 0.756558
v -302.148 -147.953 704.609
vn 0.212026 -0.835867 0.506332
v -302.3 -151.969 703.194
vn -0.631873 0.742968 -0.220757
v -302.493 -146.325 702.388
vn -0.90795 -0.32133 -0.269024
v -303.469 -151.992 700.796
vn -0.722163 0.450569 -0.52485
v -302.981 -147.851 698.518
vn -0.954284 0.272644 0.122505
v -300.402 -143.874 708.45
vn -0.757386 -0.214076 0.616878
v -301.321 -145.494 706.021
vn -0.572352 -0.309253 0.759457
v -301.383 -148.907 704.797
vn -0.186376 0.962571 0.196776
v -296.17 -132.269 731.108
vn -0.306426 -0.951832 -0.0109403
v -296.223 -153.2 699.673
vn -0.356773 0.797857 0.485939
v -293.7 -131.774 732.575
vn 0.771419 -0.430321 0.468761
v -293.654 -151.791 701.372
vn -0.071099 -0.9661 -0.248184
v -294.22 -153.241 698.542
vn 0.559226 -0.65324 -0.510435
v -294.22 -153.241 698.542
vn 0.788941 -0.59638 0.147996
v -294.22 -153.241 698.542
vn 0.917542 -0.27522 -0.287003
v -294.22 -153.241 698.542
vn 0.0881967 -0.191242 -0.977572
v -295.068 -152.509 696.675
vn -0.0395952 -0.93609 -0.349524
v -295.068 -152.509 696.675
vn 0.559226 -0.65324 -0.510435
v -295.068 -152.509 696.675
vn 0.778436 -0.064306 -0.624422
v -295.068 -152.509 696.675
vn 0.882609 -0.0488988 -0.467558
v -294.317 -152.605 697.621
vn 0.849369 0.0589858 -0.524492
v -295.288 -149.754 696.116
vn -0.0560393 0.933309 0.354674
v -292.378 -131.43 732.019
vn 0.949911 -0.153911 -0.271994
v -290.822 -144.632 707.832
vn 0.800628 -0.599067 -0.0106208
v -290.822 -144.632 707.832
vn 0.983255 -0.0499874 -0.175243
v -292.785 -150.789 700.776
vn 0.604291 -0.278721 0.746423
v -292.759 -148.829 701.773
vn 0.993854 -0.090182 0.0642002
v -292.759 -148.829 701.773
vn 0.991388 -0.0698112 0.110798
v -292.788 -149.979 701.31
vn 0.897966 0.0526506 -0.436904
v -286.838 -139.485 717.811
vn 0.75336 0.657606 -0.00137517
v -282.625 -132.833 728.171
vn 0.346057 -0.865013 -0.363313
v -283.471 -140.41 726.617
vn 0.749072 -0.485662 -0.450582
v -284.295 -139.362 724.334
f 4//4 3//3 1//1
f 3//3 2//2 1//1
f 3//3 7//7 2//2
f 7//7 10//10 2//2
f 4//4 5//5 3//3
f 5//5 7//7 3//3
f 190//190 6//6 191//191
f 6//6 9//9 191//191
f 5//5 9//9 7//7
f 190//190 36//36 37//37
f 190//190 37//37 6//6
f 7//7 8//8 10//10
f 8//8 7//7 9//9
f 8//8 35//35 10//10
f 9//9 38//38 8//8
f 39//39 34//34 198//198
f 39//39 198//198 192//192
f 35//35 16//16 10//10
f 16//16 35//35 73//73
f 11//11 24//24 17//17
f 1//1 2//2 11//11
f 12//12 14//14 1//1
f 1//1 11//11 12//12
f 17//17 12//12 11//11
f 17//17 18//18 12//12
f 13//13 12//12 18//18
f 4//4 1//1 14//14
f 10//10 11//11 2//2
f 13//13 14//14 12//12
f 13//13 18//18 20//20
f 193//193 13//13 15//15
f 15//15 13//13 20//20
f 36//36 190//190 193//193
f 36//36 193//193 15//15
f 10//10 16//16 11//11
f 16//16 30//30 11//11
f 196//196 194//194 32//32
f 194//194 106//106 32//32
f 19//19 18//18 17//17
f 24//24 19//19 195//195
f 18//18 21//21 20//20
f 18//18 19//19 21//21
f 19//19 24//24 28//28
f 20//20 23//23 15//15
f 20//20 21//21 23//23
f 23//23 21//21 45//45
f 45//45 21//21 22//22
f 22//22 21//21 19//19
f 19//19 28//28 22//22
f 22//22 28//28 48//48
f 75//75 15//15 23//23
f 48//48 45//45 22//22
f 46//46 23//23 45//45
f 11//11 25//25 24//24
f 24//24 25//25 26//26
f 196//196 26//26 25//25
f 24//24 26//26 28//28
f 28//28 26//26 27//27
f 196//196 31//31 26//26
f 26//26 31//31 27//27
f 27//27 31//31 29//29
f 28//28 27//27 29//29
f 25//25 11//11 30//30
f 196//196 50//50 31//31
f 50//50 196//196 32//32
f 49//49 29//29 31//31
f 105//105 33//33 34//34
f 33//33 71//71 34//34
f 71//71 70//70 197//197
f 197//197 70//70 73//73
f 39//39 74//74 34//34
f 73//73 35//35 197//197
f 37//37 40//40 6//6
f 6//6 40//40 9//9
f 75//75 37//37 36//36
f 37//37 76//76 43//43
f 39//39 38//38 42//42
f 39//39 192//192 199//199
f 9//9 40//40 41//41
f 41//41 38//38 9//9
f 42//42 38//38 41//41
f 41//41 40//40 37//37
f 37//37 43//43 41//41
f 74//74 39//39 42//42
f 42//42 41//41 44//44
f 43//43 44//44 41//41
f 42//42 44//44 74//74
f 44//44 43//43 76//76
f 194//194 73//73 106//106
f 15//15 75//75 36//36
f 37//37 75//75 76//76
f 51//51 106//106 78//78
f 46//46 75//75 23//23
f 46//46 45//45 47//47
f 45//45 48//48 47//47
f 46//46 79//79 75//75
f 32//32 106//106 50//50
f 49//49 31//31 50//50
f 51//51 50//50 106//106
f 51//51 49//49 50//50
f 85//85 49//49 51//51
f 29//29 49//49 85//85
f 81//81 51//51 78//78
f 81//81 85//85 51//51
f 28//28 29//29 52//52
f 48//48 28//28 52//52
f 52//52 29//29 85//85
f 88//88 54//54 59//59
f 54//54 60//60 59//59
f 55//55 53//53 92//92
f 92//92 53//53 54//54
f 93//93 55//55 92//92
f 53//53 55//55 62//62
f 56//56 57//57 200//200
f 57//57 64//64 200//200
f 200//200 93//93 56//56
f 95//95 57//57 56//56
f 58//58 97//97 59//59
f 58//58 59//59 60//60
f 60//60 66//66 58//58
f 65//65 58//58 66//66
f 61//61 66//66 60//60
f 65//65 99//99 58//58
f 54//54 53//53 60//60
f 53//53 62//62 60//60
f 62//62 63//63 61//61
f 62//62 61//61 60//60
f 63//63 70//70 61//61
f 55//55 63//63 62//62
f 55//55 64//64 63//63
f 64//64 100//100 63//63
f 63//63 100//100 70//70
f 104//104 70//70 100//100
f 67//67 61//61 68//68
f 66//66 67//67 65//65
f 65//65 67//67 68//68
f 103//103 101//101 65//65
f 61//61 67//67 66//66
f 69//69 65//65 68//68
f 69//69 103//103 65//65
f 61//61 70//70 68//68
f 68//68 72//72 69//69
f 68//68 71//71 72//72
f 68//68 70//70 71//71
f 105//105 69//69 72//72
f 73//73 70//70 104//104
f 33//33 72//72 71//71
f 105//105 72//72 33//33
f 107//107 105//105 74//74
f 150//150 105//105 107//107
f 105//105 34//34 74//74
f 107//107 74//74 44//44
f 44//44 76//76 107//107
f 77//77 76//76 75//75
f 109//109 77//77 75//75
f 77//77 108//108 76//76
f 80//80 109//109 75//75
f 108//108 77//77 109//109
f 79//79 46//46 47//47
f 75//75 79//79 201//201
f 201//201 79//79 83//83
f 85//85 81//81 86//86
f 118//118 81//81 78//78
f 87//87 86//86 81//81
f 118//118 87//87 81//81
f 48//48 82//82 47//47
f 84//84 82//82 48//48
f 83//83 47//47 82//82
f 83//83 82//82 84//84
f 79//79 47//47 83//83
f 83//83 84//84 113//113
f 52//52 85//85 86//86
f 84//84 48//48 52//52
f 52//52 86//86 115//115
f 117//117 208//208 84//84
f 52//52 115//115 84//84
f 86//86 87//87 115//115
f 115//115 87//87 118//118
f 97//97 88//88 59//59
f 90//90 88//88 97//97
f 88//88 90//90 89//89
f 54//54 88//88 89//89
f 142//142 89//89 119//119
f 119//119 89//89 90//90
f 142//142 91//91 89//89
f 89//89 92//92 54//54
f 91//91 92//92 89//89
f 92//92 91//91 94//94
f 91//91 120//120 94//94
f 91//91 122//122 120//120
f 93//93 95//95 56//56
f 57//57 95//95 64//64
f 96//96 92//92 94//94
f 202//202 93//93 92//92
f 202//202 95//95 93//93
f 94//94 120//120 96//96
f 120//120 121//121 96//96
f 202//202 214//214 95//95
f 99//99 98//98 97//97
f 58//58 99//99 97//97
f 98//98 90//90 97//97
f 123//123 90//90 98//98
f 98//98 99//99 125//125
f 64//64 95//95 100//100
f 100//100 126//126 104//104
f 99//99 65//65 101//101
f 102//102 99//99 101//101
f 101//101 103//103 102//102
f 99//99 102//102 125//125
f 102//102 69//69 105//105
f 103//103 69//69 102//102
f 73//73 104//104 126//126
f 106//106 73//73 126//126
f 127//127 107//107 130//130
f 129//129 78//78 106//106
f 76//76 110//110 107//107
f 76//76 132//132 110//110
f 132//132 76//76 108//108
f 109//109 132//132 108//108
f 80//80 111//111 109//109
f 136//136 107//107 110//110
f 218//218 110//110 132//132
f 204//204 201//201 83//83
f 204//204 83//83 209//209
f 112//112 118//118 78//78
f 205//205 210//210 114//114
f 211//211 213//213 212//212
f 117//117 84//84 115//115
f 212//212 213//213 134//134
f 134//134 213//213 116//116
f 115//115 116//116 117//117
f 112//112 116//116 118//118
f 118//118 116//116 115//115
f 112//112 134//134 116//116
f 90//90 123//123 119//119
f 141//141 119//119 123//123
f 124//124 141//141 123//123
f 142//142 143//143 91//91
f 141//141 142//142 119//119
f 122//122 121//121 120//120
f 214//214 146//146 95//95
f 122//122 146//146 121//121
f 95//95 146//146 100//100
f 124//124 123//123 98//98
f 124//124 98//98 125//125
f 149//149 126//126 100//100
f 102//102 105//105 125//125
f 125//125 105//105 150//150
f 159//159 125//125 150//150
f 149//149 106//106 126//126
f 107//107 127//127 150//150
f 215//215 131//131 128//128
f 127//127 130//130 131//131
f 129//129 112//112 78//78
f 112//112 129//129 128//128
f 107//107 135//135 130//130
f 130//130 135//135 131//131
f 131//131 135//135 139//139
f 112//112 128//128 140//140
f 128//128 131//131 139//139
f 128//128 139//139 140//140
f 203//203 138//138 132//132
f 203//203 206//206 133//133
f 138//138 203//203 133//133
f 136//136 135//135 107//107
f 135//135 136//136 139//139
f 132//132 138//138 218//218
f 219//219 220//220 217//217
f 219//219 217//217 137//137
f 217//217 134//134 137//137
f 134//134 140//140 137//137
f 139//139 219//219 137//137
f 140//140 139//139 137//137
f 134//134 112//112 140//140
f 212//212 217//217 207//207
f 134//134 217//217 212//212
f 122//122 91//91 143//143
f 142//142 152//152 143//143
f 144//144 142//142 141//141
f 142//142 144//144 152//152
f 152//152 122//122 143//143
f 164//164 144//144 141//141
f 141//141 124//124 145//145
f 145//145 124//124 125//125
f 155//155 141//141 145//145
f 146//146 147//147 100//100
f 149//149 100//100 147//147
f 122//122 153//153 146//146
f 146//146 153//153 154//154
f 154//154 147//147 146//146
f 148//148 147//147 154//154
f 148//148 149//149 147//147
f 159//159 158//158 125//125
f 129//129 151//151 162//162
f 151//151 129//129 106//106
f 149//149 151//151 106//106
f 150//150 216//216 161//161
f 129//129 162//162 128//128
f 215//215 128//128 221//221
f 164//164 165//165 144//144
f 144//144 165//165 152//152
f 165//165 163//163 152//152
f 163//163 122//122 152//152
f 155//155 164//164 141//141
f 153//153 122//122 168//168
f 154//154 157//157 148//148
f 172//172 157//157 154//154
f 158//158 145//145 125//125
f 158//158 155//155 145//145
f 158//158 156//156 155//155
f 157//157 149//149 148//148
f 158//158 160//160 181//181
f 175//175 156//156 158//158
f 149//149 184//184 151//151
f 184//184 149//149 180//180
f 160//160 159//159 150//150
f 160//160 158//158 159//159
f 160//160 186//186 224//224
f 161//161 160//160 150//150
f 160//160 161//161 186//186
f 221//221 162//162 187//187
f 184//184 162//162 151//151
f 221//221 128//128 162//162
f 165//165 167//167 163//163
f 164//164 155//155 174//174
f 166//166 164//164 174//174
f 166//166 165//165 164//164
f 165//165 166//166 188//188
f 166//166 189//189 188//188
f 163//163 168//168 122//122
f 163//163 167//167 168//168
f 165//165 188//188 167//167
f 168//168 169//169 173//173
f 180//180 222//222 179//179
f 170//170 167//167 188//188
f 168//168 167//167 170//170
f 169//169 168//168 170//170
f 171//171 170//170 188//188
f 222//222 170//170 171//171
f 168//168 173//173 153//153
f 173//173 154//154 153//153
f 173//173 172//172 154//154
f 172//172 180//180 157//157
f 222//222 172//172 173//173
f 172//172 222//222 180//180
f 156//156 175//175 155//155
f 223//223 181//181 176//176
f 175//175 174//174 155//155
f 223//223 177//177 174//174
f 223//223 176//176 177//177
f 224//224 182//182 176//176
f 174//174 177//177 166//166
f 177//177 176//176 182//182
f 177//177 189//189 166//166
f 177//177 182//182 189//189
f 183//183 189//189 182//182
f 185//185 184//184 178//178
f 178//178 180//180 179//179
f 178//178 179//179 189//189
f 178//178 189//189 183//183
f 222//222 171//171 179//179
f 171//171 189//189 179//179
f 157//157 180//180 149//149
f 180//180 178//178 184//184
f 158//158 181//181 223//223
f 183//183 182//182 186//186
f 182//182 224//224 186//186
f 162//162 184//184 187//187
f 187//187 183//183 186//186
f 184//184 185//185 187//187
f 183//183 187//187 185//185
f 185//185 178//178 183//183
f 187//187 186//186 221//221
f 171//171 188//188 189//189
