# Wavafront OBJ file of BodyParts3D
# BodyParts3D, Copyright(C) 2010-2011 The Database Center for Life Science licensed under CC Attribution-Share Alike 2.1 Japan.
vn -0.817931 0.0692047 -0.571139
v 81.6848 -83.4054 28.6053
vn -0.977298 0.144117 -0.155302
v 80.1 -83.8522 31.8163
vn -0.505192 0.105192 -0.856572
v 82.5614 -82.539 27.7748
vn -0.685539 0.413065 -0.599512
v 82.4281 -82.131 28.0506
vn -0.581947 -0.1103 -0.805712
v 82.894 -81.9278 27.8844
vn -0.833403 0.510161 -0.212545
v 81.2564 -81.1856 30.9083
vn -0.599217 0.653791 -0.462057
v 82.0713 -80.6764 30.0896
vn -0.900784 0.418636 0.115465
v 81.0607 -81.5674 31.6584
vn -0.178945 0.156233 -0.971375
v 92.0321 -80.5987 15.3798
vn -0.68081 0.102946 -0.725189
v 91.1423 -81.7672 15.5355
vn -0.544547 -0.0794595 -0.834958
v 86.3332 -79.2495 25.0337
vn -0.529799 0.667123 -0.523698
v 85.8677 -78.8136 26.3333
vn -0.702737 0.603847 -0.376204
v 85.0039 -78.2265 27.791
vn -0.377385 0.429978 -0.820182
v 91.6728 -78.2433 16.1855
vn -0.740152 0.535005 -0.407363
v 90.9609 -77.9922 16.9627
vn -0.389829 0.768991 -0.506642
v 92.354 -77.1527 16.837
vn -0.456963 0.87439 -0.163179
v 92.1235 -77.0511 17.5035
vn -0.0834951 0.934092 -0.347131
v 85.7157 -77.9449 27.3493
vn -0.887629 0.0987413 -0.44985
v 88.0421 -90.8601 19.8326
vn -0.96323 0.268032 -0.0186438
v 88.51 -89.1074 19.463
vn -0.822673 -0.0192984 -0.568187
v 88.568 -90.5959 18.881
vn -0.848057 0.325389 -0.418235
v 88.0344 -90.1263 20.1372
vn -0.9218 0.261426 -0.286253
v 88.2619 -89.8056 19.8191
vn -0.726879 0.552041 -0.408531
v 88.0316 -89.7826 20.496
vn -0.878647 0.450593 -0.15794
v 88.3229 -89.4934 20.2186
vn -0.896885 0.441861 0.018885
v 88.6539 -88.8814 20.3272
vn -0.862738 0.385254 -0.327508
v 87.4753 -89.6442 21.3771
vn -0.645727 -0.185803 -0.740617
v 82.1847 -87.8706 29.0748
vn -0.907373 -0.191903 -0.373961
v 80.5919 -87.3458 30.9354
vn -0.9805 -0.155016 -0.120784
v 80.4245 -88.3214 32.9976
vn -0.962936 0.139884 0.23062
v 89.2984 -85.6056 19.3218
vn -0.920234 0.270935 0.282423
v 89.2584 -86.7954 19.8744
vn -0.990536 0.101266 0.0926483
v 89.5203 -86.1625 20.0581
vn -0.942717 -0.00710851 -0.333518
v 89.3913 -86.2347 20.8055
vn -0.907726 -0.0493355 -0.416653
v 88.8828 -86.0746 21.711
vn -0.914538 0.211396 0.344866
v 80.1107 -84.3983 33.2674
vn -0.190675 -0.171533 -0.96655
v 92.8151 -85.8562 15.0187
vn -0.964794 0.0873345 -0.248081
v 89.4186 -84.634 17.7689
vn -0.998513 -0.0386918 -0.0384061
v 89.2935 -83.6795 19.1948
vn -0.982103 -0.0470131 -0.182381
v 89.169 -83.3212 19.888
vn -0.968813 -0.140646 -0.204009
v 89.3072 -84.128 19.7465
vn -0.94198 -0.112914 -0.316108
v 89.087 -84.1013 20.3498
vn -0.462299 -0.0226518 -0.886434
v 83.8389 -83.0332 27.3532
vn -0.885627 0.462064 0.046491
v 81.4425 -81.0711 32.623
vn -0.936874 0.311537 0.158783
v 81.1268 -82.1236 32.9871
vn -0.807285 0.572555 0.143079
v 81.6195 -80.5644 34.2807
vn -0.972902 0.180551 0.144442
v 81.321 -81.5812 34.2542
vn -0.927662 0.137333 0.347249
v 81.1697 -83.0258 34.0788
vn -0.962345 0.129384 -0.239065
v 89.2793 -81.795 19.4801
vn -0.773312 0.0886398 -0.627799
v 87.9828 -81.7747 24.2813
vn -0.125628 0.861576 -0.491838
v 86.3959 -78.4594 26.5887
vn -0.653726 0.73767 -0.168774
v 83.7088 -78.816 31.1865
vn -0.476179 0.864234 0.162334
v 84.7094 -78.1803 30.8632
vn -0.682716 0.730411 0.0199411
v 82.2474 -79.8723 32.5192
vn -0.0711676 0.314997 -0.946421
v 93.8111 -78.3363 15.7499
vn -0.905109 0.389449 -0.17061
v 90.4421 -77.6768 22.712
vn -0.533624 0.0693697 -0.842872
v 88.8464 -78.6702 23.9901
vn -0.427034 0.749898 -0.505267
v 90.2893 -77.7464 23.8514
vn 0.212056 0.976954 0.0243677
v 87.0597 -78.4476 26.9668
vn -0.597943 0.794899 -0.102955
v 84.9566 -77.8302 29.335
vn 0.335096 0.940307 0.0594386
v 85.9579 -78.0338 28.3112
vn 0.262002 0.948007 0.180657
v 85.2546 -77.9045 29.5153
vn 0.160869 0.497708 -0.852296
v 95.4036 -77.5103 16.0064
vn -0.290584 0.894008 -0.341045
v 93.6575 -76.5089 17.0918
vn -0.161923 0.658917 -0.734581
v 94.1603 -76.6663 16.5885
vn 0.148789 0.81178 -0.56469
v 94.9438 -76.2684 16.9841
vn 0.408167 0.764734 -0.498579
v 96.1309 -76.1294 18.0506
vn -0.955659 -0.0302904 -0.292913
v 86.254 -94.1464 25.3312
vn -0.393109 -0.390761 -0.832329
v 90.4388 -93.9762 18.106
vn -0.916856 -0.0270212 -0.398302
v 87.5004 -91.8916 20.8764
vn -0.9589 0.272635 0.0786147
v 87.0657 -91.1516 22.7655
vn -0.860974 0.407586 0.304298
v 87.4936 -90.6986 23.1501
vn -0.973995 0.00332713 -0.226545
v 86.7479 -93.3429 23.0726
vn -0.953125 0.295976 -0.062851
v 86.9837 -91.9994 23.8419
vn -0.812161 -0.0981039 -0.575126
v 85.2118 -92.832 27.8084
vn -0.899767 0.412886 -0.141224
v 88.7915 -88.607 20.7755
vn -0.754247 0.553835 -0.352672
v 88.1592 -88.8187 21.6593
vn -0.904254 0.413132 0.107917
v 87.9672 -88.8146 22.3607
vn -0.933051 0.29083 0.211738
v 87.8341 -89.5695 22.79
vn -0.961593 0.258311 -0.0928158
v 87.8556 -90.0583 23.6785
vn 0.28944 -0.478356 -0.829096
v 94.3216 -87.4326 15.6666
vn -0.944884 0.229862 -0.233147
v 88.2145 -87.819 22.7765
vn -0.934961 0.0219371 -0.354072
v 88.2374 -86.3705 23.4101
vn -0.800459 -0.0374366 0.598217
v 81.2048 -85.7841 34.7102
vn -0.868517 -0.0637221 0.491546
v 81.4473 -84.784 35.1038
vn 0.196898 -0.347034 -0.916951
v 95.8341 -85.9976 15.109
vn 0.473186 -0.631181 -0.614578
v 96.32 -86.2391 15.4346
vn -0.892352 0.0917544 0.441916
v 81.8755 -81.7149 36.8079
vn 0.109331 0.0231453 -0.993736
v 96.8749 -84.1258 14.9246
vn -0.266929 0.838214 0.475548
v 82.5837 -80.7095 36.4747
vn 0.371295 0.151357 -0.916095
v 98.7435 -80.4045 15.5783
vn 0.654594 0.371592 -0.658351
v 99.003 -79.0564 16.2146
vn -0.258312 0.964902 0.0473174
v 96.073 -75.2532 19.5252
vn -0.568157 -0.535372 -0.624959
v 89.0882 -99.1738 21.9341
vn -0.821423 -0.270699 -0.501982
v 87.8638 -97.5429 22.236
vn -0.806567 -0.484163 -0.339169
v 87.8943 -99.2111 23.6911
vn -0.931265 -0.262536 -0.252628
v 86.3519 -97.3863 26.6266
vn -0.738442 -0.660887 0.133905
v 85.5415 -96.7102 29.3206
vn -0.717089 -0.491915 -0.493764
v 84.2911 -95.0905 30.4208
vn -0.88144 -0.377281 -0.284118
v 84.8284 -95.495 29.9698
vn -0.675986 -0.71636 -0.172831
v 84.8649 -96.07 30.8783
vn -0.777629 -0.482736 -0.402814
v 82.3689 -94.1628 32.0398
vn -0.879199 -0.469762 -0.0795803
v 81.8893 -93.8355 33.7515
vn -0.607771 -0.791572 0.0634694
v 83.0123 -95.1915 33.7611
vn -0.625051 -0.565905 0.537647
v 82.8201 -94.7499 34.4046
vn 0.149456 -0.404696 -0.902155
v 92.3809 -94.0065 17.8562
vn -0.732083 -0.150402 0.664405
v 83.0935 -92.078 36.0442
vn 0.275132 -0.328406 -0.903577
v 94.5651 -93.1082 18.6508
vn -0.736438 -0.17022 0.65474
v 84.1554 -89.9553 36.9706
vn -0.870765 -0.390654 0.298593
v 84.2777 -89.2796 37.7631
vn 0.428431 -0.59527 -0.67978
v 96.0162 -86.9582 16.196
vn 0.521098 -0.568748 -0.636382
v 96.6761 -86.4781 16.2374
vn 0.550654 -0.270092 -0.78983
v 98.175 -84.4577 15.4488
vn 0.600448 -0.418539 -0.681386
v 98.9131 -84.8164 16.8347
vn 0.11409 0.966074 0.231697
v 89.7903 -80.4204 32.4416
vn 0.053452 0.954151 0.294513
v 86.9454 -80.6603 35.3104
vn -0.098377 0.945329 0.310925
v 86.9152 -81.4896 38.2435
vn -0.298651 0.775971 0.555587
v 86.2406 -82.071 39.5577
vn 0.78025 0.0708411 -0.621443
v 99.3703 -80.3402 16.0551
vn 0.540745 0.655433 -0.52726
v 99.2992 -78.3355 17.7189
vn 0.819321 0.331426 -0.467835
v 99.7223 -79.1379 17.6609
vn -0.248697 -0.724541 -0.642799
v 90.1906 -99.7026 21.8227
vn -0.485412 -0.788869 -0.376909
v 89.0369 -100.19 23.2563
vn -0.89053 -0.441715 -0.108832
v 86.8171 -99.1662 27.5334
vn -0.688772 -0.721666 -0.0692226
v 87.278 -99.7511 27.0625
vn -0.558969 -0.771465 0.303967
v 87.2774 -99.6355 27.8586
vn -0.886559 -0.455383 0.0814888
v 86.4933 -98.3672 28.0544
vn -0.4901 -0.85661 0.161309
v 86.1844 -97.0787 30.1427
vn -0.729848 -0.608837 0.310868
v 86.9064 -99.2858 28.0061
vn -0.590903 -0.588937 0.55135
v 86.869 -98.5869 28.6059
vn -0.463381 -0.76815 0.441842
v 86.6928 -97.4903 29.7315
vn -0.519274 -0.526289 0.673331
v 87.8092 -99.3705 28.6399
vn -0.0481887 -0.819343 0.571275
v 86.2567 -96.4686 32.5386
vn -0.295999 -0.931053 0.213367
v 84.3139 -95.7945 33.3676
vn -0.249941 -0.890046 0.381245
v 83.8617 -95.5196 34.2903
vn 0.0716087 -0.908799 0.411042
v 85.0116 -95.7026 33.7546
vn 0.130227 -0.928482 0.347795
v 85.5522 -94.9694 35.5904
vn -0.0311208 -0.859906 0.509503
v 87.009 -94.9921 33.9916
vn -0.260607 -0.731476 0.6301
v 85.3134 -94.5706 36.274
vn -0.224906 -0.931786 0.284942
v 87.2143 -94.8003 34.5233
vn -0.495648 -0.342454 0.798159
v 84.2909 -93.064 36.9289
vn -0.530194 -0.165895 0.831489
v 85.5758 -92.1671 37.723
vn 0.264607 -0.314801 -0.911528
v 95.6224 -91.9092 18.6249
vn -0.22781 -0.0892809 -0.969604
v 97.7937 -93.7216 18.7522
vn -0.652408 -0.508878 0.561611
v 85.0339 -90.4194 37.8102
vn -0.794751 -0.435739 0.422496
v 84.4416 -89.1552 39.0132
vn -0.541441 -0.62782 0.559182
v 85.2908 -89.4345 39.5805
vn -0.730083 -0.11497 0.673618
v 85.5349 -86.4541 41.505
vn -0.274237 0.394902 0.876839
v 86.0314 -83.9616 41.2444
vn -0.194443 -0.143812 0.970314
v 87.9316 -83.8551 41.1662
vn -0.373912 0.445964 0.813207
v 87.4963 -82.5483 40.7448
vn -0.0900363 0.125537 0.987995
v 87.6392 -83.4912 41.2014
vn -0.365994 0.0516214 0.929184
v 88.1041 -83.3181 41.3113
vn 0.725452 0.245772 -0.642897
v 101.169 -82.5196 18.5289
vn -0.399761 0.911262 0.0989591
v 93.9354 -79.3064 31.0308
vn -0.330679 0.916879 0.223571
v 89.9766 -81.2614 39.9644
vn 0.467955 0.348017 -0.812344
v 102.61 -79.5806 20.9944
vn 0.670688 0.417057 -0.613384
v 101.345 -77.8481 20.5297
vn 0.678118 0.519557 -0.519823
v 102.964 -78.2991 21.8712
vn 0.470521 0.822872 -0.318579
v 100.927 -75.2246 23.9214
vn -0.0703785 0.99749 -0.00774366
v 100.863 -75.1437 25.4969
vn 0.465213 0.870427 -0.161042
v 101.325 -75.2779 25.3731
vn 0.420045 0.907485 0.00581699
v 101.515 -75.0415 26.6684
vn -0.177347 0.976628 0.121433
v 101.119 -75.0573 27.2781
vn 0.142914 0.961677 0.233992
v 101.436 -75.1112 27.444
vn -0.842173 -0.260849 -0.471914
v 93.1903 -103.63 23.2451
vn -0.56056 -0.822788 -0.0937734
v 90.1611 -101.522 26.1044
vn -0.786398 -0.597649 -0.156184
v 91.4354 -102.52 26.1533
vn -0.131729 -0.603219 -0.786622
v 93.9065 -100.008 21.3979
vn -0.588121 -0.126337 -0.798845
v 95.8249 -101.475 20.4091
vn -0.30159 -0.768921 -0.563741
v 92.4607 -100.683 22.4388
vn -0.485305 -0.737261 -0.470027
v 90.9023 -101.231 24.4607
vn -0.572857 -0.478443 0.665528
v 90.6654 -101.419 29.626
vn -0.746839 -0.416899 0.518098
v 90.2104 -99.7929 30.1879
vn -0.390664 -0.752524 0.530179
v 89.1783 -98.0229 30.3564
vn -0.259818 -0.798895 0.542459
v 88.7746 -96.6207 32.7813
vn -0.581528 -0.712272 0.393056
v 89.5738 -97.1847 32.5012
vn 0.0755602 -0.958582 0.274612
v 87.0607 -94.6356 35.5975
vn -0.216198 -0.928176 0.3029
v 87.5525 -94.6997 35.4814
vn -0.434304 -0.809816 0.394435
v 88.1591 -94.8232 35.8446
vn -0.34506 -0.396041 0.850932
v 87.5032 -92.6891 38.5265
vn -0.205253 -0.793421 0.573022
v 87.8651 -93.5482 37.9989
vn -0.430837 -0.433678 0.791393
v 86.6393 -90.1631 39.7218
vn -0.229182 -0.29671 0.927059
v 87.6028 -87.289 41.1401
vn -0.0175608 -0.061961 0.997924
v 87.7023 -86.96 41.2387
vn -0.472213 -0.131711 0.871589
v 87.8925 -87.5095 41.2203
vn -0.419671 0.0271899 0.907269
v 88.0369 -87.1087 41.3039
vn -0.527032 -0.193722 0.827472
v 88.1733 -87.6243 41.3961
vn -0.14724 -0.606493 0.781336
v 89.0536 -89.0375 41.0367
vn -0.402315 0.441776 -0.801858
v 104.678 -89.1944 17.0959
vn 0.593424 0.250436 -0.764938
v 102.629 -87.6645 18.0137
vn -0.374038 0.206913 0.904037
v 89.0428 -82.6217 41.788
vn -0.166014 -0.349046 0.922283
v 89.2166 -83.4374 41.5892
vn -0.184839 -0.312329 0.931818
v 89.2579 -83.0949 41.7896
vn -0.136618 -0.0778968 0.987556
v 89.4298 -82.796 41.8834
vn -0.449331 0.561442 0.694899
v 90.1856 -81.9606 41.7995
vn -0.231367 0.18243 0.955609
v 90.0265 -82.2878 41.9135
vn -0.169408 -0.203149 0.964381
v 90.1167 -83.0842 41.8609
vn -0.241403 -0.132756 0.961301
v 90.2419 -83.8886 41.747
vn -0.355589 0.0342102 0.934016
v 90.8439 -82.0915 42.1934
vn -0.323708 0.0936596 0.94151
v 92.3702 -80.8201 42.8986
vn -0.5444 0.645574 0.535596
v 92.7832 -80.1136 42.7974
vn 0.731951 0.675304 0.0906277
v 102.7 -76.7947 28.3893
vn -0.378104 0.925218 -0.0317725
v 100.368 -75.8027 29.996
vn -0.0601462 0.983918 0.168187
v 101.08 -75.3867 28.4945
vn 0.749864 0.659148 0.056816
v 101.555 -75.4908 28.374
vn 0.37822 0.922882 -0.072378
v 101.747 -75.5913 29.7146
vn -0.0889327 0.993735 -0.0676847
v 101.429 -75.5553 29.9336
vn -0.0341124 0.99259 -0.116629
v 101.306 -75.281 31.0446
vn 0.672809 0.737938 0.0526704
v 101.906 -75.4635 31.4122
vn -0.581227 -0.174027 -0.794915
v 96.2203 -106.618 20.5024
vn -0.378296 -0.505415 -0.77553
v 96.3008 -107.103 20.6124
vn 0.120583 -0.892279 -0.435083
v 96.5479 -107.297 20.7794
vn 0.445465 -0.893837 -0.0511588
v 96.6858 -107.302 21.2648
vn -0.746537 -0.264351 -0.610575
v 94.4437 -107.578 22.4539
vn -0.596524 -0.658269 -0.459175
v 94.5601 -108.082 22.5869
vn -0.868938 -0.418131 -0.264788
v 94.2399 -107.943 23.1971
vn -0.618261 -0.335178 -0.710921
v 95.556 -107.52 21.4589
vn 0.00774089 -0.960772 -0.27723
v 94.8241 -108.236 22.7583
vn -0.433762 -0.893301 -0.117742
v 94.447 -108.232 23.3537
vn -0.0976618 -0.874751 -0.47463
v 96.0754 -107.518 21.35
vn 0.248222 -0.967767 -0.042582
v 94.8024 -108.265 23.5613
vn -0.875649 -0.44933 0.177036
v 93.6572 -106.185 25.4727
vn -0.819605 -0.572606 0.0192394
v 94.1424 -108.032 23.9864
vn -0.147721 -0.985505 0.0834199
v 94.6876 -108.299 24.3118
vn -0.760405 -0.556451 0.334882
v 94.2029 -107.796 24.7799
vn -0.378961 -0.522178 -0.764015
v 99.5391 -105.485 18.1927
vn -0.305804 -0.439691 -0.844486
v 96.9392 -106.49 20.085
vn -0.00479938 -0.735847 -0.67713
v 97.2937 -106.647 20.112
vn -0.43519 -0.388207 -0.812346
v 98.3457 -105.736 19.1665
vn 0.346258 -0.906446 -0.241788
v 97.5061 -106.774 20.4467
vn 0.470167 -0.882576 0.00186167
v 97.4782 -106.806 20.8408
vn -0.0502015 -0.80843 -0.586448
v 98.2561 -106.278 19.5927
vn -0.272733 -0.730645 -0.625919
v 98.5284 -106.083 19.3168
vn -0.913713 -0.353034 -0.201236
v 93.1399 -104.979 24.3962
vn -0.737009 -0.66816 0.101883
v 91.7481 -103.104 28.0326
vn -0.508479 -0.713772 0.481642
v 92.9106 -103.802 29.1954
vn 0.180082 -0.205975 -0.961844
v 100.109 -101.79 17.2193
vn -0.53591 -0.14095 -0.832426
v 99.4047 -103.084 17.7989
vn -0.717819 -0.570758 0.398712
v 91.3467 -102.027 30.9076
vn 0.359379 -0.416182 -0.835248
v 102.172 -99.6055 17.201
vn -0.569873 -0.690749 0.445095
v 90.5569 -96.8454 35.4538
vn -0.290892 -0.0700772 -0.954186
v 103.079 -97.1394 16.2752
vn 0.130656 -0.392104 -0.910595
v 103.156 -97.737 16.3979
vn 0.488508 -0.541155 -0.684478
v 103.656 -97.484 16.5142
vn -0.373345 0.00889885 -0.92765
v 101.291 -98.8394 17.0998
vn -0.413712 -0.605264 0.680072
v 89.5843 -93.957 38.5747
vn -0.509709 0.0976009 -0.854793
v 103.8 -95.5866 16.0765
vn -0.0238138 -0.215558 -0.976201
v 104.819 -95.2168 15.7387
vn 0.467993 -0.459031 -0.755164
v 105.089 -95.3506 15.917
vn 0.0902063 -0.584676 0.806236
v 89.9623 -90.7983 39.6581
vn -0.250166 -0.0248544 0.967884
v 90.1828 -91.2727 39.6502
vn -0.426302 -0.128856 0.895356
v 90.7336 -92.6704 39.82
vn -0.397058 0.158693 0.90397
v 91.298 -91.3927 39.9235
vn -0.556208 0.2172 -0.802158
v 104.524 -91.7252 16.3867
vn -0.304956 0.0437358 -0.951362
v 105.343 -92.7233 15.3638
vn -0.616614 0.21767 -0.756576
v 105.149 -92.2851 15.6005
vn 0.262664 -0.277482 -0.924128
v 105.399 -94.2945 15.5427
vn 0.446417 -0.276078 -0.851171
v 106.126 -92.9566 15.4366
vn 0.558128 -0.395916 -0.729208
v 105.81 -94.1089 15.7469
vn -0.331535 0.0206399 0.943217
v 91.4433 -90.2987 39.8368
vn -0.299718 -0.774113 0.5576
v 91.3903 -89.8327 40.2808
vn -0.641695 0.102712 0.760052
v 91.8824 -90.8951 40.0969
vn -0.827776 -0.122428 0.547538
v 92.0728 -90.235 40.309
vn 0.0640895 -0.0923839 -0.993659
v 106.438 -91.6469 15.2552
vn 0.295584 0.0310037 -0.954813
v 107.652 -89.8864 15.4189
vn -0.521915 0.173595 -0.835146
v 105.788 -91.3923 15.4425
vn -0.248948 0.0773871 -0.96542
v 106.249 -90.7991 15.2221
vn -0.547855 0.28564 -0.786298
v 106.059 -90.363 15.4616
vn -0.236747 0.394331 -0.887949
v 106.686 -89.8518 15.347
vn -0.441063 0.504255 -0.742422
v 106.39 -89.751 15.5701
vn -0.291741 0.0326605 -0.95594
v 106.016 -91.4778 15.3445
vn -0.0269313 0.579001 -0.814882
v 107.183 -89.3217 15.5613
vn -0.28534 0.679937 -0.675476
v 106.866 -89.2105 15.7709
vn -0.470149 0.233107 0.851247
v 90.3766 -85.6139 43.0219
vn -0.484215 -0.278923 0.8293
v 90.5607 -87.983 43.0151
vn -0.305544 -0.175791 0.93581
v 92.1317 -87.2237 43.9592
vn -0.150862 0.643642 -0.75031
v 106.069 -88.2691 17.2205
vn 0.042236 0.81976 -0.571147
v 108.991 -88.0752 16.8365
vn 0.150499 0.786384 -0.599125
v 108.681 -87.4647 17.7961
vn -0.163488 0.455091 0.875308
v 94.0936 -83.7328 42.8768
vn -0.0956219 -0.207241 0.973605
v 92.3443 -83.3235 42.412
vn 0.112844 0.487378 -0.865869
v 105.7 -84.9259 19.501
vn 0.882044 0.439663 -0.169397
v 106.432 -84.1736 21.7573
vn -0.197524 0.407358 0.891652
v 96.1389 -81.4789 42.3002
vn -0.00072542 -0.119694 0.992811
v 93.2656 -80.7091 42.9902
vn 0.853366 0.360022 -0.377028
v 105.603 -81.832 23.0032
vn 0.903011 0.318384 -0.288448
v 106.253 -81.1156 24.4061
vn 0.982642 0.105243 -0.15277
v 106.232 -83.3658 24.1077
vn 0.192087 -0.141913 0.971063
v 95.6687 -79.4448 42.9803
vn -0.308673 0.833145 0.458901
v 95.8816 -78.3703 42.8112
vn 0.180025 0.290642 0.939744
v 96.2135 -78.5185 42.8811
vn 0.406204 -0.0629167 0.911614
v 96.6896 -78.6999 42.6988
vn -0.516101 0.848145 0.11954
v 94.0112 -79.0641 42.3879
vn -0.439561 0.836037 0.328373
v 94.4111 -78.8724 42.6142
vn -0.0725694 0.142488 0.987133
v 94.4199 -79.2076 43.0464
vn 0.716826 0.692838 -0.0783287
v 104.936 -78.2074 26.6079
vn 0.920386 0.372545 0.118741
v 105.885 -79.4109 27.715
vn 0.75552 0.563125 0.334783
v 104.59 -78.7712 30.9484
vn 0.83896 0.478177 0.259796
v 102.804 -77.4113 31.7767
vn 0.746037 0.471404 0.470326
v 103.621 -78.963 32.32
vn -0.31138 0.93788 0.153049
v 99.6665 -76.3095 39.1712
vn -0.337661 0.90614 0.254745
v 96.5814 -77.8278 42.1327
vn -0.29712 0.921979 0.248342
v 97.234 -77.5797 42.006
vn 0.403125 0.42278 0.811632
v 98.2728 -77.5775 41.7882
vn 0.869133 0.441146 0.223605
v 102.076 -76.5943 34.0936
vn -0.422133 0.905363 0.0460732
v 100.386 -75.5247 35.8268
vn 0.927062 0.10224 0.360698
v 100.933 -76.096 37.4324
vn 0.489158 -0.870722 -0.0506617
v 95.2139 -108.08 23.7723
vn 0.486026 -0.865564 -0.120737
v 96.6563 -107.15 23.6629
vn -0.594939 -0.732093 0.331795
v 94.7204 -108.13 25.12
vn -0.689623 -0.634145 0.349686
v 94.8465 -107.715 25.949
vn 0.281535 -0.955951 -0.083035
v 95.6321 -108.035 25.2231
vn -0.298586 -0.916942 0.264696
v 95.7091 -108.012 26.4816
vn 0.0240179 -0.99971 0.00156289
v 96.2837 -108.059 26.4107
vn -0.0141672 -0.910229 -0.413862
v 99.046 -106.139 19.1663
vn 0.319437 -0.450577 -0.833631
v 99.8307 -105.62 18.3772
vn 0.499569 -0.441182 -0.745513
v 100.225 -105.003 18.1948
vn 0.349051 -0.931842 -0.0991701
v 99.3606 -106.121 19.392
vn 0.634233 -0.73478 -0.240514
v 100.329 -105.524 19.0556
vn 0.0270282 -0.953994 -0.298605
v 98.8031 -106.212 19.491
vn 0.272783 -0.9561 -0.107061
v 98.4306 -106.349 19.9697
vn -0.248114 -0.657381 0.71154
v 95.8718 -103.443 31.1747
vn -0.554322 -0.593113 0.583904
v 92.7972 -100.473 33.3618
vn -0.576264 -0.315818 0.753776
v 92.9881 -100.94 33.4057
vn -0.23374 -0.671842 0.702848
v 93.591 -102.056 33.0067
vn -0.23146 -0.556135 0.79821
v 93.7971 -100.673 33.7538
vn -0.269221 -0.749258 0.605088
v 94.0835 -100.327 34.2778
vn -0.0527515 -0.66835 0.741974
v 95.0397 -100.968 33.6917
vn -0.442467 -0.596216 0.669888
v 91.8932 -93.8802 39.8852
vn -0.622655 -0.0750003 0.778894
v 92.382 -92.3525 41.0063
vn -0.870955 -0.24048 0.428494
v 92.9584 -90.233 42.4481
vn -0.464668 -0.786962 0.405924
v 93.0261 -89.4047 42.9831
vn -0.698002 -0.276549 0.660541
v 93.2965 -91.7222 42.1754
vn 0.580448 -0.289042 -0.761271
v 109.639 -90.4937 16.7687
vn -0.477432 -0.328326 0.815022
v 93.3569 -88.7263 43.6947
vn -0.234337 -0.0428943 0.971209
v 94.2492 -88.1382 44.1274
vn 0.263383 0.719458 -0.642658
v 109.497 -88.4864 16.4289
vn 0.813561 0.219745 -0.538359
v 110.489 -88.4267 17.7399
vn 0.820711 -0.0762203 -0.566236
v 110.985 -90.0345 17.8332
vn 0.97066 0.213739 -0.110155
v 111.197 -89.7964 18.3256
vn -0.0168575 0.31917 0.947548
v 95.3928 -85.1659 43.9612
vn 0.384713 0.81615 -0.431156
v 109.108 -87.0601 18.8495
vn 0.992745 0.103599 -0.0610306
v 106.404 -84.689 25.0562
vn 0.981642 -0.0186964 -0.189815
v 106.615 -85.3166 26.4772
vn 0.993365 0.114644 -0.00911207
v 106.592 -81.8651 26.8204
vn 0.97881 0.0526808 -0.19788
v 106.581 -83.7495 26.251
vn 0.977663 0.192901 -0.0834546
v 106.673 -83.11 27.0306
vn 0.980905 0.107546 -0.162049
v 106.851 -83.5859 27.1992
vn 0.957022 0.228325 0.178822
v 106.439 -81.9224 27.5518
vn 0.960234 0.278932 -0.0121456
v 106.65 -82.8382 27.3876
vn 0.88643 0.405332 0.22349
v 106.592 -82.8579 28.1688
vn 0.867758 0.360459 0.34215
v 106.426 -82.8031 28.4723
vn 0.892491 0.213452 0.397363
v 106.39 -83.2172 28.9126
vn 0.935195 0.283304 0.212485
v 106.817 -83.3172 28.3582
vn 0.932669 0.171482 0.317368
v 105.875 -83.2149 31.0524
vn 0.826816 0.262402 0.497514
v 103.331 -82.2525 35.5583
vn 0.8384 0.0730015 0.540145
v 100.906 -81.2122 38.9037
vn 0.614945 0.0827254 0.784219
v 99.2431 -81.8723 40.8808
vn 0.50409 -0.0762718 0.860277
v 98.4895 -79.3561 41.7411
vn 0.892472 0.189214 0.409501
v 101.086 -79.2725 37.9393
vn 0.782923 0.0304642 0.621372
v 99.5539 -77.8071 40.9279
vn -0.430565 -0.766003 0.47734
v 96.3808 -107.864 27.658
vn -0.01855 -0.992752 0.118743
v 97.143 -108.068 27.715
vn -0.311243 -0.806453 0.502754
v 98.2208 -107.739 29.0998
vn 0.468647 -0.880801 -0.0675332
v 100.441 -105.317 23.9623
vn 0.604161 -0.631911 -0.485467
v 106.44 -99.975 21.5044
vn 0.570092 -0.513219 -0.641562
v 108.658 -95.2726 18.842
vn 0.701238 -0.400451 -0.589835
v 110.803 -93.5898 19.5996
vn -0.164262 -0.155101 0.974147
v 95.5585 -89.5139 44.6521
vn 0.807891 0.562298 0.176443
v 110.285 -88.9849 22.567
vn 0.984325 0.155562 0.0830898
v 107.181 -88.3092 27.196
vn 0.904477 0.162043 0.394541
v 106.673 -89.5386 29.9084
vn 0.475604 0.120142 0.871416
v 97.3754 -87.9485 44.2671
vn 0.999055 0.0391797 0.0188273
v 106.915 -87.1962 28.5201
vn 0.330376 -0.928494 -0.169559
v 99.2893 -107.667 28.8897
vn 0.521112 -0.796063 -0.307775
v 102.01 -105.708 28.1579
vn 0.512308 -0.821301 -0.251007
v 104.373 -102.701 25.4601
vn -0.273891 -0.757503 0.592598
v 98.754 -99.9753 35.6852
vn -0.33919 -0.778813 0.527637
v 97.7409 -98.339 38.5424
vn -0.398341 -0.602948 0.691215
v 98.4667 -95.1159 42.7206
vn 0.661386 -0.544924 -0.51539
v 111.029 -95.8311 21.7431
vn 0.964377 -0.190748 -0.18328
v 111.359 -95.2034 21.7099
vn 0.219525 -0.246449 0.943966
v 98.8868 -93.8048 43.0763
vn 0.775137 0.236901 0.585697
v 106.766 -92.7805 30.7956
vn 0.734758 0.501282 0.456997
v 110.06 -90.2751 25.4493
vn 0.926625 0.286871 0.243045
v 110.88 -91.1493 24.8958
vn 0.111539 -0.993644 0.0151645
v 101.896 -107.053 32.3287
vn -0.489482 -0.521414 0.698953
v 101.205 -106.594 32.358
vn -0.501865 -0.627434 0.595363
v 102.715 -107.006 33.1967
vn 0.318097 -0.887152 -0.33433
v 103.168 -106.83 32.6211
vn 0.1275 -0.974616 -0.184033
v 102.911 -106.991 32.9009
vn 0.307017 -0.81851 -0.485574
v 104.093 -106.317 32.271
vn -0.5227 -0.261799 0.811323
v 103.258 -105.385 34.3048
vn -0.341095 -0.237938 0.909417
v 103.71 -104.857 34.7093
vn -0.276525 -0.684014 0.675025
v 102.208 -102.285 35.5305
vn -0.368987 -0.46961 0.802069
v 102.592 -103.609 34.6089
vn -0.187369 -0.428089 0.8841
v 103.368 -103.222 35.1003
vn 0.0342472 -0.631173 0.774886
v 103.412 -102.224 35.805
vn 0.469677 -0.751154 -0.463865
v 109.787 -100.71 26.2646
vn 0.8255 0.0774413 0.559064
v 108.051 -100.594 31.3443
vn 0.762218 -0.137224 0.632608
v 105.511 -101.092 35.2329
vn 0.470816 -0.348448 0.810504
v 104.821 -101.618 35.7199
vn -0.189743 -0.8339 0.518275
v 101.924 -101.164 36.8437
vn 0.270699 -0.769763 0.57809
v 103.097 -100.698 37.4529
vn 0.0626087 -0.891642 0.44839
v 102.796 -100.297 38.4453
vn 0.59106 -0.460165 0.662492
v 103.358 -100.096 37.9285
vn -0.254888 -0.809056 0.529585
v 102.124 -99.4197 39.9974
vn 0.323381 -0.478682 0.816265
v 102.369 -99.1507 40.0794
vn 0.971815 -0.0503835 0.230298
v 110.561 -99.9434 26.2002
vn 0.926167 -0.000232286 0.377113
v 110.273 -99.9374 27.2522
vn 0.839922 0.0494544 0.540449
v 106.518 -99.8577 34.0229
vn 0.823891 0.0279672 0.566058
v 103.743 -97.6182 38.2277
vn 0.745167 0.159632 0.64749
v 108.205 -96.3603 30.4675
vn 0.86557 0.132389 0.482971
v 110.31 -94.3228 28.156
vn 0.27514 -0.940463 -0.199567
v 104.44 -106.928 33.3709
vn 0.402838 -0.792982 -0.457057
v 104.691 -106.634 33.2034
vn -0.342593 -0.311396 0.886376
v 103.941 -106.461 34.5145
vn 0.41753 -0.861324 -0.289465
v 104.848 -106.742 33.5803
vn 0.270213 -0.242627 0.931728
v 105.624 -106.051 34.7346
vn 0.00122391 -0.925608 0.378483
v 105.762 -106.479 34.4645
vn 0.51643 -0.854121 0.0614624
v 106.324 -106.261 33.9452
vn 0.598119 -0.740661 -0.306065
v 108.339 -104.206 30.7683
vn 0.694295 -0.698658 0.17272
v 107.073 -105.764 33.4962
vn 0.417912 -0.862458 -0.285509
v 107.429 -105.44 32.6534
vn 0.832466 -0.276976 0.479879
v 107.551 -105.179 33.2866
vn 0.833559 -0.53684 0.130319
v 108.068 -104.911 32.3296
vn 0.828597 0.0383544 0.558531
v 108.035 -104.172 32.6827
vn 0.0864808 -0.274936 0.957565
v 104.705 -103.046 35.255
vn 0.679972 -0.355813 0.64112
v 106.791 -105.716 34.1405
vn 0.737942 0.00974924 0.674794
v 107.124 -105.06 33.8387
vn 0.899429 0.0456903 0.434672
v 108.943 -103.223 30.9839
vn 0.624965 -0.010591 0.780581
v 105.82 -102.705 34.8109
vn -0.409181 0.530424 -0.742443
v 82.894 -81.9278 27.8844
vn -0.77931 0.461358 -0.424057
v 82.894 -81.9278 27.8844
vn -0.550793 0.63663 -0.539749
v 86.3332 -79.2495 25.0337
vn -0.789617 -0.0973411 0.60583
v 80.4245 -88.3214 32.9976
vn -0.0905808 0.987581 0.128371
v 86.3959 -78.4594 26.5887
vn 0.199246 0.919831 0.337954
v 84.7094 -78.1803 30.8632
vn -0.48732 0.872551 -0.0342614
v 90.4421 -77.6768 22.712
vn -0.663727 0.1153 -0.739035
v 90.4421 -77.6768 22.712
vn -0.424802 0.556328 -0.714173
v 88.8464 -78.6702 23.9901
vn -0.540462 0.841106 -0.0210064
v 88.8464 -78.6702 23.9901
vn -0.235405 0.961237 0.143554
v 90.2893 -77.7464 23.8514
vn 0.185961 0.9775 0.099557
v 84.9566 -77.8302 29.335
vn 0.372805 0.806055 -0.459664
v 99.003 -79.0564 16.2146
vn 0.368378 0.805519 -0.464152
v 96.073 -75.2532 19.5252
vn -0.781032 -0.224852 0.582606
v 81.8893 -93.8355 33.7515
vn 0.439532 0.212116 -0.872822
v 98.9131 -84.8164 16.8347
vn -0.176835 -0.446907 0.876928
v 85.2908 -89.4345 39.5805
vn 0.0407094 -0.263843 0.963706
v 85.5349 -86.4541 41.505
vn 0.706286 -0.190857 -0.681714
v 101.169 -82.5196 18.5289
vn 0.747091 0.646894 0.152916
v 101.436 -75.1112 27.444
vn 0.210348 -0.378902 -0.901214
v 93.9065 -100.008 21.3979
vn -0.514868 -0.0993769 -0.85149
v 93.9065 -100.008 21.3979
vn -0.535273 -0.138341 -0.833273
v 92.4607 -100.683 22.4388
vn -0.757911 -0.630395 0.167846
v 90.6654 -101.419 29.626
vn -0.133471 0.182146 -0.974171
v 102.629 -87.6645 18.0137
vn -0.547601 0.469228 0.69279
v 90.2419 -83.8886 41.747
vn 0.255704 0.948224 0.188381
v 101.555 -75.4908 28.374
vn -0.139654 -0.843586 -0.518517
v 95.556 -107.52 21.4589
vn 0.310844 -0.937937 -0.153785
v 96.0754 -107.518 21.35
vn 0.260821 -0.366952 -0.892927
v 99.5391 -105.485 18.1927
vn -0.54044 -0.00137309 -0.841381
v 100.109 -101.79 17.2193
vn -0.205398 -0.111564 0.972299
v 89.9623 -90.7983 39.6581
vn -0.107369 -0.660016 0.74354
v 91.4433 -90.2987 39.8368
vn -0.447233 -0.721762 0.528244
v 92.0728 -90.235 40.309
vn -0.288289 -0.831431 0.474987
v 90.5607 -87.983 43.0151
vn -0.210673 0.470109 0.857096
v 92.3443 -83.3235 42.412
vn 0.616588 0.658 -0.432267
v 105.7 -84.9259 19.501
vn 0.722886 0.635418 0.271441
v 106.432 -84.1736 21.7573
vn 0.365307 -0.120753 0.923022
v 96.1389 -81.4789 42.3002
vn 0.0322096 0.484518 0.874188
v 95.8816 -78.3703 42.8112
vn -0.400568 0.720073 0.566604
v 94.4199 -79.2076 43.0464
vn 0.424988 0.721337 0.546862
v 99.6665 -76.3095 39.1712
vn 0.205384 0.94205 0.265254
v 99.6665 -76.3095 39.1712
vn 0.127338 0.69974 0.702957
v 97.234 -77.5797 42.006
vn 0.235862 0.967167 0.0946398
v 100.386 -75.5247 35.8268
vn 0.510328 0.83534 0.204381
v 100.386 -75.5247 35.8268
vn 0.409497 0.894604 0.178874
v 100.933 -76.096 37.4324
vn 0.628129 0.571804 0.527726
v 100.933 -76.096 37.4324
vn 0.0428138 -0.995486 0.0846983
v 94.7204 -108.13 25.12
vn 0.37248 -0.835869 -0.403214
v 99.8307 -105.62 18.3772
vn -0.375751 -0.0666989 0.924317
v 92.7972 -100.473 33.3618
vn -0.667826 -0.367293 0.647383
v 93.0261 -89.4047 42.9831
vn 0.662882 0.00547985 -0.748704
v 109.497 -88.4864 16.4289
vn 0.469212 0.791763 -0.391091
v 110.489 -88.4267 17.7399
vn 0.809395 0.578492 0.101132
v 110.489 -88.4267 17.7399
vn 0.756589 0.646895 0.0953906
v 109.108 -87.0601 18.8495
vn 0.567531 0.608255 0.554918
v 99.5539 -77.8071 40.9279
vn 0.669717 0.626859 0.398156
v 107.181 -88.3092 27.196
vn 0.173677 -0.348435 0.921102
v 98.4667 -95.1159 42.7206
vn 0.736186 0.0836269 0.671593
v 98.8868 -93.8048 43.0763
vn -0.445194 -0.704963 0.552113
v 101.896 -107.053 32.3287
vn 0.039473 -0.992089 0.119166
v 102.715 -107.006 33.1967
vn 0.757691 -0.376002 0.53341
v 102.796 -100.297 38.4453
vn 0.50599 -0.638439 0.579974
v 102.796 -100.297 38.4453
vn 0.347333 -0.54868 0.760467
v 102.124 -99.4197 39.9974
vn 0.830618 -0.0784399 0.55129
v 102.369 -99.1507 40.0794
vn 0.74729 -0.584316 -0.316437
v 110.561 -99.9434 26.2002
vn 0.00224376 -0.92545 0.378863
v 103.941 -106.461 34.5145
vn 0.426619 -0.88675 -0.177961
v 105.762 -106.479 34.4645
vn 0.0180573 -0.529433 0.84816
v 105.762 -106.479 34.4645
vn 0.624642 -0.676028 0.390907
v 105.762 -106.479 34.4645
vn 0.502211 -0.339343 0.795381
v 105.762 -106.479 34.4645
vn 0.856815 -0.510672 -0.0712876
v 108.943 -103.223 30.9839
f 1//1 28//28 29//29
f 29//29 2//2 1//1
f 28//28 1//1 3//3
f 28//28 3//3 43//43
f 1//1 2//2 6//6
f 11//11 43//43 5//5
f 1//1 4//4 3//3
f 1//1 6//6 4//4
f 3//3 4//4 434//434
f 4//4 7//7 434//434
f 52//52 434//434 7//7
f 3//3 434//434 43//43
f 4//4 6//6 7//7
f 6//6 2//2 8//8
f 8//8 44//44 6//6
f 54//54 6//6 44//44
f 45//45 44//44 8//8
f 44//44 46//46 54//54
f 10//10 9//9 37//37
f 37//37 9//9 89//89
f 38//38 49//49 10//10
f 57//57 50//50 11//11
f 435//435 12//12 436//436
f 435//435 13//13 12//12
f 18//18 12//12 13//13
f 12//12 58//58 436//436
f 12//12 18//18 51//51
f 13//13 60//60 18//18
f 52//52 13//13 435//435
f 13//13 52//52 60//60
f 7//7 6//6 52//52
f 65//65 63//63 55//55
f 15//15 10//10 49//49
f 15//15 14//14 10//10
f 16//16 15//15 17//17
f 9//9 14//14 55//55
f 10//10 14//14 9//9
f 14//14 65//65 55//55
f 15//15 16//16 14//14
f 16//16 65//65 14//14
f 56//56 15//15 49//49
f 15//15 440//440 17//17
f 442//442 436//436 58//58
f 12//12 51//51 58//58
f 51//51 18//18 59//59
f 64//64 16//16 17//17
f 19//19 22//22 21//21
f 19//19 70//70 27//27
f 27//27 70//70 71//71
f 102//102 29//29 28//28
f 38//38 21//21 20//20
f 10//10 21//21 38//38
f 21//21 23//23 20//20
f 19//19 27//27 22//22
f 23//23 21//21 22//22
f 22//22 27//27 24//24
f 23//23 25//25 20//20
f 23//23 22//22 25//25
f 22//22 24//24 25//25
f 26//26 20//20 25//25
f 24//24 76//76 25//25
f 25//25 76//76 26//26
f 20//20 26//26 76//76
f 71//71 78//78 27//27
f 27//27 77//77 24//24
f 2//2 29//29 30//30
f 84//84 36//36 437//437
f 106//106 37//37 81//81
f 20//20 31//31 38//38
f 38//38 31//31 39//39
f 31//31 20//20 32//32
f 32//32 33//33 31//31
f 31//31 33//33 39//39
f 32//32 20//20 76//76
f 32//32 76//76 33//33
f 34//34 33//33 76//76
f 34//34 35//35 42//42
f 83//83 42//42 35//35
f 34//34 82//82 35//35
f 82//82 83//83 35//35
f 8//8 2//2 36//36
f 8//8 36//36 45//45
f 48//48 45//45 36//36
f 30//30 36//36 2//2
f 84//84 48//48 36//36
f 109//109 85//85 84//84
f 84//84 85//85 48//48
f 85//85 88//88 48//48
f 37//37 86//86 81//81
f 38//38 39//39 49//49
f 39//39 33//33 41//41
f 41//41 40//40 39//39
f 41//41 42//42 40//40
f 42//42 49//49 40//40
f 39//39 40//40 49//49
f 41//41 34//34 42//42
f 34//34 41//41 33//33
f 42//42 83//83 49//49
f 50//50 75//75 11//11
f 75//75 28//28 11//11
f 75//75 50//50 83//83
f 11//11 28//28 43//43
f 45//45 46//46 44//44
f 46//46 53//53 54//54
f 45//45 47//47 46//46
f 48//48 47//47 45//45
f 47//47 48//48 88//88
f 47//47 88//88 46//46
f 90//90 46//46 88//88
f 49//49 50//50 56//56
f 49//49 83//83 50//50
f 50//50 57//57 441//441
f 6//6 54//54 52//52
f 54//54 53//53 52//52
f 46//46 90//90 53//53
f 89//89 55//55 63//63
f 9//9 55//55 89//89
f 17//17 440//440 93//93
f 93//93 444//444 115//115
f 443//443 444//444 440//440
f 59//59 115//115 444//444
f 438//438 59//59 444//444
f 59//59 18//18 61//61
f 18//18 445//445 61//61
f 61//61 445//445 62//62
f 62//62 445//445 439//439
f 60//60 52//52 53//53
f 115//115 59//59 61//61
f 61//61 62//62 115//115
f 62//62 439//439 115//115
f 66//66 63//63 65//65
f 120//120 63//63 66//66
f 120//120 66//66 67//67
f 64//64 65//65 16//16
f 64//64 66//66 65//65
f 93//93 64//64 17//17
f 64//64 93//93 66//66
f 67//67 66//66 447//447
f 440//440 444//444 93//93
f 95//95 73//73 70//70
f 95//95 97//97 73//73
f 100//100 99//99 75//75
f 102//102 103//103 29//29
f 37//37 69//69 21//21
f 69//69 37//37 106//106
f 70//70 19//19 21//21
f 73//73 71//71 70//70
f 72//72 78//78 71//71
f 71//71 73//73 74//74
f 72//72 71//71 74//74
f 72//72 74//74 80//80
f 74//74 73//73 68//68
f 68//68 75//75 74//74
f 68//68 100//100 75//75
f 102//102 75//75 99//99
f 29//29 103//103 30//30
f 10//10 37//37 21//21
f 76//76 82//82 34//34
f 24//24 77//77 76//76
f 27//27 78//78 77//77
f 76//76 77//77 82//82
f 77//77 78//78 82//82
f 79//79 82//82 78//78
f 72//72 79//79 78//78
f 72//72 80//80 79//79
f 80//80 82//82 79//79
f 74//74 75//75 80//80
f 75//75 102//102 28//28
f 109//109 84//84 437//437
f 81//81 111//111 143//143
f 80//80 83//83 82//82
f 80//80 75//75 83//83
f 88//88 85//85 109//109
f 86//86 89//89 113//113
f 87//87 86//86 113//113
f 87//87 81//81 86//86
f 81//81 87//87 111//111
f 87//87 112//112 111//111
f 149//149 90//90 88//88
f 89//89 86//86 37//37
f 113//113 89//89 91//91
f 115//115 439//439 116//116
f 91//91 92//92 119//119
f 92//92 121//121 119//119
f 91//91 89//89 63//63
f 115//115 155//155 93//93
f 91//91 63//63 92//92
f 63//63 120//120 446//446
f 121//121 92//92 120//120
f 67//67 447//447 160//160
f 21//21 95//95 70//70
f 69//69 95//95 21//21
f 95//95 69//69 94//94
f 94//94 69//69 122//122
f 95//95 96//96 97//97
f 96//96 95//95 94//94
f 96//96 124//124 97//97
f 97//97 124//124 127//127
f 97//97 127//127 100//100
f 127//127 98//98 100//100
f 130//130 98//98 127//127
f 73//73 97//97 68//68
f 97//97 100//100 68//68
f 98//98 101//101 100//100
f 128//128 101//101 98//98
f 102//102 99//99 101//101
f 99//99 100//100 101//101
f 128//128 134//134 101//101
f 102//102 104//104 103//103
f 105//105 107//107 448//448
f 104//104 102//102 101//101
f 103//103 104//104 105//105
f 134//134 104//104 101//101
f 134//134 135//135 104//104
f 104//104 135//135 105//105
f 105//105 141//141 107//107
f 69//69 106//106 169//169
f 437//437 448//448 107//107
f 109//109 437//437 107//107
f 109//109 107//107 141//141
f 106//106 81//81 108//108
f 108//108 81//81 143//143
f 144//144 108//108 143//143
f 110//110 88//88 109//109
f 109//109 145//145 110//110
f 146//146 110//110 145//145
f 88//88 110//110 146//146
f 146//146 148//148 88//88
f 113//113 114//114 87//87
f 112//112 143//143 111//111
f 87//87 114//114 112//112
f 143//143 112//112 114//114
f 119//119 113//113 91//91
f 119//119 114//114 113//113
f 191//191 449//449 154//154
f 90//90 118//118 117//117
f 116//116 439//439 90//90
f 116//116 90//90 117//117
f 116//116 117//117 156//156
f 118//118 90//90 149//149
f 154//154 119//119 121//121
f 119//119 452//452 114//114
f 121//121 158//158 154//154
f 121//121 120//120 158//158
f 120//120 67//67 160//160
f 160//160 158//158 120//120
f 160//160 93//93 161//161
f 155//155 161//161 93//93
f 167//167 125//125 123//123
f 172//172 167//167 123//123
f 122//122 123//123 94//94
f 169//169 122//122 69//69
f 122//122 172//172 123//123
f 122//122 169//169 171//171
f 94//94 123//123 96//96
f 123//123 125//125 96//96
f 125//125 124//124 96//96
f 124//124 129//129 127//127
f 129//129 124//124 125//125
f 129//129 125//125 126//126
f 132//132 129//129 126//126
f 173//173 132//132 126//126
f 167//167 126//126 125//125
f 167//167 457//457 126//126
f 127//127 129//129 130//130
f 131//131 128//128 98//98
f 98//98 130//130 131//131
f 131//131 175//175 128//128
f 130//130 129//129 132//132
f 175//175 131//131 130//130
f 132//132 175//175 130//130
f 176//176 133//133 175//175
f 175//175 177//177 176//176
f 128//128 175//175 134//134
f 134//134 175//175 133//133
f 136//136 134//134 133//133
f 133//133 176//176 138//138
f 138//138 136//136 133//133
f 134//134 136//136 135//135
f 136//136 137//137 135//135
f 138//138 137//137 136//136
f 140//140 137//137 138//138
f 137//137 140//140 178//178
f 139//139 141//141 105//105
f 139//139 105//105 135//135
f 135//135 137//137 139//139
f 182//182 139//139 137//137
f 454//454 106//106 108//108
f 454//454 108//108 144//144
f 178//178 182//182 137//137
f 140//140 179//179 178//178
f 140//140 180//180 179//179
f 182//182 141//141 139//139
f 181//181 142//142 141//141
f 182//182 181//181 141//141
f 142//142 109//109 141//141
f 145//145 109//109 142//142
f 145//145 142//142 181//181
f 145//145 181//181 183//183
f 183//183 147//147 145//145
f 146//146 145//145 147//147
f 148//148 146//146 147//147
f 458//458 144//144 143//143
f 149//149 88//88 148//148
f 450//450 184//184 451//451
f 185//185 451//451 184//184
f 458//458 143//143 114//114
f 152//152 149//149 185//185
f 150//150 152//152 185//185
f 185//185 149//149 451//451
f 150//150 185//185 187//187
f 151//151 118//118 149//149
f 152//152 153//153 151//151
f 152//152 151//151 149//149
f 117//117 118//118 156//156
f 153//153 192//192 151//151
f 192//192 118//118 151//151
f 150//150 153//153 152//152
f 196//196 118//118 192//192
f 156//156 118//118 196//196
f 191//191 154//154 158//158
f 115//115 116//116 156//156
f 115//115 156//156 155//155
f 157//157 191//191 158//158
f 157//157 158//158 159//159
f 283//283 458//458 157//157
f 159//159 158//158 160//160
f 160//160 297//297 159//159
f 160//160 161//161 162//162
f 297//297 160//160 162//162
f 163//163 203//203 297//297
f 164//164 161//161 155//155
f 155//155 204//204 205//205
f 163//163 297//297 162//162
f 162//162 161//161 163//163
f 164//164 163//163 161//161
f 163//163 164//164 165//165
f 163//163 453//453 203//203
f 164//164 205//205 165//165
f 155//155 205//205 164//164
f 166//166 170//170 211//211
f 211//211 170//170 239//239
f 172//172 168//168 167//167
f 168//168 172//172 166//166
f 236//236 167//167 168//168
f 457//457 167//167 236//236
f 170//170 456//456 455//455
f 170//170 172//172 171//171
f 171//171 172//172 122//122
f 166//166 172//172 170//170
f 174//174 132//132 173//173
f 240//240 174//174 457//457
f 174//174 175//175 132//132
f 144//144 170//170 455//455
f 177//177 175//175 174//174
f 177//177 174//174 242//242
f 138//138 177//177 140//140
f 177//177 138//138 176//176
f 177//177 242//242 140//140
f 180//180 140//140 242//242
f 179//179 182//182 178//178
f 182//182 179//179 180//180
f 247//247 182//182 180//180
f 182//182 247//247 181//181
f 183//183 181//181 189//189
f 251//251 189//189 181//181
f 450//450 183//183 184//184
f 186//186 184//184 183//183
f 186//186 187//187 184//184
f 187//187 185//185 184//184
f 188//188 186//186 183//183
f 188//188 187//187 186//186
f 189//189 188//188 183//183
f 188//188 189//189 276//276
f 275//275 188//188 276//276
f 190//190 458//458 278//278
f 150//150 187//187 199//199
f 188//188 275//275 187//187
f 275//275 459//459 187//187
f 278//278 458//458 283//283
f 193//193 150//150 199//199
f 194//194 150//150 193//193
f 192//192 150//150 194//194
f 153//153 150//150 192//192
f 194//194 195//195 192//192
f 197//197 196//196 192//192
f 199//199 198//198 193//193
f 193//193 198//198 194//194
f 194//194 198//198 195//195
f 195//195 197//197 192//192
f 195//195 198//198 197//197
f 200//200 196//196 197//197
f 201//201 196//196 200//200
f 197//197 198//198 200//200
f 282//282 198//198 199//199
f 469//469 459//459 275//275
f 342//342 469//469 275//275
f 198//198 282//282 200//200
f 196//196 202//202 156//156
f 202//202 196//196 201//201
f 202//202 294//294 156//156
f 200//200 282//282 201//201
f 296//296 202//202 201//201
f 283//283 157//157 159//159
f 294//294 155//155 156//156
f 294//294 307//307 155//155
f 297//297 203//203 299//299
f 300//300 299//299 203//203
f 155//155 307//307 204//204
f 203//203 453//453 206//206
f 165//165 205//205 460//460
f 203//203 206//206 207//207
f 207//207 460//460 205//205
f 204//204 208//208 205//205
f 205//205 208//208 207//207
f 210//210 203//203 207//207
f 208//208 204//204 209//209
f 208//208 209//209 207//207
f 210//210 207//207 209//209
f 209//209 204//204 307//307
f 209//209 478//478 210//210
f 300//300 203//203 210//210
f 211//211 212//212 215//215
f 218//218 215//215 212//212
f 211//211 228//228 212//212
f 461//461 213//213 221//221
f 213//213 461//461 212//212
f 212//212 229//229 213//213
f 229//229 212//212 228//228
f 213//213 214//214 462//462
f 229//229 231//231 213//213
f 213//213 231//231 214//214
f 231//231 232//232 214//214
f 215//215 217//217 166//166
f 215//215 166//166 211//211
f 215//215 218//218 216//216
f 216//216 217//217 215//215
f 219//219 220//220 216//216
f 461//461 219//219 216//216
f 220//220 217//217 216//216
f 219//219 461//461 221//221
f 219//219 222//222 220//220
f 462//462 214//214 219//219
f 222//222 219//219 214//214
f 309//309 222//222 214//214
f 166//166 224//224 235//235
f 224//224 223//223 235//235
f 217//217 224//224 166//166
f 217//217 220//220 224//224
f 226//226 223//223 224//224
f 312//312 223//223 226//226
f 225//225 224//224 220//220
f 222//222 225//225 220//220
f 234//234 230//230 227//227
f 463//463 238//238 318//318
f 234//234 316//316 321//321
f 316//316 234//234 227//227
f 463//463 318//318 317//317
f 483//483 316//316 227//227
f 211//211 239//239 230//230
f 228//228 211//211 230//230
f 227//227 230//230 239//239
f 229//229 228//228 233//233
f 233//233 228//228 230//230
f 231//231 229//229 233//233
f 233//233 230//230 234//234
f 322//322 231//231 233//233
f 231//231 322//322 232//232
f 233//233 321//321 322//322
f 233//233 234//234 321//321
f 235//235 168//168 166//166
f 223//223 168//168 235//235
f 312//312 168//168 223//223
f 236//236 168//168 312//312
f 312//312 237//237 236//236
f 237//237 240//240 236//236
f 237//237 326//326 240//240
f 464//464 239//239 170//170
f 464//464 227//227 239//239
f 240//240 457//457 236//236
f 174//174 240//240 325//325
f 238//238 246//246 241//241
f 241//241 246//246 244//244
f 458//458 246//246 144//144
f 170//170 144//144 246//246
f 170//170 246//246 464//464
f 241//241 318//318 238//238
f 318//318 241//241 367//367
f 324//324 242//242 174//174
f 244//244 246//246 243//243
f 243//243 249//249 244//244
f 245//245 241//241 244//244
f 245//245 244//244 250//250
f 250//250 244//244 249//249
f 368//368 241//241 245//245
f 368//368 245//245 250//250
f 248//248 243//243 246//246
f 255//255 248//248 246//246
f 246//246 458//458 255//255
f 242//242 247//247 180//180
f 330//330 247//247 242//242
f 242//242 324//324 330//330
f 247//247 253//253 181//181
f 249//249 243//243 248//248
f 256//256 249//249 248//248
f 249//249 256//256 258//258
f 250//250 249//249 258//258
f 252//252 181//181 253//253
f 465//465 181//181 252//252
f 261//261 465//465 252//252
f 254//254 261//261 252//252
f 253//253 254//254 252//252
f 253//253 247//247 331//331
f 331//331 254//254 253//253
f 255//255 458//458 190//190
f 248//248 255//255 257//257
f 257//257 256//256 248//248
f 256//256 257//257 267//267
f 272//272 256//256 267//267
f 257//257 255//255 267//267
f 256//256 272//272 265//265
f 258//258 256//256 265//265
f 258//258 265//265 259//259
f 258//258 260//260 250//250
f 260//260 258//258 259//259
f 260//260 368//368 250//250
f 368//368 260//260 335//335
f 262//262 468//468 189//189
f 251//251 466//466 189//189
f 466//466 262//262 189//189
f 254//254 263//263 261//261
f 261//261 263//263 264//264
f 466//466 467//467 262//262
f 467//467 333//333 262//262
f 333//333 468//468 262//262
f 331//331 263//263 254//254
f 263//263 331//331 334//334
f 265//265 268//268 266//266
f 266//266 268//268 270//270
f 273//273 266//266 270//270
f 259//259 265//265 266//266
f 273//273 338//338 266//266
f 335//335 260//260 259//259
f 335//335 259//259 266//266
f 335//335 266//266 486//486
f 255//255 190//190 269//269
f 271//271 269//269 190//190
f 268//268 272//272 267//267
f 267//267 269//269 268//268
f 269//269 267//267 255//255
f 268//268 269//269 270//270
f 269//269 271//271 270//270
f 274//274 190//190 278//278
f 265//265 272//272 268//268
f 271//271 274//274 270//270
f 274//274 273//273 270//270
f 271//271 190//190 274//274
f 277//277 275//275 276//276
f 277//277 342//342 275//275
f 338//338 273//273 279//279
f 274//274 278//278 279//279
f 279//279 273//273 274//274
f 280//280 278//278 283//283
f 280//280 279//279 278//278
f 338//338 279//279 343//343
f 343//343 279//279 280//280
f 281//281 469//469 342//342
f 343//343 280//280 470//470
f 470//470 284//284 343//343
f 344//344 284//284 289//289
f 344//344 289//289 347//347
f 290//290 286//286 282//282
f 281//281 285//285 469//469
f 286//286 201//201 282//282
f 201//201 286//286 296//296
f 296//296 286//286 290//290
f 287//287 284//284 470//470
f 287//287 289//289 284//284
f 287//287 470//470 159//159
f 288//288 287//287 159//159
f 288//288 289//289 287//287
f 288//288 346//346 289//289
f 346//346 288//288 298//298
f 307//307 294//294 295//295
f 295//295 291//291 303//303
f 295//295 474//474 291//291
f 307//307 295//295 303//303
f 292//292 473//473 296//296
f 290//290 282//282 472//472
f 290//290 293//293 292//292
f 290//290 472//472 293//293
f 305//305 293//293 360//360
f 305//305 292//292 293//293
f 202//202 295//295 294//294
f 202//202 474//474 295//295
f 290//290 292//292 296//296
f 288//288 159//159 297//297
f 298//298 297//297 299//299
f 298//298 288//288 297//297
f 299//299 356//356 298//298
f 301//301 357//357 299//299
f 300//300 306//306 361//361
f 301//301 299//299 300//300
f 361//361 301//301 300//300
f 306//306 308//308 361//361
f 361//361 308//308 362//362
f 303//303 304//304 307//307
f 307//307 304//304 302//302
f 475//475 477//477 305//305
f 475//475 305//305 490//490
f 303//303 291//291 304//304
f 292//292 477//477 473//473
f 305//305 477//477 292//292
f 210//210 306//306 300//300
f 479//479 306//306 210//210
f 480//480 306//306 479//479
f 479//479 476//476 480//480
f 490//490 481//481 475//475
f 313//313 222//222 309//309
f 310//310 214//214 232//232
f 214//214 310//310 309//309
f 309//309 310//310 313//313
f 222//222 313//313 225//225
f 225//225 311//311 224//224
f 224//224 311//311 226//226
f 226//226 311//311 312//312
f 225//225 313//313 482//482
f 312//312 311//311 314//314
f 315//315 482//482 313//313
f 363//363 312//312 314//314
f 314//314 482//482 315//315
f 316//316 319//319 321//321
f 316//316 483//483 319//319
f 320//320 483//483 318//318
f 318//318 367//367 320//320
f 483//483 320//320 319//319
f 319//319 320//320 378//378
f 232//232 322//322 366//366
f 319//319 322//322 321//321
f 366//366 322//322 319//319
f 366//366 319//319 378//378
f 232//232 366//366 310//310
f 366//366 377//377 310//310
f 312//312 363//363 237//237
f 389//389 237//237 363//363
f 323//323 326//326 237//237
f 378//378 320//320 367//367
f 323//323 329//329 326//326
f 379//379 329//329 323//323
f 240//240 326//326 325//325
f 325//325 324//324 174//174
f 326//326 327//327 325//325
f 327//327 484//484 325//325
f 328//328 324//324 327//327
f 327//327 326//326 329//329
f 329//329 379//379 327//327
f 379//379 328//328 327//327
f 328//328 330//330 324//324
f 368//368 367//367 241//241
f 330//330 331//331 247//247
f 334//334 331//331 330//330
f 369//369 368//368 335//335
f 334//334 264//264 263//263
f 332//332 264//264 334//334
f 264//264 332//332 485//485
f 334//334 485//485 332//332
f 336//336 485//485 334//334
f 336//336 334//334 370//370
f 369//369 335//335 340//340
f 340//340 335//335 486//486
f 485//485 277//277 276//276
f 277//277 485//485 336//336
f 336//336 337//337 277//277
f 342//342 277//277 337//337
f 342//342 337//337 370//370
f 370//370 337//337 336//336
f 340//340 486//486 339//339
f 338//338 343//343 487//487
f 371//371 341//341 488//488
f 340//340 339//339 341//341
f 369//369 340//340 383//383
f 341//341 383//383 340//340
f 471//471 371//371 489//489
f 342//342 285//285 281//281
f 472//472 342//342 359//359
f 371//371 488//488 489//489
f 344//344 372//372 284//284
f 344//344 347//347 345//345
f 345//345 347//347 349//349
f 345//345 349//349 375//375
f 345//345 375//375 344//344
f 372//372 344//344 375//375
f 289//289 346//346 347//347
f 348//348 347//347 346//346
f 348//348 350//350 351//351
f 348//348 346//346 350//350
f 347//347 348//348 349//349
f 348//348 355//355 349//349
f 355//355 348//348 351//351
f 350//350 298//298 356//356
f 350//350 346//346 298//298
f 351//351 350//350 352//352
f 352//352 355//355 351//351
f 353//353 352//352 350//350
f 353//353 350//350 356//356
f 349//349 355//355 375//375
f 354//354 356//356 373//373
f 355//355 352//352 353//353
f 356//356 354//354 353//353
f 375//375 355//355 373//373
f 373//373 355//355 354//354
f 353//353 354//354 355//355
f 357//357 413//413 356//356
f 413//413 373//373 356//356
f 413//413 357//357 361//361
f 358//358 362//362 359//359
f 413//413 361//361 358//358
f 413//413 358//358 359//359
f 359//359 360//360 472//472
f 359//359 362//362 360//360
f 360//360 293//293 472//472
f 299//299 357//357 356//356
f 301//301 361//361 357//357
f 358//358 361//361 362//362
f 362//362 305//305 360//360
f 314//314 364//364 363//363
f 314//314 315//315 364//364
f 315//315 313//313 364//364
f 376//376 364//364 313//313
f 376//376 388//388 364//364
f 388//388 365//365 364//364
f 363//363 364//364 365//365
f 310//310 376//376 313//313
f 377//377 376//376 310//310
f 237//237 389//389 323//323
f 365//365 389//389 363//363
f 366//366 378//378 377//377
f 379//379 380//380 328//328
f 380//380 330//330 328//328
f 330//330 380//380 381//381
f 334//334 381//381 370//370
f 330//330 381//381 334//334
f 370//370 492//492 384//384
f 384//384 374//374 370//370
f 413//413 374//374 493//493
f 374//374 342//342 370//370
f 387//387 383//383 341//341
f 371//371 471//471 386//386
f 386//386 471//471 491//491
f 372//372 375//375 373//373
f 491//491 373//373 386//386
f 385//385 373//373 413//413
f 359//359 342//342 374//374
f 359//359 374//374 413//413
f 376//376 391//391 388//388
f 494//494 389//389 365//365
f 377//377 378//378 391//391
f 378//378 393//393 391//391
f 377//377 391//391 376//376
f 389//389 397//397 323//323
f 323//323 397//397 379//379
f 396//396 379//379 397//397
f 367//367 400//400 378//378
f 378//378 400//400 393//393
f 396//396 404//404 379//379
f 380//380 379//379 404//404
f 382//382 400//400 367//367
f 492//492 409//409 384//384
f 382//382 368//368 369//369
f 369//369 383//383 382//382
f 382//382 367//367 368//368
f 383//383 415//415 410//410
f 382//382 383//383 500//500
f 415//415 385//385 414//414
f 493//493 499//499 413//413
f 383//383 387//387 415//415
f 415//415 387//387 386//386
f 386//386 385//385 415//415
f 373//373 385//385 386//386
f 371//371 387//387 341//341
f 371//371 386//386 387//387
f 389//389 494//494 390//390
f 388//388 392//392 495//495
f 388//388 391//391 392//392
f 392//392 391//391 416//416
f 416//416 495//495 392//392
f 390//390 418//418 389//389
f 397//397 389//389 394//394
f 395//395 397//397 394//394
f 418//418 394//394 389//389
f 393//393 400//400 423//423
f 423//423 425//425 393//393
f 399//399 396//396 397//397
f 404//404 396//396 399//399
f 399//399 397//397 398//398
f 398//398 429//429 399//399
f 405//405 404//404 399//399
f 397//397 395//395 398//398
f 429//429 398//398 395//395
f 399//399 429//429 403//403
f 400//400 382//382 500//500
f 401//401 432//432 411//411
f 433//433 401//401 402//402
f 401//401 412//412 402//402
f 413//413 402//402 412//412
f 405//405 399//399 407//407
f 407//407 399//399 403//403
f 402//402 413//413 407//407
f 429//429 433//433 403//403
f 433//433 402//402 403//403
f 407//407 403//403 402//402
f 405//405 406//406 404//404
f 407//407 496//496 405//405
f 404//404 406//406 408//408
f 407//407 413//413 496//496
f 496//496 413//413 499//499
f 408//408 380//380 404//404
f 380//380 408//408 381//381
f 498//498 409//409 492//492
f 498//498 497//497 409//409
f 401//401 411//411 415//415
f 412//412 414//414 385//385
f 412//412 401//401 414//414
f 385//385 413//413 412//412
f 410//410 415//415 411//411
f 415//415 414//414 401//401
f 501//501 495//495 416//416
f 393//393 417//417 416//416
f 393//393 416//416 391//391
f 425//425 417//417 393//393
f 394//394 418//418 395//395
f 417//417 419//419 416//416
f 417//417 425//425 419//419
f 395//395 418//418 429//429
f 501//501 416//416 421//421
f 419//419 502//502 416//416
f 418//418 420//420 429//429
f 419//419 425//425 422//422
f 419//419 422//422 502//502
f 503//503 420//420 418//418
f 425//425 424//424 422//422
f 504//504 422//422 430//430
f 505//505 430//430 420//420
f 423//423 506//506 427//427
f 423//423 427//427 425//425
f 427//427 432//432 428//428
f 425//425 427//427 424//424
f 424//424 427//427 426//426
f 424//424 426//426 430//430
f 427//427 428//428 426//426
f 426//426 428//428 431//431
f 431//431 428//428 433//433
f 420//420 433//433 429//429
f 424//424 430//430 422//422
f 420//420 430//430 433//433
f 426//426 431//431 430//430
f 430//430 431//431 433//433
f 410//410 411//411 432//432
f 500//500 423//423 400//400
f 500//500 506//506 423//423
f 401//401 428//428 432//432
f 433//433 428//428 401//401
