# Wavafront OBJ file of BodyParts3D
# BodyParts3D, Copyright(C) 2010-2011 The Database Center for Life Science licensed under CC Attribution-Share Alike 2.1 Japan.
vn -0.990153 0.0884048 0.108541
v 220.063 -154.919 715.336
vn -0.458238 0.630671 0.626317
v 220.577 -153.89 715.072
vn -0.962486 -0.235905 0.134048
v 219.976 -156.015 713.499
vn -0.989856 0.14176 -0.00944954
v 219.979 -155.713 713.416
vn -0.912805 0.398329 -0.0901192
v 220.216 -154.59 714.335
vn -0.980848 0.185206 -0.0602949
v 219.822 -156.858 711.284
vn -0.855624 0.443874 -0.266238
v 220.016 -159.623 704.731
vn -0.951604 0.214618 -0.219974
v 218.412 -165.462 699.872
vn -0.731129 0.53017 -0.429384
v 218.93 -164.435 699.609
vn -0.714733 0.0134203 0.699268
v 220.52 -155.615 716.159
vn -0.884614 -0.408665 0.224612
v 220.334 -156.404 715.454
vn -0.730542 -0.523328 0.438674
v 220.746 -156.835 715.896
vn -0.730503 -0.670048 0.131913
v 220.751 -156.93 715.617
vn -0.536845 -0.805804 0.249956
v 221.222 -157.324 715.746
vn -0.338937 0.531386 0.77637
v 220.596 -154.706 715.721
vn -0.525401 0.538046 0.659136
v 220.786 -154.272 715.492
vn -0.0904341 0.819965 0.565224
v 221.031 -153.719 715.175
vn 0.229303 0.842688 0.487131
v 221.15 -153.537 714.805
vn 0.212067 0.574438 0.7906
v 221.447 -153.902 715.111
vn 0.124875 0.616365 0.777496
v 221.474 -154.188 715.304
vn -0.143663 0.601551 0.78581
v 223.651 -152.074 714.254
vn -0.647754 -0.748607 0.141429
v 220.918 -157.268 713.581
vn -0.784785 0.586761 -0.199562
v 221 -153.281 714.31
vn -0.231288 0.632775 0.738987
v 222.59 -152.035 714.03
vn -0.430488 0.851325 -0.299876
v 223.455 -151.486 712.692
vn -0.98785 -0.114242 0.105364
v 219.886 -157.541 711.259
vn -0.99604 0.0141468 0.0877713
v 219.685 -160.947 705.39
vn -0.405236 -0.697411 0.591102
v 219.66 -162.376 704.869
vn -0.939973 -0.156801 0.303092
v 219.81 -161.814 705.33
vn -0.423323 -0.673286 0.606205
v 220.3 -162.149 705.471
vn -0.584569 -0.582306 0.564976
v 219.653 -162.638 704.331
vn -0.46007 -0.649931 0.604918
v 219.917 -162.655 704.652
vn -0.952438 0.277183 -0.126617
v 219.719 -161.48 703.402
vn -0.984723 -0.00411888 0.174079
v 219.536 -162.554 703.998
vn -0.660926 0.589007 -0.465024
v 220.296 -160.507 703.018
vn 0.0374051 0.719022 -0.69398
v 222.84 -158.479 703.614
vn -0.984946 -0.0945778 0.144695
v 218.221 -166.614 701.406
vn -0.844264 -0.143668 0.516312
v 218.47 -166.895 701.799
vn -0.921753 -0.378212 0.0856026
v 218.406 -167.27 701.29
vn -0.218055 -0.848369 0.482412
v 218.684 -167.361 701.327
vn -0.0315964 -0.642838 0.765351
v 219.045 -167.026 701.859
vn -0.913399 0.401845 -0.0649846
v 219.123 -163.606 701.83
vn -0.950008 0.306732 0.0583173
v 218.473 -165.267 701.958
vn -0.896262 0.115895 0.428116
v 219.083 -164.035 702.558
vn -0.874214 -0.0433957 0.483598
v 219.202 -164.523 702.698
vn -0.728484 -0.000186793 0.685063
v 218.945 -165.322 702.472
vn -0.166855 -0.524742 0.834749
v 220.065 -165.719 702.455
vn -0.38708 0.7023 -0.597448
v 219.804 -163.239 700.535
vn -0.88925 -0.406103 -0.210511
v 218.478 -167.227 699.449
vn -0.864788 0.0934888 -0.493357
v 218.545 -167.022 699.089
vn -0.72811 -0.556161 -0.400676
v 218.786 -167.185 698.832
vn -0.476896 -0.877085 0.0573801
v 218.694 -167.659 700.494
vn -0.215043 -0.874617 -0.434514
v 218.948 -167.512 699.079
vn 0.00254844 -0.976643 0.214853
v 219.272 -167.783 700.552
vn -0.325514 0.586969 -0.741288
v 219.652 -164.906 698.548
vn -0.553369 0.18029 -0.81319
v 219.426 -165.622 698.315
vn -0.294647 0.692897 -0.658086
v 220.471 -163.778 699.49
vn -0.0493385 -0.584906 -0.809599
v 220.198 -166.896 698.512
vn -0.138023 -0.229664 -0.963433
v 219.877 -166.147 698.241
vn -0.533725 -0.460982 0.708967
v 221.817 -156.972 716.894
vn -0.130359 0.379329 0.916033
v 222.425 -155.99 717.343
vn -0.326398 -0.853057 0.407133
v 222.286 -157.584 716.473
vn -0.234201 -0.119838 0.964774
v 222.931 -157.216 717.313
vn 0.214704 0.76077 0.61248
v 224.88 -155.198 715.4
vn -0.00995558 0.998737 0.0492579
v 225.287 -151.212 713.821
vn 0.158736 0.915978 -0.368493
v 226.395 -151.408 712.181
vn -0.214983 -0.726527 0.652642
v 221.933 -162.998 705.136
vn 0.063127 -0.784562 0.616828
v 221.995 -166.924 701.342
vn 0.0349392 -0.840859 -0.540126
v 220.628 -167.281 698.942
vn -0.00015623 -0.967939 -0.251184
v 221.059 -167.557 699.647
vn -0.000270486 -0.955973 0.293455
v 221.607 -167.541 700.276
vn 0.00444801 0.731272 -0.682072
v 222.674 -162.983 699.666
vn -0.0842944 0.653062 -0.752598
v 222.807 -164.074 698.448
vn -0.0710103 -0.720823 -0.689472
v 222.073 -166.972 698.441
vn -0.0969529 0.294536 -0.95071
v 223.853 -164.906 697.846
vn 0.0384115 -0.0271407 0.998893
v 224.145 -157.312 717.407
vn -0.0351831 -0.87219 0.487901
v 224.251 -157.807 716.921
vn 0.201293 0.195423 0.959839
v 224.732 -156.582 717.358
vn 0.232549 0.64452 0.728364
v 224.841 -156.337 717.214
vn 0.0889358 -0.762681 0.640631
v 226.02 -157.507 717.033
vn 0.36575 0.278063 0.888205
v 226.93 -152.008 713.286
vn 0.513727 0.843967 -0.154288
v 227.736 -151.867 712.669
vn 0.538266 0.622631 -0.567979
v 227.715 -152.351 711.581
vn 0.717464 0.37088 -0.589655
v 228.672 -153.097 711.828
vn -0.17742 -0.955829 0.234337
v 224.991 -159.406 710.678
vn 0.777938 0.212841 -0.591194
v 227.813 -155.326 709.968
vn 0.559639 -0.772359 0.300444
v 226.065 -160.376 706.106
vn 0.71445 0.409378 -0.567424
v 225.98 -160.488 704.301
vn 0.0473526 -0.69063 0.721656
v 224.122 -167.004 701.452
vn 0.29248 -0.415665 0.861207
v 224.471 -166.071 701.819
vn 0.338193 -0.745621 0.574173
v 225.697 -164.011 701.603
vn -0.00522071 -0.999979 0.0037865
v 224.763 -167.816 699.567
vn 0.093643 -0.986039 0.137688
v 225.05 -167.774 699.872
vn 0.303036 0.720175 -0.624113
v 224.809 -163.125 700.099
vn 0.369793 0.697945 -0.613291
v 224.673 -164.114 698.536
vn 0.866129 0.393479 -0.308212
v 225.569 -164.485 699.592
vn 0.0120442 -0.504856 -0.863119
v 224.873 -167.178 698.19
vn -0.00841244 -0.952623 -0.304037
v 225.561 -167.661 698.641
vn 0.184014 0.4273 -0.885185
v 224.506 -164.836 697.867
vn 0.0169748 0.0792372 -0.996711
v 224.306 -165.444 697.728
vn 0.694075 0.346325 -0.631125
v 225.08 -164.881 698.155
vn 0.356144 0.105072 -0.928505
v 224.854 -165.645 697.797
vn 0.0434474 -0.191224 -0.980584
v 224.649 -166.221 697.771
vn 0.732141 0.0589674 -0.678596
v 225.122 -165.706 697.973
vn 0.389788 -0.180366 -0.903069
v 224.922 -166.314 697.832
vn 0.36837 -0.671417 0.643042
v 227.931 -157.844 716.168
vn 0.369762 0.461953 0.806149
v 227.004 -156.721 716.555
vn 0.434548 -0.0642451 0.898355
v 227.85 -157.437 716.357
vn 0.588712 0.319061 0.74271
v 228.121 -157.266 716.18
vn 0.653222 -0.250952 0.71437
v 228.174 -157.629 716.118
vn 0.439161 -0.857179 0.269038
v 228.253 -158.32 714.786
vn 0.542798 -0.834023 -0.0988727
v 228.372 -158.345 713.882
vn 0.672187 -0.57732 0.463537
v 228.314 -157.754 715.853
vn 0.8409 -0.182617 0.509449
v 229.023 -157.248 715.131
vn 0.684521 -0.724102 0.0842986
v 229.467 -157.402 713.971
vn 0.391162 0.530143 0.75229
v 228.71 -154.931 713.547
vn 0.885105 0.275945 0.374758
v 229.495 -154.767 712.879
vn 0.488775 0.37235 0.788958
v 228.926 -152.954 712.714
vn 0.766252 0.595384 -0.241612
v 228.953 -152.964 712.413
vn 0.575431 -0.788739 -0.216265
v 229.644 -156.852 712.604
vn 0.80034 0.0711339 -0.595312
v 229.62 -155.543 712.24
vn 0.793477 0.269738 -0.545559
v 229.282 -153.818 712.358
vn 0.860912 -0.0118199 -0.508617
v 228.112 -157.5 710.278
vn 0.137632 -0.888876 0.436987
v 225.35 -167.485 700.72
vn 0.931787 -0.0310337 0.361678
v 225.842 -167.169 700.958
vn 0.307143 -0.900333 0.308323
v 225.716 -167.461 700.424
vn 0.94996 0.219609 -0.222146
v 226.226 -166.923 699.99
vn 0.918984 0.0351413 -0.392725
v 226.03 -167.004 699.379
vn 0.116878 -0.992234 -0.0425668
v 225.531 -167.678 698.949
vn -0.608584 0.467434 0.641194
v 220.063 -154.919 715.336
vn -0.876304 0.480977 -0.0274228
v 220.577 -153.89 715.072
vn 0.218508 0.443264 0.869351
v 220.786 -154.272 715.492
vn 0.298622 0.371272 0.879194
v 221.031 -153.719 715.175
vn -0.318693 0.657704 0.682539
v 221.15 -153.537 714.805
vn 0.411389 0.759198 0.504358
v 221.447 -153.902 715.111
vn -0.149569 0.562519 0.813143
v 221.447 -153.902 715.111
vn 0.258069 0.169721 0.951102
v 221.447 -153.902 715.111
vn 0.282595 0.0266068 0.95887
v 223.651 -152.074 714.254
vn -0.187027 0.873704 0.449068
v 221 -153.281 714.31
vn -0.471373 0.716921 0.513645
v 221 -153.281 714.31
vn -0.461033 0.885008 0.0648756
v 222.59 -152.035 714.03
vn -0.746673 -0.535451 0.394678
v 219.886 -157.541 711.259
vn -0.353442 -0.795083 0.49287
v 219.886 -157.541 711.259
vn -0.936753 -0.205019 0.283657
v 219.66 -162.376 704.869
vn -0.559208 -0.562136 0.609335
v 219.81 -161.814 705.33
vn -0.934813 -0.232138 0.26877
v 219.653 -162.638 704.331
vn -0.251192 -0.628972 0.735728
v 218.47 -166.895 701.799
vn -0.331341 -0.825868 0.45624
v 218.406 -167.27 701.29
vn -0.781905 -0.0263282 0.622842
v 218.473 -165.267 701.958
vn -0.491797 -0.499858 0.712936
v 219.202 -164.523 702.698
vn -0.0734761 -0.249356 0.965621
v 219.202 -164.523 702.698
vn -0.118458 -0.311956 0.942683
v 218.945 -165.322 702.472
vn -0.787441 0.561001 -0.255373
v 219.804 -163.239 700.535
vn -0.771136 -0.481108 -0.416995
v 218.545 -167.022 699.089
vn -0.331809 -0.299118 -0.894668
v 218.786 -167.185 698.832
vn -0.236805 -0.752908 0.614047
v 222.931 -157.216 717.313
vn -0.136238 0.638794 0.757219
v 225.287 -151.212 713.821
vn 0.283791 -0.0575486 0.957158
v 225.287 -151.212 713.821
vn 0.474836 0.487999 0.732385
v 225.287 -151.212 713.821
vn 0.406673 -0.802589 0.436426
v 221.933 -162.998 705.136
vn 0.613051 -0.287773 0.735768
v 221.933 -162.998 705.136
vn -0.019233 -0.702316 0.711605
v 224.145 -157.312 717.407
vn 0.306977 -0.0353157 0.951061
v 226.02 -157.507 717.033
vn 0.465313 0.508393 0.724583
v 227.736 -151.867 712.669
vn 0.533821 -0.84473 0.038293
v 224.991 -159.406 710.678
vn 0.997955 -0.046231 -0.0441375
v 226.065 -160.376 706.106
vn 0.816654 -0.577121 -0.0028613
v 225.98 -160.488 704.301
vn 0.970146 0.0935632 -0.223747
v 225.98 -160.488 704.301
vn 0.950741 0.245873 -0.18878
v 225.697 -164.011 701.603
vn 0.525522 -0.226876 0.819972
v 225.697 -164.011 701.603
vn 0.931787 -0.0310337 0.361678
v 225.697 -164.011 701.603
vn 0.587866 -0.80838 -0.0305939
v 225.05 -167.774 699.872
vn 0.82948 0.447111 -0.334745
v 224.809 -163.125 700.099
vn 0.307293 -0.378049 -0.873298
v 225.561 -167.661 698.641
vn 0.865035 -0.311631 -0.393192
v 225.561 -167.661 698.641
vn 0.965247 0.0912799 0.24488
v 229.467 -157.402 713.971
vn 0.870938 0.481438 0.0984067
v 228.926 -152.954 712.714
vn 0.844456 -0.129515 -0.519731
v 229.644 -156.852 712.604
vn 0.989 0.052179 0.138405
v 229.644 -156.852 712.604
vn 0.991249 0.12511 0.0421153
v 229.62 -155.543 712.24
vn 0.954901 0.288637 0.0696654
v 229.282 -153.818 712.358
vn 0.637264 -0.76779 0.0662793
v 228.112 -157.5 710.278
vn 0.302808 -0.576597 0.758843
v 225.842 -167.169 700.958
vn 0.775436 -0.612804 0.152219
v 225.842 -167.169 700.958
vn 0.699922 -0.711741 -0.0594479
v 225.716 -167.461 700.424
vn 0.931787 -0.0310337 0.361678
v 226.226 -166.923 699.99
vn 0.734901 -0.677748 -0.0240469
v 226.226 -166.923 699.99
vn 0.641576 -0.757483 0.120827
v 225.531 -167.678 698.949
f 3//3 1//1 4//4
f 1//1 5//5 4//4
f 3//3 11//11 1//1
f 130//130 16//16 2//2
f 1//1 131//131 5//5
f 131//131 23//23 5//5
f 3//3 4//4 6//6
f 26//26 3//3 6//6
f 6//6 4//4 5//5
f 5//5 23//23 6//6
f 6//6 23//23 7//7
f 27//27 26//26 6//6
f 6//6 7//7 27//27
f 27//27 7//7 33//33
f 7//7 35//35 33//33
f 37//37 43//43 8//8
f 43//43 42//42 8//8
f 42//42 9//9 8//8
f 48//48 55//55 9//9
f 8//8 9//9 56//56
f 9//9 55//55 56//56
f 50//50 8//8 56//56
f 10//10 61//61 15//15
f 1//1 11//11 10//10
f 15//15 61//61 20//20
f 10//10 11//11 12//12
f 61//61 10//10 60//60
f 12//12 11//11 13//13
f 60//60 10//10 12//12
f 14//14 12//12 13//13
f 14//14 60//60 12//12
f 60//60 14//14 62//62
f 15//15 130//130 10//10
f 17//17 2//2 16//16
f 17//17 139//139 2//2
f 18//18 139//139 17//17
f 24//24 140//140 134//134
f 15//15 16//16 130//130
f 19//19 133//133 132//132
f 135//135 18//18 17//17
f 134//134 136//136 24//24
f 132//132 15//15 20//20
f 20//20 19//19 132//132
f 64//64 20//20 61//61
f 136//136 21//21 24//24
f 3//3 142//142 22//22
f 22//22 11//11 3//3
f 11//11 22//22 13//13
f 14//14 13//13 22//22
f 14//14 22//22 85//85
f 141//141 25//25 23//23
f 25//25 141//141 65//65
f 65//65 66//66 25//25
f 36//36 25//25 66//66
f 23//23 25//25 7//7
f 32//32 28//28 31//31
f 29//29 26//26 27//27
f 27//27 33//33 34//34
f 144//144 29//29 27//27
f 27//27 34//34 144//144
f 145//145 28//28 30//30
f 30//30 143//143 145//145
f 67//67 30//30 28//28
f 67//67 28//28 32//32
f 30//30 67//67 143//143
f 7//7 25//25 35//35
f 25//25 36//36 35//35
f 34//34 146//146 144//144
f 45//45 146//146 34//34
f 44//44 45//45 34//34
f 32//32 31//31 47//47
f 47//47 31//31 150//150
f 32//32 47//47 67//67
f 42//42 34//34 33//33
f 42//42 33//33 35//35
f 57//57 35//35 36//36
f 38//38 149//149 37//37
f 37//37 39//39 38//38
f 44//44 149//149 46//46
f 149//149 38//38 46//46
f 49//49 39//39 37//37
f 37//37 8//8 49//49
f 147//147 148//148 40//40
f 40//40 148//148 52//52
f 47//47 152//152 41//41
f 152//152 147//147 41//41
f 41//41 147//147 40//40
f 54//54 41//41 40//40
f 54//54 68//68 41//41
f 68//68 47//47 41//41
f 34//34 42//42 44//44
f 44//44 42//42 43//43
f 153//153 9//9 42//42
f 44//44 46//46 45//45
f 151//151 152//152 47//47
f 153//153 42//42 35//35
f 48//48 35//35 57//57
f 57//57 36//36 72//72
f 8//8 50//50 49//49
f 49//49 154//154 51//51
f 52//52 39//39 49//49
f 53//53 52//52 49//49
f 49//49 51//51 53//53
f 40//40 52//52 54//54
f 53//53 54//54 52//52
f 53//53 70//70 54//54
f 155//155 58//58 53//53
f 69//69 70//70 53//53
f 58//58 69//69 53//53
f 155//155 50//50 56//56
f 155//155 56//56 59//59
f 59//59 56//56 75//75
f 56//56 55//55 75//75
f 55//55 48//48 57//57
f 55//55 57//57 73//73
f 61//61 60//60 63//63
f 60//60 62//62 156//156
f 64//64 61//61 79//79
f 156//156 62//62 77//77
f 76//76 61//61 63//63
f 162//162 156//156 77//77
f 64//64 19//19 20//20
f 81//81 138//138 137//137
f 24//24 21//21 157//157
f 62//62 14//14 85//85
f 85//85 77//77 62//62
f 116//116 19//19 64//64
f 81//81 158//158 138//138
f 66//66 65//65 82//82
f 164//164 159//159 81//81
f 85//85 22//22 143//143
f 85//85 143//143 67//67
f 66//66 83//83 36//36
f 36//36 88//88 94//94
f 94//94 72//72 36//36
f 74//74 69//69 58//58
f 71//71 54//54 70//70
f 68//68 54//54 71//71
f 70//70 69//69 74//74
f 57//57 72//72 73//73
f 55//55 73//73 75//75
f 73//73 72//72 95//95
f 74//74 58//58 59//59
f 58//58 155//155 59//59
f 59//59 103//103 97//97
f 103//103 59//59 100//100
f 100//100 59//59 75//75
f 76//76 78//78 61//61
f 61//61 78//78 79//79
f 77//77 80//80 162//162
f 76//76 163//163 78//78
f 77//77 106//106 80//80
f 107//107 79//79 78//78
f 163//163 107//107 78//78
f 64//64 79//79 107//107
f 64//64 107//107 116//116
f 116//116 107//107 109//109
f 111//111 77//77 85//85
f 82//82 83//83 66//66
f 119//119 83//83 82//82
f 137//137 116//116 81//81
f 81//81 118//118 164//164
f 82//82 177//177 119//119
f 116//116 118//118 81//81
f 83//83 119//119 84//84
f 122//122 84//84 119//119
f 165//165 160//160 87//87
f 88//88 86//86 123//123
f 86//86 88//88 83//83
f 87//87 167//167 182//182
f 88//88 36//36 83//83
f 87//87 160//160 91//91
f 166//166 169//169 168//168
f 68//68 89//89 47//47
f 90//90 67//67 47//47
f 47//47 89//89 90//90
f 90//90 170//170 161//161
f 96//96 173//173 169//169
f 169//169 127//127 96//96
f 186//186 171//171 125//125
f 169//169 173//173 168//168
f 68//68 71//71 89//89
f 71//71 70//70 92//92
f 98//98 70//70 74//74
f 70//70 98//98 92//92
f 89//89 71//71 124//124
f 98//98 93//93 92//92
f 93//93 124//124 71//71
f 92//92 93//93 71//71
f 98//98 129//129 93//93
f 95//95 72//72 94//94
f 99//99 75//75 73//73
f 95//95 99//99 73//73
f 96//96 95//95 173//173
f 101//101 95//95 96//96
f 95//95 101//101 99//99
f 96//96 128//128 101//101
f 74//74 59//59 97//97
f 97//97 103//103 105//105
f 97//97 98//98 74//74
f 105//105 174//174 97//97
f 175//175 105//105 104//104
f 104//104 128//128 175//175
f 99//99 100//100 75//75
f 100//100 102//102 103//103
f 102//102 100//100 99//99
f 101//101 102//102 99//99
f 102//102 104//104 105//105
f 101//101 104//104 102//102
f 105//105 103//103 102//102
f 104//104 101//101 128//128
f 108//108 107//107 163//163
f 106//106 108//108 163//163
f 110//110 108//108 106//106
f 111//111 113//113 106//106
f 110//110 106//106 113//113
f 108//108 109//109 107//107
f 109//109 108//108 110//110
f 114//114 109//109 110//110
f 114//114 110//110 113//113
f 111//111 106//106 77//77
f 109//109 117//117 116//116
f 114//114 117//117 109//109
f 113//113 111//111 114//114
f 114//114 111//111 115//115
f 115//115 111//111 112//112
f 114//114 176//176 117//117
f 117//117 118//118 116//116
f 119//119 177//177 181//181
f 177//177 117//117 181//181
f 165//165 182//182 120//120
f 121//121 178//178 123//123
f 165//165 120//120 112//112
f 179//179 180//180 117//117
f 111//111 85//85 112//112
f 179//179 117//117 176//176
f 120//120 115//115 112//112
f 84//84 86//86 83//83
f 122//122 121//121 84//84
f 121//121 86//86 84//84
f 117//117 180//180 181//181
f 86//86 121//121 123//123
f 87//87 182//182 165//165
f 89//89 183//183 90//90
f 90//90 183//183 170//170
f 124//124 183//183 89//89
f 124//124 93//93 126//126
f 128//128 96//96 127//127
f 126//126 183//183 124//124
f 184//184 185//185 187//187
f 185//185 172//172 187//187
f 188//188 187//187 172//172
f 187//187 188//188 175//175
f 128//128 187//187 175//175
