# Wavafront OBJ file of BodyParts3D
# BodyParts3D, Copyright(C) 2010-2011 The Database Center for Life Science licensed under CC Attribution-Share Alike 2.1 Japan.
vn -0.913166 -0.152542 -0.377966
v 62.5406 -104.444 412.578
vn -0.574217 -0.649562 -0.498342
v 63.0816 -108.149 413.842
vn -0.999427 0.00279026 0.0337233
v 62.0207 -107.282 418.046
vn -0.93022 -0.363252 0.0523309
v 62.2084 -109.216 419.709
vn -0.975507 -0.144566 -0.165794
v 62.291 -108.974 416.618
vn -0.592823 -0.796318 -0.120165
v 63.0602 -110.066 418.826
vn -0.410412 -0.859023 -0.306009
v 63.0935 -109.434 416.394
vn -0.975955 0.0184567 0.217189
v 62.2309 -108.665 420.364
vn -0.842497 0.412566 0.346394
v 62.787 -107.55 421.554
vn -0.870861 -0.0270128 0.490786
v 63.2345 -108.878 423.202
vn -0.939198 -0.171368 0.297558
v 62.6007 -109.349 421.461
vn -0.802948 -0.582118 0.128115
v 62.8154 -109.942 421.365
vn -0.797988 -0.494549 0.344437
v 63.2351 -110.027 422.496
vn -0.599877 -0.796619 0.0744735
v 63.7486 -110.812 421.698
vn -0.604099 -0.738293 0.29998
v 64.7457 -111.228 423.286
vn -0.371863 -0.917091 -0.143746
v 64.9222 -111.426 421.376
vn -0.430157 -0.895823 0.111651
v 65.3332 -111.624 423.118
vn -0.723466 0.136952 0.67664
v 65.5928 -107.261 425.861
vn -0.696316 -0.37527 0.611815
v 64.5674 -110.184 424.643
vn -0.462921 -0.744056 0.481751
v 66.4771 -111.431 425.405
vn -0.606212 -0.184028 0.773719
v 67.2914 -109.754 427.126
vn -0.747624 0.425758 -0.509694
v 65.2896 -101.074 408.244
vn -0.682027 0.697892 0.2186
v 64.8575 -101.311 411.654
vn -0.718163 -0.291951 -0.63167
v 63.9764 -104.861 410.355
vn -0.573653 0.748016 0.333757
v 70.5704 -101.588 428.214
vn -0.322854 -0.912779 0.250198
v 67.5015 -112.365 424.406
vn -0.41394 -0.473032 0.777749
v 68.171 -110.378 427.505
vn -0.65917 0.220166 0.719042
v 70.2726 -102.64 428.822
vn -0.521013 -0.0777171 0.850003
v 69.095 -108.055 428.686
vn -0.574903 -0.0903851 -0.813214
v 69.8796 -102.51 403.976
vn -0.418799 0.512528 -0.749615
v 70.4712 -101.304 404.006
vn -0.392991 0.632781 -0.667193
v 70.5352 -97.353 407.372
vn -0.551727 0.744177 0.37656
v 69.6369 -97.4194 411.446
vn -0.562725 0.826644 0.000566449
v 70.3843 -95.9659 409.527
vn -0.574958 0.767485 0.283532
v 70.2996 -99.7405 416.676
vn -0.277046 -0.890232 -0.361569
v 71.7066 -112.344 416.004
vn -0.245827 -0.84822 0.469139
v 72.9993 -112.939 426.779
vn -0.280105 0.919451 0.275955
v 75.6039 -100.109 431.47
vn -0.437362 -0.314237 0.842597
v 73.127 -106.972 430.646
vn -0.155859 0.93021 0.332292
v 77.045 -100.064 432.371
vn -0.456643 0.688971 0.562846
v 75.8802 -100.525 432.61
vn -0.526813 -0.258737 0.809644
v 77.3005 -104.227 434.466
vn -0.232853 0.783611 0.575963
v 77.3096 -100.537 433.454
vn -0.451737 0.408738 0.793011
v 77.6447 -101.839 434.746
vn -0.514412 -0.0415143 0.856538
v 77.7351 -103.061 434.996
vn -0.438808 -0.194814 -0.877209
v 73.2382 -103.564 402.402
vn -0.320843 0.88546 -0.336185
v 73.1599 -94.8044 408.345
vn -0.437383 -0.560406 -0.703307
v 71.7711 -104.895 403.891
vn -0.277462 0.948633 0.15202
v 72.8492 -94.8835 409.648
vn -0.227651 0.933336 0.277593
v 76.1867 -97.8205 421.001
vn 0.199156 0.958034 0.206172
v 78.6614 -97.9436 421.028
vn -0.21569 -0.97387 -0.0711025
v 76.5998 -115.153 420.821
vn 0.0513213 0.979916 0.192693
v 78.144 -98.8373 426.644
vn 0.420096 0.901428 0.104628
v 80.4836 -99.1405 426.071
vn -0.235639 -0.697148 0.677096
v 81.2059 -112.299 430.335
vn 0.0334635 0.93101 0.363455
v 78.4883 -100.281 433.252
vn -0.285133 0.198712 0.937663
v 79.0958 -102.496 435.61
vn -0.0305724 0.740485 0.671377
v 79.5136 -101.234 434.9
vn -0.35457 -0.284532 0.890686
v 80.446 -104.911 435.843
vn 0.283126 0.920329 0.269876
v 80.9658 -100.759 433.251
vn -0.377731 -0.523656 0.763612
v 78.786 -107.168 433.753
vn -0.17091 -0.0627222 0.983288
v 82.0492 -104.342 436.432
vn 0.0117973 0.409074 0.912425
v 82.3529 -103.125 436.294
vn 0.307788 0.742981 0.594344
v 83.4155 -102.543 435.63
vn -0.434848 -0.0534146 -0.898918
v 79.2032 -102.052 399.078
vn -0.256397 -0.700103 -0.66642
v 79.7542 -105.983 401.001
vn -0.34566 -0.485673 -0.802895
v 80.0205 -104.499 399.666
vn -0.248546 0.569401 -0.783586
v 78.4137 -94.2115 407.156
vn -0.255973 -0.80832 -0.530186
v 77.6721 -108.513 405.006
vn -0.0342369 0.998734 0.0368475
v 78.1 -93.9136 408.489
vn -0.0725207 -0.91024 -0.407682
v 79.2309 -110.892 408.785
vn 0.504232 0.833513 0.225844
v 81.281 -99.1206 421.56
vn 0.00249916 -0.98757 -0.15716
v 84.4377 -116.086 422.617
vn -0.113537 -0.961576 0.249963
v 83.8143 -115.995 425.242
vn -0.197764 -0.430008 0.880899
v 85.5406 -107.311 436.279
vn 0.128566 0.175431 0.976061
v 87.4566 -106.125 436.702
vn 0.0249928 -0.266864 0.96341
v 88.0655 -107.311 436.536
vn 0.404525 0.601419 0.688952
v 88.578 -106.079 436.229
vn -0.36606 0.35033 -0.86213
v 82.0059 -101.341 397.962
vn -0.319334 -0.0321328 -0.947097
v 81.9958 -101.934 397.852
vn -0.278567 0.635256 -0.720313
v 82.6302 -100.742 398.064
vn -0.176823 0.286228 -0.941704
v 83.7264 -101.284 397.418
vn -0.103631 0.866997 -0.487419
v 84.6859 -99.298 399.115
vn -0.311586 -0.36926 -0.875535
v 82.0888 -103.158 398.114
vn -0.153135 -0.65948 -0.735959
v 83.5441 -105.01 398.861
vn -0.0890969 0.833578 -0.54517
v 84.7468 -98.0355 402.165
vn -0.0712122 -0.829365 -0.55415
v 81.9284 -107.444 402.233
vn 0.321353 0.942872 0.0878868
v 83.6384 -94.7522 408.36
vn 0.0765569 -0.88609 -0.457147
v 85.959 -109.591 406.067
vn 0.455791 0.875719 0.159283
v 86.262 -103.292 421.308
vn 0.432659 0.900661 0.0401892
v 88.2155 -103.842 426.987
vn 0.0900679 -0.878036 0.470043
v 91.464 -115.281 429.062
vn -0.040227 -0.542551 0.839059
v 89.7255 -109.675 435.459
vn 0.266262 -0.0551532 0.962321
v 91.0318 -107.845 435.982
vn 0.413668 0.862402 0.29179
v 91.7653 -106.653 433.974
vn -0.028809 -0.725933 0.687162
v 91.3172 -111.313 434.171
vn 0.153352 -0.528997 0.834653
v 92.0233 -110.74 434.621
vn 0.236507 -0.685221 0.688866
v 92.5232 -111.248 434.064
vn -0.0159779 0.651693 -0.758315
v 85.0582 -100.114 397.976
vn 0.191429 0.317044 -0.928891
v 86.758 -101.845 397.199
vn 0.276743 0.776045 -0.566717
v 87.7474 -99.733 398.981
vn 0.481144 0.343758 -0.806431
v 89.6397 -100.762 399.052
vn -0.0644037 -0.310574 -0.948365
v 85.5554 -103.053 397.133
vn 0.089171 -0.741127 -0.665417
v 87.2282 -104.976 398.807
vn 0.459389 -0.213601 -0.86217
v 88.7777 -103.074 397.736
vn 0.197265 0.910693 -0.362939
v 86.6144 -96.7539 405.036
vn 0.33371 -0.735137 -0.590094
v 90.2345 -106.152 400.998
vn 0.461864 0.861179 -0.212254
v 91.1293 -98.6675 405.684
vn 0.237883 0.900276 0.364575
v 93.1838 -104.32 416.514
vn 0.256289 -0.937342 -0.236021
v 93.9142 -115.015 421.09
vn 0.186283 -0.979513 0.0765042
v 92.6745 -115.721 426.272
vn 0.481006 -0.871303 0.0972854
v 95.5874 -114.654 425.669
vn 0.457503 -0.714527 0.529284
v 95.4953 -112.766 430.778
vn 0.427457 -0.855441 0.292406
v 94.2454 -114.842 427.824
vn 0.474271 0.406499 0.780914
v 93.8634 -108.336 434.854
vn 0.357317 -0.340682 0.869632
v 94.4465 -109.514 434.58
vn 0.535738 0.573428 0.619811
v 94.9001 -108.263 434.022
vn 0.627712 -0.202151 0.75174
v 95.5422 -109.459 433.998
vn 0.417779 -0.582104 0.697578
v 94.935 -110.064 433.969
vn 0.500215 0.837333 -0.220587
v 96.2217 -101.358 407.373
vn 0.381622 0.911777 0.151746
v 96.0592 -101.256 408.037
vn 0.304538 -0.859564 -0.410373
v 95.5844 -112.175 415.352
vn 0.100461 0.965973 0.238335
v 96.7656 -106.349 421.08
vn 0.20126 0.97195 0.121685
v 97.4159 -107.128 426.43
vn 0.369816 0.86431 0.340888
v 100.401 -107.76 428.153
vn 0.599952 0.641486 0.478073
v 101.44 -108.319 427.699
vn 0.688987 -0.630211 0.357955
v 100.8 -110.106 427.395
vn 0.25646 0.955124 0.148209
v 97.5049 -101.782 408.894
vn 0.412067 0.910742 0.0273814
v 100.534 -102.933 411.185
vn 0.628052 0.678244 -0.381491
v 99.0417 -103.725 407.149
vn 0.707835 -0.290478 -0.643888
v 99.4346 -104.96 407.58
vn 0.662842 -0.595387 -0.454043
v 101.497 -107.73 412.447
vn 0.212057 0.942302 0.259033
v 101.947 -104.127 414.47
vn 0.699184 0.665476 -0.261309
v 102.925 -104.749 412.957
vn 0.563081 0.818112 0.116762
v 103.427 -104.88 414.683
vn 0.95325 -0.186071 -0.238103
v 103.61 -106.119 415.164
vn 0.558276 -0.786306 -0.264673
v 101.647 -110.303 417.778
vn 0.840751 -0.521214 -0.146541
v 103.273 -108.809 418.746
vn 0.270933 0.91805 0.289447
v 101.54 -106.613 423.028
vn 0.577567 0.726811 0.371702
v 102.427 -107.372 423.38
vn 0.513867 0.79699 0.317408
v 102.881 -106.294 420.884
vn 0.977256 -0.170323 0.126335
v 103.815 -107.144 420.6
vn 0.654585 -0.755872 0.0132441
v 101.885 -110.734 421.398
vn 0.892691 -0.367986 0.260172
v 102.337 -109.767 423.219
vn 0.863686 -0.497031 0.0837088
v 102.83 -109.611 421.261
vn -0.786486 0.610044 0.0963662
v 62.5406 -104.444 412.578
vn -0.658621 0.695622 0.286929
v 62.0207 -107.282 418.046
vn -0.612072 -0.757714 -0.226359
v 62.291 -108.974 416.618
vn 0.0574894 0.953741 -0.295083
v 78.4137 -94.2115 407.156
vn 0.518786 0.768585 -0.37435
v 89.6397 -100.762 399.052
vn 0.884879 -0.266806 0.381842
v 101.44 -108.319 427.699
vn 0.734679 0.0646437 -0.675328
v 99.0417 -103.725 407.149
vn 0.879143 -0.130338 -0.458389
v 102.925 -104.749 412.957
vn 0.985391 0.0892239 -0.145062
v 103.427 -104.88 414.683
vn 0.942542 -0.0576275 0.32908
v 102.427 -107.372 423.38
vn 0.690024 0.656044 0.305733
v 103.815 -107.144 420.6
f 3//3 1//1 5//5
f 1//1 2//2 5//5
f 146//146 147//147 23//23
f 2//2 1//1 24//24
f 5//5 4//4 3//3
f 4//4 8//8 3//3
f 4//4 11//11 8//8
f 9//9 35//35 147//147
f 35//35 23//23 147//147
f 2//2 7//7 148//148
f 148//148 6//6 4//4
f 4//4 12//12 11//11
f 4//4 6//6 12//12
f 6//6 148//148 7//7
f 7//7 16//16 6//6
f 3//3 8//8 9//9
f 8//8 11//11 9//9
f 9//9 11//11 10//10
f 9//9 10//10 18//18
f 10//10 19//19 18//18
f 12//12 13//13 11//11
f 13//13 10//10 11//11
f 6//6 14//14 12//12
f 12//12 14//14 13//13
f 13//13 19//19 10//10
f 15//15 13//13 14//14
f 19//19 13//13 15//15
f 15//15 20//20 19//19
f 14//14 6//6 16//16
f 17//17 15//15 14//14
f 20//20 15//15 17//17
f 14//14 16//16 17//17
f 16//16 52//52 17//17
f 52//52 26//26 17//17
f 29//29 18//18 21//21
f 21//21 18//18 19//19
f 27//27 21//21 19//19
f 20//20 27//27 19//19
f 17//17 26//26 20//20
f 24//24 1//1 22//22
f 146//146 23//23 22//22
f 35//35 33//33 23//23
f 2//2 24//24 48//48
f 69//69 2//2 48//48
f 16//16 7//7 36//36
f 36//36 7//7 2//2
f 16//16 36//36 52//52
f 28//28 9//9 18//18
f 29//29 28//28 18//18
f 35//35 9//9 25//25
f 28//28 25//25 9//9
f 28//28 41//41 25//25
f 25//25 41//41 38//38
f 27//27 29//29 21//21
f 26//26 37//37 20//20
f 27//27 20//20 37//37
f 52//52 37//37 26//26
f 29//29 27//27 39//39
f 28//28 29//29 39//39
f 27//27 37//37 55//55
f 23//23 34//34 22//22
f 32//32 22//22 34//34
f 34//34 49//49 47//47
f 30//30 24//24 22//22
f 22//22 31//31 30//30
f 30//30 48//48 24//24
f 31//31 22//22 32//32
f 33//33 34//34 23//23
f 50//50 34//34 33//33
f 34//34 50//50 49//49
f 69//69 36//36 2//2
f 33//33 35//35 50//50
f 50//50 35//35 25//25
f 50//50 25//25 38//38
f 50//50 38//38 53//53
f 41//41 40//40 38//38
f 39//39 27//27 55//55
f 39//39 55//55 61//61
f 55//55 37//37 74//74
f 41//41 43//43 40//40
f 43//43 56//56 40//40
f 28//28 44//44 41//41
f 39//39 42//42 28//28
f 41//41 44//44 43//43
f 44//44 58//58 43//43
f 44//44 28//28 45//45
f 43//43 58//58 56//56
f 58//58 44//44 57//57
f 45//45 57//57 44//44
f 42//42 45//45 28//28
f 57//57 45//45 59//59
f 59//59 45//45 42//42
f 42//42 39//39 61//61
f 46//46 48//48 30//30
f 46//46 30//30 31//31
f 66//66 69//69 48//48
f 34//34 47//47 32//32
f 70//70 47//47 49//49
f 47//47 68//68 32//32
f 149//149 47//47 70//70
f 32//32 68//68 86//86
f 70//70 49//49 50//50
f 70//70 50//50 88//88
f 71//71 36//36 69//69
f 51//51 50//50 53//53
f 88//88 50//50 51//51
f 51//51 72//72 88//88
f 71//71 52//52 36//36
f 51//51 53//53 54//54
f 53//53 40//40 56//56
f 40//40 53//53 38//38
f 53//53 60//60 54//54
f 37//37 52//52 74//74
f 53//53 56//56 60//60
f 58//58 60//60 56//56
f 62//62 57//57 59//59
f 42//42 61//61 59//59
f 57//57 62//62 63//63
f 57//57 63//63 58//58
f 60//60 58//58 64//64
f 64//64 58//58 63//63
f 60//60 64//64 95//95
f 75//75 61//61 55//55
f 63//63 62//62 76//76
f 64//64 63//63 76//76
f 59//59 61//61 75//75
f 59//59 75//75 62//62
f 62//62 75//75 76//76
f 31//31 65//65 46//46
f 32//32 86//86 31//31
f 67//67 46//46 65//65
f 83//83 81//81 31//31
f 31//31 86//86 83//83
f 81//81 79//79 31//31
f 65//65 79//79 80//80
f 65//65 31//31 79//79
f 46//46 67//67 48//48
f 48//48 67//67 66//66
f 65//65 84//84 67//67
f 149//149 88//88 86//86
f 149//149 70//70 88//88
f 87//87 71//71 69//69
f 87//87 89//89 71//71
f 72//72 90//90 88//88
f 73//73 52//52 71//71
f 71//71 110//110 73//73
f 51//51 54//54 72//72
f 90//90 54//54 91//91
f 54//54 90//90 72//72
f 73//73 74//74 52//52
f 54//54 60//60 95//95
f 95//95 91//91 54//54
f 55//55 96//96 93//93
f 64//64 78//78 95//95
f 78//78 115//115 95//95
f 76//76 75//75 77//77
f 78//78 64//64 76//76
f 76//76 77//77 94//94
f 75//75 93//93 77//77
f 55//55 93//93 75//75
f 78//78 76//76 94//94
f 84//84 65//65 80//80
f 81//81 82//82 79//79
f 79//79 82//82 80//80
f 99//99 82//82 81//81
f 99//99 81//81 83//83
f 100//100 82//82 99//99
f 87//87 69//69 66//66
f 85//85 67//67 84//84
f 66//66 67//67 85//85
f 66//66 85//85 87//87
f 80//80 103//103 84//84
f 84//84 103//103 85//85
f 87//87 85//85 104//104
f 82//82 103//103 80//80
f 104//104 85//85 103//103
f 88//88 106//106 86//86
f 87//87 104//104 89//89
f 122//122 110//110 89//89
f 89//89 110//110 71//71
f 91//91 124//124 90//90
f 91//91 95//95 124//124
f 73//73 111//111 74//74
f 96//96 55//55 92//92
f 113//113 98//98 92//92
f 55//55 74//74 92//92
f 111//111 92//92 74//74
f 111//111 114//114 92//92
f 114//114 113//113 92//92
f 115//115 78//78 94//94
f 94//94 77//77 93//93
f 116//116 115//115 94//94
f 116//116 94//94 97//97
f 116//116 97//97 98//98
f 93//93 96//96 97//97
f 94//94 93//93 97//97
f 92//92 98//98 96//96
f 96//96 98//98 97//97
f 98//98 119//119 116//116
f 119//119 98//98 113//113
f 106//106 101//101 83//83
f 101//101 99//99 83//83
f 99//99 101//101 100//100
f 100//100 101//101 102//102
f 100//100 102//102 105//105
f 108//108 150//150 101//101
f 100//100 103//103 82//82
f 105//105 103//103 100//100
f 105//105 104//104 103//103
f 83//83 86//86 106//106
f 106//106 108//108 101//101
f 104//104 107//107 89//89
f 104//104 105//105 107//107
f 88//88 108//108 106//106
f 122//122 89//89 107//107
f 90//90 109//109 88//88
f 88//88 121//121 108//108
f 90//90 123//123 109//109
f 110//110 111//111 73//73
f 110//110 112//112 111//111
f 114//114 127//127 113//113
f 112//112 114//114 111//111
f 112//112 127//127 114//114
f 118//118 115//115 116//116
f 117//117 95//95 115//115
f 115//115 118//118 117//117
f 117//117 125//125 95//95
f 118//118 116//116 119//119
f 126//126 125//125 117//117
f 126//126 117//117 118//118
f 118//118 119//119 113//113
f 127//127 118//118 113//113
f 105//105 131//131 107//107
f 108//108 121//121 120//120
f 120//120 150//150 108//108
f 121//121 128//128 120//120
f 121//121 88//88 109//109
f 128//128 121//121 109//109
f 129//129 128//128 109//109
f 129//129 109//109 123//123
f 107//107 132//132 122//122
f 132//132 137//137 122//122
f 123//123 90//90 124//124
f 123//123 124//124 139//139
f 124//124 125//125 139//139
f 143//143 127//127 112//112
f 110//110 143//143 112//112
f 125//125 124//124 95//95
f 151//151 118//118 127//127
f 120//120 130//130 150//150
f 152//152 105//105 102//102
f 131//131 105//105 152//152
f 129//129 120//120 128//128
f 120//120 129//129 130//130
f 134//134 130//130 129//129
f 152//152 153//153 131//131
f 129//129 123//123 133//133
f 135//135 129//129 133//133
f 131//131 153//153 132//132
f 135//135 134//134 129//129
f 136//136 132//132 153//153
f 153//153 154//154 136//136
f 154//154 142//142 136//136
f 107//107 131//131 132//132
f 133//133 123//123 139//139
f 133//133 139//139 141//141
f 145//145 138//138 142//142
f 141//141 135//135 133//133
f 138//138 132//132 136//136
f 137//137 132//132 138//138
f 141//141 156//156 135//135
f 136//136 142//142 138//138
f 110//110 122//122 137//137
f 137//137 143//143 110//110
f 138//138 145//145 143//143
f 137//137 138//138 143//143
f 126//126 139//139 125//125
f 139//139 126//126 140//140
f 155//155 151//151 144//144
f 141//141 139//139 140//140
f 156//156 141//141 140//140
f 144//144 142//142 155//155
f 145//145 142//142 144//144
f 143//143 144//144 127//127
f 143//143 145//145 144//144
f 144//144 151//151 127//127
