# Wavafront OBJ file of BodyParts3D
# BodyParts3D, Copyright(C) 2010-2011 The Database Center for Life Science licensed under CC Attribution-Share Alike 2.1 Japan.
vn -0.825897 0.309649 -0.471182
v 57.3233 -25.7942 4.35809
vn -0.655871 0.0994327 -0.748295
v 58.7817 -27.6444 1.91887
vn -0.489719 0.419458 -0.76435
v 60.5508 -25.0116 1.49365
vn -0.635093 -0.404057 -0.658327
v 59.9563 -36.9389 2.42639
vn -0.477578 -0.169493 -0.862085
v 62.2628 -34.8619 0.053605
vn -0.793233 -0.556675 -0.246769
v 58.6661 -37.1968 4.60832
vn -0.964255 -0.263096 -0.0314985
v 57.0764 -34.7723 6.58665
vn -0.806209 -0.541523 0.238285
v 57.388 -35.3822 7.7332
vn -0.901397 -0.115313 -0.417356
v 56.9117 -32.4703 4.25638
vn -0.371853 0.152974 -0.9156
v 61.2818 -27.2561 0.41587
vn -0.928124 0.345635 -0.138284
v 56.3174 -23.3203 11.0404
vn -0.998559 0.0469435 0.026018
v 56.1559 -23.8775 12.2651
vn -0.784309 0.614464 -0.085408
v 57.4721 -21.1994 13.2112
vn -0.925725 0.362802 0.106804
v 56.6185 -22.5658 14.0255
vn -0.296416 0.606023 -0.738155
v 66.4272 -19.0101 2.48226
vn -0.658696 0.629154 -0.412655
v 59.616 -20.3737 6.82834
vn -0.374049 0.747528 -0.548898
v 66.2715 -17.1185 4.50573
vn -0.598181 0.766417 -0.234061
v 61.6071 -17.5258 9.97918
vn -0.189717 -0.298251 -0.935443
v 67.0107 -38.3486 -0.720443
vn -0.143869 -0.0109568 -0.989536
v 68.8134 -32.5105 -2.2326
vn -0.955658 -0.176326 0.235854
v 56.6253 -26.8775 15.8052
vn -0.955973 0.0517706 0.288851
v 58.1738 -22.5194 21.855
vn -0.0684983 0.330477 -0.941325
v 71.0134 -23.3271 -0.781521
vn -0.0377966 0.594707 -0.803054
v 70.5442 -18.6525 1.90847
vn -0.672103 0.740457 0.000464132
v 60.942 -16.7915 17.621
vn -0.379502 0.871055 -0.311835
v 70.0984 -12.6936 8.74618
vn -0.364667 -0.501198 -0.784741
v 66.2438 -41.3624 0.833694
vn -0.125713 -0.464253 -0.876735
v 67.8029 -41.2787 0.3263
vn 0.0276545 -0.78546 -0.618294
v 68.382 -42.1827 0.867395
vn -0.459921 -0.80305 -0.378926
v 64.9917 -42.2206 2.40186
vn -0.0423074 -0.974429 -0.220675
v 67.7007 -43.1002 3.46847
vn -0.649379 -0.758559 0.053808
v 62.2941 -41.0064 6.51391
vn -0.688481 -0.689661 0.224416
v 63.4577 -41.4126 8.38095
vn -0.465027 -0.880205 -0.0948081
v 64.7899 -42.5871 7.53324
vn 0.122346 -0.432723 -0.893187
v 70.4782 -39.9548 -0.308255
vn -0.746915 -0.563793 0.352497
v 61.5276 -35.7247 14.7696
vn 0.0759509 -0.265668 -0.961068
v 71.4284 -34.8924 -2.00428
vn -0.845436 -0.485625 0.222275
v 59.8441 -30.1667 18.9987
vn -0.909446 -0.281796 0.305775
v 58.8563 -26.0597 22.6238
vn -0.549226 -0.779398 -0.301478
v 67.4111 -44.7804 11.0044
vn 0.43831 -0.684385 -0.582667
v 70.92 -40.8803 0.445863
vn 0.281498 -0.889187 -0.3607
v 70.3542 -42.6747 4.36394
vn -0.0567449 -0.923648 -0.379017
v 69.2104 -43.7049 6.65855
vn 0.0465723 -0.198049 -0.979085
v 78.793 -30.8625 -1.78841
vn -0.0382173 -0.660621 -0.749746
v 79.1626 -32.6043 -0.925193
vn 0.335888 -0.520858 -0.784784
v 77.1394 -33.0114 -1.29439
vn -0.835379 -0.158731 0.526258
v 61.4423 -25.1061 29.9386
vn 0.132794 0.485284 -0.864214
v 78.153 -20.3943 1.18506
vn -0.886306 0.354336 0.298172
v 61.7749 -17.9109 30.464
vn -0.776464 0.118639 0.618893
v 63.2022 -17.9978 33.0809
vn 0.339495 0.601777 -0.722916
v 79.0816 -17.6509 3.21871
vn -0.652404 0.602549 0.459677
v 64.3686 -15.7529 33.36
vn 0.022242 0.786023 -0.617796
v 76.4654 -12.3339 7.51808
vn -0.146286 0.976647 -0.157359
v 75.229 -10.1507 11.7848
vn -0.236544 0.971296 0.0251154
v 73.6543 -10.3361 17.268
vn -0.375183 0.926615 0.024958
v 68.6235 -12.0603 21.5404
vn -0.328504 -0.647252 -0.687858
v 71.8383 -46.2285 8.93007
vn -0.708932 -0.646121 -0.282741
v 70.5943 -47.6265 11.9738
vn -0.748755 -0.6561 0.0943387
v 68.3452 -45.4789 15.0858
vn 0.019661 -0.776869 -0.629356
v 71.4962 -43.7804 6.87189
vn -0.295953 -0.804123 -0.515556
v 70.451 -45.2664 8.74654
vn 0.367608 -0.701614 -0.610411
v 74.1809 -40.3423 3.41315
vn 0.190805 -0.54478 -0.816583
v 75.9743 -39.7691 3.8003
vn 0.0212584 -0.607808 -0.7938
v 75.1329 -41.7332 5.06968
vn -0.951913 -0.300889 0.0576749
v 64.7363 -39.8862 24.5737
vn 0.356442 -0.570393 -0.740001
v 76.1909 -37.6998 2.61396
vn -0.266342 -0.787933 -0.555179
v 80.0754 -33.3934 -0.31821
vn -0.149266 -0.664037 -0.732649
v 81.4278 -33.6416 -0.674526
vn 0.225569 -0.280186 -0.933067
v 83.0742 -32.181 -1.54672
vn 0.0414457 -0.683048 -0.729197
v 79.4705 -34.2915 1.16716
vn -0.887515 -0.263506 0.377996
v 64.124 -32.2447 30.5094
vn 0.20199 0.118776 -0.972159
v 82.3838 -29.3392 -1.74364
vn 0.382495 0.371531 -0.845968
v 84.1899 -27.3446 -0.637492
vn -0.617061 -0.151298 0.772233
v 65.2745 -22.8749 33.9293
vn 0.578959 0.53422 -0.615967
v 84.9605 -23.5829 2.23221
vn -0.560941 -0.0380924 0.826979
v 65.6144 -19.4073 35.336
vn 0.752197 0.524837 -0.398429
v 83.0387 -16.5971 8.26556
vn -0.339485 0.646443 0.683273
v 68.7691 -13.5382 34.4863
vn 0.501569 0.687319 -0.525378
v 81.1876 -11.4549 11.2858
vn 0.293175 0.905154 -0.307806
v 80.5519 -10.1068 13.0924
vn 0.759541 0.593142 -0.266983
v 81.9687 -10.8538 13.3495
vn -0.21771 0.975917 -0.013722
v 78.8192 -9.72089 20.1601
vn -0.839504 -0.460871 -0.287805
v 73.0406 -52.2029 14.4419
vn -0.371388 -0.525901 -0.765179
v 74.5649 -49.2104 9.78748
vn -0.877273 -0.406142 -0.255814
v 68.5625 -46.1206 23.3798
vn 0.23451 -0.717516 -0.655878
v 83.2861 -34.3428 -0.114172
vn 0.199112 -0.811514 -0.549363
v 83.3718 -35.0839 1.32855
vn 0.258922 -0.606786 -0.751512
v 83.5039 -35.5115 1.87124
vn -0.0615582 -0.751411 -0.656957
v 82.343 -35.4931 1.78312
vn 0.394964 -0.467733 -0.790714
v 84.963 -36.7563 3.41836
vn 0.58964 0.0631738 -0.805192
v 86.3269 -30.6555 -0.009622
vn 0.569286 -0.280754 -0.772717
v 86.2931 -32.2275 0.156912
vn 0.843891 0.355697 -0.401655
v 87.4145 -26.9528 2.30653
vn -0.366675 -0.0197852 0.930139
v 67.6284 -21.6213 35.7854
vn -0.309332 0.277055 0.9097
v 68.3082 -15.5646 36.0977
vn -0.185078 0.881517 0.434367
v 72.1829 -12.3323 34.5765
vn -0.0990824 0.513962 0.852072
v 71.8627 -14.0303 36.1431
vn -0.16372 0.980859 -0.105412
v 79.702 -9.55247 19.8086
vn 0.115398 0.98751 -0.107273
v 81.3292 -9.60162 18.1128
vn 0.586162 0.808517 -0.0521009
v 81.9589 -9.87864 17.9243
vn -0.255162 0.956184 -0.143541
v 80.3449 -9.16794 20.9748
vn -0.0646832 0.987816 0.141545
v 78.7362 -9.46522 26.4504
vn -0.934895 -0.274792 -0.224633
v 59.4286 -63.6716 36.2248
vn -0.729119 -0.0174709 -0.684164
v 59.8127 -63.1981 35.2369
vn -0.339078 0.0131208 -0.940667
v 61.2623 -63.5878 34.4767
vn -0.425111 0.337439 -0.83989
v 59.9209 -58.0784 36.4883
vn -0.961101 0.0687589 -0.2675
v 58.6855 -59.3523 37.6528
vn -0.779952 0.279251 -0.560083
v 59.1573 -57.8934 37.1886
vn -0.571257 0.504013 -0.647794
v 59.5885 -56.9872 37.3388
vn -0.958183 0.229771 0.170559
v 58.5859 -56.9162 40.8076
vn -0.988366 -0.123204 0.0891832
v 58.3585 -59.7677 40.4031
vn -0.840055 0.0538815 0.539818
v 58.7595 -58.0769 41.7045
vn -0.449709 -0.314937 -0.835809
v 76.9108 -57.9329 12.062
vn -0.364097 0.347956 -0.863921
v 62.4294 -56.467 36.5955
vn -0.903861 0.368311 -0.217675
v 58.9106 -55.8947 39.7272
vn -0.729977 0.599323 -0.328551
v 59.6021 -54.551 39.9798
vn -0.801342 0.561341 0.206756
v 59.5418 -54.5694 40.5258
vn -0.563329 0.488559 -0.666311
v 61.4451 -54.4632 38.1325
vn -0.648441 -0.399921 -0.647756
v 74.9133 -52.5744 11.5034
vn -0.201652 -0.264443 -0.943084
v 76.6367 -53.6596 10.8702
vn -0.88301 -0.262024 -0.389406
v 70.3357 -53.5983 24.0361
vn -0.744702 -0.293184 -0.599552
v 68.8796 -51.1821 25.8376
vn -0.702998 -0.178442 -0.688442
v 68.4262 -50.5695 26.0912
vn -0.658099 -0.493725 -0.568454
v 68.3283 -51.5196 26.7152
vn -0.770419 -0.458958 -0.442506
v 68.4036 -52.1907 27.4087
vn -0.901355 0.0670881 -0.427853
v 67.378 -50.8209 27.2538
vn -0.835239 -0.512943 -0.198155
v 67.6988 -51.4591 27.5056
vn -0.98991 0.134756 0.043796
v 67.615 -50.4145 27.9247
vn -0.942065 -0.274709 -0.192479
v 67.7341 -51.5106 28.1099
vn -0.994306 -0.0759808 -0.0747142
v 67.6447 -50.9915 28.582
vn -0.880011 -0.113715 -0.46114
v 67.5772 -52.0387 28.6551
vn -0.826217 -0.413427 -0.382679
v 68.169 -52.149 27.8485
vn -0.94712 -0.0252715 -0.319882
v 65.5199 -52.3121 34.4499
vn -0.740415 0.32519 -0.588249
v 64.1999 -51.0765 37.6127
vn -0.727537 0.56164 -0.394018
v 62.4595 -52.0702 39.0367
vn -0.797954 0.194323 -0.570533
v 68.1825 -49.965 26.4658
vn -0.834581 0.318719 -0.449325
v 67.9222 -49.9145 26.89
vn -0.873992 -0.0745527 -0.480188
v 68.5495 -49.5249 26.0503
vn -0.843126 0.277234 -0.460739
v 68.0802 -49.4415 26.93
vn -0.815431 -0.0718347 -0.57438
v 68.81 -50.1059 25.7242
vn -0.928738 0.253664 -0.270372
v 67.7324 -49.8882 27.3571
vn -0.946408 -0.124033 -0.298208
v 67.6174 -49.3603 27.8136
vn -0.980998 -0.082144 -0.175769
v 65.255 -46.6539 37.1661
vn -0.928658 0.352055 -0.116842
v 64.5935 -47.5985 38.6241
vn 0.0656336 -0.452556 -0.889317
v 80.4656 -47.8036 8.90713
vn -0.934121 0.327558 0.141856
v 65.4537 -45.7462 38.3403
vn -0.939308 0.223305 0.260452
v 66.8018 -38.1946 36.7677
vn 0.647104 -0.402412 -0.64755
v 87.0807 -38.0693 5.57138
vn -0.679902 0.535557 0.500912
v 68.1672 -36.6212 38.3415
vn 0.441266 -0.624774 -0.644159
v 87.2083 -35.3757 3.88316
vn -0.593069 0.0900384 0.800101
v 69.336 -32.1744 37.0217
vn 0.609337 -0.487338 -0.625468
v 87.836 -33.3448 2.00057
vn 0.761673 -0.108 -0.638897
v 88.8577 -32.3903 2.86806
vn 0.892141 -0.288932 -0.34728
v 89.2532 -33.9389 4.41714
vn 0.980294 0.19503 0.0314065
v 88.9238 -31.8552 6.06751
vn 0.937981 0.321268 -0.130297
v 86.0275 -20.9512 12.7565
vn 0.113228 0.223883 0.968016
v 74.2145 -16.8768 36.6817
vn 0.889706 0.456533 0.00120817
v 84.2801 -13.2897 20.1964
vn 0.608674 0.408875 0.679954
v 79.2265 -12.3807 32.8288
vn 0.125987 0.5594 0.819267
v 75.7534 -12.5117 34.9045
vn 0.103428 0.85546 0.507435
v 76.712 -11.5255 33.6122
vn 0.379545 0.561092 0.73561
v 77.0659 -12.4782 34.4952
vn 0.393762 0.308381 0.86594
v 77.0268 -13.967 35.2104
vn 0.562532 0.805001 0.1885
v 81.1801 -9.96029 26.1668
vn 0.425342 0.761224 0.489512
v 79.0109 -11.2408 32.005
vn -0.69364 -0.506158 -0.512512
v 60.6667 -65.4689 35.3897
vn -0.782874 -0.581931 0.220148
v 60.7974 -67.0895 40.2668
vn -0.643484 0.011516 -0.765373
v 66.7598 -64.1094 32.9474
vn -0.849273 -0.131057 0.511429
v 59.13 -61.8516 41.646
vn -0.673069 -0.342893 0.655288
v 60.3249 -63.8684 42.8666
vn -0.54893 0.0569343 0.833927
v 61.0292 -62.047 43.7445
vn -0.0704445 0.203196 0.976601
v 61.6974 -59.5844 43.0415
vn -0.502303 0.108808 0.857818
v 60.0465 -57.5031 42.9227
vn -0.478099 -0.0277442 0.877867
v 59.8383 -60.0515 42.8224
vn -0.523411 0.207697 0.82638
v 60.8615 -61.4463 43.3583
vn -0.799645 -0.363099 -0.478255
v 76.6744 -59.8838 13.2922
vn -0.816682 -0.306785 -0.488788
v 72.2068 -59.4407 24.574
vn -0.596376 0.193163 -0.779117
v 65.4461 -56.5066 34.8554
vn -0.498909 0.61817 0.607417
v 61.1236 -53.5383 41.3984
vn -0.659039 0.373777 0.652655
v 59.81 -55.8156 42.2636
vn 0.0768904 -0.0799101 0.993832
v 61.1267 -57.3301 43.2516
vn -0.203413 0.247481 0.947299
v 61.4403 -56.3797 43.2755
vn -0.716362 0.680318 0.154897
v 62.4659 -51.7708 40.1973
vn -0.854538 0.488887 -0.175369
v 63.4236 -50.436 39.3822
vn -0.527077 0.620802 0.58034
v 62.7169 -51.8826 40.7237
vn -0.762921 0.482877 0.429861
v 63.2393 -50.9711 40.383
vn -0.49134 0.427578 0.75879
v 64.5558 -52.5506 42.3363
vn -0.627977 0.277449 0.727094
v 65.0532 -51.1301 42.3248
vn -0.490107 0.335912 0.804337
v 65.5847 -50.7898 42.6471
vn -0.872718 0.461931 0.158059
v 64.6729 -47.7045 39.8382
vn 0.197318 -0.300017 -0.933303
v 85.7838 -50.015 9.94647
vn -0.763029 0.270948 0.586834
v 66.1063 -45.5174 39.7701
vn 0.411532 -0.367311 -0.834101
v 85.9744 -42.5331 6.86098
vn -0.805822 0.35586 0.473302
v 67.3123 -38.55 39.7351
vn -0.631283 0.232338 0.739933
v 68.5114 -39.5381 41.2143
vn 0.784974 -0.168189 -0.596262
v 88.2295 -41.7654 8.60388
vn -0.582004 0.593186 0.556238
v 69.9369 -37.2728 41.1605
vn 0.999038 -0.00520916 0.0435351
v 89.2509 -34.6228 6.80344
vn 0.994148 0.0884452 -0.0620285
v 89.0993 -35.2159 8.51588
vn 0.928026 -0.203937 -0.311735
v 88.8603 -37.213 8.14461
vn 0.546053 0.348141 0.761987
v 80.9061 -20.5159 34.6591
vn 0.780943 0.436255 0.447
v 82.541 -13.1713 29.6035
vn -0.468956 -0.416088 -0.779071
v 67.513 -70.2686 33.4575
vn -0.395055 -0.123849 -0.910271
v 65.9254 -67.5647 33.5875
vn -0.601719 -0.788831 0.12522
v 64.8029 -70.5831 37.7256
vn -0.200864 -0.648059 0.734625
v 65.7306 -70.9453 38.0016
vn -0.716063 -0.323831 -0.618375
v 78.8462 -65.5051 14.5573
vn -0.89247 -0.304247 -0.333064
v 78.3048 -66.1945 16.0567
vn -0.599575 -0.383453 -0.702477
v 79.5338 -68.9004 15.3135
vn -0.392505 -0.343335 -0.853265
v 80.8515 -66.5717 13.6679
vn -0.821712 -0.46058 -0.335642
v 79.0102 -69.198 16.2027
vn -0.389208 -0.552605 -0.736984
v 80.7904 -69.7821 14.9544
vn -0.919006 -0.33657 -0.2053
v 78.1447 -66.4893 17.1539
vn -0.925525 -0.376532 -0.0403394
v 78.8972 -68.8378 17.2568
vn -0.656969 -0.523012 -0.543001
v 73.6915 -66.3227 26.7375
vn -0.659912 -0.187835 -0.727485
v 67.5396 -66.9375 32.5386
vn -0.239432 -0.602893 0.761047
v 61.3076 -65.695 42.2228
vn -0.199197 -0.377705 0.904245
v 61.2428 -63.6652 43.479
vn 0.116461 -0.476642 0.871349
v 65.1412 -63.7698 42.9785
vn -0.112654 -0.26649 -0.957231
v 84.0993 -64.8501 12.3194
vn 0.19881 0.154681 0.967754
v 63.263 -58.9974 42.8085
vn 0.0473184 -0.2782 0.959357
v 62.6155 -62.0335 44.1542
vn 0.145422 0.573585 0.806135
v 64.1553 -59.7983 42.8941
vn 0.139555 -0.168868 0.975709
v 64.0729 -61.4264 44.1102
vn 0.119122 0.4187 0.900278
v 64.2831 -60.9611 44.0289
vn 0.345968 0.43218 0.832782
v 66.4256 -59.9122 42.1095
vn 0.322181 0.646063 0.691955
v 66.7994 -60.7465 43.0268
vn -0.20221 -0.082892 0.975828
v 62.063 -61.8654 44.1544
vn -0.0108175 0.0706179 0.997445
v 62.6667 -61.5295 44.2156
vn -0.225951 0.383662 0.895405
v 62.2314 -61.3924 44.1461
vn 0.267475 -0.387741 0.882108
v 68.8805 -56.4243 41.4426
vn 0.373659 0.209732 0.903544
v 65.4993 -57.5241 41.9383
vn 0.169338 -0.106691 0.979766
v 66.5522 -55.2658 42.5307
vn 0.0372634 -0.137695 -0.989773
v 84.1867 -57.9834 11.0578
vn -0.511007 0.16631 0.843334
v 65.6691 -51.8794 42.8931
vn -0.277872 0.333671 0.900806
v 67.273 -51.3647 43.5578
vn 0.062047 0.116604 0.991238
v 68.0791 -54.6717 42.3652
vn 0.267881 -0.177907 -0.946884
v 87.3627 -52.6524 10.87
vn -0.396093 0.376557 0.837445
v 67.1332 -49.6952 42.7299
vn -0.247958 0.239546 0.938688
v 68.0102 -49.9888 43.1278
vn 0.58819 -0.185321 -0.787203
v 88.7331 -48.8723 10.763
vn -0.434119 0.125004 0.892141
v 70.2073 -46.493 43.5066
vn -0.572425 0.607458 0.550749
v 74.9361 -33.6246 41.0345
vn -0.445338 0.650984 0.61473
v 76.3123 -32.512 41.41
vn -0.445113 0.805653 0.390893
v 76.0166 -33.2527 42.477
vn -0.247478 0.394843 0.88479
v 76.604 -30.2964 40.1833
vn 0.202336 0.397707 0.894924
v 78.2802 -25.0284 38.2662
vn 0.767044 0.370735 0.523641
v 84.6739 -20.6866 30.4699
vn -0.598473 -0.73495 -0.318871
v 69.0386 -73.9483 35.8813
vn -0.459497 -0.751283 -0.473747
v 81.1433 -70.7149 15.8502
vn -0.129055 -0.746309 -0.652968
v 82.1429 -70.6353 15.2568
vn 0.16507 -0.799631 -0.577358
v 84.0828 -71.0679 15.8353
vn -0.790352 -0.57483 -0.211928
v 79.8004 -70.7321 17.9762
vn -0.86143 -0.453772 -0.228098
v 79.2318 -70.811 21.7096
vn 0.0761094 -0.473914 -0.877276
v 84.6574 -68.2409 13.4892
vn 0.198232 -0.235175 -0.951523
v 85.3612 -64.711 12.331
vn 0.425573 0.650678 0.628892
v 71.3059 -61.1673 38.7086
vn 0.447319 -0.200692 0.871567
v 71.8578 -60.791 38.4058
vn 0.578455 0.635888 0.510918
v 71.5935 -61.8787 39.5279
vn 0.623096 0.455876 0.635553
v 69.003 -60.7751 41.3985
vn 0.353247 0.0892578 0.931262
v 68.6948 -62.2389 43.078
vn 0.561126 0.473682 0.678796
v 69.0882 -61.8103 42.7151
vn 0.150068 -0.334285 0.930448
v 69.1976 -63.9188 42.4242
vn 0.524227 0.221419 0.822289
v 70.0283 -63.1113 42.235
vn 0.49106 -0.137938 -0.860135
v 88.9007 -62.165 12.9741
vn 0.597665 -0.247511 0.762584
v 71.021 -60.0532 39.0052
vn 0.425885 -0.367681 0.8267
v 71.7829 -58.7338 39.3007
vn 0.23216 0.201187 0.951644
v 74.4833 -58.9421 37.9761
vn 0.499827 0.0685907 0.863405
v 69.976 -59.2828 40.0605
vn 0.707807 -0.0514862 0.704528
v 70.411 -59.9212 39.7991
vn 0.559071 -0.251046 0.7902
v 70.8804 -59.5165 39.446
vn 0.0330789 -0.641016 0.766814
v 69.8059 -55.6932 41.9582
vn -0.0611019 -0.469596 0.880764
v 70.1352 -54.3063 43.2053
vn -0.0815909 -0.037101 0.995975
v 70.2296 -51.2322 43.7901
vn 0.901839 0.0626059 -0.427512
v 92.2497 -40.8383 15.5538
vn -0.557356 0.551629 0.620532
v 75.8099 -34.6823 45.0112
vn -0.203313 0.821713 0.532401
v 78.7071 -33.7308 45.8047
vn -0.304489 0.3935 0.867435
v 78.5381 -34.5723 46.607
vn 0.311299 0.622547 0.718003
v 82.4258 -30.3314 40.6277
vn -0.0903142 0.806131 0.584804
v 80.1281 -32.1001 42.3939
vn 0.806881 0.446572 0.386673
v 86.7849 -28.265 33.645
vn -0.477489 -0.658201 -0.582044
v 82.1444 -75.3591 25.599
vn -0.439949 -0.710394 -0.549349
v 71.8217 -75.6751 35.3448
vn -0.451834 -0.851649 0.265596
v 71.9316 -75.9419 36.0149
vn -0.143955 -0.551964 0.821348
v 72.7543 -75.118 37.1349
vn -0.657668 -0.474188 -0.585336
v 75.9279 -78.0379 35.0552
vn -0.751646 -0.336185 -0.567458
v 75.4829 -77.4908 35.3206
vn 0.00667156 -0.489008 0.872254
v 75.5893 -76.4563 36.4284
vn -0.33386 -0.878942 -0.340585
v 81.1399 -74.0328 21.9889
vn 0.128887 -0.961416 -0.243039
v 81.5698 -74.107 22.243
vn 0.154152 -0.968572 -0.195207
v 82.6825 -74.0525 23.4531
vn -0.722625 -0.680524 -0.121242
v 80.3094 -73.9384 24.3965
vn -0.245668 -0.962777 -0.112732
v 80.9148 -74.3101 24.2042
vn -0.536323 -0.842537 -0.0498908
v 80.8499 -74.2921 25.3224
vn -0.394197 -0.875314 -0.280061
v 81.4842 -74.5542 25.1349
vn -0.690221 -0.694949 -0.201594
v 80.978 -74.4993 25.9965
vn -0.561756 -0.698603 -0.443153
v 77.601 -71.915 28.9946
vn -0.631097 -0.727457 -0.2693
v 78.0046 -71.9311 28.3233
vn -0.707668 -0.696295 -0.11991
v 78.6779 -72.4408 27.9315
vn -0.632302 -0.724269 -0.275006
v 79.1928 -72.864 28.8502
vn -0.472061 -0.571264 -0.671428
v 76.4445 -72.9073 31.3315
vn 0.135268 -0.412256 0.90097
v 75.2319 -70.2913 39.8106
vn 0.276661 -0.792197 -0.543951
v 87.1262 -70.7999 17.0035
vn 0.21097 -0.564488 -0.798025
v 88.2154 -72.2681 18.33
vn 0.496298 0.00119014 0.868151
v 75.5202 -67.2912 40.6184
vn 0.416811 -0.334771 -0.845102
v 88.453 -65.6922 13.7136
vn 0.511974 -0.338275 -0.78959
v 89.7833 -68.3987 16.0074
vn 0.611773 0.11866 0.782083
v 77.4911 -65.6259 38.0974
vn 0.374546 0.341749 0.86193
v 75.7854 -63.5724 38.6373
vn 0.51919 0.536118 0.665597
v 75.1526 -64.0301 39.4811
vn 0.695135 -0.17654 -0.696865
v 90.7064 -63.3313 14.3587
vn 0.463542 0.0259202 0.885696
v 81.3579 -59.789 35.0595
vn 0.755635 -0.0574219 -0.652471
v 90.4461 -59.0521 14.2049
vn 0.759432 0.00919949 -0.650522
v 92.3519 -60.3672 17.3444
vn 0.296285 -0.437215 0.849152
v 83.1372 -58.7029 34.2266
vn 0.379165 -0.471443 0.796226
v 80.2534 -58.4706 36.0222
vn 0.851169 -0.0252905 -0.524281
v 93.5403 -54.9987 17.8
vn 0.848755 -0.0409469 -0.527199
v 93.0205 -50.5823 16.7822
vn -0.128275 -0.233299 0.963907
v 76.1742 -46.3031 44.8419
vn 0.96256 0.252798 -0.0978295
v 95.1298 -41.7245 21.3438
vn 0.889099 0.217742 0.402605
v 94.0258 -39.9308 25.1493
vn 0.925693 0.0762087 0.370518
v 92.7544 -40.2552 27.9277
vn 0.968623 0.110341 0.222699
v 91.7735 -39.6248 30.7706
vn 0.142509 0.695183 0.704565
v 80.2771 -34.5202 46.7881
vn -0.0298337 0.130952 0.99094
v 80.7188 -35.8085 47.3368
vn 0.923305 0.302349 0.236839
v 92.6128 -35.9077 26.2253
vn 0.930554 0.298764 0.211683
v 90.4202 -35.6616 32.4658
vn 0.84075 0.404983 0.359344
v 87.6281 -34.3536 38.8283
vn 0.214586 0.768629 0.602629
v 82.5126 -33.1871 43.8755
vn -0.416797 -0.668971 -0.615433
v 76.8569 -79.1559 35.1279
vn -0.346137 -0.924406 -0.160195
v 78.4496 -79.8706 36.1163
vn -0.676944 -0.590991 -0.438721
v 76.5913 -79.1694 35.5559
vn -0.526181 -0.80079 0.286129
v 78.2362 -79.7126 36.5559
vn -0.265128 -0.851742 -0.451933
v 84.0373 -76.1633 25.0425
vn -0.416632 -0.727951 -0.544523
v 82.1374 -76.6386 26.8888
vn 0.0856201 -0.96125 -0.262045
v 85.5227 -77.0137 27.1316
vn -0.749558 -0.613921 -0.247514
v 82.0735 -76.9327 29.7769
vn -0.617367 -0.535085 -0.576664
v 81.1799 -76.7813 31.5636
vn -0.532509 -0.564973 -0.63027
v 81.6057 -77.9833 31.9357
vn -0.639222 -0.62975 -0.441373
v 82.1714 -77.9487 31.0987
vn -0.596184 -0.72875 -0.336879
v 83.3416 -78.1678 30.0563
vn -0.33738 -0.448097 0.827879
v 75.758 -77.5165 35.8562
vn 0.424758 -0.387387 0.818237
v 75.8342 -75.245 37.018
vn -0.823998 -0.564663 0.0467202
v 76.0533 -78.141 36.0196
vn -0.161464 0.016207 0.986746
v 76.5985 -75.7205 36.4962
vn -0.574012 -0.0360836 0.818051
v 76.6527 -77.3089 36.5091
vn -0.624519 -0.321034 0.711978
v 77.1891 -78.5479 36.9304
vn -0.509583 -0.354879 -0.783828
v 89.7063 -74.326 18.8248
vn -0.361775 -0.28269 -0.888372
v 90.4581 -73.4548 18.0457
vn -0.4335 -0.0574389 -0.899321
v 91.1184 -74.1682 17.8806
vn -0.403755 -0.366318 -0.838327
v 91.5548 -74.807 17.6201
vn -0.253928 -0.155622 -0.954622
v 91.8418 -73.6606 17.6621
vn -0.328101 -0.843419 -0.425434
v 90.6114 -75.7554 19.4957
vn 0.503694 -0.328413 0.799023
v 76.6316 -72.1473 37.7226
vn 0.416186 -0.150315 0.896769
v 77.6533 -70.8783 37.5936
vn 0.00496261 -0.244495 0.969638
v 77.8606 -73.4986 36.6856
vn 0.0919025 -0.254699 0.962644
v 78.0317 -71.8551 37.336
vn 0.062076 -0.0552493 0.996541
v 78.2155 -71.0426 37.4946
vn -0.417659 0.061471 0.906522
v 78.6775 -74.2854 36.9029
vn -0.180002 -0.0411366 0.982806
v 79.1561 -71.8525 37.4959
vn -0.419757 0.0512209 0.90619
v 80.0834 -72.1554 37.8061
vn 0.661021 -0.268081 0.700845
v 76.3313 -70.5791 39.1192
vn 0.0174584 -0.0964329 -0.995186
v 92.6721 -73.571 17.5494
vn 0.0570899 0.48131 0.87469
v 83.984 -64.2534 35.8826
vn -0.178751 0.435446 0.882289
v 83.877 -65.3611 36.4323
vn 0.144832 0.234757 0.961204
v 80.2184 -66.371 36.8455
vn 0.773372 -0.0783364 -0.629094
v 92.062 -63.9093 16.8151
vn 0.0503779 0.469978 0.881239
v 85.7634 -62.1167 34.1736
vn 0.35861 0.281807 0.889935
v 81.7211 -61.4773 35.1584
vn 0.282522 0.131026 0.95027
v 83.5501 -60.3699 33.7865
vn 0.160538 0.0476949 0.985877
v 86.7184 -59.7429 33.4952
vn 0.193454 -0.39372 0.898643
v 87.1076 -58.8222 33.6198
vn 0.2288 -0.719525 0.655694
v 84.1918 -56.7595 35.7803
vn 0.247533 -0.696999 0.672993
v 87.656 -57.107 34.908
vn 0.805617 0.200346 -0.557533
v 95.4561 -57.3658 20.9625
vn 0.865703 0.0780332 -0.494438
v 95.7776 -55.473 22.5088
vn 0.879626 0.356886 0.314468
v 92.4527 -49.8425 31.6716
vn 0.933675 0.264063 0.241911
v 96.2383 -48.0319 24.9665
vn 0.820936 0.256178 0.51033
v 96.0518 -48.4249 25.4802
vn 0.817728 0.241138 0.52266
v 95.0111 -47.7346 27.7038
vn 0.900716 -0.0364818 0.432875
v 95.5625 -49.1629 26.4361
vn 0.745214 0.344811 0.570755
v 92.9786 -46.7019 29.3229
vn 0.637035 0.374662 0.673657
v 93.2321 -47.8444 29.5901
vn 0.988644 -0.0940639 0.117198
v 91.5222 -45.4978 33.5682
vn 0.982694 -0.116048 -0.144378
v 91.2313 -46.0035 34.6129
vn 0.942044 -0.312156 -0.122933
v 91.6017 -45.2254 34.1633
vn 0.0359346 -0.429877 0.902172
v 84.9144 -45.3771 46.0503
vn 0.951204 0.0939954 -0.293897
v 95.6968 -45.1835 21.459
vn 0.950094 0.0639766 0.305333
v 92.024 -43.2859 29.5689
vn 0.999038 -0.0431133 -0.00807848
v 91.8044 -43.4066 32.3493
vn 0.978582 -0.115003 -0.170736
v 92.0132 -44.1634 34.8643
vn 0.895485 -0.335073 -0.292973
v 91.8098 -45.1491 34.8666
vn -0.0621563 -0.219623 0.973603
v 83.5481 -41.9007 47.2565
vn 0.284414 0.100885 0.953379
v 85.0501 -40.7974 47.4203
vn 0.982407 0.168922 0.0796347
v 91.5367 -39.661 32.3748
vn 0.883985 0.288436 0.367933
v 91.1653 -40.9808 38.0895
vn 0.834906 0.357495 0.418485
v 89.3081 -38.9536 39.7028
vn 0.567683 0.527403 0.632125
v 85.4798 -36.1935 45.3169
vn -0.139868 -0.939545 -0.312557
v 82.0547 -81.6187 37.2239
vn -0.169924 -0.857231 -0.486087
v 82.3934 -78.7694 32.2728
vn -0.11418 -0.91604 -0.384493
v 91.8494 -75.7517 18.4683
vn 0.0869929 -0.744285 -0.662172
v 92.6176 -75.1264 17.5621
vn 0.260875 -0.851439 -0.454968
v 94.6935 -75.5588 18.9191
vn -0.0669535 -0.979539 -0.189794
v 88.7853 -76.3707 23.1448
vn -0.5721 0.202683 0.794746
v 81.5407 -74.2657 39.2275
vn 0.188371 -0.103499 -0.976629
v 95.6828 -74.0053 18.1761
vn -0.240771 0.396605 0.885852
v 82.4931 -68.6992 37.8135
vn -0.0188962 0.531427 0.846893
v 82.9564 -68.029 37.4331
vn -0.156562 0.671289 0.724472
v 83.2334 -68.3979 37.7713
vn -0.313558 0.542965 0.779019
v 83.7517 -68.3897 37.9271
vn 0.644561 0.200033 -0.737921
v 95.5822 -70.3905 19.3872
vn -0.230081 0.546375 0.805318
v 83.6221 -67.9659 37.3782
vn -0.388585 0.514559 0.76435
v 84.9997 -65.1961 36.687
vn -0.179469 0.634247 0.752012
v 85.3034 -64.7483 36.4424
vn -0.453336 0.42365 0.784224
v 84.7146 -66.7213 37.2923
vn -0.46871 0.532641 0.704702
v 84.5516 -67.7648 37.9703
vn -0.326043 0.531001 0.782134
v 86.0185 -65.6316 37.7735
vn -0.4178 0.393295 0.819001
v 85.8311 -67.1246 38.2369
vn -0.223632 0.66248 0.714919
v 89.9125 -62.0528 34.4136
vn 0.801168 0.094807 -0.590881
v 97.7118 -62.7815 21.205
vn 0.669566 0.158769 -0.725585
v 97.9874 -59.8713 23.4029
vn 0.87669 0.140767 -0.46
v 98.2749 -60.4944 23.5798
vn 0.832389 -0.114961 -0.542137
v 98.3351 -60.0012 23.7605
vn 0.182273 -0.29032 0.93941
v 88.9907 -58.827 32.9627
vn -0.0141296 0.401002 0.915968
v 89.3143 -60.5166 33.2606
vn -0.0909302 0.0549662 0.994339
v 90.0128 -59.1335 32.8981
vn -0.141197 -0.286555 0.947602
v 90.1472 -58.5372 33.0154
vn -0.347816 0.219404 0.911529
v 91.4346 -59.5937 33.3094
vn -0.46648 0.0975384 0.879138
v 91.9932 -59.2584 33.5844
vn 0.59725 0.14526 -0.788792
v 96.4034 -55.7198 23.3455
vn 0.345434 0.101714 -0.932915
v 96.7489 -56.3536 23.4212
vn 0.16956 0.0527288 -0.984108
v 97.0084 -55.3931 23.5396
vn 0.168064 -0.022788 -0.985513
v 98.3148 -58.4191 23.6885
vn 0.494305 -0.219283 -0.841176
v 98.6487 -59.0508 23.7844
vn 0.207505 -0.223136 -0.952445
v 98.8402 -58.5821 23.7356
vn 0.404297 -0.0277991 -0.914205
v 99.2621 -57.6518 23.5704
vn -0.293005 -0.154146 0.943603
v 92.3631 -57.8141 33.7958
vn 0.293597 -0.521789 0.80096
v 92.6627 -54.8591 35.2206
vn 0.806386 0.0216619 -0.590992
v 96.664 -52.6767 23.6401
vn 0.932689 0.182325 -0.311206
v 96.9107 -50.5158 24.4594
vn 0.479867 0.197395 -0.854847
v 96.967 -53.3026 23.79
vn 0.716175 0.468642 -0.517174
v 97.808 -52.0762 25.1081
vn 0.603652 0.361961 -0.710344
v 99.6015 -55.1929 24.4065
vn 0.403343 0.27533 0.872644
v 96.8725 -51.0148 29.12
vn 0.496219 0.295822 0.816245
v 96.0488 -52.3828 29.8237
vn 0.649242 0.187278 0.737164
v 96.7818 -54.1878 29.9853
vn 0.647319 0.456199 0.610623
v 94.0994 -50.7814 30.4002
vn 0.786744 0.544761 0.290292
v 93.2231 -51.0028 32.2367
vn 0.727716 0.394349 0.561176
v 96.0724 -54.2314 30.7411
vn 0.878993 0.466082 0.10069
v 92.7898 -50.565 33.099
vn 0.91837 0.367843 -0.145906
v 92.4738 -50.125 35.7644
vn 0.885502 0.445265 0.132763
v 93.3986 -52.3105 34.2127
vn 0.872796 0.426657 -0.237044
v 93.3223 -51.4707 35.8153
vn 0.84131 0.269067 0.468828
v 94.5122 -54.2854 33.9039
vn 0.446759 -0.569714 0.689806
v 93.6996 -54.1228 35.1572
vn 0.980267 0.142392 0.137115
v 93.9259 -53.6341 34.6559
vn 0.734332 -0.481541 0.478409
v 93.3375 -52.5725 37.0989
vn 0.313829 -0.659851 0.682721
v 86.1769 -52.2723 41.646
vn 0.711601 -0.485861 0.507506
v 86.6591 -51.8719 41.3007
vn 0.316681 -0.627262 0.711516
v 87.7105 -52.6445 40.2493
vn 0.51671 -0.449348 0.728764
v 86.8245 -52.4209 40.9297
vn 0.296376 -0.424461 0.855567
v 87.5315 -52.0945 40.6668
vn 0.714676 -0.667883 0.207772
v 86.5123 -51.8089 41.7886
vn 0.374746 -0.624505 0.685244
v 87.2041 -51.4933 40.9937
vn 0.608666 -0.76061 0.225828
v 86.9515 -51.4454 41.4226
vn 0.579088 -0.812801 0.0633374
v 86.9088 -51.47 41.9795
vn 0.394526 -0.87204 0.289647
v 87.5062 -51.1094 41.7044
vn 0.242353 -0.653266 0.717292
v 88.3929 -52.0398 40.5756
vn 0.226792 -0.758895 0.610446
v 88.4683 -50.8748 41.6517
vn 0.368329 -0.698348 0.613713
v 87.9197 -50.7375 42.0896
vn 0.199838 -0.522056 0.82917
v 85.5802 -51.6195 42.4235
vn 0.96014 0.226479 0.163824
v 96.4637 -49.6221 25.844
vn 0.644352 0.759129 0.0923808
v 95.3704 -48.7035 28.013
vn 0.559017 0.606658 0.565214
v 95.1208 -48.6649 28.4446
vn 0.590339 0.804965 0.0594291
v 96.4996 -49.917 26.4746
vn 0.717235 0.660201 -0.222953
v 97.2652 -50.4264 26.3888
vn 0.356866 0.439515 0.824302
v 96.4674 -49.5603 28.7327
vn 0.702648 0.711504 0.00690054
v 97.8245 -50.6528 27.8905
vn 0.437011 0.41793 0.796464
v 95.0858 -49.4079 29.0826
vn 0.881793 -0.214189 -0.420195
v 91.639 -46.1912 35.5581
vn 0.947317 0.0599969 -0.314628
v 91.8106 -46.7927 35.9375
vn 0.989074 0.105024 -0.103456
v 92.0295 -46.9245 36.9043
vn 0.964196 0.167616 0.205503
v 91.9477 -45.9395 38.1989
vn 0.900629 0.356217 -0.248952
v 92.6732 -48.2803 38.5749
vn 0.891995 0.434146 -0.125945
v 92.2085 -46.7685 39.3047
vn 0.320607 -0.493629 0.808419
v 89.6743 -47.2242 44.2058
vn 0.989017 0.129659 0.0709458
v 92.0923 -43.1497 36.5373
vn 0.976996 -0.118711 -0.177162
v 92.175 -45.3529 36.2412
vn 0.871351 0.248843 0.422876
v 90.2904 -42.1975 40.0329
vn 0.891867 0.404102 0.203164
v 89.8041 -42.3685 41.5086
vn 0.819126 0.57272 -0.0320101
v 90.6364 -43.5729 42.6925
vn 0.241778 -0.242757 0.939474
v 87.3444 -43.5341 46.5896
vn 0.632459 0.203649 0.747344
v 90.0704 -43.7512 45.2806
vn 0.471017 -0.229822 0.85166
v 90.3857 -44.8758 45.0026
vn 0.819887 0.435892 0.371192
v 90.7392 -43.9035 44.5226
vn 0.825893 0.482469 0.291761
v 88.5696 -40.6398 44.74
vn -0.0618416 -0.99663 -0.0538948
v 84.1252 -82.4113 39.6377
vn 0.274184 -0.893306 -0.356128
v 86.3328 -81.8234 39.1032
vn -0.501916 -0.800859 0.326657
v 82.7238 -82.0037 39.9143
vn -0.366427 -0.531515 0.763691
v 84.4616 -82.1898 40.964
vn 0.239804 -0.943258 -0.229693
v 88.8298 -77.9774 33.1788
vn 0.340263 -0.88141 -0.327624
v 88.0659 -79.1592 35.7658
vn -0.536293 -0.171651 0.826393
v 83.1926 -80.6428 40.9176
vn -0.46948 0.443241 0.763627
v 84.5839 -73.775 41.5237
vn -0.229277 0.476057 0.849
v 85.6564 -73.6006 41.8661
vn -0.605473 0.0107649 0.795793
v 84.9241 -76.5558 42.3951
vn -0.420255 0.212804 0.8821
v 85.1759 -75.5938 42.527
vn -0.374173 0.039594 0.926513
v 85.7354 -76.8371 42.9078
vn 0.605374 -0.357381 -0.711197
v 96.9118 -74.9991 19.6031
vn 0.749581 0.0524899 -0.659828
v 97.3948 -73.5758 19.6169
vn 0.823367 -0.184339 -0.536736
v 98.4933 -74.5452 21.2717
vn -0.223901 0.43456 0.872368
v 87.0891 -69.7021 39.7207
vn -0.372715 0.49034 0.787814
v 84.9836 -71.7017 40.0394
vn -0.187803 0.684222 0.704677
v 92.5291 -63.3448 37.4016
vn -0.172602 0.554454 0.814119
v 89.5904 -65.6284 37.9245
vn -0.336954 0.622551 0.706323
v 90.2404 -64.7407 37.361
vn 0.952875 -0.0310661 -0.301768
v 98.4977 -60.601 24.1555
vn 0.918832 -0.222914 -0.325665
v 98.5876 -60.1133 24.2842
vn 0.821846 -0.427339 -0.376763
v 98.7661 -59.6422 24.2583
vn 0.922908 -0.380867 -0.0564048
v 99.0196 -59.8195 25.745
vn 0.990593 -0.0423119 -0.130139
v 98.9854 -60.3974 26.7023
vn 0.499636 0.337644 0.797722
v 95.8458 -59.9423 34.1142
vn -0.410522 0.278741 0.868203
v 92.6168 -60.0092 34.1392
vn -0.341741 0.11525 0.932701
v 92.9845 -59.0689 34.0686
vn -0.262829 0.550899 0.792105
v 92.9209 -61.32 34.9008
vn -0.117114 0.271441 0.955303
v 93.9156 -59.3726 34.372
vn 0.294181 0.729596 0.617371
v 94.8512 -61.7844 35.4772
vn 0.404472 -0.356623 -0.842154
v 99.2652 -58.7263 23.9582
vn 0.749261 0.197797 -0.632048
v 100.322 -55.9617 24.7925
vn 0.949043 -0.230644 0.214758
v 99.0647 -59.3698 26.638
vn 0.900149 -0.431125 0.0621535
v 100.102 -58.0274 25.3526
vn 0.914063 -0.116927 -0.388352
v 100.57 -56.5776 25.0371
vn 0.796633 -0.25332 0.548822
v 100.35 -56.6091 26.5005
vn 0.979504 -0.0938998 0.178196
v 100.737 -56.0202 26.0809
vn 0.80555 0.163622 0.569488
v 97.4668 -56.6889 30.066
vn 0.917132 0.0368409 0.396878
v 98.7874 -58.328 27.9724
vn 0.43607 0.00609296 0.899892
v 95.4201 -57.1578 33.5731
vn 0.424737 -0.314184 0.84905
v 94.2236 -54.76 34.4764
vn 0.0988984 0.0787265 0.991978
v 94.1024 -57.3246 34.2242
vn 0.734873 0.496258 -0.462266
v 99.9303 -54.3104 25.3685
vn 0.888078 0.264816 -0.375752
v 100.637 -55.5811 25.4927
vn 0.936736 0.349318 0.022435
v 100.479 -54.5227 26.3517
vn 0.790374 -0.0040301 0.612611
v 100.122 -54.4991 27.3022
vn 0.56249 0.0793056 0.822992
v 98.6357 -53.0882 28.6151
vn 0.785072 0.590761 -0.18618
v 99.3892 -52.5504 27.2532
vn 0.772078 0.403425 0.491063
v 99.0268 -52.1289 28.158
vn 0.690086 -0.0634412 0.720941
v 99.0745 -55.2711 27.942
vn 0.7354 -0.466732 0.491272
v 93.3895 -50.1495 39.7633
vn 0.462412 -0.559382 0.687944
v 92.9695 -49.5555 40.6166
vn 0.968737 0.240707 -0.0600717
v 93.4702 -48.5713 40.2197
vn 0.869602 -0.16971 0.463671
v 93.3815 -48.6428 40.7551
vn 0.911837 0.378093 0.16
v 92.4353 -45.8751 42.8111
vn 0.702266 -0.134267 0.699139
v 91.9085 -45.7718 43.6557
vn 0.074709 -0.970159 0.230674
v 86.042 -82.317 41.3039
vn 0.495841 -0.860888 -0.114077
v 87.437 -81.9722 41.4874
vn 0.466281 -0.863922 -0.190317
v 89.2961 -79.7512 39.4217
vn 0.705286 -0.707958 -0.0369637
v 87.9086 -81.6075 41.7185
vn 0.730344 -0.632971 0.256797
v 88.2401 -81.2254 42.3222
vn 0.742435 -0.652882 0.150116
v 89.3191 -79.9452 41.7701
vn 0.310353 -0.924122 0.22289
v 90.2771 -79.2701 41.0894
vn -0.449878 -0.175151 0.875746
v 85.9479 -80.5379 42.4661
vn -0.366977 -0.38974 0.844648
v 86.3294 -81.1407 42.5003
vn -0.0830934 -0.701623 0.707687
v 87.3838 -81.5091 42.5648
vn 0.425377 -0.838351 0.340913
v 87.8531 -81.6277 42.2675
vn -0.167313 -0.44835 0.87806
v 87.3504 -80.9945 42.9111
vn -0.306606 -0.249999 0.918419
v 87.4591 -80.0059 43.2928
vn -0.338798 -0.137389 0.930774
v 87.6374 -79.0302 43.5529
vn 0.313552 -0.612022 0.726026
v 87.948 -81.1418 42.8487
vn -0.000213701 -0.336061 0.94184
v 87.9806 -80.1753 43.3428
vn -0.0377077 -0.0905803 0.995175
v 88.2501 -78.7051 43.7335
vn 0.549527 -0.411925 0.726868
v 89.3215 -79.009 43.4076
vn 0.225197 -0.972427 -0.0605996
v 96.8811 -76.2199 30.0794
vn 0.189427 -0.949915 -0.248552
v 93.6365 -77.2835 34.7
vn 0.260005 -0.846938 -0.463783
v 93.7487 -77.5428 35.3706
vn 0.302308 -0.932986 -0.195312
v 94.0641 -77.2667 35.0095
vn 0.504857 -0.8265 -0.249034
v 94.2003 -77.3485 35.6085
vn -0.0226638 -0.96692 -0.254073
v 91.9174 -78.0093 36.1077
vn 0.159854 -0.973362 -0.164358
v 91.5723 -78.2201 37.0898
vn 0.036229 -0.914987 -0.401852
v 92.2779 -77.8125 35.6277
vn -0.114055 -0.827731 -0.549411
v 92.6174 -78.0551 35.9348
vn -0.292981 -0.88234 -0.36829
v 92.3179 -78.1805 36.3553
vn -0.239962 -0.962321 -0.127894
v 92.0568 -78.1792 36.7843
vn -0.274689 -0.93154 -0.238283
v 92.682 -78.4711 36.5948
vn -0.0704024 -0.991551 0.10895
v 92.2462 -78.1849 37.472
vn 0.236408 -0.964092 -0.120983
v 91.9693 -78.2358 37.8975
vn -0.00919935 -0.866284 -0.499468
v 93.412 -78.4184 36.4286
vn -0.00518827 -0.946383 -0.323006
v 93.1075 -78.5598 36.848
vn 0.135187 -0.962397 0.235618
v 92.7283 -78.0876 37.7377
vn 0.636575 -0.769571 0.0503282
v 94.0064 -77.9518 36.7192
vn 0.40116 -0.875785 0.26846
v 93.4649 -78.0132 37.5729
vn 0.0308843 0.0353704 0.998897
v 89.511 -76.9874 43.6393
vn 0.738575 -0.571033 0.358369
v 90.0321 -78.16 43.1452
vn 0.878124 0.183829 -0.441708
v 100.925 -73.4518 25.1557
vn 0.922902 -0.038932 -0.383062
v 101.689 -73.7737 26.4821
vn 0.89922 0.330666 -0.286466
v 101.643 -73.2606 26.8484
vn 0.968449 0.249047 -0.00908771
v 100.537 -68.8849 29.0754
vn -0.188171 0.476568 0.858764
v 90.3293 -70.192 40.1367
vn 0.105796 0.603636 0.790209
v 94.5566 -65.1219 39.0778
vn -0.254705 0.498879 0.828399
v 93.2823 -65.3892 39.014
vn 0.288989 -0.951786 -0.1029
v 93.627 -77.8848 38.3812
vn 0.710227 -0.663138 -0.236272
v 94.6299 -77.3899 37.0162
vn 0.27401 -0.656522 0.702778
v 96.0668 -77.331 42.462
vn 0.421421 -0.896794 -0.134781
v 101.153 -74.8541 27.7507
vn 0.522691 -0.828684 -0.20019
v 101.713 -74.3477 27.118
vn 0.988733 -0.00971165 -0.149371
v 101.955 -73.9254 27.5322
vn 0.994614 0.0166244 0.102302
v 102.017 -74.0254 28.7356
vn 0.489622 -0.867079 -0.0918895
v 101.892 -74.5392 28.7192
vn 0.482251 -0.856652 0.18325
v 101.192 -74.885 29.6729
vn 0.395608 -0.906513 0.147406
v 99.4152 -75.1785 31.4195
vn 0.547087 -0.831713 0.0945991
v 99.4678 -75.0682 32.3972
vn 0.682203 -0.729935 -0.0423465
v 99.3629 -75.0847 33.1155
vn 0.646199 -0.680161 0.346133
v 100.148 -74.7103 31.7891
vn 0.825098 -0.530074 0.19554
v 99.7683 -74.6579 32.7234
vn 0.825911 -0.263758 0.4983
v 100.351 -74.2528 31.8564
vn 0.961195 -0.198206 0.191882
v 100.11 -73.7208 32.819
vn 0.856472 0.0688382 0.511582
v 100.567 -73.2553 31.6206
vn 0.906628 -0.412936 -0.0866633
v 100.008 -74.2524 33.396
vn 0.859158 -0.145293 0.490651
v 101.494 -74.0022 30.7485
vn 0.346992 -0.932406 -0.101072
v 97.493 -76.1483 34.0238
vn -0.184164 0.415674 0.890673
v 93.2276 -72.831 42.9009
vn 0.135052 0.268293 0.953824
v 96.2104 -73.7774 43.4804
vn 0.94063 0.110672 0.320886
v 100.829 -72.2483 30.7592
vn 0.987591 -0.118384 -0.103193
v 100.919 -70.2685 32.3354
vn 0.998423 0.0481033 -0.0289441
v 101.632 -69.5775 34.4057
vn 0.313444 0.527726 0.789467
v 98.0749 -69.4664 41.0365
vn 0.196035 0.450039 0.871226
v 97.8147 -70.4803 41.7145
vn 0.45187 0.34059 0.824507
v 98.6755 -70.7287 41.5152
vn 0.696551 0.413169 0.586607
v 99.4051 -70.3745 40.7379
vn -0.0276983 0.465656 0.884532
v 94.5519 -70.5385 42.0267
vn 0.785363 0.436742 0.438704
v 101.005 -67.7704 35.0109
vn 0.53589 0.599624 0.594368
v 98.4069 -68.3444 39.9496
vn 0.385686 -0.914587 0.121561
v 96.6769 -77.463 41.6682
vn 0.494931 -0.863003 -0.101336
v 99.494 -75.9678 37.854
vn 0.903899 -0.427691 -0.00691813
v 100.666 -74.7549 37.8773
vn 0.590139 -0.51639 0.620546
v 97.5303 -76.7026 42.0757
vn 0.698948 -0.681612 0.216511
v 99.3596 -76.0729 40.0182
vn 0.821368 -0.264541 0.505344
v 99.9541 -74.7055 40.3573
vn 0.334808 -0.177431 0.925431
v 96.413 -74.8891 43.5198
vn 0.469865 0.112872 0.875492
v 96.8878 -73.9687 43.2624
vn 0.615101 -0.132323 0.777266
v 97.4997 -74.6523 42.8727
vn 0.930937 0.0760784 0.357168
v 100.753 -72.265 39.3968
vn 0.71113 0.0925655 0.696941
v 99.7181 -72.0651 41.0976
vn -0.748716 0.290022 0.59608
v 64.124 -32.2447 30.5094
vn -0.402128 0.909154 0.108309
v 68.7691 -13.5382 34.4863
vn 0.369786 0.927381 0.0567652
v 80.3449 -9.16794 20.9748
vn -0.905567 -0.403828 0.129891
v 67.378 -50.8209 27.2538
vn -0.848567 -0.323964 -0.418308
v 68.0802 -49.4415 26.93
vn -0.956253 0.225709 -0.186107
v 65.255 -46.6539 37.1661
vn -0.805539 0.317996 0.499985
v 69.336 -32.1744 37.0217
vn 0.972994 0.223559 -0.0574887
v 88.8577 -32.3903 2.86806
vn -0.953448 -0.012354 -0.301305
v 65.4461 -56.5066 34.8554
vn 0.0861358 0.134029 0.987227
v 64.5558 -52.5506 42.3363
vn -0.228918 -0.367962 0.901222
v 64.5558 -52.5506 42.3363
vn -0.575362 0.421485 0.700935
v 64.6729 -47.7045 39.8382
vn 0.24841 -0.358098 0.900032
v 65.4993 -57.5241 41.9383
vn -0.25628 -0.378083 0.889592
v 65.6691 -51.8794 42.8931
vn -0.164473 -0.273604 0.947676
v 67.273 -51.3647 43.5578
vn -0.114128 -0.46434 0.878273
v 68.0791 -54.6717 42.3652
vn 0.652219 -0.034773 0.757233
v 71.3059 -61.1673 38.7086
vn 0.139531 0.276178 0.950924
v 71.8578 -60.791 38.4058
vn 0.302923 -0.529597 0.792316
v 74.4833 -58.9421 37.9761
vn -0.823998 -0.564663 0.0467202
v 75.9279 -78.0379 35.0552
vn -0.409499 -0.910034 -0.0644155
v 75.4829 -77.4908 35.3206
vn -0.297759 -0.590421 -0.750162
v 75.4829 -77.4908 35.3206
vn -0.767846 -0.639865 0.0313749
v 75.4829 -77.4908 35.3206
vn -0.855996 -0.293268 0.425753
v 75.4829 -77.4908 35.3206
vn -0.0711178 0.00565818 0.997452
v 75.5893 -76.4563 36.4284
vn -0.335576 -0.764861 -0.549887
v 82.6825 -74.0525 23.4531
vn -0.252963 -0.786303 -0.563682
v 87.1262 -70.7999 17.0035
vn -0.363912 -0.507051 -0.781324
v 88.2154 -72.2681 18.33
vn -0.0781256 -0.3129 -0.946567
v 89.7833 -68.3987 16.0074
vn -0.496219 -0.826119 0.267009
v 76.5913 -79.1694 35.5559
vn -0.872698 -0.484354 0.061643
v 76.5913 -79.1694 35.5559
vn -0.782946 -0.616911 -0.0801006
v 82.1374 -76.6386 26.8888
vn 0.014001 -0.947846 -0.318422
v 83.3416 -78.1678 30.0563
vn -0.371211 -0.916884 0.146719
v 75.758 -77.5165 35.8562
vn -0.855996 -0.293268 0.425753
v 75.758 -77.5165 35.8562
vn -0.855996 -0.293268 0.425753
v 76.0533 -78.141 36.0196
vn -0.629012 -0.568254 0.530502
v 76.0533 -78.141 36.0196
vn -0.603568 -0.0338412 0.796593
v 76.0533 -78.141 36.0196
vn 0.344343 -0.385746 0.855937
v 76.5985 -75.7205 36.4962
vn -0.132244 0.00352222 0.991211
v 76.6527 -77.3089 36.5091
vn 0.936299 0.351007 0.0117759
v 95.0111 -47.7346 27.7038
vn 0.661676 0.690649 0.291871
v 95.5625 -49.1629 26.4361
vn 0.936299 0.351007 0.0117759
v 95.5625 -49.1629 26.4361
vn 0.0732881 -0.0107358 -0.997253
v 92.6176 -75.1264 17.5621
vn 0.55063 -0.180395 -0.815024
v 95.6828 -74.0053 18.1761
vn 0.824101 0.538291 -0.176352
v 96.9107 -50.5158 24.4594
vn 0.889483 0.0455922 0.454689
v 93.6996 -54.1228 35.1572
vn 0.727072 -0.6182 0.298654
v 86.1769 -52.2723 41.646
vn 0.351996 -0.619582 0.701582
v 86.5123 -51.8089 41.7886
vn 0.308321 -0.634363 0.708888
v 86.9088 -51.47 41.9795
vn 0.6369 0.603545 0.479678
v 96.4637 -49.6221 25.844
vn 0.752763 0.636547 -0.167796
v 96.4637 -49.6221 25.844
vn 0.936299 0.351007 0.0117759
v 95.3704 -48.7035 28.013
vn 0.548467 0.769029 0.328297
v 97.2652 -50.4264 26.3888
vn 0.62216 0.762664 0.176807
v 96.4674 -49.5603 28.7327
vn -0.176664 -0.96257 0.205544
v 84.4616 -82.1898 40.964
vn 0.342736 -0.926281 -0.156637
v 96.9118 -74.9991 19.6031
vn 0.49167 -0.836563 -0.241707
v 98.4933 -74.5452 21.2717
vn 0.170384 0.417549 0.892537
v 94.8512 -61.7844 35.4772
vn 0.84589 -0.367029 -0.386989
v 99.2652 -58.7263 23.9582
vn 0.841198 0.165488 0.514782
v 95.4201 -57.1578 33.5731
vn 0.822839 0.158063 0.54585
v 94.2236 -54.76 34.4764
vn -0.102485 -0.423588 0.900039
v 94.1024 -57.3246 34.2242
vn 0.700836 -0.589403 0.401788
v 90.2771 -79.2701 41.0894
vn 0.612169 -0.767754 -0.189215
v 93.412 -78.4184 36.4286
vn 0.210522 -0.916556 0.340007
v 93.1075 -78.5598 36.848
vn 0.17264 -0.857949 0.483858
v 90.0321 -78.16 43.1452
vn 0.326589 -0.240083 0.914166
v 90.0321 -78.16 43.1452
vn 0.401689 -0.915716 0.0105482
v 94.6299 -77.3899 37.0162
vn 0.887757 -0.362213 -0.28406
v 101.713 -74.3477 27.118
vn 0.920563 -0.380731 0.0872264
v 101.892 -74.5392 28.7192
f 9//9 1//1 2//2
f 5//5 9//9 2//2
f 10//10 2//2 3//3
f 2//2 1//1 3//3
f 1//1 9//9 11//11
f 3//3 1//1 16//16
f 3//3 16//16 15//15
f 1//1 11//11 16//16
f 16//16 11//11 13//13
f 4//4 30//30 6//6
f 5//5 4//4 9//9
f 4//4 27//27 30//30
f 5//5 19//19 27//27
f 5//5 27//27 4//4
f 6//6 9//9 4//4
f 6//6 7//7 9//9
f 8//8 7//7 6//6
f 20//20 19//19 5//5
f 20//20 10//10 23//23
f 5//5 2//2 10//10
f 10//10 20//20 5//5
f 10//10 3//3 23//23
f 7//7 12//12 9//9
f 12//12 7//7 21//21
f 3//3 15//15 23//23
f 11//11 9//9 12//12
f 11//11 12//12 14//14
f 14//14 13//13 11//11
f 21//21 14//14 12//12
f 18//18 16//16 13//13
f 13//13 25//25 18//18
f 17//17 15//15 16//16
f 17//17 53//53 15//15
f 16//16 18//18 17//17
f 17//17 18//18 26//26
f 6//6 30//30 32//32
f 8//8 6//6 32//32
f 35//35 19//19 37//37
f 19//19 35//35 28//28
f 8//8 33//33 36//36
f 8//8 21//21 7//7
f 21//21 8//8 38//38
f 38//38 8//8 36//36
f 37//37 19//19 20//20
f 37//37 20//20 44//44
f 20//20 23//23 44//44
f 21//21 38//38 39//39
f 39//39 22//22 21//21
f 14//14 21//21 22//22
f 24//24 23//23 15//15
f 24//24 15//15 53//53
f 14//14 25//25 13//13
f 26//26 18//18 25//25
f 53//53 17//17 26//26
f 56//56 26//26 25//25
f 27//27 19//19 28//28
f 27//27 29//29 30//30
f 29//29 28//28 35//35
f 30//30 29//29 31//31
f 28//28 29//29 27//27
f 41//41 29//29 35//35
f 31//31 34//34 30//30
f 32//32 33//33 8//8
f 30//30 34//34 32//32
f 33//33 32//32 34//34
f 35//35 46//46 41//41
f 59//59 36//36 33//33
f 46//46 35//35 37//37
f 46//46 37//37 44//44
f 23//23 72//72 44//44
f 14//14 22//22 49//49
f 22//22 47//47 49//49
f 49//49 25//25 14//14
f 56//56 54//54 26//26
f 26//26 54//54 53//53
f 40//40 59//59 34//34
f 41//41 42//42 29//29
f 31//31 42//42 43//43
f 29//29 42//42 31//31
f 42//42 41//41 62//62
f 60//60 42//42 62//62
f 43//43 34//34 31//31
f 43//43 61//61 34//34
f 43//43 42//42 60//60
f 34//34 59//59 33//33
f 61//61 40//40 34//34
f 38//38 36//36 59//59
f 46//46 66//66 41//41
f 41//41 66//66 62//62
f 38//38 65//65 39//39
f 69//69 44//44 72//72
f 46//46 44//44 45//45
f 46//46 45//45 70//70
f 22//22 39//39 47//47
f 65//65 47//47 39//39
f 65//65 71//71 47//47
f 23//23 48//48 73//73
f 23//23 24//24 48//48
f 48//48 24//24 51//51
f 48//48 51//51 73//73
f 52//52 56//56 25//25
f 47//47 50//50 49//49
f 50//50 52//52 49//49
f 49//49 52//52 25//25
f 47//47 76//76 50//50
f 76//76 52//52 50//50
f 24//24 53//53 51//51
f 79//79 51//51 53//53
f 79//79 53//53 80//80
f 53//53 54//54 80//80
f 54//54 56//56 55//55
f 54//54 55//55 82//82
f 55//55 56//56 82//82
f 80//80 54//54 99//99
f 57//57 84//84 40//40
f 84//84 58//58 40//40
f 58//58 59//59 40//40
f 62//62 64//64 60//60
f 57//57 64//64 84//84
f 60//60 61//61 43//43
f 57//57 40//40 61//61
f 61//61 60//60 57//57
f 85//85 38//38 59//59
f 85//85 65//65 38//38
f 64//64 63//63 145//145
f 63//63 62//62 66//66
f 64//64 62//62 63//63
f 57//57 60//60 64//64
f 46//46 70//70 66//66
f 145//145 63//63 66//66
f 70//70 145//145 66//66
f 67//67 70//70 45//45
f 44//44 69//69 68//68
f 67//67 45//45 68//68
f 45//45 44//44 68//68
f 68//68 89//89 67//67
f 69//69 86//86 68//68
f 68//68 86//86 89//89
f 92//92 69//69 91//91
f 70//70 67//67 89//89
f 145//145 70//70 89//89
f 91//91 69//69 72//72
f 91//91 72//72 73//73
f 71//71 151//151 47//47
f 72//72 23//23 73//73
f 47//47 74//74 76//76
f 51//51 75//75 73//73
f 75//75 51//51 77//77
f 79//79 77//77 51//51
f 79//79 81//81 77//77
f 76//76 95//95 52//52
f 78//78 52//52 95//95
f 102//102 82//82 56//56
f 52//52 644//644 56//56
f 81//81 79//79 80//80
f 81//81 80//80 100//100
f 100//100 80//80 99//99
f 100//100 158//158 81//81
f 99//99 54//54 98//98
f 98//98 54//54 82//82
f 58//58 119//119 83//83
f 145//145 120//120 84//84
f 84//84 119//119 58//58
f 58//58 83//83 85//85
f 59//59 58//58 85//85
f 84//84 64//64 145//145
f 142//142 65//65 85//85
f 142//142 143//143 65//65
f 65//65 648//648 147//147
f 145//145 89//89 88//88
f 88//88 90//90 145//145
f 65//65 147//147 71//71
f 92//92 86//86 69//69
f 89//89 86//86 87//87
f 87//87 150//150 88//88
f 88//88 89//89 87//87
f 87//87 86//86 150//150
f 90//90 88//88 150//150
f 92//92 152//152 86//86
f 92//92 91//91 153//153
f 91//91 93//93 153//153
f 152//152 92//92 153//153
f 74//74 47//47 151//151
f 74//74 151//151 94//94
f 73//73 93//93 91//91
f 75//75 93//93 73//73
f 74//74 94//94 76//76
f 157//157 95//95 94//94
f 75//75 77//77 93//93
f 94//94 95//95 76//76
f 77//77 156//156 93//93
f 81//81 156//156 77//77
f 158//158 156//156 81//81
f 95//95 97//97 78//78
f 95//95 157//157 97//97
f 56//56 644//644 96//96
f 78//78 97//97 96//96
f 102//102 56//56 96//96
f 99//99 98//98 101//101
f 100//100 99//99 645//645
f 98//98 82//82 101//101
f 101//101 82//82 102//102
f 645//645 102//102 164//164
f 104//104 103//103 107//107
f 106//106 104//104 108//108
f 106//106 105//105 104//104
f 166//166 103//103 104//104
f 166//166 167//167 103//103
f 166//166 104//104 105//105
f 114//114 105//105 106//106
f 107//107 103//103 111//111
f 167//167 111//111 103//103
f 104//104 107//107 108//108
f 109//109 106//106 108//108
f 106//106 109//109 114//114
f 107//107 115//115 108//108
f 115//115 109//109 108//108
f 107//107 110//110 115//115
f 111//111 110//110 107//107
f 111//111 112//112 110//110
f 111//111 169//169 112//112
f 112//112 180//180 110//110
f 110//110 180//180 117//117
f 173//173 180//180 112//112
f 176//176 83//83 119//119
f 176//176 85//85 83//83
f 113//113 119//119 120//120
f 113//113 176//176 119//119
f 176//176 121//121 85//85
f 216//216 168//168 131//131
f 168//168 133//133 131//131
f 114//114 109//109 118//118
f 114//114 118//118 134//134
f 110//110 117//117 115//115
f 115//115 116//116 109//109
f 117//117 116//116 115//115
f 116//116 117//117 183//183
f 117//117 179//179 183//183
f 109//109 116//116 118//118
f 135//135 118//118 116//116
f 116//116 183//183 135//135
f 179//179 117//117 180//180
f 118//118 135//135 134//134
f 120//120 119//119 84//84
f 126//126 141//141 137//137
f 140//140 122//122 123//123
f 123//123 126//126 140//140
f 126//126 136//136 140//140
f 126//126 137//137 136//136
f 127//127 126//126 124//124
f 121//121 122//122 140//140
f 122//122 124//124 123//123
f 124//124 126//126 123//123
f 121//121 177//177 125//125
f 125//125 122//122 121//121
f 127//127 124//124 125//125
f 124//124 122//122 125//125
f 132//132 127//127 125//125
f 177//177 132//132 125//125
f 127//127 130//130 646//646
f 128//128 126//126 130//130
f 141//141 126//126 128//128
f 129//129 127//127 132//132
f 129//129 131//131 130//130
f 129//129 130//130 127//127
f 131//131 133//133 130//130
f 128//128 130//130 142//142
f 130//130 133//133 142//142
f 129//129 132//132 131//131
f 132//132 177//177 131//131
f 648//648 134//134 144//144
f 134//134 184//184 144//144
f 179//179 185//185 183//183
f 135//135 184//184 134//134
f 183//183 184//184 135//135
f 140//140 85//85 121//121
f 140//140 138//138 85//85
f 140//140 136//136 138//138
f 136//136 139//139 138//138
f 136//136 137//137 139//139
f 137//137 141//141 139//139
f 138//138 647//647 85//85
f 647//647 142//142 85//85
f 142//142 133//133 143//143
f 141//141 128//128 142//142
f 141//141 142//142 139//139
f 144//144 146//146 648//648
f 648//648 146//146 147//147
f 191//191 145//145 193//193
f 146//146 194//194 147//147
f 193//193 145//145 90//90
f 193//193 90//90 148//148
f 643//643 147//147 649//649
f 147//147 194//194 149//149
f 649//649 147//147 149//149
f 149//149 243//243 151//151
f 150//150 86//86 152//152
f 148//148 90//90 150//150
f 152//152 154//154 150//150
f 154//154 148//148 150//150
f 93//93 155//155 650//650
f 153//153 154//154 152//152
f 155//155 154//154 650//650
f 154//154 155//155 198//198
f 155//155 156//156 199//199
f 155//155 199//199 198//198
f 151//151 246//246 94//94
f 156//156 155//155 93//93
f 157//157 94//94 246//246
f 158//158 326//326 156//156
f 326//326 158//158 202//202
f 159//159 201//201 202//202
f 97//97 160//160 96//96
f 102//102 96//96 161//161
f 160//160 161//161 96//96
f 160//160 97//97 157//157
f 162//162 161//161 160//160
f 162//162 165//165 161//161
f 160//160 157//157 163//163
f 163//163 162//162 160//160
f 159//159 165//165 162//162
f 201//201 163//163 157//157
f 159//159 163//163 201//201
f 162//162 163//163 159//159
f 164//164 100//100 645//645
f 164//164 158//158 100//100
f 202//202 164//164 165//165
f 164//164 202//202 158//158
f 164//164 102//102 165//165
f 161//161 165//165 102//102
f 105//105 168//168 204//204
f 166//166 105//105 203//203
f 203//203 105//105 204//204
f 167//167 205//205 206//206
f 216//216 204//204 168//168
f 168//168 105//105 114//114
f 168//168 114//114 178//178
f 167//167 169//169 111//111
f 174//174 112//112 169//169
f 170//170 169//169 167//167
f 217//217 170//170 167//167
f 171//171 169//169 170//170
f 170//170 217//217 218//218
f 218//218 171//171 170//170
f 174//174 169//169 175//175
f 171//171 175//175 169//169
f 176//176 208//208 213//213
f 177//177 216//216 131//131
f 172//172 221//221 181//181
f 174//174 173//173 112//112
f 174//174 181//181 173//173
f 175//175 172//172 174//174
f 174//174 172//172 181//181
f 171//171 230//230 175//175
f 230//230 172//172 175//175
f 234//234 220//220 120//120
f 113//113 120//120 220//220
f 176//176 213//213 121//121
f 168//168 651//651 133//133
f 114//114 134//134 178//178
f 187//187 179//179 182//182
f 182//182 233//233 652//652
f 182//182 181//181 233//233
f 180//180 182//182 179//179
f 181//181 182//182 173//173
f 182//182 180//180 173//173
f 145//145 238//238 120//120
f 234//234 120//120 238//238
f 134//134 648//648 178//178
f 651//651 143//143 133//133
f 184//184 183//183 186//186
f 186//186 183//183 185//185
f 186//186 187//187 188//188
f 185//185 187//187 186//186
f 187//187 185//185 179//179
f 187//187 235//235 188//188
f 235//235 189//189 188//188
f 652//652 233//233 237//237
f 658//658 656//656 653//653
f 236//236 189//189 235//235
f 184//184 186//186 144//144
f 190//190 144//144 186//186
f 146//146 144//144 190//190
f 190//190 192//192 146//146
f 654//654 186//186 188//188
f 189//189 654//654 188//188
f 242//242 192//192 654//654
f 239//239 242//242 654//654
f 239//239 654//654 189//189
f 241//241 191//191 193//193
f 192//192 194//194 146//146
f 242//242 195//195 192//192
f 241//241 193//193 196//196
f 192//192 195//195 194//194
f 148//148 196//196 193//193
f 196//196 148//148 200//200
f 149//149 197//197 243//243
f 197//197 149//149 194//194
f 195//195 197//197 194//194
f 276//276 197//197 195//195
f 243//243 197//197 276//276
f 154//154 200//200 148//148
f 200//200 154//154 198//198
f 199//199 200//200 198//198
f 199//199 275//275 200//200
f 243//243 246//246 151//151
f 275//275 199//199 156//156
f 275//275 156//156 320//320
f 247//247 157//157 246//246
f 157//157 247//247 201//201
f 279//279 201//201 247//247
f 159//159 202//202 165//165
f 248//248 326//326 202//202
f 248//248 202//202 201//201
f 203//203 249//249 166//166
f 166//166 249//249 205//205
f 250//250 253//253 211//211
f 212//212 211//211 209//209
f 214//214 211//211 253//253
f 211//211 212//212 250//250
f 166//166 205//205 167//167
f 217//217 206//206 219//219
f 206//206 217//217 167//167
f 212//212 210//210 255//255
f 176//176 207//207 208//208
f 210//210 207//207 176//176
f 209//209 211//211 207//207
f 207//207 211//211 208//208
f 207//207 210//210 209//209
f 211//211 213//213 208//208
f 212//212 209//209 210//210
f 214//214 213//213 211//211
f 214//214 254//254 213//213
f 214//214 253//253 254//254
f 177//177 254//254 215//215
f 215//215 216//216 177//177
f 215//215 203//203 216//216
f 216//216 203//203 204//204
f 217//217 219//219 218//218
f 222//222 228//228 218//218
f 222//222 218//218 219//219
f 219//219 224//224 222//222
f 171//171 218//218 228//228
f 210//210 220//220 255//255
f 113//113 210//210 176//176
f 220//220 210//210 113//113
f 213//213 177//177 121//121
f 177//177 213//213 254//254
f 229//229 228//228 222//222
f 223//223 172//172 230//230
f 223//223 221//221 172//172
f 222//222 224//224 229//229
f 224//224 225//225 229//229
f 225//225 223//223 230//230
f 223//223 226//226 221//221
f 226//226 181//181 221//221
f 232//232 181//181 226//226
f 225//225 227//227 223//223
f 227//227 226//226 223//223
f 225//225 261//261 227//227
f 228//228 230//230 171//171
f 228//228 229//229 230//230
f 229//229 225//225 230//230
f 256//256 220//220 234//234
f 234//234 238//238 256//256
f 231//231 655//655 269//269
f 269//269 232//232 226//226
f 231//231 272//272 658//658
f 181//181 655//655 231//231
f 181//181 231//231 233//233
f 233//233 231//231 658//658
f 256//256 238//238 265//265
f 658//658 273//273 656//656
f 657//657 656//656 273//273
f 273//273 274//274 657//657
f 272//272 273//273 658//658
f 238//238 145//145 191//191
f 236//236 239//239 189//189
f 240//240 239//239 236//236
f 242//242 239//239 240//240
f 240//240 236//236 274//274
f 274//274 242//242 240//240
f 238//238 191//191 241//241
f 241//241 313//313 238//238
f 242//242 276//276 195//195
f 196//196 200//200 275//275
f 243//243 244//244 246//246
f 244//244 243//243 245//245
f 245//245 243//243 276//276
f 244//244 245//245 280//280
f 320//320 156//156 326//326
f 280//280 279//279 246//246
f 280//280 246//246 244//244
f 279//279 247//247 246//246
f 201//201 279//279 248//248
f 281//281 326//326 248//248
f 279//279 281//281 248//248
f 283//283 203//203 301//301
f 203//203 283//283 249//249
f 249//249 284//284 205//205
f 206//206 205//205 284//284
f 206//206 284//284 285//285
f 342//342 285//285 284//284
f 251//251 250//250 212//212
f 250//250 251//251 289//289
f 252//252 289//289 251//251
f 303//303 290//290 252//252
f 290//290 289//289 252//252
f 292//292 254//254 253//253
f 253//253 289//289 292//292
f 250//250 289//289 253//253
f 292//292 299//299 254//254
f 215//215 254//254 299//299
f 215//215 299//299 298//298
f 285//285 302//302 206//206
f 206//206 263//263 219//219
f 206//206 302//302 263//263
f 255//255 220//220 256//256
f 255//255 252//252 251//251
f 307//307 252//252 255//255
f 212//212 255//255 251//251
f 224//224 219//219 263//263
f 255//255 256//256 306//306
f 265//265 306//306 256//256
f 257//257 260//260 259//259
f 266//266 260//260 659//659
f 266//266 659//659 258//258
f 259//259 310//310 257//257
f 310//310 309//309 257//257
f 309//309 660//660 257//257
f 268//268 660//660 309//309
f 260//260 226//226 227//227
f 226//226 260//260 269//269
f 260//260 266//266 270//270
f 269//269 260//260 270//270
f 261//261 262//262 227//227
f 263//263 264//264 261//261
f 259//259 262//262 264//264
f 261//261 264//264 262//262
f 262//262 259//259 260//260
f 227//227 262//262 260//260
f 310//310 259//259 264//264
f 224//224 261//261 225//225
f 224//224 263//263 261//261
f 266//266 267//267 271//271
f 266//266 258//258 661//661
f 266//266 661//661 267//267
f 267//267 661//661 231//231
f 661//661 373//373 458//458
f 269//269 270//270 271//271
f 271//271 270//270 266//266
f 269//269 271//271 231//231
f 231//231 661//661 272//272
f 271//271 267//267 231//231
f 661//661 458//458 272//272
f 272//272 458//458 273//273
f 273//273 471//471 274//274
f 313//313 265//265 238//238
f 471//471 319//319 274//274
f 242//242 274//274 319//319
f 318//318 313//313 241//241
f 241//241 196//196 318//318
f 318//318 196//196 275//275
f 245//245 277//277 280//280
f 245//245 276//276 277//277
f 276//276 278//278 277//277
f 242//242 278//278 276//276
f 277//277 324//324 280//280
f 280//280 324//324 329//329
f 329//329 279//279 280//280
f 295//295 282//282 296//296
f 351//351 334//334 282//282
f 300//300 338//338 301//301
f 301//301 286//286 287//287
f 249//249 283//283 284//284
f 283//283 663//663 284//284
f 663//663 676//676 284//284
f 301//301 664//664 283//283
f 288//288 285//285 342//342
f 285//285 288//288 302//302
f 344//344 665//665 662//662
f 677//677 666//666 678//678
f 302//302 288//288 343//343
f 290//290 303//303 291//291
f 282//282 668//668 669//669
f 293//293 289//289 290//290
f 290//290 291//291 293//293
f 289//289 293//293 292//292
f 292//292 293//293 294//294
f 294//294 293//293 295//295
f 294//294 296//296 299//299
f 292//292 294//294 299//299
f 291//291 295//295 293//293
f 295//295 296//296 294//294
f 282//282 295//295 668//668
f 301//301 215//215 297//297
f 215//215 298//298 297//297
f 300//300 301//301 297//297
f 300//300 298//298 299//299
f 298//298 300//300 297//297
f 337//337 338//338 300//300
f 299//299 296//296 300//300
f 203//203 215//215 301//301
f 252//252 307//307 303//303
f 304//304 303//303 307//307
f 671//671 352//352 670//670
f 305//305 263//263 302//302
f 310//310 264//264 305//305
f 305//305 264//264 263//263
f 307//307 255//255 306//306
f 311//311 307//307 306//306
f 312//312 308//308 366//366
f 309//309 312//312 268//268
f 308//308 309//309 310//310
f 309//309 308//308 312//312
f 310//310 305//305 308//308
f 306//306 265//265 311//311
f 367//367 313//313 314//314
f 311//311 367//367 307//307
f 316//316 661//661 312//312
f 373//373 661//661 316//316
f 311//311 265//265 313//313
f 311//311 313//313 367//367
f 312//312 315//315 316//316
f 316//316 315//315 373//373
f 314//314 313//313 317//317
f 317//317 318//318 376//376
f 458//458 471//471 273//273
f 317//317 313//313 318//318
f 319//319 471//471 387//387
f 320//320 388//388 275//275
f 321//321 322//322 389//389
f 389//389 322//322 323//323
f 319//319 325//325 242//242
f 326//326 321//321 320//320
f 321//321 326//326 322//322
f 322//322 326//326 323//323
f 323//323 326//326 327//327
f 324//324 277//277 278//278
f 242//242 325//325 278//278
f 325//325 324//324 278//278
f 327//327 326//326 281//281
f 328//328 281//281 398//398
f 329//329 398//398 279//279
f 398//398 281//281 279//279
f 330//330 332//332 286//286
f 400//400 331//331 330//330
f 331//331 672//672 330//330
f 331//331 333//333 672//672
f 662//662 673//673 344//344
f 347//347 679//679 672//672
f 347//347 672//672 333//333
f 333//333 499//499 347//347
f 334//334 335//335 282//282
f 282//282 335//335 296//296
f 674//674 341//341 337//337
f 296//296 674//674 337//337
f 675//675 334//334 336//336
f 675//675 335//335 334//334
f 301//301 338//338 330//330
f 338//338 337//337 340//340
f 341//341 340//340 337//337
f 339//339 400//400 330//330
f 340//340 400//400 339//339
f 340//340 339//339 338//338
f 338//338 339//339 330//330
f 400//400 340//340 341//341
f 301//301 330//330 286//286
f 342//342 680//680 346//346
f 342//342 346//346 288//288
f 345//345 667//667 682//682
f 343//343 288//288 681//681
f 343//343 681//681 356//356
f 346//346 680//680 347//347
f 345//345 359//359 356//356
f 345//345 682//682 359//359
f 347//347 405//405 346//346
f 405//405 359//359 346//346
f 670//670 352//352 349//349
f 349//349 348//348 670//670
f 348//348 282//282 670//670
f 350//350 351//351 348//348
f 350//350 349//349 352//352
f 348//348 349//349 350//350
f 352//352 363//363 351//351
f 350//350 352//352 351//351
f 351//351 401//401 353//353
f 401//401 404//404 353//353
f 401//401 351//351 402//402
f 686//686 351//351 363//363
f 363//363 406//406 686//686
f 282//282 348//348 351//351
f 670//670 282//282 669//669
f 404//404 334//334 353//353
f 351//351 353//353 334//334
f 404//404 336//336 334//334
f 337//337 300//300 296//296
f 355//355 354//354 357//357
f 354//354 362//362 343//343
f 354//354 355//355 362//362
f 354//354 343//343 356//356
f 354//354 356//356 357//357
f 366//366 355//355 358//358
f 357//357 360//360 358//358
f 357//357 358//358 355//355
f 358//358 360//360 366//366
f 356//356 360//360 357//357
f 361//361 356//356 359//359
f 356//356 361//361 360//360
f 405//405 361//361 359//359
f 407//407 360//360 361//361
f 405//405 407//407 361//361
f 362//362 302//302 343//343
f 302//302 362//362 305//305
f 671//671 363//363 352//352
f 406//406 363//363 671//671
f 408//408 366//366 407//407
f 308//308 362//362 355//355
f 308//308 355//355 366//366
f 360//360 407//407 366//366
f 362//362 308//308 305//305
f 687//687 307//307 411//411
f 369//369 312//312 366//366
f 366//366 364//364 369//369
f 412//412 365//365 366//366
f 366//366 365//365 364//364
f 408//408 412//412 366//366
f 307//307 367//367 420//420
f 314//314 420//420 367//367
f 312//312 369//369 370//370
f 370//370 368//368 371//371
f 364//364 370//370 369//369
f 364//364 368//368 370//370
f 414//414 368//368 364//364
f 371//371 424//424 372//372
f 372//372 424//424 374//374
f 368//368 425//425 371//371
f 315//315 370//370 372//372
f 312//312 370//370 315//315
f 372//372 370//370 371//371
f 372//372 374//374 315//315
f 315//315 374//374 373//373
f 375//375 314//314 317//317
f 317//317 376//376 375//375
f 374//374 458//458 373//373
f 275//275 388//388 318//318
f 439//439 318//318 388//388
f 439//439 376//376 318//318
f 376//376 439//439 430//430
f 448//448 377//377 450//450
f 377//377 451//451 450//450
f 387//387 471//471 486//486
f 388//388 378//378 440//440
f 378//378 472//472 440//440
f 380//380 381//381 379//379
f 378//378 321//321 379//379
f 379//379 321//321 380//380
f 382//382 380//380 321//321
f 693//693 379//379 684//684
f 378//378 379//379 693//693
f 684//684 475//475 693//693
f 475//475 684//684 473//473
f 695//695 685//685 683//683
f 473//473 380//380 382//382
f 382//382 474//474 473//473
f 382//382 389//389 377//377
f 377//377 383//383 382//382
f 383//383 377//377 447//447
f 383//383 474//474 382//382
f 451//451 377//377 385//385
f 377//377 384//384 385//385
f 385//385 384//384 386//386
f 386//386 392//392 385//385
f 451//451 385//385 481//481
f 481//481 385//385 480//480
f 385//385 392//392 480//480
f 393//393 319//319 387//387
f 388//388 320//320 378//378
f 320//320 321//321 378//378
f 321//321 389//389 382//382
f 389//389 323//323 390//390
f 390//390 323//323 395//395
f 384//384 377//377 389//389
f 390//390 384//384 389//389
f 390//390 395//395 487//487
f 487//487 395//395 327//327
f 386//386 384//384 390//390
f 390//390 391//391 386//386
f 386//386 391//391 392//392
f 487//487 391//391 390//390
f 487//487 396//396 483//483
f 487//487 327//327 396//396
f 319//319 393//393 325//325
f 394//394 325//325 393//393
f 395//395 323//323 327//327
f 281//281 396//396 327//327
f 281//281 328//328 397//397
f 397//397 396//396 281//281
f 328//328 496//496 490//490
f 396//396 397//397 489//489
f 397//397 490//490 489//489
f 397//397 328//328 490//490
f 329//329 324//324 398//398
f 328//328 398//398 496//496
f 325//325 398//398 324//324
f 394//394 398//398 325//325
f 331//331 400//400 399//399
f 331//331 399//399 499//499
f 333//333 331//331 499//499
f 336//336 501//501 502//502
f 336//336 502//502 675//675
f 675//675 502//502 400//400
f 503//503 347//347 499//499
f 402//402 687//687 403//403
f 403//403 401//401 402//402
f 403//403 687//687 509//509
f 404//404 401//401 572//572
f 572//572 336//336 404//404
f 401//401 403//403 572//572
f 513//513 407//407 405//405
f 687//687 411//411 510//510
f 410//410 409//409 407//407
f 408//408 409//409 412//412
f 409//409 408//408 407//407
f 412//412 410//410 416//416
f 409//409 410//410 412//412
f 513//513 410//410 407//407
f 420//420 411//411 307//307
f 415//415 365//365 412//412
f 413//413 365//365 415//415
f 365//365 414//414 364//364
f 413//413 414//414 365//365
f 412//412 416//416 415//415
f 417//417 413//413 415//415
f 417//417 414//414 413//413
f 415//415 416//416 418//418
f 419//419 414//414 417//417
f 410//410 418//418 416//416
f 417//417 418//418 512//512
f 418//418 417//417 415//415
f 410//410 512//512 418//418
f 515//515 417//417 512//512
f 513//513 512//512 410//410
f 414//414 425//425 368//368
f 420//420 314//314 375//375
f 421//421 422//422 420//420
f 422//422 517//517 420//420
f 375//375 421//421 420//420
f 375//375 430//430 421//421
f 421//421 423//423 422//422
f 423//423 421//421 434//434
f 517//517 423//423 518//518
f 422//422 423//423 517//517
f 434//434 519//519 423//423
f 423//423 519//519 518//518
f 519//519 434//434 528//528
f 424//424 371//371 425//425
f 374//374 424//424 438//438
f 426//426 424//424 425//425
f 427//427 424//424 426//426
f 427//427 438//438 424//424
f 438//438 427//427 437//437
f 414//414 419//419 425//425
f 419//419 428//428 425//425
f 425//425 428//428 426//426
f 428//428 427//427 426//426
f 428//428 419//419 525//525
f 428//428 437//437 427//427
f 428//428 429//429 437//437
f 523//523 428//428 525//525
f 523//523 429//429 428//428
f 429//429 524//524 437//437
f 430//430 375//375 376//376
f 431//431 430//430 432//432
f 432//432 430//430 441//441
f 430//430 431//431 421//421
f 421//421 431//431 433//433
f 433//433 431//431 432//432
f 433//433 434//434 421//421
f 435//435 434//434 433//433
f 435//435 433//433 436//436
f 433//433 432//432 436//436
f 441//441 436//436 432//432
f 528//528 434//434 435//435
f 528//528 435//435 436//436
f 436//436 441//441 443//443
f 535//535 449//449 454//454
f 437//437 524//524 539//539
f 438//438 539//539 537//537
f 437//437 705//705 438//438
f 538//538 438//438 537//537
f 455//455 438//438 538//538
f 454//454 689//689 704//704
f 438//438 468//468 374//374
f 461//461 374//374 460//460
f 461//461 458//458 374//374
f 460//460 462//462 461//461
f 441//441 430//430 439//439
f 441//441 439//439 440//440
f 440//440 439//439 388//388
f 440//440 442//442 441//441
f 442//442 443//443 441//441
f 476//476 442//442 688//688
f 476//476 545//545 442//442
f 540//540 443//443 442//442
f 540//540 442//442 545//545
f 479//479 444//444 477//477
f 445//445 444//444 479//479
f 476//476 478//478 545//545
f 477//477 444//444 546//546
f 546//546 478//478 697//697
f 544//544 444//444 445//445
f 445//445 449//449 446//446
f 445//445 446//446 544//544
f 444//444 544//544 546//546
f 546//546 545//545 478//478
f 377//377 448//448 447//447
f 447//447 448//448 449//449
f 448//448 452//452 449//449
f 449//449 479//479 447//447
f 479//479 449//449 445//445
f 450//450 452//452 448//448
f 453//453 456//456 452//452
f 453//453 452//452 451//451
f 452//452 454//454 449//449
f 454//454 452//452 456//456
f 454//454 456//456 689//689
f 689//689 456//456 457//457
f 438//438 455//455 457//457
f 549//549 469//469 468//468
f 457//457 548//548 438//438
f 548//548 468//468 438//438
f 548//548 549//549 468//468
f 459//459 461//461 464//464
f 461//461 459//459 458//458
f 690//690 459//459 463//463
f 458//458 691//691 471//471
f 374//374 468//468 460//460
f 462//462 460//460 468//468
f 461//461 462//462 464//464
f 459//459 464//464 465//465
f 463//463 459//459 465//465
f 466//466 463//463 465//465
f 471//471 691//691 692//692
f 464//464 467//467 465//465
f 469//469 467//467 464//464
f 467//467 466//466 465//465
f 462//462 468//468 464//464
f 469//469 464//464 468//468
f 470//470 466//466 467//467
f 471//471 692//692 470//470
f 486//486 471//471 470//470
f 469//469 470//470 467//467
f 549//549 470//470 469//469
f 549//549 486//486 470//470
f 476//476 688//688 694//694
f 475//475 696//696 693//693
f 476//476 475//475 473//473
f 473//473 474//474 697//697
f 477//477 474//474 479//479
f 478//478 476//476 473//473
f 478//478 473//473 697//697
f 447//447 479//479 383//383
f 479//479 474//474 383//383
f 452//452 450//450 451//451
f 392//392 488//488 480//480
f 488//488 481//481 480//480
f 481//481 484//484 451//451
f 484//484 481//481 482//482
f 481//481 488//488 482//482
f 482//482 488//488 483//483
f 482//482 483//483 485//485
f 482//482 485//485 484//484
f 451//451 484//484 453//453
f 456//456 453//453 484//484
f 550//550 484//484 485//485
f 553//553 486//486 549//549
f 494//494 486//486 553//553
f 552//552 550//550 485//485
f 553//553 549//549 551//551
f 552//552 485//485 491//491
f 492//492 387//387 486//486
f 494//494 492//492 486//486
f 392//392 391//391 488//488
f 487//487 488//488 391//391
f 483//483 488//488 487//487
f 483//483 490//490 485//485
f 490//490 483//483 489//489
f 490//490 496//496 491//491
f 483//483 396//396 489//489
f 491//491 485//485 490//490
f 495//495 552//552 491//491
f 553//553 552//552 495//495
f 398//398 394//394 493//493
f 492//492 493//493 394//394
f 398//398 493//493 496//496
f 492//492 394//394 393//393
f 387//387 492//492 393//393
f 495//495 496//496 493//493
f 495//495 491//491 496//496
f 494//494 493//493 492//492
f 494//494 553//553 493//493
f 495//495 493//493 553//553
f 400//400 498//498 399//399
f 498//498 497//497 399//399
f 498//498 554//554 497//497
f 500//500 503//503 499//499
f 497//497 499//499 399//399
f 562//562 503//503 500//500
f 497//497 698//698 499//499
f 554//554 698//698 497//497
f 555//555 502//502 556//556
f 498//498 400//400 502//502
f 498//498 502//502 555//555
f 503//503 405//405 347//347
f 503//503 506//506 405//405
f 403//403 699//699 572//572
f 501//501 336//336 572//572
f 513//513 405//405 504//504
f 507//507 504//504 405//405
f 505//505 504//504 507//507
f 405//405 506//506 507//507
f 505//505 507//507 591//591
f 506//506 503//503 508//508
f 508//508 507//507 506//506
f 508//508 591//591 507//507
f 570//570 591//591 508//508
f 510//510 509//509 687//687
f 511//511 509//509 510//510
f 699//699 603//603 572//572
f 505//505 512//512 513//513
f 505//505 597//597 512//512
f 513//513 504//504 505//505
f 411//411 593//593 510//510
f 420//420 593//593 411//411
f 521//521 593//593 420//420
f 597//597 515//515 512//512
f 597//597 599//599 515//515
f 517//517 521//521 420//420
f 514//514 419//419 516//516
f 514//514 525//525 419//419
f 525//525 514//514 527//527
f 599//599 514//514 516//516
f 598//598 514//514 599//599
f 417//417 515//515 419//419
f 516//516 419//419 515//515
f 599//599 516//516 515//515
f 517//517 518//518 521//521
f 521//521 519//519 520//520
f 518//518 519//519 521//521
f 520//520 519//519 531//531
f 520//520 531//531 530//530
f 521//521 520//520 530//530
f 522//522 526//526 701//701
f 522//522 701//701 630//630
f 522//522 630//630 536//536
f 523//523 524//524 429//429
f 525//525 526//526 523//523
f 526//526 524//524 523//523
f 701//701 526//526 525//525
f 531//531 519//519 702//702
f 532//532 531//531 702//702
f 436//436 532//532 702//702
f 529//529 532//532 436//436
f 529//529 541//541 532//532
f 530//530 531//531 536//536
f 534//534 531//531 532//532
f 533//533 536//536 531//531
f 536//536 521//521 530//530
f 531//531 534//534 533//533
f 541//541 534//534 532//532
f 446//446 535//535 547//547
f 449//449 535//535 446//446
f 535//535 536//536 547//547
f 539//539 526//526 522//522
f 454//454 703//703 535//535
f 535//535 703//703 536//536
f 539//539 522//522 537//537
f 536//536 703//703 522//522
f 703//703 454//454 704//704
f 524//524 526//526 539//539
f 529//529 436//436 443//443
f 541//541 529//529 443//443
f 540//540 541//541 443//443
f 545//545 542//542 540//540
f 542//542 541//541 540//540
f 542//542 534//534 541//541
f 533//533 534//534 543//543
f 534//534 542//542 543//543
f 547//547 544//544 446//446
f 547//547 543//543 544//544
f 542//542 546//546 543//543
f 543//543 546//546 544//544
f 546//546 542//542 545//545
f 533//533 547//547 536//536
f 543//543 547//547 533//533
f 457//457 456//456 548//548
f 456//456 550//550 548//548
f 550//550 456//456 484//484
f 548//548 550//550 551//551
f 549//549 548//548 551//551
f 550//550 552//552 551//551
f 551//551 552//552 553//553
f 554//554 498//498 555//555
f 564//564 554//554 555//555
f 563//563 500//500 554//554
f 554//554 564//564 563//563
f 502//502 501//501 556//556
f 501//501 578//578 556//556
f 578//578 585//585 556//556
f 555//555 556//556 557//557
f 564//564 555//555 557//557
f 564//564 557//557 558//558
f 559//559 557//557 556//556
f 557//557 559//559 558//558
f 559//559 556//556 560//560
f 592//592 559//559 706//706
f 560//560 602//602 709//709
f 561//561 503//503 562//562
f 561//561 567//567 503//503
f 567//567 508//508 503//503
f 562//562 566//566 561//561
f 563//563 562//562 500//500
f 567//567 561//561 566//566
f 562//562 563//563 565//565
f 562//562 565//565 566//566
f 568//568 564//564 558//558
f 568//568 563//563 564//564
f 568//568 565//565 563//563
f 568//568 569//569 565//565
f 565//565 569//569 566//566
f 569//569 567//567 566//566
f 569//569 570//570 567//567
f 568//568 558//558 571//571
f 558//558 559//559 571//571
f 569//569 568//568 571//571
f 571//571 570//570 569//569
f 572//572 573//573 501//501
f 573//573 575//575 574//574
f 572//572 575//575 573//573
f 574//574 575//575 576//576
f 572//572 619//619 575//575
f 575//575 619//619 576//576
f 579//579 577//577 501//501
f 501//501 577//577 578//578
f 579//579 501//501 573//573
f 580//580 581//581 579//579
f 579//579 581//581 577//577
f 581//581 582//582 577//577
f 577//577 582//582 578//578
f 574//574 579//579 573//573
f 580//580 579//579 574//574
f 585//585 600//600 556//556
f 580//580 574//574 586//586
f 586//586 583//583 580//580
f 580//580 583//583 581//581
f 581//581 583//583 582//582
f 583//583 584//584 582//582
f 582//582 584//584 578//578
f 578//578 584//584 585//585
f 586//586 587//587 583//583
f 708//708 584//584 583//583
f 707//707 574//574 576//576
f 708//708 588//588 584//584
f 584//584 588//588 585//585
f 576//576 589//589 707//707
f 589//589 708//708 707//707
f 590//590 588//588 708//708
f 590//590 600//600 588//588
f 588//588 600//600 585//585
f 589//589 576//576 601//601
f 590//590 708//708 589//589
f 590//590 589//589 711//711
f 711//711 600//600 590//590
f 576//576 619//619 711//711
f 559//559 592//592 571//571
f 602//602 591//591 710//710
f 567//567 570//570 508//508
f 571//571 591//591 570//570
f 710//710 591//591 571//571
f 699//699 700//700 603//603
f 593//593 511//511 510//510
f 511//511 593//593 594//594
f 603//603 700//700 604//604
f 594//594 712//712 511//511
f 572//572 603//603 608//608
f 593//593 595//595 594//594
f 595//595 593//593 596//596
f 594//594 595//595 605//605
f 605//605 595//595 596//596
f 572//572 608//608 609//609
f 505//505 620//620 597//597
f 593//593 521//521 596//596
f 623//623 596//596 521//521
f 596//596 623//623 622//622
f 599//599 597//597 620//620
f 629//629 599//599 620//620
f 598//598 527//527 514//514
f 631//631 527//527 598//598
f 625//625 631//631 598//598
f 625//625 598//598 629//629
f 629//629 598//598 599//599
f 631//631 630//630 527//527
f 633//633 600//600 619//619
f 619//619 600//600 711//711
f 600//600 633//633 632//632
f 560//560 556//556 632//632
f 632//632 602//602 560//560
f 600//600 632//632 556//556
f 591//591 602//602 638//638
f 604//604 607//607 603//603
f 605//605 713//713 712//712
f 594//594 605//605 712//712
f 605//605 596//596 606//606
f 605//605 606//606 713//713
f 608//608 603//603 607//607
f 608//608 713//713 618//618
f 713//713 606//606 618//618
f 606//606 596//596 618//618
f 610//610 572//572 609//609
f 608//608 612//612 609//609
f 612//612 610//610 609//609
f 619//619 572//572 610//610
f 611//611 619//619 610//610
f 610//610 612//612 613//613
f 617//617 611//611 613//613
f 611//611 610//610 613//613
f 608//608 618//618 612//612
f 612//612 618//618 614//614
f 612//612 614//614 613//613
f 613//613 615//615 617//617
f 618//618 616//616 614//614
f 616//616 615//615 614//614
f 614//614 615//615 613//613
f 622//622 616//616 618//618
f 623//623 617//617 615//615
f 617//617 634//634 611//611
f 623//623 634//634 617//617
f 619//619 611//611 633//633
f 611//611 634//634 633//633
f 591//591 620//620 505//505
f 620//620 591//591 621//621
f 621//621 591//591 638//638
f 639//639 638//638 640//640
f 638//638 639//639 621//621
f 622//622 618//618 596//596
f 622//622 623//623 615//615
f 622//622 615//615 616//616
f 623//623 624//624 634//634
f 624//624 623//623 521//521
f 624//624 521//521 536//536
f 624//624 630//630 641//641
f 634//634 624//624 641//641
f 630//630 631//631 628//628
f 627//627 625//625 626//626
f 628//628 625//625 627//627
f 625//625 628//628 631//631
f 626//626 625//625 629//629
f 620//620 621//621 629//629
f 621//621 626//626 629//629
f 621//621 627//627 626//626
f 536//536 630//630 624//624
f 628//628 641//641 630//630
f 602//602 632//632 635//635
f 638//638 602//602 635//635
f 641//641 637//637 634//634
f 633//633 636//636 632//632
f 632//632 636//636 635//635
f 637//637 640//640 635//635
f 637//637 642//642 640//640
f 636//636 633//633 634//634
f 636//636 634//634 637//637
f 637//637 635//635 636//636
f 635//635 640//640 638//638
f 640//640 642//642 639//639
f 628//628 642//642 641//641
f 627//627 621//621 639//639
f 627//627 639//639 642//642
f 642//642 628//628 627//627
f 637//637 641//641 642//642
