# Wavafront OBJ file of BodyParts3D
# BodyParts3D, Copyright(C) 2010-2011 The Database Center for Life Science licensed under CC Attribution-Share Alike 2.1 Japan.
vn -0.533898 0.0916123 0.840571
v 250.092 -115.73 812.924
vn -0.976513 -0.207071 0.0595255
v 247.811 -116.786 810.381
vn -0.804392 -0.0838253 0.588156
v 248.07 -116.629 811.052
vn -0.737375 -0.513807 0.438497
v 248.611 -118.037 810.961
vn -0.582581 -0.301163 0.754917
v 249.69 -117.685 812.272
vn -0.881782 0.295761 0.367405
v 248.211 -113.251 809.991
vn -0.645558 -0.746604 0.160739
v 249.448 -119.185 810.088
vn -0.816201 -0.576553 0.0374458
v 248.51 -118.184 810.281
vn -0.896264 0.432399 -0.0987007
v 248.058 -113.54 808.627
vn -0.594996 0.786824 0.163978
v 249.236 -111.905 808.953
vn -0.830894 0.534357 -0.155169
v 249.361 -111.941 807.166
vn -0.943183 0.0523344 -0.328127
v 249.42 -112.42 806.547
vn -0.8652 -0.409893 -0.288819
v 249.843 -119.337 807.598
vn -0.974354 0.214701 -0.0673633
v 249.611 -111.789 806.05
vn -0.538918 0.2912 0.790424
v 250.585 -113.296 812.363
vn -0.502713 -0.629369 0.592599
v 250.613 -119.042 812.153
vn 0.138484 -0.937194 0.320139
v 252.783 -119.873 812.229
vn -0.118146 -0.908058 0.401835
v 253.173 -119.583 813.225
vn -0.155999 -0.915396 0.371099
v 253.116 -120.435 811.257
vn -0.559149 -0.82853 -0.0298247
v 250.462 -120.013 808.425
vn -0.3483 -0.909441 0.227166
v 251.313 -120.321 810.598
vn -0.492189 0.862818 0.115302
v 250.104 -111.309 806.454
vn -0.698761 0.710892 -0.0797854
v 249.964 -111.012 804.444
vn -0.67358 0.726995 0.133299
v 250.009 -111.017 805.158
vn -0.21568 0.969144 0.11934
v 250.343 -110.812 805.101
vn -0.631826 0.773073 -0.0561555
v 250.259 -111.064 803.368
vn -0.927604 -0.106806 -0.357971
v 250.205 -115.4 803.908
vn -0.84084 -0.0729999 -0.536339
v 250.416 -115.111 803.481
vn -0.915946 -0.356973 -0.183338
v 250.96 -114.87 802.692
vn -0.9325 -0.078184 -0.352605
v 251.012 -116.381 802.286
vn -0.995462 -0.0337154 -0.0889832
v 251.171 -116.096 801.862
vn -0.965155 -0.212813 -0.152271
v 251.177 -116.509 801.59
vn -0.906951 -0.177453 -0.382034
v 250.342 -114.429 803.344
vn -0.893588 -0.427808 -0.135944
v 250.359 -114.153 802.928
vn -0.948807 -0.304464 -0.0840651
v 250.101 -113.692 801.771
vn -0.888659 -0.453595 -0.067355
v 250.496 -114.492 801.204
vn -0.851281 -0.499107 0.161902
v 250.758 -114.737 801.6
vn -0.9367 0.326381 -0.126762
v 249.903 -111.638 803.145
vn -0.727551 0.672024 0.138035
v 250.343 -110.855 801.533
vn -0.624224 0.757596 0.190766
v 250.825 -110.403 801.807
vn -0.544232 0.806461 0.231156
v 251.685 -109.068 800.031
vn -0.519031 -0.85231 -0.0646063
v 252.595 -120.694 802.033
vn -0.949315 -0.314148 0.0105737
v 250.982 -115.56 801.045
vn -0.933841 -0.234863 -0.269779
v 251.296 -115.404 799.925
vn -0.980198 -0.0368756 -0.194556
v 251.44 -115.533 799.23
vn -0.865446 -0.323525 -0.382537
v 251.496 -116.631 799.097
vn -0.861151 -0.451408 -0.233774
v 252.061 -117.828 800.034
vn -0.953174 -0.167607 -0.251729
v 250.476 -113.601 800.305
vn -0.943708 -0.0946018 -0.316962
v 251.55 -115.252 798.81
vn -0.976384 -0.210821 -0.0472033
v 250.338 -110.177 797.816
vn -0.875146 -0.213553 -0.434184
v 252.136 -115.764 797.816
vn -0.857232 -0.424673 -0.291214
v 251.7 -114.075 797.487
vn -0.643478 -0.740789 -0.192788
v 251.747 -113.477 795.931
vn -0.599985 -0.799037 -0.0394684
v 251.717 -113.401 795.503
vn -0.877705 -0.479163 0.00601086
v 251.132 -112.673 795.792
vn -0.907337 0.420303 -0.00921198
v 250.128 -109.303 795.141
vn -0.986556 -0.161101 0.0274449
v 250.135 -109.716 794.868
vn -0.543997 0.837618 -0.0496372
v 250.653 -108.835 794.663
vn -0.852071 -0.522431 -0.0322537
v 250.899 -112.69 794.375
vn -0.7219 -0.453488 -0.522695
v 251.168 -112.478 793.209
vn -0.964853 0.153542 -0.213269
v 250.181 -109.853 794.179
vn -0.983837 -0.0967757 -0.150662
v 250.231 -110.263 793.904
vn -0.770289 0.561671 -0.301961
v 250.52 -109.142 794.017
vn -0.90426 -0.191888 -0.381435
v 250.424 -110.733 793.276
vn -0.833546 0.202748 -0.513902
v 250.517 -110.039 793.129
vn -0.675035 -0.150663 -0.722239
v 250.685 -110.781 792.934
vn -0.629306 0.576566 -0.521101
v 250.943 -109.115 793.277
vn -0.599355 0.396373 -0.695458
v 250.956 -109.711 792.805
vn -0.606523 0.112991 -0.786996
v 250.974 -110.096 792.665
vn -0.451023 0.821681 -0.348451
v 251.281 -108.705 793.536
vn -0.383094 0.304608 -0.87204
v 251.294 -109.735 792.554
vn -0.40135 -0.0260901 -0.915553
v 251.337 -110.473 792.431
vn -0.393353 -0.780172 0.48642
v 253.721 -119.608 813.563
vn -0.346119 -0.324498 0.880286
v 254.234 -118.679 814.408
vn -0.227965 -0.713621 0.662402
v 254.993 -119.916 813.928
vn -0.108795 -0.435883 0.893403
v 255.332 -119.306 814.416
vn -0.159125 0.0962652 0.982554
v 255.162 -116.338 814.985
vn -0.146147 0.526477 0.837534
v 253.845 -113.449 813.855
vn -0.353752 -0.869789 0.343987
v 254.613 -121.101 812.044
vn 0.350698 -0.926501 0.136408
v 253.497 -119.513 812.838
vn 0.282376 -0.892711 0.351184
v 253.77 -119.47 812.46
vn -0.515534 -0.568489 0.641127
v 253.477 -120.31 811.573
vn -0.520162 -0.737478 0.430764
v 253.48 -120.607 811.276
vn -0.325364 -0.938097 -0.118791
v 253.883 -119.701 813.218
vn -0.552219 -0.81347 0.182539
v 254.324 -119.98 813.256
vn -0.683432 -0.519646 0.512726
v 254.312 -120.534 812.297
vn -0.642866 -0.639392 0.421784
v 254.622 -120.349 813.083
vn -0.112912 0.960729 0.253478
v 254.154 -110.737 810.283
vn -0.200574 -0.978267 0.0525653
v 253.763 -121.061 809.569
vn -0.091206 0.995529 0.0245846
v 252.595 -110.905 807.462
vn 0.19721 0.965821 -0.168223
v 254.336 -110.97 807.103
vn -0.0145094 0.964678 -0.263033
v 254.734 -110.788 808.121
vn 0.213337 0.836512 -0.504713
v 255.079 -110.979 807.788
vn -0.320249 0.930233 0.179185
v 252.608 -110.022 802.691
vn -0.803463 -0.483311 -0.347645
v 253.263 -119.33 799.218
vn -0.922142 -0.211779 -0.323733
v 254.35 -121.115 798.823
vn -0.835311 -0.527763 -0.15402
v 253.538 -119.451 798.515
vn -0.842982 -0.323232 -0.430002
v 253.325 -118.434 798.315
vn -0.694237 -0.654641 -0.299131
v 253.762 -119.84 798.943
vn -0.67376 -0.732496 -0.0974519
v 253.821 -119.775 798.57
vn -0.713275 -0.697241 0.0713704
v 253.874 -119.841 798.223
vn -0.912805 -0.40147 -0.0748975
v 253.679 -119.583 797.809
vn -0.960878 -0.241317 -0.13594
v 254.366 -120.426 798.68
vn -0.736293 -0.657392 -0.160339
v 254.232 -120.091 798.617
vn -0.821804 -0.541708 0.176609
v 254.253 -120.159 798.272
vn -0.929123 -0.359671 -0.0858294
v 254.434 -120.904 798.06
vn -0.767806 -0.594284 0.239376
v 254.074 -120.13 797.916
vn -0.884625 -0.465762 0.0224621
v 254.299 -120.639 797.654
vn -0.939573 -0.272909 -0.206697
v 253.473 -118.15 797.892
vn -0.703829 -0.407461 -0.581893
v 253.217 -117.479 797.765
vn -0.897506 -0.440421 0.022621
v 253.295 -117.613 797.074
vn -0.60742 -0.780675 -0.146928
v 252.085 -113.583 795.58
vn -0.670622 -0.740339 0.0465182
v 252.063 -113.574 795.221
vn -0.91691 -0.38725 -0.096511
v 252.681 -114.356 795.713
vn -0.85161 -0.499673 -0.158391
v 254.204 -119.397 794.984
vn -0.866182 -0.499263 0.0215812
v 252.785 -117.035 794.83
vn -0.917273 -0.391878 -0.0710006
v 253.616 -118.558 795.823
vn -0.637814 -0.399146 -0.658693
v 253.307 -117.089 794.357
vn -0.841062 -0.528559 -0.115063
v 252.169 -114.052 793.884
vn -0.709199 -0.447622 -0.544675
v 252.722 -114.456 793.438
vn -0.122547 -0.242745 -0.962318
v 251.788 -111.852 792.517
vn -0.255528 0.651194 -0.714599
v 251.614 -109.01 792.868
vn 0.0488109 0.0475317 -0.997676
v 252.006 -110.087 792.305
vn 0.210524 -0.733466 0.646303
v 258.865 -120.371 813.493
vn 0.0476195 -0.13724 0.989393
v 256.308 -117.679 814.987
vn 0.148043 -0.511486 0.846443
v 258.512 -119.831 814.102
vn 0.496871 -0.0357189 0.867089
v 258.826 -119.05 814.296
vn 0.296855 0.339371 0.892583
v 256.498 -115.578 814.674
vn 0.269252 0.725631 0.633216
v 256.166 -112.427 812.68
vn 0.0937743 -0.8886 0.448995
v 257.813 -121.146 812.627
vn 0.270252 0.906467 0.324471
v 257.244 -110.708 809.067
vn 0.505394 0.766012 0.397243
v 258.044 -111.428 809.895
vn -0.11221 -0.985364 -0.128321
v 256.291 -121.469 810.257
vn 0.00101568 -0.994768 0.102159
v 258.436 -121.731 810.574
vn 0.00874688 -0.999961 -0.00152197
v 256.853 -121.032 808.353
vn -0.060748 -0.965138 -0.254595
v 257.254 -121.149 809.075
vn -0.087143 0.945538 -0.31363
v 255.442 -110.611 808.411
vn 0.0112662 0.820217 -0.571941
v 255.434 -110.772 808.087
vn 0.0607856 0.772691 -0.631866
v 255.44 -111.362 807.493
vn -0.0961604 0.759121 -0.643808
v 255.785 -110.775 808.072
vn -0.145361 0.642475 -0.752394
v 256.137 -111.052 807.756
vn 0.0833545 0.994906 -0.056696
v 257.189 -110.545 808.32
vn -0.055043 0.778078 -0.625751
v 257.167 -110.793 807.657
vn 0.26346 0.930219 -0.255504
v 257.164 -111.792 806.432
vn 0.0718914 0.727937 -0.681865
v 257.531 -111.255 807.321
vn 0.410242 0.890881 -0.195021
v 257.895 -110.736 807.97
vn -0.305684 -0.941506 0.141856
v 258.651 -122.123 807.783
vn 0.202339 0.967661 0.150634
v 255.285 -111.253 804.973
vn 0.225716 0.836709 0.498968
v 257.338 -111.216 804.056
vn 0.318442 0.930555 0.180728
v 257.845 -112.062 805.742
vn 0.327761 -0.496402 -0.803839
v 256.841 -112.124 794.479
vn -0.187202 0.97372 -0.129708
v 254.43 -107.331 794.901
vn 0.18858 0.713258 -0.675056
v 256.866 -107.969 793.76
vn -0.265685 -0.962477 0.0552236
v 255.926 -122.668 796.57
vn -0.22308 -0.312445 -0.923371
v 255.302 -120.023 794.998
vn 0.28234 -0.199799 -0.938277
v 255.5 -112.723 793.82
vn 0.342003 -0.378424 -0.860133
v 256.327 -111.909 793.974
vn 0.161211 -0.455237 -0.875654
v 256.771 -111.599 793.89
vn 0.526078 -0.459022 0.715919
v 259.278 -119.846 813.724
vn 0.79174 -0.159293 0.589724
v 259.849 -119.531 813.286
vn 0.489694 -0.709703 0.506479
v 259.54 -120.567 812.788
vn 0.791464 -0.458765 0.403881
v 260.25 -120.472 812.022
vn 0.681172 0.428138 0.593887
v 260.106 -114.504 811.512
vn 0.704491 0.6373 0.312314
v 260.211 -113.119 809.433
vn 0.217247 -0.934438 0.282185
v 260.449 -121.904 808.732
vn 0.603548 0.769434 0.209049
v 258.654 -111.332 808.418
vn 0.346013 0.79852 -0.492586
v 259.697 -112.522 806.828
vn 0.628922 0.773896 -0.0744397
v 260.158 -112.44 807.507
vn 0.520867 0.852821 0.0373339
v 260.751 -113.33 805.876
vn 0.467501 0.772672 0.429442
v 259.161 -112.028 804.246
vn 0.476462 0.561956 0.676158
v 259.772 -111.544 803.245
vn 0.0412099 0.808047 0.587675
v 258.074 -106.729 797.835
vn 0.236044 0.942752 -0.235586
v 258.689 -106.703 796.372
vn 0.462241 0.83789 0.290299
v 259.525 -107.082 798.201
vn -0.175175 -0.971241 0.161263
v 259.597 -123.96 797.747
vn 0.53868 0.27163 -0.797521
v 259.821 -109.355 794.591
vn -0.132291 -0.638272 -0.758359
v 258.528 -122.283 794.944
vn -0.0229485 -0.126024 -0.991762
v 258.556 -121.615 794.696
vn 0.365579 -0.738986 -0.565907
v 260.436 -122.733 795.506
vn 0.228973 -0.271903 -0.934687
v 260.364 -122.132 794.963
vn 0.592695 -0.556816 -0.581952
v 260.724 -122.063 795.159
vn -0.0204891 -0.0418162 -0.998915
v 258.114 -120.194 794.808
vn -0.0386599 -0.678601 -0.733489
v 257.532 -112.102 794.315
vn 0.938111 0.261093 0.227548
v 263.395 -116.075 805.967
vn 0.772347 0.602824 0.200208
v 263.342 -115.465 803.697
vn 0.642119 0.368936 0.671989
v 260.85 -112.264 802.803
vn 0.682494 0.631444 0.368076
v 261.286 -113.243 803.101
vn 0.741001 0.491404 0.457645
v 261.98 -113.77 802.335
vn 0.685222 0.62294 0.377382
v 263.055 -114.412 801.936
vn 0.928856 -0.369169 0.03068
v 263.633 -115.928 803.065
vn 0.838438 0.467618 0.279919
v 263.763 -115.166 801.471
vn 0.61968 0.48528 0.616847
v 261.104 -111.271 802.297
vn 0.857163 0.30772 0.413013
v 261.683 -112.075 801.64
vn 0.794892 0.472064 0.381186
v 262.865 -112.946 800.409
vn 0.922795 -0.0581118 -0.380884
v 263.248 -115.345 799.027
vn 0.816043 0.461506 0.347974
v 262.141 -110.329 799.471
vn 0.944191 0.324364 -0.0573674
v 262.469 -110.131 796.912
vn 0.779636 0.625532 -0.0296352
v 261.728 -108.781 796.666
vn 0.881748 -0.405384 -0.241213
v 261.439 -122.424 796.633
vn 0.205267 -0.0447497 -0.977682
v 260.398 -112.18 794.565
vn 0.811619 0.105213 -0.574634
v 262.362 -110.183 796.57
vn 0.588313 0.673661 -0.447291
v 261.263 -108.465 796.264
vn 0.7762 0.405415 -0.482858
v 261.899 -109.183 796.384
vn -0.472264 0.734995 0.486568
v 248.211 -113.251 809.991
vn -0.832177 -0.162175 -0.530265
v 248.058 -113.54 808.627
vn -0.342588 0.78737 0.512525
v 250.585 -113.296 812.363
vn -0.164177 -0.984573 -0.0605088
v 253.173 -119.583 813.225
vn -0.376613 -0.629842 0.67931
v 253.116 -120.435 811.257
vn -0.992444 0.00694279 -0.122501
v 250.343 -110.855 801.533
vn -0.846495 -0.370985 -0.38186
v 252.595 -120.694 802.033
vn -0.784057 0.594255 0.179208
v 250.338 -110.177 797.816
vn -0.841728 -0.539145 0.0285643
v 252.136 -115.764 797.816
vn -0.183726 -0.941881 -0.281255
v 253.497 -119.513 812.838
vn -0.622684 -0.736732 0.263613
v 253.77 -119.47 812.46
vn 0.0882939 0.892454 0.442413
v 252.608 -110.022 802.691
vn -0.892824 -0.450177 -0.0143432
v 253.217 -117.479 797.765
vn -0.0743201 -0.270499 -0.959847
v 254.204 -119.397 794.984
vn -0.63215 -0.422045 -0.649819
v 254.204 -119.397 794.984
vn -0.999031 -0.0425115 0.0114009
v 252.785 -117.035 794.83
vn -0.669237 -0.379819 -0.638638
v 252.785 -117.035 794.83
vn 0.225272 -0.229613 -0.946853
v 253.307 -117.089 794.357
vn 0.280869 -0.245123 -0.927915
v 252.722 -114.456 793.438
vn -0.438865 -0.435415 -0.78601
v 252.722 -114.456 793.438
vn -0.519872 -0.850549 0.0793726
v 258.436 -121.731 810.574
vn -0.479699 -0.865624 0.143471
v 256.853 -121.032 808.353
vn -0.502218 -0.858416 0.1044
v 257.254 -121.149 809.075
vn 0.292711 0.955914 0.0234175
v 255.44 -111.362 807.493
vn -0.227412 -0.0754925 -0.970868
v 256.841 -112.124 794.479
vn 0.261064 -0.00392021 -0.965314
v 256.866 -107.969 793.76
vn -0.842765 -0.473534 -0.255953
v 255.926 -122.668 796.57
vn -0.289698 -0.667985 -0.685472
v 255.926 -122.668 796.57
vn -0.421875 -0.894816 0.146037
v 255.926 -122.668 796.57
vn 0.863791 -0.491132 0.112498
v 260.449 -121.904 808.732
vn -0.0907548 0.990378 0.10447
v 258.074 -106.729 797.835
vn -0.10868 -0.870743 -0.479579
v 259.597 -123.96 797.747
vn 0.608659 -0.789205 -0.0817917
v 259.597 -123.96 797.747
vn 0.482738 -0.0367034 -0.874995
v 260.724 -122.063 795.159
vn 0.900119 0.00350837 -0.435631
v 260.724 -122.063 795.159
vn 0.429307 0.0308841 -0.902631
v 258.114 -120.194 794.808
vn -0.0719886 -0.0658129 -0.995232
v 257.532 -112.102 794.315
vn 0.918192 0.364125 0.155998
v 263.633 -115.928 803.065
vn 0.97928 -0.133151 -0.152584
v 263.763 -115.166 801.471
vn 0.645613 -0.00199661 -0.763662
v 260.398 -112.18 794.565
vn 0.0536071 -0.596002 -0.801192
v 260.398 -112.18 794.565
f 5//5 74//74 1//1
f 7//7 16//16 4//4
f 6//6 2//2 3//3
f 9//9 2//2 6//6
f 2//2 205//205 13//13
f 2//2 4//4 3//3
f 4//4 5//5 3//3
f 8//8 4//4 2//2
f 8//8 7//7 4//4
f 5//5 1//1 3//3
f 4//4 16//16 5//5
f 74//74 5//5 16//16
f 3//3 1//1 6//6
f 1//1 15//15 6//6
f 7//7 13//13 20//20
f 13//13 8//8 2//2
f 13//13 7//7 8//8
f 12//12 13//13 205//205
f 6//6 10//10 9//9
f 9//9 10//10 11//11
f 11//11 12//12 9//9
f 22//22 11//11 10//10
f 22//22 14//14 11//11
f 12//12 11//11 14//14
f 73//73 16//16 18//18
f 74//74 16//16 73//73
f 84//84 73//73 207//207
f 1//1 74//74 77//77
f 78//78 15//15 1//1
f 88//88 206//206 78//78
f 16//16 7//7 21//21
f 89//89 19//19 21//21
f 16//16 21//21 18//18
f 18//18 21//21 17//17
f 21//21 19//19 17//17
f 80//80 18//18 17//17
f 84//84 207//207 213//213
f 17//17 81//81 80//80
f 208//208 82//82 214//214
f 81//81 17//17 19//19
f 83//83 82//82 208//208
f 89//89 83//83 19//19
f 204//204 206//206 10//10
f 88//88 22//22 10//10
f 88//88 10//10 206//206
f 7//7 20//20 21//21
f 22//22 24//24 14//14
f 90//90 25//25 22//22
f 20//20 13//13 42//42
f 42//42 21//21 20//20
f 42//42 154//154 21//21
f 13//13 12//12 27//27
f 13//13 27//27 30//30
f 33//33 27//27 12//12
f 12//12 14//14 33//33
f 24//24 23//23 14//14
f 24//24 25//25 23//23
f 23//23 38//38 14//14
f 24//24 22//22 25//25
f 23//23 26//26 38//38
f 23//23 94//94 26//26
f 40//40 26//26 94//94
f 25//25 94//94 23//23
f 28//28 30//30 27//27
f 27//27 33//33 28//28
f 30//30 210//210 13//13
f 29//29 28//28 33//33
f 43//43 37//37 36//36
f 44//44 43//43 36//36
f 29//29 30//30 28//28
f 32//32 210//210 30//30
f 30//30 31//31 32//32
f 31//31 43//43 32//32
f 31//31 30//30 29//29
f 29//29 43//43 31//31
f 14//14 38//38 35//35
f 34//34 33//33 14//14
f 14//14 35//35 34//34
f 34//34 35//35 29//29
f 38//38 48//48 35//35
f 37//37 29//29 36//36
f 36//36 29//29 35//35
f 35//35 48//48 36//36
f 44//44 36//36 48//48
f 34//34 29//29 33//33
f 29//29 37//37 43//43
f 38//38 26//26 40//40
f 39//39 38//38 40//40
f 38//38 209//209 48//48
f 40//40 41//41 39//39
f 209//209 50//50 48//48
f 39//39 41//41 211//211
f 40//40 94//94 41//41
f 95//95 210//210 47//47
f 44//44 32//32 43//43
f 32//32 44//44 45//45
f 46//46 32//32 45//45
f 32//32 47//47 210//210
f 46//46 47//47 32//32
f 44//44 49//49 45//45
f 45//45 49//49 46//46
f 46//46 49//49 51//51
f 48//48 52//52 44//44
f 50//50 52//52 48//48
f 44//44 52//52 49//49
f 50//50 55//55 52//52
f 51//51 49//49 52//52
f 52//52 55//55 53//53
f 54//54 53//53 55//55
f 55//55 59//59 54//54
f 52//52 53//53 112//112
f 53//53 54//54 112//112
f 54//54 113//113 112//112
f 54//54 59//59 113//113
f 50//50 57//57 55//55
f 59//59 55//55 57//57
f 41//41 56//56 211//211
f 50//50 56//56 57//57
f 57//57 56//56 61//61
f 56//56 63//63 61//61
f 56//56 41//41 58//58
f 63//63 56//56 58//58
f 41//41 152//152 58//58
f 59//59 57//57 62//62
f 59//59 64//64 60//60
f 60//60 64//64 66//66
f 66//66 121//121 60//60
f 66//66 72//72 121//121
f 57//57 61//61 62//62
f 61//61 65//65 62//62
f 64//64 59//59 62//62
f 61//61 63//63 65//65
f 63//63 67//67 65//65
f 65//65 64//64 62//62
f 68//68 65//65 67//67
f 66//66 64//64 65//65
f 68//68 67//67 122//122
f 65//65 68//68 69//69
f 66//66 65//65 69//69
f 72//72 66//66 69//69
f 63//63 58//58 70//70
f 58//58 152//152 70//70
f 67//67 63//63 70//70
f 122//122 67//67 70//70
f 68//68 122//122 71//71
f 69//69 68//68 71//71
f 69//69 71//71 72//72
f 152//152 122//122 70//70
f 72//72 71//71 123//123
f 72//72 123//123 121//121
f 75//75 74//74 73//73
f 75//75 73//73 85//85
f 85//85 73//73 84//84
f 76//76 74//74 75//75
f 77//77 74//74 125//125
f 125//125 74//74 76//76
f 77//77 78//78 1//1
f 125//125 128//128 77//77
f 128//128 78//78 77//77
f 128//128 129//129 78//78
f 129//129 88//88 78//78
f 89//89 79//79 83//83
f 75//75 87//87 79//79
f 84//84 213//213 214//214
f 86//86 87//87 214//214
f 86//86 82//82 83//83
f 214//214 82//82 86//86
f 87//87 85//85 214//214
f 84//84 214//214 85//85
f 79//79 87//87 86//86
f 79//79 86//86 83//83
f 85//85 87//87 75//75
f 88//88 90//90 22//22
f 88//88 92//92 90//90
f 142//142 137//137 88//88
f 137//137 92//92 88//88
f 129//129 132//132 131//131
f 129//129 131//131 88//88
f 89//89 133//133 79//79
f 89//89 21//21 154//154
f 91//91 25//25 90//90
f 92//92 91//91 90//90
f 93//93 91//91 92//92
f 138//138 92//92 137//137
f 138//138 139//139 93//93
f 138//138 93//93 92//92
f 139//139 91//91 93//93
f 148//148 25//25 91//91
f 25//25 148//148 215//215
f 96//96 230//230 210//210
f 46//46 95//95 47//47
f 95//95 46//46 98//98
f 99//99 210//210 95//95
f 106//106 230//230 96//96
f 106//106 108//108 230//230
f 97//97 95//95 98//98
f 97//97 99//99 95//95
f 97//97 98//98 102//102
f 96//96 210//210 103//103
f 103//103 210//210 104//104
f 104//104 99//99 100//100
f 104//104 210//210 99//99
f 99//99 97//97 100//100
f 100//100 97//97 101//101
f 102//102 107//107 101//101
f 97//97 102//102 101//101
f 108//108 107//107 102//102
f 98//98 109//109 102//102
f 104//104 105//105 103//103
f 104//104 101//101 105//105
f 100//100 101//101 104//104
f 96//96 103//103 106//106
f 103//103 108//108 106//106
f 103//103 105//105 108//108
f 105//105 107//107 108//108
f 101//101 107//107 105//105
f 102//102 117//117 108//108
f 115//115 108//108 117//117
f 110//110 46//46 51//51
f 98//98 46//46 110//110
f 111//111 216//216 212//212
f 116//116 111//111 212//212
f 110//110 109//109 98//98
f 111//111 109//109 216//216
f 109//109 111//111 117//117
f 116//116 117//117 111//111
f 109//109 117//117 102//102
f 52//52 114//114 51//51
f 114//114 52//52 112//112
f 114//114 219//219 51//51
f 112//112 113//113 114//114
f 230//230 108//108 115//115
f 231//231 217//217 155//155
f 220//220 119//119 120//120
f 115//115 117//117 116//116
f 218//218 220//220 118//118
f 220//220 120//120 118//118
f 217//217 221//221 156//156
f 119//119 114//114 113//113
f 113//113 59//59 119//119
f 59//59 60//60 119//119
f 60//60 120//120 119//119
f 219//219 114//114 119//119
f 156//156 221//221 222//222
f 223//223 60//60 121//121
f 123//123 71//71 122//122
f 123//123 122//122 153//153
f 130//130 75//75 79//79
f 126//126 75//75 124//124
f 130//130 124//124 75//75
f 124//124 161//161 159//159
f 161//161 124//124 130//130
f 126//126 76//76 75//75
f 126//126 125//125 76//76
f 127//127 125//125 126//126
f 125//125 127//127 128//128
f 163//163 128//128 127//127
f 127//127 126//126 159//159
f 159//159 126//126 124//124
f 128//128 163//163 129//129
f 129//129 163//163 132//132
f 79//79 134//134 130//130
f 130//130 134//134 165//165
f 161//161 130//130 165//165
f 88//88 131//131 142//142
f 132//132 146//146 131//131
f 131//131 146//146 142//142
f 79//79 133//133 134//134
f 136//136 134//134 133//133
f 136//136 133//133 89//89
f 89//89 135//135 136//136
f 135//135 89//89 154//154
f 232//232 147//147 225//225
f 226//226 225//225 147//147
f 224//224 226//226 147//147
f 140//140 138//138 137//137
f 139//139 140//140 141//141
f 138//138 140//140 139//139
f 145//145 139//139 141//141
f 143//143 140//140 137//137
f 143//143 141//141 140//140
f 142//142 143//143 137//137
f 141//141 143//143 145//145
f 145//145 144//144 139//139
f 144//144 148//148 227//227
f 146//146 143//143 142//142
f 146//146 145//145 143//143
f 145//145 167//167 144//144
f 146//146 167//167 145//145
f 144//144 150//150 148//148
f 144//144 167//167 169//169
f 165//165 134//134 147//147
f 165//165 147//147 175//175
f 91//91 227//227 148//148
f 150//150 149//149 148//148
f 215//215 148//148 149//149
f 175//175 147//147 232//232
f 215//215 149//149 172//172
f 41//41 94//94 152//152
f 94//94 234//234 152//152
f 122//122 152//152 153//153
f 173//173 153//153 152//152
f 235//235 231//231 177//177
f 177//177 155//155 178//178
f 155//155 177//177 231//231
f 182//182 155//155 217//217
f 155//155 182//182 178//178
f 182//182 217//217 156//156
f 151//151 239//239 156//156
f 156//156 222//222 121//121
f 156//156 121//121 157//157
f 121//121 123//123 157//157
f 151//151 156//156 157//157
f 157//157 123//123 158//158
f 157//157 158//158 151//151
f 183//183 151//151 158//158
f 123//123 229//229 158//158
f 127//127 160//160 163//163
f 159//159 161//161 160//160
f 160//160 127//127 159//159
f 184//184 163//163 160//160
f 165//165 162//162 161//161
f 161//161 162//162 160//160
f 162//162 184//184 160//160
f 184//184 162//162 233//233
f 163//163 164//164 132//132
f 184//184 164//164 163//163
f 146//146 132//132 166//166
f 166//166 132//132 164//164
f 164//164 168//168 166//166
f 150//150 144//144 169//169
f 166//166 168//168 146//146
f 146//146 168//168 167//167
f 168//168 169//169 167//167
f 164//164 184//184 168//168
f 168//168 184//184 169//169
f 150//150 169//169 149//149
f 170//170 149//149 169//169
f 171//171 149//149 170//170
f 187//187 170//170 169//169
f 171//171 170//170 187//187
f 171//171 192//192 149//149
f 171//171 187//187 186//186
f 174//174 173//173 234//234
f 149//149 192//192 174//174
f 172//172 149//149 174//174
f 174//174 202//202 173//173
f 152//152 234//234 173//173
f 182//182 240//240 200//200
f 228//228 240//240 182//182
f 202//202 153//153 173//173
f 180//180 177//177 178//178
f 182//182 180//180 178//178
f 177//177 179//179 235//235
f 180//180 179//179 177//177
f 199//199 236//236 179//179
f 181//181 199//199 179//179
f 180//180 181//181 179//179
f 237//237 180//180 200//200
f 238//238 243//243 199//199
f 182//182 200//200 180//180
f 183//183 158//158 244//244
f 243//243 158//158 229//229
f 229//229 176//176 243//243
f 233//233 190//190 184//184
f 241//241 185//185 184//184
f 188//188 187//187 185//185
f 187//187 169//169 185//185
f 184//184 185//185 169//169
f 236//236 199//199 233//233
f 190//190 233//233 199//199
f 188//188 185//185 189//189
f 189//189 194//194 188//188
f 191//191 194//194 189//189
f 185//185 241//241 191//191
f 185//185 191//191 189//189
f 186//186 192//192 171//171
f 188//188 186//186 187//187
f 192//192 186//186 188//188
f 188//188 193//193 192//192
f 188//188 196//196 193//193
f 193//193 196//196 192//192
f 188//188 194//194 196//196
f 194//194 191//191 197//197
f 195//195 199//199 243//243
f 190//190 199//199 242//242
f 199//199 195//195 242//242
f 243//243 201//201 195//195
f 194//194 197//197 196//196
f 197//197 242//242 195//195
f 198//198 196//196 197//197
f 197//197 201//201 203//203
f 197//197 203//203 198//198
f 195//195 201//201 197//197
f 192//192 196//196 174//174
f 198//198 174//174 196//196
f 198//198 203//203 202//202
f 174//174 198//198 202//202
f 176//176 201//201 243//243
f 176//176 203//203 201//201
f 202//202 203//203 176//176
f 202//202 176//176 153//153
