# Wavafront OBJ file of BodyParts3D
# BodyParts3D, Copyright(C) 2010-2011 The Database Center for Life Science licensed under CC Attribution-Share Alike 2.1 Japan.
vn -0.576843 0.816432 0.0262853
v -123.128 -89.305 811.5
vn -0.576843 0.816432 0.0262853
v -122.768 -89.0527 811.57
vn -0.194297 -0.464271 -0.864119
v -122.565 -89.5408 811.5
vn -0.453349 -0.372801 0.809626
v -122.559 -89.5133 811.8
vn -0.399391 0.674217 -0.621223
v -122.474 -89.115 811.313
vn -0.251533 -0.45394 0.854792
v -122.874 -88.11 811.773
vn -0.251533 -0.45394 0.854792
v -122.727 -88.1411 811.8
vn -0.251533 -0.45394 0.854792
v -122.864 -88.0651 811.8
vn -0.870539 -0.00388738 0.492085
v -122.643 -87.8524 811.8
vn -0.576843 0.816432 0.0262853
v -122.412 -88.8216 812.201
vn -0.123432 -0.477176 -0.870096
v -121.3 -89.3645 811.137
vn 0.267052 -0.750539 -0.604462
v -122.233 -89.4227 811.5
vn -0.194297 -0.464271 -0.864119
v -122.181 -89.1774 811.219
vn 0.342466 -0.88482 0.315928
v -122.181 -89.1774 812.131
vn -0.188783 -0.490324 -0.850849
v -121.892 -89.2607 811.2
vn 0.198789 -0.938924 -0.280898
v -121.594 -89.3022 811.549
vn -0.154461 -0.603103 -0.782565
v -121.395 -89.8116 811.5
vn -0.0324628 -0.467491 -0.883402
v -120.728 -89.5588 811.2
vn -0.170236 -0.222353 -0.959989
v -120.82 -88.5466 810.795
vn 0.18306 -0.609849 0.771086
v -121.342 -86.6721 811.5
vn 0.0483533 -0.37919 0.924055
v -121.407 -88.4218 812.285
vn 0.155633 -0.891122 0.42624
v -121.149 -89.09 811.8
vn 0.18306 -0.609849 0.771086
v -121.192 -86.6273 811.5
vn 0.18306 -0.609849 0.771086
v -121.326 -86.5988 811.554
vn -0.812094 -0.1591 0.561418
v -121.035 -86.3539 811.5
vn -0.812094 -0.1591 0.561418
v -121.003 -86.5201 811.5
vn -0.812094 -0.1591 0.561418
v -120.97 -86.3677 811.59
vn -0.335442 0.197507 -0.921124
v -120.739 -86.7235 811.627
vn 0.105271 -0.52236 0.846202
v -120.677 -86.4301 811.515
vn -0.254845 0.270921 -0.928254
v -120.321 -86.199 811.456
vn -0.258232 0.482381 -0.837033
v -120.302 -86.1119 811.5
vn -0.0246159 -0.302082 -0.952964
v -119.459 -87.9157 810.415
vn -0.276992 0.0389116 -0.960084
v -119.397 -87.6223 810.409
vn -0.483404 0.505662 -0.714581
v -119.291 -87.124 810.9
vn 0.242883 -0.688421 0.683436
v -119.43 -89.223 811.8
vn 0.18467 -0.914506 -0.359966
v -119.126 -89.2352 811.2
vn -0.56508 0.607991 -0.557702
v -118.329 -86.9291 810.138
vn 0.119413 -0.532324 -0.838076
v -117.262 -86.2359 810.002
vn -0.385998 0.189011 -0.902929
v -117.196 -85.9277 810
vn -0.981636 -0.0996609 -0.162659
v -116.554 -83.6261 813.3
vn -0.406269 0.26488 0.87452
v -116.532 -84.2441 813.546
vn -0.411133 0.459605 -0.787231
v -116.302 -83.1647 811.5
vn 0.159897 -0.522943 -0.837235
v -116.133 -87.3959 810.9
vn 0.100749 -0.600024 -0.793613
v -115.127 -84.8494 809.103
vn -0.574249 0.466272 -0.672926
v -114.712 -84.3425 809.1
vn -0.585633 0.433021 0.68522
v -115.405 -82.3367 813.3
vn -0.518767 0.47738 -0.709217
v -114.378 -81.3281 811.404
vn -0.310927 0.104821 0.944636
v -114.003 -81.4078 813.9
vn -0.754144 0.602845 -0.260471
v -113.778 -80.2289 811.8
vn -0.750554 0.621046 -0.225765
v -112.989 -79.1216 811.8
vn -0.730331 0.558508 0.393301
v -112.617 -78.3288 813.3
vn 0.533538 -0.837669 0.116825
v -114.182 -86.2771 811.8
vn 0.481368 -0.80638 0.343564
v -112.339 -84.7208 812.7
vn 0.55893 -0.809855 -0.178132
v -111.666 -84.4374 811.8
vn 0.272553 -0.685415 0.67522
v -113.519 -83.0592 808.2
vn 0.272553 -0.685415 0.67522
v -113.495 -83.0494 808.2
vn 0.272553 -0.685415 0.67522
v -113.516 -83.0448 808.213
vn 0.200813 -0.56076 0.803257
v -113.165 -82.8353 808.2
vn 0.200813 -0.56076 0.803257
v -113.126 -82.8212 808.2
vn 0.200813 -0.56076 0.803257
v -113.161 -82.8138 808.214
vn 0.261589 -0.424031 0.867046
v -112.815 -82.6294 808.2
vn -0.191655 0.0383139 -0.980714
v -112.855 -82.817 808.5
vn 0.261589 -0.424031 0.867046
v -112.756 -82.5931 808.2
vn 0.261589 -0.424031 0.867046
v -112.805 -82.5827 808.22
vn -0.689125 -0.424214 -0.587494
v -111.677 -81.5955 808.2
vn -0.689125 -0.424214 -0.587494
v -111.675 -81.5985 808.2
vn -0.689125 -0.424214 -0.587494
v -111.675 -81.596 808.198
vn 0.443357 -0.672921 -0.592125
v -111.673 -81.5965 808.2
vn -0.447756 0.679858 -0.580782
v -111.674 -81.5937 808.2
vn -0.682869 -0.420364 0.597481
v -111.675 -81.596 808.202
vn 0.160943 -0.610832 -0.77523
v -111.295 -82.6945 808.2
vn -0.531261 0.5789 -0.618576
v -112.4 -82.1198 810
vn -0.0884018 -0.187187 0.978338
v -112.93 -83.1696 814.09
vn -0.224624 0.0357264 0.97379
v -112.641 -81.8124 814.2
vn -0.623794 0.706097 -0.335125
v -110.805 -81.1675 809.4
vn -0.135571 -0.0804754 0.987494
v -113.08 -80.9907 814.057
vn -0.604199 0.365179 0.708229
v -112.181 -79.6482 814.432
vn -0.0874711 -0.28571 0.954316
v -111.95 -80.0041 814.362
vn -0.175343 -0.0711804 0.981931
v -111.719 -80.3599 814.301
vn -0.653068 0.41485 0.633563
v -110.633 -78.1371 815.22
vn -0.118703 0.194274 -0.973739
v -110.376 -81.2586 808.254
vn 0.453566 -0.674008 -0.583088
v -108.812 -78.2251 807.9
vn 0.453566 -0.674008 -0.583088
v -108.81 -78.2179 807.893
vn 0.453566 -0.674008 -0.583088
v -108.803 -78.2194 807.9
vn -0.683841 -0.445421 -0.577894
v -108.038 -77.4618 807.9
vn -0.683841 -0.445421 -0.577894
v -108.036 -77.4646 807.9
vn -0.683841 -0.445421 -0.577894
v -108.036 -77.4623 807.898
vn 0.445985 -0.684707 -0.576432
v -108.034 -77.4628 807.9
vn -0.444393 0.684108 -0.57837
v -108.035 -77.46 807.9
vn -0.683841 -0.445421 0.577894
v -108.036 -77.4623 807.902
vn -0.677696 0.602114 -0.422122
v -108.263 -78.529 808.8
vn -0.087597 -0.303732 0.948722
v -109.628 -77.7373 815.449
vn 0.54318 -0.83021 -0.125327
v -108.134 -82.2537 811.8
vn 0.518226 -0.853399 0.0561512
v -106.702 -81.285 813.3
vn 0.374883 -0.688935 0.620348
v -106.922 -80.878 813.9
vn 0.359481 -0.657857 0.661814
v -106 -79.4285 814.849
vn 0.353627 -0.147932 -0.923615
v -105.065 -75.0268 809.426
vn -0.184259 -0.174401 0.967281
v -106.007 -75.1332 816.485
vn -0.681191 0.713838 -0.162526
v -106.206 -71.738 813.9
vn -0.487123 0.25851 0.834196
v -104.404 -72.1002 816.9
vn 0.524459 -0.687968 -0.50164
v -105.219 -78.6744 808.8
vn 0.468866 -0.481003 -0.740811
v -104.746 -77.8549 808.54
vn 0.498865 -0.46909 -0.728758
v -102.904 -76.4062 808.896
vn -0.287159 0.483859 -0.826692
v -102.81 -75.9604 809.1
vn 0.00374001 -0.36407 0.931364
v -103.198 -76.3438 816.401
vn 0.0334237 0.19314 -0.980602
v -102.93 -73.6404 810.021
vn 0.564117 -0.627033 0.537217
v -102.435 -75.6432 808.8
vn 0.564117 -0.627033 0.537217
v -102.384 -75.5967 808.8
vn 0.564117 -0.627033 0.537217
v -102.424 -75.5882 808.852
vn -0.278867 0.428217 -0.859572
v -102.362 -70.969 810.3
vn -0.502161 0.582033 -0.639587
v -101.638 -69.0077 811.526
vn -0.628505 0.733726 -0.258121
v -103.193 -69.1061 813.6
vn -0.646734 0.702744 -0.296455
v -101.464 -68.1867 813
vn -0.671345 0.684543 -0.284071
v -101.097 -67.9061 812.4
vn -0.674244 0.608231 0.418867
v -100.528 -66.7901 816.9
vn 0.523867 -0.821463 0.225303
v -102.107 -78.4158 814.2
vn -0.298752 0.740098 -0.602497
v -102.008 -75.0732 808.8
vn -0.298752 0.740098 -0.602497
v -101.991 -75.0667 808.8
vn -0.298752 0.740098 -0.602497
v -102.005 -75.0637 808.811
vn -0.4427 0.466497 -0.765766
v -101.524 -74.8593 809.1
vn -0.20681 0.400504 -0.892651
v -101.639 -74.7814 809.4
vn -0.191796 0.203329 -0.960141
v -101 -74.6639 809.037
vn -0.146806 0.0741567 -0.986382
v -100.102 -73.3214 809.004
vn -0.613231 0.562784 0.554275
v -98.0539 -64.5556 817.5
vn 0.544043 -0.576589 -0.609559
v -99.5126 -74.9802 810.3
vn 0.623648 -0.750063 -0.220157
v -98.4218 -75.5187 813.243
vn 0.602141 -0.670074 -0.434081
v -97.4627 -73.8924 811.2
vn 0.105121 -0.546742 0.830676
v -99.0403 -74.1 817.5
vn -0.0671721 0.292929 -0.953772
v -98.5775 -70.4798 810.6
vn -0.326425 0.56057 -0.761057
v -98.0731 -70.9923 810.073
vn 0.496843 -0.379557 -0.780438
v -96.7306 -71.8911 810.04
vn -0.234356 0.492283 -0.838293
v -96.0661 -69.272 810.3
vn -0.200226 0.509359 -0.836937
v -96.1069 -68.9566 810.902
vn -0.222301 0.428182 -0.875924
v -97.2622 -67.1775 811.015
vn -0.303335 0.476498 -0.825189
v -96.4258 -66.1285 811.273
vn 0.346746 -0.0548053 -0.936356
v -95.7142 -65.6664 811.484
vn -0.650626 0.75091 0.11322
v -96.1417 -62.2018 816.6
vn 0.717166 -0.63978 -0.276324
v -96.9361 -74.301 815.199
vn 0.741088 -0.667227 -0.0748047
v -96.5128 -73.7525 814.5
vn 0.49294 -0.793484 0.356923
v -95.1069 -72.9095 816.9
vn 0.649751 -0.594494 -0.473709
v -94.5558 -71.4332 811.8
vn 0.719142 -0.589199 -0.368345
v -95.174 -72.2219 815.7
vn 0.646911 -0.397808 -0.650581
v -95.1659 -72.5303 816
vn 0.621223 -0.342443 -0.704851
v -94.3349 -72.4003 816.6
vn 0.393849 -0.148786 -0.907053
v -96.0005 -69.8993 809.913
vn -0.0485172 -0.357847 0.932519
v -94.3615 -68.7142 820.2
vn 0.0804935 -0.507398 0.857944
v -93.884 -70.0425 819.457
vn -0.242686 0.49057 -0.836925
v -93.6161 -67.3391 810.723
vn -0.699708 0.648142 -0.300533
v -93.449 -67.068 810.9
vn 0.377035 -0.0914266 -0.921676
v -93.2603 -67.1081 810.837
vn -0.282639 0.162515 -0.945359
v -93.1979 -66.8146 810.869
vn -0.603428 0.73314 -0.313657
v -94.0313 -67.5576 811.2
vn -0.255361 -0.0603821 0.964958
v -93.3666 -66.1654 820.845
vn -0.150744 0.329164 -0.932163
v -93.2674 -62.8127 812.143
vn 0.579748 -0.336574 -0.742031
v -92.9524 -62.7735 812.4
vn 0.495472 -0.205415 -0.843986
v -91.8464 -61.888 813
vn -0.579135 0.755367 -0.306634
v -94.2619 -61.7196 813.9
vn -0.58244 0.591022 0.558083
v -91.9784 -59.713 819
vn 0.690278 -0.687292 -0.226156
v -93.9062 -71.5896 813.6
vn 0.447423 -0.78655 0.42562
v -93.0584 -71.1381 815.7
vn 0.48338 -0.737077 0.472293
v -93.1285 -70.8165 815.89
vn 0.661818 -0.533739 -0.526421
v -92.2696 -70.079 817.2
vn 0.536599 -0.753517 0.379834
v -91.1716 -68.8248 816.9
vn -0.611792 0.766385 -0.19587
v -92.1025 -65.8206 811.5
vn -0.499881 0.784315 -0.367381
v -90.6448 -64.9037 811.474
vn 0.327912 0.0262765 -0.944343
v -91.9689 -62.4753 812.998
vn 0.652086 -0.746525 -0.132225
v -90.558 -60.6283 813
vn 0.615994 -0.710801 -0.339579
v -89.5276 -59.6474 812.7
vn 0.614366 -0.784961 -0.0799397
v -89.5803 -59.8954 813
vn 0.275472 -0.0548044 -0.959746
v -89.6469 -60.2086 813.72
vn 0.600503 -0.788022 0.135712
v -89.1615 -59.3678 813.6
vn -0.385763 0.683069 -0.620164
v -88.6041 -57.9766 813.3
vn -0.547261 0.763064 -0.343858
v -90.2222 -58.5528 813.9
vn -0.582335 0.789524 0.193747
v -89.2941 -57.5232 819.3
vn 0.562258 -0.70092 0.438837
v -90.7473 -68.869 816.3
vn 0.571669 -0.743335 0.347343
v -90.477 -68.4426 816.6
vn 0.632054 -0.745031 -0.213158
v -89.634 -68.1856 817.8
vn 0.672507 -0.73427 0.092638
v -89.2754 -67.6484 816.3
vn 0.639624 -0.763933 0.0853677
v -89.0309 -67.4112 816.6
vn 0.65903 -0.668507 -0.344641
v -89.5361 -68.345 819
vn 0.67094 -0.700693 -0.242629
v -89.0737 -67.6913 818.7
vn 0.525623 -0.319918 -0.788272
v -90.1827 -65.6153 811.948
vn 0.655719 -0.721257 -0.223205
v -88.1662 -66.6573 817.5
vn 0.350334 -0.0341608 -0.936002
v -89.4599 -63.622 811.8
vn 0.442704 -0.16873 -0.880649
v -89.1592 -63.686 811.915
vn -0.179238 0.618937 -0.764716
v -87.6009 -62.1266 812.7
vn 0.451285 -0.129512 -0.882932
v -87.3177 -62.2372 812.637
vn -0.169532 -0.212751 0.962287
v -87.8821 -62.0064 822.3
vn -0.358703 0.650483 -0.66948
v -87.8422 -61.819 813.223
vn 0.0100921 0.272364 -0.962141
v -88.1796 -60.5204 813.795
vn -0.439099 0.25268 0.862175
v -89.2471 -61.2137 822.087
vn -0.122457 0.361511 -0.924291
v -88.6857 -58.5727 812.843
vn 0.599352 -0.80029 -0.0177011
v -87.8032 -58.4535 813.6
vn 0.0268152 0.254033 -0.966824
v -86.7379 -58.0666 814.324
vn 0.683706 -0.694464 -0.224201
v -86.5994 -64.8435 816.9
vn 0.518575 -0.826662 0.218425
v -86.5866 -66.0122 819.9
vn 0.640583 -0.701088 -0.313256
v -85.443 -64.9608 819.9
vn 0.270944 -0.705334 0.655052
v -87.1235 -65.6522 821.368
vn 0.49407 -0.80287 0.333608
v -86.8822 -65.9598 820.8
vn -0.0514573 0.393742 -0.917779
v -86.5437 -61.4816 812.918
vn 0.531396 -0.254691 -0.80793
v -85.2717 -61.2689 813.6
vn -0.00249831 0.332708 -0.943026
v -85.1864 -58.7031 814.2
vn -0.299099 0.015884 0.95409
v -84.1593 -58.9214 823.723
vn 0.622656 -0.722247 -0.301097
v -85.8638 -56.8399 813.6
vn -0.203297 0.632699 -0.747236
v -85.0028 -55.6751 813.954
vn 0.588613 -0.788909 -0.176513
v -84.1342 -55.9175 814.5
vn 0.475062 -0.561555 -0.677475
v -83.8914 -56.218 814.924
vn -0.357532 0.746019 -0.561806
v -83.312 -53.4922 815.7
vn 0.609755 -0.75927 -0.227392
v -84.3029 -63.9255 819.9
vn 0.419091 -0.83701 0.351819
v -84.4295 -64.5212 821.1
vn 0.574161 -0.507384 -0.642574
v -82.9692 -60.537 815.1
vn 0.596635 -0.732624 -0.327549
v -84.3461 -62.5621 817.2
vn 0.643858 -0.69745 -0.31466
v -84.2922 -62.4326 816.9
vn 0.362636 -0.0371501 -0.93119
v -83.465 -59.069 814.2
vn 0.195463 0.171 -0.965688
v -81.731 -57.5973 814.746
vn -0.506365 0.56027 0.655509
v -82.0319 -54.4663 822.9
vn -0.247388 0.817205 -0.520553
v -80.328 -52.4396 815.7
vn -0.495436 0.868213 -0.0273789
v -81.8975 -52.6092 819.3
vn 0.501902 -0.808083 -0.308377
v -81.2208 -62.4117 821.1
vn 0.344921 -0.893448 0.287716
v -79.9091 -62.0124 822.6
vn 0.487057 -0.743906 -0.457579
v -80.0908 -59.9816 817.2
vn 0.0474027 -0.558219 0.828339
v -80.0071 -61.0308 823.699
vn 0.44371 -0.372965 -0.814874
v -80.8506 -57.7844 815.116
vn -0.410257 0.344079 0.84457
v -80.8946 -56.5483 824.548
vn 0.408283 -0.229575 -0.883516
v -80.2709 -53.6138 814.922
vn 0.0226611 0.482659 -0.875515
v -79.1405 -52.6248 815.4
vn -0.302158 0.909851 -0.28438
v -79.2186 -51.5492 816.9
vn 0.411857 -0.358979 -0.837561
v -78.7554 -53.699 816
vn 0.378451 -0.248881 -0.891534
v -77.6612 -52.635 816.3
vn -0.487802 0.836117 0.250912
v -78.4582 -50.8578 821.4
vn 0.38142 -0.849327 -0.364914
v -78.6419 -60.3793 820.2
vn -0.0965596 -0.483956 0.869749
v -76.7424 -58.6577 825.218
vn 0.408588 -0.31284 -0.85743
v -77.4867 -52.0587 816.063
vn 0.200829 0.129387 -0.971044
v -76.7495 -54.3623 816.663
vn -0.427563 0.440378 0.789466
v -77.3364 -54.2376 825.183
vn 0.342677 -0.0659315 -0.937137
v -77.4243 -51.7653 816.035
vn -0.447334 0.649981 0.614342
v -77.0685 -51.5342 823.891
vn 0.342919 -0.848876 -0.402264
v -74.5306 -59.7952 822.9
vn 0.132093 -0.814957 0.564266
v -76.5174 -60.4849 823.8
vn 0.3471 -0.924859 -0.155427
v -74.9159 -60.1649 823.2
vn -0.273944 -0.145102 0.950737
v -74.1709 -55.2171 826.638
vn -0.399587 0.434954 0.806936
v -73.8406 -52.2203 825.954
vn -0.183616 0.943177 -0.276953
v -73.8169 -49.223 819.9
vn -0.266029 0.947157 -0.179224
v -73.7038 -48.6912 822
vn -0.374014 0.90215 0.21503
v -73.1326 -48.8893 822.9
vn -0.33469 0.942301 -0.00722361
v -72.4706 -48.661 822.9
vn -0.40905 0.895819 0.173742
v -72.8003 -48.7688 823.2
vn -0.391678 0.406212 0.825579
v -72.1665 -52.5762 827.1
vn -0.37685 0.594544 0.710283
v -70.2643 -51.7537 827.4
vn -0.0972825 0.828046 -0.552155
v -71.4557 -49.6578 817.8
vn -0.224257 0.974515 -0.00539034
v -71.4743 -48.3025 822.6
vn -0.138766 0.943672 -0.30038
v -70.5267 -48.1732 822.9
vn -0.195625 0.933626 -0.300124
v -70.4951 -48.0242 823.187
vn -0.229002 0.966177 -0.118577
v -71.3801 -48.1428 823.2
vn -0.31784 0.936194 0.150063
v -71.1292 -48.1218 823.5
vn -0.221148 0.960297 -0.170069
v -70.1378 -47.7863 823.5
vn -0.34763 0.840466 0.415656
v -69.5722 -48.0113 824.7
vn -0.141043 0.878831 -0.45581
v -69.5509 -47.911 823.2
vn 0.360678 -0.871398 -0.332532
v -69.8266 -57.8657 822.6
vn 0.347602 -0.745607 -0.568544
v -69.7059 -57.393 821.4
vn 0.26705 -0.197243 -0.943281
v -68.852 -53.2807 818.637
vn -0.140335 0.990081 -0.00676843
v -67.26 -47.2335 823.8
vn -0.137926 0.935982 -0.323904
v -66.9558 -47.2454 823.5
vn -0.351698 0.72998 0.586036
v -67.5472 -48.3441 826.8
vn 0.347434 -0.840388 -0.415978
v -68.7212 -58.5224 824.7
vn -0.0890627 -0.626313 0.774467
v -66.5413 -56.8389 827.472
vn -0.152883 -0.525682 0.83683
v -66.1957 -55.6855 828.6
vn -0.38266 0.524283 0.760723
v -67.4103 -50.8268 828.158
vn -0.365652 0.357887 0.859195
v -67.1609 -49.653 828.077
vn 0.208555 -0.066539 -0.975744
v -64.7325 -48.329 819.12
vn -0.161643 0.985711 0.0473837
v -65.1016 -47.1795 822.9
vn -0.203011 0.952745 0.225973
v -66.0696 -47.405 825.9
vn 0.311595 -0.948549 -0.0562387
v -64.8046 -57.3254 827.4
vn 0.324046 -0.914584 -0.241932
v -64.1583 -55.8119 822.6
vn -0.318574 0.312728 0.894825
v -63.39 -49.2277 829.245
vn -0.138043 0.916346 -0.375838
v -62.8808 -46.832 821.1
vn -0.134468 0.985682 -0.101735
v -63.5057 -46.8861 823.5
vn 0.364064 -0.908698 -0.204266
v -62.1305 -56.2885 827.7
vn -0.340773 0.737375 0.583225
v -61.9174 -49.5144 830.1
vn -0.357482 0.703895 0.61379
v -61.9464 -49.6508 830.4
vn -0.0189426 0.684806 -0.728479
v -61.842 -47.7166 819.607
vn -0.00755852 0.865937 -0.500095
v -60.6912 -46.6313 820.8
vn -0.0936501 0.978437 -0.184094
v -60.6133 -46.2645 822.3
vn -0.126701 0.966407 0.223618
v -59.3469 -46.0784 822.9
vn -0.270363 0.814082 0.513979
v -61.4126 -47.1393 828.6
vn -0.282031 0.483136 0.828878
v -60.3748 -48.0284 829.971
vn 0.275356 -0.932784 -0.232577
v -58.8801 -54.1735 825.3
vn 0.346552 -0.918203 -0.191849
v -59.1474 -55.2404 827.7
vn -0.317069 0.176745 0.931788
v -58.0017 -51.2932 832.756
vn -0.28944 0.86992 0.399329
v -58.9629 -48.6006 830.4
vn 0.152713 0.402269 -0.902695
v -59.2474 -47.6547 819.9
vn 0.189005 0.350753 -0.917196
v -57.2532 -47.7718 820.381
vn -0.139145 0.9098 0.391028
v -57.2635 -46.3775 829.2
vn -0.296962 0.798532 0.523603
v -57.3814 -48.3748 831.3
vn -0.0172456 0.99696 -0.0759846
v -57.4858 -45.9804 822.9
vn -0.165596 0.98435 0.0602753
v -58.9843 -45.8153 824.7
vn -0.0735291 0.903294 -0.422675
v -58.6841 -45.8462 824.1
vn -0.0859004 0.938003 0.335815
v -57.8097 -46.0612 823.2
vn -0.0306206 0.954509 -0.296604
v -56.9068 -46.1418 823.8
vn 0.276306 -0.956696 -0.0915863
v -58.1482 -54.8682 828.3
vn 0.252717 -0.964286 -0.0792951
v -57.8548 -54.9305 828.9
vn 0.241422 -0.951571 -0.190339
v -56.8516 -54.54 828
vn 0.278055 -0.787674 -0.549777
v -56.3175 -52.0273 821.7
vn -0.168861 -0.48942 0.855543
v -57.8954 -52.2359 832.727
vn 0.172683 -0.00181365 -0.984976
v -57.2093 -49.008 820.118
vn 0.199609 -0.506102 -0.839057
v -56.9966 -50.8934 820.615
vn -0.28184 0.467967 0.837599
v -56.0355 -49.2575 832.596
vn -0.260018 0.554261 0.790687
v -56.8974 -47.5408 830.576
vn 0.0579534 0.943627 -0.325898
v -55.6979 -46.2263 822.3
vn 0.00474206 0.963473 -0.267765
v -56.4778 -45.5669 824.7
vn -0.0453245 0.89778 0.438105
v -54.6661 -45.7011 827.1
vn -0.0243487 0.979902 0.197988
v -54.6217 -45.4918 826.5
vn -0.0233209 0.97471 0.222255
v -55.4025 -46.2795 828.3
vn 0.0310427 -0.879265 0.47532
v -55.5268 -54.0788 831.3
vn 0.270226 -0.937436 -0.219527
v -55.4063 -53.3783 825.6
vn 0.191652 -0.890508 -0.412633
v -53.8335 -53.3269 826.5
vn 0.206484 -0.959613 -0.191066
v -53.9943 -54.0834 828.3
vn -0.198796 0.63871 0.743323
v -54.0913 -48.1372 832.5
vn -0.201478 0.8104 0.550144
v -53.8494 -47.6303 831.9
vn 0.142214 0.744581 -0.652207
v -53.6604 -46.7408 821.7
vn 0.0256848 0.99638 -0.0810342
v -53.8687 -46.0376 823.8
vn 0.0581143 0.942328 -0.329607
v -54.0942 -45.8962 824.4
vn 0.0556977 0.861978 0.503876
v -52.5962 -46.0632 827.4
vn 0.0204574 -0.931114 0.364154
v -52.0556 -53.6201 832.5
vn 0.291874 -0.955014 -0.0525162
v -51.4396 -53.6081 832.258
vn 0.150149 -0.904236 -0.399765
v -52.5886 -51.7992 822.9
vn 0.288404 -0.812751 -0.506221
v -51.5777 -51.3719 822.3
vn 0.195757 -0.920258 -0.338829
v -52.702 -52.113 824.7
vn 0.311289 -0.906683 -0.28465
v -50.7968 -52.0267 824.7
vn -0.118967 0.263158 0.957389
v -50.7535 -50.3802 834.27
vn 0.231026 -0.45814 -0.858333
v -50.3576 -49.9605 821.4
vn 0.0101141 0.797726 0.602935
v -50.7805 -47.6213 832.5
vn 0.205008 0.587209 -0.783044
v -51.8904 -47.0715 821.723
vn 0.0360502 0.935409 0.351724
v -50.1674 -46.1798 827.4
vn 0.0188545 0.932296 0.361204
v -51.8345 -46.8085 830.7
vn 0.103724 -0.970982 0.215489
v -49.3524 -53.1316 833.4
vn 0.535538 -0.814926 -0.221575
v -49.9466 -52.3919 830.1
vn -0.0837442 -0.397696 0.913687
v -49.8916 -52.0969 834.068
vn 0.033102 -0.62373 0.780938
v -48.2996 -51.8219 834.204
vn -0.00881079 -0.134334 0.990897
v -48.1749 -51.235 834.499
vn 0.211607 0.0159724 -0.977224
v -49.8547 -49.0377 821.29
vn 0.374009 -0.508275 -0.775741
v -49.0727 -49.687 821.7
vn 0.144037 0.623545 -0.768404
v -47.3294 -47.2575 823.2
vn 0.0441985 0.991582 0.121706
v -49.2529 -46.2065 827.7
vn 0.130716 0.99116 -0.0227174
v -49.1574 -45.7571 826.2
vn 0.0946231 0.970433 0.222052
v -47.7409 -46.3074 827.4
vn 0.416679 -0.756109 -0.504656
v -47.7288 -52.0223 832.5
vn 0.170194 -0.838076 0.518327
v -47.1258 -52.0714 833.775
vn 0.163233 0.376833 0.911785
v -46.6453 -51.2534 834.391
vn 0.0800036 -0.933501 0.349535
v -46.479 -51.9142 834
vn 0.119697 -0.413199 0.90274
v -46.4142 -51.6093 834.377
vn 0.172094 -0.961922 0.212344
v -45.8561 -51.8693 833.4
vn 0.173764 0.557239 -0.811967
v -47.3201 -48.6564 822.059
vn 0.606907 -0.776205 -0.170789
v -46.9454 -48.736 822.3
vn 0.105623 -0.0962525 0.989737
v -46.814 -50.6042 833.827
vn 0.105623 -0.0962525 0.989737
v -46.6892 -50.0173 833.871
vn 0.613632 -0.187624 0.766977
v -46.4582 -50.3731 833.599
vn 0.266251 0.409361 0.872659
v -45.5778 -50.5602 833.464
vn 0.0861619 0.639017 -0.764351
v -46.9556 -48.3844 822.3
vn -0.368479 0.842561 -0.392829
v -46.6502 -48.3908 822
vn 0.802031 -0.498677 -0.328737
v -46.6615 -48.4441 822.3
vn 0.0929279 -0.89364 -0.439058
v -46.3729 -48.5291 822
vn 0.58836 -0.80855 -0.00892638
v -46.3233 -48.2956 822.9
vn 0.11251 0.604026 -0.788983
v -46.2526 -47.9632 822.813
vn -0.321227 0.793223 0.517311
v -45.4332 -47.8307 822.9
vn -0.321227 0.793223 0.517311
v -45.2922 -47.7736 822.9
vn -0.321227 0.793223 0.517311
v -45.3099 -47.8569 823.017
vn 0.0732659 0.646858 -0.759083
v -45.7589 -47.0833 823.5
vn 0.490256 0.637666 -0.594164
v -45.0912 -47.5966 823.5
vn 0.206421 0.915049 -0.346521
v -45.0784 -46.7679 824.4
vn 0.0679729 0.600126 -0.797012
v -44.9335 -47.5288 823.2
vn 0.798116 -0.577829 0.17066
v -44.669 -47.073 825.3
vn 0.353617 0.884309 -0.30488
v -44.767 -46.7455 825.348
vn 0.08763 0.969475 0.228997
v -46.8313 -46.357 826.2
vn 0.161441 0.979864 -0.117484
v -46.1996 -46.2708 825.6
vn 0.546496 -0.83708 -0.0252903
v -45.2071 -47.3731 826.8
vn 0.545381 -0.780127 -0.306531
v -45.978 -48.3283 828.9
vn 0.224771 0.642966 0.73217
v -46.9019 -48.1319 832.362
vn -0.0124918 0.999916 -0.00353557
v -44.9819 -46.3138 826.5
vn 0.268856 -0.731678 0.626389
v -45.5339 -51.7964 834.021
vn 0.257163 -0.393233 0.882743
v -45.4715 -51.5029 834.134
vn 0.317584 -0.928779 0.191075
v -45.2381 -51.8592 833.4
vn 0.209232 -0.695615 -0.687271
v -45.09 -51.584 833.1
vn 0.631241 -0.632913 -0.448282
v -44.9144 -51.6213 833.4
vn 0.538224 -0.781542 0.315449
v -45.1781 -51.5653 834.026
vn 0.268338 -0.719683 -0.640352
v -44.9725 -49.1554 831.101
vn 0.382389 0.394425 0.835589
v -44.3856 -49.2801 832.137
vn 0.167064 0.175707 0.970163
v -44.1923 -49.8134 832.2
vn 0.146936 -0.704516 -0.69431
v -43.8379 -49.5889 831.6
vn 0.769009 -0.0743762 -0.634897
v -43.7686 -49.263 831.3
vn 0.260484 -0.697761 0.667292
v -43.5095 -49.4664 831.6
vn -0.626361 -0.488087 0.607818
v -43.2478 -49.522 831.3
vn -0.626361 -0.488087 0.607818
v -43.2183 -49.5599 831.3
vn -0.626361 -0.488087 0.607818
v -43.2118 -49.5296 831.331
vn 0.45346 -0.673703 -0.583523
v -43.0447 -50.1861 831.6
vn 0.45346 -0.673703 -0.583523
v -43.0431 -50.1789 831.593
vn 0.45346 -0.673703 -0.583523
v -43.0362 -50.1804 831.6
vn 0.418653 0.483943 0.768459
v -45.4091 -51.2095 834.035
vn 0.356608 0.667668 0.653491
v -44.9909 -50.685 833.271
vn 0.362009 -0.00027282 0.932175
v -44.9286 -50.3915 833.29
vn 0.382363 0.679424 0.626245
v -44.8662 -50.0981 833.252
vn 0.713036 0.363458 0.599565
v -44.7025 -51.053 833.1
vn 0.406661 -0.877615 0.253809
v -44.4422 -47.1212 824.4
vn 0.555075 -0.803033 0.216862
v -44.5359 -47.1013 824.582
vn 0.163021 0.738619 -0.654115
v -44.1543 -46.7487 824.4
vn -0.187283 0.217027 0.958032
v -44.1801 -46.8702 824.599
vn 0.351521 -0.908402 0.226361
v -43.8866 -46.9326 824.294
vn 0.0985217 -0.679027 0.727473
v -43.5932 -46.9949 824.403
vn -0.393023 -0.916416 -0.0756032
v -42.6718 -46.9889 825.3
vn 0.405674 -0.852997 0.328368
v -42.4228 -47.2605 824.7
vn 0.405674 -0.852997 0.328368
v -42.3984 -47.2489 824.7
vn 0.405674 -0.852997 0.328368
v -42.4194 -47.2444 824.738
vn -0.315808 0.9414 0.118455
v -42.2197 -47.2869 825
vn 0.213582 -0.974398 -0.0702171
v -44.1923 -46.9275 826.2
vn 0.119036 -0.958847 -0.257767
v -44.2084 -47.0033 827.1
vn 0.662013 0.676411 -0.322811
v -43.9495 -46.9192 826.5
vn 0.209844 -0.977724 -0.00468847
v -43.8745 -46.8755 826.2
vn 0.111068 -0.97964 -0.167244
v -43.8269 -46.9453 826.8
vn -0.124024 -0.936732 -0.327338
v -43.5932 -46.9949 826.99
vn -0.0776223 -0.996974 0.00412519
v -43.2505 -46.8258 825.9
vn 0.0362707 -0.795015 0.605504
v -42.9454 -46.8331 826.2
vn 0.274826 0.847854 0.453446
v -43.0063 -47.1197 827.85
vn -0.172488 -0.909641 -0.37789
v -42.7436 -47.3265 827.4
vn -0.43211 -0.743435 -0.510476
v -42.7403 -47.4829 827.7
vn -0.643719 -0.156692 -0.749048
v -42.7752 -47.4755 827.726
vn -0.43211 -0.743435 -0.510476
v -42.4998 -47.6227 827.7
vn -0.337729 0.880356 -0.333035
v -42.3113 -47.5741 827.4
vn -0.43211 -0.743435 -0.510476
v -42.4818 -47.5379 827.561
vn 0.463535 -0.781581 -0.417452
v -42.3898 -47.5574 827.7
vn -0.155356 0.784738 -0.600043
v -42.4582 -47.4271 827.7
vn -0.403447 -0.694121 0.596176
v -42.4818 -47.5379 827.811
vn -0.348634 -0.937259 0.000302105
v -42.3955 -47.1321 825.6
vn -0.20738 -0.975662 -0.0712527
v -42.2597 -47.2784 826.5
vn -0.273936 -0.124072 -0.953711
v -42.4194 -47.2444 826.685
vn 0.316135 -0.862759 -0.394597
v -44.7576 -48.1444 829.8
vn 0.140051 0.980545 0.137541
v -44.2187 -47.0517 828.6
vn 0.179209 0.96728 -0.179593
v -43.9632 -47.2927 828.9
vn 0.446923 0.785987 0.427182
v -43.4501 -47.3321 829.2
vn -0.0179658 -0.985871 -0.166542
v -43.3966 -47.5129 828.6
vn 0.0769388 0.783015 -0.617226
v -43.3621 -47.3508 828.81
vn -0.0303761 -0.85736 -0.51382
v -43.3023 -48.5123 830.1
vn -0.0588148 -0.748588 -0.660422
v -43.2558 -48.2935 829.699
vn 0.554011 -0.766374 0.325181
v -43.0578 -48.3355 830.1
vn 0.755699 0.59571 0.272121
v -43.0467 -48.0312 829.5
vn -0.195485 -0.973098 -0.121926
v -43.0877 -47.5025 828
vn -0.0920316 -0.994278 0.0542382
v -43.0843 -47.4865 828.3
vn 0.523578 -0.724275 0.448656
v -42.8592 -48.3778 829.8
vn -0.307713 -0.93364 -0.183381
v -42.8011 -47.597 828
vn -0.443846 -0.480627 -0.756305
v -42.8376 -47.769 828.435
vn 0.549266 -0.830053 -0.0965311
v -42.7757 -47.7821 828.9
vn 0.476626 -0.819473 -0.318264
v -42.6412 -47.504 828
vn 0.75368 0.564333 -0.336888
v -42.7481 -47.348 828
vn 0 0 -1
v -42.3453 -47.8736 828
vn 0.449025 0.630473 0.633151
v -44.104 -48.7266 831.6
vn 0.769009 -0.0743762 -0.634897
v -43.7245 -48.8073 831.3
vn 0.606864 0.475938 0.636552
v -43.7279 -49.0718 831.6
vn 0.0303885 -0.840792 -0.540505
v -43.3849 -48.901 830.7
vn 0.639578 0.726536 -0.251168
v -43.0302 -48.6481 830.4
vn 0.574503 -0.794721 0.19587
v -43.2837 -48.4249 830.4
vn -0.543081 -0.655326 0.524986
v -42.807 -49.0023 830.4
vn -0.543081 -0.655326 0.524986
v -42.7951 -49.0121 830.4
vn -0.543081 -0.655326 0.524986
v -42.7937 -49.0051 830.41
vn -0.245091 -0.960322 -0.133088
v -43.2374 -46.7639 825.513
vn 0.223628 -0.902811 -0.367318
v -42.2494 -46.9739 825.3
vn 0.0399659 0.865688 -0.498986
v -44.1177 -46.5768 825.788
vn 0.0250269 0.979097 0.201849
v -43.8243 -46.6391 827.344
vn 0.11361 0.193748 0.974451
v -43.5308 -46.7015 826.408
vn -0.393372 0.801933 -0.449624
v -43.5308 -46.7015 826.976
vn -0.0703775 0.685289 -0.724863
v -42.5779 -46.547 825.6
vn 0.405639 -0.875065 -0.264042
v -42.1156 -47.0023 825.6
vn -0.277937 -0.0551023 -0.959018
v -42.357 -46.951 826.629
vn 0.0434279 0.990137 -0.1332
v -42.3203 -46.7782 826.8
vn -0.782784 -0.300996 0.544656
v -42.1074 -50.0711 830.1
vn 0.545705 -0.568823 -0.615343
v -42.3315 -49.7167 830.313
vn -0.782784 -0.300996 0.544656
v -42.1027 -50.0833 830.1
vn -0.782784 -0.300996 0.544656
v -42.1004 -50.0726 830.109
vn 0.545705 -0.568823 -0.615343
v -42.3566 -49.8349 830.4
vn 0.545705 -0.568823 -0.615343
v -42.2512 -49.7338 830.4
vn -0.315808 0.9414 0.118455
v -42.1142 -47.2515 825
vn -0.315808 0.9414 0.118455
v -42.1229 -47.2921 825.3
vn -0.114021 -0.982717 -0.145828
v -42.0062 -47.9457 827.7
vn -0.337729 0.880356 -0.333035
v -42.1883 -47.6003 827.206
vn -0.337729 0.880356 -0.333035
v -42.1714 -47.5205 827.4
vn -0.20738 -0.975662 -0.0712527
v -42.1215 -47.2859 826.2
vn -0.20738 -0.975662 -0.0712527
v -42.0271 -47.3278 826.5
vn -0.332215 0.926607 -0.176162
v -42.1084 -47.2241 826.5
vn -0.978146 0.207918 8.31625e-005
v -42.3175 -48.2078 828.6
vn 0 0 -1
v -42.2648 -47.9602 828
vn -0.700135 -0.565094 -0.43644
v -42.1128 -48.2297 828.3
vn -0.96353 -0.0051265 0.267551
v -42.2616 -47.9449 828.3
vn -0.978146 0.207918 8.31625e-005
v -42.3131 -48.1871 828.566
vn -0.978146 0.207918 8.31625e-005
v -42.3078 -48.1622 828.6
vn 0 0 -1
v -42.2364 -47.8262 828
vn -0.96353 -0.0051265 0.267551
v -42.2507 -47.8937 828.34
vn -0.700128 -0.565117 -0.436421
v -42.0357 -48.3252 828.3
vn -0.115124 -0.992228 -0.0472304
v -41.9655 -47.9949 828
vn 0 0 -1
v -41.9625 -47.9805 828.3
vn 0 0 1
v -42.0172 -48.2379 828.6
vn 0.708565 -0.385659 0.590933
v -42.0636 -47.0134 826.789
vn -0.194297 -0.464271 -0.864119
v -123.128 -89.305 811.5
vn -0.532526 -0.336789 0.776524
v -123.128 -89.305 811.5
vn -0.38443 -0.918592 0.0916623
v -123.128 -89.305 811.5
vn -0.376651 0.703756 -0.60238
v -123.128 -89.305 811.5
vn -0.292897 0.0702186 -0.953562
v -123.128 -89.305 811.5
vn -0.870539 -0.00388738 0.492085
v -122.768 -89.0527 811.57
vn -0.368459 0.494223 -0.787389
v -122.768 -89.0527 811.57
vn -0.38443 -0.918592 0.0916623
v -122.565 -89.5408 811.5
vn 0.267052 -0.750539 -0.604462
v -122.565 -89.5408 811.5
vn 0.334164 -0.939152 0.0795472
v -122.565 -89.5408 811.5
vn -0.38443 -0.918592 0.0916623
v -122.559 -89.5133 811.8
vn 0.415228 -0.891311 0.182071
v -122.559 -89.5133 811.8
vn -0.298607 0.0431107 -0.953402
v -122.474 -89.115 811.313
vn 0.251533 0.45394 -0.854792
v -122.874 -88.11 811.773
vn 0.251533 0.45394 -0.854792
v -122.727 -88.1411 811.8
vn 0.251533 0.45394 -0.854792
v -122.864 -88.0651 811.8
vn -0.208545 0.205314 -0.956219
v -122.643 -87.8524 811.8
vn -0.406269 0.26488 0.87452
v -122.643 -87.8524 811.8
vn -0.509662 0.860355 0.00584105
v -122.643 -87.8524 811.8
vn -0.870539 -0.00388738 0.492085
v -122.412 -88.8216 812.201
vn -0.219281 -0.336117 0.915937
v -122.412 -88.8216 812.201
vn -0.406269 0.26488 0.87452
v -122.412 -88.8216 812.201
vn 0.289725 -0.905711 0.30943
v -122.233 -89.4227 811.5
vn -0.24631 -0.707692 -0.662196
v -122.233 -89.4227 811.5
vn 0.198789 -0.938924 -0.280898
v -122.233 -89.4227 811.5
vn -0.26379 -0.247437 -0.932303
v -122.181 -89.1774 811.219
vn 0.267052 -0.750539 -0.604462
v -122.181 -89.1774 811.219
vn -0.024565 -0.379298 0.924948
v -122.181 -89.1774 812.131
vn 0.198789 -0.938924 -0.280898
v -121.892 -89.2607 811.2
vn -0.734425 -0.342697 0.585814
v -121.892 -89.2607 811.2
vn 0.122071 -0.853802 0.506083
v -121.594 -89.3022 811.549
vn -0.577921 -0.298535 0.759529
v -121.594 -89.3022 811.549
vn -0.407031 -0.337529 0.848764
v -121.395 -89.8116 811.5
vn 0.18467 -0.914506 -0.359966
v -121.395 -89.8116 811.5
vn 0.262149 -0.952925 0.152353
v -121.395 -89.8116 811.5
vn 0.18467 -0.914506 -0.359966
v -120.728 -89.5588 811.2
vn -0.473233 0.604299 -0.640994
v -120.82 -88.5466 810.795
vn -0.18306 0.609849 -0.771086
v -121.342 -86.6721 811.5
vn -0.0416371 -0.440942 0.896569
v -121.149 -89.09 811.8
vn -0.18306 0.609849 -0.771086
v -121.192 -86.6273 811.5
vn -0.18306 0.609849 -0.771086
v -121.326 -86.5988 811.554
vn -0.112115 0.239955 -0.964288
v -121.035 -86.3539 811.5
vn 0.207916 0.978147 -2.64665e-005
v -121.035 -86.3539 811.5
vn -0.0352531 -0.350325 -0.935965
v -121.035 -86.3539 811.5
vn -0.408519 -0.0130929 0.912656
v -121.035 -86.3539 811.5
vn -0.301314 0.912262 -0.277466
v -121.035 -86.3539 811.5
vn 0.105271 -0.52236 0.846202
v -121.003 -86.5201 811.5
vn -0.0596501 -0.0116863 -0.998151
v -121.003 -86.5201 811.5
vn 0.174341 -0.488624 -0.854899
v -121.003 -86.5201 811.5
vn 0.105271 -0.52236 0.846202
v -120.97 -86.3677 811.59
vn 0.207916 0.978147 -2.64665e-005
v -120.97 -86.3677 811.59
vn 0.025863 -0.361766 -0.93191
v -120.739 -86.7235 811.627
vn -0.408519 -0.0130929 0.912656
v -120.739 -86.7235 811.627
vn -0.509662 0.860355 0.00584105
v -120.739 -86.7235 811.627
vn 0.0757921 -0.406102 -0.910679
v -120.677 -86.4301 811.515
vn 0.207916 0.978147 -2.64665e-005
v -120.677 -86.4301 811.515
vn 0.131038 -0.431625 -0.892485
v -120.321 -86.199 811.456
vn -0.301314 0.912262 -0.277466
v -120.302 -86.1119 811.5
vn -0.558415 0.75792 0.337239
v -120.302 -86.1119 811.5
vn -0.555166 0.640815 -0.530233
v -119.397 -87.6223 810.409
vn 0.148917 -0.477641 -0.865842
v -119.126 -89.2352 811.2
vn 0.424702 -0.897669 0.117552
v -119.126 -89.2352 811.2
vn -0.267895 0.0369227 -0.96274
v -118.329 -86.9291 810.138
vn 0.198148 -0.470694 -0.859758
v -118.329 -86.9291 810.138
vn -0.140468 0.0222133 -0.989836
v -118.329 -86.9291 810.138
vn -0.290578 0.0543905 -0.955304
v -117.262 -86.2359 810.002
vn -0.586489 0.690672 -0.423087
v -117.196 -85.9277 810
vn -0.546258 0.434277 0.716244
v -116.554 -83.6261 813.3
vn -0.745044 0.663736 0.0660651
v -116.554 -83.6261 813.3
vn -0.171132 -0.057409 0.983574
v -116.532 -84.2441 813.546
vn -0.408519 -0.0130929 0.912656
v -116.532 -84.2441 813.546
vn -0.301314 0.912262 -0.277466
v -116.532 -84.2441 813.546
vn -0.509662 0.860355 0.00584105
v -116.532 -84.2441 813.546
vn -0.558415 0.75792 0.337239
v -116.532 -84.2441 813.546
vn -0.981636 -0.0996609 -0.162659
v -116.532 -84.2441 813.546
vn -0.558415 0.75792 0.337239
v -116.302 -83.1647 811.5
vn -0.981636 -0.0996609 -0.162659
v -116.302 -83.1647 811.5
vn -0.752519 0.65439 0.0740905
v -116.302 -83.1647 811.5
vn 0.555322 -0.803482 -0.214556
v -116.133 -87.3959 810.9
vn -0.181548 -0.0873834 -0.979492
v -115.127 -84.8494 809.103
vn -0.540359 0.347502 -0.766325
v -115.127 -84.8494 809.103
vn -0.617551 0.773458 -0.142805
v -114.712 -84.3425 809.1
vn -0.787157 0.616738 -0.00435934
v -115.405 -82.3367 813.3
vn -0.357846 0.378502 -0.853629
v -112.989 -79.1216 811.8
vn -0.272553 0.685415 -0.67522
v -113.519 -83.0592 808.2
vn -0.272553 0.685415 -0.67522
v -113.495 -83.0494 808.2
vn -0.272553 0.685415 -0.67522
v -113.516 -83.0448 808.213
vn -0.200813 0.56076 -0.803257
v -113.165 -82.8353 808.2
vn -0.200813 0.56076 -0.803257
v -113.126 -82.8212 808.2
vn -0.200813 0.56076 -0.803257
v -113.161 -82.8138 808.214
vn -0.261589 0.424031 -0.867046
v -112.815 -82.6294 808.2
vn -0.606198 0.492628 -0.624373
v -112.855 -82.817 808.5
vn -0.58832 0.798971 -0.124598
v -112.855 -82.817 808.5
vn -0.261589 0.424031 -0.867046
v -112.756 -82.5931 808.2
vn -0.261589 0.424031 -0.867046
v -112.805 -82.5827 808.22
vn -0.682869 -0.420364 0.597481
v -111.677 -81.5955 808.2
vn -0.447756 0.679858 -0.580782
v -111.677 -81.5955 808.2
vn -0.443783 0.673825 0.590777
v -111.677 -81.5955 808.2
vn -0.682869 -0.420364 0.597481
v -111.675 -81.5985 808.2
vn 0.443357 -0.672921 -0.592125
v -111.675 -81.5985 808.2
vn 0.439269 -0.666717 0.602105
v -111.675 -81.5985 808.2
vn -0.447756 0.679858 -0.580782
v -111.675 -81.596 808.198
vn 0.443357 -0.672921 -0.592125
v -111.675 -81.596 808.198
vn 0.675849 0.446383 -0.58649
v -111.675 -81.596 808.198
vn 0.439269 -0.666717 0.602105
v -111.673 -81.5965 808.2
vn 0.675849 0.446383 -0.58649
v -111.673 -81.5965 808.2
vn 0.669735 0.442345 0.596478
v -111.673 -81.5965 808.2
vn -0.443783 0.673825 0.590777
v -111.674 -81.5937 808.2
vn 0.675849 0.446383 -0.58649
v -111.674 -81.5937 808.2
vn 0.669735 0.442345 0.596478
v -111.674 -81.5937 808.2
vn -0.443783 0.673825 0.590777
v -111.675 -81.596 808.202
vn 0.439269 -0.666717 0.602105
v -111.675 -81.596 808.202
vn 0.669735 0.442345 0.596478
v -111.675 -81.596 808.202
vn 0.556133 -0.769042 -0.315104
v -111.295 -82.6945 808.2
vn -0.112821 0.0284112 -0.993209
v -111.295 -82.6945 808.2
vn 0.393103 -0.476774 -0.786229
v -111.295 -82.6945 808.2
vn -0.12094 -0.267442 0.955954
v -112.181 -79.6482 814.432
vn -0.168225 -0.214943 0.962029
v -110.633 -78.1371 815.22
vn -0.630697 0.718572 -0.293043
v -110.376 -81.2586 808.254
vn -0.189765 0.33157 -0.924148
v -110.376 -81.2586 808.254
vn 0.329436 -0.104336 -0.938395
v -110.376 -81.2586 808.254
vn -0.453566 0.674008 0.583088
v -108.812 -78.2251 807.9
vn -0.453566 0.674008 0.583088
v -108.81 -78.2179 807.893
vn -0.453566 0.674008 0.583088
v -108.803 -78.2194 807.9
vn -0.683841 -0.445421 0.577894
v -108.038 -77.4618 807.9
vn -0.444393 0.684108 -0.57837
v -108.038 -77.4618 807.9
vn -0.444393 0.684108 0.57837
v -108.038 -77.4618 807.9
vn -0.683841 -0.445421 0.577894
v -108.036 -77.4646 807.9
vn 0.445985 -0.684707 -0.576432
v -108.036 -77.4646 807.9
vn 0.445985 -0.684707 0.576432
v -108.036 -77.4646 807.9
vn -0.444393 0.684108 -0.57837
v -108.036 -77.4623 807.898
vn 0.445985 -0.684707 -0.576432
v -108.036 -77.4623 807.898
vn 0.684556 0.444036 -0.578113
v -108.036 -77.4623 807.898
vn 0.445985 -0.684707 0.576432
v -108.034 -77.4628 807.9
vn 0.684556 0.444036 -0.578113
v -108.034 -77.4628 807.9
vn 0.684556 0.444036 0.578113
v -108.034 -77.4628 807.9
vn -0.444393 0.684108 0.57837
v -108.035 -77.46 807.9
vn 0.684556 0.444036 -0.578113
v -108.035 -77.46 807.9
vn 0.684556 0.444036 0.578113
v -108.035 -77.46 807.9
vn -0.444393 0.684108 0.57837
v -108.036 -77.4623 807.902
vn 0.445985 -0.684707 0.576432
v -108.036 -77.4623 807.902
vn 0.684556 0.444036 0.578113
v -108.036 -77.4623 807.902
vn -0.239807 0.365615 -0.899343
v -108.263 -78.529 808.8
vn 0.322928 -0.673495 0.664922
v -106.702 -81.285 813.3
vn -0.0888499 0.265969 -0.959878
v -105.065 -75.0268 809.426
vn -0.105572 0.3092 -0.945119
v -104.746 -77.8549 808.54
vn -0.26674 0.409062 -0.87265
v -102.904 -76.4062 808.896
vn -0.564117 0.627033 -0.537217
v -102.435 -75.6432 808.8
vn -0.564117 0.627033 -0.537217
v -102.384 -75.5967 808.8
vn -0.564117 0.627033 -0.537217
v -102.424 -75.5882 808.852
vn 0.298752 -0.740098 0.602497
v -102.008 -75.0732 808.8
vn 0.298752 -0.740098 0.602497
v -101.991 -75.0667 808.8
vn 0.298752 -0.740098 0.602497
v -102.005 -75.0637 808.811
vn -0.664158 0.668203 -0.335258
v -101.639 -74.7814 809.4
vn 0.465933 -0.429678 -0.773488
v -101 -74.6639 809.037
vn -0.696651 0.652649 -0.29787
v -100.102 -73.3214 809.004
vn 0.375719 -0.236521 -0.896043
v -100.102 -73.3214 809.004
vn -0.480323 0.68036 -0.553535
v -100.102 -73.3214 809.004
vn -0.226009 0.49396 -0.839597
v -100.102 -73.3214 809.004
vn 0.447423 -0.78655 0.42562
v -98.4218 -75.5187 813.243
vn -0.70138 0.691044 -0.17471
v -98.0731 -70.9923 810.073
vn -0.5496 0.764219 -0.337503
v -96.0661 -69.272 810.3
vn 0.251035 -0.0159566 -0.967846
v -97.2622 -67.1775 811.015
vn 0.29322 -0.0151992 -0.955924
v -96.4258 -66.1285 811.273
vn 0.447423 -0.78655 0.42562
v -96.5128 -73.7525 814.5
vn 0.483079 -0.761464 0.432212
v -96.5128 -73.7525 814.5
vn 0.0738335 -0.494954 0.865777
v -96.5128 -73.7525 814.5
vn 0.460645 -0.737199 0.494311
v -95.174 -72.2219 815.7
vn 0.595537 -0.796985 0.100749
v -94.3349 -72.4003 816.6
vn -0.234356 0.492283 -0.838293
v -96.0005 -69.8993 809.913
vn -0.652633 0.719155 -0.238508
v -93.6161 -67.3391 810.723
vn 0.387389 -0.122169 -0.913786
v -93.6161 -67.3391 810.723
vn -0.136834 0.600177 -0.788076
v -93.6161 -67.3391 810.723
vn -0.216256 0.3932 -0.893659
v -93.449 -67.068 810.9
vn -0.216256 0.3932 -0.893659
v -93.2603 -67.1081 810.837
vn -0.632844 0.740861 -0.225021
v -93.1979 -66.8146 810.869
vn 0.38035 -0.132727 -0.915269
v -93.1979 -66.8146 810.869
vn 0.519319 -0.339264 -0.784352
v -93.2674 -62.8127 812.143
vn 0.680382 -0.716928 -0.15197
v -92.9524 -62.7735 812.4
vn 0.688181 -0.703943 -0.175705
v -91.8464 -61.888 813
vn 0.670567 -0.73318 -0.113078
v -93.0584 -71.1381 815.7
vn 0.15066 -0.477975 0.865356
v -93.0584 -71.1381 815.7
vn 0.581655 -0.701375 0.412008
v -93.0584 -71.1381 815.7
vn 0.15066 -0.477975 0.865356
v -93.1285 -70.8165 815.89
vn 0.596073 -0.72404 -0.347078
v -91.1716 -68.8248 816.9
vn -0.335712 0.511445 -0.791026
v -92.1025 -65.8206 811.5
vn 0.412745 -0.212469 -0.885719
v -90.6448 -64.9037 811.474
vn -0.335712 0.511445 -0.791026
v -90.6448 -64.9037 811.474
vn 0.56423 -0.559909 -0.606751
v -89.5276 -59.6474 812.7
vn 0.223554 -0.0456155 -0.973624
v -89.5276 -59.6474 812.7
vn 0.500033 -0.472378 -0.725828
v -89.1615 -59.3678 813.6
vn 0.226554 -0.458038 0.859578
v -90.7473 -68.869 816.3
vn 0.556606 -0.796798 0.235166
v -89.5361 -68.345 819
vn -0.335712 0.511445 -0.791026
v -89.4599 -63.622 811.8
vn -0.323642 0.718107 -0.616099
v -89.4599 -63.622 811.8
vn -0.022488 0.452823 -0.891317
v -87.3177 -62.2372 812.637
vn 0.470813 -0.456812 -0.754757
v -86.7379 -58.0666 814.324
vn 0.641277 -0.680925 -0.353701
v -86.5866 -66.0122 819.9
vn -0.197618 0.570776 -0.79697
v -86.5437 -61.4816 812.918
vn 0.488056 -0.175038 -0.855081
v -86.5437 -61.4816 812.918
vn 0.336547 -0.0220997 -0.941407
v -85.8638 -56.8399 813.6
vn 0.358846 -0.140735 -0.922726
v -85.0028 -55.6751 813.954
vn 0.458509 -0.47944 -0.748269
v -84.1342 -55.9175 814.5
vn 0.165786 0.104644 -0.980594
v -83.8914 -56.218 814.924
vn -0.470321 0.881932 -0.0315246
v -83.312 -53.4922 815.7
vn 0.587429 -0.755216 -0.290819
v -84.4295 -64.5212 821.1
vn -0.0775269 0.747007 -0.66028
v -77.4243 -51.7653 816.035
vn -0.365636 0.831613 0.418007
v -73.7038 -48.6912 822
vn 0.313003 -0.949752 0.000171007
v -68.7212 -58.5224 824.7
vn -0.0251378 0.743885 -0.667834
v -64.7325 -48.329 819.12
vn -0.0988398 -0.601957 0.792388
v -64.8046 -57.3254 827.4
vn -0.0325916 0.608543 -0.792851
v -63.5057 -46.8861 823.5
vn -0.268738 0.276983 0.922529
v -58.9629 -48.6006 830.4
vn -0.100206 0.972748 -0.209094
v -56.9068 -46.1418 823.8
vn 0.0952492 0.562728 0.821137
v -50.7535 -50.3802 834.27
vn 0.105623 -0.0962525 0.989737
v -50.7535 -50.3802 834.27
vn 0.351081 -0.864219 -0.360373
v -49.3524 -53.1316 833.4
vn 0.043121 -0.64945 0.75918
v -49.3524 -53.1316 833.4
vn 0.33947 -0.940225 -0.0271545
v -49.3524 -53.1316 833.4
vn -0.0489723 0.953566 -0.297177
v -47.3294 -47.2575 823.2
vn 0.125146 0.917862 0.376653
v -49.2529 -46.2065 827.7
vn 0.260642 0.908539 -0.326532
v -49.2529 -46.2065 827.7
vn 0.0226104 0.788729 0.614325
v -49.2529 -46.2065 827.7
vn 0.33947 -0.940225 -0.0271545
v -45.8561 -51.8693 833.4
vn 0.0119916 -0.739752 -0.672773
v -45.8561 -51.8693 833.4
vn 0.369844 -0.326246 -0.86993
v -47.3201 -48.6564 822.059
vn 0.0929279 -0.89364 -0.439058
v -47.3201 -48.6564 822.059
vn -0.368479 0.842561 -0.392829
v -47.3201 -48.6564 822.059
vn -0.0484488 -0.0971005 -0.994095
v -47.3201 -48.6564 822.059
vn 0.419712 -0.436913 -0.79558
v -46.9454 -48.736 822.3
vn 0.0929279 -0.89364 -0.439058
v -46.9454 -48.736 822.3
vn 0.53626 -0.521486 0.663685
v -46.9454 -48.736 822.3
vn 0.181321 0.627358 0.757327
v -46.814 -50.6042 833.827
vn 0.613632 -0.187624 0.766977
v -46.814 -50.6042 833.827
vn 0.149941 0.628061 0.763582
v -46.6892 -50.0173 833.871
vn 0.613632 -0.187624 0.766977
v -46.6892 -50.0173 833.871
vn 0.161855 -0.530679 0.831975
v -46.6892 -50.0173 833.871
vn 0.323046 0.0522123 0.944942
v -46.6892 -50.0173 833.871
vn 0.215747 0.35809 0.908419
v -46.4582 -50.3731 833.599
vn 0.161855 -0.530679 0.831975
v -46.4582 -50.3731 833.599
vn -0.368479 0.842561 -0.392829
v -46.9556 -48.3844 822.3
vn 0.195792 0.964174 0.178982
v -46.9556 -48.3844 822.3
vn 0.320415 0.930461 0.177697
v -46.6502 -48.3908 822
vn -0.0484488 -0.0971005 -0.994095
v -46.6502 -48.3908 822
vn 0.320415 0.930461 0.177697
v -46.6615 -48.4441 822.3
vn 0.146385 0.648774 -0.746769
v -46.6615 -48.4441 822.3
vn 0.53626 -0.521486 0.663685
v -46.6615 -48.4441 822.3
vn -0.0484488 -0.0971005 -0.994095
v -46.3729 -48.5291 822
vn 0.53626 -0.521486 0.663685
v -46.3729 -48.5291 822
vn 0.439698 0.881238 0.173451
v -46.3729 -48.5291 822
vn 0.359265 -0.306211 -0.881569
v -46.3233 -48.2956 822.9
vn 0.862369 -0.291267 -0.414106
v -46.2526 -47.9632 822.813
vn 0.359265 -0.306211 -0.881569
v -46.2526 -47.9632 822.813
vn 0.321227 -0.793223 -0.517311
v -45.4332 -47.8307 822.9
vn 0.321227 -0.793223 -0.517311
v -45.2922 -47.7736 822.9
vn 0.321227 -0.793223 -0.517311
v -45.3099 -47.8569 823.017
vn -0.0489723 0.953566 -0.297177
v -45.7589 -47.0833 823.5
vn 0.490256 0.637666 -0.594164
v -45.7589 -47.0833 823.5
vn 0.545236 0.709179 0.446971
v -45.7589 -47.0833 823.5
vn 0.545236 0.709179 0.446971
v -45.0912 -47.5966 823.5
vn 0.418658 -0.896102 0.147399
v -45.0912 -47.5966 823.5
vn 0.0642582 0.692071 -0.718963
v -45.0912 -47.5966 823.5
vn -0.0489723 0.953566 -0.297177
v -45.0784 -46.7679 824.4
vn 0.490256 0.637666 -0.594164
v -45.0784 -46.7679 824.4
vn -0.187283 0.217027 0.958032
v -45.0784 -46.7679 824.4
vn -0.0152886 0.735643 -0.677197
v -45.0784 -46.7679 824.4
vn -0.0177512 0.854137 0.519745
v -45.0784 -46.7679 824.4
vn 0.359265 -0.306211 -0.881569
v -44.9335 -47.5288 823.2
vn 0.545236 0.709179 0.446971
v -44.9335 -47.5288 823.2
vn 0.474039 -0.879046 0.0506455
v -44.9335 -47.5288 823.2
vn 0.951184 0.260167 0.166019
v -44.669 -47.073 825.3
vn 0.492027 0.268138 -0.828258
v -44.669 -47.073 825.3
vn 0.376616 -0.925018 -0.0500084
v -44.669 -47.073 825.3
vn 0.774891 -0.543552 -0.322638
v -44.669 -47.073 825.3
vn 0.951184 0.260167 0.166019
v -44.767 -46.7455 825.348
vn 0.492027 0.268138 -0.828258
v -44.767 -46.7455 825.348
vn 0.252942 0.656232 0.710901
v -46.9019 -48.1319 832.362
vn 0.47571 0.811268 -0.339918
v -44.9819 -46.3138 826.5
vn 0.11361 0.193748 0.974451
v -44.9819 -46.3138 826.5
vn 0.256003 0.847991 0.464083
v -44.9819 -46.3138 826.5
vn 0.292229 0.198801 0.935457
v -45.4715 -51.5029 834.134
vn 0.0119916 -0.739752 -0.672773
v -45.2381 -51.8592 833.4
vn 0.540673 -0.735644 -0.408045
v -45.2381 -51.8592 833.4
vn 0.33947 -0.940225 -0.0271545
v -45.09 -51.584 833.1
vn 0.0119916 -0.739752 -0.672773
v -45.09 -51.584 833.1
vn 0.700452 -0.6275 -0.340016
v -45.09 -51.584 833.1
vn 0.563772 -0.767073 0.306201
v -44.9144 -51.6213 833.4
vn 0.909425 -0.130604 0.394828
v -44.9144 -51.6213 833.4
vn 0.242816 -0.391955 0.887362
v -45.1781 -51.5653 834.026
vn 0.54733 0.335182 0.766866
v -45.1781 -51.5653 834.026
vn 0.909425 -0.130604 0.394828
v -45.1781 -51.5653 834.026
vn 0.748978 0.339093 0.569252
v -44.3856 -49.2801 832.137
vn 0.260484 -0.697761 0.667292
v -44.3856 -49.2801 832.137
vn 0.477752 0.721537 0.501137
v -44.1923 -49.8134 832.2
vn 0.823035 0.139836 0.550508
v -44.1923 -49.8134 832.2
vn 0.80301 -0.585919 -0.108966
v -43.8379 -49.5889 831.6
vn 0.815205 0.182335 0.549722
v -43.8379 -49.5889 831.6
vn 0.260484 -0.697761 0.667292
v -43.8379 -49.5889 831.6
vn 0.258379 -0.683327 -0.682865
v -43.7686 -49.263 831.3
vn 0.730716 -0.0706726 -0.679014
v -43.5095 -49.4664 831.6
vn 0.255178 -0.683549 -0.683846
v -43.5095 -49.4664 831.6
vn 0.693198 0.38386 0.610023
v -43.5095 -49.4664 831.6
vn 0.626361 0.488087 -0.607818
v -43.2478 -49.522 831.3
vn 0.626361 0.488087 -0.607818
v -43.2183 -49.5599 831.3
vn 0.626361 0.488087 -0.607818
v -43.2118 -49.5296 831.331
vn -0.45346 0.673703 0.583523
v -43.0447 -50.1861 831.6
vn -0.45346 0.673703 0.583523
v -43.0431 -50.1789 831.593
vn -0.45346 0.673703 0.583523
v -43.0362 -50.1804 831.6
vn 0.328374 -0.129735 0.935596
v -44.9909 -50.685 833.271
vn 0.737656 0.295936 0.606865
v -44.9909 -50.685 833.271
vn 0.161855 -0.530679 0.831975
v -44.9286 -50.3915 833.29
vn 0.607591 0.028558 0.793736
v -44.8662 -50.0981 833.252
vn 0.909425 -0.130604 0.394828
v -44.7025 -51.053 833.1
vn 0.770642 -0.562301 -0.299881
v -44.7025 -51.053 833.1
vn 0.690924 -0.0225682 0.722575
v -44.7025 -51.053 833.1
vn 0.0985217 -0.679027 0.727473
v -44.4422 -47.1212 824.4
vn 0.107671 -0.708168 -0.697786
v -44.4422 -47.1212 824.4
vn -0.187283 0.217027 0.958032
v -44.5359 -47.1013 824.582
vn 0.561089 0.802381 -0.203379
v -44.5359 -47.1013 824.582
vn 0.951184 0.260167 0.166019
v -44.5359 -47.1013 824.582
vn 0.164147 0.832041 0.529871
v -44.1543 -46.7487 824.4
vn 0.164147 0.832041 0.529871
v -44.1801 -46.8702 824.599
vn 0.499399 -0.794701 0.345037
v -44.1801 -46.8702 824.599
vn 0.0985217 -0.679027 0.727473
v -44.1801 -46.8702 824.599
vn 0.2517 0.730987 -0.634276
v -43.8866 -46.9326 824.294
vn 0.107671 -0.708168 -0.697786
v -43.8866 -46.9326 824.294
vn 0.351677 0.795521 -0.493425
v -43.5932 -46.9949 824.403
vn 0.340517 0.781924 0.522152
v -43.5932 -46.9949 824.403
vn 0.107671 -0.708168 -0.697786
v -43.5932 -46.9949 824.403
vn 0.0316511 -0.890324 -0.454225
v -42.6718 -46.9889 825.3
vn -0.0500021 0.568263 -0.821326
v -42.6718 -46.9889 825.3
vn -0.405674 0.852997 -0.328368
v -42.4228 -47.2605 824.7
vn -0.405674 0.852997 -0.328368
v -42.3984 -47.2489 824.7
vn -0.405674 0.852997 -0.328368
v -42.4194 -47.2444 824.738
vn 0.315808 -0.9414 -0.118455
v -42.2197 -47.2869 825
vn 0.774891 -0.543552 -0.322638
v -44.1923 -46.9275 826.2
vn -0.346418 -0.682306 -0.643781
v -44.1923 -46.9275 826.2
vn 0.454812 -0.407069 -0.792112
v -44.2084 -47.0033 827.1
vn -0.260301 -0.925967 0.273547
v -44.2084 -47.0033 827.1
vn 0.11361 0.193748 0.974451
v -43.9495 -46.9192 826.5
vn 0.299773 -0.948275 -0.104457
v -43.9495 -46.9192 826.5
vn 0.0362707 -0.795015 0.605504
v -43.8745 -46.8755 826.2
vn 0.813106 0.505576 -0.288534
v -43.8269 -46.9453 826.8
vn -0.393372 0.801933 -0.449624
v -43.8269 -46.9453 826.8
vn 0.600325 -0.164719 -0.782609
v -43.8269 -46.9453 826.8
vn 0.600325 -0.164719 -0.782609
v -43.5932 -46.9949 826.99
vn -0.277937 -0.0551023 -0.959018
v -43.5932 -46.9949 826.99
vn -0.106639 -0.990728 0.0841767
v -42.9454 -46.8331 826.2
vn 0.322432 -0.695568 0.642046
v -42.9454 -46.8331 826.2
vn 0.465955 0.653207 0.596831
v -42.9454 -46.8331 826.2
vn 0.454812 -0.407069 -0.792112
v -43.0063 -47.1197 827.85
vn -0.643719 -0.156692 -0.749048
v -43.0063 -47.1197 827.85
vn -0.260301 -0.925967 0.273547
v -43.0063 -47.1197 827.85
vn 0.726386 0.592963 -0.347503
v -43.0063 -47.1197 827.85
vn 0.708565 -0.385659 0.590933
v -43.0063 -47.1197 827.85
vn 0.39778 0.688087 0.606883
v -43.0063 -47.1197 827.85
vn -0.260301 -0.925967 0.273547
v -42.7436 -47.3265 827.4
vn 0.708565 -0.385659 0.590933
v -42.7436 -47.3265 827.4
vn 0.511708 -0.848549 0.134607
v -42.7436 -47.3265 827.4
vn -0.403447 -0.694121 0.596176
v -42.7403 -47.4829 827.7
vn -0.155356 0.784738 -0.600043
v -42.7403 -47.4829 827.7
vn -0.141626 0.715387 0.684225
v -42.7403 -47.4829 827.7
vn -0.285411 -0.865972 -0.410651
v -42.7752 -47.4755 827.726
vn 0.75368 0.564333 -0.336888
v -42.7752 -47.4755 827.726
vn 0.476626 -0.819473 -0.318264
v -42.7752 -47.4755 827.726
vn -0.403447 -0.694121 0.596176
v -42.4998 -47.6227 827.7
vn 0.463535 -0.781581 -0.417452
v -42.4998 -47.6227 827.7
vn 0.442292 -0.745762 0.498214
v -42.4998 -47.6227 827.7
vn 0.337729 -0.880356 0.333035
v -42.3113 -47.5741 827.4
vn -0.155356 0.784738 -0.600043
v -42.4818 -47.5379 827.561
vn 0.463535 -0.781581 -0.417452
v -42.4818 -47.5379 827.561
vn 0.785002 0.412327 -0.462341
v -42.4818 -47.5379 827.561
vn 0.442292 -0.745762 0.498214
v -42.3898 -47.5574 827.7
vn 0.785002 0.412327 -0.462341
v -42.3898 -47.5574 827.7
vn 0.741542 0.389499 0.546265
v -42.3898 -47.5574 827.7
vn -0.141626 0.715387 0.684225
v -42.4582 -47.4271 827.7
vn 0.785002 0.412327 -0.462341
v -42.4582 -47.4271 827.7
vn 0.741542 0.389499 0.546265
v -42.4582 -47.4271 827.7
vn -0.141626 0.715387 0.684225
v -42.4818 -47.5379 827.811
vn 0.442292 -0.745762 0.498214
v -42.4818 -47.5379 827.811
vn 0.741542 0.389499 0.546265
v -42.4818 -47.5379 827.811
vn 0.223628 -0.902811 -0.367318
v -42.3955 -47.1321 825.6
vn 0.322432 -0.695568 0.642046
v -42.3955 -47.1321 825.6
vn -0.332215 0.926607 -0.176162
v -42.2597 -47.2784 826.5
vn 0 0 1
v -42.2597 -47.2784 826.5
vn -0.258084 -0.939595 -0.224841
v -42.4194 -47.2444 826.685
vn 0.511708 -0.848549 0.134607
v -42.4194 -47.2444 826.685
vn 0.420538 -0.255777 -0.870475
v -42.4194 -47.2444 826.685
vn 0.117533 -0.744316 -0.657404
v -44.7576 -48.1444 829.8
vn 0.804667 -0.0778249 -0.588604
v -44.7576 -48.1444 829.8
vn -0.110716 -0.76293 -0.63693
v -44.7576 -48.1444 829.8
vn -0.443846 -0.480627 -0.756305
v -44.7576 -48.1444 829.8
vn 0.0231247 -0.971796 -0.234687
v -44.7576 -48.1444 829.8
vn -0.428088 -0.897964 -0.101982
v -44.7576 -48.1444 829.8
vn 0.0226104 0.788729 0.614325
v -44.2187 -47.0517 828.6
vn 0.441069 0.786202 0.432833
v -44.2187 -47.0517 828.6
vn 0.0226104 0.788729 0.614325
v -43.9632 -47.2927 828.9
vn 0.470677 0.838976 0.273097
v -43.9632 -47.2927 828.9
vn -0.0146904 0.792589 -0.609579
v -43.9632 -47.2927 828.9
vn 0.179209 0.96728 -0.179593
v -43.4501 -47.3321 829.2
vn 0.469831 0.734295 0.489969
v -43.3966 -47.5129 828.6
vn 0.0769388 0.783015 -0.617226
v -43.3966 -47.5129 828.6
vn -0.443846 -0.480627 -0.756305
v -43.3966 -47.5129 828.6
vn 0.0920998 0.995385 -0.0269657
v -43.3621 -47.3508 828.81
vn 0.823764 0.543934 0.15984
v -43.3621 -47.3508 828.81
vn 0.59722 0.800062 -0.0568196
v -43.3621 -47.3508 828.81
vn 0.457864 0.728684 0.509294
v -43.3621 -47.3508 828.81
vn 0.554011 -0.766374 0.325181
v -43.3023 -48.5123 830.1
vn 0.639578 0.726536 -0.251168
v -43.3023 -48.5123 830.1
vn 0.642373 0.648102 0.409048
v -43.0578 -48.3355 830.1
vn -0.0241914 -0.591697 -0.805797
v -43.0467 -48.0312 829.5
vn 0.0231247 -0.971796 -0.234687
v -43.0467 -48.0312 829.5
vn 0.549266 -0.830053 -0.0965311
v -43.0467 -48.0312 829.5
vn 0.457864 0.728684 0.509294
v -43.0467 -48.0312 829.5
vn 0.454812 -0.407069 -0.792112
v -43.0877 -47.5025 828
vn -0.643719 -0.156692 -0.749048
v -43.0877 -47.5025 828
vn 0.449211 0.580783 0.678897
v -43.0843 -47.4865 828.3
vn 0.393918 -0.677271 0.621395
v -43.0843 -47.4865 828.3
vn -0.000224664 -0.768574 -0.639761
v -42.8592 -48.3778 829.8
vn 0.665271 0.660786 0.34753
v -42.8592 -48.3778 829.8
vn 0.476626 -0.819473 -0.318264
v -42.8011 -47.597 828
vn 0.393918 -0.677271 0.621395
v -42.8011 -47.597 828
vn 0.0231247 -0.971796 -0.234687
v -42.8376 -47.769 828.435
vn 0.167911 0.76675 -0.619597
v -42.8376 -47.769 828.435
vn 0.549266 -0.830053 -0.0965311
v -42.8376 -47.769 828.435
vn 0.59722 0.800062 -0.0568196
v -42.8376 -47.769 828.435
vn 0.59722 0.800062 -0.0568196
v -42.7757 -47.7821 828.9
vn 0.457864 0.728684 0.509294
v -42.7757 -47.7821 828.9
vn 0.779711 0.534757 -0.325709
v -42.6412 -47.504 828
vn 0.393918 -0.677271 0.621395
v -42.6412 -47.504 828
vn 0.531831 0.364751 0.764273
v -42.6412 -47.504 828
vn 0.411963 0.558969 0.719611
v -42.7481 -47.348 828
vn -0.96353 -0.0051265 0.267551
v -42.3453 -47.8736 828
vn -0.731996 -0.679976 0.0426038
v -42.3453 -47.8736 828
vn -0.393984 0.904553 0.162975
v -42.3453 -47.8736 828
vn 0.604494 0.60704 0.515838
v -43.7245 -48.8073 831.3
vn -0.428088 -0.897964 -0.101982
v -43.7245 -48.8073 831.3
vn 0.741353 -0.457452 0.491054
v -43.7245 -48.8073 831.3
vn -0.428088 -0.897964 -0.101982
v -43.3849 -48.901 830.7
vn 0.741353 -0.457452 0.491054
v -43.3849 -48.901 830.7
vn 0.741353 -0.457452 0.491054
v -43.0302 -48.6481 830.4
vn 0.156452 -0.838632 -0.521747
v -43.0302 -48.6481 830.4
vn 0.55592 0.631503 0.540515
v -43.0302 -48.6481 830.4
vn 0.514564 0.66164 0.545396
v -43.2837 -48.4249 830.4
vn 0.639578 0.726536 -0.251168
v -43.2837 -48.4249 830.4
vn 0.543081 0.655326 -0.524986
v -42.807 -49.0023 830.4
vn 0.543081 0.655326 -0.524986
v -42.7951 -49.0121 830.4
vn 0.543081 0.655326 -0.524986
v -42.7937 -49.0051 830.41
vn -0.346418 -0.682306 -0.643781
v -43.2374 -46.7639 825.513
vn -0.0930478 0.601991 -0.793063
v -43.2374 -46.7639 825.513
vn -0.0200686 0.564515 -0.825179
v -42.2494 -46.9739 825.3
vn 0.681428 0.691944 -0.238473
v -42.2494 -46.9739 825.3
vn 0.492027 0.268138 -0.828258
v -44.1177 -46.5768 825.788
vn 0.774891 -0.543552 -0.322638
v -44.1177 -46.5768 825.788
vn -0.346418 -0.682306 -0.643781
v -44.1177 -46.5768 825.788
vn 0.171519 0.837857 0.518244
v -43.8243 -46.6391 827.344
vn 0.662013 0.676411 -0.322811
v -43.8243 -46.6391 827.344
vn -0.393372 0.801933 -0.449624
v -43.8243 -46.6391 827.344
vn 0.0434279 0.990137 -0.1332
v -43.8243 -46.6391 827.344
vn 0.458719 -0.88846 -0.0147021
v -43.5308 -46.7015 826.408
vn 0.0362707 -0.795015 0.605504
v -43.5308 -46.7015 826.408
vn 0.313658 0.79341 0.521651
v -43.5308 -46.7015 826.408
vn 0.600325 -0.164719 -0.782609
v -43.5308 -46.7015 826.976
vn -0.280603 0.014132 -0.95972
v -43.5308 -46.7015 826.976
vn 0.0434279 0.990137 -0.1332
v -43.5308 -46.7015 826.976
vn -0.0572006 0.708622 -0.703266
v -43.5308 -46.7015 826.976
vn 0.681428 0.691944 -0.238473
v -42.5779 -46.547 825.6
vn 0.400059 0.726597 0.558578
v -42.5779 -46.547 825.6
vn 0.322432 -0.695568 0.642046
v -42.1156 -47.0023 825.6
vn 0.681428 0.691944 -0.238473
v -42.1156 -47.0023 825.6
vn 0.556096 0.564679 0.609832
v -42.1156 -47.0023 825.6
vn 0.420538 -0.255777 -0.870475
v -42.357 -46.951 826.629
vn -0.0572006 0.708622 -0.703266
v -42.357 -46.951 826.629
vn 0.485165 0.56107 -0.670683
v -42.357 -46.951 826.629
vn -0.0572006 0.708622 -0.703266
v -42.3203 -46.7782 826.8
vn 0.414632 0.750314 0.514887
v -42.3203 -46.7782 826.8
vn 0.485165 0.56107 -0.670683
v -42.3203 -46.7782 826.8
vn 0.782784 0.300996 -0.544656
v -42.1074 -50.0711 830.1
vn -0.545705 0.568823 0.615343
v -42.3315 -49.7167 830.313
vn 0.782784 0.300996 -0.544656
v -42.1027 -50.0833 830.1
vn 0.782784 0.300996 -0.544656
v -42.1004 -50.0726 830.109
vn -0.545705 0.568823 0.615343
v -42.3566 -49.8349 830.4
vn -0.545705 0.568823 0.615343
v -42.2512 -49.7338 830.4
vn 0.315808 -0.9414 -0.118455
v -42.1142 -47.2515 825
vn 0.315808 -0.9414 -0.118455
v -42.1229 -47.2921 825.3
vn -0.751417 0.159724 -0.640203
v -42.0062 -47.9457 827.7
vn 0.527623 0.846794 0.0674768
v -42.0062 -47.9457 827.7
vn 0.337729 -0.880356 0.333035
v -42.1883 -47.6003 827.206
vn 0.337729 -0.880356 0.333035
v -42.1714 -47.5205 827.4
vn -0.332215 0.926607 -0.176162
v -42.1215 -47.2859 826.2
vn 0.776982 0.609028 -0.159325
v -42.1215 -47.2859 826.2
vn 0 0 1
v -42.0271 -47.3278 826.5
vn 0.776982 0.609028 -0.159325
v -42.0271 -47.3278 826.5
vn 0 0 1
v -42.1084 -47.2241 826.5
vn 0.776982 0.609028 -0.159325
v -42.1084 -47.2241 826.5
vn 0 0 1
v -42.3175 -48.2078 828.6
vn -0.700121 -0.56514 -0.436402
v -42.3175 -48.2078 828.6
vn -0.0956192 -0.954168 0.283586
v -42.3175 -48.2078 828.6
vn -0.731996 -0.679976 0.0426038
v -42.2648 -47.9602 828
vn -0.115124 -0.992228 -0.0472304
v -42.2648 -47.9602 828
vn -0.751417 0.159724 -0.640203
v -42.2648 -47.9602 828
vn 0 0 -1
v -42.1128 -48.2297 828.3
vn -0.692648 0.417735 -0.587993
v -42.1128 -48.2297 828.3
vn -0.731996 -0.679976 0.0426038
v -42.2616 -47.9449 828.3
vn -0.115098 -0.992001 0.051831
v -42.2616 -47.9449 828.3
vn 0.521782 -0.592479 0.613769
v -42.2616 -47.9449 828.3
vn -0.700128 -0.565117 -0.436421
v -42.3131 -48.1871 828.566
vn -0.687313 0.539162 -0.486729
v -42.3131 -48.1871 828.566
vn 0 0 1
v -42.3078 -48.1622 828.6
vn -0.664775 0.647096 -0.373283
v -42.3078 -48.1622 828.6
vn 0.189455 0.727905 0.658985
v -42.3078 -48.1622 828.6
vn -0.393984 0.904553 0.162975
v -42.2364 -47.8262 828
vn -0.751417 0.159724 -0.640203
v -42.2364 -47.8262 828
vn 0.524498 0.84178 0.127703
v -42.2364 -47.8262 828
vn -0.393984 0.904553 0.162975
v -42.2507 -47.8937 828.34
vn 0.521782 -0.592479 0.613769
v -42.2507 -47.8937 828.34
vn 0.519453 0.833683 0.187462
v -42.2507 -47.8937 828.34
vn 0 0 -1
v -42.0357 -48.3252 828.3
vn -0.0956192 -0.954168 0.283586
v -42.0357 -48.3252 828.3
vn 0.978149 -0.207903 1.76868e-006
v -42.0357 -48.3252 828.3
vn 0.524498 0.84178 0.127703
v -41.9655 -47.9949 828
vn 0.521782 -0.592479 0.613769
v -41.9655 -47.9949 828
vn -0.687313 0.539162 -0.486729
v -41.9625 -47.9805 828.3
vn 0.189455 0.727905 0.658985
v -41.9625 -47.9805 828.3
vn 0.978149 -0.207903 1.76868e-006
v -41.9625 -47.9805 828.3
vn 0.189455 0.727905 0.658985
v -42.0172 -48.2379 828.6
vn -0.0956192 -0.954168 0.283586
v -42.0172 -48.2379 828.6
vn 0.978149 -0.207903 1.76868e-006
v -42.0172 -48.2379 828.6
vn 0.511708 -0.848549 0.134607
v -42.0636 -47.0134 826.789
vn 0.420538 -0.255777 -0.870475
v -42.0636 -47.0134 826.789
vn 0.56984 0.595738 0.56602
v -42.0636 -47.0134 826.789
vn 0.485165 0.56107 -0.670683
v -42.0636 -47.0134 826.789
f 2//2 1//1 10//10
f 519//519 9//9 505//505
f 500//500 13//13 3//3
f 520//520 501//501 4//4
f 510//510 502//502 507//507
f 506//506 5//5 503//503
f 504//504 512//512 525//525
f 508//508 526//526 12//12
f 511//511 509//509 522//522
f 14//14 511//511 522//522
f 527//527 520//520 4//4
f 8//8 6//6 7//7
f 514//514 513//513 515//515
f 28//28 506//506 516//516
f 15//15 11//11 17//17
f 11//11 15//15 19//19
f 525//525 19//19 15//15
f 525//525 15//15 523//523
f 22//22 14//14 522//522
f 525//525 512//512 19//19
f 528//528 16//16 524//524
f 22//22 522//522 530//530
f 532//532 538//538 531//531
f 531//531 529//529 532//532
f 18//18 17//17 11//11
f 18//18 11//11 19//19
f 506//506 536//536 5//5
f 536//536 506//506 34//34
f 32//32 18//18 19//19
f 19//19 33//33 32//32
f 34//34 559//559 536//536
f 21//21 527//527 538//538
f 527//527 21//21 520//520
f 521//521 41//41 517//517
f 23//23 24//24 20//20
f 520//520 21//21 569//569
f 21//21 538//538 35//35
f 539//539 537//537 540//540
f 26//26 27//27 25//25
f 29//29 549//549 546//546
f 541//541 30//30 547//547
f 548//548 556//556 554//554
f 542//542 550//550 555//555
f 30//30 541//541 31//31
f 551//551 554//554 556//556
f 554//554 551//551 543//543
f 544//544 552//552 570//570
f 545//545 571//571 557//557
f 553//553 518//518 572//572
f 506//506 28//28 34//34
f 34//34 28//28 30//30
f 31//31 42//42 30//30
f 573//573 575//575 558//558
f 42//42 34//34 30//30
f 36//36 533//533 535//535
f 560//560 18//18 32//32
f 37//37 559//559 34//34
f 562//562 32//32 33//33
f 43//43 560//560 32//32
f 578//578 52//52 561//561
f 561//561 35//35 534//534
f 35//35 538//538 532//532
f 561//561 52//52 35//35
f 43//43 32//32 563//563
f 43//43 563//563 38//38
f 564//564 39//39 565//565
f 566//566 37//37 34//34
f 35//35 73//73 21//21
f 40//40 576//576 574//574
f 73//73 569//569 21//21
f 48//48 567//567 569//569
f 48//48 46//46 567//567
f 577//577 568//568 582//582
f 43//43 38//38 44//44
f 71//71 43//43 44//44
f 578//578 613//613 54//54
f 54//54 52//52 578//578
f 579//579 62//62 614//614
f 565//565 39//39 580//580
f 45//45 580//580 39//39
f 580//580 45//45 591//591
f 581//581 566//566 75//75
f 34//34 75//75 566//566
f 52//52 53//53 35//35
f 73//73 48//48 569//569
f 111//111 34//34 47//47
f 42//42 47//47 34//34
f 49//49 577//577 582//582
f 42//42 49//49 47//47
f 47//47 49//49 50//50
f 582//582 50//50 49//49
f 47//47 583//583 111//111
f 51//51 50//50 582//582
f 77//77 46//46 48//48
f 51//51 46//46 77//77
f 52//52 54//54 53//53
f 75//75 592//592 581//581
f 613//613 101//101 54//54
f 54//54 101//101 93//93
f 56//56 57//57 55//55
f 584//584 586//586 585//585
f 59//59 60//60 58//58
f 587//587 589//589 588//588
f 63//63 64//64 61//61
f 593//593 590//590 594//594
f 614//614 62//62 81//81
f 618//618 592//592 75//75
f 67//67 66//66 65//65
f 598//598 70//70 595//595
f 601//601 596//596 69//69
f 597//597 610//610 607//607
f 599//599 602//602 68//68
f 604//604 611//611 600//600
f 605//605 603//603 608//608
f 606//606 609//609 612//612
f 72//72 34//34 111//111
f 75//75 34//34 72//72
f 74//74 48//48 73//73
f 74//74 76//76 48//48
f 111//111 75//75 72//72
f 48//48 76//76 78//78
f 48//48 78//78 616//616
f 76//76 74//74 79//79
f 76//76 79//79 78//78
f 80//80 51//51 77//77
f 617//617 616//616 78//78
f 105//105 79//79 74//74
f 105//105 78//78 79//79
f 105//105 74//74 73//73
f 111//111 50//50 99//99
f 51//51 99//99 50//50
f 92//92 617//617 78//78
f 93//93 53//53 54//54
f 94//94 53//53 93//93
f 111//111 91//91 75//75
f 91//91 618//618 75//75
f 105//105 73//73 35//35
f 82//82 83//83 84//84
f 621//621 623//623 622//622
f 87//87 86//86 85//85
f 627//627 90//90 624//624
f 630//630 625//625 89//89
f 626//626 639//639 636//636
f 628//628 631//631 88//88
f 629//629 633//633 640//640
f 634//634 632//632 637//637
f 635//635 638//638 641//641
f 91//91 111//111 110//110
f 110//110 619//619 642//642
f 92//92 78//78 105//105
f 111//111 99//99 112//112
f 99//99 51//51 115//115
f 51//51 80//80 100//100
f 115//115 51//51 100//100
f 126//126 116//116 93//93
f 93//93 116//116 94//94
f 35//35 53//53 95//95
f 95//95 96//96 35//35
f 643//643 95//95 53//53
f 102//102 101//101 615//615
f 96//96 105//105 35//35
f 614//614 81//81 645//645
f 97//97 106//106 620//620
f 105//105 98//98 92//92
f 110//110 644//644 619//619
f 134//134 644//644 110//110
f 617//617 92//92 98//98
f 98//98 100//100 617//617
f 93//93 101//101 126//126
f 125//125 126//126 101//101
f 102//102 125//125 101//101
f 643//643 96//96 95//95
f 643//643 105//105 96//96
f 105//105 643//643 128//128
f 125//125 102//102 103//103
f 81//81 106//106 645//645
f 646//646 645//645 104//104
f 645//645 106//106 104//104
f 106//106 97//97 662//662
f 108//108 109//109 107//107
f 648//648 647//647 649//649
f 106//106 121//121 104//104
f 98//98 153//153 100//100
f 111//111 112//112 113//113
f 113//113 114//114 111//111
f 115//115 100//100 191//191
f 99//99 115//115 112//112
f 643//643 116//116 128//128
f 126//126 138//138 116//116
f 117//117 119//119 118//118
f 652//652 650//650 651//651
f 646//646 104//104 120//120
f 120//120 104//104 653//653
f 120//120 122//122 646//646
f 103//103 654//654 125//125
f 128//128 98//98 105//105
f 98//98 128//128 146//146
f 121//121 106//106 129//129
f 123//123 122//122 120//120
f 653//653 655//655 120//120
f 121//121 129//129 130//130
f 660//660 655//655 653//653
f 125//125 654//654 131//131
f 131//131 654//654 656//656
f 110//110 111//111 134//134
f 129//129 106//106 662//662
f 191//191 100//100 153//153
f 113//113 112//112 157//157
f 114//114 113//113 157//157
f 157//157 111//111 114//114
f 157//157 112//112 137//137
f 115//115 137//137 112//112
f 115//115 124//124 137//137
f 124//124 115//115 191//191
f 125//125 127//127 126//126
f 139//139 138//138 126//126
f 659//659 160//160 664//664
f 116//116 198//198 128//128
f 198//198 116//116 140//140
f 130//130 129//129 133//133
f 657//657 130//130 133//133
f 131//131 656//656 145//145
f 136//136 129//129 662//662
f 136//136 133//133 129//129
f 669//669 658//658 132//132
f 657//657 133//133 661//661
f 661//661 133//133 152//152
f 111//111 135//135 134//134
f 136//136 662//662 663//663
f 154//154 135//135 111//111
f 136//136 663//663 677//677
f 111//111 157//157 173//173
f 124//124 191//191 158//158
f 124//124 158//158 137//137
f 680//680 126//126 159//159
f 139//139 142//142 138//138
f 161//161 667//667 665//665
f 138//138 142//142 143//143
f 143//143 144//144 138//138
f 138//138 668//668 116//116
f 668//668 140//140 116//116
f 668//668 199//199 140//140
f 125//125 131//131 141//141
f 141//141 127//127 125//125
f 126//126 127//127 141//141
f 141//141 159//159 126//126
f 143//143 142//142 162//162
f 163//163 667//667 161//161
f 143//143 162//162 144//144
f 162//162 142//142 684//684
f 148//148 669//669 132//132
f 152//152 670//670 661//661
f 182//182 131//131 145//145
f 146//146 153//153 98//98
f 147//147 146//146 128//128
f 145//145 671//671 182//182
f 670//670 152//152 149//149
f 150//150 182//182 671//671
f 673//673 674//674 672//672
f 151//151 674//674 673//673
f 152//152 675//675 149//149
f 152//152 164//164 675//675
f 676//676 182//182 150//150
f 166//166 133//133 136//136
f 166//166 136//136 155//155
f 155//155 136//136 677//677
f 111//111 173//173 192//192
f 155//155 156//156 166//166
f 111//111 192//192 154//154
f 137//137 158//158 174//174
f 681//681 683//683 666//666
f 199//199 198//198 140//140
f 162//162 180//180 144//144
f 199//199 668//668 692//692
f 162//162 684//684 180//180
f 161//161 175//175 163//163
f 691//691 683//683 681//681
f 198//198 147//147 128//128
f 164//164 165//165 675//675
f 676//676 686//686 182//182
f 198//198 146//146 147//147
f 184//184 185//185 686//686
f 693//693 687//687 685//685
f 164//164 152//152 189//189
f 189//189 152//152 133//133
f 164//164 189//189 694//694
f 191//191 153//153 188//188
f 678//678 167//167 679//679
f 167//167 678//678 168//168
f 688//688 155//155 677//677
f 170//170 166//166 156//156
f 171//171 679//679 167//167
f 156//156 690//690 170//170
f 169//169 167//167 168//168
f 169//169 171//171 167//167
f 170//170 190//190 166//166
f 169//169 168//168 204//204
f 700//700 689//689 192//192
f 689//689 154//154 192//192
f 174//174 157//157 137//137
f 172//172 173//173 208//208
f 173//173 172//172 192//192
f 173//173 157//157 174//174
f 159//159 178//178 680//680
f 682//682 178//178 175//175
f 684//684 177//177 180//180
f 213//213 159//159 141//141
f 178//178 176//176 175//175
f 176//176 163//163 175//175
f 178//178 179//179 176//176
f 179//179 163//163 176//176
f 179//179 183//183 163//163
f 180//180 177//177 181//181
f 684//684 183//183 177//177
f 179//179 178//178 195//195
f 178//178 159//159 195//195
f 179//179 195//195 183//183
f 209//209 177//177 183//183
f 222//222 146//146 198//198
f 692//692 196//196 199//199
f 181//181 697//697 180//180
f 209//209 181//181 177//177
f 185//185 182//182 686//686
f 185//185 201//201 182//182
f 141//141 131//131 182//182
f 182//182 213//213 141//141
f 159//159 213//213 195//195
f 146//146 188//188 153//153
f 185//185 184//184 187//187
f 695//695 694//694 186//186
f 186//186 694//694 189//189
f 166//166 190//190 133//133
f 133//133 190//190 189//189
f 201//201 185//185 187//187
f 186//186 200//200 695//695
f 189//189 698//698 186//186
f 189//189 190//190 202//202
f 190//190 170//170 202//202
f 188//188 203//203 191//191
f 192//192 172//172 205//205
f 169//169 193//193 171//171
f 192//192 701//701 700//700
f 204//204 193//193 169//169
f 202//202 170//170 194//194
f 696//696 170//170 690//690
f 204//204 206//206 193//193
f 206//206 171//171 193//193
f 174//174 158//158 216//216
f 230//230 174//174 216//216
f 704//704 173//173 218//218
f 196//196 210//210 199//199
f 697//697 181//181 197//197
f 705//705 697//697 197//197
f 209//209 197//197 181//181
f 197//197 209//209 705//705
f 210//210 198//198 199//199
f 210//210 220//220 198//198
f 182//182 211//211 213//213
f 222//222 198//198 220//220
f 698//698 189//189 202//202
f 699//699 201//201 187//187
f 698//698 202//202 214//214
f 214//214 201//201 699//699
f 201//201 211//211 182//182
f 146//146 222//222 188//188
f 207//207 696//696 690//690
f 702//702 207//207 690//690
f 702//702 700//700 701//701
f 202//202 194//194 703//703
f 191//191 216//216 158//158
f 191//191 224//224 216//216
f 208//208 205//205 172//172
f 701//701 225//225 702//702
f 218//218 173//173 174//174
f 209//209 183//183 195//195
f 195//195 213//213 212//212
f 195//195 219//219 209//209
f 209//209 219//219 705//705
f 214//214 211//211 201//201
f 213//213 221//221 212//212
f 211//211 221//221 213//213
f 195//195 212//212 219//219
f 212//212 221//221 219//219
f 215//215 214//214 202//202
f 214//214 223//223 211//211
f 203//203 224//224 191//191
f 241//241 188//188 232//232
f 248//248 224//224 203//203
f 217//217 205//205 208//208
f 228//228 702//702 225//225
f 228//228 207//207 702//702
f 230//230 216//216 237//237
f 224//224 237//237 216//216
f 704//704 218//218 217//217
f 217//217 218//218 227//227
f 218//218 174//174 230//230
f 227//227 218//218 230//230
f 220//220 705//705 219//219
f 240//240 220//220 219//219
f 232//232 188//188 222//222
f 223//223 221//221 211//211
f 231//231 219//219 221//221
f 223//223 214//214 215//215
f 241//241 203//203 188//188
f 234//234 215//215 202//202
f 228//228 234//234 703//703
f 703//703 234//234 202//202
f 224//224 248//248 235//235
f 226//226 225//225 205//205
f 217//217 226//226 205//205
f 225//225 226//226 236//236
f 233//233 225//225 236//236
f 226//226 217//217 706//706
f 229//229 228//228 225//225
f 225//225 233//233 229//229
f 227//227 230//230 244//244
f 217//217 227//227 706//706
f 706//706 227//227 250//250
f 250//250 227//227 243//243
f 239//239 220//220 240//240
f 231//231 240//240 219//219
f 239//239 222//222 220//220
f 239//239 232//232 222//222
f 261//261 223//223 215//215
f 241//241 248//248 203//203
f 229//229 234//234 228//228
f 229//229 233//233 270//270
f 270//270 233//233 236//236
f 229//229 261//261 234//234
f 250//250 709//709 706//706
f 243//243 227//227 244//244
f 230//230 237//237 707//707
f 237//237 245//245 707//707
f 247//247 245//245 237//237
f 237//237 257//257 247//247
f 243//243 276//276 250//250
f 240//240 231//231 238//238
f 221//221 260//260 231//231
f 261//261 215//215 234//234
f 237//237 224//224 235//235
f 270//270 261//261 229//229
f 235//235 242//242 237//237
f 248//248 242//242 235//235
f 243//243 244//244 251//251
f 245//245 251//251 707//707
f 245//245 247//247 246//246
f 245//245 246//246 251//251
f 251//251 246//246 247//247
f 260//260 259//259 231//231
f 221//221 223//223 260//260
f 265//265 238//238 231//231
f 238//238 265//265 240//240
f 267//267 241//241 232//232
f 248//248 241//241 289//289
f 242//242 248//248 249//249
f 268//268 242//242 249//249
f 268//268 249//249 248//248
f 251//251 247//247 254//254
f 247//247 257//257 255//255
f 269//269 237//237 242//242
f 253//253 252//252 254//254
f 252//252 251//251 254//254
f 252//252 253//253 256//256
f 252//252 256//256 258//258
f 254//254 247//247 255//255
f 255//255 253//253 254//254
f 256//256 253//253 255//255
f 255//255 257//257 256//256
f 256//256 272//272 262//262
f 265//265 231//231 259//259
f 273//273 239//239 240//240
f 708//708 273//273 240//240
f 260//260 223//223 261//261
f 269//269 242//242 268//268
f 237//237 269//269 264//264
f 268//268 275//275 269//269
f 252//252 271//271 251//251
f 271//271 252//252 258//258
f 243//243 251//251 276//276
f 257//257 272//272 256//256
f 263//263 258//258 256//256
f 263//263 256//256 262//262
f 271//271 258//258 263//263
f 237//237 264//264 257//257
f 257//257 264//264 272//272
f 259//259 288//288 265//265
f 710//710 232//232 239//239
f 267//267 232//232 266//266
f 278//278 273//273 708//708
f 710//710 266//266 232//232
f 248//248 289//289 280//280
f 268//268 248//248 280//280
f 250//250 276//276 709//709
f 285//285 272//272 264//264
f 264//264 286//286 285//285
f 264//264 269//269 286//286
f 263//263 262//262 277//277
f 262//262 272//272 277//277
f 277//277 271//271 263//263
f 304//304 266//266 710//710
f 267//267 266//266 304//304
f 306//306 260//260 261//261
f 260//260 306//306 303//303
f 260//260 274//274 259//259
f 260//260 303//303 274//274
f 710//710 314//314 304//304
f 304//304 241//241 267//267
f 305//305 261//261 270//270
f 261//261 305//305 306//306
f 280//280 279//279 268//268
f 268//268 279//279 275//275
f 286//286 269//269 275//275
f 281//281 709//709 276//276
f 282//282 276//276 283//283
f 277//277 272//272 296//296
f 278//278 301//301 273//273
f 301//301 314//314 273//273
f 708//708 300//300 278//278
f 304//304 289//289 241//241
f 290//290 275//275 279//279
f 280//280 290//290 279//279
f 286//286 275//275 712//712
f 282//282 281//281 276//276
f 291//291 270//270 281//281
f 282//282 291//291 281//281
f 291//291 305//305 270//270
f 251//251 271//271 284//284
f 276//276 251//251 283//283
f 283//283 251//251 284//284
f 271//271 298//298 284//284
f 282//282 283//283 309//309
f 297//297 277//277 296//296
f 311//311 296//296 272//272
f 272//272 313//313 311//311
f 293//293 272//272 285//285
f 708//708 288//288 300//300
f 278//278 300//300 301//301
f 287//287 259//259 274//274
f 287//287 288//288 259//259
f 307//307 294//294 280//280
f 320//320 291//291 282//282
f 291//291 292//292 305//305
f 320//320 292//292 291//291
f 320//320 282//282 309//309
f 295//295 309//309 283//283
f 271//271 299//299 298//298
f 271//271 277//277 713//713
f 308//308 286//286 712//712
f 293//293 285//285 286//286
f 293//293 286//286 308//308
f 293//293 313//313 272//272
f 319//319 308//308 712//712
f 290//290 280//280 294//294
f 295//295 283//283 284//284
f 284//284 298//298 295//295
f 295//295 298//298 321//321
f 711//711 297//297 299//299
f 297//297 296//296 310//310
f 321//321 298//298 299//299
f 288//288 287//287 302//302
f 287//287 317//317 302//302
f 302//302 300//300 288//288
f 302//302 317//317 300//300
f 300//300 317//317 301//301
f 328//328 274//274 303//303
f 315//315 274//274 328//328
f 287//287 274//274 315//315
f 307//307 280//280 289//289
f 341//341 305//305 292//292
f 333//333 292//292 320//320
f 333//333 341//341 292//292
f 293//293 308//308 319//319
f 319//319 290//290 294//294
f 294//294 307//307 318//318
f 309//309 295//295 321//321
f 297//297 310//310 299//299
f 310//310 322//322 299//299
f 310//310 296//296 312//312
f 311//311 312//312 296//296
f 314//314 301//301 324//324
f 317//317 324//324 301//301
f 303//303 306//306 326//326
f 306//306 327//327 326//326
f 316//316 315//315 328//328
f 303//303 326//326 328//328
f 287//287 315//315 316//316
f 287//287 316//316 317//317
f 329//329 317//317 316//316
f 314//314 324//324 304//304
f 341//341 306//306 305//305
f 319//319 294//294 318//318
f 319//319 335//335 293//293
f 332//332 319//319 318//318
f 335//335 319//319 332//332
f 307//307 330//330 318//318
f 330//330 307//307 289//289
f 309//309 370//370 320//320
f 370//370 309//309 321//321
f 333//333 320//320 370//370
f 321//321 299//299 322//322
f 321//321 322//322 370//370
f 311//311 313//313 323//323
f 313//313 293//293 344//344
f 316//316 328//328 329//329
f 317//317 325//325 324//324
f 317//317 329//329 325//325
f 325//325 336//336 324//324
f 337//337 716//716 325//325
f 717//717 304//304 324//324
f 306//306 331//331 327//327
f 326//326 329//329 328//328
f 327//327 329//329 326//326
f 354//354 329//329 327//327
f 330//330 289//289 304//304
f 341//341 331//331 306//306
f 353//353 341//341 333//333
f 331//331 341//341 342//342
f 330//330 332//332 318//318
f 330//330 378//378 332//332
f 370//370 343//343 333//333
f 322//322 310//310 345//345
f 323//323 334//334 311//311
f 334//334 323//323 313//313
f 311//311 346//346 312//312
f 313//313 344//344 334//334
f 345//345 310//310 312//312
f 346//346 345//345 312//312
f 335//335 332//332 438//438
f 335//335 344//344 293//293
f 332//332 776//776 438//438
f 329//329 337//337 325//325
f 337//337 329//329 354//354
f 337//337 354//354 377//377
f 337//337 347//347 716//716
f 338//338 330//330 304//304
f 717//717 338//338 304//304
f 339//339 338//338 717//717
f 339//339 340//340 338//338
f 340//340 330//330 338//338
f 349//349 714//714 340//340
f 327//327 331//331 342//342
f 342//342 354//354 327//327
f 725//725 342//342 341//341
f 355//355 356//356 715//715
f 734//734 378//378 330//330
f 353//353 333//333 343//343
f 353//353 343//343 359//359
f 322//322 345//345 370//370
f 334//334 346//346 311//311
f 346//346 334//334 344//344
f 346//346 344//344 466//466
f 346//346 466//466 374//374
f 346//346 374//374 345//345
f 955//955 720//720 422//422
f 347//347 383//383 716//716
f 339//339 717//717 348//348
f 348//348 350//350 339//339
f 717//717 352//352 348//348
f 352//352 350//350 348//348
f 339//339 350//350 351//351
f 340//340 339//339 351//351
f 351//351 349//349 340//340
f 718//718 783//783 723//723
f 352//352 382//382 350//350
f 350//350 382//382 380//380
f 351//351 350//350 380//380
f 380//380 381//381 351//351
f 780//780 349//349 351//351
f 784//784 781//781 724//724
f 398//398 349//349 780//780
f 342//342 725//725 729//729
f 354//354 361//361 363//363
f 362//362 730//730 726//726
f 363//363 376//376 354//354
f 347//347 337//337 377//377
f 377//377 386//386 347//347
f 383//383 347//347 386//386
f 387//387 776//776 388//388
f 714//714 349//349 732//732
f 733//733 357//357 735//735
f 738//738 732//732 358//358
f 358//358 400//400 738//738
f 810//810 736//736 739//739
f 378//378 401//401 793//793
f 401//401 378//378 734//734
f 349//349 398//398 732//732
f 732//732 398//398 358//358
f 358//358 398//398 399//399
f 358//358 808//808 400//400
f 400//400 811//811 737//737
f 727//727 740//740 360//360
f 742//742 741//741 744//744
f 359//359 343//343 745//745
f 343//343 364//364 745//745
f 364//364 343//343 371//371
f 747//747 728//728 743//743
f 746//746 731//731 748//748
f 744//744 749//749 742//742
f 363//363 361//361 751//751
f 767//767 750//750 752//752
f 365//365 367//367 366//366
f 755//755 753//753 754//754
f 375//375 370//370 345//345
f 371//371 343//343 368//368
f 719//719 762//762 756//756
f 757//757 763//763 369//369
f 370//370 375//375 373//373
f 759//759 768//768 758//758
f 376//376 363//363 404//404
f 363//363 769//769 760//760
f 363//363 403//403 404//404
f 372//372 376//376 404//404
f 764//764 817//817 406//406
f 373//373 818//818 370//370
f 770//770 819//819 774//774
f 761//761 765//765 405//405
f 766//766 821//821 820//820
f 379//379 374//374 466//466
f 375//375 345//345 374//374
f 374//374 379//379 375//375
f 377//377 354//354 376//376
f 777//777 956//956 416//416
f 415//415 435//435 377//377
f 376//376 415//415 377//377
f 436//436 422//422 720//720
f 438//438 344//344 335//335
f 454//454 438//438 776//776
f 465//465 373//373 375//375
f 465//465 375//375 379//379
f 382//382 385//385 380//380
f 380//380 788//788 381//381
f 402//402 398//398 789//789
f 789//789 398//398 780//780
f 782//782 785//785 384//384
f 382//382 786//786 385//385
f 787//787 812//812 790//790
f 389//389 383//383 386//386
f 776//776 387//387 454//454
f 888//888 389//389 386//386
f 795//795 813//813 785//785
f 814//814 794//794 811//811
f 794//794 796//796 791//791
f 889//889 455//455 390//390
f 798//798 389//389 888//888
f 814//814 796//796 794//794
f 797//797 391//391 792//792
f 390//390 455//455 799//799
f 389//389 798//798 800//800
f 801//801 456//456 387//387
f 393//393 394//394 392//392
f 803//803 802//802 804//804
f 395//395 396//396 397//397
f 805//805 807//807 806//806
f 398//398 402//402 809//809
f 400//400 814//814 811//811
f 384//384 785//785 813//813
f 808//808 814//814 400//400
f 403//403 822//822 404//404
f 771//771 775//775 952//952
f 760//760 407//407 403//403
f 403//403 363//363 760//760
f 824//824 761//761 405//405
f 408//408 823//823 815//815
f 826//826 824//824 405//405
f 821//821 827//827 820//820
f 816//816 825//825 828//828
f 463//463 409//409 432//432
f 411//411 412//412 410//410
f 832//832 831//831 833//833
f 480//480 479//479 413//413
f 464//464 470//470 881//881
f 464//464 881//881 829//829
f 772//772 414//414 376//376
f 376//376 414//414 415//415
f 414//414 418//418 415//415
f 778//778 839//839 467//467
f 840//840 414//414 417//417
f 840//840 418//418 414//414
f 773//773 953//953 835//835
f 417//417 959//959 840//840
f 439//439 415//415 445//445
f 418//418 419//419 415//415
f 948//948 836//836 954//954
f 842//842 416//416 956//956
f 843//843 957//957 468//468
f 844//844 962//962 845//845
f 837//837 850//850 914//914
f 463//463 420//420 414//414
f 420//420 417//417 414//414
f 960//960 841//841 421//421
f 471//471 846//846 963//963
f 419//419 423//423 415//415
f 425//425 915//915 851//851
f 432//432 420//420 463//463
f 420//420 847//847 417//417
f 445//445 862//862 448//448
f 852//852 838//838 856//856
f 853//853 452//452 863//863
f 968//968 848//848 882//882
f 432//432 847//847 420//420
f 434//434 846//846 471//471
f 423//423 419//419 885//885
f 428//428 426//426 424//424
f 431//431 859//859 865//865
f 451//451 920//920 864//864
f 869//869 860//860 430//430
f 499//499 854//854 857//857
f 861//861 878//878 875//875
f 863//863 452//452 928//928
f 1028//1028 858//858 886//886
f 429//429 866//866 870//870
f 488//488 453//453 493//493
f 872//872 879//879 867//867
f 482//482 427//427 483//483
f 871//871 876//876 873//873
f 874//874 877//877 880//880
f 485//485 433//433 484//484
f 989//989 883//883 486//486
f 884//884 991//991 993//993
f 887//887 971//971 1029//1029
f 899//899 437//437 721//721
f 896//896 894//894 722//722
f 900//900 895//895 897//897
f 900//900 855//855 895//895
f 415//415 439//439 435//435
f 457//457 890//890 441//441
f 440//440 901//901 898//898
f 903//903 437//437 899//899
f 442//442 441//441 890//890
f 907//907 443//443 459//459
f 909//909 438//438 943//943
f 438//438 909//909 444//444
f 445//445 446//446 439//439
f 438//438 444//444 904//904
f 916//916 855//855 900//900
f 908//908 944//944 458//458
f 443//443 907//907 447//447
f 918//918 441//441 442//442
f 890//890 910//910 442//442
f 891//891 902//902 449//449
f 922//922 911//911 892//892
f 929//929 917//917 921//921
f 448//448 446//446 445//445
f 901//901 440//440 923//923
f 916//916 930//930 931//931
f 916//916 931//931 855//855
f 918//918 442//442 910//910
f 919//919 444//444 909//909
f 924//924 450//450 912//912
f 490//490 494//494 932//932
f 926//926 925//925 905//905
f 927//927 906//906 913//913
f 933//933 998//998 1003//1003
f 491//491 487//487 492//492
f 995//995 498//498 1008//1008
f 1011//1011 934//934 1014//1014
f 377//377 435//435 386//386
f 454//454 456//456 935//935
f 456//456 454//454 387//387
f 936//936 893//893 938//938
f 935//935 438//438 454//454
f 456//456 801//801 935//935
f 438//438 935//935 943//943
f 937//937 939//939 940//940
f 441//441 941//941 457//457
f 935//935 942//942 943//943
f 462//462 460//460 461//461
f 945//945 947//947 946//946
f 949//949 469//469 830//830
f 950//950 830//830 469//469
f 969//969 951//951 966//966
f 469//469 465//465 379//379
f 967//967 779//779 961//961
f 964//964 958//958 472//472
f 465//465 469//469 949//949
f 849//849 967//967 961//961
f 972//972 965//965 974//974
f 422//422 975//975 955//955
f 970//970 967//967 849//849
f 1030//1030 975//975 422//422
f 1031//1031 973//973 976//976
f 475//475 476//476 473//473
f 977//977 980//980 979//979
f 474//474 478//478 477//477
f 982//982 978//978 981//981
f 984//984 834//834 983//983
f 999//999 481//481 496//496
f 985//985 1000//1000 1012//1012
f 986//986 1013//1013 1020//1020
f 868//868 987//987 988//988
f 994//994 992//992 990//990
f 1006//1006 489//489 495//495
f 1006//1006 495//495 996//996
f 1017//1017 1001//1001 497//497
f 496//496 1004//1004 999//999
f 1021//1021 1015//1015 1005//1005
f 1002//1002 1007//1007 1022//1022
f 1022//1022 1007//1007 1009//1009
f 1023//1023 1010//1010 1025//1025
f 1020//1020 1013//1013 1016//1016
f 997//997 1018//1018 1026//1026
f 1019//1019 1024//1024 1027//1027
