# Wavafront OBJ file of BodyParts3D
# BodyParts3D, Copyright(C) 2010-2011 The Database Center for Life Science licensed under CC Attribution-Share Alike 2.1 Japan.
vn -0.376458 -0.58381 0.719336
v 268.062 -161.624 697.088
vn -0.493256 -0.558965 0.666526
v 266.2 -161.678 695.666
vn -0.272212 -0.687942 0.672783
v 268.268 -163.277 695.854
vn -0.556957 0.420394 0.716287
v 266.547 -160.434 695.604
vn -0.451279 0.34373 0.823527
v 266.45 -159.291 694.754
vn -0.256568 0.132484 0.957403
v 267.242 -157.095 694.399
vn -0.772502 -0.628696 -0.0893362
v 266.267 -162.041 693.757
vn -0.921741 0.0295768 0.386677
v 265.844 -159.415 694.048
vn -0.729118 0.219197 0.648336
v 266.184 -159.341 694.562
vn -0.974923 -0.0824059 -0.206721
v 265.872 -160.351 692.897
vn -0.891623 0.214374 -0.398813
v 265.961 -159.746 692.768
vn -0.984167 0.14301 0.104709
v 265.82 -159.122 694.03
vn -0.774522 0.131333 0.618763
v 265.97 -159.014 694.287
vn -0.755367 0.38387 0.531098
v 266.23 -157.862 694.123
vn -0.912143 0.379184 -0.15561
v 266.215 -157.876 693.822
vn -0.840272 -0.52522 -0.134486
v 266.637 -161.475 691.563
vn -0.196754 0.60933 0.768118
v 270.758 -160.49 697.401
vn -0.459603 0.502812 0.732082
v 268.95 -155.323 694.712
vn -0.665707 -0.741585 -0.0829847
v 267.696 -162.87 692.921
vn -0.760821 0.606696 -0.230373
v 267.144 -156.255 693.44
vn -0.780672 0.419964 -0.462797
v 267.025 -156.582 693.194
vn -0.537485 0.547287 -0.641551
v 268.087 -155.846 692.493
vn -0.525433 0.845275 0.0971107
v 268.832 -154.796 693.479
vn -0.475195 0.756177 -0.449873
v 268.704 -155.036 692.923
vn -0.778106 0.257835 -0.572776
v 266.877 -160.253 691.367
vn -0.135185 0.227584 0.964329
v 272.554 -160.874 698.109
vn 0.100025 -0.317249 0.943052
v 273.574 -161.608 698.064
vn -0.104407 -0.468881 0.877069
v 271.755 -162.201 697.864
vn 0.255035 -0.848058 0.464495
v 273.243 -162.504 697.513
vn -0.11705 0.335741 0.934654
v 270.768 -157.118 694.8
vn -0.046968 0.1769 0.983108
v 270.502 -155.07 694.923
vn -0.11706 0.452563 0.884016
v 270.315 -154.45 694.581
vn -0.136922 0.978233 -0.155922
v 270.813 -154.165 693.203
vn 0.0974949 0.720041 0.687049
v 271.516 -154.284 694.551
vn -0.0238698 0.975026 0.220805
v 271.417 -154.163 694.262
vn -0.336999 0.931782 -0.134958
v 269.633 -154.462 693.238
vn -0.216464 0.793792 -0.568364
v 270.126 -154.453 692.8
vn -0.290664 0.630207 -0.719968
v 270.078 -154.941 692.373
vn -0.768229 -0.624476 0.140904
v 269.325 -166.471 683.622
vn -0.224885 -0.895564 0.383917
v 269.708 -166.579 683.834
vn -0.881365 -0.459895 0.108133
v 269.561 -167.039 682.385
vn -0.918828 0.165053 -0.358487
v 269.403 -166.468 682.38
vn -0.498154 -0.729816 0.468199
v 269.984 -167.571 682.315
vn 0.0518535 0.496779 0.866326
v 274.364 -160.587 698.117
vn 0.013359 0.649896 0.759906
v 274.345 -160.299 697.952
vn 0.312866 -0.438013 0.842769
v 274.72 -161.435 697.843
vn 0.463425 -0.642579 0.610188
v 275.523 -161.407 697.423
vn 0.153359 -0.974271 0.165157
v 273.843 -162.561 695.22
vn 0.104328 0.986844 -0.123506
v 272.973 -154.121 693.232
vn 0.0736945 0.812579 -0.578173
v 273.141 -154.375 692.597
vn 0.241159 0.952599 0.185467
v 273.73 -154.277 693.653
vn 0.0805738 -0.919903 0.383779
v 273.518 -164.8 688.469
vn -0.273776 0.656182 -0.703187
v 271.319 -156.914 690.262
vn -0.86779 -0.442251 0.226616
v 270.264 -169.087 680.533
vn -0.482471 -0.644025 0.593678
v 271.33 -170.67 679.768
vn -0.681556 0.475212 -0.556467
v 270.422 -167.017 679.541
vn 0.0255805 -0.62241 0.782274
v 272.425 -175.709 677.73
vn -0.317081 -0.383826 0.867259
v 271.775 -175.514 677.712
vn -0.465984 -0.508974 0.723743
v 270.834 -171.761 678.464
vn -0.793459 -0.47366 0.382189
v 270.37 -170.011 679.36
vn -0.982786 0.0173696 -0.183928
v 270.266 -169.469 678.427
vn -0.997635 -0.0645517 0.0236288
v 270.364 -170.975 677.609
vn -0.897642 -0.383932 0.216416
v 270.24 -176.411 676.257
vn -0.495869 -0.458973 0.737196
v 270.776 -176.295 677.037
vn -0.375687 -0.8242 0.423737
v 270.684 -176.749 676.471
vn -0.0977868 -0.708426 0.698978
v 271.439 -176.383 677.155
vn 0.0343311 -0.939223 0.341587
v 271.518 -177.084 675.971
vn 0.0826606 -0.799438 0.595035
v 272.027 -176.473 677.006
vn -0.581461 -0.254718 0.772672
v 270.111 -174.315 677.035
vn -0.986279 0.0939372 -0.135755
v 270.039 -173.162 676.349
vn -0.98206 0.0936148 0.163691
v 270.291 -172.198 677.118
vn -0.931408 0.295704 -0.212221
v 270.345 -172.213 676.539
vn -0.820428 0.391865 -0.416342
v 270.743 -171.883 675.75
vn -0.676229 -0.735618 0.0397494
v 270.554 -176.995 675.305
vn -0.948674 -0.242691 -0.202775
v 270.4 -176.721 675.324
vn -0.771516 -0.576692 -0.26868
v 270.698 -176.998 674.657
vn -0.225648 -0.97275 0.0532964
v 271.013 -177.208 675.2
vn -0.432101 -0.85836 -0.2766
v 271.051 -177.14 674.268
vn 0.0140344 -0.979983 -0.198585
v 271.344 -177.178 674.193
vn -0.105566 -0.856412 -0.505385
v 271.246 -177.065 673.905
vn -0.626804 -0.503134 -0.594956
v 271.087 -176.684 673.534
vn -0.872036 -0.0793364 -0.482969
v 270.988 -176.105 673.487
vn 0.128948 -0.991609 -0.00917746
v 271.87 -177.189 674.969
vn -0.152279 -0.643031 -0.750548
v 271.349 -176.648 673.388
vn -0.821277 0.280514 -0.496807
v 270.584 -172.838 674.858
vn 0.414212 -0.293978 0.861397
v 276.073 -160.636 697.587
vn 0.487164 -0.0580199 0.871381
v 276.315 -160.302 697.528
vn 0.575418 -0.415375 0.704527
v 276.592 -160.566 697.275
vn 0.678993 -0.143932 0.719898
v 277.082 -160.202 697.014
vn 0.312019 0.554563 0.771429
v 277.227 -159.594 696.749
vn 0.432452 -0.888799 0.15173
v 276.919 -161.554 694.619
vn 0.620712 -0.708074 0.336671
v 277.723 -161.002 695.58
vn 0.0195511 0.600277 0.799553
v 275.418 -158.433 695.68
vn 0.77806 0.245177 0.57837
v 277.694 -159.534 696.383
vn 0.157501 0.594245 0.788711
v 277.262 -158.151 695.428
vn 0.1711 0.423449 0.889616
v 275.697 -155.639 694.459
vn 0.546847 0.667806 0.504968
v 276.29 -155.76 694.311
vn 0.365259 0.519576 0.772417
v 276.927 -157.037 694.815
vn 0.779926 0.57457 0.248163
v 276.941 -156.464 694.194
vn 0.675318 0.734821 -0.0631205
v 276.397 -155.679 693.632
vn 0.322868 0.872922 -0.365736
v 274.175 -154.468 692.939
vn 0.391338 0.824443 0.408838
v 275.13 -154.869 693.937
vn 0.467954 0.875919 -0.117408
v 274.976 -154.723 693.356
vn 0.52281 0.703007 -0.482132
v 275.355 -155.285 692.69
vn 0.376924 0.674426 -0.634884
v 274.544 -156.189 691.15
vn 0.486639 0.654303 -0.578852
v 274.747 -157.166 690.26
vn 0.138278 0.743533 -0.654247
v 273.714 -157.078 689.918
vn 0.100188 0.762006 -0.639773
v 273.773 -163.455 681.268
vn 0.00172101 -0.593027 0.805181
v 274.125 -170.317 681.128
vn -0.0166888 -0.561809 0.827099
v 274.803 -175.338 677.608
vn -0.0292577 0.647464 -0.761534
v 273.352 -166.821 677.994
vn -0.018339 -0.856783 0.515352
v 274.667 -176.342 676.594
vn -0.370043 0.644546 -0.66905
v 271.69 -171.461 675.129
vn -0.0427731 0.665904 -0.74481
v 273.392 -171.816 674.413
vn -0.465805 -0.337514 -0.817991
v 271.458 -176.051 672.989
vn 0.149389 -0.742871 -0.652553
v 272.228 -176.52 673.292
vn 0.0236804 -0.458227 -0.88852
v 272.019 -175.969 672.833
vn 0.229844 -0.898784 -0.373308
v 273.44 -176.734 674.206
vn 0.283075 -0.534685 -0.796229
v 273.447 -176.025 673.23
vn -0.694836 -0.0178875 -0.718946
v 271.409 -175.762 672.965
vn -0.36573 -0.213411 -0.905923
v 271.663 -175.729 672.789
vn -0.568463 0.0823362 -0.818579
v 271.622 -175.437 672.795
vn -0.145569 -0.105239 -0.983735
v 271.913 -175.53 672.684
vn -0.284582 0.287055 -0.914665
v 272.044 -174.18 672.76
vn 0.172072 -0.0789707 -0.981914
v 272.751 -174.966 672.669
vn -0.392572 0.632374 -0.667825
v 271.533 -172.43 674.057
vn -0.13657 0.743742 -0.654368
v 271.899 -171.924 674.528
vn -0.0435478 0.596015 -0.801792
v 272.657 -172.782 673.48
vn 0.856305 -0.140121 0.497099
v 278.189 -160.389 695.405
vn 0.748779 -0.661288 -0.0450316
v 277.771 -160.999 694.651
vn 0.580573 0.558755 0.592222
v 277.528 -158.115 695.297
vn 0.957553 0.288199 0.0058292
v 278.298 -158.64 694.01
vn 0.964954 0.0134204 -0.262076
v 277.723 -159.774 691.815
vn 0.849666 0.305641 -0.42971
v 277.457 -157.946 692.347
vn 0.672816 0.468701 -0.572397
v 277.217 -157.692 692.201
vn 0.737841 0.516346 -0.434716
v 277.401 -157.348 692.618
vn 0.767492 0.487309 -0.416516
v 277.078 -158.965 690.7
vn 0.991375 -0.0777394 0.105512
v 277.553 -161.998 687.464
vn 0.750149 0.544432 -0.375326
v 277.278 -161.369 687.181
vn 0.664897 -0.606996 0.435279
v 276.881 -163.994 686.587
vn 0.6092 -0.609568 0.50725
v 277.539 -164.473 685.229
vn 0.44769 -0.668777 0.593558
v 276.118 -166.853 683.46
vn 0.402124 -0.705076 0.584092
v 276.863 -165.081 684.849
vn 0.368891 -0.687412 0.625607
v 277.313 -165.808 683.873
vn -0.0414657 -0.543637 0.838296
v 277.479 -175.788 678.119
vn 0.0428301 -0.999068 -0.00531671
v 275.043 -176.597 675.598
vn 0.113068 -0.915585 -0.3859
v 275.072 -176.476 674.664
vn 0.0454142 -0.607931 -0.79269
v 275.755 -175.922 674.131
vn -0.0758468 -0.878213 -0.472218
v 276.019 -176.52 674.72
vn 0.121333 0.347203 -0.929908
v 275.299 -173.341 673.43
vn 0.169451 -0.146829 -0.97454
v 275.61 -174.188 673.38
vn 0.285024 -0.559483 0.778293
v 277.57 -168.503 681.171
vn 0.546347 -0.590737 0.593746
v 277.659 -166.954 682.303
vn 0.927258 -0.259055 0.27034
v 277.842 -166.628 682.272
vn 0.961734 -0.124477 0.244075
v 279.614 -174.579 677.57
vn 0.165762 -0.262929 0.950469
v 277.877 -173.017 678.793
vn 0.404936 -0.0229691 0.914056
v 278.703 -172.594 678.661
vn 0.518875 -0.150557 0.841488
v 279.144 -173.73 678.539
vn 0.795453 0.173715 0.580584
v 278.938 -172.267 678.474
vn 0.942965 0.167567 0.287642
v 279.43 -173.394 678.13
vn 0.566629 -0.292431 0.770335
v 278.047 -170.576 679.582
vn 0.926435 0.046107 0.373621
v 278.276 -169.952 679.376
vn 0.655731 -0.0523212 0.753179
v 278.641 -172.005 678.749
vn 0.915337 0.180681 0.359879
v 278.78 -171.696 678.469
vn 0.950557 0.309807 0.0214846
v 278.751 -171.131 677.82
vn 0.607838 0.597178 -0.523366
v 277.289 -168.067 678.264
vn 0.974062 0.216527 -0.0657241
v 277.935 -167.912 679.605
vn -0.0346563 -0.990182 0.135422
v 277.78 -176.881 676.416
vn -0.0160342 -0.872592 0.488186
v 278.269 -176.653 677.182
vn 0.344422 -0.474545 0.81005
v 278.66 -175.909 677.868
vn 0.355488 -0.719832 0.596213
v 278.898 -176.49 677.313
vn 0.29777 -0.912344 0.281002
v 278.843 -176.656 677.029
vn 0.756485 -0.410291 0.509305
v 279.168 -176.147 677.355
vn 0.765401 -0.613816 0.193368
v 279.148 -176.465 676.931
vn 0.428642 -0.903093 -0.0262679
v 278.842 -176.849 675.823
vn 0.981662 -0.185876 -0.0423098
v 279.405 -175.834 676.81
vn 0.894706 -0.432244 -0.112544
v 279.142 -176.515 675.716
vn 0.0582855 -0.939299 -0.338112
v 278.225 -176.766 674.761
vn -0.057885 -0.66983 -0.740254
v 277.909 -176.185 673.936
vn -0.0122533 -0.340529 -0.940154
v 277.751 -175.625 673.665
vn 0.962681 -0.141056 -0.230973
v 279.054 -176.255 675.107
vn 0.716786 -0.597614 -0.359271
v 278.897 -176.587 674.871
vn 0.134909 -0.605116 -0.784624
v 278.5 -176.093 673.894
vn 0.888773 -0.189388 -0.41739
v 278.879 -175.724 674.194
vn 0.126156 0.535177 -0.835267
v 277.187 -173.027 673.815
vn 0.100369 0.252759 -0.962309
v 278.029 -173.804 673.412
vn 0.0201162 -0.0891099 -0.995819
v 278.111 -174.388 673.374
vn 0.485185 0.509142 -0.710894
v 278.376 -173.742 673.583
vn 0.363217 -0.0139858 -0.9316
v 278.413 -174.34 673.401
vn -0.0435883 -0.177925 -0.983078
v 276.332 -174.664 673.508
vn 0.0682717 0.138555 -0.987999
v 276.19 -173.795 673.455
vn 0.940524 0.228613 -0.251296
v 279.294 -173.227 675.405
vn 0.968564 -0.0449025 -0.244677
v 278.992 -174.511 674.278
vn 0.824815 0.0448537 -0.563621
v 278.837 -174.387 673.79
vn -0.364236 0.284334 0.886841
v 268.062 -161.624 697.088
vn -0.713168 0.231723 0.661586
v 266.2 -161.678 695.666
vn -0.614115 -0.77893 0.127008
v 266.2 -161.678 695.666
vn -0.985308 -0.166729 0.0370086
v 266.2 -161.678 695.666
vn -0.564939 -0.823371 0.0538887
v 268.268 -163.277 695.854
vn 0.121772 -0.991347 -0.0490195
v 268.268 -163.277 695.854
vn -0.88748 0.102574 -0.449286
v 266.637 -161.475 691.563
vn 0.108204 -0.981621 -0.157203
v 267.696 -162.87 692.921
vn -0.244632 -0.915486 0.319437
v 267.696 -162.87 692.921
vn -0.634134 0.643145 0.42923
v 267.144 -156.255 693.44
vn -0.28084 0.928095 0.244478
v 270.315 -154.45 694.581
vn -0.946338 -0.32157 -0.0321886
v 269.403 -166.468 682.38
vn 0.202356 -0.126362 0.971126
v 274.364 -160.587 698.117
vn 0.817175 -0.523965 -0.240178
v 273.518 -164.8 688.469
vn 0.480489 -0.713942 0.50933
v 273.518 -164.8 688.469
vn -0.937677 -0.130284 0.322162
v 270.834 -171.761 678.464
vn -0.980132 0.0259805 0.196639
v 270.111 -174.315 677.035
vn 0.175074 0.562227 0.808239
v 276.315 -160.302 697.528
vn 0.910825 -0.39977 -0.102871
v 278.189 -160.389 695.405
vn 0.460068 -0.72567 0.511605
v 277.723 -159.774 691.815
vn 0.913103 -0.376407 0.156717
v 277.723 -159.774 691.815
vn 0.921059 -0.167768 0.351432
v 277.57 -168.503 681.171
vn 0.721575 -0.248396 -0.646243
v 278.5 -176.093 673.894
f 28//28 3//3 29//29
f 1//1 2//2 3//3
f 28//28 1//1 3//3
f 196//196 4//4 8//8
f 4//4 9//9 8//8
f 4//4 5//5 9//9
f 4//4 30//30 5//5
f 4//4 196//196 195//195
f 17//17 4//4 195//195
f 4//4 17//17 30//30
f 14//14 5//5 6//6
f 199//199 197//197 7//7
f 10//10 7//7 198//198
f 7//7 19//19 199//199
f 16//16 7//7 10//10
f 198//198 8//8 10//10
f 9//9 13//13 8//8
f 8//8 13//13 12//12
f 10//10 8//8 12//12
f 13//13 9//9 5//5
f 12//12 11//11 10//10
f 11//11 25//25 10//10
f 25//25 201//201 10//10
f 25//25 11//11 21//21
f 13//13 5//5 14//14
f 13//13 14//14 12//12
f 14//14 15//15 12//12
f 12//12 15//15 11//11
f 21//21 11//11 15//15
f 14//14 20//20 15//15
f 7//7 16//16 19//19
f 28//28 26//26 195//195
f 17//17 195//195 26//26
f 6//6 18//18 14//14
f 30//30 6//6 5//5
f 6//6 31//31 18//18
f 30//30 31//31 6//6
f 31//31 32//32 18//18
f 200//200 202//202 48//48
f 21//21 15//15 20//20
f 14//14 18//18 204//204
f 18//18 23//23 204//204
f 22//22 21//21 20//20
f 22//22 20//20 24//24
f 24//24 20//20 23//23
f 24//24 23//23 36//36
f 40//40 48//48 203//203
f 201//201 25//25 42//42
f 25//25 21//21 22//22
f 26//26 45//45 17//17
f 28//28 27//27 26//26
f 28//28 29//29 27//27
f 26//26 44//44 45//45
f 29//29 46//46 27//27
f 48//48 29//29 200//200
f 45//45 93//93 17//17
f 93//93 30//30 17//17
f 18//18 205//205 23//23
f 205//205 36//36 23//23
f 33//33 36//36 205//205
f 34//34 32//32 31//31
f 205//205 34//34 35//35
f 33//33 205//205 35//35
f 37//37 24//24 36//36
f 24//24 38//38 22//22
f 33//33 37//37 36//36
f 38//38 24//24 37//37
f 38//38 37//37 53//53
f 38//38 53//53 22//22
f 50//50 37//37 33//33
f 52//52 48//48 40//40
f 53//53 25//25 22//22
f 19//19 16//16 39//39
f 53//53 56//56 25//25
f 203//203 39//39 40//40
f 40//40 39//39 43//43
f 41//41 39//39 206//206
f 41//41 43//43 39//39
f 43//43 41//41 54//54
f 41//41 206//206 54//54
f 54//54 55//55 43//43
f 16//16 206//206 39//39
f 206//206 61//61 54//54
f 207//207 26//26 27//27
f 207//207 27//27 46//46
f 86//86 207//207 46//46
f 46//46 29//29 47//47
f 86//86 46//46 47//47
f 86//86 47//47 88//88
f 91//91 29//29 48//48
f 91//91 48//48 52//52
f 30//30 96//96 31//31
f 96//96 34//34 31//31
f 49//49 33//33 35//35
f 50//50 33//33 49//49
f 35//35 51//51 49//49
f 102//102 51//51 34//34
f 34//34 51//51 35//35
f 51//51 101//101 49//49
f 101//101 50//50 49//49
f 96//96 102//102 34//34
f 51//51 103//103 101//101
f 37//37 50//50 53//53
f 50//50 107//107 53//53
f 50//50 105//105 107//107
f 40//40 43//43 52//52
f 52//52 43//43 109//109
f 109//109 43//43 55//55
f 54//54 62//62 60//60
f 55//55 54//54 60//60
f 59//59 55//55 60//60
f 61//61 62//62 54//54
f 42//42 25//25 56//56
f 57//57 58//58 66//66
f 57//57 109//109 58//58
f 68//68 57//57 66//66
f 58//58 109//109 69//69
f 210//210 62//62 71//71
f 211//211 210//210 71//71
f 109//109 59//59 69//69
f 109//109 55//55 59//59
f 210//210 60//60 62//62
f 42//42 56//56 61//61
f 61//61 73//73 62//62
f 73//73 61//61 56//56
f 64//64 63//63 65//65
f 66//66 64//64 65//65
f 66//66 65//65 67//67
f 65//65 63//63 74//74
f 75//75 74//74 63//63
f 58//58 69//69 64//64
f 67//67 65//65 77//77
f 77//77 65//65 74//74
f 66//66 58//58 64//64
f 77//77 83//83 67//67
f 66//66 67//67 68//68
f 112//112 68//68 67//67
f 57//57 68//68 112//112
f 63//63 64//64 69//69
f 211//211 70//70 63//63
f 63//63 70//70 75//75
f 82//82 75//75 70//70
f 71//71 70//70 211//211
f 71//71 62//62 72//72
f 71//71 72//72 70//70
f 72//72 85//85 70//70
f 62//62 73//73 72//72
f 73//73 85//85 72//72
f 56//56 113//113 73//73
f 74//74 75//75 76//76
f 77//77 74//74 76//76
f 76//76 75//75 82//82
f 76//76 78//78 77//77
f 78//78 76//76 81//81
f 81//81 76//76 82//82
f 77//77 78//78 79//79
f 77//77 79//79 83//83
f 81//81 80//80 78//78
f 78//78 80//80 79//79
f 84//84 80//80 81//81
f 84//84 81//81 115//115
f 115//115 81//81 82//82
f 82//82 120//120 115//115
f 85//85 82//82 70//70
f 82//82 85//85 120//120
f 86//86 87//87 207//207
f 212//212 45//45 44//44
f 90//90 45//45 212//212
f 45//45 90//90 93//93
f 86//86 88//88 87//87
f 87//87 88//88 89//89
f 89//89 90//90 87//87
f 47//47 92//92 88//88
f 89//89 94//94 90//90
f 95//95 93//93 90//90
f 92//92 47//47 29//29
f 88//88 92//92 89//89
f 29//29 91//91 92//92
f 130//130 92//92 91//91
f 94//94 131//131 90//90
f 131//131 95//95 90//90
f 95//95 131//131 98//98
f 96//96 30//30 93//93
f 96//96 93//93 98//98
f 95//95 98//98 93//93
f 97//97 102//102 96//96
f 96//96 98//98 97//97
f 99//99 97//97 98//98
f 99//99 100//100 97//97
f 52//52 130//130 91//91
f 130//130 208//208 133//133
f 97//97 100//100 102//102
f 106//106 105//105 136//136
f 136//136 105//105 104//104
f 100//100 99//99 136//136
f 102//102 103//103 51//51
f 105//105 50//50 101//101
f 105//105 101//101 104//104
f 100//100 104//104 103//103
f 100//100 103//103 102//102
f 103//103 104//104 101//101
f 100//100 136//136 104//104
f 106//106 107//107 105//105
f 209//209 109//109 142//142
f 108//108 53//53 107//107
f 108//108 56//56 53//53
f 108//108 111//111 56//56
f 109//109 57//57 110//110
f 110//110 57//57 112//112
f 146//146 112//112 67//67
f 67//67 83//83 146//146
f 118//118 146//146 83//83
f 127//127 126//126 113//113
f 114//114 127//127 113//113
f 113//113 111//111 114//114
f 56//56 111//111 113//113
f 84//84 115//115 117//117
f 117//117 115//115 121//121
f 115//115 120//120 121//121
f 118//118 83//83 79//79
f 80//80 84//84 116//116
f 117//117 116//116 84//84
f 117//117 121//121 123//123
f 119//119 118//118 116//116
f 116//116 118//118 80//80
f 119//119 116//116 117//117
f 117//117 125//125 119//119
f 117//117 123//123 125//125
f 80//80 118//118 79//79
f 119//119 148//148 118//118
f 121//121 120//120 122//122
f 85//85 122//122 120//120
f 123//123 121//121 122//122
f 122//122 85//85 124//124
f 122//122 124//124 123//123
f 124//124 85//85 126//126
f 124//124 125//125 123//123
f 151//151 119//119 125//125
f 125//125 150//150 151//151
f 150//150 125//125 124//124
f 73//73 126//126 85//85
f 126//126 73//73 113//113
f 127//127 114//114 126//126
f 128//128 124//124 126//126
f 114//114 128//128 126//126
f 128//128 150//150 124//124
f 150//150 128//128 114//114
f 89//89 92//92 129//129
f 130//130 213//213 92//92
f 130//130 133//133 213//213
f 94//94 89//89 129//129
f 131//131 99//99 98//98
f 131//131 94//94 132//132
f 99//99 131//131 132//132
f 132//132 94//94 129//129
f 137//137 106//106 135//135
f 132//132 136//136 99//99
f 136//136 132//132 134//134
f 136//136 134//134 135//135
f 106//106 136//136 135//135
f 137//137 135//135 134//134
f 213//213 133//133 132//132
f 132//132 133//133 134//134
f 134//134 133//133 137//137
f 214//214 209//209 140//140
f 139//139 137//137 133//133
f 139//139 133//133 138//138
f 139//139 106//106 137//137
f 142//142 143//143 209//209
f 141//141 140//140 209//209
f 141//141 138//138 140//140
f 141//141 209//209 143//143
f 215//215 140//140 138//138
f 154//154 138//138 141//141
f 141//141 143//143 144//144
f 144//144 143//143 142//142
f 144//144 142//142 153//153
f 141//141 153//153 154//154
f 141//141 144//144 153//153
f 153//153 142//142 109//109
f 138//138 154//154 167//167
f 138//138 167//167 139//139
f 108//108 106//106 139//139
f 166//166 108//108 139//139
f 109//109 152//152 153//153
f 109//109 161//161 152//152
f 111//111 108//108 166//166
f 106//106 108//108 107//107
f 109//109 156//156 161//161
f 161//161 156//156 163//163
f 188//188 111//111 166//166
f 145//145 110//110 112//112
f 146//146 168//168 112//112
f 145//145 112//112 169//169
f 168//168 169//169 112//112
f 110//110 156//156 109//109
f 145//145 156//156 110//110
f 146//146 118//118 147//147
f 148//148 147//147 118//118
f 149//149 146//146 147//147
f 147//147 148//148 149//149
f 119//119 151//151 148//148
f 190//190 148//148 151//151
f 114//114 185//185 150//150
f 114//114 111//111 185//185
f 190//190 151//151 191//191
f 191//191 151//151 150//150
f 153//153 216//216 154//154
f 154//154 216//216 167//167
f 145//145 158//158 156//156
f 160//160 158//158 155//155
f 156//156 157//157 163//163
f 156//156 158//158 157//157
f 158//158 159//159 157//157
f 159//159 164//164 163//163
f 159//159 163//163 157//157
f 158//158 160//160 159//159
f 159//159 160//160 165//165
f 164//164 159//159 165//165
f 160//160 192//192 165//165
f 162//162 161//161 163//163
f 162//162 216//216 161//161
f 163//163 164//164 162//162
f 164//164 165//165 162//162
f 162//162 165//165 167//167
f 167//167 165//165 166//166
f 167//167 216//216 162//162
f 167//167 166//166 139//139
f 145//145 170//170 158//158
f 172//172 171//171 169//169
f 171//171 145//145 169//169
f 171//171 170//170 145//145
f 172//172 169//169 168//168
f 170//170 173//173 158//158
f 158//158 173//173 155//155
f 171//171 173//173 170//170
f 174//174 171//171 172//172
f 171//171 174//174 173//173
f 174//174 172//172 175//175
f 175//175 172//172 168//168
f 173//173 174//174 176//176
f 177//177 174//174 175//175
f 174//174 177//177 176//176
f 176//176 155//155 173//173
f 177//177 181//181 176//176
f 176//176 181//181 193//193
f 176//176 193//193 192//192
f 155//155 176//176 192//192
f 160//160 155//155 192//192
f 188//188 185//185 111//111
f 178//178 168//168 146//146
f 180//180 148//148 190//190
f 146//146 149//149 178//178
f 179//179 148//148 180//180
f 149//149 179//179 178//178
f 179//179 149//149 148//148
f 178//178 175//175 168//168
f 178//178 182//182 175//175
f 180//180 183//183 179//179
f 187//187 180//180 190//190
f 183//183 182//182 178//178
f 183//183 178//178 179//179
f 187//187 189//189 180//180
f 182//182 177//177 175//175
f 177//177 182//182 181//181
f 217//217 184//184 182//182
f 182//182 184//184 181//181
f 184//184 217//217 194//194
f 189//189 194//194 217//217
f 180//180 189//189 183//183
f 184//184 193//193 181//181
f 193//193 184//184 194//194
f 185//185 191//191 150//150
f 185//185 186//186 191//191
f 186//186 190//190 191//191
f 185//185 188//188 186//186
f 187//187 186//186 189//189
f 190//190 186//186 187//187
f 192//192 193//193 194//194
f 194//194 188//188 192//192
f 188//188 194//194 189//189
f 186//186 188//188 189//189
f 192//192 166//166 165//165
f 166//166 192//192 188//188
