# Wavafront OBJ file of BodyParts3D
# BodyParts3D, Copyright(C) 2010-2011 The Database Center for Life Science licensed under CC Attribution-Share Alike 2.1 Japan.
vn -0.747417 0.113586 -0.654573
v 100.943 -101.979 15.1497
vn -0.625873 -0.241382 -0.741632
v 101.235 -102.054 14.8352
vn -0.909128 0.314766 0.272779
v 101.029 -101.773 16.0438
vn -0.651244 0.168881 -0.739838
v 101.625 -100.645 14.6022
vn -0.909377 0.410645 -0.0663628
v 101.071 -101.265 15.1525
vn -0.767731 0.578391 0.275778
v 102.41 -99.2161 15.3489
vn -0.790501 0.513477 0.33384
v 101.736 -100.528 15.9866
vn -0.819807 0.557702 -0.129944
v 102.612 -98.7586 14.5977
vn -0.350471 0.0690081 -0.934028
v 105.363 -96.2438 13.1385
vn -0.776553 0.447494 -0.443524
v 104.977 -96.11 13.3395
vn -0.752382 0.601343 0.2689
v 104.712 -96.0949 13.9598
vn -0.805983 0.499248 0.31803
v 105.709 -94.5385 13.5833
vn -0.763737 -0.106429 -0.636693
v 109.911 -93.3763 9.44695
vn -0.810118 -0.119993 -0.573856
v 109.383 -93.3599 10.772
vn -0.791578 -0.0297268 -0.610345
v 107.933 -92.1991 12.2296
vn -0.894211 0.44618 0.0361921
v 106.254 -93.6562 13.8263
vn -0.678836 0.303165 -0.668785
v 106.635 -93.3358 13.2013
vn -0.88063 0.341976 0.327939
v 107.179 -91.8009 14.1846
vn -0.707487 0.0370597 -0.705754
v 109.643 -91.4082 9.89642
vn -0.822056 -0.127777 -0.554884
v 109.251 -91.723 10.5145
vn -0.415736 0.2142 -0.883902
v 110.871 -91.4153 9.04387
vn -0.770103 0.0746001 -0.633542
v 108.198 -89.8581 11.3148
vn -0.865618 0.308325 -0.394514
v 108.128 -88.7797 11.9829
vn -0.948701 0.0741075 -0.307367
v 107.863 -90.2037 11.9717
vn -0.935657 0.239282 -0.259403
v 107.455 -91.0348 13.4622
vn -0.0711608 0.388886 -0.918534
v 112.388 -89.4152 9.31662
vn -0.34977 0.36321 -0.863562
v 111.029 -89.2774 9.69948
vn -0.334767 0.476115 -0.81317
v 111.268 -86.8652 10.8294
vn -0.591199 0.359031 -0.722205
v 108.632 -88.5251 11.441
vn -0.931081 0.352885 -0.0925223
v 108.047 -88.4776 12.7268
vn -0.691388 0.507749 -0.513978
v 108.705 -87.8479 11.827
vn -0.809564 0.562436 -0.168145
v 108.764 -87.2298 12.6241
vn -0.885731 0.389372 0.252726
v 108.464 -88.1186 14.1876
vn -0.80436 0.568639 0.172207
v 109.292 -86.5386 14.1178
vn -0.15195 0.705655 -0.692071
v 112.114 -84.7113 11.9491
vn -0.12026 0.499235 -0.85808
v 112.507 -85.8971 11.08
vn -0.453314 0.608091 -0.651714
v 111.043 -85.0532 12.1489
vn -0.612014 0.755014 -0.235357
v 110.853 -84.6934 12.8198
vn -0.279117 0.868824 -0.408949
v 111.548 -84.541 12.4069
vn -0.506982 0.833002 0.221534
v 110.871 -84.7231 13.661
vn -0.262705 0.964533 -0.0257244
v 111.386 -84.4437 13.123
vn -0.63497 0.644699 0.425647
v 110.208 -85.9221 15.033
vn 0.0513855 0.976047 -0.211404
v 112.709 -84.3145 12.6892
vn -0.712526 -0.312369 -0.628277
v 103.365 -106.336 14.2259
vn -0.448893 -0.0345252 -0.892918
v 102.976 -102.278 13.9613
vn -0.989025 -0.1477 -0.00390736
v 100.883 -103.322 16.4979
vn -0.64539 -0.286299 -0.70817
v 102.041 -103.167 14.8128
vn -0.819755 -0.427058 -0.381605
v 101.157 -103.791 16.3047
vn -0.890614 -0.444045 0.098137
v 101.144 -103.984 17.536
vn -0.953797 -0.00807085 0.300345
v 101.138 -103.64 17.8176
vn -0.83866 0.254162 0.481716
v 101.523 -103.558 18.6806
vn -0.918778 0.0814693 -0.386276
v 110.073 -98.6209 10.5254
vn -0.867087 0.127791 -0.481486
v 109.978 -99.3529 10.545
vn -0.74082 0.215402 -0.636229
v 109.623 -99.2959 11.1458
vn -0.60211 0.13504 -0.78691
v 109.36 -99.2218 11.3888
vn -0.783082 0.0905432 -0.615293
v 109.842 -98.6305 11.2104
vn -0.52404 -0.0114681 -0.851616
v 108.162 -98.4541 12.2175
vn -0.847663 -0.00207314 -0.530531
v 110.825 -97.5826 9.22561
vn -0.852078 -0.0751885 -0.517987
v 110.669 -95.6745 9.75079
vn -0.740574 -0.0993678 -0.664587
v 109.718 -96.9977 10.958
vn -0.892082 -0.0435293 -0.449772
v 110.135 -97.8654 10.4827
vn -0.723606 0.553771 0.411986
v 106.429 -94.7271 15.7045
vn -0.622027 -0.0851089 -0.778356
v 111.055 -94.9095 8.73628
vn -0.338623 0.0689303 -0.938394
v 112.024 -93.6487 8.30546
vn -0.76699 -0.191637 -0.612374
v 109.645 -94.217 10.6132
vn -0.875611 -0.195175 -0.441829
v 110.778 -95.2748 9.36205
vn 0.0570034 0.20986 -0.976068
v 113.522 -92.7941 8.13764
vn -0.748566 0.400746 0.528253
v 109.169 -87.893 15.709
vn 0.116501 0.571264 -0.812456
v 113.495 -85.2236 11.4421
vn 0.27041 0.846303 -0.458965
v 113.419 -84.743 11.9346
vn 0.510758 0.646168 -0.567091
v 115.309 -85.9731 11.5849
vn 0.554438 0.806644 -0.204754
v 115.133 -85.4625 12.2482
vn 0.664478 0.701558 0.257461
v 115.325 -85.6134 13.2107
vn 0.174677 0.860637 0.478322
v 112.585 -85.1221 15.5941
vn 0.484385 0.703271 0.520366
v 113.051 -85.5555 15.9294
vn -0.305347 0.83398 0.459609
v 111.744 -85.1044 15.4841
vn -0.461527 0.61467 0.639667
v 111.253 -86.2248 16.5405
vn -0.0379009 0.765514 0.642302
v 112.053 -85.4424 16.1256
vn -0.0244108 0.972147 0.233096
v 112.421 -84.3081 13.7506
vn 0.421549 0.895415 0.143275
v 113.848 -84.6411 13.4303
vn -0.471595 -0.192327 -0.860586
v 107.055 -107.907 11.7201
vn -0.784523 -0.574854 -0.232523
v 103.707 -107.899 15.4331
vn -0.592442 -0.00405813 -0.805603
v 109.252 -104.546 11.2738
vn -0.312869 0.100991 -0.944412
v 107.299 -106.472 11.7173
vn -0.755594 -0.371222 0.539697
v 102.237 -104.846 20.0185
vn -0.454834 0.0754198 -0.887377
v 107.723 -102.526 12.3828
vn -0.708997 0.502506 0.494783
v 104.026 -101.053 20.3837
vn -0.1697 -0.0708274 -0.982947
v 113.11 -100.759 8.50324
vn -0.717883 0.0820034 -0.691317
v 109.498 -100.012 11.1458
vn -0.124684 -0.0500041 -0.990936
v 113.776 -97.0807 7.78076
vn 0.42265 0.0490041 -0.904967
v 116.051 -96.5884 8.22748
vn 0.503455 0.177068 -0.845683
v 116.479 -94.1727 8.82723
vn -0.625093 0.351186 0.697084
v 110.947 -92.7217 19.5018
vn 0.397626 0.395627 -0.827872
v 116.14 -88.8457 10.1316
vn 0.754539 0.513178 -0.409047
v 116.718 -87.4286 11.7659
vn 0.90134 0.410708 0.137494
v 117.788 -89.1664 12.2251
vn 0.779338 0.624729 -0.0484262
v 115.987 -86.2092 12.4447
vn 0.766059 0.53134 0.361706
v 116.267 -87.1319 13.5442
vn -0.424895 0.43489 0.793936
v 111.769 -87.4037 17.7212
vn -0.10926 0.616577 0.779676
v 112.531 -86.9482 17.6406
vn 0.362881 0.623869 0.692174
v 113.23 -86.7942 17.4144
vn 0.0734458 0.433912 0.897956
v 112.912 -87.9866 18.3049
vn -0.529436 -0.130392 -0.838269
v 109.904 -111.319 10.9589
vn -0.670908 -0.40482 -0.621291
v 107.194 -110.073 12.8666
vn -0.757053 -0.637665 -0.142315
v 106.9 -110.969 14.4349
vn -0.654143 -0.74307 0.141222
v 105.67 -110.157 16.8929
vn -0.593147 -0.79768 0.109007
v 106.908 -111.088 15.6935
vn -0.728923 -0.673062 0.125135
v 107.284 -111.431 15.55
vn -0.50127 -0.223144 -0.836023
v 108.522 -109.687 11.6928
vn -0.341631 -0.0326303 -0.939267
v 109.762 -109.352 11.0729
vn -0.501359 -0.0984839 -0.859616
v 111.426 -105.604 9.63407
vn -0.535381 -0.499004 0.681441
v 104.478 -104.199 22.004
vn -0.773318 0.0913942 0.627396
v 104.391 -103.064 22.3677
vn -0.606338 0.427939 0.670241
v 105.421 -102.941 23.6557
vn -0.559662 -0.0308017 0.828148
v 105.517 -103.396 23.8366
vn -0.432434 0.213894 0.875928
v 105.657 -103.078 23.8814
vn -0.246662 0.0401279 0.96827
v 106.125 -102.914 24.0049
vn -0.416655 -0.0725423 0.906165
v 106.589 -102.745 24.11
vn -0.446265 0.320385 0.835584
v 106.424 -102.399 23.9706
vn 0.226588 -0.0179517 -0.973825
v 116.338 -103.317 8.61879
vn 0.819459 0.0405785 -0.5717
v 118.939 -94.7813 10.8582
vn 0.969111 0.192516 -0.154149
v 119.296 -93.5631 11.9791
vn -0.449801 0.557497 0.697765
v 110.985 -93.6047 20.1115
vn -0.288861 0.425341 0.857697
v 111.424 -92.997 19.944
vn 0.0573956 0.648204 0.7593
v 111.55 -93.8603 20.4409
vn -0.00644273 0.461429 0.887154
v 112.732 -94.0468 20.5965
vn 0.781115 0.299666 -0.547777
v 118.167 -90.9926 10.9022
vn 0.664716 0.36367 0.652608
v 116.207 -90.5049 17.5922
vn 0.719266 0.520949 0.459638
v 115.803 -88.8703 16.7523
vn -0.810772 -0.380567 -0.444767
v 110.814 -115.657 11.5768
vn -0.890051 -0.453764 -0.0436707
v 109.307 -114.331 15.0483
vn -0.492157 -0.0558088 -0.868716
v 112.239 -112.172 10.0173
vn -0.508039 -0.121504 -0.852721
v 111.914 -114.022 10.4285
vn -0.664159 -0.713858 0.222034
v 107.324 -111.083 16.4491
vn -0.814498 -0.569041 0.113066
v 108.512 -112.344 18.477
vn -0.398573 -0.0236359 -0.916832
v 113.454 -109.424 8.82137
vn -0.600348 -0.100006 -0.793462
v 113.1 -111.651 9.25492
vn -0.671157 -0.617277 0.410508
v 106.886 -110.037 19.2887
vn -0.501268 -0.480605 0.719548
v 107.877 -108.924 20.756
vn 0.228563 0.129407 -0.96489
v 116.836 -108.864 8.27036
vn -0.318169 -0.675245 0.665441
v 106.456 -104.005 23.3355
vn -0.162704 -0.670009 0.724304
v 106.394 -103.688 23.677
vn -0.398494 -0.564549 0.722832
v 106.789 -103.905 23.6057
vn -0.284554 -0.385906 0.877557
v 106.827 -103.228 24.0862
vn 0.644477 0.039818 -0.763586
v 117.158 -102.968 9.05094
vn 0.932853 0.000870444 -0.360257
v 118.723 -101.327 11.4542
vn 0.998333 -0.0296063 -0.049538
v 119.595 -96.9362 12.963
vn 0.931885 0.034302 0.361129
v 119.381 -97.0847 14.4781
vn 0.372403 0.568737 0.733385
v 112.873 -95.3296 21.4199
vn 0.137646 0.694187 0.706511
v 112.145 -96.2452 23.1344
vn 0.52493 0.638973 0.562283
v 112.641 -96.0106 22.5894
vn 0.666844 0.438971 0.602182
v 113.27 -95.9888 21.6786
vn -0.396303 0.606475 0.689298
v 111.397 -96.5936 23.2798
vn -0.395483 0.51817 0.758348
v 111.589 -97.6788 24.1845
vn 0.0379977 0.576043 0.816535
v 112.173 -97.8932 24.5182
vn 0.950588 0.20731 0.231095
v 119.247 -94.2048 13.6716
vn 0.837515 0.191656 0.5117
v 117.716 -93.659 16.7992
vn 0.342605 0.37721 0.860427
v 113.436 -94.3612 20.6746
vn 0.606454 0.270631 0.747644
v 115.843 -94.3834 19.1534
vn -0.553227 -0.0383375 -0.832148
v 115.978 -119.185 7.71435
vn -0.694435 -0.214245 -0.68692
v 112.136 -118.057 11.0004
vn -0.87916 -0.319598 -0.35346
v 111.488 -117.977 12.2441
vn -0.199495 0.0839199 -0.976299
v 115.612 -114.423 7.80216
vn -0.768151 -0.594543 0.237617
v 108.721 -112.615 18.636
vn -0.797928 -0.564682 0.210821
v 109.536 -114.138 17.5927
vn -0.653853 -0.597943 0.463616
v 109.637 -113.058 19.6651
vn -0.67209 -0.581867 0.457957
v 110.423 -114.583 18.6625
vn -0.577676 -0.434557 0.690977
v 110.126 -112.232 20.9622
vn 0.761367 0.173227 -0.62475
v 118.344 -108.143 9.34756
vn -0.493343 -0.415453 0.764206
v 109.515 -104.218 25.4788
vn -0.198807 -0.396507 0.896247
v 111.177 -104.645 26.1027
vn 0.96078 -0.0327252 0.275376
v 118.648 -103.09 15.4966
vn -0.386806 0.386788 0.837124
v 110.291 -101.959 26.1238
vn -0.279542 0.0439722 0.959126
v 110.766 -103.014 26.6353
vn 0.643279 -0.0853257 0.760863
v 111.532 -103.307 26.4087
vn -0.0450115 -0.345905 0.937189
v 111.242 -103.218 26.6327
vn 0.264436 -0.283758 0.921713
v 111.368 -103.994 26.3356
vn 0.997998 -0.025623 0.0578245
v 119.071 -101.43 13.5897
vn 0.801045 0.177519 0.571677
v 115.683 -99.5006 20.3023
vn -0.169468 0.442863 0.880428
v 111.775 -99.3628 25.3078
vn 0.310613 0.362087 0.87887
v 112.361 -99.2157 25.242
vn 0.717408 0.174046 0.674562
v 112.982 -99.4482 24.8248
vn 0.825561 0.0682967 0.560165
v 117.422 -99.1168 18.0308
vn 0.629321 0.465387 0.622391
v 112.839 -97.9632 24.1631
vn -0.725014 -0.506523 0.466678
v 111.812 -118.521 16.2254
vn 0.30933 0.254557 -0.916251
v 119.776 -116.534 7.41613
vn 0.670545 0.312889 -0.672659
v 120.469 -116.163 8.05192
vn -0.523258 -0.614878 0.590022
v 111.208 -114.57 19.5618
vn -0.476973 -0.642095 0.600176
v 111.02 -113.629 20.5845
vn -0.155464 -0.666443 0.729168
v 112.342 -113.631 21.3627
vn -0.273887 -0.633517 0.723631
v 112.914 -114.85 20.2363
vn -0.371774 -0.488772 0.789231
v 111.611 -112.97 21.6004
vn 0.940939 -0.0479767 0.33516
v 115.598 -108.853 21.2555
vn -0.270694 -0.507367 0.818109
v 112.228 -107.948 24.6672
vn -0.413258 -0.434918 0.80004
v 112.527 -109.806 23.4371
vn 0.254168 -0.386061 0.886767
v 113.027 -108.771 24.2013
vn -0.00233325 -0.39288 0.919587
v 113.354 -109.816 23.6896
vn 0.538573 -0.134246 0.831816
v 113.704 -108.873 23.8049
vn 0.964628 0.210474 -0.158723
v 119.433 -107.064 12.6892
vn 0.926556 0.0720035 0.369201
v 118.406 -106.678 16.5593
vn 0.845101 -0.000899398 0.534606
v 117.118 -106.785 18.6671
vn 0.954779 -0.0254537 0.296225
v 115.223 -107.744 22.5581
vn 0.655071 -0.0080929 0.755524
v 113.796 -106.137 23.5681
vn 0.224834 -0.337139 0.914214
v 112.366 -106.945 25.2494
vn 0.87559 0.038636 0.481507
v 116.615 -103.514 19.6579
vn 0.828927 -0.0116575 0.559235
v 115.614 -105.538 22.1498
vn -0.872957 -0.283219 -0.397155
v 115.134 -126.965 10.5093
vn 0.0622904 0.244347 -0.967685
v 121.11 -122.664 6.0535
vn -0.328776 -0.473929 0.816883
v 114.983 -119.988 17.8942
vn 0.614457 -0.0566322 0.786915
v 117.556 -116.544 18.3345
vn 0.159369 -0.522029 0.837906
v 114.177 -114.646 20.5836
vn 0.819989 -0.128845 0.557689
v 116.241 -111.675 19.8903
vn 0.565022 -0.2525 0.78549
v 115.574 -114.056 20.1462
vn 0.314405 -0.613068 0.724774
v 114.404 -113.369 21.4141
vn 0.665161 -0.46178 0.586788
v 114.776 -112.786 21.5824
vn 0.183311 -0.556388 0.81045
v 114.017 -112.255 22.7122
vn 0.872779 -0.307817 0.378822
v 115.32 -111.837 21.404
vn 0.947074 -0.153852 0.281744
v 115.387 -110.907 21.7589
vn 0.982148 -0.102213 0.157917
v 115.369 -110.497 22.5311
vn 0.788715 -0.373363 0.488394
v 115.092 -111.523 22.4693
vn 0.498244 -0.164054 0.851375
v 114.586 -110.668 23.3047
vn -0.242605 0.2505 -0.937226
v 122.978 -131.522 3.4569
vn -0.654786 0.0162108 -0.75564
v 121.333 -132.472 4.19302
vn -0.8456 -0.452342 0.283456
v 116.94 -131.867 11.7431
vn 0.633562 0.350322 -0.689836
v 122.444 -122.938 6.59972
vn 0.230193 -0.271519 0.934499
v 116.583 -119.937 18.096
vn -0.858634 0.121094 -0.498081
v 124.702 -140.586 0.12467
vn -0.879268 -0.142079 -0.454645
v 120.692 -137.877 6.03109
vn 0.33041 0.399358 -0.855186
v 124.018 -131.942 3.29093
vn 0.603695 0.459909 -0.65118
v 125.815 -133.197 3.74214
vn -0.544288 -0.441062 0.713593
v 117.417 -131.354 12.8108
vn 0.639542 0.400529 -0.656173
v 124.021 -129.763 4.3285
vn 0.766721 0.418077 -0.487187
v 125.104 -127.357 8.04962
vn -0.580753 0.34253 -0.738511
v 121.751 -148.668 0.818489
vn -0.845939 0.274707 -0.457081
v 121.557 -149.346 0.770793
vn -0.268057 0.0664647 -0.961108
v 122.272 -149.207 0.38618
vn -0.776432 -0.535431 -0.332364
v 121.611 -150.143 1.30337
vn -0.877537 0.277992 -0.390704
v 121.072 -149.286 1.70429
vn -0.797321 -0.575562 0.181681
v 121.429 -149.945 2.41013
vn -0.876741 -0.285251 0.387242
v 121.375 -149.611 2.75441
vn -0.637434 -0.411657 -0.651319
v 125.82 -147.993 -2.52092
vn -0.147491 -0.207039 -0.967151
v 126.791 -147.106 -3.25143
vn -0.815197 -0.187613 -0.547955
v 124.9 -146.032 -2.47514
vn -0.825092 -0.425882 -0.371278
v 125.166 -147.078 -2.1975
vn -0.863828 -0.302652 -0.402745
v 124.352 -146.974 -0.232091
vn -0.29585 0.278368 -0.913775
v 123 -148.03 0.697215
vn -0.622079 0.0376103 -0.782051
v 123.96 -147.236 0.379644
vn -0.34867 0.15393 -0.924519
v 125.886 -144.403 -3.27959
vn -0.215178 0.505026 -0.835851
v 126.166 -143.852 -3.16529
vn -0.439697 -0.120504 -0.890025
v 125.774 -145.91 -3.1871
vn -0.0342214 0.065943 -0.997236
v 126.788 -144.765 -3.44063
vn 0.196557 0.297066 -0.934407
v 127.409 -144.285 -3.29441
vn -0.701127 0.190123 -0.687222
v 125 -144.128 -2.6181
vn -0.930249 0.0282305 -0.365842
v 123.956 -144.402 -0.340976
vn -0.53556 0.304565 -0.787664
v 122.864 -145.452 1.80282
vn -0.824424 0.121658 -0.552742
v 123.018 -143.282 2.26536
vn -0.81326 0.282901 -0.508502
v 121.972 -145.204 2.65019
vn -0.924886 -0.113593 0.362881
v 121.702 -143.243 5.5808
vn 0.079316 0.662206 -0.745113
v 127.148 -143.082 -2.63916
vn 0.229324 0.722561 -0.652163
v 127.44 -142.701 -2.08546
vn -0.892128 0.209371 -0.40034
v 124.607 -142.293 -0.991165
vn -0.316508 0.597173 -0.737026
v 125.803 -142.993 -2.24228
vn -0.101244 0.690476 -0.716235
v 126.408 -142.859 -2.29451
vn -0.0229743 0.539864 -0.841439
v 126.064 -140.411 -0.290152
vn -0.880805 0.189873 -0.43374
v 123.55 -141.863 1.58592
vn -0.885948 0.109888 -0.450578
v 122.228 -142.409 3.74924
vn -0.945087 -0.31681 0.0802671
v 121.549 -142.47 7.47021
vn 0.0175603 -0.294377 0.955528
v 121.682 -131.912 14.2749
vn 0.412524 -0.126792 0.90208
v 122.174 -130.218 14.3981
vn 0.872278 0.187112 0.451796
v 125.058 -129.099 11.5167
vn -0.731732 -0.424147 -0.533542
v 127.041 -150.16 -1.94383
vn -0.303023 -0.043389 -0.951995
v 124.674 -150.201 0.150045
vn -0.538008 -0.405064 -0.739237
v 122.589 -150.761 0.735816
vn -0.723461 -0.571565 -0.387192
v 122.362 -150.829 1.01625
vn -0.763936 -0.642718 -0.0575907
v 122.038 -150.665 1.62445
vn -0.757962 -0.603362 0.247886
v 122.085 -150.613 2.47551
vn -0.698967 -0.477917 0.532015
v 122.295 -149.788 3.9869
vn -0.313832 -0.391385 -0.865059
v 127.554 -149.864 -2.48493
vn 0.138069 -0.237144 -0.961613
v 128.149 -148.506 -2.95028
vn -0.809807 -0.512757 -0.28512
v 125.527 -148.054 -1.45518
vn -0.693441 -0.233214 -0.681726
v 126.101 -149.485 -0.945147
vn -0.337147 0.0297548 -0.940982
v 123.874 -148.748 0.434198
vn -0.769116 -0.281979 0.57354
v 122.06 -147.504 4.77787
vn 0.200874 -0.0322809 -0.979085
v 128.271 -146.2 -3.26166
vn 0.424817 0.131611 -0.895661
v 129.243 -145.522 -2.88363
vn 0.405755 -0.109475 -0.907402
v 129.463 -147.559 -2.77353
vn 0.408371 0.555937 -0.723994
v 128.717 -143.44 -2.45425
vn 0.468694 0.611889 -0.637117
v 129.836 -142.398 0.079598
vn -0.770177 -0.458841 0.443049
v 121.953 -142.425 8.95689
vn -0.616365 -0.491645 0.615125
v 122.412 -141.944 10.0264
vn -0.598291 -0.495296 0.629865
v 123.018 -143.609 9.179
vn -0.297691 -0.407439 0.86335
v 123.68 -141.523 11.2197
vn 0.545636 0.568474 -0.615727
v 128.297 -139.256 1.42585
vn -0.401212 -0.313285 -0.860745
v 125.445 -153.249 0.293401
vn -0.46318 -0.600283 -0.652015
v 125.047 -153.952 0.949539
vn -0.406136 -0.319066 -0.856301
v 126.422 -152.8 -0.389883
vn -0.159288 -0.78137 -0.603397
v 126.853 -154.669 0.905932
vn 0.0180513 -0.721711 -0.691959
v 127.953 -154.246 0.301692
vn -0.696101 -0.681685 -0.225276
v 124.344 -153.962 1.75507
vn -0.841888 -0.495501 0.213784
v 124.299 -153.906 2.54827
vn -0.334561 -0.874261 -0.351762
v 125.638 -154.902 1.83163
vn -0.538239 -0.838456 -0.0853865
v 125.32 -155.023 2.8879
vn -0.761209 -0.639946 0.105025
v 125.026 -154.74 3.5452
vn -0.514519 -0.841995 0.162218
v 125.275 -154.967 3.68109
vn 0.121277 -0.407772 -0.904994
v 128.683 -150.79 -2.13411
vn -0.242193 -0.524957 -0.815943
v 127.333 -153.142 -0.639357
vn 0.186475 -0.597903 -0.779576
v 129.461 -152.87 -0.833436
vn -0.542836 -0.24435 -0.803506
v 126.577 -152.038 -0.69851
vn -0.641859 -0.484051 0.594737
v 123.911 -150.304 5.29009
vn -0.6805 -0.403012 0.611965
v 124.263 -152.151 3.99118
vn -0.553402 -0.498918 0.666954
v 125.168 -150.907 5.68863
vn 0.380693 -0.254136 -0.889094
v 130.32 -149.994 -1.87046
vn 0.553929 0.000716365 -0.832563
v 131.495 -146.682 -1.66539
vn -0.501618 -0.429552 0.750909
v 125.099 -144.985 9.79702
vn 0.578599 0.244768 -0.778018
v 131.247 -145.421 -1.66459
vn 0.624312 0.449787 -0.638691
v 132.502 -144.656 -0.180103
vn 0.499958 0.426021 -0.754021
v 132.504 -143.505 0.728087
vn 0.289298 -0.100614 0.951937
v 126.283 -142.551 10.6598
vn -0.156427 -0.218093 0.96331
v 125.907 -144.634 10.2477
vn 0.441105 0.824974 -0.353332
v 131.431 -140.807 3.08123
vn 0.326792 0.784261 -0.527391
v 133.368 -141.572 2.29688
vn 0.116772 -0.267288 0.956515
v 124.597 -140.441 11.6239
vn 0.79149 0.610872 -0.0194586
v 130.378 -139.284 5.15905
vn 0.578216 0.815523 -0.024246
v 131.448 -140.37 4.76787
vn 0.810324 0.527785 0.254593
v 129.498 -139.473 8.35538
vn 0.600223 0.0780613 0.796015
v 127.369 -139.503 10.3469
vn 0.0642609 -0.837637 -0.542434
v 128.199 -154.732 0.919768
vn -0.0943457 -0.92254 -0.37419
v 127.445 -155.408 2.17916
vn -0.0597606 -0.981932 -0.17955
v 127.808 -155.62 2.84063
vn 0.0751303 -0.936102 -0.34361
v 128.269 -155.465 2.28292
vn 0.0959465 -0.991649 -0.0861798
v 128.437 -155.671 3.23665
vn -0.294991 -0.955351 -0.0168777
v 125.875 -155.248 3.25631
vn -0.444479 -0.733066 0.514832
v 125.584 -154.774 4.67914
vn -0.713811 -0.559557 0.421153
v 125.302 -154.638 4.58467
vn -0.792007 -0.159319 0.589357
v 125.339 -154.302 4.79608
vn -0.425792 -0.850975 0.307478
v 125.717 -154.996 4.37175
vn -0.595425 -0.443949 0.669611
v 125.58 -154.441 5.01258
vn -0.199433 -0.964333 -0.174034
v 127.013 -155.493 2.74792
vn -0.268867 -0.93754 0.220746
v 126.157 -155.19 4.25185
vn -0.297426 -0.865507 0.403033
v 126.02 -155.048 4.56542
vn -0.145544 -0.987866 0.054192
v 127.412 -155.621 3.42279
vn 0.401529 -0.410902 -0.818495
v 130.648 -151.804 -1.05832
vn 0.232368 -0.734193 -0.637939
v 129.874 -154.01 0.385153
vn -0.680215 -0.119728 0.723168
v 126.634 -152.764 6.15116
vn -0.646335 -0.157471 0.746629
v 126.861 -153.68 6.45541
vn 0.569999 -0.225821 -0.790004
v 132.184 -150.211 -0.697286
vn -0.468316 -0.695684 0.544705
v 126.652 -149.69 8.55917
vn -0.484834 -0.458144 0.745011
v 127.411 -149.084 9.96596
vn 0.668174 0.133636 -0.731905
v 133.231 -146.877 -0.283938
vn -0.212346 -0.0682715 0.974807
v 127.622 -146.973 10.6448
vn 0.668056 0.350063 -0.656626
v 133.226 -144.728 0.742037
vn 0.679732 0.245795 -0.69105
v 134.966 -145.265 1.84621
vn 0.117651 0.163594 0.979487
v 128.415 -144.955 10.3412
vn 0.612736 0.444687 -0.653306
v 134.428 -142.357 2.21136
vn 0.879976 0.284564 -0.380349
v 135.296 -142.929 3.2086
vn 0.330761 0.943279 -0.0286583
v 132.939 -141.09 4.04643
vn 0.588649 0.639514 0.494483
v 131.95 -141.234 6.75692
vn 0.380059 0.708735 0.594349
v 134.241 -142.449 5.82731
vn 0.394997 0.261935 0.88055
v 129.776 -143.489 9.54282
vn 0.634842 0.763896 -0.115923
v 134.767 -141.619 3.66065
vn 0.403767 0.866192 0.294422
v 134.448 -141.563 4.17638
vn -0.0287069 -0.965197 0.259944
v 129.389 -155.409 5.45296
vn 0.476759 -0.603562 -0.639072
v 132.274 -153.197 0.900874
vn 0.279549 -0.867286 -0.411907
v 130.595 -154.921 2.01273
vn 0.461069 -0.801214 -0.381408
v 133.025 -154.243 3.03304
vn -0.308399 -0.675463 0.669806
v 128.681 -154.231 7.4307
vn -0.419118 -0.558781 0.715614
v 129.709 -151.086 9.08629
vn 0.692741 -0.119908 -0.711148
v 135.316 -149.226 1.60461
vn 0.852175 -0.101395 -0.513339
v 136.16 -149.757 2.66962
vn 0.113855 -0.0618746 0.991569
v 131.031 -148.088 10.8763
vn -0.193458 -0.300628 0.933915
v 131.006 -149.889 10.1687
vn 0.0448215 -0.309926 0.949703
v 131.264 -149.019 10.4773
vn -0.197357 -0.427734 0.882097
v 128.46 -149.212 10.3651
vn 0.801644 0.12577 -0.584422
v 135.17 -146.86 1.64682
vn 0.951352 0.145465 -0.271605
v 136.551 -147.432 3.93481
vn 0.393665 0.443935 0.804953
v 133.041 -145.96 9.59606
vn 0.922668 0.383799 0.0371672
v 135.563 -142.95 5.0468
vn 0.549406 0.707263 0.444896
v 135.208 -142.633 5.61986
vn 0.238141 0.705423 0.667583
v 134.954 -142.765 5.89004
vn 0.804482 0.408244 0.431447
v 135.54 -143.678 6.35134
vn 0.33823 0.598251 0.726427
v 134.138 -143.369 6.68956
vn 0.368932 0.571048 0.733344
v 135.144 -143.381 6.48761
vn 0.358712 0.503025 0.786315
v 135.073 -144.195 6.94457
vn 0.305513 -0.946975 -0.0994991
v 132.609 -154.92 4.50246
vn 0.308178 -0.923293 0.229252
v 133.018 -154.706 5.9733
vn 0.563392 -0.824932 -0.0455861
v 134.121 -154.248 4.95393
vn 0.0644404 -0.873496 0.482548
v 130.92 -154.717 7.15514
vn 0.0718902 -0.746381 0.661625
v 131.985 -153.593 8.5217
vn 0.662109 -0.43107 -0.613017
v 135.108 -152.407 2.80619
vn 0.597193 -0.702908 -0.386368
v 134.971 -153.259 3.69824
vn 0.788199 -0.525179 -0.320825
v 135.428 -152.655 3.503
vn 0.759396 -0.643008 -0.099289
v 135.317 -153.124 4.33455
vn 0.768748 -0.602101 0.215642
v 135.315 -152.998 5.97369
vn 0.904887 -0.42471 0.0283039
v 136.053 -152.026 5.12619
vn 0.85689 -0.340582 0.386966
v 135.628 -152.058 6.48026
vn 0.29488 -0.797779 0.525923
v 132.964 -153.836 7.91428
vn 0.281559 -0.653122 0.702962
v 132.965 -153.187 8.67218
vn 0.54975 -0.751928 0.363839
v 134.129 -153.803 6.97903
vn 0.514646 -0.576818 0.634367
v 133.738 -153.077 8.31252
vn 0.737916 -0.447494 0.505202
v 134.57 -152.932 7.57252
vn -0.468125 -0.249254 0.84778
v 130.829 -151.665 9.70698
vn 0.000689603 -0.537418 0.843316
v 131.581 -152.711 9.41676
vn 0.326089 -0.422781 0.845531
v 133.003 -152.166 9.41326
vn 0.876127 -0.343245 -0.338505
v 136.243 -151.086 3.54254
vn 0.985824 -0.131951 -0.103632
v 136.768 -149.92 4.47592
vn 0.946305 -0.189908 0.261613
v 136.607 -150.359 5.2506
vn 0.635414 -0.253922 0.729228
v 134.284 -150.046 9.56581
vn -0.13079 -0.138068 0.981749
v 131.468 -149.724 10.3015
vn -0.0801117 -0.196088 0.977308
v 131.656 -150.194 10.3333
vn 0.100307 -0.0954565 0.990367
v 132.414 -148.616 10.4654
vn 0.271638 -0.143397 0.951657
v 133.042 -149.259 10.3943
vn 0.970844 0.119834 0.207609
v 136.638 -146.984 5.73377
vn 0.848348 -0.0864138 0.522339
v 135.538 -148.819 8.14369
vn 0.50687 0.119085 0.853757
v 133.945 -148.048 10.0215
vn 0.677653 0.319015 0.662583
v 135.548 -145.644 7.51205
vn -0.98745 0.145252 0.0620056
v 100.943 -101.979 15.1497
vn -0.789502 -0.393626 -0.470898
v 100.943 -101.979 15.1497
vn -0.420285 0.13519 -0.897265
v 104.977 -96.11 13.3395
vn -0.800195 0.485147 -0.352592
v 104.712 -96.0949 13.9598
vn -0.802837 0.478729 -0.355347
v 105.709 -94.5385 13.5833
vn -0.153127 -0.737906 0.657303
v 105.517 -103.396 23.8366
vn 0.492833 0.0716053 0.867172
v 111.242 -103.218 26.6327
vn 0.643914 0.0443203 0.763813
v 115.223 -107.744 22.5581
vn 0.71047 -0.101822 0.696322
v 115.369 -110.497 22.5311
vn -0.403367 0.403809 -0.821118
v 124.702 -140.586 0.12467
vn 0.940338 0.298811 0.162717
v 125.104 -127.357 8.04962
vn -0.639539 -0.232025 -0.732908
v 121.557 -149.346 0.770793
vn -0.945312 -0.326012 -0.010051
v 121.072 -149.286 1.70429
vn -0.984595 0.00545561 -0.174765
v 121.702 -143.243 5.5808
vn -0.440231 0.542495 -0.715469
v 124.607 -142.293 -0.991165
vn -0.995968 -0.0741056 -0.050562
v 122.06 -147.504 4.77787
vn 0.125485 0.847485 -0.515773
v 129.836 -142.398 0.079598
vn 0.671683 0.172015 0.720592
v 129.498 -139.473 8.35538
f 2//2 1//1 4//4
f 1//1 5//5 4//4
f 416//416 3//3 5//5
f 45//45 2//2 4//4
f 417//417 48//48 46//46
f 47//47 2//2 45//45
f 5//5 8//8 4//4
f 45//45 4//4 9//9
f 3//3 7//7 5//5
f 7//7 6//6 5//5
f 8//8 5//5 6//6
f 87//87 6//6 7//7
f 10//10 4//4 8//8
f 4//4 418//418 9//9
f 11//11 8//8 62//62
f 8//8 6//6 62//62
f 9//9 17//17 57//57
f 419//419 10//10 8//8
f 418//418 17//17 9//9
f 11//11 62//62 12//12
f 10//10 419//419 420//420
f 17//17 10//10 420//420
f 12//12 62//62 16//16
f 21//21 64//64 13//13
f 64//64 21//21 67//67
f 20//20 22//22 19//19
f 20//20 19//19 13//13
f 13//13 65//65 14//14
f 14//14 20//20 13//13
f 22//22 20//20 15//15
f 17//17 25//25 15//15
f 20//20 14//14 15//15
f 57//57 17//17 15//15
f 420//420 16//16 17//17
f 16//16 25//25 17//17
f 18//18 25//25 16//16
f 21//21 26//26 67//67
f 29//29 27//27 21//21
f 19//19 22//22 21//21
f 21//21 13//13 19//19
f 21//21 27//27 26//26
f 22//22 23//23 29//29
f 22//22 15//15 24//24
f 24//24 23//23 22//22
f 22//22 29//29 21//21
f 24//24 30//30 23//23
f 15//15 25//25 24//24
f 25//25 30//30 24//24
f 30//30 25//25 18//18
f 31//31 37//37 28//28
f 28//28 27//27 29//29
f 27//27 28//28 26//26
f 26//26 28//28 36//36
f 69//69 26//26 36//36
f 23//23 31//31 29//29
f 23//23 30//30 31//31
f 29//29 31//31 28//28
f 31//31 30//30 32//32
f 32//32 38//38 31//31
f 30//30 34//34 32//32
f 18//18 33//33 30//30
f 68//68 34//34 33//33
f 30//30 33//33 34//34
f 68//68 33//33 18//18
f 37//37 35//35 28//28
f 39//39 35//35 37//37
f 28//28 35//35 36//36
f 70//70 69//69 35//35
f 69//69 36//36 35//35
f 70//70 35//35 43//43
f 37//37 31//31 38//38
f 38//38 32//32 34//34
f 39//39 37//37 38//38
f 38//38 34//34 40//40
f 34//34 42//42 40//40
f 41//41 39//39 38//38
f 41//41 38//38 40//40
f 43//43 39//39 41//41
f 43//43 41//41 79//79
f 40//40 79//79 41//41
f 35//35 39//39 43//43
f 76//76 40//40 42//42
f 76//76 79//79 40//40
f 42//42 34//34 68//68
f 48//48 47//47 44//44
f 9//9 86//86 45//45
f 417//417 2//2 48//48
f 416//416 46//46 3//3
f 2//2 47//47 48//48
f 3//3 46//46 50//50
f 49//49 46//46 48//48
f 49//49 50//50 46//46
f 50//50 51//51 3//3
f 87//87 3//3 51//51
f 49//49 85//85 50//50
f 50//50 85//85 51//51
f 113//113 51//51 85//85
f 113//113 87//87 51//51
f 7//7 3//3 87//87
f 83//83 58//58 111//111
f 56//56 55//55 57//57
f 58//58 53//53 52//52
f 52//52 56//56 61//61
f 53//53 89//89 54//54
f 83//83 53//53 58//58
f 89//89 55//55 54//54
f 56//56 54//54 55//55
f 53//53 56//56 52//52
f 53//53 54//54 56//56
f 9//9 57//57 86//86
f 57//57 55//55 86//86
f 62//62 6//6 87//87
f 63//63 58//58 66//66
f 64//64 90//90 63//63
f 111//111 58//58 63//63
f 90//90 111//111 63//63
f 64//64 67//67 90//90
f 57//57 65//65 60//60
f 58//58 60//60 59//59
f 58//58 59//59 66//66
f 65//65 59//59 60//60
f 58//58 61//61 60//60
f 58//58 52//52 61//61
f 56//56 60//60 61//61
f 60//60 56//56 57//57
f 14//14 65//65 57//57
f 114//114 62//62 87//87
f 13//13 64//64 63//63
f 63//63 66//66 13//13
f 66//66 65//65 13//13
f 66//66 59//59 65//65
f 57//57 15//15 14//14
f 18//18 16//16 62//62
f 26//26 94//94 67//67
f 67//67 94//94 92//92
f 93//93 68//68 18//18
f 123//123 93//93 18//18
f 69//69 94//94 26//26
f 77//77 68//68 99//99
f 99//99 68//68 93//93
f 72//72 70//70 80//80
f 71//71 69//69 70//70
f 72//72 71//71 70//70
f 94//94 69//69 71//71
f 80//80 73//73 72//72
f 97//97 71//71 72//72
f 72//72 73//73 97//97
f 79//79 76//76 74//74
f 74//74 76//76 78//78
f 75//75 74//74 78//78
f 75//75 78//78 101//101
f 73//73 75//75 98//98
f 77//77 42//42 68//68
f 76//76 42//42 77//77
f 78//78 76//76 77//77
f 77//77 100//100 78//78
f 70//70 43//43 80//80
f 80//80 75//75 73//73
f 43//43 79//79 80//80
f 80//80 79//79 74//74
f 74//74 75//75 80//80
f 109//109 81//81 110//110
f 84//84 110//110 81//81
f 47//47 45//45 44//44
f 45//45 84//84 81//81
f 81//81 44//44 45//45
f 104//104 44//44 81//81
f 81//81 109//109 104//104
f 44//44 82//82 48//48
f 44//44 104//104 82//82
f 104//104 105//105 82//82
f 105//105 106//106 82//82
f 49//49 48//48 82//82
f 49//49 82//82 106//106
f 85//85 49//49 106//106
f 86//86 84//84 45//45
f 84//84 86//86 83//83
f 112//112 113//113 85//85
f 136//136 111//111 88//88
f 113//113 114//114 87//87
f 140//140 88//88 120//120
f 136//136 88//88 140//140
f 90//90 88//88 111//111
f 83//83 86//86 89//89
f 53//53 83//83 89//89
f 86//86 55//55 89//89
f 91//91 120//120 90//90
f 120//120 88//88 90//90
f 90//90 67//67 91//91
f 91//91 67//67 92//92
f 121//121 91//91 92//92
f 123//123 18//18 62//62
f 127//127 121//121 92//92
f 95//95 127//127 94//94
f 127//127 92//92 94//94
f 96//96 127//127 95//95
f 127//127 96//96 122//122
f 124//124 99//99 93//93
f 95//95 94//94 71//71
f 95//95 71//71 97//97
f 98//98 97//97 73//73
f 96//96 95//95 97//97
f 98//98 96//96 97//97
f 75//75 101//101 129//129
f 75//75 129//129 98//98
f 129//129 96//96 98//98
f 102//102 99//99 124//124
f 102//102 100//100 99//99
f 100//100 77//77 99//99
f 102//102 101//101 100//100
f 101//101 78//78 100//100
f 101//101 128//128 129//129
f 101//101 102//102 128//128
f 132//132 133//133 103//103
f 133//133 161//161 103//103
f 103//103 110//110 132//132
f 103//103 130//130 104//104
f 105//105 104//104 130//130
f 105//105 108//108 107//107
f 130//130 131//131 105//105
f 107//107 106//106 105//105
f 108//108 134//134 107//107
f 134//134 106//106 107//107
f 134//134 138//138 106//106
f 110//110 83//83 132//132
f 132//132 83//83 137//137
f 104//104 109//109 103//103
f 84//84 83//83 110//110
f 103//103 109//109 110//110
f 85//85 106//106 138//138
f 136//136 137//137 111//111
f 111//111 137//137 83//83
f 112//112 85//85 139//139
f 113//113 112//112 115//115
f 141//141 112//112 139//139
f 141//141 421//421 112//112
f 421//421 141//141 142//142
f 144//144 421//421 142//142
f 117//117 115//115 144//144
f 118//118 117//117 144//144
f 113//113 115//115 114//114
f 116//116 114//114 115//115
f 116//116 119//119 114//114
f 115//115 117//117 116//116
f 117//117 119//119 116//116
f 117//117 118//118 119//119
f 145//145 120//120 91//91
f 145//145 91//91 121//121
f 146//146 145//145 121//121
f 153//153 123//123 62//62
f 153//153 62//62 114//114
f 122//122 147//147 121//121
f 127//127 122//122 121//121
f 147//147 122//122 156//156
f 102//102 124//124 126//126
f 126//126 158//158 102//102
f 102//102 158//158 128//128
f 124//124 93//93 123//123
f 125//125 124//124 123//123
f 125//125 126//126 124//124
f 125//125 149//149 126//126
f 149//149 158//158 126//126
f 96//96 156//156 122//122
f 96//96 129//129 128//128
f 130//130 161//161 162//162
f 130//130 162//162 131//131
f 136//136 160//160 137//137
f 133//133 137//137 161//161
f 160//160 161//161 137//137
f 137//137 133//133 132//132
f 103//103 161//161 130//130
f 165//165 108//108 105//105
f 165//165 105//105 131//131
f 134//134 108//108 165//165
f 135//135 138//138 134//134
f 135//135 164//164 138//138
f 135//135 134//134 165//165
f 165//165 164//164 135//135
f 163//163 136//136 140//140
f 138//138 139//139 85//85
f 139//139 138//138 168//168
f 169//169 140//140 145//145
f 141//141 139//139 143//143
f 142//142 141//141 143//143
f 142//142 143//143 144//144
f 139//139 170//170 143//143
f 143//143 170//170 144//144
f 170//170 118//118 144//144
f 140//140 120//120 145//145
f 154//154 114//114 119//119
f 154//154 153//153 114//114
f 121//121 147//147 146//146
f 172//172 147//147 148//148
f 156//156 148//148 147//147
f 157//157 159//159 179//179
f 150//150 123//123 153//153
f 158//158 149//149 159//159
f 151//151 149//149 125//125
f 125//125 123//123 150//150
f 153//153 155//155 150//150
f 149//149 151//151 152//152
f 151//151 125//125 150//150
f 152//152 159//159 149//149
f 152//152 151//151 184//184
f 184//184 151//151 150//150
f 150//150 155//155 184//184
f 184//184 179//179 152//152
f 155//155 153//153 154//154
f 180//180 155//155 154//154
f 157//157 156//156 96//96
f 148//148 156//156 157//157
f 157//157 128//128 159//159
f 128//128 158//158 159//159
f 128//128 157//157 96//96
f 161//161 207//207 162//162
f 131//131 162//162 207//207
f 160//160 136//136 163//163
f 160//160 207//207 161//161
f 166//166 164//164 165//165
f 166//166 138//138 164//164
f 138//138 166//166 168//168
f 167//167 166//166 165//165
f 195//195 194//194 139//139
f 168//168 192//192 195//195
f 139//139 168//168 195//195
f 187//187 140//140 169//169
f 169//169 199//199 187//187
f 170//170 139//139 194//194
f 170//170 194//194 171//171
f 145//145 146//146 169//169
f 146//146 199//199 169//169
f 199//199 146//146 178//178
f 178//178 172//172 200//200
f 174//174 173//173 119//119
f 173//173 154//154 119//119
f 173//173 180//180 154//154
f 174//174 180//180 173//173
f 171//171 174//174 170//170
f 170//170 174//174 118//118
f 174//174 171//171 176//176
f 171//171 177//177 176//176
f 422//422 177//177 175//175
f 175//175 182//182 422//422
f 175//175 206//206 182//182
f 118//118 174//174 119//119
f 178//178 146//146 147//147
f 178//178 147//147 172//172
f 172//172 148//148 205//205
f 183//183 179//179 205//205
f 148//148 183//183 205//205
f 206//206 205//205 179//179
f 206//206 179//179 182//182
f 181//181 155//155 180//180
f 174//174 422//422 181//181
f 174//174 181//181 180//180
f 422//422 182//182 181//181
f 157//157 179//179 183//183
f 157//157 183//183 148//148
f 152//152 179//179 159//159
f 182//182 179//179 184//184
f 184//184 181//181 182//182
f 155//155 181//181 184//184
f 207//207 224//224 131//131
f 186//186 163//163 140//140
f 165//165 131//131 185//185
f 165//165 185//185 167//167
f 225//225 186//186 187//187
f 186//186 140//140 187//187
f 199//199 225//225 187//187
f 188//188 166//166 167//167
f 189//189 166//166 188//188
f 166//166 189//189 168//168
f 167//167 185//185 188//188
f 168//168 189//189 192//192
f 190//190 192//192 189//189
f 185//185 209//209 188//188
f 209//209 191//191 188//188
f 191//191 189//189 188//188
f 189//189 191//191 190//190
f 197//197 195//195 192//192
f 212//212 193//193 218//218
f 218//218 193//193 219//219
f 219//219 193//193 202//202
f 203//203 221//221 423//423
f 195//195 197//197 194//194
f 197//197 196//196 194//194
f 198//198 204//204 196//196
f 197//197 198//198 196//196
f 203//203 198//198 221//221
f 199//199 178//178 200//200
f 201//201 205//205 206//206
f 200//200 205//205 201//201
f 270//270 201//201 210//210
f 210//210 201//201 212//212
f 270//270 200//200 201//201
f 212//212 201//201 193//193
f 201//201 206//206 193//193
f 193//193 206//206 202//202
f 423//423 206//206 203//203
f 203//203 206//206 175//175
f 203//203 175//175 198//198
f 175//175 204//204 198//198
f 204//204 175//175 177//177
f 194//194 204//204 171//171
f 171//171 204//204 177//177
f 194//194 196//196 204//204
f 205//205 200//200 172//172
f 224//224 185//185 131//131
f 163//163 208//208 160//160
f 185//185 224//224 231//231
f 185//185 231//231 209//209
f 186//186 208//208 163//163
f 208//208 186//186 225//225
f 229//229 208//208 225//225
f 225//225 199//199 233//233
f 209//209 226//226 211//211
f 211//211 226//226 213//213
f 210//210 212//212 213//213
f 226//226 210//210 213//213
f 209//209 211//211 191//191
f 191//191 211//211 190//190
f 215//215 211//211 213//213
f 217//217 212//212 218//218
f 213//213 212//212 215//215
f 214//214 190//190 211//211
f 214//214 216//216 190//190
f 216//216 192//192 190//190
f 197//197 192//192 216//216
f 214//214 211//211 215//215
f 215//215 212//212 217//217
f 214//214 215//215 216//216
f 215//215 217//217 220//220
f 197//197 216//216 221//221
f 215//215 220//220 216//216
f 221//221 424//424 423//423
f 218//218 220//220 217//217
f 219//219 220//220 218//218
f 220//220 424//424 221//221
f 216//216 220//220 221//221
f 197//197 221//221 198//198
f 228//228 160//160 223//223
f 228//228 267//267 207//207
f 222//222 208//208 229//229
f 222//222 223//223 160//160
f 224//224 207//207 267//267
f 229//229 225//225 232//232
f 208//208 222//222 160//160
f 233//233 232//232 225//225
f 231//231 268//268 209//209
f 426//426 199//199 270//270
f 209//209 268//268 226//226
f 199//199 200//200 270//270
f 261//261 265//265 227//227
f 223//223 227//227 228//228
f 425//425 222//222 264//264
f 229//229 264//264 222//222
f 222//222 425//425 223//223
f 207//207 160//160 228//228
f 233//233 230//230 232//232
f 230//230 229//229 232//232
f 210//210 226//226 269//269
f 270//270 210//210 326//326
f 269//269 326//326 210//210
f 234//234 235//235 238//238
f 234//234 238//238 257//257
f 273//273 237//237 427//427
f 237//237 428//428 427//427
f 236//236 294//294 273//273
f 236//236 427//427 234//234
f 236//236 273//273 427//427
f 246//246 236//236 234//234
f 234//234 255//255 246//246
f 234//234 257//257 255//255
f 239//239 428//428 237//237
f 236//236 272//272 294//294
f 275//275 239//239 237//237
f 237//237 273//273 274//274
f 274//274 275//275 237//237
f 282//282 272//272 236//236
f 236//236 246//246 282//282
f 239//239 240//240 428//428
f 240//240 258//258 428//428
f 241//241 243//243 250//250
f 241//241 250//250 242//242
f 242//242 250//250 251//251
f 242//242 278//278 241//241
f 241//241 278//278 271//271
f 284//284 242//242 251//251
f 244//244 245//245 243//243
f 243//243 245//245 254//254
f 243//243 241//241 244//244
f 245//245 281//281 247//247
f 280//280 244//244 241//241
f 280//280 245//245 244//244
f 246//246 255//255 247//247
f 246//246 247//247 282//282
f 281//281 282//282 247//247
f 238//238 429//429 257//257
f 258//258 240//240 283//283
f 249//249 248//248 253//253
f 430//430 249//249 253//253
f 250//250 243//243 253//253
f 248//248 250//250 253//253
f 249//249 251//251 248//248
f 262//262 263//263 249//249
f 250//250 248//248 251//251
f 249//249 252//252 251//251
f 252//252 249//249 259//259
f 284//284 251//251 252//252
f 253//253 254//254 261//261
f 253//253 243//243 254//254
f 430//430 262//262 249//249
f 256//256 265//265 254//254
f 245//245 256//256 254//254
f 247//247 255//255 256//256
f 245//245 247//247 256//256
f 257//257 266//266 256//256
f 257//257 429//429 266//266
f 257//257 256//256 255//255
f 263//263 259//259 249//249
f 260//260 259//259 263//263
f 260//260 263//263 264//264
f 259//259 260//260 287//287
f 252//252 259//259 287//287
f 425//425 262//262 430//430
f 262//262 264//264 263//263
f 425//425 264//264 262//262
f 264//264 293//293 260//260
f 254//254 265//265 261//261
f 266//266 227//227 265//265
f 228//228 227//227 266//266
f 256//256 266//266 265//265
f 429//429 228//228 266//266
f 429//429 267//267 228//228
f 267//267 289//289 224//224
f 290//290 224//224 289//289
f 264//264 229//229 293//293
f 290//290 231//231 224//224
f 293//293 229//229 230//230
f 230//230 233//233 293//293
f 270//270 323//323 426//426
f 268//268 269//269 226//226
f 295//295 299//299 274//274
f 273//273 295//295 274//274
f 294//294 295//295 273//273
f 300//300 275//275 274//274
f 300//300 274//274 299//299
f 308//308 271//271 278//278
f 279//279 305//305 278//278
f 272//272 282//282 308//308
f 308//308 282//282 281//281
f 294//294 272//272 308//308
f 281//281 271//271 308//308
f 296//296 294//294 308//308
f 239//239 275//275 276//276
f 300//300 276//276 275//275
f 276//276 300//300 277//277
f 240//240 239//239 277//277
f 277//277 239//239 276//276
f 277//277 300//300 310//310
f 309//309 277//277 310//310
f 241//241 271//271 280//280
f 279//279 242//242 284//284
f 279//279 284//284 286//286
f 278//278 242//242 279//279
f 245//245 280//280 271//271
f 245//245 271//271 281//281
f 429//429 431//431 267//267
f 283//283 240//240 277//277
f 309//309 267//267 283//283
f 309//309 283//283 277//277
f 285//285 252//252 287//287
f 285//285 284//284 252//252
f 286//286 284//284 285//285
f 315//315 285//285 287//287
f 267//267 309//309 289//289
f 309//309 314//314 291//291
f 288//288 287//287 260//260
f 288//288 260//260 293//293
f 291//291 289//289 309//309
f 289//289 291//291 290//290
f 290//290 292//292 231//231
f 291//291 314//314 290//290
f 290//290 314//314 292//292
f 288//288 293//293 320//320
f 268//268 292//292 322//322
f 268//268 322//322 318//318
f 292//292 268//268 231//231
f 233//233 323//323 293//293
f 320//320 293//293 323//323
f 326//326 269//269 318//318
f 318//318 269//269 268//268
f 270//270 325//325 323//323
f 326//326 433//433 270//270
f 295//295 294//294 306//306
f 306//306 294//294 296//296
f 301//301 295//295 297//297
f 295//295 306//306 297//297
f 297//297 328//328 301//301
f 306//306 298//298 297//297
f 298//298 327//327 297//297
f 307//307 343//343 298//298
f 306//306 307//307 298//298
f 327//327 328//328 297//297
f 298//298 343//343 327//327
f 301//301 299//299 295//295
f 299//299 303//303 300//300
f 310//310 300//300 335//335
f 301//301 302//302 299//299
f 303//303 299//299 302//302
f 328//328 338//338 301//301
f 338//338 332//332 301//301
f 301//301 332//332 302//302
f 332//332 304//304 302//302
f 302//302 304//304 303//303
f 303//303 304//304 334//334
f 332//332 339//339 304//304
f 300//300 303//303 334//334
f 300//300 334//334 335//335
f 306//306 308//308 278//278
f 278//278 305//305 306//306
f 305//305 279//279 312//312
f 306//306 305//305 307//307
f 307//307 305//305 342//342
f 342//342 305//305 312//312
f 363//363 307//307 342//342
f 308//308 306//306 296//296
f 335//335 344//344 310//310
f 344//344 311//311 310//310
f 309//309 310//310 311//311
f 401//401 311//311 344//344
f 312//312 279//279 286//286
f 346//346 312//312 286//286
f 346//346 342//342 312//312
f 313//313 286//286 285//285
f 315//315 313//313 285//285
f 349//349 313//313 315//315
f 346//346 286//286 313//313
f 348//348 314//314 309//309
f 315//315 287//287 316//316
f 287//287 288//288 316//316
f 316//316 317//317 351//351
f 316//316 349//349 315//315
f 349//349 316//316 351//351
f 319//319 353//353 318//318
f 318//318 353//353 359//359
f 319//319 292//292 314//314
f 319//319 322//322 292//292
f 319//319 318//318 322//322
f 316//316 288//288 317//317
f 288//288 321//321 317//317
f 321//321 432//432 320//320
f 321//321 320//320 356//356
f 356//356 320//320 324//324
f 323//323 325//325 357//357
f 433//433 326//326 357//357
f 326//326 318//318 359//359
f 320//320 323//323 324//324
f 323//323 357//357 324//324
f 327//327 330//330 328//328
f 328//328 329//329 338//338
f 327//327 343//343 364//364
f 364//364 330//330 327//327
f 328//328 330//330 329//329
f 341//341 329//329 331//331
f 329//329 330//330 331//331
f 330//330 364//364 331//331
f 332//332 341//341 339//339
f 339//339 336//336 304//304
f 333//333 334//334 336//336
f 336//336 334//334 304//304
f 333//333 337//337 334//334
f 334//334 337//337 335//335
f 338//338 341//341 332//332
f 339//339 340//340 336//336
f 333//333 336//336 340//340
f 366//366 333//333 340//340
f 337//337 333//333 366//366
f 329//329 341//341 338//338
f 341//341 362//362 339//339
f 339//339 362//362 340//340
f 366//366 345//345 337//337
f 345//345 335//335 337//337
f 363//363 343//343 307//307
f 364//364 343//343 363//363
f 362//362 366//366 340//340
f 311//311 401//401 367//367
f 345//345 344//344 335//335
f 311//311 347//347 309//309
f 367//367 347//347 311//311
f 347//347 348//348 309//309
f 367//367 348//348 347//347
f 313//313 349//349 346//346
f 368//368 346//346 349//349
f 374//374 368//368 349//349
f 314//314 348//348 319//319
f 319//319 348//348 350//350
f 349//349 351//351 352//352
f 352//352 351//351 317//317
f 352//352 374//374 349//349
f 352//352 355//355 374//374
f 319//319 350//350 353//353
f 353//353 350//350 370//370
f 376//376 359//359 353//353
f 370//370 376//376 353//353
f 321//321 354//354 317//317
f 352//352 317//317 354//354
f 354//354 355//355 352//352
f 356//356 324//324 357//357
f 321//321 360//360 354//354
f 321//321 356//356 360//360
f 357//357 361//361 356//356
f 354//354 360//360 355//355
f 357//357 358//358 361//361
f 377//377 355//355 360//360
f 361//361 378//378 360//360
f 377//377 360//360 378//378
f 361//361 358//358 378//378
f 358//358 379//379 378//378
f 358//358 381//381 379//379
f 357//357 381//381 358//358
f 326//326 359//359 357//357
f 359//359 376//376 357//357
f 357//357 376//376 381//381
f 361//361 360//360 356//356
f 331//331 384//384 362//362
f 331//331 362//362 341//341
f 363//363 342//342 346//346
f 365//365 364//364 363//363
f 363//363 390//390 365//365
f 364//364 365//365 384//384
f 384//384 331//331 364//364
f 387//387 366//366 362//362
f 387//387 388//388 366//366
f 401//401 345//345 366//366
f 401//401 344//344 345//345
f 366//366 402//402 401//401
f 366//366 388//388 402//402
f 363//363 346//346 389//389
f 389//389 390//390 363//363
f 367//367 373//373 348//348
f 367//367 371//371 373//373
f 371//371 367//367 401//401
f 348//348 373//373 350//350
f 368//368 389//389 346//346
f 374//374 369//369 368//368
f 369//369 389//389 368//368
f 369//369 404//404 389//389
f 370//370 373//373 371//371
f 372//372 370//370 371//371
f 414//414 370//370 410//410
f 408//408 372//372 371//371
f 372//372 410//410 370//370
f 372//372 408//408 410//410
f 350//350 373//373 370//370
f 355//355 375//375 374//374
f 376//376 414//414 415//415
f 376//376 370//370 414//414
f 375//375 355//355 377//377
f 379//379 382//382 378//378
f 375//375 377//377 412//412
f 380//380 377//377 378//378
f 380//380 378//378 382//382
f 380//380 412//412 377//377
f 380//380 415//415 412//412
f 382//382 415//415 380//380
f 382//382 379//379 381//381
f 381//381 383//383 382//382
f 376//376 383//383 381//381
f 415//415 382//382 383//383
f 376//376 415//415 383//383
f 385//385 387//387 362//362
f 384//384 365//365 386//386
f 384//384 385//385 362//362
f 396//396 387//387 385//385
f 385//385 384//384 386//386
f 396//396 385//385 398//398
f 388//388 387//387 396//396
f 390//390 389//389 391//391
f 386//386 365//365 390//390
f 389//389 404//404 391//391
f 391//391 392//392 390//390
f 390//390 392//392 386//386
f 391//391 394//394 392//392
f 391//391 404//404 394//394
f 393//393 386//386 392//392
f 392//392 394//394 393//393
f 398//398 385//385 386//386
f 398//398 386//386 393//393
f 398//398 393//393 400//400
f 393//393 394//394 395//395
f 394//394 406//406 395//395
f 395//395 406//406 413//413
f 393//393 395//395 400//400
f 398//398 399//399 396//396
f 399//399 397//397 396//396
f 397//397 388//388 396//396
f 399//399 398//398 400//400
f 399//399 403//403 397//397
f 399//399 407//407 403//403
f 402//402 409//409 401//401
f 409//409 402//402 403//403
f 397//397 402//402 388//388
f 402//402 397//397 403//403
f 404//404 369//369 405//405
f 405//405 369//369 375//375
f 369//369 374//374 375//375
f 405//405 375//375 412//412
f 405//405 394//394 404//404
f 406//406 405//405 412//412
f 394//394 405//405 406//406
f 406//406 412//412 413//413
f 400//400 395//395 413//413
f 407//407 413//413 414//414
f 400//400 413//413 407//407
f 400//400 407//407 399//399
f 401//401 409//409 371//371
f 371//371 409//409 408//408
f 409//409 410//410 408//408
f 410//410 409//409 411//411
f 411//411 409//409 403//403
f 410//410 411//411 414//414
f 407//407 414//414 411//411
f 403//403 407//407 411//411
f 412//412 415//415 413//413
f 414//414 413//413 415//415
