# Wavafront OBJ file of BodyParts3D
# BodyParts3D, Copyright(C) 2010-2011 The Database Center for Life Science licensed under CC Attribution-Share Alike 2.1 Japan.
vn -0.551564 0.328936 0.766537
v -236.736 -138.583 743.082
vn -0.77267 -0.053278 0.632568
v -236.302 -140.393 743.956
vn -0.457663 0.284756 0.842294
v -235.715 -140.028 744.352
vn -0.992808 0.119622 -0.00477448
v -236.642 -136.97 742.273
vn -0.255952 0.52685 0.810505
v -236 -137.322 742.932
vn -0.157197 0.743378 0.650137
v -235.587 -135.688 741.568
vn -0.957062 -0.197408 0.21228
v -237.104 -141.211 741.727
vn -0.89557 0.264226 -0.357966
v -236.449 -136.683 739.815
vn -0.451861 0.787016 -0.420033
v -235.556 -136.189 739.129
vn -0.971236 -0.151171 -0.183976
v -237.062 -140.548 739.859
vn -0.411193 -0.78859 -0.457215
v -236.257 -141.659 739.211
vn -0.793912 -0.602588 0.0811883
v -236.631 -142.534 741.189
vn -0.794741 0.364691 -0.485168
v -234.5 -140.45 734.277
vn -0.332571 -0.616079 0.714033
v -233.61 -141.956 745.333
vn -0.521736 -0.00385104 0.853099
v -235.325 -140.825 744.743
vn -0.200491 0.38633 0.900307
v -234.349 -141.031 745.168
vn -0.375796 -0.138 0.91637
v -234.158 -141.46 745.303
vn -0.109929 0.714718 0.69072
v -233.183 -135.269 741.284
vn -0.638761 -0.497838 0.586636
v -235.708 -142.092 743.997
vn -0.236807 -0.914047 0.329304
v -234.854 -143.123 742.922
vn 0.0690736 -0.993774 0.0874175
v -234.439 -143.243 742.188
vn -0.13869 0.990291 0.00944967
v -232.932 -134.895 740.624
vn -0.0317877 -0.999053 0.0297153
v -235.102 -143.385 741.149
vn -0.374469 -0.792023 -0.482154
v -234.522 -143.118 740.26
vn 0.0379853 -0.999127 -0.0173686
v -234.205 -143.146 740.59
vn -0.510252 -0.859746 0.0219077
v -234.329 -143.375 734.956
vn -0.580029 -0.808176 0.10207
v -233.591 -143.931 733.267
vn -0.892374 -0.426851 -0.146513
v -233.88 -143.609 732.741
vn -0.665444 0.585639 -0.46283
v -231.741 -143.114 726.771
vn -0.942533 -0.333043 -0.0267083
v -232.597 -144.83 726.745
vn -0.183428 -0.726052 0.662723
v -231.198 -142.169 746.056
vn 0.0459075 0.951077 0.305524
v -228.688 -134.942 741.713
vn 0.189283 0.975253 -0.114249
v -228.502 -134.878 740.407
vn 0.00489016 -0.969335 0.245694
v -233.402 -142.982 743.529
vn -0.061842 -0.988701 0.13655
v -231.522 -143.043 743.057
vn 0.344216 0.871309 -0.349767
v -228.146 -135.368 739.025
vn -0.163902 0.867348 -0.46994
v -229.982 -136.299 736.149
vn -0.123436 -0.955602 0.267561
v -232.655 -144.23 733.741
vn 0.342673 0.821378 -0.455976
v -228.059 -140.351 729.22
vn -0.568316 -0.779443 0.263601
v -231.343 -147.353 725.62
vn -0.21789 0.795301 -0.565703
v -229.29 -145.043 721.986
vn -0.919985 0.271234 -0.28295
v -231.427 -147.816 721.25
vn -0.960102 0.0872275 -0.265698
v -231.306 -151.417 717.663
vn -0.74209 0.482844 -0.464935
v -230.427 -150.578 716.039
vn -0.183168 0.601092 0.777906
v -226.542 -136.297 744.097
vn 0.0605856 0.559695 0.826481
v -225.815 -137.076 744.805
vn -0.134043 0.0863729 0.987204
v -230.344 -141.771 746.323
vn 0.0145329 -0.422922 0.90605
v -229.621 -142.098 746.306
vn -0.175173 -0.935662 0.306352
v -229.561 -143.108 744.886
vn -0.127891 0.393637 0.910326
v -228.426 -140.677 746.054
vn 0.0646562 -0.0670916 0.99565
v -228.813 -141.631 746.289
vn 0.078955 -0.493732 0.866022
v -228.69 -142.383 746.005
vn -0.0172968 -0.794148 0.607479
v -228.594 -142.962 745.52
vn -0.00129691 -0.979049 0.203622
v -228.499 -143.228 744.879
vn 0.143021 0.811738 0.566238
v -226.413 -136.034 743.853
vn 0.465897 0.85842 0.214605
v -226.299 -135.884 743.387
vn 0.603049 0.783041 -0.152244
v -225.696 -136.013 741.111
vn 0.597318 0.712954 -0.367298
v -226.369 -136.617 738.768
vn 0.738961 0.582788 -0.338075
v -225.531 -137.028 739.688
vn 0.0407184 -0.997927 0.0498345
v -229.773 -143.427 739.685
vn 0.687198 0.644884 -0.33449
v -226.337 -139.235 733.929
vn 0.0965866 -0.949997 0.296946
v -228.299 -144.684 732.927
vn -0.851658 -0.406963 0.33024
v -230.582 -150.747 721.122
vn -0.679816 -0.577895 0.451538
v -229.999 -155.062 718.245
vn -0.775288 -0.508636 0.374457
v -231.264 -153.73 718.045
vn 0.0946955 0.579896 -0.809168
v -227.818 -150.323 714.982
vn -0.0469081 0.70308 -0.709562
v -227.321 -149.819 715.467
vn -0.721884 -0.690702 0.0425795
v -230.046 -155.823 716.324
vn -0.963981 -0.0827989 -0.252754
v -230.717 -153.905 715.795
vn -0.793367 -0.172632 -0.583752
v -230.275 -154.051 714.305
vn -0.870937 -0.429242 -0.239207
v -230.508 -155.29 715.71
vn -0.663787 -0.570787 -0.483312
v -230.095 -155.376 715.1
vn -0.158162 -0.559531 -0.813578
v -229.744 -154.701 714.305
vn 0.167293 -0.342252 -0.924595
v -228.726 -154.041 714.038
vn -0.866822 0.190399 -0.460834
v -230.063 -152.163 714.119
vn -0.621854 0.407213 -0.668936
v -229.874 -151.904 713.979
vn -0.68368 0.0983974 -0.723118
v -229.905 -152.382 713.835
vn -0.20087 0.638225 -0.743182
v -229.167 -151.291 714.013
vn -0.237238 0.185783 -0.953521
v -229.485 -152.276 713.597
vn -0.538284 -0.0789453 -0.839058
v -229.825 -153.113 713.81
vn 0.173556 0.427033 -0.887424
v -228.813 -151.331 714.011
vn -0.193455 -0.235259 -0.952485
v -229.563 -153.431 713.709
vn 0.215541 0.0260884 -0.976146
v -228.849 -152.534 713.638
vn 0.323044 0.232608 0.917353
v -225.864 -139.782 745.946
vn 0.593024 0.57548 0.563157
v -225.495 -137.219 744.769
vn 0.111717 -0.483611 0.868124
v -227.589 -142.414 745.952
vn 0.387437 -0.527818 0.755844
v -226.864 -142.302 745.851
vn 0.183998 -0.835394 0.517939
v -227.34 -142.91 745.416
vn 0.273284 -0.953887 0.124157
v -227.306 -143.106 744.744
vn 0.459007 -0.782741 0.420273
v -226.922 -142.805 745.337
vn 0.179094 -0.0538015 0.98236
v -226.255 -140.767 746.119
vn 0.586356 -0.171476 0.791696
v -225.488 -140.799 745.784
vn 0.774481 -0.437917 0.456517
v -224.435 -141.225 744.395
vn 0.812545 0.552347 0.186234
v -224.492 -137.283 742.436
vn 0.963693 0.266482 -0.0168261
v -223.992 -138.415 742.201
vn 0.842225 0.157775 0.515523
v -224.034 -139.39 744.267
vn 0.949407 0.26256 0.172306
v -223.783 -139.492 743.491
vn 0.986856 -0.0346648 0.157842
v -223.693 -140.016 743.363
vn 0.893793 0.398697 -0.205365
v -224.408 -137.31 741.677
vn 0.567859 -0.819195 0.0803489
v -224.697 -141.936 743.614
vn 0.960674 0.0624189 -0.270573
v -224.042 -139.855 741.002
vn 0.979759 -0.00611442 -0.200089
v -223.75 -139.974 741.811
vn 0.922046 -0.352248 -0.160475
v -223.908 -140.404 741.651
vn 0.920778 -0.389877 0.012823
v -223.791 -140.628 742.906
vn 0.994724 -0.0666046 -0.078031
v -224.824 -141.63 736.178
vn 0.812104 -0.580593 0.0583091
v -225.187 -142.313 736.157
vn 0.882005 0.420044 -0.213611
v -225.35 -139.942 735.37
vn 0.515922 -0.832856 0.200436
v -226.419 -143.639 734.976
vn 0.999544 0.0217608 0.0209389
v -224.84 -142.093 734.491
vn 0.825511 -0.524588 0.208178
v -224.924 -142.551 734.341
vn 0.521725 -0.772782 0.361402
v -224.784 -144.512 729.935
vn 0.0131602 -0.91359 0.406425
v -226.927 -145.926 730.006
vn 0.992058 0.12565 -0.00572595
v -224.358 -144.971 727.043
vn 0.992368 0.122714 0.0121011
v -224.237 -145.976 726.025
vn -0.0233646 -0.860928 0.50819
v -224.332 -149.176 723.019
vn 0.706118 0.634502 -0.314333
v -225.138 -145.183 723.768
vn 0.292672 0.817381 -0.496217
v -225.973 -146.701 719.97
vn 0.695853 0.671126 -0.255693
v -224.741 -147.355 720.603
vn 0.899377 0.419347 -0.123571
v -224.08 -148.203 720.984
vn 0.622216 0.696423 -0.357549
v -224.25 -148.615 718.129
vn 0.885118 0.45693 -0.0882093
v -223.978 -148.624 718.884
vn -0.00235588 -0.706145 0.708064
v -227.431 -153.967 718.691
vn 0.126345 -0.926385 0.35475
v -226.931 -155.064 717.286
vn -0.203278 -0.781674 0.58963
v -226.053 -154.213 718.727
vn -0.0926092 -0.934582 0.343482
v -226.155 -154.772 717.86
vn -0.0851801 0.514439 -0.853286
v -226.738 -150.403 714.954
vn -0.129192 0.404817 -0.905225
v -226.061 -150.662 714.656
vn -0.00382227 0.673022 -0.739613
v -225.554 -150.245 714.801
vn 0.329185 0.72849 -0.600782
v -224.861 -150.36 714.815
vn 0.104637 0.397658 -0.911548
v -224.927 -150.619 714.564
vn 0.223447 0.177025 -0.958506
v -224.694 -151.004 714.491
vn 0.200445 -0.863271 -0.463233
v -228.362 -155.578 715.375
vn 0.188585 -0.814757 -0.548276
v -226.464 -154.547 715.081
vn 0.189142 -0.975056 -0.11615
v -226.378 -154.978 716.058
vn 0.111102 0.33142 -0.936919
v -227.012 -151.669 714.45
vn 0.0942952 0.0936905 -0.991126
v -227.234 -152.975 714.152
vn 0.0769272 0.0645956 -0.994942
v -225.423 -152.028 714.304
vn 0.196494 -0.559343 -0.805311
v -225.757 -153.801 714.608
vn 0.895797 -0.239994 0.3741
v -223.924 -148.341 722.577
vn 0.698162 -0.280197 0.658832
v -223.736 -151.008 720.824
vn 0.464618 -0.630049 0.622229
v -223.302 -154.097 719.265
vn 0.915293 -0.0229424 0.402135
v -223.333 -150.989 720.405
vn 0.00167263 -0.46061 0.887601
v -223.36 -152.397 720.34
vn 0.986561 0.163261 0.00656535
v -223.052 -151.904 719.692
vn 0.915499 -0.12771 0.381512
v -223.027 -152.638 719.898
vn 0.903958 0.37842 -0.199144
v -223.549 -149.89 717.569
vn -0.126196 -0.736613 0.664436
v -225.044 -154.343 719.112
vn 0.116441 -0.986441 -0.11565
v -224.03 -155.229 717.187
vn 0.100301 -0.908855 0.404874
v -223.702 -155.001 718.205
vn 0.438793 -0.862045 0.25365
v -223.174 -154.945 717.76
vn 0.806887 -0.535839 0.248616
v -222.835 -154.742 717.638
vn 0.565535 -0.820577 -0.0826053
v -222.924 -154.868 717.322
vn 0.956062 0.155909 -0.248271
v -223.417 -152.367 715.34
vn 0.996766 0.00609573 -0.0801322
v -222.74 -154.608 717.181
vn 0.642113 0.376612 -0.667723
v -224.015 -151.079 714.736
vn 0.28992 -0.17606 -0.940718
v -224.275 -152.841 714.479
vn 0.109568 -0.921346 -0.372983
v -224.263 -154.5 715.319
vn 0.906186 0.0594452 -0.418681
v -223.421 -153.326 715.05
vn 0.405405 -0.853008 -0.32867
v -223.273 -154.595 715.968
vn -0.988033 0.0533754 0.144716
v -236.736 -138.583 743.082
vn -0.445477 0.534285 0.718394
v -236.642 -136.97 742.273
vn -0.768292 0.639941 0.0142368
v -236.642 -136.97 742.273
vn -0.577338 0.807642 -0.119978
v -235.587 -135.688 741.568
vn -0.679949 0.728919 -0.0796615
v -236.449 -136.683 739.815
vn -0.799433 -0.575248 -0.173195
v -236.257 -141.659 739.211
vn -0.447101 -0.783594 -0.43137
v -236.631 -142.534 741.189
vn -0.411193 -0.78859 -0.457215
v -235.102 -143.385 741.149
vn -0.00130704 -0.996522 -0.0833226
v -234.522 -143.118 740.26
vn -0.648394 -0.761188 0.0133273
v -234.522 -143.118 740.26
vn -0.809933 0.410329 -0.419092
v -232.597 -144.83 726.745
vn -0.938557 -0.279409 0.202585
v -231.427 -147.816 721.25
vn 0.00769545 -0.782652 0.622412
v -230.582 -150.747 721.122
vn -0.0740438 -0.587565 0.805782
v -230.582 -150.747 721.122
vn 0.138471 -0.75961 0.635467
v -229.999 -155.062 718.245
vn -0.985023 -0.0699243 -0.157605
v -231.264 -153.73 718.045
vn 0.159595 -0.957807 0.239029
v -230.046 -155.823 716.324
vn -0.0559019 -0.938504 -0.340714
v -230.046 -155.823 716.324
vn -0.0221727 -0.865701 -0.500071
v -230.095 -155.376 715.1
vn 0.963537 -0.203193 0.174096
v -224.784 -144.512 729.935
vn 0.609474 -0.697906 0.376124
v -226.927 -145.926 730.006
vn 0.745509 -0.537027 0.394738
v -224.237 -145.976 726.025
vn 0.801829 -0.373267 0.466628
v -224.332 -149.176 723.019
vn 0.947945 0.314132 -0.0521737
v -223.924 -148.341 722.577
vn -0.00144936 -0.768017 0.640428
v -223.736 -151.008 720.824
vn 0.0289293 -0.321707 0.946397
v -223.736 -151.008 720.824
vn 0.718186 -0.169416 0.674913
v -223.36 -152.397 720.34
vn 0.764191 -0.625646 -0.156778
v -222.74 -154.608 717.181
vn 0.272264 -0.49444 -0.825471
v -224.263 -154.5 715.319
vn 0.385668 -0.459653 -0.799987
v -223.421 -153.326 715.05
vn 0.899317 -0.182583 -0.397356
v -223.273 -154.595 715.968
vn 0.444628 -0.490392 -0.749548
v -223.273 -154.595 715.968
f 4//4 8//8 10//10
f 5//5 161//161 1//1
f 3//3 1//1 2//2
f 1//1 3//3 5//5
f 15//15 3//3 2//2
f 161//161 5//5 6//6
f 5//5 18//18 6//6
f 18//18 22//22 6//6
f 2//2 7//7 19//19
f 19//19 7//7 12//12
f 19//19 12//12 20//20
f 12//12 23//23 20//20
f 10//10 160//160 4//4
f 2//2 160//160 7//7
f 10//10 7//7 160//160
f 9//9 13//13 8//8
f 9//9 37//37 13//13
f 162//162 163//163 164//164
f 9//9 164//164 163//163
f 22//22 9//9 163//163
f 22//22 37//37 9//9
f 166//166 11//11 167//167
f 7//7 10//10 12//12
f 165//165 12//12 10//10
f 26//26 165//165 10//10
f 8//8 13//13 10//10
f 17//17 19//19 14//14
f 17//17 14//14 31//31
f 19//19 15//15 2//2
f 15//15 19//19 17//17
f 3//3 15//15 16//16
f 16//16 5//5 3//3
f 16//16 15//15 17//17
f 16//16 18//18 5//5
f 18//18 32//32 22//22
f 20//20 14//14 19//19
f 31//31 14//14 20//20
f 23//23 21//21 20//20
f 31//31 20//20 34//34
f 21//21 34//34 20//20
f 21//21 35//35 34//34
f 35//35 21//21 25//25
f 22//22 33//33 37//37
f 22//22 32//32 33//33
f 24//24 167//167 11//11
f 21//21 23//23 25//25
f 23//23 168//168 25//25
f 25//25 168//168 26//26
f 169//169 165//165 26//26
f 13//13 28//28 10//10
f 26//26 10//10 28//28
f 38//38 26//26 27//27
f 27//27 26//26 28//28
f 13//13 37//37 29//29
f 28//28 40//40 27//27
f 27//27 40//40 38//38
f 13//13 30//30 28//28
f 28//28 30//30 40//40
f 29//29 170//170 13//13
f 16//16 17//17 47//47
f 47//47 17//17 31//31
f 47//47 50//50 16//16
f 56//56 33//33 32//32
f 57//57 33//33 56//56
f 33//33 57//57 36//36
f 34//34 35//35 31//31
f 37//37 33//33 36//36
f 35//35 25//25 60//60
f 26//26 60//60 25//25
f 39//39 37//37 36//36
f 26//26 38//38 60//60
f 41//41 37//37 39//39
f 37//37 41//41 29//29
f 41//41 44//44 29//29
f 29//29 42//42 170//170
f 30//30 171//171 63//63
f 40//40 30//30 63//63
f 29//29 44//44 42//42
f 171//171 65//65 63//63
f 175//175 42//42 43//43
f 42//42 44//44 43//43
f 43//43 44//44 75//75
f 41//41 78//78 44//44
f 43//43 75//75 70//70
f 45//45 50//50 46//46
f 85//85 55//55 46//46
f 46//46 55//55 45//45
f 47//47 31//31 48//48
f 49//49 31//31 35//35
f 53//53 48//48 31//31
f 50//50 47//47 51//51
f 48//48 51//51 47//47
f 53//53 52//52 48//48
f 49//49 53//53 31//31
f 51//51 48//48 52//52
f 54//54 49//49 35//35
f 52//52 86//86 51//51
f 86//86 52//52 53//53
f 49//49 54//54 53//53
f 86//86 53//53 88//88
f 53//53 54//54 88//88
f 50//50 18//18 16//16
f 18//18 50//50 45//45
f 55//55 18//18 45//45
f 55//55 32//32 18//18
f 85//85 56//56 55//55
f 94//94 56//56 85//85
f 32//32 55//55 56//56
f 57//57 56//56 94//94
f 36//36 58//58 39//39
f 57//57 58//58 36//36
f 57//57 59//59 58//58
f 99//99 59//59 57//57
f 54//54 35//35 60//60
f 58//58 61//61 39//39
f 61//61 58//58 59//59
f 59//59 107//107 61//61
f 107//107 59//59 99//99
f 38//38 100//100 60//60
f 100//100 38//38 62//62
f 100//100 62//62 108//108
f 38//38 112//112 62//62
f 115//115 112//112 38//38
f 115//115 38//38 40//40
f 115//115 40//40 172//172
f 39//39 61//61 116//116
f 39//39 117//117 41//41
f 65//65 64//64 63//63
f 122//122 173//173 174//174
f 117//117 67//67 41//41
f 68//68 64//64 65//65
f 71//71 68//68 65//65
f 174//174 176//176 123//123
f 69//69 175//175 43//43
f 70//70 69//69 43//43
f 41//41 67//67 78//78
f 66//66 78//78 67//67
f 66//66 81//81 78//78
f 135//135 81//81 66//66
f 66//66 67//67 126//126
f 66//66 126//126 135//135
f 72//72 68//68 71//71
f 132//132 123//123 176//176
f 132//132 177//177 178//178
f 71//71 175//175 69//69
f 69//69 70//70 71//71
f 70//70 80//80 82//82
f 72//72 71//71 70//70
f 73//73 72//72 70//70
f 73//73 70//70 82//82
f 178//178 73//73 132//132
f 132//132 73//73 74//74
f 44//44 76//76 75//75
f 78//78 76//76 44//44
f 79//79 76//76 78//78
f 75//75 77//77 70//70
f 76//76 77//77 75//75
f 70//70 77//77 80//80
f 77//77 79//79 80//80
f 77//77 76//76 79//79
f 81//81 79//79 78//78
f 81//81 83//83 79//79
f 80//80 79//79 82//82
f 82//82 79//79 83//83
f 135//135 83//83 81//81
f 73//73 82//82 74//74
f 83//83 74//74 82//82
f 136//136 83//83 135//135
f 74//74 83//83 136//136
f 50//50 84//84 46//46
f 51//51 91//91 50//50
f 91//91 84//84 50//50
f 96//96 85//85 84//84
f 84//84 85//85 46//46
f 51//51 86//86 91//91
f 87//87 86//86 88//88
f 89//89 88//88 54//54
f 86//86 87//87 91//91
f 88//88 90//90 87//87
f 89//89 90//90 88//88
f 91//91 87//87 92//92
f 87//87 90//90 93//93
f 87//87 93//93 92//92
f 90//90 100//100 93//93
f 89//89 100//100 90//90
f 91//91 92//92 84//84
f 96//96 84//84 92//92
f 96//96 92//92 93//93
f 93//93 98//98 96//96
f 100//100 104//104 93//93
f 96//96 94//94 85//85
f 99//99 94//94 95//95
f 96//96 97//97 94//94
f 94//94 97//97 95//95
f 95//95 97//97 98//98
f 98//98 102//102 95//95
f 96//96 98//98 97//97
f 98//98 93//93 104//104
f 57//57 94//94 99//99
f 89//89 54//54 60//60
f 89//89 60//60 100//100
f 99//99 95//95 102//102
f 101//101 99//99 102//102
f 103//103 100//100 106//106
f 100//100 103//103 104//104
f 104//104 103//103 102//102
f 102//102 103//103 101//101
f 98//98 104//104 102//102
f 108//108 106//106 100//100
f 99//99 105//105 107//107
f 105//105 99//99 101//101
f 103//103 106//106 105//105
f 103//103 105//105 101//101
f 107//107 105//105 109//109
f 108//108 110//110 106//106
f 106//106 110//110 105//105
f 105//105 110//110 109//109
f 109//109 110//110 113//113
f 109//109 113//113 107//107
f 112//112 108//108 62//62
f 108//108 180//180 110//110
f 110//110 180//180 111//111
f 113//113 110//110 179//179
f 113//113 179//179 114//114
f 111//111 180//180 181//181
f 180//180 182//182 181//181
f 116//116 61//61 107//107
f 116//116 107//107 113//113
f 181//181 182//182 139//139
f 182//182 142//142 139//139
f 182//182 140//140 142//142
f 116//116 117//117 39//39
f 118//118 117//117 116//116
f 119//119 116//116 113//113
f 119//119 113//113 114//114
f 114//114 183//183 119//119
f 116//116 119//119 118//118
f 184//184 115//115 172//172
f 120//120 117//117 118//118
f 121//121 118//118 119//119
f 121//121 120//120 118//118
f 123//123 122//122 174//174
f 122//122 124//124 173//173
f 123//123 124//124 122//122
f 125//125 123//123 134//134
f 173//173 124//124 147//147
f 147//147 124//124 125//125
f 125//125 124//124 123//123
f 117//117 128//128 67//67
f 127//127 67//67 128//128
f 126//126 67//67 127//127
f 126//126 127//127 135//135
f 135//135 127//127 136//136
f 128//128 130//130 127//127
f 130//130 136//136 127//127
f 117//117 129//129 128//128
f 130//130 128//128 129//129
f 120//120 155//155 129//129
f 120//120 129//129 117//117
f 155//155 130//130 129//129
f 130//130 131//131 137//137
f 155//155 131//131 130//130
f 146//146 155//155 120//120
f 132//132 74//74 138//138
f 132//132 134//134 123//123
f 138//138 133//133 132//132
f 134//134 132//132 133//133
f 136//136 137//137 74//74
f 137//137 156//156 74//74
f 136//136 130//130 137//137
f 131//131 156//156 137//137
f 155//155 156//156 131//131
f 183//183 142//142 121//121
f 183//183 121//121 119//119
f 144//144 121//121 142//142
f 173//173 143//143 185//185
f 140//140 186//186 142//142
f 173//173 147//147 143//143
f 141//141 143//143 147//147
f 186//186 141//141 145//145
f 186//186 145//145 142//142
f 144//144 142//142 145//145
f 145//145 154//154 144//144
f 121//121 146//146 120//120
f 121//121 144//144 146//146
f 134//134 148//148 125//125
f 141//141 147//147 149//149
f 125//125 149//149 147//147
f 149//149 125//125 148//148
f 149//149 148//148 150//150
f 150//150 148//148 152//152
f 152//152 159//159 187//187
f 159//159 152//152 148//148
f 145//145 141//141 151//151
f 154//154 145//145 151//151
f 149//149 150//150 141//141
f 141//141 150//150 151//151
f 150//150 152//152 151//151
f 151//151 152//152 187//187
f 155//155 153//153 158//158
f 158//158 153//153 144//144
f 154//154 158//158 144//144
f 154//154 190//190 158//158
f 144//144 153//153 146//146
f 146//146 153//153 155//155
f 134//134 133//133 148//148
f 148//148 133//133 157//157
f 188//188 133//133 138//138
f 74//74 156//156 138//138
f 155//155 158//158 156//156
f 148//148 157//157 159//159
f 156//156 188//188 138//138
f 156//156 189//189 188//188
f 189//189 191//191 188//188
