# Wavafront OBJ file of BodyParts3D
# BodyParts3D, Copyright(C) 2010-2011 The Database Center for Life Science licensed under CC Attribution-Share Alike 2.1 Japan.
vn -0.922165 -0.313317 0.226814
v -264.445 -117.921 807.531
vn -0.946627 0.20426 0.249348
v -264.684 -116.976 806.989
vn -0.981537 -0.190787 -0.0136082
v -264.75 -117.603 805.69
vn -0.998446 0.000657441 0.0557206
v -264.676 -116.775 804.443
vn -0.971708 -0.22095 -0.0834553
v -264.456 -117.861 804.3
vn -0.996325 0.0425127 -0.0743616
v -265.137 -115.575 801.712
vn -0.758354 -0.257899 0.598655
v -261.231 -119.752 813.133
vn -0.840056 0.0307422 0.541628
v -262.973 -117.469 810.945
vn -0.747936 0.0945687 0.656999
v -261.646 -117.717 812.731
vn -0.879175 0.193382 0.435494
v -263.349 -116.602 810.072
vn -0.827132 0.421015 0.372289
v -263.17 -115.902 809.92
vn -0.78693 0.259795 0.559686
v -262.715 -116.35 811.065
vn -0.705709 0.502573 0.499395
v -261.727 -114.779 811.356
vn -0.739464 -0.556478 0.378847
v -261.984 -121.048 810.572
vn -0.563546 -0.799614 0.207445
v -262.121 -121.689 808.564
vn -0.309631 -0.897978 0.312672
v -261.311 -121.488 810.633
vn -0.89941 -0.10841 0.423448
v -263.533 -117.715 809.952
vn -0.757207 0.582987 0.294557
v -262.078 -112.949 807.474
vn -0.871999 0.435009 0.224465
v -264.379 -115.31 804.485
vn -0.770146 0.564998 0.296061
v -264.075 -113.165 800.81
vn -0.616008 0.648625 0.447012
v -262.654 -112.72 802.444
vn -0.800066 -0.599526 0.0215342
v -262.409 -122.962 799.539
vn -0.971148 -0.213164 -0.106921
v -262.772 -121.476 798.175
vn -0.784131 0.529941 0.322956
v -262.735 -108.613 796.234
vn -0.837562 -0.496684 -0.227586
v -262.633 -122.572 796.249
vn -0.943777 0.0892867 -0.318295
v -262.661 -122.231 796.18
vn -0.456116 -0.772749 -0.44138
v -262.107 -122.66 795.61
vn -0.667139 -0.30825 -0.678165
v -262.146 -122.37 795.288
vn -0.143134 -0.427319 0.892699
v -259.127 -119.309 814.482
vn -0.51261 -0.0770454 0.855158
v -260.234 -118.729 814.249
vn -0.122408 -0.117187 0.985537
v -258.483 -118.101 814.886
vn -0.278642 0.233869 0.931485
v -258.297 -116.657 814.868
vn -0.589604 0.337017 0.734021
v -260.466 -116.054 813.4
vn -0.508028 0.579815 0.636964
v -259.804 -113.396 812.115
vn -0.372899 -0.65968 0.652509
v -260.527 -120.448 813.245
vn -0.0734705 -0.923501 0.376495
v -259.109 -121.157 812.613
vn -0.557831 0.716457 0.418944
v -259.746 -112.225 810.798
vn 0.102731 -0.98466 0.141033
v -259.89 -121.724 810.619
vn 0.449547 -0.891247 0.0598784
v -259.633 -121.851 808.845
vn 0.371635 -0.902132 -0.219194
v -258.935 -121.426 809.268
vn -0.413664 0.839147 -0.35315
v -261.425 -112.615 807.018
vn -0.491601 0.766214 -0.413816
v -261.075 -112.091 807.61
vn -0.341485 0.694553 -0.633233
v -260.743 -112.117 807.243
vn -0.313897 0.948505 -0.0425129
v -259.084 -112.054 806.083
vn 0.0398279 -0.971098 0.235333
v -260.404 -122.279 807.179
vn 0.353144 -0.896769 0.266637
v -259.683 -122.015 807.808
vn 0.149081 -0.836287 0.527635
v -259.348 -122.083 807.449
vn -0.480486 0.87526 0.0552609
v -260.806 -112.894 805.259
vn -0.271363 0.781743 0.561463
v -259.603 -111.188 803.781
vn -0.148452 0.800538 0.580604
v -260.431 -107.738 799.638
vn -0.589143 -0.80553 0.0634933
v -261.002 -123.869 801.094
vn -0.7282 0.54011 0.421907
v -260.897 -107.159 798.357
vn -0.385676 -0.883947 -0.264368
v -260.853 -123.958 797.529
vn -0.899944 -0.0325399 -0.434789
v -261.833 -112.093 794.612
vn -0.916844 -0.103387 -0.385627
v -261.888 -120.891 795.413
vn -0.144076 -0.784615 -0.60301
v -261.767 -122.674 795.407
vn -0.209893 -0.497354 -0.841774
v -261.804 -122.377 795.118
vn -0.333237 -0.0187748 -0.942656
v -261.515 -121.693 794.847
vn -0.323902 0.106193 -0.940112
v -261.227 -120.539 795.121
vn -0.0716334 -0.0723219 -0.994806
v -259.426 -121.559 794.682
vn 0.15615 -0.733722 0.661263
v -257.341 -120.322 813.793
vn 0.220285 -0.408046 0.885987
v -256.348 -118.699 814.63
vn 0.107421 0.0541847 0.992736
v -256.13 -116.463 814.97
vn -0.291485 0.53109 0.795601
v -257.453 -113.599 813.716
vn -0.0341375 0.361194 0.931866
v -256.271 -114.773 814.526
vn -0.253195 0.741379 0.621489
v -257.363 -111.493 811.701
vn 0.118433 -0.992413 0.0330113
v -256.363 -121.742 810.824
vn 0.517748 -0.712292 0.473896
v -255.654 -120.539 812.333
vn -0.0930568 0.942723 0.320335
v -257.11 -110.85 810.755
vn -0.433984 0.861888 0.262311
v -258.987 -110.782 808.785
vn -0.0828525 0.995724 0.040857
v -257.967 -110.462 808.567
vn 0.0388028 0.99461 -0.0961543
v -256.455 -110.63 808.535
vn 0.152709 -0.906236 -0.394228
v -257.951 -121.256 809.721
vn 0.310556 -0.950424 0.0157479
v -258.316 -120.804 808.56
vn -0.194017 -0.666214 0.72008
v -258.314 -121.341 807.966
vn 0.0647813 -0.990052 -0.124905
v -257.8 -121.56 810.492
vn -0.215386 -0.780442 0.586957
v -257.947 -121.542 807.991
vn -0.263702 -0.814004 0.517551
v -257.583 -121.448 808.313
vn -0.556248 -0.761144 0.333539
v -257.18 -121.253 809.429
vn 0.127091 -0.984323 -0.122293
v -256.125 -121.375 809.307
vn -0.0800809 0.756038 -0.64961
v -258.337 -111.518 807.012
vn -0.129717 0.965982 -0.223722
v -258.357 -111.787 806.354
vn 0.120238 0.863794 -0.489287
v -256.908 -111.334 807.627
vn -0.332972 0.930228 -0.154293
v -259.045 -110.658 807.94
vn -0.257402 0.747238 -0.612683
v -259.051 -110.841 807.62
vn 0.0626548 0.854583 -0.515521
v -258.35 -110.584 807.893
vn -0.0300227 -0.748554 0.662394
v -258.304 -121.722 807.686
vn 0.149903 -0.929555 0.336834
v -256.949 -122.697 805.681
vn 0.0459329 0.998492 0.0300607
v -258.394 -111.854 805.654
vn 0.166298 0.97018 -0.176339
v -258.037 -111.931 805.654
vn 0.289415 0.951838 0.101208
v -258.056 -111.954 805.302
vn -0.0744415 0.995753 -0.0541754
v -257.686 -112.063 805.487
vn -0.03264 0.900998 0.432594
v -257.726 -111.953 804.929
vn -0.5358 0.806641 0.249498
v -257.359 -111.906 805.261
vn -0.243393 0.926954 0.28551
v -258.768 -111.831 805.293
vn 0.188652 0.964411 0.185259
v -258.419 -111.808 805.27
vn 0.107055 0.924695 0.365346
v -258.446 -111.717 804.912
vn 0.0759338 0.831968 0.549603
v -258.526 -111.241 804.102
vn 0.296193 0.895473 0.332263
v -258.086 -111.843 804.922
vn -0.538013 0.790395 0.292945
v -257.037 -111.551 805.173
vn -0.332402 0.784852 0.522987
v -257.111 -111.173 804.35
vn 0.133973 -0.950224 0.281292
v -258.382 -123.353 804.449
vn 0.196717 -0.980446 -0.0052369
v -257.75 -123.529 803.027
vn 0.191896 -0.939828 0.282664
v -257.066 -122.801 803.562
vn 0.259946 -0.838225 0.479381
v -257.071 -122.994 803.244
vn 0.2427 -0.853339 0.46142
v -256.734 -123.089 802.891
vn -0.0977779 -0.968234 0.230134
v -256.343 -122.805 803.888
vn 0.00293957 -0.947719 0.319091
v -256.374 -122.947 803.203
vn 0.0467454 -0.976864 0.208689
v -255.976 -122.759 804.22
vn 0.239797 0.875027 0.420506
v -257.872 -108.619 800.313
vn -0.309332 0.867772 -0.388955
v -259.585 -106.559 797.459
vn 0.810058 -0.563728 -0.161297
v -256.09 -121.912 798.685
vn 0.297701 -0.0730936 -0.951857
v -258.639 -112.557 794.6
vn -0.421158 -0.141151 -0.895937
v -258.314 -112.171 794.607
vn 0.024162 -0.74062 -0.67149
v -258.349 -111.866 794.358
vn -0.153732 0.815957 -0.557298
v -257.926 -108.399 793.621
vn 0.364246 -0.858254 -0.361559
v -258.845 -123.289 796.587
vn 0.155403 -0.530318 -0.833435
v -259.048 -121.868 794.774
vn 0.486288 -0.0995392 -0.868111
v -259.328 -113.032 794.293
vn -0.24266 -0.209467 -0.947227
v -259.387 -112.37 794.047
vn 0.494092 -0.439124 -0.750362
v -258.995 -112.283 794.322
vn -0.130818 -0.0568733 -0.989774
v -258.55 -114.018 794.423
vn 0.359182 -0.743176 -0.564515
v -258.745 -111.642 793.852
vn -0.162103 -0.829189 -0.534947
v -258.047 -111.589 793.838
vn -0.29783 -0.0292859 -0.954169
v -257.586 -112.921 794.154
vn -0.343486 -0.485442 -0.803967
v -257.668 -111.892 793.962
vn -0.370125 -0.227635 -0.90066
v -257.267 -112.564 794.021
vn -0.161095 -0.0804354 -0.983656
v -258.827 -110.642 793.618
vn -0.134815 -0.212645 -0.967785
v -257.581 -110.881 793.612
vn 0.439939 -0.694886 0.568848
v -255.306 -119.732 813.224
vn 0.396084 -0.643853 0.654652
v -253.582 -119.377 813.074
vn 0.37828 -0.0580758 0.923868
v -254.06 -116.42 814.366
vn 0.460247 -0.3162 0.829572
v -253.275 -118.308 813.556
vn 0.047047 0.578306 0.814462
v -255.35 -113.403 813.851
vn 0.280185 0.289905 0.915124
v -254.547 -114.682 814.294
vn 0.414651 0.529163 0.740305
v -253.315 -113.056 812.996
vn 0.160058 0.835037 0.526397
v -254.875 -111.575 812.083
vn 0.59939 -0.672396 0.434298
v -254.994 -120.807 811.286
vn 0.167789 -0.985823 -6.98089e-007
v -254.642 -119.525 812.794
vn 0.647657 -0.55441 0.522656
v -254.688 -119.474 812.07
vn 0.578447 -0.547685 0.604517
v -254.67 -120.219 811.508
vn 0.708119 -0.626086 0.326474
v -254.669 -120.482 811.204
vn -0.182554 -0.802266 0.568369
v -254.319 -119.696 812.1
vn -0.127976 -0.794933 0.593046
v -254.31 -120.329 811.515
vn 0.134776 -0.908967 0.394481
v -253.606 -120.367 811.491
vn 0.336504 -0.939086 0.0698753
v -254.736 -120.953 809.516
vn 0.308658 -0.951163 -0.00426682
v -253.389 -120.522 809.01
vn 0.373378 -0.91395 -0.159008
v -253.439 -120.418 808.275
vn -0.356973 0.931668 -0.0675617
v -255.9 -111.061 807.168
vn -0.0284227 0.932123 0.361023
v -255.805 -110.467 803.464
vn 0.83153 -0.43989 -0.339198
v -255.201 -120.611 799.45
vn 0.793379 -0.496029 -0.352853
v -255.058 -119.942 799.159
vn 0.237909 0.935318 0.261877
v -256.425 -107.401 796.42
vn 0.913919 -0.120562 -0.387579
v -255.602 -120.778 798.787
vn 0.925155 -0.318216 -0.206946
v -255.678 -120.439 798.72
vn 0.972471 -0.144788 -0.182581
v -255.709 -120.855 798.45
vn 0.975026 -0.221909 0.00899193
v -255.754 -120.937 798.111
vn 0.914333 -0.403846 0.0300736
v -255.626 -120.645 797.687
vn 0.767801 -0.634202 -0.0909394
v -255.103 -119.79 798.561
vn 0.80888 -0.587888 -0.010015
v -255.131 -119.854 797.86
vn 0.826753 -0.486785 -0.281992
v -255.408 -119.672 795.331
vn 0.423175 -0.511959 -0.747543
v -254.376 -117.609 794.501
vn 0.884367 -0.445799 -0.138414
v -254.097 -117.182 794.758
vn 0.620116 -0.259178 0.740462
v -251.272 -117.645 812.522
vn 0.562904 0.111895 0.818913
v -251.376 -115.432 812.878
vn 0.548604 -0.551706 0.628214
v -251.728 -118.829 812.164
vn 0.493573 -0.819871 0.290169
v -251.584 -119.621 810.89
vn 0.517287 0.73077 0.445409
v -250.713 -112.325 810.271
vn 0.338461 0.926393 0.165047
v -250.858 -111.706 808.509
vn 0.450496 -0.888265 -0.0896586
v -251.721 -119.989 808.11
vn 0.733138 -0.680071 -0.00357963
v -250.631 -119.169 809.681
vn 0.859059 -0.420279 -0.292205
v -251.155 -119.351 807.596
vn 0.42792 0.903722 0.0130388
v -251.336 -111.405 806.679
vn 0.970663 0.0430004 -0.236567
v -250.87 -112.111 806.089
vn 0.638777 -0.721232 -0.267934
v -252.642 -119.577 804.847
vn 0.831247 -0.0337002 -0.554881
v -251.669 -115.2 803.542
vn 0.936238 -0.10608 -0.334971
v -251.507 -115.119 803.876
vn 0.953491 -0.188073 -0.235549
v -251.442 -114.083 803.66
vn 0.871131 -0.252442 -0.421193
v -251.668 -114.516 803.381
vn 0.928354 -0.0961973 -0.359033
v -252.564 -115.47 802.565
vn 0.947149 0.126414 -0.294835
v -252.378 -116.214 802.352
vn 0.929141 -0.319232 -0.186514
v -252.49 -116.705 801.743
vn 0.985237 -0.0988877 0.13975
v -252.436 -115.67 801.527
vn 0.975834 -0.216853 -0.0268707
v -252.418 -116.082 801.254
vn 0.846087 0.0690858 -0.528548
v -251.972 -116.047 803.015
vn 0.904806 -0.203618 -0.373987
v -252.128 -116.815 802.823
vn 0.931248 -0.34675 0.111988
v -252.228 -115.381 801.101
vn 0.87683 -0.458625 0.144334
v -252.328 -114.835 802.066
vn 0.852941 -0.470423 0.22626
v -252.109 -114.96 801.366
vn 0.923099 -0.369738 -0.105747
v -251.918 -114.672 800.941
vn 0.894438 -0.419916 -0.153792
v -251.511 -113.883 802.906
vn 0.90679 -0.421423 0.0116094
v -251.458 -113.787 801.811
vn 0.977789 -0.167223 -0.126354
v -251.418 -112.85 800.9
vn 0.329313 0.89987 0.285985
v -252.826 -109.666 801.258
vn 0.875867 0.478027 0.0659284
v -251.675 -110.819 801.565
vn 0.596842 0.786396 0.159253
v -252.351 -108.832 798.324
vn 0.987026 0.142544 0.0739005
v -251.599 -109.776 796.697
vn 0.456546 0.888919 -0.0372582
v -252.221 -108.681 794.71
vn 0.494444 0.804247 -0.329714
v -252.256 -108.764 794.013
vn 0.692608 0.716716 -0.0813146
v -251.603 -109.093 794.767
vn 0.827086 0.467661 -0.311803
v -251.684 -109.238 794.085
vn 0.223856 0.942748 -0.247213
v -254.429 -107.886 793.928
vn -0.204 -0.19269 -0.95982
v -253.882 -111.86 792.625
vn 0.942697 -0.286304 -0.171324
v -251.947 -112.146 793.982
vn 0.259425 0.702538 -0.662676
v -253.725 -108.97 792.681
vn 0.409242 -0.0383391 -0.91162
v -252.945 -110.416 792.308
vn 0.639917 0.418554 -0.644452
v -252.11 -109.476 793.08
vn 0.746474 -0.16076 -0.645703
v -251.931 -110.909 793.01
vn 0.946193 0.0222954 -0.322834
v -251.572 -110.401 793.605
vn 0.772582 -0.504102 0.386002
v -249.929 -118.148 810.87
vn 0.922499 -0.31208 -0.227161
v -249.275 -116.947 809.878
vn 0.914945 -0.0744262 0.396656
v -249.056 -115.691 810.682
vn 0.807061 0.376131 0.455169
v -249.163 -114.323 810.408
vn 0.971188 0.0674696 -0.228565
v -249.194 -113.916 808.891
vn 0.790504 0.612393 0.00887154
v -249.63 -112.571 808.633
vn 0.976167 0.217017 -0.00150765
v -251.404 -109.354 795.17
vn -0.576658 0.775588 -0.256766
v -262.078 -112.949 807.474
vn -0.523422 0.813062 -0.25487
v -264.379 -115.31 804.485
vn -0.893914 0.400637 -0.201015
v -262.772 -121.476 798.175
vn -0.900261 -0.0311153 -0.434237
v -262.735 -108.613 796.234
vn -0.415453 0.842183 -0.343696
v -262.735 -108.613 796.234
vn -0.468857 0.270199 -0.840932
v -262.735 -108.613 796.234
vn -0.618608 0.745408 0.248378
v -261.075 -112.091 807.61
vn -0.0104896 -0.989916 0.141268
v -261.002 -123.869 801.094
vn -0.49662 0.854042 -0.154859
v -260.897 -107.159 798.357
vn -0.105982 0.891132 0.441193
v -260.897 -107.159 798.357
vn 0.184439 -0.982461 -0.0274372
v -260.853 -123.958 797.529
vn -0.270279 -0.0996932 -0.957607
v -261.833 -112.093 794.612
vn -0.707641 0.215518 -0.672902
v -261.888 -120.891 795.413
vn 0.242879 0.703867 -0.667519
v -256.455 -110.63 808.535
vn -0.481071 -0.732526 0.48164
v -258.316 -120.804 808.56
vn -0.0894664 -0.975265 0.202125
v -257.583 -121.448 808.313
vn 0.229829 -0.935178 -0.269481
v -257.583 -121.448 808.313
vn -0.15367 -0.98428 -0.0870509
v -257.18 -121.253 809.429
vn -0.377209 0.872832 -0.309643
v -256.908 -111.334 807.627
vn 0.467836 -0.756033 0.45776
v -257.75 -123.529 803.027
vn 0.468233 -0.872508 -0.139596
v -256.734 -123.089 802.891
vn 0.57994 -0.801277 -0.147053
v -256.374 -122.947 803.203
vn 0.772144 -0.623399 -0.123151
v -255.976 -122.759 804.22
vn 0.173278 0.917857 0.357089
v -259.585 -106.559 797.459
vn 0.406756 -0.444802 -0.797935
v -258.314 -112.171 794.607
vn -0.2685 0.0847317 -0.959546
v -257.926 -108.399 793.621
vn -0.240392 -0.330876 -0.912542
v -259.328 -113.032 794.293
vn 0.57936 -0.440071 -0.686061
v -259.387 -112.37 794.047
vn -0.119831 -0.209992 -0.970332
v -258.745 -111.642 793.852
vn 0.0246538 -0.317943 -0.947789
v -258.047 -111.589 793.838
vn 0.214943 -0.96748 -0.133351
v -255.306 -119.732 813.224
vn -0.0272452 -0.977132 0.210879
v -253.582 -119.377 813.074
vn -0.514388 -0.857104 -0.0278926
v -254.642 -119.525 812.794
vn 0.246561 -0.965516 -0.0835818
v -254.688 -119.474 812.07
vn -0.514388 -0.857104 -0.0278926
v -254.688 -119.474 812.07
vn -0.313341 -0.610882 0.727077
v -254.688 -119.474 812.07
vn -0.217399 -0.667583 0.712089
v -254.67 -120.219 811.508
vn 0.182512 -0.948886 0.257498
v -254.669 -120.482 811.204
vn -0.236366 -0.734338 0.6363
v -254.669 -120.482 811.204
vn -0.514388 -0.857104 -0.0278926
v -254.319 -119.696 812.1
vn 0.294607 -0.879344 0.374113
v -253.439 -120.418 808.275
vn 0.255768 -0.324988 -0.910475
v -254.376 -117.609 794.501
vn -0.197462 0.143793 -0.969707
v -253.725 -108.97 792.681
vn -0.234212 0.0536799 -0.970702
v -252.945 -110.416 792.308
f 17//17 10//10 2//2
f 1//1 17//17 2//2
f 10//10 11//11 2//2
f 11//11 18//18 2//2
f 2//2 3//3 1//1
f 2//2 19//19 3//3
f 2//2 18//18 19//19
f 3//3 19//19 4//4
f 3//3 4//4 5//5
f 4//4 6//6 5//5
f 19//19 6//6 4//4
f 9//9 33//33 12//12
f 30//30 33//33 9//9
f 14//14 16//16 35//35
f 17//17 14//14 7//7
f 14//14 35//35 7//7
f 7//7 8//8 17//17
f 8//8 12//12 10//10
f 17//17 8//8 10//10
f 9//9 8//8 7//7
f 12//12 8//8 9//9
f 12//12 11//11 10//10
f 12//12 13//13 11//11
f 12//12 33//33 13//13
f 1//1 3//3 15//15
f 15//15 14//14 1//1
f 14//14 17//17 1//1
f 15//15 45//45 16//16
f 14//14 15//15 16//16
f 38//38 16//16 45//45
f 13//13 18//18 11//11
f 42//42 41//41 217//217
f 5//5 23//23 3//3
f 217//217 41//41 218//218
f 48//48 218//218 41//41
f 6//6 23//23 5//5
f 20//20 24//24 6//6
f 20//20 6//6 19//19
f 19//19 21//21 20//20
f 50//50 52//52 21//21
f 3//3 22//22 15//15
f 3//3 23//23 22//22
f 24//24 20//20 21//21
f 21//21 52//52 24//24
f 23//23 25//25 22//22
f 15//15 22//22 51//51
f 22//22 25//25 53//53
f 26//26 25//25 23//23
f 55//55 23//23 6//6
f 26//26 219//219 229//229
f 6//6 54//54 55//55
f 6//6 220//220 54//54
f 27//27 53//53 25//25
f 53//53 27//27 56//56
f 28//28 27//27 25//25
f 28//28 25//25 26//26
f 26//26 229//229 28//28
f 27//27 28//28 56//56
f 56//56 28//28 57//57
f 57//57 28//28 58//58
f 28//28 229//229 58//58
f 30//30 7//7 35//35
f 29//29 31//31 30//30
f 31//31 32//32 30//30
f 29//29 30//30 35//35
f 31//31 29//29 62//62
f 35//35 61//61 29//29
f 35//35 36//36 61//61
f 30//30 9//9 7//7
f 30//30 32//32 33//33
f 31//31 63//63 32//32
f 63//63 31//31 62//62
f 33//33 34//34 13//13
f 36//36 35//35 16//16
f 36//36 16//16 38//38
f 13//13 34//34 37//37
f 37//37 18//18 13//13
f 70//70 223//223 37//37
f 223//223 70//70 84//84
f 40//40 38//38 39//39
f 39//39 45//45 46//46
f 38//38 45//45 39//39
f 40//40 39//39 74//74
f 39//39 46//46 74//74
f 46//46 47//47 74//74
f 47//47 75//75 74//74
f 43//43 41//41 42//42
f 18//18 37//37 223//223
f 43//43 81//81 41//41
f 82//82 41//41 81//81
f 44//44 41//41 82//82
f 43//43 42//42 85//85
f 85//85 81//81 43//43
f 84//84 85//85 42//42
f 15//15 102//102 45//45
f 47//47 46//46 45//45
f 47//47 45//45 102//102
f 87//87 75//75 47//47
f 87//87 47//47 88//88
f 44//44 48//48 41//41
f 48//48 44//44 95//95
f 19//19 48//48 21//21
f 95//95 21//21 48//48
f 95//95 49//49 21//21
f 97//97 49//49 95//95
f 102//102 15//15 224//224
f 103//103 102//102 224//224
f 49//49 50//50 21//21
f 225//225 111//111 221//221
f 50//50 240//240 226//226
f 111//111 116//116 221//221
f 53//53 51//51 22//22
f 227//227 103//103 224//224
f 103//103 227//227 117//117
f 222//222 242//242 228//228
f 117//117 53//53 56//56
f 117//117 56//56 118//118
f 57//57 118//118 56//56
f 229//229 59//59 58//58
f 118//118 57//57 58//58
f 59//59 229//229 228//228
f 59//59 228//228 60//60
f 60//60 58//58 59//59
f 118//118 58//58 60//60
f 62//62 29//29 61//61
f 61//61 36//36 67//67
f 67//67 68//68 61//61
f 62//62 61//61 130//130
f 130//130 61//61 68//68
f 65//65 64//64 32//32
f 64//64 33//33 32//32
f 63//63 65//65 32//32
f 134//134 64//64 65//65
f 134//134 66//66 64//64
f 65//65 135//135 134//134
f 66//66 37//37 34//34
f 64//64 34//34 33//33
f 64//64 66//66 34//34
f 36//36 38//38 76//76
f 67//67 36//36 76//76
f 140//140 130//130 68//68
f 67//67 138//138 68//68
f 68//68 138//138 140//140
f 69//69 37//37 66//66
f 70//70 37//37 69//69
f 84//84 70//70 71//71
f 69//69 71//71 70//70
f 72//72 86//86 71//71
f 72//72 71//71 69//69
f 76//76 38//38 40//40
f 73//73 67//67 76//76
f 73//73 76//76 40//40
f 67//67 73//73 74//74
f 73//73 40//40 74//74
f 79//79 231//231 78//78
f 231//231 75//75 78//78
f 78//78 75//75 77//77
f 77//77 75//75 87//87
f 74//74 234//234 67//67
f 234//234 80//80 67//67
f 232//232 80//80 234//234
f 233//233 148//148 80//80
f 146//146 67//67 80//80
f 146//146 80//80 148//148
f 82//82 89//89 44//44
f 89//89 95//95 44//44
f 83//83 82//82 81//81
f 83//83 90//90 82//82
f 90//90 89//89 82//82
f 92//92 90//90 83//83
f 149//149 92//92 235//235
f 94//94 92//92 149//149
f 72//72 149//149 235//235
f 86//86 81//81 85//85
f 84//84 71//71 86//86
f 84//84 86//86 85//85
f 86//86 230//230 83//83
f 83//83 81//81 86//86
f 77//77 87//87 88//88
f 78//78 77//77 88//88
f 88//88 47//47 102//102
f 257//257 78//78 88//88
f 109//109 257//257 88//88
f 89//89 96//96 95//95
f 90//90 91//91 89//89
f 91//91 96//96 89//89
f 90//90 92//92 91//91
f 91//91 92//92 93//93
f 101//101 93//93 94//94
f 93//93 92//92 94//94
f 100//100 94//94 149//149
f 100//100 101//101 94//94
f 97//97 98//98 49//49
f 95//95 96//96 97//97
f 49//49 98//98 50//50
f 96//96 91//91 99//99
f 97//97 96//96 99//99
f 97//97 99//99 98//98
f 91//91 93//93 99//99
f 99//99 93//93 98//98
f 50//50 98//98 93//93
f 101//101 50//50 93//93
f 149//149 150//150 100//100
f 150//150 101//101 100//100
f 50//50 101//101 150//150
f 236//236 104//104 102//102
f 88//88 102//102 104//104
f 104//104 236//236 105//105
f 106//106 105//105 236//236
f 109//109 88//88 104//104
f 109//109 104//104 107//107
f 107//107 104//104 108//108
f 108//108 104//104 105//105
f 108//108 105//105 106//106
f 238//238 237//237 112//112
f 109//109 107//107 108//108
f 239//239 238//238 112//112
f 50//50 110//110 240//240
f 50//50 150//150 110//110
f 202//202 116//116 111//111
f 110//110 153//153 240//240
f 153//153 202//202 240//240
f 237//237 103//103 117//117
f 237//237 117//117 112//112
f 112//112 117//117 161//161
f 118//118 161//161 117//117
f 112//112 161//161 158//158
f 119//119 113//113 122//122
f 121//121 113//113 119//119
f 122//122 113//113 114//114
f 113//113 121//121 241//241
f 241//241 121//121 115//115
f 121//121 123//123 115//115
f 161//161 118//118 162//162
f 118//118 60//60 258//258
f 258//258 60//60 228//228
f 258//258 228//228 122//122
f 125//125 258//258 122//122
f 122//122 228//228 243//243
f 243//243 228//228 120//120
f 121//121 119//119 244//244
f 123//123 121//121 244//244
f 245//245 120//120 228//228
f 124//124 115//115 123//123
f 122//122 114//114 125//125
f 114//114 115//115 126//126
f 115//115 124//124 126//126
f 125//125 114//114 127//127
f 127//127 126//126 129//129
f 127//127 114//114 126//126
f 246//246 129//129 126//126
f 258//258 125//125 127//127
f 242//242 128//128 228//228
f 128//128 245//245 228//228
f 129//129 128//128 242//242
f 245//245 128//128 129//129
f 246//246 245//245 129//129
f 129//129 242//242 203//203
f 62//62 131//131 133//133
f 131//131 62//62 130//130
f 247//247 139//139 248//248
f 248//248 139//139 143//143
f 132//132 135//135 63//63
f 63//63 62//62 132//132
f 62//62 133//133 132//132
f 132//132 133//133 165//165
f 65//65 63//63 135//135
f 136//136 134//134 135//135
f 134//134 136//136 137//137
f 66//66 134//134 137//137
f 69//69 66//66 137//137
f 169//169 137//137 168//168
f 69//69 137//137 169//169
f 69//69 169//169 72//72
f 137//137 136//136 168//168
f 138//138 141//141 140//140
f 146//146 138//138 67//67
f 139//139 247//247 250//250
f 141//141 138//138 142//142
f 138//138 146//146 142//142
f 256//256 249//249 251//251
f 144//144 143//143 252//252
f 144//144 252//252 253//253
f 144//144 254//254 146//146
f 144//144 253//253 255//255
f 145//145 248//248 143//143
f 145//145 143//143 144//144
f 145//145 144//144 146//146
f 145//145 146//146 147//147
f 167//167 145//145 147//147
f 72//72 169//169 173//173
f 147//147 146//146 148//148
f 167//167 147//147 170//170
f 173//173 149//149 72//72
f 239//239 151//151 148//148
f 148//148 151//151 175//175
f 149//149 173//173 150//150
f 151//151 239//239 112//112
f 151//151 182//182 186//186
f 151//151 155//155 152//152
f 154//154 155//155 151//151
f 151//151 112//112 154//154
f 155//155 159//159 152//152
f 159//159 182//182 152//152
f 151//151 152//152 182//182
f 150//150 153//153 110//110
f 157//157 112//112 158//158
f 157//157 156//156 112//112
f 112//112 156//156 154//154
f 154//154 156//156 155//155
f 156//156 157//157 155//155
f 155//155 157//157 158//158
f 155//155 158//158 160//160
f 158//158 161//161 160//160
f 160//160 159//159 155//155
f 159//159 160//160 182//182
f 182//182 160//160 161//161
f 161//161 258//258 163//163
f 127//127 129//129 203//203
f 116//116 202//202 205//205
f 199//199 205//205 202//202
f 133//133 164//164 165//165
f 165//165 164//164 212//212
f 132//132 165//165 135//135
f 165//165 136//136 135//135
f 167//167 131//131 145//145
f 131//131 167//167 166//166
f 133//133 131//131 166//166
f 166//166 167//167 210//210
f 210//210 167//167 171//171
f 133//133 166//166 164//164
f 212//212 164//164 210//210
f 164//164 166//166 210//210
f 148//148 170//170 147//147
f 170//170 148//148 175//175
f 170//170 171//171 167//167
f 170//170 172//172 171//171
f 172//172 177//177 174//174
f 211//211 172//172 174//174
f 169//169 215//215 173//173
f 215//215 174//174 173//173
f 170//170 175//175 172//172
f 180//180 179//179 176//176
f 177//177 179//179 178//178
f 176//176 179//179 177//177
f 185//185 176//176 177//177
f 174//174 177//177 178//178
f 191//191 178//178 179//179
f 174//174 178//178 191//191
f 195//195 173//173 174//174
f 172//172 175//175 186//186
f 175//175 151//151 186//186
f 172//172 186//186 177//177
f 181//181 183//183 180//180
f 181//181 186//186 182//182
f 181//181 182//182 183//183
f 187//187 188//188 183//183
f 188//188 180//180 183//183
f 188//188 187//187 189//189
f 183//183 182//182 184//184
f 187//187 183//183 184//184
f 182//182 161//161 184//184
f 185//185 180//180 176//176
f 177//177 186//186 185//185
f 179//179 180//180 191//191
f 181//181 180//180 185//185
f 188//188 191//191 180//180
f 185//185 186//186 181//181
f 190//190 189//189 187//187
f 161//161 187//187 184//184
f 190//190 187//187 161//161
f 191//191 188//188 192//192
f 188//188 189//189 192//192
f 161//161 193//193 190//190
f 190//190 192//192 189//189
f 192//192 174//174 191//191
f 193//193 174//174 192//192
f 190//190 193//193 192//192
f 150//150 173//173 194//194
f 153//153 150//150 194//194
f 194//194 173//173 195//195
f 194//194 195//195 196//196
f 174//174 193//193 195//195
f 193//193 197//197 195//195
f 194//194 196//196 153//153
f 202//202 153//153 196//196
f 196//196 195//195 197//197
f 161//161 163//163 193//193
f 197//197 193//193 204//204
f 199//199 202//202 198//198
f 198//198 196//196 200//200
f 202//202 196//196 198//198
f 200//200 201//201 199//199
f 198//198 200//200 199//199
f 199//199 201//201 207//207
f 196//196 197//197 216//216
f 197//197 204//204 216//216
f 200//200 196//196 216//216
f 204//204 209//209 216//216
f 216//216 201//201 200//200
f 201//201 216//216 209//209
f 209//209 207//207 201//201
f 193//193 163//163 204//204
f 127//127 203//203 258//258
f 163//163 258//258 204//204
f 204//204 258//258 208//208
f 206//206 208//208 258//258
f 208//208 209//209 204//204
f 242//242 259//259 260//260
f 199//199 207//207 205//205
f 207//207 206//206 205//205
f 206//206 258//258 203//203
f 203//203 242//242 260//260
f 209//209 208//208 207//207
f 207//207 208//208 206//206
f 210//210 211//211 212//212
f 171//171 211//211 210//210
f 211//211 171//171 172//172
f 212//212 211//211 214//214
f 213//213 136//136 165//165
f 214//214 215//215 213//213
f 165//165 212//212 213//213
f 212//212 214//214 213//213
f 213//213 168//168 136//136
f 168//168 215//215 169//169
f 168//168 213//213 215//215
f 211//211 174//174 214//214
f 215//215 214//214 174//174
