# Wavafront OBJ file of BodyParts3D
# BodyParts3D, Copyright(C) 2010-2011 The Database Center for Life Science licensed under CC Attribution-Share Alike 2.1 Japan.
vn -0.992054 0.0869085 0.0909709
v -311.053 -169.761 684.284
vn -0.96062 0.26646 0.0787962
v -310.942 -169.182 684.132
vn -0.576231 -0.706498 0.410875
v -310.985 -170.461 683.828
vn -0.982488 0.0201482 -0.185235
v -311.035 -170.177 683.769
vn -0.733783 -0.636342 0.237975
v -310.886 -170.586 683.233
vn -0.413449 -0.643679 0.644001
v -311.354 -181.351 675.761
vn -0.604853 -0.3752 0.702409
v -312.023 -180.106 676.177
vn -0.889718 0.456023 0.0210783
v -311.663 -179.098 676.498
vn -0.34729 -0.181839 0.919959
v -311.401 -178.957 677.036
vn -0.0323121 -0.27499 0.960904
v -308.538 -170.844 685.267
vn -0.907634 0.287336 0.306004
v -310.47 -168.642 685.023
vn -0.836251 0.522812 0.165382
v -310.381 -168.1 684.711
vn -0.279111 0.471727 0.836404
v -309.969 -167.767 684.694
vn -0.49153 -0.405604 0.770638
v -310.251 -170.168 684.872
vn -0.550666 -0.732719 0.399863
v -310.617 -170.82 683.437
vn -0.413945 -0.767876 0.488893
v -310.049 -170.51 684.617
vn -0.841803 0.53641 -0.0602722
v -310.427 -167.756 682.197
vn -0.782508 0.331141 -0.527282
v -309.827 -170.763 680.679
vn -0.406244 -0.612021 0.678525
v -309.722 -175.166 679.866
vn -0.926013 0.253574 -0.279644
v -309.673 -172.93 679.029
vn -0.937072 0.215946 0.274342
v -310.575 -177.575 677.506
vn -0.163056 -0.688427 0.70674
v -310.99 -181.303 676.001
vn -0.749482 0.481329 0.454532
v -311.27 -178.67 676.917
vn -0.301916 -0.471377 0.828644
v -311.21 -180.195 676.829
vn -0.867496 0.48107 0.12658
v -311.193 -178.437 676.578
vn -0.664955 0.236167 0.708562
v -310.888 -178.58 677.177
vn -0.800851 0.255122 0.541804
v -310.919 -178.294 677.115
vn -0.819282 0.478543 -0.31587
v -310.945 -178.345 675.3
vn -0.0817814 -0.395507 0.914815
v -309.99 -179.427 677.244
vn -0.875162 0.433558 -0.214753
v -310.167 -176.312 676.234
vn -0.0771606 -0.775567 0.626532
v -309.949 -182.643 674.637
vn -0.905711 -0.418527 -0.0672454
v -311.402 -180.887 673.523
vn -0.615359 -0.77816 0.125696
v -310.819 -182.214 673.041
vn -0.0715914 -0.290289 0.954257
v -307.953 -168.864 685.8
vn -0.186619 0.310935 0.93193
v -306.766 -168.441 685.896
vn 0.198808 -0.530791 0.823854
v -306.442 -168.696 685.986
vn 0.323169 0.849356 0.41732
v -306.486 -168.443 685.781
vn 0.0285558 -0.463714 0.885525
v -306.497 -169.513 685.387
vn 0.137215 -0.428029 0.893288
v -306.176 -169.046 685.674
vn 0.410997 0.773658 0.482218
v -306.032 -168.716 685.742
vn 0.301891 0.939418 0.162343
v -306.246 -168.466 685.409
vn 0.122754 -0.482901 0.867028
v -307.271 -171.748 684.805
vn -0.471454 0.878353 -0.0789074
v -308.087 -166.018 682.055
vn -0.401359 0.89906 -0.174937
v -308.169 -166.164 681.491
vn 0.306295 0.724312 0.617701
v -306.61 -166.299 681.883
vn 0.221075 0.874988 0.430723
v -306.731 -165.947 681.229
vn -0.336008 0.468791 -0.816905
v -307.66 -166.951 680.703
vn -0.702625 0.454937 -0.547129
v -308.845 -172.158 678.116
vn -0.269164 0.595805 -0.756682
v -307.784 -170.061 678.993
vn -0.517661 0.589342 -0.620245
v -308.116 -170.661 678.573
vn 0.098597 -0.54557 0.832245
v -307.293 -178.807 677.527
vn -0.222532 0.532574 -0.816605
v -307.804 -173.789 675.826
vn 0.334448 0.46298 -0.82085
v -307.187 -173.703 675.983
vn 0.0801289 0.626158 -0.775568
v -307.072 -171.475 677.39
vn 0.0794766 -0.694426 0.715161
v -306.87 -181.814 675.516
vn -0.113663 0.51083 -0.852134
v -308.159 -175.698 674.88
vn 0.40605 0.426655 -0.80814
v -307.281 -176.321 674.592
vn -0.595397 0.506469 -0.623691
v -308.997 -175.518 675.293
vn 0.0249197 -0.783473 0.620926
v -308.457 -182.516 674.693
vn 0.00211067 -0.999866 -0.0162099
v -308.548 -182.546 674.104
vn -0.100951 -0.994128 -0.0389606
v -308.647 -182.496 673.496
vn 0.161937 -0.825213 0.54111
v -307.576 -182.604 674.584
vn -0.308425 -0.92259 0.231734
v -307.788 -182.891 673.158
vn -0.287669 -0.929682 0.230081
v -307.146 -183.029 673.401
vn -0.0180559 -0.788425 -0.614866
v -307.055 -182.809 673.031
vn -0.244643 -0.567418 -0.786249
v -307.291 -182.432 672.672
vn -0.165637 0.453208 -0.87588
v -308.692 -179.819 672.143
vn 0.243336 -0.363396 0.899295
v -305.607 -171.304 684.816
vn 0.0603575 -0.323706 0.944231
v -305.575 -168.984 685.725
vn 0.44824 -0.287422 0.846445
v -304.718 -169.287 685.399
vn 0.267437 0.400773 0.876275
v -304.724 -168.972 685.46
vn 0.617456 -0.0502698 0.784997
v -304.456 -169.318 685.163
vn 0.684989 0.377414 0.623176
v -304.431 -169.055 684.976
vn 0.499421 -0.244818 0.831049
v -303.902 -169.656 684.796
vn 0.569962 -0.0668087 0.818951
v -303.911 -169.347 684.828
vn 0.154952 -0.601606 0.78362
v -304.473 -171.615 684.354
vn 0.259164 -0.91998 0.294059
v -304.12 -171.725 683.726
vn 0.374095 0.915464 0.148255
v -303.805 -169.128 683.681
vn 0.332296 0.723786 0.604742
v -305.249 -166.257 681.084
vn 0.42246 -0.702261 0.573024
v -304.367 -173.316 680.742
vn 0.889792 -0.313336 -0.331799
v -304.486 -173.182 680.027
vn -0.00690745 0.40518 -0.914211
v -306.228 -167.884 680.049
vn -0.0682367 0.433266 -0.898679
v -305.024 -166.586 680.518
vn 0.936678 -0.337014 -0.0951644
v -305.528 -175.538 679.337
vn 0.930539 -0.0199438 -0.365649
v -305.339 -174.157 678.68
vn 0.696096 0.317418 -0.643969
v -306.321 -171.749 677.649
vn 0.163954 0.544555 -0.822544
v -305.976 -170.176 679.06
vn 0.449649 -0.389512 0.803801
v -305.989 -178.502 677.05
vn 0.997496 -0.0274899 0.0651635
v -305.863 -178.561 676.74
vn 0.284384 -0.458292 0.842077
v -306.182 -180.45 676.517
vn 0.49728 -0.762595 0.413717
v -306.326 -181.924 675.156
vn 0.507274 -0.575919 0.641086
v -305.929 -180.933 676.086
vn 0.854902 -0.195105 0.480704
v -305.642 -180.163 676.246
vn 0.99488 0.0323503 -0.0957466
v -305.593 -180.242 675.874
vn 0.884216 -0.405726 0.231406
v -305.688 -180.897 675.737
vn 0.87349 0.225342 -0.431551
v -306.637 -176.207 675.386
vn 0.892825 -0.440424 -0.0942922
v -306.028 -181.798 674.473
vn 0.764903 0.0216104 -0.643783
v -306.341 -180.987 672.803
vn 0.690911 -0.586917 0.422102
v -302.214 -171.188 682.71
vn 0.537441 -0.823532 0.181528
v -302.156 -171.348 682.129
vn 0.606522 -0.244511 0.756535
v -302.563 -170.089 683.707
vn 0.382978 0.855436 0.34865
v -302.724 -169.255 682.942
vn 0.609183 0.649439 0.45511
v -301.92 -169.673 682.617
vn 0.426982 0.656571 0.621773
v -303.588 -167.714 681.182
vn 0.475625 -0.853189 0.214124
v -303.069 -172.014 681.809
vn 0.421146 -0.0104489 -0.906933
v -302.048 -169.714 681.12
vn 0.470406 -0.0144105 -0.882332
v -304.123 -167.991 680.136
vn -0.659748 -0.313115 0.683149
v -311.053 -169.761 684.284
vn -0.984108 -0.176969 -0.014631
v -310.985 -170.461 683.828
vn -0.956282 0.0364656 -0.290164
v -310.886 -170.586 683.233
vn -0.905711 -0.418527 -0.0672454
v -311.354 -181.351 675.761
vn -0.615359 -0.77816 0.125696
v -311.354 -181.351 675.761
vn -0.888477 -0.452794 -0.0747358
v -312.023 -180.106 676.177
vn -0.855062 0.407867 -0.320177
v -312.023 -180.106 676.177
vn -0.901222 0.200293 0.384293
v -312.023 -180.106 676.177
vn -0.789712 0.419759 0.447389
v -311.401 -178.957 677.036
vn -0.397358 -0.738786 0.544336
v -308.538 -170.844 685.267
vn -0.478711 -0.154323 0.864304
v -310.47 -168.642 685.023
vn -0.303396 0.482847 0.821468
v -310.47 -168.642 685.023
vn -0.378213 0.507876 0.773962
v -310.381 -168.1 684.711
vn -0.604728 0.788168 0.114438
v -309.969 -167.767 684.694
vn 0.251053 0.899582 0.357385
v -309.969 -167.767 684.694
vn -0.521971 0.356118 -0.775065
v -310.427 -167.756 682.197
vn -0.999777 0.0210323 -0.00189775
v -309.722 -175.166 679.866
vn -0.740617 -0.317683 0.592085
v -309.722 -175.166 679.866
vn -0.276306 -0.219405 0.93569
v -310.575 -177.575 677.506
vn -0.740617 -0.317683 0.592085
v -310.575 -177.575 677.506
vn -0.230217 -0.168725 0.958401
v -310.888 -178.58 677.177
vn -0.740617 -0.317683 0.592085
v -309.99 -179.427 677.244
vn -0.615359 -0.77816 0.125696
v -309.949 -182.643 674.637
vn 0.0128935 -0.995852 -0.090072
v -309.949 -182.643 674.637
vn -0.728369 0.385457 -0.566481
v -311.402 -180.887 673.523
vn -0.921562 -0.383621 -0.0596524
v -310.819 -182.214 673.041
vn -0.483467 0.103275 -0.869249
v -310.819 -182.214 673.041
vn -0.0806912 -0.972645 -0.217832
v -310.819 -182.214 673.041
vn 0.127738 -0.445712 -0.886016
v -310.819 -182.214 673.041
vn -0.200461 0.360016 0.911155
v -307.953 -168.864 685.8
vn 0.298886 0.630598 0.71625
v -306.766 -168.441 685.896
vn 0.109458 0.962501 0.248215
v -306.766 -168.441 685.896
vn -0.138535 0.165715 0.976395
v -306.442 -168.696 685.986
vn 0.363537 0.622936 0.69267
v -306.442 -168.696 685.986
vn 0.462128 -0.368869 0.806457
v -306.032 -168.716 685.742
vn -0.0657257 -0.17464 0.982436
v -306.032 -168.716 685.742
vn 0.267437 0.400773 0.876275
v -306.032 -168.716 685.742
vn -0.401214 -0.731103 0.55183
v -307.271 -171.748 684.805
vn 0.259706 -0.877198 0.403827
v -307.271 -171.748 684.805
vn 0.21789 0.812365 0.540914
v -308.087 -166.018 682.055
vn -0.382646 0.51872 -0.764534
v -308.169 -166.164 681.491
vn -0.18512 0.957405 -0.221599
v -306.731 -165.947 681.229
vn -0.182777 0.583762 -0.791084
v -306.731 -165.947 681.229
vn 0.139313 0.879054 -0.455913
v -306.731 -165.947 681.229
vn 0.504747 -0.620415 0.600263
v -307.293 -178.807 677.527
vn 0.818727 -0.543936 0.183901
v -307.293 -178.807 677.527
vn -0.00368189 -0.998657 0.0516747
v -308.457 -182.516 674.693
vn 0.127738 -0.445712 -0.886016
v -308.647 -182.496 673.496
vn -0.489279 -0.399978 -0.774999
v -308.647 -182.496 673.496
vn -0.185115 -0.976049 0.114284
v -307.576 -182.604 674.584
vn -0.251993 -0.622538 -0.740909
v -307.788 -182.891 673.158
vn 0.00816484 -0.860132 -0.510007
v -307.146 -183.029 673.401
vn 0.615146 -0.774706 0.146373
v -307.146 -183.029 673.401
vn 0.783161 -0.45012 -0.42901
v -307.055 -182.809 673.031
vn 0.431142 -0.203401 -0.879059
v -307.291 -182.432 672.672
vn 0.127738 -0.445712 -0.886016
v -308.692 -179.819 672.143
vn -0.459671 -0.397577 -0.794125
v -308.692 -179.819 672.143
vn 0.238082 -0.0683751 -0.968835
v -308.692 -179.819 672.143
vn 0.267437 0.400773 0.876275
v -305.575 -168.984 685.725
vn 0.425858 0.859297 0.283289
v -304.724 -168.972 685.46
vn 0.640642 -0.0189071 0.767607
v -304.724 -168.972 685.46
vn 0.593239 0.767435 0.243127
v -304.431 -169.055 684.976
vn 0.479142 0.477717 0.736348
v -303.911 -169.347 684.828
vn 0.529597 0.769472 0.356987
v -303.911 -169.347 684.828
vn 0.417056 -0.651608 0.633618
v -304.473 -171.615 684.354
vn 0.139313 0.879054 -0.455913
v -305.249 -166.257 681.084
vn 0.655788 0.736008 -0.16803
v -305.249 -166.257 681.084
vn 0.860001 -0.501781 -0.0928069
v -304.367 -173.316 680.742
vn 0.470406 -0.0144105 -0.882332
v -304.486 -173.182 680.027
vn 0.766012 -0.373943 -0.52287
v -304.486 -173.182 680.027
vn 0.139313 0.879054 -0.455913
v -305.024 -166.586 680.518
vn 0.672889 0.659738 -0.334614
v -305.024 -166.586 680.518
vn 0.394927 -0.598962 0.696618
v -305.528 -175.538 679.337
vn 0.799095 -0.440285 0.409385
v -305.528 -175.538 679.337
vn 0.518233 -0.0183282 -0.855043
v -305.976 -170.176 679.06
vn 0.83379 0.255804 -0.489243
v -305.976 -170.176 679.06
vn 0.887645 -0.220703 0.404199
v -305.989 -178.502 677.05
vn 0.988315 -0.1489 0.0326045
v -302.156 -171.348 682.129
vn 0.766012 -0.373943 -0.52287
v -302.156 -171.348 682.129
vn 0.705501 0.415219 0.574336
v -302.563 -170.089 683.707
vn 0.972103 -0.149676 0.180591
v -301.92 -169.673 682.617
vn 0.788201 0.609643 -0.0841048
v -301.92 -169.673 682.617
vn 0.71377 0.625372 -0.315345
v -303.588 -167.714 681.182
vn 0.752586 0.588755 -0.294928
v -302.048 -169.714 681.12
vn 0.766012 -0.373943 -0.52287
v -302.048 -169.714 681.12
vn 0.98992 -0.11598 -0.0812818
v -302.048 -169.714 681.12
vn 0.0566932 0.348112 -0.935737
v -304.123 -167.991 680.136
vn 0.674776 0.550957 -0.491044
v -304.123 -167.991 680.136
f 11//11 12//12 2//2
f 11//11 2//2 1//1
f 14//14 108//108 3//3
f 1//1 4//4 109//109
f 1//1 2//2 4//4
f 5//5 15//15 3//3
f 109//109 4//4 110//110
f 118//118 108//108 14//14
f 7//7 6//6 24//24
f 111//111 113//113 32//32
f 7//7 24//24 9//9
f 114//114 8//8 132//132
f 23//23 8//8 116//116
f 116//116 8//8 115//115
f 132//132 8//8 28//28
f 14//14 34//34 118//118
f 14//14 10//10 34//34
f 119//119 13//13 120//120
f 13//13 119//119 137//137
f 35//35 13//13 137//137
f 16//16 14//14 3//3
f 3//3 15//15 16//16
f 117//117 14//14 16//16
f 121//121 17//17 12//12
f 12//12 17//17 2//2
f 2//2 17//17 4//4
f 43//43 17//17 121//121
f 43//43 44//44 17//17
f 5//5 19//19 15//15
f 124//124 110//110 20//20
f 18//18 20//20 110//110
f 18//18 110//110 4//4
f 17//17 18//18 4//4
f 123//123 47//47 18//18
f 20//20 18//18 48//48
f 26//26 21//21 27//27
f 126//126 128//128 29//29
f 51//51 19//19 29//29
f 129//129 125//125 127//127
f 124//124 20//20 21//21
f 21//21 20//20 30//30
f 58//58 30//30 20//20
f 20//20 48//48 58//58
f 22//22 6//6 31//31
f 22//22 24//24 6//6
f 55//55 22//22 31//31
f 22//22 55//55 24//24
f 29//29 24//24 55//55
f 23//23 116//116 26//26
f 23//23 26//26 27//27
f 23//23 25//25 8//8
f 23//23 27//27 25//25
f 9//9 24//24 29//29
f 28//28 8//8 25//25
f 28//28 58//58 132//132
f 128//128 9//9 29//29
f 27//27 21//21 25//25
f 21//21 30//30 25//25
f 28//28 25//25 30//30
f 58//58 28//28 30//30
f 130//130 112//112 33//33
f 111//111 32//32 133//133
f 67//67 134//134 132//132
f 132//132 58//58 67//67
f 34//34 10//10 68//68
f 68//68 10//10 42//42
f 34//34 68//68 38//38
f 34//34 38//38 36//36
f 35//35 137//137 140//140
f 141//141 37//37 138//138
f 122//122 139//139 37//37
f 37//37 41//41 122//122
f 40//40 37//37 141//141
f 40//40 41//41 37//37
f 36//36 38//38 39//39
f 36//36 39//39 142//142
f 39//39 69//69 143//143
f 166//166 71//71 144//144
f 40//40 167//167 41//41
f 16//16 145//145 117//117
f 145//145 16//16 15//15
f 15//15 19//19 145//145
f 51//51 145//145 19//19
f 122//122 45//45 147//147
f 45//45 46//46 147//147
f 149//149 44//44 43//43
f 150//150 47//47 148//148
f 83//83 47//47 150//150
f 80//80 146//146 152//152
f 148//148 47//47 123//123
f 82//82 49//49 47//47
f 84//84 175//175 153//153
f 18//18 50//50 48//48
f 18//18 47//47 49//49
f 18//18 49//49 50//50
f 48//48 50//50 52//52
f 54//54 50//50 49//49
f 52//52 50//50 54//54
f 87//87 54//54 49//49
f 87//87 86//86 54//54
f 52//52 58//58 48//48
f 58//58 52//52 56//56
f 53//53 52//52 54//54
f 53//53 57//57 52//52
f 86//86 53//53 54//54
f 51//51 29//29 90//90
f 90//90 29//29 55//55
f 56//56 67//67 58//58
f 57//57 67//67 56//56
f 57//57 53//53 86//86
f 52//52 57//57 56//56
f 59//59 55//55 31//31
f 131//131 61//61 60//60
f 131//131 135//135 61//61
f 60//60 154//154 131//131
f 163//163 155//155 136//136
f 62//62 55//55 59//59
f 60//60 157//157 154//154
f 61//61 157//157 60//60
f 63//63 157//157 61//61
f 164//164 158//158 156//156
f 64//64 157//157 63//63
f 65//65 159//159 158//158
f 158//158 66//66 65//65
f 158//158 164//164 66//66
f 98//98 162//162 165//165
f 91//91 55//55 62//62
f 91//91 62//62 160//160
f 161//161 97//97 160//160
f 57//57 98//98 67//67
f 98//98 161//161 162//162
f 42//42 76//76 68//68
f 69//69 39//39 38//38
f 68//68 69//69 38//38
f 69//69 68//68 70//70
f 70//70 168//168 69//69
f 167//167 78//78 41//41
f 72//72 70//70 68//68
f 70//70 72//72 168//168
f 168//168 72//72 73//73
f 72//72 68//68 74//74
f 167//167 169//169 78//78
f 68//68 101//101 74//74
f 74//74 75//75 72//72
f 170//170 73//73 72//72
f 75//75 74//74 101//101
f 68//68 172//172 101//101
f 171//171 78//78 169//169
f 77//77 146//146 105//105
f 80//80 105//105 146//146
f 77//77 172//172 146//146
f 99//99 77//77 105//105
f 41//41 78//78 122//122
f 122//122 104//104 45//45
f 79//79 46//46 45//45
f 173//173 178//178 151//151
f 104//104 79//79 45//45
f 175//175 84//84 81//81
f 176//176 182//182 107//107
f 176//176 107//107 106//106
f 83//83 82//82 47//47
f 82//82 87//87 49//49
f 194//194 82//82 83//83
f 82//82 194//194 87//87
f 190//190 179//179 174//174
f 85//85 81//81 84//84
f 183//183 81//81 86//86
f 86//86 81//81 85//85
f 180//180 51//51 88//88
f 51//51 90//90 88//88
f 181//181 184//184 89//89
f 89//89 184//184 93//93
f 89//89 96//96 85//85
f 89//89 93//93 94//94
f 89//89 94//94 96//96
f 89//89 85//85 84//84
f 85//85 96//96 86//86
f 55//55 92//92 90//90
f 92//92 55//55 91//91
f 88//88 90//90 93//93
f 90//90 92//92 93//93
f 95//95 92//92 91//91
f 93//93 92//92 95//95
f 93//93 95//95 94//94
f 95//95 97//97 94//94
f 97//97 98//98 94//94
f 94//94 98//98 96//96
f 96//96 57//57 86//86
f 97//97 91//91 160//160
f 161//161 98//98 97//97
f 97//97 95//95 91//91
f 57//57 96//96 98//98
f 171//171 102//102 78//78
f 77//77 99//99 172//172
f 172//172 99//99 101//101
f 100//100 99//99 105//105
f 78//78 102//102 122//122
f 102//102 104//104 122//122
f 187//187 103//103 171//171
f 103//103 102//102 171//171
f 102//102 103//103 104//104
f 101//101 99//99 188//188
f 99//99 185//185 188//188
f 189//189 191//191 190//190
f 192//192 186//186 177//177
f 185//185 193//193 188//188
f 105//105 175//175 81//81
f 100//100 105//105 81//81
f 190//190 195//195 179//179
f 195//195 190//190 191//191
