# Wavafront OBJ file of BodyParts3D
# BodyParts3D, Copyright(C) 2010-2011 The Database Center for Life Science licensed under CC Attribution-Share Alike 2.1 Japan.
vn -0.849774 -0.0188259 -0.52681
v -108.784 -120.992 31.9873
vn -0.499039 0.396232 -0.770689
v -108.529 -118.51 32.6329
vn -0.942742 0.255567 -0.214297
v -108.301 -117.376 33.4366
vn -0.989901 0.0901835 -0.109378
v -108.373 -117.563 33.8267
vn -0.619096 -0.314403 -0.719633
v -109.613 -171.592 1.29114
vn -0.169148 -0.341661 -0.924476
v -108.874 -171.074 0.748621
vn -0.498947 -0.050362 -0.865168
v -108.901 -168.277 0.056119
vn 0.163388 -0.187952 -0.968493
v -107.77 -168.786 0.016253
vn -0.886919 0.0233199 -0.461335
v -110.362 -169.052 1.74908
vn -0.966405 0.254392 -0.036679
v -110.492 -168.708 2.44471
vn -0.934599 0.195604 -0.29709
v -111.047 -169.733 3.47626
vn -0.861771 0.489972 -0.131448
v -110.982 -169.423 3.88268
vn -0.949814 0.312573 -0.0123004
v -109.951 -167.943 3.88772
vn -0.248214 0.291013 -0.92396
v -107.906 -166.439 -0.142999
vn -0.882652 0.322018 -0.342389
v -110.105 -165.772 1.88474
vn -0.906723 0.421505 0.0136413
v -109.312 -164.652 2.61291
vn -0.940705 0.227847 0.251316
v -110.04 -166.321 3.24067
vn -0.947433 0.27838 0.157721
v -109.831 -166.077 3.71769
vn -0.975915 0.0995898 0.194094
v -109.875 -166.441 3.73844
vn -0.955619 0.292887 -0.0317599
v -109.779 -166.279 5.407
vn -0.826484 0.435305 -0.356979
v -109.998 -166.264 6.09281
vn -0.884257 0.085977 -0.459017
v -112.049 -165.783 9.31918
vn -0.948341 -0.0102588 -0.317087
v -112.366 -166.491 10.0409
vn -0.492813 0.576199 -0.652021
v -107.351 -162.324 1.82949
vn -0.491001 0.414998 -0.76596
v -108.868 -164.344 1.60903
vn -0.624188 0.541942 -0.56275
v -108.202 -162.78 2.20595
vn -0.824737 0.547063 -0.143283
v -108.804 -163.013 3.10762
vn -0.614986 0.739064 -0.274914
v -107.934 -162.182 2.69384
vn -0.868369 0.493209 0.0517735
v -108.898 -163.663 5.9939
vn -0.924874 0.380143 -0.00998458
v -109.052 -164.403 6.40757
vn -0.182956 0.584733 -0.790326
v -106.317 -161.954 1.57181
vn -0.353268 0.812999 -0.462854
v -106.621 -161.512 2.15289
vn 0.142135 0.817217 -0.558528
v -106.082 -161.457 2.05332
vn 0.38645 0.430875 -0.815477
v -105.594 -162.23 1.42844
vn -0.634405 0.77202 0.0389188
v -107.433 -161.738 3.747
vn -0.378017 0.917508 -0.123625
v -106.562 -161.247 2.96962
vn 0.0992311 0.973938 -0.203954
v -106.01 -161.135 2.87019
vn 0.012138 0.999667 -0.0227516
v -106.106 -161.121 3.62856
vn -0.931868 0.16461 -0.323303
v -106.083 -129.454 26.4985
vn -0.886287 0.35689 -0.29517
v -105.213 -123.802 27.0955
vn -0.263187 0.181766 -0.947467
v -106.466 -123.565 29.596
vn -0.842002 -0.224746 -0.49043
v -106.309 -124.748 29.4324
vn -0.513353 0.306258 -0.80167
v -105.767 -124.19 29.2704
vn -0.829073 0.206686 -0.519536
v -105.777 -125.635 28.6344
vn -0.879632 0.303189 -0.366502
v -105.342 -124.302 28.7172
vn -0.850102 -0.19816 -0.487913
v -107.509 -122.821 30.1133
vn -0.102173 0.332767 -0.937458
v -102.476 -123.068 24.1149
vn -0.297169 0.398214 -0.867823
v -101.457 -122.011 24.5763
vn -0.902394 0.418253 -0.103681
v -105.025 -123.298 28.7737
vn -0.770063 0.355241 -0.529912
v -105.384 -122.877 29.7334
vn -0.562255 0.251665 -0.78774
v -107.673 -122.02 30.3222
vn -0.253198 0.366147 -0.895448
v -106.741 -120.537 30.677
vn -0.232441 0.266751 -0.935315
v -107.019 -122.247 29.9853
vn -0.887393 -0.245982 0.389905
v -108.441 -119.96 35.2348
vn -0.77405 0.567901 -0.279884
v -102.159 -119.638 26.3075
vn -0.501638 0.145179 -0.852809
v -104.532 -119.479 30.2027
vn -0.841899 0.528116 -0.110902
v -103.376 -120.578 29.0354
vn -0.867346 0.403189 -0.291802
v -103.307 -120.264 29.3895
vn -0.956705 0.18234 -0.226865
v -108.646 -116.842 35.2071
vn -0.993079 -0.0108033 0.116953
v -108.541 -118.385 35.0591
vn -0.79824 -0.0647703 0.598848
v -107.693 -117.448 37.2946
vn -0.657897 0.296674 -0.692211
v -99.9496 -117.384 25.2709
vn -0.700007 0.309307 -0.643676
v -100.993 -116.136 28.1719
vn -0.697194 0.574471 -0.428839
v -99.1743 -114.378 26.154
vn -0.614241 0.369236 -0.697404
v -101.124 -115.186 28.7893
vn -0.671955 0.56184 -0.482507
v -100.183 -115.277 27.7194
vn -0.391966 0.699306 -0.597775
v -100.526 -114.033 29.399
vn -0.210274 0.935537 0.283823
v -105.105 -112.041 35.8469
vn -0.878806 0.38802 -0.277742
v -106.956 -112.935 35.2852
vn -0.888436 0.389042 -0.243575
v -107.7 -113.938 36.3976
vn -0.428078 0.903344 -0.0268209
v -106.07 -112.255 35.7965
vn -0.502633 0.764903 0.402845
v -106.494 -112.992 37.196
vn -0.593306 0.383084 0.70798
v -106.312 -113.952 38.3995
vn -0.56431 0.272106 -0.779431
v -101.669 -111.559 30.4507
vn 0.2967 0.353554 -0.887112
v -101.14 -111.231 30.3103
vn 0.458157 0.352287 -0.81608
v -100.828 -111.504 30.3214
vn -0.256956 0.965365 -0.0452006
v -100.966 -111.13 30.8076
vn -0.715154 -0.399154 -0.573787
v -111 -173.914 4.04353
vn -0.434069 -0.685955 -0.583995
v -110.395 -174.503 4.06576
vn -0.920251 -0.223051 -0.321538
v -112.765 -173.165 6.58615
vn -0.577832 -0.753829 -0.312812
v -111.025 -174.972 5.39007
vn -0.848437 -0.522492 0.0845998
v -112.912 -173.952 9.05042
vn -0.148447 -0.551345 -0.820964
v -108.193 -172.553 1.38981
vn 0.146373 -0.409105 -0.900671
v -107.401 -172.093 1.19486
vn -0.386952 -0.580329 -0.71658
v -109.55 -173.167 2.3476
vn -0.960142 0.197587 -0.197704
v -112.901 -172.035 7.17657
vn -0.879528 0.461326 0.116662
v -112.733 -170.843 9.57092
vn -0.999685 0.013557 0.0211438
v -113.168 -172.515 9.12317
vn -0.715836 0.640428 0.278263
v -112.196 -170.412 9.82982
vn -0.903714 -0.0450889 0.425757
v -112.714 -172.536 11.1619
vn -0.915788 0.320841 -0.241648
v -111.676 -169.153 7.52303
vn -0.929638 0.102795 -0.353846
v -111.734 -168.446 8.21431
vn -0.964752 0.25975 -0.042231
v -112.106 -169.896 8.99967
vn -0.999046 0.0397631 -0.018055
v -112.005 -169.219 9.37982
vn -0.903391 0.0062361 0.428772
v -111.563 -168.852 11.374
vn 0.459882 0.118088 -0.880093
v -105.485 -165.977 0.610363
vn -0.631669 0.71848 -0.291169
v -110.368 -164.861 8.55243
vn -0.524906 0.841892 -0.12527
v -111.852 -165.562 10.0594
vn -0.849421 0.527416 0.0177698
v -111.333 -165.1 10.8754
vn -0.903698 0.180612 0.388213
v -111.548 -166.58 11.3481
vn -0.875446 0.167604 0.453324
v -110.969 -165.113 13.179
vn 0.709473 0.301213 -0.637118
v -104.077 -166.279 1.6789
vn 0.771075 0.473828 -0.425359
v -103.764 -163.775 3.71131
vn -0.827301 0.532607 -0.178613
v -108.157 -162.419 8.717
vn 0.622191 0.758529 -0.193679
v -104.803 -161.986 2.46312
vn -0.391256 0.91592 -0.0894976
v -106.511 -161.138 5.02665
vn 0.453132 0.888501 -0.0723633
v -105.635 -161.198 4.32294
vn 0.748052 0.651923 -0.124155
v -105.12 -161.677 3.87045
vn 0.481203 0.848377 -0.22068
v -105.319 -161.227 5.19921
vn -0.715367 0.666414 -0.210099
v -107.007 -161.139 7.18492
vn -0.117811 0.899843 -0.420004
v -105.911 -160.414 6.9173
vn 0.796882 0.490937 -0.352079
v -104.927 -160.62 7.11312
vn -0.876349 0.481644 0.00558841
v -109.57 -162.22 12.7616
vn -0.788123 0.530972 -0.311338
v -108.644 -161.075 12.7487
vn -0.856807 0.437519 -0.272872
v -109.065 -161.009 13.7181
vn -0.947381 0.309019 -0.0835193
v -109.207 -161.03 14.4536
vn -0.624419 0.62452 -0.469123
v -106.454 -159.314 9.31504
vn -0.15809 0.619701 -0.768751
v -105.599 -156.138 11.8556
vn -0.678318 0.498589 -0.539717
v -106.046 -156.356 12.0301
vn -0.88505 0.315576 -0.342197
v -108.123 -157.016 15.3877
vn -0.552113 0.475002 -0.685233
v -105.635 -151.906 14.9622
vn -0.414113 0.442086 -0.795657
v -105.51 -149.451 16.3516
vn -0.658723 0.333108 -0.674628
v -105.249 -145.227 18.4087
vn -0.119508 0.396547 -0.910202
v -104.74 -145.038 18.275
vn -0.960382 0.158503 -0.229223
v -106.909 -142.372 22.7824
vn -0.413111 0.280778 -0.866316
v -104.549 -136.389 21.7612
vn 0.338483 0.252699 -0.906406
v -102.613 -136.771 21.6029
vn -0.989323 -0.0745972 0.125202
v -106.27 -129.039 30.4175
vn -0.967267 -0.234325 -0.0973964
v -106.748 -126.64 31.0523
vn -0.0579959 0.162809 -0.984952
v -100.444 -126.842 23.4047
vn 0.067215 0.0568279 -0.996119
v -98.9507 -123.302 23.6765
vn -0.31538 0.0774303 -0.945801
v -103.892 -121.614 30.0367
vn -0.428036 -0.200513 -0.881238
v -97.6227 -117.808 24.2404
vn -0.192947 -0.0620749 -0.979244
v -97.1443 -118.003 24.0517
vn -0.378189 -0.0116921 -0.925655
v -97.3444 -116.765 23.8607
vn 0.176894 -0.274113 -0.945288
v -95.3419 -115.654 23.67
vn 0.402523 0.825297 0.396055
v -101.758 -114.039 36.8418
vn 0.0375304 0.80297 0.594837
v -105.457 -113.294 38.2511
vn -0.5061 0.380745 -0.773884
v -95.907 -113.554 23.8809
vn -0.211902 0.546185 -0.810419
v -95.2577 -113.047 23.788
vn -0.314169 0.731539 -0.605102
v -95.7654 -112.216 25.0159
vn -0.106201 0.130864 -0.985696
v -95.2703 -113.774 23.5431
vn 0.310189 0.375253 -0.87348
v -94.6751 -113.27 23.6831
vn 0.191306 0.708356 -0.679436
v -94.6785 -112.725 24.0859
vn 0.333748 -0.0422724 -0.941714
v -94.2209 -114.211 23.6817
vn 0.653887 0.0965244 -0.75041
v -93.5554 -114.143 24.0885
vn 0.664433 0.445955 -0.599711
v -93.465 -112.94 24.8251
vn -0.676201 0.720382 -0.15428
v -98.9241 -112.95 29.7903
vn -0.461301 0.887153 0.0126475
v -97.2033 -111.596 28.1751
vn 0.571816 0.79414 -0.205836
v -99.7019 -112.171 30.8667
vn -0.410094 0.749801 -0.51925
v -99.1926 -112.593 30.8115
vn 0.465747 0.829251 0.308906
v -99.3236 -112.371 31.5225
vn 0.379511 0.912619 0.151978
v -98.8887 -112.574 31.3954
vn 0.384404 0.770299 0.508795
v -98.8676 -112.835 31.8497
vn -0.0296192 0.983323 0.179441
v -98.0085 -112.622 30.693
vn 0.294795 0.81191 0.503883
v -97.4803 -112.925 31.0417
vn 0.379 0.774899 0.505856
v -99.3426 -113.746 33.3216
vn 0.2797 0.693124 -0.66434
v -93.8863 -111.751 25.6493
vn 0.37301 0.63829 -0.673386
v -93.5424 -111.332 26.1162
vn 0.0783191 0.792986 -0.604185
v -95.3677 -110.998 26.3166
vn 0.150646 0.894134 0.421699
v -95.3036 -111.134 27.5964
vn 0.426177 0.859139 0.283291
v -94.1682 -111.024 26.6149
vn 0.0247959 -0.744107 -0.667601
v -106.471 -175.02 3.16733
vn -0.325928 -0.830346 -0.451991
v -109.45 -175.387 4.73359
vn -0.243911 -0.730563 -0.637798
v -108.498 -174.94 3.58696
vn -0.299157 -0.929034 -0.217719
v -109.137 -175.747 5.37218
vn -0.179952 -0.88104 -0.437477
v -108.234 -175.74 4.67567
vn -0.384169 -0.911333 0.147943
v -111.14 -175.347 9.4528
vn -0.563802 -0.60802 0.558963
v -111.742 -173.986 11.3738
vn -0.6488 -0.128813 0.749977
v -111.088 -171.899 13.2703
vn -0.882926 0.312356 0.350536
v -111.471 -170.485 12.1206
vn 0.433333 -0.0669921 -0.898741
v -103.438 -169.576 1.75232
vn 0.653054 0.0252044 -0.756892
v -101.857 -168.02 2.52256
vn 0.530755 0.329781 -0.780733
v -103.269 -167.014 1.97313
vn -0.653124 -0.0636512 0.754571
v -109.173 -166.761 14.7447
vn 0.536292 0.57715 -0.615864
v -102.92 -165.049 3.5573
vn 0.721001 0.619189 -0.311066
v -103.05 -164.424 4.21366
vn 0.718893 0.521389 -0.459725
v -101.541 -165.809 3.64415
vn -0.751851 0.137718 0.644789
v -109.767 -164.177 14.0818
vn 0.0702853 0.762529 -0.643125
v -104.773 -158.876 9.53249
vn -0.976925 -0.0307726 0.211352
v -108.503 -157.51 17.6779
vn 0.460006 0.513464 -0.724395
v -104.295 -156.656 11.7969
vn 0.0405727 0.531918 -0.845824
v -104.877 -152.593 14.2705
vn 0.54786 0.403701 -0.732718
v -103.809 -152.362 14.8668
vn -0.777671 -0.251004 0.57639
v -107.559 -151.923 22.3675
vn 0.204389 0.438023 -0.87542
v -104.108 -148.539 16.7274
vn 0.240823 0.363495 -0.899931
v -104.042 -145.671 18.0223
vn 0.593731 0.304819 -0.744693
v -102.353 -147.51 18.2294
vn -0.640481 -0.284884 0.71318
v -106.511 -141.181 27.8789
vn -0.984759 0.00545437 0.17384
v -106.887 -139.838 27.3667
vn -0.728039 -0.353504 0.587362
v -104.727 -127.84 34.841
vn 0.320766 -0.323998 -0.890019
v -98.2317 -125.562 24.3832
vn 0.484444 -0.30136 -0.821277
v -96.5435 -125.505 24.5874
vn 0.537093 -0.127399 -0.833847
v -95.9398 -123.107 24.7084
vn 0.388895 -0.274636 -0.879395
v -94.412 -116.485 24.3989
vn 0.528658 -0.329176 -0.782409
v -94.0063 -115.871 24.2194
vn 0.697832 -0.307247 -0.647016
v -93.4785 -116.966 25.378
vn 0.835983 -0.0136474 -0.548585
v -93.1244 -114.375 24.6391
vn 0.787839 0.242556 -0.566106
v -93.0168 -112.992 25.4804
vn 0.837825 -0.0395861 -0.544502
v -92.5147 -113.275 26.2418
vn 0.609664 0.476041 -0.633794
v -93.2645 -112.517 25.5163
vn 0.712115 0.196097 -0.674121
v -92.4138 -112.559 26.25
vn 0.52917 0.833476 0.159048
v -92.5233 -111.927 26.8793
vn 0.738378 0.66084 -0.134493
v -92.115 -112.341 26.6395
vn 0.891576 0.0934852 -0.443117
v -91.7578 -112.907 27.0463
vn 0.300272 0.789263 0.535632
v -92.0459 -112.356 27.2145
vn 0.339137 -0.904122 -0.259903
v -104.698 -176.125 5.1657
vn -0.107632 -0.974568 -0.19655
v -106.467 -176.527 6.22143
vn 0.202149 -0.978705 0.0356714
v -105.9 -176.588 7.37841
vn -0.0116507 -0.992328 0.123084
v -106.644 -176.534 8.56798
vn -0.00660326 -0.912188 0.409719
v -106.614 -176.173 10.1715
vn -0.228807 -0.764814 0.602251
v -109.994 -174.635 11.6655
vn 0.454825 -0.547973 -0.70204
v -103.781 -174.134 3.12112
vn 0.341511 -0.738041 -0.58195
v -104.288 -175.146 3.86022
vn 0.756134 -0.61296 -0.229219
v -103.659 -175.079 4.41481
vn -0.19435 -0.56892 0.799098
v -110.114 -173.023 13.0237
vn 0.487551 -0.277987 -0.827658
v -102.749 -171.83 2.51066
vn 0.870893 -0.338421 -0.356392
v -102.193 -171.738 3.10507
vn 0.924576 -0.329556 0.191185
v -102.327 -172.247 4.83033
vn 0.940129 -0.160108 0.300869
v -102.401 -169.535 8.11102
vn -0.263521 -0.101911 0.959255
v -107.414 -167.209 15.8588
vn 0.12947 -0.0752419 0.988725
v -106.67 -167.51 15.8748
vn 0.889006 -0.0675556 -0.452885
v -100.948 -167.383 3.78659
vn 0.989932 0.010659 0.141145
v -100.824 -167.575 5.10898
vn 0.93413 0.354821 0.0387693
v -102.047 -164.875 6.49259
vn 0.949697 -0.0035004 0.313151
v -102.151 -166.578 7.87601
vn 0.246478 -0.33233 0.910388
v -105.658 -165.305 16.2694
vn -0.215711 -0.318399 0.923088
v -106.783 -165.237 16.319
vn 0.981382 -0.112819 0.155441
v -102.818 -162.994 12.3294
vn -0.614421 -0.287018 0.734921
v -107.073 -162.323 17.5046
vn 0.324715 -0.494437 0.806283
v -105.178 -162.631 17.8161
vn 0.7737 0.461949 -0.433579
v -102.719 -161.711 10.5889
vn 0.869194 0.171822 -0.463659
v -102.163 -154.509 15.6083
vn 0.971882 -0.194556 0.132638
v -101.725 -155.627 17.3266
vn -0.168762 -0.464804 0.869182
v -105.203 -155.195 22.5793
vn -0.419326 -0.360745 0.833084
v -105.695 -143.746 27.521
vn 0.852053 0.067401 -0.519097
v -99.998 -138.874 24.3446
vn -0.205986 -0.43731 0.875403
v -103.143 -134.665 32.2716
vn 0.877306 -0.136283 -0.460175
v -99.5293 -134.199 24.9474
vn -0.131431 -0.577035 0.806075
v -101.425 -129.617 35.373
vn 0.447283 -0.33144 -0.830714
v -97.3291 -128 26.0625
vn 0.912366 -0.384636 -0.140156
v -97.0611 -129.384 28.1045
vn -0.593676 -0.495211 0.634283
v -103.448 -126.653 36.4999
vn -0.286923 -0.718412 0.633688
v -101.279 -127.611 37.301
vn 0.871554 -0.394925 -0.290564
v -94.9155 -125.22 26.4363
vn -0.59329 -0.34936 0.725227
v -101.643 -125.421 39.459
vn 0.809164 -0.278722 -0.51727
v -94.3172 -121.628 26.0493
vn 0.904105 -0.426135 0.0316824
v -94.143 -122.75 27.7345
vn 0.827302 -0.532357 -0.179356
v -93.7382 -122.099 28.276
vn 0.911253 -0.294905 0.287487
v -95.2001 -123.984 30.1314
vn 0.826383 -0.525557 0.202192
v -94.8368 -123.342 29.8534
vn 0.775742 -0.537643 0.3304
v -94.9487 -123.333 30.1949
vn 0.705754 -0.693933 0.142719
v -94.6171 -123.061 29.9459
vn 0.63778 -0.676264 0.368651
v -94.7333 -123.05 30.2847
vn 0.742626 -0.668643 -0.0377168
v -93.9741 -122.467 29.0651
vn 0.841904 -0.514661 -0.162243
v -92.7259 -121.041 28.7529
vn 0.849851 -0.228795 -0.474769
v -92.2485 -119.261 28.0409
vn 0.634766 0.455983 0.62382
v -94.0163 -116.911 33.995
vn -0.537544 -0.145375 0.83061
v -101.424 -117.035 41.7647
vn 0.226814 0.799549 0.556126
v -91.231 -114.083 29.5479
vn 0.934519 0.0500254 -0.352381
v -90.7293 -114.722 29.5163
vn 0.964927 -0.250332 -0.0790536
v -90.9994 -116.473 29.1756
vn 0.89657 -0.0883687 0.433997
v -90.9347 -115.098 30.2609
vn 0.668587 0.509214 0.541933
v -90.9884 -114.619 30.1676
vn 0.377164 0.757152 0.533356
v -94.3872 -115.74 33.2182
vn 0.860527 0.50762 0.0425975
v -91.2189 -113.654 28.4557
vn 0.656269 -0.688804 0.307994
v -104.614 -175.677 10.0557
vn 0.924039 -0.104549 0.367725
v -104.628 -174.945 10.3612
vn 0.199765 -0.675488 0.709796
v -105.73 -174.691 12.1314
vn 0.771508 -0.366662 0.519936
v -105.347 -174.103 12.2805
vn 0.559734 -0.560722 0.610155
v -105.561 -172.981 13.2345
vn 0.731265 -0.553678 0.398362
v -104.757 -172.503 12.8277
vn 0.823901 -0.362258 0.435839
v -104.004 -171.365 13.531
vn 0.254039 -0.540534 0.802051
v -105.439 -170.953 15.0856
vn 0.854315 -0.0129336 0.519595
v -104.336 -169.803 14.3593
vn 0.0348401 -0.195308 0.980123
v -106.186 -169.229 15.953
vn 0.640038 -0.168332 0.749677
v -104.938 -170.036 15.261
vn 0.555818 -0.0661813 0.828666
v -105.398 -167.223 15.5038
vn 0.792997 -0.245569 0.557541
v -104.616 -166.344 14.9734
vn 0.983993 -0.150809 -0.0949406
v -98.9575 -136.643 27.9293
vn 0.884833 -0.406947 0.226859
v -97.7378 -129.935 31.5207
vn 0.0881345 -0.533129 0.841431
v -100.24 -130.047 34.8992
vn 0.903823 -0.346923 0.250494
v -96.6873 -127.82 32.6122
vn 0.249465 -0.744992 0.618672
v -100.135 -128.356 36.3753
vn -0.461968 -0.619448 0.634721
v -101.064 -126.389 39.245
vn -0.0738148 -0.744137 0.663936
v -100.73 -126.358 39.4427
vn 0.925106 -0.275636 0.261157
v -97.0003 -125.291 34.9598
vn 0.760415 -0.469013 0.449217
v -97.8568 -126.602 36.2597
vn -0.236407 -0.501532 0.832212
v -100.73 -125.828 39.83
vn -0.278924 -0.274087 0.920368
v -99.3295 -121.7 42.0576
vn 0.0595096 -0.456423 0.88777
v -98.3272 -122.83 41.764
vn 0.514951 -0.334171 0.789402
v -97.7642 -122.312 41.8836
vn 0.802165 -0.519168 0.29495
v -93.4175 -122.045 30.1098
vn 0.853061 -0.380346 0.357244
v -95.4179 -120.567 34.4615
vn 0.955082 -0.191431 0.226212
v -96.3 -120.209 37.9803
vn 0.939536 -0.0679376 0.335643
v -96.5985 -119.18 40.1219
vn -0.0908434 0.029507 0.995428
v -98.5838 -119.051 42.8353
vn 0.269501 -0.0182914 0.962826
v -97.7781 -119.362 42.7196
vn 0.0721384 -0.246291 0.966507
v -98.1501 -120.34 42.6277
vn 0.87839 -0.22782 0.420153
v -95.1349 -118.187 35.9531
vn 0.92832 -0.177085 0.326899
v -95.6849 -118.104 37.2529
vn 0.849712 0.298353 0.434712
v -95.7698 -117.505 37.534
vn 0.305716 0.65261 0.69328
v -98.6496 -117.844 42.4306
vn 0.443029 -0.627866 0.639929
v -97.8132 -124.432 40.4957
vn 0.916336 -0.274253 0.291741
v -97.6506 -124.11 40.5494
vn -0.978199 -0.144468 0.149187
v -108.784 -120.992 31.9873
vn -0.983653 0.169057 -0.0620179
v -108.529 -118.51 32.6329
vn -0.560156 0.773 -0.297819
v -112.049 -165.783 9.31918
vn -0.872568 0.480561 0.0876749
v -112.049 -165.783 9.31918
vn -0.912004 0.190613 0.363203
v -112.366 -166.491 10.0409
vn -0.821021 0.498772 -0.27776
v -108.868 -164.344 1.60903
vn -0.449837 0.165342 -0.877672
v -106.309 -124.748 29.4324
vn -0.395753 0.112811 -0.911402
v -107.509 -122.821 30.1133
vn -0.735003 0.325743 -0.594696
v -102.476 -123.068 24.1149
vn -0.499047 0.709105 -0.498118
v -105.025 -123.298 28.7737
vn -0.0605898 0.332511 -0.941151
v -105.384 -122.877 29.7334
vn -0.499047 0.709105 -0.498118
v -105.384 -122.877 29.7334
vn -0.190424 0.541223 -0.819034
v -102.159 -119.638 26.3075
vn -0.647059 0.314965 -0.694343
v -102.159 -119.638 26.3075
vn -0.56828 -0.0354563 -0.822071
v -103.307 -120.264 29.3895
vn -0.90919 0.00562697 0.416343
v -108.646 -116.842 35.2071
vn 0.249341 0.348516 -0.903529
v -101.124 -115.186 28.7893
vn 0.374097 0.389561 -0.841602
v -100.526 -114.033 29.399
vn 0.397538 0.788639 0.469055
v -105.105 -112.041 35.8469
vn -0.553145 0.368832 -0.74699
v -106.956 -112.935 35.2852
vn -0.624939 0.780144 0.0287302
v -106.956 -112.935 35.2852
vn -0.812095 0.380686 0.442244
v -107.7 -113.938 36.3976
vn -0.518334 0.791617 -0.323531
v -101.669 -111.559 30.4507
vn -0.42469 0.323407 -0.845604
v -101.14 -111.231 30.3103
vn -0.437714 0.8689 -0.231124
v -101.14 -111.231 30.3103
vn 0.621172 0.69658 -0.359056
v -101.14 -111.231 30.3103
vn 0.610639 0.7021 -0.366299
v -100.828 -111.504 30.3214
vn 0.622348 0.726781 -0.29064
v -100.966 -111.13 30.8076
vn 0.39709 0.781214 0.481689
v -100.966 -111.13 30.8076
vn -0.73433 0.60953 0.298719
v -112.106 -169.896 8.99967
vn -0.854413 0.391706 0.341387
v -111.852 -165.562 10.0594
vn 0.819673 0.234123 -0.522802
v -104.803 -161.986 2.46312
vn 0.269185 0.845757 -0.460689
v -104.927 -160.62 7.11312
vn -0.83454 -0.09847 0.542076
v -109.207 -161.03 14.4536
vn 0.648349 -0.119968 -0.751832
v -100.444 -126.842 23.4047
vn -0.90185 0.431657 -0.0183936
v -103.892 -121.614 30.0367
vn -0.499047 0.709105 -0.498118
v -103.892 -121.614 30.0367
vn 0.200441 -0.320792 -0.925697
v -97.3444 -116.765 23.8607
vn -0.0106987 0.94318 -0.33211
v -98.9241 -112.95 29.7903
vn 0.448688 0.422217 -0.787662
v -99.7019 -112.171 30.8667
vn 0.00444253 0.981758 -0.190084
v -99.1926 -112.593 30.8115
vn 0.321986 0.494052 -0.807612
v -99.1926 -112.593 30.8115
vn 0.581563 0.744472 -0.327941
v -99.1926 -112.593 30.8115
vn 0.554532 0.826611 -0.0959595
v -93.5424 -111.332 26.1162
vn -0.594169 0.689155 -0.414765
v -95.3677 -110.998 26.3166
vn -0.103958 0.988469 0.110096
v -95.3677 -110.998 26.3166
vn -0.00503598 0.994378 0.105766
v -94.1682 -111.024 26.6149
vn 0.120723 0.905125 -0.407645
v -94.1682 -111.024 26.6149
vn -0.981922 0.163365 0.0956052
v -109.767 -164.177 14.0818
vn 0.794572 0.408276 -0.449407
v -104.773 -158.876 9.53249
vn 0.69392 0.253725 -0.673869
v -92.115 -112.341 26.6395
vn 0.793997 0.60782 0.0111147
v -92.0459 -112.356 27.2145
vn 0.936262 0.349275 -0.0376906
v -100.948 -167.383 3.78659
vn 0.999001 0.00484211 -0.0444289
v -102.719 -161.711 10.5889
vn 0.778034 -0.453113 -0.435146
v -97.3291 -128 26.0625
vn 0.870472 -0.210621 0.444878
v -94.0163 -116.911 33.995
vn -0.119382 0.5193 0.846213
v -101.424 -117.035 41.7647
vn 0.738545 0.628098 0.245039
v -91.231 -114.083 29.5479
vn 0.914167 0.312614 0.258015
v -90.7293 -114.722 29.5163
vn -0.0311383 -0.60841 0.793012
v -105.561 -172.981 13.2345
vn 0.871644 0.207711 0.443952
v -97.7781 -119.362 42.7196
f 51//51 46//46 1//1
f 1//1 2//2 51//51
f 2//2 52//52 51//51
f 307//307 4//4 3//3
f 4//4 59//59 3//3
f 3//3 59//59 69//69
f 7//7 6//6 5//5
f 9//9 5//5 11//11
f 8//8 6//6 7//7
f 84//84 6//6 8//8
f 86//86 11//11 80//80
f 7//7 14//14 8//8
f 5//5 9//9 7//7
f 15//15 7//7 9//9
f 10//10 9//9 11//11
f 12//12 10//10 11//11
f 11//11 91//91 12//12
f 13//13 10//10 12//12
f 91//91 13//13 12//12
f 91//91 21//21 13//13
f 14//14 7//7 15//15
f 15//15 25//25 14//14
f 96//96 8//8 14//14
f 172//172 8//8 96//96
f 9//9 10//10 15//15
f 10//10 17//17 15//15
f 16//16 15//15 17//17
f 15//15 16//16 311//311
f 13//13 17//17 10//10
f 18//18 16//16 17//17
f 17//17 13//13 19//19
f 19//19 18//18 17//17
f 19//19 20//20 18//18
f 18//18 20//20 16//16
f 19//19 13//13 20//20
f 13//13 21//21 20//20
f 16//16 20//20 29//29
f 29//29 27//27 16//16
f 92//92 22//22 21//21
f 92//92 23//23 22//22
f 308//308 98//98 97//97
f 97//97 21//21 308//308
f 310//310 336//336 309//309
f 26//26 14//14 25//25
f 14//14 26//26 24//24
f 26//26 28//28 24//24
f 14//14 24//24 31//31
f 16//16 27//27 311//311
f 311//311 27//27 26//26
f 27//27 28//28 26//26
f 27//27 35//35 28//28
f 28//28 35//35 36//36
f 28//28 36//36 32//32
f 27//27 29//29 35//35
f 29//29 20//20 30//30
f 28//28 32//32 24//24
f 31//31 24//24 32//32
f 34//34 14//14 31//31
f 33//33 34//34 31//31
f 105//105 34//34 33//33
f 33//33 31//31 32//32
f 33//33 32//32 37//37
f 32//32 36//36 37//37
f 14//14 34//34 96//96
f 105//105 33//33 37//37
f 105//105 37//37 107//107
f 35//35 106//106 36//36
f 38//38 37//37 36//36
f 36//36 106//106 38//38
f 107//107 37//37 38//38
f 35//35 29//29 106//106
f 126//126 123//123 39//39
f 130//130 126//126 47//47
f 126//126 40//40 314//314
f 39//39 40//40 126//126
f 39//39 129//129 44//44
f 39//39 128//128 129//129
f 40//40 57//57 55//55
f 42//42 129//129 46//46
f 41//41 43//43 312//312
f 313//313 41//41 312//312
f 57//57 40//40 49//49
f 42//42 44//44 129//129
f 40//40 39//39 45//45
f 40//40 45//45 49//49
f 44//44 312//312 43//43
f 45//45 39//39 44//44
f 44//44 43//43 45//45
f 43//43 50//50 45//45
f 45//45 50//50 49//49
f 46//46 129//129 1//1
f 54//54 306//306 129//129
f 40//40 55//55 314//314
f 47//47 318//318 48//48
f 319//319 62//62 48//48
f 130//130 47//47 131//131
f 41//41 53//53 316//316
f 52//52 132//132 316//316
f 316//316 43//43 41//41
f 341//341 57//57 49//49
f 52//52 56//56 132//132
f 317//317 342//342 315//315
f 53//53 41//41 313//313
f 51//51 53//53 313//313
f 53//53 51//51 52//52
f 52//52 316//316 53//53
f 54//54 307//307 306//306
f 57//57 62//62 55//55
f 57//57 58//58 62//62
f 325//325 56//56 52//52
f 320//320 56//56 63//63
f 58//58 57//57 341//341
f 63//63 62//62 58//58
f 307//307 60//60 4//4
f 307//307 54//54 60//60
f 60//60 59//59 4//4
f 60//60 54//54 61//61
f 61//61 321//321 60//60
f 139//139 135//135 62//62
f 56//56 325//325 63//63
f 52//52 2//2 325//325
f 307//307 3//3 69//69
f 59//59 70//70 69//69
f 321//321 61//61 327//327
f 62//62 64//64 139//139
f 62//62 66//66 64//64
f 62//62 63//63 66//66
f 63//63 65//65 66//66
f 66//66 65//65 67//67
f 325//325 65//65 63//63
f 322//322 75//75 323//323
f 71//71 68//68 77//77
f 326//326 327//327 72//72
f 72//72 71//71 326//326
f 72//72 327//327 73//73
f 327//327 61//61 73//73
f 68//68 71//71 72//72
f 68//68 72//72 138//138
f 259//259 73//73 61//61
f 325//325 74//74 65//65
f 328//328 326//326 71//71
f 74//74 329//329 65//65
f 330//330 328//328 71//71
f 330//330 71//71 77//77
f 323//323 75//75 76//76
f 332//332 333//333 150//150
f 333//333 332//332 331//331
f 345//345 323//323 76//76
f 138//138 334//334 324//324
f 137//137 334//334 138//138
f 11//11 5//5 78//78
f 79//79 81//81 78//78
f 79//79 78//78 85//85
f 165//165 79//79 85//85
f 81//81 79//79 164//164
f 79//79 165//165 164//164
f 80//80 88//88 86//86
f 78//78 80//80 11//11
f 78//78 81//81 80//80
f 164//164 166//166 81//81
f 166//166 168//168 81//81
f 88//88 87//87 86//86
f 88//88 80//80 82//82
f 82//82 80//80 81//81
f 90//90 88//88 82//82
f 82//82 81//81 168//168
f 82//82 169//169 90//90
f 82//82 168//168 169//169
f 83//83 85//85 5//5
f 6//6 84//84 83//83
f 5//5 6//6 83//83
f 85//85 83//83 165//165
f 163//163 83//83 84//84
f 165//165 83//83 163//163
f 78//78 5//5 85//85
f 86//86 87//87 11//11
f 11//11 87//87 93//93
f 89//89 335//335 87//87
f 88//88 90//90 87//87
f 335//335 89//89 171//171
f 171//171 89//89 87//87
f 87//87 90//90 171//171
f 91//91 94//94 92//92
f 91//91 92//92 21//21
f 11//11 94//94 91//91
f 94//94 11//11 93//93
f 93//93 171//171 94//94
f 94//94 23//23 92//92
f 310//310 94//94 95//95
f 95//95 94//94 171//171
f 174//174 172//172 96//96
f 174//174 96//96 102//102
f 97//97 104//104 21//21
f 310//310 100//100 336//336
f 98//98 99//99 97//97
f 336//336 100//100 99//99
f 99//99 100//100 101//101
f 95//95 100//100 310//310
f 34//34 102//102 96//96
f 102//102 34//34 337//337
f 103//103 102//102 337//337
f 174//174 102//102 103//103
f 20//20 21//21 30//30
f 29//29 30//30 104//104
f 30//30 21//21 104//104
f 104//104 97//97 114//114
f 113//113 99//99 101//101
f 179//179 113//113 101//101
f 99//99 114//114 97//97
f 113//113 354//354 116//116
f 103//103 105//105 108//108
f 107//107 38//38 109//109
f 38//38 106//106 109//109
f 108//108 105//105 107//107
f 109//109 108//108 107//107
f 177//177 108//108 109//109
f 177//177 103//103 108//108
f 232//232 177//177 109//109
f 112//112 232//232 109//109
f 110//110 29//29 104//104
f 29//29 110//110 106//106
f 110//110 104//104 117//117
f 106//106 111//111 109//109
f 111//111 106//106 110//110
f 110//110 117//117 111//111
f 180//180 111//111 117//117
f 114//114 117//117 104//104
f 99//99 113//113 114//114
f 113//113 115//115 114//114
f 113//113 116//116 115//115
f 115//115 120//120 114//114
f 115//115 116//116 120//120
f 120//120 117//117 114//114
f 338//338 109//109 111//111
f 111//111 180//180 338//338
f 232//232 112//112 355//355
f 182//182 180//180 118//118
f 118//118 180//180 117//117
f 117//117 119//119 118//118
f 117//117 120//120 119//119
f 120//120 121//121 119//119
f 182//182 118//118 183//183
f 119//119 121//121 118//118
f 118//118 121//121 183//183
f 120//120 122//122 121//121
f 121//121 122//122 183//183
f 186//186 122//122 124//124
f 190//190 125//125 120//120
f 120//120 123//123 122//122
f 120//120 125//125 123//123
f 126//126 124//124 123//123
f 122//122 123//123 124//124
f 127//127 187//187 124//124
f 124//124 126//126 127//127
f 125//125 190//190 128//128
f 126//126 130//130 127//127
f 125//125 39//39 123//123
f 125//125 128//128 39//39
f 128//128 191//191 129//129
f 54//54 129//129 191//191
f 131//131 47//47 48//48
f 131//131 48//48 62//62
f 56//56 320//320 132//132
f 134//134 131//131 62//62
f 134//134 133//133 135//135
f 133//133 62//62 135//135
f 133//133 134//134 62//62
f 131//131 134//134 195//195
f 195//195 134//134 343//343
f 135//135 139//139 142//142
f 136//136 195//195 343//343
f 135//135 142//142 136//136
f 145//145 136//136 142//142
f 196//196 136//136 145//145
f 196//196 195//195 136//136
f 196//196 145//145 146//146
f 67//67 151//151 66//66
f 73//73 138//138 72//72
f 141//141 139//139 64//64
f 140//140 142//142 139//139
f 143//143 142//142 140//140
f 139//139 141//141 140//140
f 143//143 140//140 144//144
f 144//144 140//140 141//141
f 144//144 141//141 158//158
f 143//143 145//145 142//142
f 158//158 141//141 160//160
f 144//144 147//147 143//143
f 147//147 144//144 158//158
f 145//145 143//143 146//146
f 146//146 143//143 147//147
f 198//198 196//196 146//146
f 147//147 198//198 146//146
f 147//147 199//199 198//198
f 141//141 64//64 350//350
f 66//66 151//151 148//148
f 66//66 148//148 64//64
f 64//64 148//148 149//149
f 344//344 346//346 155//155
f 148//148 155//155 149//149
f 155//155 161//161 149//149
f 347//347 323//323 345//345
f 152//152 150//150 333//333
f 153//153 348//348 150//150
f 152//152 153//153 150//150
f 334//334 157//157 152//152
f 155//155 346//346 153//153
f 153//153 152//152 154//154
f 154//154 152//152 157//157
f 334//334 137//137 157//157
f 155//155 153//153 156//156
f 156//156 153//153 154//154
f 157//157 156//156 154//154
f 159//159 158//158 160//160
f 201//201 147//147 158//158
f 349//349 162//162 203//203
f 159//159 201//201 158//158
f 149//149 161//161 351//351
f 64//64 149//149 350//350
f 351//351 161//161 352//352
f 159//159 160//160 353//353
f 156//156 265//265 161//161
f 161//161 203//203 162//162
f 161//161 155//155 156//156
f 167//167 165//165 163//163
f 166//166 164//164 167//167
f 167//167 164//164 165//165
f 167//167 163//163 208//208
f 208//208 166//166 167//167
f 169//169 168//168 212//212
f 170//170 169//169 216//216
f 212//212 216//216 169//169
f 217//217 213//213 84//84
f 163//163 84//84 213//213
f 90//90 170//170 171//171
f 169//169 170//170 90//90
f 8//8 172//172 217//217
f 84//84 8//8 217//217
f 95//95 171//171 170//170
f 173//173 172//172 174//174
f 173//173 217//217 172//172
f 173//173 174//174 178//178
f 101//101 100//100 95//95
f 175//175 101//101 95//95
f 175//175 95//95 170//170
f 177//177 176//176 103//103
f 174//174 103//103 176//176
f 176//176 178//178 174//174
f 177//177 178//178 176//176
f 225//225 178//178 177//177
f 101//101 175//175 179//179
f 177//177 232//232 225//225
f 339//339 179//179 230//230
f 175//175 230//230 179//179
f 182//182 232//232 355//355
f 230//230 181//181 339//339
f 120//120 116//116 181//181
f 120//120 181//181 190//190
f 183//183 184//184 182//182
f 182//182 184//184 232//232
f 233//233 232//232 184//184
f 181//181 230//230 185//185
f 185//185 230//230 235//235
f 185//185 235//235 236//236
f 186//186 184//184 183//183
f 183//183 122//122 186//186
f 184//184 186//186 188//188
f 188//188 233//233 184//184
f 188//188 186//186 187//187
f 190//190 181//181 185//185
f 124//124 187//187 186//186
f 188//188 237//237 233//233
f 190//190 185//185 189//189
f 188//188 187//187 127//127
f 189//189 185//185 236//236
f 188//188 127//127 237//237
f 237//237 127//127 340//340
f 190//190 189//189 191//191
f 340//340 239//239 237//237
f 128//128 190//190 191//191
f 191//191 189//189 240//240
f 192//192 340//340 131//131
f 241//241 239//239 340//340
f 241//241 340//340 192//192
f 243//243 54//54 191//191
f 243//243 246//246 54//54
f 193//193 192//192 131//131
f 241//241 192//192 193//193
f 193//193 131//131 194//194
f 360//360 193//193 245//245
f 54//54 246//246 61//61
f 194//194 131//131 195//195
f 194//194 195//195 247//247
f 247//247 193//193 194//194
f 197//197 195//195 196//196
f 197//197 196//196 198//198
f 257//257 197//197 198//198
f 247//247 195//195 197//197
f 197//197 257//257 247//247
f 137//137 138//138 303//303
f 362//362 138//138 73//73
f 303//303 138//138 362//362
f 199//199 147//147 201//201
f 200//200 199//199 202//202
f 198//198 199//199 200//200
f 257//257 198//198 200//200
f 265//265 206//206 161//161
f 206//206 265//265 260//260
f 157//157 265//265 156//156
f 137//137 265//265 157//157
f 201//201 202//202 199//199
f 201//201 159//159 202//202
f 204//204 349//349 203//203
f 356//356 202//202 159//159
f 357//357 204//204 203//203
f 205//205 200//200 202//202
f 356//356 205//205 202//202
f 205//205 204//204 357//357
f 161//161 206//206 203//203
f 214//214 207//207 163//163
f 214//214 215//215 207//207
f 215//215 267//267 207//207
f 166//166 208//208 168//168
f 163//163 207//207 208//208
f 208//208 209//209 210//210
f 207//207 209//209 208//208
f 267//267 209//209 207//207
f 210//210 209//209 267//267
f 208//208 210//210 168//168
f 210//210 211//211 168//168
f 267//267 211//211 210//210
f 211//211 212//212 168//168
f 163//163 213//213 214//214
f 218//218 213//213 217//217
f 215//215 214//214 213//213
f 218//218 215//215 213//213
f 219//219 215//215 218//218
f 267//267 215//215 219//219
f 212//212 269//269 216//216
f 170//170 216//216 276//276
f 218//218 217//217 173//173
f 218//218 173//173 223//223
f 219//219 218//218 224//224
f 219//219 224//224 220//220
f 170//170 276//276 221//221
f 276//276 222//222 221//221
f 222//222 278//278 227//227
f 276//276 278//278 222//222
f 170//170 221//221 175//175
f 173//173 178//178 223//223
f 178//178 225//225 224//224
f 358//358 178//178 224//224
f 224//224 225//225 226//226
f 223//223 224//224 218//218
f 224//224 226//226 220//220
f 226//226 225//225 229//229
f 226//226 229//229 279//279
f 226//226 279//279 275//275
f 227//227 221//221 222//222
f 228//228 221//221 227//227
f 278//278 279//279 227//227
f 231//231 279//279 234//234
f 279//279 231//231 227//227
f 228//228 175//175 221//221
f 175//175 228//228 230//230
f 228//228 227//227 231//231
f 359//359 229//229 225//225
f 229//229 359//359 234//234
f 279//279 229//229 234//234
f 228//228 231//231 230//230
f 233//233 234//234 359//359
f 235//235 230//230 231//231
f 280//280 233//233 237//237
f 280//280 234//234 233//233
f 236//236 238//238 189//189
f 282//282 238//238 236//236
f 236//236 235//235 282//282
f 237//237 239//239 280//280
f 280//280 239//239 242//242
f 280//280 242//242 281//281
f 189//189 238//238 240//240
f 238//238 282//282 240//240
f 244//244 191//191 240//240
f 282//282 284//284 240//240
f 240//240 284//284 244//244
f 360//360 245//245 242//242
f 360//360 242//242 239//239
f 245//245 283//283 242//242
f 244//244 243//243 191//191
f 283//283 245//245 248//248
f 247//247 248//248 245//245
f 193//193 247//247 245//245
f 247//247 249//249 248//248
f 256//256 249//249 247//247
f 248//248 249//249 255//255
f 283//283 248//248 250//250
f 250//250 248//248 251//251
f 248//248 255//255 253//253
f 248//248 253//253 251//251
f 256//256 255//255 249//249
f 250//250 251//251 252//252
f 251//251 253//253 252//252
f 252//252 253//253 254//254
f 293//293 253//253 255//255
f 253//253 293//293 254//254
f 256//256 293//293 255//255
f 283//283 250//250 287//287
f 250//250 294//294 287//287
f 250//250 252//252 294//294
f 252//252 254//254 294//294
f 287//287 294//294 305//305
f 289//289 290//290 246//246
f 247//247 257//257 256//256
f 256//256 262//262 293//293
f 257//257 262//262 256//256
f 61//61 246//246 259//259
f 257//257 200//200 205//205
f 262//262 257//257 205//205
f 302//302 265//265 137//137
f 258//258 265//265 302//302
f 302//302 137//137 303//303
f 261//261 262//262 205//205
f 261//261 205//205 266//266
f 364//364 266//266 363//363
f 264//264 260//260 265//265
f 364//364 363//363 264//264
f 293//293 263//263 361//361
f 262//262 263//263 293//293
f 264//264 258//258 263//263
f 262//262 364//364 263//263
f 263//263 364//364 264//264
f 265//265 258//258 264//264
f 266//266 205//205 357//357
f 266//266 357//357 363//363
f 267//267 269//269 211//211
f 219//219 270//270 268//268
f 267//267 270//270 269//269
f 267//267 219//219 268//268
f 268//268 270//270 267//267
f 269//269 212//212 211//211
f 269//269 270//270 271//271
f 269//269 365//365 216//216
f 270//270 219//219 272//272
f 270//270 272//272 271//271
f 216//216 365//365 274//274
f 271//271 272//272 273//273
f 273//273 272//272 219//219
f 271//271 273//273 274//274
f 274//274 273//273 277//277
f 220//220 226//226 273//273
f 219//219 220//220 273//273
f 273//273 226//226 275//275
f 275//275 277//277 273//273
f 277//277 278//278 276//276
f 277//277 275//275 278//278
f 274//274 277//277 276//276
f 216//216 274//274 276//276
f 275//275 279//279 278//278
f 234//234 288//288 231//231
f 288//288 235//235 231//231
f 280//280 288//288 234//234
f 288//288 280//280 281//281
f 235//235 288//288 282//282
f 281//281 283//283 288//288
f 242//242 283//283 281//281
f 283//283 287//287 288//288
f 284//284 286//286 244//244
f 288//288 284//284 282//282
f 243//243 244//244 285//285
f 246//246 243//243 285//285
f 285//285 244//244 286//286
f 304//304 284//284 288//288
f 288//288 305//305 304//304
f 289//289 246//246 285//285
f 286//286 289//289 285//285
f 304//304 286//286 284//284
f 289//289 286//286 304//304
f 254//254 293//293 294//294
f 287//287 305//305 288//288
f 289//289 304//304 291//291
f 304//304 292//292 291//291
f 289//289 291//291 290//290
f 291//291 292//292 290//290
f 294//294 293//293 300//300
f 305//305 294//294 295//295
f 301//301 295//295 294//294
f 295//295 301//301 305//305
f 302//302 296//296 305//305
f 305//305 296//296 292//292
f 246//246 290//290 259//259
f 290//290 297//297 259//259
f 303//303 362//362 297//297
f 299//299 298//298 297//297
f 290//290 299//299 297//297
f 298//298 303//303 297//297
f 296//296 366//366 292//292
f 292//292 299//299 290//290
f 292//292 298//298 299//299
f 300//300 293//293 361//361
f 302//302 300//300 361//361
f 300//300 301//301 294//294
f 300//300 302//302 301//301
f 301//301 302//302 305//305
f 302//302 366//366 296//296
f 303//303 366//366 302//302
f 305//305 292//292 304//304
