# Wavafront OBJ file of BodyParts3D
# BodyParts3D, Copyright(C) 2010-2011 The Database Center for Life Science licensed under CC Attribution-Share Alike 2.1 Japan.
vn -0.811822 0.565695 -0.144687
v -227.72 -167.275 697.597
vn -0.895784 0.418438 -0.149935
v -227.858 -167.746 697.112
vn -0.742622 0.612086 -0.271777
v -227.545 -167.332 696.399
vn -0.462393 0.0556635 -0.884926
v -227.122 -167.559 696.174
vn -0.844992 -0.408448 0.345193
v -227.269 -168.275 698.199
vn -0.30301 -0.544249 0.78229
v -226.34 -168.16 698.816
vn -0.626034 0.17475 0.759963
v -225.991 -167.883 699.162
vn -0.108806 -0.651507 0.7508
v -225.356 -168.064 699.441
vn -0.717793 0.604919 -0.344739
v -225.905 -165.577 696.896
vn -0.706915 0.543763 -0.45232
v -225.842 -165.674 696.62
vn -0.654408 0.652979 0.381272
v -226.026 -166.031 697.468
vn -0.785959 0.553808 0.274892
v -225.752 -165.328 696.833
vn -0.14674 0.703754 -0.695125
v -224.228 -164.937 696.482
vn -0.699503 -0.345442 -0.625592
v -227.126 -169.387 696.655
vn -0.650202 -0.337818 -0.680526
v -226.603 -169.111 696.016
vn -0.253897 -0.724976 0.640271
v -226.666 -169.689 697.089
vn -0.464617 -0.884785 0.0358559
v -226.049 -169.919 696.263
vn -0.761244 -0.544497 -0.35218
v -226.042 -169.45 695.522
vn -0.45735 0.451237 -0.7663
v -226.141 -166.322 696.177
vn -0.407469 0.564636 -0.717743
v -225.719 -165.793 696.353
vn 0.0464288 0.175597 0.983367
v -223.218 -167.906 699.574
vn -0.108806 -0.651507 0.7508
v -225.173 -168.149 699.393
vn -0.108806 -0.651507 0.7508
v -225.158 -168.082 699.454
vn -0.173858 -0.415618 0.892768
v -225.16 -168.241 699.062
vn -0.157326 -0.316712 0.935383
v -225.101 -168.049 699.142
vn -0.157923 -0.579253 0.799704
v -223.24 -168.95 699.285
vn -0.214551 0.567215 0.795132
v -223.517 -164.471 697.298
vn 0.155463 0.770622 -0.61804
v -222.961 -164.907 696.526
vn -0.0773147 0.514723 0.853864
v -223.265 -165.973 698.172
vn 0.431745 0.891351 0.138163
v -221.9 -165.029 697.635
vn -0.381381 -0.847467 0.369255
v -225.534 -170.102 696.946
vn -0.420281 -0.761152 0.493975
v -224.715 -170.408 697.064
vn -0.264086 -0.768534 0.582764
v -223.72 -171.273 696.735
vn -0.0815657 0.395289 -0.914928
v -224.278 -167.322 695.193
vn 0.0745952 0.517177 -0.852622
v -223.035 -165.201 696.299
vn 0.303135 0.496087 -0.813638
v -222.153 -165.349 696.377
vn -0.815768 -0.484169 -0.316389
v -224.752 -170.215 693.37
vn -0.562717 -0.764386 0.314744
v -224.959 -170.987 695.077
vn -0.81569 -0.459707 0.351168
v -225.151 -175.518 689.914
vn -0.923852 0.342927 -0.169997
v -224.597 -174.051 690.141
vn -0.836692 -0.342133 0.427659
v -224.715 -174.567 690.89
vn -0.711823 0.554921 -0.430547
v -224.327 -174.134 689.259
vn -0.92304 -0.251292 -0.29129
v -224.848 -176.377 688.333
vn -0.757843 0.506464 -0.411301
v -224.477 -174.392 689.019
vn -0.402384 0.65156 -0.643084
v -223.894 -174.448 688.448
vn -0.591718 0.280759 -0.755674
v -224.293 -175.816 687.59
vn 0.211548 -0.258745 0.942496
v -220.278 -168.608 698.886
vn 0.481843 0.815213 -0.321333
v -221.256 -165.242 696.995
vn 0.724092 0.39021 -0.568707
v -220.602 -166.067 696.946
vn 0.526179 0.809452 0.260621
v -220.351 -166.009 697.551
vn 0.800791 -0.521778 0.294078
v -220.899 -170.49 695.718
vn 0.3407 0.379696 -0.860089
v -220.671 -169.053 695.329
vn -0.853216 -0.284497 0.437133
v -223.831 -174.955 692.561
vn 0.201045 -0.63144 0.748909
v -222.577 -174.682 693.31
vn -0.121343 0.677536 -0.725411
v -222.076 -170.022 692.791
vn -0.78359 -0.527046 0.328952
v -223.488 -177.1 691.338
vn -0.555397 -0.640177 0.530762
v -223.234 -177.68 690.288
vn -0.639372 0.142404 0.755596
v -223.1 -178.217 690.197
vn -0.482345 0.292461 0.825718
v -222.996 -177.943 690.161
vn 0.0378546 0.0954565 0.994714
v -222.72 -178.051 690.167
vn -0.00965536 -0.87159 0.490141
v -222.64 -177.764 690.336
vn -0.850399 -0.084737 0.519269
v -223.28 -178.797 689.985
vn -0.82065 -0.532475 0.207373
v -224.195 -177.377 688.943
vn -0.841099 -0.537214 0.0628703
v -223.855 -177.952 688.811
vn -0.261465 -0.858257 -0.441623
v -223.819 -177.652 687.813
vn 0.392264 -0.814705 -0.427065
v -223.429 -177.418 687.765
vn -0.779658 -0.349349 0.519701
v -223.529 -177.841 689.734
vn 0.503785 -0.855037 -0.122934
v -222.92 -177.047 687.468
vn -0.578494 0.219817 0.785509
v -223.264 -177.882 689.983
vn 0.245232 -0.766412 -0.593696
v -222.969 -178.273 688.937
vn -0.171154 -0.983604 0.0568325
v -222.65 -177.081 687.703
vn -0.0916565 -0.882322 -0.461635
v -223.067 -178.696 689.661
vn -0.0295602 -0.123247 0.991936
v -222.758 -178.356 690.19
vn 0.694256 -0.0585003 0.717346
v -222.662 -178.087 690.119
vn 0.625867 -0.584962 0.515859
v -222.419 -177.871 690.07
vn 0.728049 -0.673673 -0.126924
v -222.367 -177.965 689.792
vn -0.166384 0.526102 -0.833987
v -223.578 -175.37 687.495
vn 0.248206 0.584126 -0.772781
v -221.65 -175.254 687.547
vn -0.690376 -0.197223 -0.696048
v -223.885 -177.139 687.363
vn 0.49795 -0.854393 -0.14852
v -223.27 -177.246 687.418
vn -0.247119 -0.964405 -0.0941063
v -222.289 -177.176 687.134
vn -0.289938 0.190779 -0.937838
v -222.792 -176.931 686.861
vn 0.307957 0.232012 -0.922677
v -221.934 -176.282 686.917
vn 0.241257 0.429388 0.870299
v -219.908 -167.841 698.647
vn 0.231803 -0.768192 0.596782
v -220.12 -169.118 698.423
vn 0.952869 -0.0764509 -0.293593
v -219.55 -168.109 698.167
vn 0.686715 -0.439861 0.578744
v -220.929 -172.71 693.405
vn 0.881204 -0.280775 0.380322
v -220.735 -172.507 693.231
vn 0.424355 -0.76162 0.489753
v -221.364 -177.498 690.62
vn 0.906838 0.353328 -0.22979
v -220.285 -174.405 691.639
vn 0.742909 0.338814 -0.577314
v -220.665 -175.915 687.767
vn 0.575558 -0.0681681 -0.814915
v -220.394 -176.925 688.058
vn -0.610394 -0.633744 -0.475171
v -221.394 -178.079 687.421
vn -0.898153 -0.15829 0.410201
v -227.72 -167.275 697.597
vn -0.626034 0.17475 0.759963
v -227.72 -167.275 697.597
vn -0.269849 0.586221 0.763889
v -227.72 -167.275 697.597
vn -0.497691 0.727038 0.47299
v -227.72 -167.275 697.597
vn -0.890861 -0.309257 0.332755
v -227.858 -167.746 697.112
vn -0.833557 -0.232481 -0.501135
v -227.858 -167.746 697.112
vn -0.625954 -0.0716608 -0.776561
v -227.545 -167.332 696.399
vn -0.626034 0.17475 0.759963
v -227.269 -168.275 698.199
vn -0.359511 -0.620445 0.696994
v -227.269 -168.275 698.199
vn -0.247603 -0.486149 0.838064
v -225.991 -167.883 699.162
vn -0.293723 0.735453 0.610603
v -225.991 -167.883 699.162
vn 0.0873664 0.357251 0.929913
v -225.991 -167.883 699.162
vn 0.108806 0.651507 -0.7508
v -225.356 -168.064 699.441
vn -0.654408 0.652979 0.381272
v -225.905 -165.577 696.896
vn -0.290145 0.532081 0.795428
v -226.026 -166.031 697.468
vn -0.566096 0.669317 -0.481197
v -225.752 -165.328 696.833
vn -0.392114 0.695854 0.601692
v -225.752 -165.328 696.833
vn -0.796096 -0.523599 0.303438
v -227.126 -169.387 696.655
vn -0.472021 -0.874909 -0.108307
v -227.126 -169.387 696.655
vn -0.724466 -0.589414 0.357409
v -226.666 -169.689 697.089
vn -0.408874 -0.911161 -0.0510611
v -226.666 -169.689 697.089
vn -0.725201 -0.54 -0.427181
v -226.049 -169.919 696.263
vn -0.312253 0.185098 -0.931792
v -226.042 -169.45 695.522
vn -0.706201 -0.165724 -0.688342
v -226.042 -169.45 695.522
vn -0.673329 0.470025 -0.570706
v -226.042 -169.45 695.522
vn 0.108806 0.651507 -0.7508
v -225.173 -168.149 699.393
vn 0.108806 0.651507 -0.7508
v -225.158 -168.082 699.454
vn -0.0700441 0.472481 0.878553
v -225.101 -168.049 699.142
vn 0.0764365 0.95665 -0.281031
v -223.517 -164.471 697.298
vn 0.157838 0.487401 0.858794
v -221.9 -165.029 697.635
vn -0.228988 -0.727013 0.647314
v -223.72 -171.273 696.735
vn -0.673329 0.470025 -0.570706
v -224.278 -167.322 695.193
vn -0.214586 0.545688 -0.810048
v -224.278 -167.322 695.193
vn 0.388016 0.768757 -0.508385
v -224.278 -167.322 695.193
vn -0.673329 0.470025 -0.570706
v -224.752 -170.215 693.37
vn -0.935263 0.216931 -0.279685
v -224.752 -170.215 693.37
vn -0.206185 0.640653 -0.739629
v -224.752 -170.215 693.37
vn -0.816708 -0.482173 -0.317014
v -224.959 -170.987 695.077
vn -0.993971 0.0478474 -0.0986475
v -224.959 -170.987 695.077
vn -0.929201 0.33689 -0.151955
v -225.151 -175.518 689.914
vn -0.987614 0.150746 -0.0435214
v -224.715 -174.567 690.89
vn 0.758145 -0.223344 0.612645
v -220.278 -168.608 698.886
vn 0.824238 0.418292 -0.381659
v -220.351 -166.009 697.551
vn 0.382764 0.540981 0.748887
v -220.351 -166.009 697.551
vn 0.823668 0.424367 0.376142
v -220.351 -166.009 697.551
vn 0.979902 -0.0468797 -0.193891
v -220.671 -169.053 695.329
vn 0.388016 0.768757 -0.508385
v -220.671 -169.053 695.329
vn 0.771952 0.31955 -0.549526
v -220.671 -169.053 695.329
vn -0.297451 -0.622504 0.723886
v -223.831 -174.955 692.561
vn 0.388016 0.768757 -0.508385
v -222.076 -170.022 692.791
vn 0.784442 0.457571 -0.418664
v -222.076 -170.022 692.791
vn -0.0908889 -0.742692 0.663437
v -223.488 -177.1 691.338
vn -0.161251 -0.880165 0.446438
v -223.234 -177.68 690.288
vn -0.0105826 -0.0411182 0.999098
v -223.1 -178.217 690.197
vn -0.288692 -0.580273 0.761538
v -222.996 -177.943 690.161
vn 0.0267633 0.120404 0.992364
v -222.996 -177.943 690.161
vn 0.053509 -0.518103 0.853643
v -222.72 -178.051 690.167
vn 0.623484 -0.0164003 0.781664
v -222.72 -178.051 690.167
vn 0.139676 -0.53425 0.833707
v -222.64 -177.764 690.336
vn -0.106746 -0.311546 0.944216
v -223.28 -178.797 689.985
vn -0.418113 -0.842174 -0.340476
v -223.28 -178.797 689.985
vn 0.601938 -0.783946 0.151989
v -223.28 -178.797 689.985
vn -0.0483522 -0.662878 -0.747165
v -223.819 -177.652 687.813
vn 0.302367 -0.736667 -0.604893
v -222.92 -177.047 687.468
vn -0.247119 -0.964405 -0.0941063
v -222.92 -177.047 687.468
vn -0.53248 -0.680194 0.503786
v -223.264 -177.882 689.983
vn 0.718863 -0.638259 -0.275428
v -222.969 -178.273 688.937
vn 0.267017 -0.951087 0.155352
v -222.969 -178.273 688.937
vn -0.558285 -0.519757 -0.646661
v -222.969 -178.273 688.937
vn 0.413244 -0.705773 -0.575424
v -222.65 -177.081 687.703
vn -0.610394 -0.633744 -0.475171
v -222.65 -177.081 687.703
vn 0.693924 -0.719263 -0.0336218
v -223.067 -178.696 689.661
vn 0.694256 -0.0585003 0.717346
v -222.758 -178.356 690.19
vn 0.66427 -0.742212 0.0886961
v -222.758 -178.356 690.19
vn 0.526945 -0.583245 0.618185
v -222.662 -178.087 690.119
vn 0.120959 -0.913555 0.388312
v -222.419 -177.871 690.07
vn 0.757449 -0.0999616 0.645196
v -222.367 -177.965 689.792
vn 0.661814 -0.664249 0.347528
v -222.367 -177.965 689.792
vn 0.240352 -0.944866 0.222393
v -222.367 -177.965 689.792
vn -0.0722161 -0.752482 -0.654641
v -223.885 -177.139 687.363
vn -0.0722161 -0.752482 -0.654641
v -223.27 -177.246 687.418
vn -0.634964 -0.719137 -0.282244
v -222.289 -177.176 687.134
vn 0.185602 -0.300413 -0.935577
v -222.289 -177.176 687.134
vn 0.499864 -0.864036 -0.0598046
v -222.792 -176.931 686.861
vn -0.0948408 -0.829175 -0.550885
v -222.792 -176.931 686.861
vn -0.315937 -0.917313 -0.242324
v -222.792 -176.931 686.861
vn 0.314461 -0.339627 -0.886436
v -222.792 -176.931 686.861
vn 0.185602 -0.300413 -0.935577
v -221.934 -176.282 686.917
vn 0.823668 0.424367 0.376142
v -219.908 -167.841 698.647
vn 0.746995 -0.160027 0.645282
v -219.908 -167.841 698.647
vn 0.765353 -0.285499 0.576823
v -220.12 -169.118 698.423
vn 0.870671 -0.491865 -0.00120943
v -220.12 -169.118 698.423
vn 0.823668 0.424367 0.376142
v -219.55 -168.109 698.167
vn 0.758145 -0.223344 0.612645
v -219.55 -168.109 698.167
vn 0.831074 0.376225 -0.409598
v -220.735 -172.507 693.231
vn 0.784792 -0.375473 0.493074
v -220.285 -174.405 691.639
vn 0.96228 0.207806 -0.175596
v -220.394 -176.925 688.058
vn 0.815317 -0.548251 0.186223
v -220.394 -176.925 688.058
vn 0.0529283 -0.255024 -0.965485
v -221.394 -178.079 687.421
vn 0.440434 -0.884916 0.151465
v -221.394 -178.079 687.421
vn 0.57995 -0.0540012 -0.81286
v -221.394 -178.079 687.421
f 1//1 3//3 2//2
f 5//5 94//94 98//98
f 3//3 9//9 19//19
f 1//1 9//9 3//3
f 14//14 100//100 15//15
f 15//15 100//100 4//4
f 100//100 19//19 4//4
f 22//22 23//23 8//8
f 95//95 101//101 7//7
f 5//5 98//98 111//111
f 26//26 102//102 16//16
f 113//113 5//5 111//111
f 6//6 103//103 102//102
f 26//26 6//6 102//102
f 120//120 119//119 106//106
f 24//24 103//103 6//6
f 103//103 24//24 25//25
f 29//29 96//96 104//104
f 107//107 97//97 11//11
f 107//107 11//11 12//12
f 9//9 10//10 19//19
f 20//20 10//10 109//109
f 109//109 10//10 9//9
f 110//110 108//108 27//27
f 10//10 20//20 19//19
f 27//27 108//108 29//29
f 108//108 96//96 29//29
f 109//109 13//13 20//20
f 20//20 13//13 34//34
f 109//109 122//122 13//13
f 14//14 99//99 100//100
f 112//112 17//17 114//114
f 14//14 15//15 115//115
f 18//18 115//115 15//15
f 17//17 31//31 114//114
f 17//17 38//38 31//31
f 19//19 20//20 34//34
f 4//4 19//19 116//116
f 19//19 34//34 116//116
f 4//4 117//117 15//15
f 34//34 13//13 35//35
f 115//115 18//18 37//37
f 25//25 26//26 21//21
f 29//29 121//121 21//21
f 29//29 21//21 84//84
f 84//84 21//21 47//47
f 121//121 29//29 105//105
f 6//6 26//26 24//24
f 24//24 26//26 25//25
f 26//26 47//47 21//21
f 28//28 13//13 122//122
f 28//28 35//35 13//13
f 48//48 28//28 122//122
f 30//30 48//48 122//122
f 48//48 36//36 28//28
f 36//36 35//35 28//28
f 29//29 123//123 27//27
f 26//26 16//16 31//31
f 26//26 31//31 32//32
f 32//32 31//31 38//38
f 33//33 26//26 32//32
f 36//36 34//34 35//35
f 52//52 34//34 36//36
f 118//118 125//125 128//128
f 131//131 115//115 37//37
f 32//32 38//38 33//33
f 38//38 41//41 33//33
f 129//129 134//134 132//132
f 41//41 53//53 33//33
f 53//53 41//41 39//39
f 53//53 39//39 56//56
f 134//134 129//129 40//40
f 40//40 129//129 42//42
f 134//134 40//40 133//133
f 133//133 40//40 44//44
f 133//133 44//44 43//43
f 42//42 44//44 40//40
f 44//44 46//46 43//43
f 130//130 126//126 55//55
f 39//39 43//43 63//63
f 79//79 43//43 46//46
f 44//44 45//45 46//46
f 42//42 45//45 44//44
f 129//129 45//45 42//42
f 130//130 55//55 45//45
f 45//45 77//77 46//46
f 77//77 45//45 55//55
f 77//77 55//55 78//78
f 82//82 46//46 77//77
f 85//85 47//47 26//26
f 84//84 123//123 29//29
f 50//50 48//48 30//30
f 136//136 49//49 48//48
f 49//49 36//36 48//48
f 36//36 49//49 52//52
f 84//84 137//137 123//123
f 49//49 136//136 86//86
f 86//86 139//139 49//49
f 186//186 138//138 182//182
f 26//26 33//33 85//85
f 85//85 33//33 51//51
f 86//86 51//51 139//139
f 124//124 142//142 54//54
f 33//33 54//54 51//51
f 139//139 51//51 88//88
f 140//140 143//143 127//127
f 188//188 144//144 141//141
f 142//142 145//145 54//54
f 188//188 90//90 144//144
f 54//54 87//87 51//51
f 57//57 56//56 39//39
f 67//67 57//57 39//39
f 145//145 146//146 61//61
f 62//62 58//58 67//67
f 58//58 59//59 69//69
f 67//67 58//58 69//69
f 148//148 57//57 159//159
f 148//148 152//152 57//57
f 153//153 73//73 147//147
f 73//73 60//60 147//147
f 147//147 60//60 149//149
f 150//150 152//152 148//148
f 74//74 151//151 166//166
f 152//152 150//150 168//168
f 152//152 168//168 75//75
f 67//67 64//64 62//62
f 154//154 64//64 65//65
f 65//65 72//72 154//154
f 65//65 43//43 79//79
f 79//79 46//46 82//82
f 64//64 63//63 43//43
f 65//65 64//64 43//43
f 67//67 39//39 63//63
f 67//67 63//63 64//64
f 66//66 65//65 80//80
f 70//70 65//65 66//66
f 80//80 177//177 68//68
f 66//66 80//80 68//68
f 57//57 67//67 159//159
f 70//70 66//66 157//157
f 81//81 71//71 158//158
f 163//163 70//70 157//157
f 167//167 155//155 165//165
f 65//65 70//70 72//72
f 165//165 160//160 76//76
f 165//165 76//76 167//167
f 166//166 170//170 74//74
f 168//168 171//171 75//75
f 91//91 78//78 144//144
f 174//174 156//156 173//173
f 173//173 178//178 174//174
f 158//158 179//179 81//81
f 164//164 175//175 93//93
f 83//83 82//82 77//77
f 192//192 176//176 181//181
f 176//176 180//180 181//181
f 83//83 77//77 78//78
f 187//187 183//183 135//135
f 187//187 135//135 184//184
f 185//185 51//51 86//86
f 189//189 87//87 89//89
f 54//54 145//145 89//89
f 51//51 87//87 88//88
f 87//87 54//54 89//89
f 87//87 189//189 88//88
f 89//89 145//145 61//61
f 169//169 89//89 61//61
f 193//193 172//172 161//161
f 169//169 172//172 89//89
f 172//172 193//193 89//89
f 91//91 83//83 78//78
f 91//91 92//92 83//83
f 90//90 91//91 144//144
f 190//190 91//91 90//90
f 89//89 191//191 189//189
f 191//191 89//89 193//193
f 93//93 162//162 164//164
f 83//83 92//92 194//194
