# Wavafront OBJ file of BodyParts3D
# BodyParts3D, Copyright(C) 2010-2011 The Database Center for Life Science licensed under CC Attribution-Share Alike 2.1 Japan.
vn 0.758723 0.645036 -0.090927
v 245.994 -109.263 824.706
vn 0.818531 0.220758 -0.530352
v 246.194 -110.743 822.996
vn 0.980196 0.123514 -0.154793
v 246.543 -111.101 823.868
vn 0.454622 0.622026 -0.637497
v 244.242 -108.861 822.295
vn 0.300065 -0.519261 -0.800205
v 236.083 -109.534 815.467
vn 0.0164103 -0.0498528 -0.998622
v 235.59 -109.08 815.263
vn -0.266359 -0.499806 -0.824164
v 235.093 -109.531 815.47
vn 0.500077 0.199401 -0.842711
v 244.823 -110.544 821.782
vn 0.247859 -0.102622 -0.963346
v 244.339 -111.147 821.544
vn 0.586291 -0.199319 -0.785197
v 245.32 -112.006 822.098
vn 0.129064 -0.31632 -0.939832
v 243.351 -115.013 822.469
vn 0.140863 0.259101 -0.955523
v 243.346 -110.161 821.363
vn -0.0753478 -0.110575 -0.991007
v 242.856 -110.689 821.342
vn -0.0885312 -0.152475 -0.984334
v 240.864 -111.522 821.956
vn 0.757752 -0.350814 -0.55022
v 238.485 -109.377 820.811
vn 0.782731 -0.578802 -0.228736
v 237.468 -109.77 819.433
vn 0.612118 -0.336572 -0.715563
v 238.879 -110.522 821.808
vn 0.504761 -0.826639 -0.248767
v 236.988 -110.257 819.584
vn 0.39354 -0.549194 -0.737233
v 237.928 -110.732 821.254
vn 0.538956 0.726263 -0.426695
v 236.189 -105.109 818.549
vn 0.904333 0.150019 -0.399596
v 237.62 -108.468 816.777
vn 0.71913 0.421041 -0.55279
v 237.25 -107.885 816.567
vn 0.586333 0.53757 -0.605996
v 236.733 -107.442 816.4
vn 0.427289 0.580776 -0.692909
v 236.154 -107.058 816.252
vn 0.773704 0.48924 -0.402526
v 237.4 -107.497 817.18
vn 0.862273 0.426521 -0.273065
v 237.874 -107.129 819.288
vn 0.673637 0.242468 -0.698156
v 236.99 -108.377 815.987
vn 0.444696 0.409214 -0.796737
v 236.444 -107.962 815.828
vn 0.0900914 0.740521 -0.665967
v 235.015 -106.028 816.606
vn 0.942313 -0.197065 -0.270575
v 238.234 -108.407 819.734
vn 0.496922 0.00936609 -0.867745
v 236.572 -108.984 815.55
vn 0.291928 0.247195 -0.923944
v 236.076 -108.502 815.428
vn 0.784738 -0.396128 -0.476727
v 237.252 -109.45 816.359
vn -0.070455 0.391011 -0.917685
v 235.061 -107.41 815.597
vn -0.480427 0.582253 -0.655875
v 234.249 -106.21 816.643
vn 0.413836 -0.84354 -0.342316
v 236.772 -109.937 816.51
vn 0.664012 -0.737918 -0.120683
v 237.224 -109.951 818.008
vn -0.00775291 -0.875526 -0.483108
v 235.583 -109.957 815.757
vn -0.364993 0.0577141 -0.92922
v 234.591 -108.982 815.545
vn -0.791607 0.090106 -0.60435
v 233.679 -107.758 816.412
vn -0.862676 0.339157 -0.375184
v 232.77 -106.08 818.772
vn 0.911216 -0.216582 -0.350396
v 246.367 -112.631 823.643
vn 0.907386 -0.411067 -0.0876052
v 245.939 -114.84 825.12
vn 0.682279 -0.503404 -0.53017
v 244.927 -116.177 824.064
vn 0.340493 0.864575 -0.36956
v 241.593 -106.909 823.768
vn 0.251706 0.566851 -0.784426
v 240.451 -107.552 822.471
vn 0.0674243 0.0901634 -0.993642
v 240.352 -108.947 821.839
vn 0.245332 0.742276 -0.623569
v 239.169 -107.732 821.753
vn 0.77423 -0.0421503 -0.6315
v 239.117 -108.827 821.384
vn 0.754199 0.549897 -0.358883
v 238.433 -106.914 821.451
vn 0.533449 0.839075 -0.106701
v 236.685 -104.593 821.348
vn 0.491844 0.794414 -0.356364
v 239.079 -106.744 822.893
vn 0.698798 0.70113 -0.141768
v 237.991 -105.91 822.576
vn 0.861635 0.179215 -0.474834
v 238.731 -107.81 821.026
vn 0.493143 0.869916 -0.00743752
v 236.05 -104.463 823.503
vn 0.166612 0.981713 -0.0920875
v 234.399 -103.921 824.006
vn -0.213622 0.924458 -0.315822
v 234.247 -104.241 819.673
vn 0.973975 -0.124549 0.18937
v 246.637 -112.348 828.733
vn 0.232426 0.955385 -0.182258
v 234.468 -102.297 833.811
vn 0.847582 0.516638 0.121201
v 240.806 -106.539 841.369
vn 0.826398 0.560858 0.0500572
v 237.775 -102.063 841.972
vn 0.342649 -0.686124 -0.641737
v 242.353 -117.804 823.478
vn -0.0209354 -0.317899 -0.947893
v 238.389 -118.732 823.797
vn 0.132061 -0.63107 -0.764402
v 235.932 -111.732 821.306
vn 0.0921243 -0.261121 -0.9609
v 237.897 -114.441 822.577
vn -0.0805867 -0.38214 -0.920584
v 234.931 -114.491 822.409
vn -0.557392 -0.678181 -0.478941
v 234.407 -109.903 816.424
vn -0.385634 -0.906952 -0.169481
v 234.655 -110.357 817.326
vn -0.825799 -0.455253 -0.332868
v 233.729 -109.368 816.961
vn 0.11999 -0.983466 -0.135634
v 235.786 -110.476 818.141
vn 0.057829 -0.918206 -0.391858
v 235.543 -110.647 819.671
vn -0.335236 -0.900644 -0.27651
v 234.769 -110.449 819.58
vn -0.690628 -0.677116 -0.254061
v 233.572 -109.719 819.294
vn -0.912961 -0.17433 -0.368933
v 232.489 -107.655 819.434
vn -0.246465 -0.627731 -0.738382
v 234.452 -111.313 820.99
vn -0.665598 -0.479852 -0.571595
v 231.956 -109.644 821.269
vn -0.434061 -0.41336 -0.800453
v 233.445 -112.086 821.787
vn 0.706452 -0.703998 -0.0728886
v 244.154 -117.856 826.089
vn 0.160077 -0.974497 -0.157261
v 240.074 -119.855 825.901
vn -0.749008 -0.404037 -0.525111
v 231.981 -112.125 823.021
vn 0.457751 -0.758838 0.463281
v 242.399 -118.315 832.107
vn 0.769861 -0.369237 0.520555
v 241.8 -110.382 839.008
vn 0.360444 -0.673782 0.645057
v 241.152 -114.763 836.039
vn 0.601239 -0.608663 0.517728
v 238.54 -112.947 839.778
vn -0.103021 -0.806198 0.582607
v 238.384 -115.201 836.101
vn -0.664812 0.718994 -0.202663
v 229.014 -105.945 833.401
vn -0.471901 0.845896 -0.248535
v 230.828 -101.84 839.459
vn 0.626028 -0.682128 0.377875
v 238.141 -109.227 847.155
vn 0.222286 0.957651 -0.183013
v 234.648 -97.2503 860.948
vn 0.972205 0.218777 0.0833858
v 234.475 -96.7921 871.142
vn 0.943512 0.331137 0.0115855
v 232.246 -92.5918 885.917
vn -0.346932 -0.555654 -0.75557
v 234.923 -116.324 823.17
vn -0.563536 -0.442183 -0.697783
v 233.429 -114.795 823.043
vn -0.599188 -0.630034 -0.493994
v 233.916 -116.141 823.701
vn -0.426687 -0.874829 -0.229376
v 236.983 -119.52 825.69
vn -0.66563 -0.714906 0.214118
v 235.556 -118.124 829.609
vn -0.797775 -0.578796 -0.168969
v 232.927 -115.656 824.99
vn -0.946942 -0.222034 -0.232384
v 230.015 -110.903 826.242
vn -0.47374 -0.7482 0.464507
v 236.49 -115.869 834.05
vn -0.310507 -0.861646 0.401436
v 237.665 -118.781 831.378
vn -0.653276 -0.666276 0.359593
v 233.523 -114.264 832.672
vn -0.342006 -0.847872 0.405149
v 235.629 -113.105 838.261
vn -0.566006 -0.786811 0.2461
v 232.608 -111.552 836.899
vn -0.81246 -0.572498 0.110248
v 230.315 -110.039 833.354
vn -0.105516 -0.946826 0.303951
v 235.522 -111.492 842.887
vn 0.138382 -0.960725 0.240535
v 233.759 -104.095 869.164
vn 0.940722 -0.261041 0.216565
v 234.318 -102.126 870.731
vn -0.0184638 -0.966915 0.25443
v 232.053 -102.84 877.56
vn -0.186265 0.94498 -0.26892
v 227.122 -93.7941 869.893
vn 0.858538 -0.460549 0.225405
v 233.186 -101.822 877.989
vn 0.996115 0.0596557 0.0647708
v 232.427 -93.7666 891.5
vn 0.963931 -0.232367 0.129779
v 232.172 -97.1668 889.689
vn 0.734054 -0.631771 0.249058
v 231.4 -98.7649 888.728
vn 0.915332 -0.378774 0.136742
v 231.761 -94.4291 900.58
vn 0.309861 -0.912815 0.265999
v 231.271 -95.1121 900.057
vn 0.999002 0.012851 0.0427734
v 231.894 -90.0999 902.071
vn 0.992869 -0.0861556 0.0823886
v 231.938 -93.8622 899.653
vn 0.536787 0.818207 -0.205906
v 225.32 -81.9556 908.713
vn 0.993905 -0.101896 0.0420823
v 231.833 -88.9458 918.689
vn 0.686899 -0.703808 0.181174
v 231.509 -89.9393 917.722
vn -0.607159 0.747913 -0.268298
v 222.115 -79.0887 920.951
vn 0.476911 0.843279 -0.247862
v 224.786 -77.0317 926.253
vn 0.984851 0.170899 -0.0293502
v 231.493 -85.7637 934.609
vn 0.881411 0.45544 -0.125254
v 230.654 -81.4407 931.634
vn -0.0207853 0.953929 -0.299313
v 223.27 -74.1858 934.114
vn 0.998598 -0.00646919 0.0525288
v 231.907 -78.712 955.154
vn 0.523883 0.807502 -0.271084
v 224.354 -68.0921 954.267
vn -0.110458 0.934932 -0.337196
v 222.89 -68.6878 950.725
vn 0.913173 0.397901 -0.0882631
v 230.652 -73.9412 960.15
vn 0.996419 0.0601434 0.0594278
v 231.172 -76.2724 960.959
vn 0.990175 0.0119342 0.139325
v 230.547 -69.8542 974.29
vn 0.596843 0.765077 -0.241735
v 223.636 -61.718 970.569
vn 0.0612136 0.948013 -0.312287
v 221.202 -58.2918 978.204
vn 0.590753 0.785896 -0.182695
v 222.501 -57.946 981.086
vn 0.757027 0.652963 -0.0234349
v 221.432 -54.2659 996.814
vn 0.221647 0.947955 -0.22859
v 219.944 -53.613 994.326
vn -0.386015 -0.908462 0.160277
v 227.955 -105.742 862.885
vn -0.856881 -0.515498 0.00416567
v 225.526 -103.336 864.95
vn -0.968788 -0.2439 -0.0442983
v 222.956 -98.0362 880.82
vn -0.758835 -0.644904 0.0909295
v 223.499 -98.8996 882.609
vn -0.364686 -0.901394 0.233437
v 223.025 -95.5885 898.481
vn -0.947839 0.277212 -0.157335
v 220.984 -89.5053 900.048
vn -0.916484 -0.398336 0.0372161
v 221.057 -92.2079 904.667
vn 0.139071 -0.962411 0.233289
v 230.082 -90.3205 918.362
vn 0.324406 -0.929838 0.173672
v 230.417 -87.0517 933.533
vn 0.707314 -0.695861 0.124433
v 231.092 -85.425 941.138
vn 0.939131 -0.333165 0.0838671
v 231.63 -83.9649 944.357
vn 0.446717 -0.865905 0.22506
v 230.667 -85.1421 943.987
vn -0.0233979 -0.971593 0.235499
v 229.621 -85.298 944.007
vn 0.72056 -0.651936 0.236163
v 231.142 -81.1545 955.22
vn -0.813871 0.529035 -0.240283
v 219.408 -70.8394 952.087
vn 0.914482 -0.343767 0.213416
v 230.878 -79.0555 961.156
vn 0.555757 -0.739157 0.380501
v 230.286 -79.0268 962.607
vn 0.0987806 -0.936662 0.336016
v 229.637 -79.7659 961.358
vn 0.539144 -0.71838 0.439607
v 229.411 -76.5573 967.657
vn 0.193507 -0.895492 0.400811
v 227.866 -76.7757 968.423
vn -0.0969284 -0.945288 0.311505
v 226.041 -77.1415 967.75
vn 0.220244 -0.928543 0.298831
v 224.844 -74.0746 977.025
vn -0.526423 0.782661 -0.332146
v 215.204 -53.0163 999.152
vn 0.973949 0.219709 0.0561409
v 223.584 -59.2903 1014.12
vn 0.841974 0.538567 -0.0320303
v 223.162 -58.8106 1022.08
vn 0.771107 0.635734 0.035165
v 221.639 -56.9655 1022.89
vn 0.80837 0.587677 0.0342499
v 216.76 -49.6555 1022.47
vn -0.237376 0.927624 -0.288386
v 210.828 -44.685 1027.25
vn 0.519605 0.83296 -0.190229
v 212.546 -43.1158 1037.86
vn -0.222661 -0.944499 0.241543
v 221.118 -86.8296 930.208
vn -0.764154 -0.630312 0.137023
v 219.986 -86.5272 928.59
vn -0.989447 -0.144139 -0.0147504
v 218.325 -80.6948 937.651
vn -0.990578 0.0849922 -0.107382
v 217.345 -72.4756 959.975
vn -0.892913 -0.44745 0.0499558
v 217.791 -75.9269 960.422
vn -0.385484 -0.894898 0.224856
v 219.238 -75.3505 969.147
vn -0.981158 -0.167721 -0.0959096
v 215.813 -70.0509 976.152
vn -0.854951 -0.51864 0.00838061
v 216.217 -71.5048 979.58
vn -0.531725 -0.841823 0.0927516
v 216.434 -71.2092 985.404
vn -0.945651 0.224562 -0.235192
v 213.107 -56.8822 999.661
vn 0.885307 -0.442048 0.144308
v 223.461 -62.4036 1013.7
vn 0.993528 -0.0929578 0.0652775
v 223.547 -60.5448 1023.42
vn 0.817625 -0.563851 0.116452
v 222.894 -61.8092 1023.83
vn 0.592111 0.803767 -0.0579966
v 221.536 -56.5298 1027.17
vn 0.717322 0.690222 0.0950915
v 219.398 -54.8251 1026.53
vn 0.98613 0.0271948 0.16373
v 222.761 -56.6991 1031.71
vn 0.528286 0.848116 -0.0401674
v 222.275 -56.2268 1031.53
vn 0.489473 0.83411 0.254318
v 222.014 -56.1835 1032.39
vn 0.590579 0.705159 0.392386
v 222.177 -56.7655 1033.19
vn 0.870716 -0.16112 0.464644
v 222.396 -58.461 1033.03
vn 0.906146 -0.392038 0.158764
v 222.546 -60.3643 1030.73
vn 0.41196 0.910601 0.0330869
v 219.293 -55.3267 1031.13
vn -0.466885 0.83128 -0.301647
v 206.352 -46.7877 1026.34
vn 0.463381 0.776467 0.427056
v 219.967 -56.4197 1034.76
vn 0.606639 0.759522 0.234766
v 218.648 -55.2542 1034.04
vn 0.899937 0.38659 0.201646
v 216.735 -53.4445 1037.81
vn 0.807864 0.188101 0.558546
v 218.281 -56.171 1036.56
vn 0.931767 0.050912 0.359468
v 217.353 -55.8247 1037.9
vn 0.955479 0.277081 -0.10142
v 216.347 -53.0346 1042.83
vn 0.948117 0.317692 0.0121152
v 215.065 -47.9533 1040.33
vn 0.281071 0.950363 -0.133452
v 210.879 -41.1192 1042.31
vn 0.797349 0.591737 -0.118667
v 213.62 -42.4247 1045.13
vn -0.268488 0.942425 -0.199372
v 206.84 -40.9627 1043.61
vn 0.957817 0.267848 -0.104131
v 217.384 -48.4175 1049.43
vn 0.985906 -0.165631 0.023556
v 217.402 -48.1109 1053.03
vn 0.897069 -0.420343 0.136306
v 217.179 -49.8763 1049.92
vn 0.845133 -0.531128 0.0604404
v 216.377 -49.9714 1053.63
vn 0.711276 0.696024 0.0981738
v 214.552 -43.3435 1051.32
vn 0.748548 0.6629 0.0154543
v 215.669 -45.0852 1051.95
vn 0.33254 0.898071 0.287898
v 213.704 -42.9708 1051.9
vn 0.350174 0.93245 0.0889691
v 211.921 -41.2184 1047.55
vn -0.146192 0.987448 0.0597919
v 206.737 -40.571 1047.91
vn 0.0576512 0.945154 0.321498
v 207.539 -40.9064 1049.56
vn 0.829206 0.558916 0.00553983
v 217.044 -46.2915 1056.1
vn 0.579518 0.812081 0.0684329
v 216.512 -45.8635 1055.93
vn 0.637216 0.742206 0.207573
v 216.861 -46.2214 1056.81
vn 0.989892 -0.0734014 0.121349
v 217.283 -47.6901 1057.32
vn 0.909244 0.382654 0.163864
v 217.254 -46.7823 1057.01
vn 0.976419 -0.0722287 0.203442
v 217.001 -47.4686 1058.71
vn 0.516525 0.71385 0.472885
v 216.662 -46.856 1058.5
vn 0.731383 0.666165 0.145956
v 214.917 -44.3767 1053.16
vn 0.477406 0.836638 0.268551
v 214.232 -43.849 1053.7
vn 0.498433 0.834183 0.236016
v 215.163 -45.0333 1056.35
vn 0.0577724 0.825649 0.561219
v 213.658 -45.0325 1057.04
vn -0.873477 -0.478348 -0.0906677
v 214.492 -69.3399 987.467
vn -0.977552 0.0365485 -0.207498
v 212.536 -64.9757 994.997
vn -0.126304 -0.983988 0.125757
v 212.635 -68.6665 1000.21
vn -0.95917 0.148704 -0.240583
v 209.388 -65.4083 1006.88
vn 0.810485 -0.576907 0.101451
v 219.318 -67.367 1013.77
vn 0.905964 -0.409866 -0.106012
v 220.258 -63.7286 1028.84
vn 0.916781 -0.172731 -0.360106
v 220.194 -66.5615 1029.53
vn 0.894356 -0.447284 -0.00800306
v 218.482 -67.9863 1025.79
vn 0.935271 -0.352183 0.0351409
v 221 -62.8713 1030.79
vn 0.879558 -0.295682 0.37276
v 220.563 -62.9879 1032.3
vn 0.967849 -0.140127 -0.208884
v 220.726 -64.4917 1031.33
vn 0.812655 -0.220868 0.539268
v 219.207 -60.2713 1036.51
vn 0.711151 0.0415903 0.701808
v 218.87 -59.7489 1037.06
vn 0.689807 -0.0412471 0.722817
v 216.901 -59.2252 1038.79
vn 0.488277 -0.158813 0.858116
v 214.897 -60.8862 1040.04
vn 0.810909 -0.131383 0.570232
v 215.938 -57.8385 1040.02
vn 0.741091 -0.496638 0.451813
v 214.979 -57.2577 1042.01
vn 0.640668 -0.3692 0.673228
v 214.849 -58.4529 1041.05
vn 0.539313 -0.598383 0.59252
v 213.093 -58.0938 1042.97
vn -0.840542 0.329554 -0.42998
v 201.408 -46.7683 1036.54
vn 0.620827 -0.733342 0.277098
v 215.924 -52.1287 1048.43
vn 0.713074 -0.701088 -0.000856286
v 214.623 -52.2823 1053.62
vn 0.892236 -0.436377 0.116148
v 215.54 -52.0287 1060.96
vn 0.782308 -0.565904 0.260283
v 214.407 -53.78 1061.52
vn 0.942474 -0.323726 0.0833352
v 216.639 -49.7177 1058.73
vn -0.324015 0.84765 0.420124
v 203.494 -42.8699 1052.99
vn 0.78074 -0.34503 0.520961
v 215.116 -52.3631 1061.8
vn 0.48342 -0.387152 0.785123
v 214.081 -53.5023 1062.15
vn 0.273988 0.56128 0.780958
v 215.695 -48.1597 1060.58
vn -0.132732 0.677872 0.723099
v 214.708 -48.1918 1060.48
vn 0.862706 -0.0591981 0.502229
v 216.017 -50.3938 1061.16
vn -0.00947647 0.39726 0.917657
v 214.186 -50.2996 1061.96
vn -0.0619704 0.521125 0.851228
v 212.708 -49.902 1061.58
vn 0.348058 0.0418411 0.936539
v 214.679 -51.7124 1062.42
vn 0.0403174 -0.993933 -0.102328
v 209.935 -67.4035 1011.27
vn -0.177257 -0.912095 -0.369678
v 209.306 -68.8498 1017.66
vn -0.923395 0.238646 -0.30065
v 206.836 -65.4449 1017.91
vn 0.870135 -0.490773 -0.0447999
v 217.704 -69.3379 1025.49
vn 0.27995 -0.927566 -0.247488
v 216.375 -69.9536 1025.66
vn 0.675292 -0.6001 -0.428789
v 217.668 -69.8321 1027.13
vn 0.875166 -0.418058 -0.24354
v 220.333 -69.963 1032.44
vn 0.511914 -0.836055 -0.197374
v 218.946 -72.2086 1033.9
vn 0.926116 -0.0289205 0.376129
v 219.082 -71.9254 1035.29
vn 0.930547 0.115557 0.347461
v 218.547 -71.0102 1036.44
vn 0.963065 -0.0988504 0.250468
v 218.543 -71.968 1036.68
vn 0.924672 0.270976 0.267495
v 218.194 -71.7851 1038.17
vn 0.935691 -0.322372 0.143383
v 218.288 -72.6451 1036.99
vn 0.981596 -0.177947 0.0693125
v 218.329 -72.4781 1037.67
vn 0.222212 -0.932632 -0.284287
v 216.656 -73.0496 1036.33
vn 0.854028 -0.503068 -0.132512
v 218.019 -73.1248 1037.88
vn -0.856201 0.223867 -0.465621
v 204.044 -58.0872 1032.33
vn 0.787783 0.347594 0.508504
v 217.317 -71.1947 1039.42
vn 0.913879 0.211892 0.346305
v 218.148 -73.2095 1040.13
vn 0.570412 0.349308 0.74338
v 215.944 -70.1483 1040.48
vn 0.844432 -0.0229707 0.53517
v 217.601 -65.5394 1037.51
vn 0.50256 0.0740136 0.861368
v 214.935 -65.142 1039.83
vn 0.226513 -0.0788754 0.970809
v 213.029 -63.9636 1040.53
vn 0.0837143 0.130436 0.987916
v 212.64 -66.6209 1040.68
vn -0.126832 -0.0622758 0.989967
v 210.948 -64.8588 1040.63
vn 0.354257 -0.311635 0.881695
v 212.403 -62.1314 1040.98
vn -0.634113 0.429621 -0.642904
v 202.458 -57.8553 1034.42
vn -0.02516 -0.356231 0.934059
v 210.451 -61.9926 1041.26
vn 0.38515 -0.768565 0.51085
v 209.714 -60.3347 1042.15
vn -0.848854 0.0397644 -0.52713
v 200.745 -49.9011 1037.58
vn -0.857943 0.110361 -0.501752
v 197.857 -49.7051 1041.86
vn 0.303837 -0.858055 0.414034
v 209.889 -56.2497 1048.16
vn -0.0361157 -0.995239 0.0905256
v 208.017 -55.9614 1050.22
vn -0.207301 -0.910421 0.357995
v 206.821 -56.5899 1046.7
vn -0.889533 0.363259 -0.277081
v 197.021 -47.8893 1044.92
vn 0.438258 -0.896861 0.0597575
v 210.711 -55.2617 1050.81
vn 0.525033 -0.826741 -0.20209
v 211.473 -55.0149 1054.22
vn 0.48559 -0.797077 -0.358986
v 210.437 -56.4319 1056.2
vn 0.176094 -0.947662 -0.266323
v 208.449 -56.1956 1054.02
vn -0.229171 -0.938141 -0.259563
v 206.281 -56.1458 1054.67
vn -0.619124 0.773835 -0.133658
v 198.52 -44.7213 1046.85
vn -0.817446 0.566302 0.105287
v 197.017 -46.2406 1050.27
vn 0.773894 -0.620876 -0.124905
v 213.593 -54.7753 1058.87
vn 0.611784 -0.785449 -0.0937589
v 210.696 -58.4163 1060.76
vn 0.435342 -0.682539 0.587042
v 210.691 -58.2057 1061.43
vn 0.151382 -0.37621 0.914084
v 210.282 -57.6321 1061.9
vn 0.122656 -0.159288 0.979583
v 211.242 -55.3815 1062.37
vn 0.000521868 0.159471 0.987202
v 211.716 -52.753 1062.42
vn 0.0190772 0.0479574 0.998667
v 207.739 -52.5789 1062.91
vn -0.258474 0.485411 0.835205
v 204.28 -51.2167 1062.28
vn -0.771767 -0.199694 -0.603737
v 201.94 -67.7413 1027.48
vn 0.252938 -0.884948 -0.391011
v 217.018 -73.9307 1038.59
vn -0.684124 0.478145 -0.550774
v 203.173 -62.2575 1029.28
vn -0.657113 0.475779 -0.584668
v 198.195 -62.3341 1032.85
vn 0.397757 -0.857477 -0.326379
v 217.711 -74.3021 1039.75
vn 0.848665 -0.521878 0.0860884
v 217.944 -74.3167 1040.5
vn 0.789167 0.0525889 0.611923
v 217.705 -73.8858 1041.09
vn 0.378581 -0.925156 -0.0276382
v 217.325 -74.6729 1040.6
vn 0.632769 -0.55687 0.538052
v 217.359 -74.4986 1041.28
vn 0.604185 0.0822328 0.79259
v 216.944 -73.903 1041.81
vn 0.41806 -0.884911 0.205325
v 216.708 -74.8257 1041.38
vn 0.549055 -0.436772 0.712579
v 216.518 -74.4407 1041.98
vn 0.656732 0.422534 0.624635
v 217.443 -72.695 1040.69
vn 0.191051 -0.949926 -0.247267
v 216.473 -74.8339 1040.54
vn 0.444933 0.387568 0.807357
v 215.416 -73.1477 1042.42
vn 0.615583 -0.642148 0.456841
v 215.595 -75.1517 1042.19
vn 0.592537 -0.0575945 0.803482
v 215.598 -74.3082 1042.64
vn 0.0248804 0.491654 0.870435
v 212.428 -71.9971 1042.71
vn 0.388146 -0.920784 -0.038717
v 214.761 -75.6037 1042.32
vn 0.420934 0.344599 0.839086
v 213.898 -74.2377 1043.82
vn 0.265062 -0.923945 -0.275805
v 213.841 -75.8875 1042.39
vn 0.415767 -0.900648 -0.126377
v 214.313 -75.9163 1043.15
vn 0.710648 -0.270172 0.649604
v 214.208 -75.6112 1043.78
vn 0.197227 0.321253 0.926228
v 213.44 -68.3951 1041.01
vn -0.170506 0.107169 0.979511
v 210.964 -66.9516 1040.63
vn -0.185699 0.296094 0.936933
v 211.458 -69.3404 1041.29
vn -0.410064 0.107412 0.90571
v 209.817 -68.2534 1040.4
vn -0.412083 0.411353 0.813004
v 209.982 -70.8772 1041.38
vn -0.355132 -0.284016 0.890627
v 207.505 -63.6697 1039.49
vn -0.706095 0.300776 -0.641065
v 201.059 -56.8604 1036.26
vn -0.566096 0.559117 -0.605742
v 200.621 -57.4645 1036.17
vn -0.87493 0.278564 -0.396105
v 199.838 -56.0326 1038.16
vn -0.787738 0.512006 -0.342517
v 199.304 -57.82 1037.27
vn -0.383865 -0.338158 0.859242
v 199.113 -60.5724 1037.79
vn -0.954668 0.279997 0.101044
v 197.852 -61.1918 1036.89
vn -0.888918 0.0155599 -0.457802
v 199.382 -55.4578 1039.43
vn -0.933878 0.320576 0.158437
v 199.574 -57.391 1039.35
vn -0.415453 -0.453573 0.788461
v 200.442 -57.2543 1040.07
vn -0.344272 -0.811102 0.472853
v 199.801 -56.3207 1040.47
vn -0.959413 -0.157351 -0.234024
v 196.897 -51.4351 1043.16
vn -0.919104 -0.387547 0.0711042
v 197.441 -53.5894 1052.78
vn -0.997356 0.0637374 -0.0349121
v 196.044 -48.9652 1048.21
vn 0.213665 -0.920753 -0.326438
v 209.712 -58.6344 1060.06
vn 0.219988 -0.963714 0.151198
v 210.046 -58.7434 1060.85
vn -0.15557 -0.916495 -0.368558
v 206.911 -58.1826 1058.72
vn 0.00684868 -0.787747 0.615961
v 207.514 -58.6234 1061.47
vn -0.122981 -0.992289 -0.0154522
v 206.575 -58.8282 1060.77
vn -0.372148 -0.896738 -0.239511
v 203.409 -57.8579 1061.08
vn -0.0830024 -0.404147 0.91092
v 204.334 -57.4445 1062.45
vn -0.271003 -0.927245 0.258408
v 203.21 -57.8026 1061.79
vn -0.649547 0.135673 0.748119
v 200.373 -53.7193 1061.04
vn -0.34303 -0.90211 -0.261778
v 199.549 -54.9054 1057.74
vn -0.896146 -0.263743 0.356878
v 198.665 -53.6619 1058.77
vn -0.716194 -0.311853 0.62435
v 200.478 -55.7289 1061
vn -0.468248 -0.869092 -0.159442
v 200.36 -56.0869 1060.38
vn -0.675037 0.595585 0.435434
v 197.883 -47.7015 1055.24
vn -0.444932 0.618879 0.647321
v 199.51 -48.6166 1057.82
vn -0.958733 0.1035 0.2648
v 196.708 -49.5669 1054.35
vn -0.717424 0.325591 0.615867
v 198.162 -49.4314 1057.31
vn -0.377335 -0.0946436 0.921228
v 202.263 -55.409 1062.43
vn -0.598384 -0.666872 -0.444092
v 201.825 -73.22 1032.89
vn -0.648124 0.125344 0.751149
v 206.611 -70.4719 1037.93
vn -0.0171441 -0.986139 -0.165032
v 207.213 -76.3049 1037.88
vn -0.640531 0.0359732 0.767089
v 205.651 -74.6296 1038
vn -0.278435 -0.959608 0.0403333
v 206.774 -76.1186 1039.28
vn -0.0198989 -0.978293 -0.206267
v 205.576 -76.1242 1037.03
vn -0.416028 -0.770929 0.482276
v 204.998 -75.4947 1037.54
vn -0.507997 -0.183287 0.841632
v 200.752 -70.3956 1035.04
vn -0.652145 -0.577334 -0.491317
v 200.093 -71.7946 1033.17
vn -0.790626 -0.298346 0.534697
v 200.949 -72.3595 1034.87
vn -0.463819 -0.258639 0.847336
v 199.627 -70.8129 1034.3
vn -0.826145 0.008147 -0.563399
v 197.054 -66.0048 1033.32
vn -0.755723 -0.596497 0.270321
v 198.655 -69.8683 1033.95
vn -0.748925 -0.382826 -0.540884
v 198.223 -69.3444 1033.76
vn -0.846234 -0.414497 0.334785
v 198.282 -69.0141 1034.48
vn 0.385356 -0.901966 -0.194826
v 213.679 -76.2579 1043.25
vn 0.549973 -0.832777 0.0633398
v 213.774 -76.1418 1043.95
vn -0.0867082 0.545395 0.833682
v 211.906 -74.1084 1044.19
vn 0.503434 -0.842191 0.193052
v 213.224 -76.5633 1044.08
vn 0.488068 -0.0867759 0.868481
v 212.892 -75.9851 1044.83
vn 0.168812 0.335973 0.92662
v 212.39 -75.4227 1044.94
vn 0.542824 -0.65255 0.528697
v 212.499 -76.6144 1044.81
vn 0.0262517 0.00878141 0.999617
v 211.894 -75.8951 1045.08
vn -0.214875 0.3897 0.895524
v 211.401 -75.4337 1044.9
vn 0.341781 -0.93895 -0.0394716
v 211.808 -77.1086 1044.22
vn -0.571328 0.331669 0.750719
v 209.937 -75.1944 1044.06
vn -0.181799 -0.210522 0.960536
v 211.406 -76.4555 1044.97
vn -0.404115 0.00509068 0.914694
v 210.91 -75.9589 1044.89
vn 0.0658284 -0.996749 -0.0464648
v 210.724 -77.2322 1043.48
vn -0.0785671 -0.922632 0.377595
v 210.169 -77.0257 1044.14
vn -0.651004 -0.164114 0.741121
v 209.635 -76.5998 1043.98
vn -0.249266 -0.966762 -0.0568985
v 207.942 -76.6313 1040.23
vn -0.822764 -0.482679 0.300132
v 208.394 -76.646 1041.73
vn -0.092031 -0.995756 9.07723e-005
v 209.356 -77.1107 1043.4
vn -0.849075 -0.0921895 0.520166
v 208.956 -76.5067 1043.18
vn -0.829373 0.021245 0.558291
v 207.465 -74.7808 1040.33
vn -0.842692 -0.281293 0.459069
v 207.573 -75.9216 1040.36
vn -0.374156 -0.280982 0.883774
v 197.695 -63.7 1036.26
vn -0.833458 0.383768 -0.397581
v 197.104 -62.4121 1035.06
vn -0.344298 -0.853953 -0.390158
v 203.289 -75.8389 1036.12
vn -0.50896 -0.0170246 0.860622
v 203.227 -75.5752 1036.77
vn -0.803486 -0.165795 0.571771
v 201.912 -74.5423 1035.64
vn 0.116892 -0.166881 -0.979024
v 238.879 -110.522 821.808
vn -0.728242 -0.360018 -0.583139
v 234.591 -108.982 815.545
vn 0.787665 0.386781 -0.479567
v 239.169 -107.732 821.753
vn 0.442442 0.267173 -0.856075
v 239.169 -107.732 821.753
vn 0.398423 0.317112 -0.860639
v 239.117 -108.827 821.384
vn 0.309378 -0.271412 -0.911384
v 239.117 -108.827 821.384
vn -0.572217 0.805418 -0.154497
v 234.399 -103.921 824.006
vn 0.935774 -0.113123 0.333961
v 240.806 -106.539 841.369
vn 0.302107 0.935051 -0.185501
v 237.775 -102.063 841.972
vn -0.1067 -0.836114 -0.538079
v 238.389 -118.732 823.797
vn -0.0409812 -0.888205 0.457616
v 238.54 -112.947 839.778
vn -0.955201 0.163357 -0.246792
v 229.014 -105.945 833.401
vn -0.981591 -0.181354 -0.0599074
v 229.014 -105.945 833.401
vn 0.904672 -0.281788 0.319631
v 238.141 -109.227 847.155
vn 0.185678 -0.910541 0.369376
v 238.141 -109.227 847.155
vn 0.845493 0.533898 -0.00966505
v 234.648 -97.2503 860.948
vn 0.519144 0.839481 -0.160504
v 232.246 -92.5918 885.917
vn 0.803633 -0.549481 0.228572
v 233.759 -104.095 869.164
vn 0.583059 -0.764847 0.273955
v 232.053 -102.84 877.56
vn 0.0211245 -0.945145 0.325966
v 231.4 -98.7649 888.728
vn 0.716026 0.685506 -0.131863
v 231.894 -90.0999 902.071
vn 0.808702 -0.577814 0.110147
v 231.493 -85.7637 934.609
vn 0.979982 -0.064393 0.188383
v 230.547 -69.8542 974.29
vn 0.54099 0.830719 -0.131286
v 210.828 -44.685 1027.25
vn 0.898495 0.433873 -0.0667906
v 212.546 -43.1158 1037.86
vn 0.707877 0.696253 0.118924
v 222.761 -56.6991 1031.71
vn 0.775466 0.153107 0.612545
v 222.177 -56.7655 1033.19
vn -0.925726 0.115708 -0.36006
v 206.352 -46.7877 1026.34
vn 0.658451 0.268876 0.702956
v 219.967 -56.4197 1034.76
vn 0.501185 0.787188 0.359371
v 218.281 -56.171 1036.56
vn 0.952703 -0.278907 0.120701
v 216.347 -53.0346 1042.83
vn 0.712177 0.459655 0.530585
v 217.001 -47.4686 1058.71
vn -0.784062 -0.612878 -0.0981196
v 212.635 -68.6665 1000.21
vn -0.781577 -0.603201 -0.159015
v 209.388 -65.4083 1006.88
vn 0.0797002 -0.99679 -0.00754812
v 219.318 -67.367 1013.77
vn 0.919699 -0.0725193 0.38587
v 220.726 -64.4917 1031.33
vn 0.0861659 -0.449736 0.888996
v 213.093 -58.0938 1042.97
vn -0.767907 -0.613834 -0.183103
v 209.935 -67.4035 1011.27
vn -0.772196 -0.535604 -0.341821
v 206.836 -65.4449 1017.91
vn 0.395142 -0.901191 -0.178097
v 217.704 -69.3379 1025.49
vn 0.8985 -0.435604 -0.054279
v 217.668 -69.8321 1027.13
vn 0.902004 0.0391563 0.429948
v 220.333 -69.963 1032.44
vn 0.803041 -0.594395 0.0426685
v 219.082 -71.9254 1035.29
vn 0.741613 -0.667799 0.0636739
v 218.288 -72.6451 1036.99
vn 0.366734 -0.892313 -0.263218
v 218.288 -72.6451 1036.99
vn 0.394094 -0.832597 -0.389194
v 218.019 -73.1248 1037.88
vn -0.239206 -0.626943 0.741433
v 209.714 -60.3347 1042.15
vn 0.724416 -0.565852 0.393744
v 214.313 -75.9163 1043.15
vn -0.5027 -0.275323 0.819445
v 197.852 -61.1918 1036.89
vn -0.87107 -0.488186 -0.0539575
v 199.382 -55.4578 1039.43
vn -0.950172 -0.105704 0.293256
v 199.382 -55.4578 1039.43
vn -0.539707 -0.419542 0.729864
v 199.574 -57.391 1039.35
vn -0.949352 -0.0819657 -0.303334
v 199.574 -57.391 1039.35
vn -0.950172 -0.105704 0.293256
v 199.574 -57.391 1039.35
vn -0.871569 -0.486984 -0.0566832
v 199.801 -56.3207 1040.47
vn -0.950172 -0.105704 0.293256
v 199.801 -56.3207 1040.47
vn -0.224887 -0.973735 -0.0355866
v 197.441 -53.5894 1052.78
vn -0.516785 -0.480476 0.708573
v 203.21 -57.8026 1061.79
vn -0.785092 -0.615476 0.0694268
v 199.549 -54.9054 1057.74
vn -0.791369 -0.53802 0.290293
v 200.36 -56.0869 1060.38
vn -0.752946 -0.118296 0.647363
v 206.774 -76.1186 1039.28
vn -0.567319 -0.765575 0.303388
v 206.774 -76.1186 1039.28
vn -0.362194 -0.822424 0.438674
v 205.576 -76.1242 1037.03
vn -0.543324 -0.0362719 0.838739
v 204.998 -75.4947 1037.54
vn -0.809571 -0.540525 0.228971
v 200.093 -71.7946 1033.17
vn -0.73913 -0.605756 0.294526
v 199.627 -70.8129 1034.3
vn -0.927683 -0.22155 0.300534
v 197.054 -66.0048 1033.32
vn -0.846988 -0.491229 0.203237
v 198.223 -69.3444 1033.76
vn -0.394486 -0.358728 0.845988
v 198.282 -69.0141 1034.48
vn 0.66484 -0.463812 0.585548
v 213.774 -76.1418 1043.95
vn 0.166477 -0.225481 0.959918
v 212.499 -76.6144 1044.81
vn -0.015196 -0.759579 0.650237
v 212.499 -76.6144 1044.81
vn -0.0497223 -0.850704 0.523288
v 211.808 -77.1086 1044.22
vn -0.0424425 -0.766081 0.641341
v 211.406 -76.4555 1044.97
vn -0.495203 -0.343771 0.797869
v 210.169 -77.0257 1044.14
vn -0.750942 -0.558592 0.352222
v 207.942 -76.6313 1040.23
vn -0.734316 -0.479886 0.480094
v 209.356 -77.1107 1043.4
vn -0.92139 -0.135981 0.364075
v 197.695 -63.7 1036.26
vn -0.955082 0.0688314 0.288236
v 197.104 -62.4121 1035.06
vn -0.249726 -0.904974 0.34447
v 203.289 -75.8389 1036.12
vn -0.708271 -0.674857 0.207171
v 203.289 -75.8389 1036.12
vn -0.249372 -0.831342 0.496673
v 203.227 -75.5752 1036.77
vn -0.708271 -0.674857 0.207171
v 203.227 -75.5752 1036.77
vn -0.605962 -0.724113 -0.329347
v 201.912 -74.5423 1035.64
vn -0.708271 -0.674857 0.207171
v 201.912 -74.5423 1035.64
f 2//2 8//8 4//4
f 4//4 45//45 1//1
f 3//3 58//58 42//42
f 3//3 2//2 1//1
f 3//3 42//42 2//2
f 2//2 4//4 1//1
f 58//58 3//3 1//1
f 4//4 12//12 46//46
f 46//46 45//45 4//4
f 31//31 5//5 6//6
f 5//5 7//7 6//6
f 2//2 42//42 10//10
f 10//10 8//8 2//2
f 10//10 11//11 9//9
f 8//8 10//10 9//9
f 10//10 42//42 44//44
f 10//10 44//44 11//11
f 62//62 11//11 44//44
f 9//9 12//12 8//8
f 12//12 4//4 8//8
f 13//13 9//9 11//11
f 13//13 12//12 9//9
f 13//13 11//11 14//14
f 14//14 47//47 13//13
f 54//54 15//15 30//30
f 17//17 15//15 49//49
f 15//15 54//54 49//49
f 16//16 30//30 15//15
f 14//14 65//65 406//406
f 18//18 16//16 15//15
f 15//15 19//19 18//18
f 15//15 17//17 19//19
f 19//19 71//71 18//18
f 65//65 19//19 17//17
f 20//20 57//57 51//51
f 21//21 27//27 22//22
f 27//27 28//28 23//23
f 22//22 27//27 23//23
f 28//28 34//34 24//24
f 23//23 28//28 24//24
f 22//22 25//25 21//21
f 22//22 23//23 25//25
f 23//23 20//20 25//25
f 23//23 24//24 20//20
f 30//30 21//21 26//26
f 21//21 25//25 26//26
f 26//26 25//25 20//20
f 24//24 29//29 20//20
f 29//29 57//57 20//20
f 30//30 26//26 54//54
f 33//33 31//31 27//27
f 31//31 32//32 28//28
f 27//27 31//31 28//28
f 28//28 32//32 34//34
f 33//33 21//21 30//30
f 27//27 21//21 33//33
f 34//34 29//29 24//24
f 34//34 35//35 29//29
f 29//29 35//35 57//57
f 33//33 36//36 5//5
f 31//31 33//33 5//5
f 32//32 31//31 6//6
f 6//6 34//34 32//32
f 36//36 33//33 37//37
f 37//37 33//33 30//30
f 37//37 30//30 16//16
f 5//5 36//36 38//38
f 5//5 38//38 7//7
f 39//39 6//6 7//7
f 34//34 6//6 39//39
f 34//34 39//39 40//40
f 34//34 40//40 35//35
f 37//37 16//16 18//18
f 36//36 37//37 70//70
f 407//407 69//69 40//40
f 18//18 70//70 37//37
f 41//41 35//35 40//40
f 35//35 41//41 57//57
f 78//78 43//43 58//58
f 44//44 42//42 43//43
f 43//43 42//42 58//58
f 45//45 46//46 52//52
f 45//45 52//52 59//59
f 47//47 12//12 13//13
f 46//46 12//12 47//47
f 46//46 48//48 52//52
f 47//47 410//410 46//46
f 408//408 49//49 54//54
f 410//410 409//409 46//46
f 411//411 47//47 406//406
f 47//47 14//14 406//406
f 408//408 54//54 50//50
f 26//26 53//53 50//50
f 20//20 51//51 26//26
f 50//50 52//52 408//408
f 50//50 53//53 52//52
f 53//53 26//26 51//51
f 52//52 53//53 55//55
f 53//53 51//51 55//55
f 54//54 26//26 50//50
f 59//59 52//52 55//55
f 55//55 51//51 56//56
f 51//51 57//57 56//56
f 86//86 412//412 57//57
f 41//41 86//86 57//57
f 60//60 58//58 1//1
f 413//413 82//82 58//58
f 45//45 59//59 1//1
f 55//55 56//56 59//59
f 56//56 87//87 59//59
f 1//1 61//61 60//60
f 1//1 59//59 414//414
f 414//414 59//59 109//109
f 109//109 89//89 414//414
f 62//62 63//63 11//11
f 11//11 65//65 14//14
f 63//63 65//65 11//11
f 62//62 79//79 415//415
f 415//415 95//95 92//92
f 65//65 66//66 19//19
f 66//66 64//64 19//19
f 19//19 64//64 71//71
f 66//66 75//75 64//64
f 63//63 66//66 65//65
f 77//77 75//75 66//66
f 66//66 93//93 77//77
f 92//92 66//66 63//63
f 92//92 93//93 66//66
f 67//67 7//7 38//38
f 407//407 7//7 67//67
f 69//69 407//407 67//67
f 36//36 70//70 38//38
f 38//38 70//70 68//68
f 38//38 68//68 67//67
f 67//67 68//68 69//69
f 70//70 72//72 68//68
f 69//69 74//74 40//40
f 71//71 72//72 70//70
f 18//18 71//71 70//70
f 40//40 74//74 41//41
f 73//73 68//68 72//72
f 69//69 68//68 73//73
f 69//69 73//73 74//74
f 73//73 76//76 74//74
f 71//71 75//75 72//72
f 64//64 75//75 71//71
f 72//72 75//75 76//76
f 73//73 72//72 76//76
f 75//75 77//77 76//76
f 44//44 78//78 62//62
f 78//78 44//44 43//43
f 78//78 58//58 81//81
f 79//79 78//78 81//81
f 100//100 79//79 81//81
f 79//79 62//62 78//78
f 76//76 98//98 74//74
f 41//41 74//74 98//98
f 41//41 98//98 417//417
f 77//77 80//80 76//76
f 93//93 80//80 77//77
f 80//80 98//98 76//76
f 97//97 80//80 93//93
f 82//82 81//81 58//58
f 83//83 81//81 82//82
f 81//81 83//83 85//85
f 86//86 87//87 412//412
f 83//83 82//82 84//84
f 85//85 83//83 416//416
f 88//88 84//84 82//82
f 419//419 82//82 413//413
f 416//416 420//420 105//105
f 87//87 109//109 59//59
f 109//109 87//87 86//86
f 90//90 60//60 61//61
f 90//90 107//107 413//413
f 61//61 421//421 90//90
f 421//421 91//91 90//90
f 90//90 91//91 111//111
f 422//422 89//89 109//109
f 111//111 91//91 116//116
f 95//95 94//94 92//92
f 93//93 92//92 94//94
f 95//95 415//415 79//79
f 96//96 97//97 95//95
f 95//95 100//100 96//96
f 95//95 79//79 100//100
f 94//94 97//97 93//93
f 95//95 97//97 94//94
f 97//97 98//98 80//80
f 97//97 96//96 104//104
f 98//98 97//97 104//104
f 101//101 104//104 96//96
f 81//81 85//85 100//100
f 100//100 85//85 99//99
f 85//85 102//102 99//99
f 100//100 99//99 101//101
f 101//101 99//99 103//103
f 96//96 100//100 101//101
f 101//101 103//103 104//104
f 418//418 98//98 104//104
f 99//99 102//102 103//103
f 416//416 102//102 85//85
f 105//105 102//102 416//416
f 102//102 105//105 103//103
f 137//137 103//103 105//105
f 103//103 137//137 104//104
f 138//138 104//104 137//137
f 104//104 138//138 418//418
f 105//105 420//420 106//106
f 419//419 413//413 107//107
f 423//423 419//419 107//107
f 105//105 106//106 137//137
f 137//137 106//106 108//108
f 141//141 137//137 108//108
f 423//423 107//107 110//110
f 424//424 423//423 110//110
f 90//90 112//112 110//110
f 424//424 110//110 113//113
f 113//113 110//110 112//112
f 110//110 107//107 90//90
f 108//108 425//425 141//141
f 90//90 111//111 112//112
f 86//86 142//142 109//109
f 418//418 139//139 142//142
f 115//115 113//113 114//114
f 113//113 112//112 114//114
f 141//141 425//425 115//115
f 115//115 166//166 141//141
f 116//116 112//112 111//111
f 116//116 117//117 112//112
f 112//112 117//117 114//114
f 115//115 114//114 120//120
f 144//144 115//115 120//120
f 114//114 117//117 116//116
f 426//426 422//422 118//118
f 422//422 109//109 118//118
f 116//116 119//119 114//114
f 120//120 114//114 119//119
f 109//109 125//125 118//118
f 121//121 125//125 109//109
f 118//118 125//125 122//122
f 142//142 121//121 109//109
f 116//116 124//124 119//119
f 426//426 118//118 124//124
f 145//145 144//144 120//120
f 118//118 122//122 124//124
f 123//123 119//119 124//124
f 147//147 123//123 124//124
f 120//120 119//119 427//427
f 120//120 427//427 145//145
f 145//145 427//427 146//146
f 146//146 427//427 147//147
f 142//142 151//151 121//121
f 121//121 128//128 125//125
f 128//128 121//121 151//151
f 124//124 127//127 132//132
f 122//122 127//127 124//124
f 125//125 128//128 122//122
f 122//122 128//128 127//127
f 132//132 129//129 124//124
f 147//147 124//124 126//126
f 126//126 124//124 129//129
f 129//129 130//130 126//126
f 128//128 132//132 127//127
f 130//130 152//152 126//126
f 152//152 130//130 131//131
f 129//129 132//132 131//131
f 129//129 131//131 130//130
f 133//133 134//134 132//132
f 132//132 134//134 131//131
f 132//132 128//128 133//133
f 151//151 159//159 128//128
f 159//159 133//133 128//128
f 131//131 134//134 135//135
f 134//134 136//136 135//135
f 134//134 133//133 136//136
f 159//159 136//136 133//133
f 138//138 137//137 140//140
f 137//137 141//141 140//140
f 138//138 139//139 418//418
f 138//138 140//140 139//139
f 140//140 143//143 139//139
f 140//140 141//141 143//143
f 139//139 143//143 142//142
f 166//166 115//115 144//144
f 143//143 168//168 142//142
f 141//141 167//167 143//143
f 141//141 166//166 167//167
f 167//167 168//168 143//143
f 144//144 145//145 166//166
f 145//145 149//149 166//166
f 146//146 148//148 145//145
f 149//149 145//145 148//148
f 169//169 142//142 168//168
f 148//148 146//146 147//147
f 148//148 147//147 150//150
f 154//154 149//149 148//148
f 150//150 154//154 148//148
f 166//166 149//149 154//154
f 142//142 169//169 151//151
f 147//147 126//126 150//150
f 150//150 126//126 152//152
f 150//150 152//152 153//153
f 153//153 152//152 131//131
f 150//150 153//153 154//154
f 166//166 154//154 157//157
f 171//171 166//166 157//157
f 153//153 131//131 155//155
f 153//153 155//155 156//156
f 156//156 154//154 153//153
f 154//154 156//156 157//157
f 156//156 158//158 157//157
f 158//158 155//155 131//131
f 158//158 156//156 155//155
f 151//151 169//169 175//175
f 151//151 175//175 159//159
f 176//176 158//158 131//131
f 428//428 160//160 176//176
f 159//159 164//164 136//136
f 159//159 188//188 164//164
f 433//433 159//159 175//175
f 160//160 131//131 135//135
f 160//160 135//135 161//161
f 135//135 162//162 161//161
f 135//135 136//136 429//429
f 161//161 162//162 179//179
f 179//179 162//162 180//180
f 180//180 162//162 163//163
f 429//429 163//163 135//135
f 135//135 163//163 162//162
f 163//163 429//429 165//165
f 429//429 196//196 165//165
f 165//165 196//196 197//197
f 167//167 170//170 168//168
f 169//169 168//168 170//170
f 166//166 171//171 167//167
f 167//167 171//171 170//170
f 157//157 158//158 171//171
f 170//170 172//172 169//169
f 171//171 158//158 174//174
f 174//174 170//170 171//171
f 169//169 172//172 175//175
f 170//170 173//173 172//172
f 170//170 174//174 173//173
f 220//220 172//172 173//173
f 173//173 174//174 220//220
f 172//172 221//221 175//175
f 222//222 174//174 158//158
f 176//176 160//160 177//177
f 178//178 176//176 177//177
f 178//178 224//224 176//176
f 177//177 160//160 161//161
f 186//186 178//178 177//177
f 225//225 224//224 178//178
f 225//225 178//178 186//186
f 161//161 179//179 182//182
f 161//161 181//181 177//177
f 161//161 182//182 431//431
f 179//179 187//187 182//182
f 182//182 183//183 431//431
f 187//187 183//183 182//182
f 184//184 431//431 183//183
f 184//184 183//183 189//189
f 181//181 186//186 177//177
f 181//181 185//185 186//186
f 185//185 181//181 432//432
f 229//229 186//186 185//185
f 231//231 229//229 185//185
f 225//225 186//186 228//228
f 228//228 186//186 229//229
f 179//179 180//180 187//187
f 187//187 180//180 190//190
f 187//187 190//190 183//183
f 180//180 191//191 190//190
f 180//180 163//163 191//191
f 185//185 432//432 232//232
f 232//232 432//432 434//434
f 232//232 434//434 192//192
f 185//185 232//232 231//231
f 183//183 190//190 189//189
f 190//190 435//435 189//189
f 192//192 190//190 191//191
f 163//163 195//195 191//191
f 192//192 191//191 193//193
f 235//235 192//192 193//193
f 198//198 196//196 164//164
f 164//164 188//188 198//198
f 191//191 195//195 193//193
f 193//193 195//195 194//194
f 436//436 236//236 193//193
f 195//195 430//430 197//197
f 163//163 430//430 195//195
f 197//197 194//194 195//195
f 201//201 436//436 199//199
f 236//236 436//436 201//201
f 240//240 201//201 241//241
f 194//194 197//197 199//199
f 196//196 206//206 197//197
f 206//206 196//196 207//207
f 207//207 196//196 198//198
f 204//204 209//209 199//199
f 209//209 200//200 199//199
f 201//201 200//200 202//202
f 199//199 200//200 201//201
f 296//296 202//202 200//200
f 241//241 201//201 202//202
f 199//199 197//197 203//203
f 199//199 203//203 204//204
f 204//204 203//203 216//216
f 203//203 217//217 216//216
f 203//203 205//205 217//217
f 197//197 206//206 203//203
f 203//203 206//206 205//205
f 207//207 208//208 206//206
f 206//206 208//208 205//205
f 219//219 205//205 208//208
f 200//200 209//209 213//213
f 204//204 210//210 209//209
f 211//211 213//213 209//209
f 209//209 210//210 211//211
f 211//211 210//210 218//218
f 200//200 213//213 212//212
f 214//214 212//212 213//213
f 211//211 215//215 213//213
f 218//218 215//215 211//211
f 213//213 215//215 437//437
f 219//219 215//215 218//218
f 248//248 437//437 215//215
f 214//214 244//244 212//212
f 248//248 215//215 219//219
f 200//200 212//212 244//244
f 248//248 250//250 437//437
f 214//214 250//250 244//244
f 248//248 219//219 249//249
f 204//204 218//218 210//210
f 204//204 216//216 218//218
f 216//216 217//217 218//218
f 219//219 217//217 205//205
f 219//219 218//218 217//217
f 438//438 220//220 174//174
f 220//220 221//221 172//172
f 175//175 221//221 223//223
f 220//220 438//438 439//439
f 221//221 220//220 223//223
f 224//224 158//158 176//176
f 440//440 222//222 158//158
f 254//254 222//222 440//440
f 223//223 256//256 175//175
f 227//227 257//257 224//224
f 175//175 256//256 433//433
f 260//260 259//259 226//226
f 228//228 230//230 225//225
f 225//225 230//230 226//226
f 227//227 224//224 225//225
f 225//225 226//226 259//259
f 227//227 225//225 446//446
f 260//260 226//226 230//230
f 228//228 229//229 441//441
f 229//229 274//274 441//441
f 229//229 231//231 274//274
f 447//447 441//441 274//274
f 233//233 232//232 192//192
f 233//233 192//192 235//235
f 232//232 274//274 231//231
f 233//233 275//275 232//232
f 274//274 232//232 275//275
f 275//275 233//233 234//234
f 279//279 234//234 237//237
f 235//235 237//237 233//233
f 233//233 237//237 234//234
f 239//239 433//433 283//283
f 193//193 236//236 235//235
f 237//237 235//235 236//236
f 236//236 285//285 238//238
f 285//285 236//236 240//240
f 238//238 237//237 236//236
f 282//282 238//238 285//285
f 236//236 201//201 240//240
f 289//289 240//240 241//241
f 188//188 239//239 294//294
f 294//294 198//198 188//188
f 241//241 202//202 296//296
f 207//207 198//198 294//294
f 245//245 207//207 294//294
f 296//296 244//244 242//242
f 243//243 242//242 246//246
f 246//246 242//242 250//250
f 296//296 242//242 243//243
f 243//243 246//246 247//247
f 242//242 244//244 250//250
f 296//296 200//200 244//244
f 219//219 208//208 245//245
f 207//207 245//245 208//208
f 219//219 245//245 303//303
f 250//250 253//253 246//246
f 247//247 246//246 253//253
f 253//253 250//250 248//248
f 248//248 249//249 252//252
f 249//249 219//219 252//252
f 248//248 252//252 251//251
f 253//253 248//248 251//251
f 301//301 251//251 252//252
f 301//301 253//253 251//251
f 302//302 301//301 252//252
f 252//252 219//219 303//303
f 439//439 438//438 443//443
f 439//439 443//443 255//255
f 258//258 440//440 445//445
f 258//258 254//254 440//440
f 254//254 258//258 255//255
f 444//444 439//439 255//255
f 257//257 227//227 446//446
f 258//258 445//445 259//259
f 259//259 261//261 258//258
f 261//261 255//255 258//258
f 304//304 444//444 255//255
f 261//261 259//259 260//260
f 255//255 261//261 268//268
f 433//433 256//256 270//270
f 270//270 256//256 306//306
f 256//256 304//304 306//306
f 447//447 263//263 262//262
f 263//263 447//447 274//274
f 271//271 263//263 274//274
f 261//261 260//260 448//448
f 266//266 262//262 264//264
f 262//262 263//263 264//264
f 261//261 448//448 449//449
f 264//264 267//267 266//266
f 264//264 263//263 267//267
f 263//263 265//265 267//267
f 267//267 265//265 272//272
f 263//263 271//271 265//265
f 261//261 450//450 268//268
f 269//269 266//266 267//267
f 309//309 269//269 267//267
f 272//272 309//309 267//267
f 280//280 270//270 306//306
f 273//273 271//271 275//275
f 265//265 271//271 272//272
f 327//327 273//273 275//275
f 310//310 272//272 316//316
f 271//271 316//316 272//272
f 275//275 234//234 276//276
f 276//276 234//234 279//279
f 271//271 274//274 275//275
f 277//277 327//327 275//275
f 275//275 276//276 277//277
f 278//278 277//277 276//276
f 277//277 278//278 328//328
f 281//281 279//279 442//442
f 281//281 276//276 279//279
f 281//281 278//278 276//276
f 452//452 332//332 281//281
f 332//332 278//278 281//281
f 280//280 283//283 270//270
f 283//283 280//280 333//333
f 280//280 334//334 333//333
f 339//339 283//283 335//335
f 238//238 279//279 237//237
f 442//442 452//452 281//281
f 452//452 287//287 342//342
f 287//287 286//286 342//342
f 433//433 270//270 283//283
f 284//284 283//283 339//339
f 283//283 284//284 239//239
f 284//284 288//288 239//239
f 285//285 240//240 289//289
f 289//289 286//286 285//285
f 287//287 285//285 286//286
f 452//452 285//285 287//287
f 294//294 239//239 288//288
f 241//241 296//296 290//290
f 290//290 289//289 241//241
f 289//289 290//290 292//292
f 292//292 286//286 289//289
f 290//290 296//296 291//291
f 291//291 292//292 290//290
f 293//293 286//286 292//292
f 295//295 245//245 294//294
f 295//295 359//359 245//245
f 288//288 295//295 294//294
f 361//361 359//359 295//295
f 296//296 297//297 291//291
f 297//297 296//296 243//243
f 300//300 247//247 253//253
f 291//291 297//297 346//346
f 298//298 297//297 243//243
f 299//299 298//298 247//247
f 247//247 298//298 243//243
f 299//299 247//247 300//300
f 302//302 299//299 300//300
f 347//347 346//346 297//297
f 347//347 297//297 298//298
f 346//346 292//292 291//291
f 245//245 360//360 303//303
f 359//359 360//360 245//245
f 252//252 303//303 302//302
f 300//300 253//253 301//301
f 300//300 301//301 302//302
f 302//302 303//303 363//363
f 304//304 255//255 364//364
f 268//268 450//450 305//305
f 305//305 450//450 451//451
f 308//308 269//269 309//309
f 305//305 451//451 308//308
f 268//268 305//305 324//324
f 308//308 317//317 305//305
f 305//305 317//317 324//324
f 324//324 255//255 268//268
f 330//330 332//332 365//365
f 307//307 280//280 306//306
f 306//306 304//304 307//307
f 332//332 371//371 365//365
f 334//334 280//280 307//307
f 402//402 336//336 307//307
f 307//307 304//304 375//375
f 307//307 375//375 402//402
f 272//272 310//310 309//309
f 311//311 317//317 308//308
f 311//311 308//308 309//309
f 311//311 309//309 312//312
f 312//312 309//309 310//310
f 310//310 313//313 312//312
f 317//317 311//311 314//314
f 314//314 311//311 312//312
f 314//314 312//312 315//315
f 315//315 312//312 313//313
f 315//315 319//319 314//314
f 273//273 316//316 271//271
f 318//318 316//316 273//273
f 316//316 313//313 310//310
f 318//318 313//313 316//316
f 273//273 327//327 318//318
f 315//315 313//313 320//320
f 313//313 318//318 320//320
f 318//318 327//327 321//321
f 317//317 314//314 324//324
f 318//318 321//321 323//323
f 314//314 319//319 322//322
f 315//315 320//320 319//319
f 323//323 320//320 318//318
f 320//320 326//326 319//319
f 320//320 323//323 326//326
f 323//323 321//321 381//381
f 331//331 381//381 321//321
f 314//314 322//322 324//324
f 324//324 322//322 325//325
f 325//325 322//322 319//319
f 453//453 319//319 326//326
f 383//383 323//323 384//384
f 383//383 326//326 323//323
f 379//379 324//324 325//325
f 379//379 325//325 380//380
f 475//475 453//453 326//326
f 326//326 383//383 475//475
f 384//384 323//323 381//381
f 329//329 277//277 328//328
f 327//327 277//277 329//329
f 321//321 327//327 329//329
f 328//328 330//330 329//329
f 321//321 329//329 331//331
f 331//331 329//329 330//330
f 365//365 331//331 330//330
f 330//330 328//328 278//278
f 330//330 278//278 332//332
f 337//337 332//332 341//341
f 333//333 334//334 335//335
f 335//335 283//283 333//333
f 334//334 336//336 335//335
f 338//338 335//335 336//336
f 338//338 340//340 335//335
f 454//454 341//341 457//457
f 336//336 334//334 307//307
f 341//341 454//454 337//337
f 338//338 336//336 484//484
f 452//452 341//341 332//332
f 343//343 284//284 339//339
f 335//335 458//458 339//339
f 452//452 342//342 341//341
f 343//343 455//455 460//460
f 459//459 461//461 456//456
f 342//342 457//457 341//341
f 284//284 343//343 288//288
f 460//460 344//344 343//343
f 345//345 288//288 343//343
f 343//343 344//344 345//345
f 293//293 355//355 462//462
f 462//462 342//342 286//286
f 286//286 293//293 462//462
f 356//356 361//361 344//344
f 288//288 345//345 295//295
f 345//345 361//361 295//295
f 361//361 345//345 344//344
f 298//298 299//299 349//349
f 348//348 293//293 292//292
f 348//348 292//292 346//346
f 350//350 348//348 346//346
f 350//350 346//346 347//347
f 298//298 349//349 347//347
f 302//302 352//352 299//299
f 348//348 350//350 351//351
f 293//293 348//348 351//351
f 349//349 350//350 347//347
f 349//349 299//299 352//352
f 355//355 293//293 351//351
f 358//358 355//355 351//351
f 353//353 351//351 350//350
f 349//349 353//353 350//350
f 352//352 353//353 349//349
f 351//351 353//353 358//358
f 356//356 354//354 362//362
f 363//363 354//354 357//357
f 356//356 344//344 464//464
f 464//464 465//465 356//356
f 356//356 465//465 357//357
f 357//357 354//354 356//356
f 363//363 357//357 463//463
f 357//357 465//465 463//463
f 361//361 362//362 359//359
f 362//362 360//360 359//359
f 360//360 362//362 303//303
f 356//356 362//362 361//361
f 352//352 302//302 363//363
f 303//303 354//354 363//363
f 362//362 354//354 303//303
f 363//363 463//463 352//352
f 304//304 364//364 372//372
f 366//366 255//255 379//379
f 366//366 395//395 368//368
f 365//365 404//404 367//367
f 365//365 367//367 399//399
f 400//400 399//399 466//466
f 255//255 366//366 369//369
f 466//466 399//399 367//367
f 400//400 466//466 481//481
f 255//255 369//369 403//403
f 369//369 366//366 368//368
f 468//468 467//467 370//370
f 468//468 370//370 487//487
f 466//466 367//367 469//469
f 404//404 469//469 367//367
f 255//255 403//403 364//364
f 485//485 468//468 487//487
f 405//405 404//404 371//371
f 371//371 374//374 373//373
f 471//471 378//378 376//376
f 371//371 474//474 374//374
f 365//365 371//371 404//404
f 372//372 364//364 489//489
f 373//373 470//470 405//405
f 470//470 373//373 471//471
f 470//470 471//471 376//376
f 373//373 405//405 371//371
f 489//489 364//364 403//403
f 371//371 332//332 401//401
f 474//474 371//371 401//401
f 472//472 378//378 483//483
f 484//484 472//472 483//483
f 377//377 304//304 372//372
f 375//375 304//304 377//377
f 473//473 378//378 472//472
f 473//473 470//470 376//376
f 473//473 376//376 378//378
f 379//379 255//255 324//324
f 382//382 379//379 380//380
f 381//381 331//331 389//389
f 365//365 389//389 331//331
f 388//388 379//379 382//382
f 379//379 388//388 392//392
f 388//388 382//382 385//385
f 385//385 382//382 475//475
f 385//385 475//475 383//383
f 476//476 383//383 386//386
f 383//383 384//384 386//386
f 386//386 384//384 387//387
f 384//384 381//381 387//387
f 387//387 381//381 389//389
f 379//379 392//392 366//366
f 390//390 476//476 386//386
f 390//390 386//386 391//391
f 386//386 387//387 391//391
f 389//389 391//391 387//387
f 477//477 479//479 478//478
f 478//478 479//479 393//393
f 398//398 389//389 365//365
f 391//391 480//480 390//390
f 397//397 366//366 392//392
f 398//398 400//400 396//396
f 398//398 399//399 400//400
f 393//393 397//397 392//392
f 478//478 393//393 392//392
f 482//482 480//480 394//394
f 398//398 394//394 389//389
f 391//391 394//394 480//480
f 389//389 394//394 391//391
f 366//366 397//397 395//395
f 396//396 400//400 481//481
f 481//481 482//482 396//396
f 396//396 482//482 398//398
f 482//482 394//394 398//398
f 399//399 398//398 365//365
f 401//401 332//332 337//337
f 483//483 338//338 484//484
f 454//454 401//401 337//337
f 490//490 486//486 488//488
