# Wavafront OBJ file of BodyParts3D
# BodyParts3D, Copyright(C) 2010-2011 The Database Center for Life Science licensed under CC Attribution-Share Alike 2.1 Japan.
vn -0.748121 -0.481685 0.456393
v -255.366 -158.097 700.259
vn -0.827186 -0.404592 0.389959
v -253.979 -175.432 684.193
vn -0.827186 -0.404592 0.389959
v -254.755 -173.744 684.296
vn -0.827186 -0.404592 0.389959
v -254.599 -176.018 682.269
vn -0.0722638 -0.279589 0.957397
v -249.618 -160.107 704.016
vn -0.310416 -0.860735 0.403456
v -251.017 -160.047 703.676
vn -0.633093 -0.622686 0.459843
v -253.127 -159.156 702.813
vn -0.680009 0.151291 0.717425
v -253.235 -157.491 702.536
vn -0.317635 0.000119568 0.948213
v -251.554 -158.218 703.711
vn -0.110853 0.752542 0.649147
v -251.94 -157.864 703.304
vn 0.0071327 0.707844 0.706333
v -252.748 -157.22 702.342
vn 0.0830868 0.606461 0.79076
v -253.687 -155.316 701.004
vn -0.59054 -0.782113 0.1989
v -253.847 -159.789 700.963
vn -0.693286 -0.719207 -0.0457839
v -253.951 -159.523 699.561
vn -0.888049 -0.417962 -0.191514
v -254.436 -158.573 698.921
vn -0.93753 -0.30654 -0.164531
v -254.803 -157.395 698.819
vn -0.898766 -0.421947 0.11908
v -254.14 -159.474 696.28
vn -0.59401 -0.71333 0.371904
v -253.08 -160.523 696.484
vn -0.98929 -0.135675 0.0538364
v -254.284 -159.006 695.696
vn -0.74319 -0.560614 0.365214
v -254.303 -160.86 694.297
vn -0.946121 0.207457 -0.248628
v -254.298 -160.079 694.483
vn -0.183256 -0.401305 0.897425
v -252.088 -173.205 685.046
vn -0.391826 -0.138814 0.909507
v -253.924 -171.6 684.788
vn -0.952607 -0.0439144 0.301017
v -253.556 -169.622 685.799
vn -0.0961285 -0.691819 0.715644
v -251.128 -175.768 683.967
vn -0.00941692 -0.338479 0.940927
v -251.104 -175.223 684.379
vn -0.143284 -0.947841 0.284722
v -251.096 -176.088 683.442
vn -0.0986961 -0.749425 0.654691
v -253.564 -175.509 684.222
vn -0.0842088 -0.443652 0.892234
v -253.181 -175.166 684.537
vn -0.0496249 -0.168204 0.984502
v -252.657 -174.038 684.724
vn 0.0478431 -0.161255 0.985752
v -252.373 -174.576 684.717
vn 0.0546332 -0.471133 0.880369
v -251.487 -175.15 684.441
vn 0.0940797 -0.189086 0.977443
v -251.851 -174.241 684.667
vn -0.28161 -0.156458 0.946687
v -254.338 -173.756 684.556
vn -0.982214 0.159226 -0.0995091
v -254.763 -172.324 683.009
vn -0.132572 -0.938548 0.318672
v -253.418 -176.371 682.822
vn -0.214449 -0.949688 -0.228262
v -253.705 -176.365 681.486
vn -0.397661 -0.758648 -0.516062
v -253.889 -175.948 680.817
vn -0.830653 0.0920143 -0.549134
v -253.831 -174.128 680.697
vn -0.0420263 -0.730231 -0.681907
v -253.278 -175.977 680.55
vn -0.290457 -0.367994 -0.883298
v -253.446 -175.755 680.447
vn 0.0286007 -0.326376 -0.944807
v -253.198 -175.61 680.372
vn 0.128753 0.415617 0.90038
v -247.662 -159.178 703.958
vn -0.0208329 -0.858607 0.51221
v -248.866 -160.552 703.698
vn 0.0611134 -0.976466 0.206831
v -248.023 -160.956 702.35
vn 0.0740791 0.762135 0.643166
v -250.352 -157.631 703.099
vn 0.0640655 0.631115 0.773039
v -251.145 -156.448 701.265
vn -0.0952086 0.523527 0.846673
v -251.779 -154.299 700.077
vn -0.713749 0.656295 -0.24462
v -253.534 -154.514 699.207
vn -0.0265418 -0.962813 0.268861
v -249.001 -162.191 697.864
vn -0.803547 0.426813 -0.4149
v -253.768 -159.977 693.444
vn -0.292332 -0.757803 0.583333
v -250.482 -164.885 692.83
vn -0.787555 -0.523654 0.324875
v -253.577 -163.878 690.84
vn -0.959368 0.149038 -0.239586
v -253.719 -163.712 690.472
vn -0.688482 -0.539857 0.484301
v -253.095 -165.402 689.419
vn 0.0788729 -0.660133 0.746996
v -249.512 -168.828 688.734
vn -0.468258 -0.561461 0.682272
v -251.285 -167.994 688.802
vn -0.919318 -0.292962 0.262731
v -253.573 -165.825 687.746
vn -0.35651 0.656125 -0.665132
v -252.603 -164.415 687.211
vn -0.3833 0.59638 -0.705275
v -252.691 -167.14 684.814
vn -0.211478 -0.238916 0.947732
v -249.166 -174.147 685.081
vn -0.210925 -0.271481 0.939047
v -248.157 -175.256 685.193
vn -0.0474988 -0.589695 0.806228
v -249.806 -172.153 685.956
vn -0.98206 0.188491 0.00551183
v -253.733 -169.099 684.951
vn -0.792566 0.436163 -0.426147
v -253.151 -167.606 684.805
vn -0.192 -0.943912 0.268637
v -248.093 -176.732 683.645
vn -0.189377 -0.3952 0.898862
v -250.679 -175.357 684.362
vn -0.195369 -0.15123 0.969
v -250.636 -174.937 684.466
vn -0.0821652 -0.271265 0.958991
v -250.811 -174.325 684.478
vn -0.0308146 -0.962613 -0.269123
v -249.915 -176.237 681.975
vn 0.135137 -0.229927 -0.96378
v -251.893 -174.774 680.246
vn 0.149624 0.0476452 -0.987594
v -251.511 -174.167 680.207
vn 0.180809 0.368999 -0.911673
v -251.488 -173.389 680.364
vn -0.577984 0.433165 -0.691594
v -253.774 -172.447 681.171
vn -0.447776 0.00675233 -0.89412
v -253.307 -174.314 680.077
vn 0.0686974 -0.0351086 -0.99702
v -252.533 -173.827 679.969
vn -0.130713 0.38086 -0.915347
v -252.662 -173.534 680.025
vn 0.213495 0.228121 -0.949937
v -252.242 -173.607 680.062
vn 0.161435 -0.329889 0.930114
v -246.183 -160.045 703.812
vn 0.334566 0.0819549 0.938802
v -245.42 -159.58 703.655
vn 0.614458 -0.217757 0.758303
v -245.061 -159.76 703.451
vn 0.248489 0.603948 0.757298
v -245.351 -159.233 703.432
vn 0.541352 0.326834 0.774672
v -244.958 -159.353 703.363
vn 0.354287 -0.621183 0.699008
v -245.51 -160.304 703.419
vn 0.298086 -0.933033 0.201482
v -244.86 -161.104 701.634
vn -0.23312 0.56956 0.788198
v -249.951 -153.125 699.908
vn -0.070512 0.988911 0.130702
v -249.687 -152.716 699.438
vn -0.294065 0.891059 0.345744
v -249.944 -152.796 699.537
vn 0.224892 -0.974351 0.00798825
v -246.429 -161.168 699.067
vn -0.271475 0.671143 -0.689833
v -250.939 -153.767 697.905
vn -0.359675 0.803048 0.47513
v -252.063 -153.654 699.452
vn -0.406396 0.910227 -0.0795578
v -251.13 -153.113 698.981
vn -0.348618 0.773146 -0.529821
v -250.966 -153.3 698.364
vn 0.218503 -0.801298 0.556936
v -247.979 -164.225 693.238
vn 0.0954699 -0.437972 0.893905
v -248.021 -171.738 686.359
vn 0.239533 -0.427529 0.871689
v -246.844 -171.35 686.225
vn 0.0056826 -0.723429 0.690376
v -247.083 -176.243 684.827
vn 0.685221 -0.435855 0.583526
v -246.201 -176.11 684.55
vn 0.295938 -0.220407 0.929431
v -246.372 -174.382 685.354
vn 0.924029 -0.042073 0.38
v -246.15 -174.284 685.172
vn 0.723588 -0.0921758 0.68405
v -246.393 -172.877 685.472
vn 0.000564527 0.599886 -0.800085
v -251.361 -167.378 684.262
vn 0.0361777 -0.975915 0.215132
v -246.987 -176.968 683.476
vn -0.130251 -0.977509 -0.165862
v -247.462 -176.896 682.573
vn 0.373426 -0.837414 0.399112
v -246.256 -176.667 683.822
vn 0.379042 -0.917532 0.120261
v -246.408 -176.866 683.288
vn 0.165844 -0.980945 -0.101207
v -246.642 -176.942 682.72
vn 0.813494 -0.563697 0.143088
v -246.02 -176.536 683.705
vn 0.645743 -0.748539 -0.150687
v -246.275 -176.825 682.859
vn 0.284873 -0.854359 -0.434647
v -246.558 -176.811 682.289
vn 0.997103 -0.0759749 0.00375296
v -245.92 -175.988 683.767
vn 0.938038 -0.299773 -0.173843
v -246.134 -176.52 682.738
vn 0.843519 -0.343086 -0.41324
v -246.247 -176.293 682.005
vn 0.967221 0.00215451 -0.253926
v -246.379 -175.417 681.65
vn -0.0693268 -0.836921 -0.542916
v -247.635 -176.571 681.825
vn 0.0371031 -0.615954 -0.786908
v -249.4 -175.47 680.887
vn 0.785571 -0.301776 -0.540194
v -246.641 -175.72 681.189
vn 0.274003 -0.586471 -0.762217
v -246.895 -175.921 681.076
vn 0.0840603 -0.224799 -0.970772
v -250.103 -174.636 680.356
vn 0.27241 0.394312 -0.877674
v -247.865 -173.384 680.786
vn 0.704964 -0.525544 0.476266
v -244.032 -160.25 702.04
vn 0.812052 -0.582779 -0.0306671
v -243.744 -160.352 701.025
vn 0.872936 -0.0230674 0.48729
v -243.585 -159.253 701.818
vn 0.469864 0.62941 0.618927
v -243.855 -157.463 700.985
vn 0.956397 -0.249028 0.152612
v -243.204 -158.627 700.457
vn 0.175277 0.367351 0.913417
v -245.277 -156.047 700.358
vn -0.0249037 0.349301 0.93668
v -248.927 -153.46 700.159
vn -0.0861862 0.753918 0.65129
v -249.442 -152.814 699.805
vn -0.213068 0.949023 -0.232288
v -249.934 -152.752 698.855
vn 0.11432 0.609702 0.784343
v -248.178 -153.02 699.944
vn 0.154796 0.941032 0.300829
v -248.368 -152.836 699.755
vn 0.0661191 0.949972 -0.305256
v -248.975 -152.735 698.611
vn 0.200815 0.392755 0.89745
v -247.438 -153.563 700.126
vn 0.352564 0.790391 0.500979
v -247.377 -153.23 699.871
vn 0.296711 0.95491 -0.0105097
v -247.586 -152.934 699.016
vn 0.288115 0.855809 -0.42963
v -247.64 -153.08 698.434
vn 0.532669 -0.821532 -0.203343
v -244.885 -160.949 700.253
vn 0.778954 -0.559892 -0.282401
v -243.912 -160.042 700.27
vn 0.36113 -0.932173 -0.025289
v -245.132 -160.735 699.23
vn 0.807919 -0.589293 0.000760142
v -244.528 -160.457 699.287
vn 0.849715 -0.505776 -0.148915
v -244.021 -159.763 698.854
vn 0.952695 -0.21561 -0.214206
v -244.276 -159.692 697.897
vn -0.103024 0.725897 -0.680043
v -249.716 -153.234 698.026
vn 0.174108 0.710459 -0.681861
v -247.832 -153.206 698.208
vn 0.394184 -0.899935 0.186378
v -245.147 -160.867 698.303
vn 0.776951 -0.628205 0.0412901
v -244.727 -160.74 697.814
vn 0.565188 -0.755562 0.331193
v -245.076 -161.497 696.257
vn 0.211764 0.64468 -0.734536
v -247.686 -156.509 695.35
vn 0.963484 -0.267227 -0.0169946
v -244.745 -161.082 695.332
vn 0.377281 -0.626722 0.68182
v -246.544 -167.574 688.764
vn 0.42181 -0.694341 0.583067
v -246.315 -166.141 690.05
vn 0.505219 -0.601908 0.618434
v -246.298 -167.245 688.887
vn 0.867541 -0.447996 0.216038
v -245.833 -165.694 690.062
vn 0.371771 0.623919 -0.687395
v -247.689 -162.694 688.783
vn 0.317586 -0.549226 0.772975
v -246.657 -169.382 687.285
vn 0.946314 -0.213881 0.242371
v -246.196 -168.315 687.168
vn 0.992218 -0.122444 -0.0226148
v -246.089 -166.269 687.743
vn 0.948944 -0.0931536 0.301375
v -246.374 -171.037 685.641
vn 0.98009 0.0720371 0.185023
v -246.25 -172.224 684.99
vn 0.985777 0.154537 0.0660386
v -246.066 -172.414 683.867
vn 0.995975 0.0748297 0.0493479
v -245.948 -173.16 683.51
vn 0.93384 0.252993 -0.25286
v -246.043 -172.565 683.269
vn 0.640132 0.491781 -0.59024
v -247.071 -171.579 682.757
vn 0.996903 0.0577851 0.0533442
v -246.3 -171.345 684.358
vn 0.987867 0.0391623 -0.150283
v -245.931 -173.96 683.201
vn 0.983928 0.150768 -0.0956774
v -246.46 -175.005 681.487
vn 0.523749 0.387603 -0.758585
v -247.143 -173.563 681.016
vn 0.880877 0.221762 -0.418184
v -246.644 -173.862 681.355
vn 0.622992 0.531199 -0.574203
v -246.804 -172.242 682.325
vn 0.949575 -0.0255916 -0.312494
v -246.441 -175.247 681.26
vn 0.548857 -0.0384607 -0.835031
v -246.708 -175.141 680.823
vn 0.480691 0.541591 0.689648
v -244.158 -156.736 700.413
vn 0.23501 0.350004 0.90679
v -244.701 -155.392 700.023
vn 0.771351 0.464773 0.434745
v -243.86 -156.845 700.159
vn 0.843075 0.517783 0.145347
v -244.116 -155.559 699.322
vn 0.878354 0.262921 -0.399208
v -243.968 -156.29 698.95
vn 0.328804 0.482515 0.81183
v -245.881 -154.067 699.794
vn 0.505602 0.861427 -0.0480623
v -246.285 -153.486 698.939
vn 0.44617 0.669894 -0.593444
v -246.409 -153.67 698.391
vn 0.668613 0.506493 -0.544446
v -244.854 -154.743 698.813
vn 0.564445 0.526041 -0.636147
v -246.021 -156.992 696.142
vn -0.789483 -0.539001 -0.293587
v -255.366 -158.097 700.259
vn -0.741597 0.173165 0.648111
v -255.366 -158.097 700.259
vn -0.890686 0.454606 -0.00344669
v -255.366 -158.097 700.259
vn -0.34155 -0.591806 0.730144
v -253.979 -175.432 684.193
vn -0.981733 0.124943 0.14349
v -254.755 -173.744 684.296
vn -0.526083 -0.139221 0.83896
v -254.755 -173.744 684.296
vn -0.459905 -0.886716 0.0471377
v -254.599 -176.018 682.269
vn -0.970395 0.00523634 -0.241465
v -254.599 -176.018 682.269
vn -0.334132 -0.116185 0.935338
v -251.017 -160.047 703.676
vn -0.578033 0.00861495 0.815968
v -253.127 -159.156 702.813
vn -0.153246 0.63957 0.753303
v -253.235 -157.491 702.536
vn -0.0735246 0.651134 0.755393
v -251.554 -158.218 703.711
vn -0.736884 0.280279 0.61518
v -253.687 -155.316 701.004
vn -0.712978 0.660937 0.234147
v -253.687 -155.316 701.004
vn -0.87239 0.418276 -0.252945
v -254.803 -157.395 698.819
vn -0.826218 0.426931 -0.36755
v -254.284 -159.006 695.696
vn -0.999807 -0.0180348 -0.00780649
v -254.303 -160.86 694.297
vn -0.915528 0.110648 0.386736
v -253.924 -171.6 684.788
vn -0.524008 -0.426244 0.737382
v -253.556 -169.622 685.799
vn -0.817193 -0.0283412 -0.575666
v -253.889 -175.948 680.817
vn -0.911236 -0.367683 0.185632
v -253.719 -163.712 690.472
vn -0.947051 0.21365 -0.239683
v -253.573 -165.825 687.746
vn 0.824934 -0.236749 0.513258
v -246.844 -171.35 686.225
vn 0.998495 0.0349034 -0.0423008
v -243.204 -158.627 700.457
vn 0.42068 -0.907097 -0.0142445
v -244.528 -160.457 699.287
vn 0.964883 -0.235668 0.116025
v -246.298 -167.245 688.887
vn 0.870713 -0.337262 0.35793
v -246.657 -169.382 687.285
vn 0.734764 0.403646 -0.545153
v -246.089 -166.269 687.743
vn 0.776312 0.456357 -0.43483
v -246.3 -171.345 684.358
vn 0.690375 0.524669 0.498102
v -244.701 -155.392 700.023
vn 0.617301 0.735951 0.278056
v -245.881 -154.067 699.794
vn 0.660527 0.726173 0.190727
v -244.854 -154.743 698.813
f 7//7 1//1 13//13
f 182//182 16//16 15//15
f 2//2 3//3 4//4
f 36//36 28//28 185//185
f 36//36 185//185 188//188
f 186//186 35//35 189//189
f 185//185 34//34 187//187
f 5//5 44//44 79//79
f 13//13 6//6 7//7
f 190//190 5//5 9//9
f 6//6 44//44 5//5
f 43//43 46//46 193//193
f 9//9 191//191 190//190
f 191//191 9//9 8//8
f 8//8 183//183 191//191
f 192//192 193//193 10//10
f 12//12 192//192 11//11
f 46//46 10//10 193//193
f 11//11 192//192 10//10
f 194//194 183//183 8//8
f 13//13 50//50 6//6
f 13//13 182//182 14//14
f 14//14 182//182 15//15
f 14//14 50//50 13//13
f 195//195 49//49 184//184
f 196//196 184//184 49//49
f 14//14 15//15 17//17
f 16//16 17//17 15//15
f 16//16 19//19 17//17
f 197//197 196//196 49//49
f 17//17 18//18 14//14
f 18//18 17//17 20//20
f 17//17 19//19 198//198
f 51//51 197//197 49//49
f 19//19 21//21 198//198
f 21//21 54//54 198//198
f 202//202 53//53 20//20
f 51//51 21//21 197//197
f 54//54 21//21 51//51
f 53//53 18//18 20//20
f 64//64 24//24 58//58
f 22//22 69//69 63//63
f 23//23 34//34 22//22
f 22//22 200//200 23//23
f 24//24 35//35 199//199
f 24//24 64//64 35//35
f 26//26 32//32 25//25
f 25//25 36//36 27//27
f 25//25 67//67 26//26
f 29//29 185//185 28//28
f 36//36 25//25 28//28
f 29//29 34//34 185//185
f 29//29 28//28 25//25
f 31//31 30//30 34//34
f 30//30 22//22 34//34
f 34//34 29//29 31//31
f 31//31 33//33 30//30
f 29//29 32//32 31//31
f 32//32 29//29 25//25
f 30//30 33//33 22//22
f 31//31 32//32 26//26
f 33//33 31//31 69//69
f 69//69 22//22 33//33
f 69//69 31//31 26//26
f 186//186 199//199 35//35
f 187//187 34//34 23//23
f 36//36 188//188 37//37
f 38//38 37//37 188//188
f 37//37 70//70 36//36
f 70//70 27//27 36//36
f 70//70 37//37 40//40
f 40//40 37//37 38//38
f 42//42 41//41 75//75
f 201//201 75//75 41//41
f 35//35 201//201 189//189
f 39//39 201//201 35//35
f 39//39 35//35 74//74
f 39//39 74//74 75//75
f 201//201 39//39 75//75
f 40//40 38//38 41//41
f 40//40 41//41 42//42
f 79//79 43//43 5//5
f 43//43 124//124 46//46
f 44//44 6//6 50//50
f 45//45 44//44 50//50
f 50//50 89//89 45//45
f 9//9 5//5 43//43
f 10//10 46//46 47//47
f 47//47 11//11 10//10
f 47//47 12//12 11//11
f 47//47 46//46 124//124
f 91//91 12//12 48//48
f 12//12 47//47 48//48
f 91//91 49//49 195//195
f 51//51 49//49 90//90
f 18//18 50//50 14//14
f 50//50 18//18 52//52
f 18//18 53//53 55//55
f 18//18 55//55 52//52
f 57//57 55//55 200//200
f 202//202 58//58 53//53
f 53//53 58//58 55//55
f 54//54 51//51 203//203
f 52//52 55//55 57//57
f 51//51 59//59 65//65
f 56//56 57//57 22//22
f 56//56 52//52 57//57
f 57//57 200//200 22//22
f 55//55 58//58 24//24
f 64//64 203//203 65//65
f 51//51 65//65 203//203
f 63//63 95//95 56//56
f 63//63 56//56 22//22
f 60//60 65//65 59//59
f 59//59 102//102 60//60
f 62//62 69//69 68//68
f 61//61 69//69 62//62
f 62//62 25//25 97//97
f 25//25 27//27 97//97
f 95//95 61//61 99//99
f 61//61 62//62 99//99
f 61//61 95//95 69//69
f 63//63 69//69 95//95
f 65//65 35//35 64//64
f 35//35 65//65 74//74
f 60//60 74//74 65//65
f 102//102 74//74 60//60
f 66//66 97//97 27//27
f 103//103 97//97 66//66
f 26//26 67//67 68//68
f 25//25 62//62 67//67
f 68//68 67//67 62//62
f 69//69 26//26 68//68
f 104//104 27//27 70//70
f 40//40 116//116 70//70
f 42//42 76//76 71//71
f 42//42 116//116 40//40
f 116//116 42//42 71//71
f 119//119 116//116 71//71
f 119//119 71//71 72//72
f 120//120 72//72 73//73
f 77//77 75//75 74//74
f 42//42 75//75 76//76
f 77//77 76//76 75//75
f 102//102 77//77 74//74
f 71//71 78//78 72//72
f 78//78 77//77 102//102
f 76//76 78//78 71//71
f 77//77 78//78 76//76
f 72//72 78//78 73//73
f 102//102 73//73 78//78
f 120//120 73//73 102//102
f 80//80 84//84 81//81
f 80//80 43//43 79//79
f 80//80 79//79 84//84
f 80//80 82//82 43//43
f 43//43 82//82 124//124
f 81//81 83//83 80//80
f 83//83 82//82 80//80
f 83//83 124//124 82//82
f 44//44 45//45 85//85
f 44//44 85//85 84//84
f 45//45 89//89 85//85
f 84//84 121//121 81//81
f 85//85 121//121 84//84
f 84//84 79//79 44//44
f 86//86 91//91 48//48
f 88//88 92//92 91//91
f 88//88 91//91 86//86
f 47//47 127//127 48//48
f 86//86 128//128 88//88
f 48//48 127//127 86//86
f 127//127 128//128 86//86
f 128//128 87//87 88//88
f 87//87 129//129 88//88
f 88//88 129//129 92//92
f 137//137 85//85 89//89
f 49//49 93//93 90//90
f 91//91 92//92 49//49
f 92//92 93//93 49//49
f 143//143 90//90 93//93
f 92//92 129//129 93//93
f 90//90 59//59 51//51
f 94//94 50//50 52//52
f 94//94 52//52 56//56
f 148//148 154//154 90//90
f 94//94 56//56 151//151
f 151//151 56//56 150//150
f 154//154 59//59 90//90
f 56//56 95//95 155//155
f 155//155 150//150 56//56
f 99//99 101//101 95//95
f 96//96 95//95 101//101
f 101//101 159//159 158//158
f 96//96 155//155 95//95
f 101//101 158//158 204//204
f 120//120 102//102 154//154
f 154//154 102//102 59//59
f 99//99 62//62 97//97
f 97//97 98//98 99//99
f 98//98 100//100 99//99
f 98//98 111//111 100//100
f 111//111 165//165 100//100
f 100//100 101//101 99//99
f 100//100 159//159 101//101
f 159//159 100//100 161//161
f 160//160 159//159 161//161
f 165//165 161//161 100//100
f 103//103 105//105 97//97
f 104//104 103//103 66//66
f 66//66 27//27 104//104
f 105//105 98//98 97//97
f 105//105 103//103 106//106
f 106//106 103//103 107//107
f 107//107 103//103 104//104
f 104//104 110//110 107//107
f 115//115 110//110 104//104
f 108//108 98//98 105//105
f 108//108 105//105 106//106
f 106//106 109//109 108//108
f 106//106 107//107 109//109
f 107//107 110//110 109//109
f 98//98 108//108 111//111
f 112//112 111//111 108//108
f 109//109 112//112 108//108
f 113//113 112//112 109//109
f 113//113 109//109 110//110
f 113//113 110//110 118//118
f 118//118 110//110 115//115
f 111//111 112//112 113//113
f 165//165 111//111 114//114
f 111//111 113//113 114//114
f 113//113 117//117 114//114
f 170//170 114//114 117//117
f 114//114 170//170 166//166
f 115//115 104//104 70//70
f 116//116 115//115 70//70
f 113//113 118//118 117//117
f 116//116 118//118 115//115
f 119//119 118//118 116//116
f 118//118 119//119 171//171
f 120//120 171//171 119//119
f 117//117 118//118 171//171
f 72//72 120//120 119//119
f 121//121 123//123 81//81
f 122//122 123//123 121//121
f 122//122 121//121 85//85
f 137//137 122//122 85//85
f 122//122 137//137 138//138
f 125//125 123//123 122//122
f 81//81 123//123 83//83
f 83//83 123//123 124//124
f 122//122 138//138 205//205
f 138//138 141//141 205//205
f 205//205 124//124 123//123
f 174//174 124//124 205//205
f 124//124 126//126 47//47
f 124//124 172//172 126//126
f 174//174 172//172 124//124
f 126//126 172//172 173//173
f 126//126 127//127 47//47
f 126//126 133//133 127//127
f 126//126 173//173 133//133
f 173//173 177//177 133//133
f 128//128 131//131 87//87
f 131//131 132//132 87//87
f 87//87 132//132 129//129
f 143//143 132//132 144//144
f 132//132 143//143 129//129
f 127//127 130//130 128//128
f 131//131 128//128 130//130
f 132//132 131//131 135//135
f 133//133 130//130 127//127
f 134//134 131//131 130//130
f 134//134 130//130 133//133
f 131//131 134//134 135//135
f 177//177 134//134 133//133
f 135//135 136//136 132//132
f 132//132 136//136 144//144
f 178//178 134//134 212//212
f 134//134 178//178 135//135
f 136//136 135//135 178//178
f 179//179 144//144 136//136
f 137//137 141//141 138//138
f 139//139 137//137 89//89
f 89//89 50//50 139//139
f 139//139 50//50 145//145
f 137//137 140//140 141//141
f 206//206 137//137 139//139
f 206//206 139//139 145//145
f 206//206 145//145 146//146
f 140//140 146//146 141//141
f 146//146 142//142 141//141
f 142//142 205//205 141//141
f 143//143 148//148 90//90
f 129//129 143//143 93//93
f 144//144 148//148 143//143
f 148//148 144//144 179//179
f 145//145 50//50 147//147
f 146//146 145//145 147//147
f 149//149 146//146 147//147
f 146//146 149//149 142//142
f 151//151 147//147 94//94
f 149//149 147//147 153//153
f 147//147 50//50 94//94
f 157//157 149//149 153//153
f 149//149 157//157 176//176
f 181//181 154//154 148//148
f 147//147 151//151 153//153
f 181//181 176//176 154//154
f 176//176 209//209 154//154
f 151//151 150//150 152//152
f 152//152 153//153 151//151
f 157//157 153//153 207//207
f 150//150 155//155 152//152
f 156//156 208//208 204//204
f 156//156 207//207 208//208
f 156//156 157//157 207//207
f 204//204 158//158 156//156
f 156//156 158//158 164//164
f 157//157 156//156 164//164
f 163//163 154//154 209//209
f 158//158 159//159 164//164
f 159//159 160//160 164//164
f 162//162 164//164 160//160
f 160//160 161//161 162//162
f 161//161 165//165 162//162
f 210//210 162//162 169//169
f 209//209 210//210 163//163
f 210//210 169//169 163//163
f 120//120 154//154 163//163
f 114//114 166//166 168//168
f 166//166 170//170 168//168
f 171//171 120//120 167//167
f 162//162 165//165 168//168
f 114//114 168//168 165//165
f 167//167 168//168 171//171
f 167//167 120//120 169//169
f 169//169 120//120 163//163
f 162//162 168//168 169//169
f 167//167 169//169 168//168
f 170//170 117//117 171//171
f 170//170 171//171 168//168
f 172//172 174//174 211//211
f 211//211 174//174 175//175
f 174//174 205//205 175//175
f 175//175 205//205 176//176
f 175//175 176//176 180//180
f 180//180 176//176 181//181
f 212//212 211//211 175//175
f 213//213 212//212 175//175
f 213//213 178//178 212//212
f 178//178 179//179 136//136
f 180//180 179//179 178//178
f 181//181 179//179 180//180
f 142//142 176//176 205//205
f 176//176 142//142 149//149
f 179//179 181//181 148//148
