# Wavafront OBJ file of BodyParts3D
# BodyParts3D, Copyright(C) 2010-2011 The Database Center for Life Science licensed under CC Attribution-Share Alike 2.1 Japan.
vn 0.583119 0.293828 -0.757389
v -10.0817 -132.525 1438.53
vn 0.278103 -0.0944898 -0.955892
v -10.2025 -132.485 1438.49
vn 0.278103 -0.0944898 -0.955892
v -10.2008 -132.41 1438.49
vn 0.597477 -0.754165 0.272499
v -9.20453 -131.734 1439.61
vn 0.560385 0.468175 -0.683214
v -9.94949 -132.345 1438.7
vn 0.520665 0.471307 -0.711883
v -10.123 -132.321 1438.58
vn 0.694698 0.678568 0.238622
v -10.1528 -132.13 1438.9
vn 0.875466 -0.430386 -0.219834
v -9.12693 -131.561 1439.58
vn 0.616105 -0.707666 0.345867
v -9.15053 -131.664 1439.68
vn 0.593591 -0.387211 -0.70549
v -9.254 -131.646 1439.52
vn 0.645946 -0.683001 0.340975
v -9.76868 -132.016 1440.06
vn 0.667285 -0.644254 0.373721
v -9.71795 -131.924 1440.13
vn 0.702458 -0.630764 0.329681
v -9.96974 -132.106 1440.32
vn 0.549377 0.291821 0.782959
v -10.1487 -132.004 1440.4
vn 0.372541 -0.922137 -0.104293
v -9.98944 -132.093 1440.06
vn -0.341052 -0.522784 -0.781269
v -10.1631 -131.972 1440
vn 0.452647 0.644797 -0.615912
v -10.4623 -131.793 1438.84
vn 0.243003 0.365541 -0.898515
v -10.7031 -132.055 1438.49
vn 0.431133 0.515889 -0.740259
v -10.5999 -131.968 1438.56
vn 0.607352 -0.152403 -0.779678
v -10.7639 -131.945 1438.42
vn -0.0455848 0.382396 -0.922873
v -10.0645 -131.063 1439.66
vn -0.38662 -0.14284 -0.91111
v -10.1854 -131.235 1439.68
vn 0.0209541 0.575752 -0.817356
v -10.2616 -130.551 1440.03
vn 0.686814 0.346607 0.638866
v -10.2975 -130.555 1440.17
vn 0.648712 -0.145249 0.747045
v -11.5849 -133.423 1439.8
vn 0.775652 0.044398 0.629597
v -10.6025 -132.471 1441.06
vn 0.485981 -0.872049 -0.0579035
v -10.8401 -132.599 1440.88
vn 0.709576 0.217514 0.670216
v -10.5038 -131.656 1440.54
vn 0.737088 0.224225 0.637514
v -10.6004 -132.37 1441.05
vn -0.602325 -0.355295 -0.714822
v -11.0975 -131.584 1440.34
vn 0.449026 0.331437 0.829774
v -11.4298 -131.1 1439.19
vn 0.533539 0.824896 0.186768
v -11.4874 -131.04 1439.09
vn 0.71822 -0.562664 0.409351
v -12.018 -133.943 1439.93
vn 0.482279 -0.70701 -0.517246
v -12.2099 -134.145 1440.03
vn -0.259483 -0.467747 -0.844915
v -12.2911 -133.955 1439.88
vn 0.609976 -0.744843 0.270442
v -12.3293 -134.169 1440.22
vn 0.410753 -0.911593 -0.0167317
v -12.3853 -134.192 1440.14
vn -0.0114423 -0.749551 -0.661847
v -12.4356 -134.148 1440.05
vn -0.446816 -0.256755 -0.85699
v -12.0123 -133.777 1439.71
vn 0.654164 -0.744859 0.131356
v -11.2921 -132.952 1441.72
vn -0.424237 -0.725706 -0.54164
v -11.427 -132.918 1441.69
vn -0.762461 -0.0526189 -0.644891
v -11.7729 -131.234 1440.92
vn -0.449522 -0.123255 -0.884725
v -12.1883 -131.008 1438.91
vn 0.339912 0.701678 -0.626185
v -12.1645 -130.89 1438.93
vn 0.455335 0.854509 0.24997
v -12.111 -130.794 1439.38
vn -0.548548 -0.299397 -0.780677
v -12.6231 -130.871 1439.14
vn 0.148223 0.969258 -0.196392
v -12.7137 -130.745 1439.17
vn -0.484057 0.191978 -0.853718
v -11.2719 -130.356 1440.28
vn 0.782804 0.284309 0.553521
v -11.0022 -129.6 1440.81
vn 0.28135 0.00649345 -0.959583
v -11.0705 -129.29 1440.79
vn -0.11818 0.494821 -0.860922
v -11.1352 -129.484 1440.77
vn 0.888617 0.254738 0.381404
v -11.084 -129.291 1440.82
vn 0.848718 0.256555 0.462446
v -11.149 -129.484 1440.93
vn -0.680716 0.349432 -0.643835
v -11.209 -129.479 1440.84
vn 0.735916 0.615011 0.283177
v -11.2093 -129.379 1440.86
vn 0.883879 0.22764 0.408581
v -11.2032 -129.18 1440.88
vn 0.82517 0.295922 0.481171
v -11.3417 -128.892 1441.12
vn 0.740304 -0.572927 0.351716
v -12.9729 -134.612 1440.57
vn -0.0506615 -0.670955 -0.739765
v -12.737 -134.429 1440.33
vn 0.707146 -0.583139 0.399867
v -12.8411 -134.334 1440.75
vn 0.700494 -0.456371 0.548665
v -12.9819 -134.52 1440.74
vn 0.554126 -0.0727455 0.829248
v -13.0403 -134.417 1440.82
vn -0.420014 -0.700609 -0.576832
v -11.7762 -133.208 1442.46
vn 0.797438 0.0728884 0.598983
v -11.4425 -132.932 1442.23
vn 0.0831377 0.99554 0.0445911
v -12.9084 -130.674 1439.42
vn -0.577679 -0.220872 -0.785813
v -13.0126 -130.943 1439.47
vn -0.477146 -0.135288 -0.868348
v -13.3675 -130.711 1439.63
vn 0.263434 -0.849221 0.45763
v -13.4344 -130.606 1439.7
vn 0.263434 -0.849221 0.45763
v -13.4699 -130.645 1439.65
vn 0.610954 -0.759673 0.222784
v -11.4618 -129.381 1441.55
vn 0.890017 0.364229 0.27424
v -11.5539 -129.17 1441.57
vn 0.820064 0.318301 0.475584
v -11.5529 -129.17 1441.57
vn -0.757434 0.0568269 -0.650434
v -11.702 -129.456 1441.56
vn -0.777804 0.0595339 -0.625681
v -11.6862 -129.256 1441.56
vn -0.822503 0.0195938 -0.568423
v -11.6557 -129.257 1441.51
vn -0.806739 -0.00445779 -0.590891
v -11.6236 -129.158 1441.45
vn 0.419622 0.550597 -0.721637
v -11.6842 -129.112 1441.54
vn 0.807238 0.311478 0.501347
v -11.6112 -129.065 1441.62
vn 0.78736 0.236846 0.569182
v -11.563 -129.067 1441.54
vn 0.709304 0.404382 0.577375
v -11.9045 -128.983 1441.93
vn 0.727485 -0.558264 0.398882
v -13.5491 -134.979 1441.13
vn 0.261891 -0.89335 -0.365155
v -13.6962 -135.005 1440.98
vn 0.553414 0.164766 0.816447
v -13.2167 -133.699 1440.82
vn 0.83369 -0.43778 0.336614
v -12.2104 -133.601 1443.35
vn 0.83369 -0.43778 0.336614
v -12.2325 -133.696 1443.28
vn -0.0485825 -0.674227 -0.736924
v -12.4386 -133.671 1443.19
vn -0.621567 -0.408118 -0.668651
v -12.4262 -133.056 1442.88
vn -0.510932 -0.241484 -0.825005
v -13.5861 -131.513 1440.14
vn 0.263434 -0.849221 0.45763
v -13.5156 -130.6 1439.76
vn -0.505444 -0.30242 -0.808127
v -13.8772 -130.669 1439.95
vn -0.463984 0.374267 -0.802897
v -13.8793 -130.472 1440.04
vn 0.589262 0.377952 0.714089
v -13.8707 -130.795 1440.54
vn 0.416148 -0.607778 0.676334
v -13.7507 -130.379 1439.73
vn 0.416148 -0.607778 0.676334
v -13.8358 -130.378 1439.79
vn 0.420928 0.258363 -0.869522
v -13.9717 -130.556 1439.97
vn -0.65393 0.549935 -0.519564
v -12.214 -129.92 1441.93
vn 0.416148 -0.607778 0.676334
v -13.8302 -130.366 1439.79
vn 0.0637389 0.604907 0.793741
v -13.8743 -130.258 1439.71
vn 0.0637389 0.604907 0.793741
v -13.8818 -130.257 1439.71
vn 0.0637389 0.604907 0.793741
v -13.8759 -130.253 1439.71
vn 0.38617 -0.600215 0.700439
v -13.951 -130.157 1439.76
vn 0.38617 -0.600215 0.700439
v -13.9483 -130.151 1439.77
vn 0.38617 -0.600215 0.700439
v -14.0354 -130.15 1439.82
vn 0.671459 -0.629836 -0.390447
v -14.0818 -129.935 1439.75
vn 0.545035 0.092746 -0.833268
v -14.0925 -130.243 1439.93
vn 0.601431 -0.722478 -0.341037
v -14.1935 -130.131 1439.92
vn 0.637716 -0.677507 -0.366472
v -14.1629 -130.046 1439.79
vn 0.867764 0.325257 0.375757
v -14.0976 -130.04 1439.89
vn -0.216186 0.156466 0.963733
v -14.179 -129.824 1439.73
vn -0.216186 0.156466 0.963733
v -14.2137 -129.82 1439.73
vn -0.216186 0.156466 0.963733
v -14.1827 -129.722 1439.72
vn -0.542724 -0.152186 -0.826009
v -14.2626 -129.918 1439.8
vn 0.715089 -0.564965 0.411658
v -14.2964 -129.613 1439.8
vn -0.404809 0.712171 -0.573535
v -12.262 -129.118 1442.13
vn 0.745203 0.271407 0.609107
v -12.2148 -129.343 1442.61
vn -0.265411 -0.517388 -0.813552
v -14.2978 -129.507 1439.69
vn 0.850031 -0.499955 0.165807
v -13.9592 -135.363 1441.74
vn 0.824453 -0.564256 0.0435041
v -13.9864 -135.368 1441.95
vn 0.526333 -0.83786 -0.144794
v -14.2517 -135.648 1442.08
vn 0.768848 -0.00207823 0.639428
v -13.7991 -134.97 1441.57
vn 0.888626 0.0123008 0.458467
v -13.9119 -135.169 1441.81
vn 0.880598 0.202294 0.428513
v -14.0286 -135.164 1441.98
vn -0.522976 -0.299168 -0.79812
v -14.2783 -134.6 1441.13
vn 0.721568 -0.691988 0.0222129
v -12.8957 -134.349 1443.74
vn 0.495035 -0.45251 -0.741738
v -12.9342 -134.137 1443.59
vn -0.523987 -0.235148 -0.818623
v -14.2465 -134.193 1440.94
vn 0.822841 -0.446287 0.351796
v -12.4553 -133.885 1443.56
vn 0.612998 -0.776303 -0.146929
v -12.4797 -133.877 1443.42
vn 0.769667 0.434761 0.467542
v -14.309 -130.454 1440.74
vn 0.808371 0.157572 0.567193
v -12.9141 -129.91 1443.52
vn 0.715089 -0.564965 0.411658
v -14.3454 -129.656 1439.82
vn 0.079507 -0.574931 -0.81433
v -14.3651 -129.605 1439.79
vn -0.265411 -0.517388 -0.813552
v -14.3867 -129.542 1439.74
vn -0.226596 0.513785 -0.827454
v -14.4207 -129.704 1439.9
vn -0.0395237 -0.941426 0.334896
v -14.4282 -129.633 1439.88
vn 0.807121 0.432014 0.402393
v -14.3756 -129.611 1439.97
vn 0.715089 -0.564965 0.411658
v -14.3812 -129.61 1439.95
vn -0.699469 -0.209126 -0.683381
v -14.4998 -129.698 1439.96
vn -0.0975369 -0.949166 0.299284
v -14.5107 -129.608 1439.93
vn -0.56024 -0.390717 -0.730392
v -14.7354 -130.295 1440.42
vn 0.53482 -0.729809 0.425848
v -14.3623 -129.504 1439.78
vn -0.0789352 -0.638822 0.765295
v -14.4322 -129.497 1439.78
vn 0.688804 0.520983 0.504109
v -14.3774 -129.454 1439.75
vn -0.265411 -0.517388 -0.813552
v -14.3983 -129.498 1439.72
vn 0.726875 -0.667149 0.162988
v -14.4869 -129.187 1439.73
vn 0.766375 0.611001 0.198364
v -14.4415 -129.498 1439.84
vn 0.726875 -0.667149 0.162988
v -14.4877 -129.188 1439.73
vn 0.726875 -0.667149 0.162988
v -14.4872 -129.187 1439.73
vn -0.239711 -0.607928 0.756943
v -14.4883 -129.187 1439.73
vn 0.854495 0.475516 0.209102
v -14.4875 -129.186 1439.73
vn 0.125262 -0.543891 -0.829754
v -14.488 -129.187 1439.73
vn 0.214197 -0.898437 0.383316
v -14.534 -129.324 1439.86
vn 0.214197 -0.898437 0.383316
v -14.6189 -129.322 1439.91
vn 0.214197 -0.898437 0.383316
v -14.5793 -129.287 1439.97
vn 0.260612 0.943344 -0.205389
v -14.6408 -129.279 1439.93
vn 0.838617 0.536117 -0.0964355
v -14.7025 -129.079 1440.11
vn -0.734236 -0.204522 -0.647355
v -14.7534 -129.172 1440.06
vn -0.600444 0.614312 -0.511945
v -14.8861 -129.164 1440.22
vn 0.668666 -0.736499 -0.102252
v -13.9726 -135.527 1443.34
vn 0.701635 -0.704315 0.107928
v -13.8364 -135.447 1443.5
vn 0.695134 -0.718789 -0.0114164
v -13.9991 -135.585 1443.59
vn 0.691728 -0.707065 -0.146871
v -14.1342 -135.581 1442.62
vn 0.753802 -0.652164 -0.0804081
v -14.0861 -135.599 1442.93
vn 0.193655 -0.968961 -0.153664
v -14.3847 -135.79 1442.62
vn 0.631167 -0.762775 -0.140721
v -14.2218 -135.765 1442.88
vn 0.815233 -0.17437 -0.552259
v -14.0419 -135.411 1443.16
vn -0.477571 -0.873379 -0.0955768
v -14.4675 -135.767 1442.68
vn 0.746004 -0.664632 -0.0417457
v -14.2446 -135.795 1443.22
vn 0.0904919 -0.927052 -0.36385
v -14.3304 -135.673 1442.13
vn 0.18867 -0.516289 0.835374
v -13.6382 -134.988 1444.08
vn 0.781457 -0.61899 -0.0785857
v -13.3332 -134.805 1443.73
vn 0.873975 -0.42158 -0.241738
v -13.7889 -135.355 1443.6
vn 0.858822 -0.3348 -0.387729
v -13.8003 -135.318 1443.49
vn 0.79715 -0.568811 -0.2025
v -13.5708 -135.168 1443.84
vn 0.59464 -0.727821 0.341584
v -13.7904 -135.266 1443.88
vn -0.692804 -0.430344 -0.578642
v -14.9271 -134.449 1441.59
vn 0.766863 -0.639688 0.0521496
v -13.1246 -134.54 1444.09
vn 0.469136 -0.201764 0.859769
v -13.1887 -134.436 1444.16
vn 0.00148842 0.200225 -0.979749
v -13.6953 -134.465 1443.74
vn -0.736417 -0.175807 -0.653285
v -15.274 -132.895 1441.4
vn -0.575139 -0.220768 -0.787703
v -14.8873 -131.709 1440.92
vn 0.675579 0.496383 0.545157
v -15.0865 -129.588 1441.27
vn 0.770192 0.253221 0.585392
v -15.0985 -129.897 1441.48
vn -0.718064 -0.200466 -0.666481
v -14.9851 -129.972 1440.54
vn -0.810607 0.105868 -0.57594
v -15.3689 -129.645 1440.93
vn 0.737572 0.384467 0.555133
v -13.2172 -129.322 1443.65
vn 0.7333 0.268454 0.624662
v -13.3802 -129.484 1444.16
vn -0.760205 0.426319 -0.490245
v -13.0936 -129.38 1443.33
vn 0.535596 0.702997 0.467902
v -14.8514 -129.416 1440.87
vn 0.191958 0.923023 0.333436
v -15.2057 -129.34 1440.86
vn -0.632592 -0.753197 0.180335
v -14.766 -135.573 1443.12
vn -0.337858 -0.588385 0.734613
v -14.5768 -135.473 1443.6
vn -0.759697 -0.619332 -0.198215
v -14.9146 -135.403 1442.76
vn -0.790059 -0.473822 -0.388972
v -15.1318 -134.789 1442.25
vn 0.736838 0.0638002 0.673052
v -13.4584 -131.61 1444.69
vn -0.808123 0.25156 -0.532593
v -14.03 -131.434 1444.32
vn -0.75155 -0.215589 -0.623454
v -14.1792 -131.569 1444.48
vn 0.821822 0.255199 0.509394
v -15.5007 -131.197 1442.33
vn -0.766962 0.09247 -0.634995
v -14.0728 -131.333 1444.43
vn 0.666704 0.258025 0.699235
v -13.9131 -130.465 1444.95
vn 0.799899 0.35999 0.480177
v -15.6087 -129.871 1442.17
vn -0.720964 0.587628 -0.367294
v -15.5208 -129.542 1441.27
vn -0.533554 0.690783 -0.487994
v -13.9256 -129.48 1444.43
vn 0.317841 0.871454 0.373557
v -15.3943 -129.415 1441.33
vn -0.801649 -0.465697 0.374813
v -15.4378 -134.378 1443.66
vn -0.919924 -0.33559 -0.202778
v -15.6196 -134.227 1442.91
vn 0.133445 -0.263579 0.955363
v -14.6247 -132.009 1445.18
vn 0.277452 0.505397 -0.817064
v -15.0332 -131.838 1444.51
vn -0.0942435 0.349141 -0.932319
v -14.9292 -131.061 1444.92
vn 0.923559 0.34451 0.168376
v -15.9095 -130.994 1443.35
vn 0.495875 0.179084 0.849728
v -14.4991 -129.92 1445.45
vn -0.634679 -0.00492301 -0.77276
v -14.7724 -129.772 1445
vn 0.648608 0.67795 0.345965
v -15.9711 -129.747 1442.71
vn 0.896327 0.280921 0.343047
v -15.9392 -130.07 1442.99
vn 0.546963 0.799811 0.247254
v -16.0995 -129.65 1442.68
vn 0.612369 0.738272 0.28277
v -16.1303 -129.641 1442.82
vn -0.363407 0.931037 0.0332412
v -16.2382 -129.651 1442.65
vn 0.510638 0.789704 0.340024
v -15.7426 -129.594 1442.11
vn -0.712319 0.597842 -0.367676
v -15.9915 -129.627 1441.91
vn -0.549145 0.793033 -0.263701
v -15.9305 -129.555 1442
vn -0.888464 0.118487 -0.443388
v -16.0769 -129.814 1441.99
vn 0.509883 0.761318 0.400519
v -15.9888 -129.505 1442.28
vn -0.635703 0.753519 -0.167603
v -16.1234 -129.619 1442.27
vn 0.388958 0.490619 -0.779746
v -15.1726 -131.391 1444.76
vn 0.873857 0.439522 -0.207832
v -15.7416 -131.538 1443.92
vn 0.856738 0.280592 -0.432745
v -15.6912 -131.255 1444.27
vn 0.736526 0.660602 -0.145374
v -15.8497 -131.228 1444.02
vn 0.559056 0.595896 -0.57651
v -15.607 -131.361 1444.44
vn 0.971242 0.170152 -0.166545
v -15.6483 -131.264 1444.36
vn 0.424688 0.885255 -0.189639
v -15.754 -131.237 1444.19
vn 0.952776 0.278749 0.120487
v -15.6775 -131.223 1444.5
vn 0.261869 0.960154 -0.0976126
v -15.889 -131.203 1444.16
vn 0.988495 0.149693 -0.021652
v -15.6634 -131.162 1444.38
vn 0.901123 0.101488 -0.421518
v -15.684 -131.157 1444.29
vn 0.784648 0.558308 0.269479
v -15.7204 -131.124 1444.42
vn 0.489236 0.482622 -0.726446
v -15.7506 -131.11 1444.56
vn 0.155437 0.97886 -0.132935
v -15.8034 -131.104 1444.47
vn 0.0772579 0.96141 -0.264048
v -15.8582 -131.116 1444.39
vn 0.912404 0.299209 -0.279272
v -15.9998 -130.825 1444.39
vn 0.868882 0.295261 -0.397322
v -15.937 -130.757 1444.59
vn 0.971496 0.23647 -0.0166246
v -16.0873 -130.703 1444.1
vn -0.458418 0.114681 -0.881307
v -15.216 -129.836 1445.24
vn 0.952325 0.127255 -0.277278
v -16.2923 -129.962 1443.74
vn 0.628449 0.738073 0.24556
v -16.4051 -129.847 1443.68
vn 0.691111 0.626741 0.359946
v -16.1221 -129.768 1443.04
vn 0.520386 0.791807 0.31975
v -16.2857 -129.704 1443.15
vn -0.776776 0.608312 -0.163022
v -16.4952 -129.812 1443.03
vn 0.564033 0.755484 0.333332
v -16.35 -129.742 1443.42
vn -0.962748 0.0642684 -0.262652
v -16.5902 -130.106 1443.09
vn -0.437246 0.897219 0.0617511
v -16.4601 -129.742 1443.25
vn -0.902827 0.415959 -0.109
v -16.5309 -129.82 1443.34
vn -0.328073 0.936574 0.123278
v -16.5444 -129.827 1443.53
vn -0.489318 0.816877 -0.305417
v -14.837 -129.644 1445.45
vn -0.189456 0.743471 -0.641371
v -15.196 -129.612 1445.44
vn -0.526658 -0.336667 0.780568
v -16.1487 -130.445 1445.35
vn -0.988456 -0.121422 0.0906157
v -16.802 -130.335 1444.35
vn -0.348794 -0.237313 0.906656
v -15.5311 -130.223 1445.7
vn 0.270775 0.186216 0.94446
v -15.4222 -129.731 1445.68
vn 0.272723 0.672571 -0.687947
v -15.9686 -129.858 1445.18
vn 0.0539454 0.914347 -0.401321
v -15.9937 -129.795 1445.32
vn -0.421348 0.805924 0.415876
v -16.216 -129.939 1445.44
vn 0.785433 0.612702 0.087695
v -16.4035 -129.929 1444.5
vn 0.16764 0.946766 -0.274829
v -16.1851 -129.789 1445.2
vn -0.74736 -0.326381 0.57873
v -16.5866 -130.086 1445.07
vn -0.0648725 0.997611 0.0237442
v -16.738 -129.964 1444.35
vn 0.278103 -0.0944898 -0.955892
v -10.0817 -132.525 1438.53
vn 0.674672 -0.705088 0.218333
v -10.0817 -132.525 1438.53
vn 0.0803707 -0.746962 -0.659991
v -10.0817 -132.525 1438.53
vn -0.525251 -0.0658594 -0.848395
v -10.2025 -132.485 1438.49
vn 0.0068028 -0.691951 -0.721912
v -10.2025 -132.485 1438.49
vn 0.410246 0.385712 -0.826392
v -10.2008 -132.41 1438.49
vn -0.417745 -0.234681 -0.877732
v -10.2008 -132.41 1438.49
vn 0.875466 -0.430386 -0.219834
v -9.20453 -131.734 1439.61
vn 0.593591 -0.387211 -0.70549
v -9.20453 -131.734 1439.61
vn 0.330076 -0.929342 -0.165448
v -9.20453 -131.734 1439.61
vn -0.057144 -0.728487 -0.682672
v -9.20453 -131.734 1439.61
vn 0.734893 0.677919 0.0189149
v -9.94949 -132.345 1438.7
vn 0.695055 -0.443451 0.565906
v -9.94949 -132.345 1438.7
vn 0.506024 0.0402333 0.86158
v -10.1528 -132.13 1438.9
vn 0.593591 -0.387211 -0.70549
v -9.12693 -131.561 1439.58
vn 0.704389 0.582207 0.406043
v -9.12693 -131.561 1439.58
vn 0.212526 0.533689 -0.818541
v -9.12693 -131.561 1439.58
vn 0.875466 -0.430386 -0.219834
v -9.15053 -131.664 1439.68
vn 0.621514 0.335744 0.707811
v -9.15053 -131.664 1439.68
vn -0.189423 -0.455625 -0.869784
v -9.254 -131.646 1439.52
vn 0.145555 0.420435 -0.895571
v -9.254 -131.646 1439.52
vn 0.330629 -0.936374 -0.117847
v -9.76868 -132.016 1440.06
vn 0.508556 0.200553 0.837347
v -9.71795 -131.924 1440.13
vn 0.616205 0.250153 0.746803
v -9.96974 -132.106 1440.32
vn 0.424272 -0.90388 -0.0547213
v -9.96974 -132.106 1440.32
vn -0.162213 -0.684429 -0.710805
v -9.98944 -132.093 1440.06
vn 0.667077 0.717733 0.19967
v -10.4623 -131.793 1438.84
vn 0.607352 -0.152403 -0.779678
v -10.7031 -132.055 1438.49
vn -0.174245 -0.477319 -0.861281
v -10.7031 -132.055 1438.49
vn 0.607352 -0.152403 -0.779678
v -10.5999 -131.968 1438.56
vn 0.474823 0.661206 -0.580818
v -10.7639 -131.945 1438.42
vn -0.267457 -0.425574 -0.864496
v -10.7639 -131.945 1438.42
vn -0.181445 0.220284 -0.958412
v -10.7639 -131.945 1438.42
vn 0.780962 0.580578 0.230276
v -10.2616 -130.551 1440.03
vn 0.677214 0.703197 -0.216554
v -10.2616 -130.551 1440.03
vn 0.576182 -0.816051 0.0455476
v -10.6025 -132.471 1441.06
vn -0.449226 -0.569857 -0.688083
v -10.8401 -132.599 1440.88
vn -0.127382 -0.886528 -0.444794
v -10.8401 -132.599 1440.88
vn 0.569241 0.774117 0.27696
v -11.4298 -131.1 1439.19
vn 0.303848 0.641309 -0.704556
v -11.4874 -131.04 1439.09
vn 0.26112 0.937379 -0.230514
v -11.4874 -131.04 1439.09
vn 0.322536 -0.761525 -0.562184
v -12.018 -133.943 1439.93
vn 0.753001 -0.527136 0.393849
v -12.2099 -134.145 1440.03
vn -0.0483302 -0.737339 -0.673791
v -12.2099 -134.145 1440.03
vn 0.295761 -0.952746 0.0692932
v -12.2099 -134.145 1440.03
vn 0.0981665 -0.851103 -0.51574
v -12.3853 -134.192 1440.14
vn 0.21942 -0.749054 -0.625119
v -12.0123 -133.777 1439.71
vn -0.0464535 -0.640065 -0.766915
v -12.0123 -133.777 1439.71
vn -0.134548 -0.895721 -0.423771
v -11.2921 -132.952 1441.72
vn -0.832846 0.115113 -0.541402
v -11.7729 -131.234 1440.92
vn -0.257032 0.231633 -0.938233
v -12.1645 -130.89 1438.93
vn 0.209421 0.951046 -0.227277
v -12.1645 -130.89 1438.93
vn 0.452106 0.567068 0.688501
v -12.111 -130.794 1439.38
vn 0.181564 0.978387 -0.0989667
v -12.111 -130.794 1439.38
vn -0.569838 -0.0104742 -0.82169
v -12.7137 -130.745 1439.17
vn -0.636832 0.520766 -0.568549
v -11.2719 -130.356 1440.28
vn 0.851277 0.463484 0.245987
v -11.0022 -129.6 1440.81
vn 0.677214 0.703197 -0.216554
v -11.0022 -129.6 1440.81
vn 0.28135 0.00649345 -0.959583
v -11.0022 -129.6 1440.81
vn 0.91391 0.221271 0.340306
v -11.0022 -129.6 1440.81
vn 0.292551 0.0207789 0.956024
v -11.0022 -129.6 1440.81
vn 0.900651 0.276267 0.335418
v -11.0705 -129.29 1440.79
vn -0.562741 0.18481 -0.805709
v -11.0705 -129.29 1440.79
vn -0.0349529 0.621398 -0.782715
v -11.0705 -129.29 1440.79
vn 0.677214 0.703197 -0.216554
v -11.1352 -129.484 1440.77
vn 0.28135 0.00649345 -0.959583
v -11.1352 -129.484 1440.77
vn -0.625321 0.310371 -0.715992
v -11.1352 -129.484 1440.77
vn 0.610954 -0.759673 0.222784
v -11.084 -129.291 1440.82
vn 0.292551 0.0207789 0.956024
v -11.084 -129.291 1440.82
vn -0.747766 0.0139174 -0.663816
v -11.149 -129.484 1440.93
vn -0.219835 0.958045 0.183908
v -11.149 -129.484 1440.93
vn -0.842666 -0.141156 0.519605
v -11.149 -129.484 1440.93
vn -0.219835 0.958045 0.183908
v -11.209 -129.479 1440.84
vn -0.842666 -0.141156 0.519605
v -11.209 -129.479 1440.84
vn 0.610954 -0.759673 0.222784
v -11.2093 -129.379 1440.86
vn 0.292551 0.0207789 0.956024
v -11.2093 -129.379 1440.86
vn -0.842666 -0.141156 0.519605
v -11.2093 -129.379 1440.86
vn -0.600155 0.186423 -0.777856
v -11.2093 -129.379 1440.86
vn -0.937331 0.0586686 -0.343465
v -11.2093 -129.379 1440.86
vn -0.937331 0.0586686 -0.343465
v -11.2032 -129.18 1440.88
vn -0.524501 0.0899681 -0.846643
v -11.2032 -129.18 1440.88
vn -0.0349529 0.621398 -0.782715
v -11.2032 -129.18 1440.88
vn -0.797263 -0.0211038 -0.603264
v -11.2032 -129.18 1440.88
vn -0.0349529 0.621398 -0.782715
v -11.3417 -128.892 1441.12
vn -0.759783 -0.0671005 -0.646705
v -11.3417 -128.892 1441.12
vn -0.451506 0.865749 -0.215919
v -11.3417 -128.892 1441.12
vn 0.305836 -0.895979 -0.322004
v -12.9729 -134.612 1440.57
vn 0.637536 -0.748624 0.181961
v -12.737 -134.429 1440.33
vn 0.233784 -0.873024 -0.427988
v -12.737 -134.429 1440.33
vn 0.431663 -0.0430665 0.901006
v -12.8411 -134.334 1440.75
vn 0.648822 -0.760406 0.0285116
v -11.7762 -133.208 1442.46
vn 0.106911 -0.879805 -0.463155
v -11.7762 -133.208 1442.46
vn 0.668576 -0.737164 0.0979544
v -11.4425 -132.932 1442.23
vn 0.844189 -0.429088 0.321291
v -11.4425 -132.932 1442.23
vn -0.60455 0.0651262 -0.7939
v -12.9084 -130.674 1439.42
vn -0.0485281 0.996684 0.0653162
v -13.3675 -130.711 1439.63
vn -0.463984 0.374267 -0.802897
v -13.3675 -130.711 1439.63
vn 0.642807 0.656464 0.394785
v -13.3675 -130.711 1439.63
vn -0.263434 0.849221 -0.45763
v -13.4344 -130.606 1439.7
vn -0.263434 0.849221 -0.45763
v -13.4699 -130.645 1439.65
vn 0.836145 0.208744 0.507236
v -11.4618 -129.381 1441.55
vn -0.937331 0.0586686 -0.343465
v -11.4618 -129.381 1441.55
vn 0.107046 0.99336 0.0421478
v -11.5539 -129.17 1441.57
vn 0.419622 0.550597 -0.721637
v -11.5539 -129.17 1441.57
vn -0.32252 -0.88972 -0.323077
v -11.5539 -129.17 1441.57
vn -0.451558 0.76721 -0.455504
v -11.5529 -129.17 1441.57
vn 0.107046 0.99336 0.0421478
v -11.5529 -129.17 1441.57
vn -0.087285 0.264853 0.96033
v -11.5529 -129.17 1441.57
vn -0.714714 0.493842 0.495282
v -11.5529 -129.17 1441.57
vn -0.431715 -0.885184 0.173408
v -11.5529 -129.17 1441.57
vn -0.451558 0.76721 -0.455504
v -11.6862 -129.256 1441.56
vn -0.489662 0.80756 -0.328753
v -11.6557 -129.257 1441.51
vn -0.714714 0.493842 0.495282
v -11.6557 -129.257 1441.51
vn -0.714714 0.493842 0.495282
v -11.6236 -129.158 1441.45
vn -0.431715 -0.885184 0.173408
v -11.6236 -129.158 1441.45
vn -0.32252 -0.88972 -0.323077
v -11.6842 -129.112 1441.54
vn 0.336744 -0.913603 0.227887
v -11.6842 -129.112 1441.54
vn -0.087285 0.264853 0.96033
v -11.6842 -129.112 1441.54
vn -0.776566 -0.0300642 -0.629319
v -11.6842 -129.112 1441.54
vn -0.431715 -0.885184 0.173408
v -11.6842 -129.112 1441.54
vn 0.419622 0.550597 -0.721637
v -11.6112 -129.065 1441.62
vn 0.336744 -0.913603 0.227887
v -11.6112 -129.065 1441.62
vn 0.336744 -0.913603 0.227887
v -11.563 -129.067 1441.54
vn -0.087285 0.264853 0.96033
v -11.563 -129.067 1441.54
vn -0.436861 0.881217 -0.180583
v -11.9045 -128.983 1441.93
vn 0.772229 -0.626382 0.106343
v -13.5491 -134.979 1441.13
vn -0.446465 -0.510892 -0.734614
v -13.6962 -135.005 1440.98
vn 0.746256 0.0208556 0.665332
v -12.2104 -133.601 1443.35
vn 0.534396 -0.834019 -0.137233
v -12.2325 -133.696 1443.28
vn 0.548997 -0.816236 -0.179891
v -12.2325 -133.696 1443.28
vn 0.155929 -0.819378 -0.55164
v -12.2325 -133.696 1443.28
vn -0.263434 0.849221 -0.45763
v -13.5156 -130.6 1439.76
vn -0.463984 0.374267 -0.802897
v -13.8772 -130.669 1439.95
vn 0.278239 0.412575 -0.86739
v -13.8772 -130.669 1439.95
vn 0.420928 0.258363 -0.869522
v -13.8793 -130.472 1440.04
vn 0.604085 0.714217 0.353519
v -13.8793 -130.472 1440.04
vn 0.0533055 0.986998 0.151636
v -13.8707 -130.795 1440.54
vn -0.416148 0.607778 -0.676334
v -13.7507 -130.379 1439.73
vn -0.416148 0.607778 -0.676334
v -13.8358 -130.378 1439.79
vn -0.541632 -0.271513 -0.79556
v -13.9717 -130.556 1439.97
vn -0.753887 0.180595 -0.631697
v -12.214 -129.92 1441.93
vn -0.219835 0.958045 0.183908
v -12.214 -129.92 1441.93
vn -0.416148 0.607778 -0.676334
v -13.8302 -130.366 1439.79
vn -0.0637389 -0.604907 -0.793741
v -13.8743 -130.258 1439.71
vn -0.0637389 -0.604907 -0.793741
v -13.8818 -130.257 1439.71
vn -0.0637389 -0.604907 -0.793741
v -13.8759 -130.253 1439.71
vn -0.38617 0.600215 -0.700439
v -13.951 -130.157 1439.76
vn -0.38617 0.600215 -0.700439
v -13.9483 -130.151 1439.77
vn -0.38617 0.600215 -0.700439
v -14.0354 -130.15 1439.82
vn -0.176547 0.245171 -0.953269
v -14.0818 -129.935 1439.75
vn 0.794795 0.442375 0.415459
v -14.0818 -129.935 1439.75
vn 0.593364 0.726478 0.346626
v -14.0925 -130.243 1439.93
vn 0.959254 0.0704193 0.273628
v -14.0925 -130.243 1439.93
vn -0.0934281 -0.168006 -0.981349
v -14.0925 -130.243 1439.93
vn -0.529559 -0.417814 -0.738241
v -14.0925 -130.243 1439.93
vn -0.0934281 -0.168006 -0.981349
v -14.1935 -130.131 1439.92
vn -0.407072 -0.640681 -0.651015
v -14.1935 -130.131 1439.92
vn -0.420134 -0.449217 -0.788474
v -14.1629 -130.046 1439.79
vn 0.637716 -0.677507 -0.366472
v -14.0976 -130.04 1439.89
vn -0.0934281 -0.168006 -0.981349
v -14.0976 -130.04 1439.89
vn 0.216186 -0.156466 -0.963733
v -14.179 -129.824 1439.73
vn 0.216186 -0.156466 -0.963733
v -14.2137 -129.82 1439.73
vn 0.216186 -0.156466 -0.963733
v -14.1827 -129.722 1439.72
vn 0.079507 -0.574931 -0.81433
v -14.2964 -129.613 1439.8
vn 0.639056 0.687369 0.345153
v -14.2964 -129.613 1439.8
vn 0.205949 0.550494 -0.809037
v -14.2964 -129.613 1439.8
vn 0.107046 0.99336 0.0421478
v -12.262 -129.118 1442.13
vn -0.32252 -0.88972 -0.323077
v -12.262 -129.118 1442.13
vn -0.708154 0.486948 -0.511273
v -12.262 -129.118 1442.13
vn -0.696114 -0.230572 -0.679898
v -12.262 -129.118 1442.13
vn 0.53482 -0.729809 0.425848
v -14.2978 -129.507 1439.69
vn 0.688804 0.520983 0.504109
v -14.2978 -129.507 1439.69
vn -0.163805 0.585701 -0.793802
v -14.2978 -129.507 1439.69
vn 0.902245 0.124913 0.412735
v -13.9864 -135.368 1441.95
vn 0.495035 -0.45251 -0.741738
v -12.8957 -134.349 1443.74
vn 0.146783 -0.684498 -0.714085
v -12.8957 -134.349 1443.74
vn -0.192446 -0.514543 -0.83559
v -12.9342 -134.137 1443.59
vn -0.208147 0.0366681 -0.97741
v -12.9342 -134.137 1443.59
vn -0.719402 -0.110762 -0.685706
v -12.9342 -134.137 1443.59
vn 0.664543 -0.745189 -0.0554619
v -12.4553 -133.885 1443.56
vn 0.675356 -0.0759933 0.733566
v -12.4553 -133.885 1443.56
vn 0.285626 -0.739064 -0.610084
v -12.4797 -133.877 1443.42
vn 0.079507 -0.574931 -0.81433
v -14.3454 -129.656 1439.82
vn -0.0395237 -0.941426 0.334896
v -14.3454 -129.656 1439.82
vn -0.536964 -0.62731 -0.564049
v -14.3454 -129.656 1439.82
vn 0.205949 0.550494 -0.809037
v -14.3651 -129.605 1439.79
vn -0.665605 -0.448014 -0.59687
v -14.3651 -129.605 1439.79
vn 0.53482 -0.729809 0.425848
v -14.3867 -129.542 1439.74
vn -0.0789352 -0.638822 0.765295
v -14.3867 -129.542 1439.74
vn -0.772593 -0.450178 -0.447705
v -14.3867 -129.542 1439.74
vn -0.617178 -0.100459 -0.780384
v -14.4207 -129.704 1439.9
vn -0.642427 -0.392447 -0.658235
v -14.4282 -129.633 1439.88
vn -0.0975369 -0.949166 0.299284
v -14.4282 -129.633 1439.88
vn 0.757326 -0.576437 -0.306885
v -14.4282 -129.633 1439.88
vn -0.208708 0.635869 -0.743042
v -14.3756 -129.611 1439.97
vn -0.0975369 -0.949166 0.299284
v -14.3756 -129.611 1439.97
vn 0.757326 -0.576437 -0.306885
v -14.3756 -129.611 1439.97
vn 0.229424 -0.270482 -0.934989
v -14.3756 -129.611 1439.97
vn 0.799602 0.553147 -0.233804
v -14.3756 -129.611 1439.97
vn 0.79481 0.60451 0.0533378
v -14.3812 -129.61 1439.95
vn -0.0395237 -0.941426 0.334896
v -14.3812 -129.61 1439.95
vn 0.757326 -0.576437 -0.306885
v -14.3812 -129.61 1439.95
vn 0.229424 -0.270482 -0.934989
v -14.4998 -129.698 1439.96
vn -0.434023 0.655327 -0.6182
v -14.4998 -129.698 1439.96
vn 0.229424 -0.270482 -0.934989
v -14.5107 -129.608 1439.93
vn -0.684888 -0.243487 -0.686763
v -14.5107 -129.608 1439.93
vn 0.688804 0.520983 0.504109
v -14.3623 -129.504 1439.78
vn -0.0789352 -0.638822 0.765295
v -14.3623 -129.504 1439.78
vn 0.0452357 0.533675 0.844479
v -14.3623 -129.504 1439.78
vn -0.772593 -0.450178 -0.447705
v -14.4322 -129.497 1439.78
vn 0.0452357 0.533675 0.844479
v -14.4322 -129.497 1439.78
vn -0.684226 0.596851 -0.419051
v -14.4322 -129.497 1439.78
vn -0.163805 0.585701 -0.793802
v -14.3774 -129.454 1439.75
vn 0.0452357 0.533675 0.844479
v -14.3774 -129.454 1439.75
vn -0.684226 0.596851 -0.419051
v -14.3774 -129.454 1439.75
vn -0.163805 0.585701 -0.793802
v -14.3983 -129.498 1439.72
vn -0.772593 -0.450178 -0.447705
v -14.3983 -129.498 1439.72
vn -0.684226 0.596851 -0.419051
v -14.3983 -129.498 1439.72
vn 0.125262 -0.543891 -0.829754
v -14.4869 -129.187 1439.73
vn 0.854495 0.475516 0.209102
v -14.4869 -129.187 1439.73
vn 0.238366 0.607456 -0.757746
v -14.4869 -129.187 1439.73
vn 0.205949 0.550494 -0.809037
v -14.4415 -129.498 1439.84
vn -0.677875 -0.233867 -0.696988
v -14.4415 -129.498 1439.84
vn -0.0571777 0.511206 -0.857554
v -14.4415 -129.498 1439.84
vn 0.125262 -0.543891 -0.829754
v -14.4877 -129.188 1439.73
vn -0.239711 -0.607928 0.756943
v -14.4877 -129.188 1439.73
vn -0.854182 -0.478338 -0.203877
v -14.4877 -129.188 1439.73
vn 0.854495 0.475516 0.209102
v -14.4872 -129.187 1439.73
vn -0.239711 -0.607928 0.756943
v -14.4872 -129.187 1439.73
vn -0.125896 0.544346 0.82936
v -14.4872 -129.187 1439.73
vn -0.854182 -0.478338 -0.203877
v -14.4883 -129.187 1439.73
vn -0.125896 0.544346 0.82936
v -14.4883 -129.187 1439.73
vn -0.726315 0.668857 -0.158418
v -14.4883 -129.187 1439.73
vn 0.238366 0.607456 -0.757746
v -14.4875 -129.186 1439.73
vn -0.125896 0.544346 0.82936
v -14.4875 -129.186 1439.73
vn -0.726315 0.668857 -0.158418
v -14.4875 -129.186 1439.73
vn 0.238366 0.607456 -0.757746
v -14.488 -129.187 1439.73
vn -0.854182 -0.478338 -0.203877
v -14.488 -129.187 1439.73
vn -0.726315 0.668857 -0.158418
v -14.488 -129.187 1439.73
vn 0.260612 0.943344 -0.205389
v -14.534 -129.324 1439.86
vn -0.525293 0.0889763 -0.846257
v -14.534 -129.324 1439.86
vn -0.51065 -0.544199 0.665645
v -14.6189 -129.322 1439.91
vn -0.525293 0.0889763 -0.846257
v -14.6189 -129.322 1439.91
vn 0.260612 0.943344 -0.205389
v -14.5793 -129.287 1439.97
vn -0.51065 -0.544199 0.665645
v -14.5793 -129.287 1439.97
vn -0.51065 -0.544199 0.665645
v -14.6408 -129.279 1439.93
vn -0.525293 0.0889763 -0.846257
v -14.6408 -129.279 1439.93
vn 0.840509 0.405458 0.359372
v -14.7025 -129.079 1440.11
vn -0.0571777 0.511206 -0.857554
v -14.7025 -129.079 1440.11
vn 0.181708 0.886072 0.426448
v -14.7025 -129.079 1440.11
vn -0.600444 0.614312 -0.511945
v -14.7025 -129.079 1440.11
vn -0.395498 0.916921 0.0532674
v -14.7025 -129.079 1440.11
vn -0.0571777 0.511206 -0.857554
v -14.7534 -129.172 1440.06
vn -0.600444 0.614312 -0.511945
v -14.7534 -129.172 1440.06
vn -0.395498 0.916921 0.0532674
v -14.8861 -129.164 1440.22
vn -0.769371 -0.153735 -0.620027
v -14.8861 -129.164 1440.22
vn -0.863118 0.388626 -0.322486
v -14.8861 -129.164 1440.22
vn 0.794013 -0.327409 -0.512198
v -13.9726 -135.527 1443.34
vn 0.950542 0.123664 -0.284917
v -13.9726 -135.527 1443.34
vn 0.861614 -0.29235 -0.414912
v -13.8364 -135.447 1443.5
vn -0.123204 -0.72979 0.672479
v -13.9991 -135.585 1443.59
vn 0.967454 0.240587 0.0784255
v -14.1342 -135.581 1442.62
vn 0.974482 0.0398475 -0.220899
v -14.0861 -135.599 1442.93
vn 0.828772 0.292464 -0.477076
v -14.0419 -135.411 1443.16
vn -0.20377 -0.955447 0.213537
v -14.2446 -135.795 1443.22
vn -0.594329 -0.691733 -0.410218
v -14.3304 -135.673 1442.13
vn 0.495035 -0.45251 -0.741738
v -13.3332 -134.805 1443.73
vn 0.0359911 0.0637433 -0.997317
v -13.3332 -134.805 1443.73
vn 0.612057 -0.752015 0.244663
v -13.7889 -135.355 1443.6
vn 0.20953 0.247217 -0.946034
v -13.8003 -135.318 1443.49
vn 0.465344 -0.729467 0.501332
v -13.5708 -135.168 1443.84
vn -0.126135 -0.58591 0.800499
v -13.7904 -135.266 1443.88
vn 0.531292 -0.382505 0.755922
v -13.1246 -134.54 1444.09
vn 0.796834 0.0748395 -0.599545
v -13.6953 -134.465 1443.74
vn -0.581993 0.755606 -0.300573
v -13.2172 -129.322 1443.65
vn 0.172088 0.923031 0.344092
v -13.2172 -129.322 1443.65
vn 0.172088 0.923031 0.344092
v -13.3802 -129.484 1444.16
vn -0.395498 0.916921 0.0532674
v -15.2057 -129.34 1440.86
vn -0.844184 0.362184 -0.39519
v -15.2057 -129.34 1440.86
vn -0.666867 0.729466 -0.152212
v -15.2057 -129.34 1440.86
vn -0.47596 0.228895 -0.849158
v -14.1792 -131.569 1444.48
vn -0.685597 0.501701 -0.527497
v -13.9256 -129.48 1444.43
vn -0.787035 0.215497 -0.578045
v -13.9256 -129.48 1444.43
vn -0.55259 0.756062 -0.350735
v -13.9256 -129.48 1444.43
vn 0.575331 0.476947 0.664467
v -13.9256 -129.48 1444.43
vn 0.172088 0.923031 0.344092
v -13.9256 -129.48 1444.43
vn -0.603503 0.755648 -0.254519
v -15.3943 -129.415 1441.33
vn -0.557464 0.680587 -0.475431
v -14.7724 -129.772 1445
vn -0.449252 0.602936 -0.659273
v -14.7724 -129.772 1445
vn 0.0950909 0.960397 -0.261907
v -14.7724 -129.772 1445
vn -0.0389773 0.990958 0.12839
v -16.0995 -129.65 1442.68
vn -0.251238 0.967881 0.00921271
v -16.1303 -129.641 1442.82
vn 0.162194 0.984667 0.064212
v -15.9305 -129.555 1442
vn -0.60147 0.770866 -0.209762
v -15.9888 -129.505 1442.28
vn -0.0817307 0.946054 0.313531
v -15.9888 -129.505 1442.28
vn 0.267397 0.956555 -0.116196
v -15.9888 -129.505 1442.28
vn -0.893181 0.284028 -0.34865
v -16.1234 -129.619 1442.27
vn 0.921192 0.142535 -0.362063
v -15.607 -131.361 1444.44
vn 0.899359 0.432574 0.0635013
v -15.607 -131.361 1444.44
vn 0.318774 0.622643 -0.714632
v -15.754 -131.237 1444.19
vn 0.78384 0.090032 -0.614402
v -15.754 -131.237 1444.19
vn 0.516213 0.586493 -0.62414
v -15.6775 -131.223 1444.5
vn 0.784648 0.558308 0.269479
v -15.6775 -131.223 1444.5
vn 0.898938 0.434634 -0.0548126
v -15.889 -131.203 1444.16
vn 0.318774 0.622643 -0.714632
v -15.889 -131.203 1444.16
vn 0.0207881 0.932587 -0.360346
v -15.889 -131.203 1444.16
vn 0.684166 0.614912 0.392173
v -15.6634 -131.162 1444.38
vn 0.52305 0.849548 -0.0684629
v -15.6634 -131.162 1444.38
vn 0.318774 0.622643 -0.714632
v -15.684 -131.157 1444.29
vn 0.224043 0.948633 -0.223384
v -15.684 -131.157 1444.29
vn 0.239285 0.960684 -0.140819
v -15.7204 -131.124 1444.42
vn 0.862882 0.485874 0.139143
v -15.7506 -131.11 1444.56
vn 0.205441 0.977134 -0.0548022
v -15.7506 -131.11 1444.56
vn 0.772531 0.451339 -0.446643
v -15.7506 -131.11 1444.56
vn 0.74546 0.454899 -0.487192
v -15.8034 -131.104 1444.47
vn 0.808646 0.430281 -0.401186
v -15.8582 -131.116 1444.39
vn 0.597183 0.394742 -0.698249
v -15.937 -130.757 1444.59
vn 0.861291 0.497375 0.103905
v -15.937 -130.757 1444.59
vn -0.11544 0.535534 -0.836586
v -15.216 -129.836 1445.24
vn 0.756721 0.59331 0.27451
v -16.2923 -129.962 1443.74
vn -0.129187 0.971741 0.197561
v -16.4051 -129.847 1443.68
vn -0.144854 0.983053 0.112356
v -16.2857 -129.704 1443.15
vn -0.321196 0.926883 0.194218
v -16.35 -129.742 1443.42
vn -0.517247 0.849275 0.105769
v -16.5309 -129.82 1443.34
vn 0.415601 0.530308 0.738951
v -14.837 -129.644 1445.45
vn 0.0950909 0.960397 -0.261907
v -14.837 -129.644 1445.45
vn 0.0657463 0.872398 0.484354
v -14.837 -129.644 1445.45
vn 0.0950909 0.960397 -0.261907
v -15.196 -129.612 1445.44
vn -0.0937266 0.926734 0.36384
v -15.196 -129.612 1445.44
vn 0.250526 -0.0814239 0.96468
v -15.5311 -130.223 1445.7
vn -0.178733 0.909675 0.374895
v -15.4222 -129.731 1445.68
vn -0.310175 0.0976556 0.94565
v -15.4222 -129.731 1445.68
vn -0.289136 0.882759 0.37032
v -15.9937 -129.795 1445.32
vn -0.471845 -0.120641 0.873389
v -16.216 -129.939 1445.44
vn 0.765466 0.370847 -0.525865
v -16.4035 -129.929 1444.5
vn 0.0340542 0.991886 -0.122485
v -16.4035 -129.929 1444.5
vn -0.521487 0.76758 0.372656
v -16.1851 -129.789 1445.2
vn -0.63157 0.71303 0.304479
v -16.5866 -130.086 1445.07
vn -0.959105 0.165612 0.229542
v -16.5866 -130.086 1445.07
vn -0.974857 0.222153 -0.0173623
v -16.738 -129.964 1444.35
vn -0.628841 0.777321 -0.0181987
v -16.738 -129.964 1444.35
vn -0.629947 0.733242 0.255976
v -16.738 -129.964 1444.35
f 5//5 1//1 6//6
f 2//2 3//3 266//266
f 6//6 1//1 271//271
f 4//4 9//9 11//11
f 283//283 273//273 8//8
f 280//280 274//274 10//10
f 287//287 15//15 275//275
f 285//285 276//276 291//291
f 16//16 22//22 285//285
f 6//6 17//17 5//5
f 277//277 292//292 7//7
f 19//19 6//6 271//271
f 24//24 284//284 281//281
f 21//21 282//282 286//286
f 22//22 21//21 285//285
f 282//282 21//21 23//23
f 281//281 299//299 24//24
f 39//39 272//272 269//269
f 11//11 9//9 12//12
f 288//288 284//284 24//24
f 13//13 11//11 12//12
f 24//24 14//14 288//288
f 289//289 288//288 14//14
f 290//290 15//15 287//287
f 16//16 285//285 291//291
f 27//27 15//15 290//290
f 291//291 302//302 16//16
f 30//30 22//22 16//16
f 302//302 30//30 16//16
f 6//6 19//19 17//17
f 271//271 18//18 19//19
f 293//293 20//20 295//295
f 19//19 296//296 17//17
f 17//17 296//296 44//44
f 39//39 297//297 294//294
f 39//39 294//294 272//272
f 316//316 298//298 43//43
f 297//297 39//39 43//43
f 22//22 48//48 21//21
f 21//21 48//48 23//23
f 28//28 14//14 24//24
f 31//31 25//25 279//279
f 304//304 7//7 292//292
f 304//304 292//292 32//32
f 17//17 44//44 305//305
f 25//25 278//278 279//279
f 33//33 278//278 25//25
f 33//33 267//267 278//278
f 26//26 289//289 29//29
f 301//301 27//27 290//290
f 64//64 26//26 29//29
f 14//14 29//29 289//289
f 14//14 28//28 29//29
f 92//92 25//25 31//31
f 43//43 39//39 66//66
f 30//30 48//48 22//22
f 28//28 24//24 49//49
f 42//42 48//48 30//30
f 32//32 45//45 304//304
f 92//92 31//31 318//318
f 317//317 319//319 306//306
f 24//24 299//299 322//322
f 23//23 48//48 51//51
f 312//312 268//268 307//307
f 307//307 34//34 312//312
f 25//25 308//308 33//33
f 313//313 309//309 35//35
f 308//308 25//25 36//36
f 310//310 36//36 37//37
f 309//309 38//38 35//35
f 311//311 38//38 309//309
f 311//311 59//59 38//38
f 38//38 59//59 35//35
f 60//60 36//36 25//25
f 312//312 270//270 268//268
f 301//301 358//358 40//40
f 40//40 27//27 301//301
f 302//302 41//41 30//30
f 303//303 314//314 41//41
f 29//29 195//195 64//64
f 83//83 25//25 92//92
f 29//29 28//28 195//195
f 319//319 317//317 47//47
f 43//43 66//66 46//46
f 65//65 319//319 47//47
f 360//360 320//320 66//66
f 316//316 43//43 320//320
f 320//320 43//43 46//46
f 66//66 320//320 46//46
f 323//323 300//300 330//330
f 50//50 324//324 331//331
f 52//52 325//325 327//327
f 57//57 52//52 327//327
f 96//96 54//54 321//321
f 54//54 332//332 321//321
f 49//49 55//55 53//53
f 70//70 340//340 333//333
f 341//341 326//326 334//334
f 52//52 57//57 366//366
f 335//335 406//406 73//73
f 338//338 407//407 336//336
f 53//53 366//366 195//195
f 53//53 195//195 49//49
f 56//56 366//366 53//53
f 339//339 337//337 342//342
f 54//54 343//343 332//332
f 344//344 367//367 345//345
f 332//332 343//343 328//328
f 343//343 346//346 328//328
f 347//347 349//349 329//329
f 73//73 348//348 335//335
f 60//60 58//58 353//353
f 352//352 82//82 354//354
f 58//58 60//60 61//61
f 36//36 353//353 37//37
f 353//353 36//36 60//60
f 35//35 59//59 392//392
f 83//83 355//355 25//25
f 61//61 355//355 62//62
f 62//62 355//355 83//83
f 123//123 35//35 392//392
f 41//41 63//63 87//87
f 356//356 40//40 358//358
f 63//63 41//41 314//314
f 41//41 87//87 30//30
f 87//87 42//42 30//30
f 87//87 197//197 42//42
f 88//88 66//66 39//39
f 28//28 49//49 195//195
f 402//402 319//319 65//65
f 66//66 90//90 67//67
f 67//67 360//360 66//66
f 402//402 65//65 361//361
f 88//88 90//90 66//66
f 89//89 69//69 68//68
f 366//366 79//79 72//72
f 75//75 73//73 74//74
f 72//72 71//71 366//366
f 114//114 371//371 376//376
f 432//432 368//368 372//372
f 376//376 371//371 377//377
f 78//78 366//366 71//71
f 369//369 77//77 386//386
f 370//370 433//433 381//381
f 387//387 382//382 388//388
f 389//389 383//383 373//373
f 366//366 78//78 80//80
f 73//73 434//434 74//74
f 350//350 348//348 384//384
f 348//348 76//76 384//384
f 73//73 75//75 348//348
f 378//378 374//374 379//379
f 348//348 75//75 76//76
f 375//375 385//385 380//380
f 78//78 79//79 57//57
f 80//80 78//78 57//57
f 351//351 434//434 390//390
f 366//366 57//57 79//79
f 435//435 350//350 384//384
f 81//81 61//61 120//120
f 120//120 61//61 62//62
f 391//391 119//119 82//82
f 82//82 352//352 391//391
f 81//81 58//58 61//61
f 126//126 39//39 123//123
f 39//39 35//35 123//123
f 62//62 83//83 120//120
f 39//39 126//126 88//88
f 85//85 359//359 84//84
f 85//85 84//84 127//127
f 128//128 394//394 445//445
f 446//446 393//393 195//195
f 393//393 64//64 195//195
f 358//358 395//395 356//356
f 86//86 357//357 396//396
f 86//86 87//87 63//63
f 396//396 447//447 86//86
f 91//91 362//362 398//398
f 95//95 400//400 399//399
f 105//105 400//400 95//95
f 90//90 88//88 181//181
f 129//129 92//92 363//363
f 129//129 363//363 401//401
f 401//401 417//417 129//129
f 397//397 364//364 365//365
f 97//97 94//94 93//93
f 408//408 403//403 404//404
f 203//203 96//96 321//321
f 42//42 547//547 48//48
f 129//129 418//418 108//108
f 99//99 98//98 100//100
f 410//410 411//411 409//409
f 103//103 101//101 102//102
f 414//414 413//413 412//412
f 106//106 107//107 424//424
f 104//104 424//424 107//107
f 419//419 421//421 425//425
f 112//112 415//415 423//423
f 108//108 416//416 136//136
f 134//134 415//415 112//112
f 109//109 111//111 110//110
f 134//134 460//460 415//415
f 426//426 427//427 428//428
f 422//422 420//420 140//140
f 422//422 140//140 423//423
f 131//131 113//113 137//137
f 448//448 132//132 429//429
f 465//465 430//430 146//146
f 133//133 144//144 116//116
f 453//453 436//436 141//141
f 487//487 431//431 451//451
f 115//115 366//366 80//80
f 366//366 130//130 195//195
f 406//406 434//434 73//73
f 366//366 115//115 130//130
f 186//186 115//115 80//80
f 143//143 472//472 437//437
f 478//478 438//438 481//481
f 540//540 390//390 434//434
f 119//119 117//117 118//118
f 119//119 118//118 162//162
f 82//82 119//119 169//169
f 198//198 120//120 83//83
f 121//121 117//117 391//391
f 117//117 119//119 391//391
f 391//391 120//120 121//121
f 117//117 121//121 118//118
f 121//121 120//120 198//198
f 198//198 122//122 121//121
f 439//439 121//121 122//122
f 527//527 122//122 198//198
f 527//527 439//439 122//122
f 392//392 176//176 123//123
f 126//126 123//123 176//176
f 124//124 128//128 445//445
f 177//177 124//124 445//445
f 177//177 171//171 124//124
f 532//532 125//125 440//440
f 538//538 446//446 178//178
f 178//178 446//446 195//195
f 171//171 177//177 174//174
f 441//441 86//86 447//447
f 441//441 442//442 86//86
f 126//126 180//180 88//88
f 442//442 87//87 86//86
f 405//405 90//90 181//181
f 140//140 420//420 405//405
f 405//405 181//181 140//140
f 112//112 423//423 140//140
f 466//466 135//135 449//449
f 452//452 450//450 457//457
f 146//146 156//156 465//465
f 142//142 454//454 473//473
f 488//488 452//452 457//457
f 455//455 475//475 482//482
f 108//108 136//136 129//129
f 138//138 456//456 112//112
f 458//458 461//461 139//139
f 459//459 467//467 462//462
f 470//470 463//463 468//468
f 469//469 460//460 134//134
f 464//464 465//465 156//156
f 471//471 488//488 457//457
f 513//513 129//129 136//136
f 471//471 138//138 157//157
f 112//112 184//184 138//138
f 184//184 112//112 140//140
f 138//138 184//184 157//157
f 115//115 186//186 130//130
f 406//406 548//548 188//188
f 434//434 188//188 540//540
f 406//406 188//188 434//434
f 189//189 129//129 513//513
f 474//474 479//479 476//476
f 477//477 480//480 483//483
f 148//148 147//147 145//145
f 490//490 151//151 484//484
f 493//493 485//485 150//150
f 486//486 502//502 499//499
f 494//494 149//149 491//491
f 492//492 496//496 503//503
f 497//497 495//495 500//500
f 498//498 501//501 504//504
f 157//157 488//488 471//471
f 154//154 153//153 152//152
f 518//518 514//514 489//489
f 509//509 505//505 155//155
f 511//511 507//507 510//510
f 508//508 512//512 506//506
f 189//189 515//515 190//190
f 158//158 516//516 519//519
f 543//543 517//517 520//520
f 161//161 159//159 160//160
f 523//523 166//166 525//525
f 172//172 525//525 173//173
f 525//525 166//166 173//173
f 161//161 168//168 163//163
f 159//159 161//161 163//163
f 161//161 160//160 175//175
f 175//175 160//160 534//534
f 192//192 526//526 537//537
f 192//192 530//530 526//526
f 529//529 528//528 527//527
f 162//162 164//164 119//119
f 119//119 164//164 169//169
f 165//165 164//164 162//162
f 162//162 163//163 165//165
f 163//163 168//168 165//165
f 528//528 529//529 524//524
f 165//165 530//530 164//164
f 530//530 167//167 164//164
f 191//191 167//167 530//530
f 193//193 167//167 191//191
f 164//164 167//167 531//531
f 531//531 167//167 193//193
f 170//170 536//536 538//538
f 178//178 170//170 538//538
f 174//174 173//173 171//171
f 172//172 173//173 174//174
f 175//175 534//534 536//536
f 533//533 535//535 179//179
f 170//170 175//175 536//536
f 173//173 166//166 539//539
f 537//537 170//170 192//192
f 176//176 193//193 194//194
f 531//531 193//193 176//176
f 392//392 531//531 176//176
f 207//207 170//170 178//178
f 443//443 533//533 179//179
f 176//176 180//180 126//126
f 180//180 176//176 206//206
f 546//546 443//443 179//179
f 444//444 197//197 87//87
f 83//83 92//92 198//198
f 198//198 92//92 129//129
f 180//180 181//181 88//88
f 181//181 184//184 140//140
f 185//185 184//184 181//181
f 195//195 130//130 187//187
f 189//189 182//182 129//129
f 183//183 198//198 129//129
f 201//201 198//198 183//183
f 183//183 129//129 182//182
f 521//521 157//157 184//184
f 184//184 185//185 521//521
f 188//188 549//549 540//540
f 130//130 186//186 187//187
f 182//182 189//189 204//204
f 189//189 190//190 204//204
f 522//522 185//185 544//544
f 530//530 192//192 191//191
f 191//191 192//192 205//205
f 205//205 193//193 191//191
f 176//176 194//194 206//206
f 194//194 193//193 206//206
f 193//193 205//205 206//206
f 179//179 529//529 208//208
f 207//207 192//192 170//170
f 225//225 208//208 529//529
f 527//527 225//225 529//529
f 207//207 178//178 195//195
f 315//315 196//196 199//199
f 546//546 196//196 315//315
f 546//546 199//199 196//196
f 180//180 185//185 181//181
f 195//195 187//187 200//200
f 212//212 199//199 546//546
f 212//212 315//315 199//199
f 185//185 180//180 221//221
f 550//550 200//200 187//187
f 183//183 182//182 201//201
f 201//201 182//182 218//218
f 185//185 202//202 544//544
f 552//552 202//202 219//219
f 545//545 202//202 552//552
f 185//185 219//219 202//202
f 221//221 219//219 185//185
f 218//218 182//182 204//204
f 552//552 219//219 220//220
f 551//551 542//542 541//541
f 208//208 225//225 228//228
f 225//225 527//527 198//198
f 211//211 207//207 195//195
f 208//208 546//546 179//179
f 209//209 546//546 208//208
f 209//209 208//208 224//224
f 228//228 224//224 208//208
f 210//210 225//225 198//198
f 211//211 195//195 200//200
f 242//242 212//212 546//546
f 209//209 242//242 546//546
f 201//201 214//214 198//198
f 214//214 210//210 198//198
f 221//221 180//180 249//249
f 180//180 206//206 249//249
f 211//211 200//200 550//550
f 201//201 218//218 213//213
f 213//213 218//218 222//222
f 222//222 215//215 213//213
f 216//216 213//213 215//215
f 223//223 217//217 559//559
f 245//245 201//201 213//213
f 247//247 562//562 221//221
f 245//245 213//213 216//216
f 217//217 557//557 556//556
f 247//247 217//217 223//223
f 217//217 556//556 560//560
f 214//214 201//201 245//245
f 218//218 204//204 558//558
f 218//218 558//558 561//561
f 220//220 219//219 559//559
f 562//562 219//219 221//221
f 223//223 559//559 219//219
f 547//547 553//553 253//253
f 42//42 553//553 547//547
f 207//207 257//257 192//192
f 205//205 192//192 255//255
f 255//255 192//192 257//257
f 226//226 225//225 227//227
f 225//225 210//210 227//227
f 225//225 226//226 563//563
f 229//229 563//563 226//226
f 234//234 229//229 226//226
f 230//230 226//226 227//227
f 231//231 229//229 233//233
f 231//231 564//564 229//229
f 229//229 234//234 233//233
f 230//230 227//227 232//232
f 569//569 227//227 210//210
f 567//567 224//224 228//228
f 565//565 570//570 574//574
f 211//211 595//595 207//207
f 226//226 566//566 234//234
f 568//568 572//572 235//235
f 573//573 575//575 576//576
f 224//224 567//567 236//236
f 568//568 235//235 577//577
f 578//578 576//576 237//237
f 237//237 576//576 238//238
f 576//576 575//575 238//238
f 575//575 571//571 238//238
f 581//581 569//569 239//239
f 240//240 579//579 580//580
f 581//581 240//240 580//580
f 239//239 240//240 581//581
f 224//224 236//236 582//582
f 241//241 239//239 569//569
f 569//569 210//210 241//241
f 239//239 241//241 240//240
f 243//243 240//240 241//241
f 224//224 582//582 259//259
f 583//583 585//585 262//262
f 210//210 214//214 241//241
f 550//550 590//590 211//211
f 590//590 258//258 211//211
f 258//258 595//595 211//211
f 254//254 554//554 584//584
f 555//555 593//593 591//591
f 584//584 209//209 259//259
f 254//254 584//584 259//259
f 592//592 594//594 596//596
f 254//254 259//259 260//260
f 594//594 598//598 596//596
f 259//259 209//209 224//224
f 259//259 582//582 600//600
f 214//214 585//585 241//241
f 244//244 585//585 248//248
f 586//586 588//588 252//252
f 244//244 262//262 585//585
f 601//601 586//586 265//265
f 252//252 265//265 586//586
f 214//214 245//245 585//585
f 248//248 585//585 245//245
f 248//248 245//245 246//246
f 557//557 217//217 247//247
f 246//246 245//245 216//216
f 249//249 247//247 221//221
f 588//588 587//587 250//250
f 557//557 247//247 250//250
f 557//557 250//250 587//587
f 249//249 251//251 247//247
f 588//588 250//250 589//589
f 251//251 250//250 247//247
f 589//589 252//252 588//588
f 249//249 605//605 251//251
f 606//606 252//252 589//589
f 264//264 256//256 205//205
f 205//205 255//255 264//264
f 206//206 205//205 256//256
f 256//256 249//249 206//206
f 261//261 596//596 598//598
f 599//599 257//257 597//597
f 260//260 259//259 263//263
f 598//598 602//602 261//261
f 257//257 599//599 255//255
f 255//255 599//599 264//264
f 603//603 261//261 602//602
f 601//601 263//263 259//259
f 263//263 601//601 265//265
f 604//604 605//605 256//256
f 603//603 602//602 607//607
f 256//256 605//605 249//249
