# Wavafront OBJ file of BodyParts3D
# BodyParts3D, Copyright(C) 2010-2011 The Database Center for Life Science licensed under CC Attribution-Share Alike 2.1 Japan.
vn -0.308877 -0.674328 0.670729
v -280.576 -128.159 809.225
vn -0.942684 0.109712 0.315136
v -282.208 -124.868 809.333
vn -0.711431 -0.293818 0.638386
v -282.048 -126.302 809.264
vn -0.786311 -0.0342452 0.616881
v -281.821 -124.705 809.984
vn -0.863105 0.228794 0.450225
v -281.85 -124.368 809.888
vn -0.57934 -0.261795 0.7719
v -281.079 -124.856 810.712
vn -0.881456 0.467046 -0.070021
v -281.724 -123.459 809.021
vn -0.872706 0.485341 0.0531801
v -280.921 -122.289 810.175
vn -0.708539 -0.581908 0.399194
v -281.739 -127.865 808.5
vn -0.860585 -0.468758 -0.199145
v -281.981 -127.747 807.413
vn -0.686584 -0.0788489 -0.722763
v -281.839 -127.136 806.837
vn -0.548408 -0.829525 0.105533
v -281.339 -128.415 807.881
vn -0.512229 -0.352154 -0.783332
v -280.708 -128.546 806.501
vn -0.942946 -0.229448 0.241262
v -282.449 -126.468 808.601
vn -0.959092 0.0986857 -0.265337
v -282.43 -125.919 807.771
vn -0.7771 0.303045 -0.551615
v -282.089 -125.621 807.337
vn -0.414181 -0.237529 0.878655
v -277.9 -122.631 813.362
vn -0.711018 0.213592 0.669949
v -279.688 -121.249 812.052
vn -0.791308 0.479274 0.379642
v -279.807 -120.639 811.573
vn -0.664922 0.00599708 0.746889
v -279.386 -122.21 812.49
vn -0.532812 0.166014 0.82979
v -279.051 -121.78 812.712
vn -0.558476 0.432676 0.70774
v -279.172 -120.467 812.167
vn -0.276491 0.553066 0.78592
v -278.049 -120.791 812.958
vn -0.352782 0.784865 0.509442
v -278.889 -119.812 811.756
vn 0.0577247 0.792088 0.607672
v -278.196 -119.782 811.63
vn -0.750217 0.63414 -0.187193
v -280.006 -121.363 808.87
vn -0.685658 0.727137 -0.0338391
v -279.446 -120.967 808.048
vn -0.668978 0.726074 -0.159014
v -279.354 -119.718 809.932
vn -0.653393 0.695704 -0.298453
v -279.102 -120.46 808.644
vn -0.535892 0.812623 -0.229049
v -278.027 -119.557 808.767
vn -0.19725 -0.980342 -0.00458866
v -279.559 -129.281 807.265
vn -0.715549 0.0775575 -0.694243
v -280.298 -123.506 806.464
vn -0.800258 0.552989 -0.231929
v -279.984 -121.486 807.464
vn -0.931175 0.200609 -0.304417
v -278.56 -119.61 805.583
vn -0.391331 -0.161637 -0.905943
v -280.01 -127.891 805.925
vn -0.16106 -0.651257 -0.741569
v -278.958 -128.862 806.02
vn -0.412214 -0.275852 -0.868323
v -277.779 -126.486 804.902
vn -0.930398 -0.297687 -0.213874
v -278.082 -122.332 802.546
vn -0.96802 -0.00283114 -0.250859
v -278.386 -119.058 799.38
vn -0.0934043 0.0966779 0.990923
v -275.345 -123.334 814.182
vn 0.00342901 0.101153 0.994865
v -275.422 -122.286 814.081
vn -0.132904 0.121549 0.983647
v -274.701 -122.599 814.019
vn -0.20759 0.138438 0.968371
v -276.147 -121.994 814.042
vn -0.112231 0.207869 0.971697
v -275.151 -121.213 813.965
vn -0.162645 0.822681 0.54474
v -277.622 -118.901 810.448
vn -0.551241 -0.558287 0.620039
v -274.544 -128.554 809.755
vn -0.110119 -0.687153 0.718119
v -277.072 -127.139 810.233
vn -0.11096 -0.752612 0.649047
v -276.7 -128.405 809.104
vn -0.467091 -0.777928 0.420303
v -275.276 -127.122 810.922
vn -0.101798 -0.532945 0.840004
v -275.299 -127.622 809.954
vn -0.136196 -0.532537 0.835377
v -274.922 -128.131 809.795
vn -0.723626 -0.672795 0.153986
v -274.557 -127.605 810.633
vn -0.864883 -0.396984 0.307214
v -274.419 -127.979 810.346
vn -0.354202 -0.397017 0.846711
v -274.5 -128.054 810.007
vn -0.210772 -0.754552 0.621472
v -274.511 -127.711 809.937
vn -0.668348 0.736671 0.103082
v -277.246 -119.097 807.565
vn -0.120891 -0.860625 0.494682
v -275.664 -129.521 807.5
vn -0.356426 -0.83355 0.422084
v -274.926 -128.939 808.778
vn -0.0749256 -0.83981 -0.537686
v -277.134 -129.306 806.64
vn -0.165936 -0.608772 -0.775797
v -277.248 -128.428 805.715
vn -0.45861 -0.699519 -0.548042
v -275.907 -125.017 802.578
vn -0.881407 0.441277 0.16851
v -278.07 -116.072 801.611
vn -0.61823 -0.769635 -0.159541
v -276.857 -123.427 800.192
vn -0.837834 0.352167 -0.417148
v -277.686 -115.502 798.973
vn -0.753347 0.654989 -0.0588066
v -277.445 -114.933 799.918
vn -0.680832 0.701613 -0.210253
v -277.161 -114.98 798.842
vn -0.320804 0.351475 -0.879517
v -276.79 -115.984 798.007
vn -0.646219 0.750234 0.13982
v -276.453 -114.03 800.045
vn -0.685184 -0.644838 -0.338684
v -276.494 -123.063 796.546
vn -0.312184 -0.918204 -0.243808
v -275.646 -123.631 796.625
vn -0.797402 0.0758267 -0.598666
v -277.263 -120.087 797.396
vn -0.870822 -0.247065 -0.425004
v -276.657 -122.731 796.484
vn -0.698051 -0.345359 -0.627257
v -276.432 -122.767 796.214
vn -0.384602 -0.786626 -0.483012
v -275.684 -123.425 796.207
vn -0.528641 -0.565915 0.632676
v -272.539 -126.945 814.7
vn -0.32224 0.0440033 0.945635
v -272.305 -125.732 815.291
vn -0.29271 0.0421043 0.955274
v -274.205 -122.175 814.147
vn 0.0161066 0.335714 0.941826
v -272.876 -123.034 814.687
vn -0.0909368 0.259686 0.961402
v -274.095 -121.095 814.134
vn 0.207356 0.61463 0.761074
v -273.87 -119.771 813.504
vn -0.583308 -0.732195 0.351627
v -274.144 -127.604 811.687
vn -0.0394795 0.826911 0.560945
v -273.567 -116.862 810.066
vn 0.498955 0.638234 0.58626
v -273.225 -116.872 809.883
vn -0.601223 0.785539 0.146489
v -273.321 -116.265 808.953
vn 0.362817 0.840551 0.40229
v -272.654 -116.097 808.531
vn -0.291481 -0.955182 -0.0516298
v -273.538 -129.805 807.464
vn -0.164959 -0.829957 -0.532879
v -272.59 -129.548 805.939
vn 0.711226 -0.0112221 -0.702874
v -273.679 -119.928 798.526
vn 0.498359 -0.1501 -0.853878
v -273.705 -119.579 798.495
vn 0.0862262 0.0408072 -0.99544
v -273.327 -119.868 798.608
vn 0.34118 -0.129177 -0.93108
v -273.287 -118.849 798.396
vn 0.0408669 -0.172201 -0.984214
v -273.03 -119.166 798.497
vn 0.163713 0.545346 -0.822068
v -275.407 -115.473 798.215
vn 0.00558531 0.786775 -0.617215
v -274.7 -114.817 799.057
vn -0.340787 -0.917782 -0.203813
v -275.139 -124.028 798.831
vn -0.0819637 -0.924679 -0.371821
v -274.601 -123.65 796.44
vn 0.511536 -0.247272 -0.822914
v -273.21 -123.101 796.831
vn -0.217445 -0.931401 -0.291909
v -272.497 -124.71 799.213
vn 0.217816 0.404663 -0.888147
v -275.149 -120.845 796.355
vn 0.713698 -0.0308978 -0.699772
v -274.802 -119.891 797.389
vn 0.483649 0.595622 -0.641341
v -274.057 -120.295 797.655
vn 0.147527 0.191689 -0.970305
v -275.644 -117.793 797.469
vn -0.218914 0.321752 -0.921169
v -275.537 -119.642 797.141
vn 0.539729 0.0760202 -0.838399
v -274.329 -119.403 797.841
vn 0.50824 0.0582631 -0.859243
v -273.932 -118.619 798.019
vn 0.0827895 -0.159723 -0.983684
v -275.367 -123.079 796.021
vn -0.336049 -0.505435 0.794737
v -270.041 -127.574 815.792
vn 0.102937 -0.244074 0.964278
v -269.699 -127.139 816.154
vn -0.361921 -0.773393 0.520458
v -269.291 -129.229 814.67
vn 0.116273 -0.644787 0.755467
v -268.941 -128.969 814.958
vn 0.0848086 0.549337 0.831286
v -270.174 -125.657 815.76
vn 0.110507 0.440471 0.89094
v -269.774 -126.081 816.101
vn 0.314878 0.701679 0.639138
v -269.847 -125.482 815.55
vn 0.665789 0.651194 0.36424
v -269.645 -125.233 814.934
vn 0.517161 0.659746 0.545234
v -269.466 -125.777 815.71
vn 0.825277 0.331378 0.45728
v -269.403 -125.012 814.162
vn 0.589308 0.302237 0.749245
v -269.029 -126.427 815.868
vn 0.815201 0.557541 0.156829
v -269.193 -125.634 814.542
vn 0.787239 0.567704 0.240764
v -268.506 -126.53 815.151
vn 0.794721 0.60608 -0.0329357
v -268.432 -126.665 814.46
vn 0.324415 0.509051 0.797259
v -271.462 -123.318 814.493
vn 0.524688 0.528422 0.667438
v -270.335 -124.278 814.613
vn 0.748531 -0.00515689 0.66308
v -268.983 -124.382 813.569
vn -0.0210451 -0.954832 0.296401
v -268.984 -129.986 813.024
vn 0.184804 -0.845481 0.501008
v -268.597 -129.402 814.317
vn 0.929811 0.321737 0.178709
v -268.948 -125.808 813.591
vn 0.916865 -0.0267372 0.3983
v -268.833 -125.182 813.099
vn 0.991354 0.126953 0.0331702
v -268.71 -126 812.547
vn 0.899946 0.396733 -0.180833
v -268.647 -126.549 811.584
vn -0.324397 -0.908548 0.263262
v -271.198 -130.305 809.968
vn 0.987688 0.0675507 -0.141101
v -269.364 -126.328 809.424
vn 0.811204 -0.57837 -0.0862366
v -269.223 -125.974 809.345
vn 0.955914 -0.254653 -0.146217
v -268.928 -126.02 810.772
vn 0.83994 0.520829 -0.152438
v -269.045 -126.928 809.534
vn -0.304907 -0.952272 0.0145153
v -271 -130.857 807.569
vn -0.120008 -0.877337 -0.464627
v -270.715 -130.625 806.436
vn 0.10232 -0.994751 0.00123947
v -270.267 -130.995 807.923
vn 0.426894 -0.734437 -0.527602
v -269.315 -130.537 806.713
vn 0.883029 0.445029 -0.149023
v -269.01 -127.274 806.384
vn 0.981363 -0.155008 -0.113578
v -269.315 -125.99 805.775
vn 0.579067 0.812096 0.0719854
v -271.376 -116.377 806.028
vn 0.0898729 -0.628738 -0.772406
v -270.49 -129.696 805.627
vn -0.3284 -0.712318 -0.620288
v -271.822 -127.573 803.351
vn -0.354763 -0.750027 -0.558214
v -271.875 -127.174 802.913
vn 0.0160466 -0.754396 -0.656223
v -271.348 -128.591 804.255
vn 0.673007 -0.167747 -0.720363
v -271.223 -127.295 803.625
vn 0.573309 -0.568911 -0.589625
v -271.44 -127.036 803.223
vn 0.0831262 -0.736022 -0.671835
v -270.91 -129.113 805.135
vn 0.46996 -0.3395 -0.814786
v -270.676 -128.217 804.162
vn 0.568769 -0.142295 -0.810095
v -270.071 -126.717 804.251
vn 0.365147 -0.591655 -0.718757
v -269.497 -128.933 805.465
vn 0.877073 -0.19195 -0.440338
v -269.583 -126.561 804.831
vn 0.839785 0.317967 -0.440065
v -269.629 -127.668 804.69
vn 0.562108 -0.437255 -0.702028
v -269.172 -128.551 805.454
vn 0.856487 0.00294309 -0.516161
v -271.327 -126.614 803.489
vn 0.922311 -0.356004 -0.150344
v -271.377 -125.93 803.35
vn 0.897661 -0.323492 -0.299261
v -271.543 -126.768 802.815
vn 0.552388 -0.106912 -0.826703
v -271.216 -125.868 803.687
vn 0.64512 -0.755851 -0.111844
v -271.085 -125.566 803.262
vn 0.815158 -0.57749 -0.0449684
v -271.167 -125.711 802.58
vn 0.480032 -0.107528 -0.870636
v -270.808 -126.484 803.928
vn 0.662227 -0.736199 -0.139523
v -270.938 -125.478 802.879
vn 0.31653 -0.255793 -0.913443
v -270.482 -126.095 803.951
vn 0.308289 -0.292855 -0.905093
v -270.512 -125.763 803.833
vn 0.413294 -0.822502 -0.39074
v -270.585 -125.256 803.175
vn 0.359887 -0.248682 -0.899243
v -269.801 -125.651 804.103
vn 0.607113 -0.735862 -0.299867
v -269.084 -125.425 804.933
vn -0.365835 -0.804415 -0.468061
v -272.094 -125.739 800.838
vn 0.927524 -0.366645 -0.072602
v -271.417 -126.142 802.322
vn 0.699975 -0.599807 -0.387643
v -271.44 -125.39 800.737
vn 0.653089 -0.507165 -0.562368
v -270.503 -123.403 799.57
vn 0.769793 -0.288014 -0.569619
v -270.072 -122.96 799.817
vn 0.199899 0.205342 -0.958058
v -272.602 -119.834 798.568
vn 0.42538 0.319608 -0.846701
v -272.258 -120.084 798.605
vn 0.731384 0.385063 -0.562854
v -271.395 -121.127 798.782
vn 0.496628 0.220978 -0.839362
v -272.679 -118.95 798.747
vn 0.268474 0.466653 -0.842708
v -272.593 -120.609 798.273
vn 0.601327 0.235532 -0.763499
v -271.441 -121.957 798.24
vn 0.574876 -0.128552 0.808079
v -268.335 -127.186 815.384
vn 0.573976 -0.358667 0.736145
v -268.273 -128.306 815.135
vn 0.506672 -0.65194 0.564143
v -268.254 -129.16 814.451
vn 0.892879 0.000465099 0.450296
v -267.844 -128 814.71
vn 0.893965 0.419272 0.158231
v -267.848 -127.382 814.225
vn 0.622476 0.465514 0.629143
v -268.7 -123.721 813.185
vn 0.442824 -0.847737 0.291973
v -267.94 -129.765 813.111
vn 0.816672 -0.358395 0.452326
v -267.551 -128.876 813.804
vn 0.770206 -0.569299 0.287544
v -267.606 -129.432 813.206
vn 0.841634 0.534828 -0.0749093
v -267.408 -128.044 812.553
vn 0.824153 -0.565731 0.0268296
v -267.56 -129.639 811.816
vn 0.98846 -0.0363665 0.147049
v -267.244 -128.651 813.029
vn 0.985914 0.0892086 -0.141479
v -267.295 -128.519 811.931
vn 0.913337 -0.391592 0.111674
v -268.643 -125.378 812.057
vn 0.863493 0.504058 -0.0174885
v -268.342 -127.146 812.051
vn 0.810749 0.577048 -0.0984939
v -268.226 -127.277 811.358
vn 0.757587 -0.216179 0.615896
v -268.312 -124.724 812.623
vn 0.670625 -0.739927 0.0526353
v -268.388 -125.278 810.684
vn 0.793249 0.0861127 0.602778
v -267.222 -124.319 811.418
vn 0.361717 -0.92531 0.113857
v -268.381 -130.32 810.92
vn 0.638071 -0.769726 -0.0196946
v -268.082 -130.197 810.166
vn 0.879693 0.441909 -0.17566
v -267.969 -128.296 809.768
vn 0.861487 -0.500677 -0.0846348
v -267.894 -129.875 809.018
vn 0.964996 -0.237402 -0.111456
v -267.782 -129.728 809.698
vn 0.439863 -0.896403 -0.0546136
v -268.509 -125.391 808.477
vn 0.502525 -0.864548 0.00503058
v -266.456 -124.767 808.258
vn 0.696365 0.678036 0.235253
v -267.293 -121.238 807.208
vn 0.84408 -0.333346 -0.420011
v -268.308 -129.907 807.254
vn 0.971032 -0.137688 -0.195291
v -267.913 -129.672 808.261
vn 0.673788 -0.72425 -0.146532
v -268.212 -130.13 808.011
vn 0.906338 0.269617 -0.325357
v -268.738 -127.6 806.439
vn 0.389175 -0.905949 -0.16673
v -267.559 -124.906 807.262
vn 0.736036 -0.399266 -0.54666
v -267.779 -123.956 804.599
vn 0.806025 0.141807 -0.574643
v -267.583 -123.534 804.833
vn 0.487 -0.748631 -0.44987
v -268.908 -124.112 802.508
vn 0.856175 -0.386202 0.343236
v -265.516 -123.867 807.673
vn 0.70766 0.623766 0.331864
v -265.342 -123.168 807.52
vn 0.588375 -0.725023 -0.357989
v -266.243 -124.09 806.678
vn 0.738472 0.584089 -0.336897
v -265.888 -123.07 806.451
vn 0.772074 0.559344 -0.301722
v -265.596 -122.891 807.117
vn 0.797057 -0.37465 -0.473643
v -265.52 -123.319 806.844
vn -0.465087 -0.84567 -0.261794
v -280.708 -128.546 806.501
vn -0.715878 0.660129 0.227482
v -278.56 -119.61 805.583
vn -0.464832 0.879966 -0.0979329
v -277.622 -118.901 810.448
vn -0.970468 -0.035625 0.238585
v -274.544 -128.554 809.755
vn -0.507364 -0.518847 0.688026
v -274.922 -128.131 809.795
vn -0.467444 0.162978 0.86887
v -274.922 -128.131 809.795
vn -0.467444 0.162978 0.86887
v -274.5 -128.054 810.007
vn -0.972332 -0.010168 0.23338
v -274.5 -128.054 810.007
vn -0.467444 0.162978 0.86887
v -274.511 -127.711 809.937
vn -0.979941 -0.165513 0.111004
v -274.511 -127.711 809.937
vn -0.0944581 -0.981117 -0.168779
v -275.664 -129.521 807.5
vn -0.237119 0.625049 -0.743699
v -277.161 -114.98 798.842
vn 0.235814 0.964485 0.118999
v -276.453 -114.03 800.045
vn 0.0024523 0.785916 -0.618328
v -276.453 -114.03 800.045
vn -0.242809 0.275834 -0.930032
v -277.263 -120.087 797.396
vn -0.246633 0.0610153 -0.967186
v -276.432 -122.767 796.214
vn -0.0888777 -0.40742 -0.908906
v -275.684 -123.425 796.207
vn -0.128444 0.914811 0.382915
v -273.321 -116.265 808.953
vn 0.46221 0.728051 -0.506265
v -273.679 -119.928 798.526
vn 0.11178 0.498618 -0.859585
v -273.679 -119.928 798.526
vn 0.235567 -0.0702943 -0.969313
v -273.679 -119.928 798.526
vn 0.495164 0.179605 -0.850032
v -273.03 -119.166 798.497
vn 0.665099 0.373365 -0.646716
v -274.7 -114.817 799.057
vn 0.412984 0.910713 0.00679548
v -274.7 -114.817 799.057
vn 0.434097 -0.680869 -0.589895
v -274.601 -123.65 796.44
vn 0.212274 -0.377414 -0.901387
v -274.601 -123.65 796.44
vn 0.44614 -0.672217 -0.590833
v -272.497 -124.71 799.213
vn 0.483242 0.546517 -0.683957
v -274.802 -119.891 797.389
vn 0.442594 0.387159 -0.808838
v -275.537 -119.642 797.141
vn 0.758271 -0.601622 0.251147
v -268.833 -125.182 813.099
vn 0.781383 0.460193 -0.4215
v -271.376 -116.377 806.028
vn 0.474042 -0.487202 -0.733429
v -271.822 -127.573 803.351
vn 0.546849 -0.650965 -0.526499
v -271.875 -127.174 802.913
vn 0.928124 -0.0143799 -0.371992
v -271.44 -127.036 803.223
vn 0.789312 -0.0867473 -0.607833
v -269.629 -127.668 804.69
vn 0.89808 0.0431286 -0.437712
v -269.172 -128.551 805.454
vn 0.480286 -0.758221 -0.440937
v -271.216 -125.868 803.687
vn 0.290187 -0.741885 -0.604482
v -270.512 -125.763 803.833
vn 0.607211 -0.595346 -0.526174
v -269.801 -125.651 804.103
vn 0.91462 -0.403828 -0.0198167
v -269.084 -125.425 804.933
vn 0.319667 -0.762981 -0.561848
v -272.094 -125.739 800.838
vn 0.825899 0.409819 -0.387219
v -270.072 -122.96 799.817
vn 0.859431 0.333137 0.387812
v -268.335 -127.186 815.384
vn 0.679194 -0.702181 0.213627
v -268.312 -124.724 812.623
vn 0.779935 -0.537736 0.320219
v -267.222 -124.319 811.418
vn 0.754242 -0.514205 -0.408303
v -268.908 -124.112 802.508
vn 0.774348 -0.564334 -0.286205
v -265.516 -123.867 807.673
vn 0.907452 -0.13952 0.396314
v -265.342 -123.168 807.52
vn 0.943312 -0.275012 -0.185822
v -265.342 -123.168 807.52
vn 0.881727 0.354997 -0.3107
v -265.342 -123.168 807.52
vn 0.664474 0.155874 -0.730875
v -265.888 -123.07 806.451
vn 0.834158 0.394217 -0.385711
v -265.52 -123.319 806.844
f 6//6 17//17 20//20
f 19//19 28//28 8//8
f 1//1 3//3 9//9
f 14//14 3//3 2//2
f 2//2 7//7 15//15
f 15//15 14//14 2//2
f 2//2 3//3 4//4
f 2//2 4//4 5//5
f 2//2 5//5 7//7
f 6//6 20//20 4//4
f 4//4 20//20 5//5
f 4//4 3//3 6//6
f 6//6 3//3 1//1
f 7//7 5//5 8//8
f 8//8 26//26 7//7
f 7//7 33//33 16//16
f 8//8 28//28 26//26
f 7//7 26//26 33//33
f 3//3 14//14 9//9
f 14//14 10//10 9//9
f 9//9 10//10 12//12
f 13//13 10//10 11//11
f 1//1 12//12 31//31
f 9//9 12//12 1//1
f 10//10 220//220 12//12
f 12//12 220//220 31//31
f 35//35 13//13 11//11
f 48//48 1//1 31//31
f 31//31 220//220 36//36
f 15//15 10//10 14//14
f 7//7 16//16 15//15
f 15//15 11//11 10//10
f 11//11 15//15 16//16
f 11//11 16//16 32//32
f 16//16 33//33 32//32
f 21//21 17//17 23//23
f 43//43 23//23 17//17
f 17//17 6//6 1//1
f 5//5 19//19 8//8
f 5//5 20//20 18//18
f 18//18 19//19 5//5
f 17//17 21//21 20//20
f 21//21 22//22 18//18
f 18//18 20//20 21//21
f 18//18 22//22 19//19
f 19//19 22//22 24//24
f 23//23 22//22 21//21
f 23//23 24//24 22//22
f 23//23 25//25 24//24
f 45//45 25//25 23//23
f 23//23 82//82 45//45
f 28//28 19//19 24//24
f 28//28 24//24 222//222
f 45//45 24//24 25//25
f 47//47 1//1 48//48
f 17//17 1//1 47//47
f 26//26 28//28 29//29
f 27//27 26//26 29//29
f 33//33 26//26 27//27
f 27//27 29//29 56//56
f 29//29 28//28 30//30
f 30//30 56//56 29//29
f 57//57 48//48 31//31
f 36//36 59//59 31//31
f 36//36 60//60 59//59
f 35//35 11//11 32//32
f 33//33 34//34 32//32
f 33//33 27//27 221//221
f 34//34 38//38 32//32
f 221//221 27//27 56//56
f 36//36 13//13 35//35
f 35//35 32//32 37//37
f 36//36 35//35 37//37
f 60//60 36//36 37//37
f 43//43 17//17 40//40
f 40//40 41//41 43//43
f 40//40 44//44 41//41
f 76//76 42//42 40//40
f 42//42 44//44 40//40
f 40//40 17//17 76//76
f 43//43 44//44 23//23
f 44//44 80//80 23//23
f 41//41 44//44 43//43
f 23//23 80//80 82//82
f 79//79 80//80 44//44
f 44//44 77//77 79//79
f 49//49 17//17 47//47
f 46//46 109//109 53//53
f 47//47 48//48 50//50
f 48//48 51//51 50//50
f 55//55 49//49 47//47
f 47//47 50//50 55//55
f 46//46 224//224 58//58
f 81//81 49//49 52//52
f 49//49 55//55 52//52
f 224//224 46//46 54//54
f 226//226 228//228 225//225
f 51//51 55//55 50//50
f 53//53 81//81 52//52
f 229//229 53//53 52//52
f 53//53 227//227 223//223
f 53//53 229//229 227//227
f 30//30 28//28 222//222
f 222//222 84//84 30//30
f 56//56 30//30 84//84
f 87//87 31//31 59//59
f 57//57 58//58 48//48
f 48//48 58//58 51//51
f 86//86 58//58 57//57
f 86//86 230//230 87//87
f 87//87 230//230 31//31
f 59//59 60//60 87//87
f 221//221 56//56 62//62
f 37//37 61//61 60//60
f 61//61 87//87 60//60
f 61//61 37//37 32//32
f 38//38 61//61 32//32
f 38//38 34//34 62//62
f 62//62 39//39 38//38
f 56//56 84//84 62//62
f 62//62 84//84 68//68
f 65//65 62//62 68//68
f 237//237 85//85 232//232
f 69//69 63//63 38//38
f 61//61 38//38 63//63
f 61//61 63//63 95//95
f 39//39 72//72 38//38
f 38//38 72//72 69//69
f 39//39 62//62 64//64
f 62//62 65//65 64//64
f 65//65 66//66 64//64
f 68//68 66//66 65//65
f 64//64 231//231 67//67
f 64//64 67//67 71//71
f 233//233 93//93 231//231
f 93//93 67//67 231//231
f 234//234 67//67 102//102
f 94//94 93//93 233//233
f 67//67 93//93 102//102
f 69//69 72//72 73//73
f 63//63 69//69 70//70
f 69//69 74//74 70//70
f 69//69 73//73 74//74
f 63//63 70//70 95//95
f 70//70 74//74 96//96
f 39//39 71//71 72//72
f 64//64 71//71 39//39
f 72//72 71//71 73//73
f 235//235 234//234 99//99
f 235//235 99//99 106//106
f 234//234 103//103 99//99
f 103//103 234//234 102//102
f 236//236 235//235 106//106
f 17//17 75//75 76//76
f 78//78 76//76 111//111
f 111//111 121//121 78//78
f 111//111 76//76 112//112
f 76//76 79//79 77//77
f 77//77 42//42 76//76
f 44//44 42//42 77//77
f 76//76 78//78 79//79
f 78//78 121//121 79//79
f 121//121 80//80 79//79
f 49//49 75//75 17//17
f 49//49 81//81 75//75
f 75//75 81//81 109//109
f 80//80 83//83 82//82
f 83//83 80//80 205//205
f 237//237 45//45 82//82
f 85//85 237//237 82//82
f 85//85 82//82 83//83
f 109//109 46//46 58//58
f 130//130 109//109 58//58
f 81//81 53//53 109//109
f 83//83 205//205 85//85
f 58//58 86//86 135//135
f 87//87 136//136 86//86
f 87//87 61//61 145//145
f 145//145 61//61 143//143
f 144//144 143//143 61//61
f 85//85 141//141 232//232
f 61//61 98//98 168//168
f 168//168 144//144 61//61
f 61//61 95//95 98//98
f 88//88 100//100 89//89
f 101//101 247//247 238//238
f 100//100 104//104 89//89
f 101//101 238//238 177//177
f 239//239 90//90 177//177
f 89//89 90//90 240//240
f 91//91 90//90 89//89
f 91//91 92//92 90//90
f 92//92 173//173 90//90
f 177//177 90//90 173//173
f 93//93 105//105 102//102
f 104//104 105//105 89//89
f 89//89 105//105 91//91
f 176//176 105//105 242//242
f 241//241 91//91 176//176
f 91//91 105//105 176//176
f 232//232 141//141 243//243
f 242//242 105//105 93//93
f 98//98 95//95 70//70
f 98//98 70//70 96//96
f 246//246 244//244 97//97
f 248//248 247//247 99//99
f 247//247 101//101 99//99
f 101//101 178//178 99//99
f 99//99 178//178 97//97
f 99//99 97//97 106//106
f 101//101 177//177 178//178
f 104//104 247//247 248//248
f 104//104 248//248 102//102
f 102//102 105//105 104//104
f 245//245 236//236 106//106
f 106//106 97//97 245//245
f 76//76 75//75 107//107
f 109//109 107//107 75//75
f 108//108 76//76 107//107
f 108//108 107//107 110//110
f 110//110 107//107 109//109
f 180//180 108//108 110//110
f 108//108 179//179 117//117
f 180//180 179//179 108//108
f 110//110 109//109 125//125
f 125//125 109//109 124//124
f 181//181 180//180 110//110
f 181//181 110//110 125//125
f 112//112 76//76 108//108
f 113//113 111//111 112//112
f 113//113 122//122 111//111
f 108//108 117//117 112//112
f 117//117 115//115 112//112
f 115//115 114//114 113//113
f 115//115 113//113 112//112
f 122//122 113//113 114//114
f 118//118 116//116 114//114
f 114//114 116//116 122//122
f 119//119 114//114 115//115
f 119//119 115//115 117//117
f 116//116 118//118 126//126
f 262//262 119//119 117//117
f 118//118 114//114 119//119
f 126//126 118//118 120//120
f 116//116 123//123 122//122
f 119//119 120//120 118//118
f 116//116 126//126 127//127
f 123//123 116//116 127//127
f 80//80 121//121 184//184
f 122//122 121//121 111//111
f 122//122 184//184 121//121
f 123//123 184//184 122//122
f 124//124 109//109 130//130
f 124//124 130//130 137//137
f 185//185 124//124 198//198
f 125//125 124//124 185//185
f 126//126 128//128 127//127
f 193//193 128//128 126//126
f 192//192 127//127 128//128
f 193//193 129//129 128//128
f 192//192 128//128 133//133
f 128//128 129//129 133//133
f 205//205 80//80 184//184
f 124//124 137//137 198//198
f 198//198 137//137 199//199
f 129//129 134//134 131//131
f 131//131 132//132 133//133
f 134//134 139//139 131//131
f 131//131 133//133 129//129
f 134//134 129//129 200//200
f 196//196 132//132 203//203
f 133//133 132//132 196//196
f 203//203 132//132 167//167
f 141//141 85//85 205//205
f 58//58 135//135 130//130
f 137//137 130//130 135//135
f 136//136 137//137 135//135
f 86//86 136//136 135//135
f 136//136 138//138 137//137
f 138//138 136//136 142//142
f 208//208 199//199 137//137
f 138//138 208//208 137//137
f 138//138 154//154 206//206
f 208//208 138//138 206//206
f 139//139 140//140 131//131
f 131//131 140//140 132//132
f 153//153 139//139 209//209
f 139//139 254//254 140//140
f 254//254 152//152 140//140
f 132//132 140//140 259//259
f 140//140 152//152 259//259
f 142//142 136//136 87//87
f 87//87 148//148 142//142
f 138//138 142//142 151//151
f 151//151 142//142 148//148
f 154//154 138//138 151//151
f 87//87 145//145 148//148
f 251//251 252//252 147//147
f 147//147 252//252 157//157
f 149//149 146//146 161//161
f 251//251 146//146 149//149
f 161//161 146//146 155//155
f 251//251 149//149 145//145
f 251//251 147//147 146//146
f 146//146 253//253 155//155
f 253//253 157//157 155//155
f 145//145 151//151 148//148
f 151//151 145//145 149//149
f 149//149 161//161 150//150
f 166//166 150//150 161//161
f 154//154 151//151 149//149
f 254//254 154//154 149//149
f 152//152 254//254 150//150
f 150//150 254//254 149//149
f 258//258 152//152 150//150
f 153//153 209//209 255//255
f 155//155 156//156 158//158
f 256//256 156//156 159//159
f 155//155 157//157 156//156
f 156//156 157//157 169//169
f 158//158 161//161 155//155
f 160//160 159//159 156//156
f 169//169 160//160 156//156
f 159//159 160//160 162//162
f 170//170 160//160 169//169
f 161//161 158//158 163//163
f 163//163 158//158 164//164
f 256//256 165//165 257//257
f 159//159 165//165 256//256
f 162//162 165//165 159//159
f 162//162 160//160 170//170
f 163//163 166//166 161//161
f 166//166 163//163 164//164
f 165//165 258//258 257//257
f 213//213 258//258 165//165
f 167//167 152//152 258//258
f 170//170 252//252 260//260
f 170//170 260//260 246//246
f 252//252 170//170 157//157
f 157//157 170//170 169//169
f 171//171 170//170 246//246
f 170//170 171//171 162//162
f 162//162 265//265 165//165
f 171//171 246//246 97//97
f 265//265 162//162 171//171
f 265//265 171//171 172//172
f 178//178 175//175 261//261
f 261//261 175//175 250//250
f 176//176 174//174 173//173
f 241//241 176//176 173//173
f 176//176 242//242 175//175
f 175//175 174//174 176//176
f 178//178 174//174 175//175
f 175//175 242//242 250//250
f 171//171 97//97 178//178
f 171//171 178//178 172//172
f 174//174 178//178 177//177
f 174//174 177//177 173//173
f 180//180 182//182 179//179
f 262//262 182//182 183//183
f 262//262 183//183 119//119
f 186//186 182//182 180//180
f 120//120 119//119 183//183
f 181//181 186//186 180//180
f 193//193 120//120 188//188
f 183//183 182//182 190//190
f 182//182 186//186 190//190
f 188//188 183//183 190//190
f 120//120 183//183 188//188
f 120//120 193//193 126//126
f 181//181 125//125 185//185
f 181//181 185//185 187//187
f 187//187 186//186 181//181
f 186//186 187//187 190//190
f 185//185 189//189 187//187
f 198//198 189//189 185//185
f 187//187 189//189 190//190
f 190//190 189//189 191//191
f 200//200 194//194 188//188
f 188//188 190//190 191//191
f 191//191 200//200 188//188
f 195//195 123//123 127//127
f 192//192 263//263 249//249
f 192//192 133//133 196//196
f 193//193 194//194 129//129
f 196//196 263//263 192//192
f 193//193 188//188 194//194
f 194//194 200//200 129//129
f 215//215 205//205 184//184
f 184//184 123//123 197//197
f 195//195 197//197 123//123
f 215//215 184//184 197//197
f 189//189 198//198 199//199
f 199//199 201//201 202//202
f 208//208 201//201 199//199
f 202//202 201//201 207//207
f 202//202 207//207 200//200
f 202//202 191//191 189//189
f 200//200 191//191 202//202
f 199//199 202//202 189//189
f 139//139 134//134 200//200
f 167//167 210//210 203//203
f 204//204 196//196 203//203
f 263//263 196//196 204//204
f 204//204 203//203 210//210
f 141//141 205//205 217//217
f 206//206 255//255 209//209
f 201//201 208//208 207//207
f 200//200 207//207 209//209
f 208//208 206//206 207//207
f 207//207 206//206 209//209
f 200//200 209//209 139//139
f 167//167 216//216 210//210
f 258//258 211//211 167//167
f 167//167 211//211 216//216
f 250//250 270//270 212//212
f 270//270 211//211 212//212
f 216//216 204//204 210//210
f 211//211 258//258 213//213
f 211//211 265//265 212//212
f 261//261 250//250 212//212
f 212//212 265//265 172//172
f 204//204 264//264 263//263
f 267//267 264//264 214//214
f 204//204 214//214 264//264
f 216//216 266//266 204//204
f 218//218 205//205 215//215
f 268//268 266//266 219//219
f 269//269 271//271 218//218
f 205//205 218//218 217//217
f 216//216 211//211 219//219
f 270//270 219//219 211//211
f 216//216 219//219 266//266
f 271//271 217//217 218//218
