# Wavafront OBJ file of BodyParts3D
# BodyParts3D, Copyright(C) 2010-2011 The Database Center for Life Science licensed under CC Attribution-Share Alike 2.1 Japan.
vn -0.958275 0.0351818 -0.283676
v -98.2526 -174.856 3.43015
vn -0.742314 -0.155489 -0.651761
v -96.7239 -172.825 0.4612
vn -0.10797 0.249334 -0.96238
v -95.6748 -170.894 -0.092398
vn -0.601098 0.413731 -0.683745
v -96.6399 -168.467 1.30722
vn -0.819012 0.130572 -0.558722
v -97.2826 -170.837 1.15921
vn -0.940942 0.279929 -0.19044
v -97.3648 -168.39 2.91167
vn 0.542858 0.385047 -0.746354
v -93.4034 -166.828 1.84108
vn -0.731196 0.546753 -0.407938
v -96.0932 -165.865 3.00914
vn -0.819312 0.571765 0.0425752
v -96.4518 -166.13 3.63928
vn -0.394866 0.6469 -0.652381
v -95.2434 -165.379 2.64869
vn -0.473411 0.868166 -0.148898
v -95.435 -165.012 3.31579
vn 0.0740958 0.579076 -0.8119
v -94.417 -165.918 1.96684
vn -0.0667554 0.867715 -0.492559
v -94.6327 -164.935 2.96733
vn 0.342603 0.825559 -0.448413
v -94.0919 -165.069 2.89306
vn 0.0968769 0.992081 -0.0799398
v -94.4635 -164.829 3.46576
vn 0.508787 0.851959 -0.123696
v -94.0095 -164.982 3.34186
vn 0.747874 0.587393 -0.309281
v -93.5178 -165.56 2.87363
vn -0.539033 0.831709 0.133052
v -95.2232 -165.215 5.09523
vn -0.973683 0.0868341 -0.210718
v -93.5145 -122.241 32.1016
vn -0.542976 -0.0710078 -0.836741
v -91.8512 -120.313 29.6312
vn -0.624435 0.0141771 -0.780948
v -91.4158 -121.208 29.5693
vn -0.855495 0.144768 -0.497163
v -93.6955 -120.368 32.6266
vn -0.946097 -0.214254 0.242892
v -93.6073 -120.764 33.1264
vn -0.959477 -0.281379 -0.0151642
v -93.7598 -120.055 33.3745
vn -0.881707 -0.371448 -0.290894
v -93.5978 -120.549 33.9277
vn -0.846518 0.205653 -0.491034
v -91.2699 -117.493 29.29
vn -0.0399099 0.0487905 -0.998011
v -90.735 -118.797 29.2349
vn -0.965231 0.110273 -0.236999
v -93.9241 -118.567 33.9474
vn -0.970573 0.12096 -0.208224
v -94.0543 -118.605 34.6907
vn -0.954077 0.0975159 -0.283244
v -94.2409 -118.618 35.3981
vn -0.950649 0.21045 -0.227986
v -94.3586 -118.616 35.7525
vn -0.81065 0.363689 -0.458887
v -90.8796 -114.73 30.0664
vn -0.608195 0.554817 -0.567695
v -90.5546 -114.445 29.8227
vn 0.0755288 0.141888 -0.986997
v -89.8496 -115.052 29.6658
vn -0.877889 0.428598 -0.213578
v -92.4894 -114.932 33.6239
vn -0.682144 0.664092 -0.306042
v -90.7206 -113.758 30.8819
vn -0.400538 0.855509 -0.328136
v -88.9957 -112.513 30.966
vn 0.103297 0.142774 -0.98435
v -88.2142 -112.708 30.2235
vn -0.72463 -0.334256 -0.602648
v -98.0864 -179.036 5.1658
vn -0.877622 -0.213191 -0.429337
v -99.2844 -178.28 7.23949
vn -0.603245 -0.415402 -0.680835
v -95.3848 -175.965 0.898232
vn -0.973989 0.217876 0.0622588
v -98.7487 -175.422 10.0247
vn 0.174698 -0.173617 -0.969194
v -94.596 -173.172 0.146773
vn -0.934097 -0.148586 -0.324632
v -99.5126 -171.564 11.3439
vn -0.924156 0.126348 0.360517
v -99.4245 -172.403 11.8873
vn -0.987388 -0.11311 -0.110771
v -98.6358 -174.35 10.0964
vn -0.872942 -0.437311 0.216173
v -99.1638 -172.575 12.5918
vn 0.50227 0.17299 -0.847231
v -92.3233 -171.829 0.941936
vn 0.734973 0.482604 -0.476348
v -91.6658 -170.203 2.3877
vn -0.946511 0.313674 -0.0756653
v -97.912 -171.027 8.15643
vn -0.92763 0.222922 0.29968
v -99.0447 -170.713 12.2686
vn -0.836872 0.541285 -0.081584
v -98.5652 -169.841 12.9618
vn 0.782716 0.585656 -0.210626
v -93.2742 -165.969 4.98975
vn -0.49993 0.865472 0.0320619
v -94.9412 -165.162 6.07427
vn -0.123668 0.991392 0.0429943
v -94.5034 -164.991 5.50033
vn 0.763128 0.639065 -0.096082
v -93.8431 -165.108 5.77043
vn -0.0107267 0.988769 -0.149065
v -94.0417 -164.964 6.17998
vn -0.108481 0.951828 -0.286802
v -93.4903 -164.363 8.49035
vn -0.848694 0.511392 -0.134893
v -94.0052 -164.008 9.78354
vn -0.892393 0.110932 -0.437411
v -94.0444 -135.288 30.213
vn -0.538256 0.0617976 -0.840513
v -93.7664 -132.762 30.1292
vn -0.944717 0.00155131 -0.327883
v -94.8217 -130.748 32.1638
vn -0.423319 0.182274 -0.887455
v -93.2757 -128.463 30.2044
vn -0.294904 0.257826 -0.920086
v -92.5456 -128.327 30.0084
vn -0.391429 -0.0435592 -0.919177
v -91.962 -129.616 29.6648
vn -0.849978 0.150216 -0.504947
v -94.5854 -128.112 31.2274
vn -0.135638 -0.0632609 -0.988737
v -91.0915 -125.7 28.6246
vn -0.740649 0.209273 -0.63847
v -94.0293 -126.456 31.3516
vn -0.945433 0.272693 -0.178312
v -94.1037 -125.402 32.1774
vn -0.977207 0.0700753 -0.20039
v -95.1123 -127.172 34.4982
vn -0.932261 -0.306879 -0.191613
v -96.2921 -124.913 38.0685
vn -0.639941 0.0585449 -0.76619
v -92.2298 -124.969 29.0482
vn -0.548853 0.0699088 -0.832991
v -96.0267 -123.469 37.6753
vn -0.504485 -0.385818 -0.772425
v -95.7395 -122.04 37.705
vn -0.359584 -0.215021 -0.908001
v -96.1252 -123.822 37.8074
vn -0.553903 0.40429 -0.727833
v -95.6256 -122.516 37.8993
vn -0.792096 0.37135 -0.48444
v -96.1581 -124.592 38.1164
vn -0.765258 0.288674 -0.575368
v -95.8678 -124.292 37.8507
vn -0.745193 0.381194 -0.547154
v -95.2309 -123.716 37.355
vn -0.225318 -0.253313 -0.940778
v -95.4862 -123.654 37.609
vn -0.504485 -0.385818 -0.772425
v -96.5301 -122.638 38.52
vn -0.788887 0.103546 -0.605752
v -97.1049 -123.934 38.5801
vn -0.711859 -0.692613 0.116374
v -97.7906 -123.407 40.7069
vn -0.782435 0.355252 -0.51146
v -96.7007 -124.5 39.0107
vn -0.651643 -0.74319 0.151757
v -97.2771 -123.923 40.2456
vn -0.552511 -0.736777 0.389732
v -97.5328 -123.583 40.8772
vn -0.784004 -0.584897 0.207926
v -96.9505 -124.202 40.4668
vn -0.542678 -0.739167 0.398914
v -97.1243 -123.864 40.7389
vn -0.9614 0.0110497 -0.274933
v -98.0104 -122.377 40.8835
vn -0.99283 -0.118311 0.0170698
v -98.0362 -122.508 41.698
vn -0.496513 -0.612612 0.614964
v -97.7056 -122.938 41.5823
vn -0.51137 -0.484684 0.709635
v -97.7339 -121.891 42.3304
vn -0.606872 -0.592833 0.529391
v -97.0497 -123.192 41.7668
vn -0.202417 0.0461047 -0.978214
v -90.2622 -120.806 28.9889
vn -0.973106 -0.0272461 0.22874
v -93.4647 -121.615 33.0236
vn -0.957443 -0.0504006 0.284186
v -93.2066 -121.036 33.7005
vn -0.977372 -0.199226 -0.0710821
v -94.0481 -119.787 35.2193
vn -0.981988 -0.0936421 -0.164109
v -93.5068 -121.767 34.5102
vn -0.535824 -0.343093 -0.771479
v -95.6124 -121.333 37.3023
vn 0.240998 0.762049 -0.601
v -95.3077 -120.296 38.1979
vn -0.257444 -0.442693 -0.858921
v -94.3475 -121.827 37.6931
vn 0.123574 0.316349 -0.94056
v -94.5058 -121.431 37.5602
vn -0.0632137 -0.543345 -0.837126
v -94.7469 -121.693 37.7638
vn 0.194824 0.575154 -0.794507
v -94.4308 -121.051 37.6981
vn -0.736243 0.398434 -0.546988
v -93.7621 -122.315 36.8633
vn 0.240269 -0.433748 -0.868409
v -94.6613 -122.127 38.0311
vn -0.157557 -0.37045 -0.915392
v -94.0852 -121.528 37.527
vn -0.998393 0.0296012 0.0483297
v -93.321 -121.37 37.032
vn -0.619007 0.513331 -0.594409
v -93.8518 -120.574 38.2724
vn -0.936087 -0.213807 0.279336
v -93.4102 -119.914 37.6526
vn -0.188775 0.0718318 -0.97939
v -93.9745 -119.859 38.946
vn -0.890888 0.302689 -0.338672
v -95.9991 -120.976 38.6715
vn -0.782499 0.424478 -0.455536
v -95.8006 -120.305 38.7232
vn -0.777952 0.285172 -0.559882
v -95.7149 -119.633 39.1163
vn 0.156631 0.775941 -0.61105
v -95.1987 -119.809 39.0475
vn -0.846427 0.217689 -0.485976
v -98.1473 -120.947 41.8868
vn -0.794418 -0.242869 0.556699
v -98.0177 -121.077 42.6306
vn -0.768689 -0.0933015 0.632782
v -97.4405 -119.162 43.7035
vn -0.676106 -0.335159 0.656162
v -97.4009 -120.977 43.1145
vn -0.699598 -0.434045 0.567599
v -97.1644 -121.784 42.8939
vn 0.396803 -0.122695 -0.909666
v -86.7412 -119.072 29.009
vn -0.786472 0.224467 -0.575392
v -96.5713 -118.697 40.1497
vn -0.44361 0.223011 -0.86803
v -95.8245 -118.121 39.3108
vn -0.727788 0.391526 -0.563056
v -96.1346 -117.704 39.9026
vn -0.884112 -0.021243 0.466792
v -98.0856 -118.091 42.8674
vn -0.760595 0.48819 -0.427979
v -97.0815 -117.201 41.7418
vn -0.708394 0.691505 -0.141417
v -97.2634 -116.89 42.8711
vn -0.81955 0.418412 0.391495
v -97.0494 -116.723 44.0337
vn -0.191211 0.265589 -0.944934
v -87.0825 -115.179 28.6941
vn 0.175346 0.0432304 -0.983557
v -86.6753 -115.319 28.653
vn 0.648057 0.0716203 -0.758217
v -85.8134 -115.674 29.0813
vn -0.371356 0.304481 -0.877146
v -93.8193 -116.565 39.0575
vn -0.919422 0.388841 -0.0588654
v -93.4161 -116.32 38.9289
vn -0.852305 0.50927 -0.119249
v -93.0739 -115.285 39.4384
vn -0.579053 0.666598 -0.469409
v -93.986 -115.461 39.7314
vn -0.6831 0.680217 -0.265856
v -93.3501 -114.314 40.8127
vn -0.71869 0.673951 -0.171098
v -93.5435 -114.418 42.3419
vn 0.534408 0.760076 0.36972
v -92.7083 -114.307 41.6013
vn -0.704127 0.701465 0.110235
v -95.4202 -115.203 44.5731
vn -0.618093 0.742309 -0.258723
v -94.7162 -114.905 43.7362
vn -0.793967 0.339167 -0.504561
v -94.8914 -114.174 44.4328
vn 0.411736 0.908148 0.075759
v -93.9728 -114.153 43.6948
vn 0.256709 0.389649 -0.884463
v -86.5921 -114.986 28.7461
vn 0.500968 0.571511 -0.649928
v -85.6089 -113.978 29.9578
vn -0.228409 0.905617 -0.357334
v -87.6586 -112.198 30.9115
vn -0.311824 0.943673 -0.110668
v -88.0091 -112.123 31.513
vn 0.500568 0.811038 0.302735
v -87.0939 -112.477 31.2742
vn -0.653549 0.752353 -0.0826977
v -91.5282 -113.779 36.9398
vn 0.393691 0.839194 0.375181
v -89.4707 -113.473 35.68
vn -0.851025 0.463253 -0.247292
v -92.7063 -114.119 40.3586
vn -0.652453 0.710669 -0.263164
v -93.0424 -113.976 40.9621
vn -0.144415 0.987357 -0.065345
v -92.5555 -114.038 40.8485
vn -0.789211 0.329798 -0.518053
v -94.4906 -113.893 43.9909
vn -0.793968 0.339168 -0.504559
v -94.7113 -113.74 44.4412
vn 0.741623 0.575461 -0.344731
v -94.0538 -113.851 44.0255
vn -0.56102 -0.461459 -0.68725
v -95.2819 -179.521 3.20176
vn -0.127395 -0.991668 -0.0191182
v -96.2305 -180.329 7.61974
vn -0.481119 -0.876639 -0.00535409
v -98.6437 -179.274 9.35135
vn 0.323184 -0.440695 -0.837461
v -91.783 -177.781 2.33378
vn -0.929838 0.358689 0.0821209
v -99.1427 -176.471 10.6332
vn -0.906121 0.327075 0.268267
v -98.6621 -175.929 10.9351
vn -0.977534 0.112956 0.177956
v -98.3037 -174.608 11.9527
vn 0.588368 0.396309 -0.704813
v -89.8169 -170.934 3.14851
vn 0.527003 0.743522 -0.411635
v -90.5814 -167.624 7.27018
vn -0.946683 0.170292 0.273481
v -96.4799 -165.888 17.7189
vn -0.118335 0.85651 -0.502382
v -92.8671 -163.031 11.1796
vn -0.860569 0.387544 -0.330501
v -93.7396 -161.775 13.3972
vn 0.136281 0.711949 -0.688881
v -92.7248 -161.157 13.6029
vn -0.882967 0.410878 -0.227042
v -94.8679 -159.513 19.04
vn -0.829662 0.392017 -0.397473
v -95.5581 -159.45 20.6665
vn -0.403266 0.573017 -0.713462
v -93.1015 -156.966 17.3867
vn 0.17962 0.591692 -0.785899
v -92.3532 -157.767 16.6843
vn -0.924876 0.240278 -0.294738
v -94.1862 -157.113 18.7998
vn -0.974595 0.218186 0.0505831
v -94.5832 -158.563 19.6585
vn -0.964436 0.247856 0.0918177
v -94.5657 -158.602 19.9465
vn -0.992002 -0.0232399 -0.124061
v -94.4669 -157.881 19.9341
vn -0.947424 -0.052929 -0.315574
v -94.6283 -157.488 20.2081
vn -0.485235 0.153775 -0.860756
v -94.9061 -157.463 20.8576
vn -0.643238 0.59448 -0.482534
v -94.9559 -158.859 20.1488
vn -0.449162 0.633536 -0.629989
v -94.9738 -158.52 20.5132
vn -0.72646 0.459312 -0.511164
v -95.2082 -158.467 20.7772
vn -0.439427 0.627577 -0.64269
v -94.7399 -158.242 20.6246
vn -0.879973 0.293328 -0.37364
v -95.109 -158.131 20.8031
vn -0.47547 0.68176 -0.555996
v -94.4447 -158.322 20.3992
vn -0.885942 0.273415 -0.374635
v -95.5922 -154.659 24.6672
vn -0.1613 0.523641 -0.83653
v -92.3907 -151.513 20.9475
vn -0.835474 0.288799 -0.467523
v -93.8522 -149.172 23.5256
vn -0.685777 0.320646 -0.653373
v -93.6628 -145.662 24.9261
vn -0.273361 0.443165 -0.853744
v -92.1158 -145.776 24.3715
vn -0.688275 0.225068 -0.689653
v -93.0696 -136.936 28.5032
vn -0.998323 -0.00313632 -0.057803
v -94.7561 -135.402 33.4779
vn 0.273178 0.116117 -0.95493
v -90.7483 -131.894 29.4702
vn -0.248571 -0.0762152 -0.96561
v -90.8296 -129.231 29.3066
vn -0.907071 -0.363797 0.211834
v -95.0238 -129.173 38.7206
vn -0.655127 -0.400562 0.640592
v -95.9144 -121.993 44.9486
vn 0.708686 -0.279603 -0.647755
v -85.6406 -120.732 30.3233
vn 0.843709 0.000248741 -0.536801
v -84.1468 -116.885 31.2522
vn 0.980517 0.193257 0.0351951
v -91.4364 -117.206 43.867
vn 0.619811 0.67291 0.403766
v -91.1051 -116.877 43.2142
vn 0.961821 0.00268916 0.273667
v -91.4283 -116.832 43.8349
vn 0.632574 0.752569 0.183004
v -93.1915 -114.446 42.962
vn 0.593693 0.750737 0.289694
v -93.7291 -114.368 43.8606
vn -0.796029 0.236558 0.557116
v -95.2576 -116.907 46.6403
vn 0.757857 0.289377 -0.584733
v -84.5502 -114.444 30.7532
vn 0.640911 0.706228 -0.30079
v -84.3756 -114.087 31.412
vn 0.863337 -0.0341746 -0.50347
v -83.7331 -115.984 31.9003
vn 0.384497 0.811841 0.439404
v -87.5285 -115.162 34.9567
vn -0.114357 -0.871917 0.476113
v -95.7297 -179.711 10.7152
vn 0.293425 -0.753297 -0.588596
v -91.708 -178.633 3.03022
vn -0.436015 -0.386655 0.812643
v -95.486 -177.327 13.3214
vn 0.557626 -0.0808407 -0.826147
v -88.5519 -174.933 3.32608
vn -0.440395 -0.311085 0.842187
v -95.4233 -175.51 13.7508
vn -0.238314 -0.415103 0.878007
v -94.391 -175.925 13.9958
vn -0.419419 -0.412574 0.808623
v -95.3403 -173.459 14.9989
vn 0.673406 0.18122 -0.716717
v -87.9065 -169.411 5.32871
vn 0.124665 0.721509 -0.68109
v -88.346 -168.649 5.8385
vn 0.998941 -0.0387451 0.0248008
v -87.5853 -169.21 6.34521
vn 0.65521 0.737023 -0.165822
v -89.0328 -167.835 8.16051
vn 0.908554 0.416897 -0.0269555
v -88.5037 -168.961 9.8601
vn -0.445879 -0.456684 0.769826
v -94.9843 -165.426 19.1448
vn 0.7263 0.529745 -0.438016
v -89.6005 -164.138 13.6196
vn -0.85367 -0.249862 0.456965
v -95.2121 -161.875 21.1967
vn 0.568435 0.482905 -0.666096
v -90.3597 -157.269 18.0448
vn -0.864327 -0.253489 0.434375
v -95.4467 -154.856 25.5899
vn 0.467236 0.486874 -0.738
v -90.9688 -150.424 22.2169
vn -0.946672 -0.158634 0.280441
v -93.3382 -140.597 35.3256
vn 0.466255 0.260541 -0.845414
v -90.2434 -137.97 28.7536
vn 0.799587 -0.0435878 -0.598967
v -88.0842 -130.486 31.774
vn 0.798011 -0.282638 -0.532255
v -87.3624 -128.174 32.1917
vn -0.341541 -0.51943 0.783289
v -92.1719 -127.89 42.032
vn 0.959996 0.0299753 0.278404
v -84.02 -119.834 33.8228
vn 0.934214 -0.123116 0.334794
v -84.3673 -119.779 34.4282
vn 0.846008 -0.303809 -0.438143
v -83.7961 -121.344 33.2524
vn 0.947135 0.264744 0.181236
v -83.9213 -120.59 33.9559
vn 0.88236 0.466788 0.0595897
v -84.0722 -120.66 34.6901
vn 0.951692 0.306884 -0.0102288
v -84.3585 -120.209 34.9004
vn 0.883353 -0.352129 -0.309343
v -84.0266 -122.42 33.5854
vn 0.994199 0.102831 -0.0315409
v -83.6528 -121.502 34.205
vn 0.934131 -0.100191 -0.34258
v -84.0102 -118.442 31.378
vn 0.95189 -0.273826 0.137569
v -84.0255 -119.123 34.1579
vn 0.778516 -0.600608 0.182162
v -83.9323 -117.791 35.3074
vn 0.851647 -0.523006 -0.0340859
v -83.3037 -117.533 34.3456
vn 0.912298 -0.409007 -0.0206382
v -84.4297 -118.758 35.5159
vn 0.716557 -0.686784 -0.121961
v -83.9452 -117.879 36.1253
vn 0.333957 0.85785 0.390597
v -87.3995 -117.811 40.6038
vn 0.936483 0.350706 -0.0022534
v -91.4528 -116.859 44.1534
vn 0.741691 0.575459 -0.34459
v -91.3629 -116.947 44.6468
vn 0.547282 0.774877 0.316303
v -91.8748 -117.305 47.2925
vn 0.596836 -0.498452 -0.628754
v -82.8968 -115.574 32.2477
vn 0.826084 -0.356164 -0.436729
v -83.3081 -116.62 32.8853
vn 0.94174 -0.257488 -0.216393
v -82.6194 -116.189 33.4781
vn 0.707532 0.706662 0.00522653
v -82.6727 -115.81 33.8175
vn 0.336491 0.842886 0.419901
v -82.831 -116.095 34.5686
vn 0.672926 -0.739692 0.00513654
v -82.8139 -117.043 35.0805
vn 0.491977 0.75143 0.439671
v -82.5677 -116.346 34.7495
vn 0.757355 -0.649201 0.0703586
v -82.9137 -117.093 35.8431
vn 0.941535 -0.332994 0.0512468
v -82.5921 -116.754 35.1366
vn 0.948541 0.00243579 0.316645
v -82.719 -116.752 35.5166
vn 0.368672 0.824414 0.429445
v -83.1785 -116.752 36.0609
vn 0.473632 -0.608716 -0.636504
v -89.246 -178.581 4.74071
vn 0.337692 -0.923119 -0.18389
v -89.9434 -179.441 5.95347
vn 0.797093 -0.598968 0.0766836
v -89.2163 -179.048 8.79683
vn 0.370655 -0.900415 0.227744
v -90.0628 -179.507 9.56513
vn -0.0499746 -0.636752 0.769448
v -94.3381 -177.736 13.3217
vn -0.0620364 -0.378132 0.923671
v -94.2856 -177.05 13.7001
vn 0.97813 -0.199729 -0.0580571
v -87.9183 -175.401 5.48266
vn -0.00146371 -0.523784 0.85185
v -93.2713 -176.669 13.7475
vn -0.116491 -0.553541 0.824635
v -92.211 -175.108 15.209
vn -0.102108 -0.375009 0.921381
v -92.0916 -173.957 15.7951
vn 0.924686 -0.079838 0.372266
v -89.9218 -172.406 15.0761
vn 0.803123 -0.268483 0.531894
v -90.4072 -170.118 16.1964
vn 0.0848751 -0.40223 0.911596
v -91.8492 -169.357 17.308
vn 0.999546 0.0255705 -0.015918
v -89.1394 -165.139 14.4162
vn 0.989651 -0.123772 0.0726001
v -89.0868 -162.982 18.3194
vn 0.932612 0.187843 -0.30814
v -88.9221 -156.91 20.2697
vn 0.78748 0.279873 -0.549133
v -88.5433 -147.663 26.5274
vn 0.995715 -0.0901802 0.0204955
v -88.0659 -148.006 28.0698
vn -0.11823 -0.507087 0.853747
v -92.5778 -144.451 33.6195
vn 0.76899 0.155519 -0.620054
v -88.3977 -140.647 29.5988
vn 0.946449 0.0651822 -0.316204
v -87.6124 -141.017 30.9181
vn 0.990651 -0.0465728 -0.128226
v -86.6675 -133.005 36.408
vn 0.957416 -0.0644362 -0.281431
v -86.8657 -130.09 34.3695
vn 0.915 -0.34677 -0.206219
v -85.9105 -127.187 35.4265
vn 0.954196 -0.297243 -0.0339952
v -85.9664 -127.552 38.7376
vn 0.961924 -0.264257 0.0697841
v -83.957 -124.103 38.3651
vn 0.954935 0.289481 -0.0655649
v -83.922 -120.643 36.0028
vn -0.141777 -0.132329 0.981014
v -89.8407 -119.314 47.5966
vn 0.993991 -0.100118 -0.044259
v -84.0264 -118.739 37.3872
vn 0.864032 -0.492006 -0.106674
v -83.7584 -118.051 37.07
vn 0.708265 -0.704068 -0.0514619
v -83.2997 -117.463 36.4674
vn 0.383119 0.840509 0.383099
v -83.7364 -117.101 37.3979
vn 0.952239 -0.237869 0.191466
v -83.7068 -117.789 37.8916
vn 0.989861 -0.122322 0.0722043
v -84.0057 -118.178 38.978
vn 0.385794 0.827768 0.407385
v -84.3334 -117.725 39.3052
vn 0.909001 0.318566 0.268761
v -84.0509 -118.035 39.3456
vn -0.102552 -0.120158 0.987444
v -90.5357 -118.707 47.7114
vn -0.0802259 0.00592702 0.996759
v -89.7074 -118.989 47.6054
vn 0.456411 0.865728 0.205438
v -89.3525 -118.633 47.2863
vn 0.876645 -0.345422 0.334929
v -89.4046 -178.113 11.0437
vn 0.0981622 -0.693444 0.713792
v -90.2722 -178.306 12.1816
vn 0.499625 -0.372129 0.782237
v -90.5992 -174.807 15.319
vn -0.0221378 -0.586693 0.809507
v -87.6774 -131.243 40.5365
vn 0.98299 -0.137838 -0.121376
v -86.2645 -130.103 39.2204
vn 0.930427 -0.361328 -0.0612236
v -85.0963 -125.36 39.855
vn 0.853002 -0.449258 0.265622
v -84.6113 -124.719 39.2628
vn 0.829871 -0.500381 -0.246847
v -84.8877 -125.635 41.6397
vn 0.851766 -0.424825 -0.306623
v -84.7329 -125.277 41.2878
vn 0.861352 -0.200469 -0.466781
v -84.6539 -124.923 41.2137
vn 0.765775 -0.450912 -0.458549
v -84.465 -125.027 41.5403
vn 0.803993 -0.0817731 -0.588989
v -84.2707 -124.365 41.6797
vn 0.895794 -0.301862 -0.326241
v -83.9443 -124.912 42.1861
vn 0.957296 -0.205004 -0.203858
v -84.614 -125.938 43.4657
vn -0.112637 -0.422281 0.89944
v -87.4767 -124.527 46.6155
vn 0.339913 -0.604681 0.720291
v -85.7122 -125.794 45.659
vn 0.999474 -0.00971808 -0.0309565
v -84.3093 -122.824 41.3889
vn 0.432813 -0.0590742 0.899546
v -84.9514 -121.395 47.3109
vn -0.171655 -0.156154 0.972703
v -87.8953 -120.073 48.1875
vn 0.122772 -0.208345 0.970319
v -87.1031 -120.35 48.1424
vn 0.377895 0.86295 0.335428
v -84.4029 -119.286 42.5274
vn 0.98529 0.1603 0.0592155
v -84.037 -120.472 42.8613
vn 0.405885 0.873269 0.269552
v -85.5713 -120.182 47.232
vn 0.017872 0.543424 0.839268
v -86.9615 -120.026 48.1371
vn 0.816872 -0.436273 0.37734
v -84.0654 -124.47 45.2804
vn 0.405187 -0.403513 0.820366
v -84.8387 -123.948 46.4039
vn 0.990194 0.00841925 0.139445
v -83.8221 -122.022 46.0007
vn 0.864545 0.212025 0.455639
v -84.1272 -121.23 46.5584
vn 0.735184 -0.177713 0.654158
v -84.1775 -122.341 46.6381
vn -0.174657 -0.19628 -0.964867
v -96.7239 -172.825 0.4612
vn -0.172981 -0.183487 -0.967683
v -95.6748 -170.894 -0.092398
vn -0.811161 -0.0314302 -0.583978
v -93.5145 -122.241 32.1016
vn -0.989933 -0.140972 0.0126473
v -93.6955 -120.368 32.6266
vn -0.0687535 0.0707648 -0.995121
v -91.2699 -117.493 29.29
vn -0.92415 -0.239633 0.297527
v -94.3586 -118.616 35.7525
vn -0.0348607 0.212079 -0.976631
v -90.5546 -114.445 29.8227
vn -0.316821 0.781198 -0.537917
v -88.2142 -112.708 30.2235
vn -0.0371572 0.552149 -0.832917
v -88.2142 -112.708 30.2235
vn -0.498104 -0.851699 -0.162792
v -98.0864 -179.036 5.1658
vn -0.68191 -0.719482 -0.131701
v -99.2844 -178.28 7.23949
vn -0.974396 0.212756 -0.0727076
v -99.2844 -178.28 7.23949
vn -0.9532 -0.248471 0.172256
v -99.2844 -178.28 7.23949
vn 0.0335168 -0.362108 -0.931533
v -95.3848 -175.965 0.898232
vn -0.895622 0.444205 -0.0233033
v -99.5126 -171.564 11.3439
vn -0.925506 -0.376174 0.0439479
v -99.4245 -172.403 11.8873
vn -0.920411 0.142885 0.363905
v -99.1638 -172.575 12.5918
vn -0.552387 -0.404044 0.729121
v -99.1638 -172.575 12.5918
vn -0.920186 0.152717 0.360465
v -98.5652 -169.841 12.9618
vn 0.213506 0.972193 -0.0962083
v -93.8431 -165.108 5.77043
vn 0.622387 0.688426 -0.37243
v -93.4903 -164.363 8.49035
vn -0.173384 0.87932 -0.443548
v -94.0052 -164.008 9.78354
vn -0.724627 -0.125626 -0.677594
v -92.5456 -128.327 30.0084
vn -0.774244 0.370142 -0.513363
v -96.2921 -124.913 38.0685
vn 0.0131475 0.243675 -0.969768
v -96.0267 -123.469 37.6753
vn 0.232526 -0.415242 -0.879492
v -95.7395 -122.04 37.705
vn -0.549081 -0.58803 -0.593911
v -96.1252 -123.822 37.8074
vn -0.471728 -0.42746 -0.771201
v -95.6256 -122.516 37.8993
vn 0.25168 -0.313351 -0.915679
v -95.6256 -122.516 37.8993
vn 0.0491288 0.20891 -0.9767
v -95.6256 -122.516 37.8993
vn -0.693712 -0.432858 -0.575671
v -95.8678 -124.292 37.8507
vn -0.23688 -0.216861 -0.947027
v -95.8678 -124.292 37.8507
vn -0.629085 0.316392 -0.710034
v -95.4862 -123.654 37.609
vn -0.0228673 0.277819 -0.960361
v -95.4862 -123.654 37.609
vn -0.726527 0.321302 -0.607391
v -96.5301 -122.638 38.52
vn -0.37956 -0.716547 -0.58523
v -97.1049 -123.934 38.5801
vn -0.774498 -0.625438 -0.0947663
v -97.1049 -123.934 38.5801
vn -0.969826 -0.178413 -0.166149
v -97.7906 -123.407 40.7069
vn -0.823978 -0.560276 -0.0845648
v -96.7007 -124.5 39.0107
vn -0.549081 -0.58803 -0.593911
v -96.7007 -124.5 39.0107
vn -0.595636 -0.567453 0.56852
v -98.0362 -122.508 41.698
vn -0.53008 0.257239 -0.807987
v -90.2622 -120.806 28.9889
vn -0.793635 -0.442703 -0.417322
v -93.2066 -121.036 33.7005
vn -0.809605 0.421838 -0.408158
v -95.6124 -121.333 37.3023
vn 0.177472 0.469557 -0.864881
v -95.6124 -121.333 37.3023
vn 0.19362 -0.555208 -0.80886
v -95.6124 -121.333 37.3023
vn -0.620461 0.535962 -0.572515
v -95.3077 -120.296 38.1979
vn -0.746383 0.189322 -0.638021
v -94.3475 -121.827 37.6931
vn -0.115213 -0.496206 -0.860526
v -94.5058 -121.431 37.5602
vn 0.0131475 0.243675 -0.969768
v -94.6613 -122.127 38.0311
vn -0.675627 0.369347 -0.638053
v -94.6613 -122.127 38.0311
vn -0.319508 -0.541639 -0.777522
v -94.6613 -122.127 38.0311
vn 0.175887 0.442642 -0.879279
v -94.0852 -121.528 37.527
vn -0.603649 0.423711 -0.675335
v -94.0852 -121.528 37.527
vn -0.696889 0.394422 -0.59898
v -93.321 -121.37 37.032
vn 0.119138 0.664194 -0.738005
v -93.8518 -120.574 38.2724
vn -0.90701 0.128139 -0.40114
v -93.4102 -119.914 37.6526
vn -0.855362 0.227756 -0.465277
v -93.9745 -119.859 38.946
vn -0.0323904 0.682479 -0.730187
v -93.9745 -119.859 38.946
vn 0.216757 0.834586 -0.506441
v -95.7149 -119.633 39.1163
vn -0.0907162 0.120664 -0.98854
v -95.7149 -119.633 39.1163
vn -0.0837375 0.123298 -0.98883
v -95.1987 -119.809 39.0475
vn -0.993575 -0.0637219 0.09353
v -98.1473 -120.947 41.8868
vn -0.853717 0.409734 -0.321381
v -98.0856 -118.091 42.8674
vn -0.920056 -0.132449 0.368721
v -93.4161 -116.32 38.9289
vn -0.329526 0.0474149 -0.942955
v -93.4161 -116.32 38.9289
vn -0.905223 0.140883 -0.400904
v -93.4161 -116.32 38.9289
vn -0.526192 0.509241 -0.681025
v -93.4161 -116.32 38.9289
vn -0.410427 0.539663 -0.73506
v -93.0739 -115.285 39.4384
vn -0.276187 0.940024 0.200191
v -93.5435 -114.418 42.3419
vn 0.261996 0.959406 -0.104392
v -93.5435 -114.418 42.3419
vn -0.789213 0.329799 -0.518049
v -95.4202 -115.203 44.5731
vn -0.779011 0.310775 -0.544574
v -94.7162 -114.905 43.7362
vn -0.35436 0.30184 -0.885054
v -94.7162 -114.905 43.7362
vn -0.67736 0.651211 -0.34221
v -93.9728 -114.153 43.6948
vn -0.35436 0.30184 -0.885054
v -93.9728 -114.153 43.6948
vn 0.741556 0.575464 -0.344872
v -93.9728 -114.153 43.6948
vn -0.0173766 0.735646 -0.677143
v -93.9728 -114.153 43.6948
vn 0.437522 0.850791 -0.291084
v -87.6586 -112.198 30.9115
vn 0.294534 0.910987 0.288709
v -88.0091 -112.123 31.513
vn -0.1523 0.982168 0.11023
v -91.5282 -113.779 36.9398
vn -0.477831 0.694977 -0.537294
v -92.7063 -114.119 40.3586
vn -0.152383 0.981583 -0.11521
v -92.7063 -114.119 40.3586
vn 0.310077 0.90075 0.30414
v -93.0424 -113.976 40.9621
vn -0.276187 0.940024 0.200191
v -93.0424 -113.976 40.9621
vn 0.0795667 0.979281 -0.186218
v -93.0424 -113.976 40.9621
vn 0.351454 0.856429 0.378166
v -92.5555 -114.038 40.8485
vn -0.35436 0.30184 -0.885054
v -94.4906 -113.893 43.9909
vn -0.04073 0.851407 -0.522921
v -94.4906 -113.893 43.9909
vn -0.80361 0.426696 0.414899
v -94.7113 -113.74 44.4412
vn -0.0625467 0.935044 -0.34897
v -94.7113 -113.74 44.4412
vn 0.440523 0.747769 0.496771
v -94.7113 -113.74 44.4412
vn -0.0883066 0.578336 0.811005
v -94.7113 -113.74 44.4412
vn -0.04073 0.851407 -0.522921
v -94.0538 -113.851 44.0255
vn 0.587556 0.719983 0.369327
v -94.0538 -113.851 44.0255
vn 0.0339998 -0.856674 -0.514736
v -95.2819 -179.521 3.20176
vn -0.9532 -0.248471 0.172256
v -98.6437 -179.274 9.35135
vn -0.505005 -0.545277 0.669061
v -98.6437 -179.274 9.35135
vn -0.9532 -0.248471 0.172256
v -99.1427 -176.471 10.6332
vn -0.609778 -0.183373 0.771067
v -99.1427 -176.471 10.6332
vn -0.60372 -0.228581 0.763723
v -98.6621 -175.929 10.9351
vn -0.882311 -0.443838 0.156636
v -98.3037 -174.608 11.9527
vn -0.564784 -0.422543 0.708856
v -98.3037 -174.608 11.9527
vn 0.124665 0.721509 -0.68109
v -89.8169 -170.934 3.14851
vn -0.0490836 0.774289 -0.630925
v -90.5814 -167.624 7.27018
vn -0.562037 -0.38415 0.732491
v -96.4799 -165.888 17.7189
vn -0.882742 0.421287 -0.208047
v -96.4799 -165.888 17.7189
vn -0.920134 -0.0462878 0.388858
v -96.4799 -165.888 17.7189
vn 0.585069 0.645985 -0.490304
v -92.8671 -163.031 11.1796
vn -0.320335 0.728032 -0.606098
v -93.7396 -161.775 13.3972
vn -0.971686 -0.092434 0.217446
v -95.5581 -159.45 20.6665
vn -0.636338 0.684677 -0.355375
v -94.5657 -158.602 19.9465
vn -0.886717 -0.279565 -0.368206
v -94.9061 -157.463 20.8576
vn -0.895796 0.252896 -0.365503
v -94.9061 -157.463 20.8576
vn -0.38283 0.18319 -0.905474
v -95.2082 -158.467 20.7772
vn -0.451611 0.16387 -0.877037
v -94.7399 -158.242 20.6246
vn -0.381822 0.186227 -0.90528
v -95.109 -158.131 20.8031
vn -0.995511 -0.0425785 -0.0845289
v -94.4447 -158.322 20.3992
vn -0.582806 0.116114 -0.804273
v -94.4447 -158.322 20.3992
vn -0.987539 -0.0709355 0.14048
v -95.5922 -154.659 24.6672
vn 0.465034 0.414264 -0.782386
v -92.1158 -145.776 24.3715
vn 0.02846 0.298875 -0.953868
v -93.0696 -136.936 28.5032
vn 0.582313 -0.167365 -0.795551
v -90.8296 -129.231 29.3066
vn 0.558712 0.591156 0.581701
v -91.4364 -117.206 43.867
vn 0.352766 0.915283 0.194455
v -91.4364 -117.206 43.867
vn 0.887382 0.0203138 0.460587
v -91.1051 -116.877 43.2142
vn 0.745281 0.63031 0.217406
v -91.4283 -116.832 43.8349
vn -0.276187 0.940024 0.200191
v -93.1915 -114.446 42.962
vn 0.741623 0.575461 -0.344731
v -93.7291 -114.368 43.8606
vn -0.231558 0.0249584 0.972501
v -95.2576 -116.907 46.6403
vn 0.496554 -0.333424 -0.801413
v -84.5502 -114.444 30.7532
vn 0.311976 0.795844 0.518944
v -84.3756 -114.087 31.412
vn 0.524334 -0.463929 -0.714034
v -83.7331 -115.984 31.9003
vn 0.945733 -0.105072 -0.307489
v -88.5519 -174.933 3.32608
vn 0.293989 0.643121 -0.707083
v -87.9065 -169.411 5.32871
vn 0.953647 -0.00232979 -0.300918
v -87.9065 -169.411 5.32871
vn 0.694883 0.631478 -0.344052
v -87.9065 -169.411 5.32871
vn 0.547444 0.80377 -0.232933
v -88.346 -168.649 5.8385
vn 0.719044 0.688814 -0.0922533
v -87.5853 -169.21 6.34521
vn 0.961924 -0.03591 0.270946
v -88.5037 -168.961 9.8601
vn -0.486386 -0.395706 0.779003
v -93.3382 -140.597 35.3256
vn 0.982673 0.184007 -0.0222571
v -83.7961 -121.344 33.2524
vn 0.991299 0.0896264 -0.0963991
v -84.4297 -118.758 35.5159
vn 0.853321 0.520288 -0.0338072
v -91.3629 -116.947 44.6468
vn 0.592071 0.775428 0.219463
v -91.3629 -116.947 44.6468
vn -0.134982 0.363296 0.921844
v -91.8748 -117.305 47.2925
vn 0.265191 0.49974 0.824581
v -91.8748 -117.305 47.2925
vn 0.751999 0.615832 -0.235051
v -82.8968 -115.574 32.2477
vn 0.967933 0.228773 -0.103776
v -82.8968 -115.574 32.2477
vn 0.305323 0.85568 0.417839
v -82.6727 -115.81 33.8175
vn 0.979147 0.193347 -0.0623589
v -82.6727 -115.81 33.8175
vn 0.992172 0.0965094 0.0792559
v -82.5677 -116.346 34.7495
vn 0.80766 0.298975 0.508231
v -82.9137 -117.093 35.8431
vn 0.558418 0.682562 0.471463
v -82.719 -116.752 35.5166
vn 0.751828 0.17836 0.634777
v -82.719 -116.752 35.5166
vn 0.795536 0.271835 0.541506
v -83.1785 -116.752 36.0609
vn 0.868481 -0.469578 -0.158861
v -89.246 -178.581 4.74071
vn 0.844297 -0.386289 0.371407
v -86.6675 -133.005 36.408
vn 0.868911 0.314962 0.381828
v -83.7364 -117.101 37.3979
vn 0.267781 0.489308 0.829983
v -90.5357 -118.707 47.7114
vn 0.189333 0.543718 0.817633
v -89.7074 -118.989 47.6054
vn 0.796568 0.54711 -0.257195
v -89.3525 -118.633 47.2863
vn 0.367703 0.888022 0.276065
v -89.3525 -118.633 47.2863
vn 0.166088 0.534945 0.828401
v -89.3525 -118.633 47.2863
vn 0.708116 -0.546442 0.447183
v -90.2722 -178.306 12.1816
vn 0.800261 -0.486833 0.350109
v -87.6774 -131.243 40.5365
vn 0.762991 -0.545769 0.346383
v -86.2645 -130.103 39.2204
vn 0.793043 -0.600206 0.104091
v -84.614 -125.938 43.4657
vn 0.853739 -0.443056 0.273553
v -84.3093 -122.824 41.3889
vn 0.865579 -0.107077 -0.48919
v -84.3093 -122.824 41.3889
vn 0.0621599 0.573994 0.816497
v -87.8953 -120.073 48.1875
vn 0.863665 0.451205 0.224712
v -84.4029 -119.286 42.5274
vn 0.567164 0.338713 0.750732
v -85.5713 -120.182 47.232
vn 0.182492 -0.0638911 0.981129
v -86.9615 -120.026 48.1371
vn 0.352944 0.847789 0.395834
v -86.9615 -120.026 48.1371
vn 0.541161 0.326984 0.774743
v -86.9615 -120.026 48.1371
vn 0.647393 0.702886 0.294675
v -84.1272 -121.23 46.5584
f 5//5 3//3 2//2
f 2//2 41//41 39//39
f 329//329 43//43 328//328
f 1//1 6//6 5//5
f 1//1 5//5 2//2
f 2//2 39//39 1//1
f 5//5 4//4 3//3
f 48//48 43//43 3//3
f 5//5 6//6 4//4
f 4//4 12//12 3//3
f 7//7 3//3 12//12
f 12//12 17//17 7//7
f 6//6 8//8 4//4
f 8//8 10//10 4//4
f 50//50 9//9 6//6
f 6//6 9//9 8//8
f 4//4 10//10 12//12
f 50//50 54//54 9//9
f 11//11 10//10 8//8
f 9//9 11//11 8//8
f 10//10 11//11 13//13
f 12//12 10//10 13//13
f 15//15 14//14 13//13
f 14//14 12//12 13//13
f 11//11 15//15 13//13
f 11//11 18//18 55//55
f 11//11 55//55 15//15
f 17//17 12//12 14//14
f 14//14 15//15 16//16
f 17//17 14//14 16//16
f 17//17 16//16 56//56
f 347//347 16//16 15//15
f 56//56 53//53 17//17
f 11//11 9//9 18//18
f 18//18 9//9 54//54
f 18//18 54//54 55//55
f 19//19 21//21 72//72
f 26//26 330//330 22//22
f 20//20 330//330 26//26
f 21//21 330//330 20//20
f 72//72 21//21 94//94
f 94//94 21//21 20//20
f 331//331 23//23 24//24
f 331//331 19//19 23//23
f 24//24 28//28 331//331
f 23//23 19//19 95//95
f 28//28 24//24 97//97
f 25//25 98//98 97//97
f 97//97 24//24 25//25
f 332//332 27//27 20//20
f 94//94 20//20 27//27
f 28//28 26//26 22//22
f 28//28 29//29 35//35
f 29//29 28//28 97//97
f 97//97 30//30 29//29
f 97//97 31//31 30//30
f 30//30 35//35 29//29
f 30//30 31//31 35//35
f 31//31 133//133 35//35
f 26//26 32//32 33//33
f 32//32 36//36 33//33
f 334//334 34//34 332//332
f 334//334 38//38 34//34
f 34//34 27//27 332//332
f 27//27 34//34 38//38
f 26//26 35//35 32//32
f 32//32 35//35 36//36
f 28//28 35//35 26//26
f 33//33 36//36 37//37
f 335//335 33//33 37//37
f 148//148 37//37 36//36
f 145//145 335//335 37//37
f 145//145 37//37 146//146
f 35//35 148//148 36//36
f 39//39 41//41 156//156
f 39//39 40//40 1//1
f 338//338 337//337 158//158
f 341//341 328//328 43//43
f 159//159 341//341 43//43
f 42//42 6//6 1//1
f 1//1 339//339 160//160
f 42//42 1//1 160//160
f 161//161 42//42 160//160
f 46//46 42//42 162//162
f 6//6 42//42 50//50
f 46//46 50//50 42//42
f 44//44 50//50 46//46
f 342//342 45//45 51//51
f 46//46 343//343 44//44
f 343//343 46//46 429//429
f 429//429 47//47 343//343
f 45//45 344//344 51//51
f 7//7 48//48 3//3
f 49//49 48//48 7//7
f 342//342 59//59 50//50
f 52//52 342//342 51//51
f 51//51 344//344 346//346
f 344//344 165//165 346//346
f 7//7 17//17 49//49
f 49//49 53//53 164//164
f 59//59 54//54 50//50
f 59//59 342//342 52//52
f 53//53 49//49 17//17
f 347//347 15//15 55//55
f 55//55 54//54 57//57
f 347//347 55//55 57//57
f 57//57 54//54 58//58
f 53//53 56//56 348//348
f 57//57 58//58 347//347
f 53//53 348//348 164//164
f 58//58 54//54 349//349
f 61//61 190//190 62//62
f 60//60 62//62 190//190
f 191//191 70//70 62//62
f 61//61 62//62 66//66
f 66//66 68//68 63//63
f 61//61 66//66 63//63
f 63//63 68//68 64//64
f 61//61 63//63 65//65
f 63//63 64//64 65//65
f 65//65 193//193 61//61
f 66//66 62//62 70//70
f 65//65 67//67 193//193
f 350//350 68//68 72//72
f 65//65 350//350 72//72
f 65//65 72//72 67//67
f 68//68 69//69 19//19
f 19//19 72//72 68//68
f 66//66 69//69 68//68
f 66//66 70//70 69//69
f 70//70 194//194 71//71
f 351//351 84//84 77//77
f 71//71 194//194 366//366
f 87//87 366//366 194//194
f 351//351 79//79 70//70
f 79//79 69//69 70//70
f 81//81 99//99 74//74
f 75//75 82//82 73//73
f 80//80 75//75 73//73
f 73//73 82//82 362//362
f 76//76 73//73 362//362
f 81//81 74//74 355//355
f 351//351 77//77 78//78
f 356//356 353//353 106//106
f 357//357 377//377 352//352
f 77//77 84//84 78//78
f 367//367 354//354 358//358
f 367//367 363//363 354//354
f 351//351 78//78 79//79
f 78//78 360//360 79//79
f 75//75 80//80 359//359
f 79//79 360//360 378//378
f 352//352 377//377 361//361
f 69//69 79//79 105//105
f 79//79 378//378 105//105
f 122//122 362//362 82//82
f 82//82 89//89 122//122
f 122//122 114//114 362//362
f 83//83 364//364 366//366
f 365//365 89//89 82//82
f 365//365 90//90 89//89
f 85//85 83//83 366//366
f 83//83 85//85 86//86
f 86//86 368//368 83//83
f 85//85 366//366 87//87
f 87//87 88//88 85//85
f 86//86 85//85 88//88
f 93//93 86//86 88//88
f 93//93 88//88 87//87
f 194//194 93//93 87//87
f 89//89 116//116 122//122
f 89//89 90//90 390//390
f 90//90 117//117 390//390
f 91//91 368//368 86//86
f 368//368 91//91 92//92
f 92//92 117//117 368//368
f 86//86 93//93 91//91
f 93//93 92//92 91//91
f 93//93 120//120 92//92
f 72//72 94//94 67//67
f 19//19 69//69 95//95
f 69//69 96//96 95//95
f 23//23 95//95 96//96
f 24//24 370//370 25//25
f 24//24 23//23 96//96
f 25//25 370//370 98//98
f 98//98 96//96 69//69
f 98//98 69//69 108//108
f 108//108 97//97 98//98
f 69//69 105//105 108//108
f 371//371 362//362 112//112
f 104//104 372//372 100//100
f 113//113 371//371 112//112
f 374//374 371//371 113//113
f 106//106 353//353 373//373
f 102//102 372//372 104//104
f 115//115 104//104 100//100
f 103//103 106//106 373//373
f 103//103 373//373 376//376
f 123//123 132//132 111//111
f 103//103 101//101 379//379
f 101//101 376//376 107//107
f 101//101 103//103 376//376
f 104//104 380//380 102//102
f 375//375 105//105 378//378
f 105//105 381//381 382//382
f 375//375 381//381 105//105
f 109//109 382//382 381//381
f 380//380 104//104 383//383
f 97//97 108//108 110//110
f 382//382 385//385 384//384
f 385//385 382//382 109//109
f 115//115 383//383 104//104
f 115//115 386//386 383//383
f 362//362 114//114 112//112
f 112//112 114//114 113//113
f 113//113 114//114 374//374
f 115//115 100//100 387//387
f 114//114 122//122 123//123
f 123//123 389//389 388//388
f 389//389 123//123 111//111
f 117//117 125//125 390//390
f 118//118 125//125 117//117
f 117//117 92//92 119//119
f 119//119 118//118 117//117
f 120//120 119//119 92//92
f 120//120 93//93 195//195
f 120//120 195//195 119//119
f 119//119 195//195 118//118
f 203//203 118//118 195//195
f 121//121 67//67 94//94
f 450//450 67//67 121//121
f 110//110 392//392 333//333
f 110//110 333//333 97//97
f 393//393 111//111 132//132
f 385//385 394//394 384//384
f 122//122 124//124 123//123
f 122//122 126//126 124//124
f 123//123 124//124 135//135
f 124//124 126//126 135//135
f 123//123 135//135 132//132
f 116//116 391//391 122//122
f 126//126 122//122 391//391
f 391//391 127//127 126//126
f 391//391 128//128 127//127
f 127//127 128//128 139//139
f 139//139 135//135 127//127
f 125//125 118//118 128//128
f 118//118 203//203 128//128
f 336//336 129//129 369//369
f 129//129 130//130 94//94
f 143//143 130//130 129//129
f 121//121 94//94 130//130
f 131//131 121//121 130//130
f 130//130 143//143 131//131
f 239//239 121//121 131//131
f 94//94 27//27 38//38
f 35//35 133//133 134//134
f 132//132 396//396 395//395
f 132//132 135//135 396//396
f 35//35 134//134 148//148
f 134//134 150//150 148//148
f 135//135 126//126 127//127
f 396//396 135//135 409//409
f 409//409 135//135 136//136
f 409//409 136//136 151//151
f 137//137 136//136 135//135
f 136//136 137//137 151//151
f 411//411 201//201 138//138
f 412//412 397//397 455//455
f 201//201 398//398 142//142
f 128//128 203//203 139//139
f 139//139 140//140 135//135
f 135//135 140//140 137//137
f 400//400 399//399 153//153
f 137//137 140//140 402//402
f 415//415 403//403 401//401
f 399//399 141//141 153//153
f 399//399 154//154 141//141
f 141//141 154//154 153//153
f 201//201 142//142 202//202
f 155//155 456//456 404//404
f 139//139 203//203 417//417
f 143//143 336//336 144//144
f 143//143 129//129 336//336
f 143//143 144//144 131//131
f 205//205 144//144 406//406
f 406//406 144//144 336//336
f 147//147 407//407 149//149
f 407//407 147//147 406//406
f 205//205 406//406 147//147
f 148//148 146//146 37//37
f 408//408 149//149 407//407
f 149//149 207//207 147//147
f 152//152 408//408 410//410
f 149//149 408//408 152//152
f 414//414 138//138 149//149
f 410//410 413//413 152//152
f 138//138 414//414 411//411
f 405//405 416//416 421//421
f 416//416 418//418 421//421
f 209//209 423//423 159//159
f 423//423 341//341 159//159
f 423//423 157//157 337//337
f 423//423 261//261 157//157
f 337//337 157//157 158//158
f 340//340 424//424 426//426
f 208//208 158//158 157//157
f 210//210 427//427 425//425
f 159//159 43//43 211//211
f 161//161 162//162 42//42
f 428//428 427//427 210//210
f 43//43 48//48 211//211
f 214//214 345//345 430//430
f 430//430 428//428 214//214
f 48//48 49//49 163//163
f 163//163 211//211 48//48
f 214//214 433//433 345//345
f 49//49 164//164 163//163
f 431//431 432//432 216//216
f 433//433 214//214 220//220
f 221//221 164//164 348//348
f 52//52 434//434 59//59
f 434//434 167//167 59//59
f 220//220 222//222 433//433
f 166//166 349//349 168//168
f 436//436 221//221 348//348
f 166//166 58//58 349//349
f 349//349 437//437 168//168
f 436//436 168//168 221//221
f 167//167 169//169 173//173
f 167//167 170//170 169//169
f 169//169 170//170 179//179
f 167//167 434//434 170//170
f 170//170 181//181 179//179
f 170//170 185//185 181//181
f 171//171 168//168 437//437
f 173//173 171//171 167//167
f 168//168 171//171 172//172
f 223//223 168//168 172//172
f 173//173 177//177 187//187
f 169//169 174//174 173//173
f 174//174 176//176 173//173
f 176//176 177//177 173//173
f 174//174 169//169 175//175
f 184//184 439//439 179//179
f 179//179 439//439 169//169
f 445//445 174//174 175//175
f 445//445 176//176 174//174
f 177//177 176//176 445//445
f 180//180 184//184 179//179
f 179//179 181//181 180//180
f 185//185 183//183 181//181
f 180//180 181//181 182//182
f 442//442 444//444 443//443
f 446//446 443//443 178//178
f 443//443 444//444 178//178
f 440//440 177//177 445//445
f 183//183 185//185 441//441
f 180//180 182//182 184//184
f 173//173 187//187 171//171
f 186//186 172//172 171//171
f 172//172 186//186 225//225
f 187//187 177//177 441//441
f 441//441 185//185 187//187
f 186//186 171//171 187//187
f 191//191 187//187 185//185
f 187//187 188//188 186//186
f 188//188 189//189 186//186
f 191//191 188//188 187//187
f 189//189 188//188 190//190
f 60//60 188//188 191//191
f 227//227 448//448 449//449
f 188//188 60//60 190//190
f 449//449 192//192 227//227
f 62//62 60//60 191//191
f 191//191 224//224 226//226
f 449//449 61//61 192//192
f 191//191 226//226 194//194
f 194//194 468//468 230//230
f 193//193 192//192 61//61
f 228//228 192//192 450//450
f 191//191 194//194 70//70
f 194//194 230//230 195//195
f 194//194 195//195 93//93
f 230//230 313//313 195//195
f 450//450 121//121 196//196
f 229//229 450//450 196//196
f 196//196 237//237 229//229
f 196//196 121//121 239//239
f 204//204 197//197 131//131
f 197//197 204//204 206//206
f 131//131 197//197 239//239
f 138//138 207//207 149//149
f 138//138 199//199 207//207
f 245//245 207//207 199//199
f 201//201 199//199 138//138
f 198//198 453//453 200//200
f 198//198 200//200 246//246
f 201//201 454//454 199//199
f 246//246 454//454 201//201
f 456//456 155//155 247//247
f 422//422 419//419 248//248
f 471//471 201//201 202//202
f 248//248 472//472 422//422
f 471//471 246//246 201//201
f 420//420 457//457 473//473
f 131//131 144//144 204//204
f 205//205 204//204 144//144
f 207//207 459//459 147//147
f 249//249 460//460 458//458
f 205//205 475//475 204//204
f 252//252 475//475 205//205
f 207//207 477//477 459//459
f 423//423 209//209 261//261
f 157//157 261//261 263//263
f 157//157 263//263 208//208
f 159//159 260//260 209//209
f 260//260 159//159 211//211
f 209//209 260//260 261//261
f 212//212 428//428 210//210
f 208//208 210//210 425//425
f 208//208 264//264 210//210
f 265//265 212//212 210//210
f 210//210 264//264 265//265
f 428//428 212//212 214//214
f 214//214 212//212 213//213
f 265//265 213//213 212//212
f 213//213 265//265 267//267
f 461//461 217//217 266//266
f 163//163 215//215 211//211
f 431//431 216//216 462//462
f 461//461 463//463 217//217
f 466//466 464//464 465//465
f 466//466 465//465 218//218
f 218//218 219//219 466//466
f 217//217 467//467 270//270
f 218//218 465//465 164//164
f 221//221 219//219 218//218
f 164//164 221//221 218//218
f 219//219 221//221 273//273
f 214//214 272//272 220//220
f 273//273 221//221 275//275
f 222//222 438//438 435//435
f 168//168 223//223 221//221
f 221//221 223//223 275//275
f 224//224 222//222 220//220
f 223//223 172//172 225//225
f 438//438 222//222 224//224
f 224//224 447//447 438//438
f 276//276 275//275 223//223
f 220//220 278//278 224//224
f 224//224 191//191 447//447
f 223//223 225//225 276//276
f 225//225 186//186 448//448
f 225//225 448//448 276//276
f 278//278 468//468 224//224
f 227//227 276//276 448//448
f 468//468 278//278 230//230
f 279//279 276//276 227//227
f 228//228 279//279 192//192
f 192//192 279//279 227//227
f 282//282 228//228 283//283
f 229//229 228//228 450//450
f 228//228 229//229 283//283
f 237//237 283//283 229//229
f 233//233 237//237 196//196
f 239//239 233//233 196//196
f 237//237 238//238 285//285
f 239//239 231//231 234//234
f 231//231 232//232 234//234
f 238//238 469//469 234//234
f 234//234 469//469 239//239
f 234//234 236//236 235//235
f 234//234 232//232 236//236
f 233//233 238//238 237//237
f 234//234 235//235 238//238
f 313//313 296//296 457//457
f 313//313 457//457 195//195
f 239//239 197//197 250//250
f 197//197 206//206 250//250
f 250//250 242//242 239//239
f 240//240 239//239 242//242
f 231//231 239//239 240//240
f 231//231 240//240 232//232
f 232//232 240//240 242//242
f 232//232 242//242 241//241
f 232//232 241//241 243//243
f 242//242 254//254 241//241
f 241//241 254//254 244//244
f 256//256 244//244 254//254
f 244//244 256//256 290//290
f 241//241 244//244 243//243
f 232//232 470//470 236//236
f 470//470 288//288 236//236
f 289//289 288//288 243//243
f 243//243 244//244 289//289
f 290//290 292//292 289//289
f 290//290 289//289 244//244
f 207//207 294//294 291//291
f 245//245 294//294 207//207
f 451//451 245//245 199//199
f 246//246 471//471 198//198
f 452//452 321//321 245//245
f 248//248 298//298 472//472
f 489//489 198//198 471//471
f 452//452 490//490 321//321
f 296//296 473//473 457//457
f 249//249 250//250 460//460
f 251//251 250//250 249//249
f 251//251 242//242 250//250
f 477//477 253//253 255//255
f 477//477 207//207 253//253
f 251//251 478//478 479//479
f 478//478 251//251 476//476
f 257//257 242//242 251//251
f 257//257 251//251 479//479
f 255//255 253//253 259//259
f 253//253 207//207 259//259
f 257//257 254//254 242//242
f 254//254 257//257 256//256
f 257//257 479//479 258//258
f 255//255 259//259 481//481
f 256//256 257//257 258//258
f 480//480 482//482 483//483
f 207//207 291//291 259//259
f 486//486 480//480 483//483
f 261//261 484//484 262//262
f 262//262 263//263 261//261
f 299//299 263//263 262//262
f 263//263 300//300 208//208
f 300//300 265//265 264//264
f 208//208 300//300 264//264
f 267//267 265//265 300//300
f 484//484 461//461 266//266
f 266//266 262//262 484//484
f 262//262 266//266 299//299
f 213//213 268//268 214//214
f 268//268 213//213 267//267
f 268//268 269//269 214//214
f 300//300 268//268 267//267
f 268//268 301//301 269//269
f 217//217 299//299 266//266
f 270//270 299//299 217//217
f 269//269 272//272 214//214
f 269//269 301//301 272//272
f 301//301 270//270 271//271
f 271//271 272//272 301//301
f 467//467 273//273 271//271
f 467//467 271//271 270//270
f 273//273 275//275 274//274
f 271//271 273//273 274//274
f 271//271 274//274 277//277
f 272//272 278//278 220//220
f 271//271 278//278 272//272
f 277//277 274//274 275//275
f 278//278 271//271 302//302
f 276//276 277//277 275//275
f 271//271 277//277 493//493
f 276//276 280//280 277//277
f 279//279 280//280 276//276
f 280//280 281//281 277//277
f 282//282 281//281 280//280
f 279//279 282//282 280//280
f 282//282 279//279 228//228
f 230//230 278//278 302//302
f 281//281 282//282 284//284
f 281//281 284//284 303//303
f 283//283 284//284 282//282
f 313//313 230//230 302//302
f 284//284 283//283 285//285
f 285//285 305//305 284//284
f 304//304 284//284 305//305
f 284//284 312//312 303//303
f 237//237 285//285 283//283
f 235//235 286//286 238//238
f 235//235 236//236 286//286
f 286//286 285//285 238//238
f 286//286 288//288 285//285
f 288//288 286//286 236//236
f 285//285 288//288 315//315
f 315//315 288//288 293//293
f 313//313 287//287 296//296
f 287//287 297//297 296//296
f 313//313 317//317 287//287
f 317//317 297//297 287//287
f 491//491 488//488 498//498
f 288//288 289//289 292//292
f 295//295 291//291 294//294
f 290//290 256//256 292//292
f 486//486 292//292 480//480
f 295//295 292//292 486//486
f 292//292 293//293 288//288
f 295//295 293//293 292//292
f 294//294 245//245 319//319
f 293//293 295//295 320//320
f 320//320 295//295 499//499
f 295//295 294//294 499//499
f 320//320 315//315 293//293
f 319//319 245//245 321//321
f 487//487 491//491 474//474
f 488//488 491//491 487//487
f 299//299 492//492 263//263
f 492//492 299//299 301//301
f 268//268 300//300 301//301
f 299//299 270//270 301//301
f 277//277 485//485 493//493
f 485//485 494//494 493//493
f 494//494 495//495 493//493
f 304//304 306//306 284//284
f 306//306 312//312 284//284
f 493//493 323//323 314//314
f 285//285 496//496 305//305
f 305//305 496//496 304//304
f 304//304 497//497 308//308
f 307//307 306//306 304//304
f 307//307 309//309 306//306
f 308//308 307//307 304//304
f 307//307 308//308 309//309
f 308//308 311//311 309//309
f 311//311 308//308 310//310
f 310//310 308//308 497//497
f 306//306 309//309 311//311
f 311//311 310//310 497//497
f 315//315 325//325 311//311
f 311//311 495//495 306//306
f 323//323 324//324 314//314
f 495//495 323//323 493//493
f 495//495 311//311 323//323
f 302//302 314//314 313//313
f 314//314 324//324 313//313
f 315//315 320//320 325//325
f 320//320 326//326 325//325
f 316//316 318//318 313//313
f 326//326 316//316 327//327
f 316//316 326//326 500//500
f 322//322 491//491 498//498
f 317//317 313//313 318//318
f 318//318 501//501 317//317
f 501//501 318//318 316//316
f 321//321 504//504 319//319
f 326//326 320//320 499//499
f 502//502 321//321 490//490
f 503//503 316//316 500//500
f 311//311 325//325 323//323
f 324//324 316//316 313//313
f 316//316 324//324 327//327
f 325//325 326//326 327//327
f 324//324 323//323 327//327
f 323//323 325//325 327//327
