# Wavafront OBJ file of BodyParts3D
# BodyParts3D, Copyright(C) 2010-2011 The Database Center for Life Science licensed under CC Attribution-Share Alike 2.1 Japan.
vn -0.980988 -0.124295 -0.14904
v 0.145087 -96.3554 1559.79
vn -0.994584 -0.0983947 -0.0334769
v -0.034955 -95.9162 1561.14
vn -0.988618 -0.149573 0.0161879
v 0.122148 -97.2413 1561.76
vn -0.991599 -0.0753644 0.105126
v 0.016315 -95.8847 1562.55
vn -0.96439 -0.128591 0.23112
v 0.19254 -96.3544 1563.44
vn -0.977227 -0.0688338 -0.200721
v 0.101908 -94.6908 1559.11
vn -0.999205 -0.0267222 0.0295951
v -0.140246 -94.1976 1561.66
vn -0.961898 -0.0173221 0.272859
v 0.228069 -94.4129 1564.13
vn -0.974208 0.0190026 -0.224852
v 0.096917 -93.2584 1558.87
vn -0.994589 -0.0299089 -0.0994858
v -0.105911 -94.0363 1560.21
vn -0.998132 0.0599887 -0.011576
v -0.130616 -92.684 1561
vn -0.990022 0.0362494 0.136168
v -0.056282 -93.2133 1562.71
vn -0.954109 0.0905902 0.285428
v 0.311493 -92.3758 1564.19
vn -0.986956 0.0924083 -0.131826
v 0.017406 -92.3314 1559.52
vn -0.987327 0.153838 -0.0389771
v 0.038012 -91.3105 1560.77
vn -0.98807 0.136805 0.0707284
v -0.011378 -91.7348 1561.86
vn -0.971528 0.145431 0.187036
v 0.236878 -91.4834 1563.43
vn -0.967781 0.134331 -0.212968
v 0.302985 -91.2611 1558.73
vn -0.974265 0.199326 -0.105245
v 0.256707 -90.4341 1560.01
vn -0.965343 0.226108 0.130342
v 0.276902 -90.4328 1562.45
vn -0.976876 0.213087 0.0175274
v 0.250047 -90.2019 1561.39
vn -0.912829 -0.345772 0.217224
v 1.30746 -100.366 1564.1
vn -0.872173 -0.466267 -0.148018
v 0.938611 -99.724 1560.55
vn -0.816999 -0.511703 -0.265843
v 1.41006 -100.113 1559.59
vn -0.927286 -0.374288 -0.00701773
v 0.564295 -99.1096 1561.66
vn -0.943352 -0.242992 0.225924
v 0.921485 -99.1268 1564.1
vn -0.909059 -0.221759 0.352753
v 1.18195 -98.9754 1565.08
vn -0.844593 -0.393339 -0.363245
v 1.16614 -99.0468 1558.61
vn -0.975787 -0.193911 -0.101182
v 0.245073 -97.6443 1560.61
vn -0.929214 -0.309279 -0.202256
v 0.583571 -98.5855 1559.95
vn -0.878633 -0.410444 -0.244005
v 0.918402 -99.2627 1559.66
vn -0.960874 -0.270363 0.0602144
v 0.357398 -98.4394 1561.96
vn -0.947322 -0.307128 -0.0908517
v 0.491853 -98.81 1561.01
vn -0.975168 -0.175678 0.134853
v 0.221721 -97.5094 1562.62
vn -0.857183 -0.27976 -0.432403
v 1.23397 -97.4714 1557.12
vn -0.916542 -0.219462 -0.334346
v 0.700116 -97.079 1558.08
vn -0.945712 -0.22279 -0.236631
v 0.469748 -97.4934 1559.16
vn -0.924162 -0.0978047 0.369269
v 0.415563 -95.5753 1564.52
vn -0.906935 -0.144406 -0.395746
v 0.820452 -95.2427 1556.96
vn -0.957546 -0.127903 -0.258353
v 0.265292 -95.9019 1558.9
vn -0.87963 -0.0371094 0.474208
v 0.809795 -94.4104 1565.54
vn -0.895399 -0.0659879 -0.440348
v 0.939967 -93.9255 1556.38
vn -0.949433 -0.0555749 -0.309013
v 0.472593 -94.301 1557.62
vn -0.910168 0.0486504 0.411373
v 0.614453 -92.847 1565.11
vn -0.827165 0.0641781 0.558282
v 1.50357 -92.6362 1566.66
vn -0.88953 0.0238961 -0.456252
v 1.34344 -92.6713 1555.51
vn -0.93635 0.0777622 -0.342346
v 0.686395 -91.9753 1557.02
vn -0.937674 0.205668 0.280123
v 0.601266 -90.7451 1564.32
vn -0.89466 0.136964 0.425235
v 0.832302 -91.4154 1565.24
vn -0.829891 0.177197 0.529038
v 1.63218 -90.2727 1566.26
vn -0.876035 0.115419 -0.468232
v 1.61328 -91.1058 1555.24
vn -0.952295 0.18852 -0.239988
v 0.641062 -89.93 1558.3
vn -0.879965 0.216847 0.422658
v 1.07039 -90.21 1565.24
vn -0.779646 0.202548 0.59256
v 2.10632 -89.8042 1566.78
vn -0.866304 0.1889 -0.462423
v 1.90441 -89.2776 1555.34
vn -0.909334 0.170092 -0.379712
v 1.25727 -90.0974 1556.3
vn -0.960621 0.238548 -0.142486
v 0.887964 -88.4613 1558.66
vn -0.971075 0.237865 -0.0208341
v 0.678205 -88.4806 1560.9
vn -0.814377 0.250381 0.523544
v 2.18541 -88.4589 1566.35
vn -0.869031 0.280992 0.40722
v 1.91327 -86.1078 1564.54
vn -0.864951 0.192247 -0.463574
v 2.2894 -85.4779 1556.32
vn -0.966694 0.253313 -0.0365298
v 1.57861 -84.8097 1560.07
vn -0.921318 0.302707 0.244013
v 1.96713 -84.8605 1563.52
vn -0.925546 0.221866 -0.306822
v 2.14925 -84.7451 1557.01
vn -0.929734 0.27832 -0.241108
v 2.24583 -83.6302 1557.64
vn -0.959124 0.235166 -0.157408
v 1.81088 -84.4616 1558.59
vn -0.950609 0.308818 -0.0312112
v 2.03566 -83.2543 1559.81
vn -0.94266 0.316165 0.106918
v 1.77748 -84.1936 1561.39
vn -0.864456 0.411581 0.288647
v 2.24633 -83.9211 1563.16
vn -0.937407 0.329169 -0.11365
v 2.31948 -82.6122 1558.89
vn -0.919758 0.390235 0.0419799
v 2.51835 -81.9961 1560.2
vn -0.849475 -0.527176 -0.0218626
v 2.19216 -102.458 1562.82
vn -0.801298 -0.580184 0.145974
v 2.59713 -102.973 1563.51
vn -0.77217 -0.531153 0.348754
v 2.59318 -102.346 1564.82
vn -0.713656 -0.472791 0.516879
v 2.85229 -101.766 1565.94
vn -0.894144 -0.438523 0.0905764
v 1.70077 -101.508 1563.47
vn -0.844653 -0.466148 0.263186
v 1.92651 -101.585 1564.29
vn -0.863061 -0.369385 0.344499
v 1.69098 -100.65 1564.95
vn -0.795579 -0.447821 0.408058
v 2.24939 -101.437 1565.28
vn -0.689705 -0.357756 0.629537
v 2.67509 -100.175 1566.89
vn -0.814641 -0.314987 0.486973
v 1.89529 -99.8697 1566.04
vn -0.77582 -0.215226 0.593111
v 2.10013 -98.7276 1566.86
vn -0.668408 -0.276972 0.690302
v 2.77167 -99.06 1567.51
vn -0.856617 -0.14015 0.496553
v 1.78688 -98.1509 1566.56
vn -0.783684 -0.0777754 0.616271
v 2.30104 -97.4208 1567.45
vn -0.698665 -0.168422 0.695342
v 2.6611 -98 1567.74
vn -0.690432 -0.0424667 0.72215
v 3.06993 -95.6711 1568.44
vn -0.786237 -0.267574 -0.556988
v 2.76485 -96.6692 1553.93
vn -0.807484 -0.094326 -0.582299
v 2.52831 -94.0862 1553.52
vn -0.621182 -0.202238 -0.757121
v 3.26548 -95.2371 1552.95
vn -0.745386 0.0474756 0.66494
v 2.12831 -92.3403 1567.41
vn -0.736651 0.0213484 -0.675937
v 3.00882 -92.6028 1552.83
vn -0.662492 -0.0969177 -0.742772
v 3.15195 -93.6439 1552.72
vn -0.846682 0.0208279 -0.531692
v 2.40759 -92.6362 1553.64
vn -0.773537 0.14849 0.616109
v 2.12327 -90.9647 1567.13
vn -0.712137 0.117111 0.692204
v 2.9104 -91.2539 1568.09
vn -0.7212 0.194113 0.664974
v 3.14728 -89.4649 1567.93
vn -0.652886 0.262246 0.71061
v 3.68505 -88.6379 1568.19
vn -0.713204 0.120994 -0.690435
v 3.67854 -89.8715 1552.38
vn -0.813925 0.12799 -0.566696
v 3.03507 -90.3296 1553.07
vn -0.727 0.266502 0.632809
v 3.03834 -87.9448 1567.27
vn -0.619279 0.346191 0.70473
v 3.72648 -87.3073 1567.66
vn -0.788119 0.214311 -0.577009
v 3.55453 -88.7776 1552.81
vn -0.759902 0.310905 0.570865
v 2.83714 -86.848 1566.48
vn -0.697307 0.374288 0.611287
v 3.28348 -85.4896 1566.25
vn -0.809126 0.153384 -0.567264
v 3.60335 -86.3755 1553.82
vn -0.803495 0.368394 0.467635
v 2.48686 -85.2496 1565
vn -0.70619 0.436228 0.557675
v 3.1683 -84.595 1565.49
vn -0.838688 0.156987 -0.521496
v 3.49942 -85.0852 1554.22
vn -0.777111 0.457548 0.432143
v 2.8925 -83.2314 1563.85
vn -0.694077 0.488464 0.528828
v 3.55884 -82.9474 1564.61
vn -0.893787 0.304906 -0.328902
v 2.7132 -82.7343 1557.08
vn -0.911963 0.352825 -0.209378
v 2.64563 -82.1699 1558
vn -0.891902 0.420642 0.166047
v 2.67369 -81.8721 1560.99
vn -0.860871 0.25504 -0.44029
v 3.83993 -82.3702 1554.77
vn -0.8544 0.360131 -0.374575
v 3.86691 -81.2183 1555.59
vn -0.872493 0.406677 -0.270869
v 3.29941 -81.1198 1557.21
vn -0.90444 0.422471 -0.0592141
v 2.78752 -81.3863 1559.08
vn -0.88177 0.447063 -0.150383
v 3.10648 -80.9105 1558.39
vn -0.86899 0.483959 0.103156
v 3.13929 -80.7786 1560.39
vn -0.835902 0.491541 0.244245
v 3.32352 -80.8206 1561.41
vn -0.789349 0.502344 0.352957
v 3.55943 -81.063 1562.47
vn -0.810359 0.554851 0.188302
v 3.82114 -79.8933 1561.05
vn -0.750968 0.565872 0.340346
v 4.17617 -79.7802 1561.84
vn -0.841905 0.511261 -0.172651
v 4.02941 -79.4138 1557.93
vn -0.847524 0.530704 0.00755939
v 3.56488 -79.9467 1559.44
vn -0.767874 -0.637538 -0.0625685
v 4.35212 -104.963 1561.9
vn -0.777572 -0.603476 -0.176632
v 4.46393 -104.79 1560.54
vn -0.736626 -0.675422 0.0344519
v 3.40241 -104.049 1562.87
vn -0.681417 -0.700833 0.210959
v 3.60124 -104.104 1563.68
vn -0.596021 -0.703246 0.387561
v 4.2003 -104.171 1564.7
vn -0.633834 -0.653251 0.414146
v 3.63668 -103.5 1565
vn -0.549708 -0.65787 0.514808
v 4.0068 -103.542 1565.41
vn -0.780478 -0.614065 -0.117382
v 3.07224 -103.626 1562.19
vn -0.709779 -0.633019 0.309031
v 3.21115 -103.5 1564.2
vn -0.683233 -0.581598 0.441516
v 3.26992 -102.892 1565.31
vn -0.60906 -0.558932 0.562708
v 3.45377 -102.622 1565.87
vn -0.456672 -0.620806 0.637221
v 4.46323 -103.082 1566.34
vn -0.578745 -0.458819 0.674196
v 3.75056 -101.49 1567.1
vn -0.482846 -0.54324 0.686841
v 4.10818 -102.266 1566.82
vn -0.419353 -0.473626 0.774482
v 4.49831 -101.591 1567.51
vn -0.529575 -0.379408 0.758684
v 3.82339 -100.185 1567.89
vn -0.465967 -0.55485 -0.689214
v 4.71608 -101.22 1555.28
vn -0.568456 -0.272433 0.776298
v 3.70225 -98.7563 1568.41
vn -0.439473 -0.362656 0.821793
v 4.45812 -99.5889 1568.54
vn -0.421886 -0.301358 0.8551
v 4.73178 -98.2711 1569.22
vn -0.403401 -0.482164 -0.77768
v 4.05561 -99.1401 1554.15
vn -0.684455 -0.479349 -0.549314
v 3.42984 -99.6242 1555.03
vn -0.634985 -0.150898 0.757643
v 3.37023 -97.5058 1568.5
vn -0.606622 -0.0932479 0.789503
v 3.83876 -96.2835 1569.06
vn -0.497032 -0.182636 0.848295
v 4.36544 -97.6445 1569.2
vn -0.583899 -0.387696 -0.71327
v 3.52922 -97.7637 1553.71
vn -0.368688 -0.370753 -0.852415
v 3.9465 -97.4458 1553.32
vn -0.558601 -0.30176 -0.772597
v 3.38134 -96.7948 1553.38
vn -0.36363 -0.275939 -0.889736
v 4.02841 -95.9284 1552.71
vn -0.66091 0.0471613 0.748981
v 4.42557 -92.4967 1569.64
vn -0.571782 -0.0379015 -0.819529
v 3.59124 -92.9233 1552.32
vn -0.417515 -0.1496 -0.896271
v 3.94513 -93.7732 1552.21
vn -0.665908 0.164058 0.727772
v 4.17527 -90.1356 1569.11
vn -0.610986 0.122807 0.782058
v 4.99888 -90.6509 1569.93
vn -0.583909 0.264621 0.76748
v 5.19354 -89.8556 1569.9
vn -0.620632 0.0484791 -0.782602
v 4.14149 -90.1754 1551.93
vn -0.460916 -0.0103258 -0.887384
v 4.7584 -89.8694 1551.53
vn -0.685065 0.210679 -0.697353
v 4.244 -88.3106 1552.18
vn -0.605231 0.122876 -0.786509
v 4.61622 -88.8139 1551.72
vn -0.576038 0.181837 -0.796941
v 5.05794 -88.0562 1551.54
vn -0.616232 0.429389 0.660215
v 4.28033 -84.4708 1566.59
vn -0.552201 0.441263 0.707362
v 5.30725 -84.0253 1567.16
vn -0.773475 0.131231 -0.620093
v 4.29009 -84.899 1553.16
vn -0.707902 0.174467 -0.684424
v 4.76842 -86.0575 1552.47
vn -0.611827 0.499638 0.613212
v 4.55497 -83.0868 1565.83
vn -0.653926 0.168396 -0.737579
v 5.10163 -83.6302 1552.52
vn -0.661034 0.298363 -0.688487
v 5.62116 -81.4657 1552.78
vn -0.812198 0.337516 -0.475833
v 4.28003 -81.6372 1554.44
vn -0.781034 0.244447 -0.574657
v 4.57074 -82.3857 1553.55
vn -0.74055 0.35164 -0.572656
v 5.04926 -81.2192 1553.55
vn -0.696367 0.535055 0.478319
v 4.49205 -80.4936 1563.37
vn -0.614825 0.56496 0.550281
v 5.24222 -80.0999 1563.91
vn -0.755324 0.413655 -0.508306
v 5.07611 -80.4875 1554.04
vn -0.806786 0.413449 -0.422086
v 4.33469 -80.7176 1555.1
vn -0.757687 0.492812 -0.427841
v 5.30619 -79.4211 1554.67
vn -0.812994 0.483661 -0.32421
v 4.38433 -79.7313 1556.15
vn -0.779919 0.614071 0.121013
v 4.37486 -78.8647 1560.1
vn -0.743754 0.622602 0.243304
v 4.42783 -79.1032 1561.11
vn -0.6857 0.642327 0.34239
v 5.00265 -78.8046 1561.87
vn -0.656085 0.601479 0.455823
v 5.11416 -79.4353 1562.99
vn -0.782486 0.580383 -0.225546
v 4.75265 -78.5319 1557.36
vn -0.795709 0.602811 -0.058866
v 4.68548 -78.3626 1558.35
vn -0.7334 0.670299 -0.11324
v 5.66282 -77.2971 1557.76
vn -0.740278 0.670874 0.0437769
v 5.45249 -77.4432 1559.2
vn -0.633928 -0.721837 -0.277644
v 5.86099 -106.623 1560.43
vn -0.731263 -0.681469 0.0292207
v 5.34481 -106.286 1561.6
vn -0.770159 -0.614308 -0.171697
v 5.38741 -106.224 1560.77
vn -0.632456 -0.76426 -0.12612
v 5.85528 -106.742 1560.86
vn -0.534729 -0.654817 -0.534116
v 5.73163 -105.252 1558.21
vn -0.749145 -0.581498 -0.31724
v 5.27211 -105.297 1559
vn -0.57819 -0.705271 -0.41023
v 5.88759 -106.098 1559.27
vn -0.703536 -0.696486 0.141222
v 4.73173 -105.366 1562.46
vn -0.399294 -0.606405 -0.687632
v 5.80469 -103.869 1556.79
vn -0.602196 -0.574451 -0.554406
v 5.20949 -103.777 1557.15
vn -0.314473 -0.550915 0.773045
v 5.11093 -102.261 1567.35
vn -0.35598 -0.440394 0.824215
v 4.81052 -100.461 1568.29
vn -0.247243 -0.473148 0.845578
v 6.0001 -100.694 1568.56
vn -0.264409 -0.542612 -0.797283
v 5.71027 -101.883 1555.28
vn -0.303815 -0.384536 0.871682
v 5.26102 -99.5702 1568.91
vn -0.177603 -0.484938 -0.856325
v 5.61941 -99.8413 1554.03
vn -0.329281 -0.265715 0.906074
v 5.58162 -97.4027 1569.83
vn -0.209587 -0.418054 -0.883914
v 5.10055 -98.3188 1553.33
vn -0.124943 -0.32535 -0.937303
v 5.19263 -96.6127 1552.64
vn -0.574768 -0.0497592 0.816802
v 5.20066 -93.8557 1570.27
vn -0.440946 -0.0854848 0.893453
v 5.96821 -94.0277 1570.7
vn -0.10357 -0.225859 -0.968639
v 5.1082 -94.475 1552.04
vn -0.5487 0.02879 0.835523
v 5.45501 -92.4167 1570.45
vn -0.402027 0.0352604 0.914949
v 6.49288 -91.7706 1571.01
vn -0.515964 0.195972 0.833892
v 5.77602 -90.2091 1570.4
vn -0.505122 0.110407 0.855957
v 5.92322 -91.1882 1570.66
vn -0.473457 0.297448 0.829073
v 6.6534 -88.8199 1570.49
vn -0.256655 -0.118097 -0.959261
v 5.73087 -90.3881 1551.18
vn -0.0417203 -0.17115 -0.984361
v 6.7386 -90.2685 1551.01
vn -0.510671 0.373111 0.774599
v 6.13207 -87.3327 1569.5
vn -0.280641 -0.0333614 -0.959233
v 6.00789 -88.9796 1550.99
vn -0.12013 -0.0378317 -0.992037
v 6.84692 -88.2814 1550.78
vn -0.453675 0.0859402 -0.887014
v 5.43181 -88.5344 1551.23
vn -0.301273 0.0796705 -0.950204
v 6.48194 -87.6341 1550.89
vn -0.449862 0.16108 -0.878452
v 6.12967 -86.7595 1551.15
vn -0.325322 0.169963 -0.930203
v 6.77151 -86.0065 1551
vn -0.440724 0.449275 0.77712
v 6.73564 -83.5702 1567.92
vn -0.532989 0.174294 -0.827976
v 6.26053 -84.3846 1551.64
vn -0.484787 0.141245 -0.863152
v 6.12572 -83.1948 1551.84
vn -0.508967 0.522584 0.684002
v 7.04408 -81.5538 1566.72
vn -0.517763 0.202943 -0.831105
v 6.37424 -82.3154 1551.9
vn -0.553266 0.549948 0.625663
v 5.90928 -80.2629 1564.74
vn -0.681126 0.402827 -0.61139
v 6.10673 -79.925 1553.14
vn -0.557595 0.640731 0.52778
v 6.61542 -78.2943 1563.39
vn -0.533602 0.598477 0.597574
v 6.68877 -79.092 1564.33
vn -0.595045 0.342528 -0.727046
v 7.32769 -79.5426 1552.18
vn -0.699851 0.48075 -0.528288
v 6.15728 -79.0228 1553.78
vn -0.674581 0.708158 0.208452
v 6.08254 -76.9347 1559.92
vn -0.526256 0.741141 0.416851
v 7.50694 -76.5929 1561.88
vn -0.60816 0.682519 0.40535
v 6.23718 -77.8492 1562.3
vn -0.479018 0.709063 0.517467
v 7.46713 -77.3588 1563.02
vn -0.703569 0.554035 -0.445012
v 6.83892 -77.5663 1554.34
vn -0.733171 0.591182 -0.336101
v 6.33032 -77.2698 1555.72
vn -0.720605 0.658217 -0.217898
v 6.2791 -76.8956 1556.72
vn -0.66967 0.68691 -0.282306
v 7.11082 -76.312 1555.95
vn -0.656276 0.741866 -0.137608
v 7.33942 -75.8261 1556.88
vn -0.686025 0.727575 0.00211601
v 6.10387 -76.7606 1558.68
vn -0.628459 0.777743 -0.0124627
v 7.35075 -75.6659 1558.28
vn -0.63097 0.767974 0.109971
v 6.92897 -76.088 1559.32
vn -0.588077 0.742444 0.320847
v 6.94221 -76.6065 1561.07
vn -0.152023 -0.973102 0.173096
v 7.03131 -107.269 1562.55
vn 0.0610601 -0.994683 0.0829326
v 7.42888 -107.318 1562.35
vn -0.417759 -0.883202 -0.213149
v 6.43999 -107.025 1560.49
vn -0.415503 -0.829386 -0.373464
v 6.45124 -106.798 1559.84
vn -0.29154 -0.781916 -0.551009
v 6.67173 -106.399 1558.96
vn -0.165602 -0.94494 -0.282248
v 6.83656 -107.092 1560.3
vn -0.165672 -0.886252 -0.432562
v 6.84881 -106.847 1559.65
vn 0.0518127 -0.928475 -0.367763
v 7.24318 -106.968 1559.86
vn 0.0528042 -0.844715 -0.532605
v 7.26095 -106.62 1559.2
vn -0.475984 -0.879337 -0.014359
v 6.23975 -107.058 1561.51
vn -0.213925 -0.968089 -0.130536
v 6.83051 -107.224 1560.93
vn -0.149343 -0.988714 -0.0119094
v 7.02699 -107.321 1561.75
vn 0.0435518 -0.98258 -0.180666
v 7.22957 -107.252 1560.93
vn 0.1189 -0.991323 -0.0560448
v 7.4274 -107.325 1561.75
vn -0.616862 -0.762818 0.193881
v 6.05207 -106.854 1562.29
vn -0.508623 -0.767693 0.389807
v 6.27332 -106.517 1563.65
vn -0.375205 -0.917708 0.130513
v 6.63477 -107.188 1562.34
vn -0.367323 -0.877502 0.308324
v 6.84298 -107.07 1563.13
vn -0.118577 -0.941413 0.315724
v 7.24237 -107.099 1563.33
vn -0.40897 -0.721082 0.559271
v 6.69428 -106.177 1564.61
vn -0.306589 -0.686541 0.659291
v 7.11074 -105.906 1565.16
vn -0.230048 -0.857589 0.46002
v 7.2605 -106.792 1564.05
vn -0.119086 -0.780571 0.613619
v 7.48806 -106.32 1564.82
vn -0.168571 -0.646467 0.744086
v 7.54427 -105.328 1565.87
vn -0.348352 -0.685979 -0.638814
v 6.32132 -105.45 1558
vn -0.10616 -0.718546 -0.687329
v 6.91549 -105.569 1557.91
vn 0.0180116 -0.775833 -0.630682
v 7.08823 -106.092 1558.48
vn 0.0563876 -0.68161 -0.72954
v 7.5478 -104.975 1557.3
vn -0.411782 -0.650088 0.638609
v 6.36181 -104.966 1565.62
vn -0.229815 -0.596492 -0.769014
v 6.41102 -103.758 1556.44
vn -0.0565931 -0.625061 -0.778522
v 7.18954 -104.178 1556.61
vn -0.23863 -0.651314 -0.72031
v 6.55447 -104.825 1557.28
vn -0.127685 -0.548164 -0.826567
v 6.68738 -102.331 1555.35
vn 0.0532257 -0.544818 -0.836864
v 7.47286 -102.623 1555.48
vn -0.199209 -0.340486 0.918904
v 7.93154 -98.3955 1570.18
vn -0.0283335 -0.479432 -0.877121
v 6.98574 -100.502 1554.24
vn -0.0290984 -0.41171 -0.91085
v 6.47712 -98.7876 1553.4
vn 0.0889174 -0.335025 -0.938004
v 7.12757 -97.8697 1553.03
vn -0.352833 -0.178899 0.918425
v 6.74663 -94.4526 1570.96
vn -0.315128 -0.0989616 0.943876
v 6.98261 -93.8065 1571.14
vn 0.0905262 -0.267512 -0.959293
v 7.03189 -95.9372 1552.42
vn -0.255943 -0.0105687 0.966634
v 7.86294 -92.3725 1571.5
vn -0.387882 0.191455 0.901605
v 7.19257 -89.9679 1571.08
vn -0.289403 0.10461 0.951474
v 7.96214 -90.5581 1571.45
vn -0.35642 0.334788 0.872285
v 7.47481 -88.4596 1570.76
vn 0.0896607 -0.149695 -0.984658
v 8.23373 -88.5605 1550.78
vn 0.0346054 -0.0149647 -0.999289
v 8.53172 -86.771 1550.65
vn -0.153631 0.0746409 -0.985305
v 7.74461 -86.5154 1550.7
vn -0.330495 0.138447 -0.933598
v 7.26176 -84.3749 1551.2
vn -0.398299 0.536942 0.743674
v 8.07832 -80.9629 1566.94
vn -0.456721 0.585414 0.669848
v 7.96583 -79.3582 1565.58
vn -0.298204 0.597468 0.744383
v 8.95815 -79.5027 1566.25
vn -0.344054 0.0721998 -0.93617
v 8.21507 -81.5931 1551.14
vn -0.46046 0.653266 0.601016
v 7.81795 -78.3173 1564.47
vn -0.337587 0.658292 0.67282
v 8.81717 -78.3836 1565.2
vn -0.63295 0.461462 -0.621632
v 7.59362 -78.3587 1552.64
vn -0.364852 0.713741 0.597876
v 9.07323 -77.3314 1564.21
vn -0.55752 0.422023 -0.71489
v 9.01958 -77.8904 1551.68
vn -0.637909 0.560829 -0.527772
v 7.87319 -76.943 1553.62
vn -0.653133 0.63534 -0.412019
v 7.69703 -76.5556 1554.37
vn -0.566938 0.792119 0.226116
v 7.75963 -75.5683 1559.88
vn -0.47963 0.801369 0.357438
v 8.15514 -75.696 1560.91
vn -0.362807 0.819335 0.443915
v 9.17148 -75.4435 1561.47
vn -0.437889 0.768448 0.466628
v 8.11825 -76.415 1562.25
vn -0.556186 0.660347 -0.504578
v 9.12381 -76.0385 1553.25
vn -0.600336 0.713722 -0.360828
v 8.32117 -75.7002 1554.82
vn -0.541271 0.736694 -0.405348
v 9.16696 -75.2865 1554.34
vn -0.580644 0.782266 -0.225639
v 8.37329 -75.2034 1555.96
vn -0.558469 0.826185 -0.0743702
v 8.80713 -74.6403 1557.28
vn -0.56584 0.819622 0.0896872
v 7.97729 -75.2149 1558.8
vn -0.474364 0.84675 0.240816
v 8.59058 -75.0212 1559.78
vn -0.479899 0.870593 0.108467
v 9.22373 -74.3872 1558.45
vn -0.393808 0.849116 0.352019
v 9.19384 -75.005 1560.58
vn 0.225368 -0.925229 -0.305221
v 7.64358 -106.978 1560.06
vn 0.257971 -0.85261 -0.454431
v 7.6533 -106.786 1559.63
vn 0.410128 -0.848723 -0.333863
v 8.25808 -106.728 1560.02
vn 0.516144 -0.760888 -0.393249
v 8.68446 -106.24 1559.52
vn 0.289032 -0.941513 -0.173247
v 7.83638 -107.143 1560.9
vn 0.308711 -0.950964 -0.0191134
v 8.0357 -107.202 1562.13
vn 0.470961 -0.870274 -0.144287
v 8.65611 -106.809 1561.04
vn 0.567946 -0.788389 -0.236391
v 9.07712 -106.42 1560.56
vn 0.0776271 -0.968131 0.23811
v 7.63893 -107.166 1563.14
vn 0.0794813 -0.932014 0.353601
v 7.64629 -107.045 1563.52
vn 0.260166 -0.956134 0.134612
v 7.8358 -107.215 1562.74
vn 0.341259 -0.911431 0.229861
v 8.2465 -106.97 1563.3
vn 0.448423 -0.892982 0.0387158
v 8.44664 -107.019 1562.29
vn 0.515877 -0.847248 0.126654
v 9.07133 -106.609 1563.03
vn 0.0391351 -0.870102 0.491316
v 7.66618 -106.707 1564.28
vn 0.267631 -0.886115 0.378382
v 8.26663 -106.708 1564.07
vn 0.242983 -0.82428 0.511393
v 8.49309 -106.254 1564.8
vn 0.0775951 -0.74822 0.658898
v 8.31878 -105.801 1565.45
vn 0.300912 -0.761968 0.57346
v 8.92228 -105.749 1565.32
vn 0.239843 -0.785813 -0.570064
v 7.88852 -106.116 1558.7
vn 0.180805 -0.72291 -0.666866
v 7.93336 -105.262 1557.65
vn 0.349568 -0.735432 -0.580468
v 8.32742 -105.392 1557.97
vn 0.386218 -0.782902 -0.48775
v 8.28273 -106.248 1559.15
vn 0.143307 -0.66759 0.730607
v 8.7659 -104.976 1566.21
vn -0.0271355 -0.589343 0.807427
v 8.46105 -103.272 1567.55
vn 0.203807 -0.621607 -0.756351
v 8.39911 -104.037 1556.63
vn 0.399899 -0.657776 -0.638288
v 9.18322 -104.372 1557.31
vn -0.177968 -0.536245 0.825087
v 7.87721 -102.965 1567.68
vn -0.025721 -0.528053 0.848822
v 8.50245 -102.532 1568.05
vn 0.245589 -0.530097 -0.811593
v 8.88683 -102.41 1555.59
vn 0.182329 -0.470888 -0.863146
v 8.37527 -100.74 1554.49
vn -0.158005 -0.435697 0.886116
v 8.07792 -99.3684 1569.81
vn -0.00711488 -0.448576 0.893716
v 9.06524 -99.6261 1569.77
vn 0.151107 -0.400299 -0.90384
v 8.25601 -99.234 1553.74
vn 0.296607 -0.422794 -0.856312
v 9.41718 -99.9987 1554.4
vn -0.169437 -0.239657 0.955958
v 8.7048 -95.2851 1571.36
vn -0.171642 -0.12516 0.977177
v 8.97409 -94.0338 1571.64
vn -0.0937805 -0.0443204 0.994606
v 9.6419 -92.8178 1571.84
vn -0.149658 0.0836934 0.985189
v 8.76308 -90.5694 1571.64
vn -0.221351 0.211697 0.951939
v 8.61683 -89.5757 1571.46
vn -0.30533 0.368734 0.877957
v 9.41552 -85.9277 1570.47
vn -0.357311 0.444993 0.821164
v 9.28595 -84.6124 1569.79
vn -0.2486 0.442501 0.861621
v 10.0879 -84.6076 1570.08
vn -0.292914 0.521766 0.801225
v 10.2069 -82.3906 1568.81
vn -0.161371 0.0499595 -0.985628
v 9.34406 -82.9152 1550.89
vn -0.287582 0.0115534 -0.957686
v 9.68458 -80.343 1550.6
vn -0.199688 0.658945 0.725201
v 10.2269 -78.2576 1565.61
vn -0.415956 0.177616 -0.891871
v 9.53082 -79.4974 1550.74
vn -0.228246 0.736106 0.637222
v 9.89011 -77.0459 1564.25
vn -0.553905 0.533361 -0.639308
v 9.26244 -77.1236 1552.01
vn -0.486113 0.322285 -0.812297
v 9.60126 -78.2223 1551.1
vn -0.48117 0.449195 -0.752794
v 10.0466 -77.4089 1551.25
vn -0.320484 0.776219 0.542931
v 9.323 -76.3908 1563.13
vn -0.226489 0.827834 0.513218
v 10.176 -75.4072 1562.05
vn -0.45621 0.522497 -0.720326
v 10.6866 -76.6975 1551.31
vn -0.497793 0.622913 -0.603474
v 9.92147 -76.0757 1552.44
vn -0.502496 0.811399 -0.298546
v 9.60233 -74.6747 1555.04
vn -0.473846 0.764528 -0.436997
v 10.1772 -74.9797 1553.67
vn -0.362671 0.892213 0.269119
v 10.0359 -74.2197 1559.42
vn -0.354792 0.924289 0.140753
v 10.0453 -74.0194 1558.58
vn -0.265987 0.873707 0.407293
v 10.2148 -74.6543 1560.71
vn -0.427108 0.877978 -0.21618
v 10.651 -73.8411 1555.91
vn -0.452821 0.89154 -0.0104231
v 9.65031 -74.124 1557.38
vn -0.466752 0.872981 -0.141588
v 10.0442 -73.9779 1556.75
vn -0.34943 0.936812 0.0167755
v 10.8679 -73.5841 1557.28
vn 0.594477 -0.80334 -0.0352382
v 9.48333 -106.365 1561.97
vn 0.459259 -0.834525 0.304384
v 9.29677 -106.188 1564.17
vn 0.481743 -0.781547 0.39637
v 9.72512 -105.698 1564.69
vn 0.603509 -0.781476 0.158345
v 9.9123 -105.905 1563.71
vn 0.500844 -0.722409 -0.47674
v 9.3474 -105.065 1558.31
vn 0.653411 -0.74542 -0.131918
v 9.93888 -105.945 1561.49
vn 0.62978 -0.71961 -0.29247
v 9.91864 -105.679 1560.43
vn 0.698098 -0.71596 -0.00776114
v 10.8328 -105.203 1562.57
vn 0.603394 -0.736778 0.305081
v 10.5562 -105.148 1564.59
vn 0.377496 -0.718556 0.584101
v 9.76576 -104.992 1565.79
vn 0.503472 -0.705111 0.499334
v 10.5924 -104.525 1565.71
vn 0.346435 -0.632703 0.692582
v 10.2354 -103.764 1566.8
vn 0.546221 -0.642329 -0.53764
v 9.99683 -104.16 1557.74
vn 0.609618 -0.683833 -0.400922
v 10.3931 -104.259 1558.36
vn 0.156644 -0.5778 0.801005
v 9.474 -103.065 1567.61
vn 0.375514 -0.568947 -0.731634
v 9.45948 -102.947 1556.21
vn 0.504761 -0.552891 -0.66297
v 10.4906 -102.413 1556.43
vn 0.382397 -0.48088 -0.789004
v 9.93902 -101.478 1555.44
vn 0.123433 -0.501478 0.85632
v 10.2617 -99.7196 1569.64
vn 0.0718426 -0.414172 0.907359
v 10.5416 -98.2877 1570.34
vn -0.0339412 -0.349459 0.936337
v 9.80917 -97.0495 1570.88
vn 0.0978661 -0.351769 0.930957
v 11.0425 -96.4783 1571.05
vn 0.274255 -0.334784 -0.901501
v 9.71495 -98.194 1553.71
vn 0.404159 -0.407813 -0.818745
v 10.471 -99.0428 1554.39
vn 0.0384684 -0.257698 0.96546
v 10.7143 -95.1701 1571.48
vn -0.00887216 -0.167902 0.985764
v 10.1733 -94.0844 1571.72
vn 0.0122765 0.0269538 0.999561
v 10.8851 -92.0626 1571.9
vn 0.0785997 -0.0964411 0.99223
v 11.04 -92.8912 1571.85
vn 0.137127 -0.260364 -0.955723
v 11.0436 -92.1593 1552.03
vn -0.0469345 0.15623 0.986605
v 11.0486 -89.0675 1571.65
vn 0.110335 -0.207344 -0.972026
v 11.1488 -90.2202 1551.51
vn -0.138991 0.277764 0.950541
v 10.7445 -87.2901 1571.25
vn -0.144456 0.379346 0.913909
v 11.2484 -85.3836 1570.67
vn -0.00869211 -0.0886825 -0.996022
v 10.3762 -86.0166 1550.9
vn -0.161332 0.484476 0.859799
v 10.9689 -83.1304 1569.49
vn -0.173583 0.566093 0.805858
v 11.4283 -82.0365 1568.89
vn -0.146856 0.621291 0.769696
v 11.9345 -80.0594 1567.53
vn -0.12149 0.733509 0.668734
v 10.8825 -77.2268 1564.7
vn -0.345069 0.214637 -0.913706
v 10.9956 -78.4194 1550.38
vn -0.411042 0.390298 -0.82384
v 11.0504 -77.3491 1550.73
vn -0.333261 0.316557 -0.888104
v 11.8569 -77.2422 1550.41
vn -0.146462 0.79226 0.592346
v 10.9397 -76.1379 1563.39
vn -0.0544057 0.824335 0.563482
v 11.9934 -75.1432 1562.19
vn -0.428207 0.600907 -0.674944
v 11.7372 -75.8006 1551.36
vn -0.141465 0.85907 0.491922
v 11.8213 -74.5984 1561.31
vn -0.116292 0.905359 0.408413
v 12.0478 -74.0901 1560.39
vn -0.439379 0.700081 -0.562879
v 11.7859 -74.94 1552.22
vn -0.387707 0.80032 -0.457352
v 12.2195 -74.3551 1552.73
vn -0.410491 0.851554 -0.326117
v 11.4509 -73.8244 1554.68
vn -0.364692 0.924204 -0.113343
v 11.0683 -73.5547 1556.46
vn -0.336935 0.919832 -0.200957
v 11.8747 -73.4249 1555.42
vn -0.218716 0.963588 0.153824
v 12.0865 -73.3022 1558.03
vn -0.275798 0.960613 -0.0340206
v 12.2931 -73.138 1556.58
vn -0.220514 0.931673 0.288719
v 11.4661 -73.6953 1559.12
vn 0.717794 -0.67755 -0.160309
v 11.1777 -104.653 1561.06
vn 0.6827 -0.717028 0.140683
v 11.1791 -104.731 1564.11
vn 0.701146 -0.651765 -0.289131
v 11.4814 -103.891 1559.71
vn 0.767009 -0.636727 -0.0792214
v 11.7299 -104.166 1561.78
vn 0.67521 -0.689492 0.262094
v 12.3957 -103.211 1565.26
vn 0.600529 -0.676321 0.426562
v 12.2894 -102.813 1566.21
vn 0.484839 -0.645042 0.590636
v 11.6904 -102.798 1566.82
vn 0.656822 -0.622215 -0.42595
v 11.4168 -103.132 1558.16
vn 0.634315 -0.548799 -0.544485
v 11.3645 -102.635 1557.47
vn 0.73998 -0.560335 -0.372094
v 12.0913 -102.512 1558.44
vn 0.306852 -0.539856 0.783835
v 12.2775 -99.4745 1569.3
vn 0.536391 -0.463315 -0.705425
v 11.1947 -100.5 1555.62
vn 0.185405 -0.439246 0.879027
v 11.7567 -98.0424 1570.29
vn 0.311228 -0.439184 0.842766
v 12.5758 -97.7146 1570.22
vn 0.23238 -0.373654 0.897988
v 12.4132 -97.0374 1570.59
vn 0.168496 -0.286607 0.943115
v 11.8758 -95.8964 1571.14
vn 0.295272 -0.284857 0.91196
v 12.6838 -95.7666 1570.99
vn 0.442042 -0.381083 -0.812019
v 12.2094 -96.5471 1554.09
vn 0.250769 -0.210425 0.9449
v 12.5663 -94.2677 1571.41
vn 0.135848 -0.181283 0.974003
v 11.7693 -94.1956 1571.58
vn 0.240279 -0.117539 0.963561
v 12.8226 -93.2479 1571.52
vn 0.171501 -0.0196903 0.984987
v 11.6831 -92.1197 1571.82
vn 0.0959025 0.0997614 0.990379
v 12.6676 -88.7615 1571.58
vn 0.232408 -0.280112 -0.931409
v 12.1199 -90.7856 1551.83
vn 0.386019 -0.312909 -0.8678
v 13.1408 -90.4392 1552.06
vn -0.0236697 0.319134 0.947414
v 12.6479 -85.4354 1570.82
vn 0.0526228 0.220465 0.973974
v 12.9846 -86.6142 1571.16
vn 0.107573 0.289962 0.950973
v 13.4361 -85.674 1570.86
vn -0.0570056 0.423916 0.903906
v 12.4788 -84.8568 1570.58
vn 0.0539392 0.365028 0.929433
v 13.2676 -85.0866 1570.68
vn 0.0899153 0.448028 0.889486
v 13.518 -84.1572 1570.25
vn -0.0508539 0.500119 0.864462
v 12.7989 -82.6301 1569.43
vn 0.0857098 -0.235652 -0.968051
v 13.2349 -85.0085 1550.57
vn -0.0529547 0.568497 0.820979
v 12.8578 -81.5304 1568.74
vn 0.0891354 0.522742 0.847818
v 13.6274 -82.1196 1569.11
vn -0.0550531 0.630737 0.774041
v 12.7539 -79.7222 1567.38
vn 0.075657 0.591252 0.802931
v 13.7052 -80.6651 1568.12
vn -0.0738803 0.691276 0.718804
v 13.0101 -78.6699 1566.47
vn 0.0660629 0.658308 0.749844
v 13.8001 -78.8812 1566.68
vn -0.0426084 0.759702 0.648874
v 13.2921 -77.1244 1564.89
vn 0.0693451 0.723471 0.686863
v 13.8734 -77.4948 1565.29
vn -0.228139 0.133404 -0.964446
v 13.0158 -78.0085 1549.86
vn -0.264887 0.348171 -0.899228
v 13.8931 -76.6204 1549.94
vn -0.362758 0.488293 -0.79371
v 12.5137 -76.2278 1550.62
vn 0.00873019 0.8624 0.506152
v 12.6343 -74.3748 1561.04
vn -0.351803 0.641842 -0.681376
v 12.9738 -75.1614 1551.23
vn -0.342663 0.741649 -0.576662
v 13.0035 -74.6373 1551.79
vn -0.278665 0.555458 -0.783462
v 13.9549 -75.5107 1550.52
vn -0.287747 0.821338 -0.49255
v 13.8486 -73.8569 1552.43
vn -0.300594 0.897407 -0.322962
v 13.044 -73.49 1553.79
vn -0.235854 0.961842 -0.13868
v 13.0987 -73.0236 1555.54
vn -0.169672 0.985131 0.0270015
v 12.9021 -72.9962 1556.75
vn -0.0945064 0.98192 0.164017
v 13.5057 -72.9669 1557.35
vn -0.0142965 0.96701 0.254337
v 13.9013 -73.0805 1557.97
vn 0.00606936 0.984594 0.174754
v 14.1077 -72.9472 1557.37
vn -0.0752641 0.948693 0.307111
v 13.0855 -73.3756 1558.84
vn 0.0227785 0.908496 0.417271
v 13.8704 -73.7028 1559.7
vn -0.177077 0.96447 -0.196067
v 13.9446 -72.9786 1554.71
vn 0.742902 -0.664127 0.0838563
v 12.9987 -102.751 1564.57
vn 0.773927 -0.598197 -0.207839
v 12.7549 -102.478 1560.07
vn 0.73095 -0.629168 0.26431
v 14.1051 -101.164 1565.92
vn 0.615993 -0.61787 0.488661
v 13.9686 -100.529 1567.23
vn 0.463786 -0.597048 0.65455
v 13.4325 -100.286 1568.01
vn 0.460133 -0.540755 0.704174
v 13.6868 -99.3212 1568.65
vn 0.564569 -0.548832 0.616478
v 14.2906 -99.2538 1568.23
vn 0.400799 -0.485253 0.777103
v 13.3453 -98.2718 1569.59
vn 0.430915 -0.417121 0.800201
v 13.7917 -97.4429 1569.83
vn 0.523632 -0.464912 0.713909
v 14.3679 -97.8746 1569.22
vn 0.353856 -0.363188 0.861905
v 13.2331 -96.6909 1570.45
vn 0.69107 -0.488319 -0.532886
v 14.1442 -97.8719 1556.44
vn 0.408678 -0.280475 0.868514
v 13.8999 -95.4919 1570.6
vn 0.45396 -0.342093 0.822735
v 14.0632 -96.3824 1570.19
vn 0.588346 -0.423905 -0.688588
v 13.5832 -97.1044 1555.31
vn 0.388725 -0.198192 0.899785
v 13.9814 -94.0137 1570.96
vn 0.544889 -0.374791 -0.750085
v 14.1204 -94.5759 1554.35
vn 0.362752 -0.0662504 0.929528
v 13.6747 -92.3105 1571.33
vn 0.461979 -0.350426 -0.814725
v 13.1356 -94.2454 1553.58
vn 0.539872 -0.335923 -0.771812
v 14.4032 -93.0524 1553.84
vn 0.44784 -0.055045 0.892418
v 14.5804 -90.3898 1570.97
vn 0.230022 0.0817476 0.969746
v 13.8854 -88.4616 1571.34
vn 0.389442 0.0243338 0.920729
v 14.913 -87.9713 1570.96
vn 0.184648 0.215312 0.958929
v 13.9925 -86.492 1571.01
vn 0.246547 0.277389 0.928585
v 14.4434 -85.5605 1570.65
vn 0.317083 0.17244 0.932589
v 14.7785 -86.7641 1570.85
vn 0.270338 -0.388005 -0.881118
v 14.3006 -87.5308 1551.62
vn 0.160876 0.353147 0.921632
v 14.0759 -84.9525 1570.53
vn 0.257526 0.378017 0.88926
v 14.7502 -84.6313 1570.24
vn 0.162818 -0.386779 -0.907685
v 14.9718 -86.2298 1551.12
vn 0.233904 0.472958 0.84947
v 15.0034 -82.5977 1569.13
vn 0.105325 -0.272493 -0.956376
v 14.5612 -84.8708 1550.61
vn 0.226689 0.537684 0.812101
v 15.072 -81.316 1568.32
vn 0.242394 0.593486 0.767476
v 15.1347 -80.1411 1567.46
vn 0.207875 0.668146 0.714401
v 15.0032 -78.8493 1566.43
vn 0.207334 0.739053 0.640947
v 15.2966 -77.0852 1564.56
vn -0.0973949 -0.0694107 -0.992822
v 14.1893 -78.5165 1549.63
vn 0.180412 0.821366 0.541119
v 15.1581 -75.9065 1563.07
vn 0.0682002 0.787687 0.612289
v 14.1267 -76.488 1564.11
vn -0.195434 0.448784 -0.872009
v 14.5265 -76.0293 1550.04
vn -0.145396 0.264511 -0.953359
v 14.6898 -76.6961 1549.75
vn -0.0958061 0.116536 -0.988555
v 15.0541 -77.3537 1549.58
vn -0.0918368 0.45025 -0.888167
v 15.5351 -75.8968 1549.94
vn -0.263275 0.71939 -0.642779
v 14.2107 -74.5231 1551.32
vn -0.179795 0.604862 -0.775768
v 14.9829 -75.0281 1550.58
vn -0.161594 0.730459 -0.663564
v 15.2171 -74.4261 1551.09
vn -0.174566 0.827541 -0.533575
v 15.2492 -73.8632 1551.8
vn 0.0829476 0.965791 0.245699
v 14.7036 -73.0526 1557.76
vn 0.0617835 0.937719 0.341855
v 14.4916 -73.2944 1558.61
vn 0.183528 0.865257 0.466527
v 14.6667 -73.7927 1559.71
vn 0.187142 0.918768 0.347624
v 15.2872 -73.3966 1558.62
vn -0.21608 0.890305 -0.400833
v 14.2721 -73.4567 1552.96
vn -0.101784 0.916569 -0.386706
v 15.4801 -73.3337 1552.73
vn -0.135945 0.952426 -0.272772
v 14.8959 -73.062 1553.7
vn -0.00401995 0.993345 -0.11511
v 15.5115 -72.8251 1554.67
vn -0.110763 0.991945 -0.0614488
v 14.3115 -72.8214 1555.49
vn -0.00291847 0.999947 0.00987335
v 14.9149 -72.7812 1555.68
vn -0.0462134 0.996459 0.0702435
v 14.3128 -72.8318 1556.51
vn 0.0763544 0.988396 0.131314
v 15.3129 -72.8557 1556.5
vn 0.788808 -0.613217 0.0417868
v 14.4923 -100.922 1565.06
vn 0.733073 -0.574188 0.364573
v 15.2957 -99.1454 1566.98
vn 0.661265 -0.556009 0.50357
v 14.8776 -99.0636 1567.79
vn 0.810973 -0.574871 -0.108837
v 15.6504 -99.1769 1562.52
vn 0.829799 -0.55806 0.001272
v 15.8402 -99.0867 1564.33
vn 0.812461 -0.565845 0.140452
v 15.899 -98.8581 1565.71
vn 0.799838 -0.540537 0.260918
v 15.9287 -98.5412 1566.47
vn 0.65487 -0.474022 0.588599
v 15.1587 -98.0374 1568.42
vn 0.745846 -0.51042 0.428002
v 15.5432 -98.3064 1567.67
vn 0.775172 -0.437618 0.45563
v 16.1557 -97.3225 1567.68
vn 0.788562 -0.500657 -0.357088
v 15.5095 -97.79 1558.64
vn 0.807328 -0.536358 -0.246052
v 15.7274 -98.3505 1560.21
vn 0.5435 -0.359738 0.758417
v 14.8556 -96.2993 1569.73
vn 0.627849 -0.395201 0.670538
v 15.4289 -96.7793 1569.02
vn 0.653722 -0.308634 0.690936
v 15.6815 -95.8314 1569.26
vn 0.741075 -0.371402 0.559346
v 16.0877 -96.363 1568.54
vn 0.527219 -0.268933 0.806049
v 14.9152 -95.2233 1570.11
vn 0.676818 -0.422825 -0.602608
v 14.7467 -96.3679 1555.98
vn 0.776656 -0.46701 -0.422737
v 15.7724 -96.5541 1557.62
vn 0.640119 -0.251127 0.726073
v 15.8161 -94.536 1569.65
vn 0.505941 -0.175196 0.844589
v 14.8101 -93.5021 1570.65
vn 0.73184 -0.370475 -0.571977
v 15.801 -94.779 1556.11
vn 0.768099 -0.416152 -0.486663
v 16.0219 -95.2844 1556.8
vn 0.478392 -0.0574056 0.876268
v 14.8783 -92.2611 1570.8
vn 0.595193 -0.0876851 0.798785
v 15.7123 -92.1917 1570.28
vn 0.655344 -0.169036 0.736173
v 16.01 -93.5079 1569.79
vn 0.641624 -0.360868 -0.676826
v 15.1847 -93.4392 1554.67
vn 0.548733 -0.0722838 0.832867
v 15.7708 -90.5735 1570.26
vn 0.469259 -0.0555446 0.881312
v 15.4539 -89.0589 1570.71
vn 0.568495 -0.0567943 0.820724
v 16.229 -88.5649 1570.27
vn 0.436144 -0.429935 -0.790528
v 15.2537 -88.4464 1552.52
vn 0.54342 -0.470945 -0.694914
v 16.0179 -89.1511 1553.41
vn 0.540851 0.158192 0.826108
v 16.6095 -86.2149 1569.88
vn 0.395728 0.251337 0.883306
v 15.8254 -85.711 1570.21
vn 0.477447 0.0877873 0.874264
v 15.9715 -86.9102 1570.37
vn 0.359143 0.392561 0.846707
v 15.7198 -84.1665 1569.69
vn 0.502758 0.312 0.806158
v 16.7135 -84.2934 1569.26
vn 0.309239 -0.486908 -0.816879
v 16.5746 -86.2372 1551.59
vn 0.466719 0.411648 0.782764
v 16.7736 -83.1756 1568.68
vn 0.224875 -0.335132 -0.914941
v 16.6557 -84.7328 1550.9
vn 0.353945 0.472595 0.80708
v 16.0281 -82.1512 1568.49
vn 0.348957 0.533695 0.770324
v 16.0769 -81.2391 1567.89
vn 0.455795 0.475974 0.75213
v 16.8524 -81.7051 1567.79
vn 0.442319 0.541161 0.715191
v 16.9295 -80.2615 1566.73
vn 0.0556072 -0.1864 -0.980899
v 16.6451 -81.2349 1549.96
vn 0.370142 0.614367 0.696812
v 16.3901 -79.1171 1566.12
vn 0.322681 0.687109 0.650967
v 16.2739 -77.5312 1564.64
vn 0.448368 0.651261 0.612229
v 17.0685 -77.6388 1564.26
vn -0.0295175 -0.00718468 -0.999538
v 15.6193 -78.0031 1549.52
vn 0.0325731 0.0520552 -0.998113
v 17.0394 -77.6744 1549.52
vn 0.357806 0.741777 0.567223
v 16.5168 -76.7141 1563.54
vn 0.410998 0.771801 0.485185
v 17.1293 -76.4762 1562.73
vn -0.0220098 0.276418 -0.960785
v 16.0979 -76.5834 1549.67
vn -0.00776051 0.120766 -0.992651
v 16.2631 -77.2213 1549.55
vn 0.05246 0.197781 -0.978841
v 17.0849 -76.8463 1549.63
vn 0.0237564 0.528497 -0.848603
v 16.7706 -75.2892 1550.2
vn -0.0677276 0.65768 -0.750246
v 16.0041 -74.6712 1550.71
vn -0.051839 0.791291 -0.609238
v 16.0408 -74.0252 1551.42
vn 0.0968661 0.749796 -0.65454
v 17.2246 -74.3415 1551.05
vn 0.34436 0.923663 0.168116
v 17.2966 -73.1901 1555.93
vn 0.178732 0.956626 0.230048
v 15.904 -73.0572 1557.14
vn 0.320055 0.902891 0.286973
v 16.4937 -73.2693 1557.37
vn 0.328278 0.845337 0.421472
v 16.2767 -73.6104 1558.44
vn -0.0573724 0.865423 -0.497746
v 15.8607 -73.6753 1551.97
vn 0.0381864 0.925141 -0.377697
v 16.4792 -73.3721 1552.52
vn 0.0828356 0.852831 -0.515575
v 17.0552 -73.8015 1551.77
vn 0.173374 0.905198 -0.388019
v 17.2756 -73.4589 1552.52
vn 0.0312321 0.969619 -0.242618
v 16.3013 -73 1553.68
vn 0.163401 0.979029 -0.121664
v 16.9033 -72.9945 1554.07
vn 0.0846371 0.996225 0.0192839
v 15.9139 -72.8126 1555.27
vn 0.201282 0.970265 0.134429
v 16.2979 -72.9086 1555.89
vn 0.186393 0.982434 0.00898113
v 16.7089 -72.9131 1554.87
vn 0.853242 -0.515842 -0.0767175
v 16.2885 -98.2892 1563.18
vn 0.858003 -0.497472 0.127878
v 16.5299 -97.9049 1565.55
vn 0.83075 -0.471726 0.295516
v 16.3756 -97.7036 1566.7
vn 0.842253 -0.466119 -0.270819
v 16.2491 -97.2367 1559.76
vn 0.856636 -0.490578 -0.15971
v 16.3244 -97.7991 1561.27
vn 0.893088 -0.443409 -0.0760453
v 17.0918 -96.8841 1563.34
vn 0.87796 -0.478709 0.00492616
v 16.7214 -97.6859 1564.49
vn 0.882771 -0.414127 0.221843
v 16.9822 -96.8094 1566.17
vn 0.912769 -0.395282 0.102985
v 17.2342 -96.5275 1565.51
vn 0.847843 -0.361579 0.387843
v 16.7844 -96.4024 1567.32
vn 0.886397 -0.382396 -0.260911
v 16.881 -95.5596 1559.07
vn 0.882292 -0.424311 -0.203765
v 16.716 -96.7347 1560.48
vn 0.901522 -0.410955 -0.135553
v 17.1693 -96.4613 1562.26
vn 0.932749 -0.34692 -0.0981104
v 17.6202 -95.5634 1562.91
vn 0.927775 -0.373103 -0.00534466
v 17.5481 -95.9533 1564.19
vn 0.916478 -0.329121 0.227478
v 17.473 -95.618 1566.17
vn 0.880093 -0.274872 0.387145
v 17.4954 -94.169 1567.55
vn 0.743429 -0.229614 0.628165
v 16.4817 -94.046 1569.16
vn 0.757611 -0.300885 0.579218
v 16.5088 -95.3323 1568.56
vn 0.817525 -0.276305 0.505281
v 16.9424 -94.7184 1568.25
vn 0.845192 -0.401305 -0.352993
v 16.6233 -95.3161 1558.01
vn 0.925392 -0.335443 -0.17643
v 17.4823 -95.0969 1560.81
vn 0.898681 -0.181913 0.399099
v 17.8429 -92.8791 1567.53
vn 0.761393 -0.140499 0.632883
v 17.061 -92.5729 1568.91
vn 0.827077 -0.213338 0.52003
v 17.4003 -93.2411 1568.2
vn 0.836727 -0.136636 0.5303
v 17.4194 -92.3857 1568.47
vn 0.830093 -0.332853 -0.447386
v 16.6839 -93.7071 1556.73
vn 0.801918 -0.140183 0.580755
v 17.5545 -91.1747 1568.46
vn 0.875628 -0.200156 0.439561
v 18.0652 -91.1376 1567.64
vn 0.690247 -0.119488 0.71364
v 16.594 -91.5492 1569.55
vn 0.817336 -0.381728 -0.431562
v 17.6558 -90.9285 1556.66
vn 0.715846 -0.539732 -0.443006
v 18.1842 -89.6077 1556.23
vn 0.627635 0.0257332 0.778082
v 17.1499 -87.3099 1569.58
vn 0.66614 -0.0709852 0.742441
v 17.2815 -88.5613 1569.43
vn 0.746915 -0.112107 0.655401
v 17.7809 -88.8817 1568.89
vn 0.720945 -0.0334274 0.692185
v 17.8492 -87.8646 1568.92
vn 0.700042 -0.43043 -0.569799
v 17.0065 -89.4249 1554.52
vn 0.639673 0.114336 0.760096
v 17.4128 -86.1571 1569.27
vn 0.721586 0.0377056 0.691297
v 17.9953 -86.475 1568.78
vn 0.617454 -0.586188 -0.524532
v 18.2063 -87.9316 1554.13
vn 0.601474 0.207298 0.771529
v 17.2674 -85.1495 1569.18
vn 0.657286 0.245637 0.712487
v 17.9028 -84.4951 1568.44
vn 0.716722 0.132782 0.684601
v 18.3112 -85.75 1568.36
vn 0.307059 -0.420756 -0.853627
v 16.8152 -85.4913 1551.27
vn 0.42334 -0.501922 -0.754226
v 17.8087 -85.6563 1551.82
vn 0.712733 0.267248 0.648529
v 18.4901 -84.0482 1567.67
vn 0.603665 0.341159 0.720555
v 17.7492 -83.6344 1568.21
vn 0.540019 0.474491 0.695153
v 17.4768 -81.2523 1567.06
vn 0.568092 0.411676 0.712597
v 17.6166 -82.3774 1567.66
vn 0.643719 0.422803 0.637859
v 18.2691 -81.3945 1566.47
vn 0.677254 0.345656 0.649499
v 18.3985 -82.7119 1567.13
vn 0.322472 -0.30999 -0.894382
v 18.3825 -82.4485 1550.55
vn 0.602351 0.482214 0.636115
v 18.1075 -80.6371 1566.09
vn 0.197398 -0.246702 -0.948774
v 17.9902 -81.8647 1550.27
vn 0.513698 0.565089 0.645591
v 17.5719 -79.4658 1565.63
vn 0.644108 0.506443 0.573272
v 18.3826 -79.261 1564.7
vn 0.497138 0.679103 0.540067
v 17.4828 -77.3663 1563.59
vn 0.576489 0.670347 0.467221
v 18.0852 -77.3151 1562.88
vn 0.672293 0.561921 0.481941
v 18.5899 -78.2623 1563.45
vn 0.560507 0.607861 0.562438
v 18.0417 -78.1461 1563.97
vn 0.0441289 -0.0884862 -0.995099
v 17.3839 -78.7016 1549.56
vn 0.155513 -0.129043 -0.979369
v 18.3728 -78.9362 1549.7
vn 0.279359 0.112036 -0.953628
v 18.6393 -77.7278 1549.72
vn 0.084185 0.355617 -0.930833
v 17.3319 -76.0029 1549.89
vn 0.119982 0.0582515 -0.991066
v 17.6502 -77.4958 1549.57
vn 0.177983 0.235266 -0.955496
v 17.8961 -76.6673 1549.75
vn 0.258677 0.366003 -0.89394
v 18.3321 -76.0307 1550.05
vn 0.579579 0.720077 0.381545
v 18.8013 -75.0586 1558.41
vn 0.162629 0.495767 -0.853092
v 17.7562 -75.5772 1550.15
vn 0.321853 0.502441 -0.802473
v 18.5574 -75.5853 1550.36
vn 0.1905 0.646423 -0.738815
v 17.6026 -74.7432 1550.71
vn 0.319888 0.762367 -0.562555
v 18.2285 -74.3116 1551.44
vn 0.368023 0.624186 -0.689167
v 18.781 -75.1719 1550.77
vn 0.243106 0.841941 -0.481701
v 17.8478 -73.9591 1551.79
vn 0.395651 0.83282 -0.387133
v 18.4479 -73.9874 1552.19
vn 0.4971 0.748795 -0.438403
v 18.8267 -74.3738 1551.85
vn 0.615288 0.774219 0.148343
v 18.8611 -73.8449 1554.8
vn 0.54764 0.828539 -0.116679
v 18.8616 -73.7936 1553.58
vn 0.497774 0.847309 0.185173
v 18.275 -73.6001 1555.58
vn 0.46342 0.838113 0.287763
v 17.6787 -73.55 1556.59
vn 0.597245 0.753741 0.274178
v 18.8995 -74.4988 1556.94
vn 0.480795 0.786735 0.387149
v 17.6783 -74.3646 1558.55
vn 0.201059 0.943484 -0.263464
v 17.4855 -73.3031 1553.1
vn 0.295446 0.887346 -0.354017
v 17.8684 -73.6086 1552.54
vn 0.404473 0.88666 -0.224134
v 18.2728 -73.5591 1553.14
vn 0.316695 0.939413 -0.131174
v 17.691 -73.2273 1553.7
vn 0.339314 0.94025 0.0282124
v 17.6957 -73.1692 1554.5
vn 0.48519 0.874372 0.00797875
v 18.401 -73.4863 1554.34
vn 0.953374 -0.297595 -0.0501593
v 18.102 -94.272 1563.5
vn 0.952284 -0.294143 0.0814604
v 18.1707 -94.1134 1564.69
vn 0.937578 -0.241289 0.250452
v 18.0163 -93.5398 1566.62
vn 0.96205 -0.253507 -0.100967
v 18.3711 -93.0364 1562.48
vn 0.974501 -0.224332 0.00474619
v 18.5048 -92.9431 1564.29
vn 0.971996 -0.197756 0.126953
v 18.4879 -92.546 1565.44
vn 0.93389 -0.240077 0.264977
v 18.4671 -91.3584 1566.46
vn 0.89151 -0.413269 -0.185522
v 18.4134 -91.0007 1558.9
vn 0.957213 -0.289169 -0.0111324
v 18.7966 -91.2475 1563.6
vn 0.953719 -0.284566 0.097177
v 18.773 -91.2119 1565.01
vn 0.928754 -0.341666 0.14381
v 19.1856 -90.1474 1565.44
vn 0.826764 -0.184615 0.531392
v 18.3914 -89.4758 1567.97
vn 0.859668 -0.401329 -0.31608
v 18.3533 -90.5501 1557.93
vn 0.89908 -0.258251 0.353499
v 19.2166 -89.1602 1566.49
vn 0.897073 -0.140685 0.41889
v 19.5822 -87.5667 1566.42
vn 0.935876 -0.225802 0.270464
v 19.8758 -87.9459 1565.47
vn 0.798286 -0.0475283 0.600401
v 18.6665 -87.2516 1568
vn 0.803869 0.0555343 0.592209
v 18.9565 -86.1154 1567.6
vn 0.853947 -0.101722 0.510321
v 19.1402 -87.6076 1567.24
vn 0.871857 -0.0233549 0.489203
v 19.455 -86.4727 1566.85
vn 0.752025 -0.549482 -0.364043
v 19.5653 -87.8723 1556.13
vn 0.849145 0.107996 0.517
v 19.6416 -84.9357 1566.38
vn 0.771695 0.168712 0.613208
v 18.7827 -84.8875 1567.6
vn 0.562206 -0.556545 -0.611704
v 18.3545 -86.7026 1553.03
vn 0.629862 -0.519137 -0.577729
v 19.4144 -85.3647 1552.87
vn 0.716651 -0.523046 -0.46134
v 19.9714 -85.4602 1553.69
vn 0.854831 0.188318 0.483528
v 19.8893 -83.4683 1565.53
vn 0.780228 0.250878 0.572979
v 19.327 -83.305 1566.32
vn 0.546228 -0.477931 -0.687907
v 19.07 -84.5718 1551.93
vn 0.828645 0.285332 0.481595
v 19.8094 -82.4858 1565.16
vn 0.73433 0.349734 0.58176
v 18.9887 -82.1013 1566.12
vn 0.411027 -0.390384 -0.823806
v 18.7321 -83.3969 1551.06
vn 0.469257 -0.335709 -0.81676
v 19.386 -82.4268 1551.01
vn 0.587951 -0.401892 -0.701995
v 19.9388 -83.333 1551.84
vn 0.832864 0.343287 0.434157
v 20.0398 -80.9428 1563.68
vn 0.736254 0.402141 0.544255
v 19.2757 -81.2589 1565.18
vn 0.40278 -0.253502 -0.879491
v 19.2579 -81.0893 1550.46
vn 0.742571 0.45039 0.49572
v 19.2815 -79.6498 1563.88
vn 0.783146 0.46139 0.416895
v 19.7786 -78.9212 1562.33
vn 0.261316 -0.044354 -0.964234
v 18.7949 -78.5446 1549.75
vn 0.290703 -0.177541 -0.940197
v 18.9627 -79.1422 1549.87
vn 0.464954 -0.114332 -0.877922
v 19.3746 -78.9403 1550
vn 0.420443 0.0356723 -0.906617
v 19.4188 -78.1324 1549.98
vn 0.581779 0.0448381 -0.81211
v 19.8397 -78.1132 1550.23
vn 0.705969 0.163463 -0.689121
v 20.3622 -77.6474 1550.76
vn 0.37555 0.243375 -0.894277
v 19.1021 -76.8876 1550.04
vn 0.462693 0.360529 -0.809897
v 19.3111 -76.4504 1550.29
vn 0.497509 0.166202 -0.851388
v 19.4626 -77.3366 1550.11
vn 0.579319 0.262909 -0.771537
v 19.7472 -76.8567 1550.43
vn 0.629838 0.421065 -0.652693
v 19.7247 -76.1966 1550.73
vn 0.7034 0.310559 -0.63936
v 20.1576 -76.8129 1550.82
vn 0.768146 0.444411 -0.460923
v 20.3214 -76.3254 1551.35
vn 0.71042 0.684492 0.163627
v 20.0104 -75.1534 1555.82
vn 0.651869 0.689618 0.315427
v 19.3923 -75.2151 1557.66
vn 0.727456 0.632078 0.266995
v 20.0733 -75.5839 1556.91
vn 0.694428 0.605623 0.388576
v 19.5748 -75.8843 1558.58
vn 0.488569 0.665005 -0.564862
v 18.9936 -74.9599 1551.13
vn 0.521749 0.504098 -0.688232
v 19.326 -75.7797 1550.66
vn 0.630317 0.596779 -0.496543
v 19.5606 -75.2649 1551.38
vn 0.548008 0.784226 -0.290993
v 19.0361 -74.2273 1552.43
vn 0.616642 0.694834 -0.370079
v 19.4116 -74.6752 1552.1
vn 0.663681 0.735934 -0.133895
v 19.435 -74.2863 1553.25
vn 0.709744 0.665169 -0.231978
v 19.8031 -74.8557 1552.53
vn 0.730481 0.581938 -0.357415
v 20.053 -75.39 1552.01
vn 0.819088 0.533409 -0.211114
v 20.3087 -75.5353 1552.43
vn 0.674933 0.736712 0.0414838
v 19.2473 -74.0819 1554.03
vn 0.772208 0.633306 -0.0511686
v 19.8609 -74.7195 1553.52
vn 0.957663 -0.26417 0.114433
v 20.4045 -86.9884 1564.08
vn 0.937658 -0.108553 0.330171
v 20.1973 -86.5807 1565.23
vn 0.843404 -0.4851 -0.230972
v 20.5806 -86.6101 1556.72
vn 0.898845 -0.431023 -0.079345
v 20.7696 -86.651 1557.74
vn 0.9443 -0.0264903 0.328019
v 20.3922 -85.6368 1564.87
vn 0.971904 -0.111832 0.207115
v 20.7657 -85.4609 1563.62
vn 0.908073 0.00278929 0.418803
v 20.1585 -85.5247 1565.46
vn 0.830316 -0.461295 -0.312702
v 20.7714 -85.6009 1555.53
vn 0.905152 -0.385238 -0.179697
v 21.2453 -85.2413 1556.62
vn 0.965426 -0.260667 0.0022633
v 21.5512 -84.8179 1558.03
vn 0.904928 0.163421 0.392936
v 20.5017 -83.503 1564.31
vn 0.956529 0.0519821 0.286965
v 20.8876 -84.0848 1563.39
vn 0.911067 0.0732103 0.405707
v 20.2785 -84.5767 1565.1
vn 0.694497 -0.457549 -0.555268
v 20.3121 -83.8581 1552.61
vn 0.894804 -0.362213 -0.261014
v 21.2661 -83.7851 1554.41
vn 0.956115 -0.262657 -0.129826
v 21.648 -83.903 1556.25
vn 0.94724 0.170515 0.271407
v 20.9401 -82.4092 1562.5
vn 0.905831 0.218167 0.363142
v 20.6073 -82.4913 1563.53
vn 0.734575 -0.362445 -0.573613
v 20.7436 -82.5074 1552.18
vn 0.848529 -0.308922 -0.429612
v 21.3496 -82.2105 1552.93
vn 0.820782 -0.411401 -0.396316
v 21.0761 -83.5121 1553.56
vn 0.915664 -0.285154 -0.283278
v 21.5513 -82.3197 1553.56
vn 0.947222 -0.257565 -0.190871
v 21.6923 -82.7545 1554.64
vn 0.98753 -0.00250593 0.15741
v 21.756 -82.4243 1559.05
vn 0.9037 0.271604 0.330996
v 20.6295 -80.8119 1562.24
vn 0.607976 -0.291748 -0.738409
v 20.2418 -81.4331 1551.15
vn 0.801614 -0.230288 -0.551709
v 21.1057 -81.1444 1551.94
vn 0.917475 -0.184447 -0.352448
v 21.6006 -81.401 1552.99
vn 0.957446 0.153236 0.244571
v 21.6683 -80.6416 1558.75
vn 0.585605 -0.174651 -0.791558
v 20.3154 -80.0766 1550.79
vn 0.762837 -0.130698 -0.633243
v 20.899 -80.2117 1551.38
vn 0.892592 -0.0782381 -0.444024
v 21.5415 -79.8836 1552.34
vn 0.942464 0.0446802 -0.331309
v 21.6623 -79.2314 1552.63
vn 0.959971 -0.0682288 -0.271663
v 21.7606 -80.1914 1552.99
vn 0.990888 0.0327807 -0.130642
v 21.8884 -79.7039 1553.52
vn 0.989935 0.141243 0.00891561
v 21.9097 -78.9788 1555.43
vn 0.961625 0.247892 0.117588
v 21.7682 -78.4434 1556.15
vn 0.985449 0.119875 0.120501
v 21.9307 -79.6044 1556.54
vn 0.887438 0.336721 0.314758
v 21.2307 -78.2454 1558.36
vn 0.946008 0.244369 0.212961
v 21.5591 -78.5952 1557.6
vn 0.802658 0.457136 0.383102
v 20.4478 -77.9601 1559.81
vn 0.709932 -0.0111653 -0.704182
v 20.4469 -78.6728 1550.73
vn 0.838712 0.160344 -0.520435
v 20.8479 -77.7721 1551.38
vn 0.857632 0.0383348 -0.512832
v 21.2444 -78.9459 1551.78
vn 0.907458 0.172133 -0.383263
v 21.444 -78.4624 1552.3
vn 0.928206 0.269151 -0.256889
v 21.5739 -77.9419 1553.02
vn 0.961237 0.141076 -0.236899
v 21.6863 -78.5738 1552.93
vn 0.970507 0.227395 -0.0800515
v 21.7164 -78.0479 1553.65
vn 0.910362 0.413103 0.0242355
v 21.3844 -77.0077 1554.9
vn 0.962375 0.26954 0.0343822
v 21.7043 -77.9798 1555.26
vn 0.835895 0.502467 0.220921
v 20.9991 -76.8529 1556.91
vn 0.918437 0.373842 0.129291
v 21.4723 -77.4395 1555.98
vn 0.799954 0.505279 0.323678
v 20.7826 -77.0705 1557.96
vn 0.89763 0.378108 0.226483
v 21.2615 -77.6512 1557.44
vn 0.79688 0.278602 -0.536063
v 20.5506 -76.9657 1551.25
vn 0.873813 0.314484 -0.370879
v 20.7453 -76.9101 1551.64
vn 0.854191 0.427991 -0.295265
v 20.7199 -76.3908 1552.17
vn 0.904575 0.3973 -0.154584
v 21.3487 -77.0401 1553.48
vn 0.802099 0.593877 0.0628291
v 20.6458 -75.7489 1554.9
vn 0.848399 0.527622 -0.0428245
v 20.8917 -76.0924 1554.14
vn 0.788579 0.591218 0.169129
v 20.5589 -75.7955 1555.8
vn 0.858001 0.499736 0.11874
v 21.037 -76.4611 1555.62
vn 0.981989 -0.159097 -0.101908
v 21.9413 -81.8785 1555.1
vn 0.993851 -0.110685 0.00296913
v 21.9332 -82.6008 1556.84
vn 0.972196 -0.142613 -0.185732
v 21.8447 -81.5203 1554.03
vn 0.995719 -0.0578099 -0.0721272
v 22.0123 -81.0923 1554.97
vn 0.999313 0.0290613 0.0229926
v 22.0414 -80.5332 1555.89
f 32//32 34//34 3//3
f 29//29 2//2 1//1
f 2//2 7//7 10//10
f 2//2 3//3 4//4
f 4//4 7//7 2//2
f 3//3 34//34 4//4
f 34//34 5//5 4//4
f 1//1 10//10 6//6
f 37//37 1//1 40//40
f 40//40 1//1 6//6
f 2//2 10//10 1//1
f 4//4 12//12 7//7
f 38//38 8//8 5//5
f 5//5 8//8 4//4
f 4//4 8//8 12//12
f 43//43 9//9 47//47
f 10//10 9//9 6//6
f 6//6 9//9 43//43
f 9//9 10//10 14//14
f 7//7 11//11 10//10
f 7//7 12//12 11//11
f 12//12 16//16 11//11
f 12//12 17//17 16//16
f 13//13 17//17 12//12
f 8//8 44//44 13//13
f 8//8 13//13 12//12
f 9//9 18//18 47//47
f 9//9 14//14 18//18
f 14//14 10//10 11//11
f 11//11 16//16 15//15
f 11//11 15//15 14//14
f 15//15 19//19 14//14
f 15//15 16//16 21//21
f 19//19 15//15 21//21
f 19//19 18//18 14//14
f 20//20 16//16 17//17
f 20//20 21//21 16//16
f 17//17 48//48 20//20
f 17//17 13//13 48//48
f 19//19 21//21 58//58
f 20//20 48//48 63//63
f 19//19 58//58 57//57
f 20//20 58//58 21//21
f 76//76 22//22 32//32
f 28//28 196//196 24//24
f 24//24 31//31 28//28
f 23//23 25//25 33//33
f 30//30 23//23 33//33
f 31//31 23//23 30//30
f 23//23 31//31 24//24
f 23//23 24//24 196//196
f 76//76 25//25 23//23
f 32//32 22//22 26//26
f 26//26 22//22 27//27
f 78//78 27//27 22//22
f 81//81 27//27 78//78
f 81//81 84//84 27//27
f 30//30 28//28 31//31
f 30//30 29//29 37//37
f 30//30 33//33 29//29
f 3//3 29//29 32//32
f 2//2 29//29 3//3
f 33//33 25//25 32//32
f 29//29 33//33 32//32
f 32//32 25//25 76//76
f 34//34 26//26 5//5
f 26//26 34//34 32//32
f 5//5 26//26 27//27
f 39//39 35//35 36//36
f 35//35 28//28 36//36
f 88//88 35//35 39//39
f 35//35 88//88 28//28
f 36//36 37//37 40//40
f 37//37 28//28 30//30
f 28//28 37//37 36//36
f 37//37 29//29 1//1
f 38//38 5//5 27//27
f 41//41 8//8 38//38
f 38//38 27//27 84//84
f 84//84 85//85 41//41
f 42//42 88//88 39//39
f 43//43 40//40 6//6
f 36//36 40//40 39//39
f 40//40 43//43 39//39
f 41//41 44//44 8//8
f 84//84 41//41 38//38
f 45//45 44//44 41//41
f 42//42 39//39 43//43
f 47//47 42//42 43//43
f 45//45 49//49 44//44
f 41//41 85//85 45//45
f 85//85 91//91 45//45
f 46//46 51//51 94//94
f 47//47 56//56 51//51
f 46//46 42//42 47//47
f 47//47 51//51 46//46
f 42//42 46//46 94//94
f 47//47 18//18 52//52
f 56//56 47//47 52//52
f 13//13 49//49 48//48
f 49//49 53//53 48//48
f 48//48 53//53 60//60
f 13//13 44//44 49//49
f 45//45 50//50 49//49
f 49//49 50//50 53//53
f 50//50 59//59 53//53
f 95//95 50//50 45//45
f 54//54 50//50 95//95
f 55//55 51//51 56//56
f 52//52 57//57 64//64
f 64//64 56//56 52//52
f 18//18 19//19 52//52
f 48//48 60//60 63//63
f 53//53 59//59 60//60
f 59//59 50//50 54//54
f 57//57 52//52 19//19
f 20//20 63//63 58//58
f 59//59 104//104 60//60
f 59//59 101//101 104//104
f 56//56 64//64 55//55
f 55//55 64//64 61//61
f 57//57 58//58 64//64
f 104//104 107//107 60//60
f 104//104 105//105 107//107
f 64//64 58//58 66//66
f 58//58 68//68 62//62
f 66//66 58//58 62//62
f 58//58 63//63 68//68
f 60//60 107//107 63//63
f 69//69 63//63 107//107
f 64//64 115//115 61//61
f 64//64 112//112 115//115
f 64//64 66//66 65//65
f 66//66 70//70 65//65
f 62//62 67//67 66//66
f 66//66 67//67 70//70
f 67//67 62//62 68//68
f 67//67 68//68 71//71
f 63//63 69//69 68//68
f 69//69 114//114 68//68
f 70//70 113//113 65//65
f 64//64 65//65 112//112
f 65//65 113//113 112//112
f 67//67 71//71 70//70
f 70//70 71//71 118//118
f 113//113 70//70 118//118
f 76//76 23//23 72//72
f 72//72 23//23 134//134
f 134//134 73//73 72//72
f 72//72 73//73 76//76
f 73//73 74//74 77//77
f 76//76 73//73 77//77
f 77//77 74//74 79//79
f 130//130 135//135 73//73
f 74//74 73//73 135//135
f 73//73 129//129 130//130
f 74//74 135//135 136//136
f 74//74 75//75 79//79
f 136//136 75//75 74//74
f 196//196 134//134 23//23
f 77//77 79//79 78//78
f 77//77 78//78 22//22
f 22//22 76//76 77//77
f 78//78 79//79 81//81
f 79//79 75//75 81//81
f 75//75 80//80 81//81
f 80//80 82//82 81//81
f 75//75 139//139 80//80
f 80//80 83//83 82//82
f 80//80 142//142 83//83
f 139//139 142//142 80//80
f 81//81 82//82 84//84
f 82//82 85//85 84//84
f 83//83 142//142 144//144
f 82//82 86//86 85//85
f 83//83 86//86 82//82
f 144//144 86//86 83//83
f 144//144 149//149 86//86
f 88//88 148//148 28//28
f 152//152 148//148 88//88
f 28//28 148//148 196//196
f 86//86 87//87 85//85
f 87//87 86//86 149//149
f 147//147 148//148 152//152
f 152//152 88//88 154//154
f 154//154 88//88 90//90
f 90//90 88//88 89//89
f 88//88 42//42 89//89
f 85//85 87//87 91//91
f 156//156 91//91 87//87
f 93//93 90//90 89//89
f 90//90 93//93 158//158
f 90//90 158//158 155//155
f 156//156 96//96 91//91
f 94//94 92//92 89//89
f 92//92 93//93 89//89
f 92//92 157//157 93//93
f 158//158 93//93 157//157
f 42//42 94//94 89//89
f 45//45 91//91 95//95
f 95//95 91//91 96//96
f 95//95 97//97 54//54
f 95//95 96//96 97//97
f 159//159 97//97 96//96
f 94//94 51//51 100//100
f 100//100 92//92 94//94
f 51//51 55//55 100//100
f 101//101 54//54 97//97
f 97//97 159//159 98//98
f 101//101 98//98 102//102
f 101//101 97//97 98//98
f 159//159 161//161 98//98
f 100//100 103//103 99//99
f 100//100 99//99 92//92
f 55//55 103//103 100//100
f 101//101 59//59 54//54
f 104//104 101//101 102//102
f 103//103 164//164 99//99
f 170//170 164//164 103//103
f 103//103 106//106 170//170
f 107//107 105//105 108//108
f 104//104 102//102 105//105
f 108//108 105//105 167//167
f 105//105 102//102 167//167
f 103//103 55//55 61//61
f 61//61 106//106 103//103
f 109//109 106//106 61//61
f 110//110 108//108 111//111
f 111//111 108//108 171//171
f 108//108 167//167 171//171
f 109//109 169//169 106//106
f 61//61 115//115 109//109
f 115//115 175//175 109//109
f 109//109 175//175 169//169
f 69//69 121//121 114//114
f 107//107 108//108 110//110
f 110//110 69//69 107//107
f 110//110 111//111 177//177
f 114//114 71//71 68//68
f 122//122 121//121 69//69
f 110//110 122//122 69//69
f 110//110 177//177 122//122
f 117//117 116//116 112//112
f 112//112 116//116 115//115
f 115//115 116//116 174//174
f 174//174 116//116 180//180
f 116//116 182//182 180//180
f 113//113 117//117 112//112
f 119//119 117//117 113//113
f 119//119 113//113 118//118
f 119//119 118//118 126//126
f 71//71 120//120 118//118
f 71//71 114//114 120//120
f 120//120 126//126 118//118
f 120//120 121//121 123//123
f 123//123 126//126 120//120
f 121//121 120//120 114//114
f 121//121 122//122 124//124
f 121//121 124//124 123//123
f 185//185 184//184 124//124
f 122//122 177//177 124//124
f 182//182 116//116 117//117
f 125//125 117//117 119//119
f 182//182 117//117 125//125
f 119//119 126//126 125//125
f 125//125 126//126 188//188
f 183//183 188//188 126//126
f 123//123 183//183 126//126
f 123//123 124//124 184//184
f 123//123 184//184 183//183
f 134//134 129//129 73//73
f 129//129 198//198 130//130
f 127//127 198//198 129//129
f 128//128 127//127 134//134
f 127//127 129//129 134//134
f 130//130 131//131 135//135
f 132//132 135//135 131//131
f 130//130 198//198 131//131
f 131//131 279//279 133//133
f 133//133 132//132 131//131
f 134//134 196//196 128//128
f 135//135 132//132 136//136
f 133//133 136//136 132//132
f 137//137 136//136 133//133
f 75//75 136//136 137//137
f 139//139 75//75 137//137
f 138//138 137//137 133//133
f 138//138 140//140 137//137
f 140//140 139//139 137//137
f 139//139 141//141 142//142
f 139//139 140//140 141//141
f 201//201 140//140 138//138
f 140//140 201//201 141//141
f 202//202 141//141 201//201
f 142//142 202//202 145//145
f 141//141 202//202 142//142
f 196//196 148//148 200//200
f 148//148 143//143 200//200
f 142//142 145//145 144//144
f 145//145 146//146 144//144
f 144//144 146//146 151//151
f 143//143 148//148 147//147
f 204//204 143//143 147//147
f 150//150 87//87 149//149
f 149//149 144//144 151//151
f 151//151 150//150 149//149
f 150//150 151//151 210//210
f 151//151 146//146 207//207
f 152//152 154//154 153//153
f 147//147 152//152 153//153
f 208//208 147//147 153//153
f 150//150 210//210 87//87
f 155//155 154//154 90//90
f 154//154 155//155 153//153
f 153//153 155//155 209//209
f 209//209 155//155 212//212
f 87//87 210//210 156//156
f 212//212 155//155 158//158
f 159//159 96//96 156//156
f 213//213 160//160 156//156
f 156//156 160//160 159//159
f 156//156 210//210 213//213
f 212//212 158//158 218//218
f 161//161 159//159 160//160
f 215//215 161//161 160//160
f 217//217 161//161 215//215
f 92//92 162//162 157//157
f 158//158 157//157 163//163
f 163//163 157//157 162//162
f 218//218 158//158 163//163
f 98//98 161//161 102//102
f 102//102 161//161 220//220
f 217//217 220//220 161//161
f 92//92 99//99 162//162
f 99//99 165//165 162//162
f 163//163 162//162 165//165
f 99//99 164//164 165//165
f 164//164 170//170 228//228
f 165//165 164//164 166//166
f 164//164 228//228 166//166
f 165//165 166//166 223//223
f 165//165 223//223 163//163
f 220//220 168//168 102//102
f 167//167 102//102 168//168
f 106//106 169//169 170//170
f 169//169 172//172 170//170
f 170//170 172//172 228//228
f 171//171 167//167 168//168
f 169//169 175//175 172//172
f 175//175 173//173 172//172
f 229//229 228//228 172//172
f 172//172 173//173 231//231
f 172//172 231//231 229//229
f 177//177 111//111 171//171
f 177//177 171//171 178//178
f 232//232 178//178 171//171
f 171//171 230//230 232//232
f 236//236 231//231 173//173
f 175//175 115//115 174//174
f 175//175 176//176 173//173
f 175//175 174//174 176//176
f 233//233 173//173 176//176
f 176//176 179//179 233//233
f 174//174 179//179 176//176
f 177//177 186//186 124//124
f 178//178 186//186 177//177
f 180//180 179//179 174//174
f 179//179 180//180 181//181
f 180//180 182//182 181//181
f 182//182 125//125 187//187
f 238//238 183//183 184//184
f 183//183 190//190 188//188
f 190//190 183//183 238//238
f 186//186 185//185 124//124
f 185//185 238//238 184//184
f 185//185 240//240 238//238
f 237//237 233//233 179//179
f 181//181 237//237 179//179
f 182//182 187//187 243//243
f 187//187 125//125 188//188
f 187//187 188//188 189//189
f 188//188 190//190 189//189
f 190//190 238//238 247//247
f 187//187 189//189 244//244
f 189//189 190//190 247//247
f 246//246 244//244 189//189
f 196//196 193//193 128//128
f 191//191 193//193 196//196
f 191//191 196//196 197//197
f 128//128 193//193 127//127
f 193//193 192//192 127//127
f 193//193 191//191 194//194
f 194//194 192//192 193//193
f 260//260 265//265 192//192
f 194//194 191//191 253//253
f 198//198 265//265 131//131
f 198//198 192//192 265//265
f 266//266 131//131 265//265
f 266//266 270//270 131//131
f 195//195 196//196 200//200
f 199//199 195//195 200//200
f 275//275 195//195 199//199
f 199//199 282//282 275//275
f 197//197 196//196 195//195
f 255//255 197//197 195//195
f 198//198 127//127 192//192
f 270//270 279//279 131//131
f 138//138 133//133 279//279
f 138//138 279//279 201//201
f 282//282 199//199 280//280
f 351//351 203//203 201//201
f 199//199 200//200 143//143
f 199//199 143//143 204//204
f 204//204 280//280 199//199
f 283//283 204//204 286//286
f 145//145 202//202 205//205
f 203//203 202//202 201//201
f 205//205 202//202 203//203
f 286//286 204//204 206//206
f 146//146 145//145 205//205
f 146//146 205//205 207//207
f 207//207 205//205 285//285
f 204//204 147//147 206//206
f 206//206 147//147 208//208
f 286//286 206//206 287//287
f 206//206 208//208 287//287
f 287//287 208//208 209//209
f 151//151 289//289 211//211
f 209//209 208//208 153//153
f 291//291 209//209 212//212
f 210//210 211//211 213//213
f 210//210 151//151 211//211
f 211//211 289//289 290//290
f 216//216 160//160 213//213
f 214//214 213//213 211//211
f 216//216 213//213 214//214
f 216//216 214//214 293//293
f 160//160 216//216 215//215
f 293//293 215//215 216//216
f 217//217 215//215 293//293
f 417//417 212//212 219//219
f 293//293 295//295 217//217
f 220//220 217//217 295//295
f 221//221 219//219 218//218
f 212//212 218//218 219//219
f 227//227 220//220 295//295
f 218//218 163//163 221//221
f 163//163 223//223 221//221
f 223//223 224//224 221//221
f 219//219 221//221 222//222
f 222//222 221//221 224//224
f 220//220 227//227 168//168
f 224//224 298//298 222//222
f 298//298 224//224 226//226
f 298//298 297//297 222//222
f 225//225 223//223 166//166
f 166//166 228//228 225//225
f 224//224 223//223 225//225
f 226//226 225//225 228//228
f 226//226 224//224 225//225
f 226//226 228//228 299//299
f 368//368 226//226 299//299
f 227//227 300//300 230//230
f 229//229 299//299 228//228
f 301//301 232//232 230//230
f 230//230 171//171 168//168
f 230//230 168//168 227//227
f 301//301 230//230 300//300
f 231//231 303//303 229//229
f 173//173 233//233 236//236
f 185//185 186//186 240//240
f 186//186 178//178 234//234
f 178//178 232//232 235//235
f 234//234 178//178 235//235
f 301//301 235//235 232//232
f 234//234 235//235 304//304
f 233//233 306//306 236//236
f 242//242 237//237 181//181
f 306//306 233//233 237//237
f 181//181 182//182 243//243
f 250//250 238//238 240//240
f 240//240 241//241 239//239
f 240//240 186//186 234//234
f 240//240 234//234 241//241
f 241//241 314//314 239//239
f 234//234 304//304 241//241
f 237//237 242//242 309//309
f 309//309 306//306 237//237
f 243//243 242//242 181//181
f 310//310 309//309 242//242
f 242//242 243//243 310//310
f 243//243 245//245 310//310
f 310//310 245//245 316//316
f 316//316 245//245 318//318
f 244//244 243//243 187//187
f 243//243 244//244 245//245
f 245//245 244//244 246//246
f 318//318 245//245 246//246
f 319//319 318//318 246//246
f 246//246 189//189 247//247
f 238//238 249//249 247//247
f 246//246 247//247 248//248
f 247//247 249//249 248//248
f 319//319 246//246 248//248
f 320//320 248//248 249//249
f 238//238 250//250 311//311
f 311//311 249//249 238//238
f 311//311 250//250 312//312
f 312//312 250//250 239//239
f 240//240 239//239 250//250
f 332//332 269//269 251//251
f 262//262 252//252 251//251
f 252//252 332//332 251//251
f 269//269 332//332 333//333
f 191//191 197//197 254//254
f 191//191 254//254 253//253
f 254//254 197//197 255//255
f 254//254 255//255 257//257
f 253//253 256//256 261//261
f 254//254 257//257 256//256
f 256//256 253//253 254//254
f 256//256 257//257 258//258
f 261//261 256//256 263//263
f 256//256 258//258 263//263
f 257//257 259//259 258//258
f 255//255 259//259 257//257
f 255//255 277//277 259//259
f 259//259 277//277 343//343
f 259//259 325//325 258//258
f 324//324 263//263 258//258
f 324//324 328//328 263//263
f 325//325 324//324 258//258
f 325//325 259//259 343//343
f 253//253 260//260 194//194
f 260//260 267//267 265//265
f 194//194 260//260 192//192
f 261//261 260//260 253//253
f 261//261 262//262 260//260
f 262//262 267//267 260//260
f 261//261 263//263 262//262
f 252//252 262//262 264//264
f 264//264 262//262 263//263
f 263//263 328//328 264//264
f 268//268 265//265 267//267
f 266//266 265//265 268//268
f 251//251 268//268 267//267
f 272//272 266//266 268//268
f 251//251 267//267 262//262
f 269//269 268//268 251//251
f 269//269 272//272 268//268
f 269//269 333//333 272//272
f 333//333 338//338 272//272
f 266//266 272//272 270//270
f 279//279 270//270 271//271
f 270//270 272//272 273//273
f 271//271 270//270 273//273
f 338//338 273//273 272//272
f 201//201 279//279 274//274
f 274//274 279//279 271//271
f 275//275 255//255 195//195
f 282//282 276//276 275//275
f 275//275 276//276 255//255
f 255//255 276//276 277//277
f 344//344 276//276 278//278
f 278//278 276//276 281//281
f 277//277 276//276 344//344
f 343//343 277//277 344//344
f 282//282 280//280 281//281
f 281//281 276//276 282//282
f 280//280 204//204 283//283
f 281//281 280//280 283//283
f 284//284 281//281 283//283
f 355//355 203//203 351//351
f 205//205 203//203 355//355
f 283//283 286//286 284//284
f 354//354 284//284 286//286
f 285//285 205//205 355//355
f 409//409 285//285 355//355
f 354//354 286//286 357//357
f 288//288 287//287 209//209
f 286//286 287//287 357//357
f 287//287 288//288 357//357
f 151//151 207//207 289//289
f 290//290 289//289 359//359
f 207//207 359//359 289//289
f 288//288 209//209 291//291
f 288//288 291//291 411//411
f 290//290 214//214 211//211
f 417//417 291//291 212//212
f 214//214 290//290 292//292
f 292//292 294//294 214//214
f 294//294 292//292 362//362
f 294//294 293//293 214//214
f 294//294 363//363 293//293
f 363//363 294//294 362//362
f 363//363 295//295 293//293
f 227//227 295//295 364//364
f 296//296 219//219 222//222
f 219//219 296//296 417//417
f 364//364 365//365 227//227
f 296//296 222//222 297//297
f 297//297 298//298 368//368
f 298//298 226//226 368//368
f 367//367 300//300 227//227
f 299//299 229//229 303//303
f 368//368 299//299 303//303
f 300//300 302//302 301//301
f 367//367 302//302 300//300
f 424//424 302//302 367//367
f 304//304 235//235 301//301
f 305//305 304//304 301//301
f 302//302 305//305 301//301
f 307//307 304//304 305//305
f 307//307 305//305 372//372
f 370//370 305//305 302//302
f 372//372 305//305 370//370
f 308//308 306//306 373//373
f 308//308 236//236 306//306
f 308//308 374//374 236//236
f 231//231 236//236 374//374
f 304//304 307//307 241//241
f 241//241 307//307 376//376
f 315//315 309//309 310//310
f 373//373 306//306 309//309
f 373//373 309//309 315//315
f 239//239 314//314 312//312
f 312//312 314//314 313//313
f 312//312 313//313 323//323
f 314//314 241//241 376//376
f 314//314 376//376 313//313
f 315//315 310//310 316//316
f 373//373 315//315 379//379
f 318//318 380//380 316//316
f 380//380 317//317 316//316
f 317//317 315//315 316//316
f 380//380 318//318 387//387
f 387//387 318//318 319//319
f 248//248 320//320 319//319
f 322//322 319//319 320//320
f 386//386 319//319 322//322
f 320//320 249//249 311//311
f 311//311 321//321 320//320
f 321//321 311//311 312//312
f 323//323 321//321 312//312
f 322//322 320//320 321//321
f 321//321 323//323 382//382
f 321//321 382//382 322//322
f 322//322 382//382 383//383
f 334//334 332//332 252//252
f 324//324 325//325 326//326
f 324//324 326//326 328//328
f 326//326 331//331 330//330
f 326//326 330//330 328//328
f 325//325 346//346 326//326
f 346//346 327//327 326//326
f 331//331 326//326 327//327
f 327//327 395//395 331//331
f 264//264 329//329 252//252
f 328//328 329//329 264//264
f 329//329 328//328 330//330
f 336//336 329//329 330//330
f 330//330 389//389 336//336
f 331//331 389//389 330//330
f 329//329 334//334 252//252
f 334//334 335//335 332//332
f 335//335 333//333 332//332
f 329//329 336//336 334//334
f 335//335 339//339 333//333
f 334//334 336//336 335//335
f 389//389 337//337 336//336
f 336//336 337//337 335//335
f 337//337 390//390 335//335
f 392//392 390//390 337//337
f 339//339 338//338 333//333
f 271//271 273//273 274//274
f 340//340 273//273 338//338
f 339//339 340//340 338//338
f 390//390 339//339 335//335
f 340//340 339//339 390//390
f 342//342 340//340 391//391
f 273//273 340//340 341//341
f 274//274 273//273 341//341
f 341//341 340//340 342//342
f 347//347 341//341 342//342
f 347//347 274//274 341//341
f 342//342 391//391 398//398
f 398//398 347//347 342//342
f 349//349 344//344 278//278
f 343//343 346//346 325//325
f 344//344 345//345 343//343
f 350//350 344//344 349//349
f 345//345 344//344 350//350
f 346//346 343//343 345//345
f 346//346 345//345 393//393
f 393//393 327//327 346//346
f 350//350 393//393 345//345
f 398//398 400//400 347//347
f 274//274 347//347 348//348
f 348//348 347//347 403//403
f 400//400 403//403 347//347
f 281//281 284//284 349//349
f 349//349 278//278 281//281
f 393//393 350//350 401//401
f 274//274 351//351 201//201
f 348//348 351//351 274//274
f 348//348 403//403 352//352
f 355//355 351//351 352//352
f 351//351 348//348 352//352
f 356//356 355//355 352//352
f 349//349 284//284 353//353
f 353//353 284//284 354//354
f 349//349 353//353 404//404
f 350//350 349//349 404//404
f 406//406 404//404 353//353
f 356//356 352//352 407//407
f 354//354 406//406 353//353
f 409//409 355//355 356//356
f 409//409 356//356 408//408
f 358//358 354//354 357//357
f 357//357 411//411 358//358
f 411//411 412//412 358//358
f 359//359 207//207 285//285
f 359//359 285//285 409//409
f 411//411 357//357 288//288
f 290//290 360//360 292//292
f 290//290 359//359 360//360
f 361//361 292//292 360//360
f 414//414 361//361 360//360
f 414//414 360//360 359//359
f 415//415 361//361 416//416
f 417//417 411//411 291//291
f 361//361 362//362 292//292
f 362//362 361//361 415//415
f 418//418 363//363 362//362
f 420//420 295//295 363//363
f 418//418 420//420 363//363
f 364//364 295//295 420//420
f 419//419 417//417 296//296
f 366//366 365//365 364//364
f 421//421 366//366 364//364
f 296//296 297//297 422//422
f 419//419 296//296 422//422
f 227//227 365//365 367//367
f 367//367 365//365 366//366
f 423//423 367//367 366//366
f 368//368 422//422 297//297
f 367//367 423//423 424//424
f 370//370 302//302 424//424
f 303//303 231//231 369//369
f 368//368 303//303 369//369
f 426//426 372//372 370//370
f 480//480 426//426 370//370
f 374//374 371//371 231//231
f 374//374 427//427 371//371
f 369//369 231//231 371//371
f 427//427 369//369 371//371
f 372//372 376//376 307//307
f 376//376 372//372 430//430
f 308//308 373//373 375//375
f 375//375 373//373 378//378
f 374//374 308//308 375//375
f 428//428 427//427 374//374
f 428//428 375//375 378//378
f 375//375 428//428 374//374
f 376//376 377//377 313//313
f 430//430 377//377 376//376
f 486//486 428//428 378//378
f 486//486 378//378 432//432
f 315//315 317//317 381//381
f 379//379 378//378 373//373
f 435//435 379//379 315//315
f 432//432 379//379 435//435
f 435//435 315//315 381//381
f 378//378 379//379 432//432
f 435//435 381//381 436//436
f 381//381 317//317 380//380
f 386//386 322//322 383//383
f 323//323 384//384 382//382
f 323//323 313//313 384//384
f 313//313 377//377 384//384
f 436//436 381//381 437//437
f 381//381 380//380 437//437
f 437//437 380//380 385//385
f 387//387 385//385 380//380
f 438//438 385//385 387//387
f 439//439 437//437 385//385
f 439//439 385//385 438//438
f 387//387 319//319 386//386
f 387//387 386//386 388//388
f 386//386 383//383 388//388
f 387//387 388//388 438//438
f 383//383 440//440 388//388
f 382//382 442//442 383//383
f 382//382 384//384 442//442
f 394//394 389//389 331//331
f 389//389 392//392 337//337
f 391//391 340//340 390//390
f 392//392 391//391 390//390
f 397//397 391//391 392//392
f 393//393 402//402 395//395
f 401//401 402//402 393//393
f 327//327 393//393 395//395
f 395//395 394//394 331//331
f 396//396 389//389 394//394
f 395//395 443//443 394//394
f 396//396 392//392 389//389
f 444//444 392//392 396//396
f 392//392 444//444 397//397
f 447//447 397//397 444//444
f 391//391 399//399 398//398
f 397//397 399//399 391//391
f 398//398 399//399 400//400
f 448//448 397//397 447//447
f 448//448 399//399 397//397
f 395//395 402//402 445//445
f 399//399 449//449 400//400
f 405//405 350//350 404//404
f 405//405 404//404 406//406
f 405//405 451//451 401//401
f 350//350 405//405 401//401
f 352//352 403//403 407//407
f 405//405 406//406 454//454
f 407//407 408//408 356//356
f 455//455 408//408 407//407
f 358//358 406//406 354//354
f 412//412 406//406 358//358
f 406//406 412//412 454//454
f 408//408 410//410 409//409
f 408//408 455//455 410//410
f 460//460 412//412 411//411
f 454//454 412//412 460//460
f 413//413 359//359 409//409
f 410//410 413//413 409//409
f 414//414 416//416 361//361
f 359//359 413//413 414//414
f 458//458 462//462 413//413
f 462//462 414//414 413//413
f 464//464 415//415 416//416
f 418//418 362//362 415//415
f 415//415 465//465 418//418
f 417//417 419//419 466//466
f 475//475 466//466 419//419
f 421//421 364//364 420//420
f 469//469 420//420 418//418
f 469//469 418//418 465//465
f 423//423 366//366 421//421
f 468//468 421//421 420//420
f 425//425 370//370 424//424
f 425//425 476//476 478//478
f 368//368 369//369 422//422
f 480//480 370//370 425//425
f 537//537 422//422 369//369
f 537//537 369//369 484//484
f 430//430 372//372 426//426
f 430//430 426//426 482//482
f 431//431 430//430 482//482
f 369//369 427//427 484//484
f 428//428 429//429 427//427
f 427//427 429//429 484//484
f 377//377 430//430 431//431
f 429//429 428//428 486//486
f 435//435 488//488 432//432
f 488//488 486//486 432//432
f 384//384 434//434 442//442
f 377//377 433//433 384//384
f 433//433 434//434 384//384
f 487//487 433//433 431//431
f 487//487 434//434 433//433
f 434//434 487//487 499//499
f 431//431 433//433 377//377
f 489//489 488//488 435//435
f 436//436 437//437 492//492
f 435//435 436//436 489//489
f 491//491 436//436 492//492
f 439//439 492//492 437//437
f 438//438 441//441 439//439
f 439//439 441//441 493//493
f 441//441 438//438 388//388
f 440//440 441//441 388//388
f 441//441 440//440 494//494
f 440//440 495//495 494//494
f 493//493 441//441 494//494
f 495//495 440//440 498//498
f 383//383 442//442 440//440
f 498//498 440//440 442//442
f 442//442 434//434 498//498
f 498//498 434//434 499//499
f 394//394 443//443 396//396
f 445//445 443//443 395//395
f 444//444 501//501 447//447
f 501//501 444//444 396//396
f 402//402 450//450 445//445
f 445//445 450//450 452//452
f 396//396 443//443 446//446
f 443//443 445//445 502//502
f 446//446 443//443 502//502
f 448//448 449//449 399//399
f 448//448 504//504 449//449
f 402//402 401//401 450//450
f 401//401 451//451 450//450
f 450//450 451//451 452//452
f 452//452 451//451 512//512
f 452//452 502//502 445//445
f 453//453 403//403 400//400
f 453//453 400//400 505//505
f 505//505 400//400 449//449
f 405//405 454//454 451//451
f 512//512 451//451 454//454
f 453//453 505//505 506//506
f 403//403 453//453 407//407
f 453//453 455//455 407//407
f 455//455 453//453 456//456
f 508//508 456//456 453//453
f 410//410 455//455 457//457
f 457//457 455//455 456//456
f 511//511 457//457 456//456
f 454//454 515//515 512//512
f 457//457 458//458 410//410
f 413//413 410//410 458//458
f 458//458 457//457 459//459
f 458//458 459//459 461//461
f 511//511 459//459 457//457
f 511//511 513//513 459//459
f 459//459 516//516 461//461
f 460//460 515//515 454//454
f 517//517 515//515 460//460
f 458//458 461//461 462//462
f 461//461 516//516 463//463
f 414//414 462//462 416//416
f 462//462 463//463 416//416
f 462//462 461//461 463//463
f 463//463 464//464 416//416
f 464//464 463//463 518//518
f 519//519 460//460 467//467
f 411//411 467//467 460//460
f 464//464 465//465 415//415
f 522//522 465//465 464//464
f 466//466 411//411 417//417
f 467//467 411//411 466//466
f 467//467 466//466 475//475
f 467//467 475//475 527//527
f 469//469 468//468 420//420
f 468//468 471//471 421//421
f 472//472 471//471 468//468
f 470//470 472//472 468//468
f 470//470 468//468 469//469
f 470//470 528//528 472//472
f 475//475 419//419 422//422
f 471//471 423//423 421//421
f 471//471 474//474 423//423
f 473//473 471//471 472//472
f 471//471 473//473 474//474
f 472//472 528//528 473//473
f 474//474 424//424 423//423
f 477//477 474//474 473//473
f 474//474 476//476 424//424
f 477//477 476//476 474//474
f 476//476 477//477 479//479
f 480//480 425//425 478//478
f 476//476 425//425 424//424
f 479//479 478//478 476//476
f 481//481 478//478 479//479
f 478//478 481//481 480//480
f 483//483 480//480 481//481
f 426//426 480//480 482//482
f 483//483 482//482 480//480
f 482//482 539//539 431//431
f 539//539 482//482 483//483
f 429//429 486//486 485//485
f 490//490 485//485 486//486
f 485//485 484//484 429//429
f 485//485 490//490 540//540
f 486//486 488//488 490//490
f 538//538 487//487 431//431
f 550//550 487//487 538//538
f 550//550 499//499 487//487
f 544//544 488//488 489//489
f 490//490 488//488 544//544
f 544//544 489//489 491//491
f 490//490 544//544 545//545
f 491//491 492//492 552//552
f 489//489 436//436 491//491
f 492//492 439//439 493//493
f 556//556 493//493 494//494
f 493//493 500//500 492//492
f 558//558 556//556 494//494
f 495//495 498//498 496//496
f 558//558 494//494 495//495
f 497//497 495//495 496//496
f 497//497 496//496 548//548
f 559//559 497//497 548//548
f 558//558 495//495 497//497
f 498//498 549//549 496//496
f 549//549 498//498 499//499
f 552//552 492//492 554//554
f 554//554 492//492 500//500
f 500//500 493//493 556//556
f 501//501 396//396 446//446
f 502//502 563//563 446//446
f 446//446 563//563 560//560
f 501//501 446//446 560//560
f 503//503 447//447 501//501
f 501//501 560//560 503//503
f 449//449 504//504 505//505
f 503//503 448//448 447//447
f 504//504 448//448 503//503
f 561//561 504//504 503//503
f 507//507 506//506 505//505
f 504//504 507//507 505//505
f 453//453 506//506 508//508
f 508//508 506//506 510//510
f 509//509 456//456 508//508
f 511//511 456//456 509//509
f 508//508 510//510 509//509
f 507//507 510//510 506//506
f 510//510 572//572 509//509
f 572//572 514//514 509//509
f 459//459 513//513 516//516
f 511//511 509//509 514//514
f 511//511 514//514 513//513
f 517//517 586//586 515//515
f 586//586 577//577 515//515
f 515//515 577//577 512//512
f 516//516 518//518 463//463
f 516//516 580//580 518//518
f 513//513 576//576 516//516
f 583//583 521//521 518//518
f 518//518 580//580 583//583
f 519//519 517//517 460//460
f 520//520 517//517 519//519
f 520//520 519//519 467//467
f 586//586 517//517 520//520
f 521//521 583//583 587//587
f 522//522 464//464 518//518
f 522//522 518//518 523//523
f 588//588 523//523 521//521
f 518//518 521//521 523//523
f 590//590 520//520 467//467
f 522//522 469//469 465//465
f 469//469 522//522 524//524
f 526//526 522//522 523//523
f 524//524 470//470 469//469
f 525//525 528//528 470//470
f 524//524 525//525 470//470
f 522//522 526//526 524//524
f 526//526 525//525 524//524
f 590//590 467//467 527//527
f 597//597 590//590 527//527
f 595//595 531//531 529//529
f 529//529 473//473 528//528
f 525//525 529//529 528//528
f 593//593 529//529 525//525
f 530//530 527//527 475//475
f 597//597 527//527 530//530
f 530//530 475//475 532//532
f 477//477 473//473 531//531
f 600//600 533//533 531//531
f 531//531 473//473 529//529
f 532//532 475//475 604//604
f 531//531 533//533 477//477
f 479//479 477//477 533//533
f 533//533 534//534 479//479
f 475//475 422//422 537//537
f 534//534 535//535 481//481
f 534//534 481//481 479//479
f 535//535 483//483 481//481
f 483//483 536//536 539//539
f 535//535 536//536 483//483
f 536//536 606//606 610//610
f 536//536 535//535 606//606
f 484//484 542//542 537//537
f 608//608 537//537 542//542
f 610//610 538//538 536//536
f 536//536 538//538 539//539
f 538//538 431//431 539//539
f 484//484 485//485 541//541
f 485//485 540//540 541//541
f 542//542 484//484 541//541
f 490//490 545//545 540//540
f 543//543 541//541 540//540
f 540//540 545//545 543//543
f 542//542 541//541 612//612
f 612//612 541//541 543//543
f 538//538 611//611 550//550
f 550//550 611//611 622//622
f 545//545 544//544 546//546
f 547//547 544//544 491//491
f 546//546 544//544 547//547
f 546//546 616//616 545//545
f 547//547 617//617 546//546
f 547//547 491//491 552//552
f 496//496 549//549 548//548
f 558//558 497//497 559//559
f 551//551 548//548 549//549
f 620//620 559//559 548//548
f 548//548 551//551 620//620
f 549//549 499//499 550//550
f 551//551 549//549 550//550
f 550//550 622//622 551//551
f 553//553 552//552 554//554
f 547//547 552//552 553//553
f 547//547 553//553 623//623
f 623//623 553//553 624//624
f 553//553 554//554 627//627
f 554//554 500//500 555//555
f 554//554 555//555 627//627
f 500//500 556//556 555//555
f 555//555 556//556 557//557
f 556//556 558//558 557//557
f 557//557 559//559 629//629
f 557//557 558//558 559//559
f 629//629 555//555 557//557
f 560//560 565//565 503//503
f 563//563 564//564 560//560
f 566//566 503//503 565//565
f 504//504 562//562 507//507
f 561//561 562//562 504//504
f 571//571 563//563 502//502
f 636//636 563//563 571//571
f 502//502 452//452 571//571
f 563//563 636//636 632//632
f 565//565 560//560 564//564
f 566//566 561//561 503//503
f 566//566 568//568 561//561
f 507//507 567//567 510//510
f 507//507 562//562 567//567
f 568//568 562//562 561//561
f 568//568 567//567 562//562
f 569//569 575//575 567//567
f 567//567 568//568 569//569
f 572//572 510//510 573//573
f 567//567 573//573 510//510
f 575//575 573//573 567//567
f 512//512 578//578 570//570
f 452//452 512//512 570//570
f 452//452 570//570 571//571
f 571//571 635//635 636//636
f 571//571 570//570 635//635
f 574//574 572//572 573//573
f 576//576 572//572 574//574
f 574//574 579//579 576//576
f 573//573 575//575 574//574
f 574//574 650//650 579//579
f 514//514 576//576 513//513
f 514//514 572//572 576//576
f 577//577 582//582 512//512
f 581//581 577//577 586//586
f 581//581 582//582 577//577
f 512//512 582//582 578//578
f 570//570 578//578 652//652
f 582//582 652//652 578//578
f 585//585 579//579 649//649
f 576//576 580//580 516//516
f 580//580 576//576 579//579
f 586//586 668//668 581//581
f 658//658 582//582 581//581
f 583//583 580//580 584//584
f 580//580 579//579 585//585
f 580//580 585//585 584//584
f 658//658 581//581 668//668
f 584//584 587//587 583//583
f 584//584 661//661 587//587
f 591//591 586//586 520//520
f 587//587 588//588 521//521
f 588//588 587//587 589//589
f 590//590 591//591 520//520
f 591//591 668//668 586//586
f 523//523 588//588 594//594
f 588//588 589//589 594//594
f 664//664 594//594 589//589
f 592//592 594//594 664//664
f 526//526 523//523 594//594
f 593//593 525//525 526//526
f 594//594 593//593 526//526
f 596//596 593//593 592//592
f 594//594 592//592 593//593
f 590//590 676//676 591//591
f 676//676 590//590 597//597
f 596//596 598//598 595//595
f 592//592 672//672 596//596
f 595//595 529//529 593//593
f 596//596 595//595 593//593
f 675//675 597//597 530//530
f 599//599 675//675 530//530
f 595//595 600//600 531//531
f 598//598 600//600 595//595
f 602//602 600//600 598//598
f 678//678 680//680 598//598
f 598//598 680//680 602//602
f 599//599 530//530 532//532
f 685//685 599//599 532//532
f 603//603 534//534 601//601
f 601//601 533//533 600//600
f 601//601 534//534 533//533
f 602//602 601//601 600//600
f 602//602 603//603 601//601
f 602//602 679//679 603//603
f 685//685 532//532 604//604
f 605//605 535//535 534//534
f 603//603 605//605 534//534
f 604//604 475//475 537//537
f 692//692 604//604 537//537
f 603//603 686//686 605//605
f 610//610 688//688 611//611
f 605//605 606//606 535//535
f 607//607 610//610 606//606
f 686//686 607//607 605//605
f 606//606 605//605 607//607
f 688//688 610//610 607//607
f 537//537 608//608 692//692
f 609//609 692//692 608//608
f 611//611 538//538 610//610
f 613//613 608//608 542//542
f 613//613 542//542 612//612
f 608//608 613//613 609//609
f 614//614 613//613 612//612
f 609//609 613//613 614//614
f 615//615 612//612 543//543
f 695//695 614//614 612//612
f 695//695 612//612 615//615
f 700//700 695//695 615//615
f 697//697 614//614 695//695
f 616//616 543//543 545//545
f 615//615 543//543 616//616
f 618//618 615//615 616//616
f 702//702 700//700 615//615
f 546//546 617//617 616//616
f 618//618 616//616 617//617
f 618//618 617//617 625//625
f 618//618 702//702 615//615
f 621//621 711//711 619//619
f 621//621 620//620 551//551
f 622//622 621//621 551//551
f 621//621 622//622 713//713
f 711//711 621//621 713//713
f 713//713 622//622 611//611
f 617//617 547//547 623//623
f 624//624 553//553 627//627
f 625//625 617//617 623//623
f 625//625 623//623 624//624
f 624//624 627//627 714//714
f 626//626 624//624 714//714
f 624//624 626//626 625//625
f 628//628 627//627 555//555
f 555//555 629//629 631//631
f 714//714 627//627 628//628
f 628//628 555//555 631//631
f 619//619 718//718 631//631
f 631//631 718//718 628//628
f 628//628 717//717 714//714
f 630//630 629//629 559//559
f 620//620 630//630 559//559
f 631//631 629//629 630//630
f 621//621 630//630 620//620
f 619//619 630//630 621//621
f 631//631 630//630 619//619
f 564//564 563//563 632//632
f 564//564 632//632 638//638
f 565//565 564//564 633//633
f 638//638 633//633 564//564
f 640//640 633//633 638//638
f 565//565 633//633 566//566
f 634//634 568//568 566//566
f 568//568 634//634 569//569
f 634//634 566//566 633//633
f 636//636 635//635 643//643
f 637//637 632//632 636//636
f 638//638 632//632 637//637
f 636//636 643//643 644//644
f 636//636 644//644 637//637
f 646//646 638//638 637//637
f 640//640 638//638 646//646
f 640//640 639//639 633//633
f 633//633 639//639 634//634
f 634//634 641//641 569//569
f 641//641 634//634 639//639
f 647//647 641//641 639//639
f 640//640 647//647 639//639
f 575//575 569//569 641//641
f 650//650 575//575 641//641
f 574//574 575//575 650//650
f 647//647 648//648 641//641
f 641//641 648//648 651//651
f 641//641 651//651 650//650
f 570//570 652//652 635//635
f 652//652 642//642 635//635
f 635//635 642//642 643//643
f 643//643 642//642 653//653
f 643//643 653//653 644//644
f 644//644 653//653 645//645
f 645//645 653//653 723//723
f 637//637 644//644 645//645
f 646//646 721//721 640//640
f 637//637 645//645 646//646
f 720//720 646//646 645//645
f 646//646 720//720 721//721
f 722//722 648//648 647//647
f 647//647 640//640 721//721
f 721//721 722//722 647//647
f 648//648 656//656 651//651
f 649//649 579//579 650//650
f 656//656 655//655 649//649
f 651//651 649//649 650//650
f 649//649 651//651 656//656
f 652//652 582//582 658//658
f 652//652 658//658 732//732
f 642//642 652//652 732//732
f 642//642 732//732 653//653
f 648//648 654//654 656//656
f 657//657 656//656 654//654
f 722//722 654//654 648//648
f 655//655 585//585 649//649
f 657//657 655//655 656//656
f 657//657 654//654 660//660
f 585//585 655//655 661//661
f 657//657 659//659 655//655
f 661//661 655//655 659//659
f 657//657 660//660 659//659
f 584//584 585//585 661//661
f 658//658 668//668 662//662
f 732//732 658//658 662//662
f 731//731 666//666 661//661
f 661//661 659//659 731//731
f 731//731 659//659 660//660
f 731//731 736//736 666//666
f 661//661 589//589 587//587
f 665//665 589//589 661//661
f 668//668 663//663 662//662
f 663//663 732//732 662//662
f 667//667 666//666 736//736
f 589//589 665//665 664//664
f 667//667 664//664 665//665
f 670//670 664//664 667//667
f 664//664 670//670 669//669
f 661//661 666//666 665//665
f 667//667 665//665 666//666
f 671//671 668//668 591//591
f 668//668 671//671 663//663
f 740//740 663//663 671//671
f 669//669 592//592 664//664
f 592//592 669//669 672//672
f 669//669 674//674 672//672
f 670//670 667//667 736//736
f 669//669 670//670 674//674
f 591//591 676//676 743//743
f 591//591 743//743 671//671
f 742//742 673//673 674//674
f 596//596 672//672 673//673
f 673//673 672//672 674//674
f 596//596 673//673 678//678
f 673//673 677//677 678//678
f 675//675 676//676 597//597
f 748//748 743//743 676//676
f 680//680 678//678 682//682
f 677//677 682//682 678//678
f 596//596 678//678 598//598
f 675//675 599//599 751//751
f 751//751 676//676 675//675
f 751//751 599//599 683//683
f 748//748 676//676 751//751
f 680//680 679//679 602//602
f 680//680 681//681 679//679
f 681//681 682//682 750//750
f 682//682 681//681 680//680
f 750//750 755//755 681//681
f 685//685 683//683 599//599
f 755//755 687//687 684//684
f 684//684 687//687 686//686
f 684//684 603//603 679//679
f 684//684 686//686 603//603
f 684//684 679//679 681//681
f 755//755 684//684 681//681
f 693//693 604//604 692//692
f 685//685 604//604 693//693
f 687//687 690//690 691//691
f 686//686 691//691 607//607
f 687//687 691//691 686//686
f 760//760 685//685 693//693
f 691//691 688//688 607//607
f 691//691 689//689 688//688
f 689//689 611//611 688//688
f 690//690 689//689 691//691
f 775//775 689//689 690//690
f 614//614 696//696 609//609
f 692//692 609//609 696//696
f 693//693 692//692 696//696
f 696//696 759//759 693//693
f 697//697 694//694 696//696
f 698//698 697//697 695//695
f 696//696 614//614 697//697
f 698//698 695//695 700//700
f 712//712 699//699 773//773
f 775//775 773//773 699//699
f 689//689 713//713 611//611
f 689//689 699//699 713//713
f 775//775 699//699 689//689
f 701//701 698//698 700//700
f 702//702 701//701 700//700
f 618//618 625//625 705//705
f 705//705 703//703 618//618
f 703//703 702//702 618//618
f 704//704 702//702 703//703
f 776//776 704//704 703//703
f 701//701 702//702 704//704
f 707//707 776//776 703//703
f 703//703 705//705 706//706
f 706//706 705//705 715//715
f 707//707 703//703 706//706
f 707//707 706//706 779//779
f 716//716 779//779 706//706
f 709//709 779//779 716//716
f 719//719 710//710 708//708
f 785//785 719//719 708//708
f 709//709 719//719 785//785
f 711//711 712//712 710//710
f 711//711 710//710 619//619
f 699//699 712//712 713//713
f 712//712 711//711 713//713
f 625//625 626//626 705//705
f 714//714 717//717 716//716
f 705//705 626//626 715//715
f 714//714 715//715 626//626
f 715//715 714//714 716//716
f 716//716 706//706 715//715
f 709//709 716//716 719//719
f 717//717 628//628 718//718
f 718//718 619//619 710//710
f 716//716 717//717 719//719
f 717//717 718//718 719//719
f 719//719 718//718 710//710
f 645//645 723//723 720//720
f 721//721 720//720 724//724
f 720//720 723//723 724//724
f 725//725 722//722 721//721
f 721//721 724//724 725//725
f 653//653 727//727 723//723
f 724//724 728//728 725//725
f 724//724 723//723 728//728
f 727//727 728//728 723//723
f 725//725 726//726 722//722
f 722//722 726//726 654//654
f 726//726 725//725 729//729
f 728//728 729//729 725//725
f 654//654 726//726 660//660
f 653//653 732//732 727//727
f 730//730 726//726 729//729
f 730//730 729//729 728//728
f 728//728 787//787 730//730
f 733//733 660//660 726//726
f 733//733 726//726 730//730
f 733//733 731//731 660//660
f 740//740 732//732 663//663
f 727//727 732//732 740//740
f 787//787 735//735 730//730
f 731//731 733//733 734//734
f 735//735 733//733 730//730
f 734//734 733//733 735//735
f 731//731 738//738 736//736
f 731//731 734//734 738//738
f 734//734 739//739 738//738
f 739//739 741//741 737//737
f 788//788 734//734 735//735
f 734//734 788//788 739//739
f 736//736 737//737 670//670
f 738//738 739//739 736//736
f 736//736 739//739 737//737
f 743//743 745//745 671//671
f 671//671 745//745 740//740
f 740//740 794//794 789//789
f 793//793 741//741 739//739
f 799//799 741//741 793//793
f 677//677 673//673 742//742
f 670//670 737//737 674//674
f 742//742 747//747 677//677
f 674//674 737//737 742//742
f 741//741 747//747 742//742
f 741//741 742//742 737//737
f 744//744 743//743 748//748
f 744//744 745//745 743//743
f 746//746 741//741 799//799
f 747//747 741//741 746//746
f 746//746 749//749 747//747
f 747//747 682//682 677//677
f 750//750 682//682 747//747
f 751//751 753//753 748//748
f 748//748 800//800 744//744
f 753//753 800//800 748//748
f 750//750 747//747 749//749
f 755//755 750//750 749//749
f 749//749 754//754 755//755
f 752//752 753//753 751//751
f 683//683 752//752 751//751
f 812//812 753//753 752//752
f 754//754 758//758 757//757
f 755//755 757//757 687//687
f 757//757 755//755 754//754
f 752//752 683//683 756//756
f 756//756 683//683 685//685
f 756//756 812//812 752//752
f 690//690 687//687 757//757
f 757//757 758//758 690//690
f 775//775 690//690 758//758
f 756//756 685//685 760//760
f 761//761 816//816 756//756
f 816//816 812//812 756//756
f 827//827 775//775 758//758
f 760//760 693//693 759//759
f 696//696 694//694 759//759
f 756//756 760//760 761//761
f 761//761 760//760 759//759
f 759//759 694//694 762//762
f 762//762 694//694 767//767
f 759//759 762//762 761//761
f 762//762 763//763 761//761
f 762//762 767//767 763//763
f 761//761 763//763 828//828
f 763//763 767//767 764//764
f 761//761 828//828 816//816
f 764//764 828//828 763//763
f 827//827 839//839 775//775
f 697//697 765//765 694//694
f 698//698 765//765 697//697
f 698//698 766//766 765//765
f 701//701 766//766 698//698
f 767//767 694//694 765//765
f 777//777 766//766 701//701
f 769//769 768//768 766//766
f 766//766 768//768 765//765
f 769//769 766//766 777//777
f 765//765 768//768 767//767
f 767//767 768//768 764//764
f 769//769 777//777 778//778
f 769//769 778//778 771//771
f 769//769 771//771 770//770
f 768//768 770//770 764//764
f 770//770 768//768 769//769
f 770//770 771//771 841//841
f 764//764 770//770 841//841
f 841//841 771//771 842//842
f 771//771 843//843 842//842
f 771//771 784//784 843//843
f 783//783 784//784 771//771
f 772//772 712//712 774//774
f 772//772 774//774 847//847
f 785//785 772//772 845//845
f 708//708 772//772 785//785
f 772//772 847//847 845//845
f 774//774 773//773 775//775
f 773//773 774//774 712//712
f 701//701 704//704 777//777
f 704//704 776//776 777//777
f 707//707 778//778 776//776
f 707//707 780//780 778//778
f 778//778 777//777 776//776
f 780//780 783//783 778//778
f 771//771 778//778 783//783
f 779//779 709//709 781//781
f 780//780 707//707 779//779
f 782//782 780//780 779//779
f 709//709 785//785 781//781
f 781//781 782//782 779//779
f 783//783 780//780 782//782
f 786//786 782//782 781//781
f 785//785 786//786 781//781
f 783//783 782//782 784//784
f 782//782 786//786 784//784
f 845//845 786//786 785//785
f 708//708 710//710 712//712
f 712//712 772//772 708//708
f 740//740 789//789 727//727
f 727//727 790//790 728//728
f 788//788 735//735 787//787
f 787//787 792//792 788//788
f 740//740 745//745 794//794
f 727//727 789//789 790//790
f 792//792 791//791 788//788
f 791//791 799//799 793//793
f 792//792 798//798 791//791
f 791//791 798//798 799//799
f 793//793 739//739 788//788
f 788//788 791//791 793//793
f 745//745 807//807 794//794
f 794//794 795//795 789//789
f 794//794 801//801 795//795
f 790//790 787//787 728//728
f 790//790 789//789 795//795
f 787//787 790//790 796//796
f 790//790 795//795 796//796
f 792//792 787//787 810//810
f 792//792 810//810 798//798
f 810//810 803//803 798//798
f 799//799 797//797 746//746
f 746//746 797//797 749//749
f 804//804 797//797 798//798
f 799//799 798//798 797//797
f 800//800 753//753 805//805
f 800//800 745//745 744//744
f 800//800 805//805 807//807
f 745//745 800//800 807//807
f 807//807 801//801 794//794
f 795//795 801//801 802//802
f 795//795 802//802 796//796
f 803//803 811//811 804//804
f 810//810 811//811 803//803
f 754//754 749//749 804//804
f 804//804 749//749 797//797
f 804//804 798//798 803//803
f 812//812 805//805 753//753
f 807//807 805//805 806//806
f 801//801 807//807 808//808
f 801//801 808//808 809//809
f 807//807 806//806 808//808
f 808//808 806//806 814//814
f 808//808 851//851 809//809
f 809//809 851//851 849//849
f 851//851 808//808 814//814
f 801//801 809//809 802//802
f 810//810 815//815 811//811
f 811//811 758//758 754//754
f 811//811 754//754 804//804
f 813//813 805//805 812//812
f 806//806 805//805 813//813
f 806//806 813//813 814//814
f 814//814 813//813 818//818
f 852//852 851//851 821//821
f 853//853 824//824 810//810
f 815//815 810//810 824//824
f 827//827 758//758 811//811
f 828//828 817//817 816//816
f 813//813 812//812 817//817
f 813//813 817//817 818//818
f 812//812 816//816 817//817
f 828//828 829//829 830//830
f 817//817 828//828 830//830
f 817//817 830//830 818//818
f 830//830 831//831 819//819
f 820//820 818//818 819//819
f 830//830 819//819 818//818
f 819//819 831//831 833//833
f 820//820 814//814 818//818
f 814//814 820//820 851//851
f 851//851 820//820 821//821
f 820//820 819//819 821//821
f 821//821 834//834 822//822
f 819//819 833//833 821//821
f 821//821 833//833 834//834
f 834//834 836//836 822//822
f 824//824 822//822 823//823
f 822//822 836//836 823//823
f 826//826 823//823 840//840
f 824//824 826//826 815//815
f 824//824 823//823 826//826
f 825//825 826//826 840//840
f 826//826 825//825 815//815
f 825//825 811//811 815//815
f 839//839 827//827 825//825
f 825//825 827//827 811//811
f 829//829 828//828 764//764
f 829//829 831//831 830//830
f 834//834 832//832 844//844
f 834//834 844//844 835//835
f 833//833 831//831 832//832
f 832//832 831//831 842//842
f 834//834 833//833 832//832
f 835//835 838//838 836//836
f 848//848 838//838 835//835
f 836//836 834//834 835//835
f 837//837 774//774 839//839
f 840//840 837//837 839//839
f 837//837 838//838 848//848
f 837//837 840//840 838//838
f 823//823 836//836 838//838
f 838//838 840//840 823//823
f 839//839 774//774 775//775
f 839//839 825//825 840//840
f 829//829 764//764 841//841
f 841//841 842//842 829//829
f 829//829 842//842 831//831
f 842//842 843//843 844//844
f 784//784 844//844 843//843
f 832//832 842//842 844//844
f 786//786 845//845 846//846
f 786//786 846//846 784//784
f 845//845 835//835 846//846
f 846//846 844//844 784//784
f 835//835 845//845 848//848
f 844//844 846//846 835//835
f 847//847 774//774 837//837
f 847//847 848//848 845//845
f 848//848 847//847 837//837
f 796//796 850//850 810//810
f 787//787 796//796 810//810
f 809//809 849//849 802//802
f 802//802 849//849 850//850
f 850//850 849//849 852//852
f 849//849 851//851 852//852
f 796//796 802//802 850//850
f 850//850 853//853 810//810
f 852//852 821//821 853//853
f 821//821 822//822 853//853
f 850//850 852//852 853//853
f 853//853 822//822 824//824
