# Wavafront OBJ file of BodyParts3D
# BodyParts3D, Copyright(C) 2010-2011 The Database Center for Life Science licensed under CC Attribution-Share Alike 2.1 Japan.
vn -0.940031 0.090695 -0.328811
v 95.1487 -206.014 1.49536
vn -0.622115 0.261883 -0.737828
v 95.7239 -205.438 0.783094
vn -0.964372 0.208298 0.16309
v 95.0803 -205.839 2.47239
vn -0.863894 0.503629 0.006652
v 95.2231 -205.501 2.08919
vn -0.627112 0.685162 0.370519
v 95.3158 -205.52 2.59517
vn -0.686645 -0.397145 -0.608928
v 96.0019 -207.719 0.56997
vn -0.913394 -0.40231 -0.0621166
v 95.2905 -207.365 1.89383
vn -0.664333 0.57413 0.478577
v 95.3505 -206.061 3.28227
vn -0.796773 0.5373 -0.276517
v 95.5045 -205.146 1.34713
vn -0.581996 0.803811 0.123165
v 95.6629 -204.948 1.76643
vn -0.430144 0.808276 -0.402077
v 96.1835 -204.668 1.02389
vn -0.487312 -0.483705 -0.727019
v 97.6373 -208.768 0.386015
vn -0.696933 -0.705518 -0.128565
v 96.0363 -208.093 1.25822
vn -0.708386 -0.655547 -0.261623
v 97.3112 -209.198 1.22661
vn -0.301894 -0.122194 -0.945478
v 97.2104 -207.013 -0.204777
vn -0.718907 -0.684894 0.118713
v 95.5334 -207.534 2.69017
vn -0.902075 -0.205143 0.379707
v 95.7084 -207.067 4.80434
vn -0.757351 -0.645807 0.0967092
v 96.1182 -207.949 3.32226
vn -0.40582 0.806254 0.430424
v 96.0725 -206.368 4.65898
vn -0.621028 0.633839 0.461056
v 96.1963 -206.71 5.55365
vn -0.646508 -0.533146 0.545694
v 96.3316 -207.387 5.45679
vn -0.334883 0.33516 -0.880637
v 99.6705 -204.583 -0.320309
vn -0.316935 0.425546 -0.847622
v 98.0252 -205.064 -0.060046
vn -0.346975 0.722596 -0.597883
v 98.9208 -204.412 0.065558
vn -0.307743 0.921305 -0.23768
v 99.2693 -203.972 0.583827
vn -0.378568 0.619934 -0.68729
v 99.9069 -204.057 -0.101871
vn -0.213128 0.923773 0.318152
v 97.0131 -204.556 2.12203
vn -0.351099 0.678763 -0.644989
v 101.025 -203.698 -0.538482
vn -0.36045 0.874337 -0.324979
v 99.9145 -203.798 0.240918
vn -0.979539 -0.0344179 -0.198288
v 98.702 -214.151 1.56026
vn -0.893807 0.0317927 -0.447324
v 98.9495 -213.819 1.01561
vn -0.676565 -0.311375 -0.667312
v 98.2453 -210.412 1.02013
vn -0.916722 -0.392899 0.072469
v 97.8335 -210.475 2.15678
vn -0.692819 -0.613628 0.378765
v 97.6014 -209.546 4.06677
vn -0.671274 -0.330503 0.663445
v 96.5851 -206.913 6.03476
vn -0.422484 -0.0272993 0.905959
v 97.3873 -206.934 6.54942
vn -0.458919 -0.524441 0.717185
v 97.5723 -207.598 6.36489
vn -0.0679395 0.275328 -0.958947
v 101.9 -204.509 -1.13768
vn -0.168568 -0.0266724 -0.985329
v 101.56 -206.587 -1.40177
vn 0.232784 0.119877 -0.965112
v 102.593 -205.95 -1.44015
vn -0.382799 0.759677 0.525695
v 97.6535 -206.361 6.47676
vn -0.239608 0.263217 0.934508
v 98.1351 -206.569 6.77096
vn -0.262887 0.393178 -0.88108
v 101.22 -204.029 -0.82562
vn -0.0512787 0.731963 -0.679412
v 101.64 -203.565 -0.584054
vn -0.157823 0.961828 -0.223558
v 101.552 -203.384 -0.267192
vn 0.0106933 0.51723 -0.85578
v 102.008 -203.945 -0.904632
vn 0.196278 0.927835 -0.317171
v 102.253 -203.389 -0.245945
vn 0.0273376 0.989211 0.143922
v 102.128 -203.356 0.027195
vn 0.26058 0.378999 -0.887952
v 102.65 -204.145 -0.920313
vn 0.303734 0.658936 -0.688149
v 102.671 -203.863 -0.73908
vn 0.605432 0.370995 -0.704141
v 103.18 -204.346 -0.714731
vn 0.627171 0.713057 -0.313379
v 103.137 -203.716 -0.134077
vn 0.459099 0.885524 0.0712458
v 102.914 -203.562 0.427089
vn -0.945961 -0.293263 -0.138398
v 98.8124 -219.172 0.902844
vn -0.729002 -0.492322 -0.475579
v 98.9843 -219.345 0.652415
vn -0.698081 -0.454071 -0.553626
v 98.8731 -219.514 0.931108
vn -0.536667 -0.570687 -0.621534
v 99.6383 -218.992 -0.35826
vn -0.913836 -0.361802 0.184399
v 98.9639 -219.693 1.82605
vn -0.5946 -0.133482 -0.792864
v 99.0213 -217.377 -0.68407
vn -0.494579 -0.338381 -0.800556
v 99.5052 -218.141 -0.832605
vn 0.0478666 -0.205938 -0.977394
v 101.218 -217.409 -0.815345
vn -0.992047 0.00601622 -0.125724
v 98.5046 -217.288 -0.249766
vn -0.98878 0.13404 -0.0659306
v 98.4762 -216.492 0.752636
vn -0.775713 -0.357395 -0.520133
v 98.594 -218.278 -0.212013
vn -0.476731 0.435713 -0.763466
v 99.2581 -216.578 -0.196252
vn -0.995274 -0.0317253 0.0917729
v 98.3008 -217.493 1.34843
vn -0.647886 -0.084271 0.757062
v 99.13 -217.723 3.05293
vn -0.187683 0.190852 -0.963509
v 101.441 -216.843 -0.807733
vn -0.661677 0.499408 -0.559263
v 98.7527 -216.228 0.55906
vn -0.882026 0.251812 -0.398272
v 98.6065 -215.647 1.16274
vn -0.933763 -0.0589178 0.353009
v 98.8769 -214.673 2.43755
vn -0.824716 0.0473766 0.563559
v 98.7797 -215.904 2.3623
vn -0.621321 -0.0203111 0.783293
v 99.2788 -215.824 2.84931
vn -0.45731 -0.421028 0.783328
v 99.8246 -213.004 3.99786
vn -0.0330069 -0.135074 -0.990286
v 102.729 -212.219 -0.41065
vn 0.0645415 -0.400377 -0.914075
v 102.91 -208.007 -0.958075
vn 0.0652365 -0.255799 -0.964526
v 102.813 -208.707 -0.615682
vn 0.64581 -0.18349 -0.741122
v 103.474 -208.625 -0.445955
vn 0.587924 -0.0128321 -0.808815
v 103.544 -209.958 -0.226373
vn 0.974358 -0.0182171 -0.224266
v 103.808 -208.572 0.506279
vn 0.927011 0.106029 -0.359734
v 103.819 -209.777 0.078525
vn -0.39548 -0.557141 0.730198
v 98.7398 -208.842 5.89838
vn -0.230512 -0.279957 0.931927
v 99.0825 -207.536 6.95743
vn 0.00909226 -0.448335 0.893819
v 100.656 -208.035 6.98293
vn 0.655919 0.115493 -0.745943
v 103.349 -206.24 -1.13315
vn 0.400943 -0.185668 -0.897091
v 103.33 -207.188 -1.13988
vn 0.895626 -0.0497176 -0.44202
v 103.624 -207.007 -0.873061
vn -0.0876286 0.661082 0.745179
v 99.9343 -205.816 6.63502
vn -0.0847774 0.208991 0.974236
v 99.9703 -206.888 7.12641
vn 0.0519013 -0.06829 0.996315
v 100.405 -207.356 7.19981
vn 0.177375 0.257033 0.949985
v 100.775 -206.751 7.05674
vn 0.180272 0.576385 0.797046
v 101.516 -205.668 6.45136
vn 0.897386 0.268511 -0.350143
v 103.759 -204.651 0.015292
vn 0.761937 0.646102 0.0447605
v 103.802 -204.349 0.873685
vn 0.967803 0.179648 -0.176306
v 104.091 -205.038 1.68976
vn 0.84678 0.531931 -0.00355179
v 103.943 -204.682 1.74014
vn -0.0139414 0.850161 0.526339
v 103.153 -204.215 1.5541
vn -0.10568 0.968887 0.223809
v 103.764 -204.546 2.20034
vn 0.932458 0.359983 0.0305665
v 104.393 -205.272 2.51576
vn -0.0145769 0.942457 0.334011
v 102.178 -205.095 5.59689
vn 0.413166 0.642863 0.644997
v 102.752 -205.289 5.72009
vn 0.480622 0.812487 0.329951
v 103.419 -205.004 4.63108
vn -0.586462 -0.567692 -0.577744
v 99.3941 -220.316 1.19072
vn 0.215647 -0.740823 -0.636143
v 100.363 -219.394 0.008522
vn 0.405283 -0.900793 -0.155939
v 100.918 -220.128 2.64418
vn -0.793015 -0.606464 0.057695
v 99.5305 -220.392 2.27028
vn 0.00131375 -0.852458 0.522794
v 101.123 -219.936 3.01066
vn 0.0548428 -0.0512065 0.997181
v 100.504 -218.239 3.45805
vn -0.465085 -0.220993 0.857239
v 100.385 -219.738 3.21439
vn -0.0773308 -0.192716 -0.978203
v 102.119 -217.042 -0.894385
vn -0.289786 0.134378 -0.947611
v 103.255 -215.759 -1.18049
vn -0.180997 0.0867887 0.979647
v 100.083 -216.793 3.31549
vn -0.0631606 -0.130139 0.989482
v 100.734 -216.044 3.32741
vn 0.133209 -0.0302509 0.990626
v 100.84 -216.709 3.29735
vn -0.275016 0.369096 -0.887769
v 103.946 -214.412 -1.01132
vn 0.179153 0.648378 -0.739939
v 104.774 -214.046 -0.946874
vn 0.0153737 0.207507 -0.978113
v 105.128 -214.989 -1.68419
vn -0.288132 0.17677 -0.941134
v 103.766 -213.466 -0.61479
vn 0.541571 0.611964 -0.576369
v 105.004 -213.505 -0.269782
vn 0.845996 0.478827 -0.234555
v 105.129 -213.145 0.470823
vn 0.357985 0.118257 -0.926208
v 103.612 -211.572 -0.225596
vn 0.592594 0.133422 -0.794374
v 104.054 -210.827 0.195456
vn 0.387422 0.270165 -0.881428
v 104.345 -212.033 0.07903
vn 0.888708 0.37836 -0.258924
v 104.518 -211.953 0.50492
vn 0.95938 0.26631 0.0931088
v 104.579 -211.652 2.2226
vn 0.803699 -0.0197661 0.594708
v 104.06 -211.672 3.30532
vn 0.970698 -0.0298752 0.238439
v 104.061 -208.809 3.32859
vn 0.380504 -0.323232 0.866451
v 102.299 -210.466 5.11031
vn 0.6843 -0.263016 0.680114
v 102.844 -209.673 5.05796
vn 0.495611 0.204892 0.844031
v 102.726 -206.672 6.3694
vn 0.739581 -0.125131 0.661334
v 103.006 -207.045 6.17242
vn 0.398929 -0.197537 0.895452
v 101.674 -207.693 6.83457
vn 0.81425 0.30013 0.49691
v 103.731 -205.461 4.87096
vn 0.287852 -0.0835578 0.954023
v 102.397 -218.697 2.73674
vn 0.427332 -0.894708 -0.129941
v 102.594 -219.126 2.16001
vn 0.244073 -0.402541 0.882264
v 103.032 -218.252 2.68833
vn 0.180951 -0.415837 -0.891255
v 105.521 -216.14 -1.25573
vn 0.375799 -0.66008 -0.650437
v 106.462 -217.598 -0.034624
vn 0.664172 -0.303983 -0.682986
v 106.629 -217.314 -0.14145
vn 0.929714 -0.0309877 -0.366977
v 106.794 -216.749 -0.02112
vn 0.986067 0.119522 -0.115701
v 106.849 -216.504 0.311513
vn 0.436802 -0.839512 0.323147
v 105.322 -218.198 1.87599
vn 0.556014 -0.219821 0.801578
v 105.702 -217.135 2.41563
vn 0.206553 -0.101572 0.973149
v 104.2 -216.756 2.9752
vn 0.313078 -0.532002 0.786738
v 104.832 -218.116 2.30049
vn 0.527453 0.725181 -0.442613
v 105.56 -214.067 -0.400909
vn 0.535653 0.635483 -0.556091
v 106.012 -214.727 -1.10879
vn 0.628911 0.0150377 -0.777332
v 106.206 -215.391 -1.3106
vn 0.857216 0.455966 -0.239323
v 106.232 -214.935 -1.00168
vn 0.916417 0.0235046 -0.399535
v 106.654 -215.979 -0.544721
vn 0.978693 0.171814 -0.112429
v 106.803 -216.11 -0.045858
vn 0.726205 0.649351 -0.225766
v 105.467 -213.838 -0.036198
vn 0.916739 0.397011 0.044409
v 106.636 -215.521 0.547447
vn 0.774789 0.224948 0.590847
v 106.03 -215.3 1.92403
vn 0.950198 0.231862 0.20824
v 106.723 -215.93 0.925183
vn 0.243929 -0.0668372 0.967487
v 103.851 -215.349 2.83224
vn 0.650389 0.127388 0.748843
v 105.023 -214.057 2.43043
vn 0.878645 0.444052 0.175501
v 105.28 -213.353 1.55637
vn 0.768478 -0.47005 -0.43416
v 106.815 -217.416 0.115807
vn 0.900934 -0.0325233 -0.432735
v 106.902 -217.133 0.167623
vn 0.989538 -0.0486182 -0.135835
v 106.963 -217.186 0.364078
vn 0.463696 -0.859923 -0.213348
v 106.469 -217.867 0.443116
vn 0.586688 -0.790589 0.175402
v 106.615 -217.796 0.855068
vn 0.872906 -0.483816 0.0628982
v 106.903 -217.536 0.667484
vn 0.704183 -0.51186 0.492062
v 106.661 -217.553 1.21783
vn 0.983049 -0.0375063 0.179465
v 106.964 -217.243 0.701142
vn 0.860088 -0.0972631 0.500787
v 106.746 -217.269 1.26348
vn -0.79814 -0.139401 0.586122
v 96.1963 -206.71 5.55365
vn -0.32678 0.146218 -0.933721
v 98.9495 -213.819 1.01561
vn -0.526172 0.431047 0.733036
v 96.5851 -206.913 6.03476
vn -0.00678231 0.872532 0.488509
v 102.914 -203.562 0.427089
vn -0.929696 -0.367752 0.0205972
v 98.8731 -219.514 0.931108
vn 0.0529866 -0.619476 -0.783225
v 99.6383 -218.992 -0.35826
vn -0.250676 0.433586 -0.865543
v 99.0213 -217.377 -0.68407
vn 0.081733 -0.19703 -0.976985
v 99.5052 -218.141 -0.832605
vn -0.593874 0.557019 -0.580554
v 98.5046 -217.288 -0.249766
vn -0.649804 -0.0874836 -0.75505
v 98.5046 -217.288 -0.249766
vn -0.757683 0.439377 -0.482559
v 98.4762 -216.492 0.752636
vn 0.438629 0.863808 0.247873
v 103.153 -204.215 1.5541
vn 0.346165 0.92653 0.147351
v 103.764 -204.546 2.20034
vn 0.731678 0.666322 0.143745
v 103.764 -204.546 2.20034
vn -0.815029 -0.579197 0.0160504
v 99.3941 -220.316 1.19072
vn -0.0846293 -0.750765 -0.655126
v 99.3941 -220.316 1.19072
vn 0.316861 -0.924398 -0.21234
v 99.3941 -220.316 1.19072
vn 0.0517794 -0.895986 0.441054
v 100.918 -220.128 2.64418
vn 0.210774 -0.972929 -0.0947789
v 99.5305 -220.392 2.27028
vn 0.00131375 -0.852458 0.522794
v 99.5305 -220.392 2.27028
vn -0.692332 -0.296729 0.657745
v 99.5305 -220.392 2.27028
vn 0.272646 -0.151001 0.950191
v 101.123 -219.936 3.01066
vn 0.537343 -0.832315 0.136066
v 101.123 -219.936 3.01066
vn 0.623769 -0.510633 0.591748
v 101.123 -219.936 3.01066
vn -0.0491665 -0.799448 0.59872
v 100.385 -219.738 3.21439
vn 0.218413 -0.173484 0.960312
v 100.385 -219.738 3.21439
vn 0.309817 0.351224 -0.883547
v 103.766 -213.466 -0.61479
vn 0.935552 0.271576 -0.225806
v 104.054 -210.827 0.195456
vn 0.838797 0.377738 -0.392088
v 104.345 -212.033 0.07903
vn 0.554431 -0.566541 0.609621
v 102.397 -218.697 2.73674
vn 0.419256 -0.638667 0.645236
v 102.594 -219.126 2.16001
f 6//6 7//7 1//1
f 6//6 1//1 2//2
f 1//1 9//9 2//2
f 1//1 4//4 9//9
f 2//2 9//9 11//11
f 7//7 3//3 1//1
f 17//17 8//8 3//3
f 7//7 17//17 3//3
f 1//1 3//3 4//4
f 3//3 5//5 4//4
f 3//3 8//8 5//5
f 4//4 10//10 9//9
f 4//4 5//5 10//10
f 8//8 27//27 5//5
f 2//2 11//11 23//23
f 2//2 23//23 15//15
f 24//24 23//23 11//11
f 9//9 10//10 11//11
f 11//11 10//10 27//27
f 5//5 27//27 10//10
f 6//6 15//15 12//12
f 12//12 32//32 14//14
f 14//14 6//6 12//12
f 32//32 12//12 75//75
f 14//14 32//32 33//33
f 13//13 7//7 6//6
f 14//14 13//13 6//6
f 14//14 16//16 13//13
f 33//33 18//18 14//14
f 34//34 18//18 33//33
f 6//6 2//2 15//15
f 7//7 16//16 17//17
f 16//16 7//7 13//13
f 18//18 16//16 14//14
f 8//8 19//19 27//27
f 18//18 17//17 16//16
f 19//19 8//8 17//17
f 19//19 17//17 20//20
f 34//34 17//17 18//18
f 17//17 34//34 21//21
f 168//168 17//17 35//35
f 21//21 37//37 35//35
f 17//17 21//21 35//35
f 20//20 41//41 19//19
f 41//41 20//20 170//170
f 26//26 22//22 23//23
f 22//22 39//39 15//15
f 26//26 28//28 22//22
f 28//28 43//43 22//22
f 25//25 11//11 27//27
f 15//15 23//23 22//22
f 24//24 26//26 23//23
f 29//29 26//26 24//24
f 25//25 24//24 11//11
f 25//25 29//29 24//24
f 25//25 27//27 29//29
f 29//29 28//28 26//26
f 31//31 30//30 32//32
f 32//32 118//118 169//169
f 31//31 70//70 30//30
f 30//30 33//33 32//32
f 118//118 32//32 75//75
f 33//33 74//74 34//34
f 34//34 74//74 82//82
f 76//76 15//15 39//39
f 86//86 39//39 40//40
f 86//86 76//76 39//39
f 15//15 75//75 12//12
f 21//21 34//34 37//37
f 37//37 36//36 35//35
f 36//36 41//41 170//170
f 82//82 37//37 34//34
f 82//82 83//83 37//37
f 37//37 83//83 36//36
f 82//82 84//84 83//83
f 85//85 86//86 40//40
f 39//39 43//43 38//38
f 22//22 43//43 39//39
f 39//39 38//38 40//40
f 27//27 19//19 97//97
f 42//42 41//41 36//36
f 83//83 42//42 36//36
f 88//88 41//41 42//42
f 100//100 41//41 88//88
f 46//46 43//43 44//44
f 46//46 38//38 43//43
f 43//43 28//28 44//44
f 44//44 28//28 45//45
f 47//47 44//44 45//45
f 28//28 29//29 45//45
f 45//45 29//29 27//27
f 47//47 45//45 48//48
f 45//45 27//27 48//48
f 40//40 38//38 49//49
f 49//49 38//38 46//46
f 46//46 50//50 49//49
f 46//46 44//44 50//50
f 47//47 50//50 44//44
f 53//53 47//47 48//48
f 40//40 51//51 85//85
f 40//40 49//49 51//51
f 51//51 49//49 50//50
f 171//171 48//48 27//27
f 52//52 51//51 50//50
f 47//47 52//52 50//50
f 52//52 47//47 53//53
f 171//171 27//27 97//97
f 52//52 93//93 51//51
f 93//93 52//52 94//94
f 52//52 53//53 94//94
f 94//94 53//53 179//179
f 55//55 56//56 54//54
f 57//57 103//103 56//56
f 55//55 57//57 56//56
f 172//172 58//58 54//54
f 55//55 64//64 57//57
f 182//182 58//58 172//172
f 106//106 58//58 182//182
f 64//64 59//59 60//60
f 57//57 64//64 60//60
f 175//175 174//174 68//68
f 68//68 174//174 65//65
f 175//175 68//68 61//61
f 104//104 173//173 175//175
f 175//175 61//61 104//104
f 110//110 61//61 68//68
f 64//64 54//54 66//66
f 62//62 64//64 66//66
f 63//63 62//62 66//66
f 174//174 176//176 65//65
f 69//69 176//176 178//178
f 69//69 65//65 176//176
f 64//64 55//55 54//54
f 64//64 177//177 59//59
f 67//67 72//72 66//66
f 58//58 66//66 54//54
f 58//58 67//67 66//66
f 169//169 118//118 65//65
f 115//115 68//68 118//118
f 68//68 65//65 118//118
f 178//178 70//70 69//69
f 63//63 66//66 70//70
f 66//66 30//30 70//70
f 70//70 65//65 69//69
f 65//65 70//70 31//31
f 66//66 71//71 30//30
f 30//30 71//71 33//33
f 71//71 66//66 72//72
f 71//71 72//72 73//73
f 73//73 33//33 71//71
f 73//73 72//72 67//67
f 74//74 33//33 73//73
f 73//73 113//113 74//74
f 121//121 75//75 79//79
f 194//194 121//121 122//122
f 81//81 122//122 79//79
f 79//79 122//122 121//121
f 74//74 113//113 128//128
f 74//74 128//128 84//84
f 74//74 84//84 82//82
f 77//77 75//75 15//15
f 78//78 77//77 76//76
f 77//77 15//15 76//76
f 75//75 77//77 78//78
f 76//76 86//86 78//78
f 87//87 78//78 86//86
f 78//78 87//87 80//80
f 79//79 75//75 78//78
f 78//78 80//80 81//81
f 81//81 79//79 78//78
f 86//86 85//85 87//87
f 51//51 93//93 85//85
f 85//85 93//93 87//87
f 93//93 95//95 87//87
f 95//95 80//80 87//87
f 97//97 19//19 98//98
f 100//100 98//98 41//41
f 130//130 101//101 92//92
f 42//42 83//83 89//89
f 42//42 89//89 88//88
f 84//84 90//90 83//83
f 90//90 89//89 83//83
f 91//91 88//88 89//89
f 91//91 92//92 88//88
f 88//88 92//92 100//100
f 90//90 84//84 132//132
f 90//90 91//91 89//89
f 91//91 90//90 132//132
f 91//91 130//130 92//92
f 132//132 130//130 91//91
f 179//179 180//180 94//94
f 95//95 93//93 94//94
f 95//95 94//94 96//96
f 99//99 95//95 96//96
f 95//95 99//99 80//80
f 96//96 94//94 181//181
f 96//96 181//181 99//99
f 80//80 99//99 127//127
f 99//99 181//181 102//102
f 19//19 41//41 98//98
f 102//102 98//98 100//100
f 101//101 100//100 92//92
f 102//102 100//100 101//101
f 133//133 101//101 130//130
f 99//99 102//102 133//133
f 101//101 133//133 102//102
f 183//183 173//173 104//104
f 184//184 105//105 186//186
f 107//107 187//187 185//185
f 184//184 104//104 105//105
f 67//67 58//58 188//188
f 188//188 109//109 67//67
f 192//192 187//187 107//107
f 104//104 61//61 110//110
f 104//104 110//110 137//137
f 104//104 135//135 105//105
f 108//108 112//112 67//67
f 109//109 108//108 67//67
f 108//108 134//134 114//114
f 108//108 193//193 189//189
f 108//108 189//189 134//134
f 110//110 111//111 117//117
f 111//111 115//115 117//117
f 117//117 148//148 137//137
f 110//110 117//117 137//137
f 115//115 111//111 68//68
f 68//68 111//111 110//110
f 112//112 73//73 67//67
f 112//112 113//113 73//73
f 114//114 112//112 108//108
f 114//114 113//113 112//112
f 113//113 114//114 156//156
f 117//117 115//115 116//116
f 115//115 118//118 116//116
f 194//194 119//119 116//116
f 116//116 146//146 147//147
f 146//146 116//116 119//119
f 152//152 146//146 119//119
f 152//152 119//119 120//120
f 194//194 75//75 121//121
f 113//113 156//156 128//128
f 123//123 194//194 122//122
f 195//195 124//124 196//196
f 119//119 194//194 123//123
f 120//120 119//119 196//196
f 196//196 124//124 120//120
f 195//195 81//81 125//125
f 195//195 125//125 124//124
f 120//120 124//124 125//125
f 126//126 129//129 128//128
f 125//125 127//127 126//126
f 157//157 126//126 128//128
f 125//125 126//126 157//157
f 81//81 80//80 127//127
f 125//125 81//81 127//127
f 128//128 132//132 84//84
f 132//132 128//128 129//129
f 127//127 129//129 126//126
f 129//129 131//131 132//132
f 131//131 127//127 133//133
f 131//131 133//133 130//130
f 129//129 127//127 131//131
f 132//132 131//131 130//130
f 133//133 127//127 99//99
f 198//198 142//142 145//145
f 105//105 135//135 190//190
f 191//191 198//198 197//197
f 136//136 197//197 198//198
f 134//134 136//136 114//114
f 135//135 104//104 142//142
f 145//145 136//136 198//198
f 137//137 139//139 138//138
f 148//148 139//139 137//137
f 150//150 139//139 148//148
f 137//137 138//138 104//104
f 150//150 140//140 139//139
f 151//151 140//140 150//150
f 138//138 159//159 162//162
f 104//104 138//138 162//162
f 159//159 138//138 139//139
f 159//159 139//139 160//160
f 141//141 161//161 160//160
f 141//141 160//160 140//140
f 140//140 160//160 139//139
f 151//151 141//141 140//140
f 161//161 141//141 155//155
f 151//151 155//155 141//141
f 104//104 162//162 142//142
f 145//145 142//142 143//143
f 114//114 144//144 156//156
f 144//144 114//114 136//136
f 145//145 144//144 136//136
f 145//145 143//143 144//144
f 148//148 117//117 147//147
f 147//147 117//117 116//116
f 152//152 147//147 146//146
f 149//149 148//148 147//147
f 147//147 152//152 149//149
f 151//151 150//150 149//149
f 149//149 150//150 148//148
f 151//151 149//149 153//153
f 153//153 155//155 151//151
f 158//158 152//152 120//120
f 149//149 152//152 158//158
f 149//149 158//158 153//153
f 154//154 157//157 143//143
f 155//155 153//153 158//158
f 155//155 158//158 154//154
f 157//157 154//154 158//158
f 156//156 157//157 128//128
f 156//156 144//144 157//157
f 143//143 157//157 144//144
f 125//125 158//158 120//120
f 158//158 125//125 157//157
f 164//164 162//162 159//159
f 161//161 164//164 159//159
f 160//160 161//161 159//159
f 161//161 155//155 166//166
f 161//161 166//166 164//164
f 142//142 162//162 163//163
f 163//163 165//165 142//142
f 143//143 142//142 165//165
f 167//167 154//154 143//143
f 163//163 162//162 164//164
f 165//165 163//163 164//164
f 164//164 166//166 167//167
f 164//164 167//167 165//165
f 143//143 165//165 167//167
f 155//155 167//167 166//166
f 154//154 167//167 155//155
