# Wavafront OBJ file of BodyParts3D
# BodyParts3D, Copyright(C) 2010-2011 The Database Center for Life Science licensed under CC Attribution-Share Alike 2.1 Japan.
vn -0.955955 0.224367 -0.189232
v -132.627 -161.367 3.92895
vn -0.477843 -0.561887 -0.67524
v -132.62 -161.517 3.71561
vn -0.358888 -0.641779 -0.67773
v -132.48 -161.55 3.62897
vn -0.2663 0.278323 -0.922833
v -132.442 -161.406 3.65658
vn -0.527675 0.689552 -0.496061
v -132.259 -161.297 3.66294
vn -0.166629 0.272027 -0.947753
v -132.155 -161.476 3.58607
vn -0.171585 -0.721732 -0.670568
v -132.042 -161.66 3.63531
vn -0.422528 -0.586401 -0.691089
v -132.867 -161.934 4.22031
vn -0.435724 -0.897658 0.065987
v -132.831 -161.959 4.3672
vn -0.955473 0.292972 -0.0351831
v -132.719 -161.508 4.22996
vn -0.453559 0.757361 0.469775
v -132.588 -161.386 4.2264
vn -0.38071 -0.62357 -0.682803
v -132.707 -162.031 4.20458
vn -0.346563 -0.926493 0.146643
v -132.691 -162.013 4.35476
vn -0.0195828 -0.270121 0.962627
v -132.42 -161.59 4.47907
vn -0.197702 0.760633 0.618346
v -132.214 -161.327 4.30278
vn 0.452586 -0.440203 0.775491
v -132.098 -161.493 4.33744
vn 0.414966 -0.906039 -0.0830445
v -132.001 -161.686 4.17101
vn -0.098951 0.13647 0.98569
v -131.897 -161.308 4.33199
vn -0.171809 -0.425811 -0.888351
v -131.949 -161.212 3.40284
vn -0.271211 0.834733 0.479235
v -131.831 -160.85 3.7467
vn -0.182834 0.195773 -0.963455
v -130.832 -161.022 3.21672
vn -0.116125 0.601336 0.790512
v -130.67 -160.522 3.68034
vn 0.385587 -0.443058 0.809335
v -130.564 -160.763 3.81211
vn 0.357476 -0.924974 -0.128973
v -130.426 -160.982 3.6416
vn 0.20944 -0.496379 0.842462
v -130.207 -160.579 3.82505
vn 0.397797 -0.916648 -0.0389224
v -129.751 -160.673 3.15702
vn -0.0134676 0.646208 0.763042
v -130.17 -160.374 3.65214
vn -0.197618 0.312639 -0.929088
v -129.879 -160.293 3.18377
vn 0.445714 -0.894365 0.0380859
v -129.596 -160.573 3.69295
vn 0.151399 0.573999 0.804738
v -129.567 -160.423 3.59359
vn 0.451459 -0.891569 0.0359003
v -129.445 -160.507 3.44434
vn -0.433435 0.679603 0.591839
v -129.387 -160.313 3.56578
vn -0.126223 0.212443 0.968987
v -129.199 -160.19 3.59242
vn -0.347502 -0.420312 0.838201
v -129.089 -160.39 3.65057
vn -0.199149 0.632159 -0.748809
v -128.704 -159.911 3.11901
vn 0.0216086 -0.79083 0.611654
v -128.651 -160.462 3.54107
vn 0.289017 -0.894432 -0.341264
v -128.532 -160.367 3.38665
vn -0.0159957 0.271322 0.962356
v -128.615 -160.354 3.64831
vn 0.948458 -0.0144734 0.316572
v -128.532 -160.212 3.39389
vn 0.359639 -0.932499 0.0332591
v -128.478 -160.29 3.23591
vn 0.351446 -0.936049 -0.0172759
v -128.365 -160.245 3.07956
vn -0.435027 0.296752 0.850112
v -128.416 -160.086 3.37401
vn 0.478001 -0.746069 0.463568
v -128.305 -160.213 3.22733
vn -0.111723 -0.964388 0.239737
v -128.092 -160.172 3.51533
vn -0.28454 0.118558 0.951305
v -128.054 -159.926 3.5242
vn 0.0378695 -0.428641 -0.902681
v -128.01 -160.216 3.05586
vn 0.165466 -0.425821 -0.889549
v -127.946 -159.914 2.91502
vn 0.213879 -0.307565 -0.927178
v -127.686 -160.105 3.03831
vn 0.941551 -0.336086 0.022966
v -127.64 -159.966 3.19212
vn -0.405831 0.872543 -0.271973
v -127.733 -159.729 3.05927
vn 0.0701185 -0.046713 0.996444
v -127.632 -160.131 3.48489
vn 0.225205 -0.246784 -0.942539
v -127.611 -159.969 3.03941
vn 0.0603889 -0.274644 -0.959648
v -127.471 -159.913 3.03219
vn -0.114568 0.450391 0.88545
v -127.455 -159.9 3.18224
vn -0.161525 -0.615985 -0.77102
v -126.591 -160.093 2.96183
vn 0.176767 -0.285074 -0.942065
v -127.571 -159.667 2.95551
vn -0.390702 -0.559322 -0.731103
v -127.433 -159.699 2.84785
vn -0.133866 0.685487 -0.715673
v -127.247 -159.592 2.90092
vn -0.382303 0.838053 -0.389245
v -127.175 -159.459 3.03261
vn -0.89067 -0.365846 -0.269933
v -126.983 -159.048 3.18893
vn -0.774028 -0.0206648 -0.632815
v -126.973 -158.891 3.04501
vn -0.18018 -0.610241 -0.771454
v -127.143 -159.786 2.86453
vn -0.197455 0.00859984 -0.980274
v -127.1 -159.612 2.86961
vn -0.596978 0.500888 -0.62668
v -127.015 -159.344 3.02679
vn -0.502204 0.853651 0.138101
v -126.921 -159.381 3.47006
vn -0.719734 -0.5981 0.352506
v -126.893 -159.234 3.47494
vn -0.595703 -0.188338 0.780811
v -126.939 -159.845 3.63655
vn -0.488992 0.310435 0.815179
v -126.902 -159.7 3.65248
vn -0.596742 0.368917 -0.7126
v -126.845 -159.229 2.92024
vn 0.149613 0.0843271 0.985142
v -126.693 -159.465 3.60057
vn -0.260896 -0.272099 0.926226
v -126.608 -159.157 3.69729
vn -0.130509 -0.642445 -0.755137
v -126.533 -159.764 2.67561
vn 0.123623 -0.0245763 0.992025
v -126.468 -159.808 3.59576
vn -0.949346 -0.188314 -0.251554
v -127.273 -158.656 3.52878
vn -0.828352 0.406384 -0.385596
v -127.148 -158.248 3.68964
vn -0.486933 -0.535219 0.690244
v -127.115 -158.722 3.76828
vn -0.545351 0.343554 -0.764567
v -126.906 -158.292 3.12369
vn -0.326591 0.484802 -0.81136
v -126.199 -158.459 2.79561
vn -0.426797 0.307104 0.850607
v -126.549 -158.408 4.04807
vn -0.438743 0.132854 -0.888737
v -126.288 -159.358 2.54568
vn -0.491844 0.0486191 -0.869325
v -125.796 -159.475 2.3327
vn -0.263663 -0.933699 -0.242257
v -125.472 -159.786 2.44587
vn -0.495527 -0.703089 -0.510018
v -125.439 -159.718 2.29621
vn -0.446056 -0.794258 -0.41254
v -125.332 -159.74 2.11948
vn -0.0950764 -0.314592 0.944453
v -125.55 -159.267 3.70231
vn -0.169109 -0.835095 -0.523468
v -125.62 -159.809 2.60571
vn 0.0368191 -0.970799 -0.237053
v -125.487 -159.878 2.89423
vn 0.0285278 -0.508513 0.860582
v -125.446 -159.446 3.6231
vn 0.185503 -0.788073 0.586966
v -125.346 -159.622 3.48367
vn -0.477782 0.257746 -0.839816
v -125.894 -158.99 2.45055
vn -0.484277 0.51045 -0.710575
v -125.5 -158.622 2.35777
vn -0.378195 -0.43201 -0.81874
v -125.347 -159.112 1.93353
vn -0.106993 -0.176967 0.978384
v -125.659 -159.086 3.72313
vn -0.00168471 -0.429858 0.902895
v -125.227 -159.197 3.81103
vn -0.42975 0.867308 -0.251181
v -124.557 -157.044 3.41321
vn -0.346556 0.491279 0.799089
v -125.268 -157.649 4.13698
vn -0.603638 0.71984 0.342713
v -124.401 -157.089 4.00231
vn -0.284826 -0.788731 -0.544773
v -125.19 -159.795 2.12457
vn -0.48593 -0.765102 -0.422482
v -125.202 -159.892 2.27141
vn 0.308732 -0.781376 -0.542344
v -124.877 -159.862 2.40042
vn 0.39006 -0.526629 -0.755325
v -124.329 -159.484 2.2291
vn 0.140544 -0.964393 0.224041
v -124.992 -159.865 2.86003
vn 0.494338 -0.838036 0.230923
v -124.651 -159.735 2.84214
vn -0.199525 0.262873 -0.943974
v -124.917 -159.216 1.81375
vn 0.373714 -0.647796 0.663851
v -124.793 -159.299 3.57466
vn -0.52592 0.588521 -0.614046
v -124.428 -157.954 2.06198
vn -0.0743254 -0.0891058 0.993245
v -124.329 -157.609 4.12333
vn -0.682501 0.565786 0.462686
v -123.044 -155.727 3.97065
vn -0.353914 0.164732 0.920656
v -122.84 -155.945 4.3977
vn 0.626325 -0.756063 0.189961
v -122.862 -158.226 3.23856
vn -0.30042 0.0195394 0.953607
v -120.85 -153.067 5.2958
vn -0.842234 0.396988 0.36475
v -120.838 -152.747 4.85832
vn -0.973852 0.0248004 0.225827
v -118.023 -142.883 8.43437
vn -0.973852 0.0248004 0.225827
v -117.952 -139.961 8.41589
vn -0.967523 0.0248112 0.251563
v -117.641 -138.833 9.50063
vn -0.658163 0.00466413 0.752861
v -116.93 -137.169 9.98016
vn -0.424589 -0.123292 0.896952
v -116.562 -137.116 10.3013
vn -0.904321 0.250405 -0.34569
v -116.722 -136.395 8.19535
vn -0.854157 0.20651 -0.477251
v -116.557 -135.664 8.2181
vn -0.251339 0.328151 -0.910574
v -116.799 -136.679 7.97933
vn -0.946162 0.314054 -0.0784032
v -116.759 -136.539 8.04071
vn -0.894854 0.429995 0.119754
v -116.473 -135.693 8.51183
vn -0.250105 0.359733 -0.89891
v -116.657 -136.713 7.92773
vn -0.717185 0.181851 -0.672738
v -116.584 -136.454 8.03237
vn -0.0702891 0.289594 -0.954565
v -116.424 -135.85 8.15175
vn 0.113774 0.603416 -0.789268
v -116.385 -135.71 8.20377
vn -0.819539 0.539881 0.192053
v -116.413 -135.55 8.36381
vn -0.875033 0.472718 0.104187
v -116.26 -135.28 8.42911
vn -0.220316 -0.12625 0.967224
v -115.972 -134.963 10.977
vn -0.909723 0.408467 0.0745512
v -115.926 -134.814 10.7726
vn -0.909796 0.411679 0.0528364
v -115.723 -134.405 10.928
vn 0.745963 -0.657122 -0.108305
v -121.108 -156.503 3.34639
vn 0.69319 -0.689934 0.208516
v -120.481 -155.771 4.69144
vn -0.425082 0.637981 -0.642094
v -121.23 -154.313 3.56237
vn -0.0941534 0.0578221 0.993877
v -120.194 -153.233 5.36765
vn -0.111488 -0.184056 0.976573
v -120.19 -153.854 5.40414
vn -0.205118 -0.322403 0.924112
v -119.985 -152.524 5.77425
vn -0.539246 -0.0179676 0.841957
v -119.756 -153.042 5.67157
vn -0.372489 -0.203789 0.905385
v -119.773 -152.883 5.66538
vn -0.844783 0.450557 -0.288685
v -119.033 -148.446 6.28771
vn -0.517258 0.358879 -0.776949
v -117.916 -146.252 6.32965
vn -0.979497 0.0247721 0.199932
v -118.267 -145.581 7.57239
vn -0.401009 -0.214093 0.890705
v -117.341 -142.913 8.90365
vn -0.561291 0.219938 -0.79786
v -116.883 -142.204 7.18177
vn -0.670132 0.138229 -0.729257
v -116.708 -140.402 7.55496
vn -0.724683 0.235978 -0.647418
v -117.04 -138.943 8.11128
vn 0.257748 0.2183 -0.941228
v -116.238 -136.362 8.19322
vn -0.24892 0.221228 -0.94292
v -115.841 -136.46 8.1304
vn 0.58594 0.138834 -0.798373
v -116.191 -135.605 8.36554
vn -0.199319 0.160562 -0.966691
v -116.116 -135.315 8.39039
vn 0.117243 -0.118528 0.986005
v -115.827 -134.999 10.9628
vn -0.875777 0.48067 -0.0444035
v -115.224 -133.306 11.3961
vn 0.101373 -0.251201 0.962612
v -114.989 -133.06 11.5286
vn -0.90177 0.409586 0.13802
v -114.937 -132.91 11.2439
vn -0.346875 -0.318025 0.882348
v -115.167 -133.172 11.5913
vn -0.703878 0.2288 -0.672463
v -114.745 -129.943 8.65982
vn -0.864289 0.365962 0.345074
v -114.272 -129.46 9.25128
vn -0.604055 0.631731 -0.485833
v -114.11 -129.195 9.40285
vn 0.087359 0.321286 -0.942944
v -114.076 -129.354 9.24246
vn -0.40005 0.587773 -0.703195
v -114.058 -129.206 9.32338
vn -0.61098 0.622448 -0.489144
v -113.528 -128.868 9.09141
vn -0.975267 0.218142 0.035605
v -113.805 -128.19 9.42852
vn -0.434958 0.060081 -0.898444
v -113.825 -128.253 9.27641
vn -0.908245 0.402679 -0.113756
v -112.911 -128.045 12.6842
vn -0.844286 0.461804 -0.271878
v -113.105 -128.31 12.8359
vn -0.20981 0.12593 -0.969599
v -113.726 -127.587 9.30065
vn -0.830917 0.260665 0.49156
v -112.776 -127.399 10.5975
vn -0.884973 0.430193 -0.178205
v -112.903 -127.901 12.9914
vn -0.709021 0.167 0.685128
v -112.428 -123.91 9.98383
vn 0.225052 0.108459 -0.968291
v -112.424 -124.042 9.82683
vn -0.272344 -0.20309 -0.940523
v -112.349 -123.774 9.93144
vn -0.0227357 0.958126 -0.285441
v -112.234 -123.649 9.9824
vn -0.638569 0.12482 0.759375
v -112.305 -123.633 10.0419
vn 0.0346432 0.76588 -0.64205
v -112.238 -123.956 9.93893
vn -0.776686 0.22648 0.587763
v -112.016 -123.558 10.2724
vn -0.723015 0.581584 -0.372839
v -111.228 -122.654 14.926
vn 0.821836 -0.569674 0.00757802
v -118.958 -153.978 4.36723
vn 0.313695 0.0767387 -0.946418
v -118.656 -153.431 4.22112
vn -0.199125 -0.238529 0.950502
v -119.164 -152.428 6.03853
vn -0.278871 -0.199983 0.939275
v -118.662 -150.556 6.48148
vn -0.452369 0.436502 -0.777707
v -117.91 -149.457 4.76537
vn -0.460968 -0.137483 0.876702
v -118.374 -148.941 7.00256
vn -0.264831 -0.222583 0.938254
v -118.052 -149.483 6.89891
vn 0.174606 -0.350275 0.920228
v -117.463 -149.633 6.97656
vn -0.260737 -0.262771 0.92896
v -117.055 -147.038 7.87043
vn -0.363092 0.278846 -0.88905
v -116.984 -146 5.58672
vn -0.18822 0.390142 -0.901312
v -117.591 -146.178 6.29375
vn -0.855853 0.254357 -0.450354
v -117.092 -144.752 6.17023
vn -0.117702 -0.257673 0.959036
v -117.039 -144.678 8.47509
vn -0.992156 0.108731 -0.0616714
v -116.999 -143.711 6.81819
vn -0.117337 0.332572 -0.93575
v -117.033 -143.712 7.12157
vn -0.301544 0.292571 -0.907454
v -115.774 -142.611 6.30486
vn -0.288704 0.208568 -0.934425
v -115.981 -142.255 6.48196
vn -0.182519 0.264528 -0.946949
v -114.899 -139.29 6.90943
vn 0.395659 -0.267087 0.878703
v -114.312 -137.45 10.3849
vn 0.358528 -0.333545 0.871898
v -113.177 -131.515 11.9299
vn 0.690822 -0.365501 0.623837
v -112.501 -131.213 11.6961
vn 0.215302 0.168508 -0.961899
v -113.088 -129.598 9.09686
vn 0.774573 -0.365844 0.51594
v -111.967 -129.352 12.2554
vn -0.147379 -0.342629 0.927839
v -112.591 -127.674 13.1154
vn 0.337467 -0.396066 0.85396
v -111.862 -127.856 13.1049
vn -0.0771923 -0.343809 0.935862
v -112.055 -126.891 13.5024
vn 0.513605 -0.334157 0.790284
v -110.964 -124.551 14.0451
vn -0.817955 0.0515047 0.572972
v -111.564 -124.563 14.3227
vn -0.948667 -0.00688835 0.316202
v -111.225 -123.268 14.7464
vn -0.921058 0.361392 -0.145082
v -111.273 -123.097 14.6072
vn -0.98922 -0.0357022 0.142019
v -111.23 -122.809 14.9742
vn -0.705341 0.42521 -0.567178
v -111.094 -122.763 14.6103
vn -0.685841 0.656215 -0.314649
v -111.018 -122.51 14.7674
vn -0.625732 0.768646 -0.132824
v -110.994 -122.464 14.9184
vn -0.589995 0.245879 0.769058
v -111.004 -122.551 15.0655
vn -0.139523 -0.390733 0.909869
v -111.063 -123.309 14.7531
vn 0.831117 -0.31762 0.456467
v -110.899 -123.19 14.5766
vn -0.913886 0.386329 -0.124749
v -111 -122.957 14.4441
vn 0.302968 0.699264 -0.647488
v -110.853 -122.742 14.7449
vn 0.868187 -0.36923 0.331544
v -110.896 -122.741 15.069
vn 0.314548 0.316764 -0.89483
v -110.878 -122.568 14.7548
vn 0.627874 0.548878 0.551821
v -110.812 -122.603 14.8991
vn 0.898366 0.433442 0.071172
v -110.798 -123.364 14.3649
vn -0.92175 0.385351 -0.0433736
v -110.359 -121.529 14.1648
vn -0.362862 0.126069 0.923276
v -110.22 -121.651 14.3317
vn -0.748432 0.382238 -0.541982
v -110.498 -120.244 10.9231
vn 0.309543 0.083946 -0.947173
v -110.295 -120.135 10.7199
vn -0.509262 0.0507189 0.859116
v -109.789 -120.213 14.337
vn -0.345128 0.00202706 0.938553
v -109.638 -121.186 14.5818
vn -0.47952 0.148761 0.86483
v -109.736 -121.004 14.4926
vn -0.750727 0.323283 -0.576105
v -110.026 -119.125 10.9365
vn -0.484367 0.357724 -0.798388
v -109.475 -118.183 11.0242
vn -0.924534 0.358934 0.128074
v -109.344 -117.604 11.2667
vn -0.93452 0.354884 -0.0270152
v -108.855 -116.329 11.0845
vn -0.878657 0.396774 0.265581
v -108.639 -115.926 11.2958
vn 0.893996 -0.412648 -0.174622
v -118.093 -152.502 4.67667
vn 0.494336 0.02215 -0.868989
v -117.912 -151.928 4.66375
vn 0.660054 -0.520884 0.541302
v -117.639 -151.337 6.20464
vn 0.456483 -0.0421695 -0.888732
v -117.293 -149.311 5.071
vn 0.490328 -0.0428843 -0.870482
v -117.228 -149.948 5.12241
vn 0.881775 -0.296687 -0.366673
v -116.9 -149.881 5.31776
vn 0.536387 -0.412028 0.736561
v -117.041 -149.733 6.75169
vn 0.789996 -0.449251 0.417228
v -116.868 -149.769 6.525
vn 0.335595 -0.00534491 -0.941991
v -116.318 -148.017 5.36412
vn 0.921063 -0.382294 -0.0741277
v -116.264 -148.825 6.07512
vn -0.145972 0.236805 -0.960529
v -115.375 -142.247 6.28447
vn 0.615007 -0.0263524 -0.788081
v -114.126 -141.662 7.31425
vn -0.154352 0.230582 -0.960733
v -114.337 -138.355 7.15749
vn 0.565768 -0.306571 0.765455
v -113.872 -137.014 10.2239
vn 0.347911 0.102445 -0.931914
v -113.007 -136.392 7.97761
vn 0.551214 -0.382195 0.741681
v -112.088 -130.688 11.3632
vn 0.438788 -0.35867 0.823906
v -111.92 -131.177 11.1128
vn 0.652573 -0.439024 0.617581
v -111.742 -128.942 12.1847
vn 0.445225 -0.456336 0.77041
v -111.725 -129.402 11.8891
vn 0.904054 -0.311601 0.292562
v -110.494 -128.001 11.3119
vn 0.416779 -0.452103 0.788606
v -110.645 -128.436 11.9042
vn 0.930167 -0.359054 0.0766087
v -110.317 -127.43 11.7413
vn 0.905975 -0.300233 0.298446
v -109.608 -124.985 11.993
vn 0.973433 -0.196006 -0.11836
v -109.625 -124.986 12.1448
vn 0.564468 0.259078 -0.783744
v -109.391 -124.043 12.7747
vn 0.949567 -0.313141 0.0162921
v -109.206 -123.708 12.4762
vn 0.641905 0.230753 -0.73124
v -109.403 -123.517 12.9301
vn 0.416968 0.280311 -0.864617
v -109.212 -123.414 13.065
vn 0.850299 -0.493334 0.183339
v -109.188 -123.261 12.8903
vn 0.863763 -0.496829 -0.084108
v -109.178 -123.267 13.026
vn 0.742995 0.0210216 -0.668966
v -108.986 -123.012 13.246
vn 0.139167 -0.22727 0.963837
v -109.986 -122.601 14.3894
vn 0.642247 0.0688671 -0.763398
v -109.747 -121.821 10.7963
vn 0.639205 0.105388 -0.761781
v -109.542 -122.188 10.994
vn 0.316772 0.129677 -0.939595
v -109.388 -121.612 11.1255
vn 0.407554 0.158105 -0.89939
v -109.435 -122.368 10.9499
vn -0.476494 0.192189 -0.857914
v -109.363 -122.077 10.9443
vn -0.638097 0.251241 -0.727812
v -109.288 -121.787 10.9809
vn -0.492023 0.144266 -0.858546
v -109.077 -121.528 10.8817
vn 0.508702 -0.444932 0.73706
v -108.808 -122.151 14.0266
vn 0.628262 0.0511376 -0.776319
v -109.422 -121.141 11.1791
vn -0.480988 0.0602508 -0.874654
v -109.14 -120.9 11.0979
vn 0.969651 -0.181647 -0.163649
v -108.559 -120.81 13.6203
vn 0.952765 -0.00590182 -0.30365
v -108.607 -121.411 13.4449
vn 0.363805 -0.424427 0.829161
v -109.14 -121.159 14.6739
vn 0.221279 -0.00233916 -0.975208
v -108.858 -120.037 10.9361
vn 0.394611 -0.404667 0.82494
v -108.09 -119.589 15.1499
vn -0.395939 0.0131433 0.918183
v -108.037 -118.826 15.39
vn -0.505695 0.0524196 0.861118
v -108.657 -117.885 14.9686
vn -0.914762 0.315002 0.252952
v -108.684 -117.72 14.8277
vn -0.30159 0.157911 0.94027
v -108.562 -117.445 14.9825
vn 0.395025 0.0616248 0.916601
v -107.864 -118.092 15.2665
vn 0.153694 0.0979538 -0.983251
v -108.709 -116.366 11.0813
vn 0.206584 0.185899 -0.960606
v -108.418 -115.672 11.2922
vn 0.910277 -0.0186948 -0.413577
v -107.822 -115.983 11.5367
vn 0.343314 0.0878337 -0.935105
v -107.964 -116.559 11.2964
vn 0.943366 -0.0459947 -0.328549
v -107.754 -115.85 11.7134
vn -0.907722 0.385901 0.164688
v -108.166 -116.259 13.3543
vn -0.856939 0.510697 -0.0695912
v -107.804 -115.939 15.1566
vn 0.878068 0.0323355 -0.477442
v -107.839 -114.434 11.6105
vn -0.811735 0.426677 0.39879
v -107.257 -113.832 12.501
vn -0.750826 0.532266 0.391092
v -106.533 -113.624 16.0727
vn 0.228905 0.129169 -0.964841
v -106.671 -112.268 12.1775
vn -0.750826 0.532266 0.391092
v -106.52 -113.498 15.9271
vn 0.527081 -0.365475 0.767211
v -114.556 -144.349 7.67013
vn 0.725657 -0.0413202 -0.686815
v -114.452 -143.43 7.10372
vn 0.924373 -0.334787 -0.182897
v -114.14 -143.053 7.40054
vn 0.531699 -0.0558871 -0.845087
v -114.017 -142.157 7.43979
vn 0.661978 -0.350991 0.662262
v -113.805 -141.618 8.34748
vn 0.450945 -0.0540883 -0.890911
v -113.657 -141.478 7.59089
vn 0.922718 -0.335643 -0.189565
v -113.547 -141.608 7.72763
vn 0.849316 -0.460704 0.25771
v -113.315 -141.263 7.87797
vn 0.434767 -0.154581 -0.887177
v -113.303 -141.261 7.72666
vn 0.342152 0.0617694 -0.937612
v -112.77 -138.005 8.19109
vn 0.268097 0.0862187 -0.959526
v -112.434 -137.319 8.31722
vn 0.960142 -0.269682 0.073478
v -112.045 -136.502 8.76451
vn 0.423861 0.0619795 -0.903604
v -112.193 -135.066 8.54116
vn 0.820745 -0.330887 0.465717
v -111.161 -132.426 9.9471
vn 0.328339 0.0952311 -0.939747
v -110.937 -132.001 9.34914
vn 0.90429 -0.287202 0.315872
v -110.468 -130.135 10.3068
vn 0.905094 -0.234843 0.354476
v -110.675 -129.638 10.9468
vn 0.917079 -0.250436 0.310237
v -109.894 -126.601 11.4858
vn 0.470329 0.676256 -0.566982
v -109.406 -125.213 10.4628
vn 0.915786 -0.37989 0.130461
v -109.606 -125.613 12.2646
vn 0.407554 0.158105 -0.89939
v -109.093 -124.151 10.7916
vn 0.899739 -0.300111 0.316865
v -108.977 -124.189 11.0827
vn 0.8741 -0.0657038 -0.481281
v -109.15 -124.199 12.9009
vn 0.949479 -0.313353 0.017334
v -109.104 -124.064 13.205
vn 0.975104 -0.221725 0.00326221
v -108.923 -122.851 12.4965
vn 0.463393 0.24352 -0.852036
v -108.858 -122.894 13.3931
vn 0.905185 -0.34002 0.255002
v -108.733 -121.934 12.5261
vn 0.966688 -0.189398 -0.172173
v -108.612 -122.041 13.8674
vn 0.964223 -0.265074 -0.00299469
v -108.628 -121.87 13.4249
vn 0.958709 -0.164995 -0.231633
v -108.473 -121.458 13.885
vn 0.490066 -0.00991782 -0.871629
v -107.661 -120.512 11.6141
vn 0.901706 -0.0761806 -0.425586
v -108.161 -120.24 14.3717
vn 0.538293 -0.419082 0.73117
v -107.821 -119.642 14.9779
vn 0.874424 -0.42801 0.22845
v -106.992 -118.259 13.178
vn 0.863333 -0.494515 0.100552
v -107.849 -119.322 14.8444
vn 0.867711 -0.489242 0.0878633
v -107.332 -118.375 15.0558
vn 0.566432 -0.0138801 -0.823992
v -106.516 -117.257 12.1695
vn 0.870129 -0.404989 0.28082
v -107.402 -118.188 14.565
vn 0.808809 -0.388417 0.441543
v -107.391 -118.041 14.7217
vn 0.839173 -0.186346 -0.510944
v -107.238 -118.237 14.8522
vn 0.837459 -0.384075 0.388779
v -106.817 -116.341 15.1667
vn 0.647392 -0.44055 0.621933
v -106.016 -116.086 14.7165
vn 0.144649 0.0304306 -0.989015
v -107.1 -115.086 11.6985
vn 0.569557 -0.0843939 -0.817607
v -106.858 -115.465 12.02
vn -0.370141 -0.0480654 0.927731
v -106.489 -115.202 15.7192
vn 0.821353 -0.0228923 -0.569961
v -106.827 -114.389 11.993
vn -0.749438 0.653963 -0.10332
v -105.945 -112.864 15.7658
vn -0.783557 0.612248 0.105784
v -105.682 -112.612 15.4581
vn 0.424048 0.29132 0.857506
v -105.583 -112.641 15.6003
vn 0.645238 -0.272585 0.713698
v -105.65 -113.094 15.7872
vn 0.649477 -0.0907066 -0.754951
v -106.064 -111.493 12.2256
vn -0.678408 0.30495 0.668407
v -105.992 -111.207 12.3845
vn -0.6261 0.756532 0.188834
v -105.528 -111.658 12.9328
vn 0.639361 -0.0877462 -0.763884
v -105.447 -111.853 12.6169
vn -0.640209 0.751083 0.161265
v -105.141 -111.44 13.0664
vn -0.735581 0.254255 -0.627914
v -105.899 -110.921 12.3913
vn 0.302671 0.107808 -0.946978
v -105.83 -111.092 12.3785
vn 0.103028 -0.196106 -0.975155
v -105.86 -110.929 12.3426
vn 0.243117 0.969582 0.0283687
v -105.809 -110.943 12.384
vn -0.802189 0.139251 0.580605
v -105.645 -110.679 12.5354
vn 0.224717 0.0485958 -0.973212
v -105.524 -110.862 12.4583
vn 0.538632 -0.0687039 -0.839735
v -105.384 -110.744 12.514
vn -0.593007 0.125448 0.795365
v -105.454 -110.654 12.6737
vn -0.376296 0.136391 -0.916405
v -105.451 -110.571 12.4714
vn 0.579599 0.0279801 -0.814421
v -105.365 -110.594 12.5197
vn -0.593007 0.125448 0.795365
v -105.396 -110.419 12.6805
vn 0.732319 -0.0859379 -0.675517
v -105.335 -110.758 12.5593
vn -0.49992 0.312301 -0.807804
v -105.296 -110.614 12.5912
vn 0.939257 -0.127266 0.318746
v -105.258 -110.469 12.6143
vn 0.619202 -0.0848164 -0.780637
v -104.979 -111.322 12.9302
vn -0.605428 0.517983 -0.604277
v -104.96 -111.176 13.066
vn -0.517275 0.508405 0.688441
v -104.667 -111.31 15.1466
vn 0.727291 -0.12579 -0.674703
v -105.474 -114.91 12.9271
vn 0.499768 0.0135378 -0.866053
v -104.136 -111.711 13.7356
vn 0.922693 -0.317748 0.218343
v -104.339 -112.301 14.4749
vn -0.52708 0.513715 -0.676967
v -104.798 -111.212 12.913
vn -0.753963 0.492512 0.434709
v -104.637 -110.96 13.505
vn 0.700536 0.0384953 -0.712578
v -104.468 -111.157 13.4838
vn -0.990511 0.0664862 0.120285
v -104.276 -110.441 13.805
vn 0.58968 0.0681611 -0.804755
v -104.324 -111.197 13.6224
vn -0.737053 0.663098 0.13059
v -104.303 -110.742 13.7447
vn 0.335661 0.100845 -0.936569
v -104.233 -111.067 13.6962
vn -0.426107 0.435348 0.793035
v -104.671 -111.466 15.2301
vn 0.364743 -0.227583 0.902867
v -104.434 -111.522 15.1203
vn -0.591461 0.468934 0.655953
v -104.45 -111.214 15.2735
vn -0.666518 0.705768 0.240095
v -104.441 -111.035 14.8425
vn -0.590285 0.540483 0.599534
v -104.415 -111.029 15.142
vn 0.910948 -0.238949 0.336268
v -104.285 -111.093 15.0222
vn -0.371638 0.797958 0.474498
v -104.23 -110.712 14.5418
vn -0.594628 0.751661 0.285346
v -104.217 -110.627 14.3942
vn 0.955507 -0.202037 0.214913
v -104.11 -110.846 14.527
vn -0.125835 0.867057 0.482056
v -104.067 -110.668 14.5063
vn -0.621234 -0.16955 0.765062
v -104.027 -110.526 14.571
vn 0.947624 -0.039472 -0.31694
v -103.879 -110.552 14.2234
vn -0.592729 0.373932 -0.713335
v -104.378 -109.934 13.2338
vn 0.664665 -0.12436 -0.736719
v -104.225 -109.972 13.2212
vn -0.725679 0.330872 0.603253
v -104.288 -109.961 13.3767
vn 0.0160508 0.118581 -0.992815
v -104.009 -110.198 13.7894
vn -0.621571 0.653084 -0.432586
v -103.957 -110.04 13.9519
vn -0.598969 0.790454 0.128134
v -132.627 -161.367 3.92895
vn -0.524231 0.692609 -0.495454
v -132.627 -161.367 3.92895
vn -0.943034 0.274689 -0.187703
v -132.62 -161.517 3.71561
vn -0.45695 0.282021 -0.8436
v -132.62 -161.517 3.71561
vn -0.574968 0.660008 -0.48353
v -132.62 -161.517 3.71561
vn -0.321711 0.259137 -0.910686
v -132.48 -161.55 3.62897
vn -0.0593371 -0.291181 -0.954826
v -132.48 -161.55 3.62897
vn -0.516643 0.72637 -0.453285
v -132.442 -161.406 3.65658
vn -0.153956 0.313305 -0.93709
v -132.259 -161.297 3.66294
vn -0.636061 -0.0400625 -0.770598
v -132.259 -161.297 3.66294
vn -0.165849 -0.34798 -0.922716
v -132.155 -161.476 3.58607
vn -0.636061 -0.0400625 -0.770598
v -132.155 -161.476 3.58607
vn -0.134716 -0.382278 -0.914175
v -132.042 -161.66 3.63531
vn 0.439256 -0.895047 -0.0770981
v -132.042 -161.66 3.63531
vn -0.944682 0.324979 0.0443341
v -132.867 -161.934 4.22031
vn -0.518225 -0.855101 -0.0156781
v -132.867 -161.934 4.22031
vn -0.911547 0.308401 0.271977
v -132.831 -161.959 4.3672
vn -0.0195828 -0.270121 0.962627
v -132.831 -161.959 4.3672
vn -0.534667 0.364314 0.7625
v -132.831 -161.959 4.3672
vn -0.670863 0.72941 0.133803
v -132.719 -161.508 4.22996
vn -0.498747 0.442595 0.745225
v -132.719 -161.508 4.22996
vn 0.437991 -0.898917 -0.0105439
v -132.707 -162.031 4.20458
vn -0.435724 -0.897658 0.065987
v -132.707 -162.031 4.20458
vn -0.0195828 -0.270121 0.962627
v -132.691 -162.013 4.35476
vn 0.439877 -0.896324 0.0557879
v -132.691 -162.013 4.35476
vn 0.435904 -0.4984 0.74939
v -132.691 -162.013 4.35476
vn -0.420611 0.524021 0.7406
v -132.42 -161.59 4.47907
vn 0.452527 -0.464259 0.761369
v -132.42 -161.59 4.47907
vn 0.274115 0.378169 0.884222
v -132.42 -161.59 4.47907
vn 0.0899508 0.264279 0.960242
v -132.214 -161.327 4.30278
vn 0.0899508 0.264279 0.960242
v -132.098 -161.493 4.33744
vn 0.452247 -0.439355 0.77617
v -132.001 -161.686 4.17101
vn 0.457542 -0.451317 0.766139
v -131.897 -161.308 4.33199
vn -0.0581564 0.713053 0.698694
v -131.897 -161.308 4.33199
vn -0.636061 -0.0400625 -0.770598
v -131.949 -161.212 3.40284
vn -0.483487 0.680052 -0.551152
v -131.949 -161.212 3.40284
vn -0.195785 0.21301 -0.957233
v -131.949 -161.212 3.40284
vn -0.501028 0.660182 -0.559581
v -131.831 -160.85 3.7467
vn -0.270541 0.962627 0.0125347
v -131.831 -160.85 3.7467
vn -0.0720488 -0.447825 -0.891214
v -130.832 -161.022 3.21672
vn 0.357172 -0.918857 -0.16772
v -130.832 -161.022 3.21672
vn 0.156839 -0.618466 -0.77
v -130.832 -161.022 3.21672
vn -0.278218 0.960518 -0.000672049
v -130.67 -160.522 3.68034
vn -0.0572045 0.459519 0.886324
v -130.564 -160.763 3.81211
vn 0.288175 -0.455643 0.842226
v -130.426 -160.982 3.6416
vn -0.0210971 0.558892 0.828972
v -130.207 -160.579 3.82505
vn 0.143721 -0.594104 -0.791445
v -129.751 -160.673 3.15702
vn -0.0157715 -0.857658 0.513979
v -129.751 -160.673 3.15702
vn 0.292322 -0.922584 -0.251766
v -129.751 -160.673 3.15702
vn -0.0948223 0.989356 0.110377
v -130.17 -160.374 3.65214
vn -0.374679 0.699244 -0.608829
v -129.879 -160.293 3.18377
vn -0.155164 0.984841 0.0775363
v -129.879 -160.293 3.18377
vn -0.433435 0.679603 0.591839
v -129.879 -160.293 3.18377
vn -0.287824 0.926094 0.24394
v -129.879 -160.293 3.18377
vn 0.188561 -0.48918 0.851556
v -129.596 -160.573 3.69295
vn 0.176311 0.518837 0.836494
v -129.596 -160.573 3.69295
vn 0.810985 0.204894 0.548016
v -129.596 -160.573 3.69295
vn 0.1012 0.9682 0.228795
v -129.567 -160.423 3.59359
vn 0.810985 0.204894 0.548016
v -129.567 -160.423 3.59359
vn -0.382096 0.757295 0.52963
v -129.567 -160.423 3.59359
vn 0.453203 -0.566427 0.688307
v -129.567 -160.423 3.59359
vn 0.810985 0.204894 0.548016
v -129.445 -160.507 3.44434
vn 0.453203 -0.566427 0.688307
v -129.445 -160.507 3.44434
vn -0.347502 -0.420312 0.838201
v -129.445 -160.507 3.44434
vn -0.0171594 -0.856807 0.515352
v -129.445 -160.507 3.44434
vn 0.453203 -0.566427 0.688307
v -129.387 -160.313 3.56578
vn -0.347502 -0.420312 0.838201
v -129.387 -160.313 3.56578
vn -0.234474 0.150236 0.960443
v -129.387 -160.313 3.56578
vn -0.479339 0.593388 0.646626
v -129.199 -160.19 3.59242
vn -0.287824 0.926094 0.24394
v -129.199 -160.19 3.59242
vn 0.156952 0.770463 0.617861
v -129.199 -160.19 3.59242
vn -0.126223 0.212443 0.968987
v -129.089 -160.39 3.65057
vn 0.00863262 -0.814312 0.580363
v -129.089 -160.39 3.65057
vn -0.287824 0.926094 0.24394
v -128.704 -159.911 3.11901
vn 0.288829 0.757739 0.585158
v -128.704 -159.911 3.11901
vn -0.443143 0.423346 0.790192
v -128.704 -159.911 3.11901
vn -0.159573 0.943303 0.291059
v -128.704 -159.911 3.11901
vn 0.288323 -0.897665 -0.333268
v -128.651 -160.462 3.54107
vn 0.795383 -0.537781 0.279566
v -128.651 -160.462 3.54107
vn 0.795383 -0.537781 0.279566
v -128.532 -160.367 3.38665
vn 0.948458 -0.0144734 0.316572
v -128.532 -160.367 3.38665
vn 0.0572619 -0.71075 0.70111
v -128.615 -160.354 3.64831
vn 0.288829 0.757739 0.585158
v -128.615 -160.354 3.64831
vn 0.795383 -0.537781 0.279566
v -128.615 -160.354 3.64831
vn 0.952832 -0.0138437 0.303183
v -128.615 -160.354 3.64831
vn 0.415328 0.730903 0.541557
v -128.532 -160.212 3.39389
vn -0.395341 0.486118 0.779355
v -128.532 -160.212 3.39389
vn 0.473051 -0.597759 0.64723
v -128.532 -160.212 3.39389
vn 0.943896 -0.0151003 0.329898
v -128.478 -160.29 3.23591
vn 0.0521879 -0.496871 -0.866254
v -128.365 -160.245 3.07956
vn -0.067097 -0.976165 0.206399
v -128.365 -160.245 3.07956
vn 0.545153 -0.383531 0.745461
v -128.416 -160.086 3.37401
vn -0.394758 -0.822803 0.408853
v -128.416 -160.086 3.37401
vn -0.309158 -0.882658 0.354029
v -128.305 -160.213 3.22733
vn -0.166221 -0.0102709 0.986035
v -128.092 -160.172 3.51533
vn -0.159573 0.943303 0.291059
v -128.054 -159.926 3.5242
vn 0.399363 0.711328 0.578378
v -128.054 -159.926 3.5242
vn 0.168937 -0.98465 0.0438677
v -128.01 -160.216 3.05586
vn -0.287476 0.604542 -0.742891
v -127.946 -159.914 2.91502
vn 0.319641 -0.94282 -0.0944431
v -127.686 -160.105 3.03831
vn 0.941551 -0.336086 0.022966
v -127.686 -160.105 3.03831
vn 0.850307 0.467874 0.240984
v -127.64 -159.966 3.19212
vn -0.114568 0.450391 0.88545
v -127.64 -159.966 3.19212
vn 0.34111 -0.936422 0.0822043
v -127.64 -159.966 3.19212
vn -0.159573 0.943303 0.291059
v -127.733 -159.729 3.05927
vn 0.399363 0.711328 0.578378
v -127.733 -159.729 3.05927
vn 0.850307 0.467874 0.240984
v -127.733 -159.729 3.05927
vn -0.114568 0.450391 0.88545
v -127.733 -159.729 3.05927
vn -0.601344 0.00939698 0.798935
v -127.733 -159.729 3.05927
vn 0.399363 0.711328 0.578378
v -127.632 -160.131 3.48489
vn 0.20954 -0.977755 0.00934339
v -127.632 -160.131 3.48489
vn 0.975332 -0.179831 -0.128017
v -127.632 -160.131 3.48489
vn 0.850307 0.467874 0.240984
v -127.632 -160.131 3.48489
vn 0.862244 -0.476091 0.172838
v -127.611 -159.969 3.03941
vn 0.357228 -0.931926 0.062468
v -127.611 -159.969 3.03941
vn 0.373107 -0.926806 0.0426898
v -127.471 -159.913 3.03219
vn -0.321342 -0.569102 -0.756876
v -127.471 -159.913 3.03219
vn -0.191353 -0.975824 0.1056
v -127.471 -159.913 3.03219
vn 0.357228 -0.931926 0.062468
v -127.455 -159.9 3.18224
vn -0.572506 -0.425216 0.701019
v -127.455 -159.9 3.18224
vn -0.167545 -0.967123 0.191316
v -127.455 -159.9 3.18224
vn 0.0327739 -0.951745 0.305136
v -126.591 -160.093 2.96183
vn 0.164272 -0.939335 -0.301107
v -126.591 -160.093 2.96183
vn -0.416079 0.83724 -0.354836
v -127.571 -159.667 2.95551
vn -0.60969 -0.451752 -0.651305
v -127.571 -159.667 2.95551
vn -0.21303 0.701058 -0.680541
v -127.433 -159.699 2.84785
vn 0.0615804 0.0137348 -0.998008
v -127.433 -159.699 2.84785
vn -0.667171 0.412563 -0.620221
v -126.983 -159.048 3.18893
vn -0.949843 0.0799054 0.302348
v -126.983 -159.048 3.18893
vn -0.120105 0.059087 -0.991001
v -127.143 -159.786 2.86453
vn -0.35224 0.574879 -0.738539
v -127.1 -159.612 2.86961
vn -0.978287 -0.00567921 0.207176
v -127.015 -159.344 3.02679
vn -0.569989 0.800096 0.186972
v -127.015 -159.344 3.02679
vn -0.429286 0.428201 0.795209
v -126.921 -159.381 3.47006
vn -0.807871 0.0362066 0.588247
v -126.921 -159.381 3.47006
vn -0.789722 0.134719 0.59849
v -126.893 -159.234 3.47494
vn 0.0960767 -0.13317 0.986425
v -126.939 -159.845 3.63655
vn -0.017826 -0.941535 0.336445
v -126.939 -159.845 3.63655
vn 0.123623 -0.0245763 0.992025
v -126.902 -159.7 3.65248
vn -0.920375 -0.231098 -0.315441
v -126.845 -159.229 2.92024
vn -0.307736 0.457722 0.83414
v -126.693 -159.465 3.60057
vn -0.416052 -0.166183 0.894027
v -126.693 -159.465 3.60057
vn -0.351017 -0.0117115 -0.936296
v -126.533 -159.764 2.67561
vn 0.147583 -0.912235 0.382159
v -126.468 -159.808 3.59576
vn -0.0158565 -0.289075 0.957175
v -126.468 -159.808 3.59576
vn -0.829224 0.0352509 0.557804
v -127.273 -158.656 3.52878
vn -0.584311 0.223356 0.780188
v -127.148 -158.248 3.68964
vn -0.42975 0.867308 -0.251181
v -127.148 -158.248 3.68964
vn -0.36012 0.858794 0.364399
v -127.148 -158.248 3.68964
vn -0.677517 0.0745268 0.731721
v -127.115 -158.722 3.76828
vn -0.42975 0.867308 -0.251181
v -126.906 -158.292 3.12369
vn -0.0249275 -0.333056 0.942577
v -126.549 -158.408 4.04807
vn -0.34035 -0.612592 -0.713367
v -125.796 -159.475 2.3327
vn -0.852222 -0.166404 -0.496012
v -125.439 -159.718 2.29621
vn -0.852222 -0.166404 -0.496012
v -125.332 -159.74 2.11948
vn -0.0755908 -0.284754 -0.955616
v -125.332 -159.74 2.11948
vn 0.12602 -0.920216 0.370569
v -125.487 -159.878 2.89423
vn -0.504141 0.312895 -0.804947
v -125.347 -159.112 1.93353
vn -0.852222 -0.166404 -0.496012
v -125.347 -159.112 1.93353
vn -0.202639 -0.306663 -0.929997
v -125.347 -159.112 1.93353
vn -0.526357 0.806457 0.269397
v -124.557 -157.044 3.41321
vn -0.381457 0.668587 -0.638343
v -124.557 -157.044 3.41321
vn -0.437931 0.853212 0.283277
v -125.268 -157.649 4.13698
vn 0.012877 0.0388585 0.999162
v -125.268 -157.649 4.13698
vn -0.177709 0.199299 0.96369
v -124.401 -157.089 4.00231
vn -0.202639 -0.306663 -0.929997
v -125.19 -159.795 2.12457
vn 0.307879 -0.714847 -0.627857
v -125.19 -159.795 2.12457
vn -0.10016 -0.991675 0.0809227
v -125.202 -159.892 2.27141
vn 0.277119 -0.811858 -0.513899
v -125.202 -159.892 2.27141
vn 0.341719 -0.939617 0.0186674
v -124.877 -159.862 2.40042
vn 0.635939 -0.76982 -0.0543958
v -124.329 -159.484 2.2291
vn -0.326186 -0.323274 -0.888311
v -124.917 -159.216 1.81375
vn 0.39012 -0.202079 -0.898315
v -124.917 -159.216 1.81375
vn -0.258712 -0.123972 0.957966
v -124.793 -159.299 3.57466
vn 0.230032 0.164327 -0.959209
v -124.428 -157.954 2.06198
vn -0.425082 0.637981 -0.642094
v -124.428 -157.954 2.06198
vn 0.304347 -0.368932 0.878215
v -124.329 -157.609 4.12333
vn -0.623326 0.694845 -0.358685
v -123.044 -155.727 3.97065
vn -0.723854 0.487218 0.488522
v -122.84 -155.945 4.3977
vn 0.233567 -0.357872 0.904087
v -122.84 -155.945 4.3977
vn -0.518951 0.09369 0.849654
v -122.84 -155.945 4.3977
vn -0.878875 0.396439 0.265358
v -120.85 -153.067 5.2958
vn -0.462638 -0.154602 0.872963
v -120.85 -153.067 5.2958
vn -0.76901 0.618008 -0.163368
v -120.838 -152.747 4.85832
vn -0.425082 0.637981 -0.642094
v -120.838 -152.747 4.85832
vn -0.844783 0.450557 -0.288685
v -120.838 -152.747 4.85832
vn -0.563009 -0.182753 0.805991
v -118.023 -142.883 8.43437
vn -0.74473 0.557742 -0.36647
v -117.952 -139.961 8.41589
vn -0.0531716 0.314044 -0.947918
v -117.952 -139.961 8.41589
vn -0.942021 0.100716 -0.320083
v -117.952 -139.961 8.41589
vn -0.590477 0.154416 -0.792144
v -117.952 -139.961 8.41589
vn -0.921649 0.303467 -0.241807
v -117.641 -138.833 9.50063
vn -0.552509 -0.0856743 0.829092
v -117.641 -138.833 9.50063
vn -0.899393 0.394243 0.18885
v -117.641 -138.833 9.50063
vn -0.925871 0.368723 0.0824933
v -116.93 -137.169 9.98016
vn -0.37931 0.721509 -0.579266
v -116.722 -136.395 8.19535
vn -0.81223 0.508792 0.28533
v -116.557 -135.664 8.2181
vn -0.00189054 0.445078 -0.89549
v -116.557 -135.664 8.2181
vn -0.88801 0.124784 -0.44257
v -116.799 -136.679 7.97933
vn -0.284878 0.540129 -0.791899
v -116.759 -136.539 8.04071
vn -0.703878 0.2288 -0.672463
v -116.473 -135.693 8.51183
vn 0.343314 0.270248 -0.899501
v -116.657 -136.713 7.92773
vn -0.320938 0.585713 -0.744271
v -116.584 -136.454 8.03237
vn -0.154992 0.23096 -0.960539
v -116.584 -136.454 8.03237
vn 0.378098 0.169759 -0.910068
v -116.584 -136.454 8.03237
vn 0.528364 0.117646 -0.840827
v -116.424 -135.85 8.15175
vn 0.591345 0.131306 -0.795657
v -116.385 -135.71 8.20377
vn 0.15891 0.710393 -0.68563
v -116.413 -135.55 8.36381
vn -0.0736211 0.203872 -0.976225
v -116.413 -135.55 8.36381
vn -0.703878 0.2288 -0.672463
v -116.26 -135.28 8.42911
vn -0.205089 0.217602 -0.954247
v -116.26 -135.28 8.42911
vn -0.91801 0.387535 0.0841047
v -115.972 -134.963 10.977
vn 0.22943 0.0167869 0.97318
v -115.723 -134.405 10.928
vn -0.346875 -0.318025 0.882348
v -115.723 -134.405 10.928
vn 0.458185 -0.148269 -0.876403
v -121.108 -156.503 3.34639
vn 0.0489483 -0.378045 0.924492
v -120.481 -155.771 4.69144
vn 0.187465 0.174706 -0.96661
v -121.23 -154.313 3.56237
vn -0.844783 0.450557 -0.288685
v -121.23 -154.313 3.56237
vn -0.493411 0.511595 -0.703432
v -121.23 -154.313 3.56237
vn -0.421425 -0.218822 0.880067
v -120.194 -153.233 5.36765
vn -0.556054 0.023381 0.830817
v -120.19 -153.854 5.40414
vn -0.924669 0.319134 0.207705
v -119.033 -148.446 6.28771
vn -0.729623 0.0163316 0.683654
v -119.033 -148.446 6.28771
vn -0.652668 0.42786 -0.625268
v -119.033 -148.446 6.28771
vn -0.576531 -0.176881 0.7977
v -118.267 -145.581 7.57239
vn -0.883049 0.261077 -0.389953
v -118.267 -145.581 7.57239
vn -0.995557 0.0858557 -0.0386633
v -116.883 -142.204 7.18177
vn 0.183357 0.709484 -0.68045
v -116.191 -135.605 8.36554
vn -0.115031 0.153413 -0.981444
v -116.191 -135.605 8.36554
vn -0.398515 0.83946 0.36945
v -114.989 -133.06 11.5286
vn -0.899719 0.408328 -0.154188
v -114.989 -133.06 11.5286
vn -0.730066 0.103652 0.67547
v -114.989 -133.06 11.5286
vn -0.398515 0.83946 0.36945
v -114.937 -132.91 11.2439
vn -0.870378 0.486338 -0.0769263
v -115.167 -133.172 11.5913
vn 0.420309 -0.16754 0.89178
v -115.167 -133.172 11.5913
vn -0.398515 0.83946 0.36945
v -115.167 -133.172 11.5913
vn -0.325525 0.127664 -0.936875
v -114.745 -129.943 8.65982
vn -0.89314 0.326847 0.308984
v -114.745 -129.943 8.65982
vn 0.556305 0.172176 -0.812946
v -114.745 -129.943 8.65982
vn -0.463023 0.831135 -0.307937
v -114.745 -129.943 8.65982
vn -0.463023 0.831135 -0.307937
v -114.272 -129.46 9.25128
vn -0.461667 0.580271 -0.670932
v -114.272 -129.46 9.25128
vn -0.848725 0.32213 0.419401
v -114.11 -129.195 9.40285
vn -0.956936 0.29028 0.00328946
v -114.11 -129.195 9.40285
vn -0.483958 0.0292551 -0.874602
v -114.11 -129.195 9.40285
vn -0.463023 0.831135 -0.307937
v -114.076 -129.354 9.24246
vn -0.293345 -0.183836 -0.938165
v -114.058 -129.206 9.32338
vn -0.293345 -0.183836 -0.938165
v -113.528 -128.868 9.09141
vn -0.18443 0.0995878 -0.977787
v -113.528 -128.868 9.09141
vn -0.802057 0.2264 0.552673
v -113.805 -128.19 9.42852
vn -0.975267 0.218142 0.035605
v -113.825 -128.253 9.27641
vn -0.618305 0.454082 -0.641489
v -112.911 -128.045 12.6842
vn -0.730066 0.103652 0.67547
v -113.105 -128.31 12.8359
vn -0.987177 0.144567 0.0676861
v -113.726 -127.587 9.30065
vn -0.804078 0.201603 0.559299
v -113.726 -127.587 9.30065
vn -0.86865 0.368181 -0.331497
v -113.726 -127.587 9.30065
vn -0.730066 0.103652 0.67547
v -112.903 -127.901 12.9914
vn -0.106812 -0.313812 0.943458
v -112.903 -127.901 12.9914
vn -0.711543 0.00515703 0.702624
v -112.903 -127.901 12.9914
vn -0.86865 0.368181 -0.331497
v -112.428 -123.91 9.98383
vn 0.0346432 0.76588 -0.64205
v -112.428 -123.91 9.98383
vn -0.272344 -0.20309 -0.940523
v -112.428 -123.91 9.98383
vn -0.878569 0.43313 -0.201283
v -112.428 -123.91 9.98383
vn -0.86865 0.368181 -0.331497
v -112.424 -124.042 9.82683
vn 0.0346432 0.76588 -0.64205
v -112.424 -124.042 9.82683
vn -0.403492 0.640271 -0.653642
v -112.349 -123.774 9.93144
vn -0.878569 0.43313 -0.201283
v -112.349 -123.774 9.93144
vn 0.280487 0.130486 -0.950947
v -112.349 -123.774 9.93144
vn 0.470329 0.676256 -0.566982
v -112.234 -123.649 9.9824
vn -0.403492 0.640271 -0.653642
v -112.234 -123.649 9.9824
vn 0.258788 0.131655 -0.95692
v -112.234 -123.649 9.9824
vn -0.0227357 0.958126 -0.285441
v -112.305 -123.633 10.0419
vn -0.403492 0.640271 -0.653642
v -112.305 -123.633 10.0419
vn -0.878569 0.43313 -0.201283
v -112.305 -123.633 10.0419
vn -0.272344 -0.20309 -0.940523
v -112.238 -123.956 9.93893
vn 0.31315 0.107675 -0.94358
v -112.238 -123.956 9.93893
vn -0.0227357 0.958126 -0.285441
v -112.016 -123.558 10.2724
vn 0.470329 0.676256 -0.566982
v -112.016 -123.558 10.2724
vn 0.117088 0.0706281 -0.990607
v -112.016 -123.558 10.2724
vn -0.742659 0.439417 -0.505341
v -112.016 -123.558 10.2724
vn -0.995687 0.038811 0.0842724
v -111.228 -122.654 14.926
vn -0.589995 0.245879 0.769058
v -111.228 -122.654 14.926
vn -0.571667 0.722707 0.388448
v -111.228 -122.654 14.926
vn 0.845975 -0.440294 -0.300777
v -118.656 -153.431 4.22112
vn 0.361424 0.0373034 -0.931655
v -117.91 -149.457 4.76537
vn -0.755068 0.336001 -0.563006
v -117.91 -149.457 4.76537
vn 0.388767 -0.296239 0.872412
v -117.055 -147.038 7.87043
vn -0.825444 0.287611 -0.485719
v -117.591 -146.178 6.29375
vn -0.660441 0.0950461 -0.744838
v -117.033 -143.712 7.12157
vn -0.969075 0.185796 -0.162402
v -117.033 -143.712 7.12157
vn -0.363708 0.271311 -0.891127
v -115.981 -142.255 6.48196
vn -0.346875 -0.318025 0.882348
v -114.312 -137.45 10.3849
vn 0.215593 -0.214904 0.952542
v -114.312 -137.45 10.3849
vn -0.293345 -0.183836 -0.938165
v -113.088 -129.598 9.09686
vn 0.104419 -0.358997 0.927479
v -111.564 -124.563 14.3227
vn -0.110216 -0.282922 0.952789
v -111.564 -124.563 14.3227
vn -0.129285 -0.363495 0.922581
v -111.225 -123.268 14.7464
vn -0.930312 0.00788891 0.366685
v -111.273 -123.097 14.6072
vn -0.672128 0.404925 -0.619903
v -111.273 -123.097 14.6072
vn -0.187128 -0.340419 0.921465
v -111.23 -122.809 14.9742
vn -0.589995 0.245879 0.769058
v -111.23 -122.809 14.9742
vn 0.302968 0.699264 -0.647488
v -111.094 -122.763 14.6103
vn 0.314548 0.316764 -0.89483
v -111.094 -122.763 14.6103
vn 0.130524 0.494123 -0.859538
v -111.018 -122.51 14.7674
vn 0.343104 0.883486 -0.318956
v -111.018 -122.51 14.7674
vn -0.571667 0.722707 0.388448
v -110.994 -122.464 14.9184
vn 0.477543 0.854306 -0.205217
v -110.994 -122.464 14.9184
vn 0.571429 0.690863 0.442918
v -110.994 -122.464 14.9184
vn -0.571667 0.722707 0.388448
v -111.004 -122.551 15.0655
vn 0.627874 0.548878 0.551821
v -111.004 -122.551 15.0655
vn -0.247177 -0.122807 0.961156
v -111.004 -122.551 15.0655
vn 0.676511 -0.398465 0.61932
v -111.063 -123.309 14.7531
vn 0.898366 0.433442 0.071172
v -110.899 -123.19 14.5766
vn 0.924299 0.049218 -0.378483
v -110.899 -123.19 14.5766
vn -0.61314 0.393272 -0.685125
v -111 -122.957 14.4441
vn 0.302968 0.699264 -0.647488
v -111 -122.957 14.4441
vn 0.898366 0.433442 0.071172
v -111 -122.957 14.4441
vn 0.86457 0.0982095 -0.492822
v -111 -122.957 14.4441
vn 0.247785 -0.0647901 0.966646
v -111 -122.957 14.4441
vn -0.547075 0.390643 0.740343
v -111 -122.957 14.4441
vn 0.477634 0.118318 -0.870555
v -110.853 -122.742 14.7449
vn 0.921154 0.0840899 -0.380006
v -110.853 -122.742 14.7449
vn -0.20638 -0.287552 0.935265
v -110.896 -122.741 15.069
vn 0.662215 0.38757 0.641297
v -110.896 -122.741 15.069
vn 0.477543 0.854306 -0.205217
v -110.878 -122.568 14.7548
vn 0.911581 0.152865 -0.381645
v -110.878 -122.568 14.7548
vn 0.94399 0.0764809 -0.320987
v -110.812 -122.603 14.8991
vn 0.933393 -0.267895 0.238766
v -110.812 -122.603 14.8991
vn 0.596767 0.797907 -0.0849389
v -110.812 -122.603 14.8991
vn 0.141469 -0.1039 0.984475
v -110.798 -123.364 14.3649
vn 0.768653 -0.264418 0.582457
v -110.798 -123.364 14.3649
vn -0.616128 0.297556 0.729278
v -110.359 -121.529 14.1648
vn -0.894092 0.364714 0.259968
v -110.498 -120.244 10.9231
vn -0.748432 0.382238 -0.541982
v -110.295 -120.135 10.7199
vn -0.341257 0.283105 -0.896323
v -110.295 -120.135 10.7199
vn -0.909713 0.360803 0.20553
v -109.789 -120.213 14.337
vn -0.895439 0.356864 0.266152
v -110.026 -119.125 10.9365
vn -0.484367 0.357724 -0.798388
v -110.026 -119.125 10.9365
vn 0.260593 0.0409505 -0.96458
v -109.475 -118.183 11.0242
vn -0.91405 0.314223 -0.256471
v -109.475 -118.183 11.0242
vn -0.0467033 -0.0174705 -0.998756
v -109.475 -118.183 11.0242
vn 0.77822 -0.0188121 -0.62771
v -109.475 -118.183 11.0242
vn -0.610214 0.419593 -0.671998
v -109.344 -117.604 11.2667
vn 0.017701 0.15545 -0.987685
v -108.855 -116.329 11.0845
vn -0.684804 0.589803 -0.42799
v -108.855 -116.329 11.0845
vn -0.607384 0.51995 -0.600614
v -108.639 -115.926 11.2958
vn 0.844649 -0.277352 -0.457869
v -117.912 -151.928 4.66375
vn 0.521068 -0.0609419 -0.851337
v -116.9 -149.881 5.31776
vn 0.913892 -0.279013 -0.294878
v -116.318 -148.017 5.36412
vn 0.697435 -0.017719 -0.716429
v -116.318 -148.017 5.36412
vn 0.63283 0.0122936 -0.774193
v -115.375 -142.247 6.28447
vn 0.506418 0.0964473 -0.856878
v -114.337 -138.355 7.15749
vn 0.959338 -0.261967 0.105093
v -110.645 -128.436 11.9042
vn 0.70348 0.265896 -0.659102
v -109.625 -124.986 12.1448
vn 0.776117 -0.384584 0.499738
v -109.625 -124.986 12.1448
vn 0.734334 -0.457204 0.501716
v -109.206 -123.708 12.4762
vn 0.737186 -0.445196 0.508289
v -109.403 -123.517 12.9301
vn 0.756596 -0.648507 -0.0836765
v -109.403 -123.517 12.9301
vn 0.655135 -0.328617 -0.680301
v -109.403 -123.517 12.9301
vn 0.761996 -0.321544 -0.562113
v -109.212 -123.414 13.065
vn 0.764843 -0.15407 -0.625522
v -109.178 -123.267 13.026
vn -0.288454 0.179417 -0.940534
v -109.542 -122.188 10.994
vn -0.541193 0.21886 -0.811918
v -109.388 -121.612 11.1255
vn -0.25506 0.0802857 -0.963586
v -109.435 -122.368 10.9499
vn -0.287566 0.0137016 -0.957663
v -109.422 -121.141 11.1791
vn 0.867711 -0.489242 0.0878633
v -108.559 -120.81 13.6203
vn 0.839173 -0.186346 -0.510944
v -108.559 -120.81 13.6203
vn -0.172945 -0.135382 0.975583
v -109.14 -121.159 14.6739
vn -0.772679 0.136457 -0.619957
v -108.858 -120.037 10.9361
vn -0.374497 -0.0360609 0.926526
v -108.09 -119.589 15.1499
vn 0.471986 -0.295076 0.830758
v -108.037 -118.826 15.39
vn 0.606449 -0.474112 0.638308
v -108.037 -118.826 15.39
vn 0.395025 0.0616248 0.916601
v -108.037 -118.826 15.39
vn 0.969194 0.162634 0.184968
v -108.037 -118.826 15.39
vn -0.87044 0.229377 0.435569
v -108.657 -117.885 14.9686
vn -0.922422 0.33966 0.183765
v -108.562 -117.445 14.9825
vn -0.447994 0.123025 0.885532
v -108.562 -117.445 14.9825
vn 0.210514 -0.475021 0.854423
v -108.562 -117.445 14.9825
vn -0.208032 0.196392 0.958203
v -107.864 -118.092 15.2665
vn 0.712237 -0.392594 0.581884
v -107.864 -118.092 15.2665
vn 0.521527 0.639437 0.564916
v -107.864 -118.092 15.2665
vn -0.607384 0.51995 -0.600614
v -108.418 -115.672 11.2922
vn 0.90115 -0.0424436 -0.431424
v -107.964 -116.559 11.2964
vn 0.0578715 -0.0688378 -0.995948
v -107.754 -115.85 11.7134
vn 0.477447 -0.0487623 -0.877306
v -107.754 -115.85 11.7134
vn -0.370141 -0.0480654 0.927731
v -107.804 -115.939 15.1566
vn -0.886892 0.386515 0.25304
v -107.804 -115.939 15.1566
vn -0.50526 0.428948 -0.748809
v -107.839 -114.434 11.6105
vn 0.256322 0.126537 -0.958273
v -107.839 -114.434 11.6105
vn -0.868073 0.395848 0.299591
v -107.839 -114.434 11.6105
vn 0.144649 0.0304306 -0.989015
v -107.839 -114.434 11.6105
vn -0.278551 -0.217372 0.935499
v -106.533 -113.624 16.0727
vn 0.402921 -0.189276 0.895449
v -106.533 -113.624 16.0727
vn 0.143339 0.273245 0.951205
v -106.533 -113.624 16.0727
vn -0.823618 0.393099 0.40881
v -106.671 -112.268 12.1775
vn 0.842666 -0.0149833 -0.538229
v -106.671 -112.268 12.1775
vn 0.0176866 0.0481626 -0.998683
v -106.671 -112.268 12.1775
vn -0.588719 0.50069 -0.634602
v -106.671 -112.268 12.1775
vn -0.765813 0.594842 -0.244322
v -106.52 -113.498 15.9271
vn 0.92456 -0.301216 -0.233363
v -114.556 -144.349 7.67013
vn 0.873594 -0.32906 0.358544
v -114.556 -144.349 7.67013
vn 0.642341 -0.053735 -0.764533
v -114.14 -143.053 7.40054
vn 0.820996 -0.517302 0.241588
v -113.547 -141.608 7.72763
vn 0.622227 -0.254867 -0.740187
v -113.547 -141.608 7.72763
vn 0.900903 -0.428771 0.0672965
v -113.303 -141.261 7.72666
vn 0.836931 -0.10394 -0.537348
v -113.303 -141.261 7.72666
vn 0.852339 -0.127791 -0.507136
v -112.434 -137.319 8.31722
vn 0.852339 -0.127791 -0.507136
v -112.045 -136.502 8.76451
vn 0.857185 -0.300282 0.418407
v -112.045 -136.502 8.76451
vn 0.866282 -0.151422 -0.476054
v -110.937 -132.001 9.34914
vn 0.962671 -0.258732 0.0795171
v -110.937 -132.001 9.34914
vn 0.894421 -0.406744 0.185934
v -109.894 -126.601 11.4858
vn 0.232333 0.116386 -0.965648
v -109.406 -125.213 10.4628
vn 0.514053 0.121486 -0.849111
v -109.406 -125.213 10.4628
vn 0.407554 0.158105 -0.89939
v -109.406 -125.213 10.4628
vn -0.124395 0.166212 -0.978212
v -109.406 -125.213 10.4628
vn 0.946696 -0.184443 -0.264098
v -109.406 -125.213 10.4628
vn 0.916064 -0.0485459 -0.398083
v -109.606 -125.613 12.2646
vn 0.0859049 0.0250504 -0.995988
v -109.093 -124.151 10.7916
vn 0.899337 -0.205811 -0.385792
v -109.093 -124.151 10.7916
vn 0.90837 -0.200351 -0.367048
v -108.977 -124.189 11.0827
vn 0.57446 0.262866 -0.775176
v -109.15 -124.199 12.9009
vn 0.969414 -0.204598 -0.135557
v -109.15 -124.199 12.9009
vn 0.506002 -0.396493 0.766
v -109.104 -124.064 13.205
vn 0.797841 -0.0964167 -0.595109
v -108.858 -122.894 13.3931
vn 0.963363 -0.156629 -0.217715
v -108.858 -122.894 13.3931
vn 0.702035 -0.424325 0.571923
v -108.612 -122.041 13.8674
vn 0.735263 0.0356259 -0.676845
v -108.473 -121.458 13.885
vn 0.884542 -0.260482 -0.386956
v -107.661 -120.512 11.6141
vn 0.864626 -0.403891 0.298819
v -107.661 -120.512 11.6141
vn 0.837999 -0.208998 -0.504061
v -107.661 -120.512 11.6141
vn 0.922248 -0.121987 -0.366849
v -107.821 -119.642 14.9779
vn 0.969194 0.162634 0.184968
v -107.821 -119.642 14.9779
vn 0.521468 -0.636578 0.56819
v -106.992 -118.259 13.178
vn 0.606449 -0.474112 0.638308
v -107.849 -119.322 14.8444
vn 0.905961 -0.0922242 -0.413193
v -107.849 -119.322 14.8444
vn 0.969194 0.162634 0.184968
v -107.849 -119.322 14.8444
vn 0.606449 -0.474112 0.638308
v -107.332 -118.375 15.0558
vn 0.395025 0.0616248 0.916601
v -107.332 -118.375 15.0558
vn 0.543525 0.558719 0.626429
v -107.332 -118.375 15.0558
vn 0.839173 -0.186346 -0.510944
v -107.402 -118.188 14.565
vn 0.831893 0.373647 -0.410295
v -107.402 -118.188 14.565
vn 0.831893 0.373647 -0.410295
v -107.391 -118.041 14.7217
vn 0.493906 0.713259 0.497311
v -107.391 -118.041 14.7217
vn 0.871908 -0.483867 0.0751568
v -107.238 -118.237 14.8522
vn 0.831893 0.373647 -0.410295
v -107.238 -118.237 14.8522
vn 0.521527 0.639437 0.564916
v -107.238 -118.237 14.8522
vn 0.433256 -0.544805 0.717967
v -106.817 -116.341 15.1667
vn -0.218443 0.185145 0.958125
v -106.817 -116.341 15.1667
vn 0.912734 -0.40848 0.00772868
v -106.016 -116.086 14.7165
vn 0.668564 -0.146969 -0.728987
v -107.1 -115.086 11.6985
vn 0.0176866 0.0481626 -0.998683
v -106.858 -115.465 12.02
vn 0.485702 -0.377623 0.788349
v -106.489 -115.202 15.7192
vn 0.173822 0.310881 0.934419
v -105.945 -112.864 15.7658
vn -0.5706 0.646711 0.506143
v -105.945 -112.864 15.7658
vn -0.337376 0.848335 0.40805
v -105.945 -112.864 15.7658
vn -0.476506 0.73531 0.481934
v -105.682 -112.612 15.4581
vn -0.412148 0.662756 0.62521
v -105.583 -112.641 15.6003
vn 0.413739 -0.034448 0.909744
v -105.583 -112.641 15.6003
vn 0.668378 -0.424159 0.611032
v -105.583 -112.641 15.6003
vn 0.33202 0.288036 0.898219
v -105.65 -113.094 15.7872
vn 0.0176866 0.0481626 -0.998683
v -106.064 -111.493 12.2256
vn -0.496085 0.51357 -0.700104
v -106.064 -111.493 12.2256
vn -0.496085 0.51357 -0.700104
v -105.992 -111.207 12.3845
vn 0.103028 -0.196106 -0.975155
v -105.992 -111.207 12.3845
vn -0.735581 0.254255 -0.627914
v -105.992 -111.207 12.3845
vn -0.623252 0.256378 0.738801
v -105.528 -111.658 12.9328
vn -0.802189 0.139251 0.580605
v -105.528 -111.658 12.9328
vn -0.43874 0.710708 -0.549911
v -105.528 -111.658 12.9328
vn 0.939257 -0.127266 0.318746
v -105.528 -111.658 12.9328
vn 0.220511 0.646838 0.730052
v -105.528 -111.658 12.9328
vn 0.826861 -0.099544 -0.553527
v -105.528 -111.658 12.9328
vn -0.351122 0.315576 0.881547
v -105.528 -111.658 12.9328
vn -0.43874 0.710708 -0.549911
v -105.447 -111.853 12.6169
vn 0.939257 -0.127266 0.318746
v -105.447 -111.853 12.6169
vn -0.739692 0.508907 -0.440306
v -105.141 -111.44 13.0664
vn -0.661752 0.197827 0.723152
v -105.899 -110.921 12.3913
vn 0.243117 0.969582 0.0283687
v -105.899 -110.921 12.3913
vn 0.220511 0.646838 0.730052
v -105.899 -110.921 12.3913
vn -0.396982 0.519755 -0.756479
v -105.83 -111.092 12.3785
vn 0.103028 -0.196106 -0.975155
v -105.83 -111.092 12.3785
vn -0.802189 0.139251 0.580605
v -105.83 -111.092 12.3785
vn 0.731462 -0.0811872 -0.677031
v -105.83 -111.092 12.3785
vn -0.735581 0.254255 -0.627914
v -105.86 -110.929 12.3426
vn 0.243117 0.969582 0.0283687
v -105.86 -110.929 12.3426
vn 0.618003 -0.0608259 -0.783819
v -105.86 -110.929 12.3426
vn 0.220511 0.646838 0.730052
v -105.809 -110.943 12.384
vn 0.731462 -0.0811872 -0.677031
v -105.809 -110.943 12.384
vn -0.210123 0.257968 -0.943028
v -105.645 -110.679 12.5354
vn -0.351122 0.315576 0.881547
v -105.645 -110.679 12.5354
vn 0.00726123 0.339803 -0.940469
v -105.645 -110.679 12.5354
vn -0.593007 0.125448 0.795365
v -105.645 -110.679 12.5354
vn -0.540691 0.741248 -0.397749
v -105.645 -110.679 12.5354
vn -0.186095 -0.888126 0.420239
v -105.645 -110.679 12.5354
vn 0.00726123 0.339803 -0.940469
v -105.384 -110.744 12.514
vn -0.186095 -0.888126 0.420239
v -105.384 -110.744 12.514
vn 0.879534 -0.128414 0.458181
v -105.384 -110.744 12.514
vn -0.49992 0.312301 -0.807804
v -105.454 -110.654 12.6737
vn 0.0699299 -0.943309 -0.324466
v -105.454 -110.654 12.6737
vn -0.186095 -0.888126 0.420239
v -105.454 -110.654 12.6737
vn 0.879534 -0.128414 0.458181
v -105.454 -110.654 12.6737
vn 0.458621 -0.20904 0.863695
v -105.454 -110.654 12.6737
vn -0.540691 0.741248 -0.397749
v -105.451 -110.571 12.4714
vn 0.478609 0.0307054 -0.877491
v -105.451 -110.571 12.4714
vn 0.00874279 0.807198 -0.590216
v -105.451 -110.571 12.4714
vn 0.0699299 -0.943309 -0.324466
v -105.365 -110.594 12.5197
vn 0.879534 -0.128414 0.458181
v -105.365 -110.594 12.5197
vn -0.540691 0.741248 -0.397749
v -105.396 -110.419 12.6805
vn 0.394044 -0.125427 0.910493
v -105.396 -110.419 12.6805
vn 0.00874279 0.807198 -0.590216
v -105.396 -110.419 12.6805
vn -0.49992 0.312301 -0.807804
v -105.335 -110.758 12.5593
vn 0.517075 -0.289863 0.805365
v -105.335 -110.758 12.5593
vn 0.0699299 -0.943309 -0.324466
v -105.296 -110.614 12.5912
vn 0.785388 -0.0987533 -0.611075
v -105.296 -110.614 12.5912
vn -0.351122 0.315576 0.881547
v -105.258 -110.469 12.6143
vn 0.00726123 0.339803 -0.940469
v -105.258 -110.469 12.6143
vn 0.667237 -0.0344179 -0.744049
v -105.258 -110.469 12.6143
vn 0.458621 -0.20904 0.863695
v -105.258 -110.469 12.6143
vn 0.68395 0.00104621 -0.729528
v -105.258 -110.469 12.6143
vn 0.00874279 0.807198 -0.590216
v -105.258 -110.469 12.6143
vn -0.43874 0.710708 -0.549911
v -104.979 -111.322 12.9302
vn -0.519126 0.846897 0.115209
v -104.979 -111.322 12.9302
vn -0.604282 0.584757 -0.541206
v -104.979 -111.322 12.9302
vn -0.103699 0.0151534 -0.994493
v -104.979 -111.322 12.9302
vn -0.806457 0.535832 0.250022
v -104.96 -111.176 13.066
vn -0.768841 0.639414 0.00577549
v -104.667 -111.31 15.1466
vn 0.916491 -0.398241 0.0380563
v -105.474 -114.91 12.9271
vn -0.103699 0.0151534 -0.994493
v -105.474 -114.91 12.9271
vn 0.60338 -0.0377217 -0.796561
v -105.474 -114.91 12.9271
vn 0.664665 -0.12436 -0.736719
v -105.474 -114.91 12.9271
vn 0.958648 -0.232903 -0.163552
v -105.474 -114.91 12.9271
vn 0.913641 -0.318759 0.252296
v -104.136 -111.711 13.7356
vn 0.939179 -0.0669245 -0.336844
v -104.136 -111.711 13.7356
vn 0.620928 0.218919 0.752677
v -104.339 -112.301 14.4749
vn 0.759231 -0.29954 0.577793
v -104.339 -112.301 14.4749
vn -0.103699 0.0151534 -0.994493
v -104.798 -111.212 12.913
vn 0.664665 -0.12436 -0.736719
v -104.798 -111.212 12.913
vn -0.0175938 0.248942 -0.968359
v -104.798 -111.212 12.913
vn 0.953044 -0.237226 -0.188229
v -104.468 -111.157 13.4838
vn -0.248902 0.212082 -0.945023
v -104.276 -110.441 13.805
vn -0.726696 0.615868 0.304333
v -104.276 -110.441 13.805
vn -0.621571 0.653084 -0.432586
v -104.276 -110.441 13.805
vn 0.946812 -0.241392 -0.212783
v -104.303 -110.742 13.7447
vn -0.990511 0.0664862 0.120285
v -104.303 -110.742 13.7447
vn 0.212004 0.194282 -0.957762
v -104.303 -110.742 13.7447
vn -0.682604 0.322566 0.655747
v -104.303 -110.742 13.7447
vn 0.919406 0.152881 0.362381
v -104.303 -110.742 13.7447
vn 0.364743 -0.227583 0.902867
v -104.671 -111.466 15.2301
vn 0.870716 -0.270089 0.410982
v -104.434 -111.522 15.1203
vn 0.860931 -0.190719 0.471619
v -104.45 -111.214 15.2735
vn 0.301249 -0.411672 0.860102
v -104.45 -111.214 15.2735
vn 0.722602 0.305935 0.619879
v -104.45 -111.214 15.2735
vn 0.398311 0.915757 -0.0523294
v -104.441 -111.035 14.8425
vn -0.742261 0.66813 0.0514849
v -104.415 -111.029 15.142
vn 0.398311 0.915757 -0.0523294
v -104.415 -111.029 15.142
vn 0.722602 0.305935 0.619879
v -104.415 -111.029 15.142
vn 0.398311 0.915757 -0.0523294
v -104.285 -111.093 15.0222
vn 0.722602 0.305935 0.619879
v -104.285 -111.093 15.0222
vn -0.362573 0.749949 0.553278
v -104.285 -111.093 15.0222
vn 0.667434 0.544096 0.508421
v -104.285 -111.093 15.0222
vn 0.667434 0.544096 0.508421
v -104.23 -110.712 14.5418
vn 0.19488 0.0674447 0.978505
v -104.23 -110.712 14.5418
vn -0.990511 0.0664862 0.120285
v -104.217 -110.627 14.3942
vn -0.621234 -0.16955 0.765062
v -104.217 -110.627 14.3942
vn -0.647218 0.705626 0.288443
v -104.217 -110.627 14.3942
vn 0.667434 0.544096 0.508421
v -104.11 -110.846 14.527
vn 0.19488 0.0674447 0.978505
v -104.11 -110.846 14.527
vn 0.19488 0.0674447 0.978505
v -104.067 -110.668 14.5063
vn -0.621234 -0.16955 0.765062
v -104.067 -110.668 14.5063
vn 0.860558 -0.33833 0.380752
v -104.067 -110.668 14.5063
vn -0.726696 0.615868 0.304333
v -104.027 -110.526 14.571
vn 0.785034 -0.403717 0.469823
v -104.027 -110.526 14.571
vn 0.880784 0.319332 0.349637
v -104.027 -110.526 14.571
vn 0.850993 -0.352862 0.388972
v -103.879 -110.552 14.2234
vn 0.880784 0.319332 0.349637
v -103.879 -110.552 14.2234
vn -0.79943 0.333468 0.49971
v -104.378 -109.934 13.2338
vn -0.0175938 0.248942 -0.968359
v -104.378 -109.934 13.2338
vn 0.24312 0.969581 0.0283597
v -104.378 -109.934 13.2338
vn 0.953044 -0.237226 -0.188229
v -104.225 -109.972 13.2212
vn -0.0175938 0.248942 -0.968359
v -104.225 -109.972 13.2212
vn 0.24312 0.969581 0.0283597
v -104.225 -109.972 13.2212
vn 0.919406 0.152881 0.362381
v -104.225 -109.972 13.2212
vn 0.24312 0.969581 0.0283597
v -104.288 -109.961 13.3767
vn 0.919406 0.152881 0.362381
v -104.288 -109.961 13.3767
vn 0.947624 -0.039472 -0.31694
v -104.009 -110.198 13.7894
vn -0.621571 0.653084 -0.432586
v -104.009 -110.198 13.7894
vn 0.954911 -0.0119714 -0.296649
v -103.957 -110.04 13.9519
vn -0.795546 0.517102 0.315772
v -103.957 -110.04 13.9519
vn 0.880784 0.319332 0.349637
v -103.957 -110.04 13.9519
f 12//12 8//8 2//2
f 397//397 409//409 10//10
f 397//397 10//10 1//1
f 414//414 11//11 395//395
f 12//12 2//2 3//3
f 400//400 398//398 4//4
f 402//402 399//399 396//396
f 11//11 20//20 395//395
f 5//5 402//402 396//396
f 396//396 432//432 5//5
f 6//6 400//400 4//4
f 403//403 6//6 4//4
f 12//12 3//3 7//7
f 405//405 19//19 407//407
f 401//401 405//405 407//407
f 429//429 406//406 404//404
f 17//17 416//416 408//408
f 417//417 9//9 410//410
f 409//409 411//411 10//10
f 417//417 13//13 9//9
f 412//412 418//418 14//14
f 421//421 415//415 413//413
f 421//421 11//11 415//415
f 421//421 15//15 11//11
f 20//20 11//11 15//15
f 17//17 419//419 416//416
f 420//420 426//426 422//422
f 426//426 16//16 422//422
f 425//425 424//424 423//423
f 18//18 424//424 425//425
f 16//16 426//426 427//427
f 426//426 23//23 427//427
f 20//20 15//15 428//428
f 5//5 432//432 430//430
f 28//28 21//21 431//431
f 445//445 430//430 432//432
f 407//407 19//19 434//434
f 17//17 408//408 435//435
f 438//438 22//22 428//428
f 22//22 20//20 428//428
f 446//446 433//433 437//437
f 435//435 26//26 24//24
f 435//435 24//24 17//17
f 439//439 23//23 426//426
f 441//441 436//436 47//47
f 493//493 21//21 28//28
f 439//439 25//25 23//23
f 440//440 22//22 438//438
f 22//22 440//440 27//27
f 437//437 444//444 446//446
f 26//26 29//29 24//24
f 449//449 25//25 439//439
f 26//26 31//31 29//29
f 30//30 27//27 440//440
f 450//450 30//30 440//440
f 452//452 446//446 444//444
f 456//456 453//453 451//451
f 447//447 454//454 32//32
f 460//460 455//455 457//457
f 458//458 34//34 461//461
f 466//466 33//33 462//462
f 447//447 32//32 463//463
f 38//38 33//33 466//466
f 28//28 35//35 493//493
f 448//448 464//464 468//468
f 459//459 442//442 467//467
f 442//442 36//36 467//467
f 36//36 476//476 467//467
f 469//469 465//465 477//477
f 472//472 443//443 37//37
f 478//478 473//473 474//474
f 443//443 40//40 37//37
f 39//39 475//475 483//483
f 469//469 477//477 480//480
f 39//39 479//479 475//475
f 481//481 42//42 470//470
f 493//493 35//35 50//50
f 40//40 443//443 41//41
f 43//43 40//40 41//41
f 40//40 43//43 482//482
f 484//484 441//441 47//47
f 43//43 486//486 482//482
f 488//488 44//44 487//487
f 42//42 45//45 470//470
f 42//42 489//489 45//45
f 488//488 485//485 44//44
f 484//484 47//47 46//46
f 45//45 489//489 51//51
f 490//490 499//499 471//471
f 44//44 485//485 492//492
f 500//500 491//491 504//504
f 47//47 48//48 46//46
f 492//492 505//505 44//44
f 52//52 48//48 47//47
f 492//492 494//494 505//505
f 506//506 495//495 49//49
f 496//496 501//501 507//507
f 52//52 47//47 56//56
f 497//497 54//54 502//502
f 518//518 493//493 50//50
f 518//518 50//50 59//59
f 495//495 508//508 49//49
f 53//53 52//52 56//56
f 509//509 513//513 498//498
f 509//509 510//510 513//513
f 57//57 62//62 511//511
f 62//62 55//55 511//511
f 511//511 519//519 57//57
f 59//59 520//520 518//518
f 59//59 50//50 65//65
f 74//74 60//60 66//66
f 66//66 76//76 74//74
f 59//59 58//58 520//520
f 503//503 68//68 528//528
f 60//60 74//74 61//61
f 521//521 63//63 524//524
f 520//520 58//58 525//525
f 525//525 59//59 64//64
f 525//525 58//58 59//59
f 69//69 64//64 522//522
f 526//526 529//529 523//523
f 61//61 534//534 60//60
f 66//66 71//71 76//76
f 61//61 80//80 69//69
f 503//503 514//514 67//67
f 55//55 62//62 72//72
f 537//537 524//524 63//63
f 503//503 67//67 68//68
f 64//64 69//69 525//525
f 65//65 527//527 59//59
f 529//529 530//530 523//523
f 529//529 71//71 530//530
f 516//516 515//515 512//512
f 73//73 533//533 531//531
f 73//73 70//70 533//533
f 535//535 528//528 68//68
f 80//80 525//525 69//69
f 71//71 529//529 536//536
f 532//532 515//515 516//516
f 537//537 63//63 80//80
f 532//532 516//516 538//538
f 75//75 77//77 74//74
f 540//540 544//544 541//541
f 544//544 79//79 541//541
f 77//77 80//80 61//61
f 74//74 77//77 61//61
f 79//79 96//96 541//541
f 545//545 542//542 95//95
f 543//543 557//557 555//555
f 80//80 77//77 90//90
f 90//90 77//77 78//78
f 77//77 556//556 78//78
f 90//90 78//78 91//91
f 78//78 556//556 91//91
f 71//71 546//546 76//76
f 71//71 107//107 546//546
f 107//107 558//558 546//546
f 90//90 81//81 80//80
f 86//86 547//547 83//83
f 92//92 83//83 547//547
f 552//552 81//81 90//90
f 83//83 82//82 86//86
f 84//84 99//99 83//83
f 82//82 83//83 99//99
f 82//82 562//562 102//102
f 102//102 87//87 82//82
f 82//82 87//87 86//86
f 553//553 549//549 548//548
f 99//99 84//84 98//98
f 560//560 550//550 554//554
f 516//516 89//89 538//538
f 89//89 516//516 551//551
f 86//86 55//55 72//72
f 87//87 517//517 86//86
f 81//81 537//537 80//80
f 86//86 72//72 547//547
f 539//539 71//71 536//536
f 71//71 539//539 93//93
f 89//89 88//88 539//539
f 539//539 88//88 85//85
f 93//93 539//539 85//85
f 85//85 94//94 93//93
f 88//88 94//94 85//85
f 94//94 88//88 89//89
f 89//89 105//105 94//94
f 106//106 91//91 556//556
f 91//91 552//552 90//90
f 104//104 552//552 106//106
f 91//91 106//106 552//552
f 94//94 107//107 93//93
f 107//107 71//71 93//93
f 105//105 571//571 94//94
f 555//555 557//557 97//97
f 107//107 559//559 558//558
f 108//108 555//555 97//97
f 560//560 554//554 566//566
f 100//100 563//563 561//561
f 102//102 562//562 564//564
f 103//103 102//102 564//564
f 561//561 101//101 100//100
f 567//567 101//101 561//561
f 103//103 564//564 565//565
f 102//102 89//89 551//551
f 105//105 89//89 102//102
f 103//103 105//105 102//102
f 110//110 105//105 103//103
f 110//110 103//103 565//565
f 559//559 107//107 109//109
f 105//105 110//110 133//133
f 572//572 106//106 556//556
f 97//97 573//573 108//108
f 571//571 105//105 574//574
f 573//573 112//112 108//108
f 110//110 565//565 132//132
f 567//567 609//609 101//101
f 569//569 178//178 567//567
f 578//578 106//106 572//572
f 111//111 575//575 568//568
f 579//579 134//134 570//570
f 611//611 178//178 569//569
f 573//573 576//576 112//112
f 136//136 111//111 568//568
f 142//142 113//113 114//114
f 115//115 114//114 113//113
f 582//582 586//586 146//146
f 581//581 143//143 587//587
f 587//587 143//143 117//117
f 587//587 117//117 116//116
f 588//588 589//589 122//122
f 189//189 117//117 143//143
f 193//193 120//120 123//123
f 593//593 586//586 121//121
f 118//118 121//121 586//586
f 586//586 119//119 118//118
f 588//588 122//122 591//591
f 119//119 124//124 118//118
f 127//127 591//591 122//122
f 126//126 592//592 602//602
f 594//594 123//123 120//120
f 123//123 594//594 597//597
f 594//594 590//590 597//597
f 125//125 598//598 592//592
f 126//126 125//125 592//592
f 147//147 596//596 599//599
f 600//600 147//147 599//599
f 600//600 601//601 149//149
f 600//600 149//149 147//147
f 117//117 129//129 116//116
f 129//129 117//117 189//189
f 128//128 127//127 122//122
f 156//156 604//604 595//595
f 602//602 622//622 126//126
f 603//603 150//150 623//623
f 150//150 603//603 605//605
f 150//150 605//605 631//631
f 589//589 606//606 122//122
f 130//130 122//122 606//606
f 131//131 130//130 606//606
f 607//607 129//129 151//151
f 567//567 178//178 609//609
f 133//133 110//110 132//132
f 177//177 133//133 132//132
f 610//610 136//136 568//568
f 135//135 111//111 136//136
f 615//615 138//138 614//614
f 610//610 179//179 136//136
f 612//612 580//580 140//140
f 577//577 614//614 137//137
f 614//614 138//138 139//139
f 139//139 137//137 614//614
f 139//139 180//180 137//137
f 138//138 180//180 139//139
f 615//615 179//179 138//138
f 138//138 179//179 180//180
f 112//112 576//576 616//616
f 182//182 617//617 577//577
f 182//182 577//577 137//137
f 180//180 182//182 137//137
f 617//617 182//182 619//619
f 182//182 189//189 619//619
f 141//141 181//181 618//618
f 141//141 187//187 181//181
f 620//620 141//141 618//618
f 187//187 141//141 191//191
f 583//583 191//191 141//141
f 584//584 141//141 620//620
f 189//189 143//143 619//619
f 683//683 585//585 144//144
f 581//581 619//619 143//143
f 144//144 145//145 685//685
f 146//146 144//144 585//585
f 144//144 146//146 145//145
f 145//145 593//593 685//685
f 146//146 586//586 593//593
f 145//145 146//146 593//593
f 194//194 685//685 148//148
f 189//189 195//195 151//151
f 685//685 596//596 147//147
f 147//147 148//148 685//685
f 623//623 148//148 147//147
f 244//244 194//194 148//148
f 631//631 244//244 148//148
f 189//189 151//151 129//129
f 148//148 623//623 150//150
f 148//148 150//150 631//631
f 151//151 195//195 607//607
f 686//686 155//155 608//608
f 130//130 131//131 122//122
f 131//131 152//152 122//122
f 131//131 628//628 152//152
f 687//687 153//153 629//629
f 196//196 153//153 687//687
f 154//154 152//152 628//628
f 122//122 152//152 154//154
f 627//627 630//630 624//624
f 746//746 159//159 246//246
f 122//122 154//154 632//632
f 159//159 746//746 633//633
f 159//159 198//198 246//246
f 157//157 632//632 154//154
f 635//635 640//640 634//634
f 159//159 636//636 160//160
f 160//160 636//636 158//158
f 637//637 157//157 154//154
f 167//167 637//637 154//154
f 161//161 160//160 158//158
f 642//642 688//688 641//641
f 198//198 159//159 160//160
f 164//164 154//154 625//625
f 166//166 643//643 163//163
f 645//645 638//638 162//162
f 162//162 648//648 645//645
f 643//643 639//639 163//163
f 644//644 637//637 167//167
f 625//625 165//165 164//164
f 168//168 164//164 165//165
f 651//651 647//647 626//626
f 201//201 153//153 196//196
f 201//201 652//652 153//153
f 644//644 167//167 649//649
f 168//168 206//206 164//164
f 166//166 170//170 643//643
f 289//289 175//175 167//167
f 653//653 204//204 692//692
f 167//167 169//169 649//649
f 654//654 658//658 650//650
f 167//167 175//175 169//169
f 655//655 174//174 659//659
f 669//669 656//656 171//171
f 169//169 175//175 173//173
f 671//671 172//172 666//666
f 672//672 314//314 663//663
f 664//664 660//660 667//667
f 661//661 657//657 668//668
f 662//662 665//665 670//670
f 670//670 665//665 807//807
f 204//204 205//205 692//692
f 678//678 177//177 132//132
f 179//179 610//610 234//234
f 234//234 133//133 177//177
f 177//177 232//232 234//234
f 618//618 181//181 613//613
f 611//611 679//679 178//178
f 178//178 679//679 233//233
f 233//233 679//679 235//235
f 179//179 183//183 180//180
f 184//184 183//183 179//179
f 184//184 179//179 234//234
f 234//234 238//238 184//184
f 180//180 183//183 189//189
f 189//189 182//182 180//180
f 184//184 185//185 183//183
f 189//189 183//183 185//185
f 680//680 682//682 186//186
f 682//682 188//188 186//186
f 682//682 684//684 188//188
f 188//188 685//685 186//186
f 685//685 192//192 186//186
f 188//188 684//684 190//190
f 190//190 621//621 188//188
f 190//190 684//684 621//621
f 144//144 685//685 188//188
f 242//242 186//186 192//192
f 685//685 242//242 192//192
f 194//194 242//242 685//685
f 195//195 189//189 296//296
f 245//245 196//196 195//195
f 197//197 201//201 196//196
f 198//198 643//643 170//170
f 170//170 670//670 198//198
f 197//197 199//199 201//201
f 197//197 249//249 199//199
f 249//249 201//201 199//199
f 200//200 652//652 201//201
f 201//201 202//202 200//200
f 689//689 200//200 202//202
f 652//652 200//200 689//689
f 201//201 689//689 202//202
f 154//154 289//289 167//167
f 154//154 164//164 289//289
f 201//201 203//203 689//689
f 201//201 263//263 203//203
f 691//691 690//690 212//212
f 203//203 706//706 689//689
f 808//808 673//673 223//223
f 214//214 220//220 164//164
f 164//164 220//220 289//289
f 205//205 207//207 692//692
f 691//691 212//212 694//694
f 176//176 208//208 693//693
f 692//692 207//207 675//675
f 176//176 209//209 208//208
f 209//209 176//176 210//210
f 676//676 695//695 211//211
f 700//700 677//677 703//703
f 693//693 709//709 646//646
f 693//693 208//208 709//709
f 215//215 710//710 696//696
f 213//213 216//216 706//706
f 212//212 717//717 694//694
f 715//715 697//697 217//217
f 218//218 704//704 718//718
f 717//717 705//705 694//694
f 217//217 697//697 698//698
f 719//719 699//699 701//701
f 704//704 218//218 702//702
f 706//706 203//203 213//213
f 711//711 707//707 219//219
f 712//712 716//716 708//708
f 724//724 221//221 713//713
f 708//708 716//716 721//721
f 722//722 216//216 213//213
f 721//721 716//716 720//720
f 701//701 723//723 719//719
f 213//213 203//203 725//725
f 263//263 724//724 203//203
f 714//714 221//221 726//726
f 263//263 221//221 724//724
f 221//221 263//263 225//225
f 226//226 221//221 225//225
f 728//728 674//674 222//222
f 227//227 728//728 222//222
f 175//175 289//289 727//727
f 727//727 289//289 731//731
f 221//221 224//224 726//726
f 220//220 730//730 289//289
f 221//221 226//226 224//224
f 731//731 289//289 229//229
f 732//732 228//228 729//729
f 733//733 264//264 223//223
f 730//730 281//281 289//289
f 732//732 737//737 228//228
f 229//229 289//289 231//231
f 229//229 231//231 230//230
f 229//229 230//230 734//734
f 735//735 738//738 284//284
f 738//738 285//285 284//284
f 740//740 776//776 739//739
f 678//678 741//741 232//232
f 678//678 232//232 177//177
f 236//236 233//233 235//235
f 237//237 232//232 741//741
f 236//236 742//742 233//233
f 234//234 239//239 238//238
f 236//236 235//235 240//240
f 234//234 241//241 239//239
f 232//232 237//237 241//241
f 234//234 232//232 241//241
f 238//238 296//296 184//184
f 238//238 239//239 296//296
f 239//239 241//241 296//296
f 679//679 240//240 235//235
f 240//240 742//742 236//236
f 237//237 743//743 241//241
f 184//184 296//296 681//681
f 241//241 743//743 794//794
f 189//189 681//681 296//296
f 240//240 679//679 186//186
f 744//744 745//745 243//243
f 242//242 240//240 186//186
f 300//300 195//195 296//296
f 746//746 243//243 745//745
f 746//746 246//246 243//243
f 194//194 244//244 242//242
f 300//300 245//245 195//195
f 308//308 243//243 246//246
f 300//300 196//196 245//245
f 197//197 196//196 300//300
f 247//247 197//197 300//300
f 300//300 248//248 247//247
f 248//248 309//309 252//252
f 807//807 198//198 670//670
f 248//248 252//252 247//247
f 197//197 247//247 249//249
f 247//247 250//250 249//249
f 247//247 252//252 250//250
f 312//312 747//747 309//309
f 312//312 251//251 747//747
f 250//250 252//252 249//249
f 201//201 249//249 252//252
f 251//251 253//253 747//747
f 747//747 253//253 319//319
f 251//251 315//315 253//253
f 253//253 315//315 319//319
f 252//252 818//818 201//201
f 313//313 254//254 255//255
f 812//812 255//255 318//318
f 812//812 313//313 255//255
f 748//748 258//258 256//256
f 256//256 816//816 748//748
f 320//320 257//257 255//255
f 263//263 201//201 818//818
f 818//818 276//276 263//263
f 271//271 276//276 818//818
f 316//316 809//809 267//267
f 751//751 749//749 750//750
f 258//258 259//259 256//256
f 260//260 751//751 750//750
f 261//261 752//752 260//260
f 753//753 755//755 754//754
f 271//271 278//278 276//276
f 321//321 256//256 259//259
f 755//755 819//819 754//754
f 325//325 261//261 260//260
f 755//755 822//822 262//262
f 755//755 262//262 819//819
f 808//808 223//223 264//264
f 264//264 272//272 265//265
f 264//264 265//265 808//808
f 272//272 266//266 265//265
f 757//757 759//759 273//273
f 758//758 810//810 756//756
f 758//758 756//756 268//268
f 268//268 756//756 757//757
f 757//757 269//269 268//268
f 270//270 269//269 757//757
f 757//757 273//273 270//270
f 758//758 268//268 270//270
f 268//268 269//269 270//270
f 813//813 758//758 270//270
f 813//813 270//270 277//277
f 322//322 320//320 317//317
f 274//274 320//320 322//322
f 322//322 329//329 274//274
f 320//320 274//274 275//275
f 762//762 225//225 263//263
f 264//264 736//736 272//272
f 273//273 759//759 735//735
f 763//763 270//270 273//273
f 277//277 273//273 735//735
f 324//324 275//275 325//325
f 275//275 274//274 325//325
f 764//764 226//226 225//225
f 225//225 762//762 764//764
f 224//224 226//226 764//764
f 277//277 735//735 287//287
f 764//764 279//279 224//224
f 328//328 765//765 278//278
f 279//279 280//280 224//224
f 281//281 730//730 769//769
f 279//279 282//282 280//280
f 331//331 330//330 760//760
f 829//829 832//832 766//766
f 767//767 833//833 283//283
f 279//279 773//773 282//282
f 769//769 770//770 281//281
f 281//281 770//770 289//289
f 284//284 287//287 735//735
f 284//284 285//285 287//287
f 291//291 286//286 777//777
f 777//777 286//286 288//288
f 231//231 289//289 343//343
f 289//289 770//770 290//290
f 290//290 343//343 289//289
f 740//740 782//782 776//776
f 287//287 285//285 783//783
f 784//784 231//231 292//292
f 286//286 291//291 288//288
f 778//778 785//785 338//338
f 338//338 785//785 294//294
f 231//231 343//343 292//292
f 340//340 780//780 771//771
f 789//789 784//784 292//292
f 781//781 293//293 295//295
f 340//340 786//786 780//780
f 341//341 790//790 339//339
f 789//789 292//292 347//347
f 743//743 298//298 794//794
f 297//297 796//796 744//744
f 243//243 297//297 744//744
f 243//243 299//299 796//796
f 243//243 796//796 297//297
f 796//796 299//299 301//301
f 794//794 298//298 302//302
f 301//301 299//299 243//243
f 300//300 795//795 797//797
f 303//303 300//300 797//797
f 796//796 301//301 798//798
f 301//301 304//304 798//798
f 797//797 799//799 303//303
f 306//306 304//304 301//301
f 307//307 303//303 799//799
f 801//801 802//802 800//800
f 301//301 243//243 305//305
f 306//306 301//301 305//305
f 803//803 300//300 303//303
f 305//305 243//243 308//308
f 308//308 306//306 305//305
f 198//198 308//308 246//246
f 300//300 803//803 309//309
f 308//308 198//198 310//310
f 306//306 308//308 310//310
f 801//801 804//804 802//802
f 805//805 309//309 803//803
f 248//248 300//300 309//309
f 310//310 198//198 807//807
f 309//309 805//805 311//311
f 805//805 811//811 311//311
f 309//309 311//311 312//312
f 312//312 311//311 251//251
f 311//311 317//317 254//254
f 811//811 815//815 311//311
f 313//313 311//311 254//254
f 311//311 313//313 251//251
f 251//251 806//806 315//315
f 814//814 815//815 811//811
f 254//254 320//320 255//255
f 254//254 317//317 320//320
f 315//315 817//817 319//319
f 750//750 324//324 260//260
f 324//324 320//320 275//275
f 320//320 324//324 257//257
f 256//256 321//321 816//816
f 319//319 817//817 323//323
f 818//818 821//821 271//271
f 817//817 820//820 323//323
f 822//822 819//819 262//262
f 260//260 324//324 325//325
f 813//813 277//277 326//326
f 814//814 823//823 815//815
f 317//317 824//824 322//322
f 329//329 322//322 824//824
f 820//820 325//325 323//323
f 329//329 333//333 274//274
f 323//323 325//325 826//826
f 274//274 327//327 325//325
f 325//325 327//327 826//826
f 821//821 328//328 271//271
f 274//274 826//826 327//327
f 278//278 271//271 328//328
f 274//274 830//830 826//826
f 827//827 831//831 768//768
f 326//326 277//277 332//332
f 332//332 277//277 287//287
f 761//761 835//835 335//335
f 760//760 839//839 331//331
f 779//779 332//332 287//287
f 825//825 332//332 368//368
f 921//921 329//329 824//824
f 334//334 333//333 336//336
f 774//774 334//334 336//336
f 329//329 336//336 333//333
f 840//840 836//836 837//837
f 775//775 841//841 838//838
f 834//834 841//841 775//775
f 828//828 337//337 842//842
f 339//339 332//332 779//779
f 349//349 368//368 332//332
f 921//921 370//370 844//844
f 773//773 843//843 282//282
f 921//921 844//844 329//329
f 842//842 847//847 772//772
f 845//845 341//341 339//339
f 339//339 779//779 845//845
f 349//349 332//332 339//339
f 337//337 847//847 842//842
f 790//790 341//341 845//845
f 847//847 345//345 787//787
f 337//337 345//345 847//847
f 368//368 349//349 365//365
f 348//348 292//292 343//343
f 343//343 793//793 342//342
f 290//290 793//793 343//343
f 855//855 848//848 788//788
f 849//849 295//295 293//293
f 855//855 344//344 848//848
f 851//851 850//850 852//852
f 928//928 344//344 855//855
f 337//337 929//929 345//345
f 347//347 292//292 861//861
f 339//339 346//346 352//352
f 791//791 856//856 846//846
f 857//857 858//858 874//874
f 857//857 792//792 858//858
f 859//859 353//353 875//875
f 862//862 355//355 876//876
f 356//356 349//349 339//339
f 356//356 339//339 352//352
f 356//356 352//352 883//883
f 349//349 356//356 357//357
f 915//915 868//868 863//863
f 364//364 864//864 869//869
f 916//916 348//348 350//350
f 343//343 350//350 348//348
f 851//851 852//852 367//367
f 852//852 378//378 367//367
f 860//860 351//351 878//878
f 347//347 861//861 871//871
f 354//354 879//879 872//872
f 873//873 865//865 881//881
f 882//882 877//877 880//880
f 877//877 882//882 866//866
f 909//909 884//884 867//867
f 910//910 889//889 885//885
f 356//356 883//883 359//359
f 361//361 886//886 358//358
f 887//887 902//902 897//897
f 898//898 357//357 356//356
f 911//911 362//362 357//357
f 360//360 357//357 898//898
f 905//905 892//892 363//363
f 907//907 893//893 900//900
f 888//888 890//890 894//894
f 901//901 895//895 891//891
f 896//896 906//906 912//912
f 896//896 912//912 903//903
f 913//913 360//360 898//898
f 360//360 913//913 908//908
f 914//914 899//899 904//904
f 362//362 349//349 357//357
f 908//908 349//349 362//362
f 913//913 349//349 908//908
f 366//366 917//917 870//870
f 917//917 366//366 371//371
f 390//390 371//371 366//366
f 343//343 372//372 919//919
f 350//350 343//343 919//919
f 919//919 372//372 970//970
f 378//378 380//380 367//367
f 367//367 380//380 382//382
f 930//930 922//922 918//918
f 373//373 375//375 923//923
f 923//923 375//375 369//369
f 370//370 921//921 926//926
f 370//370 926//926 386//386
f 853//853 379//379 942//942
f 370//370 943//943 854//854
f 370//370 386//386 943//943
f 391//391 924//924 931//931
f 343//343 376//376 372//372
f 343//343 385//385 376//376
f 925//925 973//973 933//933
f 933//933 973//973 937//937
f 938//938 957//957 374//374
f 375//375 373//373 939//939
f 375//375 939//939 377//377
f 375//375 377//377 369//369
f 377//377 939//939 393//393
f 393//393 939//939 934//934
f 369//369 377//377 393//393
f 979//979 389//389 927//927
f 920//920 381//381 343//343
f 920//920 948//948 381//381
f 943//943 383//383 944//944
f 942//942 379//379 945//945
f 949//949 951//951 947//947
f 946//946 952//952 950//950
f 343//343 381//381 385//385
f 953//953 384//384 381//381
f 943//943 386//386 383//383
f 954//954 960//960 955//955
f 385//385 384//384 387//387
f 385//385 381//381 384//384
f 956//956 961//961 962//962
f 963//963 388//388 958//958
f 959//959 965//965 935//935
f 964//964 386//386 926//926
f 966//966 926//926 968//968
f 964//964 926//926 966//966
f 974//974 932//932 971//971
f 372//372 392//392 970//970
f 372//372 940//940 392//392
f 975//975 972//972 977//977
f 941//941 976//976 978//978
f 980//980 936//936 394//394
f 389//389 979//979 981//981
f 982//982 935//935 965//965
f 967//967 969//969 983//983
