# Wavafront OBJ file of BodyParts3D
# BodyParts3D, Copyright(C) 2010-2011 The Database Center for Life Science licensed under CC Attribution-Share Alike 2.1 Japan.
vn -0.72451 -0.10195 -0.681683
v 86.1586 -117.943 8.0234
vn -0.871066 -0.190225 -0.452834
v 84.7382 -115.862 9.88149
vn -0.767941 -0.0604695 -0.63766
v 85.0518 -113.811 8.85032
vn -0.780527 -0.123652 -0.61277
v 84.3884 -112.353 9.49305
vn 0.433381 0.499702 0.749986
v 84.1283 -111.631 10.9675
vn -0.840298 -0.293782 -0.455622
v 83.2087 -111.501 11.1192
vn -0.902934 0.0837712 -0.421535
v 83.6726 -111.129 10.7061
vn -0.846227 -0.182675 -0.500529
v 83.0803 -111.5 11.3555
vn 0.398259 0.29107 0.869867
v 83.6436 -110.987 10.9666
vn -0.385885 0.791264 -0.474335
v 83.3852 -110.928 11.2752
vn 0.590916 0.767639 -0.24809
v 83.6191 -111.021 11.2469
vn 0.128333 0.451631 -0.882927
v 83.922 -109.528 10.4606
vn 0.454507 0.168456 0.874669
v 84.2223 -109.78 10.6166
vn 0.179676 0.42988 -0.884828
v 84.7621 -110.587 10.0831
vn -0.587221 0.0875332 -0.80468
v 83.5245 -109.675 10.4149
vn -0.938953 -0.0498405 -0.340418
v 83.4413 -109.475 10.6152
vn -0.952496 -0.148236 -0.266041
v 83.6047 -110.427 10.5697
vn -0.987585 -0.156969 -0.005995
v 83.5913 -110.103 10.6395
vn -0.750757 -0.00748631 0.660536
v 83.5691 -109.303 10.8027
vn 0.234991 0.0677809 0.969631
v 83.7457 -110.361 10.7267
vn -0.5545 0.181544 -0.81214
v 82.7048 -110.016 11.9436
vn -0.960687 -0.269531 0.0665826
v 82.7422 -110.096 12.1629
vn 0.573348 -0.727523 0.376805
v 82.6974 -109.92 12.2328
vn 0.413106 0.658964 -0.628577
v 82.9261 -109.919 12.1907
vn 0.573348 -0.727523 0.376805
v 82.7575 -109.897 12.1855
vn 0.573348 -0.727523 0.376805
v 82.7154 -109.896 12.2516
vn 0.0482706 0.019174 -0.99865
v 83.3842 -108.67 10.7812
vn 0.0874181 0.454927 -0.886228
v 83.4865 -109.079 10.6479
vn 0.0482706 0.019174 -0.99865
v 83.3792 -108.872 10.7771
vn 0.0482706 0.019174 -0.99865
v 83.4143 -108.674 10.7825
vn 0.978268 -0.177325 0.107456
v 83.4107 -108.676 10.8123
vn -0.997779 0.0261803 -0.0612514
v 83.3823 -108.672 10.8102
vn 0.271975 0.542056 -0.795113
v 83.8085 -109.124 10.6966
vn 0.31731 0.0507946 0.946961
v 83.6365 -109.109 10.8027
vn -0.808581 -0.241764 -0.53642
v 88.6464 -123.216 6.43768
vn -0.782294 -0.234853 -0.57694
v 88.5111 -123.604 6.9252
vn -0.870036 -0.219181 -0.441585
v 85.9034 -119.2 9.14987
vn -0.781965 -0.414219 0.465783
v 84.8895 -116.095 10.0442
vn 0.184613 0.4379 -0.879865
v 88.4889 -115.046 8.48548
vn 0.506987 0.0514829 0.860415
v 87.4706 -115.191 9.61354
vn 0.108063 0.444825 -0.889075
v 87 -113.511 9.23745
vn 0.703572 0.678263 -0.212003
v 86.9916 -113.422 9.5261
vn 0.68204 0.276893 0.676869
v 87.4898 -114.382 9.56862
vn 0.755645 0.502975 0.419544
v 85.6882 -112.992 10.4331
vn 0.736124 0.657238 0.161739
v 85.9105 -113.462 10.9737
vn 0.668037 0.675209 0.31276
v 85.4828 -113.162 11.1276
vn 0.742058 0.666148 -0.0748077
v 86.1103 -113.712 11.2852
vn 0.767858 0.634937 -0.0851405
v 85.4769 -112.902 11.7105
vn 0.222407 0.422719 -0.878546
v 86.2468 -112.591 9.5156
vn 0.394788 0.509007 -0.764889
v 86.0245 -111.963 9.81862
vn 0.744166 0.380123 0.549294
v 86.2423 -112.473 9.80625
vn 0.680387 0.312705 0.662789
v 86.1017 -112.384 9.94245
vn 0.521285 0.309702 0.795202
v 84.9247 -111.898 10.685
vn 0.72948 0.641443 -0.237509
v 84.8327 -112.327 11.2258
vn -0.337883 -0.326287 0.882821
v 84.2283 -111.708 12.1959
vn 0.763689 0.639667 -0.0872133
v 84.3529 -111.478 12.1308
vn 0.65568 0.693008 -0.299704
v 83.6218 -110.695 11.8343
vn -0.600784 -0.457035 0.65588
v 83.2816 -110.587 12.41
vn 0.695773 0.715791 0.0595223
v 83.3445 -110.334 12.4018
vn -0.524671 -0.583913 0.619488
v 83.5859 -110.83 12.4154
vn -0.587841 -0.259751 0.766141
v 83.1098 -110.161 12.4226
vn -0.653824 -0.0490379 -0.755056
v 93.3137 -133.106 3.16213
vn -0.342055 0.10702 -0.933566
v 93.8452 -133.561 2.89561
vn -0.902672 -0.200883 -0.380565
v 92.4089 -131.638 4.13719
vn -0.877935 -0.0693561 -0.47373
v 92.2276 -131.439 4.52302
vn -0.729603 0.0354598 -0.682951
v 92.1089 -131.435 4.69153
vn -0.84494 -0.0763136 -0.529389
v 92.1329 -131.236 4.70266
vn -0.802633 -0.113803 -0.585516
v 92.3891 -132.15 4.46238
vn -0.595619 0.0065709 -0.80324
v 91.9362 -131.623 4.8136
vn -0.424675 0.108563 -0.898813
v 93.7269 -130.346 3.40979
vn -0.0653941 0.208395 -0.975856
v 93.8444 -129.558 3.47997
vn -0.183613 0.236598 -0.9541
v 92.9567 -130.471 3.75493
vn -0.418831 0.132601 -0.89833
v 92.9719 -129.682 4.0127
vn -0.129111 0.265023 -0.955559
v 91.9469 -128.554 4.26596
vn -0.531197 0.00517045 -0.847232
v 92.6741 -127.831 4.12743
vn -0.36314 0.119014 -0.924102
v 91.5887 -128.317 4.44464
vn -0.841246 -0.235528 -0.486654
v 91.2688 -128.292 4.68516
vn -0.871785 -0.381201 -0.307696
v 91.0998 -128.298 5.10222
vn 0.0238602 0.217589 -0.975749
v 91.7368 -127.738 4.56748
vn 0.0297894 0.296333 -0.95462
v 92.0043 -127.774 4.57316
vn -0.608981 -0.0327074 -0.79251
v 91.2858 -129.15 5.38724
vn -0.867799 -0.302151 -0.394499
v 91.2491 -128.736 5.31064
vn -0.765618 -0.115417 -0.632857
v 89.1683 -127.757 6.80438
vn -0.923533 -0.357863 0.137914
v 89.2892 -128.41 7.25346
vn -0.56132 -0.390277 0.729797
v 89.6811 -129.073 7.3303
vn -0.00327156 0.287456 -0.957788
v 93.097 -127.269 3.95696
vn -0.237943 0.136424 -0.96165
v 91.1295 -126.068 4.95162
vn -0.589628 0.0266902 -0.807234
v 89.8106 -126.588 6.22536
vn -0.774096 -0.202366 -0.599853
v 89.9995 -126.404 6.12211
vn -0.56598 0.0423 -0.823333
v 88.8004 -126.115 7.16123
vn -0.631491 -0.0280317 -0.774876
v 89.1688 -126.11 6.97408
vn 0.223469 0.402592 -0.887683
v 93.0739 -125.504 4.80861
vn -0.455045 0.0367025 -0.889712
v 92.1145 -125.561 4.51671
vn -0.728396 -0.164405 -0.66514
v 89.4012 -125.548 6.58412
vn -0.621515 -0.0642969 -0.780759
v 88.8281 -125.715 7.15996
vn -0.72698 -0.108296 -0.678065
v 88.3894 -125.482 7.55188
vn -0.824364 -0.38802 0.412146
v 88.3943 -125.332 8.30694
vn 0.208784 0.435362 -0.87571
v 91.7594 -121.201 6.49717
vn 0.333645 0.474556 -0.814541
v 91.774 -120.724 6.78017
vn 0.832396 0.550603 -0.0628762
v 91.7285 -120.627 7.0253
vn 0.840462 0.393351 0.372691
v 89.7793 -119.523 8.96619
vn 0.273312 0.427098 -0.86191
v 90.7306 -118.532 7.53535
vn 0.644317 0.150804 0.749743
v 90.2244 -118.473 7.9785
vn 0.717499 0.238464 0.654469
v 89.6604 -118.43 8.43283
vn -0.0575658 -0.207268 0.976589
v 88.0619 -118.976 10.609
vn 0.301401 0.438534 -0.846667
v 90.1174 -117.833 7.68741
vn 0.851923 0.501075 0.152156
v 90.0781 -117.845 7.94891
vn 0.756947 0.545354 -0.36003
v 89.866 -117.301 7.96485
vn 0.632289 0.139101 0.762142
v 88.983 -116.948 8.75169
vn 0.848415 0.491973 0.195332
v 88.2311 -116.841 9.71006
vn 0.459136 0.551996 -0.696057
v 88.1994 -116.472 10.8656
vn 0.810562 0.585367 -0.0183167
v 87.4641 -115.415 11.1531
vn 0.229432 -0.0739229 0.970513
v 86.4334 -114.186 11.6971
vn -0.0705157 0.153916 -0.985564
v 97.145 -138.54 1.37223
vn -0.498144 -0.038653 -0.866232
v 96.5623 -138.882 1.57824
vn -0.324914 0.00571438 -0.945726
v 96.7668 -138.349 1.4642
vn -0.76103 -0.203247 -0.616055
v 94.4504 -138.933 3.42728
vn -0.721359 -0.18185 -0.66826
v 93.6011 -138.473 4.24407
vn -0.746736 -0.195146 -0.635848
v 94.2392 -138.931 3.79491
vn -0.17437 0.145257 -0.973907
v 96.1928 -136.221 1.80686
vn -0.505835 -0.0383215 -0.861778
v 94.7975 -136.28 2.38478
vn -0.679668 -0.0797711 -0.729169
v 92.6449 -135.958 4.76731
vn 0.1543 0.291093 -0.94417
v 96.1082 -135.545 2.00089
vn -0.333799 0.108958 -0.936326
v 94.9305 -134.681 2.40557
vn -0.686265 -0.0770731 -0.723257
v 92.4142 -134.731 5.01107
vn -0.764215 -0.12583 -0.632568
v 91.7804 -134.478 5.48205
vn -0.864684 -0.22566 -0.448776
v 91.9087 -135.096 5.40422
vn -0.751714 -0.398678 0.52534
v 91.6553 -134.479 5.73194
vn -0.924037 -0.379613 -0.045262
v 91.9012 -135.11 5.6737
vn -0.753863 -0.120742 -0.645842
v 92.1326 -132.863 4.83723
vn -0.467202 -0.364786 0.80539
v 91.9047 -133.951 6.41041
vn -0.313227 -0.328854 0.890923
v 91.328 -131.296 7.11591
vn 0.298375 0.33904 -0.892202
v 96.2031 -130.466 3.36559
vn 0.576831 0.500302 -0.645727
v 95.6191 -127.196 4.71892
vn -0.247017 -0.323331 0.913476
v 90.0473 -126.574 8.5294
vn 0.466467 0.0184522 0.884346
v 95.1376 -126.213 5.30507
vn 0.237005 0.381032 -0.893668
v 93.6753 -126.182 4.70373
vn 0.493255 0.508002 -0.706139
v 94.3125 -124.842 5.4628
vn 0.489282 0.0237364 0.871803
v 94.3987 -125.327 5.60245
vn 0.827855 0.524981 -0.197612
v 94.5098 -125.133 5.50713
vn 0.892794 0.407783 0.191396
v 92.8987 -124.865 7.19742
vn 0.29846 0.442422 -0.845686
v 93.3224 -123.96 5.40546
vn 0.87104 0.49082 -0.0196451
v 92.1904 -123.451 7.79191
vn 0.466314 0.499041 -0.730417
v 92.4054 -123.42 8.14475
vn 0.458152 0.518626 -0.721889
v 92.4328 -121.499 6.60864
vn 0.771996 0.249383 0.584663
v 91.6111 -121.864 7.60391
vn 0.129336 -0.168888 0.977113
v 90.1721 -121.444 10.1432
vn 0.191313 0.45601 -0.869169
v 90.8931 -120.275 9.39556
vn 0.191543 0.436752 -0.878953
v 91.1348 -119.731 9.62917
vn 0.873274 0.473206 0.116053
v 89.9807 -120.006 9.23832
vn 0.00561769 0.396974 -0.917813
v 90.3839 -118.442 10.185
vn -0.110006 0.319948 -0.941027
v 90.1885 -118.414 10.1439
vn -0.0397631 0.40964 -0.91138
v 90.6631 -119.069 9.94745
vn 0.809991 0.362907 0.460665
v 90.2395 -118.636 10.3403
vn 0.683805 -0.0707128 0.72623
v 90.4244 -118.451 10.2324
vn -0.234808 0.328832 -0.914732
v 90.4133 -118.248 10.2472
vn 0.953496 0.290341 0.0809211
v 89.8319 -117.393 10.6844
vn -0.1261 -0.165337 0.978142
v 88.2805 -116.607 11.0374
vn 0.309382 0.524461 -0.793236
v 88.8215 -116.675 10.9883
vn 0.399069 -0.00887014 0.916878
v 89.0456 -117.514 11.0107
vn -0.0272552 0.462844 -0.88602
v 89.405 -116.938 10.7659
vn 0.059822 0.372856 -0.925959
v 89.276 -116.729 10.9055
vn -0.147526 0.282755 -0.947779
v 89.0406 -116.698 10.9028
vn 0.294044 0.95208 0.084158
v 88.8083 -116.681 11.1043
vn -0.226843 0.330591 -0.916107
v 89.0515 -116.483 10.932
vn 0.545963 -0.140371 0.825967
v 89.109 -116.92 11.0698
vn 0.673017 -0.193039 0.713991
v 89.3223 -116.739 10.9597
vn 0.0306051 -0.275519 -0.960808
v 88.8162 -115.881 11.2222
vn 0.920968 0.222002 0.320207
v 88.9471 -116.295 11.1017
vn -0.978573 0.178954 -0.101833
v 88.8793 -116.287 11.1146
vn 0.0306051 -0.275519 -0.960808
v 88.8218 -115.912 11.2312
vn 0.0306051 -0.275519 -0.960808
v 88.8365 -115.884 11.2236
vn -0.517844 -0.0340276 -0.854798
v 99.4657 -144.606 -0.109998
vn -0.269807 0.127726 -0.954406
v 98.6596 -142.898 0.355298
vn -0.86555 -0.497579 0.0569002
v 95.8239 -143.009 3.82019
vn 0.0741089 0.273851 -0.958913
v 99.331 -142.799 0.330588
vn 0.118214 0.262078 -0.957779
v 99.7952 -141.871 0.662401
vn -0.785538 -0.309225 -0.536014
v 95.5792 -142.112 3.39429
vn 0.0536463 0.259486 -0.964256
v 98.5866 -139.933 1.24818
vn -0.719223 -0.213999 -0.661001
v 94.6531 -140.399 3.78248
vn -0.840204 -0.345273 -0.418142
v 94.3594 -140.379 4.0536
vn -0.875815 -0.46251 0.137959
v 93.7997 -139.334 4.61846
vn -0.600346 -0.449784 0.66127
v 94.6187 -140.463 4.77743
vn 0.187153 0.283074 -0.940661
v 98.6353 -138.541 1.49462
vn 0.329581 0.320461 -0.888077
v 99.1568 -138.029 1.86947
vn -0.394581 -0.334087 0.855974
v 93.3635 -135.745 6.18953
vn -0.209324 -0.282493 0.936152
v 93.9269 -136.037 6.43107
vn -0.0107691 -0.266496 0.963776
v 93.9691 -133.453 7.00348
vn -0.245421 -0.298894 0.922188
v 93.3135 -133.96 6.79826
vn 0.678847 0.424301 -0.599278
v 97.8946 -132.158 3.4741
vn 0.682508 0.147373 0.715866
v 98.2332 -132.756 3.60828
vn 0.022672 -0.299589 0.953799
v 94.0249 -132.866 7.18392
vn 0.45331 0.381027 -0.805809
v 96.8628 -130.031 3.9423
vn 0.6422 0.110145 0.758582
v 96.8154 -129.995 4.19039
vn 0.666942 0.125014 0.734548
v 96.6813 -130.598 4.39142
vn 0.87485 0.467371 -0.127287
v 95.677 -130.181 6.2559
vn 0.107242 -0.204826 0.972906
v 93.8183 -130.07 8.07767
vn 0.517301 0.424048 -0.743359
v 96.5269 -129.26 4.10253
vn 0.934944 0.35458 -0.0123868
v 96.5126 -129.16 4.3835
vn 0.657583 0.110517 0.745232
v 96.2448 -128.739 4.65112
vn 0.446576 0.00625368 0.894724
v 95.8865 -128.502 4.8298
vn 0.669922 0.136365 0.729801
v 96.2032 -128.244 4.56217
vn 0.872608 0.364298 0.325335
v 94.7517 -128.248 6.25164
vn 0.0674543 0.317665 -0.945801
v 95.1568 -128.151 7.01624
vn 0.0660646 0.360509 -0.930413
v 95.6081 -128.001 6.91279
vn -0.0106107 0.364572 -0.931115
v 95.3104 -127.574 7.14553
vn 0.898174 0.435323 0.061466
v 94.0632 -126.99 6.88194
vn 0.742436 0.509624 -0.434824
v 93.1158 -125.228 7.47774
vn 0.178971 0.345415 -0.921226
v 93.9827 -125.42 7.76443
vn 0.0514079 0.293657 -0.954528
v 94.333 -125.635 7.69203
vn 0.240496 0.638984 -0.730658
v 94.1055 -125.247 7.95615
vn 0.751377 0.285819 0.59476
v 94.7861 -126.52 7.67646
vn 0.0149266 0.26117 -0.965178
v 93.5686 -124.374 8.04113
vn 0.859408 0.403295 0.31428
v 93.9111 -124.816 7.93447
vn 0.286549 0.438814 -0.851664
v 92.8467 -123.487 8.28658
vn 0.111313 0.400985 -0.909297
v 93.197 -123.14 8.31536
vn 0.47769 0.520202 -0.707957
v 92.9573 -123.314 8.48895
vn 0.794132 0.341222 0.502913
v 93.2455 -123.779 8.42429
vn 0.567908 0.0900712 0.818149
v 92.2723 -123.489 9.41799
vn 0.111313 0.400985 -0.909297
v 93.2012 -123.132 8.31956
vn 0.111313 0.400985 -0.909297
v 93.1945 -123.131 8.31913
vn 0.434947 0.0141014 0.900346
v 91.393 -121.376 9.75751
vn 0.839879 0.496848 -0.218506
v 91.7243 -120.794 9.47977
vn -0.515553 -0.0222239 -0.85657
v 100.985 -149.8 -0.976721
vn -0.0172093 0.178134 -0.983856
v 101.151 -148.818 -0.866921
vn -0.537281 0.00542828 -0.843386
v 100.92 -148.794 -0.778993
vn -0.724093 -0.151334 -0.672895
v 99.6535 -147.899 0.387264
vn -0.892077 -0.380839 -0.243229
v 99.0585 -148.937 1.92715
vn -0.672775 -0.132948 -0.727804
v 100.117 -147.28 -0.35191
vn 0.316052 0.349512 -0.882016
v 99.6015 -139.277 1.5303
vn 0.271241 0.326544 -0.905427
v 100.911 -139.144 2.02841
vn 0.672081 0.116998 0.731176
v 100.583 -139.681 2.61209
vn 0.313105 0.335125 -0.888626
v 99.6123 -138.197 1.98104
vn 0.645314 0.122081 0.7541
v 99.5826 -136.953 3.06643
vn 0.906751 0.417723 -0.057537
v 100.249 -137.62 2.66734
vn 0.381737 0.332906 -0.862236
v 99.202 -135.471 2.82248
vn 0.903246 0.383924 -0.191699
v 99.2167 -135.291 3.11824
vn 0.854609 0.292402 0.42912
v 98.007 -135.034 4.45336
vn 0.761284 0.417688 -0.495967
v 99.0323 -134.66 3.1135
vn 0.676528 0.134284 0.72407
v 97.8451 -132.084 6.16207
vn 0.6406 0.482952 -0.596984
v 96.1768 -130.71 6.26462
vn -0.168942 0.203956 -0.964293
v 96.6829 -130.521 6.22104
vn -0.00264599 0.310206 -0.950666
v 96.5764 -129.832 6.34686
vn 0.0131822 0.271547 -0.962335
v 95.7335 -128.617 6.80268
vn 0.809851 0.286548 0.51189
v 96.1452 -128.474 6.95986
vn 0.485779 0.0391325 0.873205
v 95.7748 -129.684 7.55013
vn 0.296186 0.490399 -0.819623
v 95.4223 -127.394 7.25967
vn -0.632583 -0.30705 -0.711027
v 103.505 -157.175 -1.43379
vn -0.789024 -0.248821 -0.561719
v 102.833 -155.063 -1.46661
vn -0.750392 -0.248302 -0.612583
v 103.363 -156.128 -1.68414
vn 0.015026 0.0749153 -0.997077
v 103.259 -154.318 -1.64865
vn -0.917924 -0.378657 -0.118468
v 101.384 -153.768 0.117234
vn 0.330866 0.200258 -0.922185
v 103.796 -151.976 -1.15452
vn -0.829064 -0.497023 0.256167
v 100.507 -151.903 1.13751
vn -0.690893 -0.499331 0.522816
v 100.19 -150.703 2.15555
vn -0.156994 -0.320017 0.934314
v 100.459 -149.393 2.96851
vn 0.920356 0.324485 -0.2183
v 103.652 -147.226 0.620886
vn -0.286061 -0.384818 0.877545
v 98.2945 -146.334 3.76561
vn 0.91911 0.326215 0.220954
v 103.101 -145.988 1.31415
vn 0.460533 0.328852 -0.824479
v 102.223 -144.401 0.491998
vn 0.817501 0.161358 0.552861
v 102.817 -144.535 1.31034
vn 0.896254 0.4093 -0.170889
v 102.282 -143.732 2.42037
vn 0.912042 0.347417 -0.217902
v 102.23 -143.04 1.26186
vn 0.653153 0.0999956 0.750594
v 102.023 -142.846 1.78295
vn 0.437519 0.389807 -0.810326
v 101.712 -142.075 2.93986
vn 0.755279 0.394597 -0.523304
v 101.812 -141.901 3.15159
vn 0.69281 0.36272 -0.623257
v 101.584 -140.58 2.00607
vn 0.048112 0.262252 -0.963799
v 101.228 -140.625 3.34976
vn 0.691763 0.0740821 0.718314
v 101.611 -141.686 3.35184
vn 0.00851316 -0.2334 0.972343
v 98.1452 -141.354 5.13656
vn 0.716648 0.475704 -0.510021
v 100.551 -139.741 3.55631
vn 0.850083 0.306172 -0.428506
v 100.824 -138.98 3.72494
vn 0.107731 0.253514 -0.961314
v 100.525 -137.842 3.92057
vn 0.86604 0.495936 -0.0634254
v 100.494 -137.755 4.18371
vn 0.985946 -0.0394584 0.162339
v 100.815 -138.187 3.97781
vn 0.556581 0.00197636 0.830791
v 99.3341 -138.085 5.31929
vn 0.877065 0.417705 -0.237233
v 99.643 -135.465 4.84686
vn 0.610519 0.0322574 0.791344
v 98.9791 -135.43 5.60705
vn 0.213495 -0.155405 0.964504
v 97.6891 -136.503 6.0429
vn -0.0778598 0.242451 -0.967034
v 98.9419 -133.98 5.1719
vn 0.857898 0.261712 0.442174
v 99.1007 -134.418 5.35766
vn 0.894644 0.366585 0.255396
v 98.7357 -133.57 5.47793
vn -0.284721 -0.296761 -0.911519
v 104.661 -159.774 -1.1092
vn 0.127623 -0.0930262 -0.98745
v 104.87 -158.15 -1.61375
vn 0.504649 0.115768 -0.855528
v 105.359 -157.224 -1.31079
vn -0.818397 -0.313025 0.481915
v 102.276 -155.551 0.828075
vn -0.762941 -0.364192 0.534121
v 102.464 -154.819 1.59568
vn 0.779157 0.215102 -0.588766
v 105.281 -154.023 -0.667697
vn -0.315757 -0.149156 0.937043
v 102.96 -154.691 1.72574
vn -0.803358 -0.455194 0.383946
v 101.858 -153.541 1.81283
vn 0.937032 0.235864 -0.257564
v 105.279 -153.258 -0.019343
vn 0.228469 -0.0248362 0.973234
v 103.487 -152.949 1.86286
vn 0.0197785 -0.194604 0.980682
v 102.164 -152.6 2.25196
vn 0.800105 0.288451 -0.525955
v 104.567 -151.122 -0.331791
vn 0.377536 -0.0494308 0.924675
v 102.967 -150.687 2.29926
vn 0.943873 0.315871 -0.0965896
v 104.222 -148.933 0.848916
vn 0.256662 -0.157654 0.953556
v 101.875 -149.77 2.79841
vn 0.555447 0.00239907 0.831548
v 102.395 -148.617 2.69059
vn 0.735465 0.0359003 0.676611
v 102.866 -145.604 2.0672
vn 0.433159 -0.0920861 0.896601
v 100.497 -145.236 4.19551
vn -0.747605 -0.491306 -0.446884
v 105.277 -162.043 -0.515885
vn -0.616992 -0.59277 -0.517633
v 105.489 -162.446 -0.238311
vn 0.176777 -0.322964 -0.929755
v 106.17 -161.819 -0.707299
vn 0.213899 -0.288903 -0.933157
v 106.005 -162.848 -0.22095
vn -0.879519 -0.467726 -0.0876294
v 105.02 -162.234 0.731666
vn -0.122739 -0.27812 -0.952672
v 105.885 -160.547 -1.03092
vn 0.830579 0.141106 -0.538728
v 106.471 -159.444 -0.536896
vn -0.64958 -0.201406 0.733132
v 103.274 -157.146 1.54698
vn -0.449584 -0.109741 0.886471
v 103.499 -156.581 1.72173
vn -0.0137047 0.0639265 0.99786
v 104.235 -157.304 2.02465
vn 0.31845 0.159081 0.934496
v 105.522 -155.609 1.37319
vn -0.441782 -0.0807797 0.893478
v 103.672 -156.411 1.86951
vn 0.370745 0.0796417 0.925314
v 104.329 -155.078 1.81401
vn -0.26146 -0.22314 0.939067
v 103.705 -154.601 1.94571
vn 0.710098 0.14137 0.689764
v 104.795 -153.079 1.24259
vn 0.658308 0.109688 0.744714
v 104.2 -153.24 1.79253
vn -0.809949 -0.541734 -0.224737
v 106.364 -164.703 1.26293
vn 0.546968 -0.127947 -0.827318
v 107.285 -162.424 0.089647
vn -0.555349 -0.0859513 0.827164
v 105.51 -162.15 2.45244
vn -0.26579 0.0857827 0.960207
v 105.642 -160.759 2.54939
vn 0.17441 -0.226325 -0.95831
v 108.291 -165.236 0.847614
vn -0.15337 -0.453748 -0.877833
v 108.297 -166.27 1.17681
vn 0.703232 0.238404 -0.669797
v 108.601 -165.493 1.06796
vn 0.265266 -0.180081 -0.947209
v 108.872 -166.347 1.21309
vn -0.660513 -0.633161 -0.403521
v 107.356 -166.176 1.61248
vn -0.860044 -0.48221 0.16673
v 107.044 -166.033 3.07472
vn 0.328659 -0.123903 -0.936286
v 107.87 -164.153 0.606209
vn -0.828111 -0.260137 0.49655
v 106.302 -164.493 2.68115
vn -0.598321 -0.0700799 0.798186
v 106.873 -164.406 3.27067
vn 0.881204 0.320105 -0.347867
v 107.945 -163.014 1.5439
vn 0.906884 0.390252 0.158947
v 107.765 -162.22 2.1063
vn 0.111399 0.243825 0.9634
v 107.243 -161.987 2.66261
vn -0.531796 -0.0105809 0.846806
v 105.875 -162.012 2.69567
vn -0.327575 0.0874493 0.940769
v 106.342 -162.699 2.97018
vn -0.266015 -0.591304 -0.761312
v 109.774 -168.623 2.15705
vn 0.766385 0.405192 -0.498471
v 109.592 -167.07 1.5305
vn -0.77725 -0.622478 0.0916709
v 107.761 -167.008 3.37099
vn -0.712029 -0.414478 0.566765
v 108.022 -167.21 3.64286
vn 0.834134 0.432913 -0.34177
v 109.438 -165.878 2.14175
vn 0.832021 0.554742 -0.00179552
v 109.425 -165.533 3.02653
vn -0.723689 -0.231489 0.650145
v 107.002 -165.831 3.16949
vn 0.217442 -0.44766 -0.867363
v 110.997 -168.987 2.37426
vn -0.392454 -0.753989 -0.526764
v 110.84 -169.535 2.67456
vn 0.407651 -0.481371 -0.775953
v 111.204 -168.962 2.46747
vn -0.623515 -0.756416 -0.197646
v 110.137 -169.583 3.26682
vn 0.272877 -0.384307 -0.881956
v 111.128 -168.739 2.30679
vn 0.875347 0.401908 -0.26877
v 110.825 -167.537 3.04745
vn 0.963214 0.258547 -0.0732978
v 110.941 -167.943 3.14079
vn 0.931677 0.329671 0.152629
v 110.845 -167.36 3.5932
vn -0.366149 -0.0162616 0.930414
v 108.688 -167.13 4.15059
vn -0.689199 -0.556098 0.464499
v 109.108 -168.443 3.82017
vn -0.583412 -0.348822 0.733454
v 109.666 -168.086 4.43407
vn 0.164281 0.20258 0.965388
v 110.189 -167.544 4.37998
vn 0.772374 0.53622 0.340451
v 110.535 -167.169 4.13662
vn 0.0657079 0.346955 0.935577
v 109.491 -165.995 3.75328
vn 0.740008 -0.587392 -0.327657
v 110.779 -170.036 3.43325
vn 0.882385 0.0476388 0.46811
v 110.739 -169.781 3.51361
vn -0.571863 -0.740485 0.353066
v 110.234 -169.547 3.98701
vn -0.600832 -0.536041 0.593009
v 110.016 -169.13 4.24819
vn 0.86917 0.0375143 0.493088
v 110.371 -169.513 4.14182
vn 0.893309 -0.0814605 0.441998
v 110.567 -167.379 4.19078
vn 0.870379 -0.0591953 0.488811
v 110.117 -168.343 4.36387
vn -0.882676 -0.392182 0.258993
v 84.7382 -115.862 9.88149
vn 0.0804078 0.395761 -0.914827
v 85.0518 -113.811 8.85032
vn -0.450939 0.0574613 -0.890703
v 85.0518 -113.811 8.85032
vn -0.880117 -0.0435933 -0.472752
v 84.3884 -112.353 9.49305
vn 0.766266 0.642495 -0.00607706
v 84.1283 -111.631 10.9675
vn -0.778398 0.320908 -0.539551
v 83.2087 -111.501 11.1192
vn -0.385885 0.791264 -0.474335
v 83.6726 -111.129 10.7061
vn -0.706305 0.285557 -0.647757
v 83.0803 -111.5 11.3555
vn -0.960687 -0.269531 0.0665826
v 83.0803 -111.5 11.3555
vn -0.583355 -0.521508 0.622677
v 83.0803 -111.5 11.3555
vn -0.881709 -0.412481 0.229016
v 83.0803 -111.5 11.3555
vn -0.385885 0.791264 -0.474335
v 83.6436 -110.987 10.9666
vn -0.99296 -0.106191 -0.0524815
v 83.6436 -110.987 10.9666
vn -0.766832 0.33489 0.547556
v 83.6436 -110.987 10.9666
vn 0.607311 0.780327 0.149205
v 83.6436 -110.987 10.9666
vn -0.728917 0.317957 -0.606286
v 83.3852 -110.928 11.2752
vn 0.177796 0.664712 -0.725636
v 83.3852 -110.928 11.2752
vn 0.382312 0.912463 0.145769
v 83.3852 -110.928 11.2752
vn 0.773785 0.6158 -0.14848
v 84.2223 -109.78 10.6166
vn 0.773785 0.6158 -0.14848
v 84.7621 -110.587 10.0831
vn -0.00848899 0.349446 -0.936918
v 83.5245 -109.675 10.4149
vn -0.916963 -0.171821 -0.360078
v 83.5245 -109.675 10.4149
vn -0.982307 -0.0596562 -0.177524
v 83.5245 -109.675 10.4149
vn -0.803091 -0.0503376 0.593726
v 83.4413 -109.475 10.6152
vn -0.766832 0.33489 0.547556
v 83.6047 -110.427 10.5697
vn -0.985612 -0.0737491 0.152088
v 83.6047 -110.427 10.5697
vn -0.693506 -0.179264 0.697792
v 83.6047 -110.427 10.5697
vn -0.706573 -0.165741 0.687957
v 83.5913 -110.103 10.6395
vn 0.137308 -0.0481248 0.989359
v 83.5691 -109.303 10.8027
vn -0.766832 0.33489 0.547556
v 83.7457 -110.361 10.7267
vn -0.686317 -0.171962 0.706681
v 83.7457 -110.361 10.7267
vn 0.373073 0.705349 -0.602743
v 82.7048 -110.016 11.9436
vn -0.960687 -0.269531 0.0665826
v 82.7048 -110.016 11.9436
vn -0.675196 0.649403 0.349839
v 82.7048 -110.016 11.9436
vn -0.646161 -0.374529 0.664984
v 82.7422 -110.096 12.1629
vn -0.675196 0.649403 0.349839
v 82.7422 -110.096 12.1629
vn -0.486152 0.383362 0.785296
v 82.7422 -110.096 12.1629
vn -0.573348 0.727523 -0.376805
v 82.6974 -109.92 12.2328
vn -0.675196 0.649403 0.349839
v 82.9261 -109.919 12.1907
vn -0.486152 0.383362 0.785296
v 82.9261 -109.919 12.1907
vn 0.667392 0.734668 0.121863
v 82.9261 -109.919 12.1907
vn -0.573348 0.727523 -0.376805
v 82.7575 -109.897 12.1855
vn -0.573348 0.727523 -0.376805
v 82.7154 -109.896 12.2516
vn -0.997779 0.0261803 -0.0612514
v 83.3842 -108.67 10.7812
vn 0.12961 0.98927 0.0674305
v 83.3842 -108.67 10.7812
vn -0.858013 0.138781 -0.494523
v 83.4865 -109.079 10.6479
vn -0.769953 0.145761 0.62123
v 83.4865 -109.079 10.6479
vn 0.129595 0.989273 0.0674146
v 83.4865 -109.079 10.6479
vn -0.997779 0.0261803 -0.0612514
v 83.3792 -108.872 10.7771
vn 0.978268 -0.177325 0.107456
v 83.3792 -108.872 10.7771
vn -0.0915831 -0.162007 0.98253
v 83.3792 -108.872 10.7771
vn 0.978268 -0.177325 0.107456
v 83.4143 -108.674 10.7825
vn 0.129499 0.989278 0.0675273
v 83.4143 -108.674 10.7825
vn -0.0915831 -0.162007 0.98253
v 83.4107 -108.676 10.8123
vn 0.12961 0.98927 0.0674305
v 83.4107 -108.676 10.8123
vn -0.0915831 -0.162007 0.98253
v 83.3823 -108.672 10.8102
vn 0.129722 0.989262 0.0673338
v 83.3823 -108.672 10.8102
vn 0.847272 0.527891 0.058833
v 83.8085 -109.124 10.6966
vn 0.525698 0.232135 0.818385
v 83.8085 -109.124 10.6966
vn 0.129595 0.989273 0.0674146
v 83.8085 -109.124 10.6966
vn 0.129595 0.989273 0.0674146
v 83.6365 -109.109 10.8027
vn -0.674848 0.235072 0.699515
v 83.6365 -109.109 10.8027
vn -0.8356 -0.394264 0.38253
v 85.9034 -119.2 9.14987
vn 0.650187 0.731483 -0.205399
v 88.4889 -115.046 8.48548
vn 0.783102 0.394755 0.480541
v 88.4889 -115.046 8.48548
vn 0.756947 0.545354 -0.36003
v 88.4889 -115.046 8.48548
vn 0.758707 0.382884 0.527033
v 87.4706 -115.191 9.61354
vn 0.693183 0.694496 -0.192801
v 87 -113.511 9.23745
vn 0.750484 0.412514 0.516338
v 86.9916 -113.422 9.5261
vn 0.708786 0.646852 -0.281433
v 85.4828 -113.162 11.1276
vn 0.798088 0.57058 -0.193633
v 86.2468 -112.591 9.5156
vn 0.656884 0.669158 -0.347463
v 86.0245 -111.963 9.81862
vn 0.908747 0.391549 -0.144456
v 86.0245 -111.963 9.81862
vn 0.718726 0.31448 0.62011
v 86.0245 -111.963 9.81862
vn 0.827164 0.525195 -0.199923
v 86.2423 -112.473 9.80625
vn 0.669394 0.55984 0.488355
v 84.8327 -112.327 11.2258
vn 0.417676 0.144376 0.897052
v 84.3529 -111.478 12.1308
vn 0.0506055 0.0196844 0.998525
v 83.2816 -110.587 12.41
vn 0.534172 0.282243 0.796868
v 83.3445 -110.334 12.4018
vn 0.0506055 0.0196844 0.998525
v 83.3445 -110.334 12.4018
vn 0.465218 0.168989 0.868916
v 83.5859 -110.83 12.4154
vn 0.00647029 0.0306888 0.999508
v 83.5859 -110.83 12.4154
vn -0.486152 0.383362 0.785296
v 83.1098 -110.161 12.4226
vn 0.094636 0.00863936 0.995474
v 83.1098 -110.161 12.4226
vn 0.580384 0.748333 0.321174
v 83.1098 -110.161 12.4226
vn -0.505778 -0.0116869 -0.862585
v 92.0043 -127.774 4.57316
vn 0.172365 0.402761 -0.898929
v 92.1145 -125.561 4.51671
vn -0.946584 -0.322457 0.000427971
v 88.3894 -125.482 7.55188
vn 0.832396 0.550603 -0.0628762
v 91.774 -120.724 6.78017
vn 0.680512 0.180768 0.710089
v 91.7285 -120.627 7.0253
vn 0.902581 0.430513 -0.00238042
v 90.7306 -118.532 7.53535
vn 0.759331 0.634406 0.144725
v 90.7306 -118.532 7.53535
vn 0.660585 0.161761 0.733117
v 90.7306 -118.532 7.53535
vn 0.851923 0.501075 0.152156
v 90.1174 -117.833 7.68741
vn 0.756947 0.545354 -0.36003
v 90.1174 -117.833 7.68741
vn 0.661256 0.19115 0.725398
v 90.0781 -117.845 7.94891
vn 0.922019 0.354513 0.155569
v 89.866 -117.301 7.96485
vn 0.731031 0.267873 0.627565
v 89.866 -117.301 7.96485
vn 0.294044 0.95208 0.084158
v 88.1994 -116.472 10.8656
vn 0.826392 0.560706 0.0518211
v 88.1994 -116.472 10.8656
vn 0.0335745 0.792489 0.608961
v 88.1994 -116.472 10.8656
vn 0.579703 0.563342 -0.588719
v 87.4641 -115.415 11.1531
vn 0.149845 -0.124744 0.980808
v 87.4641 -115.415 11.1531
vn 0.826392 0.560706 0.0518211
v 87.4641 -115.415 11.1531
vn 0.793869 0.589712 0.148364
v 86.4334 -114.186 11.6971
vn -0.920053 -0.267257 -0.28649
v 91.6553 -134.479 5.73194
vn -0.70368 -0.410443 0.579975
v 91.9012 -135.11 5.6737
vn 0.845888 0.509036 -0.159236
v 95.1376 -126.213 5.30507
vn 0.825048 0.527508 -0.202563
v 94.3125 -124.842 5.4628
vn 0.615919 0.126459 0.777593
v 94.5098 -125.133 5.50713
vn 0.719511 0.250512 0.647725
v 92.4328 -121.499 6.60864
vn 0.743059 0.658026 -0.121925
v 92.4328 -121.499 6.60864
vn 0.826202 0.530073 -0.190819
v 92.4328 -121.499 6.60864
vn -0.0617047 0.366982 -0.928179
v 90.8931 -120.275 9.39556
vn 0.571591 0.429229 -0.699319
v 90.8931 -120.275 9.39556
vn 0.839879 0.496848 -0.218506
v 91.1348 -119.731 9.62917
vn 0.809991 0.362907 0.460665
v 91.1348 -119.731 9.62917
vn 0.374985 0.52691 -0.762727
v 89.9807 -120.006 9.23832
vn 0.653189 0.608281 -0.45093
v 89.9807 -120.006 9.23832
vn -0.259744 0.714228 0.649932
v 90.3839 -118.442 10.185
vn -0.765113 -0.0884439 0.637792
v 90.3839 -118.442 10.185
vn -0.063966 0.652626 0.754975
v 90.1885 -118.414 10.1439
vn 0.953496 0.290341 0.0809211
v 90.1885 -118.414 10.1439
vn 0.431458 0.535255 -0.726186
v 90.1885 -118.414 10.1439
vn 0.801062 0.330808 0.498865
v 90.6631 -119.069 9.94745
vn 0.571591 0.429229 -0.699319
v 90.6631 -119.069 9.94745
vn 0.683805 -0.0707128 0.72623
v 90.6631 -119.069 9.94745
vn 0.430026 -0.0512227 0.901362
v 90.2395 -118.636 10.3403
vn -0.259744 0.714228 0.649932
v 90.2395 -118.636 10.3403
vn 0.596691 -0.134258 0.791161
v 90.2395 -118.636 10.3403
vn 0.953496 0.290341 0.0809211
v 90.2395 -118.636 10.3403
vn -0.441714 0.737863 0.51034
v 90.4244 -118.451 10.2324
vn -0.765113 -0.0884439 0.637792
v 90.4244 -118.451 10.2324
vn 0.571591 0.429229 -0.699319
v 90.4133 -118.248 10.2472
vn 0.760086 -0.00604698 0.649795
v 90.4133 -118.248 10.2472
vn -0.765113 -0.0884439 0.637792
v 90.4133 -118.248 10.2472
vn 0.38008 0.0237932 0.924648
v 89.8319 -117.393 10.6844
vn 0.431458 0.535255 -0.726186
v 89.8319 -117.393 10.6844
vn 0.826392 0.560706 0.0518211
v 88.2805 -116.607 11.0374
vn 0.0335745 0.792489 0.608961
v 88.2805 -116.607 11.0374
vn 0.294044 0.95208 0.084158
v 88.8215 -116.675 10.9883
vn -0.342707 0.242853 -0.90751
v 88.8215 -116.675 10.9883
vn -0.978573 0.178954 -0.101833
v 88.8215 -116.675 10.9883
vn -0.062801 -0.163764 0.984499
v 89.0456 -117.514 11.0107
vn 0.673017 -0.193039 0.713991
v 89.0456 -117.514 11.0107
vn 0.778902 -0.239634 0.579558
v 89.405 -116.938 10.7659
vn 0.431458 0.535255 -0.726186
v 89.405 -116.938 10.7659
vn 0.355462 0.16887 0.919309
v 89.405 -116.938 10.7659
vn 0.62505 0.661167 -0.414933
v 89.405 -116.938 10.7659
vn 0.633202 0.647252 -0.424405
v 89.276 -116.729 10.9055
vn -0.0496442 -0.11648 0.991951
v 88.8083 -116.681 11.1043
vn 0.0335745 0.792489 0.608961
v 88.8083 -116.681 11.1043
vn -0.978573 0.178954 -0.101833
v 88.8083 -116.681 11.1043
vn 0.641133 0.63311 -0.433728
v 89.0515 -116.483 10.932
vn 0.920968 0.222002 0.320207
v 89.0515 -116.483 10.932
vn 0.206049 0.318693 0.925191
v 89.0515 -116.483 10.932
vn 0.100646 -0.0484694 0.993741
v 89.109 -116.92 11.0698
vn 0.920968 0.222002 0.320207
v 89.109 -116.92 11.0698
vn 0.206049 0.318693 0.925191
v 89.109 -116.92 11.0698
vn 0.633202 0.647252 -0.424405
v 89.3223 -116.739 10.9597
vn 0.206049 0.318693 0.925191
v 89.3223 -116.739 10.9597
vn -0.0306051 0.275519 0.960808
v 88.8162 -115.881 11.2222
vn 0.186621 -0.00184092 0.98243
v 88.9471 -116.295 11.1017
vn -0.0682852 0.646125 -0.760171
v 88.9471 -116.295 11.1017
vn -0.282699 0.507948 -0.813677
v 88.8793 -116.287 11.1146
vn 0.13442 -0.0213498 0.990694
v 88.8793 -116.287 11.1146
vn -0.0306051 0.275519 0.960808
v 88.8218 -115.912 11.2312
vn -0.0306051 0.275519 0.960808
v 88.8365 -115.884 11.2236
vn 0.102879 0.242883 -0.964585
v 99.4657 -144.606 -0.109998
vn 0.887984 0.44745 -0.106168
v 98.2332 -132.756 3.60828
vn 0.912402 0.40927 -0.00467071
v 96.8628 -130.031 3.9423
vn 0.919403 0.373692 0.12269
v 96.8154 -129.995 4.19039
vn 0.512072 0.446639 -0.733687
v 95.677 -130.181 6.2559
vn 0.923444 0.373853 -0.0865194
v 96.5269 -129.26 4.10253
vn 0.763944 0.116171 0.634739
v 96.5126 -129.16 4.3835
vn 0.795571 0.495708 -0.348339
v 96.2032 -128.244 4.56217
vn 0.940878 0.331334 -0.0704745
v 96.2032 -128.244 4.56217
vn 0.58539 0.475291 -0.656824
v 94.0632 -126.99 6.88194
vn 0.240496 0.638984 -0.730658
v 93.9827 -125.42 7.76443
vn 0.67971 0.272229 -0.681091
v 93.9827 -125.42 7.76443
vn 0.864434 0.438057 0.246698
v 94.333 -125.635 7.69203
vn 0.240496 0.638984 -0.730658
v 94.333 -125.635 7.69203
vn 0.868412 0.406088 0.284522
v 94.1055 -125.247 7.95615
vn 0.67971 0.272229 -0.681091
v 94.1055 -125.247 7.95615
vn 0.767659 0.585302 -0.261
v 93.5686 -124.374 8.04113
vn 0.435256 0.55147 -0.711642
v 93.5686 -124.374 8.04113
vn 0.67971 0.272229 -0.681091
v 93.9111 -124.816 7.93447
vn 0.0585185 0.276825 -0.959137
v 93.9111 -124.816 7.93447
vn 0.679706 0.620924 -0.390453
v 93.9111 -124.816 7.93447
vn -0.111313 -0.400985 0.909297
v 93.197 -123.14 8.31536
vn 0.839879 0.496848 -0.218506
v 92.9573 -123.314 8.48895
vn 0.835835 0.534601 -0.124824
v 92.9573 -123.314 8.48895
vn 0.75471 0.254663 0.604615
v 92.9573 -123.314 8.48895
vn 0.767659 0.585302 -0.261
v 93.2455 -123.779 8.42429
vn -0.111313 -0.400985 0.909297
v 93.2012 -123.132 8.31956
vn -0.111313 -0.400985 0.909297
v 93.1945 -123.131 8.31913
vn 0.81684 0.394074 0.421282
v 91.7243 -120.794 9.47977
vn 0.639216 0.101958 0.762239
v 91.7243 -120.794 9.47977
vn 0.733356 0.352808 -0.581133
v 100.911 -139.144 2.02841
vn 0.889027 0.434006 -0.145841
v 100.911 -139.144 2.02841
vn 0.574328 0.0868826 0.814002
v 100.249 -137.62 2.66734
vn 0.891048 0.366673 -0.267552
v 99.202 -135.471 2.82248
vn 0.732589 0.167644 0.659704
v 99.2167 -135.291 3.11824
vn 0.719155 0.504575 -0.477725
v 98.007 -135.034 4.45336
vn 0.938358 0.272556 -0.212598
v 99.0323 -134.66 3.1135
vn 0.872109 0.25792 0.415817
v 99.0323 -134.66 3.1135
vn -0.163009 0.213952 -0.963147
v 96.1768 -130.71 6.26462
vn 0.541451 0.471057 -0.696374
v 96.1768 -130.71 6.26462
vn 0.377287 0.434304 -0.817946
v 96.1452 -128.474 6.95986
vn 0.8356 0.490337 0.247674
v 96.1452 -128.474 6.95986
vn 0.832097 0.453875 0.318767
v 95.4223 -127.394 7.25967
vn -0.365131 -0.0186683 -0.930769
v 102.833 -155.063 -1.46661
vn -0.21129 -0.0827172 -0.973917
v 103.363 -156.128 -1.68414
vn 0.842798 0.468082 -0.265689
v 103.101 -145.988 1.31415
vn 0.9309 0.364892 -0.0166777
v 102.817 -144.535 1.31034
vn 0.657598 0.404285 -0.635703
v 102.282 -143.732 2.42037
vn 0.866705 0.18304 0.464025
v 102.282 -143.732 2.42037
vn 0.926834 0.258054 0.272738
v 102.023 -142.846 1.78295
vn 0.771557 0.145304 0.619344
v 101.812 -141.901 3.15159
vn 0.551803 0.0525747 0.832315
v 101.584 -140.58 2.00607
vn 0.902268 0.424151 -0.0775199
v 101.584 -140.58 2.00607
vn 0.93655 0.150235 0.316706
v 101.584 -140.58 2.00607
vn 0.656607 0.400031 -0.639408
v 101.228 -140.625 3.34976
vn 0.813598 0.29482 0.501138
v 101.228 -140.625 3.34976
vn 0.850083 0.306172 -0.428506
v 101.228 -140.625 3.34976
vn 0.850083 0.306172 -0.428506
v 101.611 -141.686 3.35184
vn 0.0113094 0.250688 -0.968002
v 100.551 -139.741 3.55631
vn 0.527313 0.0362157 0.848899
v 100.824 -138.98 3.72494
vn 0.189656 0.232818 -0.953848
v 100.824 -138.98 3.72494
vn 0.985946 -0.0394584 0.162339
v 100.824 -138.98 3.72494
vn 0.847228 0.492851 -0.198249
v 100.525 -137.842 3.92057
vn 0.708213 0.085612 0.700788
v 100.494 -137.755 4.18371
vn 0.672457 0.0715741 0.736668
v 100.815 -138.187 3.97781
vn 0.486553 0.27102 -0.830551
v 100.815 -138.187 3.97781
vn 0.769861 0.627189 -0.118099
v 100.815 -138.187 3.97781
vn 0.752632 0.0806528 0.653483
v 99.643 -135.465 4.84686
vn 0.906078 0.394096 0.15398
v 99.643 -135.465 4.84686
vn 0.907663 0.41122 0.0839382
v 98.9419 -133.98 5.1719
vn 0.485149 0.483131 -0.728845
v 98.9419 -133.98 5.1719
vn 0.763761 0.459782 -0.453067
v 98.9419 -133.98 5.1719
vn -0.260509 -0.154831 0.952976
v 102.464 -154.819 1.59568
vn -0.288563 -0.324259 0.900881
v 101.858 -153.541 1.81283
vn 0.899069 0.257998 0.35371
v 105.279 -153.258 -0.019343
vn 0.794497 0.12232 0.594821
v 104.222 -148.933 0.848916
vn 0.91256 0.330368 -0.241019
v 102.866 -145.604 2.0672
vn 0.985946 -0.0394584 0.162339
v 100.497 -145.236 4.19551
vn -0.114361 -0.323213 -0.939391
v 105.277 -162.043 -0.515885
vn -0.457053 -0.614614 -0.642925
v 106.005 -162.848 -0.22095
vn 0.58994 -0.00933127 -0.807393
v 105.885 -160.547 -1.03092
vn 0.843883 0.312554 0.436087
v 105.522 -155.609 1.37319
vn 0.306328 0.0880287 0.947847
v 103.705 -154.601 1.94571
vn 0.0640748 -0.0832869 0.994464
v 104.2 -153.24 1.79253
vn 0.755513 0.215289 -0.61875
v 108.291 -165.236 0.847614
vn 0.881079 0.186295 -0.434733
v 107.87 -164.153 0.606209
vn 0.741801 0.426205 0.517765
v 107.243 -161.987 2.66261
vn 0.0972552 -0.330915 -0.938636
v 109.592 -167.07 1.5305
vn 0.154471 -0.458205 -0.875321
v 110.84 -169.535 2.67456
vn 0.740008 -0.587392 -0.327657
v 110.84 -169.535 2.67456
vn 0.740008 -0.587392 -0.327657
v 111.204 -168.962 2.46747
vn 0.881404 -0.00486292 0.472338
v 111.204 -168.962 2.46747
vn 0.960566 0.27408 -0.0468194
v 111.204 -168.962 2.46747
vn 0.880476 0.388821 -0.271255
v 111.128 -168.739 2.30679
vn 0.860139 -0.203423 0.46774
v 110.941 -167.943 3.14079
vn 0.0655202 -0.0343214 0.997261
v 109.666 -168.086 4.43407
vn 0.244242 0.358646 0.900954
v 110.535 -167.169 4.13662
vn 0.738269 0.571506 0.358246
v 109.491 -165.995 3.75328
vn -0.393551 -0.752584 -0.527954
v 110.779 -170.036 3.43325
vn 0.885308 -0.00606633 0.464966
v 110.779 -170.036 3.43325
vn -0.457348 -0.840247 0.291236
v 110.779 -170.036 3.43325
vn 0.165361 -0.11888 0.979042
v 110.016 -169.13 4.24819
vn -0.408758 -0.747212 0.524014
v 110.371 -169.513 4.14182
vn 0.109674 -0.147187 0.98301
v 110.371 -169.513 4.14182
vn 0.404531 0.11327 0.907483
v 110.567 -167.379 4.19078
vn 0.223276 -0.0906276 0.970533
v 110.117 -168.343 4.36387
f 37//37 2//2 1//1
f 2//2 8//8 1//1
f 1//1 8//8 3//3
f 8//8 4//4 3//3
f 3//3 4//4 15//15
f 4//4 8//8 6//6
f 383//383 14//14 364//364
f 14//14 49//49 364//364
f 384//384 366//366 17//17
f 17//17 366//366 7//7
f 366//366 368//368 7//7
f 53//53 13//13 20//20
f 20//20 9//9 53//53
f 53//53 9//9 5//5
f 369//369 10//10 374//374
f 7//7 368//368 378//378
f 368//368 370//370 378//378
f 375//375 17//17 7//7
f 376//376 392//392 387//387
f 378//378 370//370 21//21
f 367//367 377//377 11//11
f 394//394 11//11 379//379
f 11//11 377//377 380//380
f 11//11 54//54 367//367
f 28//28 12//12 383//383
f 33//33 12//12 28//28
f 383//383 12//12 14//14
f 34//34 20//20 13//13
f 14//14 12//12 33//33
f 420//420 381//381 382//382
f 13//13 421//421 34//34
f 385//385 16//16 408//408
f 388//388 18//18 385//385
f 385//385 18//18 16//16
f 386//386 390//390 19//19
f 19//19 409//409 386//386
f 389//389 393//393 390//390
f 20//20 34//34 391//391
f 390//390 393//393 19//19
f 57//57 11//11 394//394
f 394//394 24//24 57//57
f 371//371 22//22 395//395
f 372//372 58//58 397//397
f 401//401 396//396 398//398
f 26//26 23//23 25//25
f 405//405 404//404 400//400
f 58//58 61//61 397//397
f 445//445 402//402 399//399
f 30//30 29//29 27//27
f 411//411 32//32 406//406
f 414//414 31//31 412//412
f 413//413 416//416 418//418
f 417//417 415//415 407//407
f 417//417 407//407 419//419
f 410//410 423//423 422//422
f 424//424 409//409 19//19
f 76//76 35//35 1//1
f 35//35 94//94 36//36
f 96//96 1//1 36//36
f 35//35 36//36 1//1
f 97//97 425//425 450//450
f 96//96 37//37 1//1
f 55//55 425//425 97//97
f 1//1 365//365 93//93
f 364//364 39//39 449//449
f 425//425 55//55 38//38
f 38//38 363//363 425//425
f 363//363 38//38 373//373
f 55//55 372//372 38//38
f 41//41 39//39 364//364
f 43//43 53//53 40//40
f 44//44 429//429 53//53
f 429//429 44//44 110//110
f 49//49 41//41 364//364
f 42//42 430//430 433//433
f 430//430 42//42 426//426
f 427//427 431//431 43//43
f 431//431 51//51 43//43
f 437//437 42//42 433//433
f 110//110 44//44 45//45
f 110//110 45//45 47//47
f 46//46 44//44 438//438
f 45//45 44//44 46//46
f 56//56 48//48 54//54
f 54//54 48//48 432//432
f 45//45 46//46 47//47
f 47//47 432//432 48//48
f 55//55 113//113 439//439
f 467//467 48//48 56//56
f 49//49 14//14 50//50
f 381//381 434//434 382//382
f 435//435 437//437 433//433
f 436//436 52//52 51//51
f 13//13 52//52 436//436
f 52//52 53//53 43//43
f 43//43 51//51 52//52
f 13//13 53//53 52//52
f 53//53 5//5 438//438
f 438//438 44//44 53//53
f 372//372 60//60 58//58
f 54//54 11//11 57//57
f 372//372 55//55 60//60
f 439//439 443//443 55//55
f 56//56 54//54 57//57
f 57//57 59//59 56//56
f 443//443 439//439 441//441
f 442//442 446//446 440//440
f 57//57 403//403 59//59
f 447//447 59//59 403//403
f 440//440 444//444 442//442
f 63//63 121//121 62//62
f 121//121 63//63 124//124
f 62//62 130//130 68//68
f 130//130 69//69 68//68
f 72//72 63//63 62//62
f 63//63 72//72 124//124
f 72//72 70//70 124//124
f 62//62 68//68 64//64
f 69//69 66//66 68//68
f 65//65 64//64 68//68
f 68//68 66//66 65//65
f 64//64 65//65 67//67
f 65//65 66//66 67//67
f 66//66 69//69 67//67
f 69//69 130//130 83//83
f 69//69 83//83 88//88
f 72//72 73//73 70//70
f 124//124 70//70 71//71
f 62//62 64//64 77//77
f 64//64 67//67 77//77
f 72//72 80//80 73//73
f 77//77 67//67 82//82
f 81//81 69//69 88//88
f 67//67 81//81 82//82
f 67//67 69//69 81//81
f 84//84 128//128 85//85
f 70//70 86//86 71//71
f 74//74 72//72 62//62
f 62//62 76//76 74//74
f 80//80 74//74 76//76
f 74//74 80//80 72//72
f 86//86 75//75 93//93
f 448//448 93//93 75//75
f 73//73 75//75 70//70
f 70//70 75//75 86//86
f 448//448 75//75 73//73
f 62//62 77//77 76//76
f 77//77 35//35 76//76
f 78//78 89//89 35//35
f 87//87 80//80 79//79
f 79//79 76//76 87//87
f 77//77 82//82 78//78
f 78//78 35//35 77//77
f 78//78 82//82 89//89
f 76//76 79//79 80//80
f 81//81 89//89 82//82
f 84//84 450//450 83//83
f 468//468 84//84 83//83
f 85//85 97//97 84//84
f 92//92 137//137 86//86
f 1//1 87//87 76//76
f 93//93 448//448 87//87
f 81//81 88//88 89//89
f 88//88 94//94 89//89
f 35//35 89//89 94//94
f 88//88 83//83 91//91
f 88//88 91//91 94//94
f 90//90 83//83 96//96
f 91//91 95//95 94//94
f 90//90 95//95 91//91
f 83//83 90//90 91//91
f 97//97 85//85 55//55
f 92//92 86//86 449//449
f 87//87 1//1 93//93
f 95//95 96//96 94//94
f 36//36 94//94 96//96
f 90//90 96//96 95//95
f 450//450 84//84 97//97
f 449//449 39//39 92//92
f 106//106 92//92 39//39
f 92//92 142//142 137//137
f 99//99 142//142 98//98
f 92//92 98//98 142//142
f 145//145 142//142 99//99
f 473//473 104//104 146//146
f 99//99 106//106 102//102
f 106//106 98//98 92//92
f 99//99 98//98 106//106
f 451//451 453//453 100//100
f 104//104 473//473 452//452
f 100//100 474//474 451//451
f 146//146 104//104 101//101
f 55//55 135//135 105//105
f 456//456 107//107 454//454
f 455//455 458//458 103//103
f 104//104 103//103 458//458
f 104//104 452//452 103//103
f 103//103 452//452 455//455
f 104//104 110//110 101//101
f 110//110 150//150 101//101
f 457//457 428//428 108//108
f 456//456 459//459 107//107
f 104//104 109//109 40//40
f 458//458 109//109 104//104
f 460//460 109//109 458//458
f 460//460 43//43 109//109
f 109//109 43//43 40//40
f 104//104 429//429 110//110
f 110//110 112//112 150//150
f 464//464 111//111 480//480
f 480//480 111//111 159//159
f 164//164 503//503 461//461
f 105//105 158//158 465//465
f 460//460 427//427 43//43
f 501//501 462//462 466//466
f 112//112 110//110 47//47
f 48//48 112//112 47//47
f 112//112 48//48 467//467
f 113//113 55//55 105//105
f 465//465 113//113 105//105
f 116//116 115//115 120//120
f 115//115 121//121 120//120
f 116//116 120//120 114//114
f 115//115 116//116 114//114
f 118//118 122//122 119//119
f 119//119 122//122 117//117
f 180//180 119//119 117//117
f 180//180 118//118 119//119
f 181//181 127//127 118//118
f 181//181 182//182 127//127
f 182//182 129//129 127//127
f 118//118 127//127 122//122
f 120//120 123//123 184//184
f 120//120 184//184 114//114
f 121//121 117//117 62//62
f 125//125 117//117 122//122
f 120//120 71//71 123//123
f 123//123 71//71 184//184
f 124//124 120//120 121//121
f 71//71 120//120 124//124
f 117//117 125//125 62//62
f 62//62 125//125 130//130
f 122//122 127//127 125//125
f 127//127 126//126 125//125
f 127//127 468//468 126//126
f 126//126 83//83 125//125
f 126//126 468//468 83//83
f 127//127 129//129 468//468
f 128//128 469//469 131//131
f 130//130 125//125 83//83
f 71//71 133//133 184//184
f 128//128 131//131 85//85
f 132//132 85//85 131//131
f 189//189 132//132 131//131
f 85//85 132//132 135//135
f 189//189 135//135 132//132
f 86//86 133//133 71//71
f 86//86 134//134 133//133
f 189//189 197//197 135//135
f 86//86 137//137 134//134
f 201//201 139//139 195//195
f 136//136 139//139 201//201
f 202//202 136//136 201//201
f 134//134 470//470 538//538
f 195//195 139//139 146//146
f 195//195 146//146 203//203
f 85//85 135//135 55//55
f 140//140 470//470 134//134
f 137//137 142//142 134//134
f 134//134 142//142 138//138
f 472//472 139//139 136//136
f 146//146 139//139 472//472
f 140//140 134//134 471//471
f 203//203 146//146 141//141
f 141//141 208//208 203//203
f 203//203 208//208 207//207
f 135//135 197//197 147//147
f 142//142 145//145 138//138
f 471//471 475//475 140//140
f 473//473 146//146 472//472
f 208//208 141//141 143//143
f 146//146 101//101 143//143
f 141//141 146//146 143//143
f 143//143 144//144 208//208
f 208//208 144//144 209//209
f 150//150 143//143 101//101
f 481//481 144//144 143//143
f 144//144 480//480 148//148
f 148//148 215//215 144//144
f 105//105 135//135 147//147
f 480//480 159//159 148//148
f 148//148 149//149 215//215
f 149//149 217//217 215//215
f 553//553 478//478 223//223
f 479//479 154//154 559//559
f 147//147 490//490 160//160
f 504//504 152//152 476//476
f 151//151 476//476 152//152
f 482//482 484//484 491//491
f 476//476 151//151 156//156
f 153//153 149//149 148//148
f 479//479 487//487 154//154
f 477//477 496//496 488//488
f 489//489 497//497 155//155
f 482//482 491//491 494//494
f 155//155 492//492 489//489
f 483//483 495//495 498//498
f 147//147 506//506 105//105
f 506//506 513//513 105//105
f 504//504 163//163 152//152
f 161//161 152//152 163//163
f 507//507 508//508 167//167
f 485//485 157//157 493//493
f 490//490 499//499 160//160
f 500//500 486//486 509//509
f 499//499 510//510 160//160
f 105//105 513//513 158//158
f 514//514 463//463 502//502
f 163//163 504//504 165//165
f 515//515 170//170 505//505
f 504//504 527//527 165//165
f 166//166 507//507 167//167
f 506//506 519//519 513//513
f 163//163 162//162 161//161
f 522//522 511//511 512//512
f 163//163 165//165 162//162
f 512//512 516//516 522//522
f 517//517 169//169 520//520
f 519//519 525//525 528//528
f 513//513 519//519 528//528
f 523//523 518//518 521//521
f 172//172 171//171 168//168
f 526//526 165//165 527//527
f 529//529 530//530 524//524
f 229//229 173//173 226//226
f 229//229 115//115 173//173
f 229//229 227//227 115//115
f 226//226 173//173 225//225
f 177//177 531//531 176//176
f 177//177 225//225 531//531
f 174//174 176//176 531//531
f 173//173 115//115 174//174
f 114//114 174//174 115//115
f 174//174 114//114 176//176
f 228//228 117//117 227//227
f 228//228 178//178 117//117
f 175//175 178//178 228//228
f 115//115 227//227 121//121
f 121//121 227//227 117//117
f 175//175 181//181 178//178
f 177//177 176//176 179//179
f 181//181 180//180 178//178
f 178//178 180//180 117//117
f 180//180 181//181 118//118
f 181//181 175//175 182//182
f 183//183 182//182 175//175
f 177//177 184//184 260//260
f 230//230 260//260 184//184
f 233//233 230//230 184//184
f 114//114 179//179 176//176
f 177//177 179//179 184//184
f 184//184 185//185 233//233
f 469//469 182//182 183//183
f 179//179 114//114 184//184
f 184//184 236//236 185//185
f 131//131 469//469 183//183
f 187//187 186//186 183//183
f 184//184 133//133 236//236
f 183//183 186//186 131//131
f 186//186 189//189 131//131
f 189//189 186//186 187//187
f 189//189 187//187 188//188
f 133//133 190//190 236//236
f 234//234 191//191 195//195
f 188//188 279//279 192//192
f 190//190 133//133 193//193
f 190//190 533//533 532//532
f 194//194 195//195 191//191
f 188//188 192//192 197//197
f 532//532 533//533 534//534
f 238//238 203//203 207//207
f 196//196 238//238 207//207
f 188//188 197//197 189//189
f 133//133 134//134 198//198
f 193//193 133//133 198//198
f 199//199 533//533 536//536
f 194//194 537//537 195//195
f 539//539 199//199 536//536
f 134//134 538//538 198//198
f 202//202 200//200 537//537
f 199//199 534//534 533//533
f 537//537 200//200 195//195
f 195//195 200//200 201//201
f 200//200 202//202 201//201
f 535//535 540//540 204//204
f 241//241 535//535 204//204
f 212//212 246//246 245//245
f 203//203 238//238 195//195
f 206//206 204//204 210//210
f 247//247 205//205 206//206
f 205//205 204//204 206//206
f 247//247 206//206 210//210
f 573//573 543//543 212//212
f 540//540 208//208 204//204
f 208//208 209//209 204//204
f 544//544 541//541 211//211
f 214//214 218//218 545//545
f 549//549 546//546 542//542
f 209//209 210//210 204//204
f 543//543 545//545 212//212
f 212//212 545//545 218//218
f 197//197 212//212 219//219
f 212//212 218//218 219//219
f 213//213 550//550 209//209
f 551//551 547//547 556//556
f 209//209 144//144 215//215
f 548//548 215//215 217//217
f 213//213 209//209 215//215
f 216//216 221//221 220//220
f 547//547 554//554 556//556
f 218//218 555//555 219//219
f 552//552 557//557 558//558
f 197//197 219//219 147//147
f 555//555 560//560 219//219
f 147//147 219//219 222//222
f 219//219 560//560 222//222
f 560//560 490//490 222//222
f 490//490 147//147 222//222
f 224//224 226//226 225//225
f 224//224 227//227 226//226
f 225//225 253//253 224//224
f 229//229 226//226 227//227
f 224//224 228//228 227//227
f 228//228 255//255 175//175
f 183//183 175//175 255//255
f 255//255 256//256 258//258
f 255//255 258//258 183//183
f 258//258 187//187 183//183
f 225//225 177//177 260//260
f 263//263 260//260 267//267
f 230//230 233//233 260//260
f 260//260 233//233 231//231
f 260//260 561//561 267//267
f 236//236 233//233 185//185
f 582//582 234//234 232//232
f 233//233 236//236 231//231
f 562//562 235//235 583//583
f 582//582 563//563 234//234
f 237//237 562//562 564//564
f 232//232 234//234 238//238
f 234//234 563//563 565//565
f 237//237 235//235 562//562
f 238//238 259//259 232//232
f 576//576 566//566 241//241
f 270//270 279//279 187//187
f 238//238 234//234 195//195
f 187//187 279//279 188//188
f 236//236 190//190 239//239
f 567//567 237//237 564//564
f 239//239 190//190 532//532
f 568//568 191//191 565//565
f 565//565 191//191 234//234
f 273//273 242//242 280//280
f 600//600 245//245 282//282
f 243//243 571//571 601//601
f 241//241 566//566 535//535
f 569//569 204//204 242//242
f 242//242 204//204 243//243
f 280//280 242//242 243//243
f 192//192 279//279 197//197
f 244//244 243//243 204//204
f 244//244 571//571 243//243
f 204//204 205//205 244//244
f 571//571 244//244 205//205
f 279//279 246//246 197//197
f 240//240 246//246 279//279
f 245//245 246//246 240//240
f 197//197 246//246 212//212
f 205//205 247//247 571//571
f 573//573 212//212 572//572
f 248//248 249//249 250//250
f 248//248 252//252 249//249
f 251//251 253//253 285//285
f 251//251 224//224 253//253
f 249//249 252//252 224//224
f 251//251 574//574 224//224
f 251//251 575//575 574//574
f 284//284 251//251 285//285
f 575//575 251//251 284//284
f 290//290 252//252 286//286
f 254//254 252//252 290//290
f 228//228 224//224 252//252
f 254//254 228//228 252//252
f 254//254 290//290 255//255
f 254//254 255//255 228//228
f 604//604 256//256 255//255
f 253//253 225//225 260//260
f 294//294 253//253 260//260
f 256//256 270//270 258//258
f 300//300 270//270 256//256
f 257//257 294//294 260//260
f 261//261 259//259 257//257
f 264//264 259//259 261//261
f 296//296 257//257 259//259
f 296//296 259//259 262//262
f 258//258 270//270 187//187
f 257//257 260//260 263//263
f 263//263 577//577 257//257
f 263//263 580//580 577//577
f 262//262 259//259 271//271
f 299//299 269//269 300//300
f 580//580 263//263 584//584
f 264//264 232//232 259//259
f 582//582 232//232 264//264
f 589//589 268//268 265//265
f 589//589 265//265 578//578
f 265//265 266//266 578//578
f 265//265 585//585 266//266
f 269//269 581//581 586//586
f 578//578 266//266 607//607
f 269//269 299//299 581//581
f 270//270 300//300 279//279
f 588//588 587//587 272//272
f 269//269 590//590 300//300
f 589//589 591//591 268//268
f 589//589 273//273 591//591
f 592//592 275//275 608//608
f 300//300 595//595 276//276
f 300//300 276//276 279//279
f 259//259 570//570 271//271
f 569//569 242//242 589//589
f 591//591 273//273 596//596
f 593//593 274//274 597//597
f 594//594 276//276 595//595
f 273//273 589//589 242//242
f 602//602 277//277 593//593
f 593//593 277//277 274//274
f 594//594 598//598 278//278
f 276//276 594//594 278//278
f 276//276 278//278 279//279
f 600//600 281//281 599//599
f 240//240 281//281 282//282
f 282//282 281//281 600//600
f 281//281 278//278 598//598
f 240//240 282//282 245//245
f 281//281 240//240 278//278
f 278//278 240//240 279//279
f 301//301 252//252 248//248
f 306//306 609//609 283//283
f 301//301 248//248 283//283
f 301//301 305//305 252//252
f 248//248 575//575 284//284
f 248//248 284//284 283//283
f 306//306 283//283 284//284
f 284//284 285//285 307//307
f 328//328 286//286 252//252
f 308//308 286//286 319//319
f 307//307 285//285 288//288
f 286//286 287//287 290//290
f 308//308 287//287 286//286
f 308//308 309//309 603//603
f 289//289 603//603 309//309
f 288//288 285//285 253//253
f 603//603 289//289 604//604
f 604//604 289//289 314//314
f 253//253 294//294 288//288
f 291//291 288//288 294//294
f 295//295 316//316 315//315
f 315//315 298//298 295//295
f 293//293 604//604 314//314
f 293//293 613//613 292//292
f 315//315 605//605 606//606
f 298//298 315//315 606//606
f 293//293 256//256 604//604
f 293//293 297//297 256//256
f 293//293 292//292 297//297
f 297//297 292//292 295//295
f 298//298 297//297 295//295
f 257//257 296//296 294//294
f 296//296 291//291 294//294
f 606//606 300//300 298//298
f 297//297 298//298 300//300
f 256//256 297//297 300//300
f 606//606 579//579 299//299
f 299//299 300//300 606//606
f 302//302 317//317 305//305
f 303//303 318//318 304//304
f 609//609 306//306 303//303
f 609//609 303//303 304//304
f 301//301 610//610 302//302
f 302//302 305//305 301//301
f 611//611 318//318 303//303
f 307//307 318//318 611//611
f 611//611 284//284 307//307
f 252//252 305//305 328//328
f 286//286 328//328 319//319
f 311//311 310//310 332//332
f 319//319 309//309 308//308
f 319//319 312//312 309//309
f 310//310 312//312 319//319
f 291//291 307//307 288//288
f 291//291 331//331 307//307
f 612//612 617//617 331//331
f 312//312 289//289 309//309
f 310//310 292//292 613//613
f 313//313 292//292 310//310
f 310//310 289//289 312//312
f 289//289 310//310 314//314
f 310//310 311//311 313//313
f 331//331 605//605 612//612
f 316//316 313//313 315//315
f 605//605 315//315 612//612
f 315//315 313//313 311//311
f 313//313 614//614 292//292
f 292//292 614//614 295//295
f 322//322 325//325 302//302
f 610//610 322//322 302//302
f 327//327 304//304 318//318
f 327//327 321//321 304//304
f 321//321 322//322 304//304
f 325//325 317//317 302//302
f 326//326 328//328 305//305
f 616//616 307//307 330//330
f 318//318 307//307 616//616
f 330//330 307//307 331//331
f 320//320 310//310 319//319
f 332//332 310//310 320//320
f 320//320 319//319 333//333
f 326//326 325//325 337//337
f 330//330 323//323 615//615
f 321//321 324//324 322//322
f 339//339 323//323 330//330
f 323//323 324//324 615//615
f 326//326 317//317 325//325
f 325//325 322//322 335//335
f 330//330 615//615 616//616
f 305//305 317//317 326//326
f 328//328 334//334 319//319
f 341//341 328//328 326//326
f 329//329 334//334 328//328
f 329//329 328//328 341//341
f 319//319 334//334 333//333
f 320//320 334//334 332//332
f 334//334 320//320 333//333
f 332//332 334//334 355//355
f 343//343 345//345 335//335
f 347//347 336//336 323//323
f 618//618 322//322 324//324
f 325//325 335//335 345//345
f 618//618 335//335 322//322
f 619//619 335//335 618//618
f 323//323 339//339 347//347
f 345//345 337//337 325//325
f 326//326 337//337 338//338
f 351//351 338//338 337//337
f 618//618 324//324 323//323
f 340//340 347//347 339//339
f 341//341 326//326 338//338
f 338//338 350//350 341//341
f 350//350 355//355 334//334
f 350//350 329//329 341//341
f 330//330 340//340 339//339
f 340//340 330//330 331//331
f 628//628 340//340 331//331
f 329//329 350//350 334//334
f 628//628 331//331 617//617
f 342//342 618//618 346//346
f 619//619 618//618 342//342
f 619//619 342//342 344//344
f 344//344 342//342 346//346
f 356//356 620//620 621//621
f 343//343 629//629 345//345
f 358//358 351//351 345//345
f 357//357 630//630 622//622
f 345//345 631//631 358//358
f 622//622 362//362 357//357
f 358//358 359//359 351//351
f 624//624 336//336 347//347
f 623//623 624//624 347//347
f 347//347 348//348 623//623
f 622//622 625//625 362//362
f 347//347 349//349 348//348
f 361//361 362//362 625//625
f 361//361 625//625 349//349
f 361//361 349//349 354//354
f 351//351 337//337 345//345
f 338//338 351//351 350//350
f 352//352 350//350 351//351
f 359//359 352//352 351//351
f 353//353 350//350 626//626
f 350//350 353//353 355//355
f 635//635 353//353 636//636
f 349//349 347//347 340//340
f 349//349 340//340 354//354
f 628//628 354//354 340//340
f 353//353 627//627 355//355
f 360//360 630//630 357//357
f 631//631 633//633 358//358
f 360//360 357//357 362//362
f 633//633 359//359 358//358
f 632//632 634//634 626//626
f 353//353 635//635 627//627
f 626//626 634//634 636//636
f 626//626 636//636 353//353
