# Wavafront OBJ file of BodyParts3D
# BodyParts3D, Copyright(C) 2010-2011 The Database Center for Life Science licensed under CC Attribution-Share Alike 2.1 Japan.
vn -0.765377 0.0526107 -0.641429
v -123.302 -213.576 -1.94318
vn -0.956517 0.290813 -0.0224464
v -123.664 -213.307 -0.769666
vn -0.562136 -0.0642169 -0.824548
v -122.201 -215.294 -2.79631
vn -0.909039 -0.178937 -0.376336
v -122.114 -216.572 -2.57012
vn -0.938104 0.127731 -0.321941
v -123.872 -214.622 -1.0966
vn -0.755007 -0.0491879 -0.653869
v -123.553 -215.219 -1.53032
vn -0.578717 -0.695177 -0.426398
v -123.196 -215.429 -1.62808
vn -0.630016 -0.757222 -0.172322
v -123.366 -215.404 -1.38165
vn -0.747489 -0.644383 0.161338
v -123.49 -215.299 -1.11556
vn -0.713656 -0.506224 -0.484183
v -122.629 -215.729 -1.93647
vn -0.89083 -0.313207 -0.329124
v -122.511 -216.184 -1.79769
vn -0.73288 -0.664931 -0.14406
v -122.852 -215.85 -1.34358
vn -0.696943 -0.620459 0.359586
v -123.124 -215.362 -0.502041
vn -0.88863 -0.430752 0.157444
v -122.527 -216.345 -1.10676
vn -0.98229 0.187277 0.0058103
v -123.811 -214.1 -0.080463
vn 0.112267 -0.079297 -0.990509
v -119.517 -214.958 -3.66507
vn -0.0673582 0.462422 -0.884098
v -120.699 -214.629 -3.69827
vn 0.0209619 0.744261 -0.667559
v -119.884 -212.904 -2.29785
vn -0.335251 0.82778 -0.449874
v -122.189 -212.869 -1.65954
vn 0.288789 0.834677 0.468951
v -122.706 -212.77 -0.20451
vn -0.887653 0.249685 0.38695
v -123.745 -213.829 0.102779
vn -0.587783 0.723467 0.362086
v -123.242 -213.078 0.190334
vn -0.69204 -0.330252 0.641884
v -123.426 -214.09 0.578832
vn -0.652452 0.399676 0.643867
v -123.201 -213.599 0.773528
vn -0.116815 0.737389 0.66529
v -122.725 -213.126 0.620643
vn -0.741703 0.0750117 0.666521
v -123.031 -213.747 0.979996
vn 0.154006 0.502248 0.850899
v -122.542 -213.675 0.989351
vn 0.250024 0.662236 0.706351
v -122.066 -213.377 0.663021
vn -0.392878 -0.395271 0.830306
v -122.581 -214.633 0.665497
vn -0.144055 -0.156935 0.977046
v -122.357 -214.11 0.89226
vn 0.135696 -0.160553 0.977655
v -122.181 -213.861 0.908612
vn 0.0332063 0.67513 -0.736951
v -120.374 -212.417 -1.96263
vn 0.208946 0.681577 0.701281
v -120.233 -212.55 -1.48963
vn 0.228737 0.956938 -0.178745
v -119.599 -212.596 -1.78715
vn 0.287215 0.848312 0.444832
v -119.776 -212.583 -1.54367
vn -0.0505941 0.796879 -0.602017
v -118.781 -212.962 -2.64454
vn -0.770488 -0.472106 -0.428327
v -122.812 -222.326 -2.63625
vn 0.0735125 -0.109681 -0.991245
v -120.827 -221.57 -3.90531
vn -0.183746 0.0240311 -0.98268
v -122.502 -220.748 -3.36303
vn -0.900301 0.0672308 -0.430044
v -123.102 -220.57 -2.69829
vn -0.681719 -0.391605 -0.617984
v -122.021 -222.227 -3.57281
vn -0.956628 0.187218 0.223188
v -123.249 -220.745 -1.64876
vn -0.964645 -0.253661 -0.0715317
v -123.297 -221.375 -1.63447
vn -0.971556 -0.230324 -0.0550405
v -122.316 -217.427 -1.50416
vn -0.841708 0.205412 0.499333
v -122.037 -217.751 -0.83702
vn -0.628087 -0.508922 0.588648
v -122.348 -216.183 -0.602569
vn 0.104754 -0.0110343 -0.994437
v -119.036 -214.884 -3.6441
vn 0.364281 0.356976 -0.860155
v -118.139 -214.724 -3.50504
vn 0.320359 -0.404726 -0.856485
v -117.777 -216.503 -2.86025
vn 0.440734 -0.194786 -0.876249
v -117.086 -215.789 -3.05571
vn 0.310511 0.797645 0.517055
v -119.698 -213.449 -0.775692
vn 0.0994103 0.856971 0.505685
v -121.436 -213.62 0.751231
vn -0.323749 -0.32306 0.88928
v -120.197 -214.887 1.90915
vn -0.109376 0.29342 0.949706
v -119.865 -214.386 1.9729
vn 0.277626 0.956641 0.0881047
v -118.661 -214.277 0.507314
vn 0.152537 0.849612 0.504868
v -119.477 -214.097 1.75322
vn -0.445823 0.0549854 0.893431
v -121.971 -214.017 1.05686
vn -0.222569 0.619524 0.752764
v -121.004 -213.985 1.55372
vn -0.402613 0.0401298 0.91449
v -120.969 -214.391 1.68174
vn 0.561085 0.237531 -0.792945
v -116.589 -214.458 -2.44036
vn 0.151109 0.468259 -0.870574
v -118.349 -213.038 -2.70938
vn 0.455275 0.847243 0.273687
v -118.424 -213.04 -2.0348
vn 0.572755 0.813312 0.102351
v -117.897 -213.272 -2.37852
vn 0.43272 0.716659 0.546949
v -118.127 -213.734 -1.38326
vn -0.18018 -0.759542 -0.625005
v -121.728 -222.74 -3.31093
vn -0.788725 -0.61469 0.00830927
v -122.585 -222.821 -1.69502
vn -0.422755 -0.877896 -0.224891
v -121.165 -223.862 -1.70144
vn -0.611464 -0.694609 0.378987
v -122.044 -223.28 -0.55058
vn 0.10246 -0.57846 -0.80925
v -120.792 -222.373 -3.59494
vn 0.449688 -0.330281 -0.829877
v -119.051 -222.042 -3.23538
vn 0.285982 -0.646672 -0.707128
v -119.402 -223.052 -2.62698
vn -0.864405 -0.276007 0.420266
v -122.8 -221.974 -0.571498
vn -0.715552 0.11533 0.688973
v -122.696 -221.711 -0.446473
vn -0.572893 -0.220982 0.789279
v -122.423 -222.278 -0.212898
vn -0.249519 -0.0418846 0.967464
v -122.035 -222.186 -0.052177
vn -0.214356 -0.495548 0.841715
v -121.697 -223.049 -0.197711
vn 0.94546 -0.279007 0.168107
v -117.835 -219.998 -1.44881
vn 0.607567 -0.109314 -0.78671
v -118.199 -217.668 -2.88996
vn 0.931979 -0.249388 -0.263097
v -117.752 -219.603 -1.80873
vn 0.911172 -0.398695 0.103963
v -117.523 -219.14 -1.3551
vn 0.566947 -0.431383 0.701769
v -117.538 -217.765 0.26489
vn -0.135391 -0.481536 0.865906
v -119.056 -217.074 0.976589
vn 0.147034 -0.322108 0.935215
v -119.173 -217.648 0.711781
vn 0.554803 -0.592491 -0.584079
v -116.57 -216.633 -2.26171
vn 0.675914 -0.472268 -0.565777
v -116.968 -217.236 -1.76193
vn 0.709212 -0.232198 -0.66566
v -115.463 -215.664 -1.59236
vn 0.710614 -0.679063 -0.184124
v -116.59 -217.256 -1.12334
vn 0.337373 0.932262 0.130643
v -116.929 -214.902 -0.071283
vn 0.879233 -0.473472 0.0526619
v -116.752 -217.534 -1.05555
vn 0.700686 -0.647501 0.299636
v -116.715 -217.29 -0.700348
vn 0.270084 -0.54459 0.794025
v -117.752 -217.056 0.753459
vn 0.546682 -0.612473 0.570978
v -117.123 -216.97 0.435368
vn 0.473354 -0.518656 0.711991
v -116.774 -215.974 1.26067
vn 0.106449 0.158551 0.981596
v -118.498 -214.832 2.05053
vn 0.115572 -0.420458 0.899921
v -118.048 -215.741 1.83298
vn 0.492287 0.835164 0.245264
v -116.165 -214.66 -1.40733
vn 0.835578 0.541961 0.0899301
v -115.392 -215.356 -0.80196
vn 0.489644 0.847048 0.20678
v -116.041 -215.205 0.196538
vn 0.686924 -0.190484 0.701321
v -115.739 -215.659 0.457145
vn 0.753503 0.622318 0.212023
v -115.862 -215.403 0.341735
vn 0.361271 0.931992 0.029557
v -115.981 -215.291 0.609795
vn 0.385187 0.907977 0.164949
v -117.451 -214.528 0.982275
vn 0.222874 0.436442 0.871692
v -118.184 -214.61 1.85947
vn 0.461855 -0.0463487 0.885744
v -117.044 -215.223 1.70627
vn -0.0495884 -0.941703 -0.33277
v -120.476 -224.001 -1.58766
vn -0.116993 -0.926335 0.358073
v -120.842 -223.999 -1.10649
vn 0.156912 -0.985729 0.0609723
v -120.199 -224.029 -1.40019
vn 0.24697 -0.750043 -0.613548
v -119.526 -223.426 -2.25833
vn 0.543974 -0.616477 -0.569252
v -118.752 -222.729 -2.57799
vn 0.816293 -0.541477 -0.20117
v -118.589 -222.985 -1.91756
vn 0.109111 -0.789453 -0.604036
v -119.948 -223.721 -1.99891
vn 0.117446 -0.896009 -0.428221
v -120.14 -223.91 -1.73926
vn 0.269391 -0.867262 -0.41867
v -119.69 -223.78 -1.8193
vn 0.351072 -0.93569 -0.0350924
v -119.693 -223.884 -1.4456
vn 0.225982 -0.801625 0.55347
v -120.033 -223.812 -0.955909
vn 0.398375 -0.787395 -0.470432
v -119.378 -223.556 -2.00432
vn 0.61358 -0.758303 -0.220219
v -119.038 -223.467 -1.78979
vn 0.203501 -0.484086 0.851028
v -120.354 -223.114 -0.174582
vn 0.445477 -0.351817 0.823271
v -119.69 -222.431 -0.185928
vn 0.347782 -0.856938 0.380401
v -119.806 -223.852 -1.16212
vn 0.487306 -0.864328 -0.124375
v -119.334 -223.693 -1.62115
vn 0.514229 -0.802091 0.303674
v -119.436 -223.714 -1.29714
vn 0.448238 -0.657745 0.605354
v -119.611 -223.674 -1.05606
vn 0.640679 -0.745242 0.184782
v -119.097 -223.514 -1.46067
vn 0.60691 -0.60686 0.513206
v -119.24 -223.498 -1.19521
vn 0.793222 -0.5247 0.309012
v -118.625 -223.05 -1.57103
vn 0.558099 -0.446431 0.699446
v -119.343 -222.875 -0.621323
vn 0.86202 -0.264442 -0.432426
v -118.259 -221.976 -2.4746
vn 0.95159 -0.284517 0.116301
v -118.225 -222.166 -1.78422
vn 0.255275 -0.236202 0.937573
v -119.238 -220.676 0.245008
vn 0.747722 -0.346859 0.566216
v -118.656 -220.681 -0.092731
vn 0.659344 -0.73718 0.147757
v -115.304 -216.35 -0.611924
vn -0.347082 0.763937 -0.543999
v -123.302 -213.576 -1.94318
vn -0.446954 0.877351 -0.174607
v -123.664 -213.307 -0.769666
vn -0.721936 -0.44062 -0.533538
v -122.201 -215.294 -2.79631
vn -0.44434 -0.185155 -0.876516
v -122.114 -216.572 -2.57012
vn -0.768967 0.209379 -0.604028
v -122.114 -216.572 -2.57012
vn -0.966211 0.255945 -0.0304592
v -122.114 -216.572 -2.57012
vn -0.856533 -0.488237 0.167261
v -123.872 -214.622 -1.0966
vn -0.686633 -0.694582 -0.214689
v -123.553 -215.219 -1.53032
vn -0.803859 -0.42897 0.412063
v -123.811 -214.1 -0.080463
vn -0.495464 -0.0566186 -0.866781
v -120.699 -214.629 -3.69827
vn -0.739579 0.190503 -0.645547
v -120.699 -214.629 -3.69827
vn -0.355928 0.934475 0.00852714
v -122.706 -212.77 -0.20451
vn 0.0480996 0.965016 0.257743
v -122.706 -212.77 -0.20451
vn -0.228598 0.569346 0.789676
v -123.031 -213.747 0.979996
vn -0.154317 -0.361322 0.919583
v -123.031 -213.747 0.979996
vn 0.0743562 -0.187066 0.979529
v -122.542 -213.675 0.989351
vn 0.125741 0.494247 0.860179
v -122.181 -213.861 0.908612
vn -0.430158 0.248004 0.86802
v -122.181 -213.861 0.908612
vn -0.263296 0.951672 -0.1581
v -120.374 -212.417 -1.96263
vn 0.116818 0.972844 0.19982
v -120.374 -212.417 -1.96263
vn 0.0727476 0.965369 0.250541
v -120.233 -212.55 -1.48963
vn -0.744949 -0.0428389 -0.665745
v -122.502 -220.748 -3.36303
vn -0.145614 -0.277898 -0.94951
v -122.021 -222.227 -3.57281
vn -0.876419 0.098862 0.471293
v -123.297 -221.375 -1.63447
vn -0.933356 0.251221 0.256389
v -122.316 -217.427 -1.50416
vn -0.650161 -0.194444 0.734494
v -122.037 -217.751 -0.83702
vn 0.187414 -0.218751 -0.957614
v -118.139 -214.724 -3.50504
vn -0.175671 0.738465 0.651006
v -121.971 -214.017 1.05686
vn 0.707337 0.66676 -0.234744
v -116.589 -214.458 -2.44036
vn 0.39912 0.905843 -0.141958
v -118.349 -213.038 -2.70938
vn -0.472345 -0.0745553 0.878255
v -119.173 -217.648 0.711781
vn 0.791929 0.541595 -0.281999
v -115.463 -215.664 -1.59236
vn 0.991209 0.0662165 -0.114541
v -115.463 -215.664 -1.59236
vn 0.876874 0.393599 0.275992
v -115.739 -215.659 0.457145
vn 0.798626 0.592079 0.10788
v -115.981 -215.291 0.609795
vn 0.499288 0.747794 0.437624
v -115.981 -215.291 0.609795
vn 0.711059 0.18708 0.677788
v -115.981 -215.291 0.609795
vn 0.396322 0.822172 0.40861
v -118.184 -214.61 1.85947
vn 0.483404 0.75107 0.449682
v -117.044 -215.223 1.70627
vn 0.990164 0.105563 0.0918246
v -115.304 -216.35 -0.611924
f 6//6 5//5 1//1
f 5//5 2//2 1//1
f 19//19 17//17 133//133
f 19//19 133//133 134//134
f 3//3 1//1 142//142
f 4//4 11//11 135//135
f 11//11 10//10 135//135
f 142//142 136//136 3//3
f 44//44 11//11 4//4
f 2//2 5//5 15//15
f 6//6 1//1 3//3
f 9//9 139//139 140//140
f 139//139 9//9 141//141
f 135//135 7//7 140//140
f 7//7 8//8 140//140
f 8//8 9//9 140//140
f 10//10 7//7 135//135
f 12//12 7//7 10//10
f 12//12 8//8 7//7
f 12//12 9//9 8//8
f 141//141 9//9 13//13
f 10//10 11//11 12//12
f 14//14 13//13 12//12
f 12//12 13//13 9//9
f 14//14 12//12 11//11
f 46//46 13//13 14//14
f 14//14 11//11 44//44
f 21//21 2//2 15//15
f 21//21 141//141 23//23
f 23//23 141//141 13//13
f 13//13 46//46 23//23
f 23//23 46//46 29//29
f 61//61 17//17 36//36
f 47//47 16//16 17//17
f 47//47 17//17 61//61
f 32//32 17//17 19//19
f 36//36 17//17 18//18
f 32//32 18//18 17//17
f 34//34 36//36 18//18
f 18//18 32//32 34//34
f 20//20 51//51 33//33
f 19//19 134//134 144//144
f 20//20 28//28 52//52
f 22//22 2//2 21//21
f 134//134 22//22 144//144
f 23//23 24//24 21//21
f 24//24 22//22 21//21
f 25//25 144//144 22//22
f 23//23 26//26 24//24
f 24//24 25//25 22//22
f 25//25 24//24 146//146
f 28//28 20//20 25//25
f 147//147 23//23 29//29
f 146//146 27//27 25//25
f 27//27 28//28 25//25
f 29//29 30//30 147//147
f 30//30 31//31 148//148
f 147//147 30//30 148//148
f 149//149 28//28 27//27
f 28//28 149//149 52//52
f 29//29 57//57 30//30
f 57//57 150//150 30//30
f 160//160 52//52 149//149
f 19//19 144//144 151//151
f 152//152 35//35 34//34
f 35//35 152//152 153//153
f 153//153 152//152 145//145
f 62//62 34//34 35//35
f 51//51 35//35 33//33
f 34//34 162//162 36//36
f 62//62 162//162 34//34
f 65//65 37//37 41//41
f 39//39 16//16 38//38
f 38//38 16//16 78//78
f 39//39 38//38 155//155
f 70//70 69//69 38//38
f 69//69 155//155 38//38
f 70//70 38//38 78//78
f 40//40 137//137 143//143
f 40//40 42//42 138//138
f 37//37 40//40 154//154
f 37//37 43//43 40//40
f 43//43 42//42 40//40
f 16//16 39//39 17//17
f 154//154 40//40 143//143
f 37//37 154//154 41//41
f 43//43 37//37 66//66
f 42//42 156//156 73//73
f 156//156 72//72 73//73
f 45//45 42//42 73//73
f 42//42 157//157 138//138
f 45//45 157//157 42//42
f 158//158 14//14 44//44
f 14//14 158//158 46//46
f 78//78 16//16 49//49
f 49//49 16//16 47//47
f 53//53 46//46 158//158
f 53//53 29//29 46//46
f 61//61 48//48 47//47
f 50//50 47//47 159//159
f 61//61 60//60 48//48
f 47//47 50//50 49//49
f 48//48 60//60 50//50
f 51//51 64//64 35//35
f 64//64 51//51 96//96
f 96//96 51//51 88//88
f 51//51 20//20 52//52
f 52//52 55//55 51//51
f 55//55 52//52 56//56
f 58//58 52//52 160//160
f 29//29 59//59 57//57
f 59//59 58//58 57//57
f 29//29 53//53 59//59
f 53//53 54//54 59//59
f 54//54 58//58 59//59
f 56//56 52//52 58//58
f 54//54 56//56 58//58
f 162//162 63//63 161//161
f 161//161 63//63 96//96
f 35//35 64//64 62//62
f 63//63 162//162 62//62
f 63//63 62//62 64//64
f 63//63 64//64 96//96
f 66//66 72//72 43//43
f 37//37 65//65 67//67
f 72//72 66//66 68//68
f 67//67 66//66 37//37
f 67//67 68//68 66//66
f 65//65 105//105 67//67
f 105//105 106//106 67//67
f 106//106 68//68 67//67
f 106//106 76//76 68//68
f 65//65 111//111 112//112
f 112//112 105//105 65//65
f 106//106 118//118 76//76
f 70//70 71//71 69//69
f 109//109 71//71 70//70
f 109//109 70//70 128//128
f 108//108 69//69 71//71
f 69//69 65//65 155//155
f 65//65 69//69 111//111
f 111//111 69//69 108//108
f 72//72 74//74 73//73
f 74//74 75//75 73//73
f 72//72 68//68 74//74
f 76//76 75//75 74//74
f 75//75 158//158 73//73
f 76//76 74//74 68//68
f 128//128 70//70 78//78
f 128//128 78//78 79//79
f 128//128 79//79 129//129
f 79//79 77//77 129//129
f 83//83 130//130 81//81
f 158//158 75//75 163//163
f 130//130 83//83 75//75
f 49//49 85//85 78//78
f 85//85 79//79 78//78
f 89//89 85//85 87//87
f 89//89 80//80 79//79
f 85//85 89//89 79//79
f 77//77 79//79 80//80
f 91//91 83//83 81//81
f 80//80 89//89 131//131
f 131//131 89//89 81//81
f 77//77 80//80 131//131
f 82//82 158//158 163//163
f 53//53 158//158 82//82
f 91//91 82//82 83//83
f 84//84 49//49 50//50
f 60//60 86//86 50//50
f 85//85 49//49 84//84
f 84//84 87//87 85//85
f 84//84 50//50 86//86
f 97//97 164//164 161//161
f 84//84 132//132 87//87
f 97//97 172//172 165//165
f 102//102 88//88 55//55
f 88//88 51//51 55//55
f 89//89 87//87 90//90
f 89//89 90//90 81//81
f 87//87 132//132 90//90
f 81//81 92//92 91//91
f 90//90 92//92 81//81
f 132//132 92//92 90//90
f 92//92 132//132 93//93
f 92//92 93//93 91//91
f 93//93 99//99 104//104
f 53//53 94//94 54//54
f 102//102 55//55 56//56
f 94//94 56//56 54//54
f 103//103 56//56 94//94
f 95//95 53//53 82//82
f 94//94 53//53 95//95
f 95//95 104//104 94//94
f 103//103 94//94 104//104
f 82//82 91//91 95//95
f 95//95 91//91 93//93
f 95//95 93//93 104//104
f 97//97 161//161 96//96
f 172//172 97//97 166//166
f 97//97 96//96 98//98
f 96//96 88//88 98//98
f 98//98 88//88 101//101
f 101//101 88//88 102//102
f 97//97 98//98 100//100
f 100//100 98//98 167//167
f 168//168 102//102 171//171
f 100//100 166//166 97//97
f 166//166 100//100 167//167
f 104//104 99//99 169//169
f 102//102 56//56 170//170
f 171//171 102//102 170//170
f 112//112 107//107 105//105
f 115//115 106//106 107//107
f 107//107 106//106 105//105
f 118//118 106//106 115//115
f 108//108 71//71 109//109
f 108//108 109//109 116//116
f 116//116 109//109 117//117
f 109//109 110//110 117//117
f 128//128 110//110 109//109
f 110//110 128//128 129//129
f 126//126 110//110 129//129
f 111//111 113//113 112//112
f 108//108 116//116 113//113
f 108//108 113//113 111//111
f 76//76 118//118 75//75
f 112//112 113//113 114//114
f 112//112 114//114 107//107
f 107//107 114//114 120//120
f 107//107 120//120 115//115
f 113//113 116//116 121//121
f 113//113 121//121 114//114
f 120//120 123//123 115//115
f 123//123 118//118 115//115
f 117//117 121//121 116//116
f 123//123 127//127 118//118
f 127//127 119//119 118//118
f 114//114 121//121 122//122
f 120//120 114//114 122//122
f 123//123 120//120 122//122
f 124//124 122//122 121//121
f 117//117 124//124 121//121
f 122//122 124//124 125//125
f 122//122 125//125 123//123
f 117//117 110//110 126//126
f 117//117 126//126 124//124
f 123//123 125//125 127//127
f 124//124 126//126 125//125
f 125//125 126//126 127//127
f 126//126 129//129 131//131
f 126//126 131//131 127//127
f 127//127 131//131 119//119
f 75//75 118//118 130//130
f 118//118 119//119 130//130
f 119//119 131//131 130//130
f 129//129 77//77 131//131
f 81//81 130//130 131//131
f 86//86 132//132 84//84
f 99//99 93//93 132//132
