# Wavafront OBJ file of BodyParts3D
# BodyParts3D, Copyright(C) 2010-2011 The Database Center for Life Science licensed under CC Attribution-Share Alike 2.1 Japan.
vn -0.920094 0.325697 -0.217599
v -136.773 -199.348 -1.01441
vn -0.885684 0.326315 0.330277
v -136.804 -199.601 -0.149905
vn -0.896083 -0.236217 -0.375814
v -136.761 -199.995 -1.21586
vn -0.718104 0.34067 -0.606853
v -136.407 -199.3 -1.63298
vn -0.600003 0.712752 -0.363292
v -136.506 -199.048 -1.23891
vn -0.62315 0.765601 0.159812
v -136.522 -198.913 -0.568129
vn -0.302046 0.942413 -0.143617
v -135.915 -198.634 -0.803654
vn -0.96944 -0.211736 0.123914
v -136.326 -207.097 -2.49059
vn -0.992994 0.112777 -0.0352718
v -136.463 -204.824 -2.09506
vn -0.85876 -0.0656497 0.508154
v -136.174 -205.188 -1.26972
vn -0.829696 -0.0113238 -0.5581
v -136.204 -206.265 -3.17597
vn -0.334221 0.236933 -0.912228
v -135.165 -203.042 -2.99915
vn -0.503655 -0.010905 -0.863836
v -134.856 -202.16 -2.99375
vn -0.749579 0.185229 -0.63547
v -135.356 -202.416 -2.61746
vn -0.706343 0.274131 -0.652635
v -135.858 -204.102 -3.03009
vn -0.46301 0.293165 -0.836466
v -135.358 -200.014 -2.81221
vn -0.697168 -0.147665 -0.701536
v -135.009 -200.745 -3.05192
vn -0.701119 0.0052061 -0.713025
v -135.033 -201.802 -2.84563
vn -0.0959556 0.451921 -0.886882
v -133.961 -200.387 -3.35749
vn -0.909831 -0.179439 -0.374178
v -135.796 -201.216 -1.6094
vn -0.914785 -0.365497 0.171989
v -135.796 -201.48 -0.748823
vn -0.980947 0.0985615 -0.167418
v -135.757 -201.929 -1.51757
vn -0.926468 -0.0500731 0.373027
v -135.713 -202.119 -0.949047
vn -0.543535 -0.333609 0.770243
v -134.42 -203.137 0.741721
vn -0.304636 0.746397 -0.591682
v -135.608 -199.129 -2.10858
vn 0.0965052 0.94123 0.323686
v -135.169 -198.554 -0.160736
vn -0.0100603 0.999753 -0.0198164
v -133.635 -198.319 -1.36534
vn 0.198352 0.817213 0.541128
v -133.337 -198.473 -1.10308
vn 0.456796 0.639636 0.618226
v -133.22 -199.492 0.149139
vn -0.385467 0.701271 0.599696
v -134.931 -199.255 1.81754
vn -0.611176 0.0211318 0.791213
v -134.676 -199.831 2.28523
vn -0.209619 0.452637 0.866706
v -134.095 -199.81 2.57588
vn -0.659201 -0.362895 0.658605
v -134.243 -200.674 2.30883
vn -0.415247 -0.142907 0.898414
v -134.108 -200.143 2.5878
vn 0.15362 0.869919 0.468659
v -133.615 -199.558 2.33356
vn -0.788574 -0.446213 -0.423136
v -135.937 -207.973 -3.08286
vn -0.484437 -0.284827 -0.827161
v -135.564 -207.634 -3.61099
vn -0.604778 -0.735057 -0.306488
v -135.261 -208.9 -2.75233
vn -0.188219 -0.528707 -0.827673
v -135.169 -208.465 -3.24666
vn -0.0475898 -0.216161 -0.975197
v -134.737 -206.95 -4.0376
vn -0.275257 -0.799498 -0.533889
v -134.713 -209.134 -2.83279
vn -0.788454 -0.547195 0.280923
v -135.659 -208.478 -1.98709
vn -0.642122 -0.756382 0.124759
v -135.234 -208.963 -2.14391
vn -0.444261 -0.583574 0.67976
v -134.995 -208.633 -1.33979
vn -0.474869 -0.774034 0.418772
v -134.909 -209.115 -1.88121
vn -0.398849 -0.916867 0.0165569
v -134.713 -209.334 -2.2664
vn -0.0634428 -0.468091 0.8814
v -134.219 -208.399 -0.899375
vn -0.378237 0.0862651 -0.921681
v -135.183 -206.413 -3.98463
vn 0.00786564 0.180502 -0.983543
v -133.645 -205.642 -4.0749
vn -0.599423 -0.292365 0.745128
v -135.423 -207.252 -0.938386
vn -0.217886 -0.0560693 -0.974362
v -133.377 -203.261 -3.45012
vn -0.0201891 0.186491 -0.982249
v -133.302 -203.933 -3.53291
vn -0.384897 -0.00962037 -0.922909
v -133.992 -201.294 -3.63452
vn -0.358709 -0.206475 -0.910327
v -133.896 -202.051 -3.46662
vn -0.152775 -0.217228 -0.964091
v -132.408 -202.15 -3.93246
vn -0.0101255 0.14937 -0.98873
v -132.306 -201.836 -3.99331
vn 0.274569 0.447679 -0.850996
v -131.783 -200.546 -3.40253
vn 0.072809 -0.537165 0.840329
v -132.443 -203.983 1.01082
vn 0.0110961 0.648316 -0.76129
v -132.171 -198.487 -1.99017
vn 0.345497 0.510542 -0.787387
v -131.15 -199.144 -2.22818
vn 0.147784 0.988542 0.0307167
v -130.938 -198.677 -1.82788
vn 0.31693 0.598862 0.735472
v -132.54 -199.036 -0.82496
vn 0.424809 0.609705 0.669177
v -132.27 -200.339 -0.127591
vn 0.230667 0.715972 0.658921
v -131.709 -200.54 -0.197756
vn 0.191646 0.878358 0.437903
v -131.207 -198.647 -1.50059
vn -0.083466 0.155015 0.98438
v -132.873 -200.404 2.97096
vn 0.726607 0.686664 0.0231371
v -132.711 -200.027 0.604186
vn 0.513275 0.854182 0.0831919
v -132.483 -200.032 2.48479
vn 0.0699572 0.539793 0.838886
v -132.49 -200.166 2.80353
vn 0.46331 0.874817 0.141559
v -132.029 -200.742 0.37219
vn -0.271364 -0.35822 0.893331
v -132.515 -201.199 2.93428
vn -0.0762984 -0.388853 0.918135
v -131.952 -201.417 2.93253
vn 0.0270244 -0.120765 0.992313
v -131.848 -201.148 3.01489
vn 0.509339 0.623453 0.593195
v -131.464 -200.941 2.94645
vn -0.124755 -0.546293 0.828251
v -131.599 -202.115 2.58259
vn 0.136222 -0.315056 0.939246
v -131.389 -201.611 2.8547
vn -0.00682554 -0.644408 -0.764652
v -133.806 -209.267 -2.88647
vn 0.322643 -0.769912 -0.550578
v -132.86 -209.397 -2.6256
vn 0.188735 -0.445486 -0.875169
v -132.559 -208.34 -3.18697
vn -0.0367616 -0.976475 -0.212476
v -133.547 -209.622 -2.37198
vn -0.0683153 -0.84522 0.530034
v -133.422 -209.499 -1.70692
vn 0.354366 -0.919421 0.170557
v -132.815 -209.481 -2.02393
vn 0.609587 -0.705783 -0.360936
v -132.163 -209.12 -2.2346
vn 0.30787 0.0582124 -0.949646
v -132.516 -206.113 -3.96205
vn 0.281274 -0.30509 -0.909838
v -132.439 -206.838 -3.87478
vn 0.676507 -0.0908564 -0.73081
v -131.91 -206.455 -3.60812
vn 0.599835 -0.448514 -0.662595
v -131.936 -208.325 -2.9329
vn 0.85694 -0.270661 -0.43863
v -131.438 -208.063 -2.2298
vn 0.544069 -0.51092 0.665544
v -132.044 -208.493 -1.15475
vn 0.235926 0.172488 -0.95634
v -132.56 -204.543 -3.5709
vn 0.222861 -0.138261 -0.964996
v -132.25 -203.693 -3.46257
vn 0.563662 0.0811448 -0.82201
v -131.71 -204.963 -3.27145
vn 0.864977 -0.0545761 -0.498835
v -131.332 -205.524 -3.01166
vn 0.764041 -0.0337549 -0.644284
v -131.251 -204.941 -2.83135
vn 0.883653 -0.260137 -0.389212
v -131.085 -205.087 -2.56485
vn 0.659498 -0.238262 -0.712947
v -130.878 -204.155 -2.59182
vn 0.930238 -0.294126 0.219426
v -130.991 -205.994 -1.90584
vn 0.935132 -0.354295 0.00163156
v -130.833 -205.221 -1.35299
vn 0.731872 -0.559091 -0.389591
v -130.593 -204.43 -2.0529
vn 0.813827 -0.572188 -0.101429
v -130.581 -204.698 -1.19366
vn 0.374123 -0.381767 0.845154
v -132.335 -205.985 -0.237327
vn 0.501682 -0.607086 0.616247
v -131.638 -205.003 0.044225
vn 0.542457 -0.389985 0.744078
v -131.749 -206.08 -0.665427
vn 0.759417 -0.513814 0.399099
v -130.948 -205.268 -1.05205
vn 0.839541 -0.332335 0.429797
v -131.099 -205.826 -1.22375
vn 0.685372 -0.698017 0.207455
v -130.548 -204.579 -0.528797
vn 0.292704 -0.15337 -0.943823
v -131.459 -202.196 -3.8863
vn 0.585117 0.232754 -0.77683
v -129.729 -202.137 -2.98799
vn 0.505105 -0.588708 -0.631103
v -129.785 -203.427 -2.38008
vn 0.196692 0.601636 0.774175
v -129.667 -199.818 -1.25794
vn 0.705182 0.51587 -0.486412
v -129.47 -200.035 -1.64248
vn 0.530808 0.654073 0.538917
v -130.077 -201.244 2.07447
vn 0.675638 0.270202 0.685933
v -129.58 -201.609 1.95388
vn 0.524787 -0.351665 0.775197
v -129.534 -202.34 1.80182
vn 0.157051 0.914577 0.372671
v -128.74 -201.517 0.714164
vn 0.219009 -0.56291 0.796974
v -130.736 -202.321 2.37669
vn 0.536013 0.511918 0.67129
v -130.444 -201.568 2.61446
vn 0.388581 -0.366995 -0.845174
v -129.114 -202.851 -2.52401
vn 0.667522 -0.733118 -0.130203
v -128.775 -203.103 -1.03597
vn 0.972153 0.109702 -0.207085
v -128.299 -202.658 -0.904085
vn 0.332344 -0.610349 0.719042
v -128.963 -203.12 0.846597
vn 0.870749 0.228595 -0.435364
v -128.601 -201.984 -1.63273
vn 0.905476 0.423234 0.0313978
v -128.486 -201.459 -0.213997
vn 0.722667 -0.684841 0.0935178
v -128.335 -202.474 0.72497
vn -0.772713 -0.47314 0.423146
v -136.804 -199.601 -0.149905
vn 0.632203 0.774289 0.0282142
v -133.22 -199.492 0.149139
vn 0.142145 0.988956 0.0419548
v -132.171 -198.487 -1.99017
vn 0.3475 0.514214 -0.78411
v -130.938 -198.677 -1.82788
vn 0.620923 0.768468 0.154633
v -130.938 -198.677 -1.82788
vn 0.710505 0.690957 0.133268
v -132.27 -200.339 -0.127591
vn 0.527184 0.768241 0.363156
v -131.207 -198.647 -1.50059
vn 0.422309 0.807097 0.412613
v -132.49 -200.166 2.80353
vn 0.185235 0.0876148 0.978781
v -131.464 -200.941 2.94645
vn 0.681586 -0.662844 0.309966
v -132.163 -209.12 -2.2346
vn 0.888064 -0.368313 0.275113
v -131.438 -208.063 -2.2298
vn 0.945051 -0.0671201 -0.319959
v -130.991 -205.994 -1.90584
vn 0.691682 0.705879 0.152683
v -129.667 -199.818 -1.25794
vn 0.322927 0.941904 -0.0923818
v -130.077 -201.244 2.07447
vn 0.760857 0.522031 0.385461
v -128.74 -201.517 0.714164
vn 0.378518 -0.260574 0.888158
v -130.444 -201.568 2.61446
vn 0.647074 -0.713657 -0.268308
v -129.114 -202.851 -2.52401
vn 0.831754 0.0731213 -0.550308
v -129.114 -202.851 -2.52401
vn 0.707001 -0.706098 -0.0396882
v -128.299 -202.658 -0.904085
vn 0.638311 -0.758288 0.132508
v -128.963 -203.12 0.846597
vn 0.862106 0.070511 0.501798
v -128.335 -202.474 0.72497
f 5//5 25//25 4//4
f 16//16 4//4 25//25
f 3//3 2//2 1//1
f 4//4 16//16 3//3
f 3//3 1//1 4//4
f 4//4 1//1 5//5
f 17//17 3//3 16//16
f 125//125 3//3 21//21
f 125//125 21//21 33//33
f 20//20 3//3 17//17
f 1//1 6//6 5//5
f 2//2 6//6 1//1
f 5//5 6//6 7//7
f 25//25 5//5 7//7
f 2//2 30//30 6//6
f 27//27 25//25 7//7
f 26//26 7//7 6//6
f 6//6 30//30 26//26
f 11//11 36//36 8//8
f 8//8 42//42 50//50
f 49//49 48//48 12//12
f 8//8 10//10 9//9
f 15//15 11//11 9//9
f 9//9 11//11 8//8
f 15//15 12//12 48//48
f 11//11 15//15 48//48
f 8//8 50//50 10//10
f 12//12 15//15 14//14
f 14//14 20//20 18//18
f 12//12 14//14 13//13
f 13//13 14//14 18//18
f 15//15 9//9 22//22
f 14//14 15//15 22//22
f 9//9 23//23 22//22
f 9//9 10//10 23//23
f 24//24 10//10 50//50
f 23//23 10//10 24//24
f 25//25 59//59 16//16
f 18//18 20//20 17//17
f 18//18 17//17 53//53
f 53//53 17//17 16//16
f 13//13 18//18 53//53
f 16//16 19//19 53//53
f 19//19 16//16 59//59
f 21//21 3//3 20//20
f 20//20 22//22 21//21
f 20//20 14//14 22//22
f 22//22 23//23 21//21
f 23//23 33//33 21//21
f 23//23 24//24 33//33
f 59//59 25//25 27//27
f 27//27 7//7 26//26
f 27//27 26//26 28//28
f 28//28 26//26 62//62
f 62//62 26//26 29//29
f 65//65 27//27 28//28
f 28//28 62//62 65//65
f 33//33 31//31 125//125
f 2//2 31//31 30//30
f 26//26 30//30 35//35
f 33//33 34//34 31//31
f 30//30 32//32 35//35
f 30//30 31//31 32//32
f 31//31 34//34 32//32
f 35//35 32//32 69//69
f 24//24 71//71 33//33
f 33//33 71//71 34//34
f 126//126 26//26 68//68
f 34//34 66//66 32//32
f 35//35 132//132 68//68
f 26//26 35//35 68//68
f 69//69 32//32 66//66
f 71//71 66//66 34//34
f 11//11 37//37 36//36
f 36//36 42//42 8//8
f 36//36 38//38 42//42
f 36//36 39//39 38//38
f 36//36 37//37 39//39
f 11//11 48//48 37//37
f 37//37 40//40 39//39
f 37//37 48//48 40//40
f 43//43 42//42 38//38
f 39//39 41//41 38//38
f 38//38 46//46 43//43
f 41//41 46//46 38//38
f 85//85 39//39 40//40
f 41//41 39//39 77//77
f 77//77 80//80 41//41
f 41//41 80//80 46//46
f 39//39 85//85 79//79
f 77//77 39//39 79//79
f 44//44 50//50 42//42
f 43//43 46//46 45//45
f 45//45 42//42 43//43
f 44//44 42//42 45//45
f 50//50 44//44 47//47
f 80//80 81//81 46//46
f 46//46 81//81 45//45
f 44//44 45//45 81//81
f 47//47 44//44 81//81
f 40//40 48//48 49//49
f 58//58 50//50 47//47
f 51//51 12//12 13//13
f 51//51 13//13 54//54
f 52//52 12//12 51//51
f 49//49 12//12 52//52
f 91//91 52//52 51//51
f 90//90 52//52 91//91
f 91//91 92//92 90//90
f 58//58 24//24 50//50
f 53//53 55//55 54//54
f 13//13 53//53 54//54
f 57//57 19//19 59//59
f 53//53 56//56 55//55
f 56//56 53//53 19//19
f 56//56 19//19 57//57
f 51//51 54//54 55//55
f 51//51 55//55 91//91
f 91//91 55//55 107//107
f 107//107 55//55 56//56
f 107//107 56//56 57//57
f 58//58 75//75 24//24
f 116//116 75//75 58//58
f 127//127 27//27 65//65
f 61//61 127//127 65//65
f 59//59 60//60 57//57
f 128//128 60//60 59//59
f 57//57 60//60 111//111
f 111//111 60//60 128//128
f 63//63 62//62 29//29
f 67//67 126//126 68//68
f 67//67 130//130 126//126
f 64//64 63//63 70//70
f 130//130 67//67 70//70
f 63//63 64//64 62//62
f 62//62 110//110 65//65
f 62//62 64//64 110//110
f 137//137 129//129 131//131
f 75//75 71//71 24//24
f 112//112 68//68 132//132
f 67//67 68//68 70//70
f 132//132 74//74 112//112
f 68//68 138//138 70//70
f 70//70 138//138 115//115
f 74//74 117//117 112//112
f 71//71 73//73 66//66
f 72//72 71//71 75//75
f 72//72 73//73 71//71
f 76//76 72//72 75//75
f 133//133 66//66 73//73
f 133//133 69//69 66//66
f 76//76 73//73 72//72
f 116//116 76//76 75//75
f 76//76 133//133 73//73
f 140//140 76//76 116//116
f 140//140 133//133 76//76
f 77//77 79//79 78//78
f 78//78 80//80 77//77
f 78//78 82//82 80//80
f 82//82 78//78 83//83
f 79//79 87//87 78//78
f 78//78 87//87 83//83
f 83//83 87//87 88//88
f 89//89 47//47 81//81
f 82//82 81//81 80//80
f 81//81 82//82 89//89
f 89//89 82//82 134//134
f 135//135 89//89 134//134
f 49//49 52//52 90//90
f 84//84 85//85 40//40
f 84//84 40//40 49//49
f 84//84 49//49 90//90
f 87//87 79//79 85//85
f 85//85 84//84 86//86
f 87//87 85//85 86//86
f 87//87 86//86 88//88
f 86//86 93//93 88//88
f 86//86 84//84 92//92
f 92//92 93//93 86//86
f 89//89 101//101 47//47
f 89//89 103//103 101//101
f 135//135 105//105 89//89
f 89//89 105//105 103//103
f 135//135 97//97 105//105
f 84//84 90//90 92//92
f 96//96 94//94 92//92
f 91//91 96//96 92//92
f 94//94 93//93 92//92
f 93//93 94//94 95//95
f 98//98 104//104 105//105
f 99//99 95//95 96//96
f 95//95 94//94 96//96
f 98//98 106//106 104//104
f 96//96 91//91 109//109
f 88//88 93//93 136//136
f 136//136 93//93 98//98
f 97//97 98//98 105//105
f 93//93 95//95 98//98
f 95//95 99//99 100//100
f 95//95 100//100 98//98
f 106//106 98//98 100//100
f 96//96 109//109 99//99
f 99//99 119//119 100//100
f 106//106 100//100 119//119
f 119//119 99//99 109//109
f 101//101 58//58 47//47
f 103//103 58//58 101//101
f 103//103 102//102 58//58
f 104//104 102//102 105//105
f 103//103 105//105 102//102
f 102//102 104//104 106//106
f 57//57 108//108 107//107
f 108//108 118//118 107//107
f 91//91 107//107 109//109
f 58//58 102//102 121//121
f 144//144 102//102 106//106
f 58//58 121//121 116//116
f 144//144 106//106 119//119
f 64//64 70//70 115//115
f 129//129 137//137 111//111
f 111//111 108//108 57//57
f 110//110 64//64 115//115
f 123//123 111//111 137//137
f 108//108 111//111 122//122
f 111//111 123//123 122//122
f 114//114 140//140 116//116
f 113//113 139//139 112//112
f 117//117 113//113 112//112
f 114//114 113//113 140//140
f 123//123 137//137 139//139
f 118//118 109//109 107//107
f 109//109 141//141 119//119
f 122//122 142//142 108//108
f 122//122 120//120 142//142
f 119//119 141//141 143//143
f 144//144 143//143 124//124
f 114//114 121//121 145//145
f 116//116 121//121 114//114
f 144//144 119//119 143//143
f 120//120 122//122 123//123
f 114//114 145//145 113//113
f 139//139 145//145 123//123
f 120//120 123//123 145//145
f 145//145 139//139 113//113
