# Wavafront OBJ file of BodyParts3D
# BodyParts3D, Copyright(C) 2010-2011 The Database Center for Life Science licensed under CC Attribution-Share Alike 2.1 Japan.
vn -0.506206 -0.858025 -0.0868822
v 137.995 -185.167 -0.82109
vn -0.409519 -0.847395 0.337959
v 138.422 -185.245 -0.302521
vn -0.984124 -0.153444 -0.0891883
v 137.447 -184.53 -0.416719
vn -0.805001 -0.588937 -0.071598
v 137.567 -184.812 -0.638527
vn -0.999441 -0.0155658 -0.0295905
v 137.454 -183.865 -0.545794
vn -0.941239 -0.186611 -0.281507
v 137.475 -184.39 -0.966739
vn -0.930987 0.191127 -0.31102
v 137.465 -184.07 -0.97366
vn -0.467533 -0.300381 0.831375
v 138.358 -184.055 0.676561
vn -0.593796 -0.691228 0.411837
v 137.73 -184.907 -0.403882
vn -0.341859 -0.463148 0.817696
v 138.967 -184.54 0.844256
vn -0.547556 0.70708 0.447459
v 139.3 -183.102 1.1299
vn -0.0476602 -0.242667 0.968938
v 139.927 -183.287 1.35074
vn -0.918837 -0.342401 -0.196214
v 140.225 -190.373 -1.97888
vn -0.839765 -0.445813 0.309913
v 140.359 -190.594 -1.34777
vn -0.706953 -0.702437 0.0824655
v 140.525 -190.916 -1.62438
vn -0.435942 -0.671138 0.599607
v 140.9 -191.048 -1.17087
vn -0.979579 0.00436241 -0.201014
v 140.126 -187.816 -2.00603
vn -0.644486 -0.334623 0.687507
v 140.5 -190.382 -0.962259
vn -0.948683 -0.109329 0.296727
v 140.195 -189.908 -1.32525
vn -0.572986 -0.0701295 0.816559
v 140.565 -189.813 -0.77007
vn -0.176114 -0.292722 0.939839
v 141.159 -190.283 -0.644071
vn -0.68781 -0.506741 -0.519741
v 137.924 -184.88 -1.37429
vn -0.58251 -0.578367 -0.571116
v 139.21 -185.221 -2.1775
vn -0.454269 -0.890809 -0.00994582
v 138.833 -185.496 -0.751899
vn -0.496486 -0.780282 0.380344
v 139.512 -185.839 -0.641291
vn -0.624776 -0.778825 0.0555599
v 139.424 -185.851 -0.984511
vn -0.669999 -0.622016 0.405213
v 139.884 -186.215 -0.701415
vn -0.589881 -0.775431 -0.22527
v 139.084 -185.546 -1.39218
vn -0.790015 -0.576818 0.207744
v 139.775 -186.249 -1.03692
vn -0.921213 -0.224037 0.318078
v 140.148 -187.062 -1.2875
vn -0.697042 -0.443978 0.563042
v 140.467 -186.947 -0.680463
vn -0.816526 -0.556035 -0.155277
v 139.651 -186.021 -1.65653
vn -0.9226 -0.228509 -0.310793
v 140.107 -186.868 -1.99032
vn -0.748941 -0.385309 -0.539096
v 140.092 -186.106 -2.4696
vn -0.553451 -0.158276 0.817704
v 140.861 -188.009 -0.644908
vn -0.358507 -0.373873 0.85539
v 140.976 -186.872 -0.24862
vn -0.792273 0.0231566 -0.609728
v 137.947 -183.949 -1.80221
vn -0.545721 -0.267644 -0.794075
v 138.596 -183.915 -2.42877
vn -0.36479 -0.619009 0.695526
v 140.16 -185.554 0.17698
vn 0.180495 -0.247123 0.952025
v 141.143 -183.795 1.14066
vn 0.00421922 -0.387671 0.921788
v 141.026 -185.183 0.501925
vn 0.360946 -0.273805 0.891487
v 142.077 -185.044 0.364886
vn -0.481219 0.802934 0.351747
v 138.682 -182.428 -0.941451
vn -0.779437 0.55491 -0.29078
v 138.686 -182.198 -1.8175
vn -0.28501 0.793018 0.538416
v 139.823 -181.363 -1.83751
vn -0.322824 0.897493 0.300485
v 140.764 -182.222 0.707502
vn -0.228815 0.831512 0.506194
v 140.962 -182.233 0.948958
vn -0.138903 0.685573 0.71463
v 141.837 -182.18 1.06832
vn -0.522452 -0.569939 -0.634202
v 140.72 -190.399 -2.79473
vn -0.533884 -0.801809 -0.268457
v 140.727 -191.059 -1.85378
vn -0.353194 -0.91576 0.191409
v 141.089 -191.253 -1.41672
vn 0.0212849 -0.478527 0.877815
v 141.536 -190.933 -0.868466
vn -0.228232 -0.852759 -0.4698
v 140.956 -191.069 -2.0479
vn -0.117769 -0.985352 -0.123334
v 141.309 -191.308 -1.62259
vn 0.0512915 -0.864333 0.500297
v 141.718 -191.219 -1.12346
vn 0.000223407 -0.931294 -0.364269
v 141.552 -191.247 -1.7979
vn 0.137192 -0.990544 0.00072899
v 141.744 -191.293 -1.56585
vn -0.750109 -0.0981178 -0.653995
v 140.458 -189.178 -3.09183
vn -0.392322 0.103584 -0.913977
v 141.436 -188.247 -3.77567
vn 0.311051 -0.208293 0.927287
v 143.227 -189.116 -0.669287
vn 0.391561 -0.427328 0.814905
v 143.249 -190.577 -1.14025
vn 0.463635 -0.752477 0.467783
v 143.401 -190.846 -1.43349
vn 0.587468 -0.235253 0.774298
v 143.666 -189.726 -1.09141
vn 0.685106 -0.0804796 0.723984
v 143.76 -188.83 -0.961528
vn 0.660878 -0.365514 0.655469
v 143.796 -190.299 -1.41538
vn -0.557708 -0.260851 -0.787984
v 139.956 -185.387 -2.69098
vn -0.718274 0.00218169 -0.695757
v 140.822 -187.04 -3.08436
vn -0.583449 -0.118647 -0.803437
v 140.775 -186.319 -3.1285
vn -0.214336 0.143698 -0.966132
v 141.622 -187.085 -3.52946
vn -0.0930279 -0.200548 0.975257
v 142.088 -187.432 -0.180601
vn 0.373428 -0.126846 0.918946
v 142.767 -187.235 -0.250883
vn 0.778035 0.00798579 0.628171
v 143.301 -186.636 -0.536351
vn -0.596632 0.174797 -0.783247
v 139.492 -182.941 -3.2119
vn -0.304764 -0.229784 -0.924293
v 139.802 -183.294 -3.3134
vn -0.291436 -0.171592 -0.941075
v 140.439 -184.446 -3.0313
vn 0.0631754 -0.155522 -0.98581
v 141.477 -182.574 -3.73287
vn 0.192469 -0.107452 -0.975402
v 142.027 -184.091 -3.20206
vn 0.70565 -0.224097 0.672189
v 143.358 -184.777 -0.434081
vn 0.966193 -0.0229229 0.256799
v 143.778 -185.253 -1.34808
vn 0.907124 -0.390507 0.156939
v 143.872 -184.658 -1.28044
vn -0.465942 0.880819 0.0840004
v 140.172 -180.93 -2.35016
vn -0.445678 0.665923 -0.598263
v 140.281 -181.026 -2.69088
vn -0.206086 0.88286 0.422003
v 140.626 -180.82 -2.26819
vn -0.114351 0.990395 -0.0777274
v 140.876 -180.727 -2.43527
vn 0.0140231 0.785241 -0.619031
v 141.314 -180.874 -2.86195
vn -0.193406 0.268181 -0.943755
v 140.991 -182.158 -3.73712
vn 0.219234 0.377195 -0.899811
v 142.133 -181.811 -3.53518
vn -0.240135 0.941177 0.237743
v 142.976 -181.414 -0.366495
vn -0.0770451 0.944878 0.31823
v 143.537 -181.078 -1.09625
vn 0.24787 0.94824 -0.198501
v 142.995 -180.927 -2.22445
vn 0.478891 -0.202492 0.854202
v 142.808 -182.784 0.820813
vn 0.534104 0.150824 0.831856
v 143.338 -182.182 0.531895
vn -0.216904 0.922466 0.319388
v 143.125 -181.523 0.284672
vn 0.562352 -0.0519473 0.825265
v 144.483 -182.476 -0.43186
vn 0.604099 -0.0263876 0.796472
v 144.248 -182.16 -0.251015
vn 0.577165 -0.23274 0.782759
v 144.455 -182.773 -0.482545
vn 0.458439 -0.888213 0.0301912
v 143.605 -190.93 -2.13059
vn -0.099436 -0.717759 -0.689155
v 142.995 -190.273 -3.8048
vn 0.345836 -0.888803 -0.300711
v 143.697 -190.777 -2.96126
vn 0.199476 -0.76454 -0.612934
v 143.586 -190.481 -3.56304
vn -0.17862 -0.227294 -0.957305
v 142.731 -189.676 -4.14907
vn 0.0680664 0.228797 -0.971092
v 142.766 -188.444 -4.05182
vn 0.751042 -0.52267 0.403425
v 143.907 -190.547 -1.75654
vn 0.783818 -0.219169 0.581029
v 144.098 -189.703 -1.51025
vn 0.909702 0.11737 0.398329
v 144.488 -188.713 -1.96356
vn 0.182116 -0.417095 -0.89043
v 143.492 -189.86 -4.0382
vn 0.708999 -0.698128 -0.0996842
v 144.354 -190.335 -2.90443
vn 0.809763 -0.56751 0.149051
v 144.452 -190.171 -2.50413
vn 0.891008 -0.326969 0.314952
v 144.556 -189.884 -2.37297
vn 0.89857 -0.0841586 0.430684
v 144.635 -189.295 -2.26698
vn 0.511998 -0.401659 -0.759295
v 144.026 -190.047 -3.73993
vn 0.69925 -0.54505 -0.462568
v 144.317 -190.238 -3.24214
vn 0.330065 -0.00293568 -0.943954
v 143.655 -189.574 -4.04932
vn 0.904151 -0.411597 -0.114452
v 144.538 -190.048 -2.93288
vn 0.852283 -0.219852 -0.474634
v 144.563 -189.667 -3.19885
vn 0.963207 -0.188358 -0.19171
v 144.751 -189.478 -2.8628
vn 0.959829 -0.22726 0.16456
v 144.724 -189.532 -2.63553
vn 0.539849 0.309156 -0.782934
v 143.792 -188.72 -3.79379
vn 0.868567 0.187929 -0.458557
v 144.7 -189.097 -3.06622
vn 0.994613 0.069847 0.0765877
v 144.783 -189.193 -2.76601
vn 0.701815 -0.0402094 -0.711224
v 144.231 -189.465 -3.70555
vn 0.491923 0.273319 -0.826625
v 143.24 -186.263 -3.094
vn 0.952996 0.16552 0.253776
v 144.001 -186.74 -1.87748
vn 0.931525 0.248044 -0.265961
v 144.003 -186.642 -2.24731
vn 0.782042 0.377271 -0.496061
v 144.362 -188.153 -2.7886
vn 0.949038 0.308767 -0.0631663
v 144.508 -188.249 -2.5397
vn 0.688618 -0.0145723 -0.724978
v 143.249 -184.463 -2.73358
vn 0.472069 -0.381841 -0.794574
v 143.473 -183.511 -2.91755
vn 0.589116 -0.536555 -0.604195
v 144.126 -183.716 -2.3153
vn 0.978524 0.0201531 -0.205147
v 143.795 -185.413 -1.954
vn 0.997021 -0.0656507 -0.040477
v 143.856 -184.463 -2.00396
vn 0.797293 -0.537528 -0.274568
v 144.54 -183.656 -1.81115
vn 0.358319 0.752636 -0.5524
v 143.377 -181.32 -2.71145
vn 0.723966 -0.353752 -0.592227
v 144.524 -183.221 -2.43132
vn 0.468869 -0.077422 -0.879868
v 144.03 -182.652 -3.00747
vn 0.581168 0.456517 -0.673674
v 144.133 -181.849 -2.74576
vn 0.863552 0.155224 -0.479775
v 144.527 -182.272 -2.43363
vn 0.719878 -0.43392 0.541747
v 144.551 -183.303 -0.846464
vn 0.648305 0.278863 0.708475
v 144.681 -181.823 -0.66257
vn 0.869119 -0.0961087 0.485175
v 144.982 -182.485 -0.781063
vn 0.730853 0.682535 5.19384e-006
v 144.751 -181.48 -1.04437
vn 0.93985 -0.207778 -0.271129
v 144.815 -183.128 -1.81063
vn 0.91288 -0.402608 0.0675019
v 144.833 -183.201 -1.44676
vn 0.986533 0.0311699 -0.160567
v 144.965 -182.552 -1.27495
vn -0.652752 -0.496151 0.572494
v 137.447 -184.53 -0.416719
vn -0.78836 0.125669 0.602243
v 137.447 -184.53 -0.416719
vn -0.801184 0.50014 0.32858
v 137.454 -183.865 -0.545794
vn -0.752745 0.273272 0.598914
v 138.358 -184.055 0.676561
vn -0.349289 -0.10418 0.931206
v 139.3 -183.102 1.1299
vn -0.159395 0.484185 0.860325
v 139.3 -183.102 1.1299
vn -0.153245 0.479558 0.864025
v 139.927 -183.287 1.35074
vn 0.259738 0.127281 0.957254
v 141.837 -182.18 1.06832
vn 0.419098 0.611349 0.671274
v 143.125 -181.523 0.284672
vn 0.726578 -0.403813 -0.555896
v 143.856 -184.463 -2.00396
f 4//4 1//1 9//9
f 4//4 22//22 1//1
f 2//2 9//9 1//1
f 2//2 1//1 24//24
f 6//6 4//4 3//3
f 5//5 6//6 3//3
f 145//145 10//10 8//8
f 146//146 148//148 147//147
f 4//4 9//9 145//145
f 5//5 7//7 6//6
f 9//9 10//10 145//145
f 22//22 4//4 6//6
f 6//6 7//7 37//37
f 7//7 44//44 37//37
f 7//7 147//147 44//44
f 9//9 2//2 10//10
f 148//148 11//11 147//147
f 8//8 10//10 149//149
f 10//10 12//12 149//149
f 10//10 2//2 39//39
f 12//12 10//10 41//41
f 10//10 39//39 41//41
f 11//11 43//43 147//147
f 17//17 13//13 19//19
f 58//58 13//13 17//17
f 19//19 14//14 18//18
f 14//14 16//16 18//18
f 14//14 15//15 16//16
f 13//13 15//15 14//14
f 13//13 14//14 19//19
f 13//13 50//50 15//15
f 50//50 51//51 15//15
f 15//15 51//51 16//16
f 30//30 17//17 19//19
f 30//30 19//19 20//20
f 18//18 20//20 19//19
f 18//18 21//21 20//20
f 18//18 16//16 21//21
f 21//21 70//70 20//20
f 20//20 35//35 30//30
f 20//20 70//70 35//35
f 16//16 52//52 21//21
f 23//23 1//1 22//22
f 22//22 38//38 23//23
f 28//28 23//23 34//34
f 28//28 1//1 23//23
f 23//23 66//66 34//34
f 38//38 66//66 23//23
f 75//75 66//66 38//38
f 2//2 24//24 26//26
f 28//28 24//24 1//1
f 25//25 2//2 26//26
f 25//25 39//39 2//2
f 24//24 28//28 26//26
f 26//26 27//27 25//25
f 25//25 27//27 39//39
f 29//29 31//31 27//27
f 27//27 26//26 29//29
f 27//27 31//31 39//39
f 30//30 29//29 32//32
f 29//29 26//26 32//32
f 31//31 29//29 30//30
f 39//39 31//31 36//36
f 32//32 26//26 28//28
f 33//33 17//17 30//30
f 35//35 31//31 30//30
f 33//33 30//30 32//32
f 34//34 32//32 28//28
f 33//33 32//32 34//34
f 17//17 33//33 67//67
f 67//67 33//33 34//34
f 35//35 36//36 31//31
f 70//70 41//41 36//36
f 36//36 41//41 39//39
f 36//36 35//35 70//70
f 70//70 71//71 41//41
f 22//22 6//6 37//37
f 44//44 147//147 43//43
f 37//37 38//38 22//22
f 73//73 37//37 44//44
f 38//38 37//37 73//73
f 41//41 40//40 12//12
f 40//40 41//41 42//42
f 71//71 42//42 41//41
f 44//44 43//43 81//81
f 81//81 43//43 45//45
f 43//43 89//89 45//45
f 81//81 45//45 83//83
f 45//45 89//89 83//83
f 150//150 151//151 47//47
f 46//46 11//11 47//47
f 43//43 11//11 46//46
f 89//89 43//43 46//46
f 151//151 48//48 47//47
f 152//152 12//12 40//40
f 40//40 91//91 152//152
f 42//42 91//91 40//40
f 93//93 47//47 48//48
f 13//13 49//49 50//50
f 49//49 13//13 58//58
f 53//53 50//50 49//49
f 98//98 53//53 49//49
f 49//49 101//101 98//98
f 53//53 54//54 50//50
f 50//50 54//54 51//51
f 54//54 55//55 51//51
f 51//51 55//55 16//16
f 52//52 16//16 55//55
f 53//53 56//56 54//54
f 56//56 57//57 54//54
f 54//54 57//57 55//55
f 62//62 55//55 57//57
f 55//55 62//62 61//61
f 52//52 55//55 61//61
f 98//98 56//56 53//53
f 97//97 57//57 56//56
f 97//97 62//62 57//57
f 56//56 99//99 97//97
f 67//67 58//58 17//17
f 101//101 49//49 58//58
f 101//101 58//58 59//59
f 59//59 58//58 67//67
f 102//102 69//69 122//122
f 59//59 69//69 102//102
f 102//102 101//101 59//59
f 60//60 21//21 52//52
f 61//61 60//60 52//52
f 61//61 63//63 60//60
f 64//64 60//60 63//63
f 62//62 65//65 61//61
f 65//65 63//63 61//61
f 97//97 103//103 62//62
f 103//103 65//65 62//62
f 103//103 104//104 65//65
f 104//104 63//63 65//65
f 64//64 63//63 104//104
f 67//67 34//34 68//68
f 68//68 34//34 66//66
f 68//68 66//66 75//75
f 68//68 75//75 69//69
f 67//67 68//68 69//69
f 69//69 75//75 77//77
f 69//69 59//59 67//67
f 122//122 69//69 77//77
f 60//60 70//70 21//21
f 70//70 60//60 71//71
f 60//60 64//64 71//71
f 72//72 71//71 64//64
f 72//72 78//78 71//71
f 79//79 78//78 72//72
f 123//123 79//79 72//72
f 38//38 74//74 75//75
f 74//74 38//38 73//73
f 74//74 76//76 75//75
f 73//73 86//86 74//74
f 86//86 73//73 82//82
f 86//86 76//76 74//74
f 75//75 76//76 77//77
f 86//86 87//87 76//76
f 135//135 77//77 76//76
f 128//128 127//127 77//77
f 122//122 77//77 127//127
f 128//128 77//77 135//135
f 78//78 42//42 71//71
f 78//78 91//91 42//42
f 78//78 138//138 91//91
f 91//91 138//138 96//96
f 80//80 78//78 79//79
f 78//78 80//80 138//138
f 80//80 79//79 130//130
f 131//131 80//80 130//130
f 73//73 44//44 82//82
f 82//82 44//44 81//81
f 84//84 82//82 81//81
f 84//84 81//81 83//83
f 83//83 89//89 84//84
f 82//82 84//84 85//85
f 86//86 82//82 85//85
f 85//85 87//87 86//86
f 135//135 76//76 87//87
f 89//89 46//46 47//47
f 88//88 47//47 93//93
f 88//88 89//89 47//47
f 141//141 89//89 153//153
f 89//89 88//88 93//93
f 85//85 84//84 90//90
f 90//90 84//84 89//89
f 90//90 89//89 141//141
f 133//133 85//85 90//90
f 141//141 133//133 90//90
f 91//91 92//92 152//152
f 153//153 152//152 92//92
f 96//96 92//92 91//91
f 139//139 153//153 92//92
f 153//153 139//139 141//141
f 95//95 92//92 96//96
f 95//95 139//139 92//92
f 95//95 96//96 94//94
f 139//139 95//95 94//94
f 138//138 140//140 96//96
f 140//140 94//94 96//96
f 139//139 94//94 140//140
f 98//98 100//100 56//56
f 56//56 100//100 99//99
f 101//101 102//102 113//113
f 122//122 118//118 102//102
f 106//106 98//98 101//101
f 106//106 101//101 113//113
f 102//102 118//118 113//113
f 110//110 64//64 104//104
f 110//110 105//105 64//64
f 105//105 72//72 64//64
f 105//105 123//123 72//72
f 99//99 107//107 97//97
f 97//97 108//108 103//103
f 109//109 104//104 103//103
f 109//109 110//110 104//104
f 105//105 126//126 123//123
f 100//100 112//112 99//99
f 112//112 107//107 99//99
f 107//107 108//108 97//97
f 109//109 108//108 114//114
f 103//103 108//108 109//109
f 117//117 109//109 114//114
f 117//117 120//120 110//110
f 109//109 117//117 110//110
f 120//120 105//105 110//110
f 126//126 120//120 119//119
f 105//105 120//120 126//126
f 100//100 98//98 106//106
f 111//111 100//100 106//106
f 112//112 100//100 111//111
f 106//106 113//113 111//111
f 111//111 113//113 121//121
f 111//111 121//121 112//112
f 107//107 112//112 114//114
f 107//107 114//114 108//108
f 113//113 118//118 121//121
f 112//112 121//121 115//115
f 112//112 115//115 114//114
f 121//121 119//119 115//115
f 114//114 115//115 116//116
f 114//114 116//116 117//117
f 115//115 119//119 116//116
f 116//116 119//119 120//120
f 117//117 116//116 120//120
f 119//119 121//121 118//118
f 119//119 118//118 125//125
f 126//126 119//119 125//125
f 125//125 122//122 124//124
f 130//130 124//124 127//127
f 124//124 130//130 79//79
f 123//123 124//124 79//79
f 124//124 123//123 126//126
f 127//127 124//124 122//122
f 125//125 124//124 126//126
f 118//118 122//122 125//125
f 127//127 128//128 154//154
f 154//154 132//132 80//80
f 154//154 128//128 129//129
f 132//132 154//154 129//129
f 134//134 129//129 128//128
f 132//132 129//129 134//134
f 134//134 128//128 135//135
f 127//127 154//154 130//130
f 87//87 136//136 135//135
f 87//87 133//133 136//136
f 133//133 87//87 85//85
f 133//133 141//141 136//136
f 135//135 137//137 134//134
f 137//137 135//135 136//136
f 80//80 143//143 138//138
f 143//143 140//140 138//138
f 140//140 141//141 139//139
f 143//143 144//144 140//140
f 136//136 141//141 137//137
f 137//137 141//141 144//144
f 144//144 141//141 140//140
f 142//142 132//132 134//134
f 132//132 142//142 143//143
f 80//80 132//132 143//143
f 143//143 142//142 144//144
f 142//142 137//137 144//144
f 134//134 137//137 142//142
