# Wavafront OBJ file of BodyParts3D
# BodyParts3D, Copyright(C) 2010-2011 The Database Center for Life Science licensed under CC Attribution-Share Alike 2.1 Japan.
vn -0.960766 -0.27736 -0.000617741
v -40.7171 -82.1675 1476.98
vn -0.960766 -0.27736 -0.000617741
v -40.8303 -81.7759 1477.28
vn -0.442502 -0.22054 0.869226
v -40.6376 -81.6349 1477.42
vn -0.97433 -0.15802 -0.160347
v -40.8642 -81.4843 1477.2
vn -0.846963 0.114183 0.519246
v -40.7346 -81.4307 1477.4
vn -0.84988 0.451591 -0.271604
v -40.626 -81.1145 1477.11
vn -0.982017 -0.16075 0.0990034
v -40.741 -80.3606 1477.53
vn -0.701362 -0.627266 0.338569
v -40.6466 -80.7458 1477.64
vn -0.982017 -0.16075 0.0990034
v -40.6644 -80.6495 1477.82
vn -0.981416 -0.0894025 0.169791
v -40.5679 -80.0431 1478.69
vn -0.583484 -0.374053 -0.720854
v -39.5738 -83.5696 1476.43
vn -0.381793 -0.807408 0.449807
v -38.9744 -84.1661 1476.54
vn -0.68822 0.0929447 -0.719524
v -38.8567 -83.769 1476.48
vn -0.833611 -0.502244 0.229878
v -40.0281 -83.4258 1476.95
vn -0.0957152 -0.989794 0.105574
v -39.8331 -83.8631 1476.87
vn -0.254752 -0.367145 0.894598
v -40.0097 -83.3809 1477.11
vn -0.0957152 -0.989794 0.105574
v -39.5058 -83.9136 1476.69
vn -0.146059 -0.479583 0.865256
v -39.6089 -83.585 1477.13
vn -0.504428 -0.757637 0.414171
v -39.1886 -83.8913 1476.78
vn -0.0957152 -0.989794 0.105574
v -38.9956 -83.9373 1476.93
vn -0.908829 -0.385623 0.159136
v -40.4171 -82.797 1477.17
vn -0.0888259 -0.322209 0.942492
v -39.422 -83.1163 1477.34
vn -0.555437 -0.240716 -0.795956
v -39.5632 -81.6264 1475.96
vn -0.821898 0.208657 -0.530043
v -40.3588 -81.0075 1476.68
vn -0.88856 0.328319 -0.320418
v -40.239 -80.5681 1476.78
vn -0.848659 0.134725 -0.511494
v -40.3402 -80.4633 1477.16
vn -0.282058 -0.325268 0.902576
v -40.4562 -80.9267 1477.69
vn -0.220506 -0.682371 0.696955
v -40.3135 -80.1694 1478.74
vn -0.384888 0.43342 0.814867
v -40.3139 -79.8349 1478.7
vn -0.0101388 -0.861276 0.508037
v -39.914 -80.1667 1478.76
vn -0.15118 -0.983174 0.102537
v -40.1533 -79.879 1479.5
vn -0.187278 -0.509462 0.839866
v -40.0392 -79.9867 1478.91
vn -0.37907 -0.925266 -0.0137211
v -39.9435 -79.9303 1479.32
vn -0.121507 -0.894504 0.43023
v -39.9538 -79.9078 1479.52
vn -0.630978 -0.397185 0.666417
v -39.8597 -79.9328 1479.12
vn -0.796121 0.604574 -0.0261248
v -39.9511 -79.5167 1479.41
vn -0.761137 -0.0641857 -0.645407
v -39.9274 -79.4946 1479.2
vn -0.248676 -0.959196 0.134548
v -39.7341 -80.0329 1479.15
vn -0.0896618 -0.630138 0.771289
v -39.3753 -79.512 1479.91
vn -0.768007 0.639967 0.0246504
v -39.8229 -78.9931 1476.78
vn -0.6683 0.712753 -0.212974
v -39.2939 -78.5269 1476.68
vn -0.821057 0.532427 -0.205879
v -39.6421 -78.7191 1477.13
vn -0.62573 0.0531785 -0.778225
v -39.628 -79.3524 1478.97
vn -0.852627 0.522466 0.00748527
v -39.2286 -78.1059 1475.95
vn -0.820832 0.0540161 -0.56861
v -39.1667 -78.4094 1475.6
vn -0.4555 0.733466 0.504527
v -39.0555 -78.1424 1477.34
vn -0.251985 -0.84201 0.476993
v -38.5678 -84.3428 1476.44
vn -0.443866 -0.469743 -0.763102
v -38.3351 -84.2567 1476.22
vn 0.352966 -0.58237 0.732297
v -37.5939 -83.4092 1476.86
vn -0.362506 -0.477156 -0.80057
v -38.5394 -82.7505 1475.66
vn -0.589349 -0.123872 -0.798325
v -37.7257 -83.2223 1475.47
vn -0.0577291 -0.456216 0.887994
v -38.6681 -81.0749 1478
vn 0.107576 -0.803135 0.586005
v -37.7609 -79.7874 1479.7
vn -0.534718 -0.290856 -0.793397
v -38.2609 -80.3102 1474.73
vn -0.442961 -0.423818 -0.79004
v -38.091 -79.6069 1474.28
vn -0.731063 0.625793 0.2719
v -38.7006 -78.1053 1478.24
vn -0.475978 0.690545 0.544604
v -38.3309 -77.9461 1478.84
vn -0.128754 -0.576757 -0.806705
v -37.6565 -78.5555 1473.46
vn -0.877537 0.138243 -0.459148
v -38.2125 -77.5034 1474.38
vn -0.837632 0.0259744 -0.545617
v -38.3197 -77.2922 1474.53
vn -0.860646 0.117677 -0.495419
v -38.0799 -77.6661 1473.79
vn -0.863052 0.48364 -0.145721
v -38.7973 -77.5589 1476.45
vn -0.843709 0.508932 -0.170713
v -38.827 -77.4928 1476.69
vn -0.903276 0.121495 -0.411498
v -37.8857 -76.7956 1473.79
vn -0.844854 0.0804083 -0.52892
v -37.101 -75.7427 1472.51
vn -0.839668 0.534664 -0.0953535
v -37.2715 -74.6174 1473.23
vn 0.351853 -0.936035 0.00616036
v -36.7655 -83.6672 1476.14
vn 0.66791 -0.596125 0.44557
v -36.765 -83.4154 1476.31
vn -0.156058 -0.496133 -0.854107
v -36.5078 -82.3169 1475.02
vn 0.587496 -0.78208 -0.207843
v -36.3716 -82.9607 1476.39
vn 0.0957438 -0.62336 -0.776052
v -36.1077 -82.6822 1475.08
vn 0.285173 -0.946364 -0.151895
v -35.9713 -82.838 1476.37
vn 0.340596 -0.78115 -0.523258
v -35.9592 -82.5838 1476.1
vn 0.30615 -0.675518 -0.670781
v -35.8461 -82.5214 1475.05
vn 0.585585 -0.763281 -0.272934
v -35.9368 -82.3545 1475.62
vn 0.765702 -0.619459 0.173121
v -35.7164 -82.3578 1475.22
vn 0.486844 -0.666602 0.564469
v -36.5824 -83.0601 1476.61
vn 0.508381 -0.549381 0.663121
v -36.1902 -82.6835 1476.72
vn 0.718517 -0.359662 0.595296
v -36.0235 -82.4866 1476.69
vn 0.506749 -0.546964 0.66636
v -36.2086 -82.2664 1477.04
vn 0.764595 -0.341675 0.546492
v -36.0467 -82.2411 1476.83
vn 0.698759 -0.631253 0.336535
v -35.7698 -81.9936 1476.98
vn 0.550354 -0.482466 0.681423
v -35.8167 -81.8522 1477.15
vn 0.0292817 -0.604836 -0.795812
v -35.8895 -82.0133 1474.63
vn 0.0554953 -0.783825 0.618497
v -36.9175 -80.092 1478.9
vn 0.610124 -0.369928 0.700644
v -36.2618 -80.1191 1478.52
vn 0.327683 -0.484015 0.81139
v -36.0527 -81.0852 1477.76
vn -0.428728 -0.391184 -0.814351
v -36.7001 -79.1779 1472.85
vn -0.85259 0.234055 -0.467235
v -36.7009 -74.1438 1472.3
vn -0.729207 0.654602 0.199382
v -36.1811 -73.7172 1475.32
vn 0.678873 -0.730464 0.0745238
v -34.0625 -80.931 1474.08
vn 0.133346 -0.698124 -0.70345
v -35.2931 -81.9147 1474.7
vn 0.334412 -0.78269 -0.524943
v -34.9224 -81.5742 1475.25
vn 0.740376 -0.373906 0.558603
v -34.7546 -81.0712 1475.83
vn 0.654237 -0.752757 0.0730146
v -34.098 -80.8885 1474.69
vn 0.69919 -0.374058 0.609274
v -35.212 -81.054 1476.96
vn 0.513177 0.0193055 0.858066
v -35.687 -78.9762 1478.17
vn -0.154441 -0.58293 -0.79771
v -33.956 -78.3468 1471.52
vn -0.458958 -0.343434 -0.819396
v -35.3625 -77.2835 1471.46
vn -0.229386 -0.511999 -0.827792
v -34.763 -78.0807 1471.6
vn -0.176307 -0.642376 -0.745835
v -33.9292 -77.2587 1470.83
vn -0.343668 0.675454 0.652421
v -35.2126 -73.3705 1475.93
vn -0.794862 0.131955 -0.592269
v -34.5849 -72.8856 1469.37
vn -0.814719 0.342564 -0.46785
v -34.2917 -72.0722 1469.37
vn -0.832056 0.477057 -0.283017
v -35.186 -72.3548 1471.27
vn -0.789602 0.402135 -0.463484
v -33.711 -70.8976 1469.08
vn 0.0843735 -0.728508 -0.679821
v -33.6241 -80.3578 1473.16
vn 0.701136 -0.709176 0.0740133
v -33.14 -80.171 1473.09
vn 0.548348 -0.812118 -0.199447
v -33.1392 -80.0128 1473.67
vn 0.168509 -0.819448 -0.547823
v -33.0621 -80.1579 1473.9
vn 0.73745 -0.66085 0.139446
v -32.746 -79.7825 1473.01
vn 0.148965 -0.752449 -0.641584
v -32.6481 -79.8318 1473.59
vn 0.702153 -0.667748 0.247172
v -32.4517 -79.871 1473.67
vn 0.648861 -0.657392 0.383164
v -32.6926 -79.8262 1474.48
vn -0.196352 -0.572461 -0.796074
v -33.737 -77.4174 1471.01
vn 0.188638 0.352218 0.91671
v -33.4511 -74.7667 1476.94
vn -0.80692 0.422771 -0.412485
v -33.3726 -71.0007 1468.71
vn -0.644499 0.73374 0.215051
v -33.259 -70.0508 1472.19
vn -0.682481 0.716341 0.145173
v -33.066 -69.9691 1472.59
vn -0.76664 0.37825 -0.518835
v -33.0616 -70.4854 1468.58
vn 0.0322732 -0.752201 -0.658143
v -31.9551 -79.0234 1472.01
vn 0.759461 -0.618056 0.203041
v -31.9944 -79.0202 1472.42
vn 0.71792 -0.221093 0.660082
v -32.2838 -79.0445 1474.2
vn 0.763216 -0.624834 0.164573
v -32.113 -78.1491 1474.67
vn 0.669051 -0.247255 0.700882
v -32.0391 -74.6188 1475.99
vn 0.0514003 0.422913 0.904712
v -31.9941 -75.0666 1475.87
vn 0.449829 0.0299961 0.892611
v -31.5929 -75.2724 1475.89
vn -0.356145 -0.472751 -0.806019
v -31.7763 -75.0773 1468.24
vn -0.354553 -0.454454 -0.817168
v -31.3862 -74.0122 1467.6
vn 0.0562497 0.464497 0.883786
v -31.3907 -71.4859 1475.33
vn -0.539041 -0.237258 -0.808173
v -31.7614 -72.1439 1466.84
vn -0.0593203 0.593252 0.802828
v -31.2475 -69.6153 1473.84
vn -0.33278 0.734298 0.591662
v -30.9091 -69.613 1473.85
vn -0.567577 0.774725 0.278672
v -32.1277 -69.1132 1472.62
vn -0.459371 0.731333 0.504113
v -31.1149 -69.0863 1473.5
vn -0.750507 0.203252 -0.62883
v -31.537 -69.5335 1466.53
vn -0.788846 0.479358 -0.384626
v -31.013 -68.5125 1466.49
vn -0.756731 0.611596 -0.230887
v -32.081 -68.6588 1468.96
vn -0.721409 0.618939 -0.310618
v -31.0032 -67.4411 1468.9
vn -0.617278 0.768585 0.168065
v -30.8646 -67.4733 1468.29
vn -0.57743 0.795677 0.182954
v -30.6747 -67.3801 1468.48
vn -0.742535 0.665051 -0.0796787
v -31.9201 -68.1899 1469.47
vn -0.545777 0.787806 0.285462
v -31.363 -67.8855 1470.3
vn -0.549361 0.799293 0.243584
v -31.1917 -68.1347 1470.91
vn -0.664944 0.746854 -0.00759994
v -30.6424 -67.212 1467.81
vn -0.176269 -0.637944 -0.749638
v -29.8241 -76.5013 1468.73
vn 0.780478 -0.542807 0.310183
v -29.7291 -75.6924 1472.88
vn 0.789689 -0.483774 0.377299
v -29.8916 -75.7282 1473.5
vn 0.758327 -0.549779 0.350263
v -29.6947 -75.021 1473.94
vn 0.698578 -0.371634 0.611454
v -29.5122 -74.5028 1474.22
vn 0.684295 -0.304391 0.662636
v -29.8764 -74.1487 1474.73
vn 0.0188986 0.428176 0.903498
v -29.346 -72.5205 1474.63
vn 0.431024 0.0963704 0.89718
v -30.6008 -71.189 1474.92
vn 0.586571 -0.157044 0.794526
v -29.5473 -72.0482 1474.59
vn 0.0504256 0.531185 0.845754
v -29.955 -70.0744 1474.47
vn -0.177189 0.708724 0.682872
v -30.4863 -68.2368 1472.83
vn 0.0397648 0.600347 0.798751
v -30.411 -68.7504 1473.23
vn 0.0239047 0.586656 0.809484
v -30.1036 -68.8294 1473.27
vn -0.58428 0.777002 0.234274
v -30.1071 -68.8885 1473.49
vn -0.330539 0.749585 0.573468
v -29.6124 -68.4993 1473.41
vn -0.375994 0.791498 0.48183
v -29.5016 -68.3562 1473.18
vn -0.180831 0.747104 0.639637
v -30.5518 -67.3447 1470.02
vn -0.661881 0.131428 -0.737998
v -29.0385 -67.8688 1464.34
vn -0.728132 0.267984 -0.630879
v -29.7019 -67.7706 1465.11
vn -0.562264 0.807649 0.177656
v -30.4525 -67.1313 1468.01
vn -0.754834 0.465308 -0.462292
v -30.2717 -66.8754 1468.36
vn -0.619991 0.776892 0.10977
v -29.4559 -65.9293 1467.94
vn 0.0197258 0.655682 0.75478
v -29.3067 -66.1826 1468.99
vn -0.598829 0.792265 0.117129
v -29.9212 -66.5059 1469.31
vn -0.757077 0.406643 -0.511347
v -29.1779 -65.956 1467.55
vn -0.0263141 -0.741551 -0.67038
v -28.6962 -76.1264 1468.28
vn 0.427777 -0.812135 -0.396792
v -28.1067 -75.6131 1469.41
vn 0.798032 -0.445746 0.405531
v -27.9705 -75.5594 1469.61
vn 0.203278 -0.759789 -0.617575
v -27.3307 -74.5298 1466.66
vn 0.776345 -0.468572 0.421578
v -28.0664 -75.5781 1468.78
vn 0.719902 -0.689059 0.0833065
v -28.1732 -75.5261 1468.97
vn -0.0932376 -0.639763 -0.762895
v -27.288 -73.3285 1465.65
vn 0.362983 0.215962 0.906424
v -28.9521 -70.6892 1474.52
vn 0.583216 -0.0575525 0.810276
v -27.8044 -70.0831 1473.73
vn -0.240225 -0.535323 -0.809766
v -28.2526 -71.3158 1464.64
vn -0.238485 -0.500704 -0.832118
v -28.2276 -70.6477 1464.05
vn -0.172993 -0.525083 -0.833284
v -27.6184 -70.3434 1463.84
vn 0.0875319 0.535072 0.84026
v -28.503 -68.3486 1473.23
vn 0.231836 0.347463 0.908582
v -28.3233 -69.0417 1473.73
vn -0.601565 -0.0769888 -0.795105
v -27.2544 -69.2431 1463.15
vn -0.154335 0.701132 0.696128
v -28.8544 -67.2048 1472.09
vn -0.0217983 0.719742 0.6939
v -27.8222 -66.3749 1471.36
vn -0.626037 0.0630401 -0.777241
v -27.0423 -67.2596 1462.82
vn -0.664569 0.24769 -0.704981
v -27.2035 -66.7764 1463.07
vn -0.725299 0.663313 -0.184273
v -28.4017 -65.3929 1466.81
vn -0.755123 0.331262 -0.565733
v -28.5914 -65.233 1467.17
vn -0.126801 0.741297 0.65909
v -28.0436 -65.3515 1468.27
vn -0.661115 0.748496 -0.0517807
v -27.5561 -64.6545 1465.82
vn 0.666914 -0.745131 0.0023606
v -27.1756 -74.984 1467.63
vn 0.759712 -0.453363 0.466153
v -25.7108 -73.3703 1467.05
vn 0.753539 -0.583247 0.303319
v -25.8277 -73.3004 1468.07
vn 0.56778 -0.00367444 0.823172
v -26.0231 -71.4466 1472.12
vn 0.500066 0.0426705 0.864936
v -27.2988 -70.1699 1473.42
vn 0.610692 0.022027 0.791562
v -27.0893 -69.6201 1473.16
vn 0.653056 -0.265126 0.709385
v -26.2345 -70.9077 1472.27
vn 0.650232 -0.325778 0.686343
v -26.2884 -69.6246 1473.17
vn -0.0170049 0.520284 0.853824
v -26.0781 -69.0789 1472.89
vn 0.24369 0.347958 0.905285
v -27.5085 -69.1193 1473.47
vn -0.25645 -0.466698 -0.84642
v -26.4206 -69.3429 1462.8
vn -0.140602 0.736833 0.661293
v -27.1909 -65.7397 1470.67
vn 0.101828 0.591264 0.800023
v -27.1776 -65.4098 1470.36
vn -0.513351 -0.104955 -0.851737
v -25.9464 -67.102 1462.01
vn -0.602732 0.150915 -0.783543
v -25.9177 -66.2526 1461.98
vn -0.112819 0.701803 0.703381
v -27.3763 -65.2166 1470.3
vn -0.642283 0.75848 0.110368
v -26.4999 -63.9557 1467.35
vn -0.591072 0.77015 0.239796
v -26.4895 -64.0738 1468.43
vn -0.509781 0.796288 0.325652
v -25.7743 -62.8799 1465.99
vn 0.57957 -0.794904 -0.179515
v -25.1639 -72.8873 1467.16
vn 0.702837 -0.656264 0.274476
v -25.4251 -72.7717 1468.36
vn 0.418665 -0.807369 -0.415782
v -24.7296 -72.3467 1466.41
vn 0.751629 -0.373223 0.543837
v -24.5097 -72.4396 1466.03
vn 0.715179 -0.637379 0.286822
v -24.3802 -72.1509 1467
vn 0.714982 -0.525688 0.460926
v -24.3384 -71.3957 1468.25
vn 0.646589 -0.356845 0.674229
v -25.05 -69.1184 1472.36
vn 0.334103 0.300676 0.893291
v -25.6374 -67.3853 1472.27
vn 0.119266 0.50866 0.852666
v -25.6511 -67.0222 1472.08
vn 0.0996981 0.438281 0.893292
v -24.8468 -68.044 1472.16
vn -0.129321 0.65958 0.740425
v -25.551 -64.3499 1469.72
vn -0.0506285 0.665421 0.744749
v -24.5863 -64.7639 1470.51
vn -0.526477 0.0156472 -0.850046
v -24.1051 -65.4943 1461.01
vn -0.553537 0.815678 0.168125
v -25.5875 -63.3527 1468.06
vn -0.710337 0.703802 -0.00917364
v -25.6514 -63.0276 1467.55
vn -0.726126 0.635867 -0.26156
v -24.8998 -62.4206 1463.9
vn -0.457131 0.789851 0.40886
v -24.9301 -61.8738 1464.99
vn -0.746816 0.616907 -0.248377
v -24.4053 -62.38 1467.86
vn -0.456117 0.801583 0.386553
v -24.3545 -62.3269 1468.05
vn -0.698691 0.483743 -0.52709
v -24.2592 -62.3741 1467.65
vn -0.828791 0.555818 0.0645864
v -24.2681 -62.1695 1467.81
vn -0.745407 0.374396 -0.55154
v -24.2118 -61.6969 1463.53
vn 0.593564 -0.252844 0.764036
v -23.7074 -71.111 1467.79
vn 0.679924 -0.435964 0.589609
v -23.47 -71.1621 1467.61
vn 0.677486 -0.699389 0.227746
v -23.6654 -70.7355 1468.93
vn 0.7547 -0.285689 0.590601
v -23.4739 -71.5606 1465.22
vn 0.773165 -0.406429 0.486858
v -23.0522 -71.3443 1464.77
vn 0.77365 -0.27478 0.570931
v -22.5257 -70.5961 1464.39
vn 0.403423 -0.794123 -0.454553
v -22.4174 -70.6993 1464
vn 0.65505 -0.160715 0.738295
v -23.4859 -71.2856 1466.39
vn 0.605176 -0.792074 -0.0798775
v -22.9964 -71.1948 1465.98
vn 0.650029 -0.75064 0.118334
v -22.5308 -70.5933 1466.25
vn 0.572765 -0.81648 0.0728096
v -23.7333 -70.8655 1467.93
vn 0.408188 -0.912636 -0.0218412
v -23.6253 -70.8075 1468.14
vn 0.594305 -0.733152 0.330589
v -23.4343 -70.693 1468.31
vn 0.501527 -0.847898 -0.171871
v -23.4129 -70.6025 1467.87
vn 0.73277 -0.526537 0.431054
v -23.3319 -70.5644 1468.28
vn 0.307254 -0.822455 -0.47871
v -23.224 -70.6691 1468.11
vn 0.568886 -0.788034 -0.235311
v -23.165 -70.4758 1467.85
vn 0.704745 -0.702882 0.0963921
v -23.022 -70.3484 1468.03
vn 0.745845 -0.592965 0.303492
v -23.121 -69.505 1469.89
vn 0.741871 -0.629654 0.230572
v -22.9773 -69.5266 1469.05
vn 0.655234 -0.495313 0.570381
v -23.787 -68.7908 1471.09
vn 0.570024 -0.634148 0.522426
v -23.8137 -68.4177 1471.58
vn 0.1932 0.416103 0.888556
v -23.2178 -67.1159 1471.5
vn 0.00809242 -0.620596 -0.784089
v -23.3394 -69.1119 1462.21
vn 0.145573 0.511779 0.846694
v -23.7997 -66.1047 1470.98
vn -0.0884429 -0.552444 -0.828845
v -22.4855 -67.3959 1460.92
vn -0.560754 -0.00193262 -0.82798
v -23.5344 -65.3951 1460.63
vn -0.415824 0.837812 0.353781
v -23.6121 -61.6814 1466.64
vn -0.694075 0.407755 -0.593293
v -23.1314 -61.3719 1467.02
vn -0.561774 0.810175 -0.167409
v -23.113 -61.319 1467.22
vn -0.0109253 0.698966 0.715071
v -23.8917 -62.4627 1468.32
vn -0.726501 0.519574 -0.44971
v -23.2899 -61.3407 1461.82
vn -0.767236 0.453131 -0.453895
v -23.3057 -61.0772 1462.78
vn -0.739213 0.443546 -0.506786
v -23.6897 -61.4129 1463.06
vn -0.684292 0.702719 -0.194757
v -23.4992 -60.7801 1463.11
vn -0.720336 0.241074 -0.650384
v -23.4325 -60.9972 1462.96
vn -0.548641 0.797365 0.251402
v -23.9498 -61.5205 1465.36
vn -0.689013 0.717864 -0.0996588
v -23.7116 -61.3064 1465.73
vn -0.492394 0.794181 0.356124
v -23.3288 -60.9198 1464.88
vn -0.668728 0.742234 -0.0434885
v -22.4283 -60.2982 1464.9
vn -0.47226 0.866855 -0.159788
v -22.4533 -61.0869 1466.57
vn -0.709884 0.606625 -0.35787
v -22.6081 -60.3015 1462.4
vn -0.608811 0.79236 0.0389125
v -22.4181 -59.6499 1463.48
vn 0.722801 -0.581158 0.373917
v -22.0211 -69.767 1466.68
vn 0.625643 -0.774713 0.0916019
v -22.389 -69.9527 1467.33
vn 0.675699 -0.734238 0.0657644
v -22.2176 -69.5469 1467.85
vn 0.331671 -0.739081 -0.586305
v -21.3685 -69.4387 1462.88
vn 0.759506 -0.540521 0.361922
v -20.9775 -69.3111 1463.06
vn 0.692375 -0.696241 0.18938
v -21.0712 -68.5502 1466.6
vn 0.627942 -0.179244 0.757338
v -21.8998 -67.8378 1469.27
vn 0.558627 -0.828726 0.0339075
v -22.3523 -67.9927 1470.33
vn 0.490317 -0.67585 0.550287
v -22.3561 -68.0304 1470.75
vn 0.13121 -0.651192 -0.747485
v -21.7033 -67.9024 1461.36
vn 0.194347 -0.648037 -0.736395
v -20.9273 -68.3756 1461.93
vn 0.724056 -0.159566 0.67103
v -20.6752 -68.5319 1462.88
vn -0.00803294 0.632837 0.774243
v -21.738 -64.2854 1469.55
vn 0.177939 0.50991 0.841623
v -21.5534 -64.537 1469.9
vn -0.0681739 0.678405 0.731519
v -22.453 -61.6662 1467.48
vn -0.0865243 0.732686 0.675044
v -21.2606 -61.8263 1467.68
vn -0.0411644 0.697369 0.715529
v -21.4982 -62.4282 1468.51
vn -0.716894 0.659087 -0.227303
v -22.3422 -60.1017 1465.06
vn -0.138998 0.829902 0.540317
v -22.4306 -61.1845 1466.97
vn -0.136059 0.706889 0.694115
v -21.6403 -60.9334 1467.15
vn 0.282758 0.453191 0.845379
v -21.2314 -60.7806 1466.96
vn -0.70767 0.661177 -0.249094
v -22.1758 -60.058 1461.73
vn 0.578819 -0.809625 -0.0973501
v -20.3574 -67.9921 1466.49
vn 0.284115 -0.764425 -0.578734
v -20.3915 -68.6377 1463.26
vn 0.408883 -0.642741 -0.647842
v -20.331 -68.1563 1461.99
vn 0.465994 -0.816314 -0.341292
v -19.9656 -68.6146 1463.35
vn 0.749645 -0.610646 0.255233
v -19.2118 -67.7495 1463.57
vn 0.605701 -0.779178 -0.16127
v -19.0996 -67.626 1463.96
vn 0.281801 -0.635792 -0.71858
v -20.0926 -66.7588 1461.04
vn 0.710411 -0.703439 -0.0221124
v -19.5359 -67.3535 1461.99
vn 0.191319 0.519888 0.832535
v -20.2035 -60.5269 1466.4
vn -0.47834 0.836044 0.268742
v -19.8581 -57.9729 1463.15
vn 0.615969 -0.778915 -0.11779
v -18.8491 -67.6423 1463.15
vn 0.615868 -0.77652 -0.133132
v -18.8089 -67.2547 1463.46
vn 0.70773 -0.678443 0.197062
v -18.5409 -67.2364 1463.88
vn 0.625952 -0.777919 0.0550108
v -18.1325 -66.2509 1464.46
vn 0.599276 -0.798935 -0.0507034
v -18.2979 -66.4905 1465.14
vn 0.618071 -0.78442 0.0517058
v -17.5189 -65.8082 1464.58
vn 0.666998 -0.474415 0.574495
v -17.752 -65.1933 1466.06
vn 0.409253 -0.732216 -0.5444
v -18.6493 -65.1763 1459.99
vn 0.603383 -0.772307 -0.198672
v -18.6109 -65.0991 1459.56
vn 0.524249 0.0872079 0.847088
v -17.7818 -63.4576 1467.87
vn 0.340465 0.416868 0.842795
v -17.8531 -63.2845 1467.82
vn 0.201308 -0.67981 -0.705218
v -18.1669 -64.0212 1458.2
vn 0.306848 0.373011 0.875618
v -19.2531 -61.6658 1467.56
vn 0.0752553 0.614714 0.785151
v -18.6447 -61.7094 1467.42
vn -0.122776 -0.463705 -0.877441
v -17.5084 -61.7302 1456.74
vn -0.457891 0.829992 0.318512
v -18.3838 -59.6211 1465.96
vn -0.0166568 0.666588 0.74524
v -17.9526 -59.1952 1465.25
vn -0.495528 0.813516 0.304376
v -18.2776 -57.4829 1463.51
vn -0.655767 0.196673 -0.728896
v -17.6943 -58.8497 1456.65
vn -0.443556 0.866862 0.227614
v -17.7992 -56.5736 1461.84
vn -0.395315 0.835833 0.380933
v -18.2544 -57.113 1463
vn -0.615116 0.783848 0.084945
v -17.8758 -57.1509 1463.44
vn -0.371323 0.819961 0.43564
v -17.6857 -57.0356 1463.63
vn 0.751618 -0.488885 0.442788
v -17.3509 -66.1008 1462.18
vn 0.704749 -0.649749 0.284877
v -17.0028 -65.7879 1463.15
vn 0.594531 -0.799946 -0.0813559
v -17.2936 -65.6786 1464.97
vn 0.158856 -0.734611 -0.65963
v -16.6977 -65.5324 1461.06
vn 0.751673 -0.491043 0.440301
v -17.007 -65.9641 1461.75
vn 0.561741 -0.80591 -0.186965
v -16.3418 -65.2753 1462.01
vn 0.682217 -0.704688 0.194922
v -16.9484 -64.5112 1465.92
vn -0.089451 -0.575597 -0.812826
v -16.3902 -63.0989 1458.59
vn 0.318511 -0.721123 -0.61525
v -16.3321 -62.8919 1457.83
vn -0.263636 -0.517478 -0.814072
v -16.1516 -63.1183 1458.52
vn 0.697061 -0.707395 -0.11704
v -15.7499 -62.2483 1457.68
vn -0.140831 0.706075 0.693991
v -16.785 -60.224 1466.07
vn 0.286706 0.33514 0.897486
v -16.3872 -60.4126 1466.15
vn -0.311522 0.793795 0.522344
v -17.1491 -58.6028 1465.12
vn 0.00435221 0.632519 0.774533
v -16.9712 -59.0974 1465.64
vn 0.0111739 0.671668 0.740768
v -16.7631 -59.7398 1465.57
vn -0.43487 -0.118863 -0.892614
v -16.9285 -59.8271 1456.13
vn -0.0855689 0.691251 0.717531
v -16.2946 -57.5013 1463.91
vn 0.17198 0.526108 0.832846
v -17.291 -57.6149 1464.22
vn -0.460819 -0.092116 -0.882701
v -16.8896 -58.8304 1455.98
vn 0.556406 -0.77527 -0.298945
v -15.491 -64.5762 1460.82
vn 0.6721 -0.73286 0.10582
v -15.4038 -64.3391 1463.05
vn 0.696185 -0.670713 0.255872
v -15.4749 -64.1182 1464.44
vn 0.80828 -0.557379 0.189767
v -14.8111 -63.652 1460.4
vn 0.763479 -0.631676 0.134484
v -14.4988 -63.3167 1460.12
vn 0.761319 -0.644642 0.0694927
v -14.4838 -63.2639 1460.31
vn 0.531169 -0.762227 -0.369959
v -14.4844 -63.4266 1460.56
vn 0.585374 -0.7882 -0.189942
v -15.2479 -64.4087 1461.41
vn 0.789911 -0.517159 0.329526
v -15.2991 -64.2085 1460.94
vn 0.623199 -0.781876 0.0171186
v -15.161 -64.1173 1462.17
vn 0.655844 -0.754821 -0.0106723
v -14.306 -63.5069 1461.01
vn 0.667964 -0.426681 0.609728
v -15.09 -63.322 1464.64
vn 0.687681 -0.632668 0.356126
v -14.4866 -62.6042 1464.49
vn 0.62241 -0.780775 0.0547399
v -14.508 -62.086 1465.38
vn 0.437688 -0.746302 -0.50146
v -14.3416 -63.2282 1459.68
vn 0.808256 -0.570243 0.146787
v -14.2512 -63.088 1459.86
vn 0.672631 -0.733731 -0.0959485
v -15.3579 -61.8271 1457.8
vn 0.425374 -0.722623 -0.544861
v -15.3228 -61.6544 1457.07
vn 0.593264 -0.789385 -0.157825
v -15.0968 -61.5857 1457.33
vn 0.170007 -0.669173 -0.723399
v -14.8273 -61.8642 1457.83
vn 0.247309 0.344614 0.905582
v -15.7702 -59.5022 1465.7
vn 0.445089 0.200715 0.872702
v -15.362 -59.5456 1465.55
vn 0.00416668 -0.472411 -0.881368
v -15.2779 -60.291 1455.99
vn 0.501394 0.119477 0.85693
v -15.6256 -58.1296 1464.66
vn -0.142633 0.715973 0.683402
v -15.7306 -57.9114 1464.7
vn -0.343809 0.804309 0.484646
v -14.6294 -58.3685 1464.57
vn -0.463348 0.870362 0.166668
v -15.6704 -55.115 1460.51
vn -0.430308 0.856901 0.283822
v -15.8149 -55.4478 1462.05
vn -0.688996 0.485825 -0.537829
v -14.1712 -54.5464 1455.04
vn 0.670949 -0.724089 0.159755
v -13.8839 -62.0877 1464.38
vn 0.752808 -0.652617 -0.0858532
v -13.9148 -62.6465 1459.55
vn 0.538919 -0.775552 -0.328764
v -13.657 -62.8724 1460.25
vn 0.319059 -0.731591 -0.602475
v -13.6596 -62.6861 1459.99
vn 0.743196 -0.65471 0.137892
v -12.9395 -62.114 1461.52
vn 0.712818 -0.355689 0.604463
v -13.2425 -61.9885 1463.55
vn 0.725996 -0.684647 0.0647237
v -12.9792 -61.8039 1462.27
vn 0.743627 -0.503834 0.439511
v -13.6623 -61.9265 1463.93
vn 0.621584 -0.681021 0.387096
v -13.2483 -61.5694 1464.27
vn 0.738538 -0.664594 0.113472
v -12.8471 -61.0722 1463.53
vn 0.357673 -0.700604 -0.617433
v -13.5855 -61.7243 1458.38
vn 0.37771 -0.757243 -0.53284
v -13.5665 -61.2166 1457.93
vn 0.482846 -0.739834 -0.468513
v -12.8929 -59.4513 1456.24
vn 0.436864 -0.783974 -0.44106
v -12.9932 -60.6067 1457.17
vn -0.119338 0.706095 0.697988
v -14.091 -57.7195 1463.92
vn -0.0912769 0.789789 0.606549
v -13.8955 -57.7355 1464.02
vn 0.0433347 0.716358 0.696386
v -13.9039 -57.8519 1464.2
vn 0.152152 0.71955 0.677567
v -13.6959 -57.7585 1464.04
vn 0.0885236 0.621707 0.778231
v -13.6835 -57.4501 1463.74
vn 0.338275 0.356636 0.870851
v -13.6711 -56.8245 1463.41
vn -0.0481486 0.715329 0.697127
v -13.9923 -54.8292 1461.56
vn 0.0981201 0.635953 0.765465
v -13.4484 -55.7445 1462.82
vn -0.153534 0.772589 0.616063
v -13.3567 -54.0664 1460.76
vn -0.583145 0.205618 -0.785916
v -12.5987 -54.7586 1453.72
vn -0.672249 0.709258 -0.212214
v -12.9583 -53.0115 1456.13
vn 0.80762 -0.511057 0.294228
v -12.3905 -61.2843 1461.54
vn 0.54233 -0.750113 -0.37843
v -12.365 -60.76 1457.87
vn 0.517627 -0.738334 -0.432348
v -12.202 -60.8377 1458.62
vn 0.531642 0.168465 0.830046
v -12.6729 -59.6135 1463.85
vn 0.410605 0.323864 0.852359
v -12.2594 -59.4845 1463.58
vn 0.801593 -0.321707 0.503939
v -11.5496 -59.5937 1463.2
vn 0.571296 0.245345 0.783216
v -11.6446 -59.3623 1463.28
vn 0.0319261 -0.554361 -0.831664
v -12.2997 -59.3763 1456.38
vn 0.422481 -0.725563 -0.543202
v -12.1007 -59.5711 1456.43
vn 0.691873 -0.707474 -0.144194
v -11.7614 -60.1242 1457.72
vn 0.528053 0.33263 0.781356
v -11.6285 -58.6473 1462.86
vn 0.384584 0.423043 0.820445
v -12.2567 -57.5 1463.25
vn 0.0205518 -0.566021 -0.824135
v -11.6664 -58.1524 1455.56
vn -0.121871 -0.482495 -0.867379
v -11.0564 -58.0048 1455.36
vn -0.069547 0.716711 0.693894
v -12.5945 -54.6288 1461.61
vn -0.193271 -0.326864 -0.925098
v -11.585 -55.6014 1453.59
vn -0.298219 0.806505 0.510505
v -12.1273 -53.4947 1460.46
vn 0.405607 0.470916 0.783403
v -11.3642 -54.1883 1460.98
vn -0.47532 0.11445 -0.872337
v -11.158 -54.5242 1452.92
vn -0.313242 0.881118 0.354274
v -11.0734 -52.094 1458.89
vn -0.331656 0.793025 0.510995
v -11.5398 -53.1168 1460.34
vn -0.532281 0.145337 -0.833999
v -10.7703 -52.8603 1452.94
vn -0.65365 0.715058 -0.247861
v -11.6361 -52.4476 1454.18
vn -0.537273 0.838766 0.0883717
v -11.4532 -51.7035 1455.65
vn -0.569677 0.81773 -0.0823766
v -11.1373 -51.4209 1455.17
vn 0.795275 -0.579274 0.178826
v -10.5954 -59.6759 1461.4
vn 0.803697 -0.262387 0.534065
v -10.5535 -59.2416 1461.47
vn 0.64254 -0.733689 -0.221004
v -10.295 -59.1495 1460.3
vn 0.823417 -0.403811 0.398649
v -10.2694 -58.9242 1459.76
vn 0.8445 -0.101318 0.525885
v -10.8488 -59.0282 1462.25
vn 0.824988 -0.527331 0.203264
v -10.3591 -58.3791 1461.47
vn 0.643182 0.0863153 0.760833
v -10.2323 -58.1648 1461.63
vn 0.213444 -0.655648 -0.72427
v -10.0988 -58.2525 1456.26
vn 0.760894 -0.644179 -0.0779365
v -9.44294 -57.9326 1459.11
vn 0.5094 0.222642 0.831229
v -9.96193 -57.3385 1461.62
vn 0.725833 -0.68616 -0.048477
v -9.68297 -57.6877 1461.11
vn 0.741624 -0.636542 0.211681
v -9.4426 -57.4404 1461.26
vn 0.424675 -0.716127 -0.553907
v -9.92585 -57.3767 1455.41
vn 0.351573 -0.680486 -0.642911
v -9.46857 -57.341 1455.55
vn 0.527391 0.313188 0.789793
v -10.7974 -56.0123 1461.9
vn 0.557021 0.309634 0.770619
v -9.49923 -56.0903 1460.89
vn 0.31572 -0.681788 -0.659914
v -9.99985 -55.9389 1453.97
vn 0.00800129 -0.585888 -0.810353
v -9.81264 -56.2524 1454.28
vn -0.0612071 -0.520931 -0.851402
v -9.20696 -56.2655 1454.18
vn 0.318074 0.553675 0.769592
v -9.90883 -54.0792 1459.89
vn 0.0275479 -0.505407 -0.862441
v -9.34066 -54.0154 1452.55
vn 0.461866 0.361383 0.809989
v -10.3025 -52.5135 1459.54
vn -0.448045 0.121795 -0.885676
v -10.15 -53.2452 1452.61
vn -0.365986 0.891038 0.268526
v -9.73882 -51.1748 1456.11
vn -0.131259 0.929753 0.343993
v -9.462 -51.5267 1458.62
vn -0.609243 0.271781 -0.744955
v -9.91731 -51.4665 1452.76
vn -0.414356 0.894524 0.167739
v -9.88977 -50.8517 1455.08
vn 0.799237 -0.595561 0.080794
v -9.21264 -58.0163 1458.53
vn 0.834646 -0.391828 0.387088
v -9.22102 -57.739 1458.66
vn 0.848412 -0.523033 0.0814517
v -9.33207 -57.2682 1460.81
vn 0.87259 -0.194421 0.448092
v -8.79462 -57.0861 1459.54
vn 0.924066 -0.301286 0.235222
v -9.32105 -57.1064 1460.97
vn 0.510408 -0.791141 -0.337017
v -9.03591 -56.4632 1454.79
vn 0.434818 -0.728952 -0.528736
v -8.84784 -56.4504 1455.03
vn 0.536292 -0.708106 -0.459322
v -8.65803 -56.5851 1455.26
vn 0.855266 -0.301968 0.421112
v -8.60123 -57.068 1458.09
vn 0.86115 -0.368353 0.350337
v -8.74693 -56.9635 1458.47
vn 0.78835 -0.611658 -0.0661754
v -8.41932 -56.7484 1458.51
vn 0.881263 -0.296899 0.367732
v -8.38207 -56.2241 1458.91
vn 0.860027 -0.419005 0.291185
v -8.66503 -56.4592 1459.37
vn 0.584115 -0.741219 -0.330763
v -8.20051 -55.6997 1454
vn 0.644889 -0.716706 -0.265424
v -7.54408 -55.3437 1454.56
vn 0.875489 -0.325221 0.357421
v -7.81154 -55.6774 1457.13
vn 0.858735 -0.49184 0.143766
v -7.61361 -55.7815 1456.75
vn -0.0361436 -0.41395 -0.909582
v -8.92656 -53.09 1452.15
vn 0.646047 0.191007 0.739013
v -8.09155 -50.8728 1457.26
vn 0.623447 0.251541 0.740298
v -7.99456 -51.2814 1457.28
vn -0.0871093 0.917315 0.388517
v -9.23983 -51.3887 1458.17
vn 0.102227 0.845135 0.524686
v -8.96398 -51.4396 1458.19
vn -0.0903069 0.846322 0.524961
v -8.82871 -51.2038 1457.93
vn -0.335266 -0.221845 -0.915632
v -7.54766 -51.6265 1451.47
vn -0.5939 0.760079 -0.263749
v -8.67854 -49.9314 1453.85
vn 0.803123 -0.591599 0.0707397
v -7.13062 -54.7531 1456.5
vn 0.842644 -0.489689 0.223954
v -6.94582 -54.7248 1456.08
vn 0.837631 -0.504664 0.209018
v -7.03419 -54.4438 1457.87
vn 0.0689445 -0.574161 -0.815835
v -7.12183 -52.7149 1452.05
vn 0.167042 -0.621682 -0.765251
v -6.32849 -52.6798 1452.2
vn 0.207396 0.635177 0.744001
v -7.18971 -52.1644 1457.86
vn -0.0902692 0.783468 0.614841
v -6.98046 -51.3882 1457.04
vn 0.735811 0.0892189 0.671284
v -6.08023 -51.1227 1456.39
vn 0.280919 0.570359 0.771864
v -6.31578 -50.2961 1455.61
vn -0.218455 0.886396 0.408141
v -7.56869 -50.218 1456.63
vn -0.039297 0.743121 0.668002
v -6.55401 -50.8948 1456.45
vn -0.398552 -0.234666 -0.886616
v -6.25848 -49.7687 1450.41
vn -0.621594 0.281216 -0.731122
v -6.25735 -49.603 1450.36
vn -0.512387 0.477641 -0.713666
v -5.85623 -49.3631 1450.32
vn -0.467932 0.846157 -0.255067
v -5.86565 -49.223 1450.48
vn -0.547173 0.808209 -0.217713
v -6.30753 -49.3527 1451.33
vn -0.585492 0.752869 -0.300644
v -6.13639 -48.9828 1451.86
vn -0.213889 0.885412 0.412671
v -6.34296 -49.1965 1453.57
vn -0.653723 0.579038 -0.487197
v -6.97043 -49.5159 1454.66
vn -0.41425 0.890602 0.187684
v -6.88327 -49.3254 1454.82
vn -0.67967 0.484037 -0.551142
v -6.65388 -49.5423 1454.27
vn 0.704814 0.116284 0.699797
v -6.37656 -49.5466 1455.32
vn 0.569877 0.281888 0.771867
v -6.09118 -49.6258 1455.04
vn 0.600649 0.197176 0.774818
v -5.95751 -49.2633 1454.85
vn 0.830684 -0.547309 -0.102064
v -4.43173 -51.94 1454.21
vn 0.839513 -0.492639 -0.229184
v -5.28919 -51.487 1451.28
vn -0.371055 0.848715 0.37683
v -5.92191 -50.2248 1455.74
vn 0.692966 0.139479 0.70735
v -4.28902 -51.3922 1454.69
vn -0.446431 0.841267 0.304907
v -5.73238 -50.2007 1455.95
vn -0.476274 0.0118156 -0.879217
v -5.4376 -49.5968 1449.99
vn -0.150068 -0.519882 -0.840954
v -4.82028 -49.8502 1449.69
vn 0.878819 -0.460401 -0.125331
v -4.71551 -49.8014 1449.87
vn 0.910101 -0.391971 -0.134445
v -4.59328 -49.2912 1450.98
vn -0.691632 0.542907 -0.476338
v -5.63813 -48.5667 1453.85
vn -0.348391 0.876043 0.333424
v -4.65391 -49.1609 1454.27
vn -0.379031 0.923881 -0.0527106
v -5.46542 -49.1118 1450.47
vn -0.41836 0.558967 -0.715913
v -4.67562 -48.7837 1449.8
vn 0.939208 -0.311725 -0.143932
v -4.55928 -49.4672 1449.58
vn -0.468512 0.173483 -0.866257
v -4.61123 -49.2981 1449.44
vn -0.223266 0.927596 -0.299529
v -4.43296 -48.7263 1449.8
vn 0.907944 -0.411427 -0.0797876
v -4.38315 -48.6763 1450.2
vn -0.398362 0.888787 -0.226639
v -4.4529 -48.6079 1450.18
vn -0.358758 0.619128 -0.698551
v -4.16305 -48.2362 1450.3
vn -0.441147 0.486517 -0.754116
v -5.08102 -48.3316 1450.69
vn 0.424092 0.44065 0.791185
v -5.16735 -48.2777 1452.4
vn -0.313448 0.878979 0.359369
v -5.16233 -48.0307 1452.27
vn -0.596413 0.562124 -0.572982
v -5.08727 -47.9609 1452.05
vn -0.707325 0.455692 -0.540404
v -4.89434 -48.3274 1452.99
vn 0.71997 0.100038 0.686757
v -3.80188 -49.3721 1453.75
vn -0.338848 0.910313 0.237725
v -4.07969 -47.8965 1450.63
vn 0.8416 -0.494601 -0.216976
v -3.81348 -48.3033 1451.59
vn -0.289343 0.903916 0.314986
v -3.79836 -47.8826 1450.85
vn -0.599235 0.492131 -0.631447
v -3.89974 -47.7537 1451.02
vn -0.0839851 0.907942 0.410594
v -3.72263 -48.0261 1451.51
vn -0.593619 0.77867 -0.203195
v -3.7428 -47.9396 1451.9
vn 0.878716 -0.462915 -0.116484
v -3.60065 -47.8285 1451.05
vn 0.293258 0.903846 0.311548
v -3.70779 -47.791 1451.19
vn 0.756876 -0.536846 -0.372741
v -3.4261 -48.0023 1451.94
vn 0.77315 -0.588879 -0.235501
v -3.54277 -48.2835 1452.42
vn 0.53665 0.622933 0.569176
v -3.55324 -47.9097 1452.11
vn -0.676406 -0.03857 -0.735519
v -40.7171 -82.1675 1476.98
vn -0.783648 -0.487975 -0.384416
v -40.7171 -82.1675 1476.98
vn -0.84384 0.0510805 0.534158
v -40.8303 -81.7759 1477.28
vn -0.440499 -0.214661 0.871712
v -40.8303 -81.7759 1477.28
vn -0.846963 0.114183 0.519246
v -40.8642 -81.4843 1477.2
vn -0.855904 0.37165 -0.359588
v -40.8642 -81.4843 1477.2
vn -0.497909 -0.178951 0.848566
v -40.7346 -81.4307 1477.4
vn -0.694066 -0.600297 0.397387
v -40.626 -81.1145 1477.11
vn -0.687346 -0.250429 -0.681792
v -40.741 -80.3606 1477.53
vn -0.865299 0.479259 -0.14686
v -40.741 -80.3606 1477.53
vn -0.860376 0.399414 -0.316577
v -40.6466 -80.7458 1477.64
vn -0.972698 -0.230473 0.0272155
v -40.6466 -80.7458 1477.64
vn -0.679197 -0.350662 -0.64477
v -40.6466 -80.7458 1477.64
vn -0.705685 -0.651575 0.278315
v -40.6644 -80.6495 1477.82
vn -0.160707 -0.851011 0.499954
v -40.6644 -80.6495 1477.82
vn -0.170674 -0.499241 0.849488
v -40.6644 -80.6495 1477.82
vn -0.453601 -0.708945 0.54004
v -40.5679 -80.0431 1478.69
vn -0.331324 -0.333474 0.882621
v -40.5679 -80.0431 1478.69
vn -0.384888 0.43342 0.814867
v -40.5679 -80.0431 1478.69
vn -0.833796 0.551523 -0.024637
v -40.5679 -80.0431 1478.69
vn -0.499616 0.72988 0.466539
v -40.5679 -80.0431 1478.69
vn -0.595606 -0.196284 -0.778926
v -38.9744 -84.1661 1476.54
vn -0.482425 -0.452304 -0.750124
v -38.8567 -83.769 1476.48
vn -0.760181 -0.244552 -0.60193
v -40.0281 -83.4258 1476.95
vn -0.624425 -0.424995 -0.655342
v -39.8331 -83.8631 1476.87
vn -0.877069 -0.429591 0.214946
v -39.8331 -83.8631 1476.87
vn -0.211718 -0.579189 0.78722
v -39.8331 -83.8631 1476.87
vn -0.833611 -0.502244 0.229878
v -40.0097 -83.3809 1477.11
vn -0.0307384 -0.732093 -0.680511
v -39.5058 -83.9136 1476.69
vn -0.689792 0.0936576 -0.717924
v -39.1886 -83.8913 1476.78
vn -0.515094 -0.433525 -0.739415
v -39.1886 -83.8913 1476.78
vn 0.216995 -0.791458 -0.571409
v -39.1886 -83.8913 1476.78
vn -0.381793 -0.807408 0.449807
v -38.9956 -83.9373 1476.93
vn 0.112873 -0.514437 0.850067
v -38.9956 -83.9373 1476.93
vn 0.2037 -0.83329 -0.51394
v -38.9956 -83.9373 1476.93
vn -0.313787 -0.263056 0.912326
v -40.4171 -82.797 1477.17
vn -0.783993 -0.571185 0.243111
v -40.4171 -82.797 1477.17
vn -0.781209 -0.377581 -0.497136
v -40.4171 -82.797 1477.17
vn -0.846517 0.176804 0.502145
v -40.4562 -80.9267 1477.69
vn -0.831754 0.551311 0.0651295
v -40.4562 -80.9267 1477.69
vn -0.701362 -0.627266 0.338569
v -40.4562 -80.9267 1477.69
vn -0.67737 -0.28575 0.677877
v -40.3139 -79.8349 1478.7
vn -0.490788 0.737953 0.463198
v -40.3139 -79.8349 1478.7
vn -0.4802 -0.736414 0.476552
v -39.914 -80.1667 1478.76
vn -0.155702 -0.569189 0.80733
v -40.1533 -79.879 1479.5
vn -0.670408 -0.171114 -0.721993
v -40.1533 -79.879 1479.5
vn -0.877177 0.477727 -0.0483489
v -40.1533 -79.879 1479.5
vn -0.574848 0.482265 0.661037
v -40.1533 -79.879 1479.5
vn -0.384888 0.43342 0.814867
v -40.0392 -79.9867 1478.91
vn -0.592049 -0.521007 0.614841
v -40.0392 -79.9867 1478.91
vn -0.815886 -0.123082 -0.564961
v -39.9435 -79.9303 1479.32
vn -0.800446 -0.00824647 -0.599348
v -39.8597 -79.9328 1479.12
vn -0.569242 -0.790465 -0.226117
v -39.8597 -79.9328 1479.12
vn -0.363916 0.733212 0.574426
v -39.8597 -79.9328 1479.12
vn -0.93228 0.356197 -0.0630633
v -39.8597 -79.9328 1479.12
vn -0.52985 0.591357 0.607911
v -39.9511 -79.5167 1479.41
vn -0.796121 0.604574 -0.0261248
v -39.9274 -79.4946 1479.2
vn -0.656647 0.558026 -0.507368
v -39.9274 -79.4946 1479.2
vn -0.533935 -0.626853 0.567423
v -39.7341 -80.0329 1479.15
vn -0.52985 0.591357 0.607911
v -39.3753 -79.512 1479.91
vn 0.191004 0.464874 0.864529
v -39.3753 -79.512 1479.91
vn -0.812501 0.292437 -0.504304
v -39.2939 -78.5269 1476.68
vn -0.727231 0.621368 0.29161
v -39.2939 -78.5269 1476.68
vn -0.800346 0.580094 0.151451
v -39.628 -79.3524 1478.97
vn -0.656647 0.558026 -0.507368
v -39.628 -79.3524 1478.97
vn -0.825785 0.54078 0.160114
v -39.0555 -78.1424 1477.34
vn -0.422093 -0.596412 -0.682738
v -38.5678 -84.3428 1476.44
vn 0.351853 -0.936035 0.00616036
v -38.5678 -84.3428 1476.44
vn 0.314227 -0.64145 0.69986
v -38.5678 -84.3428 1476.44
vn 0.351853 -0.936035 0.00616036
v -38.3351 -84.2567 1476.22
vn 0.135996 -0.701253 -0.699821
v -38.3351 -84.2567 1476.22
vn -0.438145 -0.442531 -0.782429
v -37.7257 -83.2223 1475.47
vn -0.00592351 -0.488737 -0.872411
v -37.7257 -83.2223 1475.47
vn 0.162907 0.392562 0.905183
v -37.7609 -79.7874 1479.7
vn 0.649679 -0.186336 0.737018
v -37.7609 -79.7874 1479.7
vn -0.656647 0.558026 -0.507368
v -38.3309 -77.9461 1478.84
vn -0.696631 0.717422 -0.00329583
v -38.3309 -77.9461 1478.84
vn -0.426765 0.65664 0.621848
v -38.3309 -77.9461 1478.84
vn -0.655874 -0.185375 -0.731755
v -37.6565 -78.5555 1473.46
vn -0.381954 0.718223 0.581606
v -38.827 -77.4928 1476.69
vn -0.749 0.594128 0.293277
v -38.827 -77.4928 1476.69
vn 0.644457 -0.467376 0.605173
v -36.7655 -83.6672 1476.14
vn 0.347846 -0.785658 -0.511611
v -36.7655 -83.6672 1476.14
vn 0.781583 -0.623792 0.00344628
v -36.7655 -83.6672 1476.14
vn 0.285173 -0.946364 -0.151895
v -36.3716 -82.9607 1476.39
vn 0.185584 -0.727346 -0.660701
v -35.9713 -82.838 1476.37
vn 0.700996 -0.512388 0.496048
v -35.9713 -82.838 1476.37
vn 0.767896 -0.639898 0.0294369
v -35.8461 -82.5214 1475.05
vn 0.775234 -0.451141 0.442135
v -35.9368 -82.3545 1475.62
vn 0.285173 -0.946364 -0.151895
v -36.5824 -83.0601 1476.61
vn 0.62427 -0.772158 0.118574
v -36.0467 -82.2411 1476.83
vn 0.679443 -0.73368 0.00847207
v -35.2931 -81.9147 1474.7
vn 0.659403 -0.748484 0.0704237
v -34.9224 -81.5742 1475.25
vn 0.749949 -0.591343 0.296464
v -34.9224 -81.5742 1475.25
vn 0.170511 -0.824637 -0.539352
v -34.098 -80.8885 1474.69
vn 0.23133 -0.79126 -0.566033
v -33.14 -80.171 1473.09
vn 0.154554 -0.780432 -0.605837
v -32.4517 -79.871 1473.67
vn 0.586968 -0.787394 -0.188357
v -32.4517 -79.871 1473.67
vn 0.748205 -0.526022 0.404339
v -32.6926 -79.8262 1474.48
vn 0.659762 -0.751464 -0.00387099
v -31.9551 -79.0234 1472.01
vn 0.563452 -0.094459 0.820731
v -31.9941 -75.0666 1475.87
vn 0.00907857 0.565698 0.824562
v -31.1149 -69.0863 1473.5
vn -0.7415 0.517644 -0.426875
v -30.6747 -67.3801 1468.48
vn -0.0263657 0.505852 0.862217
v -30.6008 -71.189 1474.92
vn -0.574637 0.772823 0.269325
v -30.1036 -68.8294 1473.27
vn -0.759655 0.418397 -0.497863
v -29.4559 -65.9293 1467.94
vn -0.0356966 0.665718 0.745349
v -29.9212 -66.5059 1469.31
vn 0.486229 -0.819434 -0.303493
v -28.6962 -76.1264 1468.28
vn 0.598051 -0.771755 -0.21617
v -27.9705 -75.5594 1469.61
vn -0.417053 -0.224212 -0.880793
v -27.2544 -69.2431 1463.15
vn -0.149369 -0.39203 -0.907745
v -27.2544 -69.2431 1463.15
vn -0.550675 0.807979 0.20959
v -28.5914 -65.233 1467.17
vn -0.714472 0.68442 -0.145254
v -28.5914 -65.233 1467.17
vn -0.61071 0.776883 0.15325
v -28.0436 -65.3515 1468.27
vn 0.667568 -0.74161 -0.0660871
v -25.7108 -73.3703 1467.05
vn 0.713323 -0.436136 0.548594
v -26.0231 -71.4466 1472.12
vn -0.0740538 0.498878 0.863503
v -27.2988 -70.1699 1473.42
vn -0.0967605 0.583727 0.806164
v -27.0893 -69.6201 1473.16
vn 0.290509 0.185332 0.938753
v -27.0893 -69.6201 1473.16
vn 0.127224 0.370273 0.920169
v -26.2884 -69.6246 1473.17
vn 0.00406914 0.670299 0.74208
v -25.7743 -62.8799 1465.99
vn 0.722727 -0.634912 0.273044
v -25.1639 -72.8873 1467.16
vn 0.751967 -0.323491 0.574368
v -24.7296 -72.3467 1466.41
vn 0.65505 -0.160715 0.738295
v -24.3802 -72.1509 1467
vn 0.299104 0.384584 0.873288
v -25.551 -64.3499 1469.72
vn -0.305169 0.77755 0.549808
v -25.6514 -63.0276 1467.55
vn -0.706157 0.69555 -0.132485
v -24.9301 -61.8738 1464.99
vn -0.575284 0.798386 0.177844
v -24.2592 -62.3741 1467.65
vn -0.727115 0.386943 -0.567079
v -24.2681 -62.1695 1467.81
vn -0.15492 0.808252 0.568092
v -24.2681 -62.1695 1467.81
vn -0.633814 0.759433 -0.146769
v -24.2681 -62.1695 1467.81
vn 0.444241 -0.816233 -0.369343
v -23.0522 -71.3443 1464.77
vn 0.802722 -0.477574 0.357155
v -22.4174 -70.6993 1464
vn 0.693166 -0.704783 0.151002
v -23.4859 -71.2856 1466.39
vn 0.552927 -0.660238 0.508288
v -23.4859 -71.2856 1466.39
vn 0.65505 -0.160715 0.738295
v -22.9964 -71.1948 1465.98
vn 0.684108 -0.66076 0.308856
v -22.9964 -71.1948 1465.98
vn 0.683909 -0.599336 0.416011
v -22.9964 -71.1948 1465.98
vn 0.607917 -0.304084 0.733464
v -23.7333 -70.8655 1467.93
vn 0.691967 -0.340737 0.636459
v -23.224 -70.6691 1468.11
vn 0.334991 -0.911317 0.239338
v -23.224 -70.6691 1468.11
vn 0.795513 -0.557796 -0.236691
v -23.224 -70.6691 1468.11
vn 0.717462 -0.300886 0.628264
v -23.022 -70.3484 1468.03
vn 0.602168 0.0166829 0.798195
v -23.121 -69.505 1469.89
vn 0.663271 -0.303629 0.684018
v -23.121 -69.505 1469.89
vn 0.491369 -0.870855 0.0129437
v -23.787 -68.7908 1471.09
vn 0.522072 0.00191816 0.8529
v -23.8137 -68.4177 1471.58
vn 0.629273 -0.258303 0.733004
v -23.2178 -67.1159 1471.5
vn -0.554713 0.827926 -0.0826569
v -23.1314 -61.3719 1467.02
vn -0.0486369 0.711665 0.700834
v -23.113 -61.319 1467.22
vn -0.102614 0.965351 0.239932
v -23.113 -61.319 1467.22
vn -0.718561 0.256577 -0.646404
v -23.4992 -60.7801 1463.11
vn -0.386699 0.876713 0.286075
v -22.4533 -61.0869 1466.57
vn 0.45541 -0.750851 -0.478356
v -20.9775 -69.3111 1463.06
vn 0.699208 -0.111673 0.706143
v -20.9775 -69.3111 1463.06
vn 0.924189 -0.307361 0.226725
v -20.9775 -69.3111 1463.06
vn 0.595099 -0.791577 0.138791
v -21.8998 -67.8378 1469.27
vn 0.514607 -0.854465 -0.0711958
v -22.3561 -68.0304 1470.75
vn 0.564747 -0.0459312 0.823985
v -22.3561 -68.0304 1470.75
vn 0.547603 -0.78703 -0.284105
v -21.7033 -67.9024 1461.36
vn 0.3688 -0.786762 -0.494966
v -20.6752 -68.5319 1462.88
vn 0.84574 -0.522987 0.105866
v -20.6752 -68.5319 1462.88
vn -0.374121 0.815473 0.441631
v -22.3422 -60.1017 1465.06
vn 0.84574 -0.522987 0.105866
v -20.331 -68.1563 1461.99
vn 0.382619 -0.70859 -0.592876
v -19.5359 -67.3535 1461.99
vn -0.745919 0.584423 -0.319459
v -19.8581 -57.9729 1463.15
vn 0.746388 -0.456885 0.483901
v -18.8491 -67.6423 1463.15
vn 0.74431 -0.463447 0.480854
v -18.8089 -67.2547 1463.46
vn 0.653745 -0.751626 0.0876154
v -17.752 -65.1933 1466.06
vn 0.608326 -0.771204 -0.187574
v -18.6493 -65.1763 1459.99
vn -0.0852339 -0.493128 -0.865771
v -18.6493 -65.1763 1459.99
vn 0.195406 0.502583 0.842156
v -19.2531 -61.6658 1467.56
vn 0.575156 0.0980712 0.812144
v -19.2531 -61.6658 1467.56
vn -0.544149 0.809904 0.218994
v -17.9526 -59.1952 1465.25
vn 0.622988 -0.778205 -0.0792669
v -17.3509 -66.1008 1462.18
vn 0.673624 -0.526882 0.518292
v -17.2936 -65.6786 1464.97
vn 0.420537 -0.769644 -0.480413
v -16.6977 -65.5324 1461.06
vn 0.601107 -0.639395 -0.47942
v -16.6977 -65.5324 1461.06
vn 0.553818 -0.794526 -0.249028
v -17.007 -65.9641 1461.75
vn 0.619562 -0.741196 -0.258401
v -16.3902 -63.0989 1458.59
vn 0.741983 -0.670409 0.00370714
v -16.3321 -62.8919 1457.83
vn 0.601107 -0.639395 -0.47942
v -16.1516 -63.1183 1458.52
vn 0.550116 0.0987264 0.829232
v -16.9712 -59.0974 1465.64
vn 0.459933 0.192096 0.866926
v -16.7631 -59.7398 1465.57
vn 0.789255 -0.515835 0.333153
v -15.491 -64.5762 1460.82
vn 0.640245 -0.701294 -0.313485
v -14.8111 -63.652 1460.4
vn 0.384011 -0.73553 -0.55815
v -14.4838 -63.2639 1460.31
vn 0.554765 -0.77855 -0.293421
v -15.2991 -64.2085 1460.94
vn 0.483007 -0.0294287 0.875122
v -14.508 -62.086 1465.38
vn 0.585022 0.00981976 0.810958
v -14.508 -62.086 1465.38
vn 0.666309 -0.652578 0.360797
v -14.508 -62.086 1465.38
vn 0.788013 -0.610811 0.0771076
v -14.3416 -63.2282 1459.68
vn -0.272635 -0.339212 -0.900336
v -15.3579 -61.8271 1457.8
vn 0.601107 -0.639395 -0.47942
v -15.3579 -61.8271 1457.8
vn 0.0943491 -0.635267 -0.766508
v -15.3579 -61.8271 1457.8
vn -0.395556 0.81729 0.419014
v -15.7702 -59.5022 1465.7
vn 0.453858 0.20564 0.867021
v -15.7306 -57.9114 1464.7
vn -0.61443 0.787172 0.0532489
v -15.8149 -55.4478 1462.05
vn -0.0778718 0.749531 0.657373
v -15.8149 -55.4478 1462.05
vn 0.677622 -0.725492 -0.120375
v -13.2483 -61.5694 1464.27
vn 0.695742 -0.227794 0.681215
v -13.2483 -61.5694 1464.27
vn -0.419267 0.903147 0.0924202
v -13.3567 -54.0664 1460.76
vn -0.133701 -0.475194 -0.869663
v -12.1007 -59.5711 1456.43
vn 0.675723 -0.438455 0.592583
v -11.6285 -58.6473 1462.86
vn 0.715486 -0.0590704 0.696126
v -11.6285 -58.6473 1462.86
vn 0.469105 0.213941 0.856837
v -11.6285 -58.6473 1462.86
vn -0.0390449 -0.468021 -0.882854
v -11.158 -54.5242 1452.92
vn 0.276796 0.509041 0.815022
v -11.5398 -53.1168 1460.34
vn 0.694132 -0.704514 -0.147789
v -10.2694 -58.9242 1459.76
vn 0.764341 -0.555541 0.327349
v -10.2323 -58.1648 1461.63
vn 0.548952 -0.74595 -0.377107
v -10.0988 -58.2525 1456.26
vn 0.669094 0.15769 0.726255
v -9.4426 -57.4404 1461.26
vn 0.964064 -0.218615 0.150957
v -9.4426 -57.4404 1461.26
vn 0.665034 0.198684 0.719899
v -9.49923 -56.0903 1460.89
vn 0.504555 -0.7819 -0.366137
v -9.20696 -56.2655 1454.18
vn -0.622236 0.609929 -0.490723
v -9.73882 -51.1748 1456.11
vn 0.456416 0.36756 0.810299
v -9.462 -51.5267 1458.62
vn -0.605488 0.743524 -0.283823
v -9.91731 -51.4665 1452.76
vn 0.763244 0.138607 0.631069
v -9.32105 -57.1064 1460.97
vn 0.635932 -0.704668 -0.314694
v -8.74693 -56.9635 1458.47
vn 0.170996 -0.574898 -0.800158
v -8.20051 -55.6997 1454
vn 0.634402 0.234739 0.736499
v -8.96398 -51.4396 1458.19
vn 0.594799 0.302758 0.744682
v -8.82871 -51.2038 1457.93
vn -0.282403 0.878125 0.386193
v -8.67854 -49.9314 1453.85
vn -0.599235 0.492131 -0.631447
v -8.67854 -49.9314 1453.85
vn 0.739144 0.0855791 0.668088
v -7.03419 -54.4438 1457.87
vn 0.632154 -0.696062 -0.34041
v -6.32849 -52.6798 1452.2
vn 0.802796 -0.0123598 0.596125
v -7.18971 -52.1644 1457.86
vn 0.335321 0.467814 0.817747
v -6.08023 -51.1227 1456.39
vn -0.270482 0.834724 0.479662
v -6.31578 -50.2961 1455.61
vn 0.675838 0.155795 0.720396
v -7.56869 -50.218 1456.63
vn 0.206264 0.772043 0.60117
v -7.56869 -50.218 1456.63
vn -0.362935 -0.261914 -0.894248
v -6.25735 -49.603 1450.36
vn -0.531787 0.696888 -0.481197
v -6.25735 -49.603 1450.36
vn -0.568541 0.182314 -0.802198
v -6.30753 -49.3527 1451.33
vn -0.338848 0.910313 0.237725
v -6.13639 -48.9828 1451.86
vn 0.426036 0.448278 0.785837
v -6.34296 -49.1965 1453.57
vn -0.649923 0.640755 -0.408696
v -6.88327 -49.3254 1454.82
vn -0.187461 0.911376 0.366404
v -6.65388 -49.5423 1454.27
vn -0.593619 0.77867 -0.203195
v -6.65388 -49.5423 1454.27
vn 0.220716 0.776179 0.590619
v -5.95751 -49.2633 1454.85
vn 0.176932 -0.699609 -0.692273
v -5.28919 -51.487 1451.28
vn 0.923313 -0.359347 0.135512
v -4.28902 -51.3922 1454.69
vn 0.279055 0.32706 0.902862
v -5.73238 -50.2007 1455.95
vn 0.744133 0.038628 0.666914
v -5.73238 -50.2007 1455.95
vn 0.535521 0.520246 0.665253
v -5.73238 -50.2007 1455.95
vn 0.772782 -0.562009 -0.294881
v -4.82028 -49.8502 1449.69
vn 0.420588 -0.502341 -0.755486
v -4.82028 -49.8502 1449.69
vn -0.285723 0.897992 0.334622
v -5.63813 -48.5667 1453.85
vn 0.236375 0.761549 0.603465
v -5.63813 -48.5667 1453.85
vn -0.285699 0.958121 0.0195152
v -5.63813 -48.5667 1453.85
vn 0.298994 0.460921 0.835556
v -4.65391 -49.1609 1454.27
vn 0.424276 0.653386 0.626958
v -4.65391 -49.1609 1454.27
vn -0.326554 0.940686 -0.0920448
v -4.67562 -48.7837 1449.8
vn 0.420588 -0.502341 -0.755486
v -4.55928 -49.4672 1449.58
vn 0.420588 -0.502341 -0.755486
v -4.61123 -49.2981 1449.44
vn 0.920507 -0.0419304 -0.38847
v -4.61123 -49.2981 1449.44
vn 0.967303 -0.211934 -0.139316
v -4.43296 -48.7263 1449.8
vn -0.142673 0.559542 -0.816429
v -4.43296 -48.7263 1449.8
vn 0.71739 0.675101 -0.172018
v -4.43296 -48.7263 1449.8
vn 0.71739 0.675101 -0.172018
v -4.38315 -48.6763 1450.2
vn 0.340548 0.0404707 -0.939356
v -4.38315 -48.6763 1450.2
vn -0.481518 0.367876 -0.795492
v -4.4529 -48.6079 1450.18
vn 0.71739 0.675101 -0.172018
v -4.4529 -48.6079 1450.18
vn 0.340548 0.0404707 -0.939356
v -4.4529 -48.6079 1450.18
vn 0.853035 -0.480021 -0.20472
v -4.16305 -48.2362 1450.3
vn 0.340548 0.0404707 -0.939356
v -4.16305 -48.2362 1450.3
vn 0.53881 0.495114 -0.681576
v -4.16305 -48.2362 1450.3
vn -0.692742 0.676994 -0.248572
v -5.08102 -48.3316 1450.69
vn -0.385486 0.909007 0.158452
v -5.08102 -48.3316 1450.69
vn 0.332249 0.67679 0.656937
v -5.16233 -48.0307 1452.27
vn 0.0471744 0.963001 0.265336
v -5.08727 -47.9609 1452.05
vn -0.422025 0.895949 0.138454
v -5.08727 -47.9609 1452.05
vn -0.265879 0.962601 0.0520415
v -4.89434 -48.3274 1452.99
vn 0.603186 0.524255 0.601101
v -3.80188 -49.3721 1453.75
vn 0.900216 -0.386192 -0.201166
v -3.80188 -49.3721 1453.75
vn -0.339663 0.694063 -0.634748
v -4.07969 -47.8965 1450.63
vn 0.502503 0.532213 -0.681352
v -4.07969 -47.8965 1450.63
vn -0.494172 0.838069 -0.231156
v -3.79836 -47.8826 1450.85
vn -0.597068 0.41804 -0.684655
v -3.79836 -47.8826 1450.85
vn 0.53881 0.495114 -0.681576
v -3.79836 -47.8826 1450.85
vn 0.266832 0.8346 -0.481916
v -3.79836 -47.8826 1450.85
vn 0.184054 0.975334 -0.12185
v -3.89974 -47.7537 1451.02
vn 0.47581 0.574343 0.666134
v -3.72263 -48.0261 1451.51
vn -0.593619 0.77867 -0.203195
v -3.72263 -48.0261 1451.51
vn 0.951454 -0.278016 0.132069
v -3.72263 -48.0261 1451.51
vn 0.766923 -0.383317 -0.514681
v -3.72263 -48.0261 1451.51
vn 0.210578 0.956668 -0.201107
v -3.72263 -48.0261 1451.51
vn -0.699742 0.370814 -0.610621
v -3.7428 -47.9396 1451.9
vn -0.245667 0.965665 0.0844913
v -3.7428 -47.9396 1451.9
vn 0.214084 0.940208 -0.264908
v -3.7428 -47.9396 1451.9
vn 0.723947 0.544628 0.423415
v -3.60065 -47.8285 1451.05
vn 0.573665 0.456681 -0.679964
v -3.60065 -47.8285 1451.05
vn 0.264706 0.921938 -0.282773
v -3.60065 -47.8285 1451.05
vn 0.214084 0.940208 -0.264908
v -3.4261 -48.0023 1451.94
vn 0.834998 0.365137 0.411647
v -3.4261 -48.0023 1451.94
vn 0.788341 0.405913 0.462334
v -3.54277 -48.2835 1452.42
vn -0.265879 0.962601 0.0520415
v -3.55324 -47.9097 1452.11
vn 0.216659 0.919655 -0.327557
v -3.55324 -47.9097 1452.11
f 4//4 1//1 2//2
f 546//546 5//5 548//548
f 2//2 1//1 21//21
f 547//547 579//579 3//3
f 550//550 547//547 3//3
f 3//3 27//27 550//550
f 549//549 24//24 544//544
f 5//5 582//582 548//548
f 6//6 24//24 549//549
f 6//6 549//549 583//583
f 23//23 544//544 24//24
f 8//8 551//551 584//584
f 6//6 26//26 24//24
f 6//6 554//554 26//26
f 555//555 9//9 7//7
f 7//7 9//9 10//10
f 584//584 557//557 8//8
f 556//556 552//552 26//26
f 17//17 20//20 15//15
f 11//11 572//572 568//568
f 572//572 11//11 50//50
f 19//19 12//12 576//576
f 13//13 565//565 573//573
f 574//574 50//50 566//566
f 579//579 16//16 22//22
f 569//569 571//571 14//14
f 571//571 580//580 14//14
f 11//11 568//568 567//567
f 16//16 570//570 18//18
f 18//18 22//22 16//16
f 570//570 577//577 18//18
f 577//577 22//22 18//18
f 572//572 575//575 578//578
f 575//575 572//572 50//50
f 544//544 23//23 11//11
f 11//11 581//581 545//545
f 27//27 579//579 22//22
f 27//27 3//3 579//579
f 581//581 11//11 567//567
f 22//22 52//52 27//27
f 24//24 26//26 25//25
f 558//558 28//28 560//560
f 561//561 28//28 32//32
f 29//29 562//562 592//592
f 558//558 30//30 28//28
f 28//28 30//30 32//32
f 593//593 35//35 585//585
f 558//558 85//85 30//30
f 27//27 52//52 85//85
f 85//85 559//559 27//27
f 85//85 38//38 30//30
f 31//31 33//33 34//34
f 39//39 588//588 34//34
f 595//595 594//594 37//37
f 37//37 594//594 589//589
f 600//600 590//590 36//36
f 591//591 603//603 599//599
f 35//35 593//593 602//602
f 602//602 593//593 587//587
f 596//596 38//38 33//33
f 33//33 38//38 34//34
f 37//37 43//43 595//595
f 599//599 603//603 57//57
f 38//38 85//85 34//34
f 39//39 34//34 53//53
f 61//61 24//24 25//25
f 23//23 58//58 55//55
f 26//26 552//552 45//45
f 563//563 40//40 553//553
f 59//59 25//25 26//26
f 563//563 42//42 40//40
f 553//553 40//40 44//44
f 42//42 41//41 40//40
f 62//62 605//605 42//42
f 44//44 40//40 606//606
f 46//46 564//564 586//586
f 597//597 46//46 586//586
f 563//563 63//63 42//42
f 609//609 598//598 607//607
f 46//46 623//623 564//564
f 42//42 63//63 62//62
f 608//608 601//601 619//619
f 600//600 36//36 620//620
f 621//621 56//56 607//607
f 553//553 44//44 45//45
f 26//26 45//45 59//59
f 44//44 606//606 62//62
f 12//12 47//47 576//576
f 565//565 48//48 610//610
f 613//613 67//67 611//611
f 48//48 565//565 51//51
f 49//49 577//577 612//612
f 49//49 87//87 577//577
f 80//80 87//87 49//49
f 51//51 565//565 13//13
f 50//50 615//615 566//566
f 71//71 614//614 616//616
f 69//69 71//71 616//616
f 88//88 69//69 616//616
f 88//88 615//615 50//50
f 577//577 87//87 22//22
f 52//52 22//22 87//87
f 23//23 54//54 11//11
f 23//23 55//55 54//54
f 87//87 85//85 52//52
f 85//85 53//53 34//34
f 61//61 622//622 23//23
f 24//24 61//61 23//23
f 50//50 11//11 54//54
f 54//54 55//55 88//88
f 54//54 88//88 50//50
f 55//55 622//622 88//88
f 607//607 56//56 609//609
f 621//621 604//604 617//617
f 60//60 59//59 45//45
f 25//25 59//59 61//61
f 60//60 64//64 59//59
f 65//65 622//622 61//61
f 61//61 59//59 64//64
f 62//62 63//63 90//90
f 44//44 62//62 90//90
f 609//609 56//56 624//624
f 56//56 621//621 624//624
f 617//617 130//130 621//621
f 60//60 45//45 89//89
f 45//45 66//66 89//89
f 65//65 61//61 64//64
f 66//66 45//45 44//44
f 90//90 624//624 621//621
f 621//621 130//130 102//102
f 64//64 60//60 65//65
f 89//89 65//65 60//60
f 44//44 90//90 66//66
f 625//625 49//49 612//612
f 614//614 71//71 626//626
f 625//625 68//68 49//49
f 49//49 68//68 77//77
f 71//71 69//69 84//84
f 68//68 70//70 77//77
f 628//628 72//72 633//633
f 73//73 70//70 75//75
f 70//70 68//68 75//75
f 70//70 73//73 629//629
f 632//632 68//68 625//625
f 75//75 93//93 73//73
f 71//71 84//84 74//74
f 626//626 71//71 74//74
f 73//73 93//93 629//629
f 627//627 631//631 76//76
f 74//74 84//84 92//92
f 636//636 632//632 76//76
f 632//632 625//625 76//76
f 94//94 630//630 637//637
f 76//76 631//631 635//635
f 636//636 76//76 635//635
f 91//91 636//636 635//635
f 77//77 78//78 49//49
f 78//78 80//80 49//49
f 78//78 77//77 630//630
f 80//80 78//78 79//79
f 78//78 630//630 79//79
f 81//81 80//80 79//79
f 80//80 634//634 82//82
f 82//82 83//83 80//80
f 83//83 87//87 80//80
f 82//82 96//96 83//83
f 83//83 96//96 87//87
f 88//88 98//98 69//69
f 84//84 69//69 98//98
f 92//92 84//84 98//98
f 53//53 85//85 86//86
f 86//86 85//85 87//87
f 86//86 97//97 618//618
f 98//98 88//88 100//100
f 100//100 88//88 99//99
f 99//99 622//622 131//131
f 99//99 88//88 622//622
f 90//90 621//621 102//102
f 103//103 65//65 89//89
f 90//90 134//134 119//119
f 105//105 89//89 66//66
f 94//94 79//79 630//630
f 91//91 635//635 108//108
f 79//79 94//94 81//81
f 147//147 81//81 94//94
f 114//114 94//94 637//637
f 636//636 91//91 95//95
f 636//636 95//95 642//642
f 642//642 123//123 94//94
f 123//123 147//147 94//94
f 147//147 82//82 634//634
f 96//96 86//86 87//87
f 107//107 92//92 98//98
f 108//108 109//109 91//91
f 127//127 97//97 86//86
f 127//127 126//126 97//97
f 125//125 97//97 644//644
f 125//125 618//618 97//97
f 100//100 99//99 131//131
f 101//101 100//100 131//131
f 177//177 101//101 128//128
f 128//128 101//101 131//131
f 115//115 146//146 98//98
f 98//98 100//100 115//115
f 115//115 100//100 101//101
f 115//115 101//101 177//177
f 617//617 116//116 130//130
f 622//622 65//65 103//103
f 131//131 622//622 103//103
f 119//119 66//66 90//90
f 118//118 66//66 119//119
f 103//103 105//105 104//104
f 103//103 89//89 105//105
f 142//142 105//105 66//66
f 106//106 105//105 138//138
f 120//120 104//104 106//106
f 104//104 105//105 106//106
f 142//142 138//138 105//105
f 109//109 95//95 91//91
f 92//92 107//107 639//639
f 95//95 113//113 642//642
f 109//109 108//108 111//111
f 109//109 110//110 638//638
f 638//638 110//110 640//640
f 640//640 110//110 109//109
f 109//109 111//111 122//122
f 640//640 109//109 112//112
f 640//640 112//112 172//172
f 172//172 112//112 109//109
f 122//122 111//111 108//108
f 124//124 82//82 147//147
f 148//148 96//96 82//82
f 148//148 86//86 96//96
f 107//107 98//98 121//121
f 115//115 177//177 146//146
f 134//134 90//90 102//102
f 134//134 102//102 135//135
f 120//120 117//117 104//104
f 138//138 120//120 106//106
f 142//142 66//66 118//118
f 103//103 104//104 136//136
f 104//104 117//117 137//137
f 136//136 131//131 103//103
f 120//120 137//137 117//117
f 138//138 137//137 120//120
f 142//142 118//118 143//143
f 143//143 118//118 144//144
f 144//144 118//118 119//119
f 173//173 642//642 113//113
f 642//642 173//173 123//123
f 107//107 121//121 639//639
f 122//122 108//108 643//643
f 641//641 172//172 652//652
f 173//173 147//147 123//123
f 82//82 124//124 148//148
f 146//146 121//121 98//98
f 147//147 148//148 124//124
f 149//149 86//86 148//148
f 129//129 128//128 131//131
f 153//153 130//130 116//116
f 160//160 133//133 130//130
f 130//130 133//133 132//132
f 132//132 102//102 130//130
f 132//132 645//645 102//102
f 132//132 133//133 158//158
f 158//158 645//645 132//132
f 144//144 119//119 134//134
f 209//209 134//134 156//156
f 135//135 156//156 134//134
f 131//131 136//136 164//164
f 137//137 164//164 136//136
f 131//131 164//164 163//163
f 104//104 137//137 136//136
f 145//145 137//137 138//138
f 138//138 142//142 139//139
f 140//140 145//145 138//138
f 140//140 138//138 141//141
f 139//139 646//646 138//138
f 139//139 166//166 646//646
f 142//142 143//143 139//139
f 144//144 162//162 143//143
f 139//139 143//143 167//167
f 167//167 143//143 169//169
f 650//650 143//143 162//162
f 140//140 141//141 145//145
f 141//141 165//165 145//145
f 166//166 139//139 649//649
f 121//121 146//146 171//171
f 194//194 643//643 651//651
f 194//194 122//122 643//643
f 86//86 149//149 150//150
f 148//148 147//147 149//149
f 150//150 127//127 86//86
f 151//151 127//127 150//150
f 150//150 149//149 237//237
f 237//237 253//253 150//150
f 151//151 200//200 201//201
f 151//151 201//201 127//127
f 154//154 125//125 644//644
f 127//127 152//152 126//126
f 154//154 644//644 198//198
f 126//126 152//152 660//660
f 127//127 663//663 152//152
f 153//153 184//184 130//130
f 647//647 116//116 184//184
f 116//116 178//178 184//184
f 179//179 618//618 125//125
f 154//154 179//179 125//125
f 617//617 178//178 116//116
f 177//177 128//128 180//180
f 128//128 129//129 180//180
f 160//160 130//130 155//155
f 133//133 160//160 159//159
f 184//184 155//155 130//130
f 160//160 155//155 183//183
f 207//207 131//131 163//163
f 131//131 181//181 129//129
f 180//180 129//129 181//181
f 131//131 185//185 181//181
f 158//158 157//157 645//645
f 157//157 156//156 645//645
f 648//648 133//133 159//159
f 157//157 158//158 156//156
f 159//159 160//160 648//648
f 160//160 161//161 648//648
f 158//158 186//186 156//156
f 186//186 209//209 156//156
f 137//137 266//266 164//164
f 165//165 141//141 190//190
f 165//165 190//190 145//145
f 649//649 646//646 166//166
f 649//649 170//170 646//646
f 646//646 170//170 190//190
f 192//192 162//162 144//144
f 192//192 168//168 162//162
f 168//168 650//650 162//162
f 210//210 144//144 134//134
f 191//191 190//190 170//170
f 170//170 649//649 191//191
f 655//655 167//167 169//169
f 212//212 655//655 169//169
f 650//650 168//168 664//664
f 176//176 109//109 122//122
f 194//194 175//175 122//122
f 122//122 175//175 176//176
f 109//109 176//176 172//172
f 194//194 195//195 175//175
f 172//172 176//176 652//652
f 149//149 147//147 218//218
f 174//174 171//171 146//146
f 651//651 174//174 194//194
f 174//174 146//146 177//177
f 195//195 176//176 175//175
f 176//176 658//658 213//213
f 173//173 196//196 147//147
f 237//237 149//149 218//218
f 150//150 200//200 151//151
f 179//179 178//178 618//618
f 179//179 154//154 198//198
f 179//179 184//184 178//178
f 179//179 198//198 199//199
f 180//180 181//181 182//182
f 177//177 180//180 204//204
f 204//204 180//180 182//182
f 184//184 224//224 155//155
f 183//183 224//224 160//160
f 224//224 183//183 155//155
f 184//184 179//179 203//203
f 184//184 203//203 224//224
f 182//182 181//181 653//653
f 185//185 131//131 207//207
f 204//204 182//182 653//653
f 161//161 186//186 648//648
f 187//187 186//186 161//161
f 224//224 161//161 160//160
f 161//161 224//224 187//187
f 188//188 207//207 163//163
f 189//189 188//188 163//163
f 134//134 211//211 210//210
f 134//134 209//209 231//231
f 187//187 209//209 186//186
f 209//209 187//187 206//206
f 189//189 163//163 266//266
f 163//163 164//164 266//266
f 145//145 266//266 137//137
f 192//192 664//664 168//168
f 210//210 657//657 144//144
f 657//657 210//210 212//212
f 193//193 145//145 190//190
f 190//190 191//191 234//234
f 195//195 194//194 239//239
f 213//213 652//652 176//176
f 173//173 665//665 196//196
f 214//214 147//147 196//196
f 665//665 214//214 196//196
f 200//200 219//219 201//201
f 197//197 200//200 150//150
f 659//659 150//150 253//253
f 197//197 687//687 200//200
f 202//202 660//660 152//152
f 202//202 152//152 663//663
f 663//663 257//257 202//202
f 179//179 199//199 220//220
f 660//660 202//202 661//661
f 220//220 203//203 179//179
f 220//220 221//221 203//203
f 187//187 205//205 206//206
f 187//187 224//224 205//205
f 188//188 208//208 207//207
f 189//189 208//208 188//188
f 208//208 225//225 207//207
f 189//189 266//266 208//208
f 654//654 207//207 225//225
f 134//134 226//226 211//211
f 223//223 231//231 209//209
f 206//206 223//223 209//209
f 231//231 226//226 134//134
f 205//205 223//223 206//206
f 190//190 228//228 193//193
f 190//190 234//234 228//228
f 227//227 210//210 211//211
f 272//272 210//210 227//227
f 266//266 145//145 193//193
f 212//212 229//229 655//655
f 658//658 215//215 213//213
f 217//217 214//214 665//665
f 174//174 675//675 194//194
f 666//666 216//216 239//239
f 666//666 239//239 238//238
f 216//216 195//195 239//239
f 216//216 666//666 195//195
f 213//213 215//215 303//303
f 214//214 218//218 147//147
f 245//245 237//237 218//218
f 245//245 246//246 237//237
f 688//688 219//219 200//200
f 219//219 688//688 255//255
f 222//222 220//220 662//662
f 661//661 202//202 222//222
f 257//257 222//222 202//202
f 691//691 201//201 219//219
f 204//204 258//258 177//177
f 224//224 203//203 221//221
f 257//257 220//220 222//222
f 224//224 223//223 205//205
f 294//294 292//292 224//224
f 292//292 223//223 224//224
f 208//208 266//266 225//225
f 261//261 653//653 225//225
f 226//226 669//669 211//211
f 231//231 223//223 265//265
f 292//292 265//265 668//668
f 269//269 656//656 670//670
f 695//695 234//234 191//191
f 228//228 266//266 193//193
f 212//212 271//271 229//229
f 210//210 271//271 212//212
f 272//272 271//271 210//210
f 226//226 262//262 669//669
f 231//231 230//230 226//226
f 232//232 226//226 230//230
f 231//231 233//233 230//230
f 232//232 230//230 672//672
f 231//231 265//265 673//673
f 226//226 671//671 262//262
f 232//232 672//672 263//263
f 692//692 674//674 264//264
f 265//265 693//693 673//673
f 266//266 268//268 267//267
f 268//268 266//266 228//228
f 234//234 268//268 228//228
f 695//695 268//268 234//234
f 244//244 236//236 214//214
f 303//303 243//243 213//213
f 679//679 242//242 667//667
f 680//680 217//217 665//665
f 214//214 217//217 677//677
f 236//236 218//218 214//214
f 235//235 218//218 236//236
f 218//218 235//235 682//682
f 682//682 235//235 236//236
f 177//177 288//288 174//174
f 239//239 240//240 238//238
f 241//241 675//675 174//174
f 240//240 666//666 238//238
f 666//666 240//240 289//289
f 301//301 215//215 704//704
f 215//215 301//301 303//303
f 239//239 676//676 240//240
f 677//677 244//244 214//214
f 681//681 244//244 678//678
f 244//244 312//312 236//236
f 245//245 248//248 246//246
f 246//246 247//247 237//237
f 246//246 248//248 250//250
f 249//249 247//247 683//683
f 684//684 247//247 246//246
f 237//237 247//247 249//249
f 278//278 236//236 312//312
f 682//682 236//236 278//278
f 278//278 248//248 245//245
f 248//248 251//251 250//250
f 685//685 251//251 252//252
f 249//249 683//683 686//686
f 248//248 279//279 251//251
f 252//252 237//237 249//249
f 279//279 252//252 251//251
f 278//278 279//279 248//248
f 252//252 279//279 280//280
f 252//252 280//280 237//237
f 237//237 316//316 254//254
f 255//255 256//256 219//219
f 286//286 256//256 255//255
f 255//255 688//688 284//284
f 258//258 287//287 177//177
f 288//288 177//177 287//287
f 319//319 219//219 690//690
f 700//700 285//285 689//689
f 285//285 701//701 689//689
f 690//690 702//702 319//319
f 257//257 319//319 291//291
f 691//691 219//219 319//319
f 258//258 204//204 260//260
f 324//324 258//258 260//260
f 324//324 287//287 258//258
f 322//322 220//220 259//259
f 259//259 220//220 257//257
f 291//291 259//259 257//257
f 653//653 261//261 349//349
f 324//324 204//204 653//653
f 260//260 204//204 324//324
f 221//221 220//220 224//224
f 261//261 225//225 349//349
f 692//692 262//262 671//671
f 692//692 275//275 262//262
f 296//296 265//265 292//292
f 296//296 693//693 265//265
f 267//267 268//268 270//270
f 267//267 270//270 695//695
f 277//277 269//269 670//670
f 270//270 268//268 695//695
f 273//273 274//274 309//309
f 272//272 274//274 271//271
f 274//274 272//272 295//295
f 271//271 274//274 273//273
f 295//295 272//272 227//227
f 273//273 229//229 271//271
f 275//275 692//692 264//264
f 696//696 694//694 296//296
f 267//267 695//695 276//276
f 299//299 266//266 267//267
f 273//273 277//277 229//229
f 269//269 277//277 276//276
f 274//274 295//295 709//709
f 310//310 243//243 303//303
f 304//304 681//681 710//710
f 304//304 244//244 681//681
f 237//237 280//280 335//335
f 719//719 316//316 237//237
f 278//278 280//280 279//279
f 237//237 254//254 253//253
f 241//241 174//174 281//281
f 281//281 174//174 288//288
f 676//676 282//282 240//240
f 281//281 697//697 241//241
f 698//698 289//289 240//240
f 281//281 302//302 697//697
f 283//283 278//278 312//312
f 280//280 278//278 283//283
f 324//324 321//321 287//287
f 288//288 306//306 302//302
f 306//306 288//288 287//287
f 281//281 288//288 302//302
f 705//705 699//699 707//707
f 317//317 306//306 287//287
f 290//290 715//715 259//259
f 290//290 259//259 291//291
f 323//323 715//715 290//290
f 290//290 291//291 323//323
f 323//323 291//291 345//345
f 220//220 294//294 224//224
f 293//293 292//292 294//294
f 706//706 669//669 330//330
f 297//297 696//696 296//296
f 292//292 297//297 296//296
f 293//293 297//297 292//292
f 298//298 297//297 293//293
f 225//225 266//266 328//328
f 299//299 267//267 276//276
f 299//299 381//381 266//266
f 277//277 273//273 309//309
f 276//276 277//277 430//430
f 706//706 330//330 309//309
f 669//669 262//262 330//330
f 430//430 277//277 309//309
f 283//283 300//300 280//280
f 280//280 300//300 335//335
f 300//300 283//283 335//335
f 705//705 707//707 307//307
f 708//708 301//301 704//704
f 708//708 302//302 306//306
f 336//336 303//303 301//301
f 301//301 708//708 336//336
f 304//304 305//305 244//244
f 312//312 244//244 305//305
f 311//311 305//305 304//304
f 254//254 712//712 339//339
f 253//253 254//254 339//339
f 366//366 285//285 700//700
f 366//366 701//701 285//285
f 703//703 321//321 318//318
f 703//703 318//318 713//713
f 322//322 294//294 220//220
f 328//328 349//349 225//225
f 653//653 349//349 324//324
f 308//308 298//298 293//293
f 308//308 293//293 326//326
f 294//294 325//325 293//293
f 717//717 293//293 325//325
f 298//298 351//351 297//297
f 308//308 351//351 298//298
f 696//696 297//297 332//332
f 332//332 297//297 351//351
f 299//299 276//276 430//430
f 330//330 262//262 327//327
f 262//262 696//696 327//327
f 710//710 711//711 304//304
f 303//303 720//720 310//310
f 311//311 360//360 305//305
f 305//305 360//360 312//312
f 334//334 312//312 360//360
f 312//312 334//334 283//283
f 283//283 313//313 314//314
f 283//283 314//314 335//335
f 355//355 316//316 719//719
f 311//311 338//338 360//360
f 710//710 337//337 333//333
f 711//711 710//710 333//333
f 720//720 722//722 310//310
f 338//338 311//311 718//718
f 283//283 334//334 313//313
f 334//334 315//315 313//313
f 335//335 314//314 313//313
f 335//335 313//313 315//315
f 284//284 688//688 732//732
f 319//319 702//702 733//733
f 291//291 410//410 345//345
f 320//320 291//291 319//319
f 320//320 410//410 291//291
f 320//320 319//319 410//410
f 733//733 410//410 319//319
f 321//321 341//341 318//318
f 306//306 714//714 340//340
f 336//336 306//306 340//340
f 306//306 336//336 708//708
f 324//324 370//370 321//321
f 341//341 321//321 370//370
f 717//717 325//325 346//346
f 294//294 346//346 325//325
f 322//322 347//347 294//294
f 347//347 346//346 294//294
f 349//349 328//328 352//352
f 327//327 696//696 332//332
f 330//330 327//327 380//380
f 351//351 402//402 332//332
f 381//381 328//328 266//266
f 329//329 430//430 309//309
f 329//329 309//309 330//330
f 741//741 327//327 331//331
f 327//327 332//332 331//331
f 741//741 331//331 332//332
f 363//363 334//334 360//360
f 363//363 315//315 334//334
f 720//720 353//353 722//722
f 728//728 333//333 337//337
f 354//354 355//355 315//315
f 335//335 315//315 355//355
f 734//734 253//253 339//339
f 713//713 318//318 343//343
f 713//713 343//343 723//723
f 343//343 318//318 724//724
f 336//336 340//340 342//342
f 343//343 369//369 723//723
f 736//736 342//342 340//340
f 724//724 370//370 343//343
f 323//323 348//348 715//715
f 345//345 344//344 323//323
f 345//345 373//373 344//344
f 370//370 369//369 343//343
f 726//726 716//716 727//727
f 344//344 348//348 323//323
f 344//344 396//396 348//348
f 344//344 378//378 396//396
f 378//378 344//344 739//739
f 350//350 351//351 308//308
f 346//346 350//350 717//717
f 350//350 308//308 326//326
f 332//332 402//402 742//742
f 402//402 351//351 350//350
f 405//405 352//352 328//328
f 330//330 430//430 329//329
f 330//330 379//379 430//430
f 720//720 367//367 353//353
f 728//728 735//735 356//356
f 315//315 363//363 362//362
f 315//315 362//362 354//354
f 712//712 365//365 339//339
f 339//339 365//365 734//734
f 355//355 364//364 316//316
f 728//728 361//361 333//333
f 361//361 728//728 356//356
f 392//392 367//367 720//720
f 356//356 735//735 357//357
f 729//729 359//359 731//731
f 356//356 357//357 358//358
f 729//729 730//730 359//359
f 357//357 735//735 358//358
f 358//358 735//735 368//368
f 363//363 359//359 384//384
f 730//730 384//384 359//359
f 731//731 338//338 718//718
f 360//360 338//338 731//731
f 362//362 386//386 354//354
f 360//360 731//731 359//359
f 363//363 386//386 362//362
f 359//359 363//363 360//360
f 388//388 355//355 354//354
f 364//364 365//365 316//316
f 389//389 365//365 364//364
f 725//725 737//737 721//721
f 720//720 372//372 393//393
f 393//393 392//392 720//720
f 392//392 383//383 735//735
f 358//358 368//368 383//383
f 735//735 383//383 368//368
f 410//410 374//374 345//345
f 369//369 370//370 371//371
f 371//371 394//394 369//369
f 372//372 720//720 738//738
f 394//394 371//371 370//370
f 345//345 374//374 373//373
f 418//418 374//374 410//410
f 375//375 324//324 349//349
f 324//324 375//375 370//370
f 727//727 396//396 401//401
f 347//347 377//377 346//346
f 727//727 376//376 726//726
f 376//376 740//740 726//726
f 376//376 727//727 401//401
f 376//376 401//401 740//740
f 396//396 378//378 398//398
f 403//403 346//346 377//377
f 330//330 380//380 379//379
f 402//402 404//404 742//742
f 379//379 380//380 745//745
f 406//406 299//299 430//430
f 388//388 354//354 386//386
f 364//364 355//355 387//387
f 382//382 365//365 389//389
f 382//382 734//734 365//365
f 384//384 730//730 385//385
f 409//409 385//385 730//730
f 383//383 416//416 358//358
f 384//384 385//385 409//409
f 409//409 358//358 416//416
f 386//386 363//363 384//384
f 386//386 384//384 459//459
f 387//387 389//389 364//364
f 433//433 391//391 389//389
f 389//389 387//387 433//433
f 382//382 390//390 734//734
f 389//389 391//391 382//382
f 743//743 382//382 391//391
f 412//412 743//743 391//391
f 733//733 744//744 412//412
f 439//439 392//392 393//393
f 395//395 393//393 372//372
f 395//395 754//754 393//393
f 408//408 383//383 392//392
f 383//383 408//408 416//416
f 408//408 392//392 439//439
f 459//459 384//384 409//409
f 398//398 374//374 418//418
f 448//448 394//394 370//370
f 394//394 414//414 738//738
f 738//738 414//414 372//372
f 395//395 372//372 415//415
f 746//746 372//372 414//414
f 397//397 396//396 398//398
f 399//399 397//397 398//398
f 399//399 400//400 397//397
f 400//400 396//396 397//397
f 400//400 401//401 396//396
f 399//399 398//398 418//418
f 399//399 418//418 400//400
f 446//446 418//418 410//410
f 398//398 373//373 374//374
f 398//398 378//378 739//739
f 421//421 346//346 403//403
f 401//401 403//403 740//740
f 418//418 401//401 400//400
f 401//401 418//418 424//424
f 452//452 375//375 349//349
f 375//375 452//452 370//370
f 423//423 404//404 402//402
f 423//423 402//402 350//350
f 350//350 346//346 421//421
f 421//421 423//423 350//350
f 424//424 403//403 401//401
f 405//405 328//328 428//428
f 328//328 381//381 428//428
f 405//405 425//425 352//352
f 428//428 425//425 405//405
f 406//406 429//429 299//299
f 431//431 406//406 430//430
f 388//388 386//386 407//407
f 412//412 391//391 433//433
f 416//416 459//459 409//409
f 459//459 407//407 386//386
f 407//407 435//435 388//388
f 434//434 432//432 388//388
f 432//432 387//387 355//355
f 388//388 432//432 355//355
f 387//387 432//432 433//433
f 413//413 412//412 436//436
f 433//433 436//436 412//412
f 733//733 411//411 410//410
f 411//411 417//417 410//410
f 413//413 417//417 411//411
f 733//733 413//413 411//411
f 733//733 412//412 413//413
f 413//413 436//436 417//417
f 415//415 754//754 395//395
f 416//416 408//408 754//754
f 459//459 435//435 407//407
f 746//746 414//414 419//419
f 419//419 414//414 394//394
f 448//448 419//419 394//394
f 746//746 419//419 420//420
f 444//444 754//754 415//415
f 746//746 420//420 450//450
f 444//444 415//415 758//758
f 446//446 424//424 418//418
f 420//420 419//419 450//450
f 419//419 448//448 449//449
f 403//403 424//424 421//421
f 447//447 424//424 446//446
f 452//452 349//349 422//422
f 422//422 349//349 352//352
f 750//750 422//422 352//352
f 427//427 423//423 421//421
f 424//424 453//453 421//421
f 424//424 478//478 453//453
f 421//421 453//453 751//751
f 379//379 455//455 430//430
f 745//745 423//423 379//379
f 423//423 426//426 379//379
f 427//427 426//426 423//423
f 299//299 429//429 381//381
f 457//457 428//428 381//381
f 761//761 381//381 429//429
f 429//429 406//406 761//761
f 406//406 431//431 761//761
f 761//761 431//431 458//458
f 458//458 431//431 430//430
f 388//388 752//752 434//434
f 459//459 416//416 754//754
f 471//471 437//437 433//433
f 434//434 752//752 469//469
f 432//432 434//434 469//469
f 440//440 469//469 752//752
f 433//433 462//462 471//471
f 433//433 432//432 462//462
f 436//436 433//433 437//437
f 417//417 436//436 438//438
f 437//437 753//753 436//436
f 437//437 443//443 753//753
f 443//443 747//747 753//753
f 443//443 437//437 442//442
f 459//459 754//754 466//466
f 460//460 435//435 459//459
f 460//460 440//440 752//752
f 442//442 437//437 471//471
f 462//462 432//432 469//469
f 442//442 461//461 443//443
f 447//447 410//410 748//748
f 410//410 447//447 446//446
f 441//441 757//757 749//749
f 749//749 755//755 441//441
f 463//463 756//756 461//461
f 757//757 755//755 762//762
f 441//441 755//755 757//757
f 450//450 419//419 449//449
f 754//754 444//444 445//445
f 466//466 754//754 445//445
f 466//466 445//445 444//444
f 466//466 444//444 465//465
f 758//758 464//464 444//444
f 447//447 451//451 424//424
f 452//452 448//448 370//370
f 449//449 448//448 452//452
f 450//450 449//449 452//452
f 451//451 478//478 424//424
f 422//422 750//750 476//476
f 452//452 422//422 476//476
f 451//451 506//506 478//478
f 425//425 428//428 454//454
f 458//458 430//430 455//455
f 426//426 427//427 456//456
f 426//426 479//479 481//481
f 751//751 453//453 760//760
f 479//479 426//426 456//456
f 500//500 761//761 483//483
f 483//483 761//761 458//458
f 767//767 458//458 501//501
f 455//455 501//501 458//458
f 455//455 379//379 503//503
f 460//460 468//468 440//440
f 460//460 459//459 467//467
f 459//459 475//475 467//467
f 440//440 763//763 469//469
f 462//462 469//469 470//470
f 442//442 471//471 461//461
f 471//471 462//462 470//470
f 464//464 465//465 444//444
f 466//466 475//475 459//459
f 474//474 468//468 467//467
f 468//468 460//460 467//467
f 467//467 475//475 474//474
f 763//763 484//484 469//469
f 484//484 763//763 474//474
f 486//486 471//471 470//470
f 486//486 469//469 484//484
f 486//486 470//470 469//469
f 464//464 758//758 472//472
f 450//450 452//452 764//764
f 473//473 466//466 465//465
f 473//473 465//465 464//464
f 466//466 473//473 475//475
f 471//471 486//486 461//461
f 461//461 486//486 463//463
f 762//762 491//491 757//757
f 492//492 506//506 451//451
f 489//489 451//451 447//447
f 454//454 428//428 482//482
f 487//487 452//452 476//476
f 482//482 476//476 750//750
f 482//482 425//425 454//454
f 487//487 476//476 482//482
f 452//452 487//487 488//488
f 478//478 506//506 477//477
f 480//480 479//479 456//456
f 760//760 453//453 765//765
f 480//480 481//481 479//479
f 478//478 765//765 453//453
f 478//478 766//766 765//765
f 478//478 477//477 766//766
f 457//457 496//496 428//428
f 776//776 482//482 428//428
f 499//499 761//761 500//500
f 502//502 759//759 781//781
f 759//759 502//502 504//504
f 379//379 426//426 503//503
f 481//481 493//493 426//426
f 766//766 477//477 774//774
f 493//493 503//503 426//426
f 475//475 473//473 485//485
f 475//475 485//485 474//474
f 484//484 474//474 485//485
f 484//484 508//508 486//486
f 769//769 491//491 762//762
f 764//764 452//452 488//488
f 508//508 472//472 770//770
f 508//508 473//473 472//472
f 464//464 472//472 473//473
f 473//473 508//508 485//485
f 485//485 508//508 484//484
f 532//532 491//491 511//511
f 491//491 769//769 511//511
f 491//491 771//771 757//757
f 773//773 451//451 490//490
f 489//489 490//490 451//451
f 494//494 489//489 772//772
f 490//490 489//489 494//494
f 490//490 494//494 773//773
f 774//774 477//477 506//506
f 506//506 505//505 774//774
f 494//494 510//510 773//773
f 494//494 512//512 510//510
f 773//773 510//510 518//518
f 795//795 507//507 506//506
f 795//795 506//506 492//492
f 494//494 772//772 787//787
f 482//482 776//776 495//495
f 495//495 513//513 482//482
f 514//514 487//487 482//482
f 513//513 495//495 776//776
f 777//777 497//497 513//513
f 497//497 777//777 498//498
f 498//498 777//777 499//499
f 498//498 520//520 497//497
f 498//498 499//499 519//519
f 777//777 761//761 499//499
f 529//529 767//767 501//501
f 782//782 501//501 455//455
f 502//502 517//517 504//504
f 503//503 493//493 792//792
f 502//502 781//781 517//517
f 784//784 793//793 775//775
f 505//505 507//507 774//774
f 506//506 507//507 505//505
f 784//784 796//796 543//543
f 784//784 543//543 793//793
f 797//797 498//498 519//519
f 508//508 786//786 486//486
f 508//508 770//770 509//509
f 488//488 487//487 785//785
f 510//510 512//512 518//518
f 532//532 788//788 491//491
f 818//818 796//796 789//789
f 499//499 525//525 519//519
f 513//513 522//522 482//482
f 513//513 497//497 522//522
f 785//785 487//487 514//514
f 522//522 514//514 482//482
f 509//509 516//516 508//508
f 509//509 515//515 516//516
f 790//790 515//515 509//509
f 516//516 515//515 521//521
f 799//799 798//798 791//791
f 515//515 790//790 521//521
f 508//508 516//516 819//819
f 782//782 537//537 501//501
f 780//780 827//827 528//528
f 783//783 538//538 828//828
f 832//832 504//504 531//531
f 504//504 517//517 531//531
f 522//522 497//497 520//520
f 525//525 797//797 519//519
f 525//525 523//523 797//797
f 801//801 521//521 800//800
f 521//521 801//801 516//516
f 801//801 524//524 516//516
f 802//802 522//522 520//520
f 806//806 527//527 526//526
f 807//807 804//804 803//803
f 516//516 524//524 809//809
f 808//808 810//810 805//805
f 806//806 778//778 527//527
f 499//499 500//500 812//812
f 533//533 813//813 779//779
f 533//533 779//779 535//535
f 483//483 822//822 500//500
f 536//536 823//823 768//768
f 768//768 530//530 536//536
f 526//526 527//527 820//820
f 819//819 516//516 534//534
f 814//814 827//827 540//540
f 814//814 540//540 815//815
f 767//767 529//529 816//816
f 528//528 814//814 780//780
f 814//814 528//528 827//827
f 817//817 794//794 841//841
f 786//786 508//508 819//819
f 539//539 534//534 516//516
f 809//809 539//539 516//516
f 824//824 811//811 821//821
f 826//826 815//815 540//540
f 827//827 835//835 540//540
f 829//829 534//534 539//539
f 833//833 817//817 841//841
f 836//836 811//811 824//824
f 837//837 825//825 826//826
f 540//540 837//837 826//826
f 542//542 819//819 534//534
f 541//541 542//542 534//534
f 534//534 830//830 541//541
f 831//831 834//834 838//838
f 838//838 834//834 842//842
f 543//543 796//796 818//818
f 543//543 818//818 840//840
f 839//839 543//543 840//840
