# Wavafront OBJ file of BodyParts3D
# BodyParts3D, Copyright(C) 2010-2011 The Database Center for Life Science licensed under CC Attribution-Share Alike 2.1 Japan.
vn -0.886608 0.085459 -0.454559
v -18.7039 -107.173 1345.38
vn -0.675407 -0.702708 0.223666
v -16.3657 -115.932 1350.56
vn -0.566448 -0.75328 -0.334225
v -15.5024 -115.031 1344.92
vn -0.879384 -0.427785 -0.209008
v -18.3791 -112.812 1347.57
vn -0.687727 -0.70999 -0.151476
v -16.745 -115.408 1348.55
vn -0.871274 -0.352932 0.341059
v -17.3821 -114.616 1350.3
vn -0.667268 -0.103741 0.737558
v -16.5662 -114.963 1351.04
vn -0.68152 -0.153443 -0.715532
v -13.5472 -111.884 1338.95
vn -0.589467 -0.558398 -0.583712
v -12.4013 -113.628 1338.77
vn -0.90489 -0.180844 -0.385317
v -18.4674 -109.857 1345.33
vn -0.791268 -0.38754 -0.472978
v -17.0841 -112.066 1343.82
vn -0.984947 -0.120994 0.123446
v -19.2679 -109.511 1347.72
vn -0.735532 -0.0845627 0.672192
v -18.7645 -108.046 1349.05
vn -0.547459 0.0520119 0.835215
v -17.8865 -111.528 1349.92
vn -0.504947 -0.0918817 0.858246
v -17.4726 -107.869 1349.88
vn -0.107789 0.228623 0.967529
v -16.3213 -111.119 1349.95
vn -0.807129 -0.0653617 -0.586746
v -16.9004 -109.874 1342.52
vn -0.6549 0.248437 -0.713712
v -14.3587 -108.275 1340.04
vn -0.984497 0.137492 -0.10891
v -19.3517 -104.6 1348.14
vn -0.694904 0.382875 -0.608699
v -18.1997 -105.103 1345.36
vn -0.615435 -0.196052 0.763416
v -18.5628 -105.194 1349.7
vn -0.922249 0.0506362 0.383266
v -19.162 -104.256 1349.2
vn -0.770252 0.0552613 0.635341
v -18.71 -104.019 1350.01
vn -0.495503 0.0981315 0.863045
v -17.4805 -103.778 1351.02
vn -0.397563 0.60952 -0.685879
v -14.7307 -106.066 1341.78
vn -0.830378 0.401053 -0.386819
v -18.9374 -103.813 1347.43
vn -0.89958 0.436522 -0.0143303
v -19.0503 -103.479 1348.4
vn -0.483701 0.71045 -0.511169
v -17.6845 -102.713 1346.92
vn -0.636232 0.744847 -0.201025
v -18.1746 -102.355 1348.3
vn -0.187229 0.970092 -0.154489
v -17.1945 -101.887 1348.48
vn -0.117873 0.889363 -0.441745
v -16.0598 -102.236 1346.76
vn -0.834949 0.41617 0.360088
v -18.6201 -103.088 1349.66
vn -0.697886 0.681147 0.221346
v -18.4872 -102.712 1349.24
vn -0.631431 0.502035 0.590979
v -18.2427 -102.974 1350.08
vn -0.443253 0.883143 0.153575
v -17.8573 -102.117 1348.89
vn -0.388695 0.560917 0.73095
v -17.8154 -102.912 1350.37
vn -0.36932 0.783072 0.5004
v -17.7068 -102.511 1350.02
vn 0.0202976 0.946906 0.32087
v -16.8989 -101.914 1349.15
vn 0.00635124 0.670637 0.741758
v -16.8542 -102.889 1350.65
vn -0.329793 -0.935889 -0.123893
v -15.5825 -116.346 1349.87
vn 0.0409792 -0.998903 -0.0226528
v -14.6514 -116.475 1350.25
vn -0.623184 -0.580104 0.52452
v -15.8663 -115.985 1351.32
vn -0.294465 -0.927836 0.228935
v -15.46 -116.372 1351.05
vn 0.261049 -0.938192 0.227264
v -13.7381 -116.231 1352.18
vn -0.547656 -0.144357 0.824156
v -14.0506 -115.819 1353.04
vn 0.508561 -0.626293 0.590866
v -12.9128 -115.54 1352.78
vn -0.357795 -0.895055 -0.266193
v -12.4652 -115.739 1342.33
vn -0.137755 -0.983284 -0.119068
v -13.8694 -115.975 1346.41
vn 0.274554 -0.938773 0.208148
v -12.5027 -115.943 1348.58
vn -0.379423 0.332359 0.863467
v -16.0977 -114.431 1351.16
vn -0.629589 0.0454218 0.7756
v -14.9197 -112.078 1350.58
vn -0.565351 0.203028 0.799473
v -14.0986 -115.002 1353.09
vn -0.775478 0.121636 0.619548
v -13.4619 -113.51 1352.96
vn -0.770378 -0.141613 0.621662
v -13.6386 -111.902 1352.98
vn -0.284266 0.00921827 0.958701
v -13.1778 -114.549 1353.45
vn -0.436434 0.105862 0.893487
v -13.1865 -113.912 1353.41
vn -0.581192 0.0023687 0.813763
v -13.1777 -113.409 1353.33
vn 0.0702273 0.34418 0.936273
v -14.0481 -107.888 1352.23
vn -0.717833 -0.143506 0.681265
v -13.7633 -110.751 1353.22
vn -0.72468 -0.170114 0.667757
v -15.0336 -107.367 1351.96
vn -0.507207 -0.240958 -0.827454
v -9.39181 -112.652 1336.12
vn -0.447986 0.299483 -0.842389
v -10.1081 -109.832 1336.46
vn -0.728002 -0.204275 0.654435
v -15.8329 -107.036 1351.18
vn 0.406132 0.426295 0.808288
v -13.2187 -106.189 1351.19
vn 0.141592 0.342126 0.928925
v -15.0409 -105.312 1351.78
vn -0.161523 0.114875 0.98016
v -14.5302 -106.87 1351.99
vn 0.244697 0.967803 -0.0589936
v -14.1812 -102.295 1347.46
vn 0.43484 0.705498 0.559631
v -13.9821 -102.999 1349.48
vn -0.0191394 -0.97131 0.237045
v -9.10792 -116.513 1344.95
vn 0.330714 -0.650253 0.683959
v -7.08191 -115.217 1346.32
vn 0.614086 -0.723716 0.314854
v -11.0403 -114.744 1350.35
vn 0.483776 -0.674998 0.557081
v -9.54128 -114.93 1348.15
vn 0.733586 -0.39513 0.552924
v -9.57637 -113.313 1349.79
vn 0.548854 -0.405093 0.731204
v -8.43575 -113.949 1348.18
vn -0.592314 -0.116239 0.797278
v -12.8064 -111.754 1353.62
vn 0.561946 -0.277364 0.779286
v -12.1858 -113.425 1353.53
vn 0.157155 0.0617802 0.98564
v -12.2556 -112.33 1353.62
vn 0.753621 -0.355271 0.553026
v -11.3491 -113.696 1352.66
vn 0.685727 0.00738175 0.727822
v -11.5629 -112.539 1353.17
vn 0.599244 0.00487955 0.800552
v -6.67241 -110.12 1347.41
vn 0.0934964 0.305041 0.947738
v -12.7889 -110.748 1353.47
vn 0.591751 0.299632 0.748366
v -11.9399 -110.934 1353.12
vn 0.777285 0.0538412 0.626841
v -9.76228 -111.4 1350.71
vn -0.512094 -0.108429 -0.852058
v -1.67206 -113.468 1332.45
vn 0.592562 0.389117 0.705307
v -8.35985 -107.318 1347.46
vn 0.590098 0.485545 0.645004
v -11.4756 -105.773 1349.71
vn -0.126415 0.801544 -0.584419
v -6.15692 -107.378 1337.03
vn 0.17616 0.969824 -0.168549
v -9.46268 -104.54 1343.23
vn 0.484299 0.792386 0.370916
v -7.17723 -105.38 1344.36
vn -0.613084 -0.554711 -0.562516
v 4.11092 -117.176 1329.14
vn -0.47424 -0.673637 -0.566841
v 0.396397 -117.203 1332.86
vn 0.408628 -0.264644 0.873491
v -4.30714 -113.278 1346.05
vn -0.862046 -0.297861 -0.410067
v 4.77556 -115.003 1326.33
vn -0.709592 -0.00169263 -0.704611
v 2.27669 -114.681 1329.81
vn -0.933513 -0.0973931 -0.345062
v 7.17443 -113.524 1315.97
vn -0.892543 0.28955 -0.345729
v 4.95591 -111.363 1326.19
vn -0.481349 0.203359 -0.852613
v 3.16742 -110.539 1330.3
vn -0.363836 0.465491 -0.806809
v -1.50244 -110.105 1333.04
vn -0.776393 0.00534523 -0.630227
v 7.26249 -112.45 1315.61
vn -0.941099 0.136377 -0.309408
v 6.55322 -109.47 1316.51
vn -0.619245 0.0880004 -0.780251
v 7.46473 -107.281 1316.03
vn -0.223648 -0.972008 -0.071992
v 2.0561 -119.279 1335.92
vn 0.116923 -0.926573 0.357481
v 4.37697 -119.095 1338.37
vn 0.207676 -0.747251 0.631257
v 3.11764 -118.155 1340.39
vn -0.485482 -0.810888 -0.326754
v 8.11199 -118.472 1326
vn -0.277454 -0.928067 -0.248416
v 6.14721 -119.626 1331.79
vn -0.0583439 -0.957723 -0.281713
v 11.1903 -116.822 1316.94
vn -0.339608 -0.275892 -0.899194
v 9.42707 -115.765 1315.81
vn -0.679216 0.723988 -0.120444
v 6.0417 -109.012 1327.96
vn -0.182226 0.935708 -0.302068
v 5.32902 -108.076 1332.98
vn -0.4041 0.90687 0.119537
v 9.62943 -105.371 1317.23
vn 0.0973265 -0.990193 0.100229
v 7.26167 -119.792 1334.7
vn 0.417136 -0.654077 0.631016
v 7.95355 -117.785 1338.61
vn 0.0261107 -0.987893 -0.152924
v 10.5874 -119.106 1326.55
vn 0.455117 -0.882556 0.118165
v 11.7312 -119.09 1330.89
vn 0.482986 -0.774476 0.408548
v 10.206 -118.69 1335.26
vn 0.448995 -0.18229 0.874742
v 4.38266 -114.827 1342.43
vn 0.366454 -0.918778 -0.146828
v 13.5544 -117.631 1320.9
vn 0.564189 0.45577 0.688451
v 7.99255 -110.363 1339.28
vn 0.296296 0.0784986 -0.951865
v 16.364 -115.355 1317.14
vn -0.108314 0.985205 0.132811
v 9.58531 -107.512 1329.81
vn 0.161561 0.405076 -0.899895
v 13.2625 -105.466 1317.45
vn 0.230378 0.94011 0.251234
v 14.6928 -105.267 1317.89
vn 0.662237 -0.645553 0.3804
v 13.7272 -115.862 1333.8
vn 0.69523 -0.202988 0.68953
v 11.2653 -115.538 1337.29
vn 0.79105 -0.590687 0.159151
v 14.9535 -116.951 1329.02
vn 0.953073 -0.274687 0.127278
v 17.4266 -113.593 1324.18
vn 0.9381 0.127537 0.32203
v 16.4632 -111.636 1328.17
vn 0.37355 0.881108 0.290015
v 10.6288 -108.989 1334.59
vn 0.761037 0.399859 0.510819
v 13.2155 -110.966 1334.06
vn 0.459481 0.0596476 -0.886182
v 17.3844 -108.757 1318.11
vn 0.989481 0.131925 0.0593565
v 18.2457 -110.58 1318.87
vn 0.767387 0.603401 0.216849
v 16.7125 -106.928 1318.66
vn -0.549636 0.0703537 0.832436
v -17.8865 -111.528 1349.92
vn -0.0192848 0.0120192 0.999742
v -17.4726 -107.869 1349.88
vn -0.496468 -0.159797 0.85322
v -16.3213 -111.119 1349.95
vn 0.0120118 -0.803486 0.595203
v -14.0506 -115.819 1353.04
vn 0.361287 -0.451057 0.8161
v -13.1778 -114.549 1353.45
vn -0.2379 0.205319 0.949341
v -13.7633 -110.751 1353.22
vn -0.171334 0.193121 0.9661
v -15.0336 -107.367 1351.96
vn 0.372412 0.308883 0.875158
v -14.5302 -106.87 1351.99
vn -0.075872 0.0528136 0.995718
v -12.8064 -111.754 1353.62
vn -0.111182 -0.014147 0.993699
v -12.1858 -113.425 1353.53
vn -0.339608 -0.275892 -0.899194
v 7.17443 -113.524 1315.97
vn -0.699026 -0.665016 -0.2629
v 7.17443 -113.524 1315.97
vn -0.631727 0.646283 -0.428064
v 3.16742 -110.539 1330.3
vn -0.339608 -0.275892 -0.899194
v 7.26249 -112.45 1315.61
vn 0.186136 0.0670698 -0.980232
v 7.26249 -112.45 1315.61
vn 0.157134 0.219573 -0.962859
v 7.46473 -107.281 1316.03
vn -0.819609 0.572735 -0.0146746
v 7.46473 -107.281 1316.03
vn 0.188265 -0.553505 -0.811288
v 11.1903 -116.822 1316.94
vn -0.532062 -0.798724 -0.280979
v 9.42707 -115.765 1315.81
vn 0.184451 0.0614261 -0.98092
v 9.42707 -115.765 1315.81
vn 0.188265 -0.553505 -0.811288
v 9.42707 -115.765 1315.81
vn 0.0624153 0.670082 -0.739659
v 9.62943 -105.371 1317.23
vn 0.188265 -0.553505 -0.811288
v 16.364 -115.355 1317.14
vn 0.70262 -0.702845 -0.111058
v 16.364 -115.355 1317.14
vn 0.0556704 0.826022 -0.560882
v 14.6928 -105.267 1317.89
vn 0.24821 0.112545 -0.962146
v 14.6928 -105.267 1317.89
vn 0.606842 0.424772 -0.671798
v 14.6928 -105.267 1317.89
vn 0.890859 -0.0333739 0.453053
v 13.7272 -115.862 1333.8
vn 0.916295 0.377158 -0.134739
v 17.3844 -108.757 1318.11
vn 0.606842 0.424772 -0.671798
v 17.3844 -108.757 1318.11
vn 0.667064 0.00671075 -0.74497
v 18.2457 -110.58 1318.87
vn 0.606842 0.424772 -0.671798
v 16.7125 -106.928 1318.66
f 10//10 1//1 17//17
f 10//10 12//12 1//1
f 17//17 1//1 18//18
f 18//18 1//1 20//20
f 5//5 3//3 40//40
f 5//5 40//40 2//2
f 6//6 4//4 5//5
f 5//5 4//4 3//3
f 3//3 4//4 11//11
f 6//6 5//5 2//2
f 6//6 2//2 7//7
f 6//6 7//7 14//14
f 16//16 14//14 50//50
f 50//50 14//14 7//7
f 51//51 16//16 50//50
f 17//17 8//8 11//11
f 11//11 9//9 3//3
f 9//9 11//11 8//8
f 9//9 47//47 3//3
f 11//11 10//10 17//17
f 4//4 12//12 10//10
f 10//10 11//11 4//4
f 12//12 4//4 6//6
f 6//6 14//14 12//12
f 12//12 14//14 13//13
f 134//134 15//15 13//13
f 16//16 135//135 14//14
f 136//136 51//51 15//15
f 15//15 51//51 21//21
f 21//21 51//51 63//63
f 18//18 62//62 8//8
f 17//17 18//18 8//8
f 25//25 62//62 18//18
f 20//20 25//25 18//18
f 12//12 19//19 1//1
f 1//1 26//26 20//20
f 19//19 26//26 1//1
f 12//12 13//13 22//22
f 22//22 19//19 12//12
f 19//19 27//27 26//26
f 19//19 22//22 27//27
f 13//13 15//15 21//21
f 22//22 13//13 21//21
f 22//22 21//21 23//23
f 63//63 24//24 21//21
f 32//32 22//22 23//23
f 27//27 22//22 32//32
f 24//24 34//34 23//23
f 34//34 32//32 23//23
f 24//24 23//23 21//21
f 24//24 36//36 34//34
f 26//26 27//27 29//29
f 20//20 26//26 28//28
f 25//25 20//20 28//28
f 28//28 26//26 29//29
f 27//27 33//33 29//29
f 31//31 28//28 30//30
f 31//31 25//25 28//28
f 29//29 30//30 28//28
f 33//33 35//35 29//29
f 29//29 35//35 30//30
f 31//31 87//87 25//25
f 35//35 38//38 30//30
f 87//87 31//31 67//67
f 67//67 31//31 30//30
f 67//67 30//30 38//38
f 27//27 32//32 33//33
f 33//33 32//32 34//34
f 37//37 34//34 36//36
f 37//37 33//33 34//34
f 37//37 35//35 33//33
f 39//39 37//37 36//36
f 24//24 39//39 36//36
f 37//37 38//38 35//35
f 39//39 38//38 37//37
f 48//48 40//40 3//3
f 40//40 48//48 41//41
f 41//41 43//43 40//40
f 41//41 48//48 49//49
f 40//40 43//43 2//2
f 42//42 2//2 43//43
f 42//42 7//7 2//2
f 45//45 7//7 42//42
f 7//7 45//45 52//52
f 41//41 44//44 43//43
f 43//43 137//137 42//42
f 49//49 44//44 41//41
f 44//44 137//137 43//43
f 55//55 52//52 45//45
f 44//44 46//46 137//137
f 138//138 137//137 46//46
f 44//44 71//71 46//46
f 48//48 3//3 47//47
f 47//47 69//69 48//48
f 69//69 49//49 48//48
f 49//49 71//71 44//44
f 52//52 50//50 7//7
f 52//52 51//51 50//50
f 51//51 52//52 53//53
f 53//53 54//54 51//51
f 55//55 56//56 52//52
f 53//53 52//52 56//56
f 53//53 57//57 54//54
f 56//56 57//57 53//53
f 54//54 57//57 75//75
f 75//75 59//59 54//54
f 139//139 142//142 81//81
f 46//46 76//76 138//138
f 55//55 143//143 56//56
f 143//143 77//77 56//56
f 77//77 57//57 56//56
f 57//57 77//77 142//142
f 8//8 61//61 9//9
f 61//61 91//91 9//9
f 91//91 47//47 9//9
f 54//54 63//63 51//51
f 63//63 59//59 60//60
f 63//63 54//54 59//59
f 81//81 140//140 139//139
f 81//81 58//58 140//140
f 66//66 140//140 58//58
f 64//64 141//141 58//58
f 81//81 64//64 58//58
f 82//82 64//64 81//81
f 66//66 65//65 140//140
f 62//62 61//61 8//8
f 68//68 64//64 86//86
f 141//141 64//64 65//65
f 82//82 86//86 64//64
f 24//24 63//63 60//60
f 140//140 65//65 24//24
f 65//65 39//39 24//24
f 65//65 68//68 39//39
f 64//64 68//68 65//65
f 62//62 25//25 87//87
f 89//89 88//88 67//67
f 88//88 87//87 67//67
f 38//38 68//68 67//67
f 68//68 89//89 67//67
f 68//68 38//38 39//39
f 104//104 70//70 69//69
f 70//70 72//72 49//49
f 69//69 70//70 49//49
f 70//70 74//74 72//72
f 49//49 72//72 71//71
f 71//71 73//73 78//78
f 72//72 73//73 71//71
f 73//73 72//72 74//74
f 46//46 71//71 78//78
f 76//76 46//46 78//78
f 77//77 81//81 142//142
f 79//79 76//76 78//78
f 76//76 79//79 77//77
f 82//82 77//77 79//79
f 77//77 82//82 81//81
f 73//73 83//83 78//78
f 78//78 83//83 79//79
f 79//79 83//83 82//82
f 80//80 85//85 83//83
f 74//74 80//80 73//73
f 83//83 73//73 80//80
f 85//85 82//82 83//83
f 61//61 62//62 84//84
f 62//62 98//98 84//84
f 91//91 61//61 84//84
f 62//62 87//87 98//98
f 89//89 86//86 85//85
f 86//86 82//82 85//85
f 110//110 98//98 87//87
f 86//86 89//89 68//68
f 102//102 47//47 91//91
f 47//47 102//102 69//69
f 104//104 117//117 70//70
f 91//91 84//84 90//90
f 90//90 106//106 91//91
f 74//74 70//70 92//92
f 74//74 92//92 80//80
f 117//117 92//92 70//70
f 93//93 105//105 90//90
f 90//90 94//94 93//93
f 98//98 94//94 84//84
f 97//97 94//94 98//98
f 94//94 90//90 84//84
f 99//99 95//95 100//100
f 100//100 95//95 93//93
f 147//147 108//108 144//144
f 93//93 96//96 100//100
f 145//145 152//152 105//105
f 93//93 145//145 105//105
f 93//93 94//94 96//96
f 146//146 98//98 110//110
f 146//146 96//96 94//94
f 109//109 96//96 146//146
f 101//101 99//99 100//100
f 120//120 148//148 149//149
f 120//120 153//153 148//148
f 109//109 150//150 100//100
f 96//96 109//109 100//100
f 106//106 102//102 91//91
f 102//102 106//106 112//112
f 112//112 103//103 102//102
f 102//102 103//103 69//69
f 103//103 104//104 69//69
f 113//113 117//117 104//104
f 106//106 90//90 105//105
f 114//114 106//106 105//105
f 117//117 80//80 92//92
f 117//117 85//85 80//80
f 114//114 105//105 107//107
f 154//154 156//156 151//151
f 105//105 152//152 107//107
f 110//110 109//109 146//146
f 110//110 121//121 109//109
f 121//121 110//110 129//129
f 88//88 110//110 87//87
f 88//88 129//129 110//110
f 89//89 129//129 88//88
f 150//150 109//109 111//111
f 149//149 155//155 122//122
f 109//109 121//121 111//111
f 111//111 121//121 123//123
f 155//155 158//158 122//122
f 120//120 149//149 122//122
f 115//115 116//116 112//112
f 103//103 113//113 104//104
f 116//116 113//113 103//103
f 116//116 103//103 112//112
f 125//125 117//117 113//113
f 118//118 115//115 114//114
f 106//106 114//114 112//112
f 112//112 114//114 115//115
f 115//115 124//124 116//116
f 125//125 113//113 116//116
f 117//117 119//119 85//85
f 118//118 107//107 157//157
f 107//107 118//118 114//114
f 130//130 129//129 119//119
f 119//119 89//89 85//85
f 119//119 129//129 89//89
f 129//129 123//123 121//121
f 122//122 159//159 120//120
f 129//129 133//133 123//123
f 118//118 126//126 115//115
f 126//126 124//124 115//115
f 125//125 116//116 124//124
f 119//119 125//125 130//130
f 117//117 125//125 119//119
f 157//157 126//126 118//118
f 128//128 126//126 127//127
f 128//128 161//161 126//126
f 130//130 128//128 133//133
f 130//130 125//125 161//161
f 130//130 161//161 128//128
f 126//126 157//157 127//127
f 128//128 127//127 132//132
f 157//157 132//132 127//127
f 130//130 133//133 129//129
f 120//120 159//159 131//131
f 131//131 164//164 120//120
f 132//132 162//162 133//133
f 132//132 133//133 128//128
f 163//163 160//160 165//165
