# Wavafront OBJ file of BodyParts3D
# BodyParts3D, Copyright(C) 2010-2011 The Database Center for Life Science licensed under CC Attribution-Share Alike 2.1 Japan.
vn -0.636197 -0.732947 -0.240919
v -90.5518 -226.632 -0.527197
vn -0.372447 -0.163497 -0.913538
v -90.0955 -225.501 -2.80053
vn -0.850142 -0.319039 -0.418895
v -91.7014 -224.791 -1.37605
vn -0.900585 -0.413422 0.134272
v -91.7223 -225.058 -0.301206
vn -0.426222 -0.131642 0.894989
v -91.1101 -225.664 0.367027
vn -0.378355 -0.732508 0.565932
v -90.6699 -225.987 0.228649
vn -0.68109 0.069631 -0.728882
v -91.1195 -223.04 -2.28774
vn -0.241294 0.211857 -0.947045
v -89.7649 -222.521 -3.11466
vn -0.885238 0.000389514 -0.465139
v -91.9009 -223.576 -1.21676
vn -0.98576 -0.141825 -0.0903486
v -92.1051 -223.85 -0.617825
vn -0.988281 0.149869 0.0289935
v -92.1012 -222.95 -0.666662
vn -0.85234 0.482949 0.200692
v -91.8742 -222.356 -0.553764
vn -0.855274 -0.0381379 0.51677
v -92.0521 -223.843 -0.324531
vn -0.752422 0.202732 0.626707
v -91.9793 -222.948 -0.406345
vn -0.518169 0.0739643 0.852074
v -90.8347 -223.567 0.565052
vn -0.582504 0.280778 -0.762793
v -90.3221 -220.966 -2.13314
vn -0.146858 0.620684 -0.770184
v -89.746 -220.837 -2.12552
vn -0.33055 0.830014 -0.449237
v -89.8793 -220.676 -1.86327
vn -0.323473 0.666586 -0.671586
v -89.2889 -220.4 -1.85482
vn -0.843848 0.394368 -0.36386
v -91.5769 -221.795 -1.46662
vn -0.622935 0.778628 -0.0754277
v -90.5553 -220.657 -0.870758
vn -0.459975 0.801621 -0.381873
v -90.1695 -220.326 -0.640134
vn -0.856993 -0.488318 -0.164644
v -90.3335 -208.295 -0.36029
vn -0.647777 -0.430594 -0.628469
v -89.5059 -208.956 -1.21804
vn -0.929136 -0.0562304 -0.365437
v -90.788 -206.797 -1.09761
vn -0.639763 -0.441503 -0.62911
v -89.918 -207.459 -1.92787
vn -0.960159 0.276205 -0.0424946
v -90.7058 -205.577 -0.398669
vn -0.946416 -0.162854 0.278881
v -90.8082 -207.047 0.532813
vn -0.743445 0.426657 -0.515028
v -90.129 -204.723 -1.14751
vn -0.831389 0.54868 0.0879898
v -90.3017 -204.686 -0.168647
vn -0.603526 0.787702 -0.123624
v -89.95 -204.299 -0.698191
vn -0.238652 -0.938314 -0.250224
v -87.2746 -227.385 -2.29902
vn -0.480452 -0.875946 -0.0433999
v -89.8181 -226.942 -0.392605
vn -0.616087 -0.782627 0.0890677
v -89.324 -227.399 0.310849
vn -0.672323 -0.700811 0.238426
v -89.403 -226.901 1.55308
vn -0.478468 -0.329535 0.813926
v -88.8003 -227.255 1.71449
vn -0.506928 0.0030235 0.861983
v -88.8259 -226.918 1.76535
vn 0.0608147 -0.00980154 -0.998101
v -86.5161 -224.767 -3.38041
vn -0.637005 -0.688337 0.347011
v -90.2081 -226.555 0.048475
vn -0.656388 -0.635406 0.406712
v -90.4219 -225.992 0.397496
vn -0.741384 -0.108238 0.662295
v -90.4541 -225.688 0.457425
vn -0.747781 -0.649435 0.138048
v -90.1521 -226.283 1.07478
vn -0.589422 0.0506229 0.806238
v -90.028 -224.49 0.944039
vn -0.309144 0.136367 0.941187
v -89.6352 -225.995 1.39029
vn -0.331457 0.0545642 0.941891
v -89.567 -225.399 1.30535
vn -0.194523 0.235885 0.952113
v -89.3476 -226.304 1.48779
vn -0.410942 0.266043 0.871979
v -88.8007 -226.62 1.73663
vn -0.36291 0.246618 0.898597
v -88.6207 -226.034 1.47871
vn 0.0375703 0.400564 -0.915498
v -86.384 -223.81 -3.00022
vn -0.405515 -0.108628 0.907611
v -90.5316 -224.178 0.628363
vn -0.0703247 0.230221 -0.970594
v -87.7472 -221.383 -2.46967
vn -0.810809 0.258311 0.525228
v -89.0733 -220.013 1.27795
vn -0.915654 0.259717 -0.306799
v -88.7842 -218.012 -1.66472
vn -0.971777 0.218722 0.0883781
v -89.0775 -217.942 0.251406
vn -0.377932 -0.00283103 -0.925829
v -88.3395 -213.234 -2.0077
vn -0.971276 0.0184474 0.23724
v -88.5363 -214.648 0.63138
vn -0.593467 -0.0408634 -0.80382
v -87.7972 -210.558 -2.16747
vn -0.840495 -0.306915 0.44651
v -88.4141 -210.107 1.70021
vn -0.277041 -0.0159578 -0.960725
v -85.9219 -209.166 -3.21646
vn -0.61797 -0.259523 -0.742133
v -88.7727 -209.594 -1.42274
vn -0.516153 -0.277435 -0.810318
v -87.8529 -209.057 -2.28923
vn -0.694621 -0.241431 -0.677652
v -89.1853 -209.813 -0.961695
vn -0.873161 0.32335 0.364739
v -90.4256 -205.544 1.09686
vn -0.725987 0.0487488 0.685978
v -89.3676 -206.138 2.75426
vn -0.292504 0.53651 -0.791579
v -88.6161 -203.981 -1.64205
vn -0.645477 0.723194 0.245663
v -89.9435 -204.475 0.389174
vn -0.458068 0.829182 0.32036
v -88.3112 -203.371 0.666562
vn -0.686008 0.577685 0.44235
v -90.0529 -204.959 1.06146
vn -0.301085 0.943605 -0.137687
v -86.9593 -202.62 -0.290366
vn 0.141501 -0.434258 -0.889605
v -84.3536 -227.513 -1.83301
vn -0.201283 -0.979133 0.0279864
v -88.4058 -227.754 1.6405
vn -0.385199 0.0373613 0.922077
v -87.8623 -226.936 2.48473
vn -0.0336384 -0.972335 0.231158
v -85.9828 -228.226 2.16168
vn -0.429322 -0.494905 0.755481
v -86.5368 -227.889 2.61407
vn 0.160349 -0.292579 -0.942702
v -83.6926 -226.352 -2.27379
vn -0.574742 0.314398 0.75553
v -88.5643 -226.624 1.92336
vn -0.363844 0.388061 0.846774
v -88.0379 -226.338 2.15532
vn -0.590995 0.237918 0.770792
v -88.1681 -226.041 1.88361
vn -0.593428 0.271905 0.757569
v -87.9317 -226.045 2.07034
vn -0.337239 0.0128759 0.941331
v -87.9065 -225.746 2.04163
vn -0.0809216 0.181199 0.980112
v -87.2401 -226.073 2.1057
vn 0.261847 -0.00934537 -0.965064
v -83.6616 -223.966 -2.79243
vn 0.214372 -0.158914 -0.963738
v -84.8434 -224.53 -3.19493
vn 0.173044 0.417164 -0.892205
v -84.2647 -223.345 -2.94419
vn 0.07873 0.649296 -0.75645
v -84.5068 -222.875 -2.55474
vn 0.131999 0.430308 -0.892979
v -84.5844 -222.715 -2.42955
vn 0.155979 0.684787 -0.711855
v -84.2521 -222.81 -2.39373
vn 0.245718 0.295838 -0.923094
v -83.7053 -223.361 -2.7044
vn 0.162966 0.548231 -0.820295
v -83.7742 -223.054 -2.58766
vn 0.114002 0.038499 -0.992734
v -85.3495 -221.478 -2.31053
vn -0.447472 -0.0581299 0.892407
v -86.63 -220.062 3.02333
vn -0.733949 -0.219264 0.642839
v -88.5402 -207.364 3.09119
vn -0.646076 0.0861927 0.75839
v -88.3811 -206.159 3.43826
vn -0.689577 0.267768 0.672892
v -87.6163 -205.575 3.93314
vn -0.14004 0.855177 0.499061
v -87.4004 -203.903 2.00159
vn -0.00493073 0.947626 0.319344
v -86.1591 -204.347 2.82987
vn -0.54553 0.53522 0.644931
v -88.4406 -204.967 3.01874
vn -0.396174 0.751727 0.527212
v -86.9713 -204.995 4.13
vn -0.131466 0.894368 0.427577
v -86.9589 -202.709 0.257553
vn 0.476374 -0.78383 -0.398344
v -82.7635 -227.291 -1.5325
vn 0.192016 -0.98103 -0.0266522
v -84.5251 -228.242 0.601621
vn 0.40846 -0.846074 0.342518
v -83.6655 -227.875 1.49445
vn 0.532941 -0.84499 0.0443417
v -83.3266 -227.771 0.992313
vn 0.339499 -0.661467 0.668732
v -85.6595 -228.025 2.3593
vn 0.262679 -0.410058 -0.873414
v -82.701 -226.39 -2.14999
vn 0.666119 -0.483238 -0.568125
v -81.4127 -225.535 -1.90201
vn 0.968932 -0.136058 0.206542
v -81.0494 -224.93 -1.27399
vn 0.850638 -0.525751 0.000840209
v -81.459 -226.213 -0.750228
vn 0.15337 -0.115941 0.981344
v -84.4534 -225.051 2.25425
vn 0.493427 0.203551 0.845634
v -82.54 -225.089 1.34796
vn 0.14617 0.138781 0.979476
v -84.9998 -226.454 2.49798
vn 0.234295 0.0281701 -0.971757
v -81.9809 -224.031 -2.62934
vn 0.237044 0.313169 -0.919639
v -82.3001 -222.499 -2.08493
vn 0.542053 0.19847 -0.816571
v -82.0433 -222.505 -1.92965
vn 0.711277 -0.0459495 0.701409
v -82.4554 -224.192 1.35138
vn 0.343962 -0.0105464 -0.938924
v -82.3288 -221.595 -2.00989
vn 0.607252 0.121235 -0.785206
v -81.3909 -221.31 -1.24059
vn -0.0485196 -0.144943 -0.98825
v -81.0076 -217.485 -3.35736
vn -0.735829 -0.102254 0.669402
v -86.6635 -213.728 3.84151
vn -0.331064 -0.283786 0.899924
v -84.9115 -214.066 4.9886
vn -0.683456 -0.0897833 0.72445
v -85.9277 -209.182 6.17052
vn 0.14344 0.404946 -0.903019
v -81.6794 -206.333 -3.04586
vn -0.758804 0.112434 0.641541
v -86.289 -205.876 5.73676
vn -0.649735 0.102934 0.75316
v -86.078 -205.878 5.9628
vn -0.581482 0.431333 0.689804
v -86.0426 -205.58 5.91836
vn -0.472557 0.112549 0.874084
v -85.8313 -205.883 6.1338
vn -0.264125 0.836935 0.479352
v -85.5737 -205.18 5.76008
vn 0.105336 0.847955 0.519497
v -83.1661 -204.408 2.62323
vn 0.29277 0.746043 -0.598085
v -81.3819 -202.584 -0.619323
vn 0.268508 0.960047 0.0788254
v -81.2891 -202.483 -0.207374
vn 0.00569136 0.822722 -0.568415
v -83.3707 -202.275 -0.850376
vn -0.0516808 0.995144 0.0837705
v -83.2787 -202.191 -0.4379
vn 0.123586 0.985168 -0.119044
v -82.8636 -202.197 -0.526789
vn 0.0729599 0.925311 0.372124
v -82.5296 -202.353 0.0559
vn 0.0329224 0.818139 0.574078
v -82.4399 -202.591 0.46107
vn 0.970534 -0.0900717 0.223496
v -81.4664 -225.777 -0.064523
vn 0.67963 0.466603 0.566025
v -81.9044 -225.425 1.06283
vn 0.906026 0.136329 0.400664
v -81.5767 -225.164 0.18681
vn 0.797816 0.357806 0.485247
v -81.8629 -225.137 0.715507
vn 0.70279 0.266765 0.659487
v -82.0375 -225.122 0.959463
vn 0.945496 -0.0976227 0.310655
v -81.7327 -226.028 1.2084
vn 0.82192 0.371692 0.431615
v -81.7395 -225.435 0.812375
vn 0.713023 -0.61308 0.340193
v -82.363 -226.892 1.56544
vn 0.538925 -0.588891 0.602301
v -82.7475 -226.862 2.03041
vn 0.571192 0.387701 0.723483
v -81.8718 -226.014 1.47529
vn 0.873063 -0.201055 0.444227
v -81.5736 -223.055 0.425998
vn 0.943739 -0.184471 0.274458
v -81.3497 -222.781 -0.160186
vn 0.905942 -0.223277 -0.359744
v -81.2848 -222.355 0.215195
vn 0.876616 -0.426268 0.22325
v -80.0426 -218.279 1.50133
vn 0.797713 -0.58387 -0.150827
v -78.2099 -216.328 -1.00163
vn 0.409674 -0.36739 0.83498
v -82.5542 -215.377 4.61715
vn 0.203732 -0.422394 -0.883219
v -77.6875 -214.003 -2.845
vn -0.00976706 -0.36416 -0.931285
v -77.2911 -213.72 -2.89535
vn 0.531727 -0.604925 -0.592733
v -77.4224 -214.895 -2.18098
vn 0.0480982 -0.00480012 -0.998831
v -78.1705 -211.003 -3.65299
vn -0.175292 -0.17668 0.968533
v -83.7022 -210.147 7.11752
vn 0.154384 0.391064 -0.907323
v -77.8831 -208.289 -2.90109
vn 0.180126 0.559427 -0.809071
v -78.2642 -207.172 -2.27522
vn 0.312112 0.904504 0.290618
v -81.0325 -205.496 3.70786
vn -0.291874 0.420453 0.859086
v -83.884 -205.637 6.99938
vn -0.0101397 0.896967 0.441981
v -83.5283 -205.36 6.73576
vn 0.414115 0.820936 0.393157
v -78.9132 -203.468 -0.044936
vn 0.229615 0.803167 0.549726
v -80.8835 -203.046 0.802651
vn 0.152247 0.965778 0.209984
v -84.0799 -204.945 4.56669
vn 0.689546 -0.564778 0.453378
v -78.2428 -215.985 0.388277
vn 0.0163202 -0.610655 -0.791729
v -76.6882 -214.041 -2.73299
vn 0.0470462 -0.541468 -0.839404
v -75.7782 -213.787 -3.02513
vn 0.0730861 -0.84847 -0.524173
v -75.8157 -214.272 -2.43202
vn -0.0332036 -0.96585 -0.256966
v -75.6489 -214.521 -1.59448
vn 0.175568 -0.84523 -0.504739
v -74.9047 -214.467 -2.18926
vn 0.127166 -0.961789 -0.242469
v -74.82 -214.561 -1.77141
vn 0.749 -0.656248 0.0913122
v -76.9898 -215.01 -0.645472
vn 0.402149 -0.253829 -0.879686
v -73.9841 -212.659 -2.99654
vn 0.198146 0.333746 -0.921603
v -75.3453 -208.697 -2.96877
vn 0.13398 0.532392 -0.835828
v -76.3021 -207.743 -2.56348
vn 0.401886 0.662485 -0.63214
v -75.4971 -206.942 -1.57155
vn 0.42978 0.68518 -0.588063
v -75.6893 -205.836 -0.685902
vn 0.457266 0.669711 0.585145
v -76.5057 -205.827 0.931729
vn 0.41787 0.823767 0.383136
v -77.9229 -206.685 3.2833
vn -0.19989 0.0702768 0.977295
v -82.7292 -206.274 7.40271
vn 0.240971 0.905713 0.348735
v -82.0753 -205.537 6.97043
vn 0.040585 0.402058 0.914714
v -82.0506 -206 7.46833
vn 0.311149 0.70578 -0.636444
v -76.8867 -205.253 -0.473738
vn 0.409048 0.856272 -0.3154
v -76.5673 -205.18 0.139436
vn 0.593978 0.801709 0.0667318
v -75.7471 -205.428 -0.031202
vn 0.442478 0.704465 0.554926
v -78.566 -204.236 1.04849
vn 0.324103 0.722871 0.610258
v -79.5351 -205.353 2.52203
vn 0.337968 -0.901141 -0.27152
v -74.3969 -214.374 -1.86613
vn 0.429768 -0.751884 0.49997
v -74.3056 -213.174 1.34376
vn 0.377834 -0.678273 0.630228
v -76.6704 -213.308 1.67776
vn 0.680677 -0.510343 -0.525574
v -73.0007 -212.078 -2.28741
vn 0.304141 -0.565814 0.766389
v -74.7417 -212.175 2.05044
vn 0.367168 -0.656328 0.659106
v -74.8007 -211.497 2.71623
vn 0.344151 -0.451625 0.823162
v -79.2547 -210.958 6.29657
vn 0.478733 0.0975605 -0.872523
v -73.3938 -210.272 -2.72306
vn 0.690447 0.061654 -0.720751
v -72.9262 -209.98 -2.33115
vn 0.463472 0.462139 -0.756056
v -73.5553 -208.755 -2.42239
vn 0.638108 0.239424 -0.731775
v -72.9725 -209.374 -2.23918
vn 0.822079 0.0905762 -0.562123
v -72.5248 -209.681 -1.83702
vn 0.751082 0.381292 -0.538974
v -72.6016 -209.073 -1.69788
vn 0.908068 0.20591 -0.36471
v -72.3853 -209.376 -1.49031
vn 0.861628 0.439667 -0.253556
v -72.4516 -209.069 -1.37749
vn 0.942139 -0.0116958 -0.335019
v -72.2271 -209.975 -1.20291
vn 0.472976 -0.533663 0.701069
v -75.9667 -210.24 4.75181
vn 0.610294 0.598231 0.519289
v -76.5462 -208.085 5.68463
vn 0.541419 -0.0475272 0.839408
v -77.1571 -208.339 6.37712
vn 0.677156 0.710341 -0.192031
v -73.1288 -208.11 -1.40359
vn 0.706978 0.641383 -0.298009
v -74.9141 -206.537 -0.502123
vn 0.614522 0.744727 -0.260277
v -74.65 -206.875 -0.669661
vn 0.753729 0.64934 0.101243
v -74.6801 -206.842 -0.333302
vn 0.595542 0.713834 0.368471
v -75.1187 -206.79 0.810758
vn 0.224207 0.00748308 0.974513
v -79.0463 -207.334 7.20129
vn 0.397556 0.583182 0.708413
v -78.7945 -207.049 7.03279
vn 0.336325 -0.09341 0.937102
v -78.381 -207.669 6.97797
vn 0.495539 0.80543 0.325152
v -78.3154 -207.132 6.63202
vn 0.517527 0.334621 0.787524
v -78.3882 -207.369 6.95617
vn 0.63014 -0.456764 0.627926
v -73.3219 -211.338 1.8752
vn 0.946832 -0.309924 0.0863548
v -71.9746 -210.554 -0.159695
vn 0.93375 0.355322 -0.0430913
v -72.0198 -209.654 -0.240394
vn 0.893085 -0.142376 0.426765
v -72.254 -209.605 1.03621
vn 0.710426 0.38723 0.587663
v -75.0132 -209.083 4.58709
vn 0.640962 0.70389 0.306115
v -73.9052 -207.806 2.0115
vn -0.471687 -0.725421 0.501274
v -90.5518 -226.632 -0.527197
vn -0.550152 -0.698454 -0.457706
v -90.0955 -225.501 -2.80053
vn -0.779555 -0.60373 0.166744
v -91.1101 -225.664 0.367027
vn -0.360452 -0.736623 0.572242
v -91.1101 -225.664 0.367027
vn 0.139094 -0.223817 0.964655
v -90.6699 -225.987 0.228649
vn -0.597782 -0.168517 0.783747
v -90.6699 -225.987 0.228649
vn -0.573139 0.180726 0.799281
v -91.8742 -222.356 -0.553764
vn -0.411372 0.820459 -0.397014
v -90.3221 -220.966 -2.13314
vn -0.0458081 0.440171 -0.896745
v -90.3221 -220.966 -2.13314
vn -0.785032 0.212261 -0.581954
v -89.2889 -220.4 -1.85482
vn -0.81083 0.434048 0.39263
v -90.1695 -220.326 -0.640134
vn -0.858368 0.346143 -0.378667
v -90.1695 -220.326 -0.640134
vn -0.420866 0.190965 -0.886794
v -89.918 -207.459 -1.92787
vn 0.0250578 -0.387816 -0.921396
v -87.2746 -227.385 -2.29902
vn -0.386142 -0.0450528 0.921338
v -89.403 -226.901 1.55308
vn -0.552406 -0.217428 0.804719
v -90.4219 -225.992 0.397496
vn -0.938782 -0.159765 0.305227
v -90.4219 -225.992 0.397496
vn -0.75641 0.0138298 0.653952
v -90.1521 -226.283 1.07478
vn -0.460047 0.0698222 -0.885145
v -88.7842 -218.012 -1.66472
vn -0.994197 0.018556 -0.105965
v -88.3395 -213.234 -2.0077
vn -0.99188 -0.115833 0.0525016
v -89.1853 -209.813 -0.961695
vn -0.759032 -0.633564 0.14989
v -89.1853 -209.813 -0.961695
vn 0.0937567 -0.955559 -0.279494
v -84.3536 -227.513 -1.83301
vn -0.641992 -0.724813 0.249987
v -88.4058 -227.754 1.6405
vn -0.456483 -0.486045 0.745241
v -88.4058 -227.754 1.6405
vn -0.0925455 -0.849386 0.519594
v -86.5368 -227.889 2.61407
vn 0.114753 -0.0426332 0.992479
v -86.5368 -227.889 2.61407
vn -0.0422493 0.195926 0.979708
v -87.9317 -226.045 2.07034
vn 0.143656 0.179159 -0.973275
v -84.2521 -222.81 -2.39373
vn 0.201313 -0.88736 0.414807
v -85.6595 -228.025 2.3593
vn 0.210227 -0.1733 0.96217
v -85.6595 -228.025 2.3593
vn 0.839837 0.0562066 -0.539922
v -81.4127 -225.535 -1.90201
vn 0.879513 0.195364 -0.433924
v -81.0494 -224.93 -1.27399
vn 0.858028 0.147244 -0.492044
v -81.9809 -224.031 -2.62934
vn 0.929362 0.0931027 -0.357236
v -82.0433 -222.505 -1.92965
vn 0.648698 -0.417223 -0.636487
v -82.3288 -221.595 -2.00989
vn 0.765367 -0.412593 -0.493944
v -81.3909 -221.31 -1.24059
vn 0.584768 -0.431821 -0.686715
v -81.0076 -217.485 -3.35736
vn 0.218367 0.0920648 0.971514
v -82.7475 -226.862 2.03041
vn 0.762656 -0.372316 0.528902
v -81.8718 -226.014 1.47529
vn 0.918925 0.222833 -0.325456
v -81.3497 -222.781 -0.160186
vn 0.908796 -0.343227 0.237246
v -81.2848 -222.355 0.215195
vn 0.613975 -0.266381 0.743018
v -80.0426 -218.279 1.50133
vn 0.334179 -0.928224 -0.163475
v -77.4224 -214.895 -2.18098
vn 0.45358 0.754407 -0.474485
v -78.9132 -203.468 -0.044936
vn 0.254156 -0.91792 0.304676
v -75.6489 -214.521 -1.59448
vn 0.247009 -0.899733 0.359814
v -74.82 -214.561 -1.77141
vn 0.232423 -0.943395 -0.236611
v -76.9898 -215.01 -0.645472
vn 0.299613 -0.867812 0.396403
v -76.9898 -215.01 -0.645472
vn 0.476899 0.731018 0.488037
v -76.5673 -205.18 0.139436
vn 0.602112 -0.535408 -0.592284
v -74.3969 -214.374 -1.86613
vn 0.718982 -0.676186 0.16074
v -74.3969 -214.374 -1.86613
vn 0.83419 -0.164215 -0.52646
v -73.0007 -212.078 -2.28741
vn 0.777866 0.53564 0.328656
v -72.254 -209.605 1.03621
vn 0.639769 -0.301517 0.706953
v -75.0132 -209.083 4.58709
f 32//32 33//33 1//1
f 38//38 2//2 8//8
f 2//2 3//3 7//7
f 7//7 3//3 9//9
f 224//224 1//1 3//3
f 1//1 224//224 32//32
f 3//3 10//10 9//9
f 10//10 3//3 4//4
f 4//4 13//13 10//10
f 5//5 13//13 4//4
f 3//3 1//1 4//4
f 1//1 225//225 4//4
f 15//15 13//13 5//5
f 226//226 223//223 6//6
f 227//227 50//50 5//5
f 33//33 39//39 223//223
f 39//39 40//40 223//223
f 223//223 40//40 6//6
f 238//238 41//41 228//228
f 41//41 50//50 228//228
f 15//15 5//5 50//50
f 8//8 2//2 7//7
f 10//10 11//11 9//9
f 11//11 12//12 20//20
f 9//9 11//11 20//20
f 9//9 20//20 7//7
f 13//13 14//14 11//11
f 10//10 13//13 11//11
f 11//11 14//14 12//12
f 20//20 12//12 21//21
f 13//13 15//15 14//14
f 15//15 229//229 14//14
f 15//15 91//91 229//229
f 7//7 16//16 8//8
f 18//18 230//230 21//21
f 231//231 51//51 8//8
f 51//51 231//231 17//17
f 17//17 230//230 18//18
f 17//17 19//19 51//51
f 17//17 18//18 19//19
f 21//21 19//19 18//18
f 22//22 19//19 21//21
f 7//7 20//20 16//16
f 20//20 21//21 230//230
f 12//12 52//52 21//21
f 233//233 21//21 52//52
f 52//52 229//229 91//91
f 234//234 53//53 232//232
f 234//234 54//54 53//53
f 61//61 60//60 24//24
f 26//26 61//61 24//24
f 61//61 26//26 59//59
f 26//26 24//24 23//23
f 58//58 28//28 23//23
f 62//62 24//24 60//60
f 62//62 23//23 24//24
f 235//235 65//65 59//59
f 26//26 23//23 25//25
f 23//23 28//28 25//25
f 25//25 29//29 235//235
f 28//28 27//27 25//25
f 25//25 27//27 29//29
f 28//28 63//63 27//27
f 30//30 27//27 63//63
f 63//63 68//68 30//30
f 27//27 30//30 29//29
f 29//29 30//30 31//31
f 235//235 29//29 65//65
f 65//65 29//29 31//31
f 30//30 66//66 31//31
f 68//68 66//66 30//30
f 38//38 70//70 236//236
f 32//32 34//34 33//33
f 35//35 42//42 34//34
f 32//32 71//71 34//34
f 246//246 35//35 34//34
f 36//36 237//237 247//247
f 36//36 37//37 237//237
f 37//37 47//47 237//237
f 47//47 46//46 237//237
f 36//36 247//247 72//72
f 72//72 37//37 36//36
f 72//72 76//76 37//37
f 76//76 47//47 37//37
f 236//236 2//2 38//38
f 34//34 39//39 33//33
f 40//40 39//39 34//34
f 240//240 43//43 41//41
f 239//239 240//240 41//41
f 50//50 41//41 43//43
f 40//40 34//34 42//42
f 44//44 43//43 240//240
f 44//44 45//45 43//43
f 45//45 91//91 43//43
f 240//240 237//237 44//44
f 48//48 44//44 46//46
f 46//46 44//44 237//237
f 44//44 48//48 45//45
f 48//48 91//91 45//45
f 46//46 47//47 48//48
f 48//48 76//76 78//78
f 47//47 76//76 48//48
f 51//51 38//38 8//8
f 49//49 38//38 51//51
f 38//38 49//49 84//84
f 90//90 49//49 51//51
f 43//43 91//91 50//50
f 91//91 15//15 50//50
f 54//54 233//233 52//52
f 19//19 241//241 51//51
f 56//56 54//54 52//52
f 118//118 90//90 51//51
f 55//55 118//118 51//51
f 51//51 241//241 55//55
f 53//53 54//54 242//242
f 119//119 56//56 52//52
f 54//54 56//56 242//242
f 119//119 58//58 56//56
f 57//57 59//59 55//55
f 62//62 60//60 57//57
f 242//242 56//56 243//243
f 55//55 62//62 57//57
f 243//243 56//56 58//58
f 61//61 57//57 60//60
f 59//59 57//57 61//61
f 244//244 58//58 23//23
f 122//122 59//59 65//65
f 63//63 28//28 64//64
f 68//68 63//63 64//64
f 64//64 28//28 58//58
f 92//92 64//64 58//58
f 93//93 64//64 92//92
f 31//31 66//66 67//67
f 69//69 65//65 31//31
f 31//31 67//67 69//69
f 99//99 69//69 67//67
f 66//66 68//68 67//67
f 68//68 64//64 97//97
f 97//97 67//67 68//68
f 245//245 101//101 32//32
f 100//100 101//101 245//245
f 101//101 73//73 32//32
f 73//73 71//71 32//32
f 247//247 74//74 72//72
f 73//73 248//248 71//71
f 249//249 111//111 72//72
f 75//75 83//83 82//82
f 75//75 82//82 112//112
f 38//38 83//83 70//70
f 75//75 70//70 83//83
f 70//70 75//75 105//105
f 78//78 91//91 48//48
f 77//77 78//78 76//76
f 77//77 79//79 78//78
f 79//79 80//80 78//78
f 80//80 91//91 78//78
f 76//76 72//72 77//77
f 72//72 81//81 77//77
f 81//81 250//250 77//77
f 81//81 80//80 250//250
f 81//81 91//91 80//80
f 72//72 111//111 81//81
f 109//109 81//81 111//111
f 84//84 88//88 82//82
f 82//82 88//88 112//112
f 84//84 83//83 38//38
f 85//85 84//84 49//49
f 83//83 84//84 82//82
f 85//85 49//49 86//86
f 90//90 86//86 49//49
f 84//84 85//85 87//87
f 86//86 87//87 85//85
f 251//251 86//86 90//90
f 88//88 84//84 89//89
f 87//87 89//89 84//84
f 87//87 113//113 89//89
f 113//113 251//251 90//90
f 89//89 113//113 88//88
f 116//116 90//90 118//118
f 91//91 119//119 52//52
f 120//120 119//119 91//91
f 121//121 58//58 119//119
f 155//155 59//59 122//122
f 55//55 59//59 155//155
f 121//121 93//93 92//92
f 121//121 92//92 58//58
f 121//121 94//94 93//93
f 93//93 97//97 64//64
f 94//94 97//97 93//93
f 67//67 95//95 99//99
f 95//95 128//128 99//99
f 95//95 67//67 97//97
f 97//97 98//98 95//95
f 98//98 97//97 94//94
f 65//65 131//131 122//122
f 131//131 65//65 69//69
f 131//131 69//69 132//132
f 69//69 99//99 132//132
f 100//100 103//103 101//101
f 100//100 70//70 105//105
f 101//101 103//103 102//102
f 144//144 104//104 102//102
f 102//102 252//252 101//101
f 253//253 261//261 111//111
f 143//143 102//102 103//103
f 143//143 144//144 102//102
f 101//101 252//252 73//73
f 111//111 249//249 253//253
f 252//252 248//248 73//73
f 105//105 75//75 112//112
f 105//105 106//106 100//100
f 106//106 105//105 112//112
f 106//106 107//107 108//108
f 100//100 106//106 108//108
f 100//100 108//108 103//103
f 103//103 108//108 143//143
f 108//108 107//107 136//136
f 136//136 107//107 138//138
f 109//109 111//111 110//110
f 88//88 113//113 112//112
f 114//114 112//112 113//113
f 114//114 113//113 116//116
f 255//255 256//256 257//257
f 255//255 254//254 256//256
f 146//146 107//107 147//147
f 138//138 107//107 146//146
f 255//255 257//257 263//263
f 263//263 257//257 148//148
f 109//109 110//110 115//115
f 115//115 151//151 109//109
f 116//116 117//117 114//114
f 113//113 90//90 116//116
f 259//259 148//148 257//257
f 109//109 91//91 81//81
f 259//259 258//258 260//260
f 91//91 109//109 120//120
f 260//260 155//155 152//152
f 55//55 155//155 118//118
f 120//120 121//121 119//119
f 155//155 122//122 157//157
f 121//121 123//123 94//94
f 125//125 94//94 123//123
f 98//98 94//94 125//125
f 123//123 121//121 124//124
f 125//125 123//123 124//124
f 96//96 98//98 127//127
f 125//125 127//127 98//98
f 126//126 124//124 121//121
f 126//126 125//125 124//124
f 161//161 96//96 127//127
f 156//156 126//126 121//121
f 156//156 160//160 126//126
f 160//160 125//125 126//126
f 161//161 127//127 160//160
f 125//125 160//160 127//127
f 95//95 96//96 128//128
f 128//128 96//96 164//164
f 96//96 95//95 98//98
f 122//122 131//131 129//129
f 129//129 131//131 133//133
f 130//130 133//133 134//134
f 133//133 130//130 129//129
f 133//133 131//131 132//132
f 99//99 134//134 132//132
f 132//132 134//134 133//133
f 135//135 134//134 99//99
f 135//135 99//99 128//128
f 143//143 108//108 141//141
f 108//108 136//136 141//141
f 136//136 138//138 141//141
f 141//141 138//138 142//142
f 142//142 138//138 139//139
f 142//142 137//137 145//145
f 142//142 139//139 137//137
f 139//139 140//140 137//137
f 137//137 140//140 110//110
f 138//138 115//115 139//139
f 140//140 139//139 115//115
f 115//115 110//110 140//140
f 143//143 141//141 262//262
f 110//110 145//145 137//137
f 141//141 142//142 145//145
f 262//262 144//144 143//143
f 145//145 111//111 261//261
f 110//110 111//111 145//145
f 138//138 146//146 115//115
f 146//146 147//147 264//264
f 264//264 149//149 146//146
f 115//115 146//146 151//151
f 146//146 265//265 151//151
f 150//150 259//259 260//260
f 150//150 148//148 259//259
f 149//149 264//264 150//150
f 165//165 149//149 150//150
f 154//154 260//260 152//152
f 154//154 150//150 260//260
f 150//150 154//154 172//172
f 265//265 165//165 151//151
f 109//109 151//151 120//120
f 168//168 154//154 152//152
f 168//168 152//152 166//166
f 166//166 152//152 153//153
f 153//153 152//152 155//155
f 153//153 155//155 167//167
f 121//121 120//120 156//156
f 156//156 151//151 194//194
f 158//158 175//175 157//157
f 122//122 158//158 157//157
f 128//128 164//164 159//159
f 96//96 161//161 164//164
f 180//180 182//182 160//160
f 156//156 180//180 160//160
f 181//181 164//164 161//161
f 182//182 161//161 160//160
f 163//163 186//186 162//162
f 183//183 129//129 267//267
f 184//184 183//183 267//267
f 186//186 272//272 162//162
f 163//163 135//135 128//128
f 187//187 163//163 128//128
f 129//129 130//130 267//267
f 162//162 130//130 163//163
f 130//130 134//134 163//163
f 163//163 134//134 135//135
f 165//165 150//150 172//172
f 170//170 167//167 173//173
f 153//153 167//167 166//166
f 166//166 167//167 168//168
f 169//169 168//168 170//170
f 168//168 167//167 170//170
f 168//168 169//169 270//270
f 170//170 171//171 169//169
f 170//170 188//188 171//171
f 273//273 170//170 173//173
f 273//273 173//173 191//191
f 266//266 168//168 270//270
f 268//268 189//189 271//271
f 190//190 165//165 172//172
f 189//189 190//190 271//271
f 167//167 155//155 173//173
f 165//165 190//190 194//194
f 194//194 151//151 165//165
f 120//120 151//151 156//156
f 155//155 157//157 175//175
f 174//174 173//173 155//155
f 155//155 175//175 174//174
f 174//174 175//175 176//176
f 195//195 173//173 174//174
f 174//174 176//176 197//197
f 194//194 212//212 156//156
f 209//209 207//207 176//176
f 183//183 158//158 122//122
f 175//175 158//158 183//183
f 177//177 175//175 183//183
f 175//175 177//177 176//176
f 176//176 177//177 208//208
f 208//208 177//177 185//185
f 187//187 128//128 159//159
f 178//178 187//187 179//179
f 187//187 159//159 179//179
f 159//159 164//164 181//181
f 215//215 159//159 181//181
f 182//182 180//180 156//156
f 181//181 161//161 182//182
f 212//212 213//213 182//182
f 156//156 212//212 182//182
f 181//181 182//182 213//213
f 183//183 122//122 129//129
f 184//184 185//185 183//183
f 185//185 177//177 183//183
f 272//272 178//178 185//185
f 187//187 186//186 163//163
f 186//186 178//178 272//272
f 178//178 186//186 187//187
f 268//268 269//269 189//189
f 275//275 218//218 274//274
f 189//189 274//274 218//218
f 269//269 274//274 189//189
f 275//275 203//203 218//218
f 192//192 193//193 190//190
f 189//189 217//217 192//192
f 190//190 189//189 192//192
f 204//204 190//190 193//193
f 204//204 193//193 217//217
f 190//190 204//204 194//194
f 275//275 173//173 195//195
f 275//275 195//195 196//196
f 198//198 196//196 195//195
f 203//203 275//275 199//199
f 199//199 275//275 196//196
f 198//198 199//199 196//196
f 174//174 197//197 195//195
f 197//197 198//198 195//195
f 198//198 200//200 199//199
f 197//197 200//200 198//198
f 197//197 207//207 200//200
f 203//203 199//199 201//201
f 199//199 200//200 201//201
f 200//200 202//202 201//201
f 207//207 202//202 200//200
f 203//203 201//201 219//219
f 201//201 202//202 219//219
f 202//202 207//207 219//219
f 204//204 206//206 194//194
f 214//214 194//194 206//206
f 221//221 222//222 205//205
f 216//216 206//206 205//205
f 214//214 212//212 194//194
f 206//206 216//216 214//214
f 207//207 197//197 176//176
f 210//210 207//207 209//209
f 176//176 208//208 209//209
f 210//210 208//208 185//185
f 210//210 209//209 208//208
f 185//185 211//211 210//210
f 210//210 211//211 207//207
f 211//211 185//185 178//178
f 222//222 207//207 211//211
f 211//211 179//179 222//222
f 179//179 211//211 178//178
f 215//215 179//179 159//159
f 179//179 215//215 205//205
f 205//205 222//222 179//179
f 213//213 215//215 181//181
f 216//216 212//212 214//214
f 215//215 213//213 216//216
f 212//212 216//216 213//213
f 215//215 216//216 205//205
f 217//217 193//193 192//192
f 189//189 218//218 217//217
f 217//217 277//277 204//204
f 203//203 219//219 218//218
f 218//218 219//219 220//220
f 207//207 222//222 219//219
f 219//219 222//222 276//276
f 218//218 220//220 217//217
f 206//206 204//204 277//277
f 222//222 221//221 276//276
f 277//277 217//217 220//220
f 221//221 205//205 206//206
