# Wavafront OBJ file of BodyParts3D
# BodyParts3D, Copyright(C) 2010-2011 The Database Center for Life Science licensed under CC Attribution-Share Alike 2.1 Japan.
vn -0.627561 -0.263383 -0.732664
v -133.242 -155.074 -2.61108
vn 0.996204 0.0865937 0.00894967
v -133.419 -154.821 -2.30049
vn 0.996204 0.0865937 0.00894967
v -133.419 -154.821 -2.28594
vn 0.996204 0.0865937 0.00894967
v -133.42 -154.803 -2.28994
vn -0.580426 -0.250157 -0.774937
v -132.729 -153.538 -3.49094
vn 0.0935758 -0.262826 -0.960295
v -132.198 -153.483 -3.49345
vn -0.965746 -0.116846 0.231694
v -133.295 -154.436 -2.50868
vn -0.671338 0.093626 -0.735214
v -131.15 -152.31 -4.36122
vn 0.0390678 -0.209325 -0.977065
v -132.042 -153.11 -3.55595
vn -0.333553 -0.430001 -0.838953
v -131.461 -152.643 -4.0264
vn -0.951025 0.190888 -0.243132
v -132.951 -152.045 -2.11951
vn -0.986316 0.152201 -0.0633635
v -133.092 -152.876 -1.91579
vn -0.524199 0.0418162 -0.850569
v -130.846 -150.528 -4.16177
vn -0.897141 0.248387 -0.365296
v -131.856 -150.127 -3.96756
vn -0.00377432 -0.137099 -0.99055
v -130.621 -148.92 -4.5095
vn -0.969207 0.179744 -0.168315
v -131.91 -148.777 -3.5035
vn -0.956269 0.19604 -0.217068
v -132.27 -149.736 -2.45757
vn -0.501945 0.245829 0.829228
v -131.884 -149.644 -2.25077
vn -0.945433 0.247992 -0.21132
v -131.193 -148.128 -4.58799
vn -0.73098 0.227951 -0.643201
v -131.368 -148.508 -3.92051
vn -0.768568 0.355598 -0.53184
v -130.903 -145.53 -3.39057
vn -0.707422 0.296464 -0.641609
v -130.645 -146.424 -4.03823
vn 0.255529 -0.085592 -0.963005
v -129.516 -144.662 -4.3254
vn -0.610862 0.39405 -0.686711
v -130.22 -144.474 -3.60692
vn -0.818898 0.518726 -0.245622
v -128.826 -141.767 -2.92202
vn -0.78321 -0.0956818 -0.614351
v -134.365 -160.211 -0.339728
vn -0.721004 -0.142275 -0.678168
v -134.101 -158.197 -0.737538
vn -0.991829 0.124923 -0.0258911
v -134.163 -158.604 -0.331101
vn -0.145207 -0.415084 -0.89812
v -132.45 -157.184 -2.24502
vn 0.661008 -0.717512 -0.219645
v -133.933 -156.81 -1.3337
vn -0.944671 0.22904 -0.234814
v -133.642 -156.853 -1.6207
vn 0.661008 -0.717512 -0.219645
v -133.909 -156.782 -1.35555
vn 0.661008 -0.717512 -0.219645
v -133.9 -156.785 -1.31706
vn 0.696751 -0.706639 0.123288
v -133.629 -156.549 -1.66176
vn -0.69025 -0.171174 -0.703032
v -133.479 -156.48 -1.81628
vn 0.696751 -0.706639 0.123288
v -133.526 -156.467 -1.77678
vn 0.696751 -0.706639 0.123288
v -133.549 -156.463 -1.62481
vn -0.944671 0.22904 -0.234814
v -133.721 -156.837 -1.29085
vn -0.532291 0.793546 0.294874
v -133.403 -156.506 -1.60903
vn -0.784236 0.449162 0.42805
v -133.713 -157.673 -0.576467
vn -0.697028 -0.155196 -0.700047
v -132.769 -156.462 -2.51757
vn -0.398754 -0.280758 -0.873024
v -132.117 -156.016 -2.94045
vn -0.125528 -0.347252 -0.929333
v -131.155 -156.293 -3.00273
vn -0.965746 -0.116846 0.231694
v -133.12 -155.364 -2.2476
vn -0.0702147 -0.280197 -0.957371
v -131.076 -153.8 -3.814
vn -0.512594 -0.106998 -0.851938
v -130.68 -153.914 -3.80336
vn -0.616134 -0.0222029 -0.787328
v -130.573 -154.569 -3.86862
vn 0.645187 -0.339871 -0.684267
v -129.933 -153.261 -4.15274
vn 0.165942 -0.280096 -0.945521
v -131.913 -153.357 -3.48068
vn -0.466038 0.275775 0.840688
v -132.913 -152.895 -1.82006
vn 0.203526 -0.138556 0.969216
v -132.649 -152.97 -1.87432
vn -0.289987 -0.0714656 -0.954359
v -129.849 -151.638 -4.65189
vn 0.675405 -0.278555 -0.682814
v -129.214 -151.204 -4.29313
vn -0.456035 0.0220175 -0.889689
v -130.422 -150.437 -4.37686
vn -0.261061 0.109504 -0.959091
v -129.358 -149.49 -4.63792
vn -0.00302744 0.426558 0.904455
v -129.501 -149.282 -2.65419
vn 0.200074 0.034626 0.979169
v -131.31 -149.596 -2.51233
vn -0.0842988 0.100757 -0.991333
v -127.932 -146.986 -4.66395
vn -0.308935 0.103414 -0.945444
v -129.34 -147.207 -4.51863
vn -0.605572 0.294627 -0.739241
v -129.091 -146.447 -4.48363
vn 0.0133598 0.152713 -0.98818
v -128.889 -146.294 -4.61935
vn 0.0914079 0.192084 -0.977112
v -128.011 -146.341 -4.533
vn 0.261863 -0.236839 0.935593
v -130.116 -146.405 -2.30527
vn -0.703294 0.31179 0.638878
v -130.3 -145.938 -2.19372
vn 0.362209 -0.189107 -0.912712
v -128.975 -145.031 -4.09622
vn -0.399128 0.346839 -0.848764
v -128.513 -145.16 -4.32535
vn -0.78254 0.357203 0.509938
v -130.089 -145.373 -2.25218
vn 0.114062 -0.17679 0.977617
v -129.913 -145.425 -2.16707
vn 0.361342 -0.256458 -0.896471
v -128.14 -143.395 -4.22754
vn 0.123392 -0.313747 0.941455
v -128.2 -143.426 -1.96014
vn -0.817784 0.354359 0.453497
v -129.288 -143.942 -2.05846
vn 0.0986847 -0.353655 0.930156
v -128.862 -143.652 -1.92254
vn 0.459087 -0.301479 -0.835673
v -126.645 -142.379 -3.77269
vn -0.834088 0.493893 -0.245697
v -127.924 -141.598 -3.57285
vn -0.0129257 -0.401749 0.915659
v -128.407 -142.75 -1.5412
vn -0.844868 0.404663 0.349922
v -128.396 -142.13 -1.4648
vn -0.319932 0.322802 -0.890754
v -127.884 -140.784 -3.20165
vn -0.747043 0.590225 -0.305877
v -128.077 -140.73 -3.13745
vn -0.809535 0.257725 0.527476
v -127.607 -139.841 -2.33592
vn 0.36326 0.211986 -0.907251
v -126.3 -139.7 -3.08953
vn -0.0351869 0.341501 -0.939222
v -126.511 -139.31 -3.04769
vn -0.622929 0.340791 -0.704145
v -126.808 -137.788 -2.04835
vn -0.966583 0.00260651 -0.256341
v -134.633 -162.902 0.643298
vn -0.987012 0.0548201 -0.151005
v -134.678 -162.663 0.815115
vn -0.336726 -0.575507 -0.745256
v -134.225 -162.974 0.435079
vn 0.459501 -0.202138 -0.86487
v -133.458 -161.933 -0.202669
vn -0.305086 0.192379 -0.932691
v -133.376 -161.749 -0.180878
vn -0.357106 0.161302 -0.920031
v -133.313 -161.559 -0.171904
vn -0.356055 -0.504663 -0.786473
v -133.617 -162.724 -0.033429
vn -0.286502 -0.316145 -0.904416
v -133.163 -162.226 -0.20767
vn -0.33635 0.0899063 -0.937436
v -133.234 -162.028 -0.284843
vn -0.932376 0.359473 0.038127
v -133.37 -161.755 0.034342
vn -0.25899 -0.18619 -0.947764
v -133.191 -162.428 -0.160664
vn -0.205885 -0.367609 -0.906904
v -133.093 -162.246 -0.222938
vn 0.92315 -0.361231 -0.131553
v -133.085 -162.25 -0.154023
vn -0.986504 -0.0616922 0.151668
v -133.151 -162.231 -0.131237
vn 0.664107 -0.548898 -0.507616
v -133.001 -161.857 -0.16474
vn 0.594161 -0.0237245 0.803996
v -134.207 -161.319 0.656803
vn -0.785224 -0.158099 -0.598689
v -134.345 -162.729 0.299495
vn 0.532505 -0.306386 0.789028
v -134.502 -162.691 0.69175
vn 0.13693 -0.925547 -0.353006
v -134.215 -162.769 0.456803
vn -0.914231 0.403459 0.0374539
v -133.41 -161.848 0.052517
vn 0.420009 -0.310608 -0.852711
v -134.013 -161.138 -0.68355
vn 0.241464 -0.423366 -0.873188
v -133.618 -160.836 -0.655976
vn -0.992689 0.115597 -0.0347235
v -134.49 -161.026 0.53616
vn -0.211523 -0.371716 -0.903928
v -131.771 -159.474 -1.68266
vn -0.395002 -0.326888 -0.858556
v -132.617 -159.238 -1.30139
vn 0.94 -0.174637 0.29309
v -131.364 -158.772 -1.06074
vn 0.226167 0.249077 0.941706
v -133.262 -158.238 -0.390667
vn 0.647908 0.0573838 0.759554
v -133.843 -159.541 0.247268
vn 0.831259 -0.397404 -0.388689
v -130.815 -157.247 -1.91523
vn 0.459763 -0.441114 -0.770737
v -130.56 -155.834 -3.28008
vn 0.897285 -0.400225 -0.186279
v -130.585 -156.469 -2.42785
vn 0.199527 0.652253 0.731269
v -130.635 -156.158 -2.21673
vn 0.503379 -0.0315417 0.86349
v -130.883 -156.813 -1.77967
vn 0.890439 -0.406517 -0.204601
v -130.521 -156.493 -2.16674
vn 0.179584 0.509191 0.841709
v -130.66 -156.458 -1.94493
vn 0.770368 -0.359755 -0.526412
v -129.881 -154.151 -3.52607
vn 0.845698 -0.413015 -0.337955
v -130.255 -155.511 -3.03686
vn 0.209085 0.185233 0.960194
v -130.056 -154.735 -3.03597
vn 0.200414 0.654925 0.728634
v -130.404 -155.471 -2.89849
vn 0.746528 -0.314275 0.586453
v -130.101 -153.488 -2.31041
vn 0.0567524 -0.258172 0.96443
v -129.826 -152.736 -2.25771
vn 0.888652 -0.42536 0.171364
v -128.969 -150.671 -3.31787
vn -0.000182411 0.363819 0.93147
v -129.401 -149.521 -2.54095
vn 0.151355 0.00514361 0.988466
v -129.278 -149.767 -2.46432
vn -0.777937 -0.115344 0.617664
v -129.252 -149.361 -2.32287
vn 0.3033 -0.210184 0.929426
v -128.965 -150.062 -2.62297
vn 0.791958 -0.315688 0.522631
v -127.733 -148.326 -3.07921
vn -0.649114 0.46816 0.599563
v -129.111 -148.77 -2.63197
vn 0.657174 -0.123927 0.743482
v -128.222 -148.402 -2.65979
vn 0.301696 -0.268084 0.914937
v -128.24 -149.023 -2.55754
vn -0.0295018 0.180584 0.983117
v -125.981 -145.29 -3.17733
vn 0.663247 -0.414396 -0.623201
v -125.035 -143.676 -3.78151
vn 0.0786353 -0.277725 0.957437
v -127.234 -143.08 -1.93935
vn 0.517227 -0.534106 0.668735
v -126.628 -142.627 -2.10631
vn 0.18365 -0.539566 0.82167
v -126.557 -142.238 -1.64631
vn 0.0764488 0.235509 -0.968861
v -124.392 -140.13 -3.00555
vn -0.0947062 0.33455 -0.937607
v -124.115 -137.519 -2.29649
vn 0.00627876 0.312349 -0.949947
v -125.556 -137.936 -2.29899
vn -0.335924 0.33536 -0.880164
v -125.351 -135.513 -1.52465
vn -0.814678 0.18573 0.549366
v -125.464 -135.273 -0.886655
vn -0.509746 0.308603 -0.803071
v -124.681 -133.016 -0.755392
vn -0.442249 0.32976 -0.834071
v -123.525 -131.47 -0.990185
vn -0.287531 0.303629 -0.90837
v -123.005 -132.443 -1.45861
vn -0.606986 0.393216 -0.690615
v -123.606 -129.858 -0.107645
vn 0.446931 -0.0114053 0.894496
v -132.498 -161.582 -0.368233
vn -0.0126998 -0.454407 -0.890704
v -132.285 -161.429 -0.678026
vn 0.0274253 -0.462611 -0.886137
v -131.912 -161.229 -0.77054
vn 0.296818 -0.263988 0.91772
v -124.753 -143.742 -3.12705
vn -0.0367704 -0.554249 0.831538
v -125.642 -142.299 -1.55104
vn 0.134409 -0.661894 0.737449
v -124.868 -142.192 -1.53925
vn -0.0681179 -0.387949 0.91916
v -125.151 -141.202 -1.05163
vn 0.269059 0.0599336 -0.961257
v -123.739 -139.698 -2.81648
vn 0.171683 -0.631519 0.756114
v -124.074 -140.685 -0.801997
vn 0.321872 -0.717743 0.617449
v -124.032 -140.494 -0.567329
vn 0.420324 -0.0129402 -0.907282
v -123.813 -138.304 -2.45586
vn -0.675036 0.143689 0.723658
v -125.158 -137.892 0.062057
vn -0.323 -0.192409 0.926634
v -125.136 -138.732 0.12085
vn -0.146801 -0.231214 0.961764
v -124.233 -137.754 0.596426
vn 0.191491 0.124006 -0.973629
v -122.78 -136.452 -2.0503
vn -0.669697 0.0242593 0.742238
v -122.397 -128.94 1.81922
vn -0.427593 0.410386 -0.805448
v -122.444 -127.246 0.44553
vn 0.00197176 0.160063 -0.987105
v -120.324 -125.288 0.038388
vn -0.939393 0.334061 -0.0770948
v -121.801 -124.323 1.81412
vn 0.65261 -0.595969 -0.46789
v -123.33 -143.037 -2.33899
vn 0.133247 -0.716851 0.684376
v -123.204 -142.81 -2.05695
vn 0.510706 -0.770865 0.380719
v -122.967 -142.592 -1.94191
vn 0.726532 -0.516721 -0.452936
v -122.221 -142.032 -1.79916
vn 0.0630321 -0.541513 0.838326
v -122.464 -141.972 -1.30633
vn -0.155501 -0.466284 0.870861
v -123.976 -141.334 -1.00245
vn 0.211273 0.111421 -0.971056
v -122.467 -140.485 -2.68352
vn 0.417952 -0.202202 -0.885681
v -122.236 -140.762 -2.56499
vn 0.486734 -0.128128 -0.864103
v -121.823 -140.256 -2.57938
vn 0.658805 -0.381175 -0.6486
v -121.532 -140.766 -2.13626
vn -0.132275 -0.32697 0.935732
v -124.234 -140.237 -0.137611
vn -0.197284 -0.378125 0.904489
v -123.403 -140.258 -0.633777
vn 0.390661 -0.628297 0.672775
v -123.581 -139.775 -0.158452
vn 0.0391548 -0.512004 0.85809
v -123.377 -140.891 -0.586159
vn -0.628914 -0.0188559 0.777246
v -123.239 -140.307 -0.529568
vn -0.664827 -0.0137989 0.74687
v -123.065 -140.153 -0.350711
vn -0.0223232 -0.436519 0.899418
v -122.874 -140.003 -0.198003
vn 0.271016 0.165605 -0.948222
v -121.462 -139.325 -2.32938
vn 0.442152 -0.100571 -0.891284
v -121.065 -136.951 -1.85727
vn 0.512836 -0.152646 -0.844806
v -120.117 -135.772 -1.62614
vn 0.0234712 0.218578 -0.975537
v -121.464 -135.802 -1.49524
vn -0.346647 0.378123 -0.858405
v -121.121 -136.516 -1.94815
vn -0.166751 0.225038 -0.959975
v -119.369 -130.756 -0.860898
vn 0.117525 0.129433 -0.984599
v -118.213 -123.383 0.35138
vn -0.639494 0.343275 -0.687903
v -119.891 -122.17 1.88436
vn -0.411948 0.352796 -0.840139
v -120.266 -122.272 2.02321
vn 0.0633258 0.0931197 -0.993639
v -117.826 -121.696 0.534156
vn -0.59493 0.321037 -0.736881
v -118.836 -121.416 1.07161
vn -0.461096 0.0386812 -0.886507
v -117.997 -120.193 0.688511
vn -0.693148 0.386274 -0.608554
v -119.129 -120.308 1.90125
vn -0.918383 0.354834 -0.175118
v -118.003 -119.992 1.12986
vn -0.868173 0.36138 -0.340117
v -118.258 -119.716 1.40192
vn -0.632346 0.385723 -0.67183
v -119.328 -117.587 3.96401
vn -0.93438 0.354843 0.031957
v -119.309 -117.404 4.90217
vn -0.706806 0.327425 -0.627071
v -117.605 -117.626 1.95555
vn -0.723317 0.309768 -0.617136
v -117.244 -116.894 1.81129
vn 0.404742 0.0920687 -0.909784
v -116.836 -117.245 1.42503
vn 0.772716 -0.296653 -0.561166
v -120.126 -139.787 -0.834522
vn 0.57611 -0.632891 0.517248
v -120.269 -139.887 -0.669861
vn 0.122178 -0.42492 0.896948
v -121.964 -139.643 -0.110831
vn -0.0381324 0.321867 -0.946017
v -119.94 -136.039 -1.27272
vn -0.367675 -0.152102 0.917431
v -120.409 -129.746 2.93756
vn -0.0499425 0.184388 -0.981584
v -118.068 -127.853 -0.381078
vn -0.313602 0.280244 -0.907258
v -117.504 -128.838 -0.913164
vn -0.0902419 -0.328029 0.940347
v -119.647 -128.527 3.8246
vn 0.50196 -0.0203527 -0.864651
v -116.468 -127.689 -0.457545
vn -0.859072 0.0620145 0.508083
v -119.382 -126.738 4.22974
vn 0.0411611 0.208702 -0.977113
v -116.187 -125.694 -0.141171
vn 0.0497596 0.203292 -0.977853
v -116.461 -122.299 0.569408
vn -0.23709 0.445956 -0.863083
v -116.385 -121.288 0.932067
vn -0.823068 0.476881 -0.308453
v -116.201 -120.925 0.989749
vn 0.240401 0.149479 -0.959095
v -116.04 -120.76 0.826443
vn -0.370061 0.533533 -0.760525
v -116.169 -120.731 1.21758
vn -0.673719 0.466715 -0.572957
v -116.01 -120.566 1.05256
vn 0.123637 0.224594 -0.966577
v -116.197 -120.309 1.32357
vn -0.343116 -0.08007 0.935874
v -118.446 -119.941 4.77901
vn 0.571211 -0.00224839 -0.8208
v -116.759 -119.524 1.39701
vn 0.156749 0.202669 -0.966621
v -115.895 -119.153 1.61372
vn -0.529892 0.476942 -0.701242
v -115.228 -118.475 1.44892
vn 0.447584 -0.0874845 -0.889952
v -115.096 -118.62 1.55631
vn -0.697003 0.0357861 0.716175
v -119.044 -117.901 5.09676
vn 0.0901177 0.351101 -0.931991
v -116.433 -116.659 1.82508
vn 0.38904 0.163859 -0.906531
v -115.985 -116.429 2.00264
vn 0.389245 0.0992181 -0.915775
v -114.815 -114.489 2.61303
vn -0.65472 0.385253 -0.650325
v -115.942 -112.514 3.37693
vn -0.695478 0.372646 -0.614366
v -116.327 -112.009 4.46389
vn -0.931875 0.333386 0.143048
v -117.082 -111.602 5.38484
vn -0.52627 0.3531 -0.773537
v -116.494 -111.552 4.78351
vn 0.0220406 -0.116286 0.992971
v -116.147 -111.879 5.72077
vn 0.0102742 0.269642 -0.962906
v -114.224 -111.05 3.2731
vn -0.731134 0.387889 -0.561236
v -115.791 -110.705 4.37494
vn -0.468944 0.447745 -0.761325
v -115.158 -110.667 3.81388
vn -0.574573 0.414581 -0.705683
v -115.478 -110.032 4.46418
vn -0.707652 0.383686 -0.593307
v -116.052 -110.228 5.08835
vn -0.918803 0.314373 0.238687
v -116.645 -110.698 5.87692
vn -0.330031 0.423495 -0.843642
v -114.866 -109.518 4.53003
vn -0.706576 0.328738 -0.626643
v -116.156 -109.585 5.65544
vn -0.801041 0.242736 -0.547186
v -116.145 -109.382 5.72874
vn 0.895502 0.194934 -0.400095
v -116.059 -109.41 5.90745
vn -0.75524 0.292295 -0.586665
v -116.226 -109.361 5.85625
vn -0.801036 0.242752 -0.547186
v -116.129 -109.18 5.79494
vn 0.897206 0.149665 -0.415477
v -116.045 -109.443 5.92129
vn -0.91997 0.0772245 0.384306
v -116.028 -109.383 5.92258
vn -0.733799 0.395638 -0.552277
v -115.369 -109.072 5.09521
vn -0.621029 0.378756 -0.686198
v -115.735 -108.764 5.76883
vn -0.421297 0.0517471 0.905445
v -115.731 -108.883 6.02975
vn -0.404096 0.325869 -0.854702
v -115.728 -108.671 5.79945
vn 0.964654 -0.158309 -0.210666
v -115.664 -108.694 6.04161
vn -0.416874 0.335845 -0.844644
v -115.718 -108.467 5.87572
vn -0.957326 0.147345 0.24863
v -115.649 -108.673 6.04798
vn 0.0382235 0.204971 -0.978022
v -114.387 -107.585 5.04908
vn -0.540311 0.463011 -0.702627
v -114.01 -107.28 5.18826
vn -0.582529 0.432547 -0.688159
v -115.525 -108.314 5.82922
vn -0.467169 0.358731 -0.808124
v -115.432 -107.72 6.03094
vn -0.803876 0.427643 -0.413406
v -114.821 -107.462 5.18176
vn -0.772225 0.635347 -0.00167873
v -115.584 -108.303 6.11702
vn -0.690068 0.402656 -0.601393
v -115.294 -107.839 5.89877
vn 0.0480641 -0.15651 0.986506
v -115.341 -107.957 6.12732
vn -0.463948 0.363646 -0.807783
v -115.294 -107.758 5.93445
vn 0.97836 -0.179221 -0.103398
v -115.255 -107.774 6.15174
vn -0.461312 0.369891 -0.806456
v -115.297 -107.551 6.03147
vn -0.669653 0.237532 0.703665
v -115.188 -107.681 6.17934
vn -0.353061 0.0468489 0.934427
v -115.172 -107.59 6.19557
vn 0.274312 0.0764468 -0.958597
v -114.074 -107.053 5.19157
vn 0.202082 0.095708 -0.974681
v -113.989 -106.247 5.27314
vn -0.658933 0.518821 -0.54464
v -114.117 -106.213 5.42554
vn 0.862669 -0.288938 -0.415111
v -118.096 -136.194 0.588071
vn 0.155533 -0.463075 0.872566
v -118.39 -136.115 0.86687
vn -0.253328 -0.357858 0.898756
v -118.009 -135.812 1.05929
vn 0.766377 -0.21724 -0.604544
v -117.299 -133.504 0.372004
vn -0.150247 -0.371279 0.916285
v -118.034 -130.024 3.35717
vn -0.168792 -0.339116 0.925478
v -118.733 -127.133 4.20101
vn -0.935825 0.141168 0.322959
v -118.829 -125.252 5.17616
vn 0.118729 -0.667566 0.735024
v -114.988 -124.212 0.379351
vn 0.118729 -0.667566 0.735024
v -114.954 -124.188 0.396441
vn 0.118729 -0.667566 0.735024
v -115.001 -124.175 0.415886
vn -0.932303 0.168463 0.32005
v -118.708 -123.824 4.90193
vn -0.945866 0.196751 0.25812
v -118.237 -122.729 5.79423
vn -0.386083 -0.110796 0.915786
v -118.013 -122.381 5.98655
vn 0.372985 0.117432 -0.920376
v -113.706 -119.784 1.56364
vn -0.8239 0.165475 0.542039
v -117.564 -118.959 5.38486
vn -0.911944 0.311112 0.267522
v -116.817 -118.164 6.83642
vn 0.15507 0.203814 -0.96665
v -114.712 -117.009 2.25541
vn 0.430509 -0.0806193 -0.898979
v -113.85 -115.599 2.53478
vn -0.492479 0.60223 -0.628318
v -113.363 -117.19 2.21374
vn -0.498372 0.09637 0.861591
v -116.885 -116.244 5.59578
vn -0.820941 0.34119 0.457871
v -116.208 -116.458 6.47643
vn 0.174395 0.17369 -0.969236
v -113.641 -114.812 2.5787
vn 0.187734 0.145077 -0.971447
v -112.709 -114.27 2.916
vn -0.827657 0.436787 0.352421
v -115.375 -114.946 6.52015
vn -0.0313274 0.335562 -0.941497
v -113.228 -112.261 3.62253
vn -0.161129 -0.0194681 0.986741
v -115.54 -111.431 5.7623
vn -0.0110822 -0.104347 0.994479
v -114.824 -108.416 6.05121
vn 0.0589127 0.174233 -0.982941
v -113.349 -105.81 5.41262
vn -0.293902 0.430065 -0.853619
v -112.566 -106.747 4.58316
vn -0.46612 0.505536 -0.726062
v -112.634 -105.802 5.10428
vn -0.501897 0.579925 -0.641706
v -112.807 -105.551 5.46631
vn -0.645395 0.533353 -0.546809
v -113.477 -105.154 5.66014
vn -0.485899 0.36095 -0.796
v -113.616 -104.833 6.23713
vn -0.0569553 0.394697 -0.917044
v -112.881 -104.469 5.68815
vn 0.91162 -0.347444 -0.219619
v -117.332 -134.764 1.31915
vn -0.41326 -0.265435 0.871068
v -117.109 -132.774 2.61113
vn 0.63094 -0.501023 0.59236
v -115.84 -131.277 3.13394
vn -0.198684 -0.456726 0.867137
v -117.056 -129.683 3.53909
vn 0.921971 -0.370825 -0.111617
v -115.103 -129.814 2.64777
vn -0.200191 -0.49249 0.846981
v -117 -128.907 4.16624
vn -0.418893 -0.389782 0.820121
v -116.501 -129.437 3.93167
vn -0.427517 -0.298066 0.853455
v -116.939 -127.041 4.90523
vn -0.561248 -0.140073 0.815708
v -116.618 -124.862 5.76781
vn 0.605709 -0.0679401 -0.79278
v -113.669 -124.79 1.48252
vn 0.863935 -0.27889 -0.419328
v -113.61 -125.227 1.65608
vn -0.329184 -0.214233 0.919643
v -116.691 -124.01 5.88636
vn -0.235288 -0.161288 0.95845
v -116.036 -119.846 6.7754
vn 0.352238 0.0229126 -0.93563
v -111.73 -113.726 3.18689
vn 0.442322 0.0548869 -0.895175
v -111.632 -113.338 3.21591
vn -0.870632 0.485608 -0.0786479
v -114.799 -113.548 7.13757
vn -0.711104 0.39569 0.581172
v -114.073 -112.429 6.46051
vn -0.881236 0.44037 0.171749
v -114.682 -113.377 7.29736
vn -0.837633 0.536859 -0.100758
v -114.261 -112.667 7.36132
vn -0.482153 0.161366 0.861098
v -114.184 -112.9 7.51033
vn -0.0239618 0.339887 -0.940161
v -111.601 -111.486 3.81165
vn -0.475184 0.231069 0.849004
v -113.316 -110.838 6.42337
vn -0.752368 0.532491 -0.387809
v -113.476 -111.641 7.18952
vn -0.661394 0.439564 0.607734
v -113.515 -112.055 7.637
vn -0.731185 0.64979 -0.207702
v -113.005 -110.948 7.38148
vn -0.676283 0.445348 0.586776
v -112.771 -110.799 7.02211
vn 0.388354 0.134073 -0.911705
v -111.361 -108.664 4.94103
vn -0.291894 0.393331 -0.871831
v -110.796 -108.229 4.98943
vn 0.250065 0.167136 -0.953694
v -110.469 -105.193 5.85731
vn -0.265056 -0.0174402 0.964075
v -111.703 -104.823 6.73116
vn -0.284107 0.568112 -0.772355
v -110.281 -103.377 6.02224
vn -0.100067 -0.178971 0.978752
v -111.403 -103.28 6.91059
vn -0.292903 -0.0771224 0.953027
v -111.229 -103.746 6.88124
vn 0.413898 0.103341 -0.904439
v -109.793 -103.104 6.16031
vn -0.727028 0.400349 0.557809
v -111.262 -101.873 7.39395
vn -0.125658 0.513693 -0.848723
v -110.523 -101.046 7.4108
vn -0.70773 0.398256 0.583532
v -110.53 -100.784 7.53749
vn -0.227532 -0.0560224 0.972158
v -110.435 -101.076 7.63346
vn -0.228545 0.489442 -0.841554
v -110.228 -100.923 7.39833
vn -0.178657 0.457049 -0.871314
v -110.233 -100.752 7.48184
vn -0.277286 -0.960575 -0.0202196
v -110.325 -100.901 7.68691
vn -0.585014 0.293124 0.756199
v -110.402 -100.878 7.67333
vn -0.220812 0.393513 -0.892406
v -110.23 -100.716 7.49303
vn 0.992253 0.0532302 -0.112256
v -110.201 -100.729 7.73724
vn -0.774824 -0.181399 0.605592
v -110.391 -100.675 7.74798
vn -0.232896 0.476211 -0.847929
v -110.251 -100.504 7.61765
vn -0.22909 -0.184113 0.955835
v -110.196 -100.939 7.70955
vn -0.801028 0.242737 -0.547204
v -109.996 -100.371 7.66871
vn -0.801029 0.242741 -0.547201
v -110.163 -100.328 7.93201
vn -0.801029 0.242741 -0.547201
v -109.982 -100.168 7.73881
vn -0.80103 0.242746 -0.547198
v -110.086 -100.055 7.94055
vn -0.710305 0.174722 -0.681864
v -109.86 -100.271 7.87968
vn -0.710305 0.174722 -0.681864
v -109.752 -100.028 7.8297
vn -0.0870947 0.709243 -0.699564
v -109.842 -99.816 8.05604
vn -0.528811 -0.715342 0.456776
v -109.921 -99.985 8.09616
vn -0.702107 -0.147712 0.696582
v -115.759 -127.837 5.01832
vn -0.483766 -0.210168 0.849588
v -115.958 -125.061 6.17483
vn -0.160657 -0.180201 0.970421
v -115.257 -123.398 6.61803
vn -0.271832 -0.184389 0.944515
v -114.91 -120.592 6.98857
vn 0.210438 -0.305665 0.928593
v -113.857 -121.311 6.95632
vn -0.249792 -0.193672 0.948733
v -113.823 -120.29 7.41396
vn 0.471228 -0.323081 0.820709
v -113.081 -119.46 7.27203
vn 0.389005 0.239293 -0.889614
v -110.722 -117.559 3.3003
vn 0.492259 0.122615 -0.86177
v -111.234 -115.747 3.39174
vn 0.688892 0.0447736 -0.72348
v -110.585 -115.118 4.18299
vn 0.496967 0.266377 -0.825874
v -110.433 -115.371 4.21256
vn 0.595792 0.0292909 -0.802604
v -110.582 -112.415 4.2812
vn 0.419541 0.0829397 -0.903939
v -109.483 -111.29 4.99793
vn 0.0283327 0.294159 -0.955337
v -109.885 -109.705 4.46336
vn 0.136365 0.144032 -0.980132
v -109.412 -107.144 4.90558
vn -0.691754 0.704285 -0.159559
v -109.917 -107.886 7.50885
vn 0.105185 0.311339 -0.94446
v -108.99 -103.619 6.58319
vn 0.432246 0.0681328 -0.899178
v -109.287 -103.05 6.53974
vn 0.367966 0.0845025 -0.925992
v -109.188 -103.496 6.56264
vn -0.436787 -0.0607187 0.897513
v -108.763 -103.023 7.97704
vn 0.151405 0.297629 -0.942599
v -107.998 -103.013 6.8748
vn 0.0289944 0.455656 -0.889684
v -109.151 -101.43 6.84393
vn 0.391393 0.234653 -0.889803
v -108.06 -101.419 7.29448
vn -0.307176 -0.490636 0.815426
v -109.662 -100.265 7.95769
vn -0.485409 -0.145896 0.862028
v -108.76 -100.74 8.25504
vn -0.800999 0.242841 -0.547201
v -109.033 -99.2184 8.23323
vn -0.116335 -0.522846 0.844452
v -109.13 -99.3877 8.43838
vn -0.801014 0.242787 -0.547202
v -109.034 -99.2031 8.24074
vn -0.0891076 -0.484948 0.869992
v -109.227 -99.1537 8.54601
vn -0.80103 0.242733 -0.547203
v -109.049 -98.9929 8.35689
vn -0.376212 -0.295194 0.878251
v -108.975 -99.4321 8.41868
vn -0.966947 -0.194218 0.165205
v -108.966 -99.228 8.4967
vn 0.962444 0.164087 -0.216281
v -108.971 -99.2131 8.51059
vn -0.510372 -0.240453 0.825653
v -108.766 -98.8742 8.72591
vn -0.774993 0.622551 -0.108703
v -108.314 -97.9688 8.96506
vn -0.127306 0.49965 -0.856822
v -108.086 -97.9569 8.86843
vn -0.131024 0.432772 -0.891931
v -107.797 -97.2898 9.18302
vn 0.35667 -0.336969 0.871343
v -112.995 -122.38 6.36517
vn 0.331788 -0.281462 0.900387
v -112.786 -119.748 7.02787
vn 0.366583 -0.373817 0.851984
v -110.727 -118.049 6.86264
vn 0.872465 -0.439848 0.212928
v -110.109 -117.186 6.87625
vn -0.148668 -0.0985475 0.983965
v -111.914 -116.394 7.75451
vn 0.0312879 -0.253707 0.966775
v -110.423 -116.22 7.47656
vn -0.266279 -0.150222 0.952118
v -110.529 -113.352 8.53885
vn 0.595113 0.0581463 -0.801536
v -109.283 -113.228 5.30775
vn 0.916146 -0.352679 -0.19051
v -108.703 -113.406 5.84225
vn 0.680517 -0.120337 -0.722783
v -108.859 -110.853 5.37499
vn 0.655368 -0.145622 -0.741139
v -108.216 -109.795 5.63383
vn 0.433127 0.107781 -0.894865
v -108.082 -109.21 5.69827
vn 0.748467 -0.0992334 -0.655706
v -107.756 -109.102 5.99914
vn 0.710024 -0.128602 -0.692334
v -107.714 -109.953 6.29124
vn -0.653853 0.401952 0.641023
v -110.007 -108.931 8.95009
vn 0.437356 0.121237 -0.891079
v -108.25 -108.438 5.9207
vn -0.566539 0.124365 0.814596
v -109.465 -107.098 7.56259
vn 0.788112 -0.123004 -0.603117
v -107.417 -106.507 6.61431
vn 0.747233 -0.0679711 -0.661077
v -107.085 -105.148 6.77089
vn -0.0991938 0.484169 -0.869333
v -106.479 -102.002 7.28016
vn -0.0764475 0.476816 -0.875673
v -107.145 -101.814 7.4609
vn -0.618793 -0.107183 0.778207
v -107.274 -102.434 8.9826
vn 0.108047 0.380683 -0.918371
v -107.636 -98.7871 8.57152
vn -0.806796 0.14308 0.573244
v -107.494 -96.7695 9.99068
vn -0.933567 0.347531 -0.0876051
v -106.85 -94.6668 10.0752
vn 0.607351 0.380745 -0.697251
v -105.908 -93.0794 10.7682
vn 0.0985734 0.320516 -0.9421
v -105.646 -93.3584 10.6266
vn 0.615741 0.633637 -0.468365
v -105.745 -93.1287 10.8732
vn -0.0609909 0.35242 -0.933852
v -106.042 -92.7325 10.7524
vn 0.711347 0.701854 0.0372279
v -106.191 -92.5871 11.0346
vn 0.732478 0.352359 -0.58251
v -105.87 -92.8848 10.8861
vn -0.932213 0.274437 0.23593
v -106.204 -92.5914 11.417
vn -0.842694 0.537937 -0.0221645
v -106.088 -92.4146 11.3267
vn 0.239002 -0.41114 0.879683
v -109.744 -113.362 8.11685
vn -0.182957 -0.213389 0.959683
v -109.255 -113.296 8.16011
vn 0.111674 -0.352905 0.928971
v -108.801 -113.429 8.29157
vn 0.689458 -0.501284 0.522841
v -107.806 -112.467 8.28891
vn 0.519157 -0.628484 0.579209
v -108.243 -110.699 9.3987
vn -0.469112 -0.0263361 0.882746
v -109.779 -110.465 9.45293
vn 0.928775 -0.350713 -0.119904
v -106.448 -109.299 7.28673
vn 0.265214 0.328814 -0.90639
v -106.671 -105.07 7.29675
vn 0.2815 0.278015 -0.918404
v -106.257 -105.179 7.37336
vn 0.787491 -0.0570586 -0.613679
v -105.904 -104.678 7.8094
vn 0.272576 0.339865 -0.900108
v -105.815 -104.288 7.85149
vn 0.753312 0.0347434 -0.656745
v -105.437 -104.408 8.34193
vn 0.833442 -0.0275878 -0.551918
v -106.036 -102.772 8.07997
vn 0.285973 0.325902 -0.901114
v -105.5 -101.901 8.81487
vn -0.728386 -0.0149904 0.685004
v -106.134 -102.429 9.8745
vn 0.705912 0.141444 -0.694033
v -105.08 -99.5664 9.60123
vn -0.114193 0.506994 -0.854352
v -106.005 -98.7579 9.12227
vn 0.709716 0.266719 -0.652046
v -104.51 -94.9493 11.181
vn 0.539238 0.231765 -0.809634
v -105.446 -93.4191 10.6719
vn 0.74669 0.660775 -0.0763628
v -105.647 -93.1729 11.0745
vn -0.627601 0.0545014 0.776625
v -105.569 -93.6245 12.2222
vn 0.538837 0.728079 0.42374
v -105.073 -93.623 12.2281
vn -0.347677 0.380267 0.85704
v -105.202 -93.6764 12.3938
vn 0.614382 0.648392 0.449581
v -105.055 -93.7705 12.5023
vn 0.670626 0.596671 -0.440733
v -105.727 -92.662 11.4188
vn 0.696384 0.717329 0.0220801
v -105.808 -92.5482 11.588
vn -0.28462 0.773412 0.566415
v -105.808 -92.7155 11.8786
vn 0.398626 -0.432711 0.808615
v -106.853 -110.264 9.25334
vn 0.896027 -0.424773 0.129244
v -106.544 -109.93 8.91738
vn -0.182052 -0.272525 0.944768
v -107.032 -109.39 9.71515
vn -0.438342 -0.103057 0.89288
v -108.113 -109.508 10.362
vn 0.0662934 -0.406298 0.911333
v -107.565 -109.457 10.3446
vn 0.810643 -0.386756 0.439633
v -105.853 -107.857 9.73663
vn -0.854659 0.412448 0.315348
v -107.383 -106.608 10.9453
vn -0.477717 -0.0244847 0.878173
v -106.656 -106.617 11.34
vn 0.817557 -0.350542 0.456859
v -105.713 -105.223 11.311
vn -0.846257 0.267006 0.461039
v -105.99 -103.036 10.1256
vn -0.939982 0.299144 0.164155
v -106.023 -103.264 11.5143
vn -0.937866 0.233019 0.25712
v -106.107 -103.87 11.7549
vn 0.887745 -0.207631 0.410852
v -105.453 -104.258 11.3193
vn 0.700785 -0.269483 0.660515
v -104.942 -103.776 11.0873
vn -0.959355 0.263782 0.100285
v -105.992 -103.28 11.8481
vn 0.684468 0.107835 -0.721024
v -104.099 -102.12 9.91957
vn -0.572254 0.811287 0.119746
v -105.207 -102.663 11.3383
vn -0.840187 0.0531386 0.539688
v -105.069 -102.08 11.3949
vn 0.916569 -0.24169 0.318571
v -104.265 -101.881 10.7315
vn -0.931268 0.349822 0.101801
v -105.67 -102.493 12.0911
vn -0.659511 -0.204343 0.723387
v -105.508 -102.595 12.2105
vn -0.0827781 0.620984 -0.77944
v -105.423 -102.41 12.1317
vn 0.986408 -0.101792 0.128989
v -105.387 -102.423 12.2593
vn -0.667755 -0.239357 0.704849
v -105.514 -102.386 12.2755
vn 0.877261 -0.324692 0.353538
v -104.156 -101.7 10.5323
vn -0.816783 -0.020362 0.576586
v -104.911 -100.256 11.6069
vn 0.0242389 -0.214508 0.976421
v -104.64 -101.375 11.6072
vn 0.787672 -0.317894 0.527747
v -104.418 -101.228 11.4849
vn -0.559092 -0.132082 0.818517
v -104.577 -96.2079 12.5485
vn 0.73329 0.678073 -0.0500233
v -104.402 -94.4799 11.5971
vn -0.547598 -0.168741 0.81955
v -104.912 -94.243 12.8136
vn 0.509206 0.554023 0.658611
v -104.46 -94.5171 12.7616
vn 0.752822 0.414984 -0.510927
v -103.809 -94.8393 12.0314
vn -0.161065 0.0660328 0.984732
v -104.215 -95.0703 12.8888
vn -0.427077 -0.106074 0.897972
v -105.452 -103.855 11.972
vn -0.489403 -0.166354 0.856044
v -104.25 -98.1786 12.657
vn 0.854592 0.121718 -0.504834
v -102.937 -96.2604 12.3362
vn 0.763917 -0.434641 0.476989
v -102.862 -96.92 12.9688
vn 0.946198 -0.114072 -0.302814
v -102.769 -96.5305 12.9649
vn -0.00271846 -0.0654859 0.99785
v -102.861 -96.5076 13.1417
vn 0.941068 0.248753 -0.229157
v -102.804 -96.3093 12.8316
vn -0.965746 -0.116846 0.231694
v -133.242 -155.074 -2.61108
vn -0.95981 0.221758 -0.172014
v -133.242 -155.074 -2.61108
vn -0.767363 0.0395013 -0.639995
v -133.242 -155.074 -2.61108
vn -0.75894 0.428347 0.490437
v -133.242 -155.074 -2.61108
vn -0.996204 -0.0865937 -0.00894967
v -133.419 -154.821 -2.30049
vn -0.996204 -0.0865937 -0.00894967
v -133.419 -154.821 -2.28594
vn -0.996204 -0.0865937 -0.00894967
v -133.42 -154.803 -2.28994
vn -0.936728 0.199706 -0.287503
v -132.729 -153.538 -3.49094
vn -0.000488569 -0.225074 -0.974341
v -132.729 -153.538 -3.49094
vn -0.922491 0.131349 -0.362985
v -133.295 -154.436 -2.50868
vn -0.477543 -0.257256 0.840103
v -133.295 -154.436 -2.50868
vn 0.180141 0.297847 0.937463
v -133.295 -154.436 -2.50868
vn 0.0691569 -0.362526 0.929404
v -133.295 -154.436 -2.50868
vn -0.0485714 -0.346417 -0.936822
v -131.15 -152.31 -4.36122
vn 0.614805 -0.245142 -0.749614
v -131.15 -152.31 -4.36122
vn -0.333553 -0.430001 -0.838953
v -132.042 -153.11 -3.55595
vn -0.693948 0.156635 -0.702782
v -132.042 -153.11 -3.55595
vn -0.731003 0.041603 -0.681105
v -131.461 -152.643 -4.0264
vn -0.478794 0.27351 0.834235
v -132.951 -152.045 -2.11951
vn -0.429723 0.283249 0.857385
v -133.092 -152.876 -1.91579
vn -0.477543 -0.257256 0.840103
v -133.092 -152.876 -1.91579
vn -0.906862 0.130094 -0.400846
v -131.856 -150.127 -3.96756
vn -0.115777 0.0812626 -0.989945
v -130.621 -148.92 -4.5095
vn -0.683908 0.218846 -0.695972
v -131.91 -148.777 -3.5035
vn -0.606217 0.284744 0.742578
v -132.27 -149.736 -2.45757
vn 0.331541 -0.0688752 0.940923
v -131.884 -149.644 -2.25077
vn 0.0215189 -0.0832217 -0.996299
v -131.193 -148.128 -4.58799
vn -0.763793 0.407347 -0.500688
v -131.193 -148.128 -4.58799
vn -0.953108 0.297657 -0.0546352
v -130.903 -145.53 -3.39057
vn -0.780001 0.36197 0.510466
v -130.903 -145.53 -3.39057
vn -0.80679 0.455047 -0.376859
v -130.645 -146.424 -4.03823
vn -0.80679 0.455047 -0.376859
v -129.516 -144.662 -4.3254
vn -0.265812 0.358009 -0.895083
v -129.516 -144.662 -4.3254
vn -0.816384 0.379478 0.435332
v -128.826 -141.767 -2.92202
vn -0.991985 0.0902292 -0.0884527
v -134.365 -160.211 -0.339728
vn -0.991829 0.124923 -0.0258598
v -134.101 -158.197 -0.737538
vn -0.784236 0.449162 0.42805
v -134.101 -158.197 -0.737538
vn -0.956697 0.171832 -0.234955
v -134.101 -158.197 -0.737538
vn -0.799216 0.481114 0.360253
v -134.163 -158.604 -0.331101
vn -0.216197 0.379677 0.899502
v -134.163 -158.604 -0.331101
vn -0.661008 0.717512 0.219645
v -133.933 -156.81 -1.3337
vn -0.669333 -0.16563 -0.724265
v -133.642 -156.853 -1.6207
vn -0.661008 0.717512 0.219645
v -133.909 -156.782 -1.35555
vn -0.661008 0.717512 0.219645
v -133.9 -156.785 -1.31706
vn -0.696751 0.706639 -0.123288
v -133.629 -156.549 -1.66176
vn -0.532291 0.793546 0.294874
v -133.479 -156.48 -1.81628
vn -0.929416 0.285465 -0.23387
v -133.479 -156.48 -1.81628
vn -0.865042 0.34917 0.360253
v -133.479 -156.48 -1.81628
vn -0.696751 0.706639 -0.123288
v -133.526 -156.467 -1.77678
vn -0.696751 0.706639 -0.123288
v -133.549 -156.463 -1.62481
vn -0.764674 0.414586 0.493347
v -133.721 -156.837 -1.29085
vn -0.532291 0.793546 0.294874
v -133.721 -156.837 -1.29085
vn 0.0824568 0.647948 0.757208
v -133.721 -156.837 -1.29085
vn -0.75894 0.428347 0.490437
v -133.403 -156.506 -1.60903
vn 0.0882152 0.590752 0.802017
v -133.403 -156.506 -1.60903
vn 0.128459 0.400961 0.907044
v -133.713 -157.673 -0.576467
vn 0.25042 0.35756 0.899689
v -133.713 -157.673 -0.576467
vn 0.109757 -0.328357 -0.938155
v -132.769 -156.462 -2.51757
vn -0.110601 -0.367292 -0.923507
v -132.769 -156.462 -2.51757
vn -0.766904 -0.061677 -0.638791
v -131.155 -156.293 -3.00273
vn -0.626674 0.492758 0.603713
v -133.12 -155.364 -2.2476
vn 0.167399 0.594778 0.786268
v -133.12 -155.364 -2.2476
vn 0.209085 0.185233 0.960194
v -133.12 -155.364 -2.2476
vn 0.614805 -0.245142 -0.749614
v -131.076 -153.8 -3.814
vn -0.0418923 -0.234857 -0.971127
v -130.68 -153.914 -3.80336
vn 0.16265 -0.414727 -0.895291
v -130.573 -154.569 -3.86862
vn -0.322396 -0.13278 -0.937246
v -129.933 -153.261 -4.15274
vn -0.333553 -0.430001 -0.838953
v -131.913 -153.357 -3.48068
vn -0.59477 -0.115948 -0.79549
v -131.913 -153.357 -3.48068
vn -0.477543 -0.257256 0.840103
v -132.913 -152.895 -1.82006
vn 0.14668 -0.186372 0.971468
v -132.913 -152.895 -1.82006
vn 0.601798 -0.25582 -0.756568
v -129.849 -151.638 -4.65189
vn 0.956422 -0.29121 0.0213036
v -129.214 -151.204 -4.29313
vn -0.271823 0.0269874 -0.961969
v -130.422 -150.437 -4.37686
vn 0.614805 -0.245142 -0.749614
v -130.422 -150.437 -4.37686
vn -0.0201825 -0.161241 -0.986709
v -130.422 -150.437 -4.37686
vn -0.80432 -0.0553928 0.591609
v -129.501 -149.282 -2.65419
vn -0.649114 0.46816 0.599563
v -129.501 -149.282 -2.65419
vn 0.0978491 -0.117393 0.988253
v -129.501 -149.282 -2.65419
vn 0.0461555 0.0218257 0.998696
v -131.31 -149.596 -2.51233
vn 0.599485 -0.249054 -0.760651
v -127.932 -146.986 -4.66395
vn 0.952075 -0.296087 -0.0767223
v -127.932 -146.986 -4.66395
vn 0.663247 -0.414396 -0.623201
v -127.932 -146.986 -4.66395
vn -0.683224 0.320107 -0.656305
v -128.889 -146.294 -4.61935
vn 0.209466 -0.148135 0.96653
v -130.3 -145.938 -2.19372
vn -0.367664 0.230641 0.900904
v -130.3 -145.938 -2.19372
vn -0.421108 0.2895 -0.859568
v -128.975 -145.031 -4.09622
vn -0.388656 0.168432 0.905857
v -130.089 -145.373 -2.25218
vn -0.376554 0.138948 0.915915
v -129.913 -145.425 -2.16707
vn -0.124953 0.318945 -0.9395
v -128.14 -143.395 -4.22754
vn -0.379771 0.0926208 0.920432
v -129.288 -143.942 -2.05846
vn -0.223656 -0.244029 0.943625
v -129.288 -143.942 -2.05846
vn -0.351144 0.0796426 0.932928
v -128.862 -143.652 -1.92254
vn 0.103679 0.198071 -0.974689
v -126.645 -142.379 -3.77269
vn 0.304907 0.196312 -0.93193
v -126.645 -142.379 -3.77269
vn -0.0943353 0.333968 -0.937852
v -126.645 -142.379 -3.77269
vn -0.347747 0.376213 -0.858799
v -127.924 -141.598 -3.57285
vn -0.405495 -0.0556475 0.912402
v -128.396 -142.13 -1.4648
vn -0.231602 0.279725 -0.931727
v -128.077 -140.73 -3.13745
vn -0.709831 0.552703 -0.436645
v -127.607 -139.841 -2.33592
vn -0.62784 0.527967 -0.571898
v -126.511 -139.31 -3.04769
vn -0.873605 0.284365 0.394906
v -126.808 -137.788 -2.04835
vn -0.129153 0.425071 -0.895898
v -126.808 -137.788 -2.04835
vn -0.75252 0.561294 -0.344476
v -126.808 -137.788 -2.04835
vn -0.708438 -0.178844 -0.682738
v -134.633 -162.902 0.643298
vn 0.470609 -0.463427 0.750841
v -134.633 -162.902 0.643298
vn 0.13693 -0.925547 -0.353006
v -134.633 -162.902 0.643298
vn 0.53547 -0.224421 0.814191
v -134.678 -162.663 0.815115
vn -0.214147 0.187834 0.958572
v -134.678 -162.663 0.815115
vn -0.774509 -0.0285955 0.631916
v -134.225 -162.974 0.435079
vn 0.634818 -0.112575 0.764417
v -134.225 -162.974 0.435079
vn -0.32504 0.0533895 -0.944192
v -133.458 -161.933 -0.202669
vn -0.915618 0.400438 0.0359672
v -133.458 -161.933 -0.202669
vn 0.933297 -0.354961 -0.0544053
v -133.458 -161.933 -0.202669
vn -0.926988 0.373221 0.0374146
v -133.376 -161.749 -0.180878
vn 0.933297 -0.354961 -0.0544053
v -133.313 -161.559 -0.171904
vn -0.949504 0.311539 0.0372151
v -133.313 -161.559 -0.171904
vn -0.840724 -0.0111807 -0.541348
v -133.313 -161.559 -0.171904
vn 0.510055 0.549209 0.661977
v -133.313 -161.559 -0.171904
vn 0.0393401 0.0650703 0.997105
v -133.313 -161.559 -0.171904
vn 0.273892 -0.364234 -0.890122
v -133.313 -161.559 -0.171904
vn 0.911918 0.0128695 0.410172
v -133.313 -161.559 -0.171904
vn 0.576679 -0.176743 0.797624
v -133.617 -162.724 -0.033429
vn 0.38375 -0.266677 -0.884092
v -133.617 -162.724 -0.033429
vn -0.387123 -0.117756 -0.914478
v -133.617 -162.724 -0.033429
vn 0.664107 -0.548898 -0.507616
v -133.617 -162.724 -0.033429
vn -0.986504 -0.0616922 0.151668
v -133.163 -162.226 -0.20767
vn -0.840724 -0.0111807 -0.541348
v -133.234 -162.028 -0.284843
vn -0.321106 -0.349842 -0.880058
v -133.234 -162.028 -0.284843
vn 0.664107 -0.548898 -0.507616
v -133.234 -162.028 -0.284843
vn -0.948053 -0.290175 0.130361
v -133.234 -162.028 -0.284843
vn -0.60449 0.3081 0.73462
v -133.234 -162.028 -0.284843
vn 0.468398 -0.0317115 0.882949
v -133.37 -161.755 0.034342
vn 0.510055 0.549209 0.661977
v -133.37 -161.755 0.034342
vn -0.97155 0.17013 0.164764
v -133.191 -162.428 -0.160664
vn 0.8537 -0.503983 -0.131137
v -133.191 -162.428 -0.160664
vn 0.268414 -0.195289 0.943301
v -133.191 -162.428 -0.160664
vn 0.92315 -0.361231 -0.131553
v -133.093 -162.246 -0.222938
vn 0.473346 -0.238596 0.847948
v -133.093 -162.246 -0.222938
vn 0.750761 -0.627507 0.206382
v -133.093 -162.246 -0.222938
vn 0.292027 -0.118397 0.949053
v -133.085 -162.25 -0.154023
vn -0.60449 0.3081 0.73462
v -133.151 -162.231 -0.131237
vn 0.292027 -0.118397 0.949053
v -133.151 -162.231 -0.131237
vn -0.60449 0.3081 0.73462
v -133.001 -161.857 -0.16474
vn 0.464194 -0.112762 0.878526
v -133.001 -161.857 -0.16474
vn 0.510055 0.549209 0.661977
v -133.001 -161.857 -0.16474
vn 0.290935 -0.03121 0.956234
v -133.001 -161.857 -0.16474
vn 0.969335 -0.209375 -0.128653
v -133.001 -161.857 -0.16474
vn 0.313742 -0.0407343 0.948634
v -133.001 -161.857 -0.16474
vn -0.18143 0.219535 0.958586
v -134.207 -161.319 0.656803
vn -0.356055 -0.504663 -0.786473
v -134.345 -162.729 0.299495
vn 0.13693 -0.925547 -0.353006
v -134.345 -162.729 0.299495
vn -0.774509 -0.0285955 0.631916
v -134.345 -162.729 0.299495
vn -0.774509 -0.0285955 0.631916
v -134.215 -162.769 0.456803
vn 0.591091 -0.24695 0.767872
v -134.215 -162.769 0.456803
vn 0.933297 -0.354961 -0.0544053
v -133.41 -161.848 0.052517
vn 0.622142 -0.0792186 0.778886
v -133.41 -161.848 0.052517
vn -0.810477 -0.093082 -0.578328
v -134.013 -161.138 -0.68355
vn -0.372859 -0.43024 -0.822113
v -134.013 -161.138 -0.68355
vn -0.273202 0.26779 0.923931
v -134.49 -161.026 0.53616
vn 0.85655 -0.410606 -0.312608
v -131.771 -159.474 -1.68266
vn -0.840724 -0.0111807 -0.541348
v -132.617 -159.238 -1.30139
vn 0.373597 0.1878 0.908381
v -131.364 -158.772 -1.06074
vn 0.808336 0.0388882 0.587436
v -133.262 -158.238 -0.390667
vn -0.24911 0.369536 0.895202
v -133.843 -159.541 0.247268
vn 0.94 -0.174637 0.29309
v -130.815 -157.247 -1.91523
vn 0.3496 0.422774 0.836088
v -130.815 -157.247 -1.91523
vn 0.670752 -0.156697 0.72494
v -130.815 -157.247 -1.91523
vn 0.929445 -0.0930059 0.357046
v -130.585 -156.469 -2.42785
vn 0.935745 0.28834 -0.203078
v -130.585 -156.469 -2.42785
vn 0.682234 0.386053 0.620902
v -130.635 -156.158 -2.21673
vn 0.929445 -0.0930059 0.357046
v -130.635 -156.158 -2.21673
vn 0.935745 0.28834 -0.203078
v -130.635 -156.158 -2.21673
vn 0.818863 0.347085 0.457161
v -130.635 -156.158 -2.21673
vn 0.935745 0.28834 -0.203078
v -130.521 -156.493 -2.16674
vn 0.850391 0.105806 0.515403
v -130.521 -156.493 -2.16674
vn 0.808955 0.0324597 0.586974
v -130.66 -156.458 -1.94493
vn 0.972916 -0.199382 0.116971
v -129.881 -154.151 -3.52607
vn 0.682234 0.386053 0.620902
v -130.255 -155.511 -3.03686
vn 0.929445 -0.0930059 0.357046
v -130.255 -155.511 -3.03686
vn 0.967364 -0.248893 0.0475265
v -130.255 -155.511 -3.03686
vn 0.647496 -0.167405 0.743454
v -130.255 -155.511 -3.03686
vn 0.929198 -0.253009 0.269401
v -130.056 -154.735 -3.03597
vn 0.647496 -0.167405 0.743454
v -130.056 -154.735 -3.03597
vn 0.0943258 -0.49813 0.861957
v -130.056 -154.735 -3.03597
vn 0.682234 0.386053 0.620902
v -130.404 -155.471 -2.89849
vn 0.235094 0.0700183 0.969447
v -130.404 -155.471 -2.89849
vn 0.647496 -0.167405 0.743454
v -130.404 -155.471 -2.89849
vn 0.0248048 -0.284074 0.958482
v -130.101 -153.488 -2.31041
vn 0.18477 0.0653285 0.980608
v -129.826 -152.736 -2.25771
vn 0.935226 -0.27196 0.226694
v -129.826 -152.736 -2.25771
vn 0.663247 -0.414396 -0.623201
v -128.969 -150.671 -3.31787
vn -0.777937 -0.115344 0.617664
v -129.401 -149.521 -2.54095
vn -0.747689 -0.174722 0.640651
v -129.278 -149.767 -2.46432
vn -0.649114 0.46816 0.599563
v -129.252 -149.361 -2.32287
vn 0.22944 -0.302084 0.925258
v -129.252 -149.361 -2.32287
vn 0.0554243 0.452621 0.889979
v -129.252 -149.361 -2.32287
vn 0.842937 -0.407279 0.35154
v -128.965 -150.062 -2.62297
vn 0.0117205 0.175213 0.984461
v -129.111 -148.77 -2.63197
vn -0.0446173 0.181911 0.982302
v -128.222 -148.402 -2.65979
vn 0.795411 -0.505924 0.333708
v -128.24 -149.023 -2.55754
vn 0.637874 0.106596 0.762728
v -128.24 -149.023 -2.55754
vn 0.00943196 0.311944 0.950054
v -128.24 -149.023 -2.55754
vn 0.83902 -0.510704 0.187688
v -125.981 -145.29 -3.17733
vn 0.367626 -0.320121 0.87314
v -125.981 -145.29 -3.17733
vn 0.510973 -0.213169 -0.832746
v -125.035 -143.676 -3.78151
vn 0.599142 -0.611277 0.517078
v -127.234 -143.08 -1.93935
vn -0.111768 -0.755721 0.645286
v -126.628 -142.627 -2.10631
vn 0.610031 -0.648728 0.454989
v -126.557 -142.238 -1.64631
vn -0.122623 -0.573481 0.80999
v -126.557 -142.238 -1.64631
vn -0.834907 0.449704 -0.317326
v -125.351 -135.513 -1.52465
vn -0.879671 0.413913 -0.23421
v -125.464 -135.273 -0.886655
vn -0.931058 0.334065 -0.146737
v -124.681 -133.016 -0.755392
vn -0.936853 0.337511 -0.0916113
v -123.606 -129.858 -0.107645
vn 0.750761 -0.627507 0.206382
v -132.498 -161.582 -0.368233
vn 0.440294 -0.887518 -0.135845
v -132.498 -161.582 -0.368233
vn 0.750761 -0.627507 0.206382
v -132.285 -161.429 -0.678026
vn 0.440294 -0.887518 -0.135845
v -132.285 -161.429 -0.678026
vn 0.711695 -0.367977 -0.5984
v -131.912 -161.229 -0.77054
vn 0.94 -0.174637 0.29309
v -131.912 -161.229 -0.77054
vn 0.428299 0.0790217 0.900175
v -131.912 -161.229 -0.77054
vn 0.440294 -0.887518 -0.135845
v -131.912 -161.229 -0.77054
vn 0.650295 -0.675448 -0.347686
v -124.753 -143.742 -3.12705
vn 0.0255023 -0.723747 0.689593
v -124.753 -143.742 -3.12705
vn -0.0392077 -0.534707 0.844127
v -125.151 -141.202 -1.05163
vn 0.238349 -0.775997 0.583968
v -125.151 -141.202 -1.05163
vn -0.658119 0.394008 -0.64159
v -120.324 -125.288 0.038388
vn -0.775553 0.0629043 0.628141
v -121.801 -124.323 1.81412
vn -0.660258 0.432781 -0.613808
v -121.801 -124.323 1.81412
vn -0.93207 0.35859 -0.0515732
v -121.801 -124.323 1.81412
vn 0.364598 -0.796336 0.482616
v -123.33 -143.037 -2.33899
vn -0.0165133 -0.606619 0.794821
v -122.967 -142.592 -1.94191
vn 0.575498 -0.750733 0.324349
v -122.221 -142.032 -1.79916
vn 0.550129 -0.752655 0.361759
v -122.464 -141.972 -1.30633
vn 0.359906 -0.716087 0.59807
v -124.234 -140.237 -0.137611
vn -0.196349 -0.724008 0.661256
v -123.403 -140.258 -0.633777
vn -0.013292 -0.476652 0.878992
v -123.581 -139.775 -0.158452
vn -0.669516 0.0691184 0.739575
v -123.377 -140.891 -0.586159
vn -0.643986 0.041451 0.763913
v -122.874 -140.003 -0.198003
vn 0.329098 -0.0199602 -0.944085
v -121.121 -136.516 -1.94815
vn -0.120204 0.283499 -0.951409
v -118.213 -123.383 0.35138
vn 0.736804 -0.0962821 -0.669216
v -118.213 -123.383 0.35138
vn 0.134207 0.21756 -0.966776
v -118.213 -123.383 0.35138
vn -0.414757 0.205527 -0.886417
v -117.826 -121.696 0.534156
vn 0.558172 0.0194647 -0.829497
v -117.826 -121.696 0.534156
vn -0.834036 0.497388 -0.238724
v -118.836 -121.416 1.07161
vn -0.502311 0.326428 -0.800705
v -118.836 -121.416 1.07161
vn -0.918383 0.354834 -0.175118
v -117.997 -120.193 0.688511
vn 0.276362 0.129139 -0.952338
v -117.997 -120.193 0.688511
vn -0.647152 0.41466 -0.639728
v -117.997 -120.193 0.688511
vn -0.381159 0.164124 -0.909825
v -119.129 -120.308 1.90125
vn -0.486559 0.343498 -0.803287
v -118.003 -119.992 1.12986
vn -0.486559 0.343498 -0.803287
v -118.258 -119.716 1.40192
vn -0.93146 0.360125 -0.0518849
v -119.328 -117.587 3.96401
vn -0.595574 -0.00344734 0.803293
v -119.309 -117.404 4.90217
vn -0.470541 0.36038 -0.80543
v -117.605 -117.626 1.95555
vn -0.973817 0.201109 -0.105998
v -117.605 -117.626 1.95555
vn -0.216717 0.450262 -0.866198
v -117.244 -116.894 1.81129
vn -0.636151 0.284608 -0.717155
v -116.836 -117.245 1.42503
vn -0.0559301 0.588777 -0.806358
v -116.836 -117.245 1.42503
vn 0.72994 -0.638698 0.243418
v -120.126 -139.787 -0.834522
vn 0.640676 -0.239354 -0.72955
v -119.94 -136.039 -1.27272
vn 0.436963 0.036792 -0.898727
v -119.94 -136.039 -1.27272
vn -0.875538 0.084035 0.475785
v -120.409 -129.746 2.93756
vn 0.395762 0.00743005 -0.918323
v -117.504 -128.838 -0.913164
vn -0.723612 -0.0486136 0.688493
v -119.647 -128.527 3.8246
vn -0.163778 -0.336599 0.927296
v -119.382 -126.738 4.22974
vn -0.663324 0.296473 -0.687099
v -116.461 -122.299 0.569408
vn -0.790478 0.420549 -0.445289
v -116.385 -121.288 0.932067
vn -0.760587 0.485676 -0.430845
v -116.04 -120.76 0.826443
vn -0.829882 0.397336 -0.391689
v -116.169 -120.731 1.21758
vn 0.0871286 0.247976 -0.96484
v -116.169 -120.731 1.21758
vn -0.767456 0.107221 -0.632072
v -116.197 -120.309 1.32357
vn -0.532046 0.3344 -0.777884
v -116.197 -120.309 1.32357
vn 0.484423 -0.198644 -0.851983
v -116.197 -120.309 1.32357
vn -0.357699 0.54201 -0.760444
v -116.197 -120.309 1.32357
vn 0.155166 0.203607 -0.966679
v -116.759 -119.524 1.39701
vn 0.506576 -0.128301 -0.852596
v -116.759 -119.524 1.39701
vn -0.276615 0.401957 -0.872877
v -116.759 -119.524 1.39701
vn -0.607556 0.436436 -0.663626
v -115.895 -119.153 1.61372
vn 0.517926 -0.150851 -0.84202
v -115.228 -118.475 1.44892
vn -0.149656 -0.108413 0.982777
v -119.044 -117.901 5.09676
vn -0.695203 0.40623 -0.593018
v -117.082 -111.602 5.38484
vn -0.498172 0.0723267 0.864057
v -116.645 -110.698 5.87692
vn -0.0674449 -0.0426942 0.996809
v -116.645 -110.698 5.87692
vn 0.896857 0.104053 -0.429908
v -116.156 -109.585 5.65544
vn -0.91997 0.0772245 0.384306
v -116.156 -109.585 5.65544
vn 0.897206 0.149665 -0.415477
v -116.145 -109.382 5.72874
vn 0.710965 -0.555408 -0.431337
v -116.145 -109.382 5.72874
vn 0.851824 0.100733 -0.514051
v -116.145 -109.382 5.72874
vn -0.349521 0.140722 0.926301
v -116.059 -109.41 5.90745
vn 0.710965 -0.555408 -0.431337
v -116.059 -109.41 5.90745
vn -0.915353 0.291362 0.277916
v -116.226 -109.361 5.85625
vn -0.266233 0.129648 0.95515
v -116.226 -109.361 5.85625
vn -0.688282 0.533398 0.491685
v -116.226 -109.361 5.85625
vn -0.858866 -0.1134 0.49949
v -116.129 -109.18 5.79494
vn 0.851824 0.100733 -0.514051
v -116.129 -109.18 5.79494
vn -0.688282 0.533398 0.491685
v -116.129 -109.18 5.79494
vn -0.532613 0.375749 -0.758377
v -116.129 -109.18 5.79494
vn -0.863552 0.479795 0.155162
v -116.129 -109.18 5.79494
vn -0.508233 -0.000393205 0.861219
v -116.129 -109.18 5.79494
vn -0.184577 0.115174 0.976046
v -116.045 -109.443 5.92129
vn -0.932005 0.26373 0.248623
v -116.045 -109.443 5.92129
vn 0.710965 -0.555408 -0.431337
v -116.028 -109.383 5.92258
vn 0.851824 0.100733 -0.514051
v -116.028 -109.383 5.92258
vn -0.530531 0.13552 0.836762
v -116.028 -109.383 5.92258
vn 0.00141969 -0.133724 0.991018
v -116.028 -109.383 5.92258
vn -0.957326 0.147345 0.24863
v -115.735 -108.764 5.76883
vn 0.964654 -0.158309 -0.210666
v -115.735 -108.764 5.76883
vn -0.688282 0.533398 0.491685
v -115.731 -108.883 6.02975
vn 0.0729978 -0.18698 0.979648
v -115.731 -108.883 6.02975
vn -0.921906 0.346667 0.17295
v -115.731 -108.883 6.02975
vn 0.933312 -0.320803 -0.161287
v -115.731 -108.883 6.02975
vn 0.632343 -0.269888 0.726157
v -115.731 -108.883 6.02975
vn -0.508233 -0.000393205 0.861219
v -115.731 -108.883 6.02975
vn 0.967225 0.00890707 -0.253763
v -115.728 -108.671 5.79945
vn 0.816567 -0.512963 -0.264741
v -115.728 -108.671 5.79945
vn 0.950664 0.0681643 -0.302641
v -115.728 -108.671 5.79945
vn 0.816567 -0.512963 -0.264741
v -115.664 -108.694 6.04161
vn -0.195884 -0.146432 0.969633
v -115.664 -108.694 6.04161
vn 0.632343 -0.269888 0.726157
v -115.664 -108.694 6.04161
vn -0.772225 0.635347 -0.00167873
v -115.718 -108.467 5.87572
vn -0.693982 0.384232 -0.608896
v -115.718 -108.467 5.87572
vn -0.948027 -0.0588597 0.312697
v -115.718 -108.467 5.87572
vn 0.950664 0.0681643 -0.302641
v -115.718 -108.467 5.87572
vn 0.816567 -0.512963 -0.264741
v -115.649 -108.673 6.04798
vn 0.950664 0.0681643 -0.302641
v -115.649 -108.673 6.04798
vn -0.0381637 -0.146251 0.988511
v -115.649 -108.673 6.04798
vn 0.175614 0.119374 -0.977195
v -114.01 -107.28 5.18826
vn -0.636777 0.754597 -0.158423
v -115.525 -108.314 5.82922
vn -0.954562 0.218206 -0.202972
v -115.525 -108.314 5.82922
vn -0.954562 0.218206 -0.202972
v -115.432 -107.72 6.03094
vn -0.531653 0.234348 0.813896
v -115.432 -107.72 6.03094
vn -0.211677 0.268243 -0.939808
v -114.821 -107.462 5.18176
vn -0.0221626 -0.141393 0.989705
v -115.584 -108.303 6.11702
vn 0.632343 -0.269888 0.726157
v -115.584 -108.303 6.11702
vn -0.508233 -0.000393205 0.861219
v -115.584 -108.303 6.11702
vn -0.954562 0.218206 -0.202972
v -115.584 -108.303 6.11702
vn -0.362553 0.227761 0.903704
v -115.584 -108.303 6.11702
vn -0.983806 0.0654782 -0.16685
v -115.294 -107.839 5.89877
vn 0.97836 -0.179221 -0.103398
v -115.294 -107.839 5.89877
vn -0.485899 0.36095 -0.796
v -115.294 -107.839 5.89877
vn -0.448853 0.182589 0.874752
v -115.341 -107.957 6.12732
vn -0.983806 0.0654782 -0.16685
v -115.341 -107.957 6.12732
vn 0.907581 -0.418749 -0.0307496
v -115.341 -107.957 6.12732
vn -0.669653 0.237532 0.703665
v -115.341 -107.957 6.12732
vn 0.982942 0.0724343 -0.169051
v -115.294 -107.758 5.93445
vn 0.821186 -0.539971 -0.184621
v -115.294 -107.758 5.93445
vn 0.867459 0.222922 -0.444771
v -115.294 -107.758 5.93445
vn -0.440023 0.0177603 0.897811
v -115.255 -107.774 6.15174
vn 0.821186 -0.539971 -0.184621
v -115.255 -107.774 6.15174
vn -0.983806 0.0654782 -0.16685
v -115.297 -107.551 6.03147
vn -0.669653 0.237532 0.703665
v -115.297 -107.551 6.03147
vn 0.867459 0.222922 -0.444771
v -115.297 -107.551 6.03147
vn -0.707733 0.435254 0.556478
v -115.297 -107.551 6.03147
vn -0.485899 0.36095 -0.796
v -115.297 -107.551 6.03147
vn 0.821186 -0.539971 -0.184621
v -115.188 -107.681 6.17934
vn 0.867459 0.222922 -0.444771
v -115.188 -107.681 6.17934
vn -0.0400442 -0.181099 0.982649
v -115.188 -107.681 6.17934
vn -0.226011 0.225872 -0.947576
v -113.989 -106.247 5.27314
vn -0.618423 0.511355 -0.596715
v -113.989 -106.247 5.27314
vn 0.549361 -0.638693 0.538771
v -118.096 -136.194 0.588071
vn 0.756924 -0.56901 0.321393
v -118.096 -136.194 0.588071
vn 0.324319 -0.76352 0.558439
v -118.009 -135.812 1.05929
vn 0.578365 -0.566229 0.587263
v -118.009 -135.812 1.05929
vn -0.275923 -0.308913 0.910187
v -118.829 -125.252 5.17616
vn -0.118729 0.667566 -0.735024
v -114.988 -124.212 0.379351
vn -0.118729 0.667566 -0.735024
v -114.954 -124.188 0.396441
vn -0.118729 0.667566 -0.735024
v -115.001 -124.175 0.415886
vn -0.651897 -2.56796e-005 0.758307
v -118.237 -122.729 5.79423
vn -0.698117 0.0542451 0.713926
v -116.817 -118.164 6.83642
vn -0.272737 -0.0774396 0.958967
v -116.817 -118.164 6.83642
vn -0.52347 0.544733 -0.655169
v -114.712 -117.009 2.25541
vn 0.38698 -0.0496341 -0.920751
v -114.712 -117.009 2.25541
vn 0.364278 0.0758867 -0.928193
v -113.363 -117.19 2.21374
vn -0.837935 0.469081 -0.278975
v -116.208 -116.458 6.47643
vn -0.781274 0.492091 -0.384002
v -115.375 -114.946 6.52015
vn 0.477586 0.0571073 -0.876727
v -113.228 -112.261 3.62253
vn -0.365883 0.489099 -0.791778
v -113.228 -112.261 3.62253
vn 0.487541 0.0563861 -0.871277
v -112.566 -106.747 4.58316
vn -0.00845542 0.219809 -0.975506
v -112.807 -105.551 5.46631
vn -0.785643 0.465522 0.407498
v -113.616 -104.833 6.23713
vn -0.703843 0.552172 -0.44689
v -113.616 -104.833 6.23713
vn -0.614174 0.574784 -0.540753
v -112.881 -104.469 5.68815
vn 0.708557 -0.5634 0.424885
v -117.332 -134.764 1.31915
vn 0.224956 -0.485754 0.844652
v -117.109 -132.774 2.61113
vn -0.36267 0.544029 -0.75664
v -111.73 -113.726 3.18689
vn -0.704055 0.349508 0.618183
v -114.073 -112.429 6.46051
vn -0.54942 0.213483 0.807813
v -114.682 -113.377 7.29736
vn -0.609703 0.401536 0.683397
v -114.261 -112.667 7.36132
vn -0.741278 0.523544 0.42001
v -113.476 -111.641 7.18952
vn -0.819195 0.572679 -0.0309683
v -113.476 -111.641 7.18952
vn -0.708837 0.518253 0.478502
v -113.005 -110.948 7.38148
vn -0.746477 0.646592 -0.157135
v -112.771 -110.799 7.02211
vn -0.209647 0.372817 -0.903911
v -111.361 -108.664 4.94103
vn 0.128843 0.231899 -0.964169
v -110.281 -103.377 6.02224
vn 0.108685 -0.332785 0.936718
v -111.262 -101.873 7.39395
vn -0.227532 -0.0560224 0.972158
v -111.262 -101.873 7.39395
vn 0.921134 0.189364 -0.340078
v -110.523 -101.046 7.4108
vn -0.469502 0.858355 0.206869
v -110.523 -101.046 7.4108
vn -0.640594 0.629353 -0.439947
v -110.53 -100.784 7.53749
vn 0.0250634 0.435595 -0.899794
v -110.53 -100.784 7.53749
vn -0.530596 -0.415849 -0.738605
v -110.53 -100.784 7.53749
vn 0.921134 0.189364 -0.340078
v -110.53 -100.784 7.53749
vn -0.217317 0.403818 -0.888653
v -110.53 -100.784 7.53749
vn -0.774824 -0.181399 0.605592
v -110.53 -100.784 7.53749
vn -0.718793 0.684885 0.119452
v -110.53 -100.784 7.53749
vn -0.530596 -0.415849 -0.738605
v -110.435 -101.076 7.63346
vn 0.921134 0.189364 -0.340078
v -110.435 -101.076 7.63346
vn -0.546455 0.773155 0.321898
v -110.435 -101.076 7.63346
vn 0.80103 -0.242764 0.54719
v -110.435 -101.076 7.63346
vn -0.530596 -0.415849 -0.738605
v -110.228 -100.923 7.39833
vn -0.380149 0.920883 0.086376
v -110.228 -100.923 7.39833
vn -0.277286 -0.960575 -0.0202196
v -110.228 -100.923 7.39833
vn 0.80103 -0.242764 0.54719
v -110.228 -100.923 7.39833
vn 0.119018 0.777392 0.617655
v -110.233 -100.752 7.48184
vn 0.991571 -0.053494 -0.118002
v -110.233 -100.752 7.48184
vn 0.818217 -0.572692 -0.0504454
v -110.233 -100.752 7.48184
vn -0.316938 -0.446066 0.837004
v -110.233 -100.752 7.48184
vn -0.765217 0.430223 0.478906
v -110.233 -100.752 7.48184
vn 0.119018 0.777392 0.617655
v -110.325 -100.901 7.68691
vn 0.818217 -0.572692 -0.0504454
v -110.325 -100.901 7.68691
vn -0.13906 -0.296155 0.944963
v -110.325 -100.901 7.68691
vn -0.774824 -0.181399 0.605592
v -110.402 -100.878 7.67333
vn -0.110966 -0.178587 0.977647
v -110.402 -100.878 7.67333
vn -0.277271 -0.960579 -0.0202145
v -110.402 -100.878 7.67333
vn 0.80103 -0.242764 0.54719
v -110.402 -100.878 7.67333
vn -0.253859 -0.321247 0.912335
v -110.402 -100.878 7.67333
vn 0.992253 0.0532302 -0.112256
v -110.23 -100.716 7.49303
vn 0.818217 -0.572692 -0.0504454
v -110.201 -100.729 7.73724
vn -0.0221925 -0.26666 0.963535
v -110.201 -100.729 7.73724
vn 0.189713 0.492963 0.849115
v -110.201 -100.729 7.73724
vn -0.718793 0.684885 0.119452
v -110.391 -100.675 7.74798
vn -0.13906 -0.296155 0.944963
v -110.391 -100.675 7.74798
vn 0.189713 0.492963 0.849115
v -110.391 -100.675 7.74798
vn -0.718793 0.684885 0.119452
v -110.251 -100.504 7.61765
vn 0.981599 0.159346 -0.105228
v -110.251 -100.504 7.61765
vn 0.189713 0.492963 0.849115
v -110.251 -100.504 7.61765
vn -0.337581 0.068147 0.938827
v -110.196 -100.939 7.70955
vn -0.469502 0.858355 0.206869
v -110.196 -100.939 7.70955
vn -0.2773 -0.960571 -0.0202247
v -110.196 -100.939 7.70955
vn 0.119018 0.777392 0.617655
v -110.196 -100.939 7.70955
vn -0.765217 0.430223 0.478906
v -110.196 -100.939 7.70955
vn 0.797769 0.148586 -0.584368
v -109.996 -100.371 7.66871
vn 0.226962 -0.928387 0.294255
v -109.996 -100.371 7.66871
vn 0.184899 -0.0826747 0.979274
v -110.163 -100.328 7.93201
vn 0.226962 -0.928387 0.294255
v -110.163 -100.328 7.93201
vn 0.5342 -0.391428 -0.749276
v -109.982 -100.168 7.73881
vn 0.797769 0.148586 -0.584368
v -109.982 -100.168 7.73881
vn 0.437359 0.86146 -0.258079
v -109.982 -100.168 7.73881
vn -0.528811 -0.715342 0.456776
v -109.982 -100.168 7.73881
vn -0.142425 0.693162 -0.70657
v -109.982 -100.168 7.73881
vn -0.910242 0.410439 -0.0547667
v -109.982 -100.168 7.73881
vn -0.296631 -0.533956 0.791771
v -110.086 -100.055 7.94055
vn 0.184899 -0.0826747 0.979274
v -110.086 -100.055 7.94055
vn 0.437359 0.86146 -0.258079
v -110.086 -100.055 7.94055
vn -0.036258 0.653341 -0.756195
v -109.86 -100.271 7.87968
vn 0.5342 -0.391428 -0.749276
v -109.86 -100.271 7.87968
vn 0.797769 0.148586 -0.584368
v -109.86 -100.271 7.87968
vn -0.307176 -0.490636 0.815426
v -109.86 -100.271 7.87968
vn 0.184899 -0.0826747 0.979274
v -109.86 -100.271 7.87968
vn 0.226962 -0.928387 0.294255
v -109.86 -100.271 7.87968
vn 0.5342 -0.391428 -0.749276
v -109.752 -100.028 7.8297
vn -0.0870947 0.709243 -0.699564
v -109.752 -100.028 7.8297
vn 0.0362147 0.4665 -0.88378
v -109.752 -100.028 7.8297
vn -0.189376 -0.573526 0.796998
v -109.752 -100.028 7.8297
vn -0.528177 0.704821 -0.473558
v -109.752 -100.028 7.8297
vn -0.910242 0.410439 -0.0547667
v -109.842 -99.816 8.05604
vn -0.50094 0.413525 0.7603
v -109.842 -99.816 8.05604
vn -0.0298527 -0.464981 0.884817
v -109.921 -99.985 8.09616
vn -0.910242 0.410439 -0.0547667
v -109.921 -99.985 8.09616
vn -0.50094 0.413525 0.7603
v -109.921 -99.985 8.09616
vn 0.31866 -0.423889 0.847805
v -115.759 -127.837 5.01832
vn -0.267863 -0.41357 0.870178
v -115.759 -127.837 5.01832
vn 0.260564 -0.351835 0.899066
v -115.958 -125.061 6.17483
vn 0.528127 -0.339114 0.778513
v -113.823 -120.29 7.41396
vn 0.861036 -0.226676 -0.455231
v -110.722 -117.559 3.3003
vn 0.691255 0.101875 -0.715394
v -110.722 -117.559 3.3003
vn 0.827281 -0.186841 -0.529808
v -111.234 -115.747 3.39174
vn 0.695667 -0.065298 -0.715391
v -109.885 -109.705 4.46336
vn -0.140108 0.435092 -0.889418
v -109.412 -107.144 4.90558
vn 0.617572 0.0149808 -0.786372
v -109.412 -107.144 4.90558
vn -0.564107 0.379938 0.733096
v -109.917 -107.886 7.50885
vn -0.757208 0.511623 0.406052
v -109.917 -107.886 7.50885
vn -0.710305 0.174722 -0.681864
v -109.151 -101.43 6.84393
vn 0.437359 0.86146 -0.258079
v -109.662 -100.265 7.95769
vn -0.528811 -0.715342 0.456776
v -109.662 -100.265 7.95769
vn -0.765217 0.430223 0.478906
v -109.662 -100.265 7.95769
vn -0.262827 -0.244293 0.933404
v -109.662 -100.265 7.95769
vn -0.528177 0.704821 -0.473558
v -109.033 -99.2184 8.23323
vn 0.0875976 0.423369 -0.901712
v -109.033 -99.2184 8.23323
vn -0.9628 -0.12487 0.239632
v -109.033 -99.2184 8.23323
vn 0.279356 0.671761 0.686074
v -109.033 -99.2184 8.23323
vn 0.966063 0.13846 -0.21806
v -109.033 -99.2184 8.23323
vn 0.762879 -0.626948 -0.157959
v -109.033 -99.2184 8.23323
vn 0.279356 0.671761 0.686074
v -109.13 -99.3877 8.43838
vn 0.762879 -0.626948 -0.157959
v -109.13 -99.3877 8.43838
vn 0.962444 0.164087 -0.216281
v -109.034 -99.2031 8.24074
vn -0.801014 0.242787 -0.547202
v -109.227 -99.1537 8.54601
vn -0.528177 0.704821 -0.473558
v -109.227 -99.1537 8.54601
vn -0.557799 0.813071 0.166659
v -109.227 -99.1537 8.54601
vn -0.956599 -0.26371 0.123999
v -109.049 -98.9929 8.35689
vn 0.958176 0.189604 -0.214357
v -109.049 -98.9929 8.35689
vn -0.557799 0.813071 0.166659
v -109.049 -98.9929 8.35689
vn 0.0739109 0.430501 -0.899559
v -109.049 -98.9929 8.35689
vn -0.806796 0.14308 0.573244
v -109.049 -98.9929 8.35689
vn -0.777497 0.620229 -0.103988
v -109.049 -98.9929 8.35689
vn -0.326857 0.644992 -0.69076
v -109.049 -98.9929 8.35689
vn -0.031471 0.722934 -0.6902
v -108.975 -99.4321 8.41868
vn -0.50094 0.413525 0.7603
v -108.975 -99.4321 8.41868
vn -0.0863048 -0.641012 0.762663
v -108.975 -99.4321 8.41868
vn -0.968431 -0.0525723 0.243675
v -108.975 -99.4321 8.41868
vn 0.279356 0.671761 0.686074
v -108.975 -99.4321 8.41868
vn -0.430162 -0.306576 0.849101
v -108.966 -99.228 8.4967
vn 0.23675 -0.61916 0.748726
v -108.966 -99.228 8.4967
vn 0.762879 -0.626948 -0.157959
v -108.971 -99.2131 8.51059
vn 0.0884265 -0.525934 0.845916
v -108.971 -99.2131 8.51059
vn -0.945124 -0.326505 0.0116003
v -108.971 -99.2131 8.51059
vn 0.116143 -0.581837 0.80497
v -108.766 -98.8742 8.72591
vn -0.557799 0.813071 0.166659
v -108.766 -98.8742 8.72591
vn -0.806796 0.14308 0.573244
v -108.766 -98.8742 8.72591
vn -0.342683 0.584531 -0.735454
v -108.314 -97.9688 8.96506
vn -0.772462 0.624851 -0.113416
v -107.797 -97.2898 9.18302
vn -0.95135 0.306192 0.0343618
v -107.797 -97.2898 9.18302
vn 0.328262 -0.309358 0.892492
v -111.914 -116.394 7.75451
vn 0.484814 -0.558151 0.673367
v -110.529 -113.352 8.53885
vn 0.0706494 -0.463305 0.883378
v -110.529 -113.352 8.53885
vn 0.66749 -0.0252033 -0.744192
v -108.703 -113.406 5.84225
vn 0.342648 0.222634 -0.912703
v -107.417 -106.507 6.61431
vn 0.75949 0.0565025 -0.64806
v -106.479 -102.002 7.28016
vn 0.523407 0.163466 -0.836256
v -107.636 -98.7871 8.57152
vn -0.774993 0.622551 -0.108703
v -107.494 -96.7695 9.99068
vn -0.765352 -0.020157 0.643296
v -107.494 -96.7695 9.99068
vn -0.0978095 0.357574 -0.928749
v -106.85 -94.6668 10.0752
vn -0.650957 0.478352 -0.589435
v -106.85 -94.6668 10.0752
vn -0.0910906 0.381581 -0.919836
v -105.908 -93.0794 10.7682
vn 0.436824 0.738894 -0.513051
v -105.646 -93.3584 10.6266
vn 0.629338 0.208283 -0.7487
v -106.042 -92.7325 10.7524
vn -0.650957 0.478352 -0.589435
v -106.042 -92.7325 10.7524
vn 0.673708 0.738564 -0.0252974
v -106.042 -92.7325 10.7524
vn -0.650957 0.478352 -0.589435
v -106.191 -92.5871 11.0346
vn -0.902817 0.429274 -0.0254182
v -106.191 -92.5871 11.0346
vn 0.597636 0.50435 -0.623267
v -106.191 -92.5871 11.0346
vn 0.697934 0.711547 0.0811712
v -105.87 -92.8848 10.8861
vn -0.498224 0.629254 0.596501
v -106.204 -92.5914 11.417
vn 0.584528 0.703561 -0.40414
v -106.088 -92.4146 11.3267
vn -0.28462 0.773412 0.566415
v -106.088 -92.4146 11.3267
vn 0.708385 -0.0369085 -0.70486
v -106.448 -109.299 7.28673
vn 0.789021 -0.0589148 -0.611535
v -106.671 -105.07 7.29675
vn 0.755483 -0.0394151 -0.653981
v -106.257 -105.179 7.37336
vn 0.811874 -0.0389278 -0.582533
v -105.815 -104.288 7.85149
vn 0.746785 0.0825304 -0.659924
v -105.5 -101.901 8.81487
vn 0.456726 0.272322 -0.846901
v -106.005 -98.7579 9.12227
vn 0.597443 0.758125 -0.26136
v -105.446 -93.4191 10.6719
vn 0.366747 0.763015 0.532264
v -105.202 -93.6764 12.3938
vn 0.220783 0.864741 0.451085
v -105.055 -93.7705 12.5023
vn -0.326289 0.448938 0.831859
v -105.055 -93.7705 12.5023
vn -0.0518582 0.865509 0.498202
v -105.808 -92.5482 11.588
vn -0.584395 0.147924 0.797873
v -105.808 -92.7155 11.8786
vn 0.623324 0.657542 0.423209
v -105.808 -92.7155 11.8786
vn 0.833514 -0.451043 0.319083
v -106.853 -110.264 9.25334
vn 0.498047 -0.524311 0.690686
v -107.032 -109.39 9.71515
vn 0.0662934 -0.406298 0.911333
v -108.113 -109.508 10.362
vn 0.634987 -0.576372 0.51438
v -107.565 -109.457 10.3446
vn -0.483843 -0.0227059 0.87486
v -107.383 -106.608 10.9453
vn 0.0616688 -0.347646 0.935596
v -106.656 -106.617 11.34
vn 0.640239 -0.425114 0.639821
v -106.656 -106.617 11.34
vn -0.572254 0.811287 0.119746
v -105.99 -103.036 10.1256
vn -0.572254 0.811287 0.119746
v -106.023 -103.264 11.5143
vn -0.0827781 0.620984 -0.77944
v -106.023 -103.264 11.5143
vn -0.599852 0.700396 -0.386812
v -106.023 -103.264 11.5143
vn -0.310313 -0.111687 0.944051
v -106.107 -103.87 11.7549
vn -0.335354 -0.113597 0.935218
v -105.992 -103.28 11.8481
vn 0.924558 -0.310446 0.220944
v -104.099 -102.12 9.91957
vn 0.970031 -0.101181 -0.220915
v -104.099 -102.12 9.91957
vn -0.599852 0.700396 -0.386812
v -105.207 -102.663 11.3383
vn 0.962138 -0.15106 0.226874
v -105.207 -102.663 11.3383
vn 0.257775 -0.153702 0.953901
v -105.207 -102.663 11.3383
vn -0.851067 0.152817 0.502326
v -105.207 -102.663 11.3383
vn 0.604068 0.791923 -0.0892173
v -105.207 -102.663 11.3383
vn -0.480627 0.0288159 0.876452
v -105.207 -102.663 11.3383
vn -0.480627 0.0288159 0.876452
v -105.069 -102.08 11.3949
vn 0.0497736 -0.310818 0.949165
v -105.069 -102.08 11.3949
vn -0.0827781 0.620984 -0.77944
v -105.67 -102.493 12.0911
vn -0.567778 -0.185082 0.802105
v -105.67 -102.493 12.0911
vn -0.258802 0.914107 -0.312139
v -105.67 -102.493 12.0911
vn -0.0433992 -0.244169 0.968761
v -105.508 -102.595 12.2105
vn -0.599852 0.700396 -0.386812
v -105.423 -102.41 12.1317
vn 0.449006 0.892837 -0.0351508
v -105.423 -102.41 12.1317
vn -0.258802 0.914107 -0.312139
v -105.423 -102.41 12.1317
vn -0.0433992 -0.244169 0.968761
v -105.387 -102.423 12.2593
vn 0.449006 0.892837 -0.0351508
v -105.387 -102.423 12.2593
vn -0.258802 0.914107 -0.312139
v -105.514 -102.386 12.2755
vn 0.036641 -0.29633 0.954383
v -105.514 -102.386 12.2755
vn 0.277262 0.960581 0.0202215
v -105.514 -102.386 12.2755
vn -0.480627 0.0288159 0.876452
v -104.64 -101.375 11.6072
vn 0.618619 -0.346805 0.705008
v -104.64 -101.375 11.6072
vn 0.0193818 -0.299284 0.953967
v -104.64 -101.375 11.6072
vn 0.699001 0.382326 -0.604338
v -104.402 -94.4799 11.5971
vn -0.326192 0.448994 0.831867
v -104.912 -94.243 12.8136
vn 0.376509 0.469167 0.798826
v -104.912 -94.243 12.8136
vn 0.701985 0.662672 0.260926
v -103.809 -94.8393 12.0314
vn 0.650728 -0.427417 0.627588
v -105.452 -103.855 11.972
vn 0.983338 -0.155678 0.0938693
v -105.452 -103.855 11.972
vn -0.123034 -0.189729 0.974097
v -105.452 -103.855 11.972
vn 0.945596 -0.16244 -0.28189
v -102.862 -96.92 12.9688
vn 0.0807981 -0.335485 0.938574
v -102.862 -96.92 12.9688
vn 0.857636 -0.200886 0.473398
v -102.862 -96.92 12.9688
vn 0.857636 -0.200886 0.473398
v -102.769 -96.5305 12.9649
vn 0.842607 0.369611 0.391664
v -102.769 -96.5305 12.9649
vn 0.857636 -0.200886 0.473398
v -102.861 -96.5076 13.1417
vn 0.745126 0.491032 0.451304
v -102.861 -96.5076 13.1417
vn 0.729341 0.546581 0.411474
v -102.804 -96.3093 12.8316
f 41//41 1//1 5//5
f 499//499 44//44 7//7
f 2//2 4//4 3//3
f 504//504 505//505 503//503
f 500//500 14//14 506//506
f 556//556 507//507 6//6
f 556//556 6//6 49//49
f 501//501 508//508 520//520
f 506//506 14//14 19//19
f 6//6 507//507 9//9
f 10//10 566//566 514//514
f 49//49 6//6 9//9
f 508//508 11//11 520//520
f 12//12 11//11 508//508
f 518//518 50//50 517//517
f 50//50 18//18 517//517
f 509//509 568//568 519//519
f 13//13 8//8 516//516
f 516//516 515//515 13//13
f 54//54 8//8 13//13
f 525//525 15//15 507//507
f 507//507 15//15 9//9
f 524//524 51//51 57//57
f 9//9 15//15 13//13
f 13//13 15//15 54//54
f 572//572 521//521 59//59
f 520//520 17//17 16//16
f 20//20 14//14 522//522
f 520//520 11//11 17//17
f 517//517 18//18 523//523
f 58//58 572//572 59//59
f 22//22 20//20 522//522
f 21//21 22//22 522//522
f 16//16 17//17 527//527
f 528//528 523//523 64//64
f 22//22 14//14 20//20
f 19//19 14//14 22//22
f 18//18 64//64 523//523
f 23//23 15//15 525//525
f 65//65 15//15 23//23
f 585//585 59//59 521//521
f 67//67 528//528 64//64
f 65//65 23//23 69//69
f 69//69 73//73 65//65
f 530//530 526//526 529//529
f 22//22 21//21 24//24
f 22//22 24//24 77//77
f 529//529 74//74 530//530
f 24//24 21//21 25//25
f 77//77 595//595 22//22
f 26//26 27//27 41//41
f 104//104 557//557 29//29
f 533//533 28//28 534//534
f 537//537 40//40 535//535
f 109//109 554//554 538//538
f 107//107 29//29 42//42
f 30//30 32//32 33//33
f 536//536 38//38 31//31
f 549//549 535//535 40//40
f 542//542 541//541 539//539
f 540//540 35//35 41//41
f 39//39 544//544 550//550
f 38//38 545//545 31//31
f 34//34 36//36 37//37
f 548//548 547//547 543//543
f 35//35 1//1 41//41
f 552//552 502//502 546//546
f 27//27 540//540 41//41
f 555//555 553//553 551//551
f 555//555 117//117 553//553
f 42//42 512//512 45//45
f 29//29 557//557 42//42
f 45//45 43//43 42//42
f 559//559 502//502 552//552
f 117//117 560//560 553//553
f 513//513 573//573 562//562
f 558//558 46//46 47//47
f 45//45 563//563 43//43
f 43//43 112//112 106//106
f 43//43 564//564 112//112
f 112//112 564//564 48//48
f 118//118 112//112 48//48
f 8//8 42//42 516//516
f 42//42 567//567 516//516
f 557//557 567//567 42//42
f 561//561 120//120 510//510
f 46//46 572//572 52//52
f 563//563 45//45 574//574
f 46//46 565//565 47//47
f 565//565 46//46 52//52
f 511//511 51//51 569//569
f 569//569 51//51 524//524
f 511//511 123//123 51//51
f 688//688 57//57 51//51
f 55//55 52//52 572//572
f 58//58 52//52 55//55
f 570//570 579//579 53//53
f 48//48 570//570 53//53
f 55//55 572//572 58//58
f 571//571 580//580 124//124
f 125//125 57//57 126//126
f 125//125 56//56 57//57
f 127//127 575//575 691//691
f 134//134 690//690 581//581
f 693//693 130//130 576//576
f 697//697 578//578 577//577
f 697//697 133//133 578//578
f 58//58 59//59 61//61
f 59//59 60//60 582//582
f 59//59 585//585 60//60
f 585//585 66//66 60//60
f 58//58 61//61 62//62
f 62//62 704//704 58//58
f 57//57 63//63 524//524
f 524//524 63//63 583//583
f 68//68 583//583 63//63
f 586//586 584//584 587//587
f 66//66 582//582 60//60
f 592//592 66//66 585//585
f 592//592 704//704 61//61
f 66//66 592//592 61//61
f 62//62 61//61 704//704
f 63//63 70//70 68//68
f 528//528 71//71 532//532
f 587//587 589//589 586//586
f 71//71 528//528 67//67
f 595//595 588//588 531//531
f 592//592 172//172 704//704
f 76//76 532//532 71//71
f 68//68 70//70 72//72
f 70//70 63//63 135//135
f 587//587 591//591 589//589
f 72//72 75//75 590//590
f 75//75 596//596 590//590
f 588//588 595//595 81//81
f 593//593 588//588 81//81
f 24//24 25//25 78//78
f 79//79 532//532 158//158
f 70//70 75//75 72//72
f 158//158 532//532 76//76
f 597//597 77//77 24//24
f 597//597 81//81 77//77
f 595//595 77//77 81//81
f 598//598 78//78 25//25
f 599//599 78//78 598//598
f 82//82 599//599 598//598
f 80//80 593//593 81//81
f 80//80 81//81 140//140
f 158//158 142//142 79//79
f 600//600 79//79 142//142
f 83//83 84//84 533//533
f 26//26 99//99 603//603
f 85//85 649//649 89//89
f 604//604 100//100 606//606
f 650//650 101//101 605//605
f 651//651 608//608 652//652
f 609//609 621//621 653//653
f 622//622 103//103 86//86
f 91//91 623//623 610//610
f 610//610 87//87 91//91
f 92//92 613//613 102//102
f 611//611 102//102 613//613
f 91//91 87//87 88//88
f 654//654 612//612 614//614
f 613//613 92//92 615//615
f 616//616 660//660 626//626
f 94//94 93//93 90//90
f 625//625 633//633 96//96
f 94//94 90//90 627//627
f 624//624 628//628 97//97
f 625//625 96//96 629//629
f 642//642 630//630 640//640
f 621//621 643//643 655//655
f 631//631 655//655 643//643
f 632//632 644//644 617//617
f 94//94 627//627 106//106
f 147//147 109//109 645//645
f 645//645 109//109 618//618
f 636//636 95//95 634//634
f 635//635 639//639 641//641
f 95//95 636//636 646//646
f 641//641 639//639 647//647
f 637//637 147//147 645//645
f 148//148 94//94 106//106
f 656//656 26//26 41//41
f 84//84 105//105 533//533
f 657//657 89//89 649//649
f 26//26 656//656 99//99
f 98//98 606//606 655//655
f 607//607 648//648 658//658
f 100//100 604//604 653//653
f 100//100 655//655 606//606
f 655//655 110//110 98//98
f 100//100 653//653 655//655
f 621//621 655//655 653//653
f 104//104 103//103 557//557
f 86//86 103//103 619//619
f 619//619 103//103 104//104
f 627//627 107//107 106//106
f 620//620 662//662 655//655
f 662//662 110//110 655//655
f 149//149 148//148 106//106
f 28//28 533//533 105//105
f 663//663 538//538 658//658
f 648//648 663//663 658//658
f 107//107 42//42 106//106
f 659//659 111//111 717//717
f 718//718 664//664 108//108
f 107//107 619//619 29//29
f 104//104 29//29 619//619
f 661//661 665//665 109//109
f 661//661 109//109 719//719
f 663//663 109//109 538//538
f 109//109 665//665 554//554
f 555//555 115//115 117//117
f 666//666 115//115 555//555
f 112//112 119//119 659//659
f 118//118 119//119 112//112
f 106//106 42//42 43//43
f 560//560 114//114 121//121
f 669//669 677//677 684//684
f 659//659 119//119 113//113
f 667//667 678//678 670//670
f 117//117 114//114 560//560
f 116//116 111//111 659//659
f 113//113 116//116 659//659
f 675//675 115//115 666//666
f 668//668 671//671 673//673
f 675//675 666//666 674//674
f 672//672 675//675 674//674
f 681//681 679//679 676//676
f 120//120 561//561 685//685
f 682//682 686//686 680//680
f 53//53 118//118 48//48
f 681//681 676//676 689//689
f 676//676 571//571 689//689
f 681//681 689//689 122//122
f 511//511 683//683 687//687
f 687//687 123//123 511//511
f 571//571 124//124 689//689
f 688//688 126//126 57//57
f 126//126 688//688 128//128
f 127//127 691//691 692//692
f 689//689 124//124 696//696
f 128//128 132//132 694//694
f 126//126 128//128 694//694
f 699//699 696//696 124//124
f 124//124 129//129 699//699
f 129//129 131//131 700//700
f 701//701 698//698 697//697
f 697//697 698//698 133//133
f 695//695 701//701 697//697
f 129//129 702//702 131//131
f 124//124 702//702 129//129
f 150//150 57//57 703//703
f 704//704 702//702 124//124
f 702//702 704//704 721//721
f 70//70 135//135 137//137
f 705//705 63//63 136//136
f 57//57 150//150 63//63
f 171//171 152//152 722//722
f 70//70 137//137 75//75
f 705//705 136//136 707//707
f 150//150 136//136 63//63
f 152//152 151//151 722//722
f 706//706 722//722 151//151
f 151//151 708//708 706//706
f 75//75 159//159 596//596
f 159//159 158//158 596//596
f 80//80 140//140 593//593
f 138//138 172//172 592//592
f 138//138 592//592 186//186
f 592//592 157//157 186//186
f 161//161 157//157 592//592
f 139//139 594//594 140//140
f 601//601 140//140 81//81
f 601//601 141//141 140//140
f 602//602 710//710 709//709
f 141//141 145//145 140//140
f 143//143 145//145 141//141
f 710//710 711//711 709//709
f 144//144 145//145 143//143
f 710//710 165//165 711//711
f 158//158 726//726 142//142
f 144//144 143//143 146//146
f 163//163 145//145 144//144
f 145//145 161//161 140//140
f 165//165 712//712 711//711
f 163//163 144//144 146//146
f 146//146 727//727 163//163
f 638//638 715//715 713//713
f 716//716 720//720 714//714
f 719//719 109//109 147//147
f 721//721 704//704 166//166
f 722//722 167//167 171//171
f 722//722 729//729 167//167
f 151//151 153//153 708//708
f 75//75 137//137 723//723
f 723//723 159//159 75//75
f 152//152 171//171 151//151
f 151//151 155//155 153//153
f 151//151 171//171 177//177
f 155//155 151//151 177//177
f 187//187 138//138 186//186
f 154//154 172//172 138//138
f 138//138 738//738 154//154
f 176//176 159//159 723//723
f 155//155 156//156 724//724
f 733//733 724//724 156//156
f 159//159 176//176 160//160
f 186//186 157//157 161//161
f 184//184 154//154 738//738
f 160//160 158//158 159//159
f 161//161 594//594 139//139
f 139//139 140//140 161//161
f 145//145 189//189 161//161
f 158//158 162//162 726//726
f 145//145 164//164 189//189
f 725//725 145//145 190//190
f 198//198 163//163 727//727
f 163//163 198//198 191//191
f 167//167 729//729 168//168
f 175//175 166//166 704//704
f 175//175 169//169 166//166
f 730//730 171//171 167//167
f 171//171 170//170 179//179
f 179//179 170//170 205//205
f 729//729 731//731 168//168
f 730//730 170//170 171//171
f 732//732 168//168 731//731
f 171//171 180//180 177//177
f 736//736 180//180 171//171
f 172//172 173//173 704//704
f 183//183 172//172 206//206
f 173//173 172//172 174//174
f 174//174 172//172 183//183
f 704//704 173//173 175//175
f 175//175 173//173 174//174
f 175//175 174//174 203//203
f 203//203 174//174 275//275
f 156//156 178//178 733//733
f 177//177 156//156 155//155
f 156//156 177//177 178//178
f 735//735 160//160 176//176
f 180//180 736//736 181//181
f 734//734 182//182 735//735
f 160//160 735//735 182//182
f 736//736 737//737 181//181
f 181//181 177//177 180//180
f 205//205 182//182 179//179
f 737//737 177//177 181//181
f 273//273 182//182 205//205
f 275//275 183//183 760//760
f 174//174 183//183 275//275
f 172//172 154//154 184//184
f 761//761 172//172 184//184
f 182//182 273//273 160//160
f 184//184 738//738 185//185
f 760//760 185//185 275//275
f 184//184 185//185 760//760
f 207//207 158//158 160//160
f 188//188 185//185 738//738
f 186//186 161//161 189//189
f 188//188 187//187 186//186
f 188//188 186//186 739//739
f 207//207 162//162 158//158
f 162//162 226//226 726//726
f 164//164 192//192 189//189
f 163//163 191//191 145//145
f 190//190 145//145 191//191
f 207//207 780//780 162//162
f 195//195 725//725 190//190
f 725//725 193//193 742//742
f 742//742 193//193 194//194
f 744//744 196//196 746//746
f 222//222 740//740 743//743
f 191//191 749//749 190//190
f 193//193 725//725 195//195
f 193//193 195//195 200//200
f 195//195 191//191 198//198
f 195//195 198//198 200//200
f 193//193 200//200 197//197
f 745//745 751//751 750//750
f 751//751 754//754 750//750
f 743//743 747//747 202//202
f 196//196 755//755 746//746
f 757//757 748//748 200//200
f 728//728 199//199 752//752
f 753//753 726//726 226//226
f 200//200 198//198 201//201
f 201//201 757//757 200//200
f 227//227 758//758 756//756
f 169//169 175//175 203//203
f 731//731 204//204 732//732
f 731//731 759//759 204//204
f 204//204 273//273 170//170
f 205//205 170//170 273//273
f 272//272 203//203 275//275
f 276//276 160//160 273//273
f 160//160 276//276 207//207
f 188//188 209//209 185//185
f 277//277 210//210 276//276
f 207//207 276//276 210//210
f 188//188 739//739 208//208
f 208//208 739//739 214//214
f 188//188 213//213 209//209
f 185//185 763//763 211//211
f 212//212 762//762 764//764
f 277//277 765//765 210//210
f 208//208 214//214 213//213
f 188//188 208//208 213//213
f 213//213 211//211 763//763
f 762//762 212//212 282//282
f 213//213 285//285 211//211
f 282//282 286//286 762//762
f 215//215 214//214 739//739
f 218//218 215//215 739//739
f 286//286 221//221 207//207
f 780//780 207//207 221//221
f 286//286 282//282 287//287
f 775//775 223//223 741//741
f 217//217 285//285 214//214
f 766//766 767//767 768//768
f 767//767 216//216 768//768
f 769//769 216//216 767//767
f 770//770 741//741 220//220
f 223//223 220//220 741//741
f 769//769 768//768 216//216
f 768//768 769//769 219//219
f 769//769 771//771 219//219
f 772//772 778//778 224//224
f 775//775 288//288 223//223
f 225//225 773//773 779//779
f 219//219 290//290 768//768
f 219//219 774//774 290//290
f 779//779 319//319 225//225
f 778//778 871//871 224//224
f 202//202 228//228 743//743
f 227//227 228//228 758//758
f 743//743 228//228 222//222
f 780//780 221//221 291//291
f 228//228 229//229 222//222
f 235//235 227//227 756//756
f 229//229 228//228 227//227
f 229//229 227//227 235//235
f 291//291 297//297 780//780
f 297//297 291//291 322//322
f 198//198 231//231 201//201
f 756//756 230//230 235//235
f 229//229 235//235 334//334
f 229//229 334//334 332//332
f 201//201 231//231 230//230
f 239//239 230//230 231//231
f 199//199 232//232 752//752
f 199//199 240//240 232//232
f 198//198 233//233 231//231
f 782//782 753//753 226//226
f 231//231 233//233 239//239
f 297//297 234//234 780//780
f 783//783 780//780 234//234
f 235//235 230//230 237//237
f 230//230 238//238 237//237
f 230//230 239//239 236//236
f 238//238 230//230 236//236
f 239//239 238//238 236//236
f 238//238 241//241 237//237
f 239//239 198//198 781//781
f 245//245 242//242 781//781
f 198//198 239//239 233//233
f 240//240 791//791 232//232
f 781//781 242//242 249//249
f 234//234 297//297 783//783
f 239//239 249//249 238//238
f 249//249 260//260 238//238
f 237//237 300//300 235//235
f 301//301 237//237 241//241
f 300//300 237//237 301//301
f 243//243 242//242 245//245
f 246//246 243//243 245//245
f 249//249 239//239 781//781
f 786//786 247//247 784//784
f 786//786 244//244 247//247
f 800//800 789//789 792//792
f 800//800 792//792 783//783
f 785//785 801//801 248//248
f 785//785 248//248 794//794
f 790//790 787//787 802//802
f 795//795 803//803 788//788
f 789//789 804//804 251//251
f 789//789 251//251 792//792
f 793//793 808//808 796//796
f 797//797 249//249 242//242
f 252//252 250//250 797//797
f 254//254 252//252 797//797
f 820//820 798//798 261//261
f 298//298 800//800 783//783
f 805//805 800//800 298//298
f 298//298 809//809 805//805
f 250//250 249//249 797//797
f 255//255 806//806 810//810
f 814//814 253//253 807//807
f 811//811 807//807 253//253
f 250//250 821//821 249//249
f 806//806 255//255 822//822
f 817//817 815//815 824//824
f 823//823 825//825 816//816
f 833//833 818//818 826//826
f 834//834 812//812 819//819
f 813//813 835//835 799//799
f 260//260 249//249 262//262
f 821//821 258//258 249//249
f 261//261 828//828 820//820
f 298//298 826//826 809//809
f 826//826 298//298 833//833
f 256//256 238//238 832//832
f 238//238 256//256 241//241
f 301//301 241//241 257//257
f 241//241 256//256 827//827
f 827//827 256//256 269//269
f 259//259 262//262 258//258
f 829//829 836//836 830//830
f 264//264 262//262 259//259
f 266//266 264//264 259//259
f 258//258 262//262 249//249
f 833//833 298//298 263//263
f 837//837 841//841 831//831
f 842//842 850//850 838//838
f 845//845 265//265 839//839
f 843//843 839//839 265//265
f 831//831 841//841 848//848
f 851//851 844//844 267//267
f 849//849 846//846 855//855
f 852//852 856//856 847//847
f 848//848 857//857 268//268
f 848//848 268//268 831//831
f 831//831 268//268 853//853
f 854//854 304//304 840//840
f 340//340 853//853 268//268
f 340//340 880//880 853//853
f 298//298 337//337 263//263
f 857//857 337//337 268//268
f 857//857 263//263 337//337
f 895//895 268//268 337//337
f 269//269 256//256 270//270
f 256//256 832//832 858//858
f 859//859 260//260 271//271
f 260//260 262//262 881//881
f 260//260 881//881 271//271
f 881//881 859//859 271//271
f 860//860 204//204 759//759
f 272//272 275//275 306//306
f 274//274 276//276 273//273
f 273//273 204//204 860//860
f 862//862 273//273 860//860
f 861//861 883//883 863//863
f 313//313 277//277 276//276
f 211//211 315//315 185//185
f 212//212 278//278 282//282
f 765//765 277//277 864//864
f 277//277 313//313 317//317
f 864//864 277//277 317//317
f 864//864 317//317 284//284
f 278//278 283//283 282//282
f 864//864 284//284 868//868
f 285//285 213//213 214//214
f 280//280 281//281 279//279
f 866//866 865//865 867//867
f 315//315 211//211 285//285
f 282//282 283//283 287//287
f 284//284 869//869 868//868
f 285//285 873//873 369//369
f 285//285 217//217 873//873
f 773//773 225//225 873//873
f 871//871 885//885 224//224
f 286//286 291//291 221//221
f 287//287 292//292 286//286
f 292//292 291//291 286//286
f 292//292 322//322 291//291
f 776//776 289//289 872//872
f 776//776 293//293 289//289
f 319//319 872//872 294//294
f 294//294 872//872 289//289
f 295//295 322//322 292//292
f 321//321 875//875 874//874
f 287//287 321//321 292//292
f 296//296 293//293 777//777
f 294//294 289//289 293//293
f 296//296 294//294 293//293
f 876//876 222//222 229//229
f 328//328 875//875 321//321
f 296//296 326//326 294//294
f 332//332 876//876 229//229
f 322//322 327//327 297//297
f 298//298 783//783 297//297
f 334//334 235//235 878//878
f 337//337 298//298 297//297
f 827//827 269//269 270//270
f 827//827 270//270 299//299
f 305//305 299//299 270//270
f 257//257 302//302 301//301
f 300//300 301//301 336//336
f 827//827 299//299 879//879
f 335//335 337//337 297//297
f 302//302 336//336 301//301
f 879//879 299//299 894//894
f 299//299 305//305 894//894
f 881//881 303//303 859//859
f 340//340 342//342 880//880
f 303//303 882//882 859//859
f 303//303 881//881 882//882
f 881//881 899//899 882//882
f 274//274 307//307 276//276
f 863//863 308//308 884//884
f 308//308 863//863 883//883
f 310//310 306//306 275//275
f 306//306 310//310 308//308
f 310//310 275//275 316//316
f 307//307 312//312 309//309
f 312//312 307//307 361//361
f 307//307 309//309 276//276
f 308//308 971//971 884//884
f 275//275 185//185 316//316
f 316//316 401//401 310//310
f 309//309 311//311 276//276
f 312//312 311//311 309//309
f 276//276 311//311 313//313
f 311//311 312//312 972//972
f 311//311 972//972 313//313
f 317//317 313//313 314//314
f 316//316 185//185 315//315
f 314//314 313//313 362//362
f 362//362 363//363 314//314
f 362//362 313//313 972//972
f 317//317 314//314 363//363
f 284//284 317//317 318//318
f 364//364 318//318 317//317
f 284//284 318//318 870//870
f 315//315 285//285 369//369
f 369//369 368//368 315//315
f 873//873 225//225 319//319
f 319//319 369//369 873//873
f 320//320 319//319 294//294
f 326//326 320//320 294//294
f 369//369 319//319 320//320
f 372//372 369//369 320//320
f 287//287 323//323 321//321
f 323//323 324//324 321//321
f 870//870 325//325 887//887
f 325//325 888//888 887//887
f 324//324 328//328 321//321
f 329//329 888//888 325//325
f 888//888 329//329 889//889
f 326//326 374//374 320//320
f 320//320 978//978 416//416
f 372//372 320//320 416//416
f 374//374 296//296 375//375
f 374//374 326//326 296//296
f 295//295 890//890 322//322
f 327//327 886//886 331//331
f 322//322 890//890 892//892
f 890//890 330//330 892//892
f 329//329 891//891 889//889
f 376//376 892//892 330//330
f 327//327 331//331 981//981
f 893//893 333//333 877//877
f 335//335 297//297 327//327
f 877//877 333//333 979//979
f 335//335 327//327 414//414
f 334//334 878//878 894//894
f 894//894 339//339 334//334
f 334//334 339//339 379//379
f 335//335 338//338 337//337
f 380//380 337//337 338//338
f 335//335 380//380 338//338
f 382//382 339//339 894//894
f 383//383 339//339 382//382
f 337//337 352//352 895//895
f 337//337 380//380 385//385
f 352//352 337//337 385//385
f 894//894 305//305 382//382
f 343//343 896//896 937//937
f 305//305 900//900 341//341
f 305//305 341//341 344//344
f 910//910 906//906 901//901
f 907//907 897//897 902//902
f 347//347 342//342 340//340
f 345//345 903//903 348//348
f 345//345 344//344 903//903
f 350//350 904//904 922//922
f 351//351 348//348 903//903
f 905//905 931//931 934//934
f 911//911 898//898 938//938
f 938//938 898//898 908//908
f 343//343 923//923 896//896
f 344//344 382//382 305//305
f 924//924 912//912 346//346
f 925//925 909//909 913//913
f 346//346 912//912 939//939
f 345//345 382//382 344//344
f 940//940 914//914 919//919
f 927//927 349//349 915//915
f 920//920 916//916 928//928
f 921//921 929//929 932//932
f 926//926 921//921 932//932
f 349//349 927//927 935//935
f 930//930 936//936 933//933
f 355//355 353//353 354//354
f 354//354 356//356 355//355
f 983//983 357//357 358//358
f 382//382 345//345 955//955
f 961//961 956//956 946//946
f 947//947 957//957 942//942
f 958//958 384//384 952//952
f 959//959 953//953 944//944
f 960//960 945//945 943//943
f 954//954 984//984 948//948
f 985//985 360//360 949//949
f 958//958 917//917 384//384
f 918//918 941//941 986//986
f 987//987 391//391 968//968
f 359//359 1007//1007 962//962
f 359//359 962//962 950//950
f 951//951 969//969 966//966
f 1008//1008 967//967 970//970
f 308//308 310//310 401//401
f 308//308 401//401 398//398
f 398//398 971//971 308//308
f 971//971 398//398 973//973
f 973//973 398//398 363//363
f 365//365 363//363 398//398
f 317//317 363//363 364//364
f 363//363 365//365 364//364
f 364//364 365//365 366//366
f 398//398 399//399 365//365
f 365//365 399//399 367//367
f 365//365 367//367 974//974
f 364//364 366//366 870//870
f 870//870 318//318 364//364
f 315//315 975//975 316//316
f 406//406 316//316 975//975
f 368//368 369//369 371//371
f 1026//1026 976//976 405//405
f 368//368 371//371 405//405
f 870//870 366//366 402//402
f 370//370 371//371 369//369
f 404//404 325//325 870//870
f 371//371 370//370 405//405
f 977//977 407//407 370//370
f 369//369 372//372 373//373
f 372//372 416//416 413//413
f 373//373 372//372 413//413
f 369//369 373//373 407//407
f 329//329 412//412 891//891
f 982//982 891//891 412//412
f 412//412 329//329 325//325
f 412//412 325//325 436//436
f 334//334 333//333 893//893
f 416//416 978//978 980//980
f 413//413 416//416 415//415
f 981//981 414//414 327//327
f 334//334 979//979 333//333
f 335//335 414//414 380//380
f 377//377 979//979 334//334
f 334//334 379//379 377//377
f 417//417 979//979 418//418
f 381//381 418//418 979//979
f 339//339 378//378 379//379
f 378//378 339//339 383//383
f 381//381 379//379 378//378
f 378//378 383//383 381//381
f 379//379 381//381 377//377
f 377//377 381//381 979//979
f 380//380 419//419 385//385
f 987//987 352//352 385//385
f 987//987 385//385 391//391
f 382//382 963//963 420//420
f 389//389 964//964 387//387
f 386//386 997//997 388//388
f 988//988 965//965 998//998
f 390//390 388//388 997//997
f 963//963 989//989 420//420
f 964//964 1009//1009 387//387
f 392//392 990//990 1010//1010
f 392//392 1000//1000 990//990
f 1011//1011 991//991 994//994
f 996//996 393//393 992//992
f 995//995 993//993 1014//1014
f 387//387 1015//1015 389//389
f 1000//1000 392//392 1016//1016
f 1001//1001 393//393 996//996
f 383//383 382//382 420//420
f 394//394 1012//1012 391//391
f 1015//1015 1017//1017 389//389
f 1015//1015 1013//1013 1017//1017
f 999//999 1018//1018 1002//1002
f 394//394 391//391 385//385
f 989//989 1003//1003 420//420
f 1019//1019 421//421 1004//1004
f 395//395 1005//1005 1030//1030
f 1006//1006 1020//1020 396//396
f 420//420 1003//1003 396//396
f 420//420 396//396 397//397
f 397//397 396//396 1020//1020
f 1030//1030 1021//1021 395//395
f 398//398 401//401 400//400
f 398//398 400//400 1023//1023
f 399//399 398//398 1023//1023
f 399//399 1023//1023 367//367
f 367//367 1023//1023 974//974
f 400//400 401//401 434//434
f 400//400 403//403 1023//1023
f 401//401 316//316 406//406
f 402//402 404//404 870//870
f 431//431 1023//1023 403//403
f 1024//1024 1023//1023 431//431
f 403//403 432//432 431//431
f 370//370 407//407 405//405
f 411//411 405//405 407//407
f 436//436 325//325 404//404
f 407//407 373//373 408//408
f 411//411 407//407 408//408
f 410//410 411//411 408//408
f 409//409 373//373 413//413
f 408//408 373//373 409//409
f 439//439 409//409 413//413
f 409//409 410//410 408//408
f 410//410 409//409 1048//1048
f 413//413 1027//1027 439//439
f 411//411 410//410 1048//1048
f 412//412 464//464 982//982
f 439//439 1027//1027 438//438
f 982//982 467//467 414//414
f 467//467 982//982 464//464
f 1028//1028 416//416 980//980
f 1047//1047 415//415 416//416
f 414//414 419//419 380//380
f 418//418 381//381 447//447
f 383//383 1051//1051 381//381
f 447//447 417//417 418//418
f 419//419 451//451 385//385
f 385//385 1031//1031 394//394
f 1051//1051 383//383 420//420
f 385//385 451//451 1031//1031
f 449//449 446//446 1051//1051
f 451//451 429//429 1031//1031
f 429//429 1022//1022 1031//1031
f 1051//1051 420//420 449//449
f 429//429 422//422 1022//1022
f 397//397 1032//1032 420//420
f 449//449 420//420 424//424
f 420//420 1032//1032 426//426
f 1029//1029 1036//1036 423//423
f 1034//1034 424//424 420//420
f 428//428 423//423 1036//1036
f 1035//1035 425//425 1052//1052
f 1035//1035 423//423 425//425
f 428//428 450//450 425//425
f 428//428 425//425 423//423
f 1042//1042 427//427 450//450
f 450//450 1052//1052 425//425
f 487//487 450//450 427//427
f 1037//1037 1033//1033 1039//1039
f 1040//1040 422//422 429//429
f 1042//1042 1038//1038 427//427
f 430//430 1040//1040 429//429
f 1044//1044 455//455 1041//1041
f 457//457 1045//1045 1043//1043
f 1097//1097 1041//1041 455//455
f 1044//1044 456//456 455//455
f 1056//1056 1045//1045 457//457
f 400//400 433//433 403//403
f 433//433 400//400 434//434
f 460//460 431//431 432//432
f 431//431 435//435 1024//1024
f 435//435 431//431 1060//1060
f 433//433 432//432 403//403
f 433//433 460//460 432//432
f 458//458 433//433 434//434
f 433//433 458//458 1060//1060
f 437//437 401//401 406//406
f 404//404 461//461 436//436
f 1026//1026 405//405 411//411
f 1026//1026 411//411 1046//1046
f 1063//1063 412//412 436//436
f 461//461 1063//1063 436//436
f 462//462 1061//1061 1025//1025
f 1046//1046 411//411 1048//1048
f 465//465 1063//1063 461//461
f 1048//1048 442//442 1046//1046
f 438//438 441//441 439//439
f 442//442 1048//1048 440//440
f 1049//1049 440//440 1048//1048
f 1049//1049 442//442 440//440
f 441//441 438//438 444//444
f 1049//1049 1050//1050 442//442
f 414//414 467//467 445//445
f 416//416 1028//1028 443//443
f 1047//1047 416//416 1050//1050
f 1050//1050 416//416 443//443
f 1028//1028 446//446 443//443
f 443//443 446//446 1050//1050
f 442//442 1050//1050 473//473
f 414//414 445//445 419//419
f 1028//1028 1051//1051 446//446
f 1050//1050 446//446 494//494
f 445//445 493//493 419//419
f 446//446 448//448 494//494
f 486//486 419//419 493//493
f 449//449 448//448 446//446
f 451//451 1057//1057 429//429
f 490//490 1097//1097 455//455
f 456//456 1100//1100 455//455
f 488//488 451//451 419//419
f 487//487 1052//1052 450//450
f 1057//1057 451//451 453//453
f 449//449 1097//1097 448//448
f 451//451 1098//1098 453//453
f 1058//1058 452//452 1100//1100
f 452//452 1058//1058 1053//1053
f 1100//1100 452//452 454//454
f 452//452 1053//1053 1054//1054
f 1098//1098 1055//1055 453//453
f 1058//1058 1100//1100 456//456
f 401//401 437//437 459//459
f 434//434 401//401 459//459
f 1059//1059 434//434 459//459
f 1061//1061 462//462 1064//1064
f 1062//1062 1024//1024 435//435
f 435//435 1060//1060 1062//1062
f 437//437 463//463 459//459
f 463//463 1060//1060 458//458
f 1059//1059 459//459 463//463
f 1062//1062 1060//1060 463//463
f 1063//1063 465//465 492//492
f 1062//1062 463//463 1065//1065
f 1065//1065 463//463 466//466
f 1065//1065 466//466 1101//1101
f 470//470 1102//1102 466//466
f 1046//1046 442//442 473//473
f 467//467 464//464 468//468
f 469//469 468//468 464//464
f 472//472 468//468 469//469
f 472//472 477//477 468//468
f 1066//1066 1067//1067 474//474
f 479//479 1068//1068 1082//1082
f 1070//1070 1063//1063 492//492
f 1086//1086 1074//1074 1069//1069
f 466//466 463//463 470//470
f 470//470 1075//1075 480//480
f 470//470 471//471 1076//1076
f 463//463 471//471 470//470
f 480//480 1102//1102 470//470
f 1071//1071 1070//1070 492//492
f 492//492 1083//1083 1071//1071
f 478//478 1083//1083 492//492
f 1103//1103 1089//1089 1085//1085
f 463//463 437//437 1072//1072
f 1072//1072 482//482 476//476
f 467//467 475//475 445//445
f 475//475 483//483 445//445
f 1077//1077 475//475 467//467
f 1087//1087 1090//1090 1078//1078
f 484//484 1076//1076 471//471
f 1079//1079 1094//1094 1080//1080
f 463//463 1072//1072 471//471
f 1072//1072 476//476 471//471
f 471//471 476//476 485//485
f 471//471 485//485 1095//1095
f 481//481 1083//1083 478//478
f 1084//1084 1091//1091 1088//1088
f 1085//1085 1089//1089 1092//1092
f 1090//1090 1087//1087 1093//1093
f 473//473 1050//1050 494//494
f 495//495 482//482 1072//1072
f 494//494 1104//1104 1073//1073
f 483//483 493//493 445//445
f 476//476 482//482 485//485
f 485//485 482//482 495//495
f 495//495 1095//1095 485//485
f 1081//1081 1096//1096 1105//1105
f 493//493 483//483 475//475
f 486//486 493//493 491//491
f 497//497 491//491 493//493
f 488//488 419//419 486//486
f 486//486 491//491 488//488
f 497//497 489//489 491//491
f 494//494 448//448 490//490
f 489//489 1100//1100 454//454
f 489//489 454//454 1099//1099
f 448//448 1097//1097 490//490
f 489//489 1099//1099 491//491
f 1081//1081 1105//1105 493//493
f 1105//1105 497//497 493//493
f 494//494 490//490 498//498
f 498//498 496//496 494//494
f 1111//1111 1100//1100 489//489
f 494//494 496//496 1104//1104
f 1106//1106 1107//1107 1109//1109
f 1108//1108 1111//1111 1110//1110
f 489//489 1110//1110 1111//1111
