# Wavafront OBJ file of BodyParts3D
# BodyParts3D, Copyright(C) 2010-2011 The Database Center for Life Science licensed under CC Attribution-Share Alike 2.1 Japan.
vn 0.29658 -0.734023 0.610942
v -107.792 -142.505 14.4561
vn -0.699127 0.284898 -0.655785
v -107.631 -142.481 14.446
vn 0.29658 -0.734023 0.610942
v -107.665 -142.459 14.4493
vn 0.29658 -0.734023 0.610942
v -107.769 -142.435 14.5283
vn -0.822555 0.00893035 0.568615
v -107.516 -142.373 15.5276
vn -0.735437 0.278706 -0.61762
v -107.438 -140.525 15.1261
vn -0.902407 -0.0234752 0.430245
v -107.267 -140.898 15.8494
vn -0.795383 -0.0425499 0.604611
v -107.158 -140.929 15.9907
vn -0.630265 -0.116817 0.767541
v -107.233 -141.373 15.946
vn -0.629193 -0.512391 0.584442
v -107.074 -140.796 16.1416
vn -0.669339 -0.524861 0.525839
v -106.929 -140.086 16.9174
vn -0.961691 0.0949453 0.257167
v -106.63 -138.791 17.7097
vn -0.455334 -0.472739 0.754446
v -106.654 -139.095 17.6971
vn -0.911101 0.0702082 0.406159
v -106.472 -138.535 18.1621
vn -0.946329 0.141154 0.290751
v -106.377 -137.627 18.0475
vn -0.967089 0.141727 0.211313
v -106.45 -135.402 16.6516
vn -0.98066 0.193879 0.0267739
v -106.368 -134.95 16.366
vn -0.50682 0.381317 -0.773131
v -105.963 -135.043 16.0543
vn -0.670946 0.406087 -0.620423
v -105.839 -133.549 16.8119
vn 0.279378 0.338985 -0.898352
v -105.297 -132.77 17.2901
vn -0.956159 0.135154 0.259796
v -105.748 -132.204 17.6553
vn -0.980754 0.1948 0.0132046
v -105.499 -131.193 17.9862
vn 0.270517 0.337969 -0.901442
v -105.452 -131.2 17.8321
vn -0.549565 0.110511 -0.82811
v -105.344 -131.224 17.7023
vn -0.512401 0.138599 -0.847488
v -105.289 -131.61 17.6509
vn 0.179659 0.499835 -0.847283
v -105.118 -130.974 17.8086
vn -0.0561911 0.320661 -0.945526
v -105.096 -131.437 17.5901
vn -0.217781 0.388214 -0.895467
v -104.728 -131.222 17.6449
vn 0.88679 0.391713 -0.245284
v -104.434 -131.148 17.9134
vn -0.960862 0.171055 0.217908
v -105.367 -130.612 18.1547
vn -0.92012 0.171782 -0.351952
v -105.374 -130.755 17.811
vn -0.593729 0.712545 -0.373851
v -105.32 -130.621 18.0626
vn 0.0382918 0.588535 -0.807564
v -105.189 -130.695 17.9878
vn -0.346967 0.463581 -0.815295
v -105.072 -130.275 18.1498
vn -0.199638 0.411199 -0.889416
v -104.757 -130.909 17.7968
vn 0.576334 0.484181 -0.658337
v -104.546 -130.966 17.9298
vn -0.888124 0.111563 0.445858
v -104.18 -130.69 21.2288
vn -0.455478 0.47279 -0.754327
v -104.756 -129.078 18.6353
vn -0.537701 0.430476 -0.724961
v -104.874 -129.052 18.7527
vn -0.362877 0.336352 -0.869015
v -104.62 -128.957 18.6313
vn -0.948225 0.262725 0.178452
v -103.825 -129.392 21.4152
vn -0.97337 0.137953 0.183083
v -103.68 -128.978 21.876
vn -0.90293 0.0625233 0.425215
v -103.799 -129.403 21.5634
vn -0.246933 0.254632 -0.934979
v -104.495 -128.172 18.8099
vn -0.946541 0.240527 0.214955
v -103.539 -128.563 22.3372
vn -0.939862 0.0684158 0.334633
v -103.565 -128.711 22.3379
vn -0.390884 -0.880114 0.269462
v -103.486 -128.424 22.4278
vn -0.390884 -0.880114 0.269462
v -103.391 -128.45 22.4826
vn -0.390884 -0.880114 0.269462
v -103.477 -128.409 22.4906
vn -0.934391 0.356245 -0.00189011
v -103.16 -127.584 22.6575
vn -0.233649 0.261517 -0.936492
v -103.115 -125.337 19.4976
vn -0.841975 0.393875 -0.368701
v -103.299 -124.999 20.0788
vn -0.85204 0.287236 -0.437635
v -102.571 -123.252 19.8084
vn -0.841517 -0.537579 -0.0534702
v -114.696 -171.457 4.70316
vn -0.955663 -0.0534027 -0.289581
v -114.849 -171.005 4.73511
vn -0.783958 -0.476361 0.398107
v -114.722 -171.205 5.1684
vn -0.82415 0.540541 0.169092
v -114.624 -170.593 4.58803
vn -0.867417 0.397102 0.299831
v -114.579 -170.622 5.18566
vn -0.761725 -0.269547 -0.589169
v -114.662 -171.195 4.32929
vn -0.660863 0.216605 -0.718569
v -114.628 -171.048 4.30236
vn -0.851024 0.196644 0.486919
v -114.329 -170.95 5.75484
vn -0.793618 0.446822 -0.412941
v -114.163 -170.286 5.77426
vn -0.542279 -0.550685 0.63457
v -114.155 -171.363 5.72327
vn -0.57868 -0.282527 0.765054
v -114.38 -170.239 6.24338
vn -0.731069 0.681896 0.0235788
v -113.752 -169.768 5.92017
vn -0.900576 -0.0932204 0.424585
v -109.054 -152.117 12.7395
vn -0.996 0.036582 0.0815256
v -109.145 -153.158 12.095
vn -0.825882 0.288766 -0.484287
v -108.722 -149.736 13.1288
vn -0.657894 0.276306 -0.700593
v -108.297 -149.066 13.0374
vn -0.942013 0.22001 -0.25339
v -108.667 -149.149 13.7546
vn -0.854281 0.309898 -0.417333
v -108.629 -149.3 13.2932
vn -0.766336 0.22653 -0.601177
v -108.113 -147.728 13.3306
vn -0.776037 0.157724 -0.610647
v -107.897 -147.623 13.1698
vn -0.648464 -0.0681367 0.75819
v -108.189 -148.063 14.8257
vn -0.293576 -0.066363 0.953629
v -107.949 -147.661 14.9205
vn -0.191404 -0.202187 0.960461
v -107.913 -148.134 14.9005
vn -0.639996 0.293523 -0.710105
v -107.736 -146.244 13.2231
vn -0.914093 0.0942102 0.39441
v -108.328 -147.088 14.4295
vn -0.99938 -0.0351949 0.0010373
v -107.243 -145.618 13.0673
vn -0.344237 0.283423 -0.895082
v -107.472 -145.264 13.4752
vn -0.766572 0.50443 -0.397388
v -107.213 -145.326 13.3799
vn -0.98456 -0.11436 -0.132526
v -107.26 -145.155 13.2407
vn -0.869478 0.0523537 0.49119
v -107.932 -145.045 15.2501
vn 0.302921 -0.141451 0.94246
v -107.207 -145.379 15.1602
vn -0.899442 0.0991645 -0.42564
v -107.209 -144.699 13.0762
vn -0.65512 0.225683 -0.72103
v -108.057 -144.82 13.9146
vn -0.965794 -0.0568261 -0.253006
v -107.376 -144.822 13.415
vn -0.996568 0.0665562 -0.049214
v -107.383 -144.824 13.5659
vn -0.852312 -0.242959 -0.463179
v -107.396 -144.975 13.532
vn -0.9752 0.122777 0.184147
v -107.776 -144.157 15.2807
vn -0.651012 -0.000485524 0.759067
v -107.698 -144.955 15.4507
vn -0.197451 0.0328256 0.979763
v -107.378 -144.259 15.3644
vn -0.52074 -0.16142 0.838316
v -106.841 -142.892 15.8764
vn -0.686452 -0.167172 0.707698
v -106.681 -142.905 15.9801
vn -0.723827 0.238656 -0.647393
v -107.302 -141.776 14.4355
vn -0.443752 -0.136827 0.885643
v -107.402 -142.558 15.5823
vn -0.394758 -0.28509 0.873436
v -106.388 -141.912 16.5385
vn -0.688564 0.287485 -0.665757
v -106.602 -140.703 14.0581
vn -0.134678 0.000626519 0.990889
v -107.009 -141.122 16.0265
vn -0.178298 -0.263169 0.948131
v -106.973 -140.977 16.0377
vn -0.311581 0.196378 0.929706
v -106.862 -141.16 16.0496
vn -0.418588 -0.105108 0.902073
v -106.782 -141.182 16.103
vn -0.124424 -0.0217095 0.991992
v -106.828 -141.013 16.0175
vn -0.676897 -0.558033 0.480011
v -106.665 -140.76 16.5661
vn -0.769443 -0.286322 0.570944
v -106.583 -140.785 16.7097
vn -0.240145 -0.421634 0.874389
v -105.827 -140.528 17.2978
vn 0.381487 0.304633 -0.872735
v -105.748 -138.774 14.8463
vn 0.599578 0.269148 -0.753701
v -105.554 -137.562 15.4335
vn 0.105306 -0.40608 0.90775
v -105.182 -137.793 18.7777
vn 0.154198 -0.447645 0.880816
v -104.943 -138.001 18.5376
vn 0.00242887 0.252539 -0.967584
v -105.775 -136.622 15.5555
vn -0.152231 0.185225 -0.970834
v -105.365 -136.809 15.4556
vn 0.888086 0.336854 -0.312783
v -105.133 -136.784 15.5909
vn 0.379624 0.23063 -0.895933
v -105.166 -136.262 16.2199
vn 0.3156 0.26179 -0.912065
v -104.995 -136.22 16.2909
vn -0.0814114 -0.337795 0.937692
v -105.118 -136.43 19.2064
vn -0.0586565 -0.395709 0.916501
v -104.844 -137.109 18.9411
vn 0.405654 0.179961 -0.896136
v -105.21 -135.701 16.2493
vn 0.402581 0.153147 -0.902483
v -105.03 -135.748 16.3249
vn 0.357699 0.329782 -0.873668
v -105.072 -134.205 16.8165
vn -0.325894 0.303731 -0.895288
v -104.679 -133.837 16.7144
vn 0.0279842 0.31234 -0.949558
v -104.146 -134.119 16.4967
vn 0.385332 0.431107 -0.815884
v -104.032 -133.731 16.7104
vn 0.791979 0.348028 -0.501642
v -103.902 -133.726 16.8519
vn -0.384259 0.235319 -0.892732
v -104.791 -132.586 17.2349
vn 0.758999 0.286279 -0.584778
v -103.884 -133.426 17.0153
vn 0.915917 0.327348 -0.232249
v -104.071 -132.616 17.3675
vn 0.831577 0.403398 -0.381772
v -103.969 -133.008 17.1913
vn -0.23505 0.310132 -0.921178
v -103.909 -132.867 17.4948
vn 0.345975 -0.333705 0.876894
v -103.559 -132.982 20.2179
vn -0.208132 0.344162 -0.915551
v -104.444 -131.289 17.5277
vn 0.417599 0.339359 -0.84288
v -104.23 -131.202 17.9918
vn -0.672637 -0.0600036 0.737535
v -104.152 -131.933 21.1533
vn 0.398635 -0.405258 0.822713
v -103.163 -131.587 20.8142
vn -0.79419 -0.0804896 0.602316
v -103.604 -129.922 21.7451
vn 0.442016 -0.435574 0.784154
v -102.957 -127.637 22.7078
vn -0.446094 -0.2813 0.84963
v -102.75 -126.926 23.091
vn -0.566621 -0.176505 0.804852
v -102.661 -126.335 23.283
vn 0.995245 -0.0644338 -0.0730515
v -101.788 -125.906 22.2804
vn 0.993257 -0.0448883 -0.106887
v -101.756 -125.927 22.7229
vn 0.870806 -0.372907 0.320371
v -101.727 -125.941 22.9347
vn 0.272384 0.214525 -0.937969
v -102.464 -125.189 19.4149
vn -0.854659 0.428021 0.293864
v -102.352 -124.828 21.9772
vn 0.771979 -0.514798 0.372869
v -101.456 -125.317 22.6439
vn -0.903279 -0.00392875 0.429037
v -102.15 -124.794 24.3731
vn 0.615432 -0.573645 0.540533
v -101.97 -124.839 24.3814
vn 0.115771 0.603845 0.78865
v -101.915 -124.536 24.1416
vn 0.749565 0.245462 0.614736
v -101.806 -124.718 24.1325
vn 0.803747 0.109756 0.58476
v -101.592 -124.919 23.8763
vn -0.873497 0.486026 -0.0279679
v -101.553 -123.44 23.3408
vn -0.0708481 -0.238965 0.96844
v -101.242 -123.445 23.3623
vn 0.617196 -0.369415 0.694696
v -101.017 -123.954 22.9779
vn 0.395948 -0.468135 0.789984
v -101.066 -123.95 23.2584
vn -0.934908 0.349928 0.0591399
v -101.849 -124.069 23.4827
vn 0.228915 0.685373 0.691275
v -101.566 -124.308 23.9216
vn 0.939964 -0.289019 0.181483
v -101.365 -124.503 23.5788
vn 0.946338 -0.225975 0.23104
v -101.448 -124.496 24.0345
vn 0.45974 0.617861 0.637877
v -101.425 -124.341 23.8522
vn -0.0708481 -0.238965 0.96844
v -101.048 -122.725 23.554
vn 0.306429 0.113466 -0.945107
v -100.958 -121.258 20.2105
vn -0.742296 0.484118 0.463279
v -100.9 -121.086 20.3945
vn -0.700573 0.704553 0.113146
v -100.776 -122.019 23.5033
vn -0.625431 -0.529764 -0.572875
v -114.329 -171.786 4.51135
vn -0.481074 -0.812585 0.329051
v -114.278 -171.778 5.09845
vn 0.163794 -0.981819 0.0959302
v -113.837 -171.865 5.07517
vn 0.338247 -0.864113 -0.372688
v -113.654 -171.774 4.916
vn -0.0119437 -0.840113 0.542279
v -113.753 -171.679 5.52962
vn -0.499859 -0.124548 -0.857105
v -114.241 -171.293 4.08257
vn -0.453658 0.426778 -0.78234
v -114.093 -170.713 4.13928
vn 0.448076 -0.53958 -0.712798
v -113.631 -171.458 4.47764
vn 0.394618 0.00119152 -0.918844
v -113.42 -170.58 4.3781
vn 0.565388 -0.790517 -0.235413
v -113.149 -171.582 5.04005
vn 0.475196 -0.803754 0.358006
v -113.08 -171.451 5.4929
vn -0.691628 0.689657 0.214533
v -113.474 -169.631 6.50923
vn 0.0754482 -0.533936 0.842152
v -113.218 -170.545 6.73411
vn -0.777869 0.53276 0.333298
v -113.101 -168.844 5.76718
vn -0.383398 0.0244043 0.923261
v -112.397 -169.212 7.03986
vn -0.763503 0.368975 0.530019
v -112.276 -167.667 6.06533
vn -0.99889 -0.0163361 -0.0441731
v -109.018 -155.48 11.0739
vn -0.981866 0.0131089 -0.18912
v -109.131 -154.49 11.7305
vn -0.993736 0.110038 -0.0194995
v -107.654 -150.734 11.652
vn -0.424047 0.251747 -0.869947
v -107.426 -150.628 11.3717
vn -0.559718 0.315324 -0.766347
v -108.405 -150.571 12.5017
vn -0.565997 0.298857 -0.768331
v -107.635 -150.441 12.0408
vn -0.959477 0.145848 -0.241107
v -107.581 -150.293 11.8182
vn -0.458933 -0.272547 0.845635
v -108.352 -150.775 13.7603
vn 0.0721268 -0.225347 0.971605
v -107.361 -150.409 13.9047
vn 0.204691 -0.27159 0.940394
v -107.51 -151.142 13.7927
vn -0.74137 0.224137 -0.632561
v -107.167 -147.928 12.0281
vn 0.473737 -0.273423 0.837146
v -107.674 -148.342 14.6646
vn -0.237992 -0.282358 0.929319
v -106.474 -147.868 14.6236
vn 0.127823 -0.10748 0.985956
v -106.749 -146.57 14.9084
vn -0.684293 0.154611 -0.712628
v -106.798 -145.409 12.6847
vn -0.364249 -0.277459 0.88901
v -106.553 -146.47 15.0992
vn -0.0743494 0.294352 -0.952801
v -106.132 -144.652 12.8356
vn 0.17173 -0.283023 0.943614
v -106.15 -144.423 15.7078
vn 0.0401309 -0.340958 0.939222
v -106.163 -143.347 16.0673
vn -0.122681 -0.357205 0.925934
v -105.874 -143.437 16.0839
vn 0.0600374 -0.317114 0.946485
v -105.931 -144.168 15.7161
vn -0.0813568 0.332571 -0.939562
v -105.251 -141.959 13.7008
vn 0.060016 0.338463 -0.939064
v -105.684 -140.781 14.1451
vn -0.233259 0.319039 -0.918588
v -105.313 -138.882 14.8023
vn -0.299266 -0.429463 0.852057
v -104.618 -138.541 18.3325
vn -0.239868 -0.535114 0.81001
v -104.372 -138.757 18.3439
vn -0.189159 -0.492917 0.849265
v -104.325 -138.619 18.4975
vn -0.0942816 0.310355 -0.945934
v -104.973 -138.199 14.9923
vn 0.675529 0.42531 -0.602305
v -104.876 -137.932 15.3685
vn 0.32877 0.503397 -0.799063
v -104.743 -137.504 15.6932
vn 0.339434 0.479455 -0.809263
v -104.819 -137.24 15.8486
vn 0.283455 0.317791 -0.9048
v -103.582 -136.655 15.9394
vn 0.151632 -0.379132 0.912834
v -103.766 -136.615 19.2372
vn 0.828309 -0.174129 0.532525
v -103.623 -136.797 18.9464
vn 0.82811 -0.178583 0.531358
v -103.614 -136.645 18.9529
vn 0.705488 -0.277613 0.652087
v -103.562 -136.35 19.0324
vn 0.728567 -0.230788 0.644924
v -103.54 -136.814 18.8128
vn 0.734434 -0.229622 0.638655
v -103.487 -136.594 18.7958
vn 0.504774 -0.305658 0.807326
v -103.397 -136.283 18.9546
vn 0.300342 -0.37314 0.877816
v -103.403 -136.844 18.6876
vn -0.0340391 -0.446612 0.89408
v -103.362 -136.702 18.7572
vn 0.04545 -0.409082 0.911365
v -103.261 -136.356 18.9416
vn -0.270742 0.265161 -0.925413
v -104.319 -135.919 16.0599
vn 0.803891 0.240417 -0.544022
v -103.895 -134.955 16.4928
vn -0.0943567 0.203579 -0.974501
v -104.023 -135.377 16.1444
vn 0.711934 -0.163585 0.682927
v -103.49 -136.059 19.026
vn 0.625124 0.217596 -0.749582
v -104.037 -134.3 16.4852
vn 0.712085 0.305492 -0.632147
v -103.913 -133.87 16.6954
vn 0.863199 0.16293 -0.477851
v -103.837 -133.747 16.997
vn 0.876683 0.124755 -0.464611
v -103.88 -134.5 16.6636
vn 0.82625 0.184955 -0.532074
v -103.751 -134.54 16.9239
vn 0.869024 -0.158584 0.468667
v -102.679 -134.723 19.2782
vn 0.50349 -0.296632 0.811485
v -103.6 -134.352 19.8121
vn 0.157804 -0.366086 0.917104
v -103.31 -134.882 19.5469
vn 0.515085 -0.232053 0.82513
v -102.928 -134.057 19.8198
vn 0.692798 0.323265 -0.644616
v -103.734 -133.314 17.1923
vn -0.292529 0.303357 -0.906864
v -103.452 -132.924 17.3095
vn 0.26056 -0.426815 0.865989
v -103.315 -132.737 20.3193
vn 0.445953 -0.203958 0.871508
v -103.064 -133.409 19.9844
vn 0.129608 -0.357036 0.925055
v -102.799 -133.016 20.1393
vn 0.740419 -0.196165 0.642884
v -102.825 -133.617 19.7414
vn 0.692872 -0.334023 0.639028
v -102.668 -133.498 19.6359
vn 0.481891 -0.335167 0.809595
v -102.683 -131.966 20.2604
vn 0.6021 -0.359119 0.713098
v -101.585 -129.013 20.9742
vn 0.175934 -0.498255 0.848993
v -101.5 -127.558 21.3376
vn 0.811949 -0.354764 0.463552
v -100.872 -124.286 22.5005
vn 0.653943 -0.268746 0.707202
v -100.301 -122.132 23.3107
vn 0.730569 -0.323666 0.601256
v -99.6298 -121.504 22.5435
vn -0.306089 0.74208 -0.596344
v -100.31 -120.659 20.6235
vn -0.694917 0.658931 0.287925
v -100.294 -120.67 20.8525
vn -0.763502 0.613542 0.201571
v -100.03 -121.079 21.9895
vn -0.675716 0.687935 0.264866
v -99.2977 -120.103 21.8331
vn 0.583737 0.508119 -0.633297
v -99.1725 -120.204 21.7761
vn 0.379596 0.0211513 0.924911
v -99.7723 -121.175 23.072
vn -0.610958 0.762 0.214677
v -99.7679 -120.994 22.5772
vn -0.374028 0.497171 0.782894
v -99.6029 -121.052 22.7134
vn -0.377524 0.440839 0.814332
v -99.5148 -120.761 22.5703
vn -0.344766 0.409561 0.844628
v -99.403 -120.79 22.6304
vn 0.632584 -0.277566 0.723045
v -99.3007 -120.968 22.5232
vn 0.779297 0.625971 0.0292774
v -99.13 -120.294 22.5651
vn 0.299541 0.0629885 -0.952002
v -111.913 -169.741 5.08525
vn 0.549898 -0.335845 -0.764735
v -111.839 -170.069 5.09271
vn 0.581982 -0.679175 0.447233
v -112.323 -170.474 6.08761
vn 0.683015 -0.729964 -0.02535
v -111.879 -170.352 5.45993
vn 0.651328 -0.436052 -0.620991
v -111.339 -169.895 5.44339
vn 0.257988 0.120553 -0.958597
v -111.875 -169.596 5.10819
vn -0.00994785 -0.195033 0.980746
v -111.847 -168.888 7.09398
vn -0.566894 0.621769 -0.540402
v -111.593 -167.359 5.55775
vn -0.742847 0.512432 0.430804
v -111.829 -168.118 7.06648
vn -0.254446 0.27124 -0.92827
v -111.246 -166.681 5.84035
vn -0.34624 0.314691 -0.883792
v -110.992 -166.281 5.84354
vn 0.128746 0.0999401 -0.986629
v -110.954 -166.754 5.84224
vn 0.210369 0.0672762 -0.975305
v -110.847 -166.316 5.81997
vn 0.276483 0.133569 -0.951691
v -110.806 -166.792 5.87238
vn -0.777727 0.308181 0.547874
v -111.629 -167.226 6.60383
vn -0.868269 0.322396 0.377054
v -111.367 -166.206 6.52145
vn -0.753106 0.351029 0.556426
v -111.264 -167.16 7.07165
vn -0.704596 0.507198 -0.496281
v -110.643 -165.568 6.04882
vn 0.519699 0.0222214 -0.85406
v -110.351 -165.523 6.18095
vn -0.452945 0.0423383 0.890533
v -110.386 -166.333 7.71546
vn 0.274867 0.214861 -0.937167
v -110.109 -164.815 6.34761
vn -0.736353 0.221948 0.639158
v -109.918 -164.438 7.67685
vn 0.0277757 0.363719 -0.931095
v -109.719 -162.84 7.16541
vn -0.943184 0.31639 0.101491
v -109.951 -163.398 7.9083
vn -0.544786 -0.176071 0.819882
v -109.639 -162.865 8.21237
vn -0.665597 -0.135378 0.73393
v -109.422 -163.034 8.33973
vn -0.696524 -0.245536 0.674215
v -108.772 -160 10.1121
vn -0.835305 0.333479 -0.437101
v -109.157 -159.264 9.40102
vn -0.378119 0.411965 -0.829042
v -108.305 -157.317 9.56993
vn -0.983265 -0.0945865 0.155704
v -108.898 -157.978 10.7979
vn -0.524101 -0.398978 0.752419
v -108.222 -157.542 11.2565
vn -0.761278 -0.226019 0.607759
v -108.055 -157.437 11.5166
vn -0.621161 -0.291921 0.727284
v -108.253 -156.624 11.892
vn -0.392157 -0.430548 0.812921
v -108.038 -156.831 11.8449
vn -0.464226 -0.336581 0.819272
v -107.802 -156.743 12.0758
vn -0.452879 0.321032 -0.831769
v -107.769 -155.916 9.97654
vn -0.508933 -0.286798 0.811625
v -108.347 -155.834 12.1286
vn -0.631263 0.261318 -0.730219
v -107.583 -154.124 10.5849
vn -0.251307 0.245304 -0.936307
v -107.149 -152.995 10.5756
vn 0.012156 -0.226681 0.973893
v -105.763 -149.893 14.2998
vn -0.00609591 -0.249963 0.968236
v -105.501 -148.88 14.4347
vn -0.0973676 -0.296406 0.950086
v -105.699 -145.608 15.3383
vn -0.11897 -0.24682 0.961731
v -105.328 -145.394 15.4397
vn 0.0563087 -0.341188 0.938307
v -105.355 -144.928 15.5858
vn -0.0273313 -0.326213 0.944901
v -105.171 -144.82 15.6062
vn -0.150277 -0.388086 0.909289
v -104.502 -143.032 16.458
vn 0.440066 -0.34857 0.827551
v -104.157 -143.386 16.0708
vn 0.212594 0.299933 -0.92997
v -104.203 -140.991 13.9346
vn 0.412927 0.269936 -0.869842
v -103.384 -140.446 14.7018
vn 0.747508 -0.300392 0.592449
v -103.782 -140.423 17.3415
vn 0.888241 -0.216048 0.405403
v -103.726 -139.208 17.6363
vn 0.329224 -0.416975 0.847197
v -103.57 -139.546 17.2673
vn 0.0540542 -0.519847 0.852548
v -103.79 -138.901 18.2574
vn 0.205587 0.250064 -0.946151
v -102.972 -138.404 15.4323
vn 0.859618 -0.214536 0.463714
v -102.892 -138.797 17.6051
vn 0.654611 -0.367128 0.660834
v -103.507 -137.754 18.2912
vn 0.200866 -0.445925 0.872241
v -103.165 -137.623 18.2733
vn -0.0685288 0.331869 -0.940833
v -103.302 -136.791 15.9804
vn 0.923066 -0.197974 0.329781
v -102.723 -137.457 17.9489
vn 0.914364 -0.183199 0.361076
v -102.659 -137.316 17.849
vn 0.366135 -0.385928 0.846761
v -102.722 -135.785 18.9304
vn -0.140574 0.286121 -0.947826
v -102.715 -134.017 16.6219
vn 0.494116 0.220122 -0.841068
v -102.391 -135.128 16.3788
vn 0.558638 0.247127 -0.791739
v -101.968 -133.452 17.3309
vn 0.358262 0.289428 -0.887626
v -101.597 -133.703 17.4435
vn 0.693959 -0.299398 0.654815
v -102.497 -133.992 19.2045
vn 0.519968 -0.349331 0.779487
v -102.003 -132.734 19.5344
vn 0.586337 -0.325395 0.74184
v -101.43 -131.636 19.4115
vn 0.526729 0.216653 -0.82196
v -100.747 -131.17 18.7667
vn 0.625542 -0.307275 0.717132
v -100.544 -130.008 19.6183
vn 0.445364 0.209476 -0.870501
v -100.679 -129.04 19.4039
vn 0.652785 0.132436 -0.745877
v -100.211 -128.706 19.8382
vn 0.640808 0.142895 -0.754285
v -99.0681 -121.45 21.1482
vn 0.73816 -0.311117 0.598603
v -98.8004 -120.92 21.9104
vn 0.200516 0.157268 -0.966985
v -111.097 -169.023 5.30137
vn 0.726072 -0.609645 0.318045
v -110.716 -168.986 6.04424
vn 0.790243 -0.55775 0.253831
v -110.415 -168.593 5.89098
vn 0.432676 -0.509499 0.743776
v -110.549 -167.977 7.13356
vn 0.19229 0.221837 -0.955936
v -110.091 -165.898 6.20974
vn 0.195084 0.292181 -0.936254
v -108.343 -162.965 7.29916
vn -0.356731 -0.297269 0.885649
v -108.659 -162.937 9.03271
vn 0.396963 0.261802 -0.879705
v -108.427 -161.564 7.709
vn 0.626079 0.196915 -0.754486
v -107.985 -161.185 8.1747
vn -0.0870718 0.423785 -0.901568
v -107.811 -161.113 8.16589
vn -0.302186 -0.374216 0.876724
v -108.026 -161.879 9.76923
vn -0.00991075 0.363009 -0.931733
v -107.57 -160.255 8.52429
vn 0.11321 0.371779 -0.921393
v -107.973 -159.391 8.55904
vn -0.0998674 0.330916 -0.938361
v -107.332 -157.71 9.38934
vn 0.240826 -0.414268 0.877716
v -107.213 -158.573 11.4041
vn 0.00723675 0.250292 -0.968143
v -106.399 -155.495 10.2763
vn -0.129089 0.337453 -0.932449
v -106.334 -155.817 10.1508
vn -0.238869 0.230419 -0.943318
v -106.256 -155.529 10.2317
vn 0.0363621 -0.302265 0.95253
v -106.688 -154.417 12.9415
vn 0.0940437 0.202787 -0.974696
v -106.231 -152.455 10.6798
vn 0.528063 -0.337886 0.779091
v -105.317 -152.142 13.3186
vn 0.360589 -0.325288 0.874164
v -105.722 -151.436 13.7966
vn 0.600718 -0.270599 0.752273
v -105.519 -150.717 13.9112
vn 0.785897 -0.254561 0.563528
v -104.73 -150.749 13.5531
vn 0.93625 -0.125032 0.328334
v -104.726 -149.678 13.9041
vn 0.475806 -0.246334 0.844351
v -105.55 -149.945 14.2506
vn -0.0685589 -0.355699 0.932083
v -105.37 -149.525 14.2024
vn 0.0096475 -0.35169 0.936067
v -104.789 -149.669 14.1641
vn 0.418453 -0.724487 0.547736
v -104.615 -148.318 14.0736
vn 0.8389 0.0198975 0.543922
v -104.552 -148.639 13.9289
vn 0.77871 0.360853 0.513221
v -104.526 -148.486 13.7824
vn -0.053962 -0.259789 0.964157
v -104.484 -148.963 13.8442
vn -0.0607276 -0.264843 0.962378
v -104.401 -148.677 13.9282
vn -0.355691 -0.493707 0.79356
v -104.3 -148.547 13.9272
vn -0.0459287 -0.293412 0.954882
v -105.192 -148.346 14.6967
vn 0.076307 -0.280469 0.956825
v -104.719 -148.309 14.6699
vn 0.810608 0.111033 0.574967
v -104.678 -148.612 14.1012
vn 0.418453 -0.724487 0.547736
v -104.433 -148.209 14.0782
vn 0.747742 -0.29962 0.592545
v -104.582 -147.109 14.7671
vn 0.977262 -0.121249 0.173948
v -104.616 -148.023 14.5761
vn 0.0534934 -0.2839 0.95736
v -104.555 -146.197 15.109
vn 0.580988 -0.345803 0.736799
v -104.411 -146.993 14.6099
vn 0.269446 -0.357235 0.894305
v -103.671 -145.492 15.1398
vn 0.466841 -0.399473 0.788975
v -103.408 -145.86 14.8936
vn 0.573999 -0.292065 0.764999
v -103.468 -142.475 16.0385
vn 0.185259 -0.339522 0.922174
v -103.092 -143.332 15.6637
vn 0.610678 0.197879 -0.766757
v -102.49 -141.797 14.5678
vn 0.762888 0.177799 -0.621602
v -102.359 -141.481 14.8745
vn 0.525265 -0.325102 0.786388
v -101.78 -139.671 16.7967
vn 0.524386 0.182571 -0.831677
v -102.567 -138.707 15.6213
vn 0.191456 0.307052 -0.932236
v -102.231 -138.599 15.6027
vn 0.755214 0.125586 -0.643335
v -101.936 -138.214 15.9011
vn 0.187875 -0.328739 0.925545
v -102.16 -138.812 17.1108
vn 0.425968 -0.311675 0.849359
v -101.488 -137.441 17.3825
vn 0.500506 0.21601 -0.838352
v -101.383 -137.296 16.8084
vn 0.305145 0.298086 -0.904451
v -101.827 -135.481 16.7613
vn 0.390132 0.278486 -0.877635
v -101.681 -135.518 16.7637
vn 0.709302 -0.197022 -0.676811
v -108.331 -164.815 6.97517
vn 0.144848 0.290243 -0.945927
v -107.985 -163.362 7.20124
vn -0.0918238 -0.431473 0.89744
v -108.362 -164.08 8.55365
vn 0.900358 -0.254949 -0.352643
v -107.732 -163.909 7.87872
vn 0.832281 -0.426451 0.354185
v -107.282 -162.493 8.51557
vn 0.0508726 -0.381433 0.922996
v -107.658 -162.219 9.60867
vn 0.809671 -0.483683 0.33239
v -107.595 -162.888 8.82016
vn 0.743851 -0.576033 0.338929
v -107.387 -162.485 9.12552
vn 0.944813 -0.316082 -0.0861434
v -107.432 -162.3 8.83623
vn 0.902125 -0.227063 -0.366895
v -107.423 -162.317 8.99321
vn 0.935444 -0.335124 0.112412
v -107.039 -161.936 8.52458
vn 0.44281 -0.40397 0.800455
v -106.77 -161.265 9.74139
vn 0.942785 -0.294592 -0.156112
v -106.593 -160.378 9.62003
vn 0.886493 -0.229762 -0.401671
v -106.692 -160.971 9.59918
vn 0.789417 -0.381575 0.480854
v -106.464 -160.419 9.91004
vn 0.633693 0.13949 -0.760904
v -106.392 -159.342 9.50384
vn 0.593382 -0.407803 0.693971
v -106.376 -159.831 10.2325
vn 0.834024 -0.343097 0.432074
v -105.644 -156.64 11.2338
vn 0.883151 -0.34825 0.314271
v -105.584 -156.796 10.9212
vn 0.436887 -0.370989 0.819449
v -105.873 -156.9 11.4952
vn 0.493074 0.121754 -0.861426
v -105.332 -156.391 10.6214
vn 0.767884 -0.398196 0.501792
v -104.876 -154.827 11.4153
vn 0.524806 -0.35541 0.773474
v -104.812 -151.894 13.0536
vn 0.68483 -0.287028 0.669793
v -104.65 -151.296 13.2207
vn 0.938352 -0.282577 0.199113
v -103.821 -149.89 13.4012
vn 0.0659419 -0.317853 0.945844
v -104.036 -148.461 14.0102
vn 0.415529 0.194821 -0.888471
v -103.681 -148.346 12.3124
vn 0.339222 -0.341044 0.876708
v -103.581 -147.346 14.2845
vn 0.387778 0.253807 -0.886121
v -103.528 -146.084 12.9993
vn 0.945502 -0.273522 0.176667
v -103.019 -147.303 13.2932
vn 0.725363 0.0832974 -0.683308
v -102.72 -145.531 13.6245
vn 0.963105 -0.242959 0.115758
v -102.624 -145.56 13.7987
vn 0.0861504 -0.352508 0.931835
v -102.714 -144.189 15.3043
vn 0.704868 -0.516427 0.486276
v -102.703 -144.645 14.9275
vn 0.694192 -0.449389 0.56227
v -102.444 -144.395 14.7438
vn 0.857312 -0.384086 0.342774
v -102.327 -144.124 15.0494
vn 0.779152 -0.223516 0.585631
v -102.567 -143.608 15.3369
vn 0.650104 -0.354046 0.672322
v -102.272 -143.065 15.3951
vn 0.595192 -0.249735 0.763793
v -102.282 -143.676 15.2178
vn 0.896655 -0.261318 0.357383
v -102.098 -142.95 15.2388
vn 0.68165 0.21314 -0.699946
v -102.293 -142.263 14.5992
vn 0.752767 0.149331 -0.641125
v -101.891 -141.915 15.1223
vn 0.80089 -0.369585 0.471151
v -102.063 -142.354 15.716
vn 0.85341 -0.271519 0.444937
v -101.748 -140.746 16.2208
vn 0.969152 -0.234581 0.0756015
v -101.7 -141.358 15.5866
vn 0.941182 0.00865859 -0.337789
v -101.589 -140.617 15.764
vn 0.967301 -0.18797 0.17028
v -101.583 -140.623 15.9139
vn 0.824123 0.125305 -0.552377
v -101.572 -139.394 16.1212
vn 0.994004 -0.0921231 0.0589052
v -101.476 -139.519 16.2591
vn -0.29658 0.734023 -0.610942
v -107.792 -142.505 14.4561
vn -0.29658 0.734023 -0.610942
v -107.665 -142.459 14.4493
vn -0.29658 0.734023 -0.610942
v -107.769 -142.435 14.5283
vn -0.972458 0.118088 0.20095
v -107.438 -140.525 15.1261
vn -0.257952 -0.0534744 0.964677
v -107.158 -140.929 15.9907
vn -0.338536 -0.603754 0.721716
v -107.158 -140.929 15.9907
vn -0.268869 -0.0597135 0.961324
v -107.233 -141.373 15.946
vn -0.442933 0.376468 0.813684
v -107.233 -141.373 15.946
vn -0.173186 -0.561251 0.809323
v -107.074 -140.796 16.1416
vn -0.449212 -0.461056 0.765268
v -106.929 -140.086 16.9174
vn -0.963961 0.0643468 0.258145
v -106.929 -140.086 16.9174
vn -0.957794 0.0611309 0.28088
v -106.654 -139.095 17.6971
vn -0.26482 -0.394533 0.879894
v -106.472 -138.535 18.1621
vn -0.600738 0.373982 -0.706578
v -106.368 -134.95 16.366
vn 0.0245404 0.30372 -0.952445
v -105.963 -135.043 16.0543
vn 0.37775 0.253804 -0.890443
v -105.963 -135.043 16.0543
vn 0.804241 0.477215 -0.354206
v -105.963 -135.043 16.0543
vn 0.42572 0.41648 -0.80331
v -105.963 -135.043 16.0543
vn 0.315831 0.36019 -0.877789
v -105.839 -133.549 16.8119
vn -0.810321 0.367341 -0.456553
v -105.748 -132.204 17.6553
vn -0.346444 0.260673 -0.901125
v -105.452 -131.2 17.8321
vn -0.865245 0.178492 -0.4685
v -105.452 -131.2 17.8321
vn 0.411553 0.330123 -0.849496
v -104.434 -131.148 17.9134
vn -0.584127 0.590054 -0.557344
v -105.367 -130.612 18.1547
vn -0.252573 0.203509 -0.945934
v -105.374 -130.755 17.811
vn 0.34848 0.627732 -0.696071
v -105.374 -130.755 17.811
vn -0.484518 0.811053 -0.327772
v -105.374 -130.755 17.811
vn 0.193059 0.84847 -0.492775
v -105.32 -130.621 18.0626
vn -0.267835 0.411291 -0.871266
v -105.32 -130.621 18.0626
vn 0.544706 0.55612 -0.627715
v -104.757 -130.909 17.7968
vn 0.498632 0.351584 -0.79231
v -104.756 -129.078 18.6353
vn -0.229975 0.229475 -0.945755
v -104.756 -129.078 18.6353
vn -0.907348 0.18575 0.377115
v -104.874 -129.052 18.7527
vn -0.905847 0.3987 -0.143108
v -104.874 -129.052 18.7527
vn -0.831563 0.445904 -0.331167
v -104.495 -128.172 18.8099
vn 0.217402 -0.433157 0.874707
v -103.565 -128.711 22.3379
vn -0.277687 -0.168599 0.945761
v -103.565 -128.711 22.3379
vn 0.390884 0.880114 -0.269462
v -103.486 -128.424 22.4278
vn 0.390884 0.880114 -0.269462
v -103.391 -128.45 22.4826
vn 0.390884 0.880114 -0.269462
v -103.477 -128.409 22.4906
vn -0.833553 0.148038 0.532236
v -103.16 -127.584 22.6575
vn -0.391644 -0.244763 0.886964
v -103.16 -127.584 22.6575
vn -0.792343 0.383273 -0.474652
v -103.115 -125.337 19.4976
vn -0.886302 0.266833 0.378509
v -103.299 -124.999 20.0788
vn -0.0840858 0.193924 -0.977406
v -102.571 -123.252 19.8084
vn -0.801539 0.442339 0.402333
v -102.571 -123.252 19.8084
vn -0.683601 0.628162 -0.37162
v -102.571 -123.252 19.8084
vn -0.902138 0.364256 0.231224
v -114.849 -171.005 4.73511
vn -0.881538 0.203418 0.426042
v -114.722 -171.205 5.1684
vn -0.616504 0.529305 -0.582888
v -114.624 -170.593 4.58803
vn -0.758072 -0.360732 0.543323
v -114.329 -170.95 5.75484
vn -0.873482 0.231543 -0.428273
v -114.329 -170.95 5.75484
vn -0.832416 0.467014 0.298297
v -114.163 -170.286 5.77426
vn -0.755413 0.601963 -0.258829
v -114.38 -170.239 6.24338
vn -0.530632 0.486994 0.693734
v -114.38 -170.239 6.24338
vn -0.623513 0.292346 -0.725096
v -109.145 -153.158 12.095
vn -0.96423 0.0607948 -0.257999
v -109.145 -153.158 12.095
vn -0.899594 -0.0350091 0.435321
v -108.667 -149.149 13.7546
vn 0.535771 -0.28554 0.794617
v -107.913 -148.134 14.9005
vn -0.703353 0.286541 -0.65053
v -107.243 -145.618 13.0673
vn -0.967341 -0.227508 -0.111767
v -107.213 -145.326 13.3799
vn -0.271019 0.28115 -0.9206
v -107.213 -145.326 13.3799
vn -0.659606 0.0317384 -0.750941
v -107.209 -144.699 13.0762
vn -0.219713 0.318328 -0.922168
v -107.209 -144.699 13.0762
vn -0.983609 0.136738 0.11754
v -108.057 -144.82 13.9146
vn -0.719505 0.208118 -0.66257
v -107.383 -144.824 13.5659
vn -0.454765 0.250091 -0.854777
v -107.396 -144.975 13.532
vn -0.994534 0.0923728 -0.0486833
v -107.396 -144.975 13.532
vn -0.301279 0.00572366 0.953519
v -107.776 -144.157 15.2807
vn -0.668637 0.0924739 0.737816
v -107.776 -144.157 15.2807
vn -0.154459 0.191588 0.969245
v -107.698 -144.955 15.4507
vn 0.401746 -0.153396 0.902812
v -107.698 -144.955 15.4507
vn 0.405244 -0.103973 0.908277
v -107.378 -144.259 15.3644
vn 0.278601 -0.123242 0.952467
v -107.402 -142.558 15.5823
vn 0.0653445 0.308491 -0.94898
v -106.602 -140.703 14.0581
vn -0.931147 -0.0768523 0.356454
v -106.782 -141.182 16.103
vn -0.460315 0.334032 0.822516
v -106.782 -141.182 16.103
vn -0.431092 -0.764186 0.479771
v -106.828 -141.013 16.0175
vn -0.893752 -0.221959 0.389798
v -106.828 -141.013 16.0175
vn -0.201736 0.0791211 -0.976239
v -105.554 -137.562 15.4335
vn -0.521813 0.288793 -0.802689
v -105.554 -137.562 15.4335
vn 0.646711 0.246196 -0.721909
v -105.775 -136.622 15.5555
vn -0.705731 0.19685 -0.680583
v -105.365 -136.809 15.4556
vn -0.0667319 0.298349 -0.952121
v -105.365 -136.809 15.4556
vn 0.429424 0.40445 -0.807475
v -105.365 -136.809 15.4556
vn 0.429424 0.40445 -0.807475
v -105.133 -136.784 15.5909
vn 0.894278 0.366191 -0.257237
v -105.166 -136.262 16.2199
vn -0.386265 0.171825 -0.906243
v -104.995 -136.22 16.2909
vn -0.309395 0.165144 -0.936484
v -105.03 -135.748 16.3249
vn -0.337132 0.246801 -0.908532
v -105.072 -134.205 16.8165
vn 0.817649 0.432607 -0.379869
v -103.909 -132.867 17.4948
vn 0.411781 0.332532 -0.848445
v -103.909 -132.867 17.4948
vn 0.842751 0.432133 -0.320986
v -104.444 -131.289 17.5277
vn -0.21672 0.234922 -0.947546
v -104.23 -131.202 17.9918
vn -0.0878218 -0.371888 0.924114
v -104.152 -131.933 21.1533
vn 0.688457 -0.225414 0.689359
v -104.152 -131.933 21.1533
vn 0.36088 -0.446588 0.818734
v -104.152 -131.933 21.1533
vn 0.310794 -0.399874 0.862269
v -103.604 -129.922 21.7451
vn -0.297387 -0.275232 0.914226
v -102.957 -127.637 22.7078
vn 0.529911 -0.513662 0.674793
v -102.75 -126.926 23.091
vn -0.903279 -0.00392875 0.429037
v -102.75 -126.926 23.091
vn -0.15981 -0.475192 0.865248
v -102.75 -126.926 23.091
vn -0.941834 0.334965 0.0273348
v -102.661 -126.335 23.283
vn -0.903279 -0.00392875 0.429037
v -102.661 -126.335 23.283
vn 0.588682 -0.637291 0.497305
v -101.788 -125.906 22.2804
vn -0.0533696 -0.502069 0.863179
v -101.788 -125.906 22.2804
vn 0.795368 -0.190016 0.575573
v -101.788 -125.906 22.2804
vn 0.175934 -0.498255 0.848993
v -101.456 -125.317 22.6439
vn -0.15981 -0.475192 0.865248
v -102.15 -124.794 24.3731
vn -0.939507 0.340116 -0.0405873
v -102.15 -124.794 24.3731
vn 0.115771 0.603845 0.78865
v -102.15 -124.794 24.3731
vn -0.343773 0.781987 0.51992
v -102.15 -124.794 24.3731
vn -0.15981 -0.475192 0.865248
v -101.97 -124.839 24.3814
vn 0.115771 0.603845 0.78865
v -101.97 -124.839 24.3814
vn 0.749565 0.245462 0.614736
v -101.97 -124.839 24.3814
vn 0.678705 0.375707 0.631034
v -101.915 -124.536 24.1416
vn 0.216275 0.080893 0.972975
v -101.915 -124.536 24.1416
vn -0.133946 0.747312 0.650833
v -101.915 -124.536 24.1416
vn 0.216275 0.080893 0.972975
v -101.806 -124.718 24.1325
vn 0.484008 -0.445449 0.753201
v -101.806 -124.718 24.1325
vn 0.741831 -0.504742 0.441499
v -101.592 -124.919 23.8763
vn 0.484008 -0.445449 0.753201
v -101.592 -124.919 23.8763
vn -0.0708481 -0.238965 0.96844
v -101.553 -123.44 23.3408
vn -0.626803 0.439616 0.643316
v -101.553 -123.44 23.3408
vn -0.0484229 0.555761 0.829931
v -101.553 -123.44 23.3408
vn -0.714646 0.319544 0.622232
v -101.553 -123.44 23.3408
vn 0.528956 -0.349085 0.773528
v -101.242 -123.445 23.3623
vn 0.941622 0.294769 0.162662
v -101.242 -123.445 23.3623
vn -0.0484229 0.555761 0.829931
v -101.242 -123.445 23.3623
vn 0.756157 0.131814 0.640978
v -101.242 -123.445 23.3623
vn 0.957009 0.237673 0.166267
v -101.017 -123.954 22.9779
vn 0.901944 -0.318151 0.292021
v -101.066 -123.95 23.2584
vn 0.957009 0.237673 0.166267
v -101.066 -123.95 23.2584
vn 0.465279 0.583393 0.665709
v -101.066 -123.95 23.2584
vn 0.756157 0.131814 0.640978
v -101.066 -123.95 23.2584
vn 0.88458 -0.297484 0.359195
v -101.066 -123.95 23.2584
vn -0.262775 0.799386 0.540308
v -101.849 -124.069 23.4827
vn -0.626803 0.439616 0.643316
v -101.849 -124.069 23.4827
vn -0.626803 0.439616 0.643316
v -101.566 -124.308 23.9216
vn -0.0484229 0.555761 0.829931
v -101.566 -124.308 23.9216
vn 0.756157 0.131814 0.640978
v -101.566 -124.308 23.9216
vn 0.216275 0.080893 0.972975
v -101.448 -124.496 24.0345
vn 0.484008 -0.445449 0.753201
v -101.448 -124.496 24.0345
vn 0.300002 0.623189 0.722243
v -101.448 -124.496 24.0345
vn 0.955803 -0.108692 0.273178
v -101.425 -124.341 23.8522
vn 0.479451 -0.260413 0.83804
v -101.048 -122.725 23.554
vn -0.714646 0.319544 0.622232
v -101.048 -122.725 23.554
vn -0.508101 0.703475 -0.496947
v -100.958 -121.258 20.2105
vn -0.508101 0.703475 -0.496947
v -100.9 -121.086 20.3945
vn -0.604866 0.79233 0.0796884
v -100.9 -121.086 20.3945
vn -0.714646 0.319544 0.622232
v -100.776 -122.019 23.5033
vn 0.370029 -0.0252734 0.928676
v -100.776 -122.019 23.5033
vn -0.00644438 -0.942968 -0.332821
v -114.329 -171.786 4.51135
vn 0.384835 -0.303214 -0.871759
v -114.241 -171.293 4.08257
vn 0.316947 0.090974 -0.94407
v -114.093 -170.713 4.13928
vn -0.521738 0.367467 0.769908
v -113.474 -169.631 6.50923
vn -0.29764 0.138294 0.944609
v -112.397 -169.212 7.03986
vn -0.63435 0.534019 -0.558949
v -112.276 -167.667 6.06533
vn -0.581669 0.334392 -0.741514
v -109.018 -155.48 11.0739
vn -0.904669 -0.141353 0.401986
v -109.131 -154.49 11.7305
vn -0.796394 0.190339 -0.574045
v -107.654 -150.734 11.652
vn -0.995018 0.0520157 -0.0850545
v -107.635 -150.441 12.0408
vn -0.796638 0.213919 -0.565337
v -107.167 -147.928 12.0281
vn -0.983665 0.175794 -0.0387251
v -107.167 -147.928 12.0281
vn -0.0325516 0.248944 -0.967971
v -107.167 -147.928 12.0281
vn 0.234195 -0.304293 0.923341
v -106.749 -146.57 14.9084
vn -0.543781 -0.239673 0.804276
v -106.749 -146.57 14.9084
vn -0.149694 0.318282 -0.936103
v -106.798 -145.409 12.6847
vn -0.680313 -0.286572 0.674574
v -105.874 -143.437 16.0839
vn -0.680313 -0.286572 0.674574
v -105.931 -144.168 15.7161
vn 0.433053 0.392348 -0.811497
v -104.973 -138.199 14.9923
vn 0.825235 0.33781 -0.452628
v -104.973 -138.199 14.9923
vn -0.512133 0.321227 -0.796576
v -104.743 -137.504 15.6932
vn -0.468215 0.309837 -0.827512
v -104.819 -137.24 15.8486
vn 0.717683 0.331645 -0.612325
v -103.582 -136.655 15.9394
vn 0.79246 -0.205575 0.574235
v -103.766 -136.615 19.2372
vn -0.10882 -0.426516 0.89791
v -103.487 -136.594 18.7958
vn -0.115068 -0.377831 0.918697
v -103.397 -136.283 18.9546
vn 0.790493 0.227731 -0.568559
v -104.023 -135.377 16.1444
vn 0.380458 0.283829 -0.880166
v -104.023 -135.377 16.1444
vn -0.0573995 -0.378733 0.923724
v -103.49 -136.059 19.026
vn 0.326929 0.42005 -0.846567
v -103.751 -134.54 16.9239
vn -0.407966 0.28253 -0.868182
v -103.751 -134.54 16.9239
vn 0.111659 0.211167 -0.971051
v -103.751 -134.54 16.9239
vn -0.0892602 0.345337 -0.934224
v -103.734 -133.314 17.1923
vn 0.64877 -0.131488 0.749539
v -103.315 -132.737 20.3193
vn 0.824668 -0.285752 0.488128
v -102.799 -133.016 20.1393
vn -0.00763302 -0.552114 0.833733
v -102.825 -133.617 19.7414
vn 0.915286 -0.14421 0.376105
v -102.683 -131.966 20.2604
vn 0.989066 0.110452 -0.0977226
v -101.585 -129.013 20.9742
vn 0.748799 -0.278468 0.601461
v -101.5 -127.558 21.3376
vn 0.969038 0.179742 0.169287
v -100.872 -124.286 22.5005
vn -0.577435 0.812633 0.0787102
v -100.31 -120.659 20.6235
vn 0.464235 0.440647 -0.76832
v -100.31 -120.659 20.6235
vn 0.316814 0.733087 -0.60184
v -99.2977 -120.103 21.8331
vn 0.641129 0.765629 0.0525886
v -99.2977 -120.103 21.8331
vn 0.779297 0.625971 0.0292774
v -99.1725 -120.204 21.7761
vn 0.873683 -0.270539 0.404336
v -99.7723 -121.175 23.072
vn -0.542195 0.790566 0.284659
v -99.7723 -121.175 23.072
vn 0.0486216 0.937769 0.343839
v -99.7723 -121.175 23.072
vn -0.439397 0.499205 0.74681
v -99.7679 -120.994 22.5772
vn 0.0486216 0.937769 0.343839
v -99.7679 -120.994 22.5772
vn 0.807686 -0.2488 0.534548
v -99.6029 -121.052 22.7134
vn 0.0486216 0.937769 0.343839
v -99.6029 -121.052 22.7134
vn -0.699241 0.668212 0.254074
v -99.5148 -120.761 22.5703
vn 0.560047 -0.246162 0.791045
v -99.403 -120.79 22.6304
vn -0.730591 0.603284 0.31982
v -99.13 -120.294 22.5651
vn -0.379782 0.322983 0.866861
v -99.13 -120.294 22.5651
vn 0.658156 -0.211761 0.722488
v -99.13 -120.294 22.5651
vn 0.697463 -0.673535 0.244737
v -111.339 -169.895 5.44339
vn 0.220491 0.209216 -0.952687
v -111.593 -167.359 5.55775
vn -0.366272 0.109363 0.924059
v -111.829 -168.118 7.06648
vn -0.237786 -0.218318 0.946464
v -111.629 -167.226 6.60383
vn -0.73839 0.515654 -0.434605
v -111.367 -166.206 6.52145
vn 0.0304363 0.31452 -0.948763
v -110.643 -165.568 6.04882
vn -0.737659 0.32091 0.594033
v -110.386 -166.333 7.71546
vn 0.0687869 -0.338935 0.938292
v -110.386 -166.333 7.71546
vn -0.675222 0.0580903 0.735323
v -110.386 -166.333 7.71546
vn -0.949118 0.238316 0.205867
v -110.386 -166.333 7.71546
vn -0.949118 0.238316 0.205867
v -109.918 -164.438 7.67685
vn -0.390364 -0.211911 0.895941
v -109.918 -164.438 7.67685
vn -0.732159 0.455384 -0.506525
v -109.719 -162.84 7.16541
vn -0.91591 0.361545 -0.174338
v -109.719 -162.84 7.16541
vn -0.455302 -0.193789 0.868991
v -109.951 -163.398 7.9083
vn -0.949118 0.238316 0.205867
v -109.422 -163.034 8.33973
vn -0.815003 -0.148389 0.560135
v -109.157 -159.264 9.40102
vn -0.720406 -0.245626 0.648601
v -108.898 -157.978 10.7979
vn -0.327507 -0.403338 0.854434
v -108.898 -157.978 10.7979
vn -0.207641 -0.474494 0.855419
v -108.253 -156.624 11.892
vn -0.0747244 -0.294151 0.952833
v -108.347 -155.834 12.1286
vn -0.995387 -0.0471694 0.0835475
v -107.583 -154.124 10.5849
vn -0.218372 0.253044 -0.942487
v -107.149 -152.995 10.5756
vn -0.680313 -0.286572 0.674574
v -105.699 -145.608 15.3383
vn 0.543348 -0.380721 0.748214
v -104.502 -143.032 16.458
vn 0.619226 0.440847 -0.649779
v -104.203 -140.991 13.9346
vn -0.513991 0.321428 -0.795297
v -104.203 -140.991 13.9346
vn 0.913965 -0.200718 0.352676
v -103.79 -138.901 18.2574
vn 0.625621 -0.399663 0.669976
v -103.79 -138.901 18.2574
vn 0.107221 -0.419291 0.901498
v -102.892 -138.797 17.6051
vn 0.314276 -0.355373 0.880307
v -102.659 -137.316 17.849
vn 0.903815 -0.188155 0.384338
v -102.722 -135.785 18.9304
vn 0.803753 0.112937 -0.584145
v -100.679 -129.04 19.4039
vn 0.958673 -0.103095 -0.265173
v -100.211 -128.706 19.8382
vn 0.723606 -0.290708 0.626006
v -100.211 -128.706 19.8382
vn 0.974826 -0.179637 0.132077
v -100.211 -128.706 19.8382
vn 0.886964 0.461813 0.00482046
v -98.8004 -120.92 21.9104
vn 0.910271 0.113028 -0.398286
v -98.8004 -120.92 21.9104
vn 0.685692 -0.264223 -0.678243
v -111.097 -169.023 5.30137
vn 0.718652 -0.250198 -0.648798
v -110.415 -168.593 5.89098
vn 0.883469 -0.448293 -0.136076
v -110.415 -168.593 5.89098
vn 0.781551 -0.550741 0.293022
v -110.549 -167.977 7.13356
vn -0.124017 0.408849 -0.904136
v -107.985 -161.185 8.1747
vn 0.522628 0.185911 -0.832044
v -107.57 -160.255 8.52429
vn 0.584285 0.179157 -0.791526
v -107.332 -157.71 9.38934
vn 0.209304 0.278547 -0.937338
v -107.332 -157.71 9.38934
vn 0.487352 0.144471 -0.861171
v -106.334 -155.817 10.1508
vn 0.478366 0.119364 -0.87001
v -106.256 -155.529 10.2317
vn -0.0173066 -0.32018 0.947199
v -105.317 -152.142 13.3186
vn 0.623387 -0.226135 0.7485
v -105.37 -149.525 14.2024
vn 0.595719 -0.370901 0.712427
v -104.789 -149.669 14.1641
vn 0.945558 -0.145356 0.29119
v -104.789 -149.669 14.1641
vn 0.975551 -0.134291 0.173973
v -104.615 -148.318 14.0736
vn 0.751168 -0.344068 0.563351
v -104.615 -148.318 14.0736
vn 0.213034 -0.394622 0.893807
v -104.615 -148.318 14.0736
vn -0.0405883 -0.260741 0.964555
v -104.552 -148.639 13.9289
vn 0.170737 0.667281 0.724973
v -104.552 -148.639 13.9289
vn 0.418453 -0.724487 0.547736
v -104.526 -148.486 13.7824
vn 0.914383 -0.158882 0.372372
v -104.526 -148.486 13.7824
vn 0.170737 0.667281 0.724973
v -104.526 -148.486 13.7824
vn -0.557425 -0.510705 0.654567
v -104.526 -148.486 13.7824
vn -0.438485 0.346335 0.829327
v -104.526 -148.486 13.7824
vn 0.170737 0.667281 0.724973
v -104.401 -148.677 13.9282
vn -0.405961 0.32132 0.85554
v -104.401 -148.677 13.9282
vn -0.405961 0.32132 0.85554
v -104.3 -148.547 13.9272
vn 0.885086 -0.178758 0.429731
v -104.719 -148.309 14.6699
vn 0.98244 -0.130033 0.133806
v -104.678 -148.612 14.1012
vn 0.0712603 -0.413222 0.907838
v -104.433 -148.209 14.0782
vn 0.998243 -0.0454274 0.0380486
v -104.582 -147.109 14.7671
vn 0.634861 -0.310764 0.707373
v -104.555 -146.197 15.109
vn 0.95896 -0.108514 0.261955
v -104.555 -146.197 15.109
vn -0.165268 0.355827 -0.919823
v -102.567 -138.707 15.6213
vn 0.955959 -0.164363 0.24316
v -101.488 -137.441 17.3825
vn 0.797895 0.116297 -0.591472
v -101.383 -137.296 16.8084
vn 0.980738 -0.130109 0.145688
v -101.383 -137.296 16.8084
vn 0.334771 0.116661 -0.93505
v -108.331 -164.815 6.97517
vn 0.905682 -0.30219 -0.297358
v -108.331 -164.815 6.97517
vn 0.791727 0.0052794 -0.610852
v -107.985 -163.362 7.20124
vn 0.686526 -0.575191 0.44479
v -108.362 -164.08 8.55365
vn 0.635208 -0.540841 0.551363
v -107.732 -163.909 7.87872
vn 0.887558 -0.391363 0.243056
v -107.732 -163.909 7.87872
vn 0.507925 -0.482431 0.713633
v -107.282 -162.493 8.51557
vn 0.505604 -0.562162 0.654476
v -107.658 -162.219 9.60867
vn 0.944364 -0.206422 -0.256059
v -107.595 -162.888 8.82016
vn 0.889421 -0.240241 -0.388864
v -107.387 -162.485 9.12552
vn 0.727362 -0.382286 0.569915
v -107.432 -162.3 8.83623
vn 0.844121 -0.0662067 -0.532049
v -107.039 -161.936 8.52458
vn 0.589396 -0.573482 0.568974
v -106.77 -161.265 9.74139
vn 0.926328 -0.331048 -0.17979
v -106.77 -161.265 9.74139
vn 0.925852 -0.366892 -0.0904922
v -106.593 -160.378 9.62003
vn 0.942437 -0.194879 -0.271725
v -106.464 -160.419 9.91004
vn 0.958011 -0.198401 -0.207006
v -106.392 -159.342 9.50384
vn 0.972646 -0.182718 -0.143438
v -106.376 -159.831 10.2325
vn 0.878943 -0.313979 0.358994
v -106.376 -159.831 10.2325
vn 0.847947 -0.320894 0.421915
v -105.873 -156.9 11.4952
vn 0.944063 -0.264098 -0.19748
v -105.332 -156.391 10.6214
vn 0.894395 -0.344923 0.284755
v -105.332 -156.391 10.6214
vn 0.951288 -0.137178 -0.276105
v -105.332 -156.391 10.6214
vn 0.93763 -0.28219 0.203026
v -104.876 -154.827 11.4153
vn 0.915747 -0.115583 -0.384771
v -104.876 -154.827 11.4153
vn 0.426887 -0.348724 0.834361
v -104.65 -151.296 13.2207
vn 0.428485 -0.351432 0.832403
v -103.821 -149.89 13.4012
vn -0.372475 0.295543 0.879725
v -104.036 -148.461 14.0102
vn 0.896392 -0.0921857 -0.433569
v -103.681 -148.346 12.3124
vn 0.863197 -0.0644018 -0.500743
v -103.019 -147.303 13.2932
vn 0.874479 -0.0287918 -0.484209
v -102.624 -145.56 13.7987
vn 0.77085 -0.228345 0.594684
v -102.714 -144.189 15.3043
vn 0.554927 -0.373017 0.743582
v -102.714 -144.189 15.3043
vn 0.968891 -0.241014 0.0562378
v -102.444 -144.395 14.7438
vn 0.186973 -0.364974 0.91205
v -102.567 -143.608 15.3369
vn 0.335624 -0.205639 0.919276
v -102.567 -143.608 15.3369
vn 0.724241 -0.44898 0.523347
v -102.567 -143.608 15.3369
vn 0.978562 -0.202342 -0.0384087
v -101.891 -141.915 15.1223
f 2//2 86//86 6//6
f 1//1 3//3 4//4
f 442//442 5//5 7//7
f 90//90 5//5 442//442
f 507//507 96//96 5//5
f 440//440 439//439 441//441
f 6//6 95//95 2//2
f 5//5 9//9 7//7
f 9//9 5//5 96//96
f 7//7 9//9 8//8
f 7//7 8//8 10//10
f 10//10 11//11 7//7
f 99//99 100//100 445//445
f 100//100 443//443 445//445
f 447//447 444//444 100//100
f 442//442 7//7 16//16
f 106//106 13//13 448//448
f 442//442 16//16 17//17
f 98//98 6//6 452//452
f 7//7 12//12 16//16
f 449//449 450//450 12//12
f 12//12 7//7 449//449
f 14//14 12//12 450//450
f 13//13 106//106 451//451
f 12//12 14//14 15//15
f 14//14 37//37 15//15
f 12//12 15//15 16//16
f 15//15 37//37 16//16
f 452//452 18//18 98//98
f 111//111 513//513 453//453
f 16//16 21//21 17//17
f 19//19 452//452 458//458
f 452//452 19//19 18//18
f 14//14 133//133 37//37
f 457//457 120//120 454//454
f 16//16 37//37 21//21
f 20//20 120//120 457//457
f 20//20 457//457 23//23
f 120//120 20//20 23//23
f 25//25 528//528 459//459
f 528//528 25//25 125//125
f 37//37 22//22 21//21
f 458//458 22//22 460//460
f 31//31 22//22 30//30
f 458//458 460//460 19//19
f 460//460 31//31 24//24
f 460//460 22//22 31//31
f 30//30 22//22 37//37
f 27//27 24//24 463//463
f 27//27 464//464 26//26
f 24//24 125//125 25//25
f 25//25 460//460 24//24
f 27//27 125//125 24//24
f 27//27 26//26 28//28
f 33//33 28//28 26//26
f 33//33 34//34 28//28
f 28//28 125//125 27//27
f 28//28 35//35 131//131
f 36//36 531//531 468//468
f 36//36 29//29 531//531
f 131//131 121//121 28//28
f 461//461 36//36 132//132
f 465//465 462//462 32//32
f 33//33 26//26 464//464
f 464//464 466//466 33//33
f 32//32 462//462 34//34
f 467//467 34//34 33//33
f 34//34 462//462 38//38
f 35//35 28//28 34//34
f 35//35 34//34 38//38
f 468//468 469//469 36//36
f 132//132 36//36 469//469
f 38//38 462//462 39//39
f 532//532 470//470 40//40
f 44//44 532//532 40//40
f 129//129 532//532 44//44
f 30//30 37//37 471//471
f 52//52 473//473 472//472
f 482//482 471//471 37//37
f 38//38 39//39 40//40
f 39//39 44//44 40//40
f 129//129 44//44 51//51
f 37//37 41//41 482//482
f 43//43 42//42 41//41
f 42//42 50//50 41//41
f 37//37 135//135 43//43
f 41//41 37//37 43//43
f 135//135 42//42 43//43
f 481//481 473//473 52//52
f 45//45 50//50 42//42
f 42//42 46//46 45//45
f 46//46 479//479 45//45
f 47//47 48//48 49//49
f 476//476 478//478 477//477
f 41//41 143//143 482//482
f 481//481 52//52 53//53
f 142//142 51//51 483//483
f 143//143 484//484 482//482
f 59//59 163//163 54//54
f 54//54 591//591 164//164
f 56//56 54//54 164//164
f 164//164 63//63 56//56
f 54//54 56//56 55//55
f 486//486 487//487 58//58
f 486//486 58//58 57//57
f 54//54 55//55 59//59
f 55//55 60//60 59//59
f 55//55 488//488 60//60
f 487//487 61//61 58//58
f 163//163 59//59 168//168
f 168//168 59//59 60//60
f 60//60 169//169 168//168
f 60//60 488//488 169//169
f 56//56 63//63 489//489
f 489//489 63//63 64//64
f 175//175 64//64 63//63
f 62//62 490//490 492//492
f 61//61 491//491 58//58
f 65//65 62//62 492//492
f 67//67 66//66 68//68
f 494//494 68//68 183//183
f 66//66 70//70 68//68
f 66//66 295//295 186//186
f 186//186 496//496 66//66
f 183//183 68//68 184//184
f 71//71 69//69 68//68
f 184//184 68//68 69//69
f 68//68 70//70 71//71
f 71//71 70//70 72//72
f 86//86 72//72 70//70
f 72//72 69//69 71//71
f 186//186 74//74 496//496
f 186//186 76//76 74//74
f 69//69 72//72 73//73
f 496//496 78//78 503//503
f 74//74 78//78 496//496
f 74//74 75//75 78//78
f 76//76 75//75 74//74
f 76//76 192//192 75//75
f 497//497 190//190 604//604
f 72//72 86//86 73//73
f 189//189 73//73 77//77
f 77//77 73//73 86//86
f 78//78 83//83 503//503
f 83//83 78//78 75//75
f 79//79 82//82 85//85
f 77//77 498//498 189//189
f 77//77 81//81 498//498
f 79//79 499//499 82//82
f 193//193 498//498 501//501
f 503//503 90//90 442//442
f 80//80 77//77 86//86
f 500//500 77//77 80//80
f 499//499 87//87 82//82
f 499//499 89//89 87//87
f 80//80 505//505 500//500
f 87//87 85//85 82//82
f 75//75 91//91 83//83
f 192//192 84//84 75//75
f 192//192 512//512 84//84
f 195//195 606//606 502//502
f 95//95 80//80 86//86
f 95//95 85//85 87//87
f 87//87 506//506 88//88
f 87//87 88//88 95//95
f 505//505 95//95 504//504
f 505//505 80//80 95//95
f 90//90 503//503 83//83
f 91//91 508//508 83//83
f 92//92 507//507 509//509
f 92//92 96//96 507//507
f 84//84 510//510 75//75
f 510//510 84//84 511//511
f 84//84 512//512 511//511
f 605//605 9//9 96//96
f 194//194 97//97 94//94
f 95//95 86//86 2//2
f 9//9 194//194 93//93
f 93//93 194//194 94//94
f 95//95 6//6 98//98
f 95//95 98//98 85//85
f 195//195 502//502 513//513
f 93//93 102//102 9//9
f 102//102 93//93 94//94
f 94//94 97//97 105//105
f 94//94 105//105 514//514
f 106//106 105//105 97//97
f 513//513 201//201 195//195
f 445//445 101//101 99//99
f 101//101 103//103 99//99
f 103//103 100//100 99//99
f 103//103 447//447 100//100
f 10//10 516//516 104//104
f 104//104 11//11 10//10
f 101//101 446//446 515//515
f 103//103 101//101 515//515
f 517//517 105//105 104//104
f 104//104 105//105 11//11
f 105//105 106//106 448//448
f 517//517 514//514 105//105
f 106//106 97//97 198//198
f 107//107 201//201 513//513
f 106//106 203//203 110//110
f 111//111 107//107 513//513
f 520//520 108//108 107//107
f 111//111 112//112 518//518
f 201//201 107//107 108//108
f 202//202 201//201 519//519
f 202//202 519//519 521//521
f 202//202 522//522 206//206
f 114//114 209//209 207//207
f 209//209 114//114 115//115
f 451//451 106//106 109//109
f 106//106 110//110 109//109
f 109//109 110//110 117//117
f 111//111 453//453 112//112
f 525//525 113//113 455//455
f 456//456 524//524 523//523
f 114//114 454//454 118//118
f 524//524 609//609 523//523
f 610//610 113//113 207//207
f 113//113 525//525 207//207
f 114//114 118//118 119//119
f 118//118 120//120 119//119
f 115//115 114//114 119//119
f 527//527 221//221 526//526
f 612//612 526//526 221//221
f 109//109 116//116 451//451
f 451//451 116//116 533//533
f 116//116 109//109 117//117
f 533//533 116//116 117//117
f 533//533 117//117 205//205
f 533//533 205//205 211//211
f 454//454 120//120 118//118
f 221//221 527//527 528//528
f 528//528 122//122 221//221
f 122//122 528//528 121//121
f 123//123 122//122 121//121
f 226//226 122//122 123//123
f 124//124 226//226 123//123
f 226//226 124//124 227//227
f 126//126 124//124 123//123
f 124//124 126//126 227//227
f 528//528 125//125 121//121
f 121//121 125//125 28//28
f 123//123 121//121 131//131
f 531//531 126//126 123//123
f 531//531 128//128 126//126
f 227//227 126//126 234//234
f 234//234 126//126 128//128
f 531//531 29//29 127//127
f 127//127 128//128 531//531
f 128//128 127//127 529//529
f 529//529 127//127 29//29
f 234//234 128//128 529//529
f 623//623 129//129 235//235
f 129//129 51//51 235//235
f 614//614 130//130 534//534
f 132//132 530//530 461//461
f 236//236 535//535 130//130
f 535//535 236//236 134//134
f 133//133 135//135 37//37
f 535//535 134//134 536//536
f 46//46 42//42 135//135
f 536//536 134//134 474//474
f 241//241 325//325 242//242
f 136//136 474//474 134//134
f 475//475 537//537 480//480
f 241//241 136//136 134//134
f 136//136 241//241 242//242
f 537//537 137//137 480//480
f 137//137 138//138 480//480
f 242//242 538//538 136//136
f 50//50 154//154 41//41
f 50//50 541//541 154//154
f 141//141 146//146 538//538
f 538//538 242//242 141//141
f 139//139 156//156 140//140
f 628//628 139//139 140//140
f 628//628 140//140 141//141
f 156//156 141//141 140//140
f 539//539 145//145 542//542
f 540//540 551//551 547//547
f 541//541 548//548 154//154
f 41//41 154//154 143//143
f 543//543 144//144 156//156
f 141//141 156//156 157//157
f 544//544 243//243 546//546
f 546//546 243//243 153//153
f 570//570 156//156 144//144
f 549//549 552//552 147//147
f 553//553 149//149 148//148
f 553//553 148//148 554//554
f 580//580 555//555 557//557
f 157//157 559//559 141//141
f 559//559 146//146 141//141
f 581//581 558//558 560//560
f 143//143 161//161 484//484
f 143//143 154//154 150//150
f 159//159 561//561 151//151
f 584//584 565//565 152//152
f 571//571 569//569 566//566
f 584//584 152//152 245//245
f 245//245 152//152 244//244
f 550//550 556//556 575//575
f 575//575 556//556 155//155
f 582//582 155//155 556//556
f 562//562 576//576 577//577
f 582//582 158//158 155//155
f 158//158 572//572 155//155
f 578//578 567//567 563//563
f 583//583 157//157 156//156
f 156//156 570//570 583//583
f 573//573 568//568 579//579
f 142//142 483//483 160//160
f 587//587 586//586 485//485
f 150//150 249//249 143//143
f 248//248 161//161 143//143
f 143//143 249//249 248//248
f 162//162 249//249 150//150
f 585//585 589//589 564//564
f 584//584 245//245 590//590
f 587//587 247//247 586//586
f 162//162 253//253 249//249
f 252//252 590//590 245//245
f 631//631 588//588 248//248
f 164//164 591//591 165//165
f 170//170 166//166 591//591
f 165//165 591//591 166//166
f 172//172 165//165 166//166
f 167//167 63//63 164//164
f 165//165 167//167 164//164
f 170//170 592//592 171//171
f 592//592 593//593 171//171
f 591//591 592//592 170//170
f 172//172 166//166 170//170
f 63//63 167//167 175//175
f 173//173 175//175 167//167
f 165//165 173//173 167//167
f 172//172 173//173 165//165
f 261//261 175//175 173//173
f 169//169 488//488 266//266
f 593//593 649//649 171//171
f 174//174 65//65 492//492
f 175//175 177//177 64//64
f 594//594 493//493 595//595
f 65//65 176//176 491//491
f 58//58 491//491 176//176
f 58//58 176//176 57//57
f 65//65 174//174 176//176
f 174//174 267//267 176//176
f 595//595 650//650 594//594
f 175//175 265//265 595//595
f 265//265 650//650 595//595
f 176//176 178//178 57//57
f 488//488 596//596 266//266
f 178//178 273//273 274//274
f 288//288 180//180 179//179
f 597//597 494//494 183//183
f 598//598 66//66 67//67
f 598//598 665//665 66//66
f 180//180 495//495 179//179
f 665//665 295//295 66//66
f 294//294 597//597 183//183
f 294//294 183//183 296//296
f 186//186 295//295 351//351
f 184//184 296//296 183//183
f 600//600 181//181 669//669
f 601//601 182//182 599//599
f 181//181 185//185 602//602
f 181//181 600//600 185//185
f 600//600 73//73 185//185
f 73//73 189//189 185//185
f 186//186 351//351 188//188
f 186//186 188//188 76//76
f 351//351 187//187 188//188
f 182//182 603//603 195//195
f 184//184 69//69 73//73
f 195//195 603//603 606//606
f 190//190 497//497 188//188
f 188//188 187//187 190//190
f 187//187 604//604 190//190
f 191//191 187//187 299//299
f 604//604 187//187 191//191
f 605//605 191//191 194//194
f 299//299 194//194 191//191
f 189//189 498//498 193//193
f 194//194 9//9 605//605
f 199//199 299//299 300//300
f 197//197 97//97 194//194
f 608//608 671//671 607//607
f 199//199 197//197 196//196
f 194//194 299//299 196//196
f 197//197 194//194 196//196
f 196//196 299//299 199//199
f 303//303 198//198 302//302
f 200//200 306//306 195//195
f 198//198 97//97 197//197
f 199//199 198//198 197//197
f 106//106 198//198 303//303
f 201//201 200//200 195//195
f 106//106 304//304 203//203
f 203//203 304//304 204//204
f 204//204 304//304 311//311
f 202//202 200//200 201//201
f 206//206 306//306 202//202
f 207//207 673//673 610//610
f 306//306 200//200 202//202
f 673//673 207//207 208//208
f 204//204 205//205 203//203
f 311//311 205//205 204//204
f 207//207 209//209 208//208
f 611//611 612//612 221//221
f 221//221 674//674 611//611
f 210//210 306//306 221//221
f 117//117 110//110 203//203
f 205//205 117//117 203//203
f 311//311 211//211 205//205
f 210//210 221//221 223//223
f 214//214 614//614 213//213
f 214//214 224//224 614//614
f 215//215 212//212 314//314
f 212//212 675//675 314//314
f 675//675 212//212 614//614
f 216//216 212//212 215//215
f 216//216 213//213 212//212
f 212//212 213//213 614//614
f 213//213 216//216 214//214
f 216//216 217//217 214//214
f 214//214 217//217 224//224
f 218//218 215//215 314//314
f 218//218 219//219 615//615
f 218//218 216//216 215//215
f 220//220 615//615 219//219
f 220//220 616//616 615//615
f 315//315 219//219 218//218
f 315//315 220//220 219//219
f 223//223 221//221 122//122
f 617//617 222//222 613//613
f 229//229 613//613 222//222
f 620//620 316//316 210//210
f 616//616 220//220 619//619
f 232//232 619//619 220//220
f 220//220 319//319 232//232
f 319//319 233//233 232//232
f 122//122 225//225 618//618
f 226//226 228//228 225//225
f 122//122 226//226 225//225
f 617//617 225//225 228//228
f 617//617 228//228 222//222
f 222//222 228//228 229//229
f 229//229 228//228 227//227
f 227//227 228//228 226//226
f 621//621 235//235 316//316
f 614//614 224//224 231//231
f 130//130 614//614 231//231
f 231//231 232//232 130//130
f 231//231 619//619 232//232
f 233//233 130//130 232//232
f 239//239 233//233 230//230
f 320//320 235//235 51//51
f 142//142 320//320 51//51
f 227//227 234//234 229//229
f 235//235 622//622 623//623
f 233//233 237//237 130//130
f 237//237 236//236 130//130
f 238//238 241//241 236//236
f 237//237 233//233 239//239
f 624//624 237//237 239//239
f 238//238 236//236 626//626
f 627//627 625//625 240//240
f 239//239 240//240 625//625
f 324//324 240//240 239//239
f 324//324 325//325 240//240
f 230//230 324//324 239//239
f 236//236 241//241 134//134
f 241//241 240//240 325//325
f 322//322 142//142 323//323
f 323//323 142//142 329//329
f 629//629 545//545 242//242
f 328//328 629//629 242//242
f 331//331 329//329 142//142
f 246//246 629//629 328//328
f 332//332 246//246 328//328
f 629//629 244//244 574//574
f 142//142 160//160 331//331
f 630//630 569//569 571//571
f 245//245 244//244 246//246
f 244//244 629//629 246//246
f 160//160 632//632 331//331
f 249//249 250//250 248//248
f 246//246 636//636 245//245
f 632//632 251//251 331//331
f 248//248 250//250 631//631
f 251//251 632//632 633//633
f 634//634 258//258 635//635
f 250//250 249//249 645//645
f 684//684 635//635 258//258
f 162//162 637//637 253//253
f 639//639 254//254 255//255
f 643//643 249//249 253//253
f 246//246 641//641 636//636
f 256//256 255//255 254//254
f 644//644 641//641 246//246
f 640//640 638//638 642//642
f 256//256 646//646 255//255
f 644//644 246//246 257//257
f 257//257 647//647 644//644
f 643//643 645//645 249//249
f 647//647 257//257 332//332
f 170//170 171//171 260//260
f 260//260 171//171 259//259
f 170//170 260//260 172//172
f 260//260 262//262 172//172
f 173//173 172//172 262//262
f 171//171 264//264 259//259
f 259//259 333//333 260//260
f 259//259 264//264 333//333
f 260//260 686//686 263//263
f 261//261 173//173 262//262
f 260//260 263//263 262//262
f 648//648 261//261 262//262
f 649//649 264//264 171//171
f 649//649 333//333 264//264
f 335//335 334//334 648//648
f 686//686 687//687 263//263
f 334//334 261//261 648//648
f 261//261 336//336 175//175
f 175//175 336//336 265//265
f 261//261 334//334 336//336
f 273//273 178//178 176//176
f 650//650 265//265 278//278
f 267//267 275//275 176//176
f 267//267 654//654 275//275
f 336//336 655//655 265//265
f 268//268 270//270 649//649
f 268//268 266//266 596//596
f 269//269 268//268 596//596
f 270//270 268//268 271//271
f 271//271 268//268 269//269
f 649//649 270//270 272//272
f 270//270 271//271 272//272
f 275//275 273//273 176//176
f 275//275 280//280 273//273
f 280//280 275//275 654//654
f 655//655 336//336 339//339
f 652//652 276//276 596//596
f 653//653 271//271 269//269
f 596//596 276//276 269//269
f 272//272 271//271 277//277
f 279//279 277//277 271//271
f 277//277 279//279 338//338
f 338//338 272//272 277//277
f 656//656 339//339 284//284
f 663//663 658//658 657//657
f 279//279 271//271 653//653
f 279//279 653//653 281//281
f 660//660 276//276 652//652
f 274//274 282//282 661//661
f 274//274 273//273 282//282
f 651//651 659//659 662//662
f 662//662 659//659 284//284
f 284//284 283//283 662//662
f 286//286 661//661 282//282
f 283//283 664//664 662//662
f 664//664 283//283 284//284
f 339//339 285//285 284//284
f 664//664 284//284 285//285
f 661//661 286//286 287//287
f 281//281 287//287 345//345
f 287//287 286//286 597//597
f 664//664 285//285 288//288
f 288//288 179//179 664//664
f 285//285 343//343 666//666
f 666//666 343//343 289//289
f 289//289 343//343 290//290
f 293//293 290//290 343//343
f 290//290 293//293 289//289
f 294//294 346//346 287//287
f 665//665 291//291 295//295
f 289//289 667//667 666//666
f 667//667 289//289 292//292
f 668//668 667//667 292//292
f 292//292 293//293 295//295
f 293//293 292//292 289//289
f 287//287 597//597 294//294
f 293//293 351//351 295//295
f 297//297 346//346 294//294
f 670//670 294//294 296//296
f 670//670 296//296 182//182
f 352//352 670//670 182//182
f 182//182 296//296 599//599
f 195//195 352//352 182//182
f 352//352 195//195 306//306
f 298//298 187//187 351//351
f 358//358 299//299 298//298
f 298//298 299//299 187//187
f 367//367 300//300 299//299
f 367//367 301//301 300//300
f 303//303 300//300 301//301
f 303//303 301//301 367//367
f 302//302 198//198 300//300
f 300//300 303//303 302//302
f 367//367 373//373 303//303
f 304//304 303//303 373//373
f 303//303 304//304 106//106
f 672//672 717//717 305//305
f 672//672 305//305 308//308
f 672//672 308//308 676//676
f 305//305 377//377 308//308
f 306//306 210//210 307//307
f 382//382 307//307 312//312
f 314//314 309//309 310//310
f 309//309 314//314 675//675
f 377//377 310//310 309//309
f 377//377 309//309 308//308
f 308//308 309//309 675//675
f 210//210 316//316 307//307
f 312//312 307//307 316//316
f 310//310 315//315 314//314
f 313//313 318//318 317//317
f 315//315 310//310 677//677
f 312//312 316//316 320//320
f 382//382 312//312 321//321
f 678//678 385//385 386//386
f 218//218 314//314 315//315
f 315//315 319//319 220//220
f 315//315 677//677 319//319
f 317//317 679//679 313//313
f 316//316 235//235 320//320
f 312//312 320//320 321//321
f 679//679 230//230 233//233
f 679//679 318//318 230//230
f 317//317 318//318 679//679
f 325//325 678//678 386//386
f 322//322 388//388 321//321
f 388//388 323//323 389//389
f 389//389 323//323 329//329
f 230//230 318//318 324//324
f 325//325 324//324 678//678
f 142//142 321//321 320//320
f 322//322 321//321 142//142
f 323//323 388//388 322//322
f 328//328 326//326 386//386
f 387//387 329//329 327//327
f 325//325 386//386 326//326
f 326//326 242//242 325//325
f 242//242 326//326 328//328
f 327//327 329//329 330//330
f 329//329 331//331 330//330
f 331//331 685//685 681//681
f 682//682 332//332 328//328
f 246//246 332//332 257//257
f 685//685 331//331 251//251
f 272//272 333//333 649//649
f 333//333 272//272 337//337
f 687//687 686//686 390//390
f 333//333 337//337 723//723
f 335//335 336//336 334//334
f 337//337 272//272 338//338
f 337//337 338//338 391//391
f 338//338 279//279 281//281
f 336//336 392//392 339//339
f 281//281 340//340 338//338
f 392//392 343//343 339//339
f 395//395 343//343 392//392
f 338//338 340//340 341//341
f 340//340 692//692 341//341
f 344//344 690//690 693//693
f 338//338 690//690 342//342
f 342//342 690//690 344//344
f 391//391 338//338 342//342
f 342//342 344//344 391//391
f 343//343 285//285 339//339
f 401//401 343//343 395//395
f 340//340 281//281 345//345
f 340//340 345//345 692//692
f 691//691 405//405 725//725
f 343//343 347//347 293//293
f 287//287 346//346 345//345
f 348//348 344//344 693//693
f 351//351 293//293 347//347
f 351//351 347//347 409//409
f 693//693 670//670 348//348
f 670//670 352//352 348//348
f 349//349 344//344 348//348
f 349//349 348//348 350//350
f 410//410 691//691 694//694
f 410//410 694//694 695//695
f 348//348 352//352 350//350
f 410//410 695//695 352//352
f 409//409 354//354 351//351
f 354//354 298//298 351//351
f 409//409 353//353 354//354
f 409//409 412//412 353//353
f 306//306 416//416 352//352
f 298//298 354//354 358//358
f 354//354 355//355 358//358
f 355//355 354//354 353//353
f 696//696 360//360 359//359
f 356//356 698//698 353//353
f 412//412 413//413 353//353
f 356//356 353//353 413//413
f 357//357 356//356 413//413
f 357//357 699//699 356//356
f 697//697 358//358 355//355
f 355//355 353//353 697//697
f 699//699 357//357 372//372
f 357//357 362//362 369//369
f 357//357 714//714 372//372
f 413//413 362//362 357//357
f 703//703 748//748 364//364
f 358//358 697//697 299//299
f 363//363 369//369 362//362
f 370//370 361//361 705//705
f 700//700 714//714 706//706
f 364//364 365//365 703//703
f 707//707 704//704 710//710
f 708//708 366//366 715//715
f 366//366 415//415 715//715
f 365//365 364//364 415//415
f 709//709 711//711 712//712
f 711//711 750//750 712//712
f 299//299 359//359 367//367
f 360//360 367//367 359//359
f 360//360 368//368 367//367
f 699//699 372//372 713//713
f 700//700 372//372 714//714
f 368//368 373//373 367//367
f 374//374 371//371 701//701
f 371//371 374//374 717//717
f 372//372 700//700 716//716
f 718//718 372//372 716//716
f 713//713 372//372 718//718
f 702//702 715//715 374//374
f 417//417 715//715 415//415
f 416//416 306//306 418//418
f 717//717 374//374 305//305
f 374//374 715//715 305//305
f 416//416 418//418 420//420
f 305//305 715//715 375//375
f 376//376 375//375 715//715
f 376//376 378//378 375//375
f 418//418 306//306 307//307
f 375//375 378//378 305//305
f 379//379 420//420 418//418
f 305//305 378//378 377//377
f 378//378 422//422 677//677
f 376//376 422//422 378//378
f 313//313 754//754 426//426
f 310//310 377//377 378//378
f 381//381 757//757 432//432
f 310//310 378//378 677//677
f 418//418 307//307 382//382
f 383//383 379//379 418//418
f 379//379 383//383 384//384
f 384//384 380//380 379//379
f 431//431 721//721 437//437
f 313//313 426//426 318//318
f 385//385 678//678 757//757
f 757//757 381//381 385//385
f 418//418 719//719 383//383
f 384//384 721//721 380//380
f 380//380 721//721 431//431
f 438//438 722//722 720//720
f 381//381 386//386 385//385
f 381//381 438//438 720//720
f 382//382 321//321 388//388
f 719//719 388//388 383//383
f 680//680 721//721 384//384
f 383//383 388//388 389//389
f 389//389 384//384 383//383
f 384//384 389//389 680//680
f 683//683 720//720 722//722
f 386//386 682//682 328//328
f 327//327 330//330 387//387
f 391//391 723//723 337//337
f 688//688 724//724 393//393
f 724//724 725//725 393//393
f 726//726 689//689 396//396
f 689//689 394//394 396//396
f 335//335 727//727 336//336
f 336//336 727//727 729//729
f 396//396 397//397 726//726
f 399//399 731//731 398//398
f 396//396 394//394 733//733
f 394//394 728//728 400//400
f 733//733 394//394 402//402
f 730//730 726//726 735//735
f 731//731 399//399 732//732
f 725//725 405//405 734//734
f 393//393 725//725 734//734
f 394//394 400//400 402//402
f 737//737 399//399 398//398
f 735//735 726//726 397//397
f 403//403 399//399 402//402
f 399//399 403//403 732//732
f 736//736 732//732 403//403
f 401//401 404//404 406//406
f 739//739 402//402 400//400
f 736//736 403//403 738//738
f 402//402 738//738 403//403
f 402//402 739//739 738//738
f 739//739 740//740 738//738
f 347//347 343//343 401//401
f 401//401 406//406 347//347
f 405//405 691//691 410//410
f 347//347 406//406 409//409
f 739//739 743//743 740//740
f 741//741 408//408 407//407
f 408//408 741//741 744//744
f 742//742 741//741 407//407
f 408//408 744//744 411//411
f 410//410 352//352 416//416
f 408//408 411//411 407//407
f 407//407 411//411 748//748
f 746//746 419//419 414//414
f 745//745 751//751 747//747
f 747//747 751//751 752//752
f 749//749 748//748 411//411
f 407//407 748//748 742//742
f 409//409 413//413 412//412
f 415//415 364//364 748//748
f 749//749 415//415 748//748
f 749//749 417//417 415//415
f 417//417 749//749 424//424
f 752//752 751//751 420//420
f 414//414 419//419 756//756
f 421//421 756//756 419//419
f 715//715 417//417 376//376
f 417//417 424//424 376//376
f 420//420 753//753 752//752
f 756//756 421//421 760//760
f 753//753 420//420 431//431
f 424//424 423//423 376//376
f 755//755 376//376 423//423
f 425//425 755//755 423//423
f 756//756 760//760 425//425
f 424//424 425//425 423//423
f 425//425 760//760 429//429
f 425//425 428//428 755//755
f 755//755 428//428 758//758
f 430//430 431//431 420//420
f 428//428 425//425 429//429
f 428//428 429//429 427//427
f 428//428 427//427 758//758
f 432//432 429//429 760//760
f 427//427 432//432 759//759
f 427//427 429//429 432//432
f 379//379 430//430 420//420
f 430//430 379//379 380//380
f 380//380 431//431 430//430
f 434//434 432//432 760//760
f 432//432 433//433 381//381
f 381//381 433//433 438//438
f 431//431 437//437 435//435
f 435//435 437//437 438//438
f 438//438 433//433 436//436
f 432//432 434//434 433//433
f 433//433 434//434 436//436
f 760//760 435//435 434//434
f 434//434 435//435 436//436
f 436//436 435//435 438//438
f 437//437 721//721 438//438
