# Wavafront OBJ file of BodyParts3D
# BodyParts3D, Copyright(C) 2010-2011 The Database Center for Life Science licensed under CC Attribution-Share Alike 2.1 Japan.
vn -0.624069 0.00789995 -0.78133
v 79.8748 -129.922 7.31934
vn -0.647046 0.0323214 -0.761766
v 79.6403 -128.578 7.55719
vn -0.352653 0.128801 -0.926848
v 80.4111 -126.51 7.18576
vn -0.652061 0.0236763 -0.757797
v 79.0673 -126.038 8.20178
vn -0.815058 -0.00361037 -0.579368
v 78.9795 -124.241 8.35284
vn -0.734717 -0.243971 0.632984
v 78.8201 -123.808 8.81501
vn -0.462296 0.103695 -0.880642
v 79.5991 -121.992 8.13962
vn -0.253511 0.176918 -0.951016
v 80.7576 -121.764 7.88578
vn -0.928326 -0.0657351 -0.36591
v 78.1248 -119.173 9.69437
vn -0.551742 -0.279135 0.785917
v 78.5035 -119.244 10.1618
vn -0.0706203 0.26143 -0.962636
v 80.0146 -118.247 8.76859
vn -0.554688 0.119863 -0.82338
v 78.307 -118.514 9.32695
vn -0.442389 -0.323368 0.836496
v 78.1039 -116.732 10.9827
vn -0.890705 0.0131785 -0.454391
v 77.1295 -113.508 11.1093
vn -0.968446 -0.0636601 -0.240956
v 77.0537 -113.553 11.4256
vn -0.415402 -0.125266 0.900972
v 77.9664 -113.237 11.9705
vn -0.707697 -0.264489 0.655142
v 77.1217 -113.41 11.67
vn -0.236146 0.223625 -0.945636
v 78.5122 -112.044 10.6828
vn 0.438978 0.445525 -0.78026
v 78.7029 -111.873 10.8874
vn -0.585167 0.161634 -0.794641
v 77.3985 -111.882 11.0324
vn 0.546695 0.289216 0.785798
v 77.4892 -111.816 11.9598
vn 0.704993 0.514122 0.488533
v 78.5514 -111.931 11.2902
vn 0.569445 0.427117 0.702355
v 78.302 -111.974 11.6019
vn -0.321358 -0.222219 0.920515
v 77.2504 -112.621 11.95
vn -0.319246 0.309337 -0.895764
v 77.6498 -110.888 11.1297
vn -0.58714 0.419143 -0.692521
v 77.3186 -110.919 11.3652
vn -0.455963 0.530901 -0.714312
v 77.2288 -110.748 11.5806
vn -0.584712 0.463615 -0.665712
v 77.6641 -110.699 11.2154
vn -0.34536 0.647874 -0.67896
v 77.2762 -110.676 11.6354
vn 0.420246 0.465125 -0.779136
v 78.0147 -110.888 11.1046
vn 0.646189 0.428288 0.631672
v 77.4839 -110.983 11.7911
vn 0.226026 0.958318 -0.174755
v 77.8518 -110.719 11.3449
vn 0.795169 0.463094 0.391471
v 78.1235 -111.112 11.2479
vn -0.790653 0.19824 -0.579283
v 76.9386 -110.785 11.8542
vn -0.780478 0.210379 -0.588722
v 76.9765 -110.394 11.9436
vn -0.92431 0.0737137 -0.374456
v 76.8249 -110.621 12.1285
vn 0.752473 0.334059 0.567617
v 77.1887 -110.821 12.0872
vn -0.858692 -0.166967 -0.484531
v 81.8877 -135.841 5.92965
vn -0.96475 -0.2083 -0.160837
v 81.7111 -136.33 6.52702
vn -0.966045 -0.226964 0.12347
v 81.546 -135.35 6.7443
vn -0.337295 0.168699 -0.92616
v 84.1423 -134.424 4.38433
vn -0.576369 0.0480228 -0.815777
v 82.4655 -133.943 5.3515
vn -0.675916 -0.0320534 -0.736281
v 81.4424 -134.468 6.24829
vn -0.916923 -0.214522 -0.3365
v 81.1008 -133.904 6.56238
vn -0.957897 -0.280377 0.0618188
v 81.1019 -133.943 6.82818
vn -0.944896 -0.284792 -0.161448
v 81.1992 -134.327 6.68582
vn -0.734476 -0.344528 0.584676
v 80.976 -133.371 7.07466
vn -0.849593 -0.329526 0.41183
v 81.3071 -134.354 6.86103
vn -0.624978 -0.320964 0.711607
v 81.1775 -133.582 7.12054
vn -0.88327 -0.276149 0.378915
v 81.4421 -134.574 6.97677
vn -0.408072 0.130945 -0.90351
v 82.0753 -130.398 6.01896
vn -0.988193 -0.118688 -0.0968878
v 80.8193 -130.532 8.41178
vn -0.379315 0.162169 -0.910945
v 82.1686 -129.223 6.26813
vn -0.423901 0.116894 -0.898134
v 82.1671 -128.43 6.37495
vn -0.46888 0.144425 -0.871374
v 82.5342 -129.395 6.03772
vn -0.193221 0.209052 -0.958626
v 82.7321 -128.987 6.0041
vn -0.605032 -0.309301 0.733668
v 80.22 -130.036 7.81633
vn -0.637539 -0.267236 0.722585
v 80.6883 -129.699 8.25131
vn -0.674278 -0.294011 0.677426
v 79.9601 -129.438 7.89344
vn -0.261597 0.167978 -0.950447
v 81.3539 -126.885 6.92189
vn -0.940386 -0.0285542 -0.338907
v 80.3132 -126.654 9.56931
vn -0.953032 -0.0522172 -0.298334
v 80.0672 -125.92 10.0977
vn 0.221678 0.266651 -0.937953
v 82.4675 -124.503 7.15118
vn -0.558714 -0.241612 0.793386
v 79.8107 -123.417 9.58305
vn -0.888261 -0.166297 0.42818
v 79.9413 -123.44 9.73436
vn 0.105467 0.278146 -0.954731
v 81.6886 -121.764 7.82441
vn 0.292236 0.329222 -0.897893
v 82.5835 -121.606 8.06866
vn -0.673638 -0.227849 0.703063
v 79.8884 -122.262 9.9749
vn -0.774723 -0.357028 0.521857
v 79.2759 -120.082 11.6987
vn 0.921298 0.386761 -0.0403361
v 81.2215 -117.525 9.28211
vn -0.431975 -0.331259 0.838848
v 78.7198 -117.716 10.7581
vn -0.980535 -0.0798224 -0.179386
v 79.3453 -118.626 11.4088
vn -0.974681 -0.0141116 -0.223156
v 78.9175 -118.167 12.4514
vn -0.785241 -0.441634 0.434
v 78.9556 -118.826 12.3977
vn 0.806755 0.481544 -0.342435
v 80.9228 -116.664 10.3274
vn -0.588633 -0.30648 0.748051
v 78.7996 -116.246 11.492
vn -0.727417 -0.0637795 0.683225
v 78.4633 -113.489 12.283
vn -0.832001 0.0913503 0.547202
v 78.6812 -113.344 12.6617
vn 0.828296 0.53754 -0.158039
v 79.4245 -113.082 12.1997
vn -0.997303 -0.036706 0.0635567
v 78.701 -113.228 13.249
vn -0.990628 -0.0669873 0.119032
v 78.7235 -113.464 13.483
vn -0.265007 0.237388 0.934568
v 78.2143 -112.848 12.06
vn 0.593779 0.73297 0.331935
v 78.8187 -112.428 11.4766
vn 0.442822 0.686029 0.577297
v 78.545 -112.407 11.7738
vn -0.16698 0.389035 0.905963
v 78.4071 -112.495 11.9081
vn 0.815273 0.570136 0.101364
v 79.0984 -112.74 11.4227
vn -0.304617 0.792014 0.529078
v 78.6968 -112.683 12.158
vn -0.581916 0.373843 0.72223
v 78.574 -112.88 12.259
vn 0.203187 0.909002 0.363909
v 78.8343 -112.625 12.0192
vn 0.760909 0.645229 -0.0685357
v 79.116 -112.735 11.9948
vn -0.620712 0.566349 0.542185
v 78.7038 -112.873 12.416
vn -0.34164 0.85691 0.385989
v 78.8468 -112.687 12.3001
vn -0.673359 0.725029 0.144642
v 78.8392 -112.725 12.5649
vn -0.205435 0.977968 -0.0370697
v 79.1347 -112.616 12.5836
vn 0.680506 0.553652 -0.479979
v 79.2923 -112.296 13.0545
vn 0.405745 0.0679336 0.911458
v 79.1364 -112.451 13.4397
vn -0.989296 0.139773 0.0419147
v 78.7248 -112.828 13.2743
vn 0.369901 -0.0313616 0.928542
v 78.97 -112.665 13.5297
vn -0.971698 0.21997 0.0861133
v 78.83 -112.461 13.5251
vn -0.923365 -0.335076 0.187405
v 83.5504 -142.555 6.12439
vn -0.1759 0.131544 -0.97558
v 87.1999 -139.268 2.74819
vn -0.578639 -0.0293062 -0.815057
v 84.495 -140.619 3.87417
vn -0.864736 -0.21325 -0.454705
v 83.2914 -140.78 5.20377
vn -0.139535 0.184566 -0.972864
v 87.1201 -137.102 3.14189
vn -0.0901191 0.27337 -0.957678
v 86.5998 -134.565 3.801
vn 0.578393 0.30521 -0.75651
v 86.9027 -135.354 3.64774
vn -0.977286 -0.195135 0.0826714
v 81.8068 -136.423 7.16002
vn -0.0560858 0.31709 -0.946736
v 85.0451 -130.116 5.27639
vn 0.226158 0.396872 -0.889576
v 85.2484 -129.932 5.38437
vn 0.130541 0.35626 -0.925223
v 84.1457 -127.042 6.42893
vn 0.949157 0.299829 -0.0959376
v 84.714 -128.116 6.83149
vn 0.958485 0.231432 0.16657
v 83.9933 -125.653 7.10423
vn 0.329973 0.354253 -0.874999
v 84.3656 -125.639 7.88704
vn 0.936281 0.336375 -0.10114
v 83.1322 -122.839 8.17247
vn 0.701397 0.38601 -0.599199
v 83.042 -122.301 8.6483
vn 0.244213 0.298015 -0.922793
v 82.8431 -122.006 8.02263
vn 0.943521 0.330278 0.0261489
v 82.5102 -121.068 8.53837
vn 0.866321 0.402155 -0.296241
v 82.5783 -121.296 8.71286
vn 0.443514 -0.119627 0.888248
v 81.3529 -121.811 10.942
vn 0.460092 0.391131 -0.797077
v 83.0135 -120.413 9.56364
vn -0.604415 -0.332977 0.723747
v 79.5151 -120.315 11.8944
vn 0.871664 0.411316 -0.266497
v 81.6457 -116.375 11.0718
vn 0.575827 0.502496 -0.644919
v 81.3355 -116.229 11.1325
vn 0.043653 0.440562 -0.89666
v 80.2571 -113.5 12.4209
vn 0.43962 -0.0964789 0.892987
v 80.2322 -113.562 12.6662
vn 0.685843 0.0984279 -0.721062
v 80.3233 -113.338 12.5061
vn 0.549873 -0.035724 0.834484
v 80.2164 -113.362 12.6786
vn 0.685836 0.0984381 -0.721067
v 80.3482 -113.143 12.5564
vn 0.321302 -0.141002 0.936421
v 80.4649 -113.556 12.611
vn -0.96978 0.242605 0.0258767
v 80.3217 -113.361 12.6684
vn 0.417627 -0.129417 0.899355
v 80.4651 -113.16 12.6652
vn -0.659001 -0.00611884 -0.752117
v 88.88 -152.791 1.11341
vn -0.879076 -0.217956 -0.423934
v 87.4909 -151.003 2.80988
vn -0.884852 -0.232437 -0.403744
v 87.3981 -150.871 3.29444
vn -0.677968 -0.0675503 -0.731981
v 87.4056 -147.899 2.32036
vn -0.842974 -0.206454 -0.496762
v 86.2227 -148.995 4.37402
vn -0.926276 -0.365373 -0.0922832
v 85.79 -148.293 4.89045
vn -0.835859 -0.442167 0.325313
v 85.746 -148.11 5.26152
vn -0.386802 0.0661792 -0.919785
v 87.7921 -146.647 2.02677
vn 0.226438 0.217992 -0.949318
v 89.2978 -144.438 2.02045
vn -0.926623 -0.348699 -0.140637
v 84.7949 -145.894 5.38087
vn -0.824114 -0.39491 0.406056
v 84.9422 -145.967 5.86856
vn -0.0456226 0.178016 -0.982969
v 88.7449 -142.457 2.33278
vn -0.081345 0.141623 -0.986573
v 89.0412 -143.049 2.21736
vn -0.494432 -0.309508 0.812245
v 84.4577 -144.018 6.39755
vn 0.913825 0.346205 -0.212286
v 88.3109 -140.715 2.77534
vn 0.0100159 0.131099 -0.991319
v 88.7199 -141.831 2.4572
vn 0.64757 0.288929 -0.705105
v 88.8709 -142.283 2.51968
vn 0.940493 0.324589 -0.100578
v 88.8934 -142.329 2.83173
vn -0.174067 0.0957731 -0.980065
v 87.3447 -141.271 2.61245
vn 0.126044 0.212307 -0.96904
v 87.9796 -140.069 2.64157
vn 0.00995843 0.135788 -0.990688
v 87.7419 -140.061 2.60297
vn 0.934706 0.322627 -0.149119
v 86.9727 -136.514 4.57224
vn 0.562512 0.350643 -0.748752
v 87.4125 -136.249 5.02669
vn 0.0570972 -0.163906 0.984822
v 83.9674 -138.164 7.86793
vn 0.933003 0.180083 0.311571
v 86.9705 -135.787 3.83729
vn 0.173282 0.23684 -0.955971
v 87.6537 -135.78 5.1359
vn 0.885924 0.130929 0.444969
v 86.6881 -135.79 4.4004
vn 0.554338 0.354352 -0.75309
v 87.0682 -135.187 5.26675
vn 0.173439 0.30911 -0.935077
v 87.511 -134.813 5.44
vn 0.533106 -0.0136148 0.845939
v 85.3971 -136.509 7.51215
vn 0.566828 -0.0424469 0.822742
v 86.5922 -133.552 6.55632
vn 0.931804 0.177006 0.316876
v 87.2277 -133.684 6.03324
vn 0.539226 -0.0503862 0.840652
v 85.6441 -133.216 7.08724
vn 0.070941 0.279266 -0.95759
v 86.0495 -130.902 6.43871
vn 0.106999 0.302646 -0.947078
v 86.1441 -129.547 6.84361
vn 0.661083 0.364686 -0.655724
v 86.2593 -129.375 7.04181
vn 0.307129 0.342397 -0.887939
v 85.28 -128.754 7.0097
vn 0.126054 0.330761 -0.935258
v 85.8352 -129.154 6.94147
vn 0.640264 0.388699 -0.662552
v 86.0924 -129.239 6.947
vn 0.368714 0.363494 -0.855524
v 85.6472 -127.995 7.32396
vn 0.806832 0.388408 -0.445152
v 85.5091 -127.224 7.59248
vn 0.720901 0.41419 -0.555652
v 85.6977 -127.549 7.63438
vn 0.85628 0.159251 0.491348
v 85.5642 -127.186 7.83432
vn 0.835959 0.0943648 0.540617
v 85.7348 -128.274 7.84805
vn 0.599165 -0.0370856 0.799766
v 85.5886 -128.293 7.98379
vn 0.910267 0.345625 -0.22794
v 85.2536 -126.273 8.01514
vn 0.860224 0.148342 0.487862
v 85.055 -125.916 8.35547
vn 0.439757 -0.11743 0.890407
v 83.6992 -125.997 8.99646
vn 0.234173 0.337063 -0.911894
v 84.6833 -124.69 8.28421
vn 0.865099 0.143661 0.480588
v 84.7851 -124.717 8.46571
vn 0.672375 0.0178902 0.739994
v 84.6788 -124.95 8.68423
vn -0.264342 -0.0100006 -0.964377
v 92.0038 -160.974 -1.19293
vn -0.800615 -0.134557 -0.583875
v 90.8443 -159.854 -0.478751
vn -0.925779 -0.248737 -0.284715
v 90.7367 -161.186 0.34662
vn 0.157459 0.199428 -0.967179
v 92.1563 -157.407 -0.710571
vn -0.650434 -0.0840886 -0.754894
v 90.8924 -157.998 -0.734385
vn -0.914492 -0.356793 0.190798
v 89.7051 -158.112 1.51632
vn -0.895681 -0.405231 0.183146
v 89.4958 -157.196 2.17904
vn 0.00493256 0.212265 -0.9772
v 91.563 -155.63 -0.386507
vn -0.180197 0.185058 -0.966065
v 90.8785 -153.477 0.14687
vn 0.265339 0.259727 -0.928513
v 91.6787 -154.074 0.026935
vn -0.94893 -0.278005 -0.149151
v 88.4636 -154.395 2.44002
vn -0.909963 -0.275327 -0.310101
v 87.5895 -152.286 3.28329
vn -0.814607 -0.470274 0.339495
v 87.9864 -153.278 3.52538
vn -0.392355 -0.435175 0.810358
v 88.2499 -153.183 3.84754
vn -0.891481 -0.43415 0.129521
v 87.1635 -151.565 4.08599
vn -0.618849 -0.479667 0.622049
v 87.2046 -151.428 4.35829
vn -0.232657 -0.401022 0.886032
v 87.689 -151.838 4.36443
vn -0.754569 -0.472091 0.455802
v 86.1799 -149.077 4.93973
vn -0.467097 -0.429917 0.772652
v 85.8313 -147.942 5.49123
vn -0.376731 -0.42224 0.824492
v 86.1812 -148.526 5.31948
vn 0.447892 0.349663 -0.822878
v 90.7238 -146.306 2.26369
vn 0.218111 0.231292 -0.94812
v 89.8268 -146.225 1.76399
vn 0.691157 0.362789 -0.625049
v 89.9373 -145.658 2.02881
vn 0.644697 0.317849 -0.695225
v 89.5207 -144.645 2.0438
vn 0.506573 0.29637 -0.80966
v 89.4495 -144.26 2.18031
vn 0.889351 0.336483 -0.309572
v 89.6148 -144.674 2.23342
vn 0.641144 0.414072 -0.646126
v 89.9106 -145.111 2.43785
vn 0.431158 -0.0194153 0.902068
v 87.2512 -144.706 6.76994
vn 0.90447 0.350409 -0.243202
v 89.113 -142.77 3.06921
vn 0.640878 0.369062 -0.673104
v 90.3236 -143.399 3.14669
vn 0.575881 0.344873 -0.741231
v 90.5144 -143.611 3.20384
vn -0.0353097 0.263134 -0.964113
v 89.5626 -141.25 3.70875
vn 0.676269 0.374216 -0.634525
v 89.7015 -141.075 3.88205
vn 0.157177 0.316836 -0.935366
v 88.9713 -141.053 3.78412
vn -0.244502 -0.259264 0.934345
v 85.0224 -142.129 7.26625
vn 0.187906 -0.100146 0.977068
v 85.6986 -142.538 7.25338
vn 0.011373 0.26565 -0.964002
v 89.4776 -140.636 3.8957
vn 0.757262 0.411325 -0.507313
v 89.7665 -140.903 4.13408
vn -0.0163792 0.244225 -0.96958
v 88.7577 -139.495 4.19892
vn -0.00235399 0.259583 -0.965718
v 89.1843 -140.667 3.89004
vn 0.243109 0.318359 -0.916267
v 88.2243 -139.116 4.2981
vn 0.713762 0.116973 0.690551
v 88.9537 -138.968 4.73457
vn 0.564545 0.0523436 0.823741
v 86.6145 -139.421 6.60845
vn 0.0772229 0.285074 -0.95539
v 88.0216 -136.955 4.85266
vn 0.195593 0.250625 -0.94812
v 87.8678 -135.792 5.19934
vn -0.34279 -0.173086 -0.923329
v 92.6416 -163.603 -1.22262
vn 0.145724 -0.041051 -0.988473
v 93.2256 -163.807 -1.24967
vn -0.940975 -0.33027 -0.0740767
v 91.3459 -163.423 0.401827
vn 0.0602982 0.0228817 -0.997918
v 93.0059 -162.789 -1.28174
vn 0.419379 0.126193 -0.898998
v 93.7435 -161.821 -1.04073
vn -0.714233 -0.204429 -0.669387
v 91.7776 -162.843 -0.831207
vn -0.803992 -0.313543 0.50526
v 91.5568 -163.166 1.39597
vn 0.110258 0.129783 -0.985393
v 92.4353 -160.176 -1.14688
vn 0.850301 0.217677 -0.47917
v 93.7586 -159.885 -0.456566
vn -0.487096 -0.266332 0.831748
v 90.883 -160.411 1.95879
vn 0.464464 0.229475 -0.855344
v 93.0268 -158.439 -0.625726
vn -0.784829 -0.358486 0.5055
v 90.0342 -158.563 1.97802
vn -0.691292 -0.379911 0.61464
v 90.268 -158.439 2.33646
vn -0.730936 -0.431774 0.528492
v 89.5403 -157.034 2.45157
vn -0.430077 -0.381206 0.818362
v 89.6471 -156.863 2.65875
vn 0.158132 -0.264906 0.95122
v 90.3741 -153.998 3.75656
vn 0.642706 0.293632 -0.707608
v 92.4366 -151.055 1.45458
vn 0.982214 0.187412 0.0115425
v 92.6299 -151.116 1.85773
vn 0.786797 0.0243414 0.616732
v 92.4583 -150.615 2.59497
vn 0.932674 0.190271 0.306456
v 91.6535 -147.486 3.36614
vn 0.699104 0.02081 0.714717
v 91.2697 -148.183 4.01536
vn 0.439895 -0.129274 0.888696
v 88.8919 -148.194 5.63537
vn -0.0760895 -0.291511 0.953536
v 87.455 -146.281 6.47139
vn 0.962003 0.272008 0.0237023
v 91.1361 -145.484 3.42473
vn 0.872076 0.19771 0.447653
v 90.3819 -143.139 4.13677
vn 0.663507 0.110377 0.739983
v 89.9912 -143.836 4.77964
vn -0.351295 -0.283836 -0.892204
v 94.2177 -168.786 -0.43103
vn -0.0541855 -0.16753 -0.984377
v 93.9626 -166.49 -0.91493
vn -0.848647 -0.372304 -0.37575
v 93.1317 -167.638 0.07964
vn 0.41928 0.0267739 -0.907462
v 94.7238 -164.897 -0.799109
vn -0.42835 -0.177068 0.886094
v 92.0585 -163.813 1.64178
vn 0.90411 0.190196 0.382637
v 94.1988 -162.29 0.761427
vn 0.659005 0.129999 0.740819
v 93.7716 -162.182 1.43307
vn -0.157935 -0.143 0.97704
v 92.204 -162.055 2.05475
vn 0.278188 -0.00991438 0.960476
v 92.6181 -161.855 2.04468
vn 0.979534 0.186428 0.0758786
v 93.8498 -159.758 0.055482
vn 0.926123 0.105729 0.362103
v 93.6389 -159.269 0.872369
vn 0.124387 -0.170842 0.977415
v 91.7776 -158.681 2.51067
vn 0.719781 0.0175489 0.693979
v 92.9728 -157.785 1.82825
vn 0.828473 0.00454798 0.560011
v 93.0516 -155.339 1.68238
vn 0.70604 -0.0676011 0.704938
v 92.7682 -155.377 1.96234
vn 0.793734 -0.0486599 0.606316
v 92.7944 -154.786 2.06786
vn 0.595097 -0.0903309 0.798561
v 92.0396 -154.478 2.7788
vn -0.427523 -0.395932 -0.812688
v 95.1546 -171.301 0.116834
vn -0.775717 -0.523597 -0.35229
v 95.0834 -171.766 0.54034
vn -0.701749 -0.416841 -0.577748
v 94.5217 -170.495 0.179576
vn -0.0283646 -0.218267 -0.975477
v 95.6837 -170.869 -0.105121
vn -0.874867 -0.456816 -0.16102
v 94.4388 -170.761 0.619198
vn 0.283466 -0.0699004 -0.956431
v 95.5393 -168.59 -0.479871
vn 0.822075 0.159616 -0.546549
v 95.8411 -168.631 -0.220052
vn -0.889799 -0.39511 0.228353
v 93.6213 -168.823 1.24809
vn -0.802046 -0.344811 0.487675
v 93.4512 -168.255 1.51933
vn -0.716894 -0.35659 0.599088
v 93.683 -168.659 1.50259
vn -0.494409 -0.162051 0.85399
v 93.8133 -168.484 1.68498
vn 0.5052 0.204717 0.83837
v 94.8679 -167.295 1.77779
vn 0.964544 0.238317 -0.113405
v 95.075 -165.41 -0.07573
vn 0.068405 0.00345542 0.997652
v 93.8644 -165.683 1.87555
vn 0.877849 0.25676 0.404297
v 94.6564 -164.332 0.871678
vn 0.230796 -0.0894487 -0.968882
v 97.2163 -173.399 0.510763
vn -0.136603 -0.295313 -0.945584
v 96.1601 -172.55 0.301738
vn 0.849606 0.244604 -0.467266
v 96.7644 -171.361 0.428414
vn 0.486996 0.00976702 -0.873349
v 96.9328 -172.565 0.354968
vn 0.809459 0.336038 -0.481513
v 97.1694 -171.825 0.80669
vn -0.863519 -0.414408 0.287404
v 95.7027 -172.981 1.90607
vn 0.931166 0.347337 -0.110849
v 96.8471 -171.038 0.980224
vn 0.240346 0.245408 0.939153
v 96.3368 -170.596 1.89232
vn 0.079616 0.146619 0.985984
v 95.5405 -170.591 2.1578
vn 0.0504283 0.0624532 0.996773
v 95.0748 -169.07 2.00969
vn -0.828103 -0.556672 0.0660446
v 96.9854 -175.307 2.5269
vn 0.568997 0.147981 -0.808915
v 97.6036 -173.23 0.711524
vn -0.116505 -0.310869 -0.943285
v 98.9527 -176.965 1.29189
vn 0.146993 -0.267756 -0.952208
v 99.8072 -177.61 1.49876
vn 0.564896 0.113318 -0.817344
v 99.8619 -176.812 1.56448
vn 0.840323 0.495114 0.220722
v 99.8418 -176.808 1.88171
vn -0.555396 -0.517207 -0.651178
v 98.6836 -177.204 1.55817
vn -0.338139 -0.531736 -0.776479
v 98.9553 -177.402 1.5122
vn -0.771187 -0.60615 -0.194558
v 98.2963 -177.199 2.29987
vn -0.615457 -0.645871 -0.451734
v 98.9851 -177.701 1.77704
vn 0.515805 0.122849 -0.847852
v 99.009 -175.934 1.14176
vn 0.744532 0.358528 -0.563142
v 99.3156 -175.62 1.74663
vn 0.877917 0.45034 0.162652
v 98.9315 -174.862 2.1137
vn 0.813874 0.415908 0.405745
v 98.8873 -175.569 2.8072
vn -0.239839 0.0448761 0.969775
v 97.8486 -175.789 3.0005
vn -0.063176 -0.56298 -0.824052
v 101.263 -179.697 2.56144
vn 0.0858482 -0.405311 -0.910139
v 100.806 -178.707 2.02594
vn 0.764715 0.566626 0.306832
v 100.939 -178.324 2.16384
vn 0.555728 0.0102472 -0.831301
v 101.016 -178.719 2.09389
vn -0.36736 -0.661839 -0.653465
v 99.8564 -178.722 2.1891
vn -0.711846 -0.701867 -0.0256492
v 99.654 -178.811 2.81648
vn -0.720655 -0.467638 0.511832
v 99.8365 -178.733 3.65306
vn -0.364644 -0.000201264 0.931147
v 99.791 -178.344 3.76254
vn 0.057644 0.332014 0.941512
v 100.125 -178.775 3.9264
vn 0.75913 0.515493 0.397478
v 99.7112 -177.71 3.57599
vn -0.495617 -0.808841 -0.316451
v 101.387 -180.292 3.15356
vn 0.204511 -0.496164 -0.843799
v 101.696 -179.821 2.67897
vn -0.0740771 -0.784569 -0.615601
v 101.557 -180.312 3.03483
vn -0.338866 -0.920553 -0.194299
v 101.565 -180.424 3.30422
vn 0.415186 -0.823356 -0.386919
v 101.758 -180.29 3.11755
vn -0.432672 -0.897088 -0.0895959
v 101.428 -180.395 3.45564
vn -0.535747 -0.650339 0.538549
v 101.084 -179.992 3.88778
vn 0.834357 -0.102725 0.541568
v 101.574 -180.423 3.59017
vn -0.652244 -0.723408 0.226404
v 101.437 -180.404 3.7399
vn 0.855572 0.270266 0.441534
v 101.467 -180.184 3.79903
vn 0.734695 0.555878 0.388874
v 100.601 -179.127 3.95127
vn -0.669739 -0.63641 0.382664
v 100.838 -179.787 3.88922
vn -0.894445 -0.319835 0.312527
v 79.8748 -129.922 7.31934
vn -0.829909 -0.262582 0.492242
v 79.0673 -126.038 8.20178
vn -0.950937 -0.0205223 -0.308702
v 79.0673 -126.038 8.20178
vn -0.959635 -0.0600018 -0.274773
v 78.8201 -123.808 8.81501
vn -0.779921 -0.292786 0.553172
v 78.1248 -119.173 9.69437
vn -0.897245 -0.224094 0.380438
v 77.0537 -113.553 11.4256
vn 0.361128 0.411923 -0.836604
v 78.5122 -112.044 10.6828
vn 0.836979 0.494535 0.234308
v 78.7029 -111.873 10.8874
vn 0.0801039 -0.0639137 0.994735
v 77.4892 -111.816 11.9598
vn 0.0607976 0.10926 0.992152
v 77.2504 -112.621 11.95
vn -0.0628113 0.41512 -0.907596
v 77.6641 -110.699 11.2154
vn 0.226026 0.958318 -0.174755
v 77.6641 -110.699 11.2154
vn 0.0891402 0.995579 0.0296108
v 77.2762 -110.676 11.6354
vn 0.391652 0.613738 0.685518
v 77.2762 -110.676 11.6354
vn 0.767767 0.61377 0.183902
v 77.2762 -110.676 11.6354
vn 0.825932 0.52785 0.198016
v 78.0147 -110.888 11.1046
vn -0.0642094 0.366585 -0.928166
v 78.0147 -110.888 11.1046
vn 0.348922 0.861745 -0.368305
v 78.0147 -110.888 11.1046
vn 0.669715 0.490589 0.557498
v 77.8518 -110.719 11.3449
vn -0.137874 0.659697 -0.738777
v 76.9765 -110.394 11.9436
vn 0.757294 0.569682 0.319326
v 76.9765 -110.394 11.9436
vn 0.339166 0.446706 0.827901
v 76.9765 -110.394 11.9436
vn -0.924471 -0.155606 0.348053
v 76.8249 -110.621 12.1285
vn -0.566066 -0.192044 0.801678
v 76.8249 -110.621 12.1285
vn 0.100705 -0.0840146 0.991363
v 76.8249 -110.621 12.1285
vn 0.339166 0.446706 0.827901
v 76.8249 -110.621 12.1285
vn 0.339166 0.446706 0.827901
v 77.1887 -110.821 12.0872
vn 0.0516403 -0.111451 0.992427
v 77.1887 -110.821 12.0872
vn -0.784326 -0.384378 0.486915
v 81.1019 -133.943 6.82818
vn -0.828906 -0.314925 0.462317
v 81.1992 -134.327 6.68582
vn -0.988135 -0.150366 0.0312826
v 80.6883 -129.699 8.25131
vn -0.979433 -0.130747 0.153674
v 80.3132 -126.654 9.56931
vn -0.675297 -0.289601 0.678311
v 80.0672 -125.92 10.0977
vn -0.987594 -0.155657 0.0207192
v 79.8884 -122.262 9.9749
vn -0.930105 -0.0286339 -0.366177
v 79.2759 -120.082 11.6987
vn 0.302301 0.369056 -0.878869
v 81.2215 -117.525 9.28211
vn -0.976041 -0.0412409 -0.213642
v 78.9556 -118.826 12.3977
vn 0.335399 -0.181452 0.924437
v 78.9556 -118.826 12.3977
vn -0.965343 -0.17054 0.197556
v 78.7996 -116.246 11.492
vn -0.999437 8.23736e-005 0.0335378
v 78.6812 -113.344 12.6617
vn 0.351617 0.715465 -0.603718
v 79.4245 -113.082 12.1997
vn -0.819761 0.527871 0.222138
v 78.701 -113.228 13.249
vn 0.214154 -0.126421 0.968584
v 78.7235 -113.464 13.483
vn -0.999801 0.0199689 -5.44168e-005
v 78.7235 -113.464 13.483
vn 0.270081 0.694778 0.666588
v 78.4071 -112.495 11.9081
vn 0.370156 0.89576 0.246166
v 79.116 -112.735 11.9948
vn -0.0482563 0.979221 -0.196971
v 79.116 -112.735 11.9948
vn -0.998017 0.0590458 0.0218011
v 78.7038 -112.873 12.416
vn -0.798267 0.584128 0.146848
v 78.7038 -112.873 12.416
vn 0.370471 0.910609 0.183143
v 78.8468 -112.687 12.3001
vn -0.418113 0.908395 -0.000744675
v 78.8468 -112.687 12.3001
vn -0.97044 0.205256 -0.126951
v 78.8392 -112.725 12.5649
vn -0.409716 0.839291 -0.357385
v 78.8392 -112.725 12.5649
vn 0.780901 0.60692 -0.147791
v 79.1347 -112.616 12.5836
vn 0.351617 0.715465 -0.603718
v 79.1347 -112.616 12.5836
vn -0.280156 0.835028 -0.473542
v 79.1347 -112.616 12.5836
vn 0.351617 0.715465 -0.603718
v 79.2923 -112.296 13.0545
vn -0.409716 0.839291 -0.357385
v 79.2923 -112.296 13.0545
vn 0.73746 0.46754 0.4874
v 79.2923 -112.296 13.0545
vn 0.0838695 0.911639 0.402342
v 79.2923 -112.296 13.0545
vn -0.121551 0.384068 -0.915269
v 79.2923 -112.296 13.0545
vn 0.682082 0.683322 -0.260453
v 79.2923 -112.296 13.0545
vn 0.73746 0.46754 0.4874
v 79.1364 -112.451 13.4397
vn 0.0838695 0.911639 0.402342
v 79.1364 -112.451 13.4397
vn -0.526863 0.818126 -0.2304
v 78.83 -112.461 13.5251
vn 0.0900415 0.0841867 0.992373
v 78.83 -112.461 13.5251
vn 0.0838695 0.911639 0.402342
v 78.83 -112.461 13.5251
vn 0.450372 0.299488 -0.841113
v 87.1201 -137.102 3.14189
vn 0.32859 0.300096 -0.895528
v 86.5998 -134.565 3.801
vn 0.779263 0.393875 -0.487453
v 86.5998 -134.565 3.801
vn 0.949068 0.306435 -0.0732614
v 86.9027 -135.354 3.64774
vn -0.679444 -0.304183 0.667704
v 81.8068 -136.423 7.16002
vn 0.873816 0.368292 -0.317502
v 85.2484 -129.932 5.38437
vn 0.633715 0.373003 -0.677698
v 84.714 -128.116 6.83149
vn 0.948944 0.299432 -0.0992276
v 83.9933 -125.653 7.10423
vn 0.546167 0.41394 -0.728255
v 83.9933 -125.653 7.10423
vn 0.696831 0.373959 -0.612031
v 82.8431 -122.006 8.02263
vn 0.944899 0.327256 -0.00827999
v 82.8431 -122.006 8.02263
vn -0.0225998 0.343072 -0.939037
v 83.0135 -120.413 9.56364
vn 0.790097 0.435341 -0.431538
v 83.0135 -120.413 9.56364
vn 0.35508 -0.151137 0.922538
v 79.5151 -120.315 11.8944
vn 0.0086651 0.400191 -0.916391
v 81.6457 -116.375 11.0718
vn 0.0260546 0.420414 -0.906958
v 81.3355 -116.229 11.1325
vn 0.68585 0.0984178 -0.721057
v 80.2571 -113.5 12.4209
vn -0.933202 0.356787 0.0428538
v 80.2571 -113.5 12.4209
vn 0.682082 0.683322 -0.260453
v 80.2571 -113.5 12.4209
vn 0.990467 0.0708349 0.118142
v 80.2571 -113.5 12.4209
vn 0.0344691 0.968403 0.246997
v 80.2571 -113.5 12.4209
vn -0.620557 -0.60296 0.501347
v 80.2571 -113.5 12.4209
vn 0.990467 0.0708349 0.118142
v 80.2322 -113.562 12.6662
vn 0.0344691 0.968403 0.246997
v 80.2322 -113.562 12.6662
vn -0.96978 0.242605 0.0258767
v 80.3233 -113.338 12.5061
vn 0.73746 0.46754 0.4874
v 80.2164 -113.362 12.6786
vn 0.682082 0.683322 -0.260453
v 80.2164 -113.362 12.6786
vn 0.990467 0.0708349 0.118142
v 80.2164 -113.362 12.6786
vn -0.992137 0.124865 0.0085201
v 80.3482 -113.143 12.5564
vn -0.582672 0.426056 0.692077
v 80.3482 -113.143 12.5564
vn 0.0344691 0.968403 0.246997
v 80.4649 -113.556 12.611
vn -0.620557 -0.60296 0.501347
v 80.4649 -113.556 12.611
vn -0.620557 -0.60296 0.501347
v 80.3217 -113.361 12.6684
vn 0.207535 -0.132794 0.969172
v 80.3217 -113.361 12.6684
vn -0.582672 0.426056 0.692077
v 80.3217 -113.361 12.6684
vn 0.83704 0.118817 0.534084
v 80.4651 -113.16 12.6652
vn 0.93001 0.364571 -0.0465856
v 80.4651 -113.16 12.6652
vn 0.124173 0.471235 -0.873223
v 80.4651 -113.16 12.6652
vn 0.685843 0.0984279 -0.721062
v 80.4651 -113.16 12.6652
vn -0.582672 0.426056 0.692077
v 80.4651 -113.16 12.6652
vn -0.25792 -0.302164 0.917701
v 84.9422 -145.967 5.86856
vn 0.64757 0.288929 -0.705105
v 88.7449 -142.457 2.33278
vn 0.575483 0.218086 -0.788199
v 89.0412 -143.049 2.21736
vn 0.894247 0.312519 -0.320396
v 89.0412 -143.049 2.21736
vn 0.532307 0.410493 -0.740368
v 89.0412 -143.049 2.21736
vn 0.93215 0.186696 0.310228
v 88.3109 -140.715 2.77534
vn 0.931093 0.353411 -0.0903682
v 88.7199 -141.831 2.4572
vn 0.743855 0.158898 -0.649178
v 88.7199 -141.831 2.4572
vn 0.94305 0.312498 -0.114025
v 88.8709 -142.283 2.51968
vn 0.769837 0.339431 -0.540497
v 87.9796 -140.069 2.64157
vn 0.588121 0.359191 -0.724635
v 86.9727 -136.514 4.57224
vn 0.0565158 0.222827 -0.973219
v 87.4125 -136.249 5.02669
vn 0.930248 0.325556 -0.169268
v 86.6881 -135.79 4.4004
vn 0.0763647 0.27611 -0.958088
v 87.0682 -135.187 5.26675
vn 0.942573 0.306391 -0.132971
v 87.511 -134.813 5.44
vn 0.64637 0.348686 -0.678692
v 87.511 -134.813 5.44
vn 0.651585 0.342865 -0.676668
v 86.1441 -129.547 6.84361
vn 0.938693 0.152596 0.309144
v 86.2593 -129.375 7.04181
vn 0.130467 0.332656 -0.93398
v 86.0924 -129.239 6.947
vn 0.919262 0.153801 0.362356
v 85.6977 -127.549 7.63438
vn 0.874043 0.408122 -0.2636
v 85.5642 -127.186 7.83432
vn 0.925045 0.218949 0.310408
v 85.2536 -126.273 8.01514
vn 0.821204 0.40786 -0.399092
v 84.6833 -124.69 8.28421
vn 0.865374 0.396089 -0.306986
v 84.7851 -124.717 8.46571
vn -0.152019 0.159047 -0.975497
v 90.8924 -157.998 -0.734385
vn 0.878616 0.30391 -0.368337
v 89.4495 -144.26 2.18031
vn 0.509403 0.38046 -0.771854
v 89.113 -142.77 3.06921
vn 0.0124919 0.268929 -0.963079
v 90.3236 -143.399 3.14669
vn 0.927438 0.304805 -0.216686
v 90.5144 -143.611 3.20384
vn 0.529226 0.345922 -0.774763
v 89.5626 -141.25 3.70875
vn 0.829184 0.388382 -0.402012
v 89.4776 -140.636 3.8957
vn 0.94953 0.275301 0.150338
v 89.7665 -140.903 4.13408
vn 0.883737 0.399835 -0.243189
v 88.9537 -138.968 4.73457
vn 0.883622 0.377744 -0.276625
v 87.8678 -135.792 5.19934
vn -0.149498 -0.242598 0.958539
v 90.268 -158.439 2.33646
vn 0.980897 0.144687 0.130029
v 92.4583 -150.615 2.59497
vn 0.893886 0.216447 -0.392579
v 94.7238 -164.897 -0.799109
vn 0.799389 0.440986 0.408054
v 96.3368 -170.596 1.89232
vn -0.641285 -0.232465 0.731241
v 96.9854 -175.307 2.5269
vn 0.708448 0.412397 -0.57274
v 99.8619 -176.812 1.56448
vn 0.862802 0.503144 0.0491873
v 99.8619 -176.812 1.56448
vn 0.899565 0.403867 0.166357
v 99.3156 -175.62 1.74663
vn 0.777934 0.252721 -0.575283
v 100.939 -178.324 2.16384
vn -0.665755 -0.374485 0.645392
v 100.125 -178.775 3.9264
vn -0.162029 -0.149851 0.975342
v 100.125 -178.775 3.9264
vn 0.0907348 0.320467 0.942904
v 99.7112 -177.71 3.57599
vn 0.831374 0.24916 -0.496726
v 101.696 -179.821 2.67897
vn 0.829915 0.458495 0.317841
v 101.696 -179.821 2.67897
vn 0.420648 -0.884746 -0.200697
v 101.565 -180.424 3.30422
vn 0.905312 0.242485 0.348729
v 101.758 -180.29 3.11755
vn 0.0837824 -0.110207 0.990371
v 101.084 -179.992 3.88778
vn 0.562325 -0.826825 -0.0122831
v 101.574 -180.423 3.59017
vn -0.181664 -0.983322 -0.00866912
v 101.574 -180.423 3.59017
vn -0.163057 -0.986179 -0.0293847
v 101.437 -180.404 3.7399
vn 0.0864178 -0.269677 0.959065
v 101.437 -180.404 3.7399
vn 0.692862 -0.275306 0.666445
v 101.437 -180.404 3.7399
vn 0.176929 -0.0991359 0.979218
v 101.467 -180.184 3.79903
vn 0.239373 0.386018 0.890894
v 100.601 -179.127 3.95127
vn -0.000831916 -0.0695143 0.997581
v 100.601 -179.127 3.95127
vn -0.131676 -0.13953 0.981424
v 100.838 -179.787 3.88922
f 1//1 4//4 2//2
f 59//59 334//334 333//333
f 51//51 1//1 3//3
f 7//7 1//1 2//2
f 2//2 4//4 7//7
f 1//1 7//7 3//3
f 334//334 59//59 6//6
f 7//7 4//4 5//5
f 335//335 336//336 5//5
f 6//6 59//59 10//10
f 7//7 8//8 3//3
f 7//7 12//12 8//8
f 5//5 9//9 12//12
f 336//336 9//9 5//5
f 6//6 10//10 337//337
f 7//7 5//5 12//12
f 11//11 12//12 18//18
f 12//12 9//9 14//14
f 13//13 337//337 10//10
f 10//10 68//68 71//71
f 12//12 20//20 18//18
f 12//12 14//14 20//20
f 337//337 13//13 17//17
f 10//10 71//71 13//13
f 9//9 15//15 14//14
f 17//17 338//338 337//337
f 13//13 24//24 17//17
f 76//76 13//13 71//71
f 76//76 16//16 13//13
f 15//15 36//36 14//14
f 355//355 338//338 17//17
f 16//16 24//24 13//13
f 16//16 82//82 24//24
f 16//16 88//88 82//82
f 339//339 30//30 19//19
f 86//86 70//70 340//340
f 19//19 368//368 339//339
f 86//86 22//22 83//83
f 86//86 340//340 22//22
f 340//340 348//348 33//33
f 33//33 22//22 340//340
f 20//20 14//14 34//34
f 25//25 18//18 20//20
f 20//20 26//26 25//25
f 20//20 34//34 26//26
f 18//18 25//25 349//349
f 23//23 31//31 21//21
f 342//342 85//85 341//341
f 23//23 21//21 377//377
f 23//23 22//22 33//33
f 85//85 342//342 82//82
f 23//23 377//377 84//84
f 83//83 22//22 84//84
f 23//23 84//84 22//22
f 17//17 24//24 356//356
f 357//357 342//342 341//341
f 26//26 34//34 27//27
f 28//28 25//25 26//26
f 28//28 26//26 29//29
f 29//29 26//26 27//27
f 35//35 27//27 34//34
f 349//349 25//25 343//343
f 344//344 345//345 32//32
f 31//31 351//351 346//346
f 352//352 29//29 27//27
f 353//353 31//31 347//347
f 353//353 37//37 31//31
f 21//21 31//31 37//37
f 350//350 344//344 32//32
f 348//348 351//351 33//33
f 33//33 351//351 23//23
f 31//31 23//23 351//351
f 14//14 36//36 34//34
f 36//36 35//35 34//34
f 359//359 354//354 358//358
f 341//341 360//360 357//357
f 103//103 38//38 102//102
f 102//102 42//42 41//41
f 51//51 41//41 42//42
f 42//42 102//102 43//43
f 43//43 102//102 38//38
f 40//40 38//38 39//39
f 50//50 40//40 107//107
f 40//40 39//39 107//107
f 43//43 51//51 42//42
f 43//43 44//44 1//1
f 38//38 44//44 43//43
f 38//38 46//46 44//44
f 44//44 46//46 45//45
f 45//45 333//333 44//44
f 333//333 45//45 47//47
f 38//38 40//40 46//46
f 362//362 40//40 48//48
f 48//48 361//361 362//362
f 361//361 49//49 47//47
f 50//50 48//48 40//40
f 361//361 48//48 50//50
f 50//50 49//49 361//361
f 50//50 58//58 49//49
f 50//50 107//107 363//363
f 51//51 53//53 41//41
f 51//51 43//43 1//1
f 47//47 57//57 333//333
f 49//49 57//57 47//47
f 107//107 52//52 363//363
f 53//53 55//55 41//41
f 53//53 51//51 60//60
f 56//56 55//55 53//53
f 54//54 56//56 53//53
f 54//54 53//53 60//60
f 55//55 56//56 41//41
f 57//57 49//49 58//58
f 333//333 57//57 59//59
f 107//107 62//62 52//52
f 365//365 404//404 145//145
f 60//60 8//8 54//54
f 56//56 8//8 66//66
f 54//54 8//8 56//56
f 57//57 64//64 59//59
f 58//58 64//64 57//57
f 62//62 61//61 52//52
f 365//365 145//145 121//121
f 60//60 3//3 8//8
f 51//51 3//3 60//60
f 66//66 63//63 56//56
f 364//364 363//363 52//52
f 56//56 63//63 116//116
f 10//10 59//59 64//64
f 58//58 65//65 64//64
f 363//363 364//364 65//65
f 66//66 116//116 63//63
f 66//66 67//67 116//116
f 64//64 68//68 10//10
f 65//65 68//68 64//64
f 68//68 65//65 364//364
f 366//366 61//61 72//72
f 61//61 62//62 72//72
f 67//67 66//66 368//368
f 116//116 67//67 368//368
f 8//8 12//12 11//11
f 66//66 8//8 11//11
f 121//121 69//69 365//365
f 62//62 367//367 72//72
f 121//121 74//74 69//69
f 369//369 72//72 367//367
f 66//66 11//11 368//368
f 118//118 70//70 75//75
f 76//76 71//71 68//68
f 371//371 366//366 72//72
f 369//369 73//73 72//72
f 369//369 81//81 73//73
f 370//370 119//119 375//375
f 11//11 339//339 368//368
f 73//73 376//376 72//72
f 75//75 95//95 123//123
f 70//70 86//86 79//79
f 75//75 70//70 79//79
f 79//79 95//95 75//75
f 77//77 88//88 16//16
f 77//77 16//16 76//76
f 78//78 88//88 77//77
f 91//91 88//88 78//78
f 76//76 78//78 77//77
f 80//80 380//380 372//372
f 72//72 80//80 371//371
f 371//371 80//80 372//372
f 72//72 376//376 80//80
f 375//375 119//119 98//98
f 88//88 85//85 82//82
f 90//90 79//79 86//86
f 90//90 86//86 83//83
f 89//89 83//83 84//84
f 87//87 89//89 377//377
f 377//377 89//89 84//84
f 87//87 85//85 88//88
f 89//89 378//378 83//83
f 87//87 92//92 89//89
f 88//88 91//91 87//87
f 87//87 91//91 92//92
f 378//378 89//89 382//382
f 93//93 383//383 381//381
f 93//93 381//381 374//374
f 379//379 383//383 94//94
f 94//94 383//383 93//93
f 80//80 97//97 384//384
f 79//79 90//90 386//386
f 389//389 373//373 387//387
f 97//97 99//99 384//384
f 390//390 385//385 397//397
f 388//388 385//385 390//390
f 127//127 96//96 98//98
f 395//395 425//425 391//391
f 376//376 97//97 80//80
f 99//99 97//97 376//376
f 375//375 98//98 398//398
f 98//98 96//96 398//398
f 396//396 392//392 399//399
f 133//133 141//141 103//103
f 103//103 141//141 100//100
f 150//150 102//102 101//101
f 102//102 133//133 103//103
f 100//100 39//39 103//103
f 107//107 39//39 100//100
f 145//145 404//404 100//100
f 102//102 41//41 101//101
f 103//103 39//39 38//38
f 104//104 101//101 41//41
f 104//104 41//41 105//105
f 106//106 400//400 401//401
f 403//403 112//112 156//156
f 112//112 158//158 156//156
f 452//452 407//407 153//153
f 105//105 41//41 108//108
f 105//105 108//108 109//109
f 402//402 405//405 403//403
f 403//403 405//405 112//112
f 407//407 111//111 153//153
f 406//406 168//168 450//450
f 110//110 108//108 41//41
f 41//41 56//56 110//110
f 108//108 110//110 109//109
f 115//115 168//168 406//406
f 110//110 56//56 116//116
f 109//109 110//110 408//408
f 409//409 408//408 110//110
f 407//407 410//410 114//114
f 407//407 114//114 111//111
f 168//168 115//115 113//113
f 113//113 115//115 120//120
f 179//179 131//131 119//119
f 121//121 145//145 155//155
f 114//114 115//115 111//111
f 410//410 118//118 114//114
f 115//115 114//114 118//118
f 182//182 181//181 435//435
f 155//155 119//119 413//413
f 410//410 117//117 118//118
f 70//70 117//117 410//410
f 117//117 70//70 118//118
f 118//118 120//120 115//115
f 463//463 122//122 436//436
f 75//75 123//123 118//118
f 120//120 118//118 123//123
f 411//411 415//415 414//414
f 370//370 413//413 119//119
f 414//414 415//415 437//437
f 415//415 124//124 437//437
f 393//393 124//124 415//415
f 438//438 416//416 126//126
f 128//128 438//438 126//126
f 119//119 131//131 129//129
f 119//119 129//129 125//125
f 119//119 125//125 98//98
f 130//130 424//424 417//417
f 394//394 426//426 418//418
f 422//422 419//419 427//427
f 125//125 127//127 98//98
f 424//424 130//130 428//428
f 423//423 430//430 420//420
f 421//421 431//431 432//432
f 129//129 131//131 433//433
f 434//434 439//439 429//429
f 139//139 191//191 132//132
f 204//204 191//191 139//139
f 133//133 135//135 132//132
f 134//134 194//194 136//136
f 194//194 137//137 136//136
f 139//139 132//132 135//135
f 133//133 102//102 135//135
f 135//135 102//102 139//139
f 134//134 136//136 141//141
f 141//141 136//136 137//137
f 200//200 138//138 137//137
f 138//138 200//200 201//201
f 141//141 133//133 134//134
f 138//138 141//141 137//137
f 138//138 142//142 141//141
f 201//201 142//142 138//138
f 250//250 440//440 201//201
f 440//440 250//250 145//145
f 100//100 141//141 142//142
f 150//150 204//204 139//139
f 150//150 140//140 204//204
f 144//144 140//140 150//150
f 204//204 140//140 206//206
f 206//206 140//140 207//207
f 442//442 207//207 140//140
f 465//465 443//443 208//208
f 145//145 100//100 142//142
f 147//147 143//143 150//150
f 150//150 143//143 144//144
f 444//444 441//441 148//148
f 443//443 448//448 208//208
f 208//208 448//448 149//149
f 152//152 147//147 150//150
f 151//151 147//147 152//152
f 449//449 146//146 446//446
f 446//446 146//146 149//149
f 441//441 447//447 148//148
f 446//446 149//149 448//448
f 139//139 102//102 150//150
f 152//152 150//150 101//101
f 146//146 211//211 149//149
f 250//250 217//217 145//145
f 152//152 101//101 151//151
f 216//216 466//466 223//223
f 155//155 145//145 217//217
f 218//218 155//155 217//217
f 161//161 155//155 218//218
f 104//104 151//151 101//101
f 449//449 400//400 106//106
f 449//449 106//106 146//146
f 153//153 211//211 146//146
f 223//223 466//466 450//450
f 450//450 154//154 223//223
f 403//403 156//156 445//445
f 158//158 445//445 156//156
f 153//153 146//146 452//452
f 227//227 226//226 451//451
f 157//157 227//227 451//451
f 227//227 157//157 160//160
f 454//454 163//163 473//473
f 154//154 450//450 159//159
f 453//453 157//157 451//451
f 157//157 453//453 160//160
f 164//164 161//161 225//225
f 162//162 164//164 225//225
f 159//159 450//450 168//168
f 168//168 165//165 453//453
f 160//160 453//453 166//166
f 166//166 453//453 165//165
f 167//167 455//455 456//456
f 162//162 163//163 176//176
f 454//454 457//457 163//163
f 168//168 166//166 165//165
f 162//162 176//176 164//164
f 167//167 456//456 170//170
f 168//168 169//169 166//166
f 166//166 169//169 458//458
f 171//171 458//458 169//169
f 168//168 171//171 169//169
f 171//171 173//173 170//170
f 170//170 173//173 167//167
f 163//163 457//457 175//175
f 163//163 175//175 176//176
f 459//459 175//175 457//457
f 164//164 179//179 119//119
f 161//161 164//164 119//119
f 119//119 155//155 161//161
f 113//113 180//180 168//168
f 171//171 180//180 172//172
f 168//168 180//180 171//171
f 173//173 171//171 172//172
f 459//459 174//174 175//175
f 172//172 460//460 173//173
f 174//174 176//176 175//175
f 179//179 176//176 182//182
f 164//164 176//176 179//179
f 120//120 180//180 113//113
f 172//172 462//462 463//463
f 463//463 177//177 172//172
f 178//178 181//181 182//182
f 172//172 177//177 460//460
f 461//461 178//178 174//174
f 174//174 178//178 176//176
f 181//181 178//178 461//461
f 178//178 182//182 176//176
f 412//412 463//463 462//462
f 179//179 182//182 131//131
f 122//122 463//463 412//412
f 187//187 183//183 233//233
f 464//464 235//235 183//183
f 235//235 464//464 186//186
f 185//185 184//184 233//233
f 233//233 184//184 187//187
f 186//186 190//190 192//192
f 238//238 235//235 186//186
f 186//186 192//192 238//238
f 190//190 186//186 464//464
f 464//464 191//191 190//190
f 188//188 193//193 185//185
f 189//189 193//193 188//188
f 191//191 192//192 190//190
f 187//187 184//184 132//132
f 185//185 133//133 184//184
f 193//193 133//133 185//185
f 184//184 133//133 132//132
f 193//193 189//189 194//194
f 195//195 194//194 189//189
f 241//241 196//196 195//195
f 241//241 195//195 189//189
f 191//191 464//464 132//132
f 204//204 192//192 191//191
f 197//197 194//194 195//195
f 198//198 197//197 195//195
f 195//195 196//196 198//198
f 198//198 196//196 199//199
f 193//193 194//194 134//134
f 133//133 193//193 134//134
f 194//194 197//197 137//137
f 198//198 200//200 197//197
f 200//200 198//198 202//202
f 198//198 199//199 202//202
f 192//192 204//204 244//244
f 137//137 197//197 200//200
f 244//244 204//204 203//203
f 200//200 202//202 201//201
f 203//203 204//204 205//205
f 201//201 202//202 250//250
f 202//202 199//199 250//250
f 250//250 199//199 243//243
f 205//205 204//204 206//206
f 205//205 206//206 208//208
f 465//465 208//208 206//206
f 209//209 205//205 208//208
f 203//203 205//205 209//209
f 213//213 203//203 212//212
f 149//149 211//211 208//208
f 211//211 209//209 208//208
f 209//209 466//466 216//216
f 209//209 216//216 203//203
f 203//203 216//216 467//467
f 213//213 212//212 220//220
f 468//468 471//471 251//251
f 218//218 250//250 210//210
f 214//214 467//467 216//216
f 219//219 214//214 216//216
f 212//212 469//469 215//215
f 215//215 469//469 470//470
f 215//215 220//220 212//212
f 471//471 252//252 251//251
f 252//252 471//471 224//224
f 218//218 217//217 250//250
f 225//225 218//218 210//210
f 216//216 222//222 219//219
f 220//220 215//215 470//470
f 221//221 451//451 219//219
f 223//223 451//451 221//221
f 223//223 222//222 216//216
f 222//222 223//223 219//219
f 223//223 221//221 219//219
f 470//470 472//472 220//220
f 161//161 218//218 225//225
f 451//451 226//226 219//219
f 470//470 163//163 472//472
f 219//219 226//226 227//227
f 163//163 470//470 473//473
f 225//225 224//224 162//162
f 224//224 163//163 162//162
f 231//231 228//228 183//183
f 228//228 231//231 229//229
f 229//229 231//231 232//232
f 229//229 232//232 257//257
f 228//228 256//256 233//233
f 256//256 230//230 233//233
f 230//230 256//256 279//279
f 230//230 279//279 234//234
f 228//228 233//233 183//183
f 183//183 235//235 231//231
f 231//231 235//235 232//232
f 476//476 232//232 236//236
f 233//233 230//230 185//185
f 185//185 230//230 188//188
f 188//188 230//230 234//234
f 232//232 235//235 238//238
f 236//236 232//232 238//238
f 234//234 239//239 188//188
f 234//234 237//237 239//239
f 237//237 240//240 239//239
f 237//237 265//265 474//474
f 236//236 238//238 244//244
f 240//240 241//241 239//239
f 474//474 265//265 242//242
f 236//236 244//244 245//245
f 245//245 263//263 236//236
f 239//239 241//241 188//188
f 196//196 242//242 265//265
f 189//189 188//188 241//241
f 240//240 242//242 241//241
f 192//192 244//244 238//238
f 265//265 243//243 196//196
f 270//270 243//243 265//265
f 242//242 196//196 241//241
f 243//243 199//199 196//196
f 246//246 248//248 269//269
f 243//243 270//270 249//249
f 203//203 213//213 244//244
f 245//245 244//244 468//468
f 247//247 475//475 245//245
f 247//247 248//248 246//246
f 249//249 270//270 248//248
f 245//245 468//468 251//251
f 251//251 247//247 245//245
f 250//250 243//243 249//249
f 249//249 248//248 210//210
f 248//248 247//247 252//252
f 249//249 210//210 250//250
f 247//247 251//251 252//252
f 253//253 252//252 224//224
f 210//210 253//253 225//225
f 253//253 224//224 225//225
f 248//248 253//253 210//210
f 248//248 252//252 253//253
f 254//254 273//273 256//256
f 273//273 275//275 256//256
f 279//279 256//256 278//278
f 228//228 255//255 254//254
f 229//229 255//255 228//228
f 256//256 228//228 254//254
f 254//254 255//255 276//276
f 255//255 229//229 276//276
f 276//276 229//229 257//257
f 258//258 234//234 279//279
f 476//476 236//236 283//283
f 261//261 258//258 284//284
f 285//285 283//283 263//263
f 283//283 236//236 263//263
f 258//258 237//237 234//234
f 261//261 237//237 258//258
f 285//285 263//263 259//259
f 259//259 260//260 285//285
f 284//284 262//262 261//261
f 260//260 262//262 284//284
f 265//265 237//237 261//261
f 265//265 261//261 262//262
f 263//263 264//264 259//259
f 266//266 265//265 260//260
f 264//264 266//266 260//260
f 260//260 265//265 262//262
f 260//260 259//259 264//264
f 245//245 264//264 263//263
f 264//264 245//245 267//267
f 264//264 267//267 266//266
f 265//265 266//266 270//270
f 266//266 267//267 268//268
f 266//266 268//268 270//270
f 267//267 269//269 268//268
f 268//268 269//269 270//270
f 267//267 245//245 269//269
f 269//269 248//248 270//270
f 475//475 269//269 245//245
f 287//287 271//271 274//274
f 287//287 302//302 271//271
f 272//272 271//271 302//302
f 276//276 274//274 254//254
f 271//271 273//273 254//254
f 272//272 273//273 271//271
f 271//271 254//254 274//274
f 289//289 276//276 277//277
f 272//272 275//275 273//273
f 272//272 291//291 275//275
f 256//256 275//275 278//278
f 280//280 279//279 278//278
f 278//278 275//275 291//291
f 278//278 291//291 280//280
f 280//280 281//281 279//279
f 281//281 258//258 279//279
f 291//291 281//281 280//280
f 276//276 257//257 277//277
f 277//277 476//476 292//292
f 284//284 258//258 295//295
f 258//258 281//281 295//295
f 295//295 282//282 260//260
f 285//285 260//260 282//282
f 476//476 283//283 292//292
f 285//285 292//292 283//283
f 295//295 260//260 284//284
f 286//286 298//298 287//287
f 287//287 289//289 286//286
f 297//297 286//286 289//289
f 302//302 304//304 272//272
f 272//272 296//296 291//291
f 287//287 274//274 289//289
f 289//289 274//274 276//276
f 290//290 289//289 288//288
f 288//288 292//292 290//290
f 297//297 289//289 290//290
f 478//478 281//281 291//291
f 310//310 281//281 478//478
f 281//281 310//310 294//294
f 293//293 294//294 310//310
f 288//288 289//289 277//277
f 277//277 292//292 288//288
f 282//282 293//293 285//285
f 285//285 477//477 292//292
f 282//282 294//294 293//293
f 282//282 295//295 294//294
f 294//294 295//295 281//281
f 290//290 306//306 297//297
f 298//298 302//302 287//287
f 298//298 286//286 306//306
f 296//296 272//272 304//304
f 306//306 286//286 297//297
f 299//299 315//315 303//303
f 299//299 300//300 314//314
f 303//303 315//315 305//305
f 315//315 316//316 305//305
f 316//316 296//296 304//304
f 299//299 298//298 306//306
f 303//303 298//298 299//299
f 306//306 307//307 479//479
f 300//300 299//299 306//306
f 301//301 480//480 481//481
f 480//480 301//301 313//313
f 313//313 301//301 320//320
f 302//302 303//303 305//305
f 305//305 304//304 302//302
f 303//303 302//302 298//298
f 304//304 305//305 316//316
f 290//290 307//307 306//306
f 481//481 309//309 301//301
f 481//481 290//290 308//308
f 309//309 481//481 308//308
f 309//309 308//308 477//477
f 301//301 309//309 320//320
f 320//320 309//309 477//477
f 318//318 293//293 310//310
f 290//290 292//292 308//308
f 308//308 292//292 477//477
f 322//322 323//323 311//311
f 316//316 315//315 321//321
f 315//315 299//299 312//312
f 314//314 312//312 299//299
f 323//323 315//315 311//311
f 311//311 315//315 312//312
f 311//311 312//312 322//322
f 322//322 312//312 314//314
f 314//314 482//482 486//486
f 313//313 331//331 330//330
f 316//316 317//317 296//296
f 316//316 332//332 317//317
f 331//331 313//313 320//320
f 485//485 318//318 319//319
f 483//483 318//318 317//317
f 497//497 485//485 319//319
f 483//483 317//317 332//332
f 482//482 314//314 300//300
f 318//318 478//478 317//317
f 318//318 310//310 478//478
f 485//485 293//293 318//318
f 323//323 321//321 315//315
f 323//323 324//324 321//321
f 325//325 323//323 322//322
f 325//325 488//488 323//323
f 326//326 321//321 324//324
f 489//489 487//487 330//330
f 489//489 330//330 328//328
f 488//488 325//325 491//491
f 324//324 492//492 326//326
f 326//326 316//316 321//321
f 329//329 332//332 316//316
f 332//332 329//329 327//327
f 490//490 496//496 498//498
f 490//490 498//498 499//499
f 493//493 326//326 492//492
f 326//326 329//329 316//316
f 494//494 496//496 490//490
f 328//328 330//330 495//495
f 487//487 313//313 330//330
f 499//499 498//498 484//484
