# Wavafront OBJ file of BodyParts3D
# BodyParts3D, Copyright(C) 2010-2011 The Database Center for Life Science licensed under CC Attribution-Share Alike 2.1 Japan.
vn -0.839202 0.390531 -0.37845
v -125.423 -165.878 2.83893
vn -0.845852 0.317405 -0.428706
v -124.608 -165.935 1.54549
vn -0.781548 0.325414 -0.532249
v -123.71 -165.022 0.405058
vn -0.550505 0.546676 -0.630944
v -123.565 -164.759 0.414707
vn -0.476214 0.335727 -0.812716
v -123.443 -165.824 -0.299469
vn -0.170399 0.921114 -0.35002
v -123.324 -164.549 0.485222
vn -0.783939 0.544562 -0.298148
v -123.831 -164.632 0.937306
vn -0.627401 0.742705 -0.234004
v -124.366 -165.051 1.79831
vn -0.76408 0.531465 -0.365686
v -124.561 -164.963 2.36627
vn -0.76776 0.610324 -0.19506
v -124.015 -164.882 1.21926
vn -0.540023 0.840425 -0.0453975
v -124.066 -164.864 1.5614
vn -0.48828 0.863605 0.125576
v -123.797 -164.66 1.30408
vn 0.355605 -0.57332 -0.738139
v -130.72 -186.367 -3.15828
vn -0.909414 -0.20573 -0.361443
v -132.134 -186.967 -2.69382
vn -0.976685 0.193965 -0.0919959
v -132.554 -186.433 -1.65938
vn -0.828784 0.323953 -0.456259
v -132.029 -186.341 -2.7902
vn -0.0196361 -0.925507 -0.378222
v -132.139 -187.489 -1.88611
vn -0.798611 -0.534636 -0.276378
v -132.563 -187.358 -1.10038
vn 0.106841 -0.755761 -0.646073
v -131.345 -187.046 -2.75969
vn -0.862242 -0.328405 0.385602
v -132.354 -187.246 -0.71434
vn -0.536235 -0.83052 -0.150626
v -132.141 -187.683 -0.812044
vn -0.966963 -0.0398758 0.251779
v -132.467 -186.869 -0.826052
vn -0.945381 -0.116976 0.304254
v -132.294 -186.734 0.257181
vn 0.0159549 -0.377394 -0.925915
v -130.941 -186.226 -3.30507
vn 0.00295762 0.0449551 -0.998985
v -130.612 -185.719 -3.38462
vn 0.378105 -0.286597 -0.880283
v -130.357 -185.857 -3.28866
vn 0.463728 -0.103029 -0.879967
v -129.724 -184.499 -3.10824
vn 0.564939 -0.383474 -0.73061
v -129.787 -185.831 -2.92943
vn -0.326766 -0.0295404 -0.944644
v -131.402 -185.982 -3.24814
vn -0.766058 0.532625 -0.359815
v -131.693 -184.844 -1.95012
vn -0.389781 0.494584 -0.776825
v -130.712 -184.992 -3.13922
vn 0.761748 -0.0537325 -0.645641
v -129.019 -184.205 -2.72933
vn -0.479342 0.679351 -0.55562
v -130.733 -183.66 -1.75217
vn -0.100998 0.655211 -0.748664
v -129.764 -184.145 -2.86699
vn -0.131242 0.731118 -0.669509
v -129.958 -183.06 -1.50773
vn 0.389467 0.647092 -0.655429
v -128.981 -183.892 -2.51731
vn 0.25158 0.691382 -0.677272
v -129.119 -183.242 -1.73099
vn 0.117586 0.654042 -0.747263
v -129.141 -182.665 -1.19352
vn -0.914133 0.402245 0.0505924
v -131.073 -183.56 1.14051
vn -0.176605 0.647676 -0.741165
v -128.832 -180.989 0.276309
vn -0.655776 0.615682 -0.436913
v -129.195 -180.808 0.737665
vn -0.69618 0.199611 -0.689557
v -126.393 -173.519 2.8029
vn -0.356925 -0.401159 -0.843609
v -124.561 -171.046 1.05299
vn -0.797024 0.108003 -0.594212
v -125.696 -172.514 2.2259
vn -0.298158 -0.409263 -0.862325
v -122.749 -169.238 -0.853549
vn -0.941986 0.162062 -0.293935
v -126.965 -167.854 5.62493
vn -0.965922 0.225886 0.126374
v -126.954 -167.537 6.2411
vn -0.364731 0.0241783 -0.930799
v -123.014 -167.733 -0.99081
vn 0.00864658 0.252825 -0.967473
v -122.178 -167.038 -1.09195
vn 0.0536796 -0.144466 -0.988053
v -121.567 -168.838 -1.14816
vn 0.456579 0.164491 -0.874344
v -121.061 -167.752 -1.00382
vn -0.751569 0.0533513 -0.657493
v -124.171 -167.819 -0.18782
vn -0.932036 0.326951 -0.156246
v -126.557 -166.377 5.81993
vn -0.918702 0.378249 0.113641
v -126.17 -165.24 6.42876
vn -0.842323 0.312444 0.439171
v -126.064 -165.666 7.50228
vn -0.567116 0.532907 0.628004
v -125.626 -165.228 7.80983
vn -0.230734 0.627333 -0.743784
v -122.8 -164.814 -0.027331
vn 0.0126525 0.501763 -0.864913
v -122.405 -165.112 -0.292878
vn 0.194461 0.844163 -0.499574
v -122.399 -164.791 -0.023242
vn 0.156122 0.977667 -0.140686
v -122.768 -164.558 0.765327
vn 0.474855 0.831421 -0.288535
v -121.868 -164.912 0.270787
vn 0.488569 0.592854 -0.640175
v -121.488 -165.374 -0.114793
vn 0.446968 0.805871 0.388319
v -122.002 -165.104 0.935518
vn -0.392487 0.910979 -0.126768
v -124.226 -164.883 2.17171
vn -0.251489 0.959533 0.126688
v -123.84 -164.776 1.65331
vn -0.169074 0.977846 0.123411
v -123.371 -164.513 1.13926
vn 0.0599583 0.997227 -0.0440802
v -124.039 -164.782 2.58391
vn 0.151346 0.955439 0.253438
v -123.546 -164.784 1.8018
vn 0.57525 0.800181 0.169697
v -123.756 -165.06 3.13426
vn -0.519142 0.803031 -0.292629
v -125.148 -164.366 4.33091
vn 0.523401 0.850078 0.0584655
v -124.729 -164.164 4.83535
vn -0.853511 0.514624 -0.0817342
v -125.926 -164.68 6.07448
vn -0.360144 0.921276 0.146785
v -125.508 -164.225 6.17493
vn -0.712058 0.610067 0.347552
v -125.763 -164.797 7.16193
vn -0.249602 0.829664 0.499356
v -125.38 -164.664 7.29206
vn 0.155133 0.923271 0.351432
v -124.87 -164.592 7.16663
vn 0.446055 -0.686344 -0.574427
v -130.344 -186.91 -2.36683
vn 0.186459 -0.912074 -0.365176
v -130.534 -187.576 -1.40574
vn -0.86376 0.0814084 0.497283
v -131.519 -186.4 1.80016
vn -0.747712 -0.454868 0.483758
v -131.269 -187.217 1.93221
vn -0.354778 -0.933308 -0.0553877
v -130.532 -187.934 1.37773
vn 0.368829 0.575696 -0.729753
v -128.827 -182.942 -1.31325
vn 0.570778 0.506463 -0.646303
v -128.583 -183.451 -1.52427
vn 0.494678 0.248787 -0.832706
v -127.652 -182.043 0.088681
vn -0.387793 0.587217 -0.710487
v -128.589 -180.115 0.875489
vn 0.282914 0.536198 -0.795268
v -128.408 -181.168 0.188365
vn 0.0154286 0.480407 -0.87691
v -128.317 -180.689 0.462417
vn -0.941779 0.332216 0.0518161
v -129.306 -179.465 3.44892
vn -0.368953 0.50838 -0.77809
v -127.73 -178.554 1.6193
vn -0.75317 0.504142 -0.422582
v -128.735 -178.391 2.79253
vn -0.00163051 0.21838 -0.975863
v -126.393 -177.907 1.69683
vn -0.772326 0.42045 -0.476167
v -127.328 -176.75 2.41913
vn -0.967967 0.244613 -0.0566137
v -127.752 -174.903 5.22761
vn -0.707927 -0.0751342 0.702278
v -127.155 -175.676 6.70816
vn -0.342502 0.101468 -0.934022
v -126.118 -174.337 2.5125
vn 0.0627906 -0.297329 -0.952708
v -123.321 -174.112 1.9962
vn -0.965267 0.0509129 0.256258
v -127.275 -171.125 6.93566
vn -0.278732 -0.199841 0.939347
v -125.868 -171.238 8.53654
vn 0.0472581 -0.697377 -0.715145
v -122.282 -170.54 0.362502
vn -0.739581 0.070615 0.669353
v -126.515 -169.186 8.24945
vn 0.134454 -0.588934 -0.796919
v -121.409 -169.611 -0.831581
vn 0.490383 -0.287926 -0.822571
v -121.07 -169.109 -0.931634
vn 0.332289 -0.836755 -0.43523
v -121.029 -169.826 -0.381322
vn 0.41064 -0.65518 -0.634125
v -120.616 -170.074 0.607757
vn 0.311497 0.925117 0.217088
v -120.434 -167.685 3.02057
vn -0.549537 0.252287 0.796467
v -125.154 -166.184 8.70789
vn 0.693647 0.477054 -0.539697
v -119.842 -166.812 0.364622
vn 0.569846 0.811225 0.131111
v -119.972 -166.438 0.896434
vn -0.179135 0.632062 0.753928
v -124.454 -165.539 8.78089
vn 0.0569215 -0.893201 -0.44604
v -129.058 -188.023 0.825302
vn -0.555574 -0.736833 0.385246
v -129.695 -188.186 2.9318
vn -0.37645 -0.918968 0.117404
v -128.994 -188.606 2.69612
vn -0.657658 -0.368531 0.657017
v -129.711 -187.414 3.63155
vn 0.619599 -0.396114 -0.677636
v -127.558 -186.414 -0.194382
vn 0.767521 -0.0767211 -0.636416
v -127.617 -186.038 -0.348455
vn 0.378617 -0.738503 -0.557909
v -128.278 -187.399 0.132958
vn 0.579627 -0.12754 -0.804839
v -127.216 -186.262 0.060799
vn 0.27874 -0.633933 -0.72141
v -127.709 -187.719 0.727043
vn 0.438977 -0.414277 -0.797291
v -127.146 -186.645 0.235492
vn -0.712243 -0.0504471 0.700118
v -129.683 -186.415 3.83656
vn -0.524846 -0.219893 0.822304
v -128.92 -187.171 4.44896
vn 0.705579 0.178539 -0.685771
v -127.097 -183.614 0.31992
vn -0.398692 -0.0765209 0.913887
v -127.918 -183.655 5.30458
vn 0.439095 0.00932613 -0.898392
v -123.11 -178.33 2.94597
vn -0.100746 -0.245506 0.964146
v -125.36 -176.909 7.13014
vn 0.345692 -0.227169 -0.910435
v -121.738 -175.665 3.09359
vn 0.244619 -0.370594 0.896003
v -123.371 -171.883 8.35674
vn 0.420215 -0.500766 -0.756738
v -119.553 -171.711 2.45636
vn 0.446971 -0.431415 -0.783644
v -118.766 -169.031 1.0646
vn -0.28382 0.0307176 0.958385
v -123.343 -167.514 9.64044
vn 0.605324 0.0250656 -0.795584
v -118.486 -168.501 1.08346
vn 0.479736 0.406808 -0.777406
v -116.935 -168.054 2.11435
vn 0.383193 0.9178 0.103955
v -119.094 -167.272 1.87733
vn 0.188429 0.90736 0.375755
v -119.267 -167.289 2.13757
vn 0.498236 0.777797 -0.383135
v -118.648 -167.611 1.49521
vn 0.0360299 0.982152 0.184606
v -118.754 -167.442 2.43068
vn 0.203781 0.974537 -0.0935426
v -118.579 -167.422 2.17056
vn 0.195748 0.86928 -0.453911
v -117.81 -167.533 2.23861
vn -0.0133066 0.991818 -0.126967
v -118.103 -167.391 2.74436
vn 0.354717 0.86701 0.349956
v -121.573 -166.408 9.34851
vn -0.134406 -0.0107203 0.990868
v -121.983 -166.885 9.89224
vn -0.00895326 -0.843016 -0.537813
v -126.893 -188.997 2.12525
vn 0.403186 -0.894956 -0.191034
v -126.239 -189.237 2.73917
vn -0.306643 -0.660625 0.685233
v -128.213 -188.229 4.26647
vn -0.34781 -0.871368 0.346043
v -127.337 -189.154 3.31231
vn -0.179427 -0.972575 0.148
v -126.961 -189.314 3.19585
vn -0.0459928 -0.820644 0.569585
v -127.055 -189.182 3.46025
vn -0.0373164 -0.958851 -0.281446
v -126.626 -189.303 2.67479
vn 0.259303 -0.574171 0.776589
v -126.739 -188.994 3.57351
vn 0.287809 -0.889771 0.354223
v -126.506 -189.328 3.08348
vn 0.240698 -0.621139 -0.745822
v -126.312 -188.488 1.64861
vn 0.29762 -0.80659 -0.51072
v -126.13 -188.94 2.2063
vn 0.498041 -0.3846 -0.777199
v -125.002 -187.486 1.68472
vn 0.496241 -0.619927 -0.607811
v -125.365 -188.42 2.06603
vn 0.632012 -0.724849 0.274144
v -125.371 -188.681 2.8113
vn 0.604908 -0.737686 -0.299843
v -125.166 -188.438 2.35476
vn 0.812387 -0.575071 0.0965505
v -124.918 -188.236 2.58858
vn 0.683071 -0.383924 0.621302
v -125.028 -188.186 2.86463
vn 0.79862 -0.46298 -0.384519
v -124.636 -187.694 2.16368
vn 0.883768 -0.321604 0.33989
v -124.651 -187.699 2.59427
vn 0.480657 -0.525531 0.701987
v -126.298 -188.885 3.42506
vn 0.0414682 -0.277911 0.959711
v -127.375 -186.322 5.22017
vn 0.449972 -0.339172 0.826128
v -126.751 -186.307 4.98487
vn 0.866942 0.155769 -0.473442
v -124.534 -184.689 2.14149
vn 0.678891 0.101156 -0.727237
v -124.471 -185.731 1.75195
vn 0.660788 -0.18924 -0.726324
v -124.583 -186.69 1.71506
vn 0.970042 -0.0762013 -0.230678
v -124.135 -186.262 2.16687
vn 0.887537 -0.161625 0.431458
v -124.194 -186.239 2.47467
vn 0.786553 -0.0504474 -0.615459
v -124.768 -182.867 2.23905
vn 0.977995 -0.208617 -0.00235085
v -124.132 -182.566 3.68814
vn 0.999783 -0.0193967 0.00755626
v -124.366 -184.129 3.25793
vn 0.479471 -0.240773 0.843881
v -125.869 -183.722 5.15268
vn 0.915914 -0.341836 -0.210357
v -123.218 -179.998 3.87637
vn 0.880946 -0.334501 0.334727
v -122.566 -177.98 4.40754
vn 0.737029 -0.330218 0.589699
v -123.723 -178.096 6.25704
vn 0.891144 -0.453685 -0.00565288
v -121.792 -176.333 3.71601
vn 0.831504 -0.41527 0.368988
v -122.055 -176.55 4.32196
vn 0.796022 -0.36337 0.484058
v -122.489 -175.685 5.95669
vn 0.620481 -0.35292 0.700321
v -122.806 -175.197 6.71054
vn 0.623381 -0.49278 -0.607094
v -120.486 -174.304 3.53483
vn 0.710712 -0.618062 0.335988
v -120.593 -174.274 4.51088
vn 0.629292 -0.497368 0.597174
v -121.628 -173.44 6.53834
vn 0.445072 -0.438184 0.780965
v -122.422 -173.042 7.41795
vn 0.506436 -0.684904 -0.52386
v -118.537 -171.931 3.13463
vn 0.605062 -0.791666 0.0846516
v -118 -171.916 4.55941
vn 0.488497 -0.705189 0.513886
v -119.551 -172.48 5.63338
vn 0.347599 -0.580211 0.736566
v -121.179 -171.339 7.97703
vn 0.17742 -0.499683 0.847844
v -122.019 -170.573 8.74607
vn 0.443221 -0.492854 -0.748766
v -117.131 -169.928 2.03158
vn 0.686145 -0.663605 -0.298049
v -116.53 -170.975 3.69856
vn 0.381865 -0.606811 0.697108
v -118.581 -170.011 8.27334
vn 0.019554 -0.272795 0.961873
v -121.555 -168.467 9.69545
vn 0.157529 -0.408008 0.899285
v -120.494 -169.023 9.39005
vn 0.503303 -0.100256 -0.858275
v -117.063 -169.28 1.86837
vn 0.673165 0.0504241 -0.737772
v -116.617 -168.846 2.15951
vn 0.742144 0.275159 -0.611155
v -116.403 -167.952 2.59991
vn 0.69251 -0.303398 -0.654507
v -116.442 -169.627 2.44329
vn 0.864375 -0.129998 -0.485753
v -115.877 -169.266 3.10104
vn 0.511515 0.513233 -0.689162
v -116.605 -167.375 2.80336
vn 0.073258 0.979828 -0.185929
v -116.505 -167.128 3.48031
vn 0.386278 0.857238 -0.340488
v -116.153 -167.334 3.36259
vn -0.129336 0.986811 0.0973416
v -116.81 -167.172 6.76791
vn 0.0953479 0.992056 0.0820533
v -118.982 -167.585 8.86677
vn 0.364189 0.772408 0.520339
v -118.899 -167.678 9.27356
vn 0.273229 -0.340518 0.899663
v -118.372 -168.111 9.29693
vn 0.0199598 0.972701 0.2312
v -117.845 -167.742 8.7871
vn 0.0989235 -0.135114 0.98588
v -120.602 -167.279 9.84062
vn 0.147673 -0.217655 0.96479
v -120.055 -167.905 9.66842
vn 0.582999 0.770841 -0.256742
v -115.469 -167.048 5.00811
vn 0.138503 0.989443 -0.0426539
v -115.585 -166.956 5.27135
vn 0.633456 -0.722357 0.27737
v -116.413 -170.745 5.41733
vn 0.921922 -0.380989 -0.0700559
v -115.321 -169.263 4.58131
vn 0.970743 -0.0820512 0.225669
v -115.005 -168.101 5.8342
vn 0.745795 -0.52975 0.403925
v -115.789 -169.406 6.43887
vn 0.624876 -0.494878 0.603843
v -116.025 -168.63 7.5079
vn 0.831147 -0.219092 0.51107
v -115.735 -168.438 7.26419
vn 0.651312 -0.327911 0.684301
v -116.233 -168.193 7.98571
vn 0.929734 0.214781 -0.299104
v -115.044 -167.724 5.03874
vn 0.0804317 0.989275 0.121922
v -116.016 -167.028 7.13087
vn 0.732935 0.675548 0.0802515
v -115.236 -167.109 5.82516
vn 0.886314 0.0992071 0.452334
v -115.643 -167.197 7.01418
vn -0.255751 0.966612 0.0158967
v -123.831 -164.632 0.937306
vn -0.280721 0.930462 -0.235447
v -124.561 -164.963 2.36627
vn -0.297799 -0.451942 -0.840871
v -132.134 -186.967 -2.69382
vn -0.579262 -0.0275976 -0.814674
v -132.029 -186.341 -2.7902
vn -0.678495 -0.6905 -0.250706
v -132.139 -187.489 -1.88611
vn -0.895664 -0.165046 0.412972
v -132.563 -187.358 -1.10038
vn -0.732849 -0.568791 0.373376
v -132.141 -187.683 -0.812044
vn -0.0290347 -0.98944 -0.142003
v -132.141 -187.683 -0.812044
vn -0.0565514 0.478156 -0.876453
v -129.724 -184.499 -3.10824
vn -0.657147 0.487527 -0.57487
v -131.402 -185.982 -3.24814
vn 0.194685 0.54991 -0.812217
v -129.019 -184.205 -2.72933
vn -0.354621 -0.261144 -0.897801
v -125.696 -172.514 2.2259
vn 0.451145 0.77301 0.446009
v -122.768 -164.558 0.765327
vn 0.51 0.79374 0.331477
v -121.868 -164.912 0.270787
vn 0.404994 0.768258 0.495742
v -123.371 -164.513 1.13926
vn -0.202435 0.95582 -0.213141
v -124.729 -164.164 4.83535
vn -0.285635 0.330613 -0.899504
v -127.328 -176.75 2.41913
vn 0.579498 -0.415015 -0.701388
v -121.029 -169.826 -0.381322
vn 0.82659 -0.313892 -0.46714
v -123.11 -178.33 2.94597
vn 0.771137 -0.427154 -0.47211
v -121.738 -175.665 3.09359
vn 0.146981 0.686044 0.712559
v -121.983 -166.885 9.89224
vn 0.721749 -0.280155 0.632923
v -124.366 -184.129 3.25793
vn 0.760135 -0.649438 -0.0206138
v -120.486 -174.304 3.53483
vn 0.128211 0.934529 -0.33199
v -116.605 -167.375 2.80336
vn 0.771244 0.397658 -0.497042
v -116.153 -167.334 3.36259
vn 0.42045 0.464388 0.779465
v -118.372 -168.111 9.29693
vn 0.459863 0.447872 0.76677
v -117.845 -167.742 8.7871
vn 0.32121 0.634489 0.703027
v -120.602 -167.279 9.84062
vn 0.480837 0.434007 0.761862
v -116.233 -168.193 7.98571
vn 0.473206 0.462287 0.749911
v -116.016 -167.028 7.13087
vn 0.458398 0.861035 0.220206
v -115.643 -167.197 7.01418
vn 0.450908 0.472039 0.757536
v -115.643 -167.197 7.01418
f 52//52 3//3 5//5
f 3//3 52//52 2//2
f 2//2 1//1 10//10
f 3//3 7//7 4//4
f 3//3 2//2 7//7
f 6//6 4//4 7//7
f 3//3 4//4 5//5
f 57//57 5//5 4//4
f 6//6 57//57 4//4
f 6//6 222//222 66//66
f 2//2 10//10 7//7
f 10//10 1//1 8//8
f 1//1 9//9 8//8
f 10//10 8//8 11//11
f 8//8 64//64 11//11
f 223//223 64//64 8//8
f 7//7 10//10 12//12
f 65//65 66//66 12//12
f 65//65 12//12 11//11
f 11//11 12//12 10//10
f 65//65 11//11 64//64
f 222//222 12//12 66//66
f 9//9 1//1 70//70
f 19//19 24//24 13//13
f 24//24 26//26 13//13
f 14//14 15//15 16//16
f 29//29 224//224 225//225
f 15//15 30//30 16//16
f 17//17 224//224 19//19
f 18//18 14//14 226//226
f 14//14 18//18 15//15
f 227//227 22//22 15//15
f 19//19 224//224 24//24
f 24//24 224//224 29//29
f 15//15 22//22 23//23
f 20//20 22//22 227//227
f 23//23 22//22 20//20
f 226//226 21//21 18//18
f 20//20 227//227 228//228
f 78//78 229//229 17//17
f 19//19 78//78 17//17
f 78//78 19//19 77//77
f 13//13 77//77 19//19
f 23//23 39//39 15//15
f 30//30 15//15 39//39
f 228//228 23//23 20//20
f 39//39 23//23 79//79
f 25//25 24//24 29//29
f 31//31 25//25 29//29
f 26//26 24//24 25//25
f 26//26 25//25 27//27
f 230//230 25//25 31//31
f 34//34 230//230 31//31
f 28//28 13//13 26//26
f 28//28 26//26 27//27
f 32//32 28//28 27//27
f 77//77 13//13 28//28
f 77//77 28//28 114//114
f 32//32 114//114 28//28
f 114//114 32//32 115//115
f 16//16 30//30 231//231
f 30//30 31//31 231//231
f 39//39 41//41 30//30
f 33//33 31//31 30//30
f 30//30 41//41 33//33
f 33//33 34//34 31//31
f 232//232 230//230 34//34
f 36//36 232//232 34//34
f 32//32 122//122 115//115
f 122//122 32//32 36//36
f 35//35 34//34 33//33
f 40//40 38//38 35//35
f 33//33 40//40 35//35
f 33//33 41//41 40//40
f 36//36 34//34 35//35
f 36//36 35//35 37//37
f 37//37 35//35 38//38
f 83//83 122//122 36//36
f 83//83 36//36 37//37
f 83//83 37//37 82//82
f 82//82 37//37 38//38
f 41//41 39//39 90//90
f 38//38 40//40 86//86
f 82//82 38//38 86//86
f 87//87 40//40 85//85
f 85//85 40//40 41//41
f 85//85 41//41 90//90
f 93//93 46//46 42//42
f 95//95 42//42 44//44
f 46//46 93//93 97//97
f 233//233 52//52 43//43
f 96//96 233//233 43//43
f 44//44 46//46 52//52
f 96//96 95//95 233//233
f 44//44 42//42 46//46
f 46//46 97//97 47//47
f 43//43 52//52 45//45
f 43//43 45//45 99//99
f 99//99 45//45 101//101
f 1//1 52//52 46//46
f 46//46 53//53 1//1
f 53//53 46//46 47//47
f 45//45 52//52 48//48
f 48//48 5//5 49//49
f 50//50 45//45 48//48
f 50//50 48//48 49//49
f 50//50 49//49 51//51
f 51//51 49//49 62//62
f 101//101 45//45 50//50
f 101//101 50//50 102//102
f 131//131 51//51 107//107
f 48//48 52//52 5//5
f 2//2 52//52 1//1
f 1//1 72//72 70//70
f 72//72 1//1 53//53
f 53//53 54//54 72//72
f 47//47 54//54 53//53
f 54//54 47//47 55//55
f 72//72 54//54 74//74
f 55//55 56//56 74//74
f 54//54 55//55 74//74
f 75//75 74//74 56//56
f 106//106 56//56 55//55
f 49//49 58//58 62//62
f 62//62 107//107 51//51
f 58//58 5//5 57//57
f 58//58 57//57 59//59
f 6//6 59//59 57//57
f 59//59 6//6 60//60
f 6//6 66//66 60//60
f 5//5 58//58 49//49
f 61//61 59//59 60//60
f 63//63 235//235 234//234
f 63//63 234//234 236//236
f 62//62 58//58 59//59
f 61//61 62//62 59//59
f 62//62 61//61 108//108
f 108//108 235//235 63//63
f 107//107 62//62 108//108
f 65//65 67//67 68//68
f 65//65 64//64 67//67
f 64//64 223//223 67//67
f 66//66 65//65 68//68
f 67//67 63//63 68//68
f 236//236 68//68 63//63
f 63//63 67//67 69//69
f 69//69 67//67 71//71
f 63//63 69//69 105//105
f 67//67 223//223 70//70
f 67//67 70//70 237//237
f 71//71 140//140 105//105
f 105//105 69//69 71//71
f 73//73 70//70 72//72
f 72//72 74//74 73//73
f 71//71 73//73 76//76
f 237//237 70//70 73//73
f 75//75 73//73 74//74
f 75//75 76//76 73//73
f 71//71 76//76 140//140
f 109//109 76//76 75//75
f 78//78 77//77 116//116
f 78//78 110//110 229//229
f 78//78 116//116 110//110
f 80//80 23//23 228//228
f 79//79 23//23 80//80
f 228//228 81//81 80//80
f 120//120 79//79 80//80
f 114//114 116//116 77//77
f 122//122 83//83 84//84
f 82//82 86//86 83//83
f 83//83 86//86 84//84
f 86//86 40//40 87//87
f 85//85 90//90 89//89
f 87//87 85//85 89//89
f 86//86 87//87 84//84
f 88//88 39//39 79//79
f 90//90 39//39 88//88
f 92//92 89//89 90//90
f 87//87 89//89 91//91
f 84//84 87//87 91//91
f 90//90 93//93 92//92
f 90//90 88//88 93//93
f 89//89 238//238 91//91
f 92//92 93//93 42//42
f 238//238 42//42 91//91
f 79//79 93//93 88//88
f 79//79 94//94 93//93
f 96//96 91//91 95//95
f 95//95 91//91 42//42
f 94//94 97//97 93//93
f 97//97 94//94 100//100
f 100//100 94//94 98//98
f 97//97 100//100 47//47
f 98//98 130//130 100//100
f 98//98 192//192 130//130
f 101//101 103//103 99//99
f 103//103 104//104 99//99
f 43//43 99//99 96//96
f 104//104 96//96 99//99
f 100//100 55//55 47//47
f 100//100 106//106 55//55
f 51//51 102//102 50//50
f 239//239 101//101 102//102
f 239//239 102//102 131//131
f 131//131 102//102 51//51
f 129//129 239//239 131//131
f 104//104 103//103 129//129
f 109//109 75//75 56//56
f 109//109 56//56 106//106
f 130//130 106//106 100//100
f 130//130 109//109 106//106
f 135//135 107//107 108//108
f 135//135 131//131 107//107
f 108//108 63//63 105//105
f 135//135 108//108 133//133
f 133//133 108//108 134//134
f 140//140 76//76 109//109
f 110//110 81//81 229//229
f 81//81 111//111 80//80
f 112//112 111//111 81//81
f 80//80 111//111 113//113
f 144//144 111//111 112//112
f 111//111 144//144 113//113
f 120//120 80//80 113//113
f 118//118 116//116 114//114
f 119//119 118//118 114//114
f 119//119 114//114 117//117
f 117//117 114//114 115//115
f 117//117 115//115 122//122
f 118//118 110//110 116//116
f 117//117 153//153 119//119
f 123//123 79//79 120//120
f 123//123 120//120 121//121
f 121//121 120//120 113//113
f 144//144 121//121 113//113
f 169//169 84//84 124//124
f 122//122 84//84 169//169
f 169//169 164//164 122//122
f 172//172 125//125 123//123
f 169//169 240//240 173//173
f 94//94 79//79 123//123
f 94//94 123//123 125//125
f 124//124 84//84 91//91
f 124//124 91//91 126//126
f 173//173 240//240 241//241
f 91//91 96//96 126//126
f 173//173 241//241 176//176
f 125//125 127//127 98//98
f 94//94 125//125 98//98
f 126//126 96//96 128//128
f 241//241 128//128 180//180
f 192//192 98//98 127//127
f 127//127 187//187 188//188
f 127//127 188//188 192//192
f 104//104 129//129 128//128
f 128//128 96//96 104//104
f 194//194 129//129 131//131
f 189//189 128//128 129//129
f 194//194 189//189 129//129
f 105//105 140//140 203//203
f 141//141 130//130 192//192
f 130//130 141//141 109//109
f 131//131 132//132 194//194
f 135//135 132//132 131//131
f 195//195 194//194 132//132
f 134//134 108//108 105//105
f 133//133 136//136 137//137
f 133//133 134//134 136//136
f 136//136 134//134 105//105
f 135//135 133//133 137//137
f 135//135 137//137 139//139
f 137//137 136//136 139//139
f 136//136 105//105 139//139
f 138//138 135//135 139//139
f 132//132 135//135 138//138
f 132//132 138//138 199//199
f 245//245 138//138 139//139
f 245//245 139//139 200//200
f 139//139 105//105 203//203
f 242//242 140//140 109//109
f 207//207 141//141 192//192
f 249//249 140//140 242//242
f 142//142 81//81 110//110
f 110//110 151//151 142//142
f 81//81 142//142 148//148
f 142//142 151//151 152//152
f 142//142 152//152 148//148
f 148//148 152//152 143//143
f 148//148 112//112 81//81
f 146//146 145//145 112//112
f 112//112 145//145 144//144
f 148//148 146//146 112//112
f 145//145 147//147 144//144
f 146//146 147//147 145//145
f 149//149 144//144 147//147
f 162//162 144//144 149//149
f 146//146 148//148 150//150
f 147//147 146//146 150//150
f 147//147 150//150 149//149
f 148//148 143//143 150//150
f 161//161 149//149 150//150
f 155//155 150//150 143//143
f 150//150 155//155 161//161
f 151//151 110//110 118//118
f 118//118 119//119 151//151
f 153//153 151//151 119//119
f 151//151 154//154 152//152
f 154//154 151//151 153//153
f 152//152 156//156 143//143
f 154//154 156//156 152//152
f 156//156 154//154 159//159
f 159//159 154//154 153//153
f 159//159 153//153 166//166
f 159//159 166//166 167//167
f 155//155 143//143 156//156
f 156//156 157//157 155//155
f 155//155 157//157 158//158
f 156//156 159//159 157//157
f 160//160 157//157 159//159
f 157//157 160//160 158//158
f 158//158 160//160 172//172
f 167//167 160//160 159//159
f 163//163 161//161 158//158
f 161//161 163//163 149//149
f 172//172 163//163 158//158
f 155//155 158//158 161//161
f 162//162 121//121 144//144
f 162//162 123//123 121//121
f 162//162 163//163 172//172
f 162//162 149//149 163//163
f 117//117 166//166 153//153
f 165//165 117//117 122//122
f 117//117 165//165 166//166
f 122//122 164//164 165//165
f 167//167 165//165 164//164
f 171//171 167//167 164//164
f 167//167 166//166 165//165
f 171//171 168//168 167//167
f 243//243 172//172 168//168
f 160//160 167//167 168//168
f 160//160 168//168 172//172
f 162//162 172//172 123//123
f 164//164 169//169 170//170
f 171//171 164//164 170//170
f 170//170 175//175 171//171
f 243//243 175//175 172//172
f 127//127 125//125 172//172
f 127//127 172//172 175//175
f 169//169 173//173 170//170
f 170//170 173//173 174//174
f 174//174 175//175 170//170
f 176//176 177//177 174//174
f 173//173 176//176 174//174
f 175//175 179//179 127//127
f 177//177 176//176 181//181
f 175//175 174//174 178//178
f 175//175 178//178 179//179
f 174//174 177//177 178//178
f 177//177 182//182 178//178
f 178//178 182//182 179//179
f 177//177 181//181 182//182
f 241//241 180//180 176//176
f 181//181 176//176 244//244
f 127//127 179//179 183//183
f 182//182 183//183 179//179
f 183//183 187//187 127//127
f 184//184 180//180 128//128
f 128//128 189//189 184//184
f 244//244 185//185 181//181
f 184//184 190//190 185//185
f 184//184 185//185 244//244
f 183//183 182//182 187//187
f 181//181 186//186 182//182
f 185//185 186//186 181//181
f 187//187 182//182 186//186
f 188//188 187//187 191//191
f 189//189 194//194 197//197
f 189//189 197//197 190//190
f 189//189 190//190 184//184
f 190//190 211//211 185//185
f 190//190 212//212 211//211
f 191//191 187//187 186//186
f 191//191 205//205 193//193
f 193//193 192//192 188//188
f 208//208 207//207 192//192
f 208//208 192//192 193//193
f 188//188 191//191 193//193
f 197//197 194//194 195//195
f 195//195 132//132 196//196
f 199//199 196//196 132//132
f 197//197 195//195 198//198
f 198//198 195//195 196//196
f 190//190 197//197 198//198
f 201//201 245//245 200//200
f 200//200 139//139 203//203
f 246//246 196//196 199//199
f 200//200 203//203 202//202
f 218//218 198//198 196//196
f 218//218 196//196 246//246
f 198//198 212//212 190//190
f 198//198 218//218 212//212
f 203//203 206//206 202//202
f 205//205 208//208 193//193
f 247//247 248//248 204//204
f 204//204 206//206 203//203
f 140//140 249//249 204//204
f 204//204 203//203 140//140
f 208//208 205//205 207//207
f 247//247 204//204 249//249
f 209//209 200//200 210//210
f 209//209 201//201 200//200
f 200//200 202//202 210//210
f 209//209 218//218 246//246
f 220//220 218//218 209//209
f 209//209 210//210 220//220
f 210//210 219//219 220//220
f 210//210 202//202 219//219
f 202//202 206//206 219//219
f 185//185 211//211 186//186
f 211//211 191//191 186//186
f 211//211 214//214 191//191
f 212//212 218//218 213//213
f 212//212 214//214 211//211
f 213//213 214//214 212//212
f 214//214 213//213 216//216
f 191//191 214//214 215//215
f 214//214 216//216 215//215
f 215//215 216//216 217//217
f 215//215 217//217 191//191
f 221//221 216//216 213//213
f 217//217 216//216 221//221
f 248//248 247//247 250//250
f 191//191 217//217 205//205
f 220//220 213//213 218//218
f 220//220 219//219 252//252
f 251//251 250//250 253//253
f 251//251 248//248 250//250
f 213//213 220//220 221//221
