# Wavafront OBJ file of BodyParts3D
# BodyParts3D, Copyright(C) 2010-2011 The Database Center for Life Science licensed under CC Attribution-Share Alike 2.1 Japan.
vn -0.994663 -0.039139 0.0954685
v 97.5714 -122 21.4392
vn -0.749533 0.175043 -0.638404
v 97.6566 -121.582 21.2122
vn -0.889631 0.15838 0.428336
v 97.7709 -120.408 22.403
vn -0.732128 0.395881 -0.554317
v 97.8019 -120.047 22.1167
vn -0.659349 -0.185864 0.7285
v 97.8533 -120.604 22.5386
vn -0.728762 0.309963 0.610597
v 97.8955 -120.444 22.5701
vn -0.899667 -0.106309 -0.423436
v 97.9969 -123.974 20.7146
vn -0.990807 -0.132754 -0.0260475
v 97.9015 -123.491 20.8945
vn -0.708606 -0.312929 0.632418
v 97.9763 -123.368 21.3466
vn -0.961213 -0.0675556 -0.267406
v 97.8759 -123.098 20.9147
vn -0.775198 0.0569564 -0.629146
v 97.9748 -122.887 20.7671
vn -0.869074 -0.0025921 -0.494675
v 97.9418 -123.401 20.7453
vn -0.631967 -0.392594 0.668197
v 99.1334 -122.021 23.5317
vn -0.661631 0.365322 -0.654816
v 98.2783 -120.348 21.2729
vn 0.228108 0.929479 -0.289889
v 98.312 -120.276 21.4679
vn 0.130273 0.880307 -0.456167
v 98.4202 -120.382 21.2152
vn -0.531673 0.275287 -0.800963
v 98.5255 -120.556 20.9882
vn -0.619491 -0.282322 0.732479
v 98.1855 -121.135 22.5244
vn -0.353616 -0.199294 0.913913
v 98.3389 -121.022 22.6354
vn 0.689192 0.625396 0.365914
v 98.5198 -121.02 22.4722
vn 0.77401 0.624756 0.102906
v 98.7613 -121.237 22.2945
vn -0.786765 -0.279188 0.550504
v 98.6378 -121.409 23.1983
vn 0.670597 0.732323 0.118335
v 98.6612 -121.27 23.0623
vn -0.845978 -0.0518752 -0.530689
v 98.7518 -126.773 20.0375
vn -0.983264 -0.173824 -0.0545618
v 98.6812 -127.166 20.3663
vn -0.724056 -0.273027 0.633402
v 99.1837 -126.449 21.1172
vn -0.51592 0.0939363 -0.851471
v 98.565 -124.406 20.044
vn -0.693929 -0.33639 0.636635
v 98.9749 -124.556 21.6722
vn -0.79151 -0.31231 0.525332
v 99.8069 -124.344 23.129
vn -0.616152 -0.402846 0.67681
v 99.1658 -123.094 22.9316
vn -0.711986 -0.321925 0.624052
v 99.7355 -123.399 23.1783
vn -0.827795 0.0225456 0.560578
v 99.8268 -123.58 23.3139
vn -0.524959 -0.387852 0.75762
v 100.04 -123.327 23.4178
vn -0.496311 -0.431066 0.753563
v 99.2842 -122.06 23.6009
vn 0.175546 0.64684 0.742147
v 99.32 -121.86 23.4302
vn -0.374921 0.186227 -0.908159
v 99.4186 -121.071 20.353
vn 0.751857 0.53445 0.386101
v 99.582 -121.114 20.4361
vn -0.982276 -0.16826 0.0825994
v 98.8727 -128.345 19.8459
vn -0.661577 0.086201 -0.744906
v 99.0929 -128.395 19.6529
vn -0.821566 -0.0327173 -0.569174
v 99.2764 -127.573 19.4021
vn -0.706248 -0.330899 0.625875
v 99.5343 -125.483 21.8905
vn -0.634372 -0.397286 0.663126
v 99.6957 -126.13 21.6983
vn -0.553881 -0.453345 0.698351
v 100.254 -125.832 22.2751
vn -0.859534 -0.315369 0.402174
v 100.464 -126.184 22.2439
vn -0.955647 -0.238992 0.172111
v 100.496 -126.06 23.0001
vn -0.852502 -0.255087 0.456257
v 99.6578 -125.137 22.3496
vn -0.982228 -0.0598931 0.177878
v 100.051 -124.417 23.56
vn -0.90573 -0.331231 0.264461
v 100.054 -124.514 23.4047
vn -0.98506 -0.120344 0.12318
v 100.086 -124.435 23.8578
vn -0.923124 -0.347505 0.164567
v 100.292 -124.949 23.8192
vn -0.628382 -0.484396 0.608685
v 100.804 -124.939 24.3777
vn 0.86989 0.448981 0.204225
v 100.58 -123.896 22.343
vn -0.895629 -0.179188 0.407111
v 99.993 -124.244 23.4217
vn -0.667756 0.110986 0.736059
v 100.047 -124.107 23.5748
vn 0.858021 0.5068 0.0833943
v 100.198 -123.364 23.298
vn -0.367559 0.306596 0.878009
v 100.223 -123.89 23.5726
vn 0.348428 0.4356 0.82997
v 100.375 -123.878 23.5025
vn 0.839038 0.478645 0.258678
v 100.4 -123.723 23.2669
vn 0.853324 0.467863 0.230092
v 100.51 -124.068 23.5441
vn -0.959159 0.0554317 0.277382
v 100.102 -124.28 23.7133
vn -0.501288 0.504681 0.702857
v 100.218 -124.154 23.7111
vn -0.401721 0.445859 0.799893
v 100.419 -124.368 23.988
vn -0.118001 0.16357 -0.979449
v 100.459 -122.387 20.0136
vn -0.941771 -0.223457 0.251266
v 99.2956 -130.619 19.4085
vn -0.482504 0.221376 -0.847456
v 99.4131 -130.62 18.9545
vn -0.624084 0.15367 -0.766097
v 99.6586 -130.832 18.8094
vn -0.515269 -0.344132 0.784902
v 100.09 -128.525 20.8632
vn -0.770801 -0.213074 0.600387
v 100.274 -128.883 20.9264
vn -0.636206 -0.299535 0.711
v 100.333 -127.825 21.273
vn -0.905783 -0.16727 0.389331
v 100.463 -127.557 21.5774
vn -0.652579 -0.36547 0.663756
v 100.674 -127.775 21.9275
vn -0.562002 -0.555284 0.613036
v 101.161 -126.298 23.3937
vn 0.576383 -0.234016 0.782956
v 101.28 -126.268 23.3868
vn 0.944797 0.224095 0.239041
v 101.141 -125.811 23.5685
vn 0.201711 -0.537448 0.818818
v 101.119 -125.925 23.6485
vn 0.0331507 0.215698 -0.975897
v 101.144 -125.651 19.3431
vn 0.568269 0.363362 -0.738267
v 101.704 -124.718 19.6662
vn 0.882576 0.233806 0.407915
v 101.802 -125.237 20.6887
vn 0.919104 0.300439 0.254921
v 100.982 -124.922 22.2665
vn 0.864817 0.426455 0.265005
v 101.428 -123.572 19.8899
vn 0.70532 0.158933 -0.690842
v 101.498 -124.049 19.712
vn 0.723216 0.622098 -0.299922
v 101.506 -123.742 19.7259
vn 0.836559 0.160683 -0.523784
v 101.587 -124.038 19.8569
vn 0.906253 0.34268 0.247539
v 101.688 -124.422 20.2833
vn -0.882441 -0.24172 0.403571
v 99.8909 -136.87 16.9661
vn -0.566754 -0.336358 0.752099
v 100.601 -132.333 19.722
vn 0.128729 0.286415 -0.949418
v 101.478 -130.638 17.7216
vn 0.946457 0.313477 0.0771407
v 102.285 -128.627 21.399
vn -0.504578 -0.426807 0.750491
v 102.061 -128.602 22.4403
vn 0.948625 0.311546 0.0552289
v 102.237 -128.642 22.3049
vn -0.513957 -0.45614 0.726487
v 101.687 -127.691 22.6893
vn 0.938297 0.342717 0.0463005
v 101.795 -127.459 22.6926
vn -0.511576 -0.425742 0.746347
v 101.695 -128.2 22.4355
vn 0.922457 0.385612 0.0194171
v 102.385 -125.818 19.7173
vn 0.7944 0.360118 -0.489125
v 102.056 -125.123 19.9235
vn -0.595978 0.140338 -0.790643
v 100.043 -136.75 16.8399
vn -0.9571 -0.134727 -0.256532
v 100.099 -137.381 16.777
vn -0.613583 0.107789 -0.782239
v 100.421 -136.99 16.502
vn -0.9571 -0.134727 -0.256532
v 100.04 -137.53 17.0752
vn -0.930802 -0.135516 0.339474
v 101.229 -134.633 18.9337
vn -0.726892 -0.250492 0.639438
v 101.361 -134.829 19.2164
vn -0.927773 -0.107919 0.357199
v 101.356 -133.601 19.5753
vn -0.396146 -0.335515 0.854692
v 101.915 -132.832 20.2412
vn -0.469762 -0.312661 0.825571
v 102.274 -133.229 20.148
vn -0.358605 -0.397653 0.844556
v 101.882 -131.862 20.6736
vn -0.435087 -0.312333 0.844481
v 102.595 -131.637 21.1314
vn 0.0350021 -0.319131 0.947064
v 102.677 -131.352 21.2707
vn -0.157955 -0.297048 0.941707
v 102.782 -131.531 21.1962
vn 0.931566 0.233305 0.278844
v 102.805 -129.973 20.5466
vn 0.000543682 -0.313091 0.949723
v 102.35 -130.286 21.6177
vn 0.627881 -0.0264917 0.777858
v 102.476 -130.381 21.5491
vn 0.387525 -0.105317 0.915823
v 102.545 -130.706 21.4797
vn 0.818492 0.246294 0.519047
v 102.793 -130.607 21.2704
vn 0.653928 0.171728 0.736809
v 102.718 -130.591 21.3483
vn 0.723285 0.0828964 0.685556
v 102.933 -130.953 21.2926
vn 0.326133 -0.344857 0.880177
v 102.203 -129.702 21.8354
vn 0.769112 -0.147432 0.621877
v 102.376 -129.588 21.7107
vn 0.959425 0.253236 0.124
v 102.592 -129.631 21.3303
vn 0.747008 0.420791 -0.514698
v 102.989 -127.498 19.0661
vn 0.128689 0.311868 -0.94137
v 103.011 -127.962 18.8588
vn 0.943 0.261383 0.205984
v 103.376 -128.519 18.9188
vn -0.978953 -0.189508 0.0757497
v 100.663 -142.112 15.0101
vn -0.980065 -0.00908482 -0.198469
v 100.389 -141.285 15.5198
vn -0.469579 -0.326699 0.820221
v 101.167 -140.275 16.6449
vn -0.429626 0.260402 -0.864646
v 101.74 -138.219 15.5085
vn -0.426508 -0.410633 0.805898
v 101.679 -138.579 17.7469
vn -0.27066 0.283564 -0.919964
v 101.299 -136.97 15.8085
vn -0.728352 -0.270851 0.629399
v 101.403 -138.045 17.7079
vn -0.580243 -0.401151 0.708799
v 102.186 -137.947 18.2371
vn -0.492323 0.346403 -0.798513
v 102.251 -136.354 16.1009
vn -0.584635 0.295874 -0.755421
v 102.602 -135.059 16.4086
vn -0.433441 -0.32446 0.840746
v 101.968 -135.45 19.3621
vn -0.559538 -0.346765 0.752776
v 102.342 -135.7 19.4075
vn 0.177031 0.261416 -0.948853
v 102.382 -134.247 16.9808
vn -0.668974 0.274122 -0.690891
v 102.508 -134.121 16.9108
vn 0.221254 0.271908 -0.936543
v 102.137 -133.416 17.1499
vn 0.0201832 0.302051 -0.953078
v 102.427 -133.489 17.1331
vn -0.690756 -0.183735 0.699355
v 102.317 -134.162 19.9331
vn -0.0134205 -0.383714 0.923354
v 102.545 -134.604 20.0468
vn -0.668326 0.272403 -0.692197
v 102.813 -133.115 16.9235
vn 0.163128 0.319449 -0.933457
v 102.997 -133.007 16.9416
vn 0.207496 0.306498 -0.92898
v 103.308 -132.475 17.2433
vn -0.736733 -0.215338 0.640979
v 102.49 -133.137 20.4205
vn 0.94918 0.161533 0.27012
v 103.61 -132.956 20.5007
vn 0.0736844 -0.368387 0.926748
v 103.543 -133.25 20.5634
vn -0.503105 -0.285867 0.815577
v 102.694 -132.976 20.7148
vn -0.0310115 -0.366408 0.929937
v 102.864 -132.931 20.7602
vn -0.982461 0.0400777 0.18211
v 102.983 -131.326 17.761
vn 0.222356 0.316531 -0.922153
v 102.835 -132.063 17.7828
vn -0.686216 0.404411 -0.604614
v 102.954 -131.937 17.7345
vn -0.47048 0.266855 -0.841093
v 103.026 -131.341 17.9232
vn -0.742656 0.439654 -0.50514
v 103.142 -131.358 17.5002
vn 0.178329 0.499487 -0.847769
v 103.329 -131.253 17.5743
vn 0.00769945 -0.231007 0.972922
v 102.853 -131.857 21.1571
vn 0.342904 -0.136185 0.929446
v 102.996 -131.273 21.1414
vn 0.93171 0.203602 0.300771
v 103.128 -131.3 20.9339
vn 0.911379 0.269575 0.310993
v 103.283 -131.961 21.0513
vn -0.680338 0.552788 -0.481213
v 103.194 -131.069 17.7583
vn -0.846826 0.531721 0.012619
v 103.277 -130.939 17.8866
vn -0.0138982 0.488083 -0.872686
v 103.501 -130.688 17.9557
vn 0.528854 0.213435 -0.821437
v 103.562 -131.008 17.7881
vn -0.0754453 0.373385 -0.924603
v 103.85 -131.078 17.7223
vn -0.0538754 0.612176 -0.788884
v 103.943 -130.752 17.871
vn 0.359585 0.367537 -0.85768
v 104.02 -130.541 18.1765
vn -0.852762 -0.448215 0.268144
v 101.08 -144.224 14.8818
vn -0.914759 -0.370039 0.162134
v 100.989 -144.051 15.0469
vn -0.970605 -0.200607 0.132974
v 101.004 -143.597 15.2564
vn -0.927951 -0.113567 -0.354978
v 101.013 -144.035 14.2932
vn -0.547152 0.214708 -0.809027
v 101.41 -142.28 14.3346
vn -0.370145 -0.36276 0.855218
v 101.349 -142.469 16.0495
vn -0.171099 -0.398536 0.901052
v 101.558 -142.826 15.8981
vn -0.184644 -0.344728 0.920364
v 101.525 -141.289 16.5181
vn -0.334806 -0.356473 0.872257
v 102.164 -140.684 16.8002
vn -0.266397 0.328307 -0.906227
v 102.854 -139.095 14.7351
vn 0.180062 0.387797 -0.903986
v 103.06 -138.841 14.8443
vn -0.181218 -0.432287 0.883339
v 102.281 -139.186 17.4784
vn -0.868281 -0.27217 0.414743
v 102.369 -139.061 17.7427
vn -0.826669 -0.252928 0.502638
v 102.403 -139.529 17.5679
vn -0.807442 -0.278529 0.520057
v 102.53 -138.504 18.4502
vn -0.0561266 -0.414971 0.908102
v 103.289 -138.536 18.3412
vn 0.141125 0.338682 -0.930257
v 102.786 -136.019 15.9332
vn 0.331587 0.311485 -0.890521
v 102.979 -135.901 16.0415
vn 0.780703 0.405674 -0.475322
v 104.483 -132.773 17.3375
vn 0.922958 0.140956 0.358162
v 103.948 -132.682 18.8339
vn 0.200537 0.310871 -0.929056
v 104.203 -132.089 17.5324
vn 0.917083 0.0848591 0.38956
v 104.497 -132.629 17.5935
vn 0.0890711 0.274179 -0.957545
v 103.956 -131.258 17.6688
vn -0.0996006 0.376297 -0.92113
v 104.074 -130.827 17.8006
vn 0.951669 0.145177 0.270646
v 104.204 -131.329 17.9761
vn -0.47221 -0.45126 0.75722
v 101.657 -144.687 15.1759
vn -0.195437 0.23359 -0.952492
v 103.466 -140.775 14.0441
vn -0.0806375 0.164633 -0.983053
v 103.61 -140.811 14.0182
vn 0.0130994 0.261137 -0.965213
v 103.646 -140.665 14.0178
vn 0.303499 0.302907 -0.903402
v 103.91 -138.611 14.7953
vn 0.421218 0.325326 -0.846604
v 103.889 -139.808 14.3866
vn 0.625785 0.249571 -0.738991
v 104.062 -139.245 14.7885
vn 0.0369577 0.422179 -0.905759
v 103.592 -137.904 15.3023
vn 0.526765 0.215428 -0.822259
v 104.305 -138.389 15.1689
vn 0.405019 0.308953 -0.860527
v 103.464 -137.574 15.6691
vn -0.0457044 -0.276688 0.959872
v 103.788 -137.899 18.7194
vn -0.237581 -0.480619 0.844133
v 103.77 -138.505 18.4429
vn -0.0257077 -0.366345 0.930124
v 104.005 -138.261 18.6754
vn 0.227377 0.282321 -0.931984
v 104.215 -136.983 15.4793
vn -0.205784 0.29079 -0.934395
v 104.501 -137.052 15.3948
vn -0.199525 0.488621 -0.849376
v 104.081 -136.336 15.6626
vn 0.34592 -0.21695 0.912837
v 104.839 -137.386 18.6375
vn -0.541611 0.427065 -0.724067
v 103.897 -135.994 16.1231
vn -0.322424 0.508454 -0.798447
v 104.17 -136.056 15.907
vn 0.0142104 0.454895 -0.890432
v 104.414 -136.267 15.7434
vn -0.339327 0.336163 -0.878551
v 104.52 -135.856 15.7847
vn 0.938728 0.222418 -0.263285
v 105.147 -135.494 16.6607
vn 0.659741 0.374595 -0.651475
v 104.85 -134.69 16.2832
vn 0.861847 0.345658 -0.371133
v 104.908 -134.037 16.8964
vn -0.737819 0.0138321 -0.674857
v 102.19 -148.15 12.6626
vn -0.642248 0.0858125 -0.761678
v 102.558 -148.233 12.3283
vn -0.632582 0.0472591 -0.77305
v 102.593 -148.705 12.299
vn -0.0256229 0.178172 -0.983666
v 102.762 -148.649 12.2979
vn -0.972538 -0.232031 0.0182161
v 102.17 -148.944 13.5359
vn -0.0658639 -0.320669 0.944899
v 102.788 -148.495 14.0334
vn 0.725305 -0.170375 0.667012
v 102.932 -148.531 14.0144
vn 0.611095 -0.390275 0.688657
v 102.971 -148.387 14.0514
vn 0.0778726 -0.316444 0.945409
v 103.149 -147.178 14.4472
vn 0.238536 -0.408117 0.881216
v 103.021 -148.204 14.107
vn -0.410683 -0.394466 0.822032
v 103.102 -146.279 14.9313
vn -0.712425 -0.35917 0.602866
v 103.186 -147.063 14.5491
vn -0.653818 -0.179277 0.735107
v 103.271 -147.09 14.7438
vn -0.583126 -0.327836 0.743295
v 103.421 -145.753 15.3428
vn -0.179962 0.246243 -0.952354
v 103.28 -143.64 13.0985
vn -0.0378777 0.317619 -0.947462
v 103.596 -143.11 13.2516
vn 0.167808 -0.432735 0.885766
v 103.827 -142.641 16.5374
vn 0.155856 0.252634 -0.954927
v 103.793 -140.702 14.0293
vn 0.10589 0.350789 -0.930448
v 104.32 -140.532 14.2776
vn 0.533481 -0.387796 0.751673
v 105.033 -140.486 17.1534
vn -0.220861 0.342345 -0.913247
v 104.422 -139.638 14.5606
vn 0.693297 -0.363173 0.62245
v 105.421 -139.51 17.5069
vn 0.940249 0.06838 0.33355
v 105.424 -139.357 17.5139
vn 0.962329 0.114405 0.246645
v 105.392 -139.194 17.5238
vn 0.722266 -0.405208 0.56048
v 105.3 -140.24 17.0297
vn 0.697376 -0.261468 0.667309
v 105.234 -138.705 18.0095
vn 0.472729 -0.344835 0.810935
v 105.098 -138.674 18.1369
vn 0.714719 -0.247567 0.654131
v 105.244 -139.012 17.8438
vn -0.929135 -0.128771 -0.346592
v 102.903 -151.712 11.9463
vn -0.695792 0.0329559 -0.717487
v 103.168 -151.149 11.5772
vn -0.373439 -0.3793 -0.846566
v 103.28 -151.332 11.6101
vn -0.53571 -0.3506 0.768176
v 103.284 -151.226 13.233
vn -0.0736552 0.222551 -0.972135
v 103.215 -150.392 11.7551
vn -0.286308 0.186928 -0.939726
v 103.551 -149.706 11.8766
vn -0.174815 0.228237 -0.957783
v 102.998 -148.344 12.3603
vn 0.582762 -0.312606 0.75011
v 103.068 -148.56 13.8601
vn -0.126493 0.159433 0.979071
v 103.18 -148.744 13.9047
vn -0.210986 0.322795 0.922653
v 103.25 -148.451 13.8637
vn -0.231785 -0.319139 0.918927
v 103.001 -148.855 13.9427
vn 0.341477 -0.514899 0.786303
v 103.124 -148.358 13.942
vn -0.253901 0.189533 0.948478
v 103.258 -148.61 13.9208
vn -0.995769 -0.0190162 -0.089898
v 103.353 -148.951 14.1992
vn -0.949418 0.0481788 0.310297
v 103.361 -148.692 14.0602
vn -0.997296 -0.0401649 0.0615448
v 103.394 -149.575 14.0165
vn 0.138605 -0.535568 0.83304
v 103.187 -148.156 14.0976
vn -0.998721 -0.0326045 -0.03865
v 103.299 -147.905 14.7036
vn -0.355121 -0.207171 0.911575
v 103.469 -147.607 14.8562
vn -0.754416 -0.342204 0.560137
v 103.345 -148.192 14.2354
vn -0.442571 -0.302612 0.844131
v 103.492 -148.366 14.6684
vn -0.0708928 -0.301129 0.950945
v 104.827 -142.883 16.2346
vn -0.0208581 -0.298378 0.95422
v 104.962 -143.53 16.056
vn 0.461933 -0.250637 0.850763
v 105.25 -143.6 15.9971
vn -0.00355361 0.303603 -0.952792
v 104.993 -142.532 13.4074
vn 0.272408 -0.314239 0.909422
v 104.998 -141.699 16.6191
vn 0.399635 0.301098 -0.865813
v 105.188 -140.742 14.0033
vn 0.750101 -0.265529 0.605676
v 105.426 -141.021 16.2315
vn 0.701298 -0.227705 0.675524
v 105.757 -140.944 16.0272
vn 0.952967 0.00925539 0.302933
v 105.916 -140.671 15.9124
vn 0.803988 -0.262637 0.533503
v 105.226 -140.833 16.7831
vn 0.778974 -0.205242 0.592517
v 105.27 -141.3 16.5304
vn 0.695453 0.259284 -0.670162
v 105.708 -140.116 14.5981
vn -0.971615 -0.231344 -0.0494354
v 103.319 -153.825 11.8656
vn -0.605114 -0.390316 0.693895
v 103.545 -154.19 11.8326
vn -0.373217 -0.370237 0.850666
v 104.24 -152.396 13.3108
vn -0.0311693 0.153837 -0.987605
v 103.463 -151.224 11.6234
vn -0.454526 -0.360289 0.814615
v 103.741 -150.818 13.7833
vn 0.0813107 -0.283022 0.955661
v 104.981 -147.98 14.6417
vn 0.208703 -0.232634 0.949908
v 105.364 -146.538 14.9411
vn -0.312338 -0.175635 0.933594
v 105.84 -146.503 14.9657
vn 0.481494 0.269089 -0.834119
v 105.86 -145.058 13.001
vn 0.938139 0.0218894 -0.345567
v 105.926 -145.238 13.289
vn 0.916226 -0.103954 -0.386941
v 106.16 -144.378 13.6139
vn 0.699403 0.155451 -0.697617
v 106.025 -145.268 13.4802
vn -0.112738 -0.127048 0.985469
v 105.699 -145.233 15.0705
vn 0.362721 -0.219988 0.90556
v 105.743 -144.474 15.2051
vn -0.474458 -0.0502229 0.878844
v 105.926 -144.366 15.223
vn -0.58657 -0.0686911 0.806981
v 105.888 -145.129 15.1703
vn -0.66979 -0.0251519 0.742125
v 106.006 -144.698 15.3084
vn -0.641654 0.0162707 0.766822
v 106.12 -144.265 15.3826
vn -0.638689 -0.0104994 0.769393
v 106.238 -144.453 15.5066
vn -0.34957 -0.14535 0.925567
v 106.158 -145.357 15.3781
vn -0.0271785 -0.15492 0.987553
v 106.385 -144.49 15.5204
vn 0.526977 -0.143841 0.837618
v 106.122 -143.03 15.4568
vn 0.977114 0.119414 0.176036
v 106.375 -143.398 15.3006
vn -0.124522 0.400465 0.907812
v 106.302 -144.156 15.3843
vn 0.572961 0.237831 0.784316
v 106.499 -144.201 15.2542
vn 0.961096 0.142277 0.236755
v 106.346 -141.902 14.7706
vn -0.831511 -0.361495 0.421795
v 104.324 -157.292 10.7292
vn -0.959757 -0.275333 0.0552939
v 104.021 -156.44 10.6398
vn -0.729289 -0.359761 0.581987
v 103.99 -155.378 11.595
vn -0.29844 0.209703 -0.931106
v 104.661 -154.738 10.4077
vn 0.253701 0.275654 -0.927174
v 106.001 -150.308 11.4454
vn 0.60346 0.314703 -0.732665
v 106.127 -150.188 11.5374
vn 0.907375 0.205858 -0.36646
v 106.219 -149.91 11.8451
vn -0.243032 -0.26471 0.933201
v 106.269 -149.538 14.2675
vn 0.238486 0.275634 -0.931209
v 106.048 -148.455 12.0758
vn 0.657379 0.200894 -0.726288
v 106.59 -148.329 12.7962
vn -0.234104 -0.243271 0.941283
v 106.742 -148.425 14.7745
vn 0.929207 0.057016 0.365134
v 106.741 -145.647 15.0189
vn 0.439265 0.165465 -0.882988
v 106.403 -145.06 13.686
vn 0.883576 0.185485 -0.429988
v 106.71 -145.141 13.8405
vn -0.915638 -0.179492 -0.359708
v 104.913 -158.957 9.70647
vn -0.699922 -0.368337 0.611913
v 104.545 -157.329 11.1635
vn 0.681994 0.21166 -0.70006
v 106.238 -154.054 10.5463
vn 0.0125511 -0.288543 0.957385
v 105.527 -154.563 12.8694
vn -0.286562 -0.282252 0.915541
v 106.201 -154.878 12.6001
vn 0.611735 0.223793 -0.758747
v 106.146 -152.801 10.8115
vn 0.470496 0.336228 -0.815833
v 106.338 -150.549 11.5057
vn 0.989626 0.142709 0.0165451
v 106.307 -150.398 11.6655
vn 0.997469 0.0613078 -0.0360199
v 106.357 -150.867 11.64
vn 0.912485 0.196574 -0.35879
v 106.293 -150.242 11.9749
vn 0.951571 0.184147 -0.246176
v 107.356 -149.477 13.7423
vn 0.793601 0.176552 -0.58226
v 106.914 -148.467 13.2186
vn -0.845514 -0.415313 0.335591
v 105.578 -161.23 9.10152
vn -0.942412 -0.325158 -0.0783001
v 105.417 -161.245 9.5637
vn -0.756902 -0.491865 0.430312
v 105.44 -161.256 9.71212
vn -0.30487 -0.447768 0.84057
v 105.756 -160.886 10.2306
vn 0.0414362 -0.393715 0.918298
v 106.023 -158.36 11.5157
vn 0.271123 -0.493334 0.826507
v 106.715 -156.994 11.7791
vn 0.533154 -0.31913 0.78352
v 106.644 -157.743 11.5432
vn 0.687724 -0.268978 0.674304
v 106.779 -157.62 11.4443
vn 0.308916 -0.292491 0.904997
v 106.474 -156.175 12.2826
vn -0.125042 0.295814 -0.947026
v 106.12 -155.094 10.1037
vn 0.633597 0.282206 -0.720357
v 107.05 -152.437 11.7705
vn 0.47282 0.334582 -0.815166
v 107.679 -152.603 12.0677
vn -0.8844 -0.347481 -0.311597
v 106.27 -162.724 8.83224
vn -0.876279 -0.38885 0.284485
v 105.648 -161.74 8.62108
vn -0.142278 0.322671 -0.935757
v 106.645 -159.817 8.39284
vn 0.521072 -0.317256 0.792359
v 106.986 -159.195 10.6554
vn 0.428959 -0.300569 0.851852
v 107.29 -159.725 10.3017
vn 0.683459 -0.31298 0.65949
v 107.118 -158.156 11.0084
vn 0.390474 0.396905 -0.83066
v 107.612 -157.666 9.87812
vn 0.576415 -0.305212 0.758018
v 106.929 -157.194 11.4736
vn 0.415966 -0.482171 0.771028
v 107.019 -156.929 11.7608
vn -0.157017 -0.608453 0.777902
v 107.121 -157.087 11.5957
vn 0.84189 -0.187502 0.506028
v 107.545 -156.11 11.4611
vn 0.798153 -0.174683 0.576574
v 107.667 -154.609 11.9745
vn -0.881169 -0.454459 0.130416
v 106.7 -164.301 7.82487
vn -0.837436 -0.137804 -0.528877
v 106.644 -163.187 7.24002
vn -0.809807 -0.521556 0.268685
v 106.592 -163.369 8.62877
vn -0.274585 0.320091 -0.906722
v 106.675 -161.971 7.71354
vn 0.272623 -0.338187 0.900725
v 106.811 -162.061 9.64493
vn 0.182746 0.466601 -0.865383
v 107.713 -161.001 7.97997
vn 0.780778 -0.110117 0.615028
v 108.032 -160.662 8.95541
vn 0.369918 -0.312471 0.874942
v 107.306 -161.345 9.72721
vn 0.913413 0.306918 -0.267352
v 108.018 -160.329 8.8215
vn -0.851966 -0.275621 -0.445182
v 107.209 -165.178 6.99524
vn -0.187038 0.276781 -0.942555
v 107.826 -163.937 6.90296
vn 0.804338 0.0159376 0.593959
v 108.549 -163.837 7.85174
vn 0.345606 -0.260702 0.901438
v 107.892 -163.085 8.91169
vn 0.874168 0.107735 0.473522
v 108.309 -163.632 8.19456
vn 0.18858 0.434601 -0.880658
v 108.321 -162.679 7.23993
vn -0.32602 0.12112 -0.937572
v 108.362 -165.91 6.27761
vn -0.4337 -0.542616 0.719355
v 108.478 -166.016 7.92038
vn 2.80948e-006 0.319477 -0.947594
v 109.124 -165.324 6.13741
vn 0.36191 0.434074 -0.824986
v 109.421 -165.401 6.22701
vn 0.8325 0.24396 0.497421
v 108.936 -164.852 7.49113
vn 0.94703 0.153514 0.282077
v 109.351 -164.937 6.85582
vn -0.850108 -0.408733 -0.332044
v 109.087 -168.558 5.95196
vn -0.485852 0.101409 -0.868138
v 109.494 -168.491 5.47486
vn -0.724903 -0.236585 -0.646949
v 109.53 -168.963 5.4502
vn -0.771538 -0.624524 0.121238
v 109.536 -169.202 5.89017
vn -0.818845 -0.493627 -0.29296
v 109.535 -169.124 5.59282
vn -0.666179 -0.226945 -0.710424
v 109.063 -167.926 5.70692
vn -0.645041 -0.243086 -0.724453
v 109.253 -168.127 5.6594
vn -0.209881 0.204418 -0.956119
v 109.413 -168.012 5.65356
vn -0.542627 -0.560557 0.625566
v 108.905 -167.76 7.05595
vn -0.10392 -0.304986 0.94667
v 110.012 -167.745 7.27628
vn -0.212055 0.179657 -0.960602
v 109.114 -166.553 5.94882
vn -0.138269 0.218535 -0.965984
v 109.997 -166.702 5.82443
vn 0.722504 0.136831 0.677691
v 109.316 -166.265 7.54865
vn 0.733626 0.542521 -0.409224
v 109.843 -165.827 6.62893
vn -0.690066 -0.463288 -0.556034
v 110.093 -169.876 5.36777
vn -0.47834 -0.0973324 -0.872764
v 109.696 -169.002 5.3391
vn 0.81803 0.387663 0.424906
v 110.994 -167.804 6.15418
vn -0.613179 -0.729496 0.303063
v 111.101 -170.904 5.54972
vn -0.435084 -0.670365 0.601093
v 111.417 -170.548 6.42672
vn 0.111944 0.496025 -0.861062
v 111.293 -168.775 5.03389
vn -0.256873 0.164635 -0.952319
v 111.58 -169.917 4.62258
vn 0.473502 0.675736 -0.564958
v 111.836 -169.007 4.98479
vn 0.107013 0.460719 -0.881071
v 111.834 -169.531 4.65928
vn 0.396866 0.6803 -0.61619
v 111.462 -168.704 5.17587
vn 0.787072 0.604175 0.124462
v 111.904 -168.931 5.58571
vn 0.348304 0.135163 0.927586
v 111.054 -169.082 7.02497
vn 0.669029 0.585722 0.457526
v 111.253 -168.795 6.69161
vn -0.188414 -0.366429 0.91117
v 111.302 -169.914 6.88627
vn 0.30268 0.507992 -0.80643
v 111.068 -168.413 5.16431
vn 0.692128 0.609208 -0.387071
v 111.189 -168.044 5.52704
vn 0.588701 0.671276 -0.450355
v 111.634 -168.713 5.31385
vn -0.460991 -0.551147 -0.695503
v 112.287 -171.485 4.53583
vn -0.560472 -0.810184 0.171675
v 111.826 -171.553 5.01663
vn -0.320527 -0.839805 0.438167
v 112.319 -171.628 5.58059
vn -0.150399 -0.984161 0.0938439
v 112.39 -171.816 5.11523
vn 0.193237 -0.839828 0.507295
v 112.47 -171.642 5.56935
vn -0.426874 -0.141925 -0.893105
v 112.362 -171.032 4.28956
vn 0.0869448 0.30936 -0.946962
v 112.753 -170.662 4.16642
vn 0.146141 -0.710695 0.688154
v 112.309 -171.227 6.13285
vn -0.278077 -0.682014 0.676409
v 111.996 -170.751 6.54764
vn -0.115197 -0.633442 0.765167
v 112.058 -170.563 6.73438
vn 0.359674 -0.543383 0.758531
v 112.561 -170.376 6.62311
vn 0.44324 0.600857 -0.665214
v 112.025 -169.432 4.80099
vn 0.351828 0.56679 -0.74496
v 112.549 -169.805 4.74671
vn 0.742368 0.669172 -0.0331357
v 112.467 -169.857 5.80374
vn 0.723261 0.6711 -0.162843
v 112.47 -169.601 5.06285
vn 0.807032 0.541294 0.236007
v 112.685 -170.168 5.62328
vn 0.77921 0.598042 -0.187557
v 113.016 -170.226 6.04891
vn 0.689629 0.698972 0.189342
v 112.121 -169.588 6.44283
vn 0.565414 0.353959 0.744997
v 112.381 -169.866 6.5621
vn -0.251976 -0.86391 -0.436083
v 112.978 -171.734 4.47554
vn 0.490515 -0.83863 0.236843
v 112.999 -171.795 4.92279
vn 0.0117503 -0.308302 -0.951216
v 112.897 -171.316 4.11495
vn 0.500944 0.147519 -0.852815
v 113.12 -171.064 4.18527
vn 0.636858 0.519153 -0.569994
v 113.25 -170.642 4.49441
vn 0.857979 0.512413 0.0361147
v 113.386 -170.685 4.79708
vn 0.638908 -0.309133 -0.704438
v 113.284 -171.264 4.32546
vn 0.892795 0.158058 -0.421823
v 113.449 -171.001 4.47674
vn 0.776441 -0.571415 -0.265754
v 113.464 -171.318 4.61138
vn 0.65653 -0.50604 0.559368
v 112.95 -171.221 5.70581
vn 0.492972 -0.611415 0.618991
v 112.974 -170.961 5.8669
vn 0.8357 0.424264 0.348721
v 113.051 -170.782 5.71931
vn 0.755421 -0.483716 0.441993
v 113.457 -171.175 5.07017
vn 0.425107 -0.639251 0.640814
v 113.109 -170.655 6.17277
vn -0.957169 -0.286209 0.0437289
v 97.5714 -122 21.4392
vn -0.0141362 0.939372 -0.342608
v 97.8019 -120.047 22.1167
vn -0.991129 0.128603 -0.0335362
v 97.8019 -120.047 22.1167
vn -0.629943 0.515092 0.58125
v 97.8019 -120.047 22.1167
vn 0.675741 0.635311 0.373838
v 97.8019 -120.047 22.1167
vn 0.616495 0.577705 0.534968
v 97.8955 -120.444 22.5701
vn -0.286461 -0.112547 0.951459
v 97.8955 -120.444 22.5701
vn -0.968546 -0.198788 0.149675
v 97.9763 -123.368 21.3466
vn -0.364263 0.20059 0.909437
v 99.1334 -122.021 23.5317
vn -0.00211464 0.893963 -0.448136
v 98.2783 -120.348 21.2729
vn 0.7456 0.587583 0.314368
v 98.312 -120.276 21.4679
vn -0.017217 0.788939 -0.61423
v 98.5255 -120.556 20.9882
vn -0.704614 0.351954 0.616156
v 98.1855 -121.135 22.5244
vn -0.533937 0.537168 0.652964
v 98.3389 -121.022 22.6354
vn 0.572637 0.512238 0.640077
v 98.3389 -121.022 22.6354
vn 0.277563 0.906827 0.317211
v 98.3389 -121.022 22.6354
vn 0.277563 0.906827 0.317211
v 98.5198 -121.02 22.4722
vn -0.364263 0.20059 0.909437
v 98.6378 -121.409 23.1983
vn 0.175546 0.64684 0.742147
v 98.6378 -121.409 23.1983
vn -0.533937 0.537168 0.652964
v 98.6378 -121.409 23.1983
vn 0.197607 0.66766 0.717762
v 98.6612 -121.27 23.0623
vn -0.328666 0.687578 0.647468
v 98.6612 -121.27 23.0623
vn 0.277563 0.906827 0.317211
v 98.6612 -121.27 23.0623
vn -0.589926 -0.307267 0.746709
v 98.6812 -127.166 20.3663
vn -0.634487 0.231562 0.737432
v 99.7355 -123.399 23.1783
vn -0.488567 0.197001 0.849995
v 100.04 -123.327 23.4178
vn 0.617632 0.326895 0.715312
v 100.04 -123.327 23.4178
vn -0.364263 0.20059 0.909437
v 99.2842 -122.06 23.6009
vn 0.153219 0.62504 0.765408
v 99.2842 -122.06 23.6009
vn 0.675015 0.318462 0.665535
v 99.2842 -122.06 23.6009
vn 0.755844 0.654628 -0.0127442
v 99.32 -121.86 23.4302
vn 0.721702 0.369893 0.585086
v 99.32 -121.86 23.4302
vn 0.0357128 0.800362 -0.598452
v 99.4186 -121.071 20.353
vn 0.41485 0.883388 -0.218002
v 99.4186 -121.071 20.353
vn 0.488837 0.559316 -0.66948
v 99.4186 -121.071 20.353
vn 0.371338 0.889678 -0.265672
v 99.582 -121.114 20.4361
vn 0.60048 0.592361 -0.537153
v 99.582 -121.114 20.4361
vn -0.569793 0.147958 -0.808359
v 98.8727 -128.345 19.8459
vn -0.253496 0.217455 -0.942578
v 99.2764 -127.573 19.4021
vn -0.5603 -0.537677 0.630053
v 100.496 -126.06 23.0001
vn -0.480217 0.495659 0.72368
v 100.086 -124.435 23.8578
vn -0.694018 -0.326166 0.641837
v 100.086 -124.435 23.8578
vn -0.659985 -0.434898 0.612605
v 100.292 -124.949 23.8192
vn -0.399363 0.317771 0.85996
v 100.804 -124.939 24.3777
vn 0.949125 0.264813 0.170396
v 100.804 -124.939 24.3777
vn 0.459305 0.689882 0.559555
v 100.804 -124.939 24.3777
vn 0.218411 -0.534132 0.816701
v 100.804 -124.939 24.3777
vn 0.584223 0.3732 0.720698
v 100.198 -123.364 23.298
vn 0.44063 0.426062 0.790137
v 100.223 -123.89 23.5726
vn 0.753312 0.509092 0.416348
v 100.375 -123.878 23.5025
vn 0.348617 0.430504 0.832546
v 100.51 -124.068 23.5441
vn 0.277112 0.769193 0.575805
v 100.51 -124.068 23.5441
vn -0.551782 0.517026 0.654385
v 100.102 -124.28 23.7133
vn 0.349666 0.429834 0.832452
v 100.218 -124.154 23.7111
vn 0.0839031 0.817929 0.569168
v 100.218 -124.154 23.7111
vn 0.277112 0.769193 0.575805
v 100.419 -124.368 23.988
vn 0.647061 0.607296 -0.460982
v 100.459 -122.387 20.0136
vn -0.587019 -0.331278 0.73869
v 99.2956 -130.619 19.4085
vn 0.186381 -0.492854 0.849916
v 101.161 -126.298 23.3937
vn 0.924609 0.0844207 0.371446
v 101.119 -125.925 23.6485
vn 0.70913 0.615235 -0.344413
v 101.428 -123.572 19.8899
vn 0.951004 0.303292 0.0600362
v 101.506 -123.742 19.7259
vn 0.775146 0.0104571 -0.631696
v 101.506 -123.742 19.7259
vn -0.0120597 0.198747 -0.979977
v 101.506 -123.742 19.7259
vn 0.937468 0.337856 0.0837083
v 101.587 -124.038 19.8569
vn -0.594197 0.147183 -0.790738
v 99.8909 -136.87 16.9661
vn -0.719011 -0.268526 0.641028
v 99.8909 -136.87 16.9661
vn -0.915294 -0.257717 -0.309545
v 99.8909 -136.87 16.9661
vn 0.375069 -0.26576 0.888085
v 102.061 -128.602 22.4403
vn 0.676511 -0.230384 0.699468
v 102.237 -128.642 22.3049
vn 0.323881 -0.270022 0.906746
v 101.687 -127.691 22.6893
vn 0.577075 -0.104709 0.809951
v 101.795 -127.459 22.6926
vn 0.905836 0.381826 0.183494
v 102.056 -125.123 19.9235
vn -0.67855 0.0893405 -0.729101
v 100.099 -137.381 16.777
vn -0.889097 -0.127782 0.439521
v 100.04 -137.53 17.0752
vn -0.625717 -0.32014 0.711329
v 100.04 -137.53 17.0752
vn -0.441112 -0.362947 0.820786
v 101.229 -134.633 18.9337
vn -0.531967 -0.33289 0.778585
v 101.356 -133.601 19.5753
vn 0.35258 -0.0956908 0.930876
v 102.782 -131.531 21.1962
vn 0.815934 -0.027928 0.57747
v 102.592 -129.631 21.3303
vn -0.629526 0.209186 -0.74829
v 100.663 -142.112 15.0101
vn -0.962364 -0.241457 -0.124713
v 100.389 -141.285 15.5198
vn -0.64017 0.219964 -0.736069
v 100.389 -141.285 15.5198
vn -0.833467 -0.275941 0.478738
v 100.389 -141.285 15.5198
vn 0.23407 0.304347 -0.923355
v 101.74 -138.219 15.5085
vn -0.699577 0.0734527 -0.710772
v 101.299 -136.97 15.8085
vn 0.287701 0.281384 -0.915451
v 101.299 -136.97 15.8085
vn -0.581798 0.27335 -0.766023
v 102.382 -134.247 16.9808
vn -0.68707 0.369425 -0.625667
v 102.427 -133.489 17.1331
vn -0.615998 -0.26623 0.741396
v 102.545 -134.604 20.0468
vn -0.0989799 0.324642 -0.940644
v 102.813 -133.115 16.9235
vn -0.993153 0.0438063 0.108299
v 102.813 -133.115 16.9235
vn -0.792159 0.318934 -0.520352
v 102.813 -133.115 16.9235
vn 0.795126 -0.051817 0.604226
v 103.543 -133.25 20.5634
vn -0.742656 0.439654 -0.50514
v 102.983 -131.326 17.761
vn -0.746799 0.615252 0.252499
v 102.983 -131.326 17.761
vn -0.553085 0.347989 -0.756968
v 102.835 -132.063 17.7828
vn -0.982461 0.0400777 0.18211
v 102.954 -131.937 17.7345
vn -0.966291 0.0361256 0.254904
v 103.026 -131.341 17.9232
vn -0.804341 0.578905 0.133811
v 103.026 -131.341 17.9232
vn 0.00411276 0.445655 -0.895195
v 103.142 -131.358 17.5002
vn 0.846633 0.0968263 0.523295
v 102.996 -131.273 21.1414
vn 0.193398 -0.179171 0.964622
v 103.283 -131.961 21.0513
vn 0.808262 -0.0586958 0.58589
v 103.283 -131.961 21.0513
vn -0.804341 0.578905 0.133811
v 103.194 -131.069 17.7583
vn -0.048539 0.689549 -0.72261
v 103.194 -131.069 17.7583
vn -0.173057 0.492058 -0.853188
v 103.277 -130.939 17.8866
vn -0.12294 0.478197 -0.869605
v 103.562 -131.008 17.7881
vn 0.0753477 0.811131 -0.579991
v 104.02 -130.541 18.1765
vn 0.936481 0.145863 0.318947
v 104.02 -130.541 18.1765
vn 0.894844 0.37444 -0.243001
v 104.02 -130.541 18.1765
vn -0.489084 -0.352133 0.797997
v 100.989 -144.051 15.0469
vn -0.689908 -0.284163 0.665791
v 101.004 -143.597 15.2564
vn -0.408994 -0.401481 0.819473
v 101.004 -143.597 15.2564
vn 0.153954 0.342084 -0.926972
v 101.41 -142.28 14.3346
vn -0.440615 0.584075 -0.6817
v 103.06 -138.841 14.8443
vn -0.860685 -0.237826 0.450178
v 102.281 -139.186 17.4784
vn 0.0885766 -0.382849 0.919555
v 102.53 -138.504 18.4502
vn -0.545798 0.285443 -0.787799
v 102.786 -136.019 15.9332
vn -0.313829 0.367345 -0.875539
v 104.203 -132.089 17.5324
vn 0.671583 0.401051 -0.623004
v 104.203 -132.089 17.5324
vn 0.913157 0.331634 -0.236989
v 104.497 -132.629 17.5935
vn 0.785425 0.152857 -0.599785
v 103.956 -131.258 17.6688
vn 0.140053 0.79743 -0.586934
v 104.074 -130.827 17.8006
vn 0.775255 -0.0187092 -0.631371
v 104.074 -130.827 17.8006
vn 0.970399 0.237575 -0.0433938
v 104.074 -130.827 17.8006
vn 0.71253 0.249343 -0.655842
v 104.204 -131.329 17.9761
vn 0.940188 0.272029 -0.205053
v 104.204 -131.329 17.9761
vn -0.360629 -0.399637 0.842756
v 101.657 -144.687 15.1759
vn -0.471924 0.36443 -0.802794
v 103.646 -140.665 14.0178
vn 0.607105 0.234114 -0.759351
v 103.91 -138.611 14.7953
vn -0.49021 0.35224 -0.797258
v 103.91 -138.611 14.7953
vn -0.168897 0.374079 -0.911888
v 104.062 -139.245 14.7885
vn -0.587799 0.410336 -0.697221
v 103.592 -137.904 15.3023
vn -0.234252 0.19516 -0.952386
v 104.305 -138.389 15.1689
vn -0.780698 0.213383 -0.587349
v 104.305 -138.389 15.1689
vn -0.101306 0.427999 -0.898083
v 104.305 -138.389 15.1689
vn -0.51233 0.443468 -0.735428
v 103.464 -137.574 15.6691
vn -0.343059 0.300877 -0.889822
v 104.501 -137.052 15.3948
vn -0.780698 0.213383 -0.587349
v 104.501 -137.052 15.3948
vn 0.864897 0.0291417 0.501103
v 104.839 -137.386 18.6375
vn -0.54909 0.221795 -0.805796
v 104.414 -136.267 15.7434
vn 0.936333 0.119618 0.33011
v 105.147 -135.494 16.6607
vn 0.929638 0.0948715 0.356051
v 104.908 -134.037 16.8964
vn 0.0777656 0.176721 -0.981184
v 102.558 -148.233 12.3283
vn -0.0594905 0.161997 -0.984996
v 102.593 -148.705 12.299
vn -0.480015 -0.368853 0.795948
v 102.17 -148.944 13.5359
vn 0.0696353 -0.231662 0.970301
v 102.932 -148.531 14.0144
vn 0.0760009 -0.288024 0.954602
v 102.971 -148.387 14.0514
vn -0.645022 -0.351659 0.678441
v 103.149 -147.178 14.4472
vn -0.894892 -0.269637 0.355618
v 103.102 -146.279 14.9313
vn -0.996117 -0.0186188 -0.0860517
v 103.271 -147.09 14.7438
vn -0.898971 -0.249109 0.360272
v 103.271 -147.09 14.7438
vn 0.134476 -0.342432 0.929869
v 103.421 -145.753 15.3428
vn -0.780698 0.213383 -0.587349
v 104.422 -139.638 14.5606
vn 0.959231 0.174589 0.222251
v 105.234 -138.705 18.0095
vn -0.373439 -0.3793 -0.846566
v 102.903 -151.712 11.9463
vn -0.686523 0.0382765 -0.7261
v 102.903 -151.712 11.9463
vn -0.16969 0.255349 -0.951841
v 103.168 -151.149 11.5772
vn -0.373439 -0.3793 -0.846566
v 103.168 -151.149 11.5772
vn 0.169028 0.0580556 -0.9839
v 103.168 -151.149 11.5772
vn -0.320074 0.0854667 -0.94353
v 103.28 -151.332 11.6101
vn -0.970394 -0.0478356 0.236742
v 103.284 -151.226 13.233
vn 0.336988 -0.232813 0.91227
v 103.284 -151.226 13.233
vn -0.594861 -0.2331 0.769288
v 103.284 -151.226 13.233
vn -0.155677 0.215504 0.964014
v 103.068 -148.56 13.8601
vn 0.336988 -0.232813 0.91227
v 103.18 -148.744 13.9047
vn -0.594861 -0.2331 0.769288
v 103.18 -148.744 13.9047
vn -0.670354 0.30252 0.677575
v 103.18 -148.744 13.9047
vn 0.136646 -0.52439 0.840442
v 103.25 -148.451 13.8637
vn -0.855275 0.0270406 0.517469
v 103.25 -148.451 13.8637
vn -0.61262 -0.566262 0.551403
v 103.25 -148.451 13.8637
vn 0.753832 0.0139815 0.656918
v 103.001 -148.855 13.9427
vn 0.336988 -0.232813 0.91227
v 103.001 -148.855 13.9427
vn 0.0436552 0.26017 0.964576
v 103.001 -148.855 13.9427
vn -0.698793 0.25279 0.669168
v 103.258 -148.61 13.9208
vn -0.775297 -0.27271 0.569688
v 103.353 -148.951 14.1992
vn -0.594861 -0.2331 0.769288
v 103.361 -148.692 14.0602
vn -0.712581 -0.276847 0.644658
v 103.394 -149.575 14.0165
vn -0.64933 -0.425764 0.630155
v 103.187 -148.156 14.0976
vn -0.578185 -0.215068 0.78705
v 103.299 -147.905 14.7036
vn -0.997372 -0.0554482 0.0466397
v 103.345 -148.192 14.2354
vn 0.916637 -0.0979 0.387548
v 105.25 -143.6 15.9971
vn -0.551326 -0.394635 0.735053
v 103.319 -153.825 11.8656
vn 0.971709 -0.0222329 -0.235132
v 105.86 -145.058 13.001
vn 0.57934 0.165081 -0.798194
v 106.16 -144.378 13.6139
vn -0.255921 0.414466 0.87334
v 106.12 -144.265 15.3826
vn 0.0265982 -0.059988 0.997845
v 106.12 -144.265 15.3826
vn -0.124522 0.400465 0.907812
v 106.238 -144.453 15.5066
vn -0.124937 -0.128708 0.983781
v 106.238 -144.453 15.5066
vn 0.56493 0.427845 0.705551
v 106.385 -144.49 15.5204
vn 0.00919874 0.378995 0.925353
v 106.385 -144.49 15.5204
vn 0.824027 0.00785115 0.566496
v 106.385 -144.49 15.5204
vn 0.0060743 -0.173196 0.984869
v 106.122 -143.03 15.4568
vn -0.621649 -0.0456284 0.781966
v 106.122 -143.03 15.4568
vn 0.0265982 -0.059988 0.997845
v 106.122 -143.03 15.4568
vn 0.473425 -0.0453682 0.879665
v 106.375 -143.398 15.3006
vn 0.572311 0.170623 0.80209
v 106.302 -144.156 15.3843
vn 0.0265982 -0.059988 0.997845
v 106.302 -144.156 15.3843
vn 0.973817 0.129746 0.18667
v 106.499 -144.201 15.2542
vn 0.814986 0.242049 -0.526507
v 106.346 -141.902 14.7706
vn 0.935297 -0.00924635 0.353743
v 106.346 -141.902 14.7706
vn -0.589783 0.0816227 -0.803427
v 104.021 -156.44 10.6398
vn -0.903505 -0.174846 -0.391291
v 104.021 -156.44 10.6398
vn 0.863503 0.160887 -0.477994
v 106.048 -148.455 12.0758
vn 0.709328 -0.152874 0.688102
v 106.742 -148.425 14.7745
vn -0.487892 0.234977 -0.840683
v 104.913 -158.957 9.70647
vn -0.921593 -0.325811 0.210982
v 104.913 -158.957 9.70647
vn -0.798931 0.0233113 -0.600971
v 104.913 -158.957 9.70647
vn 0.349554 -0.216241 0.91162
v 106.201 -154.878 12.6001
vn 0.980389 -0.023383 -0.19568
v 106.146 -152.801 10.8115
vn 0.996339 0.0821274 -0.0237554
v 106.338 -150.549 11.5057
vn 0.755257 0.284213 -0.590602
v 106.357 -150.867 11.64
vn 0.877333 -0.0792694 0.47329
v 107.356 -149.477 13.7423
vn -0.905215 -0.303348 -0.297601
v 105.578 -161.23 9.10152
vn 0.701242 -0.279486 0.655856
v 106.715 -156.994 11.7791
vn 0.569972 0.285281 -0.77055
v 106.12 -155.094 10.1037
vn 0.922679 0.251741 -0.292043
v 107.679 -152.603 12.0677
vn 0.994959 -0.0103431 0.0997445
v 107.679 -152.603 12.0677
vn -0.858167 -0.113125 -0.500751
v 105.648 -161.74 8.62108
vn -0.11555 0.326897 -0.937969
v 106.645 -159.817 8.39284
vn -0.279367 -0.461842 0.841817
v 107.118 -158.156 11.0084
vn 0.983199 0.107094 -0.147818
v 107.612 -157.666 9.87812
vn -0.0373277 -0.669207 0.742138
v 106.929 -157.194 11.4736
vn 0.769503 -0.253338 0.586247
v 107.121 -157.087 11.5957
vn 0.800185 -0.22124 0.557456
v 107.545 -156.11 11.4611
vn -0.211 0.257773 -0.942885
v 106.644 -163.187 7.24002
vn 0.695533 0.416846 -0.585212
v 107.713 -161.001 7.97997
vn 0.977975 0.112225 0.175986
v 108.032 -160.662 8.95541
vn 0.779523 -0.138962 0.610765
v 107.306 -161.345 9.72721
vn 0.854097 0.0526575 0.517441
v 107.892 -163.085 8.91169
vn 0.762288 0.462013 -0.453278
v 108.321 -162.679 7.23993
vn 0.320055 -0.201403 0.925744
v 108.478 -166.016 7.92038
vn 0.830606 0.475163 -0.290368
v 109.421 -165.401 6.22701
vn 0.817824 0.464999 -0.339027
v 109.351 -164.937 6.85582
vn 0.801219 0.11075 0.588033
v 109.351 -164.937 6.85582
vn -0.10087 0.194554 -0.975692
v 109.063 -167.926 5.70692
vn -0.187017 0.210959 -0.959438
v 109.253 -168.127 5.6594
vn 0.671495 0.320703 0.668016
v 110.012 -167.745 7.27628
vn 0.360389 0.417608 -0.834101
v 109.997 -166.702 5.82443
vn 0.616913 0.558242 -0.554784
v 109.997 -166.702 5.82443
vn 0.849016 0.40137 0.343619
v 109.843 -165.827 6.62893
vn -0.432632 -0.7421 -0.511974
v 111.826 -171.553 5.01663
vn 0.153213 -0.0892645 0.984153
v 112.058 -170.563 6.73438
vn 0.540674 0.22966 0.809276
v 112.561 -170.376 6.62311
vn 0.64958 0.705143 -0.284287
v 112.549 -169.805 4.74671
vn 0.70454 0.5267 -0.475616
v 112.685 -170.168 5.62328
vn 0.696313 0.32781 0.638505
v 113.016 -170.226 6.04891
vn 0.664917 0.714583 0.217386
v 112.381 -169.866 6.5621
vn 0.610542 -0.63767 -0.469697
v 112.978 -171.734 4.47554
vn 0.998924 0.046383 0.000361348
v 113.464 -171.318 4.61138
vn 0.942496 -0.315398 0.110566
v 112.974 -170.961 5.8669
vn 0.890678 0.271294 -0.364818
v 113.051 -170.782 5.71931
vn 0.915386 -0.284342 0.284988
v 113.051 -170.782 5.71931
vn 0.974441 0.181631 0.132195
v 113.457 -171.175 5.07017
vn 0.972297 0.160809 -0.169641
v 113.109 -170.655 6.17277
vn 0.69394 0.333533 0.638125
v 113.109 -170.655 6.17277
vn 0.916415 -0.400191 -0.00553026
v 113.109 -170.655 6.17277
f 10//10 1//1 2//2
f 5//5 1//1 9//9
f 2//2 4//4 14//14
f 437//437 15//15 445//445
f 5//5 3//3 1//1
f 5//5 6//6 3//3
f 3//3 438//438 1//1
f 3//3 6//6 439//439
f 2//2 1//1 438//438
f 441//441 20//20 440//440
f 5//5 9//9 18//18
f 5//5 18//18 19//19
f 19//19 442//442 5//5
f 20//20 446//446 440//440
f 7//7 25//25 8//8
f 443//443 8//8 25//25
f 7//7 12//12 27//27
f 10//10 443//443 436//436
f 8//8 10//10 12//12
f 8//8 443//443 10//10
f 12//12 10//10 11//11
f 10//10 2//2 11//11
f 12//12 7//7 8//8
f 12//12 11//11 27//27
f 11//11 2//2 27//27
f 9//9 30//30 22//22
f 36//36 27//27 2//2
f 36//36 2//2 17//17
f 30//30 13//13 22//22
f 13//13 30//30 34//34
f 463//463 453//453 444//444
f 23//23 21//21 20//20
f 456//456 454//454 35//35
f 464//464 35//35 454//454
f 2//2 14//14 17//17
f 447//447 16//16 468//468
f 447//447 445//445 16//16
f 15//15 469//469 16//16
f 16//16 445//445 15//15
f 455//455 449//449 448//448
f 441//441 450//450 20//20
f 22//22 18//18 9//9
f 446//446 20//20 21//21
f 455//455 457//457 449//449
f 451//451 458//458 452//452
f 40//40 24//24 7//7
f 24//24 38//38 25//25
f 24//24 25//25 7//7
f 459//459 28//28 9//9
f 27//27 40//40 7//7
f 26//26 41//41 28//28
f 28//28 41//41 46//46
f 63//63 27//27 36//36
f 28//28 30//30 9//9
f 30//30 28//28 31//31
f 31//31 28//28 46//46
f 46//46 32//32 31//31
f 31//31 33//33 30//30
f 461//461 460//460 32//32
f 46//46 29//29 32//32
f 29//29 54//54 32//32
f 461//461 32//32 54//54
f 53//53 54//54 29//29
f 37//37 52//52 80//80
f 52//52 446//446 21//21
f 23//23 466//466 21//21
f 21//21 466//466 55//55
f 483//483 467//467 465//465
f 30//30 33//33 34//34
f 462//462 483//483 465//465
f 52//52 21//21 55//55
f 37//37 446//446 52//52
f 15//15 471//471 469//469
f 472//472 492//492 470//470
f 496//496 492//492 472//472
f 85//85 64//64 38//38
f 473//473 39//39 65//65
f 65//65 39//39 66//66
f 40//40 66//66 39//39
f 64//64 25//25 38//38
f 39//39 473//473 24//24
f 40//40 39//39 24//24
f 474//474 76//76 127//127
f 28//28 459//459 493//493
f 493//493 67//67 43//43
f 493//493 26//26 28//28
f 26//26 493//493 41//41
f 46//46 41//41 42//42
f 493//493 42//42 41//41
f 29//29 46//46 42//42
f 42//42 493//493 43//43
f 43//43 29//29 42//42
f 69//69 44//44 43//43
f 69//69 70//70 44//44
f 48//48 44//44 45//45
f 44//44 48//48 43//43
f 70//70 45//45 44//44
f 474//474 27//27 76//76
f 27//27 63//63 76//76
f 29//29 48//48 53//53
f 48//48 47//47 53//53
f 47//47 60//60 53//53
f 45//45 50//50 48//48
f 48//48 29//29 43//43
f 475//475 51//51 478//478
f 52//52 74//74 79//79
f 47//47 48//48 49//49
f 61//61 488//488 476//476
f 49//49 60//60 47//47
f 50//50 49//49 48//48
f 61//61 476//476 62//62
f 479//479 62//62 476//476
f 477//477 478//478 51//51
f 52//52 480//480 74//74
f 52//52 84//84 80//80
f 52//52 79//79 84//84
f 53//53 60//60 54//54
f 61//61 54//54 488//488
f 54//54 61//61 56//56
f 56//56 461//461 54//54
f 484//484 483//483 462//462
f 489//489 57//57 484//484
f 483//483 484//484 57//57
f 485//485 59//59 58//58
f 486//486 57//57 489//489
f 491//491 487//487 490//490
f 58//58 55//55 485//485
f 55//55 58//58 52//52
f 491//491 481//481 487//487
f 59//59 480//480 52//52
f 59//59 52//52 58//58
f 65//65 501//501 473//473
f 40//40 521//521 66//66
f 493//493 502//502 67//67
f 69//69 43//43 67//67
f 502//502 68//68 67//67
f 68//68 69//69 67//67
f 68//68 70//70 69//69
f 502//502 86//86 68//68
f 86//86 71//71 68//68
f 71//71 45//45 70//70
f 70//70 68//68 71//71
f 91//91 475//475 71//71
f 72//72 51//51 475//475
f 482//482 494//494 75//75
f 475//475 91//91 72//72
f 494//494 73//73 75//75
f 74//74 495//495 73//73
f 92//92 88//88 74//74
f 494//494 506//506 73//73
f 507//507 74//74 73//73
f 506//506 507//507 73//73
f 79//79 78//78 84//84
f 74//74 88//88 79//79
f 74//74 480//480 495//495
f 82//82 492//492 496//496
f 497//497 80//80 84//84
f 498//498 81//81 76//76
f 63//63 499//499 76//76
f 81//81 498//498 83//83
f 500//500 497//497 84//84
f 81//81 83//83 95//95
f 508//508 500//500 84//84
f 77//77 76//76 81//81
f 81//81 95//95 77//77
f 97//97 99//99 503//503
f 501//501 96//96 509//509
f 96//96 501//501 65//65
f 510//510 86//86 502//502
f 96//96 65//65 66//66
f 521//521 98//98 96//96
f 521//521 96//96 66//66
f 127//127 76//76 87//87
f 120//120 87//87 76//76
f 105//105 71//71 86//86
f 89//89 71//71 105//105
f 105//105 116//116 504//504
f 118//118 88//88 90//90
f 89//89 93//93 71//71
f 504//504 116//116 505//505
f 78//78 79//79 109//109
f 79//79 88//88 109//109
f 92//92 90//90 88//88
f 93//93 91//91 71//71
f 93//93 89//89 91//91
f 506//506 504//504 507//507
f 504//504 505//505 507//507
f 121//121 94//94 78//78
f 121//121 119//119 94//94
f 94//94 77//77 95//95
f 84//84 94//94 508//508
f 77//77 94//94 119//119
f 84//84 78//78 94//94
f 169//169 509//509 98//98
f 124//124 86//86 511//511
f 509//509 96//96 98//98
f 97//97 123//123 99//99
f 128//128 101//101 100//100
f 522//522 87//87 136//136
f 100//100 101//101 102//102
f 513//513 101//101 103//103
f 132//132 103//103 101//101
f 86//86 512//512 513//513
f 86//86 513//513 103//103
f 86//86 103//103 105//105
f 105//105 103//103 104//104
f 104//104 143//143 106//106
f 104//104 103//103 132//132
f 104//104 132//132 138//138
f 143//143 146//146 106//106
f 146//146 154//154 106//106
f 105//105 104//104 106//106
f 106//106 107//107 105//105
f 106//106 154//154 108//108
f 108//108 107//107 106//106
f 514//514 155//155 107//107
f 107//107 155//155 115//115
f 120//120 136//136 87//87
f 110//110 116//116 105//105
f 110//110 111//111 116//116
f 105//105 107//107 110//110
f 112//112 111//111 110//110
f 113//113 515//515 111//111
f 110//110 107//107 112//112
f 112//112 114//114 111//111
f 114//114 113//113 111//111
f 115//115 112//112 107//107
f 113//113 109//109 118//118
f 113//113 114//114 115//115
f 115//115 114//114 112//112
f 156//156 115//115 537//537
f 115//115 156//156 109//109
f 113//113 115//115 109//109
f 77//77 120//120 76//76
f 117//117 116//116 111//111
f 505//505 116//116 117//117
f 515//515 505//505 117//117
f 111//111 515//515 117//117
f 109//109 88//88 118//118
f 78//78 109//109 121//121
f 77//77 119//119 120//120
f 122//122 167//167 517//517
f 516//516 518//518 169//169
f 168//168 516//516 169//169
f 519//519 548//548 511//511
f 124//124 172//172 176//176
f 169//169 518//518 509//509
f 548//548 124//124 511//511
f 125//125 98//98 521//521
f 169//169 98//98 125//125
f 512//512 86//86 124//124
f 124//124 128//128 512//512
f 124//124 126//126 128//128
f 126//126 124//124 176//176
f 126//126 101//101 128//128
f 177//177 179//179 129//129
f 130//130 174//174 125//125
f 175//175 174//174 181//181
f 129//129 132//132 126//126
f 145//145 139//139 553//553
f 522//522 134//134 520//520
f 125//125 523//523 130//130
f 523//523 135//135 130//130
f 135//135 131//131 130//130
f 140//140 554//554 131//131
f 131//131 135//135 140//140
f 174//174 130//130 131//131
f 554//554 174//174 131//131
f 126//126 132//132 101//101
f 133//133 132//132 129//129
f 179//179 133//133 129//129
f 525//525 133//133 179//179
f 132//132 133//133 525//525
f 134//134 522//522 136//136
f 523//523 140//140 135//135
f 181//181 526//526 141//141
f 134//134 136//136 137//137
f 523//523 524//524 140//140
f 525//525 146//146 138//138
f 132//132 525//525 138//138
f 147//147 146//146 139//139
f 139//139 145//145 147//147
f 136//136 149//149 137//137
f 524//524 150//150 140//140
f 532//532 150//150 524//524
f 527//527 533//533 148//148
f 104//104 138//138 143//143
f 138//138 146//146 143//143
f 146//146 147//147 154//154
f 147//147 145//145 154//154
f 120//120 149//149 136//136
f 120//120 151//151 532//532
f 534//534 148//148 533//533
f 150//150 532//532 151//151
f 152//152 528//528 530//530
f 158//158 152//152 530//530
f 531//531 535//535 540//540
f 535//535 159//159 540//540
f 141//141 526//526 536//536
f 141//141 536//536 153//153
f 153//153 536//536 541//541
f 542//542 153//153 541//541
f 141//141 153//153 142//142
f 142//142 153//153 161//161
f 542//542 543//543 153//153
f 109//109 144//144 184//184
f 154//154 155//155 514//514
f 156//156 157//157 144//144
f 538//538 155//155 154//154
f 156//156 537//537 157//157
f 145//145 538//538 154//154
f 156//156 144//144 109//109
f 144//144 539//539 529//529
f 120//120 542//542 151//151
f 542//542 120//120 160//160
f 543//543 542//542 160//160
f 160//160 120//120 164//164
f 543//543 162//162 142//142
f 543//543 160//160 163//163
f 543//543 163//163 162//162
f 160//160 544//544 163//163
f 162//162 187//187 142//142
f 187//187 162//162 188//188
f 188//188 162//162 163//163
f 544//544 559//559 163//163
f 184//184 545//545 109//109
f 545//545 184//184 189//189
f 120//120 119//119 164//164
f 545//545 121//121 109//109
f 546//546 119//119 121//121
f 168//168 218//218 165//165
f 166//166 168//168 165//165
f 166//166 165//165 190//190
f 165//165 582//582 190//190
f 122//122 166//166 167//167
f 168//168 166//166 122//122
f 547//547 564//564 549//549
f 549//549 564//564 171//171
f 173//173 171//171 564//564
f 215//215 168//168 169//169
f 548//548 170//170 124//124
f 171//171 170//170 549//549
f 170//170 171//171 172//172
f 172//172 171//171 173//173
f 170//170 172//172 124//124
f 176//176 172//172 173//173
f 173//173 178//178 552//552
f 178//178 173//173 227//227
f 169//169 125//125 174//174
f 176//176 129//129 126//126
f 129//129 552//552 177//177
f 552//552 178//178 177//177
f 553//553 589//589 180//180
f 179//179 178//178 227//227
f 178//178 179//179 177//177
f 175//175 181//181 182//182
f 175//175 182//182 199//199
f 145//145 553//553 180//180
f 181//181 141//141 182//182
f 199//199 182//182 185//185
f 573//573 555//555 207//207
f 207//207 555//555 210//210
f 145//145 200//200 206//206
f 182//182 141//141 185//185
f 576//576 144//144 529//529
f 185//185 141//141 142//142
f 142//142 187//187 185//185
f 556//556 558//558 562//562
f 562//562 183//183 556//556
f 189//189 184//184 186//186
f 183//183 563//563 557//557
f 560//560 562//562 558//558
f 189//189 561//561 545//545
f 564//564 227//227 173//173
f 229//229 174//174 191//191
f 191//191 174//174 193//193
f 229//229 191//191 192//192
f 192//192 191//191 193//193
f 231//231 193//193 195//195
f 229//229 192//192 231//231
f 231//231 192//192 193//193
f 232//232 231//231 195//195
f 193//193 174//174 175//175
f 197//197 193//193 175//175
f 194//194 195//195 193//193
f 566//566 196//196 195//195
f 232//232 195//195 196//196
f 230//230 180//180 589//589
f 230//230 201//201 180//180
f 567//567 565//565 569//569
f 205//205 567//567 569//569
f 205//205 203//203 566//566
f 566//566 203//203 196//196
f 196//196 203//203 198//198
f 551//551 573//573 569//569
f 145//145 180//180 200//200
f 180//180 201//201 202//202
f 200//200 180//180 202//202
f 200//200 202//202 206//206
f 202//202 201//201 230//230
f 202//202 240//240 206//206
f 207//207 569//569 573//573
f 569//569 207//207 205//205
f 205//205 209//209 203//203
f 203//203 204//204 570//570
f 204//204 203//203 209//209
f 205//205 207//207 208//208
f 208//208 209//209 205//205
f 208//208 207//207 210//210
f 208//208 210//210 577//577
f 574//574 577//577 210//210
f 212//212 268//268 210//210
f 210//210 268//268 574//574
f 212//212 213//213 211//211
f 578//578 184//184 144//144
f 212//212 210//210 555//555
f 556//556 183//183 212//212
f 213//213 212//212 183//183
f 213//213 183//183 557//557
f 579//579 186//186 578//578
f 186//186 184//184 578//578
f 275//275 218//218 168//168
f 242//242 168//168 214//214
f 216//216 214//214 215//215
f 243//243 242//242 214//214
f 243//243 214//214 216//216
f 217//217 581//581 580//580
f 217//217 594//594 581//581
f 580//580 248//248 217//217
f 221//221 220//220 249//249
f 249//249 253//253 221//221
f 582//582 252//252 219//219
f 252//252 583//583 219//219
f 219//219 583//583 584//584
f 223//223 219//219 584//584
f 249//249 220//220 608//608
f 221//221 253//253 223//223
f 214//214 168//168 215//215
f 190//190 582//582 219//219
f 219//219 222//222 190//190
f 585//585 225//225 564//564
f 223//223 222//222 219//219
f 223//223 258//258 222//222
f 585//585 261//261 225//225
f 226//226 260//260 227//227
f 258//258 223//223 253//253
f 587//587 255//255 259//259
f 248//248 580//580 550//550
f 227//227 564//564 224//224
f 564//564 225//225 224//224
f 225//225 588//588 586//586
f 225//225 261//261 588//588
f 227//227 224//224 226//226
f 280//280 589//589 260//260
f 248//248 169//169 228//228
f 174//174 228//228 169//169
f 229//229 228//228 174//174
f 232//232 266//266 229//229
f 589//589 233//233 230//230
f 233//233 589//589 267//267
f 232//232 229//229 231//231
f 234//234 266//266 232//232
f 266//266 574//574 268//268
f 233//233 273//273 272//272
f 238//238 233//233 272//272
f 232//232 568//568 234//234
f 571//571 575//575 590//590
f 568//568 572//572 234//234
f 234//234 574//574 266//266
f 202//202 230//230 240//240
f 230//230 235//235 241//241
f 233//233 235//235 230//230
f 235//235 236//236 241//241
f 236//236 271//271 237//237
f 238//238 235//235 233//233
f 271//271 236//236 235//235
f 239//239 241//241 237//237
f 144//144 591//591 237//237
f 576//576 591//591 144//144
f 144//144 271//271 300//300
f 241//241 236//236 237//237
f 144//144 237//237 271//271
f 240//240 239//239 206//206
f 241//241 239//239 240//240
f 230//230 241//241 240//240
f 212//212 211//211 636//636
f 300//300 578//578 144//144
f 244//244 592//592 595//595
f 278//278 597//597 596//596
f 278//278 596//596 246//246
f 619//619 279//279 245//245
f 168//168 242//242 275//275
f 248//248 246//246 594//594
f 246//246 248//248 247//247
f 245//245 252//252 582//582
f 619//619 245//245 582//582
f 598//598 257//257 256//256
f 279//279 614//614 245//245
f 262//262 614//614 279//279
f 248//248 594//594 217//217
f 250//250 254//254 601//601
f 254//254 251//251 601//601
f 605//605 253//253 249//249
f 606//606 611//611 256//256
f 599//599 602//602 609//609
f 250//250 601//601 610//610
f 600//600 613//613 603//603
f 604//604 256//256 611//611
f 606//606 256//256 617//617
f 256//256 255//255 617//617
f 614//614 262//262 612//612
f 257//257 255//255 256//256
f 247//247 248//248 228//228
f 605//605 258//258 253//253
f 261//261 615//615 607//607
f 262//262 616//616 612//612
f 585//585 615//615 261//261
f 587//587 617//617 255//255
f 262//262 260//260 616//616
f 260//260 226//226 616//616
f 280//280 260//260 262//262
f 262//262 279//279 280//280
f 228//228 229//229 266//266
f 263//263 267//267 589//589
f 263//263 589//589 280//280
f 263//263 280//280 264//264
f 263//263 264//264 267//267
f 265//265 267//267 264//264
f 265//265 273//273 267//267
f 618//618 269//269 273//273
f 265//265 296//296 269//269
f 270//270 269//269 296//296
f 273//273 233//233 267//267
f 212//212 274//274 268//268
f 636//636 268//268 274//274
f 273//273 269//269 272//272
f 238//238 272//272 269//269
f 235//235 238//238 269//269
f 269//269 270//270 235//235
f 212//212 636//636 274//274
f 271//271 270//270 637//637
f 235//235 270//270 271//271
f 619//619 301//301 276//276
f 303//303 316//316 279//279
f 242//242 302//302 275//275
f 597//597 304//304 638//638
f 276//276 279//279 619//619
f 276//276 303//303 279//279
f 638//638 593//593 597//597
f 247//247 278//278 246//246
f 304//304 278//278 247//247
f 597//597 278//278 304//304
f 316//316 277//277 279//279
f 277//277 318//318 279//279
f 304//304 247//247 228//228
f 305//305 304//304 228//228
f 318//318 280//280 279//279
f 308//308 281//281 319//319
f 318//318 281//281 280//280
f 309//309 228//228 266//266
f 280//280 265//265 264//264
f 281//281 265//265 280//280
f 266//266 283//283 309//309
f 286//286 640//640 284//284
f 310//310 640//640 286//286
f 287//287 288//288 281//281
f 282//282 287//287 281//281
f 281//281 288//288 265//265
f 282//282 294//294 290//290
f 311//311 295//295 294//294
f 266//266 268//268 283//283
f 640//640 620//620 284//284
f 284//284 285//285 286//286
f 284//284 620//620 285//285
f 621//621 313//313 286//286
f 313//313 621//621 314//314
f 289//289 288//288 287//287
f 289//289 629//629 288//288
f 282//282 290//290 287//287
f 290//290 291//291 289//289
f 287//287 290//290 289//289
f 291//291 293//293 289//289
f 293//293 292//292 289//289
f 289//289 292//292 630//630
f 290//290 293//293 291//291
f 298//298 622//622 624//624
f 293//293 290//290 294//294
f 294//294 295//295 625//625
f 633//633 626//626 299//299
f 627//627 298//298 624//624
f 314//314 635//635 312//312
f 312//312 635//635 628//628
f 628//628 641//641 312//312
f 268//268 621//621 283//283
f 637//637 297//297 314//314
f 636//636 314//314 268//268
f 268//268 314//314 621//621
f 265//265 288//288 296//296
f 623//623 634//634 631//631
f 633//633 632//632 296//296
f 270//270 297//297 637//637
f 632//632 270//270 296//296
f 297//297 635//635 314//314
f 632//632 633//633 299//299
f 275//275 302//302 301//301
f 301//301 303//303 276//276
f 331//331 277//277 316//316
f 318//318 277//277 331//331
f 304//304 305//305 336//336
f 228//228 309//309 305//305
f 309//309 306//306 305//305
f 324//324 307//307 326//326
f 645//645 281//281 318//318
f 311//311 308//308 319//319
f 306//306 640//640 307//307
f 307//307 640//640 326//326
f 326//326 640//640 310//310
f 308//308 282//282 281//281
f 308//308 311//311 282//282
f 312//312 325//325 314//314
f 286//286 313//313 310//310
f 313//313 314//314 310//310
f 282//282 311//311 294//294
f 315//315 328//328 639//639
f 302//302 328//328 301//301
f 301//301 316//316 303//303
f 341//341 642//642 638//638
f 341//341 638//638 304//304
f 656//656 304//304 336//336
f 335//335 318//318 331//331
f 318//318 335//335 645//645
f 652//652 305//305 320//320
f 652//652 320//320 317//317
f 317//317 320//320 337//337
f 322//322 324//324 323//323
f 321//321 305//305 306//306
f 306//306 307//307 321//321
f 647//647 307//307 322//322
f 322//322 307//307 324//324
f 648//648 324//324 337//337
f 322//322 323//323 647//647
f 324//324 326//326 337//337
f 305//305 321//321 320//320
f 648//648 337//337 320//320
f 323//323 646//646 647//647
f 338//338 337//337 326//326
f 653//653 326//326 325//325
f 326//326 310//310 314//314
f 314//314 325//325 326//326
f 312//312 641//641 649//649
f 340//340 327//327 643//643
f 315//315 650//650 328//328
f 329//329 316//316 328//328
f 330//330 316//316 329//329
f 330//330 331//331 316//316
f 316//316 301//301 328//328
f 341//341 652//652 345//345
f 332//332 335//335 331//331
f 335//335 332//332 347//347
f 332//332 331//331 333//333
f 651//651 333//333 334//334
f 651//651 334//334 346//346
f 332//332 659//659 347//347
f 345//345 652//652 338//338
f 335//335 347//347 350//350
f 337//337 652//652 317//317
f 337//337 338//338 652//652
f 335//335 350//350 645//645
f 350//350 641//641 645//645
f 649//649 641//641 350//350
f 649//649 350//350 654//654
f 360//360 351//351 352//352
f 352//352 351//351 655//655
f 354//354 642//642 341//341
f 662//662 642//642 354//354
f 351//351 327//327 340//340
f 353//353 339//339 650//650
f 353//353 329//329 328//328
f 644//644 352//352 655//655
f 351//351 353//353 327//327
f 339//339 328//328 650//650
f 353//353 367//367 329//329
f 339//339 353//353 328//328
f 330//330 329//329 367//367
f 668//668 355//355 330//330
f 355//355 331//331 330//330
f 342//342 355//355 358//358
f 342//342 343//343 349//349
f 349//349 344//344 342//342
f 358//358 343//343 342//342
f 349//349 343//343 358//358
f 331//331 355//355 342//342
f 345//345 356//356 341//341
f 331//331 342//342 333//333
f 342//342 346//346 334//334
f 333//333 342//342 334//334
f 342//342 344//344 346//346
f 348//348 347//347 659//659
f 349//349 347//347 660//660
f 657//657 348//348 659//659
f 344//344 349//349 660//660
f 349//349 658//658 350//350
f 658//658 654//654 350//350
f 349//349 350//350 347//347
f 353//353 351//351 380//380
f 662//662 354//354 361//361
f 354//354 341//341 361//361
f 363//363 355//355 668//668
f 363//363 358//358 355//355
f 357//357 665//665 666//666
f 365//365 341//341 356//356
f 661//661 665//665 357//357
f 658//658 349//349 359//359
f 349//349 664//664 359//359
f 359//359 663//663 658//658
f 360//360 377//377 372//372
f 377//377 360//360 352//352
f 380//380 351//351 372//372
f 351//351 360//360 372//372
f 353//353 380//380 367//367
f 384//384 363//363 668//668
f 368//368 341//341 365//365
f 364//364 362//362 357//357
f 357//357 666//666 364//364
f 667//667 663//663 359//359
f 359//359 664//664 371//371
f 667//667 359//359 670//670
f 357//357 362//362 671//671
f 375//375 380//380 372//372
f 662//662 379//379 672//672
f 379//379 662//662 366//366
f 382//382 366//366 662//662
f 361//361 382//382 662//662
f 382//382 368//368 383//383
f 382//382 361//361 368//368
f 380//380 381//381 367//367
f 674//674 384//384 668//668
f 361//361 341//341 368//368
f 675//675 368//368 369//369
f 385//385 669//669 670//670
f 384//384 370//370 364//364
f 364//364 666//666 384//384
f 365//365 369//369 368//368
f 670//670 669//669 667//667
f 364//364 370//370 362//362
f 370//370 671//671 362//362
f 372//372 377//377 378//378
f 673//673 379//379 373//373
f 372//372 378//378 373//373
f 375//375 372//372 376//376
f 373//373 387//387 374//374
f 373//373 374//374 372//372
f 386//386 376//376 374//374
f 375//375 376//376 386//386
f 374//374 387//387 386//386
f 372//372 374//374 376//376
f 392//392 387//387 373//373
f 392//392 373//373 379//379
f 379//379 673//673 672//672
f 380//380 399//399 381//381
f 366//366 382//382 379//379
f 383//383 379//379 382//382
f 401//401 676//676 385//385
f 384//384 674//674 388//388
f 388//388 370//370 384//384
f 388//388 677//677 370//370
f 669//669 385//385 676//676
f 671//671 370//370 677//677
f 389//389 375//375 386//386
f 392//392 386//386 387//387
f 392//392 379//379 383//383
f 380//380 375//375 389//389
f 397//397 381//381 399//399
f 392//392 383//383 400//400
f 400//400 676//676 401//401
f 677//677 388//388 401//401
f 404//404 405//405 389//389
f 386//386 404//404 389//389
f 390//390 389//389 405//405
f 389//389 390//390 380//380
f 390//390 399//399 380//380
f 390//390 412//412 399//399
f 394//394 392//392 391//391
f 393//393 391//391 395//395
f 391//391 400//400 395//395
f 393//393 394//394 391//391
f 409//409 392//392 394//394
f 414//414 394//394 393//393
f 414//414 393//393 417//417
f 402//402 393//393 395//395
f 402//402 396//396 393//393
f 420//420 416//416 396//396
f 396//396 417//417 393//393
f 674//674 397//397 398//398
f 396//396 674//674 398//398
f 421//421 398//398 397//397
f 420//420 396//396 398//398
f 420//420 398//398 684//684
f 679//679 397//397 399//399
f 400//400 391//391 392//392
f 402//402 400//400 401//401
f 401//401 388//388 396//396
f 396//396 388//388 674//674
f 400//400 402//402 395//395
f 401//401 396//396 402//402
f 403//403 386//386 408//408
f 386//386 403//403 678//678
f 422//422 678//678 403//403
f 404//404 406//406 405//405
f 390//390 405//405 410//410
f 422//422 406//406 678//678
f 405//405 406//406 407//407
f 407//407 431//431 410//410
f 407//407 410//410 405//405
f 422//422 423//423 406//406
f 423//423 407//407 406//406
f 408//408 386//386 392//392
f 408//408 392//392 409//409
f 403//403 408//408 424//424
f 409//409 424//424 408//408
f 432//432 435//435 410//410
f 417//417 418//418 427//427
f 427//427 418//418 433//433
f 688//688 682//682 419//419
f 688//688 419//419 691//691
f 411//411 412//412 390//390
f 411//411 410//410 412//412
f 410//410 413//413 412//412
f 411//411 390//390 410//410
f 413//413 410//410 435//435
f 680//680 692//692 683//683
f 415//415 394//394 414//414
f 415//415 409//409 394//394
f 414//414 417//417 681//681
f 417//417 396//396 418//418
f 396//396 416//416 418//418
f 682//682 416//416 419//419
f 420//420 419//419 416//416
f 419//419 420//420 684//684
f 679//679 680//680 397//397
f 680//680 421//421 397//397
f 683//683 421//421 680//680
f 403//403 424//424 422//422
f 423//423 685//685 430//430
f 431//431 407//407 423//423
f 434//434 431//431 423//423
f 426//426 425//425 409//409
f 409//409 415//415 426//426
f 427//427 681//681 417//417
f 425//425 424//424 409//409
f 427//427 426//426 681//681
f 424//424 428//428 685//685
f 424//424 425//425 428//428
f 426//426 429//429 425//425
f 426//426 427//427 429//429
f 685//685 428//428 430//430
f 425//425 429//429 428//428
f 429//429 430//430 428//428
f 432//432 410//410 431//431
f 687//687 431//431 689//689
f 693//693 687//687 689//689
f 690//690 427//427 433//433
f 434//434 689//689 431//431
f 423//423 430//430 434//434
f 429//429 427//427 690//690
f 686//686 429//429 690//690
