# Wavafront OBJ file of BodyParts3D
# BodyParts3D, Copyright(C) 2010-2011 The Database Center for Life Science licensed under CC Attribution-Share Alike 2.1 Japan.
vn -0.669451 -0.202464 -0.714733
v 78.7233 -169.161 0.05176
vn -0.110598 -0.0704665 -0.991364
v 79.8232 -167.037 -0.682843
vn -0.329672 -0.144661 -0.932947
v 79.2112 -168.137 -0.403143
vn -0.0669262 0.0786712 -0.994652
v 79.3118 -163.865 -0.632687
vn -0.466286 -0.0116294 -0.884557
v 78.161 -164.393 -0.239782
vn -0.64298 0.00056076 -0.765883
v 77.4806 -162.924 0.207001
vn -0.887669 -0.152822 -0.434384
v 77.3617 -163.971 0.472905
vn -0.87873 -0.0582315 -0.473755
v 76.9713 -162.017 0.744409
vn -0.247847 0.216953 -0.944195
v 78.6636 -159.169 0.27393
vn -0.983188 -0.174052 -0.055194
v 76.5033 -159.923 1.60301
vn -0.413289 0.151019 -0.89799
v 77.5681 -158.909 0.572583
vn -0.904536 0.0033928 -0.426384
v 76.405 -159.131 1.65696
vn -0.637019 0.1451 -0.757069
v 76.8758 -158.227 1.15306
vn -0.28672 -0.328146 -0.900062
v 80.4314 -173.972 0.81155
vn 0.0319924 -0.267639 -0.962988
v 80.7877 -173.097 0.482461
vn -0.632537 -0.335189 -0.698244
v 79.4512 -173.289 1.02604
vn -0.00848435 -0.197914 -0.980183
v 80.4791 -170.237 -0.244521
vn -0.328616 -0.256534 -0.908957
v 79.4606 -170.572 0.017734
vn -0.960702 -0.228063 -0.158237
v 78.5537 -170.767 1.10749
vn 0.258635 -0.115251 -0.959075
v 81.0102 -168.544 -0.470831
vn -0.798652 -0.0711544 0.597572
v 78.392 -168.629 1.8423
vn 0.517209 -0.0203673 -0.855617
v 81.8337 -165.843 -0.338366
vn 0.163138 0.00772344 -0.986573
v 80.8751 -165.515 -0.634044
vn -0.518281 -0.158464 0.840401
v 77.9161 -165.259 1.98304
vn 0.315111 0.07828 -0.945821
v 81.5699 -163.243 -0.36925
vn 0.315174 0.14939 -0.937202
v 81.6679 -162.038 -0.184386
vn -0.935665 -0.201951 0.289392
v 77.3248 -163.681 1.69448
vn -0.144423 0.158418 -0.976753
v 79.5681 -161.052 -0.307999
vn -0.67409 -0.311478 0.669764
v 77.3114 -161.734 2.48045
vn -0.910001 -0.285421 0.300719
v 76.5917 -160.155 2.03852
vn -0.801213 -0.34947 0.485726
v 76.9063 -160.012 3.06414
vn -0.465883 -0.404537 0.786958
v 77.1301 -159.852 3.39807
vn -0.805027 -0.335668 0.489141
v 76.4704 -158.094 3.67334
vn -0.712585 -0.348112 0.609131
v 76.6728 -158.485 3.76614
vn 0.103481 0.249559 -0.962815
v 79.7173 -155.073 0.883956
vn -0.683882 0.109604 -0.721313
v 76.1716 -152.033 3.29192
vn -0.437029 0.113306 -0.892282
v 77.1502 -148.899 3.28513
vn -0.737 0.0405726 -0.674674
v 74.2298 -140.771 5.98223
vn -0.0961906 -0.33485 -0.937349
v 81.4833 -177.176 1.75341
vn -0.468502 -0.428922 -0.772355
v 81.0535 -176.608 1.66161
vn 0.174356 -0.249895 -0.952445
v 81.9263 -174.239 1.06339
vn -0.805462 -0.394861 -0.441946
v 79.624 -174.535 1.61796
vn -0.958307 -0.282187 -0.0449334
v 79.3631 -174.422 2.29227
vn 0.498149 -0.172245 -0.849811
v 81.3672 -172.632 0.495287
vn 0.928395 0.031496 -0.370257
v 81.9032 -172.629 1.0916
vn -0.875777 -0.107435 0.470609
v 79.0934 -173.059 2.53544
vn -0.769102 -0.037048 0.638051
v 79.3332 -172.457 2.85947
vn -0.0928478 0.207104 0.973903
v 79.9641 -172.815 3.09408
vn 0.895247 -0.116736 -0.430007
v 81.7716 -171.597 0.692555
vn 0.998806 0.004112 0.0486713
v 81.9208 -171.347 1.34013
vn 0.865532 0.117826 0.486796
v 81.7263 -170.898 1.84775
vn 0.173157 0.196817 0.965028
v 80.8072 -170.867 2.64635
vn -0.98117 -0.179063 0.0724033
v 78.7516 -171.661 2.30402
vn -0.578582 0.0374936 0.814762
v 78.9858 -171.262 2.63122
vn 0.997209 -0.0553343 -0.0501129
v 82.1349 -168.528 0.680329
vn 0.889438 0.0136734 0.456852
v 82.0368 -168.579 1.13286
vn 0.65347 0.0945129 0.751029
v 81.1472 -168.973 2.19984
vn 0.273789 0.121204 0.954122
v 80.9721 -169 2.29762
vn -0.189173 0.0761995 0.978983
v 79.0846 -169.001 2.31304
vn 0.685033 -0.121409 -0.718324
v 81.8339 -168.288 -0.099223
vn 0.915652 -0.0956317 -0.39043
v 82.0617 -168.293 0.230476
vn 0.899117 -0.031934 -0.436542
v 82.1123 -165.547 -0.046804
vn 0.417828 -0.0366923 0.907785
v 81.0485 -164.927 2.00832
vn -0.0544705 -0.125523 0.990594
v 78.9751 -164.177 2.42907
vn 0.769058 0.0557762 -0.636741
v 82.1054 -163.217 -0.026863
vn 0.999839 -0.000100344 -0.017944
v 82.2334 -163.24 0.381213
vn 0.991228 0.0850299 -0.101173
v 82.2177 -162.234 0.3998
vn 0.976809 0.0217192 0.213006
v 82.0524 -162.527 1.21378
vn 0.7708 0.14154 -0.621155
v 81.9751 -161.625 0.085459
vn 0.996123 0.087971 -0.000241071
v 82.0803 -161.249 0.513969
vn 0.986431 0.0870847 0.139179
v 81.8261 -160.575 1.69407
vn 0.628451 -0.16973 0.759105
v 81.0227 -160.94 2.55028
vn -0.0270846 -0.324563 0.945476
v 78.6735 -161.437 3.04306
vn 0.93045 0.165092 -0.32712
v 81.9799 -159.45 0.604011
vn 0.954817 0.103071 0.278749
v 81.9889 -159.471 0.843175
vn 0.983271 0.137641 0.119302
v 81.821 -159.923 1.18105
vn 0.568501 0.237752 -0.787579
v 81.6775 -158.472 0.593474
vn 0.90785 0.131106 0.398272
v 81.5901 -158.338 1.2455
vn -0.610745 -0.364422 0.702985
v 76.725 -158.095 3.98201
vn -0.353755 -0.400566 0.845225
v 76.9046 -158.086 4.09525
vn 0.296612 0.260873 -0.918677
v 81.2299 -156.533 0.957537
vn 0.965673 0.244391 -0.0880268
v 81.4369 -156.923 1.04681
vn 0.964896 0.164249 0.204935
v 81.1488 -156.415 1.78537
vn 0.316871 0.283543 -0.905095
v 80.6589 -154.414 1.41975
vn 0.79479 0.286437 -0.535035
v 80.7322 -154.223 1.61776
vn 0.830775 0.213265 -0.51413
v 80.5656 -153.243 1.75487
vn 0.980383 0.190184 0.0517593
v 80.6731 -154.054 1.9197
vn 0.979244 0.201642 -0.0205292
v 80.6706 -154.1 2.43029
vn 0.409014 0.283771 -0.867284
v 80.1781 -151.495 2.07048
vn -0.985423 -0.157837 -0.0634679
v 74.9912 -151.967 5.63799
vn -0.712456 -0.384892 0.58674
v 75.3986 -152.717 6.07633
vn -0.00266456 0.270155 -0.962813
v 79.4425 -149.794 2.40508
vn 0.432776 0.288918 -0.85395
v 80.0807 -150.328 2.44305
vn -0.765356 -0.314688 0.561428
v 74.8371 -150.472 6.7863
vn -0.00426235 0.268172 -0.963362
v 79.0573 -148.003 2.97355
vn 0.143971 0.285345 -0.94755
v 79.6071 -148.592 2.79194
vn 0.974304 0.225226 -0.00243553
v 79.6249 -148.41 3.03353
vn -0.338002 0.206702 -0.918166
v 78.2339 -149.555 2.88198
vn -0.965423 -0.180887 0.18772
v 74.5834 -149.486 6.75017
vn 0.308925 0.295723 -0.903943
v 79.1277 -146.348 3.43737
vn 0.987063 0.148435 0.0606148
v 79.1957 -146.491 3.63742
vn -0.222107 0.202767 -0.953705
v 77.7555 -147.234 3.45156
vn 0.97602 0.20433 -0.0750576
v 79.1549 -146.723 3.92252
vn 0.991579 0.113234 0.0628367
v 79.0998 -145.701 3.71775
vn 0.131481 0.252642 -0.958585
v 78.884 -145.553 3.63392
vn 0.639414 0.237691 -0.7312
v 78.6708 -143.557 4.06846
vn 0.853245 0.202544 -0.480571
v 78.8027 -143.758 4.21788
vn 0.825039 0.260526 -0.501435
v 78.7034 -142.772 4.35981
vn -0.85241 -0.00730456 -0.522824
v 74.1764 -143.628 6.24901
vn 0.313472 0.227047 -0.922055
v 77.9884 -140.469 4.62425
vn -0.292411 0.158386 -0.943085
v 75.815 -141.117 4.97984
vn 0.0491723 0.252056 -0.966463
v 77.477 -138.326 5.1116
vn -0.177195 0.246193 -0.952886
v 75.8657 -134.755 6.15619
vn -0.431394 0.203116 -0.879001
v 74.6487 -135.513 6.39699
vn -0.798797 0.097841 -0.593592
v 73.6833 -135.481 7.13663
vn -0.550846 0.207488 -0.808405
v 73.9809 -132.259 7.59042
vn -0.327877 -0.551734 -0.766868
v 82.6114 -180.409 3.11238
vn -0.244579 -0.432848 -0.867654
v 82.0121 -178.368 2.15714
vn -0.00306623 -0.318137 -0.94804
v 82.7472 -178.493 2.17256
vn -0.652573 -0.502994 -0.566697
v 81.443 -178.677 2.67041
vn -0.899383 -0.429806 0.0798564
v 80.9606 -178.677 4.34478
vn 0.818691 0.138082 -0.557386
v 83.0686 -178.078 2.43129
vn -0.8411 -0.475165 -0.258399
v 80.7101 -177.995 3.19931
vn -0.915358 -0.391972 -0.092076
v 80.3648 -177.418 3.54407
vn 0.972055 0.233987 0.0189355
v 82.4656 -175.118 2.48865
vn -0.931168 -0.245767 0.269305
v 80.1463 -176.712 3.97473
vn -0.656576 0.0229894 0.75391
v 80.3595 -176.72 4.3159
vn -0.170413 0.27768 0.945438
v 80.6187 -176.495 4.36785
vn 0.943947 0.134933 -0.301261
v 82.2495 -174.655 1.57
vn 0.814921 0.333559 0.473965
v 82.1778 -174.575 2.8991
vn 0.536086 0.344428 0.770701
v 81.6456 -175.116 3.73376
vn 0.972859 0.164677 0.162565
v 81.9916 -172.682 1.78506
vn 0.827966 0.232653 0.510241
v 81.7315 -172.568 2.45752
vn 0.459093 0.289476 0.839903
v 81.353 -172.652 2.93754
vn 0.592247 0.188608 0.783372
v 81.1844 -170.812 2.48518
vn 0.653081 -0.237692 0.719018
v 80.3838 -157.884 3.73567
vn 0.388698 -0.359761 0.848225
v 79.6069 -157.824 4.39473
vn 0.819372 0.249253 -0.516239
v 81.3951 -156.463 2.60917
vn 0.927676 0.173899 -0.330418
v 81.6066 -157.053 2.69366
vn 0.567674 -0.29648 0.768014
v 79.8557 -157.401 4.48006
vn 0.639099 0.201849 -0.742166
v 81.505 -155.48 3.03774
vn 0.813509 -0.176285 0.554191
v 81.4792 -155.513 3.37789
vn 0.969185 -0.241233 0.0498747
v 81.6832 -154.687 3.41142
vn 0.710407 -0.188845 0.677982
v 81.5182 -154.722 3.60655
vn 0.668646 -0.180648 0.721304
v 80.0121 -155.988 4.67189
vn 0.719726 0.190793 -0.667527
v 81.5814 -153.696 3.49763
vn 0.956345 0.144072 -0.25426
v 81.6667 -153.705 3.69879
vn 0.990893 0.134032 0.0129247
v 81.5318 -152.741 4.05141
vn 0.33906 -0.308199 0.888848
v 78.6096 -153.467 6.39889
vn -0.0149454 -0.364474 0.931094
v 77.9569 -153.215 6.60566
vn 0.558457 0.266312 -0.785623
v 80.6518 -152.177 3.47479
vn 0.513673 0.2267 -0.827495
v 81.5051 -152.521 3.81936
vn 0.898185 -0.262669 -0.352517
v 81.6266 -152.321 3.9795
vn 0.594064 0.155453 -0.789254
v 81.3427 -150.555 4.2137
vn -0.286267 -0.370298 0.883703
v 75.7084 -150.431 7.37351
vn 0.310433 0.271706 -0.910938
v 81.0594 -149.192 4.44494
vn -0.432435 -0.298094 0.850964
v 75.4146 -148.892 7.8686
vn 0.885909 0.252613 -0.389041
v 79.2714 -146.748 4.33963
vn -0.760845 -0.219678 0.61062
v 74.5507 -147.362 7.79415
vn -0.205024 -0.263166 0.942713
v 75.7237 -148.278 8.14812
vn 0.982278 0.186135 -0.0219964
v 78.3695 -141.234 4.82871
vn 0.357839 0.241413 -0.902037
v 78.2942 -139.532 4.89849
vn 0.235419 0.30688 -0.922173
v 78.1858 -139.248 4.9855
vn 0.979347 -0.200039 -0.029394
v 78.314 -138.642 5.12502
vn 0.979347 -0.200039 -0.029394
v 78.2164 -139.133 5.21662
vn 0.919925 -0.0361173 0.390428
v 78.0968 -139.291 5.35542
vn 0.134831 0.277536 -0.951207
v 78.3108 -138.53 5.14613
vn 0.98924 0.14624 0.00417987
v 77.967 -138.952 5.92077
vn 0.82994 -0.312572 -0.462059
v 78.4178 -138.648 5.31566
vn -0.00936203 0.376285 -0.926456
v 78.3221 -138.444 5.18014
vn 0.731565 -0.102909 0.67396
v 78.0856 -138.5 5.52022
vn 0.0598498 0.300716 -0.951834
v 78.3516 -138.246 5.26237
vn -0.952619 -0.153889 0.262363
v 78.3587 -138.456 5.36336
vn -0.863969 0.297732 -0.406095
v 78.2495 -138.286 5.45028
vn 0.0730687 0.291188 -0.953871
v 78.4861 -138.232 5.26453
vn 0.167993 0.239455 -0.956263
v 77.8666 -135.92 5.76608
vn 0.585478 -0.153015 0.796117
v 78.2383 -136.889 5.75202
vn 0.730035 -0.102135 0.675734
v 77.8942 -136.35 6.0896
vn -0.897801 -0.166342 0.407778
v 73.4081 -137.744 9.51575
vn 0.0264728 0.271207 -0.962157
v 77.2989 -134.989 5.96389
vn 0.25043 0.253926 -0.934241
v 77.9544 -135.322 5.95516
vn 0.895989 0.0150049 0.443822
v 77.8495 -135.161 6.29315
vn -0.996023 -0.0890899 0.00119858
v 72.8766 -135.146 9.18652
vn 0.157776 0.292636 -0.943118
v 77.4923 -133.789 6.32814
vn 0.93193 0.0263171 0.361682
v 77.6051 -133.241 6.75165
vn -0.598369 -0.238314 0.764958
v 73.3817 -134.611 10.5737
vn 0.878762 0.165026 -0.44782
v 77.4605 -131.442 7.13099
vn 0.906043 0.00962832 0.423077
v 77.3094 -131.682 7.38153
vn -0.939748 -0.139122 0.31228
v 73.0086 -132.255 10.8818
vn 0.872301 -0.0176042 -0.488652
v 77.1848 -129.697 7.6131
vn -0.0659824 0.328513 -0.942192
v 76.8359 -129.728 7.54741
vn 0.0839269 0.301406 -0.949795
v 77.0788 -130.128 7.43936
vn 0.928444 -0.0160555 0.371126
v 77.1748 -130.304 7.61718
vn -0.957443 0.0250394 -0.287536
v 72.845 -131.153 9.66352
vn 0.175762 0.329556 -0.927632
v 76.97 -129.13 7.78553
vn -0.319574 0.264093 -0.910015
v 73.9669 -126.944 9.10146
vn -0.196593 0.265173 -0.943946
v 74.639 -126.862 8.99479
vn -0.692666 0.167573 -0.701522
v 73.5983 -127.432 9.17566
vn -0.123096 0.24089 -0.962715
v 75.0025 -124.857 9.5841
vn -0.462262 0.137958 -0.875946
v 74.1798 -124.74 9.54405
vn -0.546238 0.163167 -0.821584
v 73.4276 -124.058 10.0484
vn -0.171155 -0.583721 -0.79371
v 84.4814 -181.605 3.58831
vn -0.103 -0.451378 -0.886368
v 83.5778 -180.084 2.78169
vn 0.667467 0.0524158 -0.742792
v 84.3976 -180.851 3.40442
vn -0.792386 -0.581357 -0.184795
v 82.186 -180.748 4.1288
vn 0.592442 -0.00679993 -0.805584
v 83.6087 -179.665 2.75999
vn 0.365711 0.602405 0.709481
v 83.1784 -178.322 4.63341
vn -0.863708 -0.428802 0.264834
v 81.3476 -179.283 4.79514
vn -0.694 -0.163497 0.701165
v 81.5413 -179.294 5.1516
vn -0.0917851 0.307711 0.947042
v 81.5752 -178.671 5.12878
vn 0.902156 0.424127 0.0789335
v 83.1952 -177.557 3.52003
vn 0.729305 0.492409 0.475023
v 82.9734 -177.415 3.92364
vn 0.642136 0.61154 0.462256
v 83.2783 -178.011 4.17709
vn 0.451155 0.467421 0.760248
v 82.4772 -177.3 4.29871
vn -0.855881 -0.263669 0.444911
v 80.8996 -178.307 4.6446
vn 0.170776 0.34479 0.923014
v 81.4043 -176.615 4.3953
vn 0.621638 0.411407 0.666567
v 82.3666 -176.174 3.75851
vn 0.787716 -0.0975779 0.608262
v 81.4045 -151.781 4.45371
vn 0.874101 0.0151742 -0.485507
v 81.4777 -150.763 4.45016
vn 0.140984 0.19407 -0.970804
v 81.523 -150.108 4.32912
vn 0.502839 0.315434 -0.80477
v 81.3426 -149.568 4.47436
vn 0.898602 0.0205702 0.438282
v 81.307 -149.603 4.82215
vn 0.0118976 -0.301961 0.953246
v 77.7145 -150.24 7.62379
vn 0.45922 -0.210789 0.862951
v 78.1825 -150.186 7.57806
vn 0.235828 0.266412 -0.934564
v 81.0949 -147.415 4.93699
vn 0.973212 0.0368855 0.226931
v 81.1133 -146.831 5.20243
vn 0.0733929 -0.241908 0.967519
v 77.2987 -148.314 8.17148
vn 0.798327 -0.0712013 0.598
v 80.3893 -145.387 6.24199
vn 0.795609 -0.0703061 0.601717
v 80.2512 -146.235 6.52821
vn 0.721466 0.280903 -0.632914
v 80.6441 -144.115 5.87326
vn 0.821713 -0.085574 0.56344
v 80.7854 -144.31 5.96295
vn 0.759638 -0.10867 0.641203
v 80.7683 -144.116 6.03126
vn 0.325086 -0.190456 -0.926307
v 80.8933 -143.89 5.9145
vn 0.248403 0.27788 -0.927943
v 79.5493 -143.226 5.92409
vn 0.0405236 0.230614 -0.972201
v 79.8777 -140.831 6.62092
vn 0.893154 0.0742034 -0.443588
v 80.1998 -140.4 6.70222
vn 0.79952 -0.0448288 0.598964
v 80.3175 -140.608 6.90453
vn 0.704871 -0.080469 0.704757
v 79.3337 -141.425 8.08269
vn 0.0914466 0.301123 -0.94919
v 79.6416 -139.077 7.04404
vn 0.0362 0.304147 -0.951937
v 80.3655 -139.787 6.82417
vn 0.173315 0.384372 -0.906763
v 80.0768 -139.234 7.06066
vn 0.854285 0.104283 0.509237
v 80.0312 -139.051 7.21891
vn 0.0344376 -0.216061 0.975772
v 76.3427 -139.913 10.1741
vn 0.541603 0.333683 -0.771571
v 79.3361 -136.943 7.65736
vn 0.874365 0.0167928 0.484978
v 79.454 -136.945 7.81909
vn 0.765817 0.271884 -0.582754
v 77.6573 -135.287 7.46129
vn 0.270179 0.303742 -0.913643
v 78.4272 -135.063 8.12944
vn 0.932008 -0.00928651 0.362318
v 76.9722 -130.381 8.22731
vn 0.887994 0.277748 -0.366502
v 77.0699 -129.217 7.96091
vn 0.976313 0.059119 0.208128
v 76.8959 -130.607 8.40594
vn 0.681975 0.298294 -0.667781
v 77.0083 -130.068 9.27634
vn 0.035746 0.346038 -0.937539
v 76.9859 -128.432 8.03179
vn 0.947231 0.0653809 0.313813
v 76.7957 -128.005 8.53993
vn 0.315839 0.428279 -0.846654
v 76.7926 -127.794 8.44228
vn -0.0216659 0.347083 -0.937584
v 76.4988 -127.622 8.41997
vn -0.00189761 0.280546 -0.959839
v 76.4901 -126.637 8.68738
vn 0.993236 0.112238 0.0297575
v 76.6076 -126.845 8.88981
vn -0.960676 -0.147212 0.235436
v 72.6152 -127.931 11.7268
vn -0.778855 -0.223825 0.585907
v 72.9384 -128.346 12.2334
vn -0.469073 -0.275582 0.839062
v 73.2132 -128.141 12.5275
vn -0.21403 0.23216 -0.948838
v 75.7739 -125.539 9.10433
vn 0.878344 0.0323992 -0.47693
v 76.5728 -126.04 8.88042
vn -0.0221698 0.258689 -0.965706
v 76.4119 -125.665 9.00929
vn 0.970803 0.206767 0.121607
v 76.4147 -125.685 9.2335
vn 0.961438 0.068271 0.266413
v 76.3257 -125.515 9.48553
vn 0.964841 0.168607 -0.201627
v 76.0969 -124.423 10.537
vn 0.990296 0.0786142 0.114605
v 76.0947 -122.739 9.78582
vn -0.107341 0.230571 -0.967117
v 75.7284 -119.998 10.2996
vn -0.179643 0.209372 -0.961193
v 75.0388 -120.277 10.3393
vn -0.98535 -0.0524502 -0.162278
v 72.0049 -120.686 13.524
vn -0.128621 0.235789 -0.963255
v 73.8545 -119.917 10.5474
vn -0.0577982 0.242221 -0.968498
v 74.1993 -119.594 10.7326
vn 0.906157 0.0384111 0.421194
v 75.6067 -118.867 11.0543
vn 0.674958 0.222044 -0.703654
v 75.6636 -117.839 10.9186
vn -0.158113 0.291703 -0.94335
v 74.8104 -115.569 11.6037
vn -0.205599 0.224969 -0.952427
v 73.3233 -116.338 11.6613
vn -0.744971 0.0934101 -0.660524
v 72.9327 -115.997 11.895
vn -0.433526 0.116 -0.893644
v 72.8351 -114.215 12.1737
vn -0.0569895 0.245392 -0.967747
v 73.6245 -115.124 11.9924
vn -0.051688 0.183531 -0.981654
v 73.0633 -113.792 12.2254
vn -0.971899 -0.0173257 -0.234761
v 71.3932 -112.147 14.4019
vn -0.1279 0.216819 -0.967797
v 73.2433 -110.005 12.9919
vn -0.522453 0.183492 -0.83269
v 72.4275 -109.124 13.4601
vn 0.954469 -0.294608 0.0468499
v 84.4341 -183.648 5.35464
vn -0.497972 -0.716129 -0.489064
v 84.3139 -183.501 5.23492
vn 0.954469 -0.294608 0.0468499
v 84.4479 -183.599 5.38341
vn 0.954469 -0.294608 0.0468499
v 84.4308 -183.652 5.39657
vn -0.218705 -0.660173 -0.718568
v 84.3664 -182.674 4.18101
vn -0.062116 -0.508282 -0.858948
v 84.6577 -182.084 3.95559
vn 0.639993 -0.102204 -0.761553
v 84.8882 -181.615 3.77718
vn 0.810634 0.226608 -0.539928
v 84.8549 -181.303 3.80531
vn 0.968656 -0.199984 0.14735
v 84.6818 -182.709 4.18717
vn 0.830658 -0.336765 -0.443393
v 84.7713 -182.092 4.17427
vn 0.939313 -0.0517573 0.339135
v 84.6275 -182.742 4.49801
vn -0.790246 -0.612097 0.0291275
v 83.8872 -183.108 5.43443
vn -0.814431 -0.472478 0.336849
v 83.1941 -182.01 5.87048
vn 0.882059 0.0557014 0.467835
v 83.8371 -181.716 5.62103
vn -0.604898 -0.561078 0.565057
v 83.5591 -182.394 6.0899
vn -0.635221 -0.267522 0.724518
v 83.4316 -182.013 6.19253
vn -0.525908 -0.598696 0.604139
v 83.8626 -182.572 6.17814
vn -0.501905 -0.321237 0.803056
v 83.6524 -182.199 6.27215
vn 0.891543 0.23808 -0.385317
v 84.9435 -181.249 3.99041
vn 0.865612 0.327667 -0.378617
v 84.8484 -180.863 4.06764
vn 0.870976 -0.208079 0.445088
v 84.8066 -181.103 4.4429
vn 0.87476 0.460582 -0.150528
v 84.7162 -180.303 4.42945
vn 0.89481 0.410935 -0.174493
v 84.8537 -180.504 4.57453
vn 0.732553 0.596203 0.328495
v 84.544 -179.999 5.33011
vn 0.866453 -0.180396 0.465528
v 83.6159 -181.382 6.13303
vn -0.0766672 0.102306 0.991794
v 83.3828 -181.416 6.23465
vn 0.472837 0.578577 0.664585
v 84.2891 -180.056 5.65551
vn 0.215676 0.460726 0.860939
v 84.1179 -180.083 5.75821
vn 0.88471 -0.174387 0.432293
v 84.3817 -180.254 5.72853
vn 0.530353 0.644622 0.550625
v 84.1881 -179.63 5.29625
vn 0.490082 -0.138581 0.86059
v 77.5673 -139.354 9.89829
vn 0.788078 -0.0161294 0.615364
v 78.9461 -137.69 8.7606
vn -0.670147 0.271851 -0.690652
v 79.2009 -132.035 9.05613
vn -0.670147 0.271851 -0.690652
v 79.2029 -132.008 9.06495
vn -0.670147 0.271851 -0.690652
v 79.1085 -132.053 9.13894
vn 0.569649 -0.223781 0.790836
v 76.7048 -129.934 11.9112
vn 0.0846941 -0.247965 0.96506
v 75.0487 -130.746 12.2346
vn 0.149634 0.317618 -0.936338
v 77.6298 -127.871 10.2861
vn 0.276656 0.338728 -0.899291
v 78.4871 -127.791 10.4174
vn 0.778226 -0.189409 0.598739
v 77.9634 -128.13 11.3063
vn 0.608745 0.308171 -0.731068
v 78.6074 -127.591 10.5785
vn 0.873243 -0.0407258 0.485579
v 78.3229 -127.254 10.9812
vn 0.316328 0.350701 -0.881445
v 78.4083 -127.021 10.7386
vn 0.680403 0.262954 -0.684037
v 76.4531 -125.212 10.7608
vn 0.253023 0.281427 -0.925623
v 77.3392 -123.306 11.6025
vn 0.225613 0.288204 -0.930611
v 76.9661 -124.406 11.3802
vn -0.644248 -0.258802 0.719699
v 72.5278 -123.868 13.6019
vn 0.0815139 0.257843 -0.962742
v 76.8798 -122.835 11.7778
vn 0.45574 0.275236 -0.846491
v 76.298 -120.514 12.216
vn -0.898476 -0.176135 0.402141
v 72.1044 -121.32 13.9507
vn 0.985869 0.134046 0.100473
v 75.6196 -119.888 11.1949
vn 0.781319 0.272995 -0.561262
v 75.6888 -119.16 12.1628
vn -0.406239 -0.232215 0.883768
v 72.8211 -120.119 14.9212
vn 0.918822 0.120945 0.375683
v 75.0579 -115.749 11.6623
vn -0.0428598 0.272177 -0.961292
v 74.8091 -114.989 11.8965
vn 0.97363 0.132167 0.185948
v 74.5257 -114.282 12.6765
vn 0.876977 0.285897 -0.386231
v 74.6517 -114.725 13.2604
vn -0.994012 -0.0894084 0.0628123
v 71.4612 -115.401 14.7336
vn -0.813424 -0.172673 0.555451
v 71.6666 -115.636 15.348
vn 0.915246 0.0136123 0.402666
v 74.5179 -112.868 12.6595
vn -0.0970558 0.194874 -0.976015
v 73.9375 -111.306 12.5711
vn -0.546956 -0.160476 0.821637
v 71.6081 -112.082 16.1794
vn 0.988025 0.0907104 0.12481
v 74.2385 -110.088 12.8508
vn 0.863688 0.12262 -0.488884
v 74.2822 -109.106 13.2101
vn -0.96125 -0.0870764 0.261565
v 71.2778 -110.884 15.9378
vn 0.716074 -0.176689 0.675292
v 74.1397 -108.936 13.3942
vn 0.834143 0.174798 -0.523116
v 74.189 -108.707 13.1527
vn -0.160892 0.244376 -0.95624
v 73.9561 -107.945 13.3845
vn 0.557024 -0.321058 0.765928
v 74.3249 -108.71 13.354
vn 0.0504534 0.258673 -0.964647
v 73.6785 -105.412 14.0836
vn 0.911018 -0.366333 0.189333
v 73.7031 -105.229 14.3198
vn 0.777034 0.00600752 0.62943
v 73.1748 -104.549 15.1192
vn -0.688647 0.091888 -0.719251
v 71.7828 -106.068 14.6381
vn -0.0510064 0.234577 -0.970758
v 73.1355 -103.288 14.5238
vn 0.941123 0.212555 -0.262883
v 73.3799 -103.47 14.5849
vn 0.878365 0.0270002 0.477227
v 73.2479 -103.73 15.0708
vn -0.978764 -0.049878 -0.198828
v 70.9071 -103.295 16.4389
vn 0.327354 0.249171 -0.911457
v 73.0606 -100.926 15.1062
vn -0.356307 0.145376 -0.92299
v 72.3429 -98.0255 15.6887
vn -0.218045 0.205293 -0.954102
v 71.5588 -95.932 16.3183
vn -0.358553 0.203317 -0.911099
v 71.0975 -94.8111 16.6384
vn -0.584523 0.241373 -0.774643
v 70.3417 -93.7333 17.2275
vn -0.959221 -0.00144455 -0.282653
v 69.8402 -94.0428 17.8268
vn 0.865262 -0.0956525 0.49211
v 78.4343 -126.458 10.9761
vn 0.37627 0.312673 -0.872156
v 78.0634 -125.087 11.2763
vn 0.851727 -0.0625124 0.520244
v 78.1505 -125.094 11.4622
vn 0.782219 -0.11577 0.612152
v 77.6878 -125.81 12.1338
vn 0.588611 0.312226 -0.745689
v 78.107 -124.053 11.7573
vn 0.866373 -0.0857826 0.491976
v 78.011 -124.143 11.9416
vn 0.5431 -0.206913 0.813775
v 76.5178 -124.251 13.6123
vn 0.648705 0.165901 -0.742737
v 77.8216 -122.867 11.9891
vn 0.852162 -0.0467395 0.521186
v 77.9671 -122.955 12.1544
vn 0.572807 0.127353 -0.809737
v 77.9668 -122.549 12.1313
vn 0.910384 0.0196933 0.413296
v 77.7671 -122.002 12.5462
vn -0.152901 -0.275587 0.949038
v 74.482 -122.941 14.586
vn 0.41099 0.349088 -0.842155
v 77.2448 -121.42 12.1973
vn 0.296573 -0.236407 0.925287
v 75.4456 -121.249 14.8876
vn 0.823204 -0.056705 0.564907
v 76.8678 -119.219 14.215
vn 0.608966 -0.158951 0.777107
v 76.1947 -120.15 14.7823
vn 0.0495937 -0.222443 0.973684
v 74.7838 -119.946 15.3207
vn 0.496405 0.327585 -0.803909
v 77.0475 -118.093 13.3909
vn 0.454255 0.340809 -0.823105
v 75.8164 -116.248 13.6072
vn 0.525577 0.347476 -0.776549
v 76.4301 -115.625 14.1462
vn 0.982262 0.18725 -0.00990724
v 76.6902 -116.207 14.1925
vn 0.419141 0.353084 -0.836452
v 75.454 -112.771 14.9316
vn 0.569348 0.346037 -0.745722
v 74.9507 -111.835 15.0788
vn -0.296212 -0.129867 0.946252
v 73.0943 -111.979 16.7924
vn 0.313644 0.311775 -0.896897
v 74.9766 -110.658 15.5746
vn 0.960366 0.218868 -0.172607
v 73.2238 -105.965 15.2011
vn 0.93948 0.255634 -0.228097
v 72.6437 -101.587 17.4656
vn -0.79874 -0.152647 0.581991
v 70.9071 -102.34 17.0456
vn 0.877051 0.0506608 0.477719
v 73.0194 -100.957 15.4068
vn -0.874076 -0.46753 0.131931
v 72.4533 -96.6275 15.9922
vn -0.874076 -0.46753 0.131931
v 72.5279 -96.7479 16.06
vn 0.733988 0.0359132 0.678212
v 72.0638 -97.5027 16.2791
vn 0.925918 0.288273 -0.244081
v 71.7524 -98.112 18.1881
vn 0.61868 -0.00474054 0.785629
v 71.5617 -96.9349 18.3454
vn -0.14199 -0.152159 0.978103
v 71.2727 -97.5688 18.3143
vn 0.88225 0.339603 0.326044
v 71.7134 -98.127 18.3073
vn -0.300068 0.113836 -0.947101
v 72.4349 -96.4294 16.0135
vn -0.874076 -0.46753 0.131931
v 72.2861 -96.2592 16.1895
vn -0.273197 0.1954 -0.941903
v 72.2152 -96.0608 16.1441
vn 0.974488 0.16607 0.150977
v 72.0698 -96.0786 16.17
vn 0.0541388 -0.0122212 -0.998459
v 72.0482 -95.2967 16.4312
vn 0.0541388 -0.0122212 -0.998459
v 72.0094 -95.0985 16.4266
vn 0.183114 -0.393787 -0.900778
v 72.6856 -96.3959 15.9381
vn 0.677549 -0.0495342 0.733808
v 72.3009 -95.6656 16.3426
vn -0.934312 -0.284939 0.214174
v 72.1504 -95.6836 16.3634
vn -0.242355 0.237882 -0.940572
v 72.2265 -95.4118 16.3053
vn 0.994575 -0.0649854 0.0812211
v 72.0566 -95.0989 16.4866
vn 0.240381 0.962771 -0.123647
v 71.7118 -95.9456 16.51
vn 0.417078 0.429786 -0.800831
v 71.7069 -95.7394 16.4575
vn 0.850692 0.134495 0.508167
v 71.4509 -96.624 17.0052
vn 0.657709 0.200558 -0.726083
v 71.5332 -96.7382 18.369
vn -0.947581 -0.143412 0.285523
v 70.0073 -95.6606 18.0491
vn 0.939139 0.298143 -0.170672
v 71.1397 -96.1567 18.1732
vn 0.877405 0.316257 -0.360752
v 71.2033 -95.9665 18.3789
vn -0.238616 -0.182835 0.953747
v 71.0085 -95.6064 18.6337
vn -0.625452 0.244942 -0.74082
v 71.4942 -96.7451 18.3997
vn 0.785208 0.0497344 -0.617232
v 71.5629 -96.5425 18.4741
vn 0.778889 0.138352 -0.611711
v 71.5819 -96.3448 18.5429
vn 0.198593 -0.163691 0.966316
v 71.372 -96.3631 18.4982
vn -0.98603 -0.0992397 -0.133775
v 71.1832 -95.3875 18.6527
vn 0.0541388 -0.0122212 -0.998459
v 72.0751 -94.8897 16.4276
vn -0.980978 -0.191071 0.0342534
v 71.975 -94.9074 16.5063
vn 0.816092 0.158465 0.555772
v 71.3138 -95.0107 16.8686
vn -0.966455 -0.0442651 0.252991
v 69.8342 -93.8188 18.1967
vn -0.584445 -0.187952 0.789365
v 70.0627 -94.2838 18.523
vn 0.906138 0.329021 -0.265818
v 70.7463 -94.7908 18.2366
vn 0.933537 0.274824 -0.230175
v 70.8855 -95.1927 18.3791
vn -0.98603 -0.0992397 -0.133775
v 71.1688 -95.183 18.6067
vn 0.916772 0.153068 -0.368917
v 70.9376 -94.8027 18.595
vn 0.604977 0.0914819 0.79097
v 70.7961 -94.8278 18.7061
vn 0.842847 0.410789 -0.347651
v 70.9043 -94.6068 18.6224
vn -0.283609 -0.240453 0.928304
v 70.7943 -94.4245 18.7101
vn -0.98603 -0.0992397 -0.133775
v 71.1607 -95.1897 18.6716
vn 0.511897 -0.703753 0.492638
v 70.9525 -94.6212 18.8389
vn 0.506121 0.47275 -0.721352
v 70.6446 -93.3043 17.3081
vn 0.161258 0.935387 -0.314716
v 70.215 -92.9985 17.8863
vn -0.662694 0.336257 -0.669155
v 69.8711 -92.8556 18.1346
vn 0.943515 0.330196 -0.0273836
v 70.0742 -92.8572 18.3928
vn -0.883999 0.0185824 0.46712
v 69.9573 -92.8852 18.5646
vn -0.771028 -0.0570529 0.634241
v 69.9788 -93.2895 18.5951
vn -0.547353 -0.141277 0.824892
v 70.1569 -93.6845 18.707
vn 0.88959 0.347742 -0.296151
v 70.3456 -93.4531 18.6036
vn 0.720157 0.547148 0.426618
v 70.1806 -93.2828 18.759
vn 0.886384 0.0159057 0.462677
v 76.2197 -115.174 15.6126
vn 0.481967 -0.147735 0.863645
v 75.7794 -115.257 16.014
vn 0.972597 0.102603 0.208635
v 75.9935 -112.34 15.2733
vn -0.165598 -0.1369 0.976645
v 73.9044 -112.913 16.9128
vn 0.148159 -0.134465 0.97978
v 74.271 -112.875 16.9208
vn 0.295104 -0.108802 0.94925
v 74.8911 -112.595 16.7927
vn 0.186799 0.31023 -0.932129
v 75.4387 -111.205 15.4622
vn 0.453827 0.319648 -0.831785
v 75.7945 -111.568 15.4346
vn -0.133285 -0.0919326 0.986805
v 73.8976 -112.511 16.9206
vn 0.0432455 -0.0923842 0.994784
v 74.2152 -112.478 16.9394
vn -0.151583 -0.145466 0.977682
v 73.8403 -110.327 17.2754
vn 0.126712 -0.126949 0.983783
v 74.0793 -109.904 17.3485
vn 0.44234 0.31207 -0.840802
v 75.1246 -107.696 16.4943
vn 0.51394 0.324969 -0.79389
v 74.5832 -104.609 17.4482
vn 0.544596 -0.0560045 0.836826
v 74.7619 -105.214 17.6438
vn 0.895747 0.0660883 0.439625
v 74.8529 -104.968 17.4883
vn 0.865816 0.349796 -0.357779
v 74.6811 -104.619 17.6753
vn 0.0757983 -0.115526 0.990408
v 73.6818 -105.152 17.9172
vn 0.441044 -0.0503898 0.89607
v 74.5465 -104.845 17.7797
vn 0.509364 0.345358 -0.788211
v 74.5953 -103.827 17.7452
vn 0.276282 -0.0399865 0.960245
v 74.2001 -103.486 17.9731
vn 0.491941 0.321313 -0.809168
v 74.2084 -103.263 17.7512
vn 0.714573 0.509616 0.479246
v 74.408 -103.656 17.8722
vn -0.238133 -0.113757 0.964548
v 73.133 -103.004 18.0898
vn 0.40839 0.273869 -0.870755
v 73.5902 -101.402 17.9946
vn 0.808 0.332122 -0.486653
v 73.7831 -101.724 18.0953
vn 0.419281 0.286062 -0.86161
v 72.7203 -100.408 17.9216
vn 0.116752 -0.0451775 0.992133
v 73.4898 -101.361 18.203
vn 0.30849 -0.465218 -0.829703
v 72.6552 -99.4331 18.2303
vn 0.30849 -0.465218 -0.829703
v 72.6568 -99.4349 18.232
vn 0.30849 -0.465218 -0.829703
v 72.6578 -99.4328 18.2312
vn 0.904364 -0.423257 0.054583
v 72.6576 -99.4331 18.2334
vn 0.170893 0.705928 -0.687358
v 72.6564 -99.4314 18.2323
vn -0.690832 -0.712021 -0.125605
v 72.6549 -99.4334 18.2334
vn 0.944238 -0.322599 0.0659103
v 71.6106 -96.7473 18.5626
vn 0.97447 -0.222883 -0.0270565
v 71.6582 -96.5433 18.5952
vn -0.970081 0.137248 0.200265
v 71.5846 -96.5501 18.5842
vn 0.266342 0.143218 -0.953179
v 71.5452 -95.7507 18.6306
vn 0.266342 0.143218 -0.953179
v 71.5301 -95.5527 18.6561
vn 0.266342 0.143218 -0.953179
v 71.5089 -95.5544 18.6499
vn 0.8678 -0.0502123 -0.494369
v 71.3026 -94.9861 18.8216
vn 0.792425 0.0171912 -0.609727
v 81.9263 -174.239 1.06339
vn -0.219099 0.231617 0.947813
v 79.3332 -172.457 2.85947
vn -0.786674 -0.043271 0.61585
v 78.7516 -171.661 2.30402
vn 0.708134 -0.0587099 0.703633
v 82.0524 -162.527 1.21378
vn 0.747412 -0.107036 0.655681
v 81.8261 -160.575 1.69407
vn 0.775915 0.309852 -0.549498
v 81.2299 -156.533 0.957537
vn 0.786902 0.271367 -0.554207
v 80.6589 -154.414 1.41975
vn 0.972789 0.20659 0.104888
v 80.7322 -154.223 1.61776
vn 0.468655 0.272797 -0.840205
v 80.5656 -153.243 1.75487
vn 0.987547 0.14716 0.055623
v 80.5656 -153.243 1.75487
vn 0.978702 0.201027 0.0416128
v 80.0807 -150.328 2.44305
vn 0.528979 0.658591 -0.5352
v 79.0573 -148.003 2.97355
vn 0.528979 0.658591 -0.5352
v 79.6071 -148.592 2.79194
vn 0.904167 0.306537 -0.297518
v 79.6071 -148.592 2.79194
vn 0.528979 0.658591 -0.5352
v 79.6249 -148.41 3.03353
vn 0.276343 0.248465 -0.928386
v 79.6249 -148.41 3.03353
vn 0.962288 0.19962 -0.184809
v 79.1277 -146.348 3.43737
vn 0.514783 0.295447 -0.804804
v 79.0998 -145.701 3.71775
vn 0.866337 0.244601 -0.435467
v 79.0998 -145.701 3.71775
vn 0.960257 0.071376 0.269836
v 78.8027 -143.758 4.21788
vn 0.943493 0.0478815 0.327914
v 78.7034 -142.772 4.35981
vn 0.588335 -0.0354464 -0.80784
v 82.7472 -178.493 2.17256
vn 0.902893 -0.0821448 0.421944
v 81.6066 -157.053 2.69366
vn 0.992984 -0.0982974 0.0657303
v 81.505 -155.48 3.03774
vn 0.844652 0.131888 -0.518814
v 81.6832 -154.687 3.41142
vn 0.76633 -0.190836 0.613449
v 81.6832 -154.687 3.41142
vn 0.727181 -0.166565 0.665931
v 81.6667 -153.705 3.69879
vn 0.784621 -0.135143 0.605067
v 81.5318 -152.741 4.05141
vn 0.898185 -0.262669 -0.352517
v 81.5318 -152.741 4.05141
vn 0.9706 0.15162 -0.186942
v 81.5051 -152.521 3.81936
vn 0.898185 -0.262669 -0.352517
v 81.5051 -152.521 3.81936
vn 0.802082 0.203386 -0.561514
v 81.6266 -152.321 3.9795
vn 0.863259 -0.082371 0.497995
v 81.6266 -152.321 3.9795
vn 0.56091 0.0586689 -0.825795
v 78.3695 -141.234 4.82871
vn 0.89385 -0.0976178 0.437611
v 78.2942 -139.532 4.89849
vn 0.846353 0.42297 -0.323703
v 78.2942 -139.532 4.89849
vn 0.979347 -0.200039 -0.029394
v 78.1858 -139.248 4.9855
vn 0.846353 0.42297 -0.323703
v 78.1858 -139.248 4.9855
vn 0.165177 0.193739 -0.967048
v 78.314 -138.642 5.12502
vn 0.777845 -0.0375512 0.627333
v 78.314 -138.642 5.12502
vn 0.82994 -0.312572 -0.462059
v 78.314 -138.642 5.12502
vn 0.846353 0.42297 -0.323703
v 78.2164 -139.133 5.21662
vn 0.819315 -0.128946 0.558655
v 78.2164 -139.133 5.21662
vn 0.790543 -0.421691 -0.444093
v 78.0968 -139.291 5.35542
vn 0.458554 -0.17487 0.871291
v 78.0968 -139.291 5.35542
vn -0.952619 -0.153889 0.262363
v 78.3108 -138.53 5.14613
vn 0.866358 0.0773653 -0.493395
v 78.3108 -138.53 5.14613
vn 0.987227 0.0909516 0.130807
v 77.967 -138.952 5.92077
vn -0.882226 -0.350961 0.313853
v 78.4178 -138.648 5.31566
vn 0.866358 0.0773653 -0.493395
v 78.4178 -138.648 5.31566
vn 0.475452 -0.134361 0.869421
v 78.4178 -138.648 5.31566
vn 0.618197 -0.00487702 0.786008
v 78.4178 -138.648 5.31566
vn 0.84105 0.205085 0.500575
v 78.4178 -138.648 5.31566
vn -0.97877 0.0503305 0.198688
v 78.3221 -138.444 5.18014
vn -0.863969 0.297732 -0.406095
v 78.3221 -138.444 5.18014
vn -0.806535 -0.578668 0.121014
v 78.3221 -138.444 5.18014
vn 0.866358 0.0773653 -0.493395
v 78.3516 -138.246 5.26237
vn -0.863969 0.297732 -0.406095
v 78.3516 -138.246 5.26237
vn 0.84105 0.205085 0.500575
v 78.3516 -138.246 5.26237
vn 0.618194 -0.00487434 0.786011
v 78.3587 -138.456 5.36336
vn -0.806535 -0.578668 0.121014
v 78.3587 -138.456 5.36336
vn -0.806535 -0.578668 0.121014
v 78.2495 -138.286 5.45028
vn 0.84105 0.205085 0.500575
v 78.2495 -138.286 5.45028
vn 0.579358 -0.107217 0.80799
v 78.2495 -138.286 5.45028
vn 0.857899 -0.199145 -0.473656
v 78.4861 -138.232 5.26453
vn 0.624472 -0.0563211 0.779014
v 78.4861 -138.232 5.26453
vn 0.821902 0.322143 -0.469788
v 78.4861 -138.232 5.26453
vn 0.821902 0.322143 -0.469788
v 77.8666 -135.92 5.76608
vn 0.821902 0.322143 -0.469788
v 78.2383 -136.889 5.75202
vn 0.484443 0.19822 -0.85207
v 78.2383 -136.889 5.75202
vn 0.962324 0.144464 0.230354
v 78.2383 -136.889 5.75202
vn 0.962686 0.101101 0.251028
v 77.9544 -135.322 5.95516
vn 0.673335 0.360192 -0.645664
v 77.9544 -135.322 5.95516
vn 0.787901 0.266619 -0.555092
v 77.4923 -133.789 6.32814
vn 0.787901 0.266619 -0.555092
v 77.6051 -133.241 6.75165
vn 0.343277 0.308079 -0.88727
v 77.4605 -131.442 7.13099
vn 0.86409 -0.0189464 0.50298
v 77.4605 -131.442 7.13099
vn 0.92985 0.31492 -0.190275
v 77.4605 -131.442 7.13099
vn 0.144656 0.338292 -0.929856
v 77.1848 -129.697 7.6131
vn 0.948241 -0.00972348 0.317403
v 77.1848 -129.697 7.6131
vn 0.864551 0.413904 -0.285018
v 77.1848 -129.697 7.6131
vn 0.924838 0.152579 -0.348416
v 77.0788 -130.128 7.43936
vn 0.924838 0.152579 -0.348416
v 77.1748 -130.304 7.61718
vn 0.887994 0.277748 -0.366502
v 76.97 -129.13 7.78553
vn 0.081102 0.237534 -0.967988
v 74.1798 -124.74 9.54405
vn 0.431183 -0.271854 -0.860335
v 84.4814 -181.605 3.58831
vn 0.514025 -0.105373 -0.851278
v 83.5778 -180.084 2.78169
vn 0.877045 -0.0367095 0.479003
v 81.4777 -150.763 4.45016
vn 0.588861 0.387631 -0.709214
v 81.523 -150.108 4.32912
vn 0.787206 -0.164268 -0.594409
v 81.523 -150.108 4.32912
vn 0.952744 0.149247 0.264585
v 81.523 -150.108 4.32912
vn 0.978368 0.170441 0.117241
v 81.3426 -149.568 4.47436
vn 0.834875 0.205745 -0.510541
v 81.3426 -149.568 4.47436
vn 0.764499 0.246628 -0.595581
v 81.0949 -147.415 4.93699
vn 0.762149 0.256783 -0.594299
v 81.1133 -146.831 5.20243
vn 0.0718866 0.245176 -0.96681
v 80.6441 -144.115 5.87326
vn 0.325086 -0.190456 -0.926307
v 80.6441 -144.115 5.87326
vn 0.757234 0.276868 -0.591557
v 80.7854 -144.31 5.96295
vn 0.325086 -0.190456 -0.926307
v 80.7854 -144.31 5.96295
vn 0.772336 -0.103322 0.626755
v 80.8933 -143.89 5.9145
vn 0.926085 0.248179 -0.284207
v 80.8933 -143.89 5.9145
vn -0.0316031 0.214085 -0.976304
v 80.8933 -143.89 5.9145
vn -0.030623 0.209367 -0.977358
v 80.1998 -140.4 6.70222
vn 0.893154 0.0742034 -0.443588
v 80.3175 -140.608 6.90453
vn 0.809532 -0.103983 -0.577794
v 80.3655 -139.787 6.82417
vn 0.838219 0.0676954 0.541115
v 80.3655 -139.787 6.82417
vn 0.706403 0.555685 -0.438416
v 80.3655 -139.787 6.82417
vn 0.843432 0.456096 -0.283901
v 80.0768 -139.234 7.06066
vn 0.821389 0.428503 -0.376437
v 80.0312 -139.051 7.21891
vn 0.772255 0.301597 -0.559161
v 79.454 -136.945 7.81909
vn 0.940185 0.0282099 0.339495
v 77.0699 -129.217 7.96091
vn 0.888591 0.134446 -0.438555
v 76.9859 -128.432 8.03179
vn 0.956795 0.102749 0.272003
v 76.9859 -128.432 8.03179
vn 0.394382 0.579217 -0.713422
v 76.9859 -128.432 8.03179
vn 0.981323 0.179704 0.068642
v 76.7926 -127.794 8.44228
vn 0.916951 0.165098 -0.363239
v 76.4901 -126.637 8.68738
vn -0.0763233 0.303212 -0.949862
v 76.5728 -126.04 8.88042
vn 0.954816 0.238844 0.17686
v 76.5728 -126.04 8.88042
vn 0.96803 0.250627 0.0102445
v 76.4119 -125.665 9.00929
vn -0.00117219 0.218809 -0.975767
v 76.0947 -122.739 9.78582
vn 0.674958 0.222044 -0.703654
v 76.0947 -122.739 9.78582
vn 0.674958 0.222044 -0.703654
v 75.7284 -119.998 10.2996
vn 0.935731 0.0387666 0.350579
v 75.6636 -117.839 10.9186
vn -0.0416535 0.274245 -0.960757
v 75.6636 -117.839 10.9186
vn 0.485216 0.414621 -0.769841
v 75.6636 -117.839 10.9186
vn 0.480739 0.406122 -0.777145
v 74.8104 -115.569 11.6037
vn -0.362311 0.178769 -0.914753
v 72.8351 -114.215 12.1737
vn -0.954469 0.294608 -0.0468499
v 84.4341 -183.648 5.35464
vn 0.955503 -0.26046 0.138472
v 84.3139 -183.501 5.23492
vn -0.467632 -0.717591 0.516124
v 84.3139 -183.501 5.23492
vn 0.911094 0.161387 0.379291
v 84.3139 -183.501 5.23492
vn -0.954469 0.294608 -0.0468499
v 84.4479 -183.599 5.38341
vn -0.954469 0.294608 -0.0468499
v 84.4308 -183.652 5.39657
vn 0.359852 -0.480313 -0.799879
v 84.6577 -182.084 3.95559
vn 0.830658 -0.336765 -0.443393
v 84.6577 -182.084 3.95559
vn 0.749119 -0.522308 -0.407449
v 84.8882 -181.615 3.77718
vn 0.980382 -0.186161 0.0647716
v 84.8882 -181.615 3.77718
vn -0.000476038 -0.540577 -0.841294
v 84.6818 -182.709 4.18717
vn 0.877004 -0.136954 -0.460551
v 84.6818 -182.709 4.18717
vn 0.934773 -0.113748 0.336542
v 84.7713 -182.092 4.17427
vn -0.384569 -0.714105 0.584946
v 83.8872 -183.108 5.43443
vn 0.88793 0.269325 0.372887
v 83.8626 -182.572 6.17814
vn 0.883296 0.220425 0.413764
v 83.6524 -182.199 6.27215
vn 0.372428 0.17209 0.911966
v 83.6524 -182.199 6.27215
vn 0.958463 -0.15232 0.241137
v 84.9435 -181.249 3.99041
vn 0.922882 -0.101517 0.37146
v 84.8537 -180.504 4.57453
vn 0.925702 0.00174784 0.37825
v 84.544 -179.999 5.33011
vn 0.382273 0.118135 0.916467
v 83.6159 -181.382 6.13303
vn 0.431248 0.325742 0.841378
v 84.3817 -180.254 5.72853
vn 0.670147 -0.271851 0.690652
v 79.2009 -132.035 9.05613
vn 0.670147 -0.271851 0.690652
v 79.2029 -132.008 9.06495
vn 0.670147 -0.271851 0.690652
v 79.1085 -132.053 9.13894
vn 0.826959 -0.105315 0.552311
v 78.6074 -127.591 10.5785
vn 0.937324 0.0188175 0.347952
v 78.4083 -127.021 10.7386
vn 0.480739 0.406122 -0.777145
v 75.0579 -115.749 11.6623
vn 0.476193 0.397564 -0.784336
v 74.8091 -114.989 11.8965
vn 0.974142 0.130052 0.184755
v 74.8091 -114.989 11.8965
vn 0.892356 0.11962 -0.435192
v 74.5179 -112.868 12.6595
vn -0.047742 0.220445 -0.97423
v 74.2385 -110.088 12.8508
vn 0.881416 0.127305 -0.454863
v 74.2385 -110.088 12.8508
vn 0.681428 -0.193092 0.705954
v 74.2822 -109.106 13.2101
vn -0.141395 0.232554 -0.962251
v 74.189 -108.707 13.1527
vn 0.814513 0.19446 -0.546584
v 74.3249 -108.71 13.354
vn 0.90707 0.0866365 0.411969
v 74.3249 -108.71 13.354
vn 0.799078 0.274885 -0.534708
v 73.6785 -105.412 14.0836
vn 0.939453 -0.144526 0.310709
v 73.6785 -105.412 14.0836
vn 0.941123 0.212555 -0.262883
v 73.6785 -105.412 14.0836
vn 0.878949 0.0485927 0.474434
v 73.7031 -105.229 14.3198
vn 0.941123 0.212555 -0.262883
v 73.7031 -105.229 14.3198
vn 0.41112 0.259524 -0.873858
v 73.3799 -103.47 14.5849
vn 0.964001 0.0878243 0.250977
v 73.3799 -103.47 14.5849
vn 0.980392 0.130088 0.148015
v 73.0606 -100.926 15.1062
vn 0.293048 0.257446 -0.920785
v 72.3429 -98.0255 15.6887
vn -0.218045 0.205293 -0.954102
v 72.3429 -98.0255 15.6887
vn 0.350992 0.387798 -0.852301
v 72.3429 -98.0255 15.6887
vn 0.240381 0.962771 -0.123647
v 71.5588 -95.932 16.3183
vn 0.336207 0.383908 -0.859988
v 71.5588 -95.932 16.3183
vn 0.769019 -0.140539 -0.623586
v 71.5588 -95.932 16.3183
vn 0.395317 0.416122 -0.818882
v 71.0975 -94.8111 16.6384
vn 0.358672 0.300219 -0.883868
v 78.4343 -126.458 10.9761
vn 0.862952 0.319197 -0.391699
v 78.4343 -126.458 10.9761
vn 0.883106 0.237864 -0.404407
v 78.0634 -125.087 11.2763
vn 0.883106 0.237864 -0.404407
v 78.1505 -125.094 11.4622
vn 0.896916 0.154823 -0.414211
v 78.107 -124.053 11.7573
vn 0.889584 -0.0923582 0.447336
v 78.107 -124.053 11.7573
vn 0.777803 0.130943 -0.614716
v 77.9671 -122.955 12.1544
vn 0.792256 0.524999 -0.310977
v 77.9668 -122.549 12.1313
vn 0.91277 0.0239194 0.407773
v 77.9668 -122.549 12.1313
vn 0.775429 0.406609 -0.483093
v 77.7671 -122.002 12.5462
vn 0.941238 0.26655 -0.207418
v 77.0475 -118.093 13.3909
vn 0.897616 0.0060111 0.440737
v 73.2238 -105.965 15.2011
vn 0.543692 -0.307422 0.780955
v 73.2238 -105.965 15.2011
vn 0.939453 -0.144526 0.310709
v 73.2238 -105.965 15.2011
vn 0.90356 0.0893669 0.419037
v 73.2238 -105.965 15.2011
vn 0.50093 0.309749 -0.808161
v 72.6437 -101.587 17.4656
vn 0.183114 -0.393787 -0.900778
v 72.4533 -96.6275 15.9922
vn -0.29639 0.0751156 -0.952109
v 72.4533 -96.6275 15.9922
vn -0.764489 -0.0015492 -0.644635
v 72.4533 -96.6275 15.9922
vn 0.183114 -0.393787 -0.900778
v 72.5279 -96.7479 16.06
vn 0.677549 -0.0495342 0.733808
v 72.5279 -96.7479 16.06
vn 0.0136771 -0.249994 0.968151
v 72.5279 -96.7479 16.06
vn 0.419349 0.277142 -0.864488
v 71.7524 -98.112 18.1881
vn 0.657709 0.200558 -0.726083
v 71.7524 -98.112 18.1881
vn 0.61868 -0.00474054 0.785629
v 71.7524 -98.112 18.1881
vn 0.900746 0.282036 0.330321
v 71.7524 -98.112 18.1881
vn 0.940489 0.109413 0.32173
v 71.5617 -96.9349 18.3454
vn 0.944238 -0.322599 0.0659103
v 71.5617 -96.9349 18.3454
vn 0.784333 0.184449 -0.592284
v 71.5617 -96.9349 18.3454
vn -0.0292886 -0.0356602 0.998935
v 71.5617 -96.9349 18.3454
vn -0.625452 0.244942 -0.74082
v 71.2727 -97.5688 18.3143
vn 0.895595 -0.416023 0.157592
v 71.2727 -97.5688 18.3143
vn -0.802658 0.156243 0.575611
v 71.2727 -97.5688 18.3143
vn -0.0470263 -0.0523747 0.99752
v 71.7134 -98.127 18.3073
vn -0.835008 -0.199585 -0.512765
v 72.4349 -96.4294 16.0135
vn -0.835008 -0.199585 -0.512765
v 72.2861 -96.2592 16.1895
vn -0.934312 -0.284939 0.214174
v 72.2861 -96.2592 16.1895
vn 0.0880716 -0.250784 0.964028
v 72.2861 -96.2592 16.1895
vn -0.854106 -0.38533 -0.349319
v 72.2152 -96.0608 16.1441
vn -0.934312 -0.284939 0.214174
v 72.2152 -96.0608 16.1441
vn -0.86148 0.136545 -0.489089
v 72.2152 -96.0608 16.1441
vn 0.382273 0.271962 -0.883121
v 72.0698 -96.0786 16.17
vn -0.218045 0.205293 -0.954102
v 72.0698 -96.0786 16.17
vn 0.240381 0.962771 -0.123647
v 72.0698 -96.0786 16.17
vn 0.72965 0.0492304 0.682046
v 72.0698 -96.0786 16.17
vn -0.980978 -0.191071 0.0342534
v 72.0482 -95.2967 16.4312
vn 0.994575 -0.0649854 0.0812211
v 72.0482 -95.2967 16.4312
vn -0.343985 -0.239777 0.907844
v 72.0482 -95.2967 16.4312
vn -0.980978 -0.191071 0.0342534
v 72.0094 -95.0985 16.4266
vn -0.626886 0.200663 -0.752827
v 72.0094 -95.0985 16.4266
vn -0.281408 0.15553 -0.9469
v 72.6856 -96.3959 15.9381
vn 0.677549 -0.0495342 0.733808
v 72.6856 -96.3959 15.9381
vn 0.902333 0.308739 0.300792
v 72.6856 -96.3959 15.9381
vn 0.0988379 -0.110124 0.988991
v 72.3009 -95.6656 16.3426
vn 0.902333 0.308739 0.300792
v 72.3009 -95.6656 16.3426
vn -0.86148 0.136545 -0.489089
v 72.1504 -95.6836 16.3634
vn 0.141401 -0.0373492 0.989248
v 72.1504 -95.6836 16.3634
vn -0.86148 0.136545 -0.489089
v 72.2265 -95.4118 16.3053
vn 0.902333 0.308739 0.300792
v 72.2265 -95.4118 16.3053
vn 0.114189 0.177235 0.977522
v 72.2265 -95.4118 16.3053
vn -0.343985 -0.239777 0.907844
v 72.0566 -95.0989 16.4866
vn 0.589733 0.17036 0.789425
v 72.0566 -95.0989 16.4866
vn 0.756868 0.1116 0.643969
v 71.7118 -95.9456 16.51
vn 0.769019 -0.140539 -0.623586
v 71.7118 -95.9456 16.51
vn 0.769019 -0.140539 -0.623586
v 71.7069 -95.7394 16.4575
vn 0.817371 0.179085 0.547571
v 71.7069 -95.7394 16.4575
vn 0.61868 -0.00474054 0.785629
v 71.5332 -96.7382 18.369
vn 0.784333 0.184449 -0.592284
v 71.5332 -96.7382 18.369
vn 0.345685 -0.169194 0.922971
v 71.5332 -96.7382 18.369
vn -0.625452 0.244942 -0.74082
v 71.5332 -96.7382 18.369
vn -0.465513 0.781235 -0.415897
v 71.5332 -96.7382 18.369
vn 0.833636 0.462419 -0.302026
v 71.5332 -96.7382 18.369
vn 0.912001 0.290367 -0.289725
v 71.1397 -96.1567 18.1732
vn 0.657709 0.200558 -0.726083
v 71.1397 -96.1567 18.1732
vn 0.895923 0.393365 0.206363
v 71.0085 -95.6064 18.6337
vn 0.936226 0.0659249 -0.345159
v 71.0085 -95.6064 18.6337
vn 0.604977 0.0914819 0.79097
v 71.0085 -95.6064 18.6337
vn -0.813706 -0.00635711 0.581242
v 71.4942 -96.7451 18.3997
vn 0.785304 -0.0392778 -0.617863
v 71.4942 -96.7451 18.3997
vn -0.465513 0.781235 -0.415897
v 71.4942 -96.7451 18.3997
vn -0.947529 0.246614 0.203398
v 71.4942 -96.7451 18.3997
vn -0.970081 0.137248 0.200265
v 71.5629 -96.5425 18.4741
vn -0.980527 0.0261685 0.194632
v 71.5819 -96.3448 18.5429
vn -0.16234 0.192451 0.967785
v 71.5819 -96.3448 18.5429
vn 0.911783 0.378812 -0.158599
v 71.372 -96.3631 18.4982
vn 0.8678 -0.0502123 -0.494369
v 71.1832 -95.3875 18.6527
vn -0.613966 -0.14391 0.776103
v 71.1832 -95.3875 18.6527
vn 0.994575 -0.0649854 0.0812211
v 72.0751 -94.8897 16.4276
vn -0.626886 0.200663 -0.752827
v 72.0751 -94.8897 16.4276
vn 0.589733 0.17036 0.789425
v 72.0751 -94.8897 16.4276
vn -0.343985 -0.239777 0.907844
v 71.975 -94.9074 16.5063
vn -0.626886 0.200663 -0.752827
v 71.975 -94.9074 16.5063
vn 0.589733 0.17036 0.789425
v 71.975 -94.9074 16.5063
vn -0.134285 0.465149 0.874988
v 70.0627 -94.2838 18.523
vn 0.8678 -0.0502123 -0.494369
v 71.1688 -95.183 18.6067
vn -0.80565 0.591058 -0.0397385
v 71.1688 -95.183 18.6067
vn 0.604977 0.0914819 0.79097
v 70.9376 -94.8027 18.595
vn 0.511897 -0.703753 0.492638
v 70.9376 -94.8027 18.595
vn -0.38665 -0.219704 0.895674
v 70.7961 -94.8278 18.7061
vn 0.511897 -0.703753 0.492638
v 70.7961 -94.8278 18.7061
vn 0.249151 0.218475 0.9435
v 70.7943 -94.4245 18.7101
vn 0.774416 0.523178 -0.355758
v 70.7943 -94.4245 18.7101
vn -0.134285 0.465149 0.874988
v 70.7943 -94.4245 18.7101
vn -0.613966 -0.14391 0.776103
v 71.1607 -95.1897 18.6716
vn -0.80565 0.591058 -0.0397385
v 71.1607 -95.1897 18.6716
vn 0.906309 0.384131 -0.176201
v 70.9525 -94.6212 18.8389
vn -0.40784 -0.254613 0.876835
v 70.9525 -94.6212 18.8389
vn -0.134285 0.465149 0.874988
v 70.9525 -94.6212 18.8389
vn -0.368519 0.416225 -0.831234
v 70.6446 -93.3043 17.3081
vn 0.0650081 0.901248 -0.4284
v 70.6446 -93.3043 17.3081
vn 0.821475 0.1703 0.544222
v 70.6446 -93.3043 17.3081
vn 0.941626 0.264485 0.208299
v 70.215 -92.9985 17.8863
vn 0.0735274 0.980188 -0.183918
v 69.8711 -92.8556 18.1346
vn -0.995739 0.0434337 0.0813527
v 69.8711 -92.8556 18.1346
vn 0.0760228 0.995664 -0.0536116
v 70.0742 -92.8572 18.3928
vn 0.720157 0.547148 0.426618
v 70.0742 -92.8572 18.3928
vn -0.105764 0.990371 0.0893269
v 69.9573 -92.8852 18.5646
vn 0.614529 0.597195 0.515472
v 69.9573 -92.8852 18.5646
vn 0.249151 0.218475 0.9435
v 70.1569 -93.6845 18.707
vn 0.600256 -0.137216 0.78795
v 70.1569 -93.6845 18.707
vn 0.249151 0.218475 0.9435
v 70.3456 -93.4531 18.6036
vn 0.600256 -0.137216 0.78795
v 70.3456 -93.4531 18.6036
vn 0.81026 0.485307 0.328567
v 70.3456 -93.4531 18.6036
vn -0.630018 -0.0192751 0.776341
v 70.1806 -93.2828 18.759
vn 0.600256 -0.137216 0.78795
v 70.1806 -93.2828 18.759
vn 0.693648 0.305852 -0.652156
v 75.9935 -112.34 15.2733
vn 0.865816 0.349796 -0.357779
v 74.5832 -104.609 17.4482
vn 0.642777 0.317894 -0.69698
v 74.8529 -104.968 17.4883
vn 0.776032 0.549092 -0.310279
v 74.8529 -104.968 17.4883
vn 0.671529 0.0370317 0.740053
v 74.6811 -104.619 17.6753
vn 0.912278 0.132998 -0.387377
v 74.5953 -103.827 17.7452
vn 0.749905 0.50981 0.421588
v 74.5953 -103.827 17.7452
vn 0.589309 -0.000815221 0.807907
v 74.5953 -103.827 17.7452
vn 0.838103 0.368842 0.401918
v 74.2001 -103.486 17.9731
vn 0.810629 0.418158 0.409908
v 74.2084 -103.263 17.7512
vn 0.808 0.332122 -0.486653
v 74.2084 -103.263 17.7512
vn 0.493844 -0.0100792 0.869492
v 74.408 -103.656 17.8722
vn 0.808 0.332122 -0.486653
v 73.5902 -101.402 17.9946
vn 0.820057 0.484566 0.30447
v 73.5902 -101.402 17.9946
vn 0.786509 0.555893 0.269049
v 73.7831 -101.724 18.0953
vn 0.947404 0.207344 0.243791
v 73.7831 -101.724 18.0953
vn 0.369534 0.0230147 0.928932
v 73.7831 -101.724 18.0953
vn 0.813046 0.503584 0.292163
v 73.4898 -101.361 18.203
vn -0.690832 -0.712021 -0.125605
v 72.6552 -99.4331 18.2303
vn 0.170893 0.705928 -0.687358
v 72.6552 -99.4331 18.2303
vn -0.78625 0.617889 -0.00487473
v 72.6552 -99.4331 18.2303
vn -0.690832 -0.712021 -0.125605
v 72.6568 -99.4349 18.232
vn 0.904364 -0.423257 0.054583
v 72.6568 -99.4349 18.232
vn 0.0915631 -0.626872 0.773723
v 72.6568 -99.4349 18.232
vn 0.170893 0.705928 -0.687358
v 72.6578 -99.4328 18.2312
vn 0.904364 -0.423257 0.054583
v 72.6578 -99.4328 18.2312
vn 0.75778 0.63614 0.145244
v 72.6578 -99.4328 18.2312
vn 0.0915631 -0.626872 0.773723
v 72.6576 -99.4331 18.2334
vn 0.75778 0.63614 0.145244
v 72.6576 -99.4331 18.2334
vn -0.033012 0.542408 0.839467
v 72.6576 -99.4331 18.2334
vn -0.78625 0.617889 -0.00487473
v 72.6564 -99.4314 18.2323
vn 0.75778 0.63614 0.145244
v 72.6564 -99.4314 18.2323
vn -0.033012 0.542408 0.839467
v 72.6564 -99.4314 18.2323
vn -0.78625 0.617889 -0.00487473
v 72.6549 -99.4334 18.2334
vn 0.0915631 -0.626872 0.773723
v 72.6549 -99.4334 18.2334
vn -0.033012 0.542408 0.839467
v 72.6549 -99.4334 18.2334
vn -0.813706 -0.00635711 0.581242
v 71.6106 -96.7473 18.5626
vn -0.134886 -0.125881 0.982832
v 71.6106 -96.7473 18.5626
vn 0.784333 0.184449 -0.592284
v 71.6582 -96.5433 18.5952
vn 0.785208 0.0497344 -0.617232
v 71.6582 -96.5433 18.5952
vn -0.465513 0.781235 -0.415897
v 71.6582 -96.5433 18.5952
vn -0.150551 0.0337188 0.988027
v 71.6582 -96.5433 18.5952
vn -0.803115 -0.168789 0.571416
v 71.5846 -96.5501 18.5842
vn -0.150551 0.0337188 0.988027
v 71.5846 -96.5501 18.5842
vn -0.266342 -0.143218 0.953179
v 71.5452 -95.7507 18.6306
vn -0.266342 -0.143218 0.953179
v 71.5301 -95.5527 18.6561
vn -0.266342 -0.143218 0.953179
v 71.5089 -95.5544 18.6499
vn -0.613966 -0.14391 0.776103
v 71.3026 -94.9861 18.8216
vn -0.80565 0.591058 -0.0397385
v 71.3026 -94.9861 18.8216
f 18//18 1//1 3//3
f 3//3 5//5 2//2
f 1//1 19//19 7//7
f 2//2 5//5 4//4
f 1//1 5//5 3//3
f 1//1 7//7 5//5
f 7//7 6//6 5//5
f 8//8 6//6 7//7
f 7//7 27//27 8//8
f 5//5 11//11 28//28
f 5//5 28//28 4//4
f 5//5 6//6 11//11
f 6//6 8//8 11//11
f 8//8 13//13 11//11
f 27//27 10//10 8//8
f 12//12 8//8 10//10
f 27//27 30//30 10//10
f 11//11 9//9 28//28
f 28//28 9//9 35//35
f 98//98 35//35 9//9
f 11//11 13//13 98//98
f 11//11 98//98 9//9
f 8//8 12//12 13//13
f 12//12 36//36 13//13
f 90//90 12//12 10//10
f 12//12 90//90 36//36
f 13//13 36//36 98//98
f 1//1 18//18 16//16
f 15//15 14//14 18//18
f 16//16 19//19 1//1
f 42//42 19//19 16//16
f 14//14 16//16 18//18
f 44//44 17//17 20//20
f 15//15 17//17 44//44
f 17//17 15//15 18//18
f 21//21 19//19 53//53
f 44//44 20//20 60//60
f 3//3 17//17 18//18
f 60//60 22//22 62//62
f 17//17 3//3 2//2
f 2//2 23//23 20//20
f 20//20 17//17 2//2
f 22//22 20//20 23//23
f 60//60 20//20 22//22
f 19//19 27//27 7//7
f 23//23 2//2 4//4
f 21//21 27//27 19//19
f 59//59 24//24 21//21
f 64//64 24//24 59//59
f 22//22 23//23 25//25
f 22//22 25//25 65//65
f 21//21 24//24 27//27
f 73//73 24//24 64//64
f 4//4 25//25 23//23
f 4//4 26//26 25//25
f 65//65 25//25 26//26
f 28//28 26//26 4//4
f 30//30 27//27 29//29
f 29//29 27//27 24//24
f 24//24 73//73 29//29
f 29//29 31//31 30//30
f 34//34 30//30 31//31
f 73//73 32//32 29//29
f 29//29 32//32 31//31
f 26//26 28//28 35//35
f 33//33 30//30 34//34
f 32//32 34//34 31//31
f 34//34 79//79 33//33
f 33//33 91//91 30//30
f 10//10 30//30 90//90
f 90//90 30//30 91//91
f 35//35 98//98 92//92
f 36//36 37//37 98//98
f 36//36 109//109 37//37
f 109//109 36//36 90//90
f 109//109 38//38 37//37
f 109//109 183//183 38//38
f 120//120 123//123 42//42
f 39//39 15//15 41//41
f 14//14 15//15 39//39
f 14//14 39//39 40//40
f 119//119 39//39 41//41
f 40//40 42//42 16//16
f 120//120 42//42 40//40
f 123//123 124//124 42//42
f 14//14 40//40 16//16
f 41//41 15//15 44//44
f 491//491 44//44 45//45
f 129//129 491//491 45//45
f 129//129 45//45 125//125
f 43//43 19//19 42//42
f 19//19 43//43 53//53
f 42//42 124//124 43//43
f 43//43 46//46 53//53
f 44//44 49//49 45//45
f 50//50 45//45 49//49
f 132//132 125//125 45//45
f 50//50 132//132 45//45
f 46//46 54//54 493//493
f 44//44 60//60 49//49
f 51//51 132//132 50//50
f 58//58 52//52 135//135
f 51//51 57//57 135//135
f 135//135 57//57 58//58
f 54//54 21//21 493//493
f 47//47 54//54 46//46
f 492//492 48//48 54//54
f 48//48 59//59 54//54
f 52//52 59//59 48//48
f 61//61 49//49 60//60
f 55//55 49//49 61//61
f 55//55 50//50 49//49
f 50//50 55//55 56//56
f 50//50 56//56 51//51
f 51//51 56//56 57//57
f 59//59 52//52 58//58
f 57//57 63//63 58//58
f 54//54 59//59 21//21
f 61//61 60//60 62//62
f 62//62 55//55 61//61
f 55//55 66//66 56//56
f 62//62 66//66 55//55
f 56//56 63//63 57//57
f 59//59 58//58 63//63
f 68//68 56//56 66//66
f 56//56 494//494 63//63
f 59//59 63//63 64//64
f 22//22 65//65 62//62
f 66//66 62//62 65//65
f 66//66 65//65 67//67
f 67//67 65//65 69//69
f 66//66 67//67 68//68
f 68//68 67//67 71//71
f 494//494 495//495 72//72
f 494//494 72//72 63//63
f 73//73 63//63 72//72
f 73//73 64//64 63//63
f 65//65 26//26 69//69
f 69//69 26//26 77//77
f 67//67 69//69 70//70
f 67//67 70//70 71//71
f 74//74 70//70 69//69
f 71//71 70//70 76//76
f 73//73 72//72 137//137
f 26//26 35//35 77//77
f 74//74 69//69 77//77
f 75//75 70//70 74//74
f 75//75 76//76 70//70
f 78//78 76//76 75//75
f 78//78 83//83 76//76
f 71//71 76//76 139//139
f 35//35 81//81 77//77
f 74//74 77//77 82//82
f 82//82 77//77 496//496
f 82//82 75//75 74//74
f 75//75 82//82 78//78
f 78//78 82//82 83//83
f 76//76 83//83 88//88
f 80//80 73//73 150//150
f 32//32 80//80 34//34
f 79//79 34//34 80//80
f 32//32 73//73 80//80
f 84//84 81//81 35//35
f 82//82 496//496 85//85
f 85//85 496//496 497//497
f 82//82 498//498 83//83
f 498//498 88//88 83//83
f 138//138 76//76 88//88
f 80//80 91//91 79//79
f 91//91 33//33 79//79
f 88//88 498//498 87//87
f 103//103 138//138 88//88
f 497//497 86//86 85//85
f 35//35 499//499 84//84
f 498//498 500//500 87//87
f 87//87 500//500 88//88
f 151//151 138//138 103//103
f 35//35 92//92 89//89
f 89//89 499//499 35//35
f 92//92 93//93 89//89
f 88//88 500//500 501//501
f 93//93 499//499 89//89
f 88//88 501//501 103//103
f 80//80 150//150 155//155
f 97//97 103//103 501//501
f 91//91 94//94 90//90
f 80//80 155//155 91//91
f 96//96 93//93 92//92
f 92//92 95//95 96//96
f 505//505 503//503 502//502
f 97//97 501//501 504//504
f 37//37 102//102 98//98
f 94//94 99//99 90//90
f 100//100 506//506 95//95
f 97//97 101//101 103//103
f 101//101 97//97 507//507
f 98//98 102//102 92//92
f 102//102 95//95 92//92
f 105//105 95//95 102//102
f 95//95 105//105 100//100
f 101//101 168//168 103//103
f 158//158 103//103 168//168
f 183//183 90//90 99//99
f 94//94 159//159 99//99
f 101//101 507//507 104//104
f 100//100 105//105 508//508
f 101//101 104//104 168//168
f 102//102 37//37 111//111
f 111//111 105//105 102//102
f 105//105 111//111 110//110
f 159//159 183//183 99//99
f 106//106 508//508 105//105
f 110//110 106//106 105//105
f 107//107 509//509 106//106
f 104//104 510//510 168//168
f 38//38 111//111 37//37
f 108//108 107//107 106//106
f 106//106 110//110 108//108
f 510//510 511//511 168//168
f 161//161 108//108 110//110
f 183//183 109//109 90//90
f 110//110 112//112 162//162
f 112//112 163//163 162//162
f 110//110 111//111 112//112
f 111//111 113//113 112//112
f 183//183 115//115 38//38
f 113//113 180//180 112//112
f 38//38 114//114 111//111
f 111//111 114//114 113//113
f 38//38 115//115 114//114
f 114//114 191//191 113//113
f 194//194 115//115 183//183
f 114//114 115//115 116//116
f 115//115 194//194 198//198
f 115//115 198//198 116//116
f 196//196 114//114 116//116
f 117//117 40//40 118//118
f 203//203 117//117 118//118
f 118//118 119//119 203//203
f 204//204 206//206 122//122
f 120//120 40//40 117//117
f 205//205 120//120 117//117
f 205//205 123//123 120//120
f 205//205 121//121 123//123
f 121//121 205//205 208//208
f 208//208 215//215 121//121
f 118//118 40//40 39//39
f 39//39 119//119 118//118
f 206//206 512//512 122//122
f 211//211 122//122 129//129
f 125//125 211//211 129//129
f 211//211 125//125 130//130
f 121//121 124//124 123//123
f 124//124 126//126 43//43
f 121//121 126//126 124//124
f 126//126 121//121 215//215
f 215//215 127//127 126//126
f 122//122 512//512 491//491
f 122//122 491//491 129//129
f 125//125 132//132 130//130
f 217//217 130//130 131//131
f 217//217 131//131 216//216
f 43//43 126//126 46//46
f 127//127 46//46 126//126
f 210//210 128//128 127//127
f 133//133 130//130 132//132
f 133//133 134//134 130//130
f 492//492 128//128 216//216
f 216//216 48//48 492//492
f 130//130 134//134 131//131
f 131//131 134//134 216//216
f 216//216 134//134 48//48
f 47//47 46//46 127//127
f 127//127 128//128 492//492
f 132//132 51//51 133//133
f 134//134 52//52 48//48
f 134//134 135//135 52//52
f 51//51 135//135 133//133
f 135//135 134//134 133//133
f 495//495 513//513 72//72
f 137//137 72//72 136//136
f 513//513 142//142 72//72
f 72//72 142//142 136//136
f 140//140 137//137 136//136
f 139//139 76//76 138//138
f 141//141 139//139 138//138
f 514//514 142//142 513//513
f 140//140 149//149 137//137
f 140//140 136//136 145//145
f 145//145 136//136 142//142
f 137//137 149//149 73//73
f 145//145 149//149 140//140
f 150//150 73//73 149//149
f 514//514 143//143 142//142
f 146//146 515//515 141//141
f 144//144 224//224 142//142
f 142//142 516//516 144//144
f 142//142 224//224 145//145
f 141//141 138//138 151//151
f 141//141 151//151 146//146
f 152//152 146//146 151//151
f 515//515 146//146 147//147
f 520//520 147//147 146//146
f 144//144 516//516 517//517
f 148//148 147//147 520//520
f 144//144 517//517 518//518
f 144//144 518//518 218//218
f 218//218 224//224 144//144
f 152//152 151//151 154//154
f 519//519 521//521 153//153
f 522//522 152//152 154//154
f 523//523 218//218 518//518
f 223//223 150//150 224//224
f 150//150 149//149 224//224
f 150//150 223//223 155//155
f 158//158 151//151 103//103
f 151//151 156//156 154//154
f 522//522 154//154 219//219
f 154//154 156//156 220//220
f 221//221 579//579 156//156
f 91//91 155//155 94//94
f 221//221 156//156 225//225
f 94//94 155//155 157//157
f 160//160 155//155 223//223
f 155//155 160//160 157//157
f 234//234 156//156 151//151
f 234//234 225//225 156//156
f 157//157 159//159 94//94
f 160//160 159//159 157//157
f 160//160 223//223 227//227
f 158//158 246//246 151//151
f 246//246 158//158 168//168
f 159//159 179//179 183//183
f 186//186 159//159 160//160
f 161//161 538//538 108//108
f 151//151 246//246 234//234
f 186//186 179//179 159//159
f 162//162 524//524 110//110
f 166//166 161//161 525//525
f 164//164 165//165 527//527
f 529//529 163//163 112//112
f 526//526 528//528 532//532
f 172//172 112//112 176//176
f 167//167 112//112 172//172
f 167//167 529//529 112//112
f 161//161 166//166 538//538
f 525//525 533//533 166//166
f 530//530 166//166 533//533
f 169//169 534//534 531//531
f 175//175 167//167 170//170
f 529//529 167//167 175//175
f 173//173 536//536 539//539
f 173//173 544//544 536//536
f 547//547 540//540 537//537
f 535//535 541//541 171//171
f 538//538 171//171 250//250
f 166//166 171//171 538//538
f 531//531 555//555 169//169
f 542//542 556//556 550//550
f 172//172 175//175 170//170
f 545//545 174//174 548//548
f 546//546 551//551 552//552
f 543//543 549//549 553//553
f 171//171 541//541 554//554
f 176//176 175//175 172//172
f 554//554 550//550 556//556
f 554//554 556//556 177//177
f 171//171 554//554 177//177
f 171//171 177//177 178//178
f 171//171 178//178 250//250
f 558//558 559//559 557//557
f 180//180 176//176 112//112
f 181//181 560//560 176//176
f 176//176 180//180 181//181
f 178//178 177//177 182//182
f 178//178 182//182 250//250
f 182//182 561//561 562//562
f 186//186 183//183 179//179
f 184//184 181//181 180//180
f 180//180 192//192 184//184
f 562//562 185//185 182//182
f 565//565 563//563 564//564
f 250//250 182//182 185//185
f 168//168 250//250 246//246
f 246//246 250//250 251//251
f 183//183 189//189 194//194
f 189//189 183//183 186//186
f 187//187 565//565 564//564
f 566//566 184//184 192//192
f 185//185 567//567 188//188
f 191//191 192//192 113//113
f 113//113 192//192 180//180
f 250//250 185//185 188//188
f 193//193 188//188 567//567
f 572//572 573//573 568//568
f 188//188 193//193 250//250
f 189//189 186//186 259//259
f 572//572 190//190 573//573
f 192//192 191//191 569//569
f 569//569 191//191 195//195
f 193//193 248//248 250//250
f 193//193 570//570 248//248
f 249//249 571//571 574//574
f 570//570 601//601 248//248
f 252//252 195//195 191//191
f 255//255 252//252 191//191
f 114//114 196//196 191//191
f 258//258 270//270 194//194
f 194//194 189//189 258//258
f 191//191 196//196 197//197
f 191//191 197//197 199//199
f 199//199 255//255 191//191
f 116//116 198//198 196//196
f 196//196 201//201 197//197
f 201//201 200//200 197//197
f 199//199 197//197 575//575
f 199//199 261//261 255//255
f 198//198 201//201 196//196
f 198//198 194//194 201//201
f 201//201 271//271 200//200
f 271//271 199//199 575//575
f 194//194 277//277 201//201
f 202//202 289//289 117//117
f 290//290 576//576 204//204
f 577//577 512//512 206//206
f 577//577 206//206 204//204
f 576//576 577//577 204//204
f 117//117 203//203 202//202
f 205//205 117//117 285//285
f 295//295 205//205 285//285
f 208//208 205//205 296//296
f 296//296 209//209 208//208
f 204//204 122//122 303//303
f 209//209 215//215 208//208
f 209//209 127//127 215//215
f 209//209 309//309 210//210
f 303//303 122//122 211//211
f 211//211 217//217 212//212
f 130//130 217//217 211//211
f 214//214 212//212 217//217
f 213//213 212//212 214//214
f 211//211 212//212 213//213
f 210//210 216//216 128//128
f 214//214 216//216 210//210
f 214//214 210//210 207//207
f 213//213 214//214 207//207
f 210//210 127//127 209//209
f 216//216 214//214 217//217
f 523//523 578//578 218//218
f 154//154 580//580 219//219
f 218//218 578//578 222//222
f 581//581 222//222 578//578
f 582//582 222//222 581//581
f 226//226 222//222 582//582
f 218//218 222//222 228//228
f 228//228 222//222 231//231
f 224//224 149//149 145//145
f 585//585 583//583 584//584
f 222//222 226//226 231//231
f 223//223 224//224 227//227
f 218//218 228//228 229//229
f 218//218 229//229 224//224
f 230//230 585//585 584//584
f 225//225 234//234 586//586
f 230//230 588//588 585//585
f 228//228 237//237 229//229
f 229//229 237//237 238//238
f 229//229 238//238 224//224
f 224//224 238//238 314//314
f 233//233 589//589 587//587
f 231//231 590//590 232//232
f 232//232 590//590 237//237
f 231//231 232//232 228//228
f 232//232 237//237 228//228
f 594//594 591//591 236//236
f 235//235 586//586 234//234
f 592//592 586//586 593//593
f 586//586 235//235 593//593
f 235//235 240//240 593//593
f 236//236 595//595 594//594
f 315//315 237//237 596//596
f 227//227 224//224 243//243
f 243//243 160//160 227//227
f 239//239 240//240 235//235
f 234//234 239//239 235//235
f 241//241 240//240 239//239
f 244//244 241//241 239//239
f 242//242 315//315 596//596
f 598//598 599//599 597//597
f 244//244 599//599 598//598
f 315//315 242//242 245//245
f 599//599 244//244 600//600
f 186//186 160//160 243//243
f 234//234 246//246 247//247
f 234//234 247//247 239//239
f 244//244 239//239 247//247
f 324//324 600//600 244//244
f 244//244 247//247 322//322
f 247//247 246//246 251//251
f 320//320 186//186 243//243
f 260//260 259//259 186//186
f 248//248 253//253 265//265
f 248//248 601//601 253//253
f 265//265 250//250 248//248
f 250//250 266//266 251//251
f 266//266 250//250 265//265
f 247//247 251//251 321//321
f 186//186 378//378 260//260
f 574//574 602//602 249//249
f 601//601 603//603 253//253
f 255//255 254//254 604//604
f 605//605 253//253 603//603
f 259//259 258//258 189//189
f 254//254 255//255 256//256
f 256//256 255//255 261//261
f 257//257 253//253 605//605
f 253//253 257//257 265//265
f 605//605 606//606 257//257
f 606//606 262//262 257//257
f 256//256 261//261 607//607
f 608//608 265//265 257//257
f 327//327 251//251 266//266
f 321//321 251//251 329//329
f 251//251 327//327 329//329
f 263//263 607//607 261//261
f 269//269 263//263 261//261
f 608//608 609//609 264//264
f 608//608 264//264 265//265
f 267//267 264//264 609//609
f 264//264 267//267 265//265
f 199//199 269//269 261//261
f 266//266 335//335 327//327
f 259//259 330//330 258//258
f 259//259 260//260 330//330
f 263//263 269//269 610//610
f 335//335 266//266 334//334
f 334//334 266//266 265//265
f 610//610 269//269 268//268
f 612//612 274//274 611//611
f 267//267 613//613 265//265
f 269//269 199//199 272//272
f 199//199 271//271 272//272
f 273//273 334//334 265//265
f 613//613 273//273 265//265
f 194//194 270//270 277//277
f 258//258 333//333 270//270
f 271//271 279//279 272//272
f 269//269 272//272 275//275
f 279//279 275//275 272//272
f 269//269 275//275 268//268
f 201//201 277//277 271//271
f 268//268 275//275 614//614
f 334//334 273//273 337//337
f 273//273 613//613 337//337
f 645//645 615//615 616//616
f 276//276 279//279 271//271
f 277//277 276//276 271//271
f 275//275 279//279 338//338
f 646//646 645//645 616//616
f 281//281 277//277 270//270
f 276//276 277//277 278//278
f 617//617 279//279 276//276
f 617//617 280//280 279//279
f 270//270 341//341 281//281
f 279//279 344//344 338//338
f 277//277 356//356 617//617
f 282//282 280//280 617//617
f 280//280 282//282 279//279
f 617//617 356//356 283//283
f 357//357 282//282 617//617
f 617//617 283//283 357//357
f 279//279 282//282 344//344
f 357//357 283//283 356//356
f 281//281 360//360 277//277
f 619//619 292//292 294//294
f 286//286 287//287 284//284
f 618//618 623//623 622//622
f 631//631 620//620 298//298
f 290//290 624//624 576//576
f 290//290 204//204 291//291
f 628//628 288//288 117//117
f 628//628 117//117 289//289
f 625//625 626//626 293//293
f 291//291 302//302 290//290
f 635//635 630//630 627//627
f 288//288 628//628 285//285
f 293//293 629//629 625//625
f 292//292 630//630 294//294
f 294//294 630//630 297//297
f 630//630 304//304 297//297
f 117//117 288//288 285//285
f 205//205 295//295 296//296
f 296//296 295//295 298//298
f 299//299 296//296 298//298
f 299//299 209//209 296//296
f 299//299 298//298 301//301
f 621//621 294//294 297//297
f 620//620 300//300 298//298
f 632//632 621//621 297//297
f 632//632 297//297 633//633
f 300//300 301//301 298//298
f 291//291 204//204 303//303
f 302//302 291//291 303//303
f 302//302 303//303 306//306
f 306//306 303//303 305//305
f 303//303 211//211 305//305
f 304//304 630//630 635//635
f 636//636 304//304 635//635
f 306//306 305//305 307//307
f 211//211 307//307 305//305
f 304//304 636//636 312//312
f 211//211 213//213 307//307
f 637//637 312//312 636//636
f 297//297 304//304 308//308
f 299//299 309//309 209//209
f 297//297 308//308 633//633
f 634//634 638//638 309//309
f 299//299 301//301 309//309
f 639//639 309//309 638//638
f 639//639 307//307 310//310
f 310//310 311//311 639//639
f 639//639 311//311 309//309
f 308//308 304//304 312//312
f 213//213 313//313 307//307
f 311//311 207//207 210//210
f 313//313 213//213 207//207
f 210//210 309//309 311//311
f 313//313 310//310 307//307
f 207//207 310//310 313//313
f 311//311 310//310 207//207
f 237//237 315//315 238//238
f 224//224 314//314 243//243
f 238//238 315//315 314//314
f 314//314 315//315 319//319
f 245//245 643//643 315//315
f 319//319 320//320 314//314
f 243//243 314//314 320//320
f 322//322 324//324 244//244
f 315//315 643//643 319//319
f 643//643 323//323 319//319
f 316//316 318//318 317//317
f 642//642 640//640 641//641
f 320//320 378//378 186//186
f 322//322 247//247 321//321
f 319//319 323//323 370//370
f 323//323 643//643 325//325
f 321//321 326//326 322//322
f 326//326 321//321 328//328
f 322//322 326//326 324//324
f 643//643 644//644 325//325
f 325//325 644//644 367//367
f 328//328 670//670 326//326
f 329//329 328//328 321//321
f 670//670 328//328 368//368
f 371//371 368//368 328//328
f 329//329 331//331 328//328
f 332//332 327//327 335//335
f 327//327 332//332 329//329
f 332//332 331//331 329//329
f 260//260 378//378 330//330
f 378//378 336//336 330//330
f 379//379 328//328 331//331
f 332//332 379//379 331//331
f 336//336 333//333 330//330
f 258//258 330//330 333//333
f 334//334 337//337 339//339
f 340//340 335//335 334//334
f 342//342 341//341 333//333
f 336//336 342//342 333//333
f 337//337 647//647 339//339
f 341//341 270//270 333//333
f 339//339 647//647 343//343
f 392//392 340//340 339//339
f 334//334 339//339 340//340
f 342//342 348//348 341//341
f 336//336 345//345 342//342
f 346//346 343//343 647//647
f 338//338 344//344 649//649
f 339//339 343//343 681//681
f 341//341 348//348 281//281
f 342//342 345//345 348//348
f 347//347 648//648 650//650
f 347//347 650//650 350//350
f 649//649 282//282 652//652
f 349//349 343//343 651//651
f 343//343 349//349 681//681
f 344//344 282//282 649//649
f 281//281 348//348 394//394
f 353//353 351//351 282//282
f 651//651 352//352 349//349
f 351//351 652//652 282//282
f 351//351 353//353 652//652
f 347//347 350//350 653//653
f 349//349 352//352 682//682
f 353//353 282//282 357//357
f 340//340 392//392 393//393
f 277//277 360//360 356//356
f 345//345 394//394 348//348
f 350//350 655//655 653//653
f 683//683 654//654 656//656
f 683//683 656//656 354//354
f 684//684 658//658 355//355
f 394//394 360//360 281//281
f 357//357 356//356 362//362
f 659//659 657//657 358//358
f 660//660 353//353 357//357
f 361//361 660//660 357//357
f 357//357 663//663 361//361
f 355//355 658//658 359//359
f 658//658 661//661 359//359
f 662//662 395//395 661//661
f 359//359 661//661 395//395
f 359//359 395//395 355//355
f 366//366 356//356 360//360
f 406//406 395//395 662//662
f 366//366 365//365 356//356
f 361//361 663//663 711//711
f 356//356 365//365 364//364
f 664//664 363//363 712//712
f 356//356 364//364 362//362
f 666//666 414//414 713//713
f 669//669 667//667 665//665
f 667//667 669//669 415//415
f 669//669 441//441 415//415
f 418//418 366//366 360//360
f 778//778 364//364 365//365
f 778//778 365//365 443//443
f 366//366 443//443 365//365
f 442//442 779//779 782//782
f 325//325 367//367 323//323
f 367//367 370//370 323//323
f 320//320 319//319 380//380
f 370//370 367//367 369//369
f 673//673 671//671 672//672
f 673//673 672//672 674//674
f 369//369 675//675 370//370
f 380//380 319//319 373//373
f 373//373 319//319 370//370
f 374//374 371//371 328//328
f 675//675 372//372 370//370
f 675//675 375//375 372//372
f 372//372 375//375 370//370
f 374//374 676//676 371//371
f 370//370 375//375 377//377
f 379//379 376//376 328//328
f 376//376 676//676 374//374
f 328//328 376//376 374//374
f 677//677 379//379 679//679
f 678//678 377//377 375//375
f 382//382 373//373 370//370
f 382//382 380//380 373//373
f 320//320 380//380 378//378
f 377//377 381//381 370//370
f 380//380 383//383 378//378
f 332//332 335//335 385//385
f 332//332 385//385 379//379
f 679//679 379//379 384//384
f 377//377 387//387 381//381
f 370//370 381//381 382//382
f 379//379 385//385 384//384
f 377//377 680//680 387//387
f 386//386 384//384 385//385
f 680//680 386//386 387//387
f 378//378 383//383 336//336
f 388//388 335//335 340//340
f 385//385 335//335 388//388
f 386//386 385//385 388//388
f 388//388 340//340 389//389
f 345//345 453//453 390//390
f 388//388 456//456 386//386
f 456//456 388//388 391//391
f 389//389 391//391 388//388
f 685//685 389//389 340//340
f 389//389 685//685 391//391
f 473//473 345//345 390//390
f 684//684 355//355 416//416
f 416//416 419//419 684//684
f 742//742 393//393 392//392
f 393//393 742//742 399//399
f 345//345 473//473 394//394
f 355//355 395//395 398//398
f 355//355 398//398 416//416
f 398//398 395//395 714//714
f 685//685 692//692 476//476
f 476//476 692//692 474//474
f 360//360 394//394 418//418
f 394//394 473//473 401//401
f 397//397 404//404 396//396
f 689//689 686//686 409//409
f 687//687 403//403 720//720
f 688//688 705//705 704//704
f 416//416 398//398 732//732
f 398//398 714//714 732//732
f 693//693 743//743 417//417
f 694//694 736//736 400//400
f 696//696 402//402 695//695
f 484//484 697//697 485//485
f 833//833 698//698 737//737
f 699//699 401//401 703//703
f 401//401 738//738 425//425
f 739//739 700//700 422//422
f 697//697 484//484 701//701
f 702//702 831//831 747//747
f 405//405 720//720 403//403
f 704//704 705//705 708//708
f 709//709 706//706 411//411
f 720//720 405//405 412//412
f 725//725 727//727 710//710
f 408//408 427//427 407//407
f 715//715 428//428 718//718
f 721//721 410//410 690//690
f 691//691 723//723 707//707
f 707//707 723//723 726//726
f 724//724 722//722 728//728
f 729//729 726//726 723//723
f 413//413 716//716 757//757
f 717//717 730//730 760//760
f 734//734 733//733 668//668
f 732//732 735//735 416//416
f 416//416 735//735 429//429
f 416//416 781//781 419//419
f 748//748 423//423 834//834
f 749//749 835//835 740//740
f 424//424 834//834 423//423
f 488//488 487//487 489//489
f 394//394 431//431 418//418
f 431//431 394//394 401//401
f 421//421 431//431 401//401
f 421//421 401//401 425//425
f 741//741 419//419 754//754
f 754//754 419//419 420//420
f 420//420 419//419 433//433
f 433//433 744//744 754//754
f 434//434 426//426 439//439
f 751//751 750//750 486//486
f 837//837 747//747 831//831
f 752//752 751//751 486//486
f 420//420 433//433 754//754
f 764//764 490//490 755//755
f 842//842 773//773 756//756
f 719//719 761//761 758//758
f 731//731 759//759 762//762
f 780//780 429//429 735//735
f 429//429 780//780 416//416
f 416//416 780//780 781//781
f 430//430 366//366 418//418
f 783//783 366//366 430//430
f 783//783 430//430 445//445
f 431//431 430//430 418//418
f 781//781 432//432 419//419
f 444//444 432//432 781//781
f 432//432 433//433 419//419
f 447//447 431//431 438//438
f 444//444 448//448 432//432
f 790//790 788//788 770//770
f 435//435 433//433 432//432
f 435//435 432//432 437//437
f 437//437 432//432 771//771
f 771//771 432//432 448//448
f 774//774 843//843 765//765
f 745//745 433//433 435//435
f 746//746 766//766 436//436
f 421//421 768//768 431//431
f 769//769 767//767 440//440
f 775//775 435//435 437//437
f 776//776 431//431 768//768
f 775//775 437//437 771//771
f 777//777 772//772 763//763
f 782//782 784//784 442//442
f 782//782 786//786 784//784
f 431//431 446//446 430//430
f 445//445 430//430 446//446
f 447//447 446//446 431//431
f 785//785 787//787 449//449
f 793//793 445//445 446//446
f 791//791 794//794 789//789
f 785//785 449//449 792//792
f 447//447 793//793 446//446
f 451//451 382//382 381//381
f 382//382 451//451 380//380
f 380//380 451//451 383//383
f 450//450 381//381 387//387
f 381//381 450//450 451//451
f 452//452 450//450 387//387
f 795//795 387//387 386//386
f 452//452 465//465 450//450
f 345//345 336//336 453//453
f 458//458 390//390 453//453
f 336//336 383//383 453//453
f 453//453 383//383 454//454
f 459//459 453//453 454//454
f 453//453 459//459 458//458
f 383//383 451//451 454//454
f 455//455 459//459 454//454
f 455//455 454//454 451//451
f 795//795 386//386 457//457
f 457//457 386//386 456//456
f 456//456 462//462 457//457
f 391//391 462//462 456//456
f 457//457 462//462 795//795
f 451//451 464//464 455//455
f 464//464 451//451 450//450
f 390//390 458//458 460//460
f 460//460 459//459 461//461
f 458//458 459//459 460//460
f 461//461 455//455 464//464
f 455//455 461//461 459//459
f 685//685 462//462 391//391
f 461//461 467//467 460//460
f 450//450 465//465 464//464
f 460//460 473//473 390//390
f 460//460 467//467 473//473
f 464//464 467//467 461//461
f 463//463 462//462 685//685
f 462//462 463//463 797//797
f 469//469 463//463 685//685
f 795//795 462//462 797//797
f 798//798 796//796 466//466
f 465//465 799//799 464//464
f 464//464 799//799 468//468
f 800//800 466//466 796//796
f 470//470 467//467 468//468
f 464//464 468//468 467//467
f 685//685 471//471 469//469
f 804//804 472//472 801//801
f 799//799 802//802 468//468
f 802//802 806//806 468//468
f 467//467 477//477 473//473
f 467//467 470//470 477//477
f 806//806 470//470 468//468
f 472//472 804//804 803//803
f 474//474 471//471 685//685
f 473//473 477//477 703//703
f 805//805 807//807 475//475
f 809//809 808//808 812//812
f 402//402 812//812 808//808
f 810//810 803//803 804//804
f 470//470 811//811 477//477
f 685//685 476//476 474//474
f 473//473 703//703 401//401
f 402//402 808//808 695//695
f 480//480 479//479 478//478
f 813//813 816//816 483//483
f 819//819 814//814 482//482
f 828//828 825//825 815//815
f 817//817 820//820 481//481
f 818//818 822//822 829//829
f 823//823 821//821 826//826
f 824//824 827//827 830//830
f 832//832 836//836 838//838
f 836//836 753//753 838//838
f 839//839 840//840 841//841
