# Wavafront OBJ file of BodyParts3D
# BodyParts3D, Copyright(C) 2010-2011 The Database Center for Life Science licensed under CC Attribution-Share Alike 2.1 Japan.
vn -0.754641 -0.433858 0.492224
v 0.191649 -55.3427 1479.93
vn -0.644685 -0.649927 -0.402462
v -0.492478 -53.3427 1477.24
vn -0.59638 -0.765541 -0.241407
v -0.290851 -53.5427 1477.24
vn -0.401043 -0.12993 -0.906798
v -0.008351 -53.3427 1477.02
vn -0.988996 -0.0234581 0.14607
v -0.625538 -53.7427 1479.04
vn -0.591331 -0.77247 -0.231555
v -0.634913 -53.3427 1477.84
vn -0.546693 -0.650474 -0.527267
v -0.608351 -53.7693 1478.44
vn -0.627875 -0.608746 -0.484976
v -0.608351 -54.5427 1479.41
vn -0.972308 0.192669 -0.132273
v -0.608351 -52.3761 1479.44
vn -0.911569 0.338912 -0.232768
v -0.534913 -52.1427 1479.24
vn -0.946164 0.0737035 0.315185
v -0.213038 -52.7427 1480.04
vn -0.823437 -0.10984 0.556674
v -0.365494 -52.5427 1479.84
vn -0.987284 0.126429 0.0963658
v -0.144288 -52.5427 1480.44
vn -0.941444 0.0143082 0.336867
v -0.069288 -52.1427 1480.24
vn -0.56356 0.573803 -0.594265
v -0.147413 -51.1427 1479.64
vn -0.900141 0.372942 -0.225078
v -0.175538 -50.9427 1480.44
vn -0.984321 0.000207827 0.176386
v 0.202587 -50.1427 1482.24
vn -0.291061 -0.721257 -0.628548
v 1.39165 -55.6681 1478.84
vn 0.35863 -0.907096 0.220364
v 1.79165 -55.6446 1479.04
vn -0.519543 -0.64103 -0.564938
v 0.391649 -55.7568 1479.64
vn 0.256878 -0.650692 0.714573
v 1.19165 -54.7874 1480.04
vn -0.555151 -0.559665 -0.61529
v 1.19165 -54.3537 1476.64
vn 0.0431108 -0.50809 -0.860225
v 1.59165 -54.4893 1476.84
vn 0.131531 0.104541 -0.985784
v 1.79165 -54.3427 1476.76
vn 0.214889 0.335452 -0.917221
v 1.79165 -53.9427 1476.84
vn -0.420106 -0.822392 -0.383643
v 1.39165 -54.6224 1477.64
vn 0.0882403 -0.791321 0.605
v 1.79165 -54.7427 1480.22
vn -0.0442724 -0.607832 0.79283
v 1.19165 -53.2683 1481.44
vn 0.0553606 0.420744 -0.905489
v 1.39165 -52.9427 1477.18
vn -0.74023 -0.317904 0.592449
v 0.591649 -51.7227 1481.64
vn -0.82368 -0.18619 0.535617
v 0.791649 -52.9427 1481.53
vn -0.525117 0.618843 -0.584197
v 0.729744 -50.9427 1478.84
vn -0.115777 0.630149 -0.767794
v 1.79165 -50.3427 1478.91
vn -0.385558 -0.563034 0.730984
v 0.591649 -50.5427 1482.51
vn -0.935984 -0.102459 0.336802
v 0.902587 -50.5427 1482.84
vn -0.35748 0.662531 -0.658226
v 1.79165 -48.9287 1480.24
vn -0.848734 0.401535 -0.344123
v 0.591649 -48.6354 1481.24
vn -0.445089 -0.567964 0.692324
v 0.791649 -48.9909 1483.84
vn -0.923713 -0.224234 0.310602
v 1.18696 -49.9427 1483.84
vn -0.962805 -0.150555 0.224366
v 0.991649 -49.7427 1483.24
vn -0.949981 -0.240771 0.198909
v 1.02446 -49.7427 1483.44
vn -0.835244 0.389942 -0.387701
v 0.591649 -47.6139 1482.04
vn -0.964765 -0.0406936 0.259949
v 0.652587 -48.3427 1484.24
vn -0.798885 -0.364622 0.478366
v 1.11509 -48.1427 1484.84
vn -0.807081 -0.325204 0.492811
v 1.02816 -46.9427 1485.64
vn -0.989987 0.140149 0.0168573
v 0.418212 -46.5427 1483.84
vn -0.839365 0.437031 -0.323217
v 0.791649 -45.7427 1483.78
vn -0.949946 -0.123474 0.286977
v 1.09009 -43.7427 1487.64
vn -0.867675 -0.24911 0.430213
v 1.29634 -44.1427 1487.84
vn -0.921386 0.338213 -0.191467
v 1.57446 -40.3427 1489.44
vn -0.986215 -0.0889926 0.139501
v 1.79946 -38.1427 1492.84
vn -0.933152 0.297894 -0.201213
v 1.86509 -37.5427 1492.84
vn -0.90592 0.384974 -0.176361
v 1.83071 -33.3427 1498.24
vn -0.895362 -0.325476 0.303962
v 1.90571 -33.3427 1499.64
vn 0.112218 -0.921052 -0.372922
v 2.59165 -55.2287 1478.04
vn 0.626597 -0.779264 0.0110773
v 2.99165 -54.9974 1478.04
vn 0.0572387 -0.871473 -0.487092
v 2.39165 -54.5427 1476.79
vn 0.0875977 0.258817 -0.961946
v 2.39165 -54.3427 1476.8
vn 0.241819 0.14518 -0.959399
v 2.59165 -54.3427 1476.83
vn 0.542517 -0.738782 -0.399845
v 3.00772 -54.5427 1477.04
vn 0.657358 -0.752434 0.0415199
v 3.49634 -54.3427 1478.84
vn -0.126714 -0.488933 0.863069
v 2.59165 -53.7427 1480.69
vn 0.370464 -0.755338 0.540574
v 3.19165 -53.7255 1480.84
vn 0.240384 0.343648 -0.907812
v 2.59165 -53.1427 1477.37
vn 0.0366745 0.480845 -0.876038
v 2.87627 -53.1427 1477.44
vn 0.15511 0.456803 -0.875941
v 3.19165 -51.7427 1478.14
vn -0.127307 -0.612489 0.78016
v 3.19165 -52.3427 1481.89
vn 0.0699225 -0.66381 0.744625
v 2.99165 -51.6211 1482.44
vn 0.0370138 0.545773 -0.837115
v 2.99165 -50.9281 1478.44
vn 0.236172 0.403979 -0.883755
v 3.19165 -51.3427 1478.35
vn 0.0922916 -0.673284 0.733601
v 2.99165 -50.7427 1483.34
vn -0.0630025 0.641832 -0.764253
v 2.99165 -49.9427 1479.33
vn -0.2356 0.668843 -0.705082
v 3.39165 -49.8912 1479.24
vn -0.150511 0.671293 -0.725749
v 2.79165 -48.1427 1480.7
vn -0.0645723 -0.611523 0.788587
v 2.59165 -47.8064 1485.84
vn -0.0317128 -0.634826 0.772004
v 2.59165 -47.0755 1486.44
vn 0.140364 -0.645094 0.7511
v 3.38609 -47.7427 1486.04
vn -0.766029 -0.37337 0.523254
v 1.99165 -44.071 1489.04
vn -0.0238127 -0.671216 0.740879
v 2.59165 -44.0076 1489.04
vn -0.851932 -0.291959 0.434709
v 2.08696 -42.3427 1490.44
vn -0.145666 -0.678677 0.719847
v 3.19165 -42.1427 1490.79
vn -0.038895 -0.694046 0.718879
v 2.99165 -41.7162 1491.24
vn -0.750243 0.52993 -0.395359
v 1.99165 -40.0505 1489.04
vn -0.127617 -0.71314 0.689307
v 3.39165 -40.3427 1492.64
vn -0.15481 -0.732673 0.66274
v 2.39165 -37.8767 1495.04
vn -0.623691 0.625671 -0.468557
v 2.19165 -36.8287 1493.04
vn -0.226178 0.770557 -0.59589
v 2.79165 -36.5787 1493.04
vn -0.768548 -0.477682 0.425622
v 2.38696 -35.5427 1498.04
vn -0.267464 0.820202 -0.505698
v 2.39165 -33.2599 1497.64
vn -0.171083 -0.697669 0.695693
v 2.19165 -33.5427 1499.81
vn -0.61215 0.756868 -0.228959
v 2.19165 -32.4282 1499.64
vn -0.974817 0.222569 0.0139338
v 1.99915 -32.7427 1500.44
vn -0.191084 0.933862 -0.302304
v 2.59165 -32.2099 1499.64
vn -0.881844 0.460732 0.100391
v 2.14634 -32.3427 1500.64
vn -0.597549 0.801769 0.0101192
v 2.59165 -31.8755 1501.24
vn -0.212088 -0.662142 0.71874
v 2.59165 -31.9427 1501.4
vn -0.296515 0.93453 -0.196806
v 2.86943 -31.7427 1501.44
vn -0.130867 -0.680041 0.7214
v 3.19165 -31.7974 1501.64
vn 0.617219 -0.775899 0.130465
v 3.79165 -54.0224 1478.64
vn 0.603604 -0.795776 0.0490268
v 3.99165 -54.0693 1478.24
vn 0.454366 -0.838821 0.299883
v 3.79165 -54.1068 1479.44
vn 0.0924082 0.487588 -0.868169
v 4.39165 -51.7427 1478.2
vn 0.307915 0.276988 -0.910201
v 4.59165 -52.6567 1477.84
vn 0.227356 0.462076 -0.857202
v 4.99165 -52.1427 1478.22
vn 0.21868 -0.738235 0.638113
v 4.99165 -53.0584 1480.64
vn 0.0499216 -0.642952 0.764278
v 4.99165 -52.8125 1480.84
vn 0.411506 -0.805441 0.426529
v 4.99165 -52.6099 1481.44
vn 0.554773 -0.795517 0.24368
v 5.15133 -52.5427 1481.24
vn 0.0246575 0.526423 -0.849865
v 4.19165 -51.5427 1478.41
vn -0.19228 -0.594479 0.780784
v 3.79165 -51.1767 1482.84
vn -0.445254 -0.4627 0.766589
v 3.99165 -51.3427 1482.83
vn 0.0357437 -0.721786 0.691193
v 4.19165 -51.3427 1482.96
vn 0.0895131 0.544149 -0.8342
v 4.19165 -49.3427 1479.55
vn -0.162758 0.672972 -0.721539
v 4.19165 -48.9427 1479.85
vn 0.128061 0.507912 -0.851837
v 4.99165 -49.9427 1479.54
vn -0.106584 -0.651398 0.751213
v 4.99165 -48.4182 1485.24
vn 0.0409489 0.616161 -0.786555
v 4.39165 -47.5427 1481.12
vn -0.137666 0.688822 -0.711739
v 4.79165 -47.6912 1481.04
vn 0.16406 -0.653272 0.739134
v 3.79165 -47.6853 1485.84
vn -0.114266 0.65502 -0.746921
v 3.59165 -45.7427 1482.81
vn 0.0292411 -0.656861 0.753444
v 3.99165 -45.3427 1487.85
vn -0.0971998 0.690496 -0.716776
v 4.39165 -44.983 1483.24
vn -0.0746933 0.682696 -0.726875
v 3.99165 -43.5427 1484.52
vn -0.0121885 0.689686 -0.724006
v 4.59165 -43.4318 1484.84
vn -0.0721827 0.703611 -0.706909
v 4.99165 -43.3427 1484.89
vn 0.0948596 -0.695578 0.71216
v 4.19165 -42.938 1490.04
vn -0.0383526 -0.693723 0.71922
v 3.59165 -42.3129 1490.84
vn 0.0128116 -0.737736 0.674968
v 4.59165 -41.4005 1491.64
vn -0.0738817 -0.710916 0.699385
v 4.99165 -41.7427 1491.21
vn -0.0753477 -0.721742 0.688049
v 3.79165 -36.3427 1497.4
vn 0.118047 -0.751784 0.648757
v 4.99165 -31.7427 1501.56
vn -0.106286 0.978769 -0.175254
v 3.59165 -31.4362 1501.84
vn 0.036671 -0.663997 0.746835
v 3.59165 -31.5427 1501.96
vn 0.0796713 0.968175 -0.237256
v 3.79165 -31.4662 1501.64
vn 0.117894 -0.691162 0.713019
v 4.19165 -31.7427 1501.68
vn 0.0897381 0.951015 -0.295833
v 4.21165 -31.5427 1501.64
vn 0.141854 0.983215 -0.11474
v 4.19165 -31.5005 1501.84
vn 0.638476 -0.725744 -0.256211
v 5.75778 -52.7427 1478.64
vn 0.424775 0.138622 -0.894623
v 5.59165 -52.5427 1478.28
vn 0.365318 -0.855343 0.367331
v 5.19165 -53.0318 1480.64
vn 0.511961 -0.856582 0.0645186
v 5.79165 -52.6412 1479.84
vn 0.48569 -0.824152 0.291339
v 5.39165 -52.3911 1481.24
vn -0.101489 -0.628263 0.771353
v 5.79165 -52.3427 1481.35
vn 0.413094 -0.814549 0.407262
v 5.79165 -51.9427 1481.79
vn 0.448129 -0.876733 0.1747
v 6.39165 -52.3224 1481.04
vn 0.189973 -0.776576 0.600699
v 5.59165 -51.5427 1482.63
vn -0.0273813 0.602874 -0.797366
v 5.39165 -49.9427 1479.53
vn 0.100178 0.58527 -0.804626
v 6.39165 -48.7427 1480.4
vn 0.427637 0.320633 -0.845175
v 6.63696 -49.9427 1479.84
vn 0.130203 0.592932 -0.794657
v 5.39165 -47.7427 1480.83
vn 0.236931 0.55789 -0.795375
v 6.59165 -47.3427 1481.46
vn -0.140198 -0.707925 0.692233
v 6.59165 -43.9427 1489.46
vn -0.0129012 0.687481 -0.726088
v 6.39165 -42.7427 1485.33
vn -0.15602 -0.741581 0.652469
v 5.39165 -40.5068 1492.64
vn -0.0942383 -0.767359 0.634255
v 5.99165 -39.0474 1494.64
vn -0.0705574 -0.765312 0.639781
v 6.19165 -39.3162 1494.24
vn 0.0872962 -0.788352 0.609
v 6.39165 -38.8568 1494.84
vn -0.0965822 -0.767359 0.633902
v 6.59165 -38.9427 1494.69
vn -0.0325776 0.769093 -0.638306
v 5.19165 -38.4849 1490.04
vn -0.200825 -0.727135 0.656464
v 5.59165 -38.5427 1494.86
vn -0.0130664 -0.646559 0.762752
v 6.59165 -38.0427 1495.84
vn 0.013766 0.935671 -0.352604
v 5.99165 -31.9755 1499.64
vn 0.203293 0.491863 0.846606
v 5.19165 -31.6157 1501.44
vn -0.00301582 0.969094 -0.246674
v 5.39165 -31.563 1501.24
vn -0.302785 0.951894 0.0471163
v 5.42106 -31.5427 1501.44
vn 0.162055 -0.715296 0.679772
v 5.59165 -31.7427 1501.42
vn 0.129549 0.970838 -0.201717
v 5.79165 -31.5749 1501.44
vn -0.642059 0.730113 -0.233868
v 5.99165 -31.463 1501.24
vn 0.276307 -0.636414 0.720161
v 5.99165 -31.5427 1501.53
vn -0.299877 0.942752 0.145919
v 5.39165 -31.583 1501.64
vn 0.261305 0.425867 -0.866232
v 6.99165 -50.9427 1479.3
vn 0.642769 0.0716432 -0.762703
v 6.79165 -49.5427 1479.98
vn 0.572667 0.217516 -0.790405
v 7.39165 -49.1427 1480.58
vn 0.269781 0.486802 -0.830808
v 7.59165 -49.2656 1480.64
vn 0.0720533 -0.739563 0.66922
v 7.79165 -48.3037 1485.84
vn -0.111616 -0.637939 0.761955
v 7.99165 -47.3427 1486.75
vn -0.0412733 -0.750144 0.659985
v 7.99165 -46.838 1487.24
vn 0.0230922 0.668597 -0.743266
v 7.36857 -45.5427 1483.04
vn 0.14384 0.616612 -0.774015
v 7.79165 -46.3427 1482.62
vn -0.12889 0.719351 -0.682585
v 7.99165 -46.3427 1482.57
vn 0.0968445 0.568675 -0.816841
v 8.19165 -43.8574 1484.64
vn -0.344869 -0.63359 0.692552
v 7.39165 -45.1427 1488.52
vn 0.0712271 0.653436 -0.753623
v 7.99165 -43.1427 1484.91
vn -0.114797 -0.754566 0.646106
v 6.79165 -42.8099 1490.84
vn 0.328937 -0.805484 0.492946
v 7.99165 -40.8322 1493.24
vn -0.221664 -0.664466 0.713688
v 7.39165 -38.9427 1495.16
vn 0.152757 -0.785961 0.599108
v 8.19165 -40.0318 1494.44
vn 0.152781 -0.662611 0.733216
v 7.59165 -32.9427 1499.68
vn 0.0348764 0.882334 -0.469329
v 8.19165 -32.6005 1498.44
vn 0.381379 -0.548244 0.744297
v 7.59165 -31.7427 1500.56
vn -0.133595 0.899786 -0.415377
v 7.79165 -31.6443 1500.64
vn -0.521289 0.612783 0.593932
v 7.79165 -31.7427 1500.74
vn 0.0792474 -0.779384 0.621515
v 8.99165 -50.1427 1483.5
vn 0.560755 0.0488041 -0.826542
v 9.59165 -49.7427 1480.97
vn 0.0391662 -0.728815 0.683589
v 8.79165 -49.7427 1483.7
vn 0.113668 0.589693 -0.799589
v 8.77165 -48.1427 1481.44
vn 0.348858 0.484181 -0.802413
v 8.99165 -46.9177 1482.44
vn 0.25872 0.519556 -0.814326
v 8.39165 -46.7427 1482.16
vn 0.498439 0.364768 -0.786449
v 8.79165 -46.7427 1482.35
vn 0.597706 0.371448 -0.710474
v 8.99009 -46.5427 1482.64
vn 0.0777521 0.658579 -0.748484
v 9.19165 -45.3427 1483.42
vn 0.619876 0.245819 -0.745202
v 8.79165 -44.9427 1483.89
vn -0.0409801 0.709188 -0.703827
v 8.99165 -45.0318 1483.84
vn 0.508435 0.382024 -0.77172
v 9.19165 -43.9427 1484.55
vn -0.0961363 0.716715 -0.690708
v 9.39165 -44.2327 1484.64
vn -0.207658 0.71871 -0.663577
v 9.79165 -43.9568 1484.84
vn -0.341558 -0.62702 0.700132
v 8.79165 -44.9427 1489.52
vn -0.0217355 -0.812567 0.582462
v 9.19165 -45.1427 1489.48
vn -0.35529 -0.64937 0.672374
v 9.59165 -43.7073 1491.04
vn 0.130246 0.608779 -0.782575
v 8.99165 -43.5427 1484.76
vn -0.0533543 -0.784587 0.617718
v 8.39165 -40.4318 1493.64
vn -0.440899 -0.500293 0.745194
v 9.39165 -40.5314 1494.24
vn -0.252959 -0.336622 0.907027
v 9.79165 -40.5427 1494.41
vn 0.223079 -0.837367 0.499051
v 8.39165 -40.0912 1494.24
vn -0.435764 -0.670259 0.600718
v 8.59165 -40.1427 1494.07
vn -0.0645476 -0.644374 0.761982
v 8.79165 -39.7427 1494.61
vn -0.354217 -0.670432 0.65196
v 8.99165 -40.2099 1494.24
vn -0.24013 -0.59082 0.77024
v 8.99165 -39.9427 1494.62
vn -0.031961 -0.401508 0.915298
v 8.99165 -39.5427 1494.74
vn -0.261722 -0.614151 0.744527
v 9.32974 -40.1427 1494.44
vn -0.114833 -0.406564 0.906377
v 9.39165 -39.9427 1494.6
vn 0.00798083 -0.39389 0.919123
v 9.59165 -39.5427 1494.7
vn 0.128609 0.896893 -0.423134
v 9.79165 -32.1427 1499.92
vn 0.185697 0.887481 -0.421776
v 8.59165 -31.7427 1500.42
vn 0.175828 0.893479 -0.413256
v 8.79165 -32.0287 1500.04
vn 0.164732 -0.574286 0.80191
v 8.79165 -32.1427 1500.16
vn 0.471826 -0.87663 0.0943365
v 10.2072 -50.1427 1482.44
vn 0.351161 0.39623 -0.848344
v 9.99165 -48.5427 1481.5
vn 0.000794594 -0.82837 0.560181
v 10.1916 -44.4537 1490.24
vn -0.122602 -0.824148 0.552945
v 10.9916 -44.7162 1490.24
vn -0.360843 -0.653721 0.665163
v 10.978 -43.9427 1491.04
vn 0.465763 0.487531 -0.738498
v 10.1916 -42.6302 1486.04
vn -0.0448873 0.726822 -0.685358
v 10.7916 -42.3444 1486.24
vn -0.261606 -0.775315 0.574846
v 11.3916 -43.5427 1491.62
vn -0.125666 -0.802972 0.582618
v 10.9916 -43.213 1492.44
vn -0.127774 -0.858714 0.49627
v 11.3916 -43.0724 1492.64
vn -0.202015 -0.479101 0.854197
v 9.99165 -40.9427 1494.37
vn -0.14062 -0.750136 0.646159
v 10.1916 -41.5427 1493.73
vn -0.115278 -0.5815 0.805338
v 10.7916 -41.1427 1494.23
vn -0.321195 -0.46381 0.82566
v 11.3916 -41.7427 1494.11
vn -0.0460423 -0.250657 0.966981
v 9.99165 -40.3427 1494.49
vn 0.129136 0.791441 -0.597449
v 10.5916 -36.9505 1492.04
vn 0.248793 0.825314 -0.506911
v 11.1916 -34.6099 1495.64
vn 0.0663877 -0.606631 0.792207
v 9.99165 -34.7427 1498.16
vn 0.0514655 -0.600988 0.7976
v 10.3916 -32.4087 1499.84
vn 0.107107 0.896535 -0.429829
v 10.5916 -32.8849 1498.44
vn 0.0275765 0.927808 -0.372038
v 10.5916 -32.4037 1499.64
vn 0.0628652 -0.57634 0.814788
v 10.5916 -32.5427 1499.73
vn 0.157652 -0.899595 -0.407278
v 10.5916 -32.3737 1499.84
vn 0.266036 0.951616 -0.15379
v 10.7916 -32.4724 1499.44
vn 0.0922507 -0.527745 0.844379
v 10.9916 -32.5427 1499.68
vn 0.381884 0.924021 0.0187078
v 11.1916 -32.6377 1499.44
vn 0.0546372 -0.573318 0.817509
v 11.1916 -32.7427 1499.54
vn 0.133972 0.894765 -0.425965
v 10.3916 -32.3427 1499.73
vn 0.140674 0.14293 0.979684
v 10.3916 -32.2827 1499.84
vn 0.129071 -0.874806 -0.466964
v 10.5916 -32.3427 1499.77
vn 0.481457 0.26525 -0.835369
v 11.6468 -47.7427 1482.64
vn -0.0692352 -0.731803 0.677991
v 12.0627 -47.7427 1486.24
vn 0.0739628 -0.822609 0.563776
v 12.9916 -46.3974 1487.84
vn 0.32262 0.524564 -0.787876
v 12.9916 -44.3427 1485.14
vn -0.467365 -0.605023 0.644606
v 11.5916 -43.9427 1491.53
vn -0.421093 -0.706312 0.569037
v 11.7967 -43.5427 1492.04
vn -0.191304 -0.666717 0.720341
v 12.1916 -42.1427 1494.15
vn -0.127528 -0.242565 0.961717
v 11.9916 -40.5427 1494.44
vn -0.253265 -0.286639 0.923956
v 12.7916 -41.7427 1494.53
vn 0.227628 0.733321 -0.640645
v 12.9916 -39.6152 1489.44
vn -0.0728065 -0.421864 0.903731
v 11.9916 -39.5427 1494.83
vn 0.176845 0.762973 -0.62177
v 12.7916 -38.6693 1490.44
vn 0.361429 0.708456 -0.606184
v 12.1916 -37.3594 1492.24
vn 0.360094 0.739065 -0.569311
v 12.5916 -37.2912 1492.64
vn 0.398555 0.680056 -0.615368
v 12.1916 -36.9427 1492.58
vn 0.245896 0.80852 -0.534631
v 11.5916 -35.6474 1494.44
vn 0.578826 0.585382 -0.567705
v 12.7916 -36.5367 1493.64
vn 0.597754 0.584451 -0.548733
v 12.9883 -35.7427 1494.64
vn -0.0872113 -0.540315 0.836931
v 12.7916 -37.1427 1496.23
vn -0.00788708 0.88833 -0.459138
v 11.9916 -33.4318 1498.24
vn -0.265617 0.909188 -0.320664
v 12.3916 -33.2693 1498.24
vn 0.184248 0.88867 -0.419903
v 12.7916 -33.788 1497.64
vn 0.200556 0.907534 -0.368998
v 11.9916 -32.9427 1499.16
vn -0.102768 0.928325 -0.357282
v 12.1916 -33.2099 1498.64
vn -0.0030925 0.949326 -0.314278
v 12.4966 -33.1427 1498.84
vn 0.699845 -0.407596 -0.586585
v 13.7151 -47.7427 1484.24
vn 0.645799 -0.0441726 -0.762229
v 13.9916 -47.3427 1484.39
vn 0.616916 -0.77516 -0.136168
v 14.1916 -47.7099 1485.04
vn 0.344879 -0.898779 0.270658
v 14.1916 -47.3427 1486.32
vn 0.131991 -0.871292 0.472683
v 14.3916 -46.9787 1487.24
vn -0.216563 -0.67176 0.708406
v 13.7916 -46.5427 1487.79
vn -0.167045 -0.718599 0.675064
v 13.7916 -46.1576 1488.04
vn -0.0785476 -0.833175 0.547402
v 14.5916 -45.1974 1489.64
vn -0.0107739 -0.841707 0.539827
v 13.7916 -43.0037 1493.44
vn -0.218048 -0.746038 0.629192
v 13.3916 -42.7427 1493.8
vn 0.0981144 -0.665543 0.739883
v 14.6013 -42.1427 1494.84
vn 0.24596 0.659493 -0.710333
v 13.3916 -41.1427 1487.94
vn -0.283682 -0.425213 0.859487
v 13.7916 -41.7427 1494.78
vn -0.248649 -0.335516 0.908627
v 14.1916 -41.9427 1494.88
vn 0.0520286 -0.262233 0.963601
v 14.5916 -41.9427 1494.91
vn 0.219194 0.75759 -0.614826
v 13.3916 -39.5427 1489.69
vn -0.0705052 -0.236079 0.969173
v 13.7916 -39.7427 1494.93
vn 0.568204 0.6035 -0.559403
v 13.3916 -36.1427 1494.63
vn 0.404989 0.766239 -0.498861
v 13.5916 -34.3974 1496.84
vn 0.38967 0.760707 -0.519117
v 14.1916 -34.4863 1497.44
vn 0.0236745 -0.503568 0.863631
v 14.1916 -34.3427 1498.16
vn 0.00352838 -0.521751 0.853091
v 14.1916 -34.2252 1498.24
vn 0.465808 0.760602 -0.452225
v 14.2916 -34.1427 1498.04
vn -0.0933105 -0.466336 0.879673
v 14.3916 -35.5427 1497.48
vn 0.189704 0.87683 -0.441793
v 14.3916 -34.1974 1498.04
vn 0.2992 -0.770212 -0.563252
v 14.3916 -34.2183 1498.24
vn 0.2992 -0.770212 -0.563252
v 14.3916 -34.1427 1498.13
vn 0.362675 0.840585 -0.402348
v 14.3916 -34.0919 1498.24
vn 0.0954352 0.889167 -0.447521
v 14.5916 -34.388 1497.64
vn -0.0128993 -0.391868 0.919931
v 14.5916 -34.3427 1498.16
vn 0.0889965 -0.803986 -0.587951
v 14.5916 -34.1427 1498.16
vn 0.364922 0.841257 -0.398897
v 13.7916 -33.7255 1498.24
vn 0.500414 0.809908 -0.305998
v 13.1916 -33.688 1498.44
vn 0.0210457 -0.579087 0.814994
v 13.1916 -33.7427 1498.5
vn 0.202192 0.944827 -0.257723
v 13.7916 -33.6505 1498.44
vn 0.0103844 -0.511505 0.859218
v 13.7916 -33.7427 1498.53
vn 0.751017 -0.274071 -0.600714
v 15.3916 -46.5427 1485.62
vn 0.547642 0.294533 -0.783159
v 15.3916 -46.0353 1485.64
vn 0.736589 -0.609061 -0.294078
v 15.7916 -46.5183 1486.24
vn -0.180737 -0.747758 0.638899
v 14.7916 -46.0391 1488.64
vn -0.241366 -0.78616 0.568942
v 15.3916 -45.2037 1489.84
vn -0.0506955 -0.852826 0.519729
v 15.5916 -45.963 1488.84
vn 0.242618 -0.922584 0.299959
v 16.1917 -45.7912 1489.04
vn -0.0390154 -0.863348 0.503098
v 14.7916 -44.1427 1491.48
vn 0.130003 -0.908055 0.398165
v 14.7916 -43.963 1491.84
vn 0.466151 0.533456 -0.705782
v 14.9916 -42.6064 1487.44
vn 0.480223 0.530152 -0.698803
v 15.7916 -42.7427 1487.86
vn 0.0553371 -0.870858 0.488409
v 15.1916 -43.3427 1493.27
vn 0.199278 -0.893122 0.403263
v 15.5916 -43.2412 1493.04
vn 0.255152 -0.585772 0.769265
v 14.7916 -42.0223 1494.84
vn -0.300936 -0.744791 0.595587
v 14.9916 -42.0912 1494.64
vn -0.285645 -0.77289 0.566611
v 15.5916 -42.3427 1494.73
vn 0.222529 -0.839248 0.496129
v 16.1917 -42.3427 1494.79
vn -0.089144 -0.31798 0.943897
v 16.1917 -42.1427 1494.87
vn 0.600537 0.475695 -0.642704
v 16.1432 -41.5427 1489.24
vn 0.14248 -0.485636 0.862471
v 14.9916 -41.9427 1494.86
vn -0.0363681 -0.103354 0.99398
v 15.9916 -41.5427 1494.89
vn 0.327125 0.681481 -0.654655
v 14.9916 -40.1224 1489.64
vn 0.337544 0.753234 -0.564538
v 15.5916 -37.1943 1493.44
vn 0.175434 0.851326 -0.494436
v 14.9916 -35.3427 1496.01
vn 0.163614 0.911507 -0.377341
v 14.9916 -34.2943 1498.04
vn 0.397843 0.87394 -0.279194
v 15.3916 -34.4599 1497.84
vn -0.186531 -0.354907 0.916104
v 15.5916 -34.9427 1497.95
vn -0.0507528 -0.271048 0.961227
v 15.5916 -34.7534 1498.04
vn 0.687443 -0.290947 0.665411
v 15.7897 -34.7427 1497.84
vn 0.866472 -0.449781 -0.216618
v 15.7916 -34.8353 1498.04
vn 0.866472 -0.449781 -0.216618
v 15.7916 -34.7427 1497.84
vn 0.0166076 -0.0608639 0.998008
v 15.7916 -34.6989 1498.04
vn 0.0110419 0.960666 -0.277486
v 15.9916 -34.7427 1497.85
vn 0.619368 0.373482 -0.690575
v 17.5917 -44.1427 1488.08
vn 0.353388 0.56298 -0.747108
v 16.3916 -43.1427 1487.98
vn 0.365181 0.621425 -0.693162
v 16.3916 -42.8427 1488.24
vn 0.357348 0.588811 -0.724986
v 16.7916 -43.1427 1488.09
vn 0.288657 0.700914 -0.652225
v 16.7916 -42.8162 1488.44
vn 0.239301 -0.862114 0.446648
v 16.3916 -42.338 1494.64
vn 0.0987967 -0.66578 0.739578
v 16.3916 -42.2062 1494.84
vn -0.0663176 -0.703587 0.707508
v 16.9916 -42.1427 1494.92
vn 0.539531 0.567804 -0.621695
v 16.6526 -40.5427 1490.24
vn 0.483495 0.604424 -0.63317
v 17.7916 -41.9427 1489.83
vn 0.466335 0.667112 -0.580942
v 17.637 -41.1427 1490.64
vn -0.14187 -0.216258 0.965974
v 16.9916 -41.9427 1495.01
vn -0.115758 -0.0236749 0.992995
v 16.9916 -40.5427 1494.92
vn 0.935792 -0.165239 -0.311432
v 17.2245 -39.9427 1491.64
vn 0.476809 0.642253 -0.600137
v 17.5917 -39.9427 1491.99
vn -0.0630539 -0.585439 0.808261
v 16.9916 -38.7427 1495.54
vn 0.388713 0.804711 -0.448713
v 17.3916 -35.9974 1496.24
vn -0.104899 -0.359129 0.927374
v 17.5917 -36.3427 1497.88
vn 0.00438246 -0.6326 0.774466
v 17.7916 -37.1427 1497.34
vn 0.20632 0.896906 -0.391142
v 16.3916 -34.6912 1498.04
vn 0.444157 0.842123 -0.305865
v 17.7916 -35.5193 1497.84
vn 0.439057 -0.894317 0.0861748
v 18.1917 -44.8505 1489.84
vn 0.799671 -0.0776087 -0.595402
v 18.5917 -44.1427 1489.09
vn 0.157733 -0.941167 0.298872
v 18.3916 -44.5162 1491.84
vn 0.336421 -0.932833 0.12901
v 19.1917 -44.3974 1491.64
vn 0.620189 -0.770897 -0.145204
v 19.3916 -44.3037 1491.44
vn 0.794182 -0.497965 -0.348289
v 19.4504 -43.9427 1490.64
vn 0.62015 0.481783 -0.619111
v 19.0745 -42.3427 1490.64
vn -0.212812 -0.697078 0.684684
v 18.1917 -42.4193 1495.04
vn -0.322613 -0.770426 0.549877
v 18.5917 -42.7943 1494.64
vn -0.183511 -0.19452 0.96358
v 18.7774 -42.3427 1495.24
vn -0.162732 -0.839424 0.518541
v 19.3916 -42.7427 1495.26
vn -0.134807 -0.394986 0.908742
v 18.5917 -39.5427 1495.27
vn 0.469776 0.724334 -0.50463
v 18.9916 -37.1818 1495.84
vn -0.0328128 -0.12274 0.991896
v 17.9916 -35.7427 1498.06
vn -0.0511434 0.688133 0.72378
v 18.1917 -35.6999 1498.04
vn 0.0205325 -0.185092 0.982507
v 18.3916 -35.9387 1498.04
vn 0.0690714 -0.513751 0.855154
v 18.5917 -36.1427 1497.95
vn 0.510085 0.816469 -0.27054
v 18.5917 -35.9037 1497.84
vn 0.126866 -0.577904 0.806183
v 18.7916 -36.507 1497.64
vn 0.787343 0.207865 0.580416
v 18.9916 -36.4755 1497.44
vn 0.512833 0.797415 -0.318011
v 19.5628 -36.9427 1496.84
vn 0.593144 -0.804674 -0.0260809
v 20.5917 -43.563 1493.04
vn 0.739352 0.269691 -0.616948
v 19.8088 -42.9427 1491.04
vn 0.813056 0.174603 -0.555386
v 20.6713 -43.1427 1492.24
vn 0.24445 -0.915794 0.318693
v 20.5917 -43.4224 1493.84
vn 0.592727 0.553786 -0.584805
v 19.7916 -41.3427 1492.34
vn 0.700272 0.41509 -0.580792
v 20.3916 -41.9427 1492.27
vn 0.888194 -0.0226349 -0.458911
v 20.3463 -39.1427 1495.04
vn 0.525047 0.600149 -0.603446
v 20.7916 -40.1427 1494.38
vn -0.21761 -0.547511 0.808008
v 20.5917 -38.9427 1496.12
vn 0.368428 0.723604 -0.583659
v 20.9916 -39.0662 1495.84
vn -0.182211 -0.505337 0.843465
v 20.9916 -39.1427 1496.11
vn -0.271413 -0.853011 -0.445766
v 20.9916 -38.9586 1496.24
vn 0.790218 0.380078 -0.480725
v 20.4599 -38.7427 1495.24
vn 0.552827 0.612884 -0.564584
v 20.7901 -38.7427 1496.04
vn -0.126503 -0.565187 0.815206
v 20.5917 -38.3427 1496.59
vn 0.664023 0.659048 -0.35317
v 20.5917 -37.8568 1496.64
vn 0.708975 -0.705219 -0.00448698
v 20.7916 -38.7427 1496.28
vn -0.130633 -0.583862 0.801275
v 19.7916 -37.3427 1496.94
vn 0.87425 0.44274 -0.199169
v 20.7122 -37.9427 1496.84
vn 0.829961 -0.51612 -0.211624
v 21.3151 -42.9427 1493.64
vn 0.577081 -0.807002 0.1254
v 21.5917 -42.7193 1494.84
vn 0.875243 -0.479677 -0.0621256
v 21.9495 -42.3427 1495.04
vn 0.488289 -0.813329 0.316338
v 21.8028 -42.3427 1495.64
vn 0.0294512 -0.169709 0.985054
v 21.7916 -42.1427 1495.72
vn 0.75139 0.408232 -0.51842
v 21.7807 -40.9427 1495.04
vn 0.909215 0.0327355 -0.415038
v 21.9245 -41.9427 1494.64
vn 0.889829 0.280725 -0.359718
v 22.1432 -40.9427 1495.64
vn -0.0207963 -0.0238886 0.999498
v 21.9916 -40.9427 1495.79
vn 0.974304 -0.0733849 -0.212946
v 22.1917 -41.7427 1495.4
vn 0.960741 -0.277427 0.00341001
v 22.2151 -41.7427 1495.64
vn 0.753889 0.424722 -0.501261
v 21.1917 -40.1007 1494.84
vn 0.356302 0.720313 -0.595146
v 21.1917 -38.9683 1496.04
vn -0.179811 -0.538964 0.822913
v 21.1917 -39.1427 1496.15
vn -0.271413 -0.853011 -0.445766
v 21.1917 -39.0223 1496.24
vn -0.271413 -0.853011 -0.445766
v 21.1917 -38.9427 1496.08
vn -0.0396836 0.999212 0
v 21.1917 -38.9427 1496.29
vn -0.151635 -0.501683 0.851658
v 21.3916 -39.3884 1496.04
vn 0.668514 0.519018 -0.532643
v 21.4276 -39.1427 1496.04
vn 0.313288 -0.841662 -0.439835
v 21.3916 -38.9427 1496.23
vn -0.185013 -0.309197 0.932828
v 21.5917 -40.1427 1495.67
vn -0.120499 -0.544998 0.829733
v 0.191649 -55.3427 1479.93
vn -0.401043 -0.12993 -0.906798
v -0.492478 -53.3427 1477.24
vn -0.498473 0.616195 -0.609777
v -0.492478 -53.3427 1477.24
vn -0.119673 0.563643 -0.817303
v -0.008351 -53.3427 1477.02
vn -0.992423 0.0982001 -0.0738467
v -0.634913 -53.3427 1477.84
vn -0.997549 -0.0650841 -0.0256942
v -0.608351 -53.7693 1478.44
vn -0.770807 -0.336859 0.540724
v -0.608351 -54.5427 1479.41
vn -0.989746 0.089746 0.11112
v -0.608351 -54.5427 1479.41
vn -0.868875 -0.10492 0.483785
v -0.608351 -52.3761 1479.44
vn -0.667425 -0.343956 0.660484
v -0.144288 -52.5427 1480.44
vn -0.917367 0.37737 -0.126606
v -0.147413 -51.1427 1479.64
vn -0.917268 -0.0868855 0.388678
v -0.175538 -50.9427 1480.44
vn 0.12663 -0.982305 -0.137992
v 1.39165 -55.6681 1478.84
vn 0.356996 -0.59252 0.722131
v 1.79165 -55.6446 1479.04
vn -0.764667 -0.57484 0.291278
v 0.391649 -55.7568 1479.64
vn 0.25591 -0.609705 0.75018
v 0.391649 -55.7568 1479.64
vn 0.0700252 -0.99728 -0.022997
v 0.391649 -55.7568 1479.64
vn -0.121821 -0.788503 0.602846
v 1.19165 -54.7874 1480.04
vn -0.26244 -0.237272 0.935322
v 1.19165 -54.7874 1480.04
vn -0.401043 -0.12993 -0.906798
v 1.19165 -54.3537 1476.64
vn -0.370662 -0.912854 -0.171196
v 1.19165 -54.3537 1476.64
vn 0.0911232 0.300159 -0.949527
v 1.19165 -54.3537 1476.64
vn 0.167951 -0.626637 -0.760999
v 1.19165 -54.3537 1476.64
vn -0.228889 -0.922118 -0.311944
v 1.59165 -54.4893 1476.84
vn -0.238396 -0.257081 0.936524
v 1.79165 -54.7427 1480.22
vn -0.252979 -0.532045 0.808041
v 0.791649 -52.9427 1481.53
vn -0.324716 0.632011 -0.703648
v 0.591649 -48.6354 1481.24
vn -0.208601 -0.598026 0.773854
v 1.18696 -49.9427 1483.84
vn -0.253128 -0.621717 0.741212
v 0.991649 -49.7427 1483.24
vn -0.224889 0.634267 -0.739683
v 0.591649 -47.6139 1482.04
vn -0.505998 -0.52718 0.682676
v 0.652587 -48.3427 1484.24
vn -0.306316 0.673173 -0.673059
v 0.791649 -45.7427 1483.78
vn 0.120868 -0.0984791 -0.987772
v 2.39165 -54.5427 1476.79
vn 0.409356 -0.0458265 -0.911223
v 3.00772 -54.5427 1477.04
vn -0.0939544 -0.503181 0.859058
v 3.19165 -53.7255 1480.84
vn 0.43314 -0.853943 0.288396
v 3.19165 -53.7255 1480.84
vn -0.0399564 -0.656701 0.753092
v 1.99165 -44.071 1489.04
vn -0.190605 -0.656602 0.729756
v 2.08696 -42.3427 1490.44
vn -0.241547 0.735537 -0.632961
v 1.99165 -40.0505 1489.04
vn -0.890388 -0.344209 0.297873
v 2.39165 -37.8767 1495.04
vn -0.103755 -0.726139 0.679674
v 2.38696 -35.5427 1498.04
vn -0.505747 -0.604075 0.615885
v 1.99915 -32.7427 1500.44
vn -0.880803 0.0917722 0.464505
v 1.99915 -32.7427 1500.44
vn -0.806138 0.480382 0.345507
v 2.59165 -31.9427 1501.4
vn -0.417516 0.442832 0.793461
v 2.59165 -31.9427 1501.4
vn -0.581013 0.754061 0.306294
v 2.86943 -31.7427 1501.44
vn -0.417516 0.442832 0.793461
v 2.86943 -31.7427 1501.44
vn -0.5407 -0.177781 0.822215
v 2.86943 -31.7427 1501.44
vn -0.565775 0.612348 0.552203
v 2.86943 -31.7427 1501.44
vn -0.417516 0.442832 0.793461
v 3.19165 -31.7974 1501.64
vn -0.5407 -0.177781 0.822215
v 3.19165 -31.7974 1501.64
vn 0.522558 -0.800665 0.293033
v 4.99165 -52.8125 1480.84
vn -0.46317 -0.434115 0.77267
v 4.19165 -51.3427 1482.96
vn 0.186156 0.394355 0.899906
v 4.99165 -31.7427 1501.56
vn -0.565775 0.612348 0.552203
v 3.59165 -31.4362 1501.84
vn 0.0794223 0.740291 0.667579
v 3.59165 -31.4362 1501.84
vn -0.5407 -0.177781 0.822215
v 3.59165 -31.5427 1501.96
vn -0.565775 0.612348 0.552203
v 3.59165 -31.5427 1501.96
vn 0.0794223 0.740291 0.667579
v 3.59165 -31.5427 1501.96
vn 0.144778 0.184295 0.97215
v 4.19165 -31.7427 1501.68
vn 0.990489 -0.0755328 0.115009
v 4.19165 -31.7427 1501.68
vn 0.179599 0.339158 0.923426
v 4.21165 -31.5427 1501.64
vn 0.990489 -0.0755328 0.115009
v 4.21165 -31.5427 1501.64
vn 0.146717 0.910523 0.386552
v 4.21165 -31.5427 1501.64
vn 0.0794223 0.740291 0.667579
v 4.19165 -31.5005 1501.84
vn 0.199141 -0.537956 0.819113
v 4.19165 -31.5005 1501.84
vn 0.990489 -0.0755328 0.115009
v 4.19165 -31.5005 1501.84
vn 0.675058 -0.431993 -0.598063
v 5.59165 -52.5427 1478.28
vn -0.151818 -0.580371 0.800076
v 5.39165 -52.3911 1481.24
vn -0.642059 0.730113 -0.233868
v 5.99165 -31.9755 1499.64
vn -0.302785 0.951894 0.0471163
v 5.19165 -31.6157 1501.44
vn 0.146717 0.910523 0.386552
v 5.19165 -31.6157 1501.44
vn -0.260156 -0.877338 0.403233
v 5.19165 -31.6157 1501.44
vn 0.146717 0.910523 0.386552
v 5.39165 -31.563 1501.24
vn 0.74115 0.648164 -0.174872
v 5.39165 -31.563 1501.24
vn -0.302709 0.951655 -0.0521506
v 5.39165 -31.563 1501.24
vn -0.402608 0.389331 0.828449
v 5.39165 -31.563 1501.24
vn 0.761862 0.647014 0.0306544
v 5.42106 -31.5427 1501.44
vn -0.260156 -0.877338 0.403233
v 5.59165 -31.7427 1501.42
vn 0.197099 0.499008 0.843886
v 5.59165 -31.7427 1501.42
vn 0.761862 0.647014 0.0306544
v 5.59165 -31.7427 1501.42
vn -0.420081 0.412338 0.808399
v 5.59165 -31.7427 1501.42
vn -0.420081 0.412338 0.808399
v 5.79165 -31.5749 1501.44
vn -0.642059 0.730113 -0.233868
v 5.79165 -31.5749 1501.44
vn -0.267297 0.929885 0.252717
v 5.79165 -31.5749 1501.44
vn -0.267297 0.929885 0.252717
v 5.99165 -31.463 1501.24
vn 0.268875 0.929461 0.252602
v 5.99165 -31.463 1501.24
vn 0.0379527 0.95165 -0.304831
v 5.99165 -31.463 1501.24
vn -0.437035 0.434835 0.787349
v 5.99165 -31.5427 1501.53
vn -0.267297 0.929885 0.252717
v 5.99165 -31.5427 1501.53
vn 0.268875 0.929461 0.252602
v 5.99165 -31.5427 1501.53
vn -0.260156 -0.877338 0.403233
v 5.39165 -31.583 1501.64
vn 0.750064 0.618254 0.234873
v 5.39165 -31.583 1501.64
vn 0.18212 0.528361 -0.829257
v 6.79165 -49.5427 1479.98
vn -0.577115 -0.484338 0.657538
v 7.59165 -32.9427 1499.68
vn 0.268875 0.929461 0.252602
v 7.59165 -31.7427 1500.56
vn -0.0540938 0.928707 -0.366847
v 7.59165 -31.7427 1500.56
vn -0.521289 0.612783 0.593932
v 7.59165 -31.7427 1500.56
vn -0.577115 -0.484338 0.657538
v 7.59165 -31.7427 1500.56
vn -0.521289 0.612783 0.593932
v 7.79165 -31.6443 1500.64
vn 0.268625 0.691672 0.670395
v 7.79165 -31.6443 1500.64
vn -0.577115 -0.484338 0.657538
v 7.79165 -31.7427 1500.74
vn 0.253322 -0.535141 0.805886
v 7.79165 -31.7427 1500.74
vn 0.268625 0.691672 0.670395
v 7.79165 -31.7427 1500.74
vn 0.099102 0.655551 -0.74862
v 8.79165 -44.9427 1483.89
vn 0.660408 0.245122 -0.709772
v 9.39165 -44.2327 1484.64
vn 0.203479 -0.837701 0.506807
v 8.59165 -40.1427 1494.07
vn 0.192131 0.578796 0.792516
v 9.79165 -32.1427 1499.92
vn 0.343418 -0.384089 0.857053
v 8.59165 -31.7427 1500.42
vn 0.268625 0.691672 0.670395
v 8.59165 -31.7427 1500.42
vn 0.919926 0.286086 0.268125
v 8.59165 -31.7427 1500.42
vn 0.16355 0.719815 0.674624
v 8.79165 -32.0287 1500.04
vn 0.919926 0.286086 0.268125
v 8.79165 -32.0287 1500.04
vn 0.202359 0.400547 0.893651
v 8.79165 -32.1427 1500.16
vn 0.919926 0.286086 0.268125
v 8.79165 -32.1427 1500.16
vn -0.122635 0.718284 -0.684856
v 10.1916 -42.6302 1486.04
vn 0.0990325 0 0.995084
v 10.3916 -32.4087 1499.84
vn 0.129071 -0.874806 -0.466964
v 10.3916 -32.4087 1499.84
vn 0.557567 0.600849 0.5728
v 10.3916 -32.4087 1499.84
vn 0.557567 0.600849 0.5728
v 10.5916 -32.4037 1499.64
vn 0.0916297 0.536838 0.838695
v 10.5916 -32.4037 1499.64
vn 0.327957 0.944687 0.00339053
v 10.5916 -32.4037 1499.64
vn 0.637981 0.41514 0.648567
v 10.5916 -32.5427 1499.73
vn 0.0916297 0.536838 0.838695
v 10.5916 -32.5427 1499.73
vn 0 0 1
v 10.5916 -32.3737 1499.84
vn 0.382729 0.841625 0.381033
v 10.5916 -32.3737 1499.84
vn 0.0916297 0.536838 0.838695
v 10.9916 -32.5427 1499.68
vn 0.355006 0.934616 -0.0215436
v 10.9916 -32.5427 1499.68
vn 0.773312 0.433817 0.462376
v 10.9916 -32.5427 1499.68
vn 0.629471 0.53166 0.56666
v 11.1916 -32.6377 1499.44
vn 0.629471 0.53166 0.56666
v 11.1916 -32.7427 1499.54
vn 0.392866 -0.152653 0.906837
v 11.1916 -32.7427 1499.54
vn 0.0998458 -0.845649 -0.524318
v 10.3916 -32.3427 1499.73
vn 0.451117 0.758502 0.470285
v 10.3916 -32.3427 1499.73
vn 0.11514 0.865341 -0.487778
v 10.3916 -32.2827 1499.84
vn 0.382729 0.841625 0.381033
v 10.3916 -32.2827 1499.84
vn 0.0931032 0.867351 -0.488911
v 10.5916 -32.3427 1499.77
vn 0.382729 0.841625 0.381033
v 10.5916 -32.3427 1499.77
vn -0.336564 0.828472 -0.447615
v 11.5916 -35.6474 1494.44
vn 0.122004 0.834663 -0.537078
v 12.9883 -35.7427 1494.64
vn 0.413063 0.821242 -0.393625
v 12.3916 -33.2693 1498.24
vn 0.459735 0.607632 0.647632
v 11.9916 -32.9427 1499.16
vn 0.501875 0.0461464 0.863708
v 11.9916 -32.9427 1499.16
vn 0.656732 0.403685 0.636979
v 12.4966 -33.1427 1498.84
vn 0.49811 0.826721 -0.261569
v 12.4966 -33.1427 1498.84
vn 0.0174906 0.861463 -0.50752
v 13.3916 -36.1427 1494.63
vn 0 0.53481 0.844972
v 14.1916 -34.3427 1498.16
vn 0.905491 -0.22502 0.359794
v 14.1916 -34.3427 1498.16
vn 0.905491 -0.22502 0.359794
v 14.1916 -34.2252 1498.24
vn 0.03202 -0.929552 -0.367298
v 14.1916 -34.2252 1498.24
vn 0 0.53481 0.844972
v 14.2916 -34.1427 1498.04
vn 0.465861 0.851381 0.241089
v 14.2916 -34.1427 1498.04
vn 0.905491 -0.22502 0.359794
v 14.2916 -34.1427 1498.04
vn 0.49566 -0.701057 -0.512679
v 14.2916 -34.1427 1498.04
vn 0.03202 -0.929552 -0.367298
v 14.2916 -34.1427 1498.04
vn 0.465861 0.851381 0.241089
v 14.3916 -34.1974 1498.04
vn 0.119546 0.740654 0.661166
v 14.3916 -34.1974 1498.04
vn 0.03202 -0.929552 -0.367298
v 14.3916 -34.2183 1498.24
vn 0.0176754 -0.513124 0.858133
v 14.3916 -34.2183 1498.24
vn 0.393933 0 0.919139
v 14.3916 -34.2183 1498.24
vn 0.232738 0.872808 -0.428998
v 14.3916 -34.1427 1498.13
vn 0.393933 0 0.919139
v 14.3916 -34.0919 1498.24
vn 0.606355 0.575849 0.548391
v 14.3916 -34.0919 1498.24
vn 0 0.53481 0.844972
v 14.5916 -34.3427 1498.16
vn 0.465861 0.851381 0.241089
v 14.5916 -34.3427 1498.16
vn 0.174071 0.601036 0.780035
v 14.5916 -34.3427 1498.16
vn 0.0666214 0.895459 -0.440131
v 14.5916 -34.1427 1498.16
vn 0.343372 0 0.939199
v 14.5916 -34.1427 1498.16
vn 0.696354 0.544622 0.467415
v 13.1916 -33.688 1498.44
vn -0.0621044 0.993711 -0.0931731
v 13.1916 -33.688 1498.44
vn -0.0473727 0.757994 0.650539
v 13.1916 -33.688 1498.44
vn 0.59839 0.226879 0.768411
v 13.1916 -33.7427 1498.5
vn -0.0426987 0.741072 0.670067
v 13.1916 -33.7427 1498.5
vn -0.0426987 0.741072 0.670067
v 13.7916 -33.6505 1498.44
vn 0.606355 0.575849 0.548391
v 13.7916 -33.6505 1498.44
vn 0.443329 0 0.896359
v 13.7916 -33.7427 1498.53
vn -0.0379954 0.723638 0.689133
v 13.7916 -33.7427 1498.53
vn 0.606355 0.575849 0.548391
v 13.7916 -33.7427 1498.53
vn 0.330724 -0.787223 0.520482
v 14.9916 -42.0912 1494.64
vn -0.0717261 -0.226127 0.971453
v 15.5916 -42.3427 1494.73
vn -0.031257 -0.364657 0.930617
v 16.1917 -42.3427 1494.79
vn 0.935792 -0.165239 -0.311432
v 16.1432 -41.5427 1489.24
vn -0.40082 -0.759687 0.512073
v 14.9916 -41.9427 1494.86
vn 0.174071 0.601036 0.780035
v 14.9916 -34.2943 1498.04
vn 0.445373 0.880664 0.161477
v 14.9916 -34.2943 1498.04
vn 0.687443 -0.290947 0.665411
v 15.5916 -34.9427 1497.95
vn -0.456814 0.888223 -0.0487899
v 15.5916 -34.9427 1497.95
vn -0.0541559 0.544188 0.837213
v 15.5916 -34.9427 1497.95
vn 0.687443 -0.290947 0.665411
v 15.5916 -34.7534 1498.04
vn -0.348697 -0.851745 -0.391076
v 15.5916 -34.7534 1498.04
vn 0.866472 -0.449781 -0.216618
v 15.7897 -34.7427 1497.84
vn -0.348697 -0.851745 -0.391076
v 15.7897 -34.7427 1497.84
vn 0.589638 0.760083 -0.273131
v 15.7897 -34.7427 1497.84
vn 0.020721 0.947079 -0.320332
v 15.7897 -34.7427 1497.84
vn -0.0541559 0.544188 0.837213
v 15.7897 -34.7427 1497.84
vn -0.348697 -0.851745 -0.391076
v 15.7916 -34.8353 1498.04
vn -0.456814 0.888223 -0.0487899
v 15.7916 -34.8353 1498.04
vn 0.011652 -0.900896 -0.433878
v 15.7916 -34.8353 1498.04
vn -0.045922 -0.105697 0.993337
v 15.7916 -34.8353 1498.04
vn 0.664664 0.72843 -0.166166
v 15.7916 -34.7427 1497.84
vn 0.011652 -0.900896 -0.433878
v 15.7916 -34.7427 1497.84
vn 0.00597261 0.974938 -0.222398
v 15.7916 -34.7427 1497.84
vn 0.222227 0.439423 0.870358
v 15.7916 -34.6989 1498.04
vn 0.570501 0.818863 -0.0631815
v 15.7916 -34.6989 1498.04
vn -0.00324243 0.97277 -0.231751
v 15.7916 -34.6989 1498.04
vn -0.456814 0.888223 -0.0487899
v 15.9916 -34.7427 1497.85
vn 0.011652 -0.900896 -0.433878
v 15.9916 -34.7427 1497.85
vn -0.0541559 0.544188 0.837213
v 15.9916 -34.7427 1497.85
vn 0.935792 -0.165239 -0.311432
v 16.6526 -40.5427 1490.24
vn 0.845817 0.0263655 -0.532822
v 17.637 -41.1427 1490.64
vn 0.51836 0.626679 -0.581874
v 17.2245 -39.9427 1491.64
vn -0.0428502 -0.0940856 0.994642
v 16.3916 -34.6912 1498.04
vn 0.515327 0.792358 0.326508
v 16.3916 -34.6912 1498.04
vn 0.515327 0.792358 0.326508
v 17.7916 -35.5193 1497.84
vn -0.0511434 0.688133 0.72378
v 17.7916 -35.5193 1497.84
vn -0.16385 -0.301636 0.939238
v 19.3916 -42.7427 1495.26
vn 0.515327 0.792358 0.326508
v 17.9916 -35.7427 1498.06
vn -0.0511434 0.688133 0.72378
v 17.9916 -35.7427 1498.06
vn 0.111614 0.093456 0.989347
v 18.1917 -35.6999 1498.04
vn 0.43248 0.900128 -0.0522502
v 18.1917 -35.6999 1498.04
vn 0.575731 0.482068 0.660412
v 18.1917 -35.6999 1498.04
vn 0.6086 0.408317 0.680356
v 18.3916 -35.9387 1498.04
vn 0.752853 0.128902 0.645443
v 18.5917 -36.1427 1497.95
vn 0.693162 0.355571 0.626974
v 18.5917 -35.9037 1497.84
vn 0.706301 0.0112878 0.707821
v 18.7916 -36.507 1497.64
vn 0.500573 0.79197 -0.349586
v 18.9916 -36.4755 1497.44
vn 0.373192 0.428947 0.822637
v 19.5628 -36.9427 1496.84
vn 0.780282 0.53242 0.32816
v 19.5628 -36.9427 1496.84
vn 0.79828 -0.526394 -0.292675
v 20.6713 -43.1427 1492.24
vn 0.595481 0.569453 -0.56668
v 20.3463 -39.1427 1495.04
vn 0.137788 0.245707 0.959501
v 20.5917 -38.9427 1496.12
vn 0.708975 -0.705219 -0.00448698
v 20.5917 -38.9427 1496.12
vn 0.875601 0.465147 0.130238
v 20.9916 -39.0662 1495.84
vn -0.595221 0.773803 0.21666
v 20.9916 -39.0662 1495.84
vn 0.137788 0.245707 0.959501
v 20.9916 -39.1427 1496.11
vn 0.875601 0.465147 0.130238
v 20.9916 -39.1427 1496.11
vn -0.178459 0.548735 0.816726
v 20.9916 -39.1427 1496.11
vn -0.595221 0.773803 0.21666
v 20.9916 -39.1427 1496.11
vn -0.0793046 0.99685 0
v 20.9916 -38.9586 1496.24
vn -0.177397 -0.557532 0.81098
v 20.9916 -38.9586 1496.24
vn 0.954145 0.158862 -0.253713
v 20.7901 -38.7427 1496.04
vn 0.137788 0.245707 0.959501
v 20.7901 -38.7427 1496.04
vn 0.708975 -0.705219 -0.00448698
v 20.7901 -38.7427 1496.04
vn 0.875601 0.465147 0.130238
v 20.7901 -38.7427 1496.04
vn 0.0531982 -0.588284 0.806903
v 20.7916 -38.7427 1496.28
vn 0.994643 0.103179 -0.00629492
v 20.7916 -38.7427 1496.28
vn 0.750944 0.387312 0.534857
v 19.7916 -37.3427 1496.94
vn 0.373192 0.428947 0.822637
v 19.7916 -37.3427 1496.94
vn -0.0326765 -0.520167 0.853439
v 20.7122 -37.9427 1496.84
vn 0.373192 0.428947 0.822637
v 20.7122 -37.9427 1496.84
vn -0.0837842 -0.372461 0.924258
v 21.8028 -42.3427 1495.64
vn 0.449191 -0.308688 0.838415
v 21.8028 -42.3427 1495.64
vn 0.69549 0.248778 0.674095
v 22.1432 -40.9427 1495.64
vn 0.69549 0.248778 0.674095
v 21.9916 -40.9427 1495.79
vn 0.368958 -0.210444 0.905309
v 22.2151 -41.7427 1495.64
vn 0.716575 0.0643812 0.694532
v 22.2151 -41.7427 1495.64
vn -0.178459 0.548735 0.816726
v 21.1917 -38.9683 1496.04
vn -0.595221 0.773803 0.21666
v 21.1917 -38.9683 1496.04
vn 0.381155 0.515589 0.767391
v 21.1917 -38.9683 1496.04
vn -0.178459 0.548735 0.816726
v 21.1917 -39.1427 1496.15
vn 0.443901 -0.0649418 0.893719
v 21.1917 -39.1427 1496.15
vn 0.381155 0.515589 0.767391
v 21.1917 -39.1427 1496.15
vn 0.040605 -0.56605 0.82337
v 21.1917 -39.0223 1496.24
vn 0.313288 -0.841662 -0.439835
v 21.1917 -39.0223 1496.24
vn -0.0396836 0.999212 0
v 21.1917 -38.9427 1496.08
vn 0.313288 -0.841662 -0.439835
v 21.1917 -38.9427 1496.08
vn 0.040605 -0.56605 0.82337
v 21.1917 -38.9427 1496.29
vn 0.615584 -0.0900587 0.782908
v 21.3916 -39.3884 1496.04
vn 0.615584 -0.0900587 0.782908
v 21.4276 -39.1427 1496.04
vn 0.381155 0.515589 0.767391
v 21.4276 -39.1427 1496.04
vn 0.256668 -0.547539 0.796444
v 21.3916 -38.9427 1496.23
vn 0 1 0
v 21.3916 -38.9427 1496.23
vn 0.805729 0.431999 -0.405188
v 21.5917 -40.1427 1495.67
vn 0.650156 0.424501 0.630156
v 21.5917 -40.1427 1495.67
vn 0.761176 -0.111358 0.638913
v 21.5917 -40.1427 1495.67
f 20//20 8//8 7//7
f 447//447 1//1 439//439
f 20//20 7//7 26//26
f 433//433 448//448 28//28
f 3//3 26//26 6//6
f 2//2 3//3 6//6
f 2//2 22//22 3//3
f 4//4 452//452 434//434
f 453//453 26//26 3//3
f 438//438 5//5 437//437
f 26//26 7//7 6//6
f 5//5 10//10 437//437
f 437//437 10//10 435//435
f 438//438 440//440 5//5
f 440//440 11//11 5//5
f 439//439 1//1 31//31
f 33//33 435//435 32//32
f 435//435 10//10 32//32
f 10//10 15//15 32//32
f 10//10 5//5 9//9
f 9//9 16//16 10//10
f 441//441 12//12 444//444
f 16//16 443//443 10//10
f 12//12 5//5 11//11
f 440//440 13//13 11//11
f 441//441 5//5 12//12
f 13//13 14//14 11//11
f 12//12 11//11 14//14
f 12//12 14//14 444//444
f 31//31 442//442 439//439
f 37//37 443//443 16//16
f 14//14 13//13 17//17
f 14//14 17//17 444//444
f 13//13 43//43 17//17
f 43//43 444//444 17//17
f 20//20 26//26 18//18
f 19//19 449//449 445//445
f 18//18 26//26 55//55
f 28//28 448//448 21//21
f 448//448 446//446 21//21
f 450//450 19//19 27//27
f 19//19 63//63 27//27
f 29//29 454//454 436//436
f 436//436 69//69 29//29
f 29//29 25//25 454//454
f 455//455 24//24 23//23
f 456//456 26//26 453//453
f 456//456 55//55 26//26
f 458//458 433//433 28//28
f 436//436 435//435 69//69
f 33//33 69//69 435//435
f 442//442 31//31 30//30
f 30//30 31//31 35//35
f 36//36 33//33 32//32
f 15//15 36//36 32//32
f 40//40 30//30 35//35
f 442//442 30//30 34//34
f 34//34 30//30 461//461
f 31//31 39//39 35//35
f 35//35 39//39 40//40
f 460//460 458//458 28//28
f 15//15 459//459 36//36
f 463//463 442//442 34//34
f 38//38 34//34 461//461
f 38//38 463//463 34//34
f 44//44 38//38 461//461
f 38//38 44//44 45//45
f 463//463 38//38 45//45
f 39//39 41//41 40//40
f 40//40 41//41 44//44
f 39//39 44//44 41//41
f 460//460 28//28 76//76
f 44//44 39//39 78//78
f 460//460 76//76 469//469
f 37//37 16//16 42//42
f 120//120 459//459 462//462
f 43//43 46//46 444//444
f 16//16 46//46 42//42
f 44//44 78//78 45//45
f 76//76 79//79 469//469
f 47//47 42//42 46//46
f 462//462 123//123 120//120
f 45//45 46//46 43//43
f 46//46 50//50 47//47
f 46//46 45//45 48//48
f 78//78 80//80 45//45
f 45//45 80//80 49//49
f 49//49 48//48 45//45
f 49//49 80//80 48//48
f 47//47 50//50 83//83
f 50//50 46//46 48//48
f 48//48 51//51 50//50
f 80//80 51//51 48//48
f 52//52 50//50 51//51
f 50//50 52//52 86//86
f 53//53 86//86 52//52
f 51//51 53//53 52//52
f 51//51 54//54 53//53
f 54//54 92//92 53//53
f 89//89 53//53 91//91
f 94//94 91//91 53//53
f 53//53 92//92 94//94
f 445//445 55//55 19//19
f 55//55 56//56 19//19
f 56//56 55//55 60//60
f 19//19 56//56 61//61
f 56//56 60//60 100//100
f 456//456 57//57 55//55
f 465//465 23//23 24//24
f 24//24 454//454 25//25
f 25//25 64//64 24//24
f 58//58 465//465 24//24
f 102//102 58//58 24//24
f 102//102 24//24 65//65
f 65//65 24//24 64//64
f 57//57 60//60 55//55
f 59//59 465//465 58//58
f 59//59 58//58 102//102
f 465//465 59//59 466//466
f 103//103 466//466 59//59
f 102//102 103//103 59//59
f 100//100 99//99 56//56
f 101//101 63//63 19//19
f 451//451 457//457 62//62
f 457//457 467//467 62//62
f 107//107 67//67 467//467
f 21//21 62//62 68//68
f 62//62 467//467 67//67
f 25//25 29//29 69//69
f 65//65 64//64 109//109
f 25//25 66//66 64//64
f 70//70 25//25 69//69
f 25//25 70//70 66//66
f 109//109 64//64 66//66
f 68//68 71//71 21//21
f 67//67 68//68 62//62
f 72//72 69//69 33//33
f 69//69 115//115 70//70
f 115//115 69//69 113//113
f 66//66 70//70 115//115
f 28//28 21//21 77//77
f 117//117 72//72 33//33
f 69//69 72//72 73//73
f 73//73 72//72 118//118
f 119//119 21//21 71//71
f 119//119 77//77 21//21
f 117//117 33//33 74//74
f 120//120 36//36 459//459
f 33//33 36//36 74//74
f 74//74 36//36 120//120
f 117//117 74//74 122//122
f 28//28 75//75 76//76
f 77//77 75//75 28//28
f 76//76 75//75 121//121
f 76//76 121//121 79//79
f 77//77 121//121 75//75
f 77//77 119//119 121//121
f 79//79 121//121 127//127
f 462//462 464//464 123//123
f 127//127 81//81 79//79
f 123//123 471//471 159//159
f 123//123 464//464 471//471
f 470//470 469//469 82//82
f 469//469 79//79 82//82
f 82//82 79//79 81//81
f 127//127 84//84 81//81
f 84//84 82//82 81//81
f 84//84 85//85 82//82
f 51//51 80//80 472//472
f 130//130 85//85 84//84
f 85//85 470//470 82//82
f 83//83 50//50 86//86
f 159//159 471//471 87//87
f 472//472 54//54 51//51
f 86//86 53//53 89//89
f 87//87 471//471 86//86
f 86//86 89//89 87//87
f 87//87 89//89 159//159
f 54//54 472//472 88//88
f 85//85 130//130 473//473
f 473//473 130//130 90//90
f 90//90 130//130 188//188
f 88//88 90//90 54//54
f 162//162 89//89 93//93
f 54//54 90//90 474//474
f 89//89 91//91 93//93
f 90//90 96//96 474//474
f 475//475 476//476 94//94
f 91//91 94//94 95//95
f 93//93 91//91 95//95
f 94//94 476//476 95//95
f 93//93 95//95 97//97
f 95//95 476//476 478//478
f 90//90 98//98 96//96
f 93//93 97//97 132//132
f 479//479 477//477 482//482
f 133//133 98//98 90//90
f 489//489 480//480 483//483
f 487//487 481//481 490//490
f 61//61 56//56 99//99
f 61//61 101//101 19//19
f 61//61 140//140 101//101
f 61//61 99//99 140//140
f 141//141 99//99 100//100
f 140//140 99//99 141//141
f 138//138 141//141 100//100
f 105//105 63//63 101//101
f 101//101 140//140 105//105
f 109//109 102//102 65//65
f 102//102 104//104 103//103
f 63//63 105//105 106//106
f 105//105 140//140 106//106
f 67//67 107//107 146//146
f 146//146 112//112 67//67
f 484//484 108//108 107//107
f 484//484 107//107 468//468
f 484//484 142//142 108//108
f 142//142 107//107 108//108
f 66//66 115//115 109//109
f 109//109 115//115 102//102
f 110//110 68//68 67//67
f 71//71 68//68 110//110
f 111//111 110//110 67//67
f 111//111 67//67 485//485
f 110//110 111//111 485//485
f 71//71 110//110 116//116
f 176//176 110//110 485//485
f 116//116 110//110 176//176
f 113//113 69//69 73//73
f 114//114 113//113 73//73
f 118//118 114//114 73//73
f 150//150 113//113 114//114
f 150//150 114//114 118//118
f 115//115 113//113 150//150
f 117//117 118//118 72//72
f 118//118 117//117 153//153
f 74//74 124//124 122//122
f 120//120 124//124 74//74
f 122//122 153//153 117//117
f 121//121 119//119 116//116
f 124//124 120//120 123//123
f 116//116 129//129 121//121
f 124//124 123//123 159//159
f 124//124 125//125 122//122
f 122//122 125//125 153//153
f 125//125 124//124 153//153
f 129//129 126//126 121//121
f 121//121 126//126 127//127
f 129//129 127//127 126//126
f 129//129 128//128 127//127
f 84//84 127//127 128//128
f 154//154 128//128 129//129
f 130//130 84//84 128//128
f 189//189 159//159 89//89
f 188//188 131//131 90//90
f 134//134 93//93 132//132
f 134//134 136//136 93//93
f 90//90 131//131 135//135
f 164//164 93//93 136//136
f 163//163 494//494 486//486
f 90//90 135//135 133//133
f 136//136 134//134 137//137
f 134//134 132//132 137//137
f 497//497 488//488 491//491
f 133//133 135//135 498//498
f 486//486 494//494 492//492
f 493//493 495//495 499//499
f 503//503 170//170 165//165
f 60//60 138//138 100//100
f 103//103 139//139 466//466
f 104//104 171//171 103//103
f 60//60 500//500 138//138
f 103//103 171//171 139//139
f 140//140 141//141 145//145
f 227//227 145//145 141//141
f 141//141 138//138 227//227
f 106//106 140//140 143//143
f 143//143 501//501 106//106
f 142//142 144//144 107//107
f 501//501 143//143 195//195
f 195//195 144//144 142//142
f 146//146 107//107 144//144
f 195//195 146//146 144//144
f 140//140 193//193 143//143
f 145//145 193//193 140//140
f 147//147 102//102 115//115
f 102//102 149//149 104//104
f 171//171 104//104 149//149
f 172//172 149//149 102//102
f 175//175 112//112 146//146
f 148//148 102//102 147//147
f 147//147 115//115 148//148
f 526//526 102//102 148//148
f 148//148 115//115 150//150
f 151//151 148//148 150//150
f 151//151 150//150 178//178
f 177//177 116//116 176//176
f 116//116 119//119 71//71
f 153//153 183//183 118//118
f 183//183 150//150 118//118
f 129//129 116//116 152//152
f 152//152 184//184 129//129
f 159//159 153//153 124//124
f 159//159 183//183 153//153
f 154//154 129//129 184//184
f 184//184 156//156 154//154
f 160//160 128//128 154//154
f 156//156 155//155 154//154
f 154//154 155//155 160//160
f 184//184 186//186 158//158
f 158//158 156//156 184//184
f 158//158 155//155 156//156
f 157//157 155//155 158//158
f 161//161 157//157 158//158
f 186//186 161//161 158//158
f 160//160 130//130 128//128
f 160//160 161//161 130//130
f 161//161 160//160 155//155
f 157//157 161//161 155//155
f 161//161 188//188 130//130
f 89//89 162//162 189//189
f 166//166 131//131 188//188
f 506//506 496//496 504//504
f 524//524 505//505 511//511
f 512//512 163//163 486//486
f 513//513 507//507 510//510
f 503//503 165//165 508//508
f 190//190 169//169 188//188
f 93//93 164//164 162//162
f 188//188 169//169 166//166
f 162//162 164//164 167//167
f 515//515 509//509 514//514
f 516//516 168//168 502//502
f 521//521 515//515 514//514
f 522//522 518//518 517//517
f 528//528 519//519 523//523
f 162//162 520//520 529//529
f 513//513 510//510 525//525
f 500//500 282//282 138//138
f 282//282 227//227 138//138
f 195//195 175//175 146//146
f 195//195 143//143 193//193
f 172//172 173//173 149//149
f 171//171 149//149 174//174
f 173//173 174//174 149//149
f 172//172 199//199 173//173
f 148//148 199//199 526//526
f 196//196 171//171 174//174
f 199//199 174//174 173//173
f 174//174 199//199 197//197
f 174//174 197//197 196//196
f 195//195 258//258 175//175
f 151//151 179//179 148//148
f 148//148 198//198 199//199
f 176//176 112//112 175//175
f 258//258 177//177 176//176
f 201//201 198//198 148//148
f 210//210 151//151 178//178
f 210//210 204//204 151//151
f 204//204 179//179 151//151
f 179//179 180//180 148//148
f 180//180 201//201 148//148
f 179//179 201//201 180//180
f 116//116 182//182 152//152
f 207//207 182//182 116//116
f 116//116 177//177 207//207
f 177//177 208//208 207//207
f 207//207 209//209 182//182
f 150//150 181//181 178//178
f 183//183 181//181 150//150
f 181//181 210//210 178//178
f 152//152 182//182 211//211
f 211//211 184//184 152//152
f 212//212 211//211 182//182
f 211//211 185//185 184//184
f 184//184 185//185 187//187
f 185//185 211//211 187//187
f 184//184 187//187 186//186
f 211//211 214//214 187//187
f 187//187 214//214 216//216
f 186//186 187//187 216//216
f 186//186 216//216 161//161
f 242//242 159//159 189//189
f 246//246 242//242 189//189
f 191//191 189//189 529//529
f 189//189 162//162 529//529
f 192//192 532//532 530//530
f 531//531 527//527 534//534
f 188//188 226//226 535//535
f 189//189 191//191 224//224
f 535//535 226//226 541//541
f 536//536 542//542 533//533
f 171//171 194//194 139//139
f 194//194 282//282 500//500
f 193//193 145//145 227//227
f 171//171 228//228 194//194
f 200//200 197//197 199//199
f 197//197 260//260 196//196
f 258//258 176//176 175//175
f 200//200 199//199 201//201
f 198//198 201//201 199//199
f 201//201 197//197 200//200
f 260//260 197//197 201//201
f 229//229 177//177 258//258
f 229//229 208//208 177//177
f 258//258 230//230 229//229
f 202//202 179//179 204//204
f 203//203 179//179 537//537
f 201//201 179//179 203//203
f 232//232 204//204 210//210
f 537//537 205//205 203//203
f 204//204 538//538 202//202
f 538//538 204//204 232//232
f 206//206 205//205 548//548
f 203//203 205//205 201//201
f 201//201 205//205 206//206
f 207//207 208//208 235//235
f 209//209 207//207 235//235
f 208//208 229//229 235//235
f 181//181 183//183 210//210
f 268//268 210//210 183//183
f 210//210 268//268 232//232
f 233//233 206//206 548//548
f 238//238 182//182 209//209
f 211//211 212//212 217//217
f 215//215 211//211 217//217
f 213//213 221//221 212//212
f 241//241 221//221 213//213
f 212//212 182//182 237//237
f 241//241 213//213 237//237
f 213//213 212//212 237//237
f 539//539 214//214 211//211
f 216//216 214//214 539//539
f 215//215 217//217 218//218
f 218//218 216//216 215//215
f 219//219 216//216 218//218
f 219//219 161//161 216//216
f 220//220 217//217 212//212
f 217//217 220//220 218//218
f 218//218 220//220 221//221
f 221//221 219//219 218//218
f 212//212 221//221 220//220
f 219//219 221//221 222//222
f 241//241 222//222 221//221
f 222//222 161//161 219//219
f 242//242 268//268 183//183
f 242//242 183//183 159//159
f 225//225 223//223 246//246
f 245//245 226//226 161//161
f 546//546 549//549 255//255
f 188//188 161//161 226//226
f 225//225 246//246 189//189
f 225//225 189//189 224//224
f 255//255 540//540 546//546
f 546//546 540//540 544//544
f 543//543 547//547 545//545
f 194//194 228//228 257//257
f 194//194 257//257 282//282
f 286//286 193//193 227//227
f 196//196 228//228 171//171
f 196//196 257//257 228//228
f 260//260 257//257 196//196
f 229//229 230//230 231//231
f 229//229 234//234 235//235
f 231//231 234//234 229//229
f 231//231 261//261 234//234
f 261//261 231//231 230//230
f 293//293 260//260 201//201
f 548//548 268//268 233//233
f 233//233 201//201 206//206
f 233//233 293//293 201//201
f 235//235 236//236 263//263
f 235//235 240//240 209//209
f 235//235 234//234 236//236
f 209//209 239//239 238//238
f 237//237 182//182 238//238
f 237//237 239//239 264//264
f 237//237 264//264 241//241
f 239//239 237//237 238//238
f 209//209 240//240 239//239
f 239//239 240//240 264//264
f 241//241 264//264 222//222
f 267//267 222//222 264//264
f 269//269 268//268 242//242
f 161//161 222//222 275//275
f 272//272 271//271 242//242
f 242//242 243//243 272//272
f 243//243 242//242 246//246
f 243//243 246//246 279//279
f 243//243 276//276 272//272
f 244//244 161//161 315//315
f 276//276 243//243 279//279
f 254//254 246//246 223//223
f 567//567 254//254 223//223
f 161//161 248//248 245//245
f 253//253 248//248 161//161
f 246//246 254//254 247//247
f 256//256 249//249 550//550
f 256//256 550//550 565//565
f 555//555 552//552 551//551
f 551//551 552//552 566//566
f 255//255 549//549 557//557
f 248//248 253//253 251//251
f 250//250 246//246 247//247
f 556//556 559//559 553//553
f 244//244 253//253 161//161
f 250//250 554//554 560//560
f 250//250 279//279 246//246
f 252//252 279//279 250//250
f 252//252 250//250 560//560
f 562//562 561//561 563//563
f 563//563 574//574 562//562
f 569//569 254//254 567//567
f 570//570 568//568 558//558
f 286//286 258//258 193//193
f 227//227 284//284 285//285
f 257//257 283//283 282//282
f 285//285 286//286 227//227
f 193//193 258//258 195//195
f 258//258 259//259 230//230
f 259//259 289//289 230//230
f 325//325 230//230 289//289
f 234//234 261//261 262//262
f 261//261 230//230 291//291
f 291//291 262//262 261//261
f 230//230 329//329 290//290
f 234//234 262//262 236//236
f 262//262 291//291 236//236
f 263//263 236//236 291//291
f 291//291 230//230 290//290
f 240//240 235//235 263//263
f 263//263 265//265 240//240
f 264//264 240//240 265//265
f 294//294 265//265 263//263
f 294//294 264//264 265//265
f 293//293 233//233 266//266
f 233//233 268//268 266//266
f 266//266 268//268 341//341
f 298//298 267//267 264//264
f 271//271 269//269 242//242
f 270//270 268//268 269//269
f 268//268 270//270 341//341
f 275//275 222//222 267//267
f 275//275 315//315 161//161
f 270//270 269//269 271//271
f 270//270 271//271 273//273
f 273//273 299//299 270//270
f 273//273 271//271 274//274
f 273//273 274//274 299//299
f 299//299 274//274 301//301
f 275//275 305//305 315//315
f 271//271 272//272 572//572
f 572//572 272//272 278//278
f 317//317 315//315 305//305
f 277//277 571//571 276//276
f 276//276 280//280 277//277
f 278//278 272//272 573//573
f 314//314 278//278 573//573
f 315//315 253//253 244//244
f 279//279 280//280 276//276
f 564//564 604//604 575//575
f 280//280 281//281 277//277
f 281//281 280//280 279//279
f 604//604 576//576 575//575
f 314//314 573//573 577//577
f 601//601 576//576 604//604
f 282//282 284//284 227//227
f 318//318 284//284 282//282
f 282//282 283//283 318//318
f 284//284 372//372 285//285
f 318//318 320//320 284//284
f 284//284 320//320 372//372
f 318//318 283//283 319//319
f 286//286 287//287 258//258
f 319//319 283//283 257//257
f 260//260 319//319 257//257
f 288//288 259//259 258//258
f 258//258 287//287 288//288
f 288//288 287//287 321//321
f 289//289 259//259 288//288
f 286//286 321//321 287//287
f 288//288 321//321 289//289
f 325//325 326//326 230//230
f 230//230 326//326 329//329
f 293//293 327//327 260//260
f 332//332 290//290 329//329
f 611//611 292//292 290//290
f 333//333 332//332 329//329
f 295//295 294//294 291//291
f 291//291 290//290 292//292
f 292//292 295//295 291//291
f 295//295 292//292 296//296
f 611//611 331//331 292//292
f 292//292 331//331 296//296
f 293//293 339//339 327//327
f 294//294 263//263 291//291
f 295//295 264//264 294//294
f 295//295 298//298 264//264
f 296//296 298//298 295//295
f 338//338 298//298 296//296
f 363//363 298//298 338//338
f 293//293 297//297 339//339
f 297//297 293//293 266//266
f 266//266 341//341 297//297
f 297//297 341//341 340//340
f 297//297 340//340 339//339
f 275//275 267//267 298//298
f 578//578 341//341 270//270
f 368//368 305//305 275//275
f 301//301 274//274 300//300
f 578//578 301//301 310//310
f 310//310 341//341 578//578
f 278//278 300//300 572//572
f 313//313 278//278 316//316
f 302//302 317//317 305//305
f 278//278 313//313 300//300
f 301//301 300//300 304//304
f 304//304 300//300 313//313
f 301//301 304//304 306//306
f 302//302 303//303 317//317
f 310//310 301//301 306//306
f 302//302 305//305 311//311
f 596//596 583//583 579//579
f 597//597 588//588 584//584
f 580//580 585//585 581//581
f 308//308 307//307 586//586
f 582//582 587//587 590//590
f 303//303 591//591 317//317
f 593//593 304//304 309//309
f 312//312 307//307 308//308
f 599//599 593//593 309//309
f 310//310 343//343 341//341
f 592//592 600//600 594//594
f 592//592 594//594 608//608
f 278//278 602//602 316//316
f 309//309 304//304 313//313
f 309//309 313//313 316//316
f 606//606 603//603 605//605
f 609//609 606//606 605//605
f 595//595 607//607 610//610
f 285//285 372//372 286//286
f 373//373 320//320 318//318
f 319//319 373//373 318//318
f 319//319 351//351 373//373
f 323//323 321//321 286//286
f 323//323 289//289 321//321
f 289//289 323//323 322//322
f 286//286 324//324 323//323
f 324//324 374//374 323//323
f 286//286 372//372 324//324
f 372//372 374//374 324//324
f 327//327 328//328 260//260
f 260//260 328//328 319//319
f 319//319 354//354 351//351
f 325//325 330//330 326//326
f 289//289 379//379 325//325
f 322//322 379//379 289//289
f 330//330 329//329 326//326
f 330//330 325//325 358//358
f 319//319 352//352 354//354
f 319//319 328//328 352//352
f 352//352 328//328 353//353
f 330//330 356//356 329//329
f 330//330 358//358 356//356
f 331//331 611//611 337//337
f 296//296 331//331 337//337
f 615//615 332//332 333//333
f 335//335 338//338 612//612
f 333//333 329//329 334//334
f 613//613 335//335 612//612
f 329//329 356//356 334//334
f 356//356 357//357 334//334
f 613//613 357//357 335//335
f 328//328 327//327 336//336
f 337//337 338//338 296//296
f 612//612 338//338 337//337
f 339//339 359//359 327//327
f 340//340 359//359 339//339
f 366//366 275//275 298//298
f 340//340 341//341 370//370
f 342//342 310//310 306//306
f 616//616 589//589 598//598
f 342//342 343//343 310//310
f 344//344 305//305 368//368
f 305//305 344//344 345//345
f 311//311 305//305 345//345
f 311//311 345//345 349//349
f 635//635 616//616 598//598
f 618//618 346//346 621//621
f 348//348 347//347 623//623
f 622//622 624//624 628//628
f 343//343 625//625 341//341
f 625//625 343//343 636//636
f 625//625 636//636 632//632
f 636//636 343//343 617//617
f 341//341 626//626 350//350
f 638//638 619//619 629//629
f 639//639 630//630 633//633
f 620//620 640//640 627//627
f 350//350 634//634 637//637
f 631//631 349//349 345//345
f 341//341 350//350 370//370
f 350//350 637//637 370//370
f 644//644 349//349 631//631
f 368//368 631//631 344//344
f 320//320 377//377 372//372
f 375//375 374//374 372//372
f 354//354 352//352 353//353
f 353//353 355//355 354//354
f 353//353 360//360 355//355
f 328//328 360//360 353//353
f 354//354 355//355 360//360
f 360//360 351//351 354//354
f 322//322 380//380 379//379
f 358//358 357//357 356//356
f 379//379 358//358 325//325
f 358//358 335//335 357//357
f 362//362 335//335 358//358
f 358//358 379//379 362//362
f 327//327 359//359 336//336
f 614//614 641//641 364//364
f 359//359 340//340 643//643
f 328//328 336//336 643//643
f 328//328 643//643 360//360
f 360//360 643//643 361//361
f 362//362 338//338 335//335
f 362//362 363//363 338//338
f 384//384 643//643 340//340
f 361//361 643//643 365//365
f 643//643 384//384 365//365
f 384//384 361//361 365//365
f 383//383 298//298 363//363
f 383//383 366//366 298//298
f 275//275 366//366 369//369
f 370//370 367//367 340//340
f 384//384 340//340 367//367
f 644//644 368//368 385//385
f 368//368 275//275 369//369
f 371//371 367//367 370//370
f 644//644 631//631 368//368
f 646//646 645//645 649//649
f 377//377 376//376 372//372
f 373//373 377//377 320//320
f 375//375 372//372 376//376
f 377//377 373//373 394//394
f 382//382 322//322 323//323
f 382//382 323//323 374//374
f 360//360 378//378 351//351
f 351//351 378//378 394//394
f 378//378 397//397 394//394
f 397//397 378//378 360//360
f 381//381 362//362 379//379
f 380//380 322//322 382//382
f 380//380 382//382 379//379
f 379//379 648//648 381//381
f 381//381 363//363 362//362
f 384//384 405//405 361//361
f 405//405 399//399 642//642
f 432//432 383//383 363//363
f 410//410 366//366 383//383
f 366//366 410//410 369//369
f 385//385 368//368 387//387
f 386//386 647//647 650//650
f 387//387 651//651 385//385
f 384//384 367//367 371//371
f 389//389 384//384 371//371
f 652//652 389//389 371//371
f 656//656 653//653 654//654
f 369//369 410//410 390//390
f 388//388 369//369 390//390
f 368//368 369//369 388//388
f 388//388 387//387 368//368
f 654//654 655//655 656//656
f 657//657 391//391 655//655
f 658//658 384//384 389//389
f 391//391 656//656 655//655
f 679//679 391//391 657//657
f 392//392 384//384 658//658
f 374//374 375//375 396//396
f 376//376 393//393 375//375
f 351//351 394//394 373//373
f 377//377 394//394 395//395
f 377//377 661//661 376//376
f 376//376 661//661 393//393
f 394//394 397//397 398//398
f 393//393 396//396 375//375
f 413//413 396//396 393//393
f 395//395 394//394 398//398
f 393//393 661//661 412//412
f 393//393 412//412 413//413
f 374//374 396//396 382//382
f 648//648 416//416 381//381
f 398//398 397//397 417//417
f 397//397 400//400 417//417
f 417//417 400//400 423//423
f 363//363 381//381 416//416
f 662//662 360//360 361//361
f 397//397 360//360 662//662
f 406//406 400//400 397//397
f 401//401 383//383 432//432
f 406//406 397//397 662//662
f 399//399 405//405 673//673
f 401//401 432//432 403//403
f 667//667 674//674 663//663
f 664//664 675//675 409//409
f 400//400 406//406 402//402
f 403//403 432//432 429//429
f 665//665 676//676 668//668
f 425//425 403//403 429//429
f 424//424 400//400 402//402
f 427//427 426//426 404//404
f 697//697 671//671 428//428
f 692//692 689//689 669//669
f 670//670 690//690 666//666
f 672//672 695//695 699//699
f 401//401 410//410 383//383
f 384//384 392//392 408//408
f 408//408 405//405 384//384
f 410//410 401//401 407//407
f 405//405 408//408 411//411
f 407//407 401//401 677//677
f 681//681 407//407 677//677
f 392//392 411//411 408//408
f 673//673 405//405 411//411
f 678//678 673//673 411//411
f 410//410 407//407 681//681
f 659//659 680//680 682//682
f 679//679 660//660 391//391
f 412//412 661//661 418//418
f 415//415 382//382 396//396
f 413//413 412//412 414//414
f 396//396 413//413 415//415
f 414//414 412//412 418//418
f 395//395 417//417 418//418
f 418//418 421//421 414//414
f 413//413 414//414 415//415
f 683//683 416//416 648//648
f 415//415 414//414 422//422
f 414//414 421//421 422//422
f 398//398 417//417 395//395
f 417//417 419//419 418//418
f 421//421 418//418 419//419
f 420//420 363//363 416//416
f 432//432 363//363 420//420
f 417//417 705//705 419//419
f 685//685 706//706 686//686
f 687//687 420//420 416//416
f 684//684 687//687 416//416
f 419//419 422//422 421//421
f 688//688 685//685 686//686
f 423//423 400//400 430//430
f 430//430 400//400 424//424
f 431//431 696//696 698//698
f 699//699 695//695 703//703
f 704//704 697//697 428//428
f 417//417 423//423 705//705
f 430//430 705//705 423//423
f 700//700 707//707 701//701
f 700//700 701//701 693//693
f 691//691 694//694 702//702
