# Wavafront OBJ file of BodyParts3D
# BodyParts3D, Copyright(C) 2010-2011 The Database Center for Life Science licensed under CC Attribution-Share Alike 2.1 Japan.
vn -0.698362 0.119396 -0.705716
v -81.146 -178.845 -0.176026
vn -0.130605 -0.262929 -0.955934
v -86.9794 -200.863 -2.04711
vn -0.0144136 -0.515497 -0.85677
v -86.765 -201.738 -1.62638
vn -0.725878 -0.0491078 -0.686068
v -87.9335 -200.929 -1.66793
vn -0.501746 -0.0022911 -0.865012
v -87.6155 -200.644 -1.91733
vn -0.801816 0.264083 -0.536052
v -87.8576 -200.583 -1.6671
vn -0.324849 -0.362026 -0.873734
v -87.5985 -201.033 -1.84287
vn -0.645921 -0.364201 -0.670928
v -88.3052 -202.386 -0.833484
vn -0.916583 0.165934 -0.363788
v -88.6595 -201.558 -0.366425
vn -0.931932 -0.206024 -0.298424
v -88.7951 -202.693 0.169366
vn -0.124379 -0.682603 -0.720127
v -87.7988 -202.637 -0.858474
vn -0.0692436 -0.0676623 -0.995303
v -86.3715 -199.936 -2.27375
vn -0.19517 0.247317 -0.949075
v -86.0132 -199.319 -2.26175
vn 0.101782 -0.00281582 -0.994803
v -85.6628 -199.445 -2.2813
vn 0.245961 -0.220094 -0.943961
v -85.8181 -200.532 -2.1134
vn -0.685449 0.326321 -0.650902
v -87.5315 -200.3 -1.91001
vn -0.825879 0.483351 -0.290339
v -87.8795 -200.241 -1.29927
vn -0.410528 0.215221 -0.886085
v -87.1495 -200.044 -2.10751
vn -0.66494 0.527581 -0.52869
v -87.3915 -199.983 -1.85728
vn -0.0508289 0.337375 -0.939997
v -84.6306 -197.612 -1.95226
vn -0.39605 0.582135 -0.710115
v -84.9727 -197.505 -1.78312
vn -0.0346661 0.609698 -0.791875
v -84.3825 -197.344 -1.81196
vn -0.970606 0.00468189 -0.240629
v -82.2304 -185.469 2.26993
vn -0.394066 -0.137755 -0.9087
v -79.9105 -183.742 -0.678226
vn -0.778336 0.0074936 -0.627803
v -81.3907 -184.166 0.48981
vn -0.316223 0.0439158 -0.947668
v -78.9565 -179.838 -1.83998
vn -0.0658468 -0.262889 -0.962577
v -78.4567 -181.543 -1.6496
vn -0.915881 0.0709132 -0.395136
v -82.2428 -180.804 1.08049
vn -0.0245536 0.303818 -0.952414
v -76.3332 -178.537 -1.98185
vn -0.786652 0.544293 -0.291416
v -81.8686 -176.618 2.39425
vn -0.931943 0.326409 -0.157921
v -82.7428 -177.445 5.9567
vn -0.989703 0.141351 -0.0225479
v -83.345 -178.454 6.90849
vn -0.437272 0.507082 -0.742739
v -79.243 -175.454 -0.189114
vn -0.423521 0.905267 0.0334823
v -79.3209 -175.271 0.601019
vn -0.406999 -0.709094 -0.575792
v -88.4153 -203.315 0.109891
vn -0.115879 -0.879583 -0.461417
v -88.4762 -203.9 1.03483
vn -0.697334 -0.687685 -0.202024
v -88.7141 -203.942 1.30456
vn -0.965338 -0.247606 0.0825406
v -88.8061 -203.587 1.61866
vn -0.292303 -0.924136 -0.246032
v -88.2073 -204.192 1.71801
vn -0.691283 -0.722436 -0.0146431
v -88.3945 -204.096 2.00314
vn -0.546655 -0.83512 -0.0611717
v -88.1612 -204.486 2.67547
vn -0.939031 -0.0671188 0.337218
v -88.3477 -204.009 3.76519
vn 0.0281199 -0.853313 -0.52064
v -87.7673 -203.471 0.401945
vn -0.815186 0.490523 0.307993
v -87.588 -199.396 3.60378
vn -0.850771 0.169351 0.497502
v -87.481 -201.022 4.38317
vn 0.337292 0.0840543 -0.93764
v -83.82 -197.913 -1.91974
vn 0.29889 0.539867 -0.786898
v -83.4045 -197.356 -1.5274
vn 0.284868 0.576997 -0.765457
v -83.1591 -196.769 -0.908839
vn 0.316957 0.165546 -0.933881
v -82.0166 -195.791 0.00403
vn -0.70861 0.62637 -0.324857
v -84.7541 -195.283 1.09334
vn -0.0400843 0.540879 -0.840145
v -83.5479 -195.585 -0.161065
vn -0.89952 0.392385 -0.192089
v -84.1578 -193.747 2.16558
vn 0.0368122 0.141823 -0.989207
v -81.2658 -193.132 0.579916
vn -0.600809 0.322953 -0.731252
v -83.1138 -192.88 1.0439
vn -0.945714 0.217266 -0.241702
v -83.2638 -191.434 2.01849
vn -0.650509 0.105906 -0.752078
v -82.6178 -191.199 1.14213
vn -0.200149 -0.00161352 -0.979764
v -81.706 -190.735 0.707336
vn -0.974984 -0.0284289 0.220449
v -82.9436 -181.195 9.98651
vn 0.0996266 -0.0628189 -0.99304
v -75.0828 -179.728 -2.14112
vn 0.1887 0.230026 -0.954715
v -74.6548 -179.147 -2.03783
vn 0.0968515 0.978398 0.182638
v -82.0347 -177.467 6.84066
vn -0.929531 0.358016 0.0882993
v -82.8541 -177.784 9.35574
vn -0.915263 0.0464194 0.400173
v -82.8018 -178.281 10.2782
vn 0.0896021 0.995816 0.0179192
v -81.5596 -177.64 10.2873
vn 0.202426 0.423771 -0.88286
v -73.6063 -176.323 -0.556203
vn 0.0653259 0.912994 -0.402708
v -74.0465 -175.871 0.201561
vn -0.00593785 0.857331 -0.514732
v -72.491 -175.954 0.046377
vn -0.724415 -0.650273 0.228841
v -88.1563 -204.286 3.96256
vn -0.179548 -0.982685 -0.0457426
v -87.5116 -204.675 3.62303
vn -0.868967 -0.188836 0.457425
v -87.8148 -204.304 4.65565
vn -0.328842 -0.936015 0.125454
v -87.4828 -204.687 4.08461
vn -0.413607 -0.789951 0.452665
v -86.6881 -204.572 5.52912
vn -0.860495 0.277507 0.427246
v -88.0689 -203.778 4.14147
vn -0.772516 -0.0627474 0.631888
v -87.5674 -204.073 5.12659
vn -0.676266 0.265003 0.687341
v -87.4152 -203.753 5.11945
vn -0.525908 -0.448603 0.722618
v -86.386 -204.245 6.13812
vn -0.589139 0.135174 0.796645
v -86.4152 -203.864 6.18275
vn 0.576394 0.0921992 -0.811954
v -81.5026 -200.932 0.005387
vn 0.260272 0.132615 -0.956385
v -80.6609 -201.932 0.171957
vn 0.5473 0.114147 -0.829116
v -81.3211 -199.487 0.597823
vn -0.870381 0.331346 0.364206
v -85.3449 -197.375 4.98761
vn -0.681899 0.187045 0.707126
v -84.6944 -198.116 6.12634
vn 0.236469 -0.0196269 -0.971441
v -79.6613 -194.494 0.780749
vn -0.890415 -0.0228734 0.454575
v -82.4334 -190.97 8.55414
vn -0.639698 0.660911 0.392407
v -81.2843 -177.922 12.1484
vn -0.537732 0.154261 0.828884
v -80.2916 -178.385 13.0224
vn -0.0844853 -0.734129 -0.673734
v -80.3565 -203.594 0.627258
vn -0.284105 -0.787067 0.547549
v -85.1538 -204.47 6.64404
vn -0.369754 -0.450889 0.812392
v -84.8724 -204.154 7.06506
vn -0.153115 0.320657 -0.934738
v -77.9594 -201.844 0.570894
vn -0.619382 0.0903501 0.779874
v -83.8747 -201.134 6.95033
vn -0.506062 0.157509 0.847993
v -83.3848 -201.364 7.39605
vn 0.0656319 0.224701 -0.972215
v -78.0894 -200.037 1.60912
vn -0.568861 -0.123546 0.813101
v -81.021 -193.472 9.52776
vn 0.167905 -0.136563 -0.976298
v -73.7181 -192.641 1.57332
vn -0.701258 -0.0803373 0.708367
v -80.6346 -183.496 12.9181
vn 0.321067 -0.0776545 -0.943867
v -68.0772 -181.744 -0.412124
vn 0.29602 -0.330175 -0.896302
v -67.9634 -182.951 -0.054106
vn -0.0945691 0.922186 0.375006
v -73.6317 -179.717 6.40954
vn 0.166637 0.980909 0.10025
v -75.6153 -180.106 8.04805
vn -0.432682 0.122473 0.893189
v -79.063 -178.545 13.7757
vn -0.25925 0.106743 0.959893
v -78.1334 -178.932 14.1802
vn 0.13893 0.987429 0.0753832
v -78.5763 -178.085 13.4347
vn -0.0358832 0.933952 0.355592
v -78.9108 -178.225 13.7686
vn -0.374855 -0.431657 -0.820461
v -76.9975 -204.806 0.436213
vn -0.432222 -0.710032 -0.555912
v -78.499 -205.164 1.57804
vn -0.209912 -0.958698 -0.191926
v -80.8279 -205.661 4.76229
vn -0.264235 -0.944341 0.195957
v -81.3789 -205.554 6.09269
vn -0.351205 -0.0555827 0.934647
v -83.2323 -203.346 7.85807
vn -0.273323 -0.84051 0.4678
v -82.7069 -204.932 6.90348
vn -0.334853 -0.61767 0.711588
v -82.9265 -204.506 7.41524
vn -0.364169 -0.79528 0.484677
v -80.764 -205.323 7.82461
vn -0.289385 -0.427988 0.856203
v -80.8763 -204.641 8.34903
vn -0.241052 -0.115802 -0.963579
v -73.9554 -203.892 -0.973516
vn 0.299303 0.0166611 -0.954013
v -72.7933 -203.56 -1.04611
vn -0.188902 -0.0448586 0.980971
v -81.0663 -203.833 8.45024
vn -0.0696075 -0.0363789 0.996911
v -79.7635 -202.065 8.48243
vn 0.00746823 0.624014 -0.781378
v -73.5335 -201.844 -0.54962
vn -0.0568379 0.267885 -0.961773
v -73.332 -202.618 -1.0003
vn 0.481586 0.393236 -0.783224
v -72.8746 -202.428 -0.847769
vn 0.0942109 0.605672 -0.790117
v -73.2476 -200.995 0.402857
vn -0.0837547 0.5049 -0.859105
v -75.7164 -200.813 0.74551
vn 0.0522681 0.164925 -0.98492
v -75.0262 -198.888 1.38672
vn 0.366903 -0.108847 -0.923869
v -70.894 -193.041 2.58224
vn -0.300125 -0.159363 0.940494
v -78.349 -183.365 14.3017
vn 0.554578 -0.167312 -0.815138
v -66.3178 -181.729 0.375723
vn 0.0232714 0.137009 0.990296
v -75.6632 -180.262 14.6137
vn 0.425316 0.175668 -0.887833
v -66.288 -180.615 0.378096
vn 0.347231 0.925449 -0.151577
v -75.8665 -179.229 12.9843
vn 0.486914 0.872097 0.0485931
v -76.5163 -178.577 14.155
vn -0.210315 0.137678 0.967891
v -76.7317 -178.558 14.4316
vn 0.148952 0.987913 -0.0429003
v -75.9122 -179.167 14.2559
vn 0.532655 0.353088 -0.769161
v -65.2981 -178.117 1.74837
vn 0.448522 0.79412 -0.410123
v -65.1466 -176.703 2.95039
vn 0.757932 0.302311 -0.578054
v -64.1784 -177.916 2.84007
vn -0.0234563 0.981306 0.191018
v -66.2176 -176.382 3.86336
vn -0.269558 -0.543202 -0.795154
v -73.4884 -206.726 -0.178238
vn -0.348796 -0.812669 -0.466808
v -74.1545 -207.748 1.24679
vn 0.262842 -0.575459 -0.774442
v -72.4936 -206.759 -0.244417
vn 0.098949 -0.88069 -0.463244
v -73.1737 -207.919 1.12022
vn 0.771098 -0.572187 -0.279302
v -71.7298 -206.758 0.584107
vn -0.370693 -0.855114 0.362446
v -77.2703 -207.174 7.18769
vn -0.0287591 -0.576809 0.816373
v -77.4639 -206.586 7.8282
vn 0.376273 -0.107884 0.920206
v -77.2879 -206.285 7.91012
vn 0.0276542 -0.198013 0.979809
v -79.6648 -204.732 8.541
vn -0.257884 -0.663935 0.701916
v -79.6008 -205.807 7.88588
vn -0.0378488 -0.274516 -0.960837
v -72.8821 -205.428 -0.814507
vn 0.768829 0.162909 -0.618354
v -72.432 -203.351 -0.754863
vn 0.736103 0.010027 -0.676795
v -72.3386 -204.138 -0.72509
vn 0.393121 -0.202773 -0.89685
v -72.5109 -205.574 -0.733413
vn 0.937821 0.0891787 -0.335468
v -71.9475 -203.994 0.054033
vn 0.807463 -0.166243 -0.566009
v -71.8944 -206.245 -0.103523
vn 0.461745 -0.190815 0.866246
v -75.0855 -205.035 6.26646
vn 0.274461 -0.242945 0.930402
v -77.7808 -203.105 7.91776
vn 0.42869 0.0689239 0.900819
v -77.6664 -204.634 7.80691
vn 0.530678 0.426699 -0.732331
v -72.4933 -200.869 0.723197
vn 0.942011 0.0999878 -0.32034
v -71.6165 -201.306 1.75435
vn 0.972072 -0.0817044 0.22
v -71.6911 -201.178 4.21009
vn 0.849418 -0.00597768 -0.527686
v -71.3415 -198.135 2.66866
vn 0.331098 0.185985 -0.925086
v -71.8322 -197.547 2.3743
vn 0.986222 -0.160742 0.0390999
v -70.9316 -196.946 4.09685
vn 0.941712 -0.334589 0.0350492
v -70.0698 -193.192 4.57357
vn 0.812763 -0.336328 0.475709
v -70.4314 -191.849 7.1621
vn 0.68893 -0.529726 0.494737
v -68.5991 -187.725 7.85731
vn 0.487058 -0.432625 0.75869
v -72.4279 -188.198 11.2469
vn -0.0144933 -0.439436 0.898157
v -76.1051 -187.395 12.7954
vn 0.82493 -0.551604 0.123381
v -67.4398 -187.521 5.56925
vn 0.413965 -0.637457 0.649832
v -72.3377 -185.816 13.1267
vn -0.158343 -0.415319 0.895789
v -75.9531 -184.607 14.1834
vn 0.226127 -0.657741 0.718501
v -73.7663 -185.744 13.8154
vn 0.15206 -0.379715 0.912521
v -72.6997 -184.373 14.8223
vn 0.726509 -0.415772 -0.5471
v -65.3626 -183.365 1.81292
vn 0.852507 -0.0650349 -0.518655
v -64.0939 -180.527 2.4408
vn -0.2358 0.965452 0.110908
v -68.0117 -179.233 10.4468
vn 0.0909415 0.958795 0.269152
v -71.6785 -179.818 13.9738
vn 0.253187 0.29558 0.921156
v -71.2917 -180.342 14.3803
vn 0.82461 0.505684 -0.253579
v -63.7961 -177.417 3.83034
vn 0.969493 0.0667329 -0.23586
v -63.4883 -178.313 4.12445
vn 0.545602 0.829958 0.11614
v -64.2796 -176.81 5.36035
vn 0.966423 0.234636 0.104752
v -63.4793 -178.02 4.82766
vn 0.759487 0.541678 0.360228
v -64.2292 -177.644 7.28382
vn 0.504033 0.772788 0.385682
v -64.6967 -177.364 7.33286
vn -0.178924 0.944867 0.274248
v -65.6043 -178.077 8.96917
vn 0.555336 -0.831453 -0.0169547
v -72.7499 -208.028 1.8886
vn 0.856556 -0.453497 0.246277
v -72.0827 -207.189 2.24693
vn -0.208188 -0.961073 -0.181652
v -74.7822 -208.689 4.44077
vn 0.60396 -0.573775 0.553186
v -73.6328 -207.973 4.29769
vn -0.43566 -0.869562 -0.232515
v -75.2426 -208.522 4.51319
vn -0.23389 -0.909995 0.342351
v -76.5385 -207.813 6.51365
vn 0.398293 -0.516619 0.757936
v -75.9292 -207.421 6.90055
vn -0.0861019 -0.769106 0.633295
v -76.8302 -207.396 7.10911
vn 0.62683 0.0310062 0.778539
v -76.3775 -206.552 7.30862
vn 0.996881 -0.0756361 -0.0225332
v -71.3792 -205.485 1.46077
vn 0.999378 0.0193736 0.0294725
v -71.5392 -203.887 2.56098
vn 0.864644 -0.191621 0.464405
v -72.1171 -201.133 5.20405
vn 0.871986 -0.16869 0.459547
v -72.0047 -203.375 4.76669
vn 0.466557 -0.324219 0.822925
v -74.6213 -203.057 7.17087
vn 0.896326 -0.436293 -0.0790433
v -64.0955 -183.077 5.13283
vn 0.809924 -0.440862 0.386863
v -64.9381 -183.759 7.29523
vn 0.578688 -0.394859 0.713587
v -70.1448 -184.049 13.5856
vn 0.47362 -0.140582 0.869437
v -70.5949 -183.562 14.0615
vn 0.979004 -0.185188 0.0851803
v -63.8084 -182.118 5.67524
vn 0.0576288 0.880716 0.470125
v -67.8642 -179.352 11.8896
vn 0.485972 0.26174 0.83386
v -67.4606 -180.016 12.2929
vn 0.356565 0.571574 0.73903
v -69.1362 -179.788 13.2132
vn 0.522479 0.0316442 0.852065
v -68.749 -180.389 13.156
vn 0.6702 0.598471 0.438935
v -65.2057 -178.167 9.2774
vn 0.91284 0.100201 0.395832
v -64.3623 -179.26 8.75784
vn 0.689868 0.55557 0.464139
v -65.3899 -178.69 10.3899
vn -0.152381 0.931096 0.331422
v -66.4703 -178.583 10.6032
vn 0.204674 0.880521 0.427542
v -65.6726 -178.437 10.2913
vn 0.197145 0.75439 0.626123
v -65.7483 -179.062 11.2117
vn -0.943826 0.237148 0.230116
v -88.6595 -201.558 -0.366425
vn -0.218469 0.968173 0.122116
v -82.7428 -177.445 5.9567
vn 0.100758 0.933901 -0.34304
v -79.243 -175.454 -0.189114
vn 0.20685 0.86 0.466491
v -79.3209 -175.271 0.601019
vn 0.0942902 0.971681 -0.216668
v -79.3209 -175.271 0.601019
vn -0.970684 0.0489069 0.235329
v -87.588 -199.396 3.60378
vn 0.754695 0.142792 -0.640349
v -83.4045 -197.356 -1.5274
vn 0.728599 0.118763 -0.674565
v -83.1591 -196.769 -0.908839
vn -0.205722 0.969091 0.136164
v -82.8541 -177.784 9.35574
vn -0.639698 0.660911 0.392407
v -82.8541 -177.784 9.35574
vn -0.639698 0.660911 0.392407
v -82.8018 -178.281 10.2782
vn 0.0498626 0.870276 -0.490035
v -73.6063 -176.323 -0.556203
vn 0.0550348 0.998251 0.0216072
v -74.0465 -175.871 0.201561
vn -0.0286557 0.848919 0.527746
v -74.0465 -175.871 0.201561
vn 0.108301 0.991881 -0.0666548
v -72.491 -175.954 0.046377
vn 0.336042 0.446087 -0.829507
v -72.491 -175.954 0.046377
vn -0.52977 -0.755431 0.385575
v -87.8148 -204.304 4.65565
vn -0.113271 0.970094 0.214679
v -81.2843 -177.922 12.1484
vn -0.651943 0.162549 0.74064
v -81.2843 -177.922 12.1484
vn -0.157533 -0.287601 -0.944706
v -80.3565 -203.594 0.627258
vn -0.384081 0.291158 0.87619
v -78.9108 -178.225 13.7686
vn -0.00770624 -0.101272 -0.994829
v -76.9975 -204.806 0.436213
vn 0.875793 -0.2918 -0.384499
v -70.894 -193.041 2.58224
vn 0.111303 0.961828 0.249996
v -76.7317 -178.558 14.4316
vn 0.448297 0.368083 0.814582
v -76.7317 -178.558 14.4316
vn 0.597941 0.683339 0.418944
v -76.7317 -178.558 14.4316
vn 0.225694 0.468652 0.854065
v -75.9122 -179.167 14.2559
vn 0.665304 0.716497 0.209767
v -75.9122 -179.167 14.2559
vn -0.0711759 0.944127 0.321805
v -64.6967 -177.364 7.33286
vn 0.418268 -0.790875 0.446732
v -74.7822 -208.689 4.44077
vn 0.734785 -0.0174672 0.678075
v -73.6328 -207.973 4.29769
vn -0.029064 0.948722 0.314773
v -65.2057 -178.167 9.2774
vn 0.778898 -0.142556 0.610734
v -65.7483 -179.062 11.2117
f 1//1 28//28 30//30
f 1//1 33//33 26//26
f 33//33 1//1 30//30
f 30//30 34//34 33//33
f 3//3 2//2 15//15
f 5//5 7//7 4//4
f 5//5 4//4 6//6
f 2//2 5//5 18//18
f 18//18 5//5 16//16
f 5//5 6//6 16//16
f 6//6 17//17 16//16
f 4//4 9//9 6//6
f 9//9 17//17 6//6
f 7//7 5//5 2//2
f 3//3 7//7 2//2
f 7//7 8//8 4//4
f 4//4 8//8 9//9
f 9//9 8//8 10//10
f 8//8 35//35 10//10
f 8//8 7//7 11//11
f 11//11 7//7 3//3
f 35//35 8//8 11//11
f 12//12 2//2 18//18
f 13//13 12//12 18//18
f 21//21 13//13 18//18
f 15//15 2//2 12//12
f 14//14 15//15 12//12
f 13//13 14//14 12//12
f 20//20 14//14 13//13
f 15//15 14//14 46//46
f 14//14 20//20 46//46
f 21//21 20//20 13//13
f 16//16 19//19 18//18
f 16//16 17//17 19//19
f 21//21 18//18 19//19
f 19//19 50//50 21//21
f 19//19 17//17 50//50
f 17//17 9//9 44//44
f 44//44 50//50 17//17
f 22//22 20//20 21//21
f 22//22 21//21 50//50
f 51//51 22//22 50//50
f 47//47 22//22 51//51
f 24//24 25//25 1//1
f 25//25 28//28 1//1
f 28//28 25//25 23//23
f 24//24 56//56 25//25
f 23//23 32//32 28//28
f 27//27 26//26 59//59
f 26//26 24//24 1//1
f 24//24 26//26 27//27
f 26//26 29//29 59//59
f 60//60 59//59 29//29
f 33//33 29//29 26//26
f 30//30 28//28 31//31
f 214//214 34//34 30//30
f 28//28 32//32 31//31
f 61//61 34//34 214//214
f 65//65 29//29 33//33
f 35//35 11//11 43//43
f 43//43 36//36 35//35
f 43//43 107//107 36//36
f 36//36 107//107 39//39
f 36//36 37//37 35//35
f 35//35 37//37 10//10
f 10//10 37//37 38//38
f 38//38 213//213 10//10
f 36//36 39//39 37//37
f 38//38 37//37 40//40
f 40//40 37//37 39//39
f 41//41 40//40 39//39
f 38//38 40//40 41//41
f 107//107 41//41 39//39
f 38//38 41//41 42//42
f 213//213 38//38 42//42
f 73//73 213//213 42//42
f 42//42 41//41 68//68
f 87//87 3//3 15//15
f 87//87 11//11 3//3
f 43//43 11//11 87//87
f 107//107 43//43 87//87
f 213//213 45//45 218//218
f 73//73 45//45 213//213
f 15//15 46//46 78//78
f 50//50 44//44 81//81
f 81//81 44//44 82//82
f 44//44 45//45 82//82
f 20//20 22//22 46//46
f 46//46 22//22 47//47
f 78//78 46//46 219//219
f 51//51 48//48 47//47
f 49//49 48//48 51//51
f 80//80 219//219 220//220
f 49//49 80//80 220//220
f 219//219 80//80 78//78
f 53//53 49//49 51//51
f 83//83 80//80 49//49
f 50//50 81//81 52//52
f 52//52 54//54 50//50
f 52//52 55//55 54//54
f 55//55 52//52 81//81
f 54//54 55//55 56//56
f 54//54 56//56 57//57
f 50//50 54//54 51//51
f 57//57 53//53 54//54
f 53//53 57//57 95//95
f 51//51 54//54 53//53
f 95//95 57//57 24//24
f 56//56 55//55 25//25
f 57//57 56//56 24//24
f 55//55 23//23 25//25
f 55//55 58//58 23//23
f 24//24 27//27 95//95
f 98//98 95//95 27//27
f 23//23 58//58 32//32
f 98//98 27//27 59//59
f 59//59 60//60 128//128
f 100//100 216//216 61//61
f 32//32 62//62 31//31
f 32//32 58//58 63//63
f 32//32 63//63 62//62
f 64//64 214//214 221//221
f 61//61 214//214 64//64
f 85//85 222//222 223//223
f 64//64 221//221 230//230
f 96//96 63//63 58//58
f 63//63 96//96 231//231
f 29//29 65//65 60//60
f 224//224 215//215 66//66
f 60//60 65//65 128//128
f 224//224 66//66 67//67
f 225//225 136//136 227//227
f 66//66 215//215 217//217
f 99//99 226//226 216//216
f 136//136 226//226 99//99
f 107//107 69//69 41//41
f 74//74 73//73 42//42
f 69//69 107//107 71//71
f 69//69 71//71 41//41
f 41//41 71//71 68//68
f 70//70 42//42 68//68
f 229//229 68//68 71//71
f 74//74 42//42 70//70
f 229//229 71//71 72//72
f 229//229 72//72 74//74
f 107//107 108//108 71//71
f 108//108 72//72 71//71
f 75//75 73//73 74//74
f 75//75 45//45 73//73
f 77//77 75//75 74//74
f 76//76 72//72 88//88
f 74//74 76//76 77//77
f 74//74 72//72 76//76
f 79//79 15//15 78//78
f 87//87 15//15 79//79
f 78//78 80//80 79//79
f 45//45 75//75 82//82
f 75//75 91//91 82//82
f 93//93 80//80 83//83
f 79//79 80//80 93//93
f 94//94 81//81 82//82
f 49//49 53//53 83//83
f 53//53 95//95 83//83
f 81//81 84//84 55//55
f 58//58 55//55 84//84
f 58//58 84//84 96//96
f 97//97 59//59 128//128
f 61//61 64//64 100//100
f 103//103 64//64 230//230
f 86//86 231//231 96//96
f 103//103 129//129 64//64
f 103//103 230//230 104//104
f 128//128 65//65 228//228
f 99//99 216//216 100//100
f 106//106 87//87 105//105
f 107//107 87//87 188//188
f 106//106 188//188 87//87
f 108//108 88//88 72//72
f 89//89 76//76 88//88
f 108//108 110//110 88//88
f 77//77 109//109 92//92
f 110//110 89//89 88//88
f 89//89 111//111 109//109
f 110//110 111//111 89//89
f 75//75 77//77 92//92
f 77//77 76//76 89//89
f 89//89 109//109 77//77
f 234//234 232//232 79//79
f 234//234 79//79 90//90
f 92//92 91//91 75//75
f 117//117 92//92 109//109
f 93//93 122//122 90//90
f 90//90 79//79 93//93
f 91//91 94//94 82//82
f 84//84 81//81 94//94
f 92//92 94//94 91//91
f 92//92 117//117 94//94
f 83//83 95//95 93//93
f 95//95 123//123 93//93
f 94//94 96//96 84//84
f 95//95 98//98 172//172
f 125//125 96//96 94//94
f 98//98 59//59 97//97
f 126//126 98//98 97//97
f 100//100 64//64 129//129
f 125//125 86//86 96//96
f 233//233 231//231 86//86
f 86//86 125//125 101//101
f 101//101 233//233 86//86
f 102//102 101//101 125//125
f 102//102 233//233 101//101
f 127//127 102//102 125//125
f 102//102 127//127 131//131
f 131//131 233//233 102//102
f 188//188 106//106 138//138
f 107//107 142//142 108//108
f 142//142 112//112 108//108
f 108//108 112//112 110//110
f 112//112 111//111 110//110
f 112//112 113//113 111//111
f 113//113 109//109 111//111
f 112//112 146//146 113//113
f 109//109 113//113 116//116
f 105//105 90//90 114//114
f 90//90 119//119 114//114
f 115//115 147//147 114//114
f 115//115 119//119 120//120
f 114//114 119//119 115//115
f 105//105 114//114 137//137
f 115//115 148//148 149//149
f 148//148 115//115 120//120
f 116//116 117//117 109//109
f 118//118 90//90 122//122
f 118//118 119//119 90//90
f 156//156 118//118 121//121
f 119//119 118//118 120//120
f 118//118 156//156 120//120
f 121//121 122//122 160//160
f 121//121 118//118 122//122
f 121//121 160//160 156//156
f 93//93 123//123 122//122
f 123//123 160//160 122//122
f 94//94 117//117 166//166
f 166//166 125//125 94//94
f 124//124 160//160 95//95
f 160//160 123//123 95//95
f 124//124 95//95 172//172
f 125//125 166//166 169//169
f 169//169 171//171 125//125
f 172//172 98//98 126//126
f 173//173 172//172 126//126
f 125//125 171//171 127//127
f 171//171 176//176 127//127
f 126//126 97//97 128//128
f 173//173 126//126 128//128
f 173//173 128//128 133//133
f 133//133 135//135 173//173
f 99//99 183//183 136//136
f 129//129 103//103 130//130
f 175//175 129//129 132//132
f 127//127 176//176 239//239
f 100//100 129//129 175//175
f 130//130 103//103 236//236
f 236//236 103//103 104//104
f 129//129 130//130 240//240
f 127//127 239//239 237//237
f 238//238 240//240 130//130
f 128//128 228//228 133//133
f 134//134 133//133 228//228
f 134//134 135//135 133//133
f 134//134 227//227 136//136
f 134//134 136//136 179//179
f 106//106 105//105 137//137
f 137//137 138//138 106//106
f 137//137 147//147 139//139
f 139//139 147//147 150//150
f 140//140 138//138 137//137
f 137//137 139//139 140//140
f 152//152 139//139 150//150
f 140//140 139//139 141//141
f 141//141 139//139 152//152
f 140//140 141//141 184//184
f 184//184 141//141 185//185
f 186//186 188//188 138//138
f 142//142 146//146 112//112
f 142//142 143//143 146//146
f 188//188 189//189 107//107
f 142//142 107//107 189//189
f 143//143 144//144 145//145
f 155//155 144//144 192//192
f 191//191 142//142 189//189
f 191//191 143//143 142//142
f 190//190 143//143 191//191
f 144//144 190//190 192//192
f 190//190 144//144 143//143
f 113//113 145//145 116//116
f 116//116 145//145 117//117
f 145//145 155//155 117//117
f 145//145 146//146 143//143
f 113//113 146//146 145//145
f 144//144 155//155 145//145
f 147//147 137//137 114//114
f 148//148 151//151 149//149
f 150//150 147//147 115//115
f 150//150 115//115 149//149
f 151//151 152//152 149//149
f 151//151 193//193 152//152
f 194//194 193//193 151//151
f 151//151 157//157 194//194
f 152//152 150//150 149//149
f 155//155 153//153 154//154
f 155//155 154//154 117//117
f 151//151 148//148 157//157
f 157//157 148//148 120//120
f 156//156 157//157 120//120
f 157//157 158//158 194//194
f 165//165 166//166 154//154
f 157//157 156//156 159//159
f 159//159 156//156 160//160
f 157//157 159//159 161//161
f 161//161 158//158 157//157
f 158//158 161//161 195//195
f 154//154 166//166 117//117
f 159//159 160//160 124//124
f 159//159 235//235 162//162
f 162//162 161//161 159//159
f 161//161 162//162 195//195
f 165//165 195//195 163//163
f 172//172 162//162 235//235
f 167//167 162//162 172//172
f 162//162 163//163 195//195
f 163//163 162//162 164//164
f 163//163 164//164 165//165
f 167//167 172//172 198//198
f 162//162 167//167 164//164
f 170//170 166//166 165//165
f 165//165 164//164 168//168
f 170//170 171//171 166//166
f 165//165 168//168 170//170
f 166//166 171//171 169//169
f 168//168 171//171 170//170
f 168//168 200//200 171//171
f 171//171 201//201 176//176
f 198//198 172//172 173//173
f 135//135 178//178 173//173
f 173//173 178//178 202//202
f 183//183 99//99 174//174
f 100//100 174//174 99//99
f 175//175 203//203 174//174
f 100//100 175//175 174//174
f 205//205 175//175 176//176
f 203//203 175//175 205//205
f 175//175 239//239 176//176
f 177//177 135//135 134//134
f 135//135 177//177 178//178
f 177//177 180//180 178//178
f 177//177 134//134 179//179
f 179//179 180//180 177//177
f 181//181 180//180 179//179
f 179//179 182//182 181//181
f 180//180 202//202 178//178
f 180//180 181//181 208//208
f 136//136 241//241 179//179
f 241//241 136//136 183//183
f 181//181 182//182 207//207
f 244//244 241//241 183//183
f 183//183 174//174 210//210
f 174//174 203//203 210//210
f 185//185 141//141 193//193
f 185//185 193//193 196//196
f 140//140 186//186 138//138
f 184//184 186//186 140//140
f 187//187 242//242 184//184
f 184//184 185//185 187//187
f 185//185 196//196 187//187
f 186//186 189//189 188//188
f 191//191 189//189 190//190
f 155//155 192//192 153//153
f 190//190 189//189 242//242
f 242//242 187//187 190//190
f 190//190 243//243 192//192
f 153//153 192//192 243//243
f 152//152 193//193 141//141
f 196//196 193//193 194//194
f 154//154 153//153 197//197
f 187//187 197//197 153//153
f 194//194 158//158 196//196
f 196//196 158//158 195//195
f 187//187 196//196 197//197
f 196//196 195//195 197//197
f 165//165 154//154 197//197
f 165//165 197//197 195//195
f 164//164 200//200 168//168
f 199//199 167//167 198//198
f 164//164 167//167 199//199
f 200//200 164//164 199//199
f 200//200 201//201 171//171
f 200//200 206//206 201//201
f 198//198 173//173 202//202
f 198//198 202//202 199//199
f 204//204 212//212 203//203
f 200//200 245//245 204//204
f 176//176 201//201 206//206
f 204//204 206//206 200//200
f 206//206 204//204 205//205
f 176//176 206//206 205//205
f 203//203 205//205 204//204
f 202//202 180//180 208//208
f 199//199 202//202 208//208
f 183//183 211//211 244//244
f 207//207 208//208 181//181
f 209//209 208//208 207//207
f 209//209 207//207 211//211
f 199//199 208//208 245//245
f 208//208 209//209 245//245
f 212//212 210//210 203//203
f 183//183 210//210 211//211
f 209//209 211//211 212//212
f 211//211 210//210 212//212
f 199//199 245//245 200//200
