# Wavafront OBJ file of BodyParts3D
# BodyParts3D, Copyright(C) 2010-2011 The Database Center for Life Science licensed under CC Attribution-Share Alike 2.1 Japan.
vn -0.982755 0.184178 -0.0164806
v 234.121 -129.423 767.508
vn -0.966572 0.255391 -0.0226811
v 234.159 -129.213 767.504
vn -0.979432 0.133781 0.151051
v 234.542 -128.448 769.73
vn -0.914464 0.397557 0.0755193
v 234.613 -128.299 769.962
vn -0.943464 0.279062 0.178887
v 234.892 -127.992 771.238
vn -0.386552 0.908701 -0.157607
v 235.004 -127.827 771.267
vn -0.858953 0.46045 0.224022
v 235.105 -127.729 771.692
vn -0.891949 0.398221 0.214122
v 235.185 -127.841 772.075
vn -0.289584 0.944449 -0.155428
v 235.265 -127.624 771.912
vn -0.927757 0.371047 0.0398996
v 235.457 -127.297 773.326
vn -0.602467 -0.673095 0.428924
v 235.684 -127.736 773.303
vn -0.209105 0.977181 -0.0373188
v 236.137 -126.87 775.299
vn -0.232143 0.9642 -0.128168
v 235.924 -127.062 774.247
vn -0.811631 -0.439262 0.385102
v 235.849 -127.213 774.247
vn -0.383015 -0.81986 0.425592
v 236.24 -127.128 775.158
vn -0.711828 -0.534082 0.456132
v 236.341 -127.007 775.458
vn -0.128009 0.66475 0.736017
v 236.456 -126.81 775.3
vn -0.542998 -0.761017 0.354973
v 234.804 -129.808 767.815
vn -0.367398 0.908027 -0.201261
v 236.658 -127.861 767.938
vn -0.141974 -0.768355 0.624078
v 236.512 -127.058 775.246
vn -0.174201 0.981483 0.0796614
v 236.753 -126.774 775.501
vn -0.948377 -0.313337 0.0489955
v 236.807 -126.641 775.875
vn -0.192198 0.976923 -0.0931697
v 236.889 -126.717 775.099
vn -0.903057 -0.425605 0.0578597
v 236.893 -126.908 775.834
vn -0.181983 -0.851254 0.492187
v 237.094 -127.232 775.193
vn 0.219117 -0.8835 0.414024
v 237.935 -127.34 775.142
vn -0.401897 -0.741905 0.536708
v 236.794 -126.732 776.12
vn -0.264676 -0.851851 0.451991
v 236.96 -126.843 776.092
vn -0.309448 0.926952 -0.212135
v 238.17 -126.17 773.124
vn -0.575757 0.8133 -0.0839436
v 238.564 -125.844 775.217
vn 0.914226 0.353867 -0.197406
v 238.884 -125.819 775.415
vn -0.438138 0.885131 -0.156775
v 238.807 -125.683 775.445
vn -0.385637 0.922043 -0.0334737
v 237.415 -126.458 776.358
vn -0.0518463 -0.832242 0.551984
v 237.868 -126.554 776.731
vn 0.383186 -0.839869 0.384432
v 238.286 -126.274 777.12
vn -0.546842 0.553292 -0.628357
v 238.9 -125.422 775.698
vn -0.439655 0.879231 -0.183456
v 238.863 -125.614 775.602
vn -0.347483 0.475304 -0.808295
v 239.056 -125.263 775.725
vn -0.618284 0.531903 0.578622
v 238.812 -125.629 777.089
vn 0.589232 -0.753284 0.292179
v 239.031 -125.739 777.059
vn -0.982757 -0.141694 0.118793
v 233.778 -134.7 757.275
vn -0.994262 0.106896 0.00403033
v 233.801 -134.491 757.316
vn -0.999524 0.0304967 -0.00459466
v 233.796 -133.97 758.237
vn -0.799674 0.532898 -0.276661
v 235.28 -131.397 759.928
vn -0.351708 -0.851136 0.389704
v 236.519 -131.185 767.275
vn 0.272344 0.874769 -0.40076
v 237.05 -129.518 763.344
vn -0.172747 -0.884889 0.432584
v 237.62 -129.504 770.841
vn -0.0739012 -0.885161 0.459378
v 237.215 -128.56 772.677
vn -0.15289 0.947909 -0.279451
v 238.15 -126.47 771.84
vn 0.99892 -0.0116944 -0.0449754
v 238.71 -127.215 772.079
vn 0.965054 -0.252573 0.0698475
v 238.722 -127.772 772.783
vn 0.899604 0.399713 -0.175903
v 238.946 -126.333 774.289
vn 0.998747 -0.0497634 0.00535629
v 238.976 -126.194 775.949
vn -0.903065 -0.36843 -0.220754
v 233.747 -135.659 755.042
vn -0.899647 -0.414388 -0.13754
v 233.855 -135.879 754.995
vn -0.75812 0.433866 -0.486841
v 234.353 -135.617 754.369
vn -0.744782 0.543072 -0.387779
v 235.033 -134.79 754.152
vn -0.843985 -0.452842 0.287444
v 233.648 -135.118 756.175
vn -0.895117 -0.445554 0.0157436
v 233.681 -135.504 755.688
vn -0.731435 -0.603112 0.318213
v 233.791 -135.414 756.129
vn -0.704025 0.589584 -0.395902
v 234.929 -134.235 755.17
vn 0.216424 0.851514 -0.477581
v 236.975 -130.514 761.49
vn 0.669319 0.654948 -0.350792
v 237.578 -131.017 761.149
vn 0.936886 0.295806 -0.186396
v 238.484 -130.816 763.812
vn 0.0392588 -0.895964 0.442388
v 238.177 -129.935 769.899
vn 0.999489 -0.0178275 -0.0265354
v 238.666 -129.968 768.67
vn -0.837009 0.251668 -0.485881
v 235.476 -136.713 752.118
vn -0.899529 -0.389492 -0.197845
v 234.925 -136.835 753.121
vn -0.827051 0.305184 -0.472069
v 235.477 -135.424 752.581
vn -0.487041 0.758333 -0.433269
v 235.238 -134.821 753.73
vn 0.646838 -0.666899 0.369928
v 237.649 -134.347 760.478
vn 0.038989 -0.887345 0.459456
v 236.936 -133.506 762.305
vn 0.945176 0.262004 -0.194927
v 238.116 -132.448 760.435
vn 0.989031 -0.146252 0.0206689
v 238.193 -133.295 760.671
vn 0.973571 -0.225584 0.0356661
v 238.382 -131.941 763.998
vn -0.882937 0.457523 -0.105335
v 235.866 -137.745 745.366
vn -0.971861 -0.0841272 0.220019
v 235.896 -138.413 747.68
vn -0.946088 0.0648711 -0.317347
v 236.06 -138.263 750.143
vn -0.983925 0.178019 0.0141395
v 236.264 -138.408 749.097
vn -0.743432 -0.667471 0.0423208
v 235.633 -138.059 751.23
vn -0.571134 0.770412 -0.283322
v 236.277 -137.132 745.883
vn 0.299705 0.935289 -0.188182
v 236.522 -136.927 746.936
vn -0.632806 0.747394 -0.202381
v 235.818 -137.013 747.76
vn -0.540517 0.820865 -0.184451
v 236.188 -136.632 748.369
vn 0.343803 0.921762 -0.179316
v 236.595 -136.729 748.402
vn -0.972843 0.074004 0.219316
v 236.43 -137.793 749.011
vn -0.47924 0.852656 -0.208104
v 236.966 -136.741 747.979
vn -0.932012 0.23099 -0.279279
v 236.362 -136.392 750.315
vn -0.990322 0.138677 -0.00554581
v 236.419 -136.556 749.795
vn -0.905729 0.412022 -0.0994677
v 236.514 -136.36 749.704
vn -0.942877 0.207186 -0.260877
v 236.431 -137.752 750.039
vn -0.725442 -0.688181 0.0118491
v 235.481 -137.809 752.51
vn -0.261017 -0.888857 0.376568
v 236.491 -137.688 754.531
vn -0.317029 0.901772 -0.29377
v 237.208 -136.19 749.276
vn -0.617694 0.680968 -0.393365
v 236.441 -136.208 750.33
vn -0.224292 0.922214 -0.314982
v 237.235 -135.613 751.053
vn 0.317902 0.912714 -0.256694
v 237.511 -135.615 751.043
vn -0.0114887 0.963474 -0.267557
v 237.41 -135.946 749.863
vn 0.823887 0.543309 -0.161322
v 237.728 -135.515 752.281
vn -0.047208 0.938563 -0.341864
v 237.247 -135.15 752.371
vn 0.983976 -0.173218 0.0422638
v 237.996 -136.124 755.415
vn 0.824448 -0.518553 0.226692
v 237.937 -135.928 757.024
vn 0.374583 -0.822807 0.427407
v 237.534 -135.548 758.608
vn 0.128538 0.882786 -0.451848
v 237.761 -134.104 755.624
vn -0.597461 -0.629471 0.496797
v 235.25 -141.823 743.139
vn -0.93687 0.114802 -0.330294
v 235.516 -140.595 743.172
vn -0.985633 0.00238099 0.168884
v 235.141 -140.551 744.011
vn -0.828112 -0.353146 0.435337
v 235.168 -141.006 743.919
vn -0.980575 0.0255365 -0.194473
v 235.139 -140.735 743.77
vn -0.293177 -0.722225 0.626449
v 235.462 -141.349 743.839
vn -0.854934 0.142422 -0.498802
v 235.922 -139.845 741.657
vn -0.390054 0.539379 -0.746276
v 236.011 -139.653 741.6
vn 0.266511 0.641444 -0.71939
v 236.585 -138.733 742.43
vn -0.647604 0.182596 -0.739776
v 236.094 -139.906 741.491
vn 0.563781 0.374916 -0.735928
v 236.572 -139.132 742.149
vn -0.914813 0.258401 -0.310396
v 235.286 -139.155 743.47
vn -0.98377 0.164293 0.0721445
v 235.262 -139.179 743.67
vn -0.577863 0.725202 -0.374374
v 235.709 -138.832 742.989
vn -0.254985 0.806299 -0.533727
v 236.402 -138.67 742.508
vn -0.864061 -0.273469 0.422627
v 235.56 -139.616 745.205
vn -0.969975 -0.149962 0.19147
v 235.825 -139.029 746.243
vn -0.550982 -0.743531 0.378921
v 236.253 -139.57 746.415
vn -0.512019 -0.650081 0.561455
v 236.33 -140.09 745.585
vn -0.248134 -0.877068 0.411316
v 236.731 -139.584 746.672
vn -0.498257 0.811319 -0.30578
v 236.71 -137.733 744.114
vn -0.406904 0.81778 -0.407019
v 236.338 -138.476 742.991
vn -0.231201 0.834578 -0.500025
v 236.606 -138.381 742.953
vn -0.133428 0.840283 -0.525472
v 236.8 -138.089 743.301
vn 0.127082 0.85494 -0.50292
v 237.096 -137.679 743.966
vn 0.175673 0.767836 -0.61609
v 236.853 -138.342 742.967
vn 0.479462 0.677197 -0.558141
v 237.159 -137.919 743.653
vn 0.764732 0.512242 -0.390887
v 237.376 -137.656 744.284
vn 0.671345 0.415951 -0.613417
v 236.994 -138.502 742.93
vn 0.860881 0.28374 -0.422345
v 237.257 -138.149 743.566
vn -0.450988 0.848635 -0.276456
v 236.556 -137.62 744.755
vn 0.976965 0.067434 -0.202465
v 237.464 -137.937 744.313
vn -0.860908 -0.466739 0.202468
v 235.891 -138.709 747.212
vn 0.647831 -0.740519 0.178734
v 237.037 -139.468 746.408
vn 0.901345 -0.432494 0.0229175
v 237.417 -138.961 746.293
vn -0.75126 -0.624692 0.212997
v 236.369 -139.184 747.509
vn -0.282648 -0.926336 0.249021
v 237.013 -139.291 747.669
vn -0.738137 -0.674632 0.00497153
v 236.27 -138.667 749.861
vn -0.791172 -0.599904 0.119005
v 236.311 -138.806 749.015
vn -0.436135 -0.883036 0.1733
v 236.779 -138.865 751.028
vn -0.749063 0.654648 -0.101685
v 236.998 -137.174 745.237
vn -0.107145 0.958259 -0.265065
v 237.143 -137.025 745.262
vn -0.435469 0.892933 -0.114178
v 237.215 -137.004 745.672
vn 0.536473 0.80132 -0.264733
v 237.411 -137.057 745.655
vn 0.449824 0.778112 -0.438405
v 237.296 -137.426 744.508
vn 0.689341 0.656634 -0.306008
v 237.373 -137.347 744.781
vn 0.945281 0.260807 -0.196021
v 237.606 -137.487 745.358
vn 0.288968 0.93844 -0.189281
v 236.52 -137.148 746.075
vn 0.324392 0.937984 -0.122294
v 236.786 -137.174 746.469
vn -0.593897 0.795339 -0.121333
v 236.992 -137.094 746.07
vn -0.465816 0.868153 -0.171248
v 237.134 -136.709 747.318
vn -0.206686 0.965731 -0.156984
v 237.396 -136.816 746.316
vn -0.156442 0.968188 -0.195287
v 237.528 -136.721 746.943
vn 0.731265 0.64856 -0.211239
v 237.615 -136.879 746.5
vn 0.986827 0.143344 -0.0749943
v 237.836 -137.145 747.459
vn 0.541396 -0.835336 0.0954164
v 237.651 -138.585 749.83
vn 0.628018 -0.75042 0.206066
v 237.538 -138.41 751.706
vn 0.530721 -0.787068 0.314418
v 237.153 -137.928 753.653
vn 0.232319 -0.924966 0.300775
v 237.045 -138.491 752.319
vn -0.369431 0.891263 -0.263005
v 237.498 -136.073 749.319
vn 0.614259 0.763545 -0.199211
v 237.626 -135.987 749.944
vn -0.976022 0.179594 0.12299
v 248.072 -123.383 770.689
vn -0.881858 -0.401055 0.247954
v 248.097 -123.51 771.071
vn -0.851596 -0.235024 0.468559
v 248.548 -123.287 771.917
vn -0.897987 0.396687 0.190419
v 248.878 -122.601 772.859
vn -0.89461 -0.149294 0.421171
v 249.197 -122.446 773.594
vn -0.716199 0.697602 0.0202525
v 249.409 -122.128 773.753
vn 0.00921136 0.277078 -0.960803
v 235.257 -142.499 740.554
vn -0.959909 0.247303 0.131972
v 235.266 -142.54 740.75
vn -0.992875 0.0719197 0.0950134
v 235.233 -142.713 740.54
vn 0.178468 0.284721 -0.941851
v 235.381 -142.561 740.537
vn -0.970444 0.239853 0.0266078
v 235.36 -142.739 741.57
vn -0.103836 -0.989734 0.0982114
v 235.529 -142.782 741.316
vn 0.266608 0.249835 -0.930861
v 235.912 -142.016 741.036
vn 0.764668 -0.59859 -0.238688
v 235.914 -142.531 741.341
vn -0.703824 -0.63816 0.312064
v 235.295 -142.364 742.213
vn -0.37171 -0.76703 0.522969
v 235.382 -142.145 742.866
vn -0.667316 -0.672318 0.320434
v 235.465 -142.641 741.986
vn 0.210339 -0.845065 0.491551
v 235.764 -142.254 742.765
vn 0.0814291 -0.963195 0.256175
v 235.664 -142.698 741.725
vn 0.521058 -0.813291 0.258952
v 235.944 -142.469 742.169
vn -0.616726 0.269834 -0.739485
v 235.808 -141.523 741.139
vn 0.920434 -0.162844 -0.355362
v 236.334 -141.452 741.748
vn 0.902101 -0.430497 -0.0297702
v 236.328 -141.999 742.25
vn 0.82657 0.0689666 -0.558592
v 236.789 -139.288 742.371
vn 0.950576 -0.14592 -0.274066
v 237.141 -139.387 743.155
vn 0.294363 -0.785819 0.54391
v 236.579 -140.365 745.113
vn 0.730438 -0.605302 0.316337
v 236.789 -140.232 745.039
vn 0.688348 -0.634864 0.35089
v 236.782 -140.414 744.798
vn 0.92745 -0.371393 0.0436303
v 237.271 -139.519 744.757
vn 0.602282 -0.733373 0.315309
v 236.914 -139.926 745.504
vn 0.882553 0.0989816 -0.459676
v 237.048 -138.827 742.862
vn 0.969878 -0.0403266 -0.240229
v 237.288 -138.834 743.465
vn -0.998591 0.022246 -0.0481682
v 248.051 -125.02 764.667
vn -0.948742 -0.310398 0.0595117
v 248.057 -125.376 764.37
vn -0.78745 -0.597352 0.151964
v 248.207 -125.457 765.778
vn -0.962372 0.163624 -0.216948
v 247.891 -124.858 765.5
vn -0.550016 0.79707 -0.249322
v 247.984 -124.862 765.25
vn -0.442902 0.860944 -0.250228
v 249.686 -122.621 768.133
vn 0.538566 0.788972 -0.295752
v 250.031 -122.515 768.347
vn -0.654455 0.134875 0.743974
v 249.638 -122.113 773.952
vn 0.260499 -0.785504 0.561359
v 249.643 -122.44 773.534
vn 0.986078 0.145159 0.0811154
v 250.366 -120.896 773.151
vn -0.648747 0.207888 0.732059
v 249.866 -121.68 774.031
vn -0.56162 0.708893 0.426677
v 250.175 -120.885 773.363
vn -0.15488 0.686633 0.710315
v 250.227 -121.178 773.711
vn 0.527559 -0.611506 0.589697
v 249.929 -121.975 773.924
vn 0.165048 -0.325696 0.930957
v 250.13 -121.642 774.029
vn 0.982899 0.00893807 0.183927
v 250.351 -121.029 773.533
vn -0.994861 -0.101039 -0.00647849
v 247.551 -128.032 757.527
vn -0.907672 0.411349 -0.0832057
v 247.523 -127.808 757.777
vn -0.47364 0.721843 -0.504586
v 247.686 -127.873 757.554
vn -0.831712 -0.479881 0.279231
v 247.674 -127.103 759.613
vn -0.907676 0.409508 -0.0917998
v 247.764 -126.914 759.572
vn -0.772901 -0.603584 0.195728
v 248.603 -126.148 764.605
vn 0.985197 0.127803 0.114255
v 251.244 -124.502 768.926
vn -0.878201 -0.428037 0.213419
v 247.756 -129.931 755.71
vn -0.648688 0.680728 -0.340314
v 249.731 -126.797 757.017
vn -0.650434 0.665385 -0.366331
v 249.716 -127.114 756.412
vn -0.587783 0.709522 -0.388703
v 249.895 -126.825 756.668
vn 0.274843 0.898051 -0.343463
v 250.006 -126.744 757.188
vn -0.523045 0.792824 -0.312816
v 249.573 -125.623 759.824
vn -0.729184 0.612793 -0.304591
v 249.737 -125.62 759.365
vn -0.278893 0.925108 -0.257671
v 249.84 -125.526 759.773
vn 0.416241 0.852948 -0.314996
v 249.942 -125.658 759.35
vn 0.45232 -0.739552 0.498467
v 250.965 -125.206 768.571
vn -0.897937 -0.402833 0.1773
v 247.666 -131.089 752.623
vn -0.485485 0.720346 -0.495385
v 247.928 -130.986 752.56
vn -0.694708 0.590761 -0.410344
v 249.202 -129.687 753.056
vn -0.753804 0.539145 -0.375636
v 249.594 -129.37 752.698
vn -0.386904 0.702473 -0.597358
v 249.857 -129.315 752.291
vn -0.640653 0.651962 -0.405596
v 249.835 -128.864 752.995
vn -0.542937 0.72902 -0.416832
v 250.003 -128.447 753.481
vn -0.717797 0.613074 -0.330013
v 249.707 -128.326 754.179
vn -0.662884 0.658187 -0.356894
v 249.805 -127.588 755.497
vn 0.370568 0.825159 -0.426372
v 249.999 -127.646 755.479
vn 0.494174 0.794688 -0.35251
v 251.108 -127.93 756.404
vn -0.929824 0.0628617 -0.362595
v 248.579 -133.455 749.871
vn -0.929824 0.0628617 -0.362595
v 248.779 -133.371 749.372
vn -0.402262 0.6423 -0.652408
v 249.954 -131.929 749.377
vn -0.586256 0.602257 -0.541839
v 248.845 -131.845 750.86
vn -0.469694 0.653403 -0.593677
v 249.458 -130.853 751.18
vn -0.175708 0.73946 -0.649865
v 249.766 -130.932 750.949
vn 0.311895 0.82257 -0.4755
v 251.104 -129.93 752.125
vn 0.028816 0.87199 -0.488674
v 251.499 -130.039 752.123
vn -0.372302 -0.835385 0.40438
v 250.056 -131.468 756.751
vn 0.260406 0.882415 -0.391832
v 252.178 -128.941 754.736
vn 0.95198 0.30616 -0.000545095
v 252.552 -127.886 758.609
vn -0.7774 -0.261379 -0.572128
v 249.59 -134.165 748.877
vn -0.671798 0.106335 -0.733062
v 249.7 -133.963 748.71
vn -0.22052 0.817217 -0.532473
v 250.82 -132.617 748.329
vn -0.0503791 0.826489 -0.560694
v 250.399 -131.924 749.317
vn -0.0177524 0.820061 -0.572001
v 251.533 -130.953 750.761
vn -0.236042 0.817843 -0.524802
v 252.331 -131.046 750.226
vn -0.00519305 0.840562 -0.54169
v 252.814 -130.85 751.52
vn 0.303832 -0.852302 0.425755
v 252.212 -132.363 755.272
vn 0.548629 -0.769093 0.327877
v 252.564 -131.764 755.992
vn 0.083649 -0.922234 0.377475
v 251.896 -131.486 757.092
vn 0.225594 0.863757 -0.450589
v 252.188 -130.054 752.267
vn 0.105005 0.840281 -0.531885
v 252.834 -130.49 751.999
vn -0.0771194 -0.898803 0.431515
v 252.148 -131.216 757.952
vn 0.80366 -0.502214 0.319237
v 252.531 -130.605 758.517
vn 0.928632 0.367827 -0.0484332
v 253.129 -129.47 756.842
vn -0.629142 0.694185 -0.349696
v 251.708 -134.36 745.091
vn -0.801695 0.171312 -0.572658
v 250.687 -135.126 747.218
vn -0.836321 -0.519664 -0.174692
v 250.851 -135.436 747.354
vn -0.901599 0.0505673 -0.429608
v 251.334 -135.713 746.057
vn -0.854971 -0.504914 -0.118688
v 251.327 -135.943 746.084
vn -0.899497 0.141135 -0.413505
v 251.173 -133.764 746.862
vn -0.127083 -0.918372 0.374757
v 251.777 -134.531 750.844
vn 0.130491 -0.90565 0.403448
v 252.363 -134.874 749.778
vn 0.0944862 -0.90911 0.405699
v 252.631 -134.543 750.534
vn -0.387188 0.82802 -0.405547
v 252.38 -132.74 746.822
vn -0.100478 0.910495 -0.401127
v 253.573 -132.024 748.15
vn -0.133595 0.883315 -0.44934
v 253.276 -131.84 748.605
vn 0.920279 0.389345 0.0386816
v 253.332 -131.837 749.012
vn -0.0554696 0.876707 -0.477816
v 253.157 -130.987 751.229
vn 0.936613 0.343619 -0.068427
v 253.513 -131.747 750.656
vn -0.153036 0.813423 -0.56118
v 253.178 -130.625 751.71
vn 0.906451 -0.356863 0.22582
v 252.946 -132.074 754.08
vn -0.985281 0.0688195 -0.156477
v 251.982 -136.305 743.671
vn -0.959153 -0.253638 -0.125272
v 252.02 -136.642 743.806
vn -0.922824 0.188682 -0.335849
v 251.67 -136.179 745.135
vn -0.873417 -0.468129 -0.134156
v 251.713 -136.311 745.312
vn -0.663301 0.716363 -0.216462
v 252.49 -135.209 741.22
vn -0.349761 0.899691 -0.261194
v 252.791 -134.925 741.471
vn -0.952145 0.100342 -0.288706
v 251.965 -135.593 744.835
vn -0.167761 -0.940441 0.295682
v 252.799 -136.012 747.232
vn -0.610602 0.717057 -0.336147
v 253.021 -134.217 743.034
vn -0.11633 0.942227 -0.314127
v 253.795 -133.81 743.089
vn -0.585757 0.731479 -0.349038
v 252.388 -133.916 744.749
vn 0.113513 -0.90217 0.416178
v 253.104 -134.485 750.529
vn 0.959231 0.281991 -0.0188851
v 253.826 -133.15 745.873
vn -0.107331 0.932102 -0.345928
v 253.636 -132.765 746.366
vn 0.971227 0.219776 0.0917375
v 253.69 -132.36 748.486
vn 0.992794 0.0130794 0.119115
v 253.652 -132.999 749.584
vn -0.968298 -0.172534 -0.180642
v 252.666 -137.886 737.819
vn -0.98482 -0.100708 -0.141376
v 252.506 -136.116 737.363
vn -0.680568 0.513232 -0.522896
v 252.792 -135.982 737.06
vn -0.934214 -0.144272 -0.326236
v 252.994 -136.659 736.421
vn 0.305437 0.833308 -0.460767
v 253.267 -136.604 736.219
vn -0.715639 0.674862 -0.180062
v 252.698 -135.509 738.499
vn 0.166313 0.935892 -0.310557
v 253.082 -135.669 738.045
vn -0.942828 -0.325583 0.0712176
v 252.523 -137.043 739.013
vn -0.209235 -0.958473 0.193779
v 253.283 -137.557 741.537
vn 0.155835 -0.955743 0.249541
v 253.38 -137.047 743.701
vn -0.0857472 -0.962488 0.25742
v 252.982 -136.78 744.766
vn -0.103796 0.935444 -0.337893
v 253.481 -135.496 738.679
vn 0.954094 0.237298 -0.18274
v 254.088 -135.615 738.838
vn 0.736293 0.563546 -0.37455
v 253.908 -135.823 737.986
vn -0.0335633 0.922736 -0.383969
v 253.92 -134.92 739.8
vn 0.810185 0.535734 -0.237884
v 254.082 -135.039 739.77
vn 0.993052 0.107702 -0.0474102
v 254.221 -135.158 740.966
vn 0.919802 -0.35032 0.176749
v 253.782 -136.069 744.709
vn 0.478292 0.838637 -0.260624
v 254.023 -133.872 743.272
vn 0.997305 -0.0171505 0.0713304
v 254.171 -134.461 743.557
vn -0.813342 0.568364 -0.124246
v 252.589 -140.754 734.941
vn -0.7606 0.623209 -0.18193
v 252.536 -140.774 735.202
vn -0.918974 -0.145968 0.366307
v 252.7 -140.743 735.815
vn -0.911784 0.37881 -0.158594
v 252.506 -140.944 734.965
vn -0.727825 0.662279 -0.177926
v 252.69 -140.629 735.219
vn 0.614401 -0.359654 -0.702254
v 252.787 -140.872 735.174
vn 0.246094 -0.969234 0.00474498
v 252.852 -140.853 735.584
vn -0.901359 -0.115813 0.417301
v 252.86 -140.012 736.365
vn -0.034026 0.160154 -0.986505
v 253.155 -139.784 735.518
vn 0.0296413 -0.849742 0.526364
v 253.283 -140.445 736.263
vn 0.024148 0.186594 -0.98214
v 253.332 -139.873 735.498
vn 0.897062 -0.162904 -0.410783
v 253.579 -139.602 735.81
vn 0.966482 -0.199611 -0.161454
v 253.833 -139.396 736.455
vn -0.953966 -0.29149 0.0705809
v 252.933 -138.987 737.589
vn -0.0258772 -0.816576 0.576657
v 253.609 -139.459 737.674
vn 0.838421 -0.504267 0.206799
v 253.813 -139.53 737.245
vn -0.971689 -0.0652559 -0.227074
v 253.307 -137.224 735.48
vn -0.113185 0.00510529 -0.993561
v 253.524 -138.14 735.485
vn 0.767922 0.375086 -0.519236
v 253.541 -137.267 735.668
vn -0.872838 0.0914251 -0.479369
v 253.317 -138.587 735.614
vn 0.930438 0.072177 -0.359271
v 253.753 -137.887 735.944
vn 0.964803 -0.0218171 -0.262067
v 253.858 -138.453 736.235
vn 0.985865 -0.16322 0.0378057
v 254.03 -138.571 737.634
vn -0.825666 -0.533668 0.182956
v 253.333 -137.949 740.028
vn 0.0751154 -0.908879 0.410241
v 253.608 -138.056 739.793
vn -0.648483 -0.652804 0.391556
v 253.297 -138.557 738.683
vn -0.500707 -0.726704 0.470313
v 253.53 -138.592 738.872
vn 0.701028 -0.595564 0.392255
v 253.778 -138.624 738.653
vn 0.947694 0.194781 -0.252857
v 253.97 -136.445 737.451
vn 0.986352 0.0909721 -0.137235
v 254.111 -136.438 738.264
vn 0.885955 -0.414514 0.207993
v 253.994 -137.551 739.677
vn 0.672087 -0.702146 0.235137
v 253.633 -137.582 740.89
vn 0.851076 -0.502728 -0.15144
v 253.477 -140.286 736.084
vn -0.537474 0.833641 -0.127139
v 273.634 -125.748 771.374
vn -0.985149 -0.15142 0.0809592
v 273.617 -125.55 772.844
vn -0.985149 -0.15142 0.0809592
v 273.603 -125.692 772.407
vn -0.561326 0.817218 -0.130643
v 273.786 -125.563 772.427
vn -0.623197 0.777362 -0.0856374
v 273.719 -125.624 771.703
vn -0.958097 0.278221 0.068143
v 273.719 -125.524 773.662
vn -0.950149 0.250267 0.185967
v 273.794 -125.67 774.242
vn -0.985149 -0.15142 0.0809592
v 273.692 -125.703 773.466
vn -0.911835 0.409523 0.02913
v 273.779 -125.501 773.363
vn -0.930941 0.0647473 -0.359384
v 273.713 -125.444 774.495
vn -0.930941 0.0647473 -0.359384
v 273.872 -125.452 774.079
vn -0.47626 -0.832676 0.282538
v 274.171 -125.678 775.248
vn -0.0461122 0.970142 0.238115
v 274.503 -125.525 775.471
vn -0.785284 0.264765 0.559669
v 274.493 -125.596 775.662
vn -0.0266979 -0.934237 0.355652
v 274.561 -125.801 775.261
vn 0.170526 0.985045 0.0246228
v 274.719 -125.542 775.461
vn -0.452146 0.864986 -0.21763
v 275.142 -126.417 765.677
vn -0.945565 0.252538 -0.205261
v 274.118 -126.071 767.987
vn -0.0206187 0.992773 -0.118223
v 274.283 -125.926 768.663
vn -0.274882 -0.935368 0.222545
v 274.865 -126.878 771.501
vn 0.525994 -0.799402 0.290321
v 275.646 -126.645 771.737
vn 0.254275 -0.921353 0.294029
v 275.044 -126.481 773.016
vn -0.199996 0.978486 -0.0506637
v 276.215 -125.512 771.417
vn 0.790136 -0.537549 0.294493
v 275.665 -126.171 772.852
vn 0.719819 0.561908 0.407578
v 275.91 -125.625 772.914
vn -0.233487 0.97016 -0.0653678
v 276.318 -125.451 771.954
vn 0.889062 -0.345198 0.300678
v 276.251 -125.632 772.124
vn 0.7567 -0.546381 0.358989
v 275.35 -125.823 774.362
vn 0.899529 -0.0218573 0.436314
v 275.448 -125.548 774.21
vn 0.0648836 0.997743 0.0173135
v 275.569 -125.535 773.392
vn 0.347487 -0.860693 0.372102
v 275.026 -125.769 774.996
vn -0.990288 0.0406642 -0.132951
v 274.665 -128.361 762.65
vn -0.943542 0.309325 -0.118518
v 274.824 -127.891 762.127
vn -0.96949 -0.238666 -0.0559283
v 274.76 -128.568 761.993
vn -0.875299 -0.483379 0.0140108
v 274.773 -128.7 762.578
vn -0.833055 0.503061 -0.230108
v 274.7 -127.639 763.61
vn -0.621126 -0.766626 0.162749
v 274.867 -128.13 766.159
vn -0.09896 0.992192 -0.0759103
v 276.924 -125.431 769.692
vn -0.206571 0.963094 -0.172566
v 277.117 -125.604 768.426
vn -0.295996 0.93939 -0.173011
v 277.233 -125.489 768.853
vn 0.52259 0.839208 0.150431
v 277.295 -125.745 768.596
vn 0.489766 0.777181 0.395118
v 276.433 -125.451 771.134
vn 0.839125 -0.471159 0.271806
v 277 -125.455 770.093
vn 0.489766 0.777181 0.395118
v 276.397 -125.628 771.528
vn -0.753722 -0.639423 0.151795
v 275.057 -130.646 755.238
vn -0.547884 -0.818293 0.173837
v 275.251 -129.339 761.821
vn -0.453188 0.863719 -0.220476
v 276.796 -127.275 758.917
vn 0.712923 -0.632803 0.302161
v 276.574 -127.901 767.167
vn 0.854867 -0.450906 0.256683
v 277.663 -127.241 765.425
vn -0.266987 0.923959 -0.273895
v 277.947 -126.158 764.947
vn 0.537798 0.837315 -0.0983699
v 278.127 -126.266 765.017
vn -0.267308 0.933291 -0.23982
v 277.879 -126.001 765.536
vn 0.984728 0.0675389 0.160467
v 278.013 -126.091 765.644
vn 0.57127 0.585531 -0.575156
v 278.077 -125.982 765.255
vn -0.150267 0.973343 -0.173275
v 277.758 -125.762 767.086
vn -0.818087 0.557208 -0.142309
v 275.107 -131.186 746.759
vn -0.388841 0.898868 -0.202085
v 274.873 -130.612 750.557
vn -0.443289 0.878728 -0.177008
v 275.257 -130.399 750.793
vn -0.363434 0.907429 -0.210925
v 275.936 -129.856 750.876
vn -0.450363 0.857291 -0.249449
v 275.496 -129.897 752.367
vn -0.635929 0.766089 -0.0932828
v 275.754 -130.022 751.053
vn -0.326663 0.908376 -0.261045
v 277.201 -129.149 752.199
vn -0.458681 0.866738 -0.195898
v 276.076 -129.587 752.762
vn -0.325772 -0.909102 0.259627
v 276.702 -130.375 759.726
vn -0.209443 -0.932451 0.294397
v 276.933 -130.244 760.153
vn 0.560483 -0.792951 0.238929
v 277.039 -130.225 759.745
vn 0.598284 -0.74086 0.305257
v 277.317 -130.292 759.313
vn 0.372054 0.89242 -0.25527
v 277.399 -128.329 755.622
vn -0.425375 0.860946 -0.278977
v 276.821 -127.9 756.418
vn 0.727116 -0.656993 0.199154
v 277.282 -129.792 760.435
vn 0.648945 -0.695282 0.308956
v 277.464 -129.833 760.013
vn 0.773492 -0.609099 0.17524
v 277.374 -129.54 761.299
vn 0.801805 -0.558307 0.21308
v 277.587 -129.17 761.162
vn -0.846344 0.50169 -0.178909
v 275.401 -133.059 738.617
vn -0.843837 0.509734 -0.167663
v 275.634 -132.403 739.353
vn -0.30362 0.93976 -0.157054
v 275.977 -132.09 740.425
vn -0.98734 0.120879 -0.102704
v 275.075 -132.886 741.112
vn -0.933004 0.34336 -0.107734
v 274.973 -132.161 743.711
vn -0.985798 -0.167399 0.0134405
v 274.879 -132.471 745.693
vn -0.0539366 0.969367 -0.239622
v 276.214 -131.101 747.146
vn -0.135733 0.968924 -0.206791
v 276.464 -131.062 747.182
vn 0.423868 -0.867691 0.259709
v 276.874 -132.213 752.82
vn 0.255876 0.881185 -0.397542
v 278.374 -129.956 752.201
vn 0.116051 0.938044 -0.326506
v 278.402 -128.61 755.749
vn 0.65542 0.75406 -0.0426279
v 279.414 -128.764 755.466
vn 0.65542 0.75406 -0.0426279
v 279.664 -128.984 755.413
vn 0.0489963 0.966533 -0.25182
v 279.221 -127.73 758.538
vn 0.815586 -0.522759 0.248077
v 279.307 -127.964 758.377
vn -0.821865 0.529119 -0.211116
v 275.885 -133.312 736.1
vn -0.978497 -0.14562 -0.146075
v 275.865 -134.23 736.172
vn -0.946378 -0.317827 -0.0579105
v 275.287 -133.958 740.89
vn -0.814544 -0.57405 0.0835762
v 275.489 -134.365 742.23
vn -0.584703 -0.790087 0.184078
v 276.206 -135.082 741.857
vn 0.332142 0.934383 -0.128878
v 277.436 -132.12 739.96
vn 0.0814822 0.988251 -0.129311
v 276.534 -131.717 741.793
vn 0.486708 0.867557 -0.102276
v 277.88 -132.173 741.771
vn 0.197377 0.97111 -0.13412
v 276.971 -131.707 743.325
vn 0.350711 0.922729 -0.159917
v 277.619 -131.948 742.437
vn 0.135654 0.962476 -0.235028
v 278.048 -131.627 744.324
vn 0.0615913 0.846886 -0.528196
v 279.181 -131.049 750.559
vn 0.605862 -0.698008 0.381727
v 279.997 -130.599 752.015
vn 0.461267 -0.859418 0.220532
v 278.637 -131.237 753.159
vn 0.589051 -0.767275 0.253589
v 279.136 -131.169 752.339
vn 0.98919 -0.0246447 0.144553
v 279.759 -129.434 753.838
vn 0.102692 0.95403 -0.281571
v 279.647 -129.018 754.794
vn 0.0549231 0.940892 -0.334225
v 279.799 -129.103 754.568
vn 0.0911717 0.949708 -0.29957
v 279.856 -129.047 754.781
vn 0.940308 -0.0461802 -0.337176
v 279.929 -129.379 754.304
vn 0.842832 -0.450933 0.293757
v 279.886 -129.364 754.513
vn -0.973672 -0.00342268 -0.227928
v 276.323 -134.462 733.609
vn -0.902342 -0.41718 -0.108347
v 276.542 -135.288 733.436
vn -0.757997 0.517599 -0.396903
v 276.793 -134.448 732.176
vn -0.683004 -0.730414 -0.000998964
v 276.918 -136 735.525
vn 0.63475 -0.742636 0.213503
v 277.383 -135.862 736.965
vn 0.383013 -0.901755 0.200348
v 277.234 -135.838 737.265
vn -0.774652 -0.632346 -0.00726167
v 276.162 -135.391 739.347
vn -0.341295 0.877737 -0.336298
v 277.511 -133.589 732.927
vn 0.839475 -0.525537 0.138179
v 277.555 -135.208 737.907
vn 0.798641 -0.585583 0.138802
v 277.64 -135.143 737.305
vn 0.374634 -0.913933 0.156126
v 277.248 -135.199 739.996
vn 0.676431 -0.733084 0.0709113
v 277.614 -135.048 739.366
vn 0.246343 -0.956363 0.157114
v 276.976 -135.052 741.224
vn 0.267057 0.942211 -0.202287
v 277.61 -133.047 734.686
vn -0.164427 0.960566 -0.224225
v 277.29 -132.736 736.167
vn 0.93318 0.358743 0.0218838
v 277.7 -132.863 736.332
vn 0.95476 0.1313 -0.26682
v 278.524 -133.913 741.808
vn 0.288924 -0.94847 0.130103
v 277.918 -134.544 742.518
vn 0.633715 -0.773545 -0.00578689
v 278.266 -134.482 741.906
vn 0.458854 -0.888219 -0.0228286
v 278.506 -134.34 742.947
vn 0.626977 -0.767066 -0.136053
v 279.016 -133.97 743.208
vn 0.946446 -0.0395414 -0.32043
v 279.118 -133.836 743.436
vn 0.266052 -0.951273 0.155873
v 279.262 -134.016 744.007
vn 0.473755 0.855567 -0.208715
v 278.165 -132.242 742.472
vn 0.398218 0.878533 -0.263821
v 278.455 -131.977 743.628
vn 0.436289 -0.878534 0.194498
v 279.332 -133.563 746.34
vn 0.562866 0.771765 -0.295907
v 279.655 -132.818 747.295
vn 0.926862 -0.308726 0.213575
v 279.592 -132.99 747.465
vn 0.611859 0.740225 -0.278739
v 279.607 -132.592 747.751
vn 0.409903 0.807894 -0.423424
v 279.329 -131.777 749.353
vn 0.483875 -0.808604 0.3347
v 279.514 -131.95 749.516
vn 0.0995604 0.752462 -0.651067
v 279.861 -131.706 749.691
vn 0.5304 -0.790646 0.305867
v 279.625 -131.486 750.421
vn 0.0515225 0.842125 -0.536816
v 279.706 -131.271 750.261
vn 0.0898626 0.81299 -0.575302
v 279.825 -131.417 750.02
vn 0.281835 -0.877178 0.388752
v 279.789 -131.522 750.144
vn -0.0972319 0.742022 -0.663287
v 280.022 -131.393 750.018
vn 0.00896852 -0.925884 0.377702
v 279.969 -131.587 749.981
vn 0.681059 -0.584418 -0.441152
v 280.12 -131.108 750.684
vn 0.0513372 0.851319 -0.52213
v 280.174 -130.919 750.749
vn -0.73608 0.425521 -0.52642
v 277.934 -135.429 729.25
vn -0.334115 0.83082 -0.44509
v 278.483 -134.845 729.481
vn -0.947576 -0.0981487 -0.304084
v 277.066 -135.507 730.924
vn -0.129632 -0.977291 0.167624
v 277.46 -136.413 734.403
vn 0.316191 -0.923819 0.21583
v 277.312 -135.975 736.537
vn 0.807959 -0.552097 0.20589
v 277.514 -135.819 736.357
vn 0.12796 0.945921 -0.298093
v 278.232 -134.06 731.379
vn 0.512054 0.845437 -0.151778
v 278.443 -134.139 731.56
vn 0.89962 0.436636 0.00569142
v 278.285 -134.382 736.294
vn 0.959417 0.187619 -0.210517
v 279.686 -133.542 745.202
vn 0.55804 -0.800405 0.218958
v 279.658 -133.622 745.297
vn -0.819973 -0.0922396 -0.564921
v 278.491 -137.099 727.902
vn -0.607928 -0.793943 0.00887852
v 278.292 -137.416 729.274
vn 0.147677 -0.94081 0.305071
v 278.023 -136.902 732.043
vn 0.465253 0.870859 -0.158569
v 279.347 -135.15 728.661
vn -0.408009 0.682572 -0.60632
v 279.392 -135.658 727.553
vn 0.338112 -0.880017 0.333543
v 279.064 -136.823 731.116
vn 0.808595 0.584039 0.0712231
v 279.553 -135.657 730.4
vn -0.640121 -0.248012 -0.727142
v 280.048 -138.079 726.381
vn 0.0396245 -0.906861 0.419562
v 279.185 -137.534 729.643
vn 0.53122 -0.600501 0.597665
v 279.768 -137.382 729.638
vn 0.0419642 -0.931169 0.362165
v 280.112 -138.063 728.469
vn 0.262251 -0.853765 0.449788
v 280.33 -137.962 728.686
vn 0.371913 -0.665597 0.647041
v 280.321 -137.771 728.924
vn 0.983945 0.107463 -0.142489
v 280.489 -137.564 728.556
vn 0.740907 -0.257126 0.620437
v 280.413 -137.601 728.977
vn 0.982747 0.0982356 0.156711
v 280.502 -137.376 728.798
vn 0.476632 -0.696279 0.536673
v 280.493 -137.831 728.753
vn -0.703872 0.159891 -0.692097
v 279.976 -136.467 726.538
vn -0.124134 0.815303 -0.565572
v 279.753 -135.773 727.308
vn 0.730713 0.677108 -0.0870804
v 280.035 -135.859 728.051
vn 0.981819 0.178794 -0.0637483
v 280.108 -136.381 728.195
vn 0.682773 0.587836 -0.433901
v 280.292 -136.664 726.703
vn 0.848527 -0.0507677 0.526711
v 280.083 -136.615 729.547
vn 0.76512 0.635249 0.105122
v 280.208 -136.282 729.232
vn -0.717968 -0.480925 -0.503223
v 280.514 -138.963 726.438
vn -0.526396 -0.303177 -0.79435
v 280.576 -138.802 726.306
vn 0.951099 0.290795 0.104159
v 280.753 -138.935 726.435
vn -0.613774 -0.0485643 -0.787986
v 280.417 -137.711 726.08
vn 0.985874 0.163968 -0.034175
v 280.422 -138.27 727.6
vn -0.490871 -0.787126 0.373468
v 234.121 -129.423 767.508
vn -0.963136 -0.224578 0.148102
v 234.121 -129.423 767.508
vn -0.419602 0.864593 -0.27643
v 234.159 -129.213 767.504
vn -0.41161 0.883164 -0.22494
v 234.613 -128.299 769.962
vn -0.629709 -0.676649 0.381592
v 234.892 -127.992 771.238
vn -0.829057 0.556177 0.0577271
v 235.004 -127.827 771.267
vn -0.445911 0.889489 -0.0998622
v 235.105 -127.729 771.692
vn -0.810496 -0.455683 0.368034
v 235.185 -127.841 772.075
vn -0.870394 0.457316 0.182419
v 235.265 -127.624 771.912
vn -0.814614 -0.440418 0.377407
v 235.457 -127.297 773.326
vn -0.185734 0.968373 -0.166602
v 235.457 -127.297 773.326
vn -0.84648 0.424235 0.321709
v 235.457 -127.297 773.326
vn -0.889475 0.446366 0.0979378
v 236.137 -126.87 775.299
vn -0.741446 -0.525087 0.417782
v 236.137 -126.87 775.299
vn -0.128009 0.66475 0.736017
v 236.137 -126.87 775.299
vn -0.87372 0.438181 0.211212
v 235.924 -127.062 774.247
vn -0.87372 0.438181 0.211212
v 235.849 -127.213 774.247
vn -0.495257 -0.766277 0.409317
v 235.849 -127.213 774.247
vn -0.128009 0.66475 0.736017
v 236.341 -127.007 775.458
vn 0.131013 -0.933841 0.332831
v 236.341 -127.007 775.458
vn 0.781961 0.0419064 0.621917
v 236.341 -127.007 775.458
vn -0.179811 0.981383 0.0674936
v 236.456 -126.81 775.3
vn 0.781961 0.0419064 0.621917
v 236.456 -126.81 775.3
vn -0.513369 -0.289093 0.808008
v 236.456 -126.81 775.3
vn 0.781961 0.0419064 0.621917
v 236.512 -127.058 775.246
vn -0.857441 -0.487924 0.163481
v 236.753 -126.774 775.501
vn -0.322419 -0.464984 0.824522
v 236.753 -126.774 775.501
vn -0.70734 0.692315 -0.142724
v 236.753 -126.774 775.501
vn -0.70734 0.692315 -0.142724
v 236.807 -126.641 775.875
vn -0.350023 0.932697 0.0869516
v 236.807 -126.641 775.875
vn -0.70734 0.692315 -0.142724
v 236.889 -126.717 775.099
vn -0.431449 -0.841112 0.326164
v 236.893 -126.908 775.834
vn -0.775483 -0.627165 0.0727312
v 237.094 -127.232 775.193
vn -0.947282 -0.28169 -0.152667
v 236.794 -126.732 776.12
vn -0.47639 0.832023 0.284235
v 236.794 -126.732 776.12
vn -0.491745 0.487492 0.721484
v 236.794 -126.732 776.12
vn -0.71147 0.702291 0.0244469
v 238.17 -126.17 773.124
vn 0.563472 0.782278 -0.265594
v 238.17 -126.17 773.124
vn 0.74081 0.582799 -0.333985
v 238.807 -125.683 775.445
vn -0.491745 0.487492 0.721484
v 237.415 -126.458 776.358
vn -0.644451 -0.091483 0.759153
v 237.415 -126.458 776.358
vn -0.618284 0.531903 0.578622
v 237.415 -126.458 776.358
vn -0.640498 0.698364 -0.319452
v 237.415 -126.458 776.358
vn -0.491745 0.487492 0.721484
v 237.868 -126.554 776.731
vn -0.644451 -0.091483 0.759153
v 237.868 -126.554 776.731
vn -0.644451 -0.091483 0.759153
v 238.286 -126.274 777.12
vn -0.618284 0.531903 0.578622
v 238.286 -126.274 777.12
vn 0.112649 -0.0433914 0.992687
v 238.286 -126.274 777.12
vn 0.717447 0.506019 -0.478763
v 238.863 -125.614 775.602
vn 0.986014 0.154761 -0.0618546
v 238.863 -125.614 775.602
vn -0.481711 0.467436 -0.741254
v 238.863 -125.614 775.602
vn 0.769585 -0.210705 -0.602779
v 238.863 -125.614 775.602
vn -0.614693 0.779168 -0.12268
v 239.056 -125.263 775.725
vn 0.769585 -0.210705 -0.602779
v 239.056 -125.263 775.725
vn 0.459773 0.833663 0.305965
v 239.056 -125.263 775.725
vn 0.996022 -0.0881803 -0.0128271
v 239.056 -125.263 775.725
vn 0.112649 -0.0433914 0.992687
v 238.812 -125.629 777.089
vn -0.553004 0.824168 0.122205
v 238.812 -125.629 777.089
vn 0.459773 0.833663 0.305965
v 238.812 -125.629 777.089
vn 0.112649 -0.0433914 0.992687
v 239.031 -125.739 777.059
vn 0.459773 0.833663 0.305965
v 239.031 -125.739 777.059
vn 0.996022 -0.0881803 -0.0128271
v 239.031 -125.739 777.059
vn -0.752202 0.596323 -0.280342
v 233.801 -134.491 757.316
vn -0.716077 0.621664 -0.317439
v 233.796 -133.97 758.237
vn -0.130614 0.887784 -0.441339
v 235.28 -131.397 759.928
vn 0.71259 0.646348 -0.272857
v 238.15 -126.47 771.84
vn 0.809217 0.520891 -0.271735
v 238.71 -127.215 772.079
vn 0.769585 -0.210705 -0.602779
v 238.976 -126.194 775.949
vn 0.996022 -0.0881803 -0.0128271
v 238.976 -126.194 775.949
vn 0.565716 -0.752234 0.337801
v 238.976 -126.194 775.949
vn -0.694282 0.505246 -0.512542
v 233.747 -135.659 755.042
vn -0.9913 0.0624092 -0.115889
v 233.747 -135.659 755.042
vn -0.501872 -0.809236 0.305388
v 233.855 -135.879 754.995
vn -0.9913 0.0624092 -0.115889
v 233.648 -135.118 756.175
vn -0.740088 0.604569 -0.294559
v 233.648 -135.118 756.175
vn -0.992431 0.0913183 0.0821134
v 233.648 -135.118 756.175
vn -0.632791 -0.709225 0.310766
v 233.681 -135.504 755.688
vn -0.9913 0.0624092 -0.115889
v 233.681 -135.504 755.688
vn -0.0238289 0.912443 -0.40851
v 234.929 -134.235 755.17
vn 0.71969 -0.646082 0.254214
v 238.177 -129.935 769.899
vn 0.521949 -0.754603 0.397674
v 238.177 -129.935 769.899
vn 0.686774 -0.666221 0.290672
v 238.666 -129.968 768.67
vn -0.85391 0.178468 -0.488864
v 234.925 -136.835 753.121
vn 0.0121784 -0.905664 0.423821
v 236.936 -133.506 762.305
vn 0.493717 -0.793153 0.356585
v 238.382 -131.941 763.998
vn -0.93183 -0.111325 -0.345397
v 235.633 -138.059 751.23
vn 0.189435 0.964231 -0.185401
v 236.277 -137.132 745.883
vn -0.970969 -0.00937469 0.239021
v 235.818 -137.013 747.76
vn 0.170754 0.965354 -0.197319
v 236.188 -136.632 748.369
vn -0.944492 -0.0156024 0.328163
v 236.188 -136.632 748.369
vn -0.871895 0.475786 0.115875
v 236.188 -136.632 748.369
vn -0.331122 0.898333 -0.288713
v 236.595 -136.729 748.402
vn 0.243626 0.937065 -0.250111
v 236.514 -136.36 749.704
vn -0.406185 0.873976 -0.266794
v 236.514 -136.36 749.704
vn 0.555666 0.792638 -0.250918
v 237.247 -135.15 752.371
vn 0.974479 0.189354 -0.120566
v 237.761 -134.104 755.624
vn 0.530014 0.779385 -0.334133
v 237.761 -134.104 755.624
vn -0.919029 0.20803 -0.334828
v 235.25 -141.823 743.139
vn -0.994746 -0.102366 0.00161162
v 235.25 -141.823 743.139
vn 0.358951 0.466931 -0.808164
v 236.094 -139.906 741.491
vn 0.0233269 0.208396 -0.977766
v 236.094 -139.906 741.491
vn 0.750237 0.0890274 -0.655148
v 236.094 -139.906 741.491
vn 0.237876 -0.839517 0.488493
v 236.33 -140.09 745.585
vn 0.44079 -0.86079 0.254451
v 236.731 -139.584 746.672
vn 0.404403 0.864707 -0.297891
v 236.556 -137.62 744.755
vn -0.227577 -0.930108 0.288286
v 236.369 -139.184 747.509
vn 0.635475 -0.764264 0.109874
v 237.013 -139.291 747.669
vn 0.431595 -0.890171 0.14602
v 236.779 -138.865 751.028
vn 0.239477 0.947036 -0.213949
v 237.215 -137.004 745.672
vn -0.53406 0.827949 -0.171115
v 236.786 -137.174 746.469
vn 0.496239 0.821766 -0.280083
v 236.786 -137.174 746.469
vn 0.382852 0.879096 -0.283927
v 237.396 -136.816 746.316
vn 0.511957 0.830379 -0.219933
v 237.528 -136.721 746.943
vn 0.437259 0.870952 -0.224158
v 237.528 -136.721 746.943
vn 0.854574 0.511597 -0.0892818
v 237.528 -136.721 746.943
vn 0.975102 -0.221339 0.0136437
v 237.651 -138.585 749.83
vn 0.384646 0.900339 -0.203562
v 237.498 -136.073 749.319
vn -0.559913 0.810642 -0.171336
v 248.072 -123.383 770.689
vn -0.798836 -0.318064 0.510585
v 248.097 -123.51 771.071
vn -0.210605 -0.872425 0.441044
v 248.548 -123.287 771.917
vn -0.851596 -0.235024 0.468559
v 248.878 -122.601 772.859
vn -0.603003 0.79527 -0.0627181
v 248.878 -122.601 772.859
vn -0.857916 0.428864 0.282942
v 248.878 -122.601 772.859
vn -0.857916 0.428864 0.282942
v 249.197 -122.446 773.594
vn -0.656561 0.0611188 0.751793
v 249.197 -122.446 773.594
vn 0.0354559 -0.850981 0.523999
v 249.197 -122.446 773.594
vn -0.857916 0.428864 0.282942
v 249.409 -122.128 773.753
vn -0.654455 0.134875 0.743974
v 249.409 -122.128 773.753
vn -0.957523 0.270551 0.099758
v 235.257 -142.499 740.554
vn -0.0955421 0.0768631 -0.992453
v 235.233 -142.713 740.54
vn -0.238505 -0.971128 0.00502146
v 235.233 -142.713 740.54
vn 0.598166 -0.724134 -0.343261
v 235.233 -142.713 740.54
vn 0.73874 -0.482159 -0.470941
v 235.381 -142.561 740.537
vn -0.0643152 -0.987873 0.141318
v 235.36 -142.739 741.57
vn -0.662937 -0.674054 0.325832
v 235.36 -142.739 741.57
vn 0.547142 -0.824524 -0.144206
v 235.529 -142.782 741.316
vn 0.849088 -0.124703 -0.513321
v 235.912 -142.016 741.036
vn -0.944742 0.241427 -0.221755
v 235.295 -142.364 742.213
vn 0.0672689 -0.929174 0.36347
v 235.465 -142.641 741.986
vn 0.572207 -0.819992 0.013844
v 235.664 -142.698 741.725
vn -0.95073 0.300931 -0.0745174
v 235.808 -141.523 741.139
vn 0.216213 0.324992 -0.92067
v 235.808 -141.523 741.139
vn -0.599118 0.753799 -0.269899
v 248.051 -125.02 764.667
vn -0.90761 0.407635 -0.100387
v 248.051 -125.02 764.667
vn -0.947974 -0.306644 0.0855281
v 247.891 -124.858 765.5
vn -0.617228 0.749618 -0.23896
v 247.891 -124.858 765.5
vn -0.093669 0.942802 -0.319923
v 250.031 -122.515 768.347
vn 0.214846 -0.566737 0.795393
v 249.638 -122.113 773.952
vn 0.520807 0.797343 -0.304966
v 250.366 -120.896 773.151
vn -0.180718 0.937351 -0.297849
v 250.366 -120.896 773.151
vn 0.402008 0.859563 0.315501
v 250.366 -120.896 773.151
vn 0.0337667 -0.196736 0.979875
v 249.866 -121.68 774.031
vn -0.433025 0.645991 0.628637
v 249.866 -121.68 774.031
vn -0.260614 0.923283 -0.282187
v 250.175 -120.885 773.363
vn 0.402008 0.859563 0.315501
v 250.175 -120.885 773.363
vn 0.596251 0.364544 0.715257
v 250.227 -121.178 773.711
vn -0.0790735 0.574715 0.814525
v 250.13 -121.642 774.029
vn 0.686357 -0.560126 0.463867
v 250.13 -121.642 774.029
vn 0.596251 0.364544 0.715257
v 250.13 -121.642 774.029
vn 0.953636 -0.120445 0.275812
v 250.13 -121.642 774.029
vn 0.402008 0.859563 0.315501
v 250.351 -121.029 773.533
vn 0.00947415 0.765427 0.643453
v 250.351 -121.029 773.533
vn 0.596251 0.364544 0.715257
v 250.351 -121.029 773.533
vn -0.617532 0.608438 -0.498454
v 247.551 -128.032 757.527
vn -0.989141 -0.142738 0.0350237
v 247.523 -127.808 757.777
vn -0.488399 0.732986 -0.473495
v 247.523 -127.808 757.777
vn -0.907676 0.409508 -0.0917998
v 247.674 -127.103 759.613
vn -0.940061 -0.285237 0.186884
v 247.674 -127.103 759.613
vn -0.527263 0.796425 -0.296144
v 247.764 -126.914 759.572
vn -0.200953 -0.82794 0.523578
v 248.603 -126.148 764.605
vn 0.803214 -0.449441 0.39096
v 251.244 -124.502 768.926
vn -0.00116573 0.955877 -0.293766
v 249.731 -126.797 757.017
vn -0.108392 0.98551 -0.130469
v 249.895 -126.825 756.668
vn 0.466988 0.776236 -0.423533
v 249.895 -126.825 756.668
vn 0.130774 0.913874 -0.384361
v 249.737 -125.62 759.365
vn -0.360514 0.924465 -0.124071
v 249.737 -125.62 759.365
vn 0.154625 0.953028 -0.260438
v 249.84 -125.526 759.773
vn 0.597507 0.779444 -0.188287
v 249.84 -125.526 759.773
vn -0.506798 0.682548 -0.526578
v 247.666 -131.089 752.623
vn -0.929824 0.0628617 -0.362595
v 247.666 -131.089 752.623
vn 0.401983 0.817553 -0.412331
v 250.003 -128.447 753.481
vn 0.213811 0.86372 -0.456369
v 249.805 -127.588 755.497
vn -0.555216 -0.776639 0.297601
v 248.579 -133.455 749.871
vn -0.754891 -0.526058 -0.391667
v 248.579 -133.455 749.871
vn -0.536516 0.504935 -0.676159
v 248.779 -133.371 749.372
vn -0.726663 -0.387966 -0.56696
v 248.779 -133.371 749.372
vn 0.533406 0.802362 -0.267756
v 252.552 -127.886 758.609
vn -0.408666 -0.86417 0.293601
v 249.59 -134.165 748.877
vn -0.814575 -0.532489 -0.23005
v 249.59 -134.165 748.877
vn -0.767133 0.293337 -0.570491
v 250.82 -132.617 748.329
vn 0.723897 0.679789 -0.11773
v 252.814 -130.85 751.52
vn 0.729781 0.674333 -0.112672
v 252.188 -130.054 752.267
vn -0.068904 -0.922694 0.379325
v 252.148 -131.216 757.952
vn 0.96036 -0.214472 0.178077
v 253.129 -129.47 756.842
vn -0.947207 -0.0708812 -0.312691
v 251.708 -134.36 745.091
vn -0.836321 -0.519664 -0.174692
v 250.687 -135.126 747.218
vn -0.317756 -0.897644 0.305395
v 250.851 -135.436 747.354
vn -0.912499 -0.0172499 -0.408716
v 251.327 -135.943 746.084
vn -0.266248 -0.920541 0.28586
v 251.327 -135.943 746.084
vn -0.840174 -0.512945 -0.176052
v 251.327 -135.943 746.084
vn -0.592057 0.653672 -0.471361
v 251.173 -133.764 746.862
vn 0.871279 0.48818 -0.050532
v 253.573 -132.024 748.15
vn 0.446811 0.89195 -0.0691666
v 253.573 -132.024 748.15
vn 0.601416 0.793861 -0.0899119
v 253.276 -131.84 748.605
vn 0.644788 0.757843 -0.0996116
v 253.332 -131.837 749.012
vn 0.07426 0.933213 -0.351567
v 253.332 -131.837 749.012
vn 0.860481 0.494797 -0.121443
v 253.157 -130.987 751.229
vn 0.558294 0.650151 -0.515375
v 253.157 -130.987 751.229
vn 0.992568 0.120641 0.0159448
v 253.513 -131.747 750.656
vn 0.558294 0.650151 -0.515375
v 253.513 -131.747 750.656
vn 0.533173 0.801787 -0.269935
v 253.178 -130.625 751.71
vn 0.919598 0.385057 -0.077915
v 253.178 -130.625 751.71
vn 0.558294 0.650151 -0.515375
v 253.178 -130.625 751.71
vn -0.521244 -0.851712 0.0537643
v 252.02 -136.642 743.806
vn -0.913043 -0.377533 -0.15434
v 251.67 -136.179 745.135
vn -0.308389 -0.925416 0.220229
v 251.713 -136.311 745.312
vn -0.993761 0.0346927 -0.106
v 252.49 -135.209 741.22
vn 0.128657 -0.898881 0.418879
v 252.799 -136.012 747.232
vn 0.693297 -0.661934 0.284924
v 252.799 -136.012 747.232
vn 0.445223 0.856313 -0.261733
v 253.795 -133.81 743.089
vn 0.912542 -0.323301 0.250487
v 253.104 -134.485 750.529
vn 0.649851 -0.710831 0.269098
v 253.104 -134.485 750.529
vn 0.439923 0.861546 -0.253387
v 253.636 -132.765 746.366
vn 0.780453 0.601964 -0.168918
v 253.636 -132.765 746.366
vn -0.778343 0.530248 -0.336182
v 252.506 -136.116 737.363
vn 0.222509 0.908322 -0.354177
v 252.792 -135.982 737.06
vn -0.636901 0.473493 -0.608409
v 252.994 -136.659 736.421
vn -0.566981 0.545928 -0.616843
v 253.267 -136.604 736.219
vn 0.101615 0.961883 -0.253882
v 252.698 -135.509 738.499
vn -0.165945 -0.955905 0.242299
v 253.283 -137.557 741.537
vn 0.787306 -0.568766 0.238022
v 253.38 -137.047 743.701
vn -0.139839 0.936558 -0.32141
v 253.92 -134.92 739.8
vn 0.94433 0.3251 -0.0505024
v 254.023 -133.872 743.272
vn 0.614401 -0.359654 -0.702254
v 252.589 -140.754 734.941
vn 0.787415 0.4045 -0.465142
v 252.589 -140.754 734.941
vn -0.960612 -0.093041 0.261855
v 252.536 -140.774 735.202
vn -0.0649124 -0.890574 0.450183
v 252.7 -140.743 735.815
vn -0.94323 -0.203231 0.262707
v 252.506 -140.944 734.965
vn 0.614401 -0.359654 -0.702254
v 252.506 -140.944 734.965
vn 0.246094 -0.969234 0.00474498
v 252.506 -140.944 734.965
vn -0.25018 -0.927995 0.276106
v 252.506 -140.944 734.965
vn 0.787415 0.4045 -0.465142
v 252.69 -140.629 735.219
vn 0.0924663 0.273869 -0.957312
v 252.69 -140.629 735.219
vn 0.787415 0.4045 -0.465142
v 252.787 -140.872 735.174
vn 0.13844 0.236428 -0.961736
v 252.787 -140.872 735.174
vn 0.246094 -0.969234 0.00474498
v 252.787 -140.872 735.174
vn 0.703838 -0.70592 -0.0793018
v 252.787 -140.872 735.174
vn 0.842774 -0.319337 -0.433307
v 252.787 -140.872 735.174
vn -0.0842418 -0.920432 0.381717
v 252.852 -140.853 735.584
vn 0.680935 -0.73204 -0.0210931
v 252.852 -140.853 735.584
vn -0.879038 0.419778 -0.226008
v 252.86 -140.012 736.365
vn -0.539385 -0.66277 0.519423
v 252.86 -140.012 736.365
vn -0.879408 0.285818 -0.380723
v 253.155 -139.784 735.518
vn 0.65618 -0.723419 0.21469
v 253.283 -140.445 736.263
vn 0.846004 -0.238644 -0.476787
v 253.332 -139.873 735.498
vn 0.543743 -0.703643 0.457417
v 253.609 -139.459 737.674
vn -0.793746 -0.244417 0.556981
v 253.609 -139.459 737.674
vn -0.362317 -0.766201 0.530719
v 253.609 -139.459 737.674
vn -0.540234 0.629806 -0.558114
v 253.307 -137.224 735.48
vn 0.540177 0.658539 -0.523961
v 253.307 -137.224 735.48
vn 0.634047 0.146339 -0.759322
v 253.307 -137.224 735.48
vn -0.376061 -0.0935588 -0.921859
v 253.307 -137.224 735.48
vn 0.841047 0.00458556 -0.540942
v 253.524 -138.14 735.485
vn -0.578203 0.0308688 -0.815309
v 253.524 -138.14 735.485
vn -0.0406017 -0.925968 0.375412
v 253.333 -137.949 740.028
vn -0.433398 -0.816786 0.380824
v 253.333 -137.949 740.028
vn 0.716874 -0.624502 0.309981
v 253.608 -138.056 739.793
vn 0.263391 -0.819169 0.509497
v 253.53 -138.592 738.872
vn -0.98256 -0.174851 -0.0632675
v 273.634 -125.748 771.374
vn -0.540554 0.805007 -0.244468
v 273.617 -125.55 772.844
vn -0.849333 0.479897 0.219848
v 273.617 -125.55 772.844
vn -0.0872213 0.993979 -0.0663145
v 273.617 -125.55 772.844
vn -0.628742 0.770162 -0.107399
v 273.603 -125.692 772.407
vn -0.74899 -0.656461 0.0898501
v 273.603 -125.692 772.407
vn 0.0684549 0.994974 -0.0730861
v 273.786 -125.563 772.427
vn 0.054031 0.994588 -0.0887462
v 273.719 -125.624 771.703
vn -0.401677 0.915723 -0.0103474
v 273.719 -125.524 773.662
vn -0.930941 0.0647473 -0.359384
v 273.794 -125.67 774.242
vn -0.628928 -0.752976 0.193588
v 273.794 -125.67 774.242
vn -0.958024 0.279279 0.064758
v 273.692 -125.703 773.466
vn -0.634492 -0.768703 0.0807199
v 273.692 -125.703 773.466
vn 0.153675 0.985283 -0.0748463
v 273.779 -125.501 773.363
vn -0.401677 0.915723 -0.0103474
v 273.779 -125.501 773.363
vn -0.759712 -0.587076 0.279607
v 273.713 -125.444 774.495
vn -0.0480393 0.991508 0.120849
v 273.713 -125.444 774.495
vn -0.785284 0.264765 0.559669
v 273.713 -125.444 774.495
vn -0.848629 0.47657 0.229584
v 273.872 -125.452 774.079
vn -0.401677 0.915723 -0.0103474
v 273.872 -125.452 774.079
vn 0.176114 0.98339 -0.0439158
v 273.872 -125.452 774.079
vn -0.785284 0.264765 0.559669
v 274.171 -125.678 775.248
vn -0.28922 -0.871089 0.396934
v 274.493 -125.596 775.662
vn -0.108741 0.932657 0.343986
v 274.493 -125.596 775.662
vn 0.3273 -0.817264 0.474294
v 274.493 -125.596 775.662
vn 0.661578 -0.400576 0.633919
v 274.493 -125.596 775.662
vn 0.661578 -0.400576 0.633919
v 274.719 -125.542 775.461
vn -0.0466444 0.998855 -0.0105915
v 274.719 -125.542 775.461
vn 0.855787 0.14034 0.497928
v 274.719 -125.542 775.461
vn -0.17804 0.971445 -0.156832
v 275.142 -126.417 765.677
vn -0.311145 0.922555 -0.228212
v 274.118 -126.071 767.987
vn 0.296265 0.860258 0.41495
v 276.215 -125.512 771.417
vn 0.611512 0.764373 -0.204419
v 276.215 -125.512 771.417
vn 0.904531 -0.242076 0.351031
v 275.91 -125.625 772.914
vn 0.342279 0.937228 0.0666965
v 275.91 -125.625 772.914
vn 0.719819 0.561908 0.407578
v 276.318 -125.451 771.954
vn 0.946655 -0.0541952 0.31766
v 276.318 -125.451 771.954
vn 0.611512 0.764373 -0.204419
v 276.318 -125.451 771.954
vn 0.198916 0.978933 0.0460646
v 275.448 -125.548 774.21
vn 0.719819 0.561908 0.407578
v 275.569 -125.535 773.392
vn 0.661578 -0.400576 0.633919
v 275.026 -125.769 774.996
vn 0.876141 0.0391002 0.480466
v 275.026 -125.769 774.996
vn 0.52259 0.839208 0.150431
v 277.117 -125.604 768.426
vn 0.764816 0.539504 -0.352126
v 277.117 -125.604 768.426
vn 0.981665 0.0538802 0.182843
v 277.233 -125.489 768.853
vn 0.764816 0.539504 -0.352126
v 277.233 -125.489 768.853
vn 0.220772 0.975213 0.0147941
v 277.233 -125.489 768.853
vn 0.850395 -0.456975 0.260774
v 277.295 -125.745 768.596
vn 0.981665 0.0538802 0.182843
v 277.295 -125.745 768.596
vn 0.764816 0.539504 -0.352126
v 277.295 -125.745 768.596
vn -0.201948 0.978394 -0.044303
v 276.433 -125.451 771.134
vn 0.981665 0.0538802 0.182843
v 277 -125.455 770.093
vn 0.15278 0.987852 0.0284145
v 277 -125.455 770.093
vn 0.661357 0.659335 0.357609
v 277 -125.455 770.093
vn 0.909859 -0.330302 0.251113
v 276.397 -125.628 771.528
vn 0.611512 0.764373 -0.204419
v 276.397 -125.628 771.528
vn -0.821749 -0.553833 0.134152
v 275.057 -130.646 755.238
vn 0.239546 0.94518 -0.22193
v 276.796 -127.275 758.917
vn 0.537798 0.837315 -0.0983699
v 277.947 -126.158 764.947
vn 0.57127 0.585531 -0.575156
v 277.947 -126.158 764.947
vn 0.968978 -0.134774 0.207166
v 278.127 -126.266 765.017
vn 0.57127 0.585531 -0.575156
v 278.127 -126.266 765.017
vn 0.953929 0.283945 0.0969262
v 278.127 -126.266 765.017
vn 0.487345 0.86515 0.11836
v 277.879 -126.001 765.536
vn 0.487345 0.86515 0.11836
v 278.013 -126.091 765.644
vn 0.984869 0.032681 0.170194
v 278.077 -125.982 765.255
vn -0.475653 0.835156 -0.276169
v 278.077 -125.982 765.255
vn 0.34977 0.885354 0.306283
v 278.077 -125.982 765.255
vn 0.52259 0.839208 0.150431
v 277.758 -125.762 767.086
vn 0.920395 -0.292173 0.259821
v 277.758 -125.762 767.086
vn 0.598287 0.797666 -0.0760309
v 277.758 -125.762 767.086
vn 0.00927684 0.970848 -0.239518
v 275.107 -131.186 746.759
vn -0.562203 0.816873 -0.129017
v 275.107 -131.186 746.759
vn -0.974382 0.216805 -0.0598019
v 274.873 -130.612 750.557
vn 0.571725 0.780745 -0.252128
v 277.201 -129.149 752.199
vn 0.357202 0.901274 -0.245177
v 277.201 -129.149 752.199
vn 0.356363 -0.905622 0.229903
v 276.702 -130.375 759.726
vn 0.482571 -0.849859 0.211816
v 276.933 -130.244 760.153
vn 0.356061 0.905753 -0.229853
v 276.821 -127.9 756.418
vn -0.984453 -0.10697 -0.139318
v 275.401 -133.059 738.617
vn -0.245493 0.95191 -0.183305
v 275.634 -132.403 739.353
vn -0.434787 -0.868973 0.236318
v 276.874 -132.213 752.82
vn 0.270766 -0.916721 0.293782
v 276.874 -132.213 752.82
vn 0.808803 -0.362425 0.463126
v 276.874 -132.213 752.82
vn 0.048489 0.94018 -0.337209
v 279.414 -128.764 755.466
vn 0.867133 -0.377661 0.324735
v 279.664 -128.984 755.413
vn 0.93693 0.349437 -0.00749946
v 279.664 -128.984 755.413
vn 0.537798 0.837315 -0.0983699
v 279.221 -127.73 758.538
vn 0.947264 0.317306 0.0448002
v 279.221 -127.73 758.538
vn 0.619594 0.754833 -0.215245
v 279.221 -127.73 758.538
vn 0.947264 0.317306 0.0448002
v 279.307 -127.964 758.377
vn -0.42169 0.856761 -0.296879
v 275.885 -133.312 736.1
vn -0.969284 0.103659 -0.223033
v 275.885 -133.312 736.1
vn 0.119663 -0.974793 0.188309
v 276.206 -135.082 741.857
vn 0.916945 0.386295 -0.0999372
v 277.436 -132.12 739.96
vn 0.903994 0.329228 -0.27277
v 277.88 -132.173 741.771
vn 0.98919 -0.0246447 0.144553
v 279.997 -130.599 752.015
vn 0.681424 -0.60301 0.414777
v 279.136 -131.169 752.339
vn 0.940308 -0.0461802 -0.337176
v 279.136 -131.169 752.339
vn 0.0632423 0.916951 -0.393955
v 279.759 -129.434 753.838
vn 0.940308 -0.0461802 -0.337176
v 279.759 -129.434 753.838
vn 0.693876 0.641023 -0.328063
v 279.759 -129.434 753.838
vn 0.602379 -0.634572 0.484208
v 279.759 -129.434 753.838
vn 0.693876 0.641023 -0.328063
v 279.799 -129.103 754.568
vn 0.940424 0.330663 -0.0791561
v 279.799 -129.103 754.568
vn 0.670875 0.729851 0.131314
v 279.856 -129.047 754.781
vn 0.938916 -0.166531 0.301171
v 279.856 -129.047 754.781
vn 0.872864 0.361003 -0.328306
v 279.856 -129.047 754.781
vn 0.693876 0.641023 -0.328063
v 279.929 -129.379 754.304
vn 0.790515 -0.576591 0.20647
v 279.929 -129.379 754.304
vn 0.944448 0.277982 0.175341
v 279.929 -129.379 754.304
vn 0.940424 0.330663 -0.0791561
v 279.886 -129.364 754.513
vn -0.0803362 -0.982574 0.167613
v 276.162 -135.391 739.347
vn 0.589129 0.798904 -0.121158
v 277.7 -132.863 736.332
vn 0.911256 -0.26136 -0.318282
v 279.016 -133.97 743.208
vn 0.648278 -0.722051 -0.241615
v 279.262 -134.016 744.007
vn 0.933196 -0.266879 -0.240667
v 279.262 -134.016 744.007
vn 0.894972 0.317199 -0.313704
v 278.165 -132.242 742.472
vn 0.877033 0.417191 -0.238252
v 278.455 -131.977 743.628
vn 0.901358 -0.408081 0.144993
v 279.655 -132.818 747.295
vn 0.970249 -0.224147 0.0915196
v 279.655 -132.818 747.295
vn 0.417374 -0.844954 0.334442
v 279.592 -132.99 747.465
vn 0.903878 -0.271094 0.330928
v 279.607 -132.592 747.751
vn 0.483726 -0.813983 0.321622
v 279.607 -132.592 747.751
vn 0.54509 -0.187653 -0.817106
v 279.329 -131.777 749.353
vn 0.75259 0.630513 -0.189898
v 279.514 -131.95 749.516
vn 0.54509 -0.187653 -0.817106
v 279.514 -131.95 749.516
vn 0.54509 -0.187653 -0.817106
v 279.861 -131.706 749.691
vn 0.199349 -0.896398 0.395892
v 279.861 -131.706 749.691
vn 0.94158 -0.208186 -0.264738
v 279.861 -131.706 749.691
vn 0.861647 0.0503434 0.505004
v 279.625 -131.486 750.421
vn 0.681059 -0.584418 -0.441152
v 279.625 -131.486 750.421
vn 0.892537 0.0899929 0.441905
v 279.706 -131.271 750.261
vn 0.681059 -0.584418 -0.441152
v 279.706 -131.271 750.261
vn 0.706924 0.0386224 -0.706234
v 279.706 -131.271 750.261
vn 0.917617 0.129057 0.375929
v 279.825 -131.417 750.02
vn -0.08808 0.772039 0.629443
v 279.825 -131.417 750.02
vn 0.892537 0.0899929 0.441905
v 279.789 -131.522 750.144
vn -0.08808 0.772039 0.629443
v 279.789 -131.522 750.144
vn 0.578075 -0.303707 0.757358
v 279.789 -131.522 750.144
vn -0.08808 0.772039 0.629443
v 280.022 -131.393 750.018
vn 0.94158 -0.208186 -0.264738
v 280.022 -131.393 750.018
vn 0.578075 -0.303707 0.757358
v 280.022 -131.393 750.018
vn 0.94158 -0.208186 -0.264738
v 279.969 -131.587 749.981
vn 0.578075 -0.303707 0.757358
v 279.969 -131.587 749.981
vn 0.706924 0.0386224 -0.706234
v 280.12 -131.108 750.684
vn 0.799231 -0.385885 0.460784
v 280.12 -131.108 750.684
vn 0.493807 -0.828896 0.262843
v 280.12 -131.108 750.684
vn 0.718824 -0.583977 0.377178
v 280.174 -130.919 750.749
vn 0.98919 -0.0246447 0.144553
v 280.174 -130.919 750.749
vn 0.706924 0.0386224 -0.706234
v 280.174 -130.919 750.749
vn 0.86715 0.494777 0.0569715
v 278.443 -134.139 731.56
vn 0.894649 -0.424845 0.138243
v 278.285 -134.382 736.294
vn 0.938449 -0.344841 -0.0199583
v 279.658 -133.622 745.297
vn 0.75736 0.652309 0.0299748
v 279.347 -135.15 728.661
vn -0.0379251 0.912336 -0.407681
v 279.347 -135.15 728.661
vn 0.851066 -0.354903 0.386951
v 279.064 -136.823 731.116
vn 0.904637 -0.0559017 0.422501
v 279.553 -135.657 730.4
vn 0.908206 -0.196025 0.369778
v 280.112 -138.063 728.469
vn 0.994475 -0.0331358 0.0996104
v 280.493 -137.831 728.753
vn 0.629335 0.564686 -0.533917
v 279.976 -136.467 726.538
vn -0.248817 0.682595 -0.687135
v 279.976 -136.467 726.538
vn 0.681983 0.681539 -0.265337
v 279.753 -135.773 727.308
vn 0.990756 0.135453 -0.00748659
v 280.035 -135.859 728.051
vn 0.989057 0.106305 0.102302
v 280.292 -136.664 726.703
vn 0.894198 0.0812427 0.440238
v 280.208 -136.282 729.232
vn 0.971903 0.206062 -0.113763
v 280.208 -136.282 729.232
vn -0.0708438 -0.921651 0.381497
v 280.514 -138.963 726.438
vn 0.0666486 -0.646997 -0.759574
v 280.514 -138.963 726.438
vn 0.0666486 -0.646997 -0.759574
v 280.576 -138.802 726.306
vn 0.540254 -0.0944848 -0.83618
v 280.576 -138.802 726.306
vn 0.0321337 -0.910076 0.413193
v 280.753 -138.935 726.435
vn 0.0666486 -0.646997 -0.759574
v 280.753 -138.935 726.435
vn 0.540254 -0.0944848 -0.83618
v 280.753 -138.935 726.435
vn 0.908206 -0.196025 0.369778
v 280.753 -138.935 726.435
vn 0.617381 0.455197 -0.641589
v 280.417 -137.711 726.08
vn 0.982319 0.164098 0.090116
v 280.417 -137.711 726.08
vn 0.540254 -0.0944848 -0.83618
v 280.417 -137.711 726.08
vn 0.353442 -0.891691 0.282782
v 280.422 -138.27 727.6
vn 0.908206 -0.196025 0.369778
v 280.422 -138.27 727.6
f 1//1 3//3 2//2
f 1//1 5//5 3//3
f 3//3 5//5 4//4
f 4//4 2//2 3//3
f 19//19 546//546 6//6
f 548//548 4//4 5//5
f 5//5 7//7 548//548
f 19//19 6//6 9//9
f 9//9 6//6 549//549
f 7//7 5//5 8//8
f 7//7 8//8 551//551
f 11//11 550//550 547//547
f 8//8 10//10 551//551
f 550//550 11//11 552//552
f 11//11 14//14 552//552
f 9//9 553//553 23//23
f 553//553 13//13 23//23
f 559//559 558//558 554//554
f 23//23 13//13 12//12
f 555//555 558//558 559//559
f 15//15 556//556 560//560
f 556//556 15//15 16//16
f 561//561 17//17 557//557
f 15//15 48//48 20//20
f 15//15 20//20 562//562
f 23//23 12//12 564//564
f 567//567 565//565 563//563
f 45//45 18//18 543//543
f 543//543 18//18 547//547
f 18//18 45//45 547//547
f 11//11 547//547 45//45
f 19//19 545//545 546//546
f 19//19 9//9 23//23
f 47//47 11//11 45//45
f 47//47 560//560 11//11
f 15//15 560//560 47//47
f 48//48 15//15 47//47
f 29//29 49//49 19//19
f 65//65 26//26 48//48
f 23//23 564//564 21//21
f 568//568 24//24 22//22
f 574//574 28//28 27//27
f 24//24 576//576 22//22
f 20//20 48//48 25//25
f 20//20 569//569 566//566
f 20//20 25//25 569//569
f 570//570 571//571 573//573
f 23//23 572//572 33//33
f 572//572 577//577 33//33
f 24//24 568//568 575//575
f 25//25 28//28 574//574
f 26//26 28//28 25//25
f 48//48 26//26 25//25
f 27//27 28//28 34//34
f 28//28 26//26 34//34
f 33//33 19//19 23//23
f 19//19 30//30 579//579
f 52//52 608//608 580//580
f 33//33 30//30 19//19
f 32//32 579//579 30//30
f 37//37 32//32 30//30
f 30//30 33//33 37//37
f 52//52 31//31 53//53
f 581//581 31//31 52//52
f 52//52 580//580 581//581
f 581//581 591//591 31//31
f 31//31 592//592 53//53
f 582//582 578//578 586//586
f 34//34 26//26 35//35
f 588//588 583//583 587//587
f 39//39 584//584 589//589
f 26//26 40//40 35//35
f 593//593 585//585 36//36
f 38//38 593//593 36//36
f 36//36 585//585 595//595
f 594//594 596//596 610//610
f 602//602 599//599 590//590
f 600//600 595//595 585//585
f 601//601 603//603 597//597
f 598//598 604//604 611//611
f 42//42 41//41 43//43
f 606//606 44//44 605//605
f 41//41 544//544 43//43
f 544//544 41//41 60//60
f 44//44 606//606 1//1
f 543//543 72//72 45//45
f 62//62 607//607 46//46
f 44//44 1//1 2//2
f 607//607 545//545 19//19
f 607//607 19//19 46//46
f 46//46 19//19 49//49
f 65//65 47//47 45//45
f 65//65 48//48 47//47
f 51//51 66//66 50//50
f 51//51 53//53 622//622
f 52//52 609//609 608//608
f 52//52 51//51 50//50
f 51//51 52//52 53//53
f 26//26 623//623 612//612
f 26//26 612//612 40//40
f 55//55 59//59 54//54
f 55//55 54//54 92//92
f 68//68 92//92 54//54
f 93//93 619//619 615//615
f 60//60 619//619 93//93
f 92//92 93//93 615//615
f 625//625 613//613 56//56
f 56//56 613//613 61//61
f 61//61 57//57 56//56
f 70//70 56//56 57//57
f 619//619 60//60 58//58
f 614//614 620//620 616//616
f 617//617 61//61 613//613
f 617//617 44//44 61//61
f 60//60 41//41 58//58
f 617//617 605//605 44//44
f 41//41 42//42 618//618
f 60//60 93//93 543//543
f 63//63 62//62 46//46
f 64//64 63//63 46//46
f 626//626 65//65 45//45
f 46//46 608//608 64//64
f 608//608 609//609 64//64
f 75//75 64//64 66//66
f 627//627 624//624 622//622
f 66//66 64//64 50//50
f 51//51 622//622 624//624
f 78//78 625//625 67//67
f 91//91 78//78 67//67
f 67//67 69//69 91//91
f 69//69 67//67 625//625
f 80//80 92//92 68//68
f 70//70 95//95 69//69
f 69//69 625//625 56//56
f 61//61 70//70 57//57
f 70//70 69//69 56//56
f 621//621 100//100 70//70
f 104//104 100//100 621//621
f 104//104 621//621 607//607
f 543//543 93//93 72//72
f 638//638 63//63 73//73
f 71//71 74//74 75//75
f 72//72 71//71 627//627
f 607//607 62//62 104//104
f 63//63 104//104 62//62
f 72//72 627//627 622//622
f 73//73 63//63 64//64
f 74//74 73//73 64//64
f 64//64 75//75 74//74
f 76//76 116//116 117//117
f 81//81 118//118 76//76
f 76//76 83//83 81//81
f 121//121 137//137 77//77
f 630//630 121//121 77//77
f 117//117 121//121 76//76
f 121//121 630//630 76//76
f 77//77 143//143 79//79
f 77//77 79//79 86//86
f 79//79 91//91 86//86
f 143//143 142//142 78//78
f 79//79 143//143 78//78
f 79//79 78//78 91//91
f 78//78 628//628 625//625
f 78//78 142//142 628//628
f 80//80 142//142 92//92
f 144//144 92//92 142//142
f 84//84 81//81 83//83
f 82//82 629//629 631//631
f 82//82 631//631 85//85
f 153//153 152//152 629//629
f 153//153 629//629 82//82
f 153//153 82//82 85//85
f 652//652 634//634 87//87
f 630//630 77//77 86//86
f 86//86 632//632 630//630
f 86//86 89//89 632//632
f 634//634 164//164 87//87
f 95//95 88//88 69//69
f 90//90 89//89 88//88
f 95//95 90//90 88//88
f 89//89 91//91 88//88
f 89//89 90//90 633//633
f 635//635 85//85 631//631
f 636//636 96//96 634//634
f 89//89 86//86 91//91
f 91//91 69//69 88//88
f 144//144 93//93 92//92
f 162//162 93//93 163//163
f 161//161 162//162 163//163
f 94//94 164//164 634//634
f 94//94 634//634 96//96
f 98//98 94//94 96//96
f 94//94 98//98 164//164
f 95//95 70//70 96//96
f 96//96 70//70 100//100
f 636//636 95//95 96//96
f 98//98 96//96 97//97
f 97//97 96//96 100//100
f 659//659 98//98 165//165
f 98//98 97//97 165//165
f 165//165 97//97 99//99
f 99//99 97//97 637//637
f 162//162 101//101 102//102
f 162//162 102//102 103//103
f 93//93 162//162 103//103
f 99//99 637//637 639//639
f 101//101 99//99 638//638
f 101//101 638//638 74//74
f 103//103 102//102 71//71
f 102//102 74//74 71//71
f 101//101 74//74 102//102
f 71//71 72//72 103//103
f 93//93 103//103 72//72
f 638//638 73//73 74//74
f 108//108 105//105 110//110
f 181//181 105//105 180//180
f 640//640 106//106 680//680
f 105//105 181//181 110//110
f 186//186 111//111 114//114
f 116//116 109//109 117//117
f 109//109 641//641 108//108
f 640//640 109//109 106//106
f 106//106 109//109 116//116
f 111//111 106//106 116//116
f 181//181 191//191 110//110
f 109//109 107//107 117//117
f 108//108 107//107 109//109
f 108//108 110//110 123//123
f 645//645 110//110 191//191
f 112//112 111//111 116//116
f 112//112 116//116 118//118
f 112//112 118//118 119//119
f 112//112 119//119 113//113
f 114//114 111//111 112//112
f 115//115 642//642 112//112
f 115//115 112//112 113//113
f 133//133 115//115 113//113
f 76//76 118//118 116//116
f 118//118 126//126 119//119
f 107//107 108//108 120//120
f 107//107 120//120 117//117
f 120//120 121//121 117//117
f 108//108 123//123 120//120
f 120//120 122//122 121//121
f 122//122 137//137 121//121
f 140//140 137//137 122//122
f 122//122 120//120 123//123
f 123//123 124//124 122//122
f 191//191 195//195 645//645
f 646//646 645//645 195//195
f 195//195 194//194 138//138
f 646//646 195//195 138//138
f 128//128 126//126 125//125
f 125//125 126//126 118//118
f 127//127 119//119 126//126
f 128//128 127//127 126//126
f 129//129 128//128 125//125
f 146//146 129//129 125//125
f 149//149 129//129 146//146
f 130//130 113//113 119//119
f 127//127 130//130 119//119
f 128//128 130//130 127//127
f 131//131 130//130 128//128
f 131//131 128//128 129//129
f 129//129 132//132 131//131
f 149//149 132//132 129//129
f 133//133 113//113 130//130
f 133//133 130//130 131//131
f 134//134 133//133 131//131
f 134//134 131//131 132//132
f 134//134 132//132 136//136
f 133//133 134//134 196//196
f 134//134 136//136 197//197
f 194//194 197//197 136//136
f 135//135 118//118 81//81
f 125//125 118//118 135//135
f 125//125 135//135 154//154
f 145//145 125//125 154//154
f 150//150 132//132 149//149
f 136//136 151//151 194//194
f 151//151 136//136 132//132
f 141//141 648//648 122//122
f 124//124 141//141 122//122
f 649//649 646//646 138//138
f 194//194 649//649 138//138
f 194//194 139//139 649//649
f 649//649 139//139 160//160
f 137//137 140//140 143//143
f 143//143 77//77 137//137
f 141//141 143//143 648//648
f 143//143 141//141 144//144
f 649//649 160//160 650//650
f 144//144 142//142 143//143
f 647//647 629//629 152//152
f 652//652 154//154 135//135
f 146//146 154//154 147//147
f 125//125 145//145 146//146
f 145//145 154//154 146//146
f 148//148 146//146 651//651
f 150//150 149//149 146//146
f 148//148 150//150 146//146
f 150//150 148//148 151//151
f 132//132 150//150 151//151
f 151//151 159//159 194//194
f 647//647 152//152 653//653
f 155//155 87//87 164//164
f 147//147 154//154 155//155
f 155//155 154//154 652//652
f 147//147 155//155 156//156
f 87//87 155//155 652//652
f 157//157 155//155 164//164
f 156//156 155//155 157//157
f 165//165 655//655 659//659
f 654//654 148//148 651//651
f 148//148 654//654 158//158
f 656//656 158//158 654//654
f 159//159 158//158 657//657
f 158//158 151//151 148//148
f 159//159 151//151 158//158
f 165//165 159//159 657//657
f 99//99 159//159 165//165
f 101//101 159//159 99//99
f 139//139 159//159 658//658
f 658//658 159//159 101//101
f 93//93 144//144 163//163
f 650//650 161//161 163//163
f 650//650 160//160 161//161
f 161//161 658//658 101//101
f 101//101 162//162 161//161
f 167//167 169//169 166//166
f 168//168 663//663 661//661
f 168//168 170//170 663//663
f 171//171 660//660 664//664
f 665//665 666//666 669//669
f 205//205 670//670 667//667
f 205//205 208//208 670//670
f 173//173 174//174 176//176
f 175//175 672//672 172//172
f 174//174 173//173 671//671
f 173//173 683//683 671//671
f 173//173 176//176 683//683
f 684//684 175//175 172//172
f 673//673 177//177 676//676
f 177//177 184//184 676//676
f 175//175 684//684 178//178
f 179//179 674//674 675//675
f 678//678 674//674 179//179
f 179//179 682//682 678//678
f 179//179 675//675 679//679
f 176//176 680//680 683//683
f 677//677 182//182 180//180
f 683//683 680//680 106//106
f 182//182 181//181 180//180
f 681//681 183//183 181//181
f 191//191 181//181 183//183
f 184//184 681//681 676//676
f 184//184 185//185 681//681
f 185//185 183//183 681//681
f 183//183 193//193 191//191
f 179//179 185//185 682//682
f 185//185 193//193 183//183
f 179//179 188//188 185//185
f 193//193 185//185 188//188
f 111//111 683//683 106//106
f 684//684 643//643 178//178
f 644//644 189//189 679//679
f 679//679 189//189 187//187
f 179//179 187//187 188//188
f 679//679 187//187 179//179
f 188//188 194//194 193//193
f 188//188 187//187 190//190
f 188//188 190//190 194//194
f 115//115 189//189 644//644
f 189//189 115//115 133//133
f 133//133 196//196 189//189
f 189//189 196//196 190//190
f 196//196 197//197 190//190
f 187//187 189//189 190//190
f 192//192 191//191 193//193
f 194//194 192//192 193//193
f 192//192 194//194 195//195
f 192//192 195//195 191//191
f 197//197 196//196 134//134
f 190//190 197//197 194//194
f 194//194 159//159 139//139
f 199//199 201//201 198//198
f 217//217 199//199 198//198
f 219//219 199//199 217//217
f 200//200 687//687 199//199
f 688//688 202//202 685//685
f 200//200 199//199 219//219
f 200//200 167//167 687//687
f 166//166 687//687 167//167
f 660//660 226//226 202//202
f 660//660 202//202 688//688
f 226//226 685//685 202//202
f 167//167 200//200 265//265
f 226//226 660//660 203//203
f 252//252 207//207 220//220
f 204//204 691//691 729//729
f 203//203 660//660 171//171
f 668//668 206//206 690//690
f 206//206 211//211 690//690
f 668//668 230//230 206//206
f 206//206 230//230 211//211
f 211//211 230//230 713//713
f 203//203 171//171 209//209
f 203//203 696//696 692//692
f 689//689 203//203 692//692
f 207//207 213//213 220//220
f 211//211 212//212 690//690
f 690//690 212//212 694//694
f 695//695 209//209 171//171
f 695//695 210//210 209//209
f 695//695 699//699 210//210
f 697//697 703//703 693//693
f 704//704 209//209 210//210
f 700//700 211//211 713//713
f 705//705 698//698 701//701
f 213//213 702//702 220//220
f 221//221 214//214 231//231
f 706//706 216//216 721//721
f 218//218 215//215 709//709
f 214//214 221//221 707//707
f 708//708 216//216 706//706
f 216//216 708//708 226//226
f 711//711 226//226 708//708
f 232//232 216//216 226//226
f 250//250 219//219 217//217
f 228//228 226//226 203//203
f 226//226 711//711 685//685
f 218//218 709//709 686//686
f 219//219 265//265 200//200
f 167//167 265//265 662//662
f 228//228 203//203 689//689
f 668//668 662//662 265//265
f 668//668 265//265 230//230
f 216//216 232//232 721//721
f 221//221 250//250 217//217
f 233//233 232//232 223//223
f 221//221 710//710 707//707
f 223//223 222//222 224//224
f 715//715 714//714 225//225
f 223//223 239//239 233//233
f 224//224 239//239 223//223
f 716//716 240//240 724//724
f 223//223 232//232 226//226
f 227//227 222//222 223//223
f 717//717 225//225 714//714
f 229//229 225//225 717//717
f 229//229 241//241 225//225
f 241//241 229//229 729//729
f 223//223 226//226 227//227
f 718//718 226//226 228//228
f 717//717 719//719 229//229
f 729//729 229//229 720//720
f 729//729 720//720 204//204
f 220//220 267//267 252//252
f 713//713 266//266 736//736
f 265//265 266//266 230//230
f 230//230 266//266 713//713
f 242//242 722//722 243//243
f 727//727 721//721 245//245
f 235//235 246//246 245//245
f 233//233 235//235 245//245
f 721//721 232//232 245//245
f 231//231 725//725 221//221
f 246//246 235//235 247//247
f 232//232 233//233 245//245
f 236//236 235//235 234//234
f 234//234 235//235 233//233
f 235//235 236//236 237//237
f 238//238 234//234 233//233
f 238//238 236//236 234//234
f 236//236 238//238 237//237
f 239//239 238//238 233//233
f 237//237 238//238 239//239
f 240//240 723//723 724//724
f 241//241 723//723 240//240
f 250//250 735//735 712//712
f 241//241 240//240 716//716
f 225//225 241//241 716//716
f 241//241 729//729 251//251
f 253//253 728//728 254//254
f 253//253 726//726 728//728
f 730//730 274//274 725//725
f 244//244 254//254 727//727
f 244//244 727//727 245//245
f 255//255 244//244 256//256
f 244//244 245//245 246//246
f 247//247 244//244 246//246
f 257//257 244//244 247//247
f 256//256 244//244 257//257
f 725//725 250//250 221//221
f 725//725 274//274 250//250
f 257//257 247//247 235//235
f 257//257 235//235 248//248
f 723//723 248//248 235//235
f 248//248 241//241 251//251
f 248//248 249//249 257//257
f 251//251 249//249 248//248
f 262//262 735//735 250//250
f 248//248 723//723 241//241
f 254//254 269//269 253//253
f 270//270 731//731 738//738
f 730//730 739//739 274//274
f 732//732 269//269 244//244
f 254//254 244//244 269//269
f 273//273 269//269 732//732
f 255//255 256//256 257//257
f 250//250 274//274 260//260
f 262//262 250//250 260//260
f 258//258 249//249 279//279
f 257//257 249//249 258//258
f 279//279 249//249 263//263
f 261//261 260//260 284//284
f 262//262 260//260 261//261
f 262//262 261//261 735//735
f 265//265 261//261 266//266
f 261//261 284//284 266//266
f 249//249 251//251 263//263
f 263//263 251//251 264//264
f 283//283 264//264 251//251
f 251//251 729//729 753//753
f 264//264 259//259 263//263
f 282//282 754//754 267//267
f 284//284 751//751 736//736
f 252//252 267//267 754//754
f 284//284 736//736 266//266
f 295//295 289//289 268//268
f 268//268 743//743 295//295
f 291//291 737//737 759//759
f 270//270 738//738 272//272
f 271//271 740//740 269//269
f 271//271 269//269 273//273
f 739//739 741//741 292//292
f 739//739 292//292 274//274
f 277//277 743//743 255//255
f 295//295 743//743 277//277
f 275//275 276//276 274//274
f 276//276 260//260 274//274
f 275//275 760//760 276//276
f 296//296 276//276 760//760
f 276//276 296//296 260//260
f 255//255 279//279 277//277
f 278//278 277//277 279//279
f 280//280 299//299 744//744
f 284//284 300//300 751//751
f 284//284 260//260 763//763
f 300//300 284//284 763//763
f 257//257 258//258 255//255
f 279//279 255//255 258//258
f 747//747 746//746 734//734
f 746//746 747//747 745//745
f 751//751 300//300 280//280
f 747//747 734//734 733//733
f 281//281 748//748 259//259
f 264//264 283//283 259//259
f 259//259 283//283 281//281
f 751//751 280//280 749//749
f 752//752 750//750 755//755
f 289//289 290//290 306//306
f 285//285 287//287 291//291
f 286//286 288//288 757//757
f 757//757 285//285 286//286
f 759//759 285//285 291//291
f 308//308 286//286 285//285
f 285//285 759//759 308//308
f 287//287 740//740 271//271
f 757//757 288//288 742//742
f 287//287 271//271 291//291
f 758//758 292//292 741//741
f 758//758 311//311 292//292
f 295//295 290//290 289//289
f 295//295 293//293 290//290
f 271//271 737//737 291//291
f 273//273 737//737 271//271
f 315//315 293//293 277//277
f 277//277 293//293 295//295
f 774//774 277//277 294//294
f 294//294 277//277 298//298
f 762//762 765//765 319//319
f 297//297 775//775 766//766
f 775//775 297//297 320//320
f 318//318 320//320 297//297
f 274//274 760//760 275//275
f 764//764 761//761 318//318
f 298//298 277//277 278//278
f 766//766 744//744 297//297
f 297//297 299//299 318//318
f 299//299 297//297 744//744
f 299//299 280//280 300//300
f 300//300 318//318 299//299
f 318//318 300//300 763//763
f 334//334 301//301 304//304
f 302//302 301//301 308//308
f 302//302 304//304 301//301
f 769//769 767//767 303//303
f 305//305 768//768 307//307
f 303//303 770//770 769//769
f 771//771 290//290 307//307
f 767//767 306//306 303//303
f 768//768 771//771 307//307
f 307//307 290//290 312//312
f 312//312 305//305 307//307
f 314//314 313//313 350//350
f 306//306 767//767 289//289
f 302//302 308//308 759//759
f 756//756 308//308 309//309
f 344//344 309//309 308//308
f 309//309 352//352 310//310
f 318//318 352//352 351//351
f 773//773 352//352 318//318
f 345//345 772//772 807//807
f 352//352 309//309 809//809
f 756//756 309//309 758//758
f 309//309 311//311 758//758
f 310//310 311//311 309//309
f 292//292 311//311 310//310
f 305//305 312//312 315//315
f 314//314 305//305 315//315
f 314//314 315//315 316//316
f 313//313 314//314 316//316
f 313//313 316//316 317//317
f 313//313 317//317 350//350
f 350//350 317//317 343//343
f 315//315 312//312 290//290
f 317//317 316//316 775//775
f 775//775 320//320 317//317
f 320//320 318//318 351//351
f 761//761 773//773 318//318
f 319//319 316//316 315//315
f 315//315 290//290 293//293
f 762//762 319//319 315//315
f 324//324 322//322 321//321
f 325//325 321//321 322//322
f 778//778 780//780 323//323
f 323//323 328//328 778//778
f 322//322 793//793 325//325
f 326//326 781//781 776//776
f 786//786 777//777 784//784
f 787//787 785//785 331//331
f 788//788 327//327 782//782
f 791//791 779//779 783//783
f 791//791 330//330 779//779
f 353//353 792//792 789//789
f 353//353 796//796 792//792
f 331//331 329//329 338//338
f 330//330 335//335 779//779
f 331//331 785//785 329//329
f 325//325 793//793 795//795
f 797//797 805//805 332//332
f 342//342 332//332 805//805
f 790//790 797//797 353//353
f 798//798 796//796 336//336
f 797//797 332//332 353//353
f 353//353 336//336 796//796
f 332//332 342//342 333//333
f 334//334 340//340 793//793
f 795//795 793//793 340//340
f 794//794 347//347 334//334
f 328//328 323//323 799//799
f 347//347 794//794 800//800
f 348//348 798//798 336//336
f 353//353 333//333 336//336
f 304//304 337//337 334//334
f 769//769 770//770 801//801
f 339//339 802//802 305//305
f 339//339 805//805 803//803
f 804//804 806//806 340//340
f 337//337 340//340 334//334
f 805//805 339//339 341//341
f 341//341 339//339 349//349
f 349//349 342//342 341//341
f 806//806 795//795 340//340
f 805//805 341//341 342//342
f 308//308 301//301 334//334
f 308//308 346//346 344//344
f 346//346 308//308 334//334
f 348//348 810//810 798//798
f 348//348 336//336 343//343
f 342//342 343//343 333//333
f 336//336 333//333 343//343
f 346//346 347//347 808//808
f 810//810 345//345 807//807
f 334//334 347//347 346//346
f 345//345 810//810 348//348
f 348//348 351//351 809//809
f 343//343 351//351 348//348
f 339//339 305//305 314//314
f 339//339 314//314 349//349
f 349//349 350//350 342//342
f 349//349 314//314 350//350
f 350//350 343//343 342//342
f 343//343 320//320 351//351
f 809//809 351//351 352//352
f 320//320 343//343 317//317
f 333//333 353//353 332//332
f 354//354 358//358 372//372
f 355//355 356//356 361//361
f 815//815 812//812 357//357
f 813//813 822//822 362//362
f 358//358 815//815 357//357
f 824//824 817//817 814//814
f 358//358 354//354 815//815
f 373//373 823//823 816//816
f 372//372 818//818 817//817
f 817//817 824//824 372//372
f 369//369 372//372 824//824
f 822//822 359//359 362//362
f 359//359 822//822 360//360
f 820//820 363//363 364//364
f 365//365 826//826 821//821
f 823//823 373//373 821//821
f 359//359 360//360 829//829
f 373//373 365//365 821//821
f 825//825 819//819 830//830
f 373//373 368//368 365//365
f 824//824 831//831 369//369
f 831//831 827//827 369//369
f 828//828 832//832 367//367
f 833//833 365//365 368//368
f 827//827 834//834 366//366
f 384//384 835//835 368//368
f 827//827 366//366 369//369
f 851//851 837//837 836//836
f 834//834 369//369 366//366
f 384//384 368//368 375//375
f 389//389 385//385 371//371
f 371//371 385//385 811//811
f 388//388 811//811 385//385
f 390//390 816//816 388//388
f 370//370 841//841 372//372
f 811//811 388//388 816//816
f 841//841 354//354 372//372
f 372//372 369//369 370//370
f 376//376 840//840 838//838
f 373//373 816//816 390//390
f 373//373 375//375 368//368
f 374//374 375//375 373//373
f 374//374 380//380 377//377
f 374//374 401//401 380//380
f 381//381 375//375 374//374
f 374//374 377//377 381//381
f 842//842 397//397 395//395
f 383//383 379//379 376//376
f 846//846 850//850 378//378
f 844//844 377//377 380//380
f 847//847 844//844 380//380
f 401//401 865//865 380//380
f 848//848 866//866 843//843
f 380//380 865//865 847//847
f 383//383 376//376 838//838
f 381//381 384//384 375//375
f 839//839 852//852 382//382
f 852//852 381//381 382//382
f 383//383 838//838 849//849
f 844//844 381//381 377//377
f 845//845 383//383 849//849
f 382//382 381//381 844//844
f 386//386 398//398 387//387
f 387//387 388//388 385//385
f 387//387 385//385 386//386
f 387//387 867//867 399//399
f 387//387 399//399 388//388
f 389//389 386//386 385//385
f 399//399 390//390 388//388
f 373//373 390//390 399//399
f 418//418 373//373 399//399
f 389//389 370//370 386//386
f 841//841 370//370 389//389
f 392//392 840//840 391//391
f 374//374 373//373 401//401
f 392//392 408//408 840//840
f 853//853 394//394 879//879
f 861//861 391//391 840//840
f 392//392 391//391 393//393
f 401//401 858//858 396//396
f 859//859 855//855 862//862
f 856//856 860//860 854//854
f 391//391 863//863 857//857
f 840//840 376//376 861//861
f 395//395 397//397 864//864
f 401//401 396//396 865//865
f 391//391 861//861 863//863
f 410//410 386//386 413//413
f 398//398 386//386 432//432
f 399//399 398//398 417//417
f 413//413 386//386 370//370
f 422//422 413//413 370//370
f 417//417 418//418 399//399
f 422//422 370//370 400//400
f 868//868 840//840 440//440
f 401//401 888//888 425//425
f 401//401 373//373 888//888
f 440//440 840//840 403//403
f 898//898 869//869 404//404
f 403//403 840//840 405//405
f 880//880 402//402 871//871
f 406//406 880//880 871//871
f 872//872 870//870 407//407
f 871//871 876//876 406//406
f 880//880 401//401 402//402
f 401//401 880//880 858//858
f 840//840 408//408 405//405
f 403//403 405//405 877//877
f 878//878 874//874 875//875
f 874//874 881//881 875//875
f 409//409 428//428 431//431
f 431//431 884//884 409//409
f 884//884 431//431 432//432
f 433//433 882//882 412//412
f 883//883 410//410 411//411
f 414//414 883//883 411//411
f 412//412 883//883 414//414
f 414//414 416//416 412//412
f 884//884 432//432 386//386
f 411//411 410//410 413//413
f 411//411 413//413 416//416
f 416//416 414//414 411//411
f 412//412 416//416 415//415
f 422//422 416//416 413//413
f 419//419 888//888 887//887
f 888//888 419//419 425//425
f 887//887 420//420 419//419
f 415//415 416//416 422//422
f 421//421 885//885 889//889
f 436//436 885//885 421//421
f 889//889 868//868 421//421
f 437//437 421//421 868//868
f 423//423 426//426 425//425
f 423//423 425//425 419//419
f 424//424 423//423 419//419
f 424//424 426//426 423//423
f 419//419 420//420 424//424
f 420//420 441//441 424//424
f 424//424 441//441 426//426
f 899//899 873//873 901//901
f 426//426 402//402 425//425
f 441//441 871//871 402//402
f 402//402 426//426 441//441
f 401//401 425//425 402//402
f 427//427 430//430 428//428
f 442//442 427//427 428//428
f 444//444 432//432 430//430
f 445//445 398//398 432//432
f 444//444 445//445 432//432
f 434//434 448//448 429//429
f 477//477 891//891 429//429
f 431//431 430//430 432//432
f 428//428 430//430 431//431
f 429//429 891//891 434//434
f 450//450 448//448 434//434
f 433//433 891//891 882//882
f 891//891 433//433 434//434
f 433//433 412//412 434//434
f 415//415 434//434 412//412
f 420//420 435//435 455//455
f 892//892 417//417 398//398
f 435//435 420//420 887//887
f 436//436 421//421 437//437
f 438//438 900//900 439//439
f 895//895 437//437 440//440
f 460//460 437//437 895//895
f 916//916 438//438 439//439
f 458//458 437//437 460//460
f 437//437 868//868 440//440
f 441//441 420//420 896//896
f 897//897 899//899 901//901
f 464//464 444//444 443//443
f 464//464 469//469 444//444
f 445//445 444//444 469//469
f 469//469 446//446 445//445
f 477//477 902//902 891//891
f 443//443 444//444 890//890
f 890//890 903//903 443//443
f 430//430 890//890 444//444
f 446//446 398//398 445//445
f 477//477 429//429 448//448
f 447//447 477//477 448//448
f 451//451 447//447 448//448
f 451//451 448//448 450//450
f 451//451 449//449 447//447
f 452//452 450//450 434//434
f 451//451 450//450 452//452
f 451//451 486//486 449//449
f 487//487 486//486 451//451
f 487//487 451//451 452//452
f 446//446 892//892 398//398
f 452//452 434//434 415//415
f 452//452 886//886 487//487
f 512//512 929//929 885//885
f 436//436 492//492 885//885
f 492//492 436//436 453//453
f 493//493 495//495 456//456
f 455//455 435//435 456//456
f 492//492 453//453 497//497
f 453//453 496//496 497//497
f 453//453 436//436 502//502
f 908//908 959//959 454//454
f 502//502 496//496 453//453
f 420//420 455//455 456//456
f 907//907 960//960 457//457
f 910//910 436//436 437//437
f 910//910 437//437 459//459
f 909//909 911//911 461//461
f 919//919 912//912 914//914
f 454//454 913//913 908//908
f 502//502 436//436 910//910
f 437//437 458//458 459//459
f 459//459 458//458 460//460
f 917//917 896//896 462//462
f 462//462 896//896 420//420
f 420//420 456//456 462//462
f 920//920 462//462 456//456
f 922//922 921//921 915//915
f 918//918 922//922 915//915
f 463//463 903//903 465//465
f 505//505 464//464 463//463
f 465//465 505//505 463//463
f 470//470 465//465 902//902
f 466//466 464//464 515//515
f 443//443 903//903 463//463
f 464//464 443//443 463//463
f 466//466 506//506 469//469
f 464//464 466//466 469//469
f 507//507 923//923 506//506
f 468//468 904//904 923//923
f 507//507 468//468 923//923
f 468//468 507//507 467//467
f 471//471 468//468 467//467
f 468//468 473//473 904//904
f 470//470 902//902 477//477
f 509//509 470//470 476//476
f 476//476 470//470 477//477
f 510//510 509//509 476//476
f 478//478 511//511 962//962
f 471//471 472//472 474//474
f 481//481 473//473 474//474
f 473//473 468//468 474//474
f 474//474 472//472 481//481
f 468//468 471//471 474//474
f 475//475 904//904 473//473
f 480//480 475//475 473//473
f 481//481 480//480 473//473
f 475//475 488//488 904//904
f 475//475 480//480 488//488
f 510//510 476//476 924//924
f 477//477 447//447 476//476
f 476//476 447//447 924//924
f 478//478 905//905 511//511
f 479//479 905//905 906//906
f 963//963 479//479 481//481
f 905//905 479//479 511//511
f 481//481 482//482 480//480
f 483//483 482//482 481//481
f 485//485 480//480 482//482
f 479//479 925//925 481//481
f 483//483 926//926 482//482
f 925//925 479//479 484//484
f 925//925 484//484 927//927
f 480//480 485//485 488//488
f 512//512 927//927 484//484
f 929//929 512//512 479//479
f 479//479 512//512 484//484
f 928//928 479//479 906//906
f 479//479 928//928 929//929
f 485//485 513//513 488//488
f 488//488 893//893 904//904
f 885//885 489//489 512//512
f 490//490 488//488 930//930
f 488//488 513//513 930//930
f 931//931 964//964 512//512
f 932//932 893//893 488//488
f 489//489 885//885 491//491
f 490//490 930//930 933//933
f 894//894 490//490 933//933
f 456//456 435//435 493//493
f 492//492 497//497 494//494
f 495//495 493//493 498//498
f 885//885 492//492 491//491
f 492//492 936//936 491//491
f 938//938 937//937 935//935
f 939//939 498//498 493//493
f 435//435 934//934 493//493
f 939//939 500//500 498//498
f 946//946 943//943 948//948
f 948//948 943//943 941//941
f 944//944 501//501 942//942
f 497//497 499//499 494//494
f 951//951 947//947 949//949
f 961//961 956//956 945//945
f 952//952 954//954 940//940
f 950//950 955//955 953//953
f 957//957 959//959 908//908
f 958//958 456//456 495//495
f 466//466 515//515 506//506
f 515//515 522//522 516//516
f 505//505 465//465 503//503
f 470//470 504//504 465//465
f 465//465 504//504 503//503
f 515//515 464//464 505//505
f 515//515 516//516 506//506
f 516//516 519//519 506//506
f 508//508 507//507 967//967
f 467//467 507//507 508//508
f 967//967 472//472 508//508
f 507//507 506//506 519//519
f 471//471 508//508 472//472
f 508//508 471//471 467//467
f 504//504 470//470 509//509
f 510//510 517//517 509//509
f 962//962 520//520 965//965
f 511//511 520//520 962//962
f 967//967 963//963 472//472
f 481//481 472//472 963//963
f 964//964 927//927 512//512
f 541//541 514//514 531//531
f 514//514 505//505 503//503
f 514//514 515//515 505//505
f 514//514 538//538 515//515
f 978//978 522//522 515//515
f 523//523 519//519 516//516
f 518//518 514//514 503//503
f 518//518 503//503 504//504
f 966//966 518//518 504//504
f 532//532 518//518 966//966
f 533//533 973//973 965//965
f 531//531 514//514 518//518
f 504//504 509//509 966//966
f 520//520 537//537 965//965
f 536//536 976//976 968//968
f 967//967 536//536 968//968
f 968//968 963//963 967//967
f 986//986 971//971 535//535
f 539//539 521//521 541//541
f 538//538 521//521 539//539
f 521//521 538//538 514//514
f 521//521 514//514 541//541
f 987//987 534//534 542//542
f 542//542 534//534 527//527
f 987//987 542//542 540//540
f 522//522 524//524 525//525
f 522//522 526//526 523//523
f 522//522 525//525 526//526
f 523//523 526//526 528//528
f 525//525 530//530 526//526
f 527//527 970//970 542//542
f 526//526 530//530 528//528
f 527//527 529//529 970//970
f 528//528 970//970 529//529
f 525//525 524//524 989//989
f 530//530 525//525 989//989
f 522//522 523//523 516//516
f 971//971 973//973 535//535
f 535//535 973//973 533//533
f 972//972 518//518 532//532
f 975//975 974//974 534//534
f 987//987 975//975 534//534
f 534//534 529//529 527//527
f 534//534 974//974 977//977
f 537//537 533//533 965//965
f 523//523 536//536 967//967
f 529//529 976//976 536//536
f 529//529 534//534 977//977
f 536//536 528//528 529//529
f 528//528 536//536 523//523
f 982//982 522//522 978//978
f 979//979 980//980 983//983
f 984//984 981//981 988//988
f 982//982 524//524 522//522
f 985//985 990//990 969//969
