# Wavafront OBJ file of BodyParts3D
# BodyParts3D, Copyright(C) 2010-2011 The Database Center for Life Science licensed under CC Attribution-Share Alike 2.1 Japan.
vn -0.46976 -0.711215 -0.52297
v 0.56565 -177.282 1440.04
vn -0.765825 -0.512243 0.388741
v 0.56565 -177.062 1440.79
vn -0.603598 -0.517594 -0.606437
v 0.062079 -176.939 1440.04
vn -0.505675 -0.460293 -0.729673
v 0.212809 -176.939 1439.89
vn -0.615794 -0.224969 -0.755107
v 0.11565 -176.789 1439.93
vn -0.427761 -0.34505 -0.835441
v 0.26565 -176.789 1439.83
vn -0.236712 -0.488887 -0.839617
v 0.56565 -176.789 1439.63
vn -0.448584 -0.70241 -0.552623
v 0.71565 -177.239 1439.87
vn -0.562635 -0.825139 0.0508642
v 1.16565 -177.617 1441.24
vn 0.229627 -0.888671 -0.396906
v 1.31565 -177.167 1440.49
vn -0.749476 -0.541617 0.380706
v 1.01565 -177.239 1441.52
vn -0.452461 0.884859 0.110916
v 1.31565 -176.987 1441.39
vn 0.713948 -0.490747 -0.499445
v 1.61565 -177.636 1441.54
vn 0.193332 -0.502946 -0.842418
v 0.71565 -176.756 1439.59
vn -0.550792 0.0434097 -0.833513
v 0.71565 -176.639 1439.54
vn -0.456558 0.815314 -0.356115
v 0.71565 -176.588 1439.74
vn 0.564642 -0.530582 -0.632188
v 0.94065 -176.939 1439.89
vn 0.200539 -0.616933 -0.761037
v 0.86565 -176.681 1439.59
vn 0.0117784 0.879416 0.475909
v 0.86565 -176.711 1439.89
vn 0.223699 0.665262 0.712309
v 0.961276 -176.639 1439.74
vn -0.493178 0.844805 -0.207556
v 1.01565 -176.45 1439.59
vn 0.193819 -0.856305 -0.478723
v 1.16565 -176.939 1440.02
vn -0.373885 0.836769 -0.400034
v 1.16565 -176.766 1440.04
vn -0.581949 -0.686622 -0.435758
v 1.19244 -176.639 1439.74
vn 0.0631487 -0.349234 -0.934905
v 1.16565 -176.489 1439.51
vn -0.143004 0.762354 -0.631162
v 1.16565 -176.422 1439.59
vn -0.214391 -0.817176 -0.535033
v 1.31565 -176.775 1439.74
vn 0.0562484 -0.550788 -0.832748
v 1.31565 -176.639 1439.58
vn -0.491273 -0.444482 0.749057
v 1.31565 -176.639 1439.82
vn -0.516837 0.252712 0.817934
v 1.31565 -176.489 1439.77
vn -0.538997 0.266605 0.799002
v 1.46565 -176.543 1439.89
vn -0.12401 -0.933465 -0.336547
v 1.61565 -176.724 1439.59
vn -0.151854 -0.708681 -0.688994
v 1.61565 -176.477 1439.14
vn -0.409426 0.0349191 -0.911675
v 1.61565 -176.148 1439.14
vn -0.285621 0.0515042 -0.956958
v 1.76565 -176.339 1439.09
vn 0.874965 0.288497 -0.388852
v 1.01565 -176.762 1440.19
vn -0.612366 -0.529922 0.586677
v 1.81839 -176.789 1443.49
vn -0.70566 0.704525 0.0754223
v 1.89779 -176.639 1443.49
vn -0.0375175 -0.954157 -0.296945
v 2.36565 -176.959 1439.74
vn -0.142287 -0.988277 -0.0553402
v 2.66565 -177.001 1440.49
vn 0.043446 -0.99284 -0.111274
v 2.66565 -177.043 1440.79
vn 0.517049 -0.822059 -0.238493
v 2.69964 -177.239 1442.29
vn 0.117003 -0.993129 -0.00242996
v 1.92247 -177.689 1442.59
vn 0.36494 -0.930877 -0.0169305
v 2.06565 -177.662 1442.59
vn 0.412551 -0.907929 0.0739363
v 2.06565 -177.641 1442.74
vn -0.69965 -0.197309 -0.686702
v 2.66565 -175.889 1438.51
vn -0.494004 -0.665066 -0.560042
v 2.96565 -176.263 1438.69
vn -0.158244 -0.883575 -0.440743
v 1.91565 -176.736 1439.44
vn -0.290065 -0.954514 -0.0690377
v 2.06565 -176.832 1439.74
vn -0.359471 0.890236 0.27975
v 2.06565 -175.951 1439.14
vn -0.69965 -0.197309 -0.686702
v 2.21565 -176.039 1439.02
vn 0.0938318 -0.693502 -0.714319
v 2.66565 -176.489 1439.23
vn -0.545048 0.828978 -0.125375
v 2.66565 -176.155 1443.64
vn -0.889677 0.359955 0.280904
v 2.06565 -176.478 1443.79
vn -0.855887 -0.0370862 0.515831
v 2.1301 -176.489 1443.94
vn -0.637712 -0.476706 0.605041
v 2.21565 -176.639 1443.99
vn 0.210507 0.0669381 -0.975298
v 2.96565 -175.589 1438.51
vn -0.69325 0.463586 -0.551808
v 2.96565 -175.374 1438.69
vn -0.840513 -0.182499 0.510129
v 3.06526 -175.439 1445.89
vn 0.324905 -0.936884 -0.129174
v 3.11565 -177.02 1440.79
vn 0.350133 -0.0980435 -0.931555
v 3.27672 -176.039 1438.54
vn 0.545055 -0.320148 -0.774868
v 3.56565 -175.889 1438.78
vn -0.391142 0.877596 0.277187
v 3.11565 -175.777 1439.74
vn 0.396882 -0.842753 -0.363663
v 3.26565 -176.427 1439.29
vn 0.522249 -0.664741 -0.534205
v 4.01565 -176.002 1439.29
vn 0.558383 -0.795105 -0.236679
v 3.99573 -176.489 1441.09
vn -0.603377 0.797294 -0.0160759
v 3.1801 -175.889 1442.74
vn 0.305252 -0.951187 0.0454447
v 3.71565 -176.856 1442.74
vn -0.658077 -0.462204 -0.594392
v 3.15985 -175.439 1438.39
vn 0.476597 0.182395 -0.859993
v 3.26565 -175.739 1438.6
vn -0.275222 -0.950089 -0.146914
v 3.61665 -175.739 1438.69
vn -0.658077 -0.462204 -0.594392
v 3.56565 -175.289 1437.83
vn -0.275222 -0.950089 -0.146914
v 3.71565 -175.651 1437.94
vn 0.277268 -0.121596 -0.953067
v 3.93128 -175.139 1437.94
vn -0.377543 0.478862 -0.792561
v 3.86565 -174.989 1437.93
vn -0.698079 0.574846 -0.426892
v 3.86565 -174.727 1438.09
vn 0.433496 -0.780377 -0.450658
v 4.01565 -175.604 1438.24
vn 0.456859 -0.475074 -0.752053
v 4.07098 -175.439 1438.09
vn -0.537659 0.436028 -0.721667
v 4.09797 -174.689 1437.94
vn 0.00374234 -0.17067 -0.985321
v 4.16565 -174.788 1437.94
vn -0.244161 0.889185 0.386956
v 4.16565 -174.615 1438.09
vn -0.138869 0.990041 -0.0231006
v 3.41565 -175.707 1441.99
vn -0.633243 0.773573 0.0242443
v 3.41565 -175.592 1442.44
vn -0.383669 0.922806 0.0350324
v 3.56565 -175.607 1441.69
vn 0.23403 0.967935 -0.0912766
v 3.71565 -175.739 1442.43
vn -0.0348619 0.986656 0.159042
v 3.88827 -175.739 1442.29
vn -0.840996 0.435897 0.320497
v 4.01565 -175.439 1442.43
vn -0.242561 0.961903 -0.126119
v 4.16565 -175.374 1441.69
vn -0.232434 0.935133 -0.267396
v 3.70494 -175.289 1443.04
vn 0.28402 0.542017 -0.790917
v 3.86565 -175.356 1442.74
vn -0.604645 0.794548 0.0556546
v 4.27229 -174.989 1444.09
vn -0.54571 0.828551 -0.125319
v 3.41565 -174.92 1446.04
vn -0.303273 0.927661 -0.217877
v 4.16565 -174.868 1444.99
vn -0.846024 0.457084 0.274441
v 3.55276 -174.839 1446.79
vn -0.348607 -0.795216 0.49609
v 3.56565 -175.589 1446.3
vn -0.0739712 -0.989405 -0.124925
v 4.35628 -175.889 1439.44
vn 0.557014 -0.796138 -0.236432
v 4.31565 -176.265 1441.09
vn 0.260076 -0.96492 0.0359167
v 5.06565 -176.113 1442.44
vn -0.343166 -0.46168 -0.817979
v 4.91565 -174.765 1437.64
vn -0.313151 -0.655827 -0.686897
v 5.08494 -174.689 1437.49
vn -0.15371 0.978894 0.134686
v 4.46565 -174.772 1438.69
vn -0.266735 0.938479 0.219339
v 4.76565 -174.778 1438.69
vn -0.181754 0.97858 -0.0966754
v 4.76565 -174.772 1438.84
vn 0.251462 -0.709196 -0.658641
v 4.91565 -175.325 1438.39
vn -0.492782 0.85006 0.185914
v 4.61565 -174.744 1438.99
vn -0.431217 0.902217 -0.00751198
v 5.06565 -174.744 1442.14
vn -0.499771 0.86599 0.0170697
v 4.31565 -175.152 1442.59
vn -0.908171 0.229082 0.350352
v 4.31565 -175.191 1443.04
vn -0.205395 0.952426 -0.225163
v 4.31565 -175.013 1443.49
vn -0.371615 0.924072 -0.0894005
v 4.75276 -174.989 1443.49
vn -0.234322 0.960718 -0.148708
v 4.76565 -174.989 1443.01
vn -0.140022 0.957599 -0.25179
v 5.06565 -175.044 1442.89
vn -0.306757 0.946055 -0.104307
v 5.23557 -174.989 1442.89
vn -0.211361 0.949421 -0.232221
v 5.09482 -174.689 1444.54
vn 0.0392059 -0.923008 0.382779
v 4.31565 -175.589 1446.53
vn 0.102748 -0.962173 0.25232
v 4.91565 -175.238 1447.54
vn -0.514626 -0.651874 0.556974
v 5.06565 -174.746 1448.74
vn -0.411332 0.129372 -0.902257
v 4.91565 -174.182 1437.64
vn 0.355638 0.33034 -0.874298
v 5.40429 -174.239 1437.79
vn -0.407279 0.897161 -0.170957
v 5.06565 -174.413 1445.74
vn -0.569284 -0.597666 0.564544
v 4.51922 -174.539 1448.44
vn -0.395844 0.915163 -0.076055
v 4.61565 -174.198 1448.29
vn 0.421083 -0.906783 -0.0208296
v 5.51565 -176.138 1442.59
vn 0.465742 -0.666496 -0.582124
v 6.37889 -174.839 1438.24
vn 0.385731 -0.908398 0.161323
v 6.41565 -175.589 1443.38
vn 0.357159 -0.929735 0.0896166
v 5.96565 -175.7 1444.24
vn 0.260486 -0.94932 0.175896
v 6.11565 -175.691 1444.09
vn -0.492714 0.855915 0.156977
v 5.81565 -174.064 1438.39
vn -0.395851 0.91672 -0.0541015
v 6.41565 -173.789 1438.67
vn -0.53662 0.835752 0.11644
v 6.41565 -174.003 1439.44
vn -0.510011 0.857221 0.0711409
v 5.96565 -174.239 1441.36
vn -0.446787 0.89461 -0.00735187
v 6.11565 -174.172 1440.19
vn -0.432225 0.90176 0.00320823
v 5.81565 -174.451 1442.44
vn 0 0 1
v 6.56565 -174.385 1441.99
vn -0.57901 -0.581122 0.571878
v 6.56565 -174.239 1442.14
vn -0.793695 0.581606 0.178276
v 5.51565 -174.531 1443.04
vn -0.54451 0.838478 0.0215227
v 6.18714 -174.239 1442.59
vn -0.467857 0.880215 -0.0795684
v 6.56565 -173.991 1443.64
vn -0.543213 0.83583 -0.0794241
v 5.66565 -174.523 1444.09
vn -0.616731 0.786922 -0.0199118
v 6.04651 -174.239 1444.39
vn -0.472207 0.859747 -0.194565
v 5.96565 -174.228 1444.69
vn -0.730169 0.208139 0.650793
v 5.51565 -173.949 1449.34
vn 0.413794 -0.905984 -0.0892652
v 6.71565 -174.845 1438.99
vn 0.549612 -0.808151 -0.211704
v 7.03557 -174.689 1438.99
vn 0.526153 -0.834096 -0.165673
v 7.16565 -175.139 1441.19
vn 0.46663 -0.879315 0.0951933
v 7.01565 -175.367 1443.49
vn 0 0 1
v 6.71565 -174.399 1441.99
vn 0 0 1
v 6.71565 -174.378 1441.99
vn -0.57901 -0.581122 0.571878
v 6.71565 -174.387 1442.14
vn 0.0913777 0.951574 -0.293526
v 6.86565 -174.275 1442.44
vn -0.8153 0.567524 0.114903
v 7.01565 -174.089 1442.59
vn -0.505703 0.862387 -0.0235238
v 6.86565 -173.809 1442.89
vn -0.516021 0.856103 -0.0284461
v 7.61565 -173.365 1443.64
vn 0.15867 -0.971369 0.176824
v 6.86565 -174.522 1450.24
vn -0.500092 -0.660888 0.559584
v 6.86565 -174.389 1450.77
vn 0.278059 -0.909533 0.308921
v 7.77672 -174.089 1451.44
vn -0.717399 0.0568127 0.694342
v 7.76565 -173.939 1451.67
vn -0.0198132 0.84982 -0.526701
v 7.61565 -173.159 1439.74
vn -0.478706 0.875907 -0.0602299
v 7.61565 -173.189 1440.61
vn -0.53402 0.837838 -0.113359
v 7.76565 -173.064 1444.69
vn -0.468467 0.880992 0.0662745
v 7.46565 -173.012 1446.34
vn 0.540873 -0.822293 -0.176893
v 8.06565 -174.608 1441.99
vn 0.443063 -0.883451 0.152349
v 8.06565 -174.741 1443.49
vn 0.475105 0.122108 -0.871416
v 7.91565 -173.489 1439.2
vn 0.665786 -0.632873 -0.395223
v 8.21565 -173.795 1439.44
vn 0.59187 -0.767419 -0.246491
v 8.38557 -173.789 1439.89
vn 0.667749 -0.629941 -0.396593
v 8.66565 -173.565 1439.89
vn 0.542687 -0.823009 -0.167771
v 7.91565 -174.27 1440.34
vn 0.432468 -0.894738 0.111425
v 8.66565 -174.388 1443.34
vn 0.405866 -0.897753 0.171211
v 8.21565 -174.388 1444.24
vn 0.19222 -0.933173 0.30371
v 8.51565 -174.376 1444.24
vn 0.450903 -0.878326 0.158839
v 8.81565 -174.163 1443.79
vn 0.387885 -0.915723 0.104869
v 7.91565 -174.526 1446.49
vn -0.398793 0.850963 0.341799
v 7.91565 -173.668 1451.44
vn 0.684 -0.269024 -0.678064
v 8.81331 -173.189 1439.74
vn -0.472132 0.880942 -0.0321358
v 8.21565 -172.889 1440.88
vn -0.537858 0.842326 0.0345879
v 8.25667 -172.889 1442.14
vn 0.478803 -0.877292 -0.0332784
v 9.26565 -174.182 1443.04
vn 0.299241 -0.931123 0.208484
v 9.41565 -173.853 1444.24
vn 0.40151 -0.913789 0.0614691
v 9.26565 -173.755 1445.89
vn 0.427946 -0.901296 0.067293
v 9.92285 -173.489 1445.74
vn 0.545952 -0.835566 -0.0613663
v 9.35823 -173.789 1446.64
vn -0.413947 0.908376 -0.059164
v 9.11565 -172.494 1440.64
vn 0.733329 -0.589323 -0.339008
v 9.86565 -173.039 1440.94
vn 0.807945 -0.121665 -0.576561
v 9.9594 -172.439 1440.94
vn 0.633049 -0.750352 -0.190318
v 9.56565 -173.328 1441.84
vn 0.737821 -0.633066 -0.234196
v 10.1657 -172.932 1442.44
vn 0.426623 -0.864431 0.26599
v 9.71565 -173.161 1450.69
vn -0.286706 0.90839 0.304347
v 9.71565 -173.039 1450.61
vn 0.201364 0.758188 -0.620164
v 9.86565 -172.065 1441.24
vn -0.297151 0.529874 0.794314
v 10.3157 -172.889 1450.74
vn 0.343907 -0.928595 0.139423
v 10.4657 -172.951 1450.69
vn -0.351469 0.885889 0.302771
v 10.9054 -172.589 1450.54
vn 0.271541 0.653492 0.70655
v 11.0657 -172.493 1450.39
vn 0.417017 -0.134011 0.898965
v 11.2157 -172.63 1450.39
vn -0.450833 -0.494903 0.742847
v 11.2532 -172.439 1450.54
vn -0.329795 0.886643 0.32419
v 11.274 -172.289 1450.09
vn 0.662218 -0.719062 -0.210752
v 11.4231 -172.439 1450.39
vn 0.515631 0.652421 -0.555403
v 10.4657 -171.722 1441.99
vn -0.526592 0.845958 -0.0840032
v 10.4657 -171.465 1442.44
vn 0.878595 0.00772971 -0.477506
v 10.6403 -171.989 1441.99
vn -0.0879538 0.995486 -0.0356511
v 11.0657 -171.048 1445.29
vn 0.432615 -0.882331 0.185302
v 12.2657 -172.339 1448.29
vn 0.557137 -0.829674 0.0351903
v 11.6592 -172.739 1448.59
vn 0.672626 -0.710534 0.206677
v 11.6657 -172.289 1450.12
vn -0.0338141 -0.850457 0.524957
v 11.9657 -172.266 1450.24
vn 0.828473 -0.258597 -0.49675
v 11.6528 -171.689 1443.94
vn 0.804694 0.181547 -0.56525
v 11.6657 -171.539 1443.95
vn 0.839661 0.132038 -0.526817
v 11.791 -171.539 1444.09
vn 0.584571 0.689166 -0.428168
v 11.6657 -171.389 1444.06
vn 0.832735 -0.368901 -0.412872
v 11.8157 -171.689 1444.21
vn 0.28418 0.938963 -0.193882
v 12.4157 -171.239 1445.56
vn -0.298816 0.95071 0.0828241
v 12.5657 -171.022 1447.39
vn 0.456574 -0.837189 0.301089
v 12.5657 -171.689 1449.65
vn 0.653856 -0.352516 0.669481
v 12.5657 -171.539 1449.73
vn -0.409794 0.860848 0.301678
v 11.622 -172.139 1450.09
vn -0.818223 -0.140775 0.557398
v 11.8264 -172.139 1450.39
vn 0.545888 -0.821332 0.165588
v 12.2034 -172.139 1450.09
vn 0.555838 -0.808811 0.192015
v 12.1157 -172.139 1450.35
vn -0.45238 0.859102 0.239368
v 12.2657 -171.842 1450.24
vn 0.795822 -0.592745 0.123779
v 12.3348 -171.839 1449.79
vn -0.447712 0.85307 0.268002
v 12.2657 -171.757 1449.79
vn 0.0899779 0.986499 -0.136836
v 12.7157 -170.987 1447.24
vn 0.754867 -0.629079 -0.185566
v 12.9957 -171.539 1446.94
vn 0.929427 0.024406 -0.368198
v 12.8657 -171.389 1446.41
vn 0.94106 0.183533 -0.284115
v 12.9489 -171.239 1446.79
vn 0.785715 -0.618509 0.00992965
v 13.1437 -171.539 1448.44
vn 0.955525 0.240789 -0.17027
v 13.2864 -171.239 1447.99
vn 0.808301 0.536728 -0.242018
v 13.1657 -171.078 1447.69
vn 0.267438 -0.890313 0.368536
v 12.8657 -171.539 1449.79
vn 0.951652 0.307088 0.00743478
v 13.277 -171.239 1449.19
vn -0.236283 0.911594 0.336403
v 12.8657 -171.389 1449.81
vn 0.369566 0.90146 -0.22537
v 13.0157 -170.891 1447.84
vn -0.191368 0.980468 0.0454036
v 13.0157 -170.856 1448.14
vn 0.00333792 0.946181 0.32362
v 13.1657 -170.872 1448.29
vn -0.562635 -0.825139 0.0508642
v 0.56565 -177.282 1440.04
vn 0.102615 -0.949693 -0.295893
v 0.56565 -177.282 1440.04
vn -0.608687 0.608958 0.508597
v 0.56565 -177.062 1440.79
vn -0.294883 0.884077 0.362563
v 0.56565 -177.062 1440.79
vn -0.562635 -0.825139 0.0508642
v 0.062079 -176.939 1440.04
vn -0.765341 -0.473241 0.43623
v 0.062079 -176.939 1440.04
vn -0.608687 0.608958 0.508597
v 0.062079 -176.939 1440.04
vn -0.413334 0.666759 -0.620152
v 0.11565 -176.789 1439.93
vn -0.608687 0.608958 0.508597
v 0.11565 -176.789 1439.93
vn -0.0927951 0.902697 0.420151
v 0.11565 -176.789 1439.93
vn -0.550792 0.0434097 -0.833513
v 0.26565 -176.789 1439.83
vn -0.43345 0.792488 -0.429051
v 0.26565 -176.789 1439.83
vn -0.550792 0.0434097 -0.833513
v 0.56565 -176.789 1439.63
vn -0.275113 -0.454072 -0.847426
v 0.71565 -177.239 1439.87
vn 0.664577 -0.444673 -0.600502
v 0.71565 -177.239 1439.87
vn 0.00580235 -0.972347 -0.233469
v 0.71565 -177.239 1439.87
vn -0.754729 -0.530424 0.386048
v 1.16565 -177.617 1441.24
vn 0.0956687 -0.974191 -0.20445
v 1.16565 -177.617 1441.24
vn -0.672486 0.691948 0.262624
v 1.01565 -177.239 1441.52
vn 0.234637 -0.931814 -0.276892
v 1.61565 -177.636 1441.54
vn 0.04878 -0.488283 -0.871321
v 0.71565 -176.639 1439.54
vn -0.462231 0.86115 -0.211571
v 0.71565 -176.639 1439.54
vn -0.246692 0.611637 -0.751693
v 0.71565 -176.639 1439.54
vn 0.0838315 0.739826 0.667555
v 0.71565 -176.588 1439.74
vn 0.228495 -0.853739 -0.467888
v 0.94065 -176.939 1439.89
vn 0.842875 -0.285776 -0.455954
v 0.94065 -176.939 1439.89
vn 0.757078 0.249627 0.603755
v 0.94065 -176.939 1439.89
vn 0.874965 0.288497 -0.388852
v 0.94065 -176.939 1439.89
vn -0.373885 0.836769 -0.400034
v 0.94065 -176.939 1439.89
vn 0.499683 0.0969872 -0.860762
v 0.94065 -176.939 1439.89
vn 0.0990677 -0.97194 0.213351
v 0.86565 -176.681 1439.59
vn 0.842875 -0.285776 -0.455954
v 0.86565 -176.681 1439.59
vn 0.757078 0.249627 0.603755
v 0.86565 -176.711 1439.89
vn 0.874965 0.288497 -0.388852
v 0.86565 -176.711 1439.89
vn 0.0990677 -0.97194 0.213351
v 0.961276 -176.639 1439.74
vn 0.842875 -0.285776 -0.455954
v 0.961276 -176.639 1439.74
vn 0.757078 0.249627 0.603755
v 0.961276 -176.639 1439.74
vn 0.243655 0.559658 0.792095
v 1.01565 -176.45 1439.59
vn -0.50577 -0.775095 -0.378715
v 1.01565 -176.45 1439.59
vn -0.482075 0.222198 0.847485
v 1.01565 -176.45 1439.59
vn -0.196028 0.691155 -0.695614
v 1.01565 -176.45 1439.59
vn -0.163831 0.87338 0.458658
v 1.01565 -176.45 1439.59
vn 0.499683 0.0969872 -0.860762
v 1.16565 -176.939 1440.02
vn -0.892675 0.0504638 -0.447866
v 1.16565 -176.939 1440.02
vn 0.499683 0.0969872 -0.860762
v 1.16565 -176.766 1440.04
vn -0.881671 0.155998 -0.445332
v 1.16565 -176.766 1440.04
vn -0.566584 0.819109 0.0896822
v 1.16565 -176.766 1440.04
vn -0.373625 0.849543 0.372398
v 1.16565 -176.766 1440.04
vn 0.170767 0.975288 0.140186
v 1.16565 -176.766 1440.04
vn -0.505546 0.245661 0.827088
v 1.19244 -176.639 1439.74
vn -0.491273 -0.444482 0.749057
v 1.19244 -176.639 1439.74
vn -0.196028 0.691155 -0.695614
v 1.16565 -176.489 1439.51
vn -0.445421 -0.694615 -0.564898
v 1.16565 -176.489 1439.51
vn -0.634474 0 -0.772944
v 1.16565 -176.489 1439.51
vn -0.742142 0.516268 -0.427425
v 1.16565 -176.489 1439.51
vn -0.29978 0.879507 0.369593
v 1.16565 -176.422 1439.59
vn -0.742142 0.516268 -0.427425
v 1.16565 -176.422 1439.59
vn -0.881671 0.155998 -0.445332
v 1.31565 -176.775 1439.74
vn -0.491273 -0.444482 0.749057
v 1.31565 -176.775 1439.74
vn 0.0990677 -0.97194 0.213351
v 1.31565 -176.639 1439.58
vn 0.361158 0.514411 0.777783
v 1.31565 -176.639 1439.58
vn -0.386172 -0.774728 -0.500667
v 1.31565 -176.639 1439.58
vn -0.533634 0.267684 0.802235
v 1.31565 -176.639 1439.82
vn -0.860735 0.259775 -0.437781
v 1.31565 -176.639 1439.82
vn -0.566584 0.819109 0.0896822
v 1.31565 -176.639 1439.82
vn -0.246084 0.794145 0.555676
v 1.31565 -176.489 1439.77
vn -0.566584 0.819109 0.0896822
v 1.46565 -176.543 1439.89
vn -0.291274 0.745561 0.599415
v 1.46565 -176.543 1439.89
vn -0.496484 0 -0.868046
v 1.61565 -176.477 1439.14
vn -0.742142 0.516268 -0.427425
v 1.61565 -176.148 1439.14
vn -0.395148 0.905187 0.156509
v 1.61565 -176.148 1439.14
vn -0.269375 0.617072 -0.739364
v 1.61565 -176.148 1439.14
vn 0.075569 -0.391984 -0.916863
v 1.76565 -176.339 1439.09
vn -0.0873649 0.966016 0.243269
v 1.01565 -176.762 1440.19
vn -0.373885 0.836769 -0.400034
v 1.01565 -176.762 1440.19
vn -0.864779 0.407474 0.293466
v 1.81839 -176.789 1443.49
vn -0.647334 -0.590822 0.481548
v 1.92247 -177.689 1442.59
vn -0.395951 -0.704528 0.58895
v 2.06565 -177.641 1442.74
vn -0.594321 0.55083 -0.585977
v 2.66565 -175.889 1438.51
vn -0.457464 -0.680187 -0.572775
v 2.66565 -175.889 1438.51
vn -0.0216284 -0.275783 -0.960977
v 2.66565 -175.889 1438.51
vn 0.335784 -0.861199 -0.381557
v 2.96565 -176.263 1438.69
vn -0.0759731 -0.480149 -0.873891
v 2.96565 -176.263 1438.69
vn -0.69965 -0.197309 -0.686702
v 2.06565 -175.951 1439.14
vn -0.628415 0.556064 -0.543955
v 2.06565 -175.951 1439.14
vn -0.269375 0.617072 -0.739364
v 2.06565 -175.951 1439.14
vn -0.224847 0.102676 -0.968969
v 2.21565 -176.039 1439.02
vn 0.0844979 -0.352393 -0.93203
v 2.21565 -176.039 1439.02
vn -0.269375 0.617072 -0.739364
v 2.21565 -176.039 1439.02
vn -0.420136 -0.694134 -0.58452
v 2.21565 -176.039 1439.02
vn -0.457464 -0.680187 -0.572775
v 2.66565 -176.489 1439.23
vn -0.504525 0.835047 -0.219434
v 2.06565 -176.478 1443.79
vn -0.62556 0.511607 -0.58901
v 2.96565 -175.589 1438.51
vn -0.033057 -0.576434 -0.816475
v 2.96565 -175.589 1438.51
vn -0.341677 0.851121 0.398558
v 2.96565 -175.374 1438.69
vn 0.417799 -0.829321 -0.37104
v 3.27672 -176.039 1438.54
vn -0.739409 0.572498 0.35429
v 3.11565 -175.777 1439.74
vn -0.0251244 -0.994261 0.103986
v 3.26565 -176.427 1439.29
vn -0.768972 0.303182 -0.562816
v 3.15985 -175.439 1438.39
vn -0.464768 -0.870365 -0.162655
v 3.15985 -175.439 1438.39
vn 0.0946089 -0.543551 -0.834027
v 3.15985 -175.439 1438.39
vn 0.134664 -0.545575 -0.827172
v 3.26565 -175.739 1438.6
vn 0.37565 -0.571572 -0.729515
v 3.61665 -175.739 1438.69
vn -0.78365 0.358112 -0.50759
v 3.56565 -175.289 1437.83
vn -0.205159 0.506134 -0.837698
v 3.56565 -175.289 1437.83
vn 0.317129 -0.0404648 -0.947519
v 3.56565 -175.289 1437.83
vn -0.658077 -0.462204 -0.594392
v 3.71565 -175.651 1437.94
vn 0.529139 -0.741986 -0.411665
v 3.71565 -175.651 1437.94
vn 0.418859 -0.176155 -0.890801
v 3.71565 -175.651 1437.94
vn 0.172816 0.021917 -0.98471
v 3.86565 -174.989 1437.93
vn -0.377543 0.478862 -0.792561
v 3.86565 -174.727 1438.09
vn -0.314497 0.842518 0.437328
v 3.86565 -174.727 1438.09
vn -0.334665 0.896546 -0.29018
v 3.86565 -174.727 1438.09
vn -0.159851 -0.245834 -0.956041
v 4.09797 -174.689 1437.94
vn -0.451751 0.864222 -0.221453
v 4.09797 -174.689 1437.94
vn -0.411332 0.129372 -0.902257
v 4.09797 -174.689 1437.94
vn -0.210104 -0.783312 -0.585046
v 4.16565 -174.788 1437.94
vn -0.451751 0.864222 -0.221453
v 4.16565 -174.615 1438.09
vn 0.417498 0.880483 -0.2246
v 3.41565 -175.592 1442.44
vn 0.231972 0.563825 -0.792647
v 3.41565 -175.592 1442.44
vn -0.252085 0.906992 -0.337371
v 3.41565 -175.592 1442.44
vn -0.825135 0.378623 0.41928
v 3.56565 -175.607 1441.69
vn 0.28402 0.542017 -0.790917
v 3.71565 -175.739 1442.43
vn -0.330159 0.842142 -0.42637
v 3.71565 -175.739 1442.43
vn -0.886423 0.187251 0.423311
v 3.88827 -175.739 1442.29
vn -0.330159 0.842142 -0.42637
v 3.88827 -175.739 1442.29
vn -0.780651 0.605505 0.154749
v 3.70494 -175.289 1443.04
vn -0.201629 0.927461 -0.3149
v 3.86565 -175.356 1442.74
vn 0.411673 -0.85904 -0.304262
v 4.35628 -175.889 1439.44
vn -0.0696579 -0.98783 0.13907
v 4.31565 -176.265 1441.09
vn 0.0310302 -0.85223 -0.522246
v 4.91565 -174.765 1437.64
vn 0.100187 -0.928143 -0.358488
v 5.08494 -174.689 1437.49
vn -0.411332 0.129372 -0.902257
v 5.08494 -174.689 1437.49
vn 0.410221 0.235514 -0.881052
v 5.08494 -174.689 1437.49
vn -0.0301212 0.976551 -0.21317
v 4.61565 -174.744 1438.99
vn -0.798643 0.494907 0.342398
v 5.06565 -174.744 1442.14
vn -0.330159 0.842142 -0.42637
v 4.31565 -175.191 1443.04
vn -0.294036 0.941855 -0.162641
v 4.31565 -175.191 1443.04
vn 0.335164 0.518481 -0.786665
v 4.31565 -175.191 1443.04
vn -0.825471 0.495845 0.269695
v 5.23557 -174.989 1442.89
vn -0.331681 0.839865 0.429669
v 4.91565 -174.182 1437.64
vn 0.312055 0.363568 -0.877747
v 4.91565 -174.182 1437.64
vn -0.560038 0.815065 -0.148412
v 4.91565 -174.182 1437.64
vn 0.230247 0.880609 -0.414142
v 4.91565 -174.182 1437.64
vn 0.230247 0.880609 -0.414142
v 5.40429 -174.239 1437.79
vn -0.428781 0.902868 0.0312317
v 5.40429 -174.239 1437.79
vn -0.0276308 0.901811 -0.431247
v 5.40429 -174.239 1437.79
vn -0.801273 0.229109 0.552693
v 4.51922 -174.539 1448.44
vn -0.776776 0.424362 0.465335
v 4.61565 -174.198 1448.29
vn -0.102856 -0.972636 0.208327
v 5.51565 -176.138 1442.59
vn 0.230247 0.880609 -0.414142
v 5.81565 -174.064 1438.39
vn -0.00847074 0.880772 -0.473465
v 6.41565 -173.789 1438.67
vn -0.314275 0.899198 -0.304425
v 6.41565 -174.003 1439.44
vn -0.57901 -0.581122 0.571878
v 6.56565 -174.385 1441.99
vn 0.0456497 -0.997239 -0.0585715
v 6.56565 -174.385 1441.99
vn 0.0913777 0.951574 -0.293526
v 6.56565 -174.385 1441.99
vn 0.620236 0.559095 -0.550201
v 6.56565 -174.385 1441.99
vn 0.620236 0.559095 -0.550201
v 6.56565 -174.239 1442.14
vn -0.287857 -0.781164 0.554006
v 6.56565 -174.239 1442.14
vn 0.701971 0.709755 -0.0590259
v 6.56565 -174.239 1442.14
vn 0.707038 -0.0227825 -0.706809
v 6.56565 -174.239 1442.14
vn -0.41014 0.906849 -0.0970067
v 5.51565 -174.531 1443.04
vn -0.148036 0.932236 -0.330183
v 5.66565 -174.523 1444.09
vn -0.348768 0.903932 0.247523
v 5.51565 -173.949 1449.34
vn 0.0913777 0.951574 -0.293526
v 6.71565 -174.399 1441.99
vn -0.8153 0.567524 0.114903
v 6.71565 -174.399 1441.99
vn -1 0 0
v 6.71565 -174.399 1441.99
vn -0.287857 -0.781164 0.554006
v 6.71565 -174.399 1441.99
vn 0.701971 0.709755 -0.0590259
v 6.71565 -174.399 1441.99
vn 0.0456497 -0.997239 -0.0585715
v 6.71565 -174.378 1441.99
vn -1 0 0
v 6.71565 -174.378 1441.99
vn 0.0456497 -0.997239 -0.0585715
v 6.71565 -174.387 1442.14
vn -1 0 0
v 6.71565 -174.387 1442.14
vn 0.701971 0.709755 -0.0590259
v 6.71565 -174.387 1442.14
vn -0.8153 0.567524 0.114903
v 6.86565 -174.275 1442.44
vn 0.620236 0.559095 -0.550201
v 6.86565 -174.275 1442.44
vn 0.707038 -0.0227825 -0.706809
v 6.86565 -174.275 1442.44
vn -0.287857 -0.781164 0.554006
v 7.01565 -174.089 1442.59
vn 0.707038 -0.0227825 -0.706809
v 7.01565 -174.089 1442.59
vn -0.710831 0.08826 0.697804
v 6.86565 -174.389 1450.77
vn 0.0111807 -0.936608 0.350199
v 6.86565 -174.389 1450.77
vn -0.51657 0.69725 0.49699
v 7.76565 -173.939 1451.67
vn -0.129939 -0.826665 0.547486
v 7.76565 -173.939 1451.67
vn 0.523346 -0.695712 0.492029
v 7.76565 -173.939 1451.67
vn 0.174909 0.568118 0.804145
v 7.76565 -173.939 1451.67
vn -0.413327 0.909911 -0.0349765
v 7.61565 -173.159 1439.74
vn 0.0068996 0.841639 -0.539997
v 7.91565 -173.489 1439.2
vn 0.180891 0.556702 0.810778
v 7.91565 -173.668 1451.44
vn 0.233983 0.692178 -0.682745
v 8.81331 -173.189 1439.74
vn -0.050336 0.841227 -0.538334
v 9.11565 -172.494 1440.64
vn 0.480189 0.57552 -0.661963
v 9.9594 -172.439 1440.94
vn 0.0221039 0.562286 0.826647
v 9.71565 -173.161 1450.69
vn 0.106387 -0.380385 0.918689
v 9.71565 -173.161 1450.69
vn -0.0568528 0.554043 0.830544
v 9.71565 -173.039 1450.61
vn -0.406628 0.895312 -0.181855
v 9.86565 -172.065 1441.24
vn -0.324746 0.882717 0.339634
v 10.3157 -172.889 1450.74
vn 0.204607 -0.174111 0.963235
v 10.3157 -172.889 1450.74
vn 0.278304 -0.161422 0.946831
v 10.4657 -172.951 1450.69
vn 0.356603 -0.0464972 0.933098
v 10.9054 -172.589 1450.54
vn 0.271541 0.653492 0.70655
v 10.9054 -172.589 1450.54
vn -0.450833 -0.494903 0.742847
v 11.0657 -172.493 1450.39
vn -0.456457 0.850207 0.262287
v 11.0657 -172.493 1450.39
vn 0.433151 0.475493 0.765694
v 11.2157 -172.63 1450.39
vn -0.450833 -0.494903 0.742847
v 11.2157 -172.63 1450.39
vn 0.553801 -0.830106 -0.0650245
v 11.2157 -172.63 1450.39
vn 0.537456 -0.583591 0.608738
v 11.2157 -172.63 1450.39
vn -0.456457 0.850207 0.262287
v 11.2532 -172.439 1450.54
vn 0.278397 0.907231 0.315321
v 11.2532 -172.439 1450.54
vn 0.537456 -0.583591 0.608738
v 11.2532 -172.439 1450.54
vn 0.0932852 0.791433 0.604096
v 11.274 -172.289 1450.09
vn -0.456457 0.850207 0.262287
v 11.274 -172.289 1450.09
vn 0.278397 0.907231 0.315321
v 11.274 -172.289 1450.09
vn 0.511867 -0.833961 0.206157
v 11.4231 -172.439 1450.39
vn 0.278397 0.907231 0.315321
v 11.4231 -172.439 1450.39
vn 0.537456 -0.583591 0.608738
v 11.4231 -172.439 1450.39
vn 0.62294 0.306418 0.719759
v 11.4231 -172.439 1450.39
vn -0.330936 0.767864 0.548513
v 11.4231 -172.439 1450.39
vn 0.284587 0.881705 -0.376307
v 10.4657 -171.465 1442.44
vn 0.681754 -0.729811 -0.0508681
v 12.2657 -172.339 1448.29
vn -0.0456583 -0.958119 0.282706
v 11.6592 -172.739 1448.59
vn 0.535418 -0.83307 0.139003
v 11.6592 -172.739 1448.59
vn -0.818223 -0.140775 0.557398
v 11.6657 -172.289 1450.12
vn 0.62294 0.306418 0.719759
v 11.6657 -172.289 1450.12
vn -0.106607 -0.901215 0.420056
v 11.6657 -172.289 1450.12
vn 0.545888 -0.821332 0.165588
v 11.9657 -172.266 1450.24
vn 0.81778 0.411181 -0.4027
v 12.4157 -171.239 1445.56
vn 0.653856 -0.352516 0.669481
v 12.5657 -171.689 1449.65
vn -0.190166 -0.457408 0.868686
v 12.5657 -171.689 1449.65
vn 0.13722 0.115764 0.983753
v 12.5657 -171.539 1449.73
vn -0.489142 0.775087 0.399975
v 12.5657 -171.539 1449.73
vn -0.204978 -0.285019 0.936348
v 12.5657 -171.539 1449.73
vn -0.818223 -0.140775 0.557398
v 11.622 -172.139 1450.09
vn 0.62294 0.306418 0.719759
v 11.622 -172.139 1450.09
vn -0.0268987 -0.773038 0.633789
v 11.8264 -172.139 1450.39
vn -0.457163 0.833074 0.311433
v 11.8264 -172.139 1450.39
vn 0.151829 0.257049 0.954397
v 11.8264 -172.139 1450.39
vn 0.919308 -0.376586 0.114265
v 12.2034 -172.139 1450.09
vn 0.151829 0.257049 0.954397
v 12.1157 -172.139 1450.35
vn 0.111785 -0.702669 0.702681
v 12.1157 -172.139 1450.35
vn 0.888456 -0.341244 0.306918
v 12.1157 -172.139 1450.35
vn 0.151829 0.257049 0.954397
v 12.2657 -171.842 1450.24
vn 0.923943 -0.308153 0.226653
v 12.2657 -171.842 1450.24
vn 0.758749 0.64011 0.120661
v 12.2657 -171.842 1450.24
vn 0.653856 -0.352516 0.669481
v 12.3348 -171.839 1449.79
vn 0.13722 0.115764 0.983753
v 12.3348 -171.839 1449.79
vn 0.758749 0.64011 0.120661
v 12.3348 -171.839 1449.79
vn 0.13722 0.115764 0.983753
v 12.2657 -171.757 1449.79
vn 0.758749 0.64011 0.120661
v 12.2657 -171.757 1449.79
vn 0.968278 0.0270714 -0.248403
v 12.9957 -171.539 1446.94
vn 0.494269 0.825418 -0.272735
v 12.9489 -171.239 1446.79
vn 0.878924 -0.475423 -0.0382672
v 13.2864 -171.239 1447.99
vn -0.204978 -0.285019 0.936348
v 12.8657 -171.539 1449.79
vn 0.685267 -0.719911 0.110165
v 12.8657 -171.539 1449.79
vn 0.835887 -0.0577449 0.545855
v 12.8657 -171.539 1449.79
vn 0.761209 -0.640461 0.101834
v 13.277 -171.239 1449.19
vn 0.835887 -0.0577449 0.545855
v 13.277 -171.239 1449.19
vn 0.188708 0.917351 0.35051
v 13.277 -171.239 1449.19
vn -0.212716 -0.102793 0.971692
v 12.8657 -171.389 1449.81
vn 0.835887 -0.0577449 0.545855
v 12.8657 -171.389 1449.81
vn 0.742304 0.65637 -0.134767
v 13.1657 -170.872 1448.29
f 1//1 3//3 4//4
f 4//4 8//8 1//1
f 249//249 4//4 6//6
f 249//249 6//6 7//7
f 14//14 249//249 7//7
f 9//9 240//240 236//236
f 4//4 5//5 6//6
f 3//3 5//5 4//4
f 248//248 246//246 15//15
f 7//7 256//256 14//14
f 21//21 257//257 16//16
f 257//257 247//247 16//16
f 16//16 247//247 243//243
f 252//252 2//2 241//241
f 242//242 238//238 244//244
f 14//14 17//17 250//250
f 13//13 250//250 17//17
f 22//22 27//27 10//10
f 251//251 255//255 237//237
f 252//252 11//11 2//2
f 237//237 255//255 253//253
f 255//255 43//43 253//253
f 260//260 10//10 255//255
f 10//10 260//260 22//22
f 239//239 254//254 12//12
f 252//252 312//312 11//11
f 12//12 254//254 38//38
f 43//43 255//255 44//44
f 312//312 37//37 11//11
f 17//17 14//14 18//18
f 14//14 256//256 18//18
f 273//273 259//259 20//20
f 19//19 259//259 245//245
f 18//18 256//256 28//28
f 266//266 295//295 270//270
f 267//267 271//271 261//261
f 20//20 296//296 273//273
f 268//268 262//262 272//272
f 36//36 263//263 269//269
f 245//245 309//309 19//19
f 20//20 259//259 19//19
f 310//310 23//23 264//264
f 265//265 280//280 278//278
f 274//274 297//297 24//24
f 25//25 28//28 256//256
f 285//285 30//30 275//275
f 287//287 258//258 276//276
f 26//26 287//287 276//276
f 301//301 291//291 277//277
f 281//281 293//293 279//279
f 27//27 24//24 297//297
f 294//294 29//29 286//286
f 285//285 298//298 30//30
f 27//27 297//297 32//32
f 281//281 299//299 293//293
f 31//31 30//30 298//298
f 27//27 32//32 10//10
f 297//297 33//33 48//48
f 32//32 297//297 48//48
f 302//302 300//300 282//282
f 33//33 297//297 288//288
f 303//303 63//63 301//301
f 303//303 283//283 63//63
f 34//34 304//304 289//289
f 290//290 292//292 305//305
f 301//301 63//63 291//291
f 304//304 34//34 35//35
f 306//306 291//291 50//50
f 63//63 50//50 291//291
f 309//309 245//245 239//239
f 12//12 309//309 239//239
f 12//12 284//284 309//309
f 283//283 12//12 63//63
f 254//254 311//311 38//38
f 39//39 60//60 40//40
f 39//39 48//48 52//52
f 52//52 64//64 39//39
f 39//39 64//64 60//60
f 32//32 40//40 41//41
f 10//10 32//32 41//41
f 40//40 60//60 41//41
f 255//255 42//42 44//44
f 10//10 42//42 255//255
f 44//44 45//45 43//43
f 313//313 37//37 312//312
f 313//313 56//56 37//37
f 44//44 42//42 45//45
f 319//319 46//46 51//51
f 314//314 320//320 58//58
f 47//47 326//326 315//315
f 317//317 64//64 52//52
f 316//316 61//61 318//318
f 61//61 316//316 57//57
f 48//48 33//33 52//52
f 32//32 48//48 49//49
f 308//308 52//52 33//33
f 322//322 35//35 34//34
f 39//39 40//40 49//49
f 40//40 32//32 49//49
f 39//39 49//49 48//48
f 323//323 52//52 308//308
f 307//307 321//321 324//324
f 50//50 63//63 330//330
f 325//325 315//315 326//326
f 64//64 66//66 60//60
f 311//311 54//54 38//38
f 12//12 38//38 53//53
f 53//53 67//67 12//12
f 67//67 92//92 93//93
f 53//53 92//92 67//67
f 311//311 55//55 54//54
f 37//37 56//56 55//55
f 56//56 313//313 95//95
f 53//53 38//38 327//327
f 55//55 59//59 54//54
f 55//55 56//56 59//59
f 59//59 94//94 54//54
f 59//59 56//56 95//95
f 328//328 314//314 58//58
f 92//92 53//53 327//327
f 10//10 68//68 42//42
f 41//41 68//68 10//10
f 65//65 64//64 317//317
f 317//317 331//331 65//65
f 57//57 70//70 61//61
f 61//61 70//70 62//62
f 71//71 73//73 96//96
f 62//62 65//65 61//61
f 62//62 338//338 65//65
f 65//65 338//338 364//364
f 77//77 104//104 364//364
f 60//60 68//68 41//41
f 63//63 12//12 84//84
f 64//64 97//97 66//66
f 67//67 83//83 12//12
f 84//84 82//82 86//86
f 354//354 85//85 82//82
f 85//85 86//86 82//82
f 66//66 98//98 60//60
f 68//68 45//45 42//42
f 68//68 115//115 45//45
f 313//313 115//115 95//95
f 342//342 69//69 72//72
f 334//334 58//58 339//339
f 328//328 58//58 334//334
f 71//71 335//335 73//73
f 336//336 338//338 337//337
f 329//329 336//336 337//337
f 338//338 62//62 337//337
f 339//339 58//58 76//76
f 75//75 340//340 346//346
f 347//347 330//330 81//81
f 63//63 81//81 330//330
f 77//77 364//364 343//343
f 74//74 344//344 341//341
f 74//74 341//341 345//345
f 78//78 77//77 343//343
f 344//344 74//74 78//78
f 79//79 75//75 346//346
f 74//74 345//345 349//349
f 350//350 348//348 353//353
f 78//78 104//104 77//77
f 104//104 78//78 74//74
f 80//80 74//74 349//349
f 82//82 12//12 83//83
f 12//12 82//82 84//84
f 358//358 355//355 90//90
f 87//87 107//107 357//357
f 89//89 363//363 356//356
f 87//87 357//357 360//360
f 84//84 88//88 63//63
f 87//87 360//360 108//108
f 361//361 359//359 372//372
f 88//88 84//84 107//107
f 87//87 373//373 107//107
f 83//83 67//67 362//362
f 363//363 89//89 373//373
f 90//90 374//374 358//358
f 362//362 67//67 91//91
f 89//89 91//91 109//109
f 373//373 89//89 109//109
f 122//122 93//93 92//92
f 67//67 93//93 120//120
f 91//91 67//67 120//120
f 54//54 94//94 92//92
f 120//120 93//93 122//122
f 95//95 121//121 59//59
f 383//383 94//94 59//59
f 122//122 92//92 94//94
f 383//383 384//384 94//94
f 64//64 65//65 364//364
f 364//364 123//123 64//64
f 98//98 66//66 97//97
f 333//333 385//385 365//365
f 98//98 365//365 385//385
f 60//60 126//126 68//68
f 126//126 60//60 98//98
f 99//99 80//80 349//349
f 349//349 100//100 99//99
f 124//124 366//366 367//367
f 351//351 118//118 368//368
f 74//74 80//80 104//104
f 81//81 63//63 101//101
f 81//81 101//101 102//102
f 101//101 63//63 105//105
f 81//81 102//102 376//376
f 102//102 101//101 103//103
f 103//103 101//101 370//370
f 104//104 352//352 366//366
f 103//103 370//370 132//132
f 105//105 63//63 132//132
f 132//132 63//63 106//106
f 63//63 88//88 113//113
f 88//88 107//107 111//111
f 113//113 88//88 112//112
f 112//112 88//88 111//111
f 332//332 375//375 371//371
f 111//111 107//107 373//373
f 111//111 373//373 110//110
f 109//109 114//114 373//373
f 110//110 139//139 111//111
f 373//373 114//114 110//110
f 398//398 112//112 111//111
f 398//398 113//113 112//112
f 136//136 375//375 139//139
f 375//375 136//136 371//371
f 120//120 109//109 91//91
f 139//139 110//110 114//114
f 115//115 68//68 116//116
f 68//68 173//173 116//116
f 115//115 116//116 95//95
f 117//117 121//121 95//95
f 121//121 117//117 155//155
f 117//117 95//95 155//155
f 377//377 119//119 369//369
f 350//350 353//353 378//378
f 376//376 102//102 128//128
f 128//128 102//102 130//130
f 102//102 103//103 130//130
f 120//120 139//139 114//114
f 114//114 109//109 120//120
f 384//384 383//383 142//142
f 383//383 415//415 142//142
f 385//385 127//127 98//98
f 127//127 126//126 98//98
f 124//124 104//104 366//366
f 104//104 124//124 364//364
f 124//124 143//143 364//364
f 164//164 124//124 369//369
f 144//144 143//143 124//124
f 168//168 145//145 364//364
f 364//364 145//145 123//123
f 146//146 125//125 123//123
f 123//123 125//125 127//127
f 173//173 125//125 146//146
f 125//125 173//173 127//127
f 126//126 173//173 68//68
f 127//127 173//173 126//126
f 95//95 116//116 154//154
f 116//116 173//173 154//154
f 95//95 154//154 416//416
f 379//379 386//386 380//380
f 164//164 369//369 119//119
f 381//381 128//128 129//129
f 382//382 387//387 422//422
f 422//422 387//387 158//158
f 129//129 128//128 421//421
f 130//130 103//103 132//132
f 131//131 106//106 133//133
f 133//133 106//106 138//138
f 132//132 106//106 131//131
f 137//137 131//131 133//133
f 131//131 137//137 152//152
f 148//148 134//134 147//147
f 389//389 149//149 135//135
f 390//390 405//405 407//407
f 391//391 150//150 400//400
f 151//151 401//401 410//410
f 392//392 393//393 411//411
f 397//397 138//138 106//106
f 139//139 140//140 136//136
f 136//136 140//140 161//161
f 138//138 397//397 161//161
f 137//137 133//133 138//138
f 138//138 160//160 137//137
f 139//139 120//120 141//141
f 120//120 161//161 141//141
f 140//140 139//139 141//141
f 140//140 141//141 161//161
f 161//161 120//120 122//122
f 122//122 399//399 161//161
f 143//143 168//168 364//364
f 143//143 144//144 168//168
f 146//146 123//123 145//145
f 146//146 145//145 163//163
f 130//130 176//176 128//128
f 421//421 128//128 176//176
f 165//165 168//168 144//144
f 124//124 165//165 144//144
f 132//132 177//177 130//130
f 186//186 162//162 145//145
f 408//408 406//406 402//402
f 394//394 403//403 413//413
f 395//395 409//409 404//404
f 396//396 414//414 412//412
f 153//153 132//132 131//131
f 132//132 153//153 177//177
f 152//152 137//137 160//160
f 131//131 152//152 153//153
f 156//156 154//154 173//173
f 157//157 142//142 415//415
f 416//416 154//154 156//156
f 399//399 417//417 174//174
f 418//418 416//416 156//156
f 419//419 156//156 188//188
f 423//423 420//420 427//427
f 388//388 159//159 176//176
f 130//130 177//177 159//159
f 177//177 153//153 200//200
f 152//152 160//160 153//153
f 153//153 160//160 200//200
f 160//160 138//138 161//161
f 145//145 162//162 169//169
f 178//178 169//169 162//162
f 145//145 169//169 163//163
f 170//170 146//146 163//163
f 182//182 146//146 170//170
f 182//182 173//173 146//146
f 124//124 164//164 175//175
f 422//422 190//190 424//424
f 124//124 175//175 165//165
f 168//168 165//165 166//166
f 165//165 167//167 166//166
f 165//165 175//175 167//167
f 168//168 166//166 184//184
f 166//166 167//167 184//184
f 184//184 167//167 175//175
f 186//186 145//145 168//168
f 186//186 168//168 184//184
f 162//162 186//186 178//178
f 171//171 170//170 163//163
f 163//163 181//181 171//171
f 163//163 169//169 172//172
f 163//163 172//172 181//181
f 169//169 179//179 172//172
f 181//181 172//172 179//179
f 182//182 170//170 180//180
f 171//171 180//180 170//170
f 181//181 180//180 171//171
f 174//174 189//189 399//399
f 423//423 427//427 429//429
f 156//156 173//173 188//188
f 421//421 176//176 183//183
f 422//422 158//158 425//425
f 176//176 159//159 177//177
f 160//160 161//161 200//200
f 200//200 161//161 202//202
f 169//169 178//178 179//179
f 178//178 203//203 179//179
f 203//203 181//181 179//179
f 180//180 204//204 182//182
f 182//182 204//204 173//173
f 192//192 188//188 173//173
f 190//190 422//422 425//425
f 184//184 187//187 186//186
f 175//175 185//185 184//184
f 424//424 190//190 426//426
f 185//185 201//201 184//184
f 190//190 199//199 426//426
f 426//426 199//199 201//201
f 176//176 430//430 183//183
f 189//189 197//197 399//399
f 427//427 191//191 429//429
f 197//197 189//189 431//431
f 428//428 433//433 432//432
f 430//430 176//176 200//200
f 176//176 177//177 200//200
f 186//186 187//187 454//454
f 186//186 454//454 178//178
f 181//181 203//203 204//204
f 204//204 180//180 181//181
f 399//399 197//197 161//161
f 216//216 161//161 197//197
f 431//431 193//193 197//197
f 433//433 434//434 432//432
f 433//433 195//195 434//434
f 438//438 194//194 435//435
f 435//435 194//194 445//445
f 436//436 439//439 196//196
f 437//437 442//442 446//446
f 440//440 192//192 173//173
f 198//198 440//440 173//173
f 173//173 204//204 448//448
f 447//447 443//443 449//449
f 441//441 450//450 444//444
f 204//204 205//205 448//448
f 199//199 190//190 453//453
f 199//199 453//453 210//210
f 210//210 453//453 202//202
f 199//199 210//210 201//201
f 187//187 184//184 201//201
f 467//467 457//457 217//217
f 468//468 451//451 458//458
f 216//216 197//197 452//452
f 455//455 206//206 459//459
f 469//469 459//459 206//206
f 456//456 218//218 460//460
f 219//219 460//460 218//218
f 210//210 208//208 201//201
f 187//187 201//201 207//207
f 211//211 187//187 207//207
f 201//201 208//208 207//207
f 212//212 210//210 202//202
f 209//209 211//211 207//207
f 208//208 209//209 207//207
f 210//210 209//209 208//208
f 210//210 461//461 209//209
f 209//209 461//461 225//225
f 209//209 225//225 211//211
f 211//211 225//225 224//224
f 225//225 461//461 226//226
f 187//187 211//211 224//224
f 161//161 213//213 202//202
f 212//212 202//202 223//223
f 202//202 213//213 223//223
f 234//234 161//161 232//232
f 213//213 161//161 234//234
f 223//223 213//213 234//234
f 203//203 221//221 204//204
f 161//161 216//216 222//222
f 214//214 221//221 203//203
f 462//462 215//215 479//479
f 464//464 482//482 480//480
f 161//161 222//222 465//465
f 161//161 465//465 232//232
f 470//470 220//220 216//216
f 471//471 473//473 476//476
f 474//474 469//469 206//206
f 472//472 477//477 475//475
f 216//216 220//220 222//222
f 472//472 204//204 221//221
f 477//477 472//472 221//221
f 478//478 481//481 483//483
f 224//224 454//454 187//187
f 485//485 212//212 223//223
f 485//485 223//223 233//233
f 225//225 226//226 484//484
f 233//233 229//229 485//485
f 233//233 223//223 234//234
f 454//454 224//224 227//227
f 232//232 235//235 234//234
f 226//226 229//229 228//228
f 484//484 226//226 228//228
f 224//224 486//486 227//227
f 228//228 229//229 495//495
f 231//231 228//228 495//495
f 230//230 214//214 203//203
f 466//466 487//487 493//493
f 454//454 490//490 488//488
f 491//491 494//494 489//489
f 490//490 454//454 227//227
f 227//227 486//486 490//490
f 235//235 232//232 492//492
f 487//487 466//466 463//463
f 229//229 233//233 495//495
f 233//233 234//234 495//495
