# Wavafront OBJ file of BodyParts3D
# BodyParts3D, Copyright(C) 2010-2011 The Database Center for Life Science licensed under CC Attribution-Share Alike 2.1 Japan.
vn -0.866034 -0.080699 -0.49343
v 28.4597 -89.0287 1483.23
vn -0.601675 -0.624709 -0.49772
v 27.8069 -89.3287 1484.21
vn -0.668553 -0.6624 -0.338028
v 27.8889 -89.4787 1484.36
vn -0.640177 -0.587987 -0.494414
v 28.0097 -89.524 1484.21
vn -0.612285 -0.505712 -0.607752
v 28.0097 -89.3287 1484.05
vn -0.799792 -0.0150842 -0.600088
v 28.0097 -89.2443 1484.06
vn -0.828317 -0.228586 -0.511508
v 28.0428 -89.0287 1483.91
vn -0.703487 -0.475037 -0.528627
v 28.4597 -90.0002 1484.21
vn -0.720042 0.467484 0.512834
v 28.4512 -88.7287 1484.21
vn -0.591111 0.767532 -0.247954
v 28.3097 -88.7322 1484.51
vn -0.931353 0.00977794 0.363986
v 28.6366 -88.5787 1486.01
vn 0.0606731 -0.995008 -0.0792323
v 29.3444 -90.0787 1483.16
vn -0.403868 -0.482151 -0.777445
v 29.2097 -89.3287 1483.28
vn -0.305113 -0.540961 -0.783752
v 29.382 -89.0287 1483.01
vn 0.0554385 -0.346801 -0.936299
v 29.5097 -89.9287 1483.11
vn 0.00958558 -0.987248 -0.1589
v 29.6597 -90.0283 1483.16
vn -0.761224 -0.629869 0.154281
v 29.6597 -89.0625 1482.86
vn -0.377469 -0.540138 -0.752176
v 29.6597 -89.1787 1482.95
vn -0.76211 -0.63025 0.148233
v 29.6597 -89.0287 1483
vn -0.699403 -0.378292 -0.606408
v 28.9097 -89.9287 1483.65
vn -0.618636 0.383786 -0.685564
v 29.3597 -89.7787 1483.33
vn 0.188068 -0.981081 0.0459313
v 29.5403 -90.0787 1483.31
vn 0.237481 -0.953951 0.183249
v 29.6597 -90.0119 1483.46
vn -0.76031 -0.629464 0.160324
v 29.4758 -88.8787 1482.71
vn -0.236886 0.0257476 -0.971196
v 29.3983 -88.8787 1483.01
vn -0.105592 0.849532 -0.51686
v 29.3597 -88.7821 1483.16
vn -0.761224 -0.629869 0.154281
v 29.5097 -88.8787 1482.87
vn 0.885438 -0.0962403 -0.454684
v 29.5097 -88.8787 1483.23
vn -0.5967 -0.0200804 0.802213
v 29.6597 -88.8787 1482.98
vn -0.187151 0.607472 -0.77198
v 29.6597 -88.8787 1483.18
vn -0.739093 0.638329 -0.21512
v 29.8097 -88.5405 1483.16
vn -0.32377 0.839979 -0.43544
v 28.7597 -88.8518 1483.31
vn -0.168433 0.826035 -0.537863
v 29.3597 -88.6151 1483.46
vn 0.57132 0.386563 -0.723991
v 29.5097 -88.7228 1483.31
vn -0.610826 0.675784 -0.412562
v 29.7546 -88.5787 1483.31
vn -0.19114 0.753884 -0.628589
v 29.6597 -88.5054 1483.46
vn -0.373247 0.848822 -0.374416
v 29.8097 -88.0455 1484.21
vn -0.759173 0.647796 -0.0633776
v 28.7597 -88.1085 1485.86
vn -0.824392 -0.323454 0.464494
v 29.5628 -88.1287 1487.96
vn -0.953806 0.282336 0.102665
v 29.2179 -87.3787 1488.11
vn -0.385072 -0.554797 -0.737509
v 29.9597 -89.1787 1482.81
vn -0.584762 0.35874 -0.72757
v 30.5597 -89.9662 1482.11
vn -0.520385 0.408848 -0.749695
v 30.6756 -89.1787 1482.41
vn 0.221917 -0.970356 0.0957169
v 30.7097 -90.0002 1482.11
vn -0.498845 -0.628473 -0.596805
v 31.0097 -88.4287 1481.67
vn -0.492488 0.763879 -0.417067
v 31.0097 -88.2565 1481.96
vn -0.339222 -0.303392 -0.890439
v 29.9597 -88.7287 1482.45
vn -0.422748 0.811163 -0.404102
v 30.3847 -88.5787 1482.26
vn -0.452334 -0.569876 -0.686028
v 30.6722 -88.5787 1482.11
vn -0.728719 0.61518 -0.300869
v 30.7671 -88.4287 1482.11
vn -0.280053 -0.566154 -0.775268
v 30.8597 -88.7276 1482.11
vn -0.386247 -0.814965 0.432024
v 30.7097 -88.1721 1489.16
vn -0.510838 -0.729643 0.454604
v 30.3792 -87.9787 1489.46
vn -0.43784 0.788921 -0.431161
v 31.4597 -88.2787 1481.66
vn -0.017838 -0.642005 -0.766493
v 31.7597 -88.4287 1481.7
vn -0.00247395 -0.656933 -0.753945
v 32.0597 -88.4287 1481.7
vn -0.671619 0.699446 -0.24434
v 32.2097 -84.8182 1487.66
vn -0.872324 0.488619 0.0173842
v 32.3489 -83.3287 1495.16
vn 0.243551 -0.694157 -0.67737
v 32.6597 -87.8287 1481.24
vn -0.473424 0.469932 -0.745006
v 33.1096 -88.8787 1481.15
vn 0.220201 -0.974432 -0.0446535
v 33.4097 -88.8541 1481.21
vn 0.312049 -0.94205 0.123156
v 33.4097 -88.5846 1483.61
vn 0.491502 -0.839025 0.233373
v 32.5097 -88.2787 1486.55
vn 0.19788 -0.64598 -0.737261
v 32.6597 -87.5287 1480.9
vn -0.279024 0.0262736 -0.959925
v 33.1096 -86.9287 1480.79
vn -0.41453 0.0248988 -0.909695
v 32.6597 -87.3102 1480.91
vn -0.660575 0.629414 -0.409241
v 33.1096 -86.7513 1481.06
vn 0.419885 -0.331372 -0.84492
v 33.4097 -87.3787 1481.26
vn 0.5976 -0.227731 -0.768773
v 33.4617 -86.7787 1481.06
vn 0.521291 -0.828794 0.203363
v 32.8097 -86.5713 1491.86
vn 0.569415 -0.80319 0.175079
v 33.4097 -85.9572 1492.46
vn -0.869688 0.459699 -0.179777
v 33.0616 -85.1287 1484.96
vn -0.838732 0.502738 -0.209246
v 33.0143 -85.1287 1485.26
vn -0.884311 0.418848 -0.206302
v 33.0475 -84.3787 1486.76
vn -0.622817 0.716889 -0.313319
v 32.5097 -84.8443 1486.91
vn -0.80847 -0.267237 0.524366
v 32.4429 -84.8287 1495.91
vn -0.581837 -0.712412 0.392345
v 32.9597 -84.8843 1496.51
vn -0.760824 0.582176 -0.286736
v 33.4097 -83.8151 1486.91
vn -0.889807 0.422958 -0.171319
v 33.0522 -83.6287 1488.56
vn -0.902028 0.401152 -0.159442
v 33.1096 -83.3806 1488.56
vn -0.890512 0.449749 -0.0686563
v 32.4733 -83.1787 1494.11
vn -0.849273 0.00974173 0.527865
v 32.3596 -83.9533 1495.76
vn -0.950057 -0.133378 0.282138
v 32.4171 -83.6287 1495.76
vn -0.938816 -0.277216 0.204392
v 32.4264 -83.3287 1496.21
vn -0.913284 -0.194977 0.357627
v 32.5097 -83.7872 1495.91
vn -0.952875 0.0439381 0.300163
v 32.6397 -83.7787 1497.56
vn -0.879012 -0.367791 0.303427
v 32.7874 -83.0287 1497.56
vn -0.687901 0.717851 -0.107156
v 32.7077 -83.3287 1497.71
vn -0.660855 0.328907 0.674604
v 33.1096 -83.9287 1498.49
vn -0.450502 0.489997 0.746292
v 33.4097 -83.9287 1498.7
vn -0.814311 0.554946 -0.170096
v 33.0264 -82.7287 1491.11
vn -0.816229 0.561231 -0.137074
v 33.2597 -82.3151 1491.41
vn -0.807028 0.54565 -0.225769
v 33.4097 -82.1287 1491.38
vn -0.889848 0.419262 0.179973
v 32.8571 -82.7287 1497.11
vn -0.918267 0.316765 0.237583
v 33.0194 -82.4287 1497.41
vn -0.744581 0.396553 0.536977
v 33.1096 -82.7037 1497.86
vn -0.931158 -0.174465 -0.320168
v 33.3968 -81.3787 1492.61
vn -0.984629 0.167996 0.0477862
v 33.5299 -81.6787 1492.46
vn -0.840586 -0.442242 0.312788
v 33.4764 -81.5287 1492.46
vn -0.85302 -0.427415 0.299456
v 33.5421 -81.5287 1492.61
vn -0.984877 -0.0182874 -0.172287
v 33.4999 -81.3787 1492.31
vn -0.92196 -0.102021 0.373607
v 33.5116 -81.0787 1493.06
vn -0.958043 0.282058 0.050951
v 33.4272 -80.7787 1496.21
vn -0.923858 0.353727 0.146162
v 33.3647 -81.5287 1497.41
vn -0.194355 -0.593679 -0.780879
v 34.0097 -88.5236 1480.76
vn 0.128725 -0.991082 0.0344542
v 34.6096 -88.533 1480.61
vn -0.30748 -0.766604 -0.563715
v 34.6096 -88.4287 1480.45
vn -0.0893095 0.115817 -0.989247
v 33.7097 -87.8287 1481.33
vn -0.082593 -0.742601 -0.664622
v 33.8596 -88.6719 1480.91
vn -0.158438 -0.506305 -0.847675
v 33.8596 -88.1287 1481.19
vn 0.208039 -0.143042 -0.967605
v 34.0097 -86.6287 1481.38
vn -0.722441 0.593782 -0.354261
v 33.5597 -86.0861 1481.36
vn 0.52865 -0.180169 -0.829499
v 33.7097 -86.1787 1481.13
vn -0.709686 0.564934 -0.420946
v 33.7097 -86.0287 1481.17
vn -0.820822 0.48629 -0.299621
v 33.7738 -85.8787 1481.21
vn 0.0192889 0.0342189 -0.999228
v 33.8596 -86.0287 1481.16
vn -0.661386 0.651188 -0.372186
v 33.9358 -85.4287 1481.36
vn -0.370303 0.337095 -0.865588
v 34.1597 -85.4287 1481.14
vn -0.233177 -0.121733 -0.964785
v 34.4597 -86.0287 1481.26
vn 0.713678 -0.685766 0.142789
v 33.8596 -85.9455 1491.41
vn -0.642186 0.71361 -0.279924
v 34.3097 -85.1486 1481.36
vn -0.164168 0.0468868 -0.985317
v 34.4597 -85.2787 1481.13
vn -0.50521 0.545953 -0.668355
v 34.4597 -85.1287 1481.19
vn -0.611087 0.770239 -0.182493
v 34.3097 -84.7619 1483.01
vn -0.711169 0.653795 -0.258439
v 33.5749 -85.1287 1483.91
vn -0.653845 0.658301 -0.372996
v 34.3097 -84.5287 1483.74
vn -0.680113 0.703966 -0.204641
v 34.4597 -84.5654 1483.31
vn -0.188164 -0.891102 0.412954
v 33.8596 -84.7666 1497.26
vn 0.673069 -0.738941 0.0307227
v 34.4173 -84.5287 1496.51
vn -0.289407 -0.874013 0.390314
v 33.5597 -84.0963 1498.76
vn -0.467202 -0.0921517 0.879335
v 34.6096 -83.9287 1499.33
vn -0.82333 0.496643 -0.274726
v 33.8596 -82.5541 1487.96
vn -0.768188 0.53779 -0.347375
v 34.0905 -82.4287 1487.66
vn -0.866549 0.44576 -0.224479
v 33.5597 -81.2287 1492.42
vn -0.949235 0.29214 -0.116646
v 33.5597 -81.2525 1493.36
vn -0.955709 0.279054 -0.0935419
v 33.5889 -81.2287 1493.21
vn -0.95682 0.20449 -0.206589
v 34.1725 -79.7287 1492.01
vn -0.909666 -0.0580491 0.411263
v 33.7741 -79.8787 1493.81
vn -0.951031 0.265905 0.157588
v 33.5597 -80.3051 1496.21
vn -0.881152 0.340632 -0.327935
v 34.1597 -78.4919 1492.61
vn -0.979556 0.192221 -0.0593441
v 33.8186 -79.1287 1493.81
vn -0.907234 0.316257 -0.277324
v 34.0764 -79.2787 1493.06
vn -0.826566 0.490786 -0.275532
v 33.7249 -78.5287 1495.16
vn -0.826566 0.490786 -0.275532
v 33.8139 -78.3787 1495.16
vn -0.892913 0.125268 0.432451
v 33.8596 -78.3787 1495.25
vn -0.0529135 0.143729 0.988201
v 34.0097 -78.3787 1495.29
vn -0.974218 0.223822 -0.0283214
v 33.7097 -79.1287 1495.35
vn -0.891915 0.447807 -0.0628977
v 33.7882 -78.9787 1495.31
vn -0.806546 0.235463 0.542255
v 33.8234 -78.5287 1495.31
vn -0.403647 0.445038 0.799381
v 33.8596 -79.1287 1495.44
vn -0.479524 0.27766 0.832443
v 33.8596 -78.9787 1495.39
vn -0.158325 0.380895 0.910962
v 34.0097 -78.9787 1495.42
vn -0.98808 -0.0693764 -0.137421
v 34.4796 -78.0787 1492.16
vn -0.955068 0.0490462 -0.292301
v 34.0929 -77.1787 1493.81
vn -0.779687 0.488651 -0.391546
v 34.3053 -77.7787 1493.21
vn -0.965695 0.117181 -0.231737
v 34.3647 -77.9287 1492.91
vn -0.951956 0.167967 -0.256062
v 33.7249 -77.1787 1495.16
vn -0.959375 -0.0541587 0.276887
v 33.7933 -77.6287 1495.31
vn -0.82728 0.403426 -0.390968
v 34.5499 -76.1287 1493.81
vn -0.828829 0.411103 -0.379521
v 34.1862 -76.1287 1494.26
vn -0.84692 0.0477817 0.529569
v 34.1597 -75.9787 1495.75
vn -0.752718 0.484833 -0.445367
v 34.6038 -75.6787 1494.11
vn -0.904719 0.303455 -0.298996
v 34.4983 -75.6787 1494.41
vn -0.886992 0.376281 -0.267691
v 34.0097 -75.3787 1495.9
vn -0.357461 -0.315916 0.878874
v 34.1597 -75.3787 1495.98
vn -0.631 0.660899 -0.406266
v 34.1597 -75.1343 1495.91
vn -0.518507 0.731523 -0.442747
v 34.3097 -75.1188 1495.76
vn 0.482122 -0.237687 0.843246
v 34.3731 -75.2287 1495.91
vn -0.186079 0.978869 -0.0847941
v 34.4522 -75.0787 1495.91
vn -0.891911 0.377046 -0.249662
v 34.3108 -74.9287 1495.76
vn -0.758701 -0.118972 0.640483
v 34.4139 -74.7787 1495.91
vn 0.566154 -0.219386 0.794569
v 34.4597 -75.2287 1495.86
vn -0.708384 -0.121004 0.695378
v 34.4597 -75.0787 1495.91
vn -0.651168 0.678516 -0.339995
v 34.5569 -74.6287 1495.76
vn 0.515076 -0.144281 0.844914
v 34.6096 -74.7787 1495.87
vn -0.422846 -0.712528 -0.559916
v 34.7597 -88.526 1480.46
vn 0.317292 -0.946888 0.0522312
v 34.9097 -88.4908 1480.46
vn -0.424145 0.595489 -0.682271
v 35.0752 -88.4287 1480.16
vn 0.445964 -0.889542 0.0991463
v 35.2097 -88.3244 1480.76
vn -0.118311 0.252463 -0.960346
v 35.504 -87.9787 1480.31
vn 0.454216 -0.890826 -0.0107963
v 35.5828 -88.1287 1480.31
vn -0.332901 0.102309 -0.937395
v 34.9458 -87.0787 1481.21
vn -0.277572 0.131144 -0.951712
v 35.8097 -85.4287 1480.69
vn 0.652382 -0.687983 0.317926
v 34.7597 -86.0041 1489.01
vn -0.513114 0.535479 -0.670803
v 34.7597 -84.8287 1481.14
vn -0.515893 0.800869 -0.304076
v 34.9097 -84.694 1481.21
vn -0.263133 0.314968 -0.911897
v 35.3596 -84.6787 1480.97
vn -0.313647 0.771901 -0.552987
v 35.3596 -84.4912 1481.06
vn -0.542755 0.810565 -0.220005
v 34.7597 -84.3518 1482.71
vn -0.242051 0.932108 -0.269418
v 35.8097 -84.0471 1482.26
vn -0.333293 0.871061 -0.360789
v 35.8097 -84.0049 1482.41
vn -0.580052 0.739194 -0.342245
v 34.9097 -84.033 1483.46
vn 0.877262 -0.479115 -0.0293205
v 34.7889 -83.9287 1495.61
vn 0.926838 -0.375326 -0.0100439
v 35.4757 -83.1787 1498.01
vn 0.333058 -0.925108 0.18234
v 34.9097 -84.0611 1499.36
vn 0.441522 -0.874268 0.201774
v 35.0597 -84.019 1499.36
vn -0.323598 -0.597109 0.733993
v 35.0597 -83.958 1499.51
vn -0.313862 0.212466 0.925391
v 35.0597 -83.83 1499.51
vn -0.376614 0.428695 0.821208
v 35.2097 -83.6287 1499.48
vn 0.733659 -0.640258 0.227628
v 35.3702 -83.7787 1499.36
vn 0.972329 -0.231127 0.034008
v 35.4499 -83.6287 1499.36
vn -0.269976 0.288973 0.918481
v 35.3596 -83.6287 1499.54
vn -0.601428 0.653528 -0.459549
v 35.4054 -82.4287 1485.41
vn -0.579237 0.655963 -0.483939
v 35.0597 -81.8287 1486.99
vn 0.825446 -0.545453 0.145328
v 35.7007 -82.8787 1495.31
vn -0.402474 0.465122 0.788465
v 35.3596 -82.4287 1498.89
vn 0.956556 -0.102763 0.272838
v 35.5097 -82.4287 1498.82
vn -0.589591 0.632695 -0.502075
v 34.7597 -81.34 1487.81
vn -0.701223 0.53713 -0.468805
v 35.3093 -80.6287 1488.11
vn -0.790032 0.443023 -0.423768
v 34.7597 -79.7287 1489.64
vn -0.578552 0.571361 -0.582086
v 35.0494 -79.8787 1489.31
vn -0.661968 0.533147 -0.526833
v 35.2097 -79.1287 1489.7
vn -0.539957 0.643376 -0.542691
v 35.6597 -78.619 1489.76
vn -0.363726 0.709235 -0.603895
v 35.8097 -78.3787 1489.99
vn -0.0958765 0.272954 0.957238
v 35.8097 -78.2823 1495.31
vn -0.608725 0.522268 -0.597235
v 35.2097 -76.5283 1492.76
vn -0.509261 0.613015 -0.604042
v 35.6597 -75.9787 1492.69
vn -0.600035 0.557764 -0.573461
v 34.9097 -76.4933 1493.06
vn -0.541135 0.578833 -0.610021
v 35.0597 -75.9787 1493.27
vn 0.208825 -0.075077 0.975067
v 35.8097 -76.1287 1495.03
vn 0.457589 -0.24025 0.856091
v 34.7597 -75.6787 1495.56
vn -0.793826 0.462371 -0.395036
v 34.8639 -74.4787 1495.01
vn -0.346591 0.689063 -0.636448
v 35.8097 -73.5787 1494.97
vn -0.632631 0.61441 -0.471464
v 35.2097 -73.5807 1495.61
vn 0.386463 -0.0470623 0.921103
v 35.6808 -73.4287 1495.46
vn -0.413887 0.445376 -0.793938
v 36.1096 -87.2287 1480.56
vn -0.412703 0.14158 -0.899795
v 36.4448 -86.6287 1480.46
vn -0.111369 -0.239854 -0.9644
v 36.8596 -87.3787 1479.97
vn 0.387377 -0.918557 0.0786884
v 37.0097 -87.4736 1480.01
vn 0.519588 -0.810816 0.269456
v 37.0097 -86.8596 1482.71
vn -0.114965 0.495338 -0.861059
v 36.5597 -84.6787 1480.72
vn 0.0378662 0.91319 -0.405772
v 36.1096 -84.3963 1481.06
vn -0.0810269 0.912549 -0.400861
v 35.9597 -83.9721 1482.41
vn 0.77353 -0.519838 0.362519
v 36.4097 -83.3823 1490.21
vn 0.79738 -0.552104 0.243653
v 36.2597 -83.1787 1490.87
vn -0.181771 0.82011 -0.542567
v 36.4097 -82.09 1485.11
vn 0.860433 -0.471093 0.194234
v 36.46 -82.8787 1491.11
vn 0.836002 -0.466484 0.288952
v 36.6897 -82.5787 1490.51
vn 0.863903 -0.448114 0.229924
v 36.4061 -81.8287 1493.21
vn -0.0399281 0.808061 -0.587744
v 36.7097 -81.6787 1485.84
vn 0.842643 -0.417199 0.340438
v 36.9616 -81.0787 1492.01
vn 0.927616 -0.300502 0.221872
v 36.7179 -80.6287 1493.21
vn -0.00421602 0.808251 0.588823
v 36.1096 -80.6287 1497.57
vn 0.185472 0.778066 0.600177
v 36.2597 -80.6569 1497.56
vn 0.915974 -0.399527 0.0370244
v 36.003 -81.6787 1498.46
vn -0.170963 0.695804 0.697588
v 35.9597 -81.2896 1498.31
vn -0.124959 0.777837 -0.615918
v 36.2597 -80.3557 1487.51
vn 0.980336 -0.0397445 0.19329
v 36.8139 -79.7287 1493.81
vn 0.952796 -0.140446 0.269175
v 36.7929 -79.4287 1493.81
vn 0.988485 -0.0532359 0.141642
v 36.3522 -79.8787 1496.21
vn -0.153841 0.732712 0.662922
v 36.2597 -79.7287 1496.2
vn -0.0718081 0.551829 0.83086
v 36.3347 -79.5787 1496.06
vn 0.979987 -0.143641 0.137812
v 36.4952 -80.4787 1495.46
vn 0.929105 -0.326438 0.173785
v 36.4483 -80.1787 1496.36
vn 0.986152 -0.0203239 0.164596
v 36.4097 -80.0097 1495.76
vn 0.432559 0.737662 0.518409
v 36.4905 -80.0287 1496.36
vn 0.607769 -0.546745 0.575922
v 36.4097 -79.7287 1496.1
vn 0.985685 -0.0504689 0.160864
v 36.5889 -79.7287 1495.91
vn 0.976381 -0.022206 0.214909
v 36.5597 -79.5649 1496.06
vn 0.90701 -0.255089 0.335055
v 36.3375 -80.1787 1496.66
vn -0.0398296 0.829301 0.557382
v 36.2597 -80.0287 1496.55
vn 0.994858 0.071725 0.0715023
v 36.7436 -79.2787 1494.26
vn 0.96188 -0.153769 0.226146
v 36.8163 -78.5287 1494.86
vn 0.110229 0.293415 0.949609
v 36.4097 -78.6787 1495.57
vn 0.994188 0.0349529 0.101824
v 36.6686 -79.1287 1495.61
vn -0.063917 0.515293 0.854627
v 36.5597 -79.1287 1495.73
vn 0.98142 -0.0909209 0.16896
v 36.6171 -78.6787 1495.46
vn 0.815334 -0.42484 0.393373
v 36.9425 -78.0787 1493.81
vn 0.966846 0.0509262 0.250232
v 37.0647 -77.3287 1493.36
vn 0.979195 -0.0865425 0.183542
v 36.8374 -78.0787 1494.11
vn 0.938736 -0.224102 0.261827
v 36.9335 -77.4787 1494.71
vn 0.980947 -0.0679692 0.182
v 36.7647 -78.0787 1495.31
vn -0.0290364 0.138754 0.989901
v 36.4097 -76.7287 1495.03
vn 0.981129 0.0504394 0.18666
v 36.7748 -76.5787 1495.01
vn 0.454617 0.0108004 0.890621
v 36.7097 -74.7787 1494.97
vn 0.823123 0.0369021 0.566662
v 36.8596 -75.5287 1494.92
vn 0.910076 -0.0393771 0.412567
v 36.9241 -75.0787 1494.71
vn -0.266723 0.693778 -0.668977
v 36.4097 -74.0697 1494.41
vn 0.739504 0.654911 -0.155643
v 36.446 -73.7287 1495.01
vn 0.471084 0.0445597 0.880962
v 36.4265 -73.7287 1495.16
vn 0.86548 0.462768 -0.191808
v 36.6288 -74.0287 1495.01
vn -0.273514 0.760203 -0.589306
v 35.9597 -73.2787 1495.29
vn -0.325491 -0.729434 -0.60165
v 37.1597 -87.4168 1479.86
vn 0.376541 -0.926313 -0.0126915
v 37.4597 -87.319 1480.01
vn 0.357983 -0.906231 -0.224928
v 37.6096 -87.2225 1479.86
vn -0.404868 0.332234 -0.851882
v 37.6096 -87.0787 1479.72
vn 0.78907 -0.539075 0.294561
v 37.5991 -85.7287 1484.21
vn -0.258595 0.677071 -0.688987
v 38.0597 -84.9752 1480.46
vn 0.189682 0.937604 -0.291409
v 38.0597 -84.9307 1480.61
vn -0.33217 0.685272 -0.648125
v 38.2097 -84.9352 1480.46
vn -0.450015 0.799648 -0.397555
v 38.2097 -84.8486 1480.61
vn -0.136971 0.741566 -0.656748
v 38.3462 -84.8287 1480.46
vn -0.075325 0.880176 -0.468632
v 37.9097 -84.7057 1481.21
vn -0.207199 0.866326 -0.454475
v 38.2097 -84.2955 1481.66
vn 0.946916 -0.247419 0.205264
v 37.5944 -84.0787 1486.61
vn 0.802468 -0.471305 0.365947
v 37.6638 -83.9287 1486.46
vn 0.834505 -0.440794 0.330609
v 37.4597 -84.0787 1487.21
vn 0.0282415 0.820556 -0.570868
v 37.6096 -82.2787 1484.66
vn 0.749759 -0.524028 0.404049
v 37.9097 -82.7447 1487.66
vn 0.826484 -0.421742 0.372904
v 37.9882 -82.7287 1487.51
vn 0.796604 -0.44475 0.409414
v 38.3444 -82.5787 1486.91
vn 0.893733 -0.280618 0.349993
v 38.321 -81.9787 1487.66
vn 0.378086 0.773998 -0.507915
v 37.7597 -81.2033 1486.31
vn 0.382071 0.774364 -0.504362
v 37.9097 -81.2287 1486.41
vn -0.283171 0.700328 -0.655252
v 37.4597 -80.5221 1487.06
vn 0.929216 -0.200733 0.310264
v 38.1194 -80.9287 1488.86
vn 0.815402 -0.372567 0.443073
v 37.9097 -79.9355 1490.06
vn 0.601807 -0.583073 0.545759
v 38.1194 -79.5787 1490.21
vn 0.989403 0.0557956 0.134044
v 37.2639 -79.4287 1492.46
vn 0.900839 -0.307084 0.3069
v 37.3296 -79.8787 1492.16
vn 0.917872 -0.247875 0.309949
v 37.1796 -79.4287 1493.06
vn 0.370686 0.765399 -0.526076
v 38.096 -78.8287 1490.06
vn 0.936521 -0.138318 0.322175
v 37.1889 -78.8287 1492.76
vn 0.916371 -0.28062 0.285512
v 37.4421 -78.8287 1491.71
vn 0.86501 -0.2509 0.43452
v 37.4597 -78.3787 1492.48
vn 0.914861 -0.0612469 0.399096
v 37.6096 -78.3787 1491.95
vn 0.972634 0.12576 0.195364
v 37.8686 -78.0787 1491.26
vn 0.773139 -0.470031 0.425826
v 37.1597 -77.9287 1493.65
vn 0.895546 0.425775 -0.129277
v 37.3413 -76.7287 1492.31
vn 0.380874 -0.919782 -0.0945283
v 38.5097 -86.7787 1479.43
vn 0.568134 -0.793704 0.217388
v 38.6597 -86.7213 1480.16
vn 0.305464 -0.0552741 -0.950598
v 39.1096 -85.3684 1480.16
vn 0.678414 0.71292 -0.177481
v 39.1096 -85.2822 1480.61
vn -0.562185 0.462553 -0.685561
v 39.2597 -85.459 1479.71
vn 0.268592 0.898724 -0.346632
v 39.2597 -85.4182 1480.31
vn 0.553746 0.825808 -0.106806
v 39.4858 -85.5787 1480.16
vn -0.0122592 0.833408 -0.552522
v 39.4097 -85.4287 1479.75
vn 0.832993 -0.454542 0.315459
v 39.2046 -85.5787 1481.36
vn 0.94173 -0.201166 0.269586
v 39.3264 -85.5787 1481.06
vn 0.959211 -0.0511666 0.278021
v 39.2597 -85.4287 1481.32
vn 0.661921 -0.651903 0.369977
v 38.5097 -85.5787 1482.91
vn 0.185365 0.925439 -0.330458
v 38.6597 -84.6869 1480.76
vn -0.381501 0.361909 -0.850576
v 38.9597 -85.1287 1480.1
vn 0.103427 0.664984 -0.739662
v 38.9597 -84.9787 1480.19
vn 0.0672351 0.898974 -0.43281
v 38.9597 -84.8861 1480.31
vn 0.305464 -0.0552741 -0.950598
v 39.153 -85.1287 1480.16
vn 0.301098 0.872176 -0.385551
v 38.7617 -84.5287 1481.36
vn 0.772191 0.604287 -0.196362
v 38.853 -84.8287 1481.06
vn 0.356487 0.897903 -0.258239
v 38.8563 -84.6787 1481.06
vn 0.930313 0.359388 -0.0731993
v 38.8296 -84.6787 1481.36
vn 0.886665 0.409175 -0.215409
v 38.8343 -84.3787 1481.96
vn -0.283755 0.852298 -0.439398
v 39.1096 -85.0502 1481.06
vn 0.961404 0.194784 0.194323
v 39.3335 -85.2787 1481.06
vn -0.0670071 0.874451 -0.480463
v 39.2597 -85.0782 1480.91
vn 0.9568 0.226038 0.182867
v 39.2597 -85.1287 1481.14
vn 0.772345 0.571224 -0.277824
v 38.9597 -84.5287 1482.17
vn 0.633075 0.693943 -0.343015
v 39.1366 -84.3787 1482.71
vn 0.736348 -0.55658 0.384721
v 38.3596 -84.8287 1484.25
vn 0.878784 -0.353625 0.320448
v 38.9597 -84.6787 1483.47
vn 0.331817 0.807821 -0.487158
v 38.8097 -83.9156 1482.71
vn 0.95757 -0.140663 0.251543
v 38.8038 -82.8787 1485.26
vn 0.894734 -0.300024 0.330812
v 38.5097 -82.5787 1486.62
vn 0.968896 -0.117749 0.217658
v 38.5097 -82.2589 1486.61
vn 0.936997 -0.199606 0.286694
v 38.4804 -82.2787 1486.91
vn 0.986533 0.163035 0.0130916
v 38.5671 -81.6787 1486.61
vn 0.881616 -0.305396 0.359843
v 38.3596 -80.791 1488.56
vn 0.979646 -0.0814464 0.183466
v 38.4077 -80.7787 1488.41
vn 0.359266 -0.933235 -0.000420787
v 39.678 -86.3287 1478.96
vn -0.608827 0.436044 -0.662718
v 39.7097 -86.1787 1478.73
vn 0.918929 0.374477 0.123843
v 39.7929 -86.0287 1478.96
vn -0.617979 0.460093 -0.637508
v 39.7097 -85.8246 1478.96
vn -0.693088 -0.461076 -0.55411
v 28.4597 -89.0287 1483.23
vn -0.361236 0.809082 -0.463567
v 28.4597 -89.0287 1483.23
vn -0.239515 -0.707763 -0.664609
v 28.4597 -89.0287 1483.23
vn -0.236886 0.0257476 -0.971196
v 28.4597 -89.0287 1483.23
vn -0.621187 0.115495 -0.775105
v 27.8069 -89.3287 1484.21
vn -0.885123 0.459601 0.0729677
v 27.8069 -89.3287 1484.21
vn -0.533717 -0.682451 0.499407
v 27.8889 -89.4787 1484.36
vn -0.89695 -0.0583696 0.438262
v 27.8889 -89.4787 1484.36
vn -0.283274 -0.795914 -0.535049
v 28.0097 -89.524 1484.21
vn -0.56061 -0.174824 -0.809415
v 28.0097 -89.524 1484.21
vn -0.768536 0.0942936 -0.63282
v 28.0097 -89.3287 1484.05
vn -0.720042 0.467484 0.512834
v 28.0097 -89.2443 1484.06
vn -0.633833 0.685715 -0.35784
v 28.0097 -89.2443 1484.06
vn -0.720042 0.467484 0.512834
v 28.0428 -89.0287 1483.91
vn -0.436782 0.85851 -0.268666
v 28.0428 -89.0287 1483.91
vn -0.512842 -0.702999 0.492733
v 28.4597 -90.0002 1484.21
vn 0.100313 -0.973714 0.204493
v 28.4597 -90.0002 1484.21
vn -0.501086 0.82449 -0.262926
v 28.4512 -88.7287 1484.21
vn -0.760085 -0.166837 -0.628041
v 29.3444 -90.0787 1483.16
vn 0.0554385 -0.346801 -0.936299
v 29.3444 -90.0787 1483.16
vn -0.595172 0.418713 -0.685893
v 29.3444 -90.0787 1483.16
vn -0.236886 0.0257476 -0.971196
v 29.382 -89.0287 1483.01
vn 0.885438 -0.0962403 -0.454684
v 29.382 -89.0287 1483.01
vn -0.0212192 0.322661 -0.946277
v 29.382 -89.0287 1483.01
vn -0.0126447 0.825751 -0.563892
v 29.382 -89.0287 1483.01
vn -0.611461 0.383673 -0.692034
v 29.5097 -89.9287 1483.11
vn -0.416681 -0.813716 -0.40527
v 29.5097 -89.9287 1483.11
vn 0.0554385 -0.346801 -0.936299
v 29.6597 -90.0283 1483.16
vn -0.376348 -0.692385 -0.615601
v 29.6597 -89.0625 1482.86
vn -1 0 0
v 29.6597 -89.0625 1482.86
vn -0.0212192 0.322661 -0.946277
v 29.6597 -89.1787 1482.95
vn -1 0 0
v 29.6597 -89.1787 1482.95
vn -0.592785 0.116091 0.79695
v 29.6597 -89.0287 1483
vn -0.0212192 0.322661 -0.946277
v 29.6597 -89.0287 1483
vn -1 0 0
v 29.6597 -89.0287 1483
vn -0.109739 0.789018 -0.604489
v 29.6597 -89.0287 1483
vn -1 0 0
v 29.6597 -89.0287 1483
vn -0.611929 0.41309 -0.674463
v 28.9097 -89.9287 1483.65
vn -0.554994 -0.081305 -0.827871
v 28.9097 -89.9287 1483.65
vn -0.533731 -0.198612 -0.822
v 29.3597 -89.7787 1483.33
vn -0.32848 -0.626409 -0.706904
v 29.4758 -88.8787 1482.71
vn -0.452644 0.809089 -0.374819
v 29.4758 -88.8787 1482.71
vn -0.804954 0.568541 0.169738
v 29.4758 -88.8787 1482.71
vn 0.885438 -0.0962403 -0.454684
v 29.3983 -88.8787 1483.01
vn -0.251191 0.757389 -0.602714
v 29.3983 -88.8787 1483.01
vn 0.608862 0.729062 -0.312659
v 29.3983 -88.8787 1483.01
vn 0.608862 0.729062 -0.312659
v 29.3597 -88.7821 1483.16
vn 0.57132 0.386563 -0.723991
v 29.3597 -88.7821 1483.16
vn -0.5967 -0.0200804 0.802213
v 29.5097 -88.8787 1482.87
vn -0.804954 0.568541 0.169738
v 29.5097 -88.8787 1482.87
vn -0.168311 0.692089 -0.701915
v 29.5097 -88.8787 1483.23
vn 0.608862 0.729062 -0.312659
v 29.5097 -88.8787 1483.23
vn 0.57132 0.386563 -0.723991
v 29.5097 -88.8787 1483.23
vn -0.978303 0.207181 0
v 29.6597 -88.8787 1482.98
vn -0.913998 0.335755 -0.227765
v 29.6597 -88.8787 1483.18
vn -0.589525 -0.155878 0.792567
v 29.8097 -88.5405 1483.16
vn -0.804954 0.568541 0.169738
v 29.8097 -88.5405 1483.16
vn -0.116125 0.667362 -0.735624
v 29.5097 -88.7228 1483.31
vn -0.622773 0.471074 -0.624694
v 29.6597 -88.5054 1483.46
vn -0.439432 -0.808856 0.390708
v 29.5628 -88.1287 1487.96
vn -0.655897 0.744919 -0.122044
v 29.2179 -87.3787 1488.11
vn -0.821407 -0.345783 0.45357
v 29.2179 -87.3787 1488.11
vn -0.933542 0.0870282 0.347744
v 29.2179 -87.3787 1488.11
vn -0.745807 0.666114 0.00803542
v 29.2179 -87.3787 1488.11
vn -0.319033 -0.889881 -0.326081
v 30.5597 -89.9662 1482.11
vn -0.112744 -0.497676 -0.860004
v 30.5597 -89.9662 1482.11
vn -0.347787 -0.394917 -0.850344
v 30.6756 -89.1787 1482.41
vn -0.112744 -0.497676 -0.860004
v 30.7097 -90.0002 1482.11
vn -0.597772 0.668082 -0.443098
v 31.0097 -88.4287 1481.67
vn 0.0230857 -0.830708 -0.556229
v 31.0097 -88.4287 1481.67
vn 0.0405514 -0.209116 -0.97705
v 31.0097 -88.4287 1481.67
vn -0.46894 0.768974 -0.434481
v 29.9597 -88.7287 1482.45
vn -0.38053 -0.352809 -0.854823
v 30.3847 -88.5787 1482.26
vn -0.811709 0.51365 -0.278013
v 30.6722 -88.5787 1482.11
vn -0.256906 0.831636 -0.492323
v 30.6722 -88.5787 1482.11
vn 0.30233 -0.919845 0.249965
v 30.7097 -88.1721 1489.16
vn -0.0609148 -0.394209 -0.917
v 31.4597 -88.2787 1481.66
vn -0.541378 0.0230039 -0.840465
v 31.4597 -88.2787 1481.66
vn -0.30803 0.291822 -0.905515
v 32.0597 -88.4287 1481.7
vn -0.980843 0.105166 0.16397
v 32.3489 -83.3287 1495.16
vn 0.0884752 -0.101223 -0.990922
v 32.6597 -87.8287 1481.24
vn -0.112744 -0.497676 -0.860004
v 33.1096 -88.8787 1481.15
vn 0.166222 -0.955388 -0.244139
v 33.1096 -88.8787 1481.15
vn -0.41453 0.0248988 -0.909695
v 32.6597 -87.5287 1480.9
vn 0.593657 -0.32302 -0.737042
v 33.1096 -86.9287 1480.79
vn -0.659778 0.628294 -0.412238
v 33.1096 -86.9287 1480.79
vn 0.16588 0.293442 -0.941475
v 33.1096 -86.9287 1480.79
vn -0.719993 0.625277 -0.301062
v 32.6597 -87.3102 1480.91
vn -0.755206 0.0403415 0.654245
v 32.9597 -84.8843 1496.51
vn -0.718589 0.693658 -0.0496803
v 32.3596 -83.9533 1495.76
vn -0.984505 0.100939 0.143393
v 32.3596 -83.9533 1495.76
vn -0.886391 -0.426797 0.179318
v 32.3596 -83.9533 1495.76
vn -0.875312 0.472242 0.104005
v 32.4264 -83.3287 1496.21
vn -0.718589 0.693658 -0.0496803
v 32.5097 -83.7872 1495.91
vn -0.96123 0.273372 0.0361336
v 32.5097 -83.7872 1495.91
vn -0.842221 -0.478897 0.247632
v 32.6397 -83.7787 1497.56
vn -0.878966 0.426159 0.214028
v 32.7874 -83.0287 1497.56
vn -0.910418 0.228705 0.34472
v 32.7077 -83.3287 1497.71
vn -0.666254 -0.650768 0.364152
v 33.1096 -83.9287 1498.49
vn -0.554458 -0.196445 0.808694
v 33.1096 -83.9287 1498.49
vn -0.512336 -0.144724 0.846503
v 33.4097 -83.9287 1498.7
vn -0.914763 -0.325897 0.238745
v 33.4097 -82.1287 1491.38
vn -0.990194 0.138789 -0.0159381
v 33.4097 -82.1287 1491.38
vn -0.676116 -0.654984 0.337437
v 33.3968 -81.3787 1492.61
vn -0.794404 0.558936 -0.237726
v 33.3968 -81.3787 1492.61
vn -0.931023 -0.145636 0.334642
v 33.3968 -81.3787 1492.61
vn -0.984877 -0.0182874 -0.172287
v 33.4764 -81.5287 1492.46
vn -0.76633 0.54771 -0.335787
v 33.4999 -81.3787 1492.31
vn -0.875919 0.451128 -0.171025
v 33.5116 -81.0787 1493.06
vn -0.347429 0.557071 0.754298
v 33.3647 -81.5287 1497.41
vn -0.455916 0.579428 -0.675577
v 34.0097 -88.5236 1480.76
vn -0.262284 -0.809196 -0.525747
v 34.6096 -88.533 1480.61
vn -0.345294 -0.471737 -0.811317
v 34.6096 -88.4287 1480.45
vn -0.431144 0.603164 -0.67105
v 34.6096 -88.4287 1480.45
vn 0.0675825 -0.649999 -0.756924
v 33.7097 -87.8287 1481.33
vn 0.321089 -0.943315 0.0840097
v 33.8596 -88.6719 1480.91
vn -0.0625994 -0.836908 -0.543752
v 33.8596 -88.6719 1480.91
vn -0.398786 0.44647 -0.80102
v 33.8596 -88.1287 1481.19
vn 0.0241637 0.297477 -0.954423
v 33.7097 -86.1787 1481.13
vn -0.0239532 0.288256 -0.957254
v 33.7097 -86.0287 1481.17
vn -0.371646 0.294915 -0.880287
v 33.7738 -85.8787 1481.21
vn 0.476529 -0.866291 0.149868
v 33.8596 -84.7666 1497.26
vn -0.512336 -0.144724 0.846503
v 33.5597 -84.0963 1498.76
vn -0.317807 -0.58118 0.749152
v 33.5597 -84.0963 1498.76
vn -0.408215 0.336018 0.848794
v 34.6096 -83.9287 1499.33
vn -0.320724 -0.589183 0.74162
v 34.6096 -83.9287 1499.33
vn -0.665942 -0.645128 0.374609
v 33.5889 -81.2287 1493.21
vn -0.92196 -0.102021 0.373607
v 33.5889 -81.2287 1493.21
vn -0.975202 0.187747 -0.117186
v 33.7741 -79.8787 1493.81
vn -0.2511 0.691747 0.677079
v 33.5597 -80.3051 1496.21
vn -0.82994 0.418401 -0.368973
v 33.8186 -79.1287 1493.81
vn -0.826566 0.490786 -0.275532
v 33.8186 -79.1287 1493.81
vn -0.995664 -0.0736472 0.056834
v 33.8186 -79.1287 1493.81
vn -0.989961 -0.141212 -0.00598676
v 33.8186 -79.1287 1493.81
vn -0.807239 0.259997 0.529874
v 33.7249 -78.5287 1495.16
vn -0.989961 -0.141212 -0.00598676
v 33.7249 -78.5287 1495.16
vn -0.918707 0.173497 0.354791
v 33.8139 -78.3787 1495.16
vn -0.228548 0.150749 0.96179
v 33.8596 -78.3787 1495.25
vn -0.51088 0.464838 0.723137
v 33.7097 -79.1287 1495.35
vn -0.989961 -0.141212 -0.00598676
v 33.7882 -78.9787 1495.31
vn -0.754437 0.216194 0.619746
v 33.7882 -78.9787 1495.31
vn -0.173099 0.251636 0.952216
v 33.8234 -78.5287 1495.31
vn -0.74219 0.486041 -0.46143
v 34.4796 -78.0787 1492.16
vn -0.969715 -0.190403 -0.152967
v 34.3053 -77.7787 1493.21
vn -0.945255 -0.0355753 0.324387
v 33.7249 -77.1787 1495.16
vn -0.96197 0.118785 -0.245976
v 33.7249 -77.1787 1495.16
vn -0.357461 -0.315916 0.878874
v 33.7249 -77.1787 1495.16
vn 0.171793 -0.177849 0.968946
v 33.7933 -77.6287 1495.31
vn -0.235775 -0.356783 0.903945
v 34.1597 -75.9787 1495.75
vn 0.426375 -0.325214 0.844062
v 34.1597 -75.9787 1495.75
vn -0.473031 -0.269645 0.838769
v 34.0097 -75.3787 1495.9
vn -0.475046 0.254546 0.842341
v 34.0097 -75.3787 1495.9
vn -0.271523 0.278402 0.921286
v 34.1597 -75.3787 1495.98
vn 0.455741 -0.277414 0.845779
v 34.1597 -75.3787 1495.98
vn -0.271523 0.278402 0.921286
v 34.1597 -75.1343 1495.91
vn -0.186079 0.978869 -0.0847941
v 34.1597 -75.1343 1495.91
vn -0.681526 -0.121773 0.721591
v 34.3097 -75.1188 1495.76
vn 0.293219 0.826123 0.48119
v 34.3097 -75.1188 1495.76
vn -0.186079 0.978869 -0.0847941
v 34.3097 -75.1188 1495.76
vn 0.719394 -0.379091 -0.582033
v 34.3097 -75.1188 1495.76
vn -0.992089 0.00611221 -0.125391
v 34.3097 -75.1188 1495.76
vn 0.293219 0.826123 0.48119
v 34.3731 -75.2287 1495.91
vn 0.719394 -0.379091 -0.582033
v 34.3731 -75.2287 1495.91
vn 0.719394 -0.379091 -0.582033
v 34.4522 -75.0787 1495.91
vn -0.054906 0.288833 0.955804
v 34.4522 -75.0787 1495.91
vn 0.466749 -0.245957 0.8495
v 34.4522 -75.0787 1495.91
vn -0.733453 -0.0574834 0.677305
v 34.3108 -74.9287 1495.76
vn -0.76911 0.630904 -0.102123
v 34.4139 -74.7787 1495.91
vn 0.193918 0.0243547 0.980715
v 34.4139 -74.7787 1495.91
vn 0.151745 0.622918 0.767429
v 34.4139 -74.7787 1495.91
vn -0.647811 -0.24587 0.721033
v 34.4597 -75.2287 1495.86
vn 0.293219 0.826123 0.48119
v 34.4597 -75.2287 1495.86
vn 0.66049 -0.242331 0.710654
v 34.4597 -75.0787 1495.91
vn 0.193918 0.0243547 0.980715
v 34.4597 -75.0787 1495.91
vn 0.151745 0.622918 0.767429
v 34.5569 -74.6287 1495.76
vn -0.882091 0.374105 -0.286287
v 34.5569 -74.6287 1495.76
vn -0.47791 0.408959 0.777403
v 34.5569 -74.6287 1495.76
vn 0.193918 0.0243547 0.980715
v 34.6096 -74.7787 1495.87
vn 0.151745 0.622918 0.767429
v 34.6096 -74.7787 1495.87
vn -0.47791 0.408959 0.777403
v 34.6096 -74.7787 1495.87
vn 0.169076 -0.985601 0.0022016
v 34.7597 -88.526 1480.46
vn -0.391288 -0.671362 -0.629417
v 35.0752 -88.4287 1480.16
vn 0.392919 -0.919548 0.00678326
v 35.0752 -88.4287 1480.16
vn 0.0925054 0.234471 -0.967712
v 35.0752 -88.4287 1480.16
vn -0.000428443 -0.123903 -0.992294
v 35.5828 -88.1287 1480.31
vn -0.144819 -0.913828 0.379402
v 34.9097 -84.0611 1499.36
vn -0.320724 -0.589183 0.74162
v 34.9097 -84.0611 1499.36
vn 0.491089 -0.767943 0.411213
v 35.0597 -83.958 1499.51
vn -0.232358 0 0.97263
v 35.0597 -83.958 1499.51
vn 0.807376 -0.428922 0.405178
v 35.4499 -83.6287 1499.36
vn 0.712052 -0.518043 0.473933
v 35.3596 -83.6287 1499.54
vn 0.882991 0.154814 0.443125
v 35.3596 -83.6287 1499.54
vn 0.372573 0.441813 0.816082
v 35.3596 -83.6287 1499.54
vn 0.324089 0.329671 0.886726
v 35.3596 -82.4287 1498.89
vn 0.395405 0.305841 0.866093
v 35.5097 -82.4287 1498.82
vn 0.228155 0.792215 -0.565986
v 35.6597 -75.9787 1492.69
vn -0.911632 0.255231 -0.322155
v 35.0597 -75.9787 1493.27
vn -0.47791 0.408959 0.777403
v 35.2097 -73.5807 1495.61
vn 0.283045 0.0669676 0.956766
v 35.2097 -73.5807 1495.61
vn -0.0622819 0.792164 0.607122
v 35.2097 -73.5807 1495.61
vn -0.0622819 0.792164 0.607122
v 35.6808 -73.4287 1495.46
vn -0.438698 0.344193 -0.830106
v 36.8596 -87.3787 1479.97
vn -0.325491 -0.729434 -0.60165
v 36.8596 -87.3787 1479.97
vn -0.0248314 -0.371092 -0.928264
v 37.0097 -87.4736 1480.01
vn -0.325491 -0.729434 -0.60165
v 37.0097 -87.4736 1480.01
vn 0.981576 -0.170411 0.0864256
v 36.2597 -80.6569 1497.56
vn 0.769178 0.302525 0.562889
v 36.2597 -80.6569 1497.56
vn 0.761643 0.54266 0.354146
v 36.2597 -80.6569 1497.56
vn 0.853348 -0.400223 0.334094
v 36.003 -81.6787 1498.46
vn 0.297089 0.270405 0.915762
v 36.003 -81.6787 1498.46
vn 0.769178 0.302525 0.562889
v 36.003 -81.6787 1498.46
vn 0.177169 0.370896 0.911618
v 35.9597 -81.2896 1498.31
vn 0.769178 0.302525 0.562889
v 35.9597 -81.2896 1498.31
vn 0.817837 -0.568739 0.0876273
v 36.8139 -79.7287 1493.81
vn 0.575275 0.582808 0.573928
v 36.3522 -79.8787 1496.21
vn 0.823602 0.508999 -0.250201
v 36.3522 -79.8787 1496.21
vn 0.603204 0.44718 0.660436
v 36.2597 -79.7287 1496.2
vn 0.497881 0.443627 0.745191
v 36.3347 -79.5787 1496.06
vn 0.823602 0.508999 -0.250201
v 36.4952 -80.4787 1495.46
vn 0.839149 0.446919 0.309987
v 36.4483 -80.1787 1496.36
vn 0.712311 -0.625068 0.319223
v 36.4097 -80.0097 1495.76
vn 0.934932 -0.262942 0.238252
v 36.4905 -80.0287 1496.36
vn 0.823602 0.508999 -0.250201
v 36.4905 -80.0287 1496.36
vn 0.507136 0.408247 0.759044
v 36.4097 -79.7287 1496.1
vn 0.955567 -0.227029 0.188014
v 36.4097 -79.7287 1496.1
vn -0.0150452 0.245681 0.969234
v 36.4097 -79.7287 1496.1
vn 0.700539 -0.572445 0.42609
v 36.5889 -79.7287 1495.91
vn -0.0266606 0.435353 0.899865
v 36.5597 -79.5649 1496.06
vn 0.649173 -0.447388 0.615157
v 36.5597 -79.5649 1496.06
vn 0.646657 0.463488 0.605817
v 36.5597 -79.5649 1496.06
vn 0.678205 0.591998 0.435403
v 36.3375 -80.1787 1496.66
vn 0.583857 0.661451 0.470738
v 36.2597 -80.0287 1496.55
vn 0.674427 0.382015 0.631833
v 36.6686 -79.1287 1495.61
vn 0.594095 0.400466 0.697623
v 36.5597 -79.1287 1495.73
vn 0.533084 0.28269 0.797438
v 36.6171 -78.6787 1495.46
vn 0.406437 0.145243 0.902061
v 36.7647 -78.0787 1495.31
vn 0.211349 0.130842 0.968613
v 36.7748 -76.5787 1495.01
vn 0.940954 0.309447 -0.137288
v 36.9241 -75.0787 1494.71
vn 0.773474 0.533672 -0.341953
v 36.4097 -74.0697 1494.41
vn 0.7821 0.614788 0.10176
v 36.4265 -73.7287 1495.16
vn 0.714361 0.0388076 0.6987
v 36.6288 -74.0287 1495.01
vn -0.0622819 0.792164 0.607122
v 35.9597 -73.2787 1495.29
vn 0.429948 0.185208 0.883653
v 35.9597 -73.2787 1495.29
vn 0.441421 0.768351 -0.463448
v 35.9597 -73.2787 1495.29
vn 0.704497 0.703763 0.0916627
v 35.9597 -73.2787 1495.29
vn 0.358467 -0.926779 -0.112175
v 37.1597 -87.4168 1479.86
vn -0.349039 0.0928631 -0.932496
v 37.1597 -87.4168 1479.86
vn 0.283314 -0.655929 -0.699636
v 37.1597 -87.4168 1479.86
vn 0.139364 -0.677278 -0.722407
v 37.6096 -87.2225 1479.86
vn 0.139364 -0.677278 -0.722407
v 37.6096 -87.0787 1479.72
vn 0.12842 0.888767 -0.440002
v 38.0597 -84.9752 1480.46
vn -0.455044 0.813675 -0.361756
v 38.0597 -84.9307 1480.61
vn -0.549881 0.731401 -0.403339
v 38.3462 -84.8287 1480.46
vn 0.460221 0.729312 -0.506262
v 37.4597 -80.5221 1487.06
vn 0.980811 0.0146591 0.194408
v 38.1194 -79.5787 1490.21
vn 0.963482 -0.0238544 0.266708
v 37.3296 -79.8787 1492.16
vn 0.77622 -0.487126 0.400239
v 37.1796 -79.4287 1493.06
vn 0.984663 0.0870959 0.151173
v 37.1796 -79.4287 1493.06
vn 0.986953 0.148163 0.0630261
v 38.096 -78.8287 1490.06
vn 0.950259 -0.27794 0.140559
v 37.4597 -78.3787 1492.48
vn 0.959747 0.181628 0.214235
v 37.4597 -78.3787 1492.48
vn 0.711337 -0.530924 0.460564
v 37.6096 -78.3787 1491.95
vn 0.964115 0.0485073 0.261015
v 37.6096 -78.3787 1491.95
vn 0.974268 0.181652 0.133436
v 37.1597 -77.9287 1493.65
vn 0.899681 0.425917 -0.095757
v 37.3413 -76.7287 1492.31
vn -0.00760921 -0.683933 -0.729505
v 38.5097 -86.7787 1479.43
vn -0.536886 0.450845 -0.713087
v 38.5097 -86.7787 1479.43
vn 0.110273 -0.842477 -0.527326
v 38.5097 -86.7787 1479.43
vn 0.620197 0.783404 0.040435
v 39.1096 -85.3684 1480.16
vn 0.917588 -0.166039 0.361197
v 39.1096 -85.3684 1480.16
vn -0.253944 0.853699 -0.454655
v 39.1096 -85.2822 1480.61
vn -0.0122592 0.833408 -0.552522
v 39.2597 -85.459 1479.71
vn 0.982648 0.132364 0.129935
v 39.4858 -85.5787 1480.16
vn 0.697292 0.674041 0.24383
v 39.4097 -85.4287 1479.75
vn -0.133882 0.563553 -0.815159
v 38.9597 -85.1287 1480.1
vn 0.305464 -0.0552741 -0.950598
v 38.9597 -85.1287 1480.1
vn 0.0243451 0.770402 -0.637094
v 38.9597 -85.1287 1480.1
vn 0.706711 0.555857 0.437702
v 38.9597 -85.1287 1480.1
vn 0.756465 0.649664 -0.0754789
v 38.9597 -84.8861 1480.31
vn 0.436272 0.698542 -0.567191
v 38.9597 -84.8861 1480.31
vn 0.756465 0.649664 -0.0754789
v 39.153 -85.1287 1480.16
vn 0.9347 -0.0938227 0.34283
v 39.153 -85.1287 1480.16
vn 0.353224 0.622896 -0.698021
v 39.153 -85.1287 1480.16
vn 0.901646 0.4093 -0.139669
v 38.7617 -84.5287 1481.36
vn 0.962993 -0.0704653 0.260152
v 38.853 -84.8287 1481.06
vn 0.756465 0.649664 -0.0754789
v 38.8563 -84.6787 1481.06
vn 0.977544 0.126041 0.168885
v 38.8563 -84.6787 1481.06
vn 0.468425 0.815628 -0.339601
v 39.1096 -85.0502 1481.06
vn 0.366986 0.909122 0.197024
v 39.1096 -85.0502 1481.06
vn 0.921053 0.384667 0.0607645
v 39.2597 -85.0782 1480.91
vn 0.366986 0.909122 0.197024
v 39.2597 -85.0782 1480.91
vn 0.571467 0.756785 -0.317336
v 39.2597 -85.1287 1481.14
vn 0.366986 0.909122 0.197024
v 39.2597 -85.1287 1481.14
vn -0.287068 0.851422 -0.438946
v 38.9597 -84.5287 1482.17
vn 0.986489 -0.0646452 0.150532
v 39.1366 -84.3787 1482.71
vn 0.865871 0.437651 -0.24234
v 38.8097 -83.9156 1482.71
vn 0.863375 -0.471572 0.179451
v 39.678 -86.3287 1478.96
vn 0.110273 -0.842477 -0.527326
v 39.678 -86.3287 1478.96
vn 0.110273 -0.842477 -0.527326
v 39.7097 -86.1787 1478.73
vn 0.928967 -0.355609 -0.102777
v 39.7097 -86.1787 1478.73
vn 0.803304 0.327358 -0.497532
v 39.7097 -86.1787 1478.73
vn 0.930389 -0.356154 0.0867754
v 39.7929 -86.0287 1478.96
vn 0.803304 0.327358 -0.497532
v 39.7929 -86.0287 1478.96
vn -0.0487108 0.886029 -0.461065
v 39.7097 -85.8246 1478.96
vn 0.965289 0.212965 0.151208
v 39.7097 -85.8246 1478.96
vn 0.836917 0.54553 0.0443466
v 39.7097 -85.8246 1478.96
vn 0.803304 0.327358 -0.497532
v 39.7097 -85.8246 1478.96
f 4//4 3//3 2//2
f 4//4 2//2 5//5
f 6//6 372//372 366//366
f 1//1 6//6 7//7
f 8//8 3//3 4//4
f 4//4 5//5 362//362
f 372//372 6//6 1//1
f 375//375 373//373 9//9
f 374//374 367//367 10//10
f 377//377 52//52 368//368
f 10//10 379//379 374//374
f 363//363 376//376 32//32
f 32//32 376//376 379//379
f 370//370 364//364 13//13
f 10//10 367//367 38//38
f 10//10 37//37 379//379
f 379//379 37//37 32//32
f 10//10 38//38 37//37
f 369//369 11//11 367//367
f 11//11 38//38 367//367
f 39//39 11//11 369//369
f 16//16 22//22 12//12
f 12//12 22//22 378//378
f 20//20 380//380 8//8
f 389//389 381//381 15//15
f 21//21 387//387 382//382
f 14//14 13//13 364//364
f 25//25 383//383 365//365
f 384//384 405//405 28//28
f 387//387 21//21 42//42
f 388//388 426//426 16//16
f 16//16 23//23 22//22
f 371//371 13//13 401//401
f 18//18 13//13 14//14
f 27//27 24//24 17//17
f 27//27 17//17 19//19
f 410//410 394//394 29//29
f 390//390 41//41 18//18
f 392//392 385//385 395//395
f 393//393 396//396 391//391
f 386//386 412//412 397//397
f 402//402 41//41 390//390
f 30//30 397//397 412//412
f 416//416 415//415 398//398
f 426//426 44//44 16//16
f 16//16 44//44 23//23
f 13//13 18//18 41//41
f 41//41 402//402 51//51
f 8//8 4//4 20//20
f 21//21 382//382 399//399
f 401//401 400//400 371//371
f 22//22 23//23 378//378
f 378//378 23//23 437//437
f 363//363 32//32 406//406
f 406//406 32//32 26//26
f 26//26 32//32 33//33
f 408//408 413//413 407//407
f 409//409 34//34 414//414
f 419//419 26//26 33//33
f 48//48 403//403 31//31
f 29//29 417//417 410//410
f 404//404 411//411 418//418
f 30//30 412//412 419//419
f 415//415 416//416 31//31
f 31//31 416//416 35//35
f 402//402 47//47 51//51
f 48//48 433//433 403//403
f 33//33 32//32 37//37
f 36//36 419//419 33//33
f 36//36 33//33 37//37
f 36//36 30//30 419//419
f 35//35 416//416 420//420
f 37//37 35//35 36//36
f 31//31 35//35 57//57
f 57//57 35//35 37//37
f 368//368 52//52 421//421
f 38//38 11//11 40//40
f 38//38 422//422 57//57
f 11//11 39//39 423//423
f 421//421 52//52 53//53
f 423//423 39//39 53//53
f 57//57 37//37 38//38
f 422//422 58//58 57//57
f 43//43 60//60 42//42
f 427//427 443//443 429//429
f 13//13 41//41 428//428
f 21//21 43//43 42//42
f 401//401 13//13 428//428
f 44//44 63//63 437//437
f 44//44 62//62 63//63
f 428//428 41//41 51//51
f 444//444 62//62 44//44
f 44//44 437//437 23//23
f 45//45 51//51 49//49
f 430//430 435//435 50//50
f 46//46 430//430 50//50
f 75//75 46//46 50//50
f 51//51 47//47 434//434
f 57//57 48//48 31//31
f 49//49 51//51 434//434
f 436//436 48//48 57//57
f 57//57 50//50 435//435
f 75//75 50//50 57//57
f 56//56 428//428 51//51
f 430//430 46//46 54//54
f 431//431 55//55 51//51
f 432//432 438//438 55//55
f 428//428 56//56 110//110
f 51//51 55//55 56//56
f 55//55 438//438 64//64
f 43//43 479//479 60//60
f 64//64 56//56 55//55
f 445//445 439//439 66//66
f 108//108 479//479 440//440
f 56//56 59//59 476//476
f 56//56 64//64 59//59
f 46//46 75//75 54//54
f 52//52 128//128 53//53
f 58//58 81//81 57//57
f 76//76 82//82 423//423
f 57//57 81//81 91//91
f 424//424 83//83 441//441
f 424//424 85//85 83//83
f 455//455 425//425 451//451
f 83//83 84//84 441//441
f 68//68 59//59 64//64
f 108//108 442//442 68//68
f 444//444 105//105 109//109
f 444//444 109//109 61//61
f 62//62 444//444 61//61
f 437//437 63//63 70//70
f 66//66 65//65 445//445
f 64//64 446//446 68//68
f 447//447 449//449 67//67
f 69//69 68//68 446//446
f 63//63 120//120 70//70
f 449//449 112//112 67//67
f 447//447 67//67 114//114
f 112//112 114//114 67//67
f 449//449 125//125 112//112
f 75//75 449//449 54//54
f 71//71 70//70 120//120
f 129//129 70//70 71//71
f 120//120 129//129 71//71
f 437//437 70//70 483//483
f 128//128 77//77 53//53
f 125//125 449//449 78//78
f 78//78 449//449 72//72
f 449//449 75//75 73//73
f 73//73 72//72 449//449
f 78//78 72//72 74//74
f 72//72 73//73 74//74
f 73//73 79//79 74//74
f 73//73 75//75 79//79
f 53//53 76//76 423//423
f 76//76 450//450 82//82
f 77//77 76//76 53//53
f 78//78 74//74 132//132
f 75//75 57//57 91//91
f 91//91 79//79 75//75
f 74//74 79//79 80//80
f 132//132 74//74 80//80
f 80//80 79//79 91//91
f 80//80 91//91 132//132
f 451//451 88//88 455//455
f 85//85 87//87 83//83
f 87//87 84//84 83//83
f 58//58 454//454 94//94
f 452//452 86//86 459//459
f 458//458 94//94 454//454
f 459//459 458//458 456//456
f 458//458 96//96 94//94
f 77//77 457//457 453//453
f 458//458 459//459 96//96
f 86//86 89//89 459//459
f 457//457 77//77 460//460
f 89//89 96//96 459//459
f 77//77 130//130 460//460
f 89//89 206//206 96//96
f 90//90 206//206 89//89
f 462//462 461//461 484//484
f 462//462 484//484 131//131
f 92//92 93//93 91//91
f 93//93 92//92 98//98
f 132//132 91//91 93//93
f 92//92 91//91 81//81
f 98//98 92//92 81//81
f 81//81 58//58 104//104
f 94//94 95//95 58//58
f 96//96 95//95 94//94
f 58//58 95//95 104//104
f 96//96 104//104 95//95
f 96//96 206//206 471//471
f 98//98 99//99 463//463
f 98//98 100//100 99//99
f 81//81 136//136 98//98
f 136//136 100//100 98//98
f 464//464 468//468 101//101
f 468//468 97//97 101//101
f 465//465 99//99 100//100
f 100//100 488//488 465//465
f 93//93 469//469 134//134
f 134//134 469//469 466//466
f 81//81 103//103 135//135
f 147//147 135//135 103//103
f 489//489 102//102 467//467
f 102//102 489//489 138//138
f 147//147 103//103 139//139
f 104//104 103//103 81//81
f 139//139 103//103 104//104
f 471//471 246//246 491//491
f 477//477 106//106 62//62
f 107//107 473//473 478//478
f 109//109 105//105 474//474
f 226//226 475//475 472//472
f 473//473 107//107 176//176
f 542//542 62//62 106//106
f 475//475 226//226 178//178
f 479//479 472//472 60//60
f 226//226 472//472 479//479
f 62//62 61//61 477//477
f 111//111 68//68 69//69
f 113//113 111//111 69//69
f 446//446 113//113 69//69
f 111//111 108//108 68//68
f 108//108 111//111 182//182
f 108//108 182//182 479//479
f 119//119 182//182 111//111
f 448//448 481//481 480//480
f 114//114 112//112 115//115
f 125//125 115//115 112//112
f 116//116 480//480 481//481
f 482//482 116//116 481//481
f 115//115 125//125 117//117
f 116//116 111//111 113//113
f 118//118 116//116 482//482
f 117//117 118//118 482//482
f 111//111 116//116 122//122
f 122//122 116//116 118//118
f 117//117 123//123 118//118
f 119//119 111//111 122//122
f 122//122 118//118 123//123
f 182//182 119//119 183//183
f 125//125 124//124 117//117
f 123//123 117//117 121//121
f 123//123 185//185 122//122
f 121//121 185//185 123//123
f 189//189 185//185 121//121
f 121//121 117//117 124//124
f 121//121 124//124 127//127
f 189//189 121//121 127//127
f 192//192 189//189 127//127
f 124//124 125//125 127//127
f 127//127 125//125 126//126
f 192//192 127//127 126//126
f 78//78 132//132 125//125
f 129//129 483//483 70//70
f 128//128 130//130 77//77
f 129//129 195//195 483//483
f 128//128 547//547 130//130
f 132//132 126//126 125//125
f 206//206 90//90 486//486
f 485//485 548//548 487//487
f 132//132 133//133 126//126
f 208//208 126//126 133//133
f 133//133 132//132 208//208
f 132//132 210//210 208//208
f 141//141 132//132 490//490
f 466//466 470//470 134//134
f 93//93 134//134 132//132
f 132//132 134//134 490//490
f 135//135 136//136 81//81
f 490//490 136//136 135//135
f 470//470 490//490 134//134
f 135//135 147//147 490//490
f 137//137 132//132 142//142
f 142//142 132//132 492//492
f 132//132 137//137 210//210
f 140//140 210//210 137//137
f 137//137 157//157 140//140
f 137//137 142//142 157//157
f 490//490 147//147 141//141
f 148//148 141//141 147//147
f 140//140 156//156 210//210
f 153//153 210//210 156//156
f 142//142 492//492 157//157
f 140//140 155//155 156//156
f 493//493 143//143 144//144
f 145//145 498//498 149//149
f 149//149 498//498 496//496
f 494//494 158//158 506//506
f 494//494 498//498 158//158
f 498//498 145//145 158//158
f 497//497 495//495 501//501
f 146//146 509//509 499//499
f 491//491 150//150 500//500
f 502//502 500//500 151//151
f 151//151 500//500 150//150
f 151//151 149//149 502//502
f 502//502 149//149 496//496
f 152//152 151//151 150//150
f 152//152 503//503 151//151
f 146//146 499//499 503//503
f 150//150 491//491 152//152
f 146//146 503//503 152//152
f 140//140 157//157 155//155
f 154//154 505//505 507//507
f 507//507 160//160 154//154
f 153//153 156//156 154//154
f 156//156 505//505 154//154
f 509//509 146//146 220//220
f 273//273 220//220 146//146
f 160//160 159//159 154//154
f 504//504 154//154 159//159
f 162//162 504//504 159//159
f 218//218 504//504 162//162
f 506//506 158//158 161//161
f 508//508 510//510 165//165
f 509//509 221//221 511//511
f 220//220 221//221 509//509
f 159//159 160//160 166//166
f 162//162 163//163 170//170
f 170//170 163//163 159//159
f 162//162 159//159 163//163
f 174//174 162//162 170//170
f 164//164 160//160 507//507
f 165//165 512//512 508//508
f 160//160 164//164 166//166
f 516//516 513//513 514//514
f 511//511 221//221 515//515
f 168//168 515//515 221//221
f 172//172 168//168 221//221
f 166//166 167//167 159//159
f 173//173 518//518 532//532
f 173//173 528//528 518//518
f 533//533 519//519 523//523
f 517//517 169//169 520//520
f 524//524 521//521 525//525
f 159//159 522//522 170//170
f 516//516 514//514 526//526
f 527//527 515//515 168//168
f 528//528 173//173 171//171
f 170//170 529//529 174//174
f 175//175 172//172 221//221
f 172//172 175//175 534//534
f 535//535 539//539 530//530
f 540//540 536//536 531//531
f 107//107 543//543 176//176
f 542//542 544//544 177//177
f 542//542 177//177 62//62
f 179//179 177//177 544//544
f 62//62 177//177 179//179
f 545//545 226//226 180//180
f 179//179 544//544 181//181
f 546//546 545//545 180//180
f 179//179 181//181 229//229
f 179//179 230//230 62//62
f 229//229 230//230 179//179
f 62//62 230//230 63//63
f 183//183 227//227 182//182
f 226//226 182//182 227//227
f 479//479 182//182 226//226
f 184//184 63//63 230//230
f 119//119 122//122 183//183
f 205//205 63//63 184//184
f 231//231 183//183 187//187
f 186//186 185//185 189//189
f 185//185 183//183 122//122
f 188//188 185//185 186//186
f 189//189 188//188 186//186
f 185//185 187//187 183//183
f 188//188 187//187 185//185
f 188//188 189//189 190//190
f 187//187 188//188 231//231
f 231//231 188//188 232//232
f 190//190 232//232 188//188
f 190//190 189//189 191//191
f 190//190 233//233 232//232
f 191//191 189//189 192//192
f 205//205 184//184 235//235
f 129//129 120//120 193//193
f 196//196 129//129 200//200
f 236//236 191//191 192//192
f 190//190 191//191 233//233
f 233//233 191//191 236//236
f 192//192 126//126 203//203
f 192//192 203//203 236//236
f 205//205 120//120 63//63
f 129//129 193//193 194//194
f 129//129 194//194 201//201
f 206//206 486//486 199//199
f 196//196 195//195 129//129
f 487//487 548//548 197//197
f 549//549 195//195 196//196
f 198//198 199//199 486//486
f 486//486 550//550 198//198
f 200//200 129//129 201//201
f 200//200 549//549 196//196
f 550//550 202//202 198//198
f 202//202 199//199 198//198
f 200//200 552//552 549//549
f 202//202 206//206 199//199
f 552//552 200//200 551//551
f 553//553 201//201 207//207
f 554//554 556//556 555//555
f 207//207 201//201 194//194
f 126//126 208//208 204//204
f 203//203 126//126 204//204
f 205//205 235//235 254//254
f 205//205 245//245 120//120
f 245//245 205//205 254//254
f 245//245 193//193 120//120
f 193//193 245//245 194//194
f 570//570 207//207 194//194
f 213//213 247//247 203//203
f 204//204 208//208 209//209
f 203//203 204//204 209//209
f 203//203 209//209 213//213
f 243//243 261//261 491//491
f 261//261 243//243 244//244
f 471//471 206//206 246//246
f 555//555 571//571 573//573
f 208//208 210//210 211//211
f 211//211 209//209 208//208
f 212//212 213//213 209//209
f 211//211 210//210 212//212
f 209//209 211//211 212//212
f 252//252 152//152 491//491
f 210//210 504//504 212//212
f 504//504 213//213 212//212
f 146//146 215//215 273//273
f 215//215 146//146 152//152
f 214//214 213//213 218//218
f 216//216 214//214 218//218
f 218//218 213//213 504//504
f 162//162 219//219 218//218
f 218//218 219//219 216//216
f 275//275 220//220 273//273
f 219//219 217//217 216//216
f 219//219 278//278 217//217
f 278//278 305//305 217//217
f 174//174 219//219 162//162
f 222//222 558//558 537//537
f 221//221 225//225 175//175
f 221//221 220//220 225//225
f 223//223 278//278 219//219
f 219//219 224//224 223//223
f 223//223 224//224 282//282
f 222//222 537//537 224//224
f 222//222 224//224 219//219
f 559//559 538//538 541//541
f 175//175 225//225 560//560
f 562//562 603//603 561//561
f 228//228 546//546 180//180
f 180//180 226//226 563//563
f 227//227 563//563 226//226
f 227//227 333//333 563//563
f 546//546 228//228 565//565
f 227//227 183//183 333//333
f 563//563 333//333 286//286
f 564//564 283//283 566//566
f 229//229 607//607 284//284
f 608//608 563//563 286//286
f 284//284 230//230 229//229
f 321//321 230//230 284//284
f 288//288 183//183 231//231
f 612//612 231//231 232//232
f 293//293 232//232 233//233
f 184//184 297//297 234//234
f 293//293 233//233 236//236
f 297//297 241//241 238//238
f 238//238 234//234 297//297
f 235//235 184//184 234//234
f 238//238 237//237 235//235
f 238//238 235//235 234//234
f 240//240 236//236 247//247
f 238//238 242//242 237//237
f 242//242 238//238 241//241
f 235//235 239//239 254//254
f 239//239 235//235 237//237
f 556//556 571//571 555//555
f 236//236 203//203 247//247
f 240//240 247//247 214//214
f 239//239 237//237 242//242
f 242//242 241//241 311//311
f 239//239 253//253 254//254
f 253//253 239//239 242//242
f 491//491 246//246 243//243
f 243//243 246//246 244//244
f 567//567 245//245 254//254
f 574//574 572//572 568//568
f 240//240 214//214 298//298
f 615//615 298//298 557//557
f 214//214 247//247 213//213
f 217//217 298//298 214//214
f 249//249 248//248 311//311
f 618//618 263//263 249//249
f 242//242 311//311 248//248
f 242//242 248//248 253//253
f 248//248 265//265 258//258
f 258//258 265//265 259//259
f 262//262 265//265 248//248
f 248//248 249//249 262//262
f 491//491 261//261 251//251
f 251//251 252//252 491//491
f 253//253 255//255 250//250
f 593//593 256//256 576//576
f 588//588 257//257 582//582
f 585//585 578//578 576//576
f 586//586 250//250 255//255
f 576//576 578//578 593//593
f 579//579 578//578 585//585
f 253//253 248//248 255//255
f 254//254 253//253 583//583
f 254//254 583//583 260//260
f 575//575 588//588 582//582
f 580//580 577//577 584//584
f 587//587 589//589 252//252
f 589//589 266//266 252//252
f 257//257 588//588 590//590
f 595//595 591//591 594//594
f 569//569 581//581 592//592
f 592//592 256//256 593//593
f 592//592 593//593 569//569
f 214//214 216//216 217//217
f 309//309 313//313 619//619
f 263//263 267//267 249//249
f 263//263 619//619 270//270
f 313//313 268//268 270//270
f 619//619 313//313 270//270
f 318//318 268//268 313//313
f 263//263 272//272 267//267
f 249//249 267//267 262//262
f 265//265 262//262 267//267
f 152//152 264//264 215//215
f 266//266 152//152 252//252
f 266//266 264//264 152//152
f 595//595 596//596 264//264
f 594//594 596//596 595//595
f 596//596 597//597 264//264
f 270//270 268//268 271//271
f 268//268 318//318 271//271
f 273//273 215//215 264//264
f 263//263 270//270 272//272
f 271//271 272//272 270//270
f 274//274 272//272 271//271
f 274//274 625//625 269//269
f 625//625 274//274 271//271
f 597//597 598//598 264//264
f 273//273 264//264 598//598
f 277//277 269//269 316//316
f 599//599 319//319 600//600
f 598//598 275//275 273//273
f 277//277 274//274 269//269
f 319//319 615//615 600//600
f 275//275 280//280 225//225
f 275//275 225//225 220//220
f 600//600 281//281 599//599
f 602//602 275//275 277//277
f 274//274 277//277 276//276
f 275//275 598//598 276//276
f 276//276 277//277 275//275
f 280//280 604//604 225//225
f 275//275 602//602 280//280
f 282//282 278//278 223//223
f 605//605 279//279 600//600
f 606//606 601//601 279//279
f 600//600 279//279 281//281
f 281//281 279//279 601//601
f 284//284 607//607 285//285
f 610//610 609//609 611//611
f 285//285 320//320 284//284
f 611//611 627//627 610//610
f 320//320 321//321 284//284
f 286//286 333//333 628//628
f 331//331 230//230 321//321
f 184//184 230//230 287//287
f 348//348 287//287 230//230
f 331//331 348//348 230//230
f 612//612 232//232 289//289
f 183//183 288//288 636//636
f 290//290 636//636 288//288
f 290//290 288//288 291//291
f 288//288 613//613 291//291
f 294//294 291//291 613//613
f 613//613 293//293 294//294
f 290//290 292//292 636//636
f 291//291 614//614 290//290
f 294//294 614//614 291//291
f 289//289 232//232 293//293
f 298//298 293//293 236//236
f 298//298 294//294 293//293
f 348//348 296//296 287//287
f 287//287 297//297 184//184
f 287//287 296//296 295//295
f 287//287 295//295 297//297
f 298//298 236//236 240//240
f 295//295 296//296 311//311
f 297//297 295//295 311//311
f 310//310 311//311 296//296
f 303//303 350//350 298//298
f 352//352 301//301 296//296
f 299//299 310//310 296//296
f 300//300 299//299 296//296
f 302//302 307//307 300//300
f 301//301 300//300 296//296
f 354//354 300//300 301//301
f 354//354 302//302 300//300
f 306//306 307//307 302//302
f 311//311 241//241 297//297
f 310//310 300//300 307//307
f 298//298 615//615 303//303
f 615//615 304//304 303//303
f 303//303 304//304 350//350
f 350//350 304//304 312//312
f 312//312 304//304 615//615
f 620//620 355//355 657//657
f 307//307 306//306 356//356
f 353//353 356//356 306//306
f 310//310 299//299 300//300
f 307//307 356//356 308//308
f 356//356 620//620 616//616
f 307//307 314//314 310//310
f 617//617 309//309 619//619
f 319//319 312//312 615//615
f 623//623 314//314 307//307
f 623//623 307//307 308//308
f 616//616 317//317 624//624
f 620//620 317//317 616//616
f 313//313 309//309 617//617
f 318//318 313//313 315//315
f 621//621 310//310 314//314
f 313//313 617//617 315//315
f 269//269 625//625 622//622
f 621//621 314//314 623//623
f 620//620 626//626 317//317
f 622//622 316//316 269//269
f 317//317 319//319 624//624
f 599//599 624//624 319//319
f 358//358 321//321 320//320
f 361//361 628//628 324//324
f 665//665 633//633 327//327
f 361//361 359//359 628//628
f 324//324 628//628 333//333
f 336//336 322//322 637//637
f 630//630 338//338 323//323
f 329//329 321//321 658//658
f 327//327 633//633 638//638
f 630//630 635//635 639//639
f 325//325 630//630 323//323
f 325//325 632//632 344//344
f 630//630 326//326 635//635
f 630//630 325//325 326//326
f 329//329 634//634 343//343
f 666//666 634//634 329//329
f 326//326 667//667 635//635
f 328//328 331//331 321//321
f 328//328 321//321 329//329
f 328//328 329//329 330//330
f 329//329 343//343 330//330
f 330//330 343//343 345//345
f 348//348 331//331 328//328
f 292//292 294//294 332//332
f 335//335 292//292 332//332
f 339//339 335//335 332//332
f 338//338 346//346 323//323
f 334//334 636//636 292//292
f 334//334 292//292 335//335
f 642//642 640//640 647//647
f 646//646 643//643 648//648
f 631//631 643//643 646//646
f 644//644 636//636 334//334
f 644//644 334//334 641//641
f 326//326 325//325 344//344
f 634//634 651//651 343//343
f 337//337 332//332 294//294
f 339//339 332//332 337//337
f 338//338 340//340 346//346
f 646//646 648//648 340//340
f 346//346 340//340 645//645
f 340//340 648//648 645//645
f 346//346 645//645 341//341
f 346//346 341//341 657//657
f 645//645 657//657 341//341
f 632//632 655//655 342//342
f 346//346 347//347 649//649
f 344//344 632//632 342//342
f 653//653 649//649 347//347
f 330//330 345//345 656//656
f 343//343 651//651 345//345
f 650//650 654//654 652//652
f 348//348 328//328 349//349
f 349//349 328//328 656//656
f 657//657 347//347 346//346
f 330//330 656//656 328//328
f 349//349 351//351 348//348
f 656//656 351//351 349//349
f 337//337 294//294 298//298
f 337//337 298//298 350//350
f 351//351 656//656 355//355
f 355//355 347//347 657//657
f 352//352 296//296 348//348
f 348//348 351//351 352//352
f 353//353 354//354 352//352
f 353//353 352//352 351//351
f 353//353 351//351 355//355
f 354//354 301//301 352//352
f 306//306 354//354 353//353
f 306//306 302//302 354//354
f 357//357 356//356 353//353
f 353//353 355//355 357//357
f 355//355 620//620 357//357
f 357//357 620//620 356//356
f 659//659 629//629 660//660
f 329//329 360//360 666//666
f 658//658 661//661 663//663
f 329//329 658//658 663//663
f 662//662 668//668 664//664
