# Wavafront OBJ file of BodyParts3D
# BodyParts3D, Copyright(C) 2010-2011 The Database Center for Life Science licensed under CC Attribution-Share Alike 2.1 Japan.
vn -0.998229 -0.0594436 -0.00215762
v 17.6857 -91.5827 1319.3
vn -0.950743 0.307573 0.0385663
v 18.0112 -89.2285 1319.49
vn -0.95222 0.305177 -0.0120203
v 18.0789 -89.035 1319.04
vn -0.948434 -0.195366 0.249611
v 18.7737 -94.9767 1350.67
vn -0.921904 0.243405 0.301408
v 18.845 -93.0884 1350.65
vn -0.73319 0.61826 0.283172
v 19.5161 -91.4448 1350.02
vn -0.921254 -0.368056 0.125799
v 18.6847 -95.5115 1349.36
vn -0.789378 -0.613117 0.0311561
v 18.8984 -96.1686 1347.75
vn -0.992582 -0.00786601 0.121323
v 17.9451 -93.477 1346.98
vn -0.901556 0.394087 0.178582
v 18.2241 -92.2294 1347.24
vn -0.679337 0.717855 0.152271
v 19.1321 -90.3539 1345.32
vn -0.907754 -0.419484 -0.00399181
v 18.0972 -94.9919 1344.2
vn -0.656433 -0.75236 -0.0552186
v 19.0448 -96.2396 1344
vn -0.997791 -0.0659207 -0.00818785
v 17.6583 -92.9634 1339.93
vn -0.919655 0.389831 0.0476063
v 17.9306 -91.4936 1341.62
vn -0.676794 0.734202 0.0538234
v 18.9691 -89.9266 1340.66
vn -0.772931 0.631602 0.0604733
v 19.0398 -89.5363 1330.66
vn -0.930391 -0.365359 -0.0297457
v 18.4376 -93.7417 1329.69
vn -0.978704 0.202061 0.0361889
v 18.1105 -91.2358 1327.51
vn -0.716291 -0.695149 -0.0607912
v 19.2119 -94.5868 1326.68
vn -0.389436 -0.910864 -0.136625
v 20.4035 -94.7391 1319.61
vn -0.812378 -0.582061 -0.0352999
v 18.4794 -93.2497 1318.89
vn -0.163299 -0.00930571 -0.986533
v 18.6254 -93.0038 1318.8
vn -0.849378 0.523148 0.0698078
v 18.3331 -88.5692 1319.24
vn -0.171489 0.147244 -0.974121
v 18.8153 -88.6614 1319
vn -0.682413 0.728298 0.0624076
v 18.7752 -88.069 1319.44
vn -0.612003 0.786603 0.0819064
v 19.0946 -87.7616 1319.33
vn -0.720661 0.692424 -0.034587
v 18.7917 -88.0707 1319.06
vn -0.0805965 0.12329 -0.989092
v 19.3518 -87.8855 1319.02
vn -0.348334 0.929655 0.120019
v 20.5051 -86.9958 1319.1
vn -0.522053 -0.836641 -0.16581
v 19.2072 -94.0052 1318.86
vn -0.83254 -0.125045 0.539667
v 22.2708 -96.9398 1357.73
vn -0.778343 -0.503952 0.374452
v 22.2834 -97.9861 1357.02
vn -0.642249 -0.759004 0.106907
v 22.1743 -98.776 1354.69
vn -0.863215 -0.395875 0.313278
v 20.5112 -96.9016 1354.2
vn -0.913072 -0.0114106 0.407638
v 19.7546 -94.5271 1353.57
vn -0.835839 0.323364 0.44363
v 19.7488 -93.5553 1353.17
vn -0.807308 0.225827 0.545212
v 20.8298 -94.4729 1355.5
vn -0.638654 0.578104 0.507855
v 21.2607 -92.5729 1354.58
vn -0.753612 0.525529 0.394827
v 19.7748 -92.2001 1351.86
vn -0.557909 0.735074 0.385231
v 20.6327 -91.3923 1351.95
vn -0.327804 0.879866 0.344065
v 21.3201 -91.002 1351.95
vn -0.429747 0.781705 0.451945
v 21.9548 -91.7378 1354.07
vn -0.801321 -0.581716 0.139612
v 19.8688 -97.0154 1351.18
vn -0.275637 -0.944256 -0.180012
v 22.3039 -98.6704 1351.62
vn -0.47474 0.83964 0.263868
v 20.363 -90.5463 1349.41
vn -0.15666 0.962824 0.220063
v 21.7455 -90.1046 1349.51
vn -0.586799 -0.809553 -0.0170624
v 20.5554 -97.7001 1350.75
vn -0.339666 0.925637 0.166802
v 20.468 -89.7536 1346.36
vn -0.284942 -0.951586 -0.115295
v 20.4107 -97.2056 1345.61
vn 0.246747 -0.960219 -0.130752
v 22.5437 -97.3309 1345.03
vn -0.42761 0.899164 0.0930257
v 19.9275 -89.4361 1342.41
vn -0.0494686 0.993038 0.106908
v 21.3353 -89.0134 1341.94
vn -0.496182 0.862865 0.0962689
v 20.8302 -88.1636 1328.69
vn 0.0105913 -0.994864 -0.100662
v 21.8747 -95.8137 1326.95
vn 0.469176 0.882013 0.0438945
v 23.3059 -87.279 1319.41
vn -0.0555596 0.270388 -0.961147
v 20.8633 -87.1054 1319.02
vn -0.0262348 0.311541 -0.949871
v 21.5515 -86.8478 1319.1
vn -0.0198165 0.102917 -0.994493
v 22.2815 -87.4849 1318.95
vn 0.353961 0.932618 0.0702576
v 22.9545 -87.0974 1319.29
vn 0.0259611 0.216607 -0.975914
v 22.9736 -87.2524 1318.97
vn 0.127934 0.892469 -0.432588
v 23.3238 -87.2861 1319.01
vn 0.0498266 -0.980277 -0.191243
v 21.8527 -94.8245 1318.6
vn 0.137108 -0.186455 -0.972849
v 23.577 -94.0318 1318.62
vn -0.676475 0.123649 0.726011
v 24.4354 -96.2576 1360.23
vn -0.564488 0.430501 0.704289
v 23.9437 -94.8074 1359.17
vn -0.760448 -0.290832 0.580633
v 23.4187 -97.9298 1358.96
vn -0.735397 0.203892 0.646235
v 22.6049 -95.2738 1358.09
vn -0.607835 0.499244 0.617489
v 22.5908 -94.0364 1357.42
vn -0.414258 0.726895 0.547735
v 22.9428 -92.62 1356.24
vn -0.184661 0.846442 0.499436
v 24.3097 -92.6365 1357.07
vn -0.653515 -0.717851 0.240018
v 23.8388 -99.6314 1357.41
vn -0.233131 0.881053 0.411577
v 22.6418 -91.5525 1354.24
vn -0.0264197 0.962112 0.271371
v 22.732 -90.4837 1351.31
vn 0.0152655 0.942902 0.332719
v 24.0314 -91.4522 1354.45
vn 0.367018 0.92181 0.124755
v 24.807 -91.1126 1352.46
vn 0.0982261 0.98695 0.127597
v 22.8217 -89.9802 1348.84
vn 0.588599 0.807668 0.0349743
v 24.5984 -90.6961 1348.87
vn 0.180659 -0.940231 -0.288667
v 23.4416 -98.1388 1349.22
vn 0.0156107 -0.942789 -0.333025
v 23.7266 -98.8086 1351.26
vn 0.363968 -0.815954 -0.449161
v 24.8019 -98.1085 1350.16
vn 0.673735 -0.650037 -0.351472
v 25.1747 -96.7298 1347.97
vn 0.581903 0.810529 0.0665732
v 24.0359 -90.0743 1345.18
vn 0.769014 0.638059 -0.038707
v 25.1615 -91.2055 1347.6
vn 0.615505 -0.767312 -0.179962
v 24.2554 -96.6512 1345.43
vn 0.864706 -0.471235 -0.173844
v 25.3648 -95.0614 1344.64
vn 0.869374 -0.491084 -0.0550088
v 25.0905 -94.9712 1341.18
vn 0.896004 0.44353 0.0213714
v 25.223 -91.253 1341.94
vn 0.995942 -0.0799236 -0.0413789
v 25.6354 -92.9915 1342.3
vn 0.654043 -0.753638 -0.0652512
v 24.1003 -96.047 1340.45
vn 0.862515 0.50387 0.046713
v 25.5726 -90.2352 1330.57
vn 0.977015 0.209636 0.0386654
v 25.9211 -91.4443 1332.22
vn 0.531044 -0.842679 -0.0887919
v 24.2013 -95.465 1329.6
vn 0.874663 -0.483407 -0.0358143
v 25.6944 -93.8116 1330.14
vn 0.996937 -0.0758653 -0.0190188
v 26.0547 -92.1955 1327.61
vn 0.976332 0.215783 -0.0146126
v 25.869 -90.5985 1325.05
vn 0.930373 -0.35638 -0.0860256
v 25.7195 -92.6972 1323.63
vn 0.376802 -0.159981 -0.912374
v 24.923 -92.4789 1318.66
vn 0.975159 -0.109549 -0.192519
v 25.5579 -91.5729 1318.99
vn 0.921794 0.369073 -0.118666
v 25.267 -89.2403 1319.16
vn 0.101101 0.0397574 -0.994081
v 25.1553 -89.2556 1318.78
vn 0.567685 0.815038 -0.115956
v 24.0299 -87.6787 1319.21
vn 0.0320685 0.175947 -0.983877
v 24.0491 -87.8411 1318.9
vn 0.728113 0.65315 -0.207959
v 24.56 -88.1601 1319.06
vn 0.519564 -0.845533 -0.122994
v 24.0709 -93.9678 1318.75
vn 0.786699 -0.547041 -0.286096
v 24.6464 -93.4907 1318.97
vn -0.680325 -0.254598 0.687268
v 26.3103 -98.9751 1361.82
vn -0.574054 0.127175 0.808881
v 27.0443 -97.5111 1362.6
vn -0.388549 0.659268 0.643736
v 25.3053 -94.2176 1359.63
vn -0.657048 -0.623737 0.423368
v 25.4957 -100.047 1359.94
vn 0.11585 0.939074 0.323601
v 26.7383 -92.8774 1357.84
vn -0.481533 -0.873819 0.0675829
v 25.253 -100.534 1357.86
vn -0.20352 -0.956631 -0.208412
v 27.7499 -101.44 1357.6
vn 0.576838 0.815624 -0.0448841
v 26.8768 -92.3373 1354.22
vn 0.703263 0.684864 -0.190741
v 27.7622 -93.1417 1353.84
vn 0.0867613 -0.889891 -0.447846
v 25.4086 -99.7074 1353.61
vn 0.521506 -0.561597 -0.642371
v 27.838 -98.3657 1353.09
vn 0.910173 0.156738 -0.38343
v 27.2643 -94.3554 1350.9
vn 0.640859 0.766859 -0.0350258
v 25.5782 -91.4704 1351.14
vn 0.838447 0.501511 -0.213291
v 26.7187 -92.8126 1351
vn 0.686123 -0.499894 -0.528527
v 26.4992 -97.1248 1350.64
vn 0.927835 -0.249554 -0.27721
v 26.0019 -95.2718 1347.8
vn 0.850782 -0.220027 -0.47724
v 26.9385 -95.7376 1350.31
vn 0.955418 0.248457 -0.159516
v 26.1125 -92.8919 1348.06
vn -0.470301 0.0515568 0.880999
v 29.4557 -98.3177 1364.22
vn -0.395233 0.355238 0.847111
v 29.773 -97.2245 1364.1
vn -0.453107 -0.769877 0.449425
v 29.6567 -101.835 1362.43
vn -0.491301 -0.332287 0.805114
v 30.1941 -100.119 1364.41
vn -0.574712 -0.53742 0.61716
v 28.1818 -100.268 1362.84
vn -0.578586 -0.193005 0.792457
v 28.4731 -99.3885 1363.49
vn -0.416617 0.502021 0.757895
v 27.6993 -95.7539 1362.24
vn -0.182555 0.778838 0.60007
v 27.7062 -94.6653 1361.2
vn -0.457999 -0.860748 0.222148
v 27.9696 -101.57 1360.71
vn 0.66313 0.679101 -0.31477
v 29.9105 -94.346 1356.35
vn 0.494664 0.868518 -0.0313767
v 28.2231 -93.1153 1356.13
vn 0.0430272 -0.87715 -0.478285
v 28.822 -101.287 1357
vn 0.608958 -0.167129 -0.775396
v 30.5507 -98.5346 1355.34
vn 0.786316 0.137501 -0.602329
v 29.8066 -96.2479 1354.49
vn 0.751425 0.419281 -0.509474
v 30.3629 -95.3769 1355.66
vn 0.805567 0.447243 -0.388633
v 28.5425 -94.3523 1353.63
vn 0.760491 -0.170941 -0.626444
v 28.3089 -96.6451 1352.66
vn 0.832738 0.158685 -0.53044
v 28.6893 -95.261 1353.25
vn -0.400086 -0.122906 0.908199
v 32.6006 -99.9128 1365.73
vn -0.220357 0.62672 0.747439
v 32.874 -96.8023 1365
vn -0.0131489 0.892405 0.451043
v 32.2057 -95.3365 1363.07
vn -0.434819 -0.63303 0.640473
v 32.0214 -101.786 1364.44
vn 0.22772 0.959335 0.166794
v 30.8634 -94.487 1361.01
vn -0.235375 -0.971191 -0.0372378
v 31.504 -102.809 1361.04
vn -0.299495 -0.928425 0.219838
v 31.7956 -102.746 1362.55
vn -0.0601782 -0.944808 -0.322052
v 32.5863 -102.84 1360.36
vn 0.459561 0.866823 -0.193446
v 30.6669 -94.3029 1358.27
vn 0.642925 0.502575 -0.577984
v 31.7615 -95.543 1357.33
vn 0.290384 -0.651149 -0.7012
v 30.9117 -100.879 1356.98
vn -0.349954 -0.519427 0.779569
v 33.5813 -101.487 1365.54
vn -0.297509 -0.199477 0.933647
v 35.0299 -100.276 1366.59
vn -0.267633 0.299386 0.915828
v 34.2733 -98.1865 1366.18
vn -0.31714 -0.814348 0.486066
v 33.7643 -102.793 1364.19
vn 0.180474 0.982541 -0.0451956
v 35.3925 -95.4346 1362.42
vn -0.142329 -0.989818 -0.00136477
v 35.3132 -103.518 1362.69
vn 0.11026 -0.763236 -0.636643
v 35.0527 -102.352 1359.68
vn 0.411097 0.758561 -0.505553
v 35.871 -96.2419 1360.12
vn 0.266702 -0.426488 -0.864279
v 34.7061 -100.963 1358.47
vn -0.189363 -0.538412 0.82113
v 38.5878 -102.071 1366.83
vn -0.208348 0.0515723 0.976694
v 36.7386 -99.6579 1367.1
vn -0.0947299 0.706465 0.701379
v 36.3472 -96.8136 1365.75
vn -0.231238 -0.762527 0.604219
v 36.2182 -102.787 1365.47
vn -0.173001 -0.958083 0.228358
v 36.646 -103.511 1364.28
vn 0.225351 0.754578 -0.616302
v 37.6072 -96.4937 1360.7
vn 0.31394 -0.0575706 -0.947696
v 36.4645 -98.5197 1358.82
vn -0.172871 -0.254229 0.951569
v 38.8784 -101.026 1367.37
vn -0.083815 0.297113 0.951157
v 39.8469 -98.7183 1367.42
vn -0.0887498 -0.000869039 0.996054
v 40.5832 -100.097 1367.72
vn -0.0664567 0.555234 0.829035
v 39.8342 -97.7757 1366.95
vn 0.0549321 0.924017 0.378385
v 39.5097 -96.2578 1365.13
vn 0.156188 0.986831 0.0420772
v 41.3162 -96.146 1363.81
vn -0.0851375 -0.942812 -0.322269
v 41.648 -103.982 1362.49
vn -0.0296449 -0.609516 -0.79222
v 40.9795 -102.614 1360.64
vn 0.093846 -0.132785 -0.986692
v 41.6578 -101.022 1359.88
vn -0.0601857 -0.283334 0.957131
v 43.4406 -101.573 1367.69
vn 0.0309331 0.0909656 0.995373
v 44.0947 -100.379 1367.81
vn 0.0642015 0.758676 0.648297
v 41.5903 -97.2075 1366.42
vn 0.0450606 0.451585 0.891089
v 42.293 -98.3481 1367.3
vn 0.159818 0.959114 0.233579
v 44.092 -96.8056 1364.99
vn -0.125006 -0.806246 0.578222
v 43.947 -103.935 1366.01
vn 0.0476324 0.158543 -0.986202
v 42.6022 -98.4655 1360.29
vn -0.0550085 -0.558271 0.827833
v 44.5633 -102.915 1367.14
vn 0.0426063 -0.261643 0.964224
v 45.9113 -101.945 1367.6
vn 0.13746 0.325795 0.935394
v 46.5754 -99.7195 1367.46
vn 0.138267 0.595243 0.79156
v 44.7594 -98.405 1367.06
vn 0.176032 0.7826 0.597118
v 44.7655 -97.5947 1366.26
vn 0.133719 0.895955 -0.423538
v 45.9986 -97.4136 1361.94
vn 0.176964 -0.241212 0.954201
v 49.4547 -102.453 1367.14
vn 0.152065 0.00842591 0.988335
v 47.9923 -101.191 1367.51
vn 0.228117 0.581922 0.780596
v 49.3666 -99.2697 1366.6
vn -0.0112009 -0.733794 0.67928
v 47.7959 -104.084 1366.29
vn -0.0679632 -0.914305 0.399284
v 47.8752 -104.871 1365.1
vn 0.080479 -0.516326 0.852602
v 49.1488 -103.33 1366.82
vn -0.126204 -0.992 0.00276052
v 48.3141 -105.287 1363.4
vn -0.158946 0.6131 -0.77385
v 49.3093 -99.2925 1359.88
vn -0.28422 -0.188047 -0.940137
v 48.0431 -103.181 1359.88
vn -0.0996753 0.240544 -0.965507
v 48.0036 -101.479 1359.42
vn 0.24477 0.244166 0.938334
v 50.0957 -100.596 1367.02
vn 0.104331 -0.782251 0.614164
v 51.3494 -104.52 1365.54
vn 0.227632 -0.514203 0.826909
v 52.003 -103.776 1366.03
vn -0.00778906 -0.961636 0.274217
v 50.7475 -105.414 1363.98
vn 0.0278467 0.989804 -0.13969
v 52.7012 -97.9776 1361.43
vn -0.200291 -0.878673 -0.433379
v 50.4957 -105.374 1361.67
vn -0.0357945 -0.999337 -0.00667473
v 52.952 -105.687 1361.87
vn -0.330731 0.0633147 -0.941599
v 50.4924 -101.695 1358.79
vn 0.311308 -0.300323 0.901606
v 53.013 -102.781 1366.19
vn 0.331126 -0.0407954 0.942704
v 53.3352 -102.007 1366.21
vn 0.356349 -0.495184 0.792344
v 55.5639 -103.721 1364.71
vn 0.338043 0.218282 0.915467
v 53.422 -100.925 1366.08
vn 0.317386 0.500705 0.805332
v 53.6402 -99.9736 1365.63
vn 0.21119 0.854326 0.474896
v 53.3799 -98.6004 1364.37
vn 0.348006 0.661813 0.663999
v 55.4292 -99.0697 1364.06
vn 0.112056 -0.937661 0.328992
v 53.5964 -105.545 1363.06
vn 0.251538 -0.730585 0.634803
v 54.2977 -104.55 1364.58
vn -0.133503 0.961743 -0.239225
v 55.2123 -98.0285 1360.15
vn -0.359787 0.665502 -0.653957
v 53.5698 -99.2194 1358.58
vn -0.407449 -0.468135 -0.784114
v 53.7527 -103.538 1357.85
vn -0.444518 0.106487 -0.889418
v 54.4062 -101.201 1357.06
vn 0.440882 -0.310858 0.842016
v 56.5981 -103.015 1364.54
vn 0.438868 0.294816 0.84881
v 55.8018 -100.928 1365.05
vn 0.491318 -0.0257923 0.870598
v 57.6289 -102 1364.21
vn 0.247565 -0.855035 0.45566
v 56.0361 -105.085 1363.01
vn 0.391766 -0.639272 0.661702
v 57.0385 -104.283 1363.5
vn 0.0652677 0.984798 0.160977
v 55.8346 -98.14 1362.05
vn 0.138754 -0.974361 0.177109
v 58.6395 -105.542 1359.94
vn 0.304814 -0.847037 0.43545
v 59.9776 -104.884 1360.88
vn -0.0232151 -0.992214 -0.122359
v 59.4209 -105.537 1358.09
vn -0.471812 0.267694 -0.840079
v 61.5934 -100.65 1352.56
vn -0.233508 0.870426 -0.433396
v 61.7758 -98.2323 1354.48
vn -0.0593617 0.987 -0.149355
v 63.1337 -97.7721 1355.13
vn -0.487899 -0.197889 -0.850173
v 62.0098 -102.249 1352.34
vn -0.310609 0.667032 -0.677193
v 62.5712 -99.0412 1352.97
vn -0.00933231 0.998231 -0.0587197
v 67.0181 -97.8539 1354.54
vn -0.366217 -0.631382 -0.683551
v 66.338 -103.624 1350.65
vn -0.267304 0.773173 -0.575111
v 67.221 -99.367 1351.1
vn -0.375435 0.476555 -0.794949
v 67.3279 -100.808 1349.8
vn 0.482665 0.249522 0.839508
v 67.6659 -100.313 1357.75
vn 0.51033 -0.0281342 0.859518
v 68.4207 -101.537 1357.5
vn 0.393121 0.58299 0.71104
v 68.3727 -99.2061 1356.73
vn -0.143614 0.8918 -0.429032
v 68.1869 -98.356 1352.25
vn -0.337182 -0.496344 -0.799969
v 68.4882 -103.075 1349.13
vn -0.153535 -0.911557 -0.381434
v 69.5382 -104.47 1350.29
vn -0.419714 0.0733895 -0.904685
v 69.5283 -101.843 1348.4
vn 0.476849 -0.0243854 0.878647
v 72.3626 -101.241 1355.29
vn 0.328743 -0.761557 0.558533
v 70.3636 -103.888 1355.02
vn 0.457412 -0.369946 0.808649
v 72.4451 -102.929 1354.75
vn 0.161738 0.928238 0.334986
v 71.9963 -98.0053 1353.04
vn -0.133767 0.966065 -0.220962
v 71.3608 -98.0095 1351.54
vn 0.122785 -0.981725 0.145393
v 70.4931 -104.733 1352.72
vn 0.407305 -0.200757 0.890954
v 75.2535 -101.817 1353.76
vn 0.422873 0.282684 0.860969
v 73.7662 -100.095 1354.33
vn 0.304717 0.669393 0.67754
v 74.8314 -98.7555 1352.94
vn 0.327283 -0.566536 0.756256
v 77.8237 -103.055 1352.08
vn -0.0222395 0.99971 -0.00920143
v 77.7794 -97.6128 1348.72
vn 0.159826 -0.90067 0.404041
v 78.294 -104.337 1350.36
vn -0.0286718 -0.997878 -0.0584615
v 78.3987 -104.695 1348.24
vn -0.175632 0.920417 -0.349264
v 77.133 -97.8266 1347.63
vn -0.289436 0.632461 -0.718484
v 77.9465 -98.7323 1345.78
vn -0.345494 -0.137485 -0.928295
v 78.0759 -101.263 1344.84
vn -0.381879 0.372149 -0.845975
v 76.491 -99.7844 1345.74
vn -0.328442 0.246201 -0.911872
v 78.7455 -100.178 1344.69
vn -0.170421 -0.845109 -0.506702
v 80.9462 -104.253 1345.73
vn 0.297129 -0.0160715 0.954702
v 83.4534 -101.546 1350.38
vn 0.258826 0.481798 0.837186
v 83.7545 -99.4855 1349.86
vn 0.168763 0.806361 0.566834
v 83.76 -98.3866 1348.85
vn 0.292771 -0.450873 0.843207
v 81.9919 -103.065 1350.43
vn 0.0410322 0.982221 0.183189
v 83.4472 -97.8045 1347.51
vn -0.037894 -0.975445 -0.21696
v 82.343 -104.661 1346.18
vn 0.0853943 -0.976621 0.197282
v 84.0257 -104.663 1347.8
vn -0.123897 0.818619 -0.560814
v 84.2981 -98.2619 1344.44
vn -0.133852 0.604967 -0.784919
v 84.3588 -99.0003 1343.63
vn -0.0314477 -0.856859 -0.514591
v 84.4913 -104.203 1344.78
vn -0.219403 -0.404233 -0.887952
v 82.7281 -102.446 1343.6
vn -0.150268 -0.677622 -0.719894
v 83.797 -103.692 1344.21
vn -0.264102 -0.0302517 -0.96402
v 81.9915 -101.35 1343.54
vn -0.184642 0.342606 -0.921156
v 84.0589 -99.9064 1343.2
vn -0.113178 0.0797507 -0.990369
v 84.4502 -100.784 1342.97
vn 0.374857 0.0334787 0.926478
v 85.5591 -100.968 1349.86
vn 0.273736 0.326342 0.904748
v 85.5304 -99.9114 1349.67
vn 0.233356 -0.777629 0.583813
v 85.0338 -104.2 1348.42
vn 0.316281 -0.561152 0.764902
v 85.3197 -103.356 1349.23
vn 0.391777 -0.26357 0.8815
v 85.9682 -102.231 1349.53
vn 0.475978 -0.671731 0.567647
v 86.0568 -103.641 1348.63
vn 0.634943 -0.579461 0.510953
v 86.3607 -103.385 1348.54
vn 0.931445 0.106482 -0.347954
v 86.3415 -103.195 1348.09
vn 0.518013 -0.423914 0.74294
v 86.3582 -102.745 1349.04
vn 0.930796 -0.21873 -0.292875
v 85.5846 -100.172 1347.19
vn 0.853576 -0.0317706 -0.519999
v 85.9049 -101.324 1348.05
vn 0.533423 0.28921 0.794869
v 86.2478 -100.017 1349.38
vn 0.757154 0.298541 0.581026
v 86.5819 -100.121 1349.12
vn 0.566011 -0.0524531 0.822727
v 86.4988 -101.553 1349.32
vn 0.894584 -0.0212412 -0.446395
v 86.5173 -101.037 1348.73
vn 0.991357 -0.0576064 -0.117868
v 86.5581 -102.14 1348.8
vn 0.0931178 0.994847 -0.0401021
v 85.265 -97.6734 1345.91
vn 0.277711 0.915813 0.290107
v 85.5441 -97.9789 1347.8
vn 0.385889 0.916789 -0.102891
v 85.6226 -97.7699 1345.83
vn 0.330564 0.660165 0.674469
v 85.8784 -98.7506 1348.8
vn 0.452083 0.807809 0.37824
v 86.0917 -98.3267 1347.97
vn 0.875282 -0.220606 -0.430365
v 86.2403 -98.5873 1347.33
vn 0.832515 0.540008 -0.123736
v 86.0285 -98.0215 1345.95
vn 0.71132 0.51604 0.477207
v 86.2444 -98.8365 1348.57
vn 0.890175 0.424515 0.165455
v 86.3887 -98.9643 1348.25
vn 0.128506 -0.9907 0.0447128
v 85.4734 -104.652 1346.74
vn 0.201818 -0.963352 -0.176697
v 85.5053 -104.597 1345.96
vn 0.1431 -0.915856 -0.375141
v 85.5284 -104.372 1345.25
vn 0.325599 -0.8959 0.302239
v 85.7869 -104.461 1347.44
vn 0.498277 -0.866872 -0.0158925
v 85.8216 -104.569 1346.72
vn 0.953991 0.299758 0.00677658
v 86.1065 -104.133 1345.81
vn 0.561411 -0.767766 -0.308793
v 85.8705 -104.307 1345.39
vn 0.937136 0.233904 -0.258968
v 86.1039 -103.474 1347.41
vn 0.620007 -0.752711 0.221399
v 86.1684 -104.248 1347.37
vn 0.960959 0.102678 -0.256932
v 85.4532 -101.739 1347.06
vn 0.991462 -0.116925 0.0577126
v 85.3623 -100.579 1346.2
vn 0.93112 0.300734 -0.206337
v 85.6821 -102.969 1346.82
vn 0.97707 0.16536 0.134129
v 85.5116 -102.268 1345.77
vn -0.0376803 0.965375 -0.258129
v 84.5902 -97.777 1345.39
vn 0.026506 0.848834 -0.527994
v 84.9963 -98.1969 1344.45
vn 0.0770811 0.701929 -0.708063
v 85.0372 -98.6638 1343.89
vn 0.0969784 0.501786 -0.859538
v 85.0812 -99.3129 1343.4
vn 0.168865 0.941513 -0.291611
v 85.2895 -97.7778 1345.43
vn 0.164693 0.888433 -0.428443
v 85.327 -98.0474 1344.79
vn 0.346079 0.746791 -0.56792
v 85.3466 -98.2302 1344.48
vn 0.781838 0.323511 -0.532982
v 85.6999 -99.2874 1343.8
vn 0.435709 0.564351 -0.701189
v 85.4097 -99.0368 1343.68
vn 0.53112 0.361894 -0.766123
v 85.434 -99.4371 1343.45
vn 0.498974 0.781126 -0.375323
v 85.6593 -97.9951 1345.16
vn 0.979975 -0.159022 0.119835
v 85.7869 -99.5336 1345.04
vn 0.978234 0.112452 -0.174395
v 85.8873 -99.015 1344.46
vn 0.737984 0.489795 -0.4642
v 85.723 -98.7129 1344.28
vn 0.996414 0.0247255 0.0809161
v 85.9439 -100.708 1344.02
vn 0.888461 0.175727 -0.423978
v 85.8672 -100.062 1343.75
vn 0.982636 -0.168899 -0.0768023
v 86.0528 -98.4776 1345.76
vn 0.0442385 -0.728544 -0.683569
v 85.203 -103.701 1344.13
vn 0.0126242 -0.579091 -0.815165
v 85.205 -103.146 1343.64
vn 0.155221 -0.393583 -0.90609
v 85.1994 -102.538 1343.28
vn 0.297163 -0.773314 -0.560071
v 85.5469 -103.934 1344.47
vn 0.352271 -0.588056 -0.728077
v 85.5527 -103.406 1343.91
vn 0.994302 0.0514779 0.093348
v 85.9632 -102.784 1344.49
vn 0.845024 -0.393851 -0.361685
v 85.8885 -103.581 1344.39
vn 0.989219 -0.0464206 -0.138893
v 86.0145 -102.267 1343.9
vn 0.724258 -0.284565 -0.628071
v 85.889 -102.732 1343.7
vn -0.0957438 -0.172809 -0.980291
v 84.8274 -101.537 1342.96
vn 0.128836 0.280414 -0.951194
v 85.1163 -99.959 1343.11
vn 0.117198 -0.185482 -0.975634
v 85.1775 -101.529 1342.97
vn 0.127903 0.0332837 -0.991228
v 85.1661 -101.164 1342.94
vn 0.538956 0.196844 -0.819011
v 85.4785 -100.321 1343.13
vn 0.45311 -0.105207 -0.885225
v 85.5237 -101.494 1343.04
vn 0.87708 0.0475866 -0.477982
v 85.8416 -100.953 1343.35
vn -0.494182 -0.0205351 -0.869116
v 17.6857 -91.5827 1319.3
vn -0.291172 0.0175408 -0.95651
v 18.0789 -89.035 1319.04
vn -0.307575 0.516026 -0.799447
v 18.0789 -89.035 1319.04
vn -0.380468 -0.117843 -0.917255
v 18.4794 -93.2497 1318.89
vn -0.383256 0.308848 -0.870476
v 18.3331 -88.5692 1319.24
vn -0.37687 0.712695 -0.591637
v 19.0946 -87.7616 1319.33
vn -0.279424 0.0983663 -0.955116
v 18.7917 -88.0707 1319.06
vn -0.299634 0.776989 -0.553631
v 18.7917 -88.0707 1319.06
vn -0.37687 0.712695 -0.591637
v 19.3518 -87.8855 1319.02
vn -0.449756 0.640175 -0.622813
v 20.5051 -86.9958 1319.1
vn -0.108357 0.381134 -0.918148
v 20.5051 -86.9958 1319.1
vn -0.196872 -0.17635 -0.964439
v 19.2072 -94.0052 1318.86
vn 0.393422 0.918309 0.0438994
v 20.8302 -88.1636 1328.69
vn 0.0115736 0.994483 0.104256
v 21.5515 -86.8478 1319.1
vn 0.211918 0.881456 -0.422051
v 21.5515 -86.8478 1319.1
vn 0.170081 0.887771 -0.427709
v 22.9545 -87.0974 1319.29
vn 0.170081 0.887771 -0.427709
v 22.9736 -87.2524 1318.97
vn 0.123716 0.345819 -0.93011
v 23.3238 -87.2861 1319.01
vn 0.499455 0.857893 -0.120684
v 23.3238 -87.2861 1319.01
vn -0.0834337 -0.0386705 -0.995763
v 21.8527 -94.8245 1318.6
vn 0.282986 -0.600659 -0.747749
v 21.8527 -94.8245 1318.6
vn 0.469509 0.000275429 -0.882928
v 25.5579 -91.5729 1318.99
vn 0.901352 0.331148 -0.279115
v 25.1553 -89.2556 1318.78
vn 0.51423 0.460997 -0.723222
v 25.1553 -89.2556 1318.78
vn 0.55258 0.672292 -0.492625
v 24.0491 -87.8411 1318.9
vn 0.395035 -0.412404 -0.820896
v 24.0709 -93.9678 1318.75
vn 0.388714 0.511876 -0.766084
v 36.4645 -98.5197 1358.82
vn 0.140347 0.678117 -0.721429
v 42.6022 -98.4655 1360.29
vn -0.194748 -0.742071 -0.641408
v 48.0431 -103.181 1359.88
vn -0.159622 -0.306921 -0.938254
v 48.0036 -101.479 1359.42
vn 0.988072 -0.151157 0.0294119
v 86.3607 -103.385 1348.54
vn 0.935735 -0.194703 0.294095
v 86.3582 -102.745 1349.04
vn 0.996145 0.00036366 -0.0877267
v 86.5819 -100.121 1349.12
vn 0.965037 -0.110307 0.237774
v 86.4988 -101.553 1349.32
vn 0.889269 0.448904 0.0876645
v 86.0917 -98.3267 1347.97
vn 0.986463 0.156994 -0.0473612
v 86.2403 -98.5873 1347.33
vn 0.925534 -0.0903743 -0.367721
v 86.3887 -98.9643 1348.25
vn 0.857361 -0.484369 -0.17412
v 86.1065 -104.133 1345.81
vn 0.986016 0.0263519 -0.164553
v 86.1684 -104.248 1347.37
f 19//19 1//1 18//18
f 1//1 22//22 18//18
f 356//356 353//353 23//23
f 19//19 2//2 1//1
f 2//2 3//3 1//1
f 353//353 354//354 23//23
f 36//36 5//5 4//4
f 37//37 40//40 5//5
f 37//37 5//5 36//36
f 44//44 4//4 7//7
f 44//44 7//7 8//8
f 4//4 44//44 35//35
f 5//5 40//40 6//6
f 8//8 13//13 48//48
f 8//8 48//48 44//44
f 4//4 5//5 9//9
f 5//5 10//10 9//9
f 9//9 7//7 4//4
f 6//6 10//10 5//5
f 10//10 6//6 11//11
f 11//11 15//15 10//10
f 12//12 8//8 7//7
f 8//8 12//12 13//13
f 48//48 13//13 50//50
f 15//15 14//14 9//9
f 9//9 14//14 12//12
f 10//10 15//15 9//9
f 12//12 7//7 9//9
f 16//16 11//11 52//52
f 11//11 49//49 52//52
f 12//12 18//18 20//20
f 20//20 13//13 12//12
f 12//12 14//14 18//18
f 15//15 19//19 14//14
f 11//11 16//16 15//15
f 50//50 13//13 21//21
f 14//14 19//19 18//18
f 15//15 17//17 19//19
f 16//16 17//17 15//15
f 21//21 13//13 20//20
f 20//20 18//18 22//22
f 16//16 54//54 17//17
f 17//17 54//54 26//26
f 19//19 24//24 2//2
f 24//24 17//17 26//26
f 19//19 17//17 24//24
f 30//30 27//27 54//54
f 27//27 26//26 54//54
f 54//54 77//77 30//30
f 31//31 21//21 20//20
f 356//356 23//23 364//364
f 20//20 22//22 31//31
f 24//24 3//3 2//2
f 357//357 25//25 355//355
f 25//25 23//23 354//354
f 24//24 26//26 28//28
f 359//359 25//25 357//357
f 23//23 25//25 59//59
f 59//59 25//25 29//29
f 27//27 28//28 26//26
f 29//29 25//25 359//359
f 358//358 361//361 360//360
f 361//361 358//358 362//362
f 59//59 29//29 57//57
f 57//57 29//29 363//363
f 58//58 57//57 363//363
f 31//31 63//63 21//21
f 364//364 23//23 372//372
f 68//68 38//38 32//32
f 68//68 69//69 38//38
f 38//38 69//69 39//39
f 39//39 69//69 70//70
f 34//34 72//72 33//33
f 35//35 36//36 4//4
f 38//38 36//36 32//32
f 32//32 36//36 35//35
f 33//33 35//35 34//34
f 35//35 33//33 32//32
f 38//38 39//39 37//37
f 38//38 37//37 36//36
f 70//70 43//43 39//39
f 37//37 39//39 40//40
f 41//41 40//40 39//39
f 42//42 46//46 41//41
f 43//43 41//41 39//39
f 43//43 42//42 41//41
f 46//46 42//42 47//47
f 70//70 73//73 43//43
f 73//73 42//42 43//43
f 74//74 47//47 42//42
f 44//44 34//34 35//35
f 34//34 44//44 48//48
f 41//41 6//6 40//40
f 6//6 41//41 46//46
f 46//46 11//11 6//6
f 11//11 46//46 49//49
f 47//47 49//49 46//46
f 53//53 49//49 47//47
f 77//77 47//47 74//74
f 48//48 50//50 45//45
f 50//50 79//79 45//45
f 49//49 53//53 52//52
f 53//53 47//47 77//77
f 79//79 50//50 51//51
f 54//54 52//52 53//53
f 16//16 52//52 54//54
f 53//53 77//77 365//365
f 50//50 21//21 55//55
f 51//51 50//50 55//55
f 21//21 63//63 55//55
f 55//55 93//93 51//51
f 77//77 366//366 30//30
f 77//77 60//60 366//366
f 56//56 60//60 83//83
f 83//83 102//102 56//56
f 59//59 57//57 58//58
f 59//59 58//58 61//61
f 368//368 369//369 367//367
f 62//62 369//369 368//368
f 103//103 59//59 61//61
f 370//370 103//103 61//61
f 56//56 102//102 371//371
f 60//60 56//56 371//371
f 102//102 377//377 371//371
f 63//63 93//93 55//55
f 93//93 63//63 105//105
f 372//372 23//23 64//64
f 98//98 64//64 23//23
f 131//131 109//109 66//66
f 66//66 65//65 131//131
f 65//65 66//66 68//68
f 32//32 65//65 68//68
f 32//32 67//67 65//65
f 32//32 33//33 67//67
f 72//72 110//110 33//33
f 33//33 110//110 67//67
f 107//107 65//65 67//67
f 107//107 67//67 110//110
f 68//68 66//66 69//69
f 109//109 69//69 66//66
f 70//70 69//69 109//109
f 70//70 71//71 73//73
f 71//71 75//75 73//73
f 109//109 71//71 70//70
f 71//71 109//109 132//132
f 111//111 75//75 71//71
f 72//72 34//34 112//112
f 112//112 34//34 45//45
f 34//34 48//48 45//45
f 74//74 42//42 73//73
f 75//75 74//74 73//73
f 74//74 75//75 76//76
f 111//111 76//76 75//75
f 80//80 116//116 45//45
f 76//76 119//119 78//78
f 76//76 77//77 74//74
f 45//45 79//79 80//80
f 80//80 79//79 81//81
f 81//81 116//116 80//80
f 81//81 79//79 82//82
f 77//77 76//76 83//83
f 76//76 78//78 83//83
f 78//78 84//84 83//83
f 84//84 78//78 119//119
f 79//79 51//51 85//85
f 82//82 79//79 85//85
f 82//82 85//85 86//86
f 122//122 82//82 86//86
f 84//84 124//124 88//88
f 83//83 84//84 88//88
f 51//51 90//90 85//85
f 85//85 90//90 87//87
f 86//86 85//85 87//87
f 86//86 87//87 89//89
f 87//87 90//90 94//94
f 87//87 94//94 89//89
f 89//89 92//92 88//88
f 77//77 83//83 60//60
f 93//93 90//90 51//51
f 93//93 94//94 90//90
f 88//88 92//92 91//91
f 89//89 95//95 92//92
f 88//88 91//91 83//83
f 89//89 94//94 95//95
f 92//92 96//96 91//91
f 83//83 91//91 104//104
f 95//95 94//94 97//97
f 96//96 92//92 95//95
f 104//104 91//91 100//100
f 106//106 94//94 93//93
f 100//100 91//91 96//96
f 95//95 99//99 96//96
f 83//83 104//104 102//102
f 93//93 105//105 106//106
f 94//94 106//106 97//97
f 101//101 98//98 23//23
f 99//99 106//106 98//98
f 374//374 98//98 101//101
f 106//106 99//99 97//97
f 95//95 97//97 99//99
f 101//101 59//59 103//103
f 23//23 59//59 101//101
f 104//104 100//100 375//375
f 100//100 99//99 375//375
f 96//96 99//99 100//100
f 102//102 104//104 377//377
f 104//104 376//376 377//377
f 378//378 373//373 64//64
f 378//378 64//64 98//98
f 106//106 378//378 98//98
f 129//129 110//110 133//133
f 129//129 107//107 110//110
f 129//129 133//133 127//127
f 65//65 108//108 131//131
f 107//107 108//108 65//65
f 126//126 131//131 108//108
f 131//131 132//132 109//109
f 108//108 125//125 126//126
f 111//111 132//132 145//145
f 110//110 72//72 112//112
f 110//110 112//112 133//133
f 113//113 133//133 112//112
f 111//111 71//71 132//132
f 111//111 135//135 76//76
f 76//76 135//135 114//114
f 111//111 147//147 135//135
f 112//112 45//45 113//113
f 45//45 116//116 113//113
f 136//136 113//113 116//116
f 113//113 150//150 148//148
f 114//114 119//119 76//76
f 135//135 115//115 114//114
f 114//114 115//115 119//119
f 81//81 117//117 116//116
f 141//141 117//117 121//121
f 123//123 141//141 121//121
f 123//123 122//122 118//118
f 120//120 115//115 140//140
f 142//142 118//118 140//140
f 142//142 123//123 118//118
f 119//119 115//115 120//120
f 118//118 120//120 140//140
f 121//121 81//81 82//82
f 81//81 121//121 117//117
f 123//123 82//82 122//122
f 123//123 121//121 82//82
f 119//119 120//120 84//84
f 89//89 88//88 124//124
f 124//124 120//120 118//118
f 120//120 124//124 84//84
f 122//122 124//124 118//118
f 124//124 122//122 89//89
f 89//89 122//122 86//86
f 126//126 144//144 131//131
f 144//144 132//132 131//131
f 146//146 129//129 127//127
f 146//146 128//128 129//129
f 125//125 108//108 130//130
f 130//130 108//108 107//107
f 130//130 107//107 129//129
f 128//128 130//130 129//129
f 125//125 130//130 128//128
f 111//111 145//145 147//147
f 113//113 148//148 133//133
f 135//135 151//151 134//134
f 134//134 152//152 139//139
f 147//147 151//151 135//135
f 113//113 136//136 150//150
f 116//116 153//153 136//136
f 136//136 153//153 160//160
f 162//162 153//153 137//137
f 137//137 153//153 117//117
f 139//139 142//142 140//140
f 141//141 138//138 137//137
f 138//138 142//142 139//139
f 138//138 139//139 152//152
f 134//134 140//140 115//115
f 135//135 134//134 115//115
f 134//134 139//139 140//140
f 153//153 116//116 117//117
f 117//117 141//141 137//137
f 123//123 142//142 141//141
f 142//142 138//138 141//141
f 146//146 154//154 128//128
f 125//125 128//128 143//143
f 128//128 154//154 143//143
f 156//156 126//126 125//125
f 126//126 156//156 144//144
f 132//132 144//144 145//145
f 146//146 127//127 157//157
f 149//149 157//157 127//127
f 146//146 157//157 154//154
f 147//147 145//145 158//158
f 151//151 147//147 158//158
f 149//149 127//127 133//133
f 149//149 133//133 148//148
f 151//151 152//152 134//134
f 152//152 137//137 138//138
f 125//125 143//143 156//156
f 155//155 143//143 154//154
f 155//155 156//156 143//143
f 156//156 155//155 164//164
f 155//155 170//170 164//164
f 145//145 144//144 165//165
f 156//156 165//165 144//144
f 145//145 174//174 158//158
f 167//167 166//166 157//157
f 159//159 149//149 148//148
f 154//154 157//157 166//166
f 161//161 151//151 158//158
f 159//159 148//148 150//150
f 160//160 150//150 136//136
f 169//169 162//162 137//137
f 151//151 161//161 152//152
f 152//152 379//379 137//137
f 153//153 162//162 160//160
f 166//166 163//163 154//154
f 163//163 155//155 154//154
f 171//171 156//156 164//164
f 163//163 170//170 155//155
f 171//171 173//173 156//156
f 173//173 165//165 156//156
f 174//174 145//145 165//165
f 157//157 149//149 167//167
f 167//167 149//149 159//159
f 176//176 167//167 159//159
f 379//379 161//161 168//168
f 158//158 168//168 161//161
f 176//176 159//159 150//150
f 177//177 160//160 162//162
f 176//176 160//160 177//177
f 161//161 379//379 152//152
f 166//166 167//167 184//184
f 166//166 184//184 163//163
f 172//172 164//164 170//170
f 172//172 171//171 164//164
f 172//172 170//170 179//179
f 170//170 163//163 179//179
f 180//180 171//171 172//172
f 171//171 182//182 173//173
f 180//180 172//172 179//179
f 165//165 173//173 181//181
f 181//181 174//174 165//165
f 182//182 181//181 173//173
f 183//183 174//174 181//181
f 175//175 191//191 158//158
f 174//174 183//183 175//175
f 158//158 174//174 175//175
f 198//198 167//167 176//176
f 191//191 168//168 158//158
f 150//150 160//160 176//176
f 178//178 162//162 169//169
f 177//177 162//162 178//178
f 184//184 186//186 163//163
f 179//179 163//163 186//186
f 184//184 195//195 186//186
f 182//182 171//171 180//180
f 182//182 180//180 188//188
f 181//181 190//190 183//183
f 189//189 181//181 182//182
f 189//189 190//190 181//181
f 191//191 175//175 183//183
f 178//178 169//169 185//185
f 379//379 168//168 380//380
f 191//191 380//380 168//168
f 187//187 179//179 186//186
f 180//180 179//179 187//187
f 197//197 186//186 195//195
f 197//197 187//187 186//186
f 182//182 188//188 189//189
f 180//180 193//193 188//188
f 215//215 183//183 190//190
f 196//196 167//167 198//198
f 195//195 184//184 196//196
f 196//196 184//184 167//167
f 207//207 176//176 177//177
f 201//201 178//178 185//185
f 177//177 178//178 382//382
f 199//199 380//380 191//191
f 199//199 201//201 185//185
f 177//177 382//382 200//200
f 180//180 187//187 193//193
f 187//187 192//192 193//193
f 197//197 192//192 187//187
f 192//192 211//211 193//193
f 193//193 211//211 202//202
f 194//194 189//189 188//188
f 189//189 194//194 190//190
f 193//193 202//202 188//188
f 194//194 215//215 190//190
f 194//194 188//188 202//202
f 196//196 203//203 195//195
f 197//197 195//195 203//203
f 206//206 183//183 215//215
f 191//191 183//183 206//206
f 196//196 198//198 205//205
f 207//207 177//177 381//381
f 200//200 382//382 209//209
f 201//201 199//199 209//209
f 211//211 192//192 210//210
f 214//214 194//194 202//202
f 215//215 194//194 214//214
f 211//211 213//213 202//202
f 213//213 214//214 202//202
f 204//204 192//192 197//197
f 204//204 197//197 203//203
f 192//192 204//204 210//210
f 204//204 203//203 218//218
f 218//218 203//203 217//217
f 210//210 204//204 212//212
f 212//212 204//204 218//218
f 206//206 215//215 228//228
f 203//203 196//196 205//205
f 176//176 207//207 198//198
f 217//217 203//203 205//205
f 208//208 205//205 198//198
f 207//207 208//208 198//198
f 217//217 205//205 208//208
f 199//199 220//220 222//222
f 206//206 199//199 191//191
f 219//219 199//199 206//206
f 200//200 209//209 222//222
f 200//200 222//222 221//221
f 207//207 381//381 221//221
f 199//199 222//222 209//209
f 215//215 214//214 216//216
f 210//210 223//223 211//211
f 223//223 210//210 212//212
f 213//213 224//224 214//214
f 211//211 224//224 213//213
f 214//214 224//224 216//216
f 216//216 251//251 215//215
f 219//219 206//206 228//228
f 215//215 251//251 228//228
f 218//218 217//217 226//226
f 212//212 218//218 227//227
f 227//227 218//218 226//226
f 229//229 226//226 217//217
f 199//199 219//219 220//220
f 217//217 208//208 229//229
f 223//223 225//225 211//211
f 223//223 227//227 250//250
f 223//223 250//250 225//225
f 224//224 211//211 225//225
f 224//224 225//225 241//241
f 243//243 216//216 224//224
f 243//243 251//251 216//216
f 227//227 223//223 212//212
f 230//230 226//226 229//229
f 229//229 208//208 231//231
f 208//208 207//207 231//231
f 227//227 226//226 230//230
f 219//219 233//233 220//220
f 231//231 207//207 246//246
f 246//246 207//207 238//238
f 238//238 207//207 221//221
f 221//221 222//222 235//235
f 225//225 250//250 242//242
f 225//225 242//242 241//241
f 224//224 241//241 243//243
f 253//253 230//230 229//229
f 253//253 249//249 230//230
f 253//253 229//229 231//231
f 246//246 253//253 231//231
f 232//232 222//222 220//220
f 234//234 233//233 219//219
f 233//233 236//236 220//220
f 235//235 222//222 232//232
f 236//236 232//232 220//220
f 230//230 249//249 227//227
f 228//228 234//234 219//219
f 228//228 251//251 237//237
f 237//237 234//234 228//228
f 244//244 233//233 234//234
f 244//244 236//236 233//233
f 238//238 221//221 235//235
f 240//240 232//232 236//236
f 244//244 239//239 236//236
f 239//239 240//240 236//236
f 235//235 232//232 247//247
f 232//232 240//240 247//247
f 256//256 251//251 243//243
f 237//237 244//244 234//234
f 238//238 235//235 245//245
f 246//246 238//238 245//245
f 235//235 247//247 245//245
f 255//255 243//243 241//241
f 250//250 227//227 249//249
f 250//250 248//248 242//242
f 256//256 243//243 255//255
f 252//252 239//239 244//244
f 246//246 260//260 253//253
f 247//247 240//240 264//264
f 242//242 248//248 241//241
f 241//241 248//248 255//255
f 244//244 237//237 252//252
f 251//251 252//252 237//237
f 260//260 246//246 266//266
f 245//245 247//247 263//263
f 247//247 264//264 265//265
f 262//262 264//264 240//240
f 248//248 250//250 254//254
f 255//255 248//248 254//254
f 257//257 250//250 249//249
f 257//257 249//249 259//259
f 259//259 249//249 253//253
f 261//261 239//239 252//252
f 240//240 239//239 262//262
f 261//261 262//262 239//239
f 258//258 261//261 252//252
f 258//258 252//252 251//251
f 272//272 260//260 266//266
f 268//268 256//256 255//255
f 255//255 267//267 268//268
f 254//254 250//250 257//257
f 251//251 271//271 258//258
f 259//259 253//253 260//260
f 274//274 262//262 261//261
f 275//275 262//262 274//274
f 266//266 246//246 245//245
f 247//247 265//265 263//263
f 264//264 262//262 265//265
f 270//270 254//254 257//257
f 254//254 267//267 255//255
f 256//256 269//269 251//251
f 251//251 269//269 271//271
f 259//259 284//284 257//257
f 257//257 284//284 270//270
f 260//260 273//273 259//259
f 258//258 320//320 261//261
f 276//276 272//272 266//266
f 279//279 263//263 265//265
f 265//265 280//280 279//279
f 254//254 270//270 267//267
f 283//283 268//268 267//267
f 268//268 269//269 256//256
f 284//284 259//259 273//273
f 270//270 284//284 285//285
f 310//310 284//284 273//273
f 267//267 286//286 282//282
f 286//286 267//267 270//270
f 320//320 274//274 261//261
f 258//258 271//271 320//320
f 272//272 273//273 260//260
f 278//278 276//276 266//266
f 307//307 310//310 273//273
f 307//307 273//273 272//272
f 309//309 272//272 276//276
f 262//262 280//280 265//265
f 280//280 262//262 275//275
f 320//320 321//321 274//274
f 321//321 322//322 274//274
f 322//322 275//275 274//274
f 337//337 276//276 278//278
f 278//278 266//266 245//245
f 277//277 263//263 279//279
f 245//245 263//263 277//277
f 278//278 245//245 277//277
f 277//277 279//279 346//346
f 277//277 338//338 278//278
f 338//338 277//277 339//339
f 339//339 277//277 346//346
f 279//279 280//280 281//281
f 279//279 281//281 346//346
f 347//347 281//281 280//280
f 349//349 346//346 281//281
f 267//267 282//282 283//283
f 283//283 301//301 268//268
f 282//282 293//293 283//283
f 293//293 301//301 283//283
f 305//305 301//301 293//293
f 286//286 270//270 285//285
f 290//290 286//286 285//285
f 287//287 285//285 284//284
f 287//287 290//290 285//285
f 287//287 284//284 310//310
f 282//282 286//286 295//295
f 286//286 290//290 295//295
f 287//287 288//288 290//290
f 287//287 315//315 288//288
f 383//383 391//391 289//289
f 386//386 384//384 297//297
f 384//384 383//383 297//297
f 297//297 383//383 289//289
f 291//291 316//316 317//317
f 291//291 303//303 292//292
f 289//289 316//316 292//292
f 316//316 291//291 292//292
f 282//282 295//295 293//293
f 289//289 292//292 297//297
f 305//305 293//293 294//294
f 293//293 295//295 294//294
f 294//294 306//306 305//305
f 386//386 297//297 385//385
f 385//385 297//297 296//296
f 296//296 292//292 389//389
f 292//292 303//303 389//389
f 292//292 296//296 297//297
f 389//389 385//385 296//296
f 320//320 271//271 298//298
f 299//299 271//271 269//269
f 271//271 299//299 298//298
f 298//298 324//324 320//320
f 300//300 298//298 299//299
f 291//291 317//317 336//336
f 300//300 330//330 324//324
f 298//298 300//300 324//324
f 301//301 269//269 268//268
f 301//301 299//299 269//269
f 302//302 299//299 301//301
f 304//304 300//300 299//299
f 299//299 302//302 304//304
f 387//387 388//388 304//304
f 388//388 291//291 336//336
f 388//388 336//336 304//304
f 300//300 304//304 330//330
f 301//301 305//305 302//302
f 387//387 305//305 306//306
f 306//306 388//388 387//387
f 272//272 308//308 307//307
f 308//308 272//272 309//309
f 340//340 309//309 276//276
f 310//310 307//307 311//311
f 308//308 311//311 307//307
f 308//308 313//313 311//311
f 309//309 313//313 308//308
f 318//318 289//289 314//314
f 315//315 287//287 310//310
f 391//391 312//312 314//314
f 314//314 312//312 318//318
f 311//311 315//315 310//310
f 311//311 313//313 390//390
f 391//391 314//314 289//289
f 311//311 390//390 315//315
f 316//316 319//319 317//317
f 289//289 318//318 316//316
f 316//316 318//318 319//319
f 317//317 319//319 334//334
f 312//312 319//319 318//318
f 334//334 319//319 342//342
f 319//319 312//312 342//342
f 324//324 325//325 320//320
f 325//325 321//321 320//320
f 323//323 275//275 322//322
f 323//323 280//280 275//275
f 323//323 347//347 280//280
f 326//326 321//321 325//325
f 326//326 322//322 321//321
f 326//326 328//328 322//322
f 328//328 323//323 322//322
f 328//328 329//329 323//323
f 323//323 329//329 347//347
f 324//324 330//330 325//325
f 317//317 331//331 336//336
f 325//325 330//330 326//326
f 330//330 333//333 326//326
f 333//333 328//328 326//326
f 328//328 327//327 329//329
f 329//329 327//327 335//335
f 336//336 332//332 304//304
f 304//304 332//332 333//333
f 304//304 333//333 330//330
f 336//336 331//331 332//332
f 317//317 334//334 331//331
f 331//331 334//334 332//332
f 328//328 333//333 327//327
f 327//327 333//333 332//332
f 332//332 334//334 335//335
f 335//335 327//327 332//332
f 340//340 276//276 337//337
f 340//340 313//313 309//309
f 337//337 278//278 338//338
f 339//339 346//346 348//348
f 337//337 341//341 340//340
f 341//341 337//337 338//338
f 341//341 338//338 339//339
f 339//339 348//348 351//351
f 313//313 340//340 343//343
f 341//341 343//343 340//340
f 343//343 341//341 345//345
f 345//345 341//341 339//339
f 345//345 339//339 351//351
f 313//313 343//343 390//390
f 390//390 343//343 342//342
f 342//342 343//343 344//344
f 342//342 344//344 334//334
f 334//334 344//344 352//352
f 334//334 352//352 335//335
f 344//344 343//343 345//345
f 352//352 344//344 345//345
f 351//351 352//352 345//345
f 347//347 349//349 281//281
f 348//348 346//346 349//349
f 347//347 329//329 350//350
f 350//350 349//349 347//347
f 349//349 350//350 351//351
f 349//349 351//351 348//348
f 329//329 335//335 350//350
f 350//350 352//352 351//351
f 352//352 350//350 335//335
