# Wavafront OBJ file of BodyParts3D
# BodyParts3D, Copyright(C) 2010-2011 The Database Center for Life Science licensed under CC Attribution-Share Alike 2.1 Japan.
vn -0.832551 0.553121 0.0302848
v -22.2812 -115.761 1319.88
vn -0.797545 0.360897 -0.483399
v -22.4218 -116.261 1319.38
vn -0.625283 0.604217 0.493905
v -21.9492 -115.761 1320.49
vn -0.594659 0.771888 0.224877
v -20.9492 -114.265 1319.38
vn -0.710156 0.165053 0.684423
v -21.9687 -119.261 1322.88
vn -0.603801 0.468355 0.645034
v -21.0258 -117.261 1322.88
vn -0.933221 0.322258 -0.158896
v -23.4609 -118.261 1319.88
vn -0.941447 0.0610383 0.331591
v -23.8281 -119.761 1320.38
vn -0.966536 0.119747 -0.226867
v -23.8359 -119.761 1319.88
vn -0.830672 0.356377 0.42776
v -23.3047 -118.261 1320.88
vn -0.81752 0.146837 -0.556866
v -23.4062 -120.261 1318.88
vn -0.752846 -0.14387 0.642281
v -22.0937 -121.261 1322.88
vn -0.760994 -0.54937 0.34508
v -22.3203 -123.261 1321.38
vn -0.988401 -0.151309 0.012984
v -23.8359 -120.761 1319.88
vn -0.934509 -0.0517581 -0.352157
v -23.7265 -120.761 1319.38
vn -0.886462 -0.293218 0.358062
v -23.2968 -121.761 1320.88
vn -0.917256 -0.397098 -0.0308826
v -23.1875 -122.761 1318.88
vn -0.848964 -0.279413 -0.448541
v -22.75 -123.261 1317.88
vn -0.772349 -0.630726 -0.07525
v -22.5468 -123.761 1318.38
vn -0.75757 0.0212276 -0.652409
v -20.9492 -122.261 1315.53
vn -0.613824 -0.78927 0.0165054
v -21.4492 -124.859 1318.38
vn -0.348549 0.87028 0.348032
v -16.9492 -112.656 1320.38
vn -0.451153 0.885036 -0.114767
v -17.4492 -111.945 1316.38
vn -0.724731 0.592782 -0.351247
v -20.0781 -113.761 1317.88
vn -0.485323 0.869466 0.0921429
v -18.9492 -112.761 1318.16
vn -0.727945 0.180022 -0.66158
v -18.5234 -118.761 1313.38
vn -0.709432 -0.366497 -0.601985
v -20.2109 -124.261 1314.88
vn -0.680083 -0.06414 -0.730324
v -16.4958 -122.761 1310.88
vn -0.43905 -0.882915 -0.166419
v -18.9233 -126.261 1317.38
vn -0.626536 -0.710439 -0.320514
v -20.4492 -125.171 1316.38
vn -0.436624 -0.808855 -0.393844
v -18.4492 -125.531 1314.38
vn -0.500775 -0.578076 -0.644246
v -17.4492 -124.773 1312.38
vn -0.217571 0.957582 0.188942
v -13.9492 -111.039 1318.38
vn -0.512853 0.760287 -0.398681
v -15.4492 -111.761 1313.33
vn -0.346893 0.820405 -0.454533
v -13.4492 -111.761 1311.45
vn -0.498077 0.571216 0.652404
v -14.4492 -116.261 1327.53
vn -0.427815 0.743923 0.513373
v -14.9492 -113.476 1323.88
vn -0.652028 0.430357 -0.624221
v -14.125 -112.761 1310.88
vn -0.643091 0.253367 -0.722661
v -12.9492 -114.261 1309.1
vn -0.631962 0.0798823 -0.770872
v -14.9492 -119.761 1309.66
vn -0.451575 -0.334406 -0.827196
v -14.9492 -123.261 1309.76
vn -0.166018 -0.743946 -0.647289
v -14.9492 -124.617 1310.88
vn -0.256441 -0.870459 -0.420165
v -15.8168 -126.261 1313.88
vn -0.563644 -0.786709 0.251784
v -13.4492 -129.125 1327.88
vn -0.462528 -0.88657 -0.00786792
v -13.9492 -129.359 1323.88
vn -0.293684 -0.928857 -0.225774
v -13.9492 -128.914 1320.38
vn -0.182238 0.906895 0.379909
v -10.4492 -112.609 1325.38
vn 0.0820113 0.98689 0.139001
v -8.94919 -110.836 1318.88
vn -0.140099 0.98682 -0.0809801
v -11.9492 -110.484 1314.88
vn 0.211972 0.972006 -0.101355
v -9.44919 -110.742 1313.38
vn -0.0538058 0.9578 -0.282353
v -10.9492 -110.761 1312.44
vn -0.150886 0.829971 -0.537012
v -10.9492 -111.89 1309.88
vn -0.0239822 0.695289 -0.71833
v -9.44919 -112.476 1308.88
vn -0.381555 0.576269 0.722723
v -9.94919 -116.261 1330.66
vn -0.328813 0.744304 0.581286
v -10.4179 -114.761 1328.88
vn -0.0700626 0.862761 0.500734
v -8.94919 -113.695 1327.88
vn -0.418088 0.556707 -0.71783
v -12.4492 -113.261 1309.17
vn -0.433764 0.347914 -0.831147
v -11.9492 -114.261 1308.31
vn -0.103813 0.364437 -0.925424
v -9.44919 -114.261 1307.63
vn -0.548145 0.34853 0.760305
v -11.0377 -119.261 1331.88
vn -0.191009 -0.195173 -0.961989
v -11.9492 -120.261 1307.44
vn -0.322768 0.126654 -0.937966
v -11.4492 -117.761 1307.23
vn 0.000206462 -0.0846272 -0.996413
v -10.9492 -118.261 1307.12
vn -0.618195 0.0838641 0.781538
v -8.55633 -123.261 1334.88
vn -0.0184904 -0.5441 -0.838817
v -11.9492 -121.297 1307.88
vn 0.225074 -0.472544 -0.852082
v -8.94919 -120.761 1308.16
vn -0.673094 -0.201803 0.711492
v -10.7839 -126.261 1332.88
vn -0.0853901 -0.894503 -0.438832
v -12.4492 -127.679 1315.38
vn 0.0877013 -0.721219 -0.687133
v -11.4492 -124.914 1310.88
vn -0.564531 -0.545579 0.619393
v -8.94919 -129.261 1333.08
vn -0.655141 -0.506211 0.560839
v -12.039 -128.761 1330.38
vn -0.315115 -0.948027 -0.0441195
v -10.9492 -130.711 1325.88
vn -0.336286 -0.932546 0.131413
v -9.44919 -131.109 1328.88
vn 0.183695 0.932336 0.311457
v -7.94919 -112.351 1324.88
vn 0.440527 0.894594 0.0750799
v -6.94919 -111.406 1318.88
vn 0.571593 0.806093 -0.153284
v -6.94919 -111.648 1313.38
vn 0.216035 0.904254 -0.368311
v -8.44919 -111.761 1310.32
vn 0.500695 0.712628 -0.491392
v -7.44919 -112.679 1309.38
vn -0.158092 0.761781 0.628248
v -8.44919 -115.351 1330.38
vn 0.780132 0.616973 -0.103624
v -5.21872 -112.761 1318.88
vn 0.737736 0.621874 -0.262715
v -5.94919 -113.261 1311.07
vn 0.828006 0.417924 -0.373825
v -5.76559 -114.261 1309.88
vn 0.884273 0.43103 -0.179649
v -5.32028 -113.761 1312.38
vn 0.926123 0.115026 -0.359255
v -5.17966 -116.261 1309.88
vn 0.263554 0.449181 -0.853684
v -7.94919 -114.261 1307.67
vn 0.108565 0.0704636 -0.991589
v -7.94919 -116.261 1307.19
vn 0.509716 0.0813006 -0.856493
v -6.94919 -116.261 1307.51
vn 0.632845 0.409473 -0.657145
v -6.44919 -114.643 1308.38
vn 0.79562 0.155065 -0.585614
v -6.04684 -115.761 1308.38
vn 0.361527 -0.268322 -0.892917
v -6.94919 -118.261 1307.81
vn 0.759388 -0.177292 -0.626016
v -6.07221 -117.761 1308.38
vn 0.516142 -0.532444 -0.670896
v -7.44919 -122.261 1309.73
vn -0.628806 -0.0862083 0.772769
v -8.44919 -125.761 1335.03
vn -0.595634 -0.325935 0.734157
v -7.44919 -127.761 1335.34
vn 0.212356 -0.787902 -0.578027
v -8.44919 -126.351 1313.38
vn 0.455416 -0.700362 -0.549626
v -5.77236 -127.761 1316.88
vn -0.369138 -0.785835 0.496186
v -5.34435 -130.761 1334.38
vn -0.447238 -0.807396 0.384825
v -8.44919 -130.761 1331.51
vn -0.0840682 -0.958143 -0.27367
v -7.94919 -130.601 1321.88
vn 0.172306 -0.876638 -0.449241
v -6.44919 -129.304 1318.88
vn 0.0590336 0.871469 0.486885
v -3.94919 -116.32 1331.88
vn 0.300451 0.926098 0.228192
v -1.94919 -116.375 1330.88
vn 0.455057 0.873771 0.1716
v -4.44919 -114.406 1327.38
vn 0.58456 0.809426 -0.0558466
v -1.44919 -116.484 1328.38
vn -0.235867 0.701932 0.672055
v -3.94919 -118.761 1335.07
vn 0.753353 0.618676 -0.222933
v -0.949189 -117.261 1326.52
vn 0.901191 0.339217 -0.26979
v -2.29684 -117.761 1320.38
vn -0.50622 0.337049 0.793813
v -3.44919 -123.261 1338.31
vn 0.917889 0.147522 -0.368397
v -1.44919 -121.761 1320.06
vn -0.564239 -0.129925 0.815325
v -4.44919 -126.761 1337.89
vn 0.810438 -0.231779 -0.538023
v -0.749971 -126.761 1321.88
vn 0.667193 -0.486492 -0.564073
v -3.94919 -126.261 1317.24
vn -0.45271 -0.534582 0.713635
v -3.44919 -129.261 1337.35
vn -0.158623 -0.966021 0.204063
v -3.94919 -132.14 1331.88
vn -0.0859489 -0.992527 -0.0866243
v -3.86585 -132.261 1328.38
vn 0.134419 -0.94745 -0.290294
v -2.44919 -131.906 1326.88
vn -0.299796 0.872217 0.386471
v 0.550811 -119.761 1338.45
vn -0.0433301 0.919469 0.390767
v -0.449189 -117.711 1334.38
vn 0.217279 0.975718 0.0276262
v 1.05081 -117.601 1333.38
vn 0.642976 0.597474 -0.479173
v 3.10941 -120.261 1328.88
vn 0.719165 0.246894 -0.649496
v 3.25784 -123.261 1326.88
vn 0.817046 0.125591 -0.562729
v 0.476592 -122.761 1323.38
vn 0.823261 0.380176 -0.421553
v 0.687529 -120.761 1324.88
vn -0.21246 -0.836373 0.505313
v -0.449189 -130.625 1337.38
vn 0.0970814 -0.987444 0.124618
v 3.05081 -131.781 1334.88
vn 0.152378 -0.981891 -0.112568
v -0.449189 -132.242 1329.88
vn 0.365247 -0.842883 -0.39515
v -0.449189 -131.351 1326.88
vn 0.59672 -0.566647 -0.568188
v 0.550811 -130.261 1326.1
vn -0.150945 0.971962 0.180293
v 3.55081 -118.117 1337.38
vn 0.102849 0.958355 -0.266417
v 6.05081 -118.054 1335.38
vn 0.320187 0.805685 -0.49835
v 6.3349 -118.761 1333.88
vn 0.443927 0.803994 -0.395628
v 3.55081 -119.14 1330.88
vn -0.631342 0.262819 0.729612
v 5.55081 -122.761 1344.56
vn 0.514357 0.526162 -0.677193
v 7.05081 -121.261 1331.51
vn -0.404105 -0.542089 0.736776
v 6.05081 -127.261 1343.8
vn 0.629146 0.0741244 -0.773745
v 6.55081 -125.261 1329.68
vn 0.68734 -0.160336 -0.708418
v 5.32816 -127.261 1328.88
vn 0.35067 -0.916467 -0.192664
v 5.05081 -131.156 1332.88
vn 0.510754 -0.747796 -0.424183
v 7.05081 -130.14 1332.88
vn -0.667818 0.46113 0.584276
v 9.05081 -118.261 1345.04
vn -0.561732 -0.153253 0.813001
v 9.11996 -123.761 1347.38
vn -0.196869 -0.781567 0.591942
v 8.05081 -128.261 1343.74
vn 0.0471323 -0.940854 0.335517
v 9.55081 -129.836 1341.38
vn -0.692499 0.638673 0.335474
v 14.5508 -115.695 1349.88
vn -0.319488 0.947547 0.00903137
v 12.5508 -116.148 1342.88
vn 0.0497895 0.92531 -0.375929
v 14.0508 -116.273 1341.88
vn 0.544563 -0.793945 -0.270375
v 15.0508 -128.093 1339.88
vn 0.311316 -0.950206 0.013814
v 13.5508 -129.015 1341.38
vn -0.749208 0.325012 0.577109
v 18.3594 -115.761 1356.38
vn -0.632782 0.00574972 0.774309
v 19.4948 -117.261 1357.88
vn -0.754682 0.226745 0.615663
v 15.7344 -117.761 1353.38
vn 0.568127 0.50926 -0.646441
v 19.0508 -118.761 1341.25
vn 0.490889 0.516275 -0.701775
v 15.5508 -119.261 1338.05
vn 0.313083 0.766795 -0.560361
v 16.0508 -117.781 1339.88
vn -0.625031 -0.239149 0.743064
v 16.0508 -120.761 1353.56
vn -0.353136 -0.656076 0.666978
v 16.5508 -123.908 1351.88
vn 0.682544 -0.156105 -0.713979
v 16.9402 -123.761 1337.88
vn 0.626854 0.221878 -0.746876
v 17.0508 -121.761 1337.93
vn 0.76044 -0.022815 -0.649008
v 19.5313 -122.261 1340.38
vn 0.01101 -0.890072 0.455687
v 18.0508 -125.906 1349.38
vn 0.358412 -0.924558 0.129355
v 18.4633 -126.761 1346.38
vn 0.650277 -0.472376 -0.594979
v 15.5508 -125.761 1337.33
vn -0.491643 0.860608 0.132816
v 19.5508 -112.711 1354.38
vn -0.295565 0.907736 0.297753
v 20.945 -112.261 1355.38
vn 0.02907 0.982491 0.18403
v 22.5508 -111.976 1355.38
vn -0.0049859 0.835598 0.549319
v 23.0508 -112.679 1356.88
vn -0.0998705 0.981255 -0.164818
v 21.5508 -112.101 1352.38
vn 0.249953 0.865265 -0.434557
v 23.0508 -112.656 1351.38
vn -0.559925 0.444951 0.698929
v 20.0508 -114.261 1357.31
vn -0.334737 0.358 0.871658
v 21.5508 -115.261 1358.7
vn -0.0338965 0.564565 0.824693
v 22.5508 -114.261 1358.39
vn -0.604174 0.657679 0.449924
v 19.6258 -113.261 1355.88
vn -0.321391 0.700035 0.637699
v 21.0508 -113.078 1356.88
vn -0.524735 -0.409619 0.746235
v 20.0508 -120.261 1357.39
vn -0.313815 0.00256526 0.949481
v 21.5508 -117.261 1359.09
vn -0.36996 -0.307263 0.876766
v 21.5508 -119.261 1358.69
vn -0.0922783 -0.158957 0.982964
v 22.5508 -118.261 1359.19
vn -0.0712613 -0.411163 0.908772
v 22.5508 -119.761 1358.75
vn 0.702958 0.308065 -0.641051
v 21.5508 -119.289 1343.38
vn 0.798385 0.0904669 -0.595312
v 22.6875 -120.261 1344.38
vn -0.164226 -0.697089 0.697923
v 22.0508 -121.261 1357.73
vn 0.668426 -0.725899 -0.162099
v 22.0508 -124.625 1346.38
vn 0.748006 -0.426412 -0.508586
v 20.7188 -123.761 1342.38
vn 0.342665 0.929996 -0.132995
v 24.0508 -112.171 1353.38
vn 0.38029 0.877428 0.292403
v 24.5508 -112.546 1355.88
vn 0.0662557 0.160918 0.984741
v 23.5508 -116.261 1359.23
vn 0.25398 0.708884 0.65801
v 24.0508 -113.25 1357.38
vn 0.406281 0.41133 0.815931
v 25.0508 -115.261 1358.52
vn 0.603591 0.623095 0.497425
v 25.5508 -113.679 1356.88
vn 0.732552 0.68066 0.00831124
v 26.4453 -113.761 1354.88
vn 0.837586 0.472356 0.274463
v 27.3203 -115.261 1355.88
vn 0.463973 0.696824 -0.54696
v 24.0508 -113.429 1350.88
vn 0.580162 0.733907 -0.35326
v 25.0508 -113.093 1352.38
vn 0.662849 0.522319 -0.536483
v 25.5508 -114.297 1351.38
vn 0.848392 0.430181 -0.308504
v 27.0469 -115.261 1352.88
vn 0.226801 -0.24714 0.942063
v 24.5508 -118.761 1358.99
vn 0.487926 0.0087882 0.872841
v 25.5508 -117.761 1358.77
vn 0.67487 -0.302538 0.673068
v 26.5508 -119.261 1357.71
vn 0.727549 -0.574159 0.375517
v 26.8985 -120.261 1356.38
vn 0.824224 0.191681 0.532835
v 27.4922 -116.761 1356.88
vn 0.827718 -0.557014 -0.0679642
v 27.25 -120.261 1353.88
vn 0.833439 0.210038 -0.511139
v 26.8438 -116.761 1351.38
vn 0.299356 -0.604607 0.738131
v 24.5508 -120.761 1358.05
vn 0.402684 -0.860321 0.312559
v 25.0508 -121.773 1356.38
vn 0.856155 -0.243549 -0.455721
v 23.9219 -121.761 1346.38
vn 0.958372 0.285449 -0.00647775
v 27.8594 -116.261 1354.88
vn 0.966427 -0.173376 0.189633
v 28.0313 -118.261 1355.38
vn 0.962297 -0.0389596 -0.269195
v 27.8672 -118.261 1353.38
vn -0.52122 0.478279 0.706809
v 0.550811 -119.761 1338.45
vn -0.426072 0.887069 0.177686
v 9.05081 -118.261 1345.04
f 10//10 6//6 3//3
f 3//3 6//6 37//37
f 7//7 10//10 1//1
f 1//1 2//2 7//7
f 1//1 10//10 3//3
f 1//1 24//24 2//2
f 1//1 3//3 4//4
f 24//24 1//1 4//4
f 3//3 37//37 4//4
f 10//10 8//8 5//5
f 8//8 12//12 5//5
f 5//5 6//6 10//10
f 10//10 7//7 8//8
f 7//7 9//9 8//8
f 9//9 14//14 8//8
f 9//9 15//15 14//14
f 2//2 11//11 7//7
f 7//7 11//11 9//9
f 15//15 9//9 11//11
f 11//11 2//2 26//26
f 16//16 13//13 12//12
f 16//16 12//12 8//8
f 15//15 17//17 14//14
f 14//14 17//17 16//16
f 15//15 18//18 17//17
f 8//8 14//14 16//16
f 13//13 16//16 17//17
f 15//15 11//11 18//18
f 17//17 19//19 13//13
f 17//17 18//18 19//19
f 19//19 18//18 30//30
f 30//30 21//21 19//19
f 30//30 18//18 27//27
f 13//13 19//19 21//21
f 18//18 20//20 27//27
f 11//11 20//20 18//18
f 26//26 20//20 11//11
f 44//44 13//13 21//21
f 25//25 23//23 24//24
f 24//24 23//23 34//34
f 34//34 38//38 24//24
f 37//37 6//6 36//36
f 4//4 37//37 22//22
f 24//24 4//4 25//25
f 25//25 4//4 22//22
f 2//2 24//24 38//38
f 38//38 39//39 26//26
f 6//6 5//5 60//60
f 36//36 6//6 60//60
f 2//2 38//38 26//26
f 26//26 28//28 20//20
f 28//28 27//27 20//20
f 28//28 32//32 27//27
f 41//41 32//32 28//28
f 13//13 71//71 12//12
f 44//44 71//71 13//13
f 30//30 29//29 21//21
f 30//30 27//27 31//31
f 30//30 31//31 29//29
f 27//27 32//32 31//31
f 29//29 31//31 46//46
f 43//43 31//31 32//32
f 46//46 31//31 43//43
f 22//22 33//33 25//25
f 33//33 22//22 47//47
f 33//33 23//23 25//25
f 33//33 47//47 48//48
f 35//35 34//34 49//49
f 33//33 49//49 23//23
f 23//23 49//49 34//34
f 34//34 35//35 38//38
f 35//35 57//57 38//38
f 55//55 37//37 36//36
f 22//22 37//37 47//47
f 57//57 39//39 38//38
f 39//39 57//57 58//58
f 26//26 40//40 28//28
f 39//39 40//40 26//26
f 64//64 5//5 12//12
f 40//40 41//41 28//28
f 32//32 41//41 42//42
f 65//65 42//42 41//41
f 68//68 42//42 69//69
f 69//69 42//42 65//65
f 40//40 61//61 41//41
f 65//65 41//41 61//61
f 12//12 71//71 67//67
f 45//45 21//21 29//29
f 45//45 29//29 46//46
f 43//43 68//68 46//46
f 32//32 42//42 43//43
f 42//42 68//68 43//43
f 44//44 21//21 45//45
f 44//44 45//45 72//72
f 72//72 45//45 46//46
f 56//56 74//74 47//47
f 74//74 48//48 47//47
f 48//48 49//49 33//33
f 49//49 50//50 51//51
f 48//48 50//50 49//49
f 49//49 51//51 35//35
f 52//52 35//35 51//51
f 52//52 57//57 35//35
f 57//57 52//52 53//53
f 51//51 77//77 52//52
f 77//77 53//53 52//52
f 51//51 50//50 77//77
f 53//53 77//77 78//78
f 60//60 54//54 36//36
f 55//55 36//36 54//54
f 79//79 55//55 54//54
f 47//47 37//37 55//55
f 56//56 47//47 55//55
f 55//55 79//79 56//56
f 58//58 57//57 53//53
f 40//40 39//39 58//58
f 58//58 62//62 40//40
f 58//58 53//53 59//59
f 62//62 58//58 59//59
f 53//53 78//78 85//85
f 59//59 53//53 85//85
f 86//86 62//62 59//59
f 40//40 62//62 61//61
f 62//62 63//63 61//61
f 90//90 61//61 63//63
f 66//66 61//61 90//90
f 67//67 64//64 12//12
f 60//60 5//5 64//64
f 66//66 65//65 61//61
f 69//69 65//65 66//66
f 69//69 66//66 92//92
f 67//67 93//93 64//64
f 70//70 67//67 71//71
f 67//67 70//70 94//94
f 68//68 69//69 95//95
f 95//95 100//100 68//68
f 70//70 71//71 98//98
f 98//98 44//44 73//73
f 71//71 44//44 98//98
f 72//72 73//73 44//44
f 115//115 73//73 72//72
f 72//72 99//99 115//115
f 72//72 46//46 99//99
f 68//68 99//99 46//46
f 75//75 48//48 74//74
f 48//48 75//75 50//50
f 75//75 76//76 50//50
f 76//76 75//75 80//80
f 76//76 77//77 50//50
f 76//76 78//78 77//77
f 105//105 79//79 54//54
f 79//79 105//105 101//101
f 101//101 56//56 79//79
f 56//56 101//101 74//74
f 74//74 103//103 75//75
f 74//74 102//102 103//103
f 80//80 83//83 76//76
f 78//78 88//88 85//85
f 78//78 76//76 81//81
f 81//81 82//82 78//78
f 82//82 88//88 78//78
f 81//81 76//76 83//83
f 81//81 83//83 82//82
f 84//84 82//82 83//83
f 88//88 82//82 89//89
f 89//89 82//82 84//84
f 84//84 91//91 89//89
f 83//83 109//109 84//84
f 85//85 86//86 59//59
f 86//86 63//63 62//62
f 87//87 86//86 85//85
f 88//88 87//87 85//85
f 88//88 89//89 87//87
f 87//87 89//89 91//91
f 60//60 108//108 54//54
f 105//105 54//54 108//108
f 92//92 91//91 111//111
f 111//111 91//91 84//84
f 111//111 84//84 109//109
f 86//86 90//90 63//63
f 92//92 66//66 90//90
f 87//87 90//90 86//86
f 87//87 91//91 90//90
f 92//92 90//90 91//91
f 60//60 64//64 108//108
f 110//110 108//108 64//64
f 111//111 112//112 92//92
f 92//92 95//95 69//69
f 110//110 64//64 93//93
f 94//94 93//93 67//67
f 94//94 110//110 93//93
f 128//128 127//127 96//96
f 95//95 92//92 96//96
f 95//95 96//96 100//100
f 112//112 96//96 92//92
f 112//112 128//128 96//96
f 97//97 70//70 98//98
f 114//114 98//98 73//73
f 98//98 114//114 97//97
f 115//115 114//114 73//73
f 99//99 116//116 115//115
f 99//99 68//68 100//100
f 116//116 99//99 100//100
f 96//96 127//127 100//100
f 74//74 101//101 102//102
f 101//101 118//118 102//102
f 102//102 104//104 103//103
f 103//103 104//104 75//75
f 80//80 75//75 104//104
f 104//104 106//106 80//80
f 118//118 105//105 117//117
f 209//209 105//105 108//108
f 101//101 105//105 118//118
f 118//118 119//119 102//102
f 123//123 80//80 106//106
f 120//120 106//106 104//104
f 107//107 123//123 109//109
f 80//80 107//107 83//83
f 83//83 107//107 109//109
f 111//111 109//109 122//122
f 113//113 110//110 94//94
f 113//113 141//141 110//110
f 111//111 122//122 137//137
f 112//112 111//111 128//128
f 113//113 94//94 70//70
f 97//97 113//113 70//70
f 135//135 113//113 124//124
f 97//97 114//114 124//124
f 113//113 97//97 124//124
f 114//114 125//125 124//124
f 126//126 114//114 115//115
f 114//114 126//126 125//125
f 116//116 126//126 115//115
f 127//127 116//116 100//100
f 127//127 126//126 116//116
f 126//126 127//127 138//138
f 129//129 118//118 117//117
f 118//118 129//129 119//119
f 119//119 104//104 102//102
f 119//119 132//132 104//104
f 132//132 120//120 104//104
f 123//123 106//106 120//120
f 120//120 121//121 123//123
f 123//123 107//107 80//80
f 141//141 133//133 108//108
f 108//108 110//110 141//141
f 122//122 123//123 121//121
f 121//121 137//137 122//122
f 122//122 109//109 123//123
f 137//137 128//128 111//111
f 124//124 125//125 143//143
f 126//126 138//138 125//125
f 127//127 128//128 139//139
f 139//139 138//138 127//127
f 117//117 145//145 129//129
f 130//130 132//132 119//119
f 129//129 130//130 119//119
f 131//131 132//132 130//130
f 154//154 131//131 130//130
f 132//132 134//134 120//120
f 108//108 133//133 209//209
f 209//209 133//133 140//140
f 140//140 133//133 151//151
f 120//120 134//134 121//121
f 121//121 134//134 136//136
f 141//141 113//113 135//135
f 135//135 124//124 142//142
f 124//124 143//143 142//142
f 121//121 136//136 137//137
f 148//148 143//143 125//125
f 138//138 148//148 125//125
f 138//138 139//139 147//147
f 147//147 148//148 138//138
f 151//151 133//133 155//155
f 144//144 140//140 151//151
f 145//145 117//117 210//210
f 145//145 130//130 129//129
f 146//146 154//154 130//130
f 134//134 132//132 131//131
f 141//141 155//155 133//133
f 134//134 158//158 136//136
f 142//142 160//160 156//156
f 128//128 137//137 162//162
f 162//162 139//139 128//128
f 147//147 139//139 162//162
f 210//210 144//144 145//145
f 146//146 130//130 145//145
f 154//154 134//134 131//131
f 153//153 134//134 154//154
f 134//134 153//153 158//158
f 155//155 141//141 135//135
f 155//155 135//135 156//156
f 157//157 162//162 137//137
f 143//143 160//160 142//142
f 135//135 142//142 156//156
f 143//143 161//161 160//160
f 148//148 161//161 143//143
f 150//150 149//149 151//151
f 149//149 172//172 144//144
f 149//149 144//144 151//151
f 144//144 172//172 163//163
f 163//163 145//145 144//144
f 150//150 151//151 155//155
f 152//152 153//153 154//154
f 153//153 152//152 158//158
f 179//179 158//158 152//152
f 192//192 152//152 154//154
f 158//158 157//157 136//136
f 162//162 157//157 183//183
f 159//159 158//158 179//179
f 158//158 159//159 157//157
f 157//157 159//159 183//183
f 136//136 157//157 137//137
f 161//161 148//148 147//147
f 147//147 162//162 183//183
f 166//166 171//171 187//187
f 164//164 163//163 172//172
f 167//167 145//145 163//163
f 146//146 145//145 167//167
f 164//164 167//167 163//163
f 165//165 167//167 164//164
f 164//164 166//166 165//165
f 165//165 184//184 167//167
f 166//166 187//187 185//185
f 165//165 166//166 185//185
f 165//165 185//185 184//184
f 184//184 168//168 167//167
f 169//169 172//172 149//149
f 169//169 170//170 173//173
f 170//170 169//169 150//150
f 150//150 169//169 149//149
f 171//171 173//173 170//170
f 150//150 175//175 170//170
f 166//166 173//173 171//171
f 171//171 170//170 186//186
f 186//186 170//170 175//175
f 164//164 172//172 173//173
f 172//172 169//169 173//173
f 166//166 164//164 173//173
f 168//168 146//146 167//167
f 168//168 154//154 146//146
f 192//192 154//154 168//168
f 152//152 192//192 194//194
f 150//150 155//155 174//174
f 175//175 150//150 176//176
f 176//176 150//150 174//174
f 174//174 181//181 176//176
f 177//177 175//175 176//176
f 178//178 176//176 181//181
f 177//177 176//176 178//178
f 196//196 177//177 178//178
f 186//186 175//175 177//177
f 186//186 177//177 196//196
f 194//194 179//179 152//152
f 156//156 160//160 181//181
f 204//204 181//181 160//160
f 174//174 156//156 181//181
f 156//156 174//174 155//155
f 160//160 161//161 204//204
f 182//182 183//183 205//205
f 204//204 161//161 182//182
f 159//159 179//179 180//180
f 180//180 205//205 159//159
f 159//159 205//205 183//183
f 161//161 147//147 182//182
f 182//182 147//147 183//183
f 190//190 184//184 185//185
f 184//184 193//193 168//168
f 193//193 184//184 190//190
f 188//188 171//171 186//186
f 197//197 188//188 186//186
f 188//188 187//187 171//171
f 188//188 197//197 200//200
f 188//188 189//189 187//187
f 188//188 200//200 189//189
f 187//187 189//189 185//185
f 189//189 190//190 185//185
f 190//190 195//195 193//193
f 190//190 189//189 191//191
f 189//189 200//200 191//191
f 191//191 206//206 190//190
f 206//206 195//195 190//190
f 206//206 208//208 195//195
f 193//193 192//192 168//168
f 193//193 194//194 192//192
f 195//195 194//194 193//193
f 194//194 195//195 202//202
f 203//203 196//196 178//178
f 197//197 186//186 196//196
f 198//198 200//200 197//197
f 197//197 196//196 198//198
f 196//196 203//203 198//198
f 199//199 207//207 198//198
f 203//203 199//199 198//198
f 198//198 207//207 200//200
f 199//199 204//204 201//201
f 199//199 201//201 207//207
f 205//205 201//201 182//182
f 208//208 201//201 205//205
f 195//195 208//208 202//202
f 208//208 205//205 202//202
f 180//180 179//179 202//202
f 202//202 179//179 194//194
f 180//180 202//202 205//205
f 203//203 178//178 181//181
f 181//181 204//204 203//203
f 204//204 199//199 203//203
f 182//182 201//201 204//204
f 206//206 191//191 200//200
f 200//200 207//207 206//206
f 207//207 201//201 208//208
f 206//206 207//207 208//208
