# Wavafront OBJ file of BodyParts3D
# BodyParts3D, Copyright(C) 2010-2011 The Database Center for Life Science licensed under CC Attribution-Share Alike 2.1 Japan.
vn -0.960977 -0.236372 0.143703
v -15.7814 -177.186 1510.85
vn -0.879745 0.468945 -0.0783457
v -15.9208 -176.368 1506.65
vn -0.814415 0.535001 -0.224726
v -16.0908 -176.586 1507.25
vn -0.700868 0.632284 -0.330153
v -16.0708 -175.444 1509.05
vn -0.981366 -0.147559 0.123074
v -16.1892 -175.386 1509.5
vn -0.981441 -0.117361 0.151657
v -15.8072 -175.836 1511.75
vn -0.870811 0.474519 -0.128532
v -15.9736 -174.036 1512.5
vn -0.956096 -0.213042 0.201232
v -15.9208 -174.268 1512.8
vn -0.986983 0.098104 0.127437
v -15.8306 -173.736 1513.85
vn -0.917688 -0.38496 -0.0982518
v -14.7208 -179.27 1503.5
vn -0.910424 -0.411604 0.0413615
v -15.4017 -178.536 1507.55
vn -0.681267 -0.72804 0.076367
v -15.1708 -178.877 1507.4
vn -0.60679 -0.789022 0.096178
v -14.9283 -178.986 1507.7
vn -0.990578 0.0410206 -0.130663
v -15.0783 -177.336 1501.25
vn 0.728345 0.68382 0.0436348
v -15.0783 -177.786 1506.65
vn -0.952568 -0.294327 0.0773651
v -15.3873 -177.936 1509.2
vn 0.877164 0.454467 -0.155057
v -15.2775 -177.186 1508.15
vn -0.315589 -0.89361 0.319162
v -15.4708 -177.539 1510.25
vn -0.51423 -0.786776 0.341396
v -15.4708 -177.101 1511.45
vn -0.842723 -0.491798 0.21898
v -15.1861 -178.086 1511
vn -0.859459 -0.44723 0.24762
v -15.2658 -177.186 1511.75
vn -0.371052 -0.887747 0.272446
v -14.7368 -177.936 1512.5
vn -0.916011 -0.257758 0.307383
v -14.8322 -177.786 1512.35
vn -0.877819 -0.324926 0.351933
v -14.8622 -177.486 1512.5
vn -0.83845 -0.35727 0.411535
v -14.6564 -177.486 1512.95
vn -0.853558 0.500507 -0.144676
v -14.7548 -177.036 1496.6
vn -0.83854 0.544625 -0.0153439
v -14.7208 -176.578 1500.05
vn 0.532774 -0.837175 0.123656
v -14.8708 -176.784 1500.95
vn -0.902726 0.41869 -0.0989195
v -14.8708 -176.886 1501.26
vn 0.532774 -0.837175 0.123656
v -14.7958 -176.736 1500.95
vn 0.532774 -0.837175 0.123656
v -14.8307 -176.736 1501.1
vn -0.257177 0.962882 0.081967
v -14.7208 -176.826 1501.25
vn -0.818121 0.549054 -0.170932
v -15.24 -177.036 1502.45
vn -0.458932 0.888151 -0.0238478
v -15.1708 -176.934 1502.6
vn 0.813367 0.544197 0.20563
v -15.0208 -176.923 1502.75
vn -0.842555 0.512327 -0.166198
v -15.0208 -176.799 1502.15
vn -0.950729 0.254951 -0.176395
v -15.6548 -177.036 1504.25
vn 0.874391 0.480967 0.0641126
v -15.3208 -176.906 1504.1
vn -0.689638 0.693145 -0.209642
v -15.7708 -176.222 1507.4
vn -0.827881 -0.415845 0.376411
v -15.09 -176.436 1513.25
vn -0.949637 -0.207398 0.234896
v -15.7708 -174.936 1512.66
vn 0.594981 0.644812 -0.479807
v -15.6343 -174.636 1510.85
vn -0.609728 0.740133 -0.283611
v -15.7708 -174.464 1511
vn -0.680965 0.642932 -0.350605
v -15.4708 -173.994 1511.6
vn 0.859998 0.32789 -0.391014
v -14.6165 -174.186 1512.65
vn -0.853407 0.521226 -0.00446482
v -15.7708 -173.586 1513.65
vn -0.92475 -0.207316 0.31915
v -15.6208 -173.586 1514.9
vn -0.629855 0.701026 -0.334434
v -15.4837 -173.436 1512.35
vn -0.394659 0.847126 -0.35584
v -15.1708 -173.136 1512.59
vn -0.644713 0.755829 -0.114309
v -15.172 -172.836 1513.7
vn 0.0353608 0.973702 -0.225064
v -14.8708 -172.704 1513.85
vn 0.957246 0.254339 -0.137813
v -14.6118 -172.986 1513.7
vn 0.918417 0.312624 -0.24244
v -14.579 -172.986 1514
vn 0.899365 0.37964 -0.216833
v -14.654 -172.836 1513.7
vn 0.887281 0.42949 -0.168141
v -14.6423 -172.836 1514
vn 0.196377 0.97117 -0.135149
v -14.7208 -172.719 1514
vn -0.879256 0.459611 0.125168
v -15.6197 -173.436 1514.9
vn -0.577983 0.813825 0.0602079
v -15.0208 -172.739 1515.2
vn -0.792323 0.606014 0.0705138
v -15.0208 -172.636 1514.75
vn -0.115047 0.993131 -0.0213247
v -14.7208 -172.629 1515.05
vn -0.882024 0.0796676 0.464421
v -15.2493 -173.136 1515.8
vn 0.255151 0.966793 0.0144331
v -14.8708 -172.586 1515.65
vn -0.585564 0.601734 0.543167
v -14.7208 -172.986 1516.53
vn -0.862378 -0.233346 0.449281
v -14.7208 -173.385 1516.55
vn -0.870324 0.157654 0.466563
v -14.6517 -173.136 1516.7
vn -0.286499 -0.953364 -0.0949461
v -13.9708 -179.51 1503.65
vn -0.358331 -0.921219 0.15151
v -14.4208 -179.583 1506.8
vn 0.266495 -0.960695 0.0777525
v -13.9708 -179.474 1507.25
vn 0.697554 -0.644763 -0.312568
v -13.8208 -178.891 1496.15
vn -0.939207 -0.316911 -0.132132
v -14.3189 -178.836 1499.45
vn 0.732998 -0.677524 -0.0606134
v -13.6708 -178.986 1499.02
vn 0.97606 0.159402 0.147978
v -13.7681 -178.686 1503.2
vn 0.222982 0.970238 0.0944345
v -14.2708 -178.275 1503.65
vn 0.923819 0.368676 0.103132
v -13.8208 -178.922 1503.95
vn 0.512205 -0.858394 -0.0283986
v -13.604 -179.286 1503.5
vn 0.355303 0.933824 0.0416156
v -14.2708 -178.298 1504.7
vn 0.794706 0.594109 0.124409
v -14.1782 -178.386 1505
vn 0.811008 0.584422 -0.0267788
v -13.9158 -178.986 1507.1
vn 0.992857 -0.117869 -0.0185129
v -13.8208 -178.705 1510.4
vn -0.328389 -0.90095 0.283637
v -13.9708 -178.61 1511.3
vn -0.933677 -0.353624 -0.056547
v -14.5708 -177.74 1495.4
vn 0.8449 0.525645 0.0992055
v -13.5243 -177.186 1497.5
vn 0.596042 0.781016 0.18641
v -13.8525 -177.336 1499.6
vn 0.948325 -0.306073 0.0836675
v -13.6861 -177.186 1498.7
vn 0.816885 0.401791 0.41384
v -14.0517 -177.336 1500.05
vn 0.662983 0.19578 0.722581
v -13.9708 -177.057 1499.9
vn 0.613195 0.764072 0.200463
v -13.8208 -177.647 1500.8
vn 0.933424 0.32131 0.159624
v -14.3915 -177.936 1502.75
vn 0.192436 0.926186 0.324265
v -14.2708 -178.183 1502.6
vn -0.514946 0.850641 0.106018
v -14.1265 -178.086 1502.75
vn 0.972237 0.183088 0.145716
v -13.7337 -178.236 1502.75
vn 0.823824 0.552292 0.127619
v -13.8208 -177.936 1502.46
vn 0.914335 0.379575 0.141115
v -14.429 -178.236 1503.8
vn 0.860575 0.466473 -0.204482
v -14.1208 -178.187 1510.1
vn 0.397354 -0.903339 0.16152
v -13.5208 -177.956 1513.85
vn 0.891261 0.306959 -0.333812
v -13.4109 -177.336 1513.1
vn -0.645325 -0.650077 0.401193
v -13.8566 -177.336 1514.6
vn -0.477913 0.804225 -0.353301
v -14.1208 -176.738 1495.4
vn -0.759159 0.340675 -0.554633
v -13.9708 -176.886 1495.1
vn -0.239829 0.889633 -0.388632
v -13.8208 -176.736 1495.22
vn 0.217718 -0.455544 -0.863179
v -13.665 -176.886 1495.25
vn -0.0722679 0.990769 -0.114691
v -13.9708 -176.286 1497.33
vn -0.0989047 0.972049 -0.212929
v -13.8208 -176.477 1496.45
vn -0.581136 0.810469 -0.0736289
v -14.2708 -176.269 1498.25
vn -0.422561 0.894699 -0.144761
v -14.1208 -176.29 1497.5
vn 0.427709 0.885708 0.180518
v -14.0715 -176.286 1498.1
vn -0.641003 0.767277 -0.0200119
v -14.5708 -176.426 1499.15
vn 0.0781009 0.933928 0.348824
v -13.8208 -176.845 1499.3
vn 0.978993 -0.192106 0.0683217
v -13.6708 -176.948 1499.15
vn -0.455395 0.888962 0.048608
v -14.5708 -176.458 1499.75
vn -0.0508431 0.961603 0.269695
v -14.5708 -176.586 1500.11
vn 0.351083 0.930879 0.101018
v -14.1846 -176.886 1500.05
vn 0.881319 -0.454114 0.130607
v -13.684 -177.036 1499.9
vn -0.76014 -0.491681 0.424778
v -13.8208 -176.462 1516.1
vn 0.861 0.304661 -0.40726
v -14.4208 -175.386 1512.26
vn 0.768721 0.474179 -0.429211
v -14.2708 -174.29 1513.25
vn 0.667283 0.667725 -0.329965
v -14.1208 -173.539 1514.75
vn 0.292146 0.910489 -0.292678
v -13.8208 -173.496 1515.2
vn 0.891301 0.254924 -0.374962
v -13.5009 -173.886 1515.05
vn 0.617841 0.695535 -0.366747
v -13.5208 -173.586 1515.32
vn 0.413938 0.908054 -0.0639733
v -14.5708 -172.654 1514.9
vn 0.850025 0.45926 -0.257947
v -14.3822 -172.986 1514.45
vn -0.356868 0.736913 0.574113
v -14.2708 -172.901 1516.7
vn 0.48554 0.850113 -0.203857
v -13.9708 -173.1 1516.55
vn -0.850899 0.159801 0.500435
v -14.1525 -173.136 1517.9
vn -0.269967 0.959681 0.0782967
v -13.9708 -172.807 1517.9
vn -0.797695 0.181741 0.575024
v -13.8126 -173.136 1518.35
vn -0.888673 0.10262 0.44691
v -13.7095 -173.136 1518.5
vn -0.0465468 0.99354 0.103502
v -13.8208 -172.774 1517.75
vn -0.818533 0.385279 0.426102
v -13.6708 -172.88 1518.35
vn 0.019344 0.97834 -0.206098
v -13.5208 -172.856 1518.05
vn 0.0329873 -0.411419 -0.910849
v -13.2208 -177.786 1495.67
vn 0.930432 0.271597 -0.246032
v -13.2208 -177.486 1495.67
vn 0.697554 -0.644763 -0.312568
v -13.0767 -178.086 1496.15
vn 0.956966 0.274471 0.0942396
v -13.1376 -177.636 1496.75
vn -0.635907 -0.649808 0.41638
v -12.3208 -175.986 1518.86
vn 0.634112 0.549343 -0.544173
v -12.4864 -175.836 1516.1
vn 0.354989 0.805462 -0.474568
v -12.4863 -175.236 1517
vn -0.785243 -0.46937 0.403837
v -12.3079 -175.236 1519.85
vn -0.802071 -0.473331 0.364197
v -12.3208 -174.778 1520.3
vn -0.86828 -0.26731 0.417895
v -13.3275 -173.886 1518.95
vn -0.90682 -0.177327 0.382404
v -13.0392 -173.736 1519.85
vn -0.843572 -0.410422 0.346325
v -12.329 -174.336 1521.2
vn 0.299068 0.918726 -0.257878
v -13.3708 -173.02 1517.15
vn 0.840223 0.434031 -0.325027
v -12.3665 -173.286 1518.8
vn -0.88359 0.394222 0.252702
v -13.3392 -172.836 1519.55
vn -0.106367 0.989107 -0.101749
v -13.3708 -172.64 1519.1
vn -0.818868 0.503055 0.27639
v -13.2208 -172.686 1519.63
vn -0.57578 0.126058 0.807828
v -12.4708 -172.836 1520.04
vn 0.699421 0.637591 -0.322937
v -12.4708 -172.64 1519.85
vn 0.284393 -0.919811 0.270314
v -11.6611 -176.286 1517.15
vn 0.898114 0.158043 -0.410383
v -12.1251 -175.836 1516.7
vn 0.920746 -0.0820717 -0.381432
v -11.9728 -175.536 1517
vn 0.943534 -0.248898 -0.218617
v -11.9001 -175.536 1517.3
vn 0.939081 -0.113898 -0.324276
v -11.8979 -175.386 1517.15
vn 0.930049 -0.258798 -0.260829
v -11.8708 -175.551 1517.45
vn 0.333643 0.827829 -0.450978
v -11.8708 -175.064 1517.75
vn 0.770801 0.485403 -0.412613
v -11.6064 -175.686 1517.75
vn 0.639071 0.671167 -0.375662
v -11.7208 -175.536 1517.82
vn 0.951645 -0.181425 -0.247903
v -11.6255 -175.236 1517.9
vn 0.967203 -0.0424056 -0.250441
v -11.4958 -174.936 1518.35
vn 0.976177 0.100975 -0.192049
v -11.4572 -174.936 1518.65
vn 0.244359 -0.930663 0.272314
v -11.2708 -175.536 1519.46
vn 0.591354 0.670261 -0.448387
v -11.2708 -175.079 1519.1
vn 0.316923 0.85462 -0.411321
v -11.5708 -174.636 1518.87
vn -0.728668 -0.575326 0.371542
v -11.4642 -174.336 1523
vn -0.868032 -0.104003 0.485493
v -11.5708 -173.736 1522.94
vn -0.118337 0.450786 0.884753
v -11.4208 -173.774 1523
vn -0.141167 0.846836 0.512777
v -11.4208 -173.567 1522.7
vn -0.118337 0.450786 0.884753
v -11.2708 -174.324 1523.3
vn 0.162665 -0.946479 0.278778
v -11.1208 -174.486 1523.26
vn 0.93546 0.338232 0.102533
v -10.9908 -174.336 1523.15
vn 0.820841 0.481208 0.307667
v -11.0271 -174.336 1523.3
vn 0.844144 0.506975 -0.17435
v -11.6775 -173.436 1521.2
vn -0.805624 0.451896 0.383092
v -11.7208 -173.42 1522.25
vn 0.365325 -0.90488 0.218471
v -10.9116 -174.636 1522.1
vn 0.329751 -0.918848 0.216753
v -10.9708 -174.486 1523.17
vn -0.447524 -0.828992 0.335403
v -15.7814 -177.186 1510.85
vn -0.45642 0.842769 -0.285345
v -15.9208 -176.368 1506.65
vn 0.0396749 0.979502 -0.19749
v -15.9208 -176.368 1506.65
vn -0.941982 -0.335664 -1.13707e-005
v -16.0908 -176.586 1507.25
vn -0.083505 0.895384 -0.437396
v -16.0708 -175.444 1509.05
vn -0.704329 0.65094 -0.283191
v -16.1892 -175.386 1509.5
vn -0.614357 -0.788696 0.022898
v -14.7208 -179.27 1503.5
vn -0.292523 -0.950247 -0.107054
v -14.7208 -179.27 1503.5
vn 0.943906 0.291583 0.154989
v -15.0783 -177.786 1506.65
vn -0.285297 -0.903718 0.319217
v -15.3873 -177.936 1509.2
vn -0.653401 -0.717253 0.242107
v -15.3873 -177.936 1509.2
vn -0.89083 -0.266727 0.367803
v -14.7368 -177.936 1512.5
vn -0.152536 0.957253 0.245764
v -14.7208 -176.578 1500.05
vn -0.532774 0.837175 -0.123656
v -14.8708 -176.784 1500.95
vn -0.368749 0.929345 0.0184918
v -14.8708 -176.886 1501.26
vn -0.532774 0.837175 -0.123656
v -14.7958 -176.736 1500.95
vn -0.532774 0.837175 -0.123656
v -14.8307 -176.736 1501.1
vn 0.164764 0.986028 0.0245285
v -14.7208 -176.826 1501.25
vn 0.617758 0.749252 0.238738
v -14.7208 -176.826 1501.25
vn -0.160324 0.983223 0.086997
v -15.0208 -176.923 1502.75
vn 0.522093 0.835137 0.173102
v -15.0208 -176.923 1502.75
vn -0.376121 0.913762 -0.153534
v -15.0208 -176.799 1502.15
vn 0.351083 0.930879 0.101018
v -15.0208 -176.799 1502.15
vn -0.266056 0.943895 0.195644
v -15.0208 -176.799 1502.15
vn -0.92961 -0.350874 -0.11275
v -15.6548 -177.036 1504.25
vn -0.643857 0.741898 -0.187177
v -15.6548 -177.036 1504.25
vn -0.304549 0.9443 -0.124685
v -15.3208 -176.906 1504.1
vn 0.0396749 0.979502 -0.19749
v -15.3208 -176.906 1504.1
vn -0.083505 0.895384 -0.437396
v -15.7708 -176.222 1507.4
vn 0.827225 0.492695 -0.270093
v -15.7708 -176.222 1507.4
vn 0.0396749 0.979502 -0.19749
v -15.7708 -176.222 1507.4
vn -0.083505 0.895384 -0.437396
v -15.7708 -174.464 1511
vn 0.377351 0.759947 -0.529232
v -15.7708 -174.464 1511
vn 0.188273 0.725615 -0.661843
v -15.4708 -173.994 1511.6
vn 0.771381 0.347215 -0.533304
v -15.4708 -173.994 1511.6
vn -0.286398 0.766168 -0.575293
v -15.4708 -173.994 1511.6
vn 0.771485 0.379915 -0.510368
v -15.1708 -173.136 1512.59
vn 0.282737 0.884178 -0.371873
v -15.1708 -173.136 1512.59
vn 0.322299 0.890737 -0.320487
v -14.654 -172.836 1513.7
vn 0.794171 0.585513 -0.162687
v -14.7208 -172.719 1514
vn -0.0596067 0.997805 -0.028835
v -15.0208 -172.636 1514.75
vn -0.635714 0.751667 0.175682
v -14.8708 -172.586 1515.65
vn -0.378528 0.612079 0.694317
v -14.6517 -173.136 1516.7
vn -0.524865 0.848707 0.0649072
v -14.6517 -173.136 1516.7
vn 0.421328 -0.90677 -0.0158201
v -13.9708 -179.51 1503.65
vn -0.292923 -0.954002 -0.0638499
v -14.4208 -179.583 1506.8
vn 0.994203 -0.100863 0.0372423
v -13.9708 -179.474 1507.25
vn 0.534463 -0.826605 0.17628
v -13.9708 -179.474 1507.25
vn 0.139307 -0.414508 -0.89932
v -13.8208 -178.891 1496.15
vn -0.893366 -0.441066 -0.0857748
v -13.8208 -178.891 1496.15
vn -0.237671 -0.971147 -0.0196645
v -13.8208 -178.891 1496.15
vn -0.271634 -0.959427 -0.075597
v -14.3189 -178.836 1499.45
vn -0.274436 -0.957153 -0.0924323
v -13.6708 -178.986 1499.02
vn 0.961201 -0.267738 0.0664022
v -13.6708 -178.986 1499.02
vn 0.500178 -0.863453 -0.0653521
v -13.6708 -178.986 1499.02
vn -0.605704 0.792693 0.0689989
v -14.2708 -178.275 1503.65
vn 0.902955 -0.427663 -0.0421488
v -13.604 -179.286 1503.5
vn 0.902097 0.421108 0.0942857
v -13.604 -179.286 1503.5
vn 0.99217 -0.0835141 0.0928708
v -13.604 -179.286 1503.5
vn 0.994203 -0.100863 0.0372423
v -13.9158 -178.986 1507.1
vn 0.893306 0.408381 -0.187695
v -13.8208 -178.705 1510.4
vn 0.467366 -0.867677 0.169428
v -13.8208 -178.705 1510.4
vn 0.975186 -0.218199 -0.0374391
v -13.8208 -178.705 1510.4
vn 0.467366 -0.867677 0.169428
v -13.9708 -178.61 1511.3
vn 0.307403 -0.471139 -0.82676
v -14.5708 -177.74 1495.4
vn -0.811085 0.363977 -0.457888
v -14.5708 -177.74 1495.4
vn 0.947349 -0.293647 0.127675
v -13.5243 -177.186 1497.5
vn 0.841991 -0.512629 0.168117
v -13.8525 -177.336 1499.6
vn 0.336479 0.90216 0.269978
v -14.0517 -177.336 1500.05
vn 0.673415 -0.676471 0.298159
v -14.0517 -177.336 1500.05
vn -0.0344275 0.480162 0.876504
v -14.0517 -177.336 1500.05
vn 0.948724 0.261547 0.17753
v -14.0517 -177.336 1500.05
vn -0.0344275 0.480162 0.876504
v -13.9708 -177.057 1499.9
vn 0.704066 0.666227 0.245829
v -13.9708 -177.057 1499.9
vn 0.0781009 0.933928 0.348824
v -13.9708 -177.057 1499.9
vn -0.466282 0.87586 0.124299
v -13.8208 -177.647 1500.8
vn 0.922059 0.350554 0.164072
v -14.2708 -178.183 1502.6
vn 0.309646 0.94727 0.0824539
v -14.2708 -178.183 1502.6
vn -0.609547 0.789198 0.0749625
v -14.2708 -178.183 1502.6
vn 0.316816 0.829642 0.459698
v -14.1265 -178.086 1502.75
vn 0.259272 0.924931 0.277994
v -13.7337 -178.236 1502.75
vn -0.304455 0.938347 0.163743
v -13.8208 -177.936 1502.46
vn 0.27113 0.710005 0.649908
v -13.8208 -177.936 1502.46
vn 0.354474 0.934699 0.0261914
v -14.429 -178.236 1503.8
vn 0.92833 -0.341716 -0.1464
v -13.5208 -177.956 1513.85
vn -0.567918 -0.741037 0.358238
v -13.5208 -177.956 1513.85
vn 0.316432 -0.906267 0.28027
v -13.5208 -177.956 1513.85
vn 0.92833 -0.341716 -0.1464
v -13.4109 -177.336 1513.1
vn 0.715336 0.50873 -0.479049
v -13.4109 -177.336 1513.1
vn -0.338448 0.761643 -0.552587
v -13.9708 -176.886 1495.1
vn 0.367705 -0.524719 -0.767765
v -13.9708 -176.886 1495.1
vn 0.418176 0.250482 -0.873148
v -13.9708 -176.886 1495.1
vn 0.418176 0.250482 -0.873148
v -13.8208 -176.736 1495.22
vn 0.701206 0.697699 -0.14672
v -13.8208 -176.736 1495.22
vn 0.688069 -0.00118105 -0.725645
v -13.665 -176.886 1495.25
vn 0.418176 0.250482 -0.873148
v -13.665 -176.886 1495.25
vn 0.768354 0.629644 -0.114803
v -13.665 -176.886 1495.25
vn 0.857288 0.511667 0.0570409
v -13.9708 -176.286 1497.33
vn 0.832773 0.553512 -0.0106406
v -13.8208 -176.477 1496.45
vn 0.0796052 0.995795 0.0453465
v -14.2708 -176.269 1498.25
vn 0.727021 0.670959 0.145788
v -14.0715 -176.286 1498.1
vn 0.222282 0.900744 0.373163
v -14.0715 -176.286 1498.1
vn 0.655607 0.740986 0.145323
v -13.8208 -176.845 1499.3
vn 0.754741 0.647855 0.103199
v -13.6708 -176.948 1499.15
vn 0.49276 0.837309 0.236857
v -14.5708 -176.458 1499.75
vn -0.0773995 0.938982 0.335145
v -14.5708 -176.458 1499.75
vn 0.616925 0.745655 0.251797
v -14.5708 -176.586 1500.11
vn 0.817667 0.241459 0.522607
v -14.1846 -176.886 1500.05
vn 0.639436 0.725785 0.253689
v -14.1846 -176.886 1500.05
vn -0.0344275 0.480162 0.876504
v -13.684 -177.036 1499.9
vn 0.630833 0.769317 0.101006
v -13.684 -177.036 1499.9
vn -0.0678363 0.946116 0.316643
v -13.684 -177.036 1499.9
vn 0.460203 0.885181 -0.0683214
v -14.2708 -172.901 1516.7
vn -0.383212 0.923357 0.0236642
v -14.2708 -172.901 1516.7
vn -0.781771 0.43124 0.450407
v -13.9708 -172.807 1517.9
vn 0.467165 0.836787 -0.285559
v -13.8208 -172.774 1517.75
vn 0.0468946 0.985568 0.162655
v -13.6708 -172.88 1518.35
vn -0.402851 0.906195 -0.128535
v -13.6708 -172.88 1518.35
vn 0.126372 0.981751 0.14211
v -13.5208 -172.856 1518.05
vn 0.851092 -0.00085451 -0.525016
v -13.2208 -177.786 1495.67
vn 0.616204 -0.569569 -0.543952
v -13.2208 -177.786 1495.67
vn 0.997821 0.0340341 -0.0565314
v -13.0767 -178.086 1496.15
vn 0.293058 -0.922226 0.252224
v -12.3208 -175.986 1518.86
vn 0.828658 0.351332 -0.435766
v -12.4863 -175.236 1517
vn -0.607287 0.217694 0.764076
v -13.0392 -173.736 1519.85
vn -0.805624 0.451896 0.383092
v -13.0392 -173.736 1519.85
vn -0.193607 0.980817 -0.0226748
v -13.0392 -173.736 1519.85
vn 0.996245 0.0610707 0.0613665
v -12.3665 -173.286 1518.8
vn -0.9102 -0.213092 0.355145
v -13.3392 -172.836 1519.55
vn -0.495239 0.032625 0.868144
v -13.3392 -172.836 1519.55
vn -0.857269 0.447362 0.254867
v -13.3708 -172.64 1519.1
vn -0.494654 -0.058485 0.86712
v -13.2208 -172.686 1519.63
vn -0.0943623 0.98916 0.11251
v -13.2208 -172.686 1519.63
vn -0.245907 0.683736 0.687048
v -13.2208 -172.686 1519.63
vn -0.245907 0.683736 0.687048
v -12.4708 -172.836 1520.04
vn 0.996245 0.0610707 0.0613665
v -12.4708 -172.836 1520.04
vn 0.741323 0.648655 -0.1723
v -12.4708 -172.836 1520.04
vn 0.0317934 0.998738 -0.0388836
v -12.4708 -172.64 1519.85
vn -0.245907 0.683736 0.687048
v -12.4708 -172.64 1519.85
vn 0.996245 0.0610707 0.0613665
v -12.4708 -172.64 1519.85
vn 0.854252 -0.455213 -0.251068
v -11.6611 -176.286 1517.15
vn 0.930728 0.181756 -0.317349
v -11.6611 -176.286 1517.15
vn 0.312812 0.830791 -0.460364
v -11.8979 -175.386 1517.15
vn 0.721889 0.582648 -0.37336
v -11.8708 -175.551 1517.45
vn 0.951088 -0.132698 -0.278968
v -11.7208 -175.536 1517.82
vn 0.413636 0.802797 -0.429444
v -11.4958 -174.936 1518.35
vn 0.897782 0.424969 -0.115713
v -11.4958 -174.936 1518.35
vn 0.988362 -0.0942373 -0.119411
v -11.2708 -175.536 1519.46
vn 0.896528 0.373453 -0.238264
v -11.2708 -175.079 1519.1
vn 0.980067 0.0238159 -0.197237
v -11.2708 -175.079 1519.1
vn 0.851347 0.460734 -0.250865
v -11.5708 -174.636 1518.87
vn -0.878267 -0.100065 0.467583
v -11.4642 -174.336 1523
vn -0.805624 0.451896 0.383092
v -11.5708 -173.736 1522.94
vn -0.258963 0.407461 0.875736
v -11.5708 -173.736 1522.94
vn -0.141167 0.846836 0.512777
v -11.5708 -173.736 1522.94
vn -0.0258501 0.822495 0.568184
v -11.4208 -173.774 1523
vn 0.595351 0.661067 0.456669
v -11.4208 -173.774 1523
vn 0.819136 0.55995 0.124387
v -11.4208 -173.567 1522.7
vn 0.433804 0.900997 0.00442708
v -11.4208 -173.567 1522.7
vn -0.835134 -0.0922778 0.542251
v -11.2708 -174.324 1523.3
vn -0.60914 -0.672248 0.42075
v -11.2708 -174.324 1523.3
vn -0.0135827 -0.264603 0.964262
v -11.2708 -174.324 1523.3
vn -0.605632 -0.681622 0.410611
v -11.1208 -174.486 1523.26
vn 0.439793 -0.488347 0.753723
v -11.1208 -174.486 1523.26
vn -0.0135827 -0.264603 0.964262
v -11.1208 -174.486 1523.26
vn 0.439793 -0.488347 0.753723
v -11.0271 -174.336 1523.3
vn -0.0135827 -0.264603 0.964262
v -11.0271 -174.336 1523.3
vn 0.0248609 0.484315 0.874541
v -11.0271 -174.336 1523.3
vn -0.703539 0.304998 0.64188
v -11.6775 -173.436 1521.2
vn -0.193607 0.980817 -0.0226748
v -11.6775 -173.436 1521.2
vn 0.433804 0.900997 0.00442708
v -11.6775 -173.436 1521.2
vn -0.193607 0.980817 -0.0226748
v -11.7208 -173.42 1522.25
vn 0.433804 0.900997 0.00442708
v -11.7208 -173.42 1522.25
vn -0.254089 0.856815 0.448672
v -11.7208 -173.42 1522.25
vn 0.990794 -0.0838687 -0.106273
v -10.9116 -174.636 1522.1
vn 0.920892 0.382008 -0.0776412
v -10.9116 -174.636 1522.1
vn 0.979751 0.148017 0.134831
v -10.9708 -174.486 1523.17
vn 0.439793 -0.488347 0.753723
v -10.9708 -174.486 1523.17
f 3//3 2//2 37//37
f 10//10 181//181 202//202
f 39//39 2//2 3//3
f 181//181 1//1 5//5
f 1//1 6//6 5//5
f 3//3 183//183 4//4
f 43//43 4//4 183//183
f 3//3 4//4 39//39
f 182//182 209//209 206//206
f 42//42 207//207 210//210
f 183//183 7//7 43//43
f 6//6 41//41 5//5
f 1//1 41//41 6//6
f 5//5 8//8 7//7
f 8//8 5//5 41//41
f 44//44 43//43 7//7
f 7//7 8//8 9//9
f 8//8 47//47 9//9
f 7//7 9//9 46//46
f 11//11 181//181 10//10
f 11//11 10//10 12//12
f 12//12 184//184 13//13
f 184//184 67//67 13//13
f 11//11 16//16 181//181
f 12//12 20//20 11//11
f 12//12 13//13 20//20
f 11//11 20//20 16//16
f 13//13 67//67 20//20
f 67//67 80//80 22//22
f 81//81 14//14 26//26
f 33//33 14//14 203//203
f 70//70 10//10 14//14
f 35//35 15//15 85//85
f 14//14 10//10 202//202
f 203//203 34//34 33//33
f 38//38 17//17 15//15
f 77//77 15//15 78//78
f 78//78 15//15 17//17
f 17//17 94//94 78//78
f 181//181 16//16 1//1
f 187//187 18//18 178//178
f 178//178 18//18 19//19
f 21//21 16//16 20//20
f 18//18 187//187 19//19
f 21//21 40//40 19//19
f 19//19 188//188 21//21
f 20//20 40//40 21//21
f 20//20 67//67 22//22
f 23//23 20//20 189//189
f 24//24 40//40 20//20
f 23//23 24//24 20//20
f 23//23 189//189 24//24
f 189//189 25//25 24//24
f 40//40 24//24 25//25
f 97//97 40//40 25//25
f 26//26 14//14 27//27
f 27//27 107//107 26//26
f 27//27 110//110 107//107
f 29//29 27//27 14//14
f 190//190 192//192 32//32
f 111//111 190//190 32//32
f 14//14 33//33 36//36
f 14//14 36//36 29//29
f 192//192 199//199 32//32
f 28//28 30//30 31//31
f 191//191 194//194 193//193
f 112//112 195//195 200//200
f 36//36 33//33 34//34
f 201//201 34//34 197//197
f 34//34 203//203 204//204
f 204//204 197//197 34//34
f 15//15 35//35 38//38
f 203//203 179//179 204//204
f 205//205 180//180 208//208
f 38//38 207//207 17//17
f 17//17 96//96 94//94
f 17//17 207//207 96//96
f 40//40 178//178 19//19
f 42//42 115//115 207//207
f 96//96 207//207 115//115
f 42//42 210//210 211//211
f 115//115 42//42 212//212
f 48//48 44//44 7//7
f 48//48 7//7 50//50
f 46//46 50//50 7//7
f 115//115 212//212 45//45
f 40//40 8//8 41//41
f 46//46 9//9 57//57
f 57//57 50//50 46//46
f 9//9 47//47 57//57
f 8//8 40//40 47//47
f 41//41 1//1 40//40
f 61//61 40//40 64//64
f 49//49 213//213 48//48
f 50//50 49//49 48//48
f 212//212 214//214 45//45
f 45//45 214//214 54//54
f 59//59 50//50 57//57
f 49//49 50//50 51//51
f 215//215 51//51 216//216
f 56//56 216//216 51//51
f 45//45 54//54 52//52
f 52//52 54//54 55//55
f 52//52 55//55 53//53
f 217//217 55//55 54//54
f 47//47 61//61 57//57
f 47//47 40//40 61//61
f 57//57 58//58 59//59
f 50//50 218//218 51//51
f 58//58 60//60 218//218
f 56//56 51//51 218//218
f 56//56 218//218 121//121
f 218//218 60//60 121//121
f 60//60 62//62 121//121
f 61//61 219//219 57//57
f 58//58 57//57 219//219
f 63//63 219//219 61//61
f 60//60 58//58 219//219
f 219//219 63//63 123//123
f 65//65 61//61 64//64
f 61//61 65//65 63//63
f 66//66 223//223 185//185
f 222//222 68//68 67//67
f 75//75 68//68 222//222
f 69//69 134//134 71//71
f 226//226 101//101 132//132
f 227//227 70//70 14//14
f 229//229 230//230 185//185
f 229//229 228//228 230//230
f 230//230 66//66 185//185
f 135//135 234//234 231//231
f 232//232 75//75 222//222
f 235//235 135//135 74//74
f 74//74 135//135 72//72
f 72//72 135//135 91//91
f 73//73 76//76 258//258
f 72//72 77//77 74//74
f 77//77 72//72 91//91
f 78//78 235//235 74//74
f 15//15 77//77 76//76
f 76//76 77//77 258//258
f 77//77 78//78 74//74
f 237//237 224//224 236//236
f 68//68 80//80 67//67
f 224//224 237//237 79//79
f 78//78 94//94 238//238
f 241//241 225//225 239//239
f 239//239 95//95 241//241
f 227//227 14//14 81//81
f 101//101 226//226 242//242
f 133//133 297//297 272//272
f 82//82 83//83 87//87
f 245//245 244//244 84//84
f 245//245 84//84 113//113
f 109//109 84//84 244//244
f 113//113 84//84 109//109
f 285//285 85//85 86//86
f 246//246 87//87 83//83
f 245//245 113//113 247//247
f 287//287 250//250 248//248
f 92//92 135//135 87//87
f 112//112 200//200 198//198
f 285//285 35//35 85//85
f 246//246 89//89 87//87
f 88//88 254//254 249//249
f 88//88 93//93 254//254
f 261//261 73//73 255//255
f 88//88 249//249 186//186
f 93//93 88//88 186//186
f 90//90 253//253 256//256
f 233//233 90//90 256//256
f 258//258 257//257 73//73
f 90//90 259//259 253//253
f 257//257 258//258 260//260
f 91//91 135//135 92//92
f 76//76 73//73 261//261
f 76//76 261//261 15//15
f 96//96 238//238 94//94
f 22//22 80//80 97//97
f 240//240 265//265 262//262
f 25//25 189//189 97//97
f 80//80 263//263 97//97
f 243//243 26//26 98//98
f 243//243 98//98 99//99
f 100//100 267//267 98//98
f 100//100 98//98 103//103
f 101//101 242//242 268//268
f 273//273 269//269 270//270
f 276//276 274//274 271//271
f 133//133 274//274 276//276
f 98//98 102//102 103//103
f 276//276 275//275 82//82
f 98//98 26//26 105//105
f 104//104 105//105 26//26
f 104//104 26//26 107//107
f 102//102 98//98 105//105
f 105//105 277//277 102//102
f 106//106 277//277 282//282
f 106//106 102//102 277//277
f 107//107 110//110 104//104
f 278//278 281//281 275//275
f 281//281 82//82 275//275
f 286//286 106//106 282//282
f 286//286 251//251 106//106
f 279//279 252//252 108//108
f 280//280 288//288 281//281
f 278//278 280//280 281//281
f 282//282 284//284 286//286
f 196//196 286//286 284//284
f 190//190 111//111 283//283
f 252//252 289//289 108//108
f 40//40 97//97 114//114
f 97//97 136//136 114//114
f 45//45 117//117 116//116
f 115//115 45//45 116//116
f 119//119 115//115 116//116
f 45//45 122//122 117//117
f 120//120 116//116 117//117
f 120//120 117//117 118//118
f 116//116 120//120 119//119
f 119//119 120//120 145//145
f 64//64 40//40 141//141
f 114//114 141//141 40//40
f 52//52 53//53 45//45
f 45//45 53//53 122//122
f 122//122 53//53 55//55
f 122//122 55//55 217//217
f 121//121 122//122 217//217
f 117//117 122//122 124//124
f 121//121 62//62 290//290
f 122//122 121//121 124//124
f 118//118 117//117 124//124
f 120//120 118//118 144//144
f 118//118 124//124 144//144
f 63//63 220//220 123//123
f 291//291 221//221 126//126
f 64//64 125//125 65//65
f 64//64 141//141 125//125
f 291//291 126//126 129//129
f 125//125 292//292 65//65
f 290//290 124//124 121//121
f 124//124 290//290 293//293
f 124//124 293//293 131//131
f 124//124 131//131 144//144
f 125//125 127//127 130//130
f 125//125 130//130 292//292
f 141//141 127//127 125//125
f 141//141 128//128 127//127
f 127//127 128//128 130//130
f 296//296 129//129 294//294
f 129//129 126//126 294//294
f 130//130 128//128 146//146
f 131//131 295//295 147//147
f 146//146 308//308 130//130
f 298//298 134//134 69//69
f 135//135 231//231 299//299
f 133//133 299//299 297//297
f 276//276 82//82 135//135
f 299//299 133//133 135//135
f 133//133 276//276 135//135
f 135//135 82//82 87//87
f 97//97 263//263 136//136
f 151//151 300//300 264//264
f 152//152 266//266 137//137
f 163//163 300//300 151//151
f 136//136 139//139 114//114
f 137//137 266//266 138//138
f 139//139 140//140 114//114
f 140//140 141//141 114//114
f 136//136 166//166 139//139
f 166//166 140//140 139//139
f 119//119 145//145 115//115
f 96//96 115//115 145//145
f 96//96 145//145 301//301
f 142//142 141//141 143//143
f 143//143 141//141 140//140
f 143//143 329//329 142//142
f 329//329 167//167 142//142
f 144//144 145//145 120//120
f 150//150 145//145 144//144
f 144//144 131//131 147//147
f 144//144 147//147 315//315
f 128//128 141//141 306//306
f 308//308 146//146 148//148
f 141//141 142//142 306//306
f 149//149 309//309 307//307
f 315//315 147//147 310//310
f 316//316 311//311 312//312
f 149//149 307//307 302//302
f 305//305 317//317 313//313
f 262//262 265//265 318//318
f 153//153 152//152 137//137
f 152//152 153//153 154//154
f 152//152 154//154 156//156
f 137//137 155//155 153//153
f 153//153 155//155 154//154
f 154//154 155//155 156//156
f 320//320 137//137 157//157
f 152//152 321//321 158//158
f 156//156 155//155 160//160
f 160//160 155//155 161//161
f 323//323 320//320 157//157
f 266//266 152//152 158//158
f 319//319 266//266 158//158
f 157//157 137//137 138//138
f 158//158 321//321 159//159
f 322//322 156//156 160//160
f 322//322 160//160 162//162
f 165//165 323//323 157//157
f 158//158 159//159 164//164
f 322//322 162//162 326//326
f 160//160 161//161 162//162
f 324//324 328//328 162//162
f 325//325 319//319 327//327
f 319//319 158//158 327//327
f 176//176 300//300 163//163
f 326//326 162//162 328//328
f 352//352 325//325 327//327
f 165//165 157//157 138//138
f 145//145 328//328 301//301
f 328//328 145//145 174//174
f 328//328 174//174 326//326
f 143//143 140//140 166//166
f 145//145 314//314 174//174
f 330//330 175//175 303//303
f 353//353 326//326 174//174
f 170//170 168//168 331//331
f 333//333 169//169 332//332
f 337//337 167//167 329//329
f 177//177 171//171 300//300
f 136//136 340//340 166//166
f 340//340 338//338 166//166
f 176//176 177//177 300//300
f 353//353 172//172 354//354
f 354//354 172//172 173//173
f 355//355 343//343 341//341
f 342//342 344//344 339//339
f 172//172 353//353 335//335
f 172//172 335//335 173//173
f 173//173 335//335 334//334
f 345//345 168//168 170//170
f 302//302 346//346 149//149
f 347//347 304//304 349//349
f 353//353 174//174 335//335
f 348//348 350//350 336//336
f 351//351 332//332 169//169
