# Wavafront OBJ file of BodyParts3D
# BodyParts3D, Copyright(C) 2010-2011 The Database Center for Life Science licensed under CC Attribution-Share Alike 2.1 Japan.
vn -0.994084 0.0159813 -0.107435
v -49.3384 -158.335 1510.22
vn -0.979199 0.0137486 -0.202435
v -49.3161 -158.185 1510.04
vn 0.979909 -0.199093 0.0118662
v -49.3384 -155.814 1512.44
vn 0.979909 -0.199093 0.0118662
v -49.3384 -155.805 1512.59
vn 0.979909 -0.199093 0.0118662
v -49.3325 -155.785 1512.44
vn -0.769239 -0.595571 0.231446
v -48.2192 -160.735 1508.99
vn -0.891469 -0.0369314 -0.451575
v -48.8333 -159.835 1508.84
vn -0.86309 0.0331679 -0.50396
v -48.8884 -158.935 1508.99
vn -0.552221 0.514622 -0.655909
v -49.0462 -156.535 1511.39
vn -0.552221 0.514622 -0.655909
v -49.1884 -156.496 1511.54
vn 0.232534 0.934775 -0.26856
v -49.0383 -156.49 1511.69
vn -0.829291 -0.386078 0.404006
v -49.0934 -156.385 1512.59
vn 0.831302 0.555816 0.00248039
v -48.9192 -156.535 1512.44
vn -0.704443 -0.510222 0.49339
v -48.9848 -156.535 1512.59
vn -0.959947 -0.187588 0.208114
v -48.937 -156.535 1512.89
vn -0.952154 -0.216884 0.215323
v -48.8356 -156.835 1513.04
vn -0.0938827 0.988062 -0.122143
v -48.7721 -156.685 1512.89
vn -0.958563 -0.219872 0.181147
v -48.8884 -156.685 1512.98
vn -0.896568 -0.258354 0.359748
v -48.8067 -156.685 1513.34
vn -0.952814 -0.153104 0.262114
v -48.8545 -156.535 1513.19
vn -0.856447 -0.278625 0.434587
v -48.7202 -156.985 1513.34
vn -0.0938827 0.988062 -0.122143
v -48.7383 -156.644 1513.19
vn -0.787537 -0.538242 -0.300133
v -48.7443 -156.535 1513.64
vn -0.818719 -0.252559 0.515667
v -48.7383 -156.62 1513.49
vn -0.787537 -0.538242 -0.300133
v -48.7383 -156.543 1513.64
vn -0.787537 -0.538242 -0.300133
v -48.7383 -156.535 1513.62
vn -0.797116 -0.262949 0.543566
v -48.5884 -156.985 1513.53
vn -0.883346 -0.408964 -0.229014
v -48.462 -156.985 1513.64
vn -0.883346 -0.408964 -0.229014
v -48.4384 -157.036 1513.64
vn -0.883346 -0.408964 -0.229014
v -48.4384 -156.985 1513.55
vn -0.832158 -0.298035 0.467641
v -48.2146 -157.435 1513.79
vn 0.551402 0.78702 -0.276687
v -48.2883 -157.182 1513.64
vn -0.735474 -0.170588 0.655727
v -48.2494 -157.285 1513.79
vn 0.427389 0.854836 -0.294269
v -48.1384 -157.34 1513.79
vn -0.98963 -0.0663783 0.127381
v -49.1884 -156.03 1512.59
vn -0.683572 -0.724805 -0.0859524
v -47.0942 -162.235 1507.34
vn -0.788434 -0.417327 -0.451896
v -47.2161 -161.935 1506.89
vn -0.789369 -0.613919 0.000228772
v -47.9825 -161.185 1507.79
vn -0.649037 -0.732779 0.204415
v -47.3884 -161.821 1508.39
vn -0.757521 -0.000345935 -0.652811
v -47.5383 -160.885 1507.08
vn 0.0476352 0.796086 -0.603306
v -46.9384 -160.715 1507.19
vn 0.612765 0.709764 -0.347497
v -47.8911 -159.385 1509.14
vn 0.422587 0.804765 -0.416861
v -47.3884 -159.835 1509.08
vn -0.575427 -0.691429 0.436818
v -47.2383 -159.73 1512.44
vn -0.347755 -0.666893 0.65903
v -46.9384 -158.915 1513.94
vn 0.780376 0.606967 -0.150346
v -47.7083 -158.485 1511.09
vn -0.708331 -0.55333 0.438284
v -47.9051 -157.585 1514.54
vn -0.61986 -0.633104 0.46363
v -47.5383 -158.185 1514.2
vn -0.671757 -0.634454 0.382374
v -47.5383 -158.154 1514.24
vn 0 -1 0
v -47.4306 -158.185 1514.39
vn -0.605476 -0.607724 0.513877
v -47.5383 -158.092 1514.39
vn 0.622965 0.762999 -0.172471
v -47.4786 -158.035 1514.09
vn 0.824856 -0.50958 -0.244827
v -47.4341 -158.035 1514.24
vn 0.831274 0.508753 0.223952
v -47.2958 -158.185 1514.24
vn -0.514774 -0.584213 0.627457
v -47.3884 -158.185 1514.43
vn 0.369264 -0.85934 0.353805
v -47.3884 -158.035 1514.37
vn -0.380635 -0.663929 0.643674
v -47.0884 -158.538 1514.24
vn 0.720161 0.693617 0.0162049
v -47.0884 -158.421 1514.24
vn -0.159183 -0.403364 0.901087
v -46.9384 -158.58 1514.09
vn -0.664626 -0.587355 -0.46183
v -45.8884 -162.745 1505.69
vn -0.52522 -0.850951 0.00510222
v -45.8884 -163.082 1507.19
vn -0.473738 -0.814667 0.334501
v -46.5577 -162.385 1508.54
vn -0.674229 -0.0645548 -0.735696
v -46.3091 -162.235 1505.84
vn 0.233874 0.897708 -0.373394
v -46.3384 -161.441 1506.14
vn 0.644406 0.760833 -0.0766428
v -46.4883 -161.212 1507.49
vn 0.0579818 0.821879 -0.566704
v -46.3384 -161.211 1507.49
vn -0.419248 -0.82425 0.380583
v -46.3384 -161.685 1510.04
vn 0.438957 0.845021 -0.305379
v -46.3121 -160.735 1508.24
vn 0.60945 0.757742 -0.233235
v -46.4883 -160.169 1510.04
vn 0.784511 0.200837 0.586692
v -45.7383 -159.985 1512.94
vn -0.0170919 -0.664923 0.746717
v -46.3384 -159.616 1513.34
vn 0.741096 0.0637706 0.668364
v -46.0383 -159.606 1513.19
vn -0.170127 -0.574105 0.800912
v -46.7883 -158.935 1513.96
vn -0.547509 0.278249 -0.789184
v -44.8384 -162.535 1504.71
vn -0.299809 -0.806349 0.50982
v -44.5383 -162.299 1510.64
vn 0.47482 0.876184 -0.0827513
v -45.3994 -161.935 1505.84
vn 0.291615 0.906765 -0.30453
v -44.9883 -162.168 1505.24
vn -0.0154018 0.846729 -0.531801
v -44.9883 -162.128 1505.99
vn 0.463649 0.8734 -0.149005
v -45.1384 -161.901 1506.59
vn 0.490954 0.84418 -0.21523
v -44.8384 -161.833 1508.24
vn 0.56372 0.824103 -0.0554373
v -44.5383 -161.635 1509.18
vn 0.492462 0.787199 -0.371212
v -45.4384 -160.424 1511.99
vn 0.636875 0.752466 -0.167885
v -45.4384 -160.119 1512.59
vn -0.439179 -0.850638 0.289027
v -44.3884 -163.094 1508.84
vn 0.539957 0.824814 -0.167717
v -44.3884 -161.785 1510.18
vn 0.693442 0.719002 0.0466312
v -43.9384 -161.643 1510.94
vn 0.351212 0.857889 -0.375069
v -43.3384 -162.154 1510.34
vn 0.711052 0.675354 0.195708
v -43.2856 -162.235 1510.49
vn 0.672921 -0.0436185 0.738427
v -43.9384 -161.719 1511.09
vn -0.607711 -0.793742 0.0256939
v -42.1613 -165.235 1504.19
vn -0.646542 -0.674594 -0.356239
v -42.0997 -165.235 1503.89
vn -0.564189 -0.0787937 -0.821878
v -42.1384 -164.485 1503.05
vn 0.433164 0.899376 -0.0590888
v -42.2883 -163.537 1504.04
vn -0.399417 -0.881856 0.250592
v -43.0383 -164.465 1506.89
vn -0.363244 -0.861968 0.353644
v -42.4384 -164.212 1508.54
vn 0.498185 0.858105 -0.124364
v -42.8884 -163.023 1506.44
vn 0.552377 0.832281 0.0467749
v -42.3633 -163.285 1507.94
vn 0.45535 0.860693 -0.227736
v -42.4384 -163.244 1508.69
vn -0.0773512 -0.747424 0.659829
v -43.1884 -162.845 1510.34
vn -0.530536 -0.603798 -0.594944
v -41.2383 -165.039 1502.69
vn -0.54517 -0.836287 -0.0584225
v -41.9883 -165.419 1504.04
vn -0.471949 -0.858768 0.199456
v -41.9883 -165.306 1504.34
vn -0.412169 -0.885276 0.215416
v -41.6884 -165.454 1504.34
vn -0.23736 -0.854827 0.461444
v -40.9384 -165.238 1507.49
vn 0.181395 0.890698 -0.416837
v -41.5383 -164.185 1502.8
vn 0.4657 0.884112 -0.0383242
v -40.9384 -164.596 1504.34
vn 0.485512 0.868656 -0.0985617
v -41.2383 -163.924 1506.59
vn -0.00211342 -0.726523 0.687139
v -41.3884 -164.195 1508.84
vn 0.60907 0.0816669 0.788901
v -41.2397 -163.735 1508.84
vn 0.483488 0.865487 -0.131039
v -41.2383 -163.722 1508.69
vn 0.458841 0.86973 -0.181753
v -41.9883 -163.429 1506.74
vn -0.382157 -0.914966 0.129592
v -39.7529 -166.135 1505.69
vn -0.388042 0.205031 -0.898547
v -40.6384 -164.935 1502.19
vn 0.453457 0.887591 -0.0809878
v -40.3383 -164.735 1505.09
vn 0.0453384 -0.669088 0.741799
v -40.0383 -165.037 1507.94
vn 0.437587 -0.166909 0.883549
v -39.7891 -164.935 1507.94
vn 0.480323 0.846422 -0.229913
v -40.7883 -164.544 1504.79
vn 0.428739 0.87691 -0.217282
v -40.7883 -164.45 1505.69
vn 0.615444 0.13376 0.776747
v -40.7883 -164.335 1508.58
vn -0.0815749 0.523783 -0.847937
v -38.5383 -165.385 1501.27
vn 0.409455 0.899497 0.152487
v -39.2883 -165.117 1502.99
vn 0.380122 0.92475 0.0185687
v -38.9883 -165.224 1503.89
vn 0.507593 0.858122 0.0772997
v -39.5883 -164.704 1507.64
vn 0.630363 0.431565 0.645286
v -39.5883 -164.785 1507.75
vn 0.407052 -0.128951 0.904257
v -39.2883 -165.385 1507.6
vn -0.452075 -0.561996 -0.692668
v -38.0883 -166.285 1501.31
vn -0.19379 0.103765 -0.97554
v -37.8342 -165.985 1501.04
vn -0.372836 -0.926852 0.0440191
v -38.2383 -167.008 1504.19
vn -0.198111 -0.848602 0.490538
v -38.0883 -166.642 1506.29
vn 0.107378 -0.538808 0.835557
v -37.4883 -166.462 1506.59
vn -0.44899 -0.505652 -0.736698
v -38.3884 -165.835 1501.16
vn 0.321678 0.943279 0.0821457
v -37.3383 -165.585 1501.34
vn 0.413778 0.89416 0.171071
v -38.2383 -165.316 1501.49
vn 0.60778 0.518841 0.601172
v -37.7557 -165.685 1506.74
vn 0.611298 0.48235 0.627417
v -37.4883 -165.775 1506.44
vn -0.425464 -0.823432 -0.375419
v -36.7383 -167.165 1501.19
vn -0.375977 -0.453858 -0.80787
v -36.1384 -167.185 1500.73
vn -0.111179 0.500841 -0.858369
v -36.4384 -165.932 1500.89
vn 0.303375 0.949727 0.0773468
v -36.2883 -165.934 1501.19
vn 0.350555 0.936465 0.0120427
v -36.5883 -166.435 1503.58
vn 0.41214 0.91087 0.0213519
v -37.1884 -165.849 1505.84
vn -0.00718082 -0.657515 0.753407
v -36.7383 -166.885 1506.22
vn 0.50064 0.127279 0.856248
v -37.1884 -166.285 1506.54
vn 0.298125 -0.201536 0.933008
v -36.7383 -166.735 1506.32
vn 0.0843068 -0.537073 0.839312
v -35.8383 -167.335 1505.84
vn 0.341996 0.889808 0.302127
v -35.3884 -166.307 1501.34
vn 0.467147 0.301169 0.831307
v -35.6159 -166.585 1505.69
vn 0.394458 0.152016 0.906253
v -35.3884 -167.035 1505.76
vn -0.327427 -0.94482 -0.0103497
v -34.4883 -168.248 1503.44
vn -0.258036 -0.941633 0.216205
v -34.0383 -168.449 1502.99
vn -0.324186 -0.945449 0.0321001
v -34.7883 -168.262 1504.19
vn -0.150919 -0.877936 0.454369
v -33.7383 -168.454 1504.79
vn -0.221644 -0.0352964 -0.974489
v -34.7883 -167.335 1500.41
vn -0.33059 -0.868307 -0.369801
v -34.4883 -167.785 1500.43
vn 0.339829 0.940048 0.0287342
v -34.3446 -167.185 1503.89
vn 0.368139 0.925988 0.0837882
v -33.8884 -167.252 1504.79
vn 0.414523 0.903407 0.10967
v -34.4883 -167.036 1505.09
vn 0.446171 0.854171 0.267066
v -34.3383 -167.167 1505.24
vn 0.0386414 -0.564141 0.824774
v -34.0383 -167.785 1505.34
vn -0.101268 0.48002 -0.871393
v -33.8884 -166.885 1500.28
vn 0.0157431 0.767503 -0.640852
v -33.7383 -166.63 1500.59
vn -0.11717 0.320049 -0.940127
v -33.5883 -167.035 1500.15
vn -0.0482613 0.636042 -0.770144
v -33.2883 -166.813 1500.29
vn -0.301282 -0.928874 -0.21546
v -32.2383 -168.712 1500.74
vn -0.298858 -0.935817 -0.186897
v -31.5232 -169.285 1501.94
vn -0.0408645 -0.509396 0.859562
v -32.0883 -168.798 1504.64
vn 0.234475 0.268119 0.934416
v -32.2383 -168.085 1504.98
vn -0.253962 -0.878448 0.404762
v -30.2883 -169.499 1502.39
vn -0.375145 -0.648829 -0.662032
v -30.0875 -169.135 1499.99
vn -0.350783 -0.912542 -0.210283
v -30.5934 -169.135 1500.44
vn -0.32965 -0.923597 -0.195704
v -30.4384 -169.152 1500.89
vn -0.305393 -0.941815 0.140429
v -30.2883 -169.41 1502.54
vn -0.226589 -0.102705 -0.96856
v -30.7418 -168.085 1499.69
vn -0.0599692 0.356791 -0.932258
v -30.7383 -167.552 1499.84
vn 0.360165 0.849928 0.384583
v -30.8883 -167.785 1500.79
vn -0.320321 -0.947211 0.013641
v -29.8384 -169.79 1501.94
vn -0.370055 -0.917348 0.146739
v -29.2383 -169.961 1502.24
vn 0.0199609 0.419785 -0.907404
v -28.9384 -168.535 1499.33
vn 0.30662 0.944676 0.116499
v -29.8384 -168.297 1500.89
vn 0.257805 0.954535 -0.149664
v -29.3883 -168.719 1501.79
vn 0.419638 0.882574 0.212056
v -29.3883 -168.032 1499.99
vn -0.387718 -0.902253 0.188715
v -28.1884 -170.453 1504.19
vn 0.296327 0.725982 -0.620597
v -28.7883 -168.344 1499.54
vn 0.189628 0.569587 -0.799757
v -28.0383 -168.985 1499.19
vn 0.491163 0.834906 0.248376
v -27.8883 -168.972 1499.99
vn 0.273179 0.960568 -0.0517849
v -28.3384 -168.702 1500.44
vn 0.408685 0.896722 0.169899
v -27.6962 -169.435 1502.54
vn 0.366257 0.927392 0.076157
v -27.7383 -169.082 1501.94
vn -0.446478 -0.401433 -0.799693
v -26.9883 -170.485 1499.04
vn -0.133577 0.216885 -0.967015
v -26.5383 -170.185 1498.78
vn -0.602036 -0.764659 -0.229888
v -27.1453 -170.635 1500.14
vn -0.506234 -0.846364 -0.165512
v -27.2883 -170.416 1499.84
vn 0.551819 0.831229 0.0674805
v -26.9883 -169.511 1499.84
vn 0.118328 0.626412 -0.770459
v -26.5383 -169.585 1499.85
vn -0.490619 -0.86312 -0.119652
v -27.4383 -170.603 1500.59
vn 0.465004 0.742444 0.482233
v -27.2883 -169.505 1502.24
vn 0.536331 0.84317 -0.0375948
v -27.2883 -169.197 1499.54
vn 0.401295 0.892911 0.204136
v -27.5884 -169.285 1501.16
vn -0.456177 -0.879432 0.136019
v -26.0884 -171.487 1503.89
vn -0.351656 -0.829694 0.433527
v -25.6383 -171.243 1504.64
vn 0.311889 0.716858 -0.62357
v -26.3883 -169.966 1498.94
vn 0.140747 0.686017 -0.713842
v -26.0884 -169.532 1499.99
vn 0.542462 0.657113 0.52339
v -26.3883 -169.78 1500.74
vn 0.484934 0.770496 0.413732
v -26.3883 -169.436 1500.44
vn 0.440414 0.8976 -0.0186985
v -26.2383 -169.93 1500.89
vn 0.584054 0.531398 0.613593
v -25.6508 -170.035 1500.29
vn 0.502628 0.850588 0.154483
v -26.2698 -169.735 1501.64
vn 0.519309 0.801119 0.297534
v -25.7883 -170.205 1501.79
vn 0.505741 0.860915 0.0552383
v -25.3384 -170.465 1502.09
vn 0.258355 0.667718 0.698144
v -26.2383 -170.055 1504.64
vn 0.493418 0.869732 -0.010228
v -25.6383 -170.298 1504.19
vn -0.548526 -0.836083 -0.00920506
v -24.7383 -172.244 1502.39
vn -0.664911 -0.642298 -0.381243
v -25.1544 -171.835 1498.34
vn -0.655755 -0.489445 -0.574829
v -24.8883 -171.835 1498.04
vn -0.0712158 0.561481 -0.824419
v -24.8883 -171.235 1498.2
vn 0.441872 0.841036 -0.312101
v -24.5884 -171.241 1498.34
vn 0.0507493 0.676849 -0.734371
v -24.3708 -171.085 1498.94
vn 0.203476 0.755557 -0.62268
v -24.4383 -170.935 1499.08
vn 0.144628 0.710853 -0.68831
v -25.1883 -170.717 1499.24
vn 0.495081 0.868372 -0.0287085
v -24.4383 -170.863 1499.99
vn 0.450413 0.794663 -0.406987
v -24.3686 -170.785 1499.39
vn 0.675125 0.680517 0.284785
v -24.2883 -170.936 1499.54
vn 0.511957 0.858969 0.00852686
v -25.0383 -170.641 1502.84
vn 0.504696 0.863077 0.0195097
v -24.7383 -170.828 1504.34
vn 0.568004 0.512349 0.644104
v -24.2883 -171.385 1504.46
vn 0.635085 0.696491 0.334017
v -25.0751 -170.185 1499.84
vn 0.628132 0.490791 0.6038
v -25.0383 -170.568 1500.14
vn 0.678601 0.538675 0.499329
v -24.8883 -170.485 1499.89
vn 0.215972 0.584925 -0.781804
v -24.8883 -170.335 1499.53
vn 0.161868 0.623712 -0.764711
v -24.7383 -170.609 1499.39
vn 0.680253 0.603347 0.416206
v -24.6715 -170.485 1499.54
vn 0.342964 0.761547 -0.549929
v -24.5884 -170.635 1499.38
vn 0.71423 0.59905 0.361959
v -24.5122 -170.635 1499.54
vn -0.560362 -0.82439 -0.0798467
v -23.5185 -173.335 1500.14
vn -0.185052 -0.74352 0.642599
v -22.9383 -173.301 1503.44
vn -0.694969 0.142866 -0.704704
v -23.0884 -172.735 1496.65
vn -0.723653 -0.550234 -0.416615
v -23.4505 -172.885 1497.14
vn -0.695431 -0.088286 -0.713149
v -23.4294 -172.735 1496.99
vn -0.589668 0.175412 -0.788367
v -23.5383 -172.285 1497.17
vn 0.205758 0.863579 -0.460321
v -23.5383 -172.033 1497.44
vn -0.654213 -0.728559 -0.202996
v -23.6883 -172.973 1497.89
vn 0.391295 0.880962 -0.266071
v -23.6883 -171.859 1498.19
vn 0.497046 0.861868 -0.100645
v -23.6956 -171.835 1497.89
vn 0.0523571 0.721086 -0.690864
v -23.8384 -171.535 1498.57
vn 0.32979 0.837872 -0.434981
v -23.6883 -171.385 1498.72
vn 0.612195 0.789368 0.0459969
v -23.6425 -171.385 1499.09
vn 0.583748 0.810441 0.0492272
v -23.2383 -171.646 1499.39
vn 0.596366 0.799022 0.0768909
v -23.7038 -171.535 1503.89
vn -0.4101 -0.888732 0.204873
v -21.7383 -174.316 1502.24
vn -0.745784 0.166328 -0.64509
v -21.8883 -173.485 1495.29
vn -0.731543 -0.653275 -0.195131
v -22.3081 -173.785 1496.09
vn -0.822062 -0.329141 -0.464629
v -22.2645 -173.635 1495.79
vn 0.147005 -0.648706 0.746707
v -21.8883 -173.785 1503.01
vn 0.73955 0.204043 0.64143
v -21.7383 -173.185 1503.19
vn -0.0772832 0.789101 -0.609382
v -22.4883 -172.745 1496.39
vn 0.14902 0.848194 -0.508291
v -22.6383 -172.285 1497.74
vn 0.244192 0.881249 -0.404686
v -21.7383 -172.926 1496.84
vn 0.177454 0.871639 -0.456898
v -21.7383 -172.727 1497.14
vn 0.472538 0.865571 -0.165818
v -22.4883 -172.183 1498.04
vn 0.569874 0.821587 0.0154223
v -22.0383 -172.9 1501.79
vn 0.371175 -0.250317 0.894187
v -22.1883 -173.035 1503.54
vn 0.665472 0.493902 0.55965
v -21.8883 -172.885 1503.27
vn 0.667983 0.732657 0.130434
v -21.7383 -172.996 1502.99
vn -0.879576 0.222684 -0.420427
v -20.3895 -175.135 1492.19
vn -0.75549 0.367304 -0.542514
v -21.1383 -174.385 1493.89
vn -0.57136 0.590879 -0.569569
v -20.6883 -174.385 1493.44
vn -0.732851 -0.678394 -0.0520595
v -20.8384 -174.985 1494.41
vn -0.53697 -0.842558 0.0419531
v -20.8384 -174.819 1496.84
vn 0.179501 -0.742322 0.645553
v -20.5383 -174.685 1501.81
vn 0.302316 0.91281 -0.27456
v -21.1383 -173.556 1495.34
vn 0.462739 0.864349 -0.196909
v -21.1575 -173.185 1496.69
vn 0.577596 0.81619 0.0147349
v -20.5383 -173.713 1497.74
vn 0.50643 0.857222 -0.0932655
v -21.4383 -173.334 1501.49
vn 0.742757 0.46848 0.478371
v -20.8734 -173.635 1502.39
vn -0.761786 -0.623207 -0.176902
v -19.2434 -177.685 1486.94
vn -0.827503 -0.38399 -0.409623
v -19.2411 -177.535 1486.79
vn -0.971843 -0.0699843 -0.224998
v -19.302 -177.535 1486.94
vn -0.932717 0.22335 -0.283113
v -19.6067 -176.335 1489.04
vn -0.782584 -0.617979 0.075259
v -19.6383 -176.542 1490.09
vn -0.711027 0.55744 -0.428604
v -20.202 -175.585 1491.44
vn -0.91429 -0.38249 -0.133327
v -20.3169 -175.585 1492.04
vn -0.0599636 -0.926608 0.371217
v -19.4883 -175.585 1500.12
vn -0.54735 0.702368 -0.455068
v -19.9383 -175.248 1491.44
vn 0.161845 0.931727 -0.325102
v -19.9383 -174.463 1493.24
vn -0.471159 -0.879866 0.0620045
v -20.0884 -175.334 1499.99
vn 0.50244 0.864564 -0.00914037
v -20.0884 -174.25 1499.99
vn 0.364393 0.920616 -0.140298
v -19.4883 -174.454 1499.99
vn 0.556506 0.825056 0.0978944
v -19.4883 -174.44 1500.14
vn 0.808388 0.163607 0.565457
v -19.53 -174.535 1501.04
vn 0.39973 -0.675027 0.620125
v -19.4883 -174.985 1500.99
vn 0.631941 -0.150021 0.760358
v -20.0884 -174.385 1501.76
vn 0.429182 0.903194 -0.00662338
v -20.3883 -173.8 1498.49
vn 0.511086 0.859466 -0.0104712
v -20.0801 -173.935 1498.49
vn 0.497448 0.866082 -0.0494844
v -20.0884 -174.062 1500.74
vn -0.807716 -0.587749 -0.0463283
v -18.8051 -178.135 1485.29
vn -0.852265 -0.375998 -0.363689
v -18.8073 -177.985 1485.14
vn -0.940489 -0.312134 -0.134359
v -18.8778 -177.985 1485.29
vn -0.912533 -0.406903 0.0414021
v -18.8778 -177.985 1485.59
vn -0.730871 -0.573095 -0.370661
v -18.6294 -178.285 1484.99
vn -0.57445 -0.779669 0.249245
v -18.5884 -178.248 1485.59
vn -0.545187 -0.832946 0.094717
v -18.4383 -178.546 1485.14
vn -0.346684 -0.885639 0.308957
v -18.2883 -178.48 1485.44
vn 0.0946288 0.884202 -0.457418
v -18.1383 -178.08 1484.99
vn -0.470294 -0.877243 -0.0962778
v -18.8883 -177.836 1486.64
vn -0.162923 -0.986279 0.0266392
v -18.8883 -177.864 1486.94
vn -0.567854 -0.809295 0.150279
v -18.7383 -177.932 1486.49
vn -0.231466 -0.969132 0.0848866
v -18.7383 -177.873 1486.79
vn -0.346482 -0.917585 0.194907
v -18.4383 -177.948 1486.94
vn -0.14234 -0.979919 0.139636
v -18.7383 -177.85 1487.09
vn -0.991284 -0.11979 -0.0548365
v -18.8883 -177.829 1485.44
vn 0.0446039 0.830111 -0.555812
v -18.7383 -177.819 1485.29
vn -0.793906 -0.521289 -0.313003
v -19.0841 -177.685 1486.64
vn -0.930547 -0.0865083 -0.355806
v -19.0747 -177.535 1486.49
vn -0.787616 0.42845 -0.442823
v -19.1051 -177.235 1486.64
vn -0.979112 -0.171412 -0.109356
v -18.9973 -177.685 1486.19
vn -0.0682377 0.871176 -0.486206
v -18.8883 -177.085 1486.69
vn -0.652016 0.646982 -0.395335
v -18.7383 -177.535 1485.9
vn -0.352849 -0.928962 0.111926
v -19.0383 -177.815 1487.09
vn -0.318773 0.844994 -0.429381
v -19.0383 -176.718 1487.39
vn 0.309812 0.899917 -0.306863
v -18.8883 -176.612 1487.69
vn -0.399573 -0.913756 0.0734303
v -18.4383 -176.215 1495.64
vn -0.24684 -0.957148 0.151449
v -19.1883 -175.877 1499.24
vn 0.502902 0.843748 -0.187559
v -18.7184 -175.435 1492.64
vn 0.778139 0.472499 0.413817
v -18.0083 -175.285 1498.94
vn 0.618746 0.769203 0.159625
v -18.7772 -174.985 1499.99
vn 0.821048 0.171023 0.544638
v -18.5884 -175.285 1499.83
vn -0.230179 -0.661721 -0.713543
v -17.8383 -178.585 1484.46
vn 0.0712987 0.649207 -0.757262
v -17.8383 -178.435 1484.47
vn 0.301564 -0.68098 -0.667327
v -17.5383 -178.585 1484.49
vn -0.468095 -0.670052 -0.576123
v -17.8383 -178.816 1484.69
vn 0.122173 -0.690467 -0.712972
v -17.6883 -178.848 1484.69
vn -0.0633615 -0.980363 0.186746
v -17.6883 -178.848 1484.84
vn 0.392301 -0.694644 -0.602968
v -17.3883 -178.797 1484.84
vn -0.00664248 -0.978521 0.206041
v -17.3883 -178.776 1484.99
vn -0.111616 -0.947543 0.299507
v -17.3543 -178.735 1485.14
vn 0.201309 -0.736874 -0.645361
v -17.0883 -178.766 1484.99
vn -0.228153 -0.968235 0.102306
v -17.0883 -178.79 1485.14
vn 0.532217 0.085798 -0.842249
v -17.0883 -178.585 1484.78
vn -0.448013 -0.891544 -0.0665892
v -16.8508 -178.885 1485.44
vn 0.444184 0.364192 -0.818575
v -16.9383 -178.135 1484.92
vn 0.156481 0.857762 -0.489651
v -16.9383 -177.985 1485.1
vn -0.430916 -0.872802 0.229192
v -16.9383 -178.473 1487.69
vn 0.241403 0.934453 -0.261767
v -17.2383 -177.566 1486.34
vn 0.343707 0.920946 -0.183641
v -17.2568 -177.385 1487.54
vn -0.3379 -0.916076 0.215935
v -17.9883 -177.744 1488.44
vn 0.458238 0.871481 -0.174752
v -17.8383 -176.102 1491.74
vn 0.435717 0.878206 -0.197243
v -17.3883 -176.273 1492.19
vn 0.24035 0.935348 -0.259531
v -16.8986 -176.485 1491.89
vn 0.58396 0.808808 -0.0694259
v -17.3883 -175.735 1494.27
vn 0.85909 0.480486 0.176344
v -17.1692 -176.035 1493.99
vn 0.671104 0.741097 0.0198935
v -17.8383 -175.534 1495.94
vn 0.302971 0.947955 -0.0979245
v -17.2383 -175.588 1496.24
vn 0.753583 0.618484 0.222691
v -16.9348 -175.735 1496.09
vn 0.155246 -0.930441 0.331931
v -17.3883 -176.335 1497.53
vn 0.556922 -0.685939 0.468322
v -17.0883 -176.338 1497.29
vn 0.402047 0.909622 -0.104624
v -17.0883 -175.799 1496.84
vn 0.388226 -0.771813 0.503573
v -17.8383 -176.099 1498.34
vn 0.660359 -0.491994 0.567334
v -17.5184 -175.735 1498.34
vn 0.777009 0.574031 0.25835
v -17.3949 -175.585 1498.04
vn 0.283015 0.940515 -0.187974
v -17.8383 -175.401 1496.69
vn 0.565859 0.811062 0.148263
v -17.8383 -175.372 1497.29
vn 0.559235 0.825457 0.0766661
v -17.8157 -175.285 1498.49
vn -0.531416 -0.785248 -0.317777
v -16.3383 -179.371 1485.59
vn -0.623148 -0.768118 0.147245
v -16.3383 -179.376 1485.74
vn -0.336604 -0.93988 0.0576525
v -16.1883 -179.465 1485.74
vn -0.0254748 -0.586725 -0.809386
v -16.1883 -179.317 1485.44
vn -0.102166 -0.896542 -0.431015
v -16.0383 -179.477 1485.59
vn 0.28012 -0.959881 -0.0126905
v -15.8883 -179.512 1485.74
vn 0.384403 -0.646743 -0.658754
v -15.8883 -179.45 1485.59
vn -0.151039 -0.933392 0.325525
v -16.0383 -179.141 1486.79
vn 0.304514 -0.927673 0.21609
v -15.7383 -179.359 1486.04
vn -0.137903 -0.960468 0.241834
v -15.7383 -179.177 1486.64
vn -0.172 -0.914516 0.366166
v -15.7383 -179.052 1486.94
vn 0.138623 -0.681084 -0.718963
v -16.6383 -178.886 1485.14
vn -0.551275 -0.781089 -0.293252
v -16.6118 -179.035 1485.44
vn -0.698657 -0.71512 0.0219706
v -16.6301 -179.035 1485.59
vn -0.253164 -0.705037 -0.662443
v -16.4883 -179.035 1485.32
vn 0.471001 0.798432 -0.375052
v -16.4883 -178.021 1485.44
vn 0.251325 -0.377079 -0.89143
v -16.3383 -178.885 1485.22
vn 0.381064 -0.299244 -0.874782
v -15.8883 -179.035 1485.4
vn -0.574087 -0.803161 0.159239
v -16.6794 -178.735 1486.79
vn 0.256224 0.916396 -0.307518
v -15.7383 -178.312 1486.64
vn -0.357413 -0.894074 0.269976
v -16.6383 -178.155 1488.74
vn -0.219768 -0.937611 0.269421
v -15.7383 -178.23 1490.24
vn 0.26083 0.946628 -0.189375
v -16.6383 -177.658 1487.09
vn 0.420413 0.885836 -0.196334
v -16.4883 -177.535 1487.89
vn 0.855752 0.486504 0.176077
v -15.7536 -177.385 1490.84
vn 0.286724 -0.894321 0.343483
v -15.8799 -177.235 1493.99
vn 0.178855 -0.920782 0.346657
v -15.7383 -177.235 1493.84
vn 0.335409 -0.871378 0.358052
v -16.1731 -176.785 1495.34
vn 0.341066 -0.867523 0.362047
v -15.9201 -176.935 1494.74
vn 0.978606 -0.109405 0.174244
v -15.8883 -176.957 1494.44
vn 0.088694 -0.956087 0.279341
v -16.6383 -176.779 1495.79
vn 0.093617 0.958087 -0.270748
v -15.7383 -176.387 1493.99
vn 0.184139 0.961659 -0.203236
v -16.4883 -176.076 1494.89
vn 0.787429 -0.0318513 0.615582
v -16.3383 -176.335 1495.18
vn 0.441922 0.892607 0.0892041
v -16.3383 -176.106 1495.04
vn 0.586124 0.783136 0.207742
v -16.3383 -176.146 1495.19
vn 0.84688 0.196485 0.494154
v -16.1883 -176.635 1494.98
vn 0.879533 0.473399 0.0481136
v -16.1883 -176.635 1495.21
vn 0.401232 0.915043 0.041347
v -16.1883 -176.146 1494.89
vn 0.556204 0.81149 0.179221
v -16.1776 -176.185 1495.04
vn 0.777491 -0.031492 0.628105
v -15.8883 -176.598 1494.59
vn 0.599626 0.799766 0.0286831
v -16.7883 -176.005 1496.24
vn 0.741758 0.670224 0.0243958
v -16.6383 -176.164 1495.79
vn 0.574585 0.806862 -0.137205
v -16.6383 -176.12 1496.09
vn 0.47749 0.868216 -0.134919
v -16.6383 -176.052 1496.39
vn 0.883631 -0.201375 0.422664
v -16.2575 -176.635 1495.64
vn 0.723345 0.686181 -0.0769922
v -16.285 -176.485 1495.64
vn 0.995491 0.0945234 -0.00788744
v -16.1883 -176.612 1495.49
vn 0.904583 0.3078 0.294938
v -16.6864 -176.185 1496.84
vn 0.54229 -0.770216 -0.335691
v -15.4383 -179.185 1485.86
vn 0.491266 -0.863078 -0.117282
v -15.5883 -179.31 1485.89
vn 0.0894277 -0.985555 -0.14382
v -15.4383 -179.28 1486.04
vn -0.404189 -0.908324 -0.107609
v -15.3071 -179.335 1486.34
vn -0.451565 -0.882521 0.131325
v -15.4383 -179.237 1486.79
vn 0.197642 -0.747905 -0.6337
v -15.2883 -179.185 1485.99
vn -0.065337 -0.852129 -0.519237
v -15.1383 -179.335 1486.16
vn -0.360752 -0.91756 -0.167159
v -14.6851 -179.785 1486.79
vn 0.586916 0.327254 -0.740564
v -15.5883 -178.654 1485.89
vn 0.0769972 0.912301 -0.402216
v -15.5883 -178.52 1486.19
vn 0.332712 0.886761 -0.32087
v -15.1383 -178.435 1486.49
vn 0.426169 0.64516 -0.634152
v -14.5383 -178.764 1486.64
vn 0.293356 0.919616 -0.261244
v -14.5383 -178.435 1487.64
vn 0.10468 0.952022 -0.28757
v -14.6452 -177.835 1489.94
vn 0.774589 0.615412 0.145876
v -15.2146 -176.785 1493.54
vn 0.500174 -0.657838 0.563094
v -15.1301 -177.085 1493.54
vn 0.316076 0.188704 -0.929778
v -14.3883 -179.485 1486.35
vn -0.232219 -0.827625 -0.51099
v -13.9383 -179.785 1486.45
vn 0.53103 -0.724435 -0.439546
v -13.7883 -179.924 1486.79
vn 0.406459 0.204917 -0.890393
v -13.7883 -179.485 1486.44
vn 0.607972 -0.683915 -0.403275
v -13.5176 -179.635 1486.64
vn 0.664744 -0.634298 -0.394693
v -13.4883 -179.785 1486.98
vn 0.580866 -0.568861 -0.58223
v -13.3887 -179.635 1486.94
vn 0.605584 0.271777 -0.747934
v -13.4883 -179.335 1486.8
vn 0.0404142 -0.990577 0.130859
v -13.6383 -179.785 1487.17
vn 0.367177 -0.834498 -0.410846
v -13.3383 -179.704 1487.09
vn 0.276314 -0.833637 0.478225
v -13.4883 -179.235 1488.89
vn 0.851587 -0.281855 0.441992
v -13.3161 -179.185 1488.74
vn 0.483776 0.744492 -0.4601
v -13.3383 -179.01 1487.09
vn 0.638095 0.758466 -0.132529
v -13.3383 -178.766 1487.84
vn 0.367144 0.906964 -0.206452
v -13.9383 -178.141 1489.19
vn 0.459191 0.861373 -0.217211
v -13.7883 -178.445 1488.29
vn 0.842736 0.537613 0.0277259
v -13.5096 -178.435 1489.19
vn 0.807466 0.586821 0.0603333
v -13.3864 -178.735 1488.59
vn 0.925226 0.23323 0.299266
v -13.2598 -179.035 1488.59
vn -0.241038 -0.93125 0.273267
v -13.9383 -178.652 1490.39
vn 0.661641 -0.569442 0.487819
v -13.9383 -178.135 1490.99
vn 0.165638 -0.971379 -0.170257
v -13.1883 -179.828 1487.54
vn -0.0486593 -0.974835 0.217553
v -13.1883 -179.833 1487.69
vn 0.647491 -0.240943 -0.722981
v -13.0498 -179.485 1487.09
vn 0.715326 0.26293 -0.647438
v -13.0558 -179.335 1487.09
vn 0.507504 -0.834253 0.215547
v -13.0383 -179.805 1487.69
vn 0.630506 -0.637123 -0.443325
v -13.0383 -179.655 1487.24
vn 0.289188 -0.91495 -0.28149
v -13.0383 -179.785 1487.54
vn 0.722276 -0.496922 0.481026
v -13.0383 -179.685 1487.84
vn 0.874662 -0.453402 -0.171443
v -12.9387 -179.635 1487.54
vn 0.939115 -0.317512 0.131334
v -12.9223 -179.635 1487.69
vn 0.945353 -0.0989214 -0.31068
v -12.9387 -179.485 1487.24
vn 0.83156 0.479845 -0.279744
v -12.9669 -179.335 1487.24
vn 0.92981 0.365091 0.0465046
v -12.9716 -179.185 1487.84
vn 0.922185 0.0496495 0.383548
v -13.0794 -179.185 1488.29
vn -0.552221 0.514622 -0.655909
v -49.3384 -158.335 1510.22
vn -0.936858 -0.228527 0.264712
v -49.3384 -158.335 1510.22
vn -0.865057 -0.385649 0.320861
v -49.3384 -158.335 1510.22
vn -0.495909 0.59704 -0.63057
v -49.3161 -158.185 1510.04
vn -0.979909 0.199093 -0.0118662
v -49.3384 -155.814 1512.44
vn -0.979909 0.199093 -0.0118662
v -49.3384 -155.805 1512.59
vn -0.979909 0.199093 -0.0118662
v -49.3325 -155.785 1512.44
vn -0.827989 -0.539347 0.153423
v -48.8333 -159.835 1508.84
vn -0.495909 0.59704 -0.63057
v -48.8884 -158.935 1508.99
vn 0.415594 0.756781 -0.504544
v -48.8884 -158.935 1508.99
vn -0.0634975 0.67512 -0.73497
v -48.8884 -158.935 1508.99
vn -0.987792 0.155604 0.00732138
v -49.0462 -156.535 1511.39
vn -0.495909 0.59704 -0.63057
v -49.0462 -156.535 1511.39
vn 0.730226 0.611102 -0.305491
v -49.0462 -156.535 1511.39
vn 0.110534 0.982743 -0.148321
v -49.0462 -156.535 1511.39
vn -0.991555 0.118545 -0.0525915
v -49.1884 -156.496 1511.54
vn 0.232534 0.934775 -0.26856
v -49.1884 -156.496 1511.54
vn 0.850805 0.514956 -0.104651
v -49.0383 -156.49 1511.69
vn 0 0 1
v -49.0934 -156.385 1512.59
vn 0 1 0
v -48.9192 -156.535 1512.44
vn -0.96233 -0.209798 0.172931
v -48.9848 -156.535 1512.59
vn 0 1 0
v -48.9848 -156.535 1512.59
vn 0.859465 0.346855 0.375514
v -48.9848 -156.535 1512.59
vn 0 0 1
v -48.9848 -156.535 1512.59
vn 0 1 0
v -48.937 -156.535 1512.89
vn 0.670744 0.737563 -0.078123
v -48.937 -156.535 1512.89
vn -0.809221 -0.0476546 0.585569
v -48.8356 -156.835 1513.04
vn -0.794445 0.570407 -0.208549
v -48.8356 -156.835 1513.04
vn 0.736157 0.669067 -0.102092
v -48.7721 -156.685 1512.89
vn 0.380606 -0.780988 0.495174
v -48.7721 -156.685 1512.89
vn -0.0938827 0.988062 -0.122143
v -48.8884 -156.685 1512.98
vn -0.809221 -0.0476546 0.585569
v -48.8884 -156.685 1512.98
vn 0.380606 -0.780988 0.495174
v -48.8884 -156.685 1512.98
vn -0.711217 0.689139 -0.138775
v -48.8067 -156.685 1513.34
vn 0.380606 -0.780988 0.495174
v -48.8545 -156.535 1513.19
vn 0.661565 0.727469 -0.181993
v -48.8545 -156.535 1513.19
vn 0.551402 0.78702 -0.276687
v -48.7202 -156.985 1513.34
vn -0.479656 -0.814215 0.327085
v -48.7202 -156.985 1513.34
vn -0.0203446 0.821964 0.569176
v -48.7202 -156.985 1513.34
vn -0.809221 -0.0476546 0.585569
v -48.7383 -156.644 1513.19
vn -0.711217 0.689139 -0.138775
v -48.7383 -156.644 1513.19
vn 0.810594 0.57576 -0.106948
v -48.7383 -156.644 1513.19
vn 0.787537 0.538242 0.300133
v -48.7443 -156.535 1513.64
vn -0.609573 0.790027 -0.065407
v -48.7383 -156.62 1513.49
vn 0.888138 0.458921 0.0245435
v -48.7383 -156.62 1513.49
vn 0.787537 0.538242 0.300133
v -48.7383 -156.543 1513.64
vn 0.787537 0.538242 0.300133
v -48.7383 -156.535 1513.62
vn 0.91714 0.387726 0.0923189
v -48.5884 -156.985 1513.53
vn -0.479656 -0.814215 0.327085
v -48.5884 -156.985 1513.53
vn 0.883346 0.408964 0.229014
v -48.462 -156.985 1513.64
vn 0.883346 0.408964 0.229014
v -48.4384 -157.036 1513.64
vn 0.883346 0.408964 0.229014
v -48.4384 -156.985 1513.55
vn 0 0 1
v -48.2146 -157.435 1513.79
vn -0.710724 0.573181 0.407842
v -48.2146 -157.435 1513.79
vn -0.0203446 0.821964 0.569176
v -48.2883 -157.182 1513.64
vn 0.926005 0.377082 0.0179798
v -48.2883 -157.182 1513.64
vn -0.0203446 0.821964 0.569176
v -48.2494 -157.285 1513.79
vn 0.427389 0.854836 -0.294269
v -48.2494 -157.285 1513.79
vn 0 0 1
v -48.2494 -157.285 1513.79
vn 0.926005 0.377082 0.0179798
v -48.2494 -157.285 1513.79
vn 0 0 1
v -48.1384 -157.34 1513.79
vn 0.843778 0.529113 -0.0898782
v -48.1384 -157.34 1513.79
vn -0.710724 0.573181 0.407842
v -48.1384 -157.34 1513.79
vn 0.347175 0.857229 -0.380301
v -49.1884 -156.03 1512.59
vn 0.890303 0.433873 0.138252
v -49.1884 -156.03 1512.59
vn 0 0 1
v -49.1884 -156.03 1512.59
vn -0.81762 -0.114372 -0.564284
v -47.9825 -161.185 1507.79
vn -0.0902366 0.732558 -0.674697
v -47.5383 -160.885 1507.08
vn 0.648198 0.75518 -0.0976844
v -46.9384 -160.715 1507.19
vn 0.624291 -0.319175 0.713014
v -46.9384 -158.915 1513.94
vn 0.551402 0.78702 -0.276687
v -47.7083 -158.485 1511.09
vn -0.479656 -0.814215 0.327085
v -47.7083 -158.485 1511.09
vn 0.427389 0.854836 -0.294269
v -47.7083 -158.485 1511.09
vn 0.926005 0.377082 0.0179798
v -47.7083 -158.485 1511.09
vn 0.746691 0.652801 -0.127685
v -47.7083 -158.485 1511.09
vn 0.925284 -0.379016 -0.0139898
v -47.7083 -158.485 1511.09
vn 0.015641 0.995178 -0.0968273
v -47.7083 -158.485 1511.09
vn 0.680842 0.714205 -0.162372
v -47.9051 -157.585 1514.54
vn -0.710724 0.573181 0.407842
v -47.9051 -157.585 1514.54
vn 0.513877 0.290372 0.807226
v -47.9051 -157.585 1514.54
vn 0 -1 0
v -47.5383 -158.185 1514.2
vn 0.884002 -0.448833 -0.130729
v -47.5383 -158.185 1514.2
vn 0.668299 -0.584794 0.459774
v -47.5383 -158.185 1514.2
vn -0.832076 0.288469 0.473746
v -47.5383 -158.185 1514.2
vn 0.015641 0.995178 -0.0968273
v -47.5383 -158.185 1514.2
vn 0.114273 0.697494 -0.70742
v -47.5383 -158.185 1514.2
vn 0.668299 -0.584794 0.459774
v -47.5383 -158.154 1514.24
vn 0.369264 -0.85934 0.353805
v -47.5383 -158.154 1514.24
vn 0.728567 -0.637531 -0.250487
v -47.5383 -158.154 1514.24
vn -0.0782523 -0.09106 -0.992766
v -47.4306 -158.185 1514.39
vn -0.832076 0.288469 0.473746
v -47.4306 -158.185 1514.39
vn -0.522075 -0.607524 0.598625
v -47.4306 -158.185 1514.39
vn 0.369264 -0.85934 0.353805
v -47.5383 -158.092 1514.39
vn -0.0782523 -0.09106 -0.992766
v -47.5383 -158.092 1514.39
vn 0.884002 -0.448833 -0.130729
v -47.4786 -158.035 1514.09
vn 0.668299 -0.584794 0.459774
v -47.4341 -158.035 1514.24
vn 0.728567 -0.637531 -0.250487
v -47.4341 -158.035 1514.24
vn 0.609633 0.768292 -0.195126
v -47.4341 -158.035 1514.24
vn 0.015641 0.995178 -0.0968273
v -47.2958 -158.185 1514.24
vn 0.114273 0.697494 -0.70742
v -47.2958 -158.185 1514.24
vn -0.540202 -0.658477 0.524013
v -47.3884 -158.185 1514.43
vn 0 -1 0
v -47.3884 -158.185 1514.43
vn 0.820988 0.400726 0.40669
v -47.3884 -158.185 1514.43
vn 0.513877 0.290372 0.807226
v -47.3884 -158.185 1514.43
vn 0.528758 0 0.848773
v -47.3884 -158.185 1514.43
vn 0.728567 -0.637531 -0.250487
v -47.3884 -158.035 1514.37
vn -0.0782523 -0.09106 -0.992766
v -47.3884 -158.035 1514.37
vn -0.832076 0.288469 0.473746
v -47.3884 -158.035 1514.37
vn 0.603398 0.769983 -0.207453
v -47.3884 -158.035 1514.37
vn 0.114273 0.697494 -0.70742
v -47.3884 -158.035 1514.37
vn 0.884873 0.157676 0.438336
v -47.3884 -158.035 1514.37
vn 0.513877 0.290372 0.807226
v -47.3884 -158.035 1514.37
vn 0.630312 -0.108149 0.768772
v -47.0884 -158.538 1514.24
vn 0.622009 0 0.78301
v -47.0884 -158.421 1514.24
vn 0.674966 -0.161802 0.719889
v -46.9384 -158.58 1514.09
vn 0.675351 0.715378 -0.179264
v -46.9384 -158.58 1514.09
vn 0.741096 0.0637706 0.668364
v -46.9384 -158.58 1514.09
vn -0.527139 0.283505 -0.801093
v -46.3384 -161.441 1506.14
vn 0.07502 0.827911 -0.55582
v -46.3384 -161.441 1506.14
vn -0.00972596 0.803434 -0.595315
v -46.4883 -161.212 1507.49
vn 0.316342 -0.404017 0.858311
v -45.7383 -159.985 1512.94
vn 0.784093 0.255236 0.565731
v -46.0383 -159.606 1513.19
vn 0.564137 0.795092 -0.22266
v -46.0383 -159.606 1513.19
vn 0.430343 -0.332945 0.839018
v -46.0383 -159.606 1513.19
vn 0.741096 0.0637706 0.668364
v -46.7883 -158.935 1513.96
vn 0.411421 -0.448014 0.793736
v -46.7883 -158.935 1513.96
vn -0.544927 -0.0453876 -0.837254
v -44.8384 -162.535 1504.71
vn 0.0853992 0.828576 -0.553325
v -44.8384 -162.535 1504.71
vn 0.439203 0.886601 -0.145052
v -44.9883 -162.128 1505.99
vn 0.763863 0.13473 0.631158
v -45.4384 -160.119 1512.59
vn 0.670604 0.732312 0.11836
v -43.3384 -162.154 1510.34
vn 0.606027 -0.0974119 0.789457
v -43.2856 -162.235 1510.49
vn 0.781447 0.556367 0.282484
v -43.9384 -161.719 1511.09
vn -0.609304 -0.622333 -0.491377
v -42.1384 -164.485 1503.05
vn 0.67792 0.0254946 0.734694
v -43.1884 -162.845 1510.34
vn 0.184834 -0.60989 0.77063
v -43.1884 -162.845 1510.34
vn -0.343047 0.313423 -0.885486
v -41.5383 -164.185 1502.8
vn 0.639148 0.744851 0.191539
v -41.2397 -163.735 1508.84
vn -0.528893 -0.44014 -0.725637
v -40.6384 -164.935 1502.19
vn 0.210705 -0.557538 0.802966
v -40.7883 -164.335 1508.58
vn -0.105958 -0.777679 0.619668
v -39.2883 -165.385 1507.6
vn 0.327244 -0.29868 0.896494
v -39.2883 -165.385 1507.6
vn -0.278523 0.134931 -0.950904
v -38.3884 -165.835 1501.16
vn 0.0669621 0.69045 -0.720274
v -37.3383 -165.585 1501.34
vn 0.151385 0.882024 -0.446224
v -38.2383 -165.316 1501.49
vn 0.421004 0.901563 0.099695
v -37.4883 -165.775 1506.44
vn 0.266008 0.955753 -0.125599
v -36.4384 -165.932 1500.89
vn 0.116833 0.737432 -0.665239
v -36.4384 -165.932 1500.89
vn 0.446371 0.878854 0.168431
v -35.6159 -166.585 1505.69
vn -0.220226 -0.2533 -0.941987
v -34.4883 -167.785 1500.43
vn 0.258355 0.667718 0.698144
v -33.8884 -167.252 1504.79
vn 0.38192 0.32938 0.863508
v -34.3383 -167.167 1505.24
vn 0.318957 0.179835 0.930551
v -34.0383 -167.785 1505.34
vn 0.302178 0.94514 0.124094
v -33.7383 -166.63 1500.59
vn 0.234065 0.945768 -0.225246
v -33.2883 -166.813 1500.29
vn -0.313361 -0.940365 0.132358
v -32.0883 -168.798 1504.64
vn 0.41386 0.875417 0.249732
v -32.2383 -168.085 1504.98
vn -0.0268078 -0.430718 0.902088
v -32.2383 -168.085 1504.98
vn 0.258355 0.667718 0.698144
v -32.2383 -168.085 1504.98
vn 0.0669979 0.0338251 0.99718
v -32.2383 -168.085 1504.98
vn 0.314754 0.94843 0.0375521
v -30.7383 -167.552 1499.84
vn 0.156706 0.662917 -0.73211
v -30.7383 -167.552 1499.84
vn 0.460445 0.885939 0.055692
v -28.7883 -168.344 1499.54
vn 0.116344 0.899017 -0.422175
v -27.8883 -168.972 1499.99
vn 0.131433 0.721882 -0.67942
v -28.3384 -168.702 1500.44
vn 0.513839 0.857887 1.30697e-006
v -28.3384 -168.702 1500.44
vn -0.561713 -0.782735 -0.267963
v -26.9883 -170.485 1499.04
vn 0.124723 0.652788 -0.747203
v -26.9883 -169.511 1499.84
vn -0.170214 -0.449094 0.877121
v -25.6383 -171.243 1504.64
vn 0.0853109 -0.196309 0.976824
v -25.6383 -171.243 1504.64
vn 0.483682 0.873966 0.0472725
v -26.0884 -169.532 1499.99
vn 0.403342 0.91216 0.0726671
v -26.2383 -170.055 1504.64
vn 0.103742 0.0523762 0.993224
v -26.2383 -170.055 1504.64
vn 0.408024 0.493275 0.768242
v -26.2383 -170.055 1504.64
vn -0.376031 0.143696 -0.915397
v -24.8883 -171.835 1498.04
vn 0.70843 0.692553 0.136003
v -24.3686 -170.785 1499.39
vn 0.527109 0.561764 0.637634
v -24.7383 -170.828 1504.34
vn 0.113649 -0.171696 0.978573
v -24.2883 -171.385 1504.46
vn 0.482015 0.874902 0.0469949
v -25.0383 -170.568 1500.14
vn 0.550015 0.832076 -0.0716436
v -24.8883 -170.335 1499.53
vn 0.569532 0.820191 -0.0540336
v -24.6715 -170.485 1499.54
vn 0.271878 0.677719 -0.683213
v -24.6715 -170.485 1499.54
vn 0.649918 0.690471 -0.317579
v -24.6715 -170.485 1499.54
vn 0.600749 0.743591 -0.293553
v -24.5122 -170.635 1499.54
vn -0.297983 0.644814 -0.703862
v -23.0884 -172.735 1496.65
vn -0.158152 0.677063 -0.71873
v -23.5383 -172.285 1497.17
vn -0.016506 0.869474 -0.493703
v -21.8883 -173.485 1495.29
vn 0.625055 0.7799 0.0326067
v -21.7383 -172.727 1497.14
vn 0.879935 0.343943 0.327748
v -21.8883 -172.885 1503.27
vn -0.833532 -0.508156 -0.216799
v -21.1383 -174.385 1493.89
vn -0.0184105 0.904706 -0.425638
v -20.6883 -174.385 1493.44
vn -0.885606 0.189169 -0.424166
v -19.2411 -177.535 1486.79
vn -0.973109 -0.135558 -0.186231
v -20.202 -175.585 1491.44
vn 0.628773 0.769014 0.115157
v -19.53 -174.535 1501.04
vn 0.790741 0.00463623 0.612134
v -19.4883 -174.985 1500.99
vn -0.155883 0.698851 -0.698074
v -18.8073 -177.985 1485.14
vn -0.719241 0.607003 -0.337995
v -18.8073 -177.985 1485.14
vn -0.529602 0.106706 -0.841508
v -18.8073 -177.985 1485.14
vn -0.675734 0.570285 -0.467075
v -18.8778 -177.985 1485.29
vn -0.532244 0.0927323 -0.841497
v -18.6294 -178.285 1484.99
vn -0.586266 0.698897 -0.409676
v -18.8883 -177.829 1485.44
vn -0.602282 0.663111 -0.444455
v -18.7383 -177.819 1485.29
vn -0.909961 0.256507 -0.325846
v -18.9973 -177.685 1486.19
vn -0.673403 -0.73884 -0.0253648
v -18.9973 -177.685 1486.19
vn -0.0593467 0.87132 -0.487114
v -18.7383 -177.535 1485.9
vn 0.825019 0.247482 0.508032
v -18.7772 -174.985 1499.99
vn 0.594217 -0.541102 0.595075
v -18.5884 -175.285 1499.83
vn -0.534779 0.0787396 -0.841315
v -17.8383 -178.585 1484.46
vn 0.115892 0.0925559 -0.98894
v -17.8383 -178.585 1484.46
vn -0.532244 0.0927323 -0.841497
v -17.8383 -178.435 1484.47
vn 0.321351 0.211876 -0.922953
v -17.5383 -178.585 1484.49
vn -0.271943 -0.96032 0.0619014
v -17.8383 -178.816 1484.69
vn -0.0225566 -0.999746 0
v -17.6883 -178.848 1484.69
vn 0.100692 -0.994424 0.031346
v -17.3883 -178.797 1484.84
vn -0.0779604 -0.985363 -0.151596
v -17.0883 -178.766 1484.99
vn 0.249296 -0.700499 -0.668694
v -17.0883 -178.585 1484.78
vn 0.725208 0.665513 0.17654
v -16.9348 -175.735 1496.09
vn 0.849209 0.203302 0.487352
v -17.5184 -175.735 1498.34
vn -0.366847 -0.881434 -0.297485
v -16.6383 -178.886 1485.14
vn 0.667115 0.345023 -0.66024
v -15.8883 -179.035 1485.4
vn 0.342416 0.919658 -0.1923
v -15.7536 -177.385 1490.84
vn 0.980694 -0.157656 0.115689
v -15.8799 -177.235 1493.99
vn 0.455778 -0.676304 0.578688
v -15.7383 -177.235 1493.84
vn 0.947218 -0.123553 0.295826
v -15.7383 -177.235 1493.84
vn 0.822559 -0.381279 0.421928
v -16.1731 -176.785 1495.34
vn 0.964678 0.219429 0.145763
v -16.1731 -176.785 1495.34
vn 0.770922 0.197108 0.605663
v -15.9201 -176.935 1494.74
vn 0.843632 0.515265 0.150954
v -15.9201 -176.935 1494.74
vn 0.988459 -0.101664 0.112311
v -15.9201 -176.935 1494.74
vn 0.481997 -0.741671 0.466479
v -15.8883 -176.957 1494.44
vn 0.635557 0.76963 0.0611334
v -15.7383 -176.387 1493.99
vn 0.754547 -0.0453036 0.65468
v -16.3383 -176.146 1495.19
vn 0.724738 0.687492 -0.0459376
v -16.1883 -176.635 1494.98
vn 0.776676 -0.035344 0.628908
v -16.1776 -176.185 1495.04
vn 0.975427 -0.0849101 0.203302
v -15.8883 -176.598 1494.59
vn 0.466787 -0.624232 0.626453
v -15.8883 -176.598 1494.59
vn 0.86888 0.441684 0.223526
v -16.6383 -176.052 1496.39
vn 0.920737 0.239808 0.30779
v -16.285 -176.485 1495.64
vn 0.909829 -0.0426858 0.412781
v -16.1883 -176.612 1495.49
vn 0.763179 0.643949 -0.0537339
v -16.1883 -176.612 1495.49
vn 0.733021 -0.465677 0.495807
v -16.6864 -176.185 1496.84
vn 0.624243 -0.319598 -0.712866
v -15.4383 -179.185 1485.86
vn 0.683911 0.22595 -0.693695
v -15.4383 -179.185 1485.86
vn 0.516291 0.129214 -0.84661
v -15.2883 -179.185 1485.99
vn 0.290994 0.896576 -0.333876
v -15.5883 -178.654 1485.89
vn 0.869817 0.124287 0.477463
v -15.1301 -177.085 1493.54
vn -0.0976219 -0.75166 -0.652286
v -14.3883 -179.485 1486.35
vn 0.482755 -0.714174 -0.506857
v -13.9383 -179.785 1486.45
vn 0.310915 -0.197072 -0.929782
v -13.9383 -179.785 1486.45
vn -0.145565 -0.936062 -0.320311
v -13.7883 -179.924 1486.79
vn 0.00880098 -0.94206 0.33533
v -13.7883 -179.924 1486.79
vn 0.474333 -0.274601 -0.836422
v -13.5176 -179.635 1486.64
vn 0.809672 0.209938 -0.548049
v -13.5176 -179.635 1486.64
vn 0.299048 -0.923313 0.240965
v -13.4883 -179.785 1486.98
vn 0.912354 0.117685 -0.392123
v -13.3887 -179.635 1486.94
vn 0.312701 -0.915823 0.251966
v -13.3383 -179.704 1487.09
vn 0.591128 -0.641145 0.489388
v -13.9383 -178.652 1490.39
vn 0.919416 0.330038 0.213892
v -13.9383 -178.135 1490.99
vn 0.824044 -0.550662 -0.133128
v -13.0383 -179.785 1487.54
f 7//7 1//1 2//2
f 463//463 10//10 9//9
f 1//1 474//474 2//2
f 14//14 12//12 464//464
f 478//478 464//464 35//35
f 12//12 35//35 464//464
f 4//4 3//3 5//5
f 467//467 468//468 469//469
f 470//470 38//38 6//6
f 529//529 7//7 40//40
f 6//6 465//465 470//470
f 6//6 44//44 465//465
f 8//8 40//40 7//7
f 2//2 8//8 7//7
f 471//471 466//466 475//475
f 42//42 472//472 476//476
f 42//42 476//476 46//46
f 465//465 31//31 21//21
f 21//21 31//31 33//33
f 31//31 465//465 47//47
f 477//477 479//479 11//11
f 11//11 479//479 526//526
f 13//13 476//476 480//480
f 480//480 527//527 13//13
f 465//465 16//16 483//483
f 18//18 15//15 483//483
f 484//484 487//487 482//482
f 18//18 20//20 15//15
f 13//13 527//527 485//485
f 486//486 528//528 481//481
f 465//465 21//21 16//16
f 18//18 483//483 16//16
f 493//493 22//22 17//17
f 494//494 489//489 502//502
f 21//21 19//19 16//16
f 27//27 24//24 21//21
f 21//21 24//24 19//19
f 13//13 488//488 491//491
f 495//495 492//492 497//497
f 503//503 490//490 496//496
f 496//496 506//506 503//503
f 488//488 498//498 491//491
f 13//13 46//46 476//476
f 46//46 13//13 491//491
f 504//504 46//46 491//491
f 507//507 46//46 504//504
f 25//25 23//23 26//26
f 46//46 507//507 510//510
f 508//508 509//509 505//505
f 29//29 28//28 30//30
f 499//499 32//32 533//533
f 534//534 511//511 500//500
f 517//517 501//501 519//519
f 513//513 514//514 512//512
f 535//535 520//520 34//34
f 523//523 521//521 515//515
f 518//518 522//522 536//536
f 524//524 540//540 537//537
f 541//541 525//525 516//516
f 40//40 37//37 529//529
f 38//38 37//37 36//36
f 6//6 38//38 39//39
f 39//39 44//44 6//6
f 62//62 44//44 39//39
f 39//39 38//38 36//36
f 41//41 530//530 473//473
f 42//42 531//531 472//472
f 530//530 41//41 64//64
f 42//42 65//65 531//531
f 43//43 65//65 42//42
f 42//42 69//69 43//43
f 42//42 46//46 69//69
f 465//465 44//44 47//47
f 48//48 47//47 44//44
f 48//48 49//49 47//47
f 51//51 47//47 49//49
f 537//537 540//540 52//52
f 51//51 55//55 47//47
f 44//44 563//563 48//48
f 543//543 564//564 50//50
f 53//53 544//544 557//557
f 558//558 549//549 545//545
f 557//557 544//544 538//538
f 550//550 56//56 555//555
f 551//551 559//559 568//568
f 556//556 569//569 552//552
f 553//553 570//570 546//546
f 51//51 554//554 55//55
f 540//540 560//560 52//52
f 560//560 540//540 571//571
f 44//44 45//45 563//563
f 45//45 57//57 563//563
f 54//54 565//565 58//58
f 54//54 58//58 46//46
f 547//547 561//561 539//539
f 548//548 572//572 562//562
f 54//54 573//573 565//565
f 574//574 542//542 566//566
f 576//576 567//567 575//575
f 59//59 45//45 73//73
f 532//532 577//577 575//575
f 578//578 46//46 58//58
f 577//577 576//576 575//575
f 72//72 579//579 587//587
f 60//60 37//37 63//63
f 60//60 36//36 37//37
f 39//39 36//36 61//61
f 36//36 60//60 61//61
f 62//62 39//39 61//61
f 40//40 63//63 37//37
f 63//63 40//40 580//580
f 64//64 41//41 76//76
f 74//74 63//63 580//580
f 77//77 64//64 76//76
f 531//531 65//65 76//76
f 582//582 66//66 78//78
f 68//68 79//79 591//591
f 67//67 44//44 62//62
f 66//66 582//582 43//43
f 66//66 43//43 68//68
f 78//78 66//66 68//68
f 69//69 68//68 43//43
f 68//68 69//69 80//80
f 71//71 44//44 75//75
f 83//83 82//82 69//69
f 592//592 584//584 70//70
f 83//83 69//69 585//585
f 69//69 46//46 578//578
f 69//69 578//578 585//585
f 583//583 586//586 71//71
f 71//71 45//45 44//44
f 45//45 71//71 73//73
f 71//71 586//586 588//588
f 63//63 589//589 60//60
f 105//105 590//590 77//77
f 77//77 76//76 93//93
f 94//94 62//62 61//61
f 75//75 67//67 95//95
f 84//84 95//95 67//67
f 590//590 581//581 77//77
f 76//76 65//65 591//591
f 93//93 76//76 591//591
f 68//68 80//80 79//79
f 111//111 79//79 80//80
f 69//69 85//85 81//81
f 67//67 75//75 44//44
f 85//85 69//69 82//82
f 98//98 85//85 82//82
f 71//71 75//75 99//99
f 98//98 82//82 83//83
f 86//86 98//98 83//83
f 89//89 592//592 597//597
f 595//595 86//86 83//83
f 71//71 99//99 583//583
f 597//597 592//592 70//70
f 589//589 92//92 60//60
f 61//61 596//596 91//91
f 596//596 61//61 60//60
f 94//94 67//67 62//62
f 84//84 67//67 94//94
f 94//94 95//95 84//84
f 591//591 79//79 93//93
f 79//79 96//96 93//93
f 111//111 96//96 79//79
f 75//75 95//95 108//108
f 111//111 80//80 81//81
f 81//81 80//80 69//69
f 85//85 98//98 81//81
f 98//98 86//86 87//87
f 86//86 595//595 88//88
f 597//597 594//594 89//89
f 88//88 593//593 86//86
f 91//91 90//90 61//61
f 91//91 101//101 90//90
f 101//101 102//102 90//90
f 589//589 599//599 113//113
f 92//92 589//589 113//113
f 596//596 100//100 91//91
f 93//93 106//106 121//121
f 96//96 106//106 93//93
f 114//114 96//96 118//118
f 95//95 94//94 112//112
f 105//105 77//77 93//93
f 111//111 81//81 107//107
f 96//96 111//111 118//118
f 81//81 98//98 97//97
f 81//81 97//97 107//107
f 110//110 98//98 87//87
f 108//108 99//99 75//75
f 594//594 597//597 109//109
f 600//600 593//593 88//88
f 100//100 101//101 91//91
f 596//596 601//601 100//100
f 102//102 61//61 90//90
f 101//101 103//103 102//102
f 128//128 103//103 101//101
f 61//61 102//102 103//103
f 61//61 103//103 128//128
f 128//128 94//94 61//61
f 95//95 112//112 104//104
f 95//95 104//104 108//108
f 96//96 117//117 106//106
f 96//96 114//114 117//117
f 123//123 97//97 98//98
f 110//110 123//123 98//98
f 600//600 110//110 593//593
f 119//119 109//109 597//597
f 108//108 602//602 598//598
f 112//112 94//94 128//128
f 106//106 117//117 114//114
f 115//115 108//108 104//104
f 108//108 116//116 602//602
f 108//108 115//115 116//116
f 115//115 125//125 116//116
f 115//115 104//104 603//603
f 124//124 109//109 116//116
f 124//124 123//123 600//600
f 133//133 93//93 121//121
f 93//93 607//607 105//105
f 111//111 107//107 118//118
f 107//107 140//140 118//118
f 107//107 97//97 123//123
f 116//116 109//109 119//119
f 600//600 123//123 110//110
f 126//126 136//136 100//100
f 126//126 100//100 131//131
f 101//101 100//100 136//136
f 101//101 136//136 128//128
f 104//104 112//112 129//129
f 129//129 603//603 104//104
f 607//607 120//120 105//105
f 605//605 113//113 120//120
f 131//131 100//100 601//601
f 113//113 599//599 120//120
f 133//133 121//121 132//132
f 122//122 121//121 106//106
f 140//140 121//121 122//122
f 114//114 118//118 140//140
f 106//106 114//114 122//122
f 122//122 114//114 140//140
f 140//140 107//107 123//123
f 123//123 141//141 140//140
f 134//134 124//124 116//116
f 134//134 123//123 124//124
f 125//125 134//134 116//116
f 127//127 605//605 120//120
f 127//127 126//126 131//131
f 137//137 126//126 127//127
f 137//137 136//136 126//126
f 112//112 151//151 129//129
f 155//155 140//140 141//141
f 603//603 129//129 130//130
f 143//143 604//604 130//130
f 606//606 120//120 607//607
f 127//127 120//120 606//606
f 121//121 146//146 132//132
f 143//143 134//134 125//125
f 143//143 135//135 134//134
f 141//141 123//123 134//134
f 134//134 608//608 141//141
f 143//143 147//147 135//135
f 608//608 611//611 141//141
f 128//128 150//150 112//112
f 150//150 149//149 112//112
f 149//149 151//151 112//112
f 129//129 145//145 142//142
f 142//142 145//145 144//144
f 155//155 141//141 157//157
f 148//148 144//144 145//145
f 148//148 147//147 144//144
f 611//611 157//157 141//141
f 130//130 129//129 142//142
f 144//144 130//130 142//142
f 144//144 143//143 130//130
f 144//144 147//147 143//143
f 138//138 160//160 127//127
f 138//138 127//127 606//606
f 609//609 132//132 139//139
f 146//146 139//139 132//132
f 154//154 136//136 137//137
f 153//153 612//612 137//137
f 127//127 153//153 137//137
f 128//128 136//136 164//164
f 152//152 145//145 129//129
f 159//159 145//145 152//152
f 161//161 160//160 610//610
f 609//609 139//139 616//616
f 146//146 616//616 139//139
f 151//151 152//152 129//129
f 173//173 612//612 153//153
f 162//162 173//173 153//153
f 150//150 128//128 165//165
f 158//158 156//156 157//157
f 145//145 615//615 148//148
f 614//614 148//148 615//615
f 614//614 147//147 148//148
f 157//157 611//611 158//158
f 167//167 614//614 615//615
f 127//127 160//160 153//153
f 153//153 160//160 162//162
f 163//163 160//160 161//161
f 162//162 160//160 163//163
f 146//146 121//121 140//140
f 155//155 188//188 140//140
f 164//164 136//136 154//154
f 150//150 172//172 149//149
f 151//151 149//149 172//172
f 159//159 152//152 166//166
f 172//172 152//152 151//151
f 152//152 172//172 618//618
f 180//180 198//198 140//140
f 187//187 188//188 155//155
f 187//187 155//155 156//156
f 158//158 619//619 156//156
f 155//155 157//157 156//156
f 166//166 620//620 159//159
f 162//162 163//163 174//174
f 617//617 616//616 623//623
f 169//169 612//612 173//173
f 164//164 165//165 128//128
f 175//175 616//616 146//146
f 180//180 140//140 188//188
f 171//171 176//176 165//165
f 165//165 176//176 150//150
f 168//168 150//150 176//176
f 176//176 177//177 168//168
f 177//177 172//172 168//168
f 172//172 182//182 618//618
f 171//171 165//165 164//164
f 164//164 154//154 170//170
f 171//171 164//164 170//170
f 179//179 185//185 175//175
f 150//150 168//168 172//172
f 174//174 173//173 162//162
f 181//181 623//623 175//175
f 178//178 173//173 174//174
f 179//179 175//175 146//146
f 179//179 146//146 140//140
f 175//175 623//623 616//616
f 176//176 171//171 195//195
f 177//177 176//176 195//195
f 199//199 177//177 195//195
f 199//199 172//172 177//177
f 200//200 618//618 182//182
f 166//166 631//631 620//620
f 154//154 169//169 170//170
f 170//170 169//169 189//189
f 189//189 169//169 173//173
f 624//624 183//183 178//178
f 178//178 190//190 173//173
f 626//626 179//179 186//186
f 179//179 140//140 186//186
f 625//625 623//623 181//181
f 181//181 185//185 625//625
f 185//185 181//181 175//175
f 189//189 173//173 190//190
f 192//192 171//171 170//170
f 170//170 629//629 192//192
f 195//195 171//171 192//192
f 199//199 182//182 172//172
f 183//183 184//184 178//178
f 625//625 185//185 197//197
f 184//184 190//190 178//178
f 193//193 197//197 185//185
f 198//198 204//204 140//140
f 140//140 204//204 186//186
f 196//196 188//188 187//187
f 188//188 198//198 180//180
f 210//210 613//613 621//621
f 634//634 187//187 156//156
f 213//213 629//629 214//214
f 200//200 182//182 199//199
f 201//201 190//190 184//184
f 183//183 197//197 201//201
f 190//190 637//637 189//189
f 213//213 192//192 629//629
f 191//191 195//195 192//192
f 192//192 213//213 191//191
f 627//627 194//194 630//630
f 198//198 205//205 203//203
f 207//207 205//205 188//188
f 208//208 196//196 187//187
f 187//187 209//209 208//208
f 223//223 209//209 187//187
f 211//211 223//223 187//187
f 201//201 184//184 183//183
f 628//628 193//193 185//185
f 204//204 198//198 203//203
f 198//198 188//188 205//205
f 207//207 188//188 196//196
f 191//191 234//234 195//195
f 199//199 195//195 212//212
f 213//213 241//241 191//191
f 637//637 190//190 215//215
f 635//635 622//622 632//632
f 216//216 201//201 197//197
f 215//215 190//190 201//201
f 215//215 201//201 216//216
f 194//194 627//627 202//202
f 633//633 186//186 204//204
f 202//202 229//229 194//194
f 242//242 216//216 197//197
f 193//193 242//242 197//197
f 226//226 642//642 633//633
f 204//204 226//226 633//633
f 204//204 206//206 226//226
f 193//193 219//219 242//242
f 630//630 194//194 219//219
f 194//194 230//230 219//219
f 229//229 230//230 194//194
f 228//228 226//226 227//227
f 227//227 226//226 206//206
f 203//203 205//205 641//641
f 227//227 206//206 203//203
f 206//206 204//204 203//203
f 641//641 205//205 220//220
f 207//207 220//220 205//205
f 208//208 207//207 196//196
f 634//634 211//211 187//187
f 238//238 637//637 215//215
f 238//238 213//213 214//214
f 191//191 241//241 234//234
f 212//212 195//195 249//249
f 249//249 199//199 212//212
f 240//240 215//215 216//216
f 242//242 243//243 216//216
f 217//217 219//219 218//218
f 244//244 242//242 219//219
f 219//219 217//217 244//244
f 244//244 217//217 245//245
f 217//217 218//218 245//245
f 641//641 220//220 222//222
f 230//230 232//232 219//219
f 221//221 218//218 232//232
f 232//232 218//218 219//219
f 221//221 245//245 218//218
f 233//233 222//222 638//638
f 246//246 222//222 220//220
f 638//638 222//222 246//246
f 207//207 247//247 220//220
f 247//247 208//208 209//209
f 211//211 634//634 224//224
f 224//224 248//248 211//211
f 639//639 636//636 225//225
f 640//640 635//635 632//632
f 639//639 225//225 248//248
f 231//231 226//226 228//228
f 222//222 228//228 227//227
f 222//222 233//233 228//228
f 233//233 231//231 228//228
f 226//226 643//643 642//642
f 644//644 230//230 229//229
f 644//644 232//232 230//230
f 646//646 221//221 232//232
f 645//645 646//646 232//232
f 247//247 207//207 208//208
f 238//238 250//250 252//252
f 237//237 252//252 241//241
f 252//252 237//237 238//238
f 251//251 241//241 252//252
f 249//249 195//195 234//234
f 235//235 200//200 199//199
f 236//236 250//250 238//238
f 649//649 647//647 255//255
f 237//237 241//241 213//213
f 238//238 237//237 213//213
f 238//238 215//215 239//239
f 240//240 648//648 215//215
f 236//236 238//238 239//239
f 240//240 255//255 648//648
f 240//240 243//243 270//270
f 270//270 243//243 242//242
f 647//647 648//648 255//255
f 260//260 247//247 209//209
f 260//260 211//211 248//248
f 223//223 211//211 260//260
f 209//209 223//223 260//260
f 261//261 640//640 632//632
f 235//235 261//261 632//632
f 261//261 262//262 225//225
f 243//243 240//240 216//216
f 246//246 245//245 638//638
f 256//256 242//242 244//244
f 245//245 256//256 244//244
f 246//246 220//220 247//247
f 262//262 248//248 225//225
f 250//250 265//265 252//252
f 252//252 652//652 251//251
f 270//270 649//649 255//255
f 234//234 241//241 268//268
f 249//249 234//234 268//268
f 249//249 235//235 199//199
f 261//261 235//235 253//253
f 253//253 235//235 249//249
f 270//270 255//255 240//240
f 270//270 242//242 257//257
f 258//258 242//242 256//256
f 259//259 258//258 256//256
f 257//257 242//242 258//258
f 272//272 259//259 247//247
f 259//259 272//272 650//650
f 259//259 245//245 247//247
f 245//245 246//246 247//247
f 245//245 259//259 256//256
f 248//248 273//273 260//260
f 263//263 273//273 248//248
f 262//262 263//263 248//248
f 651//651 254//254 263//263
f 254//254 262//262 261//261
f 265//265 264//264 281//281
f 264//264 265//265 283//283
f 652//652 281//281 267//267
f 251//251 652//652 267//267
f 265//265 266//266 283//283
f 284//284 283//283 653//653
f 268//268 251//251 267//267
f 251//251 268//268 241//241
f 268//268 285//285 249//249
f 322//322 285//285 268//268
f 249//249 285//285 282//282
f 285//285 322//322 282//282
f 269//269 253//253 249//249
f 269//269 249//249 282//282
f 253//253 269//269 291//291
f 250//250 266//266 265//265
f 653//653 649//649 284//284
f 284//284 649//649 270//270
f 284//284 270//270 271//271
f 271//271 270//270 257//257
f 272//272 346//346 271//271
f 258//258 271//271 257//257
f 272//272 271//271 650//650
f 272//272 260//260 292//292
f 247//247 260//260 272//272
f 263//263 294//294 273//273
f 253//253 291//291 261//261
f 291//291 254//254 261//261
f 263//263 254//254 274//274
f 276//276 275//275 277//277
f 275//275 279//279 277//277
f 654//654 277//277 314//314
f 278//278 314//314 277//277
f 277//277 279//279 278//278
f 283//283 278//278 280//280
f 278//278 279//279 281//281
f 283//283 319//319 278//278
f 319//319 283//283 284//284
f 280//280 264//264 283//283
f 278//278 281//281 655//655
f 281//281 279//279 268//268
f 268//268 267//267 281//281
f 655//655 281//281 264//264
f 271//271 323//323 284//284
f 293//293 260//260 286//286
f 260//260 273//273 286//286
f 286//286 273//273 294//294
f 286//286 294//294 287//287
f 404//404 286//286 356//356
f 286//286 287//287 356//356
f 288//288 287//287 294//294
f 294//294 325//325 288//288
f 290//290 269//269 282//282
f 291//291 289//289 274//274
f 657//657 289//289 291//291
f 657//657 326//326 289//289
f 289//289 326//326 668//668
f 656//656 325//325 294//294
f 269//269 290//290 291//291
f 291//291 274//274 254//254
f 272//272 292//292 293//293
f 293//293 292//292 260//260
f 346//346 272//272 293//293
f 294//294 263//263 656//656
f 274//274 656//656 263//263
f 297//297 298//298 310//310
f 301//301 300//300 295//295
f 295//295 297//297 296//296
f 295//295 298//298 297//297
f 295//295 306//306 298//298
f 311//311 328//328 658//658
f 664//664 659//659 661//661
f 299//299 301//301 295//295
f 296//296 299//299 295//295
f 306//306 295//295 300//300
f 299//299 330//330 301//301
f 662//662 660//660 672//672
f 328//328 311//311 303//303
f 332//332 301//301 674//674
f 302//302 301//301 332//332
f 302//302 300//300 301//301
f 302//302 332//332 335//335
f 304//304 305//305 318//318
f 304//304 306//306 307//307
f 304//304 307//307 305//305
f 307//307 309//309 305//305
f 305//305 309//309 318//318
f 307//307 308//308 309//309
f 302//302 306//306 300//300
f 306//306 302//302 308//308
f 307//307 306//306 308//308
f 298//298 315//315 310//310
f 661//661 663//663 664//664
f 664//664 663//663 317//317
f 303//303 311//311 667//667
f 275//275 312//312 304//304
f 304//304 318//318 275//275
f 275//275 318//318 279//279
f 314//314 665//665 313//313
f 665//665 312//312 313//313
f 312//312 276//276 313//313
f 276//276 312//312 275//275
f 313//313 654//654 314//314
f 314//314 278//278 319//319
f 298//298 306//306 666//666
f 304//304 312//312 666//666
f 304//304 666//666 306//306
f 663//663 665//665 317//317
f 665//665 314//314 317//317
f 316//316 667//667 314//314
f 316//316 314//314 319//319
f 303//303 667//667 316//316
f 309//309 345//345 318//318
f 316//316 319//319 320//320
f 319//319 284//284 320//320
f 308//308 345//345 309//309
f 303//303 316//316 320//320
f 345//345 279//279 318//318
f 268//268 279//279 345//345
f 345//345 383//383 268//268
f 320//320 284//284 323//323
f 346//346 320//320 323//323
f 268//268 383//383 384//384
f 384//384 321//321 268//268
f 322//322 268//268 321//321
f 322//322 321//321 393//393
f 358//358 669//669 357//357
f 357//357 290//290 282//282
f 357//357 282//282 322//322
f 357//357 669//669 290//290
f 346//346 323//323 271//271
f 404//404 361//361 286//286
f 324//324 362//362 288//288
f 356//356 287//287 362//362
f 288//288 362//362 287//287
f 288//288 325//325 324//324
f 324//324 668//668 326//326
f 299//299 327//327 330//330
f 670//670 662//662 672//672
f 331//331 327//327 329//329
f 331//331 330//330 327//327
f 673//673 671//671 328//328
f 331//331 329//329 333//333
f 340//340 673//673 328//328
f 673//673 340//340 338//338
f 675//675 332//332 674//674
f 337//337 345//345 335//335
f 675//675 676//676 332//332
f 676//676 334//334 332//332
f 332//332 334//334 335//335
f 676//676 337//337 334//334
f 335//335 334//334 337//337
f 333//333 678//678 336//336
f 676//676 677//677 337//337
f 678//678 333//333 329//329
f 336//336 678//678 374//374
f 677//677 339//339 337//337
f 341//341 340//340 328//328
f 345//345 302//302 335//335
f 302//302 345//345 308//308
f 345//345 337//337 381//381
f 339//339 381//381 337//337
f 342//342 383//383 345//345
f 381//381 342//342 345//345
f 370//370 383//383 342//342
f 341//341 328//328 303//303
f 343//343 341//341 303//303
f 343//343 378//378 341//341
f 343//343 303//303 320//320
f 344//344 378//378 343//343
f 344//344 343//343 320//320
f 346//346 386//386 344//344
f 386//386 346//346 347//347
f 384//384 393//393 321//321
f 344//344 320//320 346//346
f 349//349 347//347 346//346
f 347//347 349//349 348//348
f 293//293 349//349 346//346
f 349//349 351//351 350//350
f 350//350 351//351 387//387
f 349//349 350//350 387//387
f 360//360 683//683 351//351
f 293//293 351//351 349//349
f 293//293 360//360 351//351
f 360//360 361//361 352//352
f 352//352 395//395 360//360
f 361//361 353//353 352//352
f 353//353 404//404 405//405
f 353//353 395//395 352//352
f 353//353 361//361 404//404
f 322//322 393//393 354//354
f 357//357 322//322 354//354
f 356//356 362//362 359//359
f 393//393 355//355 354//354
f 355//355 357//357 354//354
f 411//411 359//359 680//680
f 355//355 703//703 358//358
f 390//390 355//355 393//393
f 404//404 356//356 407//407
f 407//407 356//356 359//359
f 408//408 355//355 687//687
f 408//408 703//703 355//355
f 359//359 411//411 699//699
f 326//326 680//680 324//324
f 359//359 324//324 680//680
f 355//355 358//358 357//357
f 360//360 293//293 361//361
f 286//286 361//361 293//293
f 362//362 324//324 359//359
f 375//375 377//377 363//363
f 375//375 363//363 376//376
f 363//363 364//364 376//376
f 363//363 365//365 364//364
f 370//370 364//364 365//365
f 366//366 363//363 377//377
f 366//366 377//377 379//379
f 363//363 366//366 367//367
f 368//368 365//365 367//367
f 365//365 363//363 367//367
f 368//368 370//370 365//365
f 367//367 369//369 368//368
f 367//367 366//366 369//369
f 366//366 379//379 380//380
f 369//369 366//366 380//380
f 369//369 412//412 368//368
f 369//369 380//380 704//704
f 413//413 368//368 412//412
f 368//368 371//371 370//370
f 372//372 373//373 370//370
f 370//370 373//373 383//383
f 371//371 368//368 413//413
f 414//414 371//371 413//413
f 414//414 370//370 371//371
f 370//370 414//414 372//372
f 677//677 681//681 339//339
f 681//681 375//375 339//339
f 375//375 376//376 339//339
f 379//379 374//374 678//678
f 374//374 379//379 377//377
f 375//375 681//681 377//377
f 340//340 379//379 338//338
f 378//378 340//340 341//341
f 380//380 379//379 340//340
f 378//378 682//682 340//340
f 682//682 378//378 420//420
f 376//376 364//364 381//381
f 364//364 370//370 381//381
f 381//381 370//370 342//342
f 381//381 339//339 376//376
f 707//707 378//378 386//386
f 382//382 707//707 386//386
f 421//421 707//707 382//382
f 383//383 373//373 416//416
f 416//416 419//419 383//383
f 384//384 383//383 419//419
f 385//385 378//378 344//344
f 385//385 344//344 386//386
f 378//378 385//385 386//386
f 347//347 382//382 386//386
f 348//348 382//382 347//347
f 349//349 422//422 348//348
f 447//447 389//389 384//384
f 384//384 389//389 388//388
f 719//719 427//427 685//685
f 388//388 393//393 384//384
f 388//388 391//391 393//393
f 391//391 390//390 393//393
f 403//403 399//399 689//689
f 695//695 400//400 690//690
f 690//690 400//400 688//688
f 410//410 688//688 400//400
f 691//691 684//684 392//392
f 392//392 697//697 691//691
f 692//692 388//388 389//389
f 697//697 392//392 686//686
f 701//701 408//408 687//687
f 425//425 360//360 395//395
f 395//395 353//353 397//397
f 398//398 397//397 679//679
f 694//694 353//353 396//396
f 400//400 409//409 702//702
f 409//409 400//400 695//695
f 401//401 395//395 397//397
f 402//402 397//397 398//398
f 696//696 694//694 396//396
f 396//396 399//399 403//403
f 395//395 394//394 425//425
f 395//395 401//401 394//394
f 397//397 402//402 401//401
f 403//403 696//696 396//396
f 401//401 402//402 693//693
f 405//405 404//404 406//406
f 404//404 407//407 406//406
f 695//695 405//405 406//406
f 700//700 411//411 408//408
f 353//353 405//405 399//399
f 353//353 399//399 396//396
f 407//407 409//409 406//406
f 411//411 700//700 699//699
f 406//406 409//409 695//695
f 701//701 700//700 408//408
f 420//420 705//705 682//682
f 412//412 414//414 413//413
f 414//414 416//416 372//372
f 373//373 372//372 416//416
f 412//412 417//417 414//414
f 415//415 414//414 418//418
f 416//416 414//414 415//415
f 705//705 420//420 706//706
f 417//417 418//418 414//414
f 428//428 706//706 420//420
f 709//709 418//418 417//417
f 415//415 419//419 416//416
f 418//418 709//709 419//419
f 415//415 418//418 419//419
f 707//707 421//421 422//422
f 421//421 382//382 422//422
f 422//422 382//382 348//348
f 420//420 422//422 423//423
f 423//423 422//422 424//424
f 428//428 420//420 423//423
f 424//424 440//440 423//423
f 683//683 424//424 422//422
f 349//349 683//683 422//422
f 683//683 425//425 424//424
f 425//425 683//683 360//360
f 425//425 394//394 442//442
f 693//693 426//426 442//442
f 427//427 719//719 448//448
f 708//708 720//720 426//426
f 427//427 698//698 685//685
f 708//708 696//696 403//403
f 708//708 426//426 696//696
f 426//426 693//693 402//402
f 429//429 419//419 709//709
f 432//432 430//430 710//710
f 429//429 712//712 419//419
f 419//419 713//713 384//384
f 714//714 711//711 431//431
f 431//431 711//711 428//428
f 423//423 431//431 428//428
f 432//432 433//433 430//430
f 431//431 435//435 715//715
f 435//435 431//431 423//423
f 423//423 440//440 435//435
f 434//434 433//433 432//432
f 433//433 434//434 437//437
f 716//716 718//718 436//436
f 435//435 717//717 715//715
f 434//434 454//454 437//437
f 434//434 435//435 451//451
f 451//451 454//454 434//434
f 384//384 713//713 436//436
f 713//713 716//716 436//436
f 384//384 436//436 450//450
f 436//436 437//437 449//449
f 449//449 450//450 436//436
f 450//450 438//438 384//384
f 456//456 439//439 438//438
f 440//440 424//424 443//443
f 440//440 443//443 441//441
f 443//443 445//445 441//441
f 442//442 424//424 425//425
f 442//442 443//443 424//424
f 443//443 442//442 444//444
f 443//443 444//444 445//445
f 446//446 444//444 439//439
f 444//444 446//446 445//445
f 438//438 447//447 384//384
f 448//448 719//719 439//439
f 439//439 444//444 720//720
f 438//438 439//439 719//719
f 444//444 442//442 426//426
f 720//720 444//444 426//426
f 435//435 452//452 451//451
f 440//440 452//452 435//435
f 437//437 455//455 449//449
f 449//449 453//453 450//450
f 438//438 450//450 453//453
f 455//455 437//437 454//454
f 456//456 438//438 453//453
f 454//454 451//451 459//459
f 451//451 452//452 459//459
f 452//452 440//440 460//460
f 440//440 441//441 460//460
f 462//462 445//445 446//446
f 453//453 449//449 455//455
f 458//458 453//453 721//721
f 721//721 454//454 457//457
f 721//721 457//457 458//458
f 456//456 453//453 458//458
f 456//456 458//458 462//462
f 454//454 459//459 457//457
f 457//457 459//459 458//458
f 458//458 461//461 462//462
f 452//452 460//460 459//459
f 459//459 460//460 461//461
f 459//459 461//461 458//458
f 441//441 461//461 460//460
f 445//445 461//461 441//441
f 461//461 445//445 462//462
f 439//439 456//456 462//462
f 462//462 446//446 439//439
