# Wavafront OBJ file of BodyParts3D
# BodyParts3D, Copyright(C) 2010-2011 The Database Center for Life Science licensed under CC Attribution-Share Alike 2.1 Japan.
vn -0.976186 0.185197 -0.11297
v -11.9118 -179.804 1463.91
vn -0.895657 0.438876 0.0720206
v -11.7872 -179.438 1464.1
vn -0.981208 -0.0501842 -0.186313
v -11.9659 -180.129 1464.09
vn -0.923785 -0.306589 -0.2294
v -11.9025 -180.45 1464.04
vn -0.988553 0.149771 0.0182033
v -12.0315 -180.186 1464.87
vn -0.920494 0.347886 0.177948
v -11.9446 -179.959 1465.11
vn -0.784163 0.564034 0.258756
v -11.811 -179.729 1465.11
vn -0.982133 -0.181454 -0.0498932
v -12.018 -180.508 1464.82
vn -0.88308 -0.455388 -0.113101
v -11.9035 -180.782 1464.68
vn -0.789836 -0.578805 -0.202838
v -11.7432 -180.914 1464.27
vn -0.970875 -0.00772336 0.239462
v -12.0013 -180.376 1465.24
vn -0.85947 0.0971536 0.501869
v -11.9095 -180.379 1465.47
vn -0.876252 -0.379343 0.297123
v -11.9221 -180.653 1465.33
vn -0.839968 0.352617 0.41245
v -11.8738 -179.962 1465.34
vn -0.70147 0.0440339 0.711338
v -11.8416 -180.426 1465.56
vn -0.826751 -0.179094 0.533299
v -11.878 -180.518 1465.52
vn -0.708832 0.244253 0.661739
v -11.791 -180.186 1465.57
vn -0.938761 -0.333991 0.0847187
v -11.972 -180.65 1465.1
vn -0.843279 -0.53562 0.0446255
v -11.8414 -180.924 1464.96
vn -0.767452 -0.604836 0.212582
v -11.7101 -181.066 1465.23
vn -0.728072 -0.681903 -0.0701365
v -11.6109 -181.199 1464.82
vn -0.958456 0.259571 -0.118262
v -11.3914 -178.49 1462.28
vn -0.955619 -0.00533067 -0.294557
v -11.3017 -179.354 1461.49
vn -0.417392 0.742049 0.524545
v -10.8271 -177.836 1462.98
vn -0.911925 -0.273698 -0.305749
v -11.35 -180.052 1461.94
vn -0.646347 0.704844 0.292286
v -11.5662 -179.18 1464.24
vn -0.218943 0.837231 0.501106
v -10.8437 -178.704 1464.15
vn -0.795315 -0.531994 -0.290612
v -11.5408 -180.857 1463.49
vn -0.57157 0.723478 0.387152
v -11.5813 -179.561 1465.32
vn -0.434847 0.825718 0.359303
v -11.3708 -179.283 1465
vn -0.170072 0.799981 0.575417
v -11.2731 -179.454 1465.38
vn 0.0263723 0.82855 0.559294
v -10.9593 -179.216 1465.04
vn 0.221054 0.711789 0.666703
v -10.9639 -179.478 1465.37
vn -0.604133 -0.754569 -0.25622
v -11.2507 -181.272 1463.74
vn -0.632507 -0.754622 -0.17459
v -11.2578 -181.414 1464.25
vn -0.506963 0.551117 0.662766
v -11.5839 -179.698 1465.5
vn -0.153249 0.395448 0.905614
v -11.2781 -179.929 1465.73
vn 0.00305128 0.61472 0.78874
v -11.1723 -179.599 1465.54
vn 0.0442721 0.362073 0.931098
v -10.9698 -180.03 1465.78
vn -0.438873 0.209165 0.873865
v -11.5872 -180.163 1465.73
vn -0.505027 -0.142626 0.851238
v -11.5879 -180.651 1465.78
vn -0.268903 0.0369312 0.962459
v -11.4855 -180.556 1465.82
vn -0.123529 0.158236 0.979644
v -11.2796 -180.33 1465.83
vn -0.166022 -0.072189 0.983476
v -11.28 -180.688 1465.85
vn -0.661945 -0.467617 0.585802
v -11.5862 -180.931 1465.65
vn -0.625683 -0.683618 0.37575
v -11.544 -181.161 1465.42
vn -0.645852 -0.753906 0.120421
v -11.4548 -181.341 1465.1
vn -0.581639 -0.812486 -0.0395254
v -11.1633 -181.582 1464.86
vn -0.56119 -0.797666 0.220897
v -10.8596 -181.758 1465.24
vn -0.330284 -0.322069 0.887234
v -11.2791 -181.002 1465.79
vn -0.495525 -0.564301 0.660318
v -11.1746 -181.291 1465.67
vn -0.373503 -0.482769 0.792105
v -10.9698 -181.334 1465.76
vn -0.507722 -0.683269 0.524749
v -10.968 -181.498 1465.63
vn -0.815115 0.552399 0.174476
v -10.4493 -176.256 1460.67
vn -0.941219 0.312905 -0.127265
v -10.6392 -176.713 1460.43
vn -0.962013 0.0792023 -0.261263
v -10.4896 -176.93 1459.51
vn -0.90412 -0.144116 -0.402241
v -10.0904 -179.264 1458.42
vn -0.806934 -0.360018 -0.468236
v -10.2162 -179.917 1459.01
vn -0.890665 -0.248113 -0.380992
v -10.5957 -179.975 1459.78
vn -0.785736 -0.488145 -0.379912
v -10.4023 -180.249 1459.64
vn -0.638582 -0.687759 -0.345255
v -9.95452 -180.649 1459.44
vn -0.571427 0.615199 0.543141
v -10.4093 -177.287 1462.57
vn -0.270741 0.634526 0.723931
v -10.1078 -177.603 1463.11
vn -0.172409 0.74884 0.639933
v -10.6297 -178.236 1463.58
vn 0.105652 0.724656 0.680963
v -10.1216 -178.645 1464.07
vn -0.511529 -0.81903 -0.25986
v -10.422 -181.726 1463.4
vn -0.518804 -0.832345 -0.195049
v -10.5353 -181.871 1464.14
vn 0.195904 0.549497 0.812203
v -10.6596 -179.967 1465.7
vn -0.00846189 0.114975 0.993332
v -10.5596 -180.594 1465.91
vn -0.505797 -0.854994 0.114695
v -10.4539 -182.032 1465.1
vn -0.508997 -0.857052 -0.0798955
v -10.4408 -182.041 1464.75
vn -0.4526 -0.890625 0.0440498
v -10.0321 -182.279 1464.98
vn -0.108904 -0.109078 0.98805
v -10.6627 -181.056 1465.9
vn -0.191966 -0.301495 0.933943
v -10.662 -181.375 1465.84
vn -0.369902 -0.588368 0.719024
v -10.66 -181.647 1465.7
vn -0.154542 -0.398718 0.903958
v -10.2494 -181.699 1465.8
vn -0.4778 -0.786611 0.391089
v -10.5539 -181.876 1465.47
vn -0.341035 -0.683967 0.644891
v -10.3505 -181.859 1465.66
vn -0.403275 -0.837795 0.36806
v -10.038 -182.186 1465.4
vn -0.966371 0.132796 -0.220209
v -9.50194 -175.682 1455.99
vn -0.929545 -0.0818128 -0.359517
v -9.3372 -175.997 1455.48
vn -0.775016 -0.278814 -0.567109
v -9.04663 -177.057 1455.52
vn -0.88494 0.465683 -0.004449
v -9.0766 -173.687 1458.19
vn -0.915726 -0.118377 -0.38397
v -9.74564 -177.446 1456.93
vn -0.851593 -0.211826 -0.479498
v -9.44798 -177.9 1456.46
vn -0.740971 -0.403307 -0.536941
v -9.28878 -178.686 1456.64
vn -0.732629 -0.317748 -0.601906
v -9.188 -178.238 1456.22
vn -0.720858 0.607859 0.332972
v -9.50171 -175.064 1461.07
vn -0.370622 -0.730575 -0.573498
v -9.32331 -180.465 1458.5
vn -0.628522 -0.589342 -0.507579
v -9.84373 -180.376 1458.89
vn -0.516154 0.622759 0.58801
v -9.16795 -175.749 1462.22
vn -0.473427 -0.761795 -0.442194
v -9.6442 -180.843 1459.35
vn -0.471501 -0.824405 -0.313119
v -9.3421 -181.249 1459.84
vn -0.14089 0.397365 0.90678
v -9.18554 -177.689 1463.45
vn 0.0188582 0.552948 0.833003
v -9.8072 -178.26 1463.7
vn 0.23106 0.54523 0.805814
v -9.60476 -178.681 1463.95
vn 0.325092 0.678124 0.659138
v -9.71535 -179.214 1464.48
vn -0.438313 -0.868737 -0.230603
v -9.7085 -182.287 1463.93
vn 0.267142 0.585606 0.765311
v -9.73201 -180.303 1465.66
vn 0.153283 0.322526 0.934067
v -9.63154 -180.638 1465.83
vn -0.432411 -0.889359 -0.148532
v -9.71432 -182.379 1464.35
vn -0.350288 -0.936208 -0.0285222
v -9.30882 -182.612 1464.81
vn 0.0213679 -0.0475564 0.99864
v -9.94201 -181.066 1465.93
vn 0.0167427 -0.21329 0.976845
v -9.73472 -181.707 1465.83
vn 0.168002 0.114956 0.979061
v -9.32306 -181.029 1465.87
vn -0.22574 -0.67869 0.698872
v -9.52556 -182.28 1465.59
vn -0.352125 -0.909638 0.220379
v -9.41718 -182.538 1465.2
vn -0.0380408 -0.436136 0.899076
v -9.32068 -182.206 1465.67
vn -0.254753 -0.846576 0.467343
v -9.21386 -182.524 1465.39
vn -0.96651 0.128114 -0.222362
v -8.28056 -173.326 1452.35
vn -0.938274 -0.0998039 -0.331182
v -8.28862 -173.557 1452.35
vn -0.91192 -0.1183 -0.392946
v -8.43827 -173.794 1452.81
vn -0.784268 -0.368224 -0.499334
v -8.27126 -174.207 1452.71
vn -0.902217 0.426867 -0.0615603
v -8.49541 -172.767 1455.08
vn -0.955054 0.198353 -0.22029
v -8.73852 -173.898 1453.68
vn -0.886665 -0.160286 -0.433743
v -8.69479 -174.403 1453.53
vn -0.666573 -0.420893 -0.615247
v -8.4184 -175.327 1453.75
vn -0.937757 0.330975 -0.105203
v -8.82439 -173.593 1454.88
vn -0.598758 -0.416483 -0.684128
v -8.33847 -176.482 1454.43
vn -0.809077 0.585889 0.0461343
v -8.58271 -172.845 1457.24
vn -0.735494 0.664471 0.132392
v -8.51269 -172.854 1457.93
vn -0.535584 -0.45068 -0.714169
v -8.64258 -178.165 1455.64
vn -0.397554 -0.596531 -0.69721
v -8.56347 -178.393 1455.76
vn -0.593054 -0.485241 -0.642517
v -8.98111 -178.505 1456.16
vn -0.495583 -0.614606 -0.613724
v -8.88275 -178.95 1456.48
vn -0.249391 -0.737148 -0.628026
v -8.57318 -179.088 1456.44
vn -0.742607 0.633221 0.218094
v -9.01734 -173.889 1459.48
vn -0.523039 0.687673 0.503523
v -8.84603 -174.592 1461.32
vn -0.27243 0.673837 0.686823
v -8.53787 -174.475 1461.38
vn -0.0653493 -0.800365 -0.595941
v -8.5933 -180.145 1457.87
vn 0.234568 -0.812154 -0.534213
v -8.28564 -180.188 1457.96
vn -0.202846 -0.816651 -0.540309
v -8.91764 -180.955 1458.95
vn -0.391213 0.632547 0.668458
v -8.96724 -175.922 1462.6
vn -0.350369 0.662853 0.661715
v -8.85776 -175.46 1462.15
vn -0.106969 0.667896 0.736527
v -8.44735 -175.445 1462.26
vn -0.27821 -0.871677 -0.403457
v -9.02838 -181.234 1459.5
vn -0.0702272 -0.88507 -0.46013
v -8.61598 -181.298 1459.47
vn 0.0993902 -0.822152 -0.560524
v -8.40622 -181.145 1459.21
vn 0.14707 -0.86874 -0.472928
v -8.30703 -181.296 1459.48
vn -0.329349 0.485196 0.810009
v -8.97308 -176.475 1463.01
vn -0.139317 0.582358 0.800906
v -8.76471 -176.123 1462.85
vn 0.118028 0.576988 0.808179
v -8.3528 -176.115 1462.86
vn 0.0152075 0.3865 0.922164
v -8.35807 -176.751 1463.22
vn -0.347917 -0.892732 -0.286327
v -9.04485 -181.655 1460.67
vn -0.0608134 -0.928123 -0.367272
v -8.42052 -181.645 1460.22
vn 0.095882 0.30734 0.946757
v -8.8784 -178.067 1463.58
vn 0.347559 0.639465 0.685775
v -8.68258 -179.626 1464.28
vn -0.328637 -0.923426 -0.198197
v -8.77916 -182.636 1463.77
vn -0.210743 -0.95132 -0.224894
v -8.36645 -182.743 1463.72
vn 0.348421 0.656962 0.668583
v -9.0085 -180.442 1465.48
vn 0.263262 0.415288 0.870763
v -9.01243 -180.806 1465.75
vn -0.207932 -0.9767 -0.0531174
v -8.48156 -182.86 1464.58
vn 0.113861 -0.0728686 0.990821
v -9.11672 -181.361 1465.84
vn -0.103954 -0.748938 0.654435
v -8.80288 -182.56 1465.47
vn -0.219272 -0.9443 0.245394
v -8.79779 -182.745 1465.1
vn -0.103702 -0.98335 0.149228
v -8.38324 -182.852 1464.92
vn -0.0551653 -0.899222 0.434001
v -8.38725 -182.774 1465.21
vn -0.986282 0.0553242 -0.155519
v -7.49656 -171.252 1449.03
vn -0.951874 -0.141255 -0.271996
v -7.45925 -171.526 1448.89
vn -0.971849 0.221828 -0.0793812
v -7.73211 -171.644 1450.68
vn -0.842633 -0.361358 -0.399236
v -7.66028 -172.663 1450.19
vn -0.634175 -0.618033 -0.464604
v -7.34646 -172.832 1449.84
vn -0.976576 0.0357976 -0.212174
v -7.8876 -172.43 1450.85
vn -0.920551 -0.19814 -0.336641
v -7.89598 -172.846 1450.98
vn -0.68496 -0.539659 -0.489487
v -7.77455 -173.193 1450.98
vn -0.667411 0.737859 0.100629
v -7.29182 -170.895 1453.05
vn -0.408229 -0.726761 -0.55242
v -7.33469 -173.96 1451.58
vn -0.894234 0.445244 -0.0458592
v -7.67117 -171.403 1453.13
vn -0.551057 -0.5689 -0.610482
v -8.10907 -174.507 1452.79
vn -0.373754 -0.681192 -0.629512
v -7.4862 -174.642 1452.44
vn -0.534619 -0.514092 -0.67074
v -8.01545 -175.399 1453.45
vn -0.381474 -0.568949 -0.728543
v -7.49915 -175.677 1453.35
vn -0.650738 0.74717 0.135188
v -7.86776 -171.906 1456.11
vn -0.502316 0.839792 0.205982
v -7.53824 -171.687 1456.23
vn -0.585559 0.787868 0.190748
v -7.96578 -172.236 1457.33
vn -0.275909 -0.582282 -0.764737
v -8.0402 -177.963 1455.18
vn -0.0421433 -0.652314 -0.756776
v -7.73107 -178.028 1455.17
vn 0.162031 -0.665695 -0.72842
v -7.41889 -177.751 1454.95
vn 0.210029 -0.678976 -0.703477
v -7.42722 -178.412 1455.53
vn -0.188052 -0.681944 -0.706816
v -8.04742 -178.552 1455.68
vn -0.176127 0.851102 0.494574
v -7.48369 -172.942 1459.68
vn -0.49395 0.809298 0.317883
v -8.19356 -172.819 1458.88
vn -0.0759688 -0.784422 -0.615557
v -7.84793 -179.012 1456.14
vn 0.0691915 -0.73625 -0.673163
v -7.63736 -178.742 1455.82
vn 0.172486 -0.849392 -0.498781
v -7.64439 -179.125 1456.32
vn -0.369343 0.799341 0.473961
v -8.00733 -173.464 1460.29
vn -0.0110459 -0.838494 -0.544799
v -8.16555 -179.395 1456.75
vn 0.194726 -0.86598 -0.460609
v -7.858 -179.422 1456.86
vn -0.155885 0.804219 0.573525
v -7.70258 -173.555 1460.6
vn -0.0509156 0.714614 0.697664
v -7.70701 -173.811 1460.91
vn 0.389802 -0.835947 -0.386325
v -7.55481 -179.522 1457.28
vn -0.267856 0.742512 0.613946
v -8.22499 -174.108 1461.12
vn -0.0522566 0.648314 0.759577
v -8.23133 -174.591 1461.56
vn 0.611485 -0.682303 -0.400684
v -7.67295 -180.132 1458.35
vn 0.16381 0.595511 0.786468
v -7.92721 -175.055 1461.9
vn 0.331006 0.53359 0.778278
v -8.04039 -175.913 1462.62
vn 0.373604 -0.767186 -0.521389
v -7.99495 -181.045 1459.26
vn 0.587383 -0.671809 -0.45128
v -7.69309 -181.185 1459.78
vn 0.307854 0.358123 0.881461
v -8.02536 -176.845 1463.18
vn 0.268163 -0.860989 -0.432189
v -8.00747 -181.569 1460.15
vn 0.386127 -0.827845 -0.406914
v -7.70563 -181.706 1460.67
vn 0.175885 -0.919665 -0.351115
v -8.01949 -181.932 1461.01
vn 0.408142 -0.840028 -0.357453
v -7.50808 -181.887 1461.27
vn -0.0510647 -0.956026 -0.288803
v -8.04437 -182.537 1462.78
vn 0.214149 -0.925357 -0.312816
v -7.73003 -182.38 1462.4
vn 0.189781 -0.953955 -0.232279
v -7.74403 -182.691 1463.4
vn 0.334335 0.403263 0.851821
v -8.15875 -181.118 1465.6
vn 0.418571 0.62034 0.663307
v -7.7681 -180.859 1465.16
vn -0.0235194 -0.999643 0.0126923
v -8.06935 -182.896 1464.57
vn 0.112602 -0.989394 -0.0917619
v -7.86022 -182.884 1464.35
vn 0.149821 -0.983706 0.0993836
v -7.76216 -182.872 1464.7
vn -0.0511287 -0.984227 -0.169358
v -8.09251 -182.846 1464.01
vn 0.091996 -0.261084 0.960922
v -7.87745 -182.267 1465.59
vn 0.0995576 -0.583696 0.805846
v -7.77274 -182.552 1465.47
vn 0.217518 -0.150377 0.964403
v -7.67129 -182.149 1465.59
vn 0.227329 -0.338154 0.913222
v -7.6706 -182.353 1465.53
vn 0.30578 0.111469 0.945555
v -7.568 -181.793 1465.57
vn 0.337249 -0.582437 0.739615
v -7.56604 -182.525 1465.42
vn 0.018243 -0.98037 0.196321
v -8.07452 -182.861 1464.94
vn 0.139347 -0.883323 0.447574
v -7.76918 -182.765 1465.21
vn -0.890853 0.453696 0.0232637
v -6.39074 -168.466 1444.34
vn -0.900601 -0.195454 -0.388221
v -6.3882 -168.829 1443.92
vn -0.797835 -0.415405 -0.436918
v -6.75865 -170.19 1445.65
vn -0.547729 -0.647969 -0.529272
v -6.46153 -170.452 1445.52
vn -0.95224 0.299197 -0.0609996
v -7.12229 -170.206 1446.79
vn -0.966568 -0.0658631 -0.247809
v -7.13517 -170.436 1446.79
vn -0.536349 0.822037 0.191274
v -6.69682 -169.725 1447.63
vn -0.219745 -0.837619 -0.500107
v -6.50551 -172.492 1448.64
vn -0.218912 0.958759 0.18127
v -6.75496 -170.428 1451.79
vn -0.146393 -0.830692 -0.537141
v -6.74583 -173.829 1451.07
vn -0.129813 -0.738344 -0.661813
v -6.55033 -174.412 1451.82
vn -0.360941 0.910673 0.200988
v -7.20575 -171.119 1454.56
vn -0.10998 0.97041 0.214964
v -6.59458 -171.076 1455.05
vn -0.0658469 -0.672814 -0.736876
v -7.08555 -175.679 1453.24
vn -0.156458 0.953922 0.256033
v -6.61333 -171.4 1456.39
vn -0.333241 0.902614 0.272468
v -7.13165 -171.614 1456.62
vn -0.202479 0.927819 0.313297
v -6.72877 -171.702 1457.28
vn 0.429905 -0.672172 -0.602798
v -6.59559 -177.429 1455.01
vn -0.222187 0.893948 0.389218
v -7.16053 -172.34 1458.68
vn 0.0544533 0.841642 0.537283
v -6.75141 -172.396 1458.89
vn 0.673284 -0.672376 -0.307571
v -6.8231 -178.748 1456.53
vn 0.424729 -0.726211 -0.540576
v -7.22944 -178.859 1456.12
vn 0.457004 -0.808735 -0.370264
v -7.2332 -179.015 1456.38
vn 0.194064 0.739035 0.645109
v -7.29182 -173.615 1460.69
vn 0.147113 0.618816 0.771638
v -7.39917 -173.918 1460.99
vn 0.448896 0.551273 0.703271
v -7.08958 -174.006 1460.95
vn 0.629461 -0.733503 -0.256423
v -7.355 -179.564 1457.72
vn 0.339361 0.499251 0.797234
v -7.19565 -174.26 1461.17
vn 0.581108 0.422786 0.695388
v -6.88813 -174.748 1461.27
vn 0.740838 -0.63232 -0.226561
v -7.12911 -179.539 1458.32
vn 0.404651 0.487475 0.773709
v -7.4109 -175.204 1461.81
vn 0.765984 -0.562534 -0.311165
v -7.15904 -179.871 1458.96
vn 0.580124 0.399139 0.710031
v -6.79425 -175.994 1461.9
vn 0.785993 -0.486017 -0.382102
v -7.24658 -180.48 1459.68
vn 0.472862 0.462416 0.750049
v -7.113 -176.679 1462.58
vn 0.474217 0.360417 0.803254
v -7.11829 -177.312 1462.95
vn 0.584614 0.394077 0.709175
v -6.90879 -177.121 1462.7
vn 0.592799 0.285124 0.753189
v -6.88928 -177.485 1462.86
vn 0.585579 -0.700673 -0.407622
v -7.39648 -181.5 1460.66
vn 0.435091 0.250625 0.864802
v -7.12856 -177.997 1463.18
vn 0.844121 -0.416809 -0.337238
v -6.7551 -181.056 1461.25
vn 0.606437 -0.724497 -0.327626
v -7.20286 -181.813 1461.55
vn 0.736709 -0.551944 -0.390663
v -6.9904 -181.324 1461.09
vn 0.386457 0.386544 0.837397
v -7.23074 -179.434 1463.59
vn 0.697999 0.258479 0.667822
v -6.71402 -179.921 1463.46
vn 0.781267 -0.564108 -0.267214
v -6.76443 -181.573 1462.02
vn 0.721851 0.454541 0.521846
v -6.72005 -180.564 1463.88
vn 0.629902 -0.741537 -0.230968
v -7.01418 -182.115 1462.78
vn 0.403301 -0.86658 -0.293918
v -7.42308 -182.322 1462.56
vn 0.487512 0.6173 0.617473
v -7.16765 -180.455 1464.34
vn 0.670317 0.508125 0.540818
v -6.93471 -180.827 1464.5
vn 0.853446 0.260604 0.451348
v -6.69769 -181.007 1464.29
vn 0.448624 -0.869318 -0.20742
v -7.43996 -182.683 1463.76
vn 0.812196 -0.568283 -0.131878
v -6.7166 -182.045 1463.61
vn 0.45178 0.458292 0.765418
v -7.44465 -181.345 1465.38
vn 0.541232 0.27725 0.793851
v -7.25619 -181.584 1465.38
vn 0.522151 0.570851 0.633631
v -7.14696 -181.086 1464.94
vn 0.668443 0.405193 0.623701
v -7.14996 -181.339 1465.15
vn 0.780511 0.115155 0.614444
v -7.09807 -181.758 1465.29
vn 0.913092 -0.104383 0.394166
v -6.90467 -182.03 1464.92
vn 0.942065 -0.252522 0.220783
v -6.79977 -182.07 1464.55
vn 0.33246 -0.93932 -0.0845471
v -7.44884 -182.8 1464.4
vn 0.43764 -0.895177 0.0844382
v -7.4537 -182.799 1464.74
vn 0.640219 -0.764966 -0.0703313
v -7.03999 -182.528 1464.31
vn 0.69418 -0.699513 0.169692
v -7.08783 -182.534 1464.77
vn 0.859839 -0.412676 0.300626
v -6.98773 -182.351 1464.87
vn 0.855365 -0.510648 0.0871149
v -6.87992 -182.345 1464.41
vn 0.424322 -0.123591 0.897037
v -7.46447 -182.118 1465.53
vn 0.415395 -0.317679 0.852365
v -7.4638 -182.323 1465.48
vn 0.551243 0.0343581 0.833637
v -7.25703 -181.834 1465.43
vn 0.570816 -0.51204 0.641859
v -7.2549 -182.445 1465.27
vn 0.729688 -0.248235 0.63713
v -7.13511 -182.219 1465.28
vn 0.42431 -0.820886 0.382239
v -7.45911 -182.725 1465.13
vn 0.719184 -0.564657 0.404892
v -7.19215 -182.493 1465.14
vn -0.739045 0.430956 -0.517773
v -5.59106 -167.259 1442.25
vn -0.939752 0.070396 -0.334529
v -6.04382 -167.891 1442.79
vn -0.862848 0.505014 -0.0213429
v -5.95883 -167.617 1442.93
vn -0.896982 0.30186 -0.322962
v -5.86776 -167.519 1442.52
vn -0.792982 -0.0947612 -0.601831
v -5.9041 -167.754 1442.52
vn -0.792544 0.55016 -0.263056
v -5.73226 -167.333 1442.39
vn -0.724813 0.102896 -0.681218
v -5.73873 -167.424 1442.34
vn -0.551549 -0.209799 -0.807328
v -5.79956 -167.722 1442.42
vn -0.613958 0.767722 0.183459
v -5.70114 -167.298 1442.75
vn -0.338259 -0.152963 -0.928538
v -5.59121 -167.495 1442.25
vn -0.179804 -0.366936 -0.912704
v -5.59279 -167.835 1442.36
vn -0.485398 -0.422396 -0.765487
v -5.80177 -168.1 1442.57
vn -0.965302 0.20382 -0.163245
v -6.22483 -168.187 1443.36
vn -0.733275 -0.365592 -0.57328
v -6.01236 -168.292 1442.89
vn -0.319898 -0.630807 -0.706928
v -5.70338 -168.602 1442.89
vn -0.597173 -0.564523 -0.569823
v -6.1277 -169.147 1443.76
vn -0.285083 -0.714909 -0.638461
v -5.70999 -169.045 1443.36
vn -0.242224 -0.764822 -0.596971
v -5.93813 -170.272 1444.92
vn -0.222468 0.900223 0.374308
v -5.75847 -169.046 1446.83
vn -0.341235 -0.777226 -0.528658
v -6.26085 -170.852 1445.89
vn -0.0544988 -0.842983 -0.535172
v -5.84834 -170.931 1445.86
vn -0.069717 0.95021 0.30371
v -5.98207 -169.534 1448.09
vn -0.136855 0.967844 0.211067
v -6.3095 -169.9 1449.4
vn 0.210922 0.944282 0.252672
v -5.8871 -169.921 1449.4
vn 0.0781626 -0.872801 -0.481777
v -5.78553 -172.588 1448.71
vn 0.104856 0.973429 0.203572
v -6.34178 -170.371 1451.71
vn 0.224094 -0.862672 -0.453409
v -5.7019 -173.29 1450.09
vn 0.172397 -0.800242 -0.574362
v -5.71853 -173.919 1451.27
vn 0.158891 -0.722407 -0.672965
v -6.36258 -175.509 1453.11
vn 0.451171 0.853705 0.260061
v -5.9978 -171.519 1456.57
vn 0.234234 0.946802 0.22068
v -6.19564 -171.295 1455.99
vn 0.100786 0.947382 0.303826
v -6.31155 -171.528 1456.91
vn 0.445707 0.828163 0.339841
v -6.00883 -171.793 1457.36
vn 0.0544362 0.92394 0.378645
v -6.42559 -171.799 1457.7
vn 0.36654 0.827318 0.425668
v -6.12137 -172.046 1458.04
vn 0.619961 0.683777 0.384834
v -5.91456 -172.164 1457.98
vn 0.660117 -0.632769 -0.404782
v -6.08397 -177.184 1455.26
vn 0.0614447 0.890669 0.450482
v -6.5378 -172.1 1458.35
vn 0.263518 0.818097 0.511151
v -6.33414 -172.231 1458.52
vn 0.413364 0.694114 0.589352
v -6.23516 -172.477 1458.8
vn 0.485454 0.728488 0.483363
v -6.12375 -172.309 1458.48
vn 0.660786 0.583498 0.472114
v -5.92316 -172.555 1458.59
vn 0.666953 0.496372 0.555688
v -5.82503 -173.017 1458.93
vn 0.86654 -0.47021 -0.167367
v -6.00364 -177.876 1456.87
vn 0.993767 -0.110798 0.0122804
v -5.76531 -176.871 1458.56
vn 0.97424 -0.223689 0.0286089
v -5.76183 -177.362 1457.49
vn 0.86551 -0.495197 -0.0753202
v -6.0319 -178.1 1457.57
vn 0.930148 -0.362545 -0.0581953
v -5.8877 -177.775 1457.39
vn 0.750979 -0.637772 -0.171107
v -6.28264 -178.371 1457.19
vn 0.712652 0.367649 0.597463
v -6.36082 -174.086 1460.34
vn 0.95897 0.177922 0.220727
v -5.76067 -175.462 1459.87
vn 0.939889 -0.341246 0.0126537
v -6.00644 -178.066 1458.4
vn 0.822391 0.329431 0.463841
v -6.07314 -175.194 1460.47
vn 0.899228 0.279536 0.336525
v -5.83405 -176.027 1460.73
vn 0.844584 -0.521459 -0.121485
v -6.37142 -178.814 1459.17
vn 0.921281 -0.382665 -0.0693444
v -6.24151 -178.571 1459.15
vn 0.663582 0.31375 0.679131
v -6.48122 -175.906 1461.61
vn 0.731423 0.396358 0.554906
v -6.37392 -175.571 1461.31
vn 0.832802 0.221197 0.507457
v -5.91354 -176.169 1461.01
vn 0.945651 0.0754121 0.316317
v -5.77195 -176.396 1460.78
vn 0.869618 0.159923 0.467106
v -6.01302 -176.91 1461.32
vn 0.922104 -0.347592 -0.170009
v -6.18053 -178.733 1459.91
vn 0.838201 -0.48056 -0.25784
v -6.33794 -179.007 1459.76
vn 0.747993 0.265112 0.608459
v -6.47096 -176.318 1461.74
vn 0.958211 0.00436394 0.286028
v -5.94 -177.463 1461.27
vn 0.710815 0.326202 0.623165
v -6.57752 -177.435 1462.55
vn 0.737227 0.227101 0.636334
v -6.53763 -177.851 1462.68
vn 0.823199 0.246201 0.511593
v -6.33777 -177.662 1462.32
vn 0.890645 -0.363875 -0.272665
v -6.48503 -180.084 1460.94
vn 0.898957 0.0993572 0.42662
v -6.26474 -178.448 1462.49
vn 0.977049 -0.204746 -0.0587666
v -6.21914 -179.914 1461.96
vn 0.98868 -0.0557867 0.13928
v -6.25937 -180.151 1462.42
vn 0.91626 0.124362 0.380791
v -6.42155 -179.975 1462.97
vn 0.973222 -0.221505 -0.0614347
v -6.35981 -180.75 1462.46
vn 0.913637 -0.359361 -0.190071
v -6.5256 -181.208 1462.22
vn 0.917165 0.199087 0.345215
v -6.53292 -180.862 1463.79
vn 0.953489 -0.00499951 0.301386
v -6.57606 -181.373 1464.1
vn 0.980147 -0.0912722 0.176013
v -6.51316 -181.449 1463.8
vn 0.953583 -0.300578 0.0182349
v -6.53523 -181.688 1463.59
vn -0.68617 0.646859 -0.332782
v -5.48772 -167.131 1442.22
vn -0.242531 0.0467821 -0.969015
v -5.48739 -167.234 1442.2
vn -0.624739 0.775663 -0.0897122
v -5.48955 -167.084 1442.36
vn -0.441959 0.88094 -0.169167
v -5.38522 -167.035 1442.26
vn 0.125429 0.787792 -0.603034
v -5.2818 -167.018 1442.23
vn -0.0494435 0.273434 -0.960619
v -5.28118 -167.111 1442.19
vn -0.187844 0.976207 -0.108322
v -5.28331 -166.981 1442.34
vn 0.119616 -0.199604 -0.972548
v -5.28137 -167.348 1442.2
vn 0.15315 0.948025 -0.278916
v -5.18029 -166.985 1442.34
vn 0.33379 0.223092 -0.915868
v -5.0758 -167.133 1442.23
vn 0.39292 0.671648 -0.628094
v -5.01203 -167.055 1442.31
vn 0.409966 -0.138317 -0.901552
v -4.97338 -167.269 1442.27
vn 0.641882 0.619017 -0.452555
v -4.87187 -167.093 1442.38
vn 0.576418 0.210981 -0.789449
v -4.87117 -167.183 1442.33
vn -0.343972 0.881769 0.322748
v -5.39051 -167.072 1442.64
vn -0.23908 0.960229 0.144229
v -5.28487 -166.989 1442.45
vn -0.211682 0.936887 0.278269
v -5.28631 -167.013 1442.56
vn -0.00470259 0.99416 0.107814
v -5.18198 -166.975 1442.46
vn -0.011353 0.925272 0.379134
v -5.08322 -167.064 1442.77
vn 0.339695 0.92461 -0.172349
v -4.97579 -167.005 1442.45
vn 0.2169 0.957241 0.191424
v -4.97738 -167.008 1442.57
vn 0.315944 0.876199 0.363943
v -4.8784 -167.129 1442.85
vn -0.431359 0.895086 0.112917
v -5.38817 -167.028 1442.47
vn 0.128152 -0.399897 -0.907557
v -5.2838 -167.838 1442.36
vn 0.671135 -0.141021 -0.727799
v -4.78572 -167.333 1442.4
vn 0.580309 0.812968 0.0482166
v -4.77223 -167.102 1442.63
vn 0.826249 0.175255 -0.535349
v -4.74161 -167.242 1442.45
vn 0.913124 0.380202 -0.147142
v -4.70009 -167.197 1442.59
vn 0.733013 0.619205 0.281561
v -4.73389 -167.201 1442.82
vn 0.760642 -0.278757 -0.586276
v -4.70559 -167.797 1442.62
vn -0.0794528 -0.53916 -0.838447
v -5.4931 -168.291 1442.59
vn 0.175244 -0.512039 -0.840896
v -5.18427 -168.271 1442.6
vn 0.398856 -0.367352 -0.840218
v -4.97702 -167.989 1442.52
vn -0.0255389 -0.74306 -0.668737
v -5.39734 -168.877 1443.1
vn 0.0546092 -0.638817 -0.767418
v -5.29008 -168.562 1442.8
vn 0.234774 -0.681509 -0.693128
v -5.08635 -168.704 1442.96
vn 0.327782 -0.541811 -0.773951
v -4.98049 -168.419 1442.76
vn 0.476423 -0.586462 -0.655045
v -4.87978 -168.556 1442.92
vn 0.481033 -0.686923 -0.544743
v -4.88418 -168.852 1443.24
vn 0.674915 -0.407799 -0.614971
v -4.7753 -168.305 1442.82
vn 0.739029 -0.500054 -0.451422
v -4.76232 -168.633 1443.12
vn 0.243613 -0.762436 -0.599453
v -5.09084 -168.986 1443.28
vn 0.31276 0.855374 0.412936
v -5.02409 -168.656 1445.89
vn 0.0927074 -0.80941 -0.57988
v -5.52243 -170.113 1444.66
vn 0.837663 0.493523 0.234
v -4.83012 -169.001 1446.29
vn 0.970559 0.210738 0.116641
v -4.72162 -169.232 1446.29
vn 0.772016 0.560665 0.299409
v -4.7863 -169.191 1446.66
vn 0.728635 -0.586101 -0.354367
v -4.84369 -170.42 1445.67
vn 0.908468 -0.383167 -0.166938
v -4.78253 -170.424 1445.9
vn 0.233769 -0.836438 -0.495704
v -5.43536 -170.845 1445.79
vn 0.388636 -0.770848 -0.504733
v -5.22603 -170.63 1445.56
vn 0.623702 -0.693195 -0.361214
v -5.02563 -170.756 1445.96
vn 0.772066 0.543583 0.329289
v -4.89038 -169.617 1447.48
vn 0.433938 0.820909 0.371222
v -5.26171 -169.683 1448.14
vn 0.954847 0.234984 0.181799
v -4.81945 -170.46 1448.44
vn 0.567489 0.772681 0.284465
v -5.27647 -170.118 1449.19
vn 0.726754 0.624146 0.286828
v -5.11865 -170.24 1449.13
vn 0.927279 0.341312 0.153819
v -4.89056 -170.89 1449.49
vn 0.995199 0.0786739 0.0582166
v -4.82364 -171.256 1449.3
vn 0.761173 0.617905 0.196999
v -5.1377 -170.527 1449.9
vn 0.990997 -0.128556 -0.0373949
v -4.84459 -171.716 1449.29
vn 0.347054 -0.830061 -0.436524
v -5.48592 -172.87 1449.38
vn 0.542221 0.811687 0.217163
v -5.5059 -170.464 1450.86
vn 0.647477 0.735948 0.197872
v -5.32068 -170.965 1452.34
vn 0.996054 -0.0862692 0.0208355
v -4.83294 -172.257 1451.68
vn 0.566018 -0.728157 -0.386538
v -5.3 -173.471 1450.81
vn 0.479948 0.852897 0.205465
v -5.64248 -170.979 1453.26
vn 0.822085 0.543945 0.168225
v -5.15565 -171.211 1452.57
vn 0.94999 0.290159 0.115442
v -4.95421 -171.482 1452.2
vn 0.989858 0.109483 0.0905203
v -4.87892 -171.898 1452.33
vn 0.922299 -0.352103 -0.159335
v -5.04285 -173.548 1451.71
vn 0.788108 -0.548242 -0.27985
v -5.15873 -173.541 1451.24
vn 0.739083 0.649028 0.180328
v -5.33602 -171.22 1453.25
vn 0.905582 0.396425 0.150894
v -5.13526 -171.726 1453.81
vn 0.970622 0.203675 0.128096
v -5.03786 -171.962 1453.57
vn 0.655421 -0.644373 -0.393963
v -5.31494 -174.111 1451.87
vn 0.884704 0.444534 0.140311
v -5.25087 -171.654 1454.54
vn 0.541492 -0.669476 -0.508516
v -5.43393 -175.063 1453
vn 0.90752 -0.377877 -0.183349
v -5.26397 -174.858 1453.11
vn 0.643545 0.740037 0.195436
v -5.57166 -171.579 1455.73
vn 0.910932 -0.387971 -0.140289
v -5.4117 -175.609 1454.11
vn 0.978557 -0.205701 0.0106849
v -5.35794 -175.474 1454.3
vn 0.79468 -0.536192 -0.284572
v -5.60708 -175.978 1454.15
vn 0.679727 0.675704 0.285298
v -5.60285 -171.917 1456.83
vn 0.858717 0.464177 0.217128
v -5.43329 -172.052 1456.65
vn 0.971376 0.176195 0.159322
v -5.34737 -172.377 1456.83
vn 0.995653 -0.038744 0.0846966
v -5.30527 -173.109 1456.45
vn 0.77447 0.529671 0.345897
v -5.70982 -172.45 1458.07
vn 0.895452 0.35307 0.271124
v -5.47545 -172.479 1457.47
vn 0.957567 0.174875 0.229092
v -5.44102 -172.804 1457.65
vn 0.988682 0.0265592 0.14766
v -5.40435 -172.987 1457.56
vn 0.976671 -0.214436 -0.0114751
v -5.58709 -176.32 1455.48
vn 0.876708 0.337867 0.342387
v -5.63571 -172.814 1458.34
vn 0.959632 0.122329 0.253261
v -5.58295 -173.23 1458.47
vn 0.993581 -0.0618235 0.0947338
v -5.45108 -174.138 1457.54
vn 0.902395 0.202128 0.380561
v -5.71554 -173.376 1458.98
vn 0.992338 -0.109202 0.0577916
v -5.65978 -176.763 1457.46
vn 0.991067 -0.00288504 0.133334
v -5.65252 -174.575 1459.05
vn 0.995512 0.0639143 0.0697886
v -5.70759 -175.689 1459.64
vn 0.999813 -0.00895364 -0.0171543
v -5.69314 -176.146 1459.4
vn 0.973002 0.120318 0.196952
v -5.68957 -176.206 1460.41
vn 0.998673 0.0464 0.0223217
v -5.66093 -176.156 1460.09
vn 0.989405 -0.134843 0.0538105
v -5.69153 -176.85 1460.31
vn 0.933221 -0.0909275 -0.347607
v -4.62062 -167.753 1442.76
vn 0.990677 0.129136 0.0434003
v -4.58521 -167.756 1442.99
vn 0.935746 -0.259562 -0.238761
v -4.6348 -168.498 1443.31
vn 0.968193 0.212704 0.131757
v -4.69171 -168.66 1444.96
vn 0.998773 -0.0487634 0.00866589
v -4.7091 -170.115 1446.88
vn -0.459517 0.0563009 -0.886383
v -5.59106 -167.259 1442.25
vn -0.286481 0.338054 -0.896464
v -5.48772 -167.131 1442.22
vn -0.255753 0.481978 -0.838026
v -5.38522 -167.035 1442.26
vn -0.308903 0.423064 -0.851819
v -5.2818 -167.018 1442.23
f 22//22 1//1 2//2
f 2//2 54//54 22//22
f 5//5 2//2 1//1
f 26//26 54//54 2//2
f 7//7 26//26 2//2
f 6//6 7//7 2//2
f 3//3 4//4 8//8
f 23//23 3//3 1//1
f 3//3 23//23 25//25
f 25//25 4//4 3//3
f 4//4 28//28 10//10
f 4//4 25//25 28//28
f 7//7 14//14 36//36
f 26//26 7//7 29//29
f 29//29 7//7 36//36
f 1//1 3//3 5//5
f 3//3 8//8 5//5
f 5//5 8//8 11//11
f 5//5 6//6 2//2
f 5//5 11//11 6//6
f 7//7 6//6 14//14
f 4//4 9//9 8//8
f 8//8 9//9 18//18
f 9//9 21//21 19//19
f 4//4 10//10 9//9
f 10//10 21//21 9//9
f 8//8 18//18 11//11
f 6//6 11//11 14//14
f 12//12 17//17 14//14
f 14//14 11//11 12//12
f 11//11 18//18 13//13
f 12//12 11//11 16//16
f 15//15 12//12 16//16
f 16//16 11//11 13//13
f 36//36 14//14 17//17
f 17//17 12//12 15//15
f 41//41 15//15 16//16
f 16//16 13//13 45//45
f 45//45 13//13 20//20
f 36//36 17//17 40//40
f 15//15 40//40 17//17
f 40//40 15//15 41//41
f 45//45 41//41 16//16
f 18//18 9//9 19//19
f 19//19 13//13 18//18
f 13//13 19//19 20//20
f 20//20 21//21 47//47
f 20//20 19//19 21//21
f 20//20 46//46 45//45
f 22//22 56//56 23//23
f 22//22 23//23 1//1
f 26//26 24//24 54//54
f 24//24 26//26 27//27
f 24//24 27//27 64//64
f 28//28 34//34 10//10
f 29//29 36//36 31//31
f 26//26 30//30 27//27
f 26//26 29//29 30//30
f 31//31 30//30 29//29
f 27//27 30//30 31//31
f 32//32 27//27 31//31
f 32//32 31//31 33//33
f 31//31 38//38 33//33
f 65//65 27//27 32//32
f 33//33 65//65 32//32
f 35//35 21//21 10//10
f 10//10 34//34 35//35
f 67//67 35//35 34//34
f 67//67 34//34 66//66
f 38//38 31//31 36//36
f 37//37 38//38 36//36
f 40//40 37//37 36//36
f 37//37 39//39 38//38
f 37//37 43//43 39//39
f 40//40 41//41 42//42
f 50//50 41//41 45//45
f 43//43 40//40 42//42
f 44//44 42//42 41//41
f 43//43 37//37 40//40
f 44//44 41//41 50//50
f 44//44 43//43 42//42
f 43//43 44//44 69//69
f 39//39 43//43 69//69
f 69//69 44//44 73//73
f 46//46 20//20 47//47
f 48//48 21//21 35//35
f 47//47 21//21 48//48
f 47//47 49//49 46//46
f 49//49 47//47 48//48
f 46//46 49//49 53//53
f 53//53 49//49 77//77
f 48//48 35//35 67//67
f 48//48 67//67 71//71
f 49//49 48//48 70//70
f 77//77 49//49 70//70
f 73//73 44//44 50//50
f 50//50 45//45 51//51
f 45//45 46//46 51//51
f 46//46 53//53 51//51
f 50//50 51//51 52//52
f 51//51 53//53 52//52
f 50//50 52//52 74//74
f 74//74 52//52 75//75
f 52//52 53//53 75//75
f 77//77 75//75 53//53
f 55//55 80//80 56//56
f 80//80 84//84 56//56
f 57//57 56//56 84//84
f 86//86 58//58 57//57
f 56//56 22//22 55//55
f 23//23 56//56 57//57
f 55//55 22//22 54//54
f 59//59 58//58 60//60
f 57//57 59//59 23//23
f 57//57 58//58 59//59
f 90//90 61//61 60//60
f 58//58 90//90 60//60
f 92//92 61//61 90//90
f 23//23 59//59 25//25
f 59//59 60//60 25//25
f 28//28 25//25 60//60
f 92//92 93//93 61//61
f 24//24 62//62 54//54
f 62//62 24//24 63//63
f 28//28 60//60 61//61
f 63//63 24//24 64//64
f 61//61 34//34 28//28
f 64//64 27//27 65//65
f 63//63 64//64 65//65
f 95//95 63//63 65//65
f 96//96 65//65 97//97
f 97//97 65//65 33//33
f 33//33 150//150 97//97
f 144//144 66//66 34//34
f 101//101 67//67 98//98
f 98//98 67//67 66//66
f 68//68 33//33 38//38
f 39//39 68//68 38//38
f 69//69 100//100 39//39
f 70//70 48//48 71//71
f 101//101 71//71 67//67
f 70//70 71//71 72//72
f 72//72 71//71 101//101
f 69//69 73//73 103//103
f 100//100 69//69 103//103
f 50//50 74//74 73//73
f 103//103 73//73 74//74
f 74//74 75//75 76//76
f 103//103 74//74 76//76
f 75//75 78//78 76//76
f 103//103 76//76 104//104
f 78//78 75//75 77//77
f 77//77 70//70 79//79
f 77//77 79//79 78//78
f 70//70 72//72 79//79
f 83//83 118//118 80//80
f 116//116 81//81 80//80
f 80//80 81//81 84//84
f 81//81 116//116 84//84
f 82//82 85//85 84//84
f 82//82 84//84 116//116
f 85//85 82//82 87//87
f 127//127 121//121 83//83
f 182//182 121//121 127//127
f 80//80 55//55 83//83
f 85//85 57//57 84//84
f 85//85 87//87 86//86
f 86//86 87//87 124//124
f 55//55 54//54 83//83
f 54//54 127//127 83//83
f 57//57 85//85 86//86
f 86//86 90//90 58//58
f 88//88 127//127 54//54
f 125//125 89//89 90//90
f 88//88 62//62 128//128
f 88//88 54//54 62//62
f 89//89 92//92 90//90
f 91//91 128//128 62//62
f 89//89 132//132 92//92
f 62//62 133//133 91//91
f 92//92 136//136 93//93
f 92//92 132//132 136//136
f 62//62 140//140 133//133
f 140//140 62//62 63//63
f 34//34 61//61 93//93
f 144//144 34//34 93//93
f 93//93 136//136 144//144
f 95//95 94//94 63//63
f 96//96 95//95 65//65
f 97//97 150//150 147//147
f 97//97 147//147 96//96
f 66//66 144//144 98//98
f 148//148 98//98 144//144
f 99//99 33//33 68//68
f 99//99 150//150 33//33
f 68//68 100//100 99//99
f 100//100 68//68 39//39
f 151//151 99//99 100//100
f 151//151 150//150 99//99
f 105//105 151//151 100//100
f 102//102 72//72 101//101
f 107//107 72//72 102//102
f 148//148 101//101 98//98
f 101//101 148//148 102//102
f 102//102 148//148 152//152
f 100//100 103//103 105//105
f 105//105 103//103 153//153
f 153//153 103//103 104//104
f 78//78 79//79 106//106
f 78//78 106//106 76//76
f 79//79 72//72 107//107
f 108//108 76//76 106//106
f 106//106 79//79 109//109
f 76//76 108//108 104//104
f 109//109 79//79 107//107
f 109//109 107//107 155//155
f 163//163 110//110 160//160
f 110//110 163//163 111//111
f 168//168 110//110 115//115
f 111//111 112//112 110//110
f 111//111 113//113 112//112
f 113//113 116//116 112//112
f 112//112 116//116 110//110
f 83//83 168//168 114//114
f 118//118 115//115 80//80
f 115//115 116//116 80//80
f 110//110 116//116 115//115
f 117//117 116//116 113//113
f 113//113 171//171 117//117
f 114//114 118//118 83//83
f 168//168 118//118 114//114
f 168//168 115//115 118//118
f 120//120 166//166 168//168
f 168//168 83//83 120//120
f 117//117 82//82 116//116
f 117//117 119//119 82//82
f 166//166 120//120 121//121
f 173//173 166//166 121//121
f 173//173 121//121 175//175
f 120//120 83//83 121//121
f 121//121 182//182 175//175
f 82//82 119//119 87//87
f 87//87 119//119 122//122
f 122//122 124//124 87//87
f 124//124 122//122 123//123
f 119//119 172//172 122//122
f 122//122 172//172 176//176
f 123//123 122//122 176//176
f 176//176 180//180 123//123
f 180//180 176//176 177//177
f 86//86 124//124 125//125
f 125//125 124//124 123//123
f 126//126 125//125 123//123
f 123//123 180//180 126//126
f 180//180 183//183 126//126
f 127//127 128//128 182//182
f 125//125 90//90 86//86
f 187//187 126//126 183//183
f 128//128 127//127 88//88
f 89//89 126//126 130//130
f 89//89 125//125 126//126
f 130//130 126//126 187//187
f 187//187 131//131 130//130
f 129//129 135//135 193//193
f 192//192 128//128 129//129
f 132//132 89//89 130//130
f 129//129 128//128 134//134
f 134//134 135//135 129//129
f 128//128 91//91 134//134
f 134//134 91//91 133//133
f 130//130 138//138 132//132
f 131//131 138//138 130//130
f 131//131 197//197 138//138
f 135//135 134//134 133//133
f 140//140 141//141 133//133
f 135//135 133//133 141//141
f 142//142 135//135 141//141
f 137//137 136//136 132//132
f 138//138 137//137 132//132
f 139//139 137//137 138//138
f 139//139 145//145 137//137
f 145//145 136//136 137//137
f 197//197 139//139 138//138
f 140//140 143//143 141//141
f 143//143 140//140 94//94
f 63//63 94//94 140//140
f 142//142 141//141 143//143
f 145//145 144//144 136//136
f 146//146 94//94 95//95
f 94//94 146//146 143//143
f 145//145 204//204 144//144
f 96//96 146//146 95//95
f 264//264 146//146 96//96
f 147//147 264//264 96//96
f 150//150 270//270 147//147
f 149//149 148//148 144//144
f 144//144 204//204 149//149
f 204//204 212//212 149//149
f 207//207 151//151 105//105
f 149//149 152//152 148//148
f 152//152 149//149 212//212
f 152//152 212//212 209//209
f 209//209 156//156 152//152
f 156//156 155//155 152//152
f 219//219 156//156 209//209
f 104//104 213//213 153//153
f 109//109 154//154 106//106
f 109//109 155//155 154//154
f 213//213 104//104 108//108
f 108//108 106//106 154//154
f 108//108 154//154 214//214
f 154//154 157//157 214//214
f 213//213 108//108 214//214
f 155//155 102//102 152//152
f 102//102 155//155 107//107
f 154//154 155//155 157//157
f 156//156 157//157 155//155
f 219//219 157//157 156//156
f 225//225 159//159 158//158
f 225//225 160//160 168//168
f 225//225 158//158 160//160
f 225//225 168//168 166//166
f 159//159 163//163 158//158
f 158//158 163//163 160//160
f 159//159 164//164 163//163
f 164//164 159//159 161//161
f 159//159 162//162 161//161
f 165//165 161//161 162//162
f 168//168 160//160 110//110
f 161//161 165//165 164//164
f 163//163 164//164 111//111
f 164//164 113//113 111//111
f 164//164 165//165 113//113
f 113//113 165//165 169//169
f 162//162 167//167 165//165
f 170//170 165//165 167//167
f 174//174 166//166 173//173
f 113//113 169//169 171//171
f 169//169 165//165 170//170
f 171//171 169//169 172//172
f 169//169 170//170 172//172
f 182//182 236//236 174//174
f 117//117 171//171 119//119
f 174//174 173//173 175//175
f 174//174 175//175 182//182
f 172//172 119//119 171//171
f 172//172 234//234 176//176
f 234//234 177//177 176//176
f 178//178 177//177 234//234
f 179//179 177//177 178//178
f 236//236 182//182 239//239
f 237//237 236//236 239//239
f 177//177 184//184 180//180
f 179//179 184//184 177//177
f 182//182 128//128 186//186
f 181//181 239//239 182//182
f 184//184 183//183 180//180
f 185//185 187//187 183//183
f 185//185 188//188 187//187
f 184//184 185//185 183//183
f 184//184 242//242 185//185
f 185//185 191//191 188//188
f 242//242 184//184 179//179
f 189//189 181//181 186//186
f 182//182 186//186 181//181
f 181//181 189//189 244//244
f 186//186 128//128 192//192
f 189//189 186//186 192//192
f 189//189 192//192 190//190
f 244//244 189//189 190//190
f 245//245 244//244 190//190
f 194//194 247//247 250//250
f 188//188 131//131 187//187
f 191//191 131//131 188//188
f 247//247 194//194 191//191
f 192//192 129//129 193//193
f 193//193 190//190 192//192
f 245//245 193//193 195//195
f 245//245 190//190 193//193
f 245//245 195//195 248//248
f 191//191 194//194 131//131
f 194//194 250//250 252//252
f 142//142 195//195 135//135
f 195//195 193//193 135//135
f 254//254 194//194 252//252
f 131//131 194//194 197//197
f 195//195 142//142 196//196
f 195//195 196//196 251//251
f 197//197 200//200 139//139
f 200//200 145//145 139//139
f 198//198 200//200 197//197
f 197//197 194//194 198//198
f 194//194 254//254 198//198
f 199//199 142//142 143//143
f 199//199 196//196 142//142
f 199//199 255//255 196//196
f 251//251 196//196 255//255
f 200//200 202//202 145//145
f 201//201 200//200 198//198
f 198//198 259//259 201//201
f 259//259 203//203 201//201
f 264//264 199//199 146//146
f 146//146 199//199 143//143
f 260//260 199//199 264//264
f 145//145 202//202 204//204
f 201//201 202//202 200//200
f 203//203 202//202 201//201
f 270//270 264//264 147//147
f 269//269 205//205 202//202
f 203//203 269//269 202//202
f 205//205 204//204 202//202
f 205//205 206//206 204//204
f 269//269 206//206 205//205
f 273//273 206//206 269//269
f 204//204 206//206 212//212
f 150//150 151//151 207//207
f 150//150 207//207 208//208
f 208//208 270//270 150//150
f 207//207 217//217 275//275
f 211//211 219//219 209//209
f 206//206 210//210 212//212
f 209//209 212//212 210//210
f 210//210 211//211 209//209
f 206//206 282//282 210//210
f 282//282 283//283 211//211
f 282//282 211//211 210//210
f 273//273 282//282 206//206
f 217//217 105//105 153//153
f 217//217 207//207 105//105
f 153//153 213//213 215//215
f 213//213 216//216 215//215
f 216//216 213//213 214//214
f 216//216 214//214 218//218
f 153//153 215//215 217//217
f 218//218 214//214 220//220
f 215//215 288//288 217//217
f 289//289 288//288 215//215
f 289//289 215//215 216//216
f 216//216 218//218 289//289
f 220//220 214//214 157//157
f 219//219 220//220 157//157
f 219//219 211//211 220//220
f 283//283 293//293 211//211
f 293//293 220//220 211//211
f 220//220 293//293 218//218
f 307//307 226//226 221//221
f 307//307 222//222 226//226
f 223//223 226//226 222//222
f 223//223 310//310 224//224
f 303//303 221//221 227//227
f 226//226 225//225 221//221
f 162//162 226//226 223//223
f 224//224 162//162 223//223
f 310//310 312//312 224//224
f 227//227 221//221 225//225
f 314//314 228//228 162//162
f 225//225 226//226 159//159
f 162//162 159//159 226//226
f 166//166 227//227 225//225
f 319//319 228//228 315//315
f 229//229 317//317 227//227
f 228//228 230//230 162//162
f 227//227 166//166 229//229
f 230//230 167//167 162//162
f 230//230 170//170 167//167
f 230//230 231//231 170//170
f 231//231 172//172 170//170
f 229//229 166//166 232//232
f 232//232 166//166 174//174
f 229//229 232//232 233//233
f 320//320 229//229 233//233
f 231//231 234//234 172//172
f 234//234 231//231 322//322
f 236//236 232//232 174//174
f 232//232 236//236 235//235
f 233//233 232//232 235//235
f 233//233 235//235 325//325
f 235//235 236//236 237//237
f 234//234 323//323 178//178
f 332//332 328//328 239//239
f 238//238 179//179 178//178
f 240//240 239//239 181//181
f 328//328 237//237 239//239
f 332//332 239//239 240//240
f 244//244 240//240 181//181
f 238//238 242//242 179//179
f 241//241 331//331 338//338
f 243//243 185//185 242//242
f 331//331 242//242 238//238
f 242//242 241//241 243//243
f 242//242 331//331 241//241
f 343//343 241//241 338//338
f 241//241 343//343 247//247
f 185//185 243//243 191//191
f 241//241 247//247 243//243
f 244//244 245//245 246//246
f 337//337 244//244 246//246
f 337//337 246//246 344//344
f 250//250 247//247 343//343
f 250//250 343//343 349//349
f 243//243 247//247 191//191
f 248//248 246//246 245//245
f 251//251 248//248 195//195
f 248//248 249//249 246//246
f 248//248 251//251 249//249
f 344//344 246//246 249//249
f 357//357 250//250 349//349
f 253//253 249//249 251//251
f 251//251 255//255 253//253
f 253//253 351//351 249//249
f 252//252 250//250 357//357
f 357//357 254//254 252//252
f 358//358 253//253 360//360
f 263//263 198//198 254//254
f 259//259 198//198 263//263
f 199//199 256//256 255//255
f 256//256 257//257 255//255
f 257//257 253//253 255//255
f 257//257 256//256 258//258
f 258//258 256//256 260//260
f 257//257 360//360 253//253
f 257//257 258//258 360//360
f 360//360 258//258 361//361
f 254//254 363//363 261//261
f 254//254 261//261 263//263
f 256//256 199//199 260//260
f 260//260 264//264 265//265
f 260//260 265//265 258//258
f 263//263 261//261 266//266
f 259//259 262//262 203//203
f 259//259 263//263 262//262
f 262//262 269//269 203//203
f 263//263 266//266 262//262
f 270//270 267//267 264//264
f 265//265 264//264 267//267
f 262//262 266//266 268//268
f 274//274 266//266 369//369
f 262//262 268//268 269//269
f 273//273 269//269 268//268
f 267//267 270//270 271//271
f 270//270 277//277 271//271
f 277//277 278//278 271//271
f 272//272 267//267 271//271
f 278//278 272//272 271//271
f 371//371 272//272 280//280
f 274//274 284//284 268//268
f 274//274 268//268 266//266
f 274//274 287//287 284//284
f 207//207 275//275 208//208
f 276//276 278//278 275//275
f 208//208 277//277 270//270
f 208//208 275//275 277//277
f 275//275 278//278 277//277
f 279//279 278//278 276//276
f 278//278 279//279 272//272
f 279//279 276//276 290//290
f 272//272 279//279 280//280
f 280//280 292//292 286//286
f 294//294 286//286 292//292
f 292//292 280//280 279//279
f 281//281 280//280 286//286
f 284//284 282//282 273//273
f 285//285 283//283 284//284
f 284//284 283//283 282//282
f 285//285 293//293 283//283
f 268//268 284//284 273//273
f 285//285 294//294 293//293
f 287//287 285//285 284//284
f 287//287 286//286 285//285
f 286//286 294//294 285//285
f 281//281 286//286 287//287
f 276//276 275//275 217//217
f 290//290 276//276 217//217
f 218//218 293//293 291//291
f 218//218 291//291 289//289
f 217//217 288//288 290//290
f 292//292 290//290 288//288
f 289//289 292//292 288//288
f 291//291 292//292 289//289
f 291//291 294//294 292//292
f 293//293 294//294 291//291
f 290//290 292//292 279//279
f 300//300 374//374 295//295
f 376//376 374//374 300//300
f 482//482 483//483 375//375
f 301//301 299//299 298//298
f 299//299 296//296 298//298
f 296//296 297//297 298//298
f 301//301 304//304 302//302
f 301//301 302//302 299//299
f 300//300 295//295 301//301
f 298//298 300//300 301//301
f 301//301 482//482 304//304
f 300//300 298//298 297//297
f 304//304 305//305 302//302
f 297//297 303//303 300//300
f 482//482 375//375 304//304
f 300//300 303//303 376//376
f 381//381 304//304 375//375
f 305//305 304//304 381//381
f 299//299 308//308 296//296
f 302//302 306//306 299//299
f 308//308 299//299 306//306
f 306//306 302//302 305//305
f 306//306 305//305 404//404
f 404//404 305//305 397//397
f 297//297 296//296 307//307
f 307//307 296//296 222//222
f 297//297 307//307 221//221
f 296//296 308//308 222//222
f 308//308 310//310 222//222
f 306//306 404//404 309//309
f 308//308 306//306 309//309
f 308//308 309//309 310//310
f 309//309 311//311 310//310
f 311//311 309//309 407//407
f 392//392 388//388 313//313
f 303//303 297//297 221//221
f 223//223 222//222 310//310
f 310//310 311//311 312//312
f 303//303 313//313 388//388
f 312//312 311//311 407//407
f 417//417 312//312 407//407
f 315//315 314//314 312//312
f 417//417 315//315 312//312
f 423//423 315//315 417//417
f 416//416 392//392 313//313
f 313//313 303//303 227//227
f 314//314 162//162 224//224
f 224//224 312//312 314//314
f 313//313 227//227 316//316
f 416//416 313//313 316//316
f 314//314 315//315 228//228
f 319//319 315//315 423//423
f 316//316 227//227 317//317
f 317//317 318//318 316//316
f 427//427 316//316 318//318
f 416//416 316//316 427//427
f 427//427 318//318 429//429
f 436//436 429//429 318//318
f 423//423 435//435 319//319
f 318//318 317//317 229//229
f 228//228 319//319 230//230
f 321//321 230//230 319//319
f 435//435 321//321 319//319
f 320//320 318//318 229//229
f 436//436 318//318 440//440
f 322//322 230//230 321//321
f 320//320 440//440 318//318
f 322//322 231//231 230//230
f 325//325 440//440 320//320
f 320//320 233//233 325//325
f 322//322 323//323 234//234
f 323//323 451//451 178//178
f 325//325 235//235 326//326
f 326//326 235//235 237//237
f 324//324 325//325 326//326
f 457//457 453//453 324//324
f 451//451 238//238 178//178
f 326//326 237//237 328//328
f 327//327 326//326 328//328
f 327//327 328//328 329//329
f 324//324 326//326 327//327
f 327//327 457//457 324//324
f 456//456 331//331 451//451
f 332//332 329//329 328//328
f 457//457 327//327 330//330
f 329//329 330//330 327//327
f 330//330 329//329 335//335
f 335//335 336//336 330//330
f 330//330 336//336 461//461
f 456//456 338//338 331//331
f 238//238 451//451 331//331
f 333//333 332//332 240//240
f 334//334 240//240 244//244
f 332//332 333//333 329//329
f 333//333 335//335 329//329
f 335//335 333//333 334//334
f 333//333 240//240 334//334
f 335//335 334//334 336//336
f 337//337 336//336 334//334
f 465//465 342//342 338//338
f 244//244 337//337 334//334
f 469//469 337//337 344//344
f 337//337 466//466 336//336
f 470//470 339//339 340//340
f 465//465 340//340 342//342
f 469//469 344//344 347//347
f 347//347 345//345 469//469
f 471//471 469//469 345//345
f 343//343 341//341 349//349
f 338//338 341//341 343//343
f 349//349 341//341 346//346
f 338//338 342//342 341//341
f 346//346 341//341 342//342
f 340//340 346//346 342//342
f 339//339 346//346 340//340
f 350//350 349//349 346//346
f 344//344 249//249 347//347
f 249//249 352//352 347//347
f 353//353 347//347 352//352
f 353//353 348//348 347//347
f 348//348 345//345 347//347
f 348//348 353//353 354//354
f 354//354 359//359 476//476
f 346//346 339//339 476//476
f 350//350 346//346 476//476
f 357//357 349//349 356//356
f 350//350 356//356 349//349
f 351//351 253//253 358//358
f 351//351 358//358 353//353
f 353//353 352//352 351//351
f 249//249 351//351 352//352
f 353//353 358//358 355//355
f 359//359 354//354 353//353
f 353//353 355//355 359//359
f 350//350 476//476 356//356
f 356//356 476//476 365//365
f 363//363 254//254 357//357
f 357//357 356//356 363//363
f 356//356 365//365 363//363
f 360//360 362//362 358//358
f 358//358 362//362 355//355
f 362//362 364//364 355//355
f 355//355 364//364 359//359
f 476//476 359//359 365//365
f 362//362 360//360 361//361
f 361//361 364//364 362//362
f 365//365 369//369 363//363
f 258//258 265//265 361//361
f 361//361 265//265 364//364
f 364//364 367//367 366//366
f 364//364 366//366 359//359
f 365//365 359//359 366//366
f 365//365 368//368 369//369
f 365//365 366//366 368//368
f 363//363 369//369 261//261
f 261//261 369//369 266//266
f 265//265 367//367 364//364
f 265//265 370//370 367//367
f 366//366 367//367 370//370
f 267//267 370//370 265//265
f 272//272 370//370 267//267
f 366//366 373//373 368//368
f 368//368 373//373 369//369
f 369//369 373//373 274//274
f 366//366 372//372 373//373
f 272//272 371//371 370//370
f 370//370 371//371 372//372
f 372//372 281//281 373//373
f 372//372 371//371 281//281
f 373//373 281//281 287//287
f 281//281 371//371 280//280
f 372//372 366//366 370//370
f 287//287 274//274 373//373
f 391//391 393//393 382//382
f 376//376 377//377 374//374
f 483//483 484//484 379//379
f 379//379 375//375 483//483
f 377//377 376//376 396//396
f 377//377 380//380 378//378
f 485//485 379//379 484//484
f 379//379 381//381 375//375
f 389//389 380//380 396//396
f 380//380 377//377 396//396
f 380//380 382//382 378//378
f 391//391 380//380 389//389
f 382//382 380//380 391//391
f 378//378 382//382 384//384
f 384//384 383//383 378//378
f 378//378 383//383 379//379
f 383//383 381//381 379//379
f 382//382 393//393 384//384
f 383//383 385//385 381//381
f 381//381 385//385 406//406
f 393//393 386//386 384//384
f 386//386 387//387 384//384
f 384//384 387//387 383//383
f 387//387 385//385 383//383
f 389//389 396//396 390//390
f 390//390 396//396 388//388
f 390//390 388//388 392//392
f 391//391 389//389 390//390
f 391//391 390//390 392//392
f 394//394 393//393 391//391
f 394//394 391//391 392//392
f 386//386 393//393 399//399
f 399//399 393//393 394//394
f 394//394 392//392 395//395
f 399//399 394//394 395//395
f 402//402 399//399 395//395
f 416//416 402//402 395//395
f 396//396 376//376 303//303
f 396//396 303//303 388//388
f 305//305 381//381 397//397
f 397//397 381//381 406//406
f 387//387 398//398 385//385
f 385//385 398//398 406//406
f 398//398 403//403 406//406
f 400//400 387//387 386//386
f 387//387 400//400 398//398
f 386//386 399//399 401//401
f 386//386 401//401 400//400
f 398//398 400//400 477//477
f 477//477 400//400 401//401
f 398//398 477//477 403//403
f 401//401 399//399 402//402
f 402//402 416//416 418//418
f 406//406 405//405 397//397
f 404//404 397//397 405//405
f 406//406 410//410 405//405
f 406//406 413//413 410//410
f 406//406 403//403 413//413
f 395//395 392//392 416//416
f 309//309 404//404 408//408
f 407//407 309//309 408//408
f 408//408 409//409 407//407
f 409//409 415//415 407//407
f 404//404 405//405 408//408
f 408//408 405//405 410//410
f 410//410 409//409 408//408
f 409//409 412//412 415//415
f 413//413 411//411 410//410
f 410//410 411//411 409//409
f 409//409 411//411 412//412
f 413//413 414//414 411//411
f 411//411 414//414 412//412
f 479//479 421//421 414//414
f 415//415 417//417 407//407
f 424//424 417//417 415//415
f 424//424 415//415 412//412
f 421//421 412//412 414//414
f 412//412 421//421 424//424
f 418//418 419//419 480//480
f 420//420 418//418 416//416
f 417//417 424//424 423//423
f 420//420 416//416 427//427
f 427//427 426//426 420//420
f 418//418 420//420 419//419
f 424//424 425//425 423//423
f 424//424 421//421 425//425
f 419//419 420//420 428//428
f 428//428 420//420 426//426
f 425//425 421//421 422//422
f 422//422 444//444 425//425
f 427//427 430//430 426//426
f 481//481 444//444 422//422
f 429//429 430//430 427//427
f 426//426 430//430 431//431
f 426//426 431//431 428//428
f 419//419 428//428 432//432
f 481//481 434//434 444//444
f 433//433 429//429 436//436
f 433//433 430//430 429//429
f 433//433 431//431 430//430
f 428//428 431//431 432//432
f 419//419 432//432 481//481
f 481//481 432//432 434//434
f 435//435 423//423 425//425
f 442//442 432//432 431//431
f 437//437 436//436 440//440
f 437//437 433//433 436//436
f 431//431 433//433 441//441
f 431//431 441//441 442//442
f 432//432 438//438 434//434
f 444//444 434//434 438//438
f 433//433 437//437 441//441
f 442//442 443//443 432//432
f 432//432 443//443 438//438
f 425//425 444//444 445//445
f 435//435 439//439 321//321
f 439//439 449//449 321//321
f 435//435 425//425 439//439
f 425//425 445//445 439//439
f 446//446 437//437 440//440
f 446//446 441//441 437//437
f 442//442 441//441 447//447
f 442//442 447//447 448//448
f 443//443 442//442 448//448
f 448//448 460//460 443//443
f 443//443 460//460 438//438
f 449//449 322//322 321//321
f 439//439 445//445 449//449
f 445//445 444//444 449//449
f 441//441 446//446 447//447
f 453//453 446//446 440//440
f 446//446 453//453 450//450
f 446//446 450//450 447//447
f 447//447 450//450 448//448
f 460//460 455//455 438//438
f 322//322 451//451 323//323
f 322//322 449//449 451//451
f 452//452 449//449 444//444
f 449//449 452//452 451//451
f 438//438 452//452 444//444
f 451//451 452//452 456//456
f 440//440 325//325 453//453
f 458//458 450//450 453//453
f 450//450 458//458 448//448
f 438//438 455//455 452//452
f 324//324 453//453 325//325
f 448//448 458//458 459//459
f 448//448 459//459 460//460
f 455//455 338//338 454//454
f 454//454 338//338 456//456
f 456//456 452//452 454//454
f 452//452 455//455 454//454
f 453//453 457//457 458//458
f 457//457 461//461 458//458
f 462//462 458//458 461//461
f 462//462 459//459 458//458
f 459//459 464//464 460//460
f 460//460 464//464 468//468
f 460//460 468//468 470//470
f 470//470 465//465 460//460
f 455//455 465//465 338//338
f 460//460 465//465 455//455
f 461//461 457//457 330//330
f 466//466 462//462 461//461
f 336//336 466//466 461//461
f 462//462 466//466 463//463
f 459//459 462//462 463//463
f 464//464 459//459 463//463
f 464//464 471//471 468//468
f 469//469 471//471 467//467
f 466//466 467//467 463//463
f 463//463 467//467 464//464
f 469//469 467//467 466//466
f 464//464 467//467 471//471
f 470//470 340//340 465//465
f 469//469 466//466 337//337
f 468//468 471//471 470//470
f 471//471 345//345 472//472
f 470//470 471//471 339//339
f 339//339 471//471 473//473
f 472//472 345//345 475//475
f 471//471 472//472 473//473
f 472//472 475//475 473//473
f 339//339 473//473 475//475
f 475//475 345//345 474//474
f 345//345 348//348 474//474
f 348//348 354//354 474//474
f 474//474 354//354 476//476
f 475//475 476//476 339//339
f 474//474 476//476 475//475
f 401//401 402//402 478//478
f 477//477 401//401 478//478
f 418//418 478//478 402//402
f 403//403 477//477 479//479
f 479//479 477//477 478//478
f 478//478 418//418 480//480
f 478//478 480//480 481//481
f 478//478 481//481 479//479
f 403//403 479//479 413//413
f 413//413 479//479 414//414
f 421//421 479//479 422//422
f 479//479 481//481 422//422
f 480//480 419//419 481//481
