# Wavafront OBJ file of BodyParts3D
# BodyParts3D, Copyright(C) 2010-2011 The Database Center for Life Science licensed under CC Attribution-Share Alike 2.1 Japan.
vn -0.926245 0.347929 -0.144966
v -26.9773 -162.078 1470.53
vn -0.978784 0.200493 -0.0422328
v -27.1537 -162.637 1470.93
vn -0.965543 0.147974 -0.214082
v -27.0597 -162.491 1470.43
vn -0.974317 -0.0570466 -0.217834
v -27.0952 -164.1 1470.17
vn -0.948182 0.0454421 -0.314461
v -26.9658 -163.724 1469.67
vn -0.985617 0.0469067 -0.162356
v -27.2174 -163.419 1470.87
vn -0.946121 -0.261068 -0.191568
v -27.1091 -164.659 1470.58
vn -0.996714 0.0622512 -0.0518335
v -27.331 -163.754 1471.74
vn -0.989729 -0.091423 -0.109902
v -27.3053 -164.211 1471.5
vn -0.953121 0.222212 0.205385
v -27.2315 -163.499 1473.27
vn -0.992641 0.0967143 0.0728775
v -27.3197 -163.77 1472.89
vn -0.99598 -0.0895547 0.0019989
v -27.3555 -164.177 1472.33
vn -0.935648 -0.351647 -0.0301183
v -27.1699 -164.953 1471.82
vn -0.983263 0.0271482 0.180158
v -27.2312 -164.011 1473.58
vn -0.97718 -0.188191 0.0985106
v -27.2828 -164.461 1472.88
vn -0.343081 0.830514 -0.438795
v -26.1925 -161.412 1469.72
vn -0.654674 0.61061 -0.445599
v -26.5004 -161.729 1469.63
vn -0.459203 0.587139 -0.666634
v -26.2889 -161.869 1469.24
vn -0.31261 0.726596 -0.611828
v -26.1885 -161.62 1469.43
vn -0.59058 0.391639 -0.705574
v -26.284 -162.379 1468.88
vn -0.582768 0.268705 -0.766928
v -26.2806 -162.942 1468.62
vn -0.580541 0.140982 -0.801933
v -26.1744 -163.514 1468.38
vn -0.822934 0.54268 -0.16816
v -26.7768 -161.753 1470.35
vn -0.697132 0.659093 -0.28214
v -26.5335 -161.564 1469.99
vn -0.524449 0.81216 -0.255636
v -26.303 -161.262 1470.26
vn -0.845581 0.446205 -0.293077
v -26.7565 -161.885 1469.93
vn -0.919448 0.199125 -0.339063
v -26.8105 -162.345 1469.7
vn -0.785539 0.373719 -0.493216
v -26.6397 -162.018 1469.52
vn -0.820079 0.143443 -0.553981
v -26.5658 -163.389 1468.81
vn -0.869615 -0.0486393 -0.491329
v -26.6427 -164.128 1468.89
vn -0.840626 -0.257496 -0.476492
v -26.6383 -164.544 1469.02
vn -0.785769 -0.180121 -0.591712
v -26.4593 -164.355 1468.66
vn -0.673625 -0.0412901 -0.737919
v -26.3 -164.121 1468.43
vn -0.680067 -0.326183 -0.656592
v -26.2466 -164.629 1468.52
vn -0.825196 0.561696 -0.0595785
v -26.6702 -161.353 1471.37
vn -0.688109 0.707225 -0.162291
v -26.526 -161.255 1470.96
vn -0.684603 0.728346 -0.0288327
v -26.5258 -161.176 1471.46
vn -0.931229 -0.138139 -0.337239
v -26.8262 -164.364 1469.34
vn -0.867768 -0.371014 -0.330646
v -26.7718 -164.781 1469.48
vn -0.763246 -0.454482 -0.459241
v -26.5134 -164.913 1469.06
vn -0.698968 -0.627621 -0.342834
v -26.2931 -165.471 1469.47
vn -0.630209 -0.569278 -0.527976
v -26.1823 -165.208 1468.91
vn -0.737119 0.663425 0.12854
v -26.4376 -161.14 1472.53
vn -0.912008 0.409993 0.0121357
v -26.8118 -161.587 1471.59
vn -0.836681 0.541322 0.0832797
v -26.6428 -161.366 1472.29
vn -0.832062 -0.499125 -0.241967
v -26.817 -165.111 1470.12
vn -0.736237 -0.641871 -0.214378
v -26.525 -165.577 1470.34
vn -0.691475 0.681862 0.238594
v -26.2399 -161.107 1473.13
vn -0.93539 0.332053 0.121598
v -26.9525 -162.066 1472.5
vn -0.839106 0.50157 0.210542
v -26.6473 -161.527 1472.79
vn -0.844277 -0.518238 -0.136473
v -26.9336 -165.258 1471.08
vn -0.852093 0.429883 0.29856
v -26.5541 -161.747 1473.49
vn -0.807618 -0.589547 -0.0136981
v -26.6797 -165.786 1472.09
vn -0.707518 -0.695103 -0.127477
v -26.5536 -165.871 1471.58
vn -0.635467 -0.77169 -0.026012
v -26.2331 -166.263 1472.54
vn -0.948242 -0.11993 0.29403
v -26.6386 -165.019 1476.43
vn -0.911879 0.235968 0.33585
v -26.5836 -164.606 1476.53
vn -0.886256 -0.421722 0.191575
v -26.4842 -165.707 1476.19
vn -0.739541 -0.661737 0.123216
v -26.2808 -166.029 1476.15
vn 0.0836185 0.763362 -0.640536
v -25.8828 -161.395 1469.67
vn 0.0748651 0.688803 -0.721073
v -25.8758 -161.827 1469.16
vn -0.159043 0.56582 -0.809044
v -25.9742 -162.232 1468.82
vn -0.233039 0.406035 -0.883645
v -25.97 -162.769 1468.51
vn 0.283377 0.573302 -0.76878
v -25.6624 -162.587 1468.62
vn 0.0682292 0.440524 -0.895144
v -25.6602 -162.851 1468.45
vn -0.333641 0.228879 -0.914494
v -25.967 -163.463 1468.29
vn -0.013535 0.297286 -0.954692
v -25.6572 -163.433 1468.23
vn -0.398802 0.0690426 -0.914434
v -25.9664 -163.785 1468.24
vn -0.378741 -0.117604 -0.918001
v -25.8629 -164.456 1468.19
vn -0.114353 0.133868 -0.984379
v -25.6563 -163.743 1468.16
vn 0.0219896 0.0374374 -0.999057
v -25.3465 -164.401 1468.09
vn -0.321214 0.909922 -0.262418
v -25.8946 -160.993 1470.52
vn -0.47747 -0.453811 -0.752382
v -25.8654 -164.943 1468.36
vn -0.371778 -0.616027 -0.694473
v -25.5574 -165.271 1468.43
vn -0.138812 -0.233151 -0.962482
v -25.3784 -164.761 1468.11
vn -0.224108 -0.510638 -0.830075
v -25.349 -165.16 1468.26
vn -0.225955 -0.684874 -0.692742
v -25.3532 -165.487 1468.55
vn -0.452209 0.881897 -0.133285
v -26.1108 -160.916 1471.26
vn -0.575699 -0.675017 -0.461435
v -25.9788 -165.538 1469.09
vn -0.463775 -0.672399 -0.576882
v -25.6651 -165.523 1468.76
vn -0.546725 0.835661 0.0525592
v -26.1273 -160.863 1472.44
vn -0.473496 0.870034 0.137265
v -25.7214 -160.683 1472.89
vn -0.519689 -0.747428 -0.413853
v -25.5739 -166.155 1469.59
vn -0.604875 -0.76477 -0.221931
v -25.8507 -166.173 1470.16
vn -0.544064 -0.832408 -0.105315
v -25.909 -166.382 1471.46
vn -0.70802 0.617924 0.341874
v -25.6835 -161.264 1474.79
vn -0.591362 -0.805512 0.0379619
v -25.8446 -166.542 1474.23
vn -0.385555 -0.92263 -0.0100105
v -25.5315 -166.732 1473.94
vn -0.917593 0.280342 0.281836
v -26.0241 -163.83 1477.06
vn -0.608771 -0.777339 0.158562
v -25.8812 -166.354 1476.33
vn -0.443361 -0.890927 0.0983822
v -25.6737 -166.533 1476.01
vn -0.971803 0.208695 0.109748
v -25.784 -163.661 1478.08
vn -0.977461 0.0546056 0.20393
v -25.7879 -164.264 1478.34
vn -0.925861 0.0579795 0.37339
v -26.0914 -164.806 1477.59
vn -0.898257 -0.284803 0.334695
v -25.9952 -165.422 1477.67
vn -0.900102 0.423902 -0.100618
v -25.5046 -162.773 1479.47
vn -0.994921 0.100168 0.00996706
v -25.6629 -163.267 1479.56
vn -0.947554 -0.156701 0.278544
v -25.8153 -165.185 1478.33
vn -0.82414 0.560426 -0.0819474
v -25.4497 -162.231 1481.14
vn -0.97938 -0.141284 0.144411
v -25.5275 -164.7 1479.86
vn -0.928221 -0.316068 0.19623
v -25.5028 -165.351 1479.29
vn -0.96357 0.261868 -0.054384
v -25.6876 -162.739 1481.22
vn -0.7656 0.643171 0.0136975
v -25.4632 -162.169 1483.26
vn -0.983092 -0.18278 -0.0110566
v -25.5943 -164.364 1482.12
vn -0.935064 0.354458 -0.00379188
v -25.6792 -162.582 1483.16
vn -0.999668 0.0252714 0.00510755
v -25.7901 -163.198 1485.16
vn -0.832523 0.551764 0.0496228
v -25.5915 -162.476 1485.42
vn -0.960398 -0.275786 0.0397146
v -25.6193 -164.038 1485.08
vn -0.970685 0.233567 0.0567208
v -25.7225 -162.862 1486.61
vn -0.97129 -0.226019 0.074233
v -25.6671 -163.434 1487.94
vn -0.968716 0.170357 0.180468
v -25.6446 -163.207 1488.17
vn -0.808916 0.5685 0.149876
v -25.5589 -162.787 1487.81
vn -0.964792 -0.164386 0.205313
v -25.5908 -163.532 1488.35
vn 0.484117 0.582167 -0.653232
v -24.9427 -162.98 1468.71
vn 0.462914 0.578246 -0.67182
v -24.949 -162.515 1469.17
vn 0.261219 0.406833 -0.875358
v -25.2473 -163.164 1468.39
vn 0.464825 0.433681 -0.771918
v -24.9399 -163.219 1468.5
vn 0.236357 0.227042 -0.944768
v -25.2448 -163.76 1468.2
vn 0.308995 0.105459 -0.945199
v -25.0382 -164.427 1468.14
vn 0.457902 0.214165 -0.86282
v -24.7323 -163.851 1468.38
vn -0.23065 0.922798 -0.308616
v -24.5645 -160.43 1471.18
vn -0.0779663 0.817777 -0.57023
v -24.8649 -160.804 1470.56
vn 0.186111 0.602982 -0.775742
v -24.8608 -161.112 1470.26
vn 0.413407 0.546295 -0.728462
v -24.9565 -161.763 1469.72
vn 0.192818 -0.103374 -0.975774
v -25.0381 -164.768 1468.13
vn 0.064003 -0.47249 -0.879009
v -25.0398 -165.189 1468.24
vn 0.439762 -0.0444489 -0.897014
v -24.6283 -164.848 1468.29
vn -0.242902 0.964801 -0.100784
v -24.6779 -160.327 1471.93
vn -0.348119 -0.749231 -0.563442
v -25.1557 -166.115 1469.16
vn -0.311833 0.949729 0.0278428
v -25.3028 -160.484 1472.42
vn -0.416959 -0.862822 -0.285805
v -25.2691 -166.481 1469.89
vn -0.338751 -0.82591 -0.45069
v -25.1619 -166.391 1469.59
vn -0.181826 -0.903784 -0.387445
v -24.7532 -166.625 1469.82
vn -0.145687 -0.77421 -0.615934
v -24.6411 -166.304 1469.18
vn -0.4134 -0.902399 -0.121557
v -25.2794 -166.624 1470.63
vn -0.198888 -0.957048 -0.210955
v -24.7588 -166.749 1470.22
vn -0.56238 0.786398 0.255552
v -25.3314 -160.782 1474.47
vn -0.351875 0.916234 0.191569
v -25.1247 -160.659 1474.42
vn -0.178948 -0.981292 -0.0710192
v -24.5631 -166.888 1470.97
vn -0.475354 0.810407 0.342459
v -25.0317 -160.841 1475.14
vn -0.661809 0.677266 0.321434
v -25.0532 -161.701 1476.66
vn -0.0782083 -0.996924 -0.00510796
v -24.703 -166.929 1473.61
vn -0.846267 0.483035 0.224741
v -25.3607 -162.263 1476.95
vn -0.606125 0.788708 0.102726
v -24.7731 -162.022 1478.73
vn -0.211175 -0.976787 0.0359568
v -24.7357 -166.882 1475.96
vn -0.833134 0.553065 0.00258029
v -25.3913 -162.632 1478.73
vn -0.712745 0.692169 -0.113567
v -25.3027 -162.422 1479.77
vn -0.593339 0.790264 -0.153073
v -25.2155 -162.007 1480.91
vn -0.74452 -0.621765 0.243103
v -25.2887 -166.067 1478.7
vn -0.861091 -0.467152 0.200726
v -25.2717 -165.845 1479.39
vn -0.593928 0.80375 -0.0351654
v -25.1233 -161.849 1481.69
vn -0.901391 -0.425812 0.0786021
v -25.263 -165.716 1480.03
vn -0.72948 -0.677812 0.0918158
v -24.9917 -166.164 1479.56
vn -0.471648 0.879847 0.0584556
v -25.0415 -161.829 1483.21
vn -0.952781 -0.302043 0.0312678
v -25.3369 -165.505 1481.42
vn -0.794072 -0.604794 0.0606201
v -25.0225 -166.035 1481.77
vn -0.39166 0.909917 0.13658
v -25.2942 -162.319 1486.55
vn -0.875231 -0.473643 0.0981463
v -25.0977 -165.457 1484.46
vn -0.715839 -0.685391 0.133463
v -24.7826 -165.874 1484.6
vn -0.824683 -0.556095 0.10323
v -24.9354 -165.209 1486.45
vn -0.860298 0.471757 0.193216
v -25.2673 -162.851 1489.06
vn -0.553601 0.82406 0.120212
v -25.1228 -162.69 1489.03
vn -0.902941 -0.412398 0.120939
v -25.3775 -164.132 1488.39
vn -0.789342 -0.585858 0.183602
v -24.906 -164.964 1488.22
vn -0.973187 0.0656843 0.220437
v -25.1865 -163.139 1489.84
vn -0.843042 0.489066 0.223816
v -24.8678 -162.929 1491.23
vn -0.96263 0.181616 0.200897
v -24.9462 -163.105 1491.14
vn -0.893987 -0.376906 0.242341
v -25.1019 -163.969 1489.87
vn -0.961145 -0.138354 0.238869
v -24.8888 -163.392 1491.45
vn -0.91515 0.274127 0.295557
v -24.8484 -163.064 1491.51
vn -0.931908 0.0145348 0.362404
v -24.817 -163.304 1491.73
vn -0.166037 0.873108 -0.458382
v -24.2524 -160.412 1470.96
vn -0.0120584 0.55064 -0.834656
v -24.1444 -160.704 1470.6
vn 0.274851 0.381762 -0.882448
v -24.3452 -161.434 1470.21
vn 0.145751 0.140858 -0.979242
v -23.7291 -161.386 1470.35
vn 0.614804 0.467772 -0.634984
v -24.0337 -162.26 1470.02
vn 0.490459 0.206059 -0.846752
v -23.9335 -162.017 1470.23
vn 0.506106 0.543894 -0.669354
v -24.3313 -162.99 1469.19
vn 0.616498 0.43594 -0.655657
v -23.7166 -163.34 1469.42
vn 0.714378 0.237017 -0.658397
v -23.7133 -163.906 1469.17
vn 0.616153 0.207582 -0.75978
v -24.1358 -164.033 1468.74
vn 0.563178 0.0675997 -0.823566
v -24.132 -164.999 1468.59
vn -0.177381 0.970025 -0.166094
v -24.1551 -160.287 1471.38
vn 0.521826 0.0747894 -0.849767
v -23.7094 -165.487 1468.86
vn 0.074752 -0.703142 -0.70711
v -23.9189 -166.261 1469.1
vn 0.0119234 -0.949153 -0.314588
v -24.1348 -166.672 1469.8
vn 0.0350554 -0.863646 -0.502878
v -24.0253 -166.46 1469.34
vn 0.0642474 -0.987088 -0.146731
v -24.2495 -166.867 1470.63
vn 0.07191 -0.995916 -0.0545826
v -24.1621 -166.941 1471.76
vn -0.312064 0.890624 0.330765
v -24.3219 -160.878 1475.94
vn 0.0254715 -0.996769 -0.0761692
v -23.9031 -166.964 1475.35
vn -0.41894 0.900757 -0.114574
v -24.2728 -161.724 1479.8
vn -0.172552 0.981058 -0.0880373
v -23.8669 -161.549 1480.24
vn -0.302501 0.951365 -0.058291
v -24.395 -161.546 1481.18
vn -0.520021 -0.849819 0.0859351
v -24.5718 -166.563 1478.99
vn -0.275296 -0.960149 0.0482307
v -23.9503 -166.851 1478.88
vn -0.0302579 0.991266 0.12836
v -24.3187 -161.629 1483.09
vn -0.43999 -0.897692 0.0236404
v -24.078 -166.844 1480.51
vn -0.587013 -0.806822 0.0667412
v -24.414 -166.569 1481.69
vn -0.404818 -0.901588 0.152516
v -23.91 -166.729 1483.24
vn 0.0635108 0.981519 0.180521
v -24.2611 -162.08 1486.34
vn -0.498615 -0.84891 0.175313
v -24.3415 -166.242 1484.64
vn 0.161114 0.973521 0.162172
v -24.2727 -162.271 1487.17
vn -0.243069 -0.949101 0.20031
v -24.0516 -166.026 1486.02
vn 0.337209 0.938278 0.0769688
v -23.9848 -162.494 1488.68
vn -0.620543 -0.769254 0.152234
v -24.4661 -165.772 1486.2
vn -0.319471 0.946141 0.0524935
v -24.7186 -162.501 1489.6
vn -0.00906007 0.998376 0.0562447
v -24.5129 -162.467 1489.62
vn -0.129261 0.990058 0.0554744
v -24.5032 -162.464 1488.92
vn -0.705319 -0.695885 0.135166
v -24.6942 -165.314 1487.79
vn -0.527968 -0.836995 0.143837
v -24.379 -165.668 1487.34
vn -0.263613 -0.944521 0.195927
v -24.1746 -165.743 1487.46
vn -0.670059 -0.704049 0.235235
v -24.599 -165.265 1488.35
vn -0.520879 -0.825049 0.219043
v -24.3904 -165.491 1488.17
vn -0.113343 -0.952791 0.281679
v -24.0913 -165.418 1488.88
vn 0.187427 0.952703 0.239224
v -24.3298 -162.665 1491.26
vn -0.589032 0.78698 0.183585
v -24.7368 -162.673 1490.9
vn -0.141778 0.975916 0.165794
v -24.5329 -162.614 1491.05
vn 0.308854 0.942369 0.128648
v -24.2191 -162.598 1490.71
vn -0.696606 -0.655315 0.292066
v -24.4219 -164.605 1490.44
vn -0.419619 -0.84459 0.332547
v -24.21 -164.964 1490.02
vn -0.705893 0.612904 0.355056
v -24.6454 -162.872 1491.73
vn -0.284498 0.894791 0.344109
v -24.5428 -162.814 1491.76
vn -0.465333 0.697558 0.544865
v -24.5453 -162.921 1491.93
vn -0.379034 0.574284 0.725624
v -24.4449 -163.042 1492.13
vn 0.16531 0.899168 0.405179
v -24.3382 -162.846 1491.86
vn 0.0670533 0.80925 0.583624
v -24.3407 -162.947 1492.04
vn 0.346127 0.685624 0.640403
v -24.2387 -163.034 1492.11
vn 0.474633 0.751366 0.458446
v -24.1343 -163.017 1492.01
vn -0.829716 0.240653 0.503644
v -24.7069 -163.169 1491.92
vn -0.769865 -0.551437 0.321286
v -24.6886 -163.718 1491.64
vn -0.795938 -0.315124 0.516894
v -24.7272 -163.491 1491.87
vn -0.673271 0.337327 0.657964
v -24.5849 -163.125 1492.06
vn 0.600407 0.481649 0.638377
v -24.032 -163.15 1492.05
vn -0.494047 -0.773873 0.396281
v -24.2295 -164.301 1491.42
vn -0.0171532 0.517875 0.855284
v -24.3429 -163.094 1492.19
vn 0.352037 0.444154 0.823891
v -24.2398 -163.116 1492.19
vn -0.718409 0.00712684 0.695584
v -24.5759 -163.264 1492.1
vn -0.44026 0.179459 0.879753
v -24.446 -163.196 1492.2
vn -0.475696 -0.203175 0.855823
v -24.4459 -163.422 1492.19
vn -0.401873 -0.485263 0.776543
v -24.3425 -163.635 1492.15
vn 0.0416067 0.0651228 0.997009
v -24.2407 -163.337 1492.25
vn -0.121246 -0.249068 0.960866
v -24.2404 -163.553 1492.22
vn 0.453869 0.202108 0.867845
v -24.124 -163.311 1492.2
vn 0.236353 -0.0765973 0.968644
v -24.1373 -163.502 1492.22
vn 0.0164306 -0.352127 0.935808
v -24.137 -163.653 1492.19
vn 0.419298 0.0279837 0.907417
v -24.0338 -163.531 1492.18
vn 0.30507 -0.151497 0.940203
v -24.0337 -163.644 1492.17
vn -0.14005 -0.608946 0.78075
v -24.0321 -163.928 1492.05
vn -0.525241 -0.655198 0.542989
v -24.3386 -163.952 1491.87
vn -0.208862 -0.814093 0.541876
v -24.0276 -164.222 1491.72
vn -0.0362723 0.95172 -0.304816
v -23.4296 -160.244 1471.06
vn 0.0881087 0.797237 -0.597201
v -23.3238 -160.369 1470.86
vn -0.0747392 0.198036 -0.977341
v -23.3692 -161.063 1470.41
vn -0.0444139 -0.0434227 -0.998069
v -23.1112 -161.275 1470.37
vn 0.226699 -0.0616072 -0.972014
v -23.4226 -162.169 1470.52
vn 0.467074 0.275658 -0.840152
v -23.4227 -162.515 1470.52
vn 0.628957 0.477439 -0.613568
v -23.42 -162.786 1470.32
vn -0.208318 -0.091732 -0.97375
v -23.1139 -162.179 1470.55
vn -0.196643 0.142709 -0.970034
v -23.1141 -162.528 1470.55
vn 0.251576 0.461547 -0.850696
v -23.1114 -163.12 1470.35
vn 0.541844 0.427488 -0.723643
v -23.109 -163.374 1470.17
vn 0.584074 0.286673 -0.759392
v -23.2153 -164.46 1469.58
vn 0.288534 0.39723 -0.871181
v -23.0999 -164.763 1469.49
vn 0.345757 0.109632 -0.931898
v -23.4272 -165.558 1469
vn 0.346716 -0.187349 -0.919069
v -22.8901 -165.772 1469.2
vn 0.32242 -0.440522 -0.837846
v -23.6092 -166.13 1469.05
vn -0.161414 0.985682 0.0487509
v -23.1479 -160.053 1473.02
vn 0.228642 -0.772631 -0.592254
v -23.6125 -166.351 1469.29
vn 0.170773 -0.934967 -0.310924
v -23.1044 -166.523 1469.79
vn 0.135856 -0.981554 -0.134516
v -23.2209 -166.675 1470.75
vn -0.169397 0.974418 0.1477
v -23.6884 -160.324 1474.84
vn -0.240346 0.919584 0.310803
v -23.6971 -160.466 1475.47
vn -0.0392284 0.964313 0.261844
v -23.3856 -160.367 1475.29
vn -0.192356 0.978967 0.0679846
v -23.5369 -161.546 1478.74
vn -0.0493868 -0.998751 -0.00760526
v -23.2973 -167.071 1476.23
vn -0.0263713 -0.99937 -0.0237422
v -23.1113 -166.997 1477.66
vn -0.0315742 0.999486 0.00548592
v -23.2615 -161.374 1481.15
vn 0.143325 0.964272 0.222795
v -23.1722 -161.494 1482.13
vn 0.275286 0.892022 0.358489
v -23.1846 -161.802 1483.02
vn -0.284303 -0.958707 -0.00729429
v -23.5612 -167.041 1480.38
vn 0.327094 0.914885 0.236632
v -23.812 -161.841 1483.69
vn 0.55151 0.803402 0.224459
v -23.3045 -162.169 1484.22
vn 0.465114 0.805343 0.367549
v -23.0936 -162.177 1483.87
vn 0.795908 0.561633 0.226053
v -23.0796 -162.464 1484.53
vn -0.111093 -0.991982 0.0602521
v -23.2819 -167.031 1482.51
vn 0.374891 0.910625 0.173836
v -23.8453 -162.168 1486.07
vn 0.601874 0.780829 0.167491
v -23.4288 -162.35 1485.75
vn -0.36132 -0.928895 0.0812576
v -23.5952 -166.915 1482.82
vn -0.211445 -0.960217 0.18241
v -23.3937 -166.93 1483.14
vn 0.18848 -0.902694 0.386805
v -23.1087 -166.355 1484.88
vn -0.114274 -0.952383 0.28268
v -23.6168 -166.564 1484.37
vn 0.553782 0.82233 0.13076
v -23.7578 -162.491 1487.18
vn 0.274495 -0.912429 0.303522
v -23.3294 -166.016 1485.94
vn 0.69275 0.718273 0.064659
v -23.4644 -162.79 1488.29
vn 0.0757213 -0.972994 0.218055
v -23.7591 -165.825 1487.21
vn 0.620034 0.775345 0.119992
v -23.6925 -162.8 1489.88
vn 0.834685 0.532742 0.139599
v -23.1438 -163.464 1490.05
vn 0.369525 -0.890233 0.266338
v -23.5757 -165.335 1488.84
vn 0.0967232 -0.933217 0.346049
v -23.7991 -165.002 1490.1
vn 0.592771 0.767461 0.244185
v -23.9208 -162.923 1491.48
vn 0.68724 0.59838 0.411877
v -23.9261 -163.095 1491.85
vn 0.741776 0.336411 0.580169
v -23.6892 -163.491 1491.88
vn 0.795602 0.5165 0.316615
v -23.4559 -163.484 1491.43
vn 0.821697 0.277197 0.497972
v -23.4414 -163.718 1491.65
vn 0.143716 -0.868506 0.474387
v -23.8188 -164.349 1491.52
vn 0.537701 -0.728322 0.424764
v -23.5084 -164.297 1491.43
vn 0.90962 0.288495 0.298936
v -23.3272 -163.715 1491.42
vn 0.866143 -0.0583761 0.496376
v -23.3565 -163.901 1491.56
vn 0.960865 -0.0286518 0.275532
v -23.2464 -163.989 1491.28
vn 0.842253 -0.393729 0.368223
v -23.2986 -164.128 1491.33
vn -0.0669217 -0.909099 0.41117
v -23.9074 -164.846 1490.48
vn 0.443323 -0.826614 0.346662
v -23.4965 -164.708 1490.56
vn 0.789032 -0.550851 0.272015
v -23.242 -164.396 1490.72
vn 0.597982 0.187831 0.77919
v -23.9299 -163.484 1492.11
vn 0.491521 -0.0377378 0.870048
v -23.9301 -163.62 1492.13
vn 0.304676 -0.325051 0.895273
v -23.9296 -163.833 1492.09
vn 0.62053 0.00101289 0.784182
v -23.7221 -163.744 1491.98
vn 0.742998 -0.0166866 0.669085
v -23.5615 -163.813 1491.83
vn 0.157652 -0.68725 0.709107
v -23.8242 -164.087 1491.91
vn 0.524182 -0.369722 0.767163
v -23.7215 -163.984 1491.94
vn 0.404967 -0.705368 0.581771
v -23.615 -164.199 1491.68
vn 0.690414 -0.425355 0.585152
v -23.512 -164.099 1491.69
vn -0.141799 0.49023 -0.859981
v -22.5957 -161.022 1470.34
vn 0.0855754 0.866441 -0.49189
v -22.4977 -160.737 1470.7
vn -0.415643 0.0564938 -0.907772
v -22.8016 -161.366 1470.33
vn -0.582976 0.0763788 -0.808891
v -22.1767 -161.912 1469.82
vn 0.203379 0.921953 -0.329604
v -22.4122 -160.073 1471.98
vn 0.185987 0.975187 -0.120078
v -22.2114 -160.034 1472.35
vn -0.583335 0.0112455 -0.812154
v -22.8026 -162.323 1470.38
vn -0.172704 0.302245 -0.937455
v -22.8004 -163.388 1470.2
vn -0.530509 0.0827893 -0.843627
v -22.4892 -163.421 1470.04
vn 0.122527 0.390672 -0.912339
v -22.7981 -163.996 1470.03
vn -0.37674 0.214242 -0.901203
v -22.4884 -163.966 1469.98
vn 0.208117 0.2683 -0.940586
v -22.4809 -165.186 1469.42
vn -0.0413812 0.219671 -0.974696
v -22.1733 -164.89 1469.52
vn -0.0235753 0.998882 -0.040986
v -22.6268 -159.987 1472.59
vn 0.0796947 0.979658 0.184171
v -22.2142 -160.1 1473.94
vn -0.0286248 0.995176 0.0938394
v -22.638 -160.023 1473.39
vn 0.170342 0.939411 0.297474
v -22.3496 -160.313 1474.87
vn 0.164053 -0.986275 -0.018666
v -22.2036 -166.724 1471.67
vn 0.162977 -0.986614 -0.00553144
v -22.3229 -166.709 1472.83
vn 0.0121457 0.944235 0.329047
v -22.7948 -161.117 1477.23
vn 0.149572 -0.980611 -0.126608
v -22.3533 -166.743 1475.02
vn -0.017067 0.999588 -0.0230586
v -22.2065 -161.505 1479.36
vn 0.0993945 -0.992331 -0.0734882
v -22.6796 -167.042 1476.25
vn 0.197886 0.904808 0.377045
v -22.8671 -161.637 1482.41
vn -0.0564636 -0.998328 -0.0123815
v -22.9351 -167.123 1479.8
vn 0.244285 0.886772 0.392379
v -22.6738 -162.139 1483.32
vn 0.138383 0.907399 0.396835
v -22.2537 -161.915 1482.74
vn 0.634079 0.681959 0.364521
v -22.994 -162.379 1484.12
vn 0.353627 0.822023 0.446347
v -22.7916 -162.268 1483.71
vn 0.460176 0.692885 0.555112
v -22.844 -162.363 1483.89
vn 0.15306 0.863628 0.480333
v -22.5748 -162.27 1483.6
vn 0.0341833 0.640428 0.767257
v -22.4741 -162.399 1483.76
vn 0.660431 0.510307 0.550834
v -22.7879 -162.626 1484.11
vn 0.768932 0.33595 0.54395
v -22.5859 -163.307 1484.38
vn 0.206166 0.45643 0.865544
v -22.4786 -162.919 1484.07
vn 0.719733 0.158941 0.675813
v -22.3913 -163.612 1484.3
vn 0.366965 0.335426 0.867656
v -22.3779 -163.348 1484.24
vn -0.148655 0.207114 0.966957
v -22.2753 -163.458 1484.26
vn -0.0999104 0.0315226 0.994497
v -22.2756 -163.72 1484.28
vn 0.920138 0.337556 0.198498
v -22.6792 -163.341 1484.67
vn 0.940096 0.194612 0.279903
v -22.5557 -163.754 1484.57
vn 0.838076 0.0106468 0.54545
v -22.4025 -164.489 1484.42
vn 0.978738 0.0651797 0.194483
v -22.4604 -164.493 1484.65
vn -0.0400782 -0.0233809 0.998923
v -22.2759 -164.421 1484.29
vn 0.739101 0.0603687 0.670884
v -22.2931 -165.407 1484.18
vn 0.922917 0.0892801 0.374503
v -22.3298 -165.455 1484.27
vn 0.345383 -0.153666 0.925796
v -22.2756 -164.752 1484.26
vn 0.563085 -0.138277 0.814748
v -22.2752 -164.968 1484.23
vn 0.75565 0.252195 0.604476
v -22.2752 -165.564 1484.22
vn -0.0189084 -0.960205 0.278655
v -22.4709 -166.804 1483.45
vn 0.0242871 -0.914203 0.404528
v -22.372 -166.693 1483.75
vn 0.0173996 -0.970967 0.238581
v -22.9794 -166.996 1482.98
vn 0.933987 0.344206 0.095871
v -22.7017 -163.595 1486.27
vn 0.603499 -0.630329 0.488339
v -22.6944 -166.27 1484.72
vn 0.953557 0.0639513 0.294346
v -22.4731 -165.922 1484.72
vn 0.723393 -0.309755 0.617053
v -22.3588 -165.918 1484.49
vn 0.433693 -0.612014 0.661323
v -22.38 -166.299 1484.33
vn 0.541345 -0.242336 0.80512
v -22.2775 -166.085 1484.37
vn 0.132748 -0.923145 0.360806
v -22.8921 -166.655 1484.12
vn 0.324609 -0.81841 0.474167
v -22.7922 -166.536 1484.34
vn 0.110618 -0.802025 0.586958
v -22.2733 -166.508 1484.07
vn 0.981551 0.154698 0.112366
v -22.6853 -163.879 1486.82
vn 0.750771 -0.595796 0.285256
v -22.8112 -165.743 1485.72
vn 0.85265 0.511669 0.10575
v -23.0441 -163.319 1487.69
vn 0.956768 0.274265 0.096815
v -22.8874 -163.756 1487.93
vn 0.970608 -0.17066 0.169694
v -22.6866 -164.844 1486.67
vn 0.993024 0.0610992 0.100851
v -22.834 -164.268 1488.24
vn 0.970059 0.211853 0.118758
v -22.9822 -163.783 1489.77
vn 0.971173 -0.172286 0.164743
v -23.0086 -164.155 1490.04
vn -0.0993227 0.665701 -0.739579
v -21.247 -161.352 1469.65
vn 0.0841117 0.840882 -0.534642
v -21.2507 -161.143 1469.92
vn -0.394297 0.27329 -0.877406
v -21.5617 -161.741 1469.5
vn -0.155475 0.378923 -0.912275
v -21.2439 -161.696 1469.42
vn -0.0848719 0.817145 -0.57015
v -21.8729 -160.953 1470.21
vn 0.0599048 0.917921 -0.392215
v -21.5669 -160.834 1470.44
vn 0.186847 0.944075 -0.271682
v -21.4698 -160.705 1470.86
vn -0.54902 0.0179255 -0.835617
v -21.8744 -162.801 1469.53
vn -0.391296 0.0763707 -0.917091
v -21.5524 -162.6 1469.37
vn 0.346964 0.91774 -0.193311
v -21.6963 -160.197 1472.34
vn 0.140401 0.927526 -0.346387
v -21.889 -160.514 1471.38
vn 0.299381 0.915705 -0.26806
v -21.4805 -160.524 1471.63
vn -0.518757 0.0340252 -0.854244
v -21.7735 -163.861 1469.56
vn -0.367246 0.0994116 -0.924796
v -21.8644 -164.433 1469.54
vn -0.10292 -0.222085 -0.96958
v -21.597 -165.104 1469.5
vn 0.228479 -0.0618994 -0.971579
v -21.8649 -165.372 1469.56
vn 0.255457 0.966565 -0.0222427
v -22.0117 -160.053 1472.8
vn 0.21268 -0.470447 -0.856415
v -21.5587 -165.72 1469.76
vn 0.178936 0.979433 0.0932366
v -22.0229 -160.078 1473.6
vn 0.374891 0.92534 0.0565904
v -21.4021 -160.253 1473.41
vn 0.300094 -0.820446 -0.486634
v -21.9695 -166.404 1470.21
vn 0.369399 0.900359 0.229997
v -21.4127 -160.361 1474.16
vn 0.175552 -0.973327 -0.147702
v -21.9916 -166.66 1471.24
vn 0.275659 -0.96102 -0.0212857
v -21.6878 -166.608 1471.62
vn 0.326766 -0.929427 -0.171434
v -21.3718 -166.455 1471.12
vn 0.346284 -0.937854 -0.0227689
v -21.5025 -166.509 1473.11
vn 0.326088 0.917315 0.228471
v -21.6618 -161.361 1477.24
vn 0.29976 -0.952549 -0.0528621
v -21.5175 -166.596 1474.18
vn 0.412893 0.908459 0.064979
v -21.3641 -161.598 1478.05
vn 0.302729 -0.950407 -0.0712849
v -21.4306 -166.611 1475.33
vn 0.0757545 0.989412 0.123797
v -21.9909 -161.485 1478.68
vn 0.218544 -0.968696 -0.117757
v -22.0623 -166.95 1476.31
vn 0.146694 0.98808 0.0466745
v -21.4966 -161.532 1480.17
vn 0.013779 0.932624 0.360588
v -21.9486 -162.059 1483.02
vn -0.304784 0.693564 0.652745
v -22.1675 -162.525 1483.94
vn -0.264319 0.911469 0.315215
v -21.4465 -162.304 1483.94
vn -0.61336 0.613099 0.497895
v -21.8626 -162.63 1484.23
vn -0.834886 0.450901 0.31568
v -21.7571 -162.881 1484.68
vn -0.56234 0.780702 0.272539
v -21.4734 -162.559 1484.74
vn -0.466165 0.320256 0.824697
v -22.1716 -163.099 1484.22
vn -0.405326 0.0925992 0.90947
v -22.1731 -163.508 1484.32
vn -0.0875972 -0.992708 0.0828155
v -21.732 -167.059 1482.17
vn -0.770947 0.615407 0.164059
v -21.5443 -162.941 1485.7
vn -0.880329 0.258614 0.397668
v -21.9561 -163.433 1484.63
vn -0.972506 -0.0692896 0.222329
v -22.0749 -164.628 1484.47
vn -0.152036 -0.10401 0.982887
v -22.173 -164.654 1484.3
vn 0.247972 -0.227474 0.941682
v -22.1714 -165.052 1484.17
vn 0.522425 -0.0758592 0.849304
v -22.1703 -165.365 1484.09
vn -0.699549 -0.215951 0.681173
v -22.0684 -165.282 1484.16
vn -0.701731 0.033658 0.711647
v -22.0682 -165.389 1484.15
vn -0.863853 -0.228169 0.449107
v -22.016 -165.224 1484.28
vn -0.902295 -0.102633 0.418725
v -22.017 -165.316 1484.23
vn -0.937441 0.0360492 0.346272
v -21.9679 -165.49 1484.34
vn -0.984335 -0.10764 0.139636
v -21.9584 -165.411 1484.42
vn 0.575543 0.237094 0.782647
v -22.1706 -165.483 1484.11
vn -0.692283 0.206512 0.691446
v -22.0685 -165.516 1484.17
vn -0.191088 -0.851254 0.488724
v -22.0648 -166.645 1483.89
vn -0.209162 -0.936076 0.282865
v -21.8524 -166.89 1483.42
vn -0.988928 -0.129769 0.0719784
v -22.0333 -164.824 1485.3
vn 0.604331 0.355826 0.712862
v -22.1737 -165.941 1484.32
vn 0.367507 -0.119888 0.922261
v -22.1739 -166.065 1484.33
vn -0.0304759 -0.519136 0.854148
v -22.1724 -166.353 1484.22
vn -0.46893 0.204214 0.859303
v -22.0712 -165.961 1484.36
vn -0.526744 -0.193632 0.827676
v -22.0713 -166.078 1484.36
vn -0.979217 -0.0727703 0.189311
v -21.9288 -165.736 1484.6
vn -0.840639 -0.0211835 0.541182
v -21.9698 -165.977 1484.47
vn -0.725016 -0.258241 0.638485
v -21.9694 -166.119 1484.44
vn -0.533425 -0.473412 0.700956
v -21.9681 -166.302 1484.34
vn -0.826688 -0.254417 0.501855
v -21.9089 -166.057 1484.54
vn -0.744813 -0.420358 0.518221
v -21.8671 -166.259 1484.49
vn -0.902252 -0.299798 0.30994
v -21.8545 -166.013 1484.68
vn -0.277993 -0.709787 0.647243
v -22.0687 -166.442 1484.17
vn -0.524413 -0.63011 0.572671
v -21.945 -166.467 1484.22
vn -0.43357 -0.815569 0.38323
v -21.7578 -166.715 1484.03
vn -0.622553 -0.685291 0.377894
v -21.6603 -166.574 1484.43
vn -0.990162 0.0942102 0.10346
v -21.8832 -163.98 1487.48
vn -0.858304 0.502325 0.104804
v -21.712 -163.615 1487.67
vn -0.954404 -0.255357 0.154615
v -21.7352 -164.678 1487.93
vn -0.972482 0.214678 0.0905092
v -21.5104 -163.692 1489.84
vn -0.97547 -0.159415 0.151805
v -21.4905 -164.247 1490.01
vn 0.180922 0.775075 -0.605414
v -20.9384 -161.365 1469.68
vn 0.0635461 0.551362 -0.831843
v -20.9354 -161.599 1469.46
vn -0.230135 0.138614 -0.963236
v -20.9315 -162.605 1469.16
vn 0.237868 0.889605 -0.389899
v -21.1525 -160.976 1470.27
vn 0.315604 0.917238 -0.24304
v -20.6493 -160.976 1470.72
vn -0.316593 -0.0206393 -0.948337
v -20.9309 -163.502 1469.1
vn -0.140619 -0.184197 -0.972778
v -20.4158 -164.185 1469.08
vn 0.0838269 -0.514727 -0.853246
v -20.8335 -165.202 1469.47
vn 0.417306 0.903703 -0.0957967
v -20.7756 -160.542 1472.79
vn 0.281647 -0.686567 -0.670298
v -20.8384 -165.636 1469.81
vn 0.55552 0.823097 0.117938
v -20.7151 -160.599 1473.35
vn 0.44972 -0.868263 -0.209455
v -20.5428 -166.033 1470.77
vn 0.443212 -0.805246 -0.393881
v -20.4346 -165.851 1470.4
vn 0.413288 -0.909639 -0.0418368
v -20.8612 -166.297 1471.44
vn 0.500962 -0.865349 -0.0143912
v -20.5803 -166.078 1473.18
vn 0.437175 -0.897849 -0.0523941
v -20.9028 -166.36 1474.42
vn 0.612025 0.790823 -0.0049293
v -20.6477 -162.038 1478.37
vn 0.512215 -0.857138 -0.0543175
v -20.8192 -166.36 1475.82
vn 0.575323 -0.796496 -0.186004
v -20.5298 -166.333 1477.23
vn 0.296589 -0.951409 -0.082798
v -21.1608 -166.787 1478.14
vn 0.35855 0.932832 0.0355879
v -20.6033 -161.819 1481.31
vn 0.141277 0.961868 0.234203
v -21.2132 -161.811 1482
vn 0.181322 -0.97732 -0.109394
v -20.776 -167.067 1480.09
vn -0.0210526 -0.999659 -0.015431
v -20.7061 -167.179 1482.47
vn -0.44709 0.881815 0.150041
v -21.0658 -162.691 1486.18
vn -0.45901 -0.864573 0.204509
v -21.2473 -166.893 1484.35
vn -0.289661 -0.947459 0.13571
v -21.1384 -167.007 1483.93
vn -0.63245 0.761326 0.142794
v -21.3827 -162.941 1486.75
vn -0.691111 -0.66803 0.275866
v -21.2602 -166.665 1485.28
vn -0.460532 0.886236 -0.0499484
v -20.7899 -162.811 1488.56
vn -0.669468 0.739468 0.0707125
v -21.2958 -163.15 1487.9
vn -0.363647 0.927341 0.0883152
v -20.7788 -162.785 1487.76
vn -0.376848 -0.89557 0.236518
v -20.7532 -166.845 1485.86
vn -0.683344 0.72581 -0.0789978
v -21.1106 -162.984 1489.4
vn -0.505772 0.844603 -0.175615
v -20.8033 -162.713 1489.52
vn -0.602904 0.786353 -0.134744
v -20.7103 -162.473 1490.25
vn -0.867466 0.497394 0.0100697
v -21.4208 -163.387 1489.47
vn -0.972118 0.2268 0.0595623
v -21.4083 -163.339 1490.95
vn -0.825352 0.563565 -0.0344724
v -21.1991 -162.875 1490.73
vn -0.817073 -0.519903 0.249186
v -21.1282 -165.209 1489.64
vn -0.877541 0.369723 0.305331
v -21.0134 -162.757 1492.07
vn -0.769455 0.636516 0.0527782
v -20.9371 -162.493 1491.74
vn -0.761989 0.251608 0.596712
v -20.8386 -162.668 1492.35
vn -0.703838 0.606846 0.369255
v -20.7382 -162.405 1492.25
vn -0.935341 0.318097 0.154761
v -21.2493 -163.072 1491.55
vn -0.921203 -0.265935 0.284015
v -21.2851 -163.718 1491.68
vn -0.908555 0.0793312 0.410164
v -21.2085 -163.4 1491.96
vn -0.984088 0.0390194 0.173345
v -21.41 -163.573 1491.18
vn -0.475412 -0.792091 0.382851
v -20.7102 -165.377 1490.19
vn -0.808252 -0.264657 0.526009
v -21.1956 -163.63 1491.96
vn -0.547072 -0.368532 0.751596
v -20.9432 -163.842 1492.15
vn -0.618083 -0.0895917 0.780991
v -20.8436 -163.279 1492.41
vn -0.228329 -0.550646 0.802904
v -20.7375 -163.97 1492.18
vn -0.711784 -0.564194 0.418388
v -21.0022 -164.135 1491.82
vn -0.577662 -0.537375 0.614439
v -20.9416 -164.013 1492.03
vn -0.282688 -0.736653 0.614353
v -20.7337 -164.288 1491.89
vn 0.317863 0.815924 -0.48294
v -20.3226 -161.444 1469.84
vn 0.304011 0.613049 -0.729211
v -20.3177 -161.723 1469.48
vn -0.00271141 0.317455 -0.948269
v -20.3123 -162.558 1469.08
vn -0.0550393 0.112163 -0.992164
v -20.0016 -163.068 1468.95
vn 0.280914 0.327113 -0.902266
v -19.6934 -162.868 1469.01
vn 0.224055 0.0392398 -0.973786
v -19.6927 -163.189 1468.96
vn 0.460875 0.868721 -0.181434
v -20.0284 -161.183 1470.91
vn 0.460708 0.741368 -0.487976
v -20.0141 -161.576 1469.87
vn 0.433044 0.842834 -0.319536
v -20.0199 -161.365 1470.3
vn 0.590017 0.727479 -0.350221
v -19.7094 -161.617 1470.18
vn 0.549475 0.627669 -0.551461
v -19.7028 -161.949 1469.7
vn -0.0405071 -0.061498 -0.997285
v -20.0016 -163.529 1468.94
vn 0.00643727 -0.193516 -0.981076
v -20.0023 -163.899 1468.98
vn 0.322805 -0.190564 -0.927083
v -19.6934 -163.789 1469
vn 0.105572 -0.38998 -0.914752
v -20.1077 -164.479 1469.15
vn 0.501545 -0.449108 -0.739428
v -19.6966 -164.349 1469.22
vn 0.621748 0.767749 -0.15489
v -19.534 -161.487 1471.05
vn 0.396043 -0.627117 -0.670727
v -20.0097 -164.926 1469.5
vn 0.700013 -0.54955 -0.456045
v -19.5693 -164.505 1469.49
vn 0.55433 0.830931 -0.0476538
v -19.9411 -161.074 1472.04
vn 0.659618 0.751394 0.0176678
v -19.6353 -161.303 1472.26
vn 0.551492 -0.713011 -0.432979
v -20.1242 -165.599 1470.31
vn 0.697066 -0.651137 -0.3002
v -19.818 -165.42 1470.52
vn 0.600391 -0.770784 -0.213124
v -20.0256 -165.654 1470.63
vn 0.721318 -0.679826 -0.132428
v -19.7431 -165.446 1470.85
vn 0.593265 -0.804137 -0.0374302
v -20.3482 -166.019 1471.59
vn 0.647344 -0.761788 -0.0249906
v -19.646 -165.417 1472.96
vn 0.590115 0.772704 0.233865
v -20.0084 -162.157 1476.85
vn 0.594681 -0.803865 -0.0124866
v -19.9858 -165.827 1474.95
vn 0.749433 -0.660714 0.0425016
v -19.6927 -165.55 1474.86
vn 0.597547 0.780925 0.181917
v -20.4319 -162.12 1477.67
vn 0.697001 0.667207 0.262726
v -20.0311 -162.409 1477.53
vn 0.79122 0.567286 0.228381
v -19.7562 -162.447 1476.93
vn 0.70197 0.699965 0.131482
v -20.1668 -162.416 1477.99
vn 0.845552 0.498822 0.190311
v -19.7629 -162.873 1477.76
vn 0.710865 -0.702905 -0.0243851
v -20.3557 -166.03 1476.23
vn 0.809914 0.581886 -0.0738116
v -19.9444 -162.707 1479
vn 0.772886 -0.579441 -0.258642
v -19.9932 -165.864 1477.48
vn 0.694094 0.717188 -0.0622457
v -20.0576 -162.181 1480.89
vn 0.457463 0.886897 0.0643451
v -20.0956 -162.169 1483.1
vn 0.748631 0.662937 0.00814665
v -19.7971 -162.397 1483.11
vn 0.444025 -0.878315 -0.177212
v -19.8544 -166.764 1480.49
vn 0.0684401 0.984767 0.159842
v -20.4111 -162.164 1483.57
vn 0.168194 -0.984746 -0.044561
v -20.1883 -167.134 1482.27
vn 0.374768 -0.92202 -0.0970952
v -19.8785 -167.044 1482.22
vn -0.225123 0.961225 0.15927
v -20.5488 -162.51 1486.05
vn 0.0241625 -0.998203 0.0548335
v -20.2157 -167.163 1484.24
vn 0.362747 -0.931815 -0.0116672
v -19.796 -167.091 1483.69
vn 0.383151 -0.916024 0.118726
v -19.806 -167.057 1484.4
vn 0.00383799 0.997706 0.0675911
v -20.2598 -162.671 1487.48
vn -0.224205 -0.96698 0.121172
v -20.5314 -167.109 1484.72
vn -0.0933729 0.992132 -0.0833959
v -20.3756 -162.686 1488.4
vn 0.0448419 -0.973017 0.226334
v -20.3412 -166.957 1485.85
vn 0.352101 -0.906888 0.231469
v -20.0326 -166.876 1485.89
vn -0.225926 0.950617 -0.212804
v -20.2867 -162.515 1489.42
vn 0.109996 0.966434 -0.232177
v -19.976 -162.536 1489.3
vn 0.370275 -0.87423 0.314035
v -19.9512 -166.327 1487.45
vn -0.320151 0.926611 -0.197217
v -20.4009 -162.3 1490.23
vn -0.0133528 0.973351 -0.22893
v -20.1934 -162.292 1490.12
vn -0.417915 0.907082 -0.0504946
v -20.5242 -162.162 1491.69
vn 0.0290038 0.996014 -0.0843498
v -20.0031 -162.096 1491.25
vn 0.324253 0.931084 -0.167158
v -19.8967 -162.149 1491.01
vn -0.474945 0.797886 0.371221
v -20.5319 -162.227 1492.23
vn -0.412715 0.668328 0.618873
v -20.5343 -162.342 1492.41
vn -0.287603 0.92565 0.245881
v -20.4278 -162.154 1492.16
vn -0.177882 0.812214 0.555578
v -20.4304 -162.244 1492.34
vn -0.0990339 0.637273 0.764249
v -20.4315 -162.319 1492.42
vn -0.0234375 0.988966 0.14628
v -20.2191 -162.073 1491.97
vn 0.0337009 0.904089 0.426014
v -20.2219 -162.134 1492.17
vn 0.195028 0.697379 0.689656
v -20.2244 -162.247 1492.34
vn 0.323593 0.828623 0.456806
v -20.1188 -162.153 1492.16
vn 0.321436 0.926294 0.196615
v -20.0129 -162.104 1491.96
vn -0.572949 0.809443 0.128575
v -20.6316 -162.228 1492
vn -0.527679 0.424533 0.735749
v -20.638 -162.476 1492.45
vn -0.212865 0.450781 0.866882
v -20.5353 -162.432 1492.48
vn 0.0784167 0.477859 0.87493
v -20.3294 -162.415 1492.49
vn 0.385279 0.352761 0.852713
v -20.123 -162.475 1492.46
vn 0.563292 0.528628 0.635023
v -20.0178 -162.334 1492.3
vn 0.659667 0.24294 0.71121
v -19.9976 -162.577 1492.41
vn 0.63774 0.66581 0.387279
v -19.9109 -162.198 1492.03
vn 0.804078 0.329871 0.494614
v -19.828 -162.435 1492.14
vn -0.0224912 -0.850076 0.526179
v -20.4108 -165.062 1490.88
vn -0.0162866 -0.925305 0.378874
v -20.5028 -165.477 1490.09
vn 0.394445 -0.793398 0.463608
v -19.9948 -165.119 1490.6
vn -0.437485 0.102375 0.893379
v -20.6393 -162.767 1492.54
vn -0.209539 0.233479 0.949516
v -20.5365 -162.657 1492.56
vn -0.236454 -0.114828 0.964834
v -20.5368 -163.128 1492.57
vn -0.0679024 0.0416565 0.996822
v -20.434 -162.884 1492.59
vn 0.106232 0.231328 0.967058
v -20.3301 -162.545 1492.54
vn 0.216083 0.037542 0.975653
v -20.331 -162.892 1492.59
vn 0.11906 -0.191656 0.974214
v -20.3309 -163.14 1492.58
vn 0.486314 0.0897298 0.869165
v -20.0203 -162.843 1492.47
vn 0.49855 -0.105781 0.860383
v -20.0203 -163.074 1492.47
vn -0.173154 -0.357702 0.917642
v -20.6385 -163.428 1492.47
vn 0.127082 -0.534631 0.835476
v -20.4294 -163.887 1492.24
vn 0.324109 -0.386905 0.863283
v -20.1224 -163.498 1492.39
vn 0.48746 -0.507465 0.710536
v -20.0165 -163.738 1492.18
vn 0.686484 -0.236396 0.687646
v -19.9158 -163.246 1492.36
vn 0.0267214 -0.668737 0.743019
v -20.5299 -164.141 1492.06
vn 0.16253 -0.761642 0.627284
v -20.3182 -164.503 1491.64
vn 0.247086 -0.635872 0.731174
v -20.3236 -164.126 1492.03
vn 0.418242 -0.662064 0.621888
v -20.1136 -164.326 1491.75
vn 0.690433 0.592821 -0.414567
v -19.3983 -162 1470.03
vn 0.795652 0.528732 -0.295601
v -19.1613 -162.077 1470.4
vn 0.603572 0.475661 -0.639881
v -19.3887 -162.679 1469.32
vn 0.554873 0.148512 -0.818572
v -19.3857 -163.145 1469.1
vn 0.756493 0.296413 -0.582973
v -19.0771 -163.076 1469.42
vn 0.832247 0.392579 -0.391467
v -19.0417 -162.849 1469.66
vn 0.924608 0.0777047 -0.372909
v -18.9464 -163.354 1469.51
vn 0.748399 -0.173316 -0.640203
v -19.0298 -163.398 1469.37
vn 0.713123 0.662291 -0.22984
v -19.2659 -161.85 1470.64
vn 0.773656 0.629323 -0.0735534
v -19.1825 -161.812 1471.24
vn 0.829897 0.532637 -0.166039
v -19.086 -162.036 1470.77
vn 0.901169 0.3795 -0.209461
v -18.8633 -162.585 1470.49
vn 0.94993 0.220837 -0.22105
v -18.7742 -162.907 1470.44
vn 0.984537 -0.018523 -0.174196
v -18.7108 -163.459 1470.39
vn 0.879154 -0.351595 -0.321666
v -18.8685 -163.682 1469.92
vn 0.777979 0.62688 0.0420775
v -19.2494 -161.69 1472.34
vn 0.896778 0.435213 -0.0798717
v -18.8523 -162.32 1471.33
vn 0.907094 0.418088 0.0488023
v -18.8803 -162.236 1471.83
vn 0.914757 -0.372982 -0.155253
v -18.6921 -163.834 1470.89
vn 0.795301 -0.550333 -0.254222
v -19.405 -164.873 1470.46
vn 0.712471 0.684359 0.15504
v -19.3932 -161.605 1472.85
vn 0.847236 0.511856 0.14211
v -19.158 -161.88 1472.71
vn 0.977332 0.176949 0.11624
v -18.7464 -162.747 1472.15
vn 0.820158 -0.558726 -0.123154
v -19.4118 -165.057 1470.94
vn 0.990006 0.0117892 0.140535
v -18.7294 -163.817 1472.87
vn 0.954957 -0.288496 0.0694752
v -18.7545 -164.138 1472.82
vn 0.783973 -0.620329 -0.0240486
v -19.3033 -165.053 1472.34
vn 0.925161 0.351284 0.143794
v -19.3259 -162.752 1475.74
vn 0.987229 0.144405 0.0672731
v -19.2194 -163.26 1475.82
vn 0.99453 -0.036012 0.0980477
v -19.1384 -164.27 1475.53
vn 0.915215 -0.398256 0.0614294
v -19.1813 -164.812 1474.79
vn 0.934776 0.317516 0.159303
v -19.2587 -163.179 1476.56
vn 0.997877 -0.00530003 0.0649142
v -19.1422 -163.964 1476.74
vn 0.956293 0.261613 0.130622
v -19.3513 -163.747 1477.66
vn 0.823486 -0.5648 0.0535959
v -19.4635 -164.974 1476.44
vn 0.856106 -0.50484 -0.110545
v -19.5003 -165.066 1477.29
vn 0.931386 -0.363819 0.0125089
v -19.2716 -164.567 1477
vn 0.962297 0.250275 -0.106525
v -19.2065 -164.329 1478.4
vn 0.952858 -0.269583 -0.139235
v -19.3388 -164.855 1477.78
vn 0.998654 0.00854102 -0.0511618
v -19.2619 -164.35 1477.93
vn 0.963375 -0.0985104 -0.249407
v -19.2474 -164.814 1478.15
vn 0.860986 -0.415941 -0.292737
v -19.5368 -165.315 1477.77
vn 0.911061 -0.262351 -0.318025
v -19.3069 -165.168 1478.2
vn 0.884709 -0.329087 -0.330139
v -19.1509 -165.515 1478.83
vn 0.850183 0.518828 -0.0894717
v -19.0535 -163.56 1480.66
vn 0.904161 0.398 -0.155207
v -18.843 -163.973 1480.56
vn 0.753377 -0.600384 -0.268259
v -19.184 -165.843 1479.24
vn 0.849246 0.527905 -0.00990501
v -19.2008 -163.207 1481.77
vn 0.560973 -0.798779 -0.217399
v -19.6377 -166.453 1479.73
vn 0.932305 0.360864 0.024161
v -19.2275 -163.325 1483.56
vn 0.595635 -0.796889 -0.100927
v -19.255 -166.657 1481.84
vn 0.730555 -0.66719 -0.145418
v -19.0414 -166.351 1481.3
vn 0.647755 0.760308 0.0484281
v -19.7053 -162.546 1484.66
vn 0.815899 0.578188 0.00277224
v -19.453 -162.841 1485.09
vn 0.645057 -0.763647 0.0272951
v -19.3857 -166.857 1483.82
vn 0.654868 -0.744656 0.12898
v -19.3941 -166.804 1484.43
vn 0.856677 -0.507321 0.093434
v -19.0661 -166.421 1484.16
vn 0.405913 0.912055 0.0582242
v -19.7426 -162.761 1487.33
vn 0.996825 -0.00321419 0.0795584
v -19.0025 -165.153 1485.75
vn 0.933633 -0.32524 0.15016
v -19.0898 -166.027 1485.64
vn 0.762687 -0.621475 0.179101
v -19.3087 -166.484 1485.4
vn 0.42836 0.897765 -0.102595
v -19.6573 -162.768 1488.6
vn 0.807936 0.588995 0.0180245
v -19.2804 -163.155 1487.71
vn 0.952583 0.303734 0.0181843
v -19.171 -163.382 1487.48
vn 0.993191 0.113754 0.0251435
v -19.079 -163.893 1487.79
vn 0.935486 -0.330517 0.124995
v -19.1905 -165.675 1486.75
vn 0.545536 -0.80887 0.219361
v -19.7232 -166.711 1485.86
vn 0.845811 0.532089 -0.0385442
v -19.3924 -163.029 1488.59
vn 0.972126 0.230998 0.0401405
v -19.2302 -163.452 1489.18
vn 0.866166 -0.475169 0.154826
v -19.2612 -165.464 1488.14
vn 0.729074 -0.642356 0.236282
v -19.5451 -165.915 1487.88
vn 0.968599 -0.228874 0.0971165
v -19.127 -164.875 1488.79
vn 0.528053 0.846337 0.0698098
v -19.8002 -162.143 1491.48
vn 0.768947 0.639281 0.00636385
v -19.5915 -162.31 1491.28
vn 0.928678 0.208004 0.30707
v -19.4595 -162.656 1491.45
vn 0.962084 0.263337 0.0710436
v -19.3801 -162.744 1491.17
vn 0.977248 -0.0341672 0.209328
v -19.3376 -163.296 1491.12
vn 0.907893 -0.301766 0.290975
v -19.2801 -164.617 1490.08
vn 0.99228 -0.0575877 0.109835
v -19.1655 -164.427 1489.72
vn 0.579704 -0.741265 0.338333
v -19.6773 -165.125 1490.16
vn 0.779511 -0.536026 0.324099
v -19.3847 -164.847 1490.08
vn 0.888908 -0.411239 0.201804
v -19.2332 -164.885 1489.48
vn 0.79992 0.0619519 0.5969
v -19.8115 -162.853 1492.27
vn 0.808129 0.518612 0.279228
v -19.6806 -162.337 1491.72
vn 0.891718 -0.12487 0.435025
v -19.5445 -163.397 1491.76
vn 0.677829 -0.537244 0.501913
v -19.8009 -164.301 1491.48
vn 0.870122 -0.308052 0.384696
v -19.5201 -163.898 1491.38
vn 0.638877 -0.640865 0.425592
v -19.6842 -164.946 1490.49
vn 0.729501 -0.382407 0.567092
v -19.8077 -163.748 1491.98
vn 0.970822 0.231733 -0.0616779
v -18.6932 -162.811 1471.16
vn 0.997869 0.0637656 -0.0138195
v -18.5968 -163.428 1471.45
vn 0.986116 -0.154368 -0.0612087
v -18.6142 -163.702 1471.31
vn 0.995635 -0.0643792 0.067571
v -18.619 -163.712 1472
vn 0.919156 -0.392563 -0.0323466
v -18.6783 -163.986 1471.86
vn 0.950377 0.310683 -0.0160944
v -18.6915 -164.258 1481.11
vn 0.975993 0.0108502 -0.217533
v -18.6207 -164.935 1480.18
vn 0.996994 0.0304616 -0.0712417
v -18.5589 -165.033 1480.6
vn 0.898939 -0.370038 -0.234479
v -18.7849 -165.626 1480.17
vn 0.972489 0.21967 0.0775294
v -18.6353 -164.58 1481.76
vn 0.961489 -0.255912 -0.100237
v -18.6008 -165.497 1480.82
vn 0.998971 0.0261676 0.0370436
v -18.5553 -165.094 1481.61
vn 0.82944 -0.533018 -0.167095
v -18.8285 -165.96 1480.81
vn 0.881819 -0.468616 -0.0528656
v -18.7407 -166.056 1481.9
vn 0.968969 -0.238249 0.0658496
v -18.6757 -165.842 1482.38
vn 0.825208 -0.564826 0.00184266
v -18.8521 -166.252 1482.5
vn 0.103629 0.106908 0.988854
v -22.3913 -163.612 1484.3
vn 0.713569 0.0145679 0.700433
v -22.2759 -164.421 1484.29
vn 0.786207 -0.497686 0.366316
v -22.4731 -165.922 1484.72
vn 0.790275 0.253266 0.557961
v -22.3588 -165.918 1484.49
vn -0.821068 0.0649438 0.567124
v -22.1731 -163.508 1484.32
vn -0.818038 -0.113657 0.563822
v -22.173 -164.654 1484.3
vn -0.664364 -0.268097 0.697671
v -22.1714 -165.052 1484.17
vn -0.496058 -0.0755194 0.864999
v -22.1703 -165.365 1484.09
vn -0.415508 0.26206 0.871021
v -22.1706 -165.483 1484.11
vn 0.51171 -0.0555483 0.857361
v -22.1737 -165.941 1484.32
vn -0.305988 0.260413 0.915727
v -22.1737 -165.941 1484.32
vn -0.299858 -0.0811997 0.950522
v -22.1739 -166.065 1484.33
f 1//1 44//44 35//35
f 44//44 1//1 2//2
f 27//27 5//5 3//3
f 2//2 1//1 3//3
f 6//6 5//5 4//4
f 3//3 6//6 2//2
f 5//5 6//6 3//3
f 5//5 38//38 4//4
f 49//49 44//44 2//2
f 49//49 2//2 11//11
f 9//9 6//6 4//4
f 7//7 13//13 9//9
f 4//4 7//7 9//9
f 38//38 7//7 4//4
f 7//7 51//51 13//13
f 49//49 11//11 10//10
f 6//6 8//8 2//2
f 2//2 8//8 11//11
f 8//8 12//12 11//11
f 6//6 9//9 8//8
f 8//8 9//9 12//12
f 13//13 51//51 53//53
f 12//12 15//15 11//11
f 9//9 13//13 12//12
f 13//13 15//15 12//12
f 53//53 58//58 13//13
f 10//10 14//14 57//57
f 14//14 10//10 11//11
f 11//11 15//15 14//14
f 17//17 16//16 19//19
f 20//20 28//28 18//18
f 28//28 17//17 18//18
f 29//29 28//28 20//20
f 19//19 18//18 17//17
f 62//62 20//20 18//18
f 29//29 20//20 21//21
f 29//29 33//33 30//30
f 22//22 33//33 29//29
f 22//22 29//29 21//21
f 68//68 33//33 22//22
f 63//63 66//66 21//21
f 21//21 66//66 22//22
f 69//69 33//33 68//68
f 23//23 24//24 26//26
f 1//1 23//23 26//26
f 26//26 24//24 17//17
f 16//16 17//17 24//24
f 16//16 24//24 25//25
f 16//16 25//25 72//72
f 3//3 1//1 27//27
f 1//1 26//26 27//27
f 28//28 27//27 26//26
f 26//26 17//17 28//28
f 28//28 29//29 27//27
f 29//29 5//5 27//27
f 30//30 38//38 5//5
f 29//29 30//30 5//5
f 30//30 31//31 38//38
f 31//31 39//39 38//38
f 32//32 31//31 30//30
f 31//31 34//34 40//40
f 30//30 33//33 32//32
f 32//32 34//34 31//31
f 34//34 32//32 33//33
f 69//69 34//34 33//33
f 40//40 34//34 42//42
f 36//36 24//24 23//23
f 35//35 36//36 23//23
f 36//36 35//35 37//37
f 25//25 24//24 36//36
f 78//78 25//25 36//36
f 78//78 36//36 37//37
f 1//1 35//35 23//23
f 38//38 39//39 7//7
f 39//39 46//46 7//7
f 39//39 41//41 46//46
f 31//31 40//40 39//39
f 41//41 39//39 40//40
f 41//41 40//40 42//42
f 42//42 79//79 41//41
f 43//43 37//37 45//45
f 37//37 43//43 81//81
f 45//45 44//44 49//49
f 45//45 49//49 50//50
f 45//45 37//37 35//35
f 44//44 45//45 35//35
f 7//7 46//46 51//51
f 41//41 47//47 46//46
f 46//46 47//47 51//51
f 47//47 41//41 84//84
f 84//84 54//54 47//47
f 41//41 79//79 83//83
f 45//45 50//50 43//43
f 48//48 81//81 43//43
f 50//50 48//48 43//43
f 52//52 48//48 50//50
f 81//81 48//48 82//82
f 50//50 49//49 52//52
f 10//10 52//52 49//49
f 51//51 54//54 53//53
f 47//47 54//54 51//51
f 10//10 57//57 52//52
f 53//53 54//54 55//55
f 53//53 59//59 58//58
f 53//53 55//55 59//59
f 55//55 87//87 59//59
f 52//52 57//57 143//143
f 56//56 57//57 14//14
f 143//143 57//57 89//89
f 13//13 58//58 15//15
f 57//57 56//56 94//94
f 14//14 15//15 56//56
f 58//58 56//56 15//15
f 95//95 94//94 56//56
f 56//56 58//58 95//95
f 59//59 149//149 58//58
f 59//59 90//90 149//149
f 58//58 149//149 95//95
f 19//19 16//16 60//60
f 19//19 60//60 61//61
f 61//61 60//60 124//124
f 62//62 18//18 61//61
f 61//61 64//64 62//62
f 64//64 63//63 62//62
f 61//61 18//18 19//19
f 124//124 64//64 61//61
f 124//124 115//115 64//64
f 62//62 63//63 20//20
f 21//21 20//20 63//63
f 63//63 64//64 65//65
f 68//68 22//22 66//66
f 70//70 68//68 66//66
f 67//67 63//63 65//65
f 67//67 66//66 63//63
f 67//67 70//70 66//66
f 65//65 116//116 67//67
f 116//116 118//118 67//67
f 64//64 116//116 65//65
f 118//118 70//70 67//67
f 116//116 117//117 118//118
f 69//69 68//68 70//70
f 71//71 69//69 70//70
f 118//118 71//71 70//70
f 75//75 73//73 69//69
f 75//75 69//69 71//71
f 71//71 125//125 75//75
f 75//75 125//125 126//126
f 72//72 25//25 78//78
f 72//72 128//128 121//121
f 16//16 121//121 122//122
f 121//121 16//16 72//72
f 73//73 34//34 69//69
f 42//42 34//34 73//73
f 42//42 73//73 80//80
f 73//73 74//74 80//80
f 74//74 77//77 80//80
f 75//75 76//76 73//73
f 77//77 74//74 76//76
f 74//74 73//73 76//76
f 126//126 76//76 75//75
f 130//130 128//128 78//78
f 128//128 72//72 78//78
f 79//79 42//42 80//80
f 79//79 80//80 83//83
f 80//80 129//129 83//83
f 80//80 77//77 129//129
f 78//78 37//37 81//81
f 130//130 78//78 81//81
f 130//130 81//81 82//82
f 83//83 84//84 41//41
f 132//132 83//83 129//129
f 132//132 131//131 83//83
f 131//131 84//84 83//83
f 138//138 130//130 82//82
f 84//84 135//135 85//85
f 131//131 135//135 84//84
f 48//48 137//137 82//82
f 86//86 48//48 52//52
f 138//138 82//82 137//137
f 48//48 86//86 137//137
f 54//54 84//84 85//85
f 55//55 85//85 88//88
f 55//55 54//54 85//85
f 135//135 88//88 85//85
f 143//143 86//86 52//52
f 143//143 141//141 86//86
f 87//87 55//55 88//88
f 139//139 88//88 135//135
f 143//143 89//89 92//92
f 59//59 87//87 90//90
f 87//87 88//88 91//91
f 93//93 92//92 89//89
f 97//97 143//143 92//92
f 91//91 90//90 87//87
f 195//195 90//90 91//91
f 145//145 91//91 88//88
f 196//196 91//91 145//145
f 196//196 195//195 91//91
f 57//57 94//94 89//89
f 89//89 94//94 93//93
f 94//94 98//98 93//93
f 95//95 98//98 94//94
f 195//195 149//149 90//90
f 96//96 97//97 102//102
f 96//96 146//146 97//97
f 99//99 96//96 102//102
f 97//97 92//92 93//93
f 93//93 100//100 97//97
f 100//100 93//93 98//98
f 100//100 98//98 101//101
f 98//98 150//150 101//101
f 149//149 150//150 95//95
f 95//95 150//150 98//98
f 147//147 96//96 99//99
f 100//100 101//101 152//152
f 100//100 152//152 155//155
f 101//101 150//150 152//152
f 102//102 105//105 99//99
f 99//99 105//105 103//103
f 100//100 155//155 97//97
f 102//102 106//106 105//105
f 102//102 97//97 106//106
f 97//97 155//155 104//104
f 103//103 105//105 107//107
f 104//104 106//106 97//97
f 106//106 104//104 108//108
f 104//104 155//155 108//108
f 105//105 106//106 107//107
f 107//107 106//106 109//109
f 108//108 155//155 158//158
f 109//109 106//106 110//110
f 106//106 108//108 110//110
f 108//108 158//158 110//110
f 107//107 109//109 112//112
f 109//109 111//111 112//112
f 109//109 110//110 111//111
f 111//111 110//110 113//113
f 111//111 161//161 112//112
f 161//161 111//111 165//165
f 111//111 113//113 165//165
f 110//110 163//163 113//113
f 115//115 114//114 64//64
f 114//114 115//115 178//178
f 116//116 64//64 117//117
f 120//120 117//117 181//181
f 117//117 64//64 114//114
f 181//181 117//117 179//179
f 114//114 179//179 117//117
f 178//178 179//179 114//114
f 120//120 119//119 118//118
f 118//118 119//119 71//71
f 125//125 71//71 119//119
f 117//117 120//120 118//118
f 120//120 127//127 119//119
f 125//125 119//119 127//127
f 122//122 60//60 16//16
f 123//123 60//60 122//122
f 173//173 123//123 122//122
f 122//122 121//121 172//172
f 173//173 174//174 123//123
f 60//60 123//123 124//124
f 174//174 124//124 123//123
f 77//77 76//76 126//126
f 125//125 127//127 126//126
f 121//121 128//128 183//183
f 183//183 128//128 337//337
f 134//134 129//129 77//77
f 77//77 126//126 134//134
f 185//185 134//134 126//126
f 129//129 134//134 132//132
f 132//132 134//134 133//133
f 131//131 132//132 133//133
f 131//131 133//133 136//136
f 187//187 133//133 134//134
f 185//185 187//187 134//134
f 186//186 133//133 187//187
f 130//130 138//138 272//272
f 136//136 135//135 131//131
f 139//139 135//135 136//136
f 136//136 188//188 139//139
f 186//186 136//136 133//133
f 188//188 136//136 186//186
f 137//137 140//140 138//138
f 86//86 141//141 140//140
f 140//140 141//141 190//190
f 86//86 140//140 137//137
f 88//88 139//139 142//142
f 141//141 144//144 190//190
f 144//144 141//141 143//143
f 142//142 191//191 145//145
f 88//88 142//142 145//145
f 146//146 144//144 143//143
f 146//146 143//143 97//97
f 276//276 196//196 145//145
f 144//144 146//146 147//147
f 192//192 148//148 194//194
f 144//144 147//147 192//192
f 146//146 96//96 147//147
f 151//151 99//99 103//103
f 151//151 148//148 99//99
f 151//151 194//194 148//148
f 99//99 148//148 147//147
f 192//192 147//147 148//148
f 149//149 153//153 150//150
f 153//153 149//149 195//195
f 194//194 151//151 154//154
f 150//150 153//153 152//152
f 154//154 151//151 103//103
f 197//197 194//194 154//154
f 156//156 155//155 152//152
f 152//152 153//153 156//156
f 154//154 103//103 107//107
f 156//156 158//158 155//155
f 153//153 199//199 156//156
f 156//156 199//199 159//159
f 158//158 156//156 159//159
f 154//154 107//107 157//157
f 158//158 159//159 160//160
f 112//112 162//162 157//157
f 157//157 107//107 112//112
f 158//158 160//160 110//110
f 112//112 161//161 162//162
f 157//157 162//162 209//209
f 207//207 162//162 217//217
f 113//113 163//163 168//168
f 160//160 164//164 163//163
f 110//110 160//160 163//163
f 160//160 210//210 164//164
f 210//210 213//213 164//164
f 161//161 217//217 162//162
f 113//113 168//168 165//165
f 231//231 168//168 220//220
f 163//163 164//164 168//168
f 164//164 220//220 168//168
f 220//220 164//164 213//213
f 161//161 165//165 167//167
f 165//165 168//168 169//169
f 167//167 165//165 169//169
f 161//161 166//166 217//217
f 167//167 166//166 161//161
f 170//170 166//166 167//167
f 167//167 169//169 170//170
f 170//170 169//169 171//171
f 166//166 170//170 222//222
f 171//171 169//169 232//232
f 231//231 169//169 168//168
f 172//172 121//121 183//183
f 253//253 173//173 172//172
f 173//173 122//122 172//172
f 173//173 175//175 174//174
f 173//173 254//254 175//175
f 174//174 177//177 124//124
f 177//177 174//174 175//175
f 177//177 256//256 257//257
f 124//124 177//177 176//176
f 257//257 176//176 177//177
f 115//115 124//124 178//178
f 176//176 178//178 124//124
f 178//178 176//176 179//179
f 176//176 262//262 179//179
f 181//181 179//179 180//180
f 181//181 182//182 127//127
f 127//127 120//120 181//181
f 181//181 184//184 182//182
f 184//184 127//127 182//182
f 263//263 181//181 180//180
f 127//127 184//184 267//267
f 267//267 185//185 126//126
f 126//126 127//127 267//267
f 186//186 187//187 270//270
f 269//269 187//187 185//185
f 267//267 269//269 185//185
f 270//270 187//187 269//269
f 271//271 188//188 270//270
f 270//270 188//188 186//186
f 271//271 189//189 188//188
f 273//273 272//272 138//138
f 138//138 140//140 273//273
f 343//343 273//273 190//190
f 188//188 189//189 139//139
f 189//189 142//142 139//139
f 342//342 142//142 189//189
f 190//190 273//273 140//140
f 342//342 191//191 142//142
f 275//275 190//190 144//144
f 191//191 276//276 145//145
f 144//144 192//192 275//275
f 192//192 194//194 193//193
f 275//275 192//192 193//193
f 276//276 277//277 196//196
f 278//278 194//194 197//197
f 199//199 153//153 195//195
f 281//281 195//195 196//196
f 282//282 279//279 197//197
f 282//282 280//280 279//279
f 198//198 199//199 195//195
f 281//281 198//198 195//195
f 159//159 199//199 202//202
f 198//198 289//289 199//199
f 197//197 154//154 157//157
f 197//197 157//157 201//201
f 197//197 201//201 287//287
f 200//200 199//199 289//289
f 199//199 200//200 202//202
f 200//200 289//289 290//290
f 203//203 201//201 157//157
f 203//203 287//287 201//201
f 157//157 209//209 203//203
f 209//209 205//205 203//203
f 203//203 205//205 293//293
f 160//160 159//159 206//206
f 159//159 202//202 206//206
f 206//206 202//202 204//204
f 204//204 202//202 292//292
f 206//206 210//210 160//160
f 210//210 206//206 211//211
f 204//204 211//211 206//206
f 209//209 162//162 207//207
f 209//209 207//207 208//208
f 209//209 208//208 205//205
f 205//205 208//208 219//219
f 297//297 205//205 219//219
f 214//214 210//210 211//211
f 213//213 210//210 214//214
f 211//211 204//204 212//212
f 214//214 211//211 212//212
f 212//212 215//215 214//214
f 204//204 296//296 212//212
f 296//296 215//215 212//212
f 296//296 299//299 215//215
f 208//208 207//207 218//218
f 219//219 208//208 218//218
f 218//218 223//223 216//216
f 218//218 207//207 217//217
f 219//219 218//218 216//216
f 216//216 301//301 219//219
f 297//297 219//219 301//301
f 235//235 220//220 221//221
f 300//300 312//312 221//221
f 221//221 213//213 214//214
f 221//221 220//220 213//213
f 221//221 214//214 215//215
f 221//221 215//215 300//300
f 215//215 299//299 300//300
f 230//230 224//224 222//222
f 223//223 218//218 217//217
f 217//217 222//222 223//223
f 224//224 223//223 222//222
f 224//224 230//230 233//233
f 225//225 233//233 239//239
f 225//225 224//224 233//233
f 216//216 223//223 226//226
f 226//226 223//223 224//224
f 226//226 224//224 227//227
f 227//227 224//224 225//225
f 236//236 227//227 225//225
f 239//239 236//236 225//225
f 301//301 216//216 226//226
f 301//301 226//226 229//229
f 229//229 226//226 227//227
f 229//229 227//227 228//228
f 236//236 228//228 227//227
f 236//236 237//237 228//228
f 228//228 234//234 229//229
f 234//234 228//228 237//237
f 166//166 222//222 217//217
f 170//170 230//230 222//222
f 171//171 230//230 170//170
f 169//169 231//231 232//232
f 232//232 238//238 230//230
f 230//230 171//171 232//232
f 232//232 231//231 250//250
f 230//230 238//238 233//233
f 301//301 229//229 302//302
f 234//234 302//302 229//229
f 220//220 235//235 231//231
f 235//235 250//250 231//231
f 251//251 250//250 235//235
f 312//312 235//235 221//221
f 235//235 312//312 251//251
f 239//239 233//233 238//238
f 240//240 239//239 238//238
f 232//232 240//240 238//238
f 242//242 239//239 240//240
f 236//236 239//239 242//242
f 240//240 232//232 241//241
f 232//232 250//250 241//241
f 240//240 241//241 243//243
f 236//236 242//242 237//237
f 242//242 240//240 243//243
f 242//242 244//244 237//237
f 245//245 244//244 242//242
f 242//242 243//243 245//245
f 249//249 241//241 250//250
f 246//246 245//245 243//243
f 243//243 241//241 246//246
f 246//246 241//241 249//249
f 234//234 237//237 244//244
f 244//244 245//245 247//247
f 247//247 245//245 248//248
f 248//248 245//245 246//246
f 248//248 246//246 317//317
f 246//246 249//249 317//317
f 315//315 244//244 247//247
f 315//315 247//247 316//316
f 248//248 316//316 247//247
f 316//316 248//248 317//317
f 317//317 249//249 320//320
f 250//250 251//251 249//249
f 320//320 249//249 251//251
f 320//320 251//251 306//306
f 252//252 253//253 172//172
f 252//252 172//172 183//183
f 253//253 252//252 328//328
f 253//253 324//324 173//173
f 254//254 173//173 324//324
f 324//324 255//255 254//254
f 175//175 256//256 177//177
f 254//254 255//255 175//175
f 175//175 255//255 256//256
f 259//259 256//256 255//255
f 259//259 255//255 326//326
f 330//330 259//259 326//326
f 180//180 179//179 262//262
f 263//263 180//180 262//262
f 328//328 252//252 337//337
f 252//252 183//183 337//337
f 257//257 258//258 176//176
f 258//258 262//262 176//176
f 260//260 256//256 259//259
f 260//260 257//257 256//256
f 257//257 261//261 258//258
f 261//261 257//257 260//260
f 330//330 260//260 259//259
f 262//262 258//258 261//261
f 333//333 263//263 262//262
f 260//260 331//331 261//261
f 261//261 331//331 262//262
f 262//262 331//331 333//333
f 333//333 264//264 263//263
f 184//184 181//181 263//263
f 263//263 264//264 184//184
f 184//184 264//264 265//265
f 264//264 335//335 265//265
f 265//265 267//267 184//184
f 267//267 265//265 266//266
f 266//266 410//410 267//267
f 267//267 410//410 413//413
f 335//335 408//408 265//265
f 408//408 266//266 265//265
f 268//268 128//128 130//130
f 268//268 130//130 272//272
f 337//337 128//128 268//268
f 413//413 269//269 267//267
f 413//413 270//270 269//269
f 268//268 272//272 339//339
f 339//339 272//272 338//338
f 338//338 272//272 274//274
f 271//271 415//415 189//189
f 274//274 272//272 273//273
f 274//274 273//273 343//343
f 191//191 342//342 344//344
f 343//343 190//190 423//423
f 423//423 190//190 275//275
f 191//191 346//346 276//276
f 345//345 275//275 193//193
f 346//346 277//277 276//276
f 194//194 278//278 193//193
f 345//345 193//193 278//278
f 278//278 279//279 425//425
f 277//277 281//281 196//196
f 279//279 278//278 197//197
f 494//494 279//279 347//347
f 280//280 347//347 279//279
f 281//281 277//277 348//348
f 349//349 280//280 282//282
f 284//284 349//349 282//282
f 284//284 282//282 283//283
f 351//351 284//284 283//283
f 281//281 348//348 286//286
f 495//495 286//286 348//348
f 283//283 282//282 288//288
f 283//283 288//288 285//285
f 283//283 285//285 351//351
f 281//281 289//289 198//198
f 281//281 286//286 289//289
f 289//289 286//286 290//290
f 290//290 286//286 375//375
f 287//287 282//282 197//197
f 288//288 282//282 287//287
f 293//293 288//288 287//287
f 288//288 293//293 387//387
f 285//285 288//288 387//387
f 285//285 387//387 376//376
f 200//200 292//292 202//202
f 200//200 290//290 292//292
f 293//293 287//287 203//203
f 291//291 294//294 292//292
f 375//375 292//292 290//290
f 382//382 291//291 292//292
f 382//382 383//383 291//291
f 294//294 204//204 292//292
f 377//377 386//386 294//294
f 291//291 377//377 294//294
f 295//295 293//293 205//205
f 386//386 299//299 294//294
f 205//205 297//297 295//295
f 293//293 295//295 387//387
f 204//204 294//294 296//296
f 298//298 295//295 297//297
f 295//295 298//298 387//387
f 391//391 387//387 298//298
f 392//392 386//386 389//389
f 294//294 299//299 296//296
f 301//301 298//298 297//297
f 298//298 301//301 304//304
f 391//391 310//310 392//392
f 298//298 308//308 391//391
f 300//300 299//299 313//313
f 313//313 312//312 300//300
f 314//314 313//313 386//386
f 314//314 386//386 392//392
f 386//386 313//313 299//299
f 302//302 234//234 303//303
f 304//304 301//301 302//302
f 304//304 302//302 303//303
f 305//305 303//303 319//319
f 303//303 305//305 304//304
f 308//308 304//304 305//305
f 308//308 298//298 304//304
f 319//319 309//309 305//305
f 308//308 305//305 309//309
f 310//310 311//311 392//392
f 392//392 311//311 314//314
f 308//308 309//309 310//310
f 310//310 309//309 311//311
f 311//311 307//307 314//314
f 311//311 309//309 323//323
f 307//307 311//311 323//323
f 308//308 310//310 391//391
f 306//306 251//251 312//312
f 306//306 313//313 307//307
f 312//312 313//313 306//306
f 314//314 307//307 313//313
f 244//244 315//315 234//234
f 234//234 315//315 303//303
f 303//303 315//315 318//318
f 318//318 315//315 316//316
f 318//318 316//316 317//317
f 321//321 318//318 317//317
f 320//320 321//321 317//317
f 303//303 318//318 319//319
f 321//321 319//319 318//318
f 322//322 320//320 306//306
f 322//322 321//321 320//320
f 307//307 322//322 306//306
f 319//319 321//321 323//323
f 307//307 323//323 322//322
f 322//322 323//323 321//321
f 323//323 309//309 319//319
f 325//325 253//253 328//328
f 324//324 253//253 325//325
f 325//325 403//403 398//398
f 397//397 325//325 398//398
f 326//326 255//255 324//324
f 395//395 326//326 324//324
f 326//326 327//327 330//330
f 400//400 330//330 327//327
f 326//326 395//395 327//327
f 400//400 332//332 330//330
f 327//327 395//395 400//400
f 329//329 328//328 337//337
f 329//329 337//337 409//409
f 403//403 325//325 328//328
f 332//332 260//260 330//330
f 331//331 260//260 332//332
f 331//331 332//332 334//334
f 331//331 334//334 333//333
f 334//334 332//332 405//405
f 334//334 336//336 333//333
f 333//333 336//336 264//264
f 405//405 406//406 334//334
f 406//406 336//336 334//334
f 336//336 335//335 264//264
f 335//335 336//336 408//408
f 268//268 339//339 337//337
f 411//411 337//337 339//339
f 409//409 337//337 411//411
f 266//266 408//408 410//410
f 411//411 339//339 338//338
f 340//340 338//338 274//274
f 414//414 338//338 340//340
f 271//271 270//270 415//415
f 341//341 342//342 189//189
f 415//415 341//341 189//189
f 340//340 274//274 343//343
f 340//340 343//343 419//419
f 419//419 343//343 423//423
f 423//423 275//275 345//345
f 191//191 344//344 346//346
f 424//424 346//346 344//344
f 422//422 424//424 344//344
f 492//492 277//277 346//346
f 424//424 492//492 346//346
f 278//278 425//425 345//345
f 425//425 279//279 494//494
f 495//495 348//348 277//277
f 492//492 495//495 277//277
f 494//494 347//347 350//350
f 280//280 349//349 347//347
f 350//350 347//347 349//349
f 349//349 354//354 426//426
f 350//350 349//349 426//426
f 349//349 284//284 352//352
f 351//351 353//353 284//284
f 353//353 351//351 356//356
f 284//284 353//353 352//352
f 349//349 352//352 354//354
f 354//354 352//352 353//353
f 355//355 354//354 353//353
f 354//354 355//355 427//427
f 353//353 358//358 355//355
f 356//356 358//358 353//353
f 358//358 432//432 355//355
f 432//432 427//427 355//355
f 286//286 495//495 434//434
f 351//351 285//285 356//356
f 285//285 376//376 363//363
f 356//356 285//285 357//357
f 357//357 285//285 363//363
f 356//356 360//360 358//358
f 357//357 360//360 356//356
f 360//360 357//357 359//359
f 357//357 364//364 359//359
f 358//358 361//361 432//432
f 360//360 361//361 358//358
f 361//361 360//360 736//736
f 736//736 362//362 361//361
f 433//433 432//432 361//361
f 361//361 362//362 433//433
f 433//433 362//362 438//438
f 375//375 286//286 434//434
f 357//357 363//363 364//364
f 363//363 376//376 364//364
f 364//364 376//376 385//385
f 359//359 364//364 365//365
f 364//364 385//385 366//366
f 365//365 364//364 366//366
f 362//362 736//736 367//367
f 737//737 359//359 365//365
f 737//737 365//365 370//370
f 362//362 367//367 438//438
f 438//438 367//367 370//370
f 366//366 378//378 369//369
f 366//366 369//369 365//365
f 370//370 365//365 371//371
f 365//365 368//368 371//371
f 368//368 365//365 369//369
f 368//368 369//369 372//372
f 438//438 370//370 439//439
f 439//439 370//370 371//371
f 440//440 439//439 371//371
f 368//368 440//440 371//371
f 440//440 368//368 447//447
f 447//447 368//368 372//372
f 372//372 452//452 447//447
f 374//374 375//375 373//373
f 450//450 374//374 373//373
f 374//374 450//450 449//449
f 434//434 373//373 375//375
f 373//373 434//434 450//450
f 366//366 385//385 378//378
f 369//369 378//378 372//372
f 383//383 377//377 291//291
f 383//383 380//380 377//377
f 383//383 384//384 380//380
f 386//386 738//738 389//389
f 379//379 377//377 381//381
f 738//738 377//377 379//379
f 377//377 380//380 381//381
f 372//372 739//739 452//452
f 372//372 378//378 739//739
f 745//745 379//379 381//381
f 381//381 380//380 454//454
f 454//454 380//380 384//384
f 453//453 745//745 381//381
f 453//453 381//381 454//454
f 292//292 375//375 382//382
f 375//375 374//374 382//382
f 384//384 383//383 382//382
f 374//374 384//384 382//382
f 449//449 384//384 374//374
f 376//376 387//387 385//385
f 378//378 385//385 389//389
f 738//738 386//386 377//377
f 388//388 385//385 387//387
f 385//385 388//388 390//390
f 385//385 390//390 389//389
f 391//391 390//390 388//388
f 390//390 391//391 392//392
f 390//390 392//392 389//389
f 388//388 387//387 391//391
f 397//397 324//324 325//325
f 324//324 393//393 395//395
f 324//324 397//397 393//393
f 397//397 398//398 394//394
f 394//394 393//393 397//397
f 398//398 476//476 394//394
f 393//393 394//394 473//473
f 396//396 395//395 393//393
f 396//396 475//475 395//395
f 395//395 475//475 401//401
f 475//475 478//478 401//401
f 398//398 403//403 399//399
f 476//476 398//398 399//399
f 399//399 403//403 404//404
f 400//400 405//405 332//332
f 400//400 395//395 401//401
f 400//400 401//401 478//478
f 478//478 405//405 400//400
f 402//402 329//329 409//409
f 328//328 329//329 402//402
f 328//328 404//404 403//403
f 328//328 402//402 404//404
f 402//402 481//481 404//404
f 406//406 405//405 478//478
f 407//407 408//408 336//336
f 407//407 336//336 406//406
f 478//478 407//407 406//406
f 407//407 478//478 479//479
f 410//410 407//407 480//480
f 407//407 410//410 408//408
f 409//409 481//481 402//402
f 409//409 412//412 481//481
f 414//414 411//411 338//338
f 411//411 414//414 412//412
f 412//412 409//409 411//411
f 415//415 270//270 413//413
f 413//413 417//417 415//415
f 413//413 484//484 417//417
f 416//416 342//342 341//341
f 415//415 416//416 341//341
f 417//417 416//416 415//415
f 484//484 486//486 417//417
f 486//486 416//416 417//417
f 486//486 418//418 416//416
f 419//419 414//414 340//340
f 556//556 414//414 419//419
f 418//418 342//342 416//416
f 488//488 422//422 420//420
f 488//488 420//420 418//418
f 418//418 420//420 342//342
f 488//488 490//490 422//422
f 422//422 344//344 342//342
f 420//420 422//422 342//342
f 421//421 419//419 423//423
f 423//423 345//345 425//425
f 421//421 423//423 425//425
f 494//494 493//493 425//425
f 426//426 494//494 350//350
f 426//426 354//354 427//427
f 427//427 428//428 426//426
f 428//428 427//427 429//429
f 429//429 430//430 431//431
f 429//429 431//431 428//428
f 429//429 436//436 430//430
f 430//430 435//435 431//431
f 436//436 432//432 740//740
f 436//436 427//427 432//432
f 436//436 429//429 427//427
f 741//741 436//436 740//740
f 434//434 495//495 496//496
f 436//436 435//435 430//430
f 497//497 431//431 435//435
f 436//436 741//741 437//437
f 446//446 451//451 437//437
f 437//437 468//468 436//436
f 443//443 741//741 742//742
f 741//741 443//443 437//437
f 441//441 443//443 742//742
f 743//743 441//441 742//742
f 441//441 743//743 442//442
f 442//442 743//743 744//744
f 442//442 744//744 448//448
f 446//446 437//437 443//443
f 444//444 443//443 441//441
f 442//442 444//444 441//441
f 445//445 444//444 442//442
f 443//443 444//444 446//446
f 444//444 445//445 446//446
f 448//448 445//445 442//442
f 448//448 458//458 445//445
f 446//446 457//457 451//451
f 457//457 446//446 445//445
f 458//458 457//457 445//445
f 448//448 744//744 455//455
f 455//455 744//744 746//746
f 448//448 455//455 458//458
f 450//450 466//466 449//449
f 450//450 499//499 466//466
f 450//450 434//434 499//499
f 500//500 504//504 497//497
f 497//497 435//435 500//500
f 468//468 469//469 436//436
f 469//469 435//435 436//436
f 500//500 435//435 469//469
f 437//437 451//451 468//468
f 457//457 463//463 451//451
f 747//747 455//455 746//746
f 456//456 455//455 747//747
f 747//747 454//454 456//456
f 456//456 454//454 460//460
f 460//460 454//454 464//464
f 454//454 384//384 464//464
f 456//456 458//458 455//455
f 460//460 459//459 456//456
f 460//460 464//464 465//465
f 458//458 456//456 459//459
f 461//461 458//458 459//459
f 458//458 463//463 457//457
f 461//461 463//463 458//458
f 462//462 461//461 459//459
f 459//459 460//460 462//462
f 462//462 460//460 465//465
f 462//462 463//463 461//461
f 462//462 465//465 467//467
f 462//462 501//501 463//463
f 467//467 501//501 462//462
f 384//384 449//449 464//464
f 466//466 464//464 449//449
f 466//466 465//465 464//464
f 465//465 466//466 467//467
f 466//466 499//499 498//498
f 466//466 498//498 467//467
f 467//467 498//498 501//501
f 469//469 503//503 500//500
f 468//468 451//451 470//470
f 509//509 469//469 471//471
f 503//503 469//469 509//509
f 468//468 471//471 469//469
f 471//471 468//468 472//472
f 472//472 468//468 470//470
f 451//451 463//463 470//470
f 512//512 472//472 470//470
f 473//473 474//474 393//393
f 394//394 476//476 473//473
f 529//529 530//530 473//473
f 473//473 530//530 474//474
f 529//529 473//473 476//476
f 531//531 475//475 396//396
f 474//474 396//396 393//393
f 474//474 531//531 396//396
f 530//530 531//531 474//474
f 477//477 399//399 404//404
f 476//476 399//399 477//477
f 477//477 537//537 476//476
f 537//537 477//477 535//535
f 476//476 537//537 529//529
f 540//540 478//478 532//532
f 479//479 478//478 540//540
f 404//404 481//481 477//477
f 481//481 535//535 477//477
f 479//479 543//543 407//407
f 480//480 407//407 543//543
f 543//543 546//546 480//480
f 480//480 546//546 482//482
f 410//410 480//480 482//482
f 410//410 482//482 413//413
f 482//482 485//485 413//413
f 482//482 550//550 485//485
f 414//414 483//483 412//412
f 483//483 481//481 412//412
f 556//556 483//483 414//414
f 484//484 413//413 485//485
f 550//550 552//552 485//485
f 485//485 552//552 484//484
f 554//554 487//487 486//486
f 484//484 554//554 486//486
f 486//486 487//487 418//418
f 487//487 488//488 418//418
f 419//419 421//421 556//556
f 556//556 421//421 559//559
f 559//559 421//421 489//489
f 488//488 557//557 490//490
f 492//492 422//422 490//490
f 490//490 491//491 492//492
f 564//564 491//491 490//490
f 492//492 424//424 422//422
f 425//425 493//493 421//421
f 495//495 492//492 491//491
f 679//679 495//495 491//491
f 493//493 494//494 571//571
f 426//426 571//571 494//494
f 571//571 426//426 428//428
f 574//574 428//428 431//431
f 571//571 428//428 574//574
f 575//575 434//434 496//496
f 496//496 495//495 572//572
f 574//574 431//431 497//497
f 575//575 499//499 434//434
f 504//504 574//574 497//497
f 579//579 499//499 575//575
f 504//504 500//500 503//503
f 505//505 501//501 498//498
f 579//579 498//498 499//499
f 504//504 503//503 502//502
f 580//580 504//504 502//502
f 503//503 506//506 502//502
f 507//507 502//502 506//506
f 506//506 503//503 509//509
f 463//463 501//501 512//512
f 511//511 506//506 509//509
f 511//511 508//508 506//506
f 508//508 507//507 506//506
f 512//512 470//470 463//463
f 508//508 514//514 588//588
f 588//588 514//514 601//601
f 509//509 471//471 510//510
f 511//511 509//509 510//510
f 511//511 510//510 517//517
f 514//514 511//511 517//517
f 508//508 511//511 514//514
f 472//472 510//510 471//471
f 472//472 520//520 510//510
f 512//512 518//518 472//472
f 512//512 526//526 518//518
f 518//518 520//520 472//472
f 512//512 501//501 521//521
f 521//521 505//505 611//611
f 521//521 501//501 505//505
f 513//513 514//514 517//517
f 513//513 517//517 519//519
f 513//513 516//516 514//514
f 516//516 601//601 514//514
f 513//513 515//515 516//516
f 515//515 602//602 516//516
f 513//513 519//519 515//515
f 517//517 510//510 520//520
f 517//517 520//520 519//519
f 520//520 518//518 519//519
f 519//519 518//518 522//522
f 519//519 522//522 524//524
f 526//526 512//512 521//521
f 515//515 519//519 524//524
f 524//524 613//613 515//515
f 602//602 515//515 613//613
f 622//622 615//615 524//524
f 615//615 613//613 524//524
f 524//524 522//522 523//523
f 523//523 522//522 527//527
f 525//525 523//523 527//527
f 524//524 523//523 622//622
f 622//622 523//523 525//525
f 623//623 525//525 627//627
f 522//522 518//518 526//526
f 527//527 522//522 526//526
f 526//526 521//521 528//528
f 526//526 528//528 527//527
f 528//528 521//521 610//610
f 525//525 527//527 528//528
f 525//525 528//528 627//627
f 529//529 536//536 530//530
f 532//532 478//478 475//475
f 475//475 531//531 532//532
f 532//532 531//531 533//533
f 533//533 531//531 530//530
f 533//533 534//534 532//532
f 530//530 633//633 533//533
f 537//537 536//536 529//529
f 536//536 537//537 538//538
f 530//530 536//536 539//539
f 538//538 539//539 536//536
f 537//537 535//535 545//545
f 538//538 537//537 545//545
f 539//539 538//538 631//631
f 539//539 631//631 633//633
f 539//539 633//633 530//530
f 634//634 542//542 534//534
f 540//540 541//541 479//479
f 542//542 541//541 540//540
f 540//540 532//532 534//534
f 542//542 540//540 534//534
f 544//544 543//543 542//542
f 541//541 543//543 479//479
f 541//541 542//542 543//543
f 548//548 545//545 535//535
f 548//548 549//549 545//545
f 546//546 543//543 544//544
f 544//544 547//547 546//546
f 638//638 547//547 544//544
f 481//481 548//548 535//535
f 548//548 481//481 483//483
f 483//483 549//549 548//548
f 651//651 549//549 483//483
f 651//651 646//646 549//549
f 482//482 546//546 550//550
f 551//551 550//550 547//547
f 552//552 550//550 551//551
f 546//546 547//547 550//550
f 551//551 650//650 553//553
f 551//551 547//547 650//650
f 483//483 556//556 651//651
f 484//484 552//552 554//554
f 553//553 552//552 551//551
f 552//552 553//553 554//554
f 553//553 650//650 654//654
f 556//556 561//561 651//651
f 555//555 487//487 554//554
f 555//555 557//557 487//487
f 558//558 557//557 555//555
f 487//487 557//557 488//488
f 560//560 556//556 559//559
f 559//559 562//562 560//560
f 560//560 561//561 556//556
f 560//560 563//563 561//561
f 665//665 564//564 558//558
f 557//557 564//564 490//490
f 557//557 558//558 564//564
f 489//489 565//565 562//562
f 559//559 489//489 562//562
f 560//560 562//562 563//563
f 565//565 563//563 562//562
f 563//563 565//565 668//668
f 664//664 563//563 668//668
f 566//566 564//564 666//666
f 564//564 665//665 666//666
f 566//566 491//491 564//564
f 672//672 566//566 666//666
f 493//493 489//489 421//421
f 489//489 567//567 565//565
f 489//489 493//493 567//567
f 568//568 567//567 493//493
f 679//679 681//681 570//570
f 568//568 569//569 567//567
f 570//570 495//495 679//679
f 568//568 493//493 571//571
f 573//573 495//495 570//570
f 688//688 568//568 571//571
f 568//568 683//683 569//569
f 688//688 683//683 568//568
f 688//688 693//693 683//683
f 495//495 573//573 572//572
f 572//572 576//576 575//575
f 573//573 576//576 572//572
f 571//571 574//574 578//578
f 575//575 496//496 572//572
f 574//574 504//504 578//578
f 571//571 578//578 688//688
f 576//576 577//577 575//575
f 578//578 504//504 580//580
f 581//581 577//577 582//582
f 575//575 581//581 579//579
f 577//577 581//581 575//575
f 580//580 692//692 578//578
f 584//584 692//692 580//580
f 688//688 578//578 692//692
f 697//697 585//585 582//582
f 697//697 701//701 585//585
f 579//579 505//505 498//498
f 579//579 581//581 505//505
f 505//505 581//581 611//611
f 583//583 587//587 584//584
f 583//583 502//502 507//507
f 583//583 584//584 580//580
f 502//502 583//583 580//580
f 581//581 582//582 585//585
f 585//585 611//611 581//581
f 590//590 587//587 589//589
f 583//583 507//507 586//586
f 586//586 507//507 508//508
f 587//587 583//583 586//586
f 589//589 587//587 586//586
f 584//584 587//587 590//590
f 590//590 692//692 584//584
f 611//611 585//585 612//612
f 701//701 710//710 585//585
f 585//585 710//710 612//612
f 508//508 588//588 586//586
f 589//589 586//586 588//588
f 589//589 588//588 596//596
f 596//596 600//600 589//589
f 703//703 589//589 600//600
f 703//703 590//590 589//589
f 593//593 601//601 591//591
f 516//516 592//592 591//591
f 602//602 592//592 516//516
f 594//594 593//593 591//591
f 594//594 591//591 592//592
f 594//594 592//592 595//595
f 598//598 594//594 595//595
f 596//596 593//593 597//597
f 597//597 593//593 594//594
f 597//597 594//594 598//598
f 598//598 595//595 604//604
f 605//605 598//598 604//604
f 596//596 597//597 599//599
f 599//599 597//597 598//598
f 599//599 598//598 606//606
f 605//605 606//606 598//598
f 600//600 596//596 599//599
f 599//599 608//608 600//600
f 601//601 516//516 591//591
f 602//602 603//603 592//592
f 593//593 588//588 601//601
f 592//592 603//603 595//595
f 603//603 604//604 595//595
f 604//604 603//603 617//617
f 596//596 588//588 593//593
f 605//605 604//604 617//617
f 620//620 605//605 617//617
f 599//599 606//606 608//608
f 605//605 620//620 607//607
f 608//608 703//703 600//600
f 606//606 609//609 608//608
f 606//606 605//605 607//607
f 606//606 607//607 609//609
f 608//608 714//714 703//703
f 608//608 609//609 714//714
f 607//607 620//620 713//713
f 607//607 713//713 609//609
f 630//630 612//612 716//716
f 610//610 612//612 628//628
f 521//521 611//611 610//610
f 610//610 611//611 612//612
f 718//718 612//612 710//710
f 614//614 603//603 602//602
f 614//614 602//602 613//613
f 616//616 614//614 613//613
f 613//613 615//615 616//616
f 617//617 603//603 614//614
f 617//617 614//614 616//616
f 616//616 615//615 619//619
f 618//618 617//617 616//616
f 618//618 616//616 619//619
f 619//619 615//615 622//622
f 624//624 619//619 622//622
f 617//617 618//618 620//620
f 621//621 618//618 619//619
f 619//619 624//624 621//621
f 620//620 618//618 621//621
f 626//626 621//621 624//624
f 620//620 621//621 713//713
f 713//713 621//621 626//626
f 622//622 525//525 623//623
f 624//624 622//622 623//623
f 629//629 625//625 623//623
f 624//624 623//623 625//625
f 624//624 625//625 626//626
f 626//626 625//625 719//719
f 610//610 628//628 528//528
f 628//628 627//627 528//528
f 629//629 627//627 628//628
f 627//627 629//629 623//623
f 628//628 612//612 630//630
f 625//625 629//629 630//630
f 628//628 630//630 629//629
f 625//625 630//630 716//716
f 716//716 719//719 625//625
f 634//634 533//533 633//633
f 533//533 634//634 534//534
f 545//545 639//639 538//538
f 538//538 639//639 631//631
f 639//639 632//632 631//631
f 631//631 636//636 633//633
f 631//631 632//632 636//636
f 636//636 632//632 642//642
f 636//636 635//635 633//633
f 633//633 635//635 634//634
f 635//635 638//638 634//634
f 637//637 635//635 636//636
f 638//638 635//635 637//637
f 643//643 637//637 636//636
f 638//638 637//637 645//645
f 638//638 544//544 542//542
f 634//634 638//638 542//542
f 545//545 549//549 640//640
f 640//640 639//639 545//545
f 639//639 640//640 641//641
f 641//641 642//642 632//632
f 639//639 641//641 632//632
f 647//647 641//641 640//640
f 642//642 641//641 647//647
f 636//636 642//642 643//643
f 647//647 720//720 642//642
f 642//642 720//720 643//643
f 637//637 643//643 644//644
f 637//637 644//644 645//645
f 638//638 645//645 547//547
f 640//640 646//646 648//648
f 640//640 549//549 646//646
f 648//648 646//646 652//652
f 640//640 648//648 647//647
f 647//647 648//648 720//720
f 648//648 658//658 653//653
f 648//648 653//653 720//720
f 721//721 720//720 653//653
f 650//650 547//547 645//645
f 650//650 649//649 654//654
f 645//645 649//649 650//650
f 652//652 646//646 651//651
f 648//648 652//652 658//658
f 657//657 553//553 654//654
f 553//553 657//657 554//554
f 724//724 657//657 654//654
f 651//651 561//561 652//652
f 652//652 561//561 658//658
f 655//655 656//656 723//723
f 657//657 555//555 554//554
f 655//655 653//653 660//660
f 656//656 657//657 724//724
f 653//653 659//659 660//660
f 656//656 661//661 657//657
f 655//655 660//660 656//656
f 555//555 657//657 558//558
f 561//561 662//662 658//658
f 659//659 658//658 662//662
f 653//653 658//658 659//659
f 659//659 663//663 660//660
f 661//661 558//558 657//657
f 660//660 661//661 656//656
f 662//662 561//561 563//563
f 563//563 664//664 662//662
f 659//659 662//662 663//663
f 662//662 664//664 663//663
f 664//664 670//670 663//663
f 665//665 558//558 661//661
f 667//667 665//665 661//661
f 661//661 663//663 667//667
f 660//660 663//663 661//661
f 664//664 668//668 670//670
f 669//669 667//667 663//663
f 663//663 670//670 669//669
f 666//666 665//665 667//667
f 667//667 669//669 666//666
f 670//670 668//668 671//671
f 669//669 670//670 671//671
f 669//669 673//673 672//672
f 669//669 671//671 673//673
f 672//672 666//666 669//669
f 565//565 676//676 668//668
f 676//676 565//565 675//675
f 674//674 673//673 671//671
f 566//566 677//677 491//491
f 566//566 672//672 674//674
f 677//677 566//566 674//674
f 672//672 673//673 674//674
f 675//675 565//565 567//567
f 671//671 726//726 674//674
f 491//491 677//677 679//679
f 682//682 679//679 677//677
f 678//678 569//569 680//680
f 567//567 569//569 678//678
f 678//678 680//680 725//725
f 675//675 678//678 725//725
f 675//675 567//567 678//678
f 675//675 725//725 676//676
f 677//677 732//732 682//682
f 728//728 732//732 677//677
f 679//679 682//682 681//681
f 680//680 729//729 725//725
f 570//570 681//681 573//573
f 681//681 682//682 735//735
f 682//682 733//733 735//735
f 733//733 682//682 732//732
f 693//693 684//684 683//683
f 683//683 684//684 569//569
f 569//569 684//684 680//680
f 687//687 735//735 734//734
f 681//681 576//576 573//573
f 735//735 685//685 681//681
f 687//687 685//685 735//735
f 684//684 693//693 680//680
f 680//680 695//695 689//689
f 729//729 680//680 689//689
f 685//685 576//576 681//681
f 690//690 687//687 734//734
f 685//685 577//577 576//576
f 685//685 686//686 577//577
f 685//685 687//687 686//686
f 687//687 691//691 686//686
f 687//687 690//690 691//691
f 693//693 694//694 680//680
f 680//680 694//694 695//695
f 697//697 582//582 577//577
f 577//577 686//686 697//697
f 686//686 691//691 697//697
f 690//690 701//701 691//691
f 693//693 692//692 698//698
f 692//692 693//693 688//688
f 693//693 698//698 699//699
f 693//693 699//699 694//694
f 709//709 689//689 695//695
f 696//696 690//690 689//689
f 696//696 701//701 690//690
f 691//691 701//701 697//697
f 694//694 699//699 695//695
f 695//695 699//699 709//709
f 702//702 696//696 689//689
f 696//696 702//702 700//700
f 696//696 700//700 701//701
f 702//702 709//709 712//712
f 689//689 709//709 702//702
f 702//702 712//712 700//700
f 700//700 712//712 701//701
f 590//590 704//704 692//692
f 703//703 704//704 590//590
f 704//704 703//703 714//714
f 698//698 692//692 704//704
f 698//698 704//704 706//706
f 705//705 704//704 714//714
f 704//704 705//705 706//706
f 699//699 698//698 706//706
f 706//706 707//707 699//699
f 709//709 699//699 707//707
f 716//716 718//718 711//711
f 708//708 716//716 711//711
f 707//707 708//708 709//709
f 711//711 701//701 712//712
f 701//701 711//711 710//710
f 711//711 718//718 710//710
f 711//711 712//712 708//708
f 708//708 712//712 709//709
f 705//705 609//609 713//713
f 705//705 713//713 715//715
f 609//609 705//705 714//714
f 715//715 626//626 719//719
f 715//715 713//713 626//626
f 715//715 719//719 717//717
f 707//707 715//715 717//717
f 706//706 705//705 707//707
f 705//705 715//715 707//707
f 612//612 718//718 716//716
f 719//719 716//716 717//717
f 716//716 708//708 717//717
f 717//717 708//708 707//707
f 645//645 644//644 649//649
f 643//643 720//720 644//644
f 720//720 721//721 644//644
f 649//649 644//644 722//722
f 721//721 722//722 644//644
f 722//722 724//724 649//649
f 722//722 723//723 724//724
f 649//649 724//724 654//654
f 721//721 653//653 723//723
f 655//655 723//723 653//653
f 722//722 721//721 723//723
f 724//724 723//723 656//656
f 676//676 726//726 668//668
f 726//726 671//671 668//668
f 676//676 725//725 726//726
f 727//727 730//730 726//726
f 726//726 725//725 727//727
f 726//726 728//728 674//674
f 674//674 728//728 677//677
f 728//728 726//726 730//730
f 725//725 729//729 731//731
f 725//725 731//731 727//727
f 731//731 730//730 727//727
f 731//731 734//734 730//730
f 730//730 732//732 728//728
f 731//731 689//689 734//734
f 731//731 729//729 689//689
f 730//730 734//734 733//733
f 733//733 732//732 730//730
f 734//734 689//689 690//690
f 734//734 735//735 733//733
