# Wavafront OBJ file of BodyParts3D
# BodyParts3D, Copyright(C) 2010-2011 The Database Center for Life Science licensed under CC Attribution-Share Alike 2.1 Japan.
vn 0.0115003 -0.933381 -0.358702
v -13.8139 -155.009 1503.65
vn 0.139227 -0.294053 -0.945594
v -13.5774 -152.824 1499.23
vn -0.880246 -0.434854 -0.189919
v -13.9505 -152.824 1499.28
vn 0.0115003 -0.933381 -0.358702
v -13.7095 -153.448 1499.59
vn -0.45593 0.673602 0.581711
v -13.5774 -153.504 1502.4
vn 0.0728172 -0.114638 -0.990735
v -12.9533 -150.64 1499.19
vn -0.936065 0.288008 0.202074
v -13.6335 -151.576 1499.59
vn -0.829054 -0.555536 -0.0636279
v -13.8895 -145.073 1493.35
vn -0.725505 -0.682985 0.0847061
v -13.6605 -145.334 1493.97
vn -0.879222 -0.333734 0.339984
v -13.8895 -145.022 1494.04
vn -0.930153 -0.141183 0.338942
v -12.7899 -145.022 1495.53
vn -0.429883 -0.447485 -0.784193
v -13.5774 -144.086 1491.6
vn -0.667356 -0.501396 -0.550671
v -14.443 -143.774 1492.1
vn -0.87146 0.200222 0.447738
v -14.287 -143.149 1492.41
vn -0.927934 -0.371842 0.0259346
v -14.1602 -144.398 1493.35
vn -0.861867 0.170269 0.477695
v -13.7018 -143.774 1494.28
vn -0.904005 0.263106 0.336971
v -13.1361 -142.837 1494.6
vn -0.918848 0.0840837 0.385549
v -12.9533 -143.149 1495.16
vn -0.796958 0.0798433 0.598734
v -14.9306 -140.341 1491.16
vn -0.187995 -0.314453 -0.930472
v -12.9533 -141.277 1490.12
vn -0.86832 -0.0807246 0.489391
v -13.4775 -140.341 1492.41
vn -0.926612 -0.35549 0.122543
v -13.4677 -139.716 1493.66
vn -0.987894 -0.151342 0.034065
v -13.0386 -140.965 1495.53
vn -0.983574 -0.0595682 0.170391
v -13.1166 -140.341 1494.6
vn -0.92283 -0.27777 0.266888
v -13.2385 -140.028 1494.28
vn -0.992577 -0.0341333 0.116732
v -12.8094 -141.901 1495.53
vn -0.907441 0.271148 0.320983
v -12.746 -141.277 1494.28
vn -0.971401 0.132271 0.197191
v -12.9533 -140.653 1495.91
vn -0.925554 0.166261 0.340159
v -12.9533 -140.07 1494.91
vn -0.959675 -0.182041 -0.21421
v -15.0177 -138.78 1490.23
vn -0.957047 -0.189453 -0.219476
v -14.8258 -139.404 1489.9
vn -0.680215 0.167212 -0.713686
v -14.8258 -138.78 1490.04
vn -0.847882 0.378027 0.371742
v -14.2016 -137.575 1491.16
vn -0.563671 0.682605 -0.465109
v -13.5774 -137.378 1490.54
vn -0.0288031 0.0837396 -0.996071
v -13.2653 -139.092 1489.79
vn -0.857551 0.172738 0.484529
v -14.326 -138.468 1491.79
vn -0.932982 -0.288981 0.214556
v -13.9846 -138.468 1492.41
vn -0.914001 -0.400061 0.067477
v -13.5774 -139.404 1494.02
vn -0.683123 0.383689 0.621389
v -13.2653 -139.092 1494.17
vn -0.791939 0.389335 0.470374
v -13.2653 -137.968 1493.35
vn -0.0774912 0.96283 0.258752
v -13.2653 -137.715 1492.72
vn -0.82962 0.0466109 0.55638
v -13.2653 -139.404 1494.34
vn -0.0792667 0.641905 0.762676
v -12.9533 -139.404 1494.4
vn -0.158287 -0.476649 -0.864726
v -10.4565 -169.494 1498.97
vn -0.606091 -0.460232 -0.648722
v -11.5269 -170.301 1499.9
vn -0.606091 -0.460232 -0.648722
v -11.0807 -170.889 1499.9
vn -0.606091 -0.460232 -0.648722
v -11.0807 -170.301 1499.48
vn -0.692115 -0.17443 -0.700394
v -11.0807 -169.443 1499.28
vn -0.107293 -0.97556 0.191759
v -10.4565 -170.913 1500.84
vn -0.728128 -0.678469 0.0975167
v -12.3023 -169.677 1501.77
vn -0.409443 -0.83617 0.364932
v -11.7049 -169.977 1502.71
vn 0.0319666 -0.814436 0.579372
v -11.0807 -169.548 1503.65
vn 0.396456 -0.618209 0.678706
v -10.7686 -169.795 1503.33
vn 0.380359 -0.69661 0.608327
v -10.7686 -169.45 1503.65
vn -0.0873326 -0.887532 0.452393
v -10.4565 -170.299 1502.71
vn 0.769771 -0.226252 0.596878
v -10.4565 -169.677 1503.1
vn -0.836087 0.122372 -0.534774
v -10.9125 -168.429 1498.97
vn -0.78368 0.558847 -0.271173
v -10.8198 -168.117 1498.97
vn -0.470837 -0.163692 -0.866901
v -10.4565 -168.429 1498.42
vn -0.545044 0.721971 -0.426245
v -10.4565 -167.88 1498.97
vn -0.882787 0.161344 -0.441197
v -11.8731 -169.365 1500.53
vn -0.862756 0.43094 -0.264465
v -11.0588 -168.429 1499.28
vn -0.732853 0.669583 -0.12077
v -10.8345 -168.117 1499.28
vn -0.770925 0.541912 -0.334674
v -11.0807 -168.117 1500.12
vn -0.644183 0.744506 -0.175326
v -10.5245 -167.804 1499.59
vn -0.919697 0.339178 -0.197775
v -12.4095 -167.804 1503.33
vn 0.893357 -0.00250232 0.449341
v -10.3273 -168.429 1502.71
vn -0.905602 -0.282569 0.31629
v -12.3364 -168.429 1504.27
vn -0.575194 -0.602496 0.553309
v -11.7049 -168.529 1505.21
vn -0.720856 -0.360276 0.592088
v -11.7049 -167.554 1505.83
vn -0.528145 -0.488131 0.694832
v -11.3928 -167.804 1505.89
vn -0.531565 -0.531422 0.659567
v -11.3928 -167.478 1506.14
vn -0.020811 -0.872135 0.488823
v -11.0807 -168.86 1504.9
vn 0.273305 -0.616007 0.73881
v -11.0807 -168.117 1505.32
vn 0.90098 -0.0670426 0.428649
v -10.9612 -167.804 1505.21
vn 0.775499 -0.523005 0.353648
v -11.0807 -167.349 1506.14
vn 0.964739 0.122662 0.232879
v -10.8393 -167.18 1504.58
vn 0.933083 -0.140447 0.331106
v -10.6053 -168.429 1504.27
vn -0.849028 0.335892 -0.407834
v -10.4687 -166.556 1500.53
vn -0.800369 0.594009 -0.0810156
v -10.6345 -166.244 1501.46
vn -0.9365 0.085328 0.340128
v -11.7951 -166.556 1505.83
vn 0.800351 -0.599325 0.0157543
v -10.5711 -166.868 1505.21
vn -0.796532 -0.0942928 0.597198
v -11.3928 -166.556 1506.79
vn -0.572665 -0.397478 0.716984
v -11.0807 -166.868 1506.91
vn -0.828791 -0.546256 0.121283
v -10.2298 -149.703 1498.34
vn 0.336131 -0.491864 -0.803173
v -10.7686 -151.888 1500.17
vn -0.896595 -0.436998 -0.071762
v -10.9174 -149.391 1495.84
vn -0.650848 0.153353 -0.743558
v -12.3291 -148.767 1499.03
vn -0.736011 0.0965289 -0.670052
v -12.0682 -147.207 1498.97
vn -0.0988983 -0.237182 -0.966418
v -12.017 -149.391 1498.99
vn -0.567921 -0.148328 -0.809608
v -11.7049 -148.143 1498.43
vn -0.753154 -0.628166 -0.195361
v -11.9024 -146.894 1492.72
vn -0.81724 -0.535613 0.212693
v -12.4193 -146.27 1495.22
vn -0.990769 0.043267 0.12847
v -11.5318 -145.334 1500.84
vn -0.771772 0.224101 0.595102
v -10.3468 -145.022 1502.4
vn -0.652864 0.622734 0.431244
v -10.5321 -144.398 1501.46
vn 0.0562479 0.810513 0.583014
v -10.7686 -143.885 1500.53
vn 0.866652 0.496854 -0.0452769
v -10.3176 -144.398 1500.21
vn 0.521128 0.0175685 -0.853298
v -12.017 -140.965 1490.19
vn -0.212417 0.736352 0.64239
v -12.6412 -139.831 1494.91
vn 0.685458 0.408385 -0.602801
v -11.8634 -138.78 1490.85
vn -0.106936 0.533346 0.839111
v -12.3291 -138.095 1493.66
vn 0.859867 0.491167 0.139227
v -11.3806 -139.404 1493.97
vn 0.778618 0.621899 -0.0836476
v -11.3928 -138.924 1491.79
vn 0.130163 0.684483 0.717315
v -12.017 -139.404 1494.38
vn 0.129698 -0.594029 -0.793919
v -10.1444 -170.65 1499.9
vn 0.398918 -0.91676 0.0203651
v -10.1444 -170.884 1500.84
vn 0.727939 -0.6241 -0.283908
v -9.05945 -169.989 1500.53
vn 0.782467 -0.562893 0.266265
v -9.05709 -169.989 1500.84
vn -0.00282101 -0.308025 -0.951374
v -9.52027 -168.501 1498.34
vn 0.0784304 -0.192262 -0.978204
v -9.20818 -167.492 1498.27
vn 0.871666 -0.391482 -0.294855
v -8.584 -167.18 1498.29
vn -0.775243 0.435375 -0.457653
v -9.83236 -167.231 1499.28
vn 0.806321 -0.200059 0.556617
v -9.16673 -169.365 1501.46
vn 0.93326 -0.351132 0.0757148
v -8.68884 -169.365 1500.53
vn 0.798971 -0.14685 0.583164
v -8.367 -167.492 1500.84
vn -0.791572 -0.0318447 -0.610245
v -9.10888 -164.684 1497.72
vn -0.971501 0.227533 -0.0664381
v -9.52027 -164.528 1500.21
vn 0.691576 -0.64219 0.330627
v -9.83236 -166.129 1503.96
vn 0.638687 -0.728315 0.248264
v -8.584 -165.076 1506.46
vn 0.296571 -0.707012 0.642013
v -9.52027 -164.684 1508.05
vn -0.416803 -0.156144 -0.895486
v -8.27191 -164.059 1497.09
vn 0.24348 -0.431935 -0.868418
v -7.95982 -164.371 1497.07
vn 0.57825 -0.257621 -0.774118
v -7.95982 -163.123 1496.82
vn -0.744019 0.616071 0.258635
v -8.39524 -163.747 1501.15
vn -0.521762 -0.213561 0.825928
v -9.83236 -164.371 1508.34
vn 0.122643 -0.857286 0.500019
v -9.20818 -164.371 1508.35
vn 0.924419 -0.368611 0.0978568
v -7.90862 -163.435 1508.33
vn -0.858635 -0.190408 0.47591
v -9.3164 -162.811 1510.2
vn -0.188451 -0.846406 0.498079
v -8.62446 -162.811 1511.45
vn 0.255437 -0.864698 0.432492
v -8.584 -163.555 1510.2
vn -0.870087 -0.101872 0.482257
v -8.584 -162.499 1511.59
vn 0.509956 -0.739983 0.4386
v -8.12577 -162.499 1511.45
vn 0.903493 0.166741 0.394838
v -7.96713 -162.187 1511.14
vn 0.287288 -0.139395 0.947647
v -8.27191 -162.187 1511.54
vn 0.978924 -0.163081 0.122932
v -7.77695 -163.123 1509.89
vn -0.569884 -0.270505 -0.775925
v -8.69372 -161.251 1496.47
vn -0.943959 -0.105535 -0.312737
v -9.12284 -161.251 1497.09
vn -0.800085 0.578518 0.158687
v -8.27922 -161.563 1510.82
vn -0.964829 0.209729 -0.158488
v -7.9722 -160.938 1510.51
vn 0.968512 0.10176 0.227221
v -7.90862 -161.251 1510.51
vn -0.934748 0.279438 -0.219455
v -7.95982 -160.314 1510.65
vn 0.0115003 -0.933381 -0.358702
v -8.584 -157.103 1509.26
vn -0.997815 0.0660734 0
v -7.95982 -157.505 1509.32
vn -0.870791 0.298181 -0.390911
v -7.95982 -157.505 1509.72
vn 0.556027 0.321466 -0.766481
v -7.78183 -157.193 1509.58
vn -0.577467 -0.355648 -0.734879
v -8.47428 -155.633 1494.28
vn -0.711413 -0.466289 0.5258
v -8.89609 -156.569 1509.32
vn -0.709268 -0.227553 -0.667203
v -8.60821 -153.136 1493.35
vn -0.232725 -0.512958 -0.826265
v -7.95982 -154.385 1493.2
vn -0.400842 -0.292156 -0.868315
v -7.95982 -154.072 1493.02
vn -0.262869 -0.0180531 -0.964663
v -7.95982 -153.76 1492.99
vn -0.38278 -0.534001 -0.753872
v -7.95982 -153.136 1493.02
vn -0.515395 -0.429254 -0.741694
v -7.95982 -152.2 1492.36
vn 0.302844 0.47153 0.828218
v -8.584 -153.448 1506.07
vn -0.552925 -0.327057 -0.76636
v -8.27191 -151.264 1492.22
vn 0.594343 0.0353748 -0.803434
v -8.14268 -150.015 1492.1
vn 0.938193 0.0198577 -0.345541
v -7.73794 -151.888 1492.72
vn -0.815991 -0.567643 0.109274
v -9.21549 -150.952 1498.65
vn -0.717599 0.135477 0.683153
v -8.89609 -151.888 1505.73
vn -0.646393 0.141289 0.749809
v -8.89609 -150.015 1505.2
vn -0.450571 0.155911 0.879021
v -8.584 -149.703 1505.3
vn 0.958036 0.172175 0.229178
v -7.85985 -149.703 1504.27
vn 0.611802 0.173929 -0.771652
v -8.584 -147.831 1492.17
vn 0.929247 0.186068 -0.319185
v -8.16219 -147.831 1492.72
vn 0.909669 0.414567 0.0252053
v -9.02044 -147.207 1498.97
vn -0.867535 0.156211 0.472209
v -9.4008 -147.519 1503.96
vn 0.895335 0.439367 -0.073016
v -8.60594 -147.831 1503.02
vn -0.756078 0.0655564 0.65119
v -8.98773 -148.767 1504.9
vn -0.630517 -0.00783829 0.776136
v -8.89609 -147.207 1504.99
vn -0.539747 0.0575423 0.839858
v -8.584 -147.831 1505.15
vn 0.669629 0.491161 0.557097
v -8.584 -147.35 1504.9
vn 0.912564 0.406049 -0.0484882
v -8.584 -147.149 1504.58
vn 0.947925 0.313634 -0.0554211
v -8.02077 -148.767 1504.27
vn 0.887737 0.206787 0.411294
v -8.11343 -148.455 1504.9
vn -0.457508 -0.375711 -0.805933
v -10.1444 -146.582 1491.58
vn 0.543014 0.0738529 -0.83647
v -9.83236 -146.27 1491.69
vn 0.706212 0.179944 -0.684752
v -8.95217 -145.646 1492.72
vn 0.88021 0.42612 0.20893
v -9.52027 -145.022 1496.57
vn 0.931614 0.328169 -0.156204
v -9.78603 -145.334 1501.15
vn -0.728152 0.0441338 0.683993
v -9.7209 -145.646 1503.02
vn 0.962057 0.242241 0.125561
v -9.62511 -144.71 1502.71
vn -0.93321 0.160394 0.321549
v -9.29352 -146.894 1503.96
vn -0.775304 0.182162 0.604749
v -9.52027 -146.582 1503.49
vn 0.840063 0.513309 0.17552
v -9.3581 -146.27 1503.33
vn 0.961356 0.272809 -0.0370213
v -9.49833 -145.646 1502.4
vn 0.895477 0.394508 0.206117
v -9.52027 -145.646 1502.77
vn 0.870325 0.458224 -0.180458
v -8.90476 -146.894 1503.96
vn -0.921237 0.0373124 0.387208
v -9.20818 -146.894 1504.64
vn 0.843978 0.492703 -0.212004
v -8.89609 -146.662 1504.58
vn 0.964796 0.212832 -0.154502
v -9.39104 -144.086 1492.41
vn 0.928913 0.364741 0.0639064
v -9.34716 -143.774 1493.04
vn -0.432897 0.823238 0.36726
v -10.1444 -144.194 1501.46
vn 0.879899 0.470586 -0.0657844
v -9.67388 -144.398 1502.4
vn -0.740561 0.274214 0.613495
v -9.83236 -144.331 1502.71
vn 0.920561 0.312267 -0.234641
v -9.86406 -141.901 1492.1
vn 0.913423 -0.387223 -0.125371
v -7.64773 -165.998 1501.46
vn 0.449723 -0.87216 0.192577
v -7.02355 -165.676 1501.46
vn 0.880214 -0.299999 -0.367729
v -7.02355 -164.996 1500.58
vn 0.548945 -0.556381 0.623779
v -7.02355 -164.996 1502.01
vn 0.963325 -0.224427 -0.147099
v -7.13814 -163.747 1498.65
vn 0.821335 -0.29862 -0.48604
v -7.04062 -162.811 1497.41
vn -0.745419 0.666277 -0.020633
v -6.71146 -162.598 1503.65
vn 0.632636 -0.566308 0.528267
v -6.39937 -164.074 1502.09
vn 0.806103 -0.558021 0.197003
v -5.97756 -163.123 1503.33
vn 0.853954 -0.420664 0.306276
v -7.45511 -163.747 1505.83
vn 0.439175 -0.419257 -0.794575
v -7.64773 -159.69 1495.42
vn 0.881372 -0.142363 -0.450462
v -6.08728 -160.002 1499.44
vn 0.946301 -0.277078 -0.16656
v -5.37289 -161.875 1501.15
vn -0.803552 0.509773 0.307304
v -6.01657 -160.938 1502.71
vn -0.98382 0.104337 -0.145646
v -7.02355 -159.456 1506.14
vn 0.889956 -0.356714 0.284137
v -5.21197 -160.626 1504.9
vn 0.895514 -0.331379 0.297056
v -7.3714 -161.563 1508.02
vn -0.783105 0.525583 -0.33243
v -7.64773 -161.322 1508.02
vn 0.983598 -0.101536 0.149085
v -7.42098 -161.563 1508.33
vn -0.907067 0.375727 -0.189889
v -7.64773 -161.251 1508.12
vn 0.687904 -0.573919 0.444304
v -7.02355 -161.259 1507.7
vn 0.561855 -0.710184 0.424215
v -7.02355 -161.05 1508.02
vn 0.300373 0.648616 0.699338
v -7.64773 -160.25 1510.51
vn -0.937689 0.300791 -0.173965
v -7.64773 -160.002 1510.28
vn 0.852219 0.395934 -0.341993
v -7.33564 -160.129 1510.2
vn -0.824711 0.0639018 0.561933
v -7.64773 -157.505 1500.51
vn -0.870791 0.298181 -0.390911
v -7.64773 -157.193 1509.26
vn -0.988354 0.0999965 -0.114706
v -7.56971 -159.378 1509.89
vn -0.832049 -0.548683 0.081494
v -7.5314 -158.13 1509.89
vn 0.343738 0.649602 0.678131
v -7.64773 -157.198 1509.26
vn 0.319702 0.319132 0.892158
v -7.64773 -157.425 1509.58
vn -0.82056 0.375024 0.431322
v -7.28444 -158.754 1509.89
vn -0.204444 -0.391911 -0.897
v -7.64773 -155.009 1493.54
vn -0.154423 -0.114436 -0.981355
v -7.33564 -155.633 1493.56
vn 0.121034 -0.087535 -0.988781
v -7.33564 -154.697 1493.48
vn -0.377398 -0.358691 -0.853764
v -7.02355 -155.945 1493.5
vn 0.195426 0.0821819 -0.977269
v -6.99135 -155.321 1493.66
vn 0.910175 0.196406 -0.364699
v -7.00161 -154.697 1493.97
vn 0.931684 0.0435206 -0.360654
v -6.66513 -155.945 1493.97
vn 0.986819 0.00353198 -0.16179
v -6.55298 -155.945 1496.78
vn 0.0296982 -0.319362 -0.947167
v -7.64773 -154.072 1492.99
vn 0.719234 0.153931 -0.677501
v -7.5819 -152.824 1493.35
vn -0.93902 -0.343523 0.0152492
v -7.30882 -153.76 1500.84
vn -0.0859504 -0.85882 -0.505016
v -7.64773 -152.792 1501.77
vn 0.248485 0.467925 0.848116
v -7.64773 -153.76 1505.9
vn 0.905148 0.362858 0.221453
v -7.15765 -151.888 1503.33
vn 0.953894 0.268127 0.134883
v -4.895 -155.945 1503.33
vn -0.72601 -0.472326 0.499818
v -13.8139 -155.009 1503.65
vn -0.520874 0.592137 0.614868
v -13.8139 -155.009 1503.65
vn -0.880246 -0.434854 -0.189919
v -13.8139 -155.009 1503.65
vn -0.936065 0.288008 0.202074
v -13.8139 -155.009 1503.65
vn -0.132252 -0.237731 -0.962286
v -13.9505 -152.824 1499.28
vn -0.967812 0.211703 0.136096
v -13.9505 -152.824 1499.28
vn -0.774644 0.331362 -0.538634
v -13.9505 -152.824 1499.28
vn -0.880246 -0.434854 -0.189919
v -13.7095 -153.448 1499.59
vn -0.119403 -0.480564 -0.868793
v -13.7095 -153.448 1499.59
vn 0.455797 -0.620859 -0.637795
v -13.7095 -153.448 1499.59
vn -0.89385 0.361092 0.265792
v -13.5774 -153.504 1502.4
vn -0.720811 0.2451 -0.64835
v -12.9533 -150.64 1499.19
vn -0.720811 0.2451 -0.64835
v -13.6335 -151.576 1499.59
vn -0.890096 0.356502 -0.283964
v -13.6335 -151.576 1499.59
vn -0.394613 0.753772 0.52546
v -13.6335 -151.576 1499.59
vn -0.789122 0.0571645 0.611571
v -13.6335 -151.576 1499.59
vn -0.930359 0.051023 0.363083
v -14.443 -143.774 1492.1
vn -0.954333 -0.196847 -0.224722
v -14.443 -143.774 1492.1
vn -0.933655 0.108733 0.341269
v -14.1602 -144.398 1493.35
vn -0.957047 -0.189453 -0.219476
v -14.9306 -140.341 1491.16
vn -0.943302 -0.331875 0.00632346
v -12.746 -141.277 1494.28
vn -0.344592 0.776309 0.527826
v -12.9533 -140.653 1495.91
vn -0.628183 0.465304 0.623602
v -12.9533 -140.653 1495.91
vn -0.478363 0.625177 0.616703
v -12.9533 -140.07 1494.91
vn -0.680215 0.167212 -0.713686
v -15.0177 -138.78 1490.23
vn -0.563671 0.682605 -0.465109
v -15.0177 -138.78 1490.23
vn -0.900899 0.260402 0.347234
v -15.0177 -138.78 1490.23
vn -0.176067 -0.132357 -0.975439
v -14.8258 -139.404 1489.9
vn -0.680215 0.167212 -0.713686
v -14.8258 -139.404 1489.9
vn -0.520533 0.656331 -0.546146
v -14.8258 -138.78 1490.04
vn -0.0947972 0.309481 -0.946169
v -14.8258 -138.78 1490.04
vn -0.60167 0.702654 -0.37983
v -14.2016 -137.575 1491.16
vn -0.293962 0.920176 0.258577
v -14.2016 -137.575 1491.16
vn -0.0740098 0.389969 -0.917849
v -13.5774 -137.378 1490.54
vn 0.486168 0.424312 -0.763937
v -13.5774 -137.378 1490.54
vn 0.3702 0.928946 0.00329687
v -13.5774 -137.378 1490.54
vn 0.528617 0.315692 -0.787974
v -13.2653 -139.092 1489.79
vn -0.822662 0.360802 0.439373
v -13.9846 -138.468 1492.41
vn -0.743362 0.272241 0.610981
v -13.5774 -139.404 1494.02
vn -0.0974437 0.53215 0.841024
v -13.2653 -139.092 1494.17
vn -0.225532 0.902616 0.366633
v -13.2653 -137.968 1493.35
vn -0.185004 0.582193 0.791723
v -13.2653 -137.968 1493.35
vn -0.24371 0.558531 0.792874
v -13.2653 -139.404 1494.34
vn -0.78995 -0.599845 -0.12714
v -11.5269 -170.301 1499.9
vn -0.93076 -0.11221 -0.347986
v -11.5269 -170.301 1499.9
vn -0.664636 0.228455 -0.711384
v -11.5269 -170.301 1499.9
vn -0.602105 -0.795003 0.0737586
v -11.0807 -170.889 1499.9
vn 0.146081 -0.572414 -0.806848
v -11.0807 -170.889 1499.9
vn 0.167608 -0.97236 -0.162552
v -11.0807 -170.889 1499.9
vn -0.771545 0.0519812 -0.634047
v -11.0807 -170.301 1499.48
vn 0.135961 -0.588126 -0.79726
v -11.0807 -170.301 1499.48
vn -0.450882 -0.209544 -0.867639
v -11.0807 -170.301 1499.48
vn -0.978708 -0.00399896 -0.20522
v -12.3023 -169.677 1501.77
vn 0.915082 -0.195391 0.35277
v -10.7686 -169.45 1503.65
vn 0.712422 -0.471905 0.519385
v -10.4565 -170.299 1502.71
vn -0.415787 0.638669 -0.647475
v -10.8198 -168.117 1498.97
vn -0.470001 0.619851 -0.628398
v -10.4565 -168.429 1498.42
vn 0.715015 -0.475194 0.51278
v -10.3273 -168.429 1502.71
vn 0.273305 -0.616007 0.73881
v -11.7049 -168.529 1505.21
vn 0.367153 -0.717881 0.591478
v -11.3928 -167.804 1505.89
vn 0.838925 -0.130388 0.528397
v -11.3928 -167.804 1505.89
vn 0.637524 -0.657514 0.401545
v -11.3928 -167.804 1505.89
vn 0.246213 -0.591407 0.767865
v -11.3928 -167.804 1505.89
vn 0.293688 -0.705442 0.645057
v -11.3928 -167.478 1506.14
vn 0.16828 -0.488943 0.855931
v -11.0807 -168.86 1504.9
vn 0.847234 -0.318277 0.425318
v -11.0807 -168.86 1504.9
vn 0.855962 -0.189747 0.480963
v -11.0807 -168.117 1505.32
vn 0.852564 -0.493021 0.173392
v -10.9612 -167.804 1505.21
vn 0.485629 -0.749346 0.45016
v -11.0807 -167.349 1506.14
vn 0.835775 -0.541949 -0.0881546
v -10.8393 -167.18 1504.58
vn 0.755482 -0.4307 0.493704
v -10.8393 -167.18 1504.58
vn -0.675927 0.724055 -0.13736
v -11.7951 -166.556 1505.83
vn 0.426711 -0.697034 0.576248
v -11.0807 -166.868 1506.91
vn -0.372363 -0.301254 -0.877834
v -10.2298 -149.703 1498.34
vn -0.714219 -0.662032 -0.227168
v -10.2298 -149.703 1498.34
vn -0.319929 -0.81126 -0.489391
v -10.2298 -149.703 1498.34
vn -0.874276 -0.0764423 0.479372
v -10.9174 -149.391 1495.84
vn -0.959059 0.269174 -0.0880374
v -12.3291 -148.767 1499.03
vn -0.505812 -0.0555141 -0.860856
v -12.3291 -148.767 1499.03
vn -0.992827 -0.0466449 0.110081
v -12.0682 -147.207 1498.97
vn -0.319929 -0.81126 -0.489391
v -12.017 -149.391 1498.99
vn -0.891821 -0.446574 -0.0722948
v -11.7049 -148.143 1498.43
vn -0.403141 -0.392675 -0.82661
v -11.9024 -146.894 1492.72
vn -0.863766 -0.494612 -0.0962654
v -12.4193 -146.27 1495.22
vn -0.707622 0.480724 0.517857
v -11.5318 -145.334 1500.84
vn -0.760013 0.131742 0.636415
v -11.5318 -145.334 1500.84
vn -0.603161 0.583803 0.54348
v -10.7686 -143.885 1500.53
vn 0.843697 0.530452 0.0824338
v -10.7686 -143.885 1500.53
vn 0.447736 0.881614 0.149296
v -12.3291 -138.095 1493.66
vn 0.467366 0.510608 0.721698
v -12.3291 -138.095 1493.66
vn 0.406556 0.663764 0.627797
v -11.3806 -139.404 1493.97
vn 0.510694 -0.794003 -0.329775
v -10.1444 -170.65 1499.9
vn 0.671197 -0.539154 -0.508731
v -9.52027 -168.501 1498.34
vn -0.51081 0.658799 -0.552319
v -9.20818 -167.492 1498.27
vn -0.583483 -0.15987 -0.796234
v -9.20818 -167.492 1498.27
vn 0.163428 -0.266672 -0.94983
v -8.584 -167.18 1498.29
vn 0.881324 -0.36215 -0.303504
v -8.584 -167.18 1498.29
vn 0.449723 -0.87216 0.192577
v -8.584 -167.18 1498.29
vn 0.955533 -0.271626 -0.114786
v -8.367 -167.492 1500.84
vn 0.703228 -0.534293 0.469042
v -8.367 -167.492 1500.84
vn -0.695302 0.659355 0.286016
v -9.52027 -164.528 1500.21
vn -0.693183 0.154782 0.703946
v -9.52027 -164.528 1500.21
vn -0.272214 -0.21386 -0.93817
v -7.95982 -164.371 1497.07
vn 0.70701 -0.277222 -0.650604
v -7.95982 -164.371 1497.07
vn -0.361929 -0.197149 -0.91112
v -7.95982 -163.123 1496.82
vn -0.678094 0.154465 0.718561
v -8.39524 -163.747 1501.15
vn -0.860805 0.358345 0.361392
v -9.83236 -164.371 1508.34
vn -0.00477861 -0.775822 0.630934
v -9.83236 -164.371 1508.34
vn -0.761222 0.592223 -0.26422
v -9.83236 -164.371 1508.34
vn -0.840307 -0.277419 0.465751
v -9.83236 -164.371 1508.34
vn -0.806114 0.591704 -0.00820147
v -9.3164 -162.811 1510.2
vn -0.858635 -0.190408 0.47591
v -8.62446 -162.811 1511.45
vn 0.470258 -0.751421 0.462844
v -8.62446 -162.811 1511.45
vn 0.263213 -0.420586 0.868232
v -8.62446 -162.811 1511.45
vn -0.684617 0.581279 0.439788
v -8.584 -162.499 1511.59
vn 0.278257 -0.283048 0.917855
v -8.584 -162.499 1511.59
vn 0.278257 -0.283048 0.917855
v -8.12577 -162.499 1511.45
vn 0.89064 0.0020466 0.454704
v -8.12577 -162.499 1511.45
vn 0.000187378 0.447192 0.894438
v -7.96713 -162.187 1511.14
vn -0.542899 0.629631 0.55572
v -8.27191 -162.187 1511.54
vn 0.733083 0.392708 0.555311
v -8.27191 -162.187 1511.54
vn 0.544881 -0.754577 0.365675
v -7.77695 -163.123 1509.89
vn 0.65291 0.573673 0.49458
v -8.27922 -161.563 1510.82
vn 0.000187378 0.447192 0.894438
v -8.27922 -161.563 1510.82
vn 0.000187378 0.447192 0.894438
v -7.9722 -160.938 1510.51
vn 0.941573 0.191843 0.276832
v -7.9722 -160.938 1510.51
vn 0.679892 -0.362138 0.637654
v -7.9722 -160.938 1510.51
vn 0.170345 0.670079 0.722479
v -7.95982 -160.314 1510.65
vn 0.41887 -0.197424 0.886325
v -7.95982 -160.314 1510.65
vn -0.711413 -0.466289 0.5258
v -8.584 -157.103 1509.26
vn 0.106826 -0.840734 -0.530806
v -8.584 -157.103 1509.26
vn -0.572327 0.662954 0.482632
v -7.95982 -157.505 1509.32
vn 0.701702 -0.71247 0
v -7.95982 -157.505 1509.32
vn 0.556027 0.321466 -0.766481
v -7.95982 -157.505 1509.32
vn 0.610125 -0.683007 -0.401557
v -7.95982 -157.505 1509.32
vn 0.701595 -0.647674 0.297124
v -7.95982 -157.505 1509.32
vn 0.343738 0.649602 0.678131
v -7.95982 -157.505 1509.72
vn -0.696159 -0.459821 0.551296
v -7.95982 -157.505 1509.72
vn -0.997815 0.0660734 0
v -7.95982 -157.505 1509.72
vn -0.175724 -0.843567 -0.50746
v -7.95982 -157.505 1509.72
vn -0.832049 -0.548683 0.081494
v -7.95982 -157.505 1509.72
vn 0.219326 0.351762 0.910033
v -7.95982 -157.505 1509.72
vn 0.701702 -0.71247 0
v -7.95982 -157.505 1509.72
vn 0.701595 -0.647674 0.297124
v -7.78183 -157.193 1509.58
vn 0.21092 0.456339 0.864447
v -7.78183 -157.193 1509.58
vn 0.860407 0.356268 0.364381
v -7.78183 -157.193 1509.58
vn -0.484347 0.630084 0.606961
v -8.89609 -156.569 1509.32
vn 0.201573 0.605809 0.769651
v -8.89609 -156.569 1509.32
vn -0.523778 -0.40645 -0.748636
v -8.60821 -153.136 1493.35
vn -0.213668 0.037991 -0.976167
v -7.95982 -153.136 1493.02
vn 0.543043 0.202161 -0.815006
v -7.95982 -153.136 1493.02
vn 0.7651 -0.372196 -0.525445
v -7.95982 -153.136 1493.02
vn 0.101394 -0.107402 -0.989032
v -7.95982 -152.2 1492.36
vn 0.850386 -0.168035 -0.498606
v -7.95982 -152.2 1492.36
vn -0.421347 0.711388 0.562488
v -8.584 -153.448 1506.07
vn -0.792198 -0.0270463 0.609665
v -8.584 -153.448 1506.07
vn 0.0891746 -0.106264 -0.990331
v -8.27191 -151.264 1492.22
vn -0.813738 -0.0298882 0.580463
v -9.21549 -150.952 1498.65
vn 0.187934 0.213166 0.958771
v -8.89609 -151.888 1505.73
vn 0.126506 0.17385 0.976613
v -8.584 -149.703 1505.3
vn 0.736363 0.0725738 0.672684
v -8.584 -149.703 1505.3
vn 0.541766 0.547724 0.637564
v -8.89609 -147.207 1504.99
vn -0.294466 0.567991 0.768555
v -8.89609 -147.207 1504.99
vn 0.585615 0.276548 0.761955
v -8.584 -147.831 1505.15
vn 0.58943 0.598719 0.542317
v -8.584 -147.149 1504.58
vn 0.282419 -0.0595117 -0.957443
v -10.1444 -146.582 1491.58
vn 0.952817 0.292771 -0.0801528
v -8.95217 -145.646 1492.72
vn 0.619926 0.608167 0.495807
v -9.7209 -145.646 1503.02
vn -0.0060478 0.444303 0.895856
v -9.7209 -145.646 1503.02
vn 0.623274 0.189193 0.758772
v -9.7209 -145.646 1503.02
vn 0.623274 0.189193 0.758772
v -9.62511 -144.71 1502.71
vn 0 0.707159 0.707055
v -9.29352 -146.894 1503.96
vn -0.515057 0.578914 0.632119
v -9.29352 -146.894 1503.96
vn 0 0.93726 -0.348631
v -9.29352 -146.894 1503.96
vn -0.58724 0.806012 0.0741157
v -9.29352 -146.894 1503.96
vn -0.0060478 0.444303 0.895856
v -9.52027 -146.582 1503.49
vn -0.515057 0.578914 0.632119
v -9.52027 -146.582 1503.49
vn -0.0060478 0.444303 0.895856
v -9.3581 -146.27 1503.33
vn 0 0.707159 0.707055
v -9.3581 -146.27 1503.33
vn -0.515057 0.578914 0.632119
v -9.3581 -146.27 1503.33
vn 0.774599 0.127285 0.619511
v -9.52027 -145.646 1502.77
vn 0 0.707159 0.707055
v -8.90476 -146.894 1503.96
vn 0 0.93726 -0.348631
v -8.90476 -146.894 1503.96
vn -0.58724 0.806012 0.0741157
v -9.20818 -146.894 1504.64
vn -0.294466 0.567991 0.768555
v -9.20818 -146.894 1504.64
vn 0.680131 0.435707 0.58956
v -8.89609 -146.662 1504.58
vn 0 0.93726 -0.348631
v -8.89609 -146.662 1504.58
vn -0.58724 0.806012 0.0741157
v -8.89609 -146.662 1504.58
vn -0.294466 0.567991 0.768555
v -8.89609 -146.662 1504.58
vn 0.673263 0.0410547 -0.738263
v -9.39104 -144.086 1492.41
vn 0.601637 0.786178 -0.141274
v -10.1444 -144.194 1501.46
vn -0.455167 0.865588 0.208761
v -9.83236 -144.331 1502.71
vn 0.829994 0.453901 0.324168
v -9.83236 -144.331 1502.71
vn 0.4432 0.242374 0.863034
v -9.83236 -144.331 1502.71
vn 0.393143 0.919474 0.00260468
v -9.83236 -144.331 1502.71
vn 0.584083 -0.567491 0.580346
v -7.64773 -165.998 1501.46
vn 0.449723 -0.87216 0.192577
v -7.64773 -165.998 1501.46
vn 0.906311 -0.387829 -0.167894
v -7.02355 -165.676 1501.46
vn 0.478917 -0.548162 0.68568
v -7.02355 -165.676 1501.46
vn 0.751693 -0.32737 -0.572526
v -7.04062 -162.811 1497.41
vn -0.975551 0.0689217 -0.208685
v -6.71146 -162.598 1503.65
vn -0.251236 0.913255 -0.320697
v -6.71146 -162.598 1503.65
vn 0.912968 -0.405039 0.0493155
v -6.39937 -164.074 1502.09
vn -0.328565 -0.336598 -0.882466
v -7.64773 -159.69 1495.42
vn -0.730241 0.086674 0.677669
v -6.01657 -160.938 1502.71
vn -0.969985 -0.0804996 -0.229455
v -6.01657 -160.938 1502.71
vn -0.870791 0.298181 -0.390911
v -7.02355 -159.456 1506.14
vn -0.982855 -0.0582013 -0.174954
v -7.02355 -159.456 1506.14
vn -0.832049 -0.548683 0.081494
v -7.02355 -159.456 1506.14
vn -0.460474 -0.580838 -0.67126
v -7.02355 -159.456 1506.14
vn 0.370734 0.424818 0.825885
v -7.3714 -161.563 1508.02
vn 0.763704 0.634068 0.121304
v -7.3714 -161.563 1508.02
vn 0.589728 0.675761 -0.442231
v -7.3714 -161.563 1508.02
vn -0.251236 0.913255 -0.320697
v -7.64773 -161.322 1508.02
vn 0.370734 0.424818 0.825885
v -7.64773 -161.322 1508.02
vn 0.589728 0.675761 -0.442231
v -7.64773 -161.322 1508.02
vn 0.763704 0.634068 0.121304
v -7.42098 -161.563 1508.33
vn 0.852219 0.395934 -0.341993
v -7.42098 -161.563 1508.33
vn 0.798113 -0.495394 0.34293
v -7.42098 -161.563 1508.33
vn -0.460474 -0.580838 -0.67126
v -7.64773 -161.251 1508.12
vn 0.763704 0.634068 0.121304
v -7.64773 -161.251 1508.12
vn 0.589728 0.675761 -0.442231
v -7.64773 -161.251 1508.12
vn 0.852219 0.395934 -0.341993
v -7.64773 -161.251 1508.12
vn 0.342647 -0.815907 0.465714
v -7.64773 -161.251 1508.12
vn -0.251236 0.913255 -0.320697
v -7.02355 -161.259 1507.7
vn 0.370734 0.424818 0.825885
v -7.02355 -161.259 1507.7
vn -0.996884 -0.051616 -0.0596513
v -7.02355 -161.259 1507.7
vn -0.460474 -0.580838 -0.67126
v -7.02355 -161.259 1507.7
vn 0.588168 -0.277219 0.759742
v -7.64773 -160.25 1510.51
vn 0.31752 0.512201 0.798017
v -7.64773 -160.002 1510.28
vn -0.82056 0.375024 0.431322
v -7.64773 -160.002 1510.28
vn 0.556049 -0.734411 0.389165
v -7.33564 -160.129 1510.2
vn 0.930269 0.0530656 0.363019
v -7.33564 -160.129 1510.2
vn 0.771651 -0.424004 0.474104
v -7.33564 -160.129 1510.2
vn 0.387069 0.420183 0.820746
v -7.33564 -160.129 1510.2
vn 0.343738 0.649602 0.678131
v -7.64773 -157.193 1509.26
vn -0.984724 -0.150103 -0.0882492
v -7.64773 -157.193 1509.26
vn 0.610125 -0.683007 -0.401557
v -7.64773 -157.193 1509.26
vn 0.701595 -0.647674 0.297124
v -7.64773 -157.193 1509.26
vn 0.806248 0.412037 0.424487
v -7.64773 -157.193 1509.26
vn -0.82056 0.375024 0.431322
v -7.56971 -159.378 1509.89
vn 0 0 1
v -7.56971 -159.378 1509.89
vn 0.277684 0.427196 0.860462
v -7.5314 -158.13 1509.89
vn 0.873429 0.326589 0.361195
v -7.5314 -158.13 1509.89
vn -0.988987 0.0303441 -0.144858
v -7.5314 -158.13 1509.89
vn 0 0 1
v -7.5314 -158.13 1509.89
vn -0.572327 0.662954 0.482632
v -7.64773 -157.198 1509.26
vn 0.701702 -0.71247 0
v -7.64773 -157.198 1509.26
vn 0.857377 0.362897 0.364979
v -7.64773 -157.198 1509.26
vn -0.572327 0.662954 0.482632
v -7.64773 -157.425 1509.58
vn 0.556027 0.321466 -0.766481
v -7.64773 -157.425 1509.58
vn 0.957406 0.233439 0.169944
v -7.64773 -157.425 1509.58
vn 0.324234 0.197817 0.925062
v -7.28444 -158.754 1509.89
vn 0.893192 0.190553 0.407304
v -7.28444 -158.754 1509.89
vn 0 0 1
v -7.28444 -158.754 1509.89
vn 0.323328 -0.476793 -0.81739
v -7.33564 -154.697 1493.48
vn 0.819343 0.129797 -0.558418
v -7.33564 -154.697 1493.48
vn 0.281982 -0.474716 -0.833745
v -7.02355 -155.945 1493.5
vn 0.790669 -0.110386 -0.602211
v -7.02355 -155.945 1493.5
vn 0.0468434 0.243505 -0.968768
v -7.02355 -155.945 1493.5
vn 0.821362 0.21083 -0.530014
v -6.99135 -155.321 1493.66
vn 0.760353 0.0932428 -0.642782
v -7.64773 -154.072 1492.99
vn 0.963191 0.00317938 -0.2688
v -7.5819 -152.824 1493.35
vn -0.76834 0.0141346 0.639886
v -7.30882 -153.76 1500.84
vn -0.938423 -0.342341 -0.0465349
v -7.64773 -152.792 1501.77
vn -0.997815 0.0660734 0
v -7.64773 -152.792 1501.77
vn 0.610125 -0.683007 -0.401557
v -7.64773 -152.792 1501.77
vn 0.392443 -0.225263 -0.891765
v -7.64773 -152.792 1501.77
vn -0.319929 -0.81126 -0.489391
v -7.64773 -152.792 1501.77
vn 0.836372 0.337004 0.43233
v -7.64773 -153.76 1505.9
f 4//4 143//143 1//1
f 373//373 148//148 244//244
f 390//390 5//5 245//245
f 3//3 251//251 246//246
f 254//254 7//7 247//247
f 248//248 2//2 252//252
f 247//247 7//7 249//249
f 86//86 253//253 2//2
f 86//86 2//2 6//6
f 2//2 248//248 6//6
f 256//256 255//255 250//250
f 92//92 8//8 13//13
f 8//8 15//15 13//13
f 8//8 10//10 15//15
f 10//10 16//16 262//262
f 9//9 10//10 8//8
f 9//9 8//8 92//92
f 9//9 93//93 10//10
f 93//93 11//11 10//10
f 10//10 11//11 16//16
f 20//20 326//326 12//12
f 20//20 12//12 13//13
f 12//12 92//92 13//13
f 260//260 262//262 14//14
f 14//14 19//19 260//260
f 262//262 16//16 14//14
f 16//16 17//17 14//14
f 14//14 17//17 27//27
f 17//17 16//16 18//18
f 16//16 11//11 18//18
f 18//18 26//26 17//17
f 17//17 26//26 27//27
f 31//31 261//261 263//263
f 20//20 13//13 271//271
f 19//19 14//14 21//21
f 20//20 271//271 35//35
f 14//14 27//27 21//21
f 21//21 36//36 19//19
f 264//264 25//25 22//22
f 264//264 22//22 21//21
f 22//22 25//25 38//38
f 38//38 37//37 22//22
f 37//37 21//21 22//22
f 24//24 25//25 264//264
f 25//25 42//42 282//282
f 28//28 24//24 23//23
f 28//28 29//29 24//24
f 25//25 24//24 42//42
f 29//29 42//42 24//24
f 26//26 23//23 264//264
f 23//23 24//24 264//264
f 267//267 265//265 100//100
f 265//265 97//97 100//100
f 100//100 286//286 267//267
f 100//100 43//43 286//286
f 23//23 94//94 28//28
f 330//330 266//266 328//328
f 31//31 263//263 30//30
f 32//32 272//272 268//268
f 34//34 273//273 269//269
f 35//35 271//271 274//274
f 270//270 19//19 36//36
f 36//36 33//33 270//270
f 34//34 269//269 275//275
f 35//35 274//274 277//277
f 278//278 101//101 280//280
f 276//276 41//41 279//279
f 35//35 99//99 20//20
f 99//99 280//280 101//101
f 21//21 37//37 36//36
f 40//40 36//36 281//281
f 281//281 282//282 40//40
f 282//282 42//42 39//39
f 40//40 282//282 39//39
f 36//36 40//40 33//33
f 276//276 284//284 41//41
f 283//283 43//43 105//105
f 102//102 283//283 105//105
f 102//102 285//285 283//283
f 41//41 284//284 332//332
f 332//332 279//279 41//41
f 43//43 283//283 286//286
f 45//45 47//47 46//46
f 290//290 50//50 287//287
f 51//51 50//50 290//290
f 288//288 296//296 61//61
f 289//289 61//61 293//293
f 48//48 293//293 61//61
f 294//294 106//106 291//291
f 290//290 49//49 51//51
f 44//44 295//295 48//48
f 49//49 292//292 107//107
f 292//292 335//335 107//107
f 294//294 44//44 106//106
f 50//50 51//51 68//68
f 55//55 51//51 49//49
f 51//51 55//55 52//52
f 55//55 53//53 52//52
f 54//54 52//52 53//53
f 49//49 107//107 55//55
f 56//56 54//54 53//53
f 298//298 56//56 53//53
f 298//298 114//114 56//56
f 59//59 44//44 48//48
f 57//57 59//59 48//48
f 48//48 61//61 57//57
f 61//61 62//62 57//57
f 58//58 59//59 57//57
f 57//57 62//62 58//58
f 62//62 63//63 58//58
f 58//58 63//63 65//65
f 60//60 58//58 65//65
f 299//299 60//60 300//300
f 110//110 44//44 59//59
f 110//110 59//59 111//111
f 337//337 300//300 60//60
f 61//61 296//296 66//66
f 66//66 64//64 61//61
f 79//79 64//64 66//66
f 61//61 64//64 62//62
f 62//62 64//64 63//63
f 65//65 63//63 64//64
f 113//113 64//64 79//79
f 113//113 65//65 64//64
f 68//68 66//66 296//296
f 67//67 56//56 114//114
f 56//56 67//67 297//297
f 297//297 67//67 78//78
f 78//78 67//67 77//77
f 77//77 75//75 78//78
f 68//68 81//81 66//66
f 68//68 51//51 69//69
f 69//69 70//70 68//68
f 70//70 81//81 68//68
f 69//69 51//51 73//73
f 70//70 69//69 71//71
f 70//70 71//71 72//72
f 73//73 51//51 52//52
f 302//302 308//308 74//74
f 302//302 74//74 303//303
f 75//75 304//304 310//310
f 311//311 76//76 305//305
f 306//306 312//312 307//307
f 72//72 84//84 70//70
f 307//307 312//312 316//316
f 52//52 54//54 73//73
f 78//78 310//310 309//309
f 78//78 309//309 297//297
f 76//76 311//311 82//82
f 311//311 313//313 82//82
f 78//78 75//75 310//310
f 80//80 79//79 66//66
f 117//117 79//79 80//80
f 80//80 66//66 315//315
f 203//203 80//80 315//315
f 70//70 83//83 81//81
f 119//119 82//82 313//313
f 83//83 70//70 84//84
f 126//126 83//83 84//84
f 81//81 83//83 350//350
f 374//374 253//253 86//86
f 86//86 240//240 374//374
f 149//149 87//87 92//92
f 159//159 85//85 87//87
f 6//6 90//90 86//86
f 87//87 93//93 92//92
f 255//255 256//256 88//88
f 94//94 321//321 257//257
f 91//91 90//90 322//322
f 90//90 6//6 322//322
f 89//89 91//91 322//322
f 321//321 94//94 323//323
f 11//11 325//325 323//323
f 90//90 91//91 317//317
f 11//11 327//327 325//325
f 85//85 93//93 87//87
f 325//325 327//327 318//318
f 20//20 176//176 326//326
f 99//99 409//409 20//20
f 93//93 9//9 92//92
f 330//330 328//328 96//96
f 95//95 96//96 328//328
f 26//26 94//94 23//23
f 18//18 11//11 94//94
f 94//94 26//26 18//18
f 323//323 94//94 11//11
f 98//98 192//192 331//331
f 330//330 96//96 193//193
f 98//98 331//331 434//434
f 96//96 95//95 195//195
f 193//193 96//96 435//435
f 196//196 101//101 104//104
f 196//196 99//99 101//101
f 104//104 103//103 196//196
f 331//331 196//196 103//103
f 105//105 43//43 100//100
f 97//97 105//105 100//100
f 97//97 334//334 105//105
f 101//101 279//279 104//104
f 103//103 104//104 332//332
f 105//105 334//334 333//333
f 332//332 104//104 279//279
f 335//335 108//108 107//107
f 108//108 109//109 107//107
f 298//298 107//107 109//109
f 108//108 115//115 109//109
f 298//298 109//109 114//114
f 114//114 109//109 115//115
f 108//108 112//112 115//115
f 337//337 60//60 113//113
f 106//106 44//44 110//110
f 336//336 108//108 335//335
f 112//112 108//108 336//336
f 111//111 339//339 110//110
f 113//113 60//60 65//65
f 115//115 116//116 114//114
f 112//112 197//197 342//342
f 112//112 342//342 115//115
f 114//114 116//116 67//67
f 117//117 338//338 113//113
f 122//122 338//338 117//117
f 339//339 111//111 123//123
f 346//346 338//338 122//122
f 347//347 202//202 340//340
f 113//113 79//79 117//117
f 80//80 118//118 117//117
f 344//344 80//80 125//125
f 118//118 138//138 117//117
f 301//301 119//119 314//314
f 301//301 343//343 439//439
f 301//301 439//439 119//119
f 439//439 200//200 119//119
f 312//312 82//82 120//120
f 119//119 120//120 82//82
f 312//312 120//120 316//316
f 120//120 121//121 316//316
f 316//316 121//121 351//351
f 127//127 351//351 121//121
f 121//121 120//120 127//127
f 127//127 120//120 131//131
f 124//124 207//207 202//202
f 137//137 447//447 117//117
f 138//138 137//137 117//117
f 117//117 447//447 348//348
f 117//117 348//348 122//122
f 346//346 122//122 348//348
f 202//202 347//347 124//124
f 118//118 222//222 138//138
f 349//349 222//222 345//345
f 80//80 203//203 125//125
f 125//125 203//203 210//210
f 222//222 349//349 448//448
f 127//127 131//131 351//351
f 131//131 130//130 351//351
f 352//352 203//203 315//315
f 216//216 214//214 352//352
f 214//214 203//203 352//352
f 353//353 355//355 129//129
f 216//216 352//352 354//354
f 355//355 132//132 129//129
f 139//139 354//354 358//358
f 131//131 133//133 356//356
f 357//357 360//360 359//359
f 360//360 135//135 359//359
f 139//139 216//216 354//354
f 139//139 358//358 363//363
f 128//128 136//136 120//120
f 120//120 365//365 131//131
f 365//365 133//133 131//131
f 136//136 134//134 361//361
f 361//361 134//134 364//364
f 128//128 215//215 136//136
f 137//137 138//138 147//147
f 134//134 366//366 364//364
f 216//216 139//139 140//140
f 362//362 368//368 367//367
f 216//216 142//142 220//220
f 136//136 215//215 141//141
f 136//136 141//141 134//134
f 215//215 369//369 141//141
f 141//141 369//369 134//134
f 216//216 140//140 142//142
f 219//219 473//473 371//371
f 211//211 216//216 224//224
f 224//224 216//216 220//220
f 145//145 223//223 450//450
f 380//380 226//226 479//479
f 451//451 480//480 508//508
f 148//148 373//373 381//381
f 382//382 509//509 144//144
f 383//383 374//374 240//240
f 452//452 225//225 384//384
f 486//486 227//227 385//385
f 490//490 375//375 493//493
f 491//491 386//386 376//376
f 494//494 377//377 146//146
f 510//510 481//481 378//378
f 387//387 379//379 482//482
f 227//227 388//388 385//385
f 391//391 388//388 241//241
f 513//513 389//389 483//483
f 388//388 391//391 385//385
f 229//229 147//147 150//150
f 150//150 147//147 151//151
f 229//229 137//137 147//147
f 237//237 229//229 150//150
f 149//149 147//147 138//138
f 151//151 147//147 149//149
f 155//155 391//391 241//241
f 154//154 153//153 392//392
f 152//152 149//149 393//393
f 151//151 149//149 152//152
f 156//156 154//154 392//392
f 396//396 400//400 157//157
f 237//237 150//150 151//151
f 237//237 151//151 152//152
f 237//237 152//152 393//393
f 505//505 394//394 238//238
f 395//395 397//397 506//506
f 506//506 397//397 158//158
f 149//149 138//138 87//87
f 138//138 222//222 320//320
f 401//401 320//320 222//222
f 508//508 159//159 239//239
f 90//90 511//511 86//86
f 5//5 398//398 258//258
f 398//398 5//5 390//390
f 259//259 399//399 160//160
f 241//241 402//402 155//155
f 409//409 157//157 400//400
f 156//156 392//392 326//326
f 158//158 397//397 157//157
f 506//506 158//158 165//165
f 158//158 157//157 165//165
f 508//508 85//85 159//159
f 319//319 512//512 324//324
f 161//161 329//329 160//160
f 160//160 329//329 259//259
f 162//162 161//161 160//160
f 241//241 403//403 402//402
f 404//404 513//513 163//163
f 156//156 326//326 176//176
f 409//409 164//164 157//157
f 164//164 178//178 165//165
f 164//164 165//165 157//157
f 179//179 166//166 243//243
f 329//329 167//167 184//184
f 169//169 329//329 161//161
f 169//169 167//167 329//329
f 167//167 183//183 184//184
f 188//188 190//190 168//168
f 163//163 166//166 174//174
f 168//168 174//174 166//166
f 169//169 189//189 167//167
f 169//169 170//170 189//189
f 169//169 161//161 171//171
f 171//171 161//161 162//162
f 171//171 170//170 169//169
f 168//168 190//190 173//173
f 408//408 405//405 172//172
f 172//172 405//405 407//407
f 408//408 429//429 405//405
f 175//175 407//407 404//404
f 168//168 173//173 174//174
f 173//173 172//172 175//175
f 173//173 175//175 174//174
f 175//175 172//172 407//407
f 175//175 404//404 163//163
f 163//163 174//174 175//175
f 99//99 177//177 409//409
f 164//164 177//177 178//178
f 409//409 177//177 164//164
f 99//99 178//178 177//177
f 191//191 243//243 410//410
f 433//433 178//178 99//99
f 243//243 191//191 192//192
f 165//165 410//410 243//243
f 179//179 243//243 192//192
f 98//98 166//166 179//179
f 98//98 180//180 166//166
f 166//166 180//180 186//186
f 180//180 98//98 194//194
f 180//180 194//194 186//186
f 168//168 166//166 186//186
f 95//95 329//329 181//181
f 195//195 95//95 181//181
f 181//181 329//329 184//184
f 187//187 411//411 185//185
f 412//412 419//419 421//421
f 187//187 186//186 182//182
f 413//413 424//424 414//414
f 186//186 194//194 182//182
f 182//182 194//194 436//436
f 414//414 437//437 413//413
f 425//425 422//422 415//415
f 416//416 423//423 420//420
f 426//426 417//417 430//430
f 187//187 185//185 168//168
f 187//187 168//168 186//186
f 188//188 168//168 185//185
f 167//167 189//189 183//183
f 418//418 427//427 431//431
f 428//428 406//406 432//432
f 99//99 196//196 433//433
f 191//191 196//196 192//192
f 196//196 331//331 192//192
f 179//179 192//192 98//98
f 98//98 434//434 194//194
f 438//438 194//194 434//434
f 341//341 198//198 440//440
f 340//340 199//199 441//441
f 442//442 200//200 439//439
f 442//442 204//204 200//200
f 446//446 441//441 209//209
f 340//340 201//201 199//199
f 199//199 201//201 236//236
f 201//201 340//340 202//202
f 201//201 202//202 236//236
f 199//199 209//209 441//441
f 205//205 120//120 119//119
f 204//204 205//205 119//119
f 119//119 200//200 204//204
f 209//209 205//205 446//446
f 205//205 209//209 212//212
f 206//206 128//128 120//120
f 205//205 206//206 120//120
f 205//205 212//212 206//206
f 206//206 215//215 128//128
f 217//217 206//206 212//212
f 448//448 507//507 222//222
f 208//208 199//199 236//236
f 209//209 199//199 208//208
f 444//444 451//451 449//449
f 209//209 243//243 212//212
f 217//217 213//213 206//206
f 213//213 215//215 206//206
f 457//457 468//468 445//445
f 458//458 454//454 469//469
f 444//444 470//470 451//451
f 463//463 453//453 471//471
f 455//455 464//464 460//460
f 456//456 459//459 465//465
f 466//466 221//221 461//461
f 212//212 218//218 217//217
f 217//217 218//218 467//467
f 218//218 475//475 467//467
f 212//212 475//475 218//218
f 476//476 212//212 243//243
f 462//462 477//477 370//370
f 472//472 370//370 477//477
f 370//370 472//472 372//372
f 478//478 473//473 219//219
f 474//474 228//228 484//484
f 473//473 478//478 496//496
f 476//476 243//243 497//497
f 236//236 243//243 208//208
f 401//401 222//222 507//507
f 209//209 208//208 243//243
f 239//239 449//449 508//508
f 508//508 449//449 451//451
f 243//243 513//513 483//483
f 492//492 487//487 243//243
f 492//492 243//243 483//483
f 224//224 488//488 211//211
f 485//485 498//498 489//489
f 492//492 495//495 487//487
f 243//243 487//487 497//497
f 447//447 137//137 232//232
f 230//230 232//232 137//137
f 230//230 137//137 229//229
f 231//231 230//230 229//229
f 499//499 229//229 237//237
f 501//501 202//202 207//207
f 231//231 233//233 230//230
f 504//504 500//500 234//234
f 502//502 235//235 443//443
f 504//504 235//235 502//502
f 230//230 233//233 503//503
f 235//235 504//504 234//234
f 236//236 234//234 506//506
f 202//202 235//235 236//236
f 236//236 235//235 234//234
f 236//236 506//506 243//243
f 505//505 234//234 500//500
f 238//238 234//234 505//505
f 243//243 506//506 165//165
f 163//163 513//513 242//242
f 166//166 242//242 243//243
f 513//513 243//243 242//242
f 166//166 163//163 242//242
