# Wavafront OBJ file of BodyParts3D
# BodyParts3D, Copyright(C) 2010-2011 The Database Center for Life Science licensed under CC Attribution-Share Alike 2.1 Japan.
vn -0.459344 -0.858073 0.229594
v -0.893574 -134.143 1082.36
vn -0.285969 -0.852997 0.436598
v -0.105901 -134.2 1083
vn -0.749862 -0.546096 0.373479
v -1.33512 -133.5 1083.02
vn -0.467024 -0.694404 0.547441
v -0.958509 -133.559 1083.37
vn -0.649008 -0.349086 0.675965
v -1.12329 -133.139 1083.59
vn -0.846848 -0.227995 -0.480486
v -1.5021 -132.906 1080.17
vn -0.726385 -0.0363062 -0.686328
v -0.884353 -131.929 1079.21
vn -0.85411 -0.466558 -0.229827
v -1.57049 -133.535 1081.02
vn -0.621419 -0.583316 -0.52305
v -0.854058 -133.648 1079.8
vn -0.591393 -0.330809 -0.735404
v -0.546367 -133.003 1079.1
vn -0.692291 -0.721229 0.0237187
v -1.40679 -133.837 1081.56
vn -0.569945 -0.788242 -0.232029
v -1.14675 -133.955 1080.84
vn -0.336323 -0.391171 -0.856663
v 0.631086 -133.398 1078.61
vn -0.332434 -0.866095 -0.373318
v 0.113902 -134.225 1079.78
vn -0.345818 -0.641527 -0.684728
v 0.607565 -133.831 1078.93
vn -0.311892 -0.948755 -0.0508599
v -0.253915 -134.436 1081.35
vn -0.227757 -0.9634 0.141374
v -0.214363 -134.379 1082.24
vn -0.150657 -0.828889 -0.538745
v 1.71363 -134.293 1079.09
vn -0.120633 -0.967561 -0.221976
v 1.65126 -134.67 1080.19
vn -0.925405 0.0831634 -0.369742
v -1.84836 -131.441 1080.65
vn -0.988258 -0.109465 -0.106598
v -2.04305 -132.078 1081.42
vn -0.924591 -0.368567 0.0963818
v -1.84832 -133.082 1082.06
vn -0.970458 0.176317 0.164694
v -1.97719 -130.586 1082.16
vn -0.921608 -0.119515 0.369262
v -1.86195 -132.285 1082.79
vn -0.456362 -0.166749 -0.87403
v 0.027212 -132.341 1078.56
vn -0.134211 -0.545529 -0.827276
v 2.83701 -133.589 1078.15
vn -0.146148 -0.24065 -0.959546
v 3.1276 -132.049 1077.51
vn -0.842555 0.0790507 -0.532778
v 1.16439 -123.194 1077.59
vn -0.980163 0.193501 -0.0428622
v 0.766865 -120.358 1080.12
vn -0.492341 -0.0480811 -0.869073
v 2.80935 -121.917 1075.98
vn -0.984917 0.0686535 -0.158825
v 1.36254 -116.685 1078.78
vn -0.656024 0.0169567 -0.754549
v 2.96587 -116.587 1076.01
vn -0.850474 0.0166176 -0.525754
v 2.30291 -115.454 1076.74
vn -0.697386 0.237706 -0.676128
v 2.39328 -112.632 1076.54
vn -0.963866 0.234653 -0.126093
v 1.59116 -112.446 1078.53
vn -0.922147 0.132192 -0.363552
v 1.74997 -112.515 1077.8
vn -0.8955 0.351883 -0.272505
v 1.97862 -111.796 1077.87
vn -0.189083 -0.637497 0.746891
v 2.48968 -133.959 1084.49
vn -0.335382 -0.588286 0.735825
v -0.119155 -133.524 1083.91
vn -0.405229 -0.254627 0.87804
v -0.417138 -132.628 1084.3
vn 0.00492661 -0.904185 -0.427112
v 3.46701 -134.479 1079.13
vn 0.10517 -0.959527 -0.26124
v 4.58592 -134.774 1080.21
vn 0.406459 -0.870222 -0.278396
v 5.85631 -134.68 1081
vn -0.15995 -0.962606 0.218647
v 2.79118 -134.836 1083.14
vn -0.0714387 -0.997288 -0.0176836
v 3.69141 -135.053 1081.69
vn -0.167194 -0.860947 0.480433
v 2.93123 -134.601 1083.84
vn -0.0109313 -0.754042 0.656736
v 3.83949 -134.445 1084.26
vn 0.042446 -0.947709 0.316301
v 4.37291 -134.926 1083.44
vn 0.194115 -0.980588 -0.0276897
v 5.32157 -134.99 1081.9
vn -0.667546 0.0592975 0.742203
v -0.700424 -129.724 1084.46
vn -0.15895 -0.304762 0.939072
v 2.05563 -132.592 1085.05
vn -0.104862 0.0285044 0.994078
v 1.71408 -129.64 1085.3
vn -0.775852 0.286857 0.561931
v -0.487581 -127.371 1083.86
vn -0.371212 0.239034 0.897254
v 0.753474 -127.217 1084.7
vn 0.0338536 -0.706255 -0.707148
v 3.8932 -133.949 1078.38
vn 0.238035 -0.833716 -0.498254
v 4.84672 -134.102 1078.75
vn 0.277298 -0.602309 -0.748552
v 5.02167 -133.76 1078.43
vn 0.439224 -0.394698 -0.807029
v 5.7002 -132.852 1078.19
vn 0.517068 -0.664411 -0.539629
v 5.88425 -133.728 1078.94
vn 0.755227 -0.337956 -0.561621
v 6.90311 -132.622 1079.08
vn 0.112934 -0.401414 -0.908908
v 4.16738 -133.082 1077.84
vn -0.894421 0.264274 0.360791
v 1.18255 -119.865 1081.31
vn -0.674924 0.204634 0.708945
v 2.24505 -118.738 1082.33
vn 0.402034 -0.219299 -0.888975
v 6.371 -125.859 1076.36
vn -0.033361 -0.129173 -0.991061
v 4.93952 -121.767 1075.39
vn -0.948824 0.129268 0.288136
v 1.53329 -116.515 1080.54
vn -0.982453 0.162174 0.092118
v 1.58525 -112.367 1079.35
vn -0.936161 0.346926 0.0569702
v 1.8337 -111.646 1079.44
vn -0.921747 0.188489 0.338902
v 1.84062 -112.213 1080.39
vn -0.334238 0.938966 -0.0814143
v 2.37125 -111.22 1080.15
vn -0.852162 0.358208 0.381453
v 2.20337 -111.363 1080.67
vn -0.728312 0.313048 0.60956
v 2.43329 -111.636 1081.28
vn -0.479469 0.59481 0.645221
v 2.56131 -111.199 1081.02
vn 0.102504 0.991069 -0.0852941
v 2.93211 -111.128 1080.41
vn -0.34634 0.352062 0.869541
v 3.605 -112.038 1082.28
vn 0.280284 -0.0605523 -0.958005
v 8.16749 -114.012 1075.06
vn -0.458949 0.521162 -0.719553
v 3.98653 -112.074 1075.92
vn -0.287399 0.0499762 -0.956506
v 4.94022 -113.489 1074.86
vn 0.325232 0.492743 -0.807112
v 8.11922 -113.386 1075.07
vn 0.106178 -0.429148 0.896972
v 4.1432 -133.922 1084.67
vn 0.289093 -0.673233 0.680575
v 5.10491 -134.37 1084.1
vn 0.46069 -0.794966 0.394707
v 5.77657 -134.707 1083.18
vn 0.597488 -0.801534 0.0234614
v 6.3591 -134.617 1082.09
vn 0.517911 -0.301711 0.800462
v 6.18174 -133.205 1084.14
vn 0.871672 -0.32492 0.3669
v 7.13439 -133.29 1083.06
vn 0.172136 -0.103532 0.979617
v 3.76944 -132.448 1085.12
vn 0.78246 -0.580154 -0.226225
v 7.11634 -133.53 1080.56
vn 0.947251 -0.27808 -0.159333
v 7.8065 -131.765 1080.41
vn -0.0580786 0.112942 0.991903
v 5.59047 -120.03 1083.72
vn 0.237234 0.0479697 0.970268
v 7.90692 -115.281 1083.27
vn -0.12433 0.16247 0.978849
v 6.094 -113.328 1083.15
vn -0.0149915 0.878385 0.477719
v 4.85563 -111.399 1082.09
vn -0.0781127 0.448003 0.890613
v 6.18575 -112.122 1082.87
vn 0.214635 0.963372 0.160767
v 7.148 -111.788 1082.23
vn 0.0574597 0.217098 0.974457
v 7.29182 -112.583 1083.04
vn 0.150466 0.686168 0.711712
v 7.39344 -112.092 1082.82
vn 0.592322 0.0284939 -0.805197
v 9.46264 -113.896 1075.81
vn 0.770949 -0.0875693 -0.630848
v 10.2156 -114.014 1076.51
vn 0.308135 0.902028 -0.302321
v 9.54414 -113.054 1076.55
vn 0.708466 0.469297 -0.527101
v 10.1573 -113.406 1076.54
vn 0.936595 -0.0401838 -0.348102
v 11.2455 -114.177 1078.41
vn 0.459574 -0.00404758 0.88813
v 9.68172 -115.915 1082.61
vn 0.524862 0.350139 0.775836
v 9.83192 -113.088 1082.44
vn 0.421414 0.88697 0.188927
v 9.95157 -112.514 1081.57
vn 0.992857 -0.117621 0.0200266
v 11.3967 -114.401 1079.78
vn 0.946387 0.28414 -0.153678
v 11.3726 -113.456 1079.35
vn 0.606817 0.791964 -0.0675724
v 11.1814 -113.082 1079.63
vn 0.779102 0.0348367 0.625929
v 10.7036 -113.503 1081.77
vn 0.749749 0.513336 0.417567
v 10.8741 -113.18 1081.43
vn 0.959809 0.132411 0.247457
v 11.3735 -113.619 1080.53
vn 0.272267 0.33827 0.900802
v 8.58096 -112.718 1082.86
vn 0.362253 0.756201 0.544916
v 8.77252 -112.344 1082.51
vn -0.457883 0.682478 -0.569707
v 1.97862 -111.796 1077.87
vn -0.305351 0.934358 -0.183671
v 1.97862 -111.796 1077.87
vn -0.570959 0.818823 -0.0594627
v 1.8337 -111.646 1079.44
vn -0.558563 0.828131 0.0469697
v 2.20337 -111.363 1080.67
vn -0.213712 0.973808 0.0776225
v 2.56131 -111.199 1081.02
vn 0.0583677 0.925164 -0.375053
v 3.98653 -112.074 1075.92
vn 0.0339377 0.616407 -0.786696
v 4.94022 -113.489 1074.86
f 11//11 1//1 3//3
f 2//2 4//4 1//1
f 1//1 4//4 3//3
f 4//4 5//5 3//3
f 3//3 5//5 24//24
f 50//50 24//24 5//5
f 2//2 39//39 4//4
f 4//4 39//39 5//5
f 39//39 40//40 5//5
f 5//5 40//40 50//50
f 6//6 20//20 7//7
f 9//9 12//12 8//8
f 8//8 6//6 9//9
f 6//6 8//8 21//21
f 10//10 9//9 6//6
f 10//10 15//15 9//9
f 6//6 7//7 10//10
f 10//10 7//7 25//25
f 11//11 3//3 22//22
f 16//16 12//12 14//14
f 11//11 12//12 16//16
f 8//8 12//12 11//11
f 22//22 8//8 11//11
f 14//14 12//12 9//9
f 14//14 9//9 15//15
f 13//13 15//15 10//10
f 25//25 13//13 10//10
f 11//11 16//16 1//1
f 14//14 19//19 16//16
f 14//14 15//15 18//18
f 26//26 15//15 13//13
f 17//17 1//1 16//16
f 2//2 1//1 17//17
f 14//14 18//18 19//19
f 18//18 15//15 26//26
f 45//45 16//16 19//19
f 45//45 17//17 16//16
f 41//41 19//19 18//18
f 44//44 17//17 45//45
f 44//44 2//2 17//17
f 21//21 20//20 6//6
f 7//7 20//20 28//28
f 8//8 22//22 21//21
f 22//22 24//24 21//21
f 20//20 21//21 23//23
f 23//23 29//29 20//20
f 22//22 3//3 24//24
f 24//24 23//23 21//21
f 50//50 23//23 24//24
f 23//23 53//53 62//62
f 54//54 53//53 50//50
f 53//53 23//23 50//50
f 55//55 26//26 61//61
f 27//27 26//26 13//13
f 25//25 27//27 13//13
f 18//18 26//26 55//55
f 26//26 27//27 61//61
f 20//20 29//29 28//28
f 23//23 62//62 29//29
f 7//7 28//28 30//30
f 7//7 30//30 25//25
f 25//25 30//30 27//27
f 65//65 30//30 78//78
f 27//27 30//30 65//65
f 30//30 28//28 32//32
f 32//32 28//28 33//33
f 78//78 30//30 32//32
f 28//28 31//31 33//33
f 28//28 29//29 31//31
f 33//33 31//31 36//36
f 36//36 34//34 33//33
f 36//36 37//37 34//34
f 32//32 33//33 34//34
f 32//32 34//34 78//78
f 113//113 77//77 34//34
f 77//77 78//78 34//34
f 31//31 35//35 36//36
f 67//67 68//68 35//35
f 31//31 67//67 35//35
f 36//36 35//35 37//37
f 35//35 68//68 37//37
f 46//46 38//38 2//2
f 38//38 39//39 2//2
f 39//39 51//51 40//40
f 38//38 51//51 39//39
f 41//41 18//18 55//55
f 56//56 42//42 41//41
f 43//43 42//42 56//56
f 42//42 19//19 41//41
f 45//45 19//19 42//42
f 46//46 2//2 44//44
f 48//48 46//46 44//44
f 48//48 44//44 45//45
f 45//45 42//42 49//49
f 48//48 47//47 46//46
f 46//46 47//47 38//38
f 49//49 42//42 43//43
f 49//49 82//82 48//48
f 45//45 49//49 48//48
f 80//80 38//38 47//47
f 51//51 38//38 80//80
f 86//86 51//51 80//80
f 50//50 40//40 52//52
f 52//52 40//40 51//51
f 86//86 52//52 51//51
f 53//53 54//54 63//63
f 50//50 52//52 54//54
f 52//52 89//89 54//54
f 41//41 55//55 56//56
f 56//56 55//55 57//57
f 57//57 55//55 61//61
f 43//43 56//56 59//59
f 59//59 56//56 57//57
f 58//58 59//59 57//57
f 87//87 43//43 59//59
f 87//87 59//59 60//60
f 58//58 60//60 59//59
f 61//61 27//27 64//64
f 61//61 58//58 57//57
f 64//64 58//58 61//61
f 62//62 53//53 63//63
f 89//89 63//63 54//54
f 62//62 66//66 29//29
f 62//62 63//63 66//66
f 60//60 58//58 64//64
f 64//64 27//27 65//65
f 29//29 66//66 31//31
f 63//63 89//89 75//75
f 89//89 91//91 75//75
f 75//75 91//91 93//93
f 64//64 65//65 76//76
f 31//31 66//66 67//67
f 70//70 114//114 115//115
f 70//70 118//118 114//114
f 70//70 74//74 118//118
f 67//67 66//66 69//69
f 68//68 67//67 69//69
f 69//69 71//71 68//68
f 115//115 116//116 70//70
f 72//72 69//69 63//63
f 69//69 66//66 63//63
f 72//72 71//71 69//69
f 71//71 72//72 73//73
f 117//117 70//70 116//116
f 117//117 74//74 70//70
f 75//75 72//72 63//63
f 75//75 73//73 72//72
f 92//92 73//73 75//75
f 74//74 92//92 94//94
f 92//92 74//74 117//117
f 76//76 65//65 78//78
f 76//76 78//78 79//79
f 97//97 64//64 76//76
f 97//97 76//76 79//79
f 100//100 97//97 79//79
f 79//79 119//119 118//118
f 99//99 118//118 74//74
f 99//99 79//79 118//118
f 48//48 81//81 47//47
f 47//47 81//81 80//80
f 48//48 82//82 81//81
f 83//83 82//82 49//49
f 83//83 49//49 43//43
f 87//87 83//83 43//43
f 83//83 85//85 82//82
f 85//85 83//83 87//87
f 81//81 82//82 84//84
f 80//80 81//81 84//84
f 82//82 85//85 84//84
f 84//84 86//86 80//80
f 84//84 102//102 86//86
f 52//52 86//86 102//102
f 85//85 102//102 84//84
f 60//60 88//88 87//87
f 87//87 88//88 85//85
f 88//88 105//105 85//85
f 89//89 52//52 102//102
f 90//90 89//89 102//102
f 89//89 95//95 91//91
f 90//90 95//95 89//89
f 60//60 101//101 88//88
f 88//88 101//101 105//105
f 93//93 92//92 75//75
f 96//96 92//92 93//93
f 96//96 94//94 92//92
f 91//91 95//95 93//93
f 93//93 95//95 96//96
f 96//96 112//112 94//94
f 95//95 111//111 96//96
f 96//96 111//111 112//112
f 94//94 112//112 104//104
f 104//104 74//74 94//94
f 60//60 64//64 98//98
f 98//98 64//64 97//97
f 100//100 98//98 97//97
f 101//101 60//60 98//98
f 100//100 101//101 98//98
f 99//99 100//100 79//79
f 99//99 107//107 100//100
f 107//107 99//99 74//74
f 100//100 106//106 101//101
f 90//90 102//102 103//103
f 103//103 102//102 108//108
f 104//104 107//107 74//74
f 106//106 105//105 101//101
f 102//102 85//85 108//108
f 85//85 110//110 108//108
f 108//108 110//110 109//109
f 104//104 103//103 109//109
f 109//109 103//103 108//108
f 105//105 106//106 110//110
f 105//105 110//110 85//85
f 110//110 106//106 107//107
f 109//109 110//110 107//107
f 109//109 107//107 104//104
f 90//90 103//103 111//111
f 95//95 90//90 111//111
f 112//112 111//111 103//103
f 112//112 103//103 104//104
f 107//107 106//106 100//100
