# Wavafront OBJ file of BodyParts3D
# BodyParts3D, Copyright(C) 2010-2011 The Database Center for Life Science licensed under CC Attribution-Share Alike 2.1 Japan.
vn -0.567145 -0.821814 -0.0544848
v -0.837068 -193.584 1518.11
vn -0.334257 -0.939896 0.069766
v -2.08543 -193.633 1519.35
vn 0.0664117 -0.934651 -0.349311
v -1.77334 -193.667 1519.35
vn 0.06583 -0.98482 0.160612
v -1.77334 -193.682 1519.67
vn -0.672294 -0.73387 -0.0972401
v -1.20524 -193.216 1518.11
vn -0.954009 0.239296 -0.180568
v -1.2345 -192.904 1518.11
vn -0.965594 0.0703419 -0.250362
v -1.14916 -193.216 1517.16
vn -0.853251 0.376735 -0.360601
v -1.10283 -192.904 1517.17
vn -0.43867 -0.757243 -0.483892
v -0.524978 -193.462 1516.86
vn 0.332133 -0.943231 0.00182177
v -0.518736 -193.528 1517.79
vn 0.370269 -0.916824 0.149448
v -0.524978 -193.482 1518.42
vn -0.779016 0.263969 -0.56873
v -0.506464 -192.904 1516.23
vn -0.590753 -0.775857 0.221487
v -2.53649 -193.216 1519.98
vn -0.98416 -0.132631 0.117637
v -2.70961 -192.549 1520.6
vn -0.627809 0.609637 -0.483941
v -2.47554 -192.28 1520.6
vn -0.362376 -0.88145 0.302869
v -2.08543 -193.528 1520.09
vn -0.670309 0.200601 -0.714454
v -2.08543 -193.216 1519.23
vn 4.19811e-005 -0.830124 -0.557579
v -1.77334 -193.528 1519.15
vn -0.343678 -0.28283 -0.895485
v -1.756 -193.216 1519.04
vn 0.0546801 -0.920667 -0.386499
v -1.46125 -193.423 1519.04
vn 0.230269 -0.968603 -0.0937252
v -1.17669 -193.528 1519.35
vn -0.531485 -0.712504 -0.458107
v -1.34979 -193.216 1518.73
vn -0.949614 -0.177483 -0.258327
v -1.46125 -192.904 1518.83
vn -0.690705 0.544224 -0.47618
v -1.46125 -191.839 1519.98
vn -0.469497 -0.860815 -0.196391
v -1.14916 -193.37 1518.73
vn 0.335452 -0.909583 0.245214
v -1.14916 -193.336 1520.29
vn -0.151179 -0.980777 -0.123375
v -0.837068 -193.448 1519.04
vn -0.405297 -0.770269 0.492362
v -2.62915 -192.592 1521.23
vn 0.0486703 -0.867967 0.494231
v -1.46125 -193.053 1521.23
vn -0.864153 0.439809 -0.244554
v -2.27805 -190.719 1522.79
vn -0.777182 0.373355 -0.506551
v -1.77334 -189.159 1523.6
vn -0.627037 0.493492 -0.602736
v -1.46125 -188.847 1523.5
vn -0.933646 0.326811 -0.14663
v -2.14638 -189.783 1524.04
vn -0.99838 -0.00843673 0.0562679
v -2.33963 -188.535 1524.35
vn -0.845644 -0.432276 0.313086
v -2.08543 -187.911 1526.53
vn -0.28848 -0.731129 0.618247
v -1.14916 -188.162 1527.16
vn -0.580238 -0.620491 0.527555
v -1.46125 -186.662 1529.27
vn -0.944073 0.329321 -0.0165457
v -2.08543 -185.95 1529.03
vn -0.984491 -0.00436649 0.17538
v -2.08543 -186.038 1529.36
vn -0.924291 0.380659 -0.0280333
v -1.53683 -184.79 1528.72
vn -0.988179 0.10735 0.109449
v -1.56121 -184.79 1530.9
vn -0.993525 0.0484773 -0.102755
v -1.5027 -184.166 1530.9
vn -0.975471 0.192222 -0.107268
v -1.22962 -184.166 1529.97
vn -0.94369 0.0995516 0.315498
v -1.19548 -183.854 1529.03
vn -0.986915 -0.0381032 0.156675
v -1.50757 -184.478 1531.21
vn -0.487695 -0.672351 0.556865
v -1.42955 -184.79 1531.21
vn -0.0422753 -0.810725 0.583899
v -0.837068 -185.102 1531.27
vn -0.909875 -0.0214346 0.414328
v -1.60998 -183.541 1528.41
vn -0.973578 -0.0448488 0.223907
v -1.55146 -182.605 1528.72
vn -0.916217 -0.16847 0.363543
v -1.24425 -183.229 1529.03
vn -0.986579 -0.0736311 -0.145739
v -1.34665 -182.917 1529.97
vn -0.974211 -0.184901 0.129322
v -1.36128 -182.605 1529.34
vn -0.993358 0.109522 0.0352758
v -1.30764 -181.669 1529.97
vn -0.995314 -0.0943637 0.0211124
v -1.12234 -183.541 1529.34
vn -0.50582 -0.749013 0.427932
v -1.20036 -182.293 1534.96
vn -0.990301 -0.12289 0.0648198
v -1.34665 -181.669 1534.96
vn -0.223656 -0.83493 0.502862
v -0.524978 -181.744 1536.52
vn -0.945984 0.22799 0.230509
v -0.902899 -179.796 1530.59
vn -0.831157 0.55156 0.0704251
v -0.595686 -179.172 1530.9
vn -0.517768 0.408387 -0.751755
v -0.524978 -179.779 1529.03
vn -0.910646 0.410347 -0.0483622
v -0.898023 -179.796 1531.21
vn -0.707156 0.706649 -0.0240304
v -0.524978 -179.185 1531.53
vn -0.98963 0.0673772 -0.126855
v -1.46125 -179.484 1534.86
vn -0.800537 0.529739 -0.280208
v -1.14916 -178.892 1534.65
vn -0.991618 -0.126228 -0.0275832
v -1.6685 -179.796 1539.02
vn -0.367736 -0.713903 0.595913
v -1.14916 -180.106 1539.33
vn -0.49955 -0.062405 0.864034
v -1.14916 -179.172 1539.89
vn -0.271913 0.166029 0.947891
v -0.837068 -178.86 1539.88
vn 0.111329 -0.816595 0.566373
v -0.524978 -180.179 1539.33
vn 0.0496222 -0.584976 0.809531
v -0.524978 -179.796 1539.77
vn -0.898939 0.429377 -0.0868624
v -0.863888 -178.548 1529.97
vn -0.918794 0.346717 0.188692
v -0.894037 -178.548 1530.28
vn -0.501787 0.499044 -0.706516
v -0.524978 -178.141 1529.97
vn -0.949341 0.192061 -0.248725
v -1.77334 -177.263 1537.77
vn -0.994763 -0.0353543 -0.0958959
v -1.98058 -176.988 1539.33
vn -0.993102 -0.103888 -0.0543736
v -1.77334 -178.548 1538.77
vn -0.823174 0.0347854 0.566722
v -1.17598 -178.548 1539.64
vn -0.330635 0.0736036 0.940884
v -0.837068 -178.548 1539.85
vn -0.64933 -0.156623 0.744204
v -0.837068 -177.932 1540.26
vn -0.768572 0.324261 -0.5515
v -0.127551 -192.592 1515.92
vn -0.648299 -0.117743 -0.752227
v 0.099202 -192.592 1515.68
vn -0.492409 -0.422504 -0.760936
v 1.03547 -192.463 1514.99
vn -0.624282 -0.13478 -0.769484
v 1.04279 -191.656 1514.67
vn -0.399001 -0.446292 -0.801013
v 2.2129 -191.344 1513.74
vn 0.471673 -0.762979 0.442026
v 1.03547 -191.205 1522.48
vn -0.826713 0.480611 -0.292505
v 1.784 -189.471 1515.92
vn -0.817796 0.205326 -0.537635
v 1.97174 -190.719 1513.99
vn 0.384096 -0.779765 0.494405
v 0.723382 -185.358 1530.28
vn 0.235328 -0.826849 0.510824
v 0.411292 -181.496 1536.83
vn -0.257282 0.633169 -0.730002
v 1.03547 -179.484 1528.56
vn -0.412665 0.746759 0.521591
v -0.212888 -178.804 1530.9
vn -0.257458 0.474011 -0.842038
v 0.411292 -178.86 1529.06
vn -0.0688135 0.581559 -0.810589
v 0.723382 -179.172 1528.82
vn 0.0507297 0.756984 -0.651461
v 1.03547 -179.172 1528.83
vn 0.366477 0.792856 -0.486902
v 1.03547 -178.86 1529.21
vn 0.00716056 0.86482 -0.502031
v 1.34756 -179.267 1528.72
vn 0.248037 0.859047 -0.447789
v 1.34756 -179.172 1528.91
vn 0.450923 0.86442 -0.222364
v 1.34756 -178.994 1529.34
vn 0.24839 0.945504 -0.210536
v 1.65965 -179.199 1529.03
vn -0.090912 0.00591972 0.995841
v 0.411292 -178.86 1540.02
vn -0.356515 0.553418 -0.752746
v -0.212888 -178.236 1529.67
vn -0.443619 0.877092 0.18415
v -0.212888 -177.984 1530.28
vn -0.275389 0.56689 0.7764
v -0.212888 -178.236 1530.45
vn -0.189062 0.715674 -0.672359
v -0.18688 -177.924 1529.97
vn -0.069584 0.991001 0.11435
v 0.099202 -177.94 1530.28
vn 0.417724 0.850992 -0.318307
v 0.154573 -177.924 1529.97
vn 0.0427265 0.690251 -0.722307
v 0.411292 -178.44 1529.34
vn -0.163708 0.666732 0.727096
v 0.411292 -178.331 1530.59
vn 0.484139 0.873267 0.0549104
v 0.723382 -178.307 1530.28
vn -0.331159 0.825736 0.45661
v 0.723382 -178.428 1530.9
vn 0.385226 0.907906 -0.165252
v 1.03547 -178.516 1530.59
vn 0.247328 0.894772 -0.371769
v 1.97174 -177.409 1535.27
vn -0.257984 0.871082 -0.417924
v -0.06691 -176.675 1537.46
vn -0.123714 0.91164 -0.391929
v 1.34756 -176.254 1537.77
vn 0.0916941 0.953697 -0.286452
v 1.65965 -176.117 1538.08
vn -0.156181 0.877506 -0.453422
v 1.97174 -176.634 1536.83
vn 0.416539 0.909071 -0.00923165
v 1.97174 -176.151 1538.39
vn 0.320891 -0.364916 0.873994
v 0.411292 -177.612 1540.32
vn 0.3636 -0.485347 0.795131
v 0.723382 -176.363 1541.09
vn 0.691718 -0.299869 0.656966
v 1.77669 -177.3 1539.64
vn 0.602031 -0.0774466 0.794708
v 1.97174 -177.612 1539.44
vn 0.986721 0.159694 0.0296554
v 1.97174 -176.246 1539.33
vn 0.0786636 0.884078 -0.460672
v 1.34756 -176.051 1538.16
vn 0.498205 0.818633 -0.285713
v 1.66708 -176.051 1538.39
vn -0.10388 0.992967 0.0567855
v 2.05435 -176.051 1538.08
vn -0.56778 0.794987 -0.213592
v 0.099202 -174.854 1540.26
vn -0.333246 0.829327 -0.448513
v 0.411292 -174.956 1539.64
vn -0.503635 0.863688 0.0198443
v 0.411292 -174.56 1540.89
vn 0.00145809 0.842149 -0.539243
v 0.723382 -175.078 1539.33
vn -0.184615 0.951092 -0.24767
v 0.723382 -174.43 1540.58
vn 0.347326 0.87434 -0.338961
v 1.03547 -174.464 1540.58
vn 0.164771 0.985107 -0.0491462
v 1.03547 -174.41 1540.89
vn 0.587876 -0.284388 0.757314
v 1.34756 -175.739 1541.07
vn 0.700112 0.200563 0.685286
v 1.34756 -175.115 1541.16
vn 0.825854 0.563243 0.0268685
v 1.50361 -174.803 1540.58
vn 0.933875 0.349889 -0.0738548
v 1.83764 -175.739 1539.64
vn 0.936215 0.0262735 0.350445
v 1.75474 -175.739 1540.58
vn -0.410479 0.116106 0.904448
v 0.346839 -175.115 1541.2
vn 0.18184 -0.089866 0.979213
v 1.03547 -175.427 1541.3
vn -0.0559473 0.355566 0.932975
v 1.03547 -174.803 1541.25
vn 0.555506 -0.831002 0.0291343
v 3.84428 -191.146 1515.61
vn -0.870459 0.279832 -0.404963
v 3.33957 -188.847 1512.18
vn -0.669835 0.0312137 -0.741854
v 3.53219 -188.847 1511.85
vn -0.22829 -0.387114 -0.893323
v 3.84428 -189.159 1511.78
vn 0.33381 -0.862154 -0.381132
v 4.15637 -190.683 1513.11
vn -0.199378 -0.131178 -0.971103
v 4.15637 -188.535 1511.57
vn -0.768262 0.485499 -0.417209
v 4.73423 -185.414 1511.86
vn -0.770842 0.615673 -0.163551
v 4.68059 -185.102 1513.74
vn -0.776958 0.581772 -0.240579
v 4.37337 -183.854 1517.79
vn 0.702339 -0.615777 0.357125
v 3.84428 -184.166 1528.35
vn -0.604176 0.727399 -0.325365
v 3.53219 -182.378 1523.1
vn -0.487973 0.683673 -0.542654
v 3.2201 -181.506 1525.28
vn 0.0293067 0.823773 -0.566162
v 3.53219 -181.208 1525.6
vn 0.128889 0.92464 -0.35837
v 3.84428 -181.744 1524.66
vn 0.460523 0.79002 -0.404707
v 3.84428 -181.125 1525.91
vn 0.823251 0.550515 -0.138535
v 4.71472 -182.605 1524.35
vn 0.556212 -0.724391 0.40729
v 2.90801 -182.917 1532.55
vn -0.266981 0.723781 -0.636288
v 2.28383 -180.03 1527.16
vn 0.00347673 0.928899 -0.370317
v 2.28383 -179.414 1528.09
vn 0.214576 0.8562 -0.469977
v 2.90801 -179.796 1527.4
vn 0.54627 0.82385 -0.151195
v 3.84428 -179.848 1528.72
vn 0.479186 0.851798 -0.211712
v 3.2201 -179.545 1531.84
vn 0.502551 0.86262 -0.0576994
v 3.53219 -179.701 1531.21
vn 0.897029 -0.369418 0.242629
v 4.32948 -181.045 1533.4
vn 0.992833 0.0774913 0.0909771
v 4.43677 -180.733 1533.09
vn 0.821021 0.562213 -0.0992014
v 4.23196 -180.108 1532.46
vn 0.998104 -0.0549448 0.027729
v 4.4514 -180.421 1534.02
vn 0.866246 -0.404232 0.293622
v 4.39776 -180.108 1534.96
vn 0.962139 0.271527 -0.0237078
v 4.42214 -179.796 1534.96
vn 0.99026 0.0185246 0.137993
v 4.28072 -179.484 1535.9
vn 0.820201 0.508654 -0.261805
v 4.15637 -179.148 1535.9
vn 0.622724 -0.609641 0.490462
v 3.53219 -179.172 1537.8
vn 0.434813 -0.638483 0.635041
v 2.28383 -179.409 1538.7
vn 0.0406563 0.84652 0.530802
v 2.28383 -176.161 1538.39
vn 0.540171 0.707581 -0.455571
v 2.75197 -176.988 1536.83
vn 0.274385 0.588823 0.760263
v 2.59592 -176.363 1538.58
vn 0.430845 0.319264 0.844063
v 3.44839 -176.675 1538.39
vn 0.656092 0.650902 -0.381928
v 3.2201 -176.317 1537.77
vn 0.715507 -0.206811 0.667292
v 3.7687 -178.548 1538.08
vn 0.664688 0.564143 -0.489829
v 3.84428 -178.32 1536.52
vn 0.843778 0.470029 -0.259058
v 4.04178 -177.924 1537.46
vn 0.605206 0.233145 0.761163
v 2.28383 -176.988 1539.09
vn 0.118741 0.700948 0.703259
v 2.28383 -176.422 1538.7
vn 0.473239 0.165691 0.865212
v 2.90801 -176.988 1538.72
vn 0.339949 0.724074 -0.600125
v 2.59592 -176.051 1537.73
vn 0.0916894 0.89539 0.435741
v 2.90801 -175.985 1538.08
vn 0.16906 -0.702646 -0.691164
v 4.78055 -189.917 1512.18
vn 0.275828 -0.366558 -0.888568
v 5.09264 -189.159 1511.71
vn 0.680813 -0.674565 -0.285405
v 5.40473 -189.737 1512.49
vn 0.77313 -0.615301 0.153867
v 5.91919 -189.159 1515.3
vn 0.566732 -0.0665233 -0.821212
v 6.02891 -186.974 1511.6
vn 0.803738 -0.22457 -0.550976
v 6.44419 -187.911 1512.18
vn 0.933819 -0.300057 -0.194802
v 6.71405 -187.911 1512.8
vn 0.956264 -0.0054684 -0.292455
v 6.74331 -187.599 1512.8
vn 0.846583 -0.531991 -0.0168077
v 6.46047 -188.535 1513.74
vn 0.973576 -0.22157 0.0552891
v 7.02126 -187.286 1514.99
vn 0.991967 0.0490262 -0.11661
v 6.98225 -186.974 1514.36
vn 0.91093 -0.323969 0.255441
v 6.33369 -186.662 1519.35
vn -0.420809 0.341388 -0.840461
v 5.09264 -186.038 1511.28
vn -0.242721 0.722818 -0.647009
v 5.09264 -185.095 1511.86
vn -0.521974 0.821969 -0.227839
v 5.09264 -184.86 1512.49
vn 0.183302 0.725304 -0.663577
v 5.43724 -185.102 1511.86
vn 0.0572657 0.909003 -0.412837
v 5.40473 -184.89 1512.18
vn -0.388543 0.873632 -0.29292
v 5.40473 -184.505 1513.42
vn 0.295491 0.385041 -0.874316
v 5.71682 -185.726 1511.43
vn 0.726504 0.199905 -0.657442
v 6.02891 -185.726 1511.66
vn 0.639358 0.581626 -0.502925
v 6.02891 -185.387 1511.86
vn 0.907496 0.136369 -0.39731
v 6.39708 -186.038 1512.18
vn -0.766196 0.591123 -0.252027
v 4.78055 -184.166 1515.56
vn -0.414119 0.881722 -0.22599
v 5.09264 -183.69 1515.92
vn -0.0838021 0.946519 -0.311574
v 5.40473 -183.854 1515.15
vn 0.183223 0.970792 -0.154895
v 5.40473 -183.724 1515.61
vn 0.13831 0.954316 -0.264859
v 6.02891 -184.178 1514.36
vn 0.661363 0.749865 0.0173497
v 6.02891 -184.051 1515.3
vn 0.921045 0.33992 -0.190078
v 6.75306 -185.414 1514.05
vn 0.954865 0.296266 0.0214384
v 6.77744 -185.102 1515.61
vn -0.426194 0.874849 -0.230214
v 4.78055 -183.637 1517.17
vn 0.411996 0.909562 -0.0543683
v 5.09264 -183.558 1517.48
vn 0.819659 0.568905 0.0671275
v 6.24591 -185.414 1520.29
vn 0.894296 -0.363939 0.260352
v 4.86589 -182.917 1527.47
vn 0.735801 -0.614388 0.284823
v 4.87564 -181.669 1530.9
vn 0.953811 0.297644 0.0406516
v 4.86101 -181.045 1531.21
vn 0.176455 -0.983095 0.048872
v -0.837068 -193.584 1518.11
vn -0.0904204 -0.826724 -0.555295
v -2.08543 -193.633 1519.35
vn -0.68207 -0.21657 -0.698483
v -2.08543 -193.633 1519.35
vn -0.969721 -0.150115 -0.192628
v -1.20524 -193.216 1518.11
vn -0.578224 -0.76563 -0.281902
v -1.14916 -193.216 1517.16
vn 0.338168 -0.937472 -0.0823972
v -0.524978 -193.462 1516.86
vn -0.463565 -0.572896 -0.675942
v -0.506464 -192.904 1516.23
vn -0.937381 -0.334353 0.0975997
v -2.53649 -193.216 1519.98
vn -0.857032 0.0471573 -0.5131
v -2.53649 -193.216 1519.98
vn -0.733851 0.47814 -0.482541
v -2.70961 -192.549 1520.6
vn -0.387185 -0.276195 -0.879662
v -1.77334 -193.528 1519.15
vn -0.609804 0.530606 -0.588725
v -1.756 -193.216 1519.04
vn -0.460398 -0.654794 -0.599398
v -1.756 -193.216 1519.04
vn -0.608593 0.0426615 -0.792335
v -1.756 -193.216 1519.04
vn -0.474065 -0.645912 -0.598381
v -1.46125 -193.423 1519.04
vn -0.212078 -0.301624 -0.929541
v -1.46125 -193.423 1519.04
vn -0.939613 -0.26418 -0.21757
v -1.34979 -193.216 1518.73
vn -0.608593 0.0426615 -0.792335
v -1.34979 -193.216 1518.73
vn -0.80158 0.478295 -0.358752
v -1.46125 -192.904 1518.83
vn -0.608593 0.0426615 -0.792335
v -1.46125 -192.904 1518.83
vn 0.232393 -0.961317 0.147865
v -0.837068 -193.448 1519.04
vn -0.998827 -0.00133535 0.0484013
v -2.62915 -192.592 1521.23
vn -0.869037 -0.267095 0.416456
v -2.62915 -192.592 1521.23
vn -0.883896 -0.363198 0.294643
v -2.14638 -189.783 1524.04
vn -0.782588 0.0342156 -0.621599
v -2.14638 -189.783 1524.04
vn -0.869037 -0.267095 0.416456
v -2.14638 -189.783 1524.04
vn -0.322103 -0.794064 0.515473
v -2.14638 -189.783 1524.04
vn -0.559885 0.410576 -0.719692
v -2.33963 -188.535 1524.35
vn -0.983562 -0.00297818 0.180548
v -2.33963 -188.535 1524.35
vn -0.877658 0.354409 -0.322662
v -2.33963 -188.535 1524.35
vn -0.869037 -0.267095 0.416456
v -1.14916 -188.162 1527.16
vn 0.0271148 -0.807572 0.589145
v -1.14916 -188.162 1527.16
vn -0.0150125 -0.817327 0.575978
v -1.46125 -186.662 1529.27
vn -0.564202 -0.640937 0.520458
v -2.08543 -186.038 1529.36
vn -0.916792 0.045449 0.396769
v -1.53683 -184.79 1528.72
vn -0.933918 -0.195145 0.299525
v -1.42955 -184.79 1531.21
vn -0.792782 0.343549 -0.503458
v -1.55146 -182.605 1528.72
vn -0.966807 -0.226591 0.118074
v -1.20036 -182.293 1534.96
vn -0.831402 0.140335 0.537659
v -0.595686 -179.172 1530.9
vn -0.471506 0.531711 0.703538
v -0.595686 -179.172 1530.9
vn -0.754449 -0.378593 0.536166
v -1.6685 -179.796 1539.02
vn -0.597507 0.374697 -0.708934
v -0.863888 -178.548 1529.97
vn -0.426637 0.520729 0.739474
v -0.894037 -178.548 1530.28
vn -0.651193 0.752691 0.096975
v -0.524978 -178.141 1529.97
vn -0.440938 0.780417 -0.443309
v -1.77334 -177.263 1537.77
vn -0.742675 0.0302656 0.668968
v -1.98058 -176.988 1539.33
vn -0.693166 0.715158 -0.0898305
v -1.98058 -176.988 1539.33
vn -0.824418 -0.0553297 0.56327
v -1.77334 -178.548 1538.77
vn -0.422957 0.20876 0.881775
v -1.17598 -178.548 1539.64
vn -0.461348 -0.493354 0.737401
v -1.17598 -178.548 1539.64
vn -0.355534 -0.519736 0.776833
v -0.837068 -178.548 1539.85
vn -0.151454 -0.468106 0.870596
v -0.837068 -177.932 1540.26
vn 0.441633 -0.890572 -0.108819
v 1.03547 -192.463 1514.99
vn 0.0575302 -0.769737 -0.635763
v 1.03547 -192.463 1514.99
vn -0.784861 0.485991 -0.384457
v 1.04279 -191.656 1514.67
vn 0.285476 -0.359705 0.888322
v 0.411292 -178.86 1540.02
vn -0.256649 0.547778 0.796285
v -0.212888 -177.984 1530.28
vn -0.232002 0.965483 0.118396
v -0.18688 -177.924 1529.97
vn -0.0869287 0.569606 0.817308
v 0.099202 -177.94 1530.28
vn 0.479863 0.816395 0.321296
v 0.099202 -177.94 1530.28
vn 0 0.998702 0.0509412
v 0.154573 -177.924 1529.97
vn 0.286016 0.889844 0.355489
v 0.411292 -178.331 1530.59
vn -0.59487 0.755725 -0.273879
v 0.723382 -178.428 1530.9
vn 0.272512 0.944317 0.184399
v 0.723382 -178.428 1530.9
vn 0.0151127 0.96638 -0.256672
v 0.723382 -178.428 1530.9
vn -0.15872 0.951701 0.262819
v 1.65965 -176.117 1538.08
vn 0.346647 0.765 -0.542781
v 1.97174 -176.634 1536.83
vn -0.0358199 0.909309 0.414577
v 1.97174 -176.151 1538.39
vn -0.260407 -0.165881 0.951142
v 0.723382 -176.363 1541.09
vn 0.794242 0.125926 0.59441
v 1.97174 -176.246 1539.33
vn 0.464944 0.88081 0.0894447
v 1.97174 -176.246 1539.33
vn -0.746947 0.389653 0.53874
v 0.411292 -174.56 1540.89
vn -0.220989 0.584153 0.780979
v 0.411292 -174.56 1540.89
vn -0.159462 0.665613 0.729062
v 1.03547 -174.41 1540.89
vn 0.695443 0.506128 0.510092
v 1.03547 -174.41 1540.89
vn 0.658379 0.507492 0.555868
v 1.03547 -174.803 1541.25
vn 0.831454 0.555396 0.0148216
v 3.44839 -176.675 1538.39
vn 0.884169 0.0743622 0.461212
v 3.44839 -176.675 1538.39
vn 0.926626 -0.0306909 0.374729
v 4.04178 -177.924 1537.46
vn 0.891667 0.255087 0.37398
v 2.28383 -176.422 1538.7
vn 0.606441 0.79106 0.0803308
v 2.28383 -176.422 1538.7
vn -0.133799 0.950991 -0.278771
v 2.59592 -176.051 1537.73
vn 0.371384 0.797283 -0.47583
v 2.90801 -175.985 1538.08
vn 0.764899 0.638281 0.0867611
v 2.90801 -175.985 1538.08
vn 0.171596 -0.111966 -0.978784
v 5.09264 -186.038 1511.28
vn 0.750097 0.624684 -0.217083
v 6.02891 -184.178 1514.36
vn 0.984467 -0.0556647 0.166512
v 6.24591 -185.414 1520.29
vn 0.979708 0.199729 -0.0167533
v 4.86589 -182.917 1527.47
vn 0.993191 -0.0326257 0.111834
v 4.87564 -181.669 1530.9
f 2//2 16//16 13//13
f 224//224 18//18 3//3
f 3//3 4//4 2//2
f 2//2 4//4 16//16
f 18//18 20//20 3//3
f 3//3 21//21 4//4
f 21//21 26//26 4//4
f 3//3 20//20 21//21
f 80//80 81//81 12//12
f 5//5 25//25 22//22
f 6//6 7//7 226//226
f 226//226 23//23 6//6
f 226//226 239//239 23//23
f 86//86 6//6 241//241
f 5//5 227//227 1//1
f 25//25 5//5 1//1
f 7//7 6//6 8//8
f 86//86 8//8 6//6
f 227//227 229//229 9//9
f 1//1 227//227 9//9
f 228//228 10//10 223//223
f 8//8 12//12 7//7
f 10//10 11//11 223//223
f 8//8 80//80 12//12
f 8//8 86//86 80//80
f 16//16 28//28 13//13
f 230//230 244//244 14//14
f 17//17 233//233 225//225
f 231//231 17//17 225//225
f 231//231 232//232 17//17
f 29//29 28//28 16//16
f 17//17 232//232 15//15
f 19//19 233//233 17//17
f 29//29 16//16 4//4
f 17//17 24//24 234//234
f 24//24 17//17 15//15
f 22//22 237//237 235//235
f 238//238 233//233 19//19
f 26//26 29//29 4//4
f 242//242 240//240 236//236
f 234//234 24//24 241//241
f 22//22 25//25 237//237
f 20//20 25//25 27//27
f 20//20 27//27 21//21
f 26//26 85//85 29//29
f 1//1 27//27 25//25
f 243//243 26//26 21//21
f 241//241 24//24 86//86
f 223//223 11//11 243//243
f 11//11 26//26 243//243
f 30//30 14//14 244//244
f 30//30 15//15 232//232
f 24//24 15//15 30//30
f 29//29 36//36 28//28
f 33//33 30//30 244//244
f 31//31 24//24 30//30
f 33//33 31//31 30//30
f 24//24 31//31 32//32
f 32//32 152//152 24//24
f 35//35 34//34 246//246
f 32//32 31//31 250//250
f 250//250 31//31 247//247
f 246//246 37//37 35//35
f 245//245 253//253 248//248
f 249//249 254//254 255//255
f 85//85 254//254 29//29
f 250//250 152//152 32//32
f 35//35 39//39 34//34
f 34//34 39//39 38//38
f 35//35 37//37 256//256
f 38//38 40//40 34//34
f 43//43 40//40 38//38
f 37//37 46//46 256//256
f 47//47 46//46 37//37
f 255//255 254//254 85//85
f 44//44 48//48 257//257
f 257//257 48//48 251//251
f 258//258 41//41 39//39
f 39//39 41//41 38//38
f 38//38 41//41 43//43
f 44//44 40//40 43//43
f 41//41 45//45 42//42
f 43//43 41//41 42//42
f 258//258 45//45 41//41
f 43//43 42//42 51//51
f 44//44 43//43 54//54
f 54//54 43//43 51//51
f 47//47 255//255 85//85
f 45//45 53//53 42//42
f 46//46 47//47 57//57
f 47//47 89//89 57//57
f 250//250 60//60 90//90
f 51//51 42//42 53//53
f 48//48 49//49 251//251
f 44//44 50//50 48//48
f 44//44 54//54 50//50
f 48//48 50//50 49//49
f 54//54 52//52 50//50
f 54//54 51//51 52//52
f 52//52 49//49 50//50
f 51//51 53//53 52//52
f 53//53 49//49 52//52
f 252//252 259//259 60//60
f 53//53 72//72 49//49
f 53//53 45//45 56//56
f 45//45 258//258 56//56
f 56//56 63//63 53//53
f 57//57 55//55 46//46
f 56//56 258//258 260//260
f 69//69 57//57 89//89
f 64//64 61//61 53//53
f 53//53 58//58 72//72
f 53//53 61//61 58//58
f 61//61 59//59 58//58
f 261//261 72//72 58//58
f 49//49 72//72 71//71
f 259//259 264//264 60//60
f 53//53 63//63 64//64
f 61//61 64//64 62//62
f 59//59 61//61 62//62
f 56//56 65//65 63//63
f 65//65 76//76 63//63
f 260//260 65//65 56//56
f 55//55 57//57 66//66
f 89//89 173//173 69//69
f 55//55 66//66 263//263
f 263//263 67//67 270//270
f 263//263 66//66 67//67
f 67//67 66//66 70//70
f 77//77 270//270 67//67
f 69//69 66//66 57//57
f 100//100 67//67 70//70
f 100//100 68//68 67//67
f 68//68 271//271 67//67
f 68//68 78//78 271//271
f 66//66 69//69 70//70
f 78//78 68//68 100//100
f 70//70 69//69 173//173
f 60//60 264//264 73//73
f 266//266 71//71 72//72
f 73//73 101//101 60//60
f 91//91 103//103 262//262
f 103//103 265//265 262//262
f 104//104 101//101 73//73
f 280//280 266//266 102//102
f 266//266 72//72 102//102
f 103//103 279//279 265//265
f 63//63 76//76 75//75
f 74//74 63//63 75//75
f 63//63 74//74 64//64
f 113//113 64//64 267//267
f 270//270 79//79 268//268
f 267//267 269//269 126//126
f 77//77 79//79 270//270
f 273//273 274//274 272//272
f 273//273 278//278 274//274
f 126//126 269//269 128//128
f 81//81 82//82 229//229
f 80//80 83//83 81//81
f 86//86 277//277 80//80
f 81//81 83//83 82//82
f 84//84 82//82 83//83
f 87//87 84//84 83//83
f 228//228 141//141 10//10
f 229//229 82//82 9//9
f 228//228 275//275 141//141
f 10//10 141//141 11//11
f 85//85 26//26 11//11
f 277//277 86//86 87//87
f 86//86 24//24 152//152
f 150//150 88//88 85//85
f 88//88 47//47 85//85
f 88//88 89//89 47//47
f 88//88 157//157 89//89
f 150//150 157//157 88//88
f 157//157 173//173 89//89
f 158//158 250//250 90//90
f 158//158 90//90 159//159
f 159//159 90//90 96//96
f 159//159 96//96 99//99
f 91//91 59//59 62//62
f 60//60 93//93 90//90
f 60//60 92//92 93//93
f 91//91 110//110 108//108
f 62//62 110//110 91//91
f 113//113 285//285 62//62
f 90//90 94//94 96//96
f 93//93 94//94 90//90
f 93//93 95//95 94//94
f 94//94 97//97 96//96
f 97//97 94//94 95//95
f 98//98 97//97 95//95
f 99//99 96//96 97//97
f 99//99 97//97 98//98
f 99//99 98//98 163//163
f 64//64 113//113 62//62
f 278//278 70//70 173//173
f 278//278 173//173 179//179
f 179//179 121//121 278//278
f 60//60 101//101 92//92
f 91//91 108//108 103//103
f 107//107 101//101 104//104
f 107//107 92//92 101//101
f 280//280 102//102 105//105
f 281//281 279//279 103//103
f 108//108 281//281 103//103
f 106//106 107//107 104//104
f 282//282 109//109 106//106
f 109//109 282//282 284//284
f 283//283 280//280 105//105
f 93//93 92//92 107//107
f 95//95 93//93 107//107
f 284//284 286//286 109//109
f 106//106 95//95 107//107
f 109//109 95//95 106//106
f 109//109 98//98 95//95
f 111//111 98//98 109//109
f 111//111 109//109 286//286
f 287//287 113//113 111//111
f 112//112 111//111 113//113
f 162//162 98//98 111//111
f 112//112 162//162 111//111
f 175//175 162//162 112//112
f 112//112 113//113 116//116
f 175//175 112//112 289//289
f 129//129 113//113 267//267
f 114//114 113//113 123//123
f 114//114 123//123 115//115
f 123//123 124//124 115//115
f 114//114 115//115 125//125
f 124//124 117//117 115//115
f 290//290 125//125 288//288
f 185//185 175//175 289//289
f 116//116 113//113 114//114
f 125//125 290//290 174//174
f 183//183 174//174 290//290
f 118//118 274//274 278//278
f 121//121 118//118 278//278
f 118//118 121//121 120//120
f 119//119 274//274 118//118
f 79//79 291//291 138//138
f 118//118 120//120 119//119
f 120//120 122//122 137//137
f 292//292 121//121 182//182
f 121//121 292//292 120//120
f 302//302 292//292 182//182
f 293//293 303//303 117//117
f 124//124 293//293 117//117
f 123//123 113//113 129//129
f 124//124 123//123 129//129
f 268//268 138//138 294//294
f 138//138 268//268 79//79
f 267//267 126//126 127//127
f 267//267 127//127 129//129
f 130//130 129//129 127//127
f 130//130 127//127 126//126
f 130//130 126//126 128//128
f 131//131 129//129 130//130
f 131//131 130//130 132//132
f 130//130 128//128 132//132
f 140//140 296//296 295//295
f 139//139 119//119 133//133
f 134//134 139//139 133//133
f 131//131 124//124 129//129
f 135//135 124//124 131//131
f 134//134 297//297 298//298
f 132//132 135//135 131//131
f 133//133 120//120 137//137
f 119//119 120//120 133//133
f 124//124 135//135 136//136
f 133//133 137//137 134//134
f 135//135 134//134 137//137
f 297//297 134//134 135//135
f 124//124 136//136 122//122
f 122//122 136//136 137//137
f 137//137 136//136 135//135
f 291//291 139//139 138//138
f 139//139 140//140 138//138
f 140//140 295//295 138//138
f 139//139 134//134 140//140
f 276//276 84//84 145//145
f 145//145 141//141 275//275
f 145//145 189//189 141//141
f 85//85 11//11 141//141
f 86//86 142//142 87//87
f 143//143 84//84 87//87
f 142//142 143//143 87//87
f 143//143 142//142 147//147
f 144//144 84//84 143//143
f 144//144 143//143 146//146
f 147//147 199//199 143//143
f 143//143 199//199 146//146
f 84//84 187//187 145//145
f 187//187 84//84 144//144
f 144//144 146//146 188//188
f 187//187 144//144 188//188
f 142//142 86//86 147//147
f 86//86 148//148 147//147
f 188//188 146//146 307//307
f 150//150 85//85 198//198
f 147//147 148//148 201//201
f 201//201 148//148 204//204
f 210//210 209//209 149//149
f 148//148 86//86 209//209
f 209//209 86//86 149//149
f 210//210 149//149 217//217
f 86//86 152//152 151//151
f 151//151 149//149 86//86
f 154//154 217//217 151//151
f 149//149 151//151 217//217
f 154//154 218//218 217//217
f 151//151 152//152 154//154
f 156//156 154//154 155//155
f 156//156 218//218 154//154
f 153//153 154//154 152//152
f 155//155 154//154 153//153
f 221//221 150//150 220//220
f 150//150 221//221 157//157
f 157//157 164//164 168//168
f 221//221 164//164 157//157
f 222//222 164//164 311//311
f 152//152 250//250 158//158
f 153//153 152//152 158//158
f 160//160 153//153 158//158
f 158//158 159//159 160//160
f 159//159 99//99 161//161
f 159//159 161//161 160//160
f 155//155 153//153 160//160
f 161//161 155//155 160//160
f 155//155 161//161 156//156
f 99//99 163//163 161//161
f 166//166 165//165 222//222
f 163//163 222//222 161//161
f 222//222 163//163 166//166
f 156//156 161//161 222//222
f 162//162 175//175 166//166
f 98//98 162//162 163//163
f 162//162 166//166 163//163
f 165//165 166//166 167//167
f 222//222 165//165 164//164
f 168//168 172//172 157//157
f 175//175 169//169 166//166
f 170//170 179//179 168//168
f 169//169 171//171 170//170
f 167//167 168//168 164//164
f 165//165 167//167 164//164
f 167//167 169//169 168//168
f 168//168 169//169 170//170
f 166//166 169//169 167//167
f 172//172 173//173 157//157
f 168//168 179//179 172//172
f 171//171 180//180 181//181
f 170//170 171//171 181//181
f 179//179 170//170 301//301
f 173//173 172//172 179//179
f 169//169 175//175 171//171
f 183//183 182//182 176//176
f 176//176 174//174 183//183
f 184//184 176//176 182//182
f 174//174 186//186 125//125
f 186//186 174//174 176//176
f 185//185 178//178 175//175
f 177//177 176//176 184//184
f 305//305 178//178 185//185
f 177//177 186//186 176//176
f 178//178 306//306 299//299
f 171//171 175//175 180//180
f 180//180 175//175 178//178
f 179//179 301//301 300//300
f 299//299 181//181 178//178
f 181//181 180//180 178//178
f 182//182 121//121 179//179
f 179//179 184//184 182//182
f 179//179 177//177 184//184
f 304//304 116//116 114//114
f 125//125 304//304 114//114
f 186//186 304//304 125//125
f 188//188 189//189 187//187
f 187//187 189//189 145//145
f 192//192 189//189 188//188
f 192//192 188//188 191//191
f 193//193 189//189 192//192
f 189//189 193//193 195//195
f 141//141 190//190 85//85
f 189//189 190//190 141//141
f 189//189 195//195 190//190
f 198//198 85//85 190//190
f 196//196 198//198 190//190
f 191//191 188//188 307//307
f 192//192 191//191 208//208
f 206//206 208//208 191//191
f 192//192 208//208 194//194
f 192//192 194//194 193//193
f 194//194 208//208 197//197
f 193//193 194//194 197//197
f 196//196 190//190 195//195
f 196//196 193//193 197//197
f 193//193 196//196 195//195
f 196//196 197//197 216//216
f 196//196 216//216 198//198
f 200//200 199//199 147//147
f 201//201 200//200 147//147
f 203//203 202//202 200//200
f 203//203 200//200 201//201
f 203//203 201//201 204//204
f 191//191 307//307 205//205
f 205//205 199//199 200//200
f 205//205 200//200 202//202
f 191//191 205//205 206//206
f 205//205 207//207 206//206
f 207//207 205//205 202//202
f 203//203 207//207 202//202
f 207//207 208//208 206//206
f 215//215 208//208 207//207
f 208//208 215//215 197//197
f 209//209 204//204 148//148
f 204//204 209//209 210//210
f 213//213 204//204 211//211
f 211//211 204//204 210//210
f 211//211 210//210 212//212
f 212//212 210//210 218//218
f 203//203 204//204 213//213
f 213//213 211//211 212//212
f 218//218 214//214 212//212
f 213//213 212//212 214//214
f 308//308 207//207 203//203
f 215//215 308//308 216//216
f 207//207 308//308 215//215
f 214//214 218//218 219//219
f 216//216 197//197 215//215
f 219//219 216//216 214//214
f 214//214 216//216 308//308
f 218//218 210//210 217//217
f 216//216 309//309 198//198
f 218//218 156//156 219//219
f 310//310 219//219 156//156
f 150//150 198//198 220//220
f 220//220 198//198 309//309
f 311//311 310//310 222//222
f 222//222 310//310 156//156
