# Wavafront OBJ file of BodyParts3D
# BodyParts3D, Copyright(C) 2010-2011 The Database Center for Life Science licensed under CC Attribution-Share Alike 2.1 Japan.
vn -0.997093 0.0683905 -0.0335781
v -9.17463 -184.493 1468.07
vn -0.987186 0.0806999 -0.137661
v -9.13532 -184.49 1467.61
vn -0.972952 0.228761 -0.0321456
v -9.12667 -184.216 1467.98
vn -0.99122 -0.118023 -0.0596157
v -9.15438 -184.859 1467.88
vn -0.961242 0.0849685 -0.262285
v -9.07908 -184.575 1467.33
vn -0.978114 -0.0875955 -0.188733
v -9.12575 -184.809 1467.56
vn -0.997369 -0.0437478 0.0578086
v -9.17526 -184.639 1468.57
vn -0.937895 -0.343215 0.0505567
v -9.08616 -185.184 1468.06
vn -0.492641 0.692821 -0.526597
v -8.40381 -183.641 1466.88
vn -0.887552 0.229492 -0.399481
v -8.7296 -184.606 1466.27
vn -0.702592 0.466256 -0.537558
v -8.49375 -184.539 1465.93
vn -0.924857 -0.185902 -0.331782
v -8.62698 -185.246 1465.94
vn -0.866028 0.126184 -0.48381
v -8.55134 -185.013 1465.72
vn -0.705643 0.345687 -0.618521
v -8.28096 -184.863 1465.43
vn -0.760471 0.125535 -0.637123
v -8.27919 -185.143 1465.3
vn -0.636616 0.475237 -0.607347
v -8.28254 -184.692 1465.55
vn -0.851925 -0.173848 -0.493965
v -8.42649 -185.378 1465.53
vn -0.671922 -0.0944412 -0.734576
v -8.2424 -185.236 1465.26
vn -0.757998 -0.405816 -0.510639
v -8.26816 -185.7 1465.48
vn -0.574718 0.711716 -0.40393
v -8.61579 -183.506 1467.31
vn -0.494651 0.7968 -0.34703
v -8.40649 -183.153 1467.73
vn -0.897054 0.298448 -0.325918
v -8.94389 -184.111 1467.11
vn -0.927963 0.324933 -0.182491
v -9.03019 -184.067 1467.47
vn -0.74061 0.485189 -0.464854
v -8.77042 -184.06 1466.79
vn -0.749551 0.544353 -0.376634
v -8.79807 -183.789 1467.16
vn -0.769801 0.597814 -0.223662
v -8.79773 -183.61 1467.49
vn -0.943957 -0.210638 -0.254118
v -8.82521 -185.209 1466.54
vn -0.949741 -0.0202621 -0.312381
v -8.78819 -184.975 1466.31
vn -0.895551 -0.376039 -0.237871
v -8.59384 -185.619 1466.22
vn -0.875581 -0.352668 -0.330126
v -8.51854 -185.568 1465.9
vn -0.823178 -0.547026 -0.152122
v -8.52464 -185.852 1466.44
vn -0.801956 -0.525174 -0.284709
v -8.40719 -185.846 1465.98
vn -0.93178 -0.334961 -0.139958
v -9.03036 -185.22 1467.46
vn -0.816081 -0.577826 -0.0113684
v -8.89856 -185.55 1467.87
vn -0.990186 0.125339 0.0618231
v -9.05739 -184.012 1469.83
vn -0.664665 -0.744679 0.0606147
v -8.43816 -185.935 1469.3
vn -0.86484 0.499959 -0.0457421
v -8.33209 -181.871 1471.53
vn -0.90141 0.422935 -0.0926585
v -8.55839 -182.42 1471.24
vn -0.93971 0.33821 0.0505768
v -8.5207 -182.291 1471.89
vn -0.986551 -0.0730839 0.146205
v -8.95018 -184.164 1470.79
vn -0.967935 -0.21075 0.136699
v -8.95089 -184.754 1470.14
vn -0.823969 -0.557985 0.0986268
v -8.64928 -185.66 1469.67
vn -0.983826 0.122641 0.130563
v -8.72544 -183.168 1472.01
vn -0.949201 -0.244811 0.197698
v -8.75515 -184.679 1471.34
vn -0.860162 -0.468764 0.200954
v -8.63291 -185.363 1470.87
vn -0.72443 -0.676935 0.13023
v -8.42858 -185.817 1470.41
vn -0.741089 -0.627644 0.238435
v -8.31301 -185.78 1471.01
vn -0.957067 0.276608 0.086664
v -8.38483 -182.406 1473.45
vn -0.970264 -0.127303 0.205869
v -8.70359 -184.001 1472.27
vn -0.249856 0.410783 -0.876829
v -7.96805 -185.063 1465.15
vn -0.0428203 0.63044 -0.775056
v -7.86618 -184.874 1465.24
vn 0.20335 0.634358 -0.745814
v -7.55587 -185.055 1465.14
vn -0.39825 0.131616 -0.907785
v -7.86331 -185.343 1465.02
vn -0.0507846 0.419261 -0.906444
v -7.5535 -185.312 1464.97
vn -0.342086 -0.0581062 -0.93787
v -7.5521 -185.72 1464.86
vn -0.124533 0.788845 -0.601843
v -8.19428 -183.74 1466.63
vn 0.240152 0.749824 -0.616516
v -7.88085 -184.036 1466.31
vn -0.303113 0.697785 -0.649013
v -8.17956 -184.577 1465.55
vn -0.469027 0.484069 -0.738708
v -8.17698 -184.808 1465.37
vn -0.504811 0.296716 -0.810633
v -8.175 -185.099 1465.22
vn 0.272927 0.741457 -0.612986
v -7.55911 -184.83 1465.38
vn -0.606572 -0.192205 -0.771446
v -7.9975 -185.511 1465.12
vn -0.598912 -0.528572 -0.601595
v -7.86619 -185.998 1465.22
vn -0.566666 -0.254364 -0.783702
v -7.65612 -185.758 1464.93
vn -0.427097 -0.403733 -0.809066
v -7.55297 -185.913 1464.92
vn 0.129643 0.857152 -0.49848
v -7.49294 -182.761 1468.06
vn -0.29997 0.813071 -0.498932
v -8.20348 -183.275 1467.3
vn -0.129929 0.870312 -0.475053
v -7.90035 -182.95 1467.72
vn 0.209499 0.778993 -0.590999
v -7.48501 -183.136 1467.48
vn 0.0125166 0.803251 -0.59551
v -7.89127 -183.385 1467.06
vn -0.705323 -0.679826 -0.200888
v -8.18991 -186.223 1466.27
vn -0.676845 -0.651935 -0.341851
v -8.07942 -186.118 1465.73
vn -0.552021 -0.73363 -0.396307
v -7.76761 -186.293 1465.53
vn -0.556665 -0.798168 -0.230331
v -7.67367 -186.619 1466.17
vn -0.374214 0.84019 -0.392484
v -7.92082 -182.29 1469.21
vn -0.0482212 0.88631 -0.460575
v -7.50275 -182.41 1468.77
vn -0.66251 -0.747956 -0.0405352
v -8.19445 -186.274 1466.59
vn -0.489535 -0.866249 -0.0998425
v -7.47135 -186.79 1466.44
vn -0.683703 0.681565 -0.260805
v -8.03524 -182.022 1470.03
vn -0.164189 0.87316 -0.458948
v -7.51581 -181.857 1469.72
vn -0.715794 0.681954 -0.150261
v -7.95539 -181.313 1471.7
vn -0.518259 0.791545 -0.323827
v -7.73226 -181.357 1470.99
vn -0.556631 0.793089 -0.247331
v -7.74699 -181.176 1471.54
vn -0.34319 0.883427 -0.319027
v -7.53825 -181.128 1471.34
vn -0.778867 0.587499 -0.219569
v -8.14157 -181.726 1471.02
vn -0.756275 0.653985 -0.0187465
v -7.88306 -181.19 1472.23
vn -0.527965 0.833087 -0.164979
v -7.5479 -180.903 1472.04
vn -0.57636 -0.81338 0.0788827
v -8.07543 -186.136 1470.13
vn -0.619 -0.763842 0.182714
v -7.90426 -186.149 1471.06
vn -0.857628 0.514044 0.0152733
v -7.78022 -181.136 1473.92
vn -0.700755 -0.661818 0.266343
v -8.06059 -185.713 1471.78
vn -0.743186 0.668705 -0.0225396
v -7.65442 -180.77 1475.01
vn -0.82154 0.560245 0.105817
v -7.63186 -180.78 1475.7
vn -0.931865 -0.218755 0.289438
v -8.27096 -183.98 1474.03
vn -0.936384 0.31409 0.156626
v -7.84463 -181.193 1475.6
vn -0.955239 0.139343 0.260963
v -7.581 -181.159 1476.43
vn -0.962151 0.110599 0.249064
v -8.05291 -182.019 1475.4
vn -0.969161 -0.0303104 0.244558
v -8.18879 -182.842 1474.97
vn -0.907186 -0.325168 0.266983
v -8.06921 -184.763 1473.98
vn -0.856733 -0.369946 0.359373
v -7.89143 -184.771 1474.44
vn -0.80973 -0.518891 0.274024
v -7.92536 -185.084 1473.93
vn -0.908434 -0.22704 0.351
v -7.83283 -183.36 1475.75
vn -0.0131756 0.109437 -0.993906
v -7.24236 -185.692 1464.81
vn 0.186345 0.513503 -0.83761
v -6.93437 -185.614 1464.89
vn 0.449187 0.754983 -0.477736
v -7.25419 -184.749 1465.67
vn -0.321082 -0.622911 -0.713364
v -7.34834 -186.182 1465.01
vn -0.428664 -0.720943 -0.544508
v -7.35171 -186.396 1465.25
vn -0.162834 -0.388763 -0.906834
v -7.24329 -186.015 1464.87
vn -0.285321 -0.747552 -0.599799
v -6.93996 -186.598 1465.27
vn 0.260105 0.826439 -0.499343
v -7.18523 -182.785 1468.15
vn 0.329896 0.764524 -0.553779
v -7.28238 -183.029 1467.73
vn 0.469347 0.638746 -0.609686
v -7.17647 -183.267 1467.52
vn 0.52584 0.667844 -0.52676
v -6.9766 -183.032 1467.96
vn 0.666148 0.503112 -0.550568
v -6.8712 -183.307 1467.79
vn 0.535258 0.618613 -0.575167
v -7.26993 -183.95 1466.82
vn 0.647998 0.561899 -0.514167
v -6.96525 -183.993 1467.13
vn -0.411331 -0.811031 -0.415975
v -7.15006 -186.703 1465.56
vn -0.386803 -0.885615 -0.25704
v -7.05085 -186.856 1465.83
vn -0.368853 -0.921583 -0.120963
v -6.85615 -187.092 1466.64
vn 0.103346 0.878783 -0.465897
v -6.91459 -181.209 1470.94
vn -0.495677 -0.868211 0.0226603
v -7.07218 -187.042 1467.36
vn -0.201254 0.902806 -0.38005
v -7.43038 -181.24 1470.99
vn -0.096451 0.963362 -0.250261
v -6.9443 -180.469 1473.08
vn -0.210946 0.935875 -0.282205
v -7.34444 -180.774 1472.22
vn -0.289252 0.957138 -0.0148482
v -6.85191 -180.339 1473.85
vn -0.612465 0.788998 -0.0486777
v -7.3566 -180.652 1473.1
vn -0.371405 0.919104 -0.131552
v -7.04889 -180.471 1473.2
vn -0.411457 0.911423 -0.00332619
v -7.27374 -180.548 1474.55
vn -0.389857 0.91622 -0.0924851
v -7.1761 -180.496 1474.93
vn -0.552977 -0.802121 0.22543
v -7.13193 -186.569 1471.65
vn -0.50675 -0.854336 0.115389
v -6.81434 -186.895 1471.03
vn -0.607455 0.720792 -0.333852
v -6.78873 -179.961 1476.71
vn -0.592957 0.661162 -0.459637
v -6.79341 -179.754 1477.05
vn -0.64208 0.760115 -0.099789
v -7.1233 -180.329 1476.4
vn -0.824229 0.524432 -0.213581
v -7.14452 -180.288 1476.77
vn -0.744656 0.599938 -0.292511
v -6.77559 -179.198 1477.81
vn -0.923245 0.366575 0.115069
v -7.38915 -180.749 1476.76
vn -0.749045 -0.568575 0.34008
v -7.48236 -185.338 1474.65
vn -0.605997 -0.708978 0.360719
v -7.17753 -185.49 1474.94
vn -0.657625 -0.709148 0.254241
v -7.37422 -185.608 1474.27
vn -0.482033 -0.778778 0.401434
v -6.76797 -185.694 1475.12
vn -0.955077 -0.0869092 0.283328
v -7.44652 -182.459 1477.15
vn -0.893877 -0.288597 0.343069
v -7.36222 -183.011 1477.1
vn -0.739635 -0.518241 0.429379
v -7.24171 -185.06 1475.46
vn -0.59451 -0.640358 0.486312
v -6.98065 -185.251 1475.6
vn -0.918939 -0.226747 0.322702
v -7.05663 -181.381 1479.11
vn -0.971154 -0.0390793 0.235231
v -7.32458 -181.827 1478.17
vn -0.915981 -0.237828 0.323136
v -7.2408 -182.198 1478.22
vn -0.81975 -0.381359 0.427288
v -7.01912 -182.531 1478.42
vn -0.7795 -0.448199 0.437604
v -6.91349 -182.893 1478.22
vn -0.987486 0.127571 0.0927236
v -6.89842 -179.146 1480.61
vn -0.948107 0.317859 0.00766633
v -6.75226 -178.411 1480.77
vn -0.982726 -0.0452803 0.179442
v -6.93451 -179.975 1480.65
vn -0.881627 -0.336565 0.330844
v -6.79936 -180.439 1480.87
vn 0.304766 0.692116 -0.654289
v -6.11227 -185.796 1465.02
vn 0.177168 0.260074 -0.949196
v -6.31597 -185.941 1464.85
vn -0.00212428 -0.291835 -0.956466
v -6.31622 -186.18 1464.87
vn 0.0739682 -0.0896043 -0.993227
v -5.90489 -186.204 1464.92
vn -0.164994 -0.631262 -0.757816
v -6.21903 -186.83 1465.27
vn -0.266325 -0.859561 -0.436149
v -6.2238 -187.073 1465.61
vn 0.485885 0.701777 -0.520985
v -6.58102 -182.486 1469.15
vn 0.664303 0.528552 -0.528521
v -6.37239 -182.848 1468.96
vn 0.624044 0.555986 -0.549044
v -5.95633 -183.847 1468.65
vn 0.700685 0.503482 -0.505516
v -6.56126 -183.942 1467.71
vn 0.580755 0.662613 -0.472935
v -5.95015 -184.194 1468.2
vn -0.311867 -0.925655 -0.214247
v -6.33258 -187.17 1466.02
vn 0.293702 0.707712 -0.64256
v -5.97819 -182.009 1470.26
vn 0.545269 0.52434 -0.654025
v -5.9543 -182.763 1469.47
vn -0.36164 -0.93171 -0.0336622
v -6.35482 -187.372 1467.62
vn -0.00564342 0.910666 -0.413106
v -6.40529 -181.072 1471.35
vn -0.449485 -0.890456 0.0710751
v -6.27573 -187.333 1469.33
vn -0.366303 -0.929476 0.0435516
v -5.85536 -187.554 1468.73
vn -0.200138 0.958678 -0.20219
v -5.92611 -180.181 1473.94
vn -0.282486 0.957552 -0.0574169
v -6.65855 -180.385 1474.76
vn -0.302081 0.953185 -0.013614
v -6.34287 -180.269 1474.28
vn -0.410514 0.894916 -0.174937
v -6.04398 -180.133 1475.01
vn -0.424517 -0.882858 0.200865
v -6.54438 -186.982 1471.34
vn -0.319038 -0.93191 0.172508
v -5.89017 -187.271 1471.23
vn -0.394967 -0.911421 0.115382
v -6.29578 -187.182 1470.77
vn -0.479965 0.782973 -0.39571
v -5.9575 -179.639 1476.21
vn -0.394403 0.893005 -0.216768
v -6.46595 -180.089 1475.72
vn -0.338972 -0.907417 0.248382
v -5.90677 -186.964 1472.43
vn -0.546011 0.711128 -0.44291
v -6.49295 -178.996 1477.68
vn -0.449386 -0.844203 0.292188
v -6.45128 -186.099 1474.56
vn -0.849656 0.510839 -0.130873
v -6.68279 -178.438 1479.48
vn -0.660826 0.699868 -0.271096
v -6.40992 -178.219 1479.13
vn -0.435016 -0.747916 0.501381
v -6.47122 -185.339 1476.01
vn -0.373078 -0.820414 0.433284
v -6.15388 -185.872 1475.4
vn -0.735352 0.659221 -0.157115
v -6.12815 -177.33 1481.1
vn -0.553334 -0.628851 0.546231
v -6.39128 -184.005 1477.69
vn -0.434531 -0.701692 0.564633
v -6.37637 -184.95 1476.6
vn -0.667463 0.74303 -0.0489878
v -5.94011 -176.958 1482.23
vn -0.839177 0.542406 -0.0397275
v -6.2784 -177.371 1482.12
vn -0.681294 0.723596 -0.110668
v -5.97168 -177.043 1481.72
vn -0.708356 -0.514054 0.483715
v -6.6147 -181.303 1480.08
vn -0.416125 -0.664017 0.621225
v -6.2038 -182.963 1479.04
vn -0.55983 -0.564932 0.60617
v -6.21024 -182.51 1479.51
vn -0.684713 -0.520552 0.510091
v -6.71265 -182.853 1478.59
vn -0.816798 0.574907 0.0481995
v -6.15623 -177.19 1483.12
vn -0.982549 0.07074 0.172026
v -6.6724 -178.566 1481.96
vn -0.970893 0.219872 0.0949902
v -6.61542 -178.197 1481.92
vn -0.96774 -0.0579938 0.245185
v -6.63155 -179.122 1482.14
vn -0.690506 -0.614299 0.381887
v -6.44141 -180.681 1481.34
vn -0.929609 0.359455 0.0813571
v -6.27804 -177.431 1483.14
vn -0.967222 0.194288 0.163504
v -6.36335 -177.776 1483.19
vn -0.887704 0.432474 0.157949
v -6.09101 -177.259 1483.92
vn -0.964118 -0.0311341 0.263641
v -6.18632 -178.136 1484.05
vn -0.964989 0.115097 0.235688
v -6.16859 -177.675 1484.06
vn -0.932585 -0.177656 0.314202
v -6.19377 -178.915 1483.76
vn -0.726852 -0.552646 0.40776
v -6.01524 -180.056 1483.06
vn 0.288561 0.872928 -0.393356
v -5.50451 -185.596 1465.77
vn -0.0752075 -0.449674 -0.890021
v -5.70172 -186.705 1465.11
vn 0.227444 0.633076 -0.739922
v -5.28912 -186.054 1465.09
vn -0.0988307 -0.48628 -0.868196
v -5.2893 -186.771 1465.09
vn 0.391694 0.841019 -0.37318
v -5.41952 -185.11 1467.07
vn -0.158138 -0.735525 -0.658783
v -5.2932 -187.139 1465.36
vn -0.203648 -0.881962 -0.425054
v -4.9887 -187.426 1465.68
vn 0.467014 0.773049 -0.429294
v -5.63967 -184.483 1468.09
vn -0.256053 -0.935619 -0.243009
v -5.30647 -187.554 1466.3
vn 0.226254 0.731918 -0.642733
v -5.36669 -181.672 1470.73
vn 0.38479 0.592554 -0.707684
v -5.36 -182.23 1470.24
vn 0.542095 0.565578 -0.621494
v -5.34708 -183.812 1469.29
vn 0.431216 0.665912 -0.608781
v -5.03808 -184.051 1469.28
vn 0.48106 0.715049 -0.507235
v -5.34014 -184.256 1468.78
vn -0.268387 -0.956556 -0.113882
v -5.42016 -187.643 1467.07
vn -0.273594 -0.961762 -0.0126282
v -5.12942 -187.811 1468.38
vn -0.323924 -0.94087 0.0991855
v -5.65893 -187.577 1469.42
vn -0.219703 -0.97246 0.077797
v -5.03421 -187.816 1468.94
vn -0.442418 0.881313 -0.165996
v -5.7351 -179.954 1475.02
vn -0.301349 0.927517 -0.221136
v -5.11339 -179.733 1474.77
vn -0.386096 0.916007 -0.108912
v -5.72785 -180 1474.5
vn -0.229581 -0.961304 0.152275
v -5.04273 -187.531 1471.08
vn -0.306909 0.895637 -0.321933
v -5.33565 -179.485 1475.94
vn -0.23799 -0.947062 0.215486
v -5.27931 -187.343 1471.75
vn -0.266198 0.830769 -0.488836
v -5.7655 -178.89 1477.23
vn -0.176278 0.862958 -0.473529
v -5.27348 -177.781 1478.9
vn -0.325585 -0.888116 0.324415
v -5.52511 -186.471 1474.62
vn -0.426006 0.821461 -0.379106
v -5.90049 -177.659 1479.54
vn -0.137356 0.905604 -0.401267
v -5.28227 -177.466 1479.54
vn -0.307564 -0.813798 0.493089
v -5.43862 -185.93 1475.82
vn -0.309316 -0.857234 0.41167
v -5.22462 -186.324 1475.24
vn -0.235988 0.948513 -0.211265
v -5.41087 -176.807 1481.38
vn -0.549161 0.808263 -0.212446
v -5.82143 -177.008 1481.27
vn -0.335291 0.891818 -0.303712
v -5.60885 -177.027 1480.8
vn -0.118205 0.94284 -0.311576
v -5.30054 -176.932 1480.86
vn -0.323373 -0.77058 0.549214
v -5.54752 -185.602 1476.24
vn -0.483298 0.866571 -0.124408
v -5.72601 -176.849 1481.82
vn -0.0349345 -0.710479 0.70285
v -5.47889 -183.506 1478.75
vn -0.165909 -0.694519 0.700084
v -5.26554 -184.154 1478.21
vn -0.356081 -0.695638 0.623934
v -5.70553 -182.084 1480.26
vn -0.682018 0.729935 0.0452471
v -5.54945 -176.57 1483.94
vn -0.484597 0.873558 -0.0454139
v -5.3462 -176.429 1483.9
vn -0.605848 -0.698542 0.380772
v -5.93868 -180.671 1482.23
vn -0.51496 -0.74142 0.430247
v -5.61532 -181.405 1481.19
vn -0.577915 -0.696853 0.424747
v -5.54124 -180.402 1483.28
vn -0.439944 -0.805971 0.396056
v -5.32066 -181.128 1482.22
vn -0.94791 -0.0463662 0.315145
v -5.76688 -177.834 1485.49
vn -0.808789 -0.420904 0.410731
v -5.92439 -179.243 1484.17
vn -0.607322 -0.633467 0.479457
v -5.34178 -179.89 1484.31
vn -0.379333 -0.800771 0.463543
v -5.23612 -180.447 1483.56
vn -0.946586 0.0631102 0.316216
v -5.60109 -177.38 1485.96
vn -0.876598 -0.271322 0.397442
v -5.60725 -178.115 1485.81
vn -0.729127 -0.519415 0.445625
v -5.44348 -178.755 1485.48
vn 0.231819 0.848489 -0.475738
v -4.16191 -186.034 1465.51
vn 0.24235 0.913017 -0.328127
v -4.16765 -185.854 1465.92
vn -0.117425 -0.853447 -0.507779
v -4.26702 -187.533 1465.63
vn -0.0744 -0.65591 -0.751164
v -4.15933 -187.281 1465.3
vn -0.154146 -0.961448 -0.227721
v -4.68615 -187.664 1466.14
vn 0.375525 0.761398 -0.528445
v -4.72445 -184.486 1468.95
vn 0.350486 0.818188 -0.455772
v -4.52944 -184.823 1468.54
vn 0.369027 0.658243 -0.656151
v -4.95882 -181.593 1471.03
vn 0.455088 0.483988 -0.74743
v -4.57072 -182.184 1470.84
vn 0.305949 0.513282 -0.801833
v -4.33814 -182.411 1470.83
vn 0.396393 0.524419 -0.753563
v -4.74152 -183.244 1470.19
vn 0.311841 0.726146 -0.612754
v -4.42241 -184.25 1469.45
vn -0.160889 -0.985968 -0.0445265
v -4.50739 -187.934 1468.09
vn 0.217045 0.773101 -0.595992
v -4.66955 -180.48 1472.47
vn 0.0606844 0.919704 -0.387894
v -4.67389 -180.295 1472.79
vn 0.226405 0.839926 -0.493219
v -4.36412 -180.38 1472.73
vn -0.113629 0.954335 -0.276284
v -4.70215 -179.631 1474.83
vn 0.0467777 0.962297 -0.267948
v -4.29024 -179.614 1474.84
vn -0.0251973 0.895337 -0.444676
v -4.34103 -177.899 1478.51
vn -0.224678 -0.933096 0.280804
v -4.69778 -186.805 1474.38
vn -0.259771 -0.842079 0.472676
v -4.92012 -186.259 1475.56
vn -0.239175 -0.892138 0.383255
v -4.7087 -186.518 1475.17
vn -0.171204 -0.858211 0.483905
v -4.30279 -186.396 1475.61
vn -0.230146 -0.797566 0.557603
v -4.82582 -185.889 1476.19
vn 0.00649515 -0.797359 0.603471
v -4.96694 -183.272 1478.98
vn -0.286348 0.950124 -0.12357
v -5.13079 -176.372 1483.47
vn -0.0762767 0.98222 -0.171538
v -4.81692 -176.38 1483.12
vn -0.121675 -0.889164 0.441115
v -5.00841 -181.352 1481.99
vn -0.172627 -0.841216 0.512401
v -4.99528 -181.788 1481.04
vn -0.242037 0.967825 -0.0687976
v -4.5411 -176.03 1485.51
vn -0.492823 0.869422 0.0350867
v -4.75786 -176.105 1486.28
vn -0.239184 0.970831 0.0166606
v -4.55252 -176.014 1486.33
vn -0.181714 -0.860087 0.476687
v -4.92708 -180.541 1483.56
vn -0.907365 0.344921 0.240246
v -5.12468 -176.706 1487.12
vn -0.700703 0.701535 0.12986
v -4.86805 -176.232 1486.79
vn -0.570586 -0.666366 0.479988
v -5.05688 -179.159 1485.51
vn -0.323109 -0.798665 0.507676
v -4.64599 -179.385 1485.58
vn -0.349077 -0.77907 0.520764
v -4.94443 -179.801 1484.82
vn 0.0316482 -0.879446 0.474945
v -4.42935 -179.911 1484.81
vn -0.709144 -0.55288 0.437537
v -5.05432 -178.494 1486.55
vn -0.440944 -0.755583 0.48442
v -4.6619 -178.707 1486.74
vn -0.81927 0.506992 0.267872
v -4.45323 -176.316 1488.84
vn -0.903356 0.0762145 0.422065
v -4.48738 -176.614 1489.04
vn -0.925607 -0.0848625 0.368849
v -4.84691 -177.088 1488.09
vn -0.820331 -0.309296 0.481034
v -4.5347 -177.098 1488.79
vn -0.622165 -0.586492 0.518592
v -4.47779 -177.674 1488.33
vn 0.174288 0.270009 -0.946952
v -3.64106 -186.621 1465.08
vn 0.0593971 -0.36683 -0.92839
v -3.53848 -187.001 1465.11
vn 0.00891125 -0.768147 -0.640212
v -3.7494 -187.453 1465.45
vn -0.0638165 -0.97657 -0.205522
v -3.9662 -187.756 1466.22
vn -0.0310588 -0.929765 -0.366841
v -3.85749 -187.649 1465.81
vn 0.245304 0.834778 -0.492922
v -3.69266 -184.959 1468.82
vn 0.270655 0.889953 -0.367055
v -3.88656 -185.332 1467.94
vn 0.333072 0.639051 -0.693308
v -4.14442 -181.369 1471.73
vn 0.298143 0.594832 -0.746515
v -4.03696 -181.779 1471.4
vn 0.326189 0.568806 -0.755023
v -3.41623 -182.251 1471.2
vn 0.279233 0.515049 -0.810403
v -4.02468 -183.072 1470.5
vn 0.194571 0.77577 -0.600269
v -3.49532 -184.588 1469.45
vn 0.335344 0.680106 -0.65192
v -3.43005 -181.151 1472.22
vn 0.375766 0.765559 -0.522225
v -3.43703 -180.719 1472.73
vn -0.105991 -0.992419 0.0622102
v -3.69085 -188.035 1468.63
vn 0.177519 0.934168 -0.309543
v -3.97618 -179.771 1474.47
vn 0.274127 0.879256 -0.389568
v -3.74453 -180.239 1473.36
vn 0.124051 0.951407 -0.281845
v -3.98817 -179.523 1475.34
vn 0.0702647 0.914682 -0.398019
v -3.90139 -179.09 1476.51
vn 0.278729 0.908304 -0.311919
v -3.47656 -179.544 1475.58
vn -0.140371 -0.964622 0.223158
v -4.04875 -187.507 1472.15
vn -0.129241 -0.979547 0.154223
v -3.93484 -187.683 1471.36
vn 0.0847127 0.866955 -0.491134
v -4.02254 -178.261 1477.83
vn 0.147825 0.894841 -0.421198
v -4.03509 -177.804 1478.74
vn 0.361334 0.843795 -0.396796
v -3.72739 -177.851 1478.83
vn -0.0914999 -0.954732 0.283046
v -3.76952 -186.986 1474.29
vn 0.0157112 0.938525 -0.344853
v -4.16303 -176.999 1480.54
vn 0.245735 0.896321 -0.369084
v -3.95559 -177.061 1480.44
vn 0.0363866 0.915437 -0.400813
v -4.15446 -177.258 1479.92
vn -0.0283743 -0.863015 0.504381
v -3.6858 -186.431 1475.69
vn -0.115684 -0.920571 0.373049
v -4.08916 -186.689 1475.06
vn 0.0335301 0.970136 -0.240234
v -4.27854 -176.727 1481.44
vn 0.147565 0.945102 -0.29156
v -3.96104 -176.917 1480.83
vn 0.331615 0.902954 -0.273323
v -3.75741 -176.918 1481
vn -0.0749074 -0.793596 0.603817
v -4.00257 -186.029 1476.25
vn 0.0573108 -0.708074 0.703809
v -3.61018 -184.796 1477.68
vn 0.0985685 -0.803343 0.587302
v -4.25884 -182.572 1479.92
vn 0.236654 -0.82469 0.513693
v -4.16945 -181.781 1480.91
vn 0.00315944 0.995203 -0.0977813
v -3.82075 -175.946 1485.56
vn -0.0797903 0.996649 -0.0179952
v -4.03334 -175.925 1486.04
vn 0.136479 0.990493 0.017214
v -3.72432 -175.932 1486.04
vn 0.521464 -0.763461 0.381056
v -3.79392 -180.301 1483.56
vn 0.00274103 0.999764 0.0215443
v -4.05054 -175.961 1487.27
vn -0.140082 0.987708 0.0693508
v -3.96415 -175.945 1488.46
vn 0.071285 0.997416 -0.0088741
v -3.75496 -175.942 1488.24
vn -0.0187142 -0.867237 0.497544
v -4.24076 -179.201 1486.08
vn 0.389103 -0.815463 0.428508
v -3.82806 -179.146 1486.03
vn -0.342873 0.916563 0.205794
v -3.97472 -176.053 1489.22
vn -0.61227 0.757483 0.226594
v -4.27839 -176.118 1488.83
vn -0.415574 0.902565 0.112585
v -4.17283 -176.023 1488.65
vn 0.0996758 0.993628 0.0526064
v -3.75983 -175.944 1488.58
vn 0.579444 -0.699429 0.418382
v -3.65989 -177.321 1488.78
vn -0.27552 -0.80255 0.529153
v -4.36681 -178.183 1487.75
vn -0.216669 -0.775664 0.592789
v -4.16941 -177.81 1488.37
vn 0.203028 -0.798615 0.566563
v -4.0651 -177.877 1488.28
vn 0.0731521 -0.852461 0.517648
v -4.053 -178.441 1487.4
vn 0.39068 -0.785875 0.479343
v -3.7436 -178.334 1487.38
vn -0.58718 0.711868 0.38531
v -4.08015 -176.166 1489.39
vn -0.670734 0.308802 0.674357
v -4.08237 -176.313 1489.55
vn -0.328944 0.868112 0.371723
v -3.84585 -176.096 1489.55
vn -0.435218 0.603515 0.668098
v -3.87744 -176.161 1489.63
vn -0.401475 0.173901 0.899208
v -3.87837 -176.287 1489.69
vn -0.0846999 0.971477 0.221493
v -3.66913 -176.032 1489.47
vn -0.0526411 0.810663 0.583142
v -3.67181 -176.111 1489.66
vn -0.053611 0.367159 0.928612
v -3.67276 -176.208 1489.72
vn -0.0315973 -0.200384 0.979208
v -3.67306 -176.427 1489.74
vn -0.785183 0.437633 0.438137
v -4.26171 -176.323 1489.31
vn -0.692092 -0.33047 0.641715
v -4.28506 -176.783 1489.3
vn -0.729339 -0.0354178 0.683236
v -4.21537 -176.509 1489.44
vn -0.315833 -0.659353 0.682278
v -4.0783 -177.099 1489.24
vn -0.464179 -0.431752 0.773388
v -4.08085 -176.848 1489.43
vn -0.472241 -0.174776 0.863968
v -3.98063 -176.49 1489.64
vn -0.0186696 -0.678211 0.73463
v -3.87482 -176.961 1489.43
vn -0.160541 -0.484671 0.859837
v -3.87649 -176.793 1489.55
vn -0.568929 -0.557985 0.60413
v -4.38208 -177.252 1488.86
vn 0.194244 0.760577 -0.619509
v -3.02774 -186.446 1465.43
vn 0.212566 0.516915 -0.829225
v -2.82022 -186.62 1465.32
vn 0.22419 -0.0779317 -0.971425
v -2.71621 -186.927 1465.24
vn 0.16534 0.904011 -0.394243
v -3.2389 -186.178 1465.8
vn 0.159171 -0.608559 -0.777381
v -2.61585 -187.316 1465.42
vn 0.130587 -0.86082 -0.491869
v -2.51752 -187.575 1465.75
vn 0.12257 0.943461 -0.307989
v -3.05512 -185.716 1467.4
vn 0.0248194 -0.975969 -0.216491
v -2.93758 -187.805 1466.32
vn 0.0517134 -0.940479 -0.335894
v -2.83034 -187.719 1466.02
vn -0.0222644 0.866179 -0.499237
v -2.56162 -185.027 1468.96
vn 0.126036 0.896832 -0.424036
v -3.16821 -185.426 1468.13
vn -0.108109 0.912882 -0.393648
v -2.65534 -185.376 1468.29
vn 0.429958 0.527723 -0.73256
v -3.10581 -182.772 1471.1
vn 0.214782 0.660782 -0.719191
v -3.0912 -184.188 1470.02
vn 0.122324 0.839062 -0.530105
v -3.18156 -184.901 1469.1
vn -0.000886754 0.797211 -0.6037
v -2.67115 -184.713 1469.44
vn -0.0635254 -0.994255 -0.086145
v -3.06599 -188.1 1468.14
vn 0.544909 0.712942 -0.441348
v -3.13181 -180.742 1473
vn 0.552353 0.643094 -0.530411
v -3.12416 -181.149 1472.44
vn 0.492101 0.565949 -0.661467
v -3.11356 -181.908 1471.67
vn 0.0131492 -0.997981 0.0621293
v -2.65879 -188.114 1468.49
vn 0.450315 0.813641 -0.367702
v -3.04324 -180.239 1474.04
vn 0.496051 0.82826 -0.260611
v -3.06233 -179.793 1475.42
vn 0.353884 0.885849 -0.300064
v -3.35893 -179.912 1474.53
vn 0.55358 0.80288 -0.221206
v -2.74511 -180.127 1474.83
vn -0.0492015 -0.983897 0.171831
v -3.11216 -187.738 1471.46
vn 0.516028 0.785873 -0.340763
v -3.06092 -179.273 1476.66
vn 0.0357745 -0.957072 0.287632
v -2.72587 -187.301 1473.32
vn -0.0386643 -0.971625 0.233346
v -3.12662 -187.518 1472.5
vn 0.702147 0.657863 -0.272408
v -3.11559 -178.077 1479.28
vn 0.0428777 -0.892096 0.449807
v -3.37214 -186.604 1475.35
vn 0.168297 -0.841045 0.514119
v -3.06417 -186.525 1475.43
vn 0.310445 -0.743806 0.591926
v -2.75679 -186.354 1475.55
vn 0.294397 -0.812281 0.503518
v -2.64938 -186.536 1475.23
vn 0.00391319 -0.937563 0.347794
v -3.36355 -186.862 1474.73
vn 0.152703 -0.924121 0.350261
v -2.84631 -186.893 1474.57
vn 0.150005 -0.896298 0.417312
v -2.85148 -186.738 1474.95
vn 0.557657 0.770191 -0.309555
v -3.44101 -177.304 1480.47
vn 0.364324 -0.671263 0.645504
v -2.98937 -184.806 1477.49
vn 0.488017 -0.516309 0.70375
v -2.62974 -184.492 1477.56
vn 0.124934 -0.794556 0.594198
v -3.38048 -186.221 1475.96
vn 0.238805 -0.762224 0.601654
v -3.32368 -182.829 1479.34
vn 0.551539 -0.626162 0.551114
v -2.70169 -182.715 1479.06
vn 0.145933 -0.74851 0.646867
v -3.31447 -183.331 1478.67
vn 0.405123 -0.646806 0.646156
v -3.00331 -183.366 1478.51
vn 0.191286 -0.608487 0.770164
v -3.31039 -183.641 1478.37
vn 0.390455 -0.505293 0.769561
v -2.89491 -183.741 1478.12
vn 0.186804 -0.554159 0.811179
v -3.40665 -184.542 1477.87
vn 0.215336 -0.696512 0.684472
v -3.3006 -184.774 1477.64
vn 0.323005 -0.560424 0.762622
v -3.08959 -184.587 1477.73
vn 0.49644 -0.66653 0.556133
v -3.13455 -181.648 1480.57
vn 0.231569 0.956902 -0.175253
v -3.39649 -176.088 1484.68
vn 0.615419 0.75715 -0.219053
v -2.97694 -176.421 1484.14
vn 0.560941 -0.707382 0.430065
v -3.05768 -180.312 1482.47
vn 0.228708 0.972047 -0.0530845
v -3.40845 -175.994 1485.55
vn 0.434418 0.898699 -0.0601851
v -3.20025 -176.081 1485.39
vn 0.562062 0.818105 -0.121614
v -2.98536 -176.271 1484.75
vn 0.741165 0.665863 -0.0854497
v -2.78817 -176.443 1484.86
vn 0.873155 -0.398182 0.281159
v -2.72913 -178.915 1483.81
vn 0.731373 -0.577413 0.362887
v -3.00469 -179.783 1483.24
vn 0.87121 -0.396187 0.289878
v -2.79646 -179.641 1482.97
vn 0.360624 0.932079 0.0343328
v -3.31011 -176.024 1485.88
vn 0.61666 0.787106 0.0139796
v -2.99895 -176.197 1485.72
vn 0.861625 0.506394 0.0341634
v -2.75273 -176.456 1485.78
vn 0.715497 -0.623216 0.315697
v -3.22057 -179.294 1484.53
vn 0.843301 -0.46536 0.268854
v -3.05608 -178.885 1484.86
vn 0.547057 0.836455 0.0327221
v -3.22709 -176.174 1487.31
vn 0.264543 0.964191 0.0188086
v -3.53054 -176.037 1486.91
vn 0.720757 -0.619445 0.311123
v -3.33409 -178.718 1486.11
vn 0.394856 0.918577 0.0174297
v -3.44985 -176.022 1488.52
vn 0.847208 0.527059 0.0666888
v -3.08671 -176.35 1488.03
vn 0.919001 -0.339217 0.200918
v -3.09254 -176.902 1487.98
vn 0.935804 -0.254285 0.244152
v -2.96962 -176.987 1487.47
vn 0.991443 -0.0058975 0.130411
v -3.02718 -176.581 1488.03
vn 0.682924 -0.618894 0.388053
v -3.42481 -178.406 1486.85
vn 0.864073 -0.420464 0.276744
v -3.07656 -178.034 1486.58
vn 0.728364 0.683462 0.0486256
v -3.23118 -176.177 1488.82
vn 0.950657 0.305379 0.0547261
v -3.09312 -176.36 1488.72
vn 0.966128 -0.231065 0.114911
v -3.0719 -176.635 1488.58
vn 0.889966 0.430301 0.151
v -3.11725 -176.364 1488.95
vn 0.984621 0.00306177 0.174676
v -3.08765 -176.455 1488.91
vn 0.825351 -0.493002 0.275217
v -3.32556 -177.183 1488.29
vn 0.238909 0.947139 0.214125
v -3.56609 -176.039 1489.46
vn 0.435285 0.830876 0.346659
v -3.45905 -176.143 1489.64
vn 0.404876 0.122644 0.906109
v -3.46667 -176.297 1489.72
vn 0.694355 -0.145536 0.704762
v -3.37576 -176.373 1489.64
vn 0.431057 -0.312396 0.846521
v -3.46652 -176.406 1489.7
vn 0.664697 0.724046 0.184215
v -3.35948 -176.129 1489.42
vn 0.777487 0.300595 0.55241
v -3.34669 -176.235 1489.6
vn 0.919457 0.246799 0.306087
v -3.2569 -176.302 1489.45
vn 0.258267 -0.550731 0.793721
v -3.56794 -176.693 1489.58
vn 0.406305 -0.700812 0.586326
v -3.56598 -176.851 1489.44
vn 0.835393 -0.110411 0.538449
v -3.27462 -176.418 1489.5
vn 0.622387 -0.47142 0.624818
v -3.36047 -176.639 1489.48
vn 0.635216 -0.622825 0.456716
v -3.35825 -176.787 1489.32
vn 0.821984 -0.505386 0.262542
v -3.2238 -176.78 1489.09
vn 0.879315 -0.267589 0.393955
v -3.19803 -176.553 1489.32
vn 0.100144 0.849099 -0.518654
v -2.10616 -186.298 1465.82
vn 0.176177 0.857678 -0.483063
v -1.90472 -186.141 1466.16
vn 0.300411 0.763548 -0.571618
v -1.79809 -186.332 1465.89
vn 0.338337 0.466969 -0.816987
v -1.89557 -186.703 1465.49
vn 0.344452 0.185922 -0.92021
v -1.89505 -186.799 1465.45
vn 0.258395 0.665799 -0.69996
v -1.89722 -186.534 1465.61
vn 0.37905 -0.210145 -0.901199
v -1.89526 -186.921 1465.46
vn 0.490332 0.342395 -0.801462
v -1.79318 -186.725 1465.53
vn 0.55115 0.0155697 -0.834261
v -1.79276 -186.825 1465.5
vn 0.517775 -0.308184 -0.79808
v -1.79322 -186.956 1465.53
vn 0.343817 -0.473534 -0.810898
v -2.10169 -187.203 1465.49
vn 0.339216 -0.739524 -0.581409
v -2.1049 -187.438 1465.71
vn -0.0683022 0.932774 -0.353931
v -2.22395 -185.827 1466.89
vn -0.101935 0.898909 -0.426112
v -1.81623 -185.621 1467.21
vn 0.160396 -0.943491 -0.289997
v -2.31707 -187.71 1466.15
vn 0.357277 -0.858099 -0.368809
v -2.00723 -187.603 1466.09
vn -0.0949033 0.891249 -0.443473
v -1.73719 -184.797 1468.94
vn 0.290642 -0.928155 -0.232498
v -1.81286 -187.792 1466.93
vn -0.00560438 0.826664 -0.562668
v -1.75289 -184.093 1470.08
vn -0.21377 0.846976 -0.486759
v -2.25484 -184.879 1469.13
vn -0.161865 0.84342 -0.512292
v -1.74343 -184.549 1469.39
vn 0.0661949 -0.991806 -0.109264
v -2.34174 -188.078 1467.91
vn 0.17508 -0.967889 -0.180382
v -2.02875 -187.994 1467.63
vn 0.199667 -0.978339 -0.0546511
v -1.8306 -188.031 1468.19
vn 0.514582 0.620689 -0.591567
v -2.39689 -182.295 1471.98
vn 0.305661 0.681439 -0.664991
v -2.38958 -182.83 1471.44
vn 0.457157 0.720806 -0.521004
v -1.87602 -182.997 1471.55
vn 0.114528 0.759596 -0.640232
v -1.96891 -183.544 1470.81
vn 0.260279 -0.959348 0.109119
v -1.83878 -188.016 1468.78
vn 0.653005 0.633581 -0.414922
v -2.42142 -180.901 1473.76
vn 0.712742 0.612732 -0.341406
v -1.73815 -182.486 1472.58
vn 0.618942 0.713443 -0.328498
v -2.53188 -180.472 1474.3
vn 0.745938 0.650806 -0.141519
v -2.43586 -180.4 1474.81
vn 0.779325 0.57347 -0.252557
v -2.24393 -180.805 1474.25
vn 0.894489 0.442808 -0.0617206
v -2.03473 -181.042 1474.71
vn 0.694725 0.704482 -0.145126
v -2.5487 -180.186 1475.52
vn 0.189778 -0.962028 0.196179
v -2.19088 -187.626 1471.88
vn 0.373037 -0.894477 0.246482
v -1.88441 -187.499 1472.06
vn 0.0513085 -0.983985 0.170705
v -2.49686 -187.7 1471.66
vn 0.838572 0.526486 -0.140033
v -2.30498 -180.374 1476.33
vn 0.509868 -0.802044 0.311063
v -1.79541 -187.115 1473.08
vn 0.0678385 -0.968211 0.240761
v -2.50782 -187.529 1472.45
vn 0.239769 -0.925547 0.293041
v -2.20626 -187.342 1472.99
vn 0.600684 -0.699216 0.387655
v -1.80808 -186.701 1473.99
vn 0.392475 -0.846808 0.358997
v -2.11536 -186.983 1473.86
vn 0.973134 -0.0998549 0.207457
v -1.79774 -181.37 1478.26
vn 0.979738 -0.00991834 0.200037
v -1.75886 -182.098 1477.65
vn 0.558845 -0.612902 0.558609
v -2.14511 -185.551 1476.02
vn 0.734889 -0.489882 0.468993
v -1.98148 -185.255 1476.13
vn 0.449631 -0.713538 0.537304
v -2.44476 -186.356 1475.34
vn 0.572337 -0.669176 0.473955
v -2.13313 -186.259 1475.15
vn 0.689321 -0.572819 0.443526
v -1.84416 -186.068 1475.01
vn 0.389586 -0.813031 0.43267
v -2.43793 -186.68 1474.84
vn 0.837234 0.505694 -0.208117
v -2.49303 -178.582 1479.81
vn 0.957006 0.277956 -0.0829471
v -2.14868 -179.276 1480.03
vn 0.995071 0.0644315 0.0753833
v -2.07951 -179.736 1480.03
vn 0.992708 0.079498 0.0906098
v -1.91512 -180.462 1479.19
vn 0.801912 -0.415367 0.429427
v -2.28456 -182.527 1478.69
vn 0.703647 -0.451668 0.548522
v -2.27535 -183.107 1478.02
vn 0.900855 -0.206285 0.381977
v -1.83805 -182.514 1477.78
vn 0.58224 -0.408852 0.702735
v -2.48018 -183.713 1477.85
vn 0.704587 -0.307757 0.639408
v -2.13009 -183.479 1477.62
vn 0.644796 -0.4165 0.64091
v -2.16962 -184.258 1477.34
vn 0.767938 -0.306219 0.562585
v -1.96882 -184.072 1477.2
vn 0.739097 -0.447831 0.503174
v -2.00553 -184.347 1477.06
vn 0.928552 0.351538 -0.119214
v -2.21587 -178.646 1481.06
vn 0.994096 0.107379 0.0155898
v -2.13609 -179.011 1480.87
vn 0.970924 -0.128343 0.202078
v -2.18185 -180.068 1480.67
vn 0.811696 0.550773 -0.194421
v -2.53811 -177.614 1482.2
vn 0.966868 0.250609 -0.0486005
v -2.30495 -178.11 1482.26
vn 0.994745 -0.0464748 0.0912237
v -2.30591 -178.208 1482.67
vn 0.751371 -0.520391 0.405753
v -2.56453 -180.583 1481.21
vn 0.930037 0.356704 -0.0882831
v -2.41944 -177.392 1483.56
vn 0.990251 0.138684 0.0130119
v -2.36505 -177.578 1483.7
vn 0.950589 -0.25329 0.179512
v -2.38697 -178.13 1483.64
vn 0.92546 -0.283677 0.251099
v -2.42727 -178.808 1482.71
vn 0.85068 0.515126 -0.104827
v -2.63178 -176.714 1484.49
vn 0.966392 0.255928 0.0242236
v -2.47796 -177.083 1484.53
vn 0.941993 -0.25368 0.219761
v -2.50309 -177.639 1484.71
vn 0.992694 -0.0341904 0.115713
v -2.37374 -177.72 1483.97
vn 0.984828 0.0978036 0.143347
v -2.6475 -176.781 1485.96
vn 0.418372 0.746751 -0.517037
v -1.59574 -186.235 1466.16
vn 0.662395 0.592327 -0.458674
v -1.39293 -186.237 1466.39
vn 0.524413 0.541017 -0.657488
v -1.5899 -186.595 1465.73
vn 0.637289 0.218308 -0.739056
v -1.58932 -186.689 1465.69
vn 0.701767 -0.17285 -0.691119
v -1.51248 -186.948 1465.74
vn 0.555482 -0.519951 -0.648915
v -1.59046 -187.133 1465.76
vn 0.544335 -0.705494 -0.453847
v -1.59275 -187.268 1465.92
vn 0.777666 0.35045 -0.521939
v -1.40618 -186.674 1465.89
vn 0.762913 0.105326 -0.637863
v -1.41198 -186.765 1465.84
vn 0.747913 -0.478695 -0.459866
v -1.48911 -187.13 1465.88
vn 0.897846 -0.0604413 -0.436141
v -1.34889 -186.813 1465.93
vn 0.184607 0.887882 -0.42141
v -1.61752 -185.337 1467.74
vn 0.38322 0.805784 -0.451502
v -1.50313 -185.814 1466.91
vn 0.767388 0.553745 -0.323237
v -1.29216 -185.952 1466.96
vn 0.925416 0.257776 -0.27777
v -1.24232 -186.406 1466.49
vn 0.626006 -0.709463 -0.323697
v -1.49792 -187.49 1466.51
vn 0.84867 -0.431933 -0.305275
v -1.38366 -187.138 1466.11
vn 0.774859 -0.593541 -0.217492
v -1.39823 -187.48 1466.74
vn 0.970155 -0.10735 -0.217427
v -1.24879 -186.863 1466.25
vn 0.94707 -0.278108 -0.160355
v -1.2195 -187.148 1466.8
vn 0.245567 0.852994 -0.460542
v -1.5299 -184.846 1468.85
vn 0.525335 0.751614 -0.398873
v -1.42479 -184.998 1468.7
vn 0.247619 0.87737 -0.410983
v -1.62628 -185.062 1468.37
vn 0.806183 0.515221 -0.290889
v -1.1849 -185.42 1468.4
vn 0.505695 -0.830579 -0.233263
v -1.60738 -187.721 1466.97
vn 0.89722 -0.422929 -0.126991
v -1.22915 -187.385 1467.26
vn 0.145373 0.852859 -0.501496
v -1.53869 -184.48 1469.49
vn 0.958405 0.232614 -0.165383
v -0.975701 -185.657 1468.86
vn 0.994514 -0.0150932 -0.103506
v -0.916198 -186.348 1468.85
vn 0.86032 -0.509624 -0.0115419
v -1.23877 -187.631 1468.41
vn 0.969113 -0.240343 -0.0552705
v -1.03469 -187.127 1468.56
vn 0.393616 -0.907107 -0.149073
v -1.62049 -187.927 1467.9
vn 0.447964 -0.894 -0.00958559
v -1.62662 -187.975 1468.34
vn 0.690396 -0.714909 -0.110719
v -1.36174 -187.764 1467.99
vn 0.622008 -0.779595 0.0730525
v -1.4216 -187.837 1468.42
vn 0.430027 0.761811 -0.484479
v -1.45337 -183.752 1470.77
vn 0.736767 0.603247 -0.305397
v -1.21883 -183.8 1471.09
vn 0.695036 0.623641 -0.357766
v -1.21147 -184.159 1470.44
vn 0.860577 0.442822 -0.251628
v -1.07243 -184.254 1470.63
vn 0.956265 0.255208 -0.142922
v -0.951429 -184.532 1470.71
vn 0.855126 0.493222 -0.159657
v -1.53186 -182.763 1472.67
vn 0.858351 0.502679 -0.102704
v -1.1914 -183.356 1472.25
vn 0.932929 0.355508 -0.0570679
v -0.966136 -183.817 1472.25
vn 0.976407 0.213309 -0.0336052
v -0.90178 -184.047 1472.24
vn 0.883942 0.430465 -0.182612
v -1.02667 -183.898 1471.51
vn 0.990892 0.117249 -0.0662288
v -0.846847 -184.996 1470.94
vn 0.886817 0.431053 -0.166578
v -1.54566 -182.404 1473.32
vn 0.953088 0.302679 -0.00285707
v -1.46292 -182.506 1473.96
vn 0.920965 0.387171 -0.0438353
v -1.35324 -183 1473.13
vn 0.93616 0.349363 0.0393757
v -1.01696 -183.685 1472.66
vn 0.978817 0.173838 0.108154
v -0.907554 -184.149 1472.89
vn 0.787953 -0.606523 0.106113
v -1.05584 -187.116 1471
vn 0.917909 -0.390901 0.0681131
v -0.914527 -186.841 1471.14
vn 0.95393 -0.271882 0.126874
v -0.890045 -186.662 1471.47
vn 0.431505 -0.886565 0.16675
v -1.66818 -187.578 1471.33
vn 0.647569 -0.745133 0.159474
v -1.35548 -187.417 1471.07
vn 0.968115 0.236215 0.0833967
v -1.22643 -183.423 1473.72
vn 0.98986 0.034949 0.137683
v -0.924626 -184.707 1473.29
vn 0.979753 -0.0762109 0.185139
v -0.914372 -185.49 1473.24
vn 0.961928 -0.209411 0.175619
v -0.953342 -185.903 1473.14
vn 0.897012 -0.393135 0.202025
v -1.00232 -186.492 1472.48
vn 0.583024 -0.77485 0.244317
v -1.57493 -187.34 1472.04
vn 0.789502 -0.578901 0.203864
v -1.08766 -186.943 1471.78
vn 0.951774 0.305797 -0.0247879
v -1.71001 -181.929 1475.53
vn 0.730405 -0.579893 0.360878
v -1.35694 -186.417 1473.68
vn 0.862889 -0.409889 0.295656
v -1.14871 -186.275 1473.41
vn 0.921319 -0.244073 0.302653
v -1.065 -185.818 1473.64
vn 0.668349 -0.680261 0.300922
v -1.46512 -186.824 1473.12
vn 0.784852 -0.558082 0.269356
v -1.17063 -186.59 1472.89
vn 0.988079 0.149691 0.0359399
v -1.73021 -181.583 1477.1
vn 0.98955 0.120491 0.0791967
v -1.41493 -183.179 1475.93
vn 0.977903 -0.0315069 0.206672
v -1.34131 -184.276 1475.37
vn 0.804847 -0.439909 0.398372
v -1.44959 -186.058 1474.33
vn 0.859093 -0.210856 0.466367
v -1.70033 -182.877 1477.36
vn 0.972968 0.0141653 0.230505
v -1.58864 -182.504 1477.09
vn 0.862946 -0.294645 0.410497
v -1.64346 -184.11 1476.61
vn 0.956814 -0.140206 0.254657
v -1.50346 -183.876 1476.38
vn 0.866711 -0.339082 0.365835
v -1.64708 -184.974 1475.81
vn 0.99578 0.0577091 -0.0713544
v -0.827927 -185.745 1470.2
vn 0.999992 0.00307854 -0.00258406
v -0.790575 -185.917 1470.93
vn 0.996303 -0.0756538 -0.0407008
v -0.81347 -186.324 1470.37
vn 0.997053 0.0704069 0.0304536
v -0.858566 -184.363 1472.43
vn 0.985456 -0.166949 0.0317032
v -0.840509 -186.582 1471.09
vn 0.995011 -0.0525176 0.0848185
v -0.847762 -185.344 1472.73
vn 0.313249 0.443451 0.839778
v -3.45905 -176.143 1489.64
f 3//3 1//1 7//7
f 38//38 23//23 3//3
f 23//23 2//2 3//3
f 1//1 3//3 2//2
f 6//6 4//4 2//2
f 2//2 4//4 1//1
f 1//1 4//4 7//7
f 6//6 2//2 5//5
f 6//6 33//33 4//4
f 33//33 8//8 4//4
f 7//7 4//4 8//8
f 7//7 8//8 41//41
f 14//14 59//59 60//60
f 56//56 9//9 67//67
f 10//10 24//24 11//11
f 11//11 24//24 9//9
f 11//11 58//58 16//16
f 11//11 9//9 58//58
f 58//58 9//9 56//56
f 10//10 11//11 13//13
f 10//10 13//13 28//28
f 28//28 13//13 12//12
f 11//11 14//14 13//13
f 13//13 17//17 12//12
f 11//11 16//16 14//14
f 15//15 13//13 14//14
f 15//15 17//17 13//13
f 14//14 60//60 15//15
f 18//18 17//17 15//15
f 16//16 58//58 59//59
f 14//14 16//16 59//59
f 18//18 15//15 60//60
f 17//17 30//30 12//12
f 17//17 19//19 30//30
f 18//18 19//19 17//17
f 79//79 26//26 38//38
f 21//21 26//26 79//79
f 20//20 26//26 21//21
f 20//20 21//21 67//67
f 21//21 68//68 67//67
f 23//23 25//25 22//22
f 22//22 5//5 23//23
f 22//22 10//10 5//5
f 2//2 23//23 5//5
f 24//24 22//22 25//25
f 26//26 25//25 23//23
f 38//38 26//26 23//23
f 24//24 25//25 9//9
f 25//25 20//20 9//9
f 25//25 26//26 20//20
f 67//67 9//9 20//20
f 22//22 24//24 10//10
f 5//5 28//28 6//6
f 28//28 5//5 10//10
f 28//28 27//27 6//6
f 27//27 28//28 12//12
f 29//29 27//27 12//12
f 12//12 30//30 29//29
f 30//30 32//32 29//29
f 32//32 31//31 29//29
f 32//32 30//30 19//19
f 32//32 71//71 31//31
f 19//19 72//72 32//32
f 72//72 71//71 32//32
f 31//31 71//71 77//77
f 6//6 27//27 33//33
f 27//27 29//29 33//33
f 29//29 31//31 33//33
f 31//31 34//34 33//33
f 31//31 77//77 34//34
f 33//33 34//34 8//8
f 34//34 42//42 8//8
f 36//36 42//42 34//34
f 85//85 38//38 37//37
f 85//85 79//79 38//38
f 38//38 35//35 39//39
f 35//35 41//41 40//40
f 38//38 3//3 35//35
f 7//7 35//35 3//3
f 35//35 7//7 41//41
f 38//38 39//39 37//37
f 35//35 43//43 39//39
f 35//35 40//40 43//43
f 46//46 45//45 42//42
f 42//42 45//45 8//8
f 46//46 42//42 36//36
f 45//45 46//46 47//47
f 43//43 48//48 39//39
f 43//43 98//98 48//48
f 49//49 43//43 40//40
f 43//43 49//49 98//98
f 41//41 8//8 45//45
f 40//40 41//41 44//44
f 41//41 45//45 44//44
f 45//45 99//99 44//44
f 47//47 46//46 89//89
f 47//47 91//91 45//45
f 49//49 94//94 98//98
f 40//40 44//44 49//49
f 49//49 99//99 94//94
f 49//49 44//44 99//99
f 59//59 51//51 60//60
f 50//50 60//60 51//51
f 58//58 57//57 51//51
f 51//51 54//54 50//50
f 57//57 61//61 51//51
f 61//61 52//52 51//51
f 51//51 52//52 54//54
f 54//54 53//53 50//50
f 54//54 55//55 53//53
f 55//55 62//62 53//53
f 64//64 62//62 55//55
f 52//52 104//104 54//54
f 55//55 103//103 108//108
f 56//56 67//67 70//70
f 57//57 112//112 115//115
f 56//56 70//70 57//57
f 58//58 56//56 57//57
f 57//57 105//105 61//61
f 51//51 59//59 58//58
f 53//53 60//60 50//50
f 18//18 60//60 53//53
f 105//105 155//155 61//61
f 61//61 155//155 52//52
f 18//18 53//53 62//62
f 18//18 62//62 19//19
f 62//62 63//63 19//19
f 72//72 19//19 63//63
f 62//62 64//64 63//63
f 64//64 65//65 63//63
f 64//64 55//55 65//65
f 108//108 65//65 55//55
f 106//106 63//63 65//65
f 73//73 63//63 107//107
f 107//107 63//63 106//106
f 107//107 117//117 73//73
f 117//117 74//74 73//73
f 106//106 65//65 108//108
f 68//68 75//75 76//76
f 66//66 68//68 76//76
f 68//68 70//70 67//67
f 68//68 69//69 70//70
f 66//66 69//69 68//68
f 70//70 69//69 57//57
f 74//74 71//71 72//72
f 63//63 73//73 72//72
f 74//74 72//72 73//73
f 80//80 120//120 110//110
f 75//75 21//21 79//79
f 75//75 80//80 76//76
f 76//76 80//80 110//110
f 68//68 21//21 75//75
f 66//66 76//76 110//110
f 77//77 36//36 34//34
f 77//77 71//71 74//74
f 78//78 77//77 74//74
f 77//77 121//121 36//36
f 121//121 77//77 78//78
f 88//88 36//36 121//121
f 122//122 80//80 82//82
f 75//75 79//79 82//82
f 75//75 82//82 80//80
f 80//80 122//122 120//120
f 83//83 87//87 84//84
f 84//84 87//87 124//124
f 37//37 81//81 85//85
f 83//83 82//82 81//81
f 82//82 85//85 81//81
f 87//87 83//83 81//81
f 82//82 83//83 84//84
f 82//82 84//84 122//122
f 85//85 82//82 79//79
f 86//86 87//87 81//81
f 86//86 126//126 87//87
f 90//90 126//126 86//86
f 81//81 37//37 86//86
f 46//46 36//36 88//88
f 90//90 86//86 37//37
f 90//90 37//37 39//39
f 39//39 48//48 90//90
f 91//91 47//47 89//89
f 131//131 89//89 88//88
f 131//131 130//130 89//89
f 46//46 88//88 89//89
f 128//128 126//126 92//92
f 126//126 90//90 92//92
f 91//91 89//89 130//130
f 95//95 93//93 92//92
f 93//93 95//95 137//137
f 92//92 93//93 134//134
f 134//134 93//93 137//137
f 92//92 48//48 95//95
f 48//48 97//97 95//95
f 97//97 96//96 95//95
f 97//97 48//48 98//98
f 90//90 48//48 92//92
f 94//94 102//102 98//98
f 45//45 101//101 99//99
f 140//140 91//91 130//130
f 95//95 96//96 137//137
f 142//142 96//96 97//97
f 142//142 97//97 98//98
f 98//98 102//102 142//142
f 143//143 142//142 102//102
f 94//94 100//100 102//102
f 94//94 99//99 100//100
f 101//101 100//100 99//99
f 101//101 138//138 100//100
f 140//140 101//101 45//45
f 91//91 140//140 45//45
f 101//101 140//140 138//138
f 100//100 150//150 102//102
f 100//100 138//138 144//144
f 55//55 54//54 103//103
f 104//104 103//103 54//54
f 57//57 115//115 105//105
f 155//155 104//104 52//52
f 109//109 107//107 106//106
f 108//108 103//103 157//157
f 106//106 159//159 109//109
f 160//160 109//109 159//159
f 110//110 111//111 66//66
f 111//111 110//110 113//113
f 110//110 161//161 113//113
f 57//57 69//69 112//112
f 111//111 69//69 66//66
f 69//69 111//111 112//112
f 112//112 114//114 115//115
f 112//112 111//111 113//113
f 113//113 114//114 112//112
f 162//162 114//114 113//113
f 161//161 162//162 113//113
f 164//164 116//116 114//114
f 114//114 116//116 115//115
f 165//165 116//116 164//164
f 115//115 116//116 105//105
f 117//117 118//118 74//74
f 78//78 74//74 118//118
f 117//117 107//107 109//109
f 117//117 109//109 160//160
f 117//117 160//160 118//118
f 119//119 78//78 118//118
f 119//119 118//118 166//166
f 118//118 160//160 166//166
f 120//120 161//161 110//110
f 121//121 78//78 119//119
f 119//119 166//166 225//225
f 169//169 119//119 225//225
f 120//120 220//220 167//167
f 121//121 119//119 169//169
f 122//122 84//84 124//124
f 124//124 123//123 120//120
f 120//120 122//122 124//124
f 120//120 170//170 220//220
f 123//123 124//124 127//127
f 127//127 87//87 126//126
f 127//127 124//124 87//87
f 171//171 131//131 88//88
f 125//125 126//126 128//128
f 127//127 126//126 125//125
f 127//127 125//125 123//123
f 129//129 128//128 92//92
f 125//125 128//128 174//174
f 174//174 128//128 129//129
f 131//131 177//177 130//130
f 129//129 134//134 181//181
f 129//129 92//92 134//134
f 140//140 130//130 184//184
f 184//184 130//130 177//177
f 132//132 135//135 133//133
f 135//135 183//183 133//133
f 137//137 135//135 134//134
f 134//134 135//135 132//132
f 134//134 132//132 180//180
f 136//136 135//135 185//185
f 183//183 135//135 136//136
f 137//137 96//96 147//147
f 139//139 144//144 138//138
f 140//140 139//139 138//138
f 139//139 140//140 184//184
f 139//139 184//184 141//141
f 185//185 135//135 152//152
f 152//152 135//135 151//151
f 137//137 151//151 135//135
f 96//96 142//142 147//147
f 142//142 148//148 147//147
f 142//142 143//143 148//148
f 150//150 143//143 102//102
f 144//144 150//150 100//100
f 150//150 144//144 145//145
f 139//139 145//145 144//144
f 145//145 139//139 141//141
f 185//185 152//152 193//193
f 151//151 137//137 147//147
f 146//146 153//153 151//151
f 147//147 146//146 151//151
f 146//146 147//147 148//148
f 148//148 149//149 146//146
f 148//148 143//143 149//149
f 143//143 150//150 149//149
f 152//152 151//151 201//201
f 154//154 146//146 195//195
f 146//146 154//154 153//153
f 149//149 195//195 146//146
f 149//149 150//150 198//198
f 195//195 149//149 198//198
f 150//150 190//190 198//198
f 156//156 103//103 104//104
f 155//155 156//156 104//104
f 105//105 211//211 155//155
f 156//156 157//157 103//103
f 108//108 157//157 159//159
f 106//106 108//108 159//159
f 159//159 157//157 212//212
f 157//157 158//158 212//212
f 156//156 158//158 157//157
f 116//116 165//165 105//105
f 165//165 164//164 163//163
f 160//160 219//219 166//166
f 225//225 166//166 219//219
f 162//162 161//161 168//168
f 164//164 114//114 162//162
f 168//168 163//163 162//162
f 164//164 162//162 163//163
f 165//165 224//224 218//218
f 218//218 105//105 165//165
f 120//120 167//167 161//161
f 161//161 167//167 168//168
f 222//222 163//163 168//168
f 163//163 224//224 165//165
f 169//169 172//172 121//121
f 225//225 226//226 169//169
f 123//123 170//170 120//120
f 172//172 171//171 121//121
f 172//172 169//169 226//226
f 123//123 125//125 173//173
f 170//170 123//123 173//173
f 171//171 88//88 121//121
f 125//125 174//174 175//175
f 125//125 175//175 173//173
f 173//173 175//175 231//231
f 179//179 131//131 171//171
f 227//227 179//179 171//171
f 176//176 175//175 174//174
f 231//231 175//175 176//176
f 179//179 177//177 131//131
f 178//178 177//177 179//179
f 184//184 177//177 182//182
f 177//177 178//178 182//182
f 227//227 178//178 179//179
f 181//181 176//176 174//174
f 181//181 134//134 180//180
f 180//180 176//176 181//181
f 233//233 176//176 180//180
f 181//181 174//174 129//129
f 132//132 133//133 180//180
f 133//133 183//183 180//180
f 186//186 183//183 136//136
f 184//184 188//188 141//141
f 238//238 186//186 243//243
f 186//186 136//136 185//185
f 185//185 189//189 186//186
f 238//238 183//183 186//186
f 191//191 145//145 187//187
f 191//191 187//187 246//246
f 141//141 188//188 187//187
f 145//145 141//141 187//187
f 187//187 188//188 246//246
f 189//189 185//185 193//193
f 243//243 186//186 189//189
f 145//145 190//190 150//150
f 145//145 191//191 190//190
f 190//190 191//191 249//249
f 249//249 191//191 246//246
f 193//193 194//194 189//189
f 192//192 194//194 193//193
f 192//192 247//247 194//194
f 201//201 151//151 200//200
f 193//193 152//152 204//204
f 152//152 201//201 204//204
f 197//197 195//195 198//198
f 198//198 190//190 196//196
f 198//198 196//196 197//197
f 197//197 196//196 250//250
f 196//196 248//248 250//250
f 288//288 250//250 248//248
f 193//193 204//204 199//199
f 192//192 193//193 199//199
f 251//251 192//192 199//199
f 251//251 252//252 192//192
f 204//204 201//201 205//205
f 200//200 208//208 205//205
f 200//200 151//151 153//153
f 200//200 153//153 202//202
f 201//201 200//200 205//205
f 153//153 154//154 202//202
f 203//203 195//195 254//254
f 154//154 195//195 203//203
f 195//195 250//250 254//254
f 292//292 254//254 250//250
f 197//197 250//250 195//195
f 298//298 251//251 206//206
f 206//206 199//199 204//204
f 204//204 205//205 206//206
f 206//206 205//205 208//208
f 199//199 206//206 251//251
f 206//206 208//208 297//297
f 208//208 202//202 207//207
f 200//200 202//202 208//208
f 203//203 210//210 154//154
f 203//203 254//254 253//253
f 202//202 209//209 207//207
f 207//207 209//209 257//257
f 154//154 209//209 202//202
f 155//155 213//213 156//156
f 155//155 211//211 213//213
f 213//213 211//211 264//264
f 214//214 212//212 158//158
f 214//214 159//159 212//212
f 213//213 158//158 156//156
f 311//311 214//214 158//158
f 267//267 214//214 311//311
f 267//267 216//216 214//214
f 105//105 215//215 211//211
f 216//216 159//159 214//214
f 216//216 160//160 159//159
f 160//160 217//217 219//219
f 216//216 217//217 160//160
f 217//217 216//216 266//266
f 268//268 219//219 217//217
f 105//105 218//218 215//215
f 218//218 270//270 215//215
f 225//225 219//219 268//268
f 220//220 221//221 167//167
f 167//167 221//221 168//168
f 272//272 168//168 221//221
f 222//222 168//168 274//274
f 224//224 163//163 222//222
f 223//223 224//224 222//222
f 222//222 274//274 223//223
f 218//218 224//224 270//270
f 224//224 269//269 270//270
f 170//170 277//277 220//220
f 271//271 220//220 277//277
f 271//271 221//221 220//220
f 170//170 173//173 280//280
f 171//171 172//172 227//227
f 172//172 228//228 227//227
f 228//228 172//172 226//226
f 230//230 173//173 231//231
f 173//173 230//230 280//280
f 231//231 176//176 229//229
f 229//229 176//176 233//233
f 230//230 229//229 233//233
f 230//230 231//231 229//229
f 232//232 234//234 178//178
f 232//232 178//178 227//227
f 232//232 227//227 228//228
f 180//180 235//235 233//233
f 178//178 234//234 182//182
f 235//235 180//180 183//183
f 332//332 328//328 235//235
f 238//238 239//239 236//236
f 183//183 238//238 235//235
f 235//235 238//238 236//236
f 235//235 236//236 332//332
f 188//188 184//184 237//237
f 184//184 182//182 237//237
f 336//336 239//239 245//245
f 238//238 243//243 244//244
f 239//239 238//238 244//244
f 246//246 188//188 240//240
f 188//188 241//241 240//240
f 188//188 237//237 241//241
f 241//241 284//284 240//240
f 243//243 189//189 194//194
f 244//244 243//243 242//242
f 245//245 239//239 244//244
f 245//245 244//244 242//242
f 245//245 242//242 341//341
f 249//249 246//246 287//287
f 344//344 249//249 287//287
f 242//242 289//289 290//290
f 243//243 194//194 247//247
f 247//247 192//192 252//252
f 242//242 243//243 247//247
f 289//289 242//242 247//247
f 289//289 247//247 252//252
f 190//190 249//249 196//196
f 196//196 249//249 248//248
f 288//288 292//292 250//250
f 253//253 210//210 203//203
f 253//253 254//254 256//256
f 292//292 256//256 254//254
f 297//297 298//298 206//206
f 210//210 258//258 154//154
f 255//255 256//256 260//260
f 210//210 253//253 255//255
f 255//255 253//253 256//256
f 260//260 256//256 291//291
f 297//297 208//208 261//261
f 207//207 257//257 208//208
f 208//208 257//257 261//261
f 262//262 261//261 257//257
f 262//262 257//257 209//209
f 209//209 258//258 262//262
f 258//258 263//263 262//262
f 259//259 263//263 258//258
f 299//299 263//263 259//259
f 209//209 154//154 258//258
f 259//259 258//258 210//210
f 259//259 260//260 301//301
f 259//259 301//301 299//299
f 210//210 255//255 259//259
f 255//255 260//260 259//259
f 263//263 303//303 262//262
f 263//263 299//299 303//303
f 311//311 158//158 310//310
f 213//213 310//310 158//158
f 211//211 391//391 265//265
f 211//211 265//265 264//264
f 266//266 268//268 217//217
f 267//267 266//266 216//216
f 314//314 268//268 266//266
f 267//267 312//312 266//266
f 312//312 314//314 266//266
f 224//224 223//223 269//269
f 269//269 223//223 275//275
f 275//275 270//270 269//269
f 270//270 275//275 315//315
f 215//215 270//270 316//316
f 211//211 215//215 316//316
f 276//276 225//225 268//268
f 271//271 317//317 221//221
f 277//277 317//317 271//271
f 221//221 317//317 272//272
f 317//317 318//318 272//272
f 318//318 273//273 272//272
f 272//272 274//274 168//168
f 273//273 274//274 272//272
f 275//275 274//274 398//398
f 320//320 398//398 274//274
f 223//223 274//274 275//275
f 276//276 226//226 225//225
f 226//226 276//276 228//228
f 278//278 277//277 170//170
f 280//280 278//278 170//170
f 278//278 280//280 281//281
f 278//278 279//279 277//277
f 279//279 323//323 277//277
f 230//230 233//233 280//280
f 327//327 281//281 280//280
f 331//331 232//232 228//228
f 328//328 280//280 233//233
f 328//328 233//233 235//235
f 234//234 232//232 331//331
f 283//283 182//182 234//234
f 283//283 234//234 330//330
f 239//239 338//338 282//282
f 239//239 282//282 236//236
f 236//236 282//282 332//332
f 237//237 182//182 283//283
f 338//338 239//239 336//336
f 284//284 285//285 286//286
f 241//241 285//285 284//284
f 285//285 340//340 286//286
f 283//283 285//285 237//237
f 237//237 285//285 241//241
f 285//285 283//283 340//340
f 245//245 341//341 336//336
f 240//240 287//287 246//246
f 287//287 240//240 284//284
f 286//286 344//344 287//287
f 287//287 284//284 286//286
f 290//290 341//341 242//242
f 248//248 249//249 430//430
f 293//293 290//290 289//289
f 347//347 292//292 346//346
f 288//288 346//346 292//292
f 289//289 252//252 293//293
f 292//292 291//291 256//256
f 347//347 291//291 292//292
f 252//252 251//251 294//294
f 291//291 296//296 260//260
f 291//291 347//347 302//302
f 302//302 347//347 351//351
f 294//294 251//251 298//298
f 293//293 252//252 294//294
f 293//293 294//294 295//295
f 295//295 294//294 359//359
f 301//301 260//260 296//296
f 296//296 291//291 302//302
f 302//302 301//301 296//296
f 297//297 261//261 306//306
f 359//359 294//294 298//298
f 299//299 300//300 304//304
f 302//302 355//355 300//300
f 299//299 301//301 300//300
f 300//300 301//301 302//302
f 305//305 358//358 298//298
f 297//297 306//306 305//305
f 298//298 297//297 305//305
f 261//261 307//307 306//306
f 307//307 261//261 262//262
f 309//309 303//303 304//304
f 309//309 304//304 362//362
f 303//303 299//299 304//304
f 304//304 300//300 355//355
f 304//304 355//355 362//362
f 307//307 262//262 308//308
f 306//306 307//307 308//308
f 309//309 308//308 262//262
f 308//308 309//309 384//384
f 384//384 309//309 363//363
f 262//262 303//303 309//309
f 309//309 362//362 363//363
f 306//306 308//308 377//377
f 377//377 308//308 384//384
f 264//264 388//388 385//385
f 264//264 385//385 213//213
f 385//385 386//386 213//213
f 213//213 386//386 310//310
f 265//265 388//388 264//264
f 265//265 391//391 388//388
f 311//311 312//312 267//267
f 312//312 390//390 314//314
f 389//389 312//312 311//311
f 390//390 312//312 389//389
f 211//211 316//316 391//391
f 314//314 313//313 268//268
f 392//392 313//313 314//314
f 270//270 315//315 316//316
f 315//315 399//399 395//395
f 315//315 321//321 399//399
f 315//315 395//395 316//316
f 391//391 316//316 395//395
f 401//401 276//276 268//268
f 268//268 313//313 401//401
f 319//319 318//318 317//317
f 318//318 319//319 273//273
f 273//273 320//320 274//274
f 320//320 273//273 319//319
f 319//319 397//397 320//320
f 397//397 398//398 320//320
f 321//321 275//275 398//398
f 398//398 400//400 321//321
f 321//321 315//315 275//275
f 279//279 326//326 323//323
f 279//279 278//278 326//326
f 277//277 323//323 322//322
f 317//317 277//277 322//322
f 322//322 323//323 403//403
f 323//323 402//402 403//403
f 317//317 322//322 319//319
f 228//228 324//324 331//331
f 324//324 228//228 276//276
f 401//401 324//324 276//276
f 281//281 325//325 278//278
f 325//325 408//408 326//326
f 326//326 408//408 406//406
f 278//278 325//325 326//326
f 323//323 326//326 406//406
f 325//325 281//281 327//327
f 408//408 325//325 329//329
f 325//325 327//327 329//329
f 280//280 328//328 327//327
f 327//327 328//328 329//329
f 328//328 411//411 329//329
f 330//330 234//234 331//331
f 331//331 410//410 330//330
f 411//411 328//328 332//332
f 334//334 411//411 332//332
f 410//410 413//413 330//330
f 335//335 330//330 413//413
f 412//412 335//335 413//413
f 282//282 338//338 333//333
f 282//282 333//333 332//332
f 422//422 334//334 337//337
f 337//337 334//334 333//333
f 334//334 422//422 411//411
f 332//332 333//333 334//334
f 330//330 335//335 283//283
f 336//336 342//342 337//337
f 338//338 336//336 337//337
f 337//337 342//342 343//343
f 422//422 337//337 343//343
f 338//338 337//337 333//333
f 286//286 340//340 339//339
f 340//340 415//415 339//339
f 425//425 339//339 415//415
f 283//283 335//335 340//340
f 340//340 335//335 419//419
f 340//340 419//419 415//415
f 421//421 415//415 419//419
f 341//341 342//342 336//336
f 341//341 343//343 342//342
f 433//433 345//345 425//425
f 286//286 339//339 344//344
f 345//345 344//344 425//425
f 344//344 339//339 425//425
f 428//428 248//248 430//430
f 428//428 288//288 248//248
f 426//426 288//288 428//428
f 249//249 432//432 430//430
f 344//344 345//345 249//249
f 249//249 345//345 432//432
f 345//345 433//433 432//432
f 426//426 347//347 346//346
f 288//288 426//426 346//346
f 426//426 435//435 347//347
f 341//341 290//290 436//436
f 438//438 351//351 347//347
f 293//293 349//349 348//348
f 293//293 348//348 290//290
f 436//436 290//290 348//348
f 349//349 293//293 295//295
f 295//295 352//352 349//349
f 349//349 350//350 348//348
f 350//350 349//349 352//352
f 452//452 350//350 352//352
f 356//356 302//302 351//351
f 352//352 295//295 354//354
f 452//452 352//352 354//354
f 356//356 355//355 302//302
f 353//353 295//295 359//359
f 353//353 354//354 295//295
f 360//360 354//354 353//353
f 454//454 354//354 360//360
f 452//452 354//354 454//454
f 355//355 365//365 362//362
f 459//459 361//361 366//366
f 355//355 356//356 366//366
f 366//366 365//365 355//355
f 367//367 358//358 376//376
f 357//357 359//359 358//358
f 353//353 359//359 357//357
f 358//358 367//367 357//357
f 353//353 372//372 360//360
f 372//372 353//353 357//357
f 454//454 360//360 467//467
f 360//360 372//372 467//467
f 376//376 358//358 305//305
f 306//306 376//376 305//305
f 298//298 358//358 359//359
f 364//364 366//366 361//361
f 365//365 363//363 362//362
f 364//364 363//363 365//365
f 366//366 364//364 365//365
f 367//367 376//376 368//368
f 370//370 367//367 368//368
f 370//370 368//368 371//371
f 381//381 371//371 368//368
f 369//369 357//357 367//367
f 369//369 367//367 370//370
f 369//369 373//373 372//372
f 357//357 369//369 372//372
f 370//370 373//373 369//369
f 374//374 373//373 370//370
f 371//371 374//374 370//370
f 375//375 374//374 371//371
f 375//375 371//371 381//381
f 467//467 372//372 373//373
f 469//469 374//374 375//375
f 376//376 306//306 378//378
f 378//378 306//306 377//377
f 379//379 377//377 384//384
f 368//368 376//376 378//378
f 368//368 378//378 381//381
f 381//381 378//378 380//380
f 380//380 378//378 377//377
f 377//377 379//379 380//380
f 381//381 380//380 383//383
f 383//383 380//380 382//382
f 380//380 379//379 382//382
f 383//383 375//375 381//381
f 364//364 382//382 379//379
f 364//364 476//476 382//382
f 375//375 383//383 475//475
f 383//383 382//382 475//475
f 476//476 475//475 382//382
f 384//384 363//363 379//379
f 364//364 379//379 363//363
f 364//364 361//361 476//476
f 386//386 387//387 310//310
f 387//387 311//311 310//310
f 388//388 482//482 385//385
f 388//388 494//494 482//482
f 388//388 391//391 494//494
f 387//387 389//389 311//311
f 389//389 493//493 390//390
f 492//492 493//493 389//389
f 497//497 496//496 390//390
f 391//391 395//395 396//396
f 393//393 392//392 314//314
f 393//393 314//314 390//390
f 496//496 393//393 390//390
f 496//496 392//392 393//393
f 395//395 399//399 394//394
f 400//400 394//394 399//399
f 396//396 395//395 394//394
f 396//396 394//394 501//501
f 392//392 401//401 313//313
f 397//397 319//319 404//404
f 397//397 507//507 398//398
f 507//507 509//509 398//398
f 398//398 509//509 400//400
f 321//321 400//400 399//399
f 501//501 394//394 400//400
f 392//392 503//503 401//401
f 503//503 405//405 401//401
f 403//403 402//402 511//511
f 404//404 319//319 322//322
f 404//404 322//322 403//403
f 404//404 403//403 506//506
f 506//506 397//397 404//404
f 405//405 331//331 324//324
f 405//405 324//324 401//401
f 406//406 409//409 513//513
f 406//406 402//402 323//323
f 406//406 513//513 402//402
f 329//329 407//407 408//408
f 517//517 409//409 407//407
f 408//408 409//409 406//406
f 408//408 407//407 409//409
f 409//409 514//514 513//513
f 409//409 517//517 514//514
f 405//405 410//410 331//331
f 520//520 410//410 405//405
f 411//411 517//517 407//407
f 411//411 407//407 329//329
f 517//517 411//411 521//521
f 520//520 413//413 410//410
f 520//520 523//523 413//413
f 412//412 419//419 335//335
f 523//523 524//524 412//412
f 412//412 413//413 523//523
f 420//420 419//419 412//412
f 414//414 411//411 422//422
f 417//417 529//529 423//423
f 425//425 416//416 417//417
f 416//416 425//425 415//415
f 417//417 416//416 418//418
f 418//418 534//534 531//531
f 531//531 417//417 418//418
f 420//420 421//421 419//419
f 421//421 416//416 415//415
f 421//421 418//418 416//416
f 418//418 421//421 534//534
f 420//420 534//534 421//421
f 425//425 417//417 433//433
f 414//414 422//422 550//550
f 427//427 429//429 540//540
f 430//430 429//429 428//428
f 429//429 426//426 428//428
f 426//426 429//429 427//427
f 540//540 429//429 542//542
f 432//432 431//431 430//430
f 429//429 430//430 431//431
f 429//429 431//431 542//542
f 432//432 434//434 431//431
f 434//434 432//432 433//433
f 433//433 417//417 423//423
f 433//433 423//423 434//434
f 434//434 424//424 431//431
f 434//434 423//423 424//424
f 422//422 437//437 550//550
f 553//553 438//438 435//435
f 539//539 435//435 427//427
f 426//426 427//427 435//435
f 343//343 341//341 436//436
f 437//437 343//343 436//436
f 441//441 437//437 436//436
f 437//437 441//441 442//442
f 343//343 437//437 422//422
f 550//550 437//437 558//558
f 558//558 437//437 442//442
f 444//444 553//553 445//445
f 553//553 444//444 438//438
f 438//438 347//347 435//435
f 348//348 439//439 436//436
f 439//439 440//440 436//436
f 439//439 348//348 350//350
f 439//439 446//446 440//440
f 350//350 446//446 439//439
f 440//440 447//447 441//441
f 447//447 442//442 441//441
f 440//440 441//441 436//436
f 447//447 448//448 442//442
f 442//442 448//448 558//558
f 556//556 443//443 445//445
f 450//450 443//443 560//560
f 444//444 449//449 351//351
f 443//443 444//444 445//445
f 438//438 444//444 351//351
f 452//452 446//446 350//350
f 447//447 446//446 451//451
f 451//451 446//446 452//452
f 447//447 440//440 446//446
f 447//447 451//451 455//455
f 562//562 455//455 458//458
f 562//562 448//448 455//455
f 447//447 455//455 448//448
f 450//450 449//449 444//444
f 444//444 443//443 450//450
f 458//458 457//457 562//562
f 560//560 562//562 457//457
f 453//453 450//450 460//460
f 450//450 560//560 460//460
f 560//560 457//457 460//460
f 351//351 449//449 453//453
f 351//351 453//453 356//356
f 450//450 453//453 449//449
f 454//454 451//451 452//452
f 454//454 461//461 451//451
f 461//461 455//455 451//451
f 461//461 462//462 455//455
f 458//458 455//455 462//462
f 456//456 457//457 458//458
f 459//459 460//460 466//466
f 460//460 457//457 466//466
f 466//466 457//457 456//456
f 459//459 453//453 460//460
f 453//453 459//459 356//356
f 459//459 366//366 356//356
f 472//472 454//454 467//467
f 472//472 461//461 454//454
f 461//461 472//472 464//464
f 462//462 461//461 464//464
f 464//464 474//474 465//465
f 462//462 464//464 465//465
f 462//462 465//465 463//463
f 463//463 465//465 480//480
f 463//463 480//480 466//466
f 480//480 361//361 466//466
f 462//462 463//463 458//458
f 463//463 456//456 458//458
f 456//456 463//463 466//466
f 361//361 459//459 466//466
f 472//472 467//467 468//468
f 468//468 467//467 373//373
f 647//647 373//373 374//374
f 469//469 647//647 374//374
f 471//471 469//469 375//375
f 475//475 471//471 375//375
f 647//647 469//469 473//473
f 470//470 473//473 469//469
f 471//471 470//470 469//469
f 470//470 471//471 478//478
f 478//478 471//471 475//475
f 464//464 472//472 474//474
f 468//468 473//473 472//472
f 472//472 473//473 474//474
f 474//474 473//473 477//477
f 473//473 470//470 477//477
f 477//477 470//470 478//478
f 476//476 478//478 475//475
f 476//476 479//479 478//478
f 361//361 479//479 476//476
f 481//481 477//477 478//478
f 479//479 481//481 478//478
f 474//474 481//481 465//465
f 465//465 481//481 480//480
f 479//479 361//361 480//480
f 477//477 481//481 474//474
f 479//479 480//480 481//481
f 487//487 386//386 385//385
f 482//482 484//484 487//487
f 495//495 482//482 494//494
f 482//482 483//483 484//484
f 482//482 495//495 483//483
f 483//483 575//575 563//563
f 483//483 563//563 484//484
f 483//483 495//495 575//575
f 563//563 565//565 484//484
f 387//387 492//492 389//389
f 487//487 385//385 482//482
f 485//485 386//386 487//487
f 485//485 486//486 386//386
f 486//486 387//387 386//386
f 488//488 387//387 486//486
f 492//492 387//387 488//488
f 486//486 485//485 489//489
f 487//487 565//565 485//485
f 489//489 490//490 486//486
f 490//490 491//491 488//488
f 490//490 488//488 486//486
f 487//487 484//484 565//565
f 491//491 492//492 488//488
f 565//565 489//489 485//485
f 568//568 493//493 492//492
f 566//566 489//489 565//565
f 566//566 490//490 489//489
f 566//566 567//567 490//490
f 567//567 568//568 491//491
f 567//567 491//491 490//490
f 491//491 568//568 492//492
f 493//493 568//568 569//569
f 493//493 569//569 497//497
f 493//493 497//497 390//390
f 396//396 501//501 495//495
f 498//498 574//574 495//495
f 495//495 574//574 575//575
f 494//494 391//391 396//396
f 494//494 396//396 495//495
f 497//497 587//587 499//499
f 578//578 587//587 497//497
f 497//497 499//499 496//496
f 498//498 501//501 502//502
f 498//498 589//589 583//583
f 501//501 498//498 495//495
f 498//498 585//585 574//574
f 496//496 504//504 392//392
f 499//499 504//504 496//496
f 501//501 400//400 500//500
f 500//500 400//400 509//509
f 501//501 500//500 502//502
f 500//500 589//589 502//502
f 498//498 502//502 589//589
f 504//504 503//503 392//392
f 504//504 505//505 503//503
f 594//594 505//505 504//504
f 594//594 504//504 499//499
f 587//587 594//594 499//499
f 594//594 595//595 505//505
f 403//403 512//512 506//506
f 397//397 506//506 507//507
f 507//507 506//506 508//508
f 506//506 512//512 508//508
f 507//507 598//598 509//509
f 508//508 598//598 507//507
f 509//509 598//598 500//500
f 505//505 405//405 503//503
f 505//505 510//510 405//405
f 595//595 510//510 505//505
f 595//595 597//597 510//510
f 513//513 511//511 402//402
f 511//511 513//513 515//515
f 511//511 512//512 403//403
f 515//515 512//512 511//511
f 512//512 515//515 609//609
f 510//510 520//520 405//405
f 617//617 510//510 597//597
f 516//516 514//514 521//521
f 513//513 514//514 515//515
f 515//515 514//514 516//516
f 609//609 515//515 516//516
f 521//521 514//514 517//517
f 519//519 524//524 518//518
f 617//617 519//519 518//518
f 617//617 624//624 519//519
f 523//523 520//520 518//518
f 510//510 518//518 520//520
f 617//617 518//518 510//510
f 521//521 536//536 626//626
f 522//522 526//526 524//524
f 624//624 522//522 519//519
f 522//522 524//524 519//519
f 526//526 522//522 525//525
f 630//630 525//525 522//522
f 523//523 518//518 524//524
f 536//536 632//632 626//626
f 526//526 534//534 420//420
f 525//525 534//534 526//526
f 533//533 525//525 627//627
f 412//412 524//524 420//420
f 526//526 420//420 524//524
f 521//521 411//411 414//414
f 521//521 414//414 535//535
f 521//521 535//535 536//536
f 536//536 538//538 632//632
f 632//632 538//538 527//527
f 527//527 541//541 528//528
f 638//638 546//546 640//640
f 546//546 529//529 530//530
f 530//530 640//640 546//546
f 530//530 533//533 635//635
f 417//417 531//531 529//529
f 529//529 531//531 532//532
f 532//532 533//533 529//529
f 529//529 533//533 530//530
f 534//534 525//525 532//532
f 534//534 532//532 531//531
f 533//533 532//532 525//525
f 550//550 535//535 414//414
f 536//536 548//548 537//537
f 536//536 537//537 538//538
f 527//527 538//538 549//549
f 541//541 527//527 539//539
f 539//539 540//540 541//541
f 542//542 431//431 424//424
f 542//542 543//543 540//540
f 424//424 544//544 542//542
f 544//544 543//543 542//542
f 543//543 544//544 545//545
f 636//636 543//543 545//545
f 540//540 543//543 636//636
f 540//540 636//636 541//541
f 423//423 529//529 424//424
f 529//529 544//544 424//424
f 529//529 546//546 544//544
f 544//544 546//546 545//545
f 638//638 636//636 545//545
f 546//546 638//638 545//545
f 535//535 550//550 547//547
f 547//547 550//550 551//551
f 548//548 547//547 551//551
f 536//536 535//535 547//547
f 536//536 547//547 548//548
f 548//548 552//552 549//549
f 549//549 552//552 557//557
f 548//548 549//549 537//537
f 557//557 539//539 549//549
f 538//538 537//537 549//549
f 549//549 539//539 527//527
f 539//539 427//427 540//540
f 554//554 551//551 550//550
f 551//551 552//552 548//548
f 445//445 553//553 557//557
f 553//553 539//539 557//557
f 435//435 539//539 553//553
f 550//550 558//558 554//554
f 554//554 555//555 551//551
f 559//559 555//555 554//554
f 555//555 561//561 552//552
f 555//555 559//559 561//561
f 552//552 561//561 556//556
f 557//557 552//552 556//556
f 551//551 555//555 552//552
f 559//559 448//448 562//562
f 558//558 448//448 559//559
f 554//554 558//558 559//559
f 559//559 562//562 561//561
f 561//561 560//560 556//556
f 443//443 556//556 560//560
f 561//561 562//562 560//560
f 556//556 445//445 557//557
f 563//563 564//564 565//565
f 563//563 575//575 564//564
f 570//570 564//564 577//577
f 566//566 565//565 570//570
f 571//571 566//566 570//570
f 564//564 570//570 565//565
f 571//571 567//567 566//566
f 567//567 572//572 568//568
f 568//568 572//572 569//569
f 569//569 578//578 497//497
f 570//570 573//573 571//571
f 573//573 567//567 571//571
f 572//572 567//567 573//573
f 579//579 572//572 573//573
f 578//578 572//572 579//579
f 569//569 572//572 578//578
f 581//581 579//579 573//573
f 573//573 570//570 577//577
f 577//577 581//581 573//573
f 579//579 581//581 582//582
f 574//574 584//584 575//575
f 586//586 576//576 584//584
f 584//584 576//576 575//575
f 576//576 586//586 590//590
f 590//590 577//577 576//576
f 564//564 575//575 576//576
f 564//564 576//576 577//577
f 577//577 591//591 581//581
f 581//581 591//591 582//582
f 578//578 580//580 587//587
f 579//579 582//582 580//580
f 579//579 580//580 578//578
f 498//498 583//583 585//585
f 583//583 584//584 585//585
f 583//583 589//589 584//584
f 584//584 589//589 598//598
f 584//584 598//598 600//600
f 600//600 586//586 584//584
f 574//574 585//585 584//584
f 590//590 591//591 577//577
f 587//587 580//580 596//596
f 580//580 582//582 588//588
f 596//596 580//580 588//588
f 582//582 593//593 588//588
f 500//500 598//598 589//589
f 590//590 586//586 601//601
f 582//582 591//591 593//593
f 592//592 588//588 593//593
f 596//596 594//594 587//587
f 596//596 597//597 595//595
f 594//594 596//596 595//595
f 597//597 596//596 592//592
f 592//592 596//596 588//588
f 512//512 598//598 508//508
f 512//512 599//599 598//598
f 599//599 600//600 598//598
f 600//600 599//599 601//601
f 599//599 607//607 601//601
f 599//599 512//512 607//607
f 600//600 601//601 586//586
f 601//601 602//602 590//590
f 601//601 607//607 602//602
f 590//590 602//602 608//608
f 590//590 641//641 591//591
f 593//593 591//591 643//643
f 603//603 512//512 609//609
f 512//512 603//603 604//604
f 604//604 603//603 611//611
f 604//604 611//611 612//612
f 604//604 612//612 605//605
f 512//512 604//604 607//607
f 605//605 607//607 604//604
f 607//607 605//605 606//606
f 605//605 612//612 606//606
f 602//602 606//606 608//608
f 602//602 607//607 606//606
f 606//606 644//644 608//608
f 592//592 593//593 615//615
f 592//592 615//615 614//614
f 597//597 592//592 614//614
f 610//610 609//609 516//516
f 609//609 610//610 611//611
f 611//611 610//610 619//619
f 611//611 603//603 609//609
f 611//611 619//619 612//612
f 613//613 619//619 634//634
f 612//612 619//619 613//613
f 612//612 613//613 606//606
f 606//606 613//613 644//644
f 616//616 645//645 646//646
f 616//616 622//622 623//623
f 614//614 625//625 618//618
f 614//614 615//615 625//625
f 593//593 645//645 615//615
f 615//615 645//645 616//616
f 615//615 616//616 625//625
f 618//618 617//617 597//597
f 597//597 614//614 618//618
f 521//521 626//626 516//516
f 610//610 516//516 626//626
f 620//620 613//613 634//634
f 644//644 620//620 646//646
f 620//620 621//621 646//646
f 646//646 621//621 622//622
f 621//621 629//629 622//622
f 629//629 621//621 634//634
f 622//622 629//629 628//628
f 628//628 623//623 622//622
f 616//616 623//623 625//625
f 631//631 625//625 623//623
f 617//617 618//618 624//624
f 618//618 625//625 624//624
f 630//630 624//624 625//625
f 625//625 631//631 630//630
f 610//610 626//626 633//633
f 619//619 610//610 633//633
f 619//619 633//633 634//634
f 634//634 621//621 620//620
f 627//627 525//525 630//630
f 627//627 628//628 635//635
f 623//623 628//628 631//631
f 629//629 635//635 628//628
f 635//635 629//629 640//640
f 630//630 522//522 624//624
f 630//630 631//631 627//627
f 627//627 631//631 628//628
f 626//626 632//632 633//633
f 634//634 640//640 629//629
f 634//634 633//633 639//639
f 634//634 639//639 640//640
f 635//635 533//533 627//627
f 632//632 527//527 528//528
f 528//528 541//541 637//637
f 541//541 636//636 637//637
f 633//633 632//632 637//637
f 632//632 528//528 637//637
f 638//638 639//639 636//636
f 633//633 637//637 639//639
f 639//639 637//637 636//636
f 638//638 640//640 639//639
f 635//635 640//640 530//530
f 591//591 641//641 643//643
f 590//590 608//608 641//641
f 608//608 644//644 642//642
f 641//641 608//608 642//642
f 642//642 645//645 643//643
f 642//642 646//646 645//645
f 642//642 643//643 641//641
f 643//643 645//645 593//593
f 613//613 620//620 644//644
f 642//642 644//644 646//646
f 646//646 622//622 616//616
