# Wavafront OBJ file of BodyParts3D
# BodyParts3D, Copyright(C) 2010-2011 The Database Center for Life Science licensed under CC Attribution-Share Alike 2.1 Japan.
vn -0.892865 0.235509 -0.383833
v 12.3755 -175.507 1478.91
vn -0.93971 -0.0445135 -0.339062
v 12.3101 -176.059 1478.86
vn -0.829685 0.552573 -0.0792894
v 12.1999 -174.114 1481.37
vn -0.69881 0.706344 -0.112885
v 12.3721 -173.884 1481.38
vn -0.75238 0.602009 -0.26741
v 12.2997 -174.108 1480.91
vn -0.958486 0.142682 -0.246873
v 11.7077 -175.3 1480.52
vn -0.967559 0.225815 -0.113302
v 11.6749 -175.212 1480.79
vn -0.984352 -0.096307 -0.147564
v 11.6768 -175.486 1480.65
vn -0.855106 0.438242 -0.277015
v 11.7914 -175.069 1480.52
vn -0.953202 -0.164248 -0.253828
v 11.7515 -175.574 1480.38
vn -0.905278 0.205395 -0.371868
v 11.8596 -175.385 1480.01
vn -0.919747 0.390799 -0.0366159
v 11.7638 -174.917 1481.06
vn -0.997645 0.0670094 0.0146167
v 11.6392 -175.401 1481.16
vn -0.980255 -0.190365 -0.0534853
v 11.664 -175.723 1481.11
vn -0.888352 -0.444031 -0.116909
v 11.8825 -176.366 1481.01
vn -0.887311 0.460162 0.0305011
v 12.1185 -174.222 1482.47
vn -0.981671 0.14822 0.119804
v 11.7049 -175.367 1481.99
vn -0.985599 -0.122834 0.116222
v 11.7242 -175.831 1482.21
vn -0.92173 -0.386752 0.0289389
v 11.758 -176.133 1481.46
vn -0.753122 -0.65159 0.0907568
v 12.271 -176.895 1481.59
vn -0.855358 0.515771 -0.0483976
v 12.1987 -174.191 1483.53
vn -0.968903 0.240285 0.0590834
v 12.0722 -174.51 1483.25
vn -0.980451 0.178582 -0.0826054
v 12.05 -174.564 1483.8
vn -0.989473 0.049546 0.135975
v 11.947 -175.478 1483.33
vn -0.896692 -0.422306 0.132671
v 11.821 -176.108 1482.3
vn -0.999906 0.0101656 -0.00916624
v 11.9788 -175.441 1483.93
vn -0.970579 -0.197534 0.137686
v 11.963 -175.939 1483.32
vn -0.957683 -0.285114 0.0394162
v 12.0155 -175.857 1484.06
vn -0.856078 -0.498989 0.134684
v 12.0892 -176.261 1483.27
vn -0.839586 -0.531959 0.110068
v 12.1488 -176.05 1484.66
vn -0.777541 0.619835 -0.105989
v 11.982 -173.597 1487.09
vn -0.994766 -0.0198453 -0.100236
v 11.6922 -174.742 1486.61
vn -0.941822 -0.335236 -0.0242437
v 11.7424 -175.017 1486.46
vn -0.803345 -0.586435 0.103592
v 12.0214 -175.565 1486.18
vn -0.565879 -0.800717 0.196553
v 12.2083 -175.757 1486.11
vn -0.792543 0.607035 -0.0581701
v 11.8246 -173.658 1488.1
vn -0.611145 0.791239 -0.0210339
v 12.1787 -173.322 1488.28
vn -0.865048 0.500682 -0.031775
v 11.5884 -173.946 1488.87
vn -0.948772 0.300789 -0.0967351
v 11.5256 -174.169 1488.41
vn -0.998732 0.00855217 -0.0496095
v 11.4661 -174.403 1488.64
vn -0.741467 -0.667527 0.0680767
v 11.777 -175.09 1487.5
vn -0.453273 -0.879594 0.144424
v 11.9721 -175.148 1488.29
vn -0.887321 -0.45883 0.0462231
v 11.4886 -174.643 1489.32
vn -0.969706 0.181422 0.16357
v 11.5061 -174.152 1490.39
vn -0.831133 0.548659 0.0905077
v 11.6091 -173.921 1490.39
vn -0.72239 0.691204 0.0197279
v 11.8195 -173.64 1490.08
vn -0.933596 0.358324 0.00135457
v 11.5215 -174.054 1489.98
vn -0.995678 -0.0567612 0.0735093
v 11.4658 -174.379 1490.16
vn -0.570894 -0.806709 0.152648
v 11.7415 -174.8 1490.06
vn -0.850736 0.520243 0.0748098
v 11.9258 -173.777 1491.63
vn -0.97695 -0.100497 0.188334
v 11.7723 -174.26 1491.5
vn -0.691757 -0.693087 0.202736
v 11.8852 -174.534 1491.36
vn -0.883903 -0.416764 0.212187
v 11.5727 -174.477 1490.57
vn -0.820936 -0.538881 0.188868
v 11.967 -174.276 1492.65
vn -0.956107 -0.219787 0.193788
v 12.0343 -174.012 1493.49
vn -0.9746 0.199268 0.102207
v 12.1007 -173.729 1493.87
vn -0.872954 -0.348823 0.34099
v 12.1161 -173.971 1493.86
vn -0.905266 -0.164029 0.391903
v 12.1947 -173.7 1494.23
vn -0.749462 -0.592107 0.296168
v 12.1251 -174.107 1493.67
vn -0.898857 0.200999 -0.389429
v 13.1879 -178.403 1468.84
vn -0.932921 -0.128569 -0.336346
v 13.195 -178.724 1468.79
vn -0.725491 0.534858 -0.433116
v 13.2772 -177.129 1469.96
vn -0.964788 0.107829 -0.239909
v 13.028 -178.318 1469.34
vn -0.964353 -0.19546 -0.178378
v 13.0273 -178.921 1469.61
vn -0.887942 -0.370805 -0.272144
v 13.2609 -179.188 1469.01
vn -0.847886 -0.381904 -0.367747
v 13.3446 -179.185 1468.78
vn -0.855689 0.515507 -0.0452732
v 13.1323 -174.588 1472.67
vn -0.718457 0.655992 -0.23129
v 13.3003 -174.446 1472.4
vn -0.971516 0.225569 -0.072626
v 12.9864 -175.137 1472.38
vn -0.85582 0.412598 -0.311986
v 13.0804 -174.995 1472.11
vn -0.911876 0.279104 -0.300969
v 13.0235 -175.258 1471.97
vn -0.711123 0.50727 -0.486807
v 13.3112 -174.853 1471.84
vn -0.754347 0.38606 -0.53096
v 13.2374 -175.127 1471.69
vn -0.983577 0.104708 -0.147012
v 12.8818 -176.051 1471.91
vn -0.882979 0.227369 -0.410672
v 12.9632 -176.184 1471.49
vn -0.774337 0.398456 -0.491564
v 13.1775 -176.224 1471.13
vn -0.988745 0.0527676 -0.139994
v 12.9416 -176.783 1471.53
vn -0.796991 0.430703 -0.423438
v 13.1086 -176.499 1470.98
vn -0.920916 0.244982 -0.303147
v 13.0333 -176.406 1471.25
vn -0.98855 0.117598 -0.0945458
v 12.8211 -177.742 1470.91
vn -0.904901 0.306948 -0.294851
v 12.9859 -177.139 1470.65
vn -0.994788 -0.0766088 -0.0672971
v 12.8169 -178.063 1470.86
vn -0.965206 -0.246723 -0.0866314
v 13.0209 -179.157 1470.07
vn -0.908608 -0.41168 -0.0703667
v 13.1148 -179.483 1470.25
vn -0.887421 -0.421627 -0.186318
v 13.1354 -179.432 1469.93
vn -0.802454 -0.576437 -0.154232
v 13.232 -179.665 1470.16
vn -0.783813 0.610081 0.115924
v 13.2556 -174.503 1473.18
vn -0.946073 0.302252 0.116574
v 13.0946 -174.73 1472.94
vn -0.997439 -0.044491 -0.0560064
v 12.847 -176.376 1472.09
vn -0.996697 0.0719957 0.0375594
v 12.8544 -176.058 1472.37
vn -0.999199 -0.0104328 -0.0386333
v 12.9075 -176.742 1471.9
vn -0.995344 0.0963871 -0.000481691
v 12.8286 -177.433 1471.89
vn -0.999258 -0.0324642 0.0207324
v 12.7967 -177.938 1471.74
vn -0.958694 -0.28444 0.000417281
v 13.0151 -179.262 1470.94
vn -0.871196 -0.487024 0.0618471
v 13.1181 -179.496 1471.17
vn -0.85005 -0.526691 -0.0035314
v 13.2014 -179.672 1470.62
vn -0.953676 0.281236 0.106814
v 13.199 -175.054 1474.17
vn -0.997981 0.0332303 0.0541239
v 12.9278 -177.125 1472.86
vn -0.721414 -0.673963 0.15917
v 13.2887 -179.516 1472.55
vn -0.978506 0.201795 -0.0424856
v 13.2302 -175.508 1475.79
vn -0.9902 0.081561 0.113367
v 13.0366 -177.056 1474.52
vn -0.98861 0.0841643 0.124768
v 12.9037 -177.839 1474.46
vn -0.934459 -0.345711 0.0852611
v 12.9573 -178.614 1473.94
vn -0.978769 -0.165248 0.121262
v 12.9014 -178.208 1474.5
vn -0.948123 0.306857 -0.0830788
v 13.1011 -175.704 1476.61
vn -0.998755 0.0485105 -0.0116189
v 13.1593 -176.199 1475.78
vn -0.95747 -0.169206 0.233712
v 12.9931 -178.214 1474.96
vn -0.974223 -0.051076 0.219729
v 13.1312 -177.947 1475.57
vn -0.823669 -0.529235 0.203666
v 13.1247 -178.628 1474.87
vn -0.748289 0.601421 -0.279922
v 13.0069 -175.125 1477.96
vn -0.967815 0.0918658 -0.234297
v 12.9083 -176.219 1477.16
vn -0.89913 0.331519 -0.285763
v 12.9814 -175.85 1477.12
vn -0.978751 -0.193211 -0.0686662
v 13.0814 -177.503 1476.73
vn -0.991162 -0.108251 0.076677
v 13.1724 -177.858 1475.85
vn -0.740157 0.556493 -0.377469
v 12.5532 -175.138 1478.87
vn -0.948657 -0.257045 -0.184331
v 12.8044 -176.781 1477.79
vn -0.920552 -0.390259 -0.016794
v 13.044 -177.504 1477.85
vn -0.610138 0.710653 -0.350291
v 13.1346 -173.593 1480.38
vn -0.643301 0.726277 -0.242252
v 12.515 -173.833 1481.06
vn -0.571032 0.805634 -0.157723
v 12.6883 -173.638 1481.28
vn -0.820117 -0.567069 -0.0764265
v 12.8887 -177.353 1479.12
vn -0.520618 0.853786 0.0024134
v 12.8849 -173.454 1481.95
vn -0.729497 0.683775 0.0169023
v 12.4021 -173.802 1482.11
vn -0.668926 -0.742746 0.0294403
v 12.988 -177.505 1480.09
vn -0.238356 0.96442 0.114366
v 13.149 -173.491 1482.87
vn -0.666993 -0.745054 -0.00388038
v 12.4572 -177.101 1480.87
vn -0.537078 -0.835087 0.119068
v 12.9929 -177.431 1481.52
vn -0.257225 0.95363 -0.156283
v 13.0656 -173.543 1483.77
vn -0.528877 0.848589 -0.0136468
v 12.5517 -173.822 1483.5
vn -0.566277 0.818822 -0.0941324
v 12.5143 -173.201 1486.37
vn -0.385581 0.910426 -0.149836
v 12.8289 -173.078 1485.98
vn -0.61376 -0.764483 0.197143
v 12.4348 -176.379 1484.63
vn -0.34419 -0.891002 0.296054
v 12.9509 -176.684 1484.55
vn -0.384065 -0.880438 0.278069
v 12.6202 -175.991 1486.12
vn -0.426787 0.904336 -0.00537335
v 12.4825 -173.131 1488.66
vn -0.459445 0.887843 0.025392
v 12.3583 -173.247 1490.17
vn -0.256183 -0.939757 0.226333
v 12.379 -175.217 1488.65
vn -0.0209562 -0.972274 0.232904
v 12.7897 -175.266 1488.75
vn -0.637661 0.770226 0.0118061
v 12.3211 -173.342 1491.75
vn -0.135461 -0.979424 0.149597
v 12.249 -174.885 1490.6
vn -0.471731 0.85051 -0.232599
v 12.8154 -172.368 1494.35
vn -0.756204 0.626155 -0.189963
v 12.6192 -172.846 1493.63
vn -0.493807 -0.846794 0.197723
v 12.2187 -174.49 1492.78
vn -0.577088 -0.773642 0.261624
v 12.2122 -174.351 1493.25
vn -0.254637 -0.923965 0.285391
v 12.4166 -174.41 1493.36
vn 0.0892906 -0.965138 0.246042
v 12.6259 -174.506 1493.12
vn -0.242027 -0.953461 0.179818
v 12.4306 -174.637 1492.36
vn -0.779339 0.622213 -0.074035
v 12.5838 -172.508 1494.62
vn -0.862257 0.455622 0.221181
v 12.4988 -172.663 1494.89
vn -0.796972 0.150334 0.585009
v 12.5024 -172.836 1495.03
vn -0.716266 0.64283 0.271538
v 12.7019 -172.42 1494.9
vn -0.645653 0.425988 0.633772
v 12.5998 -172.614 1495.03
vn -0.534168 0.000504524 0.845378
v 12.5985 -172.883 1495.12
vn -0.545038 0.838411 0.00129226
v 12.7076 -172.377 1494.69
vn 0.0220104 0.62794 0.77795
v 12.7024 -172.551 1495.06
vn -0.142506 0.209658 0.967334
v 12.701 -172.785 1495.16
vn -0.0415455 0.991506 0.12325
v 12.9147 -172.297 1494.62
vn 0.196879 0.793481 0.575871
v 12.9102 -172.439 1494.94
vn 0.277294 0.489317 0.826847
v 12.9085 -172.565 1495.06
vn -0.904793 0.419647 -0.0724323
v 12.4021 -172.868 1494.43
vn -0.945879 0.130522 0.297113
v 12.3962 -172.947 1494.86
vn -0.505479 -0.711659 0.487886
v 12.3042 -174.067 1494.04
vn -0.604977 -0.536403 0.588451
v 12.3006 -173.855 1494.31
vn -0.0454741 -0.853162 0.51966
v 12.5093 -174.1 1494.11
vn -0.14918 -0.735871 0.660484
v 12.5058 -173.899 1494.36
vn 0.205211 -0.79407 0.572137
v 12.6111 -174.027 1494.19
vn 0.418148 -0.770038 0.481864
v 12.9231 -174.032 1493.99
vn 0.382917 -0.717535 0.581823
v 12.915 -173.639 1494.57
vn -0.390384 -0.837503 0.382347
v 12.3072 -174.187 1493.83
vn 0.0398759 -0.917994 0.394584
v 12.6186 -174.327 1493.65
vn 0.297853 -0.892484 0.338757
v 12.8277 -174.369 1493.43
vn 0.319695 -0.835065 0.447729
v 12.8235 -174.224 1493.74
vn -0.184237 -0.166035 0.968756
v 12.701 -172.9 1495.16
vn 0.154336 -0.059676 0.986215
v 12.804 -172.902 1495.16
vn -0.694359 -0.265775 0.668752
v 12.4974 -173.158 1494.98
vn -0.287492 -0.371027 0.882999
v 12.5991 -173.089 1495.07
vn -0.246927 -0.584067 0.773236
v 12.6005 -173.268 1494.97
vn 0.0588567 -0.344867 0.936805
v 12.8043 -173.005 1495.14
vn 0.133938 -0.535813 0.833645
v 12.8056 -173.188 1495.04
vn 0.154521 -0.689466 0.707644
v 12.8083 -173.43 1494.84
vn -0.82974 0.404593 -0.384493
v 13.375 -177.844 1468.88
vn -0.62567 0.622031 -0.47076
v 13.7035 -177.661 1468.53
vn -0.786232 0.379216 -0.487888
v 13.5214 -177.983 1468.48
vn -0.859808 0.132056 -0.493245
v 13.4273 -178.579 1468.28
vn -0.874025 -0.189579 -0.44737
v 13.4386 -178.809 1468.28
vn -0.826202 -0.0098391 -0.563288
v 13.5297 -178.715 1468.1
vn -0.811751 -0.348189 -0.468855
v 13.6143 -179.084 1468.14
vn -0.57634 0.568099 -0.587449
v 13.6473 -174.704 1471.57
vn -0.505636 0.722757 -0.47112
v 13.9524 -174.166 1471.86
vn -0.590562 0.444392 -0.673611
v 13.6501 -174.954 1471.37
vn -0.673886 0.402372 -0.619657
v 13.3438 -175.889 1471.15
vn -0.557252 0.526806 -0.64183
v 13.9691 -175.964 1470.63
vn -0.628086 0.544833 -0.555576
v 13.3491 -176.384 1470.76
vn -0.549809 0.665258 -0.505115
v 13.6676 -176.694 1470.08
vn -0.79644 -0.533243 -0.285192
v 13.4778 -179.475 1468.87
vn -0.748136 -0.525656 -0.404942
v 13.6558 -179.504 1468.5
vn -0.693077 -0.656141 -0.298535
v 13.7366 -179.785 1468.82
vn -0.631292 0.775541 0.00261809
v 13.5248 -174.225 1472.98
vn -0.557599 0.821577 -0.118721
v 13.6355 -174.178 1472.42
vn -0.600696 0.710231 -0.367063
v 13.5713 -174.304 1472.13
vn -0.701675 -0.67766 -0.220068
v 13.673 -180.027 1469.63
vn -0.637406 -0.756237 -0.147711
v 13.7723 -180.189 1469.89
vn -0.588619 -0.778038 -0.21951
v 14.0872 -180.337 1469.47
vn -0.671494 0.734239 0.0999417
v 13.6067 -174.185 1473.46
vn -0.744074 -0.663214 0.0806251
v 13.3685 -179.862 1470.98
vn -0.722949 -0.681464 -0.113805
v 13.4367 -179.943 1470.25
vn -0.737577 -0.675227 0.00698899
v 13.3784 -179.902 1470.61
vn -0.628266 -0.777623 -0.0241752
v 13.6613 -180.172 1470.47
vn -0.585097 -0.80285 0.114426
v 13.7597 -180.224 1470.79
vn -0.522605 -0.846929 -0.097953
v 13.9763 -180.366 1470.03
vn -0.477088 -0.877659 0.0458484
v 13.9699 -180.381 1470.49
vn -0.856552 0.498173 0.134694
v 13.4049 -174.588 1474.18
vn -0.610342 0.790788 0.0462305
v 14.0101 -174.15 1475.11
vn -0.53569 -0.81839 0.208023
v 13.6297 -179.727 1472.74
vn -0.875279 0.482177 0.0373181
v 13.4201 -174.817 1475.8
vn -0.708258 0.705946 0.00334239
v 13.7549 -174.363 1476.27
vn -0.557153 -0.800869 0.219522
v 13.6103 -179.291 1474.14
vn -0.854288 0.499837 -0.142672
v 13.3455 -174.976 1477.23
vn -0.895355 0.445287 -0.00769808
v 13.4079 -174.922 1476.68
vn -0.623128 0.723437 -0.297237
v 13.9639 -174.01 1478.43
vn -0.671583 0.700555 -0.241245
v 13.3512 -174.765 1478.03
vn -0.75521 0.649115 -0.0911421
v 13.6633 -174.512 1477.82
vn -0.911368 -0.378907 0.160744
v 13.3568 -178.458 1475.89
vn -0.718919 -0.65707 0.226746
v 13.589 -178.928 1475.68
vn -0.595975 -0.784731 0.170329
v 13.7999 -179.19 1475.51
vn -0.601447 -0.751592 0.27087
v 13.8932 -179.104 1476.02
vn -0.65428 0.676082 -0.338867
v 13.3826 -174.535 1478.62
vn -0.730684 -0.649652 0.209888
v 13.6919 -178.742 1476.44
vn -0.560969 -0.793048 0.237462
v 13.9898 -178.992 1476.48
vn -0.42028 0.875438 -0.23869
v 13.3159 -173.401 1480.59
vn -0.183751 0.960925 -0.207023
v 13.7249 -173.214 1480.81
vn -0.460115 0.819886 -0.340707
v 13.4266 -173.53 1480.04
vn -0.760983 -0.643128 0.0853931
v 13.3907 -178.034 1478.43
vn -0.605236 -0.775648 0.179053
v 13.859 -178.712 1477.5
vn -0.317026 0.9455 0.0743241
v 13.5057 -173.169 1481.76
vn -0.215286 0.97053 -0.108275
v 13.7177 -173.117 1481.33
vn -0.107314 0.994134 0.0134428
v 13.8173 -173.086 1481.58
vn -0.405109 0.906632 -0.117918
v 13.3069 -173.27 1481.24
vn -0.536348 -0.825571 0.175395
v 13.7551 -178.327 1478.55
vn -0.133808 0.974321 0.181089
v 13.8112 -173.137 1482.02
vn -0.549757 -0.831231 0.0826023
v 13.2094 -177.623 1480.77
vn -0.402945 -0.892493 0.20271
v 13.2894 -177.436 1482.42
vn -0.0108197 0.980301 -0.197214
v 13.5538 -172.958 1485.7
vn -0.169059 -0.931943 0.320782
v 13.7932 -177.384 1483.22
vn -0.258052 0.965068 -0.0453012
v 13.3342 -172.855 1486.68
vn 0.0242638 0.994705 -0.0998654
v 13.5451 -172.86 1486.33
vn -0.205054 0.964739 -0.165022
v 13.2416 -172.951 1485.93
vn 0.0590293 -0.91742 0.393517
v 13.8691 -176.546 1485.19
vn -0.294428 0.955443 0.0209931
v 13.2054 -172.86 1488.53
vn -0.0949111 -0.931602 0.350869
v 13.238 -176.147 1486.13
vn 0.0534745 -0.932076 0.358295
v 13.3254 -175.772 1487.26
vn -0.317952 0.942767 -0.10048
v 13.3672 -172.781 1491.71
vn 0.177536 -0.965051 0.192764
v 13.7843 -174.677 1491.31
vn 0.0777734 -0.987193 0.139291
v 13.0588 -174.727 1491.62
vn -0.495259 0.845787 -0.198401
v 13.0303 -172.497 1493.71
vn -0.0170033 0.991629 -0.127998
v 13.5478 -172.404 1493.54
vn 0.493349 0.850373 0.182953
v 13.5446 -172.399 1493.76
vn 0.46423 -0.790076 0.400338
v 13.763 -174.172 1492.85
vn 0.483581 0.788696 0.379615
v 13.0164 -172.349 1494.71
vn 0.637097 0.514216 0.574186
v 13.0129 -172.538 1494.96
vn 0.478895 0.209667 0.852467
v 13.0111 -172.743 1495.09
vn 0.788113 0.1775 0.589382
v 13.149 -172.789 1494.95
vn 0.779284 0.466554 0.418383
v 13.3434 -172.505 1494.4
vn 0.519302 -0.232764 0.822281
v 13.0111 -172.975 1495.08
vn 0.524677 -0.52558 0.669686
v 13.1169 -173.215 1494.87
vn 0.768985 -0.161731 0.61847
v 13.5686 -173.196 1494.39
vn 0.856709 0.0866931 0.508462
v 13.7231 -173.193 1494.17
vn 0.741271 -0.357 0.56839
v 13.6665 -173.331 1494.21
vn 0.542895 -0.662924 0.515555
v 13.6431 -173.492 1494.07
vn -0.698903 0.41935 -0.579379
v 14.6392 -178.179 1466.86
vn -0.683962 0.0172171 -0.729314
v 14.9563 -178.567 1466.27
vn -0.533028 -0.477164 -0.69871
v 14.9531 -179.179 1466.49
vn -0.754676 -0.314346 -0.575892
v 14.2473 -179.162 1467.18
vn -0.570628 -0.614295 -0.545
v 14.4286 -179.426 1467.16
vn -0.564371 0.57845 -0.588966
v 14.9025 -175.381 1470.19
vn -0.538637 -0.720563 -0.436646
v 14.419 -179.908 1467.84
vn -0.534186 -0.781656 -0.321961
v 14.5107 -180.372 1468.65
vn -0.362769 -0.835558 -0.412603
v 14.8232 -180.426 1468.39
vn -0.471755 0.881386 0.0246038
v 14.2425 -173.759 1473.23
vn -0.463376 0.870549 -0.165614
v 14.3567 -173.743 1472.43
vn -0.450231 -0.862704 -0.23029
v 14.7104 -180.64 1469.09
vn -0.408477 0.911029 0.0563224
v 14.7313 -173.72 1475.11
vn -0.494712 0.868925 0.0151137
v 14.3013 -173.911 1476.4
vn -0.598812 0.799267 -0.0509539
v 14.0791 -174.139 1477.56
vn -0.312759 0.940702 -0.131385
v 14.6913 -173.784 1477.98
vn -0.174364 0.954108 -0.243463
v 14.1545 -173.425 1479.55
vn -0.483155 -0.850578 0.207552
v 14.8208 -179.682 1475.97
vn 0.00312896 0.993164 -0.116688
v 14.1329 -173.118 1481.1
vn 0.0649434 0.99419 0.0858354
v 14.2261 -173.091 1481.81
vn 0.174168 0.984703 0.00509232
v 14.4338 -173.112 1481.69
vn -0.329994 -0.927439 0.175956
v 14.1489 -178.308 1479.86
vn 0.0528528 0.988901 0.138857
v 14.6175 -173.39 1483.29
vn -0.240918 -0.929499 0.279266
v 14.7493 -178.266 1481.13
vn 0.0751398 0.994886 -0.0675012
v 14.5064 -173.391 1483.87
vn -0.153803 -0.926968 0.342163
v 14.4251 -177.791 1482.23
vn 0.258158 0.955364 -0.143645
v 14.0678 -173.021 1485.78
vn 0.215417 0.968763 -0.122855
v 14.1567 -172.887 1486.79
vn 0.393014 0.911059 -0.124546
v 14.5592 -172.919 1487.48
vn 0.130297 -0.911091 0.39107
v 14.5819 -176.27 1485.79
vn 0.0638912 0.996663 -0.0507961
v 14.1365 -172.766 1488.24
vn 0.258823 0.963515 -0.0681813
v 14.4491 -172.824 1487.99
vn 0.423592 -0.802907 0.419417
v 14.3597 -175.7 1486.96
vn 0.380297 -0.808219 0.449617
v 14.6807 -176.081 1486.1
vn -0.130348 0.991237 -0.0213957
v 13.9124 -172.719 1489.54
vn 0.390644 0.920336 -0.0194684
v 14.5298 -172.789 1489.59
vn 0.211899 0.976663 -0.0350552
v 14.3212 -172.721 1489.78
vn 0.280274 -0.925668 0.254135
v 14.0238 -175.101 1488.9
vn 0.477672 0.878339 -0.0186975
v 14.5064 -172.731 1491.27
vn 0.658735 0.752053 0.0219944
v 14.7103 -172.872 1491.1
vn -0.0500871 0.995652 -0.0785429
v 14.0871 -172.635 1491.79
vn 0.27147 0.962008 -0.029047
v 14.2898 -172.627 1492.03
vn 0.603401 0.795238 0.0591848
v 14.5001 -172.733 1491.72
vn 0.682628 -0.669164 0.293663
v 14.674 -174.078 1491.63
vn 0.406037 -0.890387 0.205779
v 14.3107 -174.702 1490.49
vn 0.558977 0.82172 0.111
v 14.1784 -172.584 1492.63
vn 0.829445 0.457826 0.320027
v 14.2268 -172.712 1492.8
vn 0.93001 0.110181 0.350629
v 14.4913 -173.495 1492.74
vn 0.535917 -0.781039 0.320578
v 14.39 -174.082 1492.21
vn 0.576991 -0.705089 0.412227
v 14.3844 -173.89 1492.61
vn 0.809054 -0.407497 0.42353
v 14.5093 -173.769 1492.6
vn 0.724616 -0.606814 0.326663
v 14.6261 -173.901 1492.19
vn 0.372164 -0.885833 0.277117
v 13.8833 -174.567 1491.6
vn 0.65776 -0.565663 0.49737
v 14.0427 -173.552 1493.52
vn 0.881388 0.244565 0.404157
v 14.3243 -173.315 1493.07
vn 0.873523 -0.123364 0.470891
v 14.3788 -173.523 1493.02
vn -0.754193 0.500549 -0.425021
v 15.7025 -177.131 1466.86
vn -0.583595 0.416551 -0.697067
v 15.2534 -178.272 1466.15
vn -0.59701 0.623554 -0.504737
v 15.3637 -177.703 1466.62
vn -0.645637 0.45826 -0.61086
v 15.7843 -177.843 1466
vn -0.43813 -0.0507071 -0.89748
v 15.2684 -178.569 1466.05
vn -0.100791 -0.409641 -0.906662
v 15.5779 -178.78 1466.01
vn -0.722249 0.600141 -0.343783
v 15.598 -176.456 1468.02
vn -0.33718 -0.720944 -0.605434
v 15.0542 -179.375 1466.62
vn -0.34512 -0.445033 -0.82634
v 15.266 -179.048 1466.21
vn -0.197419 -0.692384 -0.693996
v 15.264 -179.22 1466.35
vn 0.0498171 -0.629755 -0.775194
v 15.5752 -179.081 1466.2
vn 0.0622825 -0.748586 -0.660106
v 15.572 -179.31 1466.43
vn -0.591287 0.646217 -0.482476
v 15.4762 -176.188 1468.62
vn -0.618015 0.632913 -0.466346
v 15.0299 -176.893 1468.41
vn -0.26637 -0.798264 -0.540205
v 15.1503 -179.775 1467.11
vn -0.0853131 -0.797743 -0.596932
v 15.3613 -179.567 1466.76
vn 0.159114 -0.792212 -0.589137
v 15.6714 -179.497 1466.68
vn -0.536752 0.681003 -0.498128
v 15.047 -173.786 1471.37
vn -0.503858 0.717712 -0.480643
v 15.7174 -173.529 1470.88
vn -0.529171 0.514375 -0.67483
v 14.9959 -174.352 1470.89
vn -0.449237 0.85559 -0.257198
v 15.4996 -173.323 1471.73
vn -0.183575 -0.844352 -0.503358
v 15.343 -180.425 1468.05
vn -0.126181 -0.901919 -0.413063
v 15.4411 -180.64 1468.4
vn 0.10853 -0.847475 -0.519623
v 15.6521 -180.444 1468.05
vn 0.14514 -0.909842 -0.388744
v 15.6444 -180.718 1468.6
vn -0.362613 -0.915507 -0.174236
v 15.1177 -180.894 1469.43
vn -0.293452 -0.905903 -0.305328
v 15.1249 -180.766 1468.92
vn -0.122673 -0.952817 -0.277653
v 15.5318 -180.962 1469.28
vn -0.404379 -0.91401 -0.032613
v 15.0083 -180.898 1469.89
vn -0.237982 -0.965281 -0.107688
v 15.3141 -180.994 1469.61
vn -0.248962 -0.967283 0.0488029
v 15.3131 -180.998 1470.19
vn -0.370216 -0.914523 0.163059
v 15.081 -180.736 1472.06
vn -0.360431 -0.894256 0.26532
v 14.9629 -180.396 1473.16
vn 0.0556955 0.99224 0.111162
v 15.622 -173.634 1477.72
vn -0.401957 -0.879571 0.254531
v 14.9517 -180.118 1473.96
vn -0.27059 -0.934127 0.232783
v 15.5688 -180.317 1474.03
vn 0.08008 0.989649 -0.119091
v 15.4063 -173.628 1478.42
vn -0.385156 -0.91048 0.1506
v 15.3519 -180.094 1474.82
vn 0.0773822 0.986891 -0.141628
v 15.0724 -173.291 1480.21
vn 0.31812 0.947204 -0.0400518
v 15.5867 -173.4 1480.26
vn -0.335482 -0.893058 0.299832
v 14.9891 -178.857 1478.7
vn 0.270874 0.956385 0.109337
v 14.8387 -173.255 1482.2
vn 0.377792 0.922337 0.0810394
v 15.1361 -173.462 1483.03
vn -0.173309 -0.951727 0.253337
v 15.2693 -178.492 1480.77
vn -0.0542639 -0.910334 0.410301
v 15.1547 -178.16 1481.61
vn 0.056133 -0.899475 0.433353
v 14.8342 -177.724 1482.44
vn 0.500753 0.863183 -0.0645078
v 14.9937 -173.402 1485.85
vn 0.244377 -0.875679 0.416493
v 15.0122 -176.723 1484.47
vn 0.452266 -0.760344 0.46619
v 15.4385 -176.644 1484.28
vn 0.815265 0.578991 0.0106228
v 15.4559 -173.771 1486.35
vn 0.757156 -0.529921 0.381966
v 15.499 -175.109 1486.47
vn 0.621341 -0.62459 0.473099
v 15.5091 -175.686 1485.79
vn 0.559831 0.826874 -0.0535604
v 14.8592 -173.016 1488.13
vn 0.793856 0.608105 0.000437657
v 15.1338 -173.29 1488.1
vn 0.862203 0.505273 0.0361195
v 15.3809 -173.625 1487.63
vn 0.949395 0.307036 0.0661648
v 15.5065 -173.883 1487.69
vn 0.989664 0.0132083 0.142796
v 15.5406 -174.16 1487.77
vn 0.795307 -0.550853 0.253079
v 15.4382 -174.706 1487.26
vn 0.935793 -0.292753 0.196436
v 15.5624 -174.52 1487.12
vn 0.947841 0.305791 0.0899465
v 15.371 -173.729 1488.34
vn 0.977503 -0.174798 0.118042
v 15.409 -174.218 1488.55
vn 0.585113 -0.762464 0.27621
v 15.0442 -174.987 1487.57
vn 0.8561 0.515193 0.0408648
v 15.0937 -173.316 1489.95
vn 0.949427 0.295997 0.104756
v 15.2929 -173.729 1489.85
vn 0.611167 -0.772248 0.173516
v 15.1463 -174.417 1489.61
vn 0.877177 -0.45546 0.152041
v 15.298 -174.234 1489.7
vn 0.994968 0.0094134 0.0997551
v 15.362 -173.956 1489.62
vn 0.513422 -0.839375 0.178458
v 14.9494 -174.658 1489.02
vn 0.772831 -0.615362 0.155121
v 15.2599 -174.425 1488.91
vn 0.901735 0.416723 0.11496
v 14.9853 -173.238 1490.91
vn 0.976318 0.124134 0.177184
v 15.084 -173.56 1490.86
vn 0.957162 -0.130293 0.258583
v 15.0737 -173.699 1490.91
vn 0.5562 -0.788388 0.262842
v 14.8252 -174.401 1490.54
vn 0.760011 -0.59018 0.27216
v 15.158 -174.241 1490.16
vn 0.958987 -0.151712 0.239432
v 15.2887 -174.055 1490.03
vn 0.84529 0.495091 0.20092
v 14.7072 -172.944 1491.64
vn 0.967173 0.0502024 0.24911
v 15.021 -173.519 1491.23
vn 0.867786 -0.403787 0.289662
v 14.8126 -173.988 1491.45
vn 0.911054 -0.254764 0.324155
v 14.7104 -173.762 1492.14
vn -0.424295 0.779052 -0.461576
v 16.6035 -176.18 1466.38
vn -0.529532 0.548526 -0.647082
v 16.5046 -176.49 1466.08
vn -0.604593 0.329459 -0.725206
v 16.2002 -177.585 1465.73
vn -0.297671 0.0877455 -0.950627
v 16.5113 -177.506 1465.58
vn -0.368212 0.343263 -0.864055
v 16.6136 -177.185 1465.64
vn -0.787233 0.489227 -0.375394
v 15.9912 -176.531 1466.83
vn -0.661049 0.688127 -0.299158
v 16.1373 -176.257 1466.97
vn -0.71578 0.483136 -0.504221
v 16.2372 -176.525 1466.37
vn -0.615939 0.671623 -0.411755
v 16.4018 -176.25 1466.52
vn -0.473279 0.820416 -0.320819
v 16.4959 -176.091 1466.72
vn -0.760992 0.41069 -0.50222
v 15.9477 -177.442 1466.12
vn -0.481839 0.174016 -0.858807
v 15.9933 -177.962 1465.78
vn -0.167234 -0.215582 -0.962059
v 15.8897 -178.33 1465.82
vn 0.186488 -0.543305 -0.818561
v 15.9897 -178.74 1466.03
vn -0.583969 0.720934 -0.373141
v 16.4715 -175.523 1468.47
vn 0.290894 -0.698929 -0.65336
v 15.8806 -179.258 1466.46
vn -0.476298 0.482449 -0.735108
v 15.9279 -173.708 1470.56
vn -0.504385 0.599635 -0.621316
v 16.3407 -173.446 1470.51
vn -0.505758 0.419664 -0.753719
v 16.4461 -173.588 1470.33
vn -0.519182 0.518716 -0.679253
v 16.142 -174.557 1469.96
vn -0.564619 0.423697 -0.708298
v 16.4483 -173.965 1470.17
vn -0.577574 0.617713 -0.533702
v 16.4602 -174.914 1469.3
vn 0.43431 -0.749236 -0.500021
v 15.9775 -179.547 1466.89
vn -0.462632 0.794327 -0.393722
v 16.2329 -173.278 1470.85
vn -0.384551 0.896992 -0.218006
v 16.4286 -172.935 1471.6
vn -0.345284 0.937284 -0.047717
v 16.3192 -172.936 1472.06
vn 0.405751 -0.792578 -0.455177
v 16.2637 -180.449 1468.52
vn -0.260859 0.963546 0.0594275
v 16.3045 -172.942 1473.12
vn 0.272278 -0.896649 -0.34912
v 16.2495 -180.972 1469.52
vn 0.0478097 0.985994 0.159782
v 16.4919 -173.037 1474.45
vn 0.0290715 -0.984677 -0.171945
v 15.9381 -181.081 1469.69
vn 0.0172084 -0.99985 0.00187646
v 16.2376 -181.113 1470.38
vn -0.210125 0.97286 0.096909
v 15.8491 -173.416 1476.21
vn -0.144418 -0.983589 0.108147
v 16.2141 -180.999 1472.06
vn 0.0501981 -0.99209 0.115059
v 16.5199 -180.996 1472.3
vn 0.350684 0.901825 0.252452
v 16.4583 -173.555 1476.85
vn -0.142243 -0.965579 0.21777
v 16.3102 -180.939 1472.55
vn 0.0889374 0.973252 0.211825
v 16.0401 -173.576 1477.29
vn 0.313467 0.921846 0.227902
v 16.0315 -173.744 1477.9
vn 0.380125 0.924822 -0.0144439
v 16.0255 -173.792 1478.34
vn 0.481563 0.875543 -0.0390113
v 16.2132 -173.736 1479.65
vn 0.499829 0.862053 0.083881
v 15.7868 -173.516 1480.69
vn -0.380363 -0.889676 0.252589
v 16.0457 -180.171 1476.77
vn -0.148374 -0.969034 0.197378
v 16.3724 -180.267 1476.73
vn 0.650913 0.740182 0.168648
v 16.2968 -173.969 1481.04
vn -0.152954 -0.92974 0.334945
v 16.2143 -178.907 1479.48
vn 0.683131 0.725129 0.0867226
v 15.7569 -173.87 1482.82
vn 0.0196466 -0.931666 0.362784
v 15.6796 -178.483 1480.9
vn 0.17388 -0.897388 0.405538
v 16.2985 -178.448 1480.83
vn 0.912952 0.298177 0.278583
v 16.4441 -174.927 1483.44
vn 0.168058 -0.860452 0.481019
v 16.2923 -178.219 1481.29
vn 0.897959 0.422245 0.124016
v 15.8066 -174.212 1484.97
vn 0.877163 -0.250319 0.409786
v 16.3363 -175.855 1483.89
vn 0.947225 0.0146329 0.320235
v 16.4509 -175.439 1483.76
vn 0.661869 -0.573487 0.482744
v 16.1161 -176.543 1483.65
vn 0.298513 -0.803586 0.514917
v 15.857 -177.238 1482.97
vn 0.500191 -0.672513 0.545468
v 15.9567 -177.016 1483.22
vn 0.962952 0.145045 0.227346
v 15.9531 -174.91 1485.42
vn 0.947456 -0.108407 0.300957
v 16.1574 -175.36 1484.72
vn 0.950625 0.301357 0.0741402
v 15.6403 -174.14 1486.39
vn 0.990152 0.0486494 0.131274
v 15.6644 -174.374 1486.62
vn 0.977577 0.14381 0.153823
v 15.741 -174.506 1486.21
vn 0.953896 -0.123689 0.273464
v 15.7074 -174.704 1486.36
vn 0.845302 -0.367289 0.388025
v 15.8616 -175.418 1485.5
vn -0.321435 0.633532 -0.703787
v 17.0213 -176.308 1465.96
vn -0.405737 0.729504 -0.550637
v 17.3271 -175.965 1466.2
vn -0.319577 0.477785 -0.818286
v 16.8169 -176.595 1465.84
vn -0.195019 0.363464 -0.910967
v 17.1288 -176.831 1465.63
vn -0.141549 0.446824 -0.883353
v 17.4368 -176.522 1465.71
vn 0.0422927 0.227873 -0.972772
v 17.4383 -176.812 1465.6
vn 0.103027 -0.29642 -0.949484
v 16.8207 -177.603 1465.55
vn -0.0718934 0.143623 -0.987018
v 17.1301 -177.13 1465.54
vn 0.252153 -0.103957 -0.962087
v 17.4387 -177.145 1465.57
vn 0.39648 -0.37501 -0.837956
v 17.4372 -177.471 1465.67
vn -0.458479 0.818998 -0.345019
v 17.1109 -175.767 1466.94
vn 0.397997 -0.565999 -0.721971
v 17.4702 -177.761 1465.86
vn 0.450832 -0.67434 -0.584821
v 17.4291 -178.163 1466.24
vn -0.603222 0.448188 -0.659736
v 16.6532 -173.43 1470.26
vn -0.5327 0.716491 -0.450412
v 16.8581 -173.127 1470.35
vn -0.61406 0.524757 -0.589543
v 16.7649 -174.26 1469.62
vn -0.167417 0.985522 -0.0268078
v 16.8381 -172.804 1471.79
vn 0.0902189 0.994572 0.0518312
v 17.2499 -172.781 1471.81
vn 0.0145062 0.995394 0.0947663
v 16.9299 -172.836 1472.59
vn 0.403514 0.883464 0.238048
v 17.1108 -173.175 1474.38
vn 0.362469 -0.9181 -0.160338
v 16.7565 -180.989 1470.1
vn 0.427049 -0.830949 -0.356586
v 16.8634 -180.854 1469.82
vn 0.563453 -0.746354 -0.354227
v 17.1713 -180.695 1469.91
vn 0.579935 -0.797572 -0.165995
v 17.3721 -180.647 1470.28
vn 0.653205 0.718518 0.238863
v 17.3031 -173.467 1474.82
vn 0.273931 -0.961749 0.00100009
v 16.7424 -181.056 1471.11
vn 0.31723 -0.944377 0.0867039
v 17.238 -180.823 1472.51
vn -0.143098 -0.974571 0.172436
v 16.8049 -180.603 1474.03
vn 0.152799 -0.972849 0.17383
v 17.3202 -180.622 1474.01
vn 0.112763 -0.983121 0.144076
v 17.2082 -180.497 1474.65
vn 0.586073 0.808336 0.0557771
v 16.7856 -174.089 1479.59
vn -0.0626974 -0.91874 0.389853
v 16.6558 -180.117 1477.34
vn 0.177964 -0.905709 0.384734
v 17.0682 -180.101 1477.32
vn 0.0305544 -0.980959 0.191798
v 16.7673 -180.283 1476.73
vn 0.193658 -0.954352 0.227395
v 17.282 -180.244 1476.76
vn 0.722642 0.655983 0.217889
v 16.9065 -174.522 1480.88
vn 0.78531 0.581678 0.211988
v 16.5381 -174.538 1482.02
vn 0.176565 -0.884657 0.431516
v 16.9393 -178.988 1479.2
vn 0.316315 -0.855084 0.410824
v 17.0264 -178.467 1480.34
vn 0.883363 -0.0334149 0.467497
v 16.7366 -175.798 1483.11
vn 0.631194 -0.488127 0.602765
v 16.5791 -176.738 1482.91
vn 0.763401 -0.307934 0.567799
v 16.6811 -176.43 1482.99
vn 0.521883 -0.626857 0.578523
v 16.7941 -177.325 1482.26
vn 0.697861 -0.40173 0.592962
v 17.1411 -177.028 1482.13
vn 0.347854 -0.782755 0.516035
v 16.5952 -177.865 1481.73
vn -0.45762 0.726367 -0.51281
v 18.141 -174.841 1466.95
vn -0.56666 0.685245 -0.457531
v 17.8358 -175.277 1466.67
vn -0.0948859 0.597794 -0.796015
v 18.0476 -175.523 1466.25
vn -0.290896 0.694518 -0.658045
v 18.1471 -175.193 1466.52
vn -0.147408 0.565749 -0.811295
v 17.7422 -175.965 1465.98
vn 0.234727 0.414698 -0.879164
v 18.1521 -175.698 1466.15
vn 0.545781 0.132598 -0.82737
v 18.1546 -176.293 1465.95
vn 0.177994 0.313769 -0.932667
v 17.7459 -176.519 1465.71
vn 0.405225 0.0397313 -0.913353
v 17.7465 -176.84 1465.66
vn 0.537824 -0.206143 -0.817466
v 17.8485 -176.993 1465.73
vn 0.703774 -0.261046 -0.660725
v 18.0896 -176.979 1465.93
vn 0.673316 -0.0763211 -0.735405
v 18.1547 -176.738 1465.94
vn 0.584505 -0.408101 -0.70129
v 17.8457 -177.436 1465.92
vn 0.561991 -0.556926 -0.611556
v 17.8418 -177.804 1466.2
vn 0.690982 -0.432198 -0.579439
v 18.1851 -177.538 1466.34
vn -0.0460943 0.99153 -0.121422
v 17.6883 -172.865 1469.91
vn -0.547284 0.669484 -0.502267
v 17.4852 -173.018 1469.7
vn -0.312493 0.878878 -0.360446
v 17.5873 -172.922 1469.77
vn -0.578217 0.376723 -0.723702
v 17.6957 -173.197 1469.37
vn -0.378724 0.649048 -0.659776
v 17.7988 -173.079 1469.37
vn -0.0420875 0.924888 -0.377903
v 18.1075 -172.976 1469.4
vn -0.15583 0.702375 -0.69454
v 18.2133 -173.1 1469.19
vn -0.594597 0.597863 -0.5376
v 17.4925 -173.867 1469.16
vn -0.420706 0.730533 -0.537892
v 17.846 -173.842 1468.83
vn -0.558331 0.420144 -0.715364
v 17.8016 -173.55 1469.16
vn -0.444083 0.493898 -0.747566
v 18.0777 -173.476 1469.02
vn 0.587263 -0.634084 -0.50305
v 18.0414 -178.047 1466.65
vn 0.542772 -0.741787 -0.393892
v 18.0329 -178.454 1467.25
vn 0.258588 0.959457 0.112136
v 17.7655 -172.882 1471.76
vn 0.224287 0.974168 0.0262845
v 17.7733 -172.838 1471.2
vn 0.254546 0.953389 0.162038
v 17.5502 -172.923 1472.42
vn 0.418813 0.879964 0.224186
v 17.6431 -173.107 1473.15
vn 0.666675 -0.69513 -0.268958
v 17.6836 -180.327 1470.11
vn 0.743756 -0.643368 -0.181398
v 18.228 -180.046 1470.96
vn 0.654156 -0.744875 -0.131307
v 18.068 -180.33 1471.5
vn 0.506962 -0.861127 0.0380748
v 17.7546 -180.603 1472.4
vn 0.629362 -0.776473 -0.0315295
v 18.0701 -180.375 1471.94
vn 0.416652 -0.908961 0.0138389
v 17.4517 -180.776 1471.96
vn 0.519864 -0.851732 -0.0655228
v 17.6604 -180.655 1471.68
vn 0.811407 0.575441 0.1024
v 18.1911 -174.778 1476.24
vn 0.544713 0.804507 0.23676
v 17.5867 -174.225 1477.18
vn 0.787005 0.601911 0.135371
v 18.1641 -174.838 1477.25
vn 0.427542 -0.898361 0.100778
v 17.8363 -180.431 1473.93
vn 0.569683 0.809635 0.141254
v 17.6742 -174.632 1478.28
vn 0.739307 0.655789 0.152862
v 17.9778 -174.899 1478.26
vn 0.263255 -0.954381 0.140903
v 17.6211 -180.426 1474.59
vn 0.533891 0.845011 0.0302831
v 17.4628 -174.534 1478.67
vn 0.70655 0.689773 0.158116
v 17.8501 -174.811 1478.54
vn 0.824265 0.526461 0.208389
v 18.0242 -175.089 1478.63
vn 0.51879 -0.837614 0.171054
v 18.006 -179.997 1476.55
vn 0.317199 -0.934147 0.163566
v 17.5954 -180.223 1476.44
vn 0.352457 -0.811611 0.4659
v 17.5809 -179.839 1477.49
vn 0.408002 -0.848805 0.336251
v 17.8239 -179.949 1477.03
vn 0.823644 0.502094 0.263651
v 17.8012 -175.433 1480.19
vn 0.893241 0.293221 0.340795
v 18.0892 -176.128 1480.41
vn 0.889697 0.0857856 0.44842
v 18.0393 -176.825 1480.86
vn 0.640014 -0.690467 0.337102
v 18.0613 -178.027 1480.01
vn 0.740032 -0.468207 0.482841
v 18.1248 -177.784 1480.25
vn 0.421175 -0.802434 0.422744
v 17.3485 -178.721 1479.4
vn 0.608877 -0.714519 0.344576
v 17.8799 -178.37 1479.36
vn 0.858755 0.39666 0.324346
v 17.3161 -175.688 1481.79
vn 0.488997 -0.761441 0.425548
v 17.4708 -178.292 1480.32
vn 0.801653 -0.221188 0.555364
v 17.3162 -176.75 1482.05
vn 0.0960305 0.851961 -0.514723
v 18.7512 -174.323 1467.53
vn -0.189249 0.775355 -0.602503
v 18.347 -174.728 1466.96
vn -0.217133 0.82989 -0.513941
v 18.3416 -174.466 1467.35
vn 0.468752 0.558947 -0.683996
v 18.7583 -174.751 1467.01
vn 0.223623 0.756002 -0.615186
v 18.7551 -174.522 1467.24
vn 0.0607972 0.596707 -0.800153
v 18.3533 -175.183 1466.5
vn 0.342125 0.465373 -0.81632
v 18.4568 -175.281 1466.46
vn 0.185821 0.652719 -0.734458
v 18.4535 -174.942 1466.71
vn 0.636496 0.333825 -0.695293
v 18.7627 -175.276 1466.68
vn 0.795782 0.0262153 -0.605015
v 18.7993 -175.608 1466.65
vn 0.604852 0.18761 -0.773923
v 18.4592 -175.765 1466.28
vn 0.766728 -0.0509868 -0.639945
v 18.3873 -176.522 1466.17
vn -0.234678 0.688014 -0.686704
v 18.425 -173.577 1468.77
vn 0.219437 0.798839 -0.560093
v 18.8367 -173.478 1468.8
vn -0.155182 0.850384 -0.502757
v 18.4342 -174.045 1468.11
vn 0.138527 0.820654 -0.55438
v 18.9478 -173.978 1468.21
vn 0.458843 0.705134 -0.540601
v 19.064 -174.378 1467.64
vn 0.647232 0.463668 -0.605065
v 19.0619 -174.603 1467.41
vn 0.804266 0.170128 -0.569397
v 19.0661 -175.208 1467.09
vn 0.865805 -0.0382776 -0.498915
v 19.1537 -175.662 1467.21
vn 0.846141 -0.17054 -0.504937
v 18.7523 -176.715 1466.77
vn 0.888598 -0.196983 -0.414236
v 19.0635 -176.463 1467.26
vn 0.790678 -0.187205 -0.582908
v 18.4021 -176.8 1466.26
vn 0.787997 -0.308996 -0.532524
v 18.423 -177.264 1466.48
vn 0.229782 0.894583 -0.383304
v 18.3148 -173.039 1469.3
vn 0.312403 0.94643 -0.081695
v 18.3119 -172.987 1469.51
vn 0.492666 0.84489 -0.208425
v 18.8297 -173.271 1469.31
vn 0.569213 0.822187 -0.00217763
v 19.0967 -173.395 1469.77
vn 0.840514 -0.339545 -0.422192
v 18.5984 -177.5 1466.94
vn 0.74903 -0.481978 -0.454588
v 18.3979 -177.822 1466.89
vn 0.890587 -0.315871 -0.327232
v 19.0925 -177.284 1467.88
vn 0.813641 -0.493327 -0.307598
v 18.7526 -177.927 1467.77
vn 0.69219 -0.623219 -0.363966
v 18.4285 -178.34 1467.67
vn 0.433273 0.89129 0.133704
v 18.2816 -173.046 1471.68
vn 0.662837 -0.665631 -0.342903
v 18.4372 -178.865 1468.9
vn 0.574413 0.76704 0.285829
v 18.3492 -173.536 1473.17
vn 0.779727 -0.578043 -0.240609
v 18.6924 -179.254 1470.33
vn 0.733539 -0.619475 -0.279593
v 18.3516 -179.525 1469.95
vn 0.736395 0.587155 0.336113
v 18.9377 -174.136 1473.22
vn 0.819509 -0.551058 -0.157293
v 18.9779 -179.128 1471.21
vn 0.798125 -0.592889 -0.107141
v 18.6841 -179.69 1471.84
vn 0.727596 -0.682258 -0.071614
v 18.3587 -180.106 1471.97
vn 0.773213 -0.63341 -0.0305491
v 18.6814 -179.768 1472.44
vn 0.793304 0.556049 0.247948
v 18.9905 -175.642 1475.45
vn 0.643499 -0.763967 0.0475752
v 18.3546 -180.115 1473.71
vn 0.761233 -0.647442 0.0366367
v 18.8329 -179.588 1474.33
vn 0.883332 0.439875 0.161971
v 18.652 -175.814 1477.8
vn 0.861807 0.482171 0.157476
v 18.8259 -175.935 1476.92
vn 0.912356 0.350567 0.211447
v 18.9423 -176.359 1477.29
vn 0.914667 0.335153 0.225956
v 18.6601 -176.051 1478.25
vn 0.654105 -0.740255 0.155467
v 18.607 -179.529 1476.68
vn 0.955339 0.0998014 0.278149
v 18.8599 -177.019 1478.33
vn 0.886208 -0.209992 0.412962
v 18.7437 -177.896 1478.46
vn 0.928693 -0.0805215 0.362002
v 18.8113 -177.436 1478.47
vn 0.545198 -0.706919 0.450583
v 18.3099 -179.448 1477.42
vn 0.691399 -0.650861 0.313603
v 18.7548 -179.258 1477.06
vn 0.683908 -0.567167 0.458903
v 18.722 -178.943 1477.57
vn 0.562805 -0.770848 0.2984
v 18.3255 -179.671 1476.95
vn 0.905819 0.338077 0.255335
v 18.3392 -176.209 1479.67
vn 0.956366 0.0852316 0.279464
v 18.3782 -176.721 1479.99
vn 0.728175 -0.588768 0.350875
v 18.3053 -178.045 1479.19
vn 0.719315 -0.658412 0.221538
v 18.275 -177.975 1479.45
vn 0.843768 -0.467165 0.264219
v 18.4679 -177.815 1479.19
vn 0.803953 -0.425818 0.415136
v 18.4965 -177.994 1478.87
vn 0.921146 -0.225057 0.317553
v 18.6532 -177.625 1478.83
vn 0.671312 -0.574512 0.46827
v 18.1801 -178.46 1478.87
vn 0.867016 -0.180627 0.464388
v 18.1564 -177.149 1480.59
vn 0.930645 0.0426851 0.363424
v 18.2829 -176.91 1480.35
vn 0.787537 -0.558825 0.259806
v 18.2976 -177.869 1479.74
vn 0.924617 -0.216326 0.313506
v 18.3739 -177.503 1479.93
vn 0.533261 0.687636 -0.492737
v 19.2593 -174.232 1468.03
vn 0.731563 0.467842 -0.495922
v 19.3206 -174.473 1467.83
vn 0.798838 0.485057 -0.355778
v 19.5638 -174.393 1468.35
vn 0.832008 0.213205 -0.512159
v 19.4341 -174.795 1467.78
vn 0.624442 0.705067 -0.336084
v 19.2485 -173.709 1468.82
vn 0.713617 0.687473 -0.134655
v 19.488 -173.758 1469.36
vn 0.815841 0.528433 -0.234868
v 19.5523 -173.898 1469.18
vn 0.878864 0.280783 -0.385693
v 19.7363 -174.757 1468.38
vn 0.930128 0.282411 -0.234746
v 19.8438 -174.716 1468.75
vn 0.919939 0.0274171 -0.391101
v 19.7675 -175.079 1468.33
vn 0.779461 0.626199 0.0177555
v 19.5704 -173.812 1469.91
vn 0.890816 0.443125 -0.100439
v 19.7251 -174.083 1469.54
vn 0.934957 0.354625 -0.00983875
v 19.8767 -174.367 1470.09
vn 0.667461 0.721662 0.183579
v 19.3077 -173.693 1471.25
vn 0.787335 0.596982 0.153997
v 19.4967 -173.876 1471.15
vn 0.875268 0.477439 0.0771833
v 19.7593 -174.143 1470.56
vn 0.945981 0.315558 0.0744481
v 19.9363 -174.607 1470.78
vn 0.883783 -0.394235 -0.252005
v 19.5505 -177.446 1469.54
vn 0.804965 0.524929 0.276553
v 19.5604 -174.255 1471.89
vn 0.88849 0.420609 0.183502
v 19.748 -174.387 1471.47
vn 0.902965 -0.398304 -0.161271
v 19.7179 -177.456 1470.23
vn 0.844763 -0.491978 -0.210555
v 19.2293 -178.348 1470.11
vn 0.878703 -0.460355 -0.126312
v 19.4073 -178.39 1471.13
vn 0.906214 -0.421565 -0.0325294
v 19.7283 -178.044 1472.71
vn 0.853422 -0.512708 -0.0938124
v 19.1572 -178.999 1471.86
vn 0.841943 -0.538412 -0.0352797
v 19.1437 -179.151 1472.82
vn 0.897438 0.365452 0.247085
v 19.5843 -176.8 1475.91
vn 0.984272 0.0954771 0.148637
v 19.7841 -177.535 1475.76
vn 0.976126 -0.206673 0.0668126
v 19.7908 -177.809 1475.62
vn 0.954735 -0.0054421 0.297407
v 19.5933 -177.87 1476.63
vn 0.949525 0.170739 0.263153
v 19.685 -177.403 1476.17
vn 0.979779 -0.0279679 0.198116
v 19.7242 -177.725 1476.12
vn 0.850663 -0.523564 0.0474666
v 19.4059 -178.693 1476.2
vn 0.964006 -0.204821 0.169532
v 19.645 -178.141 1476.26
vn 0.915405 -0.39069 0.0969331
v 19.5694 -178.371 1476.25
vn 0.930173 0.187507 0.315626
v 19.144 -177.145 1477.46
vn 0.919895 -0.0818269 0.383532
v 19.4243 -178.107 1477.08
vn 0.825356 -0.527005 0.202615
v 19.2858 -178.791 1476.61
vn 0.833179 -0.37734 0.404261
v 19.2334 -178.54 1477.2
vn 0.921174 -0.292012 0.257231
v 19.4996 -178.287 1476.76
vn 0.754203 -0.644744 0.124432
v 19.0869 -179.11 1476.33
vn 0.974557 0.203588 -0.0937555
v 20.0295 -175.048 1469.39
vn 0.96859 -0.0640409 -0.240273
v 20.0472 -175.505 1469.16
vn 0.996595 0.0600294 -0.0565248
v 20.1927 -175.847 1470.49
vn 0.98598 0.166533 0.0104683
v 20.185 -175.667 1470.82
vn 0.93777 -0.280951 -0.204096
v 20.1232 -176.491 1470.39
vn 0.99211 -0.0797802 -0.0967121
v 20.2001 -176.216 1470.53
vn 0.88712 0.380703 0.260926
v 19.9386 -175.413 1472.34
vn 0.9619 0.235068 0.139609
v 20.0856 -175.498 1471.83
vn 0.999169 0.024201 0.0328067
v 20.2211 -176.226 1471.22
vn 0.980785 -0.192557 -0.0313367
v 20.2053 -176.5 1471.08
vn 0.934705 -0.350054 -0.0615568
v 20.0318 -177.157 1471.67
vn -0.116435 0.902376 0.414922
v 12.7019 -172.42 1494.9
vn -0.53233 0.498607 0.684117
v 12.7024 -172.551 1495.06
f 11//11 115//115 1//1
f 111//111 2//2 1//1
f 2//2 116//116 10//10
f 15//15 10//10 116//116
f 121//121 15//15 116//116
f 3//3 4//4 5//5
f 5//5 12//12 3//3
f 123//123 122//122 4//4
f 123//123 4//4 3//3
f 115//115 5//5 118//118
f 6//6 11//11 10//10
f 6//6 10//10 8//8
f 9//9 7//7 12//12
f 9//9 6//6 7//7
f 6//6 8//8 7//7
f 10//10 15//15 8//8
f 5//5 115//115 9//9
f 9//9 115//115 11//11
f 6//6 9//9 11//11
f 12//12 5//5 9//9
f 1//1 2//2 11//11
f 2//2 10//10 11//11
f 16//16 123//123 3//3
f 22//22 16//16 12//12
f 16//16 3//3 12//12
f 13//13 17//17 12//12
f 12//12 7//7 13//13
f 7//7 8//8 13//13
f 8//8 14//14 13//13
f 13//13 14//14 18//18
f 14//14 8//8 15//15
f 18//18 17//17 13//13
f 14//14 19//19 18//18
f 15//15 19//19 14//14
f 20//20 19//19 15//15
f 15//15 121//121 126//126
f 21//21 16//16 22//22
f 21//21 123//123 16//16
f 12//12 17//17 22//22
f 18//18 19//19 25//25
f 126//126 20//20 15//15
f 24//24 26//26 22//22
f 21//21 22//22 23//23
f 22//22 26//26 23//23
f 22//22 17//17 24//24
f 17//17 18//18 24//24
f 27//27 24//24 18//18
f 19//19 20//20 25//25
f 18//18 25//25 27//27
f 20//20 29//29 25//25
f 24//24 27//27 26//26
f 27//27 28//28 26//26
f 25//25 29//29 27//27
f 28//28 29//29 30//30
f 27//27 29//29 28//28
f 29//29 132//132 30//30
f 29//29 20//20 132//132
f 21//21 23//23 39//39
f 21//21 39//39 31//31
f 130//130 21//21 31//31
f 130//130 129//129 21//21
f 26//26 32//32 23//23
f 32//32 26//26 28//28
f 30//30 34//34 28//28
f 130//130 31//31 37//37
f 34//34 33//33 28//28
f 28//28 33//33 32//32
f 33//33 34//34 41//41
f 39//39 36//36 31//31
f 37//37 31//31 36//36
f 23//23 32//32 39//39
f 32//32 33//33 40//40
f 32//32 40//40 39//39
f 41//41 34//34 35//35
f 35//35 134//134 137//137
f 135//135 37//37 136//136
f 38//38 39//39 47//47
f 39//39 38//38 36//36
f 36//36 46//46 37//37
f 37//37 46//46 136//136
f 40//40 33//33 43//43
f 41//41 43//43 33//33
f 42//42 41//41 35//35
f 42//42 35//35 137//137
f 136//136 46//46 139//139
f 39//39 40//40 47//47
f 47//47 40//40 48//48
f 40//40 43//43 48//48
f 43//43 53//53 48//48
f 49//49 53//53 43//43
f 46//46 36//36 38//38
f 38//38 47//47 46//46
f 49//49 43//43 41//41
f 49//49 41//41 42//42
f 47//47 44//44 45//45
f 46//46 47//47 45//45
f 45//45 139//139 46//46
f 47//47 48//48 44//44
f 44//44 48//48 53//53
f 140//140 49//49 42//42
f 140//140 137//137 138//138
f 137//137 140//140 42//42
f 50//50 139//139 45//45
f 50//50 45//45 44//44
f 44//44 51//51 50//50
f 53//53 51//51 44//44
f 52//52 51//51 53//53
f 53//53 49//49 52//52
f 147//147 49//49 140//140
f 52//52 49//49 147//147
f 50//50 51//51 56//56
f 51//51 55//55 56//56
f 52//52 54//54 51//51
f 51//51 54//54 55//55
f 52//52 143//143 54//54
f 52//52 147//147 143//143
f 59//59 54//54 144//144
f 54//54 143//143 144//144
f 54//54 59//59 55//55
f 57//57 56//56 55//55
f 59//59 57//57 55//55
f 56//56 57//57 58//58
f 57//57 59//59 162//162
f 163//163 58//58 57//57
f 60//60 63//63 181//181
f 63//63 60//60 61//61
f 60//60 183//183 184//184
f 184//184 61//61 60//60
f 184//184 185//185 61//61
f 185//185 66//66 61//61
f 190//190 191//191 73//73
f 76//76 75//75 191//191
f 78//78 76//76 193//193
f 191//191 193//193 76//76
f 81//81 62//62 181//181
f 62//62 81//81 78//78
f 62//62 78//78 193//193
f 181//181 63//63 81//81
f 63//63 64//64 82//82
f 82//82 64//64 83//83
f 64//64 85//85 83//83
f 63//63 61//61 64//64
f 85//85 64//64 65//65
f 65//65 64//64 61//61
f 61//61 66//66 65//65
f 67//67 70//70 69//69
f 88//88 67//67 69//69
f 67//67 68//68 70//70
f 75//75 74//74 71//71
f 71//71 74//74 69//69
f 69//69 74//74 90//90
f 70//70 73//73 71//71
f 75//75 71//71 73//73
f 69//69 70//70 71//71
f 70//70 72//72 73//73
f 74//74 89//89 90//90
f 74//74 77//77 89//89
f 77//77 91//91 89//89
f 77//77 74//74 75//75
f 79//79 77//77 75//75
f 76//76 79//79 75//75
f 79//79 76//76 78//78
f 191//191 75//75 73//73
f 79//79 80//80 77//77
f 77//77 80//80 92//92
f 79//79 78//78 81//81
f 92//92 91//91 77//77
f 81//81 63//63 80//80
f 80//80 79//79 81//81
f 63//63 82//82 80//80
f 83//83 94//94 82//82
f 84//84 94//94 83//83
f 84//84 83//83 85//85
f 85//85 86//86 84//84
f 84//84 86//86 96//96
f 195//195 86//86 85//85
f 65//65 195//195 85//85
f 88//88 212//212 87//87
f 87//87 198//198 67//67
f 212//212 88//88 97//97
f 69//69 90//90 88//88
f 88//88 87//87 67//67
f 90//90 106//106 88//88
f 91//91 98//98 89//89
f 89//89 98//98 90//90
f 92//92 80//80 93//93
f 91//91 92//92 98//98
f 80//80 82//82 93//93
f 82//82 94//94 93//93
f 84//84 96//96 94//94
f 96//96 95//95 94//94
f 96//96 205//205 95//95
f 86//86 207//207 96//96
f 96//96 207//207 205//205
f 86//86 206//206 207//207
f 88//88 106//106 97//97
f 92//92 93//93 98//98
f 94//94 95//95 103//103
f 205//205 99//99 95//95
f 215//215 212//212 97//97
f 100//100 215//215 97//97
f 90//90 98//98 106//106
f 106//106 98//98 101//101
f 106//106 101//101 114//114
f 98//98 102//102 101//101
f 102//102 98//98 93//93
f 94//94 103//103 93//93
f 95//95 99//99 103//103
f 99//99 109//109 103//103
f 100//100 97//97 106//106
f 104//104 102//102 93//93
f 101//101 102//102 108//108
f 101//101 108//108 114//114
f 93//93 103//103 104//104
f 103//103 109//109 104//104
f 112//112 218//218 105//105
f 100//100 111//111 105//105
f 106//106 111//111 100//100
f 219//219 105//105 218//218
f 106//106 114//114 113//113
f 102//102 107//107 108//108
f 102//102 104//104 107//107
f 108//108 223//223 114//114
f 108//108 107//107 223//223
f 107//107 109//109 223//223
f 104//104 109//109 107//107
f 221//221 110//110 115//115
f 222//222 110//110 221//221
f 218//218 112//112 110//110
f 106//106 116//116 111//111
f 105//105 111//111 112//112
f 113//113 116//116 106//106
f 223//223 117//117 113//113
f 114//114 223//223 113//113
f 227//227 115//115 118//118
f 112//112 1//1 115//115
f 115//115 110//110 112//112
f 227//227 221//221 115//115
f 111//111 116//116 2//2
f 111//111 1//1 112//112
f 116//116 117//117 121//121
f 116//116 113//113 117//117
f 117//117 233//233 121//121
f 233//233 124//124 121//121
f 119//119 5//5 4//4
f 118//118 119//119 120//120
f 120//120 119//119 4//4
f 120//120 122//122 238//238
f 4//4 122//122 120//120
f 230//230 118//118 120//120
f 230//230 120//120 238//238
f 118//118 5//5 119//119
f 235//235 122//122 129//129
f 235//235 238//238 122//122
f 123//123 129//129 122//122
f 129//129 123//123 21//21
f 126//126 121//121 124//124
f 126//126 124//124 241//241
f 128//128 125//125 129//129
f 127//127 126//126 241//241
f 20//20 126//126 127//127
f 127//127 242//242 132//132
f 127//127 132//132 20//20
f 131//131 129//129 130//130
f 131//131 128//128 129//129
f 131//131 130//130 245//245
f 245//245 247//247 131//131
f 128//128 131//131 247//247
f 34//34 30//30 132//132
f 34//34 132//132 35//35
f 132//132 242//242 133//133
f 135//135 130//130 37//37
f 245//245 130//130 135//135
f 135//135 249//249 245//245
f 35//35 132//132 134//134
f 134//134 133//133 250//250
f 134//134 132//132 133//133
f 134//134 250//250 137//137
f 249//249 135//135 136//136
f 250//250 251//251 137//137
f 251//251 138//138 137//137
f 136//136 139//139 252//252
f 304//304 136//136 252//252
f 255//255 139//139 50//50
f 255//255 252//252 139//139
f 252//252 255//255 256//256
f 142//142 50//50 56//56
f 142//142 255//255 50//50
f 147//147 254//254 146//146
f 141//141 255//255 142//142
f 256//256 255//255 141//141
f 256//256 141//141 157//157
f 56//56 160//160 142//142
f 145//145 143//143 147//147
f 144//144 143//143 145//145
f 144//144 145//145 169//169
f 147//147 146//146 145//145
f 170//170 145//145 146//146
f 171//171 170//170 146//146
f 161//161 149//149 160//160
f 148//148 160//160 149//149
f 148//148 149//149 151//151
f 152//152 151//151 149//149
f 161//161 150//150 149//149
f 150//150 152//152 149//149
f 152//152 150//150 153//153
f 142//142 160//160 148//148
f 141//141 148//148 154//154
f 154//154 148//148 151//151
f 158//158 699//699 155//155
f 151//151 152//152 700//700
f 156//156 700//700 152//152
f 156//156 153//153 173//173
f 156//156 152//152 153//153
f 142//142 148//148 141//141
f 157//157 141//141 154//154
f 157//157 154//154 699//699
f 157//157 699//699 158//158
f 155//155 159//159 158//158
f 159//159 155//155 156//156
f 259//259 157//157 158//158
f 261//261 159//159 156//156
f 156//156 174//174 261//261
f 259//259 158//158 260//260
f 158//158 159//159 260//260
f 159//159 261//261 260//260
f 174//174 264//264 261//261
f 161//161 160//160 56//56
f 58//58 161//161 56//56
f 161//161 58//58 175//175
f 58//58 163//163 175//175
f 175//175 163//163 177//177
f 175//175 150//150 161//161
f 153//153 150//150 175//175
f 176//176 153//153 175//175
f 177//177 165//165 180//180
f 180//180 168//168 265//265
f 168//168 269//269 265//265
f 264//264 179//179 265//265
f 179//179 180//180 265//265
f 162//162 59//59 169//169
f 57//57 162//162 163//163
f 177//177 163//163 165//165
f 162//162 165//165 163//163
f 169//169 164//164 162//162
f 164//164 165//165 162//162
f 172//172 166//166 164//164
f 180//180 165//165 166//166
f 165//165 164//164 166//166
f 166//166 167//167 168//168
f 167//167 166//166 172//172
f 166//166 168//168 180//180
f 258//258 167//167 172//172
f 167//167 269//269 168//168
f 167//167 258//258 269//269
f 59//59 144//144 169//169
f 145//145 170//170 169//169
f 170//170 164//164 169//169
f 170//170 172//172 164//164
f 171//171 172//172 170//170
f 171//171 258//258 172//172
f 173//173 153//153 176//176
f 174//174 156//156 173//173
f 174//174 173//173 178//178
f 173//173 176//176 178//178
f 178//178 264//264 174//174
f 176//176 175//175 177//177
f 176//176 177//177 179//179
f 179//179 177//177 180//180
f 178//178 176//176 179//179
f 179//179 264//264 178//178
f 271//271 186//186 270//270
f 187//187 186//186 273//273
f 271//271 273//273 186//186
f 194//194 339//339 182//182
f 181//181 62//62 182//182
f 182//182 62//62 194//194
f 181//181 182//182 183//183
f 183//183 270//270 184//184
f 183//183 60//60 181//181
f 183//183 182//182 270//270
f 184//184 270//270 186//186
f 184//184 186//186 185//185
f 185//185 187//187 66//66
f 186//186 187//187 185//185
f 66//66 187//187 196//196
f 187//187 273//273 196//196
f 196//196 276//276 197//197
f 200//200 188//188 72//72
f 200//200 189//189 188//188
f 200//200 280//280 189//189
f 188//188 189//189 345//345
f 72//72 188//188 190//190
f 73//73 72//72 190//190
f 190//190 188//188 345//345
f 191//191 190//190 192//192
f 62//62 193//193 194//194
f 193//193 191//191 192//192
f 194//194 193//193 192//192
f 192//192 339//339 194//194
f 195//195 66//66 196//196
f 65//65 66//66 195//195
f 86//86 195//195 197//197
f 196//196 197//197 195//195
f 277//277 197//197 276//276
f 68//68 67//67 198//198
f 199//199 68//68 198//198
f 279//279 199//199 198//198
f 198//198 204//204 279//279
f 280//280 200//200 199//199
f 280//280 199//199 279//279
f 200//200 72//72 68//68
f 70//70 68//68 72//72
f 200//200 68//68 199//199
f 86//86 201//201 206//206
f 206//206 201//201 202//202
f 202//202 208//208 206//206
f 201//201 86//86 197//197
f 203//203 201//201 197//197
f 203//203 197//197 277//277
f 202//202 201//201 203//203
f 210//210 202//202 203//203
f 204//204 198//198 87//87
f 212//212 204//204 87//87
f 207//207 206//206 208//208
f 207//207 208//208 209//209
f 210//210 208//208 202//202
f 211//211 208//208 210//210
f 208//208 211//211 209//209
f 213//213 279//279 204//204
f 205//205 207//207 209//209
f 205//205 209//209 99//99
f 215//215 204//204 212//212
f 204//204 215//215 213//213
f 99//99 209//209 214//214
f 109//109 99//99 217//217
f 217//217 99//99 214//214
f 209//209 357//357 214//214
f 213//213 216//216 283//283
f 216//216 284//284 283//283
f 105//105 215//215 100//100
f 216//216 213//213 215//215
f 222//222 284//284 216//216
f 358//358 360//360 217//217
f 358//358 217//217 214//214
f 214//214 357//357 358//358
f 215//215 105//105 219//219
f 222//222 216//216 215//215
f 215//215 219//219 222//222
f 222//222 219//219 218//218
f 109//109 217//217 225//225
f 110//110 222//222 218//218
f 220//220 221//221 227//227
f 222//222 221//221 220//220
f 284//284 222//222 220//220
f 223//223 233//233 117//117
f 109//109 228//228 223//223
f 224//224 226//226 228//228
f 228//228 226//226 229//229
f 109//109 224//224 228//228
f 224//224 109//109 225//225
f 224//224 225//225 226//226
f 225//225 287//287 226//226
f 217//217 363//363 225//225
f 118//118 232//232 220//220
f 285//285 232//232 286//286
f 220//220 232//232 285//285
f 118//118 220//220 227//227
f 234//234 228//228 229//229
f 229//229 226//226 287//287
f 232//232 118//118 230//230
f 286//286 232//232 230//230
f 286//286 230//230 231//231
f 223//223 228//228 233//233
f 233//233 228//228 234//234
f 233//233 234//234 239//239
f 236//236 238//238 235//235
f 237//237 235//235 240//240
f 236//236 237//237 288//288
f 231//231 236//236 288//288
f 237//237 236//236 235//235
f 289//289 237//237 240//240
f 237//237 289//289 288//288
f 231//231 230//230 238//238
f 231//231 238//238 236//236
f 124//124 233//233 239//239
f 241//241 124//124 239//239
f 241//241 239//239 242//242
f 235//235 129//129 125//125
f 240//240 235//235 125//125
f 240//240 125//125 292//292
f 127//127 241//241 242//242
f 294//294 125//125 128//128
f 295//295 244//244 242//242
f 244//244 371//371 250//250
f 243//243 247//247 246//246
f 246//246 247//247 245//245
f 243//243 246//246 296//296
f 245//245 304//304 246//246
f 296//296 246//246 297//297
f 301//301 297//297 246//246
f 128//128 247//247 243//243
f 371//371 248//248 250//250
f 133//133 242//242 244//244
f 244//244 250//250 133//133
f 245//245 249//249 304//304
f 301//301 246//246 300//300
f 300//300 246//246 304//304
f 250//250 248//248 299//299
f 250//250 299//299 251//251
f 299//299 248//248 373//373
f 251//251 302//302 307//307
f 136//136 304//304 249//249
f 307//307 138//138 251//251
f 304//304 252//252 310//310
f 253//253 322//322 146//146
f 140//140 138//138 253//253
f 252//252 256//256 310//310
f 253//253 254//254 140//140
f 140//140 254//254 147//147
f 253//253 146//146 254//254
f 257//257 157//157 259//259
f 157//157 257//257 256//256
f 263//263 267//267 324//324
f 258//258 323//323 269//269
f 146//146 322//322 171//171
f 171//171 322//322 258//258
f 259//259 260//260 263//263
f 260//260 261//261 262//262
f 260//260 262//262 263//263
f 263//263 262//262 267//267
f 267//267 262//262 266//266
f 262//262 261//261 264//264
f 262//262 264//264 266//266
f 259//259 263//263 257//257
f 266//266 264//264 265//265
f 267//267 266//266 268//268
f 266//266 265//265 268//268
f 268//268 265//265 269//269
f 325//325 324//324 267//267
f 268//268 325//325 267//267
f 270//270 328//328 327//327
f 339//339 328//328 182//182
f 270//270 327//327 271//271
f 182//182 328//328 270//270
f 272//272 273//273 271//271
f 273//273 272//272 274//274
f 334//334 271//271 330//330
f 272//272 271//271 334//334
f 272//272 334//334 335//335
f 335//335 333//333 272//272
f 272//272 333//333 274//274
f 338//338 339//339 275//275
f 196//196 273//273 274//274
f 333//333 340//340 274//274
f 192//192 275//275 339//339
f 274//274 276//276 196//196
f 340//340 278//278 276//276
f 276//276 274//274 340//340
f 189//189 280//280 346//346
f 345//345 189//189 343//343
f 343//343 189//189 346//346
f 190//190 345//345 192//192
f 277//277 276//276 278//278
f 281//281 277//277 278//278
f 203//203 277//277 281//281
f 210//210 203//203 281//281
f 351//351 281//281 352//352
f 210//210 281//281 351//351
f 432//432 279//279 282//282
f 354//354 211//211 210//210
f 356//356 211//211 354//354
f 213//213 282//282 279//279
f 282//282 213//213 283//283
f 357//357 211//211 356//356
f 357//357 209//209 211//211
f 283//283 284//284 285//285
f 285//285 284//284 220//220
f 363//363 217//217 360//360
f 364//364 362//362 286//286
f 225//225 363//363 287//287
f 362//362 285//285 286//286
f 364//364 286//286 231//231
f 364//364 231//231 288//288
f 290//290 364//364 288//288
f 229//229 287//287 447//447
f 234//234 229//229 447//447
f 239//239 234//234 447//447
f 292//292 289//289 240//240
f 292//292 367//367 289//289
f 290//290 288//288 289//289
f 367//367 290//290 289//289
f 447//447 366//366 239//239
f 239//239 366//366 291//291
f 242//242 239//239 291//291
f 125//125 294//294 292//292
f 292//292 368//368 367//367
f 368//368 292//292 294//294
f 293//293 242//242 291//291
f 128//128 243//243 294//294
f 293//293 295//295 242//242
f 370//370 295//295 293//293
f 295//295 370//370 371//371
f 294//294 243//243 296//296
f 296//296 372//372 294//294
f 298//298 372//372 296//296
f 295//295 371//371 244//244
f 371//371 460//460 373//373
f 296//296 297//297 298//298
f 373//373 248//248 371//371
f 298//298 297//297 301//301
f 298//298 301//301 378//378
f 372//372 298//298 378//378
f 251//251 303//303 302//302
f 299//299 303//303 251//251
f 300//300 304//304 306//306
f 309//309 378//378 305//305
f 306//306 301//301 300//300
f 305//305 301//301 306//306
f 378//378 301//301 305//305
f 309//309 305//305 306//306
f 387//387 307//307 302//302
f 393//393 307//307 387//387
f 304//304 310//310 306//306
f 310//310 311//311 306//306
f 306//306 311//311 308//308
f 312//312 309//309 308//308
f 309//309 306//306 308//308
f 393//393 314//314 307//307
f 310//310 256//256 311//311
f 315//315 311//311 256//256
f 312//312 308//308 311//311
f 312//312 315//315 401//401
f 311//311 315//315 312//312
f 312//312 401//401 309//309
f 307//307 253//253 138//138
f 307//307 314//314 253//253
f 314//314 322//322 253//253
f 398//398 322//322 314//314
f 398//398 318//318 322//322
f 257//257 315//315 256//256
f 257//257 316//316 315//315
f 263//263 316//316 257//257
f 315//315 316//316 401//401
f 401//401 316//316 317//317
f 317//317 316//316 324//324
f 322//322 318//318 258//258
f 258//258 318//318 319//319
f 318//318 321//321 319//319
f 321//321 318//318 313//313
f 317//317 325//325 320//320
f 321//321 320//320 319//319
f 320//320 325//325 323//323
f 319//319 320//320 323//323
f 321//321 313//313 403//403
f 316//316 263//263 324//324
f 323//323 325//325 268//268
f 269//269 323//323 268//268
f 317//317 324//324 325//325
f 319//319 323//323 258//258
f 329//329 328//328 326//326
f 326//326 415//415 329//329
f 416//416 330//330 327//327
f 328//328 329//329 327//327
f 327//327 329//329 416//416
f 417//417 330//330 416//416
f 329//329 415//415 407//407
f 416//416 329//329 407//407
f 327//327 330//330 271//271
f 331//331 334//334 330//330
f 417//417 331//331 330//330
f 417//417 418//418 331//331
f 339//339 338//338 332//332
f 326//326 339//339 332//332
f 339//339 326//326 328//328
f 334//334 331//331 336//336
f 335//335 334//334 336//336
f 336//336 337//337 335//335
f 341//341 335//335 337//337
f 336//336 331//331 418//418
f 420//420 337//337 336//336
f 336//336 418//418 420//420
f 420//420 342//342 337//337
f 420//420 427//427 342//342
f 275//275 426//426 338//338
f 347//347 340//340 349//349
f 341//341 333//333 335//335
f 341//341 340//340 333//333
f 349//349 340//340 341//341
f 337//337 342//342 341//341
f 349//349 341//341 342//342
f 427//427 349//349 342//342
f 343//343 346//346 344//344
f 343//343 344//344 345//345
f 345//345 344//344 421//421
f 344//344 422//422 421//421
f 192//192 345//345 275//275
f 347//347 278//278 340//340
f 427//427 431//431 349//349
f 430//430 279//279 432//432
f 430//430 280//280 279//279
f 278//278 352//352 281//281
f 352//352 278//278 348//348
f 347//347 348//348 278//278
f 353//353 352//352 348//348
f 349//349 348//348 347//347
f 349//349 350//350 348//348
f 431//431 350//350 349//349
f 354//354 210//210 351//351
f 353//353 355//355 351//351
f 355//355 354//354 351//351
f 352//352 353//353 351//351
f 435//435 355//355 353//353
f 350//350 435//435 353//353
f 350//350 353//353 348//348
f 355//355 356//356 354//354
f 356//356 355//355 435//435
f 357//357 356//356 438//438
f 356//356 436//436 438//438
f 437//437 282//282 283//283
f 437//437 432//432 282//282
f 358//358 357//357 441//441
f 441//441 496//496 358//358
f 437//437 283//283 285//285
f 285//285 362//362 359//359
f 285//285 359//359 437//437
f 361//361 363//363 360//360
f 360//360 358//358 361//361
f 496//496 363//363 361//361
f 444//444 359//359 362//362
f 364//364 365//365 362//362
f 362//362 365//365 444//444
f 447//447 287//287 363//363
f 364//364 290//290 365//365
f 446//446 365//365 367//367
f 365//365 446//446 445//445
f 367//367 365//365 290//290
f 368//368 446//446 367//367
f 446//446 368//368 449//449
f 366//366 450//450 291//291
f 294//294 372//372 368//368
f 372//372 451//451 368//368
f 291//291 369//369 293//293
f 293//293 369//369 370//370
f 291//291 450//450 369//369
f 460//460 371//371 455//455
f 452//452 455//455 370//370
f 370//370 369//369 452//452
f 455//455 371//371 370//370
f 372//372 375//375 451//451
f 451//451 375//375 456//456
f 459//459 303//303 374//374
f 373//373 460//460 374//374
f 303//303 377//377 302//302
f 376//376 377//377 468//468
f 373//373 303//303 299//299
f 377//377 303//303 459//459
f 374//374 303//303 373//373
f 379//379 375//375 372//372
f 372//372 378//378 379//379
f 375//375 379//379 380//380
f 385//385 380//380 379//379
f 380//380 385//385 381//381
f 375//375 380//380 381//381
f 464//464 375//375 381//381
f 464//464 381//381 465//465
f 381//381 382//382 465//465
f 384//384 465//465 382//382
f 376//376 383//383 387//387
f 383//383 376//376 384//384
f 302//302 376//376 387//387
f 377//377 376//376 302//302
f 378//378 309//309 379//379
f 385//385 379//379 389//389
f 381//381 385//385 382//382
f 382//382 385//385 386//386
f 383//383 394//394 387//387
f 386//386 394//394 384//384
f 383//383 384//384 394//394
f 382//382 386//386 384//384
f 379//379 309//309 388//388
f 379//379 388//388 389//389
f 395//395 389//389 388//388
f 389//389 395//395 396//396
f 389//389 396//396 400//400
f 394//394 391//391 390//390
f 391//391 394//394 386//386
f 392//392 386//386 385//385
f 389//389 392//392 385//385
f 400//400 392//392 389//389
f 392//392 400//400 391//391
f 386//386 392//392 391//391
f 394//394 393//393 387//387
f 394//394 390//390 393//393
f 388//388 309//309 395//395
f 403//403 313//313 399//399
f 398//398 399//399 313//313
f 396//396 402//402 397//397
f 402//402 403//403 397//397
f 400//400 396//396 397//397
f 403//403 400//400 397//397
f 390//390 314//314 393//393
f 390//390 398//398 314//314
f 403//403 399//399 400//400
f 400//400 399//399 391//391
f 390//390 391//391 399//399
f 399//399 398//398 390//390
f 404//404 403//403 402//402
f 404//404 402//402 317//317
f 309//309 401//401 395//395
f 395//395 402//402 396//396
f 395//395 401//401 402//402
f 401//401 317//317 402//402
f 313//313 318//318 398//398
f 320//320 404//404 317//317
f 403//403 404//404 321//321
f 404//404 320//320 321//321
f 412//412 413//413 406//406
f 414//414 405//405 413//413
f 413//413 405//405 406//406
f 469//469 406//406 405//405
f 470//470 469//469 405//405
f 406//406 407//407 412//412
f 407//407 406//406 409//409
f 472//472 476//476 409//409
f 416//416 407//407 408//408
f 408//408 407//407 409//409
f 476//476 408//408 409//409
f 415//415 326//326 410//410
f 326//326 332//332 410//410
f 412//412 410//410 413//413
f 415//415 410//410 412//412
f 411//411 410//410 332//332
f 411//411 413//413 410//410
f 419//419 411//411 332//332
f 414//414 411//411 419//419
f 414//414 413//413 411//411
f 407//407 415//415 412//412
f 416//416 408//408 417//417
f 475//475 417//417 408//408
f 480//480 418//418 475//475
f 417//417 475//475 418//418
f 419//419 332//332 338//338
f 418//418 480//480 420//420
f 480//480 481//481 420//420
f 420//420 481//481 427//427
f 422//422 428//428 483//483
f 421//421 422//422 423//423
f 421//421 423//423 425//425
f 482//482 423//423 422//422
f 422//422 483//483 482//482
f 423//423 482//482 425//425
f 421//421 424//424 345//345
f 424//424 426//426 275//275
f 275//275 345//345 424//424
f 426//426 424//424 484//484
f 425//425 424//424 421//421
f 424//424 425//425 484//484
f 419//419 338//338 426//426
f 485//485 429//429 430//430
f 344//344 346//346 429//429
f 422//422 344//344 428//428
f 428//428 344//344 429//429
f 429//429 346//346 430//430
f 432//432 485//485 430//430
f 346//346 280//280 430//430
f 427//427 491//491 431//431
f 350//350 433//433 435//435
f 431//431 433//433 350//350
f 431//431 490//490 433//433
f 436//436 356//356 435//435
f 489//489 436//436 435//435
f 489//489 494//494 436//436
f 489//489 435//435 433//433
f 490//490 489//489 433//433
f 437//437 442//442 434//434
f 434//434 432//432 437//437
f 442//442 440//440 434//434
f 441//441 357//357 438//438
f 439//439 441//441 438//438
f 436//436 439//439 438//438
f 436//436 494//494 439//439
f 443//443 440//440 442//442
f 497//497 496//496 441//441
f 439//439 497//497 441//441
f 437//437 359//359 442//442
f 443//443 442//442 359//359
f 358//358 496//496 361//361
f 443//443 359//359 444//444
f 443//443 444//444 557//557
f 445//445 444//444 365//365
f 444//444 445//445 499//499
f 363//363 496//496 447//447
f 448//448 500//500 447//447
f 500//500 450//450 447//447
f 450//450 500//500 506//506
f 496//496 448//448 447//447
f 502//502 500//500 448//448
f 502//502 448//448 496//496
f 449//449 505//505 504//504
f 366//366 447//447 450//450
f 368//368 451//451 449//449
f 449//449 451//451 505//505
f 506//506 452//452 450//450
f 506//506 453//453 452//452
f 455//455 452//452 453//453
f 453//453 507//507 455//455
f 452//452 369//369 450//450
f 460//460 511//511 461//461
f 455//455 513//513 460//460
f 513//513 455//455 507//507
f 505//505 451//451 456//456
f 505//505 456//456 454//454
f 456//456 462//462 454//454
f 462//462 463//463 458//458
f 457//457 458//458 463//463
f 468//468 457//457 463//463
f 459//459 510//510 457//457
f 510//510 508//508 457//457
f 460//460 461//461 374//374
f 509//509 510//510 459//459
f 461//461 509//509 459//459
f 456//456 375//375 464//464
f 462//462 456//456 466//466
f 467//467 463//463 462//462
f 463//463 467//467 468//468
f 457//457 468//468 459//459
f 459//459 374//374 461//461
f 465//465 384//384 467//467
f 467//467 384//384 376//376
f 464//464 466//466 456//456
f 462//462 466//466 467//467
f 465//465 466//466 464//464
f 466//466 465//465 467//467
f 468//468 467//467 376//376
f 377//377 459//459 468//468
f 406//406 469//469 471//471
f 479//479 405//405 414//414
f 518//518 469//469 470//470
f 405//405 479//479 470//470
f 409//409 406//406 471//471
f 472//472 409//409 471//471
f 471//471 473//473 472//472
f 469//469 473//473 471//471
f 474//474 476//476 472//472
f 518//518 473//473 469//469
f 473//473 474//474 472//472
f 477//477 476//476 474//474
f 475//475 408//408 476//476
f 477//477 478//478 475//475
f 478//478 480//480 475//475
f 477//477 475//475 476//476
f 477//477 523//523 478//478
f 414//414 419//419 479//479
f 419//419 515//515 479//479
f 532//532 538//538 425//425
f 429//429 530//530 483//483
f 484//484 425//425 536//536
f 426//426 536//536 419//419
f 536//536 515//515 419//419
f 484//484 536//536 426//426
f 427//427 481//481 540//540
f 429//429 483//483 428//428
f 483//483 530//530 482//482
f 530//530 532//532 482//482
f 425//425 482//482 532//532
f 429//429 485//485 529//529
f 486//486 529//529 485//485
f 543//543 529//529 486//486
f 486//486 542//542 543//543
f 485//485 432//432 487//487
f 434//434 487//487 432//432
f 486//486 485//485 487//487
f 544//544 486//486 487//487
f 544//544 487//487 434//434
f 486//486 544//544 542//542
f 611//611 491//491 427//427
f 491//491 490//490 431//431
f 546//546 491//491 611//611
f 488//488 544//544 434//434
f 488//488 545//545 544//544
f 491//491 489//489 490//490
f 491//491 492//492 489//489
f 546//546 492//492 491//491
f 440//440 488//488 434//434
f 493//493 488//488 440//440
f 489//489 492//492 552//552
f 489//489 552//552 494//494
f 493//493 440//440 554//554
f 439//439 494//494 495//495
f 495//495 497//497 439//439
f 552//552 551//551 494//494
f 494//494 551//551 495//495
f 554//554 440//440 443//443
f 497//497 498//498 496//496
f 498//498 497//497 559//559
f 443//443 557//557 554//554
f 557//557 444//444 560//560
f 444//444 499//499 560//560
f 496//496 498//498 502//502
f 502//502 498//498 503//503
f 446//446 499//499 445//445
f 449//449 499//499 446//446
f 504//504 499//499 449//449
f 499//499 504//504 561//561
f 500//500 502//502 501//501
f 501//501 506//506 500//500
f 565//565 506//506 501//501
f 501//501 566//566 565//565
f 502//502 503//503 501//501
f 503//503 566//566 501//501
f 506//506 565//565 572//572
f 454//454 574//574 505//505
f 506//506 572//572 507//507
f 575//575 507//507 572//572
f 569//569 574//574 454//454
f 507//507 575//575 513//513
f 453//453 506//506 507//507
f 454//454 462//462 458//458
f 454//454 458//458 508//508
f 569//569 454//454 508//508
f 576//576 508//508 510//510
f 511//511 509//509 461//461
f 510//510 509//509 512//512
f 511//511 512//512 509//509
f 512//512 576//576 510//510
f 511//511 571//571 512//512
f 511//511 460//460 513//513
f 513//513 575//575 511//511
f 575//575 571//571 511//511
f 508//508 458//458 457//457
f 578//578 514//514 579//579
f 470//470 479//479 515//515
f 518//518 470//470 516//516
f 470//470 517//517 516//516
f 470//470 515//515 517//517
f 515//515 514//514 517//517
f 582//582 516//516 517//517
f 517//517 514//514 578//578
f 517//517 578//578 584//584
f 582//582 517//517 584//584
f 516//516 583//583 519//519
f 518//518 521//521 473//473
f 516//516 519//519 518//518
f 519//519 521//521 518//518
f 519//519 520//520 521//521
f 588//588 520//520 587//587
f 587//587 520//520 519//519
f 583//583 587//587 519//519
f 521//521 474//474 473//473
f 521//521 522//522 474//474
f 522//522 477//477 474//474
f 522//522 523//523 477//477
f 520//520 522//522 521//521
f 520//520 525//525 522//522
f 525//525 523//523 522//522
f 478//478 523//523 526//526
f 524//524 523//523 525//525
f 524//524 526//526 523//523
f 525//525 520//520 588//588
f 588//588 599//599 525//525
f 480//480 478//478 526//526
f 536//536 514//514 515//515
f 514//514 537//537 579//579
f 528//528 527//527 526//526
f 526//526 524//524 528//528
f 524//524 600//600 528//528
f 524//524 525//525 599//599
f 599//599 600//600 524//524
f 528//528 600//600 606//606
f 527//527 480//480 526//526
f 527//527 481//481 480//480
f 481//481 527//527 540//540
f 528//528 540//540 527//527
f 606//606 540//540 528//528
f 429//429 529//529 531//531
f 429//429 531//531 530//530
f 533//533 532//532 530//530
f 533//533 530//530 531//531
f 533//533 539//539 532//532
f 539//539 538//538 532//532
f 531//531 534//534 533//533
f 529//529 602//602 534//534
f 531//531 529//529 534//534
f 602//602 529//529 543//543
f 533//533 534//534 535//535
f 535//535 539//539 533//533
f 601//601 534//534 602//602
f 535//535 534//534 601//601
f 514//514 536//536 537//537
f 536//536 425//425 538//538
f 538//538 539//539 536//536
f 536//536 539//539 537//537
f 537//537 539//539 589//589
f 427//427 540//540 541//541
f 540//540 606//606 609//609
f 541//541 540//540 609//609
f 611//611 427//427 541//541
f 542//542 610//610 543//543
f 544//544 610//610 542//542
f 610//610 544//544 545//545
f 612//612 610//610 545//545
f 488//488 612//612 545//545
f 488//488 493//493 612//612
f 614//614 546//546 611//611
f 492//492 548//548 552//552
f 492//492 546//546 548//548
f 547//547 548//548 546//546
f 548//548 550//550 552//552
f 548//548 618//618 550//550
f 547//547 618//618 548//548
f 552//552 550//550 549//549
f 618//618 621//621 550//550
f 550//550 621//621 549//549
f 552//552 549//549 551//551
f 549//549 495//495 551//551
f 621//621 556//556 549//549
f 555//555 493//493 554//554
f 555//555 553//553 493//493
f 556//556 559//559 497//497
f 495//495 556//556 497//497
f 556//556 495//495 549//549
f 557//557 560//560 561//561
f 555//555 554//554 557//557
f 555//555 557//557 558//558
f 561//561 558//558 557//557
f 562//562 558//558 561//561
f 558//558 562//562 555//555
f 623//623 555//555 562//562
f 559//559 564//564 498//498
f 556//556 564//564 559//559
f 499//499 561//561 560//560
f 561//561 504//504 567//567
f 567//567 562//562 561//561
f 567//567 626//626 562//562
f 498//498 564//564 503//503
f 556//556 563//563 564//564
f 631//631 572//572 565//565
f 564//564 566//566 503//503
f 566//566 631//631 565//565
f 563//563 566//566 564//564
f 563//563 634//634 566//566
f 634//634 631//631 566//566
f 567//567 504//504 505//505
f 567//567 574//574 568//568
f 642//642 637//637 573//573
f 638//638 573//573 637//637
f 572//572 631//631 573//573
f 631//631 642//642 573//573
f 505//505 574//574 567//567
f 568//568 574//574 569//569
f 643//643 569//569 576//576
f 575//575 570//570 571//571
f 571//571 570//570 645//645
f 643//643 576//576 571//571
f 572//572 573//573 575//575
f 570//570 575//575 573//573
f 645//645 570//570 573//573
f 508//508 576//576 569//569
f 571//571 576//576 512//512
f 581//581 579//579 577//577
f 578//578 581//581 584//584
f 581//581 578//578 579//579
f 581//581 580//580 584//584
f 584//584 580//580 585//585
f 585//585 580//580 594//594
f 595//595 585//585 594//594
f 581//581 594//594 580//580
f 582//582 583//583 516//516
f 584//584 583//583 582//582
f 585//585 583//583 584//584
f 587//587 583//583 585//585
f 585//585 586//586 587//587
f 586//586 588//588 587//587
f 586//586 585//585 595//595
f 597//597 588//588 586//586
f 589//589 590//590 592//592
f 589//589 535//535 590//590
f 592//592 590//590 647//647
f 590//590 651//651 647//647
f 590//590 603//603 651//651
f 591//591 579//579 537//537
f 589//589 591//591 537//537
f 579//579 591//591 577//577
f 592//592 577//577 591//591
f 592//592 591//591 589//589
f 577//577 592//592 593//593
f 592//592 647//647 593//593
f 581//581 577//577 593//593
f 581//581 593//593 594//594
f 595//595 596//596 586//586
f 596//596 597//597 586//586
f 596//596 598//598 597//597
f 599//599 597//597 600//600
f 597//597 599//599 588//588
f 600//600 605//605 606//606
f 600//600 597//597 605//605
f 610//610 602//602 543//543
f 601//601 590//590 535//535
f 603//603 590//590 601//601
f 601//601 602//602 603//603
f 604//604 602//602 610//610
f 604//604 603//603 602//602
f 539//539 535//535 589//589
f 605//605 597//597 598//598
f 605//605 608//608 606//606
f 607//607 605//605 598//598
f 605//605 607//607 608//608
f 606//606 608//608 609//609
f 611//611 609//609 608//608
f 609//609 611//611 541//541
f 610//610 660//660 604//604
f 611//611 608//608 613//613
f 610//610 612//612 660//660
f 615//615 612//612 493//493
f 612//612 615//615 660//660
f 615//615 665//665 660//660
f 547//547 614//614 613//613
f 611//611 613//613 614//614
f 616//616 613//613 668//668
f 614//614 547//547 546//546
f 616//616 547//547 613//613
f 615//615 493//493 620//620
f 672//672 671//671 670//670
f 618//618 547//547 617//617
f 616//616 617//617 547//547
f 618//618 617//617 619//619
f 671//671 617//617 616//616
f 617//617 671//671 672//672
f 619//619 617//617 672//672
f 619//619 672//672 622//622
f 621//621 618//618 619//619
f 622//622 621//621 619//619
f 553//553 620//620 493//493
f 624//624 553//553 555//555
f 553//553 624//624 620//620
f 622//622 672//672 679//679
f 687//687 627//627 622//622
f 622//622 679//679 687//687
f 563//563 556//556 621//621
f 621//621 627//627 563//563
f 622//622 627//627 621//621
f 623//623 624//624 555//555
f 624//624 623//623 625//625
f 625//625 623//623 626//626
f 562//562 626//626 623//623
f 626//626 635//635 636//636
f 626//626 628//628 682//682
f 626//626 682//682 625//625
f 687//687 632//632 627//627
f 627//627 634//634 563//563
f 635//635 626//626 567//567
f 626//626 636//636 628//628
f 628//628 636//636 630//630
f 630//630 641//641 629//629
f 641//641 630//630 636//636
f 682//682 628//628 630//630
f 682//682 630//630 683//683
f 631//631 633//633 642//642
f 631//631 632//632 633//633
f 634//634 632//632 631//631
f 634//634 627//627 632//632
f 568//568 635//635 567//567
f 635//635 568//568 636//636
f 636//636 568//568 644//644
f 646//646 645//645 639//639
f 641//641 636//636 646//646
f 640//640 637//637 642//642
f 639//639 638//638 637//637
f 642//642 633//633 640//640
f 639//639 637//637 640//640
f 645//645 638//638 639//639
f 646//646 639//639 641//641
f 641//641 639//639 640//640
f 640//640 629//629 641//641
f 568//568 569//569 644//644
f 569//569 643//643 644//644
f 638//638 645//645 573//573
f 646//646 643//643 571//571
f 571//571 645//645 646//646
f 644//644 646//646 636//636
f 646//646 644//644 643//643
f 651//651 649//649 647//647
f 648//648 593//593 647//647
f 594//594 593//593 648//648
f 648//648 647//647 649//649
f 654//654 648//648 649//649
f 650//650 648//648 654//654
f 648//648 650//650 594//594
f 594//594 650//650 595//595
f 596//596 595//595 650//650
f 650//650 656//656 596//596
f 650//650 654//654 656//656
f 598//598 596//596 656//656
f 603//603 604//604 652//652
f 652//652 651//651 603//603
f 651//651 652//652 653//653
f 649//649 651//651 653//653
f 653//653 652//652 658//658
f 655//655 653//653 658//658
f 649//649 653//653 655//655
f 654//654 649//649 655//655
f 656//656 654//654 655//655
f 689//689 598//598 656//656
f 655//655 689//689 656//656
f 652//652 604//604 657//657
f 652//652 657//657 658//658
f 658//658 657//657 659//659
f 658//658 659//659 688//688
f 607//607 598//598 689//689
f 660//660 657//657 604//604
f 657//657 660//660 661//661
f 657//657 661//661 662//662
f 657//657 662//662 659//659
f 659//659 662//662 663//663
f 607//607 664//664 608//608
f 660//660 665//665 661//661
f 661//661 665//665 666//666
f 662//662 661//661 666//666
f 666//666 663//663 662//662
f 694//694 666//666 665//665
f 692//692 664//664 607//607
f 692//692 667//667 664//664
f 668//668 608//608 664//664
f 613//613 608//608 668//668
f 668//668 664//664 667//667
f 665//665 615//615 694//694
f 698//698 669//669 667//667
f 669//669 668//668 667//667
f 620//620 694//694 615//615
f 669//669 698//698 670//670
f 616//616 668//668 669//669
f 671//671 616//616 669//669
f 669//669 670//670 671//671
f 670//670 698//698 675//675
f 620//620 673//673 694//694
f 673//673 620//620 624//624
f 673//673 677//677 674//674
f 674//674 677//677 678//678
f 674//674 678//678 675//675
f 670//670 679//679 672//672
f 673//673 624//624 625//625
f 625//625 682//682 673//673
f 682//682 683//683 676//676
f 677//677 673//673 682//682
f 677//677 682//682 676//676
f 677//677 676//676 678//678
f 678//678 676//676 680//680
f 680//680 676//676 686//686
f 679//679 684//684 687//687
f 681//681 684//684 679//679
f 681//681 686//686 684//684
f 681//681 679//679 670//670
f 686//686 681//681 680//680
f 678//678 680//680 675//675
f 675//675 680//680 681//681
f 681//681 670//670 675//675
f 683//683 630//630 685//685
f 676//676 683//683 686//686
f 683//683 685//685 686//686
f 684//684 686//686 685//685
f 687//687 684//684 632//632
f 633//633 632//632 685//685
f 685//685 632//632 684//684
f 629//629 685//685 630//630
f 640//640 685//685 629//629
f 633//633 685//685 640//640
f 658//658 688//688 655//655
f 655//655 688//688 689//689
f 688//688 659//659 691//691
f 663//663 691//691 659//659
f 688//688 691//691 690//690
f 689//689 692//692 607//607
f 688//688 690//690 689//689
f 689//689 693//693 692//692
f 690//690 693//693 689//689
f 663//663 666//666 695//695
f 663//663 695//695 691//691
f 690//690 691//691 696//696
f 693//693 696//696 697//697
f 690//690 696//696 693//693
f 693//693 697//697 692//692
f 692//692 697//697 667//667
f 666//666 694//694 695//695
f 696//696 695//695 674//674
f 694//694 674//674 695//695
f 696//696 691//691 695//695
f 697//697 698//698 667//667
f 673//673 674//674 694//694
f 696//696 674//674 697//697
f 697//697 675//675 698//698
f 674//674 675//675 697//697
