# Wavafront OBJ file of BodyParts3D
# BodyParts3D, Copyright(C) 2010-2011 The Database Center for Life Science licensed under CC Attribution-Share Alike 2.1 Japan.
vn -0.987723 0.155717 -0.0124975
v -23.3249 -158.357 1454.53
vn -0.960222 -0.180218 -0.213295
v -23.3262 -159.089 1454.16
vn -0.919796 0.358794 0.158877
v -23.2505 -158.655 1456.01
vn -0.991108 0.130191 0.0275015
v -23.479 -159.579 1456.22
vn -0.988443 -0.106928 -0.107452
v -23.4826 -160.46 1456.58
vn -0.893665 -0.367582 -0.257385
v -23.3047 -160.822 1456.16
vn -0.999154 0.0278413 0.030268
v -23.5366 -160.805 1458.14
vn -0.945065 0.277149 0.173323
v -23.4339 -160.3 1458.28
vn -0.993719 -0.103087 0.0435426
v -23.5042 -161.35 1458.74
vn -0.958832 -0.271859 -0.082059
v -23.4533 -161.682 1458.26
vn -0.82035 -0.526131 -0.224081
v -23.2339 -162 1457.98
vn -0.985956 0.0506532 0.159137
v -23.4101 -161.427 1459.79
vn -0.898061 -0.43765 -0.0441551
v -23.258 -162.247 1459.13
vn -0.971705 -0.228176 0.0610306
v -23.3175 -162.027 1459.83
vn -0.994966 -0.0403112 0.0917431
v -23.2434 -162.037 1460.52
vn -0.967227 0.160828 -0.196486
v -23.4999 -162.425 1461.94
vn -0.923643 0.383192 -0.00686325
v -23.4419 -161.978 1462.87
vn -0.966807 -0.0188797 -0.254809
v -23.5878 -162.981 1462.11
vn -0.986 0.160783 -0.0441985
v -23.6212 -162.574 1462.67
vn -0.986722 -0.12079 -0.108578
v -23.6238 -163.123 1462.39
vn -0.90862 -0.282453 -0.307619
v -23.4134 -163.53 1461.83
vn -0.897257 -0.400219 -0.186423
v -23.4359 -163.766 1462.29
vn -0.998701 0.0207341 0.0465398
v -23.6489 -163.001 1463.49
vn -0.963413 0.24645 0.105343
v -23.3859 -162.064 1465.03
vn -0.954878 -0.295552 -0.0292789
v -23.5878 -163.692 1463.48
vn -0.968817 -0.190272 0.158716
v -23.5984 -163.559 1463.9
vn -0.909917 -0.406386 0.0830788
v -23.5192 -163.834 1463.76
vn -0.980403 0.0268127 0.195168
v -23.4081 -162.472 1465.16
vn -0.954846 0.237883 -0.177993
v -22.3865 -155.302 1447.08
vn -0.95886 0.0155488 -0.283453
v -22.363 -155.437 1446.9
vn -0.908634 0.214777 -0.358126
v -22.2249 -155.156 1446.58
vn -0.841718 -0.308721 -0.442948
v -22.2784 -155.573 1446.71
vn -0.932433 0.35642 -0.0594457
v -22.3559 -154.855 1448.01
vn -0.819727 0.562737 -0.106655
v -22.2207 -154.621 1447.78
vn -0.990482 0.0590299 -0.124339
v -22.4721 -155.491 1447.45
vn -0.93464 -0.250943 -0.251945
v -22.4033 -155.671 1447.12
vn -0.844908 -0.472958 -0.249882
v -22.3325 -156.138 1447.58
vn -0.97155 -0.198374 -0.129374
v -22.5828 -156.253 1449.14
vn -0.844224 0.527 0.0977601
v -22.5341 -155.399 1450.63
vn -0.977727 -0.108649 -0.179571
v -22.6362 -156.449 1449.96
vn -0.860266 -0.39833 -0.318238
v -22.5033 -156.815 1449.78
vn -0.984262 0.170686 -0.0457649
v -22.7411 -155.954 1450.8
vn -0.976113 -0.0481733 -0.211857
v -22.8773 -156.97 1450.97
vn -0.90008 -0.289622 -0.325539
v -22.8325 -157.387 1451.1
vn -0.860617 0.480402 0.168978
v -22.7404 -156.309 1453.05
vn -0.616746 0.744826 0.254674
v -22.3978 -155.798 1452.74
vn -0.81393 -0.441913 -0.377136
v -23.0639 -159.313 1453.69
vn -0.730943 0.604737 0.316253
v -22.964 -158.562 1456.99
vn -0.784745 -0.514462 -0.345693
v -23.0382 -161.188 1455.97
vn -0.624767 -0.624975 -0.468051
v -22.739 -161.291 1455.57
vn -0.793347 0.524694 0.308701
v -23.0551 -159.237 1458.03
vn -0.682529 -0.638813 -0.355066
v -22.7525 -161.902 1456.53
vn -0.509811 -0.720295 -0.470392
v -22.5406 -161.829 1456.11
vn -0.516798 -0.761789 -0.390638
v -22.4472 -162.298 1456.8
vn -0.677826 -0.680079 -0.279364
v -22.876 -162.442 1457.99
vn -0.641919 -0.729124 -0.237315
v -22.6825 -162.968 1458.88
vn -0.726851 0.681951 0.0814259
v -22.4747 -160.343 1461.29
vn -0.915678 0.356302 0.185966
v -23.0863 -161.258 1460.81
vn -0.769225 -0.619229 -0.157632
v -22.8917 -162.846 1459.18
vn -0.889189 0.457396 -0.0114319
v -22.8668 -160.902 1461.69
vn -0.971408 0.235043 -0.033496
v -23.1932 -161.86 1461.07
vn -0.99033 -0.09278 -0.103141
v -23.2252 -162.234 1460.88
vn -0.952978 -0.301082 -0.0343828
v -23.1768 -162.358 1460.47
vn -0.897632 -0.290808 -0.331191
v -22.9477 -163.144 1460.64
vn -0.842399 -0.508959 -0.176985
v -22.8598 -163.046 1460.23
vn -0.703999 -0.572249 -0.420614
v -22.7052 -163.424 1460.5
vn -0.703308 -0.677135 -0.21644
v -22.521 -163.412 1460.05
vn -0.903787 0.426773 -0.0321618
v -23.225 -161.467 1462.55
vn -0.789271 0.608888 0.0794205
v -22.8065 -160.773 1462.34
vn -0.760051 -0.521481 -0.387788
v -23.0315 -164.178 1461.73
vn -0.557464 -0.655816 -0.509057
v -22.6149 -164.379 1461.4
vn -0.775628 0.631108 -0.0102067
v -22.8914 -161.08 1464.5
vn -0.826238 0.562043 0.0379292
v -23.1062 -161.436 1463.62
vn -0.839535 -0.527431 -0.130372
v -23.2016 -164.373 1462.79
vn -0.767215 -0.594603 -0.240477
v -23.0367 -164.358 1462.1
vn -0.643899 -0.69732 -0.314862
v -22.7259 -164.629 1461.97
vn -0.856805 0.511743 0.063276
v -23.1064 -161.412 1465.14
vn -0.875752 -0.482669 -0.00945785
v -23.2621 -164.366 1463.49
vn -0.801244 -0.596968 -0.040466
v -23.0726 -164.657 1463.34
vn -0.705823 -0.696208 -0.130803
v -22.8241 -164.931 1463.2
vn -0.951792 0.146745 0.269365
v -23.2403 -162.065 1465.72
vn -0.882007 0.413316 0.226346
v -23.1518 -161.601 1465.5
vn -0.882008 -0.425634 0.202231
v -23.2073 -164.26 1464.59
vn -0.8252 -0.558381 0.0851725
v -23.0638 -164.648 1464.04
vn -0.735594 -0.67698 0.0244701
v -22.8389 -164.941 1463.89
vn -0.811643 0.458683 0.361725
v -22.7108 -161.384 1466.43
vn -0.750615 0.391015 0.53262
v -22.5657 -161.669 1466.98
vn -0.903234 0.245451 0.352026
v -23.0314 -162.028 1466.33
vn -0.919507 -0.00703956 0.39301
v -22.995 -162.485 1466.54
vn -0.887466 0.128074 0.44272
v -22.9094 -162.217 1466.69
vn -0.837382 0.26682 0.477072
v -22.7649 -161.943 1466.84
vn -0.946824 -0.0953918 0.307287
v -23.1415 -162.624 1466.13
vn -0.901028 -0.302047 0.311314
v -23.2166 -163.854 1465.15
vn -0.797523 -0.567552 0.204554
v -22.9293 -164.677 1464.72
vn -0.82407 0.0110652 0.566381
v -22.7653 -162.36 1466.97
vn -0.763342 0.202482 0.613441
v -22.6127 -162.085 1467.11
vn -0.869426 -0.207447 0.448403
v -22.8548 -162.908 1466.68
vn -0.752671 0.411505 -0.513956
v -22.0952 -154.953 1446.45
vn -0.571126 0.561427 -0.598845
v -21.8885 -154.719 1446.41
vn -0.30188 0.599867 -0.740965
v -21.6821 -154.589 1446.39
vn -0.486696 0.745189 -0.455874
v -21.6845 -154.446 1446.56
vn -0.497906 0.822464 -0.275031
v -21.6874 -154.361 1446.77
vn -0.237071 0.86346 -0.445236
v -21.4788 -154.341 1446.58
vn -0.74475 0.17992 -0.642632
v -22.0938 -155.156 1446.35
vn -0.550631 -0.0899016 -0.829894
v -21.9893 -155.326 1446.24
vn -0.411838 0.306246 -0.858256
v -21.8858 -155.08 1446.21
vn -0.340023 -0.342731 -0.87574
v -21.6791 -155.55 1446.15
vn -0.210314 0.0229494 -0.977364
v -21.5752 -155.362 1446.09
vn -0.533431 0.835853 -0.129621
v -21.6965 -154.205 1447.43
vn -0.342366 0.939198 0.026318
v -21.5972 -154.145 1447.69
vn -0.269855 0.945538 -0.182032
v -21.4863 -154.158 1447.12
vn -0.883211 0.410407 -0.226946
v -22.1689 -154.882 1446.72
vn -0.702681 0.656628 -0.274006
v -22.0225 -154.652 1446.73
vn -0.843341 -0.0839599 -0.53078
v -22.1986 -155.353 1446.48
vn -0.604421 -0.589821 -0.535524
v -22.0976 -155.775 1446.61
vn -0.568754 -0.4702 -0.674856
v -21.982 -155.614 1446.35
vn -0.348629 -0.759105 -0.549743
v -21.6844 -155.951 1446.52
vn -0.298442 -0.643049 -0.70528
v -21.5408 -155.797 1446.26
vn -0.77086 0.635352 0.0458595
v -22.2249 -154.595 1448.38
vn -0.637012 0.768974 -0.0537975
v -22.0106 -154.402 1447.79
vn -0.552538 0.82765 0.0984742
v -22.0202 -154.421 1448.47
vn -0.640047 -0.645647 -0.416508
v -22.207 -156.011 1447.06
vn -0.352243 0.920062 0.171496
v -21.7166 -154.339 1448.87
vn -0.592361 0.782071 0.193579
v -22.1546 -155.016 1450.71
vn -0.513337 -0.734417 -0.443979
v -21.8386 -157.879 1450.16
vn -0.670092 0.660793 0.338126
v -22.3145 -156.586 1454.77
vn -0.55758 0.7631 0.326777
v -22.0032 -156.23 1454.61
vn -0.298561 -0.793897 -0.529707
v -21.9172 -161.911 1455.73
vn -0.673751 0.631597 0.383595
v -21.8262 -158.272 1458.2
vn -0.585364 0.710254 0.391009
v -21.6541 -158.566 1459.09
vn -0.361617 -0.835495 -0.41374
v -22.1412 -162.571 1457.01
vn -0.687097 0.648437 0.327762
v -22.3943 -159.985 1460.43
vn -0.530779 -0.787331 -0.313661
v -22.368 -163.061 1458.49
vn -0.417684 -0.841622 -0.342363
v -21.8514 -163.304 1458.37
vn -0.561865 -0.762736 -0.320221
v -22.0799 -163.784 1459.98
vn -0.736141 0.657208 0.161784
v -22.036 -160.045 1462.96
vn -0.711148 0.701395 0.0480924
v -21.9678 -159.903 1462.69
vn -0.474409 -0.698222 -0.536118
v -22.4026 -164.127 1460.95
vn -0.291343 -0.860534 -0.417851
v -21.6733 -164.17 1460.36
vn -0.761073 0.645513 0.0638764
v -22.0276 -160.217 1463.68
vn -0.364903 -0.744045 -0.559681
v -21.9973 -164.796 1461.43
vn -0.21617 -0.854107 -0.473045
v -21.7934 -164.962 1461.57
vn -0.266957 -0.773762 -0.574479
v -21.6833 -164.598 1461.07
vn -0.481395 -0.790524 -0.378589
v -22.4155 -164.828 1461.87
vn -0.584033 -0.789759 -0.18758
v -22.4321 -165.235 1463.05
vn -0.399963 -0.873448 -0.2777
v -22.122 -165.399 1462.97
vn -0.744306 0.624453 0.236785
v -22.378 -160.64 1465.89
vn -0.628126 -0.77805 -0.00973451
v -22.3961 -165.358 1464.03
vn -0.51742 -0.847359 -0.119416
v -22.1308 -165.528 1463.6
vn -0.620188 0.610445 0.492671
v -21.9681 -160.704 1466.8
vn -0.714948 0.55315 0.427639
v -22.346 -161.019 1466.63
vn -0.642786 0.47023 0.60474
v -22.1795 -161.314 1467.17
vn -0.702148 -0.701114 0.124206
v -22.4529 -165.277 1464.54
vn -0.50237 -0.864184 -0.0284827
v -21.8299 -165.761 1464.18
vn -0.556513 -0.826116 0.0884579
v -21.8378 -165.727 1464.75
vn -0.486464 0.514012 0.706501
v -21.7715 -161.217 1467.46
vn -0.675138 0.301163 0.673416
v -22.3869 -161.809 1467.26
vn -0.566127 0.329124 0.755763
v -21.8775 -161.714 1467.67
vn -0.480336 0.175432 0.859361
v -21.8792 -162.079 1467.78
vn -0.682069 0.0954433 0.725032
v -22.3888 -162.229 1467.39
vn -0.839273 -0.333167 0.429676
v -22.3798 -164.308 1466.71
vn -0.814198 -0.469139 0.342038
v -22.2685 -164.839 1466.39
vn -0.62441 -0.75734 0.191176
v -21.9155 -165.52 1465.69
vn -0.749053 -0.195785 0.63292
v -22.0009 -163.752 1467.65
vn -0.762103 -0.394565 0.51334
v -21.8967 -164.622 1467.32
vn -0.728944 -0.630587 0.266461
v -22.0571 -165.161 1466.34
vn -0.721136 -0.560153 0.407667
v -21.7659 -165.147 1466.99
vn -0.0887933 0.711791 -0.696757
v -21.3742 -154.397 1446.47
vn -0.031166 0.398807 -0.916505
v -21.268 -154.738 1446.23
vn 0.141156 0.876572 -0.460104
v -21.1693 -154.338 1446.55
vn 0.190117 0.66272 -0.724333
v -21.0643 -154.477 1446.4
vn 0.341607 0.467851 -0.81512
v -20.8566 -154.759 1446.28
vn 0.5551 0.718564 -0.418963
v -20.8606 -154.448 1446.57
vn 0.604044 0.484271 -0.63294
v -20.652 -154.81 1446.38
vn -0.123517 -0.406519 -0.905254
v -21.192 -155.702 1446.08
vn 0.0214065 0.0273001 -0.999398
v -21.0592 -155.441 1446.02
vn 0.263944 0.16698 -0.949974
v -20.8538 -155.345 1446.07
vn 0.238682 -0.377445 -0.894744
v -20.8542 -155.688 1446.09
vn 0.564967 0.278476 -0.776701
v -20.6496 -155.184 1446.21
vn 0.558997 -0.0604277 -0.826965
v -20.6489 -155.502 1446.15
vn 0.072076 0.971091 -0.227569
v -21.2784 -154.16 1446.99
vn 0.0390267 0.999006 -0.0215429
v -21.2869 -154.097 1447.61
vn 0.402804 0.887516 -0.223751
v -20.9688 -154.248 1446.95
vn 0.391649 0.91797 -0.0627902
v -20.9774 -154.175 1447.57
vn 0.633702 0.76255 -0.130147
v -20.7671 -154.338 1447.26
vn 0.552663 -0.502698 -0.664725
v -20.6507 -155.792 1446.27
vn -0.0776517 -0.750555 -0.65623
v -21.0631 -155.965 1446.29
vn 0.240812 -0.687575 -0.685018
v -20.8572 -155.954 1446.3
vn -0.0974705 0.98838 0.116636
v -21.2964 -154.138 1448.28
vn 0.278902 0.957754 0.0701417
v -20.8888 -154.204 1448.6
vn 0.340772 -0.767872 -0.542445
v -20.7614 -156.319 1446.81
vn -0.195484 -0.848731 -0.491367
v -21.2902 -156.872 1447.79
vn -0.00944807 0.982 0.188645
v -21.1188 -154.462 1450.32
vn -0.273558 0.924514 0.265403
v -21.2377 -154.738 1451.45
vn 0.176069 0.956469 0.232738
v -20.8257 -154.739 1451.46
vn -0.011384 -0.828287 -0.560188
v -20.8168 -158.574 1450.74
vn -0.00652373 0.947902 0.318495
v -20.755 -155.446 1453.76
vn -0.329493 0.882916 0.334507
v -21.4872 -155.907 1454.55
vn -0.622864 0.66986 0.404139
v -21.5203 -156.955 1456.91
vn -0.410544 0.820646 0.397483
v -21.3125 -156.754 1456.79
vn 0.117872 -0.832828 -0.540837
v -20.7761 -161.7 1455.16
vn -0.586279 0.680268 0.4399
v -21.2276 -157.628 1458.31
vn -0.157879 -0.860473 -0.484418
v -21.5197 -162.617 1456.76
vn -0.603637 0.71946 0.343511
v -21.361 -159.082 1460.22
vn -0.215476 -0.895487 -0.389453
v -21.4398 -163.478 1458.4
vn -0.0127383 -0.901747 -0.432077
v -20.8174 -163.426 1458.09
vn -0.643735 0.74713 0.165534
v -20.9619 -159.085 1461.15
vn -0.0792785 -0.927892 -0.364324
v -21.3545 -163.954 1459.67
vn -0.742172 0.670006 0.0164989
v -21.3068 -159.273 1463.72
vn -0.103275 -0.879091 -0.465332
v -21.056 -164.318 1460.41
vn -0.694805 0.718034 0.0409199
v -21.1122 -159.021 1464.55
vn -0.0641051 -0.858254 -0.509206
v -21.272 -164.728 1461.12
vn -0.648101 0.718729 0.251781
v -21.2322 -159.367 1465.76
vn -0.580726 0.696022 0.422268
v -21.1349 -159.487 1466.16
vn -0.522694 0.796036 0.305152
v -20.9232 -159.136 1465.77
vn -0.194647 -0.909926 -0.36626
v -21.1946 -165.699 1462.94
vn -0.351972 -0.917158 -0.186916
v -21.5153 -165.866 1463.78
vn -0.258542 0.431132 0.864454
v -20.9442 -160.307 1467.25
vn -0.389359 0.509614 0.767263
v -21.4634 -161.085 1467.53
vn 0.310443 0.211905 0.926672
v -21.2578 -161.261 1467.56
vn -0.410485 0.358253 0.838544
v -21.5697 -161.541 1467.76
vn -0.0153915 0.180959 0.98337
v -21.5716 -162.015 1467.89
vn 0.429331 0.262549 0.864143
v -21.2611 -161.953 1467.78
vn 0.494471 0.0237768 0.868869
v -20.8444 -161.398 1467.38
vn -0.436541 -0.0619193 0.897551
v -21.574 -163.598 1468.03
vn -0.610111 -0.716194 0.338866
v -21.5583 -165.43 1466.87
vn -0.488422 -0.843746 0.22257
v -21.2395 -165.876 1466.16
vn -0.00816747 0.0589905 0.998225
v -21.2658 -163.626 1468.09
vn -0.586273 -0.300574 0.752289
v -21.5717 -164.317 1467.85
vn -0.52404 -0.388519 0.757915
v -21.2625 -164.883 1467.83
vn -0.263871 -0.253816 0.930564
v -20.9552 -164.945 1467.95
vn -0.637958 -0.540656 0.548361
v -21.566 -165.025 1467.43
vn -0.493285 -0.760137 0.422921
v -21.2522 -165.553 1467.08
vn -0.420596 -0.576057 0.700898
v -20.9573 -165.228 1467.83
vn 0.778479 0.414674 -0.471185
v -20.5066 -154.879 1446.51
vn 0.731003 0.185142 -0.656778
v -20.5478 -155.225 1446.29
vn 0.798596 0.555923 -0.23064
v -20.1606 -154.893 1447.44
vn 0.896316 0.25745 -0.361023
v -20.0757 -155.302 1447.11
vn 0.733074 -0.161868 -0.660607
v -20.5179 -155.567 1446.27
vn 0.759686 -0.422623 -0.494234
v -20.3689 -155.709 1446.55
vn 0.86192 0.0356834 -0.505788
v -20.3013 -155.479 1446.56
vn 0.598198 0.801143 -0.018123
v -20.4881 -154.445 1448.36
vn 0.768433 0.631831 -0.101485
v -19.9137 -154.997 1448.32
vn 0.919083 0.286729 -0.27032
v -19.8996 -155.401 1447.53
vn 0.913365 -0.0913147 -0.396769
v -19.9688 -155.628 1447.29
vn 0.48926 0.866739 0.0968878
v -20.5928 -154.431 1449.53
vn 0.481335 0.858658 0.176134
v -20.109 -155.066 1451.76
vn 0.235326 0.93956 0.248694
v -20.5263 -154.995 1452.14
vn 0.290571 0.915196 0.279258
v -20.34 -155.42 1453.55
vn 0.0265425 0.930321 0.365784
v -20.3716 -156.214 1455.8
vn 0.130171 -0.841103 -0.524977
v -20.382 -162.376 1456.44
vn -0.2856 0.893879 0.345563
v -20.025 -158.203 1460.46
vn 0.12471 -0.877484 -0.463108
v -20.1969 -163.33 1457.92
vn -0.530586 0.796154 0.290889
v -20.4387 -158.413 1460.58
vn -0.555114 0.818958 0.145455
v -20.447 -158.622 1461.17
vn -0.599766 0.796609 -0.0754606
v -20.6781 -158.724 1462.97
vn -0.615916 0.787257 -0.0295415
v -20.6675 -158.86 1462.2
vn 0.0743159 -0.923093 -0.377329
v -20.1186 -163.956 1459.68
vn -0.564356 0.811193 0.153193
v -20.7025 -158.706 1464.72
vn -0.524367 0.851143 0.0244024
v -20.3888 -158.454 1464.39
vn 0.0840705 -0.873166 -0.480119
v -20.0522 -165.446 1462.28
vn -0.400542 0.753979 0.520655
v -20.7268 -159.396 1466.45
vn -0.334056 0.817402 0.469319
v -20.3097 -158.965 1466.1
vn -0.429939 0.644524 0.632251
v -20.8365 -159.825 1466.92
vn -0.181832 0.699504 0.691109
v -20.5281 -159.743 1466.97
vn -0.109373 0.468739 0.876539
v -20.635 -160.103 1467.24
vn 0.0826358 0.0970833 0.99184
v -20.8423 -160.557 1467.32
vn -0.00432224 0.173841 0.984764
v -20.636 -160.314 1467.3
vn 0.0337781 0.215386 0.975945
v -20.3264 -160.292 1467.26
vn 0.244367 -0.307889 0.919505
v -20.1184 -161.024 1467.11
vn -0.124859 -0.938888 -0.320779
v -20.0782 -166.351 1464.13
vn 0.477188 0.386389 0.789301
v -20.5349 -162.247 1467.41
vn -0.411164 -0.910051 0.052453
v -20.6091 -166.386 1465.26
vn -0.279602 -0.951774 -0.126291
v -20.1914 -166.505 1464.86
vn 0.294288 0.31218 0.903293
v -20.8509 -163.056 1467.89
vn 0.010893 -0.2095 0.977748
v -20.3387 -164.654 1468.07
vn -0.143828 -0.762471 0.630834
v -20.6426 -165.499 1467.69
vn -0.0943326 -0.462527 0.881573
v -20.6455 -165.262 1467.9
vn 0.11147 -0.490599 0.864226
v -20.3363 -165.254 1467.89
vn -0.294918 -0.860364 0.41569
v -20.6341 -165.878 1467.07
vn 0.726487 0.686134 -0.0379093
v -19.6762 -155.149 1449.29
vn 0.901973 0.403414 -0.153958
v -19.2583 -155.658 1449.84
vn 0.913031 -0.174553 -0.368653
v -19.3676 -156.25 1448.95
vn 0.954508 0.0701723 -0.289811
v -19.3493 -156.028 1448.97
vn 0.83886 -0.351721 -0.415459
v -19.5543 -156.477 1448.72
vn 0.762798 0.64579 0.0330646
v -19.2095 -155.63 1450.67
vn 0.93682 0.330378 -0.114968
v -19.0318 -155.952 1450.62
vn 0.924165 -0.196447 -0.327608
v -19.0802 -156.633 1449.92
vn 0.968916 0.085554 -0.232125
v -18.9842 -156.545 1450.2
vn 0.527281 0.823271 0.210237
v -19.624 -155.873 1453.9
vn 0.708679 0.687431 0.158786
v -19.0716 -156.272 1453.7
vn 0.331552 -0.766406 -0.550178
v -19.8099 -159.453 1452.39
vn 0.353972 -0.752231 -0.555745
v -19.8057 -159.994 1453.04
vn 0.516945 -0.683931 -0.514788
v -19.4086 -159.821 1453.16
vn 0.505716 0.825751 0.249773
v -19.4457 -156.539 1455.88
vn 0.386822 -0.756632 -0.52714
v -19.529 -160.752 1454.39
vn 0.539569 -0.669938 -0.509949
v -19.3178 -160.35 1454.02
vn 0.332545 0.888486 0.316237
v -19.5642 -156.856 1456.99
vn 0.375845 -0.751012 -0.542883
v -19.1357 -161.558 1455.72
vn 0.266334 -0.810163 -0.522208
v -19.3546 -162.261 1456.63
vn 0.182209 0.955641 0.231408
v -19.4042 -158.145 1460.27
vn -0.241565 0.96052 0.138013
v -19.8282 -158.284 1461.12
vn 0.0842482 0.995242 0.0489506
v -19.2071 -158.27 1460.9
vn 0.292181 -0.869168 -0.398971
v -19.7867 -163.305 1458.05
vn -0.410296 0.911694 -0.0217372
v -19.9417 -158.397 1461.87
vn -0.211845 0.974786 -0.0700953
v -19.2408 -158.074 1463.32
vn 0.354888 -0.836164 -0.418191
v -19.8141 -164.015 1460.01
vn -0.37947 0.924587 -0.0337689
v -19.9701 -158.265 1463.91
vn -0.395204 0.899511 0.186264
v -19.9813 -158.284 1464.71
vn -0.223074 0.974209 0.0339765
v -19.4628 -158.096 1464.47
vn -0.196448 0.962593 0.186611
v -19.4674 -158.13 1464.8
vn -0.183446 0.899796 0.395872
v -19.373 -158.284 1465.42
vn -0.0716615 0.785245 0.615025
v -19.3793 -158.535 1465.87
vn -0.0412384 0.675536 0.736173
v -19.7004 -159.357 1466.71
vn 0.0296854 0.53678 0.8432
v -19.7043 -159.715 1466.99
vn 0.024533 -0.221788 0.974786
v -20.0172 -160.628 1467.25
vn 0.0180241 -0.533106 0.845856
v -19.6028 -160.998 1467.07
vn -0.0144898 -0.0318856 0.999386
v -19.4003 -160.437 1467.33
vn 0.426868 -0.119053 0.896443
v -20.0119 -161.582 1466.85
vn 0.455073 0.325863 0.828687
v -20.0124 -161.937 1466.88
vn 0.1707 -0.262294 0.94977
v -19.3903 -161.678 1466.6
vn 0.218934 0.220346 0.950534
v -19.3902 -161.79 1466.59
vn 0.233384 0.529904 0.815312
v -19.393 -162.148 1466.78
vn 0.0832827 -0.937401 -0.338147
v -19.364 -166.536 1464.62
vn 0.324434 0.528662 0.784385
v -20.0173 -162.399 1467.22
vn -0.0713926 -0.995969 0.0543084
v -19.5819 -166.691 1465.47
vn -0.162509 -0.974236 -0.156381
v -19.7818 -166.63 1465.03
vn 0.0320895 -0.991833 -0.12344
v -19.4741 -166.679 1465.13
vn 0.397058 0.392647 0.829562
v -19.3887 -163.244 1467.6
vn 0.546807 0.147387 0.824184
v -19.4076 -163.809 1467.8
vn 0.0347602 -0.837942 0.544652
v -19.6997 -166.291 1466.54
vn 0.220439 -0.695812 0.683558
v -19.6003 -166.079 1466.8
vn 0.481477 -0.473197 0.737743
v -19.4985 -165.893 1466.89
vn 0.339781 -0.488268 0.803831
v -19.4978 -165.981 1466.84
vn 0.684458 -0.331298 0.649429
v -19.3952 -165.765 1466.87
vn 0.196557 -0.79928 0.567906
v -19.3904 -166.278 1466.52
vn 0.510599 -0.323111 0.796799
v -19.3943 -165.96 1466.8
vn 0.364108 -0.564176 0.741034
v -19.3938 -166.059 1466.77
vn 0.422404 -0.558408 0.713972
v -19.2518 -166.177 1466.55
vn -0.258817 -0.915847 0.306983
v -20.0036 -166.456 1466.16
vn -0.253848 -0.963086 0.0895927
v -19.8672 -166.625 1465.61
vn 0.00222747 -0.946421 0.322927
v -19.587 -166.621 1465.83
vn 0.188708 -0.0539665 0.980549
v -20.03 -164.319 1468.1
vn 0.298305 0.207286 0.93169
v -19.7073 -163.894 1467.96
vn 0.398197 -0.0200984 0.91708
v -19.7196 -164.266 1468
vn 0.570844 -0.0466901 0.81973
v -19.4082 -164.175 1467.83
vn 0.261849 -0.332233 0.906122
v -20.0281 -164.938 1467.95
vn 0.47854 -0.288475 0.829326
v -19.719 -164.588 1467.95
vn 0.691111 -0.306933 0.654338
v -19.4071 -164.48 1467.75
vn 0.263055 -0.636127 0.725358
v -20.0241 -165.479 1467.65
vn 0.544161 -0.527414 0.652475
v -19.7104 -165.648 1467.31
vn 0.298848 -0.690482 0.65873
v -19.7048 -166.019 1466.91
vn 0.5433 -0.566297 0.619784
v -19.6034 -165.846 1467.03
vn 0.920094 0.390129 -0.0350264
v -18.7077 -156.524 1451.95
vn 0.821866 0.565632 0.0677923
v -18.8332 -156.3 1452.42
vn 0.978532 -0.0123111 -0.205728
v -18.5507 -157.123 1451.99
vn 0.759561 -0.489928 -0.427828
v -18.9502 -158.224 1451.65
vn 0.868277 0.489457 0.0807821
v -18.5149 -156.96 1453.47
vn 0.965104 0.260717 -0.0245192
v -18.3743 -157.282 1453.42
vn 0.98618 0.0249524 -0.163787
v -18.2616 -157.98 1453.87
vn 0.883863 -0.315987 -0.344874
v -18.6508 -159.172 1453.48
vn 0.879575 0.46911 0.0792644
v -18.3055 -157.81 1455.35
vn 0.810825 -0.444148 -0.381175
v -18.3422 -160.069 1454.99
vn 0.865272 -0.368655 -0.339702
v -18.3264 -160.492 1455.59
vn 0.721019 -0.528994 -0.447545
v -18.5124 -160.609 1455.36
vn 0.641393 0.743068 0.190958
v -18.9693 -157.735 1458.63
vn 0.517045 -0.717253 -0.467133
v -18.54 -162.311 1457.31
vn 0.529214 0.845632 0.0695648
v -18.4737 -158.437 1460.01
vn 0.39633 0.911214 -0.112302
v -18.4885 -158.4 1461.08
vn 0.494712 -0.801199 -0.336661
v -18.5636 -163.095 1458.99
vn -0.0425116 0.9959 -0.0798517
v -19.1225 -158.187 1462.22
vn -0.0395565 0.999067 -0.0173102
v -18.8342 -157.992 1463.72
vn 0.166379 0.982878 -0.0791726
v -18.5251 -158.012 1463.71
vn 0.155916 0.984496 0.0803584
v -18.4284 -158.036 1464.17
vn 0.567681 -0.705803 -0.423769
v -18.4919 -163.948 1461.22
vn 0.00884759 0.951086 0.308798
v -19.0615 -158.187 1465.24
vn 0.213597 0.922418 0.321746
v -18.6478 -158.199 1465.12
vn -0.0378938 0.991574 0.123877
v -19.0527 -158.058 1464.61
vn 0.105232 0.975129 0.195062
v -18.7451 -158.086 1464.72
vn 0.209998 0.823352 0.52725
v -18.6557 -158.458 1465.69
vn 0.073752 0.637257 0.767114
v -19.1822 -159.123 1466.49
vn 0.163666 0.703655 0.691436
v -18.7668 -158.925 1466.25
vn 0.214118 0.613774 0.759892
v -18.5657 -159.385 1466.6
vn 0.112926 0.29468 0.9489
v -19.0907 -160.266 1467.29
vn 0.216387 0.498014 0.839737
v -18.7828 -160.105 1467.15
vn 0.0315514 -0.307553 0.951008
v -18.7814 -160.747 1467.27
vn 0.0659617 -0.234911 0.969776
v -18.472 -160.73 1467.24
vn -0.0502704 -0.566495 0.822531
v -18.47 -161.004 1467.1
vn 0.00803607 -0.496758 0.867852
v -19.1337 -161.48 1466.66
vn -0.194727 -0.416977 0.887813
v -18.4648 -161.5 1466.71
vn -0.0462431 0.0992662 0.993986
v -19.081 -161.782 1466.58
vn 0.117463 0.474536 0.872363
v -19.0837 -162.196 1466.76
vn 0.404139 -0.786713 -0.466641
v -18.4296 -165.99 1464.11
vn 0.315964 -0.875477 -0.36566
v -18.6427 -166.362 1464.61
vn 0.2796 0.50892 0.81414
v -19.0672 -162.591 1467.02
vn 0.179941 0.353053 0.918137
v -18.6747 -162.701 1466.97
vn 0.501724 0.22645 0.834861
v -18.7802 -163.114 1467.14
vn 0.852465 -0.215531 0.476287
v -18.7004 -163.742 1467.01
vn 0.400769 0.00489938 0.916166
v -18.538 -162.913 1466.98
vn 0.71166 -0.203706 0.672342
v -18.5318 -163.235 1466.92
vn 0.824084 -0.237634 0.514213
v -18.4073 -164.007 1466.18
vn 0.687394 -0.115199 0.717091
v -18.6668 -165.114 1466.3
vn 0.486493 -0.872556 -0.0443918
v -18.5456 -166.441 1465.03
vn 0.248919 -0.96176 -0.114264
v -18.9526 -166.618 1465.17
vn 0.750536 -0.107204 0.652076
v -19.0951 -164.024 1467.54
vn 0.694455 0.0717164 0.715953
v -18.9669 -163.61 1467.42
vn 0.807039 -0.290284 0.514222
v -19.0934 -164.308 1467.42
vn 0.806291 -0.217636 0.550027
v -18.8083 -164.887 1466.53
vn 0.588269 -0.267399 0.763176
v -19.1857 -165.982 1466.62
vn 0.392497 -0.641911 0.658708
v -19.0802 -166.233 1466.44
vn 0.561947 -0.0721055 0.824024
v -18.6907 -165.805 1466.29
vn 0.153389 -0.977237 0.146559
v -19.1719 -166.646 1465.61
vn 0.23412 -0.892503 0.38552
v -18.9694 -166.521 1465.87
vn 0.357175 -0.919999 0.161332
v -18.8635 -166.553 1465.66
vn 0.503947 -0.797142 0.33257
v -18.6403 -166.398 1465.86
vn 0.5663 -0.389368 0.726427
v -18.4564 -166.134 1466.03
vn 0.919073 -0.264553 -0.292091
v -18.1474 -159.608 1455
vn 0.966339 -0.0873316 -0.241995
v -17.8848 -159.439 1456.02
vn 0.80398 0.583849 0.112857
v -18.0199 -158.448 1457.02
vn 0.974613 0.103972 -0.19829
v -17.6054 -159.828 1457.45
vn 0.859051 -0.326322 -0.394392
v -17.7509 -161.115 1457.24
vn 0.909045 0.414096 -0.0465042
v -17.4865 -159.566 1458.51
vn 0.945762 -0.128802 -0.298237
v -17.5436 -160.844 1457.62
vn 0.69587 -0.589352 -0.410401
v -18.1089 -162.134 1457.64
vn 0.715991 0.698041 -0.00979508
v -17.9985 -158.848 1459.81
vn 0.818516 -0.434567 -0.375744
v -17.6138 -161.866 1458.25
vn 0.713396 0.691044 -0.116292
v -17.8826 -158.865 1460.96
vn 0.72312 -0.61245 -0.319378
v -17.6342 -162.194 1458.66
vn 0.816167 -0.533925 -0.220898
v -17.4905 -162.248 1459.21
vn 0.651571 0.717293 -0.246874
v -17.7758 -158.767 1461.67
vn 0.767663 0.581179 -0.270046
v -17.5543 -159.102 1461.42
vn 0.735494 -0.650759 -0.188579
v -17.6656 -162.766 1459.99
vn 0.516977 -0.818155 -0.251707
v -18.2652 -163.206 1459.75
vn 0.599484 -0.748017 -0.284761
v -18.0559 -162.989 1459.52
vn 0.601772 -0.743346 -0.292074
v -18.2778 -163.491 1460.65
vn 0.337441 0.91831 0.206981
v -18.2265 -158.128 1464.46
vn 0.402804 0.914659 -0.0338827
v -17.9101 -158.199 1463.93
vn 0.551843 0.832256 0.0530958
v -17.5532 -158.403 1464.1
vn 0.736724 -0.581374 -0.345314
v -18.0634 -163.663 1461.49
vn 0.746335 -0.634768 -0.200132
v -17.6814 -163.061 1461.23
vn 0.753855 -0.47215 -0.456921
v -17.8881 -164.004 1462.24
vn 0.607347 -0.631651 -0.481816
v -18.2964 -164.298 1461.97
vn 0.385273 0.837053 0.388468
v -18.2377 -158.4 1465.26
vn 0.488399 0.710043 0.507252
v -17.6241 -158.932 1465.57
vn 0.34918 0.67877 0.646022
v -18.1476 -159.097 1466.17
vn 0.338456 0.578735 0.741966
v -18.1519 -159.415 1466.47
vn 0.492006 0.59346 0.636973
v -17.7366 -159.435 1466.24
vn 0.688815 -0.555462 -0.465827
v -17.6962 -164.767 1463.24
vn 0.0829166 0.123824 0.988834
v -18.0588 -160.773 1467.16
vn -0.137919 -0.290542 0.94687
v -18.0586 -161.022 1467.14
vn 0.187912 0.388847 0.901935
v -17.7486 -160.64 1467.08
vn -0.0959963 -0.085167 0.991731
v -17.7503 -161.048 1467.19
vn -0.255422 -0.473197 0.843116
v -18.1593 -161.284 1466.97
vn -0.316564 -0.186024 0.930152
v -18.1562 -161.744 1466.74
vn -0.320637 -0.349759 0.880262
v -17.8517 -161.335 1467.07
vn -0.127206 0.0926824 0.987537
v -17.9516 -162.318 1466.83
vn 0.471876 -0.629137 0.617673
v -18.0498 -163.112 1466.47
vn 0.0893665 -0.711553 0.696926
v -17.8394 -163.294 1466.15
vn 0.627827 -0.453833 0.632352
v -18.1467 -163.575 1466.02
vn 0.546937 -0.14839 0.823918
v -18.1451 -163.872 1465.9
vn 0.264589 -0.510479 0.818171
v -18.0431 -163.555 1465.98
vn 0.273235 0.00856524 0.961909
v -18.0416 -164.179 1465.86
vn 0.0599559 -0.17222 0.983232
v -17.8353 -163.832 1465.85
vn -0.0625628 -0.517299 0.853515
v -17.7336 -163.537 1465.95
vn 0.560184 -0.792808 -0.240103
v -18.232 -166.188 1464.7
vn 0.590623 -0.689828 -0.418691
v -18.0216 -165.89 1464.4
vn 0.0866213 0.173087 0.98109
v -18.2612 -162.507 1466.87
vn 0.282846 -0.194931 0.939148
v -18.1581 -162.618 1466.86
vn -0.0272394 -0.263799 0.964193
v -17.8487 -162.603 1466.83
vn 0.78546 -0.405466 0.4676
v -18.3516 -163.458 1466.46
vn 0.544699 -0.331983 0.770124
v -18.3185 -162.957 1466.84
vn 0.300335 -0.539132 0.786852
v -18.0529 -162.883 1466.7
vn 0.0150333 -0.682456 0.730772
v -17.8463 -162.875 1466.66
vn 0.0900393 -0.0108435 0.995879
v -17.8355 -164.53 1465.85
vn 0.410597 -0.0711316 0.909038
v -18.0872 -165.616 1465.93
vn 0.395479 -0.221632 0.891333
v -17.7318 -165.421 1465.78
vn 0.69022 -0.71593 0.105077
v -17.6005 -165.701 1465.43
vn 0.658052 -0.558042 0.505525
v -17.617 -165.657 1465.57
vn 0.855492 0.497446 -0.143807
v -17.3326 -159.735 1460.63
vn 0.95857 0.240104 -0.153278
v -17.0508 -160.687 1459.56
vn 0.972082 -0.111608 -0.206399
v -17.0598 -161.236 1459.28
vn 0.884467 -0.363898 -0.292055
v -17.3467 -161.876 1458.94
vn 0.890998 -0.42352 -0.163563
v -17.234 -161.883 1459.41
vn 0.5661 0.811564 -0.144546
v -17.4847 -158.6 1462.96
vn 0.663129 0.71016 -0.2365
v -17.2728 -158.863 1462.53
vn 0.811961 0.532656 -0.238739
v -16.8893 -159.169 1462.91
vn 0.904698 0.338157 -0.259174
v -16.9139 -160.026 1461.65
vn 0.695436 0.71403 -0.0808066
v -16.9669 -158.904 1463.74
vn 0.962914 -0.00105713 -0.269806
v -16.6712 -160.68 1462.24
vn 0.91638 -0.290433 -0.275494
v -16.7736 -161.696 1462.41
vn 0.833875 -0.518628 -0.188884
v -17.4655 -162.857 1461.51
vn 0.516158 0.800655 0.304192
v -17.4073 -158.647 1464.8
vn 0.676688 0.715214 0.174819
v -17.0261 -158.87 1464.57
vn 0.820534 -0.417172 -0.390757
v -17.4785 -163.428 1462.43
vn 0.655526 0.635932 0.407278
v -17.1008 -158.976 1464.97
vn 0.615457 0.587579 0.525323
v -17.4219 -159.33 1465.83
vn 0.794832 -0.440599 -0.41727
v -17.3302 -164.523 1463.61
vn 0.650075 0.521383 0.552777
v -16.8138 -160.692 1466.53
vn 0.806457 -0.48768 -0.334358
v -17.1416 -164.811 1464.39
vn 0.7378 -0.572407 -0.357774
v -17.4506 -165.271 1464.38
vn 0.347713 0.518274 0.781338
v -17.5408 -160.518 1466.95
vn 0.191021 0.354301 0.915413
v -17.5436 -160.808 1467.15
vn -0.375605 -0.226488 0.898679
v -17.5418 -161.875 1467
vn 0.17397 0.111499 0.978418
v -17.1322 -161.385 1467.18
vn -0.190494 -0.136808 0.972109
v -17.1319 -161.836 1467.15
vn 0.0457303 0.0566859 0.997344
v -17.0291 -161.611 1467.17
vn 0.542754 0.408055 0.734104
v -16.9236 -161.114 1467
vn 0.322049 0.211502 0.922795
v -16.9256 -161.522 1467.14
vn 0.133001 0.036474 0.990444
v -16.9263 -161.734 1467.19
vn 0.548971 0.164989 0.819396
v -16.8226 -161.709 1467.14
vn -0.0939028 -0.70005 0.707893
v -17.2227 -163.34 1466.25
vn 0.380058 -0.618025 0.688187
v -16.8107 -163.337 1466.25
vn 0.0490528 -0.268224 0.962107
v -17.0124 -163.868 1465.93
vn 0.0780557 -0.556679 0.827052
v -16.9113 -163.594 1466.07
vn 0.440973 -0.507104 0.740533
v -16.8079 -163.579 1466.05
vn 0.416862 -0.412202 0.810133
v -16.8058 -163.849 1465.89
vn 0.590433 -0.39402 0.70437
v -16.9121 -164.461 1465.73
vn 0.805688 -0.535885 -0.252377
v -17.2726 -165.183 1464.66
vn 0.818708 -0.572202 -0.0479833
v -17.2555 -165.328 1465.16
vn 0.800814 -0.533707 0.271761
v -17.0856 -165.01 1465.44
vn 0.720076 -0.665027 -0.198064
v -17.4602 -165.508 1464.83
vn -0.283386 -0.126844 0.95058
v -17.541 -162.418 1466.93
vn -0.163365 -0.480587 0.861596
v -17.2322 -162.656 1466.94
vn 0.0382015 -0.259513 0.964984
v -16.9255 -162.395 1467.12
vn -0.104062 -0.570698 0.81454
v -16.9236 -162.669 1466.97
vn 0.451084 -0.0921693 0.887709
v -16.8227 -162.058 1467.14
vn 0.576558 -0.306405 0.757428
v -16.8219 -162.37 1467.07
vn 0.624267 -0.460424 0.631111
v -16.8192 -162.7 1466.88
vn 0.539033 -0.587629 0.603436
v -16.9206 -162.905 1466.76
vn 0.918502 0.312865 -0.241804
v -16.4848 -159.955 1463.08
vn 0.780742 0.620481 0.0737947
v -16.6792 -159.184 1464.28
vn 0.844328 0.526004 -0.102128
v -16.5597 -159.368 1463.97
vn 0.915221 0.390474 -0.0995004
v -16.283 -159.832 1464.19
vn 0.870369 0.484683 0.0868312
v -16.3319 -159.744 1464.47
vn 0.788172 0.544358 0.287156
v -16.45 -159.656 1464.75
vn 0.94353 0.327709 0.0485523
v -16.1848 -160.066 1464.42
vn 0.889852 0.395133 0.228109
v -16.2562 -159.978 1464.7
vn 0.953571 0.23825 0.184228
v -16.1076 -160.533 1464.88
vn 0.972674 0.212881 -0.0926692
v -16.0674 -160.523 1464.19
vn 0.963911 0.0999985 -0.24673
v -16.0471 -160.889 1464
vn 0.99829 0.0560718 0.0165484
v -15.949 -161.356 1464.45
vn 0.90529 -0.196064 -0.37684
v -16.2294 -161.99 1463.66
vn 0.962869 -0.0588113 -0.263485
v -16.0092 -161.489 1464.04
vn 0.99084 -0.102064 -0.0884291
v -15.9648 -161.631 1464.31
vn 0.806016 0.429332 0.407445
v -16.4371 -160.594 1465.89
vn 0.953474 0.146956 0.263233
v -16.2431 -160.96 1465.7
vn 0.960868 -0.21986 -0.168507
v -16.0887 -162.322 1464.3
vn 0.987746 -0.0698985 0.13954
v -16.0127 -161.915 1464.86
vn 0.863449 -0.323679 -0.386896
v -16.3144 -162.731 1463.97
vn 0.781587 0.384166 0.491466
v -16.5279 -160.97 1466.39
vn 0.90936 0.201569 0.363915
v -16.3715 -161.244 1466.25
vn 0.966712 0.0397893 0.252755
v -16.264 -161.424 1465.92
vn 0.978846 -0.190303 0.0751339
v -16.2342 -163.165 1465.25
vn 0.876674 -0.421856 -0.23126
v -16.4544 -163.896 1464.87
vn 0.953823 -0.298536 -0.0331403
v -16.3778 -163.808 1465.15
vn 0.772978 0.278332 0.570119
v -16.6123 -161.441 1466.84
vn 0.852896 -0.0603017 0.518586
v -16.5372 -161.945 1466.92
vn 0.743451 -0.431369 0.511078
v -16.5331 -162.768 1466.5
vn 0.709828 -0.420838 0.564836
v -16.4991 -163.147 1466.07
vn 0.937971 -0.198565 0.284221
v -16.2872 -163.067 1465.65
vn 0.937635 -0.293082 0.186932
v -16.3971 -163.811 1465.38
vn 0.805822 -0.343761 0.482161
v -16.4695 -163.815 1465.61
vn 0.844714 -0.436874 0.309191
v -16.5368 -164.089 1465.47
vn 0.891618 -0.450608 0.0443739
v -16.4521 -163.994 1465.28
vn 0.132553 0.319535 0.938257
v -21.4634 -161.085 1467.53
vn 0.274551 0.31148 0.909726
v -21.5697 -161.541 1467.76
vn 0.481671 -0.480987 0.73256
v -16.9236 -162.669 1466.97
vn -0.0732187 -0.710346 0.700034
v -16.9206 -162.905 1466.76
f 48//48 45//45 3//3
f 2//2 5//5 1//1
f 1//1 3//3 45//45
f 5//5 2//2 6//6
f 6//6 2//2 47//47
f 48//48 3//3 51//51
f 1//1 5//5 4//4
f 1//1 4//4 3//3
f 4//4 8//8 3//3
f 8//8 51//51 3//3
f 5//5 7//7 4//4
f 5//5 10//10 7//7
f 5//5 6//6 10//10
f 8//8 58//58 51//51
f 4//4 7//7 8//8
f 6//6 11//11 10//10
f 11//11 6//6 49//49
f 58//58 8//8 12//12
f 7//7 9//9 12//12
f 8//8 7//7 12//12
f 9//9 7//7 10//10
f 10//10 11//11 13//13
f 13//13 14//14 10//10
f 10//10 14//14 9//9
f 14//14 12//12 9//9
f 15//15 58//58 12//12
f 12//12 14//14 15//15
f 63//63 15//15 14//14
f 14//14 13//13 63//63
f 13//13 65//65 63//63
f 61//61 62//62 16//16
f 68//68 61//61 16//16
f 16//16 17//17 68//68
f 17//17 19//19 24//24
f 16//16 18//18 19//19
f 18//18 20//20 19//19
f 17//17 16//16 19//19
f 16//16 64//64 18//18
f 64//64 21//21 18//18
f 21//21 20//20 18//18
f 20//20 21//21 22//22
f 20//20 22//22 25//25
f 70//70 22//22 21//21
f 24//24 19//19 23//23
f 19//19 20//20 23//23
f 20//20 25//25 23//23
f 22//22 74//74 25//25
f 74//74 78//78 25//25
f 24//24 23//23 28//28
f 26//26 28//28 23//23
f 25//25 26//26 23//23
f 25//25 27//27 26//26
f 27//27 25//25 78//78
f 93//93 92//92 26//26
f 26//26 92//92 28//28
f 83//83 93//93 26//26
f 26//26 27//27 83//83
f 78//78 84//84 27//27
f 31//31 29//29 112//112
f 31//31 30//30 29//29
f 112//112 29//29 33//33
f 29//29 35//35 33//33
f 35//35 29//29 30//30
f 34//34 112//112 33//33
f 30//30 36//36 35//35
f 30//30 31//31 114//114
f 114//114 32//32 30//30
f 114//114 116//116 32//32
f 32//32 36//36 30//30
f 122//122 36//36 32//32
f 119//119 33//33 39//39
f 34//34 33//33 119//119
f 36//36 38//38 35//35
f 36//36 37//37 38//38
f 36//36 122//122 37//37
f 122//122 125//125 37//37
f 35//35 42//42 33//33
f 39//39 33//33 42//42
f 124//124 119//119 39//39
f 38//38 42//42 35//35
f 38//38 40//40 42//42
f 37//37 41//41 38//38
f 42//42 40//40 43//43
f 40//40 38//38 41//41
f 40//40 41//41 43//43
f 43//43 41//41 44//44
f 1//1 42//42 43//43
f 43//43 2//2 1//1
f 47//47 44//44 41//41
f 45//45 42//42 1//1
f 39//39 42//42 45//45
f 45//45 46//46 39//39
f 2//2 44//44 47//47
f 2//2 43//43 44//44
f 45//45 126//126 46//46
f 41//41 50//50 47//47
f 45//45 48//48 126//126
f 6//6 47//47 49//49
f 47//47 50//50 49//49
f 51//51 130//130 48//48
f 50//50 52//52 49//49
f 52//52 50//50 53//53
f 50//50 128//128 53//53
f 48//48 130//130 129//129
f 52//52 11//11 49//49
f 54//54 55//55 52//52
f 53//53 54//54 52//52
f 53//53 128//128 54//54
f 128//128 131//131 54//54
f 132//132 130//130 51//51
f 55//55 11//11 52//52
f 55//55 54//54 133//133
f 133//133 54//54 131//131
f 132//132 51//51 58//58
f 55//55 59//59 11//11
f 11//11 59//59 13//13
f 13//13 59//59 65//65
f 59//59 55//55 56//56
f 56//56 55//55 133//133
f 58//58 57//57 132//132
f 57//57 58//58 60//60
f 59//59 67//67 65//65
f 59//59 56//56 67//67
f 56//56 135//135 67//67
f 58//58 61//61 60//60
f 58//58 15//15 61//61
f 15//15 63//63 62//62
f 61//61 15//15 62//62
f 63//63 64//64 62//62
f 65//65 64//64 63//63
f 67//67 66//66 65//65
f 66//66 64//64 65//65
f 135//135 66//66 67//67
f 60//60 68//68 69//69
f 69//69 57//57 60//60
f 68//68 73//73 69//69
f 60//60 61//61 68//68
f 62//62 64//64 16//16
f 64//64 70//70 21//21
f 64//64 66//66 70//70
f 140//140 69//69 73//73
f 70//70 75//75 22//22
f 66//66 71//71 70//70
f 75//75 70//70 76//76
f 70//70 71//71 76//76
f 66//66 138//138 71//71
f 141//141 144//144 71//71
f 71//71 144//144 76//76
f 138//138 141//141 71//71
f 72//72 73//73 77//77
f 17//17 73//73 68//68
f 17//17 77//77 73//73
f 75//75 74//74 22//22
f 80//80 74//74 75//75
f 76//76 145//145 80//80
f 75//75 76//76 80//80
f 145//145 76//76 144//144
f 147//147 72//72 77//77
f 24//24 77//77 17//17
f 82//82 77//77 24//24
f 82//82 147//147 77//77
f 74//74 79//79 78//78
f 79//79 74//74 80//80
f 79//79 85//85 84//84
f 79//79 84//84 78//78
f 148//148 80//80 145//145
f 88//88 86//86 82//82
f 86//86 88//88 91//91
f 86//86 147//147 82//82
f 24//24 81//81 82//82
f 24//24 28//28 81//81
f 92//92 81//81 28//28
f 82//82 81//81 88//88
f 84//84 83//83 27//27
f 83//83 162//162 93//93
f 94//94 83//83 84//84
f 153//153 94//94 84//84
f 85//85 153//153 84//84
f 79//79 80//80 85//85
f 85//85 80//80 148//148
f 85//85 148//148 153//153
f 87//87 86//86 91//91
f 87//87 91//91 96//96
f 87//87 96//96 157//157
f 89//89 81//81 92//92
f 81//81 89//89 88//88
f 90//90 88//88 89//89
f 92//92 97//97 89//89
f 88//88 90//90 91//91
f 95//95 90//90 89//89
f 95//95 91//91 90//90
f 91//91 95//95 96//96
f 93//93 161//161 97//97
f 92//92 93//93 97//97
f 162//162 161//161 93//93
f 83//83 94//94 162//162
f 89//89 97//97 95//95
f 164//164 95//95 97//97
f 160//160 95//95 164//164
f 160//160 96//96 95//95
f 97//97 161//161 164//164
f 111//111 181//181 103//103
f 98//98 104//104 31//31
f 106//106 104//104 98//98
f 113//113 98//98 112//112
f 99//99 106//106 98//98
f 113//113 99//99 98//98
f 99//99 100//100 106//106
f 102//102 101//101 113//113
f 113//113 101//101 99//99
f 99//99 101//101 100//100
f 102//102 103//103 101//101
f 101//101 103//103 100//100
f 103//103 102//102 111//111
f 169//169 106//106 100//100
f 168//168 169//169 100//100
f 168//168 100//100 103//103
f 104//104 114//114 31//31
f 104//104 105//105 114//114
f 105//105 104//104 106//106
f 105//105 107//107 116//116
f 108//108 106//106 169//169
f 108//108 105//105 106//106
f 108//108 107//107 105//105
f 118//118 116//116 107//107
f 108//108 175//175 107//107
f 118//118 107//107 175//175
f 120//120 109//109 113//113
f 113//113 109//109 102//102
f 120//120 110//110 109//109
f 111//111 102//102 109//109
f 111//111 109//109 110//110
f 31//31 112//112 98//98
f 34//34 113//113 112//112
f 116//116 115//115 32//32
f 32//32 115//115 122//122
f 105//105 116//116 114//114
f 115//115 116//116 117//117
f 115//115 117//117 122//122
f 116//116 118//118 117//117
f 189//189 110//110 123//123
f 193//193 189//189 123//123
f 119//119 120//120 34//34
f 113//113 34//34 120//120
f 121//121 120//120 119//119
f 123//123 110//110 121//121
f 121//121 124//124 123//123
f 119//119 124//124 121//121
f 120//120 121//121 110//110
f 117//117 192//192 122//122
f 192//192 125//125 122//122
f 124//124 194//194 123//123
f 37//37 125//125 41//41
f 124//124 46//46 194//194
f 125//125 192//192 196//196
f 46//46 124//124 39//39
f 194//194 46//46 198//198
f 46//46 127//127 198//198
f 128//128 50//50 125//125
f 125//125 50//50 41//41
f 128//128 125//125 196//196
f 126//126 127//127 46//46
f 200//200 127//127 126//126
f 200//200 198//198 127//127
f 199//199 200//200 126//126
f 126//126 48//48 129//129
f 199//199 126//126 129//129
f 202//202 129//129 130//130
f 128//128 203//203 131//131
f 134//134 133//133 131//131
f 205//205 131//131 203//203
f 134//134 131//131 205//205
f 257//257 57//57 137//137
f 135//135 56//56 133//133
f 134//134 135//135 133//133
f 205//205 139//139 134//134
f 137//137 57//57 69//69
f 138//138 66//66 135//135
f 135//135 139//139 138//138
f 139//139 135//135 134//134
f 137//137 136//136 140//140
f 136//136 69//69 140//140
f 69//69 136//136 137//137
f 72//72 140//140 73//73
f 140//140 209//209 137//137
f 138//138 143//143 141//141
f 142//142 144//144 141//141
f 142//142 141//141 143//143
f 146//146 145//145 144//144
f 146//146 144//144 142//142
f 72//72 147//147 211//211
f 147//147 213//213 211//211
f 149//149 145//145 146//146
f 148//148 145//145 149//149
f 217//217 149//149 146//146
f 217//217 146//146 216//216
f 151//151 150//150 147//147
f 147//147 150//150 214//214
f 150//150 264//264 214//214
f 147//147 86//86 151//151
f 154//154 149//149 217//217
f 148//148 149//149 154//154
f 150//150 151//151 152//152
f 150//150 152//152 156//156
f 152//152 158//158 156//156
f 151//151 87//87 152//152
f 86//86 87//87 151//151
f 87//87 157//157 152//152
f 152//152 157//157 158//158
f 155//155 163//163 153//153
f 153//153 148//148 155//155
f 148//148 154//154 155//155
f 156//156 158//158 221//221
f 160//160 157//157 96//96
f 158//158 157//157 160//160
f 159//159 158//158 160//160
f 221//221 158//158 159//159
f 159//159 222//222 221//221
f 160//160 164//164 225//225
f 225//225 159//159 160//160
f 166//166 162//162 94//94
f 94//94 153//153 166//166
f 153//153 163//163 166//166
f 163//163 227//227 226//226
f 155//155 227//227 163//163
f 222//222 159//159 225//225
f 229//229 225//225 164//164
f 164//164 161//161 165//165
f 229//229 164//164 165//165
f 162//162 165//165 161//161
f 165//165 162//162 167//167
f 162//162 166//166 167//167
f 165//165 167//167 232//232
f 229//229 165//165 232//232
f 181//181 183//183 170//170
f 103//103 181//181 170//170
f 173//173 170//170 183//183
f 173//173 183//183 185//185
f 168//168 170//170 171//171
f 171//171 169//169 168//168
f 103//103 170//170 168//168
f 170//170 173//173 171//171
f 169//169 171//171 172//172
f 173//173 172//172 171//171
f 172//172 177//177 169//169
f 172//172 179//179 177//177
f 173//173 174//174 172//172
f 179//179 172//172 174//174
f 174//174 235//235 179//179
f 169//169 176//176 108//108
f 175//175 108//108 176//176
f 178//178 187//187 175//175
f 175//175 187//187 118//118
f 177//177 176//176 169//169
f 175//175 176//176 178//178
f 176//176 177//177 178//178
f 180//180 178//178 177//177
f 177//177 179//179 180//180
f 235//235 236//236 179//179
f 180//180 179//179 236//236
f 236//236 239//239 180//180
f 241//241 239//239 236//236
f 111//111 182//182 181//181
f 111//111 110//110 182//182
f 182//182 110//110 189//189
f 181//181 182//182 184//184
f 183//183 181//181 184//184
f 185//185 183//183 184//184
f 173//173 185//185 237//237
f 117//117 118//118 187//187
f 180//180 186//186 178//178
f 178//178 186//186 188//188
f 186//186 180//180 239//239
f 239//239 240//240 186//186
f 186//186 240//240 191//191
f 187//187 192//192 117//117
f 191//191 192//192 187//187
f 178//178 188//188 187//187
f 188//188 191//191 187//187
f 186//186 191//191 188//188
f 189//189 190//190 182//182
f 190//190 189//189 193//193
f 242//242 184//184 190//190
f 190//190 184//184 182//182
f 184//184 242//242 185//185
f 292//292 192//192 191//191
f 193//193 123//123 194//194
f 190//190 193//193 246//246
f 246//246 193//193 195//195
f 292//292 196//196 192//192
f 195//195 194//194 197//197
f 195//195 193//193 194//194
f 248//248 195//195 197//197
f 246//246 195//195 247//247
f 247//247 195//195 248//248
f 197//197 194//194 198//198
f 249//249 248//248 197//197
f 249//249 197//197 250//250
f 197//197 198//198 250//250
f 196//196 201//201 128//128
f 250//250 198//198 200//200
f 203//203 128//128 201//201
f 202//202 199//199 129//129
f 200//200 199//199 202//202
f 252//252 200//200 202//202
f 252//252 250//250 200//200
f 130//130 252//252 202//202
f 130//130 254//254 252//252
f 201//201 206//206 203//203
f 251//251 206//206 201//201
f 130//130 132//132 204//204
f 132//132 57//57 204//204
f 204//204 254//254 130//130
f 207//207 254//254 204//204
f 57//57 207//207 204//204
f 206//206 205//205 203//203
f 206//206 208//208 205//205
f 257//257 207//207 57//57
f 208//208 139//139 205//205
f 257//257 137//137 256//256
f 210//210 139//139 208//208
f 210//210 208//208 258//258
f 256//256 137//137 209//209
f 139//139 143//143 138//138
f 139//139 212//212 143//143
f 210//210 212//212 139//139
f 258//258 212//212 210//210
f 211//211 140//140 72//72
f 211//211 256//256 209//209
f 260//260 256//256 211//211
f 260//260 211//211 259//259
f 209//209 140//140 211//211
f 143//143 212//212 142//142
f 259//259 211//211 215//215
f 212//212 261//261 142//142
f 213//213 147//147 214//214
f 215//215 211//211 213//213
f 215//215 213//213 214//214
f 216//216 146//146 142//142
f 142//142 261//261 216//216
f 271//271 216//216 261//261
f 262//262 214//214 264//264
f 150//150 156//156 264//264
f 273//273 154//154 217//217
f 156//156 218//218 264//264
f 218//218 156//156 219//219
f 267//267 218//218 565//565
f 220//220 267//267 565//565
f 220//220 224//224 270//270
f 273//273 155//155 154//154
f 221//221 219//219 156//156
f 220//220 565//565 566//566
f 223//223 220//220 566//566
f 223//223 566//566 222//222
f 222//222 275//275 223//223
f 224//224 220//220 223//223
f 273//273 227//227 155//155
f 273//273 340//340 227//227
f 228//228 222//222 225//225
f 275//275 222//222 228//228
f 275//275 228//228 344//344
f 167//167 166//166 226//226
f 232//232 167//167 226//226
f 232//232 226//226 233//233
f 166//166 163//163 226//226
f 226//226 227//227 233//233
f 233//233 227//227 280//280
f 227//227 340//340 280//280
f 231//231 225//225 229//229
f 225//225 231//231 228//228
f 230//230 229//229 232//232
f 229//229 230//230 231//231
f 231//231 230//230 234//234
f 234//234 230//230 232//232
f 276//276 231//231 278//278
f 234//234 278//278 231//231
f 234//234 232//232 233//233
f 174//174 173//173 235//235
f 173//173 237//237 235//235
f 235//235 241//241 236//236
f 235//235 237//237 238//238
f 243//243 237//237 185//185
f 244//244 238//238 237//237
f 245//245 238//238 244//244
f 240//240 357//357 191//191
f 240//240 239//239 241//241
f 241//241 235//235 238//238
f 245//245 241//241 238//238
f 241//241 245//245 240//240
f 242//242 243//243 185//185
f 246//246 242//242 190//190
f 242//242 246//246 243//243
f 244//244 243//243 282//282
f 237//237 243//243 244//244
f 357//357 292//292 191//191
f 243//243 281//281 282//282
f 246//246 281//281 243//243
f 247//247 248//248 249//249
f 290//290 247//247 249//249
f 247//247 290//290 291//291
f 293//293 196//196 292//292
f 196//196 293//293 201//201
f 201//201 293//293 296//296
f 249//249 250//250 298//298
f 250//250 301//301 298//298
f 301//301 250//250 252//252
f 300//300 253//253 251//251
f 252//252 254//254 302//302
f 251//251 253//253 206//206
f 206//206 253//253 258//258
f 207//207 255//255 254//254
f 255//255 302//302 254//254
f 305//305 302//302 255//255
f 258//258 208//208 206//206
f 304//304 258//258 253//253
f 304//304 307//307 258//258
f 255//255 207//207 257//257
f 305//305 255//255 257//257
f 257//257 256//256 305//305
f 308//308 305//305 256//256
f 308//308 309//309 310//310
f 308//308 256//256 260//260
f 258//258 307//307 212//212
f 309//309 259//259 215//215
f 309//309 260//260 259//259
f 260//260 309//309 308//308
f 307//307 261//261 212//212
f 215//215 214//214 262//262
f 262//262 263//263 215//215
f 263//263 309//309 215//215
f 265//265 263//263 262//262
f 309//309 263//263 312//312
f 313//313 312//312 263//263
f 313//313 263//263 265//265
f 218//218 266//266 264//264
f 264//264 265//265 262//262
f 264//264 266//266 265//265
f 315//315 265//265 266//266
f 266//266 269//269 315//315
f 268//268 266//266 218//218
f 268//268 218//218 267//267
f 269//269 266//266 268//268
f 267//267 220//220 270//270
f 267//267 316//316 268//268
f 316//316 269//269 268//268
f 270//270 316//316 267//267
f 318//318 269//269 316//316
f 224//224 319//319 270//270
f 224//224 223//223 320//320
f 224//224 320//320 319//319
f 272//272 325//325 320//320
f 271//271 217//217 216//216
f 223//223 275//275 272//272
f 320//320 223//223 272//272
f 275//275 325//325 272//272
f 341//341 273//273 274//274
f 341//341 340//340 273//273
f 327//327 341//341 274//274
f 274//274 273//273 217//217
f 274//274 217//217 271//271
f 280//280 340//340 331//331
f 228//228 343//343 344//344
f 228//228 231//231 276//276
f 343//343 228//228 276//276
f 276//276 278//278 279//279
f 279//279 347//347 276//276
f 347//347 279//279 350//350
f 343//343 276//276 347//347
f 280//280 277//277 233//233
f 234//234 233//233 277//277
f 278//278 234//234 277//277
f 277//277 331//331 350//350
f 280//280 331//331 277//277
f 279//279 278//278 277//277
f 279//279 277//277 350//350
f 244//244 284//284 245//245
f 284//284 283//283 245//245
f 283//283 285//285 245//245
f 240//240 245//245 285//285
f 240//240 285//285 357//357
f 244//244 282//282 284//284
f 288//288 283//283 284//284
f 282//282 289//289 284//284
f 288//288 285//285 283//283
f 357//357 285//285 288//288
f 286//286 246//246 247//247
f 246//246 286//286 281//281
f 282//282 281//281 286//286
f 286//286 354//354 287//287
f 282//282 286//286 287//287
f 289//289 282//282 287//287
f 284//284 289//289 288//288
f 291//291 286//286 247//247
f 291//291 355//355 286//286
f 355//355 291//291 358//358
f 357//357 365//365 294//294
f 294//294 292//292 357//357
f 290//290 295//295 291//291
f 292//292 294//294 293//293
f 290//290 249//249 295//295
f 295//295 249//249 298//298
f 293//293 294//294 296//296
f 297//297 296//296 294//294
f 295//295 366//366 291//291
f 296//296 299//299 201//201
f 296//296 297//297 299//299
f 365//365 297//297 294//294
f 297//297 365//365 367//367
f 366//366 295//295 298//298
f 367//367 299//299 297//297
f 299//299 300//300 201//201
f 201//201 300//300 251//251
f 300//300 304//304 253//253
f 301//301 252//252 302//302
f 303//303 301//301 302//302
f 302//302 305//305 371//371
f 302//302 371//371 303//303
f 370//370 307//307 304//304
f 306//306 305//305 308//308
f 305//305 306//306 371//371
f 306//306 308//308 310//310
f 311//311 309//309 312//312
f 309//309 311//311 310//310
f 378//378 310//310 311//311
f 376//376 311//311 312//312
f 314//314 313//313 265//265
f 381//381 313//313 314//314
f 307//307 393//393 261//261
f 394//394 261//261 393//393
f 466//466 393//393 307//307
f 315//315 314//314 265//265
f 384//384 315//315 269//269
f 381//381 314//314 315//315
f 381//381 315//315 384//384
f 384//384 269//269 318//318
f 316//316 270//270 317//317
f 386//386 316//316 317//317
f 384//384 318//318 386//386
f 318//318 316//316 386//386
f 319//319 320//320 322//322
f 270//270 319//319 321//321
f 322//322 321//321 319//319
f 389//389 270//270 321//321
f 321//321 322//322 391//391
f 389//389 321//321 391//391
f 320//320 323//323 322//322
f 323//323 320//320 325//325
f 322//322 392//392 391//391
f 392//392 322//322 323//323
f 327//327 274//274 271//271
f 261//261 324//324 271//271
f 324//324 327//327 271//271
f 261//261 394//394 324//324
f 323//323 325//325 395//395
f 326//326 341//341 327//327
f 328//328 412//412 326//326
f 328//328 326//326 327//327
f 324//324 328//328 327//327
f 329//329 325//325 275//275
f 330//330 344//344 346//346
f 275//275 344//344 329//329
f 344//344 330//330 329//329
f 329//329 330//330 406//406
f 405//405 330//330 346//346
f 407//407 349//349 335//335
f 349//349 407//407 405//405
f 351//351 335//335 349//349
f 335//335 351//351 353//353
f 353//353 352//352 333//333
f 333//333 352//352 334//334
f 332//332 334//334 352//352
f 332//332 331//331 338//338
f 338//338 331//331 336//336
f 335//335 353//353 333//333
f 335//335 333//333 337//337
f 333//333 334//334 337//337
f 337//337 334//334 338//338
f 334//334 332//332 338//338
f 409//409 335//335 337//337
f 336//336 410//410 339//339
f 338//338 409//409 337//337
f 339//339 409//409 338//338
f 339//339 338//338 336//336
f 331//331 340//340 342//342
f 342//342 340//340 341//341
f 326//326 342//342 341//341
f 336//336 331//331 342//342
f 326//326 412//412 342//342
f 410//410 336//336 413//413
f 342//342 413//413 336//336
f 345//345 344//344 343//343
f 343//343 348//348 345//345
f 346//346 344//344 345//345
f 348//348 343//343 347//347
f 347//347 350//350 348//348
f 348//348 346//346 345//345
f 349//349 346//346 348//348
f 349//349 405//405 346//346
f 348//348 350//350 351//351
f 351//351 349//349 348//348
f 351//351 350//350 352//352
f 350//350 331//331 352//352
f 351//351 352//352 353//353
f 332//332 352//352 331//331
f 287//287 356//356 289//289
f 356//356 287//287 354//354
f 356//356 288//288 289//289
f 288//288 356//356 357//357
f 286//286 355//355 354//354
f 356//356 361//361 357//357
f 354//354 358//358 359//359
f 354//354 355//355 358//358
f 354//354 359//359 356//356
f 361//361 356//356 360//360
f 356//356 359//359 360//360
f 358//358 362//362 359//359
f 362//362 360//360 359//359
f 361//361 365//365 357//357
f 362//362 358//358 291//291
f 366//366 362//362 291//291
f 361//361 363//363 365//365
f 361//361 417//417 363//363
f 363//363 417//417 364//364
f 365//365 363//363 364//364
f 298//298 301//301 366//366
f 299//299 367//367 300//300
f 367//367 304//304 300//300
f 424//424 367//367 365//365
f 301//301 368//368 366//366
f 301//301 369//369 368//368
f 370//370 304//304 367//367
f 367//367 424//424 370//370
f 301//301 303//303 369//369
f 369//369 427//427 368//368
f 371//371 369//369 303//303
f 433//433 307//307 370//370
f 434//434 433//433 370//370
f 373//373 369//369 371//371
f 307//307 433//433 435//435
f 372//372 371//371 306//306
f 306//306 310//310 372//372
f 373//373 371//371 372//372
f 374//374 373//373 372//372
f 375//375 307//307 435//435
f 439//439 375//375 435//435
f 376//376 378//378 311//311
f 378//378 376//376 379//379
f 377//377 376//376 380//380
f 377//377 379//379 376//376
f 372//372 310//310 378//378
f 374//374 372//372 378//378
f 379//379 374//374 378//378
f 436//436 374//374 379//379
f 377//377 436//436 379//379
f 466//466 307//307 442//442
f 442//442 307//307 375//375
f 442//442 375//375 439//439
f 380//380 376//376 312//312
f 380//380 312//312 313//313
f 377//377 380//380 443//443
f 382//382 380//380 313//313
f 381//381 382//382 313//313
f 383//383 382//382 381//381
f 383//383 446//446 445//445
f 383//383 445//445 382//382
f 446//446 383//383 385//385
f 385//385 381//381 384//384
f 383//383 381//381 385//385
f 388//388 386//386 317//317
f 387//387 384//384 386//386
f 387//387 386//386 388//388
f 449//449 384//384 387//387
f 317//317 270//270 389//389
f 388//388 317//317 389//389
f 388//388 389//389 390//390
f 389//389 391//391 390//390
f 390//390 391//391 454//454
f 392//392 323//323 395//395
f 392//392 396//396 391//391
f 396//396 392//392 395//395
f 467//467 391//391 396//396
f 465//465 394//394 393//393
f 394//394 404//404 324//324
f 325//325 329//329 395//395
f 396//396 395//395 397//397
f 397//397 395//395 329//329
f 397//397 399//399 396//396
f 399//399 467//467 396//396
f 468//468 467//467 399//399
f 471//471 468//468 399//399
f 397//397 329//329 406//406
f 397//397 406//406 400//400
f 406//406 398//398 400//400
f 406//406 405//405 398//398
f 399//399 397//397 400//400
f 471//471 399//399 400//400
f 398//398 470//470 400//400
f 400//400 457//457 471//471
f 408//408 398//398 407//407
f 408//408 401//401 398//398
f 470//470 398//398 401//401
f 401//401 408//408 460//460
f 408//408 402//402 460//460
f 460//460 402//402 411//411
f 462//462 460//460 411//411
f 404//404 412//412 328//328
f 412//412 404//404 414//414
f 403//403 414//414 404//404
f 403//403 404//404 394//394
f 394//394 465//465 403//403
f 403//403 415//415 414//414
f 404//404 328//328 324//324
f 330//330 405//405 406//406
f 407//407 398//398 405//405
f 335//335 409//409 402//402
f 408//408 407//407 335//335
f 408//408 335//335 402//402
f 409//409 411//411 402//402
f 339//339 410//410 409//409
f 410//410 416//416 409//409
f 411//411 409//409 416//416
f 416//416 475//475 411//411
f 412//412 413//413 342//342
f 414//414 413//413 412//412
f 415//415 413//413 414//414
f 415//415 410//410 413//413
f 410//410 415//415 416//416
f 416//416 415//415 478//478
f 360//360 362//362 422//422
f 362//362 419//419 422//422
f 361//361 360//360 417//417
f 418//418 422//422 420//420
f 417//417 360//360 418//418
f 360//360 422//422 418//418
f 421//421 364//364 418//418
f 364//364 417//417 418//418
f 419//419 362//362 366//366
f 419//419 366//366 422//422
f 420//420 423//423 418//418
f 418//418 423//423 421//421
f 365//365 364//364 421//421
f 365//365 421//421 424//424
f 421//421 423//423 482//482
f 424//424 421//421 426//426
f 368//368 425//425 366//366
f 425//425 422//422 366//366
f 368//368 427//427 425//425
f 422//422 425//425 427//427
f 428//428 424//424 426//426
f 421//421 482//482 426//426
f 428//428 370//370 424//424
f 429//429 428//428 482//482
f 426//426 482//482 428//428
f 429//429 482//482 483//483
f 434//434 370//370 428//428
f 369//369 430//430 427//427
f 430//430 431//431 427//427
f 369//369 485//485 430//430
f 427//427 431//431 479//479
f 428//428 429//429 432//432
f 483//483 432//432 429//429
f 434//434 432//432 433//433
f 428//428 432//432 434//434
f 373//373 437//437 369//369
f 373//373 374//374 437//437
f 437//437 484//484 369//369
f 369//369 484//484 485//485
f 437//437 438//438 484//484
f 491//491 432//432 483//483
f 490//490 491//491 483//483
f 432//432 435//435 433//433
f 374//374 436//436 437//437
f 436//436 438//438 437//437
f 492//492 438//438 436//436
f 432//432 440//440 435//435
f 432//432 491//491 440//440
f 439//439 435//435 440//440
f 439//439 440//440 491//491
f 436//436 443//443 492//492
f 443//443 436//436 377//377
f 493//493 438//438 492//492
f 441//441 442//442 439//439
f 439//439 494//494 441//441
f 382//382 445//445 380//380
f 443//443 380//380 444//444
f 444//444 380//380 445//445
f 492//492 443//443 444//444
f 495//495 492//492 444//444
f 442//442 441//441 448//448
f 446//446 447//447 445//445
f 447//447 446//446 501//501
f 445//445 447//447 444//444
f 444//444 447//447 496//496
f 442//442 448//448 466//466
f 446//446 385//385 501//501
f 385//385 451//451 501//501
f 521//521 466//466 500//500
f 500//500 466//466 448//448
f 449//449 387//387 450//450
f 385//385 384//384 451//451
f 451//451 384//384 449//449
f 387//387 453//453 450//450
f 452//452 449//449 450//450
f 452//452 450//450 455//455
f 451//451 449//449 502//502
f 502//502 449//449 452//452
f 504//504 502//502 452//452
f 501//501 451//451 502//502
f 387//387 388//388 453//453
f 388//388 390//390 453//453
f 453//453 390//390 454//454
f 455//455 450//450 453//453
f 454//454 455//455 453//453
f 503//503 455//455 454//454
f 503//503 505//505 455//455
f 522//522 503//503 454//454
f 452//452 505//505 504//504
f 505//505 452//452 455//455
f 454//454 391//391 456//456
f 467//467 456//456 391//391
f 456//456 467//467 469//469
f 454//454 456//456 522//522
f 456//456 469//469 522//522
f 470//470 459//459 457//457
f 457//457 458//458 473//473
f 511//511 458//458 464//464
f 470//470 401//401 459//459
f 460//460 459//459 401//401
f 459//459 461//461 457//457
f 461//461 459//459 460//460
f 458//458 457//457 461//461
f 461//461 460//460 463//463
f 460//460 462//462 463//463
f 461//461 464//464 458//458
f 464//464 461//461 463//463
f 463//463 462//462 474//474
f 466//466 465//465 393//393
f 521//521 465//465 466//466
f 469//469 467//467 468//468
f 469//469 468//468 472//472
f 468//468 471//471 472//472
f 522//522 469//469 523//523
f 523//523 469//469 473//473
f 400//400 470//470 457//457
f 457//457 472//472 471//471
f 457//457 473//473 472//472
f 469//469 472//472 473//473
f 475//475 462//462 411//411
f 474//474 462//462 475//475
f 476//476 474//474 475//475
f 477//477 415//415 403//403
f 477//477 478//478 415//415
f 465//465 477//477 403//403
f 416//416 476//476 475//475
f 478//478 476//476 416//416
f 420//420 422//422 480//480
f 420//420 480//480 481//481
f 420//420 481//481 423//423
f 481//481 483//483 482//482
f 423//423 481//481 482//482
f 422//422 427//427 479//479
f 422//422 479//479 480//480
f 430//430 485//485 431//431
f 479//479 431//431 487//487
f 480//480 479//479 487//487
f 481//481 490//490 483//483
f 484//484 488//488 485//485
f 486//486 431//431 485//485
f 487//487 431//431 486//486
f 486//486 485//485 488//488
f 530//530 487//487 486//486
f 487//487 489//489 480//480
f 480//480 489//489 481//481
f 490//490 481//481 489//489
f 438//438 493//493 488//488
f 484//484 438//438 488//488
f 532//532 486//486 488//488
f 495//495 493//493 492//492
f 493//493 531//531 488//488
f 493//493 535//535 531//531
f 493//493 495//495 535//535
f 488//488 531//531 532//532
f 439//439 491//491 494//494
f 491//491 490//490 494//494
f 495//495 444//444 496//496
f 495//495 496//496 545//545
f 495//495 545//545 535//535
f 447//447 498//498 496//496
f 545//545 496//496 498//498
f 441//441 494//494 497//497
f 441//441 497//497 448//448
f 549//549 554//554 497//497
f 549//549 497//497 494//494
f 447//447 501//501 507//507
f 447//447 507//507 498//498
f 448//448 497//497 500//500
f 499//499 500//500 497//497
f 499//499 518//518 500//500
f 500//500 518//518 521//521
f 554//554 499//499 497//497
f 518//518 499//499 554//554
f 507//507 501//501 502//502
f 507//507 502//502 504//504
f 508//508 507//507 504//504
f 506//506 508//508 504//504
f 506//506 504//504 505//505
f 509//509 508//508 506//506
f 506//506 505//505 509//509
f 507//507 508//508 510//510
f 510//510 508//508 509//509
f 524//524 526//526 509//509
f 526//526 510//510 509//509
f 557//557 510//510 526//526
f 522//522 505//505 503//503
f 458//458 511//511 473//473
f 464//464 514//514 511//511
f 512//512 511//511 514//514
f 558//558 529//529 512//512
f 513//513 463//463 474//474
f 464//464 463//463 513//513
f 464//464 513//513 514//514
f 515//515 514//514 516//516
f 514//514 513//513 516//516
f 514//514 515//515 512//512
f 516//516 513//513 517//517
f 517//517 520//520 563//563
f 562//562 516//516 517//517
f 563//563 562//562 517//517
f 519//519 477//477 521//521
f 518//518 519//519 521//521
f 477//477 519//519 520//520
f 554//554 519//519 518//518
f 478//478 477//477 520//520
f 478//478 520//520 517//517
f 521//521 477//477 465//465
f 509//509 505//505 524//524
f 523//523 473//473 568//568
f 524//524 505//505 522//522
f 524//524 522//522 523//523
f 524//524 523//523 525//525
f 523//523 568//568 525//525
f 528//528 567//567 529//529
f 526//526 524//524 527//527
f 527//527 524//524 567//567
f 527//527 557//557 526//526
f 558//558 528//528 529//529
f 567//567 528//528 527//527
f 568//568 473//473 511//511
f 512//512 568//568 511//511
f 513//513 474//474 476//476
f 478//478 517//517 476//476
f 513//513 476//476 517//517
f 530//530 540//540 487//487
f 534//534 532//532 531//531
f 531//531 535//535 534//534
f 535//535 537//537 534//534
f 534//534 533//533 532//532
f 486//486 532//532 530//530
f 532//532 533//533 530//530
f 530//530 533//533 539//539
f 533//533 534//534 536//536
f 536//536 534//534 537//537
f 530//530 539//539 540//540
f 536//536 539//539 533//533
f 489//489 487//487 540//540
f 489//489 540//540 543//543
f 490//490 489//489 542//542
f 542//542 489//489 543//543
f 535//535 545//545 537//537
f 537//537 545//545 538//538
f 539//539 536//536 538//538
f 536//536 537//537 538//538
f 539//539 541//541 540//540
f 539//539 538//538 541//541
f 540//540 541//541 543//543
f 543//543 541//541 544//544
f 542//542 547//547 549//549
f 543//543 544//544 547//547
f 542//542 543//543 547//547
f 548//548 544//544 541//541
f 547//547 544//544 548//548
f 542//542 549//549 490//490
f 494//494 490//490 549//549
f 538//538 545//545 546//546
f 545//545 551//551 546//546
f 546//546 541//541 538//538
f 541//541 546//546 548//548
f 546//546 552//552 548//548
f 560//560 553//553 548//548
f 548//548 553//553 547//547
f 547//547 553//553 555//555
f 549//549 547//547 554//554
f 547//547 555//555 554//554
f 545//545 498//498 550//550
f 545//545 550//550 551//551
f 551//551 552//552 546//546
f 552//552 557//557 548//548
f 561//561 555//555 553//553
f 553//553 560//560 561//561
f 550//550 498//498 507//507
f 507//507 556//556 550//550
f 556//556 507//507 510//510
f 510//510 557//557 556//556
f 556//556 551//551 550//550
f 551//551 557//557 552//552
f 557//557 551//551 556//556
f 528//528 558//558 557//557
f 548//548 557//557 560//560
f 512//512 515//515 559//559
f 560//560 558//558 559//559
f 559//559 562//562 560//560
f 558//558 560//560 557//557
f 512//512 559//559 558//558
f 516//516 559//559 515//515
f 562//562 559//559 516//516
f 561//561 564//564 555//555
f 562//562 563//563 561//561
f 561//561 563//563 564//564
f 561//561 560//560 562//562
f 563//563 520//520 564//564
f 520//520 519//519 564//564
f 564//564 519//519 554//554
f 564//564 554//554 555//555
f 528//528 557//557 527//527
