# Wavafront OBJ file of BodyParts3D
# BodyParts3D, Copyright(C) 2010-2011 The Database Center for Life Science licensed under CC Attribution-Share Alike 2.1 Japan.
vn -0.998267 -0.0348786 -0.0473889
v -31.6184 -141.585 1466.47
vn -0.987209 0.0581465 -0.148452
v -30.7987 -137.932 1462.34
vn -0.900133 -0.168743 -0.401604
v -30.9452 -138.97 1462.96
vn -0.972274 0.233122 0.0183598
v -30.986 -138.545 1463.3
vn -0.98351 0.156335 -0.0909199
v -31.2251 -139.801 1464.15
vn -0.893777 0.416111 0.167371
v -31.1005 -139.438 1464.58
vn -0.763344 0.61368 0.201749
v -30.9621 -139.452 1465.5
vn -0.703644 -0.341912 -0.622881
v -30.8559 -141.504 1464.09
vn -0.909641 0.41221 0.0513437
v -31.3468 -140.146 1465.71
vn -0.98255 -0.022214 -0.184666
v -31.5261 -140.972 1465.52
vn -0.890339 -0.0518828 -0.452332
v -30.8983 -142.849 1464.67
vn -0.964334 0.109316 -0.241059
v -30.841 -143.214 1464.48
vn -0.986368 0.145906 -0.0760964
v -31.0008 -144.075 1463.45
vn -0.965322 -0.171061 -0.197211
v -30.9001 -144.898 1463.03
vn -0.69401 0.691011 0.202126
v -30.8385 -139.661 1467.25
vn -0.887757 -0.211037 -0.409085
v -31.2722 -142.303 1465.18
vn -0.931748 -0.157413 -0.32721
v -31.0161 -143.038 1465.03
vn -0.850876 0.492711 0.182333
v -31.2566 -140.166 1467.1
vn -0.972908 0.22899 0.0318199
v -31.5659 -140.806 1466.76
vn -0.963904 -0.14574 -0.222819
v -31.4167 -142.821 1465.95
vn -0.921777 -0.185017 -0.340729
v -31.2719 -143.512 1465.94
vn -0.951963 -0.0291071 -0.304827
v -31.2382 -143.742 1465.94
vn -0.928006 -0.132509 -0.348205
v -31.0769 -143.553 1465.58
vn -0.96453 0.0834466 -0.250437
v -30.9775 -143.732 1465.25
vn -0.989581 0.0805605 -0.119328
v -31.0786 -144.24 1465.34
vn -0.987588 0.102628 0.1189
v -31.5955 -141.652 1467.95
vn -0.937369 0.295626 0.18424
v -31.5163 -141.002 1467.59
vn -0.90869 -0.414662 -0.0483575
v -30.7951 -146.13 1465.41
vn -0.87691 0.322889 0.356051
v -31.2012 -141.208 1469.11
vn -0.951325 -0.0314764 0.306578
v -31.4851 -142.031 1468.68
vn -0.940083 0.15823 0.302006
v -31.4008 -141.665 1468.87
vn -0.991678 -0.0963953 0.085337
v -31.5943 -142.299 1468.08
vn -0.979773 -0.176497 -0.0943117
v -31.1796 -144.995 1466.57
vn -0.731197 0.25852 0.631283
v -31.0287 -141.259 1469.43
vn -0.870041 0.0673834 0.488353
v -31.2209 -141.624 1469.24
vn -0.778312 0.0870249 0.621817
v -30.9367 -142.115 1469.69
vn -0.882912 -0.0756173 0.463409
v -31.1381 -142.722 1469.35
vn -0.928501 -0.213009 0.304161
v -31.2812 -143.596 1468.57
vn -0.954401 -0.261965 0.143158
v -31.1864 -144.961 1467.4
vn -0.915801 -0.387087 0.107109
v -30.9202 -145.743 1467.34
vn -0.790232 0.396141 -0.467552
v -30.0416 -135 1460.28
vn -0.63412 0.273113 -0.723395
v -29.9772 -135.142 1460.1
vn -0.85125 0.502037 -0.152747
v -30.1562 -134.959 1460.64
vn -0.738883 0.629891 0.239352
v -30.0853 -134.922 1461.25
vn -0.957985 0.286784 0.00441779
v -30.4388 -135.518 1461.05
vn -0.932622 0.185148 -0.309735
v -30.347 -135.511 1460.59
vn -0.769706 0.0899681 -0.632028
v -30.185 -135.553 1460.22
vn -0.847354 -0.0861053 -0.524001
v -30.3394 -136.385 1460.48
vn -0.626234 -0.188759 -0.75644
v -30.0813 -136.214 1460.16
vn -0.822303 0.460992 0.333623
v -30.2469 -135.342 1461.61
vn -0.561792 0.634515 0.53083
v -30.002 -135.269 1461.88
vn -0.716852 -0.31517 -0.621925
v -30.4024 -137.579 1461
vn -0.949069 -0.0682642 -0.307584
v -30.6112 -137.226 1461.21
vn -0.540229 -0.474939 -0.694684
v -30.1963 -137.883 1460.99
vn -0.98854 0.130579 -0.0757506
v -29.9844 -141.625 1459.63
vn -0.931815 0.31784 0.175209
v -30.6799 -137.431 1462.72
vn -0.826935 -0.318455 -0.463427
v -30.6478 -138.342 1462.02
vn -0.964059 0.203507 -0.170807
v -30.1492 -142.231 1460.13
vn -0.886704 0.429257 0.171741
v -29.9074 -141.587 1460.23
vn -0.87815 -0.154307 -0.452816
v -30.0192 -142.871 1459.8
vn -0.771812 0.480946 0.415929
v -30.3317 -137.164 1463.33
vn -0.937542 -0.0692042 -0.340919
v -30.3217 -143.111 1460.48
vn -0.793482 -0.352524 -0.496098
v -30.1097 -143.755 1460.38
vn -0.608857 -0.426453 -0.668903
v -30.3263 -140.294 1462.88
vn -0.970687 0.202562 -0.129367
v -30.6197 -143.083 1461.77
vn -0.871284 0.490604 0.0131038
v -30.452 -142.67 1461.87
vn -0.727736 0.565644 0.387875
v -30.3526 -138.35 1464.8
vn -0.541184 -0.328385 -0.774134
v -30.082 -140.983 1463.09
vn -0.878355 0.123901 -0.461671
v -30.1272 -142.043 1463.35
vn -0.734067 -0.137437 -0.665024
v -29.9607 -141.353 1463.14
vn -0.836555 0.546708 -0.0358518
v -30.0931 -142.223 1462.8
vn -0.890431 0.411502 -0.194419
v -30.0728 -142.135 1463.08
vn -0.567893 -0.598848 -0.564693
v -29.994 -144.777 1461.13
vn -0.796206 -0.175117 -0.579129
v -30.6539 -142.014 1464.18
vn -0.693877 -0.54132 -0.474876
v -30.3148 -145.17 1461.96
vn -0.927164 0.371328 -0.0498168
v -30.7498 -143.362 1463.65
vn -0.838675 -0.41558 -0.35202
v -30.6983 -145.217 1462.75
vn -0.851821 -0.474433 -0.222069
v -30.678 -145.829 1463.71
vn -0.663683 -0.634159 -0.396694
v -30.2291 -146.172 1463.19
vn -0.684097 -0.669014 -0.290572
v -30.2503 -146.476 1463.84
vn -0.589042 0.668006 0.45475
v -30.4111 -139.924 1468.97
vn -0.743128 -0.651859 -0.151132
v -30.483 -146.584 1464.94
vn -0.721292 0.493902 0.485591
v -30.8196 -140.565 1469.22
vn -0.601514 0.486704 0.633483
v -30.5327 -140.754 1469.59
vn -0.707638 0.161862 0.687786
v -30.7327 -141.813 1469.84
vn -0.694641 0.285749 0.660168
v -30.5274 -141.264 1469.9
vn -0.765162 0.267619 0.585583
v -30.223 -141.205 1470.24
vn -0.84205 -0.531029 0.0946549
v -30.4885 -146.625 1467.01
vn -0.68313 -0.726348 -0.0758428
v -30.2631 -146.973 1466.37
vn -0.832599 0.0627793 0.550306
v -30.6966 -142.512 1470.07
vn -0.917578 0.173273 0.35781
v -30.4958 -142.701 1470.43
vn -0.983233 0.0842203 0.161739
v -30.4565 -143.033 1471.08
vn -0.956364 0.250895 0.14973
v -30.3692 -142.62 1471.17
vn -0.948449 -0.0597348 0.311248
v -30.641 -143.341 1470.1
vn -0.883594 -0.364139 0.294387
v -30.1751 -146.231 1469.19
vn -0.861138 0.354845 0.364042
v -30.1406 -142.306 1471.69
vn -0.867356 0.12037 0.482913
v -30.0844 -142.863 1472.1
vn -0.94998 0.133614 0.282287
v -30.3699 -142.762 1471.45
vn -0.964236 -0.10129 0.244927
v -30.3912 -143.636 1471.34
vn -0.907701 -0.0341488 0.418226
v -30.2009 -143.459 1471.9
vn -0.899303 -0.203178 0.387264
v -30.1269 -144.15 1471.89
vn -0.616248 0.648653 -0.446641
v -29.8767 -134.756 1460.29
vn -0.533688 0.471393 -0.702115
v -29.7707 -134.89 1460.07
vn -0.247433 0.598544 -0.76192
v -29.5644 -134.763 1460.05
vn -0.318908 0.83472 -0.448932
v -29.5679 -134.548 1460.31
vn -0.311996 0.948276 -0.0585745
v -29.5733 -134.43 1460.7
vn 0.00973463 0.526819 -0.849921
v -29.1521 -134.75 1460.03
vn -0.440662 0.0775833 -0.894314
v -29.7686 -135.388 1459.91
vn -0.352057 0.296662 -0.88772
v -29.6659 -135.054 1459.94
vn -0.175234 0.105855 -0.97882
v -29.5618 -135.356 1459.85
vn -0.091163 0.324344 -0.941536
v -29.4593 -135.032 1459.9
vn -0.437805 -0.124704 -0.890379
v -29.8725 -135.881 1459.97
vn -0.202751 -0.0828466 -0.97572
v -29.4586 -135.81 1459.83
vn -0.890531 0.341423 -0.300642
v -29.5788 -139.299 1458.06
vn -0.786173 0.610554 0.0956871
v -29.4916 -139.116 1458.15
vn -0.674276 0.339836 -0.655639
v -29.3304 -139.157 1457.79
vn -0.74209 0.60343 -0.291847
v -29.3924 -139.021 1457.97
vn -0.563239 0.799807 0.207532
v -29.2469 -138.886 1458.16
vn -0.471749 0.563341 -0.678306
v -29.127 -138.835 1457.84
vn -0.457429 0.378622 -0.804614
v -29.1202 -139.092 1457.66
vn -0.809355 0.0744551 -0.582581
v -29.5352 -139.667 1457.87
vn -0.685734 -0.156052 -0.710926
v -29.4309 -140.08 1457.77
vn -0.573291 -0.0194759 -0.81912
v -29.3261 -139.778 1457.64
vn -0.532542 0.184817 -0.825979
v -29.2226 -139.414 1457.61
vn -0.3661 -0.253736 -0.895315
v -29.1088 -140.213 1457.59
vn -0.418766 0.836148 0.354247
v -29.5806 -134.532 1461.22
vn -0.62755 0.776578 -0.0557561
v -29.8826 -134.61 1460.71
vn -0.388493 -0.357737 -0.849175
v -29.8754 -136.563 1460.16
vn -0.196809 -0.288082 -0.937163
v -29.4602 -136.33 1459.94
vn -0.130019 -0.450342 -0.883339
v -29.257 -136.873 1460.13
vn -0.861576 0.45118 0.232644
v -29.6947 -139.536 1458.51
vn -0.604875 0.640814 0.472741
v -29.5452 -139.395 1458.59
vn -0.408209 0.728425 0.550238
v -29.1312 -138.984 1458.46
vn -0.981413 0.125732 -0.144984
v -29.7642 -139.718 1458.42
vn -0.85009 -0.139441 -0.507841
v -29.6094 -140.22 1458.04
vn -0.568765 -0.355181 -0.741858
v -29.3286 -140.455 1457.81
vn -0.360764 0.740126 0.567507
v -29.2833 -134.947 1462.06
vn -0.276586 -0.496357 -0.822879
v -29.7849 -138.267 1461.02
vn -0.694965 0.559728 0.451363
v -29.5671 -140.883 1460.14
vn -0.541782 0.62815 0.558479
v -29.8132 -136.291 1463.09
vn -0.576854 -0.490123 -0.653467
v -29.8976 -139.102 1461.7
vn -0.300896 -0.587837 -0.750938
v -29.59 -139.501 1461.81
vn -0.0916113 -0.553368 -0.827883
v -29.1721 -139.05 1461.39
vn -0.00267416 -0.670082 -0.742283
v -29.1774 -139.55 1461.76
vn -0.541342 -0.457894 -0.705182
v -29.6649 -143.492 1459.71
vn -0.286518 -0.520314 -0.804475
v -29.247 -143.183 1459.3
vn -0.638596 0.718355 0.275971
v -29.5643 -141.414 1461.02
vn -0.478788 -0.58068 -0.658462
v -29.6718 -144.125 1460.19
vn -0.183287 -0.635586 -0.749957
v -29.2568 -144.089 1459.99
vn -0.313259 -0.479964 -0.819453
v -29.9107 -140.318 1462.63
vn -0.139019 -0.568333 -0.810969
v -29.394 -140.344 1462.51
vn -0.281065 -0.195614 -0.939541
v -29.3973 -140.909 1462.73
vn -0.0802605 -0.373435 -0.924178
v -29.2931 -140.633 1462.65
vn -0.723452 0.617509 -0.308706
v -29.629 -141.62 1462.54
vn -0.684707 0.374879 -0.625014
v -29.6039 -141.392 1462.77
vn -0.597089 0.788525 -0.147354
v -29.3955 -141.478 1462.27
vn -0.570669 0.60199 -0.55852
v -29.3452 -141.299 1462.59
vn -0.713574 0.698508 0.0538315
v -29.7085 -141.749 1461.89
vn -0.695171 0.715992 -0.0639741
v -29.6653 -141.708 1462.26
vn -0.463483 0.886103 0.00222067
v -29.3845 -141.481 1461.8
vn -0.289589 -0.710265 -0.641609
v -29.3708 -144.839 1460.76
vn -0.511643 0.718814 0.470667
v -29.2022 -137.606 1465.32
vn -0.629381 0.0566889 -0.775026
v -29.7842 -141.258 1462.96
vn -0.821238 0.294409 -0.488765
v -29.7854 -141.58 1462.9
vn -0.810973 0.566962 -0.144487
v -29.8588 -141.898 1462.62
vn -0.573058 0.774482 0.267921
v -29.2261 -138.128 1466.33
vn -0.432053 -0.724476 -0.53709
v -29.7013 -145.928 1462.28
vn -0.542203 0.788168 0.291217
v -29.6719 -138.833 1467.69
vn -0.464606 -0.7791 -0.420884
v -29.8334 -146.608 1463.43
vn -0.283432 -0.823063 -0.492172
v -29.609 -146.48 1463.04
vn -0.339495 0.794079 0.504164
v -29.3731 -138.996 1468.43
vn -0.533886 -0.798855 -0.277121
v -29.9317 -146.819 1464.02
vn -0.242754 -0.894716 -0.374904
v -29.4168 -147.05 1464.02
vn -0.217017 -0.960339 -0.17508
v -29.4211 -147.132 1464.33
vn -0.448321 -0.879829 -0.157825
v -29.837 -147.031 1464.6
vn -0.288791 -0.9426 -0.167646
v -29.4334 -147.219 1465.21
vn -0.435689 0.776886 0.454558
v -29.3716 -140.067 1469.84
vn -0.448326 -0.882146 -0.144299
v -29.8508 -147.133 1465.6
vn -0.479275 -0.848809 -0.2232
v -29.7518 -147.253 1465.88
vn -0.344207 -0.88804 -0.304806
v -29.4406 -147.346 1465.72
vn -0.697192 0.527662 0.48528
v -30.017 -140.838 1470.25
vn -0.520393 -0.826687 -0.213959
v -29.351 -147.751 1466.67
vn -0.866134 0.360982 0.345693
v -30.0145 -141.323 1470.69
vn -0.702793 0.574749 0.41922
v -29.575 -141.055 1471.3
vn -0.661292 -0.750094 -0.00715216
v -29.1724 -148.107 1468.35
vn -0.762497 0.416167 0.495382
v -29.5343 -142.018 1472.54
vn -0.846183 -0.455297 0.27691
v -29.7987 -147.072 1469.25
vn -0.760855 -0.63593 0.129201
v -29.3735 -147.884 1468.81
vn -0.806675 0.258423 0.531501
v -29.6391 -142.447 1472.67
vn -0.832221 -0.38966 0.394428
v -29.9033 -144.841 1471.89
vn -0.792545 0.101489 0.601308
v -29.4767 -143.016 1473.07
vn -0.827691 -0.0733921 0.556365
v -29.6885 -143.564 1472.78
vn -0.799404 -0.268974 0.53722
v -29.3848 -144.672 1472.91
vn -0.111254 0.396152 -0.91142
v -28.5007 -138.92 1457.56
vn -0.0744966 0.993832 -0.0821446
v -28.9562 -134.301 1460.77
vn 0.00337494 0.732033 -0.681261
v -29.0509 -134.586 1460.16
vn -0.00300112 0.92202 -0.38713
v -28.9517 -134.384 1460.45
vn 0.283224 0.804482 -0.522105
v -28.5378 -134.54 1460.3
vn 0.201523 0.580898 -0.788636
v -28.5346 -134.767 1460.07
vn 0.542542 0.770642 -0.334303
v -28.3363 -134.478 1460.64
vn -0.0644276 0.0200874 -0.99772
v -28.9427 -135.658 1459.77
vn 0.0116223 0.152452 -0.988243
v -28.8398 -135.433 1459.79
vn 0.139852 0.361048 -0.922001
v -28.6348 -135.126 1459.87
vn 0.260083 0.218244 -0.940599
v -28.4286 -135.346 1459.85
vn -0.0461844 -0.151169 -0.987428
v -28.8398 -135.996 1459.78
vn 0.13498 -0.0227429 -0.990587
v -28.6336 -135.77 1459.77
vn -0.354895 0.90997 0.214485
v -28.7139 -138.589 1458.09
vn -0.31866 0.809035 0.49388
v -28.7178 -138.728 1458.36
vn -0.196206 0.966435 -0.165852
v -28.4024 -138.488 1457.91
vn -0.158745 0.926037 0.342425
v -28.3027 -138.483 1458.15
vn -0.307518 0.448716 -0.839098
v -28.9137 -138.96 1457.64
vn -0.413848 0.86742 -0.276246
v -28.9178 -138.667 1457.93
vn -0.253127 0.608571 -0.752042
v -28.7084 -138.755 1457.69
vn -0.190575 0.763983 -0.61645
v -28.4005 -138.564 1457.77
vn -0.273688 0.271646 -0.922661
v -28.9122 -139.248 1457.52
vn -0.306117 0.0355943 -0.951328
v -28.9112 -139.672 1457.44
vn -0.141695 -0.123334 -0.982197
v -28.6015 -139.873 1457.39
vn -0.0367663 0.172902 -0.984253
v -28.3954 -139.41 1457.39
vn -0.0905076 -0.363779 -0.927078
v -28.5004 -140.376 1457.51
vn -0.0988843 0.971308 0.216292
v -28.858 -134.319 1461.11
vn 0.184853 0.97326 -0.136363
v -28.6489 -134.304 1460.89
vn 0.0596267 0.914251 0.400737
v -28.5546 -134.446 1461.51
vn 0.26143 0.948888 0.176823
v -28.4473 -134.367 1461.21
vn 0.470189 0.877136 -0.0977544
v -28.3404 -134.399 1460.93
vn 0.068971 -0.32784 -0.942212
v -28.5325 -136.449 1459.9
vn -0.209044 -0.466436 -0.859499
v -28.813 -140.782 1457.76
vn -0.0201815 -0.491153 -0.87084
v -28.2968 -140.726 1457.68
vn -0.176179 0.844788 0.505266
v -28.9689 -134.566 1461.68
vn 0.0547195 0.796713 0.601875
v -28.3573 -134.82 1462.13
vn -0.392063 0.728488 0.561776
v -28.7405 -140.113 1459.97
vn -0.287996 0.714798 0.637277
v -28.9875 -135.613 1462.99
vn -0.063 -0.569194 -0.819786
v -28.8334 -143.127 1459.19
vn -0.213687 0.766679 0.605427
v -28.795 -136.462 1463.95
vn -0.241278 0.93099 0.273938
v -28.7669 -141.189 1461.84
vn 0.0515 -0.449406 -0.891842
v -28.9837 -140.57 1462.63
vn 0.0950659 0.121052 -0.988083
v -28.8819 -140.891 1462.71
vn -0.259473 0.889511 -0.376089
v -28.9813 -141.218 1462.44
vn 0.0487209 0.720216 -0.692037
v -28.8808 -141.082 1462.63
vn -0.00873222 0.956315 -0.292207
v -28.6738 -141.157 1462.55
vn 0.216326 0.383688 -0.897768
v -28.3684 -141.06 1462.82
vn -0.269055 0.872092 0.408736
v -28.6139 -137.539 1465.71
vn -0.177183 -0.818028 -0.547208
v -28.8747 -146.08 1462.09
vn -0.296269 0.848329 0.43882
v -29.0561 -138.532 1467.86
vn -0.0194331 -0.958679 -0.283827
v -29.0059 -147.129 1464.1
vn 0.0381442 -0.964024 -0.263066
v -28.3997 -147.268 1464.95
vn -0.147508 -0.949894 -0.275576
v -28.8162 -147.341 1465.27
vn -0.314141 -0.879888 -0.356527
v -29.0526 -147.851 1466.51
vn -0.113807 -0.87108 -0.477774
v -28.7237 -147.693 1466.02
vn -0.217745 -0.819264 -0.530465
v -28.5213 -147.885 1466.27
vn -0.471373 -0.868905 -0.151034
v -28.4441 -148.593 1468.11
vn -0.560088 0.614551 0.555543
v -28.5103 -141.171 1473
vn -0.678465 0.484699 0.552044
v -29.1283 -141.863 1472.98
vn -0.724173 0.305064 0.618473
v -29.1333 -142.452 1473.33
vn -0.599507 0.454063 0.659104
v -28.5195 -141.939 1473.64
vn -0.681879 0.215408 0.699028
v -28.6997 -142.751 1473.91
vn -0.731463 -0.546982 0.407152
v -29.026 -146.044 1472.2
vn -0.791936 -0.41924 0.443932
v -28.554 -147.507 1471.45
vn -0.764398 -0.56969 0.301908
v -28.6159 -148.32 1470.33
vn -0.641844 -0.745767 0.178517
v -28.3988 -148.595 1470.19
vn -0.728473 -0.023626 0.684667
v -28.8803 -143.625 1473.81
vn -0.637546 -0.0933472 0.764736
v -28.5266 -143.899 1474.12
vn -0.739806 -0.178202 0.648792
v -28.8302 -144.389 1473.72
vn -0.613398 -0.286289 0.736058
v -28.5249 -144.525 1473.98
vn -0.692638 -0.338354 0.637
v -28.8505 -144.956 1473.47
vn -0.712781 -0.459918 0.529546
v -28.8225 -145.487 1473.15
vn -0.658456 -0.509899 0.553569
v -28.4996 -146.696 1472.13
vn -0.0556229 0.570295 -0.819554
v -28.1933 -138.634 1457.69
vn 0.078937 0.461718 -0.883507
v -27.8836 -138.723 1457.64
vn 0.537277 0.504337 -0.676001
v -28.2263 -134.907 1460.12
vn 0.483838 0.100777 -0.869336
v -28.1206 -135.613 1459.92
vn 0.107885 0.989829 0.0927364
v -27.8894 -138.45 1458.06
vn 0.0784921 0.876435 0.475079
v -27.8935 -138.558 1458.35
vn 0.389013 0.893564 -0.224081
v -27.7845 -138.483 1457.92
vn 0.412226 0.87361 0.258602
v -27.4808 -138.652 1458.31
vn 0.0516534 0.846294 -0.530206
v -27.9893 -138.475 1457.83
vn 0.345729 0.621455 -0.703039
v -27.6789 -138.653 1457.73
vn 0.481079 0.435988 -0.760577
v -27.3852 -138.971 1457.68
vn 0.0406185 -0.17172 -0.984308
v -28.1894 -139.983 1457.38
vn 0.162588 0.00185437 -0.986692
v -27.7776 -139.761 1457.41
vn 0.207847 0.261795 -0.942477
v -27.6756 -139.22 1457.48
vn 0.232593 -0.222764 -0.946719
v -27.6755 -140.043 1457.47
vn 0.0890181 -0.406815 -0.909163
v -27.9862 -140.496 1457.57
vn 0.597727 0.798509 0.0714588
v -27.9383 -134.648 1461.42
vn 0.688859 0.693319 -0.211617
v -28.0326 -134.641 1460.96
vn 0.721629 0.279116 -0.633519
v -27.6091 -135.6 1460.35
vn 0.333534 -0.209169 -0.919241
v -28.2238 -136.308 1459.92
vn -0.146536 0.769786 0.621254
v -28.109 -139.044 1459.02
vn 0.172027 0.796365 0.579836
v -27.594 -139.056 1459.02
vn 0.327251 0.865297 0.379695
v -28.0442 -134.713 1461.85
vn 0.423151 0.780064 0.460915
v -27.6376 -135.117 1462.22
vn 0.748656 0.650975 -0.125481
v -27.4317 -135.2 1461.37
vn 0.0478607 -0.497209 -0.86631
v -27.6218 -138.542 1461.03
vn 0.0746977 0.814246 0.575694
v -27.5057 -139.962 1460.06
vn 0.105484 -0.539768 -0.835179
v -27.49 -142.683 1458.88
vn 0.103715 0.818809 0.56462
v -28.1783 -136.518 1464.04
vn 0.0298325 -0.753237 -0.657073
v -27.9441 -139.641 1461.96
vn 0.0297826 0.89378 0.447515
v -27.7788 -137.056 1464.93
vn 0.0711434 -0.391986 -0.917216
v -27.956 -140.482 1462.8
vn 0.0746453 -0.0386954 -0.996459
v -27.9577 -140.878 1462.92
vn 0.0290608 -0.644025 -0.764453
v -27.6666 -140.148 1462.63
vn -0.0711307 0.991744 -0.106701
v -27.8511 -141.231 1462.65
vn -0.0213672 0.720317 -0.693316
v -27.8536 -141.181 1462.83
vn 0.089988 -0.642107 -0.761315
v -27.5147 -144.928 1460.62
vn -0.020119 0.941672 0.335929
v -27.6837 -137.303 1465.5
vn -0.0631062 -0.766009 -0.639725
v -27.9363 -145.639 1461.29
vn -0.143627 0.922502 0.358275
v -27.7058 -137.844 1467.07
vn -0.0470611 -0.879796 -0.473016
v -28.1608 -146.462 1462.6
vn 0.0387425 -0.931348 -0.362064
v -27.8622 -146.821 1463.35
vn -0.182447 -0.702293 -0.688112
v -27.7356 -147.75 1465.89
vn -0.28593 -0.916826 -0.278699
v -28.1327 -148.697 1467.94
vn -0.506592 0.730422 0.458091
v -28.1955 -140.62 1472.59
vn -0.444636 0.583631 0.679466
v -27.9011 -141.323 1473.63
vn -0.531893 -0.846808 0.002506
v -28.175 -148.859 1469.36
vn -0.535315 0.384288 0.752171
v -28.2175 -142.325 1474.14
vn -0.683358 -0.613352 0.396007
v -28.2648 -148.33 1471.03
vn -0.472981 -0.875791 0.0963341
v -27.8523 -149.011 1469.99
vn -0.549437 -0.786353 0.282432
v -27.8622 -148.852 1470.7
vn -0.596821 0.11688 0.793816
v -28.2208 -142.981 1474.36
vn -0.574844 -0.634479 0.516712
v -28.204 -146.268 1473.1
vn -0.640913 -0.500707 0.581828
v -27.8785 -148.072 1471.88
vn -0.574371 -0.465843 0.673118
v -28.2107 -145.713 1473.59
vn 0.659184 0.690387 -0.298063
v -27.1823 -138.883 1457.96
vn 0.654849 0.735929 0.171995
v -27.1731 -138.875 1458.39
vn 0.721535 0.408189 -0.559258
v -26.9493 -139.296 1457.86
vn 0.386045 0.243877 -0.889659
v -27.3677 -139.261 1457.57
vn 0.348929 0.0259385 -0.93679
v -27.3671 -139.584 1457.52
vn 0.561552 0.184559 -0.806597
v -27.0605 -139.441 1457.69
vn 0.46171 -0.158239 -0.872802
v -27.0607 -140.139 1457.7
vn 0.746347 0.157471 -0.64666
v -26.6819 -139.804 1457.95
vn 0.767009 0.543821 -0.340523
v -27.1811 -135.61 1461.05
vn 0.391302 0.765916 0.510153
v -27.1703 -139.174 1458.97
vn 0.846127 0.50125 -0.181154
v -26.5802 -139.624 1458.28
vn 0.248596 -0.407401 -0.878763
v -27.3713 -140.75 1457.8
vn 0.472754 -0.358919 -0.804787
v -26.7582 -140.99 1458.15
vn 0.710938 0.69834 0.0829923
v -27.3526 -135.254 1461.92
vn 0.811111 0.556863 -0.178893
v -26.8267 -135.895 1461.6
vn 0.219098 -0.432725 -0.874497
v -27.314 -138.609 1461.11
vn 0.396629 -0.340524 -0.852484
v -26.903 -138.472 1461.19
vn 0.307345 -0.529463 -0.790701
v -26.8739 -142.648 1459.03
vn 0.0784084 -0.609493 -0.788905
v -27.2941 -139.024 1461.36
vn 0.281233 -0.515947 -0.80914
v -27.0099 -139.073 1461.46
vn 0.282101 0.823723 0.491832
v -26.9348 -136.45 1463.51
vn 0.0775452 -0.694458 -0.715343
v -26.9131 -139.571 1461.9
vn 0.00353791 0.92894 0.370214
v -27.214 -140.728 1461.29
vn 0.15135 0.902134 0.404038
v -26.9476 -136.938 1464.42
vn -0.135826 0.597273 -0.790453
v -27.1322 -140.935 1462.81
vn -0.0876467 0.169965 -0.981545
v -26.9263 -140.823 1462.83
vn -0.00688869 0.479508 -0.877511
v -26.8228 -140.917 1462.78
vn 0.0404642 0.0439434 -0.998214
v -26.7202 -140.818 1462.82
vn -0.144608 0.940602 -0.307176
v -27.0268 -141.042 1462.64
vn -0.0804338 0.990197 0.114194
v -26.816 -141.039 1462.3
vn -0.0168535 0.991931 -0.125654
v -26.7163 -141.037 1462.53
vn -0.0142244 0.862113 -0.506516
v -26.7188 -140.994 1462.71
vn 0.103252 -0.751135 -0.652023
v -27.3184 -145.63 1461.3
vn 0.152411 -0.804871 -0.573544
v -26.812 -146.023 1461.92
vn 0.0253161 0.931831 0.362009
v -26.7723 -137.63 1466.62
vn 0.0251664 -0.850093 -0.526031
v -27.4334 -146.224 1462.16
vn 0.110621 -0.895998 -0.430059
v -26.7216 -146.537 1462.82
vn -0.087251 0.888144 0.451206
v -27.508 -138.067 1467.66
vn -0.0682833 -0.781003 -0.620783
v -26.9636 -147.402 1465.38
vn -0.148693 -0.728053 -0.669201
v -27.4875 -147.982 1466
vn -0.145616 -0.875369 -0.461005
v -27.1843 -148.308 1466.42
vn -0.366672 0.826564 0.427017
v -27.4728 -140.17 1472.48
vn -0.384936 0.712757 0.586346
v -27.5864 -140.743 1473.23
vn -0.269838 0.797252 0.539978
v -26.9626 -140.18 1472.83
vn -0.264176 0.669333 0.694409
v -26.9764 -140.994 1473.8
vn -0.354314 -0.93244 -0.0708365
v -27.5311 -149.147 1469.11
vn -0.371174 -0.911288 0.178279
v -27.2427 -149.211 1470.59
vn -0.335108 0.503786 0.79618
v -27.2967 -142.147 1474.59
vn -0.141095 0.549641 0.8234
v -26.9882 -142.077 1474.64
vn -0.194344 0.367256 0.90959
v -26.991 -142.401 1474.83
vn -0.441158 0.244064 0.863604
v -27.6075 -142.816 1474.71
vn -0.245227 0.153347 0.957261
v -26.9933 -142.946 1474.99
vn -0.579591 -0.676508 0.454325
v -27.5659 -148.63 1471.62
vn -0.455465 -0.80552 0.379064
v -27.2553 -148.915 1471.5
vn -0.460714 0.0102706 0.887489
v -27.609 -143.554 1474.81
vn -0.431368 -0.232553 0.871688
v -27.6081 -144.21 1474.73
vn -0.135657 -0.0840892 0.987181
v -26.994 -143.66 1475.02
vn -0.0410456 -0.268956 0.962277
v -26.9926 -144.297 1474.91
vn -0.469634 -0.415985 0.778718
v -27.6017 -145.352 1474.25
vn -0.124783 -0.446424 0.886078
v -26.9849 -145.74 1474.33
vn -0.405275 -0.592791 0.695953
v -27.2855 -146.463 1473.71
vn -0.472497 -0.663152 0.580497
v -26.9567 -148.609 1472.26
vn 0.87444 0.191272 -0.445837
v -26.4087 -139.994 1458.32
vn 0.70337 -0.109184 -0.702388
v -26.4498 -140.513 1458.2
vn 0.602689 0.758099 0.249102
v -26.4676 -139.971 1459.49
vn 0.881017 0.404071 -0.24604
v -25.8705 -140.789 1459.19
vn 0.819789 0.31436 -0.478669
v -26.1874 -137.056 1461.61
vn 0.633984 -0.0371832 -0.772452
v -26.4904 -137.526 1461.17
vn 0.77304 -0.115325 -0.623786
v -25.8014 -141.48 1459.18
vn 0.515381 -0.42448 -0.744446
v -26.3587 -142.214 1459.03
vn 0.545288 0.801828 0.244403
v -26.314 -136.624 1463.32
vn 0.746968 0.652846 -0.125823
v -25.9346 -136.924 1462.7
vn 0.315243 0.927091 0.202791
v -26.1145 -136.865 1463.77
vn 0.205458 -0.492993 -0.845426
v -25.8917 -139.975 1462.51
vn 0.0609768 0.954679 0.291324
v -26.2303 -137.11 1464.69
vn 0.0246564 -0.60522 -0.795676
v -26.6139 -140.26 1462.59
vn -0.00557056 -0.327276 -0.944912
v -26.6165 -140.577 1462.77
vn -0.00617139 0.163025 -0.986603
v -26.5145 -140.829 1462.84
vn -0.0399517 0.850587 -0.524315
v -26.513 -141.002 1462.73
vn -0.0710933 0.905909 -0.417462
v -25.8936 -140.949 1462.64
vn 0.263133 -0.670141 -0.694026
v -26.3916 -145.382 1461.33
vn 0.253942 -0.896255 -0.363649
v -26.3102 -146.466 1462.86
vn 0.276289 -0.796441 -0.537909
v -26.1984 -146.096 1462.24
vn 0.154611 -0.954627 -0.254524
v -26.6312 -146.822 1463.71
vn 0.139395 -0.932673 -0.332702
v -26.2272 -146.843 1464.29
vn -0.0557195 0.912493 0.405279
v -26.29 -138.758 1468.94
vn 0.0699901 -0.827475 -0.557124
v -26.0293 -147.079 1464.86
vn 0.0373045 -0.806385 -0.590213
v -25.9411 -147.964 1465.92
vn -0.214051 0.907692 0.36094
v -26.3341 -139.615 1472.09
vn -0.166476 0.733346 0.659158
v -26.3515 -140.364 1473.33
vn -0.143653 0.823301 0.549126
v -26.037 -140.003 1472.94
vn -0.109671 0.60792 0.786388
v -26.6702 -141.163 1474.01
vn 0.0770995 0.508662 0.857507
v -26.0616 -142.043 1474.67
vn 0.0348901 0.451462 0.891608
v -26.0643 -142.34 1474.86
vn -0.312204 -0.850081 0.424137
v -26.6414 -149.064 1471.8
vn 0.0981732 0.073453 0.992455
v -26.376 -142.969 1475.04
vn 0.283305 -0.212002 0.935304
v -26.3749 -143.62 1474.95
vn 0.298801 -0.341476 0.89113
v -26.6817 -144.573 1474.77
vn 0.496339 -0.313589 0.809512
v -26.3713 -144.406 1474.68
vn 0.484841 -0.364701 0.794935
v -26.3659 -145.356 1474.27
vn 0.621955 -0.345374 0.702772
v -26.0543 -145.26 1474.09
vn 0.342016 -0.406075 0.847425
v -26.6727 -146.079 1474.1
vn -0.0108372 -0.517866 0.855393
v -26.6694 -146.533 1473.85
vn 0.398433 -0.291241 0.86973
v -26.4632 -146.411 1473.84
vn 0.563937 -0.347033 0.749362
v -26.3622 -145.907 1473.99
vn 0.728552 -0.292728 0.619292
v -26.0493 -145.878 1473.71
vn 0.632287 -0.103746 0.767756
v -26.048 -146.175 1473.62
vn -0.454391 -0.486021 0.746534
v -26.663 -147.103 1473.38
vn -0.384877 -0.664429 0.640627
v -26.6649 -146.943 1473.52
vn -0.187189 -0.499827 0.845656
v -26.3561 -147.064 1473.54
vn 0.155454 -0.344637 0.925775
v -26.047 -147.059 1473.53
vn -0.41576 -0.466312 0.780831
v -26.6585 -147.854 1473.04
vn -0.0666984 -0.419291 0.905398
v -26.0441 -147.639 1473.31
vn -0.294525 -0.695233 0.655672
v -26.4023 -148.72 1472.48
vn -0.164163 -0.528638 0.832822
v -26.0397 -148.282 1472.98
vn 0.809982 0.392402 -0.435833
v -25.6108 -137.656 1462.33
vn 0.634116 0.763846 -0.120148
v -25.1473 -137.445 1463.72
vn 0.74136 0.115259 -0.661136
v -25.02 -138.858 1462.64
vn 0.482188 -0.220974 -0.847741
v -25.0688 -139.424 1462.61
vn 0.247619 0.942993 0.222371
v -25.6709 -140.943 1461.44
vn 0.784373 0.556537 -0.273909
v -25.1782 -141.188 1461.32
vn 0.118259 -0.167586 -0.978739
v -25.5859 -140.442 1462.74
vn 0.0393201 0.600563 -0.79861
v -25.5854 -140.861 1462.69
vn 0.0567528 0.997638 -0.0386934
v -25.6815 -141.046 1462.19
vn 0.0759727 0.891281 -0.447041
v -25.48 -141.004 1462.52
vn 0.296935 0.919213 -0.258606
v -25.0186 -141.158 1462.38
vn 0.0834414 0.958115 0.273957
v -25.628 -137.423 1465.81
vn 0.399606 -0.612226 -0.682271
v -25.3673 -145.282 1461.74
vn 0.160194 0.918624 0.361203
v -25.2513 -138.619 1468.33
vn -0.0166488 0.708775 0.705238
v -25.6321 -140.372 1473.45
vn -0.0434541 -0.917006 -0.396499
v -25.3621 -149.564 1468.69
vn 0.352385 0.310479 0.882852
v -25.4411 -141.944 1474.49
vn -0.202104 -0.977234 0.0645551
v -25.4031 -149.886 1470.26
vn -0.161825 -0.967172 -0.195934
v -25.3747 -149.855 1469.58
vn 0.321337 0.172277 0.931162
v -25.7554 -142.528 1474.87
vn 0.618021 0.00162931 0.78616
v -25.4439 -142.435 1474.69
vn 0.52924 -0.211668 0.821646
v -25.7551 -142.862 1474.84
vn 0.825167 -0.27864 0.491385
v -25.4032 -144.957 1473.51
vn 0.754873 -0.00812319 0.65582
v -25.5257 -145.79 1473.1
vn 0.835355 -0.245251 0.491969
v -25.3634 -145.364 1472.96
vn -0.191696 -0.936073 0.29499
v -25.3948 -149.743 1471.03
vn -0.0814847 -0.634674 0.768472
v -25.7287 -148.553 1472.84
vn 0.113004 -0.686352 0.718436
v -25.4168 -148.79 1472.63
vn 0.164887 -0.440793 0.882334
v -25.4217 -148.283 1472.99
vn -0.142319 -0.787759 0.599317
v -25.7234 -148.931 1472.45
vn -0.109122 -0.851853 0.512289
v -25.4053 -149.406 1471.79
vn 0.840484 0.263233 -0.473598
v -24.3305 -142.459 1461.32
vn 0.368795 0.125784 -0.920961
v -24.6625 -140.551 1463
vn 0.413673 0.626842 -0.66026
v -24.4539 -141.143 1462.81
vn 0.579945 0.706036 -0.406419
v -24.5437 -141.576 1461.85
vn 0.708527 -0.303182 -0.637236
v -24.5358 -143.585 1461.24
vn 0.468879 0.878221 0.0942321
v -24.6965 -137.61 1465.5
vn 0.576683 0.814769 -0.0599105
v -24.5837 -137.649 1464.79
vn 0.595054 -0.446403 -0.668307
v -24.6479 -144.828 1461.87
vn 0.289191 0.935046 0.205079
v -25.0093 -137.53 1465.77
vn 0.556369 -0.581023 -0.594025
v -24.4507 -145.424 1462.5
vn 0.187691 0.912954 0.362335
v -24.8158 -137.824 1466.66
vn 0.323739 0.849862 0.415846
v -24.513 -138.098 1467.1
vn 0.446093 0.867961 0.218277
v -24.3011 -138.021 1466.68
vn 0.402299 -0.742157 -0.536058
v -24.7622 -145.758 1462.67
vn 0.438351 -0.79609 -0.41724
v -24.2588 -146.153 1463.75
vn 0.231152 -0.858596 -0.457583
v -24.4782 -146.572 1464.45
vn 0.165874 -0.772801 -0.612588
v -24.906 -147.55 1465.56
vn 0.0599354 0.955823 0.287768
v -24.7819 -139.271 1471.6
vn 0.00188657 0.857446 0.51457
v -25.1069 -139.767 1472.73
vn 0.179458 0.884977 0.429663
v -24.3778 -139.544 1472.16
vn 0.112038 -0.881362 -0.458965
v -24.3326 -149.517 1468.73
vn 0.298448 0.340718 0.891538
v -24.401 -141.083 1473.79
vn 0.485639 -0.487503 0.7256
v -24.4947 -142.649 1473.1
vn 0.255497 -0.529692 0.808794
v -24.4907 -143.228 1472.8
vn 0.00858033 -0.385336 0.922737
v -24.389 -143.007 1472.9
vn -0.186396 -0.468098 0.863794
v -24.3879 -143.196 1472.82
vn 0.678655 -0.401809 0.614798
v -24.7859 -143.972 1472.29
vn 0.0954555 -0.707175 0.700566
v -24.3784 -143.88 1472.12
vn -0.110666 -0.696184 0.709282
v -24.3852 -143.442 1472.62
vn 0.914812 -0.0788062 0.396116
v -24.8152 -144.111 1472.34
vn 0.847268 -0.155551 0.50788
v -24.6289 -144.521 1472.01
vn 0.866645 -0.264999 0.42273
v -24.5491 -144.656 1471.83
vn 0.419042 -0.475491 0.773506
v -24.4791 -144.14 1471.95
vn 0.724442 -0.283405 0.628383
v -24.4778 -144.436 1471.85
vn 0.755044 -0.465868 0.461385
v -24.4766 -144.547 1471.77
vn 0.56956 -0.45733 0.682972
v -24.3737 -144.396 1471.77
vn 0.56805 -0.622538 0.538298
v -24.3725 -144.483 1471.69
vn 0.888944 -0.0309514 0.456969
v -24.5813 -144.887 1471.82
vn 0.818436 -0.385003 0.42654
v -24.4698 -144.653 1471.6
vn 0.876899 -0.0251471 0.480017
v -24.4684 -144.927 1471.45
vn 0.664961 0.213696 0.715655
v -24.3291 -145.202 1471.31
vn 0.800716 0.269485 0.535006
v -24.3162 -145.527 1471.49
vn 0.130544 0.549277 0.825381
v -25.1261 -141.184 1474.08
vn 0.75189 -0.234889 0.616027
v -25.026 -142.216 1474.27
vn 0.320276 0.315723 0.893164
v -24.9091 -141.604 1474.21
vn 0.525404 -0.0593912 0.848778
v -24.7151 -141.799 1474.14
vn 0.515025 -0.547413 0.659612
v -24.4008 -141.949 1473.77
vn 0.751821 -0.412679 0.514258
v -24.7614 -143.291 1472.99
vn 0.915196 -0.235942 0.326724
v -25.0643 -143.711 1473.35
vn 0.872083 0.204473 0.444593
v -24.5446 -145.533 1471.95
vn 0.0373602 -0.999297 0.00310794
v -25.0701 -149.926 1469.9
vn 0.0977306 -0.982282 -0.15991
v -24.3447 -149.867 1469.59
vn 0.725702 0.1262 0.676336
v -24.6467 -147.294 1472.66
vn 0.841361 -0.112725 0.528588
v -24.3446 -147.935 1472.33
vn 0.0389279 -0.881679 0.470241
v -24.7837 -149.611 1471.53
vn 0.140813 -0.959145 0.245382
v -24.4675 -149.809 1471.01
vn 0.341481 -0.762597 0.549397
v -24.4737 -149.574 1471.47
vn 0.506584 -0.147841 0.849421
v -25.1131 -147.835 1473.03
vn 0.462315 -0.424648 0.778421
v -24.791 -148.446 1472.64
vn 0.692425 -0.218758 0.687526
v -24.5371 -148.351 1472.46
vn 0.356462 -0.606101 0.711039
v -24.794 -148.957 1472.29
vn 0.651646 -0.426268 0.627418
v -24.3763 -149.091 1471.88
vn 0.195776 -0.751979 0.629444
v -24.7876 -149.411 1471.82
vn 0.850919 -0.111796 -0.513263
v -24.0811 -143.129 1461.72
vn 0.734234 0.655657 -0.176109
v -23.9353 -138.201 1464.97
vn 0.799228 0.524503 -0.293482
v -23.6163 -138.705 1464.83
vn 0.825298 0.337381 -0.452833
v -23.582 -139.251 1464.31
vn 0.655392 0.216144 -0.723701
v -23.6428 -140.236 1463.75
vn 0.599382 0.392502 -0.697626
v -23.6382 -141.102 1463.41
vn 0.688117 0.455922 -0.564474
v -23.634 -141.523 1463.1
vn 0.873953 0.0485597 -0.483578
v -23.7286 -142.708 1462.48
vn 0.665849 0.745375 0.0325641
v -23.8126 -138.258 1465.75
vn 0.842576 0.532697 -0.0793661
v -23.5204 -138.624 1465.57
vn 0.550855 0.784087 0.285949
v -23.8918 -138.332 1466.87
vn 0.814778 0.568598 0.113281
v -23.3823 -138.827 1466.86
vn 0.786635 -0.377405 -0.488642
v -23.8691 -145.408 1463.21
vn 0.601272 -0.65482 -0.457912
v -24.0508 -145.781 1463.36
vn 0.679882 -0.569349 -0.462172
v -23.7407 -145.834 1464.03
vn 0.346845 0.883036 0.316141
v -24.1166 -138.886 1468.21
vn 0.561705 0.774199 0.291726
v -23.8028 -138.878 1467.87
vn 0.450325 0.889278 0.0799488
v -23.6033 -139.11 1468.33
vn 0.409302 -0.753643 -0.51429
v -24.1674 -146.376 1464.33
vn 0.462942 -0.606591 -0.646322
v -23.5538 -146.211 1464.65
vn 0.298402 -0.726272 -0.619261
v -24.179 -147.027 1465.15
vn 0.219038 0.962295 0.161275
v -24.2457 -139.081 1470.08
vn 0.286231 0.900469 0.327455
v -23.7548 -139.572 1471.8
vn 0.210097 0.71676 0.664917
v -24.1827 -140.061 1472.94
vn 0.498254 -0.454591 0.738302
v -24.1591 -144.767 1471.15
vn 0.0542388 -0.535388 0.842863
v -24.0557 -144.754 1471.12
vn 0.276546 -0.0431862 0.96003
v -24.0554 -144.857 1471.1
vn -0.0400947 -0.821887 0.568238
v -24.0595 -144.55 1471.4
vn 0.412002 0.0641922 0.908919
v -23.9946 -144.968 1471.09
vn 0.115494 -0.293608 0.948923
v -23.9523 -144.853 1471.09
vn 0.422286 -0.00270103 0.906459
v -23.8667 -145.151 1471
vn -0.166172 -0.649006 0.742414
v -23.7473 -144.775 1471.17
vn -0.273899 -0.454998 0.847323
v -23.7447 -145.024 1470.98
vn -0.289981 -0.341094 0.894184
v -23.5461 -145.06 1471.05
vn 0.0812791 -0.132607 0.98783
v -23.6416 -145.365 1470.97
vn 0.072612 -0.630884 0.772472
v -23.8836 -141.866 1473.61
vn 0.0942653 -0.138386 0.985882
v -23.8858 -141.601 1473.77
vn 0.142731 0.389036 0.910098
v -23.6788 -141.268 1473.71
vn 0.21198 -0.621269 0.75438
v -24.1865 -142.332 1473.16
vn -0.225653 -0.429963 0.874192
v -23.7747 -142.338 1473.18
vn -0.215252 -0.616737 0.757167
v -23.573 -142.034 1473.49
vn -0.277285 -0.257027 0.92577
v -24.2858 -143.114 1472.88
vn 0.0383445 -0.36698 0.929438
v -24.1845 -142.604 1473.02
vn -0.211212 -0.776454 0.593725
v -24.2803 -143.599 1472.48
vn -0.272987 -0.801309 0.532336
v -23.9737 -143.575 1472.66
vn -0.209616 -0.745829 0.632298
v -23.7612 -143.908 1472.18
vn 0.224657 -0.694782 0.683233
v -24.1665 -144.351 1471.69
vn -0.0778741 -0.66689 0.741076
v -24.1695 -144.117 1471.91
vn -0.145152 -0.766101 0.626115
v -24.0635 -144.352 1471.69
vn -0.0905683 -0.798049 0.595748
v -23.5504 -144.421 1471.83
vn 0.642897 0.156225 0.749852
v -24.1913 -145.432 1471.31
vn 0.783173 0.0918697 0.614979
v -24.0413 -145.707 1471.17
vn 0.542956 -0.0540212 0.838022
v -23.8485 -145.397 1471.02
vn 0.545095 0.0883057 0.833711
v -23.8468 -145.796 1470.9
vn 0.310801 0.193376 0.930596
v -23.5399 -146.428 1471.04
vn 0.473913 -0.0882296 0.87614
v -23.5401 -146.568 1471.05
vn 0.509865 -0.325838 0.796157
v -23.5389 -146.869 1470.96
vn 0.545906 -0.334814 0.76804
v -23.5373 -147.04 1470.84
vn 0.592854 -0.231244 0.771395
v -23.5364 -147.351 1470.77
vn 0.645489 -0.292191 0.705669
v -23.5513 -147.908 1470.5
vn 0.19587 -0.955241 -0.221698
v -23.5201 -149.735 1469.56
vn 0.324258 0.205905 0.923288
v -24.2144 -141.645 1473.85
vn -0.303513 -0.466902 0.830591
v -23.5676 -143.33 1473.09
vn 0.800169 0.269621 0.535755
v -24.2499 -146.268 1471.81
vn 0.847279 0.110855 0.519451
v -23.986 -146.959 1471.8
vn 0.761124 0.114652 0.638393
v -23.8051 -146.584 1471.3
vn 0.853593 -0.179345 0.489096
v -23.706 -146.95 1471.11
vn 0.901882 -0.0895275 0.422603
v -23.8776 -147.962 1471.05
vn 0.78233 -0.213154 0.585256
v -23.6858 -147.315 1470.92
vn 0.68 -0.285979 0.675141
v -23.651 -147.681 1470.73
vn 0.782652 0.0041249 0.622445
v -23.6163 -148.047 1470.55
vn 0.879867 -0.0780518 0.468766
v -24.1393 -148.524 1471.68
vn 0.817565 -0.0608215 0.572616
v -23.9794 -149.073 1471.4
vn 0.56803 -0.65206 0.502154
v -23.8476 -149.617 1470.89
vn 0.903371 0.370113 -0.216649
v -23.2343 -139.264 1465.24
vn 0.763039 0.289721 -0.577783
v -23.1183 -141.134 1463.93
vn 0.902305 0.174057 -0.394398
v -22.8708 -141.324 1464.29
vn 0.922663 0.382974 -0.0449923
v -23.018 -139.599 1466.11
vn 0.94407 0.27526 -0.181559
v -22.6699 -140.832 1465.36
vn 0.884853 0.0468358 -0.463509
v -22.8272 -142.728 1464.32
vn 0.848097 -0.218547 -0.482669
v -23.2736 -144.263 1463.69
vn 0.818869 -0.212601 -0.533155
v -22.673 -144.09 1464.49
vn 0.786991 -0.316872 -0.529375
v -23.2384 -144.997 1464.22
vn 0.749186 0.659928 -0.0567021
v -23.1139 -139.483 1467.68
vn 0.73796 -0.187467 -0.648283
v -22.6306 -144.994 1464.95
vn 0.639523 -0.364883 -0.676661
v -23.1403 -145.844 1464.73
vn 0.292366 -0.705674 -0.645404
v -22.7528 -147.568 1466.28
vn 0.197768 -0.810853 -0.550822
v -23.0706 -148.164 1466.9
vn 0.392841 0.770272 0.502351
v -22.8376 -140.266 1472.5
vn 0.305166 0.684058 0.662525
v -23.1543 -140.546 1473.05
vn -0.179175 -0.479521 0.859044
v -23.2333 -144.809 1471.24
vn -0.139733 -0.418729 0.897296
v -23.2666 -141.901 1473.69
vn 0.0553057 0.110994 0.992281
v -22.9584 -141.584 1473.75
vn -0.22474 -0.80095 0.554951
v -23.1459 -144.006 1472.38
vn -0.14827 -0.701524 0.697051
v -23.4495 -144.268 1471.99
vn 0.0367894 -0.822071 0.568195
v -23.3455 -144.343 1471.91
vn 0.166715 -0.857867 0.486077
v -22.9314 -144.365 1471.77
vn 0.104201 -0.8635 0.493467
v -22.9362 -144.215 1472.11
vn 0.0760813 -0.667586 0.740635
v -22.8253 -144.497 1471.54
vn -0.0343083 -0.816102 0.576889
v -23.4411 -144.666 1471.37
vn -0.304368 -0.21195 0.928675
v -23.13 -145.143 1471.22
vn -0.159305 -0.22567 0.961091
v -22.8219 -145.292 1471.28
vn -0.0790509 -0.00560328 0.996855
v -23.4341 -145.769 1470.85
vn -0.297257 -0.26186 0.918187
v -22.9215 -145.741 1471.03
vn -0.275134 0.13376 0.952056
v -22.819 -145.875 1471.07
vn -0.100063 0.151905 0.983317
v -23.4367 -146.437 1471.02
vn 0.0473516 -0.122019 0.991398
v -23.4368 -146.556 1471.03
vn 0.273906 -0.452643 0.848581
v -23.4355 -146.853 1470.93
vn -0.333841 -0.0238757 0.942327
v -23.1291 -146.603 1471.12
vn -0.00887171 -0.42595 0.904703
v -23.4333 -147.116 1470.77
vn 0.394477 -0.298389 0.86911
v -23.4326 -147.321 1470.71
vn -0.0216956 -0.556207 0.830761
v -23.33 -147.22 1470.74
vn 0.169871 -0.586126 0.792212
v -23.2247 -147.366 1470.58
vn 0.344864 -0.420191 0.83935
v -23.2226 -147.634 1470.43
vn -0.279371 -0.664492 0.693111
v -23.2282 -147.15 1470.84
vn -0.316416 -0.690753 0.650185
v -23.1229 -147.296 1470.67
vn -0.278144 -0.52185 0.806417
v -23.1199 -147.585 1470.44
vn -0.252367 -0.638805 0.726801
v -22.9151 -147.647 1470.53
vn 0.470167 -0.0831983 0.878648
v -23.4282 -147.965 1470.39
vn -0.0124266 -0.320548 0.947151
v -23.1185 -147.821 1470.34
vn 0.413893 -0.220951 0.883104
v -22.911 -148.57 1470.22
vn 0.275607 -0.896244 -0.347545
v -23.2245 -149.501 1469.1
vn 0.60864 -0.786757 0.102816
v -23.0037 -149.473 1469.47
vn 0.428155 -0.894772 -0.126754
v -22.8965 -149.388 1469.16
vn 0.479388 -0.844061 0.240311
v -22.7971 -149.33 1469.43
vn -0.363129 -0.284312 0.887302
v -23.2613 -143.082 1473.28
vn -0.249866 -0.720656 0.6467
v -23.1544 -143.628 1472.99
vn -0.123241 -0.826327 0.549541
v -22.9476 -143.714 1472.94
vn 0.654043 0.122906 0.746406
v -23.4007 -148.738 1470.54
vn 0.745116 -0.0618115 0.664065
v -23.1072 -149.287 1470.26
vn 0.816502 -0.195922 0.543083
v -22.8926 -149.145 1469.99
vn 0.209523 -0.967633 0.140666
v -23.4282 -149.572 1470.36
vn 0.287568 -0.954329 -0.0810035
v -23.2131 -149.683 1469.7
vn 0.890145 0.232562 -0.391863
v -22.1689 -142.773 1465.76
vn 0.903233 0.386248 -0.187036
v -22.415 -141.174 1466.7
vn 0.851572 0.0142823 -0.524044
v -22.1719 -143.965 1465.37
vn 0.515136 -0.460782 -0.722714
v -22.5362 -146.543 1465.54
vn 0.632037 -0.28636 -0.720088
v -22.3302 -146.26 1465.55
vn 0.652978 0.751784 -0.0918719
v -21.8752 -139.965 1469.97
vn 0.796283 0.519831 -0.309367
v -21.8043 -140.381 1469.21
vn 0.621486 -0.400518 -0.673306
v -21.8258 -146.88 1466.3
vn 0.390841 0.911612 0.127305
v -22.2925 -139.723 1470.35
vn 0.569136 0.802546 0.178899
v -21.9854 -139.91 1470.49
vn 0.653511 0.683247 0.325725
v -21.8875 -140.118 1470.85
vn 0.480174 -0.582831 -0.655546
v -21.9343 -147.491 1466.68
vn 0.432156 0.839159 0.330233
v -22.6193 -139.94 1471.63
vn 0.368921 -0.729469 -0.575996
v -21.9431 -148.075 1467.31
vn 0.533385 0.738668 0.412152
v -22.5239 -140.254 1472.16
vn 0.370668 -0.841513 -0.393015
v -21.8525 -148.626 1468.18
vn 0.638584 0.62508 0.44887
v -22.2221 -140.843 1472.67
vn 0.675247 0.527281 0.515768
v -21.9171 -141.431 1472.95
vn 0.298684 0.515171 0.80336
v -22.6477 -141.44 1473.63
vn 0.489527 0.615069 0.618104
v -22.5403 -141.143 1473.33
vn 0.619799 0.44113 0.649041
v -22.0974 -141.778 1473.47
vn 0.305011 -0.805216 0.508523
v -21.9072 -143.558 1472.2
vn 0.445239 -0.825329 0.347266
v -21.9113 -143.434 1472.5
vn 0.276907 -0.753432 0.596374
v -22.6213 -144.307 1471.69
vn 0.458022 -0.779523 0.42727
v -22.4188 -144.034 1471.95
vn 0.200689 -0.688522 0.696894
v -22.2106 -144.042 1471.79
vn -0.00743927 -0.162258 0.98672
v -22.6161 -144.952 1471.3
vn -0.0753108 -0.0622458 0.995215
v -21.9978 -145.399 1471.28
vn -0.140699 0.179556 0.973634
v -21.895 -145.866 1471.29
vn -0.104782 -0.771847 0.627114
v -21.8871 -147.757 1470.68
vn 0.0395383 -0.456389 0.888901
v -22.3954 -148.319 1470.19
vn -0.0963837 -0.623395 0.775944
v -21.881 -148.225 1470.24
vn 0.489332 -0.699029 0.521453
v -22.5944 -149.093 1469.67
vn 0.434708 -0.508153 0.743511
v -22.5993 -148.702 1470.03
vn 0.303428 -0.77377 0.556067
v -22.2849 -148.962 1469.64
vn 0.222762 -0.600209 0.768197
v -22.2907 -148.485 1470.06
vn 0.0286951 -0.808637 0.587608
v -21.8731 -148.852 1469.66
vn 0.343223 -0.928512 0.141647
v -22.1778 -149.063 1469.34
vn -0.253519 -0.221286 0.94168
v -22.5465 -142.275 1473.75
vn 0.441997 0.299717 0.845464
v -22.2369 -142.024 1473.72
vn 0.291631 0.0367745 0.955824
v -22.2378 -142.286 1473.77
vn 0.68045 0.20694 0.702967
v -22.0302 -142.194 1473.6
vn 0.0797988 -0.819259 0.567844
v -22.5413 -143.463 1473.36
vn -0.20152 -0.47011 0.859294
v -22.5447 -143.243 1473.6
vn 0.336446 -0.652614 0.678895
v -22.3385 -143.235 1473.59
vn 0.473671 -0.80136 0.365319
v -22.2288 -143.449 1473.11
vn 0.14128 -0.256437 0.95618
v -22.2371 -142.949 1473.71
vn 0.599677 -0.640401 0.479869
v -22.0272 -143.149 1473.43
vn 0.667247 -0.219134 0.711872
v -21.9261 -142.873 1473.57
vn -0.253748 0.0949172 0.962602
v -22.5143 -146.607 1471.36
vn -0.359117 -0.272561 0.892606
v -22.5138 -147.033 1471.32
vn -0.210371 -0.318387 0.924323
v -22.2059 -147.087 1471.4
vn -0.382097 -0.609616 0.694529
v -22.5116 -147.311 1471.15
vn -0.0981528 -0.730403 0.675928
v -21.8955 -147.379 1471.29
vn 0.868126 0.360528 -0.341141
v -20.9716 -143.033 1467.84
vn 0.758382 -0.0779024 -0.647138
v -21.3119 -145.54 1466.41
vn 0.722778 -0.200901 -0.661235
v -21.3747 -146.146 1466.46
vn 0.791493 0.602288 0.10386
v -21.6526 -140.214 1470.46
vn 0.832997 0.53139 -0.15408
v -21.6198 -140.299 1469.95
vn 0.875413 0.420672 -0.238088
v -21.1468 -141.413 1469.42
vn 0.952646 0.285487 -0.104701
v -20.9701 -141.634 1469.85
vn 0.911405 0.408433 -0.0502381
v -21.0547 -141.271 1470.26
vn 0.744439 -0.301694 -0.595644
v -21.2163 -146.837 1466.91
vn 0.780141 0.544378 0.308272
v -21.3897 -140.773 1470.87
vn 0.883198 0.440655 0.160575
v -21.1786 -141.047 1470.73
vn 0.558814 -0.629496 -0.539872
v -21.431 -147.901 1467.52
vn 0.68346 -0.462801 -0.564534
v -21.1869 -147.402 1467.32
vn 0.876373 0.386725 0.287077
v -21.2224 -141.474 1471.55
vn 0.590003 -0.690474 -0.418499
v -21.1339 -148.292 1468.37
vn 0.783806 0.483657 0.389517
v -21.5159 -141.626 1472.51
vn 0.89462 0.232367 0.381655
v -21.3891 -142.042 1472.64
vn 0.940479 -0.0688542 0.332804
v -21.2259 -142.591 1472.36
vn 0.803736 -0.314604 0.505008
v -21.2237 -143.14 1472.08
vn 0.43095 -0.637457 0.638695
v -21.3821 -144.216 1471.47
vn 0.642808 -0.540866 0.542459
v -21.2781 -144.182 1471.4
vn 0.625053 -0.514193 0.587294
v -21.2819 -143.975 1471.67
vn 0.824452 -0.354249 0.441346
v -21.089 -144.004 1471.28
vn 0.877609 -0.260127 0.402661
v -21.0629 -143.821 1471.38
vn 0.202565 -0.535945 0.819591
v -21.6887 -144.589 1471.29
vn 0.483672 -0.455373 0.74746
v -21.3792 -144.455 1471.26
vn 0.387771 -0.0782245 0.918431
v -21.378 -144.757 1471.17
vn 0.706094 -0.302911 0.64006
v -21.1476 -144.37 1471.09
vn 0.464841 -0.829922 -0.308467
v -21.2429 -148.584 1468.79
vn 0.759538 0.363044 0.539723
v -21.6797 -141.91 1473.06
vn 0.796267 0.155842 0.584527
v -21.635 -142.327 1473.19
vn 0.5533 -0.737794 0.386678
v -21.7099 -143.186 1472.83
vn 0.873405 -0.025823 0.48631
v -21.514 -142.601 1473.05
vn 0.807786 -0.406895 0.426519
v -21.4976 -142.875 1472.91
vn 0.805421 -0.388545 0.447582
v -21.2713 -143.004 1472.26
vn 0.217095 -0.720024 0.659117
v -21.7007 -143.54 1472.17
vn 0.311823 -0.830159 0.462171
v -21.7022 -143.477 1472.27
vn 0.602466 -0.652932 0.459036
v -21.5999 -143.39 1472.33
vn 0.497205 -0.593083 0.633277
v -21.4942 -143.465 1472.14
vn 0.241401 -0.62973 0.738354
v -21.5922 -144.026 1471.77
vn 0.118154 0.180174 0.976513
v -21.3801 -145.869 1471.3
vn 0.184545 0.0927744 0.978435
v -21.2764 -145.38 1471.25
vn 0.545933 0.163047 0.821811
v -20.9883 -145.569 1471.17
vn 0.322426 -0.946381 -0.0201206
v -21.5611 -148.89 1469.44
vn -0.227625 -0.655039 0.720493
v -21.5702 -148.5 1470.1
vn 0.250114 -0.906305 0.340666
v -21.2581 -148.731 1469.88
vn 0.001143 -0.711222 0.702967
v -21.262 -148.529 1470.16
vn -0.0188581 0.236661 0.971409
v -21.5887 -146.319 1471.47
vn -0.0607791 -0.0124124 0.998074
v -21.5898 -146.807 1471.54
vn 0.0775623 -0.391765 0.91679
v -21.2802 -147.13 1471.49
vn 0.344648 0.0604194 0.936785
v -21.0741 -146.781 1471.49
vn 0.464518 -0.418003 0.780703
v -21.0734 -147.102 1471.44
vn 0.17398 -0.730273 0.66063
v -21.2772 -147.363 1471.27
vn 0.0171204 -0.715092 0.698821
v -21.1676 -147.696 1470.8
vn 0.825479 0.0404572 -0.562981
v -20.888 -144.862 1466.9
vn 0.893279 0.162227 -0.419208
v -20.5739 -144.686 1467.46
vn 0.965629 0.21826 -0.141148
v -20.3424 -144.422 1468.29
vn 0.958391 0.0523366 -0.280621
v -20.2704 -145.065 1468.19
vn 0.895772 -0.077915 -0.437633
v -20.4758 -145.841 1467.67
vn 0.813275 -0.153321 -0.561317
v -20.8334 -146.017 1467.11
vn 0.967698 0.208051 0.142391
v -20.9276 -141.738 1470.72
vn 0.982145 0.143565 0.121576
v -20.7153 -142.877 1469.79
vn 0.99388 0.0580643 -0.0939693
v -20.1886 -145.255 1468.56
vn 0.98664 0.0968162 0.131028
v -20.2105 -145.122 1468.98
vn 0.959075 -0.096099 -0.266347
v -20.2546 -146.172 1468.32
vn 0.850311 -0.294954 -0.43586
v -20.6119 -146.986 1467.89
vn 0.977449 0.024361 0.209761
v -20.8064 -143.212 1470.65
vn 0.935974 0.0316485 0.350643
v -20.7642 -144.177 1470.5
vn 0.940602 0.121897 0.316874
v -20.4833 -145 1470.08
vn 0.952387 -0.251846 -0.171849
v -20.2279 -146.779 1468.81
vn 0.998555 -0.0506663 0.0179007
v -20.18 -146.504 1468.96
vn 0.87521 -0.383194 -0.295246
v -20.5469 -147.419 1468.48
vn 0.759664 -0.516594 -0.395021
v -20.9281 -148.071 1468.39
vn 0.926645 -0.134964 0.350875
v -20.8917 -143.906 1470.87
vn 0.857661 -0.101753 0.504047
v -20.9216 -144.228 1470.82
vn 0.719006 0.0655767 0.691903
v -20.9618 -144.599 1470.87
vn 0.863927 0.111047 0.491221
v -20.7887 -144.593 1470.63
vn 0.820802 0.15733 0.549119
v -20.6522 -145.61 1470.81
vn 0.640264 -0.729183 -0.241565
v -20.9406 -148.551 1469.28
vn 0.848963 -0.497042 -0.179477
v -20.686 -148.262 1469.43
vn 0.469324 0.166973 0.867096
v -20.9667 -145.93 1471.2
vn 0.941139 0.0496423 0.334355
v -20.5507 -146.781 1470.9
vn 0.736353 -0.345714 0.581606
v -20.6553 -147.22 1471.01
vn 0.945643 -0.104581 0.307933
v -20.4805 -147.266 1470.65
vn 0.286202 -0.664122 0.690673
v -20.9557 -148.239 1470.37
vn 0.764579 -0.638197 0.0901325
v -20.6428 -148.224 1470.03
vn 0.684928 -0.616333 0.388597
v -20.6438 -148.199 1470.16
vn 0.889544 -0.455993 0.0279628
v -20.5025 -148.038 1469.9
vn 0.834356 -0.392796 0.386732
v -20.5228 -147.906 1470.31
vn 0.97361 -0.198078 0.113353
v -20.4069 -147.672 1470.09
vn 0.645216 -0.763996 0.00270439
v -20.9451 -148.61 1469.6
vn 0.51224 -0.77649 0.36698
v -20.9503 -148.549 1469.97
vn 0.675811 0.115636 0.727947
v -20.8017 -146.676 1471.3
vn 0.789609 -0.0881814 0.607242
v -20.6807 -146.95 1471.16
vn 0.428165 -0.604672 0.671599
v -20.7569 -147.512 1470.89
vn -0.601022 0.793003 -0.0995975
v -29.127 -138.835 1457.84
vn -0.0609006 0.335087 -0.940217
v -29.3973 -140.909 1462.73
vn -0.0830546 0.357448 -0.930233
v -29.3452 -141.299 1462.59
vn 0.503756 0.863797 0.00922629
v -25.1782 -141.188 1461.32
vn 0.253816 -0.0908168 0.96298
v -23.7447 -145.024 1470.98
vn 0.381167 -0.490483 0.78367
v -24.2144 -141.645 1473.85
vn -0.393853 -0.401312 0.82694
v -23.4355 -146.853 1470.93
vn 0.725626 -0.570853 0.384179
v -23.1072 -149.287 1470.26
vn 0.608099 -0.588717 0.532567
v -22.8926 -149.145 1469.99
vn 0.673967 -0.616878 0.406484
v -23.4282 -149.572 1470.36
vn 0.747994 -0.599205 0.28541
v -23.2131 -149.683 1469.7
f 19//19 1//1 26//26
f 1//1 32//32 26//26
f 1//1 33//33 32//32
f 56//56 2//2 4//4
f 57//57 3//3 2//2
f 4//4 6//6 56//56
f 2//2 3//3 5//5
f 2//2 5//5 4//4
f 57//57 64//64 3//3
f 4//4 5//5 6//6
f 6//6 9//9 7//7
f 65//65 14//14 13//13
f 76//76 65//65 13//13
f 9//9 5//5 19//19
f 9//9 6//6 5//5
f 3//3 10//10 5//5
f 3//3 16//16 10//10
f 16//16 3//3 8//8
f 11//11 16//16 74//74
f 16//16 8//8 74//74
f 12//12 76//76 25//25
f 76//76 13//13 25//25
f 13//13 14//14 25//25
f 18//18 7//7 9//9
f 18//18 9//9 19//19
f 7//7 18//18 15//15
f 7//7 15//15 166//166
f 15//15 168//168 166//166
f 5//5 10//10 19//19
f 10//10 1//1 19//19
f 10//10 20//20 1//1
f 10//10 16//16 20//20
f 11//11 12//12 17//17
f 11//11 17//17 16//16
f 16//16 23//23 21//21
f 16//16 17//17 23//23
f 17//17 12//12 23//23
f 12//12 24//24 23//23
f 12//12 25//25 24//24
f 14//14 33//33 25//25
f 77//77 78//78 14//14
f 14//14 28//28 33//33
f 14//14 78//78 28//28
f 19//19 26//26 27//27
f 19//19 27//27 18//18
f 1//1 20//20 33//33
f 20//20 16//16 21//21
f 21//21 33//33 20//20
f 21//21 22//22 33//33
f 21//21 23//23 22//22
f 24//24 22//22 23//23
f 22//22 24//24 25//25
f 22//22 25//25 33//33
f 18//18 27//27 29//29
f 27//27 26//26 31//31
f 27//27 31//31 29//29
f 34//34 29//29 35//35
f 18//18 29//29 83//83
f 29//29 34//34 83//83
f 30//30 26//26 32//32
f 31//31 26//26 30//30
f 35//35 31//31 30//30
f 29//29 31//31 35//35
f 30//30 32//32 38//38
f 33//33 39//39 32//32
f 33//33 40//40 39//39
f 33//33 28//28 40//40
f 85//85 34//34 36//36
f 35//35 30//30 37//37
f 35//35 36//36 34//34
f 36//36 35//35 37//37
f 90//90 36//36 37//37
f 30//30 38//38 37//37
f 32//32 39//39 38//38
f 40//40 95//95 39//39
f 38//38 39//39 95//95
f 28//28 88//88 40//40
f 37//37 38//38 94//94
f 102//102 43//43 127//127
f 41//41 43//43 102//102
f 103//103 41//41 102//102
f 42//42 47//47 41//41
f 41//41 103//103 42//42
f 103//103 109//109 42//42
f 108//108 112//112 47//47
f 112//112 49//49 47//47
f 44//44 43//43 45//45
f 43//43 44//44 127//127
f 44//44 126//126 127//127
f 43//43 46//46 45//45
f 46//46 41//41 47//47
f 46//46 47//47 48//48
f 45//45 46//46 53//53
f 46//46 48//48 53//53
f 43//43 41//41 46//46
f 49//49 48//48 47//47
f 48//48 52//52 53//53
f 48//48 49//49 52//52
f 49//49 128//128 52//52
f 45//45 56//56 50//50
f 61//61 51//51 50//50
f 61//61 50//50 56//56
f 61//61 140//140 51//51
f 44//44 50//50 51//51
f 45//45 50//50 44//44
f 51//51 126//126 44//44
f 51//51 137//137 126//126
f 45//45 53//53 2//2
f 54//54 52//52 128//128
f 60//60 55//55 134//134
f 2//2 53//53 57//57
f 53//53 52//52 57//57
f 52//52 54//54 57//57
f 141//141 57//57 54//54
f 128//128 138//138 54//54
f 134//134 55//55 59//59
f 45//45 2//2 56//56
f 141//141 54//54 142//142
f 59//59 55//55 58//58
f 55//55 60//60 58//58
f 141//141 64//64 57//57
f 141//141 142//142 64//64
f 150//150 64//64 142//142
f 65//65 66//66 58//58
f 58//58 62//62 65//65
f 59//59 58//58 66//66
f 58//58 60//60 62//62
f 62//62 60//60 63//63
f 61//61 67//67 140//140
f 56//56 6//6 61//61
f 150//150 68//68 64//64
f 158//158 59//59 66//66
f 66//66 71//71 158//158
f 71//71 165//165 158//158
f 62//62 14//14 65//65
f 14//14 62//62 63//63
f 67//67 61//61 6//6
f 3//3 64//64 8//8
f 64//64 68//68 8//8
f 74//74 8//8 70//70
f 69//69 70//70 164//164
f 68//68 70//70 8//8
f 68//68 163//163 70//70
f 72//72 165//165 71//71
f 76//76 66//66 65//65
f 63//63 73//73 75//75
f 7//7 162//162 67//67
f 6//6 7//7 67//67
f 74//74 69//69 11//11
f 74//74 70//70 69//69
f 71//71 66//66 76//76
f 72//72 76//76 12//12
f 71//71 76//76 72//72
f 63//63 77//77 14//14
f 77//77 63//63 75//75
f 79//79 77//77 75//75
f 79//79 75//75 167//167
f 75//75 73//73 167//167
f 69//69 12//12 11//11
f 12//12 69//69 72//72
f 78//78 77//77 79//79
f 78//78 82//82 28//28
f 78//78 80//80 82//82
f 78//78 79//79 80//80
f 80//80 79//79 169//169
f 167//167 169//169 79//79
f 167//167 170//170 169//169
f 172//172 80//80 169//169
f 82//82 80//80 172//172
f 175//175 82//82 172//172
f 18//18 83//83 81//81
f 15//15 18//18 81//81
f 168//168 15//15 81//81
f 89//89 28//28 82//82
f 89//89 82//82 175//175
f 84//84 83//83 34//34
f 83//83 84//84 81//81
f 28//28 89//89 88//88
f 175//175 178//178 89//89
f 179//179 89//89 178//178
f 87//87 181//181 84//84
f 181//181 87//87 183//183
f 86//86 34//34 85//85
f 85//85 36//36 87//87
f 36//36 90//90 87//87
f 84//84 34//34 86//86
f 86//86 85//85 87//87
f 86//86 87//87 84//84
f 88//88 95//95 40//40
f 87//87 90//90 91//91
f 91//91 183//183 87//87
f 37//37 94//94 90//90
f 94//94 91//91 90//90
f 183//183 91//91 93//93
f 98//98 96//96 93//93
f 183//183 93//93 96//96
f 91//91 94//94 93//93
f 94//94 92//92 93//93
f 93//93 92//92 98//98
f 38//38 95//95 94//94
f 187//187 95//95 88//88
f 189//189 96//96 97//97
f 97//97 96//96 98//98
f 98//98 100//100 97//97
f 92//92 99//99 98//98
f 98//98 99//99 100//100
f 92//92 94//94 99//99
f 94//94 95//95 99//99
f 100//100 99//99 101//101
f 99//99 95//95 101//101
f 100//100 192//192 97//97
f 100//100 101//101 192//192
f 190//190 101//101 95//95
f 106//106 195//195 197//197
f 103//103 102//102 104//104
f 104//104 102//102 105//105
f 102//102 127//127 105//105
f 105//105 127//127 106//106
f 196//196 104//104 105//105
f 106//106 197//197 105//105
f 196//196 107//107 104//104
f 107//107 111//111 104//104
f 197//197 196//196 105//105
f 108//108 42//42 109//109
f 108//108 47//47 42//42
f 113//113 112//112 108//108
f 110//110 108//108 109//109
f 109//109 103//103 104//104
f 111//111 109//109 104//104
f 111//111 110//110 109//109
f 110//110 113//113 108//108
f 113//113 110//110 201//201
f 111//111 202//202 110//110
f 110//110 202//202 201//201
f 113//113 201//201 205//205
f 112//112 113//113 129//129
f 205//205 129//129 113//113
f 129//129 205//205 225//225
f 115//115 117//117 114//114
f 114//114 121//121 134//134
f 115//115 118//118 117//117
f 116//116 121//121 114//114
f 115//115 132//132 118//118
f 119//119 120//120 116//116
f 117//117 119//119 116//116
f 118//118 813//813 117//117
f 114//114 117//117 116//116
f 133//133 118//118 132//132
f 813//813 118//118 212//212
f 122//122 135//135 121//121
f 122//122 136//136 135//135
f 123//123 122//122 121//121
f 122//122 125//125 136//136
f 124//124 116//116 120//120
f 121//121 116//116 124//124
f 123//123 121//121 124//124
f 125//125 122//122 123//123
f 215//215 124//124 120//120
f 216//216 123//123 124//124
f 123//123 216//216 125//125
f 226//226 136//136 125//125
f 195//195 106//106 220//220
f 220//220 106//106 126//126
f 228//228 220//220 126//126
f 126//126 106//106 127//127
f 49//49 112//112 128//128
f 112//112 129//129 128//128
f 129//129 130//130 128//128
f 225//225 130//130 129//129
f 114//114 131//131 115//115
f 131//131 132//132 115//115
f 134//134 131//131 114//114
f 132//132 131//131 139//139
f 135//135 60//60 134//134
f 121//121 135//135 134//134
f 135//135 136//136 60//60
f 228//228 137//137 231//231
f 137//137 51//51 231//231
f 51//51 140//140 231//231
f 130//130 138//138 128//128
f 139//139 147//147 230//230
f 59//59 131//131 134//134
f 142//142 54//54 138//138
f 143//143 138//138 130//130
f 140//140 233//233 231//231
f 143//143 142//142 138//138
f 144//144 142//142 143//143
f 340//340 144//144 143//143
f 131//131 59//59 139//139
f 139//139 59//59 147//147
f 147//147 160//160 234//234
f 60//60 136//136 145//145
f 136//136 146//146 145//145
f 145//145 146//146 149//149
f 136//136 226//226 146//146
f 232//232 149//149 146//146
f 233//233 140//140 162//162
f 150//150 142//142 151//151
f 142//142 144//144 235//235
f 235//235 151//151 142//142
f 158//158 147//147 59//59
f 160//160 147//147 158//158
f 63//63 60//60 145//145
f 148//148 63//63 145//145
f 63//63 148//148 73//73
f 149//149 148//148 145//145
f 67//67 162//162 140//140
f 68//68 150//150 152//152
f 153//153 152//152 150//150
f 153//153 150//150 151//151
f 152//152 153//153 235//235
f 235//235 153//153 151//151
f 235//235 236//236 152//152
f 158//158 159//159 156//156
f 156//156 159//159 154//154
f 164//164 155//155 154//154
f 158//158 156//156 160//160
f 156//156 154//154 157//157
f 155//155 163//163 157//157
f 157//157 154//154 155//155
f 237//237 156//156 157//157
f 163//163 152//152 157//157
f 160//160 156//156 237//237
f 160//160 237//237 239//239
f 236//236 815//815 814//814
f 159//159 158//158 165//165
f 159//159 165//165 154//154
f 148//148 161//161 73//73
f 148//148 149//149 161//161
f 164//164 154//154 165//165
f 72//72 164//164 165//165
f 163//163 164//164 70//70
f 69//69 164//164 72//72
f 152//152 163//163 68//68
f 155//155 164//164 163//163
f 149//149 305//305 161//161
f 7//7 166//166 162//162
f 241//241 162//162 166//166
f 73//73 161//161 167//167
f 242//242 170//170 167//167
f 242//242 167//167 161//161
f 168//168 241//241 166//166
f 168//168 243//243 241//241
f 243//243 168//168 171//171
f 169//169 170//170 173//173
f 242//242 173//173 170//170
f 307//307 244//244 173//173
f 171//171 168//168 81//81
f 172//172 169//169 173//173
f 173//173 175//175 172//172
f 174//174 175//175 173//173
f 244//244 174//174 173//173
f 176//176 178//178 175//175
f 174//174 176//176 175//175
f 246//246 176//176 174//174
f 84//84 177//177 81//81
f 81//81 177//177 171//171
f 176//176 179//179 178//178
f 180//180 179//179 176//176
f 246//246 180//180 176//176
f 247//247 180//180 246//246
f 84//84 181//181 177//177
f 89//89 182//182 185//185
f 179//179 182//182 89//89
f 182//182 179//179 180//180
f 182//182 250//250 185//185
f 247//247 182//182 180//180
f 247//247 250//250 182//182
f 183//183 184//184 181//181
f 183//183 96//96 184//184
f 184//184 177//177 181//181
f 88//88 89//89 185//185
f 184//184 96//96 186//186
f 188//188 187//187 88//88
f 88//88 185//185 188//188
f 186//186 189//189 253//253
f 186//186 96//96 189//189
f 191//191 253//253 189//189
f 252//252 184//184 186//186
f 186//186 253//253 252//252
f 192//192 191//191 97//97
f 189//189 97//97 191//191
f 255//255 253//253 191//191
f 260//260 191//191 192//192
f 260//260 192//192 262//262
f 193//193 262//262 192//192
f 101//101 190//190 193//193
f 192//192 101//101 193//193
f 265//265 193//193 190//190
f 256//256 190//190 95//95
f 265//265 190//190 256//256
f 267//267 194//194 213//213
f 267//267 268//268 194//194
f 268//268 218//218 194//194
f 195//195 221//221 197//197
f 221//221 195//195 220//220
f 200//200 221//221 224//224
f 197//197 198//198 196//196
f 107//107 203//203 111//111
f 197//197 221//221 198//198
f 196//196 199//199 107//107
f 196//196 198//198 199//199
f 107//107 199//199 203//203
f 198//198 269//269 199//199
f 203//203 199//199 269//269
f 200//200 269//269 198//198
f 198//198 221//221 200//200
f 224//224 284//284 200//200
f 111//111 203//203 202//202
f 206//206 201//201 202//202
f 203//203 204//204 202//202
f 204//204 206//206 202//202
f 204//204 270//270 206//206
f 204//204 203//203 269//269
f 269//269 270//270 204//204
f 205//205 201//201 206//206
f 205//205 206//206 225//225
f 118//118 208//208 207//207
f 210//210 207//207 208//208
f 209//209 207//207 210//210
f 210//210 208//208 287//287
f 214//214 209//209 275//275
f 209//209 271//271 275//275
f 209//209 210//210 271//271
f 119//119 211//211 120//120
f 215//215 120//120 211//211
f 207//207 212//212 118//118
f 118//118 133//133 208//208
f 119//119 213//213 211//211
f 212//212 213//213 119//119
f 194//194 211//211 213//213
f 214//214 213//213 212//212
f 194//194 215//215 211//211
f 209//209 212//212 207//207
f 214//214 212//212 209//209
f 213//213 214//214 267//267
f 267//267 214//214 275//275
f 216//216 124//124 215//215
f 215//215 218//218 216//216
f 217//217 216//216 218//218
f 194//194 218//218 215//215
f 217//217 218//218 278//278
f 216//216 217//217 125//125
f 219//219 125//125 217//217
f 219//219 226//226 125//125
f 219//219 227//227 226//226
f 278//278 219//219 217//217
f 282//282 219//219 278//278
f 227//227 219//219 282//282
f 228//228 126//126 137//137
f 222//222 220//220 228//228
f 223//223 221//221 220//220
f 223//223 220//220 222//222
f 223//223 224//224 221//221
f 292//292 130//130 225//225
f 286//286 225//225 206//206
f 286//286 206//206 270//270
f 287//287 208//208 133//133
f 228//228 231//231 229//229
f 228//228 229//229 222//222
f 143//143 130//130 292//292
f 132//132 139//139 230//230
f 133//133 132//132 230//230
f 229//229 290//290 289//289
f 147//147 234//234 230//230
f 226//226 227//227 232//232
f 294//294 232//232 227//227
f 231//231 233//233 229//229
f 290//290 229//229 295//295
f 230//230 234//234 293//293
f 232//232 146//146 226//226
f 295//295 229//229 233//233
f 295//295 233//233 241//241
f 300//300 235//235 144//144
f 234//234 160//160 239//239
f 303//303 149//149 232//232
f 233//233 162//162 241//241
f 299//299 236//236 235//235
f 235//235 300//300 298//298
f 299//299 240//240 236//236
f 236//236 238//238 815//815
f 238//238 237//237 157//157
f 237//237 238//238 239//239
f 240//240 238//238 236//236
f 240//240 302//302 238//238
f 302//302 239//239 238//238
f 306//306 241//241 243//243
f 161//161 305//305 242//242
f 307//307 242//242 305//305
f 307//307 173//173 242//242
f 243//243 171//171 407//407
f 244//244 308//308 405//405
f 246//246 174//174 244//244
f 245//245 246//246 244//244
f 405//405 245//245 244//244
f 407//407 171//171 177//177
f 407//407 177//177 410//410
f 246//246 248//248 247//247
f 248//248 246//246 245//245
f 248//248 249//249 247//247
f 309//309 249//249 248//248
f 177//177 363//363 410//410
f 311//311 363//363 177//177
f 184//184 311//311 177//177
f 185//185 250//250 313//313
f 310//310 250//250 247//247
f 252//252 251//251 184//184
f 187//187 188//188 258//258
f 252//252 254//254 251//251
f 252//252 253//253 254//254
f 257//257 95//95 187//187
f 187//187 258//258 257//257
f 188//188 259//259 258//258
f 188//188 185//185 259//259
f 253//253 255//255 254//254
f 255//255 314//314 254//254
f 255//255 191//191 260//260
f 319//319 265//265 256//256
f 256//256 95//95 266//266
f 95//95 257//257 266//266
f 258//258 315//315 257//257
f 258//258 259//259 315//315
f 255//255 260//260 318//318
f 318//318 260//260 261//261
f 193//193 264//264 262//262
f 261//261 260//260 262//262
f 263//263 261//261 262//262
f 264//264 263//263 262//262
f 264//264 193//193 265//265
f 321//321 264//264 265//265
f 264//264 321//321 263//263
f 265//265 319//319 321//321
f 319//319 256//256 266//266
f 267//267 275//275 268//268
f 276//276 268//268 275//275
f 268//268 276//276 280//280
f 330//330 269//269 200//200
f 285//285 270//270 269//269
f 285//285 389//389 270//270
f 275//275 271//271 273//273
f 271//271 210//210 272//272
f 272//272 210//210 287//287
f 271//271 274//274 273//273
f 271//271 272//272 274//274
f 322//322 273//273 274//274
f 275//275 273//273 276//276
f 273//273 322//322 276//276
f 276//276 277//277 280//280
f 276//276 322//322 277//277
f 325//325 280//280 277//277
f 279//279 278//278 218//218
f 281//281 278//278 279//279
f 282//282 278//278 281//281
f 280//280 218//218 268//268
f 218//218 280//280 279//279
f 326//326 279//279 280//280
f 326//326 281//281 279//279
f 325//325 326//326 280//280
f 326//326 328//328 281//281
f 227//227 282//282 294//294
f 282//282 333//333 294//294
f 282//282 281//281 333//333
f 281//281 328//328 333//333
f 283//283 284//284 224//224
f 223//223 283//283 224//224
f 200//200 284//284 330//330
f 283//283 291//291 284//284
f 330//330 284//284 291//291
f 285//285 269//269 330//330
f 270//270 389//389 286//286
f 389//389 338//338 286//286
f 272//272 287//287 288//288
f 274//274 272//272 288//288
f 289//289 223//223 222//222
f 289//289 222//222 229//229
f 289//289 283//283 223//223
f 289//289 290//290 283//283
f 290//290 335//335 283//283
f 283//283 335//335 291//291
f 335//335 290//290 392//392
f 133//133 230//230 287//287
f 293//293 287//287 230//230
f 288//288 287//287 293//293
f 225//225 286//286 337//337
f 340//340 143//143 292//292
f 225//225 337//337 292//292
f 343//343 296//296 340//340
f 292//292 337//337 340//340
f 342//342 290//290 295//295
f 295//295 345//345 342//342
f 296//296 144//144 340//340
f 296//296 300//300 144//144
f 343//343 300//300 296//296
f 344//344 293//293 234//234
f 232//232 294//294 303//303
f 295//295 241//241 297//297
f 345//345 295//295 297//297
f 299//299 302//302 240//240
f 299//299 235//235 298//298
f 398//398 299//299 298//298
f 347//347 302//302 299//299
f 343//343 397//397 300//300
f 300//300 397//397 398//398
f 300//300 398//398 298//298
f 299//299 398//398 347//347
f 347//347 346//346 302//302
f 239//239 302//302 301//301
f 301//301 234//234 239//239
f 350//350 301//301 302//302
f 304//304 241//241 306//306
f 304//304 297//297 241//241
f 303//303 305//305 149//149
f 303//303 354//354 305//305
f 359//359 306//306 243//243
f 306//306 359//359 356//356
f 357//357 307//307 305//305
f 358//358 307//307 357//357
f 308//308 244//244 307//307
f 358//358 308//308 307//307
f 243//243 407//407 359//359
f 406//406 245//245 405//405
f 406//406 248//248 245//245
f 360//360 309//309 248//248
f 361//361 309//309 360//360
f 361//361 249//249 309//309
f 249//249 362//362 247//247
f 310//310 247//247 362//362
f 251//251 311//311 184//184
f 364//364 311//311 251//251
f 311//311 364//364 363//363
f 364//364 251//251 312//312
f 367//367 250//250 310//310
f 312//312 366//366 364//364
f 254//254 312//312 251//251
f 259//259 185//185 313//313
f 259//259 313//313 316//316
f 313//313 367//367 316//316
f 367//367 313//313 250//250
f 314//314 312//312 254//254
f 314//314 255//255 318//318
f 315//315 317//317 374//374
f 315//315 259//259 317//317
f 315//315 320//320 257//257
f 317//317 259//259 316//316
f 372//372 314//314 318//318
f 372//372 318//318 376//376
f 261//261 376//376 318//318
f 266//266 257//257 320//320
f 320//320 315//315 374//374
f 377//377 261//261 263//263
f 377//377 376//376 261//261
f 377//377 263//263 380//380
f 263//263 321//321 380//380
f 321//321 319//319 382//382
f 382//382 380//380 321//321
f 381//381 380//380 382//382
f 323//323 322//322 274//274
f 277//277 327//327 325//325
f 323//323 332//332 322//322
f 327//327 277//277 324//324
f 322//322 324//324 277//277
f 332//332 324//324 322//322
f 323//323 386//386 332//332
f 324//324 329//329 327//327
f 386//386 387//387 332//332
f 329//329 324//324 332//332
f 325//325 327//327 326//326
f 327//327 328//328 326//326
f 329//329 328//328 327//327
f 332//332 384//384 329//329
f 384//384 385//385 329//329
f 385//385 328//328 329//329
f 388//388 285//285 330//330
f 388//388 389//389 285//285
f 274//274 288//288 331//331
f 331//331 288//288 293//293
f 323//323 274//274 331//331
f 386//386 331//331 293//293
f 386//386 323//323 331//331
f 328//328 334//334 333//333
f 392//392 393//393 335//335
f 291//291 335//335 336//336
f 388//388 330//330 336//336
f 330//330 291//291 336//336
f 339//339 333//333 334//334
f 391//391 339//339 334//334
f 342//342 392//392 290//290
f 336//336 335//335 393//393
f 337//337 286//286 338//338
f 337//337 338//338 341//341
f 338//338 440//440 341//341
f 333//333 339//339 294//294
f 294//294 339//339 303//303
f 337//337 341//341 340//340
f 341//341 343//343 340//340
f 395//395 343//343 341//341
f 341//341 440//440 395//395
f 293//293 344//344 441//441
f 351//351 344//344 234//234
f 441//441 344//344 445//445
f 445//445 344//344 351//351
f 402//402 303//303 339//339
f 304//304 345//345 297//297
f 347//347 348//348 346//346
f 348//348 353//353 346//346
f 349//349 347//347 398//398
f 349//349 348//348 347//347
f 348//348 400//400 353//353
f 351//351 234//234 301//301
f 350//350 302//302 346//346
f 353//353 350//350 346//346
f 301//301 350//350 351//351
f 350//350 353//353 352//352
f 352//352 351//351 350//350
f 400//400 352//352 353//353
f 354//354 357//357 305//305
f 354//354 303//303 402//402
f 354//354 355//355 357//357
f 402//402 355//355 354//354
f 304//304 306//306 356//356
f 355//355 358//358 357//357
f 404//404 358//358 355//355
f 356//356 359//359 407//407
f 356//356 407//407 478//478
f 405//405 308//308 358//358
f 408//408 360//360 406//406
f 360//360 248//248 406//406
f 409//409 361//361 360//360
f 361//361 362//362 249//249
f 409//409 362//362 361//361
f 410//410 363//363 365//365
f 310//310 362//362 452//452
f 409//409 452//452 362//362
f 365//365 363//363 364//364
f 365//365 364//364 366//366
f 455//455 310//310 452//452
f 367//367 310//310 455//455
f 312//312 369//369 366//366
f 312//312 314//314 369//369
f 369//369 413//413 366//366
f 370//370 413//413 369//369
f 317//317 316//316 368//368
f 368//368 316//316 367//367
f 368//368 375//375 317//317
f 369//369 314//314 372//372
f 370//370 369//369 371//371
f 372//372 371//371 369//369
f 373//373 371//371 372//372
f 370//370 415//415 413//413
f 370//370 371//371 415//415
f 373//373 372//372 376//376
f 374//374 375//375 383//383
f 375//375 416//416 383//383
f 374//374 317//317 375//375
f 373//373 376//376 378//378
f 373//373 378//378 417//417
f 378//378 376//376 377//377
f 379//379 377//377 381//381
f 378//378 377//377 379//379
f 379//379 418//418 378//378
f 418//418 379//379 419//419
f 377//377 380//380 381//381
f 379//379 381//381 419//419
f 419//419 381//381 423//423
f 430//430 319//319 266//266
f 319//319 430//430 382//382
f 381//381 382//382 424//424
f 382//382 430//430 424//424
f 423//423 381//381 424//424
f 430//430 266//266 429//429
f 320//320 433//433 266//266
f 374//374 383//383 320//320
f 320//320 383//383 433//433
f 433//433 383//383 435//435
f 332//332 387//387 384//384
f 384//384 390//390 385//385
f 385//385 334//334 328//328
f 385//385 390//390 334//334
f 437//437 388//388 336//336
f 387//387 390//390 384//384
f 437//437 336//336 393//393
f 439//439 388//388 437//437
f 389//389 388//388 439//439
f 440//440 338//338 389//389
f 441//441 386//386 293//293
f 442//442 387//387 386//386
f 441//441 816//816 386//386
f 387//387 468//468 390//390
f 392//392 438//438 393//393
f 439//439 440//440 389//389
f 342//342 394//394 392//392
f 394//394 342//342 345//345
f 394//394 345//345 396//396
f 394//394 438//438 392//392
f 395//395 397//397 343//343
f 395//395 398//398 397//397
f 399//399 349//349 398//398
f 399//399 348//348 349//349
f 398//398 395//395 443//443
f 443//443 399//399 398//398
f 444//444 399//399 443//443
f 400//400 399//399 444//444
f 400//400 348//348 399//399
f 444//444 401//401 400//400
f 352//352 400//400 445//445
f 445//445 400//400 401//401
f 445//445 351//351 352//352
f 304//304 396//396 345//345
f 396//396 304//304 448//448
f 402//402 339//339 449//449
f 304//304 356//356 448//448
f 404//404 355//355 402//402
f 449//449 404//404 402//402
f 358//358 403//403 405//405
f 404//404 403//403 358//358
f 404//404 482//482 403//403
f 478//478 407//407 450//450
f 403//403 406//406 405//405
f 483//483 408//408 406//406
f 408//408 409//409 360//360
f 408//408 484//484 409//409
f 410//410 365//365 412//412
f 412//412 365//365 411//411
f 411//411 365//365 366//366
f 412//412 411//411 451//451
f 366//366 413//413 411//411
f 451//451 411//411 413//413
f 414//414 510//510 413//413
f 368//368 367//367 454//454
f 371//371 417//417 415//415
f 373//373 417//417 371//371
f 414//414 413//413 415//415
f 415//415 417//417 456//456
f 458//458 456//456 417//417
f 458//458 418//418 420//420
f 375//375 368//368 416//416
f 417//417 378//378 418//418
f 458//458 417//417 418//418
f 420//420 418//418 419//419
f 421//421 420//420 419//419
f 422//422 458//458 420//420
f 421//421 422//422 420//420
f 419//419 423//423 421//421
f 426//426 421//421 423//423
f 421//421 426//426 422//422
f 425//425 426//426 423//423
f 424//424 425//425 423//423
f 426//426 427//427 422//422
f 428//428 426//426 425//425
f 428//428 427//427 426//426
f 424//424 430//430 431//431
f 429//429 431//431 430//430
f 425//425 424//424 432//432
f 424//424 431//431 432//432
f 431//431 434//434 432//432
f 429//429 266//266 433//433
f 431//431 429//429 433//433
f 431//431 433//433 434//434
f 434//434 433//433 436//436
f 432//432 434//434 465//465
f 434//434 436//436 465//465
f 436//436 433//433 435//435
f 435//435 416//416 466//466
f 435//435 383//383 416//416
f 437//437 393//393 533//533
f 468//468 387//387 442//442
f 390//390 391//391 334//334
f 438//438 533//533 393//393
f 395//395 440//440 443//443
f 447//447 441//441 445//445
f 816//816 441//441 447//447
f 447//447 471//471 816//816
f 390//390 472//472 391//391
f 444//444 446//446 401//401
f 469//469 444//444 443//443
f 443//443 440//440 469//469
f 469//469 470//470 444//444
f 401//401 446//446 445//445
f 447//447 445//445 446//446
f 447//447 446//446 444//444
f 394//394 396//396 448//448
f 394//394 448//448 476//476
f 473//473 394//394 476//476
f 391//391 449//449 339//339
f 478//478 448//448 356//356
f 476//476 448//448 478//478
f 481//481 404//404 449//449
f 481//481 482//482 404//404
f 552//552 450//450 407//407
f 546//546 450//450 552//552
f 483//483 406//406 403//403
f 408//408 483//483 484//484
f 618//618 409//409 484//484
f 485//485 407//407 410//410
f 410//410 412//412 486//486
f 485//485 410//410 486//486
f 451//451 486//486 412//412
f 554//554 486//486 451//451
f 510//510 451//451 413//413
f 451//451 510//510 554//554
f 455//455 452//452 519//519
f 455//455 519//519 518//518
f 512//512 510//510 414//414
f 512//512 414//414 453//453
f 516//516 511//511 459//459
f 516//516 459//459 497//497
f 455//455 454//454 367//367
f 455//455 518//518 454//454
f 453//453 414//414 415//415
f 453//453 415//415 456//456
f 457//457 453//453 456//456
f 457//457 456//456 458//458
f 459//459 457//457 458//458
f 459//459 511//511 457//457
f 422//422 459//459 458//458
f 459//459 422//422 427//427
f 427//427 461//461 459//459
f 427//427 428//428 460//460
f 427//427 460//460 461//461
f 461//461 460//460 505//505
f 520//520 505//505 460//460
f 520//520 460//460 428//428
f 368//368 454//454 462//462
f 416//416 368//368 462//462
f 454//454 523//523 462//462
f 416//416 462//462 467//467
f 454//454 518//518 523//523
f 525//525 425//425 432//432
f 525//525 432//432 465//465
f 525//525 428//428 425//425
f 466//466 463//463 435//435
f 465//465 436//436 463//463
f 463//463 436//436 435//435
f 463//463 464//464 465//465
f 464//464 526//526 465//465
f 525//525 465//465 526//526
f 466//466 416//416 467//467
f 466//466 464//464 463//463
f 464//464 466//466 467//467
f 468//468 442//442 471//471
f 531//531 472//472 390//390
f 390//390 468//468 531//531
f 473//473 474//474 394//394
f 533//533 438//438 532//532
f 474//474 438//438 394//394
f 532//532 438//438 474//474
f 535//535 440//440 439//439
f 439//439 437//437 535//535
f 440//440 535//535 469//469
f 470//470 469//469 535//535
f 444//444 470//470 447//447
f 470//470 471//471 447//447
f 470//470 537//537 471//471
f 538//538 531//531 468//468
f 472//472 475//475 391//391
f 531//531 543//543 472//472
f 475//475 472//472 543//543
f 473//473 476//476 480//480
f 480//480 539//539 473//473
f 539//539 474//474 473//473
f 474//474 539//539 532//532
f 449//449 391//391 475//475
f 480//480 476//476 478//478
f 449//449 475//475 477//477
f 481//481 449//449 477//477
f 475//475 543//543 477//477
f 479//479 478//478 450//450
f 480//480 478//478 479//479
f 480//480 479//479 541//541
f 479//479 450//450 546//546
f 541//541 479//479 546//546
f 541//541 546//546 547//547
f 483//483 403//403 482//482
f 546//546 552//552 548//548
f 549//549 483//483 482//482
f 549//549 484//484 483//483
f 549//549 551//551 484//484
f 617//617 484//484 551//551
f 485//485 552//552 407//407
f 487//487 485//485 486//486
f 409//409 488//488 452//452
f 510//510 489//489 554//554
f 569//569 490//490 573//573
f 490//490 569//569 514//514
f 490//490 515//515 491//491
f 491//491 515//515 494//494
f 491//491 493//493 492//492
f 491//491 496//496 493//493
f 491//491 494//494 496//496
f 491//491 492//492 490//490
f 573//573 490//490 492//492
f 572//572 492//492 493//493
f 515//515 516//516 494//494
f 494//494 516//516 497//497
f 500//500 495//495 494//494
f 494//494 495//495 496//496
f 495//495 574//574 496//496
f 497//497 498//498 494//494
f 501//501 500//500 494//494
f 494//494 498//498 501//501
f 501//501 499//499 502//502
f 499//499 501//501 498//498
f 504//504 506//506 555//555
f 500//500 501//501 503//503
f 503//503 502//502 504//504
f 506//506 504//504 502//502
f 499//499 506//506 502//502
f 502//502 503//503 501//501
f 577//577 500//500 503//503
f 504//504 577//577 503//503
f 499//499 505//505 506//506
f 507//507 555//555 506//506
f 506//506 505//505 507//507
f 507//507 505//505 517//517
f 507//507 517//517 508//508
f 508//508 517//517 509//509
f 555//555 507//507 508//508
f 488//488 519//519 452//452
f 511//511 453//453 457//457
f 513//513 512//512 453//453
f 511//511 513//513 453//453
f 512//512 489//489 510//510
f 512//512 513//513 489//489
f 513//513 511//511 514//514
f 513//513 592//592 489//489
f 490//490 511//511 515//515
f 511//511 516//516 515//515
f 490//490 514//514 511//511
f 498//498 497//497 459//459
f 461//461 498//498 459//459
f 505//505 498//498 461//461
f 505//505 499//499 498//498
f 517//517 505//505 520//520
f 517//517 520//520 594//594
f 509//509 517//517 594//594
f 518//518 519//519 662//662
f 520//520 521//521 595//595
f 462//462 523//523 522//522
f 523//523 524//524 522//522
f 522//522 524//524 530//530
f 518//518 662//662 523//523
f 525//525 520//520 428//428
f 520//520 525//525 521//521
f 526//526 464//464 528//528
f 525//525 526//526 527//527
f 528//528 529//529 526//526
f 526//526 529//529 527//527
f 527//527 521//521 525//525
f 529//529 521//521 527//527
f 467//467 530//530 464//464
f 528//528 464//464 530//530
f 528//528 530//530 529//529
f 530//530 467//467 522//522
f 522//522 467//467 462//462
f 524//524 529//529 530//530
f 534//534 437//437 533//533
f 534//534 535//535 437//437
f 470//470 536//536 537//537
f 537//537 468//468 471//471
f 532//532 539//539 540//540
f 532//532 540//540 533//533
f 533//533 540//540 605//605
f 605//605 534//534 533//533
f 535//535 534//534 606//606
f 606//606 534//534 607//607
f 534//534 605//605 607//607
f 536//536 470//470 535//535
f 536//536 535//535 606//606
f 536//536 606//606 537//537
f 538//538 537//537 606//606
f 468//468 537//537 538//538
f 611//611 531//531 538//538
f 611//611 543//543 531//531
f 540//540 608//608 605//605
f 538//538 612//612 611//611
f 541//541 539//539 480//480
f 542//542 539//539 541//541
f 542//542 541//541 547//547
f 542//542 540//540 539//539
f 540//540 542//542 608//608
f 611//611 613//613 543//543
f 477//477 544//544 481//481
f 477//477 543//543 544//544
f 542//542 547//547 614//614
f 481//481 544//544 482//482
f 545//545 544//544 543//543
f 544//544 545//545 482//482
f 613//613 545//545 543//543
f 672//672 548//548 552//552
f 546//546 548//548 547//547
f 614//614 547//547 548//548
f 549//549 482//482 545//545
f 545//545 550//550 549//549
f 616//616 545//545 613//613
f 545//545 616//616 550//550
f 549//549 550//550 551//551
f 551//551 550//550 617//617
f 617//617 618//618 484//484
f 552//552 485//485 553//553
f 485//485 487//487 553//553
f 672//672 552//552 553//553
f 554//554 487//487 486//486
f 553//553 487//487 554//554
f 619//619 553//553 554//554
f 577//577 558//558 579//579
f 555//555 558//558 577//577
f 579//579 558//558 580//580
f 555//555 508//508 557//557
f 556//556 555//555 557//557
f 508//508 559//559 557//557
f 558//558 555//555 556//556
f 581//581 559//559 508//508
f 556//556 557//557 560//560
f 559//559 560//560 557//557
f 561//561 559//559 581//581
f 583//583 561//561 581//581
f 558//558 556//556 562//562
f 556//556 560//560 562//562
f 561//561 560//560 559//559
f 562//562 560//560 563//563
f 560//560 561//561 817//817
f 817//817 561//561 565//565
f 580//580 558//558 630//630
f 565//565 561//561 583//583
f 562//562 563//563 564//564
f 563//563 565//565 564//564
f 558//558 562//562 630//630
f 565//565 633//633 564//564
f 568//568 554//554 489//489
f 818//818 514//514 566//566
f 592//592 567//567 489//489
f 567//567 818//818 566//566
f 568//568 489//489 567//567
f 566//566 622//622 567//567
f 566//566 571//571 622//622
f 570//570 566//566 569//569
f 569//569 566//566 514//514
f 570//570 569//569 573//573
f 571//571 566//566 570//570
f 573//573 492//492 572//572
f 572//572 493//493 593//593
f 493//493 496//496 593//593
f 656//656 572//572 593//593
f 573//573 572//572 570//570
f 570//570 572//572 656//656
f 495//495 578//578 576//576
f 574//574 495//495 576//576
f 574//574 575//575 496//496
f 575//575 574//574 576//576
f 575//575 576//576 624//624
f 496//496 575//575 657//657
f 577//577 504//504 555//555
f 495//495 500//500 578//578
f 577//577 578//578 500//500
f 577//577 579//579 578//578
f 579//579 580//580 578//578
f 625//625 578//578 580//580
f 576//576 578//578 625//625
f 576//576 625//625 624//624
f 625//625 628//628 624//624
f 508//508 509//509 581//581
f 583//583 581//581 582//582
f 582//582 581//581 509//509
f 509//509 594//594 582//582
f 594//594 584//584 582//582
f 594//594 596//596 584//584
f 584//584 583//583 582//582
f 565//565 583//583 584//584
f 565//565 584//584 633//633
f 585//585 633//633 584//584
f 585//585 584//584 596//596
f 585//585 636//636 633//633
f 585//585 596//596 586//586
f 586//586 596//596 587//587
f 586//586 587//587 637//637
f 597//597 588//588 587//587
f 587//587 596//596 597//597
f 636//636 585//585 637//637
f 637//637 585//585 586//586
f 587//587 588//588 638//638
f 638//638 637//637 587//587
f 588//588 597//597 599//599
f 589//589 599//599 600//600
f 589//589 588//588 599//599
f 588//588 640//640 638//638
f 640//640 641//641 642//642
f 641//641 640//640 588//588
f 589//589 641//641 588//588
f 600//600 641//641 589//589
f 600//600 601//601 590//590
f 600//600 590//590 644//644
f 644//644 590//590 649//649
f 590//590 601//601 649//649
f 652//652 519//519 488//488
f 591//591 663//663 519//519
f 652//652 591//591 519//519
f 514//514 818//818 513//513
f 593//593 496//496 657//657
f 596//596 594//594 595//595
f 596//596 595//595 597//597
f 597//597 521//521 598//598
f 599//599 598//598 600//600
f 599//599 597//597 598//598
f 598//598 603//603 601//601
f 601//601 603//603 659//659
f 600//600 598//598 601//601
f 649//649 601//601 659//659
f 659//659 603//603 660//660
f 519//519 663//663 662//662
f 594//594 520//520 595//595
f 595//595 521//521 597//597
f 521//521 529//529 602//602
f 603//603 602//602 529//529
f 598//598 521//521 602//602
f 598//598 602//602 603//603
f 523//523 604//604 524//524
f 604//604 529//529 524//524
f 662//662 604//604 523//523
f 604//604 603//603 529//529
f 604//604 820//820 603//603
f 820//820 604//604 822//822
f 605//605 609//609 607//607
f 606//606 607//607 538//538
f 607//607 609//609 664//664
f 610//610 538//538 607//607
f 612//612 538//538 666//666
f 542//542 614//614 665//665
f 608//608 542//542 665//665
f 605//605 608//608 609//609
f 538//538 610//610 666//666
f 608//608 665//665 609//609
f 613//613 611//611 612//612
f 613//613 612//612 615//615
f 615//615 612//612 666//666
f 613//613 615//615 616//616
f 616//616 667//667 550//550
f 672//672 669//669 548//548
f 669//669 614//614 548//548
f 667//667 675//675 550//550
f 550//550 675//675 617//617
f 618//618 617//617 677//677
f 619//619 676//676 553//553
f 619//619 554//554 620//620
f 621//621 630//630 562//562
f 621//621 562//562 564//564
f 621//621 629//629 630//630
f 621//621 564//564 631//631
f 690//690 629//629 621//621
f 621//621 631//631 690//690
f 634//634 631//631 564//564
f 488//488 409//409 618//618
f 652//652 488//488 618//618
f 618//618 679//679 652//652
f 622//622 571//571 702//702
f 623//623 568//568 567//567
f 568//568 682//682 554//554
f 568//568 623//623 682//682
f 623//623 567//567 622//622
f 682//682 620//620 554//554
f 571//571 570//570 702//702
f 575//575 624//624 657//657
f 624//624 628//628 657//657
f 627//627 580//580 630//630
f 628//628 625//625 626//626
f 626//626 625//625 580//580
f 627//627 626//626 580//580
f 629//629 627//627 630//630
f 628//628 626//626 627//627
f 688//688 709//709 628//628
f 628//628 627//627 687//687
f 687//687 627//627 629//629
f 687//687 688//688 628//628
f 632//632 631//631 634//634
f 631//631 632//632 690//690
f 629//629 690//690 742//742
f 634//634 564//564 633//633
f 633//633 636//636 635//635
f 639//639 635//635 636//636
f 634//634 633//633 635//635
f 691//691 634//634 635//635
f 632//632 634//634 691//691
f 639//639 636//636 637//637
f 639//639 637//637 819//819
f 713//713 635//635 639//639
f 713//713 639//639 714//714
f 639//639 819//819 714//714
f 645//645 819//819 640//640
f 645//645 640//640 642//642
f 643//643 642//642 641//641
f 643//643 600//600 644//644
f 600//600 643//643 641//641
f 642//642 643//643 645//645
f 646//646 643//643 647//647
f 643//643 644//644 647//647
f 650//650 644//644 649//649
f 645//645 643//643 646//646
f 648//648 647//647 650//650
f 647//647 644//644 650//650
f 647//647 716//716 646//646
f 648//648 716//716 647//647
f 645//645 646//646 716//716
f 649//649 651//651 650//650
f 650//650 651//651 694//694
f 650//650 694//694 648//648
f 660//660 661//661 651//651
f 696//696 821//821 653//653
f 821//821 697//697 651//651
f 651//651 697//697 699//699
f 696//696 697//697 821//821
f 652//652 663//663 591//591
f 654//654 653//653 652//652
f 653//653 663//663 652//652
f 679//679 654//654 652//652
f 696//696 653//653 655//655
f 655//655 653//653 654//654
f 698//698 696//696 655//655
f 623//623 622//622 702//702
f 656//656 593//593 657//657
f 656//656 702//702 570//570
f 657//657 658//658 706//706
f 702//702 656//656 707//707
f 707//707 656//656 657//657
f 657//657 628//628 658//658
f 658//658 628//628 706//706
f 645//645 716//716 819//819
f 649//649 659//659 651//651
f 660//660 651//651 659//659
f 821//821 820//820 653//653
f 820//820 823//823 653//653
f 822//822 823//823 820//820
f 666//666 610//610 607//607
f 664//664 609//609 665//665
f 664//664 666//666 607//607
f 665//665 718//718 664//664
f 772//772 719//719 666//666
f 615//615 666//666 719//719
f 665//665 614//614 670//670
f 614//614 669//669 670//670
f 665//665 670//670 718//718
f 668//668 616//616 615//615
f 720//720 668//668 615//615
f 667//667 616//616 668//668
f 667//667 671//671 675//675
f 668//668 671//671 667//667
f 674//674 676//676 678//678
f 669//669 672//672 673//673
f 676//676 673//673 672//672
f 674//674 673//673 676//676
f 673//673 721//721 669//669
f 674//674 721//721 673//673
f 675//675 677//677 617//617
f 553//553 676//676 672//672
f 678//678 676//676 619//619
f 678//678 619//619 680//680
f 674//674 678//678 680//680
f 679//679 618//618 677//677
f 619//619 620//620 683//683
f 619//619 683//683 680//680
f 681//681 680//680 683//683
f 733//733 680//680 681//681
f 701//701 654//654 679//679
f 701//701 655//655 654//654
f 761//761 701//701 679//679
f 682//682 683//683 620//620
f 683//683 682//682 684//684
f 623//623 703//703 682//682
f 683//683 684//684 681//681
f 682//682 703//703 684//684
f 681//681 684//684 747//747
f 703//703 705//705 684//684
f 747//747 684//684 705//705
f 705//705 712//712 748//748
f 688//688 686//686 709//709
f 686//686 749//749 709//709
f 688//688 689//689 685//685
f 685//685 686//686 688//688
f 689//689 753//753 685//685
f 753//753 689//689 757//757
f 685//685 754//754 686//686
f 685//685 753//753 754//754
f 754//754 749//749 686//686
f 629//629 742//742 687//687
f 742//742 689//689 687//687
f 687//687 689//689 688//688
f 744//744 742//742 690//690
f 690//690 632//632 691//691
f 690//690 759//759 744//744
f 759//759 690//690 691//691
f 691//691 635//635 692//692
f 713//713 692//692 635//635
f 758//758 691//691 692//692
f 759//759 691//691 758//758
f 694//694 651//651 699//699
f 695//695 694//694 699//699
f 695//695 699//699 700//700
f 648//648 695//695 693//693
f 648//648 694//694 695//695
f 695//695 762//762 764//764
f 695//695 771//771 693//693
f 696//696 699//699 697//697
f 696//696 698//698 699//699
f 700//700 699//699 698//698
f 700//700 698//698 701//701
f 761//761 700//700 701//701
f 701//701 698//698 655//655
f 704//704 703//703 623//623
f 702//702 704//704 623//623
f 702//702 710//710 704//704
f 703//703 704//704 705//705
f 704//704 710//710 712//712
f 705//705 704//704 712//712
f 657//657 706//706 707//707
f 702//702 707//707 710//710
f 710//710 707//707 708//708
f 708//708 707//707 706//706
f 708//708 706//706 709//709
f 709//709 711//711 708//708
f 712//712 710//710 708//708
f 712//712 708//708 711//711
f 749//749 711//711 709//709
f 751//751 750//750 712//712
f 711//711 751//751 712//712
f 709//709 706//706 628//628
f 716//716 714//714 819//819
f 714//714 716//716 715//715
f 716//716 717//717 715//715
f 714//714 715//715 713//713
f 716//716 648//648 717//717
f 717//717 648//648 693//693
f 693//693 771//771 717//717
f 664//664 772//772 666//666
f 719//719 720//720 615//615
f 670//670 669//669 722//722
f 670//670 722//722 723//723
f 670//670 723//723 718//718
f 726//726 671//671 720//720
f 720//720 719//719 777//777
f 720//720 671//671 668//668
f 674//674 727//727 721//721
f 722//722 669//669 721//721
f 723//723 722//722 725//725
f 722//722 721//721 725//725
f 725//725 721//721 728//728
f 723//723 725//725 724//724
f 725//725 778//778 724//724
f 777//777 726//726 720//720
f 783//783 726//726 777//777
f 671//671 730//730 675//675
f 726//726 730//730 671//671
f 726//726 783//783 730//730
f 721//721 727//727 728//728
f 725//725 728//728 778//778
f 731//731 778//778 728//728
f 677//677 675//675 729//729
f 730//730 729//729 675//675
f 729//729 730//730 790//790
f 730//730 783//783 790//790
f 677//677 729//729 679//679
f 680//680 727//727 674//674
f 727//727 731//731 728//728
f 732//732 679//679 729//729
f 729//729 790//790 732//732
f 732//732 746//746 679//679
f 733//733 727//727 680//680
f 681//681 747//747 733//733
f 733//733 747//747 734//734
f 727//727 733//733 731//731
f 734//734 731//731 733//733
f 747//747 748//748 734//734
f 734//734 735//735 778//778
f 778//778 735//735 784//784
f 735//735 751//751 752//752
f 752//752 736//736 735//735
f 734//734 778//778 731//731
f 739//739 736//736 756//756
f 735//735 736//736 741//741
f 739//739 757//757 737//737
f 757//757 742//742 737//737
f 738//738 743//743 745//745
f 737//737 743//743 738//738
f 737//737 738//738 739//739
f 742//742 743//743 737//737
f 739//739 740//740 741//741
f 739//739 738//738 740//740
f 745//745 740//740 738//738
f 741//741 736//736 739//739
f 745//745 792//792 740//740
f 741//741 791//791 735//735
f 740//740 791//791 741//741
f 743//743 742//742 744//744
f 745//745 743//743 744//744
f 793//793 745//745 744//744
f 794//794 792//792 793//793
f 792//792 745//745 793//793
f 746//746 761//761 679//679
f 746//746 796//796 761//761
f 746//746 732//732 796//796
f 747//747 705//705 748//748
f 748//748 712//712 750//750
f 748//748 750//750 734//734
f 755//755 751//751 749//749
f 750//750 751//751 735//735
f 755//755 752//752 751//751
f 750//750 735//735 734//734
f 753//753 757//757 756//756
f 756//756 755//755 754//754
f 756//756 754//754 753//753
f 755//755 749//749 754//754
f 756//756 752//752 755//755
f 736//736 752//752 756//756
f 689//689 742//742 757//757
f 739//739 756//756 757//757
f 713//713 765//765 692//692
f 765//765 768//768 758//758
f 758//758 692//692 765//765
f 798//798 760//760 759//759
f 798//798 759//759 758//758
f 744//744 759//759 760//760
f 793//793 744//744 760//760
f 762//762 695//695 700//700
f 695//695 764//764 771//771
f 802//802 764//764 809//809
f 802//802 771//771 764//764
f 762//762 700//700 764//764
f 808//808 763//763 761//761
f 763//763 700//700 761//761
f 763//763 764//764 700//700
f 808//808 809//809 763//763
f 796//796 808//808 761//761
f 809//809 764//764 763//763
f 751//751 711//711 749//749
f 765//765 713//713 766//766
f 766//766 713//713 715//715
f 766//766 715//715 767//767
f 767//767 715//715 717//717
f 765//765 766//766 768//768
f 768//768 766//766 767//767
f 717//717 770//770 767//767
f 798//798 758//758 768//768
f 812//812 769//769 770//770
f 769//769 768//768 767//767
f 770//770 769//769 767//767
f 798//798 768//768 810//810
f 811//811 810//810 768//768
f 800//800 769//769 812//812
f 811//811 768//768 769//769
f 800//800 811//811 769//769
f 770//770 717//717 771//771
f 771//771 812//812 770//770
f 773//773 664//664 718//718
f 773//773 772//772 664//664
f 724//724 778//778 779//779
f 718//718 723//723 724//724
f 724//724 779//779 774//774
f 718//718 774//774 773//773
f 718//718 724//724 774//774
f 773//773 775//775 776//776
f 775//775 773//773 774//774
f 775//775 774//774 780//780
f 719//719 772//772 777//777
f 772//772 776//776 777//777
f 783//783 777//777 776//776
f 772//772 773//773 776//776
f 776//776 782//782 783//783
f 776//776 775//775 782//782
f 779//779 778//778 784//784
f 779//779 786//786 781//781
f 779//779 781//781 774//774
f 774//774 781//781 780//780
f 780//780 781//781 788//788
f 780//780 782//782 775//775
f 782//782 788//788 787//787
f 788//788 782//782 780//780
f 789//789 783//783 787//787
f 783//783 782//782 787//787
f 784//784 735//735 791//791
f 791//791 792//792 785//785
f 784//784 791//791 785//785
f 784//784 785//785 779//779
f 785//785 794//794 786//786
f 785//785 786//786 779//779
f 786//786 795//795 799//799
f 799//799 781//781 786//786
f 790//790 783//783 789//789
f 787//787 797//797 789//789
f 796//796 790//790 797//797
f 790//790 796//796 732//732
f 789//789 797//797 790//790
f 791//791 740//740 792//792
f 785//785 792//792 794//794
f 793//793 760//760 795//795
f 793//793 795//795 794//794
f 786//786 794//794 795//795
f 781//781 801//801 788//788
f 781//781 799//799 801//801
f 807//807 787//787 788//788
f 788//788 801//801 807//807
f 787//787 805//805 797//797
f 787//787 807//807 805//805
f 795//795 760//760 798//798
f 795//795 798//798 810//810
f 810//810 811//811 795//795
f 799//799 795//795 811//811
f 799//799 811//811 801//801
f 811//811 800//800 801//801
f 800//800 812//812 806//806
f 806//806 801//801 800//800
f 807//807 801//801 806//806
f 808//808 797//797 805//805
f 804//804 803//803 805//805
f 809//809 803//803 804//804
f 812//812 802//802 804//804
f 809//809 804//804 802//802
f 802//802 812//812 771//771
f 805//805 803//803 808//808
f 806//806 804//804 805//805
f 812//812 804//804 806//806
f 806//806 805//805 807//807
f 808//808 796//796 797//797
f 808//808 803//803 809//809
