# Wavafront OBJ file of BodyParts3D
# BodyParts3D, Copyright(C) 2010-2011 The Database Center for Life Science licensed under CC Attribution-Share Alike 2.1 Japan.
vn -0.468492 -0.772876 -0.427992
v 31.4281 -167.061 1504.69
vn -0.238004 -0.946029 -0.219961
v 31.7402 -167.239 1504.73
vn -0.371625 -0.928147 -0.0209128
v 31.116 -167.112 1505.36
vn -0.0708198 -0.991873 0.105704
v 31.7402 -167.282 1505.36
vn -0.909052 0.117423 -0.399796
v 31.3817 -165.812 1504.73
vn -0.865227 0.09487 -0.492322
v 31.5817 -165.812 1504.11
vn -0.813605 0.355296 -0.460229
v 31.4744 -165.5 1504.73
vn -0.568375 -0.677495 -0.466851
v 32.001 -166.748 1503.8
vn -0.891276 -0.430574 -0.142247
v 29.8676 -165.812 1507.19
vn -0.848555 -0.525085 0.0651154
v 29.8676 -165.812 1507.45
vn -0.828677 0.501596 0.248386
v 30.0407 -165.188 1507.54
vn -0.769349 -0.638646 -0.0152412
v 30.2131 -166.436 1506.92
vn -0.531104 -0.681506 0.503466
v 30.1797 -166.244 1507.54
vn -0.346111 -0.910857 0.224827
v 30.777 -166.748 1506.92
vn -0.854159 -0.405776 -0.325205
v 30.4918 -166.392 1505.98
vn -0.825629 0.286859 -0.485848
v 30.8039 -164.876 1505.95
vn -0.0656013 -0.714446 0.696608
v 31.4281 -166.717 1507.54
vn -0.315118 -0.146728 0.937641
v 30.4918 -165.812 1507.94
vn -0.240038 0.344666 0.907517
v 31.116 -164.457 1507.85
vn -0.578328 0.590037 0.563377
v 32.0522 -162.943 1507.23
vn -0.802028 0.596134 0.0370759
v 32.2058 -162.691 1506.92
vn -0.831058 0.522026 0.191916
v 32.2712 -162.691 1507.23
vn -0.094858 0.573482 -0.813708
v 32.0522 -145.214 1517.57
vn -0.96 -0.262088 -0.0985343
v 31.4793 -145.214 1518.78
vn -0.959153 0.270764 -0.0819328
v 31.6207 -144.902 1518.15
vn -0.996045 0.0815867 -0.0351889
v 31.4607 -144.902 1520.03
vn -0.826843 -0.46475 -0.316761
v 31.7962 -145.526 1518.15
vn -0.242868 0.64971 -0.720342
v 32.0522 -144.568 1518.15
vn -0.98154 0.184154 0.051636
v 31.333 -145.214 1521.9
vn -0.934387 -0.354722 -0.0330657
v 31.5036 -145.214 1520.65
vn -0.885236 0.460655 -0.0644495
v 31.4281 -144.907 1522.21
vn -0.988148 0.0665179 0.138346
v 31.4281 -145.1 1522.52
vn -0.79748 -0.60153 -0.0467712
v 31.8547 -145.838 1520.34
vn -0.246143 0.918802 0.30857
v 31.7402 -144.929 1522.52
vn -0.28581 0.949968 0.12599
v 32.0522 -144.719 1520.65
vn -0.985687 -0.0533818 0.159913
v 31.5524 -145.526 1523.15
vn -0.684835 -0.727045 0.0490531
v 31.6256 -145.526 1524.39
vn -0.681363 -0.621597 0.386473
v 31.9903 -145.838 1524.71
vn -0.223305 0.932421 0.284121
v 31.7402 -145.119 1523.15
vn -0.939497 0.341579 0.0258759
v 31.7402 -145.105 1524.39
vn -0.627788 -0.199812 0.752301
v 32.0522 -145.526 1524.95
vn -0.0464031 0.989658 0.135734
v 32.0522 -145.09 1524.39
vn -0.346764 -0.857415 -0.380255
v 32.3643 -167.053 1503.8
vn 0.0787929 -0.993105 -0.0868003
v 32.6764 -167.209 1504.42
vn -0.0621502 -0.946004 -0.31814
v 32.6764 -167.061 1503.6
vn 0.313895 -0.948955 0.0308858
v 33.2919 -167.061 1504.42
vn 0.250324 -0.957007 -0.146542
v 33.3006 -167.014 1503.8
vn 0.220652 -0.966439 0.131565
v 32.3643 -167.209 1505.36
vn 0.180686 -0.933038 0.311115
v 32.3643 -166.907 1506.92
vn -0.578807 -0.253483 -0.775067
v 32.6764 -166.436 1502.74
vn -0.695075 0.395713 -0.600236
v 32.6764 -165.5 1502.79
vn -0.175555 -0.784617 -0.594606
v 32.9885 -166.748 1502.84
vn -0.395395 -0.773093 -0.495973
v 32.3643 -166.748 1503.21
vn 0.183988 -0.920843 -0.343797
v 33.6127 -166.722 1502.86
vn -0.0107276 -0.0057088 0.999926
v 32.6764 -165.429 1507.85
vn -0.310205 0.22379 0.923954
v 32.3643 -163.003 1507.38
vn -0.721467 0.553648 -0.415885
v 32.9227 -162.067 1505.67
vn -0.5762 0.111998 0.809598
v 32.9885 -161.443 1507.46
vn -0.856786 0.513242 -0.0499932
v 33.0885 -161.131 1507.23
vn -0.496448 -0.0189117 0.86786
v 33.3006 -161.755 1507.7
vn -0.485806 0.6331 -0.602641
v 33.9248 -161.443 1505.49
vn -0.534531 0.669686 -0.515555
v 34.2369 -159.982 1506.61
vn -0.635424 -0.0845466 0.767521
v 33.8346 -159.882 1508.17
vn -0.597362 -0.234132 0.767034
v 34.2369 -160.062 1508.48
vn -0.715333 0.607563 -0.345205
v 34.054 -159.258 1508.17
vn -0.692043 -0.21014 0.690592
v 34.2369 -159.037 1508.79
vn -0.957635 0.196095 0.210906
v 34.7172 -157.698 1509.73
vn -0.885511 -0.191582 -0.423281
v 34.549 -149.896 1515.18
vn -0.794266 -0.0473998 -0.605718
v 34.5514 -149.584 1515.03
vn -0.805109 -0.11774 -0.581323
v 34.3076 -149.584 1515.34
vn -0.880224 -0.433407 0.193301
v 34.2369 -149.312 1515.66
vn -0.799361 -0.559899 0.218026
v 34.6148 -149.896 1515.66
vn -0.779146 0.153456 -0.607769
v 34.549 -148.647 1514.93
vn -0.836961 -0.344179 -0.425484
v 33.3177 -147.399 1517.22
vn -0.837886 -0.143073 -0.526761
v 33.8931 -148.023 1516.59
vn -0.979698 -0.0933663 -0.177413
v 34.1076 -148.959 1515.66
vn -0.909053 -0.404669 -0.0993306
v 34.0199 -148.335 1516.59
vn -0.83892 0.202977 -0.504989
v 34.0589 -148.023 1516.28
vn -0.583519 0.235149 -0.777309
v 33.9248 -147.609 1516.59
vn -0.257455 0.710549 -0.654856
v 34.4163 -147.711 1516.28
vn 0.0949266 0.729954 -0.676872
v 34.2369 -147.474 1516.59
vn -0.738836 -0.543188 0.398835
v 33.5706 -147.087 1525.33
vn -0.643597 -0.759056 0.0980646
v 34.1286 -147.399 1525.95
vn -0.872807 -0.183259 0.452355
v 34.2369 -147.087 1526.31
vn 0.302205 0.480836 -0.823085
v 32.9885 -146.151 1517.4
vn -0.66322 -0.252062 -0.704701
v 32.3643 -146.101 1517.84
vn 0.393315 0.65639 -0.643782
v 32.7032 -144.902 1517.84
vn 0.248705 0.962387 -0.109348
v 32.6764 -144.534 1518.78
vn 0.520982 0.612148 -0.594856
v 33.6127 -145.929 1517.84
vn 0.0626083 0.981336 0.181823
v 32.6764 -144.675 1521.59
vn 0.424643 0.819719 0.384369
v 32.9885 -145.002 1522.21
vn 0.345333 0.882881 0.318223
v 33.9359 -144.902 1521.59
vn 0.34911 0.572611 0.741781
v 34.2369 -146.168 1522.52
vn -0.0137084 0.625396 0.780187
v 34.2369 -145.526 1522.03
vn -0.436395 0.600786 0.669788
v 34.549 -145.838 1522.34
vn -0.131113 0.659239 0.740414
v 34.549 -145.319 1521.9
vn 0.40583 0.828619 0.385606
v 32.3643 -145.192 1524.39
vn -0.662859 -0.713735 0.226275
v 32.9885 -146.699 1524.71
vn -0.617516 -0.430001 0.658615
v 32.9885 -146.526 1525.02
vn -0.49224 -0.193045 0.848783
v 32.9885 -146.151 1525.1
vn 0.563094 0.803444 0.193397
v 33.5859 -145.838 1523.77
vn 0.342448 0.767043 0.542563
v 33.6127 -146.27 1525.02
vn 0.24236 0.905152 0.34923
v 34.2369 -146.528 1525.02
vn 0.354269 0.928944 0.107505
v 34.2369 -146.463 1524.53
vn -0.5308 0.670618 0.518192
v 34.549 -146.226 1522.83
vn -0.574488 0.491149 0.654779
v 33.6127 -146.505 1525.33
vn -0.719861 -0.250072 0.647506
v 33.6127 -146.775 1525.53
vn -0.0450836 -0.671691 -0.739458
v 35.1731 -165.5 1501.21
vn 0.349734 -0.853855 -0.38551
v 35.7973 -165.663 1501.61
vn 0.351448 -0.659124 -0.66486
v 36.7336 -164.571 1500.68
vn 0.427099 -0.900214 -0.0848633
v 36.4215 -165.737 1503.48
vn 0.348968 -0.91704 0.193024
v 37.3016 -165.188 1507.23
vn -0.236089 -0.218404 0.946869
v 35.7973 -164.564 1508.32
vn 0.169003 -0.767252 0.618677
v 36.1094 -165.322 1507.85
vn -0.740828 0.594236 -0.31314
v 35.6388 -162.067 1501.92
vn -0.469755 0.0983443 -0.877302
v 36.1094 -164.252 1500.38
vn -0.426692 0.0749346 -0.901287
v 37.178 -162.691 1500.36
vn -0.613738 0.694253 -0.37595
v 34.8611 -162.379 1503.34
vn -0.952512 0.299912 -0.0526733
v 36.9701 -159.57 1499.74
vn -0.739322 0.162128 -0.653543
v 36.441 -161.755 1500.99
vn -0.888259 0.363129 -0.281306
v 36.5068 -161.131 1501.3
vn -0.964427 0.0842278 -0.250572
v 36.9311 -160.195 1500.36
vn -0.922067 0.380424 0.0712069
v 37.0457 -159.801 1500.36
vn -0.739481 0.597395 -0.310302
v 35.7973 -161.606 1503.8
vn -0.410443 0.667029 -0.621779
v 35.4852 -160.178 1505.67
vn -0.773184 0.585221 -0.244342
v 37.1944 -158.634 1504.73
vn -0.49021 0.720901 -0.489894
v 36.1094 -158.946 1506.69
vn -0.603362 0.652378 -0.458646
v 34.8611 -157.686 1509.41
vn -0.331045 0.812302 -0.480182
v 35.1731 -157.769 1509.1
vn -0.442692 0.877905 -0.1825
v 37.0457 -157.544 1508.48
vn -0.618696 0.67886 -0.395429
v 35.1366 -156.449 1510.66
vn -0.785259 -0.103697 0.610422
v 35.1731 -156.762 1510.74
vn -0.731212 0.0919494 0.675925
v 35.3738 -156.449 1510.97
vn -0.454952 0.767845 -0.451034
v 35.4852 -156.379 1510.35
vn -0.740592 0.137798 0.657675
v 35.4852 -156.137 1510.99
vn 0.206938 0.72771 -0.653923
v 35.7973 -156.449 1510.38
vn -0.657087 -0.154223 0.73787
v 35.7973 -156.449 1511.35
vn -0.776561 -0.0361662 0.629003
v 35.7973 -156.137 1511.37
vn 0.28162 0.637597 -0.71705
v 36.1094 -155.825 1511.24
vn -0.908449 0.417432 -0.0217119
v 36.7336 -154.779 1512.22
vn -0.699406 -0.239297 0.673474
v 36.7336 -154.889 1512.61
vn -0.573782 -0.400176 0.714586
v 37.0457 -155.201 1512.75
vn -0.69442 -0.416952 0.586457
v 36.7512 -154.577 1512.85
vn -0.315091 0.171268 -0.93348
v 36.7336 -153.329 1512.8
vn -0.79013 0.589258 -0.168731
v 37.0457 -154.265 1512.56
vn -0.89186 -0.409164 -0.192795
v 36.0314 -152.392 1513.47
vn -0.737575 -0.26424 -0.621418
v 35.7973 -152.08 1513.56
vn -0.59022 0.072782 -0.803955
v 36.1557 -153.017 1513.16
vn -0.863528 -0.480643 0.152648
v 36.1094 -152.704 1513.68
vn -0.667116 -0.613073 0.4232
v 36.6092 -153.017 1514.1
vn -0.428703 0.0825114 -0.89967
v 36.4215 -152.314 1513.16
vn -0.698384 -0.101092 -0.708547
v 36.7336 -154.135 1512.85
vn -0.790927 -0.431998 0.433373
v 36.8189 -154.265 1513.16
vn -0.326395 0.260295 -0.908687
v 37.0457 -152.392 1513.02
vn -0.870683 -0.476335 0.122543
v 34.9074 -150.832 1514.1
vn -0.814483 -0.377096 -0.440925
v 35.4243 -151.768 1514.1
vn -0.556433 0.0262822 -0.830476
v 35.7973 -151.456 1513.44
vn -0.417726 0.306623 -0.85527
v 35.1731 -149.271 1514.53
vn 0.233079 0.848865 -0.474449
v 34.8611 -147.718 1516.28
vn -0.68024 -0.724515 0.111137
v 34.8611 -148.959 1518.68
vn 0.489597 0.767658 -0.413517
v 34.8611 -147.036 1517.84
vn -0.0827817 0.914934 0.395022
v 34.8611 -147.011 1525.95
vn -0.240726 0.829127 0.504578
v 36.4215 -147.006 1526.89
vn -0.182469 0.804529 0.565188
v 37.0457 -146.784 1526.89
vn -0.362721 0.55903 0.7456
v 37.0457 -147.087 1527.12
vn 0.241287 0.957947 0.155301
v 36.1727 -147.399 1528.76
vn 0.481576 0.876013 -0.0261774
v 36.4215 -147.606 1530.01
vn 0.343686 0.916704 0.203799
v 37.0457 -148.069 1529.08
vn -0.860742 -0.49115 0.133769
v 35.7851 -148.335 1532.2
vn -0.97646 -0.06549 0.205515
v 35.712 -148.023 1532.2
vn 0.252844 0.967505 0.00183571
v 36.1094 -147.489 1531.57
vn 0.376173 0.920917 -0.102007
v 36.7336 -147.635 1531.88
vn -0.751054 -0.596884 0.282218
v 36.3605 -148.647 1534.69
vn -0.950234 -0.111132 0.291042
v 36.1094 -148.335 1534.37
vn -0.762049 0.576052 0.295713
v 36.1094 -148.023 1534.14
vn -0.503582 0.780971 0.369445
v 36.7336 -147.711 1534.45
vn -0.743773 0.275573 0.608984
v 36.6122 -148.335 1535.32
vn -0.297709 0.604598 0.738804
v 35.1731 -145.67 1522.52
vn -0.542689 0.609147 0.578297
v 34.8611 -146.151 1523.09
vn -0.457325 0.732062 0.504916
v 34.8611 -145.838 1522.86
vn -0.389479 0.790467 0.472724
v 35.1731 -146.631 1524.08
vn -0.404392 0.70206 0.586156
v 35.4852 -146.303 1523.77
vn -0.398551 0.917092 0.00994172
v 35.4852 -146.353 1524.71
vn -0.167004 0.860442 0.481404
v 36.1094 -146.104 1523.77
vn -0.108138 0.921511 0.372992
v 34.8611 -146.602 1525.33
vn -0.372551 0.756672 0.537264
v 35.4852 -146.586 1525.64
vn -0.28486 0.958306 0.0224676
v 35.4852 -146.368 1525.33
vn -0.394717 0.72904 0.559196
v 36.1094 -146.67 1526.27
vn -0.166446 0.87534 0.453956
v 36.1094 -146.236 1525.64
vn 0.545192 -0.80445 -0.235853
v 37.3578 -165.02 1502.55
vn -0.263466 -0.0993431 -0.95954
v 37.6699 -163.003 1500.19
vn -0.396079 -0.329108 -0.85721
v 37.6699 -162.379 1500.04
vn -0.130049 -0.308422 -0.942318
v 37.982 -162.548 1500.05
vn 0.481006 -0.666001 -0.570154
v 38.3428 -163.628 1500.99
vn 0.468023 -0.729031 -0.499468
v 39.5424 -162.801 1500.99
vn -0.118992 -0.621758 0.774117
v 39.2303 -162.691 1510.14
vn -0.86563 -0.247209 -0.435399
v 37.5504 -160.195 1497.55
vn -0.374679 -0.714942 -0.590317
v 37.982 -160.49 1497.24
vn 0.0497886 -0.824031 -0.564353
v 39.5424 -159.924 1495.99
vn -0.718385 -0.36159 -0.594285
v 37.3578 -161.755 1499.9
vn -0.891292 -0.317877 -0.323346
v 37.5114 -161.131 1499.11
vn -0.96714 0.02477 -0.253033
v 37.4139 -159.57 1498.18
vn -0.48902 -0.636621 -0.5963
v 37.6699 -161.755 1499.65
vn 0.20279 -0.797484 -0.568238
v 39.5424 -161.753 1499.43
vn -0.46032 -0.341292 0.819528
v 37.9924 -161.443 1510.04
vn -0.219533 -0.583569 -0.781827
v 39.5424 -159.258 1495.23
vn -0.399288 -0.0612303 -0.914779
v 39.5424 -158.946 1495.12
vn -0.740496 0.471394 -0.479012
v 38.5939 -157.698 1495.99
vn -0.615573 -0.2685 -0.74093
v 39.2303 -159.258 1495.4
vn -0.524054 0.741258 -0.419409
v 39.5424 -157.193 1495.99
vn -0.773478 0.626952 -0.093076
v 37.7503 -158.946 1501.92
vn -0.44698 0.858988 -0.249698
v 38.294 -158.476 1502.24
vn -0.484903 0.750095 -0.449696
v 38.6061 -156.808 1505.36
vn -0.578349 0.813134 0.0657756
v 37.6699 -157.213 1507.85
vn 0.142448 0.802076 -0.579985
v 37.982 -157.135 1510.04
vn -0.644815 0.6865 0.336054
v 38.015 -157.074 1508.17
vn -0.845207 0.527075 0.0884164
v 37.8088 -156.762 1507.23
vn -0.743887 0.586128 -0.321071
v 38.6963 -155.513 1507.23
vn -0.892088 0.429373 0.140776
v 38.4428 -155.825 1507.85
vn -0.767097 -0.593166 0.244368
v 38.294 -154.432 1509.1
vn -0.723486 0.336008 0.603048
v 38.6061 -155.825 1508.18
vn -0.897517 0.39614 -0.193743
v 38.6963 -155.201 1508.17
vn -0.667689 -0.582322 0.46378
v 38.789 -155.201 1508.79
vn -0.67373 0.546642 -0.497263
v 38.9182 -154.738 1508.17
vn -0.511344 0.845029 -0.156375
v 39.6192 -156.449 1509.41
vn -0.717455 0.439979 0.540071
v 39.6619 -156.137 1509.1
vn 0.2441 0.675638 -0.69565
v 38.294 -156.137 1511.87
vn 0.140326 0.859716 -0.491118
v 38.9182 -156.137 1512.05
vn -0.494577 -0.754071 -0.432169
v 38.9182 -154.443 1511.6
vn -0.557448 -0.793446 -0.244325
v 39.2303 -154.423 1511.29
vn -0.797893 0.5847 -0.146607
v 38.503 -153.953 1509.41
vn -0.579302 0.651036 -0.49047
v 38.6061 -154.009 1509.1
vn -0.342171 0.233984 -0.910038
v 37.5858 -154.265 1512.53
vn -0.897695 -0.241025 -0.368851
v 37.5797 -153.329 1511.91
vn -0.945966 -0.274578 -0.172496
v 37.4626 -153.329 1512.53
vn -0.577921 -0.725004 -0.374667
v 37.6699 -153.953 1512.43
vn -0.79684 -0.48225 -0.363978
v 37.6699 -153.641 1511.9
vn -0.723216 0.639089 -0.26177
v 37.6699 -153.017 1512.42
vn -0.577945 -0.741845 -0.340066
v 37.982 -153.936 1511.91
vn -0.743318 -0.445304 -0.499182
v 37.982 -153.641 1511.43
vn -0.569071 -0.737315 -0.36404
v 38.294 -154.048 1511.6
vn -0.271868 -0.538003 -0.797898
v 38.404 -153.641 1511.29
vn -0.314726 0.523686 -0.791645
v 38.294 -153.329 1511.47
vn -0.566209 -0.69414 0.444497
v 38.6061 -153.953 1510.51
vn -0.449179 -0.777445 -0.440246
v 38.6817 -153.953 1510.97
vn -0.991748 0.0190311 0.126781
v 38.672 -153.641 1510.97
vn -0.6306 0.699258 -0.336721
v 39.5424 -152.731 1510.97
vn -0.37611 0.648288 -0.662015
v 39.4327 -151.768 1512.22
vn -0.174254 0.307624 -0.935416
v 37.6699 -150.832 1513.04
vn -0.127723 0.493143 -0.860521
v 37.6699 -150.21 1513.47
vn -0.288308 0.550711 -0.783324
v 38.9182 -151.144 1512.85
vn 0.348962 0.891813 -0.287915
v 39.2303 -150.951 1513.47
vn 0.572648 0.78739 -0.228235
v 37.6699 -147.66 1521.27
vn -0.507497 0.516892 0.689398
v 37.3578 -146.894 1527.2
vn 0.0173953 0.946932 0.320962
v 37.6699 -148.187 1529.39
vn -0.0244767 0.99965 0.0100065
v 37.6699 -148.335 1530.17
vn 0.262591 0.947303 -0.183478
v 37.6699 -148.079 1531.88
vn -0.677413 0.72827 0.103602
v 38.294 -148.079 1531.57
vn -0.169983 0.985446 0.00166195
v 38.294 -148.074 1532.2
vn -0.886836 0.392517 0.243829
v 38.394 -147.711 1530.64
vn -0.788327 0.589618 0.175761
v 38.5501 -147.711 1531.57
vn -0.575929 0.787472 0.21953
v 38.294 -147.079 1530.32
vn -0.762833 0.588077 0.268796
v 38.6061 -147.842 1532.2
vn -0.850673 0.435402 0.294584
v 38.8036 -147.711 1532.51
vn 0.273515 0.961337 -0.0319428
v 37.4329 -147.711 1533.13
vn -0.794289 0.490026 0.359139
v 39.2303 -147.711 1533.51
vn -0.542362 0.728552 0.418396
v 39.5424 -148.647 1534.81
vn -0.76165 -0.151632 0.629998
v 37.3578 -148.959 1536.03
vn 0.362511 0.895864 0.25693
v 37.6699 -148.152 1535.94
vn -0.708407 -0.507948 0.490049
v 37.982 -149.271 1536.67
vn -0.429333 0.544388 0.720635
v 37.982 -148.798 1536.57
vn 0.552167 0.814788 0.176725
v 38.294 -148.776 1536.57
vn -0.735726 -0.0978818 0.670169
v 38.9746 -149.271 1537.81
vn 0.381881 0.922439 0.0572113
v 37.3578 -146.775 1526.79
vn 0.436361 -0.87084 0.226334
v 40.1666 -163.689 1508.48
vn 0.126828 -0.732769 -0.668554
v 39.8545 -159.404 1495.37
vn 0.534509 -0.774763 -0.337701
v 41.727 -160.699 1499.74
vn -0.0280033 -0.463826 -0.885483
v 40.1666 -158.946 1495.01
vn -0.481635 0.37589 -0.791666
v 40.4787 -157.386 1495.09
vn -0.292886 -0.167672 -0.941331
v 40.861 -158.322 1494.75
vn -0.648499 0.126405 -0.750647
v 40.7908 -157.386 1494.92
vn -0.671541 0.313357 -0.671446
v 40.7908 -157.074 1495.04
vn 0.095054 -0.649916 -0.754039
v 41.1029 -158.634 1494.9
vn 0.262624 -0.80074 -0.538371
v 41.5248 -158.634 1495.06
vn -0.505446 -0.308407 -0.805859
v 41.4149 -157.92 1494.43
vn -0.519344 -0.482153 -0.705557
v 41.6934 -157.698 1494.12
vn -0.74599 -0.17112 -0.643597
v 41.4954 -157.386 1494.12
vn -0.126647 -0.670355 -0.731153
v 41.727 -158.108 1494.43
vn -0.497869 -0.474547 -0.7259
v 42.0391 -157.074 1493.36
vn -0.327519 0.837289 -0.437811
v 40.1666 -157.208 1504.11
vn -0.435571 -0.651877 0.620753
v 41.727 -157.726 1514.72
vn -0.863737 0.317514 -0.391335
v 41.2077 -155.513 1495.06
vn -0.942061 0.324967 -0.0831769
v 41.6905 -154.577 1495.06
vn -0.920747 0.186522 -0.342687
v 41.8806 -155.201 1493.81
vn -0.795034 -0.0607038 -0.60352
v 42.0391 -156.449 1493.12
vn -0.699779 0.712418 -0.0526241
v 40.1666 -156.657 1496.62
vn -0.715609 0.513441 -0.473585
v 40.4787 -156.516 1495.68
vn -0.845361 0.532033 0.0480069
v 41.3491 -155.201 1495.37
vn -0.79596 0.60421 0.037123
v 41.6389 -154.889 1496.93
vn -0.880676 0.473401 0.0173651
v 41.7831 -154.889 1496.31
vn -0.974015 0.19877 0.108561
v 41.7539 -154.577 1495.68
vn -0.898047 0.425059 0.113295
v 41.8563 -154.577 1496.93
vn -0.617042 0.739661 -0.268628
v 41.1029 -155.633 1499.11
vn -0.761088 0.611169 -0.217295
v 41.727 -154.602 1500.05
vn -0.470849 0.790611 -0.391453
v 42.0391 -154.889 1499.16
vn -0.47197 0.642724 -0.603449
v 42.0391 -154.687 1499.43
vn -0.728722 0.684701 -0.0122487
v 40.0828 -156.137 1501.61
vn -0.894996 0.404772 0.187464
v 40.1544 -156.449 1502.86
vn -0.937437 0.340988 -0.0702779
v 40.4275 -156.137 1504.11
vn -0.819237 0.447794 -0.358233
v 40.3641 -155.825 1504.73
vn -0.890565 0.392153 0.230455
v 40.525 -155.513 1503.17
vn -0.836493 0.547283 -0.0275946
v 40.7908 -155.403 1504.11
vn -0.639181 0.646571 -0.416405
v 41.1029 -154.95 1504.73
vn -0.908183 0.400814 0.120629
v 41.1199 -154.577 1503.8
vn -0.659022 0.644806 -0.387189
v 41.4149 -154.287 1503.17
vn -0.88437 0.424668 -0.193768
v 41.5588 -154.577 1504.73
vn -0.642633 0.541989 -0.541545
v 39.8545 -155.825 1505.66
vn -0.641607 -0.456914 0.616093
v 40.2958 -155.201 1510.04
vn -0.563498 -0.729768 -0.387181
v 39.8545 -154.889 1511.3
vn -0.582491 -0.79529 -0.167983
v 40.1666 -154.887 1510.35
vn -0.863609 0.410653 0.292478
v 40.5299 -155.201 1510.35
vn -0.84362 -0.501232 -0.192539
v 41.4857 -152.704 1495.06
vn -0.976812 -0.116325 -0.179742
v 41.7977 -153.329 1495.06
vn -0.82071 -0.50401 -0.269089
v 40.8712 -152.08 1495.37
vn -0.823135 -0.563381 0.0710598
v 40.8176 -152.08 1495.68
vn -0.833126 -0.552711 0.0203043
v 41.6173 -153.017 1495.68
vn -0.972085 0.0214116 0.233651
v 41.944 -154.265 1496.93
vn -0.974658 -0.216789 0.055169
v 41.749 -153.329 1495.68
vn -0.750034 -0.599405 0.279577
v 41.8124 -152.08 1498.8
vn -0.886893 0.415978 -0.200956
v 42.0647 -153.953 1500.05
vn -0.468428 0.0832356 -0.879572
v 42.3 -153.329 1500.05
vn -0.825391 -0.472718 0.308653
v 42.0391 -152.704 1498.24
vn -0.611717 0.768584 0.187299
v 42.1488 -154.265 1500.68
vn -0.92523 0.341594 -0.165118
v 42.0391 -153.953 1500.38
vn -0.851185 -0.10293 -0.514674
v 41.3345 -152.392 1504.73
vn -0.966183 -0.257675 0.00968597
v 41.3394 -152.392 1505.04
vn -0.962679 -0.270343 0.0128066
v 41.1029 -151.9 1504.73
vn -0.952612 0.0776917 0.294099
v 41.5052 -154.265 1504.42
vn -0.781927 0.483587 -0.393362
v 41.4149 -153.565 1504.11
vn -0.784343 0.340445 -0.51856
v 41.4149 -153.329 1504.38
vn -0.998809 -0.0469758 -0.0131775
v 41.5588 -153.329 1505.04
vn -0.652304 0.337283 -0.678778
v 41.727 -153.329 1503.9
vn -0.672296 0.518384 -0.528484
v 41.0029 -153.953 1505.67
vn -0.96841 0.0206361 -0.248507
v 41.276 -152.704 1506.92
vn -0.975221 -0.208872 -0.0729128
v 41.1029 -151.803 1506.29
vn -0.846652 0.355412 -0.39606
v 41.4149 -153.66 1505.36
vn -0.646274 0.667203 -0.370365
v 39.8545 -153.017 1509.55
vn -0.808522 0.553871 -0.198792
v 40.5055 -152.704 1508.48
vn -0.863749 -0.127436 -0.487542
v 42.3244 -151.768 1491.94
vn -0.803276 0.51692 -0.295873
v 40.9249 -151.456 1495.06
vn -0.990757 -0.0654905 -0.118793
v 40.6567 -151.768 1495.68
vn -0.917121 -0.307481 0.253661
v 40.8663 -151.768 1496.62
vn -0.828779 0.550377 -0.101052
v 40.7908 -151.456 1495.62
vn -0.892852 0.436211 0.111963
v 40.7908 -151.447 1496.31
vn -0.975703 -0.132475 0.174511
v 41.0907 -151.456 1497.55
vn -0.650438 0.754551 -0.0870817
v 41.0954 -151.144 1495.68
vn -0.855039 0.515154 0.0593629
v 41.2028 -151.144 1497.55
vn -0.640023 0.766877 -0.0476416
v 41.467 -150.832 1496.62
vn -0.790744 -0.590646 0.160814
v 41.4076 -151.768 1498.18
vn -0.796656 -0.544887 0.261605
v 41.1931 -151.456 1498.49
vn -0.907488 0.414665 0.0672256
v 41.1882 -151.144 1498.18
vn -0.863699 0.478693 0.157724
v 41.5637 -150.832 1499.43
vn -0.811598 -0.487262 0.322312
v 42.0854 -151.768 1500.05
vn -0.898136 0.310257 0.311597
v 41.8855 -150.832 1500.68
vn -0.77528 -0.431525 0.461223
v 42.0391 -151.144 1500.72
vn -0.770215 0.598265 0.221016
v 42.0391 -150.468 1500.68
vn -0.998359 0.0278402 -0.0500419
v 41.1239 -151.144 1504.73
vn -0.808278 -0.0586671 -0.585871
v 41.4149 -151.768 1504.31
vn -0.51844 -0.421599 -0.743958
v 42.1511 -151.144 1503.8
vn -0.959445 -0.209964 -0.188097
v 41.0565 -151.768 1506.92
vn -0.981776 -0.186852 -0.034658
v 41.037 -151.456 1506.29
vn -0.674441 0.729125 0.116218
v 41.4149 -151.234 1507.54
vn -0.403529 0.904209 0.139896
v 42.0391 -150.961 1507.85
vn -0.0218734 0.988707 -0.148258
v 40.4787 -151.454 1512.22
vn -0.736037 0.649198 -0.191809
v 41.4149 -151.4 1510.35
vn -0.297843 0.57764 0.760014
v 41.5539 -149.584 1537.19
vn -0.578376 -0.775416 0.253399
v 40.7908 -151.005 1538.44
vn 0.407031 0.847421 0.340886
v 41.4149 -151.298 1538.44
vn 0.191969 0.98077 -0.0351803
v 42.0391 -149.547 1537.81
vn 0.603148 0.795494 -0.0583218
v 40.9346 -148.335 1533.13
vn -0.603565 0.729496 0.321784
v 40.7908 -147.767 1536.57
vn -0.54748 0.496845 0.673358
v 41.1029 -149.104 1536.57
vn -0.471007 -0.668515 0.575535
v 41.279 -148.959 1536.88
vn -0.816718 -0.500502 0.287174
v 41.1029 -148.835 1536.88
vn -0.769138 -0.596824 0.228535
v 41.1029 -148.716 1537.19
vn 0.476215 0.87699 0.0640939
v 41.4149 -148.87 1536.88
vn 0.641691 -0.755988 -0.129291
v 42.6633 -161.796 1506.29
vn 0.179368 -0.839559 0.512805
v 43.2875 -160.507 1512.38
vn 0.0316034 -0.71319 -0.700258
v 42.3512 -157.362 1493.5
vn 0.354057 -0.79619 -0.490638
v 42.6633 -157.471 1493.81
vn 0.358074 -0.64742 -0.672779
v 42.9754 -156.853 1493.19
vn -0.138675 -0.825157 0.547618
v 44.5358 -158.246 1515.66
vn -0.958264 -0.282765 0.0421303
v 44.2993 -157.698 1541.87
vn -0.226588 -0.456862 -0.860195
v 42.3512 -156.762 1493.04
vn -0.648406 0.758439 0.0658813
v 42.3512 -154.784 1498.8
vn -0.479357 0.656257 -0.582704
v 42.9754 -154.355 1499.43
vn -0.544714 -0.789653 0.282372
v 44.1914 -155.513 1521.27
vn -0.492281 -0.870238 0.0185794
v 44.5358 -155.067 1525.33
vn -0.186241 0.588218 0.786965
v 44.5358 -154.485 1541.56
vn -0.803023 -0.361207 -0.474008
v 42.4951 -152.08 1491.94
vn -0.62264 -0.199004 -0.756781
v 43.2875 -153.641 1491.49
vn -0.555411 -0.216557 -0.802884
v 43.2875 -152.08 1491.22
vn 0.11906 -0.349693 -0.929268
v 43.5996 -153.641 1491.38
vn -0.918427 -0.0409377 -0.393467
v 42.5195 -153.329 1492.87
vn -0.822988 0.382926 0.419593
v 42.6023 -154.265 1498.49
vn -0.765154 -0.194021 0.613917
v 42.3732 -153.641 1498.18
vn -0.379671 0.368488 -0.848567
v 42.6633 -153.953 1499.74
vn -0.486544 0.102964 -0.867568
v 42.8522 -153.641 1499.74
vn -0.522029 -0.141256 -0.841149
v 42.6633 -152.943 1499.74
vn -0.823431 -0.566383 0.0342437
v 42.6633 -152.704 1499.5
vn -0.755143 -0.511733 0.409742
v 43.1192 -153.329 1499.11
vn -0.662029 0.678062 0.319295
v 43.3533 -153.953 1499.11
vn -0.813993 -0.297153 0.499114
v 43.2875 -153.641 1499.09
vn -0.497789 0.0750798 -0.864043
v 43.394 -153.641 1499.43
vn -0.917149 0.0406286 0.396469
v 42.3829 -152.392 1500.36
vn -0.494041 0.772455 -0.399044
v 42.7096 -154.265 1501.61
vn -0.81821 0.298283 0.491488
v 44.0458 -152.392 1502.55
vn -0.523812 0.621147 -0.582922
v 43.5996 -153.18 1502.86
vn -0.8348 0.519166 0.183237
v 44.1482 -152.392 1502.86
vn -0.648896 0.0405404 -0.759796
v 43.9287 -152.392 1503.17
vn -0.848351 -0.517618 -0.111229
v 44.0263 -152.08 1502.86
vn -0.484076 0.656198 -0.578856
v 42.6633 -151.142 1491.94
vn 0.0578344 0.730809 -0.680128
v 43.2875 -151.034 1491.94
vn 0.337257 0.643789 -0.686872
v 43.9117 -151.456 1491.72
vn -0.522434 0.826205 -0.210828
v 42.9754 -150.137 1493.81
vn -0.15391 0.872646 -0.463467
v 43.2875 -150.208 1493.21
vn 0.223135 0.803791 -0.551481
v 44.2238 -149.896 1493.9
vn -0.206696 0.870934 -0.445816
v 44.2238 -149.371 1494.75
vn 0.217018 0.749768 -0.625101
v 44.5358 -149.64 1494.43
vn -0.839724 -0.176385 0.513567
v 42.6804 -151.768 1500.99
vn -0.841817 -0.392609 0.370409
v 42.7633 -150.832 1501.92
vn -0.985086 -0.0307884 0.169288
v 42.8706 -150.832 1502.55
vn -0.892641 -0.181328 0.412689
v 42.6999 -150.52 1501.92
vn -0.971659 -0.112366 0.207973
v 42.8608 -150.52 1502.55
vn -0.836203 0.479532 0.266107
v 43.0705 -149.896 1502.24
vn -0.9121 0.245962 -0.327987
v 42.6267 -150.832 1503.17
vn -0.628293 0.758107 -0.174704
v 42.5875 -150.52 1504.11
vn -0.791173 0.587283 -0.170717
v 42.7615 -150.52 1503.17
vn -0.462862 -0.228405 -0.856499
v 42.9754 -151.768 1503.59
vn -0.58588 -0.618962 -0.523098
v 42.9754 -151.254 1503.17
vn -0.800099 0.595863 0.0692047
v 42.9754 -150.321 1502.86
vn -0.688472 -0.705016 -0.170171
v 43.4381 -151.456 1502.86
vn -0.619064 -0.529734 -0.579777
v 43.5996 -151.768 1503.22
vn -0.349061 0.922541 0.164545
v 42.9754 -151.068 1510.66
vn -0.551668 0.828856 0.0930583
v 43.9117 -151.195 1513.16
vn 0.252168 0.964652 0.0765379
v 43.5996 -149.942 1535.32
vn -0.47597 0.762307 -0.438566
v 44.5358 -148.864 1495.37
vn -0.707249 0.706964 0.000586662
v 44.5358 -148.271 1498.18
vn -0.657237 0.746879 0.101052
v 44.2238 -149.108 1503.48
vn 0.215437 0.974567 -0.0616909
v 42.4478 -148.959 1530.95
vn 0.61585 -0.773558 0.149453
v 45.4721 -159.295 1512.22
vn -0.854467 -0.457888 -0.245405
v 45.3088 -159.57 1536.88
vn -0.686622 -0.652969 -0.31966
v 46.0963 -160.246 1536.57
vn -0.687377 -0.680989 -0.25252
v 45.16 -160.896 1540
vn -0.507113 -0.818053 -0.271339
v 45.4721 -160.928 1539.06
vn 0.328491 -0.924263 -0.194504
v 46.4084 -160.987 1538.75
vn 0.391372 -0.907477 -0.15269
v 46.4084 -160.982 1540
vn -0.862143 -0.48112 0.15885
v 45.1039 -161.131 1541.25
vn -0.888939 -0.450441 -0.0830109
v 44.9138 -160.819 1540.62
vn -0.912067 -0.233259 0.33723
v 44.9528 -160.819 1540.93
vn -0.884896 -0.214826 0.413289
v 45.2892 -160.819 1541.87
vn -0.647453 -0.741174 -0.177385
v 45.4721 -161.47 1540.93
vn -0.689863 -0.723389 -0.0282552
v 45.4721 -161.494 1541.56
vn -0.182429 -0.953013 -0.241839
v 45.4721 -161.197 1540.31
vn 0.451596 -0.892108 -0.0142707
v 46.7205 -161.182 1541.87
vn 0.748632 -0.662254 -0.0311493
v 47.113 -160.819 1541.87
vn -0.76329 -0.38331 0.52006
v 46.0963 -160.819 1543.32
vn -0.72191 -0.148334 0.675901
v 46.0963 -160.195 1543.73
vn 0.0786008 -0.90983 0.407469
v 46.4084 -161.002 1543.12
vn -0.200648 -0.587726 0.783785
v 46.4084 -160.507 1543.84
vn 0.522521 -0.822634 0.224156
v 47.0326 -160.816 1543.12
vn 0.34138 -0.767098 0.543159
v 47.0326 -160.507 1543.75
vn -0.150448 -0.15211 0.976846
v 47.0326 -159.453 1544.37
vn 0.593279 -0.724264 -0.351371
v 44.8479 -156.935 1495.68
vn 0.79914 -0.600321 0.0314761
v 46.9277 -158.01 1509.41
vn 0.268251 -0.880274 0.391357
v 45.4721 -158.01 1515.97
vn 0.349771 -0.893857 0.280498
v 45.4721 -157.661 1516.9
vn 0.545218 -0.810803 0.212921
v 46.4084 -157.159 1516.9
vn -0.737582 -0.364721 0.568288
v 45.4721 -158.01 1543.56
vn -0.84701 -0.126489 0.516308
v 45.7866 -159.258 1543.12
vn -0.772131 -0.0282636 0.634835
v 46.1816 -159.258 1543.74
vn -0.59355 -0.0379918 0.8039
v 46.4084 -158.634 1544.14
vn -0.503587 -0.0630106 0.861644
v 46.7205 -159.258 1544.25
vn -0.174983 0.120966 0.977112
v 47.0326 -158.01 1544.34
vn 0.668055 -0.4674 -0.578999
v 44.9381 -154.889 1492.87
vn 0.784515 -0.564434 -0.256808
v 45.8257 -156.137 1496.31
vn -0.251421 -0.938048 0.238439
v 45.7842 -156.137 1522.07
vn 0.292068 -0.951027 0.10121
v 46.4084 -156.213 1521.9
vn -0.379425 -0.922169 -0.0751023
v 45.7842 -155.945 1527.52
vn -0.175011 -0.983992 -0.0336442
v 46.7205 -156.106 1525.95
vn -0.585564 0.208429 0.783372
v 46.5254 -155.201 1543.43
vn 0.523302 -0.106918 -0.845413
v 44.8479 -152.704 1491.72
vn 0.503194 0.292232 -0.813263
v 44.8479 -152.08 1491.8
vn 0.786746 -0.046021 -0.615559
v 45.4307 -152.392 1492.25
vn 0.875837 -0.264833 -0.403452
v 46.2109 -153.641 1494.12
vn 0.66948 0.417599 -0.614335
v 45.5428 -151.768 1492.56
vn 0.318566 0.624841 -0.712804
v 45.7842 -150.208 1494.34
vn 0.610867 0.427293 -0.66653
v 46.0963 -151.144 1493.82
vn 0.51961 0.352634 -0.778238
v 46.7098 -149.896 1495.06
vn 0.812225 0.103387 -0.574109
v 46.7205 -151.456 1494.6
vn -0.0451742 0.708943 -0.703818
v 44.8479 -148.959 1495.14
vn -0.731298 0.622877 -0.277898
v 45.5672 -147.087 1497.24
vn 0.0571037 0.591682 -0.804146
v 45.7842 -148.335 1495.54
vn -0.369864 0.639398 -0.674071
v 46.0963 -146.955 1496.62
vn 0.181342 0.455403 -0.871621
v 46.7205 -147.087 1496.4
vn -0.551401 0.826726 0.111721
v 45.16 -148.879 1506.29
vn -0.66224 0.660553 -0.353707
v 46.6338 -145.526 1497.55
vn -0.672295 0.738492 -0.0514653
v 46.7961 -145.214 1498.18
vn 0.72846 -0.677734 -0.100113
v 47.4251 -160.195 1540.31
vn 0.740354 -0.62441 0.248973
v 47.6153 -160.195 1543.43
vn 0.411948 -0.464912 0.783681
v 47.3447 -159.882 1544.2
vn 0.851805 -0.523486 -0.0197773
v 48.0395 -159.57 1543.12
vn 0.386491 -0.871392 -0.30216
v 47.6567 -156.866 1529.7
vn 0.757824 -0.628954 -0.173553
v 47.9469 -158.634 1535.01
vn 0.403689 0.077162 0.911637
v 48.2809 -158.01 1544.15
vn 0.859701 -0.360731 0.361646
v 48.6735 -158.322 1543.74
vn 0.769437 -0.638494 0.0170643
v 47.4934 -155.513 1521.9
vn 0.51815 -0.846653 -0.121242
v 47.3447 -155.925 1525.95
vn 0.816252 -0.55059 -0.174881
v 48.337 -155.201 1527.52
vn 0.908945 -0.407072 -0.0900672
v 49.2172 -156.528 1534.38
vn 0.742445 0.0637005 0.666871
v 49.5805 -155.825 1542.5
vn 0.877037 -0.443421 -0.184888
v 49.0246 -153.329 1503.17
vn 0.444343 0.796142 0.410752
v 49.2172 -149.518 1531.26
vn 0.507149 0.79201 0.339882
v 49.5293 -151.449 1535.94
vn -0.00151906 0.76584 0.643029
v 48.2809 -151.595 1538.13
vn 0.593927 0.196373 -0.780185
v 48.2809 -147.399 1497.03
vn 0.837431 -0.10242 -0.536861
v 48.7905 -148.023 1497.55
vn -0.842866 0.528584 -0.100875
v 48.5028 -147.087 1524.39
vn -0.521656 0.850852 0.0626654
v 47.3447 -148.464 1525.64
vn -0.84345 0.531537 0.0778411
v 48.2809 -147.435 1525.95
vn -0.293444 0.913591 0.281499
v 47.7222 -148.959 1529.7
vn -0.714329 0.655667 0.244612
v 48.2809 -147.989 1527.83
vn -0.168642 0.816618 0.551992
v 49.2172 -147.711 1528.59
vn 0.287612 0.850725 0.439938
v 48.593 -148.959 1530.38
vn -0.203543 0.733928 -0.648013
v 47.3447 -145.09 1497.55
vn 0.477545 0.310228 -0.822015
v 49.2172 -145.526 1497.99
vn -0.629911 0.759213 0.16373
v 49.5527 -146.463 1516.59
vn -0.617941 0.78576 -0.0270025
v 49.5293 -146.626 1518.78
vn -0.790891 0.611556 -0.0221349
v 48.8036 -146.151 1525.02
vn -0.658195 0.732018 -0.175866
v 49.2172 -146.151 1523.76
vn -0.314078 0.948696 -0.0364649
v 49.5293 -145.695 1525.02
vn -0.452738 0.830135 0.325429
v 49.2172 -145.924 1525.95
vn 0.990148 -0.133807 0.0412649
v 50.3071 -150.832 1529.39
vn 0.874652 0.389121 0.289084
v 49.9706 -149.896 1530.64
vn 0.926772 -0.356214 0.119188
v 51.3945 -148.335 1516.28
vn 0.960883 -0.0802175 0.265081
v 51.6481 -147.087 1517.22
vn 0.875561 -0.362823 0.318986
v 52.1699 -147.087 1515.34
vn 0.979479 -0.143937 0.14108
v 51.2872 -147.711 1518.46
vn 0.936986 -0.347369 0.0373196
v 50.5802 -149.271 1520.34
vn 0.99562 -0.0688898 0.0632094
v 51.0532 -147.087 1521.9
vn 0.994814 -0.0868963 0.0528548
v 50.8727 -147.711 1524.71
vn 0.492506 0.66706 0.558989
v 49.8414 -148.6 1529.39
vn 0.291954 0.727729 0.620623
v 49.8414 -147.177 1527.83
vn 0.891301 0.284056 0.353404
v 50.2242 -149.271 1529.39
vn 0.664668 0.541502 0.514774
v 50.1535 -147.399 1527.83
vn -0.841172 0.431909 0.325397
v 50.2144 -144.902 1514.72
vn -0.841329 0.540523 0.000461417
v 50.2973 -144.59 1514.1
vn -0.411254 0.900633 0.140466
v 50.1535 -146.153 1517.53
vn -0.418334 0.815053 0.400856
v 50.4656 -145.838 1517
vn -0.278292 0.841916 0.462311
v 50.7776 -145.838 1517.19
vn -0.630423 0.644525 0.432613
v 50.7776 -145.132 1516.28
vn -0.388398 0.629117 0.673319
v 51.0897 -145.214 1516.59
vn -0.602751 0.364599 0.70976
v 51.0897 -144.749 1516.28
vn 0.755285 0.385134 0.530298
v 51.5262 -146.463 1517.22
vn 0.673838 0.478203 0.563262
v 51.4018 -145.526 1516.57
vn 0.285356 0.0932485 0.953874
v 51.4018 -144.902 1516.48
vn 0.545264 -0.0805267 0.834387
v 51.7139 -145.214 1516.34
vn 0.228768 -0.0982975 0.968505
v 51.7139 -144.59 1516.39
vn 0.820081 0.0184379 0.57195
v 52.1113 -146.151 1515.97
vn -0.162293 0.98674 -0.00232761
v 50.4851 -146.151 1518.78
vn 0.465328 0.884948 0.0183456
v 50.7776 -146.187 1518.78
vn -0.133092 0.967257 0.216102
v 50.7776 -146.07 1517.84
vn 0.985374 0.0663313 0.156965
v 51.336 -146.775 1518.46
vn 0.970328 0.234998 0.0569171
v 50.8532 -146.151 1522.21
vn -0.353564 0.926973 -0.125352
v 49.8414 -145.782 1523.77
vn 0.239054 0.970982 -0.00684322
v 50.1535 -145.704 1524.08
vn 0.794629 0.594727 0.121918
v 50.7021 -146.151 1525.02
vn 0.987153 0.129191 0.0940131
v 50.9166 -146.775 1525.02
vn 0.0646252 0.842744 0.534422
v 49.8414 -145.938 1526.27
vn 0.030461 0.969245 0.244205
v 49.8414 -145.782 1525.95
vn 0.442329 0.851908 0.280353
v 50.1535 -145.86 1525.95
vn 0.462069 0.717642 0.521039
v 50.1535 -146.041 1526.27
vn 0.915171 0.289931 0.280003
v 50.6826 -146.775 1526.27
vn 0.730667 0.587097 0.348486
v 50.4656 -146.138 1525.95
vn 0.251496 0.543001 -0.801187
v 50.4656 -142.718 1500.29
vn -0.585262 0.80175 -0.1211
v 50.1535 -142.574 1500.99
vn -0.684993 0.725597 -0.0655248
v 50.7776 -142.018 1501.61
vn 0.704109 0.011331 -0.710002
v 52.026 -143.03 1501.01
vn -0.787973 0.613019 0.0575102
v 51.2482 -143.03 1508.48
vn -0.807264 0.578435 0.117207
v 50.4656 -143.88 1511.6
vn -0.880056 0.428879 -0.203876
v 50.5948 -143.966 1514.41
vn -0.965222 0.212749 0.151932
v 50.5509 -143.966 1515.03
vn -0.957972 0.192619 -0.212575
v 50.7167 -143.03 1515.03
vn -0.854061 0.518312 0.0439678
v 50.902 -143.966 1513.16
vn -0.754208 0.541752 -0.371046
v 51.1019 -143.342 1514.1
vn -0.864025 0.503152 0.0172814
v 51.3799 -143.03 1513.78
vn -0.90809 0.356909 0.219064
v 51.258 -142.718 1512.85
vn -0.877288 0.405688 0.256484
v 51.4628 -142.718 1513.47
vn -0.540208 0.704957 -0.459577
v 51.4018 -142.53 1514.72
vn -0.754467 0.652412 -0.0716785
v 51.7139 -142.54 1514.1
vn -0.496643 0.834689 -0.237993
v 52.026 -142.179 1514.72
vn -0.844949 0.237887 0.479031
v 52.026 -141.882 1514.1
vn -0.761338 0.587329 0.274608
v 52.126 -142.093 1514.41
vn -0.870017 -0.176287 0.460428
v 50.6728 -143.342 1515.34
vn -0.982453 -0.11492 0.146897
v 50.6289 -142.718 1515.66
vn -0.884285 0.38474 -0.264604
v 50.6338 -142.405 1515.66
vn -0.825827 -0.112014 0.552687
v 50.8679 -142.405 1516.59
vn -0.819911 -0.114642 0.560895
v 51.0897 -143.654 1516.01
vn -0.435881 0.775697 -0.456401
v 51.0897 -142.198 1515.34
vn -0.449037 0.893051 -0.0287185
v 51.0897 -141.959 1515.97
vn -0.418938 0.0645799 0.905716
v 51.4018 -144.278 1516.37
vn -0.608745 -0.24625 0.754183
v 51.4018 -143.654 1516.37
vn -0.486077 -0.381394 0.7863
v 51.4018 -142.718 1517.01
vn -0.349103 0.0389396 0.936275
v 51.4018 -142.405 1517.08
vn -0.395624 0.472452 0.787573
v 51.4018 -142.031 1516.9
vn -0.154057 -0.322368 0.933994
v 51.7139 -143.654 1516.54
vn -0.0207652 -0.350808 0.936217
v 51.7139 -142.718 1517.07
vn 0.212167 -0.309772 0.926837
v 52.026 -143.966 1516.44
vn 0.103288 -0.185962 0.977113
v 52.026 -142.405 1517.14
vn -0.0340318 0.313659 0.948926
v 52.026 -142.093 1517.15
vn -0.171182 0.715366 -0.677457
v 52.026 -140.945 1501.92
vn -0.779763 0.625976 -0.0111404
v 52.2186 -140.533 1502.86
vn -0.753721 0.243257 0.610517
v 52.2869 -141.781 1514.41
vn -0.809821 0.207922 0.548597
v 52.0918 -141.157 1514.1
vn -0.826975 0.542872 0.146296
v 52.2284 -140.533 1513.78
vn -0.192812 0.861378 0.469949
v 52.117 -141.781 1516.9
vn 0.807737 -0.534907 0.247861
v 53.9888 -144.902 1513.78
vn 0.695579 -0.379916 0.609782
v 52.8087 -145.526 1515.34
vn 0.439217 -0.363148 0.821713
v 52.6502 -144.902 1515.79
vn 0.695671 -0.605581 0.386411
v 54.2106 -144.125 1514.72
vn 0.188712 -0.404523 0.894846
v 52.3381 -143.03 1516.8
vn -0.404199 0.914551 -0.0148262
v 52.6502 -141.803 1515.34
vn 0.532855 -0.515535 0.671036
v 53.5865 -143.684 1515.97
vn -0.493557 0.734357 -0.465962
v 52.3381 -140.533 1502.23
vn 0.170349 0.47363 -0.864093
v 53.2744 -139.909 1502.55
vn -0.474443 0.513933 0.714687
v 52.6502 -140.533 1514.45
vn -0.652176 0.275232 0.706338
v 52.9623 -141.469 1515.05
vn -0.0267762 0.506872 0.861605
v 53.8985 -139.909 1514.19
vn -0.465388 0.82321 0.325176
v 53.5865 -141.362 1515.34
vn -0.318381 0.93307 0.167373
v 54.2106 -141.218 1516.28
vn 0.247736 0.168944 0.953984
v 54.2106 -141.364 1516.59
vn 0.370956 -0.161895 0.91443
v 54.5227 -141.781 1516.58
vn -0.727923 0.580324 -0.365175
v 53.8985 -138.348 1503.97
vn -0.243973 0.646251 -0.723074
v 54.2106 -138.348 1503.64
vn -0.279675 0.544729 -0.790602
v 54.2106 -137.842 1504.11
vn 0.158895 0.490787 -0.856668
v 54.5227 -138.036 1503.89
vn -0.80735 0.586183 -0.0676422
v 53.4621 -139.285 1512.85
vn -0.651801 0.648894 0.392545
v 53.5865 -139.063 1513.47
vn -0.850962 0.499135 0.163486
v 54.0278 -138.348 1512.85
vn 0.792392 -0.574969 0.20378
v 56.0832 -142.376 1513.78
vn 0.662225 -0.477734 0.57726
v 55.459 -142.402 1515.66
vn -0.510561 0.707171 0.489118
v 56.0832 -139.389 1514.72
vn 0.8879 -0.44536 0.115269
v 56.8658 -141.157 1513.47
vn -0.401715 0.813882 0.419788
v 54.8348 -140.789 1515.97
vn 0.0655003 0.548211 0.833771
v 55.1469 -140.845 1516.18
vn 0.651305 -0.155612 0.742689
v 55.459 -140.845 1516.08
vn 0.818771 -0.301946 0.488307
v 56.149 -141.469 1515.34
vn 0.138307 0.421173 -0.896373
v 54.8348 -137.116 1504.42
vn 0.516142 0.239118 -0.822447
v 55.459 -137.412 1504.61
vn -0.119423 0.383928 0.915608
v 54.8348 -138.348 1513.52
vn -0.300134 0.493335 0.816419
v 55.4256 -139.285 1513.78
vn -0.453113 0.385949 0.803575
v 55.1469 -137.412 1513.27
vn -0.305612 0.207719 0.929222
v 55.459 -138.348 1513.58
vn -0.477623 0.351738 0.805082
v 56.223 -138.66 1514.1
vn -0.221087 0.694223 0.684963
v 56.3953 -139.285 1514.87
vn -0.190509 0.496195 0.847052
v 57.0194 -138.348 1514.28
vn 0.166979 0.302802 -0.938312
v 55.459 -135.227 1505.31
vn -0.440907 0.481651 -0.757372
v 55.1097 -135.227 1505.36
vn -0.943567 0.329152 0.036616
v 55.0762 -134.603 1505.98
vn 0.0396279 0.248172 -0.967905
v 55.459 -134.603 1505.52
vn 0.668206 -0.0499812 -0.742295
v 56.9049 -136.476 1505.98
vn -0.253034 0.486021 0.836515
v 56.7074 -135.539 1513.37
vn -0.421728 0.418498 -0.804366
v 55.7711 -132.718 1505.98
vn -0.32258 0.416198 -0.85013
v 56.0832 -132.731 1505.86
vn -0.969926 0.224216 0.0947102
v 55.7979 -133.043 1508.79
vn -0.733933 0.449379 0.509314
v 56.1773 -132.106 1509.41
vn -0.993222 0.0427451 -0.108084
v 55.8759 -131.794 1507.54
vn -0.858692 0.189484 -0.476177
v 56.0271 -130.546 1507.23
vn -0.790614 0.487088 -0.371045
v 56.0832 -129.956 1507.54
vn -0.804906 0.532727 -0.261396
v 56.3953 -131.482 1506.58
vn -0.423979 0.456828 -0.782017
v 56.3953 -130.234 1506.99
vn -0.396595 0.866872 -0.302069
v 56.3953 -129.646 1507.54
vn -0.0504407 0.67865 -0.732728
v 56.7074 -129.786 1507.23
vn 0.12093 0.916614 -0.381045
v 57.0194 -129.598 1507.54
vn -0.854573 0.302568 0.422087
v 55.993 -130.546 1508.48
vn -0.969667 0.241957 -0.0346785
v 55.9101 -130.234 1507.85
vn -0.785308 0.608319 0.115059
v 56.0832 -129.88 1507.85
vn -0.367886 0.799055 0.475575
v 56.3953 -129.695 1508.17
vn 0.0706967 0.994414 0.0783774
v 57.0194 -129.544 1507.85
vn 0.838793 -0.307782 -0.449106
v 57.807 -137.412 1507.85
vn 0.924036 -0.381706 -0.0214029
v 58.675 -137.412 1510.97
vn 0.249689 0.414714 0.875024
v 57.3315 -138.66 1514.35
vn 0.92149 -0.243288 0.302765
v 58.3629 -137.412 1513.16
vn 0.918636 -0.331768 -0.214565
v 59.3284 -135.227 1509.41
vn 0.980792 -0.18331 0.0666665
v 59.5089 -134.915 1510.66
vn 0.379529 0.435926 0.816043
v 57.6026 -134.915 1512.85
vn 0.378698 0.133017 -0.915911
v 57.3315 -133.355 1506.03
vn 0.755994 -0.0696912 -0.650858
v 58.4833 -133.667 1506.92
vn 0.950621 -0.123945 -0.284529
v 59.5089 -133.667 1508.48
vn -0.0993011 0.610973 0.785399
v 57.9557 -133.472 1511.6
vn 0.464012 0.465723 0.753522
v 59.5917 -133.355 1510.66
vn 0.0703847 0.423754 -0.903038
v 57.3315 -130.858 1506.69
vn 0.276739 0.659375 -0.699028
v 57.3315 -129.885 1507.23
vn 0.489212 0.826773 -0.277701
v 58.2678 -129.922 1507.83
vn 0.590401 0.366688 -0.719004
v 58.5799 -130.546 1507.44
vn 0.168544 0.806776 0.566308
v 58.5799 -130.149 1508.79
vn 0.801032 0.0531739 -0.596255
v 59.226 -130.858 1508.17
vn -0.833582 -0.358762 -0.420037
v 31.4281 -167.061 1504.69
vn -0.872126 -0.0179834 -0.488951
v 31.4281 -167.061 1504.69
vn -0.836293 -0.424687 -0.346777
v 31.116 -167.112 1505.36
vn -0.819111 -0.185987 -0.542647
v 32.001 -166.748 1503.8
vn -0.912227 0.291412 -0.287959
v 29.8676 -165.812 1507.19
vn -0.614722 -0.107963 0.78132
v 29.8676 -165.812 1507.45
vn -0.963625 0.267258 0
v 29.8676 -165.812 1507.45
vn -0.804946 0.154826 -0.572792
v 30.4918 -166.392 1505.98
vn -0.481096 0.256193 0.838398
v 32.2712 -162.691 1507.23
vn -0.71359 -0.36298 -0.599196
v 32.0522 -145.214 1517.57
vn -0.875767 -0.246305 -0.41517
v 31.6207 -144.902 1518.15
vn -0.460234 0.594614 -0.659256
v 31.6207 -144.902 1518.15
vn -0.611245 0.789717 -0.0522138
v 31.6207 -144.902 1518.15
vn -0.542889 0.829047 0.133989
v 31.4607 -144.902 1520.03
vn -0.36768 0.929691 0.0220601
v 32.0522 -144.568 1518.15
vn 0.293687 0.892432 -0.342509
v 32.0522 -144.568 1518.15
vn -0.789815 -0.612169 -0.0379663
v 31.333 -145.214 1521.9
vn -0.799528 0.580782 -0.153124
v 31.5036 -145.214 1520.65
vn -0.618199 0.685203 0.385132
v 31.5036 -145.214 1520.65
vn -0.232288 0.94224 0.241302
v 31.4281 -144.907 1522.21
vn -0.446437 0.814688 0.370104
v 31.4281 -145.1 1522.52
vn -0.822835 0.379391 0.42309
v 31.4281 -145.1 1522.52
vn -0.659426 0.730899 -0.175906
v 32.0522 -144.719 1520.65
vn -0.718708 -0.695309 0.00202429
v 31.5524 -145.526 1523.15
vn -0.918337 0.36123 0.16177
v 31.5524 -145.526 1523.15
vn -0.791175 -0.0466619 0.609808
v 31.6256 -145.526 1524.39
vn -0.963481 0.261756 0.0564562
v 31.6256 -145.526 1524.39
vn -0.887021 0.408986 0.214297
v 31.7402 -145.119 1523.15
vn -0.44252 0.896697 -0.0105116
v 31.7402 -145.119 1523.15
vn -0.250382 0.966021 0.0641278
v 31.7402 -145.105 1524.39
vn -0.774314 0.210364 0.596812
v 31.7402 -145.105 1524.39
vn -0.0367959 0.784762 0.618703
v 31.7402 -145.105 1524.39
vn 0.189126 0.711594 0.676657
v 32.0522 -145.526 1524.95
vn 0.252533 0.871376 0.420632
v 32.0522 -145.09 1524.39
vn -0.817876 -0.147353 -0.556206
v 32.3643 -166.748 1503.21
vn -0.887094 0.387768 0.250398
v 32.9885 -161.443 1507.46
vn -0.909535 0.31975 0.265529
v 33.8346 -159.882 1508.17
vn -0.924753 0.309334 0.221687
v 34.054 -159.258 1508.17
vn -0.947175 0.262516 0.184244
v 34.2369 -159.037 1508.79
vn -0.754988 0.569048 -0.32585
v 34.7172 -157.698 1509.73
vn -0.851567 -0.0900493 0.516455
v 34.7172 -157.698 1509.73
vn -0.820202 -0.560806 0.112987
v 34.549 -149.896 1515.18
vn -0.845799 -0.509913 0.156883
v 34.3076 -149.584 1515.34
vn -0.263577 0.323034 -0.908942
v 34.549 -148.647 1514.93
vn 0.071465 0.813579 -0.577046
v 34.549 -148.647 1514.93
vn -0.923382 -0.175924 0.341199
v 34.1286 -147.399 1525.95
vn -0.574488 0.491149 0.654779
v 34.2369 -147.087 1526.31
vn 0.0771437 0.974472 0.210838
v 34.2369 -147.087 1526.31
vn -0.594362 0.75764 0.269658
v 34.2369 -147.087 1526.31
vn -0.46212 0.0263657 -0.886425
v 32.9885 -146.151 1517.4
vn -0.780182 -0.618408 -0.0942725
v 32.3643 -146.101 1517.84
vn -0.250382 0.966021 0.0641278
v 32.6764 -144.675 1521.59
vn -0.287734 0.750042 0.595522
v 34.2369 -146.168 1522.52
vn 0.514838 0.846287 0.136894
v 34.2369 -146.168 1522.52
vn -0.305351 0.934665 0.182104
v 34.549 -145.838 1522.34
vn 0.583614 0.805519 -0.102637
v 34.549 -145.319 1521.9
vn 0.16649 0.643663 0.74698
v 32.9885 -146.151 1525.1
vn 0.192321 0.806999 0.558359
v 33.6127 -146.505 1525.33
vn -0.574488 0.491149 0.654779
v 33.6127 -146.775 1525.53
vn 0.0500698 0.599298 0.798959
v 33.6127 -146.775 1525.53
vn 0.150766 -0.503964 -0.850465
v 36.1094 -164.252 1500.38
vn -0.926872 0.30151 0.223608
v 36.9701 -159.57 1499.74
vn -0.561158 0.82521 -0.0642651
v 36.9701 -159.57 1499.74
vn 0.15789 0.648662 -0.744519
v 35.1731 -157.769 1509.1
vn -0.834854 0.099264 0.541447
v 35.1366 -156.449 1510.66
vn 0.228798 0.685105 -0.69158
v 35.4852 -156.379 1510.35
vn -0.382592 0.864336 -0.326416
v 35.4852 -156.137 1510.99
vn -0.534717 0.722555 0.438169
v 35.4852 -156.137 1510.99
vn -0.534717 0.722555 0.438169
v 35.7973 -156.137 1511.37
vn -0.811319 0.58335 -0.0382715
v 35.7973 -156.137 1511.37
vn -0.311584 0.888941 -0.335708
v 36.1094 -155.825 1511.24
vn -0.534717 0.722555 0.438169
v 36.1094 -155.825 1511.24
vn -0.735166 0.642501 -0.216156
v 36.1094 -155.825 1511.24
vn -0.205484 0.733487 -0.647899
v 36.1094 -155.825 1511.24
vn -0.79013 0.589258 -0.168731
v 36.7336 -154.779 1512.22
vn -0.121807 0.654501 -0.746184
v 36.7336 -154.779 1512.22
vn -0.956073 0.282113 0.0796072
v 36.7336 -154.889 1512.61
vn -0.998833 0.0464838 0.0131169
v 36.7512 -154.577 1512.85
vn -0.79013 0.589258 -0.168731
v 36.7512 -154.577 1512.85
vn -0.685367 -0.0273083 -0.727685
v 36.7512 -154.577 1512.85
vn -0.967828 -0.0385628 0.24864
v 36.7512 -154.577 1512.85
vn -0.642246 -0.0522799 -0.764714
v 37.0457 -154.265 1512.56
vn -0.0390503 0.403244 -0.914259
v 37.0457 -154.265 1512.56
vn -0.626287 0.0130738 -0.779483
v 36.0314 -152.392 1513.47
vn -0.9177 -0.385459 0.0961685
v 36.1557 -153.017 1513.16
vn -0.953233 -0.261352 0.151797
v 36.7336 -154.135 1512.85
vn -0.558369 0.308968 -0.769911
v 34.9074 -150.832 1514.1
vn -0.967293 -0.101463 -0.232484
v 34.9074 -150.832 1514.1
vn -0.70779 -0.390762 -0.588505
v 34.9074 -150.832 1514.1
vn -0.748533 -0.593835 0.295056
v 35.4243 -151.768 1514.1
vn 0.265527 0.911631 0.313727
v 37.0457 -147.087 1527.12
vn -0.0563083 0.892339 0.447839
v 37.0457 -147.087 1527.12
vn -0.554748 0.803985 0.214156
v 37.0457 -147.087 1527.12
vn -0.90955 0.170809 0.37887
v 37.0457 -147.087 1527.12
vn -0.6527 0.728597 0.207676
v 35.712 -148.023 1532.2
vn -0.606559 0.770095 0.197587
v 36.1094 -147.489 1531.57
vn 0.174404 0.980308 0.0926312
v 36.7336 -147.711 1534.45
vn -0.195444 0.938451 0.2848
v 35.1731 -145.67 1522.52
vn 0.574771 0.806866 -0.136398
v 35.1731 -145.67 1522.52
vn 0.214757 0.973172 0.0825528
v 35.1731 -146.631 1524.08
vn -0.603285 0.79578 -0.052732
v 35.1731 -146.631 1524.08
vn -0.518993 0.853583 0.045197
v 35.4852 -146.303 1523.77
vn 0.521707 0.851201 -0.0572699
v 36.1094 -146.104 1523.77
vn -0.292047 0.954591 0.0588557
v 36.1094 -146.104 1523.77
vn -0.420831 0.90514 -0.0601836
v 34.8611 -146.602 1525.33
vn -0.356408 0.765665 0.535472
v 35.4852 -146.368 1525.33
vn -0.249096 0.967427 0.0451337
v 36.1094 -146.236 1525.64
vn 0.356163 -0.489558 -0.795916
v 37.6699 -163.003 1500.19
vn 0.29723 -0.672886 -0.677406
v 37.982 -162.548 1500.05
vn -0.952869 0.303302 0.00701928
v 37.6699 -157.213 1507.85
vn -0.360771 0.928884 -0.0837819
v 37.982 -157.135 1510.04
vn -0.880236 -0.173934 0.44151
v 38.4428 -155.825 1507.85
vn -0.805007 0.455161 -0.380515
v 38.294 -154.432 1509.1
vn -0.722807 -0.30896 0.618138
v 38.6061 -155.825 1508.18
vn -0.811666 -0.57156 0.120488
v 38.6963 -155.201 1508.17
vn -0.939769 0.312045 0.139504
v 38.789 -155.201 1508.79
vn -0.757518 0.510529 0.406849
v 39.6192 -156.449 1509.41
vn -0.743581 -0.148492 0.651949
v 39.6619 -156.137 1509.1
vn -0.567635 0.786317 -0.243918
v 38.9182 -156.137 1512.05
vn 0.251117 0.405618 -0.878871
v 38.9182 -156.137 1512.05
vn -0.653495 0.0372468 -0.756014
v 38.9182 -156.137 1512.05
vn -0.58158 -0.126015 -0.80367
v 38.9182 -154.443 1511.6
vn 0.280021 0.41233 -0.866933
v 37.5858 -154.265 1512.53
vn -0.492389 -0.651821 -0.576786
v 37.5858 -154.265 1512.53
vn -0.501231 -0.135983 -0.854562
v 37.5858 -154.265 1512.53
vn -0.59344 0.632046 -0.498344
v 37.5797 -153.329 1511.91
vn -0.495199 0.0805025 -0.865042
v 37.4626 -153.329 1512.53
vn -0.847671 0.506151 -0.158949
v 37.4626 -153.329 1512.53
vn -0.620075 -0.106377 -0.777297
v 37.6699 -153.953 1512.43
vn -0.944102 -0.284068 -0.167263
v 37.6699 -153.953 1512.43
vn -0.5054 0.271242 -0.819145
v 37.6699 -153.017 1512.42
vn -0.271868 -0.538003 -0.797898
v 37.982 -153.641 1511.43
vn -0.368776 0.480797 -0.795511
v 37.982 -153.641 1511.43
vn -0.271868 -0.538003 -0.797898
v 38.294 -154.048 1511.6
vn -0.820456 -0.191307 -0.538752
v 38.294 -154.048 1511.6
vn -0.196713 0.453605 -0.869222
v 38.404 -153.641 1511.29
vn -0.793922 -0.108107 -0.598332
v 38.404 -153.641 1511.29
vn -0.609175 0.596129 -0.523007
v 38.404 -153.641 1511.29
vn -0.984672 0.130832 0.115343
v 38.6061 -153.953 1510.51
vn -0.606952 -0.794714 0.00624069
v 38.6061 -153.953 1510.51
vn -0.793922 -0.108107 -0.598332
v 38.6817 -153.953 1510.97
vn -0.682488 -0.722543 0.110192
v 38.6817 -153.953 1510.97
vn -0.986746 -0.0308283 0.159317
v 38.6817 -153.953 1510.97
vn -0.758516 -0.0236978 -0.651224
v 38.672 -153.641 1510.97
vn -0.667504 0.643346 -0.374892
v 38.672 -153.641 1510.97
vn -0.320773 0.503897 -0.801993
v 39.4327 -151.768 1512.22
vn -0.610953 0.598275 -0.518463
v 39.4327 -151.768 1512.22
vn -0.286028 0.951201 -0.115775
v 39.4327 -151.768 1512.22
vn 0.35481 0.843591 -0.403069
v 37.6699 -150.21 1513.47
vn 0.224967 0.892716 -0.390447
v 38.9182 -151.144 1512.85
vn 0.0183446 0.570075 -0.821388
v 38.9182 -151.144 1512.85
vn -0.132381 0.0684237 -0.988834
v 38.9182 -151.144 1512.85
vn 0.057436 0.958399 0.279593
v 37.3578 -146.894 1527.2
vn -0.575929 0.787472 0.21953
v 37.3578 -146.894 1527.2
vn -0.808483 0.523101 0.269667
v 37.6699 -148.187 1529.39
vn -0.976736 0.0250282 0.21298
v 38.5501 -147.711 1531.57
vn -0.908255 0.284022 0.307254
v 38.294 -147.079 1530.32
vn 0.498763 0.862736 -0.083206
v 38.294 -147.079 1530.32
vn 0.0329919 0.814913 0.578644
v 39.2303 -147.711 1533.51
vn -0.674948 0.421123 0.605888
v 39.2303 -147.711 1533.51
vn -0.816718 -0.500502 0.287174
v 39.2303 -147.711 1533.51
vn -0.890429 0.00647343 0.455075
v 39.2303 -147.711 1533.51
vn -0.883535 0.253047 0.394123
v 39.5424 -148.647 1534.81
vn 0.310283 0.908092 0.281234
v 39.5424 -148.647 1534.81
vn -0.337733 0.657916 0.673115
v 37.6699 -148.152 1535.94
vn -0.0562886 0.815935 0.575397
v 38.294 -148.776 1536.57
vn -0.0631547 0.915464 0.397413
v 38.9746 -149.271 1537.81
vn 0.645496 0.762144 -0.0497139
v 38.9746 -149.271 1537.81
vn 0.261487 0.55763 0.787828
v 38.9746 -149.271 1537.81
vn -0.596677 0.770369 0.224739
v 37.3578 -146.775 1526.79
vn -0.93785 0.342892 -0.0535063
v 40.1666 -157.208 1504.11
vn -0.855743 0.159181 0.492306
v 41.727 -154.602 1500.05
vn -0.653495 0.0372468 -0.756014
v 39.8545 -154.889 1511.3
vn -0.481016 -0.721474 0.498095
v 40.1666 -154.887 1510.35
vn -0.798683 -0.0581678 0.598934
v 40.5299 -155.201 1510.35
vn -0.587579 -0.678675 0.440627
v 40.5299 -155.201 1510.35
vn -0.675995 0.689058 -0.261209
v 40.5299 -155.201 1510.35
vn -0.764652 0.208134 -0.609908
v 40.5299 -155.201 1510.35
vn -0.639761 -0.738947 -0.211338
v 40.5299 -155.201 1510.35
vn -0.420481 0.402529 -0.813122
v 42.0647 -153.953 1500.05
vn -0.897994 0.277386 -0.341561
v 42.3 -153.329 1500.05
vn -0.826968 0.175357 0.534204
v 42.1488 -154.265 1500.68
vn -0.899888 0.167692 0.402594
v 42.0391 -153.953 1500.38
vn -0.96478 -0.262626 0.0150688
v 41.3345 -152.392 1504.73
vn -0.772957 -0.158247 -0.614406
v 41.1029 -151.9 1504.73
vn -0.956793 0.00626758 0.290704
v 41.4149 -153.565 1504.11
vn -0.984038 -0.123226 0.128391
v 41.4149 -153.329 1504.38
vn -0.877487 -0.205661 -0.433267
v 40.5055 -152.704 1508.48
vn -0.515085 0.278586 -0.810603
v 42.3244 -151.768 1491.94
vn -0.966015 0.169167 0.195443
v 41.1931 -151.456 1498.49
vn -0.820252 -0.276612 0.500672
v 41.8855 -150.832 1500.68
vn -0.697216 0.624659 -0.351698
v 41.1239 -151.144 1504.73
vn -0.414635 -0.0486561 -0.908686
v 41.4149 -151.768 1504.31
vn -0.728854 0.472952 -0.495063
v 42.1511 -151.144 1503.8
vn -0.870917 0.482936 0.0909743
v 41.0565 -151.768 1506.92
vn -0.830566 0.534498 0.156435
v 41.037 -151.456 1506.29
vn -0.185499 0.616886 -0.76488
v 40.4787 -151.454 1512.22
vn -0.251036 0.967304 0.0361072
v 41.4149 -151.4 1510.35
vn -0.843366 -0.108215 0.52633
v 41.5539 -149.584 1537.19
vn -0.231836 0.351483 0.907035
v 41.5539 -149.584 1537.19
vn 0.654697 0.406212 0.637466
v 41.5539 -149.584 1537.19
vn 0.0703934 0.991121 -0.112803
v 41.5539 -149.584 1537.19
vn -0.789708 0.0634968 0.610188
v 41.5539 -149.584 1537.19
vn 0.261487 0.55763 0.787828
v 40.7908 -151.005 1538.44
vn -0.433396 0.536743 0.723931
v 41.4149 -151.298 1538.44
vn 0.261487 0.55763 0.787828
v 41.4149 -151.298 1538.44
vn -0.415047 -0.885102 0.210546
v 41.4149 -151.298 1538.44
vn -0.869694 -0.471045 -0.147474
v 41.4149 -151.298 1538.44
vn -0.637524 0.12082 0.760898
v 41.4149 -151.298 1538.44
vn -0.789708 0.0634968 0.610188
v 42.0391 -149.547 1537.81
vn 0.176263 0.649856 0.739337
v 42.0391 -149.547 1537.81
vn 0.72371 0.68509 -0.0830421
v 40.7908 -147.767 1536.57
vn -0.890429 0.00647343 0.455075
v 40.7908 -147.767 1536.57
vn 0.715234 0.532849 0.45223
v 40.7908 -147.767 1536.57
vn -0.852064 -0.396684 0.341511
v 41.1029 -149.104 1536.57
vn -0.471007 -0.668515 0.575535
v 41.1029 -149.104 1536.57
vn -0.843366 -0.108215 0.52633
v 41.1029 -149.104 1536.57
vn -0.843366 -0.108215 0.52633
v 41.279 -148.959 1536.88
vn -0.11871 0.179974 0.976482
v 41.279 -148.959 1536.88
vn -0.471007 -0.668515 0.575535
v 41.1029 -148.835 1536.88
vn 0 0 1
v 41.1029 -148.835 1536.88
vn -0.102644 -0.928943 0.35571
v 41.1029 -148.835 1536.88
vn -0.890429 0.00647343 0.455075
v 41.1029 -148.716 1537.19
vn -0.102644 -0.928943 0.35571
v 41.1029 -148.716 1537.19
vn 0.715234 0.532849 0.45223
v 41.1029 -148.716 1537.19
vn -0.11871 0.179974 0.976482
v 41.4149 -148.87 1536.88
vn -0.102644 -0.928943 0.35571
v 41.4149 -148.87 1536.88
vn 0.715234 0.532849 0.45223
v 41.4149 -148.87 1536.88
vn 0.874624 0.482869 -0.0432557
v 41.4149 -148.87 1536.88
vn 0.654697 0.406212 0.637466
v 41.4149 -148.87 1536.88
vn -0.688385 0.184762 0.701419
v 44.2993 -157.698 1541.87
vn -0.802954 0.470491 -0.365927
v 42.9754 -154.355 1499.43
vn -0.789708 0.0634968 0.610188
v 44.5358 -154.485 1541.56
vn -0.647311 0.120735 0.752603
v 44.5358 -154.485 1541.56
vn -0.00151906 0.76584 0.643029
v 44.5358 -154.485 1541.56
vn 0.0815947 0.334759 -0.938764
v 43.2875 -152.08 1491.22
vn -0.773445 0.261046 -0.577614
v 42.6633 -152.943 1499.74
vn -0.846633 -0.376294 -0.376318
v 42.6633 -152.943 1499.74
vn -0.79722 -0.0518677 0.601457
v 43.3533 -153.953 1499.11
vn -0.802954 0.470491 -0.365927
v 43.3533 -153.953 1499.11
vn -0.874919 -0.432307 0.218238
v 43.394 -153.641 1499.43
vn -0.699057 -0.505612 -0.505644
v 43.394 -153.641 1499.43
vn -0.802954 0.470491 -0.365927
v 43.394 -153.641 1499.43
vn -0.853137 0.231411 -0.467554
v 42.3829 -152.392 1500.36
vn -0.919782 -0.353072 -0.17129
v 42.3829 -152.392 1500.36
vn -0.548272 0.769128 0.328389
v 42.7096 -154.265 1501.61
vn -0.837733 0.463959 0.288002
v 42.7096 -154.265 1501.61
vn -0.813694 -0.417172 0.404808
v 44.0458 -152.392 1502.55
vn -0.817375 0.569369 0.0878467
v 43.5996 -153.18 1502.86
vn -0.890761 -0.347955 0.292357
v 44.1482 -152.392 1502.86
vn -0.710762 0.495105 -0.499689
v 44.1482 -152.392 1502.86
vn -0.779244 -0.304394 -0.547835
v 44.1482 -152.392 1502.86
vn -0.931056 -0.0290998 -0.363714
v 42.8706 -150.832 1502.55
vn -0.765313 -0.630079 0.131519
v 42.8706 -150.832 1502.55
vn -0.661298 -0.668346 -0.340586
v 42.8706 -150.832 1502.55
vn -0.857034 0.346029 0.381781
v 42.6999 -150.52 1501.92
vn -0.926232 0.371849 -0.0618241
v 42.8608 -150.52 1502.55
vn -0.671061 -0.554706 -0.491912
v 42.6267 -150.832 1503.17
vn 0.654697 0.406212 0.637466
v 43.5996 -149.942 1535.32
vn 0.210939 -0.895173 -0.392646
v 46.0963 -160.246 1536.57
vn -0.157866 -0.941745 -0.296975
v 46.0963 -160.246 1536.57
vn 0.223166 -0.95387 -0.200819
v 45.4721 -161.47 1540.93
vn -0.792451 -0.419228 0.443023
v 45.4721 -161.494 1541.56
vn 0.0716162 -0.977471 0.198548
v 45.4721 -161.494 1541.56
vn -0.177137 -0.85117 0.494098
v 46.0963 -160.819 1543.32
vn -0.177938 -0.899921 0.398096
v 45.4721 -157.661 1516.9
vn -0.602529 0.259342 0.754785
v 45.4721 -158.01 1543.56
vn -0.931826 -0.335891 -0.137396
v 45.7842 -155.945 1527.52
vn -0.686651 -0.665512 -0.292582
v 45.7842 -155.945 1527.52
vn -0.179218 0.840214 0.511783
v 46.5254 -155.201 1543.43
vn 0.279853 0.507953 0.814657
v 46.5254 -155.201 1543.43
vn 0.268468 -0.928713 -0.255766
v 47.6567 -156.866 1529.7
vn 0.459354 0.615906 0.640042
v 49.5805 -155.825 1542.5
vn 0.997502 -0.035867 0.0608484
v 49.5805 -155.825 1542.5
vn 0.961074 0.233179 0.148203
v 49.5293 -151.449 1535.94
vn 0.0812734 0.972509 0.218224
v 48.2809 -151.595 1538.13
vn 0.48433 0.749742 0.4509
v 48.2809 -151.595 1538.13
vn -0.295467 0.876708 0.379582
v 48.593 -148.959 1530.38
vn 0.612004 0.744987 0.265417
v 50.7776 -145.838 1517.19
vn 0.407083 0.51948 0.751281
v 50.7776 -145.838 1517.19
vn 0.485574 0.521853 0.701347
v 51.0897 -145.214 1516.59
vn 0.203968 0.143739 0.968368
v 51.0897 -145.214 1516.59
vn 0.614842 0.740358 0.271732
v 51.5262 -146.463 1517.22
vn 0.452558 0.0761074 0.888481
v 51.4018 -145.526 1516.57
vn -0.369117 0.355323 0.858777
v 51.4018 -144.902 1516.48
vn 0.662217 0.719242 0.210144
v 50.7776 -146.07 1517.84
vn 0.700241 0.704799 0.113668
v 51.336 -146.775 1518.46
vn 0.608913 0.793228 -0.00379307
v 50.8532 -146.151 1522.21
vn -0.428478 0.828397 -0.360784
v 50.4656 -142.718 1500.29
vn -0.994776 0.0878013 -0.0520794
v 50.6728 -143.342 1515.34
vn -0.749536 0.634881 0.187408
v 50.6338 -142.405 1515.66
vn -0.703519 0.672262 0.230489
v 50.8679 -142.405 1516.59
vn -0.499752 0.834816 0.230936
v 51.4018 -142.031 1516.9
vn -0.528504 0.783435 0.326975
v 52.9623 -141.469 1515.05
vn -0.224531 0.556417 0.799991
v 53.5865 -141.362 1515.34
vn -0.185836 0.814668 0.549347
v 54.2106 -141.364 1516.59
vn 0.295607 0.31813 0.900783
v 55.459 -140.845 1516.08
vn -0.699689 0.431901 -0.56912
v 55.0762 -134.603 1505.98
vn -0.604359 0.366391 -0.707466
v 55.459 -134.603 1505.52
vn -0.975938 0.215353 0.034183
v 55.7711 -132.718 1505.98
vn -0.804906 0.532727 -0.261396
v 55.7711 -132.718 1505.98
vn 0.221892 0.181876 -0.957959
v 56.0832 -132.731 1505.86
vn -0.804906 0.532727 -0.261396
v 55.8759 -131.794 1507.54
vn -0.174327 0.421431 -0.889947
v 56.3953 -131.482 1506.58
vn -0.785255 0.11433 -0.608525
v 56.3953 -131.482 1506.58
vn 0.768773 -0.100536 0.631569
v 57.3315 -138.66 1514.35
vn 0.586812 0.273928 0.761981
v 58.3629 -137.412 1513.16
vn 0.994955 -0.00264903 0.100285
v 59.5917 -133.355 1510.66
vn 0.824474 0.455954 0.335183
v 59.5917 -133.355 1510.66
vn 0.790104 0.596923 0.139351
v 58.5799 -130.149 1508.79
vn 0.787593 0.615087 -0.0369618
v 59.226 -130.858 1508.17
vn 0.994214 0.0944204 -0.0512167
v 59.226 -130.858 1508.17
f 1//1 2//2 3//3
f 2//2 4//4 3//3
f 1//1 43//43 2//2
f 43//43 44//44 2//2
f 44//44 4//4 2//2
f 1//1 8//8 43//43
f 44//44 48//48 4//4
f 8//8 53//53 43//43
f 708//708 710//710 15//15
f 12//12 15//15 710//710
f 14//14 12//12 3//3
f 3//3 4//4 14//14
f 14//14 4//4 17//17
f 17//17 4//4 49//49
f 48//48 49//49 4//4
f 5//5 6//6 709//709
f 709//709 16//16 5//5
f 715//715 16//16 709//709
f 711//711 709//709 6//6
f 57//57 6//6 7//7
f 5//5 7//7 6//6
f 5//5 16//16 7//7
f 16//16 57//57 7//7
f 51//51 6//6 57//57
f 742//742 6//6 50//50
f 742//742 711//711 6//6
f 51//51 50//50 6//6
f 9//9 12//12 10//10
f 9//9 15//15 12//12
f 12//12 13//13 10//10
f 13//13 18//18 713//713
f 712//712 714//714 11//11
f 14//14 13//13 12//12
f 17//17 18//18 13//13
f 17//17 13//13 14//14
f 715//715 712//712 16//16
f 712//712 11//11 16//16
f 57//57 16//16 11//11
f 713//713 18//18 11//11
f 18//18 19//19 11//11
f 55//55 19//19 18//18
f 17//17 55//55 18//18
f 57//57 11//11 21//21
f 11//11 19//19 20//20
f 56//56 20//20 19//19
f 21//21 11//11 20//20
f 55//55 56//56 19//19
f 22//22 21//21 20//20
f 716//716 20//20 56//56
f 87//87 89//89 85//85
f 85//85 23//23 87//87
f 86//86 717//717 757//757
f 28//28 87//87 23//23
f 24//24 26//26 25//25
f 24//24 30//30 26//26
f 27//27 33//33 24//24
f 33//33 30//30 24//24
f 718//718 27//27 24//24
f 718//718 717//717 27//27
f 717//717 86//86 27//27
f 23//23 719//719 28//28
f 721//721 722//722 720//720
f 722//722 721//721 35//35
f 758//758 33//33 27//27
f 722//722 35//35 88//88
f 29//29 36//36 32//32
f 31//31 29//29 32//32
f 724//724 160//160 731//731
f 30//30 33//33 724//724
f 29//29 31//31 725//725
f 727//727 728//728 34//34
f 34//34 728//728 39//39
f 729//729 732//732 735//735
f 35//35 721//721 726//726
f 724//724 33//33 160//160
f 730//730 725//725 31//31
f 35//35 727//727 90//90
f 90//90 727//727 34//34
f 731//731 160//160 37//37
f 38//38 41//41 733//733
f 732//732 734//734 40//40
f 735//735 732//732 40//40
f 37//37 160//160 38//38
f 736//736 737//737 759//759
f 759//759 737//737 42//42
f 733//733 41//41 738//738
f 739//739 740//740 741//741
f 90//90 741//741 91//91
f 91//91 741//741 97//97
f 740//740 97//97 741//741
f 43//43 45//45 44//44
f 43//43 53//53 45//45
f 45//45 47//47 44//44
f 44//44 46//46 48//48
f 50//50 52//52 53//53
f 53//53 52//52 45//45
f 44//44 47//47 46//46
f 52//52 54//54 45//45
f 45//45 54//54 47//47
f 54//54 111//111 47//47
f 111//111 46//46 47//47
f 112//112 46//46 111//111
f 48//48 46//46 112//112
f 52//52 50//50 108//108
f 52//52 108//108 54//54
f 50//50 51//51 116//116
f 108//108 50//50 116//116
f 108//108 109//109 54//54
f 113//113 55//55 17//17
f 51//51 61//61 118//118
f 118//118 61//61 124//124
f 59//59 21//21 22//22
f 62//62 57//57 59//59
f 59//59 57//57 21//21
f 60//60 58//58 56//56
f 113//113 56//56 55//55
f 113//113 60//60 56//56
f 57//57 62//62 61//61
f 51//51 57//57 61//61
f 58//58 716//716 56//56
f 22//22 743//743 59//59
f 62//62 59//59 65//65
f 743//743 745//745 59//59
f 60//60 63//63 58//58
f 743//743 744//744 745//745
f 63//63 64//64 66//66
f 744//744 746//746 745//745
f 60//60 64//64 63//63
f 64//64 60//60 113//113
f 67//67 745//745 746//746
f 65//65 747//747 128//128
f 62//62 65//65 128//128
f 69//69 68//68 70//70
f 155//155 72//72 749//749
f 749//749 72//72 750//750
f 750//750 71//71 76//76
f 72//72 71//71 750//750
f 73//73 69//69 70//70
f 158//158 69//69 73//73
f 158//158 751//751 250//250
f 77//77 33//33 74//74
f 86//86 79//79 74//74
f 33//33 758//758 74//74
f 79//79 78//78 75//75
f 74//74 75//75 77//77
f 74//74 79//79 75//75
f 70//70 76//76 73//73
f 78//78 73//73 76//76
f 76//76 77//77 78//78
f 78//78 77//77 75//75
f 78//78 79//79 80//80
f 81//81 80//80 79//79
f 71//71 77//77 76//76
f 80//80 73//73 78//78
f 159//159 752//752 80//80
f 159//159 80//80 81//81
f 81//81 161//161 159//159
f 33//33 77//77 160//160
f 160//160 77//77 71//71
f 83//83 82//82 160//160
f 82//82 753//753 84//84
f 84//84 107//107 82//82
f 754//754 106//106 766//766
f 162//162 765//765 755//755
f 765//765 162//162 103//103
f 79//79 86//86 757//757
f 81//81 79//79 757//757
f 89//89 81//81 85//85
f 89//89 161//161 81//81
f 88//88 87//87 723//723
f 88//88 35//35 90//90
f 89//89 87//87 253//253
f 88//88 253//253 87//87
f 253//253 88//88 92//92
f 88//88 90//90 92//92
f 34//34 39//39 90//90
f 91//91 92//92 90//90
f 91//91 94//94 92//92
f 91//91 93//93 94//94
f 94//94 760//760 95//95
f 760//760 105//105 95//95
f 94//94 95//95 178//178
f 178//178 96//96 94//94
f 96//96 92//92 94//94
f 95//95 105//105 180//180
f 805//805 762//762 180//180
f 92//92 763//763 253//253
f 41//41 38//38 99//99
f 99//99 100//100 41//41
f 97//97 740//740 102//102
f 38//38 160//160 98//98
f 38//38 98//98 99//99
f 102//102 740//740 764//764
f 82//82 98//98 160//160
f 99//99 98//98 82//82
f 99//99 82//82 107//107
f 99//99 107//107 100//100
f 102//102 764//764 765//765
f 765//765 764//764 767//767
f 91//91 101//101 761//761
f 103//103 102//102 765//765
f 97//97 101//101 91//91
f 101//101 97//97 102//102
f 101//101 104//104 761//761
f 104//104 101//101 103//103
f 102//102 103//103 101//101
f 103//103 185//185 104//104
f 105//105 760//760 181//181
f 105//105 181//181 179//179
f 179//179 180//180 105//105
f 162//162 185//185 103//103
f 108//108 768//768 110//110
f 109//109 108//108 110//110
f 190//190 109//109 110//110
f 109//109 111//111 54//54
f 109//109 190//190 111//111
f 111//111 190//190 275//275
f 112//112 49//49 48//48
f 17//17 49//49 114//114
f 275//275 112//112 111//111
f 49//49 112//112 114//114
f 113//113 17//17 114//114
f 196//196 113//113 114//114
f 114//114 275//275 196//196
f 112//112 275//275 114//114
f 192//192 191//191 117//117
f 120//120 192//192 117//117
f 51//51 118//118 115//115
f 51//51 120//120 116//116
f 115//115 120//120 51//51
f 116//116 120//120 117//117
f 768//768 815//815 110//110
f 116//116 117//117 191//191
f 124//124 115//115 118//118
f 113//113 205//205 64//64
f 205//205 113//113 196//196
f 200//200 120//120 122//122
f 200//200 122//122 201//201
f 119//119 201//201 122//122
f 201//201 119//119 202//202
f 123//123 769//769 122//122
f 211//211 769//769 123//123
f 115//115 121//121 120//120
f 122//122 120//120 121//121
f 124//124 121//121 115//115
f 121//121 124//124 122//122
f 124//124 123//123 122//122
f 61//61 62//62 125//125
f 125//125 62//62 127//127
f 61//61 125//125 124//124
f 125//125 127//127 124//124
f 126//126 211//211 124//124
f 124//124 127//127 126//126
f 130//130 126//126 127//127
f 62//62 128//128 129//129
f 748//748 66//66 64//64
f 131//131 128//128 747//747
f 134//134 129//129 128//128
f 129//129 127//127 62//62
f 773//773 136//136 771//771
f 129//129 130//130 127//127
f 748//748 64//64 132//132
f 132//132 64//64 137//137
f 137//137 64//64 142//142
f 136//136 215//215 771//771
f 132//132 133//133 772//772
f 748//748 132//132 772//772
f 772//772 133//133 135//135
f 128//128 131//131 134//134
f 133//133 132//132 137//137
f 134//134 131//131 774//774
f 136//136 773//773 139//139
f 778//778 134//134 774//774
f 137//137 138//138 135//135
f 133//133 137//137 135//135
f 779//779 775//775 776//776
f 227//227 136//136 139//139
f 137//137 142//142 141//141
f 777//777 140//140 780//780
f 138//138 137//137 141//141
f 777//777 784//784 140//140
f 143//143 141//141 142//142
f 784//784 785//785 140//140
f 782//782 786//786 145//145
f 789//789 787//787 152//152
f 233//233 781//781 783//783
f 233//233 783//783 790//790
f 142//142 153//153 143//143
f 788//788 153//153 793//793
f 144//144 148//148 151//151
f 789//789 148//148 144//144
f 154//154 144//144 151//151
f 233//233 790//790 144//144
f 147//147 156//156 157//157
f 149//149 156//156 146//146
f 147//147 151//151 791//791
f 147//147 146//146 156//156
f 147//147 157//157 151//151
f 151//151 157//157 249//249
f 151//151 148//148 791//791
f 146//146 792//792 149//149
f 149//149 150//150 797//797
f 797//797 150//150 72//72
f 793//793 153//153 792//792
f 789//789 152//152 148//148
f 151//151 249//249 154//154
f 153//153 149//149 792//792
f 149//149 153//153 150//150
f 69//69 158//158 794//794
f 69//69 795//795 68//68
f 796//796 157//157 156//156
f 797//797 72//72 155//155
f 157//157 794//794 158//158
f 249//249 157//157 158//158
f 250//250 249//249 158//158
f 856//856 159//159 253//253
f 159//159 856//856 752//752
f 89//89 253//253 161//161
f 253//253 159//159 161//161
f 160//160 71//71 72//72
f 755//755 166//166 162//162
f 166//166 163//163 162//162
f 185//185 162//162 186//186
f 163//163 186//186 162//162
f 163//163 164//164 189//189
f 165//165 164//164 163//163
f 165//165 254//254 164//164
f 164//164 860//860 274//274
f 755//755 171//171 166//166
f 171//171 167//167 166//166
f 167//167 168//168 166//166
f 168//168 167//167 256//256
f 163//163 166//166 798//798
f 798//798 166//166 168//168
f 168//168 256//256 255//255
f 168//168 255//255 799//799
f 83//83 160//160 169//169
f 753//753 169//169 170//170
f 753//753 170//170 84//84
f 756//756 802//802 803//803
f 172//172 256//256 167//167
f 167//167 171//171 172//172
f 257//257 172//172 265//265
f 169//169 173//173 174//174
f 169//169 174//174 170//170
f 174//174 175//175 170//170
f 173//173 177//177 174//174
f 177//177 175//175 174//174
f 802//802 175//175 803//803
f 175//175 176//176 803//803
f 173//173 169//169 160//160
f 177//177 176//176 175//175
f 172//172 171//171 265//265
f 265//265 171//171 804//804
f 804//804 269//269 265//265
f 177//177 173//173 268//268
f 253//253 763//763 806//806
f 805//805 180//180 184//184
f 810//810 253//253 806//806
f 761//761 104//104 807//807
f 807//807 104//104 185//185
f 179//179 181//181 182//182
f 180//180 179//179 182//182
f 808//808 812//812 183//183
f 183//183 812//812 187//187
f 808//808 183//183 809//809
f 182//182 184//184 180//180
f 811//811 809//809 183//183
f 811//811 183//183 814//814
f 189//189 274//274 810//810
f 253//253 810//810 274//274
f 185//185 186//186 813//813
f 186//186 188//188 189//189
f 186//186 163//163 188//188
f 186//186 189//189 813//813
f 187//187 814//814 183//183
f 189//189 188//188 163//163
f 164//164 274//274 189//189
f 196//196 275//275 388//388
f 192//192 200//200 203//203
f 192//192 120//120 200//200
f 192//192 204//204 193//193
f 193//193 191//191 192//192
f 204//204 192//192 203//203
f 195//195 816//816 204//204
f 110//110 815//815 194//194
f 110//110 194//194 190//190
f 195//195 194//194 815//815
f 195//195 815//815 816//816
f 195//195 190//190 194//194
f 206//206 278//278 276//276
f 197//197 198//198 203//203
f 203//203 198//198 204//204
f 209//209 198//198 197//197
f 198//198 206//206 199//199
f 206//206 198//198 209//209
f 204//204 198//198 199//199
f 206//206 276//276 199//199
f 203//203 200//200 201//201
f 203//203 201//201 197//197
f 202//202 197//197 201//201
f 197//197 202//202 208//208
f 123//123 124//124 211//211
f 205//205 142//142 64//64
f 205//205 291//291 142//142
f 196//196 291//291 205//205
f 206//206 209//209 207//207
f 278//278 206//206 207//207
f 209//209 197//197 208//208
f 208//208 207//207 209//209
f 307//307 208//208 119//119
f 207//207 208//208 279//279
f 210//210 279//279 208//208
f 210//210 208//208 296//296
f 296//296 208//208 307//307
f 210//210 296//296 297//297
f 208//208 202//202 119//119
f 211//211 212//212 770//770
f 212//212 211//211 213//213
f 212//212 290//290 770//770
f 290//290 212//212 213//213
f 878//878 308//308 119//119
f 308//308 307//307 119//119
f 213//213 211//211 126//126
f 126//126 130//130 214//214
f 126//126 817//817 217//217
f 214//214 216//216 217//217
f 130//130 129//129 818//818
f 214//214 130//130 216//216
f 216//216 130//130 818//818
f 225//225 216//216 818//818
f 216//216 219//219 217//217
f 218//218 217//217 219//219
f 218//218 213//213 126//126
f 218//218 126//126 217//217
f 347//347 218//218 224//224
f 213//213 218//218 317//317
f 343//343 218//218 347//347
f 343//343 317//317 218//218
f 216//216 221//221 219//219
f 821//821 223//223 819//819
f 219//219 222//222 218//218
f 222//222 224//224 218//218
f 823//823 222//222 219//219
f 220//220 822//822 223//223
f 223//223 244//244 220//220
f 222//222 820//820 224//224
f 318//318 223//223 821//821
f 226//226 216//216 824//824
f 226//226 221//221 216//216
f 318//318 821//821 825//825
f 830//830 227//227 139//139
f 215//215 136//136 227//227
f 215//215 227//227 228//228
f 236//236 239//239 229//229
f 225//225 818//818 826//826
f 227//227 830//830 827//827
f 245//245 230//230 229//229
f 233//233 836//836 829//829
f 319//319 229//229 230//230
f 319//319 831//831 229//229
f 828//828 832//832 880//880
f 230//230 320//320 319//319
f 291//291 153//153 142//142
f 291//291 150//150 153//153
f 232//232 820//820 231//231
f 846//846 231//231 820//820
f 231//231 846//846 246//246
f 820//820 232//232 224//224
f 347//347 232//232 231//231
f 347//347 224//224 232//232
f 237//237 837//837 235//235
f 836//836 233//233 834//834
f 237//237 235//235 234//234
f 233//233 144//144 834//834
f 238//238 248//248 833//833
f 238//238 833//833 835//835
f 834//834 154//154 838//838
f 144//144 154//154 834//834
f 239//239 236//236 237//237
f 240//240 237//237 234//234
f 838//838 154//154 853//853
f 237//237 241//241 239//239
f 237//237 240//240 241//241
f 841//841 839//839 242//242
f 843//843 840//840 243//243
f 243//243 840//840 833//833
f 243//243 833//833 248//248
f 853//853 154//154 251//251
f 239//239 241//241 229//229
f 844//844 851//851 848//848
f 842//842 844//844 848//848
f 843//843 243//243 248//248
f 847//847 320//320 230//230
f 847//847 230//230 849//849
f 241//241 245//245 229//229
f 846//846 850//850 246//246
f 231//231 852//852 247//247
f 845//845 854//854 852//852
f 854//854 247//247 852//852
f 247//247 347//347 231//231
f 375//375 348//348 347//347
f 375//375 347//347 247//247
f 854//854 375//375 247//247
f 374//374 905//905 855//855
f 904//904 853//853 251//251
f 374//374 857//857 252//252
f 858//858 249//249 250//250
f 252//252 857//857 856//856
f 154//154 249//249 859//859
f 253//253 252//252 856//856
f 160//160 377//377 173//173
f 173//173 377//377 270//270
f 273//273 270//270 377//377
f 877//877 861//861 262//262
f 861//861 800//800 262//262
f 257//257 256//256 172//172
f 862//862 256//256 260//260
f 862//862 260//260 801//801
f 864//864 801//801 260//260
f 257//257 259//259 256//256
f 257//257 265//265 259//259
f 256//256 259//259 258//258
f 258//258 260//260 256//256
f 261//261 260//260 258//258
f 263//263 259//259 267//267
f 258//258 259//259 263//263
f 260//260 863//863 864//864
f 263//263 870//870 266//266
f 263//263 261//261 258//258
f 264//264 261//261 263//263
f 263//263 266//266 264//264
f 863//863 264//264 864//864
f 269//269 871//871 265//265
f 265//265 871//871 259//259
f 264//264 266//266 864//864
f 378//378 866//866 871//871
f 270//270 268//268 173//173
f 271//271 177//177 268//268
f 872//872 176//176 177//177
f 271//271 872//872 177//177
f 270//270 273//273 268//268
f 268//268 273//273 271//271
f 378//378 269//269 272//272
f 271//271 873//873 872//872
f 874//874 873//873 271//271
f 378//378 871//871 269//269
f 875//875 378//378 272//272
f 195//195 387//387 190//190
f 190//190 387//387 275//275
f 275//275 451//451 388//388
f 451//451 275//275 387//387
f 199//199 284//284 204//204
f 276//276 284//284 199//199
f 204//204 277//277 195//195
f 195//195 277//277 387//387
f 291//291 196//196 388//388
f 280//280 278//278 207//207
f 207//207 279//279 280//280
f 278//278 283//283 276//276
f 283//283 278//278 280//280
f 280//280 279//279 281//281
f 282//282 281//281 279//279
f 281//281 282//282 292//292
f 283//283 288//288 284//284
f 288//288 283//283 280//280
f 288//288 280//280 285//285
f 285//285 280//280 281//281
f 281//281 287//287 285//285
f 292//292 287//287 281//281
f 288//288 390//390 284//284
f 288//288 285//285 286//286
f 287//287 289//289 286//286
f 285//285 287//287 286//286
f 295//295 289//289 287//287
f 287//287 292//292 295//295
f 390//390 204//204 284//284
f 286//286 289//289 288//288
f 288//288 289//289 389//389
f 288//288 389//389 390//390
f 394//394 389//389 289//289
f 279//279 210//210 297//297
f 283//283 284//284 276//276
f 282//282 297//297 292//292
f 292//292 294//294 295//295
f 293//293 294//294 292//292
f 292//292 298//298 293//293
f 404//404 295//295 294//294
f 323//323 294//294 293//293
f 394//394 289//289 295//295
f 297//297 282//282 279//279
f 292//292 297//297 296//296
f 296//296 298//298 292//292
f 300//300 298//298 296//296
f 300//300 296//296 299//299
f 299//299 296//296 405//405
f 296//296 395//395 405//405
f 302//302 299//299 405//405
f 302//302 300//300 299//299
f 298//298 301//301 293//293
f 300//300 301//301 298//298
f 327//327 301//301 300//300
f 300//300 302//302 327//327
f 293//293 301//301 323//323
f 301//301 328//328 323//323
f 301//301 327//327 328//328
f 302//302 405//405 327//327
f 303//303 296//296 307//307
f 395//395 296//296 303//303
f 303//303 307//307 304//304
f 395//395 303//303 305//305
f 305//305 303//303 306//306
f 306//306 303//303 304//304
f 333//333 304//304 307//307
f 308//308 311//311 307//307
f 307//307 311//311 314//314
f 307//307 314//314 315//315
f 307//307 315//315 416//416
f 333//333 307//307 953//953
f 418//418 416//416 315//315
f 308//308 878//878 309//309
f 309//309 312//312 308//308
f 878//878 310//310 309//309
f 213//213 317//317 290//290
f 312//312 311//311 308//308
f 312//312 309//309 310//310
f 317//317 310//310 878//878
f 312//312 310//310 313//313
f 310//310 343//343 313//313
f 312//312 313//313 316//316
f 316//316 313//313 343//343
f 316//316 311//311 312//312
f 314//314 311//311 338//338
f 311//311 316//316 338//338
f 346//346 316//316 343//343
f 343//343 310//310 317//317
f 321//321 226//226 824//824
f 318//318 825//825 882//882
f 223//223 881//881 244//244
f 223//223 318//318 881//881
f 883//883 881//881 318//318
f 826//826 884//884 225//225
f 880//880 885//885 828//828
f 886//886 319//319 320//320
f 349//349 324//324 351//351
f 324//324 400//400 322//322
f 400//400 324//324 349//349
f 322//322 323//323 328//328
f 323//323 322//322 400//400
f 325//325 352//352 351//351
f 325//325 332//332 352//352
f 325//325 351//351 324//324
f 324//324 326//326 325//325
f 325//325 326//326 332//332
f 332//332 355//355 352//352
f 322//322 328//328 326//326
f 324//324 322//322 326//326
f 327//327 332//332 328//328
f 327//327 406//406 332//332
f 326//326 328//328 332//332
f 327//327 405//405 406//406
f 332//332 329//329 359//359
f 306//306 304//304 330//330
f 330//330 304//304 334//334
f 890//890 879//879 889//889
f 329//329 363//363 360//360
f 407//407 306//306 887//887
f 331//331 407//407 887//887
f 334//334 888//888 330//330
f 406//406 411//411 332//332
f 332//332 410//410 329//329
f 329//329 410//410 363//363
f 415//415 430//430 363//363
f 890//890 889//889 430//430
f 339//339 342//342 315//315
f 339//339 315//315 314//314
f 335//335 342//342 340//340
f 894//894 336//336 891//891
f 336//336 337//337 891//891
f 335//335 892//892 368//368
f 316//316 341//341 338//338
f 316//316 346//346 341//341
f 894//894 893//893 338//338
f 314//314 338//338 893//893
f 338//338 341//341 894//894
f 340//340 342//342 339//339
f 341//341 336//336 894//894
f 342//342 900//900 439//439
f 439//439 900//900 369//369
f 342//342 335//335 368//368
f 344//344 895//895 370//370
f 347//347 348//348 344//344
f 337//337 336//336 371//371
f 371//371 336//336 345//345
f 347//347 346//346 343//343
f 347//347 344//344 346//346
f 344//344 345//345 336//336
f 344//344 370//370 345//345
f 346//346 344//344 341//341
f 344//344 336//336 341//341
f 348//348 375//375 902//902
f 150//150 160//160 72//72
f 351//351 350//350 349//349
f 425//425 350//350 356//356
f 351//351 354//354 353//353
f 351//351 353//353 350//350
f 354//354 351//351 352//352
f 352//352 355//355 354//354
f 350//350 353//353 356//356
f 354//354 356//356 353//353
f 355//355 357//357 354//354
f 355//355 361//361 357//357
f 356//356 354//354 358//358
f 354//354 357//357 358//358
f 357//357 361//361 358//358
f 332//332 359//359 355//355
f 329//329 360//360 359//359
f 359//359 360//360 355//355
f 355//355 897//897 361//361
f 897//897 362//362 361//361
f 897//897 364//364 362//362
f 358//358 361//361 362//362
f 366//366 358//358 362//362
f 364//364 366//366 362//362
f 363//363 365//365 360//360
f 365//365 431//431 898//898
f 360//360 365//365 898//898
f 431//431 433//433 898//898
f 364//364 963//963 366//366
f 365//365 363//363 430//430
f 337//337 371//371 367//367
f 372//372 899//899 903//903
f 899//899 901//901 368//368
f 892//892 899//899 368//368
f 901//901 899//899 437//437
f 899//899 372//372 506//506
f 899//899 506//506 437//437
f 345//345 370//370 371//371
f 372//372 903//903 902//902
f 902//902 375//375 372//372
f 372//372 905//905 373//373
f 373//373 905//905 444//444
f 450//450 252//252 253//253
f 252//252 450//450 374//374
f 905//905 374//374 445//445
f 374//374 450//450 445//445
f 274//274 450//450 253//253
f 382//382 867//867 912//912
f 382//382 912//912 376//376
f 380//380 386//386 446//446
f 376//376 912//912 399//399
f 876//876 911//911 913//913
f 446//446 274//274 380//380
f 380//380 274//274 865//865
f 446//446 450//450 274//274
f 864//864 266//266 381//381
f 865//865 919//919 380//380
f 384//384 868//868 922//922
f 868//868 384//384 385//385
f 920//920 869//869 930//930
f 923//923 383//383 927//927
f 906//906 925//925 924//924
f 926//926 933//933 928//928
f 929//929 934//934 931//931
f 935//935 921//921 932//932
f 926//926 907//907 933//933
f 936//936 380//380 919//919
f 937//937 908//908 966//966
f 446//446 909//909 379//379
f 910//910 940//940 917//917
f 277//277 204//204 474//474
f 486//486 475//475 387//387
f 451//451 387//387 475//475
f 291//291 388//388 392//392
f 393//393 459//459 460//460
f 390//390 389//389 391//391
f 391//391 389//389 394//394
f 204//204 390//390 474//474
f 474//474 387//387 277//277
f 476//476 392//392 388//388
f 479//479 393//393 460//460
f 394//394 401//401 403//403
f 295//295 401//401 394//394
f 391//391 394//394 403//403
f 485//485 391//391 403//403
f 390//390 391//391 474//474
f 391//391 485//485 474//474
f 486//486 474//474 485//485
f 396//396 305//305 306//306
f 306//306 407//407 396//396
f 395//395 412//412 405//405
f 305//305 396//396 395//395
f 397//397 150//150 291//291
f 398//398 160//160 397//397
f 160//160 398//398 489//489
f 377//377 489//489 914//914
f 975//975 393//393 915//915
f 938//938 491//491 941//941
f 401//401 404//404 400//400
f 295//295 404//404 401//401
f 402//402 401//401 400//400
f 400//400 349//349 402//402
f 401//401 402//402 403//403
f 943//943 492//492 403//403
f 943//943 493//493 492//492
f 943//943 424//424 493//493
f 294//294 323//323 404//404
f 400//400 404//404 323//323
f 408//408 407//407 331//331
f 408//408 331//331 409//409
f 888//888 951//951 944//944
f 888//888 334//334 951//951
f 410//410 332//332 411//411
f 410//410 945//945 952//952
f 363//363 410//410 952//952
f 406//406 405//405 946//946
f 408//408 396//396 407//407
f 946//946 413//413 406//406
f 414//414 396//396 408//408
f 406//406 413//413 411//411
f 411//411 413//413 948//948
f 414//414 408//408 409//409
f 410//410 411//411 948//948
f 949//949 945//945 410//410
f 396//396 412//412 395//395
f 939//939 950//950 947//947
f 948//948 413//413 946//946
f 430//430 415//415 890//890
f 889//889 417//417 430//430
f 954//954 417//417 889//889
f 431//431 430//430 955//955
f 419//419 417//417 954//954
f 954//954 956//956 419//419
f 421//421 431//431 955//955
f 955//955 957//957 421//421
f 315//315 342//342 418//418
f 342//342 420//420 418//418
f 420//420 342//342 439//439
f 420//420 439//439 443//443
f 958//958 418//418 420//420
f 421//421 420//420 443//443
f 421//421 959//959 420//420
f 160//160 150//150 397//397
f 377//377 160//160 489//489
f 916//916 938//938 941//941
f 918//918 942//942 525//525
f 350//350 422//422 349//349
f 422//422 943//943 896//896
f 423//423 943//943 422//422
f 426//426 423//423 422//422
f 423//423 424//424 943//943
f 424//424 423//423 427//427
f 427//427 423//423 426//426
f 425//425 422//422 350//350
f 425//425 356//356 358//358
f 422//422 425//425 426//426
f 428//428 427//427 426//426
f 425//425 428//428 426//426
f 425//425 358//358 428//428
f 428//428 358//358 447//447
f 427//427 429//429 424//424
f 429//429 427//427 428//428
f 501//501 429//429 428//428
f 501//501 497//497 429//429
f 430//430 431//431 365//365
f 431//431 434//434 433//433
f 431//431 432//432 434//434
f 960//960 436//436 964//964
f 964//964 435//435 963//963
f 963//963 435//435 366//366
f 441//441 435//435 964//964
f 449//449 435//435 441//441
f 961//961 431//431 442//442
f 435//435 449//449 366//366
f 442//442 431//431 421//421
f 438//438 436//436 901//901
f 901//901 437//437 438//438
f 439//439 369//369 440//440
f 962//962 440//440 965//965
f 440//440 369//369 965//965
f 438//438 964//964 436//436
f 964//964 438//438 441//441
f 443//443 439//439 440//440
f 441//441 438//438 449//449
f 449//449 438//438 437//437
f 440//440 962//962 442//442
f 443//443 442//442 421//421
f 440//440 442//442 443//443
f 506//506 449//449 437//437
f 373//373 506//506 372//372
f 373//373 444//444 506//506
f 444//444 905//905 445//445
f 444//444 445//445 506//506
f 529//529 445//445 450//450
f 501//501 428//428 447//447
f 448//448 358//358 366//366
f 449//449 448//448 366//366
f 455//455 452//452 453//453
f 453//453 452//452 976//976
f 489//489 513//513 967//967
f 967//967 513//513 456//456
f 513//513 514//514 456//456
f 393//393 452//452 459//459
f 452//452 454//454 459//459
f 454//454 455//455 464//464
f 455//455 454//454 452//452
f 456//456 464//464 455//455
f 456//456 455//455 968//968
f 456//456 457//457 464//464
f 456//456 509//509 457//457
f 454//454 462//462 459//459
f 459//459 458//458 460//460
f 458//458 461//461 460//460
f 462//462 463//463 458//458
f 458//458 459//459 462//462
f 970//970 461//461 458//458
f 462//462 454//454 464//464
f 460//460 461//461 480//480
f 457//457 969//969 464//464
f 461//461 970//970 467//467
f 461//461 467//467 468//468
f 468//468 480//480 461//461
f 969//969 465//465 971//971
f 465//465 469//469 971//971
f 969//969 457//457 465//465
f 469//469 972//972 971//971
f 465//465 471//471 469//469
f 465//465 457//457 509//509
f 465//465 509//509 466//466
f 466//466 471//471 465//465
f 468//468 481//481 480//480
f 469//469 470//470 972//972
f 467//467 470//470 468//468
f 511//511 473//473 470//470
f 470//470 473//473 468//468
f 468//468 473//473 483//483
f 481//481 468//468 483//483
f 469//469 471//471 472//472
f 470//470 469//469 472//472
f 472//472 511//511 470//470
f 471//471 510//510 472//472
f 472//472 510//510 511//511
f 475//475 486//486 522//522
f 475//475 478//478 451//451
f 388//388 451//451 478//478
f 478//478 476//476 388//388
f 477//477 392//392 476//476
f 973//973 291//291 392//392
f 476//476 478//478 477//477
f 487//487 291//291 973//973
f 973//973 488//488 487//487
f 478//478 488//488 477//477
f 488//488 478//478 517//517
f 975//975 452//452 393//393
f 974//974 491//491 938//938
f 460//460 480//480 479//479
f 480//480 481//481 482//482
f 479//479 480//480 482//482
f 974//974 482//482 491//491
f 482//482 481//481 483//483
f 473//473 484//484 483//483
f 482//482 483//483 484//484
f 484//484 491//491 482//482
f 485//485 495//495 486//486
f 486//486 495//495 522//522
f 387//387 474//474 486//486
f 487//487 397//397 291//291
f 397//397 490//490 398//398
f 397//397 487//487 490//490
f 487//487 488//488 490//490
f 517//517 518//518 488//488
f 488//488 518//518 490//490
f 517//517 519//519 518//518
f 398//398 490//490 489//489
f 490//490 513//513 489//489
f 490//490 518//518 979//979
f 977//977 525//525 942//942
f 492//492 485//485 403//403
f 494//494 485//485 492//492
f 493//493 494//494 492//492
f 494//494 493//493 496//496
f 493//493 424//424 496//496
f 495//495 485//485 494//494
f 495//495 494//494 500//500
f 496//496 500//500 494//494
f 429//429 497//497 424//424
f 498//498 496//496 497//497
f 497//497 496//496 424//424
f 497//497 501//501 503//503
f 496//496 498//498 500//500
f 497//497 503//503 498//498
f 499//499 498//498 503//503
f 500//500 498//498 499//499
f 499//499 526//526 500//500
f 445//445 529//529 538//538
f 450//450 446//446 529//529
f 446//446 379//379 983//983
f 447//447 503//503 501//501
f 448//448 447//447 358//358
f 502//502 447//447 448//448
f 504//504 447//447 502//502
f 504//504 503//503 447//447
f 503//503 504//504 505//505
f 499//499 503//503 505//505
f 505//505 526//526 499//499
f 449//449 506//506 448//448
f 506//506 589//589 448//448
f 506//506 445//445 589//589
f 445//445 538//538 537//537
f 529//529 446//446 531//531
f 502//502 448//448 507//507
f 504//504 502//502 507//507
f 507//507 535//535 504//504
f 504//504 535//535 505//505
f 536//536 505//505 535//535
f 508//508 507//507 448//448
f 535//535 507//507 508//508
f 535//535 508//508 586//586
f 508//508 448//448 589//589
f 586//586 508//508 589//589
f 456//456 514//514 509//509
f 512//512 509//509 514//514
f 466//466 509//509 512//512
f 510//510 471//471 466//466
f 510//510 516//516 511//511
f 511//511 516//516 515//515
f 510//510 466//466 512//512
f 512//512 516//516 510//510
f 514//514 513//513 519//519
f 520//520 514//514 519//519
f 514//514 520//520 512//512
f 512//512 520//520 516//516
f 511//511 515//515 473//473
f 473//473 515//515 484//484
f 513//513 518//518 519//519
f 519//519 543//543 520//520
f 521//521 515//515 516//516
f 515//515 978//978 484//484
f 978//978 515//515 980//980
f 517//517 478//478 475//475
f 475//475 545//545 517//517
f 543//543 519//519 517//517
f 980//980 984//984 978//978
f 500//500 527//527 495//495
f 522//522 495//495 527//527
f 524//524 534//534 984//984
f 524//524 523//523 534//534
f 523//523 552//552 534//534
f 524//524 544//544 523//523
f 523//523 544//544 552//552
f 980//980 524//524 984//984
f 527//527 500//500 526//526
f 540//540 538//538 528//528
f 538//538 529//529 528//528
f 539//539 540//540 528//528
f 532//532 529//529 531//531
f 532//532 530//530 529//529
f 528//528 529//529 530//530
f 532//532 531//531 533//533
f 985//985 533//533 531//531
f 534//534 552//552 533//533
f 552//552 553//553 533//533
f 531//531 446//446 983//983
f 531//531 983//983 985//985
f 505//505 536//536 526//526
f 585//585 536//536 535//535
f 586//586 996//996 535//535
f 527//527 526//526 536//536
f 590//590 589//589 445//445
f 561//561 445//445 537//537
f 575//575 570//570 538//538
f 575//575 538//538 540//540
f 528//528 530//530 539//539
f 539//539 541//541 540//540
f 541//541 575//575 540//540
f 575//575 541//541 576//576
f 539//539 530//530 532//532
f 532//532 533//533 542//542
f 539//539 532//532 542//542
f 539//539 542//542 541//541
f 579//579 542//542 533//533
f 553//553 579//579 533//533
f 541//541 542//542 580//580
f 579//579 580//580 542//542
f 622//622 587//587 589//589
f 981//981 516//516 520//520
f 520//520 543//543 981//981
f 545//545 549//549 517//517
f 517//517 549//549 543//543
f 543//543 549//549 550//550
f 554//554 544//544 543//543
f 543//543 544//544 981//981
f 981//981 544//544 982//982
f 588//588 522//522 527//527
f 545//545 475//475 547//547
f 627//627 547//547 475//475
f 548//548 545//545 546//546
f 546//546 545//545 547//547
f 546//546 564//564 573//573
f 547//547 569//569 546//546
f 546//546 569//569 564//564
f 546//546 573//573 548//548
f 545//545 548//548 550//550
f 548//548 573//573 550//550
f 545//545 550//550 549//549
f 578//578 550//550 574//574
f 551//551 543//543 550//550
f 550//550 578//578 551//551
f 543//543 583//583 554//554
f 583//583 543//543 578//578
f 555//555 554//554 583//583
f 578//578 543//543 551//551
f 552//552 544//544 554//554
f 555//555 553//553 552//552
f 554//554 555//555 552//552
f 527//527 536//536 588//588
f 594//594 445//445 557//557
f 445//445 556//556 557//557
f 445//445 561//561 556//556
f 537//537 538//538 558//558
f 537//537 558//558 559//559
f 537//537 559//559 561//561
f 560//560 559//559 572//572
f 559//559 558//558 572//572
f 558//558 570//570 572//572
f 562//562 561//561 559//559
f 560//560 562//562 559//559
f 561//561 563//563 556//556
f 986//986 993//993 990//990
f 564//564 988//988 987//987
f 563//563 561//561 562//562
f 556//556 563//563 608//608
f 563//563 611//611 608//608
f 569//569 565//565 564//564
f 991//991 566//566 989//989
f 565//565 988//988 564//564
f 992//992 563//563 562//562
f 611//611 563//563 992//992
f 569//569 567//567 991//991
f 567//567 566//566 991//991
f 567//567 568//568 566//566
f 568//568 611//611 566//566
f 567//567 629//629 568//568
f 569//569 547//547 628//628
f 538//538 570//570 558//558
f 572//572 570//570 571//571
f 993//993 571//571 994//994
f 993//993 994//994 990//990
f 570//570 575//575 576//576
f 570//570 576//576 571//571
f 571//571 576//576 995//995
f 550//550 573//573 574//574
f 995//995 994//994 571//571
f 576//576 577//577 995//995
f 574//574 577//577 578//578
f 577//577 583//583 578//578
f 579//579 581//581 580//580
f 579//579 582//582 581//581
f 582//582 579//579 553//553
f 555//555 582//582 553//553
f 580//580 581//581 576//576
f 580//580 576//576 541//541
f 581//581 577//577 576//576
f 581//581 584//584 577//577
f 582//582 584//584 581//581
f 583//583 577//577 584//584
f 582//582 555//555 584//584
f 584//584 555//555 583//583
f 996//996 586//586 621//621
f 586//586 589//589 587//587
f 621//621 586//586 587//587
f 585//585 621//621 536//536
f 536//536 621//621 588//588
f 445//445 594//594 590//590
f 597//597 589//589 590//590
f 594//594 557//557 591//591
f 592//592 591//591 557//557
f 556//556 592//592 557//557
f 556//556 608//608 592//592
f 608//608 604//604 592//592
f 592//592 997//997 593//593
f 593//593 591//591 592//592
f 606//606 595//595 593//593
f 594//594 591//591 595//595
f 595//595 591//591 593//593
f 609//609 595//595 606//606
f 595//595 596//596 594//594
f 596//596 598//598 594//594
f 590//590 594//594 597//597
f 599//599 595//595 609//609
f 600//600 596//596 595//595
f 594//594 598//598 597//597
f 600//600 598//598 596//596
f 600//600 599//599 601//601
f 600//600 595//595 599//599
f 601//601 599//599 609//609
f 601//601 609//609 632//632
f 600//600 601//601 603//603
f 603//603 598//598 600//600
f 602//602 597//597 598//598
f 598//598 603//603 602//602
f 603//603 623//623 602//602
f 601//601 632//632 603//603
f 997//997 605//605 593//593
f 606//606 593//593 605//605
f 605//605 607//607 606//606
f 608//608 605//605 604//604
f 608//608 607//607 605//605
f 610//610 998//998 999//999
f 609//609 606//606 610//610
f 612//612 608//608 611//611
f 612//612 613//613 608//608
f 608//608 613//613 607//607
f 613//613 614//614 607//607
f 614//614 615//615 607//607
f 609//609 610//610 632//632
f 999//999 1000//1000 610//610
f 568//568 616//616 611//611
f 616//616 612//612 611//611
f 613//613 612//612 616//616
f 613//613 616//616 617//617
f 617//617 614//614 613//613
f 620//620 615//615 614//614
f 610//610 1000//1000 626//626
f 620//620 626//626 615//615
f 618//618 616//616 568//568
f 618//618 631//631 616//616
f 616//616 631//631 617//617
f 631//631 619//619 617//617
f 619//619 614//614 617//617
f 619//619 620//620 614//614
f 568//568 629//629 618//618
f 629//629 631//631 618//618
f 642//642 619//619 631//631
f 642//642 620//620 619//619
f 640//640 632//632 610//610
f 621//621 587//587 634//634
f 634//634 587//587 622//622
f 634//634 622//622 643//643
f 589//589 597//597 625//625
f 589//589 625//625 647//647
f 597//597 602//602 624//624
f 597//597 624//624 625//625
f 602//602 623//623 624//624
f 636//636 625//625 624//624
f 647//647 625//625 648//648
f 610//610 626//626 640//640
f 522//522 627//627 475//475
f 628//628 547//547 627//627
f 650//650 627//627 522//522
f 630//630 628//628 627//627
f 569//569 628//628 567//567
f 628//628 629//629 567//567
f 629//629 628//628 633//633
f 588//588 690//690 522//522
f 650//650 630//630 627//627
f 642//642 641//641 620//620
f 1003//1003 626//626 620//620
f 629//629 642//642 631//631
f 630//630 633//633 628//628
f 633//633 642//642 629//629
f 651//651 633//633 630//630
f 621//621 635//635 588//588
f 634//634 635//635 621//621
f 649//649 643//643 622//622
f 649//649 622//622 589//589
f 649//649 589//589 647//647
f 623//623 603//603 637//637
f 624//624 623//623 637//637
f 636//636 624//624 637//637
f 632//632 1001//1001 603//603
f 632//632 639//639 1001//1001
f 1002//1002 636//636 637//637
f 648//648 625//625 636//636
f 638//638 636//636 1002//1002
f 638//638 660//660 636//636
f 660//660 648//648 636//636
f 1003//1003 640//640 626//626
f 639//639 632//632 640//640
f 639//639 640//640 654//654
f 654//654 640//640 1003//1003
f 654//654 1003//1003 655//655
f 644//644 635//635 634//634
f 634//634 643//643 644//644
f 644//644 643//643 645//645
f 646//646 635//635 644//644
f 645//645 646//646 644//644
f 588//588 635//635 659//659
f 646//646 659//659 635//635
f 658//658 646//646 645//645
f 648//648 649//649 647//647
f 662//662 648//648 660//660
f 649//649 648//648 662//662
f 649//649 675//675 669//669
f 643//643 649//649 669//669
f 650//650 651//651 630//630
f 650//650 657//657 651//651
f 633//633 651//651 642//642
f 651//651 656//656 642//642
f 651//651 657//657 656//656
f 661//661 660//660 638//638
f 661//661 639//639 652//652
f 661//661 638//638 1002//1002
f 652//652 639//639 654//654
f 650//650 653//653 657//657
f 653//653 650//650 522//522
f 655//655 641//641 642//642
f 642//642 1004//1004 655//655
f 665//665 654//654 655//655
f 665//665 655//655 692//692
f 654//654 665//665 652//652
f 655//655 1004//1004 692//692
f 657//657 1013//1013 656//656
f 659//659 646//646 658//658
f 659//659 671//671 588//588
f 588//588 671//671 690//690
f 660//660 663//663 662//662
f 663//663 660//660 661//661
f 664//664 662//662 663//663
f 661//661 664//664 663//663
f 664//664 661//661 652//652
f 666//666 652//652 665//665
f 692//692 666//666 665//665
f 652//652 666//666 664//664
f 668//668 645//645 643//643
f 667//667 645//645 668//668
f 670//670 667//667 668//668
f 645//645 667//667 658//658
f 659//659 658//658 667//667
f 667//667 671//671 659//659
f 1005//1005 668//668 643//643
f 1005//1005 1006//1006 668//668
f 673//673 1006//1006 1005//1005
f 667//667 670//670 697//697
f 649//649 662//662 672//672
f 662//662 664//664 672//672
f 666//666 672//672 664//664
f 692//692 672//672 666//666
f 696//696 700//700 672//672
f 669//669 675//675 1007//1007
f 677//677 1007//1007 675//675
f 680//680 1008//1008 1010//1010
f 1006//1006 673//673 674//674
f 702//702 674//674 673//673
f 702//702 673//673 1011//1011
f 697//697 670//670 1009//1009
f 1009//1009 702//702 697//697
f 697//697 671//671 667//667
f 675//675 649//649 676//676
f 672//672 676//676 649//649
f 676//676 672//672 700//700
f 1012//1012 677//677 678//678
f 677//677 686//686 678//678
f 679//679 678//678 686//686
f 679//679 686//686 687//687
f 681//681 1012//1012 678//678
f 679//679 681//681 678//678
f 681//681 679//679 682//682
f 682//682 687//687 688//688
f 682//682 679//679 687//687
f 682//682 688//688 689//689
f 1011//1011 681//681 702//702
f 683//683 702//702 681//681
f 684//684 683//683 682//682
f 683//683 681//681 682//682
f 684//684 682//682 689//689
f 683//683 703//703 702//702
f 703//703 683//683 684//684
f 676//676 685//685 675//675
f 675//675 685//685 677//677
f 685//685 686//686 677//677
f 685//685 687//687 686//686
f 676//676 700//700 685//685
f 687//687 685//685 688//688
f 685//685 700//700 688//688
f 688//688 700//700 706//706
f 688//688 706//706 689//689
f 653//653 522//522 691//691
f 691//691 522//522 694//694
f 694//694 522//522 690//690
f 693//693 653//653 691//691
f 695//695 691//691 694//694
f 693//693 691//691 695//695
f 657//657 653//653 693//693
f 1013//1013 657//657 693//693
f 671//671 698//698 690//690
f 696//696 701//701 700//700
f 692//692 1014//1014 696//696
f 1014//1014 701//701 696//696
f 694//694 699//699 695//695
f 692//692 696//696 672//672
f 671//671 697//697 698//698
f 694//694 690//690 699//699
f 690//690 698//698 699//699
f 698//698 707//707 699//699
f 699//699 1015//1015 695//695
f 701//701 706//706 700//700
f 695//695 1015//1015 693//693
f 703//703 684//684 704//704
f 684//684 689//689 704//704
f 702//702 703//703 705//705
f 703//703 704//704 705//705
f 697//697 702//702 705//705
f 704//704 1018//1018 705//705
f 705//705 698//698 697//697
f 698//698 705//705 707//707
f 704//704 689//689 706//706
f 704//704 1017//1017 1018//1018
f 1018//1018 1017//1017 1016//1016
f 699//699 1019//1019 1015//1015
