# Wavafront OBJ file of BodyParts3D
# BodyParts3D, Copyright(C) 2010-2011 The Database Center for Life Science licensed under CC Attribution-Share Alike 2.1 Japan.
vn -0.320179 0.323216 0.890515
v 298.866 -144.201 772.038
vn -0.474833 0.0334464 0.87944
v 299.881 -145.228 772.554
vn -0.230774 0.305012 0.923965
v 299.696 -144.597 772.352
vn -0.797825 -0.587188 0.136698
v 300.329 -147.202 772.082
vn -0.797294 -0.0883765 0.597086
v 300.352 -146.474 772.923
vn -0.872534 -0.308899 0.378505
v 298.522 -144.814 771.716
vn -0.618578 -0.0969983 0.779714
v 298.699 -144.632 772.039
vn -0.67922 0.211736 0.702729
v 298.469 -144.053 771.743
vn -0.765747 -0.444343 0.464964
v 299.674 -146.268 772.025
vn -0.960225 -0.224234 0.166398
v 298.108 -144.065 771.022
vn -0.88949 0.0274981 0.456126
v 298.215 -143.904 771.344
vn -0.969229 0.140653 0.202022
v 298.015 -143.425 770.776
vn -0.744611 0.381329 0.547853
v 298.217 -143.175 771.079
vn -0.790213 0.582588 0.190142
v 298.736 -141.242 769.704
vn -0.831029 -0.551624 -0.0714262
v 298.585 -145.424 768.269
vn -0.647023 -0.730848 -0.217307
v 299.485 -145.97 767.189
vn -0.965851 -0.178571 -0.187735
v 297.962 -143.805 767.966
vn -0.938522 0.306603 -0.158657
v 297.99 -142.665 767.922
vn -0.825668 0.0765989 -0.558932
v 298.197 -142.877 767.243
vn -0.65306 0.552077 -0.518386
v 298.684 -142.101 767.069
vn -0.772113 -0.385554 -0.505164
v 299.216 -145.204 766.431
vn -0.648357 -0.496724 0.576973
v 302.005 -148.851 774.736
vn -0.558194 0.0391985 0.828784
v 303.072 -148.872 775.458
vn -0.852995 -0.170355 0.493334
v 301.081 -148.119 774.018
vn -0.628254 0.130067 0.767059
v 301.26 -147.542 774.368
vn -0.426344 0.335323 0.840113
v 300.79 -145.901 773.077
vn -0.559473 -0.827937 -0.0388648
v 302.309 -149.743 772.894
vn -0.441581 -0.854913 0.272268
v 303.533 -150.325 774.366
vn -0.416674 0.550099 0.723722
v 299.502 -141.47 770.744
vn -0.462745 0.859672 -0.216404
v 300.377 -139.527 769.288
vn -0.356021 -0.910109 -0.212015
v 304.076 -149.503 770.091
vn -0.659255 -0.676597 -0.328024
v 301.317 -146.349 764.91
vn -0.712687 -0.0433495 -0.700141
v 300.678 -145.029 764.85
vn -0.344329 -0.717087 0.60599
v 304.46 -149.935 775.813
vn -0.371894 -0.422267 0.826671
v 305.229 -149.247 776.764
vn -0.0127081 -0.782581 0.622419
v 305.777 -149.595 776.593
vn -0.0468677 -0.438453 0.897532
v 305.926 -148.932 777.106
vn -0.46883 -0.0414448 0.882316
v 305.192 -148.854 776.814
vn -0.53218 0.263825 0.804475
v 305.717 -148.23 777.032
vn -0.243005 -0.0583604 0.968268
v 306.12 -148.394 777.282
vn -0.0829622 -0.993941 0.0720989
v 304.731 -150.722 773.928
vn -0.287787 0.776815 0.560123
v 302.029 -139.107 770.014
vn -0.111951 0.993559 -0.0175348
v 302.668 -138.83 769.694
vn -0.132445 0.869121 0.476536
v 303.394 -138.891 770.177
vn -0.239631 0.571738 0.784661
v 303.817 -139.131 770.557
vn -0.155949 -0.97324 -0.168771
v 305.346 -150.246 771.627
vn -0.345293 0.728198 -0.59203
v 302.289 -139.793 767.055
vn -0.428187 -0.89645 0.114165
v 307.377 -150.597 764.222
vn -0.832278 -0.519655 -0.193059
v 307.332 -149.749 755.887
vn -0.867825 -0.493773 0.0553832
v 308.321 -153.421 748.895
vn -0.814186 -0.452106 0.364283
v 308.514 -153.31 749.982
vn -0.911654 -0.069596 0.405022
v 308.226 -152.728 749.733
vn -0.985481 -0.140644 0.0951133
v 308.154 -152.879 749.411
vn -0.957806 0.223752 -0.180397
v 308.177 -152.667 748.969
vn -0.935375 -0.247668 -0.252458
v 308.359 -153.333 748.132
vn -0.931907 0.339662 0.127199
v 308.249 -152.387 749.612
vn -0.77608 0.363276 -0.51549
v 308.446 -152.973 748.012
vn -0.40712 0.297613 0.863528
v 307.1 -146.896 777.435
vn -0.550444 0.48981 0.67609
v 307.182 -145.944 776.885
vn 0.115416 -0.0389463 0.992553
v 307.745 -146.666 777.537
vn 0.526074 0.0655599 0.847908
v 308.32 -146.183 777.365
vn -0.0395263 0.440623 0.896821
v 308.124 -145.525 777.238
vn 0.336286 -0.790707 0.511561
v 307.313 -149.891 775.794
vn 0.639494 -0.556423 0.53051
v 309.051 -148.53 775.887
vn 0.839594 -0.463767 0.282847
v 309.414 -148.503 775.188
vn 0.288824 -0.426908 0.85693
v 307.144 -148.079 777.318
vn 0.604119 -0.319584 0.730004
v 309.163 -147.737 776.348
vn 0.435802 -0.880726 0.185468
v 307.801 -150.2 773.763
vn 0.508526 -0.801393 0.314914
v 308.717 -149.747 772.979
vn 0.713191 -0.661787 0.231075
v 309.226 -149.035 774.623
vn 0.682393 -0.647711 0.338835
v 309.332 -149.283 772.888
vn 0.129359 0.962996 0.236443
v 304.459 -138.868 770.304
vn 0.283825 0.907653 -0.309208
v 304.94 -139.197 769.015
vn 0.241137 -0.959979 0.142457
v 307.905 -150.421 771.65
vn 0.428081 -0.880463 0.203793
v 309.168 -149.876 771.98
vn 0.436356 -0.845047 0.309013
v 309.23 -150.042 771.313
vn 0.551373 -0.769149 0.323105
v 309.464 -149.689 772.318
vn 0.539932 -0.822559 0.178522
v 309.495 -149.75 771.608
vn 0.688803 -0.681468 0.24729
v 309.776 -149.51 771.925
vn 0.607422 -0.741568 0.284809
v 309.825 -149.634 771.24
vn 0.208742 -0.919436 0.333264
v 310.266 -150.911 768.085
vn -0.0537888 -0.992396 0.110712
v 309.459 -150.674 769.183
vn -0.178901 -0.966469 0.184208
v 309.907 -150.904 768.037
vn -0.229615 -0.892756 0.387639
v 310.795 -152.396 763.547
vn -0.759579 -0.646758 -0.0688768
v 308.521 -151.859 756.441
vn -0.829071 0.227974 -0.510558
v 307.774 -149.009 755.499
vn -0.912075 -0.402753 -0.0768648
v 308.591 -151.534 753.389
vn -0.935283 0.070239 -0.346862
v 308.408 -150.329 753.662
vn 0.228372 0.881635 -0.412996
v 309.842 -148.668 754.342
vn -0.890513 -0.402584 0.211925
v 312.795 -159.808 755.474
vn -0.924265 -0.381726 0.0043809
v 312.412 -159.179 754.46
vn -0.807649 -0.589206 -0.0232313
v 312.995 -160.264 754.195
vn -0.489325 -0.818381 0.301351
v 313.441 -160.677 754.77
vn -0.608198 -0.779735 -0.148691
v 313.483 -160.752 753.7
vn -0.931105 -0.202226 0.30356
v 312.217 -158.311 754.854
vn -0.790972 -0.605598 0.0872637
v 310.991 -154.207 753.568
vn -0.940097 -0.328915 0.0896241
v 311.482 -156.385 752.219
vn -0.907395 -0.297077 0.297286
v 311.576 -155.534 752.7
vn -0.792982 -0.343974 0.502854
v 308.869 -152.946 750.63
vn -0.908763 -0.367437 0.197837
v 309.018 -152.643 751.274
vn -0.765121 -0.553768 0.328528
v 309.246 -153.037 751.08
vn -0.951496 0.0798938 0.297107
v 308.745 -152.185 750.705
vn -0.995743 0.00167789 -0.0921613
v 308.838 -151.771 751.669
vn -0.818126 0.572912 0.0494075
v 308.704 -151.783 750.185
vn -0.536289 0.776741 -0.330255
v 309.186 -151.057 751.085
vn -0.502454 0.831121 -0.238282
v 309.3 -151.355 749.737
vn -0.363549 0.859208 -0.359991
v 310.167 -150.724 750.721
vn -0.804683 -0.542806 -0.240515
v 313.02 -159.975 752.99
vn -0.78824 -0.499796 0.359
v 310.651 -155.341 750.996
vn -0.586193 -0.725396 -0.360803
v 312.134 -157.287 750.793
vn -0.774192 -0.630329 0.0575459
v 309.928 -155.459 748.373
vn -0.678831 0.672522 -0.294792
v 308.485 -152.165 748.825
vn -0.398072 0.697736 -0.59557
v 309.201 -152.124 748.167
vn -0.323685 0.854965 -0.405294
v 309.724 -151.516 748.747
vn -0.758767 -0.591007 -0.27383
v 309.868 -154.202 745.826
vn -0.239863 -0.878487 -0.41319
v 311.96 -155.245 746.471
vn -0.394459 0.448689 0.801923
v 308.394 -143.973 776.137
vn 0.808579 0.0634678 0.584955
v 309.765 -146.677 776.038
vn 0.842588 -0.311291 0.439481
v 309.788 -147.133 775.839
vn 0.588683 0.373263 0.717027
v 308.931 -144.575 776.268
vn 0.607648 0.450681 0.65395
v 308.943 -143.325 775.445
vn 0.690688 0.290546 0.662218
v 309.993 -144.399 774.868
vn 0.801922 0.368332 0.470375
v 310.584 -144.145 774.115
vn -0.377231 0.513887 0.770465
v 307.847 -142.061 774.623
vn -0.273557 0.629473 0.727276
v 308.013 -141.397 774.246
vn 0.878146 -0.358203 0.317097
v 310.578 -146.355 774.185
vn 0.975869 0.0563198 0.210971
v 310.846 -144.992 773.722
vn 0.712461 0.686831 0.143747
v 310.526 -143.213 772.665
vn 0.617149 0.786647 -0.0176983
v 307.971 -140.563 770.636
vn 0.749431 -0.569886 0.337022
v 310.42 -149.203 770.791
vn 0.612459 -0.675107 0.411246
v 310.395 -150.221 769.321
vn 0.877523 -0.31334 0.363003
v 311.076 -149.455 769.128
vn 0.93118 0.360861 0.0517907
v 311.187 -145.131 766.462
vn -0.0694028 -0.939848 0.334468
v 310.885 -151.644 765.858
vn 0.444422 -0.762603 0.470028
v 311.829 -151.222 766.093
vn 0.0920765 -0.886342 0.453784
v 311.86 -152.396 764.05
vn 0.664252 0.734025 -0.141339
v 312.315 -146.78 760.589
vn 0.111902 -0.8422 0.527425
v 312.69 -153.804 761.36
vn 0.518881 -0.672543 0.527683
v 313.389 -153.728 761.054
vn -0.282855 -0.828876 0.482658
v 312.703 -154.929 759.566
vn -0.387348 -0.658504 0.64524
v 313.125 -156.234 757.89
vn 0.417038 -0.678627 0.604603
v 313.784 -154.937 759.339
vn -0.091294 -0.545259 0.833281
v 313.56 -157.627 756.982
vn 0.578068 -0.442771 0.685413
v 314.759 -157.993 756.166
vn -0.794101 -0.513957 0.324424
v 312.659 -156.607 756.863
vn -0.66718 -0.408545 0.622866
v 313.208 -157.634 756.766
vn 0.341943 -0.612779 0.712445
v 313.935 -156.537 757.736
vn -0.288045 -0.650865 0.702428
v 313.576 -159.983 755.638
vn 0.0566945 -0.844684 0.532255
v 313.822 -160.756 754.848
vn -0.251897 -0.958621 0.13264
v 313.897 -160.965 754.198
vn 0.580079 -0.52014 0.626867
v 314.897 -160.722 754.237
vn -0.224941 -0.91534 -0.333997
v 314.252 -161.07 753.179
vn -0.478195 -0.697372 -0.533856
v 313.744 -160.353 752.476
vn 0.265801 -0.938335 0.221081
v 315.024 -161.109 753.659
vn 0.713311 -0.644917 0.274352
v 315.652 -160.788 753.255
vn 0.316439 -0.88588 -0.339239
v 315.657 -160.761 752.51
vn 0.072624 -0.627552 -0.77518
v 315.613 -159.319 750.826
vn -0.257708 -0.787886 -0.559304
v 314.197 -156.901 749.298
vn -0.12433 0.785368 -0.606415
v 311.817 -151.296 748.199
vn 0.116229 0.937074 -0.329217
v 311.999 -150.766 749.132
vn 0.0247084 0.772129 -0.634986
v 314.017 -152.569 746.737
vn 0.786597 -0.376357 0.489511
v 314.457 -153.312 759.935
vn 0.817765 -0.222697 0.530722
v 315.573 -155.947 756.38
vn 0.921859 0.217753 0.320562
v 316.686 -154.167 754.281
vn 0.590817 0.792262 -0.152499
v 316.646 -153.434 753.273
vn 0.788688 -0.597599 0.144384
v 316.701 -159.719 751.896
vn 0.802295 -0.389703 0.452166
v 317.205 -158.749 752.341
vn 0.864812 -0.370404 0.33897
v 317.622 -158.311 751.867
vn 0.682494 -0.386185 -0.620534
v 317.353 -157.971 751.005
vn 0.855734 -0.253943 0.450812
v 317.63 -157.775 752.242
vn 0.888208 -0.137293 0.438448
v 318.119 -156.697 751.709
vn 0.413671 -0.409558 -0.813104
v 317.069 -155.772 750.011
vn 0.868836 0.416098 0.268303
v 317.654 -154.111 751.81
vn 0.949013 0.170441 0.265185
v 318.062 -155.119 751.862
vn 0.937078 0.13468 -0.322098
v 317.934 -154.619 751.295
vn -0.745245 -0.664688 0.0529229
v 301.081 -148.119 774.018
vn -0.489143 0.653416 0.577743
v 300.377 -139.527 769.288
vn -0.471516 0.566652 -0.675706
v 302.289 -139.793 767.055
vn -0.807425 0.225491 -0.545177
v 307.332 -149.749 755.887
vn -0.462259 0.605714 -0.647632
v 307.774 -149.009 755.499
vn -0.540294 0.673249 -0.504795
v 308.408 -150.329 753.662
vn -0.480384 0.697433 -0.531807
v 309.842 -148.668 754.342
vn -0.357818 -0.537128 0.763846
v 312.795 -159.808 755.474
vn -0.956875 0.287131 -0.0441142
v 309.186 -151.057 751.085
vn -0.291105 -0.865052 -0.408586
v 309.928 -155.459 748.373
vn -0.833514 0.0182409 -0.552197
v 309.868 -154.202 745.826
vn -0.278475 0.656817 -0.700745
v 309.868 -154.202 745.826
vn -0.299307 -0.858402 -0.416606
v 309.868 -154.202 745.826
vn 0.249379 -0.0958727 -0.963649
v 309.868 -154.202 745.826
vn 0.406125 -0.353767 -0.842562
v 311.96 -155.245 746.471
vn -0.551593 0.57046 0.608539
v 308.394 -143.973 776.137
vn 0.334121 0.534032 0.776642
v 308.394 -143.973 776.137
vn 0.556614 0.723602 0.408143
v 308.013 -141.397 774.246
vn 0.971754 0.222021 0.0800003
v 310.526 -143.213 772.665
vn 0.647372 0.714139 -0.266299
v 312.315 -146.78 760.589
vn 0.438889 -0.507961 0.741183
v 313.576 -159.983 755.638
vn 0.385271 -0.483376 -0.786075
v 314.197 -156.901 749.298
vn -0.181013 0.874655 -0.449681
v 311.999 -150.766 749.132
vn 0.578819 0.801295 -0.15131
v 311.999 -150.766 749.132
vn 0.390789 -0.211277 -0.895905
v 314.017 -152.569 746.737
vn 0.777438 0.107404 -0.619722
v 314.017 -152.569 746.737
vn 0.624687 0.749201 -0.220144
v 314.017 -152.569 746.737
vn 0.862739 0.424479 0.274771
v 316.646 -153.434 753.273
vn 0.540017 -0.595537 -0.594742
v 316.701 -159.719 751.896
vn 0.815018 -0.405446 -0.413955
v 317.622 -158.311 751.867
vn 0.894604 -0.113758 -0.432138
v 318.119 -156.697 751.709
vn 0.811668 -0.0280637 -0.583444
v 317.069 -155.772 750.011
vn 0.593681 0.788792 -0.159216
v 317.654 -154.111 751.81
vn 0.685426 0.66869 -0.288175
v 317.934 -154.619 751.295
f 24//24 25//25 5//5
f 176//176 4//4 16//16
f 24//24 5//5 4//4
f 25//25 26//26 5//5
f 8//8 7//7 1//1
f 8//8 1//1 29//29
f 7//7 2//2 1//1
f 1//1 2//2 3//3
f 9//9 5//5 2//2
f 3//3 45//45 1//1
f 1//1 45//45 29//29
f 5//5 26//26 2//2
f 26//26 3//3 2//2
f 4//4 5//5 9//9
f 9//9 15//15 4//4
f 7//7 8//8 6//6
f 8//8 13//13 11//11
f 6//6 8//8 11//11
f 15//15 6//6 10//10
f 11//11 10//10 6//6
f 29//29 13//13 8//8
f 9//9 7//7 6//6
f 6//6 15//15 9//9
f 15//15 16//16 4//4
f 2//2 7//7 9//9
f 11//11 12//12 10//10
f 12//12 17//17 10//10
f 15//15 10//10 17//17
f 13//13 12//12 11//11
f 12//12 18//18 17//17
f 14//14 13//13 29//29
f 14//14 12//12 13//13
f 12//12 14//14 18//18
f 18//18 14//14 20//20
f 15//15 21//21 16//16
f 18//18 19//19 17//17
f 18//18 20//20 19//19
f 15//15 17//17 21//21
f 19//19 20//20 33//33
f 17//17 19//19 21//21
f 21//21 19//19 33//33
f 47//47 33//33 20//20
f 21//21 32//32 16//16
f 28//28 41//41 34//34
f 176//176 16//16 27//27
f 176//176 27//27 22//22
f 24//24 22//22 25//25
f 25//25 22//22 23//23
f 25//25 23//23 117//117
f 22//22 27//27 28//28
f 34//34 23//23 22//22
f 22//22 28//28 34//34
f 26//26 25//25 117//117
f 45//45 26//26 117//117
f 26//26 45//45 3//3
f 31//31 27//27 16//16
f 28//28 27//27 41//41
f 41//41 27//27 31//31
f 30//30 20//20 14//14
f 30//30 47//47 20//20
f 14//14 29//29 177//177
f 177//177 29//29 42//42
f 32//32 31//31 16//16
f 82//82 46//46 31//31
f 21//21 33//33 32//32
f 85//85 32//32 33//33
f 32//32 85//85 48//48
f 40//40 37//37 66//66
f 66//66 60//60 40//40
f 40//40 60//60 58//58
f 58//58 59//59 39//39
f 34//34 35//35 23//23
f 23//23 35//35 38//38
f 41//41 36//36 34//34
f 36//36 35//35 34//34
f 36//36 41//41 63//63
f 37//37 38//38 35//35
f 35//35 36//36 37//37
f 38//38 37//37 40//40
f 36//36 63//63 37//37
f 37//37 63//63 66//66
f 38//38 39//39 23//23
f 58//58 39//39 40//40
f 39//39 38//38 40//40
f 23//23 39//39 59//59
f 59//59 191//191 23//23
f 30//30 43//43 47//47
f 42//42 43//43 30//30
f 42//42 29//29 45//45
f 44//44 42//42 45//45
f 42//42 44//44 43//43
f 43//43 73//73 47//47
f 43//43 44//44 72//72
f 43//43 72//72 73//73
f 41//41 31//31 46//46
f 46//46 74//74 41//41
f 74//74 46//46 82//82
f 73//73 89//89 47//47
f 82//82 31//31 48//48
f 48//48 31//31 32//32
f 85//85 33//33 49//49
f 47//47 179//179 33//33
f 49//49 87//87 85//85
f 52//52 51//51 99//99
f 50//50 51//51 53//53
f 53//53 55//55 50//50
f 50//50 55//55 111//111
f 55//55 115//115 111//111
f 51//51 52//52 53//53
f 51//51 50//50 111//111
f 53//53 54//54 55//55
f 112//112 57//57 54//54
f 54//54 57//57 55//55
f 55//55 57//57 186//186
f 56//56 53//53 52//52
f 56//56 54//54 53//53
f 56//56 112//112 54//54
f 60//60 62//62 58//58
f 58//58 62//62 59//59
f 61//61 62//62 60//60
f 191//191 59//59 62//62
f 61//61 120//120 62//62
f 62//62 120//120 192//192
f 66//66 63//63 64//64
f 66//66 67//67 60//60
f 64//64 67//67 66//66
f 119//119 67//67 64//64
f 65//65 119//119 64//64
f 65//65 64//64 70//70
f 60//60 67//67 61//61
f 45//45 117//117 124//124
f 125//125 45//45 124//124
f 125//125 72//72 45//45
f 63//63 41//41 68//68
f 74//74 68//68 41//41
f 74//74 69//69 68//68
f 71//71 68//68 69//69
f 70//70 64//64 63//63
f 68//68 70//70 63//63
f 70//70 68//68 71//71
f 71//71 69//69 77//77
f 77//77 69//69 74//74
f 126//126 70//70 71//71
f 77//77 126//126 71//71
f 129//129 73//73 72//72
f 129//129 72//72 193//193
f 72//72 44//44 45//45
f 137//137 73//73 129//129
f 76//76 74//74 82//82
f 75//75 74//74 76//76
f 75//75 76//76 78//78
f 77//77 74//74 75//75
f 77//77 75//75 78//78
f 80//80 78//78 76//76
f 76//76 82//82 81//81
f 78//78 79//79 77//77
f 81//81 131//131 76//76
f 79//79 78//78 80//80
f 80//80 76//76 131//131
f 137//137 89//89 73//73
f 81//81 135//135 131//131
f 48//48 83//83 82//82
f 82//82 83//83 81//81
f 83//83 134//134 81//81
f 81//81 134//134 135//135
f 48//48 84//84 134//134
f 134//134 83//83 48//48
f 136//136 135//135 134//134
f 84//84 48//48 140//140
f 48//48 85//85 140//140
f 145//145 140//140 85//85
f 86//86 179//179 47//47
f 179//179 86//86 88//88
f 88//88 87//87 179//179
f 182//182 180//180 178//178
f 146//146 145//145 95//95
f 98//98 95//95 145//145
f 96//96 145//145 85//85
f 85//85 87//87 96//96
f 87//87 88//88 103//103
f 180//180 182//182 181//181
f 182//182 105//105 181//181
f 88//88 184//184 103//103
f 105//105 182//182 107//107
f 90//90 95//95 91//91
f 92//92 90//90 91//91
f 91//91 95//95 97//97
f 91//91 97//97 108//108
f 108//108 92//92 91//91
f 95//95 90//90 146//146
f 93//93 148//148 183//183
f 90//90 92//92 93//93
f 92//92 94//94 93//93
f 94//94 92//92 108//108
f 148//148 93//93 149//149
f 93//93 150//150 149//149
f 93//93 94//94 150//150
f 87//87 101//101 96//96
f 96//96 101//101 98//98
f 98//98 101//101 109//109
f 97//97 98//98 109//109
f 97//97 95//95 98//98
f 145//145 96//96 98//98
f 99//99 101//101 100//100
f 100//100 102//102 99//99
f 52//52 99//99 102//102
f 109//109 99//99 51//51
f 87//87 103//103 100//100
f 87//87 100//100 101//101
f 100//100 103//103 102//102
f 101//101 99//99 109//109
f 56//56 52//52 102//102
f 102//102 104//104 56//56
f 104//104 112//112 56//56
f 103//103 184//184 102//102
f 112//112 104//104 106//106
f 184//184 104//104 102//102
f 104//104 105//105 106//106
f 107//107 106//106 105//105
f 114//114 106//106 107//107
f 94//94 108//108 153//153
f 97//97 110//110 108//108
f 110//110 153//153 108//108
f 109//109 111//111 110//110
f 109//109 110//110 97//97
f 109//109 51//51 111//111
f 106//106 114//114 112//112
f 113//113 57//57 112//112
f 57//57 113//113 187//187
f 113//113 112//112 114//114
f 116//116 110//110 185//185
f 116//116 185//185 188//188
f 110//110 116//116 158//158
f 61//61 118//118 120//120
f 61//61 67//67 118//118
f 126//126 119//119 65//65
f 118//118 67//67 119//119
f 119//119 126//126 118//118
f 192//192 120//120 121//121
f 193//193 192//192 121//121
f 118//118 121//121 120//120
f 123//123 121//121 122//122
f 121//121 118//118 122//122
f 123//123 193//193 121//121
f 122//122 118//118 123//123
f 128//128 193//193 123//123
f 126//126 127//127 118//118
f 118//118 127//127 123//123
f 127//127 194//194 123//123
f 125//125 124//124 117//117
f 129//129 193//193 128//128
f 65//65 70//70 126//126
f 79//79 126//126 77//77
f 80//80 130//130 79//79
f 130//130 80//80 131//131
f 79//79 130//130 126//126
f 126//126 130//130 132//132
f 126//126 132//132 127//127
f 194//194 127//127 133//133
f 129//129 128//128 133//133
f 130//130 131//131 132//132
f 131//131 135//135 132//132
f 127//127 132//132 133//133
f 139//139 135//135 136//136
f 162//162 132//132 139//139
f 132//132 135//135 139//139
f 129//129 133//133 137//137
f 136//136 134//134 84//84
f 139//139 136//136 138//138
f 136//136 84//84 138//138
f 138//138 84//84 140//140
f 142//142 138//138 140//140
f 139//139 138//138 142//142
f 162//162 139//139 142//142
f 137//137 160//160 89//89
f 140//140 145//145 141//141
f 147//147 140//140 141//141
f 142//142 140//140 147//147
f 162//162 142//142 147//147
f 183//183 148//148 143//143
f 146//146 183//183 143//143
f 143//143 196//196 144//144
f 144//144 147//147 143//143
f 144//144 163//163 147//147
f 141//141 145//145 146//146
f 141//141 146//146 143//143
f 147//147 141//141 143//143
f 182//182 198//198 107//107
f 149//149 151//151 196//196
f 149//149 150//150 154//154
f 144//144 196//196 151//151
f 154//154 151//151 149//149
f 155//155 151//151 154//154
f 151//151 155//155 167//167
f 144//144 151//151 167//167
f 198//198 114//114 107//107
f 94//94 152//152 150//150
f 94//94 153//153 152//152
f 150//150 152//152 154//154
f 157//157 153//153 110//110
f 152//152 153//153 157//157
f 152//152 157//157 156//156
f 158//158 157//157 110//110
f 156//156 155//155 154//154
f 152//152 156//156 154//154
f 166//166 167//167 155//155
f 166//166 155//155 156//156
f 157//157 204//204 156//156
f 159//159 113//113 114//114
f 159//159 187//187 113//113
f 159//159 114//114 198//198
f 161//161 159//159 198//198
f 161//161 187//187 159//159
f 189//189 200//200 190//190
f 133//133 132//132 164//164
f 137//137 133//133 164//164
f 132//132 162//162 164//164
f 195//195 165//165 199//199
f 163//163 162//162 147//147
f 137//137 164//164 203//203
f 164//164 162//162 163//163
f 163//163 144//144 167//167
f 163//163 167//167 170//170
f 171//171 174//174 163//163
f 163//163 170//170 171//171
f 164//164 163//163 174//174
f 173//173 164//164 174//174
f 164//164 173//173 203//203
f 199//199 165//165 208//208
f 167//167 166//166 168//168
f 169//169 204//204 157//157
f 205//205 204//204 169//169
f 205//205 169//169 206//206
f 169//169 157//157 172//172
f 172//172 157//157 197//197
f 168//168 171//171 170//170
f 167//167 168//168 170//170
f 207//207 206//206 169//169
f 206//206 207//207 175//175
f 190//190 172//172 197//197
f 207//207 201//201 175//175
f 208//208 202//202 199//199
f 200//200 172//172 190//190
f 173//173 174//174 175//175
f 174//174 206//206 175//175
f 209//209 202//202 208//208
