# Wavafront OBJ file of BodyParts3D
# BodyParts3D, Copyright(C) 2010-2011 The Database Center for Life Science licensed under CC Attribution-Share Alike 2.1 Japan.
vn -0.613583 -0.0888889 -0.784611
v -2.48125 -72.0674 1548.2
vn -0.717524 -0.141129 -0.682087
v -2.70541 -72.2501 1548.43
vn -0.730117 -0.235297 -0.641534
v -2.93418 -73.1036 1548.92
vn -0.629447 -0.351644 -0.692923
v -2.88972 -74.0843 1549.3
vn -0.833758 -0.260679 -0.486717
v -3.19073 -74.2159 1549.74
vn -0.811025 0.313229 -0.494091
v -2.74922 -71.5486 1548.52
vn -0.815263 0.471456 -0.336267
v -2.78489 -71.3672 1548.75
vn -0.752492 0.0786908 -0.653884
v -2.66847 -71.6709 1548.37
vn -0.711307 0.345653 -0.612018
v -2.59435 -71.4661 1548.35
vn -0.60182 0.121447 -0.789344
v -2.41732 -71.6377 1548.13
vn -0.867638 0.0591481 -0.493665
v -3.02945 -72.0211 1548.84
vn -0.898812 0.266672 -0.347883
v -3.03655 -71.8206 1548.94
vn -0.879254 -0.103248 -0.46503
v -3.23837 -73.0152 1549.32
vn -0.968362 -0.0825112 -0.235514
v -3.42926 -73.3892 1549.96
vn -0.949246 -0.203487 -0.239842
v -3.35108 -74.5108 1550.32
vn -0.9906 -0.118027 -0.0691535
v -3.43171 -74.5078 1550.82
vn -0.989635 -0.142255 0.0196728
v -3.17507 -76.5128 1551.89
vn -0.724897 0.677362 -0.125319
v -2.70924 -71.1283 1549.09
vn -0.884054 0.435729 -0.169082
v -2.99702 -71.5611 1549.13
vn -0.781297 0.623123 0.0359479
v -2.90548 -71.3387 1549.6
vn -0.960336 0.156167 -0.231013
v -3.27278 -72.1738 1549.43
vn -0.902314 0.430232 0.027017
v -3.19935 -71.8146 1549.92
vn -0.994427 0.0510049 -0.0922665
v -3.45758 -72.9081 1550.09
vn -0.972601 0.230074 0.0333647
v -3.4155 -72.4889 1550.16
vn -0.974003 0.16234 0.158002
v -3.45325 -72.9871 1550.66
vn -0.999852 -0.0161069 0.00604441
v -3.49189 -73.7063 1550.7
vn -0.979295 0.0675505 0.190837
v -3.44976 -73.7665 1551.13
vn -0.99066 -0.0455227 0.128529
v -3.41978 -74.367 1551.34
vn -0.94488 0.0687379 0.320119
v -3.352 -74.2681 1551.66
vn -0.673792 0.700021 0.236589
v -2.75692 -71.2441 1549.94
vn -0.862461 0.437095 0.255166
v -3.20289 -72.0334 1550.47
vn -0.784377 0.587978 0.197571
v -3.05092 -71.618 1550.05
vn -0.704596 0.629752 0.327043
v -2.93127 -71.5805 1550.29
vn -0.865741 0.337515 0.369563
v -3.2663 -72.6908 1551.1
vn -0.676798 0.573012 0.462171
v -2.95952 -72.0455 1551.01
vn -0.903635 0.209577 0.373526
v -3.28187 -73.3766 1551.52
vn -0.440815 -0.39611 -0.805468
v -2.13339 -73.266 1548.36
vn -0.23554 -0.406764 -0.882646
v -1.69388 -73.2243 1548.17
vn -0.853992 -0.350043 -0.384926
v -2.7803 -78.0437 1551.6
vn -0.625982 -0.417013 -0.658974
v -2.48355 -78.2119 1551.26
vn -0.885255 -0.404334 -0.229865
v -2.49381 -79.02 1552.03
vn -0.402256 -0.0325451 -0.914949
v -2.09964 -71.8261 1547.94
vn -0.224144 0.0990348 -0.969511
v -1.6887 -71.5966 1547.83
vn -0.184125 -0.0512221 -0.981567
v -1.5973 -71.8732 1547.8
vn -0.511948 -0.219829 -0.830412
v -2.27784 -72.4476 1548.14
vn -0.37895 -0.311781 -0.871315
v -1.97779 -72.8429 1548.11
vn -0.277862 -0.188432 -0.941959
v -1.833 -72.387 1547.92
vn -0.56913 -0.303084 -0.76435
v -2.46749 -73.2041 1548.55
vn -0.959097 -0.264933 -0.099717
v -2.92306 -77.8794 1551.96
vn -0.974174 -0.171521 0.146852
v -2.92584 -77.758 1552.63
vn -0.949521 -0.2922 0.114142
v -2.64843 -78.7849 1552.82
vn -0.4368 0.677744 -0.591496
v -1.96449 -70.8686 1548.24
vn -0.302427 0.463822 -0.83271
v -1.60671 -70.9625 1547.99
vn -0.544597 0.428315 -0.721083
v -2.26192 -71.2815 1548.13
vn -0.653176 0.641005 -0.403081
v -2.41375 -71.0241 1548.55
vn -0.387912 0.235725 -0.891043
v -2.12808 -71.417 1548
vn -0.959952 -0.0477732 0.27606
v -3.04685 -76.6146 1552.62
vn -0.93579 -0.146822 0.320531
v -2.64369 -78.2237 1553.41
vn -0.410965 0.860922 -0.299868
v -1.79695 -70.5927 1548.56
vn -0.507203 0.856597 -0.0947957
v -2.06645 -70.649 1548.95
vn -0.569406 0.812711 0.123603
v -2.39745 -70.8713 1549.67
vn -0.360758 0.864694 0.34951
v -2.03083 -70.7475 1549.92
vn -0.331136 0.932519 0.144069
v -1.85571 -70.5689 1549.51
vn -0.5733 0.708589 0.411375
v -2.62755 -71.3271 1550.36
vn -0.516032 0.786715 0.338808
v -2.38056 -70.9746 1550.04
vn -0.391181 0.783558 0.482716
v -2.20942 -71.0357 1550.33
vn -0.47555 0.701729 0.530499
v -2.47123 -71.753 1551.17
vn -0.706578 0.429135 0.562664
v -2.90004 -72.7595 1551.75
vn -0.814279 0.256352 0.520801
v -3.04431 -73.6148 1552.09
vn -0.881087 0.103151 0.461568
v -2.9353 -75.0383 1552.82
vn -0.497318 0.616108 0.610807
v -2.45967 -72.1584 1551.64
vn -0.303484 0.739933 0.60033
v -2.20191 -71.7672 1551.37
vn -0.51283 0.527149 0.677583
v -2.53293 -72.6313 1552
vn -0.234586 -0.455928 -0.858545
v -1.94834 -77.9024 1550.78
vn -0.683073 -0.493635 -0.538272
v -2.26618 -79.1367 1551.75
vn -0.426148 -0.528714 -0.734071
v -2.0941 -78.9929 1551.47
vn -0.742635 -0.532891 -0.405611
v -2.16396 -79.7785 1552.26
vn -0.668013 -0.673806 -0.315823
v -1.90242 -80.3245 1552.59
vn -0.507083 -0.62923 -0.589013
v -1.76746 -80.2739 1552.35
vn -0.0473389 -0.171483 -0.984049
v -0.993342 -72.2442 1547.77
vn -0.160444 -0.295531 -0.941764
v -1.43428 -72.7015 1547.91
vn -0.0457657 -0.400609 -0.915105
v -1.16455 -73.1406 1548.05
vn -0.92359 -0.379677 0.0531628
v -2.36565 -79.5722 1552.83
vn -0.864152 -0.493746 -0.0972371
v -2.13258 -80.0639 1552.74
vn -0.783486 -0.620903 -0.0251018
v -1.93126 -80.383 1553.01
vn -0.86841 -0.457643 0.190856
v -1.98625 -80.2208 1553.39
vn -0.19559 0.249306 -0.948468
v -1.47577 -71.2418 1547.84
vn -0.0574933 0.218883 -0.974056
v -1.07052 -71.244 1547.78
vn -0.056648 0.0226783 -0.998137
v -1.07655 -71.7561 1547.74
vn -0.894482 -0.332945 0.298413
v -2.22032 -79.5343 1553.59
vn -0.257327 0.659361 -0.706418
v -1.31108 -70.6922 1548.08
vn -0.27061 0.843819 -0.4634
v -1.24479 -70.4908 1548.31
vn -0.1468 0.752599 -0.641907
v -1.01374 -70.5495 1548.14
vn -0.120871 0.501019 -0.856954
v -0.884568 -70.7484 1547.95
vn -0.112037 0.910376 -0.398326
v -0.938766 -70.4297 1548.31
vn -0.906974 -0.240941 0.345464
v -2.40846 -78.7691 1553.73
vn -0.864924 -0.135079 0.483383
v -2.3454 -78.45 1554.01
vn -0.837799 -0.258959 0.48066
v -2.11917 -79.1758 1554.09
vn -0.293828 0.954254 -0.0553527
v -1.53958 -70.4361 1548.86
vn -0.194955 0.963388 -0.184052
v -1.19226 -70.3802 1548.62
vn -0.895469 -0.0104698 0.445
v -2.60024 -77.2639 1553.69
vn -0.803186 -0.00427546 0.595712
v -2.30084 -77.5505 1554.21
vn -0.162009 0.904752 0.393926
v -1.53572 -70.6238 1550.01
vn -0.210792 0.810284 0.546815
v -1.84378 -71.041 1550.56
vn -0.731726 0.26084 0.629714
v -2.51702 -74.8658 1553.39
vn -0.794464 0.122617 0.594805
v -2.41827 -75.919 1553.83
vn -0.62164 0.246874 0.743382
v -1.97771 -75.7201 1554.25
vn -0.105695 0.771529 0.627352
v -1.55771 -71.4871 1551.2
vn -0.305578 0.641797 0.703363
v -2.18813 -72.184 1551.83
vn -0.125024 0.706598 0.696483
v -1.95448 -71.9519 1551.68
vn -0.626069 0.407145 0.665034
v -2.37572 -74.254 1553.22
vn -0.360678 0.546495 0.755814
v -1.8891 -73.953 1553.39
vn -0.484859 0.406925 0.77416
v -1.96885 -74.5915 1553.77
vn -0.187016 -0.530604 -0.826731
v -1.49678 -79.3199 1551.49
vn -0.382621 -0.773908 -0.504646
v -1.58852 -80.4682 1552.46
vn -0.240444 -0.659849 -0.711889
v -1.43912 -80.3065 1552.2
vn -0.57778 -0.791254 -0.200218
v -1.57975 -80.7185 1552.97
vn -0.288656 -0.878698 -0.38022
v -1.26162 -80.8401 1552.87
vn -0.744817 -0.651812 0.142787
v -1.73839 -80.5871 1553.45
vn -0.453809 -0.890163 -0.0408331
v -1.34073 -80.9372 1553.4
vn -0.569401 -0.740749 0.356473
v -1.343 -80.8267 1553.95
vn -0.769854 -0.449646 0.452927
v -1.57808 -80.3776 1554.21
vn -0.564765 -0.370679 0.737318
v -1.42814 -80.1382 1554.55
vn 0.04708 0.384259 -0.922024
v -0.573092 -70.8086 1547.9
vn 0.015609 0.699784 -0.714184
v -0.395442 -70.5251 1548.09
vn 0.115485 0.928075 -0.354033
v -0.134492 -70.3448 1548.37
vn -0.700926 -0.261444 0.663588
v -1.71466 -79.5145 1554.54
vn -0.065425 0.990533 0.120678
v -0.791499 -70.3053 1549.26
vn -0.0323216 0.992365 -0.119025
v -0.386856 -70.2878 1548.67
vn -0.555932 0.00458303 0.831215
v -1.72953 -78.0483 1554.84
vn -0.741892 -0.139883 0.655767
v -1.821 -78.6456 1554.69
vn -0.517324 -0.148272 0.842847
v -1.55245 -78.7968 1554.88
vn -0.260158 -0.137488 0.955727
v -1.36286 -78.8317 1554.96
vn -0.24359 -0.0214935 0.96964
v -1.35738 -78.2276 1555.01
vn 0.0692196 0.935586 0.346247
v -0.458121 -70.4118 1549.67
vn 0.0055945 0.824702 0.56554
v -0.517093 -70.8812 1550.54
vn -0.35167 0.314752 0.881623
v -1.63142 -76.0106 1554.56
vn -0.0292825 0.386819 0.921691
v -1.21903 -75.8309 1554.55
vn -0.649478 0.126604 0.749766
v -1.87573 -77.034 1554.65
vn -0.401923 0.16245 0.901148
v -1.59715 -76.9544 1554.82
vn -0.146063 0.267991 0.952285
v -1.38338 -76.6213 1554.8
vn -0.177249 0.130573 0.975466
v -1.31798 -77.1597 1554.94
vn 0.0322226 0.732133 0.680399
v -0.593406 -71.666 1551.47
vn -0.0879462 0.611849 0.78607
v -1.48598 -73.8671 1553.42
vn -0.188015 0.490804 0.850742
v -1.67577 -74.528 1553.84
vn -0.000380322 0.509516 0.860461
v -1.36786 -74.4566 1553.83
vn -0.0375197 -0.602686 -0.797096
v -0.220858 -79.8883 1551.66
vn -0.0525473 -0.477804 -0.876893
v -0.109596 -79.045 1551.13
vn -0.16348 -0.800753 -0.576254
v -0.898865 -80.729 1552.55
vn -0.0374116 -0.746049 -0.664839
v -0.53891 -80.5366 1552.25
vn -0.067865 -0.886846 -0.457054
v -0.63427 -80.897 1552.76
vn 0.130876 -0.837443 -0.530623
v -0.203119 -80.8128 1552.62
vn -0.180771 -0.95038 -0.25318
v -0.91415 -81.0348 1553.19
vn -0.148727 -0.987377 -0.0544686
v -0.860502 -81.0874 1553.46
vn 0.00640299 -0.981863 -0.189484
v -0.514352 -81.073 1553.22
vn 0.0805134 -0.930478 -0.357391
v -0.267089 -80.9909 1552.97
vn 0.0618575 -0.29223 -0.954345
v 0.299443 -72.6166 1547.87
vn 0.150663 -0.0886856 -0.984599
v 0.622901 -72.2016 1547.82
vn 0.267639 -0.333445 -0.903982
v 0.695155 -72.6339 1547.93
vn 0.0913346 -0.422458 -0.901769
v 0.236047 -73.2806 1548.15
vn -0.252273 -0.938292 0.236572
v -1.016 -81.0441 1553.79
vn 0.0573697 -0.9857 0.158444
v -0.507756 -81.0931 1553.77
vn 0.0822251 -0.840369 0.535742
v -0.58519 -80.9183 1554.25
vn 0.104712 0.127953 -0.986237
v 0.340329 -71.5562 1547.79
vn 0.222373 0.329136 -0.917725
v 0.431558 -71.1239 1547.91
vn 0.404944 0.413337 -0.815581
v 0.817267 -71.206 1548.02
vn -0.482876 -0.549935 0.681471
v -1.22286 -80.506 1554.48
vn -0.223965 -0.397889 0.889676
v -1.04747 -80.2375 1554.69
vn 0.0409601 -0.41747 0.907767
v -0.744035 -80.3273 1554.68
vn -0.184865 -0.694701 0.695137
v -0.907731 -80.8018 1554.38
vn 0.205125 0.72361 -0.659024
v 0.098659 -70.5286 1548.17
vn 0.27158 0.541632 -0.795537
v 0.213858 -70.7071 1548.06
vn 0.370571 0.773732 -0.513824
v 0.376413 -70.5153 1548.32
vn -0.338288 -0.251838 0.906719
v -1.2568 -79.7906 1554.79
vn 0.0324457 -0.24684 0.968513
v -0.757705 -79.8669 1554.83
vn 0.135 0.990845 0.000860889
v 0.005298 -70.3113 1548.75
vn 0.185663 0.96759 0.171168
v 0.238087 -70.3962 1549.16
vn 0.357615 0.929879 -0.0862363
v 0.504128 -70.4226 1548.78
vn 0.395363 0.903962 0.162914
v 0.626592 -70.5178 1549.24
vn 0.250053 0.917284 0.309942
v 0.430344 -70.5659 1549.64
vn 0.0100184 -0.124933 0.992115
v -0.865989 -78.9374 1555
vn 0.0429129 0.032351 0.998555
v -0.856421 -78.2814 1555.04
vn 0.219571 0.863307 0.454411
v 0.176432 -70.6825 1550.07
vn 0.180249 0.786069 0.591275
v 0.277761 -71.0419 1550.62
vn 0.026479 0.217559 0.975688
v -0.898172 -76.8768 1554.89
vn 0.0451123 0.667018 0.743675
v -0.363397 -72.6212 1552.37
vn 0.126355 -0.46455 -0.876486
v 0.632605 -78.7645 1550.99
vn 0.151012 -0.570169 -0.807529
v 0.566456 -79.3088 1551.3
vn 0.213752 -0.716916 -0.663583
v 0.209421 -80.2872 1552.06
vn 0.456737 -0.71843 -0.524643
v 0.605672 -80.1664 1552.13
vn 0.249292 -0.890052 -0.381655
v -0.044046 -80.906 1552.86
vn 0.390514 -0.814318 -0.429401
v 0.292431 -80.6982 1552.71
vn 0.571178 -0.810449 -0.13011
v 0.514789 -80.7553 1553.18
vn 0.20433 -0.958162 -0.200438
v -0.102871 -81.0296 1553.19
vn 0.186835 -0.982327 -0.0112602
v -0.144028 -81.0679 1553.43
vn 0.3666 -0.897994 -0.243334
v 0.107597 -80.9615 1553.16
vn 0.415824 -0.909423 0.00630955
v 0.167652 -80.9695 1553.4
vn 0.520686 -0.273363 -0.808801
v 1.26755 -72.5522 1548.16
vn 0.280292 -0.859608 0.427213
v -0.134291 -80.962 1553.98
vn 0.37488 -0.899044 0.22624
v 0.002544 -80.9896 1553.77
vn 0.346645 -0.680738 0.645316
v -0.068005 -80.7607 1554.22
vn 0.503294 -0.705678 0.498712
v 0.167951 -80.787 1554.02
vn 0.320239 0.157044 -0.934229
v 0.926485 -71.6854 1547.9
vn 0.562191 0.229543 -0.794513
v 1.20707 -71.6458 1548.05
vn 0.448442 -0.0756869 -0.890602
v 1.10821 -72.0467 1547.96
vn 0.696798 -0.0481565 -0.715649
v 1.55908 -72.1157 1548.3
vn 0.74057 0.292877 -0.604797
v 1.55941 -71.6946 1548.36
vn 0.20254 -0.551105 0.809482
v -0.410826 -80.6478 1554.46
vn 0.24905 -0.331357 0.910042
v -0.231145 -80.0729 1554.68
vn 0.417612 -0.48233 0.770038
v 0.114381 -80.4209 1554.39
vn 0.55324 0.762022 -0.336523
v 0.846216 -70.6792 1548.52
vn 0.550382 0.545991 -0.631644
v 1.07675 -71.0193 1548.31
vn 0.621983 0.779492 -0.074352
v 1.35953 -70.9312 1549.05
vn 0.731529 0.575121 -0.366198
v 1.51809 -71.2322 1548.67
vn 0.233097 -0.189206 0.953869
v -0.031477 -79.5051 1554.78
vn 0.424693 -0.299293 0.854435
v 0.292864 -79.601 1554.65
vn 0.415107 0.835724 0.359517
v 0.748534 -70.704 1549.69
vn 0.608943 0.769637 0.191956
v 1.35865 -70.95 1549.31
vn 0.377629 0.766806 0.519042
v 0.773835 -71.2441 1550.65
vn 0.237034 0.688743 0.685162
v 0.603898 -71.9299 1551.55
vn 0.364875 0.583696 0.725373
v 0.694876 -73.7793 1553.14
vn 0.194658 0.425541 0.883755
v 0.326504 -75.7866 1554.41
vn 0.132206 0.301398 0.944288
v 0.059123 -76.4107 1554.7
vn 0.217075 0.138721 0.966248
v 0.215685 -77.1959 1554.86
vn 0.13344 0.575044 0.807167
v 0.144198 -73.8953 1553.38
vn 0.431419 -0.58666 -0.685352
v 0.954501 -79.2519 1551.41
vn 0.79991 -0.354289 -0.484379
v 1.73763 -78.0177 1551.37
vn 0.529048 -0.422269 -0.736068
v 1.125 -78.6338 1551.09
vn 0.704531 -0.503024 -0.500603
v 1.33218 -79.0366 1551.61
vn 0.849448 -0.421801 -0.317053
v 1.55378 -78.9522 1551.93
vn 0.635351 -0.63668 -0.436997
v 1.01223 -79.8678 1552.17
vn 0.801686 -0.552765 -0.227488
v 1.35108 -79.5864 1552.39
vn 0.636303 -0.71699 -0.284682
v 0.66939 -80.5473 1552.9
vn 0.679948 -0.264671 -0.683827
v 1.76947 -72.9576 1548.73
vn 0.89995 -0.4264 0.0909596
v 1.42796 -79.5272 1552.99
vn 0.795485 -0.604525 0.0418716
v 0.850719 -80.4323 1553.34
vn 0.668499 -0.697476 0.25814
v 0.654254 -80.6079 1553.57
vn 0.845973 0.111667 -0.521401
v 1.84884 -72.0039 1548.67
vn 0.928264 0.147905 -0.341247
v 2.04138 -72.1132 1549.04
vn 0.831019 -0.103583 -0.546515
v 1.98979 -72.8272 1548.95
vn 0.786063 -0.268673 -0.556705
v 2.07459 -73.3596 1549.26
vn 0.668895 -0.305867 0.677514
v 0.816977 -79.7694 1554.23
vn 0.833612 -0.403984 0.376679
v 1.15803 -79.6388 1553.8
vn 0.630531 -0.484844 0.6061
v 0.558028 -80.2632 1554.19
vn 0.864236 0.378239 -0.331709
v 1.8254 -71.6028 1548.87
vn 0.799679 0.598444 -0.0487733
v 1.75475 -71.3604 1549.18
vn 0.906466 0.416719 -0.0683014
v 2.04207 -71.8271 1549.46
vn 0.903302 0.404887 0.141817
v 2.12561 -72.0285 1549.88
vn 0.693035 -0.109488 0.712541
v 1.06043 -78.3746 1554.46
vn 0.824489 -0.212583 0.52443
v 1.2387 -78.7599 1554.15
vn 0.468683 -0.175762 0.865704
v 0.648079 -78.7639 1554.7
vn 0.57606 0.698804 0.424061
v 1.54002 -71.5128 1550.28
vn 0.76257 0.605381 0.228038
v 1.88769 -71.6822 1549.96
vn 0.767481 0.499295 0.402092
v 2.03191 -72.2649 1550.55
vn 0.674825 0.498042 0.544579
v 1.89572 -72.88 1551.39
vn 0.663843 0.202361 0.719974
v 1.09567 -76.4153 1554.23
vn 0.797494 0.0811289 0.597848
v 1.34233 -77.1821 1554.1
vn 0.503305 0.154452 0.850193
v 0.765435 -77.0751 1554.63
vn 0.701358 0.0694844 0.709414
v 1.10457 -77.285 1554.39
vn 0.239953 -0.0573919 0.969087
v 0.391273 -78.2147 1554.87
vn 0.492702 0.0188718 0.869994
v 0.725608 -77.859 1554.75
vn 0.510624 0.623319 0.592231
v 1.1802 -71.8933 1551.15
vn 0.557907 0.511456 0.653569
v 1.33573 -73.4174 1552.4
vn 0.406431 0.471175 0.78282
v 0.81912 -74.4 1553.51
vn 0.661897 0.34321 0.666408
v 1.25108 -74.8803 1553.46
vn 0.489994 0.343756 0.801085
v 0.863659 -75.8836 1554.23
vn 0.379252 0.267612 0.885749
v 0.594588 -76.3582 1554.55
vn 0.893908 -0.248569 -0.373017
v 2.14001 -75.7084 1550.67
vn 0.945859 -0.272854 -0.175787
v 1.93302 -77.9017 1551.82
vn 0.916756 -0.38445 -0.108426
v 1.61773 -79.0929 1552.43
vn 0.960699 -0.261611 0.0928298
v 1.7749 -78.6361 1552.74
vn 0.939401 -0.0446422 -0.339902
v 2.33481 -73.2145 1549.68
vn 0.954057 -0.14358 -0.262984
v 2.38849 -73.6153 1549.99
vn 0.98587 -0.144258 -0.0851406
v 2.32648 -75.7318 1551.35
vn 0.980775 -0.156478 0.1166
v 1.99908 -77.6818 1552.55
vn 0.951402 -0.0508482 0.303723
v 1.96231 -77.4402 1552.87
vn 0.928295 -0.143333 0.34311
v 1.66185 -78.3116 1553.49
vn 0.917339 -0.271707 0.290972
v 1.58375 -78.9302 1553.32
vn 0.975154 0.201607 -0.0918118
v 2.29826 -72.5734 1549.69
vn 0.996872 0.0640203 -0.0463498
v 2.4395 -73.3759 1550.32
vn 0.952493 0.236442 0.191971
v 2.37836 -73.2136 1550.7
vn 0.999189 -0.000599359 0.0402607
v 2.44443 -73.9354 1550.75
vn 0.955898 0.131883 0.262423
v 2.38365 -74.0729 1551.23
vn 0.903017 0.171311 0.393972
v 2.1874 -74.6866 1552.05
vn 0.895749 0.0981989 0.433578
v 2.07838 -75.2432 1552.47
vn 0.97638 0.00278077 0.21604
v 2.32744 -75.1507 1551.8
vn 0.886328 0.0240844 0.462431
v 1.6797 -77.2516 1553.57
vn 0.827301 -0.0455768 0.559906
v 1.35879 -78.1828 1554.11
vn 0.851817 0.313352 0.419783
v 2.20379 -73.2082 1551.18
vn 0.716253 0.394257 0.575799
v 1.8218 -73.617 1552.07
vn 0.812878 0.249296 0.526385
v 1.94635 -74.5997 1552.46
vn 0.801473 0.168973 0.573663
v 1.45494 -76.2053 1553.74
f 9//9 10//10 8//8
f 8//8 10//10 1//1
f 2//2 48//48 3//3
f 2//2 8//8 1//1
f 45//45 48//48 2//2
f 1//1 45//45 2//2
f 4//4 3//3 48//48
f 5//5 3//3 4//4
f 48//48 37//37 4//4
f 5//5 39//39 15//15
f 15//15 39//39 49//49
f 49//49 17//17 15//15
f 7//7 19//19 18//18
f 6//6 9//9 8//8
f 9//9 6//6 55//55
f 7//7 55//55 6//6
f 7//7 18//18 55//55
f 10//10 9//9 54//54
f 55//55 54//54 9//9
f 11//11 2//2 13//13
f 11//11 21//21 12//12
f 11//11 13//13 21//21
f 21//21 19//19 12//12
f 13//13 2//2 3//3
f 11//11 8//8 2//2
f 8//8 11//11 6//6
f 11//11 12//12 6//6
f 6//6 12//12 7//7
f 21//21 14//14 23//23
f 5//5 14//14 13//13
f 13//13 14//14 21//21
f 5//5 13//13 3//3
f 16//16 28//28 26//26
f 5//5 15//15 14//14
f 14//14 15//15 16//16
f 14//14 16//16 26//26
f 16//16 17//17 28//28
f 17//17 16//16 15//15
f 57//57 17//17 50//50
f 18//18 20//20 61//61
f 61//61 20//20 30//30
f 19//19 21//21 22//22
f 12//12 19//19 7//7
f 19//19 22//22 20//20
f 20//20 22//22 32//32
f 32//32 30//30 20//20
f 18//18 19//19 20//20
f 24//24 21//21 23//23
f 21//21 24//24 22//22
f 31//31 22//22 24//24
f 32//32 22//22 31//31
f 14//14 26//26 23//23
f 23//23 26//26 25//25
f 23//23 25//25 24//24
f 24//24 25//25 31//31
f 28//28 27//27 26//26
f 27//27 25//25 26//26
f 36//36 25//25 27//27
f 28//28 29//29 27//27
f 28//28 57//57 29//29
f 27//27 29//29 36//36
f 57//57 70//70 29//29
f 17//17 57//57 28//28
f 33//33 30//30 32//32
f 30//30 33//33 64//64
f 64//64 65//65 30//30
f 32//32 31//31 33//33
f 31//31 35//35 33//33
f 33//33 35//35 64//64
f 67//67 64//64 35//35
f 35//35 31//31 34//34
f 25//25 34//34 31//31
f 35//35 34//34 68//68
f 71//71 35//35 68//68
f 25//25 36//36 34//34
f 34//34 36//36 68//68
f 36//36 29//29 69//69
f 46//46 38//38 37//37
f 81//81 38//38 46//46
f 38//38 74//74 37//37
f 40//40 5//5 4//4
f 4//4 37//37 40//40
f 39//39 5//5 40//40
f 49//49 39//39 41//41
f 76//76 75//75 40//40
f 40//40 75//75 39//39
f 75//75 41//41 39//39
f 45//45 1//1 42//42
f 56//56 42//42 10//10
f 42//42 1//1 10//10
f 45//45 42//42 47//47
f 44//44 47//47 42//42
f 43//43 42//42 56//56
f 44//44 42//42 43//43
f 43//43 56//56 87//87
f 43//43 87//87 89//89
f 89//89 44//44 43//43
f 45//45 46//46 48//48
f 46//46 37//37 48//48
f 45//45 47//47 46//46
f 46//46 47//47 81//81
f 17//17 49//49 50//50
f 41//41 51//51 49//49
f 49//49 51//51 50//50
f 51//51 58//58 50//50
f 96//96 58//58 51//51
f 54//54 52//52 53//53
f 54//54 53//53 56//56
f 87//87 56//56 53//53
f 52//52 91//91 53//53
f 56//56 10//10 54//54
f 55//55 52//52 54//54
f 57//57 101//101 70//70
f 50//50 58//58 57//57
f 52//52 55//55 59//59
f 60//60 18//18 61//61
f 61//61 30//30 65//65
f 18//18 60//60 55//55
f 55//55 60//60 59//59
f 99//99 60//60 63//63
f 99//99 59//59 60//60
f 63//63 60//60 61//61
f 70//70 101//101 106//106
f 62//62 61//61 65//65
f 63//63 61//61 62//62
f 67//67 66//66 64//64
f 62//62 65//65 66//66
f 66//66 65//65 64//64
f 104//104 66//66 72//72
f 67//67 35//35 71//71
f 67//67 72//72 66//66
f 68//68 36//36 69//69
f 68//68 69//69 111//111
f 71//71 68//68 73//73
f 73//73 68//68 111//111
f 105//105 69//69 70//70
f 69//69 105//105 111//111
f 29//29 70//70 69//69
f 70//70 106//106 105//105
f 67//67 71//71 72//72
f 72//72 71//71 109//109
f 72//72 109//109 110//110
f 109//109 71//71 73//73
f 109//109 73//73 112//112
f 73//73 111//111 112//112
f 109//109 112//112 144//144
f 76//76 40//40 74//74
f 74//74 114//114 76//76
f 75//75 77//77 41//41
f 79//79 75//75 76//76
f 79//79 77//77 75//75
f 116//116 79//79 76//76
f 116//116 76//76 114//114
f 77//77 78//78 84//84
f 77//77 79//79 78//78
f 78//78 79//79 115//115
f 115//115 79//79 116//116
f 80//80 82//82 81//81
f 82//82 38//38 81//81
f 38//38 82//82 74//74
f 37//37 74//74 40//40
f 41//41 83//83 51//51
f 77//77 84//84 41//41
f 84//84 83//83 41//41
f 84//84 86//86 83//83
f 83//83 86//86 90//90
f 78//78 85//85 84//84
f 85//85 78//78 117//117
f 86//86 84//84 85//85
f 89//89 87//87 88//88
f 89//89 164//164 158//158
f 164//164 89//89 88//88
f 164//164 88//88 124//124
f 81//81 47//47 80//80
f 47//47 44//44 80//80
f 80//80 44//44 89//89
f 83//83 90//90 51//51
f 90//90 96//96 51//51
f 122//122 98//98 90//90
f 88//88 87//87 94//94
f 94//94 87//87 53//53
f 52//52 59//59 92//92
f 91//91 52//52 92//92
f 88//88 94//94 124//124
f 94//94 53//53 91//91
f 93//93 94//94 91//91
f 93//93 92//92 95//95
f 91//91 92//92 93//93
f 124//124 94//94 125//125
f 125//125 94//94 93//93
f 125//125 93//93 95//95
f 58//58 101//101 57//57
f 97//97 101//101 58//58
f 90//90 98//98 96//96
f 98//98 97//97 96//96
f 58//58 96//96 97//97
f 101//101 97//97 102//102
f 97//97 98//98 131//131
f 131//131 98//98 127//127
f 92//92 59//59 100//100
f 59//59 99//99 100//100
f 95//95 92//92 100//100
f 106//106 101//101 102//102
f 97//97 131//131 102//102
f 130//130 139//139 102//102
f 131//131 130//130 102//102
f 103//103 63//63 62//62
f 128//128 63//63 103//103
f 62//62 66//66 104//104
f 62//62 104//104 103//103
f 103//103 104//104 136//136
f 104//104 108//108 136//136
f 104//104 72//72 108//108
f 106//106 139//139 107//107
f 137//137 107//107 139//139
f 139//139 106//106 102//102
f 108//108 72//72 110//110
f 110//110 144//144 186//186
f 108//108 110//110 143//143
f 143//143 110//110 186//186
f 110//110 109//109 144//144
f 111//111 105//105 113//113
f 105//105 106//106 107//107
f 111//111 113//113 112//112
f 107//107 113//113 105//105
f 113//113 107//107 137//137
f 112//112 113//113 145//145
f 113//113 137//137 145//145
f 148//148 114//114 74//74
f 114//114 147//147 116//116
f 115//115 117//117 78//78
f 149//149 115//115 116//116
f 118//118 115//115 149//149
f 118//118 117//117 115//115
f 116//116 150//150 149//149
f 150//150 116//116 147//147
f 117//117 118//118 120//120
f 120//120 118//118 153//153
f 80//80 157//157 82//82
f 157//157 160//160 82//82
f 82//82 160//160 187//187
f 187//187 74//74 82//82
f 86//86 85//85 119//119
f 85//85 117//117 119//119
f 119//119 117//117 120//120
f 121//121 122//122 119//119
f 120//120 121//121 119//119
f 121//121 120//120 161//161
f 89//89 158//158 80//80
f 90//90 86//86 122//122
f 119//119 122//122 86//86
f 122//122 127//127 98//98
f 122//122 123//123 127//127
f 127//127 123//123 174//174
f 121//121 167//167 122//122
f 167//167 123//123 122//122
f 172//172 124//124 125//125
f 164//164 124//124 165//165
f 171//171 172//172 125//125
f 172//172 165//165 124//124
f 171//171 125//125 126//126
f 126//126 125//125 95//95
f 127//127 132//132 131//131
f 133//133 132//132 174//174
f 132//132 127//127 174//174
f 99//99 128//128 100//100
f 63//63 128//128 99//99
f 100//100 128//128 129//129
f 100//100 129//129 95//95
f 176//176 129//129 128//128
f 129//129 126//126 95//95
f 176//176 126//126 129//129
f 177//177 176//176 128//128
f 130//130 132//132 134//134
f 132//132 130//130 131//131
f 132//132 133//133 134//134
f 135//135 128//128 103//103
f 103//103 136//136 135//135
f 136//136 183//183 135//135
f 136//136 108//108 143//143
f 141//141 137//137 140//140
f 137//137 139//139 140//140
f 138//138 137//137 141//141
f 139//139 130//130 140//140
f 142//142 140//140 130//130
f 141//141 140//140 142//142
f 134//134 142//142 130//130
f 182//182 142//142 134//134
f 144//144 112//112 145//145
f 144//144 145//145 146//146
f 146//146 145//145 138//138
f 225//225 144//144 146//146
f 145//145 137//137 138//138
f 188//188 147//147 148//148
f 74//74 187//187 148//148
f 114//114 148//148 147//147
f 150//150 147//147 189//189
f 150//150 151//151 149//149
f 189//189 152//152 150//150
f 152//152 151//151 150//150
f 149//149 151//151 118//118
f 118//118 151//151 153//153
f 153//153 154//154 120//120
f 154//154 161//161 120//120
f 161//161 154//154 162//162
f 155//155 153//153 151//151
f 153//153 155//155 154//154
f 156//156 155//155 151//151
f 154//154 155//155 162//162
f 151//151 152//152 156//156
f 155//155 195//195 162//162
f 155//155 156//156 194//194
f 194//194 195//195 155//155
f 157//157 80//80 158//158
f 159//159 160//160 157//157
f 159//159 157//157 158//158
f 158//158 205//205 159//159
f 160//160 159//159 187//187
f 199//199 163//163 162//162
f 170//170 121//121 161//161
f 161//161 162//162 163//163
f 161//161 163//163 170//170
f 166//166 165//165 172//172
f 164//164 203//203 158//158
f 164//164 165//165 203//203
f 203//203 165//165 166//166
f 170//170 167//167 121//121
f 168//168 123//123 167//167
f 170//170 168//168 167//167
f 169//169 168//168 170//170
f 170//170 163//163 208//208
f 208//208 169//169 170//170
f 173//173 172//172 171//171
f 173//173 171//171 126//126
f 212//212 166//166 172//172
f 212//212 172//172 173//173
f 126//126 178//178 173//173
f 212//212 173//173 211//211
f 173//173 178//178 211//211
f 168//168 174//174 123//123
f 168//168 169//169 175//175
f 168//168 175//175 174//174
f 181//181 133//133 174//174
f 174//174 175//175 181//181
f 177//177 178//178 176//176
f 126//126 176//176 178//178
f 128//128 135//135 177//177
f 135//135 180//180 177//177
f 180//180 179//179 177//177
f 177//177 179//179 178//178
f 213//213 178//178 179//179
f 180//180 217//217 179//179
f 183//183 180//180 135//135
f 217//217 180//180 183//183
f 181//181 260//260 182//182
f 181//181 134//134 133//133
f 181//181 182//182 134//134
f 217//217 183//183 219//219
f 252//252 217//217 219//219
f 184//184 183//183 136//136
f 143//143 184//184 136//136
f 184//184 219//219 183//183
f 220//220 184//184 143//143
f 185//185 141//141 142//142
f 182//182 185//185 142//142
f 138//138 141//141 185//185
f 143//143 186//186 220//220
f 225//225 220//220 186//186
f 186//186 144//144 225//225
f 138//138 222//222 146//146
f 148//148 187//187 188//188
f 187//187 226//226 188//188
f 189//189 147//147 188//188
f 188//188 226//226 189//189
f 189//189 192//192 152//152
f 192//192 189//189 190//190
f 190//190 189//189 226//226
f 233//233 192//192 190//190
f 152//152 191//191 156//156
f 192//192 191//191 152//152
f 191//191 196//196 194//194
f 192//192 196//196 191//191
f 233//233 193//193 192//192
f 156//156 191//191 194//194
f 197//197 194//194 196//196
f 195//195 194//194 197//197
f 193//193 197//197 196//196
f 195//195 197//197 200//200
f 193//193 196//196 192//192
f 197//197 237//237 200//200
f 197//197 193//193 237//237
f 198//198 159//159 205//205
f 228//228 187//187 159//159
f 198//198 228//228 159//159
f 199//199 201//201 163//163
f 208//208 163//163 201//201
f 210//210 208//208 201//201
f 195//195 200//200 162//162
f 162//162 200//200 199//199
f 201//201 199//199 202//202
f 200//200 237//237 202//202
f 200//200 202//202 199//199
f 201//201 202//202 210//210
f 202//202 237//237 244//244
f 244//244 210//210 202//202
f 203//203 166//166 204//204
f 166//166 212//212 204//204
f 206//206 204//204 207//207
f 207//207 204//204 212//212
f 158//158 203//203 205//205
f 203//203 204//204 205//205
f 205//205 204//204 206//206
f 206//206 198//198 205//205
f 207//207 238//238 206//206
f 209//209 175//175 169//169
f 209//209 215//215 175//175
f 208//208 209//209 169//169
f 216//216 215//215 209//209
f 210//210 209//209 208//208
f 210//210 216//216 209//209
f 244//244 216//216 210//210
f 178//178 213//213 211//211
f 212//212 211//211 214//214
f 211//211 213//213 214//214
f 214//214 213//213 246//246
f 214//214 245//245 207//207
f 212//212 214//214 207//207
f 215//215 181//181 175//175
f 218//218 213//213 179//179
f 179//179 217//217 218//218
f 218//218 217//217 252//252
f 218//218 252//252 253//253
f 260//260 261//261 224//224
f 260//260 181//181 215//215
f 262//262 219//219 220//220
f 262//262 252//252 219//219
f 220//220 219//219 184//184
f 221//221 262//262 220//220
f 220//220 225//225 221//221
f 221//221 225//225 264//264
f 225//225 222//222 264//264
f 264//264 222//222 266//266
f 224//224 223//223 185//185
f 223//223 138//138 185//185
f 138//138 223//223 222//222
f 260//260 224//224 182//182
f 185//185 182//182 224//224
f 225//225 146//146 222//222
f 226//226 187//187 228//228
f 227//227 228//228 241//241
f 227//227 229//229 228//228
f 229//229 227//227 230//230
f 226//226 228//228 229//229
f 231//231 226//226 229//229
f 229//229 232//232 231//231
f 230//230 232//232 229//229
f 270//270 232//232 230//230
f 231//231 233//233 190//190
f 231//231 232//232 233//233
f 226//226 231//231 190//190
f 232//232 235//235 236//236
f 235//235 232//232 270//270
f 232//232 236//236 233//233
f 193//193 233//233 236//236
f 236//236 237//237 193//193
f 198//198 206//206 234//234
f 198//198 234//234 228//228
f 268//268 227//227 241//241
f 243//243 244//244 237//237
f 243//243 236//236 235//235
f 243//243 237//237 236//236
f 207//207 245//245 238//238
f 245//245 239//239 238//238
f 245//245 247//247 239//239
f 234//234 206//206 240//240
f 234//234 241//241 228//228
f 240//240 206//206 238//238
f 241//241 234//234 240//240
f 240//240 238//238 239//239
f 241//241 240//240 272//272
f 272//272 240//240 239//239
f 250//250 242//242 243//243
f 235//235 278//278 243//243
f 216//216 244//244 242//242
f 243//243 242//242 244//244
f 246//246 245//245 214//214
f 246//246 213//213 218//218
f 246//246 247//247 245//245
f 253//253 246//246 218//218
f 239//239 247//247 279//279
f 247//247 246//246 253//253
f 279//279 247//247 248//248
f 247//247 253//253 248//248
f 248//248 254//254 281//281
f 251//251 260//260 215//215
f 242//242 251//251 216//216
f 249//249 251//251 242//242
f 249//249 261//261 251//251
f 249//249 250//250 288//288
f 250//250 249//249 242//242
f 251//251 215//215 216//216
f 252//252 254//254 253//253
f 248//248 253//253 254//254
f 252//252 262//262 254//254
f 255//255 254//254 262//262
f 254//254 255//255 289//289
f 255//255 263//263 290//290
f 256//256 292//292 265//265
f 257//257 292//292 256//256
f 256//256 259//259 257//257
f 258//258 259//259 256//256
f 224//224 261//261 258//258
f 261//261 259//259 258//258
f 259//259 261//261 249//249
f 249//249 288//288 259//259
f 257//257 259//259 288//288
f 261//261 260//260 251//251
f 263//263 262//262 221//221
f 263//263 255//255 262//262
f 291//291 290//290 265//265
f 221//221 264//264 263//263
f 265//265 263//263 264//264
f 263//263 265//265 290//290
f 264//264 266//266 265//265
f 265//265 266//266 256//256
f 267//267 256//256 266//266
f 267//267 222//222 223//223
f 222//222 267//267 266//266
f 267//267 224//224 258//258
f 223//223 224//224 267//267
f 256//256 267//267 258//258
f 227//227 268//268 269//269
f 269//269 230//230 227//227
f 269//269 268//268 274//274
f 274//274 275//275 269//269
f 274//274 286//286 275//275
f 230//230 269//269 270//270
f 271//271 270//270 269//269
f 269//269 275//275 271//271
f 271//271 275//275 277//277
f 235//235 270//270 271//271
f 271//271 278//278 235//235
f 278//278 271//271 277//277
f 272//272 239//239 279//279
f 272//272 273//273 241//241
f 280//280 279//279 281//281
f 272//272 279//279 280//280
f 273//273 272//272 280//280
f 273//273 274//274 268//268
f 273//273 280//280 282//282
f 274//274 273//273 282//282
f 241//241 273//273 268//268
f 286//286 276//276 275//275
f 275//275 276//276 277//277
f 288//288 250//250 277//277
f 278//278 250//250 243//243
f 277//277 250//250 278//278
f 279//279 248//248 281//281
f 281//281 254//254 289//289
f 282//282 280//280 281//281
f 281//281 289//289 283//283
f 274//274 282//282 286//286
f 282//282 281//281 283//283
f 282//282 283//283 286//286
f 286//286 283//283 284//284
f 284//284 283//283 289//289
f 286//286 284//284 285//285
f 276//276 286//286 285//285
f 285//285 287//287 276//276
f 276//276 287//287 277//277
f 277//277 287//287 288//288
f 289//289 255//255 290//290
f 289//289 290//290 291//291
f 284//284 289//289 291//291
f 291//291 292//292 285//285
f 292//292 291//291 265//265
f 284//284 291//291 285//285
f 285//285 292//292 287//287
f 287//287 292//292 257//257
f 257//257 288//288 287//287
