# Wavafront OBJ file of BodyParts3D
# BodyParts3D, Copyright(C) 2010-2011 The Database Center for Life Science licensed under CC Attribution-Share Alike 2.1 Japan.
vn -0.996347 0.0758752 0.0391879
v -17.4101 -81.3931 1549.6
vn -0.601524 -0.705272 -0.375181
v -16.859 -82.3938 1549.3
vn -0.365886 -0.760941 -0.535814
v -16.5003 -82.4749 1549.04
vn -0.7299 -0.586467 0.351146
v -17.0136 -82.209 1549.94
vn -0.734117 -0.67815 -0.0344297
v -17.0196 -82.2941 1549.53
vn -0.569605 -0.80894 0.145484
v -16.5788 -82.6273 1549.86
vn -0.500777 -0.452232 0.738044
v -16.6859 -82.2214 1550.3
vn -0.489547 -0.85544 -0.169016
v -16.6369 -82.5932 1549.47
vn -0.494074 -0.766099 0.411075
v -16.538 -82.5862 1550.06
vn -0.277014 -0.640077 0.716635
v -16.3084 -82.6029 1550.22
vn -0.352344 -0.935231 0.0345951
v -16.1691 -82.8444 1549.79
vn -0.186243 -0.927503 0.324118
v -15.9579 -82.8854 1549.96
vn -0.18247 -0.912518 -0.366082
v -16.053 -82.8019 1549.37
vn -0.902206 -0.0749482 -0.424743
v -17.2806 -81.5998 1549.17
vn -0.775817 -0.484572 -0.404102
v -17.1275 -82.0064 1549.15
vn -0.808313 0.392237 -0.439068
v -17.1901 -80.8304 1549.36
vn -0.717695 -0.238642 -0.654189
v -17.0934 -81.8082 1548.97
vn -0.736153 0.100703 -0.669281
v -17.0858 -81.4083 1548.91
vn -0.482119 -0.0472837 -0.874829
v -16.9159 -81.6158 1548.77
vn -0.527351 0.308174 -0.791789
v -16.8934 -81.2163 1548.8
vn -0.505458 0.61062 -0.609635
v -16.814 -80.6181 1549.13
vn -0.462047 -0.471804 -0.750942
v -16.7305 -82.0237 1548.76
vn -0.304243 0.495683 -0.81347
v -16.6406 -80.8261 1548.87
vn -0.20496 0.217494 -0.9543
v -16.3215 -81.2402 1548.59
vn -0.16534 -0.201026 -0.965532
v -16.153 -81.8478 1548.53
vn -0.929339 -0.367248 0.0381882
v -17.3432 -81.7962 1549.59
vn -0.805509 0.286689 0.518618
v -17.2234 -80.9994 1549.98
vn -0.898182 0.439601 0.00450452
v -17.2285 -80.8001 1549.57
vn -0.793019 -0.219731 0.56819
v -17.0969 -81.8046 1550.16
vn -0.518367 0.35342 0.778711
v -16.8562 -81.0134 1550.32
vn -0.740799 0.646344 -0.182911
v -17.0941 -80.6055 1549.55
vn -0.765559 0.585738 0.266139
v -17.0767 -80.6056 1549.75
vn -0.53499 -0.0660041 0.842276
v -16.8447 -81.6141 1550.41
vn -0.614308 0.760071 0.211938
v -16.91 -80.4143 1549.72
vn -0.566591 0.61608 0.547193
v -16.8815 -80.5214 1549.92
vn -0.41308 0.617601 0.669279
v -16.6504 -80.5023 1550.09
vn -0.354924 0.0985051 0.929691
v -16.3905 -81.2317 1550.61
vn -0.246913 -0.26295 0.93268
v -15.9987 -81.8481 1550.68
vn -0.285586 0.438639 0.852078
v -15.9625 -80.8488 1550.65
vn -0.152537 0.666236 -0.729974
v -15.9787 -80.1751 1549.16
vn -0.554812 0.781772 -0.284633
v -16.7402 -80.287 1549.49
vn -0.378545 0.924608 0.0424822
v -16.3341 -80.0358 1549.63
vn -0.387327 0.815923 0.429242
v -16.2706 -80.0675 1549.82
vn -0.246247 0.800755 0.546034
v -16.041 -80.0858 1549.99
vn -0.219055 0.874223 -0.433301
v -16.1374 -80.0304 1549.39
vn -0.129351 0.991037 -0.0333649
v -16.1024 -79.9781 1549.59
vn -0.188329 0.944523 0.269088
v -16.0705 -80.0039 1549.79
vn -0.061621 -0.635122 -0.76995
v -15.9234 -82.4568 1548.84
vn -0.0712406 -0.994611 -0.0753213
v -15.7947 -82.9208 1549.73
vn -0.089723 0.448004 -0.889518
v -15.8823 -80.8575 1548.69
vn -0.181768 0.0155731 0.983218
v -15.5389 -81.2658 1550.86
vn -0.177339 0.668086 0.722642
v -15.157 -80.1926 1550.45
vn -0.0862412 0.977977 0.190064
v -15.0148 -79.9369 1550.02
vn -0.104677 0.902464 0.417853
v -14.9847 -80.0032 1550.22
vn -0.0518138 -0.991339 0.120674
v -13.6856 -82.843 1550.19
vn -0.0474748 -0.915031 -0.400581
v -13.3874 -82.7976 1549.53
vn -0.15628 -0.598516 -0.78572
v -13.4878 -82.156 1548.77
vn -0.104241 -0.0354455 -0.99392
v -13.5044 -81.3556 1548.47
vn -0.0980545 0.302107 0.948218
v -13.453 -80.7499 1551.07
vn -0.105426 0.529292 -0.841865
v -14.2239 -80.5245 1548.82
vn -0.0628541 0.988048 0.14075
v -13.9928 -79.8909 1550.05
vn -0.0675476 0.835559 -0.545233
v -13.9342 -80.0708 1549.23
vn -0.0519788 0.978727 -0.198473
v -13.8618 -79.9069 1549.62
vn -0.0754624 0.750337 0.656734
v -13.5066 -80.0688 1550.58
vn -0.0378653 -0.540632 0.840407
v -11.9393 -82.6136 1550.92
vn -0.358894 0.255031 -0.897861
v -11.348 -81.0448 1547.94
vn -0.158591 0.912157 -0.377914
v -12.3157 -79.9243 1549.16
vn -0.209331 0.716893 -0.665015
v -11.996 -80.1545 1548.7
vn -0.121783 0.992502 -0.0104106
v -11.7806 -79.7096 1549.89
vn -0.0749479 0.937739 0.339157
v -12.1152 -79.8416 1550.35
vn -0.0234473 0.43798 0.898679
v -11.4157 -80.4328 1551.04
vn -0.0748387 -0.948172 0.30882
v -10.3112 -83.2132 1549.83
vn -0.295844 -0.920276 -0.256064
v -10.3105 -83.2042 1548.61
vn -0.397788 -0.389564 -0.830665
v -10.9904 -82.2603 1547.95
vn -0.362541 0.651666 -0.666254
v -10.8395 -80.0402 1548.31
vn -0.339846 0.81797 -0.464145
v -10.2374 -79.8023 1548.21
vn -0.272239 0.831369 -0.484471
v -10.9611 -79.7932 1548.74
vn -0.239603 0.95053 -0.197695
v -9.69425 -79.3908 1548.93
vn -0.0914219 0.857081 0.507005
v -9.47474 -79.6493 1550.31
vn -0.165373 -0.905413 0.390997
v -8.974 -83.5098 1549.4
vn 0.0143874 -0.7007 0.713311
v -8.23002 -83.0159 1550.09
vn 0.106457 -0.24455 0.963775
v -9.01827 -81.5314 1551.08
vn -0.188412 0.965946 0.177337
v -9.19629 -79.2814 1549.46
vn -0.235353 -0.960877 0.146032
v -6.64763 -84.6393 1548
vn 0.114681 0.166039 0.979428
v -7.18603 -80.4058 1550.84
vn -0.270828 0.950118 -0.154688
v -6.73119 -78.5536 1548.24
vn -0.155412 0.981368 0.112981
v -6.43174 -78.4704 1548.8
vn -0.279114 -0.819058 -0.501238
v -6.57888 -84.5027 1546.97
vn 0.370898 -0.838038 -0.400159
v -5.16151 -84.4449 1546.94
vn -0.106099 -0.955594 -0.274922
v -5.86652 -84.7832 1547.67
vn 0.110917 -0.843536 0.525494
v -5.42019 -84.3222 1549.01
vn -0.296693 -0.372598 -0.879286
v -5.79378 -82.6805 1545.15
vn 0.00519618 -0.621589 -0.783326
v -5.382 -83.0973 1545.28
vn 0.157629 -0.581517 0.798118
v -5.09694 -83.6558 1549.57
vn -0.349912 -0.0413078 -0.935871
v -5.59025 -81.6887 1544.9
vn -0.368325 0.562492 -0.74023
v -5.82334 -79.876 1545.49
vn -0.315182 0.246919 -0.916347
v -5.3426 -80.6979 1544.93
vn 0.139246 0.574174 0.806806
v -5.21556 -79.3032 1550.22
vn 0.218015 -0.0630627 0.973906
v -5.03867 -80.8949 1550.45
vn 0.245427 0.180667 0.952431
v -5.00861 -80.0955 1550.44
vn -0.200209 0.861307 -0.466976
v -5.98678 -78.8667 1546.7
vn -0.0447526 0.985711 -0.162393
v -5.57175 -78.3674 1547.85
vn 0.246591 0.92434 0.291183
v -4.98141 -78.4103 1548.96
vn -0.0696953 0.87744 0.474596
v -5.91076 -78.6022 1549.52
vn 0.427432 0.508379 0.747564
v -4.4426 -79.3192 1549.99
vn 0.582937 -0.794722 0.16912
v -4.49071 -84.1271 1548.45
vn 0.408485 -0.575383 -0.708572
v -4.76043 -82.9224 1545.32
vn 0.730725 -0.543485 -0.413115
v -3.97282 -82.9522 1546.14
vn 0.785477 -0.60722 -0.119624
v -4.11953 -83.7434 1547.38
vn 0.521687 -0.64329 0.560375
v -4.5399 -83.7156 1549.27
vn 0.46215 -0.455855 0.760666
v -4.41745 -82.9237 1549.81
vn -0.038719 -0.209831 -0.976971
v -5.20874 -82.1047 1544.86
vn 0.099561 -0.405785 -0.90853
v -4.99767 -82.5132 1545.01
vn 0.33864 -0.36029 -0.869203
v -4.58455 -82.1299 1544.96
vn 0.207611 -0.161123 -0.964851
v -4.58916 -81.7206 1544.83
vn 0.504941 -0.213809 -0.836254
v -4.37112 -81.7383 1544.92
vn 0.659633 -0.366267 -0.656302
v -4.04689 -82.1507 1545.35
vn 0.87638 -0.255386 -0.408334
v -3.61242 -81.9718 1545.88
vn 0.934146 -0.332977 -0.128441
v -3.36947 -82.1736 1547.06
vn 0.992059 -0.115949 0.0487363
v -3.14292 -81.3788 1548.24
vn 0.400397 -0.201833 0.893838
v -3.92245 -81.7423 1550.06
vn 0.746579 -0.31221 0.58749
v -3.56721 -81.7576 1549.76
vn 0.867337 -0.429909 0.250808
v -3.503 -82.5633 1548.9
vn 0.932809 -0.149859 0.327734
v -3.32475 -81.3679 1549.49
vn -0.188592 0.479356 -0.857118
v -5.09125 -80.1072 1545.07
vn -0.0574381 0.752678 -0.655878
v -4.79365 -79.4716 1545.48
vn -0.0347786 0.0729914 -0.996726
v -4.76966 -80.9219 1544.77
vn 0.0554075 0.336165 -0.940172
v -4.72005 -80.323 1544.92
vn 0.281123 0.595757 -0.752359
v -4.43331 -79.7332 1545.27
vn 0.355518 0.0545287 -0.933077
v -4.35183 -80.9387 1544.84
vn 0.725648 -0.0456909 -0.686548
v -3.91682 -80.9557 1545.13
vn 0.488265 0.268305 -0.830427
v -4.1016 -80.5481 1545.03
vn 0.743827 0.385571 -0.545946
v -3.75076 -80.1607 1545.51
vn 0.915694 0.36553 -0.16701
v -3.36909 -79.7721 1546.86
vn 0.916288 0.0460973 -0.397859
v -3.43853 -80.773 1545.86
vn 0.986042 0.163674 0.0305277
v -3.15169 -80.3776 1548.25
vn 0.423489 0.0938141 0.90103
v -3.86171 -80.5436 1550.12
vn 0.800239 0.5388 0.263272
v -3.5552 -79.5575 1549.33
vn 0.74139 -0.048884 0.669291
v -3.51076 -80.9588 1549.9
vn 0.721662 0.248047 0.646279
v -3.49884 -80.3591 1549.82
vn 0.952115 0.0925504 0.291395
v -3.29828 -80.5683 1549.49
vn 0.445712 0.847019 -0.289654
v -4.1081 -78.7924 1546.99
vn 0.98461 -0.0496265 -0.167572
v -3.22803 -81.1797 1546.63
vn 0.247337 -0.950744 0.18684
v -5.86652 -84.7832 1547.67
f 1//1 14//14 26//26
f 15//15 2//2 5//5
f 15//15 5//5 26//26
f 22//22 2//2 15//15
f 8//8 2//2 3//3
f 2//2 22//22 3//3
f 8//8 5//5 2//2
f 8//8 3//3 13//13
f 48//48 13//13 3//3
f 3//3 22//22 48//48
f 26//26 5//5 4//4
f 7//7 33//33 29//29
f 4//4 7//7 29//29
f 8//8 11//11 6//6
f 5//5 8//8 6//6
f 4//4 5//5 6//6
f 6//6 9//9 4//4
f 7//7 4//4 9//9
f 13//13 11//11 8//8
f 9//9 6//6 11//11
f 10//10 7//7 9//9
f 33//33 7//7 38//38
f 38//38 7//7 10//10
f 9//9 11//11 12//12
f 12//12 10//10 9//9
f 56//56 49//49 13//13
f 13//13 49//49 11//11
f 11//11 49//49 12//12
f 12//12 49//49 55//55
f 14//14 15//15 26//26
f 14//14 1//1 16//16
f 28//28 16//16 1//1
f 17//17 22//22 15//15
f 15//15 14//14 17//17
f 18//18 19//19 17//17
f 14//14 18//18 17//17
f 14//14 16//16 18//18
f 21//21 20//20 16//16
f 31//31 16//16 28//28
f 31//31 21//21 16//16
f 21//21 31//31 41//41
f 22//22 17//17 19//19
f 20//20 19//19 18//18
f 18//18 16//16 20//20
f 20//20 24//24 19//19
f 24//24 20//20 23//23
f 20//20 21//21 23//23
f 25//25 22//22 19//19
f 25//25 19//19 24//24
f 50//50 24//24 23//23
f 48//48 22//22 25//25
f 24//24 58//58 25//25
f 58//58 24//24 50//50
f 40//40 50//50 23//23
f 4//4 29//29 26//26
f 26//26 29//29 1//1
f 29//29 27//27 1//1
f 29//29 33//33 27//27
f 33//33 30//30 27//27
f 1//1 27//27 28//28
f 31//31 28//28 32//32
f 32//32 28//28 27//27
f 33//33 37//37 30//30
f 37//37 39//39 30//30
f 31//31 32//32 34//34
f 41//41 31//31 34//34
f 32//32 27//27 35//35
f 34//34 32//32 35//35
f 35//35 30//30 36//36
f 35//35 27//27 30//30
f 36//36 30//30 39//39
f 33//33 38//38 37//37
f 37//37 38//38 51//51
f 51//51 39//39 37//37
f 59//59 39//39 51//51
f 45//45 21//21 41//41
f 40//40 23//23 21//21
f 40//40 21//21 45//45
f 40//40 45//45 62//62
f 41//41 34//34 42//42
f 34//34 35//35 43//43
f 42//42 34//34 43//43
f 35//35 36//36 43//43
f 43//43 36//36 44//44
f 36//36 39//39 44//44
f 45//45 41//41 42//42
f 42//42 43//43 47//47
f 45//45 42//42 46//46
f 42//42 47//47 46//46
f 47//47 43//43 44//44
f 46//46 47//47 53//53
f 47//47 44//44 53//53
f 57//57 56//56 48//48
f 48//48 56//56 13//13
f 55//55 65//65 12//12
f 12//12 65//65 10//10
f 56//56 55//55 49//49
f 25//25 58//58 48//48
f 40//40 60//60 50//50
f 60//60 58//58 50//50
f 65//65 51//51 38//38
f 10//10 65//65 38//38
f 59//59 52//52 39//39
f 62//62 45//45 63//63
f 45//45 46//46 63//63
f 44//44 39//39 52//52
f 44//44 52//52 54//54
f 63//63 46//46 53//53
f 54//54 53//53 44//44
f 64//64 52//52 59//59
f 63//63 53//53 61//61
f 61//61 53//53 54//54
f 52//52 64//64 54//54
f 48//48 58//58 57//57
f 66//66 60//60 68//68
f 60//60 66//66 58//58
f 59//59 51//51 65//65
f 60//60 40//40 62//62
f 68//68 60//60 62//62
f 61//61 54//54 70//70
f 70//70 54//54 64//64
f 62//62 63//63 67//67
f 67//67 63//63 69//69
f 69//69 63//63 61//61
f 67//67 68//68 62//62
f 61//61 70//70 69//69
f 59//59 71//71 64//64
f 73//73 56//56 57//57
f 74//74 73//73 57//57
f 56//56 73//73 55//55
f 73//73 72//72 55//55
f 55//55 72//72 65//65
f 72//72 81//81 65//65
f 57//57 58//58 74//74
f 66//66 74//74 58//58
f 71//71 59//59 65//65
f 66//66 68//68 75//75
f 68//68 77//77 75//75
f 77//77 68//68 67//67
f 69//69 70//70 83//83
f 67//67 69//69 78//78
f 78//78 69//69 83//83
f 79//79 64//64 71//71
f 79//79 70//70 64//64
f 79//79 83//83 70//70
f 72//72 80//80 81//81
f 82//82 85//85 71//71
f 65//65 82//82 71//71
f 76//76 75//75 77//77
f 78//78 76//76 77//77
f 77//77 67//67 78//78
f 73//73 80//80 72//72
f 80//80 91//91 81//81
f 81//81 91//91 94//94
f 82//82 65//65 81//81
f 83//83 79//79 104//104
f 83//83 86//86 78//78
f 86//86 76//76 78//78
f 88//88 90//90 84//84
f 73//73 84//84 80//80
f 88//88 84//84 73//73
f 88//88 73//73 74//74
f 82//82 81//81 94//94
f 66//66 95//95 74//74
f 96//96 66//66 75//75
f 76//76 96//96 75//75
f 98//98 71//71 85//85
f 104//104 79//79 71//71
f 104//104 71//71 98//98
f 104//104 87//87 83//83
f 86//86 83//83 87//87
f 101//101 86//86 102//102
f 102//102 86//86 87//87
f 76//76 86//86 101//101
f 87//87 104//104 103//103
f 88//88 89//89 90//90
f 106//106 144//144 89//89
f 89//89 109//109 106//106
f 80//80 84//84 91//91
f 144//144 91//91 84//84
f 106//106 91//91 144//144
f 106//106 110//110 91//91
f 88//88 74//74 92//92
f 93//93 88//88 92//92
f 89//89 88//88 93//93
f 93//93 113//113 107//107
f 113//113 93//93 92//92
f 107//107 89//89 93//93
f 82//82 94//94 111//111
f 94//94 91//91 110//110
f 94//94 110//110 111//111
f 82//82 111//111 121//121
f 92//92 74//74 95//95
f 112//112 92//92 95//95
f 112//112 95//95 127//127
f 95//95 66//66 97//97
f 97//97 66//66 96//96
f 92//92 112//112 113//113
f 97//97 127//127 95//95
f 99//99 121//121 137//137
f 121//121 99//99 82//82
f 97//97 96//96 125//125
f 126//126 125//125 96//96
f 125//125 126//126 129//129
f 99//99 85//85 82//82
f 100//100 98//98 85//85
f 100//100 85//85 99//99
f 98//98 100//100 105//105
f 137//137 100//100 99//99
f 96//96 76//76 101//101
f 126//126 96//96 101//101
f 101//101 102//102 142//142
f 102//102 87//87 103//103
f 102//102 103//103 142//142
f 142//142 103//103 138//138
f 103//103 104//104 98//98
f 103//103 98//98 105//105
f 138//138 103//103 105//105
f 107//107 113//113 114//114
f 107//107 117//117 108//108
f 107//107 108//108 89//89
f 108//108 109//109 89//89
f 108//108 117//117 118//118
f 108//108 119//119 109//109
f 119//119 108//108 118//118
f 106//106 109//109 123//123
f 123//123 110//110 106//106
f 110//110 123//123 111//111
f 114//114 113//113 112//112
f 112//112 127//127 115//115
f 114//114 115//115 116//116
f 112//112 115//115 114//114
f 130//130 115//115 127//127
f 117//117 107//107 114//114
f 117//117 114//114 116//116
f 130//130 116//116 115//115
f 116//116 131//131 117//117
f 130//130 131//131 116//116
f 119//119 118//118 143//143
f 117//117 131//131 118//118
f 118//118 131//131 135//135
f 109//109 119//119 123//123
f 120//120 123//123 119//119
f 120//120 124//124 123//123
f 119//119 143//143 120//120
f 111//111 122//122 121//121
f 139//139 121//121 122//122
f 123//123 124//124 122//122
f 111//111 123//123 122//122
f 124//124 141//141 139//139
f 122//122 124//124 139//139
f 128//128 97//97 125//125
f 127//127 97//97 128//128
f 129//129 128//128 125//125
f 129//129 126//126 142//142
f 130//130 127//127 128//128
f 128//128 129//129 132//132
f 131//131 130//130 132//132
f 128//128 132//132 130//130
f 133//133 129//129 142//142
f 131//131 132//132 133//133
f 129//129 133//133 132//132
f 134//134 133//133 142//142
f 136//136 134//134 138//138
f 131//131 133//133 135//135
f 135//135 133//133 134//134
f 135//135 134//134 143//143
f 143//143 134//134 136//136
f 120//120 136//136 141//141
f 136//136 138//138 141//141
f 120//120 143//143 136//136
f 105//105 100//100 137//137
f 121//121 139//139 137//137
f 139//139 140//140 137//137
f 140//140 105//105 137//137
f 105//105 140//140 138//138
f 141//141 140//140 139//139
f 138//138 140//140 141//141
f 124//124 120//120 141//141
f 101//101 142//142 126//126
f 134//134 142//142 138//138
f 143//143 118//118 135//135
