# Wavafront OBJ file of BodyParts3D
# BodyParts3D, Copyright(C) 2010-2011 The Database Center for Life Science licensed under CC Attribution-Share Alike 2.1 Japan.
vn -0.93135 -0.362293 -0.0364878
v -3.45979 -108.052 1553.14
vn -0.97248 0.00905249 -0.232809
v -3.4754 -107.96 1553.1
vn -0.759676 -0.648467 -0.0488198
v -3.40668 -108.144 1553.17
vn -0.803141 -0.476737 -0.357333
v -3.42274 -108.091 1553.04
vn -0.996566 0.0245618 0.0790802
v -3.47139 -107.974 1553.32
vn -0.623971 -0.780774 0.0324516
v -3.35175 -108.196 1553.31
vn -0.953154 0.249448 0.171094
v -3.41067 -107.856 1553.6
vn -0.806676 0.575772 -0.133266
v -3.44213 -107.829 1553.15
vn -0.979489 -0.182938 -0.0844659
v -3.70337 -85.3996 1565.02
vn -0.81998 -0.388636 -0.420233
v -3.77535 -84.4525 1564.19
vn -0.948649 0.0884986 0.303699
v -4.0222 -82.5894 1563.72
vn -0.481332 -0.614127 -0.625434
v -3.76935 -82.5361 1562.3
vn -0.839104 -0.41553 -0.351055
v -3.9704 -82.5198 1562.6
vn -0.638708 -0.593446 -0.48977
v -3.89345 -81.8331 1561.66
vn -0.462288 0.560807 0.686867
v -3.68858 -80.5741 1562.82
vn -0.444319 -0.75139 -0.487846
v -3.71822 -80.6555 1559.82
vn -0.914344 -0.343302 -0.214753
v -4.32014 -80.681 1561.06
vn -0.909498 0.325507 0.258571
v -4.2404 -80.0381 1561.55
vn -0.440064 0.758574 0.48053
v -3.81695 -79.4124 1561.47
vn -0.986399 0.161368 -0.0312738
v -4.24143 -79.5319 1559.16
vn -0.926455 -0.308133 -0.216183
v -3.79611 -79.1512 1556.72
vn -0.939316 0.281842 -0.195576
v -3.87488 -78.3282 1557.13
vn -0.786291 0.606174 0.119585
v -3.8527 -78.0935 1558.44
vn -0.686806 -0.69949 0.197513
v -3.01 -108.089 1556.36
vn -0.378324 -0.916118 0.132663
v -2.91172 -108.217 1556.03
vn -0.0605433 -0.995452 0.0735548
v -2.71234 -108.245 1555.93
vn 0.0351566 -0.980374 0.193989
v -2.60435 -108.126 1556.86
vn -0.833659 -0.459103 0.306979
v -2.85875 -107.548 1558.13
vn -0.471104 -0.823729 0.315485
v -2.69738 -107.816 1557.92
vn -0.312607 -0.949104 0.0384459
v -3.13031 -108.3 1554.11
vn 0.348481 -0.935176 -0.0633054
v -2.93134 -108.303 1554
vn -0.918978 -0.375548 0.120182
v -3.32723 -108.12 1554.25
vn 0.73117 -0.677394 -0.0807945
v -2.6863 -108.178 1554.6
vn 0.977359 -0.169962 -0.126026
v -2.64474 -108.086 1554.56
vn 0.782845 0.611053 -0.117335
v -2.64806 -107.876 1554.8
vn -0.993027 0.0917616 0.074003
v -3.1969 -108.017 1555.51
vn -0.981716 0.171677 0.0822243
v -3.13038 -107.848 1556.42
vn -0.985436 0.155301 0.0692695
v -3.15961 -107.807 1555.75
vn -0.354275 0.929078 -0.106319
v -2.71878 -107.6 1556.09
vn -0.955633 0.275048 0.105427
v -3.00935 -107.569 1557.06
vn -0.460621 0.86398 -0.203389
v -2.60764 -107.142 1557.74
vn -0.560391 -0.824593 -0.0775068
v -3.34084 -108.203 1553.2
vn -0.573626 -0.781324 -0.245939
v -3.34231 -108.184 1553.08
vn -0.843434 0.0799067 -0.531256
v -3.34747 -107.951 1552.86
vn -0.380081 -0.923407 -0.0534573
v -3.23981 -108.263 1553.22
vn -0.263071 -0.931267 -0.252061
v -3.2412 -108.246 1553.11
vn -0.43733 -0.765308 -0.472278
v -3.24459 -108.152 1552.89
vn -0.689815 0.622171 -0.370215
v -3.24933 -107.764 1552.9
vn -0.0162637 -0.992293 -0.122845
v -3.13946 -108.283 1553.23
vn 0.232667 -0.94175 -0.242845
v -3.04133 -108.238 1553.1
vn -0.0661855 0.0298656 -0.99736
v -3.0476 -107.955 1552.84
vn 0.837094 -0.463438 -0.290688
v -2.87862 -108.137 1553.17
vn 0.458448 0.648395 -0.607791
v -2.90203 -107.861 1553.05
vn -0.597772 0.795213 -0.101511
v -3.24835 -107.691 1553.09
vn 0.395667 0.867417 -0.301721
v -3.04799 -107.711 1553.1
vn 0.983334 0.0720355 -0.166931
v -2.77528 -107.979 1553.54
vn -0.574068 0.814352 0.0853049
v -3.03145 -107.705 1554.73
vn -0.93372 -0.163203 -0.318641
v -2.74477 -91.1815 1565.95
vn -0.972723 -0.113156 0.2025
v -2.98642 -90.5955 1566.58
vn -0.753628 0.0241251 0.656858
v -2.99095 -89.1252 1566.71
vn -0.882814 -0.227756 -0.410813
v -3.23304 -88.6657 1565.76
vn -0.430065 0.204194 0.879402
v -2.96283 -87.5544 1566.57
vn -0.878026 0.0517052 0.475812
v -3.43768 -86.4363 1565.9
vn -0.741012 -0.345148 -0.575998
v -3.43425 -85.815 1564.55
vn -0.367025 -0.431228 -0.824218
v -2.80692 -85.937 1564.23
vn -0.475406 0.346423 0.80869
v -3.40869 -84.7438 1565.53
vn -0.0283558 -0.54166 -0.840119
v -2.93068 -84.6014 1563.55
vn -0.55759 -0.500176 -0.662508
v -3.4414 -83.9567 1563.29
vn -0.0878487 -0.663995 -0.742559
v -2.96712 -82.7768 1562.22
vn -0.1549 -0.757821 -0.633808
v -3.3843 -82.0114 1561.48
vn 0.227201 -0.750145 -0.621018
v -2.9034 -81.1641 1560.64
vn 0.60349 -0.692463 -0.395342
v -2.91981 -80.548 1559.79
vn 0.16507 -0.842402 -0.512943
v -3.21483 -80.8033 1559.96
vn 0.158566 0.763587 0.625933
v -3.11045 -79.5798 1561.89
vn -0.745186 -0.595885 -0.299365
v -3.64164 -79.9663 1558.37
vn 0.718957 -0.678196 -0.152152
v -2.9402 -79.8538 1558.1
vn -0.446335 -0.892242 0.0684777
v -3.16777 -79.7996 1556.01
vn -0.757572 -0.629089 -0.174158
v -3.45961 -79.6928 1556.94
vn 0.292783 0.855954 0.426169
v -2.95258 -78.1778 1559.48
vn -0.78191 -0.609975 -0.128634
v -3.37362 -79.563 1555.73
vn -0.939317 0.0282576 -0.341884
v -3.55593 -79.001 1555.78
vn -0.232402 0.919811 0.316129
v -3.36379 -77.8654 1558.78
vn -0.843116 0.187173 -0.504105
v -2.9176 -78.9101 1554.44
vn -0.824641 0.374617 -0.423828
v -3.29257 -78.2581 1555.47
vn -0.669083 0.677712 -0.305015
v -3.19351 -77.7468 1556.01
vn -0.6814 0.727778 -0.077676
v -3.65358 -77.8517 1557.47
vn -0.233023 0.967755 0.0956535
v -3.17992 -77.5654 1557.56
vn -0.0621532 -0.801909 -0.594205
v -2.07335 -112.199 1554.89
vn -0.69485 -0.694367 0.187185
v -2.35109 -112.102 1555.07
vn -0.256492 -0.908069 0.331093
v -2.17122 -112.194 1555.11
vn -0.480398 -0.870043 -0.110647
v -2.17192 -112.219 1555.01
vn 0.248969 -0.929168 0.273242
v -2.07129 -112.19 1555.11
vn 0.59257 -0.805507 -0.00425596
v -1.97269 -112.172 1554.99
vn -0.572594 -0.732444 0.368324
v -2.26788 -111.735 1556
vn -0.0128957 -0.90436 0.426575
v -2.06712 -111.845 1555.94
vn 0.300145 -0.864121 0.403991
v -1.86648 -111.618 1556.27
vn -0.463097 -0.75105 0.4706
v -2.16183 -111.04 1557.44
vn -0.765709 -0.225668 -0.602298
v -2.35132 -111.996 1554.81
vn -0.59454 0.118535 -0.795281
v -2.31714 -111.904 1554.77
vn -0.474376 -0.681411 -0.557357
v -2.27546 -112.105 1554.8
vn -0.517367 -0.216738 -0.827862
v -2.27708 -112.019 1554.75
vn -0.0680106 -0.4472 -0.891844
v -2.17726 -112.033 1554.71
vn -0.259444 0.115883 -0.95878
v -2.17871 -111.932 1554.7
vn 0.243542 -0.0886983 -0.965826
v -2.07871 -111.929 1554.7
vn 0.133752 0.489696 -0.861573
v -2.07994 -111.81 1554.72
vn 0.79258 -0.506059 -0.340178
v -1.97545 -112.098 1554.81
vn 0.868085 -0.217376 -0.446291
v -1.95135 -111.899 1554.76
vn -0.851723 -0.474598 -0.222092
v -2.399 -112.05 1554.94
vn -0.934597 -0.343092 0.0938919
v -2.41418 -112.011 1555.03
vn -0.995877 0.0249704 -0.0872121
v -2.42979 -111.919 1554.99
vn -0.864659 0.19127 -0.464522
v -2.39273 -111.866 1554.86
vn -0.884605 0.409448 -0.22322
v -2.40947 -111.827 1554.95
vn -0.656421 0.661785 -0.362149
v -2.32718 -111.734 1554.91
vn -0.465281 0.539396 -0.701831
v -2.27978 -111.753 1554.81
vn -0.170209 0.847978 -0.501958
v -2.18022 -111.661 1554.88
vn 0.081559 0.896164 -0.436162
v -2.07766 -111.384 1555.47
vn 0.544232 0.680657 -0.490426
v -1.97957 -111.698 1554.9
vn 0.977626 -0.0262167 -0.20871
v -1.83612 -111.911 1554.99
vn -0.934572 -0.299823 0.191523
v -2.37021 -111.652 1555.87
vn -0.901664 0.405162 -0.151147
v -2.37296 -111.434 1555.87
vn -0.628167 0.715068 -0.306732
v -2.27598 -111.386 1555.63
vn 0.677787 0.636533 -0.368008
v -1.8484 -111.375 1555.74
vn -0.931762 0.336486 -0.136368
v -2.31565 -110.912 1556.85
vn -0.417979 0.804207 -0.422544
v -2.17229 -110.815 1556.69
vn 0.362806 0.799964 -0.477942
v -1.87268 -110.856 1556.6
vn 0.895029 0.355579 -0.269233
v -1.71462 -110.943 1556.75
vn -0.12375 0.816885 -0.563369
v -1.97083 -110.243 1557.54
vn -0.992737 0.11424 -0.037717
v -2.28325 -110.403 1558.04
vn -0.587553 0.659237 -0.469242
v -2.256 -110.297 1557.78
vn 0.602515 -0.672306 0.430093
v -1.85923 -110.601 1558.23
vn 0.635811 0.607146 -0.476569
v -1.76985 -110.234 1557.64
vn -0.530941 -0.624058 0.573283
v -2.05949 -109.929 1559.03
vn 0.61221 -0.5841 0.53294
v -1.75924 -109.744 1559.28
vn -0.289456 0.725028 -0.62494
v -2.0697 -109.718 1558.29
vn 0.350214 0.695893 -0.626963
v -1.76999 -109.633 1558.36
vn -0.165136 0.624811 -0.763113
v -1.87211 -108.854 1559.11
vn -0.992977 0.0999364 -0.063325
v -2.22393 -108.635 1559.9
vn -0.515359 -0.502985 0.693839
v -2.06563 -108.295 1560.44
vn 0.702752 -0.71046 0.0372357
v -2.40627 -108.012 1556.81
vn -0.0928615 -0.934655 0.343216
v -2.49537 -107.803 1558.13
vn 0.974566 -0.173051 -0.142385
v -2.14813 -107.603 1557.72
vn 0.444895 -0.868489 0.218622
v -2.29464 -107.714 1558.31
vn 0.861774 0.349899 -0.367311
v -1.96799 -107.288 1558.45
vn -0.496967 -0.735101 0.46114
v -2.49157 -107.37 1559.04
vn 0.174066 -0.894779 0.411183
v -2.18986 -107.338 1559.24
vn 0.85079 -0.52406 0.0389695
v -1.75058 -106.947 1559.5
vn -0.84927 0.235792 -0.47238
v -2.11146 -106.68 1560.91
vn -0.856731 0.0689455 -0.511135
v -2.0041 -106.626 1560.78
vn -0.534584 -0.722963 0.437659
v -1.98601 -106.579 1560.54
vn -0.916571 -0.377832 0.130924
v -1.98485 -106.516 1560.73
vn -0.809995 -0.0183954 -0.586148
v -1.8837 -106.683 1560.64
vn -0.863874 -0.308897 -0.397874
v -1.88536 -106.601 1560.58
vn -0.0511151 0.572435 -0.818355
v -1.78368 -106.716 1560.6
vn 0.356062 -0.871235 0.337889
v -1.78651 -106.615 1560.45
vn -0.412081 -0.160812 -0.896844
v -1.78538 -106.6 1560.58
vn -0.960049 -0.231928 0.156572
v -2.08443 -106.07 1561.32
vn 0.88218 -0.463415 -0.0836941
v -2.51534 -108.088 1555.83
vn 0.936829 0.296132 -0.186163
v -2.45681 -107.865 1556.09
vn 0.746946 0.570369 -0.341688
v -2.24431 -107.499 1557.46
vn 0.476544 0.73011 -0.489741
v -2.30564 -107.127 1557.95
vn -0.411595 0.861352 -0.297761
v -2.50448 -106.868 1558.39
vn -0.701759 0.630012 -0.332594
v -2.44215 -106.183 1560.05
vn -0.243416 0.721895 -0.647778
v -2.10125 -106.071 1559.68
vn -0.201811 0.718372 -0.665743
v -2.00133 -105.934 1559.83
vn -0.47092 0.474683 -0.743579
v -1.90218 -105.794 1559.92
vn -0.737584 0.185909 -0.64916
v -1.86829 -105.676 1559.94
vn 0.154122 0.145966 -0.977211
v -1.80238 -105.809 1559.88
vn -0.919445 -0.24433 0.308096
v -2.33213 -106.17 1560.59
vn -0.552536 0.639157 -0.53496
v -2.1007 -105.774 1560.09
vn -0.747453 0.35821 -0.559464
v -1.92799 -105.638 1560.03
vn -0.889158 0.391841 -0.236345
v -2.21108 -105.42 1560.81
vn -0.874623 -0.481513 0.0563886
v -1.90444 -105.828 1558.05
vn -0.982197 0.186992 -0.0179934
v -1.91691 -105.463 1558.66
vn -0.771162 0.630674 -0.0869467
v -1.85239 -105.331 1558.71
vn -0.895382 -0.404809 -0.185528
v -1.8203 -105.623 1559.81
vn -0.851688 -0.51988 0.0659712
v -1.83212 -105.609 1559.59
vn -0.943803 0.260722 -0.203127
v -1.94947 -105.127 1560.47
vn -0.933982 0.0740323 -0.349567
v -1.8897 -105.545 1560
vn -0.992883 -0.108973 -0.0480377
v -1.90218 -105.361 1559.92
vn -0.891281 0.432324 -0.136802
v -1.87157 -105.099 1560.02
vn -0.776243 0.574139 -0.260403
v -1.79115 -104.693 1560.72
vn -0.626213 0.656463 -0.420611
v -1.80357 -104.096 1561.87
vn -0.970958 -0.0945245 0.219784
v -1.96233 -104.071 1562.95
vn -0.65966 -0.429596 0.616682
v -1.79509 -103.131 1563.88
vn -0.981335 0.192078 -0.00938234
v -1.93662 -105.612 1556.77
vn -0.663959 0.747667 -0.0123362
v -1.83756 -105.429 1556.9
vn -0.777556 0.394591 -0.489595
v -1.90422 -103.247 1562.85
vn -0.991266 0.0802351 -0.10466
v -1.95812 -102.249 1563.92
vn -0.674942 -0.724199 -0.141383
v -1.81199 -105.659 1554.61
vn -0.946862 -0.318008 -0.0482006
v -1.90797 -105.677 1555.6
vn -0.938919 0.343664 0.0180719
v -1.91107 -105.493 1555.52
vn -0.829662 0.28717 -0.478743
v -1.8102 -102.183 1563.56
vn -0.927612 -0.19401 0.319212
v -1.91342 -101.62 1564.63
vn -0.928208 -0.281969 -0.242742
v -1.83379 -105.195 1552.89
vn -0.996419 0.0196458 -0.0822342
v -1.97423 -100.519 1564.92
vn -0.779313 -0.275761 0.562696
v -1.85409 -99.8497 1565.72
vn -0.930802 0.278023 -0.237299
v -1.81815 -105.011 1552.81
vn -0.897905 0.170481 -0.405836
v -1.96098 -99.6785 1565.11
vn -0.622572 0.324679 -0.71203
v -1.82491 -100.05 1564.74
vn -0.87139 0.104799 -0.479267
v -1.93447 -98.8408 1565.29
vn -0.989995 -0.0782541 0.117413
v -2.0713 -98.1727 1566.1
vn -0.700548 -0.250399 0.668231
v -1.88653 -98.4074 1566.31
vn -0.693638 0.0833788 -0.715482
v -1.9609 -96.3731 1565.73
vn -0.98236 -0.0960438 -0.160452
v -2.38098 -95.2497 1566.6
vn -0.81303 -0.14872 0.562908
v -2.32651 -95.0396 1566.83
vn -0.361056 -0.0850375 0.928659
v -2.07261 -94.2162 1567.23
vn -0.890137 -0.10913 -0.442432
v -2.18708 -94.1153 1565.93
vn -0.365674 -0.071174 -0.928018
v -2.00418 -92.874 1565.78
vn -0.641816 -0.0240627 0.766481
v -2.61348 -90.8025 1567.1
vn -0.018955 0.083076 0.996363
v -2.21461 -90.8348 1567.26
vn -0.232515 -0.182831 -0.955254
v -2.03234 -90.783 1565.59
vn -0.409226 0.104436 0.906437
v -2.64053 -89.0129 1566.96
vn 0.428987 0.206367 0.879422
v -1.93756 -89.2355 1566.97
vn -0.0122427 0.218978 0.975653
v -2.44754 -88.4831 1566.92
vn -0.340279 -0.285906 -0.895806
v -2.66428 -88.582 1565.16
vn 0.463783 -0.197983 -0.863544
v -2.0744 -87.8588 1565.05
vn 0.328805 0.356495 0.874528
v -2.19688 -85.3899 1565.88
vn 0.694709 -0.268406 -0.667336
v -2.04533 -85.4294 1564.38
vn 0.982656 -0.025228 -0.183714
v -1.97392 -83.6015 1563.81
vn 0.904971 0.260944 0.336059
v -2.00518 -83.6042 1564.58
vn 0.316689 0.567157 0.76029
v -2.64467 -82.6326 1564.59
vn 0.981677 -0.0448207 -0.185206
v -2.08243 -82.0244 1562.93
vn 0.845074 0.388683 0.367118
v -2.16021 -82.1573 1563.64
vn 0.765274 -0.52907 -0.366661
v -2.35918 -80.2216 1560.53
vn 0.684363 0.583164 0.437683
v -2.52721 -79.8463 1561.68
vn 0.972654 0.201339 0.115789
v -2.31611 -80.1451 1561.48
vn -0.482924 -0.8649 -0.136868
v -2.48036 -80.3551 1554.09
vn 0.134205 -0.989275 -0.0576629
v -2.18052 -80.4203 1553.99
vn 0.047862 -0.969688 0.239615
v -2.27492 -80.3579 1554.61
vn 0.457918 -0.827995 0.323628
v -2.36916 -79.8448 1555.81
vn 0.0245602 -0.997972 -0.0587301
v -2.75979 -79.7077 1556.9
vn 0.85356 -0.486934 0.185286
v -2.28605 -79.2382 1556.96
vn 0.977838 -0.207825 0.0253471
v -2.29899 -79.0059 1558.28
vn -0.593172 -0.21569 -0.775645
v -2.29185 -79.9878 1553.41
vn -0.357581 -0.554908 -0.751141
v -2.19056 -80.1 1553.4
vn -0.875312 -0.378496 -0.300948
v -2.79742 -80.0108 1554.14
vn -0.778648 -0.00868114 -0.627401
v -2.53515 -79.7958 1553.62
vn -0.656384 -0.537578 -0.529311
v -2.48622 -80.1845 1553.72
vn -0.170756 -0.868545 -0.465266
v -2.18524 -80.3186 1553.65
vn 0.796774 0.55151 0.246959
v -2.41671 -78.0088 1558.07
vn -0.658131 0.301255 -0.690006
v -2.39997 -79.1359 1553.66
vn -0.654846 0.460942 -0.598923
v -2.60131 -78.5475 1554.25
vn 0.722863 0.674834 0.148553
v -2.18701 -77.7252 1556.43
vn 0.394082 0.905104 0.159647
v -2.58432 -77.5649 1557.12
vn 0.267547 0.927317 0.261729
v -2.87529 -77.6413 1557.92
vn -0.582679 0.62515 -0.519301
v -2.70807 -78.1206 1554.75
vn -0.276121 0.80219 -0.529385
v -2.30504 -77.9799 1554.58
vn -0.027048 0.930101 -0.366305
v -2.30334 -77.7512 1555.03
vn -0.334021 0.865525 -0.373225
v -2.6012 -77.6822 1555.33
vn 0.099278 0.977074 -0.188334
v -2.40026 -77.6057 1555.51
vn -0.320172 0.93544 -0.149807
v -2.89411 -77.5121 1556.23
vn 0.0929148 0.995655 -0.00607912
v -2.69249 -77.4759 1556.43
vn 0.485508 0.874226 0.00315164
v -2.29487 -77.5958 1556.05
vn 0.98131 -0.18965 0.0326281
v -1.6166 -110.526 1557.98
vn 0.987828 0.0762348 -0.135585
v -1.56452 -110.229 1558.17
vn 0.663857 -0.557301 0.498708
v -1.56393 -109.74 1559.06
vn 0.825641 0.381654 -0.41552
v -1.56708 -109.739 1558.52
vn 0.863663 0.297638 -0.406813
v -1.52919 -109.031 1559.19
vn -0.0958726 -0.571012 0.815324
v -1.66798 -107.647 1561
vn 0.592241 -0.771392 0.232817
v -1.62802 -106.476 1560.61
vn 0.567441 0.330749 -0.754066
v -1.56066 -106.528 1560.74
vn 0.970818 0.0464465 -0.235279
v -1.39031 -106.317 1560.97
vn 0.700586 0.524585 -0.483724
v -1.61907 -106.421 1559.71
vn 0.196262 0.544889 -0.815216
v -1.70104 -105.916 1559.88
vn -0.609844 -0.698765 -0.373922
v -1.70435 -105.753 1559.76
vn -0.597944 -0.799442 0.0579173
v -1.70659 -105.752 1559.54
vn 0.880487 -0.124736 -0.457366
v -1.50588 -106.04 1560.09
vn -0.279312 -0.955871 -0.0910767
v -1.60345 -105.806 1559.78
vn -0.256332 -0.242767 -0.935606
v -1.60265 -105.827 1559.83
vn 0.569487 -0.710049 -0.414143
v -1.47367 -105.855 1560.02
vn -0.0189668 -0.994506 0.102944
v -1.50435 -105.818 1559.67
vn 0.447102 -0.893334 -0.0453211
v -1.40228 -105.79 1559.91
vn 0.553805 -0.823871 0.120571
v -1.3034 -105.742 1559.86
vn 0.969372 -0.124153 -0.211905
v -1.43671 -106.184 1560.26
vn 0.962265 -0.200984 -0.183443
v -1.39205 -105.921 1560.37
vn 0.838486 -0.533425 -0.111351
v -1.36591 -105.776 1560.2
vn 0.703429 -0.707519 0.0678574
v -1.28252 -105.683 1560.16
vn 0.944787 -0.327388 -0.0139172
v -1.33581 -105.923 1561.13
vn 0.97062 -0.186662 0.151834
v -1.12638 -105.096 1562.3
vn 0.0740653 -0.591533 0.802871
v -1.38724 -104.398 1563.09
vn -0.033 -0.998657 -0.0399319
v -1.52811 -106.12 1556.98
vn -0.444774 -0.893833 0.0569094
v -1.61857 -106.094 1557.95
vn 0.00711756 -0.996213 0.0866559
v -1.51722 -106.108 1558.06
vn 0.492417 -0.870359 0.00117726
v -1.32205 -106.084 1557.61
vn 0.752796 -0.657132 0.0384193
v -1.11933 -105.904 1558.1
vn -0.361256 -0.91648 0.171925
v -1.60906 -105.931 1559.08
vn 0.361807 -0.919377 0.154409
v -1.30987 -105.95 1558.97
vn 0.999737 -0.0139056 -0.0182112
v -1.02931 -105.569 1558.37
vn 0.92284 -0.378949 0.069025
v -1.032 -105.624 1559.26
vn 0.999892 -0.0020886 -0.0145816
v -1.02706 -105.284 1559.55
vn -0.500894 0.830711 -0.242951
v -1.61509 -104.918 1559.73
vn -0.439999 0.829327 -0.344408
v -1.61129 -104.683 1560.39
vn -0.152525 0.936987 -0.314312
v -1.41491 -104.862 1559.81
vn 0.84673 -0.5265 0.0764655
v -1.06145 -105.378 1560.35
vn 0.715237 0.589202 -0.375868
v -1.30497 -104.07 1561.76
vn 0.946803 -0.259867 0.189822
v -0.955121 -104.371 1562.21
vn 0.804847 0.338373 -0.48757
v -0.915346 -103.899 1562.55
vn -0.348243 -0.534566 0.770043
v -1.58855 -104.147 1563.27
vn -0.16104 -0.975345 -0.150892
v -1.54371 -105.992 1555.61
vn 0.496735 -0.86184 -0.102402
v -1.34288 -105.967 1555.72
vn -0.610982 -0.789824 -0.0536658
v -1.73187 -106.029 1556.72
vn 0.702224 0.711409 0.027902
v -1.18215 -105.408 1556.46
vn 0.941407 -0.335538 -0.0341731
v -1.06035 -105.776 1557.37
vn -0.168731 0.983559 -0.0643537
v -1.63062 -105.248 1557.8
vn 0.431345 0.901252 -0.0410619
v -1.33125 -105.274 1557.7
vn 0.885596 0.463549 -0.0290056
v -1.08175 -105.554 1557.39
vn -0.299731 0.941675 -0.153
v -1.62317 -105.163 1558.64
vn 0.728776 0.67692 -0.103275
v -1.32292 -105.177 1558.64
vn -0.385481 0.61975 -0.683603
v -1.50593 -103.619 1562.22
vn -0.584404 0.48331 -0.651831
v -1.60925 -102.769 1562.94
vn 0.312313 0.520516 -0.794684
v -1.20957 -102.744 1562.93
vn -0.122137 -0.560849 0.818859
v -1.39618 -102.42 1564.64
vn 0.632284 -0.48952 0.60049
v -0.996515 -102.596 1564.39
vn -0.360515 0.925407 0.116835
v -1.55922 -105.13 1555.14
vn 0.795338 0.602049 0.0705246
v -1.20802 -105.3 1555.43
vn 0.829491 -0.549451 -0.10024
v -1.15104 -105.712 1555.23
vn -0.00981597 0.999071 0.0419521
v -1.54547 -105.237 1556.36
vn 0.988936 0.148103 -0.00846594
v -1.09155 -105.588 1555.77
vn -0.506558 0.467089 -0.724725
v -1.41722 -101.502 1563.71
vn -0.618391 -0.393558 0.680224
v -1.68976 -101.422 1565.09
vn -0.161203 -0.465143 0.870434
v -1.40509 -101.041 1565.46
vn 0.394888 -0.452477 0.79958
v -1.004 -101.297 1565.25
vn -0.608075 -0.711837 -0.351472
v -1.68062 -105.346 1552.79
vn -0.201283 -0.932573 -0.299654
v -1.57857 -105.43 1552.88
vn -0.226802 -0.722052 -0.653607
v -1.58277 -105.304 1552.63
vn 0.321025 -0.829685 -0.45669
v -1.37437 -105.359 1552.74
vn 0.730392 -0.628378 -0.267711
v -1.26058 -105.319 1552.83
vn 0.367931 -0.904457 -0.215834
v -1.37552 -105.479 1553.12
vn 0.962483 -0.251203 -0.10259
v -1.14393 -105.2 1553.11
vn 0.398177 0.908824 0.124477
v -1.36288 -105.11 1554.81
vn -0.480417 0.36834 -0.795943
v -1.32379 -100.585 1564.19
vn -0.474566 -0.363432 0.801688
v -1.6121 -100.227 1565.77
vn 0.166221 -0.367562 0.915024
v -1.21343 -99.9447 1565.99
vn -0.801717 -0.178172 -0.57053
v -1.72498 -105.088 1552.63
vn -0.662275 -0.414107 -0.624425
v -1.68416 -105.2 1552.62
vn -0.374193 -0.370632 -0.850065
v -1.58599 -105.121 1552.53
vn -0.188117 0.691771 -0.697184
v -1.48855 -104.838 1552.63
vn 0.183379 -0.677452 -0.712342
v -1.38447 -105.22 1552.56
vn 0.308857 0.337702 -0.889137
v -1.38776 -104.95 1552.57
vn 0.388443 0.750196 -0.535087
v -1.38822 -104.857 1552.64
vn 0.679893 -0.46769 -0.564811
v -1.28417 -105.192 1552.62
vn 0.703652 0.0288771 -0.709958
v -1.24823 -105.082 1552.62
vn 0.909117 0.213925 -0.357411
v -1.1968 -105.042 1552.71
vn 0.687439 0.476172 -0.54835
v -1.25409 -104.951 1552.68
vn 0.922627 -0.219864 -0.316889
v -1.18363 -105.128 1552.75
vn -0.729525 0.683486 0.0253
v -1.7838 -104.924 1552.99
vn -0.636624 0.651744 -0.412238
v -1.68715 -104.856 1552.75
vn -0.37334 0.922832 -0.0948607
v -1.58745 -104.772 1552.82
vn 0.072625 0.989118 0.127949
v -1.48518 -104.775 1553.04
vn 0.0759205 0.973281 -0.216705
v -1.4877 -104.757 1552.81
vn 0.420685 0.90279 -0.0894056
v -1.38183 -104.782 1552.82
vn 0.825448 0.516207 -0.228398
v -1.2354 -104.911 1552.77
vn 0.615396 0.720957 -0.318604
v -1.28696 -104.865 1552.75
vn 0.702355 0.711827 0.000676736
v -1.25319 -104.872 1552.86
vn 0.963189 0.263287 -0.0542888
v -1.15373 -105.055 1552.94
vn -0.326219 -0.313997 0.89162
v -1.62521 -98.6604 1566.41
vn -0.370489 0.277668 -0.886363
v -1.53541 -99.1074 1564.86
vn 0.205085 -0.234603 0.950211
v -1.33652 -97.4161 1566.83
vn -0.411732 -0.212184 0.886259
v -1.74175 -96.9561 1566.88
vn 0.704486 -0.0780671 0.705411
v -1.0065 -96.3232 1566.83
vn -0.0191775 0.178144 -0.983818
v -1.56439 -96.2134 1565.57
vn -0.10367 -0.120873 0.98724
v -1.45918 -95.3031 1567.2
vn -0.268924 0.0215926 -0.962919
v -1.58256 -94.6158 1565.75
vn 0.850879 0.0627745 0.521598
v -1.11712 -93.4621 1566.92
vn 0.363945 0.0193234 -0.93122
v -1.39934 -93.1193 1565.94
vn 0.980324 0.0928653 -0.174187
v -1.10765 -92.6336 1566.56
vn 0.336372 0.0384903 0.940942
v -1.5914 -92.6606 1567.29
vn 0.669618 0.146026 0.728209
v -1.51495 -90.8278 1566.99
vn 0.619937 -0.0612578 -0.782256
v -1.4607 -90.4038 1565.94
vn 0.98229 0.113736 0.1489
v -1.47842 -89.1315 1566.38
vn 0.91008 -0.0400403 -0.412494
v -1.65302 -87.8705 1565.52
vn 0.821766 0.220427 0.525463
v -1.78953 -87.0599 1566.15
vn 0.996491 0.0566585 -0.0615993
v -1.76147 -85.6514 1565.12
vn 0.565566 -0.786733 0.247358
v -1.97737 -80.2768 1554.47
vn -0.292977 -0.274488 -0.915872
v -2.09383 -79.9281 1553.29
vn 0.129394 -0.683522 -0.71837
v -1.9907 -80.1079 1553.37
vn 0.0881179 -0.374985 -0.922834
v -1.89392 -79.9312 1553.27
vn 0.568434 -0.701215 -0.430327
v -1.79033 -80.0711 1553.45
vn 0.472415 -0.480272 -0.739029
v -1.79378 -79.9171 1553.3
vn 0.345278 -0.881752 -0.321399
v -1.98447 -80.3163 1553.73
vn 0.620898 -0.782114 -0.0527554
v -1.88267 -80.2915 1553.93
vn 0.85188 -0.51386 0.101236
v -1.62726 -79.9962 1554.13
vn 0.804476 -0.481814 -0.347382
v -1.54979 -79.8226 1553.51
vn 0.843342 -0.437402 0.312177
v -1.63751 -79.8007 1554.59
vn 0.898434 -0.284797 0.334226
v -1.89745 -78.994 1555.99
vn -0.491337 0.0954423 -0.865724
v -2.09798 -79.6081 1553.27
vn -0.16625 -0.123104 -0.978369
v -1.99684 -79.7337 1553.23
vn -0.0935672 0.0817845 -0.992248
v -1.89848 -79.6169 1553.21
vn 0.217312 -0.199153 -0.95557
v -1.79686 -79.7312 1553.23
vn 0.579579 -0.267551 -0.769743
v -1.69667 -79.7116 1553.27
vn 0.36921 0.027361 -0.928943
v -1.69952 -79.5055 1553.24
vn -0.488157 0.479858 -0.728999
v -2.10405 -78.8929 1553.56
vn -0.363647 0.32762 -0.872024
v -2.00184 -79.2611 1553.32
vn -0.21875 0.55092 -0.805379
v -1.90545 -78.8084 1553.52
vn 0.0219826 0.336483 -0.941433
v -1.80211 -79.28 1553.27
vn 0.230677 0.580237 -0.781097
v -1.706 -78.7093 1553.58
vn 0.779718 -0.136785 -0.611007
v -1.50914 -79.546 1553.4
vn 0.522791 0.255015 -0.813423
v -1.6018 -79.2481 1553.33
vn 0.739569 0.384031 -0.552774
v -1.4256 -78.8892 1553.66
vn 0.962941 -0.225367 -0.148167
v -1.37344 -79.427 1553.67
vn 0.873135 0.0660029 -0.482989
v -1.39943 -79.2642 1553.54
vn 0.981924 0.0821765 -0.170507
v -1.32675 -79.0329 1553.83
vn 0.963059 -0.0858741 0.255232
v -1.4022 -79.0753 1554.5
vn 0.954148 0.25469 0.157272
v -1.42625 -78.6291 1554.53
vn 0.847963 0.517944 -0.112666
v -1.42602 -78.5624 1554.17
vn 0.975742 -0.182396 0.121074
v -1.34619 -79.231 1554.13
vn 0.986812 0.156109 0.0427953
v -1.34681 -78.7846 1554.16
vn 0.877456 0.39397 -0.273605
v -1.37627 -78.8103 1553.84
vn 0.957932 0.176747 0.226114
v -2.03237 -77.9993 1556.54
vn -0.40607 0.638856 -0.653429
v -2.10608 -78.3778 1553.99
vn -0.0166753 0.7817 -0.623431
v -1.90677 -78.4015 1553.89
vn 0.492837 0.809502 -0.31909
v -1.70514 -78.2338 1554.25
vn 0.538488 0.68397 -0.492154
v -1.60578 -78.5246 1553.83
vn 0.0833587 0.888063 -0.452101
v -2.1054 -77.9573 1554.57
vn 0.395629 0.894542 -0.208021
v -2.10345 -77.8144 1554.94
vn 0.775347 0.630966 0.0268235
v -1.79812 -78.0243 1555.2
vn 0.430412 0.45336 -0.780519
v -0.885692 -102.037 1563.61
vn 0.764189 -0.335198 0.551051
v -0.728955 -101.357 1564.95
vn 0.99082 -0.114249 0.0722714
v -0.654212 -101.604 1564.62
vn 0.941177 -0.133597 0.310383
v -0.65497 -100.306 1565.37
vn 0.953267 0.113796 -0.27988
v -0.653612 -100.187 1564.88
vn 0.660165 -0.301138 0.688112
v -0.803141 -100.06 1565.7
vn 0.403166 0.346448 -0.847013
v -0.9288 -99.7599 1564.7
vn 0.709916 -0.192499 0.677469
v -0.774452 -98.9181 1566.08
vn 0.988723 0.0179957 0.148671
v -0.675696 -97.932 1566.1
vn 0.743154 0.15602 -0.650676
v -0.9259 -96.0437 1565.95
vn -0.586652 0.804899 0.0893179
v -3.41067 -107.856 1553.6
vn -0.777265 -0.572131 -0.261773
v -4.24143 -79.5319 1559.16
vn 0.566431 -0.824097 -0.00447479
v -2.71234 -108.245 1555.93
vn -0.933472 0.357684 0.0262906
v -2.85875 -107.548 1558.13
vn -0.993118 0.0650303 0.0974077
v -3.32723 -108.12 1554.25
vn -0.841939 -0.52082 0.141016
v -3.1969 -108.017 1555.51
vn -0.859901 -0.47568 0.185199
v -3.13038 -107.848 1556.42
vn -0.563853 0.822146 -0.0783966
v -3.15961 -107.807 1555.75
vn 0.603736 0.769814 -0.207096
v -2.71878 -107.6 1556.09
vn -0.55787 0.810329 -0.179298
v -3.00935 -107.569 1557.06
vn 0.390177 0.824754 -0.409319
v -2.60764 -107.142 1557.74
vn -0.0661855 0.0298656 -0.99736
v -3.34747 -107.951 1552.86
vn -0.0679193 -0.181332 -0.981074
v -3.24459 -108.152 1552.89
vn 0.434445 -0.604144 -0.668033
v -3.24459 -108.152 1552.89
vn -0.0614819 0.239723 -0.968893
v -3.24933 -107.764 1552.9
vn 0.283077 0.817405 -0.501714
v -3.24933 -107.764 1552.9
vn 0.51554 -0.573505 -0.63664
v -3.04133 -108.238 1553.1
vn 0.646884 -0.448007 -0.617115
v -3.0476 -107.955 1552.84
vn 0.448227 0.652178 -0.611357
v -3.0476 -107.955 1552.84
vn 0.92611 0.26263 -0.270823
v -2.90203 -107.861 1553.05
vn 0.106707 0.977147 -0.183841
v -3.24835 -107.691 1553.09
vn -0.753552 0.651405 0.0884969
v -3.03145 -107.705 1554.73
vn 0.316474 0.946665 -0.0605738
v -3.03145 -107.705 1554.73
vn -0.452454 -0.154132 -0.878367
v -2.74477 -91.1815 1565.95
vn 0.327203 -0.318085 -0.889809
v -2.80692 -85.937 1564.23
vn 0.750915 -0.409954 -0.517749
v -2.96712 -82.7768 1562.22
vn 0.764099 -0.490152 -0.41941
v -2.9034 -81.1641 1560.64
vn -0.0225303 -0.953344 -0.301043
v -3.64164 -79.9663 1558.37
vn 0.0433696 -0.957202 -0.286153
v -2.9402 -79.8538 1558.1
vn -0.025656 -0.99961 0.0110523
v -3.45961 -79.6928 1556.94
vn 0.396533 -0.904862 -0.154872
v -2.07335 -112.199 1554.89
vn 0.169794 -0.979686 0.106705
v -2.17192 -112.219 1555.01
vn 0.899523 -0.420735 0.117644
v -1.86648 -111.618 1556.27
vn 0.598477 -0.712011 0.36724
v -1.86648 -111.618 1556.27
vn -0.331596 -0.839842 0.429778
v -2.16183 -111.04 1557.44
vn 0.309743 -0.458493 -0.832973
v -1.97545 -112.098 1554.81
vn 0.612015 0.219339 -0.759821
v -1.95135 -111.899 1554.76
vn -0.822037 -0.442732 0.358111
v -2.28325 -110.403 1558.04
vn -0.990428 0.128019 -0.0516091
v -2.256 -110.297 1557.78
vn -0.104954 -0.821821 0.559996
v -1.85923 -110.601 1558.23
vn -0.112264 -0.684754 0.720076
v -1.75924 -109.744 1559.28
vn -0.998904 0.00447494 0.0465922
v -2.22393 -108.635 1559.9
vn 0.956914 -0.268323 -0.110989
v -1.96799 -107.288 1558.45
vn -0.260796 -0.956531 0.130514
v -1.98601 -106.579 1560.54
vn -0.897553 -0.130328 -0.421205
v -1.98485 -106.516 1560.73
vn -0.315836 -0.899986 0.300454
v -1.98485 -106.516 1560.73
vn -0.136142 0.570221 -0.810132
v -1.8837 -106.683 1560.64
vn -0.412081 -0.160812 -0.896844
v -1.8837 -106.683 1560.64
vn 0.00590587 -0.590794 -0.806801
v -1.8837 -106.683 1560.64
vn -0.170923 -0.977171 0.126182
v -1.88536 -106.601 1560.58
vn 0.00590587 -0.590794 -0.806801
v -1.88536 -106.601 1560.58
vn -0.412081 -0.160812 -0.896844
v -1.78368 -106.716 1560.6
vn 0.602092 -0.127205 -0.788229
v -1.78368 -106.716 1560.6
vn -0.0941388 -0.994924 0.0355621
v -1.78651 -106.615 1560.45
vn 0.00590587 -0.590794 -0.806801
v -1.78538 -106.6 1560.58
vn 0.00993024 -0.993371 0.114524
v -1.78538 -106.6 1560.58
vn 0.606477 -0.790444 0.0859266
v -1.78538 -106.6 1560.58
vn 0.602092 -0.127205 -0.788229
v -1.78538 -106.6 1560.58
vn 0.581096 -0.605827 -0.543417
v -1.78538 -106.6 1560.58
vn -0.902704 0.225446 -0.366468
v -2.08443 -106.07 1561.32
vn -0.800357 0.58687 -0.122524
v -2.50448 -106.868 1558.39
vn 0.105187 0.877081 -0.468684
v -2.50448 -106.868 1558.39
vn -0.978414 0.0593706 0.197944
v -2.44215 -106.183 1560.05
vn -0.0327103 0.854821 -0.517891
v -2.10125 -106.071 1559.68
vn 0.532985 0.692762 -0.485806
v -2.10125 -106.071 1559.68
vn 0.154122 0.145966 -0.977211
v -2.00133 -105.934 1559.83
vn -0.766057 -0.286733 -0.575275
v -1.86829 -105.676 1559.94
vn -0.273798 0.448875 -0.850615
v -1.80238 -105.809 1559.88
vn -0.256332 -0.242767 -0.935606
v -1.80238 -105.809 1559.88
vn -0.21056 -0.808607 -0.549381
v -1.80238 -105.809 1559.88
vn -0.753528 -0.0793232 -0.652613
v -1.80238 -105.809 1559.88
vn -0.320818 0.0062213 -0.94712
v -2.18708 -94.1153 1565.93
vn 0.255729 0.000326336 -0.966749
v -2.00418 -92.874 1565.78
vn 0.448019 -0.0722438 -0.8911
v -2.03234 -90.783 1565.59
vn 0.998905 -0.0158514 -0.0440131
v -2.35918 -80.2216 1560.53
vn 0.682566 -0.710547 0.17096
v -2.75979 -79.7077 1556.9
vn 0.620466 -0.674685 0.399778
v -1.6166 -110.526 1557.98
vn 0.992849 -0.116084 0.0278298
v -1.56393 -109.74 1559.06
vn 0.694345 -0.454293 0.558125
v -1.66798 -107.647 1561
vn 0.581096 -0.605827 -0.543417
v -1.62802 -106.476 1560.61
vn 0.883227 -0.0264268 -0.468201
v -1.62802 -106.476 1560.61
vn 0.602092 -0.127205 -0.788229
v -1.56066 -106.528 1560.74
vn 0.581096 -0.605827 -0.543417
v -1.56066 -106.528 1560.74
vn 0.53321 0.386426 -0.75257
v -1.39031 -106.317 1560.97
vn 0.943788 0.0108615 -0.330374
v -1.61907 -106.421 1559.71
vn 0.307611 0.348114 -0.885546
v -1.61907 -106.421 1559.71
vn 0.154122 0.145966 -0.977211
v -1.70104 -105.916 1559.88
vn -0.256332 -0.242767 -0.935606
v -1.70104 -105.916 1559.88
vn 0.7807 0.309517 -0.542868
v -1.70104 -105.916 1559.88
vn 0.53201 -0.590826 -0.606539
v -1.70104 -105.916 1559.88
vn 0.322989 -0.877747 -0.35389
v -1.60345 -105.806 1559.78
vn -0.297359 -0.839124 -0.455465
v -1.60265 -105.827 1559.83
vn 0.41523 -0.816074 -0.402004
v -1.60265 -105.827 1559.83
vn 0.805633 0.0790688 -0.587115
v -1.33581 -105.923 1561.13
vn 0.797336 -0.359383 0.484869
v -1.38724 -104.398 1563.09
vn 0.763348 0.638646 -0.0971105
v -1.02931 -105.569 1558.37
vn 0.701468 0.679464 -0.215109
v -1.02706 -105.284 1559.55
vn 0.637764 0.732628 -0.237723
v -1.41491 -104.862 1559.81
vn -0.166313 0.809905 -0.562489
v -1.30497 -104.07 1561.76
vn 0.904815 0.306185 -0.295906
v -0.955121 -104.371 1562.21
vn 0.0478673 0.986931 -0.153868
v -1.32292 -105.177 1558.64
vn -0.0590174 0.641013 -0.765257
v -1.50593 -103.619 1562.22
vn 0.590636 0.552742 -0.5879
v -1.50593 -103.619 1562.22
vn -0.0565668 0.584297 -0.809566
v -1.60925 -102.769 1562.94
vn 0.209343 0.486622 -0.84816
v -1.41722 -101.502 1563.71
vn 0.225328 0.431938 -0.873302
v -1.32379 -100.585 1564.19
vn -0.565916 0.438351 -0.698275
v -1.72498 -105.088 1552.63
vn -0.149965 0.295892 -0.943376
v -1.58599 -105.121 1552.53
vn 0.36568 -0.0340174 -0.930119
v -1.38447 -105.22 1552.56
vn 0.566312 -0.0425221 0.823093
v -1.45918 -95.3031 1567.2
vn 0.39878 0.0848192 -0.913116
v -1.58256 -94.6158 1565.75
vn 0.87706 0.0783824 -0.473943
v -1.39934 -93.1193 1565.94
vn 0.962968 0.0561697 -0.263698
v -1.4607 -90.4038 1565.94
vn 0.918576 0.157724 -0.362411
v -0.885692 -102.037 1563.61
f 1//1 32//32 5//5
f 4//4 1//1 2//2
f 1//1 5//5 2//2
f 5//5 8//8 2//2
f 44//44 4//4 2//2
f 2//2 8//8 44//44
f 43//43 42//42 3//3
f 4//4 43//43 3//3
f 42//42 6//6 3//3
f 3//3 6//6 32//32
f 47//47 43//43 4//4
f 4//4 3//3 1//1
f 32//32 1//1 3//3
f 44//44 47//47 4//4
f 44//44 8//8 48//48
f 8//8 5//5 7//7
f 57//57 8//8 427//427
f 63//63 11//11 9//9
f 63//63 66//66 11//11
f 64//64 9//9 10//10
f 68//68 64//64 10//10
f 13//13 10//10 9//9
f 13//13 68//68 10//10
f 13//13 9//9 11//11
f 13//13 11//11 17//17
f 14//14 12//12 13//13
f 13//13 17//17 14//14
f 11//11 15//15 18//18
f 70//70 12//12 14//14
f 17//17 11//11 18//18
f 14//14 16//16 70//70
f 16//16 17//17 75//75
f 16//16 454//454 73//73
f 16//16 14//14 17//17
f 20//20 17//17 18//18
f 18//18 15//15 19//19
f 75//75 17//17 428//428
f 78//78 75//75 428//428
f 18//18 19//19 23//23
f 78//78 428//428 21//21
f 18//18 23//23 20//20
f 81//81 21//21 22//22
f 21//21 20//20 22//22
f 22//22 20//20 23//23
f 22//22 23//23 86//86
f 30//30 26//26 25//25
f 24//24 32//32 25//25
f 25//25 27//27 24//24
f 25//25 26//26 27//27
f 429//429 139//139 27//27
f 27//27 139//139 142//142
f 29//29 28//28 24//24
f 29//29 24//24 27//27
f 27//27 140//140 29//29
f 27//27 142//142 140//140
f 430//430 40//40 37//37
f 29//29 144//144 28//28
f 29//29 140//140 144//144
f 49//49 31//31 30//30
f 431//431 36//36 38//38
f 26//26 30//30 31//31
f 31//31 33//33 429//429
f 157//157 429//429 33//33
f 158//158 157//157 34//34
f 157//157 33//33 34//34
f 33//33 52//52 34//34
f 34//34 35//35 158//158
f 34//34 56//56 35//35
f 434//434 39//39 448//448
f 30//30 25//25 32//32
f 429//429 157//157 139//139
f 158//158 35//35 435//435
f 435//435 35//35 449//449
f 432//432 24//24 433//433
f 36//36 37//37 38//38
f 24//24 432//432 32//32
f 433//433 24//24 28//28
f 40//40 38//38 37//37
f 41//41 434//434 436//436
f 434//434 41//41 39//39
f 41//41 436//436 161//161
f 430//430 487//487 40//40
f 430//430 162//162 487//487
f 487//487 162//162 163//163
f 6//6 45//45 30//30
f 45//45 42//42 46//46
f 42//42 43//43 46//46
f 45//45 6//6 42//42
f 46//46 43//43 47//47
f 51//51 439//439 438//438
f 51//51 438//438 441//441
f 8//8 54//54 48//48
f 30//30 45//45 49//49
f 46//46 50//50 49//49
f 49//49 45//45 46//46
f 50//50 46//46 47//47
f 443//443 440//440 444//444
f 445//445 442//442 55//55
f 442//442 447//447 55//55
f 50//50 31//31 49//49
f 55//55 53//53 445//445
f 31//31 50//50 52//52
f 443//443 444//444 52//52
f 52//52 444//444 446//446
f 30//30 32//32 6//6
f 54//54 8//8 57//57
f 449//449 55//55 447//447
f 55//55 449//449 35//35
f 33//33 31//31 52//52
f 52//52 56//56 34//34
f 56//56 52//52 446//446
f 56//56 446//446 35//35
f 35//35 446//446 55//55
f 5//5 32//32 7//7
f 32//32 448//448 7//7
f 448//448 32//32 434//434
f 58//58 204//204 59//59
f 59//59 209//209 60//60
f 60//60 209//209 212//212
f 60//60 212//212 62//62
f 212//212 214//214 62//62
f 59//59 61//61 58//58
f 450//450 61//61 215//215
f 60//60 63//63 59//59
f 63//63 60//60 62//62
f 61//61 64//64 215//215
f 9//9 61//61 59//59
f 64//64 61//61 9//9
f 59//59 63//63 9//9
f 66//66 63//63 62//62
f 65//65 64//64 68//68
f 215//215 64//64 65//65
f 62//62 217//217 66//66
f 65//65 68//68 67//67
f 451//451 67//67 218//218
f 217//217 221//221 66//66
f 68//68 13//13 12//12
f 69//69 67//67 12//12
f 67//67 68//68 12//12
f 221//221 15//15 66//66
f 69//69 12//12 70//70
f 15//15 11//11 66//66
f 221//221 74//74 15//15
f 70//70 71//71 69//69
f 73//73 76//76 72//72
f 73//73 70//70 16//16
f 71//71 70//70 73//73
f 71//71 73//73 72//72
f 72//72 224//224 453//453
f 19//19 15//15 74//74
f 455//455 73//73 454//454
f 76//76 224//224 72//72
f 221//221 225//225 74//74
f 231//231 455//455 454//454
f 74//74 79//79 19//19
f 225//225 79//79 74//74
f 80//80 77//77 78//78
f 77//77 230//230 456//456
f 454//454 456//456 231//231
f 456//456 230//230 231//231
f 19//19 82//82 23//23
f 79//79 82//82 19//19
f 82//82 79//79 245//245
f 21//21 81//81 236//236
f 236//236 80//80 21//21
f 81//81 22//22 84//84
f 21//21 80//80 78//78
f 23//23 82//82 87//87
f 84//84 83//83 81//81
f 81//81 83//83 236//236
f 84//84 242//242 83//83
f 85//85 84//84 22//22
f 85//85 22//22 86//86
f 85//85 86//86 251//251
f 86//86 87//87 251//251
f 86//86 23//23 87//87
f 245//245 87//87 82//82
f 87//87 245//245 244//244
f 108//108 100//100 91//91
f 88//88 91//91 100//100
f 88//88 100//100 102//102
f 457//457 93//93 458//458
f 93//93 457//457 106//106
f 462//462 88//88 102//102
f 93//93 106//106 118//118
f 108//108 89//89 109//109
f 109//109 89//89 119//119
f 89//89 94//94 119//119
f 89//89 91//91 90//90
f 89//89 108//108 91//91
f 90//90 94//94 89//89
f 90//90 458//458 92//92
f 95//95 94//94 90//90
f 95//95 90//90 92//92
f 458//458 93//93 92//92
f 92//92 96//96 95//95
f 93//93 96//96 92//92
f 459//459 93//93 118//118
f 254//254 459//459 118//118
f 94//94 97//97 119//119
f 95//95 461//461 94//94
f 96//96 97//97 95//95
f 98//98 100//100 108//108
f 111//111 98//98 108//108
f 98//98 101//101 100//100
f 99//99 101//101 98//98
f 98//98 111//111 99//99
f 114//114 99//99 111//111
f 102//102 100//100 101//101
f 102//102 101//101 103//103
f 103//103 101//101 99//99
f 99//99 114//114 103//103
f 104//104 102//102 103//103
f 104//104 103//103 105//105
f 105//105 103//103 114//114
f 105//105 114//114 115//115
f 462//462 102//102 104//104
f 117//117 105//105 115//115
f 107//107 118//118 106//106
f 104//104 463//463 462//462
f 463//463 104//104 105//105
f 105//105 117//117 463//463
f 463//463 117//117 118//118
f 109//109 110//110 108//108
f 109//109 119//119 110//110
f 108//108 110//110 111//111
f 110//110 112//112 111//111
f 110//110 120//120 112//112
f 111//111 112//112 113//113
f 114//114 111//111 113//113
f 112//112 120//120 121//121
f 121//121 113//113 112//112
f 114//114 113//113 115//115
f 113//113 121//121 115//115
f 116//116 115//115 121//121
f 115//115 116//116 117//117
f 117//117 122//122 118//118
f 122//122 117//117 116//116
f 119//119 123//123 110//110
f 110//110 123//123 120//120
f 120//120 123//123 121//121
f 121//121 124//124 116//116
f 122//122 116//116 125//125
f 118//118 126//126 254//254
f 118//118 122//122 126//126
f 126//126 122//122 125//125
f 119//119 128//128 123//123
f 119//119 97//97 464//464
f 124//124 123//123 129//129
f 123//123 124//124 121//121
f 124//124 129//129 127//127
f 116//116 124//124 125//125
f 127//127 125//125 124//124
f 123//123 128//128 465//465
f 129//129 134//134 127//127
f 125//125 127//127 131//131
f 503//503 130//130 460//460
f 126//126 131//131 255//255
f 125//125 131//131 126//126
f 465//465 128//128 137//137
f 132//132 464//464 97//97
f 468//468 464//464 132//132
f 466//466 97//97 96//96
f 131//131 127//127 135//135
f 503//503 256//256 130//130
f 133//133 130//130 256//256
f 136//136 129//129 468//468
f 136//136 134//134 129//129
f 466//466 132//132 97//97
f 467//467 132//132 466//466
f 468//468 132//132 138//138
f 132//132 467//467 138//138
f 467//467 259//259 138//138
f 135//135 127//127 134//134
f 135//135 134//134 136//136
f 258//258 135//135 136//136
f 468//468 147//147 136//136
f 136//136 147//147 151//151
f 136//136 473//473 153//153
f 183//183 468//468 138//138
f 139//139 157//157 141//141
f 146//146 142//142 139//139
f 139//139 141//141 146//146
f 141//141 159//159 143//143
f 140//140 145//145 144//144
f 149//149 144//144 145//145
f 140//140 142//142 145//145
f 145//145 142//142 146//146
f 146//146 141//141 469//469
f 160//160 263//263 143//143
f 145//145 154//154 149//149
f 145//145 260//260 154//154
f 145//145 146//146 260//260
f 469//469 511//511 146//146
f 144//144 168//168 28//28
f 144//144 149//149 168//168
f 149//149 156//156 168//168
f 151//151 147//147 148//148
f 486//486 148//148 147//147
f 156//156 147//147 468//468
f 150//150 156//156 149//149
f 148//148 471//471 151//151
f 471//471 152//152 151//151
f 148//148 486//486 471//471
f 476//476 470//470 480//480
f 472//472 470//470 476//476
f 478//478 474//474 155//155
f 481//481 475//475 477//477
f 482//482 476//476 480//480
f 260//260 483//483 154//154
f 138//138 298//298 183//183
f 156//156 468//468 183//183
f 168//168 156//156 183//183
f 298//298 138//138 259//259
f 159//159 158//158 435//435
f 437//437 159//159 435//435
f 157//157 158//158 141//141
f 141//141 158//158 159//159
f 159//159 437//437 160//160
f 437//437 488//488 160//160
f 160//160 488//488 490//490
f 160//160 491//491 263//263
f 160//160 143//143 159//159
f 512//512 163//163 264//264
f 28//28 168//168 489//489
f 169//169 163//163 162//162
f 264//264 163//163 164//164
f 164//164 163//163 169//169
f 164//164 169//169 165//165
f 170//170 165//165 169//169
f 492//492 167//167 513//513
f 494//494 164//164 165//165
f 166//166 165//165 170//170
f 494//494 165//165 166//166
f 170//170 178//178 166//166
f 178//178 175//175 166//166
f 514//514 495//495 269//269
f 265//265 518//518 496//496
f 497//497 493//493 265//265
f 266//266 265//265 175//175
f 265//265 493//493 175//175
f 168//168 171//171 489//489
f 162//162 171//171 169//169
f 171//171 170//170 169//169
f 178//178 170//170 171//171
f 172//172 179//179 173//173
f 172//172 282//282 286//286
f 173//173 180//180 174//174
f 174//174 185//185 173//173
f 179//179 172//172 176//176
f 175//175 178//178 179//179
f 179//179 180//180 173//173
f 176//176 172//172 266//266
f 175//175 176//176 266//266
f 179//179 176//176 175//175
f 174//174 180//180 291//291
f 307//307 174//174 291//291
f 178//178 171//171 177//177
f 179//179 177//177 180//180
f 180//180 177//177 181//181
f 178//178 177//177 179//179
f 181//181 291//291 180//180
f 181//181 292//292 291//291
f 171//171 181//181 177//177
f 171//171 182//182 181//181
f 168//168 183//183 171//171
f 182//182 171//171 183//183
f 181//181 182//182 292//292
f 182//182 183//183 187//187
f 182//182 187//187 309//309
f 188//188 187//187 183//183
f 298//298 312//312 184//184
f 183//183 298//298 184//184
f 183//183 184//184 193//193
f 190//190 185//185 191//191
f 189//189 301//301 190//190
f 190//190 172//172 185//185
f 301//301 282//282 172//172
f 172//172 190//190 301//301
f 172//172 173//173 185//185
f 174//174 186//186 185//185
f 187//187 310//310 309//309
f 184//184 320//320 193//193
f 187//187 188//188 192//192
f 186//186 314//314 191//191
f 186//186 317//317 314//314
f 185//185 186//186 191//191
f 183//183 193//193 188//188
f 199//199 319//319 192//192
f 193//193 195//195 188//188
f 323//323 189//189 194//194
f 194//194 335//335 323//323
f 189//189 190//190 194//194
f 190//190 191//191 194//194
f 188//188 195//195 192//192
f 195//195 201//201 192//192
f 198//198 192//192 201//201
f 192//192 198//198 199//199
f 320//320 196//196 193//193
f 334//334 335//335 194//194
f 194//194 197//197 334//334
f 347//347 533//533 197//197
f 194//194 191//191 197//197
f 191//191 346//346 197//197
f 191//191 314//314 346//346
f 198//198 200//200 199//199
f 193//193 201//201 195//195
f 193//193 196//196 201//201
f 196//196 332//332 202//202
f 356//356 202//202 332//332
f 198//198 201//201 200//200
f 357//357 200//200 203//203
f 204//204 200//200 201//201
f 204//204 203//203 200//200
f 202//202 201//201 196//196
f 202//202 205//205 201//201
f 205//205 202//202 359//359
f 201//201 205//205 204//204
f 205//205 359//359 206//206
f 206//206 359//359 362//362
f 204//204 207//207 203//203
f 203//203 498//498 361//361
f 204//204 58//58 207//207
f 498//498 450//450 208//208
f 363//363 498//498 208//208
f 498//498 363//363 361//361
f 205//205 59//59 204//204
f 59//59 205//205 209//209
f 209//209 205//205 206//206
f 450//450 211//211 208//208
f 212//212 209//209 210//210
f 212//212 210//210 214//214
f 206//206 210//210 209//209
f 210//210 368//368 213//213
f 213//213 214//214 210//210
f 450//450 215//215 211//211
f 211//211 215//215 216//216
f 500//500 216//216 369//369
f 217//217 62//62 214//214
f 213//213 217//217 214//214
f 372//372 217//217 213//213
f 216//216 215//215 451//451
f 216//216 451//451 218//218
f 372//372 220//220 217//217
f 217//217 220//220 221//221
f 373//373 220//220 372//372
f 218//218 67//67 69//69
f 219//219 218//218 222//222
f 220//220 222//222 223//223
f 220//220 223//223 221//221
f 218//218 452//452 222//222
f 222//222 220//220 219//219
f 452//452 453//453 224//224
f 222//222 452//452 224//224
f 225//225 221//221 223//223
f 222//222 501//501 226//226
f 222//222 226//226 223//223
f 501//501 233//233 226//226
f 226//226 225//225 223//223
f 240//240 225//225 226//226
f 224//224 76//76 233//233
f 226//226 233//233 240//240
f 225//225 240//240 79//79
f 227//227 77//77 236//236
f 227//227 229//229 77//77
f 227//227 228//228 229//229
f 228//228 227//227 239//239
f 228//228 374//374 229//229
f 228//228 380//380 381//381
f 380//380 228//228 239//239
f 77//77 229//229 230//230
f 229//229 374//374 230//230
f 230//230 232//232 502//502
f 385//385 232//232 230//230
f 232//232 76//76 502//502
f 76//76 232//232 233//233
f 239//239 238//238 235//235
f 238//238 234//234 235//235
f 235//235 234//234 375//375
f 375//375 234//234 386//386
f 386//386 387//387 375//375
f 227//227 236//236 238//238
f 237//237 238//238 236//236
f 236//236 83//83 237//237
f 238//238 237//237 234//234
f 386//386 234//234 237//237
f 227//227 238//238 239//239
f 80//80 236//236 77//77
f 240//240 233//233 409//409
f 244//244 245//245 240//240
f 240//240 245//245 79//79
f 241//241 237//237 83//83
f 386//386 237//237 241//241
f 393//393 386//386 241//241
f 392//392 393//393 241//241
f 242//242 241//241 83//83
f 246//246 410//410 242//242
f 242//242 392//392 241//241
f 392//392 242//242 410//410
f 246//246 242//242 84//84
f 244//244 252//252 87//87
f 253//253 252//252 244//244
f 244//244 243//243 253//253
f 244//244 240//240 243//243
f 409//409 243//243 240//240
f 247//247 410//410 246//246
f 410//410 247//247 411//411
f 85//85 246//246 84//84
f 246//246 249//249 247//247
f 249//249 248//248 247//247
f 248//248 249//249 250//250
f 414//414 411//411 247//247
f 414//414 247//247 248//248
f 415//415 248//248 250//250
f 248//248 415//415 414//414
f 85//85 249//249 246//246
f 85//85 251//251 249//249
f 251//251 250//250 249//249
f 87//87 252//252 251//251
f 250//250 252//252 253//253
f 250//250 251//251 252//252
f 255//255 254//254 126//126
f 255//255 131//131 257//257
f 254//254 255//255 504//504
f 131//131 135//135 257//257
f 505//505 133//133 256//256
f 257//257 258//258 255//255
f 135//135 258//258 257//257
f 255//255 258//258 504//504
f 256//256 279//279 505//505
f 504//504 258//258 279//279
f 258//258 262//262 279//279
f 258//258 136//136 510//510
f 261//261 510//510 136//136
f 261//261 136//136 153//153
f 146//146 278//278 260//260
f 508//508 479//479 484//484
f 509//509 485//485 506//506
f 507//507 520//520 261//261
f 261//261 520//520 510//510
f 279//279 262//262 278//278
f 271//271 286//286 287//287
f 511//511 515//515 267//267
f 516//516 519//519 270//270
f 265//265 266//266 268//268
f 268//268 518//518 265//265
f 286//286 271//271 266//266
f 266//266 271//271 268//268
f 146//146 511//511 274//274
f 511//511 267//267 274//274
f 270//270 267//267 516//516
f 519//519 517//517 270//270
f 267//267 270//270 276//276
f 272//272 276//276 270//270
f 517//517 272//272 270//270
f 268//268 271//271 272//272
f 276//276 272//272 277//277
f 271//271 273//273 272//272
f 272//272 273//273 277//277
f 287//287 273//273 271//271
f 287//287 289//289 273//273
f 146//146 274//274 278//278
f 275//275 267//267 276//276
f 275//275 278//278 274//274
f 267//267 275//275 274//274
f 275//275 276//276 278//278
f 278//278 276//276 294//294
f 294//294 276//276 277//277
f 277//277 273//273 294//294
f 278//278 296//296 279//279
f 294//294 296//296 278//278
f 280//280 298//298 259//259
f 279//279 521//521 505//505
f 296//296 521//521 279//279
f 281//281 283//283 282//282
f 301//301 281//281 282//282
f 301//301 299//299 281//281
f 281//281 284//284 283//283
f 281//281 300//300 284//284
f 282//282 283//283 286//286
f 286//286 283//283 287//287
f 284//284 287//287 283//283
f 287//287 285//285 289//289
f 287//287 284//284 285//285
f 284//284 303//303 285//285
f 284//284 300//300 303//303
f 303//303 306//306 288//288
f 289//289 285//285 303//303
f 303//303 288//288 289//289
f 288//288 290//290 289//289
f 522//522 308//308 523//523
f 308//308 522//522 306//306
f 172//172 286//286 266//266
f 291//291 293//293 307//307
f 307//307 293//293 527//527
f 308//308 524//524 523//523
f 289//289 294//294 273//273
f 291//291 292//292 293//293
f 294//294 289//289 296//296
f 296//296 289//289 290//290
f 295//295 523//523 524//524
f 295//295 526//526 523//523
f 293//293 292//292 182//182
f 182//182 309//309 525//525
f 293//293 182//182 525//525
f 526//526 295//295 297//297
f 313//313 521//521 296//296
f 312//312 320//320 184//184
f 298//298 280//280 312//312
f 280//280 313//313 312//312
f 299//299 189//189 324//324
f 299//299 300//300 281//281
f 299//299 328//328 300//300
f 303//303 300//300 316//316
f 301//301 189//189 299//299
f 303//303 316//316 318//318
f 318//318 302//302 306//306
f 317//317 305//305 302//302
f 305//305 308//308 306//306
f 305//305 306//306 302//302
f 303//303 318//318 306//306
f 304//304 186//186 307//307
f 305//305 304//304 527//527
f 317//317 304//304 305//305
f 186//186 174//174 307//307
f 527//527 304//304 307//307
f 311//311 528//528 530//530
f 295//295 529//529 297//297
f 310//310 187//187 319//319
f 530//530 531//531 311//311
f 529//529 311//311 297//297
f 297//297 311//311 417//417
f 540//540 419//419 297//297
f 322//322 312//312 313//313
f 320//320 312//312 321//321
f 312//312 322//322 321//321
f 324//324 328//328 299//299
f 328//328 316//316 300//300
f 328//328 327//327 316//316
f 330//330 314//314 317//317
f 316//316 329//329 318//318
f 186//186 304//304 317//317
f 302//302 330//330 317//317
f 315//315 330//330 302//302
f 302//302 318//318 315//315
f 319//319 187//187 192//192
f 417//417 311//311 531//531
f 321//321 332//332 320//320
f 418//418 322//322 313//313
f 418//418 313//313 419//419
f 321//321 322//322 333//333
f 332//332 321//321 333//333
f 322//322 422//422 333//333
f 418//418 422//422 322//322
f 324//324 323//323 325//325
f 323//323 335//335 325//325
f 324//324 325//325 326//326
f 325//325 338//338 326//326
f 341//341 326//326 338//338
f 341//341 327//327 326//326
f 329//329 327//327 345//345
f 341//341 345//345 327//327
f 323//323 324//324 189//189
f 314//314 349//349 348//348
f 324//324 326//326 328//328
f 326//326 327//327 328//328
f 330//330 315//315 354//354
f 329//329 316//316 327//327
f 345//345 355//355 329//329
f 329//329 355//355 318//318
f 318//318 355//355 315//315
f 330//330 349//349 314//314
f 331//331 319//319 199//199
f 531//531 423//423 417//417
f 320//320 332//332 196//196
f 333//333 422//422 424//424
f 336//336 325//325 335//335
f 335//335 334//334 336//336
f 534//534 533//533 337//337
f 337//337 533//533 347//347
f 337//337 339//339 534//534
f 347//347 348//348 337//337
f 338//338 325//325 336//336
f 535//535 534//534 339//339
f 337//337 340//340 339//339
f 535//535 339//339 342//342
f 339//339 340//340 344//344
f 342//342 339//339 344//344
f 353//353 344//344 340//340
f 342//342 345//345 341//341
f 535//535 342//342 341//341
f 345//345 342//342 343//343
f 342//342 344//344 343//343
f 343//343 344//344 352//352
f 353//353 352//352 344//344
f 345//345 343//343 355//355
f 346//346 314//314 348//348
f 347//347 197//197 346//346
f 347//347 346//346 348//348
f 350//350 348//348 349//349
f 337//337 348//348 350//350
f 349//349 330//330 351//351
f 349//349 351//351 350//350
f 340//340 337//337 350//350
f 330//330 354//354 351//351
f 351//351 353//353 340//340
f 350//350 351//351 340//340
f 354//354 315//315 355//355
f 352//352 354//354 355//355
f 354//354 352//352 353//353
f 351//351 354//354 353//353
f 343//343 352//352 355//355
f 331//331 199//199 357//357
f 531//531 532//532 423//423
f 200//200 357//357 199//199
f 333//333 356//356 332//332
f 357//357 423//423 532//532
f 357//357 203//203 361//361
f 423//423 357//357 361//361
f 423//423 426//426 421//421
f 359//359 202//202 356//356
f 358//358 356//356 333//333
f 424//424 358//358 333//333
f 358//358 424//424 360//360
f 426//426 423//423 361//361
f 356//356 358//358 359//359
f 358//358 360//360 536//536
f 358//358 362//362 359//359
f 360//360 364//364 536//536
f 537//537 426//426 361//361
f 360//360 425//425 364//364
f 426//426 537//537 365//365
f 538//538 366//366 426//426
f 206//206 362//362 367//367
f 367//367 536//536 364//364
f 367//367 364//364 368//368
f 500//500 365//365 499//499
f 499//499 365//365 537//537
f 539//539 366//366 538//538
f 366//366 539//539 370//370
f 367//367 210//210 206//206
f 365//365 500//500 369//369
f 210//210 367//367 368//368
f 364//364 370//370 368//368
f 364//364 366//366 370//370
f 368//368 370//370 372//372
f 368//368 372//372 213//213
f 369//369 216//216 371//371
f 371//371 370//370 539//539
f 216//216 218//218 371//371
f 373//373 370//370 371//371
f 372//372 370//370 373//373
f 373//373 371//371 218//218
f 218//218 219//219 373//373
f 373//373 219//219 220//220
f 381//381 374//374 228//228
f 384//384 374//374 382//382
f 376//376 239//239 235//235
f 376//376 235//235 375//375
f 380//380 239//239 376//376
f 376//376 375//375 377//377
f 377//377 375//375 387//387
f 376//376 378//378 380//380
f 378//378 376//376 379//379
f 379//379 376//376 377//377
f 379//379 377//377 389//389
f 389//389 377//377 387//387
f 379//379 383//383 378//378
f 390//390 383//383 379//379
f 389//389 390//390 379//379
f 390//390 397//397 383//383
f 380//380 378//378 381//381
f 374//374 381//381 382//382
f 378//378 383//383 381//381
f 381//381 383//383 382//382
f 397//397 400//400 383//383
f 383//383 400//400 382//382
f 406//406 382//382 400//400
f 230//230 374//374 384//384
f 384//384 385//385 230//230
f 406//406 384//384 382//382
f 232//232 385//385 409//409
f 232//232 409//409 233//233
f 387//387 386//386 388//388
f 389//389 387//387 388//388
f 391//391 389//389 388//388
f 390//390 389//389 391//391
f 397//397 390//390 391//391
f 394//394 392//392 410//410
f 386//386 393//393 388//388
f 393//393 392//392 394//394
f 388//388 395//395 391//391
f 395//395 388//388 393//393
f 395//395 393//393 394//394
f 396//396 395//395 394//394
f 396//396 394//394 411//411
f 395//395 398//398 391//391
f 396//396 398//398 395//395
f 396//396 399//399 398//398
f 400//400 397//397 401//401
f 397//397 391//391 398//398
f 398//398 401//401 397//397
f 401//401 398//398 399//399
f 399//399 413//413 408//408
f 400//400 401//401 402//402
f 400//400 402//402 406//406
f 399//399 402//402 401//401
f 407//407 402//402 408//408
f 408//408 402//402 399//399
f 403//403 384//384 406//406
f 384//384 403//403 385//385
f 409//409 385//385 403//403
f 404//404 409//409 403//403
f 407//407 405//405 404//404
f 413//413 405//405 408//408
f 406//406 407//407 403//403
f 406//406 402//402 407//407
f 403//403 407//407 404//404
f 405//405 407//407 408//408
f 416//416 409//409 404//404
f 416//416 404//404 405//405
f 416//416 243//243 409//409
f 394//394 410//410 411//411
f 396//396 411//411 413//413
f 413//413 411//411 412//412
f 413//413 399//399 396//396
f 405//405 412//412 416//416
f 405//405 413//413 412//412
f 250//250 253//253 415//415
f 415//415 253//253 416//416
f 412//412 411//411 414//414
f 412//412 415//415 416//416
f 414//414 415//415 412//412
f 253//253 243//243 416//416
f 296//296 419//419 313//313
f 526//526 297//297 419//419
f 420//420 418//418 419//419
f 422//422 418//418 420//420
f 421//421 540//540 423//423
f 540//540 421//421 419//419
f 420//420 419//419 421//421
f 424//424 422//422 420//420
f 425//425 424//424 420//420
f 360//360 424//424 425//425
f 420//420 421//421 425//425
f 426//426 425//425 421//421
f 426//426 366//366 425//425
f 364//364 425//425 366//366
