# Wavafront OBJ file of BodyParts3D
# BodyParts3D, Copyright(C) 2010-2011 The Database Center for Life Science licensed under CC Attribution-Share Alike 2.1 Japan.
vn -0.0455128 0.755865 -0.653143
v 18.0567 -107.895 1542.26
vn 0.0754307 0.46437 -0.882423
v 19.3014 -109.511 1541.06
vn -0.266138 0.063404 -0.961847
v 18.1606 -110.778 1540.76
vn -0.116368 0.8749 -0.470115
v 17.7859 -106.847 1543.88
vn -0.496159 0.771048 -0.399137
v 16.7368 -107.457 1543.46
vn -0.428843 0.551962 -0.715145
v 17.0447 -108.546 1541.87
vn -0.41644 0.283884 -0.863706
v 17.1486 -109.491 1541.34
vn -0.647291 -0.0751128 -0.758533
v 16.611 -110.576 1541.55
vn -0.801595 0.597007 -0.0320558
v 15.784 -107.681 1545.91
vn -0.834531 0.43108 -0.343115
v 15.6165 -108.497 1543.68
vn -0.78326 0.179594 -0.595188
v 15.877 -109.787 1542.41
vn -0.953127 0.051661 -0.298128
v 15.4993 -109.879 1543.13
vn -0.878785 -0.178612 -0.442531
v 15.6913 -110.593 1542.79
vn 0.100979 0.732818 -0.67289
v 24.8549 -98.7465 1547.94
vn 0.0621841 0.496006 -0.866089
v 24.6553 -99.311 1547.48
vn 0.406156 0.682783 -0.607326
v 25.0233 -98.6509 1548.16
vn 0.62909 0.470658 -0.618649
v 25.0533 -98.8289 1547.98
vn 0.896511 0.370549 -0.242821
v 25.1814 -98.9666 1548.12
vn 0.832475 0.550571 0.0620964
v 25.1359 -98.7543 1548.36
vn 0.92756 0.372062 0.0346657
v 25.3594 -99.3041 1548.55
vn -0.00416436 0.397599 -0.91755
v 24.5544 -100.178 1547.1
vn -0.0211432 0.334991 -0.941984
v 24.8043 -101.209 1546.76
vn 0.489575 0.433699 -0.756453
v 25.0802 -100.613 1547.08
vn 0.329163 0.47172 -0.818005
v 25.2437 -101.111 1546.87
vn -0.408901 0.64958 -0.640972
v 24.4653 -99.0738 1547.7
vn -0.766008 0.63233 -0.115718
v 24.3678 -98.9679 1548.02
vn -0.42574 0.407623 -0.807829
v 24.1725 -99.508 1547.58
vn -0.400306 0.899274 -0.176241
v 24.6347 -98.7059 1548.05
vn -0.326243 0.893438 0.308762
v 24.9695 -98.6762 1548.57
vn -0.576683 0.653516 0.490259
v 24.6496 -98.8781 1548.65
vn 0.0134744 0.613522 0.789563
v 24.8809 -98.9071 1548.81
vn -0.411487 0.301325 -0.860164
v 24.2915 -100.394 1547.08
vn -0.482969 0.367396 -0.794834
v 23.6931 -101.754 1547.13
vn 0.202287 0.572176 -0.794792
v 21.6901 -110.374 1541.36
vn -0.769179 0.637699 0.0412763
v 22.6283 -101.848 1548.13
vn -0.288852 0.469279 -0.834471
v 21.8269 -104.241 1546.72
vn -0.0674134 0.580717 -0.81131
v 21.6583 -105.062 1546.25
vn 0.24936 0.731148 -0.635013
v 19.8029 -107.516 1543.23
vn 0.117972 0.748929 -0.652065
v 20.9765 -106.577 1544.81
vn -0.0966275 0.0553519 -0.99378
v 19.409 -111.898 1540.58
vn -0.300869 -0.369668 -0.879104
v 19.0305 -113.169 1540.99
vn -0.273672 0.837008 -0.473837
v 19.9625 -105.222 1546.72
vn -0.460536 -0.275344 -0.843856
v 17.761 -112.089 1541.12
vn -0.729407 -0.400753 -0.554402
v 16.637 -112.074 1542.06
vn -0.563894 -0.55812 -0.608708
v 17.7589 -113.098 1541.72
vn -0.555415 0.558043 -0.616524
v 18.9176 -105.336 1548.19
vn -0.506631 0.851791 -0.133332
v 17.2814 -106.303 1546.34
vn -0.701817 0.667447 0.248933
v 16.8963 -106.706 1547.52
vn -0.968253 -0.214347 -0.12861
v 15.3889 -110.713 1543.96
vn -0.861763 -0.419063 -0.285921
v 15.9452 -111.852 1543.22
vn -0.930952 0.287643 0.22492
v 15.6148 -108.242 1546.8
vn -0.811978 0.392041 0.432429
v 16.1649 -108.052 1548.04
vn -0.985998 0.161615 -0.0410914
v 15.2398 -109.112 1545.17
vn -0.992629 -0.0782582 0.0925345
v 15.2454 -110.28 1546
vn 0.36152 0.784081 -0.5045
v 26.8226 -102.816 1546.3
vn -0.275637 0.525726 -0.804758
v 27.1883 -104.327 1544.69
vn 0.285131 0.825553 -0.486994
v 27.9824 -103.941 1545.11
vn -0.351871 0.487145 -0.799297
v 26.3685 -106.451 1544.2
vn -0.0591504 0.478018 -0.876356
v 24.6827 -112.148 1540.13
vn 0.876619 0.375151 0.30133
v 25.5525 -99.8867 1548.88
vn 0.785731 0.417008 -0.456872
v 25.5082 -100.491 1547.6
vn 0.648176 0.558662 -0.517459
v 25.707 -101.35 1547.04
vn 0.903381 0.393578 -0.170293
v 25.8409 -100.73 1548.25
vn 0.831998 0.521481 -0.189305
v 26.2823 -101.706 1547.76
vn 0.684367 0.698789 -0.208173
v 26.6798 -102.346 1547.22
vn 0.907703 0.41555 0.0582444
v 26.1492 -101.435 1548.72
vn 0.0647397 0.455374 -0.887943
v 25.5807 -102.313 1546.32
vn -0.271691 0.330678 -0.90379
v 25.0269 -102.965 1546.18
vn 0.058517 0.636262 -0.769251
v 26.0512 -102.83 1546.01
vn 0.429326 0.642399 -0.634825
v 26.1885 -102.319 1546.51
vn 0.725441 0.50237 0.470489
v 25.2899 -99.2891 1548.88
vn -0.334408 0.515256 0.789102
v 24.5419 -99.8649 1549.36
vn -0.0202555 0.486358 0.873525
v 24.8086 -100.18 1549.61
vn 0.473924 0.461075 0.750204
v 25.3067 -100.23 1549.53
vn -0.275118 0.384726 -0.881076
v 23.6216 -104.447 1546.3
vn -0.122036 0.569464 -0.812907
v 23.0443 -106.583 1545.3
vn 0.207082 0.65969 -0.722444
v 22.0763 -107.533 1544.46
vn -0.605572 0.581469 0.543301
v 22.4025 -102.765 1550
vn -0.760047 0.621048 0.191387
v 21.9577 -102.73 1549.26
vn -0.3326 -0.713728 -0.616417
v 19.7566 -114.677 1541.68
vn -0.62167 0.62839 0.467603
v 20.4489 -104.582 1549.95
vn -0.532148 -0.746034 -0.400315
v 18.6091 -114.771 1542.92
vn -0.858269 -0.509885 -0.0582406
v 16.1842 -112.773 1544.47
vn -0.718812 -0.644514 -0.260598
v 17.1942 -113.924 1543.72
vn -0.650657 0.448538 0.612747
v 17.492 -107.678 1549.57
vn -0.89136 0.059161 0.449419
v 15.9391 -109.813 1548.52
vn -0.767279 0.218389 0.602984
v 16.5866 -109.147 1549.36
vn -0.949857 -0.163581 0.266482
v 15.4754 -110.515 1547.12
vn -0.839111 -0.274159 0.469818
v 16.114 -110.814 1548.6
vn -0.908694 -0.404457 0.103388
v 15.6154 -111.59 1546.02
vn 0.312333 0.648668 -0.69403
v 29.8121 -106.098 1542.73
vn 0.225784 0.423376 -0.877368
v 29.8461 -106.736 1542.34
vn 0.652651 0.46956 -0.594609
v 30.3166 -106.512 1542.69
vn 0.879335 0.45195 -0.150037
v 30.682 -106.378 1543.66
vn 0.468072 0.299529 -0.831379
v 30.3885 -107.921 1542.11
vn 0.0835258 0.335287 -0.938406
v 29.3446 -109.294 1541.33
vn 0.209416 0.801672 -0.559881
v 28.9781 -104.95 1543.7
vn 0.613504 0.728159 -0.305612
v 30.0344 -105.462 1543.89
vn 0.788588 0.61095 0.0697732
v 30.1049 -105.381 1545.05
vn -0.122512 0.50642 -0.853539
v 29.3463 -106.188 1542.61
vn -0.286451 0.443757 -0.849132
v 28.9546 -107.773 1542.03
vn 0.188887 0.123833 -0.97416
v 27.5107 -112.127 1540.26
vn 0.30016 -0.276014 -0.913083
v 27.0581 -113.446 1540.19
vn 0.583612 0.800311 -0.137478
v 28.2994 -103.827 1546.05
vn 0.00689521 -0.141498 -0.989914
v 25.3885 -113.58 1539.93
vn -0.115018 -0.503744 -0.856162
v 24.6927 -114.648 1540.29
vn 0.762214 0.623659 0.173431
v 26.7721 -102.582 1548.84
vn 0.694092 0.437647 0.571578
v 26.2336 -102.782 1550.24
vn -0.134942 0.356628 0.924449
v 24.1816 -103.021 1550.96
vn 0.218464 0.360082 0.906981
v 24.9353 -102.808 1550.91
vn -0.153965 -0.952868 -0.261414
v 21.2344 -115.505 1542.36
vn -0.439524 0.414044 0.797111
v 21.7223 -104.496 1550.88
vn -0.531229 -0.839421 -0.114758
v 18.1332 -114.84 1544.01
vn -0.344027 -0.901564 -0.262351
v 19.3239 -115.204 1543.08
vn -0.730679 -0.668687 0.137715
v 17.2687 -114.002 1546.26
vn -0.589379 0.19292 0.784484
v 17.5751 -109.204 1550.39
vn -0.727026 -0.050808 0.684727
v 16.9994 -110.197 1549.96
vn -0.834608 -0.470056 0.287188
v 16.3257 -112.221 1547.52
vn 0.911554 0.263781 -0.315417
v 31.0953 -107.887 1543.08
vn 0.781791 0.194519 -0.592423
v 30.8617 -108.502 1542.33
vn 0.963497 0.0425742 -0.264313
v 31.2794 -108.886 1543.15
vn 0.509159 0.0965755 -0.855237
v 30.1095 -109.76 1541.42
vn 0.845841 -0.0580421 -0.530268
v 30.9019 -109.894 1542.16
vn 0.753458 -0.270116 -0.599448
v 30.1471 -111.817 1541.79
vn 0.492909 -0.161341 -0.854991
v 28.6174 -112.388 1540.63
vn 0.58996 -0.496278 -0.636911
v 28.5732 -114.093 1541.39
vn 0.763545 0.525502 0.375295
v 28.8455 -104.948 1548.77
vn 0.320016 -0.568335 -0.758013
v 26.7269 -114.823 1540.73
vn 0.356816 -0.79628 -0.488488
v 26.9018 -115.282 1541.31
vn 0.111211 -0.536226 -0.836716
v 25.4439 -114.972 1540.51
vn 0.15626 -0.757094 -0.634344
v 25.6931 -115.251 1540.81
vn 0.120502 -0.913366 -0.388898
v 25.9691 -115.434 1541.18
vn -0.060941 -0.815304 -0.575818
v 25.1367 -115.313 1540.84
vn 0.00709141 -0.96014 -0.279428
v 24.9586 -115.689 1541.78
vn -0.0743582 0.180561 0.980749
v 22.8807 -106.9 1551.92
vn -0.221811 -0.974806 0.0235331
v 19.7442 -115.599 1545.8
vn -0.285269 0.160496 0.944914
v 20.652 -108.949 1551.89
vn -0.394655 -0.802333 0.447783
v 19.1727 -114.59 1548.72
vn -0.472786 -0.874734 0.106368
v 18.7648 -115.241 1546.17
vn -0.538329 -0.792244 0.287319
v 18.6375 -114.864 1547.4
vn -0.279144 -0.922252 0.267449
v 19.4043 -115.29 1547.12
vn -0.430763 0.128504 0.893269
v 19.2852 -109.789 1551.49
vn -0.495347 -0.135308 0.858093
v 18.6511 -111.164 1551.14
vn -0.689072 -0.577399 0.437938
v 17.7302 -113.025 1549.44
vn -0.625079 -0.329862 0.707438
v 17.8281 -111.907 1550.38
vn -0.468784 -0.59992 0.648334
v 18.5505 -113.154 1550.16
vn 0.982624 0.179845 -0.0458944
v 31.4426 -108.421 1544.59
vn 0.995541 -0.0839839 -0.0429549
v 31.5067 -109.786 1544.81
vn 0.935303 -0.269704 -0.229059
v 31.141 -110.654 1543.18
vn 0.935233 0.330915 0.125838
v 31.1949 -107.709 1545.83
vn 0.975712 0.0358672 0.216102
v 31.4243 -109.205 1546.17
vn 0.816807 -0.467279 -0.338344
v 29.8646 -112.9 1542.18
vn 0.635744 -0.730475 -0.24947
v 28.5667 -114.737 1542.33
vn 0.87513 0.340155 0.344154
v 30.3828 -107.01 1547.9
vn 0.241187 -0.948588 -0.204962
v 26.8896 -115.648 1542.51
vn 0.462178 -0.886393 -0.026447
v 27.7956 -115.517 1543.78
vn 0.718255 0.277633 0.637989
v 29.1491 -107.124 1549.96
vn 0.0177536 -0.992516 -0.120817
v 24.9757 -115.95 1543.05
vn 0.183172 -0.982567 -0.031769
v 26.5354 -115.892 1544.1
vn 0.468485 0.27963 0.838051
v 27.3196 -105.94 1551.03
vn 0.181629 0.152515 0.971468
v 25.6734 -105.966 1551.61
vn -0.0974327 -0.94802 0.302927
v 20.9804 -115.424 1547.71
vn -0.275054 -0.136334 0.951713
v 20.0818 -110.817 1551.8
vn -0.0843572 -0.0319542 0.995923
v 21.5047 -109.965 1552.16
vn -0.0173864 -0.324433 0.945749
v 21.5739 -111.302 1551.9
vn -0.172904 -0.718162 0.674053
v 20.0175 -113.897 1550.17
vn -0.158185 -0.878895 0.450022
v 20.4869 -114.886 1548.86
vn -0.252906 -0.463368 0.849311
v 19.7463 -112.849 1550.98
vn 0.947543 -0.312578 0.0667645
v 31.0815 -111.643 1545.95
vn 0.843213 -0.529759 -0.0913692
v 30.1959 -113.266 1544.62
vn 0.865561 0.049799 0.498321
v 30.4316 -108.922 1548.77
vn 0.884888 -0.281782 0.370907
v 30.6087 -111.636 1547.87
vn 0.821145 -0.548156 0.158893
v 30.4703 -112.739 1546.49
vn 0.706401 -0.707341 0.0258043
v 29.3695 -114.298 1545.29
vn 0.706905 -0.0123757 0.7072
v 29.5192 -109.185 1549.96
vn 0.517064 -0.199716 0.832321
v 28.6471 -110.499 1550.49
vn 0.727999 -0.273515 0.628655
v 29.9051 -111.372 1549.08
vn 0.612595 -0.761614 0.211357
v 28.8374 -114.478 1547.07
vn 0.320665 -0.936284 0.143339
v 26.9488 -115.678 1546.54
vn 0.492416 0.0673807 0.867748
v 28.0286 -108.055 1551.09
vn 0.324525 -0.0976189 0.940826
v 26.892 -109.532 1551.53
vn 0.220605 -0.824568 0.52098
v 26.2483 -115.169 1548.69
vn 0.107301 -0.933459 0.342257
v 25.866 -115.559 1548.01
vn 0.00562464 -0.997204 0.0745216
v 24.9355 -116.06 1546.03
vn 0.132211 -0.0839441 0.987661
v 25.1387 -109.925 1551.94
vn 0.24683 -0.30843 0.918665
v 25.4173 -111.995 1551.36
vn 0.106562 -0.540075 0.834843
v 25.5474 -113.145 1550.81
vn 0.000217133 -0.80399 0.594642
v 24.6972 -114.727 1549.54
vn 0.702288 -0.550952 0.450826
v 29.5021 -113.446 1547.91
vn 0.472782 -0.441689 0.762488
v 27.9353 -112.49 1550.2
vn 0.402243 -0.849343 0.341784
v 27.513 -115.043 1548
vn 0.484788 -0.684332 0.544674
v 27.8712 -114.431 1548.7
vn 0.243409 -0.661284 0.709546
v 25.9591 -114.365 1549.79
vn -0.0889345 0.98036 -0.176025
v 25.0233 -98.6509 1548.16
vn 0.844158 0.458074 -0.278506
v 25.0233 -98.6509 1548.16
vn 0.544281 0.829888 0.122656
v 25.0233 -98.6509 1548.16
vn -0.80838 0.539758 -0.234909
v 24.1725 -99.508 1547.58
vn 0.591412 0.689481 0.418148
v 24.9695 -98.6762 1548.57
vn -0.651214 0.392811 -0.649323
v 22.6283 -101.848 1548.13
vn -0.450405 0.855998 -0.253778
v 21.8269 -104.241 1546.72
vn -0.571317 0.819055 0.0524033
v 18.9176 -105.336 1548.19
f 1//1 4//4 38//38
f 1//1 38//38 2//2
f 2//2 6//6 1//1
f 3//3 2//2 40//40
f 3//3 7//7 2//2
f 8//8 7//7 3//3
f 5//5 6//6 10//10
f 6//6 11//11 10//10
f 5//5 1//1 6//6
f 4//4 1//1 5//5
f 2//2 7//7 6//6
f 6//6 7//7 11//11
f 7//7 8//8 11//11
f 11//11 8//8 13//13
f 8//8 43//43 44//44
f 13//13 8//8 44//44
f 13//13 44//44 50//50
f 4//4 5//5 47//47
f 47//47 5//5 9//9
f 51//51 9//9 53//53
f 5//5 10//10 9//9
f 10//10 53//53 9//9
f 12//12 10//10 11//11
f 13//13 12//12 11//11
f 12//12 53//53 10//10
f 12//12 13//13 49//49
f 53//53 12//12 49//49
f 25//25 14//14 15//15
f 14//14 25//25 28//28
f 15//15 27//27 25//25
f 16//16 17//17 14//14
f 17//17 15//15 14//14
f 28//28 29//29 194//194
f 28//28 194//194 14//14
f 19//19 18//18 195//195
f 195//195 18//18 17//17
f 23//23 15//15 17//17
f 19//19 196//196 198//198
f 18//18 61//61 17//17
f 17//17 61//61 23//23
f 19//19 20//20 18//18
f 71//71 19//19 198//198
f 20//20 19//19 71//71
f 20//20 66//66 18//18
f 15//15 21//21 27//27
f 21//21 32//32 27//27
f 21//21 24//24 22//22
f 21//21 22//22 32//32
f 22//22 68//68 32//32
f 24//24 67//67 22//22
f 23//23 21//21 15//15
f 24//24 21//21 23//23
f 22//22 67//67 68//68
f 62//62 24//24 23//23
f 62//62 23//23 61//61
f 26//26 30//30 28//28
f 28//28 25//25 26//26
f 25//25 197//197 26//26
f 26//26 197//197 79//79
f 30//30 26//26 79//79
f 29//29 28//28 30//30
f 35//35 79//79 197//197
f 71//71 198//198 31//31
f 31//31 29//29 30//30
f 30//30 72//72 31//31
f 27//27 32//32 199//199
f 68//68 33//33 32//32
f 32//32 33//33 199//199
f 33//33 46//46 199//199
f 46//46 33//33 36//36
f 40//40 2//2 34//34
f 40//40 34//34 59//59
f 201//201 79//79 35//35
f 200//200 42//42 201//201
f 36//36 37//37 42//42
f 37//37 39//39 42//42
f 37//37 77//77 39//39
f 39//39 38//38 4//4
f 39//39 4//4 42//42
f 38//38 39//39 77//77
f 38//38 34//34 2//2
f 38//38 77//77 34//34
f 40//40 43//43 3//3
f 3//3 43//43 8//8
f 41//41 43//43 40//40
f 41//41 40//40 105//105
f 41//41 45//45 43//43
f 42//42 47//47 201//201
f 4//4 47//47 42//42
f 43//43 45//45 44//44
f 84//84 44//44 45//45
f 50//50 44//44 84//84
f 82//82 84//84 45//45
f 48//48 47//47 9//9
f 47//47 48//48 201//201
f 201//201 48//48 81//81
f 49//49 13//13 50//50
f 83//83 49//49 50//50
f 50//50 84//84 83//83
f 51//51 48//48 9//9
f 52//52 48//48 51//51
f 52//52 51//51 86//86
f 53//53 54//54 51//51
f 51//51 54//54 88//88
f 88//88 54//54 90//90
f 86//86 51//51 88//88
f 54//54 53//53 49//49
f 90//90 54//54 49//49
f 49//49 83//83 90//90
f 97//97 56//56 57//57
f 97//97 100//100 56//56
f 55//55 57//57 69//69
f 69//69 57//57 56//56
f 57//57 55//55 65//65
f 56//56 101//101 58//58
f 101//101 59//59 58//58
f 66//66 20//20 60//60
f 20//20 71//71 60//60
f 18//18 66//66 63//63
f 18//18 63//63 61//61
f 108//108 66//66 60//60
f 24//24 62//62 70//70
f 62//62 61//61 64//64
f 64//64 61//61 63//63
f 66//66 64//64 63//63
f 64//64 65//65 62//62
f 65//65 70//70 62//62
f 55//55 70//70 65//65
f 33//33 68//68 75//75
f 67//67 69//69 68//68
f 24//24 70//70 67//67
f 70//70 69//69 67//67
f 69//69 56//56 68//68
f 68//68 56//56 75//75
f 55//55 69//69 70//70
f 58//58 75//75 56//56
f 75//75 58//58 76//76
f 76//76 58//58 59//59
f 59//59 105//105 40//40
f 72//72 73//73 31//31
f 74//74 71//71 31//31
f 112//112 72//72 30//30
f 74//74 60//60 71//71
f 73//73 74//74 31//31
f 72//72 109//109 73//73
f 109//109 72//72 112//112
f 109//109 110//110 73//73
f 108//108 60//60 74//74
f 74//74 73//73 110//110
f 75//75 36//36 33//33
f 37//37 36//36 75//75
f 75//75 76//76 37//37
f 77//77 37//37 76//76
f 77//77 76//76 59//59
f 34//34 77//77 59//59
f 105//105 106//106 41//41
f 78//78 30//30 79//79
f 78//78 112//112 30//30
f 45//45 41//41 80//80
f 80//80 82//82 45//45
f 41//41 106//106 80//80
f 80//80 114//114 82//82
f 201//201 81//81 79//79
f 78//78 79//79 81//81
f 78//78 81//81 112//112
f 113//113 84//84 82//82
f 83//83 84//84 115//115
f 81//81 48//48 85//85
f 85//85 48//48 52//52
f 52//52 86//86 87//87
f 87//87 85//85 52//52
f 85//85 87//87 116//116
f 87//87 86//86 117//117
f 117//117 86//86 89//89
f 90//90 118//118 88//88
f 89//89 86//86 88//88
f 90//90 83//83 115//115
f 90//90 115//115 118//118
f 115//115 144//144 118//118
f 97//97 91//91 100//100
f 98//98 91//91 97//97
f 91//91 93//93 92//92
f 91//91 92//92 100//100
f 92//92 96//96 100//100
f 91//91 98//98 93//93
f 93//93 95//95 92//92
f 95//95 96//96 92//92
f 93//93 120//120 95//95
f 93//93 119//119 120//120
f 93//93 98//98 94//94
f 119//119 93//93 94//94
f 122//122 96//96 95//95
f 122//122 95//95 120//120
f 122//122 102//102 96//96
f 98//98 97//97 104//104
f 98//98 99//99 94//94
f 99//99 98//98 104//104
f 99//99 104//104 107//107
f 100//100 101//101 56//56
f 96//96 101//101 100//100
f 96//96 59//59 101//101
f 96//96 102//102 59//59
f 59//59 102//102 105//105
f 102//102 125//125 103//103
f 104//104 57//57 65//65
f 65//65 107//107 104//104
f 104//104 97//97 57//57
f 103//103 105//105 102//102
f 103//103 130//130 105//105
f 130//130 106//106 105//105
f 133//133 106//106 130//130
f 64//64 66//66 65//65
f 108//108 107//107 66//66
f 66//66 107//107 65//65
f 133//133 80//80 106//106
f 111//111 80//80 133//133
f 110//110 108//108 74//74
f 161//161 109//109 135//135
f 110//110 109//109 161//161
f 111//111 114//114 80//80
f 109//109 112//112 135//135
f 136//136 139//139 113//113
f 114//114 113//113 82//82
f 136//136 114//114 111//111
f 113//113 114//114 136//136
f 85//85 112//112 81//81
f 112//112 85//85 116//116
f 140//140 144//144 115//115
f 144//144 140//140 138//138
f 115//115 113//113 139//139
f 113//113 115//115 84//84
f 139//139 140//140 115//115
f 116//116 142//142 112//112
f 87//87 117//117 116//116
f 117//117 89//89 145//145
f 89//89 88//88 118//118
f 144//144 89//89 118//118
f 119//119 94//94 147//147
f 121//121 147//147 148//148
f 119//119 147//147 121//121
f 119//119 121//121 120//120
f 120//120 121//121 123//123
f 121//121 149//149 123//123
f 122//122 125//125 102//102
f 120//120 123//123 122//122
f 123//123 124//124 122//122
f 125//125 122//122 124//124
f 149//149 124//124 123//123
f 99//99 107//107 127//127
f 150//150 147//147 94//94
f 94//94 99//99 150//150
f 103//103 125//125 126//126
f 103//103 126//126 128//128
f 126//126 125//125 124//124
f 128//128 130//130 103//103
f 126//126 129//129 128//128
f 131//131 128//128 129//129
f 129//129 126//126 153//153
f 153//153 155//155 129//129
f 129//129 155//155 132//132
f 130//130 128//128 131//131
f 131//131 133//133 130//130
f 131//131 132//132 133//133
f 131//131 129//129 132//132
f 107//107 108//108 127//127
f 157//157 127//127 108//108
f 132//132 134//134 133//133
f 134//134 111//111 133//133
f 155//155 134//134 132//132
f 155//155 158//158 134//134
f 134//134 158//158 111//111
f 155//155 159//159 158//158
f 184//184 111//111 158//158
f 184//184 136//136 111//111
f 139//139 136//136 141//141
f 112//112 137//137 135//135
f 137//137 112//112 142//142
f 164//164 135//135 137//137
f 141//141 138//138 140//140
f 141//141 140//140 139//139
f 142//142 163//163 137//137
f 116//116 117//117 143//143
f 145//145 143//143 117//117
f 143//143 142//142 116//116
f 168//168 143//143 145//145
f 143//143 163//163 142//142
f 168//168 163//163 143//143
f 145//145 89//89 144//144
f 145//145 146//146 168//168
f 138//138 146//146 144//144
f 146//146 145//145 144//144
f 138//138 166//166 146//146
f 147//147 151//151 148//148
f 121//121 148//148 149//149
f 154//154 99//99 127//127
f 99//99 154//154 150//150
f 150//150 154//154 151//151
f 154//154 171//171 151//151
f 147//147 150//150 151//151
f 170//170 152//152 149//149
f 153//153 152//152 170//170
f 149//149 152//152 124//124
f 152//152 126//126 124//124
f 126//126 152//152 153//153
f 170//170 174//174 153//153
f 171//171 154//154 157//157
f 153//153 156//156 155//155
f 156//156 153//153 174//174
f 174//174 178//178 156//156
f 179//179 156//156 178//178
f 157//157 154//154 127//127
f 157//157 108//108 160//160
f 160//160 180//180 157//157
f 157//157 180//180 175//175
f 155//155 156//156 159//159
f 156//156 179//179 159//159
f 108//108 110//110 160//160
f 161//161 160//160 110//110
f 160//160 161//161 180//180
f 159//159 184//184 158//158
f 162//162 136//136 184//184
f 135//135 164//164 185//185
f 185//185 164//164 165//165
f 141//141 136//136 162//162
f 162//162 188//188 167//167
f 164//164 137//137 163//163
f 165//165 164//164 163//163
f 185//185 165//165 186//186
f 168//168 165//165 163//163
f 187//187 165//165 168//168
f 166//166 138//138 167//167
f 166//166 167//167 188//188
f 166//166 188//188 187//187
f 166//166 187//187 168//168
f 141//141 167//167 138//138
f 162//162 167//167 141//141
f 166//166 168//168 146//146
f 172//172 151//151 171//171
f 148//148 169//169 149//149
f 151//151 169//169 148//148
f 170//170 149//149 169//169
f 169//169 151//151 172//172
f 170//170 169//169 173//173
f 173//173 174//174 170//170
f 171//171 157//157 175//175
f 177//177 175//175 176//176
f 171//171 175//175 177//177
f 171//171 177//177 172//172
f 172//172 173//173 169//169
f 177//177 189//189 172//172
f 172//172 189//189 173//173
f 178//178 174//174 173//173
f 175//175 180//180 176//176
f 180//180 181//181 176//176
f 177//177 176//176 190//190
f 183//183 179//179 191//191
f 179//179 178//178 191//191
f 179//179 184//184 159//159
f 161//161 181//181 180//180
f 176//176 181//181 186//186
f 179//179 183//183 184//184
f 185//185 161//161 135//135
f 185//185 181//181 161//161
f 181//181 185//185 186//186
f 186//186 165//165 187//187
f 186//186 187//187 190//190
f 190//190 187//187 193//193
f 188//188 183//183 182//182
f 187//187 188//188 193//193
f 188//188 182//182 193//193
f 162//162 184//184 183//183
f 183//183 188//188 162//162
f 186//186 190//190 176//176
f 189//189 177//177 190//190
f 173//173 189//189 178//178
f 192//192 178//178 189//189
f 189//189 190//190 192//192
f 178//178 192//192 191//191
f 192//192 190//190 193//193
f 191//191 182//182 183//183
f 192//192 193//193 182//182
f 191//191 192//192 182//182
