# Wavafront OBJ file of BodyParts3D
# BodyParts3D, Copyright(C) 2010-2011 The Database Center for Life Science licensed under CC Attribution-Share Alike 2.1 Japan.
vn -0.842891 -0.526027 -0.113273
v -1.52599 -75.0177 1503.85
vn -0.975885 -0.195466 -0.0971722
v -1.69597 -74.067 1502.7
vn -0.931919 -0.36234 -0.0154004
v -1.61301 -74.842 1503.87
vn -0.97134 -0.218101 0.0944979
v -1.66491 -74.6651 1503.89
vn -0.993552 -0.0613405 0.0953507
v -1.68872 -74.4872 1503.92
vn -0.96424 -0.141237 0.224261
v -1.672 -74.4974 1504
vn -0.98347 0.136491 0.118985
v -1.672 -74.3186 1504.03
vn -0.927064 -0.32665 0.183992
v -1.59436 -74.8528 1503.97
vn -0.295703 -0.166661 0.940629
v -1.53267 -74.1736 1504.14
vn -0.985199 0.166026 0.0426322
v -1.67377 -73.177 1501.35
vn -0.893003 0.413041 0.178726
v -1.64069 -73.3957 1502.42
vn -0.991562 0.11996 0.0491294
v -1.708 -73.6881 1502.56
vn -0.374472 -0.0874305 0.923107
v -1.5376 -74.0468 1504.15
vn -0.718381 0.579739 0.384489
v -1.42944 -73.8629 1504.09
vn -0.787883 -0.558206 -0.26009
v -1.28657 -71.8824 1496.8
vn -0.895761 0.415807 0.157217
v -1.54693 -72.804 1501.31
vn -0.784179 0.569854 0.245621
v -1.52767 -73.1921 1502.35
vn -0.763406 -0.594338 -0.25293
v -1.30429 -71.1292 1495.08
vn -0.87123 -0.449065 -0.19824
v -1.41242 -71.1984 1495.62
vn -0.967223 -0.22948 -0.108713
v -1.53457 -71.4553 1496.94
vn -0.992208 0.118328 0.0390214
v -1.53701 -71.2089 1497.15
vn -0.889399 0.424774 0.168928
v -1.47044 -71.4373 1498.31
vn -0.767787 -0.603639 -0.21476
v -1.17548 -69.7304 1491.08
vn -0.97322 -0.207499 -0.0989323
v -1.53524 -70.9346 1495.65
vn -0.957812 0.271912 0.0930648
v -1.5257 -70.7204 1496.13
vn -0.771114 0.596848 0.22171
v -1.34269 -70.4674 1496.34
vn -0.907849 -0.391886 -0.149115
v -1.30815 -68.7264 1488.76
vn -0.913428 -0.379206 -0.147821
v -1.3257 -69.313 1490.59
vn -0.999523 0.0202852 -0.0232764
v -1.40702 -68.9584 1490.63
vn -0.979413 -0.176921 -0.0972068
v -1.47102 -69.7254 1492.44
vn -0.998447 0.0550121 -0.00873541
v -1.48054 -69.5361 1492.37
vn -0.93819 0.335217 0.0861887
v -1.44243 -69.357 1492.49
vn -0.831576 0.526787 0.176005
v -1.36305 -69.7602 1494.25
vn -0.821925 -0.540838 -0.178699
v -1.09214 -67.9805 1485.68
vn -0.940037 -0.318492 -0.12204
v -1.211 -67.9715 1486.31
vn -0.984317 -0.155609 -0.0831061
v -1.2629 -67.7946 1486.33
vn -0.997688 -0.0377864 -0.0564879
v -1.31366 -67.8725 1486.96
vn -0.990016 -0.127021 -0.0611007
v -1.38579 -68.5722 1488.96
vn -0.94962 0.3055 0.0699367
v -1.34629 -68.2132 1489
vn -0.945183 0.317092 0.0779862
v -1.37485 -68.7893 1490.74
vn -0.789145 0.587986 0.177546
v -1.27075 -69.1032 1492.61
vn -0.929718 -0.349716 -0.115425
v -1.12799 -66.5333 1481.23
vn -0.938741 -0.328814 -0.103185
v -1.15813 -67.1855 1483.6
vn -0.991922 -0.115364 -0.052747
v -1.20771 -66.843 1483
vn -0.997502 0.0705604 0.00324993
v -1.21932 -66.6864 1483.2
vn -0.996995 -0.07057 -0.0319372
v -1.21048 -67.0304 1483.8
vn -0.97014 0.235638 0.0574739
v -1.18106 -66.8046 1484.19
vn -0.970921 0.235698 0.0419427
v -1.22015 -67.1044 1485.15
vn -0.994918 0.10057 -0.00493794
v -1.27125 -67.6161 1486.35
vn -0.930199 0.358563 0.0785002
v -1.19852 -67.3502 1486.48
vn -0.857807 -0.500947 -0.114974
v -0.931823 -64.8517 1474.18
vn -0.863004 -0.491951 -0.114926
v -0.97106 -65.4149 1476.56
vn -0.964419 -0.256375 -0.0645576
v -1.06438 -65.2721 1476.85
vn -0.986163 -0.15827 -0.0493352
v -1.04817 -65.4914 1477.91
vn -0.999675 0.0206051 0.0150131
v -1.06404 -65.2697 1477.58
vn -0.993985 0.108772 -0.0127248
v -1.07265 -65.3461 1478.2
vn -0.989604 -0.119806 -0.0795659
v -1.12489 -65.6029 1478.8
vn -0.966532 0.25568 0.0210484
v -1.11402 -65.4454 1479.01
vn -0.896299 -0.417516 -0.149429
v -1.02833 -65.9679 1478.85
vn -0.998523 0.0540748 -0.00535376
v -1.19526 -66.1781 1481.27
vn -0.916632 0.38989 0.0881588
v -1.13529 -66.0157 1481.56
vn -0.969942 0.239151 0.0449393
v -1.18462 -66.4628 1482.87
vn -0.777245 -0.0617032 -0.626166
v -0.889503 -63.9115 1470.94
vn -0.95748 -0.235698 -0.166368
v -0.986688 -64.0479 1471.29
vn -0.982697 0.0887998 -0.162544
v -0.992001 -63.8584 1471.22
vn -0.989439 0.143857 -0.0177668
v -1.01538 -63.9028 1471.58
vn -0.812161 -0.540289 -0.220186
v -0.901066 -64.2236 1471.27
vn -0.839347 -0.523992 -0.14467
v -0.936868 -64.2575 1471.54
vn -0.875908 -0.377117 -0.300945
v -0.912516 -64.1129 1471.1
vn -0.922879 -0.143319 -0.357426
v -0.938903 -63.9242 1471.03
vn -0.909947 0.182187 -0.372565
v -0.94378 -63.8349 1471.04
vn -0.893484 0.441143 -0.0841322
v -0.934316 -63.6776 1471.24
vn -0.869556 0.490996 0.0528788
v -0.952079 -63.7217 1471.6
vn -0.976916 -0.201837 -0.0699814
v -1.01732 -64.1034 1471.73
vn -0.949664 0.308031 0.0570519
v -1.00666 -64.0366 1472.74
vn -0.997896 -0.0637249 -0.0119117
v -1.03922 -64.4002 1473.42
vn -0.928731 -0.362972 -0.0755621
v -0.991076 -64.5555 1473.22
vn -0.969829 -0.238758 -0.0492608
v -1.00199 -64.6755 1474.2
vn -0.995415 0.0953986 0.00693598
v -1.02715 -64.5628 1474.76
vn -0.9001 0.430636 0.0661286
v -0.984366 -64.4912 1475.68
vn -0.996582 0.0807693 0.0173269
v -1.08699 -64.983 1476.7
vn -0.949849 0.304495 0.0711977
v -1.03139 -64.8348 1477
vn -0.462259 -0.834691 -0.299345
v -0.743418 -75.7338 1503.6
vn 0.512063 -0.794984 -0.325257
v -0.563473 -75.7301 1503.6
vn -0.622021 -0.769567 -0.144419
v -0.963353 -75.6123 1503.7
vn 0.0140713 -0.933228 -0.359008
v -0.652852 -75.8001 1503.68
vn -0.0387613 -0.440038 0.897142
v -0.658168 -75.6977 1503.75
vn 0.184311 -0.554187 0.811731
v -0.568224 -75.6943 1503.75
vn -0.375983 -0.832349 -0.407224
v -0.739101 -75.369 1502.83
vn 0.424835 -0.813662 -0.396824
v -0.559265 -75.3625 1502.83
vn -0.242059 -0.400055 0.883948
v -1.21621 -75.2787 1503.86
vn -0.726269 -0.675133 -0.129338
v -1.11625 -75.4613 1503.72
vn -0.398831 -0.604346 0.68971
v -1.11891 -75.4511 1503.82
vn -0.550021 -0.755633 -0.355662
v -0.809277 -73.1555 1498.47
vn 0.0120422 -0.901785 -0.432017
v -0.62911 -73.3443 1498.72
vn 0.575731 -0.737389 -0.353258
v -0.54011 -73.2646 1498.64
vn -0.230226 -0.0089711 0.973096
v -1.01624 -73.5984 1504.28
vn -0.594386 -0.737003 -0.321763
v -0.799153 -72.3338 1496.67
vn -0.226243 -0.893193 -0.388614
v -0.706303 -72.3531 1496.58
vn 0.291648 -0.874956 -0.386515
v -0.614369 -72.2528 1496.34
vn -0.66407 0.695382 0.274691
v -0.669248 -72.9573 1503.85
vn -0.648957 0.70569 0.284352
v -0.75956 -73.1619 1504.18
vn -0.355704 0.0963143 0.929623
v -0.760523 -73.2325 1504.34
vn -0.575977 0.752348 0.319723
v -0.672464 -73.1292 1504.26
vn -0.645583 -0.707752 -0.286897
v -0.875912 -71.3537 1494.52
vn -0.535847 -0.783105 -0.315616
v -0.687564 -71.3561 1494.16
vn 0.391547 -0.853238 -0.344494
v -0.598661 -71.3781 1494.25
vn -0.639335 0.705346 0.306166
v -0.652692 -71.7586 1501.21
vn -0.601194 -0.749346 -0.277573
v -0.750522 -70.3167 1491.57
vn -0.478115 -0.827318 -0.294875
v -0.665205 -70.3964 1491.65
vn 0.615462 -0.74088 -0.268891
v -0.483622 -70.3288 1491.75
vn -0.734392 0.627586 0.258467
v -1.23301 -71.0493 1498.18
vn -0.216804 0.910217 0.352848
v -0.629854 -70.481 1498.17
vn -0.557371 -0.790915 -0.252571
v -0.7847 -68.3067 1485.64
vn -0.308513 -0.90474 -0.293711
v -0.691198 -68.3428 1485.55
vn -0.604983 -0.754945 -0.253087
v -0.790962 -68.5157 1486.25
vn -0.652568 -0.719162 -0.238665
v -0.944472 -68.5744 1486.88
vn -0.389259 -0.879437 -0.273984
v -0.709218 -68.8759 1487.19
vn -0.509386 -0.820068 -0.260796
v -0.809413 -68.9929 1487.83
vn 0.130319 -0.943566 -0.304467
v -0.628119 -69.1296 1487.99
vn 0.592917 -0.76521 -0.250804
v -0.459431 -69.2594 1488.71
vn -0.72096 0.655768 0.224019
v -1.20505 -69.5721 1494.28
vn -0.396937 0.862461 0.314009
v -0.694222 -69.4495 1495.39
vn 0.455158 0.838866 0.298553
v -0.602986 -69.4273 1495.3
vn -0.571754 0.762929 0.301723
v -0.717109 -70.447 1497.99
vn 0.590491 -0.770494 -0.240123
v -0.472117 -67.2985 1482.51
vn -0.528552 -0.811683 -0.248604
v -0.75803 -67.618 1483.37
vn -0.36252 -0.88941 -0.278441
v -0.661531 -67.5196 1482.93
vn -0.456402 -0.849533 -0.264558
v -0.673564 -67.8975 1484.06
vn 0.28154 -0.915134 -0.288557
v -0.585602 -67.8968 1484.16
vn -0.440075 -0.860458 -0.256798
v -0.67906 -68.0205 1484.5
vn -0.708624 0.677138 0.198334
v -1.07536 -68.2125 1490.37
vn -0.686968 0.690931 0.225144
v -0.677721 -68.8693 1493.74
vn 0.569006 0.780666 0.258443
v -0.589093 -68.9915 1494
vn -0.635436 -0.752372 -0.173658
v -0.675264 -65.7812 1476.8
vn 0.307043 -0.926426 -0.217851
v -0.588282 -65.8082 1476.98
vn -0.43677 -0.841411 -0.318214
v -0.691691 -66.0461 1477.94
vn -0.642128 -0.745291 -0.179481
v -0.686629 -65.9119 1477.5
vn 0.0785773 -0.947269 -0.310656
v -0.599925 -66.0374 1477.85
vn -0.201419 -0.946535 -0.251996
v -0.594591 -65.9102 1477.42
vn 0.637739 -0.743766 -0.200253
v -0.508857 -65.9052 1477.6
vn -0.758082 -0.620487 -0.200768
v -0.857512 -66.097 1478.48
vn -0.386956 -0.868755 -0.309078
v -0.693383 -66.1612 1478.2
vn 0.322089 -0.908111 -0.26757
v -0.611575 -66.3723 1478.9
vn -0.265157 0.929254 0.25725
v -0.610236 -67.2212 1488.14
vn -0.761877 0.625514 0.168151
v -1.13409 -67.8044 1488.69
vn -0.531037 0.815956 0.228508
v -0.725732 -67.8355 1490.24
vn 0.615153 0.752647 0.234751
v -0.653983 -68.1581 1491.56
vn -0.424163 -0.873245 -0.239851
v -0.693002 -64.5061 1471.42
vn -0.327033 -0.728331 -0.602149
v -0.687167 -64.3013 1470.99
vn -0.380688 -0.818142 -0.430952
v -0.687108 -64.3774 1471.11
vn 0.239298 -0.85819 -0.454144
v -0.596496 -64.4231 1471.16
vn 0.404636 -0.897442 -0.175692
v -0.598293 -64.4827 1471.33
vn -0.525174 -0.825677 -0.206034
v -0.795414 -64.5734 1472.23
vn -0.206442 -0.950656 -0.231592
v -0.703488 -64.6217 1472.22
vn -0.0498111 -0.989191 -0.137916
v -0.697942 -64.5529 1471.87
vn -0.065162 -0.963632 -0.259166
v -0.613191 -64.6283 1472.22
vn 0.227726 -0.960614 -0.159252
v -0.606827 -64.5276 1471.78
vn 0.658636 -0.734751 -0.162295
v -0.434758 -64.4799 1472.06
vn -0.315761 -0.904215 -0.28756
v -0.707683 -64.7782 1472.66
vn -0.196482 -0.929714 -0.31149
v -0.705557 -64.6743 1472.4
vn 0.246584 -0.928549 -0.277477
v -0.615313 -64.6794 1472.4
vn -0.77006 -0.621952 -0.142066
v -0.89281 -64.7307 1473.2
vn 0.501522 -0.841763 -0.199777
v -0.644858 -65.2943 1474.68
vn -0.504894 -0.84203 -0.189914
v -0.65606 -65.4291 1475.39
vn 0.658457 -0.732257 -0.173883
v -0.397765 -65.3362 1475.77
vn -0.688096 -0.708091 -0.158527
v -0.860509 -65.6155 1476.76
vn -0.88273 -0.452204 -0.127669
v -0.97118 -65.6469 1477.71
vn -0.70026 -0.680083 -0.217079
v -0.849778 -65.8201 1477.69
vn -0.798152 0.585179 0.143244
v -0.99766 -65.724 1481.33
vn -0.648053 0.736258 0.194813
v -0.878783 -65.6623 1481.61
vn -0.189255 0.949137 0.251637
v -0.70754 -65.6492 1481.98
vn 0.142739 0.959945 0.241105
v -0.618927 -65.6653 1482.07
vn -0.867578 0.482619 0.119947
v -1.07326 -66.3344 1483.34
vn -0.582783 0.790848 0.186879
v -0.818955 -66.157 1483.73
vn 0.0378434 0.975508 0.216685
v -0.641122 -66.0462 1483.66
vn 0.610092 0.77067 0.184001
v -0.451616 -66.0768 1483.29
vn -0.631003 0.756557 0.171631
v -0.654443 -66.1794 1484.46
vn -0.630641 -0.315565 -0.709021
v -0.820741 -64.0878 1470.92
vn -0.810669 -0.359991 -0.46176
v -0.874884 -64.0995 1471
vn -0.735127 0.222081 -0.640522
v -0.883652 -63.8206 1470.95
vn -0.507425 0.0213215 -0.861432
v -0.784607 -63.8968 1470.86
vn -0.550492 0.405257 -0.729881
v -0.796237 -63.7216 1470.9
vn -0.357588 -0.532443 -0.767226
v -0.68924 -64.1666 1470.87
vn -0.337943 -0.259088 -0.904803
v -0.69182 -64.0714 1470.83
vn 0.0715836 -0.706542 -0.704042
v -0.597625 -64.2355 1470.91
vn 0.0311919 -0.513156 -0.857729
v -0.598972 -64.161 1470.85
vn -0.0278494 -0.317116 -0.947978
v -0.601418 -64.0649 1470.81
vn -0.170985 -0.0756337 -0.982366
v -0.604355 -63.972 1470.79
vn -0.23018 0.231298 -0.945261
v -0.611171 -63.7926 1470.8
vn -0.165142 0.597446 -0.784721
v -0.619108 -63.6207 1470.88
vn 0.375398 -0.677956 -0.632022
v -0.508737 -64.2058 1470.92
vn 0.308659 -0.506953 -0.804815
v -0.421887 -64.0604 1470.83
vn 0.135135 -0.233901 -0.962823
v -0.424493 -63.9653 1470.79
vn 0.0263602 0.102397 -0.994394
v -0.429254 -63.8284 1470.78
vn 0.083378 0.457078 -0.88551
v -0.434831 -63.697 1470.82
vn 0.197255 0.714481 -0.671273
v -0.439144 -63.6134 1470.88
vn 0.631289 -0.634442 -0.446046
v -0.33324 -64.0877 1470.93
vn 0.511472 -0.422654 -0.748171
v -0.335059 -63.9653 1470.82
vn 0.352428 -0.0754329 -0.932794
v -0.337893 -63.8718 1470.79
vn 0.269703 0.316409 -0.909475
v -0.341288 -63.782 1470.8
vn 0.527866 0.815504 -0.2373
v -0.352877 -63.5827 1470.99
vn 0.743832 -0.506009 -0.436657
v -0.247056 -63.9749 1470.93
vn 0.773289 -0.197408 -0.602539
v -0.220511 -63.8765 1470.87
vn 0.919756 -0.261892 -0.292339
v -0.184207 -63.886 1470.96
vn 0.45872 0.18056 -0.870043
v -0.252109 -63.7837 1470.84
vn 0.94082 0.195175 -0.277063
v -0.182059 -63.7965 1470.97
vn 0.57859 0.581373 -0.572047
v -0.255554 -63.699 1470.89
vn 0.814728 0.571799 -0.0962537
v -0.223465 -63.7086 1470.98
vn -0.657648 -0.657892 -0.366986
v -0.784745 -64.2871 1471.08
vn -0.654699 -0.542143 -0.526735
v -0.8189 -64.188 1471
vn -0.781526 -0.525275 -0.336604
v -0.85706 -64.2003 1471.09
vn -0.798491 0.472611 -0.372895
v -0.8875 -63.6541 1471.07
vn 0.730526 -0.654337 -0.195385
v -0.336509 -64.2151 1471.28
vn 0.808343 -0.575567 -0.123715
v -0.280972 -64.2447 1471.64
vn 0.723155 0.690596 0.0111465
v -0.282889 -63.6323 1471.08
vn 0.77513 0.621893 0.111456
v -0.290337 -63.6978 1471.62
vn 0.833256 -0.508395 -0.217299
v -0.209061 -63.9872 1471.04
vn 0.917156 -0.391763 -0.0731167
v -0.198273 -64.0086 1471.22
vn 0.955298 -0.285477 -0.0768632
v -0.200355 -64.0413 1471.49
vn 0.981194 -0.186569 -0.0495034
v -0.183947 -64.0624 1471.66
vn 0.981666 -0.168225 -0.0896194
v -0.170383 -63.8964 1471.05
vn 0.999462 -0.0326591 -0.00284178
v -0.186967 -63.9514 1471.5
vn 0.97146 0.237114 0.00650829
v -0.16964 -63.807 1471.06
vn 0.951724 0.300466 0.0627752
v -0.198869 -63.8624 1471.51
vn 0.96658 0.253193 0.0402021
v -0.190891 -63.8839 1471.69
vn 0.865699 0.494073 0.0803594
v -0.214308 -63.7409 1471.25
vn -0.770257 0.626144 0.121027
v -0.910281 -63.8724 1472.85
vn 0.933291 -0.349591 -0.0821782
v -0.237995 -64.4063 1472.98
vn 0.990299 0.138201 0.0144074
v -0.215209 -64.2158 1472.91
vn -0.662468 0.738616 0.124826
v -0.849874 -63.9686 1473.66
vn 0.553288 0.818664 0.153826
v -0.484759 -63.8286 1473.23
vn 0.548066 0.823298 0.147665
v -0.493513 -63.9207 1473.76
vn 0.792984 0.60055 0.102546
v -0.333531 -64.0062 1473.39
vn 0.903053 0.42716 0.0450529
v -0.218129 -64.2352 1473.82
vn -0.894293 0.440529 0.0785801
v -0.946742 -64.2482 1474.44
vn 0.338889 0.933803 0.114744
v -0.588375 -63.9025 1473.94
vn 0.626357 0.771184 0.113807
v -0.403689 -64.0207 1473.93
vn -0.755226 0.6458 0.112142
v -0.707648 -64.1025 1475.55
vn 0.752541 0.649128 0.110972
v -0.325419 -64.3454 1475.44
vn -0.814601 0.567968 0.117632
v -0.942117 -64.6202 1476.75
vn 0.736824 0.661223 0.140977
v -0.34804 -64.6096 1476.85
vn -0.897108 0.434449 0.0803163
v -0.963851 -64.9628 1478.07
vn 0.634138 0.754687 0.168274
v -0.65574 -64.5493 1477.94
vn -0.856952 0.505205 0.101986
v -0.996357 -65.1621 1478.95
vn -0.755919 0.638502 0.144576
v -0.841453 -64.9886 1479.07
vn -0.61723 0.761187 0.199054
v -0.676521 -64.9137 1479.44
vn -0.494067 0.835829 0.239348
v -0.685719 -65.153 1480.23
vn 0.420362 0.872868 0.247786
v -0.592973 -65.1167 1480.05
vn 0.552448 0.807095 0.208324
v -0.58726 -64.9993 1479.61
vn 0.307111 0.917068 0.2543
v -0.603694 -65.3697 1480.93
vn 0.530652 0.819893 0.214903
v -0.505893 -65.3048 1480.48
vn -0.422271 0.686181 -0.592319
v -0.721647 -63.5479 1470.99
vn -0.160992 0.814467 -0.557427
v -0.625995 -63.506 1471
vn 0.153356 0.866774 -0.474536
v -0.535968 -63.5055 1471
vn -0.738997 0.661785 -0.126189
v -0.851858 -63.5743 1471.17
vn -0.631481 0.679878 -0.372823
v -0.806323 -63.5527 1471.08
vn -0.689791 0.723933 0.0104709
v -0.813747 -63.5204 1471.36
vn -0.703539 0.702503 0.107344
v -0.820326 -63.5627 1471.71
vn -0.383805 0.836736 -0.390598
v -0.718846 -63.4867 1471.09
vn -0.494497 0.852706 -0.16842
v -0.721996 -63.4586 1471.18
vn -0.0573903 0.950173 -0.306393
v -0.629959 -63.4569 1471.1
vn -0.14033 0.986587 -0.0833834
v -0.638214 -63.4032 1471.37
vn -0.181147 0.968966 0.168196
v -0.642289 -63.4042 1471.56
vn 0.309228 0.937229 -0.161181
v -0.544929 -63.4337 1471.28
vn 0.486394 0.872462 0.0472329
v -0.54971 -63.4165 1471.46
vn 0.00925911 0.966899 0.254992
v -0.646372 -63.5107 1471.9
vn -0.447564 0.885439 0.12524
v -0.655495 -63.6396 1472.51
vn 0.445021 0.876321 0.184437
v -0.468502 -63.6651 1472.25
vn -0.506984 0.844947 0.170386
v -0.832362 -63.729 1472.51
vn 0.349264 0.920729 0.173989
v -0.664423 -63.6809 1472.97
vn -0.171763 0.961889 0.212758
v -0.670898 -63.8316 1473.5
vn -0.138131 0.984658 0.106622
v -0.675194 -63.8797 1473.76
vn 0.27532 0.939683 0.202963
v -0.578098 -63.7967 1473.32
vn 0.214791 0.962871 0.163537
v -0.583735 -63.8799 1473.77
vn -0.584978 0.807635 0.0743378
v -0.688074 -63.9186 1474.39
vn 0.305236 0.949209 0.0763725
v -0.595983 -63.9184 1474.3
vn 0.658656 0.74258 0.12144
v -0.609301 -63.9989 1475.02
vn 0.661182 -0.723388 -0.198868
v -0.445963 -75.683 1503.7
vn 0.0746411 -0.330289 0.940924
v -0.481981 -75.6031 1503.78
vn 0.660601 -0.675516 -0.327542
v -0.296609 -75.0645 1502.69
vn 0.76537 -0.59553 -0.244035
v 0.020321 -74.9751 1503.25
vn 0.887377 -0.445924 -0.117103
v 0.155054 -74.8023 1503.37
vn 0.80408 -0.587027 -0.0940939
v -0.102686 -75.313 1503.75
vn 0.791675 -0.610083 0.032392
v -0.046944 -75.2343 1503.87
vn 0.693787 -0.421853 0.583694
v -0.015364 -75.1419 1503.87
vn 0.0284046 -0.252178 0.967264
v -0.050666 -75.1466 1503.89
vn 0.881062 -0.462557 0.0988473
v 0.069545 -75.0386 1503.79
vn 0.836186 -0.522572 0.166467
v 0.03572 -75.0545 1503.91
vn 0.162159 -0.289237 0.943423
v 0.028251 -74.8795 1503.96
vn 0.911211 -0.396954 0.110102
v 0.120914 -74.9109 1503.9
vn 0.94766 -0.317636 0.0323654
v 0.148305 -74.8569 1503.81
vn 0.808275 -0.533579 -0.248967
v 0.159768 -74.4143 1502.42
vn 0.104149 -0.212092 0.971684
v 0.088765 -74.173 1504.14
vn 0.809346 0.522817 0.26762
v 0.139185 -73.7736 1503.85
vn 0.241665 -0.200687 0.94938
v 0.077602 -73.9029 1504.2
vn 0.629681 -0.71165 -0.311539
v -0.438762 -72.1278 1496.34
vn 0.737556 -0.61281 -0.28368
v 0.163742 -71.8697 1497.16
vn 0.617194 0.72601 0.303284
v -0.578032 -73.0403 1503.93
vn 0.508513 0.769955 0.385465
v -0.581276 -73.1683 1504.28
vn -0.0861036 -0.139171 0.986518
v -0.581247 -73.2298 1504.37
vn 0.00841332 -0.22864 0.973475
v -0.483952 -73.4022 1504.33
vn 0.693304 0.52282 0.495973
v -0.392775 -73.3846 1504.26
vn 0.724642 -0.635846 -0.265695
v 0.006986 -71.1821 1495.19
vn 0.893076 -0.403404 -0.199199
v 0.227908 -71.1717 1495.92
vn 0.756535 0.60102 0.257739
v 0.188561 -71.7542 1499.21
vn 0.820604 -0.533545 -0.20479
v 0.124449 -69.8031 1492.1
vn 0.716104 0.65263 0.247524
v 0.003036 -70.5517 1496.72
vn 0.791974 -0.578086 -0.196454
v -0.005798 -69.1675 1489.81
vn 0.988038 -0.136694 -0.0713844
v 0.194341 -69.0902 1490.73
vn 0.985987 0.163939 0.0308816
v 0.209168 -69.1875 1491.54
vn 0.814635 0.554177 0.171049
v 0.096434 -69.2218 1492.53
vn 0.921397 0.37199 0.112477
v 0.1947 -69.397 1492.51
vn 0.767995 0.605545 0.208563
v 0.092933 -69.8078 1494.36
vn 0.899434 0.41708 0.130629
v 0.203845 -69.9826 1494.34
vn 0.962015 -0.254506 -0.0987638
v 0.072278 -68.1559 1487.49
vn 0.980134 0.193354 0.0441708
v 0.079401 -67.8548 1487.26
vn 0.748157 0.638522 0.180418
v -0.051981 -68.286 1490.01
vn 0.903625 0.414372 0.108431
v 0.157005 -68.8342 1490.86
vn 0.90977 -0.398114 -0.117572
v -0.103761 -66.4962 1481.25
vn 0.985386 -0.162778 -0.0501843
v -0.035062 -66.3258 1481.37
vn 0.809227 -0.562446 -0.169724
v -0.166304 -66.8972 1482.29
vn 0.941127 -0.316171 -0.11965
v -0.062481 -66.7255 1482.4
vn 0.99704 -0.0494005 -0.0589169
v -0.003632 -66.6775 1482.77
vn 0.999252 0.00239518 -0.0385983
v -0.02868 -66.5455 1482.43
vn 0.885547 0.448503 0.121046
v 0.027705 -67.3577 1486.14
vn 0.990535 0.134983 0.0249076
v 0.085002 -67.5453 1486.21
vn 0.842568 0.519624 0.141669
v -0.057221 -67.4586 1486.94
vn 0.862943 -0.490156 -0.122789
v -0.176074 -64.9658 1475.36
vn 0.857551 -0.493688 -0.144492
v -0.21628 -65.6293 1477.82
vn 0.974696 -0.213402 -0.0665412
v -0.122969 -65.4906 1478.2
vn 0.997009 0.0772647 0.00162264
v -0.113068 -65.4335 1478.48
vn 0.924191 0.374106 0.076917
v -0.136837 -65.4428 1479.3
vn 0.981488 -0.176132 -0.0752288
v -0.090636 -65.7987 1479.25
vn 0.885089 0.452051 0.110754
v -0.099302 -65.9597 1481.32
vn 0.989114 0.145214 0.0238088
v -0.033124 -66.1252 1481.21
vn 0.959603 0.275013 0.0594209
v -0.061977 -66.3586 1482.45
vn 0.759329 0.629514 0.164716
v -0.206605 -66.6232 1484.5
vn 0.960939 -0.261885 -0.0895136
v -0.193454 -64.6136 1473.95
vn 0.999293 0.0159443 -0.0340521
v -0.167857 -64.4231 1473.89
vn 0.966516 0.255121 0.0275633
v -0.147134 -64.5745 1475.14
vn 0.832164 0.545273 0.100895
v -0.196694 -64.5413 1475.6
vn 0.99595 -0.0820783 -0.0366943
v -0.121199 -64.785 1475.39
vn 0.732367 0.661675 0.1607
v -0.289622 -65.3239 1479.76
vn 0.939244 -0.323921 -0.11356
v 0.288655 -74.2526 1502.62
vn 0.998205 -0.0422983 0.0423893
v 0.328578 -74.1159 1503
vn 0.966849 -0.255122 -0.0107779
v 0.254453 -74.5196 1503.31
vn 0.164907 -0.308683 0.93676
v 0.197086 -74.6091 1504.03
vn 0.984486 -0.139916 0.105879
v 0.226921 -74.5074 1503.95
vn 0.486515 -0.116228 0.865906
v 0.186059 -74.3454 1504.09
vn 0.890955 0.0344095 0.452787
v 0.214213 -74.1611 1504.08
vn 0.95202 0.271034 0.142122
v 0.333018 -73.2701 1502.02
vn 0.967649 0.208549 0.141997
v 0.293616 -73.7595 1503.04
vn 0.918001 0.317803 0.237226
v 0.197886 -73.9611 1503.92
vn 0.993387 -0.10458 -0.0473813
v 0.409342 -72.1344 1498.67
vn 0.984024 -0.129109 -0.122586
v 0.355343 -71.3761 1496.9
vn 0.993692 0.110378 -0.0198384
v 0.358234 -71.1972 1496.92
vn 0.934637 -0.314797 -0.165398
v 0.370976 -71.7307 1497.58
vn 0.996149 -0.0592231 -0.0646485
v 0.389774 -71.5295 1497.42
vn 0.978582 0.197698 0.0573924
v 0.388886 -71.451 1497.52
vn 0.935742 0.342004 0.0861399
v 0.333462 -71.1196 1497.02
vn 0.837647 0.511539 0.191507
v 0.308304 -71.4244 1498.02
vn 0.924657 0.350095 0.149811
v 0.359174 -71.7722 1498.66
vn 0.968788 0.238495 0.0676045
v 0.259736 -70.1703 1494.41
vn 0.99619 0.083558 -0.0249719
v 0.303923 -70.9334 1496.22
vn 0.899773 0.41635 0.130621
v 0.241509 -70.7895 1496.51
vn -0.466279 -0.526148 0.711162
v -1.52599 -75.0177 1503.85
vn -0.492103 -0.158396 0.856006
v -1.672 -74.4974 1504
vn -0.539527 -0.114304 0.834173
v -1.672 -74.3186 1504.03
vn -0.547601 -0.62877 0.55207
v -1.59436 -74.8528 1503.97
vn -0.120824 -0.234902 0.96448
v -1.59436 -74.8528 1503.97
vn -0.792832 0.500354 0.347941
v -1.5376 -74.0468 1504.15
vn -0.0696267 -0.683037 0.727057
v -0.652852 -75.8001 1503.68
vn 0.400157 0.845873 0.352666
v -0.669248 -72.9573 1503.85
vn -0.648189 0.698053 0.304259
v -0.760523 -73.2325 1504.34
vn -0.131824 0.674597 0.726321
v -0.760523 -73.2325 1504.34
vn 0.133681 0.812516 0.567403
v -0.672464 -73.1292 1504.26
vn 0.140957 -0.920532 -0.364351
v -0.687564 -71.3561 1494.16
vn 0.630279 0.709549 0.3151
v -0.652692 -71.7586 1501.21
vn 0.36438 -0.872936 -0.324362
v -0.665205 -70.3964 1491.65
vn 0.683087 0.677415 0.272949
v -0.629854 -70.481 1498.17
vn 0.396685 -0.875735 -0.275191
v -0.661531 -67.5196 1482.93
vn 0.319139 -0.907107 -0.274421
v -0.673564 -67.8975 1484.06
vn 0.249475 -0.93003 -0.269827
v -0.67906 -68.0205 1484.5
vn 0.269024 0.911555 0.310955
v -0.677721 -68.8693 1493.74
vn 0.131813 -0.968965 -0.209123
v -0.675264 -65.7812 1476.8
vn -0.13215 -0.960356 -0.245463
v -0.686629 -65.9119 1477.5
vn 0.498397 -0.840094 -0.214109
v -0.594591 -65.9102 1477.42
vn 0.682237 0.704558 0.19532
v -0.610236 -67.2212 1488.14
vn -0.620476 0.752033 0.222388
v -0.653983 -68.1581 1491.56
vn 0.508832 -0.835462 -0.207589
v -0.613191 -64.6283 1472.22
vn -0.644983 -0.747148 -0.160521
v -0.644858 -65.2943 1474.68
vn 0.443334 -0.873101 -0.202855
v -0.65606 -65.4291 1475.39
vn 0.609489 0.77272 0.177278
v -0.654443 -66.1794 1484.46
vn -0.134186 0.953062 0.271418
v -0.654443 -66.1794 1484.46
vn 0.867541 0.220691 -0.445721
v -0.252109 -63.7837 1470.84
vn -0.126365 0.977713 0.167657
v -0.707648 -64.1025 1475.55
vn -0.721145 0.677135 0.146416
v -0.65574 -64.5493 1477.94
vn -0.0402998 0.982012 0.184467
v -0.65574 -64.5493 1477.94
vn 0.336736 0.907561 0.250884
v -0.676521 -64.9137 1479.44
vn 0.171573 0.944824 0.279053
v -0.685719 -65.153 1480.23
vn 0.327712 0.933723 0.144105
v -0.655495 -63.6396 1472.51
vn -0.555069 0.817443 0.153901
v -0.664423 -63.6809 1472.97
vn -0.0150296 0.993884 0.109402
v -0.688074 -63.9186 1474.39
vn -0.0484497 0.987472 0.150175
v -0.609301 -63.9989 1475.02
vn 0.342454 -0.618203 0.707496
v -0.445963 -75.683 1503.7
vn 0.342475 -0.58359 0.736297
v -0.046944 -75.2343 1503.87
vn -0.0124954 -0.223035 0.97473
v -0.046944 -75.2343 1503.87
vn 0.67901 -0.23207 0.696483
v -0.046944 -75.2343 1503.87
vn 0.49359 -0.384345 0.780159
v -0.050666 -75.1466 1503.89
vn 0.459505 -0.577637 0.674678
v 0.03572 -75.0545 1503.91
vn 0.277218 -0.252643 0.926996
v 0.03572 -75.0545 1503.91
vn 0.428476 -0.336354 0.838615
v 0.120914 -74.9109 1503.9
vn 0.777626 0.440197 0.448914
v 0.077602 -73.9029 1504.2
vn 0.0472266 0.756284 0.652537
v -0.581247 -73.2298 1504.37
vn 0.709701 0.581704 0.397423
v -0.581247 -73.2298 1504.37
vn 0.584575 0.14449 0.79837
v -0.581247 -73.2298 1504.37
vn 0.55451 0.263897 0.789226
v -0.483952 -73.4022 1504.33
vn 0.949373 -0.17748 0.259212
v 0.197086 -74.6091 1504.03
f 15//15 85//85 92//92
f 92//92 1//1 15//15
f 3//3 1//1 8//8
f 91//91 370//370 367//367
f 20//20 15//15 2//2
f 1//1 2//2 15//15
f 3//3 4//4 2//2
f 2//2 4//4 5//5
f 1//1 3//3 2//2
f 3//3 8//8 4//4
f 8//8 6//6 4//4
f 371//371 9//9 368//368
f 4//4 6//6 5//5
f 5//5 6//6 7//7
f 9//9 13//13 369//369
f 368//368 9//9 369//369
f 294//294 9//9 371//371
f 2//2 10//10 20//20
f 2//2 12//12 10//10
f 10//10 12//12 11//11
f 2//2 5//5 7//7
f 2//2 7//7 12//12
f 12//12 7//7 11//11
f 11//11 14//14 17//17
f 372//372 11//11 7//7
f 372//372 14//14 11//11
f 9//9 97//97 13//13
f 9//9 294//294 97//97
f 372//372 97//97 14//14
f 22//22 10//10 16//16
f 11//11 16//16 10//10
f 17//17 16//16 11//11
f 108//108 17//17 14//14
f 19//19 18//18 15//15
f 15//15 20//20 19//19
f 22//22 25//25 21//21
f 20//20 10//10 21//21
f 10//10 22//22 21//21
f 17//17 22//22 16//16
f 112//112 22//22 17//17
f 17//17 108//108 112//112
f 18//18 28//28 23//23
f 18//18 23//23 109//109
f 30//30 28//28 24//24
f 24//24 28//28 18//18
f 24//24 31//31 30//30
f 31//31 25//25 32//32
f 31//31 24//24 25//25
f 18//18 19//19 24//24
f 19//19 20//20 24//24
f 20//20 21//21 24//24
f 21//21 25//25 24//24
f 22//22 26//26 25//25
f 112//112 26//26 22//22
f 112//112 125//125 26//26
f 28//28 38//38 27//27
f 23//23 28//28 27//27
f 28//28 29//29 38//38
f 30//30 31//31 29//29
f 28//28 30//30 29//29
f 32//32 29//29 31//31
f 29//29 32//32 40//40
f 32//32 41//41 40//40
f 33//33 41//41 32//32
f 122//122 41//41 33//33
f 33//33 32//32 25//25
f 25//25 26//26 33//33
f 122//122 33//33 26//26
f 36//36 46//46 35//35
f 36//36 49//49 46//46
f 36//36 37//37 49//49
f 36//36 35//35 37//37
f 49//49 37//37 50//50
f 34//34 23//23 27//27
f 34//34 27//27 35//35
f 27//27 37//37 35//35
f 37//37 39//39 50//50
f 27//27 38//38 37//37
f 37//37 38//38 39//39
f 38//38 29//29 39//39
f 29//29 40//40 39//39
f 41//41 146//146 39//39
f 132//132 146//146 41//41
f 40//40 41//41 39//39
f 42//42 44//44 60//60
f 44//44 62//62 60//60
f 43//43 44//44 42//42
f 44//44 45//45 62//62
f 34//34 43//43 42//42
f 43//43 35//35 46//46
f 43//43 46//46 44//44
f 44//44 46//46 45//45
f 45//45 46//46 47//47
f 45//45 47//47 62//62
f 34//34 35//35 43//43
f 46//46 48//48 47//47
f 48//48 174//174 47//47
f 46//46 49//49 48//48
f 49//49 50//50 48//48
f 48//48 50//50 174//174
f 39//39 146//146 50//50
f 68//68 163//163 77//77
f 51//51 77//77 163//163
f 51//51 78//78 77//77
f 51//51 53//53 78//78
f 51//51 52//52 53//53
f 53//53 54//54 81//81
f 54//54 55//55 81//81
f 81//81 55//55 82//82
f 52//52 168//168 53//53
f 168//168 54//54 53//53
f 54//54 56//56 55//55
f 55//55 56//56 82//82
f 56//56 243//243 82//82
f 59//59 57//57 168//168
f 168//168 57//57 54//54
f 56//56 54//54 57//57
f 57//57 58//58 56//56
f 56//56 58//58 243//243
f 58//58 245//245 243//243
f 57//57 42//42 60//60
f 57//57 60//60 58//58
f 60//60 61//61 58//58
f 59//59 42//42 57//57
f 58//58 61//61 245//245
f 62//62 61//61 60//60
f 61//61 62//62 174//174
f 174//174 62//62 47//47
f 63//63 179//179 180//180
f 63//63 180//180 70//70
f 71//71 181//181 63//63
f 63//63 70//70 71//71
f 68//68 74//74 64//64
f 68//68 77//77 74//74
f 65//65 70//70 64//64
f 64//64 66//66 65//65
f 64//64 74//74 66//66
f 74//74 76//76 66//66
f 72//72 65//65 66//66
f 69//69 212//212 67//67
f 69//69 70//70 180//180
f 69//69 64//64 70//70
f 67//67 64//64 69//69
f 67//67 68//68 64//64
f 70//70 65//65 71//71
f 72//72 71//71 65//65
f 71//71 72//72 213//213
f 66//66 73//73 72//72
f 75//75 73//73 66//66
f 256//256 213//213 72//72
f 77//77 76//76 74//74
f 75//75 228//228 73//73
f 76//76 75//75 66//66
f 77//77 78//78 76//76
f 78//78 79//79 76//76
f 76//76 79//79 75//75
f 78//78 53//53 79//79
f 79//79 236//236 75//75
f 79//79 80//80 236//236
f 53//53 81//81 79//79
f 81//81 80//80 79//79
f 82//82 80//80 81//81
f 61//61 170//170 245//245
f 85//85 83//83 86//86
f 83//83 85//85 89//89
f 85//85 94//94 89//89
f 86//86 83//83 89//89
f 95//95 86//86 89//89
f 95//95 90//90 86//86
f 86//86 90//90 84//84
f 84//84 279//279 86//86
f 84//84 90//90 281//281
f 281//281 279//279 84//84
f 85//85 373//373 93//93
f 93//93 373//373 87//87
f 87//87 280//280 93//93
f 373//373 88//88 87//87
f 88//88 280//280 87//87
f 88//88 373//373 406//406
f 406//406 280//280 88//88
f 94//94 95//95 89//89
f 15//15 94//94 85//85
f 96//96 90//90 95//95
f 96//96 281//281 90//90
f 1//1 92//92 93//93
f 367//367 93//93 91//91
f 92//92 85//85 93//93
f 280//280 371//371 91//91
f 280//280 91//91 93//93
f 280//280 294//294 371//371
f 98//98 99//99 94//94
f 99//99 95//95 94//94
f 105//105 98//98 18//18
f 99//99 98//98 106//106
f 98//98 105//105 106//106
f 99//99 378//378 107//107
f 15//15 18//18 94//94
f 98//98 94//94 18//18
f 107//107 100//100 99//99
f 107//107 297//297 100//100
f 107//107 304//304 297//297
f 95//95 99//99 100//100
f 95//95 100//100 96//96
f 100//100 297//297 96//96
f 108//108 14//14 101//101
f 14//14 102//102 101//101
f 374//374 300//300 299//299
f 14//14 97//97 103//103
f 102//102 14//14 375//375
f 102//102 375//375 104//104
f 102//102 104//104 101//101
f 301//301 103//103 97//97
f 377//377 300//300 374//374
f 300//300 377//377 415//415
f 415//415 377//377 376//376
f 110//110 106//106 109//109
f 109//109 105//105 18//18
f 105//105 109//109 106//106
f 120//120 111//111 380//380
f 380//380 107//107 378//378
f 380//380 111//111 107//107
f 123//123 26//26 125//125
f 113//113 125//125 108//108
f 379//379 306//306 381//381
f 112//112 108//108 125//125
f 114//114 116//116 117//117
f 114//114 115//115 116//116
f 115//115 118//118 116//116
f 115//115 130//130 118//118
f 34//34 117//117 23//23
f 117//117 116//116 118//118
f 119//119 117//117 118//118
f 119//119 118//118 120//120
f 118//118 130//130 120//120
f 130//130 121//121 120//120
f 117//117 119//119 110//110
f 119//119 120//120 110//110
f 117//117 109//109 23//23
f 110//110 109//109 117//117
f 121//121 111//111 120//120
f 122//122 26//26 123//123
f 123//123 113//113 124//124
f 123//123 125//125 113//113
f 144//144 128//128 127//127
f 126//126 130//130 382//382
f 127//127 117//117 34//34
f 128//128 129//129 127//127
f 382//382 130//130 383//383
f 114//114 117//117 127//127
f 114//114 127//127 129//129
f 129//129 131//131 114//114
f 383//383 130//130 384//384
f 114//114 131//131 115//115
f 384//384 130//130 115//115
f 126//126 121//121 130//130
f 312//312 148//148 134//134
f 390//390 41//41 133//133
f 385//385 134//134 148//148
f 41//41 122//122 133//133
f 122//122 123//123 133//133
f 124//124 385//385 123//123
f 124//124 134//134 385//385
f 169//169 167//167 138//138
f 167//167 135//135 138//138
f 386//386 136//136 387//387
f 137//137 143//143 169//169
f 138//138 137//137 169//169
f 137//137 139//139 143//143
f 136//136 140//140 387//387
f 140//140 139//139 387//387
f 387//387 139//139 137//137
f 388//388 141//141 139//139
f 136//136 141//141 388//388
f 141//141 330//330 322//322
f 59//59 168//168 142//142
f 169//169 143//143 142//142
f 168//168 169//169 142//142
f 144//144 143//143 139//139
f 139//139 141//141 144//144
f 142//142 143//143 127//127
f 143//143 144//144 127//127
f 144//144 141//141 322//322
f 42//42 59//59 142//142
f 126//126 144//144 322//322
f 142//142 34//34 42//42
f 142//142 127//127 34//34
f 144//144 126//126 382//382
f 50//50 146//146 174//174
f 147//147 390//390 145//145
f 148//148 318//318 389//389
f 147//147 146//146 132//132
f 147//147 132//132 390//390
f 132//132 41//41 390//390
f 150//150 186//186 152//152
f 149//149 154//154 68//68
f 67//67 149//149 68//68
f 210//210 149//149 67//67
f 156//156 154//154 149//149
f 210//210 211//211 150//150
f 210//210 150//150 151//151
f 149//149 210//210 151//151
f 156//156 149//149 153//153
f 149//149 151//151 152//152
f 152//152 153//153 149//149
f 153//153 158//158 156//156
f 150//150 152//152 151//151
f 153//153 152//152 214//214
f 215//215 153//153 214//214
f 155//155 161//161 154//154
f 156//156 155//155 154//154
f 155//155 157//157 161//161
f 157//157 162//162 161//161
f 157//157 155//155 158//158
f 155//155 156//156 158//158
f 153//153 159//159 158//158
f 391//391 158//158 159//159
f 159//159 162//162 391//391
f 159//159 164//164 162//162
f 215//215 159//159 153//153
f 163//163 68//68 154//154
f 154//154 161//161 160//160
f 163//163 154//154 160//160
f 160//160 392//392 163//163
f 161//161 162//162 160//160
f 164//164 160//160 162//162
f 166//166 164//164 159//159
f 159//159 229//229 339//339
f 163//163 392//392 51//51
f 329//329 166//166 159//159
f 51//51 392//392 167//167
f 392//392 165//165 167//167
f 393//393 164//164 166//166
f 52//52 51//51 167//167
f 165//165 135//135 167//167
f 393//393 136//136 386//386
f 166//166 141//141 136//136
f 393//393 166//166 136//136
f 166//166 329//329 141//141
f 169//169 168//168 167//167
f 167//167 168//168 52//52
f 330//330 141//141 329//329
f 61//61 174//174 170//170
f 171//171 174//174 146//146
f 170//170 171//171 246//246
f 174//174 171//171 170//170
f 171//171 146//146 175//175
f 251//251 172//172 173//173
f 173//173 172//172 176//176
f 173//173 176//176 252//252
f 251//251 173//173 252//252
f 344//344 252//252 177//177
f 172//172 175//175 176//176
f 252//252 176//176 177//177
f 175//175 146//146 178//178
f 176//176 175//175 178//178
f 176//176 394//394 177//177
f 177//177 394//394 338//338
f 178//178 146//146 147//147
f 395//395 147//147 145//145
f 394//394 389//389 338//338
f 211//211 180//180 179//179
f 182//182 179//179 63//63
f 182//182 63//63 181//181
f 181//181 213//213 183//183
f 181//181 71//71 213//213
f 183//183 213//213 257//257
f 150//150 211//211 184//184
f 184//184 211//211 179//179
f 184//184 179//179 185//185
f 185//185 182//182 189//189
f 179//179 182//182 185//185
f 190//190 189//189 182//182
f 183//183 190//190 182//182
f 181//181 183//183 182//182
f 183//183 191//191 190//190
f 183//183 253//253 191//191
f 184//184 187//187 186//186
f 186//186 150//150 184//184
f 185//185 188//188 187//187
f 187//187 184//184 185//185
f 188//188 185//185 189//189
f 187//187 193//193 192//192
f 186//186 187//187 192//192
f 186//186 192//192 152//152
f 187//187 188//188 193//193
f 193//193 188//188 194//194
f 194//194 188//188 189//189
f 189//189 190//190 195//195
f 195//195 190//190 196//196
f 196//196 190//190 191//191
f 195//195 194//194 189//189
f 197//197 196//196 191//191
f 197//197 191//191 255//255
f 193//193 198//198 192//192
f 152//152 192//192 198//198
f 199//199 193//193 194//194
f 199//199 194//194 200//200
f 200//200 194//194 195//195
f 201//201 200//200 195//195
f 196//196 201//201 195//195
f 196//196 208//208 201//201
f 202//202 208//208 197//197
f 197//197 208//208 196//196
f 202//202 197//197 255//255
f 202//202 265//265 266//266
f 199//199 203//203 198//198
f 199//199 198//198 193//193
f 203//203 218//218 198//198
f 204//204 199//199 200//200
f 204//204 200//200 206//206
f 206//206 200//200 201//201
f 206//206 201//201 208//208
f 209//209 208//208 202//202
f 209//209 216//216 227//227
f 202//202 216//216 209//209
f 266//266 216//216 202//202
f 203//203 199//199 204//204
f 203//203 204//204 205//205
f 203//203 205//205 218//218
f 218//218 205//205 222//222
f 396//396 207//207 204//204
f 204//204 207//207 205//205
f 205//205 207//207 222//222
f 222//222 207//207 224//224
f 208//208 207//207 396//396
f 207//207 208//208 209//209
f 207//207 209//209 224//224
f 224//224 209//209 227//227
f 211//211 210//210 212//212
f 67//67 212//212 210//210
f 212//212 180//180 211//211
f 69//69 180//180 212//212
f 256//256 257//257 213//213
f 152//152 198//198 214//214
f 218//218 214//214 198//198
f 216//216 217//217 227//227
f 217//217 216//216 266//266
f 269//269 217//217 266//266
f 215//215 214//214 219//219
f 229//229 215//215 221//221
f 219//219 214//214 218//218
f 215//215 219//219 220//220
f 215//215 220//220 221//221
f 218//218 222//222 219//219
f 219//219 222//222 223//223
f 219//219 223//223 220//220
f 220//220 223//223 221//221
f 222//222 224//224 223//223
f 223//223 224//224 225//225
f 223//223 225//225 226//226
f 223//223 226//226 221//221
f 224//224 227//227 225//225
f 226//226 225//225 217//217
f 225//225 227//227 217//217
f 229//229 159//159 215//215
f 229//229 221//221 230//230
f 230//230 221//221 226//226
f 236//236 228//228 75//75
f 231//231 228//228 236//236
f 271//271 274//274 232//232
f 217//217 232//232 234//234
f 269//269 232//232 217//217
f 229//229 230//230 340//340
f 230//230 234//234 235//235
f 230//230 235//235 340//340
f 226//226 234//234 230//230
f 234//234 226//226 217//217
f 275//275 273//273 237//237
f 274//274 275//275 232//232
f 232//232 275//275 233//233
f 275//275 237//237 233//233
f 234//234 233//233 238//238
f 233//233 234//234 232//232
f 339//339 229//229 340//340
f 236//236 80//80 231//231
f 276//276 273//273 231//231
f 238//238 233//233 237//237
f 340//340 235//235 341//341
f 231//231 80//80 239//239
f 239//239 276//276 231//231
f 244//244 240//240 278//278
f 238//238 240//240 234//234
f 235//235 240//240 341//341
f 235//235 234//234 240//240
f 278//278 240//240 238//238
f 242//242 240//240 244//244
f 241//241 80//80 82//82
f 80//80 241//241 239//239
f 243//243 241//241 82//82
f 246//246 241//241 243//243
f 246//246 398//398 241//241
f 239//239 241//241 398//398
f 242//242 244//244 344//344
f 243//243 245//245 246//246
f 398//398 246//246 247//247
f 244//244 400//400 250//250
f 250//250 344//344 244//244
f 170//170 246//246 245//245
f 247//247 246//246 171//171
f 171//171 172//172 248//248
f 171//171 248//248 247//247
f 401//401 249//249 400//400
f 401//401 172//172 249//249
f 250//250 400//400 249//249
f 249//249 344//344 250//250
f 249//249 252//252 344//344
f 249//249 172//172 251//251
f 249//249 251//251 252//252
f 172//172 171//171 175//175
f 253//253 183//183 257//257
f 253//253 257//257 260//260
f 254//254 191//191 253//253
f 254//254 260//260 262//262
f 254//254 253//253 260//260
f 255//255 191//191 254//254
f 262//262 255//255 254//254
f 255//255 262//262 265//265
f 265//265 202//202 255//255
f 257//257 256//256 261//261
f 256//256 72//72 258//258
f 261//261 256//256 258//258
f 72//72 73//73 258//258
f 258//258 73//73 259//259
f 73//73 228//228 259//259
f 260//260 257//257 261//261
f 258//258 259//259 264//264
f 264//264 259//259 270//270
f 262//262 260//260 261//261
f 263//263 262//262 261//261
f 258//258 263//263 261//261
f 264//264 270//270 267//267
f 263//263 258//258 264//264
f 265//265 262//262 263//263
f 266//266 264//264 269//269
f 264//264 267//267 269//269
f 265//265 263//263 266//266
f 264//264 266//266 263//263
f 259//259 228//228 270//270
f 267//267 270//270 268//268
f 269//269 267//267 402//402
f 228//228 403//403 270//270
f 228//228 231//231 403//403
f 268//268 270//270 403//403
f 231//231 272//272 403//403
f 269//269 402//402 271//271
f 269//269 271//271 232//232
f 272//272 231//231 273//273
f 271//271 272//272 274//274
f 274//274 272//272 275//275
f 275//275 272//272 273//273
f 237//237 273//273 277//277
f 273//273 404//404 277//277
f 277//277 404//404 405//405
f 277//277 238//238 237//237
f 278//278 238//238 277//277
f 404//404 397//397 405//405
f 405//405 397//397 399//399
f 279//279 281//281 282//282
f 284//284 279//279 282//282
f 281//281 293//293 282//282
f 284//284 282//282 283//283
f 284//284 283//283 288//288
f 288//288 283//283 292//292
f 282//282 293//293 283//283
f 283//283 347//347 292//292
f 284//284 285//285 279//279
f 406//406 407//407 280//280
f 408//408 287//287 280//280
f 287//287 290//290 280//280
f 284//284 288//288 285//285
f 409//409 288//288 286//286
f 409//409 286//286 410//410
f 288//288 289//289 286//286
f 286//286 411//411 410//410
f 287//287 412//412 290//290
f 291//291 289//289 288//288
f 288//288 292//292 291//291
f 412//412 413//413 290//290
f 298//298 293//293 96//96
f 293//293 281//281 96//96
f 294//294 280//280 290//290
f 348//348 294//294 290//290
f 413//413 348//348 290//290
f 349//349 292//292 347//347
f 292//292 419//419 291//291
f 348//348 350//350 294//294
f 350//350 351//351 294//294
f 302//302 97//97 294//294
f 296//296 302//302 294//294
f 414//414 303//303 418//418
f 303//303 414//414 295//295
f 351//351 296//296 294//294
f 298//298 96//96 297//297
f 306//306 295//295 352//352
f 379//379 295//295 306//306
f 299//299 295//295 379//379
f 374//374 299//299 379//379
f 300//300 303//303 299//299
f 299//299 303//303 295//295
f 300//300 416//416 303//303
f 303//303 417//417 418//418
f 302//302 301//301 97//97
f 304//304 107//107 111//111
f 298//298 297//297 304//304
f 298//298 304//304 305//305
f 304//304 111//111 307//307
f 304//304 307//307 305//305
f 310//310 311//311 364//364
f 307//307 310//310 305//305
f 365//365 310//310 364//364
f 364//364 315//315 366//366
f 314//314 366//366 315//315
f 308//308 362//362 314//314
f 366//366 314//314 362//362
f 381//381 306//306 308//308
f 362//362 308//308 306//306
f 309//309 121//121 126//126
f 121//121 309//309 111//111
f 111//111 309//309 307//307
f 307//307 309//309 316//316
f 307//307 316//316 310//310
f 316//316 317//317 310//310
f 310//310 317//317 311//311
f 317//317 319//319 311//311
f 319//319 312//312 313//313
f 312//312 319//319 318//318
f 313//313 311//311 319//319
f 311//311 313//313 364//364
f 364//364 313//313 312//312
f 312//312 134//134 314//314
f 364//364 312//312 315//315
f 315//315 312//312 314//314
f 124//124 314//314 134//134
f 381//381 308//308 124//124
f 124//124 308//308 314//314
f 126//126 322//322 309//309
f 316//316 327//327 317//317
f 326//326 328//328 317//317
f 319//319 317//317 328//328
f 318//318 319//319 328//328
f 312//312 318//318 148//148
f 322//322 330//330 320//320
f 320//320 330//330 334//334
f 320//320 334//334 321//321
f 320//320 321//321 322//322
f 322//322 321//321 323//323
f 325//325 323//323 321//321
f 321//321 337//337 325//325
f 322//322 323//323 309//309
f 316//316 309//309 323//323
f 323//323 324//324 316//316
f 316//316 324//324 327//327
f 323//323 325//325 324//324
f 325//325 337//337 324//324
f 324//324 337//337 327//327
f 337//337 338//338 326//326
f 327//327 337//337 326//326
f 328//328 326//326 338//338
f 317//317 327//327 326//326
f 318//318 338//338 389//389
f 318//318 328//328 338//338
f 329//329 159//159 339//339
f 329//329 339//339 343//343
f 331//331 329//329 343//343
f 332//332 331//331 343//343
f 330//330 329//329 331//331
f 330//330 331//331 334//334
f 332//332 334//334 331//331
f 333//333 342//342 344//344
f 334//334 332//332 336//336
f 332//332 333//333 336//336
f 336//336 333//333 335//335
f 335//335 333//333 344//344
f 336//336 335//335 337//337
f 334//334 336//336 321//321
f 337//337 321//321 336//336
f 337//337 335//335 338//338
f 338//338 335//335 344//344
f 338//338 344//344 177//177
f 339//339 340//340 341//341
f 342//342 341//341 240//240
f 242//242 342//342 240//240
f 339//339 341//341 343//343
f 343//343 341//341 332//332
f 332//332 341//341 333//333
f 342//342 333//333 341//341
f 344//344 342//342 242//242
f 283//283 293//293 345//345
f 347//347 283//283 345//345
f 349//349 347//347 346//346
f 347//347 345//345 346//346
f 346//346 351//351 349//349
f 346//346 353//353 351//351
f 292//292 349//349 419//419
f 419//419 349//349 351//351
f 419//419 351//351 350//350
f 293//293 355//355 345//345
f 345//345 355//355 346//346
f 346//346 355//355 352//352
f 346//346 352//352 353//353
f 295//295 353//353 352//352
f 353//353 354//354 351//351
f 353//353 295//295 354//354
f 414//414 351//351 354//354
f 354//354 295//295 414//414
f 298//298 305//305 293//293
f 355//355 363//363 352//352
f 305//305 310//310 365//365
f 305//305 356//356 358//358
f 305//305 365//365 356//356
f 358//358 356//356 359//359
f 365//365 357//357 356//356
f 356//356 357//357 359//359
f 359//359 357//357 360//360
f 357//357 365//365 361//361
f 357//357 361//361 360//360
f 361//361 365//365 366//366
f 293//293 305//305 358//358
f 362//362 360//360 361//361
f 293//293 358//358 355//355
f 358//358 359//359 355//355
f 359//359 360//360 355//355
f 352//352 363//363 306//306
f 360//360 363//363 355//355
f 360//360 362//362 363//363
f 363//363 362//362 306//306
f 365//365 364//364 366//366
f 366//366 362//362 361//361
