# Wavafront OBJ file of BodyParts3D
# BodyParts3D, Copyright(C) 2010-2011 The Database Center for Life Science licensed under CC Attribution-Share Alike 2.1 Japan.
vn -0.293157 -0.544364 -0.785956
v -69.1331 -186.141 1224.48
vn -0.660043 0.391063 -0.641415
v -68.8327 -186.386 1224.56
vn -0.220548 -0.396183 -0.89129
v -68.6805 -185.754 1224.06
vn -0.336441 0.425776 -0.839953
v -68.7287 -184.54 1224.11
vn -0.24123 -0.54025 -0.806187
v -68.4496 -186.013 1224.14
vn -0.660043 0.391063 -0.641415
v -69.1071 -186.477 1224.79
vn -0.660043 0.391063 -0.641415
v -68.8719 -186.119 1224.76
vn -0.876844 -0.458206 -0.145571
v -68.7144 -187.241 1226.89
vn -0.255355 -0.923899 -0.284962
v -68.5262 -187.408 1226.28
vn -0.361926 -0.92715 -0.0969688
v -68.6926 -187.537 1227.2
vn -0.396427 -0.904501 0.157239
v -68.7148 -187.531 1227.78
vn -0.767195 0.578742 0.276531
v -68.4809 -187.48 1228.09
vn -0.80437 0.532442 0.263619
v -68.498 -187.19 1227.41
vn -0.323031 -0.944777 -0.0552082
v -68.3975 -187.682 1227.49
vn -0.421861 -0.891199 0.166724
v -68.3817 -187.667 1227.79
vn -0.759958 0.486558 -0.430959
v -68.2069 -187.371 1231.38
vn -0.759958 0.486558 -0.430959
v -68.2133 -187.372 1231.39
vn -0.759958 0.486558 -0.430959
v -68.2125 -187.379 1231.38
vn -0.203994 -0.507024 -0.837445
v -68.5342 -183.885 1224.38
vn -0.254417 0.448414 -0.856853
v -68.3501 -184.297 1224.08
vn -0.203994 -0.507024 -0.837445
v -68.129 -183.809 1224.24
vn -0.129991 0.430739 -0.893066
v -68.0589 -184.225 1224.06
vn -0.23645 0.549553 -0.8013
v -68.1527 -183.649 1224.35
vn -0.203994 -0.507024 -0.837445
v -67.7735 -184.044 1224.29
vn -0.577932 -0.760135 -0.296966
v -67.8725 -183.447 1224.56
vn -0.0939593 0.577671 -0.810844
v -67.8522 -183.625 1224.34
vn -0.0825127 0.525264 0.846929
v -67.822 -183.745 1224.44
vn -0.0798139 0.948709 0.305909
v -67.5532 -183.594 1224.32
vn -0.905128 0.375888 0.198624
v -68.3181 -185.071 1224.1
vn -0.65716 0.591651 0.467002
v -68.4095 -185.458 1224.42
vn -0.166816 0.391493 -0.904934
v -68.3238 -184.463 1223.99
vn -0.629377 0.265804 -0.730228
v -68.1592 -185.35 1223.86
vn -0.0922156 0.43395 0.896205
v -68.3127 -184.457 1224.18
vn -0.220785 -0.399737 -0.889643
v -68.2129 -184.745 1224.09
vn -0.0293226 0.372405 0.927607
v -68.0185 -184.4 1224.17
vn -0.402799 -0.407009 0.819815
v -67.9572 -184.692 1224.24
vn -0.702008 0.171514 0.691208
v -67.7366 -184.342 1224.35
vn -0.0622196 0.370487 -0.926751
v -67.1447 -184.233 1223.97
vn -0.169971 -0.446073 -0.878709
v -66.4574 -186.241 1223.83
vn -0.833303 -0.0138043 0.552644
v -66.9414 -181.403 1226.21
vn 0.537713 -0.563182 -0.627448
v -66.9772 -181.098 1226.59
vn 0.537713 -0.563182 -0.627448
v -66.9339 -181.089 1226.62
vn 0.537713 -0.563182 -0.627448
v -66.9696 -181.127 1226.62
vn -0.979804 -0.190281 0.0614588
v -67.9708 -182.85 1224.84
vn -0.574732 0.107275 -0.81128
v -67.9253 -183.151 1224.64
vn -0.0798139 0.948709 0.305909
v -67.5778 -183.695 1224.62
vn -0.310004 0.642492 0.700786
v -68.007 -182.546 1225.21
vn -0.979804 -0.190281 0.0614588
v -67.982 -182.769 1224.92
vn -0.979804 -0.190281 0.0614588
v -67.9619 -182.846 1225
vn -0.557303 -0.828467 0.0552751
v -67.6189 -183.087 1224.84
vn -0.218568 0.647134 -0.730374
v -67.7181 -182.491 1225.11
vn -0.0998556 0.913471 0.394462
v -67.6683 -182.789 1224.98
vn 0.49585 0.742867 -0.449757
v -67.3918 -183.348 1224.9
vn -0.14527 0.691844 0.707282
v -67.7312 -182.394 1225.2
vn -0.0176702 0.599466 0.800205
v -67.7075 -182.486 1225.29
vn -0.488535 -0.475062 0.731881
v -67.4716 -182.747 1225.19
vn -0.0783354 0.671867 -0.736518
v -67.378 -182.737 1224.88
vn -0.0578788 0.674351 -0.736139
v -67.4275 -182.387 1225.18
vn -0.512711 -0.493264 0.702722
v -67.3552 -182.723 1225.29
vn -0.679239 -0.283932 0.676769
v -67.2312 -182.079 1225.76
vn 0.0580782 0.687615 -0.723749
v -67.1567 -182.07 1225.45
vn -0.798663 0.524209 0.295539
v -67.671 -185.519 1226.24
vn -0.884381 0.178616 0.431239
v -67.5514 -184.301 1224.64
vn -0.924271 0.259187 0.280259
v -66.8298 -184.125 1226.7
vn -0.256201 -0.965976 0.0353691
v -66.7165 -188.19 1228.31
vn -0.217894 -0.970134 -0.106595
v -65.8268 -188.348 1227.36
vn -0.346899 -0.926494 0.14584
v -67.2186 -187.782 1231.33
vn -0.929062 -0.117716 0.350694
v -65.8992 -186.856 1235.14
vn -0.872272 -0.471314 0.130406
v -65.712 -187.12 1235.43
vn -0.829251 0.508447 0.232002
v -65.7922 -186.825 1235.73
vn -0.761524 -0.603719 0.235806
v -65.5306 -187.556 1234.53
vn -0.838408 0.438813 0.323288
v -65.2142 -186.392 1236.59
vn -0.243239 -0.40555 -0.881115
v -65.7564 -185.19 1223.61
vn -0.165189 -0.64505 -0.746071
v -64.0939 -187.304 1224.05
vn -0.0974755 -0.309176 -0.945996
v -63.7775 -186.639 1223.59
vn -0.733984 -0.212048 0.645216
v -66.6184 -181.332 1226.7
vn -0.425933 0.892045 0.151115
v -66.3484 -181.183 1226.58
vn 0.0383743 0.639222 -0.768064
v -66.3956 -183.177 1224.54
vn 0.133465 0.730352 -0.669905
v -65.9642 -181.83 1225.82
vn -0.194041 -0.833333 -0.517595
v -64.548 -187.854 1224.87
vn -0.181142 -0.948884 -0.25847
v -63.7218 -188.575 1226.04
vn -0.865168 0.423089 0.269222
v -66.3598 -181.028 1226.88
vn -0.447312 0.342593 -0.826161
v -66.0584 -180.588 1228.05
vn -0.447312 0.342593 -0.826161
v -66.0652 -180.589 1228.06
vn -0.447312 0.342593 -0.826161
v -66.0643 -180.595 1228.06
vn 0.535115 -0.458537 -0.709504
v -65.7608 -180.204 1229.22
vn 0.226567 0.926548 -0.300294
v -65.4329 -180.511 1228.62
vn -0.178428 -0.982899 0.045529
v -63.7995 -188.778 1229.06
vn 0.535115 -0.458537 -0.709504
v -65.7504 -180.202 1229.23
vn 0.535115 -0.458537 -0.709504
v -65.7586 -180.213 1229.23
vn -0.8589 0.427807 0.281553
v -65.4847 -180.456 1229.22
vn -0.836479 0.478282 0.267485
v -65.425 -180.359 1229.21
vn -0.751994 0.397354 -0.525941
v -65.3821 -180.12 1229.81
vn -0.751994 0.397354 -0.525941
v -65.4289 -180.128 1229.87
vn -0.751994 0.397354 -0.525941
v -65.4209 -180.188 1229.81
vn 0.591522 -0.473104 -0.652897
v -65.4387 -179.81 1230.7
vn 0.591522 -0.473104 -0.652897
v -65.43 -179.809 1230.7
vn 0.591522 -0.473104 -0.652897
v -65.4368 -179.818 1230.7
vn -0.200336 -0.97338 0.11134
v -64.6829 -188.461 1230.6
vn -0.903274 0.359847 0.23368
v -64.0462 -180.105 1233.34
vn -0.16872 -0.962831 0.210926
v -63.3034 -188.314 1233.53
vn -0.194988 -0.89034 0.411429
v -63.9331 -187.541 1235.64
vn -0.846464 0.455673 0.275431
v -64.5934 -185.35 1236.78
vn -0.867716 0.34183 0.360861
v -64.1633 -185.549 1238.14
vn -0.177661 -0.511033 0.841001
v -63.5982 -185.17 1238.56
vn -0.450779 -0.71234 0.537931
v -64.9584 -186.645 1236.72
vn -0.843211 0.445167 0.301368
v -64.9919 -186.339 1237.13
vn -0.831661 0.457954 0.314037
v -64.683 -185.968 1237.45
vn -0.322105 -0.605954 0.727371
v -64.4916 -186.236 1237.44
vn -0.17152 -0.792454 0.585318
v -63.7124 -186.701 1237.11
vn -0.979814 -0.190212 0.0615143
v -63.9593 -183.042 1239.4
vn -0.979814 -0.190212 0.0615143
v -63.9665 -182.995 1239.43
vn -0.979814 -0.190212 0.0615143
v -63.9558 -183.04 1239.46
vn -0.115494 0.993077 -0.0214282
v -63.3732 -182.928 1239.33
vn -0.115494 0.993077 -0.0214282
v -63.3661 -182.925 1239.45
vn -0.611156 -0.789425 0.0574105
v -63.6429 -183.285 1239.42
vn -0.896246 0.318284 0.308932
v -63.4472 -184.174 1238.83
vn -0.873142 0.245147 0.421339
v -63.2971 -184.14 1239.12
vn -0.0912561 -0.676337 -0.730917
v -60.9151 -187.906 1224.05
vn 0.216283 0.889713 -0.402036
v -63.4083 -182.274 1226.15
vn -0.149534 -0.988699 0.0106582
v -61.9615 -189.105 1228.06
vn -0.13775 -0.983942 0.113501
v -62.4337 -188.753 1231.38
vn 0.338111 0.912738 -0.229328
v -64.0991 -179.842 1232.43
vn -0.900517 0.332905 0.279721
v -63.7195 -179.646 1234.21
vn -0.977021 -0.0862211 -0.194926
v -63.2328 -180.206 1236
vn -0.84503 0.491849 0.20978
v -62.9758 -179.753 1235.97
vn -0.590309 0.300854 0.749014
v -63.1504 -179.855 1237.76
vn -0.590309 0.300854 0.749014
v -63.1084 -179.846 1237.79
vn -0.590309 0.300854 0.749014
v -63.1373 -179.911 1237.79
vn -0.958524 0.278297 0.0615033
v -63.054 -180.13 1238.44
vn 0.285762 0.947131 0.145888
v -62.5585 -179.943 1237.16
vn -0.136378 -0.642289 0.754232
v -62.5229 -186.181 1237.93
vn -0.407001 0.264536 0.874283
v -63.06 -181.644 1239.34
vn -0.457471 0.316945 0.830823
v -62.7942 -181.187 1239.31
vn -0.188374 0.106032 0.976357
v -62.6498 -181.867 1239.5
vn -0.0159775 0.323396 -0.946129
v -60.5818 -185.1 1223.4
vn 0.0217669 0.4754 -0.8795
v -59.74 -184.642 1223.6
vn -0.0267797 -0.376286 -0.926116
v -59.8822 -187.102 1223.48
vn -0.00688834 -0.0541265 -0.99851
v -59.7701 -186.167 1223.28
vn 0.319502 0.925176 -0.204859
v -61.1229 -180.829 1232.89
vn 0.34363 0.887536 0.306916
v -59.5168 -181.362 1237.32
vn 0.242788 0.616857 0.748693
v -59.2197 -182.433 1238.74
vn 0.0685842 0.482151 -0.873399
v -57.9082 -184.573 1223.73
vn 0.0528606 0.240085 -0.969312
v -58.6992 -185.345 1223.37
vn 0.0538615 0.675815 -0.735101
v -58.3351 -184.038 1224.1
vn 0.0738976 0.817343 -0.571392
v -57.7546 -183.392 1224.95
vn -0.0312293 -0.730947 -0.681719
v -56.3791 -188.969 1224.73
vn -0.103223 -0.876094 -0.470962
v -56.2923 -189.427 1225.34
vn 0.200049 0.971466 -0.127416
v -57.5289 -182.246 1230.32
vn -0.0928585 -0.342716 0.934838
v -57.7439 -185.196 1239.07
vn 0.00104922 0.0196863 0.999806
v -56.6668 -184.371 1239.27
vn 0.0642084 -0.0218001 -0.997698
v -55.4573 -186.238 1223.48
vn 0.00954887 -0.527312 -0.849618
v -55.383 -188.05 1223.93
vn 0.0435761 -0.260096 -0.964599
v -55.2179 -187.411 1223.66
vn -0.121477 -0.985649 0.117217
v -53.0922 -190.393 1228.79
vn -0.11066 -0.979265 0.16969
v -53.2684 -189.515 1233.59
vn 0.243832 0.968549 0.0495898
v -55.3363 -182.555 1236.82
vn 0.158045 0.880333 0.447253
v -54.2449 -183.072 1237.97
vn -0.00173959 0.531236 0.847222
v -53.2994 -184.322 1239.41
vn 0.124207 0.118109 -0.985202
v -52.4344 -185.949 1223.75
vn 0.102223 -0.149091 -0.983526
v -52.2023 -187.125 1223.81
vn 0.125324 0.895986 -0.426031
v -53.3935 -183.664 1225.3
vn 0.112961 0.668744 -0.734862
v -53.9289 -184.398 1224.25
vn 0.143344 0.383621 -0.912298
v -52.2421 -185.296 1223.96
vn 0.0745204 -0.379313 -0.922262
v -52.3737 -187.768 1223.97
vn -0.109475 -0.981724 -0.155672
v -51.3109 -190.622 1227.19
vn -0.171066 -0.155022 0.972987
v -51.8086 -185.552 1239.84
vn 0.0489554 0.782457 0.620777
v -51.8502 -184.014 1239.06
vn 0.177033 0.750801 -0.636362
v -51.4679 -184.243 1224.92
vn 0.192265 0.588091 -0.78561
v -50.4388 -184.934 1224.54
vn 0.0425957 -0.603303 -0.796374
v -49.9123 -189.105 1224.9
vn 0.139916 0.981012 -0.13431
v -50.5271 -183.508 1227.55
vn 0.174284 0.946863 -0.270326
v -49.9269 -183.841 1226.32
vn -0.0207286 -0.845392 -0.533744
v -49.9604 -190.315 1226.21
vn -0.156791 -0.924946 0.346253
v -48.8389 -189.171 1236.93
vn -0.24992 -0.734256 0.631196
v -49.5102 -187.869 1239.04
vn 0.202537 0.851087 -0.484385
v -48.9511 -184.319 1225.68
vn 0.183996 0.976906 -0.108624
v -48.6071 -183.774 1228.05
vn -0.12047 -0.984772 0.125343
v -47.0704 -190.969 1230.27
vn 0.246248 0.473425 -0.845713
v -44.33 -186.173 1225.35
vn 0.125161 -0.361707 -0.923852
v -44.8335 -188.417 1225.02
vn 0.184705 -0.0818358 -0.979381
v -44.3614 -187.714 1224.95
vn 0.225511 0.19971 -0.953552
v -44.1763 -187.066 1225.03
vn 0.25012 0.711561 -0.656598
v -44.4892 -185.586 1225.76
vn 0.237501 0.908501 -0.34383
v -44.4878 -184.846 1226.94
vn 0.0616899 -0.66266 -0.746375
v -44.4954 -189.878 1225.88
vn -0.0635851 -0.982464 -0.175277
v -44.0541 -191.369 1228.3
vn -0.14812 -0.975551 0.162358
v -44.415 -190.337 1235.51
vn 0.0814752 0.878358 0.471009
v -44.7837 -185.4 1240.04
vn 0.120114 0.95946 0.254969
v -44.6916 -184.835 1238.38
vn -0.124045 0.359135 0.925005
v -44.8546 -186.315 1240.96
vn 0.00266301 0.728511 0.685029
v -44.6892 -185.736 1240.5
vn -0.234737 -0.0714211 0.969432
v -44.3173 -187.429 1241.19
vn 0.302335 0.760088 -0.575204
v -42.1814 -185.817 1226.54
vn 0.312301 0.294941 -0.903038
v -41.3604 -187.113 1225.85
vn 0.273247 -0.0292089 -0.9615
v -41.1355 -188.293 1225.78
vn 0.322631 0.578808 -0.748926
v -41.4567 -186.515 1226.16
vn 0.144535 -0.531154 -0.834857
v -42.3651 -189.755 1226.06
vn 0.0183321 -0.871074 -0.490809
v -41.9939 -191.174 1227.58
vn 0.237116 -0.295722 -0.925378
v -41.3107 -188.937 1225.87
vn 0.112034 -0.722531 -0.682201
v -40.864 -190.807 1227.2
vn 0.103541 0.993334 0.0506551
v -41.4877 -185.018 1235.19
vn -0.0328627 0.85197 0.522558
v -41.6001 -185.836 1240.63
vn -0.206129 0.255956 0.944456
v -41.9286 -186.954 1241.69
vn -0.110902 0.625918 0.771964
v -41.6976 -186.61 1241.56
vn -0.282035 0.146276 0.948188
v -40.4335 -188.182 1242.2
vn -0.304014 -0.529259 0.792124
v -41.7947 -189.382 1241.19
vn -0.174855 -0.942472 0.284908
v -41.4011 -190.171 1240.14
vn 0.220249 -0.535804 -0.81511
v -38.5318 -190.206 1227.19
vn 0.335499 -0.00160244 -0.942039
v -38.6139 -188.398 1226.6
vn 0.173301 0.974436 -0.142977
v -39.9201 -185.402 1229.7
vn -0.0552012 -0.998472 0.00261685
v -39.9019 -191.744 1229.88
vn 0.000377035 -0.970782 -0.239962
v -39.3573 -191.697 1228.94
vn 0.1184 -0.828679 -0.547058
v -38.4962 -191.515 1228.59
vn -0.0162967 0.95368 0.300382
v -39.8626 -185.551 1239.92
vn -0.212695 0.582369 0.784606
v -39.7795 -186.832 1242.16
vn 0.367667 0.362996 -0.856186
v -38.0833 -187.677 1226.95
vn 0.204809 -0.669394 -0.714118
v -35.5733 -190.829 1228.5
vn -0.12843 0.842341 0.523419
v -36.4312 -186.538 1242.76
vn -0.350328 -0.0411058 0.935724
v -35.1377 -188.032 1244.11
vn 0.275804 0.828726 -0.486976
v -35.7803 -186.578 1229.2
vn 0.312059 -0.211476 -0.926227
v -34.2793 -189.662 1228.34
vn 0.335972 0.571328 -0.748803
v -34.3584 -187.53 1228.8
vn 0.354346 0.179383 -0.917748
v -33.8538 -188.66 1228.46
vn 0.199236 -0.793848 -0.574553
v -32.9597 -191.264 1229.77
vn 0.01385 -0.999243 -0.0363459
v -33.834 -191.969 1231.34
vn 0.082924 -0.953454 -0.289912
v -33.7273 -191.828 1230.43
vn -0.0562055 -0.994557 0.087733
v -32.9304 -191.823 1233.39
vn 0.283937 0.647371 -0.707312
v -31.1767 -187.807 1229.85
vn 0.28695 -0.46671 -0.836565
v -30.664 -190.459 1229.81
vn 0.163086 0.892082 -0.421417
v -31.6206 -186.705 1231.07
vn 0.0823839 0.983625 -0.160295
v -31.9022 -185.864 1234.06
vn 0.00280713 0.999712 -0.0238427
v -32.0103 -185.623 1237.97
vn -0.108504 0.975609 0.190825
v -31.3443 -185.932 1242.75
vn -0.0983951 -0.946691 0.306747
v -30.3793 -190.68 1243.43
vn -0.194672 0.843917 0.499908
v -31.7252 -186.625 1244.3
vn 0.346016 0.317781 -0.882773
v -29.8172 -188.457 1229.99
vn 0.352349 -0.0592171 -0.933993
v -29.5926 -189.637 1229.91
vn 0.289834 -0.61386 -0.734283
v -28.73 -190.678 1230.68
vn -0.0251495 0.97608 -0.215951
v -29.1291 -185.907 1234.21
vn 0.0949294 -0.966287 -0.239327
v -28.1125 -191.69 1232.51
vn -0.103497 0.991047 -0.0843415
v -29.6473 -185.609 1236.63
vn -0.126726 0.991301 0.0355293
v -30.6589 -185.62 1240
vn -0.384661 0.457055 0.801958
v -29.3013 -187.469 1246.16
vn -0.197831 -0.803673 0.561224
v -28.2655 -190.026 1245.7
vn -0.439048 0.0158719 0.898323
v -27.7856 -188.687 1247.03
vn 0.374113 -0.294281 -0.879453
v -27.299 -190.089 1230.91
vn 0.049271 0.902442 -0.427986
v -26.9773 -186.182 1233.49
vn 0.174892 0.758235 -0.628086
v -26.2932 -186.805 1232.71
vn -0.239551 0.922194 0.3036
v -26.3964 -185.503 1244.86
vn -0.319523 0.807474 0.495874
v -27.1278 -186.132 1245.9
vn -0.551615 0.17762 0.814967
v -25.7656 -187.66 1248.24
vn -0.316711 -0.659941 0.681301
v -25.5494 -188.878 1247.92
vn -0.154245 -0.887512 0.434201
v -24.9517 -189.978 1246.41
vn -0.493843 -0.252116 0.8322
v -25.3391 -188.184 1248.48
vn 0.446625 -0.273269 -0.851968
v -24.7546 -190.183 1232.13
vn 0.419073 0.0757953 -0.904783
v -24.3901 -188.888 1232.19
vn 0.350781 0.412105 -0.840906
v -23.9442 -187.875 1232.67
vn 0.360901 -0.532376 -0.765719
v -25.2906 -190.594 1232.08
vn 0.270337 -0.741337 -0.614278
v -25.1551 -191.115 1232.62
vn 0.0240679 -0.99559 -0.0906743
v -22.6099 -192.154 1235.82
vn -0.237766 0.961045 0.140925
v -24.1574 -184.758 1243.81
vn -0.144735 -0.945312 0.292297
v -22.5874 -190.754 1245.39
vn -0.508918 0.625045 0.59188
v -25.0584 -186.607 1248.13
vn -0.410363 0.848875 0.333187
v -24.1164 -185.472 1247.14
vn -0.0253 0.870568 -0.491397
v -22.4581 -185.025 1235.91
vn 0.202408 -0.8808 -0.428044
v -22.0868 -191.9 1235.18
vn 0.387143 -0.617415 -0.684777
v -21.0117 -191.253 1234.8
vn 0.2354 -0.933601 -0.270139
v -20.4776 -191.944 1236.29
vn 0.394205 -0.763148 -0.512063
v -20.279 -191.591 1235.67
vn -0.165948 0.947562 -0.273107
v -22.1711 -184.547 1237.08
vn 0.0647167 -0.99642 -0.0543976
v -20.9826 -192.194 1237.23
vn -0.257069 0.965863 -0.0320058
v -22.9057 -184.318 1240.72
vn -0.0881157 -0.989 0.118803
v -20.5255 -192.107 1239.9
vn -0.417256 0.905391 0.0785188
v -22.8959 -184.488 1245.23
vn -0.0956427 -0.971263 0.217944
v -20.0545 -191.322 1244.96
vn -0.528874 0.835854 0.147106
v -21.3548 -183.895 1247.23
vn -0.1399 -0.90559 0.400419
v -20.0601 -190.236 1248.24
vn -0.573758 0.718583 0.39299
v -22.7929 -185.423 1248.86
vn -0.520353 0.0550691 0.852174
v -22.3845 -186.959 1250.62
vn -0.554952 0.424204 0.715597
v -22.2101 -186.315 1250.51
vn -0.421936 -0.309392 0.852201
v -22.2706 -187.548 1250.61
vn -0.303771 -0.600762 0.739465
v -21.5151 -188.32 1250.5
vn -0.103476 -0.698501 0.708088
v -20.5194 -188.738 1250.44
vn -0.0871923 -0.506491 0.857825
v -20.6065 -188.135 1250.92
vn -0.181876 -0.808873 0.559148
v -20.4459 -189.347 1249.72
vn 0.0534068 -0.869073 0.491793
v -19.7786 -189.839 1249.07
vn -0.295433 0.0138347 0.955263
v -20.8699 -186.651 1251.31
vn -0.380326 0.29669 0.875972
v -20.5139 -185.361 1251.22
vn -0.250905 -0.334402 0.908418
v -21.0058 -187.599 1251.09
vn -0.0187019 -0.239991 0.970595
v -20.1633 -187.124 1251.35
vn 0.11983 0.693266 -0.71065
v -20.8869 -185.398 1235.39
vn 0.395765 0.438172 -0.807078
v -20.1434 -186.175 1235.08
vn 0.506859 0.015362 -0.861892
v -20.3208 -188.669 1234.29
vn 0.53003 0.21411 -0.820503
v -19.9335 -187.362 1234.74
vn 0.693363 0.0154535 -0.720423
v -18.6736 -188.938 1235.5
vn 0.582209 -0.360758 -0.72862
v -19.0276 -190.231 1235.42
vn -0.106806 0.836463 -0.537514
v -20.9873 -184.552 1236.41
vn -0.112335 0.886143 -0.44959
v -19.5489 -183.818 1237.21
vn 0.135538 0.71528 -0.685568
v -19.208 -184.129 1236.8
vn 0.540284 -0.656189 -0.526791
v -18.7687 -191.225 1236.47
vn 0.698934 -0.439121 -0.564503
v -17.9492 -190.608 1236.8
vn 0.616674 -0.65038 -0.44353
v -17.7889 -191.175 1237.6
vn 0.61498 -0.720885 -0.319571
v -17.6987 -191.44 1238.22
vn 0.404162 -0.852025 -0.332726
v -18.2813 -191.678 1237.96
vn -0.236735 0.946707 -0.21841
v -19.2547 -183.282 1238.68
vn 0.202639 -0.972417 -0.115515
v -18.442 -192.033 1239.18
vn 0.454766 -0.871274 -0.184581
v -17.8658 -191.859 1239.14
vn 0.409831 -0.912118 0.00895634
v -17.7568 -191.936 1240.64
vn 0.0488568 -0.994082 0.0970223
v -18.9145 -192.065 1241.31
vn 0.372377 -0.915578 0.15183
v -17.6855 -191.724 1242.44
vn 0.513995 -0.817774 0.258951
v -17.6572 -191.292 1244.22
vn 0.167803 -0.953466 0.250491
v -18.2241 -191.448 1244.47
vn -0.486202 0.873846 -0.000826303
v -20.0326 -183.047 1246.53
vn -0.422051 0.905797 0.0374852
v -18.88 -182.315 1247.65
vn 0.000145258 -0.938643 0.34489
v -19.4203 -190.772 1247.02
vn 0.316953 -0.861239 0.39725
v -18.5325 -190.544 1247.23
vn 0.644791 -0.67577 0.357182
v -17.6891 -190.359 1246.61
vn -0.480086 0.735181 0.478567
v -19.7363 -183.41 1250.13
vn -0.51088 0.829303 0.226402
v -19.3076 -182.769 1249.19
vn -0.130868 0.696769 0.705256
v -18.849 -183.17 1250.38
vn -0.273864 0.938359 0.210905
v -18.7521 -182.489 1249.15
vn -0.169401 0.865023 0.472269
v -18.6774 -182.679 1249.75
vn 0.626285 -0.0691051 0.776526
v -18.0698 -185.504 1250.69
vn 0.17862 -0.592076 0.785838
v -19.6243 -188.573 1250.57
vn 0.434288 -0.627521 0.646229
v -18.9729 -188.977 1249.95
vn 0.495566 -0.444092 0.746456
v -18.783 -188.092 1250.51
vn 0.705011 -0.436093 0.55927
v -18.1609 -188.544 1249.59
vn 0.736083 -0.246904 0.630255
v -17.8255 -186.945 1250.12
vn 0.117969 -0.755384 0.644576
v -19.5455 -189.167 1249.99
vn 0.319675 -0.782845 0.533817
v -18.87 -189.662 1249.06
vn 0.592301 -0.641154 0.487955
v -18.0339 -189.579 1248.41
vn -0.222843 0.550124 0.804801
v -19.5839 -183.962 1250.85
vn 0.16566 0.435193 0.884965
v -18.7026 -183.791 1250.79
vn -0.0976523 0.146417 0.984391
v -19.9114 -185.546 1251.41
vn -0.498963 0.54315 0.675295
v -20.1151 -184.371 1250.88
vn -0.172724 0.346222 0.922116
v -19.9797 -184.95 1251.25
vn 0.102534 -0.0268132 0.994368
v -19.7401 -186.123 1251.43
vn 0.174117 0.147106 0.973675
v -19.3293 -185.128 1251.3
vn 0.0802637 0.323619 0.942777
v -19.1586 -184.486 1251.13
vn 0.417575 -0.0560248 0.906914
v -18.8698 -185.957 1251.18
vn 0.382136 0.156518 0.910755
v -18.5796 -184.376 1250.94
vn 0.201103 -0.406165 0.891396
v -19.7666 -187.662 1251.13
vn 0.265836 -0.208642 0.941169
v -19.5762 -187.01 1251.3
vn 0.498394 -0.272141 0.82313
v -18.8969 -187.497 1250.86
vn 0.447435 0.551141 -0.704305
v -18.6007 -184.004 1237.16
vn 0.15688 0.861659 -0.48263
v -18.6526 -183.529 1237.75
vn 0.65307 0.248053 -0.71552
v -18.414 -186.122 1236.31
vn 0.649545 0.490989 -0.580536
v -17.8053 -184.145 1237.72
vn 0.833662 0.185414 -0.520221
v -17.255 -185.255 1238.02
vn 0.786801 0.113254 -0.606727
v -17.6916 -187.195 1236.84
vn 0.934473 0.0149238 -0.355721
v -16.7374 -188.516 1238.08
vn 0.776467 -0.220012 -0.590503
v -17.7755 -189.965 1236.68
vn 0.821998 -0.0476479 -0.567494
v -17.2709 -189.246 1237.23
vn 0.792736 -0.458714 -0.401437
v -17.2351 -190.755 1237.97
vn 0.881506 -0.212373 -0.421716
v -16.8816 -190.071 1238.13
vn -0.0481721 0.973224 -0.224754
v -18.6622 -183.095 1238.94
vn 0.342669 0.851696 -0.396474
v -18.0435 -183.259 1238.61
vn 0.31257 0.92494 -0.2163
v -18.0293 -183.019 1239.5
vn 0.646737 0.667046 -0.36984
v -17.5257 -183.459 1238.89
vn 0.672219 0.702606 -0.23338
v -17.1356 -183.362 1240.06
vn 0.490459 0.853703 -0.175047
v -17.3361 -183.059 1240.67
vn 0.834329 0.331287 -0.440617
v -17.1774 -184.313 1238.59
vn 0.842403 0.439696 -0.311488
v -16.9309 -183.944 1239.47
vn 0.951631 0.161135 -0.261598
v -16.5438 -184.78 1239.77
vn 0.948055 -0.268586 -0.17045
v -16.6671 -190.32 1239.03
vn 0.76531 -0.631189 -0.126096
v -17.0023 -191.291 1239.68
vn 0.726758 0.668827 -0.156507
v -16.6541 -183.228 1242.44
vn 0.910163 0.380708 -0.163293
v -16.3759 -183.795 1241.84
vn 0.990889 0.0934443 -0.0969897
v -16.3184 -184.09 1241.84
vn 0.916548 -0.399508 0.0182679
v -16.7996 -190.921 1241.16
vn 0.906463 -0.40894 0.105322
v -16.7831 -190.576 1243.25
vn 0.992927 -0.11129 -0.0413583
v -16.3409 -189.294 1241.69
vn 0.721383 -0.684905 0.102527
v -17.1596 -191.388 1242.09
vn -0.298362 0.951542 -0.0744812
v -18.486 -182.458 1243.72
vn 0.158397 0.980998 -0.11204
v -17.8847 -182.413 1243.69
vn 0.617321 0.78242 -0.082057
v -16.7842 -182.932 1243.34
vn 0.876821 0.476261 -0.0660276
v -16.3386 -183.457 1243.33
vn 0.995382 0.0956527 -0.00809838
v -16.2673 -183.749 1243.33
vn 0.990852 -0.0647764 0.118387
v -16.372 -188.01 1245.59
vn 0.780047 -0.584061 0.224498
v -17.1349 -190.746 1244.48
vn 0.930839 -0.314064 0.186823
v -16.534 -188.959 1245.6
vn 0.983954 -0.164293 0.0695879
v -16.3027 -188.94 1244.08
vn -0.0108371 0.999375 0.0336425
v -18.3191 -182.159 1247.31
vn 0.378754 0.924728 -0.0377275
v -17.4249 -182.339 1246.36
vn 0.355921 0.933203 0.0495193
v -17.3438 -182.37 1247.56
vn 0.661646 0.74694 0.0656086
v -16.9765 -182.592 1247.85
vn 0.946005 0.314191 0.0797415
v -16.5153 -183.129 1246.63
vn 0.955749 -0.165873 0.24296
v -16.6208 -188.034 1247.08
vn 0.845133 -0.452151 0.285149
v -17.0093 -189.652 1246.25
vn 0.818501 -0.41517 0.397103
v -17.0824 -188.724 1247.73
vn 0.28444 0.592966 0.753316
v -18.257 -183.102 1250.26
vn 0.0627081 0.948488 0.310546
v -18.1624 -182.384 1249.11
vn 0.248838 0.793799 0.554944
v -17.8796 -182.732 1249.71
vn 0.460691 0.771143 0.439435
v -17.5483 -182.673 1249.39
vn 0.584665 0.53254 0.61202
v -17.4825 -182.96 1249.69
vn 0.748242 0.203634 0.631401
v -17.5629 -183.581 1250.08
vn 0.310511 0.928076 0.205565
v -17.5656 -182.412 1248.78
vn 0.474684 0.869395 0.13721
v -17.2627 -182.497 1248.46
vn 0.651744 0.704881 0.279952
v -17.1856 -182.612 1248.76
vn 0.870644 0.279886 0.404527
v -17.144 -182.904 1249.09
vn 0.935136 0.26932 0.230191
v -16.8454 -182.862 1248.15
vn 0.508463 0.222167 0.83193
v -18.0658 -183.976 1250.61
vn 0.742597 0.0122995 0.669626
v -17.6787 -184.822 1250.36
vn 0.860357 -0.0607862 0.506054
v -17.5126 -185.423 1250.06
vn 0.90484 -0.157328 0.395617
v -16.9786 -187.161 1248.58
vn -0.580132 0.65785 0.480292
v -69.1331 -186.141 1224.48
vn -0.600079 -0.538091 0.591916
v -69.1331 -186.141 1224.48
vn -0.687473 0.722189 -0.0763165
v -69.1331 -186.141 1224.48
vn -0.221558 -0.678701 -0.700198
v -68.8327 -186.386 1224.56
vn -0.600079 -0.538091 0.591916
v -68.8327 -186.386 1224.56
vn -0.794255 0.597689 0.109205
v -68.6805 -185.754 1224.06
vn -0.553961 0.335805 -0.761815
v -68.6805 -185.754 1224.06
vn -0.23624 0.468477 0.851305
v -68.7287 -184.54 1224.11
vn -0.198196 -0.39368 -0.897627
v -68.7287 -184.54 1224.11
vn -0.0910138 -0.337157 0.937039
v -68.7287 -184.54 1224.11
vn -0.240214 -0.824447 -0.51243
v -69.1071 -186.477 1224.79
vn -0.781918 0.515672 0.350265
v -69.1071 -186.477 1224.79
vn -0.787098 -0.612201 -0.0754057
v -69.1071 -186.477 1224.79
vn -0.681971 0.6134 0.398316
v -68.8719 -186.119 1224.76
vn -0.600079 -0.538091 0.591916
v -68.8719 -186.119 1224.76
vn -0.873454 0.358819 0.32913
v -68.7144 -187.241 1226.89
vn -0.876844 -0.458206 -0.145571
v -68.5262 -187.408 1226.28
vn -0.934417 -0.287399 -0.210395
v -68.6926 -187.537 1227.2
vn -0.899167 0.408597 0.156675
v -68.6926 -187.537 1227.2
vn -0.75387 0.639565 0.150454
v -68.7148 -187.531 1227.78
vn -0.534021 -0.786035 0.311401
v -68.4809 -187.48 1228.09
vn -0.929062 -0.117716 0.350694
v -68.4809 -187.48 1228.09
vn 0.759958 -0.486558 0.430959
v -68.2069 -187.371 1231.38
vn 0.759958 -0.486558 0.430959
v -68.2133 -187.372 1231.39
vn 0.759958 -0.486558 0.430959
v -68.2125 -187.379 1231.38
vn -0.373931 0.509794 -0.774781
v -68.5342 -183.885 1224.38
vn -0.152256 0.357021 0.921604
v -68.5342 -183.885 1224.38
vn 0.00997048 -0.45344 0.891231
v -68.5342 -183.885 1224.38
vn -0.153882 0.491324 0.857275
v -68.3501 -184.297 1224.08
vn -0.23645 0.549553 -0.8013
v -68.129 -183.809 1224.24
vn 0.246298 0.144278 -0.958395
v -68.129 -183.809 1224.24
vn -0.0637055 0.505133 0.860687
v -68.0589 -184.225 1224.06
vn -0.609628 0.195242 0.768267
v -68.0589 -184.225 1224.06
vn -0.0517426 0.8138 -0.578837
v -68.0589 -184.225 1224.06
vn -0.0825127 0.525264 0.846929
v -68.1527 -183.649 1224.35
vn -0.229695 -0.471885 0.851213
v -67.7735 -184.044 1224.29
vn 0.246298 0.144278 -0.958395
v -67.7735 -184.044 1224.29
vn -0.788051 0.0126307 0.615481
v -67.7735 -184.044 1224.29
vn -0.0517426 0.8138 -0.578837
v -67.7735 -184.044 1224.29
vn -0.453272 0.00601548 -0.891352
v -67.7735 -184.044 1224.29
vn -0.574732 0.107275 -0.81128
v -67.8725 -183.447 1224.56
vn -0.494081 -0.340771 0.799849
v -67.8725 -183.447 1224.56
vn 0.246298 0.144278 -0.958395
v -67.8522 -183.625 1224.34
vn -0.00957278 0.673156 0.739439
v -67.8522 -183.625 1224.34
vn -0.453272 0.00601548 -0.891352
v -67.8522 -183.625 1224.34
vn -0.0798139 0.948709 0.305909
v -67.8522 -183.625 1224.34
vn -0.581151 0.464363 0.668304
v -67.8522 -183.625 1224.34
vn -0.0979765 0.425027 -0.899863
v -67.8522 -183.625 1224.34
vn -0.229695 -0.471885 0.851213
v -67.822 -183.745 1224.44
vn -0.581151 0.464363 0.668304
v -67.822 -183.745 1224.44
vn -0.577932 -0.760135 -0.296966
v -67.5532 -183.594 1224.32
vn -0.0406584 0.486128 -0.872941
v -67.5532 -183.594 1224.32
vn -0.574732 0.107275 -0.81128
v -67.5532 -183.594 1224.32
vn -0.637249 0.511535 -0.576408
v -67.5532 -183.594 1224.32
vn 0.49585 0.742867 -0.449757
v -67.5532 -183.594 1224.32
vn -0.730007 -0.534117 0.426391
v -67.5532 -183.594 1224.32
vn -0.629377 0.265804 -0.730228
v -68.3181 -185.071 1224.1
vn -0.855696 0.505753 0.109538
v -68.4095 -185.458 1224.42
vn -0.220785 -0.399737 -0.889643
v -68.3238 -184.463 1223.99
vn -0.126006 -0.0584921 -0.990304
v -68.1592 -185.35 1223.86
vn -0.250561 -0.37759 0.891429
v -68.3127 -184.457 1224.18
vn -0.697501 0.192723 -0.690181
v -68.2129 -184.745 1224.09
vn -0.250561 -0.37759 0.891429
v -68.2129 -184.745 1224.09
vn -0.944835 0.309803 0.106346
v -68.2129 -184.745 1224.09
vn -0.119433 0.334348 -0.934852
v -68.2129 -184.745 1224.09
vn -0.519281 0.474018 0.711093
v -68.2129 -184.745 1224.09
vn -0.55993 0.206851 0.802303
v -68.0185 -184.4 1224.17
vn -0.00101937 0.237347 0.971424
v -67.9572 -184.692 1224.24
vn -0.742437 0.479101 0.468241
v -67.9572 -184.692 1224.24
vn -0.552419 0.0869637 0.829018
v -67.9572 -184.692 1224.24
vn -0.0517426 0.8138 -0.578837
v -67.1447 -184.233 1223.97
vn -0.453272 0.00601548 -0.891352
v -67.1447 -184.233 1223.97
vn -0.425933 0.892045 0.151115
v -66.9414 -181.403 1226.21
vn -0.848592 0.492943 -0.192092
v -66.9414 -181.403 1226.21
vn 0.077678 0.762287 -0.642561
v -66.9414 -181.403 1226.21
vn -0.537713 0.563182 0.627448
v -66.9772 -181.098 1226.59
vn -0.537713 0.563182 0.627448
v -66.9339 -181.089 1226.62
vn -0.537713 0.563182 0.627448
v -66.9696 -181.127 1226.62
vn -0.557303 -0.828467 0.0552751
v -67.9708 -182.85 1224.84
vn -0.0783354 0.671867 -0.736518
v -67.9708 -182.85 1224.84
vn 0.0501118 0.0923289 -0.994467
v -67.9708 -182.85 1224.84
vn 0.49585 0.742867 -0.449757
v -67.9253 -183.151 1224.64
vn -0.508189 -0.29917 0.807614
v -67.9253 -183.151 1224.64
vn -0.581151 0.464363 0.668304
v -67.5778 -183.695 1224.62
vn -0.577932 -0.760135 -0.296966
v -67.5778 -183.695 1224.62
vn -0.455722 -0.462309 0.76065
v -67.5778 -183.695 1224.62
vn -0.834927 -0.0222441 0.549911
v -67.5778 -183.695 1224.62
vn -0.47899 -0.381693 0.790493
v -67.5778 -183.695 1224.62
vn -0.13659 -0.457077 0.878877
v -68.007 -182.546 1225.21
vn -0.373445 0.602706 -0.705184
v -68.007 -182.546 1225.21
vn -0.21826 -0.489271 -0.84438
v -68.007 -182.546 1225.21
vn -0.0783354 0.671867 -0.736518
v -67.982 -182.769 1224.92
vn -0.0502634 0.814015 0.578665
v -67.982 -182.769 1224.92
vn -0.557303 -0.828467 0.0552751
v -67.9619 -182.846 1225
vn -0.0783663 0.711317 0.698489
v -67.9619 -182.846 1225
vn 0.152869 -0.389066 0.908437
v -67.9619 -182.846 1225
vn 0.0501118 0.0923289 -0.994467
v -67.6189 -183.087 1224.84
vn 0.152869 -0.389066 0.908437
v -67.6189 -183.087 1224.84
vn -0.637249 0.511535 -0.576408
v -67.6189 -183.087 1224.84
vn -0.673559 -0.450542 0.585943
v -67.6189 -183.087 1224.84
vn -0.21826 -0.489271 -0.84438
v -67.7181 -182.491 1225.11
vn 0.262195 -0.0661687 -0.962744
v -67.7181 -182.491 1225.11
vn 0.152869 -0.389066 0.908437
v -67.6683 -182.789 1224.98
vn -0.633105 -0.405588 0.6593
v -67.6683 -182.789 1224.98
vn -0.494081 -0.340771 0.799849
v -67.3918 -183.348 1224.9
vn -0.618201 -0.43815 0.652573
v -67.3918 -183.348 1224.9
vn -0.889944 0.0225495 0.455512
v -67.3918 -183.348 1224.9
vn -0.218568 0.647134 -0.730374
v -67.7312 -182.394 1225.2
vn -0.28875 -0.55652 0.779043
v -67.7075 -182.486 1225.29
vn -0.21826 -0.489271 -0.84438
v -67.4716 -182.747 1225.19
vn 0.262195 -0.0661687 -0.962744
v -67.4716 -182.747 1225.19
vn -0.183864 0.982655 -0.0241288
v -67.4716 -182.747 1225.19
vn -0.951753 0.106689 -0.287721
v -67.4716 -182.747 1225.19
vn 0.0501118 0.0923289 -0.994467
v -67.378 -182.737 1224.88
vn -0.105769 0.970447 0.2169
v -67.378 -182.737 1224.88
vn -0.637249 0.511535 -0.576408
v -67.378 -182.737 1224.88
vn -0.951753 0.106689 -0.287721
v -67.378 -182.737 1224.88
vn -0.0105568 0.601925 -0.798483
v -67.378 -182.737 1224.88
vn 0.262195 -0.0661687 -0.962744
v -67.4275 -182.387 1225.18
vn 0.133375 0.554777 0.821239
v -67.4275 -182.387 1225.18
vn -0.951753 0.106689 -0.287721
v -67.4275 -182.387 1225.18
vn 0.0210469 0.64489 -0.763986
v -67.4275 -182.387 1225.18
vn -0.686733 0.712124 -0.145865
v -67.4275 -182.387 1225.18
vn -0.930885 -0.0795127 0.356553
v -67.4275 -182.387 1225.18
vn 0.23551 0.357758 0.903628
v -67.3552 -182.723 1225.29
vn -0.930885 -0.0795127 0.356553
v -67.3552 -182.723 1225.29
vn -0.775098 0.608369 -0.170615
v -67.2312 -182.079 1225.76
vn -0.930885 -0.0795127 0.356553
v -67.2312 -182.079 1225.76
vn -0.775098 0.608369 -0.170615
v -67.1567 -182.07 1225.45
vn -0.929062 -0.117716 0.350694
v -67.2186 -187.782 1231.33
vn -0.639115 -0.666562 0.383702
v -67.2186 -187.782 1231.33
vn -0.836756 0.511341 0.195883
v -65.8992 -186.856 1235.14
vn -0.808631 -0.546105 0.218828
v -65.8992 -186.856 1235.14
vn -0.339177 -0.816063 0.467974
v -65.712 -187.12 1235.43
vn -0.887226 -0.423978 0.181858
v -65.7922 -186.825 1235.73
vn -0.597224 -0.529752 0.602235
v -65.7922 -186.825 1235.73
vn -0.228125 -0.930379 0.286973
v -65.5306 -187.556 1234.53
vn -0.721479 -0.470854 0.507706
v -65.2142 -186.392 1236.59
vn -0.0733342 0.134312 -0.988222
v -65.7564 -185.19 1223.61
vn -0.425933 0.892045 0.151115
v -66.6184 -181.332 1226.7
vn -0.93082 0.178901 0.318698
v -66.6184 -181.332 1226.7
vn -0.568298 0.720533 -0.397328
v -66.6184 -181.332 1226.7
vn -0.568298 0.720533 -0.397328
v -66.3484 -181.183 1226.58
vn 0.187976 0.817206 -0.54483
v -66.3484 -181.183 1226.58
vn -0.568298 0.720533 -0.397328
v -66.3598 -181.028 1226.88
vn 0.150356 0.917032 -0.369386
v -66.3598 -181.028 1226.88
vn 0.447312 -0.342593 0.826161
v -66.0584 -180.588 1228.05
vn 0.447312 -0.342593 0.826161
v -66.0652 -180.589 1228.06
vn 0.447312 -0.342593 0.826161
v -66.0643 -180.595 1228.06
vn -0.535115 0.458537 0.709504
v -65.7608 -180.204 1229.22
vn -0.535115 0.458537 0.709504
v -65.7504 -180.202 1229.23
vn -0.535115 0.458537 0.709504
v -65.7586 -180.213 1229.23
vn -0.0796355 0.96615 -0.245383
v -65.425 -180.359 1229.21
vn 0.391859 0.878321 -0.273857
v -65.425 -180.359 1229.21
vn 0.751994 -0.397354 0.525941
v -65.3821 -180.12 1229.81
vn 0.751994 -0.397354 0.525941
v -65.4289 -180.128 1229.87
vn 0.751994 -0.397354 0.525941
v -65.4209 -180.188 1229.81
vn -0.591522 0.473104 0.652897
v -65.4387 -179.81 1230.7
vn -0.591522 0.473104 0.652897
v -65.43 -179.809 1230.7
vn -0.591522 0.473104 0.652897
v -65.4368 -179.818 1230.7
vn -0.332862 -0.530273 0.779752
v -64.1633 -185.549 1238.14
vn -0.741685 -0.566439 0.359235
v -64.9919 -186.339 1237.13
vn -0.213945 -0.78538 0.580866
v -64.9919 -186.339 1237.13
vn -0.451597 -0.332185 0.828078
v -64.9919 -186.339 1237.13
vn -0.520997 -0.380883 0.763865
v -64.683 -185.968 1237.45
vn -0.194999 0.505031 -0.840785
v -63.9593 -183.042 1239.4
vn -0.611156 -0.789425 0.0574105
v -63.9593 -183.042 1239.4
vn -0.0787536 -0.179952 -0.980518
v -63.9593 -183.042 1239.4
vn -0.115494 0.993077 -0.0214282
v -63.9665 -182.995 1239.43
vn -0.194999 0.505031 -0.840785
v -63.9665 -182.995 1239.43
vn -0.101758 0.559864 0.822313
v -63.9665 -182.995 1239.43
vn -0.611156 -0.789425 0.0574105
v -63.9558 -183.04 1239.46
vn -0.101758 0.559864 0.822313
v -63.9558 -183.04 1239.46
vn 0.0052987 -0.110982 0.993808
v -63.9558 -183.04 1239.46
vn -0.194999 0.505031 -0.840785
v -63.3732 -182.928 1239.33
vn -0.0787536 -0.179952 -0.980518
v -63.3732 -182.928 1239.33
vn -0.991751 0.116513 0.0534382
v -63.3732 -182.928 1239.33
vn -0.647622 0.603088 0.465693
v -63.3732 -182.928 1239.33
vn -0.101758 0.559864 0.822313
v -63.3661 -182.925 1239.45
vn -0.0909985 0.0184792 0.99568
v -63.3661 -182.925 1239.45
vn -0.978071 0.180331 0.1042
v -63.3661 -182.925 1239.45
vn -0.0787536 -0.179952 -0.980518
v -63.6429 -183.285 1239.42
vn -0.0202213 -0.259344 0.965573
v -63.6429 -183.285 1239.42
vn -0.977021 -0.0862211 -0.194926
v -63.6429 -183.285 1239.42
vn -0.647622 0.603088 0.465693
v -63.6429 -183.285 1239.42
vn -0.763699 -0.464403 0.448435
v -63.6429 -183.285 1239.42
vn -0.977021 -0.0862211 -0.194926
v -63.4472 -184.174 1238.83
vn -0.763699 -0.464403 0.448435
v -63.4472 -184.174 1238.83
vn -0.138674 -0.339733 0.930243
v -63.2971 -184.14 1239.12
vn -0.763699 -0.464403 0.448435
v -63.2971 -184.14 1239.12
vn -0.853526 0.484905 0.190683
v -64.0991 -179.842 1232.43
vn 0.348559 0.928319 -0.129349
v -63.7195 -179.646 1234.21
vn -0.942516 0.284326 0.175563
v -63.2328 -180.206 1236
vn -0.647622 0.603088 0.465693
v -63.2328 -180.206 1236
vn 0.279413 0.955427 0.0953268
v -62.9758 -179.753 1235.97
vn 0.590309 -0.300854 -0.749014
v -63.1504 -179.855 1237.76
vn 0.590309 -0.300854 -0.749014
v -63.1084 -179.846 1237.79
vn 0.590309 -0.300854 -0.749014
v -63.1373 -179.911 1237.79
vn 0.304894 0.855071 0.419396
v -63.054 -180.13 1238.44
vn -0.619424 0.401501 0.674619
v -63.054 -180.13 1238.44
vn -0.982822 0.145476 0.113568
v -63.06 -181.644 1239.34
vn 0.300925 0.492063 0.816896
v -62.7942 -181.187 1239.31
vn 0.263737 0.445609 0.855497
v -62.6498 -181.867 1239.5
vn -0.302345 -0.389748 0.869876
v -40.4335 -188.182 1242.2
vn -0.322401 -0.58482 0.74434
v -27.7856 -188.687 1247.03
f 2//2 6//6 7//7
f 3//3 5//5 1//1
f 410//410 1//1 5//5
f 30//30 407//407 420//420
f 408//408 411//411 421//421
f 412//412 464//464 29//29
f 412//412 409//409 464//464
f 30//30 420//420 62//62
f 417//417 80//80 9//9
f 420//420 418//418 62//62
f 80//80 417//417 410//410
f 423//423 8//8 419//419
f 9//9 14//14 10//10
f 8//8 423//423 424//424
f 418//418 422//422 13//13
f 9//9 80//80 81//81
f 10//10 14//14 11//11
f 13//13 422//422 425//425
f 426//426 13//13 425//425
f 11//11 14//14 15//15
f 12//12 13//13 426//426
f 11//11 15//15 427//427
f 16//16 18//18 17//17
f 429//429 430//430 431//431
f 427//427 15//15 67//67
f 67//67 15//15 65//65
f 428//428 536//536 68//68
f 4//4 20//20 31//31
f 21//21 24//24 19//19
f 33//33 435//435 414//414
f 20//20 22//22 31//31
f 432//432 23//23 436//436
f 438//438 435//435 33//33
f 35//35 438//438 33//33
f 27//27 441//441 433//433
f 455//455 434//434 442//442
f 22//22 38//38 31//31
f 436//436 23//23 26//26
f 443//443 437//437 449//449
f 444//444 439//439 37//37
f 445//445 477//477 440//440
f 439//439 473//473 37//37
f 450//450 441//441 27//27
f 451//451 478//478 446//446
f 452//452 46//46 28//28
f 453//453 456//456 490//490
f 457//457 491//491 25//25
f 442//442 492//492 455//455
f 63//63 493//493 444//444
f 37//37 63//63 444//444
f 136//136 38//38 458//458
f 458//458 38//38 454//454
f 447//447 45//45 459//459
f 78//78 136//136 458//458
f 415//415 465//465 34//34
f 468//468 32//32 463//463
f 463//463 32//32 413//413
f 466//466 39//39 3//3
f 3//3 39//39 5//5
f 410//410 5//5 39//39
f 469//469 467//467 416//416
f 470//470 29//29 464//464
f 34//34 465//465 73//73
f 471//471 545//545 466//466
f 545//545 75//75 466//466
f 466//466 75//75 39//39
f 469//469 36//36 467//467
f 33//33 474//474 35//35
f 475//475 472//472 30//30
f 31//31 38//38 545//545
f 476//476 37//37 473//473
f 30//30 62//62 475//475
f 37//37 475//475 63//63
f 136//136 545//545 38//38
f 42//42 43//43 41//41
f 60//60 76//76 40//40
f 483//483 482//482 484//484
f 77//77 479//479 546//546
f 49//49 48//48 44//44
f 50//50 500//500 485//485
f 54//54 47//47 55//55
f 495//495 56//56 515//515
f 486//486 498//498 57//57
f 487//487 520//520 503//503
f 496//496 514//514 51//51
f 521//521 499//499 52//52
f 499//499 501//501 52//52
f 516//516 497//497 507//507
f 502//502 504//504 509//509
f 522//522 460//460 505//505
f 488//488 53//53 461//461
f 489//489 448//448 511//511
f 462//462 512//512 506//506
f 494//494 511//511 448//448
f 63//63 513//513 493//493
f 51//51 514//514 58//58
f 508//508 525//525 517//517
f 518//518 521//521 52//52
f 56//56 510//510 506//506
f 506//506 512//512 56//56
f 526//526 54//54 55//55
f 56//56 59//59 515//515
f 527//527 523//523 519//519
f 528//528 61//61 78//78
f 531//531 526//526 55//55
f 56//56 512//512 59//59
f 529//529 533//533 535//535
f 530//530 532//532 534//534
f 59//59 512//512 60//60
f 513//513 63//63 547//547
f 63//63 64//64 547//547
f 60//60 512//512 76//76
f 524//524 78//78 458//458
f 524//524 528//528 78//78
f 533//533 480//480 535//535
f 78//78 61//61 79//79
f 79//79 61//61 481//481
f 13//13 62//62 418//418
f 62//62 63//63 475//475
f 63//63 62//62 64//64
f 9//9 81//81 66//66
f 117//117 547//547 64//64
f 62//62 13//13 12//12
f 103//103 117//117 62//62
f 62//62 117//117 64//64
f 14//14 65//65 15//15
f 66//66 14//14 9//9
f 66//66 65//65 14//14
f 65//65 66//66 88//88
f 62//62 12//12 103//103
f 65//65 99//99 67//67
f 12//12 538//538 103//103
f 537//537 71//71 539//539
f 67//67 101//101 543//543
f 69//69 539//539 71//71
f 70//70 103//103 538//538
f 69//69 541//541 539//539
f 72//72 103//103 70//70
f 542//542 540//540 106//106
f 103//103 72//72 107//107
f 106//106 544//544 542//542
f 106//106 568//568 544//544
f 410//410 74//74 80//80
f 410//410 39//39 74//74
f 74//74 39//39 75//75
f 547//547 117//117 82//82
f 548//548 551//551 549//549
f 79//79 481//481 550//550
f 79//79 120//120 78//78
f 79//79 550//550 120//120
f 66//66 81//81 121//121
f 81//81 166//166 121//121
f 83//83 85//85 84//84
f 554//554 555//555 553//553
f 87//87 120//120 552//552
f 92//92 82//82 91//91
f 90//90 86//86 89//89
f 82//82 117//117 91//91
f 552//552 559//559 87//87
f 87//87 560//560 120//120
f 120//120 550//550 552//552
f 88//88 66//66 121//121
f 557//557 556//556 558//558
f 93//93 95//95 94//94
f 561//561 562//562 563//563
f 98//98 96//96 97//97
f 565//565 564//564 566//566
f 91//91 117//117 92//92
f 123//123 140//140 560//560
f 560//560 140//140 120//120
f 65//65 88//88 99//99
f 88//88 122//122 99//99
f 121//121 122//122 88//88
f 92//92 117//117 100//100
f 92//92 100//100 597//597
f 597//597 100//100 124//124
f 117//117 124//124 100//100
f 99//99 101//101 67//67
f 122//122 101//101 99//99
f 122//122 156//156 101//101
f 102//102 540//540 543//543
f 540//540 102//102 106//106
f 110//110 106//106 102//102
f 110//110 102//102 175//175
f 543//543 101//101 102//102
f 102//102 101//101 175//175
f 104//104 103//103 108//108
f 109//109 567//567 571//571
f 567//567 109//109 132//132
f 117//117 103//103 104//104
f 567//567 132//132 105//105
f 104//104 118//118 117//117
f 567//567 105//105 595//595
f 150//150 595//595 105//105
f 106//106 110//110 569//569
f 107//107 108//108 103//103
f 109//109 571//571 570//570
f 569//569 110//110 109//109
f 109//109 110//110 132//132
f 110//110 175//175 132//132
f 112//112 111//111 113//113
f 575//575 115//115 114//114
f 572//572 576//576 581//581
f 116//116 578//578 573//573
f 588//588 574//574 582//582
f 585//585 577//577 579//579
f 580//580 589//589 151//151
f 580//580 151//151 586//586
f 593//593 590//590 125//125
f 599//599 583//583 587//587
f 591//591 584//584 600//600
f 133//133 586//586 135//135
f 135//135 586//586 151//151
f 589//589 595//595 151//151
f 592//592 594//594 596//596
f 595//595 150//150 151//151
f 545//545 139//139 75//75
f 136//136 78//78 137//137
f 545//545 136//136 139//139
f 119//119 74//74 75//75
f 74//74 119//119 80//80
f 75//75 138//138 119//119
f 136//136 144//144 139//139
f 139//139 138//138 75//75
f 120//120 146//146 78//78
f 148//148 81//81 80//80
f 81//81 148//148 166//166
f 148//148 80//80 119//119
f 598//598 140//140 123//123
f 121//121 156//156 122//122
f 124//124 117//117 599//599
f 124//124 599//599 126//126
f 156//156 175//175 101//101
f 127//127 129//129 128//128
f 130//130 126//126 599//599
f 604//604 602//602 603//603
f 605//605 131//131 601//601
f 105//105 132//132 150//150
f 606//606 133//133 134//134
f 142//142 605//605 608//608
f 607//607 599//599 587//587
f 134//134 133//133 135//135
f 130//130 599//599 607//607
f 608//608 609//609 142//142
f 142//142 609//609 151//151
f 137//137 78//78 145//145
f 136//136 137//137 144//144
f 145//145 143//143 137//137
f 119//119 138//138 153//153
f 139//139 144//144 152//152
f 154//154 138//138 139//139
f 78//78 146//146 145//145
f 153//153 147//147 119//119
f 147//147 148//148 119//119
f 140//140 149//149 120//120
f 157//157 140//140 598//598
f 598//598 601//601 157//157
f 157//157 601//601 141//141
f 605//605 141//141 131//131
f 131//131 141//141 601//601
f 141//141 605//605 142//142
f 150//150 132//132 167//167
f 159//159 142//142 151//151
f 145//145 163//163 143//143
f 143//143 163//163 164//164
f 152//152 154//154 139//139
f 137//137 143//143 144//144
f 164//164 144//144 143//143
f 144//144 160//160 152//152
f 153//153 138//138 154//154
f 146//146 163//163 145//145
f 149//149 172//172 120//120
f 155//155 156//156 121//121
f 149//149 140//140 157//157
f 141//141 142//142 158//158
f 142//142 159//159 158//158
f 157//157 141//141 158//158
f 160//160 161//161 152//152
f 164//164 160//160 144//144
f 154//154 165//165 153//153
f 161//161 165//165 154//154
f 161//161 154//154 152//152
f 162//162 163//163 146//146
f 162//162 146//146 120//120
f 172//172 162//162 120//120
f 153//153 165//165 171//171
f 171//171 165//165 181//181
f 148//148 147//147 174//174
f 166//166 148//148 174//174
f 171//171 147//147 153//153
f 171//171 174//174 147//147
f 155//155 121//121 166//166
f 172//172 149//149 157//157
f 157//157 202//202 211//211
f 168//168 158//158 159//159
f 159//159 151//151 167//167
f 167//167 151//151 150//150
f 169//169 163//163 162//162
f 165//165 161//161 181//181
f 174//174 187//187 166//166
f 178//178 172//172 157//157
f 155//155 175//175 156//156
f 159//159 167//167 191//191
f 168//168 189//189 158//158
f 192//192 168//168 159//159
f 159//159 191//191 192//192
f 157//157 158//158 190//190
f 190//190 158//158 189//189
f 168//168 192//192 189//189
f 175//175 176//176 132//132
f 176//176 167//167 132//132
f 177//177 169//169 162//162
f 173//173 177//177 162//162
f 173//173 162//162 172//172
f 164//164 163//163 170//170
f 170//170 163//163 169//169
f 182//182 181//181 161//161
f 182//182 161//161 160//160
f 160//160 183//183 182//182
f 160//160 164//164 183//183
f 179//179 155//155 166//166
f 157//157 211//211 178//178
f 157//157 190//190 202//202
f 191//191 167//167 193//193
f 170//170 180//180 164//164
f 184//184 169//169 177//177
f 170//170 169//169 184//184
f 170//170 184//184 180//180
f 164//164 180//180 183//183
f 186//186 171//171 181//181
f 173//173 172//172 178//178
f 186//186 174//174 171//171
f 166//166 187//187 179//179
f 155//155 179//179 175//175
f 175//175 179//179 188//188
f 183//183 180//180 195//195
f 180//180 197//197 195//195
f 180//180 184//184 197//197
f 181//181 182//182 200//200
f 200//200 198//198 181//181
f 186//186 181//181 198//198
f 173//173 178//178 185//185
f 177//177 173//173 185//185
f 184//184 177//177 185//185
f 174//174 186//186 199//199
f 199//199 187//187 174//174
f 186//186 201//201 199//199
f 199//199 213//213 187//187
f 186//186 198//198 201//201
f 212//212 187//187 213//213
f 211//211 185//185 178//178
f 212//212 179//179 187//187
f 228//228 188//188 179//179
f 212//212 228//228 179//179
f 205//205 192//192 191//191
f 203//203 189//189 192//192
f 203//203 192//192 205//205
f 193//193 167//167 207//207
f 191//191 193//193 204//204
f 205//205 191//191 204//204
f 208//208 176//176 175//175
f 207//207 176//176 208//208
f 182//182 183//183 196//196
f 195//195 196//196 183//183
f 184//184 194//194 197//197
f 184//184 185//185 194//194
f 221//221 194//194 185//185
f 194//194 223//223 197//197
f 196//196 200//200 182//182
f 195//195 210//210 196//196
f 195//195 197//197 217//217
f 208//208 188//188 228//228
f 202//202 190//190 215//215
f 190//190 203//203 215//215
f 188//188 208//208 175//175
f 190//190 189//189 203//203
f 204//204 193//193 206//206
f 193//193 207//207 610//610
f 216//216 203//203 205//205
f 205//205 204//204 216//216
f 206//206 216//216 204//204
f 176//176 207//207 167//167
f 210//210 195//195 217//217
f 223//223 217//217 197//197
f 210//210 200//200 196//196
f 221//221 223//223 194//194
f 217//217 224//224 210//210
f 200//200 209//209 198//198
f 201//201 198//198 209//209
f 222//222 200//200 210//210
f 224//224 222//222 210//210
f 221//221 185//185 211//211
f 221//221 211//211 231//231
f 199//199 201//201 214//214
f 214//214 213//213 199//199
f 201//201 209//209 214//214
f 227//227 213//213 214//214
f 227//227 212//212 213//213
f 216//216 219//219 203//203
f 610//610 207//207 220//220
f 217//217 223//223 224//224
f 200//200 222//222 209//209
f 229//229 223//223 221//221
f 209//209 218//218 214//214
f 225//225 227//227 214//214
f 219//219 215//215 203//203
f 216//216 206//206 244//244
f 220//220 244//244 206//206
f 216//216 236//236 219//219
f 216//216 244//244 236//236
f 214//214 218//218 225//225
f 218//218 209//209 230//230
f 225//225 218//218 230//230
f 231//231 211//211 232//232
f 226//226 228//228 212//212
f 226//226 212//212 227//227
f 241//241 228//228 226//226
f 241//241 226//226 227//227
f 211//211 202//202 233//233
f 233//233 232//232 211//211
f 241//241 261//261 228//228
f 261//261 208//208 228//228
f 215//215 234//234 202//202
f 202//202 234//234 233//233
f 274//274 235//235 208//208
f 236//236 215//215 219//219
f 234//234 215//215 236//236
f 208//208 235//235 245//245
f 207//207 208//208 245//245
f 220//220 207//207 246//246
f 223//223 237//237 224//224
f 223//223 229//229 237//237
f 222//222 224//224 238//238
f 224//224 237//237 238//238
f 222//222 230//230 209//209
f 238//238 230//230 222//222
f 231//231 229//229 221//221
f 231//231 249//249 229//229
f 249//249 258//258 229//229
f 225//225 230//230 239//239
f 241//241 227//227 225//225
f 240//240 232//232 233//233
f 242//242 233//233 243//243
f 274//274 208//208 261//261
f 244//244 220//220 246//246
f 207//207 245//245 611//611
f 258//258 237//237 229//229
f 238//238 237//237 257//257
f 237//237 258//258 257//257
f 247//247 239//239 230//230
f 238//238 247//247 230//230
f 257//257 247//247 238//238
f 260//260 225//225 239//239
f 259//259 260//260 239//239
f 240//240 231//231 232//232
f 242//242 240//240 233//233
f 234//234 243//243 233//233
f 236//236 244//244 251//251
f 244//244 246//246 252//252
f 249//249 292//292 258//258
f 239//239 247//247 259//259
f 257//257 256//256 247//247
f 256//256 259//259 247//247
f 248//248 231//231 240//240
f 248//248 249//249 231//231
f 260//260 267//267 225//225
f 267//267 241//241 225//225
f 262//262 243//243 234//234
f 250//250 236//236 251//251
f 250//250 234//234 236//236
f 251//251 265//265 250//250
f 245//245 235//235 254//254
f 254//254 235//235 263//263
f 278//278 254//254 263//263
f 235//235 274//274 263//263
f 244//244 265//265 251//251
f 265//265 244//244 264//264
f 264//264 244//244 252//252
f 245//245 253//253 611//611
f 611//611 253//253 255//255
f 252//252 246//246 255//255
f 254//254 253//253 245//245
f 249//249 266//266 292//292
f 266//266 249//249 248//248
f 294//294 257//257 258//258
f 260//260 259//259 268//268
f 260//260 268//268 267//267
f 271//271 248//248 240//240
f 271//271 240//240 242//242
f 271//271 242//242 273//273
f 266//266 248//248 271//271
f 267//267 261//261 241//241
f 267//267 269//269 261//261
f 273//273 242//242 243//243
f 273//273 243//243 262//262
f 262//262 234//234 250//250
f 250//250 265//265 262//262
f 262//262 265//265 275//275
f 316//316 278//278 263//263
f 265//265 264//264 279//279
f 275//275 265//265 277//277
f 265//265 279//279 277//277
f 264//264 252//252 281//281
f 280//280 252//252 255//255
f 281//281 252//252 280//280
f 280//280 255//255 282//282
f 253//253 254//254 286//286
f 283//283 253//253 286//286
f 253//253 282//282 255//255
f 271//271 298//298 266//266
f 292//292 293//293 258//258
f 292//292 266//266 298//298
f 268//268 270//270 267//267
f 256//256 268//268 259//259
f 270//270 269//269 267//267
f 297//297 270//270 268//268
f 268//268 256//256 297//297
f 305//305 269//269 270//270
f 305//305 307//307 269//269
f 273//273 306//306 271//271
f 272//272 261//261 269//269
f 272//272 269//269 307//307
f 272//272 274//274 261//261
f 307//307 310//310 272//272
f 273//273 262//262 275//275
f 274//274 276//276 263//263
f 276//276 316//316 263//263
f 313//313 316//316 276//276
f 316//316 287//287 278//278
f 279//279 336//336 319//319
f 320//320 277//277 279//279
f 281//281 279//279 264//264
f 280//280 282//282 288//288
f 336//336 279//279 281//281
f 286//286 254//254 278//278
f 282//282 283//283 290//290
f 282//282 253//253 283//283
f 288//288 282//282 290//290
f 286//286 284//284 283//283
f 290//290 285//285 291//291
f 283//283 285//285 290//290
f 283//283 284//284 285//285
f 330//330 284//284 286//286
f 325//325 285//285 284//284
f 285//285 325//325 343//343
f 286//286 278//278 287//287
f 287//287 330//330 286//286
f 331//331 330//330 287//287
f 288//288 281//281 280//280
f 336//336 281//281 289//289
f 289//289 281//281 288//288
f 338//338 288//288 291//291
f 336//336 289//289 337//337
f 335//335 288//288 338//338
f 290//290 291//291 288//288
f 291//291 285//285 343//343
f 300//300 292//292 298//298
f 258//258 295//295 294//294
f 293//293 295//295 258//258
f 295//295 293//293 348//348
f 293//293 346//346 348//348
f 293//293 300//300 346//346
f 296//296 294//294 295//295
f 296//296 295//295 348//348
f 351//351 354//354 296//296
f 294//294 256//256 257//257
f 297//297 301//301 270//270
f 301//301 305//305 270//270
f 294//294 297//297 256//256
f 302//302 301//301 297//297
f 297//297 294//294 296//296
f 296//296 353//353 297//297
f 353//353 302//302 297//297
f 271//271 299//299 298//298
f 293//293 292//292 300//300
f 298//298 299//299 300//300
f 347//347 300//300 299//299
f 306//306 299//299 271//271
f 299//299 306//306 347//347
f 302//302 303//303 301//301
f 301//301 303//303 305//305
f 355//355 303//303 302//302
f 304//304 303//303 355//355
f 305//305 303//303 304//304
f 305//305 308//308 307//307
f 305//305 304//304 308//308
f 310//310 274//274 272//272
f 307//307 309//309 310//310
f 308//308 309//309 307//307
f 309//309 311//311 310//310
f 367//367 308//308 304//304
f 309//309 308//308 367//367
f 367//367 374//374 309//309
f 309//309 374//374 311//311
f 306//306 273//273 375//375
f 381//381 312//312 374//374
f 276//276 274//274 310//310
f 374//374 312//312 311//311
f 275//275 375//375 273//273
f 275//275 277//277 314//314
f 375//375 275//275 314//314
f 312//312 317//317 313//313
f 318//318 317//317 312//312
f 312//312 381//381 318//318
f 381//381 390//390 318//318
f 313//313 276//276 310//310
f 311//311 313//313 310//310
f 311//311 312//312 313//313
f 375//375 314//314 315//315
f 315//315 314//314 277//277
f 384//384 375//375 315//315
f 317//317 316//316 313//313
f 317//317 287//287 316//316
f 318//318 332//332 317//317
f 391//391 332//332 318//318
f 390//390 391//391 318//318
f 320//320 279//279 319//319
f 319//319 336//336 333//333
f 319//319 333//333 321//321
f 315//315 277//277 320//320
f 319//319 323//323 320//320
f 323//323 319//319 321//321
f 322//322 315//315 320//320
f 322//322 320//320 323//323
f 323//323 321//321 392//392
f 392//392 321//321 334//334
f 403//403 392//392 334//334
f 384//384 315//315 322//322
f 393//393 322//322 323//323
f 394//394 393//393 323//323
f 394//394 323//323 392//392
f 404//404 324//324 405//405
f 403//403 324//324 404//404
f 329//329 405//405 324//324
f 325//325 284//284 330//330
f 326//326 325//325 330//330
f 343//343 327//327 345//345
f 327//327 343//343 325//325
f 326//326 327//327 325//325
f 328//328 327//327 326//326
f 329//329 327//327 328//328
f 327//327 329//329 345//345
f 391//391 406//406 328//328
f 406//406 329//329 328//328
f 326//326 330//330 331//331
f 317//317 331//331 287//287
f 332//332 331//331 317//317
f 332//332 326//326 331//331
f 332//332 328//328 326//326
f 332//332 391//391 328//328
f 334//334 321//321 333//333
f 334//334 333//333 340//340
f 342//342 403//403 334//334
f 337//337 289//289 335//335
f 289//289 288//288 335//335
f 338//338 291//291 344//344
f 333//333 336//336 337//337
f 340//340 333//333 337//337
f 340//340 337//337 339//339
f 337//337 335//335 339//339
f 339//339 335//335 338//338
f 338//338 344//344 341//341
f 340//340 339//339 342//342
f 339//339 338//338 341//341
f 344//344 345//345 341//341
f 342//342 341//341 324//324
f 345//345 324//324 341//341
f 341//341 342//342 339//339
f 342//342 334//334 340//340
f 345//345 329//329 324//324
f 342//342 324//324 403//403
f 344//344 291//291 343//343
f 343//343 345//345 344//344
f 351//351 296//296 348//348
f 347//347 346//346 300//300
f 349//349 346//346 347//347
f 347//347 358//358 349//349
f 358//358 347//347 357//357
f 358//358 360//360 349//349
f 348//348 346//346 349//349
f 348//348 349//349 350//350
f 351//351 348//348 350//350
f 349//349 360//360 363//363
f 349//349 363//363 350//350
f 351//351 350//350 352//352
f 350//350 365//365 352//352
f 351//351 352//352 354//354
f 302//302 353//353 355//355
f 354//354 353//353 296//296
f 353//353 354//354 356//356
f 352//352 356//356 354//354
f 353//353 356//356 355//355
f 366//366 355//355 356//356
f 356//356 352//352 366//366
f 357//357 347//347 306//306
f 359//359 357//357 376//376
f 358//358 357//357 359//359
f 359//359 360//360 358//358
f 361//361 360//360 359//359
f 362//362 361//361 359//359
f 376//376 362//362 359//359
f 360//360 364//364 363//363
f 361//361 364//364 360//360
f 364//364 361//361 369//369
f 364//364 369//369 365//365
f 363//363 365//365 350//350
f 365//365 363//363 364//364
f 352//352 365//365 373//373
f 367//367 304//304 355//355
f 355//355 366//366 367//367
f 367//367 366//366 371//371
f 352//352 373//373 366//366
f 366//366 373//373 371//371
f 371//371 374//374 367//367
f 357//357 306//306 375//375
f 376//376 357//357 375//375
f 377//377 362//362 376//376
f 368//368 361//361 362//362
f 377//377 368//368 362//362
f 368//368 369//369 361//361
f 368//368 378//378 369//369
f 369//369 378//378 379//379
f 369//369 370//370 365//365
f 365//365 370//370 373//373
f 373//373 370//370 379//379
f 370//370 369//369 379//379
f 379//379 383//383 373//373
f 372//372 374//374 371//371
f 381//381 374//374 372//372
f 382//382 381//381 372//372
f 383//383 372//372 373//373
f 371//371 373//373 372//372
f 384//384 376//376 375//375
f 376//376 384//384 385//385
f 385//385 377//377 376//376
f 387//387 377//377 385//385
f 377//377 387//387 388//388
f 368//368 377//377 378//378
f 378//378 377//377 388//388
f 378//378 388//388 379//379
f 379//379 388//388 380//380
f 379//379 380//380 383//383
f 382//382 390//390 381//381
f 383//383 382//382 372//372
f 389//389 382//382 380//380
f 380//380 382//382 383//383
f 384//384 386//386 385//385
f 385//385 386//386 387//387
f 399//399 387//387 386//386
f 399//399 400//400 387//387
f 387//387 402//402 388//388
f 388//388 402//402 389//389
f 389//389 402//402 406//406
f 400//400 402//402 387//387
f 406//406 402//402 401//401
f 389//389 380//380 388//388
f 406//406 391//391 389//389
f 389//389 390//390 382//382
f 389//389 391//391 390//390
f 322//322 393//393 384//384
f 394//394 392//392 396//396
f 397//397 392//392 403//403
f 393//393 398//398 384//384
f 398//398 393//393 395//395
f 395//395 393//393 394//394
f 395//395 394//394 396//396
f 395//395 396//396 401//401
f 396//396 397//397 401//401
f 396//396 392//392 397//397
f 386//386 384//384 398//398
f 398//398 399//399 386//386
f 395//395 400//400 398//398
f 395//395 401//401 400//400
f 405//405 401//401 397//397
f 398//398 400//400 399//399
f 402//402 400//400 401//401
f 405//405 329//329 406//406
f 403//403 404//404 397//397
f 404//404 405//405 397//397
f 406//406 401//401 405//405
