# Wavafront OBJ file of BodyParts3D
# BodyParts3D, Copyright(C) 2010-2011 The Database Center for Life Science licensed under CC Attribution-Share Alike 2.1 Japan.
vn -0.985134 -0.0141466 -0.171207
v 12.873 -131.291 1229.15
vn -0.902527 -0.283837 -0.323854
v 12.9727 -131.897 1229.13
vn -0.972601 -0.230053 0.0335136
v 12.9254 -131.905 1229.43
vn -0.80013 -0.144489 -0.582164
v 13.0358 -131.59 1228.84
vn -0.870437 -0.478084 -0.117369
v 13.1498 -132.504 1229.41
vn -0.549149 -0.220468 -0.80612
v 13.4261 -131.9 1228.53
vn -0.951141 -0.02442 0.30779
v 12.9078 -131.389 1229.75
vn -0.874622 -0.32557 0.359222
v 13.2533 -132.544 1230.01
vn -0.72297 0.0547467 0.688707
v 13.2769 -131.655 1230.34
vn -0.966452 0.199674 0.161557
v 12.9086 -130.703 1229.47
vn -0.856065 0.136305 -0.498572
v 13.0079 -130.687 1228.88
vn -0.624563 0.575893 -0.527511
v 13.1032 -130.392 1228.89
vn -0.90175 0.416047 -0.11727
v 12.981 -130.396 1229.19
vn -0.737978 0.585127 0.336178
v 13.0225 -130.409 1229.49
vn -0.552637 0.83077 -0.0664278
v 13.2743 -130.128 1229.2
vn -0.552764 0.787889 0.271447
v 13.3533 -130.126 1229.5
vn -0.805988 0.281394 0.520769
v 13.0204 -130.719 1229.77
vn -0.529195 0.46901 0.707094
v 13.4838 -130.454 1230.08
vn -0.713436 -0.65409 -0.251347
v 13.7111 -133.257 1229.39
vn -0.499636 -0.663578 -0.556801
v 15.1569 -134.331 1229.05
vn -0.593843 -0.803478 -0.042121
v 15.1366 -134.718 1229.94
vn -0.631963 -0.5918 0.500395
v 15.1487 -134.487 1230.85
vn -0.453766 -0.101753 0.885292
v 15.1956 -133.594 1231.35
vn -0.679242 -0.458168 -0.573334
v 13.4497 -132.514 1228.81
vn -0.34205 -0.371849 -0.862977
v 14.0497 -132.53 1228.43
vn -0.223382 -0.137461 -0.96499
v 14.0842 -131.87 1228.24
vn -0.000822912 0.0214158 -0.99977
v 14.4282 -131.038 1228.19
vn 0.00291425 -0.119459 -0.992835
v 14.649 -132.557 1228.32
vn -0.774002 -0.591179 0.226777
v 13.6339 -133.164 1229.99
vn -0.659051 -0.261056 0.705338
v 13.6969 -132.588 1230.61
vn -0.375788 0.229093 0.897942
v 14.1081 -131.415 1230.84
vn -0.478372 0.133331 -0.867977
v 13.5449 -130.697 1228.34
vn -0.159637 0.91833 -0.362197
v 13.5767 -130.091 1228.9
vn -0.29212 0.945481 0.143986
v 13.5815 -130 1229.5
vn -0.0867768 0.206415 -0.974609
v 13.8602 -130.414 1228.37
vn 0.116487 0.993184 0.0040328
v 13.8837 -129.964 1229.5
vn 0.395112 0.8339 -0.385353
v 14.7657 -130.332 1228.89
vn -0.407032 0.749866 0.521561
v 13.5736 -130.149 1229.84
vn -0.0169309 0.901608 0.432223
v 13.8795 -130.044 1229.8
vn -0.087973 0.692216 0.716308
v 14.1564 -130.493 1230.38
vn -0.0232299 0.518105 0.855002
v 14.4395 -130.824 1230.64
vn 0.246176 0.756365 0.60606
v 14.7522 -130.59 1230.38
vn 0.345673 0.902469 0.257021
v 14.7685 -130.279 1229.79
vn -0.734486 -0.417771 -0.534788
v 16.3644 -136.145 1233.79
vn -0.515159 -0.297921 -0.803651
v 16.8638 -136.156 1233.34
vn -0.393787 -0.670872 -0.628382
v 17.4112 -137.101 1233.76
vn -0.387441 -0.550428 -0.739539
v 17.7632 -136.19 1232.99
vn -0.899122 -0.426334 -0.0990911
v 16.1246 -136.154 1234.39
vn -0.899435 -0.372133 0.229202
v 16.1568 -136.166 1234.69
vn -0.795171 -0.581044 0.173467
v 16.333 -136.475 1234.68
vn -0.666313 -0.559991 0.492379
v 16.4729 -136.493 1234.98
vn -0.804371 -0.318169 0.501753
v 16.2935 -136.184 1234.99
vn -0.702563 -0.678606 -0.21424
v 16.5345 -136.707 1234.38
vn -0.546216 -0.221798 0.807746
v 16.5607 -136.207 1235.25
vn -0.627139 -0.75123 0.205792
v 16.821 -136.972 1234.67
vn -0.481037 -0.872611 -0.0845748
v 17.4021 -137.422 1234.35
vn -0.45827 -0.617972 0.638826
v 17.7115 -137.177 1235.49
vn -0.602067 -0.327334 -0.728263
v 16.71 -136.715 1240.98
vn -0.50509 -0.248763 -0.826439
v 17.4503 -136.428 1240.24
vn -0.560678 -0.803023 0.201973
v 17.0939 -137.088 1242.47
vn -0.403885 -0.503859 -0.763547
v 16.3358 -134.765 1228.74
vn -0.170166 -0.106049 -0.979692
v 16.6674 -134.17 1228.42
vn -0.419599 -0.25809 -0.870245
v 16.9356 -134.786 1228.44
vn -0.358718 0.0291187 -0.932992
v 16.9672 -134.183 1228.34
vn -0.515024 -0.550292 -0.657213
v 17.2409 -135.102 1228.43
vn -0.603356 -0.202526 -0.771327
v 17.2355 -134.795 1228.27
vn -0.773796 -0.0188841 -0.633153
v 17.5462 -134.196 1227.86
vn -0.62447 0.0746722 -0.777471
v 17.2671 -134.192 1228.17
vn -0.670752 -0.356987 -0.650117
v 17.6646 -134.803 1227.84
vn -0.583737 -0.356672 0.729408
v 16.3307 -134.864 1231.58
vn -0.500625 -0.850541 0.161105
v 16.9689 -135.493 1231.42
vn -0.961659 -0.0573218 -0.26819
v 16.08 -135.841 1234.1
vn -0.69521 0.327738 -0.639743
v 16.2952 -135.541 1233.79
vn -0.6178 0.763037 -0.189994
v 16.3061 -135.333 1234.12
vn -0.274145 0.855587 -0.439108
v 16.6096 -135.274 1233.82
vn -0.264461 0.963954 -0.0291927
v 16.6142 -135.186 1234.13
vn -0.022115 0.99817 -0.056286
v 16.9157 -135.164 1234.13
vn -0.531867 0.00920818 -0.846778
v 17.4793 -135.875 1232.98
vn -0.743166 -0.169986 0.647154
v 17.4962 -135.552 1232.31
vn -0.666474 -0.652492 0.360648
v 17.6806 -135.572 1232.62
vn -0.959278 -0.258098 0.114763
v 17.7198 -135.585 1232.92
vn -0.420948 0.612669 -0.668909
v 17.4948 -135.58 1233.12
vn -0.605817 0.0258225 0.795185
v 17.5273 -134.959 1232.5
vn -0.593046 -0.780805 0.19657
v 17.7812 -135.846 1232.31
vn -0.478603 -0.527342 -0.702032
v 17.7793 -135.882 1232.74
vn -0.922201 0.362062 0.135855
v 17.8108 -135.282 1232.73
vn -0.962808 -0.0093878 0.270024
v 16.0789 -135.862 1234.7
vn -0.889427 0.456987 0.00904693
v 16.0951 -135.552 1234.41
vn -0.688337 0.576104 0.440791
v 16.196 -135.568 1234.71
vn -0.708332 0.17225 0.684541
v 16.2772 -135.884 1235.04
vn -0.542073 0.820332 0.182243
v 16.3057 -135.339 1234.42
vn -0.393012 0.233246 0.889459
v 16.6458 -135.912 1235.3
vn -0.270825 0.906026 0.325223
v 16.6082 -135.301 1234.72
vn -0.391645 0.63969 0.66137
v 16.5991 -135.473 1235.02
vn -0.228736 0.540582 0.809599
v 16.8917 -135.622 1235.23
vn -0.993748 -0.0248322 -0.108851
v 16.5013 -135.504 1241.02
vn -0.614614 -0.104347 -0.781896
v 17.8133 -135.233 1239.92
vn -0.767325 0.00328519 -0.64125
v 17.8863 -134.333 1239.86
vn -0.943568 -0.121926 -0.307918
v 18.0477 -134.031 1239.57
vn -0.759233 0.644067 -0.0935057
v 17.9951 -134.049 1240.17
vn -0.973464 -0.222458 -0.0536731
v 16.3882 -136.14 1242.2
vn -0.709701 0.68333 -0.171419
v 16.5112 -135.225 1241.63
vn -0.754894 0.139849 0.640763
v 16.8375 -135.884 1242.81
vn -0.875188 -0.154482 -0.458455
v 17.8622 -131.748 1226.15
vn -0.688951 0.368999 -0.623849
v 17.8919 -131.449 1226.16
vn 0.221007 0.26958 -0.937274
v 15.8784 -132.028 1228.54
vn 0.262949 0.562927 -0.783563
v 16.5077 -131.485 1229.15
vn -0.0293484 0.207409 -0.977814
v 16.7457 -132.676 1228.55
vn 0.0462316 0.52164 -0.851912
v 16.7922 -131.789 1228.92
vn -0.00572676 0.612073 -0.790781
v 16.8083 -131.481 1229.15
vn -0.224177 0.156135 -0.96196
v 17.0327 -132.933 1228.5
vn -0.426652 0.150122 -0.891869
v 17.061 -132.393 1228.6
vn -0.72211 0.212892 -0.658206
v 17.1089 -131.793 1228.54
vn -0.750297 0.361379 -0.553588
v 17.1191 -131.284 1228.86
vn -0.94882 0.100305 -0.299465
v 17.2969 -131.16 1227.37
vn -0.892125 -0.326455 -0.312315
v 17.3903 -131.84 1227.64
vn -0.594983 0.174279 -0.784616
v 17.6138 -133.309 1228.17
vn 0.455124 0.889187 -0.0469911
v 16.2265 -131.12 1229.77
vn -0.233673 0.323869 0.916791
v 16.6003 -133.082 1231.8
vn 0.23737 0.770432 0.591684
v 16.5031 -131.574 1230.65
vn 0.357522 0.863877 0.354817
v 16.5124 -131.395 1230.36
vn -0.0580341 0.603474 0.795268
v 16.7543 -132.512 1231.52
vn -0.227022 0.701251 0.675801
v 16.7867 -131.895 1230.94
vn 0.0124871 0.821377 0.570249
v 16.799 -131.66 1230.65
vn 0.0689337 0.95519 -0.287853
v 16.8161 -131.334 1229.76
vn 0.120831 0.904289 0.409465
v 16.8081 -131.485 1230.36
vn -0.769839 0.361455 0.526022
v 17.3522 -132.21 1231.53
vn -0.60191 0.795704 0.0675231
v 17.1181 -131.303 1229.76
vn -0.313582 0.857009 0.408903
v 17.1586 -131.568 1230.65
vn -0.551177 0.422215 0.719679
v 17.3491 -132.626 1231.82
vn -0.679457 0.565249 0.467795
v 17.3947 -131.757 1231.25
vn -0.977259 0.108718 0.182061
v 17.5148 -131.929 1231.84
vn -0.78225 0.568767 0.254144
v 17.4159 -131.352 1230.66
vn -0.417478 0.250899 0.873363
v 17.2969 -133.129 1232.1
vn -0.937143 -0.316084 0.147832
v 17.6379 -132.267 1232.73
vn -0.462026 0.362967 0.809189
v 17.6379 -132.849 1232.17
vn -0.891713 -0.0812744 0.445245
v 17.6535 -132.551 1232.23
vn -0.341988 0.198622 0.918473
v 17.9422 -133.173 1232.4
vn -0.700086 -0.400794 0.590969
v 17.9369 -132.876 1232.5
vn -0.995746 -0.0814882 0.042995
v 17.8017 -132.723 1236.92
vn -0.786041 -0.604295 -0.13026
v 18.0508 -133.336 1236.9
vn -0.964006 -0.24761 -0.0968559
v 18.078 -133.722 1239.28
vn -0.847454 0.439843 0.297254
v 18.0334 -133.856 1243.18
vn -0.977147 0.212112 -0.0138904
v 18.1468 -133.572 1243.49
vn -0.995263 0.0736569 0.0634496
v 18.1405 -133.603 1244.39
vn -0.733977 0.594218 -0.328911
v 17.5951 -130.575 1227.39
vn -0.91842 0.390396 0.0639919
v 17.7292 -130.345 1229.2
vn -0.859367 0.474416 -0.190837
v 17.8589 -130.02 1228.31
vn -0.975672 0.219012 -0.00991527
v 17.8336 -129.16 1229.54
vn -0.938342 0.307324 0.158323
v 17.8242 -130.413 1230.99
vn -0.89167 0.391531 0.227217
v 17.9933 -128.889 1230.15
vn -0.925886 0.37385 0.0545196
v 17.884 -130.168 1232.5
vn -0.924354 0.318689 0.20978
v 17.9969 -130.611 1236.39
vn -0.785827 0.58541 -0.199428
v 18.0522 -128.571 1229.56
vn -0.510713 0.747913 -0.424026
v 18.4342 -128.291 1229.57
vn -0.488635 -0.820263 -0.297327
v 18.8033 -136.406 1228.99
vn -0.388143 -0.839828 -0.379519
v 18.6571 -136.329 1232.59
vn -0.244935 -0.705394 -0.665151
v 18.9403 -136.658 1232.88
vn -0.355688 -0.0926992 0.929996
v 18.042 -136.603 1235.76
vn -0.458819 -0.106781 0.88209
v 18.6407 -136.643 1236.01
vn -0.356617 -0.429041 0.829908
v 19.2084 -137.276 1236.07
vn -0.398207 -0.537017 -0.74367
v 17.9794 -137.798 1240.94
vn -0.315865 -0.436974 -0.842189
v 19.3826 -137.735 1240.35
vn -0.688177 -0.348102 -0.636582
v 19.9697 -134.214 1224.72
vn -0.783384 -0.35823 -0.507918
v 19.1267 -133.595 1225.48
vn -0.542688 -0.653464 -0.527707
v 18.4002 -135.501 1227.82
vn -0.107476 0.969254 -0.221348
v 18.103 -135.439 1233.22
vn 0.0123643 0.982105 -0.18793
v 18.1051 -135.398 1233.52
vn -0.445918 0.666392 0.597561
v 18.1099 -135.308 1233.01
vn -0.361091 0.279403 0.889689
v 18.126 -135 1232.79
vn -0.385338 0.595234 0.705132
v 19.6547 -134.491 1233.12
vn -0.876384 -0.0649813 0.477209
v 19.9305 -134.22 1233.57
vn -0.411692 0.732133 0.54267
v 20.0015 -134.835 1233.85
vn -0.456165 0.26538 0.849404
v 18.3729 -136.02 1235.81
vn -0.277033 0.83419 0.476844
v 18.4093 -135.327 1235.33
vn -0.632094 -0.0927956 0.769316
v 18.9712 -136.07 1236.32
vn -0.73766 0.452967 0.500678
v 19.0332 -135.468 1236.22
vn -0.493187 0.849246 0.188543
v 19.236 -135.168 1235.93
vn -0.735116 -0.637473 -0.230724
v 19.0647 -134.285 1236.71
vn -0.125774 0.991755 0.0245481
v 19.3236 -135.077 1234.74
vn -0.858077 0.471022 0.204554
v 19.3292 -135.194 1236.53
vn -0.934393 0.130101 -0.331638
v 19.4905 -134.892 1236.24
vn -0.999626 0.0205621 0.0180342
v 19.4385 -134.9 1236.54
vn -0.835675 -0.392641 -0.384032
v 19.4688 -134.591 1236.26
vn -0.853464 -0.496187 -0.159365
v 19.3488 -134.595 1236.57
vn -0.635365 -0.729333 -0.253741
v 19.3659 -134.27 1235.85
vn -0.340949 0.800637 -0.49268
v 19.9337 -134.899 1235.79
vn -0.47694 -0.824926 -0.303358
v 19.9497 -134.595 1235.67
vn -0.0684891 0.989177 0.129758
v 20.224 -135.094 1235.34
vn -0.968495 -0.20157 -0.146243
v 18.1761 -134.043 1238.97
vn -0.701734 -0.703576 -0.112025
v 19.0593 -134.387 1237.16
vn -0.863243 0.0557101 0.501706
v 19.4737 -135.212 1236.83
vn -0.562495 -0.684895 -0.463161
v 19.3191 -135.163 1238.94
vn -0.904701 -0.4173 0.0858924
v 19.5497 -134.927 1237.14
vn -0.654576 -0.288296 0.698867
v 19.7584 -135.538 1237.12
vn -0.589501 -0.80726 -0.028642
v 19.6304 -134.954 1237.74
vn -0.717194 -0.573173 0.396367
v 19.9137 -135.281 1237.43
vn -0.584022 -0.754673 0.298977
v 20.2085 -135.388 1237.73
vn -0.556854 -0.447245 -0.699918
v 18.161 -134.331 1239.39
vn -0.40357 -0.35986 -0.841209
v 18.697 -135.568 1239.59
vn -0.615561 0.184035 0.7663
v 18.1685 -134.189 1243.47
vn -0.650052 -0.758608 0.0441215
v 18.7756 -134.069 1245.28
vn -0.530411 -0.8398 0.115759
v 19.698 -134.638 1245.86
vn -0.717489 -0.695628 0.0362115
v 18.771 -134.158 1246.48
vn -0.497586 -0.867329 -0.0121812
v 19.0602 -134.37 1246.47
vn -0.652754 -0.731289 0.197811
v 19.062 -134.337 1247.07
vn -0.435717 -0.89175 0.122203
v 19.6494 -134.593 1247.66
vn -0.635628 -0.644049 0.425649
v 19.899 -134.443 1248.57
vn -0.606998 -0.225141 -0.762145
v 19.4491 -132.682 1224.67
vn -0.821103 -0.393952 -0.413027
v 18.2714 -132.36 1225.82
vn -0.723313 -0.0872014 -0.684992
v 18.3463 -132.053 1225.54
vn -0.449456 0.43604 -0.779652
v 18.596 -131.763 1225.46
vn -0.712711 -0.293574 -0.637069
v 19.4524 -133.291 1224.89
vn -0.207023 0.55234 -0.807503
v 19.513 -131.464 1225.26
vn -0.434657 -0.468186 0.769334
v 18.5045 -133.51 1232.59
vn -0.455564 -0.624651 0.634249
v 18.5111 -133.383 1232.69
vn -0.60384 -0.787297 0.124664
v 18.5232 -133.152 1233
vn -0.223329 0.193531 0.955338
v 18.804 -133.528 1232.65
vn -0.849924 0.469783 0.238608
v 18.222 -133.75 1239.88
vn -0.865726 0.491031 0.0969886
v 19.5985 -132.653 1240.83
vn -0.86576 -0.424285 0.265408
v 18.1846 -133.882 1243.7
vn -0.832589 0.553891 -0.00050938
v 18.2012 -133.566 1243.23
vn -0.899673 0.414967 -0.135615
v 18.216 -133.281 1243.67
vn -0.900056 -0.414024 0.13595
v 18.3823 -133.647 1245.29
vn -0.893542 0.39632 0.210983
v 18.2785 -133.031 1245.01
vn -0.92176 -0.182511 0.342124
v 18.7196 -134.018 1246.78
vn -0.724475 0.465919 0.507992
v 18.9897 -133.431 1246.8
vn -0.532718 0.656345 0.534249
v 19.7554 -132.569 1246.79
vn -0.355653 0.686775 -0.633918
v 18.6643 -130.461 1226.49
vn -0.127707 0.811513 -0.570209
v 19.5941 -129.915 1226.81
vn -0.510719 0.705194 -0.491801
v 18.4085 -129.609 1228.02
vn -0.797065 0.578443 0.173466
v 18.7407 -129.002 1232.26
vn -0.709734 0.700913 0.0707031
v 19.0481 -128.869 1233.15
vn 0.188125 0.979703 0.0692113
v 19.3469 -128.899 1233.45
vn -0.789366 0.594666 0.152559
v 18.7405 -129.006 1235.55
vn 0.157977 0.984705 0.073475
v 19.0424 -128.978 1236.15
vn -0.849831 0.342856 0.400296
v 18.4163 -131.296 1238.17
vn -0.804464 0.472917 0.359426
v 19.1127 -129.831 1238.22
vn -0.923252 0.379178 0.0618932
v 20.2753 -130.308 1241.51
vn -0.805261 0.556108 0.205664
v 20.4392 -130.016 1241.52
vn -0.851273 0.516757 -0.0910867
v 19.8348 -131.056 1243.58
vn -0.910577 0.411353 0.0404689
v 20.1982 -130.346 1242.71
vn -0.814769 0.574718 0.076485
v 20.2739 -130.039 1242.42
vn -0.75277 0.657515 -0.0317896
v 20.4995 -129.836 1242.13
vn -0.716593 0.665925 0.207459
v 20.4937 -129.946 1242.72
vn -0.633595 0.725165 0.269616
v 19.8349 -131.052 1244.18
vn 0.262663 0.948093 -0.179242
v 19.3612 -128.628 1229.23
vn -0.743551 0.651035 0.152593
v 18.4826 -128.195 1230.17
vn 0.302016 0.949657 0.0832892
v 19.0573 -128.695 1231.66
vn -0.369366 -0.833905 -0.410086
v 21.8261 -138.917 1234.01
vn -0.360192 -0.909541 0.207356
v 22.4061 -139.313 1235.2
vn -0.285983 -0.956164 0.0629518
v 22.113 -139.079 1240.31
vn -0.418756 -0.728276 -0.542455
v 22.4187 -139.073 1239.68
vn -0.665991 -0.635275 -0.391001
v 22.6582 -136.43 1223.89
vn -0.654925 -0.630694 -0.416292
v 22.5739 -136.112 1223.54
vn -0.366067 -0.81279 -0.453175
v 20.4284 -136.925 1232.81
vn -0.494751 -0.464919 -0.734215
v 21.9151 -137.218 1238.97
vn -0.500945 -0.559444 0.660361
v 21.934 -136.857 1237.19
vn -0.540979 -0.787032 0.296518
v 21.9612 -136.338 1237.7
vn -0.598658 -0.693901 -0.400137
v 22.2442 -136.669 1238.29
vn -0.753387 -0.433902 -0.494102
v 22.7519 -137.238 1238.27
vn -0.261043 -0.960544 0.0959786
v 20.9336 -138.75 1242.12
vn -0.537064 -0.133029 0.832986
v 21.6467 -136.606 1245.79
vn -0.606753 -0.499214 -0.618576
v 21.5319 -135.17 1223.93
vn -0.0234551 0.257258 -0.966058
v 21.7534 -134.571 1223.67
vn -0.958231 0.0188058 0.285375
v 20.5384 -134.825 1235.65
vn -0.457653 -0.564662 0.686812
v 20.4828 -135.887 1237.42
vn -0.518645 -0.846599 -0.119492
v 20.5831 -135.623 1238.32
vn -0.460933 -0.813141 0.355447
v 20.7881 -135.793 1237.72
vn -0.523341 -0.655424 0.544548
v 20.5334 -134.922 1246.75
vn -0.374205 -0.86539 0.333274
v 20.5418 -134.76 1248.86
vn -0.209702 -0.936458 0.281197
v 21.4371 -134.875 1249.16
vn -0.292562 -0.70661 0.64429
v 21.4533 -134.565 1249.73
vn -0.0839289 0.415884 -0.905536
v 20.6635 -132.438 1224.49
vn 0.0739958 0.556326 -0.827663
v 21.2936 -131.881 1224.8
vn -0.528529 0.460077 0.713432
v 20.874 -134.155 1249.18
vn -0.429621 0.543309 0.721277
v 21.4378 -133.643 1249.2
vn -0.309247 0.473034 0.824988
v 22.0791 -134.088 1249.79
vn -0.258113 0.687871 0.678389
v 22.4509 -132.726 1248.93
vn -0.0253556 0.678424 -0.734233
v 20.7403 -130.974 1225.47
vn 0.119513 0.789164 -0.602442
v 21.3768 -130.293 1226.2
vn 0.109152 0.903783 -0.413838
v 21.1299 -129.271 1227.79
vn 0.464366 0.880813 -0.0923692
v 22.3133 -129.62 1227.73
vn 0.352386 0.93387 -0.0609174
v 20.7877 -130.069 1241.52
vn 0.441208 0.896192 -0.0466399
v 22.2645 -130.55 1243.61
vn -0.188058 0.909244 0.371363
v 21.3261 -130.457 1244.21
vn 0.182988 0.970011 0.159984
v 21.9701 -130.437 1244.21
vn -0.152104 0.904365 0.398734
v 22.8419 -130.998 1246.59
vn -0.00903839 -0.640099 -0.768239
v 24.8245 -139.026 1224.7
vn -0.581013 -0.797422 -0.162918
v 23.7963 -139.164 1231.6
vn -0.478891 -0.736289 0.478061
v 23.8613 -139.076 1237.61
vn -0.307082 -0.793433 -0.525514
v 23.9228 -139.035 1238.81
vn -0.450744 -0.891921 0.036145
v 24.2293 -138.917 1238.21
vn -0.216422 -0.876309 -0.4304
v 24.8193 -139.124 1238.81
vn -0.2004 -0.754082 -0.62546
v 23.9109 -139.26 1239.1
vn -0.163578 -0.94165 0.294173
v 23.9113 -139.253 1240.9
vn -0.131578 -0.991042 -0.0228632
v 23.6204 -139.072 1241.81
vn -0.195309 -0.908414 0.369646
v 24.2136 -139.217 1243.31
vn 0.215654 -0.368991 -0.904068
v 24.8593 -138.362 1224.27
vn 0.30673 -0.0831703 -0.948156
v 24.9068 -137.455 1224.06
vn -0.629393 -0.669662 -0.394229
v 22.7906 -137.709 1225.88
vn -0.572544 -0.770867 -0.27921
v 23.0607 -138.288 1226.53
vn -0.516422 -0.856005 -0.0237319
v 23.0658 -138.19 1230.43
vn -0.5887 -0.503688 -0.632242
v 22.7511 -138.463 1238.92
vn -0.933201 -0.35923 0.00949525
v 23.016 -137.842 1237.95
vn -0.683517 -0.445363 0.578322
v 22.8173 -137.199 1237.97
vn -0.757937 -0.518764 0.395494
v 23.0673 -138.162 1237.64
vn -0.705289 -0.699672 0.114136
v 23.1595 -138.149 1237.94
vn -0.495153 -0.781473 -0.379635
v 23.0676 -138.156 1238.26
vn -0.423154 -0.66009 0.620663
v 23.9553 -138.414 1244.24
vn 0.152315 0.388363 -0.908831
v 22.9983 -133.747 1224.02
vn 0.170828 0.146926 -0.974285
v 23.2357 -134.949 1223.66
vn 0.40769 0.236297 -0.882016
v 24.7328 -135.042 1224.08
vn -0.192133 -0.610955 0.767997
v 23.8491 -134.708 1250.24
vn 0.336227 0.508658 -0.792602
v 23.9429 -132.918 1224.71
vn -0.123464 0.50808 0.852415
v 23.2656 -134.378 1250.28
vn -0.0258857 0.689718 0.723615
v 24.2712 -132.386 1248.95
vn 0.315859 0.695464 -0.645416
v 23.163 -131.115 1225.88
vn 0.244152 0.952897 0.179936
v 23.7278 -131.291 1247.18
vn 0.0134379 0.86721 0.497761
v 24.3084 -131.676 1248.07
vn 0.285731 0.929723 0.232322
v 24.9039 -131.778 1248.07
vn 0.186696 0.80911 0.557213
v 25.1922 -132.009 1248.42
vn -0.0990835 -0.815117 -0.570759
v 25.3894 -139.711 1225.58
vn 0.394571 -0.41831 -0.818126
v 25.426 -139.012 1224.81
vn 0.200801 -0.687628 -0.697744
v 25.6986 -139.542 1225.29
vn 0.0312087 -0.83592 -0.547963
v 25.9652 -140.189 1226.17
vn 0.43553 -0.669456 -0.601783
v 26.2673 -140.155 1226.17
vn 0.640499 -0.308311 -0.703353
v 26.6338 -138.895 1225.61
vn 0.753422 -0.347096 -0.558462
v 27.3352 -139.171 1226.5
vn -0.508618 -0.843272 -0.17378
v 26.2464 -140.555 1227.35
vn 0.382915 -0.760432 -0.524518
v 26.8318 -140.849 1227.65
vn -0.469539 -0.708479 0.526869
v 25.0785 -139.911 1237.28
vn -0.251609 -0.689038 -0.679647
v 25.1004 -139.493 1239.08
vn -0.403415 -0.882168 0.242972
v 25.1178 -139.161 1238.21
vn -0.47312 -0.826619 -0.304727
v 25.408 -139.357 1238.8
vn -0.608758 -0.741868 0.281149
v 26.0035 -139.81 1238.19
vn -0.387974 -0.783215 -0.48585
v 25.9836 -139.837 1238.98
vn -0.566434 -0.816064 -0.114859
v 26.2778 -139.956 1238.78
vn -0.620916 -0.699515 0.353753
v 27.1067 -141.336 1237.53
vn -0.243183 -0.921955 -0.301432
v 25.0724 -140.027 1239.68
vn -0.124607 -0.925132 0.358613
v 25.0806 -139.87 1240.28
vn -0.519741 -0.852935 -0.0486969
v 26.5234 -140.169 1239.08
vn -0.279464 -0.959618 -0.0321547
v 26.2693 -140.117 1239.38
vn -0.646787 -0.738775 0.189415
v 26.9305 -140.491 1239.06
vn -0.515765 -0.831257 0.207359
v 26.8585 -140.34 1239.37
vn -0.314674 -0.909009 0.27328
v 26.8913 -139.714 1240.89
vn -0.272862 -0.919371 0.283379
v 26.0148 -139.242 1243.61
vn -0.333108 -0.938249 -0.0934268
v 26.3041 -139.453 1242.1
vn -0.233518 -0.972283 -0.0116623
v 26.294 -139.647 1242.7
vn -0.481036 -0.876689 0.00444429
v 26.8799 -139.931 1242.69
vn -0.131175 -0.990176 -0.0484207
v 26.6164 -139.227 1245.11
vn 0.600511 -0.0607174 -0.797308
v 26.1354 -136.94 1224.67
vn -0.104679 -0.992539 0.0625223
v 25.1252 -139.02 1244.52
vn -0.335224 -0.761229 0.555117
v 25.4824 -137.936 1245.55
vn -0.0981543 -0.990608 0.0951946
v 26.0215 -139.113 1244.21
vn -0.305364 -0.786921 0.536197
v 25.2314 -136.993 1246.69
vn -0.548057 -0.563314 0.618313
v 27.2155 -139.26 1246.43
vn -0.177251 -0.765853 0.618102
v 25.9302 -135.124 1250.42
vn 0.224967 0.449156 0.864667
v 26.2454 -134.841 1250.44
vn 0.675072 0.501549 -0.541042
v 26.7808 -133.717 1226.09
vn 0.426767 0.885218 0.185092
v 25.7835 -132.191 1248.36
vn 0.493739 0.869032 -0.0317107
v 27.2418 -133.025 1247.73
vn 0.141913 0.60399 0.784256
v 25.7312 -133.189 1249.52
vn 0.344049 0.730473 0.589949
v 26.6493 -132.867 1248.94
vn 0.401072 0.500674 0.767116
v 27.4766 -134.278 1249.7
vn -0.566171 -0.818365 -0.0986357
v 27.3675 -142.092 1230
vn 0.711165 -0.554647 -0.431986
v 27.6595 -142.253 1230
vn -0.574903 -0.817803 0.0261846
v 28.5341 -142.759 1234.19
vn 0.258994 -0.917933 -0.300534
v 29.1439 -142.59 1234.19
vn 0.66279 -0.551272 -0.506762
v 27.7937 -141.08 1228.84
vn 0.892713 -0.282275 -0.351262
v 29.8176 -140.08 1231.58
vn -0.566515 -0.778795 0.269332
v 29.4983 -141.558 1242.03
vn -0.273394 -0.961351 0.0325613
v 28.0995 -139.588 1246.9
vn 0.0424918 -0.997329 0.0594051
v 28.3981 -139.623 1246.9
vn 0.0151073 -0.995973 -0.0883737
v 28.7076 -139.449 1246.31
vn -0.00893155 -0.994208 0.107104
v 29.6104 -139.419 1246.91
vn 0.85463 0.0145186 -0.519034
v 28.3834 -136.545 1227.2
vn -0.579563 -0.333769 0.743441
v 27.6023 -138.997 1246.92
vn -0.287596 -0.496647 0.81892
v 29.0414 -138.812 1248.08
vn -0.0281202 -0.800731 0.598364
v 29.3192 -139.244 1247.82
vn -0.424378 -0.545291 0.722884
v 29.3872 -137.946 1248.58
vn -0.156717 -0.557816 0.815034
v 29.6712 -138.259 1248.5
vn -0.11548 -0.605785 0.787203
v 29.689 -137.92 1248.77
vn 0.116298 -0.501613 0.857239
v 29.7172 -137.381 1249.12
vn -0.247422 -0.779651 0.575262
v 27.7193 -136.095 1249.73
vn 0.528304 0.288202 0.798646
v 28.5804 -136.145 1249.86
vn -0.1201 -0.586236 0.801188
v 29.1333 -137.059 1249.37
vn 0.655416 0.240207 0.716052
v 29.4804 -136.169 1249.19
vn 0.752429 0.164323 0.637847
v 30.0184 -136.785 1248.81
vn 0.529661 0.792569 0.302149
v 28.4054 -133.751 1248.61
vn 0.6051 0.514798 0.607319
v 28.9809 -134.235 1248.59
vn 0.635243 0.748676 0.189608
v 29.9388 -134.637 1247.68
vn -0.541779 -0.835783 -0.0891227
v 29.6945 -143.548 1236.86
vn 0.0669981 -0.963959 -0.257478
v 29.9971 -143.505 1236.56
vn -0.319677 -0.933581 0.161964
v 29.9935 -143.574 1238.36
vn 0.0354737 -0.999347 0.00688222
v 30.2926 -143.599 1237.76
vn 0.883739 -0.405557 -0.233515
v 31.5444 -141.881 1237.52
vn 0.398615 -0.894578 0.202081
v 30.6079 -143.316 1239.87
vn 0.766272 -0.604468 0.21782
v 30.9326 -142.851 1240.4
vn 0.881129 -0.467583 0.0705555
v 31.2845 -142.541 1239.6
vn -0.3705 -0.830002 0.416924
v 30.3359 -142.772 1241.39
vn 0.45557 -0.760881 0.462079
v 30.6581 -142.582 1241.7
vn 0.849728 -0.43321 0.300486
v 31.0593 -142.002 1241.72
vn 0.836641 -0.390577 -0.384033
v 29.9002 -141.369 1233.94
vn 0.937159 -0.186723 -0.294732
v 30.4834 -139.287 1233.71
vn 0.883899 -0.163311 -0.438237
v 30.5999 -139.304 1234.01
vn -0.0259366 -0.844622 0.534735
v 30.396 -141.627 1242.93
vn 0.723338 -0.578587 0.376855
v 30.7038 -141.485 1242.94
vn 0.96644 -0.185125 0.178107
v 31.925 -139.635 1241.51
vn -0.215238 -0.96041 0.176875
v 29.9045 -139.54 1246.31
vn -0.503446 -0.764111 0.403332
v 30.5079 -139.491 1247.21
vn 0.908616 0.00205564 -0.417628
v 30.6406 -138.705 1234.03
vn 0.908737 -0.0592087 -0.413148
v 31.4458 -138.791 1235.26
vn 0.986578 -0.0687618 0.148106
v 31.8787 -138.547 1244.85
vn 0.0672324 -0.920838 0.384106
v 29.9178 -139.287 1247.52
vn 0.116307 -0.667559 0.735417
v 30.2399 -138.873 1248.03
vn 0.798638 -0.0608815 0.598724
v 30.592 -137.394 1248.19
vn 0.359186 -0.796104 0.487035
v 31.1094 -139.478 1246.84
vn 0.892501 0.37531 -0.250169
v 30.6948 -136.327 1234.71
vn 0.904488 0.426466 0.00523154
v 31.5109 -136.611 1241.61
vn 0.759633 0.436293 0.482292
v 30.2364 -134.953 1247.67
vn 0.894792 0.157912 0.417627
v 31.0829 -136.177 1247.03
vn 0.846774 0.517498 0.123167
v 31.106 -135.557 1246.45
vn 0.99932 0.0284462 -0.0234769
v 32.3644 -138.684 1239.44
vn 0.428356 0.487045 -0.761116
v 14.4282 -131.038 1228.19
vn -0.428591 0.621233 -0.656033
v 13.8602 -130.414 1228.37
vn 0.283354 0.73971 -0.61036
v 13.8602 -130.414 1228.37
vn -0.848823 -0.526374 -0.0492903
v 16.71 -136.715 1240.98
vn -0.614013 -0.333767 0.715253
v 17.0939 -137.088 1242.47
vn -0.653501 -0.674127 0.344222
v 17.4962 -135.552 1232.31
vn -0.956949 -0.287146 0.0423874
v 17.6806 -135.572 1232.62
vn -0.922201 0.362062 0.135855
v 17.6806 -135.572 1232.62
vn -0.753726 -0.0684405 0.653615
v 17.6806 -135.572 1232.62
vn -0.637352 0.286262 -0.715428
v 17.7198 -135.585 1232.92
vn -0.922201 0.362062 0.135855
v 17.7198 -135.585 1232.92
vn -0.182838 0.95689 -0.225681
v 17.7198 -135.585 1232.92
vn -0.641633 0.535444 0.549188
v 17.7198 -135.585 1232.92
vn -0.948794 -0.314445 -0.0302464
v 17.7812 -135.846 1232.31
vn -0.956949 -0.287146 0.0423874
v 17.7793 -135.882 1232.74
vn -0.606496 0.326882 -0.724784
v 17.7793 -135.882 1232.74
vn -0.462809 -0.883248 -0.0753722
v 17.7793 -135.882 1232.74
vn -0.557984 0.436691 0.705659
v 17.8108 -135.282 1232.73
vn -0.663672 -0.0488548 -0.746427
v 16.5013 -135.504 1241.02
vn -0.746316 0.605192 -0.277046
v 16.5013 -135.504 1241.02
vn -0.837272 0.516536 -0.179349
v 17.8863 -134.333 1239.86
vn -0.896822 0.440681 0.0388626
v 18.0477 -134.031 1239.57
vn -0.6888 -0.329908 0.645535
v 16.3882 -136.14 1242.2
vn -0.813349 0.381838 0.438934
v 16.3882 -136.14 1242.2
vn -0.993111 0.11184 -0.0349599
v 16.5112 -135.225 1241.63
vn -0.809344 0.387761 0.44114
v 16.5112 -135.225 1241.63
vn 0.297344 0.91082 -0.286345
v 16.5077 -131.485 1229.15
vn -0.736737 0.248717 -0.628775
v 16.7922 -131.789 1228.92
vn -0.218501 0.96316 -0.156782
v 16.8083 -131.481 1229.15
vn -0.710582 0.420456 -0.564172
v 16.8083 -131.481 1229.15
vn -0.965109 -0.133389 -0.225328
v 17.1089 -131.793 1228.54
vn -0.858999 0.511493 -0.0222405
v 17.1191 -131.284 1228.86
vn -0.892574 -0.267449 -0.36302
v 17.6138 -133.309 1228.17
vn 0.136483 0.954829 0.26396
v 16.8161 -131.334 1229.76
vn -0.0995147 0.952304 0.288467
v 17.1181 -131.303 1229.76
vn -0.760002 -0.143724 0.63383
v 17.6379 -132.849 1232.17
vn -0.607131 -0.267318 0.748286
v 17.9422 -133.173 1232.4
vn -0.940137 0.240318 0.241639
v 18.078 -133.722 1239.28
vn -0.958961 -0.039797 0.28073
v 18.0334 -133.856 1243.18
vn -0.734226 -0.653885 0.182611
v 18.1405 -133.603 1244.39
vn 0.219419 0.922718 -0.316933
v 18.4342 -128.291 1229.57
vn -0.520718 -0.848704 0.0924844
v 17.9794 -137.798 1240.94
vn -0.13128 -0.905252 -0.404084
v 17.9794 -137.798 1240.94
vn -0.34076 -0.905233 -0.25384
v 19.3826 -137.735 1240.35
vn -0.835421 0.239129 -0.494863
v 19.1267 -133.595 1225.48
vn -0.475223 0.713507 0.514851
v 18.103 -135.439 1233.22
vn -0.816931 -0.106909 0.56674
v 19.6547 -134.491 1233.12
vn -0.62591 -0.774017 0.0955754
v 19.9305 -134.22 1233.57
vn -0.209659 0.972146 0.104763
v 20.0015 -134.835 1233.85
vn -0.922523 0.0659895 0.38026
v 20.0015 -134.835 1233.85
vn -0.749799 0.624025 0.219985
v 20.0015 -134.835 1233.85
vn -0.398735 0.777634 -0.486102
v 19.236 -135.168 1235.93
vn -0.3995 0.822385 -0.405071
v 19.4905 -134.892 1236.24
vn -0.695046 -0.241149 -0.677317
v 19.9337 -134.899 1235.79
vn -0.172706 -0.365745 -0.914551
v 19.9337 -134.899 1235.79
vn -0.738959 -0.138353 -0.659392
v 19.9497 -134.595 1235.67
vn -0.172706 -0.365745 -0.914551
v 19.9497 -134.595 1235.67
vn -0.310013 0.786201 -0.534585
v 20.224 -135.094 1235.34
vn -0.749799 0.624025 0.219985
v 20.224 -135.094 1235.34
vn -0.666392 -0.669687 -0.327781
v 18.1761 -134.043 1238.97
vn -0.77008 -0.364064 0.523864
v 19.5497 -134.927 1237.14
vn -0.908757 -0.0768102 -0.410195
v 18.161 -134.331 1239.39
vn -0.844418 -0.286204 0.45282
v 18.1685 -134.189 1243.47
vn -0.624969 0.421735 0.656927
v 19.899 -134.443 1248.57
vn -0.318253 0.342309 -0.884047
v 19.4491 -132.682 1224.67
vn -0.19621 0.17667 0.964515
v 18.5045 -133.51 1232.59
vn -0.708946 -0.319669 0.628655
v 18.804 -133.528 1232.65
vn -0.390435 -0.728805 0.562498
v 18.804 -133.528 1232.65
vn -0.174287 0.910798 0.374261
v 18.7407 -129.002 1232.26
vn -0.0370538 0.997335 0.0628432
v 19.0481 -128.869 1233.15
vn -0.163681 0.98587 0.0356103
v 18.7405 -129.006 1235.55
vn -0.664793 0.682501 0.303714
v 19.0424 -128.978 1236.15
vn 0.150937 0.985757 -0.0741708
v 20.4392 -130.016 1241.52
vn 0.285796 0.956495 -0.0586296
v 20.4995 -129.836 1242.13
vn -0.0762933 0.937392 0.339817
v 20.4937 -129.946 1242.72
vn 0.404308 0.913603 -0.0431711
v 18.4826 -128.195 1230.17
vn -0.174287 0.910798 0.374261
v 18.4826 -128.195 1230.17
vn -0.602248 0.793374 0.0886248
v 19.0573 -128.695 1231.66
vn -0.174287 0.910798 0.374261
v 19.0573 -128.695 1231.66
vn -0.595104 -0.673376 0.438653
v 22.4061 -139.313 1235.2
vn -0.490918 -0.191147 -0.849978
v 22.5739 -136.112 1223.54
vn 0.0155939 -0.177112 -0.984067
v 22.5739 -136.112 1223.54
vn -0.417418 -0.739894 0.527559
v 21.6467 -136.606 1245.79
vn -0.501805 -0.184929 -0.844981
v 21.7534 -134.571 1223.67
vn -0.749799 0.624025 0.219985
v 20.5384 -134.825 1235.65
vn -0.221892 0.8371 -0.500027
v 20.5384 -134.825 1235.65
vn -0.478404 -0.859678 -0.179118
v 20.5384 -134.825 1235.65
vn -0.172706 -0.365745 -0.914551
v 20.5384 -134.825 1235.65
vn -0.241972 -0.968111 0.0648902
v 20.5334 -134.922 1246.75
vn -0.432543 0.366508 0.823759
v 21.4533 -134.565 1249.73
vn -0.622742 -0.697575 -0.354375
v 24.8245 -139.026 1224.7
vn -0.877276 -0.467015 -0.110829
v 22.8173 -137.199 1237.97
vn -0.878517 -0.400667 -0.26014
v 23.1595 -138.149 1237.94
vn -0.900392 -0.322775 -0.291737
v 23.0676 -138.156 1238.26
vn -0.14234 -0.294952 0.944851
v 23.2656 -134.378 1250.28
vn -0.563523 -0.810058 -0.162012
v 25.3894 -139.711 1225.58
vn -0.463131 -0.871887 -0.15913
v 25.9652 -140.189 1226.17
vn -0.292761 -0.900298 -0.322111
v 26.8318 -140.849 1227.65
vn -0.492906 -0.734387 0.466605
v 25.1252 -139.02 1244.52
vn -0.601874 -0.199415 0.773293
v 25.4824 -137.936 1245.55
vn -0.291301 -0.950476 0.10835
v 27.2155 -139.26 1246.43
vn -0.0294501 -0.205711 0.97817
v 25.9302 -135.124 1250.42
vn 0.0320397 -0.11821 0.992472
v 26.2454 -134.841 1250.44
vn -0.398241 -0.882198 -0.251258
v 27.6595 -142.253 1230
vn 0.266091 -0.948755 -0.17047
v 27.6595 -142.253 1230
vn 0.140318 -0.94828 -0.284738
v 28.5341 -142.759 1234.19
vn 0.754507 -0.542239 -0.369725
v 29.1439 -142.59 1234.19
vn -0.389161 -0.638409 0.664069
v 28.0995 -139.588 1246.9
vn 0.67802 -0.0213736 0.734733
v 29.7172 -137.381 1249.12
vn 0.119665 -0.213828 0.969514
v 28.5804 -136.145 1249.86
vn -0.0492006 -0.572956 0.818108
v 28.5804 -136.145 1249.86
vn -0.584994 -0.765778 0.267145
v 29.6945 -143.548 1236.86
vn -0.04549 -0.992757 -0.111191
v 29.6945 -143.548 1236.86
vn 0.753099 -0.540451 -0.375174
v 29.9971 -143.505 1236.56
vn 0.776209 -0.619597 -0.116611
v 30.2926 -143.599 1237.76
vn 0.0909888 -0.893061 0.44064
v 30.5079 -139.491 1247.21
vn 0.716305 -0.238386 0.655804
v 30.2399 -138.873 1248.03
vn 0.900754 -0.184009 0.393424
v 31.1094 -139.478 1246.84
f 7//7 10//10 1//1
f 7//7 17//17 10//10
f 24//24 5//5 2//2
f 5//5 3//3 2//2
f 5//5 8//8 3//3
f 4//4 6//6 24//24
f 24//24 2//2 4//4
f 2//2 1//1 4//4
f 7//7 1//1 3//3
f 1//1 2//2 3//3
f 32//32 6//6 4//4
f 11//11 32//32 4//4
f 11//11 4//4 1//1
f 17//17 7//7 9//9
f 6//6 25//25 24//24
f 6//6 32//32 26//26
f 3//3 8//8 7//7
f 30//30 9//9 8//8
f 7//7 8//8 9//9
f 5//5 29//29 8//8
f 30//30 31//31 9//9
f 9//9 31//31 18//18
f 17//17 9//9 18//18
f 13//13 1//1 10//10
f 12//12 32//32 11//11
f 13//13 11//11 1//1
f 13//13 12//12 11//11
f 14//14 13//13 10//10
f 17//17 14//14 10//10
f 12//12 13//13 15//15
f 15//15 13//13 14//14
f 15//15 33//33 12//12
f 16//16 15//15 14//14
f 15//15 16//16 34//34
f 33//33 15//15 34//34
f 14//14 17//17 18//18
f 14//14 38//38 16//16
f 14//14 18//18 38//38
f 16//16 38//38 34//34
f 24//24 19//19 5//5
f 19//19 29//29 5//5
f 20//20 19//19 24//24
f 20//20 24//24 25//25
f 19//19 20//20 21//21
f 21//21 20//20 156//156
f 20//20 61//61 156//156
f 25//25 62//62 61//61
f 61//61 20//20 25//25
f 19//19 21//21 29//29
f 21//21 22//22 29//29
f 30//30 29//29 22//22
f 30//30 22//22 23//23
f 22//22 21//21 71//71
f 26//26 25//25 6//6
f 27//27 26//26 32//32
f 28//28 25//25 26//26
f 27//27 28//28 26//26
f 106//106 28//28 27//27
f 425//425 107//107 106//106
f 62//62 28//28 106//106
f 62//62 25//25 28//28
f 108//108 62//62 106//106
f 40//40 18//18 31//31
f 8//8 29//29 30//30
f 23//23 31//31 30//30
f 41//41 40//40 31//31
f 23//23 119//119 31//31
f 119//119 41//41 31//31
f 41//41 119//119 122//122
f 42//42 122//122 120//120
f 27//27 32//32 35//35
f 32//32 12//12 426//426
f 426//426 12//12 33//33
f 37//37 427//427 33//33
f 37//37 33//33 36//36
f 33//33 34//34 36//36
f 36//36 34//34 39//39
f 37//37 36//36 43//43
f 36//36 39//39 43//43
f 37//37 425//425 427//427
f 425//425 37//37 107//107
f 118//118 37//37 43//43
f 37//37 118//118 451//451
f 38//38 40//40 39//39
f 40//40 38//38 18//18
f 39//39 34//34 38//38
f 40//40 43//43 39//39
f 42//42 40//40 41//41
f 42//42 41//41 122//122
f 40//40 42//42 43//43
f 42//42 121//121 43//43
f 43//43 121//121 118//118
f 156//156 71//71 21//21
f 44//44 48//48 72//72
f 48//48 87//87 72//72
f 44//44 53//53 48//48
f 44//44 72//72 73//73
f 46//46 56//56 53//53
f 44//44 46//46 53//53
f 46//46 44//44 45//45
f 45//45 44//44 73//73
f 78//78 47//47 45//45
f 73//73 78//78 45//45
f 47//47 46//46 45//45
f 47//47 78//78 85//85
f 48//48 49//49 87//87
f 49//49 52//52 87//87
f 52//52 90//90 87//87
f 48//48 53//53 50//50
f 49//49 48//48 50//50
f 49//49 50//50 52//52
f 50//50 51//51 52//52
f 51//51 54//54 52//52
f 52//52 54//54 90//90
f 90//90 54//54 92//92
f 53//53 56//56 55//55
f 50//50 53//53 55//55
f 51//51 50//50 55//55
f 51//51 57//57 54//54
f 159//159 54//54 57//57
f 92//92 54//54 159//159
f 159//159 174//174 92//92
f 55//55 56//56 57//57
f 51//51 55//55 57//57
f 161//161 159//159 57//57
f 59//59 162//162 58//58
f 466//466 60//60 428//428
f 200//200 59//59 97//97
f 428//428 101//101 96//96
f 428//428 60//60 101//101
f 429//429 103//103 447//447
f 429//429 263//263 103//103
f 262//262 507//507 60//60
f 164//164 67//67 165//165
f 63//63 61//61 62//62
f 63//63 62//62 64//64
f 63//63 66//66 65//65
f 65//65 61//61 63//63
f 66//66 63//63 64//64
f 66//66 64//64 68//68
f 68//68 64//64 117//117
f 156//156 61//61 65//65
f 65//65 66//66 69//69
f 66//66 67//67 69//69
f 67//67 66//66 68//68
f 166//166 156//156 65//65
f 166//166 65//65 69//69
f 68//68 117//117 67//67
f 164//164 166//166 69//69
f 67//67 164//164 69//69
f 67//67 117//117 469//469
f 71//71 70//70 22//22
f 70//70 23//23 22//22
f 23//23 70//70 134//134
f 134//134 119//119 23//23
f 72//72 88//88 73//73
f 72//72 87//87 88//88
f 73//73 88//88 74//74
f 75//75 73//73 74//74
f 74//74 88//88 91//91
f 75//75 74//74 76//76
f 91//91 76//76 74//74
f 76//76 91//91 93//93
f 75//75 82//82 73//73
f 75//75 76//76 77//77
f 77//77 76//76 93//93
f 70//70 83//83 134//134
f 82//82 78//78 73//73
f 77//77 93//93 175//175
f 167//167 82//82 75//75
f 75//75 77//77 167//167
f 70//70 79//79 83//83
f 71//71 430//430 70//70
f 71//71 84//84 430//430
f 430//430 84//84 80//80
f 431//431 439//439 81//81
f 440//440 82//82 434//434
f 78//78 82//82 440//440
f 435//435 86//86 432//432
f 436//436 82//82 167//167
f 83//83 79//79 433//433
f 442//442 170//170 83//83
f 433//433 442//442 83//83
f 170//170 134//134 83//83
f 170//170 138//138 134//134
f 157//157 84//84 71//71
f 441//441 84//84 157//157
f 431//431 438//438 439//439
f 442//442 470//470 169//169
f 442//442 437//437 470//470
f 77//77 168//168 167//167
f 169//169 170//170 442//442
f 168//168 77//77 180//180
f 87//87 89//89 88//88
f 87//87 90//90 89//89
f 91//91 88//88 89//89
f 94//94 89//89 90//90
f 94//94 90//90 92//92
f 91//91 89//89 93//93
f 89//89 94//94 93//93
f 174//174 95//95 92//92
f 95//95 94//94 92//92
f 93//93 94//94 175//175
f 95//95 175//175 94//94
f 77//77 175//175 180//180
f 443//443 59//59 58//58
f 443//443 98//98 59//59
f 100//100 445//445 444//444
f 444//444 102//102 100//100
f 222//222 100//100 102//102
f 97//97 59//59 98//98
f 97//97 199//199 200//200
f 97//97 98//98 486//486
f 190//190 486//486 99//99
f 486//486 98//98 99//99
f 100//100 446//446 445//445
f 190//190 99//99 142//142
f 96//96 101//101 449//449
f 448//448 103//103 450//450
f 222//222 450//450 103//103
f 103//103 263//263 201//201
f 103//103 143//143 222//222
f 103//103 201//201 143//143
f 487//487 221//221 463//463
f 104//104 115//115 105//105
f 116//116 115//115 104//104
f 104//104 211//211 210//210
f 210//210 116//116 104//104
f 210//210 165//165 116//116
f 211//211 104//104 105//105
f 108//108 64//64 62//62
f 106//106 109//109 108//108
f 107//107 109//109 106//106
f 451//451 118//118 125//125
f 107//107 110//110 109//109
f 451//451 125//125 453//453
f 111//111 64//64 108//108
f 108//108 112//112 111//111
f 112//112 108//108 109//109
f 112//112 452//452 113//113
f 452//452 454//454 113//113
f 113//113 454//454 114//114
f 456//456 453//453 128//128
f 453//453 125//125 128//128
f 117//117 64//64 111//111
f 111//111 112//112 117//117
f 112//112 113//113 117//117
f 116//116 455//455 115//115
f 128//128 147//147 456//456
f 455//455 456//456 115//115
f 116//116 165//165 457//457
f 457//457 455//455 116//116
f 42//42 120//120 121//121
f 123//123 120//120 122//122
f 458//458 121//121 126//126
f 118//118 121//121 458//458
f 134//134 122//122 119//119
f 120//120 124//124 126//126
f 123//123 124//124 120//120
f 126//126 121//121 120//120
f 122//122 134//134 130//130
f 122//122 130//130 123//123
f 459//459 458//458 129//129
f 458//458 126//126 129//129
f 124//124 129//129 126//126
f 123//123 127//127 131//131
f 123//123 130//130 127//127
f 123//123 129//129 124//124
f 131//131 129//129 123//123
f 133//133 129//129 131//131
f 128//128 129//129 133//133
f 134//134 136//136 130//130
f 130//130 460//460 137//137
f 127//127 130//130 137//137
f 127//127 137//137 132//132
f 127//127 150//150 131//131
f 127//127 132//132 150//150
f 131//131 150//150 133//133
f 133//133 147//147 128//128
f 150//150 147//147 133//133
f 137//137 139//139 135//135
f 137//137 135//135 132//132
f 135//135 152//152 132//132
f 132//132 152//152 150//150
f 139//139 460//460 461//461
f 136//136 134//134 138//138
f 137//137 460//460 139//139
f 461//461 215//215 139//139
f 135//135 217//217 141//141
f 141//141 140//140 135//135
f 140//140 152//152 135//135
f 140//140 153//153 152//152
f 140//140 462//462 153//153
f 462//462 237//237 153//153
f 190//190 142//142 141//141
f 142//142 140//140 141//141
f 219//219 237//237 462//462
f 222//222 143//143 144//144
f 144//144 463//463 221//221
f 222//222 144//144 223//223
f 223//223 144//144 145//145
f 145//145 144//144 221//221
f 145//145 225//225 223//223
f 145//145 224//224 225//225
f 223//223 225//225 241//241
f 105//105 115//115 146//146
f 105//105 146//146 229//229
f 229//229 146//146 231//231
f 146//146 115//115 456//456
f 456//456 148//148 146//146
f 456//456 147//147 148//148
f 146//146 148//148 231//231
f 148//148 147//147 149//149
f 231//231 148//148 154//154
f 148//148 149//149 154//154
f 155//155 231//231 154//154
f 149//149 151//151 154//154
f 152//152 232//232 150//150
f 147//147 150//150 149//149
f 149//149 150//150 151//151
f 150//150 232//232 151//151
f 153//153 235//235 152//152
f 154//154 151//151 248//248
f 155//155 154//154 248//248
f 151//151 232//232 248//248
f 71//71 156//156 303//303
f 71//71 256//256 157//157
f 71//71 303//303 256//256
f 157//157 47//47 85//85
f 47//47 157//157 158//158
f 158//158 46//46 47//47
f 56//56 46//46 250//250
f 256//256 158//158 157//157
f 250//250 46//46 256//256
f 256//256 46//46 158//158
f 161//161 57//57 251//251
f 160//160 159//159 161//161
f 160//160 174//174 159//159
f 251//251 57//57 56//56
f 160//160 176//176 174//174
f 176//176 160//160 161//161
f 163//163 162//162 59//59
f 262//262 467//467 468//468
f 163//163 59//59 200//200
f 163//163 200//200 257//257
f 257//257 200//200 193//193
f 466//466 262//262 60//60
f 164//164 209//209 264//264
f 165//165 213//213 164//164
f 264//264 166//166 164//164
f 169//169 470//470 171//171
f 171//171 170//170 169//169
f 180//180 167//167 168//168
f 490//490 138//138 170//170
f 218//218 490//490 170//170
f 171//171 218//218 170//170
f 172//172 491//491 471//471
f 171//171 470//470 173//173
f 167//167 180//180 473//473
f 474//474 172//172 471//471
f 95//95 174//174 175//175
f 175//175 174//174 177//177
f 175//175 177//177 178//178
f 174//174 176//176 177//177
f 186//186 179//179 141//141
f 141//141 217//217 186//186
f 177//177 176//176 192//192
f 178//178 180//180 175//175
f 192//192 181//181 177//177
f 177//177 181//181 178//178
f 186//186 184//184 179//179
f 180//180 178//178 189//189
f 181//181 182//182 178//178
f 181//181 183//183 182//182
f 181//181 192//192 183//183
f 182//182 183//183 184//184
f 183//183 185//185 184//184
f 186//186 217//217 188//188
f 186//186 188//188 184//184
f 179//179 184//184 185//185
f 187//187 476//476 477//477
f 187//187 482//482 476//476
f 480//480 478//478 182//182
f 184//184 480//480 182//182
f 473//473 180//180 189//189
f 172//172 474//474 266//266
f 475//475 483//483 509//509
f 482//482 187//187 510//510
f 472//472 511//511 217//217
f 217//217 511//511 188//188
f 512//512 479//479 481//481
f 179//179 191//191 141//141
f 141//141 193//193 484//484
f 141//141 191//191 193//193
f 193//193 191//191 196//196
f 185//185 194//194 191//191
f 185//185 191//191 179//179
f 176//176 195//195 192//192
f 192//192 197//197 485//485
f 192//192 194//194 183//183
f 197//197 196//196 191//191
f 194//194 185//185 183//183
f 191//191 194//194 197//197
f 176//176 161//161 267//267
f 176//176 267//267 195//195
f 192//192 195//195 197//197
f 267//267 197//197 195//195
f 198//198 196//196 197//197
f 267//267 198//198 197//197
f 268//268 196//196 198//198
f 268//268 193//193 196//196
f 200//200 199//199 193//193
f 193//193 199//199 484//484
f 446//446 219//219 462//462
f 100//100 219//219 446//446
f 202//202 204//204 224//224
f 224//224 204//204 226//226
f 221//221 487//487 507//507
f 507//507 203//203 221//221
f 203//203 202//202 221//221
f 204//204 202//202 205//205
f 203//203 205//205 202//202
f 270//270 203//203 507//507
f 204//204 206//206 226//226
f 204//204 205//205 206//206
f 207//207 206//206 205//205
f 205//205 203//203 207//207
f 207//207 271//271 208//208
f 206//206 207//207 208//208
f 226//226 206//206 208//208
f 271//271 273//273 208//208
f 513//513 207//207 203//203
f 212//212 489//489 211//211
f 214//214 489//489 212//212
f 209//209 164//164 213//213
f 214//214 274//274 489//489
f 105//105 212//212 211//211
f 105//105 229//229 212//212
f 165//165 210//210 211//211
f 213//213 165//165 211//211
f 214//214 212//212 229//229
f 209//209 213//213 211//211
f 214//214 275//275 274//274
f 275//275 214//214 280//280
f 280//280 214//214 229//229
f 216//216 139//139 215//215
f 216//216 217//217 139//139
f 217//217 135//135 139//139
f 492//492 216//216 215//215
f 217//217 216//216 492//492
f 472//472 217//217 492//492
f 237//237 219//219 220//220
f 100//100 220//220 219//219
f 220//220 222//222 223//223
f 220//220 223//223 241//241
f 100//100 222//222 220//220
f 246//246 241//241 225//225
f 202//202 464//464 221//221
f 224//224 464//464 202//202
f 224//224 226//226 225//225
f 227//227 228//228 225//225
f 225//225 228//228 246//246
f 226//226 227//227 225//225
f 227//227 226//226 488//488
f 488//488 228//228 227//227
f 230//230 229//229 231//231
f 280//280 229//229 230//230
f 500//500 249//249 247//247
f 247//247 249//249 283//283
f 232//232 152//152 233//233
f 235//235 233//233 152//152
f 236//236 494//494 495//495
f 232//232 233//233 502//502
f 249//249 494//494 234//234
f 494//494 236//236 234//234
f 283//283 249//249 234//234
f 234//234 236//236 283//283
f 237//237 238//238 153//153
f 238//238 235//235 153//153
f 237//237 220//220 238//238
f 235//235 238//238 496//496
f 220//220 239//239 238//238
f 238//238 239//239 240//240
f 239//239 244//244 240//240
f 240//240 496//496 238//238
f 497//497 498//498 284//284
f 497//497 284//284 236//236
f 241//241 246//246 242//242
f 220//220 241//241 242//242
f 220//220 242//242 239//239
f 242//242 246//246 245//245
f 242//242 243//243 239//239
f 242//242 245//245 243//243
f 239//239 243//243 244//244
f 244//244 243//243 245//245
f 499//499 246//246 286//286
f 499//499 287//287 498//498
f 246//246 228//228 288//288
f 230//230 231//231 155//155
f 465//465 500//500 247//247
f 465//465 247//247 230//230
f 493//493 503//503 501//501
f 303//303 156//156 330//330
f 251//251 56//56 250//250
f 253//253 252//252 468//468
f 252//252 253//253 340//340
f 264//264 255//255 254//254
f 156//156 166//166 264//264
f 254//254 301//301 264//264
f 302//302 156//156 301//301
f 264//264 301//301 156//156
f 250//250 256//256 290//290
f 161//161 251//251 258//258
f 258//258 267//267 161//161
f 258//258 259//259 267//267
f 257//257 193//193 260//260
f 306//306 259//259 258//258
f 260//260 268//268 259//259
f 260//260 193//193 268//268
f 307//307 306//306 258//258
f 304//304 253//253 257//257
f 261//261 260//260 516//516
f 261//261 257//257 260//260
f 516//516 260//260 259//259
f 258//258 504//504 307//307
f 304//304 257//257 261//261
f 253//253 163//163 257//257
f 292//292 253//253 304//304
f 252//252 262//262 468//468
f 252//252 297//297 262//262
f 489//489 274//274 265//265
f 264//264 209//209 508//508
f 505//505 264//264 508//508
f 312//312 506//506 265//265
f 312//312 265//265 311//311
f 269//269 198//198 267//267
f 268//268 198//198 269//269
f 259//259 268//268 269//269
f 259//259 269//269 267//267
f 513//513 271//271 207//207
f 488//488 514//514 276//276
f 277//277 276//276 514//514
f 513//513 272//272 271//271
f 271//271 272//272 273//273
f 513//513 385//385 272//272
f 273//273 272//272 385//385
f 278//278 277//277 514//514
f 316//316 278//278 514//514
f 273//273 385//385 314//314
f 314//314 519//519 273//273
f 311//311 274//274 275//275
f 265//265 274//274 311//311
f 311//311 275//275 315//315
f 275//275 280//280 318//318
f 315//315 275//275 318//318
f 276//276 228//228 488//488
f 276//276 277//277 228//228
f 228//228 279//279 288//288
f 279//279 228//228 277//277
f 277//277 278//278 279//279
f 279//279 278//278 316//316
f 281//281 280//280 230//230
f 318//318 280//280 281//281
f 230//230 282//282 281//281
f 281//281 282//282 283//283
f 283//283 318//318 281//281
f 247//247 282//282 230//230
f 247//247 283//283 282//282
f 284//284 283//283 236//236
f 284//284 498//498 285//285
f 285//285 498//498 287//287
f 499//499 286//286 287//287
f 285//285 362//362 284//284
f 284//284 362//362 283//283
f 246//246 288//288 286//286
f 287//287 286//286 288//288
f 285//285 287//287 319//319
f 287//287 288//288 319//319
f 279//279 320//320 288//288
f 299//299 324//324 289//289
f 330//330 156//156 302//302
f 330//330 290//290 303//303
f 290//290 330//330 366//366
f 251//251 250//250 290//290
f 332//332 504//504 339//339
f 504//504 291//291 307//307
f 504//504 332//332 291//291
f 253//253 292//292 295//295
f 334//334 293//293 291//291
f 334//334 294//294 293//293
f 293//293 294//294 292//292
f 294//294 295//295 292//292
f 333//333 295//295 294//294
f 291//291 332//332 334//334
f 335//335 333//333 294//294
f 340//340 253//253 295//295
f 252//252 296//296 297//297
f 341//341 252//252 340//340
f 296//296 252//252 341//341
f 333//333 340//340 295//295
f 337//337 340//340 333//333
f 346//346 296//296 341//341
f 262//262 297//297 349//349
f 298//298 507//507 262//262
f 349//349 298//298 262//262
f 347//347 355//355 298//298
f 515//515 254//254 255//255
f 299//299 289//289 506//506
f 300//300 299//299 506//506
f 506//506 312//312 300//300
f 313//313 300//300 312//312
f 301//301 515//515 302//302
f 515//515 301//301 254//254
f 303//303 290//290 256//256
f 292//292 304//304 309//309
f 305//305 516//516 307//307
f 305//305 518//518 516//516
f 518//518 261//261 516//516
f 518//518 304//304 261//261
f 292//292 309//309 293//293
f 308//308 293//293 309//309
f 308//308 305//305 307//307
f 518//518 305//305 517//517
f 307//307 291//291 293//293
f 293//293 308//308 307//307
f 310//310 507//507 298//298
f 310//310 356//356 507//507
f 355//355 353//353 298//298
f 310//310 298//298 523//523
f 356//356 385//385 507//507
f 311//311 313//313 312//312
f 270//270 507//507 385//385
f 314//314 385//385 358//358
f 314//314 526//526 519//519
f 313//313 311//311 315//315
f 360//360 313//313 315//315
f 318//318 360//360 315//315
f 318//318 283//283 360//360
f 322//322 320//320 317//317
f 363//363 322//322 317//317
f 317//317 320//320 279//279
f 317//317 279//279 316//316
f 316//316 363//363 317//317
f 320//320 319//319 288//288
f 320//320 321//321 319//319
f 321//321 320//320 322//322
f 319//319 321//321 285//285
f 285//285 321//321 361//361
f 361//361 321//321 322//322
f 370//370 367//367 331//331
f 522//522 528//528 330//330
f 368//368 290//290 366//366
f 393//393 251//251 290//290
f 339//339 504//504 536//536
f 289//289 325//325 323//323
f 302//302 515//515 520//520
f 330//330 302//302 520//520
f 325//325 289//289 324//324
f 324//324 299//299 352//352
f 327//327 326//326 325//325
f 325//325 326//326 323//323
f 521//521 330//330 520//520
f 325//325 328//328 327//327
f 324//324 328//328 325//325
f 328//328 324//324 352//352
f 327//327 331//331 326//326
f 521//521 522//522 330//330
f 352//352 377//377 328//328
f 327//327 370//370 331//331
f 327//327 329//329 370//370
f 328//328 329//329 327//327
f 328//328 377//377 329//329
f 294//294 334//334 335//335
f 332//332 336//336 334//334
f 336//336 335//335 334//334
f 339//339 336//336 332//332
f 337//337 338//338 343//343
f 338//338 335//335 336//336
f 337//337 335//335 338//338
f 344//344 336//336 339//339
f 338//338 336//336 344//344
f 342//342 338//338 344//344
f 343//343 338//338 342//342
f 339//339 372//372 344//344
f 337//337 343//343 340//340
f 343//343 341//341 340//340
f 335//335 337//337 333//333
f 296//296 348//348 297//297
f 343//343 346//346 341//341
f 346//346 348//348 296//296
f 344//344 345//345 342//342
f 342//342 345//345 343//343
f 345//345 346//346 343//343
f 372//372 348//348 346//346
f 344//344 372//372 345//345
f 372//372 346//346 345//345
f 297//297 348//348 349//349
f 298//298 349//349 347//347
f 348//348 350//350 349//349
f 350//350 347//347 349//349
f 350//350 348//348 372//372
f 310//310 523//523 357//357
f 351//351 525//525 353//353
f 355//355 351//351 353//353
f 351//351 373//373 525//525
f 378//378 357//357 532//532
f 299//299 300//300 352//352
f 300//300 313//313 352//352
f 360//360 377//377 352//352
f 310//310 354//354 356//356
f 310//310 357//357 378//378
f 378//378 524//524 310//310
f 356//356 354//354 381//381
f 347//347 410//410 355//355
f 355//355 410//410 351//351
f 524//524 378//378 381//381
f 356//356 381//381 385//385
f 352//352 313//313 360//360
f 419//419 360//360 283//283
f 386//386 365//365 359//359
f 534//534 527//527 526//526
f 358//358 385//385 535//535
f 362//362 285//285 361//361
f 361//361 322//322 364//364
f 322//322 363//363 364//364
f 362//362 361//361 390//390
f 390//390 361//361 364//364
f 362//362 390//390 283//283
f 526//526 527//527 519//519
f 359//359 363//363 316//316
f 359//359 365//365 363//363
f 365//365 364//364 363//363
f 390//390 364//364 365//365
f 330//330 528//528 366//366
f 368//368 366//366 528//528
f 369//369 530//530 529//529
f 371//371 531//531 367//367
f 404//404 531//531 371//371
f 393//393 290//290 368//368
f 537//537 530//530 394//394
f 530//530 369//369 394//394
f 395//395 339//339 536//536
f 339//339 395//395 401//401
f 372//372 339//339 401//401
f 371//371 367//367 370//370
f 329//329 371//371 370//370
f 350//350 372//372 347//347
f 372//372 410//410 347//347
f 410//410 375//375 351//351
f 374//374 373//373 351//351
f 351//351 375//375 374//374
f 375//375 376//376 374//374
f 410//410 376//376 375//375
f 532//532 374//374 380//380
f 329//329 377//377 371//371
f 387//387 385//385 381//381
f 381//381 378//378 379//379
f 532//532 379//379 378//378
f 380//380 379//379 532//532
f 379//379 380//380 416//416
f 416//416 382//382 379//379
f 381//381 379//379 382//382
f 415//415 374//374 376//376
f 374//374 415//415 380//380
f 380//380 415//415 416//416
f 381//381 382//382 383//383
f 383//383 387//387 381//381
f 416//416 383//383 382//382
f 387//387 383//383 384//384
f 383//383 416//416 384//384
f 377//377 360//360 419//419
f 371//371 377//377 419//419
f 388//388 421//421 391//391
f 388//388 389//389 421//421
f 423//423 283//283 392//392
f 385//385 387//387 535//535
f 391//391 365//365 386//386
f 391//391 386//386 388//388
f 533//533 388//388 386//386
f 387//387 384//384 535//535
f 533//533 389//389 388//388
f 391//391 392//392 390//390
f 390//390 392//392 283//283
f 365//365 391//391 390//390
f 404//404 538//538 531//531
f 397//397 538//538 404//404
f 396//396 537//537 394//394
f 395//395 537//537 396//396
f 397//397 539//539 538//538
f 398//398 539//539 400//400
f 400//400 539//539 397//397
f 396//396 398//398 395//395
f 395//395 398//398 401//401
f 401//401 398//398 402//402
f 398//398 399//399 402//402
f 400//400 399//399 398//398
f 403//403 402//402 399//399
f 403//403 399//399 400//400
f 407//407 372//372 401//401
f 407//407 401//401 402//402
f 402//402 403//403 408//408
f 404//404 371//371 405//405
f 404//404 405//405 406//406
f 406//406 405//405 412//412
f 404//404 406//406 413//413
f 404//404 413//413 397//397
f 397//397 413//413 424//424
f 397//397 424//424 400//400
f 403//403 400//400 409//409
f 372//372 407//407 411//411
f 408//408 407//407 402//402
f 408//408 403//403 409//409
f 408//408 409//409 414//414
f 411//411 410//410 372//372
f 407//407 408//408 418//418
f 540//540 407//407 418//418
f 408//408 414//414 542//542
f 410//410 540//540 376//376
f 405//405 371//371 412//412
f 419//419 412//412 371//371
f 406//406 412//412 413//413
f 413//413 412//412 419//419
f 419//419 424//424 413//413
f 424//424 419//419 420//420
f 419//419 283//283 420//420
f 424//424 420//420 409//409
f 409//409 420//420 414//414
f 542//542 414//414 422//422
f 540//540 415//415 376//376
f 416//416 415//415 540//540
f 541//541 417//417 533//533
f 540//540 418//418 416//416
f 417//417 541//541 542//542
f 542//542 422//422 417//417
f 533//533 417//417 389//389
f 423//423 420//420 283//283
f 420//420 423//423 414//414
f 421//421 389//389 422//422
f 421//421 392//392 391//391
f 422//422 389//389 417//417
f 421//421 422//422 423//423
f 392//392 421//421 423//423
f 423//423 422//422 414//414
f 400//400 424//424 409//409
