# Wavafront OBJ file of BodyParts3D
# BodyParts3D, Copyright(C) 2010-2011 The Database Center for Life Science licensed under CC Attribution-Share Alike 2.1 Japan.
vn 0.882242 -0.373961 0.28601
v -13.0529 -156.402 712.747
vn 0.74749 -0.663771 0.0258044
v -13.381 -159.402 703.747
vn 0.779213 -0.574266 -0.251091
v -13.256 -158.402 698.747
vn 0.846109 -0.310182 -0.433459
v -13.3029 -156.402 695.747
vn 0.85298 -0.129784 0.505551
v -13.2091 -153.402 714.747
vn 0.78728 0.166084 0.593807
v -13.2716 -150.402 714.747
vn 0.974565 -0.0547459 0.217314
v -10.6935 -150.402 708.747
vn 0.938443 -0.344963 0.0180312
v -11.0529 -155.402 703.747
vn 0.990842 -0.0823246 -0.10703
v -10.3966 -151.402 700.747
vn 0.93732 0.179036 -0.298961
v -10.8654 -149.402 698.747
vn 0.980865 0.19043 -0.0404951
v -10.3029 -148.402 702.747
vn 0.93112 -0.288256 -0.223437
v -11.0997 -154.402 699.747
vn 0.929266 -0.106564 -0.353708
v -11.1935 -151.402 697.747
vn 0.869567 0.0124167 -0.493658
v -12.0841 -150.402 695.747
vn 0.782497 -0.13786 -0.607201
v -13.4591 -152.402 693.747
vn 0.651563 0.558164 0.513731
v -13.4458 -144.402 711.747
vn 0.910326 0.338638 0.237974
v -11.381 -146.402 709.747
vn 0.696622 0.700879 0.153251
v -12.8732 -143.749 708.747
vn 0.812098 0.567774 -0.134645
v -12.1154 -144.402 701.747
vn 0.788523 0.369994 -0.491259
v -13.2716 -147.402 694.747
vn 0.144795 -0.989266 -0.0196616
v -19.8732 -163.488 706.747
vn -0.0807686 -0.232837 0.969156
v -20.8732 -156.402 718.864
vn 0.672136 -0.66024 0.335137
v -14.8966 -159.402 712.747
vn 0.728176 -0.377643 0.571966
v -15.2404 -157.402 715.747
vn 0.52888 -0.274628 0.803035
v -16.8242 -156.402 717.747
vn 0.534531 -0.577653 0.616923
v -16.8732 -158.402 716.63
vn 0.301301 -0.505857 0.808286
v -18.8732 -158.402 717.849
vn 0.216456 -0.228348 0.949212
v -18.8732 -156.402 718.677
vn 0.213038 -0.803691 0.555604
v -19.8732 -161.066 715.747
vn -0.0670113 -0.516171 0.85386
v -20.8732 -158.402 718.114
vn 0.439815 -0.880816 0.175288
v -17.8732 -162.613 709.747
vn 0.453049 -0.890657 -0.0384222
v -17.8732 -162.816 705.747
vn 0.555724 -0.810793 -0.183809
v -15.8732 -160.926 698.747
vn 0.436758 -0.795064 -0.420852
v -16.8366 -160.402 695.747
vn 0.204636 -0.956119 -0.20967
v -18.8732 -162.402 699.365
vn -0.084599 -0.907534 -0.41137
v -20.8732 -161.754 696.747
vn 0.627986 -0.484293 -0.609175
v -15.2303 -157.402 693.747
vn 0.0907106 -0.72229 -0.685615
v -18.8732 -159.832 693.747
vn 0.0424742 0.00111604 0.999097
v -20.8732 -154.402 719.068
vn 0.647654 -0.017016 0.761745
v -14.8732 -153.402 716.723
vn 0.410417 0.371995 0.832573
v -16.8732 -148.193 716.747
vn 0.357943 0.0480468 0.932506
v -17.8732 -154.402 718.536
vn 0.190307 0.204353 0.96022
v -19.8732 -150.402 718.411
vn 0.678507 0.133238 -0.72241
v -14.8732 -149.402 692.208
vn 0.623225 -0.161512 -0.765182
v -15.8732 -153.402 691.443
vn 0.337421 0.0227362 -0.941079
v -16.8732 -151.402 690.599
vn 0.400269 0.300114 -0.865861
v -16.8732 -148.402 691.146
vn 0.243027 -0.334432 -0.910546
v -17.8732 -155.402 690.802
vn 0.0282536 0.329692 -0.943666
v -18.8732 -148.402 690.599
vn 0.280999 0.746984 0.60254
v -15.8732 -143.504 712.747
vn 0.386553 0.873553 0.295773
v -14.8732 -142.894 710.747
vn 0.45159 0.891955 0.0219537
v -14.8732 -142.144 706.747
vn 0.120802 0.984578 0.126544
v -18.8732 -141.113 707.747
vn 0.0205024 0.932589 0.360357
v -19.8732 -141.816 710.747
vn -0.123226 0.990013 -0.0684771
v -20.8732 -140.957 705.747
vn 0.504757 0.788039 -0.352443
v -14.8732 -143.051 697.747
vn 0.121845 0.972668 -0.197661
v -16.8732 -141.832 699.747
vn 0.495285 0.53739 -0.682572
v -15.7866 -146.402 692.747
vn 0.12172 0.568635 -0.813534
v -17.8732 -146.444 691.747
vn 0.0416478 0.826931 -0.56076
v -18.8732 -144.238 693.747
vn -0.388949 -0.381264 0.838664
v -22.8732 -157.402 718.068
vn -0.487005 -0.679163 0.549148
v -23.8732 -160.973 714.747
vn -0.805982 -0.38491 0.449707
v -27.9279 -157.402 712.747
vn -0.0906968 -0.973652 0.209226
v -21.8732 -163.402 710.429
vn -0.260641 -0.958336 -0.116874
v -23.8732 -162.988 703.747
vn -0.583838 -0.802158 0.125202
v -25.8732 -162.082 708.747
vn -0.663386 -0.739967 -0.111211
v -26.8732 -161.088 703.747
vn -0.792686 -0.549681 0.263628
v -28.0685 -159.402 709.747
vn -0.849891 -0.526689 0.016848
v -28.4904 -159.402 706.747
vn -0.930025 -0.30209 0.209272
v -29.4279 -156.402 709.747
vn -0.502362 -0.812883 -0.29471
v -24.8732 -161.676 699.747
vn -0.808848 -0.54383 -0.223638
v -28.2247 -158.402 699.747
vn -0.267232 -0.442137 -0.856214
v -22.8732 -156.402 691.411
vn -0.563066 -0.600505 -0.567759
v -25.7094 -158.402 694.747
vn -0.180918 0.125902 0.975406
v -22.8732 -151.402 718.849
vn 0.0473663 0.370524 0.927615
v -21.8732 -148.402 718.161
vn -0.354517 -0.121384 0.927137
v -22.8732 -154.852 718.747
vn -0.674548 -0.264232 0.689323
v -25.8732 -155.227 716.747
vn -0.674896 0.0964394 0.731584
v -26.8211 -149.402 716.747
vn -0.897163 -0.121484 0.424665
v -29.3497 -152.402 712.747
vn -0.890283 -0.308645 -0.334864
v -29.0685 -155.402 697.747
vn -0.876148 0.0560393 -0.478774
v -29.1466 -150.402 695.747
vn -0.896639 0.293736 -0.331297
v -29.6466 -148.402 697.747
vn -0.239592 0.0481497 -0.969679
v -22.8732 -151.402 690.302
vn -0.583268 -0.205906 -0.785749
v -25.8732 -153.402 692.068
vn -0.779996 -0.207974 -0.590215
v -27.5529 -153.402 693.747
vn -0.660946 0.164716 -0.732133
v -26.8732 -150.402 692.806
vn 0.0405541 0.629016 0.776334
v -21.8732 -146.402 717.021
vn -0.040947 0.828469 0.558536
v -21.8732 -143.402 713.781
vn -0.329502 0.449758 0.830148
v -24.8732 -147.402 717.224
vn -0.301081 0.728362 0.615499
v -24.8732 -144.66 714.747
vn -0.322907 0.864336 0.385557
v -24.8732 -143.473 712.747
vn -0.522608 0.733513 0.434557
v -25.8732 -144.535 713.747
vn -0.661198 0.523198 0.537663
v -27.1779 -146.402 714.747
vn -0.275572 0.943661 0.183205
v -23.8732 -141.691 708.747
vn -0.543936 0.837608 -0.0504658
v -26.8732 -142.785 703.747
vn -0.675514 0.699706 0.232578
v -27.9435 -144.402 709.747
vn -0.36249 0.868296 -0.338619
v -25.8732 -143.402 698.647
vn -0.699536 0.500241 -0.510302
v -27.5685 -146.402 695.747
vn -0.770079 0.594705 -0.230876
v -28.8732 -145.402 700.071
vn -0.35188 0.574908 -0.738689
v -24.8732 -146.402 693.239
vn -0.96481 -0.26033 -0.0370255
v -30.5685 -154.402 704.747
vn -0.984662 -0.0728838 0.158518
v -30.8029 -151.402 707.747
vn -0.927783 0.242317 0.283726
v -30.0372 -148.402 710.747
vn -0.996223 0.086453 -0.00809636
v -30.9747 -150.402 704.747
vn -0.978577 -0.0272709 -0.204066
v -30.4904 -151.402 699.747
vn -0.884348 0.466707 0.0106347
v -30.0841 -146.402 704.747
vn -0.946187 0.285239 -0.152866
v -30.0685 -147.402 700.747
f 2//2 8//8 1//1
f 8//8 7//7 1//1
f 8//8 3//3 12//12
f 2//2 33//33 3//3
f 2//2 3//3 8//8
f 12//12 3//3 4//4
f 6//6 5//5 7//7
f 5//5 1//1 7//7
f 5//5 24//24 1//1
f 8//8 9//9 7//7
f 11//11 17//17 7//7
f 7//7 9//9 11//11
f 7//7 17//17 6//6
f 9//9 13//13 10//10
f 9//9 10//10 11//11
f 11//11 10//10 19//19
f 12//12 9//9 8//8
f 12//12 13//13 9//9
f 4//4 14//14 13//13
f 13//13 14//14 10//10
f 12//12 4//4 13//13
f 14//14 4//4 15//15
f 44//44 14//14 15//15
f 15//15 45//45 44//44
f 44//44 20//20 14//14
f 17//17 16//16 6//6
f 16//16 18//18 51//51
f 17//17 11//11 19//19
f 18//18 16//16 17//17
f 17//17 19//19 18//18
f 18//18 19//19 52//52
f 10//10 20//20 19//19
f 14//14 20//20 10//10
f 20//20 56//56 19//19
f 58//58 56//56 20//20
f 35//35 32//32 21//21
f 24//24 23//23 1//1
f 23//23 24//24 26//26
f 26//26 24//24 25//25
f 27//27 26//26 25//25
f 27//27 25//25 28//28
f 29//29 23//23 26//26
f 31//31 23//23 29//29
f 27//27 30//30 29//29
f 29//29 26//26 27//27
f 22//22 30//30 28//28
f 30//30 27//27 28//28
f 29//29 64//64 31//31
f 31//31 64//64 21//21
f 32//32 33//33 2//2
f 23//23 2//2 1//1
f 31//31 32//32 2//2
f 23//23 31//31 2//2
f 31//31 21//21 32//32
f 37//37 4//4 3//3
f 3//3 33//33 34//34
f 34//34 37//37 3//3
f 38//38 37//37 34//34
f 35//35 33//33 32//32
f 35//35 34//34 33//33
f 36//36 38//38 34//34
f 36//36 34//34 35//35
f 35//35 65//65 36//36
f 4//4 37//37 15//15
f 38//38 48//48 37//37
f 48//48 38//38 73//73
f 74//74 38//38 36//36
f 39//39 22//22 28//28
f 42//42 39//39 28//28
f 43//43 75//75 39//39
f 5//5 40//40 24//24
f 6//6 40//40 5//5
f 24//24 40//40 25//25
f 40//40 42//42 25//25
f 41//41 40//40 6//6
f 42//42 41//41 43//43
f 42//42 40//40 41//41
f 25//25 42//42 28//28
f 39//39 42//42 43//43
f 43//43 41//41 76//76
f 41//41 88//88 76//76
f 45//45 46//46 44//44
f 20//20 44//44 58//58
f 37//37 45//45 15//15
f 58//58 44//44 47//47
f 48//48 45//45 37//37
f 46//46 45//45 48//48
f 47//47 44//44 46//46
f 49//49 47//47 46//46
f 47//47 49//49 59//59
f 84//84 49//49 46//46
f 101//101 59//59 49//49
f 48//48 84//84 46//46
f 84//84 101//101 49//49
f 84//84 48//48 73//73
f 41//41 16//16 50//50
f 41//41 6//6 16//16
f 51//51 50//50 16//16
f 88//88 41//41 50//50
f 50//50 51//51 54//54
f 89//89 88//88 50//50
f 89//89 50//50 54//54
f 52//52 51//51 18//18
f 51//51 52//52 53//53
f 53//53 52//52 57//57
f 51//51 53//53 54//54
f 95//95 53//53 55//55
f 53//53 57//57 55//55
f 53//53 95//95 54//54
f 19//19 56//56 52//52
f 56//56 57//57 52//52
f 56//56 58//58 60//60
f 57//57 56//56 60//60
f 98//98 57//57 60//60
f 59//59 58//58 47//47
f 58//58 59//59 60//60
f 101//101 60//60 59//59
f 65//65 21//21 64//64
f 30//30 62//62 29//29
f 30//30 61//61 62//62
f 61//61 30//30 22//22
f 29//29 62//62 64//64
f 61//61 78//78 62//62
f 62//62 63//63 68//68
f 64//64 62//62 66//66
f 68//68 66//66 62//62
f 62//62 78//78 63//63
f 63//63 78//78 80//80
f 21//21 65//65 35//35
f 64//64 66//66 65//65
f 66//66 67//67 65//65
f 66//66 69//69 67//67
f 69//69 66//66 68//68
f 69//69 68//68 70//70
f 68//68 63//63 70//70
f 71//71 74//74 36//36
f 71//71 65//65 67//67
f 65//65 71//71 36//36
f 74//74 71//71 72//72
f 71//71 67//67 72//72
f 81//81 74//74 72//72
f 69//69 72//72 67//67
f 69//69 102//102 72//72
f 102//102 81//81 72//72
f 102//102 106//106 81//81
f 38//38 74//74 73//73
f 74//74 86//86 85//85
f 74//74 81//81 86//86
f 77//77 22//22 39//39
f 77//77 39//39 75//75
f 22//22 77//77 61//61
f 75//75 43//43 76//76
f 78//78 61//61 77//77
f 78//78 77//77 79//79
f 79//79 77//77 75//75
f 79//79 75//75 90//90
f 76//76 90//90 75//75
f 78//78 79//79 80//80
f 94//94 79//79 90//90
f 80//80 79//79 104//104
f 81//81 82//82 86//86
f 82//82 83//83 99//99
f 87//87 101//101 84//84
f 85//85 73//73 74//74
f 84//84 73//73 85//85
f 87//87 84//84 85//85
f 87//87 99//99 101//101
f 85//85 86//86 87//87
f 99//99 87//87 82//82
f 86//86 82//82 87//87
f 88//88 90//90 76//76
f 90//90 88//88 91//91
f 91//91 88//88 89//89
f 92//92 91//91 89//89
f 92//92 89//89 54//54
f 94//94 90//90 91//91
f 93//93 94//94 91//91
f 93//93 91//91 92//92
f 93//93 92//92 97//97
f 97//97 94//94 93//93
f 104//104 79//79 94//94
f 94//94 97//97 104//104
f 95//95 55//55 96//96
f 92//92 54//54 95//95
f 97//97 92//92 95//95
f 95//95 96//96 97//97
f 96//96 107//107 97//97
f 104//104 97//97 107//107
f 98//98 55//55 57//57
f 96//96 55//55 98//98
f 99//99 98//98 101//101
f 100//100 98//98 99//99
f 100//100 99//99 83//83
f 98//98 100//100 96//96
f 108//108 107//107 100//100
f 83//83 108//108 100//100
f 96//96 100//100 107//107
f 101//101 98//98 60//60
f 70//70 102//102 69//69
f 80//80 70//70 63//63
f 104//104 103//103 80//80
f 70//70 103//103 102//102
f 70//70 80//80 103//103
f 105//105 104//104 107//107
f 105//105 102//102 103//103
f 106//106 102//102 105//105
f 103//103 104//104 105//105
f 81//81 106//106 82//82
f 83//83 82//82 106//106
f 105//105 107//107 108//108
f 108//108 106//106 105//105
f 83//83 106//106 108//108
