# Wavafront OBJ file of BodyParts3D
# BodyParts3D, Copyright(C) 2010-2011 The Database Center for Life Science licensed under CC Attribution-Share Alike 2.1 Japan.
vn -0.539095 0.823521 0.176603
v 16.944 -81.1485 1549.22
vn 0.164047 0.984129 -0.0676611
v 19.1348 -80.6964 1549.13
vn -0.201233 0.976375 -0.0787187
v 18.0518 -80.7237 1549.02
vn 0.00413015 0.915075 0.403262
v 18.8759 -80.7536 1549.69
vn -0.262045 0.845042 0.466086
v 17.9676 -80.8593 1549.64
vn -0.147354 0.644726 0.750077
v 18.4851 -81.3058 1550.23
vn 0.433962 0.900795 0.0156509
v 19.8405 -80.9414 1549.42
vn 0.296144 0.893228 0.338293
v 19.6698 -80.9594 1549.8
vn 0.545361 0.803793 0.237694
v 20.2739 -81.2445 1549.79
vn 0.63732 0.770055 -0.0289425
v 20.4358 -81.3182 1549.37
vn 0.752345 0.614053 0.238571
v 20.6067 -81.5763 1549.84
vn 0.108057 0.746926 0.656068
v 19.4865 -81.1093 1550.13
vn 0.482103 0.721073 0.497626
v 20.2689 -81.4356 1550.19
vn 0.313815 0.517209 0.79625
v 20.0826 -81.6171 1550.5
vn -0.0871176 0.477676 0.874206
v 19.2625 -81.8231 1550.7
vn 0.742636 0.390389 0.54414
v 20.6108 -81.8362 1550.23
vn -0.224824 0.756039 -0.614703
v 18.0244 -81.7307 1546.95
vn -0.56281 0.751714 -0.34376
v 16.5169 -81.5295 1548.37
vn -0.460736 0.580584 0.671301
v 16.6904 -81.8133 1550.03
vn -0.893935 0.426133 0.13889
v 15.8931 -82.3434 1549.4
vn -0.782925 0.279751 0.555668
v 16.0121 -82.5742 1549.92
vn 0.346487 0.880978 -0.322217
v 19.7433 -81.2151 1547.92
vn 0.0805237 0.827721 -0.555332
v 19.1481 -81.623 1546.96
vn 0.40331 0.754034 -0.518434
v 19.9557 -81.7552 1547.09
vn -0.0798225 0.905432 -0.416919
v 18.4423 -81.0806 1547.9
vn -0.348062 0.297508 0.889012
v 16.6547 -83.1626 1550.65
vn 0.706707 0.663776 -0.24488
v 20.6007 -81.6562 1548.26
vn 0.829988 0.557687 0.010282
v 20.7737 -81.7094 1549.37
vn 0.911137 0.349473 0.218398
v 20.9302 -82.0403 1549.61
vn 0.939342 0.342519 0.0178068
v 21.3241 -82.8441 1548.32
vn 0.0817813 0.198405 0.976702
v 19.7028 -82.7588 1551.07
vn 0.566823 0.125533 0.814219
v 20.2197 -82.7289 1550.88
vn 0.244115 -0.0495605 0.968479
v 19.9695 -83.3988 1550.97
vn 0.893077 -0.0435303 0.447793
v 20.9363 -82.8695 1550.02
vn -0.877043 0.308547 -0.368231
v 15.9625 -82.491 1548.19
vn -0.233349 0.363643 -0.901838
v 18.6179 -83.1865 1545.62
vn -0.493898 0.459763 -0.738026
v 17.5469 -82.5493 1546.42
vn -0.643695 0.127691 0.754554
v 16.2889 -83.7565 1550.59
vn -0.976356 0.0230355 0.214938
v 15.7615 -83.5109 1549.61
vn -0.898283 -0.0525837 0.43626
v 15.9637 -83.9793 1550.16
vn -0.994737 -0.0617513 -0.081764
v 15.7221 -83.8028 1548.77
vn -0.957496 -0.242183 0.156684
v 15.8597 -84.1911 1549.65
vn -0.854006 -0.391419 0.34273
v 16.1728 -84.6933 1550.26
vn 0.0702835 0.663555 -0.744819
v 19.2841 -82.2154 1546.27
vn -0.171088 0.168227 0.970788
v 17.5315 -84.1049 1551.13
vn -0.38963 0.0174336 0.920806
v 17.0213 -84.4547 1551.05
vn -0.717156 -0.12624 0.685384
v 16.3092 -84.4285 1550.63
vn -0.0317163 -0.294715 0.955059
v 17.5448 -84.7817 1551.18
vn -0.559871 -0.415873 0.716654
v 16.6145 -84.9408 1550.74
vn 0.856797 0.450072 -0.251662
v 21.4148 -83.4981 1546.76
vn 0.548449 0.588495 -0.594035
v 20.8892 -83.3642 1545.98
vn 0.93677 0.0961661 0.336472
v 21.6104 -83.8801 1547.62
vn -0.881213 -0.0264757 -0.471978
v 16.32 -84.6029 1546.88
vn -0.891053 -0.453349 0.0223634
v 16.262 -85.5625 1548.17
vn 0.144345 0.372718 -0.916649
v 20.1407 -84.0283 1545.21
vn -0.677824 -0.624669 0.387741
v 16.9952 -85.8441 1550.21
vn -0.214593 -0.680403 0.700715
v 17.1657 -85.8988 1550.3
vn 0.59983 0.369814 -0.709536
v 21.5662 -84.9372 1545.49
vn 0.406647 -0.529719 0.744336
v 18.3227 -85.7363 1550.17
vn 0.748147 -0.307008 0.588236
v 21.0401 -84.8099 1548.4
vn -0.64482 -0.00980874 -0.764272
v 17.4838 -86.0876 1545.52
vn -0.873972 -0.373423 -0.31101
v 16.9384 -86.4592 1546.53
vn 0.916671 0.338347 -0.212689
v 22.2465 -86.0141 1545.82
vn 0.81116 0.167203 0.560413
v 22.3316 -86.9086 1546.88
vn 0.593561 -0.183023 0.783701
v 21.8466 -86.1937 1547.36
vn 0.528501 -0.0481642 0.847565
v 22.0988 -87.395 1547.05
vn -0.338058 -0.0190998 -0.940931
v 19.007 -87.1892 1544.74
vn -0.707041 -0.37799 -0.597676
v 17.8372 -87.5182 1545.66
vn 0.0964313 -0.0480786 -0.994178
v 20.5653 -87.6809 1544.47
vn -0.398501 -0.693843 0.599816
v 18.8079 -88.03 1548.27
vn -0.598559 -0.689444 0.407915
v 18.3675 -88.5032 1547.43
vn 0.610922 0.202494 -0.765356
v 22.3402 -87.8358 1544.95
vn 0.242829 -0.21633 0.94564
v 20.3771 -89.3074 1547.33
vn -0.42309 -0.385138 -0.820161
v 19.5889 -88.8664 1544.91
vn -0.74373 -0.662825 -0.0867674
v 19.5111 -90.2358 1546.28
vn 0.151988 -0.34261 0.927102
v 19.864 -90.049 1547.14
vn 0.840955 0.248089 -0.480881
v 23.5896 -89.4484 1545.9
vn 0.856561 0.124964 0.500687
v 23.6505 -90.0963 1546.17
vn 0.511438 -0.0844685 0.855159
v 23.3749 -90.3032 1546.43
vn 0.804222 0.0800118 -0.588919
v 23.6381 -90.2041 1545.62
vn 0.969914 0.0520718 0.237813
v 23.759 -90.337 1545.9
vn 0.87302 -0.0892143 0.479456
v 23.7101 -90.4107 1546.09
vn 0.487603 -0.0873471 -0.868685
v 23.4473 -90.3349 1545.45
vn 0.799572 -0.15631 -0.579872
v 23.5937 -90.406 1545.59
vn 0.926906 -0.364034 -0.0912427
v 23.6889 -90.7816 1545.94
vn 0.736472 -0.313669 0.599351
v 23.5985 -90.8437 1546.11
vn 0.251517 -0.296535 0.921307
v 22.8193 -90.9374 1546.51
vn 0.457956 -0.351461 0.816548
v 23.2262 -90.9142 1546.36
vn -0.0993645 -0.418781 -0.902635
v 21.7571 -90.9728 1545.3
vn 0.0251397 -0.593948 0.804111
v 21.3424 -91.0928 1546.69
vn -0.444021 -0.662051 -0.603767
v 20.6973 -91.0327 1545.66
vn -0.291772 -0.785154 0.546262
v 21.0235 -91.4364 1546.17
vn 0.649619 -0.32879 -0.685487
v 23.4724 -90.8322 1545.59
vn 0.31121 -0.316756 -0.895999
v 23.0701 -90.9365 1545.42
vn 0.746928 -0.66233 0.0584561
v 23.362 -91.2416 1546.07
vn 0.152059 -0.539935 -0.827858
v 22.7255 -91.2599 1545.48
vn 0.574552 -0.663255 -0.479565
v 23.2646 -91.3177 1545.76
vn 0.278688 -0.604705 0.7461
v 22.9259 -91.2942 1546.29
vn -0.0633578 -0.99676 0.0495539
v 22.8918 -91.5666 1545.94
vn -0.117571 -0.718443 -0.685578
v 21.9005 -91.5175 1545.66
vn 0.622243 -0.440003 0.647465
v 19.9695 -83.3988 1550.97
vn 0.32988 -0.426551 0.84216
v 18.8079 -88.03 1548.27
vn -0.503535 -0.690561 0.519209
v 19.864 -90.049 1547.14
vn 0.915936 0.269762 0.297135
v 23.5896 -89.4484 1545.9
vn 0.913859 -0.0438194 -0.403659
v 23.759 -90.337 1545.9
vn -0.48491 -0.809623 -0.330716
v 21.0235 -91.4364 1546.17
vn -0.0633578 -0.99676 0.0495539
v 21.0235 -91.4364 1546.17
vn 0.464617 -0.558091 0.687507
v 23.362 -91.2416 1546.07
vn 0.145357 -0.803958 0.576649
v 22.8918 -91.5666 1545.94
vn 0.563598 -0.825652 0.0256215
v 22.8918 -91.5666 1545.94
vn 0.175823 -0.78852 -0.589341
v 22.8918 -91.5666 1545.94
vn -0.0633578 -0.99676 0.0495539
v 21.9005 -91.5175 1545.66
f 3//3 18//18 1//1
f 1//1 18//18 20//20
f 20//20 19//19 1//1
f 1//1 19//19 5//5
f 19//19 6//6 5//5
f 8//8 7//7 2//2
f 2//2 4//4 8//8
f 8//8 4//4 12//12
f 3//3 4//4 2//2
f 2//2 25//25 3//3
f 3//3 5//5 4//4
f 5//5 6//6 4//4
f 4//4 6//6 12//12
f 1//1 5//5 3//3
f 19//19 15//15 6//6
f 6//6 15//15 12//12
f 19//19 26//26 15//15
f 8//8 13//13 9//9
f 10//10 22//22 7//7
f 10//10 7//7 9//9
f 9//9 7//7 8//8
f 10//10 9//9 11//11
f 9//9 13//13 11//11
f 11//11 13//13 16//16
f 2//2 7//7 22//22
f 10//10 11//11 28//28
f 27//27 22//22 10//10
f 28//28 27//27 10//10
f 28//28 11//11 29//29
f 16//16 29//29 11//11
f 8//8 12//12 13//13
f 12//12 14//14 13//13
f 12//12 15//15 14//14
f 13//13 14//14 16//16
f 16//16 14//14 32//32
f 18//18 3//3 25//25
f 17//17 25//25 23//23
f 18//18 25//25 17//17
f 18//18 37//37 35//35
f 37//37 18//18 17//17
f 35//35 20//20 18//18
f 20//20 35//35 41//41
f 41//41 39//39 20//20
f 21//21 26//26 19//19
f 21//21 19//19 20//20
f 39//39 21//21 20//20
f 21//21 39//39 40//40
f 26//26 21//21 38//38
f 2//2 22//22 25//25
f 27//27 24//24 22//22
f 23//23 25//25 22//22
f 23//23 22//22 24//24
f 44//44 23//23 24//24
f 30//30 27//27 28//28
f 34//34 29//29 16//16
f 29//29 30//30 28//28
f 15//15 26//26 31//31
f 14//14 15//15 31//31
f 31//31 32//32 14//14
f 32//32 31//31 33//33
f 30//30 29//29 34//34
f 16//16 32//32 34//34
f 34//34 32//32 101//101
f 60//60 34//34 101//101
f 17//17 23//23 44//44
f 44//44 37//37 17//17
f 44//44 36//36 37//37
f 36//36 44//44 55//55
f 37//37 36//36 61//61
f 61//61 53//53 37//37
f 38//38 21//21 40//40
f 38//38 40//40 47//47
f 40//40 39//39 42//42
f 40//40 42//42 43//43
f 43//43 47//47 40//40
f 39//39 41//41 42//42
f 47//47 43//43 49//49
f 54//54 42//42 41//41
f 43//43 42//42 54//54
f 53//53 54//54 41//41
f 44//44 24//24 51//51
f 27//27 51//51 24//24
f 51//51 55//55 44//44
f 45//45 31//31 26//26
f 26//26 38//38 46//46
f 45//45 26//26 46//46
f 46//46 48//48 45//45
f 31//31 45//45 48//48
f 47//47 46//46 38//38
f 31//31 48//48 33//33
f 49//49 46//46 47//47
f 49//49 48//48 46//46
f 59//59 101//101 48//48
f 43//43 56//56 49//49
f 57//57 48//48 49//49
f 48//48 57//57 59//59
f 56//56 57//57 49//49
f 51//51 27//27 50//50
f 30//30 50//50 27//27
f 52//52 50//50 30//30
f 50//50 52//52 63//63
f 52//52 30//30 34//34
f 52//52 34//34 60//60
f 59//59 60//60 101//101
f 61//61 36//36 67//67
f 61//61 62//62 53//53
f 53//53 35//35 37//37
f 35//35 53//53 41//41
f 55//55 67//67 36//36
f 55//55 69//69 67//67
f 56//56 43//43 54//54
f 51//51 50//50 58//58
f 51//51 58//58 55//55
f 65//65 60//60 59//59
f 58//58 50//50 63//63
f 60//60 65//65 52//52
f 62//62 61//61 68//68
f 62//62 54//54 53//53
f 56//56 71//71 57//57
f 69//69 55//55 58//58
f 72//72 69//69 58//58
f 70//70 57//57 71//71
f 66//66 65//65 73//73
f 102//102 59//59 57//57
f 102//102 65//65 59//59
f 63//63 52//52 64//64
f 65//65 66//66 52//52
f 63//63 72//72 58//58
f 52//52 66//66 64//64
f 72//72 63//63 77//77
f 104//104 63//63 64//64
f 61//61 67//67 68//68
f 69//69 74//74 67//67
f 62//62 68//68 75//75
f 75//75 54//54 62//62
f 56//56 54//54 71//71
f 75//75 71//71 54//54
f 102//102 73//73 65//65
f 76//76 73//73 102//102
f 71//71 103//103 70//70
f 68//68 67//67 74//74
f 75//75 68//68 74//74
f 75//75 74//74 91//91
f 103//103 75//75 92//92
f 103//103 71//71 75//75
f 76//76 90//90 73//73
f 104//104 64//64 78//78
f 80//80 72//72 77//77
f 78//78 81//81 104//104
f 78//78 79//79 82//82
f 78//78 64//64 79//79
f 64//64 66//66 79//79
f 81//81 78//78 82//82
f 80//80 77//77 105//105
f 83//83 69//69 72//72
f 83//83 72//72 80//80
f 83//83 80//80 84//84
f 84//84 80//80 105//105
f 85//85 84//84 105//105
f 81//81 82//82 85//85
f 85//85 82//82 86//86
f 82//82 79//79 86//86
f 79//79 88//88 86//86
f 83//83 94//94 69//69
f 84//84 93//93 83//83
f 84//84 85//85 93//93
f 85//85 86//86 95//95
f 86//86 88//88 108//108
f 98//98 108//108 88//88
f 66//66 73//73 79//79
f 79//79 87//87 88//88
f 73//73 87//87 79//79
f 87//87 73//73 90//90
f 98//98 88//88 87//87
f 69//69 89//89 74//74
f 91//91 106//106 75//75
f 103//103 92//92 90//90
f 91//91 74//74 89//89
f 91//91 89//89 100//100
f 91//91 100//100 106//106
f 107//107 112//112 99//99
f 94//94 83//83 93//93
f 96//96 69//69 94//94
f 97//97 96//96 94//94
f 93//93 97//97 94//94
f 97//97 93//93 85//85
f 97//97 85//85 95//95
f 109//109 108//108 98//98
f 69//69 96//96 89//89
f 97//97 95//95 110//110
f 96//96 100//100 89//89
f 100//100 96//96 111//111
f 96//96 97//97 111//111
f 90//90 98//98 87//87
f 109//109 90//90 92//92
f 109//109 98//98 90//90
