# Wavafront OBJ file of BodyParts3D
# BodyParts3D, Copyright(C) 2010-2011 The Database Center for Life Science licensed under CC Attribution-Share Alike 2.1 Japan.
vn -0.971143 -0.157108 -0.179438
v -2.06159 -88.3238 1552.64
vn -0.96792 0.217753 0.125358
v -2.06529 -88.2454 1552.74
vn -0.80181 -0.453281 -0.389406
v -1.96775 -88.388 1552.45
vn -0.774495 -0.552076 -0.308818
v -2.04764 -88.6241 1552.87
vn -0.792121 -0.605079 0.0801452
v -2.05629 -88.6353 1552.96
vn -0.949213 -0.2472 -0.194644
v -2.08483 -88.536 1552.88
vn -0.986877 -0.151844 0.054922
v -2.09067 -88.5471 1552.97
vn -0.825089 -0.240121 0.511439
v -2.06983 -88.5573 1553.06
vn -0.998784 0.0313149 -0.0380792
v -2.09111 -88.4469 1552.89
vn -0.971812 0.14158 0.188511
v -2.08712 -88.4576 1552.98
vn -0.864939 0.188103 0.465293
v -2.05925 -88.4675 1553.07
vn -0.858867 0.376304 0.347481
v -2.05828 -88.3671 1552.99
vn -0.502038 -0.337408 0.796313
v -1.95581 -88.564 1553.15
vn -0.726597 0.185172 0.66164
v -1.95757 -88.3853 1553.17
vn -0.538017 -0.81104 -0.229677
v -1.93179 -88.7268 1552.86
vn -0.361441 -0.905584 0.221987
v -1.93348 -88.7363 1552.95
vn -0.400598 -0.685256 0.608232
v -1.93998 -88.6471 1553.1
vn -0.964675 -0.211445 -0.157142
v -2.07614 -87.446 1551.38
vn -0.999604 0.0100552 0.0262956
v -2.07499 -87.7009 1551.99
vn -0.87163 -0.399275 -0.284324
v -2.03107 -87.9829 1552.08
vn -0.77568 -0.541035 -0.324965
v -1.97671 -86.488 1549.51
vn -0.965821 -0.213271 -0.147329
v -2.03078 -86.4053 1549.56
vn -0.900177 -0.366837 -0.23476
v -2.03444 -87.1052 1550.83
vn -0.965659 0.23088 0.119152
v -2.07672 -87.1778 1551.42
vn -0.999463 0.00340442 -0.0325934
v -2.06502 -87.0337 1550.98
vn -0.927219 0.33817 0.160951
v -2.0447 -86.9227 1550.99
vn -0.836277 0.446164 0.318715
v -2.03362 -87.198 1551.6
vn -0.702042 -0.665926 -0.252348
v -1.83067 -84.1264 1537.1
vn -0.667719 -0.734096 -0.123509
v -1.87917 -85.0047 1544.61
vn -0.800683 -0.586733 -0.121039
v -1.99302 -85.1814 1546.22
vn -0.976076 -0.205473 -0.0711063
v -1.98896 -85.5667 1547.9
vn -0.678634 -0.682239 -0.272041
v -1.91911 -85.6536 1547.89
vn -0.879642 -0.410003 -0.241097
v -1.97756 -86.0435 1548.84
vn -0.632049 -0.667097 -0.39433
v -1.90906 -86.1304 1548.83
vn -0.985134 0.162631 0.0553295
v -2.04059 -86.2356 1549.72
vn -0.800662 0.539922 0.259663
v -1.90927 -86.0821 1549.92
vn -0.490885 -0.207064 -0.84626
v -1.9395 -83.9702 1537.03
vn -0.971859 -0.223125 -0.0755341
v -2.0113 -83.8049 1537.14
vn -0.640255 0.0469005 -0.76673
v -2.02417 -83.705 1537.06
vn -0.9165 0.399759 0.0148498
v -1.98002 -83.5573 1537.35
vn -0.298105 -0.0972198 -0.949569
v -1.92755 -83.8758 1537
vn -0.308146 0.113961 -0.944489
v -1.85351 -83.4163 1536.98
vn -0.712577 0.238176 -0.659929
v -1.85797 -83.3187 1537.02
vn -0.914452 -0.401888 -0.0475788
v -2.01212 -84.1009 1538.83
vn -0.993297 0.114251 0.0175398
v -2.05646 -84.1822 1541.72
vn -0.768027 0.636776 0.0682013
v -1.91705 -83.8329 1541.13
vn -0.947805 0.31557 0.0456208
v -1.9947 -84.2645 1543.16
vn -0.821455 -0.562906 -0.0913654
v -1.94687 -84.6095 1543.03
vn -0.987836 -0.153158 -0.0268963
v -2.01608 -84.455 1543.23
vn -0.994546 0.104146 0.00561611
v -2.05133 -84.5976 1544.39
vn -0.791421 0.601225 0.11037
v -1.97701 -84.427 1544.5
vn -0.958389 -0.279018 -0.0603208
v -2.0254 -84.8081 1544.63
vn -0.987477 0.148266 0.0539156
v -2.04934 -84.8935 1546.07
vn -0.767269 0.617065 0.174727
v -1.97341 -84.834 1546.35
vn -0.811436 0.546788 0.206383
v -1.88765 -85.3274 1548.2
vn -0.218743 -0.966267 -0.135941
v -1.65634 -88.8107 1552.77
vn -0.019789 -0.977318 -0.210852
v -1.29373 -88.8203 1552.68
vn -0.00966872 -0.988571 0.150446
v -1.47786 -88.8221 1552.86
vn -0.631093 -0.62819 -0.455081
v -1.8409 -88.2448 1552.06
vn -0.525932 -0.722297 -0.449091
v -1.83828 -88.6572 1552.6
vn -0.241921 -0.843225 -0.480048
v -1.47198 -88.6561 1552.33
vn -0.0937067 -0.797229 0.596359
v -1.84663 -88.7071 1553.05
vn -0.625114 0.530827 0.572237
v -1.86792 -88.1595 1553.11
vn -0.470702 -0.164904 0.866745
v -1.72869 -88.3093 1553.37
vn -0.0609208 -0.9023 0.426782
v -1.57136 -88.7861 1552.95
vn -0.470634 0.615449 0.63224
v -1.60248 -88.22 1553.42
vn -0.222137 -0.361 0.905723
v -1.50991 -88.3152 1553.46
vn -0.126047 -0.843419 -0.522261
v -1.20209 -87.3283 1550.23
vn -0.780246 0.493904 0.383765
v -1.87189 -87.7401 1552.62
vn -0.511963 0.682886 0.521114
v -1.61214 -87.4732 1552.66
vn -0.252299 0.723907 0.642109
v -1.4348 -87.4025 1552.67
vn -0.539441 -0.800957 -0.259753
v -1.37407 -86.0872 1547.9
vn -0.372322 -0.82783 -0.419612
v -1.38188 -86.5959 1549.05
vn -0.597567 -0.676732 -0.430054
v -1.74869 -86.9011 1549.82
vn -0.111177 -0.168667 -0.979383
v -1.64495 -84.2302 1537.02
vn -0.265391 -0.433324 -0.861277
v -1.41561 -84.4985 1537.06
vn -0.621541 -0.762551 -0.179449
v -1.45795 -84.5019 1537.15
vn -0.527836 -0.84427 -0.092721
v -1.57888 -85.0399 1543.34
vn -0.487561 -0.865713 -0.113245
v -1.50365 -85.2934 1544.4
vn -0.484449 -0.856672 -0.177262
v -1.61394 -85.3014 1545.31
vn -0.618659 0.712868 0.330273
v -1.61154 -85.744 1549.88
vn -0.347207 0.847311 0.401884
v -1.26022 -85.569 1550
vn -0.75046 0.577005 0.322298
v -1.86298 -86.3353 1550.53
vn -0.532228 0.729456 0.429684
v -1.5268 -86.0833 1550.65
vn -0.241413 0.819967 0.519013
v -1.26194 -86.0536 1550.84
vn -0.523661 0.827732 0.201593
v -1.5748 -84.462 1546.41
vn -0.567946 0.783118 0.253305
v -1.50084 -84.6361 1547.2
vn -0.318386 0.905832 0.27946
v -1.23532 -84.5176 1547.22
vn -0.471052 0.824317 0.314024
v -1.51443 -85.1905 1548.69
vn -0.423628 0.897356 0.123663
v -1.06508 -82.8154 1537.01
vn -0.493926 0.866171 0.0760551
v -1.54227 -83.2249 1538.49
vn -0.425233 0.899362 0.101614
v -1.40514 -83.4494 1541.09
vn -0.57487 0.812419 0.0974692
v -1.59014 -83.5872 1541.53
vn -0.396904 0.903248 0.163127
v -1.3767 -83.9801 1544.75
vn -0.00653759 -0.998034 -0.0623264
v -0.754603 -88.791 1552.69
vn -0.0328645 -0.907965 -0.417755
v -0.658918 -88.6717 1552.26
vn -0.00448155 -0.907498 0.420033
v -0.672452 -88.7466 1552.97
vn -0.00911236 -0.59258 0.80546
v -0.706078 -88.2062 1553.59
vn -0.151718 -0.0560632 0.986833
v -0.800436 -88.0882 1553.6
vn -0.00516332 0.709987 0.704195
v -0.711798 -87.9992 1553.52
vn 0.111563 0.194599 0.974518
v -0.619606 -88.1135 1553.61
vn -0.521908 -0.836144 -0.168748
v -0.902434 -84.8939 1537.12
vn -0.257934 -0.594499 -0.761604
v -0.718641 -84.9891 1537.11
vn -0.372193 -0.920203 -0.121241
v -0.720106 -85.0043 1537.2
vn -0.176056 -0.425873 -0.887489
v -0.719882 -84.9246 1537.06
vn -0.080486 -0.496282 -0.864423
v -0.536523 -85.0413 1537.11
vn 0.132387 -0.213306 -0.967974
v -0.45 -84.914 1537.06
vn -0.48919 -0.867944 -0.0858276
v -0.910642 -84.9471 1537.56
vn -0.186424 -0.979984 -0.069836
v -0.635951 -85.0643 1537.55
vn 0.306091 -0.948846 -0.0774541
v -0.455518 -85.0732 1537.56
vn 0.652631 -0.749549 -0.110679
v -0.277411 -84.9165 1537.4
vn 0.231182 -0.970679 -0.0658483
v -0.47242 -85.1144 1538.37
vn 0.527311 -0.846778 -0.0700794
v -0.389292 -85.0951 1538.64
vn 0.0988232 -0.992767 -0.0681681
v -0.487965 -85.1904 1539.17
vn 0.518082 -0.854296 -0.0420669
v -0.39886 -85.1662 1539.18
vn 0.580295 -0.814163 -0.019927
v -0.417226 -85.1698 1539.99
vn 0.113335 -0.991656 -0.061434
v -0.515244 -85.2291 1540.44
vn 0.470327 -0.877294 -0.0956396
v -0.426248 -85.2021 1540.44
vn 0.419654 -0.901951 -0.101857
v -0.351224 -85.2917 1541.25
vn -0.175981 -0.976429 -0.124968
v -0.559541 -85.4117 1542.68
vn 0.300303 -0.947054 -0.113609
v -0.378399 -85.3859 1542.6
vn -0.102016 -0.984601 -0.141963
v -0.584823 -85.6603 1544.19
vn 0.40624 -0.901592 -0.148662
v -0.406943 -85.6564 1544.29
vn -0.192285 -0.945506 -0.262764
v -0.44175 -86.1359 1546.59
vn -0.318403 -0.905802 -0.279539
v -0.902693 -86.3538 1548
vn -0.0870883 -0.961281 -0.261447
v -0.45834 -86.3966 1547.73
vn -0.170135 0.805568 0.567551
v -1.17199 -86.3684 1551.35
vn -0.0817058 0.941212 0.327785
v -0.711917 -84.8241 1548.46
vn 0.0365067 0.887654 0.459061
v -0.544185 -85.4579 1550.02
vn -0.15879 0.390738 -0.906703
v -0.973045 -82.834 1536.95
vn -0.0825927 0.667288 -0.740206
v -0.798311 -82.729 1537.02
vn 0.0130746 -0.00978659 -0.999867
v -0.613219 -82.82 1536.95
vn 0.0538719 0.70104 -0.711084
v -0.618637 -82.7183 1537.03
vn 0.0287662 0.990217 0.136542
v -0.625486 -82.7536 1537.38
vn 0.0343616 0.0753439 -0.996565
v -0.343523 -82.8106 1536.96
vn -0.205137 0.971552 0.118346
v -1.00767 -83.0336 1538.79
vn -0.145824 0.979002 0.142446
v -1.08933 -83.683 1543.43
vn -0.0720584 0.98348 0.166054
v -0.843221 -83.8581 1544.77
vn -0.119482 0.964939 0.2337
v -0.858773 -84.0397 1545.75
vn 0.133891 0.97035 0.20123
v -0.585486 -84.0151 1545.57
vn -0.023986 -0.951926 -0.305387
v -0.130248 -88.7687 1552.44
vn 0.00506939 -0.855776 -0.517322
v -0.028462 -87.8824 1551
vn 0.33073 -0.799547 -0.50134
v 0.151266 -87.8731 1551.01
vn 0.0494798 -0.856583 -0.513631
v -0.117456 -88.5328 1551.99
vn 0.157949 -0.385233 0.909202
v 0.203208 -88.3311 1553.42
vn 0.31375 0.100159 0.944208
v 0.199405 -88.244 1553.45
vn -0.00541289 -0.907426 -0.420178
v -0.024661 -87.0814 1549.56
vn 0.542688 -0.742142 -0.393339
v 0.241941 -87.0963 1549.75
vn 0.241566 0.756594 0.607627
v -0.085051 -87.4317 1552.78
vn 0.429047 0.708756 0.559985
v 0.187484 -87.282 1552.44
vn 0.0333127 0.765545 0.642519
v -0.444967 -87.6916 1553.18
vn 0.132875 0.652006 0.74648
v -0.170072 -87.9851 1553.44
vn 0.229688 0.699116 0.677111
v -0.08041 -87.9211 1553.36
vn 0.271097 0.491854 0.827397
v 0.012778 -88.0709 1553.46
vn 0.406647 0.603132 0.6862
v 0.207965 -88.0497 1553.35
vn 0.482582 -0.848558 -0.216941
v -0.15686 -85.6695 1545.2
vn -0.0452231 -0.978711 -0.200198
v -0.341545 -85.8685 1545.71
vn 0.169788 -0.9525 -0.252817
v -0.262996 -86.171 1546.7
vn 0.520287 -0.82215 -0.231024
v -0.089034 -86.1555 1546.95
vn 0.299248 -0.908699 -0.291062
v -0.188693 -86.3841 1547.74
vn 0.0542504 0.818281 0.572253
v -0.272209 -86.4946 1551.6
vn 0.343462 0.765564 0.544009
v 0.000141 -86.5668 1551.62
vn 0.657556 -0.670605 -0.34338
v 0.423505 -84.2051 1537.13
vn 0.473797 0.793812 0.381285
v 0.002532 -85.7295 1550.18
vn 0.273948 0.824631 0.49491
v -0.091763 -86.2018 1551.12
vn 0.519274 0.733056 0.439299
v 0.183636 -86.2843 1551.02
vn 0.425672 0.875783 0.227613
v -0.050347 -84.359 1546.36
vn 0.475514 0.837583 0.268962
v 0.022968 -84.8276 1547.84
vn 0.242126 0.917266 0.316224
v -0.350728 -84.9029 1548.55
vn 0.449382 0.833314 0.321939
v -0.172536 -85.1185 1548.98
vn 0.28429 0.870791 0.401126
v -0.27008 -85.4015 1549.76
vn 0.253072 0.725912 -0.639536
v -0.255764 -82.7876 1537.02
vn 0.127979 0.224062 -0.966135
v 0.022871 -82.9777 1536.96
vn 0.570031 0.811396 0.129233
v 0.201418 -83.0194 1537.09
vn 0.570553 0.809502 0.138476
v 0.295283 -83.0627 1537
vn 0.631461 0.75151 0.191023
v 0.389153 -83.16 1537.08
vn 0.30613 0.942945 0.130916
v 0.024908 -83.5451 1541.74
vn 0.126575 0.984719 0.119614
v -0.344377 -83.4695 1542.02
vn 0.249584 0.955928 0.154628
v -0.273106 -83.6212 1543.09
vn 0.357797 0.914532 0.18871
v -0.220493 -84.086 1545.48
vn 0.205321 0.945094 0.254247
v -0.32455 -84.2544 1546.36
vn 0.195727 -0.916968 -0.34765
v 0.507232 -88.875 1552.8
vn 0.568938 -0.755341 -0.325222
v 0.595794 -88.8369 1552.8
vn 0.105338 -0.975263 0.194333
v 0.505547 -88.8845 1552.89
vn 0.12194 -0.798943 0.588914
v 0.590797 -88.8141 1552.99
vn 0.538648 -0.823086 0.179969
v 0.768409 -88.7504 1553
vn 0.871667 -0.340157 -0.35283
v 0.884766 -88.5073 1552.85
vn 0.996445 0.0842475 -0.00019974
v 0.906583 -88.4171 1552.86
vn 0.911242 -0.327027 -0.250382
v 0.919567 -87.9829 1552.28
vn 0.841505 0.416228 0.344418
v 0.895231 -88.0055 1552.46
vn 0.215949 -0.365525 0.905405
v 0.383783 -88.3196 1553.38
vn 0.509743 0.413676 0.754344
v 0.380948 -88.2261 1553.36
vn 0.564292 0.294774 0.771157
v 0.474093 -88.2872 1553.32
vn 0.634697 0.539238 0.553518
v 0.564531 -88.1945 1553.16
vn 0.265492 -0.534662 0.802278
v 0.760961 -88.6395 1553.15
vn 0.469118 -0.117906 0.875229
v 0.756954 -88.5538 1553.19
vn 0.751814 -0.554435 -0.3569
v 0.855544 -88.6228 1552.93
vn 0.767238 -0.631099 -0.114283
v 0.890596 -88.6182 1553.02
vn 0.703109 -0.680915 0.204923
v 0.851593 -88.6314 1553.11
vn 0.831273 -0.39707 -0.388999
v 0.928094 -88.5166 1552.94
vn 0.906402 0.143092 0.397442
v 0.903984 -88.5283 1553.03
vn 0.682052 0.146152 0.716551
v 0.848096 -88.5423 1553.13
vn 0.870055 0.380586 0.313302
v 0.889498 -88.4286 1552.95
vn 0.73734 0.482379 0.472906
v 0.848528 -88.4409 1553.04
vn 0.781378 -0.522777 -0.340812
v 0.674085 -87.1601 1550.65
vn 0.908387 -0.348593 -0.230901
v 0.843317 -87.1112 1551.06
vn 0.87625 0.405165 0.260821
v 0.894375 -87.683 1552.04
vn 0.546002 0.617092 0.566638
v 0.386082 -88.0215 1553.17
vn 0.880077 -0.427486 -0.206691
v 0.80954 -86.6205 1550
vn 0.989053 -0.132382 -0.0651805
v 0.834911 -86.4408 1550.02
vn 0.813895 0.514517 0.269904
v 0.7708 -86.3646 1550.12
vn 0.686145 0.617076 0.385256
v 0.679398 -86.978 1551.4
vn 0.829923 0.486924 0.272272
v 0.774209 -86.9419 1551.13
vn 0.599427 0.644655 0.474454
v 0.462943 -87.1505 1552
vn 0.415119 -0.44993 -0.790721
v 0.613991 -83.9673 1537.08
vn 0.814037 -0.577855 -0.0585456
v 0.582956 -84.1098 1538.24
vn 0.665063 -0.738974 -0.107744
v 0.539208 -84.4527 1540.37
vn 0.708351 -0.699076 -0.0976252
v 0.605427 -84.5801 1541.63
vn 0.658571 -0.737927 -0.147475
v 0.641033 -85.0306 1544.75
vn 0.885541 -0.457067 -0.0831075
v 0.776764 -84.9183 1544.94
vn 0.850159 -0.512386 -0.121202
v 0.745161 -85.0741 1545.47
vn 0.971646 -0.228234 -0.0617575
v 0.789232 -84.9939 1545.57
vn 0.988688 0.140236 0.0532018
v 0.820693 -85.1015 1546.46
vn 0.733472 -0.650405 -0.197466
v 0.740287 -85.4161 1546.79
vn 0.982767 -0.17713 -0.0528617
v 0.804028 -85.3353 1546.89
vn 0.654464 -0.707887 -0.265654
v 0.689655 -85.8687 1547.91
vn 0.897448 -0.409173 -0.164818
v 0.837976 -85.7545 1548.11
vn 0.679001 0.691126 0.247593
v 0.665758 -85.4143 1548.24
vn 0.981532 0.182964 0.0558458
v 0.863541 -85.8079 1548.55
vn 0.639731 0.706441 0.302795
v 0.660403 -85.68 1548.93
vn 0.823214 0.522446 0.222192
v 0.816274 -85.8531 1548.91
vn 0.648427 0.674381 0.353204
v 0.484769 -86.2396 1550.49
vn 0.0337536 -0.00977893 -0.999382
v 0.488573 -83.4162 1536.98
vn 0.628437 0.19248 -0.75367
v 0.559005 -83.3326 1537.06
vn 0.153869 0.207624 -0.966031
v 0.481585 -83.2245 1536.98
vn 0.957961 -0.256816 -0.127893
v 0.680806 -83.8222 1537.1
vn 0.117572 -0.144204 -0.982539
v 0.67806 -83.6826 1536.99
vn 0.472142 0.319708 -0.821504
v 0.697273 -83.5958 1537.03
vn 0.992209 -0.124252 0.00914616
v 0.650928 -83.9068 1538.08
vn 0.975344 0.216857 0.0409593
v 0.641174 -83.7284 1538.1
vn 0.817849 0.565291 0.107565
v 0.571684 -83.5194 1537.86
vn 0.982079 0.188337 -0.00702289
v 0.682796 -83.9552 1539.98
vn 0.77745 0.625609 0.0646971
v 0.563118 -83.8109 1540.99
vn 0.84481 -0.529569 -0.076504
v 0.731471 -84.3412 1540.93
vn 0.997502 -0.057058 -0.0416451
v 0.761718 -84.2507 1540.94
vn 0.940343 0.339256 0.0257206
v 0.741678 -84.0944 1541.14
vn 0.567905 0.813634 0.124436
v 0.380322 -83.8455 1542.44
vn 0.786988 0.613157 0.0684727
v 0.641429 -84.0823 1542.5
vn 0.99013 -0.135423 -0.0360988
v 0.766033 -84.381 1542.02
vn 0.937582 0.347285 0.0182339
v 0.734026 -84.1926 1541.95
vn 0.864461 0.500218 0.0498842
v 0.787063 -84.3428 1543.2
vn 0.777537 0.620094 0.104497
v 0.726404 -84.2883 1543.48
vn 0.964075 -0.259797 -0.0553563
v 0.83031 -84.5309 1543.27
vn 0.959248 0.280681 0.0325748
v 0.828243 -84.4416 1543.28
vn 0.58092 0.797653 0.162115
v 0.614015 -84.5098 1545.26
vn 0.614634 0.76164 0.205253
v 0.598945 -84.6885 1546.06
vn 0.819632 0.558464 0.127751
v 0.714916 -84.761 1545.87
vn 0.993703 0.110612 0.0178416
v 0.802169 -84.9258 1545.76
vn 0.896365 0.430516 0.105762
v 0.792158 -85.0023 1546.38
vn 0.838744 0.518933 0.164978
v 0.736009 -85.0696 1546.92
vn 0.615322 0.751896 0.236712
v 0.58028 -85.1073 1547.55
vn -0.845646 -0.485481 -0.221793
v -1.9395 -83.9702 1537.03
vn -0.996118 0.0569964 -0.0670911
v -2.02417 -83.705 1537.06
vn -0.689402 0.722986 0.0448996
v -1.85797 -83.3187 1537.02
vn -0.31995 0.464786 -0.825594
v -1.85797 -83.3187 1537.02
vn -0.637992 0.46818 0.611371
v -1.72869 -88.3093 1553.37
vn -0.312415 0.0926267 0.945419
v -1.60248 -88.22 1553.42
vn -0.575197 -0.605413 -0.550112
v -1.64495 -84.2302 1537.02
vn -0.601409 -0.687396 -0.407177
v -1.41561 -84.4985 1537.06
vn -0.30148 0.676801 -0.671603
v -1.06508 -82.8154 1537.01
vn -0.125763 0.694994 0.707932
v -0.800436 -88.0882 1553.6
vn -0.341323 -0.569096 -0.748083
v -0.902434 -84.8939 1537.12
vn -0.368306 -0.9157 -0.160763
v -0.718641 -84.9891 1537.11
vn -0.18902 -0.975597 -0.111719
v -0.536523 -85.0413 1537.11
vn 0.592813 -0.726908 -0.346666
v -0.536523 -85.0413 1537.11
vn -0.182175 0.975323 0.12473
v -0.798311 -82.729 1537.02
vn -0.00269789 0.60634 -0.795201
v -0.613219 -82.82 1536.95
vn 0.062857 0.99286 0.101378
v -0.618637 -82.7183 1537.03
vn 0.153459 0.716214 -0.6808
v -0.343523 -82.8106 1536.96
vn 0.327167 0.939632 0.100265
v -0.255764 -82.7876 1537.02
vn 0.285209 0.541545 -0.790813
v 0.295283 -83.0627 1537
vn 0.476379 0.177694 0.861097
v 0.383783 -88.3196 1553.38
vn 0.937207 -0.173264 0.302694
v 0.890596 -88.6182 1553.02
vn 0.320663 -0.754017 0.573265
v 0.851593 -88.6314 1553.11
vn 0.410916 -0.184468 0.892816
v 0.851593 -88.6314 1553.11
vn 0.896243 -0.12549 0.425441
v 0.851593 -88.6314 1553.11
vn 0.896502 0.364537 0.251786
v 0.928094 -88.5166 1552.94
vn 0.957414 -0.168662 0.234334
v 0.928094 -88.5166 1552.94
vn 0.948437 0.283147 0.142457
v 0.843317 -87.1112 1551.06
vn 0.892867 0.396671 0.21317
v 0.834911 -86.4408 1550.02
vn 0.864302 -0.470511 -0.177769
v 0.613991 -83.9673 1537.08
vn 0.571684 0.226527 -0.788583
v 0.488573 -83.4162 1536.98
vn 0.825543 0.552311 0.11589
v 0.559005 -83.3326 1537.06
vn 0.698826 0.700231 0.14601
v 0.481585 -83.2245 1536.98
vn 0.736547 0.0268498 -0.675853
v 0.481585 -83.2245 1536.98
vn 0.920119 -0.23105 -0.316224
v 0.67806 -83.6826 1536.99
vn 0.451473 0.28941 -0.844046
v 0.67806 -83.6826 1536.99
vn 0.988488 0.150237 0.0178877
v 0.697273 -83.5958 1537.03
f 3//3 20//20 59//59
f 1//1 20//20 3//3
f 3//3 4//4 6//6
f 3//3 6//6 1//1
f 6//6 9//9 1//1
f 1//1 9//9 2//2
f 60//60 15//15 4//4
f 60//60 4//4 3//3
f 15//15 60//60 56//56
f 59//59 60//60 3//3
f 4//4 5//5 6//6
f 5//5 7//7 6//6
f 5//5 8//8 7//7
f 6//6 7//7 9//9
f 7//7 10//10 9//9
f 7//7 8//8 10//10
f 8//8 11//11 10//10
f 8//8 14//14 11//11
f 9//9 10//10 2//2
f 10//10 12//12 2//2
f 14//14 12//12 11//11
f 11//11 12//12 10//10
f 2//2 12//12 69//69
f 15//15 16//16 5//5
f 4//4 15//15 5//5
f 5//5 16//16 17//17
f 17//17 8//8 5//5
f 17//17 13//13 8//8
f 14//14 8//8 13//13
f 14//14 63//63 12//12
f 69//69 12//12 63//63
f 56//56 16//16 15//15
f 62//62 17//17 16//16
f 64//64 14//14 13//13
f 63//63 14//14 266//266
f 23//23 18//18 25//25
f 18//18 23//23 74//74
f 20//20 19//19 18//18
f 18//18 24//24 25//25
f 18//18 19//19 24//24
f 25//25 24//24 26//26
f 74//74 20//20 18//18
f 19//19 20//20 1//1
f 74//74 59//59 20//20
f 1//1 2//2 19//19
f 19//19 2//2 27//27
f 2//2 69//69 27//27
f 33//33 34//34 21//21
f 21//21 22//22 33//33
f 23//23 25//25 22//22
f 22//22 25//25 35//35
f 74//74 23//23 21//21
f 22//22 21//21 23//23
f 26//26 35//35 25//25
f 24//24 19//19 27//27
f 24//24 27//27 83//83
f 26//26 24//24 83//83
f 83//83 27//27 70//70
f 41//41 75//75 37//37
f 268//268 28//28 262//262
f 107//107 75//75 41//41
f 262//262 28//28 44//44
f 44//44 28//28 48//48
f 28//28 78//78 48//48
f 30//30 29//29 80//80
f 31//31 53//53 30//30
f 35//35 55//55 31//31
f 30//30 32//32 31//31
f 31//31 33//33 35//35
f 34//34 33//33 32//32
f 33//33 31//31 32//32
f 33//33 22//22 35//35
f 36//36 55//55 35//35
f 35//35 26//26 36//36
f 36//36 26//26 83//83
f 39//39 41//41 37//37
f 262//262 38//38 263//263
f 42//42 41//41 39//39
f 38//38 45//45 263//263
f 45//45 40//40 263//263
f 43//43 42//42 39//39
f 263//263 40//40 264//264
f 107//107 41//41 42//42
f 107//107 42//42 130//130
f 130//130 42//42 265//265
f 262//262 44//44 38//38
f 38//38 44//44 45//45
f 264//264 40//40 46//46
f 45//45 46//46 40//40
f 91//91 264//264 46//46
f 48//48 49//49 44//44
f 44//44 49//49 45//45
f 49//49 47//47 45//45
f 46//46 45//45 47//47
f 46//46 47//47 51//51
f 48//48 52//52 49//49
f 52//52 50//50 49//49
f 49//49 50//50 47//47
f 47//47 50//50 51//51
f 52//52 53//53 50//50
f 50//50 53//53 51//51
f 30//30 48//48 29//29
f 52//52 48//48 30//30
f 30//30 53//53 52//52
f 53//53 54//54 51//51
f 31//31 55//55 53//53
f 55//55 54//54 53//53
f 61//61 96//96 57//57
f 57//57 56//56 61//61
f 56//56 58//58 65//65
f 57//57 58//58 56//56
f 95//95 57//57 96//96
f 95//95 58//58 57//57
f 61//61 59//59 74//74
f 60//60 59//59 61//61
f 61//61 74//74 68//68
f 61//61 68//68 96//96
f 56//56 60//60 61//61
f 67//67 13//13 17//17
f 64//64 13//13 67//67
f 65//65 16//16 56//56
f 62//62 67//67 17//17
f 16//16 65//65 62//62
f 266//266 66//66 63//63
f 267//267 64//64 67//67
f 99//99 267//267 67//67
f 71//71 63//63 66//66
f 71//71 66//66 271//271
f 65//65 98//98 62//62
f 97//97 65//65 58//58
f 97//97 98//98 65//65
f 68//68 74//74 73//73
f 69//69 63//63 70//70
f 63//63 71//71 70//70
f 27//27 69//69 70//70
f 102//102 108//108 77//77
f 32//32 73//73 34//34
f 73//73 72//72 125//125
f 72//72 73//73 32//32
f 34//34 74//74 21//21
f 34//34 73//73 74//74
f 70//70 71//71 127//127
f 127//127 71//71 151//151
f 105//105 272//272 76//76
f 269//269 102//102 77//77
f 269//269 28//28 268//268
f 76//76 75//75 105//105
f 105//105 75//75 107//107
f 77//77 28//28 269//269
f 78//78 28//28 77//77
f 78//78 77//77 108//108
f 108//108 109//109 78//78
f 29//29 48//48 78//78
f 79//79 29//29 78//78
f 120//120 79//79 78//78
f 120//120 122//122 79//79
f 80//80 29//29 79//79
f 80//80 72//72 30//30
f 30//30 72//72 32//32
f 36//36 81//81 55//55
f 83//83 81//81 36//36
f 81//81 82//82 89//89
f 81//81 83//83 84//84
f 82//82 81//81 84//84
f 83//83 70//70 84//84
f 70//70 85//85 84//84
f 82//82 84//84 85//85
f 85//85 70//70 127//127
f 86//86 94//94 51//51
f 51//51 54//54 86//86
f 86//86 54//54 87//87
f 86//86 88//88 139//139
f 87//87 88//88 86//86
f 87//87 89//89 88//88
f 87//87 54//54 55//55
f 87//87 55//55 89//89
f 89//89 55//55 81//81
f 90//90 264//264 136//136
f 265//265 270//270 130//130
f 91//91 46//46 92//92
f 264//264 91//91 136//136
f 91//91 92//92 136//136
f 136//136 92//92 137//137
f 93//93 92//92 46//46
f 46//46 51//51 93//93
f 94//94 93//93 51//51
f 93//93 94//94 92//92
f 92//92 94//94 137//137
f 137//137 94//94 138//138
f 138//138 94//94 139//139
f 95//95 97//97 58//58
f 141//141 95//95 96//96
f 184//184 97//97 95//95
f 67//67 62//62 98//98
f 98//98 99//99 67//67
f 101//101 99//99 98//98
f 98//98 145//145 101//101
f 125//125 147//147 73//73
f 147//147 68//68 73//73
f 147//147 142//142 68//68
f 100//100 71//71 271//271
f 101//101 100//100 271//271
f 101//101 152//152 100//100
f 152//152 151//151 100//100
f 100//100 151//151 71//71
f 102//102 104//104 108//108
f 272//272 105//105 103//103
f 273//273 104//104 102//102
f 106//106 103//103 105//105
f 104//104 273//273 274//274
f 107//107 106//106 105//105
f 109//109 108//108 104//104
f 109//109 104//104 274//274
f 274//274 110//110 109//109
f 110//110 112//112 109//109
f 110//110 113//113 112//112
f 110//110 275//275 111//111
f 111//111 113//113 110//110
f 216//216 113//113 111//111
f 112//112 114//114 109//109
f 114//114 112//112 113//113
f 114//114 117//117 78//78
f 117//117 120//120 78//78
f 109//109 114//114 78//78
f 117//117 114//114 115//115
f 113//113 115//115 114//114
f 113//113 216//216 115//115
f 115//115 116//116 117//117
f 118//118 117//117 116//116
f 116//116 115//115 216//216
f 116//116 216//216 118//118
f 118//118 119//119 117//117
f 117//117 119//119 120//120
f 118//118 216//216 119//119
f 120//120 119//119 121//121
f 120//120 121//121 122//122
f 121//121 218//218 123//123
f 121//121 123//123 122//122
f 123//123 157//157 122//122
f 122//122 157//157 79//79
f 157//157 124//124 80//80
f 80//80 124//124 125//125
f 125//125 124//124 126//126
f 124//124 158//158 126//126
f 80//80 125//125 72//72
f 125//125 126//126 147//147
f 126//126 160//160 147//147
f 127//127 151//151 161//161
f 80//80 79//79 157//157
f 161//161 85//85 127//127
f 129//129 85//85 161//161
f 139//139 88//88 128//128
f 181//181 139//139 128//128
f 88//88 89//89 128//128
f 181//181 128//128 169//169
f 89//89 82//82 128//128
f 169//169 128//128 129//129
f 129//129 171//171 169//169
f 129//129 82//82 85//85
f 129//129 128//128 82//82
f 131//131 130//130 270//270
f 90//90 136//136 276//276
f 132//132 107//107 130//130
f 277//277 130//130 131//131
f 133//133 277//277 131//131
f 278//278 276//276 134//134
f 173//173 107//107 132//132
f 135//135 173//173 132//132
f 172//172 279//279 133//133
f 133//133 279//279 277//277
f 134//134 280//280 278//278
f 276//276 136//136 134//134
f 136//136 137//137 178//178
f 177//177 136//136 178//178
f 178//178 137//137 179//179
f 137//137 138//138 179//179
f 140//140 179//179 138//138
f 139//139 140//140 138//138
f 94//94 86//86 139//139
f 140//140 139//139 181//181
f 181//181 180//180 140//140
f 141//141 184//184 95//95
f 141//141 182//182 184//184
f 182//182 143//143 183//183
f 142//142 147//147 143//143
f 143//143 148//148 189//189
f 96//96 68//68 144//144
f 144//144 141//141 96//96
f 142//142 144//144 68//68
f 143//143 144//144 142//142
f 144//144 143//143 182//182
f 143//143 189//189 183//183
f 182//182 141//141 144//144
f 184//184 98//98 97//97
f 146//146 101//101 145//145
f 146//146 154//154 101//101
f 195//195 145//145 98//98
f 155//155 154//154 146//146
f 148//148 143//143 147//147
f 150//150 208//208 214//214
f 155//155 150//150 149//149
f 150//150 155//155 208//208
f 149//149 161//161 151//151
f 153//153 151//151 152//152
f 149//149 151//151 153//153
f 154//154 152//152 101//101
f 154//154 153//153 152//152
f 153//153 155//155 149//149
f 155//155 153//153 154//154
f 218//218 121//121 119//119
f 123//123 156//156 157//157
f 157//157 158//158 124//124
f 158//158 157//157 156//156
f 158//158 160//160 126//126
f 158//158 159//159 160//160
f 158//158 156//156 159//159
f 159//159 226//226 160//160
f 160//160 148//148 147//147
f 160//160 226//226 148//148
f 162//162 161//161 149//149
f 149//149 150//150 162//162
f 150//150 214//214 162//162
f 237//237 107//107 173//173
f 163//163 275//275 107//107
f 163//163 111//111 275//275
f 111//111 163//163 216//216
f 215//215 107//107 237//237
f 215//215 163//163 107//107
f 216//216 217//217 119//119
f 219//219 123//123 218//218
f 219//219 156//156 123//123
f 224//224 156//156 219//219
f 170//170 164//164 230//230
f 165//165 164//164 171//171
f 164//164 170//170 171//171
f 165//165 166//166 164//164
f 161//161 165//165 129//129
f 165//165 161//161 162//162
f 162//162 166//166 165//165
f 176//176 174//174 241//241
f 237//237 173//173 233//233
f 233//233 173//173 235//235
f 294//294 176//176 241//241
f 241//241 174//174 243//243
f 177//177 247//247 174//174
f 180//180 181//181 167//167
f 167//167 255//255 180//180
f 255//255 167//167 256//256
f 169//169 167//167 181//181
f 167//167 169//169 168//168
f 168//168 256//256 167//167
f 169//169 170//170 168//168
f 171//171 170//170 169//169
f 168//168 170//170 228//228
f 165//165 171//171 129//129
f 172//172 173//173 279//279
f 175//175 174//174 176//176
f 281//281 173//173 172//172
f 174//174 175//175 280//280
f 235//235 173//173 281//281
f 176//176 294//294 175//175
f 174//174 280//280 177//177
f 134//134 177//177 280//280
f 177//177 134//134 136//136
f 177//177 178//178 179//179
f 177//177 179//179 247//247
f 179//179 255//255 247//247
f 179//179 140//140 180//180
f 179//179 180//180 255//255
f 183//183 184//184 182//182
f 98//98 184//184 185//185
f 98//98 185//185 195//195
f 184//184 186//186 185//185
f 185//185 186//186 195//195
f 183//183 186//186 184//184
f 186//186 183//183 197//197
f 189//189 148//148 205//205
f 189//189 197//197 183//183
f 197//197 189//189 187//187
f 197//197 187//187 200//200
f 187//187 189//189 188//188
f 187//187 188//188 200//200
f 287//287 188//188 203//203
f 190//190 204//204 203//203
f 190//190 203//203 188//188
f 189//189 190//190 188//188
f 195//195 191//191 145//145
f 282//282 192//192 146//146
f 145//145 191//191 146//146
f 192//192 155//155 146//146
f 208//208 155//155 192//192
f 194//194 192//192 193//193
f 193//193 192//192 282//282
f 196//196 193//193 282//282
f 195//195 196//196 191//191
f 194//194 208//208 192//192
f 202//202 193//193 196//196
f 194//194 202//202 204//204
f 194//194 193//193 202//202
f 197//197 198//198 186//186
f 198//198 199//199 186//186
f 195//195 186//186 284//284
f 285//285 202//202 195//195
f 202//202 196//196 195//195
f 194//194 204//204 190//190
f 197//197 200//200 198//198
f 283//283 288//288 201//201
f 283//283 201//201 286//286
f 286//286 201//201 202//202
f 287//287 203//203 201//201
f 201//201 203//203 204//204
f 204//204 202//202 201//201
f 205//205 209//209 206//206
f 206//206 189//189 205//205
f 207//207 212//212 214//214
f 213//213 207//207 289//289
f 194//194 214//214 208//208
f 194//194 190//190 214//214
f 207//207 214//214 190//190
f 207//207 190//190 189//189
f 289//289 207//207 189//189
f 148//148 226//226 209//209
f 210//210 209//209 229//229
f 148//148 209//209 205//205
f 210//210 206//206 209//209
f 289//289 290//290 211//211
f 289//289 211//211 213//213
f 232//232 213//213 211//211
f 166//166 212//212 232//232
f 207//207 213//213 212//212
f 212//212 213//213 232//232
f 162//162 214//214 166//166
f 214//214 212//212 166//166
f 216//216 163//163 291//291
f 236//236 291//291 296//296
f 217//217 216//216 244//244
f 217//217 218//218 119//119
f 218//218 217//217 244//244
f 218//218 220//220 219//219
f 219//219 221//221 224//224
f 221//221 219//219 220//220
f 221//221 220//220 222//222
f 222//222 220//220 258//258
f 225//225 224//224 221//221
f 225//225 221//221 222//222
f 156//156 224//224 159//159
f 225//225 222//222 223//223
f 222//222 258//258 223//223
f 223//223 258//258 259//259
f 223//223 259//259 260//260
f 224//224 226//226 159//159
f 224//224 225//225 227//227
f 225//225 223//223 260//260
f 226//226 224//224 227//227
f 228//228 260//260 261//261
f 209//209 226//226 227//227
f 227//227 225//225 229//229
f 229//229 225//225 260//260
f 229//229 260//260 228//228
f 170//170 230//230 228//228
f 228//228 230//230 231//231
f 231//231 229//229 228//228
f 229//229 209//209 227//227
f 211//211 230//230 232//232
f 290//290 231//231 211//211
f 211//211 231//231 230//230
f 290//290 229//229 231//231
f 164//164 166//166 232//232
f 230//230 164//164 232//232
f 292//292 295//295 234//234
f 241//241 293//293 294//294
f 292//292 238//238 297//297
f 238//238 292//292 234//234
f 241//241 298//298 293//293
f 236//236 296//296 298//298
f 216//216 291//291 236//236
f 239//239 216//216 236//236
f 236//236 298//298 239//239
f 239//239 298//298 240//240
f 241//241 240//240 298//298
f 242//242 239//239 240//240
f 242//242 240//240 241//241
f 239//239 242//242 216//216
f 242//242 241//241 243//243
f 216//216 242//242 245//245
f 246//246 242//242 243//243
f 216//216 245//245 244//244
f 245//245 242//242 246//246
f 243//243 248//248 246//246
f 244//244 245//245 249//249
f 244//244 249//249 218//218
f 245//245 246//246 249//249
f 249//249 246//246 250//250
f 246//246 248//248 250//250
f 243//243 247//247 248//248
f 247//247 243//243 174//174
f 250//250 248//248 251//251
f 249//249 250//250 254//254
f 254//254 250//250 251//251
f 252//252 248//248 247//247
f 248//248 252//252 251//251
f 218//218 249//249 253//253
f 218//218 253//253 220//220
f 249//249 254//254 253//253
f 254//254 251//251 252//252
f 255//255 252//252 247//247
f 258//258 220//220 253//253
f 254//254 258//258 253//253
f 252//252 255//255 257//257
f 254//254 257//257 258//258
f 254//254 252//252 257//257
f 255//255 256//256 257//257
f 257//257 259//259 258//258
f 260//260 259//259 257//257
f 256//256 260//260 257//257
f 256//256 168//168 261//261
f 260//260 256//256 261//261
f 228//228 261//261 168//168
