# Wavafront OBJ file of BodyParts3D
# BodyParts3D, Copyright(C) 2010-2011 The Database Center for Life Science licensed under CC Attribution-Share Alike 2.1 Japan.
vn -0.881163 0.365162 0.300348
v 42.7523 -141.284 1252.92
vn -0.993695 -0.102386 -0.0456861
v 42.6559 -141.644 1252.75
vn -0.930292 0.276562 0.240979
v 42.0163 -149.988 1234.75
vn -0.95968 0.253314 -0.121849
v 41.9994 -149.871 1234.55
vn -0.969759 -0.0892893 -0.227147
v 41.9587 -150.372 1234.6
vn -0.757758 0.483798 0.437883
v 42.2356 -149.648 1234.84
vn -0.804795 -0.14536 -0.575478
v 42.0247 -150.306 1234.42
vn -0.302952 0.0611449 0.951042
v 42.2723 -149.961 1234.88
vn 0.174105 0.275766 0.945326
v 42.4671 -149.665 1234.84
vn -0.61949 0.318102 -0.717665
v 42.1671 -149.449 1234.54
vn -0.505787 0.169174 -0.845908
v 42.1322 -149.846 1234.39
vn -0.559363 0.629832 0.538911
v 42.4632 -149.336 1234.72
vn -0.310131 0.195443 -0.930387
v 42.4638 -149.489 1234.36
vn -0.267001 0.88339 -0.38514
v 42.5251 -149.354 1234.51
vn 0.798122 0.0986005 0.594373
v 42.5746 -149.911 1234.58
vn 0.447221 0.322454 0.834276
v 42.6076 -149.499 1234.7
vn 0.990955 0.0169691 -0.13312
v 42.6119 -149.591 1234.47
vn -0.9581 0.174121 0.227436
v 42.7025 -141.715 1253.29
vn -0.519078 0.349088 -0.780189
v 43.0429 -141.479 1252.57
vn -0.958607 -0.256509 -0.123597
v 42.7793 -142.162 1252.87
vn 0.525485 0.21417 0.823406
v 43.14 -141.738 1253.41
vn 0.719603 0.218888 0.658984
v 43.5331 -141.769 1253.13
vn 0.841714 0.505888 0.188668
v 43.5636 -141.643 1252.95
vn -0.731361 0.495481 0.468625
v 42.9907 -141.263 1253.27
vn -0.369315 0.908342 0.196269
v 43.0795 -141.191 1253.1
vn 0.663748 0.577706 0.475073
v 43.2524 -141.279 1253.15
vn 0.557619 0.772312 -0.304295
v 43.297 -141.303 1252.93
vn -0.623879 -0.558736 0.546433
v 42.2867 -150.994 1234.55
vn -0.352131 -0.378601 -0.855958
v 42.4565 -150.692 1234.31
vn -0.209333 0.0242881 -0.977543
v 42.3738 -150.422 1234.34
vn -0.632192 -0.333976 0.699137
v 42.3052 -150.681 1234.89
vn 0.575949 0.113402 0.809582
v 42.4677 -150.454 1234.81
vn 0.888034 0.0227335 0.459216
v 42.5534 -150.388 1234.65
vn 0.359752 0.512743 0.779534
v 42.6023 -150.622 1234.82
vn 0.379109 0.421356 -0.823854
v 42.6959 -150.634 1234.44
vn 0.620498 0.758772 0.19811
v 42.6851 -150.563 1234.65
vn 0.439841 0.897302 -0.0372744
v 43.6168 -151.079 1234.46
vn -0.917159 0.175977 0.357562
v 46.8951 -142.343 1250.37
vn -0.770285 0.390902 0.503842
v 47.0329 -142.009 1250.54
vn -0.555922 0.303004 -0.774041
v 47.2013 -141.899 1250.2
vn -0.783762 0.405076 0.470776
v 49.3342 -138.384 1250.5
vn -0.786509 0.617549 0.00603792
v 49.3899 -138.311 1250.32
vn -0.443981 -0.648132 0.618713
v 43.9754 -151.924 1234.79
vn -0.301562 -0.306441 0.902859
v 43.8585 -151.443 1234.92
vn -0.657206 -0.745469 -0.111157
v 43.9212 -151.806 1234.37
vn -0.29751 -0.284661 -0.911293
v 44.4003 -151.847 1234.28
vn 0.565773 0.586926 0.579154
v 44.7567 -151.853 1234.74
vn 0.256042 0.239122 0.936623
v 44.7929 -152.114 1234.91
vn -0.749374 -0.660143 -0.0514761
v 44.6169 -152.601 1234.43
vn -0.227801 -0.0684047 -0.971302
v 44.737 -152.463 1234.3
vn 0.713342 0.629274 -0.308475
v 44.9217 -152.139 1234.37
vn 0.409871 0.781489 0.470405
v 43.9136 -151.254 1234.77
vn 0.491692 0.814412 0.308174
v 44.1465 -151.33 1234.63
vn 0.424834 0.602003 0.676098
v 44.227 -151.497 1234.84
vn -0.910899 -0.285286 -0.298118
v 44.817 -146.144 1250.46
vn 0.731865 0.209969 0.648295
v 46.2296 -145.994 1250.94
vn 0.523119 0.686716 -0.504745
v 45.5894 -145.372 1250.27
vn -0.561841 0.085772 -0.822787
v 45.4871 -146.094 1249.87
vn 0.728242 0.644098 -0.234097
v 46.0948 -145.604 1250.54
vn 0.158455 0.549739 -0.82017
v 46.0852 -145.74 1250.26
vn 0.166518 0.731376 0.661333
v 46.2668 -145.53 1250.42
vn 0.101211 0.424026 -0.899977
v 46.3092 -146.077 1250.03
vn -0.860831 0.207146 -0.464823
v 46.5441 -144.44 1250.44
vn -0.608077 0.15703 -0.778192
v 46.6354 -144.808 1250.14
vn -0.85579 0.212933 0.471468
v 46.9752 -142.888 1250.84
vn 0.322369 -0.17278 0.930712
v 47.6595 -142.398 1250.71
vn -0.421227 0.269591 0.865961
v 47.3854 -141.842 1250.84
vn -0.12974 0.0820155 0.98815
v 47.5575 -141.94 1250.87
vn -0.0347888 0.00827189 -0.99936
v 47.3868 -142.929 1250.11
vn 0.947964 -0.306796 -0.0850898
v 47.6903 -142.52 1250.46
vn -0.686207 0.575065 -0.445444
v 47.8633 -140.857 1250.43
vn -0.396599 0.347986 -0.849479
v 48.256 -140.658 1250.18
vn -0.0641138 0.0516607 -0.996605
v 47.736 -141.598 1250.09
vn -0.589493 0.523602 0.615093
v 48.0524 -140.815 1250.72
vn -0.277673 0.253207 0.926706
v 48.0552 -141.147 1250.85
vn 0.488801 -0.315382 -0.813393
v 47.9004 -141.702 1250.14
vn 0.159986 -0.127579 -0.97884
v 48.338 -141.012 1250.1
vn -0.285181 0.250667 -0.925115
v 48.6269 -140.546 1250.1
vn 0.415428 -0.211335 0.884736
v 48.0984 -141.618 1250.71
vn 0.847612 -0.528218 -0.0503879
v 48.124 -141.736 1250.46
vn 0.749812 -0.659577 0.0523513
v 48.3058 -141.43 1250.64
vn 0.655634 -0.56427 -0.501741
v 48.3935 -141.252 1250.24
vn 0.692988 -0.678728 -0.243096
v 48.9023 -140.85 1250.42
vn -0.779323 0.560112 0.280945
v 49.0139 -139.657 1250.4
vn -0.899063 0.340186 0.275607
v 49.1931 -139.349 1250.58
vn -0.715393 0.46042 0.525573
v 49.068 -139.923 1250.8
vn -0.748005 0.236152 0.620259
v 49.3192 -139.522 1250.79
vn 0.332322 -0.305901 0.892181
v 48.9116 -140.566 1250.79
vn 0.203066 -0.0778587 0.976065
v 49.3751 -139.81 1250.82
vn 0.710376 -0.53388 0.458627
v 49.4723 -140.048 1250.72
vn 0.387553 -0.084902 0.917929
v 49.6292 -139.416 1250.78
vn 0.556 -0.476038 -0.68136
v 49.152 -140.43 1250.21
vn 0.653414 -0.539465 0.531063
v 49.3128 -140.427 1250.52
vn 0.530798 -0.195054 0.824747
v 49.6345 -139.847 1250.66
vn 0.794305 -0.499673 0.345552
v 49.5146 -140.177 1250.47
vn -0.751951 0.296939 -0.588555
v 49.3226 -139.215 1250.23
vn -0.684919 0.501189 -0.528863
v 49.1623 -139.63 1250.22
vn -0.349741 0.120729 -0.929035
v 49.5552 -139.032 1250.14
vn -0.335318 0.163138 -0.927873
v 49.5077 -139.5 1250.14
vn 0.25266 -0.155202 -0.955026
v 49.4384 -139.983 1250.18
vn 0.627601 -0.156872 0.762567
v 49.8175 -139.42 1250.62
vn 0.35894 -0.102586 -0.927706
v 49.6606 -139.611 1250.21
vn 0.858836 -0.209592 -0.46741
v 49.868 -139.344 1250.44
vn 0.89971 -0.369363 0.23258
v 49.7332 -139.779 1250.45
vn -0.667653 0.502744 0.549078
v 49.6773 -138.178 1250.73
vn -0.750501 0.607944 0.259138
v 49.5695 -138.084 1250.48
vn -0.763343 0.298501 0.572892
v 49.4682 -138.52 1250.75
vn -0.187622 0.890733 0.413996
v 49.7832 -138.086 1250.58
vn -0.305276 0.69518 -0.650792
v 49.7969 -138.211 1250.24
vn 0.127988 0.0371565 0.991079
v 49.6309 -138.629 1250.79
vn 0.520173 0.135105 0.843307
v 49.8091 -138.368 1250.73
vn 0.665091 0.31174 0.678582
v 49.9136 -138.263 1250.59
vn 0.586724 -0.0359151 0.80899
v 49.9013 -138.736 1250.66
vn 0.305301 -0.0192879 -0.952061
v 49.8244 -138.954 1250.22
vn 0.978388 -0.0224403 -0.205554
v 49.9321 -138.857 1250.4
vn -0.91825 -0.111292 0.380042
v 44.9212 -154.642 1234.88
vn -0.950576 -0.237775 -0.199672
v 44.8648 -154.9 1234.49
vn -0.43088 -0.0901249 -0.897897
v 44.9591 -154.816 1234.33
vn 0.0202208 0.0424897 0.998892
v 45.3641 -154.37 1234.9
vn -0.743427 -0.664943 -0.0718811
v 44.8181 -152.864 1234.88
vn -0.949138 -0.145918 0.279007
v 44.826 -153.294 1234.75
vn -0.583226 -0.100926 0.806016
v 44.9694 -152.983 1234.93
vn -0.633494 0.530704 -0.563062
v 45.5755 -151.471 1236.63
vn -0.523207 0.331703 -0.785002
v 45.6495 -151.653 1236.38
vn -0.885109 0.10504 0.453376
v 45.7074 -151.704 1236.95
vn -0.982771 -0.183471 0.0223424
v 45.6474 -151.879 1236.77
vn -0.351576 0.425313 -0.833968
v 46.007 -151.496 1236.31
vn -0.132652 -0.267618 0.95435
v 45.8732 -151.807 1236.99
vn 0.678434 0.639416 -0.361766
v 46.2156 -151.479 1236.47
vn -0.514538 0.537898 -0.667769
v 45.7907 -151.288 1236.57
vn -0.0782722 0.99693 0.00183762
v 45.7667 -151.29 1236.78
vn -0.786661 0.315329 0.530784
v 45.7994 -151.532 1237
vn -0.0782722 0.99693 0.00183762
v 46.0464 -151.268 1236.69
vn 0.238703 -0.0778138 0.96797
v 45.9878 -151.613 1237.01
vn 0.102127 0.649032 0.753875
v 46.1257 -151.437 1236.9
vn 0.854978 0.445688 0.265281
v 46.3239 -151.587 1236.72
vn -0.106112 0.0274479 -0.993975
v 45.3814 -154.541 1234.29
vn 0.56656 0.362581 0.739963
v 45.2361 -152.502 1234.76
vn -0.942349 -0.126118 -0.309955
v 44.9163 -153.327 1234.34
vn -0.114578 0.0101236 -0.993363
v 45.1748 -152.943 1234.26
vn 0.314729 0.119871 0.941582
v 45.3729 -153.113 1234.85
vn 0.916657 0.223616 -0.331264
v 45.3904 -152.902 1234.45
vn -0.546052 -0.496857 0.674507
v 46.2794 -156.307 1223.23
vn -0.703927 0.113607 0.701128
v 46.1878 -156.044 1223.28
vn -0.738478 0.396309 -0.545518
v 46.0946 -155.95 1222.74
vn -0.794903 0.0590681 0.603854
v 45.9988 -156.066 1223.04
vn -0.654695 -0.466555 0.594728
v 46.0679 -156.345 1223.04
vn -0.949012 -0.221883 -0.223927
v 46.2569 -156.572 1222.39
vn -0.40374 0.454322 -0.794094
v 46.4094 -155.999 1222.56
vn 0.816961 0.57497 0.0445502
v 46.9301 -156.331 1222.55
vn -0.602606 0.493099 0.62747
v 46.0664 -155.831 1223
vn -0.523646 0.641271 -0.560862
v 46.1842 -155.797 1222.84
vn 0.130306 0.379408 0.916007
v 46.3751 -155.798 1223.16
vn 0.750136 0.635937 0.181326
v 46.4399 -155.777 1222.96
vn 0.398586 -0.12117 0.909091
v 46.3839 -156.116 1223.29
vn 0.798091 0.41123 0.440387
v 46.7467 -156.145 1222.99
vn -0.890789 0.359812 -0.277543
v 51.6596 -151.142 1218.63
vn -0.842326 0.120605 0.525302
v 51.5619 -151.608 1218.67
vn -0.952372 0.12995 -0.275862
v 51.6047 -151.527 1218.48
vn -0.794491 0.495478 -0.351122
v 51.76 -151.091 1218.45
vn -0.65033 0.739879 0.172191
v 51.9256 -150.781 1218.65
vn -0.52822 0.762239 -0.374132
v 52.0409 -150.745 1218.48
vn 0.258688 -0.198196 0.945409
v 46.5337 -147.982 1250.61
vn -0.711123 -0.578807 0.399108
v 45.7835 -147.088 1250.97
vn 0.419721 -0.216287 0.881507
v 46.4055 -147.309 1250.84
vn -0.803292 -0.358058 -0.475937
v 46.7472 -149.101 1249.02
vn -0.189319 0.294098 -0.936838
v 47.1376 -148.257 1248.79
vn 0.324778 0.354306 -0.876919
v 46.5054 -146.369 1249.94
vn 0.139688 0.111375 -0.983912
v 46.5986 -146.196 1250
vn 0.506061 0.525097 -0.684233
v 46.6186 -146.617 1249.85
vn 0.60887 0.250524 -0.752672
v 46.6673 -146.475 1249.99
vn 0.837252 -0.0465455 -0.544832
v 46.8717 -146.426 1250.18
vn 0.995127 0.0856498 -0.0488537
v 46.8742 -146.745 1250.31
vn 0.834379 0.248983 -0.491751
v 46.7948 -146.621 1250.08
vn 0.706071 -0.187577 0.682846
v 46.8599 -146.843 1250.5
vn 0.509533 0.0708663 0.857528
v 46.9019 -146.616 1250.59
vn 0.878005 0.478334 -0.0174185
v 46.9244 -146.878 1250.06
vn 0.580534 0.0612844 0.811926
v 46.9131 -147.045 1250.46
vn 0.813731 0.149024 0.561813
v 45.5296 -154.517 1234.7
vn -0.734609 -0.351532 0.580323
v 45.1501 -155.463 1234.82
vn -0.225629 -0.0344048 0.973606
v 45.3099 -155.135 1234.99
vn -0.169329 -0.0541382 -0.984072
v 45.4318 -155.268 1234.22
vn -0.793493 -0.608303 -0.0183515
v 45.2569 -155.767 1234.62
vn -0.404258 -0.25742 0.877673
v 45.4586 -155.685 1234.96
vn -0.453167 -0.325712 -0.82979
v 45.5564 -155.849 1234.28
vn 0.532 0.435728 -0.726028
v 45.7799 -155.462 1234.28
vn 0.736867 0.168087 0.654808
v 45.8282 -155.245 1234.6
vn -0.544003 -0.453946 0.705686
v 45.5566 -155.943 1234.9
vn -0.0811577 -0.0608847 0.99484
v 45.8105 -155.876 1235.01
vn -0.562801 -0.711024 0.421545
v 45.8381 -156.292 1234.84
vn -0.334878 -0.359949 0.870801
v 45.8931 -156.145 1234.98
vn 0.543656 -0.0108803 0.839238
v 46.4021 -152.212 1236.78
vn 0.545822 0.54693 -0.63478
v 46.6779 -152.564 1235.87
vn -0.00573452 0.416917 -0.908926
v 46.6685 -153.105 1235.52
vn 0.640368 0.257715 -0.723541
v 45.5196 -154.88 1234.34
vn -0.0586359 -0.0795752 -0.995103
v 46.4018 -156.01 1234.29
vn -0.919879 -0.366585 -0.139419
v 47.7973 -159.71 1220.47
vn -0.672289 -0.192382 -0.714854
v 50.1961 -155.492 1218.37
vn -0.908131 -0.388502 -0.156089
v 50.2299 -155.743 1218.8
vn -0.526078 -0.359954 0.770503
v 50.5257 -155.974 1218.96
vn -0.960864 0.094899 -0.26026
v 50.1458 -154.939 1218.76
vn -0.893495 0.20027 -0.401944
v 50.3365 -154.634 1218.49
vn -0.734479 0.667765 0.120957
v 50.4995 -154.517 1218.83
vn -0.982711 -0.153692 -0.103236
v 50.1447 -155.476 1218.83
vn -0.449394 0.0788874 0.889844
v 50.3057 -155.147 1219
vn -0.550793 0.422367 0.719884
v 50.6658 -154.571 1218.99
vn -0.577421 -0.2223 0.7856
v 50.2786 -155.601 1218.95
vn -0.0814068 0.0588101 0.994944
v 50.6004 -155.051 1219.02
vn 0.218067 -0.142972 -0.965404
v 50.6982 -155.201 1218.31
vn 0.644509 -0.19202 0.740092
v 50.8709 -155.081 1218.84
vn -0.0164026 0.057102 -0.998234
v 50.7681 -155.479 1218.3
vn 0.845938 -0.145236 -0.513122
v 50.8862 -155.394 1218.5
vn 0.854777 0.00464976 0.518975
v 50.9813 -155.034 1218.66
vn 0.0318743 0.0292328 0.999064
v 50.61 -155.806 1219.04
vn 0.626598 0.0632781 0.77677
v 50.9326 -155.414 1218.74
vn -0.145718 0.14647 0.978424
v 51.3866 -154.18 1219
vn -0.416439 0.263595 -0.870113
v 50.6563 -154.903 1218.25
vn 0.557901 -0.166948 -0.812942
v 50.8054 -155.018 1218.33
vn 0.15314 -0.146551 -0.977277
v 51.5996 -154.15 1218.31
vn 0.625354 -0.627564 -0.463784
v 51.5383 -154.481 1218.64
vn -0.758864 0.65125 -0.000102646
v 51.2236 -153.815 1218.48
vn -0.978818 -0.0348301 -0.201749
v 51.7446 -152.697 1218.4
vn -0.724388 0.632854 0.273418
v 51.2808 -153.748 1218.76
vn -0.931053 0.158655 -0.328588
v 51.5767 -153.298 1218.58
vn -0.564893 0.520419 0.640359
v 51.3499 -153.879 1218.94
vn -0.730063 0.527458 0.434507
v 51.761 -153.221 1218.92
vn -0.417865 0.363629 -0.832564
v 51.5371 -153.858 1218.29
vn -0.53896 0.422744 -0.728567
v 51.9151 -153.243 1218.3
vn 0.540488 -0.0320134 0.840742
v 52.1246 -153.015 1218.94
vn 0.337435 -0.216539 -0.916105
v 51.8394 -153.757 1218.29
vn 0.910477 -0.00246326 0.413552
v 52.3052 -153.014 1218.79
vn 0.610511 -0.0874768 -0.787162
v 52.1676 -153.203 1218.35
vn 0.940262 0.0263367 -0.339432
v 52.3123 -152.885 1218.55
vn 0.68542 -0.556874 0.469139
v 51.9399 -154.05 1218.74
vn 0.568468 -0.509062 -0.646297
v 51.9981 -153.979 1218.56
vn 0.879473 -0.474498 0.0371394
v 52.1059 -153.836 1218.66
vn 0.732344 -0.282186 0.619712
v 52.2127 -153.483 1218.82
vn 0.764239 -0.373696 -0.525633
v 52.1025 -153.727 1218.46
vn 0.966304 -0.233264 -0.108828
v 52.2839 -153.42 1218.64
vn -0.810829 0.231364 0.537612
v 51.7421 -151.322 1218.89
vn -0.64032 0.554173 0.531867
v 51.9783 -150.94 1218.89
vn -0.292168 0.0525791 0.95492
v 51.9014 -151.429 1218.95
vn -0.189013 0.139116 0.97207
v 52.0278 -151.232 1218.93
vn 0.528604 -0.32699 0.783361
v 52.1938 -151.264 1218.84
vn -0.114311 0.170861 0.978642
v 52.1853 -150.977 1218.93
vn -0.405104 0.0299942 -0.913778
v 51.9546 -151.609 1218.33
vn -0.985665 -0.00355063 -0.168678
v 51.6686 -152.243 1218.83
vn 0.692715 0.0542023 0.719172
v 52.0825 -151.721 1218.87
vn 0.738498 -0.138099 -0.659962
v 52.1729 -151.567 1218.51
vn 0.658916 -0.139695 0.739131
v 52.1853 -151.468 1218.77
vn 0.422501 -0.520803 0.741793
v 52.3901 -151.09 1218.81
vn 0.61643 -0.531649 0.58083
v 52.3325 -151.234 1218.69
vn 0.228992 -0.218154 0.948668
v 52.5227 -150.832 1218.91
vn 0.97917 0.0647664 0.192437
v 52.2183 -151.908 1218.65
vn -0.252422 0.423803 0.86987
v 52.406 -150.644 1218.88
vn -0.360239 0.220208 -0.906497
v 52.0047 -151.139 1218.33
vn 0.540206 -0.177832 -0.822529
v 52.1737 -151.232 1218.38
vn 0.390008 -0.520725 0.759434
v 52.7515 -150.918 1218.76
vn -0.379418 0.915876 -0.131198
v 52.6244 -150.372 1218.65
vn -0.325582 0.761528 0.560421
v 52.5349 -150.47 1218.8
vn -0.233871 0.366594 -0.900507
v 52.6976 -150.519 1218.4
vn -0.0332306 0.357364 0.933374
v 52.7353 -150.499 1218.89
vn -0.172253 0.832794 0.526102
v 52.8501 -150.372 1218.75
vn -0.195799 0.812184 -0.549563
v 52.8954 -150.413 1218.49
vn 0.379257 -0.270937 0.884735
v 53.0309 -150.624 1218.76
vn 0.221844 -0.00949246 -0.975036
v 52.9794 -150.681 1218.46
vn -0.820556 -0.563789 0.0939684
v 46.8893 -149.368 1249.67
vn -0.731557 -0.68178 -0.000905419
v 47.6677 -150.442 1248.78
vn 0.456931 0.00740448 0.889471
v 47.983 -148.64 1249.98
vn 0.352996 0.694369 -0.627093
v 48.4393 -148.707 1249.02
vn -0.435717 0.108884 -0.893473
v 47.9042 -149.969 1248.09
vn -0.640332 -0.756268 -0.13429
v 46.2502 -156.618 1234.35
vn 0.420418 0.5934 0.686386
v 46.4753 -156.027 1234.88
vn -0.905329 -0.360556 0.224451
v 47.0755 -156.162 1234.89
vn 0.137841 0.410787 0.901251
v 47.0883 -156.543 1235
vn -0.946213 -0.322046 0.0311113
v 47.1955 -156.317 1235.12
vn -0.287221 -0.323801 0.901475
v 47.0747 -156.959 1234.99
vn -0.325502 -0.185901 0.927087
v 47.3489 -156.878 1235.05
vn -0.230822 -0.362117 0.903102
v 47.5894 -156.276 1235.55
vn 0.205258 -0.190596 0.95997
v 47.7759 -155.929 1235.66
vn -0.329185 -0.386466 0.861558
v 47.4393 -157.141 1235.01
vn -0.402812 -0.678305 -0.614528
v 47.7016 -157.277 1234.13
vn 0.346713 0.505853 -0.789875
v 47.1144 -156.387 1234.36
vn -0.297467 0.268899 -0.916082
v 47.6734 -156.314 1234.2
vn 0.445015 0.51338 -0.733759
v 47.7888 -155.158 1234.69
vn -0.219014 0.487849 -0.845007
v 48.3759 -159.431 1219.92
vn -0.70333 0.0461117 -0.709366
v 48.5694 -160.491 1219.43
vn -0.322978 -0.596829 0.734493
v 48.6789 -160.52 1220.74
vn 0.260768 -0.335881 0.905088
v 49.0996 -160.663 1220.64
vn 0.791093 0.609287 -0.0542327
v 48.8683 -159.3 1220.15
vn 0.852679 0.450608 0.264369
v 49.0741 -159.52 1220.68
vn -0.392252 0.296485 -0.870767
v 49.4838 -161.258 1218.69
vn -0.911647 -0.348506 0.217813
v 49.9701 -158.535 1218.71
vn -0.671858 0.122176 0.730534
v 50.0661 -158.251 1219.01
vn -0.304984 -0.178415 0.935496
v 50.3251 -158.181 1219.11
vn -0.564578 -0.590809 0.576364
v 50.2467 -158.779 1218.91
vn -0.312083 -0.286127 0.905945
v 50.5748 -158.552 1219.12
vn -0.999975 0.00228986 0.00668077
v 49.9034 -158.151 1218.52
vn -0.635852 -0.0812649 -0.767521
v 49.998 -158.103 1218.35
vn -0.744932 0.447646 0.49466
v 50.1918 -157.594 1218.6
vn -0.52336 0.389113 -0.75808
v 50.177 -157.897 1218.27
vn -0.126922 0.0695921 -0.989468
v 50.2267 -158.137 1218.21
vn -0.81246 -0.41778 -0.406655
v 50.0193 -158.575 1218.43
vn -0.742213 -0.668956 0.0402228
v 50.0959 -158.75 1218.64
vn -0.430518 -0.136127 -0.892258
v 50.2429 -158.672 1218.27
vn 0.210893 -0.0389862 -0.976731
v 50.7762 -158.194 1218.29
vn -0.47993 -0.848205 0.22409
v 50.4518 -159.02 1218.49
vn 0.406597 -0.168474 0.89794
v 50.9968 -158.094 1218.82
vn 0.876347 0.0260298 0.480976
v 51.089 -158.044 1218.65
vn 0.912116 0.204725 0.355151
v 51.1259 -158.278 1218.59
vn 0.338707 0.307526 0.889216
v 51.0753 -158.272 1218.8
vn -0.547584 -0.284031 -0.787069
v 50.853 -156.487 1218.35
vn -0.717837 -0.373653 0.587447
v 50.8924 -156.59 1218.87
vn -0.545559 0.358324 -0.757607
v 50.8685 -157.064 1218.4
vn -0.75551 -0.438421 -0.486818
v 50.8811 -156.765 1218.51
vn -0.666375 0.43376 0.606463
v 50.8314 -157.091 1218.84
vn -0.744792 0.415665 0.522023
v 50.9687 -156.864 1218.85
vn -0.299606 -0.169052 0.938966
v 51.117 -156.543 1219.04
vn -0.481546 0.0919941 -0.871579
v 51.1238 -156.865 1218.27
vn -0.158559 -0.00644552 -0.987329
v 51.2709 -156.654 1218.21
vn -0.44679 0.318293 0.836103
v 50.9596 -157.197 1219.02
vn -0.592352 -0.187154 0.783641
v 51.1869 -156.821 1219.04
vn -0.0690213 0.0440951 -0.99664
v 51.2259 -157.12 1218.2
vn 0.255772 0.0293346 -0.966292
v 51.5451 -156.573 1218.27
vn 0.0654427 -0.0389064 0.997098
v 51.0692 -157.379 1219.09
vn 0.180628 0.0699 0.981064
v 51.4892 -156.721 1219.04
vn 0.644614 0.302943 0.701925
v 51.6284 -156.545 1218.93
vn 0.927126 0.373277 0.0331868
v 51.7076 -156.493 1218.75
vn 0.690535 -0.449399 0.566747
v 51.5809 -157.404 1218.86
vn 0.522507 -0.100533 0.846687
v 51.5856 -156.973 1219
vn 0.73073 -0.531507 -0.428408
v 51.5806 -157.506 1218.59
vn 0.881738 -0.0616152 0.467698
v 51.7485 -156.981 1218.84
vn 0.336605 -0.143885 -0.930588
v 51.6437 -157.157 1218.35
vn 0.979769 -0.148541 -0.134123
v 51.7767 -157.101 1218.59
vn 0.809781 0.577537 -0.103469
v 51.0611 -155.595 1218.74
vn -0.300038 -0.701844 0.646059
v 49.1356 -151.511 1248.94
vn -0.696337 -0.50724 -0.507763
v 48.6598 -151.189 1247.85
vn 0.0702401 0.676019 -0.733529
v 49.6465 -149.959 1247.92
vn -0.577138 -0.586161 0.568618
v 47.7348 -157.481 1234.92
vn 0.00381459 -0.256261 0.9666
v 48.5787 -157.984 1235.11
vn -0.526434 -0.396483 0.752109
v 47.6715 -157.089 1235.16
vn 0.598069 0.0512083 0.799807
v 48.2105 -156.1 1235.44
vn -0.784888 -0.619307 0.0202572
v 47.5952 -157.515 1234.46
vn 0.849064 0.291553 0.440553
v 48.6061 -156.402 1235.07
vn 0.846102 0.502993 -0.176381
v 48.6997 -156.435 1234.64
vn -0.866397 -0.372821 -0.332205
v 49.0161 -161.801 1219.21
vn -0.757472 -0.607645 0.238755
v 49.1014 -161.958 1219.43
vn 0.640105 0.0124944 0.768186
v 49.6668 -160.758 1220.32
vn -0.690623 -0.056123 -0.721034
v 49.832 -162.414 1218.24
vn -0.790135 -0.612926 -0.00288456
v 49.8369 -163.016 1218.74
vn -0.120527 -0.116282 -0.985876
v 51.9691 -159.423 1218.15
vn -0.50185 -0.524105 -0.688085
v 51.918 -159.777 1218.47
vn 0.193334 0.440839 0.876517
v 52.3134 -158.942 1218.93
vn 0.557547 0.829344 0.0364676
v 52.3902 -158.896 1218.75
vn -0.574849 -0.404277 -0.711413
v 52.2568 -159.746 1218.18
vn 0.443181 0.103418 0.890447
v 50.5191 -151.64 1248.88
vn -0.554161 -0.828432 0.0812764
v 49.4791 -152.06 1248.18
vn -0.51007 -0.75645 -0.409404
v 50.8181 -152.759 1246.97
vn 0.486511 0.202922 0.849782
v 50.2592 -150.528 1248.82
vn -0.451196 -0.408736 -0.79332
v 50.8635 -152.442 1246.64
vn -0.259188 -0.060764 -0.963913
v 51.163 -152.063 1246.4
vn 0.0352918 0.439814 -0.897395
v 51.4861 -151.513 1246.46
vn 0.560582 0.827563 -0.0297885
v 51.8057 -151.02 1247.31
vn 0.407098 -0.0210159 0.913143
v 49.0007 -158.127 1235.01
vn -0.462433 -0.458621 0.75883
v 48.83 -159.333 1234.65
vn 0.17779 -0.142018 0.973767
v 49.2729 -158.918 1234.86
vn -0.848788 -0.354988 -0.391846
v 48.8095 -159.826 1233.59
vn -0.827287 -0.538095 0.1614
v 49.1126 -160.428 1233.76
vn 0.762226 0.2833 0.582025
v 49.4068 -157.996 1234.69
vn 0.588743 0.579854 -0.563162
v 49.7194 -158.207 1234.08
vn 0.0378798 0.389705 -0.920161
v 49.4302 -159.025 1233.12
vn 0.794546 0.429106 0.42961
v 49.9655 -158.676 1234.27
vn 0.590991 0.170336 0.788489
v 49.9287 -159.157 1234.56
vn -0.779229 -0.374957 -0.502205
v 50.4328 -163.578 1217.92
vn -0.512832 -0.70053 0.496248
v 50.2777 -163.328 1219.08
vn 0.262906 0.718826 -0.64356
v 51.1925 -162.258 1218.14
vn 0.272996 0.786571 -0.553876
v 51.2976 -162.164 1218.32
vn 0.829503 0.52271 0.196722
v 51.2035 -162.325 1219.15
vn 0.339889 0.914971 0.217495
v 51.3497 -162.368 1219.1
vn 0.363773 -0.181788 0.913577
v 51.0827 -163.097 1219.31
vn 0.37049 0.00835155 0.928799
v 51.6682 -163.451 1219
vn 0.926116 -0.103879 -0.362655
v 52.1376 -162.894 1218.48
vn 0.811287 -0.475553 0.340091
v 52.0236 -163.038 1218.84
vn 0.835197 0.17737 0.520563
v 52.1009 -163.188 1218.6
vn 0.800464 0.404858 0.441981
v 52.1812 -163.131 1218.42
vn -0.763063 0.249386 0.596273
v 52.4082 -160.654 1219.12
vn -0.529033 0.107301 -0.84179
v 51.5614 -163.993 1216.93
vn -0.0427403 0.587283 -0.808252
v 51.8426 -163.641 1216.95
vn 0.213184 0.609532 -0.763559
v 51.5314 -162.568 1217.96
vn 0.350852 0.585918 -0.730481
v 51.594 -162.415 1218.08
vn 0.95696 0.0789119 -0.279285
v 52.0249 -162.879 1218.1
vn 0.818308 -0.303125 -0.488352
v 52.0785 -162.733 1218.24
vn -0.471258 0.184878 -0.862401
v 52.4422 -160.63 1218.14
vn 0.569709 -0.191455 -0.799235
v 52.8678 -161.097 1218.18
vn 0.844398 -0.424431 0.32688
v 52.8041 -161.524 1219.01
vn 0.887444 -0.424294 0.180051
v 52.8346 -161.748 1218.49
vn -0.270378 -0.394327 0.878295
v 52.2278 -159.8 1219.07
vn -0.819216 -0.040217 0.572074
v 52.1667 -160.286 1218.65
vn -0.6466 -0.399805 -0.649665
v 52.476 -160.156 1218.15
vn 0.0544775 0.172073 0.983577
v 52.7542 -159.37 1219
vn 0.209769 0.208354 -0.955293
v 52.8781 -159.458 1218.33
vn -0.820089 -0.145631 0.553395
v 52.4596 -160.184 1219.11
vn 0.182433 0.0709056 -0.980658
v 52.876 -160.33 1218.12
vn 0.284893 0.0353653 0.957907
v 52.8156 -160.367 1219.16
vn 0.97642 0.20443 -0.0693691
v 53.228 -160.101 1218.75
vn 0.791212 0.0675622 -0.607798
v 53.1108 -160.276 1218.27
vn 0.964224 -0.178875 -0.195641
v 53.2155 -160.722 1218.54
vn 0.939382 -0.268692 0.212992
v 53.1161 -160.754 1218.95
vn -0.347817 -0.937141 0.028126
v 51.0355 -152.974 1247.47
vn -0.210504 -0.933637 -0.289845
v 51.1531 -152.957 1247.07
vn -0.153349 -0.892878 0.423383
v 51.2076 -152.903 1247.89
vn 0.18992 -0.596585 0.779754
v 51.4923 -152.706 1248.18
vn 0.0273965 -0.997318 0.0678638
v 51.4789 -153.042 1247.46
vn 0.378344 -0.807188 0.453104
v 51.7661 -152.892 1247.84
vn 0.425344 -0.904991 0.00861283
v 51.8733 -152.954 1247.41
vn 0.472081 0.247039 0.846234
v 51.4153 -151.889 1248.56
vn 0.662986 0.544833 0.513427
v 51.9475 -151.279 1247.99
vn 0.774599 -0.132386 0.618441
v 52.2052 -152.01 1248.1
vn -0.0647912 -0.456475 -0.887374
v 51.414 -152.416 1246.44
vn 0.127303 -0.126938 -0.983708
v 51.5429 -152.235 1246.38
vn -0.149976 -0.74485 -0.650158
v 51.3331 -152.808 1246.74
vn 0.173932 -0.692199 -0.700434
v 51.6403 -152.728 1246.68
vn 0.338188 -0.487024 -0.805256
v 51.8374 -152.466 1246.55
vn 0.492762 -0.206176 -0.845386
v 51.9676 -152.267 1246.52
vn 0.207301 -0.91204 -0.353848
v 51.6285 -152.974 1247.05
vn 0.441925 -0.70027 -0.560647
v 51.8551 -152.727 1246.78
vn 0.6332 -0.496087 -0.5941
v 52.1125 -152.463 1246.76
vn 0.766102 -0.214617 -0.605827
v 52.1896 -152.222 1246.7
vn 0.621402 -0.721944 -0.304395
v 52.1727 -152.715 1247.16
vn 0.856012 -0.382223 -0.348065
v 52.3077 -152.482 1247.07
vn 0.800285 -0.580698 0.149445
v 52.261 -152.668 1247.45
vn 0.378766 0.219584 -0.899065
v 51.8532 -151.693 1246.48
vn 0.550066 0.6166 -0.563233
v 51.9683 -151.396 1246.74
vn 0.678419 0.127432 -0.723539
v 52.1541 -151.92 1246.63
vn 0.896817 0.442341 0.00732554
v 52.3859 -151.606 1247.4
vn 0.890706 0.110737 -0.440885
v 52.3391 -151.901 1246.89
vn 0.992403 -0.121273 -0.0207387
v 52.4585 -152.157 1247.25
vn -0.806834 -0.513178 -0.292689
v 50.1483 -161.873 1232.86
vn -0.726567 -0.658302 0.196822
v 50.3327 -162.158 1233.31
vn -0.638134 -0.600126 0.482321
v 49.9222 -161.405 1233.88
vn -0.388512 -0.532769 0.751808
v 50.1302 -161.37 1234.09
vn -0.135462 -0.365553 0.920881
v 50.267 -161.058 1234.3
vn 0.79458 0.603607 0.065584
v 50.7604 -159.685 1233.63
vn 0.755748 0.449604 0.476131
v 50.915 -160.138 1234.01
vn -0.676001 -0.206236 -0.707452
v 50.2182 -161.546 1232.53
vn -0.375415 0.126465 -0.918188
v 50.0932 -160.524 1232.58
vn 0.0390097 0.472491 -0.880472
v 50.2937 -160.168 1232.66
vn 0.491922 0.730893 -0.473084
v 51.3835 -160.827 1232.47
vn -0.6929 -0.721024 0.00373809
v 51.4048 -164.811 1217.74
vn -0.0243544 -0.535367 0.844268
v 51.7051 -164.298 1218.71
vn -0.343503 -0.789449 0.5087
v 52.2574 -165.329 1217.86
vn 0.599085 0.227604 0.767655
v 52.9707 -164.4 1218.25
vn -0.66565 -0.572544 -0.478647
v 52.8869 -165.775 1216.28
vn 0.171663 0.814133 -0.554725
v 52.5233 -163.838 1216.72
vn -0.599193 -0.166459 -0.783108
v 52.6399 -165.063 1216.15
vn 0.614626 0.769012 0.175657
v 53.0424 -163.742 1217.71
vn -0.385673 0.259305 -0.885448
v 53.0286 -164.918 1215.93
vn -0.464381 -0.6664 0.58332
v 50.8203 -162.415 1233.6
vn -0.715209 -0.698403 -0.0266254
v 50.8188 -162.721 1232.89
vn -0.599602 -0.743891 0.295135
v 50.9489 -162.783 1233.17
vn 0.150523 -0.20808 0.96646
v 51.2736 -161.883 1234.04
vn 0.547232 0.239293 0.802045
v 51.6086 -161.39 1233.93
vn -0.1555 -0.483859 0.86122
v 51.2975 -162.302 1233.88
vn -0.700089 -0.401895 -0.590216
v 50.8774 -162.491 1232.31
vn -0.72897 -0.592141 -0.34347
v 50.9256 -162.727 1232.48
vn -0.55627 -0.175281 -0.812306
v 51.4309 -162.575 1231.85
vn -0.657165 -0.481476 -0.579927
v 51.5755 -163.114 1231.97
vn 0.0437277 0.556265 -0.829854
v 52.2876 -162.05 1231.67
vn -0.673087 -0.703843 -0.227066
v 51.6921 -163.488 1232.36
vn -0.599673 -0.792723 0.109467
v 51.8026 -163.592 1232.61
vn 0.6671 0.706778 0.235461
v 52.3288 -161.353 1233.13
vn 0.355058 0.773015 -0.525719
v 52.6196 -161.711 1232.11
vn 0.523293 0.840975 -0.137568
v 52.784 -161.644 1232.56
vn -0.288095 0.139868 -0.947332
v 52.5057 -162.946 1231.31
vn 0.317342 -0.243463 0.916526
v 53.1594 -164.922 1218.14
vn -0.520761 -0.853695 0.00369244
v 52.8498 -165.96 1216.89
vn 0.0136791 -0.609143 0.792942
v 53.1539 -165.513 1217.87
vn -0.550972 -0.399086 -0.732912
v 53.8054 -166.109 1215.68
vn -0.356925 -0.00149501 -0.934132
v 54.2378 -165.588 1215.27
vn -0.455475 -0.749744 -0.480027
v 54.0925 -166.409 1215.72
vn -0.363561 -0.459117 -0.810577
v 54.2917 -166.219 1215.41
vn 0.0352098 -0.327713 -0.944121
v 54.6977 -166.031 1215.23
vn -0.278266 -0.959665 -0.0401468
v 54.2812 -166.685 1216.18
vn -0.0368095 -0.703765 -0.709479
v 54.6159 -166.44 1215.49
vn -0.0709709 0.563621 -0.822979
v 54.5277 -165.06 1215.41
vn 0.394921 0.833498 -0.386418
v 55.057 -164.802 1215.84
vn 0.0376484 0.169023 -0.984893
v 54.767 -165.547 1215.19
vn 0.310887 0.472969 -0.824409
v 54.9344 -165.214 1215.34
vn 0.602805 0.742863 0.291171
v 55.2327 -164.906 1216.74
vn 0.42609 -0.0351198 -0.903999
v 55.1048 -165.748 1215.27
vn -0.468227 -0.779084 0.416884
v 51.9579 -163.585 1232.95
vn -0.25413 -0.652626 0.713791
v 52.2044 -163.415 1233.32
vn -0.0589774 -0.720452 0.690992
v 52.9384 -163.885 1233.1
vn 0.0626695 -0.466805 0.882137
v 53.074 -163.574 1233.31
vn -0.606902 -0.595825 -0.525988
v 52.4354 -163.852 1231.67
vn -0.362931 -0.488459 -0.793529
v 52.7414 -163.777 1231.38
vn -0.52 -0.836665 -0.172022
v 52.558 -164.154 1232.09
vn -0.417711 -0.754379 -0.506389
v 52.6949 -164.097 1231.71
vn -0.423727 -0.884638 0.194607
v 52.6853 -164.223 1232.36
vn -0.138472 -0.721449 -0.678481
v 53.0479 -164.026 1231.46
vn -0.21568 -0.976317 -0.0169344
v 52.9099 -164.317 1232.2
vn -0.0993707 -0.928658 -0.35738
v 53.0419 -164.269 1231.82
vn 0.239548 -0.745809 -0.621599
v 53.4415 -164.11 1231.6
vn -0.498307 -0.285283 -0.818721
v 52.5256 -163.484 1231.37
vn -0.311207 -0.818295 0.483263
v 52.6754 -164.067 1232.76
vn 0.334381 -0.196821 0.921657
v 53.3865 -163.466 1233.3
vn -0.0294051 -0.925646 0.377246
v 53.0833 -164.288 1232.53
vn 0.709239 -0.0388301 0.703898
v 53.959 -163.336 1233.02
vn 0.174798 -0.983842 -0.0387348
v 53.3879 -164.328 1232.19
vn 0.281276 -0.895856 -0.343985
v 53.5557 -164.206 1231.85
vn 0.460283 -0.866864 -0.191536
v 53.767 -164.152 1231.97
vn 0.564713 -0.666785 -0.486309
v 53.7864 -164.057 1231.78
vn 0.684461 0.475183 0.552914
v 53.8626 -162.536 1232.77
vn 0.721581 0.684062 0.106677
v 53.9946 -162.489 1232.39
vn 0.531583 0.1574 0.832253
v 53.6767 -163.047 1233.18
vn 0.906585 0.293103 0.303635
v 54.1762 -162.895 1232.57
vn 0.0259096 -0.511854 -0.858682
v 53.1808 -163.87 1231.32
vn 0.00985829 0.377508 -0.925954
v 53.1949 -162.713 1231.25
vn -0.107522 -0.108587 -0.988255
v 53.063 -163.363 1231.14
vn 0.309942 0.66336 -0.681094
v 53.5037 -162.513 1231.46
vn 0.310929 0.27313 -0.910342
v 53.5607 -162.909 1231.23
vn 0.622065 0.712254 -0.325161
v 53.897 -162.473 1231.89
vn 0.597656 0.48462 -0.63871
v 53.8492 -162.709 1231.52
vn 0.392627 -0.306922 -0.866973
v 53.6878 -163.474 1231.25
vn 0.667251 0.109206 -0.736784
v 53.8769 -163.125 1231.35
vn 0.893657 0.438919 -0.0934167
v 54.1543 -162.72 1232.16
vn 0.847304 0.319018 -0.424623
v 54.1271 -162.952 1231.72
vn 0.987593 0.0933512 -0.126272
v 54.2825 -163.21 1232.06
vn 0.740163 -0.293698 -0.604897
v 54.0296 -163.563 1231.57
vn 0.885415 -0.00496409 -0.464775
v 54.1843 -163.239 1231.75
vn -0.160309 -0.868182 0.469639
v 54.4112 -166.557 1216.89
vn 0.127182 -0.936738 0.326109
v 54.8706 -166.665 1216.69
vn 0.246368 -0.608752 0.754138
v 54.9497 -166.401 1217.04
vn 0.527929 -0.196218 0.826311
v 55.2825 -165.873 1217.14
vn -0.155925 -0.899789 -0.407514
v 54.6029 -166.689 1215.87
vn 0.111739 -0.98585 -0.124953
v 54.7824 -166.734 1215.99
vn 0.224258 -0.847934 -0.480329
v 54.8945 -166.642 1215.79
vn 0.500948 -0.551159 -0.66729
v 55.3332 -166.308 1215.64
vn 0.445183 -0.887454 0.11932
v 55.1943 -166.651 1216.39
vn 0.561675 -0.798286 -0.217393
v 55.3471 -166.531 1216.04
vn 0.750987 0.64881 -0.122736
v 55.5378 -165.062 1216.15
vn 0.692494 0.377862 -0.61455
v 55.484 -165.377 1215.62
vn 0.651069 0.321111 0.687747
v 55.3159 -165.405 1217.08
vn 0.85568 0.401832 0.326104
v 55.5799 -165.195 1216.58
vn 0.775828 -0.122249 -0.618988
v 55.4747 -165.819 1215.53
vn 0.96895 0.156256 -0.191626
v 55.744 -165.532 1216.09
vn 0.58017 -0.63685 0.507764
v 55.3257 -166.421 1216.75
vn 0.832709 -0.12411 0.539623
v 55.5933 -165.851 1216.84
vn 0.807433 -0.56202 0.179403
v 55.5484 -166.344 1216.42
vn 0.978489 -0.0700342 0.19405
v 55.7467 -165.739 1216.5
vn 0.895694 -0.383041 -0.225858
v 55.6442 -166.189 1216.06
vn 0.358078 -0.62219 0.696175
v 53.7095 -163.917 1232.94
vn 0.510055 -0.832367 0.216817
v 53.784 -164.168 1232.43
vn 0.778759 -0.44753 0.439603
v 54.0736 -163.719 1232.72
vn 0.706206 -0.685652 -0.176508
v 53.9446 -164.053 1232.09
vn 0.862229 -0.502549 0.0632862
v 54.1731 -163.775 1232.28
vn 0.970759 -0.127694 0.203277
v 54.2721 -163.418 1232.45
vn 0.897731 -0.337338 -0.283342
v 54.1916 -163.56 1231.87
vn -0.369315 0.908342 0.196269
v 42.7523 -141.284 1252.92
vn -0.533269 0.463263 -0.707821
v 42.7523 -141.284 1252.92
vn 0.0186851 0.878276 -0.477788
v 42.7523 -141.284 1252.92
vn -0.573752 0.256077 -0.777967
v 42.6559 -141.644 1252.75
vn -0.550241 -0.0374715 0.834165
v 42.0163 -149.988 1234.75
vn -0.758994 -0.308001 0.57364
v 41.9587 -150.372 1234.6
vn -0.136304 0.186984 0.972861
v 42.2356 -149.648 1234.84
vn -0.239995 0.0172577 -0.970621
v 42.0247 -150.306 1234.42
vn 0.552896 0.103581 0.826787
v 42.2723 -149.961 1234.88
vn 0.688222 -0.363381 0.627937
v 42.2723 -149.961 1234.88
vn 0.751636 -0.295323 0.58977
v 42.4671 -149.665 1234.84
vn -0.715373 0.499461 0.488651
v 42.1671 -149.449 1234.54
vn -0.267001 0.88339 -0.38514
v 42.1671 -149.449 1234.54
vn 0.248498 0.346757 0.904438
v 42.4632 -149.336 1234.72
vn -0.26523 0.950567 -0.161476
v 42.4632 -149.336 1234.72
vn 0.744755 0.646176 0.166722
v 42.4632 -149.336 1234.72
vn -0.25421 0.768031 -0.587797
v 42.4638 -149.489 1234.36
vn 0.669216 0.162346 -0.725116
v 42.4638 -149.489 1234.36
vn 0.85666 0.51547 0.0206173
v 42.5251 -149.354 1234.51
vn 0.710305 0.353922 -0.608445
v 42.5251 -149.354 1234.51
vn 0.751636 -0.295323 0.58977
v 42.5746 -149.911 1234.58
vn 0.956127 -0.142387 -0.256022
v 42.5746 -149.911 1234.58
vn 0.80745 -0.224278 0.54564
v 42.6076 -149.499 1234.7
vn 0.945897 0.322618 0.0345844
v 42.6076 -149.499 1234.7
vn 0.669216 0.162346 -0.725116
v 42.6119 -149.591 1234.47
vn -0.638177 -0.583129 0.502683
v 42.7025 -141.715 1253.29
vn -0.238161 0.211365 0.947947
v 42.7025 -141.715 1253.29
vn -0.245214 -0.499551 0.830855
v 42.7025 -141.715 1253.29
vn 0.179859 0.822043 -0.540274
v 43.0429 -141.479 1252.57
vn -0.0464857 0.486325 -0.872541
v 43.0429 -141.479 1252.57
vn -0.694404 -0.5851 0.418881
v 42.7793 -142.162 1252.87
vn -0.238161 0.211365 0.947947
v 43.14 -141.738 1253.41
vn -0.095393 -0.451219 0.8873
v 43.14 -141.738 1253.41
vn -0.369315 0.908342 0.196269
v 42.9907 -141.263 1253.27
vn -0.238161 0.211365 0.947947
v 42.9907 -141.263 1253.27
vn 0.385261 0.37541 0.842995
v 42.9907 -141.263 1253.27
vn 0.265071 0.824191 0.500446
v 42.9907 -141.263 1253.27
vn 0.046816 0.876649 -0.478847
v 43.0795 -141.191 1253.1
vn 0.265071 0.824191 0.500446
v 43.0795 -141.191 1253.1
vn 0.453584 0.891191 -0.00633759
v 43.0795 -141.191 1253.1
vn 0.265071 0.824191 0.500446
v 43.2524 -141.279 1253.15
vn -0.573842 -0.419423 -0.703413
v 42.2867 -150.994 1234.55
vn -0.454089 -0.871645 -0.184494
v 42.2867 -150.994 1234.55
vn -0.232652 0.0400422 -0.971735
v 42.4565 -150.692 1234.31
vn 0.342047 0.437202 -0.83178
v 42.4565 -150.692 1234.31
vn 0.593327 -0.0376714 -0.804079
v 42.3738 -150.422 1234.34
vn 0.900728 -0.160146 -0.403785
v 42.3738 -150.422 1234.34
vn 0.446202 0.236088 -0.86323
v 42.3738 -150.422 1234.34
vn 0.59348 0.68694 -0.419398
v 42.3738 -150.422 1234.34
vn 0.253893 0.194121 0.947552
v 42.3052 -150.681 1234.89
vn -0.150526 -0.281334 0.947731
v 42.3052 -150.681 1234.89
vn 0.663662 0.535136 0.522668
v 42.4677 -150.454 1234.81
vn 0.865336 -0.104887 -0.490095
v 42.5534 -150.388 1234.65
vn 0.665906 0.51734 0.537521
v 42.5534 -150.388 1234.65
vn 0.701652 0.648319 -0.295578
v 42.5534 -150.388 1234.65
vn 0.615942 0.731078 -0.293497
v 42.6959 -150.634 1234.44
vn 0.355975 0.571174 -0.739623
v 43.6168 -151.079 1234.46
vn -0.780592 0.14027 -0.609099
v 46.8951 -142.343 1250.37
vn -0.839187 0.479927 -0.255803
v 46.8951 -142.343 1250.37
vn -0.821801 0.519114 -0.234869
v 47.0329 -142.009 1250.54
vn -0.954343 0.106156 -0.279215
v 49.3342 -138.384 1250.5
vn -0.305276 0.69518 -0.650792
v 49.3899 -138.311 1250.32
vn -0.961407 0.098789 -0.256784
v 49.3899 -138.311 1250.32
vn -0.335581 0.155992 -0.929006
v 49.3899 -138.311 1250.32
vn -0.301562 -0.306441 0.902859
v 43.9754 -151.924 1234.79
vn -0.605492 -0.783321 -0.140669
v 43.9754 -151.924 1234.79
vn 0.185137 0.345457 0.919991
v 43.8585 -151.443 1234.92
vn -0.235725 -0.341733 -0.909754
v 43.9212 -151.806 1234.37
vn 0.40953 0.587863 -0.697641
v 44.4003 -151.847 1234.28
vn 0.194283 0.073847 -0.978162
v 44.4003 -151.847 1234.28
vn 0.734737 0.655376 -0.175055
v 44.7567 -151.853 1234.74
vn -0.45229 -0.241361 -0.858591
v 44.6169 -152.601 1234.43
vn -0.9286 -0.118739 0.351572
v 44.6169 -152.601 1234.43
vn -0.918531 -0.356261 -0.171399
v 44.6169 -152.601 1234.43
vn 0.130752 0.111371 -0.98514
v 44.9217 -152.139 1234.37
vn 0.603053 0.285963 -0.744682
v 44.9217 -152.139 1234.37
vn 0.543797 0.674029 -0.49997
v 44.1465 -151.33 1234.63
vn -0.660861 1.68756e-005 -0.750508
v 44.817 -146.144 1250.46
vn -0.790809 -0.570234 0.222381
v 44.817 -146.144 1250.46
vn 0.166518 0.731376 0.661333
v 46.2296 -145.994 1250.94
vn -0.959638 0.240757 0.145364
v 46.2296 -145.994 1250.94
vn 0.13575 0.462496 -0.876167
v 45.5894 -145.372 1250.27
vn 0.167423 0.510315 -0.843533
v 45.4871 -146.094 1249.87
vn 0.166518 0.731376 0.661333
v 46.0948 -145.604 1250.54
vn -0.571747 0.745156 -0.343289
v 46.0948 -145.604 1250.54
vn 0.551114 0.742442 -0.380859
v 46.0852 -145.74 1250.26
vn -0.571747 0.745156 -0.343289
v 46.0852 -145.74 1250.26
vn -0.571747 0.745156 -0.343289
v 46.2668 -145.53 1250.42
vn 0.0184051 0.580147 -0.814304
v 46.2668 -145.53 1250.42
vn -0.875928 0.232568 -0.422685
v 46.2668 -145.53 1250.42
vn -0.959638 0.240757 0.145364
v 46.2668 -145.53 1250.42
vn -0.841602 0.242769 -0.482462
v 46.3092 -146.077 1250.03
vn -0.959638 0.240757 0.145364
v 46.5441 -144.44 1250.44
vn 0.559213 0.147871 0.81573
v 46.5441 -144.44 1250.44
vn -0.922727 0.166521 0.347628
v 46.5441 -144.44 1250.44
vn -0.594034 -0.0425457 0.803314
v 46.5441 -144.44 1250.44
vn -0.140075 0.0639154 0.988076
v 46.9752 -142.888 1250.84
vn -0.594034 -0.0425457 0.803314
v 46.9752 -142.888 1250.84
vn 0.290736 -0.150734 0.944855
v 46.9752 -142.888 1250.84
vn 0.885903 -0.373017 0.275742
v 47.6595 -142.398 1250.71
vn 0.369978 -0.221478 0.902255
v 47.5575 -141.94 1250.87
vn 0.774004 -0.264784 -0.575158
v 47.3868 -142.929 1250.11
vn -0.702441 0.610281 0.366244
v 47.8633 -140.857 1250.43
vn 0.31618 -0.207006 0.925839
v 48.0552 -141.147 1250.85
vn 0.215177 -0.159423 -0.963474
v 48.6269 -140.546 1250.1
vn 0.766633 -0.550924 0.329782
v 48.0984 -141.618 1250.71
vn 0.470058 -0.374102 0.799433
v 48.3058 -141.43 1250.64
vn -0.711671 0.461072 -0.530035
v 49.0139 -139.657 1250.4
vn -0.351876 0.324761 0.877903
v 49.068 -139.923 1250.8
vn -0.0228115 0.0189764 0.99956
v 49.068 -139.923 1250.8
vn -0.0609519 0.0530487 0.99673
v 49.3192 -139.522 1250.79
vn 0.418034 -0.19667 0.886887
v 49.4723 -140.048 1250.72
vn 0.717174 -0.6598 -0.224332
v 49.3128 -140.427 1250.52
vn 0.839279 -0.443011 0.315202
v 49.6345 -139.847 1250.66
vn 0.720354 -0.521267 -0.45757
v 49.5146 -140.177 1250.47
vn -0.939292 0.25915 -0.224881
v 49.3226 -139.215 1250.23
vn -0.362555 0.0991462 -0.926673
v 49.3226 -139.215 1250.23
vn -0.299279 0.239871 -0.923523
v 49.1623 -139.63 1250.22
vn 0.269512 0.0103446 -0.962942
v 49.5552 -139.032 1250.14
vn 0.290784 -0.0818912 -0.953278
v 49.5077 -139.5 1250.14
vn 0.739128 -0.44438 -0.506178
v 49.4384 -139.983 1250.18
vn 0.940237 -0.259034 0.221032
v 49.8175 -139.42 1250.62
vn 0.819271 -0.295908 -0.491156
v 49.6606 -139.611 1250.21
vn 0.967928 -0.178306 0.17698
v 49.868 -139.344 1250.44
vn 0.791819 -0.373287 -0.483404
v 49.7332 -139.779 1250.45
vn -0.187622 0.890733 0.413996
v 49.6773 -138.178 1250.73
vn 0.0112331 0.134365 0.990868
v 49.6773 -138.178 1250.73
vn 0.58383 0.423331 0.692772
v 49.6773 -138.178 1250.73
vn -0.305276 0.69518 -0.650792
v 49.5695 -138.084 1250.48
vn -0.187622 0.890733 0.413996
v 49.5695 -138.084 1250.48
vn 0.162502 0.928488 -0.33392
v 49.5695 -138.084 1250.48
vn -0.173972 0.1074 0.978876
v 49.4682 -138.52 1250.75
vn 0.162502 0.928488 -0.33392
v 49.7832 -138.086 1250.58
vn 0.583452 0.441772 0.681484
v 49.7832 -138.086 1250.58
vn 0.794267 0.580045 -0.180797
v 49.7832 -138.086 1250.58
vn -0.241516 0.183577 -0.952874
v 49.7969 -138.211 1250.24
vn 0.262345 0.0364848 -0.964284
v 49.7969 -138.211 1250.24
vn 0.162502 0.928488 -0.33392
v 49.7969 -138.211 1250.24
vn 0.899456 0.260396 -0.350961
v 49.7969 -138.211 1250.24
vn 0.961357 0.244756 -0.126044
v 49.9136 -138.263 1250.59
vn 0.981805 -0.0836059 0.170495
v 49.9013 -138.736 1250.66
vn 0.86105 -0.103269 -0.497924
v 49.8244 -138.954 1250.22
vn -0.219762 -0.0339498 0.974963
v 44.9212 -154.642 1234.88
vn 0.752833 0.117503 0.647638
v 45.3641 -154.37 1234.9
vn -0.444921 -0.323747 0.835005
v 44.8181 -152.864 1234.88
vn -0.319987 -0.115413 0.940366
v 44.8181 -152.864 1234.88
vn -0.9286 -0.118739 0.351572
v 44.8181 -152.864 1234.88
vn -0.9286 -0.118739 0.351572
v 44.826 -153.294 1234.75
vn 0.138024 0.0267435 0.990068
v 44.9694 -152.983 1234.93
vn -0.932973 0.098869 0.346102
v 45.5755 -151.471 1236.63
vn -0.658878 0.749468 -0.0646299
v 45.5755 -151.471 1236.63
vn -0.957898 -0.286164 -0.0232588
v 45.6495 -151.653 1236.38
vn -0.49043 -0.341616 0.801734
v 45.7074 -151.704 1236.95
vn -0.69763 -0.444058 0.56225
v 45.6474 -151.879 1236.77
vn 0.333954 0.694736 -0.637037
v 46.007 -151.496 1236.31
vn -0.0782722 0.99693 0.00183762
v 45.7907 -151.288 1236.57
vn -0.658878 0.749468 -0.0646299
v 45.7907 -151.288 1236.57
vn 0.191564 0.833954 -0.517517
v 45.7907 -151.288 1236.57
vn -0.658878 0.749468 -0.0646299
v 45.7667 -151.29 1236.78
vn -0.763669 0.373695 0.526461
v 45.7667 -151.29 1236.78
vn 0.0796306 0.740094 0.667773
v 45.7667 -151.29 1236.78
vn -0.206762 -0.0980973 0.973461
v 45.7994 -151.532 1237
vn 0.0860568 0.561296 0.823129
v 45.7994 -151.532 1237
vn 0.130042 0.797979 0.588488
v 46.0464 -151.268 1236.69
vn 0.262011 0.816559 -0.514374
v 46.0464 -151.268 1236.69
vn 0.746829 0.657129 0.102116
v 46.0464 -151.268 1236.69
vn 0.141889 0.436513 0.888439
v 45.9878 -151.613 1237.01
vn 0.721412 0.646953 0.247014
v 46.1257 -151.437 1236.9
vn 0.654257 0.114973 0.747482
v 46.1257 -151.437 1236.9
vn 0.78704 0.173122 -0.592112
v 45.3814 -154.541 1234.29
vn 0.890178 0.452816 -0.0504118
v 45.2361 -152.502 1234.76
vn -0.370235 -0.0816695 -0.925341
v 44.9163 -153.327 1234.34
vn 0.631766 0.178477 -0.754332
v 45.1748 -152.943 1234.26
vn 0.777751 0.0179144 0.628317
v 45.3729 -153.113 1234.85
vn 0.976319 0.170693 0.132912
v 45.3729 -153.113 1234.85
vn 0.0660666 -0.367448 0.927694
v 46.2794 -156.307 1223.23
vn -0.0889125 -0.21559 0.972428
v 46.1878 -156.044 1223.28
vn 0.130306 0.379408 0.916007
v 46.1878 -156.044 1223.28
vn -0.96757 -0.0183898 -0.251931
v 45.9988 -156.066 1223.04
vn -0.938599 -0.30152 -0.167684
v 46.0679 -156.345 1223.04
vn -0.587575 0.239431 -0.772935
v 46.2569 -156.572 1222.39
vn 0.324063 0.762563 -0.559893
v 46.4094 -155.999 1222.56
vn 0.462057 0.738395 -0.491199
v 46.9301 -156.331 1222.55
vn -0.844581 0.443357 -0.300196
v 46.0664 -155.831 1223
vn -0.152502 0.983698 0.095292
v 46.0664 -155.831 1223
vn -0.132351 0.987698 0.0832824
v 46.1842 -155.797 1222.84
vn 0.17474 0.855819 -0.486867
v 46.1842 -155.797 1222.84
vn -0.398087 0.643894 0.653397
v 46.3751 -155.798 1223.16
vn -0.132351 0.987698 0.0832824
v 46.3751 -155.798 1223.16
vn 0.720839 0.619909 0.310006
v 46.3751 -155.798 1223.16
vn 0.619923 0.312525 0.719739
v 46.3751 -155.798 1223.16
vn 0.328191 0.815735 -0.476306
v 46.4399 -155.777 1222.96
vn -0.112125 0.991138 0.0712256
v 46.4399 -155.777 1222.96
vn 0.130306 0.379408 0.916007
v 46.3839 -156.116 1223.29
vn -0.777383 0.392566 0.491495
v 51.6596 -151.142 1218.63
vn -0.990245 -0.0227931 -0.137458
v 51.5619 -151.608 1218.67
vn -0.406578 0.0531198 -0.91207
v 51.6047 -151.527 1218.48
vn -0.402152 0.231849 -0.885731
v 51.76 -151.091 1218.45
vn -0.299028 0.365318 -0.881547
v 52.0409 -150.745 1218.48
vn -0.219966 -0.541614 0.811338
v 46.5337 -147.982 1250.61
vn -0.0331012 -0.407256 0.912714
v 45.7835 -147.088 1250.97
vn -0.333601 -0.583973 0.740058
v 45.7835 -147.088 1250.97
vn 0.568591 -0.00265757 0.822616
v 46.4055 -147.309 1250.84
vn 0.32102 0.659313 -0.679892
v 47.1376 -148.257 1248.79
vn 0.99621 0.0203418 0.0845655
v 46.8599 -146.843 1250.5
vn -0.594034 -0.0425457 0.803314
v 46.9019 -146.616 1250.59
vn 0.237658 -0.0700805 0.968818
v 46.9019 -146.616 1250.59
vn 0.768156 -0.360813 0.528915
v 46.9019 -146.616 1250.59
vn 0.989362 -0.144693 -0.0150932
v 46.9019 -146.616 1250.59
vn 0.938189 0.299496 0.173505
v 46.9131 -147.045 1250.46
vn 0.962259 0.181089 -0.203137
v 45.5296 -154.517 1234.7
vn 0.605535 0.0509844 0.794184
v 45.3099 -155.135 1234.99
vn 0.542004 0.642355 0.54186
v 45.3099 -155.135 1234.99
vn 0.399902 0.237721 -0.885194
v 45.4318 -155.268 1234.22
vn 0.70375 0.466115 -0.536164
v 45.8282 -155.245 1234.6
vn 0.285798 0.509211 0.811803
v 45.8282 -155.245 1234.6
vn 0.610033 0.743884 -0.27294
v 45.8282 -155.245 1234.6
vn 0.407973 0.511825 -0.756038
v 46.4018 -156.01 1234.29
vn -0.84275 -0.137452 -0.520461
v 47.7973 -159.71 1220.47
vn -0.763065 -0.588276 0.2677
v 47.7973 -159.71 1220.47
vn -0.469796 0.192785 -0.861467
v 50.1961 -155.492 1218.37
vn -0.72936 -0.454996 0.510893
v 50.2299 -155.743 1218.8
vn -0.770679 0.618121 0.154858
v 50.1458 -154.939 1218.76
vn -0.660987 0.278439 0.696827
v 50.1458 -154.939 1218.76
vn -0.71822 0.692422 0.0686348
v 50.3365 -154.634 1218.49
vn -0.420156 0.327383 -0.846338
v 50.3365 -154.634 1218.49
vn -0.528916 0.492418 0.691211
v 50.4995 -154.517 1218.83
vn -0.75509 -0.0922578 0.649097
v 50.1447 -155.476 1218.83
vn -0.0977867 0.118214 0.988162
v 50.6658 -154.571 1218.99
vn 0.543812 -0.240623 0.80397
v 50.6004 -155.051 1219.02
vn 0.791377 0.207098 -0.575181
v 50.6982 -155.201 1218.31
vn 0.688059 -0.688374 0.2296
v 50.8709 -155.081 1218.84
vn 0.726045 0.343815 -0.595525
v 50.7681 -155.479 1218.3
vn 0.79679 0.485394 -0.359886
v 50.8862 -155.394 1218.5
vn 0.935917 -0.0944408 -0.339323
v 50.9813 -155.034 1218.66
vn 0.688042 -0.685782 0.237279
v 50.9813 -155.034 1218.66
vn 0.645165 -0.663512 -0.378833
v 50.9813 -155.034 1218.66
vn 0.966286 -0.16703 -0.195937
v 50.9326 -155.414 1218.74
vn 0.811307 0.574784 -0.106791
v 50.9326 -155.414 1218.74
vn 0.73288 0.523158 0.434961
v 50.9326 -155.414 1218.74
vn 0.434228 -0.313225 0.844592
v 51.3866 -154.18 1219
vn 0.200554 -0.16462 -0.965753
v 50.6563 -154.903 1218.25
vn 0.643955 -0.630353 -0.433564
v 50.8054 -155.018 1218.33
vn 0.61317 -0.5448 -0.572028
v 51.5996 -154.15 1218.31
vn 0.709285 -0.689977 0.14438
v 51.5383 -154.481 1218.64
vn -0.500501 0.432755 -0.749815
v 51.2236 -153.815 1218.48
vn -0.491016 -0.00436408 -0.871139
v 51.7446 -152.697 1218.4
vn -0.796875 0.584012 0.154661
v 51.5767 -153.298 1218.58
vn -0.876278 -0.0368901 0.480392
v 51.5767 -153.298 1218.58
vn -0.594537 0.528349 -0.606113
v 51.5767 -153.298 1218.58
vn -0.635386 -0.0603982 -0.769829
v 51.5767 -153.298 1218.58
vn -0.195123 0.18961 0.962276
v 51.3499 -153.879 1218.94
vn -0.39657 0.063378 0.915814
v 51.761 -153.221 1218.92
vn 0.0628441 -0.0499998 -0.99677
v 51.5371 -153.858 1218.29
vn -0.53723 -0.016547 -0.843274
v 51.9151 -153.243 1218.3
vn 0.13631 0.00345549 -0.99066
v 51.9151 -153.243 1218.3
vn -0.0896661 0.0611421 0.994093
v 52.1246 -153.015 1218.94
vn 0.802471 -0.589012 -0.0954203
v 51.9981 -153.979 1218.56
vn -0.247044 0.0963794 0.964199
v 51.7421 -151.322 1218.89
vn -0.174033 0.15379 0.972657
v 51.9783 -150.94 1218.89
vn 0.476129 -0.0813875 0.875601
v 51.9014 -151.429 1218.95
vn 0.41035 -0.227887 0.882995
v 52.0278 -151.232 1218.93
vn 0.355678 -0.333353 0.873138
v 52.1853 -150.977 1218.93
vn 0.194143 0.0140036 -0.980873
v 51.9546 -151.609 1218.33
vn 0.5951 -0.0430754 -0.802496
v 51.9546 -151.609 1218.33
vn -0.615342 -0.0125831 0.78816
v 51.6686 -152.243 1218.83
vn -0.793228 0.0249314 0.608415
v 51.6686 -152.243 1218.83
vn 0.991674 0.101161 -0.0796822
v 52.1729 -151.567 1218.51
vn 0.860445 -0.488638 0.144453
v 52.1729 -151.567 1218.51
vn 0.991461 0.0992198 -0.0846211
v 52.1853 -151.468 1218.77
vn 0.860445 -0.488638 0.144453
v 52.1853 -151.468 1218.77
vn 0.871984 -0.178276 -0.455919
v 52.3325 -151.234 1218.69
vn 0.860445 -0.488638 0.144453
v 52.3325 -151.234 1218.69
vn 0.604428 -0.729829 -0.319399
v 52.3325 -151.234 1218.69
vn 0.218409 -0.089441 -0.97175
v 52.0047 -151.139 1218.33
vn 0.586293 -0.767275 -0.259904
v 52.1737 -151.232 1218.38
vn 0.639515 -0.749209 -0.172354
v 52.7515 -150.918 1218.76
vn 0.0697401 0.987623 -0.140492
v 52.6244 -150.372 1218.65
vn 0.225831 0.0781071 -0.97103
v 52.6976 -150.519 1218.4
vn -0.263044 0.788777 -0.555553
v 52.6976 -150.519 1218.4
vn 0.504636 0.372591 0.778793
v 52.7353 -150.499 1218.89
vn 0.0697401 0.987623 -0.140492
v 52.8501 -150.372 1218.75
vn 0.504636 0.372591 0.778793
v 52.8501 -150.372 1218.75
vn 0.810428 0.583776 0.0491136
v 52.8501 -150.372 1218.75
vn 0.0697401 0.987623 -0.140492
v 52.8954 -150.413 1218.49
vn 0.884145 0.459096 -0.0867076
v 52.8954 -150.413 1218.49
vn 0.294123 0.209148 -0.932603
v 52.8954 -150.413 1218.49
vn 0.504636 0.372591 0.778793
v 53.0309 -150.624 1218.76
vn 0.884145 0.459096 -0.0867076
v 53.0309 -150.624 1218.76
vn 0.72489 -0.68882 0.00788745
v 53.0309 -150.624 1218.76
vn 0.6516 -0.752393 -0.0965568
v 52.9794 -150.681 1218.46
vn 0.923003 0.316316 -0.21911
v 52.9794 -150.681 1218.46
vn -0.415585 -0.647823 0.638447
v 46.8893 -149.368 1249.67
vn 0.785877 0.54606 0.290198
v 47.983 -148.64 1249.98
vn 0.70668 0.68521 -0.176325
v 48.4393 -148.707 1249.02
vn 0.751683 0.626799 0.205174
v 48.4393 -148.707 1249.02
vn -0.0886911 -0.0758419 -0.993168
v 46.2502 -156.618 1234.35
vn -0.402812 -0.678305 -0.614528
v 46.2502 -156.618 1234.35
vn 0.230879 0.21874 0.948076
v 46.4753 -156.027 1234.88
vn -0.206083 -0.0182242 0.978365
v 46.4753 -156.027 1234.88
vn -0.758143 -0.0240874 -0.651643
v 47.0755 -156.162 1234.89
vn -0.0130269 0.282194 0.959269
v 47.0755 -156.162 1234.89
vn 0.610033 0.743884 -0.27294
v 47.0755 -156.162 1234.89
vn -0.850548 0.122026 0.511544
v 47.0755 -156.162 1234.89
vn -0.23327 0.887704 -0.396947
v 47.0755 -156.162 1234.89
vn -0.332726 -0.115782 0.935889
v 47.0883 -156.543 1235
vn -0.850548 0.122026 0.511544
v 47.0883 -156.543 1235
vn -0.632355 -0.355436 0.688326
v 47.1955 -156.317 1235.12
vn -0.850548 0.122026 0.511544
v 47.1955 -156.317 1235.12
vn -0.111718 -0.147077 0.982796
v 47.0747 -156.959 1234.99
vn 0.238274 0.262422 0.935072
v 47.0747 -156.959 1234.99
vn -0.175884 -0.0530803 -0.982979
v 47.7016 -157.277 1234.13
vn 0.312648 0.430638 -0.846642
v 47.7016 -157.277 1234.13
vn -0.565792 -0.0316081 -0.823942
v 47.7016 -157.277 1234.13
vn 0.610033 0.743884 -0.27294
v 47.1144 -156.387 1234.36
vn -0.290347 0.0613745 -0.954951
v 47.1144 -156.387 1234.36
vn -0.23327 0.887704 -0.396947
v 47.1144 -156.387 1234.36
vn -0.378314 0.0565341 -0.923949
v 47.6734 -156.314 1234.2
vn -0.23327 0.887704 -0.396947
v 47.6734 -156.314 1234.2
vn 0.291629 0.693236 -0.659073
v 48.8683 -159.3 1220.15
vn 0.311707 0.764385 -0.564406
v 49.0741 -159.52 1220.68
vn 0.829503 0.52271 0.196722
v 49.0741 -159.52 1220.68
vn -0.31859 0.288012 0.903078
v 50.3251 -158.181 1219.11
vn 0.405995 -0.0941288 0.909015
v 50.3251 -158.181 1219.11
vn 0.21911 0.314113 0.923755
v 50.5748 -158.552 1219.12
vn -0.820039 0.474449 -0.320053
v 49.9034 -158.151 1218.52
vn -0.790965 0.488094 -0.36897
v 49.998 -158.103 1218.35
vn -0.738621 0.528114 -0.41897
v 50.1918 -157.594 1218.6
vn -0.617382 0.786658 -0.00287446
v 50.1918 -157.594 1218.6
vn -0.427951 -0.643204 -0.634938
v 50.2429 -158.672 1218.27
vn 0.665434 0.266896 -0.697112
v 50.7762 -158.194 1218.29
vn 0.672079 -0.587884 -0.450226
v 50.7762 -158.194 1218.29
vn 0.457651 0.804 -0.379657
v 50.7762 -158.194 1218.29
vn -0.545336 -0.669944 -0.50377
v 50.4518 -159.02 1218.49
vn 0.912116 0.204725 0.355151
v 50.9968 -158.094 1218.82
vn 0.739905 -0.638209 0.212672
v 50.9968 -158.094 1218.82
vn 0.733893 -0.639205 0.229825
v 51.089 -158.044 1218.65
vn 0.665434 0.266896 -0.697112
v 51.089 -158.044 1218.65
vn 0.682406 -0.656014 -0.322439
v 51.089 -158.044 1218.65
vn 0.665434 0.266896 -0.697112
v 51.1259 -158.278 1218.59
vn 0.447068 0.888306 -0.105079
v 51.1259 -158.278 1218.59
vn 0.903152 0.37338 0.211907
v 51.0753 -158.272 1218.8
vn 0.423456 0.874506 0.236482
v 51.0753 -158.272 1218.8
vn -0.617382 0.786658 -0.00287446
v 50.8685 -157.064 1218.4
vn -0.994305 0.0696293 -0.0806804
v 50.8685 -157.064 1218.4
vn -0.871179 -0.431091 0.234961
v 50.8811 -156.765 1218.51
vn -0.814593 0.46943 0.340697
v 50.8811 -156.765 1218.51
vn -0.994305 0.0696293 -0.0806804
v 50.8811 -156.765 1218.51
vn -0.60692 0.282469 -0.742873
v 50.8811 -156.765 1218.51
vn -0.617382 0.786658 -0.00287446
v 50.8314 -157.091 1218.84
vn -0.994305 0.0696293 -0.0806804
v 50.8314 -157.091 1218.84
vn -0.947803 -0.274642 0.16199
v 50.9687 -156.864 1218.85
vn -0.6059 -0.217782 0.765152
v 50.9687 -156.864 1218.85
vn -0.71968 -0.389064 -0.575056
v 51.1238 -156.865 1218.27
vn -0.360454 0.199022 0.911298
v 51.1869 -156.821 1219.04
vn 0.824871 0.322013 -0.464645
v 51.5451 -156.573 1218.27
vn 0.816048 -0.539317 0.207852
v 51.5806 -157.506 1218.59
vn 0.812099 -0.292303 -0.505029
v 51.6437 -157.157 1218.35
vn 0.723147 0.520989 0.453464
v 51.0611 -155.595 1218.74
vn 0.362042 0.787393 -0.498937
v 49.6465 -149.959 1247.92
vn 0.601984 0.793168 0.0921956
v 49.6465 -149.959 1247.92
vn -0.402812 -0.678305 -0.614528
v 47.5952 -157.515 1234.46
vn 0.197697 0.199114 -0.959828
v 51.9691 -159.423 1218.15
vn -0.423993 -0.573592 -0.700873
v 51.9691 -159.423 1218.15
vn -0.447589 -0.871557 0.200134
v 51.918 -159.777 1218.47
vn -0.859203 -0.263925 0.438307
v 51.918 -159.777 1218.47
vn 0.503288 0.759054 0.412962
v 52.3134 -158.942 1218.93
vn 0.179263 0.122478 -0.976148
v 52.2568 -159.746 1218.18
vn 0.0636128 -0.464252 0.883416
v 50.5191 -151.64 1248.88
vn 0.601004 0.779904 0.174771
v 50.2592 -150.528 1248.82
vn 0.851051 0.502648 0.151847
v 49.7194 -158.207 1234.08
vn 0.0259145 0.393827 -0.918819
v 49.4302 -159.025 1233.12
vn 0.773351 0.632879 -0.0373086
v 51.1925 -162.258 1218.14
vn 0.829503 0.52271 0.196722
v 51.2976 -162.164 1218.32
vn 0.339889 0.914971 0.217495
v 51.2976 -162.164 1218.32
vn -0.905924 0.390676 0.16332
v 51.2976 -162.164 1218.32
vn -0.573733 0.34063 -0.74485
v 51.2976 -162.164 1218.32
vn 0.542384 0.0688184 0.837307
v 51.2035 -162.325 1219.15
vn 0.339889 0.914971 0.217495
v 51.2035 -162.325 1219.15
vn 0.203201 -0.0316644 0.978625
v 51.3497 -162.368 1219.1
vn -0.905924 0.390676 0.16332
v 51.3497 -162.368 1219.1
vn -0.647989 0.394349 0.651612
v 51.3497 -162.368 1219.1
vn 0.739275 -0.439626 0.5101
v 51.6682 -163.451 1219
vn 0.852504 -0.518964 0.0625579
v 52.1376 -162.894 1218.48
vn 0.928628 0.031693 0.369657
v 52.1376 -162.894 1218.48
vn 0.953252 0.0016949 0.30217
v 52.0236 -163.038 1218.84
vn 0.739927 -0.441015 0.50795
v 52.1009 -163.188 1218.6
vn 0.934562 0.236047 -0.266223
v 52.1812 -163.131 1218.42
vn 0.0148992 -0.0626172 0.997926
v 52.4082 -160.654 1219.12
vn 0.551949 0.775676 -0.306071
v 51.5314 -162.568 1217.96
vn -0.0568708 0.0351147 -0.997764
v 51.594 -162.415 1218.08
vn 0.509205 0.43863 -0.740482
v 52.0249 -162.879 1218.1
vn 0.642483 0.766054 -0.0194119
v 52.0249 -162.879 1218.1
vn 0.537992 0.467257 -0.701595
v 52.0785 -162.733 1218.24
vn 0.224427 -0.14386 -0.963814
v 52.0785 -162.733 1218.24
vn 0.192482 -0.109635 0.975157
v 52.8041 -161.524 1219.01
vn 0.754504 -0.363071 -0.54672
v 52.8346 -161.748 1218.49
vn -0.453007 -0.861007 0.231196
v 52.2278 -159.8 1219.07
vn 0.0468513 0.0985914 0.994025
v 52.2278 -159.8 1219.07
vn -0.804317 -0.322413 0.499123
v 52.2278 -159.8 1219.07
vn -0.66339 -0.517096 -0.540856
v 52.1667 -160.286 1218.65
vn -0.905924 0.390676 0.16332
v 52.1667 -160.286 1218.65
vn -0.773328 0.246678 -0.58405
v 52.1667 -160.286 1218.65
vn -0.857859 0.0683484 -0.509319
v 52.476 -160.156 1218.15
vn 0.0434567 0.138456 -0.989415
v 52.476 -160.156 1218.15
vn 0.756416 0.623362 0.198128
v 52.7542 -159.37 1219
vn 0.641625 0.162863 0.749528
v 52.7542 -159.37 1219
vn 0.461056 0.752276 -0.470647
v 52.8781 -159.458 1218.33
vn 0.869153 0.490992 -0.0591502
v 52.8781 -159.458 1218.33
vn -0.0531705 0.104689 0.993083
v 52.4596 -160.184 1219.11
vn 0.654285 0.134863 0.744126
v 53.228 -160.101 1218.75
vn 0.576892 -0.00660613 0.816793
v 53.1161 -160.754 1218.95
vn 0.323909 -0.371976 0.869894
v 51.4153 -151.889 1248.56
f 2//2 20//20 18//18
f 1//1 2//2 18//18
f 18//18 24//24 1//1
f 55//55 20//20 2//2
f 559//559 592//592 25//25
f 560//560 19//19 562//562
f 58//58 562//562 19//19
f 587//587 561//561 596//596
f 4//4 7//7 5//5
f 5//5 3//3 4//4
f 3//3 6//6 4//4
f 11//11 7//7 4//4
f 4//4 10//10 11//11
f 570//570 4//4 6//6
f 6//6 12//12 570//570
f 8//8 565//565 563//563
f 565//565 8//8 9//9
f 30//30 566//566 11//11
f 9//9 572//572 565//565
f 572//572 9//9 16//16
f 31//31 563//563 564//564
f 32//32 567//567 608//608
f 31//31 8//8 563//563
f 15//15 567//567 32//32
f 568//568 579//579 569//569
f 569//569 579//579 581//581
f 11//11 10//10 13//13
f 575//575 571//571 14//14
f 571//571 573//573 14//14
f 11//11 13//13 30//30
f 17//17 577//577 582//582
f 582//582 577//577 574//574
f 578//578 583//583 576//576
f 604//604 576//576 583//583
f 605//605 17//17 580//580
f 580//580 17//17 582//582
f 58//58 636//636 562//562
f 587//587 596//596 27//27
f 589//589 164//164 584//584
f 57//57 587//587 27//27
f 21//21 22//22 26//26
f 26//26 23//23 27//27
f 23//23 59//59 27//27
f 57//57 27//27 59//59
f 26//26 22//22 23//23
f 593//593 585//585 590//590
f 21//21 26//26 594//594
f 599//599 597//597 595//595
f 27//27 598//598 26//26
f 564//564 28//28 31//31
f 600//600 5//5 7//7
f 29//29 600//600 7//7
f 602//602 566//566 30//30
f 603//603 606//606 35//35
f 28//28 43//43 31//31
f 623//623 44//44 609//609
f 45//45 624//624 601//601
f 15//15 32//32 33//33
f 580//580 611//611 605//605
f 34//34 32//32 608//608
f 36//36 610//610 34//34
f 610//610 36//36 612//612
f 36//36 614//614 613//613
f 613//613 614//614 607//607
f 608//608 625//625 34//34
f 625//625 52//52 34//34
f 52//52 36//36 34//34
f 52//52 37//37 36//36
f 37//37 614//614 36//36
f 626//626 600//600 29//29
f 35//35 615//615 603//603
f 626//626 29//29 46//46
f 627//627 603//603 615//615
f 591//591 586//586 759//759
f 759//759 165//165 591//591
f 761//761 22//22 21//21
f 22//22 761//761 56//56
f 23//23 22//22 56//56
f 38//38 65//65 39//39
f 40//40 64//64 616//616
f 617//617 618//618 40//40
f 618//618 71//71 40//40
f 41//41 106//106 42//42
f 620//620 687//687 109//109
f 45//45 120//120 624//624
f 623//623 703//703 44//44
f 625//625 48//48 54//54
f 704//704 48//48 625//625
f 52//52 625//625 54//54
f 49//49 120//120 45//45
f 630//630 626//626 46//46
f 47//47 53//53 54//54
f 629//629 51//51 635//635
f 51//51 627//627 635//635
f 48//48 47//47 54//54
f 630//630 46//46 50//50
f 50//50 628//628 633//633
f 48//48 138//138 47//47
f 729//729 51//51 629//629
f 53//53 37//37 52//52
f 635//635 627//627 615//615
f 54//54 53//53 52//52
f 267//267 164//164 637//637
f 267//267 637//637 166//166
f 164//164 589//589 637//637
f 638//638 61//61 642//642
f 56//56 59//59 23//23
f 167//167 271//271 58//58
f 641//641 588//588 640//640
f 60//60 641//641 640//640
f 59//59 644//644 57//57
f 762//762 641//641 170//170
f 643//643 646//646 645//645
f 60//60 62//62 641//641
f 60//60 647//647 62//62
f 641//641 62//62 170//170
f 170//170 62//62 168//168
f 762//762 170//170 270//270
f 168//168 62//62 169//169
f 648//648 63//63 650//650
f 64//64 650//650 63//63
f 651//651 649//649 639//639
f 176//176 652//652 56//56
f 169//169 62//62 64//64
f 653//653 65//65 38//38
f 63//63 616//616 64//64
f 39//39 65//65 67//67
f 64//64 40//40 169//169
f 655//655 68//68 67//67
f 654//654 764//764 656//656
f 765//765 66//66 657//657
f 66//66 659//659 657//657
f 659//659 66//66 79//79
f 169//169 40//40 69//69
f 69//69 40//40 73//73
f 69//69 73//73 76//76
f 660//660 76//76 80//80
f 660//660 80//80 70//70
f 70//70 80//80 658//658
f 39//39 67//67 74//74
f 39//39 74//74 661//661
f 72//72 73//73 40//40
f 71//71 72//72 40//40
f 74//74 84//84 661//661
f 71//71 97//97 72//72
f 71//71 666//666 97//97
f 78//78 72//72 676//676
f 68//68 75//75 67//67
f 75//75 74//74 67//67
f 77//77 76//76 73//73
f 77//77 73//73 72//72
f 72//72 78//78 77//77
f 662//662 659//659 79//79
f 92//92 82//82 77//77
f 92//92 77//77 663//663
f 658//658 80//80 664//664
f 81//81 664//664 80//80
f 76//76 82//82 80//80
f 80//80 82//82 81//81
f 82//82 76//76 77//77
f 79//79 665//665 662//662
f 82//82 92//92 83//83
f 82//82 83//83 81//81
f 74//74 86//86 84//84
f 84//84 86//86 85//85
f 666//666 96//96 97//97
f 84//84 85//85 674//674
f 85//85 619//619 674//674
f 85//85 87//87 41//41
f 74//74 75//75 667//667
f 87//87 85//85 86//86
f 78//78 676//676 99//99
f 665//665 88//88 662//662
f 668//668 662//662 88//88
f 88//88 89//89 668//668
f 669//669 668//668 89//89
f 89//89 91//91 669//669
f 92//92 663//663 100//100
f 663//663 678//678 100//100
f 88//88 665//665 93//93
f 81//81 83//83 671//671
f 93//93 90//90 88//88
f 89//89 88//88 670//670
f 83//83 92//92 671//671
f 93//93 95//95 90//90
f 670//670 94//94 89//89
f 95//95 672//672 90//90
f 91//91 89//89 94//94
f 101//101 91//91 94//94
f 92//92 679//679 673//673
f 672//672 104//104 680//680
f 671//671 92//92 673//673
f 41//41 87//87 107//107
f 690//690 669//669 110//110
f 669//669 91//91 110//110
f 619//619 621//621 674//674
f 99//99 675//675 98//98
f 98//98 675//675 622//622
f 622//622 694//694 98//98
f 99//99 676//676 675//675
f 114//114 678//678 677//677
f 677//677 695//695 114//114
f 100//100 678//678 102//102
f 678//678 114//114 102//102
f 103//103 681//681 700//700
f 679//679 681//681 683//683
f 679//679 683//683 673//673
f 680//680 104//104 682//682
f 103//103 683//683 681//681
f 672//672 95//95 104//104
f 105//105 41//41 107//107
f 106//106 41//41 105//105
f 684//684 108//108 688//688
f 696//696 689//689 691//691
f 110//110 685//685 690//690
f 111//111 685//685 110//110
f 112//112 686//686 111//111
f 686//686 112//112 692//692
f 698//698 697//697 693//693
f 113//113 111//111 110//110
f 113//113 110//110 91//91
f 682//682 115//115 699//699
f 699//699 115//115 698//698
f 111//111 113//113 112//112
f 115//115 103//103 700//700
f 697//697 115//115 700//700
f 698//698 115//115 697//697
f 680//680 682//682 699//699
f 91//91 101//101 113//113
f 116//116 122//122 121//121
f 139//139 117//117 121//121
f 117//117 116//116 121//121
f 117//117 139//139 118//118
f 180//180 116//116 117//117
f 119//119 707//707 701//701
f 118//118 185//185 117//117
f 185//185 118//118 182//182
f 121//121 122//122 704//704
f 704//704 122//122 48//48
f 707//707 141//141 48//48
f 707//707 119//119 141//141
f 732//732 702//702 179//179
f 123//123 130//130 124//124
f 127//127 124//124 130//130
f 126//126 125//125 708//708
f 708//708 125//125 132//132
f 708//708 710//710 126//126
f 712//712 341//341 711//711
f 341//341 128//128 711//711
f 711//711 128//128 720//720
f 126//126 710//710 276//276
f 341//341 712//712 866//866
f 345//345 129//129 136//136
f 128//128 192//192 134//134
f 192//192 344//344 136//136
f 344//344 345//345 136//136
f 194//194 124//124 127//127
f 131//131 133//133 714//714
f 709//709 717//717 715//715
f 708//708 132//132 718//718
f 719//719 721//721 135//135
f 135//135 722//722 719//719
f 713//713 716//716 723//723
f 720//720 128//128 134//134
f 725//725 135//135 721//721
f 136//136 724//724 726//726
f 129//129 713//713 723//723
f 136//136 129//129 724//724
f 134//134 192//192 727//727
f 727//727 192//192 136//136
f 118//118 730//730 140//140
f 118//118 140//140 137//137
f 137//137 182//182 118//118
f 631//631 706//706 705//705
f 139//139 121//121 632//632
f 630//630 50//50 730//730
f 140//140 50//50 633//633
f 140//140 730//730 50//50
f 731//731 634//634 142//142
f 51//51 729//729 142//142
f 733//733 142//142 729//729
f 48//48 141//141 138//138
f 733//733 769//769 142//142
f 728//728 731//731 142//142
f 142//142 769//769 728//728
f 146//146 147//147 144//144
f 147//147 143//143 144//144
f 155//155 734//734 289//289
f 735//735 734//734 155//155
f 153//153 736//736 752//752
f 146//146 144//144 151//151
f 145//145 148//148 737//737
f 737//737 742//742 145//145
f 742//742 152//152 145//145
f 145//145 152//152 149//149
f 738//738 737//737 148//148
f 149//149 739//739 145//145
f 348//348 155//155 289//289
f 156//156 155//155 348//348
f 150//150 154//154 156//156
f 291//291 150//150 156//156
f 741//741 740//740 750//750
f 156//156 348//348 291//291
f 739//739 149//149 286//286
f 734//734 288//288 289//289
f 144//144 746//746 151//151
f 743//743 747//747 744//744
f 751//751 744//744 747//747
f 750//750 740//740 745//745
f 748//748 156//156 154//154
f 749//749 155//155 156//156
f 157//157 161//161 160//160
f 160//160 161//161 162//162
f 158//158 240//240 753//753
f 159//159 222//222 754//754
f 754//754 157//157 159//159
f 240//240 241//241 753//753
f 160//160 159//159 157//157
f 753//753 241//241 161//161
f 755//755 756//756 256//256
f 757//757 256//256 756//756
f 163//163 269//269 165//165
f 851//851 758//758 760//760
f 759//759 163//163 165//165
f 178//178 175//175 165//165
f 165//165 175//175 766//766
f 165//165 269//269 178//178
f 761//761 176//176 56//56
f 58//58 271//271 166//166
f 58//58 166//166 636//636
f 170//170 168//168 171//171
f 171//171 168//168 169//169
f 174//174 171//171 172//172
f 171//171 174//174 170//170
f 169//169 172//172 171//171
f 172//172 169//169 660//660
f 70//70 172//172 660//660
f 763//763 173//173 767//767
f 173//173 174//174 172//172
f 173//173 172//172 767//767
f 767//767 172//172 70//70
f 177//177 170//170 174//174
f 173//173 177//177 174//174
f 177//177 853//853 170//170
f 768//768 173//173 763//763
f 768//768 177//177 173//173
f 177//177 768//768 852//852
f 767//767 70//70 658//658
f 188//188 183//183 190//190
f 190//190 183//183 272//272
f 272//272 183//183 185//185
f 185//185 196//196 855//855
f 117//117 183//183 180//180
f 180//180 181//181 701//701
f 183//183 117//117 185//185
f 702//702 187//187 179//179
f 728//728 773//773 195//195
f 769//769 773//773 728//728
f 183//183 188//188 180//180
f 180//180 188//188 184//184
f 180//180 184//184 181//181
f 701//701 181//181 119//119
f 187//187 702//702 770//770
f 181//181 184//184 189//189
f 186//186 772//772 195//195
f 273//273 774//774 771//771
f 772//772 186//186 776//776
f 776//776 186//186 773//773
f 186//186 195//195 773//773
f 190//190 191//191 188//188
f 191//191 189//189 188//188
f 188//188 189//189 184//184
f 189//189 857//857 181//181
f 182//182 196//196 185//185
f 190//190 277//277 191//191
f 868//868 189//189 191//191
f 710//710 274//274 276//276
f 284//284 859//859 124//124
f 194//194 284//284 124//124
f 192//192 342//342 344//344
f 194//194 713//713 193//193
f 713//713 129//129 193//193
f 345//345 193//193 129//129
f 772//772 728//728 195//195
f 283//283 776//776 773//773
f 194//194 193//193 285//285
f 345//345 285//285 193//193
f 284//284 194//194 285//285
f 143//143 147//147 288//288
f 291//291 290//290 150//150
f 738//738 148//148 197//197
f 777//777 739//739 287//287
f 147//147 778//778 288//288
f 740//740 741//741 878//878
f 286//286 740//740 878//878
f 204//204 198//198 199//199
f 786//786 780//780 207//207
f 200//200 207//207 780//780
f 200//200 214//214 207//207
f 315//315 199//199 198//198
f 198//198 211//211 320//320
f 313//313 200//200 780//780
f 313//313 780//780 904//904
f 324//324 320//320 211//211
f 204//204 201//201 198//198
f 201//201 202//202 198//198
f 203//203 783//783 781//781
f 783//783 223//223 221//221
f 786//786 205//205 782//782
f 206//206 785//785 782//782
f 206//206 782//782 205//205
f 779//779 784//784 217//217
f 203//203 223//223 783//783
f 785//785 225//225 223//223
f 785//785 206//206 225//225
f 214//214 205//205 207//207
f 207//207 205//205 786//786
f 214//214 208//208 205//205
f 205//205 208//208 787//787
f 198//198 800//800 209//209
f 800//800 218//218 209//209
f 198//198 209//209 211//211
f 212//212 209//209 218//218
f 792//792 791//791 789//789
f 208//208 216//216 787//787
f 214//214 215//215 788//788
f 210//210 788//788 215//215
f 210//210 215//215 213//213
f 796//796 212//212 793//793
f 234//234 788//788 210//210
f 218//218 793//793 212//212
f 799//799 788//788 234//234
f 335//335 792//792 797//797
f 784//784 804//804 227//227
f 217//217 784//784 227//227
f 218//218 800//800 219//219
f 812//812 219//219 800//800
f 802//802 220//220 801//801
f 790//790 794//794 803//803
f 234//234 790//790 803//803
f 801//801 220//220 795//795
f 220//220 802//802 235//235
f 219//219 812//812 230//230
f 235//235 802//802 230//230
f 803//803 816//816 234//234
f 224//224 247//247 222//222
f 223//223 225//225 226//226
f 223//223 806//806 221//221
f 223//223 226//226 806//806
f 811//811 824//824 807//807
f 811//811 242//242 824//824
f 227//227 804//804 228//228
f 228//228 804//804 808//808
f 229//229 248//248 819//819
f 813//813 809//809 805//805
f 813//813 805//805 246//246
f 216//216 810//810 787//787
f 810//810 216//216 811//811
f 216//216 815//815 811//811
f 815//815 242//242 811//811
f 229//229 231//231 248//248
f 812//812 814//814 230//230
f 230//230 814//814 232//232
f 254//254 248//248 231//231
f 254//254 231//231 233//233
f 814//814 822//822 232//232
f 232//232 823//823 233//233
f 234//234 237//237 799//799
f 237//237 229//229 799//799
f 231//231 229//229 237//237
f 235//235 230//230 238//238
f 238//238 230//230 232//232
f 239//239 233//233 231//231
f 233//233 239//239 232//232
f 234//234 816//816 236//236
f 234//234 236//236 237//237
f 816//816 238//238 236//236
f 236//236 238//238 239//239
f 236//236 239//239 237//237
f 237//237 239//239 231//231
f 232//232 239//239 238//238
f 222//222 247//247 754//754
f 158//158 825//825 240//240
f 817//817 242//242 243//243
f 243//243 818//818 817//817
f 243//243 245//245 818//818
f 246//246 805//805 755//755
f 818//818 245//245 255//255
f 755//755 256//256 246//246
f 823//823 833//833 257//257
f 161//161 241//241 255//255
f 819//819 244//244 820//820
f 821//821 820//820 244//244
f 251//251 821//821 244//244
f 251//251 244//244 252//252
f 821//821 251//251 253//253
f 255//255 245//245 253//253
f 830//830 249//249 257//257
f 257//257 249//249 823//823
f 262//262 255//255 253//253
f 824//824 242//242 817//817
f 819//819 248//248 250//250
f 250//250 248//248 254//254
f 819//819 250//250 244//244
f 828//828 254//254 826//826
f 831//831 829//829 827//827
f 250//250 252//252 244//244
f 251//251 258//258 253//253
f 251//251 252//252 258//258
f 254//254 233//233 826//826
f 249//249 233//233 823//823
f 255//255 260//260 161//161
f 260//260 255//255 262//262
f 253//253 265//265 262//262
f 256//256 757//757 261//261
f 834//834 835//835 832//832
f 833//833 266//266 257//257
f 266//266 833//833 837//837
f 834//834 849//849 835//835
f 260//260 259//259 161//161
f 161//161 259//259 162//162
f 260//260 263//263 259//259
f 838//838 162//162 259//259
f 260//260 262//262 263//263
f 838//838 259//259 264//264
f 836//836 840//840 843//843
f 846//846 841//841 839//839
f 847//847 850//850 844//844
f 845//845 266//266 837//837
f 847//847 844//844 842//842
f 265//265 253//253 258//258
f 835//835 849//849 848//848
f 268//268 267//267 166//166
f 758//758 851//851 336//336
f 337//337 268//268 166//166
f 338//338 271//271 167//167
f 852//852 854//854 177//177
f 190//190 343//343 339//339
f 343//343 190//190 272//272
f 339//339 277//277 190//190
f 339//339 281//281 277//277
f 189//189 869//869 857//857
f 273//273 275//275 774//774
f 277//277 864//864 858//858
f 860//860 774//774 275//275
f 775//775 861//861 873//873
f 862//862 865//865 867//867
f 128//128 341//341 279//279
f 281//281 278//278 277//277
f 278//278 864//864 277//277
f 864//864 341//341 866//866
f 281//281 341//341 278//278
f 278//278 341//341 864//864
f 279//279 280//280 128//128
f 339//339 341//341 281//281
f 280//280 192//192 128//128
f 342//342 192//192 280//280
f 856//856 282//282 920//920
f 855//855 196//196 870//870
f 871//871 776//776 283//283
f 872//872 874//874 876//876
f 863//863 877//877 875//875
f 284//284 285//285 371//371
f 285//285 370//370 930//930
f 739//739 286//286 287//287
f 287//287 346//346 777//777
f 778//778 347//347 288//288
f 347//347 778//778 346//346
f 388//388 878//878 376//376
f 291//291 931//931 290//290
f 377//377 376//376 879//879
f 349//349 346//346 287//287
f 292//292 349//349 287//287
f 287//287 286//286 292//292
f 292//292 286//286 388//388
f 388//388 286//286 878//878
f 293//293 294//294 298//298
f 296//296 294//294 293//293
f 296//296 297//297 294//294
f 297//297 295//295 294//294
f 293//293 304//304 296//296
f 296//296 397//397 297//297
f 296//296 304//304 307//307
f 307//307 956//956 296//296
f 957//957 400//400 883//883
f 298//298 303//303 293//293
f 298//298 294//294 300//300
f 299//299 303//303 298//298
f 884//884 886//886 885//885
f 294//294 321//321 316//316
f 294//294 316//316 300//300
f 302//302 299//299 301//301
f 885//885 886//886 301//301
f 886//886 314//314 301//301
f 887//887 908//908 902//902
f 301//301 314//314 323//323
f 299//299 305//305 303//303
f 305//305 299//299 302//302
f 323//323 302//302 301//301
f 304//304 293//293 303//303
f 881//881 321//321 294//294
f 305//305 302//302 351//351
f 401//401 921//921 302//302
f 306//306 302//302 323//323
f 333//333 306//306 323//323
f 892//892 304//304 303//303
f 892//892 303//303 888//888
f 882//882 329//329 325//325
f 308//308 329//329 882//882
f 308//308 882//882 311//311
f 882//882 883//883 311//311
f 310//310 893//893 900//900
f 310//310 309//309 893//893
f 894//894 895//895 329//329
f 896//896 898//898 889//889
f 897//897 890//890 331//331
f 352//352 892//892 888//888
f 352//352 888//888 922//922
f 313//313 318//318 200//200
f 318//318 214//214 200//200
f 312//312 315//315 198//198
f 198//198 320//320 312//312
f 326//326 214//214 318//318
f 792//792 328//328 914//914
f 792//792 914//914 791//791
f 316//316 317//317 905//905
f 313//313 904//904 910//910
f 313//313 911//911 322//322
f 322//322 318//318 313//313
f 909//909 906//906 903//903
f 319//319 314//314 907//907
f 315//315 312//312 912//912
f 319//319 312//312 320//320
f 316//316 321//321 913//913
f 913//913 317//317 316//316
f 913//913 326//326 318//318
f 328//328 917//917 327//327
f 323//323 314//314 319//319
f 319//319 320//320 323//323
f 323//323 320//320 324//324
f 325//325 321//321 881//881
f 321//321 325//325 913//913
f 325//325 326//326 913//913
f 333//333 323//323 324//324
f 329//329 330//330 325//325
f 330//330 326//326 325//325
f 327//327 326//326 330//330
f 895//895 915//915 329//329
f 332//332 330//330 329//329
f 334//334 329//329 915//915
f 329//329 334//334 332//332
f 330//330 332//332 327//327
f 334//334 331//331 916//916
f 331//331 890//890 916//916
f 332//332 334//334 328//328
f 327//327 332//332 328//328
f 914//914 334//334 916//916
f 328//328 334//334 914//914
f 214//214 326//326 327//327
f 215//215 214//214 327//327
f 327//327 917//917 798//798
f 328//328 792//792 335//335
f 268//268 337//337 357//357
f 851//851 268//268 336//336
f 269//269 163//163 356//356
f 336//336 268//268 357//357
f 758//758 336//336 927//927
f 356//356 359//359 269//269
f 358//358 357//357 337//337
f 337//337 360//360 358//358
f 271//271 360//360 337//337
f 337//337 166//166 271//271
f 762//762 270//270 918//918
f 928//928 854//854 852//852
f 928//928 919//919 854//854
f 339//339 365//365 341//341
f 343//343 368//368 339//339
f 364//364 280//280 340//340
f 340//340 365//365 366//366
f 339//339 368//368 365//365
f 369//369 344//344 342//342
f 365//365 279//279 341//341
f 340//340 279//279 365//365
f 340//340 280//280 279//279
f 280//280 364//364 342//342
f 364//364 369//369 342//342
f 872//872 367//367 343//343
f 368//368 343//343 367//367
f 930//930 872//872 876//876
f 345//345 370//370 285//285
f 344//344 929//929 345//345
f 344//344 369//369 929//929
f 369//369 372//372 929//929
f 350//350 347//347 346//346
f 288//288 347//347 375//375
f 375//375 347//347 350//350
f 880//880 378//378 932//932
f 380//380 348//348 289//289
f 291//291 348//348 936//936
f 288//288 380//380 289//289
f 348//348 380//380 936//936
f 346//346 374//374 350//350
f 349//349 374//374 346//346
f 292//292 387//387 349//349
f 956//956 307//307 923//923
f 400//400 353//353 883//883
f 353//353 311//311 883//883
f 925//925 354//354 901//901
f 354//354 899//899 901//901
f 354//354 891//891 899//899
f 302//302 306//306 401//401
f 958//958 924//924 398//398
f 964//964 354//354 925//925
f 352//352 922//922 355//355
f 401//401 926//926 921//921
f 966//966 891//891 354//354
f 399//399 959//959 352//352
f 352//352 355//355 399//399
f 357//357 411//411 336//336
f 409//409 357//357 358//358
f 357//357 409//409 411//411
f 409//409 358//358 410//410
f 410//410 358//358 421//421
f 421//421 358//358 360//360
f 359//359 356//356 416//416
f 412//412 927//927 336//336
f 971//971 927//927 412//412
f 360//360 271//271 361//361
f 361//361 271//271 362//362
f 338//338 362//362 271//271
f 432//432 420//420 362//362
f 420//420 361//361 362//362
f 421//421 360//360 419//419
f 361//361 419//419 360//360
f 419//419 361//361 420//420
f 363//363 919//919 928//928
f 432//432 362//362 433//433
f 362//362 338//338 433//433
f 363//363 433//433 338//338
f 365//365 368//368 440//440
f 340//340 366//366 364//364
f 446//446 872//872 930//930
f 367//367 872//872 445//445
f 447//447 446//446 930//930
f 441//441 365//365 440//440
f 364//364 373//373 369//369
f 372//372 369//369 373//373
f 366//366 373//373 364//364
f 448//448 930//930 370//370
f 366//366 462//462 373//373
f 373//373 462//462 372//372
f 461//461 462//462 366//366
f 443//443 929//929 372//372
f 350//350 449//449 375//375
f 449//449 350//350 374//374
f 453//453 374//374 455//455
f 449//449 374//374 453//453
f 388//388 376//376 389//389
f 376//376 390//390 389//389
f 376//376 377//377 390//390
f 937//937 379//379 933//933
f 380//380 381//381 936//936
f 381//381 938//938 936//936
f 941//941 383//383 395//395
f 391//391 392//392 382//382
f 942//942 396//396 383//383
f 382//382 392//392 955//955
f 384//384 381//381 452//452
f 941//941 945//945 383//383
f 944//944 384//384 943//943
f 385//385 943//943 384//384
f 946//946 391//391 382//382
f 934//934 939//939 960//960
f 398//398 940//940 386//386
f 947//947 938//938 381//381
f 947//947 381//381 954//954
f 404//404 947//947 954//954
f 387//387 292//292 388//388
f 374//374 349//349 387//387
f 950//950 389//389 390//390
f 950//950 390//390 952//952
f 388//388 389//389 454//454
f 456//456 948//948 951//951
f 393//393 961//961 962//962
f 393//393 935//935 961//961
f 935//935 393//393 949//949
f 949//949 393//393 403//403
f 403//403 393//393 963//963
f 394//394 949//949 403//403
f 394//394 403//403 406//406
f 953//953 949//949 394//394
f 955//955 392//392 394//394
f 394//394 407//407 955//955
f 407//407 394//394 406//406
f 395//395 396//396 408//408
f 407//407 408//408 396//396
f 395//395 383//383 396//396
f 398//398 402//402 958//958
f 963//963 926//926 401//401
f 963//963 401//401 403//403
f 964//964 967//967 354//354
f 968//968 400//400 957//957
f 968//968 404//404 400//400
f 405//405 967//967 964//964
f 386//386 402//402 398//398
f 406//406 403//403 401//401
f 405//405 406//406 967//967
f 404//404 968//968 947//947
f 404//404 969//969 965//965
f 970//970 404//404 954//954
f 970//970 969//969 404//404
f 407//407 405//405 408//408
f 405//405 407//407 406//406
f 412//412 336//336 411//411
f 413//413 411//411 409//409
f 413//413 409//409 410//410
f 425//425 413//413 410//410
f 421//421 425//425 410//410
f 411//411 413//413 414//414
f 411//411 414//414 412//412
f 425//425 415//415 413//413
f 429//429 415//415 425//425
f 418//418 412//412 414//414
f 415//415 414//414 413//413
f 414//414 415//415 431//431
f 415//415 429//429 431//431
f 359//359 416//416 417//417
f 971//971 412//412 418//418
f 418//418 417//417 416//416
f 431//431 418//418 414//414
f 418//418 431//431 437//437
f 421//421 422//422 425//425
f 422//422 421//421 419//419
f 423//423 422//422 419//419
f 423//423 419//419 420//420
f 432//432 424//424 420//420
f 424//424 423//423 420//420
f 424//424 432//432 434//434
f 422//422 423//423 426//426
f 426//426 423//423 427//427
f 427//427 423//423 424//424
f 434//434 428//428 424//424
f 428//428 427//427 424//424
f 434//434 436//436 428//428
f 426//426 429//429 425//425
f 422//422 426//426 425//425
f 428//428 430//430 427//427
f 436//436 430//430 428//428
f 426//426 427//427 429//429
f 431//431 429//429 430//430
f 429//429 427//427 430//430
f 363//363 928//928 417//417
f 434//434 432//432 433//433
f 363//363 417//417 435//435
f 435//435 433//433 363//363
f 435//435 436//436 433//433
f 433//433 436//436 434//434
f 418//418 435//435 417//417
f 430//430 436//436 437//437
f 437//437 436//436 435//435
f 418//418 437//437 435//435
f 437//437 431//431 430//430
f 368//368 367//367 438//438
f 445//445 438//438 367//367
f 440//440 368//368 439//439
f 439//439 368//368 438//438
f 464//464 438//438 445//445
f 458//458 440//440 439//439
f 460//460 458//458 439//439
f 438//438 459//459 439//439
f 459//459 438//438 465//465
f 465//465 438//438 464//464
f 441//441 442//442 365//365
f 442//442 366//366 365//365
f 458//458 441//441 440//440
f 442//442 461//461 366//366
f 458//458 463//463 441//441
f 463//463 442//442 441//441
f 463//463 461//461 442//442
f 462//462 471//471 444//444
f 506//506 462//462 461//461
f 444//444 443//443 372//372
f 372//372 462//462 444//444
f 471//471 443//443 444//444
f 445//445 872//872 446//446
f 445//445 446//446 466//466
f 466//466 464//464 445//445
f 447//447 930//930 448//448
f 446//446 447//447 474//474
f 448//448 443//443 471//471
f 443//443 448//448 929//929
f 450//450 288//288 375//375
f 380//380 288//288 450//450
f 449//449 451//451 375//375
f 451//451 450//450 375//375
f 450//450 475//475 380//380
f 451//451 449//449 476//476
f 451//451 477//477 450//450
f 531//531 477//477 451//451
f 476//476 531//531 451//451
f 384//384 452//452 385//385
f 380//380 475//475 381//381
f 475//475 452//452 381//381
f 449//449 453//453 476//476
f 476//476 453//453 480//480
f 455//455 374//374 387//387
f 456//456 951//951 385//385
f 456//456 454//454 948//948
f 456//456 452//452 543//543
f 385//385 452//452 456//456
f 455//455 457//457 479//479
f 457//457 387//387 388//388
f 455//455 387//387 457//457
f 456//456 486//486 454//454
f 485//485 457//457 388//388
f 460//460 439//439 459//459
f 460//460 459//459 470//470
f 458//458 460//460 491//491
f 491//491 460//460 470//470
f 492//492 463//463 458//458
f 458//458 491//491 492//492
f 492//492 494//494 463//463
f 461//461 463//463 494//494
f 494//494 506//506 461//461
f 497//497 469//469 495//495
f 495//495 469//469 467//467
f 467//467 465//465 464//464
f 464//464 466//466 467//467
f 474//474 447//447 468//468
f 467//467 466//466 504//504
f 468//468 447//447 472//472
f 469//469 459//459 465//465
f 469//469 465//465 467//467
f 470//470 459//459 469//469
f 466//466 446//446 474//474
f 497//497 470//470 469//469
f 467//467 504//504 495//495
f 466//466 474//474 504//504
f 447//447 448//448 472//472
f 473//473 448//448 471//471
f 473//473 472//472 448//448
f 468//468 518//518 474//474
f 475//475 450//450 477//477
f 480//480 453//453 478//478
f 478//478 453//453 455//455
f 480//480 483//483 476//476
f 476//476 483//483 531//531
f 543//543 489//489 456//456
f 533//533 477//477 531//531
f 477//477 533//533 475//475
f 479//479 478//478 455//455
f 479//479 457//457 485//485
f 478//478 481//481 480//480
f 478//478 479//479 481//481
f 481//481 479//479 482//482
f 482//482 479//479 487//487
f 485//485 487//487 479//479
f 484//484 480//480 481//481
f 484//484 481//481 482//482
f 538//538 484//484 482//482
f 482//482 490//490 538//538
f 482//482 487//487 490//490
f 483//483 480//480 535//535
f 535//535 480//480 484//484
f 485//485 388//388 454//454
f 485//485 454//454 486//486
f 489//489 486//486 456//456
f 485//485 488//488 487//487
f 485//485 486//486 488//488
f 488//488 486//486 542//542
f 541//541 486//486 489//489
f 490//490 487//487 488//488
f 490//490 488//488 542//542
f 541//541 542//542 486//486
f 545//545 490//490 542//542
f 470//470 499//499 491//491
f 491//491 505//505 492//492
f 493//493 494//494 492//492
f 492//492 505//505 493//493
f 552//552 494//494 493//493
f 506//506 494//494 552//552
f 495//495 504//504 496//496
f 495//495 498//498 497//497
f 495//495 496//496 498//498
f 496//496 500//500 498//498
f 500//500 496//496 517//517
f 517//517 496//496 519//519
f 497//497 501//501 499//499
f 501//501 507//507 499//499
f 502//502 497//497 498//498
f 497//497 502//502 501//501
f 502//502 498//498 500//500
f 509//509 507//507 501//501
f 502//502 509//509 501//501
f 500//500 503//503 502//502
f 524//524 503//503 517//517
f 517//517 503//503 500//500
f 499//499 470//470 497//497
f 491//491 499//499 505//505
f 496//496 504//504 519//519
f 507//507 505//505 499//499
f 505//505 507//507 493//493
f 515//515 508//508 513//513
f 509//509 502//502 510//510
f 502//502 503//503 510//510
f 516//516 528//528 526//526
f 507//507 552//552 493//493
f 553//553 552//552 507//507
f 552//552 508//508 506//506
f 508//508 515//515 506//506
f 509//509 553//553 507//507
f 509//509 510//510 511//511
f 509//509 511//511 553//553
f 512//512 511//511 510//510
f 503//503 512//512 510//510
f 512//512 503//503 524//524
f 512//512 558//558 555//555
f 473//473 471//471 514//514
f 462//462 513//513 471//471
f 513//513 514//514 471//471
f 506//506 515//515 462//462
f 515//515 513//513 462//462
f 516//516 514//514 513//513
f 513//513 508//508 516//516
f 516//516 526//526 514//514
f 524//524 517//517 519//519
f 518//518 468//468 520//520
f 519//519 504//504 474//474
f 474//474 518//518 519//519
f 519//519 518//518 521//521
f 520//520 468//468 472//472
f 524//524 519//519 521//521
f 520//520 472//472 522//522
f 521//521 518//518 520//520
f 521//521 520//520 523//523
f 523//523 520//520 522//522
f 514//514 526//526 522//522
f 524//524 521//521 525//525
f 526//526 527//527 522//522
f 525//525 521//521 523//523
f 527//527 523//523 522//522
f 525//525 529//529 524//524
f 527//527 525//525 523//523
f 528//528 527//527 526//526
f 512//512 524//524 529//529
f 529//529 525//525 530//530
f 527//527 530//530 525//525
f 527//527 528//528 530//530
f 530//530 528//528 558//558
f 558//558 512//512 529//529
f 530//530 558//558 529//529
f 473//473 522//522 472//472
f 514//514 522//522 473//473
f 483//483 532//532 531//531
f 536//536 532//532 483//483
f 533//533 534//534 475//475
f 534//534 452//452 475//475
f 534//534 543//543 452//452
f 533//533 531//531 532//532
f 547//547 533//533 532//532
f 534//534 533//533 547//547
f 536//536 483//483 535//535
f 536//536 535//535 537//537
f 535//535 484//484 537//537
f 484//484 538//538 537//537
f 532//532 536//536 539//539
f 537//537 540//540 536//536
f 538//538 540//540 537//537
f 536//536 540//540 539//539
f 544//544 489//489 543//543
f 544//544 541//541 489//489
f 538//538 490//490 545//545
f 543//543 548//548 544//544
f 544//544 546//546 541//541
f 546//546 542//542 541//541
f 534//534 548//548 543//543
f 544//544 548//548 550//550
f 545//545 551//551 538//538
f 546//546 551//551 545//545
f 542//542 546//546 545//545
f 532//532 539//539 547//547
f 547//547 539//539 549//549
f 534//534 547//547 548//548
f 548//548 547//547 549//549
f 539//539 540//540 549//549
f 549//549 540//540 551//551
f 549//549 551//551 550//550
f 549//549 550//550 548//548
f 540//540 538//538 551//551
f 546//546 550//550 551//551
f 550//550 546//546 544//544
f 552//552 553//553 554//554
f 508//508 552//552 554//554
f 557//557 508//508 554//554
f 553//553 555//555 556//556
f 557//557 516//516 508//508
f 511//511 555//555 553//553
f 556//556 554//554 553//553
f 554//554 556//556 557//557
f 512//512 555//555 511//511
f 556//556 555//555 558//558
f 556//556 558//558 557//557
f 557//557 558//558 528//528
f 557//557 528//528 516//516
