# Wavafront OBJ file of BodyParts3D
# BodyParts3D, Copyright(C) 2010-2011 The Database Center for Life Science licensed under CC Attribution-Share Alike 2.1 Japan.
vn 0.878334 -0.302522 0.370149
v 25.7887 -156.465 711.515
vn 0.713425 -0.395151 0.578688
v 22.9137 -157.465 715.515
vn 0.798004 -0.559075 0.225
v 25.0856 -159.465 709.515
vn 0.721181 -0.681024 -0.126901
v 23.5547 -161.465 703.515
vn 0.887861 -0.385274 -0.251529
v 25.7106 -156.465 697.515
vn 0.673057 -0.603076 -0.428128
v 24.2731 -157.465 695.515
vn 0.784156 -0.151936 0.601677
v 24.5699 -152.465 715.515
vn 0.813177 0.116156 0.570308
v 24.8043 -149.465 715.515
vn 0.60668 0.0980349 0.788878
v 23.5309 -149.465 716.836
vn 0.979147 0.19823 0.0444566
v 27.7731 -148.465 705.515
vn 0.957912 -0.285974 0.024962
v 27.2574 -155.465 706.515
vn 0.949266 -0.0467523 0.31098
v 27.2574 -151.465 710.515
vn 0.954131 0.105868 -0.280045
v 27.3356 -150.465 698.515
vn 0.819848 -0.176355 -0.544746
v 25.0387 -154.465 694.515
vn 0.696948 0.310234 -0.646543
v 23.5309 -148.465 692.82
vn 0.858452 0.348628 0.37619
v 26.0231 -147.465 712.515
vn 0.669408 0.675296 0.309626
v 25.1793 -145.465 711.515
vn 0.604459 0.414363 0.680391
v 23.5309 -147.465 716.023
vn 0.525009 0.680907 0.510618
v 23.5309 -145.715 714.515
vn 0.844257 0.516532 0.142912
v 26.3512 -145.465 707.515
vn 0.795753 0.598213 -0.0944415
v 25.8512 -144.465 703.515
vn 0.601713 0.79077 0.112357
v 24.7559 -143.465 706.515
vn 0.636257 0.676171 -0.371443
v 24.5309 -144.442 698.515
vn 0.00736464 -0.998644 -0.0515289
v 18.5309 -163.692 706.515
vn -0.137873 -0.232427 0.962792
v 16.5309 -156.465 718.601
vn 0.522489 -0.725246 0.448356
v 21.5309 -161.465 713.367
vn 0.457985 -0.521518 0.719909
v 20.5309 -159.465 716.336
vn 0.107836 -0.929308 0.353211
v 18.5309 -162.88 712.515
vn 0.108384 -0.758539 0.642551
v 18.5309 -161.208 715.515
vn 0.168155 -0.456646 0.873612
v 18.5309 -158.465 717.804
vn -0.263867 -0.847281 0.460966
v 16.5309 -161.708 714.515
vn -0.351271 -0.602313 0.716818
v 15.5309 -159.465 716.726
vn 0.402081 -0.909774 0.103156
v 21.5309 -163.005 708.515
vn -0.16418 -0.970227 0.178057
v 17.5309 -163.348 710.515
vn -0.375829 -0.926186 -0.0305305
v 15.5309 -163.114 705.515
vn 0.344521 -0.906632 -0.243565
v 20.5309 -162.833 701.515
vn -0.120163 -0.936682 -0.328918
v 16.5309 -161.755 696.515
vn 0.528629 -0.407572 -0.744605
v 22.5309 -156.465 692.695
vn 0.261878 -0.748393 -0.609366
v 19.5309 -159.676 693.515
vn -0.00128093 -0.452139 -0.891946
v 16.5309 -156.465 690.679
vn 0.187775 -0.0824498 0.978745
v 19.5309 -154.465 718.711
vn -0.09053 0.0722611 0.993269
v 17.5309 -153.465 718.757
vn 0.527622 -0.204357 0.824532
v 21.5309 -154.465 717.867
vn 0.354782 0.0754064 0.931903
v 21.5309 -150.465 718.086
vn 0.334365 0.33709 0.880097
v 21.5309 -148.465 717.664
vn 0.0913227 0.477074 0.874106
v 20.5309 -147.655 717.515
vn 0.0561697 0.217386 0.974468
v 19.5309 -149.465 718.304
vn -0.116047 0.431435 0.894649
v 18.5309 -148.465 717.929
vn -0.209972 0.253869 0.944173
v 17.5309 -149.465 718.101
vn 0.610262 -0.0236395 -0.791847
v 22.5309 -151.465 691.304
vn 0.332904 -0.154821 -0.930164
v 20.5309 -153.465 690.414
vn 0.372485 0.246089 -0.894816
v 20.5309 -149.465 690.57
vn 0.175063 0.124527 -0.97665
v 18.5309 -150.465 689.851
vn 0.08902 0.405474 -0.909762
v 18.5309 -148.465 690.398
vn 0.0374861 -0.0978026 -0.9945
v 17.5309 -152.465 689.648
vn -0.0874914 0.151127 -0.984635
v 16.5309 -150.465 689.757
vn 0.274921 0.618168 0.736401
v 21.5015 -146.465 716.515
vn 0.102145 0.832766 0.54412
v 19.5309 -143.426 713.515
vn -0.0714763 0.650314 0.756295
v 18.5309 -145.465 715.976
vn 0.287209 0.926189 0.244304
v 20.5309 -141.864 709.515
vn -0.0962582 0.994923 -0.0293653
v 15.5309 -141.067 705.515
vn 0.375517 0.920911 -0.104445
v 22.5309 -142.255 702.515
vn 0.203196 0.908106 -0.366135
v 20.5309 -142.926 697.515
vn 0.297463 0.649932 -0.69936
v 20.5309 -146.465 692.195
vn -0.47075 -0.284157 0.835254
v 14.5309 -156.465 717.929
vn -0.590259 -0.746806 0.306391
v 13.5309 -160.989 712.515
vn -0.734214 -0.322313 0.597532
v 11.7731 -156.465 715.515
vn -0.850142 -0.453886 0.266917
v 10.5309 -157.294 712.515
vn -0.691084 -0.722421 0.0225854
v 11.5309 -160.536 703.515
vn -0.5738 -0.776988 -0.258929
v 12.5309 -160.442 697.515
vn -0.746264 -0.503588 -0.435303
v 10.8824 -157.465 695.515
vn -0.870315 -0.486944 -0.0737451
v 9.08556 -157.465 701.515
vn -0.338254 -0.709217 -0.618543
v 14.5309 -159.426 693.515
vn -0.558452 -0.382042 -0.736325
v 13.5309 -156.465 691.757
vn -0.326301 0.0358099 0.944587
v 14.5309 -154.465 718.211
vn -0.584315 -0.038634 0.810607
v 13.5309 -154.465 717.679
vn -0.42775 0.212893 0.878468
v 13.5309 -150.465 717.148
vn -0.707279 0.143836 0.692147
v 11.5309 -150.465 715.82
vn -0.912498 -0.0521445 0.405745
v 9.10119 -151.465 712.515
vn -0.964718 -0.210594 0.158014
v 7.89806 -153.465 707.515
vn -0.983999 0.144256 0.104576
v 7.38244 -148.465 705.515
vn -0.915451 -0.269396 -0.298956
v 9.08556 -155.465 697.515
vn -0.916845 0.0685516 -0.393314
v 8.67931 -149.465 696.515
vn -0.992475 -0.0671483 -0.102396
v 7.27306 -151.465 702.515
vn -0.323004 -0.13933 -0.936085
v 14.5309 -153.465 690.164
vn -0.376525 0.100442 -0.920945
v 14.5309 -150.465 690.164
vn -0.280011 0.322531 -0.904194
v 14.5309 -148.465 690.632
vn -0.635534 -0.0588173 -0.76983
v 12.5309 -151.465 691.289
vn -0.550639 0.172706 -0.816682
v 12.5309 -149.465 691.445
vn -0.745266 0.101495 -0.658997
v 11.5309 -149.465 692.304
vn -0.808404 -0.189031 -0.55745
v 10.2418 -154.465 694.515
vn -0.374448 0.44916 0.811199
v 13.5309 -147.465 716.007
vn -0.345273 0.756254 0.555758
v 12.5309 -143.661 712.515
vn -0.662286 0.448771 0.599985
v 10.3824 -145.465 712.515
vn -0.143025 0.934963 0.324635
v 14.5309 -142.083 710.515
vn -0.468404 0.869303 0.157826
v 11.5309 -142.583 708.515
vn -0.688983 0.641547 0.337224
v 9.86681 -144.465 710.515
vn -0.887727 0.277933 0.367006
v 8.77306 -146.465 710.515
vn -0.80562 0.585986 0.0871581
v 9.06994 -144.465 707.515
vn -0.239286 0.90252 -0.35805
v 13.5309 -142.833 696.515
vn -0.614926 0.759851 -0.21093
v 10.4912 -143.465 699.515
vn -0.904789 0.387771 -0.176044
v 8.46056 -145.465 701.515
vn -0.185535 0.56452 -0.804297
v 14.5309 -146.465 691.601
vn -0.0811694 0.788269 -0.609954
v 14.5309 -144.395 693.515
vn -0.558992 0.360292 -0.746805
v 12.5309 -147.465 692.117
vn -0.52679 0.614856 -0.586893
v 12.5309 -145.394 693.515
vn -0.774415 0.379838 -0.505969
v 10.5309 -147.465 694.205
f 3//3 1//1 2//2
f 3//3 4//4 11//11
f 11//11 1//1 3//3
f 4//4 33//33 36//36
f 4//4 5//5 11//11
f 4//4 6//6 5//5
f 5//5 6//6 14//14
f 36//36 6//6 4//4
f 14//14 6//6 38//38
f 1//1 11//11 12//12
f 7//7 2//2 1//1
f 1//1 12//12 7//7
f 7//7 12//12 8//8
f 12//12 16//16 8//8
f 2//2 7//7 43//43
f 7//7 9//9 43//43
f 8//8 9//9 7//7
f 9//9 8//8 18//18
f 8//8 16//16 18//18
f 9//9 18//18 45//45
f 11//11 10//10 12//12
f 12//12 10//10 16//16
f 11//11 13//13 10//10
f 14//14 13//13 5//5
f 5//5 13//13 11//11
f 14//14 15//15 13//13
f 14//14 50//50 15//15
f 38//38 50//50 14//14
f 50//50 52//52 15//15
f 20//20 17//17 16//16
f 17//17 19//19 16//16
f 18//18 16//16 19//19
f 57//57 18//18 19//19
f 57//57 19//19 58//58
f 16//16 10//10 20//20
f 10//10 21//21 20//20
f 21//21 22//22 20//20
f 17//17 20//20 22//22
f 17//17 22//22 60//60
f 21//21 23//23 62//62
f 22//22 21//21 62//62
f 19//19 17//17 60//60
f 10//10 13//13 21//21
f 13//13 15//15 23//23
f 13//13 23//23 21//21
f 64//64 23//23 15//15
f 62//62 23//23 63//63
f 23//23 64//64 63//63
f 24//24 33//33 34//34
f 75//75 65//65 25//25
f 27//27 26//26 2//2
f 26//26 3//3 2//2
f 2//2 43//43 27//27
f 33//33 3//3 26//26
f 41//41 30//30 43//43
f 33//33 26//26 28//28
f 27//27 43//43 30//30
f 26//26 29//29 28//28
f 29//29 26//26 27//27
f 29//29 27//27 30//30
f 29//29 31//31 28//28
f 28//28 34//34 33//33
f 28//28 31//31 34//34
f 31//31 29//29 32//32
f 29//29 30//30 32//32
f 32//32 30//30 25//25
f 25//25 30//30 41//41
f 65//65 32//32 25//25
f 31//31 66//66 34//34
f 31//31 32//32 66//66
f 33//33 4//4 3//3
f 36//36 33//33 24//24
f 34//34 35//35 24//24
f 36//36 39//39 6//6
f 37//37 39//39 36//36
f 36//36 24//24 37//37
f 35//35 37//37 24//24
f 39//39 38//38 6//6
f 73//73 39//39 37//37
f 39//39 73//73 40//40
f 40//40 38//38 39//39
f 40//40 51//51 38//38
f 51//51 40//40 55//55
f 40//40 73//73 74//74
f 40//40 74//74 85//85
f 55//55 40//40 85//85
f 25//25 41//41 42//42
f 47//47 42//42 41//41
f 42//42 75//75 25//25
f 43//43 9//9 44//44
f 9//9 45//45 44//44
f 41//41 43//43 44//44
f 41//41 44//44 47//47
f 47//47 44//44 45//45
f 46//46 47//47 45//45
f 57//57 46//46 45//45
f 48//48 47//47 46//46
f 48//48 46//46 59//59
f 92//92 48//48 59//59
f 49//49 47//47 48//48
f 42//42 47//47 49//49
f 92//92 49//49 48//48
f 75//75 42//42 49//49
f 51//51 50//50 38//38
f 51//51 52//52 50//50
f 52//52 64//64 15//15
f 55//55 53//53 51//51
f 53//53 52//52 51//51
f 54//54 52//52 53//53
f 54//54 64//64 52//52
f 56//56 53//53 55//55
f 85//85 56//56 55//55
f 56//56 54//54 53//53
f 86//86 56//56 85//85
f 86//86 87//87 56//56
f 87//87 54//54 56//56
f 57//57 45//45 18//18
f 57//57 59//59 46//46
f 57//57 58//58 59//59
f 60//60 58//58 19//19
f 93//93 59//59 58//58
f 92//92 59//59 93//93
f 93//93 58//58 95//95
f 60//60 22//22 62//62
f 60//60 62//62 61//61
f 95//95 58//58 60//60
f 95//95 60//60 61//61
f 62//62 63//63 61//61
f 61//61 63//63 100//100
f 104//104 63//63 64//64
f 87//87 103//103 54//54
f 103//103 64//64 54//54
f 103//103 104//104 64//64
f 32//32 67//67 66//66
f 32//32 65//65 67//67
f 66//66 67//67 68//68
f 79//79 68//68 67//67
f 68//68 79//79 80//80
f 34//34 66//66 35//35
f 69//69 35//35 66//66
f 68//68 69//69 66//66
f 69//69 68//68 72//72
f 35//35 70//70 37//37
f 69//69 70//70 35//35
f 72//72 70//70 69//69
f 71//71 70//70 72//72
f 72//72 82//82 71//71
f 91//91 71//71 82//82
f 70//70 71//71 73//73
f 70//70 73//73 37//37
f 71//71 74//74 73//73
f 67//67 65//65 76//76
f 76//76 65//65 75//75
f 75//75 49//49 77//77
f 92//92 77//77 49//49
f 76//76 78//78 67//67
f 77//77 76//76 75//75
f 76//76 77//77 78//78
f 92//92 78//78 77//77
f 92//92 94//94 78//78
f 78//78 79//79 67//67
f 98//98 79//79 78//78
f 68//68 80//80 72//72
f 72//72 80//80 84//84
f 79//79 81//81 80//80
f 80//80 81//81 84//84
f 102//102 84//84 81//81
f 82//82 83//83 91//91
f 91//91 83//83 90//90
f 90//90 83//83 107//107
f 102//102 107//107 83//83
f 84//84 83//83 82//82
f 84//84 102//102 83//83
f 72//72 84//84 82//82
f 85//85 88//88 86//86
f 85//85 74//74 88//88
f 89//89 86//86 88//88
f 89//89 87//87 86//86
f 89//89 105//105 87//87
f 91//91 88//88 74//74
f 88//88 90//90 89//89
f 105//105 90//90 107//107
f 89//89 90//90 105//105
f 74//74 71//71 91//91
f 88//88 91//91 90//90
f 94//94 92//92 93//93
f 93//93 97//97 94//94
f 94//94 98//98 78//78
f 94//94 97//97 98//98
f 93//93 95//95 96//96
f 95//95 61//61 96//96
f 97//97 93//93 96//96
f 96//96 61//61 101//101
f 99//99 97//97 96//96
f 101//101 99//99 96//96
f 98//98 97//97 99//99
f 101//101 102//102 99//99
f 98//98 81//81 79//79
f 81//81 98//98 99//99
f 102//102 81//81 99//99
f 100//100 63//63 104//104
f 106//106 100//100 104//104
f 101//101 61//61 100//100
f 106//106 101//101 100//100
f 101//101 107//107 102//102
f 107//107 101//101 106//106
f 106//106 104//104 103//103
f 105//105 103//103 87//87
f 103//103 105//105 106//106
f 106//106 105//105 107//107
