# Wavafront OBJ file of BodyParts3D
# BodyParts3D, Copyright(C) 2010-2011 The Database Center for Life Science licensed under CC Attribution-Share Alike 2.1 Japan.
vn -0.912971 0.035717 0.406457
v 280.199 -135.993 729.154
vn -0.992412 0.0975358 -0.0748705
v 280.101 -136.204 728.15
vn -0.985893 -0.150321 0.0736134
v 280.12 -137.013 727.615
vn -0.972897 -0.203332 -0.110126
v 280.229 -137.479 727.005
vn -0.980123 0.00913188 -0.198182
v 280.192 -137.145 726.938
vn -0.927295 -0.136853 -0.348418
v 280.392 -137.605 726.323
vn -0.699325 -0.0408982 0.713633
v 281.27 -138.073 730.587
vn -0.800851 -0.343461 0.490583
v 281.18 -138.485 730.326
vn -0.468484 -0.253663 0.846273
v 282.144 -138.586 731.178
vn -0.354403 0.27761 0.892934
v 282.094 -137.896 731.136
vn -0.353641 -0.74832 0.561209
v 282.523 -139.412 730.808
vn -0.580706 0.210747 0.786362
v 280.871 -136.129 729.945
vn -0.618844 0.359557 0.698391
v 280.782 -135.162 729.556
vn -0.271556 0.402107 0.874395
v 281.131 -135.106 729.694
vn -0.907661 0.388027 0.159957
v 280.397 -134.363 728.458
vn -0.550981 0.56588 0.613351
v 281.283 -133.204 728.626
vn -0.73876 0.652034 0.170545
v 281.562 -132.598 728.042
vn -0.917288 -0.3552 0.180043
v 280.717 -139.195 728.74
vn -0.932914 -0.350448 -0.0828085
v 280.577 -138.803 727.263
vn -0.662906 -0.649646 0.372176
v 281.115 -139.841 728.856
vn -0.761367 -0.648287 -0.00663853
v 281.098 -139.911 728.52
vn -0.837029 -0.447412 -0.314968
v 280.85 -138.988 726.245
vn -0.306244 -0.934662 0.180613
v 281.766 -140.326 728.576
vn -0.456997 -0.811852 -0.363386
v 281.624 -140.073 726.427
vn -0.0174427 -0.993426 -0.113138
v 282.748 -140.485 727.514
vn -0.885459 0.257583 -0.386799
v 280.979 -134.937 725.396
vn -0.59098 0.705885 -0.390474
v 282.432 -132.251 725.829
vn -0.629352 -0.532378 -0.566119
v 281.174 -139.048 725.822
vn -0.395891 -0.735666 -0.549606
v 282.245 -139.683 725.73
vn -0.201705 -0.887892 -0.413477
v 282.631 -140.034 726.024
vn -0.80076 -0.252291 -0.54326
v 280.8 -138.05 725.696
vn -0.833195 -0.0506046 -0.550659
v 282.113 -136.617 723.589
vn -0.680508 -0.605075 -0.413271
v 282.744 -138.655 723.678
vn -0.430876 -0.213693 0.876745
v 285.683 -139.158 732.152
vn -0.322578 0.597844 0.733844
v 285.988 -138.387 732.369
vn -0.265105 0.467859 0.843106
v 285.741 -136.314 730.572
vn -0.299487 0.54331 0.784297
v 284.242 -131.232 728.526
vn -0.256419 0.965056 -0.0539927
v 284.542 -130.824 728.245
vn -0.0575076 -0.961166 0.269914
v 283.501 -140.292 728.843
vn -0.0190462 -0.99946 0.0267715
v 285.551 -140.152 728.724
vn -0.296186 0.918593 -0.26165
v 284.453 -131.239 726.232
vn -0.27805 -0.913153 -0.298059
v 283.551 -139.675 724.507
vn -0.0202241 -0.996664 -0.0790636
v 285.339 -139.796 725.505
vn -0.340946 0.800521 -0.492871
v 285.058 -132.249 723.609
vn -0.24863 -0.968581 0.00574689
v 285.16 -139.919 721.682
vn -0.901496 -0.257678 -0.347716
v 285.448 -139.571 718.092
vn -0.299957 -0.568697 0.765904
v 287.824 -139.736 732.744
vn -0.647674 0.0417919 0.76077
v 286.725 -138.55 733.005
vn -0.390014 0.35728 0.84867
v 286.775 -131.564 729.351
vn -0.261811 0.781089 0.566881
v 287.319 -130.548 728.951
vn -0.101066 0.967641 -0.231206
v 287.218 -130.43 727.344
vn -0.0254012 0.998096 -0.0562062
v 287.934 -130.287 727.984
vn -0.755269 0.36865 -0.541909
v 285.897 -136.303 718.449
vn -0.538001 -0.842335 0.0320333
v 286.657 -140.918 717.264
vn -0.665329 -0.745301 0.0431678
v 286.75 -141.039 715.533
vn -0.453879 -0.875146 0.167669
v 287.305 -141.452 715.944
vn -0.383113 0.321193 0.86606
v 291.418 -136.339 733.398
vn -0.0267174 -0.578338 0.815359
v 290.272 -140.009 733.067
vn 0.0560993 -0.923421 0.379665
v 290.609 -140.714 732.121
vn 0.0797656 -0.330407 0.940462
v 290.926 -139.177 733.447
vn 0.319747 -0.627358 0.710059
v 291.627 -139.792 732.938
vn -0.288285 0.507591 0.811938
v 291.032 -131.695 732.216
vn 0.18372 -0.982953 -0.00709195
v 291.561 -140.753 730.685
vn -0.0971198 0.940633 0.325234
v 288.712 -130.408 729.377
vn -0.00821585 0.9285 -0.371241
v 289.104 -132.325 722.043
vn -0.140719 -0.955054 0.260903
v 290.897 -141.882 717.977
vn -0.299852 -0.890999 0.340896
v 288.246 -142.622 712.988
vn -0.942749 -0.0737488 -0.325247
v 288.291 -141.147 710.929
vn -0.772404 0.380137 -0.508811
v 290.021 -142.996 706.326
vn 0.0268784 0.0330335 0.999093
v 291.849 -137.282 733.771
vn 0.342565 0.367457 0.864653
v 293.614 -133.406 733.145
vn 0.651109 -0.707809 0.273977
v 292.282 -140.152 731.931
vn 0.539787 -0.372734 0.754785
v 292.584 -138.373 733.295
vn 0.636542 -0.109061 0.763492
v 294.088 -135.528 732.883
vn 0.183163 0.833729 0.520911
v 292.018 -131.295 731.868
vn 0.517447 0.843426 0.1445
v 293.652 -131.277 730.39
vn 0.645405 -0.763243 -0.0302085
v 292.477 -140.08 729.454
vn 0.210047 0.976236 0.0533321
v 292.133 -130.485 728.891
vn 0.216373 0.941112 -0.259788
v 292.1 -130.576 728.21
vn 0.546901 0.814891 -0.191971
v 292.808 -130.849 728.235
vn 0.345045 -0.936706 0.0593854
v 291.997 -140.169 727.04
vn 0.229238 0.881996 -0.411743
v 292.329 -136.328 713.612
vn -0.323359 0.740886 -0.588665
v 291.547 -139.714 708.055
vn -0.601504 -0.590526 0.538025
v 292.011 -148.87 702.543
vn -0.401212 -0.613563 0.680124
v 292.538 -149.171 702.582
vn -0.635408 -0.687067 0.352415
v 291.407 -147.627 703.715
vn -0.962116 -0.257048 -0.0908782
v 291.158 -147.444 702.987
vn -0.806524 -0.586486 0.0745208
v 291.687 -151.323 700.96
vn -0.298622 -0.645226 0.703213
v 292.683 -151.953 701.397
vn -0.98481 -0.0913507 -0.147666
v 291.473 -150.664 700.834
vn -0.920312 -0.331796 0.207211
v 291.452 -148.423 702.125
vn -0.597094 -0.455194 0.660512
v 291.841 -149.355 701.949
vn -0.790522 -0.306348 0.530308
v 291.602 -149.439 701.627
vn -0.864246 -0.177306 0.470788
v 291.518 -149.85 701.365
vn -0.991888 -0.05204 0.115974
v 291.468 -149.39 701.272
vn -0.975267 0.0361751 -0.218049
v 291.555 -148.5 701.085
vn -0.539428 -0.344837 0.768183
v 291.883 -150.118 701.631
vn -0.88928 0.13335 -0.437492
v 291.833 -147.875 700.593
vn -0.907405 -0.394416 -0.145092
v 292.832 -153.139 698.48
vn -0.479176 -0.868215 0.128814
v 292.969 -153.264 698.85
vn -0.901628 0.061167 -0.428166
v 293.001 -152.59 697.658
vn -0.106021 -0.952605 -0.285137
v 293.296 -153.32 698.497
vn -0.781378 -0.127082 -0.610981
v 293.215 -152.306 697.239
vn 0.796176 0.13892 0.588901
v 294.79 -133.503 732.201
vn 0.903364 -0.284895 0.320576
v 295.395 -136.23 730.634
vn 0.685472 0.583824 0.435061
v 294.989 -132.616 731.308
vn 0.961348 0.134225 0.240405
v 295.311 -133.336 731.092
vn 0.881379 0.472229 -0.013088
v 295.291 -132.8 730.281
vn 0.816379 -0.56578 0.115836
v 294.607 -137.841 728.196
vn 0.863853 -0.50274 0.0317863
v 294.906 -137.347 728.782
vn 0.995328 -0.0964479 0.00440309
v 295.574 -135.685 728.059
vn 0.934482 0.352333 -0.0510321
v 295.721 -136.73 724.062
vn 0.473124 -0.82361 0.312763
v 295.44 -140.052 721.254
vn 0.863365 0.49624 -0.091364
v 295.472 -136.679 719.855
vn -0.193418 -0.916182 0.350998
v 294.223 -144.605 712.783
vn 0.117891 -0.832008 0.542093
v 295.866 -146.047 709.742
vn -0.23546 -0.659912 0.713495
v 295.402 -150.785 702.145
vn -0.231618 0.789535 -0.56832
v 294.916 -146.282 699.076
vn -0.039858 -0.967891 0.248189
v 293.686 -153.394 699.196
vn 0.207044 -0.94429 -0.255832
v 295.027 -153.234 698.753
vn 0.320833 -0.820135 -0.473756
v 295.273 -152.77 697.605
vn -0.673819 0.491866 -0.551394
v 293.465 -147.026 698.943
vn -0.189408 0.718326 -0.669427
v 294.88 -147.615 696.899
vn -0.211711 -0.570811 -0.793318
v 293.815 -152.369 696.692
vn -0.846632 0.126728 -0.51687
v 293.716 -149.577 696.654
vn -0.662001 -0.0724352 -0.745995
v 294.016 -150.697 696.202
vn -0.746188 0.0870795 -0.660015
v 294.299 -150.027 695.935
vn 0.0748296 0.315785 -0.945875
v 294.922 -148.907 696.112
vn 0.260964 -0.115282 -0.95844
v 295.701 -150.23 696.112
vn -0.731671 0.355023 -0.581907
v 294.239 -148.927 696.189
vn 0.946178 0.320076 0.0479433
v 296.754 -140.147 717.71
vn 0.512244 -0.677046 0.528407
v 298.16 -143.814 710.342
vn 0.510201 -0.610292 0.606002
v 296.861 -146.034 709.105
vn 0.545425 0.797939 -0.256525
v 297.765 -142.448 705.17
vn -0.316546 -0.556815 0.767956
v 298.663 -150.164 703.918
vn -0.0991227 -0.733682 0.672224
v 298.194 -149.588 704.17
vn -0.0182043 -0.814998 0.579178
v 296.805 -151.693 701.511
vn -0.291425 -0.792679 0.535474
v 298.211 -151.581 702.127
vn 0.127369 -0.969473 -0.209522
v 298.122 -152.042 700.067
vn 0.287793 -0.840843 -0.458431
v 297.658 -151.715 698.402
vn -0.0104507 -0.946434 -0.322729
v 298.415 -151.887 699.377
vn 0.275613 -0.578286 -0.767869
v 298.577 -150.756 697.572
vn -0.0850492 0.815507 -0.572464
v 296.275 -146.352 698.68
vn 0.355735 -0.577901 -0.734495
v 296.492 -151.099 696.845
vn 0.969507 0.0328594 0.242849
v 299.175 -143.646 708.159
vn 0.895007 0.441194 0.06566
v 299.344 -143.839 707.14
vn 0.599891 -0.486714 0.635012
v 299.446 -145.242 707.104
vn 0.478213 -0.564166 0.673074
v 299.548 -148.447 705.11
vn -0.230029 -0.384115 0.894171
v 300.702 -150.537 704.735
vn -0.0466344 -0.107864 0.993071
v 300.681 -150.175 704.798
vn -0.16305 -0.701901 0.693361
v 300.716 -151.059 704.362
vn -0.15693 -0.888651 0.430897
v 300.702 -152.159 702.837
vn 0.298945 -0.296024 0.907194
v 301.046 -150.503 704.767
vn 0.19393 -0.687318 0.69999
v 301.06 -151.062 704.348
vn 0.66301 -0.445123 0.6019
v 301.392 -150.92 704.306
vn 0.777207 -0.0277139 0.628635
v 301.374 -150.545 704.433
vn 0.256929 -0.86192 0.43713
v 301.39 -152.165 702.808
vn 0.947641 0.013366 0.319057
v 301.737 -150.628 703.878
vn 0.559828 -0.424771 0.711451
v 300.99 -147.779 704.374
vn 0.603754 0.766153 -0.220207
v 299.831 -144.549 702.707
vn 0.92028 0.38114 0.08841
v 301.074 -146.024 702.606
vn -0.109209 -0.990795 0.0799917
v 300.289 -152.565 701.187
vn 0.399887 -0.911036 -0.10052
v 301.657 -152.493 701.111
vn 0.123705 -0.796244 -0.592194
v 299.685 -151.219 698.314
vn 0.0703453 -0.886446 -0.457455
v 300.527 -152.274 699.705
vn 0.258349 -0.589401 -0.765417
v 301.062 -151.076 698.476
vn 0.451941 -0.726344 -0.517856
v 301.521 -151.887 699.488
vn 0.318532 -0.361017 -0.876473
v 300.915 -149.46 697.848
vn 0.207749 0.708624 -0.674309
v 299.358 -146.5 698.223
vn 0.628076 0.643712 -0.437213
v 300.784 -146.903 698.594
vn 0.460373 0.331671 -0.823438
v 300.803 -147.681 698.006
vn 0.857551 -0.473216 0.201675
v 302.078 -152.094 701.711
vn 0.998068 -0.00512823 0.0619211
v 302.2 -151.48 701.228
vn 0.907506 -0.365004 -0.207858
v 302.156 -151.687 700.222
vn 0.928698 0.213016 -0.303553
v 301.927 -148.47 698.867
vn 0.5096 -0.495755 -0.703232
v 301.872 -150.632 698.614
vn -0.471074 0.877086 -0.0938612
v 281.562 -132.598 728.042
vn -0.274112 -0.768973 0.577531
v 285.683 -139.158 732.152
vn -0.419552 -0.0257944 0.907365
v 285.988 -138.387 732.369
vn -0.354708 0.692637 0.628042
v 284.542 -130.824 728.245
vn -0.125317 -0.946369 0.297793
v 287.824 -139.736 732.744
vn -0.290727 0.0248382 0.956483
v 286.725 -138.55 733.005
vn -0.89723 -0.33063 -0.292681
v 286.75 -141.039 715.533
vn -0.926458 -0.296033 -0.232464
v 288.246 -142.622 712.988
vn -0.653647 -0.736371 0.174651
v 288.246 -142.622 712.988
vn -0.726174 -0.277672 0.628943
v 291.687 -151.323 700.96
vn -0.382339 -0.820932 -0.424132
v 292.832 -153.139 698.48
vn -0.554671 -0.577609 -0.598922
v 293.001 -152.59 697.658
vn 0.946419 -0.265677 0.183597
v 295.721 -136.73 724.062
vn 0.504045 -0.718043 0.47995
v 294.223 -144.605 712.783
vn 0.205532 -0.904756 0.373059
v 295.027 -153.234 698.753
vn -0.0592538 -0.0660455 -0.996056
v 294.299 -150.027 695.935
vn -0.115475 0.370816 -0.921499
v 294.239 -148.927 696.189
vn 0.624123 -0.700925 0.345216
v 296.754 -140.147 717.71
vn 0.96574 -0.127827 0.225847
v 296.754 -140.147 717.71
vn 0.841646 -0.402028 0.360562
v 296.754 -140.147 717.71
vn 0.882349 -0.263098 0.390178
v 298.16 -143.814 710.342
vn -0.241709 -0.970245 0.0141912
v 296.805 -151.693 701.511
vn 0.184022 -0.903794 0.386384
v 298.122 -152.042 700.067
vn 0.951706 0.0655225 0.299936
v 299.446 -145.242 707.104
vn -0.267895 -0.452547 0.850549
v 299.548 -148.447 705.11
vn 0.412208 0.106646 0.904827
v 299.548 -148.447 705.11
vn 0.875558 0.177771 0.449217
v 300.99 -147.779 704.374
vn 0.313073 0.125899 0.941347
v 300.99 -147.779 704.374
vn 0.552638 0.0951641 -0.82797
v 300.915 -149.46 697.848
vn 0.673879 0.068612 -0.735649
v 301.872 -150.632 698.614
vn 0.984195 -0.00457173 -0.17703
v 301.872 -150.632 698.614
f 12//12 13//13 1//1
f 1//1 13//13 15//15
f 8//8 1//1 3//3
f 15//15 2//2 1//1
f 2//2 15//15 26//26
f 3//3 1//1 2//2
f 2//2 5//5 3//3
f 2//2 26//26 5//5
f 3//3 5//5 4//4
f 5//5 6//6 4//4
f 7//7 1//1 8//8
f 20//20 8//8 18//18
f 8//8 3//3 18//18
f 20//20 18//18 21//21
f 7//7 12//12 1//1
f 8//8 9//9 7//7
f 7//7 9//9 10//10
f 7//7 10//10 12//12
f 9//9 8//8 11//11
f 11//11 20//20 23//23
f 8//8 20//20 11//11
f 34//34 9//9 11//11
f 39//39 11//11 23//23
f 12//12 14//14 13//13
f 15//15 13//13 16//16
f 14//14 16//16 13//13
f 14//14 12//12 10//10
f 36//36 14//14 10//10
f 36//36 37//37 14//14
f 15//15 17//17 26//26
f 37//37 16//16 14//14
f 17//17 15//15 16//16
f 17//17 27//27 26//26
f 16//16 37//37 17//17
f 18//18 19//19 21//21
f 18//18 3//3 19//19
f 3//3 4//4 19//19
f 22//22 21//21 19//19
f 6//6 19//19 4//4
f 6//6 22//22 19//19
f 6//6 31//31 22//22
f 21//21 23//23 20//20
f 22//22 24//24 21//21
f 24//24 22//22 28//28
f 21//21 24//24 23//23
f 23//23 24//24 25//25
f 39//39 23//23 25//25
f 30//30 25//25 24//24
f 39//39 25//25 40//40
f 26//26 6//6 5//5
f 26//26 32//32 6//6
f 22//22 31//31 28//28
f 29//29 24//24 28//28
f 29//29 28//28 33//33
f 30//30 24//24 29//29
f 42//42 30//30 29//29
f 42//42 25//25 30//30
f 33//33 42//42 29//29
f 32//32 31//31 6//6
f 33//33 28//28 31//31
f 31//31 32//32 33//33
f 26//26 53//53 32//32
f 32//32 53//53 46//46
f 27//27 53//53 26//26
f 178//178 11//11 39//39
f 10//10 35//35 36//36
f 9//9 179//179 10//10
f 9//9 34//34 179//179
f 179//179 34//34 48//48
f 37//37 36//36 49//49
f 41//41 27//27 177//177
f 41//41 177//177 38//38
f 17//17 37//37 180//180
f 52//52 51//51 38//38
f 51//51 41//41 38//38
f 63//63 40//40 43//43
f 41//41 44//44 27//27
f 51//51 65//65 41//41
f 25//25 42//42 43//43
f 40//40 25//25 43//43
f 42//42 45//45 43//43
f 42//42 33//33 45//45
f 53//53 27//27 44//44
f 44//44 41//41 65//65
f 33//33 32//32 46//46
f 44//44 83//83 53//53
f 33//33 54//54 45//45
f 46//46 54//54 33//33
f 47//47 178//178 39//39
f 182//182 178//178 47//47
f 182//182 47//47 58//58
f 182//182 58//58 60//60
f 182//182 57//57 36//36
f 36//36 35//35 182//182
f 60//60 70//70 182//182
f 181//181 39//39 40//40
f 59//59 181//181 40//40
f 59//59 40//40 63//63
f 36//36 57//57 49//49
f 37//37 50//50 180//180
f 38//38 50//50 52//52
f 49//49 50//50 37//37
f 52//52 50//50 64//64
f 63//63 43//43 45//45
f 45//45 54//54 66//66
f 46//46 55//55 54//54
f 66//66 54//54 56//56
f 55//55 56//56 54//54
f 46//46 53//53 68//68
f 183//183 46//46 68//68
f 56//56 55//55 67//67
f 183//183 68//68 184//184
f 181//181 59//59 58//58
f 58//58 59//59 61//61
f 61//61 60//60 58//58
f 59//59 72//72 61//61
f 63//63 72//72 59//59
f 70//70 57//57 182//182
f 57//57 62//62 49//49
f 62//62 50//50 49//49
f 64//64 50//50 62//62
f 64//64 62//62 75//75
f 78//78 52//52 64//64
f 64//64 75//75 78//78
f 52//52 65//65 51//51
f 79//79 65//65 52//52
f 81//81 63//63 45//45
f 79//79 82//82 65//65
f 45//45 66//66 81//81
f 82//82 44//44 65//65
f 56//56 67//67 66//66
f 68//68 87//87 184//184
f 68//68 98//98 87//87
f 69//69 68//68 53//53
f 53//53 83//83 69//69
f 87//87 86//86 185//185
f 68//68 69//69 98//98
f 62//62 57//57 70//70
f 71//71 62//62 70//70
f 62//62 71//71 75//75
f 71//71 74//74 104//104
f 71//71 106//106 75//75
f 60//60 61//61 73//73
f 61//61 72//72 73//73
f 60//60 73//73 70//70
f 70//70 74//74 71//71
f 73//73 74//74 70//70
f 75//75 76//76 78//78
f 76//76 75//75 106//106
f 80//80 78//78 76//76
f 108//108 80//80 76//76
f 108//108 76//76 106//106
f 63//63 77//77 72//72
f 77//77 63//63 81//81
f 77//77 81//81 109//109
f 72//72 77//77 109//109
f 80//80 108//108 114//114
f 78//78 79//79 52//52
f 79//79 78//78 80//80
f 80//80 82//82 79//79
f 113//113 109//109 81//81
f 80//80 114//114 82//82
f 113//113 81//81 66//66
f 113//113 66//66 115//115
f 82//82 83//83 44//44
f 122//122 69//69 83//83
f 91//91 84//84 86//86
f 86//86 84//84 85//85
f 86//86 85//85 117//117
f 86//86 87//87 91//91
f 87//87 96//96 91//91
f 87//87 98//98 96//96
f 88//88 90//90 99//99
f 90//90 101//101 99//99
f 186//186 89//89 97//97
f 88//88 100//100 89//89
f 89//89 100//100 119//119
f 89//89 117//117 97//97
f 91//91 96//96 95//95
f 92//92 84//84 93//93
f 84//84 91//91 93//93
f 91//91 95//95 93//93
f 97//97 85//85 92//92
f 97//97 92//92 93//93
f 94//94 97//97 93//93
f 94//94 93//93 95//95
f 94//94 186//186 97//97
f 90//90 186//186 94//94
f 95//95 90//90 94//94
f 95//95 96//96 90//90
f 90//90 96//96 98//98
f 90//90 98//98 101//101
f 85//85 84//84 92//92
f 117//117 85//85 97//97
f 98//98 69//69 122//122
f 99//99 100//100 88//88
f 119//119 100//100 102//102
f 102//102 100//100 187//187
f 124//124 187//187 188//188
f 102//102 187//187 124//124
f 124//124 188//188 103//103
f 119//119 102//102 120//120
f 122//122 101//101 98//98
f 73//73 105//105 74//74
f 106//106 71//71 104//104
f 104//104 74//74 105//105
f 104//104 105//105 107//107
f 104//104 107//107 106//106
f 106//106 107//107 108//108
f 72//72 109//109 110//110
f 105//105 73//73 72//72
f 110//110 109//109 111//111
f 72//72 110//110 105//105
f 110//110 111//111 105//105
f 107//107 111//111 108//108
f 107//107 105//105 111//111
f 111//111 114//114 108//108
f 111//111 112//112 114//114
f 111//111 109//109 189//189
f 114//114 112//112 131//131
f 109//109 113//113 194//194
f 195//195 189//189 109//109
f 114//114 134//134 82//82
f 67//67 115//115 66//66
f 116//116 115//115 67//67
f 133//133 190//190 116//116
f 116//116 67//67 136//136
f 134//134 169//169 82//82
f 117//117 185//185 86//86
f 136//136 67//67 117//117
f 169//169 83//83 82//82
f 143//143 118//118 83//83
f 169//169 143//143 83//83
f 119//119 137//137 89//89
f 119//119 191//191 137//137
f 137//137 117//117 89//89
f 122//122 83//83 118//118
f 121//121 120//120 102//102
f 120//120 121//121 139//139
f 121//121 140//140 139//139
f 101//101 125//125 103//103
f 101//101 122//122 125//125
f 123//123 122//122 118//118
f 125//125 122//122 130//130
f 122//122 123//123 130//130
f 118//118 143//143 123//123
f 123//123 169//169 128//128
f 143//143 169//169 123//123
f 124//124 121//121 102//102
f 126//126 103//103 125//125
f 124//124 103//103 126//126
f 125//125 130//130 127//127
f 126//126 125//125 127//127
f 124//124 126//126 192//192
f 193//193 128//128 192//192
f 124//124 192//192 129//129
f 129//129 192//192 128//128
f 144//144 121//121 124//124
f 144//144 124//124 129//129
f 193//193 123//123 128//128
f 190//190 194//194 113//113
f 133//133 132//132 190//190
f 194//194 190//190 132//132
f 196//196 197//197 145//145
f 131//131 145//145 114//114
f 132//132 133//133 147//147
f 114//114 146//146 134//134
f 148//148 133//133 116//116
f 116//116 136//136 148//148
f 133//133 148//148 147//147
f 135//135 117//117 137//137
f 149//149 135//135 151//151
f 135//135 138//138 151//151
f 136//136 117//117 135//135
f 137//137 138//138 135//135
f 198//198 139//139 162//162
f 138//138 137//137 162//162
f 162//162 139//139 141//141
f 152//152 151//151 138//138
f 138//138 162//162 152//152
f 199//199 137//137 191//191
f 144//144 140//140 121//121
f 141//141 139//139 140//140
f 140//140 164//164 141//141
f 142//142 164//164 140//140
f 140//140 144//144 142//142
f 129//129 142//142 144//144
f 128//128 169//169 129//129
f 145//145 197//197 200//200
f 200//200 146//146 145//145
f 146//146 200//200 161//161
f 145//145 146//146 114//114
f 147//147 148//148 159//159
f 146//146 161//161 160//160
f 200//200 203//203 161//161
f 146//146 160//160 134//134
f 149//149 150//150 135//135
f 201//201 135//135 150//150
f 149//149 153//153 150//150
f 153//153 204//204 150//150
f 150//150 204//204 202//202
f 151//151 154//154 153//153
f 153//153 149//149 151//151
f 152//152 157//157 151//151
f 153//153 154//154 155//155
f 153//153 155//155 156//156
f 156//156 203//203 153//153
f 155//155 154//154 157//157
f 157//157 154//154 151//151
f 156//156 155//155 158//158
f 203//203 156//156 158//158
f 161//161 203//203 158//158
f 158//158 155//155 172//172
f 172//172 155//155 157//157
f 158//158 175//175 161//161
f 201//201 136//136 135//135
f 169//169 134//134 160//160
f 170//170 169//169 160//160
f 170//170 160//160 161//161
f 141//141 165//165 162//162
f 157//157 152//152 162//162
f 163//163 162//162 165//165
f 165//165 167//167 163//163
f 163//163 157//157 162//162
f 172//172 157//157 163//163
f 163//163 167//167 174//174
f 141//141 164//164 165//165
f 164//164 142//142 166//166
f 166//166 165//165 164//164
f 167//167 165//165 166//166
f 166//166 176//176 167//167
f 174//174 167//167 176//176
f 176//176 166//166 168//168
f 166//166 142//142 168//168
f 168//168 142//142 129//129
f 205//205 129//129 171//171
f 205//205 175//175 206//206
f 171//171 175//175 205//205
f 170//170 171//171 169//169
f 171//171 129//129 169//169
f 158//158 172//172 173//173
f 158//158 173//173 175//175
f 175//175 173//173 174//174
f 163//163 174//174 172//172
f 173//173 172//172 174//174
f 175//175 174//174 207//207
f 161//161 175//175 170//170
f 171//171 170//170 175//175
