# Wavafront OBJ file of BodyParts3D
# BodyParts3D, Copyright(C) 2010-2011 The Database Center for Life Science licensed under CC Attribution-Share Alike 2.1 Japan.
vn -0.667845 -0.58339 -0.462211
v -50.6843 -135.324 1329.45
vn -0.957959 0.278748 0.0679228
v -52.0938 -130.666 1330.76
vn -0.45585 0.590564 -0.66591
v -52.0933 -130.59 1330.45
vn -0.70464 -0.346088 -0.619439
v -53.2975 -132.523 1330.63
vn -0.734676 0.598587 -0.319289
v -52.9448 -132.113 1330.59
vn -0.588671 0.139376 -0.796267
v -52.6806 -132.085 1330.03
vn -0.201807 0.978346 -0.0459703
v -52.6538 -132.056 1330.52
vn -0.686812 0.431047 -0.585224
v -52.5191 -131.413 1330.3
vn -0.476099 0.419923 -0.772654
v -52.243 -131.356 1330.02
vn -0.392765 0.201783 0.897229
v -52.069 -131.908 1330.55
vn -0.672536 -0.725058 -0.14828
v -53.0931 -133.963 1331.91
vn -0.558129 -0.827151 0.0656798
v -51.8496 -134.903 1331.59
vn -0.821353 0.137674 0.553556
v -52.7468 -133.63 1332.47
vn -0.617474 -0.595198 0.514263
v -52.6202 -134.126 1332.52
vn -0.576304 0.714815 0.396121
v -52.059 -133.635 1333.44
vn -0.367809 -0.657149 0.657929
v -51.6885 -133.846 1333.56
vn -0.563991 -0.182617 -0.805335
v -51.0651 -133.892 1328.98
vn -0.348741 0.208714 -0.913684
v -50.6396 -133.177 1328.75
vn -0.533761 0.663433 -0.524362
v -51.9554 -129.58 1331.59
vn -0.155393 -0.619408 0.769537
v -51.6365 -129.579 1331.73
vn -0.409941 0.766347 -0.494632
v -51.4296 -129.228 1331.5
vn -0.172297 0.587255 -0.790851
v -50.3445 -130.257 1330.06
vn -0.244361 0.78936 -0.563203
v -50.5794 -128.916 1331.48
vn -0.387823 0.892618 -0.229842
v -50.882 -128.857 1331.79
vn -0.61111 0.0359014 0.790731
v -50.0139 -132.742 1334.98
vn -0.326199 -0.826215 0.459307
v -45.0674 -139.22 1329.37
vn -0.24687 0.899111 -0.361462
v -49.4543 -128.315 1331.98
vn -0.107529 0.798264 -0.592631
v -49.1368 -128.433 1331.67
vn -0.0642213 -0.56846 0.820201
v -48.0967 -128.656 1332.46
vn -0.407171 0.0455492 0.912216
v -48.2892 -127.873 1332.49
vn -0.538052 0.821695 0.18793
v -46.7377 -131.572 1337.14
vn -0.336325 0.935857 -0.10515
v -46.4267 -131.407 1337.75
vn -0.405458 -0.439991 0.801257
v -46.7562 -131.812 1337.45
vn -0.57291 -0.801635 -0.17075
v -42.5346 -141.154 1326.33
vn -0.456743 -0.147621 0.877265
v -47.3322 -127.816 1333.09
vn -0.52278 0.598203 0.607333
v -46.5706 -129.454 1333.74
vn -0.166609 -0.717268 0.676586
v -43.9282 -134.591 1335.56
vn -0.363427 0.929355 -0.0649617
v -46.1444 -131.311 1337.69
vn -0.580759 0.721323 0.377375
v -45.267 -131.08 1338.53
vn -0.447701 0.894183 0.000240039
v -45.2743 -130.924 1338.22
vn -0.173252 -0.602691 0.77894
v -44.8539 -131.286 1338.52
vn -0.664945 0.660501 0.348693
v -44.1546 -130.219 1339.02
vn -0.53526 -0.440727 -0.720594
v -42.1593 -140.787 1325.48
vn -0.411711 -0.85213 0.32306
v -41.1535 -141.944 1326.9
vn -0.0383118 0.582408 -0.811994
v -43.4054 -132.639 1327.77
vn -0.258721 -0.773692 0.578328
v -40.2469 -141.754 1327.74
vn -0.0995441 -0.70676 0.700415
v -41.0695 -136.611 1333.81
vn -0.0408562 0.826652 -0.561228
v -44.5269 -126.3 1334.3
vn 0.0921851 -0.689841 -0.718068
v -43.6508 -125.874 1335.06
vn 0.0921851 -0.689841 -0.718068
v -43.361 -125.802 1335.02
vn 0.0921851 -0.689841 -0.718068
v -43.3323 -125.893 1335.11
vn -0.532313 0.129465 0.836589
v -44.7745 -126.49 1334.52
vn 0.00750135 0.818605 -0.574308
v -43.3367 -126.128 1334.53
vn -0.133665 -0.538388 0.832029
v -43.5557 -126.314 1334.85
vn -0.0192695 0.864661 -0.501986
v -43.3154 -126.122 1334.54
vn 0.4505 -0.594884 -0.665705
v -43.2273 -126.393 1334.84
vn 0.211597 0.779072 0.590147
v -43.2204 -126.395 1334.84
vn 0.0399287 0.806497 -0.589889
v -43.0169 -126.042 1334.66
vn 0.0696 0.8129 -0.57823
v -42.7375 -125.966 1334.79
vn -0.328308 0.429653 0.841197
v -42.9868 -126.039 1335.1
vn -0.502951 0.81217 0.29567
v -43.7651 -129.893 1336.88
vn -0.0396 -0.648911 0.759833
v -43.5472 -131.58 1338.44
vn -0.0477038 -0.492585 0.868956
v -43.1968 -130.208 1339.47
vn -0.344609 -0.0283931 -0.938317
v -39.8967 -140.275 1324.2
vn -0.375513 -0.293042 -0.87927
v -37.0906 -143.001 1323.63
vn -0.129924 0.386385 -0.913141
v -39.2936 -137.633 1324.5
vn -0.504869 -0.700071 -0.504984
v -37.554 -143.998 1324.72
vn -0.274753 -0.789669 0.548574
v -36.3864 -144.245 1326.47
vn -0.429074 -0.896194 0.11284
v -36.6941 -144.684 1325.31
vn 0.0762318 0.732466 -0.676522
v -41.8494 -129.652 1330.44
vn -0.2691 0.760502 0.590951
v -42.7641 -125.641 1335.27
vn -0.384484 0.864114 0.324776
v -42.7394 -125.796 1335.08
vn -0.2691 0.760502 0.590951
v -42.7402 -125.71 1335.37
vn -0.2691 0.760502 0.590951
v -42.4607 -125.594 1335.35
vn 0.0777374 -0.603914 -0.793249
v -42.1629 -125.475 1335.6
vn 0.0777374 -0.603914 -0.793249
v -41.8728 -125.404 1335.57
vn -0.691454 0.516338 0.505259
v -41.8377 -125.617 1335.32
vn 0.0777374 -0.603914 -0.793249
v -41.8591 -125.449 1335.61
vn -0.968297 -0.240587 0.0672196
v -41.5324 -125.52 1335.6
vn -0.516963 0.367888 0.772922
v -41.2772 -125.244 1335.8
vn -0.274969 0.823667 -0.495948
v -41.2448 -125.437 1335.58
vn 0.0532545 0.860404 -0.506822
v -42.7177 -125.96 1334.8
vn 0.543967 -0.676131 -0.496938
v -42.6564 -126.125 1335.09
vn -0.121195 -0.486933 0.86499
v -42.4373 -126.187 1335.08
vn 0.0164015 0.9759 -0.217602
v -42.4188 -125.879 1334.93
vn -0.272809 0.378162 0.884629
v -42.4036 -125.863 1335.21
vn -0.691454 0.516338 0.505259
v -42.117 -125.795 1335.12
vn 0.177061 0.838398 0.515498
v -41.6089 -125.659 1335.31
vn -0.691454 0.516338 0.505259
v -41.8074 -125.702 1335.45
vn 0.537297 0.0980026 -0.837679
v -41.7491 -125.969 1335.33
vn -0.535993 0.653451 0.534522
v -41.3345 -127.534 1335.7
vn -0.968297 -0.240587 0.0672196
v -41.5182 -125.632 1335.4
vn 0.0737118 0.820779 -0.566469
v -41.5069 -125.704 1335.3
vn -0.968297 -0.240587 0.0672196
v -41.5031 -125.616 1335.68
vn 0.0785893 0.775513 -0.626421
v -41.1701 -125.867 1335.11
vn 0.397776 0.914397 -0.0751873
v -41.1444 -125.839 1335.58
vn -0.36795 -0.323979 0.871579
v -41.083 -126.143 1335.38
vn -0.444674 -0.14771 0.883429
v -40.9396 -126.727 1335.35
vn 0.135189 0.870014 0.474131
v -40.9321 -125.477 1335.56
vn -0.13909 0.779723 0.610481
v -41.2075 -125.538 1335.75
vn 0.487736 0.083866 -0.868953
v -41.1479 -125.822 1335.59
vn 0.17712 0.725795 -0.664718
v -40.8759 -125.759 1335.27
vn -0.804904 0.459453 -0.375542
v -40.926 -125.475 1335.57
vn 0.549785 -0.57501 -0.605888
v -41.6217 -125.005 1336.15
vn 0.549785 -0.57501 -0.605888
v -41.5953 -124.998 1336.17
vn 0.549785 -0.57501 -0.605888
v -41.6165 -125.021 1336.17
vn -0.516963 0.367888 0.772922
v -41.1657 -125.213 1335.86
vn -0.516963 0.367888 0.772922
v -41.2455 -125.351 1335.87
vn -0.249815 0.930953 -0.266307
v -41.1173 -125.188 1336.16
vn -0.571181 0.554236 -0.605454
v -41.3235 -124.595 1336.73
vn -0.571181 0.554236 -0.605454
v -41.3688 -124.604 1336.77
vn -0.571181 0.554236 -0.605454
v -41.3641 -124.632 1336.74
vn -0.24374 0.968881 -0.0431291
v -40.9762 -125.16 1335.97
vn -0.804904 0.459453 -0.375542
v -40.9527 -125.288 1335.85
vn -0.0548137 -0.0580337 -0.996809
v -41.0444 -124.758 1336.43
vn -0.0548137 -0.0580337 -0.996809
v -40.8553 -124.8 1336.42
vn -0.0548137 -0.0580337 -0.996809
v -40.9932 -124.962 1336.44
vn 0.480386 -0.701398 -0.526565
v -41.0679 -124.521 1336.94
vn 0.480386 -0.701398 -0.526565
v -40.9364 -124.485 1337.01
vn 0.480386 -0.701398 -0.526565
v -41.0498 -124.571 1337.02
vn -0.890154 -0.205889 0.406491
v -40.7772 -124.754 1337.01
vn -0.085323 0.919591 -0.383501
v -40.5777 -125.054 1336.12
vn 0.154464 0.799464 -0.580516
v -40.7277 -124.765 1336.5
vn 0.0873732 0.88802 -0.451427
v -40.4395 -124.684 1336.69
vn 0.591891 -0.531471 -0.605974
v -40.662 -124.969 1336.72
vn -0.693363 0.551932 0.463269
v -40.7619 -124.433 1337.2
vn -0.693363 0.551932 0.463269
v -40.6811 -124.408 1337.29
vn -0.693363 0.551932 0.463269
v -40.7408 -124.49 1337.3
vn -0.804904 0.459453 -0.375542
v -41.0836 -125.501 1335.87
vn 0.07907 0.961277 0.263997
v -40.6896 -125.39 1336.14
vn 0.181748 0.765933 -0.616697
v -40.3822 -125.327 1335.82
vn -0.646818 0.729299 0.223045
v -39.978 -127.522 1337.43
vn 0.550212 -0.0712386 -0.831981
v -40.4593 -127.322 1340.14
vn 0.550212 -0.0712386 -0.831981
v -40.4371 -127.316 1340.16
vn 0.550212 -0.0712386 -0.831981
v -40.4402 -127.394 1340.16
vn -0.950871 0.227757 -0.209692
v -39.8707 -126.571 1339.78
vn -0.487097 0.703014 -0.518177
v -41.0609 -128.102 1339.93
vn -0.420655 0.136849 0.89684
v -41.1151 -128.414 1340.17
vn 0.165393 -0.321049 0.932509
v -41.0471 -128.71 1340.09
vn -0.120284 -0.404266 -0.906698
v -40.9665 -127.756 1340.21
vn -0.583317 0.666889 0.463682
v -40.8994 -128.053 1340.11
vn -0.605119 0.772494 -0.192572
v -40.5989 -128.238 1339.32
vn -0.514436 0.630193 0.58156
v -40.5361 -127.662 1339.88
vn -0.120284 -0.404266 -0.906698
v -40.6787 -127.687 1340.14
vn -0.120284 -0.404266 -0.906698
v -40.6393 -127.829 1340.2
vn -0.349223 0.486287 0.800979
v -40.0989 -127.544 1340.08
vn -0.408367 -0.858741 -0.309516
v -34.7785 -145.483 1324.35
vn -0.379278 -0.564474 -0.733156
v -34.5252 -144.843 1323.4
vn 0.0745389 0.650267 -0.75604
v -37.6757 -134.991 1326.02
vn 0.096597 0.553966 -0.826916
v -36.0623 -136.831 1324.82
vn -0.261325 -0.856535 0.445037
v -34.1642 -145.521 1325.52
vn 0.149574 0.878484 -0.453755
v -40.425 -124.679 1336.71
vn 0.189702 0.974082 -0.123195
v -40.4428 -124.447 1337.28
vn 0.389341 0.891925 -0.229964
v -39.4273 -124.804 1337.24
vn -0.507943 -0.369974 0.777891
v -39.9229 -126.126 1336.15
vn -0.796519 0.474643 0.374528
v -39.5328 -126.915 1337.09
vn -0.662216 -0.296578 0.688122
v -39.5974 -125.378 1337.2
vn -0.915597 0.40156 -0.0207935
v -39.1475 -126.162 1337.91
vn 0.518087 0.8543 -0.0419167
v -38.7163 -125.142 1337.53
vn 0.60002 0.759803 0.250351
v -38.2977 -125.448 1337.82
vn 0.0138971 -0.547754 0.836524
v -36.774 -133.033 1337.08
vn -0.657638 -0.640071 0.397268
v -39.7792 -124.762 1338.16
vn 0.328427 0.918271 0.221164
v -39.3723 -124.774 1338.14
vn -0.876002 0.459082 -0.147866
v -39.6079 -127.176 1338.6
vn -0.989104 0.106742 -0.101384
v -39.8269 -126.254 1339.68
vn -0.987556 0.150548 0.0454852
v -39.8188 -126.246 1339.83
vn -0.516043 -0.0521579 0.854973
v -39.671 -126.825 1339.88
vn -0.931323 -0.347527 0.108918
v -39.3822 -125.281 1338.17
vn 0.304671 0.855399 0.418889
v -39.401 -124.963 1338.46
vn -0.841272 0.0390575 0.5392
v -39.5888 -125.001 1338.67
vn -0.841272 0.0390575 0.5392
v -39.5299 -124.982 1338.77
vn -0.841272 0.0390575 0.5392
v -39.5318 -125.201 1338.78
vn -0.171679 0.716959 0.675645
v -39.5047 -125.28 1338.89
vn -0.925524 0.371926 -0.0712461
v -39.253 -126.117 1339.51
vn 0.553851 0.705108 0.4428
v -39.2496 -125.096 1338.76
vn 0.544905 0.794964 0.266665
v -38.7922 -125.134 1338.13
vn 0.304418 -0.165586 0.938036
v -38.1895 -129.276 1339.07
vn -0.112404 0.197855 -0.973765
v -34.5731 -140.849 1322.97
vn -0.248957 -0.148606 -0.957046
v -33.2135 -143.929 1322.6
vn -0.315218 -0.943846 0.0989584
v -33.1359 -146.093 1324.9
vn 0.200099 0.758351 -0.620375
v -36.1448 -130.968 1331.23
vn 0.610954 0.543086 0.576015
v -37.0873 -126.577 1337.83
vn 0.512786 0.233526 0.826145
v -37.0568 -127.781 1338.42
vn -0.288507 -0.838575 -0.462121
v -28.6193 -147.367 1322.92
vn -0.255689 -0.794787 0.550397
v -30.2547 -146.124 1326.12
vn 0.162891 0.744887 -0.647001
v -33.5436 -133.543 1328.24
vn -0.246932 -0.679996 0.690384
v -30.2999 -142.225 1330.5
vn -0.159309 -0.142035 -0.976958
v -28.4522 -145.864 1321.78
vn -0.0365936 0.0628965 -0.997349
v -28.0177 -145.139 1321.71
vn -0.07402 -0.277655 -0.957825
v -27.725 -146.301 1321.77
vn 0.0818813 -0.0879049 -0.992758
v -27.5089 -145.94 1321.71
vn 0.152712 -0.303382 -0.940552
v -27.3568 -146.515 1321.84
vn 0.137701 0.227257 -0.96405
v -27.3497 -144.033 1321.9
vn 0.133737 0.433575 -0.891138
v -27.3899 -142.471 1322.45
vn -0.259219 -0.45687 -0.850926
v -28.5867 -146.507 1322
vn -0.0470207 -0.59053 -0.805645
v -27.5677 -146.871 1321.99
vn 0.257048 0.0452994 -0.965336
v -26.9351 -145.481 1321.81
vn 0.352674 -0.144664 -0.924496
v -26.844 -146.074 1321.88
vn 0.373512 -0.443608 -0.814678
v -26.608 -146.929 1322.22
vn -0.219587 -0.971641 -0.0877179
v -27.7695 -147.783 1323.5
vn 0.187859 -0.872462 -0.451131
v -26.6131 -147.898 1323.14
vn -0.213384 -0.928762 0.303097
v -27.0519 -147.86 1324.67
vn -0.214871 -0.879451 0.424731
v -26.5144 -147.546 1325.82
vn -0.00339467 -0.995612 0.0935189
v -26.1742 -148.002 1324.63
vn -0.0466752 -0.929992 0.364604
v -25.8683 -147.66 1325.79
vn 0.300047 0.818 -0.490762
v -30.7916 -130.679 1333.5
vn 0.474186 0.880074 -0.0248417
v -30.1111 -130.682 1334.37
vn -0.193579 -0.511981 0.836901
v -27.5246 -138.563 1334.49
vn 0.0587449 -0.305118 0.950501
v -30.5988 -134.381 1336.42
vn 0.300587 0.160569 0.940141
v -29.533 -133.725 1336.26
vn 0.355901 0.538982 -0.763435
v -26.7441 -141.021 1323.55
vn 0.422306 0.168002 -0.890749
v -26.6298 -144.399 1322.03
vn 0.430153 0.357758 -0.828841
v -26.6622 -142.907 1322.45
vn 0.703314 0.162146 -0.69214
v -25.6553 -143.874 1322.85
vn 0.535782 0.0244821 -0.844002
v -26.3959 -145.335 1322.05
vn 0.582325 -0.166262 -0.795773
v -26.1673 -146.197 1322.26
vn 0.76147 -0.0335529 -0.647332
v -25.6687 -145.744 1322.66
vn 0.710764 -0.371495 -0.597333
v -25.6193 -146.941 1323.03
vn 0.873951 -0.120648 -0.470801
v -25.2899 -146.241 1323.27
vn 0.696855 -0.620053 -0.360454
v -25.4076 -147.534 1323.96
vn 0.9147 0.0397315 -0.402176
v -24.7783 -143.898 1324.31
vn 0.753437 0.301523 -0.584309
v -25.0854 -142.122 1324.22
vn 0.945925 -0.140904 -0.292184
v -24.8016 -146.375 1324.46
vn 0.979119 -0.122941 -0.161899
v -24.3494 -145.873 1326.21
vn 0.46355 -0.879701 -0.106052
v -25.5852 -147.889 1324.59
vn 0.621408 -0.778126 0.0914954
v -25.293 -147.705 1325.16
vn 0.248246 -0.946393 0.206673
v -25.5581 -147.832 1325.19
vn 0.235193 -0.898651 0.370285
v -25.2839 -147.337 1326.44
vn 0.883806 -0.329733 -0.331907
v -25.0576 -147.069 1324.21
vn 0.798487 -0.582449 -0.152221
v -25.0644 -147.423 1324.83
vn 0.91105 -0.396692 -0.112356
v -24.724 -146.933 1325.39
vn 0.790361 -0.605601 0.0926152
v -24.7546 -147.014 1326.3
vn 0.93672 -0.349917 -0.0106242
v -24.5028 -146.529 1326.26
vn 0.757803 -0.60315 0.248885
v -24.5217 -146.382 1327.45
vn -0.112301 -0.853741 0.508444
v -25.6407 -146.924 1327.24
vn 0.524789 -0.797664 0.297201
v -25.0092 -147.146 1326.62
vn 0.264018 -0.836936 0.479408
v -25.0643 -146.603 1327.77
vn -0.135358 -0.785365 0.604053
v -25.2482 -145.325 1329.69
vn -0.0753762 -0.719081 0.690826
v -24.7884 -144.328 1330.96
vn 0.382656 -0.747761 0.542611
v -24.4446 -144.551 1330.65
vn 0.973641 -0.22772 0.0129132
v -23.8847 -144.376 1329.41
vn 0.816565 -0.488297 0.307875
v -23.9515 -144.057 1330.59
vn -0.277 -0.561348 0.779846
v -25.033 -141.386 1333.5
vn -0.149121 -0.635855 0.757265
v -24.5992 -141.964 1333.22
vn 0.539387 0.654861 0.529356
v -28.3643 -131.955 1334.65
vn -0.0590426 -0.344642 0.936876
v -27.6745 -136.38 1335.68
vn 0.13851 -0.0978181 0.985518
v -25.3509 -137.04 1335.55
vn -0.193679 -0.490958 0.849382
v -24.6128 -140.352 1334.33
vn 0.0881004 -0.13939 0.986311
v -27.5867 -135.418 1335.93
vn 0.966721 0.0509276 -0.250712
v -23.8631 -139.482 1327.92
vn 0.287152 0.720429 -0.631288
v -25.406 -134.86 1329.17
vn 0.600066 0.526416 -0.602334
v -24.6072 -135.599 1328.93
vn 0.883211 0.309599 -0.35226
v -23.8421 -136.309 1329.54
vn 0.378793 0.853456 -0.35795
v -25.2797 -133.538 1331.26
vn 0.553174 0.83116 -0.0563139
v -25.0093 -133.377 1332.44
vn 0.687931 0.650994 -0.32087
v -24.3626 -134.209 1330.95
vn 0.765583 0.63771 0.0849
v -24.1959 -134.088 1332.74
vn 0.93814 0.346098 0.0104582
v -23.593 -135.187 1332.47
vn 0.98846 0.107806 -0.106421
v -23.3431 -136.722 1331.34
vn 0.73077 -0.470361 0.494707
v -23.9851 -141.952 1333.18
vn 0.938303 -0.265297 0.221822
v -23.5445 -141.674 1332.54
vn 0.997763 -0.0635116 -0.0208581
v -23.4292 -141.389 1331.31
vn 0.58145 0.738461 0.341455
v -25.2919 -133.394 1333.66
vn 0.396684 0.227007 0.889443
v -25.3509 -135.803 1335.52
vn 0.514166 0.535401 0.670059
v -25.1911 -134.207 1334.6
vn 0.699918 0.342077 0.626976
v -24.1629 -135.544 1334.62
vn 0.785318 0.50285 0.361134
v -24.0956 -134.64 1333.67
vn 0.912396 0.232314 0.336994
v -23.755 -135.778 1334.01
vn 0.174211 -0.205881 0.962945
v -24.8539 -137.853 1335.34
vn 0.396791 0.00803501 0.917874
v -24.7761 -136.902 1335.4
vn 0.779232 -0.011913 0.626622
v -23.8963 -138.257 1334.77
vn 0.496623 -0.103356 0.861791
v -24.1442 -138.309 1335
vn 0.630595 0.130348 0.765088
v -24.285 -136.485 1335.04
vn 0.834257 0.127281 0.536484
v -23.9526 -136.418 1334.66
vn 0.989418 0.0814274 0.120087
v -23.4084 -136.349 1333.13
vn 0.153014 -0.503211 0.850509
v -24.1972 -140.839 1334.11
vn 0.0587119 -0.369966 0.927188
v -24.5295 -139.291 1334.86
vn 0.806268 -0.272739 0.524925
v -23.6942 -140.409 1333.97
vn 0.618033 -0.217247 0.755539
v -24.0105 -138.903 1334.8
vn 0.982064 -0.083055 0.169267
v -23.4342 -140.062 1333.34
vn 0.921726 -0.0161052 0.387508
v -23.5598 -138.509 1334.16
vn -0.532508 0.552441 -0.641283
v 38.8936 -124.51 1337.44
vn 0.151342 0.682209 -0.715323
v 40.5231 -125.421 1335.6
vn 0.151342 0.682209 -0.715323
v 40.5452 -125.415 1335.61
vn 0.151342 0.682209 -0.715323
v 40.5474 -125.427 1335.59
vn -0.532508 0.552441 -0.641283
v 38.898 -124.509 1337.44
vn -0.532508 0.552441 -0.641283
v 38.8976 -124.507 1337.44
vn 0.361968 0.693423 -0.623012
v 38.9006 -124.508 1337.44
vn -0.455402 0.602057 0.655847
v 38.8983 -124.509 1337.44
vn -0.215268 -0.765804 -0.605974
v 38.8988 -124.511 1337.44
vn -0.153045 -0.566315 0.809855
v -52.0938 -130.666 1330.76
vn -0.957959 0.278748 0.0679228
v -52.0933 -130.59 1330.45
vn -0.734676 0.598587 -0.319289
v -53.2975 -132.523 1330.63
vn -0.768677 0.419739 0.482654
v -53.2975 -132.523 1330.63
vn -0.612113 0.583108 0.534137
v -52.9448 -132.113 1330.59
vn -0.201807 0.978346 -0.0459703
v -52.9448 -132.113 1330.59
vn -0.00755185 0.778305 0.627841
v -52.9448 -132.113 1330.59
vn -0.734676 0.598587 -0.319289
v -52.6806 -132.085 1330.03
vn -0.201807 0.978346 -0.0459703
v -52.6806 -132.085 1330.03
vn -0.975068 0.218111 0.0408606
v -52.6806 -132.085 1330.03
vn -0.115885 0.775603 0.620493
v -52.6538 -132.056 1330.52
vn -0.975068 0.218111 0.0408606
v -52.6538 -132.056 1330.52
vn -0.132342 0.345845 0.928912
v -52.6538 -132.056 1330.52
vn -0.890882 0.4411 0.108444
v -52.5191 -131.413 1330.3
vn -0.975068 0.218111 0.0408606
v -52.5191 -131.413 1330.3
vn -0.301688 0.19414 0.933431
v -52.5191 -131.413 1330.3
vn -0.146437 -0.454559 0.878597
v -52.5191 -131.413 1330.3
vn -0.464839 0.736104 0.492012
v -52.069 -131.908 1330.55
vn -0.862616 0.044174 0.503927
v -53.0931 -133.963 1331.91
vn -0.280805 0.772241 0.569906
v -52.7468 -133.63 1332.47
vn -0.629301 -0.27721 0.726041
v -52.059 -133.635 1333.44
vn -0.993903 0.107337 0.0251946
v -51.9554 -129.58 1331.59
vn -0.325019 -0.54869 0.770261
v -51.9554 -129.58 1331.59
vn -0.557995 0.829813 -0.0072305
v -51.9554 -129.58 1331.59
vn -0.372284 0.310764 0.874546
v -51.9554 -129.58 1331.59
vn -0.308494 0.175808 0.934838
v -51.6365 -129.579 1331.73
vn -0.361408 0.298626 0.883293
v -50.882 -128.857 1331.79
vn -0.525526 0.750111 0.401443
v -50.0139 -132.742 1334.98
vn -0.491096 0.228298 0.840657
v -48.0967 -128.656 1332.46
vn -0.234439 -0.399045 0.886455
v -48.0967 -128.656 1332.46
vn -0.354968 0.934878 0.00130432
v -48.2892 -127.873 1332.49
vn -0.144863 0.88139 -0.44963
v -48.2892 -127.873 1332.49
vn -0.465681 0.85618 0.223822
v -48.2892 -127.873 1332.49
vn -0.835245 0.460557 0.300421
v -46.4267 -131.407 1337.75
vn -0.489831 0.773772 0.401675
v -46.4267 -131.407 1337.75
vn -0.51284 -0.190696 0.837037
v -46.4267 -131.407 1337.75
vn -0.710678 0.579921 0.398281
v -46.7562 -131.812 1337.45
vn -0.334903 -0.420528 0.843206
v -45.267 -131.08 1338.53
vn -0.423414 0.0311704 0.9054
v -45.267 -131.08 1338.53
vn -0.580759 0.721323 0.377375
v -45.2743 -130.924 1338.22
vn -0.422629 0.0841278 0.90239
v -44.1546 -130.219 1339.02
vn -0.447353 0.845692 -0.290997
v -44.1546 -130.219 1339.02
vn -0.563084 0.562407 0.605504
v -44.1546 -130.219 1339.02
vn -0.425981 0.861964 0.274879
v -44.5269 -126.3 1334.3
vn -0.0921851 0.689841 0.718068
v -43.6508 -125.874 1335.06
vn -0.0921851 0.689841 0.718068
v -43.361 -125.802 1335.02
vn -0.0921851 0.689841 0.718068
v -43.3323 -125.893 1335.11
vn -0.425981 0.861964 0.274879
v -44.7745 -126.49 1334.52
vn -0.20104 -0.467716 0.860712
v -44.7745 -126.49 1334.52
vn -0.381307 0.477871 0.791356
v -44.7745 -126.49 1334.52
vn 0.211597 0.779072 0.590147
v -43.3367 -126.128 1334.53
vn 0.4505 -0.594884 -0.665705
v -43.3367 -126.128 1334.53
vn -0.210882 -0.779462 -0.589888
v -43.3367 -126.128 1334.53
vn -0.443451 0.590775 0.674044
v -43.3367 -126.128 1334.53
vn 0.211597 0.779072 0.590147
v -43.5557 -126.314 1334.85
vn -0.210882 -0.779462 -0.589888
v -43.5557 -126.314 1334.85
vn 0.4505 -0.594884 -0.665705
v -43.3154 -126.122 1334.54
vn -0.243217 -0.756128 -0.607549
v -43.3154 -126.122 1334.54
vn 0.442922 -0.590683 -0.674472
v -43.3154 -126.122 1334.54
vn -0.210882 -0.779462 -0.589888
v -43.2273 -126.393 1334.84
vn -0.114353 -0.548055 0.828589
v -43.2273 -126.393 1334.84
vn -0.243217 -0.756128 -0.607549
v -43.2273 -126.393 1334.84
vn -0.104404 -0.585888 0.803639
v -43.2204 -126.395 1334.84
vn -0.443451 0.590775 0.674044
v -43.2204 -126.395 1334.84
vn -0.243217 -0.756128 -0.607549
v -43.2204 -126.395 1334.84
vn 0.442922 -0.590683 -0.674472
v -43.2204 -126.395 1334.84
vn -0.443451 0.590775 0.674044
v -43.0169 -126.042 1334.66
vn 0.442922 -0.590683 -0.674472
v -43.0169 -126.042 1334.66
vn 0.252603 0.881172 0.39966
v -42.7375 -125.966 1334.79
vn 0.543967 -0.676131 -0.496938
v -42.7375 -125.966 1334.79
vn -0.246869 -0.884472 -0.395935
v -42.7375 -125.966 1334.79
vn -0.471814 0.409495 0.780837
v -42.7375 -125.966 1334.79
vn -0.130427 -0.522632 0.842523
v -42.9868 -126.039 1335.1
vn 0.252603 0.881172 0.39966
v -42.9868 -126.039 1335.1
vn -0.246869 -0.884472 -0.395935
v -42.9868 -126.039 1335.1
vn -0.0577671 -0.361703 0.930502
v -42.9868 -126.039 1335.1
vn -0.422629 0.0841278 0.90239
v -43.1968 -130.208 1339.47
vn 0.2691 -0.760502 -0.590951
v -42.7641 -125.641 1335.27
vn 0.0359217 0.893631 -0.447363
v -42.7394 -125.796 1335.08
vn -0.328308 0.429653 0.841197
v -42.7394 -125.796 1335.08
vn 0.2691 -0.760502 -0.590951
v -42.7402 -125.71 1335.37
vn 0.2691 -0.760502 -0.590951
v -42.4607 -125.594 1335.35
vn -0.0777374 0.603914 0.793249
v -42.1629 -125.475 1335.6
vn -0.0777374 0.603914 0.793249
v -41.8728 -125.404 1335.57
vn 0.177061 0.838398 0.515498
v -41.8377 -125.617 1335.32
vn 0.537297 0.0980026 -0.837679
v -41.8377 -125.617 1335.32
vn -0.0548202 -0.058017 -0.996809
v -41.8377 -125.617 1335.32
vn -0.0777374 0.603914 0.793249
v -41.8591 -125.449 1335.61
vn -0.274969 0.823667 -0.495948
v -41.5324 -125.52 1335.6
vn -0.273505 0.703283 0.656192
v -41.5324 -125.52 1335.6
vn 0.516963 -0.367888 -0.772922
v -41.2772 -125.244 1335.8
vn -0.0343633 0.86205 0.505657
v -41.2448 -125.437 1335.58
vn 0.487736 0.083866 -0.868953
v -41.2448 -125.437 1335.58
vn -0.0546463 -0.0582916 -0.996803
v -41.2448 -125.437 1335.58
vn 0.543967 -0.676131 -0.496938
v -42.7177 -125.96 1334.8
vn -0.258568 -0.862959 -0.434102
v -42.7177 -125.96 1334.8
vn 0.461509 -0.411388 -0.785983
v -42.7177 -125.96 1334.8
vn -0.246869 -0.884472 -0.395935
v -42.6564 -126.125 1335.09
vn -0.0606671 -0.359252 0.931267
v -42.6564 -126.125 1335.09
vn -0.258568 -0.862959 -0.434102
v -42.6564 -126.125 1335.09
vn 0.252603 0.881172 0.39966
v -42.4373 -126.187 1335.08
vn -0.471814 0.409495 0.780837
v -42.4373 -126.187 1335.08
vn -0.258568 -0.862959 -0.434102
v -42.4373 -126.187 1335.08
vn 0.461509 -0.411388 -0.785983
v -42.4373 -126.187 1335.08
vn 0.0790127 0.795089 -0.601325
v -42.4188 -125.879 1334.93
vn -0.471814 0.409495 0.780837
v -42.4188 -125.879 1334.93
vn 0.461509 -0.411388 -0.785983
v -42.4188 -125.879 1334.93
vn -0.108961 -0.254545 0.960903
v -42.4036 -125.863 1335.21
vn 0.0270946 0.997849 -0.0596949
v -42.4036 -125.863 1335.21
vn 0.537297 0.0980026 -0.837679
v -42.117 -125.795 1335.12
vn -0.598434 -0.421394 0.681398
v -42.117 -125.795 1335.12
vn -0.0548202 -0.058017 -0.996809
v -41.6089 -125.659 1335.31
vn 0.592044 -0.202839 0.779961
v -41.6089 -125.659 1335.31
vn 0.177061 0.838398 0.515498
v -41.8074 -125.702 1335.45
vn -0.598434 -0.421394 0.681398
v -41.8074 -125.702 1335.45
vn 0.592044 -0.202839 0.779961
v -41.8074 -125.702 1335.45
vn -0.598434 -0.421394 0.681398
v -41.7491 -125.969 1335.33
vn -0.0548202 -0.058017 -0.996809
v -41.7491 -125.969 1335.33
vn 0.592044 -0.202839 0.779961
v -41.7491 -125.969 1335.33
vn -0.274969 0.823667 -0.495948
v -41.5182 -125.632 1335.4
vn 0.487736 0.083866 -0.868953
v -41.5182 -125.632 1335.4
vn -0.486669 -0.870143 0.0774881
v -41.5182 -125.632 1335.4
vn -0.169091 0.984425 -0.0481315
v -41.5069 -125.704 1335.3
vn -0.115917 0.0577472 0.991579
v -41.5069 -125.704 1335.3
vn 0.397776 0.914397 -0.0751873
v -41.5069 -125.704 1335.3
vn -0.632966 -0.513052 0.579769
v -41.5069 -125.704 1335.3
vn -0.333558 0.551016 0.764932
v -41.5031 -125.616 1335.68
vn -0.486669 -0.870143 0.0774881
v -41.5031 -125.616 1335.68
vn -0.0823933 -0.498062 0.863218
v -41.5031 -125.616 1335.68
vn 0.397776 0.914397 -0.0751873
v -41.1701 -125.867 1335.11
vn -0.325731 0.94473 -0.0372023
v -41.1701 -125.867 1335.11
vn -0.546089 -0.537282 0.64274
v -41.1444 -125.839 1335.58
vn -0.325731 0.94473 -0.0372023
v -41.1444 -125.839 1335.58
vn -0.735743 0.418994 -0.532096
v -41.1444 -125.839 1335.58
vn -0.356297 0.251832 0.899796
v -41.1444 -125.839 1335.58
vn -0.560789 0.479183 0.675203
v -40.9396 -126.727 1335.35
vn -0.0546463 -0.0582916 -0.996803
v -40.9321 -125.477 1335.56
vn 0.586038 -0.29696 0.753906
v -40.9321 -125.477 1335.56
vn -0.0823933 -0.498062 0.863218
v -41.2075 -125.538 1335.75
vn 0.586038 -0.29696 0.753906
v -41.2075 -125.538 1335.75
vn -0.486669 -0.870143 0.0774881
v -41.1479 -125.822 1335.59
vn -0.0823933 -0.498062 0.863218
v -41.1479 -125.822 1335.59
vn -0.0546463 -0.0582916 -0.996803
v -41.1479 -125.822 1335.59
vn 0.586038 -0.29696 0.753906
v -41.1479 -125.822 1335.59
vn -0.325731 0.94473 -0.0372023
v -40.8759 -125.759 1335.27
vn -0.735743 0.418994 -0.532096
v -40.8759 -125.759 1335.27
vn 0.0771364 0.784348 -0.615507
v -40.926 -125.475 1335.57
vn -0.735743 0.418994 -0.532096
v -40.926 -125.475 1335.57
vn -0.356297 0.251832 0.899796
v -40.926 -125.475 1335.57
vn 0.0190095 -0.990235 0.138103
v -40.926 -125.475 1335.57
vn -0.653562 -0.507663 0.561369
v -40.926 -125.475 1335.57
vn -0.549785 0.57501 0.605888
v -41.6217 -125.005 1336.15
vn -0.549785 0.57501 0.605888
v -41.5953 -124.998 1336.17
vn -0.549785 0.57501 0.605888
v -41.6165 -125.021 1336.17
vn 0.516963 -0.367888 -0.772922
v -41.1657 -125.213 1335.86
vn 0.516963 -0.367888 -0.772922
v -41.2455 -125.351 1335.87
vn -0.397395 -0.814786 -0.422137
v -41.1173 -125.188 1336.16
vn -0.236589 -0.546115 0.803607
v -41.1173 -125.188 1336.16
vn 0.571181 -0.554236 0.605454
v -41.3235 -124.595 1336.73
vn 0.571181 -0.554236 0.605454
v -41.3688 -124.604 1336.77
vn 0.571181 -0.554236 0.605454
v -41.3641 -124.632 1336.74
vn -0.397395 -0.814786 -0.422137
v -40.9762 -125.16 1335.97
vn 0.387313 -0.197601 -0.900523
v -40.9762 -125.16 1335.97
vn 0.0294191 0.837705 -0.54533
v -40.9527 -125.288 1335.85
vn 0.07907 0.961277 0.263997
v -40.9527 -125.288 1335.85
vn -0.593179 0.427015 0.682493
v -40.9527 -125.288 1335.85
vn 0.0951061 0.879507 -0.466286
v -41.0444 -124.758 1336.43
vn -0.890154 -0.205889 0.406491
v -41.0444 -124.758 1336.43
vn -0.768092 0.538764 0.346076
v -41.0444 -124.758 1336.43
vn 0.154474 0.79943 -0.58056
v -40.8553 -124.8 1336.42
vn 0.560112 -0.544718 -0.624145
v -40.8553 -124.8 1336.42
vn 0.554628 -0.532079 -0.63975
v -40.9932 -124.962 1336.44
vn -0.890154 -0.205889 0.406491
v -40.9932 -124.962 1336.44
vn -0.390739 -0.810322 0.436694
v -40.9932 -124.962 1336.44
vn -0.480386 0.701398 0.526565
v -41.0679 -124.521 1336.94
vn -0.480386 0.701398 0.526565
v -40.9364 -124.485 1337.01
vn -0.480386 0.701398 0.526565
v -41.0498 -124.571 1337.02
vn -0.390739 -0.810322 0.436694
v -40.7772 -124.754 1337.01
vn 0.632751 -0.487235 0.601853
v -40.7772 -124.754 1337.01
vn -0.320718 -0.770504 -0.550876
v -40.7772 -124.754 1337.01
vn -0.765873 0.401944 0.501876
v -40.7772 -124.754 1337.01
vn -0.476079 -0.778835 0.408367
v -40.7772 -124.754 1337.01
vn -0.727926 0.191506 -0.658369
v -40.5777 -125.054 1336.12
vn 0.387313 -0.197601 -0.900523
v -40.5777 -125.054 1336.12
vn 0.558542 -0.523969 -0.64303
v -40.7277 -124.765 1336.5
vn 0.612484 -0.536743 -0.580319
v -40.4395 -124.684 1336.69
vn -0.390739 -0.810322 0.436694
v -40.662 -124.969 1336.72
vn 0.632751 -0.487235 0.601853
v -40.662 -124.969 1336.72
vn 0.693363 -0.551932 -0.463269
v -40.7619 -124.433 1337.2
vn 0.693363 -0.551932 -0.463269
v -40.6811 -124.408 1337.29
vn 0.693363 -0.551932 -0.463269
v -40.7408 -124.49 1337.3
vn -0.593179 0.427015 0.682493
v -41.0836 -125.501 1335.87
vn 0.243726 -0.968885 0.0431184
v -41.0836 -125.501 1335.87
vn -0.593179 0.427015 0.682493
v -40.6896 -125.39 1336.14
vn -0.727926 0.191506 -0.658369
v -40.6896 -125.39 1336.14
vn -0.397395 -0.814786 -0.422137
v -40.6896 -125.39 1336.14
vn 0.387313 -0.197601 -0.900523
v -40.6896 -125.39 1336.14
vn -0.46456 -0.435558 0.771021
v -40.6896 -125.39 1336.14
vn 0.0190095 -0.990235 0.138103
v -40.6896 -125.39 1336.14
vn 0.07907 0.961277 0.263997
v -40.3822 -125.327 1335.82
vn -0.727926 0.191506 -0.658369
v -40.3822 -125.327 1335.82
vn -0.550212 0.0712386 0.831981
v -40.4593 -127.322 1340.14
vn -0.550212 0.0712386 0.831981
v -40.4371 -127.316 1340.16
vn -0.550212 0.0712386 0.831981
v -40.4402 -127.394 1340.16
vn -0.286299 0.340781 0.895489
v -39.8707 -126.571 1339.78
vn -0.516043 -0.0521579 0.854973
v -39.8707 -126.571 1339.78
vn -0.624382 0.611173 0.48643
v -41.0609 -128.102 1339.93
vn -0.634391 0.536872 0.556162
v -41.1151 -128.414 1340.17
vn 0.0900622 -0.242153 0.966049
v -41.1151 -128.414 1340.17
vn -0.109112 0.235295 0.96578
v -41.1151 -128.414 1340.17
vn 0.120284 0.404266 0.906698
v -40.9665 -127.756 1340.21
vn -0.109112 0.235295 0.96578
v -40.8994 -128.053 1340.11
vn -0.725467 0.514775 -0.456842
v -40.5361 -127.662 1339.88
vn 0.120284 0.404266 0.906698
v -40.6787 -127.687 1340.14
vn 0.120284 0.404266 0.906698
v -40.6393 -127.829 1340.2
vn -0.109112 0.235295 0.96578
v -40.0989 -127.544 1340.08
vn 0.335179 -0.150339 0.930082
v -40.0989 -127.544 1340.08
vn -0.46456 -0.435558 0.771021
v -40.425 -124.679 1336.71
vn 0.632751 -0.487235 0.601853
v -40.425 -124.679 1336.71
vn 0.654 -0.561709 -0.506722
v -40.425 -124.679 1336.71
vn -0.320718 -0.770504 -0.550876
v -40.425 -124.679 1336.71
vn -0.765873 0.401944 0.501876
v -40.4428 -124.447 1337.28
vn -0.848221 -0.068139 0.525241
v -39.9229 -126.126 1336.15
vn -0.356297 0.251832 0.899796
v -39.9229 -126.126 1336.15
vn -0.320718 -0.770504 -0.550876
v -39.5974 -125.378 1337.2
vn -0.781176 -0.492833 0.383249
v -39.5974 -125.378 1337.2
vn -0.206847 -0.952196 0.224804
v -39.5974 -125.378 1337.2
vn -0.952015 -0.176215 0.250233
v -39.1475 -126.162 1337.91
vn -0.730723 0.247842 0.636096
v -39.7792 -124.762 1338.16
vn 0.0494684 0.908582 0.414767
v -39.7792 -124.762 1338.16
vn -0.352738 0.677622 -0.645294
v -39.6079 -127.176 1338.6
vn -0.243727 0.968885 -0.0431123
v -39.8269 -126.254 1339.68
vn -0.352738 0.677622 -0.645294
v -39.8269 -126.254 1339.68
vn -0.516043 -0.0521579 0.854973
v -39.8188 -126.246 1339.83
vn -0.243727 0.968885 -0.0431123
v -39.8188 -126.246 1339.83
vn 0.444351 0.194486 0.874487
v -39.8188 -126.246 1339.83
vn -0.0988501 0.311948 0.944943
v -39.671 -126.825 1339.88
vn 0.478322 0.0767602 0.874823
v -39.671 -126.825 1339.88
vn -0.67916 -0.510843 0.527049
v -39.401 -124.963 1338.46
vn -0.314377 0.79931 0.512124
v -39.401 -124.963 1338.46
vn -0.981353 0.0924622 -0.168513
v -39.401 -124.963 1338.46
vn 0.841272 -0.0390575 -0.5392
v -39.5888 -125.001 1338.67
vn 0.841272 -0.0390575 -0.5392
v -39.5299 -124.982 1338.77
vn 0.841272 -0.0390575 -0.5392
v -39.5318 -125.201 1338.78
vn -0.974021 -0.153029 -0.166927
v -39.5047 -125.28 1338.89
vn -0.94257 -0.316545 -0.106585
v -39.253 -126.117 1339.51
vn -0.243727 0.968885 -0.0431123
v -39.253 -126.117 1339.51
vn -0.352738 0.677622 -0.645294
v -39.253 -126.117 1339.51
vn 0.555647 0.294875 0.777371
v -39.253 -126.117 1339.51
vn -0.0197302 0.595976 0.80276
v -39.253 -126.117 1339.51
vn -0.171679 0.716959 0.675645
v -39.2496 -125.096 1338.76
vn 0.0914891 -0.677603 0.729715
v -23.9851 -141.952 1333.18
vn -0.215268 -0.765804 -0.605974
v 38.8936 -124.51 1337.44
vn -0.455402 0.602057 0.655847
v 38.8936 -124.51 1337.44
vn -0.132357 -0.6836 0.717756
v 38.8936 -124.51 1337.44
vn -0.151342 -0.682209 0.715323
v 40.5231 -125.421 1335.6
vn -0.151342 -0.682209 0.715323
v 40.5452 -125.415 1335.61
vn -0.151342 -0.682209 0.715323
v 40.5474 -125.427 1335.59
vn -0.215268 -0.765804 -0.605974
v 38.898 -124.509 1337.44
vn 0.361968 0.693423 -0.623012
v 38.898 -124.509 1337.44
vn 0.667054 -0.455959 -0.589186
v 38.898 -124.509 1337.44
vn -0.455402 0.602057 0.655847
v 38.8976 -124.507 1337.44
vn 0.361968 0.693423 -0.623012
v 38.8976 -124.507 1337.44
vn 0.433105 0.737366 0.518373
v 38.8976 -124.507 1337.44
vn 0.667054 -0.455959 -0.589186
v 38.9006 -124.508 1337.44
vn 0.433105 0.737366 0.518373
v 38.9006 -124.508 1337.44
vn 0.719659 -0.393051 0.572365
v 38.9006 -124.508 1337.44
vn -0.132357 -0.6836 0.717756
v 38.8983 -124.509 1337.44
vn 0.433105 0.737366 0.518373
v 38.8983 -124.509 1337.44
vn 0.719659 -0.393051 0.572365
v 38.8983 -124.509 1337.44
vn -0.132357 -0.6836 0.717756
v 38.8988 -124.511 1337.44
vn 0.667054 -0.455959 -0.589186
v 38.8988 -124.511 1337.44
vn 0.719659 -0.393051 0.572365
v 38.8988 -124.511 1337.44
f 9//9 8//8 3//3
f 21//21 3//3 19//19
f 312//312 292//292 2//2
f 304//304 2//2 292//292
f 22//22 9//9 3//3
f 22//22 3//3 21//21
f 313//313 291//291 20//20
f 6//6 17//17 4//4
f 298//298 293//293 5//5
f 13//13 295//295 294//294
f 1//1 4//4 17//17
f 299//299 296//296 7//7
f 301//301 297//297 310//310
f 9//9 6//6 8//8
f 300//300 302//302 305//305
f 306//306 303//303 10//10
f 308//308 301//301 310//310
f 310//310 15//15 308//308
f 308//308 15//15 36//36
f 307//307 29//29 291//291
f 319//319 306//306 10//10
f 10//10 36//36 319//319
f 1//1 11//11 4//4
f 309//309 13//13 294//294
f 13//13 309//309 14//14
f 11//11 12//12 14//14
f 12//12 11//11 1//1
f 13//13 14//14 311//311
f 14//14 12//12 26//26
f 26//26 16//16 14//14
f 311//311 14//14 16//16
f 311//311 16//16 33//33
f 33//33 25//25 311//311
f 18//18 6//6 9//9
f 18//18 17//17 6//6
f 9//9 22//22 18//18
f 18//18 22//22 66//66
f 17//17 18//18 64//64
f 66//66 64//64 18//18
f 1//1 34//34 12//12
f 314//314 24//24 21//21
f 315//315 316//316 317//317
f 30//30 317//317 316//316
f 21//21 23//23 22//22
f 291//291 29//29 20//20
f 23//23 21//21 24//24
f 30//30 316//316 320//320
f 15//15 318//318 36//36
f 1//1 17//17 43//43
f 34//34 1//1 43//43
f 34//34 26//26 12//12
f 23//23 28//28 22//22
f 28//28 70//70 22//22
f 24//24 27//27 23//23
f 23//23 27//27 28//28
f 27//27 24//24 321//321
f 28//28 27//27 322//322
f 35//35 30//30 320//320
f 318//318 327//327 31//31
f 38//38 31//31 32//32
f 32//32 40//40 38//38
f 324//324 31//31 327//327
f 33//33 16//16 37//37
f 64//64 43//43 17//17
f 34//34 44//44 26//26
f 46//46 26//26 44//44
f 45//45 22//22 70//70
f 322//322 48//48 28//28
f 35//35 52//52 30//30
f 323//323 338//338 334//334
f 339//339 35//35 320//320
f 16//16 26//26 37//37
f 31//31 38//38 40//40
f 330//330 325//325 39//39
f 326//326 33//33 328//328
f 328//328 33//33 41//41
f 42//42 330//330 39//39
f 41//41 63//63 328//328
f 31//31 40//40 61//61
f 318//318 61//61 36//36
f 61//61 318//318 31//31
f 33//33 37//37 41//41
f 37//37 62//62 41//41
f 62//62 63//63 41//41
f 331//331 329//329 367//367
f 43//43 64//64 65//65
f 22//22 45//45 66//66
f 44//44 34//34 69//69
f 34//34 43//43 67//67
f 67//67 69//69 34//34
f 149//149 45//45 70//70
f 46//46 187//187 26//26
f 28//28 48//48 70//70
f 95//95 102//102 70//70
f 26//26 47//47 37//37
f 48//48 53//53 70//70
f 338//338 72//72 334//334
f 48//48 369//369 53//53
f 55//55 53//53 369//369
f 370//370 340//340 60//60
f 51//51 49//49 50//50
f 55//55 369//369 58//58
f 335//335 337//337 336//336
f 86//86 370//370 60//60
f 58//58 369//369 59//59
f 82//82 59//59 369//369
f 339//339 320//320 54//54
f 53//53 58//58 70//70
f 97//97 320//320 98//98
f 57//57 341//341 345//345
f 347//347 56//56 342//342
f 346//346 343//343 350//350
f 54//54 320//320 353//353
f 363//363 339//339 54//54
f 351//351 363//363 54//54
f 426//426 319//319 36//36
f 91//91 426//426 36//36
f 58//58 95//95 70//70
f 344//344 354//354 357//357
f 352//352 348//348 355//355
f 358//358 356//356 349//349
f 353//353 320//320 84//84
f 363//363 353//353 84//84
f 363//363 351//351 353//353
f 391//391 359//359 364//364
f 385//385 83//83 360//360
f 365//365 361//361 388//388
f 84//84 320//320 97//97
f 389//389 398//398 366//366
f 62//62 37//37 47//47
f 62//62 47//47 161//161
f 36//36 61//61 91//91
f 40//40 332//332 142//142
f 138//138 331//331 367//367
f 62//62 161//161 63//63
f 64//64 66//66 178//178
f 65//65 67//67 43//43
f 64//64 178//178 65//65
f 178//178 179//179 65//65
f 65//65 148//148 67//67
f 69//69 68//68 44//44
f 46//46 44//44 68//68
f 46//46 68//68 187//187
f 70//70 181//181 149//149
f 102//102 181//181 70//70
f 47//47 26//26 187//187
f 82//82 369//369 85//85
f 74//74 71//71 73//73
f 372//372 371//371 368//368
f 399//399 85//85 369//369
f 77//77 87//87 89//89
f 78//78 75//75 76//76
f 378//378 374//374 373//373
f 404//404 88//88 375//375
f 79//79 92//92 94//94
f 410//410 379//379 81//81
f 382//382 380//380 100//100
f 380//380 417//417 100//100
f 108//108 107//107 80//80
f 381//381 445//445 446//446
f 100//100 99//99 382//382
f 114//114 103//103 129//129
f 454//454 131//131 437//437
f 95//95 58//58 59//59
f 95//95 59//59 395//395
f 362//362 392//392 396//396
f 390//390 386//386 393//393
f 397//397 394//394 387//387
f 389//389 84//84 398//398
f 84//84 97//97 398//398
f 90//90 400//400 376//376
f 405//405 401//401 407//407
f 395//395 93//93 95//95
f 402//402 408//408 377//377
f 413//413 85//85 399//399
f 406//406 409//409 403//403
f 398//398 97//97 414//414
f 420//420 415//415 96//96
f 416//416 97//97 422//422
f 101//101 411//411 383//383
f 431//431 418//418 412//412
f 426//426 91//91 156//156
f 432//432 429//429 419//419
f 423//423 435//435 421//421
f 427//427 433//433 384//384
f 438//438 436//436 424//424
f 422//422 97//97 155//155
f 97//97 98//98 155//155
f 513//513 426//426 156//156
f 430//430 434//434 428//428
f 425//425 514//514 439//439
f 131//131 102//102 437//437
f 131//131 206//206 102//102
f 104//104 105//105 106//106
f 443//443 442//442 444//444
f 110//110 112//112 111//111
f 450//450 451//451 449//449
f 113//113 109//109 122//122
f 455//455 130//130 490//490
f 456//456 482//482 484//484
f 491//491 485//485 473//473
f 447//447 452//452 486//486
f 474//474 487//487 453//453
f 116//116 117//117 115//115
f 152//152 122//122 109//109
f 123//123 460//460 457//457
f 461//461 475//475 462//462
f 462//462 475//475 125//125
f 119//119 120//120 118//118
f 458//458 463//463 121//121
f 468//468 464//464 477//477
f 465//465 467//467 466//466
f 126//126 128//128 127//127
f 123//123 457//457 124//124
f 476//476 125//125 475//475
f 508//508 488//488 157//157
f 508//508 448//448 488//488
f 152//152 124//124 457//457
f 152//152 457//457 153//153
f 478//478 509//509 469//469
f 125//125 476//476 510//510
f 470//470 511//511 515//515
f 480//480 481//481 479//479
f 512//512 459//459 471//471
f 91//91 61//61 132//132
f 483//483 440//440 489//489
f 91//91 132//132 156//156
f 61//61 40//40 142//142
f 132//132 61//61 142//142
f 132//132 142//142 164//164
f 134//134 135//135 133//133
f 143//143 141//141 146//146
f 493//493 492//492 494//494
f 164//164 503//503 136//136
f 495//495 143//143 146//146
f 165//165 164//164 136//136
f 166//166 165//165 136//136
f 524//524 496//496 167//167
f 495//495 146//146 527//527
f 332//332 137//137 142//142
f 497//497 333//333 498//498
f 499//499 63//63 139//139
f 63//63 161//161 139//139
f 142//142 137//137 503//503
f 143//143 497//497 141//141
f 497//497 498//498 141//141
f 502//502 500//500 506//506
f 499//499 139//139 507//507
f 145//145 140//140 144//144
f 505//505 504//504 501//501
f 164//164 142//142 503//503
f 507//507 139//139 177//177
f 178//178 66//66 150//150
f 178//178 189//189 179//179
f 179//179 148//148 65//65
f 67//67 148//148 147//147
f 66//66 45//45 149//149
f 66//66 149//149 150//150
f 185//185 187//187 68//68
f 147//147 69//69 67//67
f 69//69 147//147 180//180
f 69//69 151//151 68//68
f 68//68 151//151 185//185
f 69//69 180//180 151//151
f 161//161 187//187 208//208
f 161//161 47//47 187//187
f 122//122 152//152 131//131
f 516//516 162//162 472//472
f 471//471 519//519 512//512
f 154//154 152//152 153//153
f 520//520 163//163 153//153
f 163//163 154//154 153//153
f 163//163 159//159 154//154
f 440//440 517//517 489//489
f 441//441 513//513 516//516
f 156//156 132//132 164//164
f 156//156 164//164 158//158
f 174//174 158//158 164//164
f 131//131 152//152 206//206
f 513//513 518//518 516//516
f 513//513 156//156 518//518
f 516//516 168//168 162//162
f 516//516 518//518 168//168
f 518//518 536//536 168//168
f 154//154 206//206 152//152
f 159//159 163//163 176//176
f 159//159 206//206 154//154
f 176//176 160//160 159//159
f 161//161 177//177 139//139
f 520//520 169//169 163//163
f 170//170 172//172 171//171
f 169//169 176//176 163//163
f 176//176 169//169 175//175
f 522//522 525//525 537//537
f 523//523 538//538 521//521
f 528//528 539//539 526//526
f 183//183 539//539 528//528
f 162//162 168//168 529//529
f 532//532 533//533 534//534
f 530//530 173//173 541//541
f 531//531 168//168 535//535
f 168//168 536//536 535//535
f 541//541 173//173 540//540
f 177//177 183//183 528//528
f 507//507 177//177 528//528
f 176//176 175//175 182//182
f 175//175 539//539 182//182
f 183//183 182//182 539//539
f 160//160 176//176 182//182
f 150//150 194//194 178//178
f 179//179 195//195 148//148
f 147//147 184//184 180//180
f 184//184 147//147 148//148
f 194//194 150//150 211//211
f 202//202 151//151 180//180
f 202//202 185//185 151//151
f 149//149 181//181 186//186
f 149//149 186//186 150//150
f 181//181 102//102 206//206
f 245//245 160//160 182//182
f 159//159 160//160 245//245
f 177//177 161//161 209//209
f 189//189 188//188 179//179
f 184//184 148//148 195//195
f 180//180 200//200 202//202
f 179//179 188//188 195//195
f 200//200 180//180 184//184
f 186//186 251//251 150//150
f 186//186 181//181 206//206
f 208//208 209//209 161//161
f 209//209 208//208 246//246
f 207//207 159//159 245//245
f 245//245 182//182 183//183
f 177//177 210//210 183//183
f 209//209 210//210 177//177
f 189//189 191//191 188//188
f 188//188 191//191 190//190
f 191//191 192//192 190//190
f 190//190 192//192 196//196
f 193//193 197//197 189//189
f 189//189 197//197 191//191
f 198//198 191//191 197//197
f 197//197 193//193 212//212
f 178//178 193//193 189//189
f 178//178 194//194 193//193
f 194//194 213//213 193//193
f 213//213 212//212 193//193
f 190//190 195//195 188//188
f 190//190 196//196 195//195
f 196//196 184//184 195//195
f 201//201 184//184 196//196
f 198//198 192//192 191//191
f 198//198 199//199 192//192
f 192//192 199//199 196//196
f 199//199 201//201 196//196
f 212//212 215//215 197//197
f 216//216 198//198 215//215
f 215//215 198//198 197//197
f 216//216 199//199 198//198
f 216//216 218//218 199//199
f 218//218 201//201 199//199
f 200//200 184//184 201//201
f 204//204 200//200 201//201
f 201//201 225//225 204//204
f 204//204 202//202 200//200
f 204//204 205//205 202//202
f 203//203 202//202 205//205
f 185//185 202//202 203//203
f 227//227 205//205 204//204
f 185//185 203//203 235//235
f 227//227 204//204 225//225
f 235//235 203//203 205//205
f 187//187 243//243 208//208
f 244//244 243//243 187//187
f 159//159 207//207 206//206
f 277//277 246//246 208//208
f 183//183 210//210 245//245
f 210//210 209//209 249//249
f 209//209 246//246 249//249
f 194//194 211//211 213//213
f 214//214 215//215 212//212
f 213//213 214//214 212//212
f 213//213 211//211 222//222
f 214//214 213//213 222//222
f 222//222 221//221 214//214
f 215//215 217//217 216//216
f 216//216 217//217 218//218
f 221//221 219//219 217//217
f 218//218 217//217 219//219
f 215//215 214//214 217//217
f 214//214 221//221 217//217
f 221//221 223//223 219//219
f 229//229 218//218 219//219
f 229//229 219//219 223//223
f 218//218 220//220 201//201
f 201//201 220//220 225//225
f 218//218 229//229 220//220
f 231//231 223//223 224//224
f 231//231 224//224 233//233
f 224//224 241//241 233//233
f 224//224 223//223 221//221
f 250//250 224//224 221//221
f 230//230 225//225 220//220
f 226//226 225//225 230//230
f 225//225 226//226 227//227
f 226//226 228//228 227//227
f 228//228 205//205 227//227
f 228//228 235//235 205//205
f 230//230 220//220 229//229
f 226//226 236//236 228//228
f 231//231 230//230 229//229
f 226//226 230//230 231//231
f 226//226 232//232 236//236
f 229//229 223//223 231//231
f 231//231 232//232 226//226
f 234//234 232//232 233//233
f 231//231 233//233 232//232
f 233//233 241//241 234//234
f 224//224 250//250 241//241
f 235//235 228//228 237//237
f 236//236 237//237 228//228
f 232//232 234//234 236//236
f 234//234 237//237 236//236
f 150//150 251//251 211//211
f 260//260 242//242 261//261
f 235//235 237//237 238//238
f 235//235 238//238 185//185
f 238//238 187//187 185//185
f 238//238 239//239 187//187
f 240//240 238//238 237//237
f 234//234 240//240 237//237
f 239//239 238//238 240//240
f 187//187 239//239 244//244
f 542//542 244//244 239//239
f 240//240 542//542 239//239
f 241//241 242//242 234//234
f 234//234 242//242 240//240
f 261//261 242//242 241//241
f 207//207 254//254 206//206
f 242//242 260//260 240//240
f 246//246 247//247 249//249
f 277//277 269//269 246//246
f 247//247 246//246 269//269
f 249//249 247//247 210//210
f 210//210 247//247 264//264
f 208//208 248//248 277//277
f 208//208 243//243 248//248
f 243//243 276//276 248//248
f 248//248 276//276 277//277
f 243//243 244//244 276//276
f 542//542 276//276 244//244
f 222//222 253//253 250//250
f 221//221 222//222 250//250
f 222//222 211//211 252//252
f 251//251 252//252 211//211
f 253//253 222//222 252//252
f 252//252 251//251 256//256
f 252//252 256//256 253//253
f 259//259 250//250 253//253
f 250//250 259//259 262//262
f 250//250 262//262 241//241
f 241//241 262//262 261//261
f 251//251 186//186 206//206
f 254//254 251//251 206//206
f 254//254 207//207 255//255
f 256//256 251//251 254//254
f 255//255 256//256 254//254
f 256//256 255//255 257//257
f 257//257 255//255 263//263
f 256//256 258//258 253//253
f 256//256 257//257 258//258
f 253//253 258//258 259//259
f 258//258 275//275 259//259
f 262//262 275//275 280//280
f 275//275 262//262 259//259
f 280//280 261//261 262//262
f 265//265 245//245 210//210
f 263//263 207//207 245//245
f 263//263 245//245 265//265
f 207//207 263//263 255//255
f 265//265 210//210 264//264
f 265//265 264//264 266//266
f 273//273 266//266 264//264
f 274//274 266//266 273//273
f 267//267 265//265 266//266
f 267//267 266//266 268//268
f 274//274 268//268 266//266
f 257//257 263//263 267//267
f 258//258 257//257 267//267
f 267//267 263//263 265//265
f 258//258 267//267 268//268
f 268//268 275//275 258//258
f 270//270 264//264 247//247
f 270//270 247//247 269//269
f 277//277 272//272 269//269
f 277//277 279//279 272//272
f 273//273 270//270 272//272
f 269//269 272//272 270//270
f 270//270 273//273 264//264
f 273//273 272//272 271//271
f 279//279 271//271 272//272
f 279//279 281//281 271//271
f 268//268 281//281 275//275
f 275//275 281//281 280//280
f 268//268 274//274 281//281
f 274//274 271//271 281//281
f 271//271 274//274 273//273
f 278//278 260//260 261//261
f 260//260 278//278 276//276
f 276//276 278//278 279//279
f 279//279 277//277 276//276
f 278//278 261//261 280//280
f 280//280 281//281 278//278
f 278//278 281//281 279//279
f 287//287 286//286 282//282
f 549//549 290//290 543//543
f 552//552 544//544 289//289
f 545//545 561//561 558//558
f 285//285 283//283 284//284
f 546//546 548//548 547//547
f 550//550 553//553 288//288
f 551//551 555//555 562//562
f 556//556 554//554 559//559
f 557//557 560//560 563//563
