# Wavafront OBJ file of BodyParts3D
# BodyParts3D, Copyright(C) 2010-2011 The Database Center for Life Science licensed under CC Attribution-Share Alike 2.1 Japan.
vn -0.818229 -0.387055 -0.425077
v 18.5745 -198.491 1211.01
vn -0.869943 -0.155938 -0.46785
v 18.5777 -197.902 1210.65
vn -0.554798 -0.722398 -0.412724
v 18.78 -199.027 1211.36
vn -0.971221 -0.0893331 -0.220792
v 17.9785 -198.475 1212.81
vn -0.980744 -0.1731 -0.0904244
v 17.8315 -198.707 1214.03
vn -0.837546 -0.50394 -0.211097
v 18.1146 -199.056 1212.86
vn -0.855172 -0.518344 -3.81362e-005
v 17.8941 -198.971 1214.36
vn -0.620669 -0.783494 -0.030104
v 18.3526 -199.499 1214.11
vn -0.535874 -0.820788 -0.197852
v 18.6116 -199.545 1212.92
vn -0.417987 -0.906747 0.0556407
v 18.6626 -199.668 1214.43
vn -0.365835 -0.929071 -0.0547029
v 18.9968 -199.806 1213.54
vn -0.969901 -0.241907 0.0278043
v 17.7867 -198.605 1215.23
vn -0.996218 -0.0775742 0.039128
v 17.7237 -197.891 1216.36
vn -0.912023 -0.385134 0.141017
v 17.8657 -198.443 1216.72
vn -0.777775 -0.612197 0.142415
v 18.1161 -199.081 1215.88
vn -0.597984 -0.794119 0.108581
v 18.3382 -199.389 1215.3
vn -0.485734 -0.845778 0.220729
v 18.517 -199.201 1216.8
vn -0.327196 -0.931218 0.160546
v 18.9869 -199.663 1215.64
vn -0.976223 -0.173996 0.129279
v 17.8299 -197.722 1217.86
vn -0.991925 -0.0546938 0.114427
v 17.8325 -197.048 1218.4
vn -0.911794 -0.350422 0.214093
v 18.0357 -197.892 1218.78
vn -0.682126 -0.677083 0.276158
v 18.3898 -198.418 1218.83
vn -0.932775 -0.273646 0.234623
v 18.1238 -197.111 1220.21
vn -0.789492 -0.51913 0.327424
v 18.4007 -197.656 1220.27
vn -0.963177 -0.140571 0.229196
v 18.288 -195.973 1221.92
vn -0.821773 -0.425332 0.379185
v 18.4741 -196.542 1221.97
vn -0.574377 0.147605 -0.805174
v 19.7798 -195.834 1209.48
vn -0.685129 -0.179081 -0.706065
v 18.988 -197.543 1210.04
vn -0.66299 0.00721432 -0.748594
v 19.1301 -196.901 1209.85
vn -0.930233 0.136944 -0.340459
v 18.1337 -193.835 1212.08
vn -0.657609 0.489858 -0.572355
v 18.5334 -193.291 1211.73
vn -0.478558 0.548659 -0.685533
v 19.7474 -193.561 1210.56
vn -0.948638 0.00923805 -0.31623
v 18.3873 -195.735 1211.05
vn -0.844072 0.023016 -0.535735
v 18.6094 -196.043 1210.48
vn -0.841239 0.178285 -0.510423
v 18.4713 -194.787 1210.96
vn -0.702355 0.143905 -0.697129
v 18.8749 -195.895 1210.17
vn -0.629043 0.337231 -0.700414
v 18.8096 -194.413 1210.71
vn -0.619786 -0.481923 -0.619367
v 19.0258 -198.432 1210.4
vn -0.312564 -0.930202 -0.192425
v 19.6143 -199.857 1212.35
vn -0.976946 0.0682624 -0.202278
v 17.9774 -193.819 1212.68
vn -0.838698 0.394817 -0.375107
v 18.0404 -192.506 1213.23
vn -0.57765 0.695442 -0.427412
v 18.2517 -192.113 1213.43
vn -0.456025 0.716424 -0.527994
v 18.5979 -192.283 1212.84
vn -0.325451 0.842669 -0.428941
v 18.8011 -191.842 1213.41
vn -0.207046 -0.974386 0.0877739
v 19.3431 -199.902 1214.46
vn -0.179997 -0.98358 -0.0130929
v 19.6667 -200 1213.57
vn -0.0202863 -0.991479 0.128675
v 20.0247 -199.965 1214.47
vn -0.706539 0.684066 -0.181262
v 17.9814 -190.953 1216.63
vn -0.492341 0.803715 -0.33413
v 18.0777 -191.352 1215.16
vn -0.271182 0.924196 -0.268928
v 18.5531 -190.735 1216.32
vn -0.990913 0.082867 -0.105947
v 17.7447 -192.109 1214.93
vn -0.993332 0.114531 -0.0131889
v 17.7261 -191.664 1216.39
vn -0.867566 0.44804 -0.215845
v 17.8607 -191.725 1214.89
vn -0.937242 0.342399 -0.0658789
v 17.7815 -191.33 1216.66
vn -0.137968 0.928111 -0.345796
v 19.2777 -191.229 1214.56
vn -0.0971617 -0.972109 0.213458
v 19.5917 -199.552 1216.72
vn -0.819588 0.572386 -0.0254703
v 17.972 -190.824 1217.52
vn -0.490953 0.857999 -0.151005
v 18.233 -190.65 1217.21
vn -0.554666 0.831182 -0.0384919
v 18.2208 -190.559 1218.1
vn -0.247003 0.960862 -0.125438
v 18.7828 -190.35 1217.79
vn -0.982898 0.177845 0.0477838
v 17.8061 -191.221 1217.56
vn -0.291056 -0.916016 0.276047
v 19.1605 -198.988 1218.59
vn -0.398686 -0.848487 0.348021
v 19.0851 -198.652 1219.46
vn -0.119012 -0.936068 0.331079
v 19.7433 -198.8 1219.48
vn 0.0800361 -0.958757 0.272726
v 20.1115 -199.07 1218.61
vn -0.763578 0.641028 0.0776635
v 18.2489 -190.583 1219.79
vn -0.531093 0.843662 0.0785809
v 18.7827 -190.216 1220.49
vn -0.984913 0.0992632 0.14175
v 18.0925 -191.452 1220.9
vn -0.929339 0.356504 0.0960928
v 18.0614 -190.928 1219.94
vn -0.863826 0.474727 0.168637
v 18.191 -190.838 1220.54
vn -0.93845 0.246699 0.241766
v 18.2176 -191.363 1221.49
vn -0.791146 0.567291 0.228626
v 18.594 -190.627 1221.66
vn -0.986717 -0.0134816 0.161891
v 18.1927 -194.146 1221.75
vn -0.585544 -0.692513 0.421384
v 19.0889 -197.674 1221.48
vn -0.26178 -0.869687 0.418468
v 19.5763 -198.066 1221.22
vn 0.0315254 -0.930858 0.364019
v 20.2715 -198.387 1220.66
vn -0.0896463 -0.881626 0.463356
v 20.1241 -197.743 1222.1
vn 0.174438 -0.885539 0.430571
v 21.0655 -197.804 1221.82
vn -0.970235 0.0475549 0.237451
v 18.402 -192.745 1222.83
vn -0.844996 0.409916 0.34344
v 18.6675 -191.134 1222.68
vn -0.922481 0.167815 0.347659
v 18.732 -192.261 1223.75
vn -0.622093 0.732729 0.275878
v 19.1642 -190.386 1222.64
vn -0.958708 -0.0546496 0.279092
v 18.4633 -194.888 1223.03
vn -0.892807 -0.121393 0.433773
v 18.8996 -194.662 1224.21
vn -0.936086 0.0266084 0.350763
v 18.6759 -192.897 1223.75
vn -0.899688 -0.23234 0.369566
v 18.5632 -195.48 1223.08
vn -0.350399 -0.767196 0.537244
v 19.6467 -197.08 1222.94
vn -0.617273 -0.584162 0.527
v 19.3033 -196.158 1223.75
vn -0.743729 -0.40671 0.530522
v 19.0686 -195.573 1224
vn -0.133855 -0.770877 0.622762
v 20.3962 -196.464 1224.1
vn -0.400473 -0.643492 0.652334
v 19.9909 -195.901 1224.58
vn 0.0201991 -0.842336 0.538575
v 20.5969 -197.117 1223.23
vn -0.819948 0.30348 0.485371
v 19.3008 -192.008 1224.85
vn -0.795564 -0.194322 0.573861
v 19.3202 -194.481 1224.97
vn -0.873091 0.0477883 0.48521
v 19.1613 -192.671 1224.81
vn -0.760943 -0.0442169 0.64731
v 19.7184 -193.692 1225.64
vn -0.615567 -0.249585 0.747519
v 19.8818 -194.267 1225.7
vn -0.775797 0.127859 0.617893
v 19.7332 -192.445 1225.62
vn -0.333016 -0.434542 0.836824
v 20.2573 -194.468 1225.83
vn -0.561456 -0.465048 0.684469
v 19.7583 -194.967 1225.22
vn -0.0588565 -0.699915 0.711797
v 20.5732 -195.738 1224.93
vn -0.199911 -0.584201 0.786604
v 20.4114 -195.083 1225.49
vn -0.589339 -0.145118 -0.794746
v 22.8032 -198.053 1207.37
vn -0.577268 -0.426961 -0.696036
v 23.8958 -199.059 1206.9
vn -0.4988 0.401722 -0.767996
v 20.3493 -194.433 1209.58
vn -0.375438 0.620844 -0.688186
v 21.0689 -193.612 1209.71
vn -0.371601 0.714553 -0.592729
v 19.9666 -192.872 1211.11
vn -0.223577 0.807523 -0.545821
v 21.8059 -192.84 1210.22
vn 0.00242595 0.93961 -0.342238
v 22.0059 -192.37 1211.08
vn -0.0725331 -0.995901 0.054045
v 22.5038 -200.306 1211.22
vn 0.0877689 -0.972574 0.215398
v 23.3903 -200.079 1212.41
vn -0.228152 0.855084 -0.465594
v 19.7631 -192.011 1212.53
vn 0.0498292 0.977816 -0.203452
v 19.4045 -190.373 1217.5
vn 0.231972 0.959648 -0.158951
v 21.6916 -190.843 1217.26
vn -0.0875982 0.995118 -0.0454714
v 19.3555 -190.034 1220.48
vn 0.118043 0.992863 -0.0170147
v 19.9826 -190.033 1221.09
vn 0.178093 0.978731 -0.101822
v 20.3151 -190.195 1219.6
vn 0.210285 -0.910597 0.355801
v 21.4407 -198.101 1220.94
vn -0.27001 0.956477 0.110663
v 19.3918 -190.1 1221.99
vn 0.0149411 0.996192 0.0858957
v 20.0023 -190.049 1222.29
vn -0.290574 0.920357 0.261745
v 19.7409 -190.2 1223.03
vn -0.204181 0.908558 0.364463
v 20.0984 -190.348 1223.77
vn 0.0938346 0.978425 0.184064
v 20.3602 -190.19 1223.22
vn 0.272702 0.961216 0.0411944
v 20.6558 -190.18 1222.31
vn 0.338435 0.916439 0.213544
v 21.0622 -190.478 1223.85
vn 0.153636 -0.729118 0.66692
v 21.3053 -196.202 1224.38
vn 0.283399 -0.787501 0.54729
v 22.3087 -196.532 1223.52
vn -0.617246 0.656487 0.433627
v 19.6042 -190.815 1224.17
vn -0.601739 0.540861 0.58769
v 19.8024 -191.531 1225.23
vn -0.645149 0.332094 0.688111
v 19.9473 -192.068 1225.73
vn -0.461112 0.516197 0.721745
v 20.1633 -191.708 1225.66
vn -0.280612 0.802623 0.526359
v 20.2376 -190.837 1224.79
vn -0.270756 0.689672 0.671598
v 20.3804 -191.357 1225.49
vn -0.223473 0.565817 0.79367
v 20.4555 -191.635 1225.76
vn 0.0990657 0.926999 0.361744
v 20.7568 -190.48 1224.15
vn 0.0593304 0.826417 0.559924
v 20.8905 -190.952 1225.08
vn 0.160621 0.655629 0.737802
v 21.0344 -191.481 1225.68
vn 0.357753 0.838266 0.411488
v 21.2581 -190.884 1224.8
vn 0.325169 0.750156 0.575787
v 21.2545 -191.155 1225.23
vn 0.497289 0.625223 0.601498
v 21.9862 -191.591 1225.2
vn -0.61773 0.128578 0.775807
v 20.0944 -192.625 1226.03
vn -0.518221 -0.0618453 0.853008
v 20.2432 -193.194 1226.18
vn -0.317448 -0.264195 0.910729
v 20.3939 -193.78 1226.15
vn -0.382391 0.358317 0.851696
v 20.3094 -192.255 1226.06
vn 0.018612 -0.421719 0.906536
v 20.833 -194.289 1226.01
vn -0.263889 0.138539 0.954552
v 20.4576 -192.82 1226.26
vn -0.0717789 -0.142202 0.987232
v 20.6077 -193.401 1226.28
vn 0.247696 -0.289529 0.924565
v 21.341 -193.851 1226.09
vn 0.00193109 0.415114 0.909768
v 20.8896 -192.099 1226.12
vn 0.162977 0.137 0.977072
v 21.0382 -192.668 1226.28
vn 0.267922 -0.0679594 0.961041
v 21.1888 -193.253 1226.26
vn 0.427222 -0.301966 0.852232
v 22.0007 -194.023 1225.76
vn 0.415427 0.392679 0.820502
v 21.5471 -192.252 1225.99
vn 0.500054 0.0998158 0.860223
v 21.9776 -192.773 1225.88
vn 0.445372 -0.110101 0.88855
v 21.8709 -193.51 1225.95
vn 0.0954607 -0.603549 0.79159
v 20.9909 -194.921 1225.62
vn 0.276213 -0.510992 0.813999
v 21.5721 -194.773 1225.59
vn 0.362739 -0.59962 0.713356
v 22.0196 -195.338 1224.98
vn 0.481961 -0.357438 0.79997
v 22.7362 -194.504 1225.15
vn -0.500261 -0.69218 -0.520217
v 24.3676 -199.835 1207.28
vn -0.393506 -0.858709 -0.328287
v 24.4131 -200.355 1208.23
vn -0.0674602 -0.98874 0.133578
v 24.4037 -200.522 1210.05
vn -0.226999 -0.970076 -0.0861612
v 25.4272 -200.711 1208.27
vn 0.0497121 -0.95541 0.291069
v 25.0015 -200.408 1210.65
vn 0.180592 0.971752 -0.151935
v 23.7625 -191.78 1214.96
vn 0.295638 0.953553 -0.0577433
v 22.9135 -190.94 1219.7
vn 0.556281 -0.108859 0.823833
v 25.0778 -194.043 1223.72
vn 0.543457 -0.132231 0.828957
v 22.8772 -193.841 1225.29
vn 0.575409 0.335259 0.745994
v 22.8678 -192.607 1225.2
vn -0.553525 -0.554396 -0.621494
v 28.2412 -200.096 1203.8
vn -0.330539 -0.92582 -0.183309
v 28.8913 -201.341 1205.3
vn -0.221328 -0.975199 0.000829598
v 28.6111 -201.393 1206.56
vn -0.0707238 -0.9733 0.21837
v 27.6022 -200.982 1208.62
vn 0.0114786 -0.934597 0.355524
v 27.8014 -200.48 1210.09
vn 0.246665 0.967764 -0.0508879
v 24.7064 -191.701 1217.68
vn 0.183149 -0.91455 0.36063
v 27.476 -197.624 1217.95
vn 0.443745 0.811176 0.3809
v 26.6076 -192.594 1221.7
vn 0.316012 0.943199 0.102533
v 27.0788 -192.366 1220.18
vn 0.294307 -0.800571 0.521986
v 27.4972 -196.375 1220.55
vn 0.555631 0.498477 0.665428
v 26.6425 -193.145 1222.35
vn 0.580581 0.130314 0.803706
v 26.2484 -193.816 1222.92
vn -0.400219 0.511662 -0.760281
v 30.0388 -196.3 1202.82
vn -0.571139 -0.0351747 -0.8201
v 29.4827 -198.969 1202.44
vn -0.511959 0.248285 -0.822345
v 29.6633 -197.26 1202.58
vn -0.573214 -0.357681 -0.737218
v 29.4151 -199.897 1202.69
vn -0.521436 -0.485083 -0.701996
v 31.7085 -200.67 1201.41
vn -0.407504 -0.829028 -0.382954
v 31.7585 -201.775 1202.72
vn -0.250198 0.743097 -0.620651
v 29.5079 -195.388 1203.91
vn -0.503179 -0.672186 -0.543118
v 29.3482 -200.771 1203.5
vn -0.530462 -0.15235 -0.833906
v 32.4931 -199.924 1200.57
vn -0.507597 -0.361621 -0.782033
v 33.5954 -200.619 1200.08
vn -0.511755 0.0907181 -0.854328
v 31.606 -198.862 1201.06
vn -0.437204 0.338803 -0.833106
v 32.1766 -197.469 1201.06
vn -0.46298 -0.680034 -0.56851
v 32.4983 -201.392 1201.48
vn -0.313002 -0.936819 -0.156205
v 32.2112 -202.282 1203.67
vn -0.1954 -0.978533 0.0655173
v 32.8849 -202.475 1204
vn 0.0774135 -0.903325 0.421914
v 31.8315 -197.78 1216.21
vn 0.225978 0.97044 0.0847385
v 29.9842 -192.766 1217.23
vn 0.303716 0.923142 0.235724
v 32.3414 -193.393 1217.31
vn 0.394632 -0.598639 0.697063
v 30.7392 -195.787 1219.41
vn 0.472314 -0.401499 0.784677
v 31.245 -195.346 1219.4
vn 0.203945 -0.797301 0.568082
v 32.2323 -196.86 1217.63
vn 0.353932 -0.586013 0.728917
v 32.0482 -196.104 1218.47
vn 0.443526 -0.375807 0.813667
v 32.8593 -195.652 1218.33
vn -0.466923 0.117601 -0.876444
v 36.0001 -199.204 1198.58
vn -0.482104 -0.366024 -0.795991
v 36.527 -201.251 1198.53
vn -0.493327 -0.133823 -0.859488
v 35.3506 -200.273 1198.93
vn -0.45857 -0.57154 -0.680481
v 36.632 -201.816 1198.86
vn -0.320714 -0.895694 -0.308018
v 37.2324 -203.342 1200.81
vn 0.459623 0.676296 0.575648
v 32.7683 -193.843 1217.96
vn 0.541178 0.0626431 0.838571
v 33.6057 -194.861 1218.07
vn -0.45765 0.00563753 -0.889114
v 37.7639 -200.086 1197.6
vn -0.391655 0.368644 -0.843035
v 37.3063 -198.282 1198.18
vn -0.464523 -0.202519 -0.862093
v 38.9416 -201.075 1197.08
vn -0.44672 -0.428148 -0.785576
v 39.3239 -201.601 1197.06
vn -0.137047 0.861799 -0.488385
v 36.155 -196.107 1200.43
vn -0.301939 0.621786 -0.722644
v 36.661 -196.924 1199.31
vn -0.400041 -0.75362 -0.52156
v 37.2769 -202.547 1199.23
vn -0.199425 -0.979568 -0.0259853
v 37.4561 -203.509 1201.43
vn -0.0589894 -0.972393 0.225769
v 39.3692 -203.687 1202.07
vn 0.0576926 0.983194 -0.173211
v 35.652 -195.197 1203.66
vn -0.412287 0.211846 -0.886082
v 40.664 -199.384 1196.27
vn -0.348135 -0.795324 -0.496248
v 39.8266 -203.24 1198.42
vn -0.391717 -0.648371 -0.652819
v 40.1894 -202.313 1197.03
vn -0.267606 -0.891808 -0.364782
v 40.5728 -203.713 1198.77
vn -0.291972 -0.797744 -0.527595
v 41.7218 -203.424 1197.53
vn -0.17374 -0.973462 -0.148947
v 40.6555 -203.988 1199.7
vn -0.0763023 -0.994681 0.069191
v 40.9874 -204.043 1200.31
vn 0.0640635 -0.96846 0.240792
v 42.221 -204.005 1200.62
vn 0.0377265 -0.931681 0.361314
v 40.7971 -203.144 1203.54
vn 0.189608 0.978547 0.0805884
v 39.3446 -194.619 1213.29
vn 0.348891 -0.494219 0.796256
v 39.5451 -197.777 1213.77
vn -0.422554 -0.324424 -0.846284
v 41.8711 -201.689 1195.74
vn -0.429855 -0.0641723 -0.900615
v 43.8415 -200.976 1194.59
vn -0.373155 -0.576475 -0.726933
v 42.0188 -202.25 1195.98
vn -0.1533 -0.946573 -0.283721
v 42.4861 -203.952 1198.21
vn -0.022613 -0.999743 0.00160505
v 42.5526 -204.149 1199.44
vn 0.109501 -0.977056 0.182677
v 44.6787 -203.968 1199.74
vn 0.209955 -0.720389 0.661029
v 41.4153 -199.115 1211.92
vn 0.250919 -0.606534 0.754424
v 42.5678 -198.779 1211.9
vn 0.333856 -0.38891 0.858656
v 42.3223 -197.792 1212.59
vn 0.360268 0.784675 0.504472
v 41.3487 -195.188 1213.18
vn 0.423235 -0.223235 0.878088
v 41.6467 -196.331 1213.43
vn 0.458601 0.283449 0.842224
v 41.4952 -195.738 1213.53
vn -0.367589 -0.44209 -0.81819
v 46.2595 -201.984 1193.77
vn -0.291847 -0.724882 -0.623996
v 44.9436 -202.825 1195.06
vn -0.207452 -0.855332 -0.474732
v 45.4381 -203.505 1195.79
vn -0.0889846 -0.954486 -0.284672
v 46.4891 -203.943 1196.45
vn -0.227377 0.764798 -0.602813
v 43.55 -197.351 1196.41
vn 0.00838469 -0.998403 -0.0558592
v 46.2309 -204.098 1197.36
vn 0.0836994 -0.879793 0.46793
v 45.5555 -200.938 1208.21
vn 0.0453399 0.998533 -0.0295906
v 44.0518 -195.057 1209.16
vn -0.385182 0.143442 -0.911625
v 47.3437 -200.217 1193.04
vn -0.296565 -0.572512 -0.764382
v 47.2556 -202.365 1193.6
vn -0.376126 -0.245455 -0.893466
v 47.3535 -201.454 1193.09
vn -0.340823 -0.0245761 -0.939806
v 48.7375 -200.846 1192.45
vn -0.206547 -0.764388 -0.610777
v 48.6698 -202.927 1193.65
vn -0.137892 -0.884074 -0.446541
v 48.193 -203.433 1194.61
vn -0.0851171 0.963669 -0.253174
v 45.7918 -196.375 1197.55
vn 0.102427 -0.927981 0.358273
v 46.8803 -201.327 1207.06
vn 0.133229 -0.881605 0.452794
v 47.3698 -200.764 1208.22
vn 0.140656 0.970952 0.193567
v 45.3373 -195.19 1210.09
vn 0.374616 -0.127532 0.918367
v 48.0132 -197.133 1210.57
vn 0.162975 -0.778359 0.606298
v 46.619 -200.198 1209.36
vn 0.260677 -0.577536 0.773627
v 48.6282 -199.58 1209.34
vn 0.260743 0.86682 0.425014
v 45.9144 -195.483 1210.73
vn 0.415649 0.168932 0.893699
v 45.9599 -196.334 1211.47
vn 0.370067 0.553771 0.745914
v 46.1777 -195.989 1211.23
vn 0.366137 0.162401 0.91628
v 47.8617 -196.54 1210.67
vn -0.317706 0.493091 -0.809892
v 49.1533 -198.833 1192.84
vn -0.319346 0.244238 -0.915623
v 50.9177 -199.719 1191.81
vn -0.295397 -0.363862 -0.883371
v 49.8374 -201.52 1192.17
vn -0.0911781 -0.852596 -0.514556
v 50.5659 -203.084 1193.38
vn -0.268807 0.682927 -0.67923
v 48.6063 -197.865 1193.8
vn -0.206232 0.840631 -0.500807
v 48.6894 -196.93 1194.92
vn -0.0362039 -0.942333 -0.332714
v 49.7894 -203.615 1194.65
vn 0.022201 -0.988785 -0.147686
v 49.8615 -203.848 1195.57
vn 0.108608 -0.988666 0.103651
v 49.8749 -203.87 1196.18
vn -0.0166412 0.999111 -0.0387426
v 49.6384 -195.24 1206.22
vn 0.215027 -0.787933 0.576997
v 50.9396 -200.205 1207.9
vn 0.184046 0.871705 0.454156
v 48.5198 -195.543 1209.54
vn 0.285069 0.588473 0.756594
v 48.6631 -196.067 1210.19
vn 0.0497461 0.981564 0.184547
v 49.3874 -195.348 1208.64
vn 0.317671 -0.290831 0.902498
v 50.0493 -198.261 1209.52
vn -0.266584 -0.213215 -0.939932
v 51.5873 -201.13 1191.52
vn -0.274747 0.121035 -0.953868
v 53.4764 -200.074 1190.93
vn -0.242553 0.641639 -0.727645
v 52.2607 -197.677 1192.62
vn -0.201096 0.794989 -0.572323
v 52.4382 -197.136 1193.17
vn -0.181312 -0.610171 -0.771244
v 52.3961 -202.135 1191.83
vn -0.151516 0.906109 -0.394981
v 52.5544 -196.314 1194.61
vn -0.0912844 0.9953 0.0323258
v 52.3941 -195.054 1207.4
vn 0.276531 -0.642107 0.715003
v 51.7387 -199.686 1208.16
vn 0.158442 -0.911285 0.380073
v 52.0249 -200.895 1206.17
vn 0.0633356 0.846161 0.52915
v 51.273 -195.45 1208.67
vn 0.268665 0.371025 0.888909
v 50.8542 -196.189 1209.49
vn 0.316737 -0.0524033 0.947065
v 51.9548 -196.869 1209.15
vn 0.304959 -0.446567 0.841177
v 52.1983 -199.05 1208.46
vn -0.262697 0.425623 -0.86593
v 53.5384 -199.099 1191.19
vn -0.199988 -0.335469 -0.920579
v 54.0678 -201.167 1190.91
vn -0.224274 -0.0293202 -0.974085
v 54.7922 -200.388 1190.59
vn -0.211191 0.27213 -0.938799
v 55.1328 -199.3 1190.69
vn -0.16825 0.737661 -0.653871
v 55.2716 -197.368 1192.02
vn 0.157962 0.510673 0.84514
v 54.936 -195.267 1208.06
vn 0.286791 -0.534197 0.795227
v 55.5051 -198.933 1207.23
vn 0.227302 -0.721328 0.654232
v 55.8199 -199.994 1206.13
vn 0.253149 0.15729 0.954555
v 54.5017 -195.969 1208.4
vn 0.299815 -0.298098 0.906228
v 54.0074 -197.662 1208.31
vn -0.193548 0.572314 -0.796866
v 55.7875 -198.213 1191.11
vn -0.147654 0.84412 -0.515422
v 55.6827 -196.502 1193.15
vn 0.236899 -0.58699 0.774158
v 57.4586 -199.125 1206.44
vn -0.067707 -0.771289 -0.632874
v 61.4911 -201.812 1190.09
vn -0.166501 0.954579 -0.247095
v 59.4265 -195.314 1194.89
vn 0.20768 -0.531816 0.821
v 60.1535 -198.787 1205.92
vn -0.0639322 0.83135 0.552059
v 58.942 -194.058 1206.52
vn 0.233425 -0.0199836 0.972169
v 58.1485 -195.744 1207.39
vn 0.116713 0.457553 0.881489
v 59.0891 -194.605 1206.98
vn 0.250111 -0.417688 0.873488
v 58.4674 -198.218 1206.68
vn 0.232395 -0.244727 0.94133
v 59.3253 -196.725 1206.96
vn -0.175635 -0.0925433 -0.980096
v 62.813 -200.335 1188.93
vn -0.120502 -0.505783 -0.854203
v 63.253 -200.837 1189
vn 0.00391735 -0.748019 -0.663666
v 63.69 -201.312 1189.36
vn -0.169742 0.65313 -0.737976
v 61.1909 -197.565 1190.6
vn 0.0262348 -0.907962 -0.418231
v 62.0786 -202.204 1190.73
vn -0.157861 0.778869 -0.606995
v 61.3042 -196.761 1191.43
vn -0.157096 0.874326 -0.45921
v 61.0855 -195.842 1192.85
vn 0.0657916 -0.979868 -0.188493
v 62.2025 -202.623 1191.98
vn 0.131134 -0.991163 -0.0199781
v 63.4459 -202.593 1192.89
vn 0.208529 -0.84364 0.494759
v 63.5827 -200.205 1203.22
vn 0.184529 -0.941989 0.280365
v 62.8548 -201.074 1201.48
vn -0.235053 0.970647 0.0509431
v 59.7175 -193.537 1204.97
vn -0.163737 0.859675 0.48389
v 61.2361 -193.374 1205.88
vn -0.0340092 0.59789 0.800856
v 61.3443 -193.769 1206.36
vn 0.0748357 0.283265 0.956118
v 61.4917 -194.328 1206.63
vn 0.122134 0.0293376 0.99208
v 61.6415 -194.906 1206.69
vn 0.188702 -0.348852 0.917983
v 60.7946 -197.648 1206.34
vn 0.160847 -0.173783 0.971559
v 61.9435 -196.083 1206.57
vn -0.164718 0.398334 -0.902329
v 64.3304 -199.012 1188.9
vn -0.177608 0.169876 -0.969328
v 63.9014 -199.758 1188.76
vn -0.0515108 -0.413993 -0.908821
v 64.4174 -200.558 1188.76
vn -0.101 0.0024105 -0.994884
v 64.8497 -199.839 1188.6
vn 0.0783813 -0.719702 -0.689844
v 65.4365 -200.894 1189
vn 0.0356316 -0.427041 -0.90353
v 65.9453 -200.478 1188.72
vn 0.1521 -0.96108 -0.23063
v 64.5963 -202.309 1191.67
vn 0.119582 -0.881573 -0.456649
v 65.3366 -201.653 1190.12
vn 0.213695 -0.974559 -0.0675908
v 65.2152 -202.276 1192.28
vn 0.189553 -0.975911 0.108018
v 65.8117 -202.096 1194.08
vn 0.262713 -0.885716 0.38274
v 64.5133 -200.239 1202.63
vn 0.220402 -0.685804 0.693611
v 64.1782 -198.826 1204.91
vn 0.200874 -0.528964 0.824528
v 65.4625 -197.775 1205.38
vn 0.126708 -0.280023 0.951595
v 64.7879 -196.322 1206.13
vn 0.155894 -0.661468 -0.733592
v 67.1806 -200.454 1188.87
vn -0.127204 0.234267 -0.963814
v 67.0991 -198.954 1188.5
vn -0.0201934 -0.127645 -0.991614
v 67.2501 -199.543 1188.45
vn -0.205679 0.646762 -0.734435
v 66.3355 -197.134 1189.71
vn 0.202328 -0.829207 -0.521036
v 67.3028 -200.899 1189.46
vn 0.225158 -0.915487 -0.333447
v 66.8466 -201.486 1190.42
vn 0.265928 -0.946828 -0.181105
v 67.7832 -201.468 1191.33
vn -0.235813 0.881622 -0.408822
v 66.1241 -194.972 1192.52
vn 0.267358 -0.963229 -0.0266323
v 68.1334 -201.549 1192.85
vn 0.24697 -0.95784 0.146793
v 67.5551 -201.619 1194.66
vn -0.272822 0.922585 -0.272774
v 65.5158 -193.605 1196.72
vn -0.277834 0.921006 0.273051
v 64.6197 -192.124 1204.92
vn 0.272061 -0.76495 0.583811
v 67.2326 -198.71 1203.82
vn -0.142241 0.64673 0.749338
v 64.5423 -192.969 1206.07
vn -0.0132187 0.242967 0.969945
v 66.4337 -193.087 1206.22
vn 0.0587636 -0.0870418 0.99447
v 65.3562 -194.91 1206.34
vn -0.194638 0.512535 -0.836315
v 68.0175 -197.691 1188.88
vn 0.083086 -0.399502 -0.912959
v 68.4867 -199.531 1188.48
vn 0.2409 -0.771469 -0.588899
v 69.8291 -199.9 1189.1
vn -0.208406 0.765617 -0.608603
v 67.8266 -195.653 1190.79
vn 0.29957 -0.952114 0.0611335
v 69.5868 -201.119 1194.03
vn -0.364884 0.872633 -0.324608
v 67.4592 -192.694 1197.45
vn 0.288385 -0.924053 0.25092
v 70.8786 -199.93 1197.85
vn -0.362061 0.920975 -0.143937
v 67.445 -191.189 1202.43
vn 0.299696 -0.843627 0.445506
v 69.9517 -198.505 1202.53
vn 0.30934 -0.875075 0.372228
v 70.6358 -198.813 1201.36
vn -0.217685 0.677457 0.702613
v 68.7538 -191.301 1205.59
vn 0.185489 -0.590609 -0.78535
v 71.3912 -198.779 1188.47
vn -0.27958 0.652051 -0.704744
v 70.9689 -195.896 1189.34
vn 0.30003 -0.892822 -0.335933
v 71.7263 -199.987 1190.33
vn 0.311773 -0.944375 -0.104663
v 71.265 -200.509 1192.18
vn -0.124071 0.380353 0.916481
v 69.1899 -191.769 1206.02
vn -0.0489329 0.0971584 0.994065
v 70.6488 -192.605 1206.35
vn -0.159555 0.365651 -0.916974
v 73.2658 -196.447 1188.27
vn -0.040431 0.0419225 -0.998302
v 73.1271 -197.117 1188.14
vn 0.0961381 -0.271184 -0.957714
v 73.2766 -197.692 1188.22
vn 0.248175 -0.556193 -0.793133
v 73.9306 -197.816 1188.42
vn 0.368591 -0.721352 -0.586337
v 75.1716 -197.795 1188.96
vn 0.29835 -0.774484 -0.557819
v 73.2988 -198.924 1189.35
vn 0.391471 -0.840518 -0.374541
v 75.0927 -198.628 1190.24
vn -0.416769 0.765265 -0.490584
v 71.7226 -192.614 1193.27
vn 0.374208 -0.907633 -0.190188
v 74.9462 -199.184 1191.8
vn 0.377821 -0.924045 -0.0582383
v 75.5624 -199.095 1193.31
vn 0.350368 -0.931793 0.0948921
v 75.2928 -199.191 1194.52
vn -0.51474 0.806808 -0.290006
v 72.7076 -190.256 1196.68
vn -0.379105 0.923149 -0.0638313
v 71.9324 -189.372 1202.31
vn -0.215845 0.866941 0.449248
v 73.1618 -189.213 1204.72
vn -0.123288 0.772608 0.622798
v 73.2536 -189.538 1205.35
vn -0.0825703 0.240254 0.967192
v 73.3276 -190.977 1206.36
vn -0.0907933 0.524115 0.846794
v 73.4701 -190.339 1206.13
vn 0.151178 -0.339481 0.928384
v 74.2225 -193.26 1206.1
vn 0.0248194 0.0475124 -0.998562
v 75.0847 -196.296 1188.17
vn -0.075791 0.281649 -0.956519
v 76.8137 -194.574 1188.47
vn 0.333775 -0.54093 -0.772003
v 75.597 -197.064 1188.51
vn 0.2164 -0.27547 -0.936636
v 75.7398 -196.428 1188.26
vn -0.4237 0.603806 -0.675201
v 74.7937 -192.642 1190.59
vn 0.431021 -0.671343 -0.602926
v 76.8421 -197.052 1189.21
vn 0.460283 -0.783469 -0.417511
v 77.3744 -197.381 1190.15
vn 0.468668 -0.858698 -0.207335
v 77.6896 -197.811 1191.7
vn 0.459296 -0.887673 -0.0329351
v 77.2289 -198.331 1193.66
vn 0.366172 -0.90576 0.213346
v 76.6577 -198.389 1196.27
vn 0.424436 -0.898927 0.108556
v 76.965 -198.424 1195.37
vn -0.553916 0.795889 -0.244413
v 75.0598 -188.57 1196.55
vn -0.451548 0.885572 -0.108928
v 75.0093 -188.315 1197.73
vn 0.363874 -0.878631 0.309197
v 77.0654 -197.436 1198.89
vn 0.884347 0.212032 0.415901
v 77.5479 -196.007 1200.88
vn 0.649705 -0.584021 0.486624
v 77.4515 -196.429 1200.91
vn 0.831799 0.46684 0.300286
v 74.298 -188.935 1202.28
vn 0.900838 0.319062 0.294431
v 75.0049 -191.807 1202.87
vn 0.418855 -0.743723 0.520996
v 76.1029 -195.903 1202.96
vn 0.740121 -0.433507 0.514094
v 76.5006 -195.798 1202.65
vn 0.863351 0.343526 0.369615
v 76.388 -195.181 1202.9
vn 0.622552 -0.490287 0.609957
v 76.328 -195.477 1203.22
vn 0.889318 -0.00323169 0.457279
v 76.6047 -195.463 1202.62
vn 0.15306 0.869331 0.469931
v 73.4994 -189.305 1205.03
vn 0.438078 0.817347 0.374207
v 73.7496 -189.436 1205.05
vn 0.00954147 0.987106 0.159786
v 73.6243 -188.696 1202.87
vn 0.28382 -0.624661 0.727492
v 74.9032 -194.756 1204.95
vn 0.310895 -0.486347 0.816585
v 74.6675 -193.803 1205.71
vn 0.915725 0.400224 0.0356092
v 75.3122 -194.026 1204.89
vn 0.611159 -0.437858 0.659367
v 75.1749 -194.608 1204.94
vn 0.908565 0.396515 -0.131475
v 74.8096 -192.893 1205.08
vn 0.920559 0.312401 -0.234471
v 75.2492 -193.669 1205.46
vn 0.399449 -0.651871 0.644596
v 75.3078 -195.152 1204.39
vn 0.428165 0.643396 0.634599
v 73.7478 -190.22 1206.03
vn 0.890904 0.438034 0.120066
v 73.8897 -190.269 1205.73
vn 0.237665 0.40687 0.882027
v 73.9087 -190.828 1206.34
vn 0.127999 -0.164156 0.978095
v 74.2843 -192.284 1206.37
vn 0.0610018 0.0719376 0.995542
v 74.0578 -191.401 1206.46
vn 0.657949 0.542192 0.52262
v 74.3608 -191.044 1206.11
vn 0.279164 0.133991 0.950849
v 74.349 -191.332 1206.39
vn 0.295395 0.00160611 0.955374
v 74.4994 -191.916 1206.39
vn 0.723286 0.505817 -0.470113
v 74.819 -191.978 1205.9
vn 0.924858 0.340698 -0.169008
v 74.9662 -192.151 1205.92
vn 0.758624 0.523457 -0.387919
v 74.8706 -191.838 1206.19
vn 0.356723 -0.145566 0.9228
v 74.885 -192.218 1206.22
vn 0.360746 -0.330293 0.87222
v 74.818 -193.114 1206
vn 0.487091 -0.292332 0.822973
v 75.1012 -192.733 1205.97
vn 0.103575 0.0469563 -0.993513
v 77.7605 -194.643 1188.44
vn 0.295215 -0.256942 -0.920233
v 78.4896 -195.057 1188.65
vn 0.386995 -0.505354 -0.771267
v 78.0596 -195.785 1188.81
vn -0.395257 0.56396 -0.725067
v 78.2178 -190.309 1190.42
vn -0.250393 0.437422 -0.863693
v 78.1738 -192.609 1189.08
vn -0.363709 0.490347 -0.792007
v 78.0781 -190.99 1190
vn -0.208015 0.415452 -0.885511
v 78.6018 -191.854 1189.3
vn -0.297928 0.461201 -0.835783
v 78.5246 -191.545 1189.49
vn -0.298431 0.508416 -0.807745
v 78.5757 -190.873 1189.87
vn -0.436252 0.709568 -0.553351
v 77.3794 -189.39 1191.83
vn -0.263002 0.866994 -0.423263
v 77.2655 -188.905 1192.69
vn -0.38093 0.690511 -0.614888
v 78.0336 -189.553 1191.25
vn 0.932199 0.250098 0.261641
v 78.365 -190.169 1191.31
vn 0.918855 0.275737 0.282265
v 78.1257 -189.585 1191.55
vn 0.850858 0.424383 0.309741
v 78.5005 -191.9 1192.37
vn -0.424362 0.823568 -0.376368
v 76.6115 -188.728 1193.57
vn 0.900153 0.33828 0.274393
v 76.6974 -188.973 1195.33
vn 0.79716 0.575778 0.1817
v 77.2632 -188.992 1193.6
vn 0.508499 -0.855637 0.0965128
v 79.6678 -196.865 1195.86
vn 0.487485 -0.870034 0.0734802
v 78.332 -197.72 1195.32
vn -0.434442 0.886244 -0.160721
v 75.5766 -188.157 1196.82
vn -0.298977 0.953706 -0.0325266
v 75.8612 -188.06 1196.81
vn -0.459052 0.844763 -0.275039
v 75.883 -188.182 1196.06
vn 0.514164 0.855288 0.0641687
v 76.208 -188.391 1196.24
vn 0.883064 0.366308 0.293285
v 76.02 -188.383 1196.84
vn -0.193029 0.942257 -0.273662
v 76.196 -188.216 1195.62
vn 0.853715 -0.322096 0.409176
v 78.6918 -196.548 1198.61
vn 0.544065 -0.799732 0.253815
v 79.0961 -196.991 1197.07
vn 0.536252 -0.765999 0.354512
v 77.8311 -196.758 1199.74
vn -0.0288487 0.241762 -0.969907
v 79.1987 -192.994 1188.78
vn 0.180505 0.302255 -0.935981
v 79.779 -192.839 1188.83
vn 0.140254 0.101628 -0.984886
v 79.8545 -193.133 1188.8
vn 0.24232 -0.0311194 -0.969697
v 79.9297 -193.425 1188.8
vn 0.0481763 0.550419 -0.833498
v 78.8155 -191.474 1189.44
vn 0.441071 0.63826 -0.630936
v 79.0465 -191.397 1189.62
vn 0.914912 0.3476 0.205207
v 78.959 -191.363 1190.22
vn 0.359627 0.728492 -0.583067
v 78.6812 -190.481 1190.44
vn 0.0344218 0.434229 -0.900144
v 79.3365 -192.316 1188.99
vn 0.400557 0.667938 -0.627226
v 79.2591 -192.006 1189.19
vn 0.507334 0.645788 -0.570587
v 79.6334 -192.26 1189.1
vn 0.755755 0.653195 -0.0466003
v 79.6292 -192.201 1189.4
vn 0.423647 -0.457655 -0.781713
v 80.2263 -194.556 1189.19
vn 0.407247 0.233758 -0.882897
v 80.1557 -193.048 1188.88
vn 0.412269 -0.200271 -0.888778
v 80.6581 -193.833 1189.07
vn 0.770254 0.621319 0.143774
v 80.5143 -193.207 1189.5
vn 0.489543 -0.598366 -0.634276
v 80.877 -194.652 1189.68
vn 0.770723 0.626789 -0.114547
v 80.9468 -193.743 1189.23
vn 0.507559 -0.461624 -0.727521
v 81.0936 -194.297 1189.56
vn 0.520701 -0.682863 -0.512415
v 81.0014 -195.105 1190.29
vn 0.682946 -0.661009 -0.310888
v 81.1073 -195.409 1190.92
vn 0.771063 -0.481157 -0.417073
v 81.237 -194.821 1190.2
vn 0.781041 0.565259 0.265439
v 81.3443 -194.759 1190.56
vn 0.905081 -0.384207 -0.182246
v 81.3162 -195.093 1190.89
vn 0.521191 -0.849547 -0.0814185
v 80.1846 -196.602 1193.13
vn 0.924179 0.12872 0.359618
v 80.7793 -195.883 1193.37
vn 0.543454 -0.797596 -0.261723
v 80.917 -195.9 1191.86
vn 0.810614 0.45849 0.364268
v 81.0183 -195.598 1192.44
vn 0.771495 -0.635204 -0.0362058
v 80.9561 -196.021 1192.48
vn 0.9308 -0.338013 0.139137
v 80.9992 -195.883 1192.77
vn 0.760723 0.532864 0.370615
v 81.3027 -195.301 1191.51
vn 0.705394 -0.672286 -0.224615
v 81.1726 -195.691 1191.85
vn 0.714306 -0.691161 0.109837
v 80.2055 -196.623 1194.33
vn 0.905119 0.224539 0.361029
v 76.328 -195.477 1203.22
vn 0.916582 0.319735 0.240099
v 73.7496 -189.436 1205.05
vn 0.889071 -0.17149 0.424433
v 75.3122 -194.026 1204.89
vn 0.47958 -0.408594 0.776565
v 75.2492 -193.669 1205.46
vn 0.951043 -0.203236 0.232833
v 75.2492 -193.669 1205.46
vn 0.798954 0.444592 -0.404983
v 74.3608 -191.044 1206.11
vn 0.631477 0.527662 0.568164
v 74.349 -191.332 1206.39
vn 0.961449 0.061434 0.268032
v 74.8706 -191.838 1206.19
vn 0.685758 0.493284 0.53517
v 74.8706 -191.838 1206.19
vn 0.451788 0.105399 0.885877
v 74.8706 -191.838 1206.19
vn 0.946597 0.152531 0.284058
v 74.885 -192.218 1206.22
vn 0.967696 0.233386 0.0953647
v 75.1012 -192.733 1205.97
vn 0.304098 0.746727 -0.591543
v 78.2178 -190.309 1190.42
vn 0.369912 0.693678 -0.618042
v 78.5757 -190.873 1189.87
vn 0.636197 0.771227 0.0215118
v 77.2655 -188.905 1192.69
vn 0.301415 0.738032 -0.603704
v 78.0336 -189.553 1191.25
vn 0.652835 0.748262 -0.117941
v 78.0336 -189.553 1191.25
vn 0.662879 0.74673 -0.0546475
v 78.1257 -189.585 1191.55
vn 0.889681 -0.326344 0.319322
v 79.6678 -196.865 1195.86
vn 0.762108 0.577844 0.292041
v 75.8612 -188.06 1196.81
vn 0.583021 0.804524 -0.11326
v 75.8612 -188.06 1196.81
vn 0.514164 0.855288 0.0641687
v 75.883 -188.182 1196.06
vn 0.874479 0.429934 0.224594
v 76.208 -188.391 1196.24
vn 0.800937 0.577088 0.159594
v 76.196 -188.216 1195.62
vn 0.425358 0.872868 0.239107
v 76.196 -188.216 1195.62
vn 0.898622 0.425475 0.107
v 79.0465 -191.397 1189.62
vn 0.942769 0.262042 0.206203
v 78.6812 -190.481 1190.44
vn 0.741586 0.652753 -0.154804
v 78.6812 -190.481 1190.44
vn 0.49983 -0.129036 -0.856458
v 80.9468 -193.743 1189.23
vn 0.972672 0.157884 -0.170238
v 80.9468 -193.743 1189.23
vn 0.973667 0.0412642 -0.224208
v 81.0936 -194.297 1189.56
vn 0.981644 -0.0797083 -0.173266
v 81.3443 -194.759 1190.56
vn 0.980443 -0.121809 0.154578
v 81.0183 -195.598 1192.44
vn 0.89124 0.314891 0.326396
v 80.9992 -195.883 1192.77
vn 0.840812 -0.508873 -0.184618
v 81.3027 -195.301 1191.51
vn 0.995613 -0.0930741 -0.0095789
v 81.3027 -195.301 1191.51
vn 0.959923 -0.0925289 0.264551
v 81.3027 -195.301 1191.51
vn 0.958295 -0.104471 0.265999
v 81.1726 -195.691 1191.85
f 4//4 1//1 6//6
f 4//4 2//2 1//1
f 2//2 38//38 1//1
f 33//33 2//2 4//4
f 1//1 38//38 3//3
f 3//3 6//6 1//1
f 6//6 3//3 9//9
f 38//38 160//160 3//3
f 4//4 51//51 40//40
f 4//4 5//5 51//51
f 4//4 6//6 5//5
f 6//6 7//7 5//5
f 5//5 12//12 51//51
f 5//5 7//7 12//12
f 9//9 8//8 6//6
f 6//6 8//8 7//7
f 8//8 16//16 7//7
f 9//9 11//11 8//8
f 10//10 18//18 16//16
f 8//8 10//10 16//16
f 10//10 8//8 11//11
f 11//11 45//45 10//10
f 18//18 10//10 45//45
f 11//11 46//46 45//45
f 52//52 13//13 20//20
f 12//12 13//13 51//51
f 12//12 14//14 13//13
f 51//51 13//13 52//52
f 7//7 15//15 12//12
f 7//7 16//16 15//15
f 16//16 17//17 15//15
f 12//12 15//15 14//14
f 15//15 22//22 14//14
f 18//18 17//17 16//16
f 17//17 22//22 15//15
f 18//18 45//45 56//56
f 56//56 17//17 18//18
f 13//13 14//14 19//19
f 14//14 21//21 19//19
f 14//14 22//22 21//21
f 20//20 13//13 19//19
f 21//21 20//20 19//19
f 22//22 17//17 62//62
f 22//22 62//62 63//63
f 74//74 22//22 63//63
f 20//20 21//21 23//23
f 74//74 24//24 22//22
f 22//22 24//24 21//21
f 21//21 24//24 23//23
f 23//23 24//24 26//26
f 20//20 23//23 25//25
f 23//23 26//26 25//25
f 26//26 24//24 74//74
f 29//29 34//34 36//36
f 29//29 36//36 27//27
f 36//36 35//35 37//37
f 36//36 37//37 27//27
f 37//37 105//105 27//27
f 34//34 28//28 2//2
f 28//28 38//38 2//2
f 34//34 29//29 28//28
f 38//38 28//28 104//104
f 29//29 103//103 28//28
f 29//29 27//27 103//103
f 28//28 103//103 104//104
f 31//31 37//37 35//35
f 31//31 35//35 30//30
f 31//31 30//30 41//41
f 32//32 37//37 31//31
f 43//43 31//31 41//41
f 32//32 31//31 107//107
f 107//107 31//31 43//43
f 107//107 43//43 112//112
f 30//30 33//33 4//4
f 30//30 4//4 40//40
f 35//35 36//36 34//34
f 35//35 34//34 33//33
f 35//35 33//33 30//30
f 105//105 37//37 32//32
f 2//2 33//33 34//34
f 3//3 39//39 9//9
f 160//160 161//161 3//3
f 161//161 39//39 3//3
f 51//51 41//41 40//40
f 30//30 40//40 41//41
f 53//53 41//41 51//51
f 41//41 53//53 42//42
f 42//42 53//53 49//49
f 43//43 41//41 42//42
f 112//112 43//43 44//44
f 44//44 43//43 42//42
f 44//44 42//42 49//49
f 44//44 49//49 55//55
f 112//112 44//44 55//55
f 11//11 9//9 39//39
f 11//11 39//39 46//46
f 47//47 45//45 46//46
f 47//47 56//56 45//45
f 110//110 46//46 39//39
f 46//46 110//110 47//47
f 110//110 111//111 47//47
f 111//111 56//56 47//47
f 111//111 65//65 56//56
f 48//48 49//49 53//53
f 54//54 48//48 53//53
f 58//58 50//50 48//48
f 57//57 58//58 48//48
f 48//48 54//54 57//57
f 54//54 61//61 57//57
f 49//49 48//48 50//50
f 55//55 49//49 50//50
f 60//60 50//50 58//58
f 55//55 50//50 113//113
f 113//113 50//50 60//60
f 113//113 109//109 55//55
f 52//52 53//53 51//51
f 54//54 53//53 52//52
f 54//54 52//52 61//61
f 69//69 57//57 61//61
f 58//58 57//57 59//59
f 66//66 59//59 57//57
f 69//69 66//66 57//57
f 60//60 58//58 59//59
f 52//52 20//20 61//61
f 62//62 17//17 56//56
f 63//63 62//62 64//64
f 65//65 62//62 56//56
f 64//64 62//62 65//65
f 75//75 63//63 64//64
f 64//64 65//65 76//76
f 76//76 75//75 64//64
f 70//70 66//66 69//69
f 67//67 66//66 70//70
f 70//70 72//72 67//67
f 59//59 66//66 67//67
f 60//60 59//59 67//67
f 113//113 60//60 115//115
f 115//115 60//60 67//67
f 115//115 67//67 119//119
f 61//61 20//20 68//68
f 69//69 61//61 68//68
f 68//68 70//70 69//69
f 79//79 71//71 68//68
f 68//68 73//73 79//79
f 68//68 71//71 70//70
f 70//70 71//71 72//72
f 72//72 71//71 80//80
f 68//68 20//20 73//73
f 73//73 20//20 25//25
f 87//87 74//74 75//75
f 74//74 63//63 75//75
f 77//77 75//75 76//76
f 77//77 87//87 75//75
f 65//65 118//118 76//76
f 78//78 77//77 76//76
f 118//118 78//78 76//76
f 82//82 67//67 72//72
f 119//119 67//67 82//82
f 83//83 79//79 73//73
f 71//71 79//79 81//81
f 85//85 81//81 79//79
f 71//71 81//81 80//80
f 72//72 80//80 82//82
f 82//82 80//80 128//128
f 119//119 82//82 121//121
f 128//128 121//121 82//82
f 25//25 86//86 83//83
f 73//73 25//25 83//83
f 79//79 83//83 85//85
f 85//85 83//83 84//84
f 86//86 84//84 83//83
f 86//86 89//89 84//84
f 94//94 84//84 89//89
f 25//25 26//26 86//86
f 26//26 74//74 88//88
f 74//74 87//87 88//88
f 26//26 89//89 86//86
f 26//26 88//88 89//89
f 87//87 77//77 92//92
f 91//91 88//88 87//87
f 89//89 88//88 91//91
f 92//92 90//90 87//87
f 87//87 90//90 91//91
f 77//77 78//78 92//92
f 91//91 90//90 101//101
f 127//127 92//92 78//78
f 126//126 101//101 90//90
f 92//92 126//126 90//90
f 92//92 127//127 126//126
f 78//78 179//179 127//127
f 93//93 81//81 95//95
f 80//80 93//93 128//128
f 81//81 93//93 80//80
f 128//128 93//93 129//129
f 93//93 95//95 98//98
f 129//129 93//93 130//130
f 130//130 93//93 98//98
f 85//85 84//84 95//95
f 84//84 94//94 95//95
f 95//95 81//81 85//85
f 96//96 95//95 94//94
f 97//97 96//96 94//94
f 95//95 96//96 98//98
f 100//100 97//97 94//94
f 96//96 141//141 98//98
f 97//97 100//100 99//99
f 142//142 96//96 97//97
f 141//141 130//130 98//98
f 141//141 96//96 142//142
f 142//142 97//97 143//143
f 97//97 99//99 143//143
f 94//94 89//89 100//100
f 100//100 89//89 91//91
f 91//91 101//101 102//102
f 100//100 91//91 102//102
f 100//100 102//102 99//99
f 156//156 102//102 101//101
f 145//145 99//99 102//102
f 32//32 106//106 105//105
f 38//38 104//104 160//160
f 104//104 170//170 160//160
f 39//39 161//161 163//163
f 39//39 163//163 110//110
f 162//162 110//110 163//163
f 32//32 107//107 106//106
f 107//107 108//108 106//106
f 108//108 107//107 112//112
f 112//112 109//109 108//108
f 111//111 110//110 162//162
f 164//164 111//111 162//162
f 109//109 112//112 55//55
f 114//114 109//109 113//113
f 176//176 65//65 111//111
f 114//114 113//113 117//117
f 117//117 113//113 115//115
f 117//117 115//115 116//116
f 116//116 115//115 119//119
f 117//117 116//116 166//166
f 114//114 117//117 166//166
f 124//124 166//166 116//116
f 65//65 176//176 118//118
f 179//179 78//78 118//118
f 176//176 179//179 118//118
f 120//120 119//119 121//121
f 116//116 119//119 120//120
f 123//123 120//120 121//121
f 122//122 123//123 121//121
f 124//124 116//116 120//120
f 128//128 122//122 121//121
f 120//120 123//123 124//124
f 123//123 122//122 135//135
f 125//125 124//124 123//123
f 123//123 135//135 125//125
f 127//127 200//200 158//158
f 128//128 132//132 122//122
f 132//132 128//128 129//129
f 144//144 131//131 130//130
f 131//131 129//129 130//130
f 132//132 129//129 133//133
f 133//133 129//129 131//131
f 131//131 134//134 133//133
f 144//144 134//134 131//131
f 134//134 144//144 149//149
f 135//135 122//122 132//132
f 136//136 135//135 132//132
f 136//136 132//132 133//133
f 137//137 136//136 133//133
f 134//134 137//137 133//133
f 149//149 137//137 134//134
f 138//138 135//135 136//136
f 139//139 138//138 136//136
f 137//137 139//139 136//136
f 137//137 149//149 153//153
f 138//138 125//125 135//135
f 138//138 139//139 140//140
f 140//140 139//139 137//137
f 153//153 140//140 137//137
f 178//178 125//125 177//177
f 125//125 138//138 177//177
f 177//177 138//138 140//140
f 177//177 140//140 180//180
f 146//146 144//144 141//141
f 144//144 130//130 141//141
f 142//142 146//146 141//141
f 143//143 145//145 147//147
f 143//143 99//99 145//145
f 146//146 142//142 147//147
f 142//142 143//143 147//147
f 144//144 146//146 149//149
f 147//147 145//145 148//148
f 157//157 148//148 145//145
f 151//151 147//147 148//148
f 149//149 146//146 150//150
f 146//146 147//147 150//150
f 150//150 147//147 151//151
f 153//153 149//149 150//150
f 155//155 148//148 152//152
f 157//157 152//152 148//148
f 151//151 154//154 150//150
f 148//148 155//155 151//151
f 152//152 168//168 155//155
f 150//150 154//154 153//153
f 151//151 155//155 154//154
f 155//155 168//168 154//154
f 140//140 153//153 169//169
f 153//153 154//154 169//169
f 180//180 140//140 169//169
f 169//169 154//154 181//181
f 126//126 156//156 101//101
f 102//102 156//156 145//145
f 157//157 156//156 126//126
f 157//157 145//145 156//156
f 126//126 158//158 157//157
f 127//127 158//158 126//126
f 158//158 159//159 157//157
f 157//157 159//159 152//152
f 201//201 159//159 158//158
f 158//158 200//200 201//201
f 168//168 152//152 159//159
f 189//189 160//160 170//170
f 160//160 189//189 161//161
f 163//163 161//161 171//171
f 171//171 172//172 163//163
f 173//173 164//164 162//162
f 172//172 162//162 163//163
f 173//173 174//174 164//164
f 172//172 173//173 162//162
f 164//164 176//176 111//111
f 109//109 114//114 165//165
f 165//165 114//114 175//175
f 166//166 175//175 114//114
f 124//124 178//178 166//166
f 175//175 166//166 178//178
f 125//125 178//178 124//124
f 181//181 167//167 211//211
f 179//179 200//200 127//127
f 211//211 159//159 201//201
f 154//154 168//168 181//181
f 168//168 167//167 181//181
f 168//168 159//159 167//167
f 105//105 184//184 27//27
f 183//183 27//27 184//184
f 103//103 27//27 183//183
f 103//103 185//185 104//104
f 189//189 187//187 161//161
f 171//171 161//161 187//187
f 185//185 170//170 104//104
f 171//171 187//187 195//195
f 172//172 171//171 195//195
f 196//196 173//173 172//172
f 197//197 164//164 174//174
f 197//197 176//176 164//164
f 210//210 177//177 180//180
f 178//178 177//177 199//199
f 179//179 176//176 202//202
f 169//169 181//181 180//180
f 159//159 211//211 167//167
f 183//183 185//185 103//103
f 184//184 192//192 183//183
f 185//185 189//189 170//170
f 185//185 186//186 189//189
f 186//186 194//194 189//189
f 185//185 183//183 190//190
f 186//186 185//185 190//190
f 194//194 187//187 189//189
f 188//188 106//106 108//108
f 182//182 184//184 105//105
f 182//182 105//105 106//106
f 182//182 106//106 188//188
f 195//195 196//196 172//172
f 173//173 196//196 220//220
f 188//188 108//108 109//109
f 221//221 109//109 165//165
f 198//198 175//175 178//178
f 178//178 199//199 198//198
f 177//177 210//210 199//199
f 202//202 203//203 179//179
f 211//211 210//210 180//180
f 181//181 211//211 180//180
f 179//179 203//203 200//200
f 183//183 192//192 190//190
f 190//190 207//207 191//191
f 190//190 192//192 205//205
f 205//205 207//207 190//190
f 205//205 192//192 193//193
f 186//186 208//208 194//194
f 191//191 208//208 186//186
f 194//194 218//218 187//187
f 217//217 182//182 188//188
f 192//192 184//184 193//193
f 184//184 182//182 193//193
f 191//191 186//186 190//190
f 209//209 195//195 187//187
f 187//187 218//218 209//209
f 195//195 209//209 219//219
f 219//219 196//196 195//195
f 216//216 109//109 221//221
f 174//174 173//173 220//220
f 199//199 231//231 198//198
f 198//198 231//231 175//175
f 197//197 202//202 176//176
f 251//251 202//202 197//197
f 200//200 203//203 204//204
f 204//204 201//201 200//200
f 204//204 211//211 201//201
f 207//207 212//212 214//214
f 193//193 213//213 205//205
f 217//217 193//193 182//182
f 193//193 217//217 213//213
f 207//207 206//206 191//191
f 207//207 205//205 212//212
f 206//206 207//207 214//214
f 222//222 205//205 213//213
f 208//208 191//191 206//206
f 218//218 194//194 208//208
f 188//188 216//216 217//217
f 220//220 196//196 219//219
f 216//216 188//188 109//109
f 220//220 230//230 174//174
f 175//175 231//231 165//165
f 230//230 251//251 197//197
f 197//197 174//174 230//230
f 202//202 251//251 239//239
f 244//244 210//210 211//211
f 239//239 203//203 202//202
f 212//212 205//205 222//222
f 214//214 215//215 206//206
f 215//215 208//208 206//206
f 215//215 224//224 208//208
f 218//218 223//223 209//209
f 249//249 217//217 216//216
f 220//220 219//219 228//228
f 221//221 259//259 216//216
f 203//203 232//232 204//204
f 211//211 204//204 243//243
f 244//244 211//211 243//243
f 243//243 204//204 232//232
f 239//239 232//232 203//203
f 235//235 224//224 215//215
f 234//234 233//233 214//214
f 233//233 215//215 214//214
f 233//233 235//235 215//215
f 234//234 214//214 212//212
f 213//213 217//217 270//270
f 222//222 213//213 270//270
f 224//224 218//218 208//208
f 209//209 223//223 225//225
f 209//209 225//225 227//227
f 224//224 223//223 218//218
f 224//224 226//226 223//223
f 227//227 225//225 236//236
f 224//224 235//235 226//226
f 226//226 225//225 223//223
f 225//225 226//226 236//236
f 227//227 236//236 237//237
f 226//226 247//247 236//236
f 227//227 228//228 219//219
f 209//209 227//227 219//219
f 229//229 220//220 228//228
f 237//237 228//228 227//227
f 229//229 230//230 220//220
f 229//229 228//228 237//237
f 221//221 165//165 231//231
f 210//210 242//242 199//199
f 244//244 242//242 210//210
f 231//231 199//199 242//242
f 242//242 266//266 231//231
f 240//240 232//232 239//239
f 253//253 234//234 222//222
f 253//253 222//222 270//270
f 234//234 212//212 222//222
f 217//217 249//249 270//270
f 236//236 250//250 237//237
f 238//238 229//229 237//237
f 259//259 221//221 252//252
f 260//260 230//230 229//229
f 260//260 251//251 230//230
f 231//231 252//252 221//221
f 262//262 252//252 231//231
f 231//231 266//266 262//262
f 265//265 241//241 240//240
f 241//241 232//232 240//240
f 232//232 241//241 243//243
f 255//255 233//233 234//234
f 255//255 245//245 233//233
f 253//253 255//255 234//234
f 246//246 226//226 235//235
f 226//226 246//246 247//247
f 235//235 233//233 245//245
f 245//245 254//254 235//235
f 254//254 246//246 235//235
f 246//246 254//254 257//257
f 247//247 246//246 257//257
f 236//236 247//247 248//248
f 248//248 247//247 258//258
f 259//259 249//249 216//216
f 238//238 237//237 250//250
f 250//250 236//236 248//248
f 261//261 264//264 251//251
f 251//251 264//264 239//239
f 240//240 239//239 264//264
f 267//267 244//244 263//263
f 244//244 243//243 263//263
f 241//241 263//263 243//243
f 268//268 242//242 244//244
f 267//267 268//268 244//244
f 242//242 268//268 266//266
f 269//269 267//267 263//263
f 284//284 241//241 265//265
f 241//241 284//284 263//263
f 253//253 270//270 271//271
f 256//256 253//253 271//271
f 254//254 245//245 255//255
f 253//253 256//256 255//255
f 289//289 257//257 254//254
f 256//256 272//272 255//255
f 254//254 255//255 272//272
f 273//273 257//257 289//289
f 258//258 257//257 273//273
f 270//270 249//249 274//274
f 275//275 249//249 259//259
f 257//257 258//258 247//247
f 258//258 276//276 248//248
f 277//277 250//250 248//248
f 276//276 258//258 273//273
f 277//277 278//278 250//250
f 278//278 238//238 250//250
f 248//248 276//276 277//277
f 290//290 275//275 259//259
f 293//293 229//229 238//238
f 293//293 260//260 229//229
f 259//259 252//252 279//279
f 261//261 251//251 260//260
f 280//280 264//264 261//261
f 293//293 280//280 261//261
f 260//260 293//293 261//261
f 283//283 262//262 281//281
f 262//262 283//283 252//252
f 265//265 264//264 280//280
f 265//265 240//240 264//264
f 266//266 281//281 262//262
f 269//269 268//268 267//267
f 281//281 266//266 268//268
f 282//282 281//281 268//268
f 282//282 268//268 269//269
f 299//299 289//289 285//285
f 287//287 270//270 274//274
f 256//256 271//271 286//286
f 271//271 270//270 298//298
f 287//287 298//298 270//270
f 272//272 256//256 285//285
f 272//272 289//289 254//254
f 289//289 272//272 285//285
f 286//286 285//285 256//256
f 311//311 273//273 289//289
f 276//276 273//273 323//323
f 273//273 311//311 323//323
f 249//249 275//275 274//274
f 274//274 275//275 288//288
f 290//290 288//288 275//275
f 278//278 293//293 238//238
f 252//252 283//283 279//279
f 265//265 280//280 292//292
f 294//294 281//281 282//282
f 295//295 294//294 282//282
f 269//269 295//295 282//282
f 263//263 296//296 269//269
f 296//296 263//263 284//284
f 295//295 269//269 296//296
f 299//299 320//320 289//289
f 286//286 300//300 285//285
f 300//300 299//299 285//285
f 289//289 320//320 311//311
f 287//287 274//274 288//288
f 298//298 286//286 271//271
f 309//309 288//288 290//290
f 291//291 279//279 283//283
f 283//283 294//294 291//291
f 292//292 305//305 304//304
f 280//280 305//305 292//292
f 292//292 304//304 297//297
f 297//297 304//304 307//307
f 281//281 294//294 283//283
f 315//315 284//284 307//307
f 315//315 296//296 284//284
f 295//295 296//296 306//306
f 265//265 297//297 284//284
f 292//292 297//297 265//265
f 297//297 307//307 284//284
f 287//287 302//302 308//308
f 301//301 298//298 308//308
f 301//301 300//300 286//286
f 301//301 286//286 298//298
f 301//301 319//319 300//300
f 337//337 301//301 308//308
f 337//337 338//338 301//301
f 308//308 298//298 287//287
f 302//302 287//287 288//288
f 302//302 288//288 309//309
f 326//326 277//277 276//276
f 276//276 323//323 326//326
f 325//325 309//309 290//290
f 312//312 290//290 259//259
f 326//326 278//278 277//277
f 312//312 259//259 291//291
f 259//259 279//279 291//291
f 280//280 293//293 305//305
f 295//295 303//303 294//294
f 306//306 303//303 295//295
f 306//306 296//296 315//315
f 319//319 301//301 338//338
f 319//319 299//299 300//300
f 312//312 325//325 290//290
f 330//330 291//291 294//294
f 303//303 306//306 316//316
f 316//316 294//294 303//303
f 315//315 316//316 306//306
f 305//305 310//310 304//304
f 304//304 317//317 307//307
f 317//317 304//304 310//310
f 305//305 313//313 310//310
f 310//310 313//313 317//317
f 318//318 307//307 317//317
f 318//318 315//315 307//307
f 337//337 308//308 322//322
f 322//322 308//308 302//302
f 324//324 322//322 302//302
f 309//309 325//325 324//324
f 324//324 302//302 309//309
f 327//327 278//278 326//326
f 329//329 293//293 278//278
f 312//312 291//291 330//330
f 361//361 312//312 330//330
f 328//328 293//293 329//329
f 305//305 293//293 328//328
f 330//330 294//294 314//314
f 316//316 314//314 294//294
f 331//331 330//330 314//314
f 317//317 335//335 318//318
f 313//313 335//335 317//317
f 336//336 315//315 318//318
f 336//336 334//334 315//315
f 319//319 320//320 299//299
f 320//320 321//321 311//311
f 319//319 339//339 320//320
f 339//339 321//321 320//320
f 323//323 311//311 321//321
f 343//343 326//326 323//323
f 327//327 326//326 343//343
f 345//345 327//327 343//343
f 323//323 321//321 344//344
f 343//343 323//323 344//344
f 370//370 324//324 325//325
f 358//358 325//325 312//312
f 346//346 278//278 327//327
f 346//346 327//327 345//345
f 347//347 328//328 329//329
f 328//328 348//348 305//305
f 316//316 315//315 333//333
f 314//314 332//332 331//331
f 332//332 314//314 316//316
f 332//332 316//316 333//333
f 332//332 333//333 365//365
f 366//366 334//334 336//336
f 333//333 315//315 334//334
f 366//366 336//336 350//350
f 335//335 336//336 318//318
f 349//349 335//335 313//313
f 350//350 336//336 335//335
f 340//340 339//339 319//319
f 340//340 319//319 338//338
f 321//321 339//339 341//341
f 337//337 340//340 338//338
f 352//352 340//340 337//337
f 352//352 353//353 340//340
f 341//341 339//339 342//342
f 353//353 342//342 340//340
f 340//340 342//342 339//339
f 324//324 370//370 322//322
f 344//344 321//321 341//341
f 341//341 355//355 344//344
f 343//343 344//344 356//356
f 357//357 343//343 356//356
f 358//358 370//370 325//325
f 357//357 345//345 343//343
f 359//359 345//345 357//357
f 359//359 346//346 345//345
f 360//360 329//329 346//346
f 329//329 278//278 346//346
f 374//374 361//361 330//330
f 347//347 363//363 328//328
f 362//362 330//330 331//331
f 362//362 374//374 330//330
f 331//331 364//364 362//362
f 364//364 331//331 332//332
f 374//374 362//362 427//427
f 305//305 348//348 313//313
f 349//349 313//313 348//348
f 348//348 328//328 363//363
f 348//348 363//363 349//349
f 332//332 365//365 364//364
f 365//365 333//333 334//334
f 350//350 335//335 349//349
f 367//367 337//337 322//322
f 367//367 352//352 337//337
f 341//341 342//342 351//351
f 341//341 351//351 355//355
f 353//353 368//368 342//342
f 368//368 351//351 342//342
f 368//368 378//378 351//351
f 386//386 368//368 353//353
f 369//369 351//351 378//378
f 355//355 351//351 369//369
f 322//322 354//354 367//367
f 354//354 322//322 370//370
f 379//379 367//367 354//354
f 356//356 344//344 355//355
f 360//360 346//346 359//359
f 359//359 371//371 360//360
f 358//358 312//312 361//361
f 358//358 361//361 372//372
f 347//347 329//329 373//373
f 372//372 361//361 374//374
f 375//375 363//363 347//347
f 362//362 397//397 427//427
f 362//362 364//364 397//397
f 365//365 334//334 366//366
f 438//438 366//366 401//401
f 401//401 350//350 349//349
f 366//366 350//350 401//401
f 384//384 367//367 379//379
f 385//385 353//353 352//352
f 378//378 368//368 386//386
f 380//380 355//355 369//369
f 385//385 386//386 353//353
f 389//389 369//369 378//378
f 369//369 389//389 380//380
f 354//354 370//370 379//379
f 380//380 356//356 355//355
f 380//380 357//357 356//356
f 358//358 391//391 370//370
f 381//381 359//359 357//357
f 371//371 359//359 381//381
f 360//360 373//373 329//329
f 371//371 373//373 360//360
f 394//394 373//373 371//371
f 391//391 358//358 372//372
f 347//347 373//373 376//376
f 396//396 374//374 427//427
f 376//376 375//375 347//347
f 375//375 420//420 363//363
f 429//429 401//401 349//349
f 377//377 397//397 364//364
f 382//382 377//377 364//364
f 365//365 366//366 383//383
f 382//382 364//364 365//365
f 383//383 366//366 438//438
f 352//352 367//367 384//384
f 387//387 378//378 386//386
f 387//387 389//389 378//378
f 381//381 357//357 380//380
f 392//392 381//381 380//380
f 379//379 370//370 391//391
f 393//393 394//394 371//371
f 381//381 393//393 371//371
f 395//395 391//391 372//372
f 372//372 374//374 395//395
f 376//376 420//420 375//375
f 382//382 365//365 383//383
f 399//399 382//382 383//383
f 384//384 385//385 352//352
f 384//384 402//402 385//385
f 384//384 379//379 453//453
f 403//403 402//402 384//384
f 403//403 384//384 453//453
f 402//402 386//386 385//385
f 388//388 389//389 387//387
f 402//402 405//405 386//386
f 386//386 405//405 387//387
f 453//453 379//379 406//406
f 390//390 389//389 388//388
f 390//390 388//388 408//408
f 389//389 390//390 380//380
f 393//393 381//381 392//392
f 390//390 392//392 380//380
f 392//392 390//390 409//409
f 391//391 406//406 379//379
f 409//409 393//393 392//392
f 464//464 391//391 395//395
f 376//376 373//373 415//415
f 396//396 395//395 374//374
f 425//425 427//427 397//397
f 425//425 397//397 398//398
f 363//363 428//428 349//349
f 428//428 429//429 349//349
f 420//420 434//434 363//363
f 434//434 428//428 363//363
f 398//398 397//397 377//377
f 398//398 377//377 400//400
f 400//400 377//377 382//382
f 398//398 435//435 425//425
f 435//435 398//398 400//400
f 383//383 438//438 439//439
f 399//399 383//383 439//439
f 382//382 399//399 400//400
f 437//437 399//399 439//439
f 435//435 400//400 437//437
f 400//400 399//399 437//437
f 447//447 438//438 401//401
f 405//405 451//451 404//404
f 449//449 402//402 403//403
f 405//405 404//404 387//387
f 404//404 388//388 387//387
f 407//407 388//388 404//404
f 388//388 407//407 408//408
f 407//407 404//404 451//451
f 406//406 454//454 453//453
f 390//390 408//408 409//409
f 408//408 407//407 497//497
f 406//406 391//391 458//458
f 502//502 510//510 410//410
f 410//410 393//393 409//409
f 394//394 393//393 410//410
f 409//409 502//502 410//410
f 471//471 464//464 395//395
f 412//412 411//411 394//394
f 412//412 476//476 411//411
f 476//476 415//415 411//411
f 410//410 412//412 394//394
f 468//468 412//412 410//410
f 468//468 476//476 412//412
f 413//413 395//395 414//414
f 396//396 414//414 395//395
f 471//471 395//395 413//413
f 469//469 413//413 414//414
f 396//396 470//470 414//414
f 414//414 470//470 469//469
f 411//411 373//373 394//394
f 411//411 415//415 373//373
f 427//427 470//470 396//396
f 530//530 427//427 418//418
f 463//463 422//422 416//416
f 417//417 376//376 415//415
f 376//376 417//417 420//420
f 477//477 417//417 415//415
f 477//477 475//475 417//417
f 416//416 417//417 475//475
f 426//426 418//418 427//427
f 463//463 419//419 422//422
f 463//463 418//418 419//419
f 421//421 423//423 420//420
f 417//417 421//421 420//420
f 424//424 422//422 511//511
f 424//424 511//511 421//421
f 422//422 424//424 416//416
f 416//416 424//424 417//417
f 421//421 417//417 424//424
f 425//425 426//426 427//427
f 418//418 512//512 419//419
f 512//512 436//436 432//432
f 419//419 512//512 432//432
f 431//431 428//428 434//434
f 431//431 429//429 428//428
f 419//419 432//432 511//511
f 511//511 432//432 430//430
f 423//423 513//513 431//431
f 430//430 432//432 433//433
f 429//429 431//431 514//514
f 515//515 431//431 513//513
f 433//433 432//432 444//444
f 422//422 419//419 511//511
f 431//431 434//434 423//423
f 423//423 434//434 420//420
f 426//426 425//425 435//435
f 435//435 436//436 512//512
f 440//440 436//436 435//435
f 435//435 437//437 440//440
f 441//441 439//439 442//442
f 439//439 438//438 442//442
f 517//517 440//440 437//437
f 439//439 441//441 437//437
f 432//432 516//516 443//443
f 444//444 432//432 443//443
f 436//436 516//516 432//432
f 446//446 447//447 448//448
f 442//442 438//438 446//446
f 447//447 446//446 438//438
f 443//443 516//516 445//445
f 443//443 445//445 444//444
f 444//444 518//518 521//521
f 521//521 522//522 444//444
f 519//519 440//440 517//517
f 442//442 520//520 441//441
f 446//446 520//520 442//442
f 429//429 447//447 401//401
f 514//514 447//447 429//429
f 514//514 448//448 447//447
f 444//444 522//522 433//433
f 405//405 450//450 451//451
f 478//478 403//403 453//453
f 449//449 403//403 478//478
f 405//405 402//402 449//449
f 450//450 405//405 449//449
f 450//450 490//490 451//451
f 490//490 494//494 451//451
f 494//494 407//407 451//451
f 406//406 460//460 452//452
f 485//485 523//523 526//526
f 537//537 461//461 484//484
f 456//456 453//453 454//454
f 455//455 453//453 456//456
f 486//486 478//478 453//453
f 486//486 453//453 455//455
f 452//452 454//454 406//406
f 456//456 457//457 482//482
f 482//482 455//455 456//456
f 486//486 455//455 482//482
f 457//457 454//454 452//452
f 524//524 523//523 485//485
f 457//457 456//456 454//454
f 494//494 497//497 407//407
f 504//504 409//409 408//408
f 464//464 458//458 391//391
f 458//458 464//464 459//459
f 460//460 406//406 458//458
f 460//460 458//458 459//459
f 461//461 463//463 484//484
f 462//462 463//463 461//461
f 525//525 466//466 528//528
f 462//462 466//466 465//465
f 462//462 465//465 463//463
f 528//528 527//527 525//525
f 528//528 538//538 527//527
f 537//537 462//462 461//461
f 502//502 409//409 506//506
f 464//464 471//471 474//474
f 464//464 474//474 459//459
f 466//466 534//534 465//465
f 466//466 525//525 534//534
f 463//463 416//416 503//503
f 475//475 503//503 416//416
f 510//510 468//468 410//410
f 468//468 467//467 476//476
f 510//510 467//467 468//468
f 471//471 469//469 470//470
f 471//471 413//413 469//469
f 530//530 418//418 473//473
f 472//472 535//535 532//532
f 465//465 533//533 473//473
f 532//532 531//531 472//472
f 533//533 530//530 473//473
f 473//473 418//418 465//465
f 465//465 418//418 463//463
f 465//465 534//534 533//533
f 476//476 477//477 415//415
f 475//475 476//476 529//529
f 475//475 477//477 476//476
f 478//478 486//486 479//479
f 479//479 480//480 478//478
f 478//478 480//480 449//449
f 480//480 481//481 449//449
f 481//481 450//450 449//449
f 481//481 492//492 450//450
f 480//480 479//479 491//491
f 481//481 480//480 491//491
f 492//492 481//481 491//491
f 482//482 524//524 483//483
f 482//482 483//483 487//487
f 482//482 487//487 486//486
f 485//485 483//483 524//524
f 536//536 537//537 484//484
f 484//484 463//463 489//489
f 488//488 479//479 486//486
f 487//487 489//489 488//488
f 487//487 488//488 486//486
f 487//487 483//483 489//489
f 489//489 536//536 484//484
f 489//489 463//463 493//493
f 450//450 492//492 490//490
f 490//490 492//492 496//496
f 494//494 490//490 496//496
f 493//493 463//463 500//500
f 479//479 488//488 491//491
f 491//491 488//488 495//495
f 539//539 492//492 491//491
f 488//488 489//489 495//495
f 495//495 489//489 493//493
f 495//495 493//493 500//500
f 541//541 540//540 542//542
f 539//539 496//496 492//492
f 499//499 494//494 496//496
f 500//500 463//463 508//508
f 499//499 541//541 542//542
f 497//497 498//498 408//408
f 504//504 408//408 498//498
f 504//504 498//498 509//509
f 497//497 494//494 499//499
f 499//499 501//501 498//498
f 499//499 498//498 497//497
f 545//545 498//498 501//501
f 498//498 545//545 509//509
f 499//499 542//542 501//501
f 542//542 546//546 501//501
f 505//505 463//463 503//503
f 409//409 504//504 506//506
f 506//506 510//510 502//502
f 463//463 505//505 508//508
f 507//507 510//510 506//506
f 544//544 505//505 503//503
f 507//507 503//503 510//510
f 506//506 504//504 509//509
f 547//547 543//543 548//548
f 543//543 506//506 548//548
f 506//506 543//543 507//507
f 503//503 475//475 529//529
f 510//510 503//503 529//529
