# Wavafront OBJ file of BodyParts3D
# BodyParts3D, Copyright(C) 2010-2011 The Database Center for Life Science licensed under CC Attribution-Share Alike 2.1 Japan.
vn -0.911317 0.0564783 -0.407814
v 23.5497 -143.488 1324.19
vn -0.944979 -0.134086 -0.29839
v 23.4287 -146.282 1324.63
vn -0.788667 -0.210004 -0.577843
v 24.1472 -146.613 1323.12
vn -0.862599 -0.430681 -0.2654
v 23.622 -147.153 1324.75
vn -0.236228 -0.970289 0.0522979
v 24.3642 -147.896 1324.73
vn -0.533405 -0.744643 -0.401231
v 24.5193 -147.709 1323.54
vn -0.934231 -0.345573 -0.0882749
v 23.3881 -146.823 1325.32
vn -0.764555 -0.635952 -0.104981
v 23.9283 -147.646 1325.12
vn -0.224508 -0.917015 0.329667
v 24.3943 -147.674 1325.71
vn -0.0052486 -0.870594 0.491974
v 24.3426 -146.983 1327.12
vn -0.981943 0.0141272 -0.188648
v 22.3876 -140.702 1328.38
vn -0.886865 0.203143 -0.414975
v 22.9841 -139.837 1326.69
vn -0.984722 -0.0838373 -0.152623
v 22.6608 -144.219 1327.39
vn -0.963474 -0.267051 -0.0200385
v 22.819 -145.406 1327.56
vn -0.876694 -0.465326 0.12198
v 23.1705 -146.236 1327.67
vn -0.939835 -0.31432 0.133838
v 22.4093 -143.557 1330.34
vn -0.457724 -0.686785 0.564638
v 22.9756 -143.898 1331.27
vn 0.038213 -0.796688 0.603181
v 23.8121 -145.17 1329.91
vn 0.154149 -0.688611 0.708557
v 23.8804 -143.682 1331.5
vn -0.998985 0.0092457 0.0440962
v 21.976 -137.723 1332.49
vn -0.97481 0.123017 -0.186043
v 22.1147 -136.668 1330.81
vn -0.98209 0.183391 0.0432008
v 22.0755 -136.119 1332.55
vn -0.969896 -0.126529 0.208067
v 22.132 -140.404 1333.21
vn -0.993252 -0.114345 0.019394
v 22.1328 -141.576 1331.56
vn -0.832057 -0.388729 0.395691
v 22.393 -141.606 1333.08
vn -0.225339 -0.61097 0.758906
v 22.8692 -141.44 1333.63
vn 0.248263 -0.613494 0.749661
v 23.918 -142.169 1332.82
vn -0.946001 0.16323 0.280069
v 22.2713 -136.208 1333.77
vn -0.825255 0.122002 0.551426
v 22.4748 -136.685 1334.44
vn -0.74379 -0.286348 0.603972
v 22.4158 -140.204 1334.07
vn -0.945341 -0.0115566 0.325878
v 22.2339 -138.367 1334.1
vn -0.430194 -0.30538 0.849515
v 22.7443 -139.406 1334.65
vn -0.717302 -0.072942 0.692934
v 22.5674 -138.503 1334.71
vn -0.00363798 -0.397405 0.917636
v 23.3363 -139.215 1334.86
vn -0.270889 -0.221211 0.936848
v 23.1949 -138.596 1335.07
vn -0.0851311 -0.49669 0.863743
v 23.0254 -140.649 1334.19
vn -0.427775 -0.106877 -0.897544
v 25.5108 -146.102 1321.9
vn -0.275339 0.174749 -0.945331
v 25.6393 -144.176 1321.96
vn -0.0799911 -0.0270884 -0.996427
v 26.2962 -145.605 1321.69
vn -0.402988 -0.452824 -0.795331
v 25.4635 -147.013 1322.21
vn -0.0286193 -0.797274 -0.602939
v 25.634 -147.541 1322.58
vn -0.0060905 -0.371114 -0.928567
v 26.2415 -146.538 1321.85
vn -0.683756 0.118952 -0.71995
v 24.4399 -144.085 1322.72
vn -0.777139 0.247573 -0.578587
v 24.0855 -142.381 1323.69
vn -0.586861 0.379089 -0.715462
v 24.5844 -142.075 1323.31
vn -0.426157 0.308779 -0.850321
v 25.1426 -143.308 1322.4
vn -0.294674 0.526314 -0.797597
v 25.4469 -141.894 1322.94
vn 0.111363 -0.993418 -0.0267957
v 25.5814 -147.984 1324.18
vn 0.138182 -0.921615 0.362672
v 25.013 -147.772 1325.39
vn -0.503218 0.509894 -0.697696
v 23.9051 -138.338 1326.42
vn -0.720939 0.365756 -0.588616
v 23.4837 -139.167 1326.26
vn -0.8379 0.372821 -0.398658
v 22.5475 -135.37 1330.28
vn -0.66072 0.462428 -0.591278
v 23.1844 -135.926 1328.81
vn -0.507993 0.653968 -0.560597
v 23.5722 -134.773 1329.53
vn -0.280443 0.62134 -0.731634
v 24.3391 -135.812 1328.15
vn -0.255839 0.733034 -0.630244
v 24.1362 -134.57 1329.47
vn -0.285529 0.809112 -0.513626
v 24.0637 -134.022 1330.24
vn -0.928718 0.333866 -0.161296
v 22.3781 -135.33 1330.89
vn -0.917958 0.396369 0.0156746
v 22.4372 -134.798 1332.32
vn -0.754517 0.570542 -0.324324
v 22.7303 -134.694 1330.77
vn -0.771585 0.627174 -0.106348
v 22.7345 -134.309 1331.93
vn -0.510052 0.796108 -0.325667
v 23.4765 -133.921 1330.92
vn -0.891842 0.379113 0.24676
v 22.4916 -134.964 1333.26
vn -0.736904 0.353518 0.576192
v 22.9115 -135.299 1334.5
vn -0.780899 0.611775 0.126204
v 22.7982 -134.243 1332.83
vn -0.70724 0.611343 0.355066
v 23.1647 -134.152 1333.71
vn -0.556449 0.653741 0.512823
v 23.7817 -133.943 1334.25
vn -0.553848 0.831243 0.0478274
v 24.0768 -133.15 1332.9
vn -0.446968 0.0423828 0.893545
v 23.4106 -136.928 1335.36
vn -0.451338 0.337396 0.82611
v 23.8976 -135.241 1335.26
vn 0.0483861 0.0971838 -0.99409
v 26.8033 -145.148 1321.72
vn 0.1422 -0.118048 -0.982774
v 26.956 -145.731 1321.74
vn 0.244872 -0.617117 -0.7478
v 26.9922 -146.912 1322.2
vn 0.235554 -0.36531 -0.900591
v 27.1152 -146.295 1321.89
vn -0.0368731 0.267043 -0.962979
v 26.461 -143.746 1321.96
vn -0.143581 0.434413 -0.889196
v 26.1575 -142.392 1322.48
vn 0.27428 -0.859654 -0.431006
v 27.1547 -147.337 1322.78
vn -0.127765 0.581626 -0.80336
v 27.6152 -140.355 1323.81
vn 0.246203 -0.772804 0.584943
v 27.2441 -146.365 1326.58
vn -0.0378304 -0.277659 0.959935
v 26.8519 -135.594 1335.96
vn -0.299133 0.104986 0.948418
v 26.9192 -134.621 1336.05
vn -0.0449868 0.437084 -0.898295
v 29.4384 -141.791 1322.65
vn 0.340212 -0.928742 -0.147291
v 31.6536 -146.197 1324.21
vn 0.256549 -0.691403 0.675385
v 30.0283 -142.974 1329.26
vn 0.174218 -0.564209 0.807041
v 28.5462 -137.858 1334.44
vn -0.535125 0.826946 0.172631
v 28.5885 -130.819 1334.44
vn -0.515272 0.559783 0.648952
v 28.5359 -131.427 1335.56
vn 0.199543 -0.0224716 -0.979631
v 31.7075 -143.388 1322.52
vn 0.283386 -0.24362 -0.927546
v 32.8243 -143.977 1322.87
vn 0.391771 -0.743065 -0.542559
v 33.5508 -145.202 1323.96
vn 0.287883 -0.902132 0.321373
v 33.1372 -145.558 1325.25
vn 0.408531 -0.89923 -0.156489
v 33.6693 -145.437 1324.6
vn -0.345809 0.861935 -0.370788
v 28.8447 -130.822 1333.82
vn -0.220047 0.794419 -0.566108
v 30.0067 -130.64 1333.43
vn 0.0928624 0.226757 -0.969514
v 33.6 -140.925 1322.99
vn 0.399755 -0.518956 -0.755566
v 34.2537 -144.419 1323.65
vn -0.100002 0.525876 -0.844662
v 33.2042 -137.687 1324.46
vn 0.482909 -0.777899 -0.402085
v 35.0013 -144.641 1324.41
vn 0.410413 -0.902104 0.133302
v 35.126 -144.799 1325.34
vn -0.138143 0.643534 -0.752848
v 32.5627 -135.909 1325.91
vn 0.261893 -0.799686 0.540292
v 35.0547 -144.037 1326.74
vn -0.162467 0.763012 -0.625633
v 31.9053 -133.829 1328.05
vn 0.0547592 -0.692073 0.719747
v 34.3606 -138.337 1333.19
vn -0.614596 0.673367 0.410913
v 31.4635 -129.278 1336.26
vn -0.538705 0.344724 0.768741
v 31.6213 -129.777 1336.86
vn -0.376173 0.00572372 0.926532
v 32.2128 -131.712 1337.58
vn -0.142378 -0.368818 0.918532
v 32.8046 -132.814 1337.52
vn 0.327584 -0.151067 -0.932667
v 36.1961 -142.33 1323.6
vn 0.0359259 0.428117 -0.903009
v 35.4523 -138.057 1324.18
vn 0.231513 0.184506 -0.955175
v 36.9819 -139.246 1323.93
vn 0.491184 -0.454705 -0.742954
v 38.1398 -142.292 1324.56
vn 0.508277 -0.858545 -0.0674852
v 36.4971 -144.047 1325.46
vn 0.389663 -0.852416 0.348641
v 36.523 -143.942 1326.05
vn 0.530984 -0.708622 -0.464662
v 36.9258 -143.532 1324.79
vn -0.140375 0.764843 -0.628737
v 34.8088 -132.617 1329.24
vn -0.213402 0.773388 -0.596934
v 35.2069 -131.003 1331.4
vn -0.505873 0.853971 -0.121762
v 34.931 -126.847 1336.85
vn -0.315659 0.793885 -0.519718
v 34.9404 -127.182 1335.99
vn 0.1749 0.375433 -0.910198
v 38.0974 -137.254 1324.77
vn 0.428961 -0.119025 -0.895447
v 40.1022 -140.141 1324.91
vn -0.0176558 0.626876 -0.778919
v 37.4045 -135.408 1325.85
vn 0.417608 -0.863987 0.2813
v 39.2678 -142.347 1326.57
vn 0.217362 -0.785342 0.579648
v 39.469 -141.347 1328.23
vn 0.119706 -0.788796 0.602886
v 40.3769 -138.829 1331.75
vn -0.492498 0.870306 0.00361248
v 37.4198 -125.149 1338.29
vn -0.458257 0.603096 0.652899
v 37.6394 -125.57 1339.52
vn -0.579935 0.425203 0.694894
v 37.4526 -126.008 1339.64
vn 0.994597 -0.0283702 0.0998621
v 37.8616 -125.982 1338.4
vn 0.941948 0.292016 -0.165714
v 37.9793 -126.481 1339.08
vn -0.435357 0.377796 0.81715
v 37.8139 -126.098 1339.94
vn -0.423552 0.180255 0.887756
v 38.0596 -126.91 1340.33
vn 0.562046 -0.818119 -0.121596
v 40.8979 -141.407 1326.65
vn 0.599559 -0.62393 -0.501239
v 41.0486 -140.989 1325.97
vn 0.556941 -0.376077 -0.740529
v 41.1609 -140.382 1325.61
vn -0.127982 0.753278 -0.64513
v 39.8723 -130.037 1330.72
vn -0.39404 0.849584 -0.350627
v 37.6576 -125.184 1337.37
vn -0.186119 0.803444 -0.565542
v 38.0158 -125.763 1336.23
vn 0.861149 -0.234946 0.450801
v 38.1838 -125.981 1337.47
vn -0.207165 0.95106 -0.229274
v 38.2193 -124.872 1337.6
vn -0.124143 0.879122 -0.460144
v 38.5255 -125.059 1337.01
vn -0.0369649 0.799704 -0.599255
v 38.8756 -125.408 1336.43
vn 0.670454 -0.280511 0.686881
v 38.9527 -125.609 1336.71
vn 0.763836 -0.410685 0.497888
v 38.8429 -124.988 1337.28
vn 0.842041 0.278285 0.462087
v 38.3473 -126.638 1337.26
vn 0.600918 0.634589 0.485999
v 38.7203 -127.155 1337.32
vn 0.607751 0.749293 0.263057
v 38.8876 -127.642 1338
vn 0.613733 0.282512 0.737237
v 38.8733 -126.586 1336.62
vn 0.718551 -0.168487 0.674757
v 38.6667 -125.983 1336.84
vn -0.102081 0.672598 -0.732933
v 39.5787 -125.916 1335.87
vn 0.43289 -0.0576354 0.899602
v 39.6547 -126.134 1336.09
vn -0.480562 0.806186 0.345144
v 37.7654 -125.081 1338.87
vn 0.957146 -0.285952 -0.045859
v 38.0449 -125.501 1339.23
vn -0.23627 0.690213 0.683946
v 37.9301 -125.486 1339.53
vn -0.396556 0.91798 0.00750985
v 38.2511 -124.789 1338.19
vn 0.856643 -0.451595 0.249449
v 38.3372 -125.105 1338.24
vn 0.825249 0.54847 0.134704
v 38.2552 -127.126 1338.42
vn 0.82761 0.530408 -0.183655
v 38.5817 -127.511 1339.51
vn 0.971897 0.045175 -0.23103
v 38.0633 -125.976 1339.6
vn 0.8894 0.436621 -0.13539
v 38.4371 -126.851 1340.02
vn 0.434837 0.69308 0.574941
v 38.3537 -126.82 1340.4
vn -0.339231 -0.0600708 0.938783
v 38.592 -127.667 1340.61
vn 0.735017 0.657454 -0.165845
v 38.957 -127.595 1340.42
vn 0.60262 0.797626 -0.025339
v 39.2828 -128.284 1339.59
vn -0.135237 -0.333271 0.933082
v 39.8515 -128.871 1340.77
vn 0.548969 0.835842 -0.00111972
v 40.7073 -129.026 1340.25
vn 0.546256 0.796709 0.258573
v 41.4738 -129.441 1340.27
vn 0.196561 -0.156493 0.967922
v 41.232 -129.465 1340.57
vn -0.0883878 -0.529391 0.843761
v 40.1948 -130.45 1340.03
vn 0.0197669 -0.366381 0.930255
v 41.3043 -129.77 1340.5
vn -0.0198898 0.674301 -0.738189
v 41.8831 -130.999 1329.55
vn 0.234543 -0.830554 0.505144
v 43.1003 -138.771 1331.07
vn 0.231645 -0.772363 0.591435
v 43.285 -137.834 1332.36
vn 0.384342 0.204423 0.900273
v 41.0946 -127.073 1335.56
vn -0.0115765 0.845283 -0.534193
v 41.4647 -126.219 1335.21
vn 0.618591 0.757688 0.207976
v 41.5204 -126.339 1335.49
vn -0.00501289 0.847028 -0.531524
v 42.3997 -126.24 1335.17
vn 0.00438715 0.707061 0.707139
v 40.229 -125.998 1335.95
vn 0.0160591 0.923778 -0.382592
v 40.5141 -126.039 1335.54
vn 0.573033 0.75327 0.322828
v 40.5904 -126.228 1335.84
vn 0.618591 0.757688 0.207976
v 41.2225 -126.103 1335.51
vn 0.148684 -0.718199 0.679767
v 44.2088 -133.92 1336.62
vn -0.0213961 -0.546163 0.837405
v 41.7681 -130.491 1340.12
vn 0.155624 -0.330809 0.930777
v 42.025 -130.236 1340.25
vn 0.0875808 -0.591298 0.801683
v 42.4505 -130.797 1339.9
vn 0.235389 -0.352989 0.905533
v 43.03 -130.644 1339.87
vn 0.502562 0.862107 0.0648364
v 43.7574 -130.86 1339.16
vn 0.272492 -0.57035 0.774886
v 44.0911 -131.406 1339.09
vn 0.533224 -0.248894 -0.808532
v 46.1572 -136.524 1327.76
vn 0.618184 -0.499072 -0.607269
v 46.7348 -136.896 1328.45
vn 0.344216 -0.821779 0.454086
v 45.9137 -137.269 1331.84
vn -0.00303784 0.811412 -0.584467
v 42.7315 -126.422 1334.88
vn 0.232497 0.10521 0.96689
v 42.8241 -126.643 1335.27
vn 0.275246 0.952571 0.129799
v 43.1095 -126.573 1335.19
vn 0.107153 0.938304 0.328792
v 43.3686 -126.487 1334.86
vn 0.38176 0.0767809 0.921067
v 43.4705 -126.811 1335.06
vn 0.476469 0.444362 0.75863
v 43.7287 -126.672 1334.87
vn 0.501281 0.513933 0.696125
v 44.2794 -128.826 1334.79
vn 0.425349 0.00239931 0.905026
v 44.3992 -128.219 1334.41
vn 0.527873 0.230546 0.817434
v 44.4702 -127.235 1334.57
vn 0.564591 0.621613 0.542986
v 45.0426 -127.249 1333.98
vn 0.405543 0.0417614 -0.913121
v 47.9481 -134.367 1328.48
vn 0.624077 -0.381983 -0.681629
v 48.2683 -135.488 1328.81
vn 0.653489 -0.678805 -0.334928
v 49.0993 -135.798 1330.24
vn 0.106869 0.845833 -0.522634
v 46.6885 -128.008 1332.8
vn 0.478446 0.70471 0.523902
v 47.3427 -128.136 1332.79
vn 0.571707 0.364222 0.735183
v 47.1544 -129.549 1333.02
vn 0.343166 -0.220026 0.913141
v 47.9589 -129.397 1332.55
vn 0.496311 0.699069 0.51476
v 47.1064 -128.281 1333.2
vn 0.5352 0.607538 0.586906
v 46.7161 -130.96 1334.98
vn 0.211113 0.529007 -0.821938
v 49.4513 -131.231 1330.02
vn 0.366631 0.198739 -0.908892
v 49.2836 -133.278 1329.17
vn 0.540589 -0.100489 -0.835264
v 49.7379 -133.749 1329.41
vn 0.657319 -0.262568 -0.706392
v 50.642 -133.412 1330.06
vn 0.563164 0.029246 -0.825828
v 50.7094 -132.775 1329.99
vn 0.417464 0.365458 -0.831964
v 50.5552 -131.86 1330.1
vn 0.693489 0.356377 -0.626154
v 51.1844 -131.954 1330.45
vn 0.75737 0.524878 -0.388449
v 51.0916 -131.629 1330.71
vn 0.533413 0.408566 0.740638
v 50.8884 -131.649 1330.96
vn 0.228486 0.859452 -0.457313
v 48.6812 -128.703 1332.2
vn 0.113723 0.686264 -0.718407
v 48.5631 -129.908 1330.87
vn 0.0929743 -0.532327 0.841418
v 48.8963 -129.485 1332.34
vn 0.28112 0.77585 -0.564826
v 49.3772 -129.099 1331.92
vn 0.336975 0.682693 -0.648366
v 49.8046 -129.718 1331.39
vn 0.272051 -0.390001 0.879709
v 49.8394 -129.556 1332.24
vn 0.423209 0.750043 0.508261
v 49.9445 -129.217 1332.22
vn 0.425674 0.59561 -0.681212
v 50.5787 -130.449 1331.16
vn 0.196951 -0.494621 0.846499
v 50.3191 -130.477 1331.47
vn 0.460874 -0.331085 0.823394
v 50.1909 -129.817 1331.94
vn 0.518621 0.670032 0.53112
v 50.4646 -132.279 1331.75
vn 0.410774 0.70022 0.583914
v 51.1376 -132.443 1331.44
vn 0.552567 -0.830452 0.0708528
v 50.3024 -135.067 1331.89
vn 0.448176 -0.839756 0.306511
v 50.3136 -134.908 1332.47
vn 0.433783 -0.742571 0.510315
v 50.8378 -134.257 1333.26
vn 0.617763 -0.75363 0.224524
v 51.3918 -134.217 1332.61
vn 0.738789 -0.31764 0.594387
v 51.3787 -134.063 1332.91
vn 0.712451 -0.556201 -0.427847
v 51.525 -133.903 1331.54
vn 0.706371 -0.690928 -0.153814
v 51.5992 -134.041 1331.97
vn 0.60144 0.503973 0.619904
v 51.504 -133.44 1332.64
vn 0.440197 -0.571371 0.692649
v 49.5861 -133.71 1334.75
vn 0.514699 0.730377 0.449038
v 49.7908 -133.29 1334.78
vn 0.734906 0.482978 -0.476073
v 51.3188 -131.877 1330.74
vn 0.72611 -0.12532 -0.676061
v 51.7064 -132.697 1330.84
vn 0.715885 -0.421695 -0.556491
v 51.6415 -133.307 1331.09
vn 0.458157 0.703988 0.542672
v 51.9156 -132.601 1331.12
vn 0.819103 -0.275251 -0.503296
v 51.877 -132.985 1331.18
vn 0.848561 -0.447604 -0.282125
v 52.0433 -133.405 1331.85
vn 0.609049 0.388653 0.691382
v 52.0207 -133.369 1332.15
vn 0.845937 -0.509502 0.157477
v 51.8608 -133.764 1332.22
vn 0.4051 0.745591 0.529139
v 51.974 -133.098 1331.94
vn -0.395984 -0.877119 0.27177
v 23.9283 -147.646 1325.12
vn -0.377243 -0.823556 0.423608
v 23.1705 -146.236 1327.67
vn 0.594603 0.504925 0.625697
v 37.8139 -126.098 1339.94
vn 0.964382 0.249903 -0.0866981
v 38.8756 -125.408 1336.43
vn 0.718341 0.62268 0.310252
v 38.8756 -125.408 1336.43
vn 0.964382 0.249903 -0.0866981
v 38.9527 -125.609 1336.71
vn 0.717945 0.642541 0.267762
v 38.9527 -125.609 1336.71
vn 0.964382 0.249903 -0.0866981
v 38.8429 -124.988 1337.28
vn 0.107205 0.951099 -0.289685
v 38.8429 -124.988 1337.28
vn 0.829666 0.292775 0.475328
v 38.8429 -124.988 1337.28
vn 0.717157 0.601449 0.352059
v 39.5787 -125.916 1335.87
vn 0.081098 0.987087 -0.138137
v 39.5787 -125.916 1335.87
vn 0.00438715 0.707061 0.707139
v 39.5787 -125.916 1335.87
vn 0.718341 0.62268 0.310252
v 39.6547 -126.134 1336.09
vn 0.00438715 0.707061 0.707139
v 39.6547 -126.134 1336.09
vn 0.553977 0.720433 0.417237
v 37.7654 -125.081 1338.87
vn 0.697094 0.595516 0.399275
v 38.0449 -125.501 1339.23
vn 0.878805 0.292253 0.377213
v 38.0449 -125.501 1339.23
vn 0.803945 0.429196 0.411659
v 37.9301 -125.486 1339.53
vn 0.855524 0.292955 0.426914
v 38.2511 -124.789 1338.19
vn 0.365757 0.730271 0.576998
v 38.2511 -124.789 1338.19
vn 0.109427 0.983545 -0.143754
v 38.2511 -124.789 1338.19
vn 0.855524 0.292955 0.426914
v 38.3372 -125.105 1338.24
vn 0.717886 0.443588 0.536534
v 38.0633 -125.976 1339.6
vn 0.878316 0.45132 0.157707
v 38.0633 -125.976 1339.6
vn -0.298254 0.245396 0.922402
v 38.3537 -126.82 1340.4
vn 0.833825 0.533668 0.141188
v 38.3537 -126.82 1340.4
vn 0.392006 0.32321 0.861317
v 38.3537 -126.82 1340.4
vn 0.36776 0.394554 0.842069
v 38.592 -127.667 1340.61
vn 0.349379 0.412831 0.841133
v 38.957 -127.595 1340.42
vn 0.326718 0.456064 0.827805
v 39.8515 -128.871 1340.77
vn 0.571069 0.750437 0.332753
v 41.232 -129.465 1340.57
vn 0.312026 0.448447 0.837577
v 41.232 -129.465 1340.57
vn 0.618591 0.757688 0.207976
v 41.4647 -126.219 1335.21
vn 0.0395029 0.917144 0.396594
v 41.4647 -126.219 1335.21
vn 0.292084 0.191683 0.936987
v 41.5204 -126.339 1335.49
vn 0.0395029 0.917144 0.396594
v 41.5204 -126.339 1335.49
vn 0.0395029 0.917144 0.396594
v 42.3997 -126.24 1335.17
vn 0.209415 0.439031 0.873726
v 42.3997 -126.24 1335.17
vn 0.424608 0.902009 -0.0780274
v 42.3997 -126.24 1335.17
vn 0.573033 0.75327 0.322828
v 40.229 -125.998 1335.95
vn 0.247506 -0.0496399 0.967614
v 40.229 -125.998 1335.95
vn 0.126124 0.991931 -0.01286
v 40.229 -125.998 1335.95
vn 0.573033 0.75327 0.322828
v 40.5141 -126.039 1335.54
vn 0.0950561 0.856902 0.50664
v 40.5141 -126.039 1335.54
vn 0.306083 0.0077686 0.951973
v 40.5904 -126.228 1335.84
vn 0.0950561 0.856902 0.50664
v 40.5904 -126.228 1335.84
vn 0.369802 0.375378 0.849905
v 41.2225 -126.103 1335.51
vn 0.0738753 0.948244 -0.30883
v 41.2225 -126.103 1335.51
vn 0.0950561 0.856902 0.50664
v 41.2225 -126.103 1335.51
vn 0.64835 0.541642 0.535039
v 43.03 -130.644 1339.87
vn 0.665976 0.44536 0.598441
v 43.7574 -130.86 1339.16
vn 0.671837 0.32849 0.663874
v 44.0911 -131.406 1339.09
vn 0.275246 0.952571 0.129799
v 42.7315 -126.422 1334.88
vn 0.240596 0.171105 0.955425
v 43.1095 -126.573 1335.19
vn 0.580458 0.551204 0.599368
v 43.1095 -126.573 1335.19
vn 0.430879 0.567211 0.701865
v 43.3686 -126.487 1334.86
vn 0.428771 0.902775 0.0339602
v 43.3686 -126.487 1334.86
vn 0.069685 0.852695 -0.517741
v 43.3686 -126.487 1334.86
vn 0.453125 0.886408 0.0946458
v 43.7287 -126.672 1334.87
vn 0.351883 0.931047 -0.096597
v 45.0426 -127.249 1333.98
vn 0.242449 0.92522 -0.291869
v 47.3427 -128.136 1332.79
vn 0.254787 -0.34392 0.903771
v 47.1064 -128.281 1333.2
vn 0.318927 -0.0268717 0.947398
v 47.1064 -128.281 1333.2
vn 0.594879 0.602562 0.532013
v 51.0916 -131.629 1330.71
vn 0.761569 0.0898662 0.641822
v 51.0916 -131.629 1330.71
vn 0.767952 0.100179 0.632625
v 50.8884 -131.649 1330.96
vn 0.427781 0.829096 -0.360005
v 49.9445 -129.217 1332.22
vn 0.461693 -0.0759913 0.883779
v 49.9445 -129.217 1332.22
vn 0.931374 0.27117 0.242917
v 49.9445 -129.217 1332.22
vn 0.761321 -0.108523 0.639229
v 50.5787 -130.449 1331.16
vn 0.931374 0.27117 0.242917
v 50.5787 -130.449 1331.16
vn 0.827425 0.474662 -0.300105
v 50.5787 -130.449 1331.16
vn 0.76731 -0.0383089 0.640131
v 50.3191 -130.477 1331.47
vn 0.931374 0.27117 0.242917
v 50.1909 -129.817 1331.94
vn 0.740574 -0.292721 0.604868
v 50.1909 -129.817 1331.94
vn 0.636773 0.301421 0.709694
v 49.7908 -133.29 1334.78
vn 0.662204 -0.187305 0.725537
v 49.7908 -133.29 1334.78
vn 0.591206 0.653303 0.472938
v 51.3188 -131.877 1330.74
vn 0.85371 0.0704097 -0.515966
v 51.9156 -132.601 1331.12
vn 0.977281 0.20474 0.0548113
v 51.9156 -132.601 1331.12
vn 0.977266 0.205597 0.05178
v 52.0433 -133.405 1331.85
vn 0.977241 0.206453 0.0487481
v 52.0207 -133.369 1332.15
vn 0.901659 -0.313108 0.298286
v 52.0207 -133.369 1332.15
vn 0.977266 0.205597 0.05178
v 51.974 -133.098 1331.94
f 2//2 13//13 1//1
f 2//2 7//7 13//13
f 3//3 2//2 1//1
f 1//1 43//43 3//3
f 3//3 4//4 2//2
f 2//2 4//4 7//7
f 6//6 8//8 4//4
f 4//4 8//8 7//7
f 4//4 3//3 6//6
f 6//6 5//5 8//8
f 12//12 1//1 11//11
f 14//14 15//15 16//16
f 13//13 7//7 14//14
f 1//1 13//13 11//11
f 14//14 7//7 15//15
f 8//8 15//15 7//7
f 250//250 9//9 251//251
f 10//10 251//251 9//9
f 5//5 9//9 250//250
f 49//49 10//10 9//9
f 49//49 79//79 10//10
f 49//49 9//9 5//5
f 11//11 13//13 24//24
f 13//13 16//16 24//24
f 13//13 14//14 16//16
f 15//15 17//17 16//16
f 18//18 17//17 251//251
f 10//10 18//18 251//251
f 58//58 52//52 21//21
f 12//12 11//11 21//21
f 21//21 52//52 12//12
f 11//11 24//24 20//20
f 21//21 11//11 20//20
f 24//24 16//16 25//25
f 25//25 23//23 24//24
f 17//17 25//25 16//16
f 18//18 19//19 17//17
f 79//79 18//18 10//10
f 79//79 84//84 18//18
f 18//18 84//84 19//19
f 84//84 27//27 19//19
f 22//22 58//58 21//21
f 22//22 59//59 58//58
f 21//21 20//20 22//22
f 20//20 28//28 22//22
f 24//24 23//23 20//20
f 17//17 19//19 26//26
f 25//25 17//17 26//26
f 25//25 30//30 23//23
f 26//26 30//30 25//25
f 27//27 26//26 19//19
f 27//27 36//36 26//26
f 64//64 63//63 28//28
f 20//20 23//23 31//31
f 31//31 33//33 29//29
f 20//20 31//31 28//28
f 28//28 31//31 29//29
f 29//29 64//64 28//28
f 69//69 29//29 33//33
f 69//69 64//64 29//29
f 30//30 31//31 23//23
f 31//31 30//30 33//33
f 30//30 36//36 32//32
f 33//33 30//30 32//32
f 32//32 36//36 34//34
f 33//33 32//32 35//35
f 35//35 32//32 34//34
f 33//33 35//35 69//69
f 30//30 26//26 36//36
f 85//85 34//34 36//36
f 43//43 37//37 3//3
f 40//40 3//3 37//37
f 37//37 42//42 40//40
f 37//37 43//43 38//38
f 38//38 39//39 37//37
f 39//39 42//42 37//37
f 40//40 6//6 3//3
f 41//41 6//6 40//40
f 41//41 40//40 42//42
f 42//42 73//73 41//41
f 77//77 41//41 73//73
f 44//44 43//43 1//1
f 43//43 44//44 45//45
f 46//46 43//43 45//45
f 46//46 38//38 43//43
f 45//45 47//47 46//46
f 38//38 46//46 76//76
f 38//38 76//76 75//75
f 46//46 47//47 76//76
f 48//48 5//5 6//6
f 41//41 48//48 6//6
f 41//41 77//77 48//48
f 83//83 91//91 48//48
f 44//44 1//1 12//12
f 51//51 44//44 12//12
f 45//45 44//44 51//51
f 45//45 51//51 50//50
f 47//47 45//45 50//50
f 48//48 49//49 5//5
f 91//91 49//49 48//48
f 49//49 91//91 79//79
f 51//51 12//12 53//53
f 50//50 51//51 53//53
f 47//47 50//50 55//55
f 53//53 12//12 52//52
f 54//54 53//53 52//52
f 50//50 53//53 55//55
f 55//55 53//53 54//54
f 55//55 54//54 56//56
f 56//56 54//54 57//57
f 61//61 60//60 58//58
f 59//59 61//61 58//58
f 22//22 63//63 59//59
f 60//60 52//52 58//58
f 59//59 65//65 61//61
f 63//63 65//65 59//59
f 52//52 60//60 54//54
f 62//62 54//54 60//60
f 60//60 61//61 62//62
f 68//68 62//62 61//61
f 65//65 68//68 61//61
f 57//57 54//54 62//62
f 93//93 57//57 62//62
f 93//93 62//62 68//68
f 22//22 28//28 63//63
f 64//64 66//66 63//63
f 66//66 65//65 63//63
f 68//68 65//65 66//66
f 66//66 64//64 67//67
f 64//64 70//70 67//67
f 67//67 68//68 66//66
f 87//87 67//67 70//70
f 68//68 67//67 86//86
f 81//81 87//87 70//70
f 64//64 69//69 70//70
f 70//70 69//69 81//81
f 81//81 69//69 80//80
f 35//35 34//34 80//80
f 80//80 69//69 35//35
f 34//34 85//85 80//80
f 27//27 85//85 36//36
f 75//75 71//71 38//38
f 38//38 71//71 39//39
f 71//71 72//72 39//39
f 39//39 72//72 42//42
f 72//72 74//74 42//42
f 74//74 73//73 42//42
f 78//78 47//47 55//55
f 47//47 78//78 76//76
f 82//82 76//76 78//78
f 82//82 75//75 76//76
f 77//77 83//83 48//48
f 100//100 97//97 55//55
f 102//102 55//55 56//56
f 57//57 102//102 56//56
f 102//102 57//57 93//93
f 84//84 85//85 27//27
f 87//87 86//86 67//67
f 80//80 85//85 107//107
f 80//80 107//107 81//81
f 78//78 97//97 82//82
f 75//75 95//95 71//71
f 95//95 88//88 71//71
f 88//88 72//72 71//71
f 74//74 96//96 73//73
f 77//77 73//73 90//90
f 90//90 83//83 77//77
f 97//97 78//78 55//55
f 103//103 85//85 84//84
f 86//86 93//93 68//68
f 107//107 85//85 103//103
f 82//82 95//95 75//75
f 72//72 89//89 74//74
f 89//89 96//96 74//74
f 89//89 72//72 88//88
f 90//90 92//92 83//83
f 92//92 91//91 83//83
f 90//90 73//73 96//96
f 98//98 90//90 96//96
f 92//92 90//90 98//98
f 101//101 79//79 91//91
f 99//99 101//101 91//91
f 92//92 99//99 91//91
f 84//84 79//79 123//123
f 103//103 84//84 123//123
f 94//94 102//102 93//93
f 104//104 86//86 87//87
f 105//105 104//104 87//87
f 87//87 81//81 105//105
f 106//106 105//105 81//81
f 88//88 108//108 89//89
f 89//89 108//108 96//96
f 97//97 95//95 82//82
f 97//97 109//109 95//95
f 97//97 121//121 109//109
f 95//95 109//109 110//110
f 92//92 98//98 99//99
f 112//112 99//99 98//98
f 113//113 101//101 99//99
f 112//112 113//113 99//99
f 101//101 113//113 123//123
f 122//122 123//123 113//113
f 97//97 100//100 121//121
f 79//79 101//101 123//123
f 100//100 55//55 102//102
f 121//121 102//102 115//115
f 103//103 123//123 124//124
f 116//116 94//94 118//118
f 117//117 93//93 86//86
f 117//117 118//118 93//93
f 86//86 104//104 117//117
f 94//94 93//93 118//118
f 106//106 81//81 107//107
f 95//95 108//108 88//88
f 108//108 111//111 96//96
f 121//121 119//119 109//109
f 110//110 109//109 119//119
f 110//110 108//108 95//95
f 98//98 96//96 114//114
f 98//98 114//114 112//112
f 122//122 112//112 132//132
f 112//112 122//122 113//113
f 114//114 132//132 112//112
f 96//96 111//111 114//114
f 121//121 100//100 102//102
f 115//115 102//102 94//94
f 94//94 116//116 115//115
f 124//124 181//181 103//103
f 107//107 103//103 168//168
f 119//119 201//201 110//110
f 120//120 108//108 110//110
f 111//111 108//108 120//120
f 114//114 111//111 133//133
f 133//133 132//132 114//114
f 120//120 134//134 111//111
f 170//170 210//210 121//121
f 121//121 210//210 119//119
f 122//122 171//171 123//123
f 170//170 121//121 115//115
f 135//135 115//115 116//116
f 170//170 115//115 135//135
f 116//116 118//118 135//135
f 104//104 125//125 117//117
f 118//118 117//117 136//136
f 136//136 125//125 139//139
f 136//136 117//117 125//125
f 104//104 151//151 125//125
f 126//126 151//151 104//104
f 126//126 127//127 130//130
f 126//126 104//104 127//127
f 152//152 128//128 155//155
f 153//153 151//151 126//126
f 128//128 158//158 129//129
f 153//153 126//126 130//130
f 268//268 252//252 273//273
f 127//127 104//104 105//105
f 105//105 106//106 131//131
f 130//130 105//105 131//131
f 130//130 127//127 105//105
f 131//131 106//106 161//161
f 156//156 129//129 157//157
f 160//160 273//273 252//252
f 131//131 275//275 130//130
f 275//275 131//131 161//161
f 107//107 168//168 164//164
f 161//161 106//106 107//107
f 120//120 188//188 134//134
f 120//120 110//110 201//201
f 134//134 133//133 111//111
f 134//134 189//189 133//133
f 134//134 188//188 189//189
f 171//171 124//124 123//123
f 172//172 124//124 171//171
f 135//135 118//118 137//137
f 124//124 172//172 181//181
f 135//135 137//137 178//178
f 181//181 184//184 103//103
f 137//137 118//118 136//136
f 137//137 136//136 140//140
f 140//140 136//136 139//139
f 155//155 128//128 138//138
f 148//148 143//143 138//138
f 138//138 143//143 155//155
f 137//137 140//140 141//141
f 142//142 143//143 148//148
f 148//148 150//150 142//142
f 253//253 257//257 255//255
f 140//140 139//139 258//258
f 256//256 263//263 254//254
f 140//140 258//258 141//141
f 141//141 149//149 137//137
f 254//254 263//263 260//260
f 138//138 128//128 144//144
f 128//128 156//156 144//144
f 129//129 156//156 128//128
f 148//148 144//144 147//147
f 144//144 148//148 138//138
f 156//156 145//145 144//144
f 156//156 146//146 145//145
f 145//145 146//146 240//240
f 150//150 148//148 147//147
f 147//147 144//144 145//145
f 173//173 147//147 145//145
f 173//173 145//145 240//240
f 147//147 173//173 150//150
f 261//261 178//178 137//137
f 177//177 262//262 264//264
f 179//179 293//293 290//290
f 150//150 295//295 291//291
f 150//150 173//173 295//295
f 146//146 163//163 240//240
f 268//268 266//266 265//265
f 158//158 128//128 152//152
f 273//273 266//266 268//268
f 139//139 125//125 154//154
f 151//151 154//154 125//125
f 269//269 267//267 272//272
f 266//266 270//270 265//265
f 258//258 139//139 271//271
f 259//259 269//269 272//272
f 156//156 157//157 163//163
f 156//156 163//163 146//146
f 129//129 158//158 159//159
f 129//129 159//159 157//157
f 163//163 157//157 162//162
f 274//274 276//276 159//159
f 159//159 276//276 162//162
f 159//159 162//162 157//157
f 278//278 279//279 277//277
f 279//279 278//278 280//280
f 161//161 107//107 164//164
f 168//168 169//169 164//164
f 240//240 163//163 186//186
f 168//168 182//182 169//169
f 164//164 169//169 167//167
f 162//162 165//165 163//163
f 165//165 162//162 281//281
f 282//282 279//279 280//280
f 186//186 163//163 166//166
f 165//165 166//166 163//163
f 281//281 166//166 165//165
f 168//168 103//103 182//182
f 169//169 182//182 183//183
f 169//169 183//183 167//167
f 231//231 122//122 132//132
f 204//204 170//170 135//135
f 190//190 171//171 122//122
f 190//190 172//172 171//171
f 174//174 135//135 178//178
f 175//175 283//283 180//180
f 285//285 297//297 295//295
f 178//178 298//298 174//174
f 295//295 173//173 285//285
f 191//191 135//135 174//174
f 191//191 174//174 176//176
f 287//287 284//284 286//286
f 173//173 195//195 192//192
f 285//285 173//173 192//192
f 288//288 285//285 192//192
f 197//197 198//198 173//173
f 197//197 173//173 209//209
f 178//178 261//261 292//292
f 299//299 294//294 296//296
f 173//173 240//240 209//209
f 187//187 185//185 184//184
f 181//181 187//187 184//184
f 184//184 182//182 103//103
f 182//182 184//184 183//183
f 166//166 281//281 300//300
f 183//183 184//184 185//185
f 185//185 167//167 183//183
f 301//301 166//166 300//300
f 326//326 301//301 302//302
f 301//301 300//300 302//302
f 189//189 203//203 133//133
f 132//132 133//133 203//203
f 204//204 135//135 191//191
f 289//289 193//193 303//303
f 193//193 194//194 303//303
f 198//198 195//195 173//173
f 304//304 288//288 192//192
f 304//304 192//192 195//195
f 305//305 195//195 306//306
f 199//199 195//195 198//198
f 196//196 306//306 195//195
f 196//196 195//195 199//199
f 200//200 196//196 199//199
f 309//309 310//310 307//307
f 197//197 209//209 206//206
f 204//204 191//191 308//308
f 206//206 198//198 197//197
f 201//201 119//119 211//211
f 201//201 211//211 212//212
f 202//202 189//189 188//188
f 202//202 203//203 189//189
f 188//188 120//120 201//201
f 201//201 202//202 188//188
f 212//212 202//202 201//201
f 210//210 211//211 119//119
f 231//231 232//232 122//122
f 231//231 132//132 203//203
f 190//190 122//122 232//232
f 231//231 203//203 237//237
f 310//310 204//204 307//307
f 208//208 205//205 200//200
f 310//310 311//311 204//204
f 312//312 198//198 207//207
f 219//219 220//220 204//204
f 311//311 219//219 204//204
f 205//205 208//208 225//225
f 206//206 207//207 198//198
f 220//220 170//170 204//204
f 172//172 239//239 181//181
f 200//200 199//199 208//208
f 312//312 199//199 198//198
f 239//239 327//327 187//187
f 239//239 187//187 181//181
f 233//233 239//239 172//172
f 210//210 226//226 215//215
f 226//226 216//216 215//215
f 214//214 212//212 211//211
f 213//213 212//212 214//214
f 210//210 215//215 211//211
f 215//215 214//214 211//211
f 216//216 214//214 215//215
f 242//242 213//213 214//214
f 241//241 216//216 217//217
f 242//242 243//243 213//213
f 314//314 218//218 328//328
f 244//244 328//328 218//218
f 202//202 212//212 213//213
f 203//203 236//236 237//237
f 202//202 236//236 203//203
f 243//243 202//202 213//213
f 219//219 311//311 317//317
f 220//220 210//210 170//170
f 221//221 207//207 227//227
f 227//227 207//207 218//218
f 207//207 206//206 218//218
f 207//207 221//221 312//312
f 220//220 223//223 210//210
f 222//222 220//220 219//219
f 220//220 222//222 223//223
f 323//323 316//316 315//315
f 219//219 317//317 222//222
f 227//227 224//224 221//221
f 312//312 221//221 224//224
f 227//227 228//228 224//224
f 318//318 313//313 224//224
f 210//210 223//223 226//226
f 317//317 223//223 222//222
f 317//317 226//226 223//223
f 320//320 323//323 315//315
f 319//319 324//324 321//321
f 320//320 325//325 323//323
f 318//318 224//224 228//228
f 216//216 322//322 217//217
f 206//206 229//229 218//218
f 229//229 206//206 209//209
f 218//218 229//229 230//230
f 229//229 209//209 240//240
f 249//249 230//230 229//229
f 249//249 229//229 238//238
f 238//238 229//229 240//240
f 244//244 218//218 230//230
f 230//230 249//249 244//244
f 172//172 190//190 233//233
f 232//232 233//233 190//190
f 234//234 232//232 231//231
f 235//235 233//233 234//234
f 234//234 233//233 232//232
f 237//237 234//234 231//231
f 235//235 238//238 327//327
f 243//243 236//236 202//202
f 237//237 236//236 246//246
f 237//237 246//246 248//248
f 237//237 248//248 234//234
f 247//247 249//249 238//238
f 248//248 235//235 234//234
f 235//235 247//247 238//238
f 239//239 233//233 235//235
f 235//235 327//327 239//239
f 242//242 214//214 216//216
f 329//329 242//242 216//216
f 216//216 241//241 329//329
f 245//245 243//243 242//242
f 245//245 242//242 329//329
f 245//245 246//246 243//243
f 246//246 245//245 329//329
f 330//330 334//334 331//331
f 246//246 236//236 243//243
f 334//334 332//332 331//331
f 246//246 333//333 248//248
f 333//333 235//235 248//248
