# Wavafront OBJ file of BodyParts3D
# BodyParts3D, Copyright(C) 2010-2011 The Database Center for Life Science licensed under CC Attribution-Share Alike 2.1 Japan.
vn -0.854874 -0.0506131 -0.51636
v -124.067 -134.526 2.81411
vn -0.566555 0.0521133 -0.822375
v -123.678 -134.785 2.34325
vn -0.82333 -0.181437 -0.537781
v -123.598 -135.411 2.39497
vn -0.842676 -0.211986 -0.494934
v -124.103 -134.933 3.04889
vn -0.591985 0.361552 -0.720301
v -124.26 -134.909 3.19038
vn -0.340798 0.491509 0.801421
v -124.089 -134.936 3.05651
vn -0.333695 -0.897569 0.288128
v -124.177 -134.926 3.23566
vn -0.0481838 -0.991819 0.118209
v -124.702 -134.267 4.729
vn -0.64628 -0.533816 -0.545309
v -124.776 -134.376 4.92373
vn 0.604165 -0.761357 0.235201
v -124.542 -134.291 4.58881
vn -0.889902 -0.125039 -0.438679
v -124.766 -133.84 4.43995
vn -0.797066 0.199151 -0.570109
v -124.266 -131.283 4.31224
vn -0.971471 0.0663991 0.227675
v -124.408 -131.086 5.35857
vn -0.966317 0.0756748 -0.245975
v -124.456 -130.255 5.05197
vn -0.892328 0.180139 -0.413884
v -124.423 -128.035 5.3783
vn -0.997772 0.0468763 0.0474781
v -124.409 -128.046 5.6827
vn -0.670513 -0.167462 0.722751
v -124.124 -128.509 5.84033
vn -0.741241 -0.136825 0.657146
v -124.006 -126.513 6.34356
vn -0.742029 0.225997 -0.631124
v -123.875 -124.897 5.91965
vn -0.940403 0.1719 -0.293416
v -124.22 -126.059 6.05118
vn -0.71391 0.214753 -0.666494
v -123.725 -123.107 6.33636
vn -0.511405 0.266468 -0.816982
v -122.06 -119.522 5.62787
vn 0.372845 -0.255726 -0.891959
v -122.108 -134.652 2.05624
vn -0.180181 -0.126064 -0.975522
v -122.683 -134.749 1.97763
vn 0.360065 -0.922803 -0.137068
v -122.646 -134.761 2.1549
vn 0.199278 -0.0529809 -0.97851
v -122.063 -133.84 1.84236
vn 0.672067 -0.161169 -0.722738
v -121.535 -133.742 2.18127
vn -0.476484 0.164714 -0.863616
v -122.947 -134.297 2.02552
vn 0.134332 -0.41109 0.901643
v -121.771 -133.11 2.8407
vn 0.117329 -0.481081 0.86879
v -121.494 -133.704 2.54306
vn 0.596826 -0.568561 0.56616
v -123.471 -133.835 3.31389
vn 0.595931 -0.0223311 -0.802725
v -121.354 -132.759 2.20301
vn 0.376887 -0.410473 0.830342
v -122.101 -132.453 3.25683
vn -0.291024 -0.147577 0.945265
v -123.642 -130.643 6.30766
vn -0.0455872 0.17925 -0.982747
v -121.402 -129.508 2.545
vn 0.277553 0.140104 -0.95044
v -120.834 -128.6 2.74745
vn -0.395182 -0.161567 0.904283
v -123.269 -128.892 6.6791
vn 0.773758 -0.395143 0.495137
v -122.395 -128.827 6.05732
vn -0.959522 0.0413768 0.278577
v -123.938 -129.173 6.5324
vn -0.193437 -0.128327 0.972684
v -123.379 -126.439 6.91457
vn -0.691156 -0.156252 0.705612
v -123.755 -125.765 6.99969
vn -0.315077 -0.291915 0.903057
v -123.56 -125.801 7.05285
vn -0.132949 0.227638 -0.964627
v -121.08 -124.316 3.73906
vn -0.886865 -0.0831723 0.45448
v -123.146 -123.867 7.83858
vn -0.374038 -0.122058 0.919346
v -122.604 -123.368 8.2941
vn -0.636912 0.0144943 0.7708
v -122.998 -121.861 7.86469
vn -0.50178 -0.065268 0.862529
v -122.83 -122.309 8.24256
vn -0.861923 0.115599 0.493687
v -123.054 -121.037 7.84103
vn -0.866742 0.286632 -0.408168
v -122.199 -119.712 6.02
vn -0.776334 0.293698 -0.557716
v -122.334 -118.892 6.57552
vn -0.938498 0.322825 0.1225
v -122.457 -118.495 7.619
vn -0.459824 0.0125944 0.887921
v -122.363 -118.934 8.15176
vn -0.208133 0.219006 -0.953266
v -119.753 -117.484 5.19168
vn -0.893904 0.387646 -0.225092
v -120.997 -115.277 6.82473
vn -0.920782 0.367112 0.131866
v -120.977 -114.921 8.35388
vn 0.698655 -0.715448 -0.00375911
v -121.195 -133.412 2.68363
vn 0.10894 -0.324767 0.939499
v -120.534 -129.146 4.11903
vn 0.279838 -0.407306 0.869363
v -120.194 -129.162 4.07452
vn 0.517831 -0.490902 0.700619
v -119.921 -129.005 3.98277
vn 0.0667606 -0.333305 0.940453
v -119.811 -128.646 4.24491
vn 0.662454 -0.413044 0.62494
v -122.631 -128.204 7.02807
vn 0.83771 -0.0901746 -0.538619
v -119.638 -127.013 3.66824
vn 0.278372 0.149704 -0.948735
v -119.889 -124.531 3.75144
vn 0.531573 -0.343948 0.774035
v -120.02 -123.569 6.29888
vn 0.757149 -0.366337 0.540854
v -121.085 -123.239 8.43392
vn 0.0929214 -0.248533 0.964156
v -121.087 -122.437 8.81681
vn 0.27737 0.11543 -0.953804
v -119.023 -121.86 4.39685
vn -0.20903 -0.045946 0.976829
v -121.737 -118.432 8.90689
vn -0.397297 0.0250696 0.917347
v -121.158 -117.551 9.01072
vn -0.41605 0.0286695 0.908889
v -120.996 -118.401 9.25546
vn -0.421553 0.095094 0.901804
v -120.563 -114.427 9.04418
vn -0.386561 0.211821 -0.897609
v -118.541 -113.049 5.94572
vn -0.160646 0.109946 -0.980869
v -117.764 -112.978 5.70989
vn -0.139576 0.0884395 -0.986254
v -117.699 -113.803 5.71819
vn -0.878853 0.424627 -0.217505
v -119.475 -111.726 8.08566
vn -0.758696 0.415869 0.501432
v -118.966 -111.449 9.30883
vn -0.865277 0.442802 0.234993
v -118.601 -109.711 8.4194
vn -0.361137 0.282349 -0.88874
v -116.611 -108.329 6.43901
vn -0.882787 0.422743 -0.204879
v -118.078 -109.318 7.53757
vn -0.72214 0.434461 -0.538292
v -117.827 -108.939 6.96537
vn -0.855606 0.485838 -0.178606
v -117.675 -108.182 7.90517
vn 0.457412 -0.353985 0.815763
v -118.691 -123.788 5.65957
vn 0.938021 -0.188928 -0.290556
v -118.508 -123.613 5.51873
vn 0.58638 -0.311699 0.747665
v -120.402 -120.739 9.08862
vn 0.784968 -0.117871 -0.60822
v -117.792 -119.461 5.12329
vn 0.849462 -0.19686 -0.489551
v -117.455 -120.308 6.31811
vn 0.844955 -0.23314 -0.481349
v -117.291 -118.97 6.0752
vn -0.0792845 -0.098117 0.992012
v -119.682 -117.633 9.66498
vn 0.85415 -0.22841 -0.467179
v -116.946 -117.19 5.66034
vn 0.50264 -0.0605499 -0.862373
v -116.739 -116.21 5.63528
vn 0.771041 -0.246711 -0.587052
v -116.601 -117.27 6.2713
vn -0.431017 0.0712219 0.899529
v -119.861 -116.58 9.52534
vn 0.724646 -0.307914 0.616504
v -116.866 -114.628 7.84974
vn -0.395958 0.0965222 0.913182
v -119.451 -114.418 9.5528
vn 0.400868 -0.200149 0.894005
v -118.862 -115.752 9.81046
vn 0.788249 -0.303727 0.535176
v -118.608 -115.387 9.69493
vn 0.626209 -0.229157 0.745218
v -118.767 -115.363 9.83575
vn 0.188137 -0.0446395 -0.981128
v -116.427 -113.42 5.6441
vn -0.559599 0.148078 0.815427
v -119.074 -113.472 9.62494
vn -0.495516 0.200633 0.845109
v -118.828 -113.113 9.72864
vn 0.774139 -0.319752 0.546321
v -117.629 -113.318 9.4006
vn -0.291336 0.0596712 0.954758
v -118.913 -114.12 9.94451
vn -0.317615 0.16781 0.933253
v -117.782 -111.884 9.94748
vn -0.0649371 0.162361 -0.984592
v -115.22 -108.365 6.09912
vn -0.438788 0.252824 0.86229
v -116.876 -108.376 9.55169
vn -0.788801 0.493539 0.366349
v -116.977 -107.189 8.89341
vn -0.368525 0.376215 -0.850089
v -115.377 -106.227 6.73234
vn 0.406567 -0.307134 0.860449
v -116.273 -116.142 7.34562
vn 0.875237 -0.479788 -0.0613497
v -115.058 -114.127 7.41873
vn 0.412798 -0.324924 0.850895
v -115.13 -113.916 7.59379
vn 0.522541 -0.249597 -0.815262
v -114.187 -112.427 6.55714
vn 0.368082 -0.257668 -0.893377
v -113.828 -111.265 6.31785
vn 0.727236 -0.215164 0.651792
v -117.128 -110.986 9.96961
vn 0.625812 -0.126977 0.769569
v -116.685 -110.041 9.69003
vn 0.77225 -0.222641 0.59503
v -115.838 -109.154 8.94829
vn -0.243692 0.181854 0.952651
v -116.695 -109.228 9.76064
vn -0.221357 0.211669 -0.951944
v -114.466 -107.813 6.18674
vn -0.0454218 0.147851 -0.987966
v -114.164 -108.346 5.92833
vn -0.293351 0.321653 -0.900269
v -114.14 -107.543 6.1105
vn -0.0995688 0.225741 -0.969086
v -114.15 -106.939 6.34598
vn -0.0893938 0.166922 0.981909
v -116.069 -107.914 9.65215
vn -0.29012 0.194067 -0.937106
v -113.816 -106.389 6.35657
vn 0.00129031 0.194224 -0.980956
v -113.772 -105.945 6.43467
vn -0.157613 0.370041 -0.915548
v -113.659 -106.421 6.48131
vn 0.308118 -0.0540671 -0.949811
v -113.615 -106.225 6.47079
vn -0.461175 0.402722 0.790653
v -115.816 -105.917 9.34233
vn 0.779714 -0.192864 0.595693
v -114.444 -103.912 8.82118
vn -0.293389 0.388266 -0.873597
v -113.009 -103.108 7.32831
vn -0.747117 0.642709 -0.169533
v -113.158 -101.782 8.07895
vn 0.241344 -0.251504 0.937283
v -114.319 -112.642 7.716
vn 0.67512 -0.641637 -0.364027
v -113.051 -111.01 6.69615
vn 0.485992 -0.417554 -0.767764
v -112.568 -110.352 6.45634
vn -0.107325 -0.095705 0.989607
v -113.828 -111.718 7.84816
vn 0.746797 -0.663795 -0.0408705
v -113.321 -111.399 7.71273
vn -0.192945 -0.0811865 0.977845
v -112.991 -110.656 8.06715
vn 0.36645 -0.138458 -0.920078
v -112.224 -109.728 6.47331
vn 0.689953 -0.547976 -0.472956
v -111.961 -109.987 6.75616
vn 0.70872 -0.691284 -0.140866
v -111.969 -110.007 7.43458
vn 0.0271706 -0.181979 0.982927
v -113.026 -109.027 8.19539
vn 0.286137 0.0254299 -0.957851
v -112.164 -108.315 6.44838
vn 0.332039 -0.00475745 -0.943254
v -112.301 -106.463 6.51995
vn 0.322989 0.00396904 -0.946394
v -111.877 -106.138 6.70709
vn 0.37395 -0.0749804 -0.924413
v -111.839 -105.942 6.70758
vn 0.0671586 0.0149382 -0.99763
v -112.126 -105.479 6.5527
vn 0.282588 0.0287311 -0.958811
v -111.162 -105.517 6.89025
vn 0.170034 0.180682 -0.968732
v -110.528 -102.936 7.08228
vn 0.288877 -0.0469034 0.956217
v -111.639 -100.328 8.11269
vn -0.175376 0.351822 -0.919492
v -111.296 -100.185 8.05906
vn -0.610504 0.782496 -0.122411
v -111.328 -100.177 8.26881
vn -0.785635 0.6023 -0.141467
v -111.042 -99.8276 8.17107
vn -0.00376177 0.29082 -0.95677
v -110.764 -99.8753 8.09546
vn 0.100864 0.965914 -0.238402
v -110.81 -99.8214 8.29479
vn -0.286701 0.510828 0.810467
v -110.837 -99.8693 8.32767
vn -0.175016 0.321624 0.930552
v -110.64 -99.9062 8.37807
vn 0.614841 -0.721729 -0.317928
v -110.409 -108.684 8.17946
vn 0.544914 -0.837019 -0.0496781
v -110.52 -108.777 8.35357
vn 0.650625 -0.559386 -0.51359
v -110.317 -108.494 8.08335
vn 0.285185 0.0933981 -0.953911
v -110.062 -106.275 7.14471
vn 0.445344 0.00771155 -0.895326
v -109.971 -102.842 7.36613
vn 0.430013 0.141213 -0.89171
v -108.917 -101.828 7.91844
vn -0.0807327 0.611824 0.786863
v -110.21 -99.5464 8.14248
vn -0.498713 0.101476 0.860806
v -109.104 -98.3614 8.66024
vn 0.176915 0.98377 0.0299711
v -108.789 -98.4255 8.90889
vn 0.631948 -0.717022 -0.294146
v -110.213 -108.598 8.2787
vn 0.501429 -0.779737 0.37494
v -110.118 -108.534 8.55196
vn 0.699244 -0.569472 -0.432156
v -109.68 -108.007 8.36268
vn -0.168868 -0.294128 0.94073
v -110.274 -108.324 8.90932
vn -0.389227 0.0295651 0.920667
v -109.986 -107.776 9.25379
vn 0.429549 0.0466599 -0.901838
v -109.417 -106.204 7.68268
vn 0.538383 -0.127905 -0.832937
v -109.269 -106.838 7.60773
vn 0.729239 -0.543615 -0.415563
v -108.814 -106.731 8.08243
vn 0.372172 -0.704144 0.604707
v -109.059 -107.021 9.69857
vn -0.451544 -0.0883548 0.887863
v -109.05 -106.741 9.78266
vn 0.623981 -0.331443 -0.707668
v -109.34 -105.811 7.68367
vn 0.665164 -0.318679 -0.675278
v -108.103 -104.418 8.036
vn 0.489944 0.0722715 -0.868753
v -108.507 -102.52 8.1893
vn -0.622016 0.0909202 0.777708
v -108.254 -101.597 9.7506
vn 0.818345 0.0770477 -0.569539
v -108.557 -98.4668 8.89122
vn -0.956613 -0.126471 -0.26248
v -108.515 -98.4838 9.20366
vn 0.5383 0.281866 -0.794219
v -108.442 -98.6762 9.02841
vn -0.0563322 0.352292 -0.934193
v -108.386 -97.6944 9.22092
vn -0.496434 0.473278 -0.727709
v -108.21 -98.1326 9.22427
vn 0.0865292 -0.0176986 -0.996092
v -108.159 -97.9379 9.19974
vn 0.353341 0.250331 -0.901379
v -108.132 -97.74 9.22251
vn 0.275552 0.149356 -0.949612
v -107.709 -95.6144 10.3541
vn 0.427727 -0.120695 -0.895814
v -107.537 -96.0543 10.4333
vn 0.395874 0.047539 -0.917074
v -107.453 -95.6624 10.4206
vn -0.780458 -0.127664 0.612035
v -107.518 -95.6545 10.5416
vn 0.298941 0.372597 -0.878525
v -107.364 -95.4785 10.5291
vn -0.867222 0.0812823 0.491242
v -107.405 -95.8821 10.6772
vn -0.630516 0.698416 -0.338622
v -107.283 -95.705 10.8141
vn -0.518996 -0.203213 -0.830269
v -107.413 -94.8646 10.6898
vn 0.637965 -0.125147 -0.759828
v -107.226 -95.0997 10.6306
vn -0.520729 0.106534 0.847049
v -107.333 -94.8855 10.9031
vn 0.760169 -0.618484 -0.19905
v -107.561 -105.984 9.5217
vn 0.697681 -0.261135 -0.66712
v -106.902 -104.667 9.13574
vn 0.599366 0.074902 -0.796963
v -106.207 -100.744 9.69706
vn -0.700367 -0.0132724 0.713659
v -107.16 -98.5902 11.3713
vn -0.74533 -0.0692972 0.663085
v -107.056 -99.8224 11.16
vn -0.622978 -0.0259478 0.781809
v -106.703 -99.2879 11.5541
vn 0.227344 0.446565 -0.865387
v -107.12 -95.6283 10.669
vn -0.55238 0.289542 -0.781691
v -107.123 -95.3263 10.7828
vn 0.79216 -0.0655364 -0.606784
v -107.048 -94.9332 10.7877
vn -0.520729 0.106534 0.847049
v -107.166 -94.9187 11.0096
vn -0.376375 0.32377 -0.868052
v -106.957 -94.7506 10.9256
vn -0.0181235 -0.707366 -0.706615
v -107.062 -94.7368 11.0956
vn 0.0648694 0.29167 -0.954317
v -106.982 -94.3381 10.88
vn -0.0181235 -0.707366 -0.706615
v -106.981 -94.7851 11.1418
vn -0.0181235 -0.707366 -0.706615
v -106.959 -94.7558 11.112
vn -0.771744 0.159698 0.615555
v -106.468 -94.8536 11.4201
vn 0.123413 0.115847 -0.98557
v -106.075 -94.1109 11.4196
vn 0.466074 0.143479 -0.873034
v -106.026 -93.5137 11.5441
vn 0.625324 -0.716054 0.31022
v -106.72 -105.036 10.3623
vn -0.696432 0.0462473 0.716132
v -106.802 -103.939 11.3306
vn 0.377383 -0.64574 0.663778
v -106.585 -104.18 11.2865
vn -0.353923 -0.467122 0.810269
v -106.46 -103.605 11.6727
vn 0.79703 -0.19017 -0.573218
v -105.758 -102.66 9.88047
vn 0.829822 -0.493408 -0.26066
v -105.5 -103.547 10.7821
vn -0.669811 0.0794125 0.738273
v -106.578 -103.376 11.5476
vn -0.620968 -0.00974541 0.783775
v -106.497 -102.984 11.5404
vn 0.325829 -0.642769 0.693313
v -105.85 -103.109 11.8352
vn -0.385006 -0.165862 0.907888
v -105.965 -102.886 11.871
vn 0.716509 -0.0309182 -0.696892
v -105.08 -100.984 10.9345
vn -0.429881 0.00447882 0.902875
v -105.784 -100.093 12.5442
vn -0.460588 0.0906751 0.882971
v -105.695 -98.2688 12.1918
vn 0.66193 0.103038 -0.74245
v -105.747 -95.9616 11.4227
vn 0.59406 0.338511 -0.729728
v -104.588 -95.6148 11.9664
vn -0.80608 0.178923 0.564111
v -105.841 -94.379 12.1647
vn 0.660033 0.656086 0.365934
v -105.548 -94.437 12.3373
vn -0.516023 -0.185952 0.836147
v -105.35 -94.8797 12.3562
vn 0.762288 0.645817 0.0428655
v -105.264 -94.6896 12.2781
vn 0.837085 -0.445379 -0.317689
v -104.703 -102.492 11.4982
vn 0.660034 -0.703854 0.262573
v -104.677 -102.505 11.768
vn -0.191254 -0.347873 0.917827
v -105.229 -101.821 12.6014
vn -0.143744 -0.0873222 0.985755
v -104.974 -101.262 12.7579
vn 0.773564 -0.630645 0.0623356
v -104.366 -102.158 11.8832
vn 0.586145 -0.667759 0.458837
v -104.404 -102.157 12.0899
vn 0.76743 0.450381 -0.456299
v -104.292 -95.84 12.1903
vn -0.374953 0.00391084 0.927036
v -104.063 -96.5474 12.7863
vn 0.7317 0.144788 -0.666072
v -103.393 -97.2712 12.5699
vn 0.0157151 -0.201531 0.979356
v -103.728 -100.878 12.8205
vn 0.812071 -0.118661 -0.571367
v -103.448 -100.519 12.7193
vn 0.704216 0.0192335 -0.709725
v -103.214 -98.5277 12.7142
vn 0.434633 0.346797 -0.831159
v -103.161 -98.5446 12.9559
vn -0.144699 -0.00788822 0.989444
v -103.089 -97.9501 13.039
vn 0.829636 0.425187 -0.361829
v -102.928 -97.776 13.0445
vn -0.340798 0.491509 0.801421
v -124.067 -134.526 2.81411
vn 0.626994 -0.732698 0.264636
v -124.067 -134.526 2.81411
vn -0.0481838 -0.991819 0.118209
v -124.067 -134.526 2.81411
vn -0.802105 0.33439 0.494784
v -124.067 -134.526 2.81411
vn -0.338419 -0.120403 -0.933261
v -123.598 -135.411 2.39497
vn 0.526694 -0.833781 -0.165539
v -123.598 -135.411 2.39497
vn 0.511873 -0.463365 0.72338
v -123.598 -135.411 2.39497
vn -0.591985 0.361552 -0.720301
v -123.598 -135.411 2.39497
vn -0.333695 -0.897569 0.288128
v -123.598 -135.411 2.39497
vn 0.856449 0.320682 0.404546
v -123.598 -135.411 2.39497
vn -0.340798 0.491509 0.801421
v -124.103 -134.933 3.04889
vn -0.591985 0.361552 -0.720301
v -124.103 -134.933 3.04889
vn 0.176981 0.983753 0.0301176
v -124.103 -134.933 3.04889
vn -0.333695 -0.897569 0.288128
v -124.26 -134.909 3.19038
vn 0.176949 0.98376 0.0300751
v -124.26 -134.909 3.19038
vn 0.52228 -0.460808 0.717551
v -124.089 -134.936 3.05651
vn 0.176949 0.98376 0.0300751
v -124.089 -134.936 3.05651
vn 0.856449 0.320682 0.404546
v -124.089 -134.936 3.05651
vn -0.802105 0.33439 0.494784
v -124.089 -134.936 3.05651
vn 0.856449 0.320682 0.404546
v -124.177 -134.926 3.23566
vn 0.176916 0.983768 0.0300326
v -124.177 -134.926 3.23566
vn -0.752588 -0.470707 -0.460485
v -124.702 -134.267 4.729
vn 0.683854 -0.538886 0.491881
v -124.776 -134.376 4.92373
vn -0.980085 0.0857814 0.179096
v -124.776 -134.376 4.92373
vn -0.386388 -0.215115 0.8969
v -124.776 -134.376 4.92373
vn -0.0481838 -0.991819 0.118209
v -124.542 -134.291 4.58881
vn -0.578383 -0.597578 -0.555315
v -124.542 -134.291 4.58881
vn -0.982352 0.0695806 0.173616
v -124.766 -133.84 4.43995
vn -0.957854 0.0466407 0.283443
v -124.456 -130.255 5.05197
vn -0.688264 -0.185727 0.701283
v -124.456 -130.255 5.05197
vn -0.727942 -0.12116 0.674848
v -124.409 -128.046 5.6827
vn -0.960902 0.0196941 0.276188
v -124.124 -128.509 5.84033
vn -0.967547 -0.00673298 0.2526
v -124.006 -126.513 6.34356
vn -0.903469 0.0144688 0.428409
v -124.22 -126.059 6.05118
vn -0.971049 0.23563 0.0392868
v -123.725 -123.107 6.33636
vn -0.93961 0.27827 -0.199244
v -122.06 -119.522 5.62787
vn 0.180293 -0.978143 -0.103593
v -122.108 -134.652 2.05624
vn 0.259069 -0.56871 0.780674
v -122.108 -134.652 2.05624
vn 0.847972 -0.528484 -0.040599
v -122.108 -134.652 2.05624
vn 0.360065 -0.922803 -0.137068
v -122.683 -134.749 1.97763
vn 0.310469 -0.484394 0.817907
v -122.646 -134.761 2.1549
vn 0.779042 -0.626574 -0.0223433
v -121.535 -133.742 2.18127
vn 0.779042 -0.626574 -0.0223433
v -121.494 -133.704 2.54306
vn -0.802105 0.33439 0.494784
v -123.471 -133.835 3.31389
vn 0.507957 -0.430805 0.745914
v -123.642 -130.643 6.30766
vn -0.886865 -0.0831723 0.45448
v -123.269 -128.892 6.6791
vn -0.181533 -0.184348 0.965951
v -123.938 -129.173 6.5324
vn -0.674848 0.0351141 0.737121
v -123.938 -129.173 6.5324
vn -0.490938 -0.245841 0.835788
v -123.379 -126.439 6.91457
vn -0.886865 -0.0831723 0.45448
v -123.379 -126.439 6.91457
vn -0.562555 -0.133019 0.815989
v -123.146 -123.867 7.83858
vn -0.321866 -0.296392 0.899196
v -123.146 -123.867 7.83858
vn -0.711862 0.0435928 0.700965
v -123.146 -123.867 7.83858
vn -0.965597 0.139355 0.219552
v -123.146 -123.867 7.83858
vn -0.902427 0.135719 0.408907
v -122.83 -122.309 8.24256
vn -0.886449 0.220705 0.406813
v -122.363 -118.934 8.15176
vn -0.515467 0.306356 -0.800275
v -120.997 -115.277 6.82473
vn 0.892165 -0.156338 -0.423792
v -121.195 -133.412 2.68363
vn 0.197266 -0.39114 0.898941
v -121.195 -133.412 2.68363
vn 0.954623 -0.173847 -0.241809
v -119.921 -129.005 3.98277
vn 0.542159 -0.597159 0.591156
v -119.811 -128.646 4.24491
vn 0.961779 -0.176082 -0.209707
v -119.811 -128.646 4.24491
vn 0.754828 -0.337776 0.562266
v -119.811 -128.646 4.24491
vn -0.269649 -0.203288 0.941256
v -122.631 -128.204 7.02807
vn -0.849337 0.250528 0.464611
v -121.737 -118.432 8.90689
vn -0.868919 0.350603 0.349368
v -120.563 -114.427 9.04418
vn -0.483252 0.163153 0.860145
v -118.966 -111.449 9.30883
vn 0.758695 -0.354512 0.546537
v -118.508 -123.613 5.51873
vn 0.681384 -0.362321 0.635955
v -117.455 -120.308 6.31811
vn 0.962617 -0.270669 -0.0103586
v -117.455 -120.308 6.31811
vn 0.926981 -0.362392 0.0968453
v -116.601 -117.27 6.2713
vn 0.228259 -0.228164 0.946488
v -116.866 -114.628 7.84974
vn 0.0881887 -0.0765594 0.993157
v -118.767 -115.363 9.83575
vn 0.909728 -0.414842 0.017354
v -116.273 -116.142 7.34562
vn 0.570834 -0.400976 0.716496
v -115.058 -114.127 7.41873
vn 0.844245 -0.535941 0.00430006
v -114.187 -112.427 6.55714
vn -0.13429 0.0848191 0.987305
v -117.128 -110.986 9.96961
vn 0.280844 -0.110713 0.953346
v -115.838 -109.154 8.94829
vn 0.4801 -0.0696286 0.874446
v -116.695 -109.228 9.76064
vn 0.218432 0.0845077 -0.972186
v -114.14 -107.543 6.1105
vn -0.29012 0.194067 -0.937106
v -114.15 -106.939 6.34598
vn 0.549402 -0.318419 -0.772507
v -114.15 -106.939 6.34598
vn 0.325903 -0.0775469 0.942217
v -116.069 -107.914 9.65215
vn 0.769455 -0.200805 0.606313
v -116.069 -107.914 9.65215
vn 0.530137 -0.128467 -0.838124
v -113.816 -106.389 6.35657
vn -0.29012 0.194067 -0.937106
v -113.772 -105.945 6.43467
vn 0.571575 -0.247749 -0.782255
v -113.659 -106.421 6.48131
vn 0.0917369 -0.0740885 -0.993023
v -113.659 -106.421 6.48131
vn 0.18301 0.128074 0.974733
v -114.444 -103.912 8.82118
vn -0.576789 0.556747 0.597785
v -114.444 -103.912 8.82118
vn 0.317536 -0.0614817 0.946251
v -114.444 -103.912 8.82118
vn 0.841419 -0.540363 -0.00469978
v -114.319 -112.642 7.716
vn 0.442621 -0.353009 0.824301
v -114.319 -112.642 7.716
vn 0.485171 -0.452852 0.74802
v -113.828 -111.718 7.84816
vn 0.374923 -0.467708 0.800426
v -113.321 -111.399 7.71273
vn 0.33757 -0.523177 0.782517
v -112.991 -110.656 8.06715
vn 0.365054 -0.793788 0.486452
v -111.969 -110.007 7.43458
vn -0.35185 0.0649917 0.933797
v -113.026 -109.027 8.19539
vn 0.695169 -0.56395 -0.445758
v -112.164 -108.315 6.44838
vn -0.191944 0.381059 -0.904407
v -112.126 -105.479 6.5527
vn 0.352778 -0.0347897 -0.93506
v -112.126 -105.479 6.5527
vn -0.343203 0.407896 -0.846069
v -111.639 -100.328 8.11269
vn -0.53912 0.548431 0.639197
v -111.639 -100.328 8.11269
vn -0.407161 0.0493801 0.912021
v -111.639 -100.328 8.11269
vn -0.396604 0.913 -0.095581
v -111.639 -100.328 8.11269
vn -0.610504 0.782496 -0.122411
v -111.296 -100.185 8.05906
vn -0.336735 0.21744 0.916149
v -111.328 -100.177 8.26881
vn -0.174498 0.405097 -0.897467
v -111.042 -99.8276 8.17107
vn -0.399965 0.607321 0.686432
v -111.042 -99.8276 8.17107
vn 0.100864 0.965914 -0.238402
v -111.042 -99.8276 8.17107
vn 0.100864 0.965914 -0.238402
v -110.764 -99.8753 8.09546
vn -0.461372 0.824361 -0.327972
v -110.764 -99.8753 8.09546
vn -0.18172 0.630286 0.754797
v -110.81 -99.8214 8.29479
vn -0.461372 0.824361 -0.327972
v -110.81 -99.8214 8.29479
vn -0.684016 0.710612 -0.164782
v -110.64 -99.9062 8.37807
vn 0.287236 -0.800322 0.526289
v -110.52 -108.777 8.35357
vn 0.699094 -0.528941 -0.481133
v -110.062 -106.275 7.14471
vn -0.461372 0.824361 -0.327972
v -110.21 -99.5464 8.14248
vn 0.118206 0.163115 -0.9795
v -110.21 -99.5464 8.14248
vn -0.684016 0.710612 -0.164782
v -110.21 -99.5464 8.14248
vn -0.684016 0.710612 -0.164782
v -109.104 -98.3614 8.66024
vn 0.316628 0.214704 -0.923931
v -109.104 -98.3614 8.66024
vn 0.176915 0.98377 0.0299711
v -109.104 -98.3614 8.66024
vn -0.396701 0.172255 0.901641
v -108.789 -98.4255 8.90889
vn 0.166229 0.602783 0.780398
v -108.789 -98.4255 8.90889
vn 0.714671 -0.699067 -0.0234858
v -110.274 -108.324 8.90932
vn 0.139481 -0.476092 0.868263
v -110.274 -108.324 8.90932
vn 0.361238 -0.751088 0.552606
v -110.274 -108.324 8.90932
vn -0.098598 -0.492211 0.864874
v -109.986 -107.776 9.25379
vn 0.365056 -0.665777 0.65075
v -109.986 -107.776 9.25379
vn -0.240706 -0.294643 0.924795
v -109.059 -107.021 9.69857
vn 0.444206 0.0780236 -0.892521
v -108.103 -104.418 8.036
vn 0.38184 0.376342 -0.844135
v -108.103 -104.418 8.036
vn -0.956613 -0.126471 -0.26248
v -108.254 -101.597 9.7506
vn 0.414601 0.211651 -0.885048
v -108.557 -98.4668 8.89122
vn 0.176915 0.98377 0.0299711
v -108.557 -98.4668 8.89122
vn 0.166229 0.602783 0.780398
v -108.557 -98.4668 8.89122
vn -0.496434 0.473278 -0.727709
v -108.515 -98.4838 9.20366
vn 0.116727 -0.0832765 -0.989667
v -108.515 -98.4838 9.20366
vn -0.848739 0.0197265 0.528444
v -108.515 -98.4838 9.20366
vn 0.166229 0.602783 0.780398
v -108.442 -98.6762 9.02841
vn -0.956613 -0.126471 -0.26248
v -108.442 -98.6762 9.02841
vn -0.166402 0.226575 0.959674
v -108.442 -98.6762 9.02841
vn -0.496434 0.473278 -0.727709
v -108.442 -98.6762 9.02841
vn 0.676612 -0.0224492 -0.735997
v -108.442 -98.6762 9.02841
vn -0.905325 0.181041 0.3842
v -108.386 -97.6944 9.22092
vn 0.287577 -0.194388 -0.937823
v -108.21 -98.1326 9.22427
vn 0.728975 -0.151061 -0.667665
v -108.21 -98.1326 9.22427
vn 0.731643 -0.143202 -0.666477
v -108.159 -97.9379 9.19974
vn -0.708677 -0.151982 0.688969
v -107.709 -95.6144 10.3541
vn -0.540508 0.520118 0.661309
v -107.709 -95.6144 10.3541
vn -0.846179 -0.00998455 0.532805
v -107.537 -96.0543 10.4333
vn -0.280265 0.660147 -0.696891
v -107.537 -96.0543 10.4333
vn -0.0381698 0.995613 -0.0854223
v -107.453 -95.6624 10.4206
vn 0.699951 -0.583839 0.41134
v -107.453 -95.6624 10.4206
vn -0.0381698 0.995613 -0.0854223
v -107.518 -95.6545 10.5416
vn 0.699951 -0.583839 0.41134
v -107.518 -95.6545 10.5416
vn -0.540508 0.520118 0.661309
v -107.518 -95.6545 10.5416
vn -0.305097 0.371728 0.876775
v -107.518 -95.6545 10.5416
vn 0.699951 -0.583839 0.41134
v -107.364 -95.4785 10.5291
vn -0.540508 0.520118 0.661309
v -107.364 -95.4785 10.5291
vn -0.305097 0.371728 0.876775
v -107.405 -95.8821 10.6772
vn -0.630516 0.698416 -0.338622
v -107.405 -95.8821 10.6772
vn -0.706507 0.243846 -0.664369
v -107.283 -95.705 10.8141
vn 0.532329 -0.290713 -0.795055
v -107.283 -95.705 10.8141
vn -0.552159 -0.123299 0.824571
v -107.283 -95.705 10.8141
vn -0.518996 -0.203213 -0.830269
v -107.283 -95.705 10.8141
vn -0.935144 -0.094301 0.341487
v -107.283 -95.705 10.8141
vn -0.861996 0.0606072 0.50328
v -107.283 -95.705 10.8141
vn -0.935144 -0.094301 0.341487
v -107.413 -94.8646 10.6898
vn 0.0648694 0.29167 -0.954317
v -107.413 -94.8646 10.6898
vn -0.783389 0.517338 0.344475
v -107.413 -94.8646 10.6898
vn -0.518996 -0.203213 -0.830269
v -107.226 -95.0997 10.6306
vn 0.0648694 0.29167 -0.954317
v -107.226 -95.0997 10.6306
vn -0.935144 -0.094301 0.341487
v -107.333 -94.8855 10.9031
vn -0.783389 0.517338 0.344475
v -107.333 -94.8855 10.9031
vn 0.304472 0.0938928 0.947882
v -107.16 -98.5902 11.3713
vn -0.749315 0.130434 0.649241
v -107.16 -98.5902 11.3713
vn -0.0381698 0.995613 -0.0854223
v -107.12 -95.6283 10.669
vn 0.600122 -0.154021 -0.78494
v -107.12 -95.6283 10.669
vn -0.305097 0.371728 0.876775
v -107.12 -95.6283 10.669
vn -0.630516 0.698416 -0.338622
v -107.12 -95.6283 10.669
vn -0.55238 0.289542 -0.781691
v -107.12 -95.6283 10.669
vn 0.743033 -0.201657 -0.638151
v -107.123 -95.3263 10.7828
vn -0.917651 0.0374513 0.395618
v -107.166 -94.9187 11.0096
vn 0.293852 0.108061 0.949723
v -107.166 -94.9187 11.0096
vn 0.293852 0.108061 0.949723
v -106.957 -94.7506 10.9256
vn -0.693417 0.119271 0.710597
v -106.957 -94.7506 10.9256
vn 0.880518 -0.089254 -0.465534
v -106.957 -94.7506 10.9256
vn 0.607356 0.30567 -0.73327
v -106.957 -94.7506 10.9256
vn 0.0181235 0.707366 0.706615
v -107.062 -94.7368 11.0956
vn -0.461014 0.330581 0.823518
v -106.982 -94.3381 10.88
vn -0.783389 0.517338 0.344475
v -106.982 -94.3381 10.88
vn 0.745902 0.019924 -0.665758
v -106.982 -94.3381 10.88
vn 0.283138 0.122195 0.951263
v -106.982 -94.3381 10.88
vn 0.0181235 0.707366 0.706615
v -106.981 -94.7851 11.1418
vn 0.0181235 0.707366 0.706615
v -106.959 -94.7558 11.112
vn 0.682079 0.442235 -0.582406
v -106.468 -94.8536 11.4201
vn -0.212931 0.111844 -0.970645
v -106.468 -94.8536 11.4201
vn -0.810696 0.216831 0.543835
v -106.026 -93.5137 11.5441
vn -0.414627 0.218419 -0.88339
v -106.026 -93.5137 11.5441
vn 0.749563 0.623837 0.221323
v -106.026 -93.5137 11.5441
vn -0.368792 0.488381 0.790871
v -106.026 -93.5137 11.5441
vn -0.284963 -0.361241 0.887863
v -106.802 -103.939 11.3306
vn -0.276217 -0.408106 0.870146
v -106.585 -104.18 11.2865
vn -0.617158 0.0984996 0.78065
v -106.46 -103.605 11.6727
vn 0.261222 -0.576074 0.774534
v -106.46 -103.605 11.6727
vn -0.093257 -0.204765 0.974358
v -106.46 -103.605 11.6727
vn 0.408432 0.361743 -0.838049
v -105.758 -102.66 9.88047
vn -0.237957 -0.272671 0.932216
v -105.85 -103.109 11.8352
vn 0.408432 0.361743 -0.838049
v -105.08 -100.984 10.9345
vn 0.846922 -0.484178 -0.219759
v -105.08 -100.984 10.9345
vn 0.226381 0.195809 -0.954154
v -105.747 -95.9616 11.4227
vn -0.474911 -0.142151 0.868477
v -105.841 -94.379 12.1647
vn -0.368792 0.488381 0.790871
v -105.841 -94.379 12.1647
vn -0.368792 0.488381 0.790871
v -105.548 -94.437 12.3373
vn -0.525955 -0.199245 0.826845
v -105.548 -94.437 12.3373
vn 0.370549 0.204118 0.906107
v -105.548 -94.437 12.3373
vn 0.246234 0.270647 0.930655
v -105.35 -94.8797 12.3562
vn 0.246234 0.270647 0.930655
v -105.264 -94.6896 12.2781
vn 0.713672 0.571983 0.404362
v -105.264 -94.6896 12.2781
vn 0.826033 -0.217765 -0.519854
v -104.366 -102.158 11.8832
vn 0.641428 0.60516 0.471542
v -104.292 -95.84 12.1903
vn 0.116875 0.331633 0.936141
v -104.063 -96.5474 12.7863
vn 0.641428 0.60516 0.471542
v -104.063 -96.5474 12.7863
vn 0.797675 -0.555429 0.234975
v -103.728 -100.878 12.8205
vn 0.526894 -0.176393 0.831426
v -103.728 -100.878 12.8205
vn 0.812997 -0.54882 0.194505
v -103.448 -100.519 12.7193
vn 0.526894 -0.176393 0.831426
v -103.448 -100.519 12.7193
vn 0.899913 -0.374319 -0.223701
v -103.214 -98.5277 12.7142
vn 0.790155 -0.0418235 -0.611479
v -103.161 -98.5446 12.9559
vn -0.0303457 -0.102266 0.994294
v -103.161 -98.5446 12.9559
vn 0.526894 -0.176393 0.831426
v -103.161 -98.5446 12.9559
vn 0.899913 -0.374319 -0.223701
v -103.161 -98.5446 12.9559
vn 0.562234 0.631782 0.533614
v -102.928 -97.776 13.0445
vn 0.726793 0.0251413 -0.686396
v -102.928 -97.776 13.0445
vn 0.000789268 -0.0327144 0.999464
v -102.928 -97.776 13.0445
vn 0.939501 -0.258885 -0.224312
v -102.928 -97.776 13.0445
f 2//2 3//3 1//1
f 3//3 4//4 1//1
f 6//6 247//247 257//257
f 251//251 2//2 24//24
f 2//2 28//28 24//24
f 286//286 25//25 252//252
f 31//31 262//262 253//253
f 5//5 258//258 254//254
f 260//260 255//255 7//7
f 259//259 261//261 263//263
f 266//266 256//256 264//264
f 263//263 261//261 267//267
f 10//10 248//248 31//31
f 249//249 272//272 8//8
f 265//265 290//290 250//250
f 273//273 9//9 268//268
f 10//10 31//31 269//269
f 12//12 2//2 1//1
f 11//11 12//12 1//1
f 1//1 268//268 11//11
f 9//9 11//11 268//268
f 2//2 12//12 28//28
f 274//274 270//270 13//13
f 11//11 14//14 12//12
f 275//275 274//274 13//13
f 270//270 39//39 13//13
f 13//13 39//39 275//275
f 15//15 28//28 12//12
f 14//14 15//15 12//12
f 14//14 16//16 15//15
f 276//276 17//17 277//277
f 277//277 17//17 18//18
f 275//275 39//39 278//278
f 28//28 15//15 22//22
f 15//15 16//16 20//20
f 15//15 20//20 19//19
f 280//280 277//277 18//18
f 21//21 19//19 20//20
f 19//19 21//21 50//50
f 19//19 50//50 15//15
f 281//281 51//51 50//50
f 281//281 48//48 51//51
f 15//15 49//49 282//282
f 26//26 23//23 24//24
f 286//286 283//283 25//25
f 28//28 26//26 24//24
f 287//287 31//31 253//253
f 27//27 26//26 32//32
f 284//284 30//30 287//287
f 27//27 23//23 26//26
f 289//289 285//285 288//288
f 289//289 288//288 56//56
f 27//27 32//32 304//304
f 31//31 287//287 33//33
f 29//29 33//33 287//287
f 287//287 30//30 29//29
f 30//30 305//305 29//29
f 31//31 38//38 269//269
f 271//271 34//34 293//293
f 35//35 32//32 26//26
f 26//26 28//28 35//35
f 38//38 31//31 33//33
f 291//291 269//269 61//61
f 269//269 38//38 61//61
f 43//43 35//35 28//28
f 22//22 43//43 28//28
f 36//36 35//35 43//43
f 32//32 35//35 36//36
f 278//278 39//39 279//279
f 37//37 34//34 310//310
f 293//293 34//34 40//40
f 37//37 40//40 34//34
f 18//18 295//295 41//41
f 18//18 294//294 295//295
f 296//296 292//292 44//44
f 297//297 37//37 45//45
f 280//280 18//18 41//41
f 41//41 295//295 42//42
f 295//295 298//298 42//42
f 42//42 298//298 41//41
f 41//41 48//48 280//280
f 48//48 281//281 280//280
f 41//41 46//46 48//48
f 41//41 299//299 46//46
f 299//299 52//52 46//46
f 47//47 297//297 45//45
f 302//302 300//300 301//301
f 43//43 22//22 53//53
f 90//90 43//43 53//53
f 98//98 90//90 53//53
f 50//50 49//49 15//15
f 48//48 302//302 51//51
f 46//46 52//52 48//48
f 45//45 68//68 47//47
f 311//311 302//302 301//301
f 49//49 54//54 282//282
f 49//49 50//50 54//54
f 22//22 303//303 53//53
f 51//51 54//54 50//50
f 311//311 51//51 302//302
f 311//311 55//55 51//51
f 54//54 51//51 55//55
f 303//303 72//72 53//53
f 305//305 58//58 29//29
f 58//58 33//33 29//29
f 32//32 62//62 304//304
f 305//305 59//59 58//58
f 33//33 58//58 57//57
f 62//62 306//306 304//304
f 32//32 36//36 62//62
f 82//82 33//33 57//57
f 58//58 60//60 57//57
f 307//307 58//58 59//59
f 308//308 306//306 62//62
f 60//60 82//82 57//57
f 308//308 62//62 83//83
f 309//309 314//314 82//82
f 310//310 45//45 37//37
f 63//63 36//36 43//43
f 36//36 63//63 62//62
f 85//85 63//63 67//67
f 62//62 63//63 85//85
f 85//85 83//83 62//62
f 61//61 38//38 65//65
f 64//64 38//38 33//33
f 82//82 64//64 33//33
f 38//38 96//96 65//65
f 65//65 66//66 61//61
f 310//310 66//66 45//45
f 43//43 67//67 63//63
f 65//65 84//84 66//66
f 65//65 96//96 84//84
f 43//43 90//90 67//67
f 101//101 38//38 64//64
f 38//38 101//101 96//96
f 45//45 66//66 70//70
f 70//70 66//66 88//88
f 69//69 68//68 45//45
f 45//45 70//70 69//69
f 71//71 68//68 69//69
f 70//70 71//71 69//69
f 92//92 70//70 88//88
f 53//53 74//74 98//98
f 72//72 74//74 53//53
f 55//55 311//311 312//312
f 94//94 70//70 92//92
f 71//71 70//70 94//94
f 72//72 73//73 74//74
f 55//55 75//75 54//54
f 55//55 77//77 75//75
f 77//77 55//55 312//312
f 76//76 77//77 312//312
f 94//94 313//313 71//71
f 94//94 99//99 313//313
f 72//72 78//78 73//73
f 77//77 76//76 105//105
f 72//72 80//80 78//78
f 79//79 54//54 75//75
f 303//303 80//80 72//72
f 106//106 77//77 105//105
f 107//107 78//78 80//80
f 54//54 79//79 80//80
f 75//75 81//81 79//79
f 79//79 81//81 80//80
f 77//77 81//81 75//75
f 77//77 106//106 81//81
f 106//106 129//129 81//81
f 83//83 85//85 86//86
f 314//314 315//315 82//82
f 87//87 86//86 85//85
f 66//66 84//84 88//88
f 108//108 82//82 315//315
f 82//82 108//108 64//64
f 85//85 67//67 90//90
f 89//89 85//85 90//90
f 87//87 85//85 89//89
f 86//86 87//87 91//91
f 316//316 317//317 320//320
f 90//90 91//91 89//89
f 91//91 87//87 89//89
f 101//101 64//64 93//93
f 84//84 96//96 95//95
f 84//84 95//95 88//88
f 95//95 102//102 88//88
f 88//88 102//102 92//92
f 91//91 90//90 111//111
f 111//111 90//90 98//98
f 320//320 317//317 322//322
f 92//92 99//99 94//94
f 95//95 96//96 97//97
f 102//102 95//95 319//319
f 113//113 97//97 96//96
f 113//113 96//96 101//101
f 92//92 102//102 99//99
f 98//98 74//74 73//73
f 101//101 93//93 115//115
f 102//102 100//100 99//99
f 100//100 313//313 99//99
f 103//103 100//100 102//102
f 102//102 319//319 323//323
f 323//323 103//103 102//102
f 113//113 101//101 115//115
f 100//100 105//105 313//313
f 103//103 105//105 100//100
f 103//103 323//323 105//105
f 116//116 105//105 323//323
f 73//73 117//117 118//118
f 118//118 98//98 73//73
f 104//104 73//73 78//78
f 73//73 104//104 117//117
f 105//105 116//116 121//121
f 104//104 78//78 107//107
f 104//104 107//107 123//123
f 81//81 129//129 80//80
f 129//129 106//106 126//126
f 106//106 105//105 126//126
f 107//107 80//80 129//129
f 129//129 128//128 107//107
f 64//64 108//108 318//318
f 320//320 322//322 109//109
f 110//110 318//318 108//108
f 108//108 321//321 110//110
f 321//321 130//130 110//110
f 112//112 111//111 98//98
f 322//322 338//338 109//109
f 130//130 318//318 110//110
f 98//98 140//140 112//112
f 111//111 112//112 131//131
f 112//112 140//140 136//136
f 115//115 114//114 113//113
f 113//113 114//114 325//325
f 140//140 98//98 118//118
f 114//114 329//329 325//325
f 115//115 330//330 114//114
f 118//118 117//117 119//119
f 119//119 117//117 120//120
f 117//117 104//104 120//120
f 120//120 124//124 119//119
f 140//140 118//118 326//326
f 326//326 141//141 140//140
f 330//330 115//115 127//127
f 104//104 123//123 120//120
f 332//332 122//122 327//327
f 333//333 328//328 331//331
f 333//333 331//331 125//125
f 125//125 331//331 123//123
f 123//123 144//144 125//125
f 334//334 125//125 144//144
f 124//124 346//346 119//119
f 141//141 326//326 347//347
f 121//121 335//335 126//126
f 121//121 126//126 105//105
f 107//107 128//128 123//123
f 336//336 129//129 126//126
f 147//147 337//337 324//324
f 129//129 348//348 128//128
f 129//129 336//336 349//349
f 128//128 348//348 148//148
f 128//128 148//148 123//123
f 131//131 134//134 322//322
f 338//338 322//322 134//134
f 131//131 112//112 132//132
f 132//132 112//112 136//136
f 132//132 137//137 131//131
f 132//132 136//136 137//137
f 133//133 139//139 130//130
f 318//318 130//130 139//139
f 339//339 341//341 340//340
f 133//133 135//135 139//139
f 342//342 340//340 341//341
f 134//134 131//131 138//138
f 131//131 137//137 138//138
f 137//137 136//136 170//170
f 170//170 171//171 137//137
f 167//167 139//139 135//135
f 140//140 141//141 142//142
f 142//142 141//141 143//143
f 143//143 141//141 347//347
f 142//142 143//143 145//145
f 145//145 143//143 347//347
f 142//142 145//145 140//140
f 140//140 145//145 158//158
f 318//318 139//139 324//324
f 168//168 350//350 344//344
f 123//123 146//146 144//144
f 159//159 347//347 146//146
f 139//139 147//147 324//324
f 123//123 148//148 146//146
f 352//352 149//149 150//150
f 353//353 350//350 168//168
f 149//149 352//352 351//351
f 154//154 353//353 168//168
f 148//148 354//354 151//151
f 153//153 355//355 353//353
f 357//357 356//356 152//152
f 153//153 359//359 355//355
f 154//154 153//153 353//353
f 161//161 359//359 154//154
f 364//364 358//358 360//360
f 154//154 359//359 153//153
f 155//155 138//138 157//157
f 156//156 138//138 155//155
f 134//134 138//138 372//372
f 341//341 373//373 342//342
f 343//343 362//362 374//374
f 167//167 375//375 139//139
f 137//137 171//171 138//138
f 170//170 136//136 140//140
f 171//171 157//157 138//138
f 157//157 166//166 164//164
f 155//155 157//157 164//164
f 155//155 164//164 156//156
f 166//166 157//157 171//171
f 345//345 363//363 174//174
f 140//140 174//174 169//169
f 170//170 140//140 169//169
f 174//174 363//363 175//175
f 159//159 146//146 160//160
f 378//378 145//145 347//347
f 159//159 378//378 347//347
f 378//378 158//158 145//145
f 159//159 176//176 378//378
f 159//159 160//160 176//176
f 162//162 154//154 168//168
f 177//177 162//162 168//168
f 148//148 151//151 146//146
f 160//160 151//151 365//365
f 146//146 151//151 160//160
f 361//361 367//367 366//366
f 365//365 368//368 160//160
f 180//180 160//160 178//178
f 381//381 160//160 368//368
f 382//382 369//369 163//163
f 177//177 370//370 162//162
f 165//165 156//156 164//164
f 164//164 166//166 195//195
f 165//165 164//164 195//195
f 195//195 166//166 171//171
f 374//374 362//362 165//165
f 196//196 171//171 170//170
f 196//196 195//195 171//171
f 213//213 165//165 195//195
f 374//374 165//165 376//376
f 165//165 172//172 376//376
f 213//213 172//172 165//165
f 377//377 173//173 168//168
f 175//175 196//196 174//174
f 196//196 169//169 174//174
f 196//196 170//170 169//169
f 173//173 177//177 168//168
f 176//176 197//197 378//378
f 227//227 160//160 180//180
f 371//371 387//387 383//383
f 179//179 388//388 380//380
f 389//389 370//370 177//177
f 390//390 384//384 182//182
f 181//181 183//183 385//385
f 393//393 385//385 183//183
f 184//184 183//183 181//181
f 184//184 181//181 201//201
f 394//394 395//395 226//226
f 226//226 395//395 184//184
f 226//226 184//184 201//201
f 226//226 391//391 394//394
f 227//227 180//180 459//459
f 190//190 392//392 386//386
f 186//186 185//185 187//187
f 396//396 398//398 188//188
f 185//185 189//189 187//187
f 190//190 398//398 392//392
f 201//201 181//181 399//399
f 402//402 425//425 400//400
f 187//187 426//426 186//186
f 190//190 188//188 398//398
f 406//406 403//403 401//401
f 397//397 404//404 407//407
f 408//408 427//427 405//405
f 409//409 191//191 428//428
f 429//429 410//410 202//202
f 430//430 411//411 193//193
f 204//204 194//194 412//412
f 192//192 419//419 413//413
f 414//414 421//421 416//416
f 207//207 420//420 417//417
f 194//194 204//204 438//438
f 418//418 422//422 439//439
f 430//430 193//193 203//203
f 203//203 193//193 440//440
f 195//195 218//218 213//213
f 214//214 177//177 173//173
f 450//450 173//173 377//377
f 213//213 215//215 172//172
f 451//451 450//450 377//377
f 217//217 196//196 175//175
f 197//197 176//176 160//160
f 197//197 223//223 378//378
f 220//220 199//199 177//177
f 386//386 177//177 199//199
f 386//386 199//199 198//198
f 386//386 198//198 190//190
f 200//200 198//198 199//199
f 225//225 198//198 200//200
f 198//198 431//431 415//415
f 429//429 202//202 205//205
f 423//423 433//433 432//432
f 198//198 415//415 190//190
f 424//424 210//210 434//434
f 210//210 424//424 228//228
f 198//198 239//239 460//460
f 203//203 435//435 430//430
f 209//209 208//208 206//206
f 440//440 435//435 203//203
f 433//433 441//441 432//432
f 442//442 443//443 437//437
f 436//436 226//226 201//201
f 226//226 436//436 444//444
f 445//445 211//211 459//459
f 227//227 459//459 211//211
f 227//227 211//211 212//212
f 228//228 446//446 210//210
f 445//445 447//447 211//211
f 196//196 218//218 195//195
f 217//217 218//218 196//196
f 213//213 218//218 233//233
f 177//177 214//214 219//219
f 451//451 216//216 450//450
f 214//214 452//452 219//219
f 233//233 215//215 213//213
f 215//215 233//233 221//221
f 220//220 177//177 219//219
f 452//452 220//220 219//219
f 222//222 220//220 452//452
f 453//453 215//215 221//221
f 454//454 456//456 222//222
f 455//455 379//379 457//457
f 220//220 224//224 199//199
f 222//222 234//234 220//220
f 224//224 200//200 199//199
f 223//223 197//197 240//240
f 224//224 225//225 200//200
f 197//197 160//160 227//227
f 197//197 227//227 240//240
f 225//225 239//239 198//198
f 231//231 227//227 448//448
f 231//231 448//448 229//229
f 238//238 227//227 231//231
f 462//462 449//449 461//461
f 230//230 460//460 239//239
f 230//230 463//463 460//460
f 466//466 464//464 465//465
f 470//470 466//466 465//465
f 233//233 218//218 232//232
f 232//232 218//218 217//217
f 237//237 221//221 233//233
f 237//237 234//234 221//221
f 233//233 232//232 236//236
f 233//233 236//236 237//237
f 234//234 224//224 220//220
f 234//234 222//222 456//456
f 234//234 235//235 224//224
f 232//232 217//217 468//468
f 457//457 244//244 455//455
f 242//242 468//468 217//217
f 234//234 241//241 235//235
f 224//224 235//235 241//241
f 242//242 217//217 477//477
f 237//237 236//236 474//474
f 234//234 237//237 241//241
f 237//237 474//474 472//472
f 245//245 225//225 224//224
f 243//243 223//223 240//240
f 239//239 225//225 245//245
f 478//478 245//245 224//224
f 238//238 240//240 227//227
f 467//467 471//471 469//469
f 238//238 246//246 240//240
f 481//481 469//469 471//471
f 473//473 475//475 479//479
f 241//241 478//478 224//224
f 476//476 480//480 458//458
f 482//482 243//243 240//240
f 483//483 245//245 478//478
f 484//484 480//480 476//476
f 483//483 239//239 245//245
