# Wavafront OBJ file of BodyParts3D
# BodyParts3D, Copyright(C) 2010-2011 The Database Center for Life Science licensed under CC Attribution-Share Alike 2.1 Japan.
vn -0.906267 0.0161813 0.422396
v 31.8319 -126.182 1218.67
vn -0.829757 -0.165187 0.53312
v 32.034 -126.803 1218.95
vn -0.811482 0.259395 0.523652
v 32.1062 -125.606 1218.99
vn -0.91337 -0.285335 0.290413
v 31.7422 -127.357 1218.03
vn -0.948855 -0.312722 -0.0433496
v 31.7926 -127.918 1216.81
vn -0.945339 -0.121312 -0.302683
v 31.6295 -126.998 1216.54
vn -0.994676 -0.0648176 0.0801137
v 31.4938 -126.723 1217.45
vn -0.936264 0.23454 -0.261537
v 31.5637 -126.105 1216.87
vn -0.898108 0.415431 0.144288
v 31.724 -125.555 1218.09
vn -0.692174 0.608437 -0.388201
v 31.8666 -125.52 1216.89
vn -0.797757 0.111388 -0.592601
v 31.7534 -126.694 1216.25
vn -0.668777 0.376168 -0.641276
v 31.9359 -126.103 1216.27
vn -0.69237 -0.48541 0.533854
v 33.5258 -130.001 1218.84
vn -0.729228 -0.32807 0.600497
v 32.6448 -128.047 1219.21
vn -0.515768 -0.228129 0.825797
v 33.3403 -127.808 1219.94
vn -0.470945 -0.363878 0.803619
v 33.8762 -129.047 1219.77
vn -0.63793 0.602536 0.479579
v 32.4699 -125.025 1219.01
vn -0.722312 -0.0425027 0.69026
v 32.5207 -126.251 1219.62
vn -0.650096 0.270253 0.710168
v 32.5522 -125.649 1219.55
vn -0.505863 0.0536412 0.860944
v 33.119 -126.298 1220.08
vn -0.401523 0.505279 0.763853
v 33.1665 -125.393 1219.89
vn -0.266822 0.870938 0.412642
v 33.2074 -124.611 1219.03
vn -0.292131 -0.0374643 0.955644
v 33.702 -126.639 1220.33
vn -0.156468 0.339348 0.927556
v 33.7493 -125.736 1220.24
vn 0.0253059 0.756956 0.652975
v 33.7923 -124.916 1219.62
vn 0.129016 0.949771 0.285114
v 33.8083 -124.609 1219.03
vn 0.0290714 0.122547 0.992037
v 34.3167 -126.373 1220.42
vn 0.291491 0.527869 0.797739
v 34.6382 -125.781 1220.19
vn 0.341839 0.823849 0.452128
v 34.3949 -124.88 1219.32
vn 0.425856 0.900279 0.090244
v 34.4036 -124.715 1218.73
vn -0.890725 -0.450325 0.0617766
v 32.4906 -129.466 1217.06
vn -0.862395 -0.483758 -0.149175
v 32.8822 -130.056 1216.14
vn -0.82217 -0.538477 0.184603
v 33.0983 -130.409 1217.32
vn -0.898162 -0.329863 -0.290682
v 32.1321 -128.515 1216.19
vn -0.825201 -0.442587 0.350941
v 32.5058 -128.909 1218.28
vn -0.549887 0.828394 0.106709
v 32.2954 -124.818 1218.12
vn -0.540627 0.80657 -0.239095
v 32.2916 -124.89 1217.52
vn -0.347379 0.600059 -0.720595
v 32.243 -125.817 1216.23
vn -0.33123 0.778831 -0.532644
v 32.5837 -125.049 1216.91
vn -0.241901 0.956063 -0.165611
v 32.9088 -124.577 1217.83
vn -0.11447 0.897797 -0.425273
v 32.8979 -124.785 1217.22
vn -0.119601 0.990443 0.0686959
v 33.2139 -124.487 1218.43
vn -0.044125 0.772398 -0.633604
v 33.179 -125.154 1216.61
vn 0.071562 0.967456 -0.242709
v 33.5117 -124.538 1217.83
vn 0.183072 0.983068 0.00789403
v 33.8131 -124.518 1218.43
vn 0.348069 0.915395 -0.202237
v 34.1057 -124.667 1217.83
vn 0.261864 0.8384 -0.478031
v 34.0936 -124.899 1217.22
vn -0.788503 -0.323151 -0.523295
v 32.7883 -129.43 1215.56
vn -0.737181 -0.0818837 -0.670715
v 32.2956 -127.903 1215.61
vn -0.422534 0.31512 -0.849802
v 32.7813 -127.009 1215.34
vn -0.393072 0.147984 -0.907521
v 33.3338 -127.932 1214.9
vn -0.0951216 0.415697 -0.904516
v 33.6646 -127.351 1214.98
vn -0.50989 -0.0315737 -0.85966
v 33.625 -129.142 1214.67
vn -0.10712 0.283699 -0.952911
v 34.2174 -128.268 1214.58
vn 0.0577148 0.641304 -0.765113
v 33.7415 -125.884 1215.9
vn -0.98063 0.164409 0.106462
v 36.652 -131.657 1230.5
vn -0.997956 -0.0616044 0.0169821
v 36.6429 -132.547 1230.16
vn -0.110463 -0.224247 0.968252
v 35.9108 -130.35 1220.01
vn -0.166702 -0.160807 0.972806
v 34.5379 -127.886 1220.36
vn 0.2085 0.0333065 0.977455
v 35.1684 -127.318 1220.37
vn 0.569433 0.277289 0.773859
v 36.068 -127.351 1219.96
vn 0.340461 0.238243 0.909575
v 34.9161 -126.401 1220.31
vn 0.601422 0.727648 0.32988
v 34.9777 -125.225 1219.31
vn 0.557489 0.462518 0.689408
v 35.2319 -126.107 1220.03
vn 0.745105 0.528792 0.406446
v 36.1162 -126.43 1219.27
vn 0.46548 0.683287 -0.562537
v 34.9376 -125.991 1216.28
vn 0.590719 0.783876 -0.191284
v 35.2722 -125.338 1217.81
vn 0.75718 0.652959 0.0179812
v 36.1315 -126.138 1218.08
vn 0.683755 0.656462 -0.318649
v 36.1252 -126.259 1217.47
vn -0.843378 -0.536451 0.0305539
v 35.5934 -134.391 1215.69
vn -0.77287 -0.187268 -0.606302
v 36.187 -134.348 1213.59
vn -0.860415 -0.43532 -0.264922
v 35.0986 -133.443 1215.12
vn -0.789999 -0.328205 -0.517864
v 34.897 -132.498 1214.55
vn -0.641791 -0.139313 -0.754119
v 35.4967 -132.518 1213.87
vn -0.345456 0.105807 -0.932451
v 36.1437 -131.638 1213.51
vn 0.297159 0.546527 -0.782946
v 34.8783 -127.123 1215.23
vn -0.891529 -0.0309815 0.451902
v 38.1186 -145.544 1229.98
vn -0.798602 -0.283672 0.530816
v 37.4531 -135.313 1230.69
vn -0.564306 -0.280992 0.776275
v 38.665 -135.119 1231.91
vn -0.834984 0.200811 0.512325
v 37.0311 -131.409 1231.41
vn -0.789641 0.592848 0.158109
v 37.0636 -130.789 1230.83
vn -0.812205 -0.142224 0.56577
v 37.0309 -132.309 1231.37
vn -0.648721 0.56597 0.508762
v 37.3153 -130.823 1231.43
vn -0.60893 0.124927 0.783325
v 37.6468 -131.462 1232.01
vn -0.500109 0.438696 0.746617
v 37.9221 -130.876 1232.03
vn -0.440866 0.894381 0.0756274
v 37.7154 -130.309 1230.84
vn -0.416174 0.697175 0.583735
v 38.002 -130.572 1231.82
vn -0.335846 0.880789 0.333794
v 38.0149 -130.327 1231.44
vn -0.0738467 0.957943 0.277293
v 38.2899 -130.274 1231.45
vn -0.53765 -0.121189 0.834413
v 38.2064 -132.405 1232.36
vn -0.232199 0.658259 0.716086
v 38.2991 -130.636 1232.04
vn -0.127388 0.855524 0.501847
v 38.3112 -130.405 1231.74
vn -0.0613099 0.99773 -0.0278392
v 38.3226 -130.186 1230.85
vn -0.389309 0.0725255 0.918248
v 38.5527 -131.529 1232.56
vn -0.258671 0.407003 0.876035
v 38.5685 -131.227 1232.51
vn 0.11428 0.778332 0.617365
v 38.903 -130.578 1232.04
vn 0.181361 0.950819 0.251101
v 38.9175 -130.299 1231.45
vn 0.206704 0.967278 -0.147126
v 38.9206 -130.241 1230.85
vn -0.925104 -0.23624 0.297275
v 37.6239 -145.177 1228.83
vn -0.85427 0.345287 0.388587
v 37.7213 -144.571 1228.55
vn -0.84037 -0.494289 0.222388
v 37.8728 -145.801 1229.1
vn -0.84943 0.023209 0.52719
v 38.2787 -142.489 1228.36
vn -0.927643 -0.211515 0.307799
v 37.8793 -139.765 1228.41
vn -0.743758 -0.268453 0.612174
v 38.2745 -140.107 1229
vn -0.995305 -0.0330058 -0.0909847
v 37.5469 -138.225 1227.87
vn -0.964722 -0.189849 0.182396
v 36.9139 -134.363 1230.1
vn -0.944622 -0.0154615 -0.327798
v 36.9863 -134.325 1228.9
vn -0.714897 0.185642 -0.674137
v 37.2753 -133.128 1228.64
vn -0.432462 0.335572 -0.83688
v 37.8673 -133.143 1228.18
vn -0.802109 0.526207 -0.28236
v 36.8899 -131.059 1230.22
vn -0.863326 0.223721 -0.452346
v 36.8298 -131.936 1229.59
vn -0.570182 0.797004 -0.199192
v 37.4024 -130.549 1230.24
vn -0.478627 0.732961 -0.483408
v 37.3944 -130.702 1229.93
vn -0.535299 0.545681 -0.644738
v 37.3756 -131.061 1229.54
vn -0.580914 0.357197 -0.731402
v 37.3294 -131.942 1229.02
vn -0.261332 0.905933 -0.333152
v 37.7108 -130.396 1230.24
vn -0.189884 0.744354 -0.64022
v 37.9958 -130.69 1229.63
vn -0.273536 0.52848 -0.803671
v 37.9446 -131.667 1228.83
vn 0.0400246 0.895984 -0.44228
v 38.3088 -130.45 1229.94
vn 0.0582196 0.704476 -0.707336
v 38.5826 -130.959 1229.32
vn -0.115677 0.51545 -0.849076
v 38.813 -132.293 1228.25
vn -0.963933 0.108695 0.242938
v 36.6141 -145.008 1225.53
vn -0.918125 0.294122 0.265592
v 37.7172 -143.307 1226.79
vn -0.790154 0.141804 -0.596279
v 37.9491 -137.314 1226.99
vn -0.841339 0.245056 -0.481763
v 37.9082 -139.393 1226.33
vn -0.515432 0.288315 -0.806972
v 38.596 -136.435 1226.66
vn -0.996776 0.0801858 -0.00281598
v 36.271 -145.196 1222.82
vn -0.948798 -0.276673 0.152429
v 36.4321 -145.257 1224.32
vn -0.972823 0.205029 0.107602
v 36.3781 -144.944 1224.03
vn -0.906717 0.42172 -0.00402494
v 36.575 -144.322 1223.15
vn -0.885596 0.439912 0.148986
v 37.0098 -143.772 1224.97
vn -0.84495 0.534685 -0.0130805
v 37.3592 -142.883 1223.8
vn -0.651073 0.744825 -0.146077
v 38.0148 -142.017 1223.83
vn -0.953838 0.0849707 -0.28805
v 37.927 -141.454 1225.05
vn -0.848567 0.456867 -0.266846
v 38.1136 -141.743 1224.44
vn -0.896772 -0.431838 0.0965239
v 36.3577 -145.78 1222.2
vn -0.921107 0.362124 -0.142929
v 36.5521 -144.579 1221.94
vn -0.986638 0.0468242 -0.156054
v 36.4389 -146.022 1220.39
vn -0.81382 0.559606 -0.156648
v 37.5836 -142.811 1221.4
vn -0.386572 0.914588 -0.118704
v 38.5841 -141.973 1221.73
vn -0.92672 -0.373128 -0.044327
v 36.7118 -146.906 1219.46
vn -0.956503 0.00607988 -0.291658
v 36.6479 -146.602 1219.47
vn -0.922925 -0.100066 -0.371747
v 37.118 -147.485 1218.24
vn -0.884808 0.357166 -0.299244
v 36.8721 -144.833 1220.13
vn -0.917226 0.217429 -0.333797
v 36.6273 -146.011 1219.79
vn -0.871301 0.237729 -0.429325
v 37.0081 -145.999 1218.89
vn -0.80186 0.50275 -0.322896
v 37.6257 -143.484 1219.88
vn -0.776365 0.435614 -0.45552
v 37.9517 -143.937 1218.66
vn -0.496901 -0.356972 0.790987
v 37.8054 -135.512 1218.66
vn -0.174068 -0.16302 0.971146
v 38.4042 -134.363 1219.28
vn -0.876292 -0.457351 -0.151471
v 37.9094 -148.686 1217
vn -0.756006 0.131338 -0.641253
v 38.1866 -146.888 1216.76
vn -0.80155 0.254352 -0.541131
v 37.8101 -145.698 1217.66
vn -0.805036 -0.465815 0.367334
v 37.3122 -136.345 1217.43
vn -0.884472 -0.465961 0.0242976
v 36.7934 -136.437 1214.72
vn -0.886592 -0.283586 -0.365423
v 37.1106 -136.788 1213.21
vn -0.4733 0.124367 -0.872078
v 37.7548 -135.289 1212.34
vn -0.118236 0.342416 -0.932079
v 38.6108 -134.434 1212.39
vn -0.786315 -0.228487 0.574023
v 39.5499 -146.895 1232.1
vn -0.639526 0.160919 0.751739
v 39.8621 -146.621 1232.38
vn -0.241527 -0.138099 0.960517
v 39.0887 -132.765 1232.72
vn -0.0778827 0.181493 0.980303
v 39.1516 -131.566 1232.72
vn 0.214348 0.0685983 0.974345
v 40.0032 -132.513 1232.75
vn -0.763236 0.379126 0.523196
v 38.6824 -144.684 1230.35
vn -0.836446 -0.443447 0.322045
v 38.9517 -146.531 1231.18
vn -0.786566 0.0870982 0.611333
v 39.0464 -146.246 1231.49
vn -0.70677 0.393708 0.587768
v 39.5525 -143.218 1230.1
vn -0.64512 0.384353 0.660373
v 39.9916 -144.198 1231.57
vn -0.509656 -0.118263 0.852212
v 40.6604 -141.196 1230.77
vn 0.530903 0.0821573 0.843441
v 40.5871 -132.836 1232.53
vn 0.185515 0.463169 0.866636
v 39.4671 -131.277 1232.59
vn 0.451656 0.657007 0.603613
v 39.776 -131.117 1232.32
vn 0.415693 0.903042 -0.108232
v 39.8056 -130.55 1230.84
vn 0.468321 0.838041 0.279932
v 40.0953 -130.755 1231.43
vn 0.538504 0.363003 0.760422
v 40.3347 -131.919 1232.47
vn 0.612942 0.787585 -0.0633383
v 40.3879 -130.904 1230.83
vn 0.696164 0.625617 0.352077
v 40.6722 -131.212 1231.42
vn 0.770839 0.296301 0.563927
v 41.1538 -132.546 1231.97
vn 0.823872 0.564475 0.0510115
v 41.1001 -131.601 1230.81
vn 0.188326 0.627033 -0.755886
v 39.996 -132.649 1228.05
vn 0.289325 0.84209 -0.455166
v 39.2005 -130.632 1229.94
vn 0.343085 0.710706 -0.614158
v 39.753 -131.554 1229
vn 0.578169 0.725305 -0.373702
v 40.378 -131.094 1230.22
vn -0.592071 0.353145 -0.72439
v 39.1243 -137.819 1225.78
vn -0.277597 0.430958 -0.858613
v 40.1262 -135.897 1226.19
vn 0.028827 0.59293 -0.804738
v 41.0715 -135.057 1226.53
vn -0.537906 0.588231 -0.603855
v 38.9643 -140.871 1224.04
vn -0.433019 0.842823 -0.319598
v 38.9245 -141.632 1222.95
vn -0.0243289 0.994681 -0.100089
v 39.5134 -141.858 1221.14
vn -0.633085 0.712587 -0.302362
v 38.8827 -142.205 1219.33
vn -0.299755 0.946517 -0.119385
v 39.8178 -141.782 1219.04
vn 0.0098284 0.999235 0.0378564
v 40.4209 -141.739 1218.14
vn 0.226283 0.0827577 0.97054
v 39.6183 -134.124 1219.24
vn 0.56633 0.345441 0.748292
v 40.2498 -133.54 1218.77
vn -0.603661 -0.362074 -0.710279
v 40.142 -151.763 1215.69
vn -0.78218 -0.619556 0.0659226
v 40.3411 -152.084 1215.98
vn -0.795864 -0.602802 0.0568373
v 38.2219 -149.306 1217.06
vn -0.826838 -0.553597 -0.0993383
v 38.6856 -149.906 1216.35
vn -0.701571 -0.109437 -0.704147
v 38.769 -149.3 1216.08
vn -0.644409 -0.210326 -0.735187
v 39.3351 -150.22 1215.74
vn -0.676118 0.0248054 -0.736375
v 39.2019 -147.803 1215.61
vn -0.710503 0.406775 -0.574212
v 38.4726 -144.522 1217.43
vn -0.689706 0.284715 -0.665764
v 38.8508 -145.412 1216.51
vn -0.766413 0.470453 -0.437362
v 39.9458 -142.788 1217.21
vn -0.986973 -0.0615419 0.148649
v 40.0259 -142.782 1216.91
vn -0.904137 0.229585 -0.360315
v 39.9267 -143.956 1216.26
vn -0.982785 -0.0780137 0.167471
v 39.904 -143.945 1215.96
vn -0.630365 0.70985 -0.31425
v 40.2165 -141.922 1217.84
vn -0.807987 -0.276008 0.520554
v 40.127 -141.616 1217.8
vn 0.717175 0.472227 0.512506
v 40.6622 -133.239 1218.14
vn 0.77734 0.597748 0.196062
v 41.2355 -133.227 1216.94
vn -0.751713 0.141345 -0.644165
v 39.8646 -146.621 1215.2
vn -0.718588 -0.0400997 -0.694279
v 40.1019 -147.825 1214.89
vn -0.960702 -0.275032 0.0375409
v 40.2515 -147.524 1214.64
vn -0.919722 -0.391683 -0.0263753
v 40.262 -147.772 1213.13
vn -0.696165 -0.105871 -0.710032
v 40.513 -148.738 1214.6
vn -0.874597 -0.226872 -0.428496
v 40.4495 -148.135 1214.62
vn -0.907169 -0.359905 -0.217972
v 40.6169 -148.433 1214.31
vn -0.922873 -0.384803 -0.0152626
v 40.4688 -148.125 1214.32
vn -0.985488 -0.0615076 -0.158212
v 39.9924 -146.019 1214.99
vn 0.592723 0.620891 -0.513004
v 39.7131 -132.317 1214.27
vn 0.739993 0.652135 -0.164715
v 40.5077 -132.246 1215.77
vn -0.932099 -0.268857 -0.242709
v 40.0326 -146.507 1211.67
vn -0.84344 -0.377657 -0.382078
v 40.6612 -147.409 1210.74
vn -0.962717 -0.266885 0.0441423
v 38.7072 -141.075 1213.06
vn -0.906089 -0.187651 -0.379197
v 38.8749 -140.742 1211.87
vn 0.203189 0.618549 -0.75902
v 40.6867 -136.668 1211.42
vn 0.251811 0.503624 -0.82641
v 39.5992 -134.489 1212.5
vn -0.629533 0.0398972 -0.775949
v 39.9198 -139.835 1210.17
vn -0.445926 0.219914 -0.867633
v 40.5511 -139.255 1209.82
vn -0.386949 0.298275 -0.872527
v 39.6981 -138.335 1210.58
vn -0.0364408 0.492329 -0.869646
v 40.2129 -137.467 1210.79
vn -0.716824 -0.490921 0.495137
v 42.115 -149.539 1233.78
vn -0.609177 -0.0512433 0.791377
v 40.9984 -147.917 1233.37
vn -0.474254 -0.129337 0.870836
v 42.1328 -149.199 1233.93
vn -0.477183 0.325085 0.816466
v 41.4398 -145.227 1233.13
vn -0.391537 0.119795 0.912331
v 42.2771 -146.446 1233.89
vn -0.196297 0.584831 0.787045
v 42.7647 -142.874 1232.62
vn -0.57194 0.40597 0.712792
v 41.2845 -142.456 1231.5
vn -0.622366 0.203737 0.755746
v 41.0127 -141.912 1231.05
vn -0.399347 0.353422 0.84594
v 41.6158 -141.869 1231.39
vn -0.249671 0.529626 0.810654
v 42.2144 -141.909 1231.67
vn 0.170597 -0.132896 0.976338
v 42.2779 -140.699 1231.35
vn -0.0869245 0.316813 0.944496
v 42.5458 -141.319 1231.47
vn -0.0160155 0.556306 0.830823
v 42.8133 -141.946 1231.82
vn 0.161401 0.162319 0.973449
v 42.8928 -140.429 1231.3
vn 0.606514 0.135632 0.783418
v 42.7665 -137.107 1231.03
vn 0.814259 0.183758 0.550649
v 42.5091 -134.988 1230.99
vn 0.869732 0.350327 0.347616
v 42.7366 -134.678 1230.4
vn 0.797609 0.594675 -0.100899
v 43.2796 -135.244 1228.58
vn 0.860295 0.400219 0.315782
v 43.6709 -136.197 1229.45
vn -0.718563 -0.684477 0.123117
v 40.8902 -149.981 1226.26
vn 0.636678 0.707725 -0.306213
v 42.8727 -135.081 1227.69
vn 0.3994 0.698288 -0.594031
v 41.7107 -134.325 1227.41
vn -0.757743 -0.632468 0.160653
v 42.7128 -152.149 1222.89
vn 0.0178598 0.89473 -0.44625
v 41.9042 -142.097 1220.3
vn -0.215666 0.865989 -0.451167
v 41.0263 -141.652 1221.45
vn -0.348038 0.707589 -0.614969
v 41.3827 -140.583 1222.69
vn 0.307676 0.951421 -0.0115592
v 41.2991 -142.179 1219.33
vn 0.360674 0.907913 0.213561
v 41.3082 -142.005 1218.58
vn -0.206764 0.502591 0.839435
v 41.6004 -142.161 1218.73
vn 0.458005 0.888949 -0.000643533
v 41.8841 -142.481 1219.02
vn 0.102916 0.982933 -0.152483
v 42.1816 -142.535 1219.32
vn -0.360866 0.0291775 0.932161
v 43.0707 -142.425 1219.33
vn -0.437806 -0.155003 0.885607
v 41.3238 -141.706 1218.6
vn 0.53962 0.342295 0.769184
v 42.4733 -136.97 1218.96
vn 0.662528 0.446766 0.601212
v 42.5377 -135.742 1218.13
vn -0.477672 -0.633941 -0.608234
v 42.4671 -154.285 1215.56
vn -0.687566 -0.633151 -0.355489
v 41.6051 -153.536 1215.63
vn -0.47769 -0.455802 -0.751037
v 41.9157 -153.342 1215.22
vn -0.676072 -0.248839 -0.693546
v 40.9179 -149.049 1214.29
vn -0.582521 -0.33617 -0.74004
v 41.7952 -150.897 1214.22
vn -0.833271 -0.552401 -0.0226334
v 41.8792 -150.59 1213.94
vn -0.737036 -0.661278 -0.139604
v 42.3283 -151.202 1212.41
vn -0.859185 -0.481653 -0.172662
v 41.5072 -149.897 1211.86
vn -0.757826 -0.535948 -0.372102
v 42.0755 -150.293 1210.94
vn -0.645378 -0.690509 -0.326624
v 42.6337 -151.105 1211.22
vn 0.485428 0.675433 -0.555112
v 42.8186 -136.114 1213.24
vn -0.848581 -0.102286 -0.519084
v 40.8658 -145.566 1209.31
vn -0.868755 -0.0189901 -0.494879
v 41.7379 -145.271 1208.15
vn -0.769006 0.0367068 -0.638186
v 41.0962 -143.766 1209.07
vn -0.477076 0.222101 -0.850335
v 42.2307 -141.6 1208.55
vn -0.330849 0.466482 -0.820325
v 42.8871 -140.54 1208.68
vn -0.20013 0.435495 -0.877663
v 41.1662 -138.982 1209.7
vn -0.817301 -0.330262 -0.472171
v 42.9844 -147.684 1206.53
vn -0.85432 0.143105 -0.499658
v 41.9798 -144.371 1207.85
vn -0.870744 -0.141568 -0.470919
v 42.769 -146.151 1205.99
vn -0.774517 0.341052 -0.532736
v 42.2626 -143.185 1207.89
vn -0.832714 0.3762 -0.406277
v 43.0914 -142.865 1206.1
vn -0.888498 0.139288 -0.437231
v 42.8403 -144.343 1205.75
vn -0.238271 -0.226497 0.944418
v 44.4501 -150.841 1234.44
vn -0.295494 -0.0553878 0.953738
v 43.346 -148.979 1234.43
vn -0.162888 0.110969 0.980384
v 44.3544 -146.935 1234.64
vn -0.655997 -0.605793 0.450203
v 44.6498 -152.628 1233.68
vn -0.346006 -0.475708 0.808691
v 44.9559 -152.653 1233.93
vn -0.457674 -0.333587 0.824169
v 42.9841 -150.152 1234.12
vn -0.268202 0.283511 0.920701
v 43.5193 -145.673 1234.18
vn 0.0519521 0.410817 0.910236
v 45.3321 -145.475 1234.39
vn -0.14749 0.484848 0.862072
v 43.6148 -143.849 1233.47
vn 0.0980836 0.678927 0.727624
v 43.6471 -143.234 1233.01
vn 0.396819 0.734801 0.550093
v 43.9506 -143.175 1232.81
vn 0.38509 0.696349 0.605643
v 44.5168 -143.835 1233.39
vn 0.475778 0.686671 0.549653
v 44.8307 -143.578 1232.48
vn 0.308353 0.525112 0.793206
v 45.4629 -142.98 1231.61
vn 0.232104 0.629291 0.741702
v 43.4126 -141.976 1231.77
vn 0.215065 0.369312 0.904077
v 43.7943 -141.381 1231.37
vn 0.509329 0.459888 0.727384
v 44.7075 -140.197 1230.54
vn 0.502657 0.275629 0.819368
v 43.8555 -139.257 1230.72
vn -0.76589 -0.626554 0.144371
v 43.752 -152.697 1229.47
vn 0.727812 0.419321 0.542641
v 45.0799 -139.584 1229.63
vn 0.766545 0.639218 -0.0617122
v 44.2947 -136.608 1227.03
vn 0.662451 0.696135 -0.276687
v 44.5632 -137.218 1225.81
vn -0.797235 -0.579347 0.169629
v 44.7549 -155.549 1222.47
vn -0.131511 0.611109 -0.780545
v 43.5942 -138.51 1223.37
vn 0.513291 0.715313 -0.474193
v 44.2525 -137.414 1224.91
vn -0.160167 0.688292 -0.707531
v 43.4933 -140.436 1222
vn 0.171381 0.720737 -0.67169
v 44.0316 -141.628 1220.9
vn 0.0939148 0.612231 -0.785082
v 44.3923 -140.478 1221.86
vn 0.44218 0.640222 -0.628166
v 44.7376 -139.621 1222.63
vn -0.0283435 0.938781 -0.343347
v 43.6971 -142.279 1219.93
vn -0.0749266 -0.0138747 0.997093
v 44.0027 -142.181 1219.57
vn 0.267795 0.767594 0.58231
v 44.2867 -142.493 1219.93
vn 0.200724 0.189286 0.961187
v 44.3022 -142.197 1219.58
vn 0.459743 0.38912 0.798262
v 44.6496 -141.302 1219.24
vn 0.694667 0.480832 0.535012
v 45.6304 -139.784 1217.34
vn 0.76164 0.505017 0.406032
v 44.3636 -136.683 1216.53
vn -0.634002 -0.595412 -0.493483
v 43.2097 -152.161 1213.88
vn -0.412023 -0.558087 -0.720261
v 43.7162 -153.379 1214.44
vn -0.664969 -0.6561 -0.356859
v 44.1154 -153.42 1214.14
vn 0.776503 0.620314 0.110692
v 44.6373 -136.656 1215.33
vn 0.628626 0.707999 -0.321817
v 44.5833 -136.835 1214.42
vn -0.670731 -0.703191 -0.235886
v 43.7741 -152.276 1212.08
vn -0.666431 -0.65517 -0.35584
v 44.0992 -151.803 1210.29
vn -0.626418 -0.617621 -0.475547
v 42.9491 -150.821 1210.32
vn -0.728169 -0.528485 -0.436434
v 43.1882 -149.259 1208.28
vn 0.110766 0.771255 -0.626814
v 44.1012 -140.301 1208.63
vn -0.749407 -0.520383 -0.409378
v 44.4267 -149.54 1205.87
vn -0.766106 0.553973 -0.325876
v 43.4081 -142.062 1206.43
vn -0.60927 0.354419 -0.70935
v 43.7613 -141.055 1207.67
vn -0.530981 0.797161 -0.287391
v 44.0551 -141.18 1206.76
vn 0.00770938 0.969786 -0.243834
v 44.3732 -140.843 1207.68
vn -0.255622 0.95276 -0.16403
v 44.3667 -140.967 1207.07
vn -0.28846 0.953301 -0.0894845
v 44.6684 -140.943 1206.47
vn 0.0824928 0.994156 0.0696273
v 44.9698 -140.924 1207.07
vn 0.323891 0.94554 -0.0323902
v 45.2658 -141.007 1207.67
vn -0.775791 -0.240229 -0.583471
v 43.6356 -146.454 1204.78
vn -0.778628 0.0345201 -0.626535
v 43.5735 -144.639 1204.52
vn -0.661613 -0.18382 -0.726965
v 44.1107 -145.852 1204.04
vn -0.600643 -0.0127763 -0.799415
v 44.4677 -144.955 1203.63
vn -0.749626 0.308426 -0.585605
v 43.6513 -143.153 1204.89
vn -0.667743 0.563173 -0.486781
v 44.1091 -141.986 1205.23
vn -0.542276 0.476267 -0.692175
v 44.8827 -142.585 1204.01
vn -0.579913 0.223787 -0.783339
v 44.8207 -143.768 1203.54
vn -0.434975 0.758894 -0.484641
v 45.4807 -140.857 1205.28
vn -0.220132 0.972244 -0.0792699
v 45.5815 -140.716 1205.58
vn -0.428256 0.0834734 -0.899794
v 45.4186 -144.684 1203.04
vn -0.0649709 -0.264877 0.962091
v 45.9164 -151.522 1234.52
vn -0.129272 -0.0825953 0.988163
v 45.4267 -149.403 1234.84
vn 0.0420846 -0.0245969 0.998811
v 47.2397 -149.201 1234.93
vn 0.113315 0.218549 0.969225
v 46.7527 -147.03 1234.78
vn 0.406527 0.540109 0.736898
v 47.0664 -146.775 1234.6
vn -0.295671 -0.724875 0.622201
v 46.6216 -155.263 1232.39
vn -0.112874 -0.486705 0.866244
v 45.839 -153 1233.94
vn 0.00465205 -0.583944 0.81178
v 47.2599 -154.547 1233.07
vn 0.421222 0.524512 0.739905
v 47.1486 -145.208 1232.64
vn 0.553993 0.630225 0.543975
v 47.3972 -146.196 1233.31
vn 0.396946 0.560501 0.726824
v 47.229 -143.673 1231.59
vn 0.731833 0.576991 0.362632
v 47.5454 -143.369 1231.03
vn 0.749376 0.430571 0.503035
v 47.84 -144.616 1231.87
vn 0.90123 0.41426 0.127174
v 47.9803 -143.981 1230.69
vn 0.669567 0.588541 0.4531
v 45.8592 -141.149 1230.26
vn 0.487026 0.581793 0.651401
v 46.4104 -142.096 1230.7
vn 0.651313 0.636134 0.413672
v 46.7084 -142.142 1230.45
vn 0.864241 0.40618 0.296827
v 47.4502 -143.258 1228.01
vn 0.8978 0.43546 -0.0657977
v 47.5921 -143.329 1229.81
vn 0.89706 0.439534 0.0457549
v 47.6331 -143.889 1228.59
vn 0.847925 0.476918 0.231458
v 46.2645 -140.805 1228.39
vn 0.78632 0.471347 0.399415
v 47.9998 -142.624 1226.23
vn 0.771059 0.614455 -0.167071
v 46.5481 -139.514 1225.44
vn 0.396858 0.624742 -0.672459
v 45.7889 -142.491 1220.83
vn 0.537855 0.602047 -0.590128
v 47.2202 -143.841 1220.78
vn -0.686315 -0.722212 -0.0859147
v 45.2983 -157.584 1217.6
vn -0.438355 -0.840941 -0.317274
v 46.1585 -158.367 1218.17
vn -0.716833 -0.691137 0.0920878
v 46.4449 -158.635 1218.77
vn -0.16529 -0.855621 -0.490501
v 46.7493 -158.558 1218.17
vn 0.777278 0.310081 0.547438
v 47.9981 -145.343 1218.03
vn 0.474012 0.693933 -0.542006
v 46.1112 -143.506 1219.89
vn 0.485438 0.873161 0.0440445
v 46.331 -143.612 1219.59
vn 0.658913 0.602638 -0.450179
v 46.8909 -144.392 1219.56
vn -0.326427 -0.745263 -0.581403
v 45.3122 -157.319 1217.01
vn -0.21908 -0.787595 -0.575932
v 46.1864 -157.835 1217.29
vn -0.116373 -0.743009 -0.659086
v 47.1049 -157.506 1216.71
vn -0.244748 -0.720258 -0.649097
v 46.871 -156.237 1215.55
vn 0.779715 0.475926 0.406865
v 47.7874 -142.288 1216.94
vn 0.735816 0.329433 0.59165
v 47.8222 -143.819 1217.69
vn 0.831108 0.487161 0.268204
v 46.051 -139.774 1216.42
vn 0.697442 0.510759 0.502693
v 46.5665 -141.044 1217.58
vn 0.804027 0.593358 0.038286
v 46.8537 -141.027 1216.68
vn -0.407107 -0.752416 -0.517816
v 46.3028 -155.614 1214.97
vn 0.860744 0.400388 0.314338
v 47.1349 -139.737 1213.74
vn 0.715758 0.693781 -0.0797398
v 46.5876 -138.714 1213.46
vn -0.627896 -0.752819 -0.197509
v 46.3175 -155.334 1212.58
vn 0.857256 0.505471 0.0980389
v 47.433 -139.78 1212.82
vn 0.618348 0.716404 -0.323127
v 47.6932 -140.293 1211.6
vn 0.445162 0.836423 -0.31973
v 46.1665 -141.019 1208.87
vn -0.702382 -0.625775 -0.339212
v 46.881 -153.313 1206.95
vn 0.691523 0.649395 0.316356
v 46.4345 -141.638 1206.75
vn 0.691095 0.722735 0.00648882
v 47.7527 -143.13 1206.7
vn 0.496353 0.825898 0.267445
v 45.8583 -141.166 1206.77
vn 0.613458 0.789723 -0.00278731
v 46.2297 -141.57 1207.35
vn -0.665761 -0.573083 -0.477847
v 47.3583 -152.671 1205.06
vn -0.562758 -0.487956 -0.667235
v 47.4233 -151.43 1203.85
vn -0.673605 -0.394914 -0.624739
v 45.7188 -149.56 1204.07
vn -0.55798 -0.207805 -0.803415
v 45.4995 -148.014 1203.6
vn -0.362754 0.60968 -0.704769
v 45.8286 -141.734 1204.05
vn -0.157176 0.575091 -0.802848
v 46.731 -141.712 1203.75
vn 0.701846 0.533957 0.47149
v 47.6499 -142.493 1205.82
vn 0.0391403 0.618275 -0.784987
v 47.9266 -141.827 1203.55
vn -0.309154 0.843947 -0.438381
v 45.8824 -140.707 1205.28
vn 0.292219 0.919852 0.261689
v 46.18 -140.761 1205.58
vn 0.598372 0.679894 0.423904
v 46.4621 -141.11 1205.87
vn 0.357732 0.929289 0.0919192
v 46.4786 -140.795 1205.28
vn -0.234003 0.719033 -0.654397
v 46.7659 -141.046 1204.37
vn -0.00647632 0.687159 -0.726479
v 47.6551 -141.274 1204.06
vn -0.457517 -0.313653 -0.832046
v 46.9517 -148.964 1202.81
vn -0.412047 -0.0973234 -0.90595
v 46.4782 -146.535 1202.83
vn -0.412786 -0.0632336 -0.908631
v 47.0151 -147.755 1202.52
vn -0.410247 -0.134458 -0.902008
v 45.9103 -145.907 1202.89
vn -0.215921 0.0913845 -0.972125
v 46.5728 -144.729 1202.62
vn -0.261394 0.0133843 -0.965139
v 47.0935 -146.258 1202.58
vn -0.343191 0.359713 -0.867656
v 45.767 -142.908 1203.33
vn -0.127691 0.33363 -0.934016
v 47.2502 -143.268 1202.81
vn 0.0046351 0.446816 -0.894614
v 47.8804 -142.707 1203.01
vn 0.165441 -0.169356 0.97157
v 48.3714 -150.536 1234.66
vn 0.335353 0.201631 0.920263
v 49.3691 -148.696 1234.5
vn 0.115209 -0.409585 0.904968
v 47.9516 -152.813 1234.02
vn 0.151653 -0.611947 0.776223
v 48.4586 -154.604 1232.89
vn 0.310126 -0.490502 0.814389
v 49.8248 -153.779 1233.05
vn 0.721375 0.688747 0.0724345
v 49.4008 -148.09 1232.65
vn 0.347492 -0.048427 0.936432
v 49.9214 -149.622 1234.36
vn 0.580334 0.593251 0.557912
v 49.9689 -148.714 1234.12
vn 0.611552 0.710974 0.34716
v 47.9492 -147.129 1234.18
vn 0.732998 0.573091 0.366444
v 47.9775 -146.588 1233
vn 0.695476 0.429008 0.576425
v 48.0002 -146.154 1232.62
vn 0.834554 0.47408 0.280658
v 49.2415 -147.681 1231.46
vn 0.898736 0.426565 0.101569
v 48.6357 -145.806 1230.32
vn 0.154586 -0.921518 0.356241
v 49.4123 -159.336 1227.15
vn -0.577558 -0.755637 0.308934
v 48.2603 -158.075 1229.3
vn 0.0209967 -0.818971 0.573451
v 48.8691 -158.236 1229.29
vn -0.128373 -0.902324 0.4115
v 49.1239 -159.107 1227.76
vn 0.842858 0.492798 0.216197
v 49.9142 -147.654 1229.66
vn -0.727102 -0.666791 0.163441
v 48.4999 -159.548 1224.74
vn -0.568144 -0.786803 0.241152
v 48.8071 -159.419 1226.55
vn -0.15052 -0.95299 0.262972
v 49.094 -159.677 1226.24
vn 0.123859 -0.977493 0.17078
v 49.3813 -159.927 1225.03
vn 0.800425 0.467827 0.374776
v 48.7926 -145.409 1227.34
vn -0.665371 -0.732825 0.1423
v 48.4822 -159.887 1223.23
vn -0.247206 -0.968839 -0.0154869
v 48.475 -160.024 1222.32
vn -0.532375 -0.83241 0.153853
v 48.7784 -159.967 1224.13
vn -0.0776961 -0.991495 0.104405
v 49.0757 -160.026 1224.43
vn 0.115168 -0.993341 -0.00308681
v 49.375 -160.048 1223.53
vn 0.842582 0.529953 0.0959451
v 48.3859 -142.602 1225.03
vn 0.853373 0.516116 -0.0733408
v 49.207 -143.773 1222.89
vn 0.874177 0.458691 -0.15943
v 49.6679 -144.739 1224.06
vn -0.61302 -0.787776 0.0601346
v 48.1845 -159.834 1222.03
vn -0.12923 -0.963852 -0.232999
v 48.1912 -159.707 1220.53
vn 0.120465 -0.968368 -0.218523
v 49.0869 -159.813 1221.13
vn 0.912067 0.409148 0.0270312
v 50.176 -145.883 1221.62
vn 0.671836 0.612168 -0.416997
v 49.2251 -144.053 1222.28
vn -0.376627 -0.905738 -0.1944
v 47.3107 -159.31 1219.64
vn -0.0180339 -0.911878 -0.410065
v 47.6136 -159.264 1219.35
vn 0.049598 -0.812614 -0.580688
v 48.2666 -158.267 1217.59
vn 0.734965 0.521143 -0.433863
v 48.5608 -146.922 1219.35
vn 0.290999 0.617725 -0.730572
v 49.7709 -146.76 1219.79
vn -0.133951 -0.983757 -0.119497
v 48.6545 -156.598 1215.54
vn 0.0880613 -0.833307 -0.545751
v 49.2416 -156.861 1216.13
vn 0.189211 -0.876693 -0.442276
v 49.5532 -156.646 1215.84
vn -0.306496 -0.924712 -0.22576
v 47.4705 -156.262 1215.25
vn 0.695188 0.373055 0.614445
v 49.275 -144.758 1216.58
vn 0.76961 0.610512 0.187017
v 49.1221 -144.138 1216.27
vn 0.432311 0.387489 -0.814223
v 50.0763 -151.009 1213.64
vn 0.831116 0.502063 0.239122
v 48.2451 -143.408 1213.9
vn 0.705278 0.70879 -0.0141351
v 49.004 -144.198 1214.47
vn 0.755984 0.608954 -0.24013
v 50.1252 -144.613 1211.16
vn 0.861851 0.370327 0.346511
v 48.6366 -142.475 1212.43
vn 0.877094 0.456352 0.149827
v 48.945 -142.771 1211.82
vn 0.795807 0.475797 0.374577
v 49.1138 -143.401 1212.4
vn 0.89912 0.426543 -0.0982037
v 49.2336 -143.355 1210.9
vn 0.879452 0.471481 -0.065342
v 48.6333 -141.822 1210.95
vn -0.534045 -0.811246 -0.238069
v 49.2517 -156.668 1209.53
vn 0.931447 0.363854 0.00410555
v 49.7044 -145.118 1209.04
vn 0.898759 0.437075 0.0345994
v 49.5897 -144.485 1208.31
vn 0.680335 0.694132 -0.235213
v 49.0132 -144.022 1207.27
vn 0.719469 0.692695 0.0503823
v 50.154 -145.182 1205.43
vn 0.64099 0.742628 0.194
v 48.2398 -141.583 1204.05
vn 0.365291 0.764391 -0.53129
v 48.2348 -141.678 1203.75
vn 0.75233 0.533059 0.387102
v 49.3748 -142.81 1203.71
vn -0.194932 0.077713 -0.977733
v 48.8451 -147.229 1201.92
vn -0.184429 -0.14732 -0.971742
v 49.0976 -148.143 1201.91
vn 0.00830486 0.23363 -0.97229
v 49.507 -146.065 1202.03
vn 0.226758 0.569856 -0.789838
v 48.5103 -142.153 1203.4
vn 0.154839 0.408569 -0.899498
v 48.4795 -142.74 1203.05
vn 0.0590438 0.291664 -0.954697
v 48.4175 -143.925 1202.63
vn 0.534458 0.603051 -0.592186
v 49.384 -142.679 1203.42
vn 0.327392 0.410432 -0.851093
v 49.3602 -143.133 1203.1
vn 0.468997 0.535444 -0.702382
v 50.0644 -144.026 1203.07
vn 0.751539 0.563859 0.342422
v 50.3283 -144.051 1203.37
vn 0.483262 -0.384745 0.786403
v 51.596 -152.661 1232.79
vn 0.326263 -0.295991 0.897742
v 50.0963 -152.017 1233.81
vn 0.485478 -0.0538497 0.872589
v 51.0893 -150.265 1233.8
vn 0.488783 -0.239998 0.838744
v 51.3307 -151.392 1233.44
vn 0.679248 0.0347454 0.733086
v 51.9657 -150.739 1233.16
vn 0.609704 0.768423 -0.194391
v 52.5302 -151.198 1232.54
vn 0.584655 0.319845 0.745572
v 50.5368 -149.342 1234.03
vn 0.69256 0.707011 0.143168
v 50.5534 -149.026 1233.58
vn 0.725199 0.674795 -0.13689
v 50.8273 -149.531 1232.6
vn 0.677466 0.18855 0.710978
v 51.4051 -149.971 1233.53
vn 0.154227 -0.714611 0.682308
v 49.8048 -157.579 1229.92
vn 0.324014 -0.635901 0.700461
v 51.3648 -156.474 1230.42
vn 0.678443 0.729108 -0.0900881
v 51.6546 -150.944 1231.35
vn 0.694876 0.718992 -0.0140412
v 51.6612 -150.817 1229.85
vn 0.815717 0.56884 0.105013
v 50.2569 -148.951 1230.82
vn 0.237795 -0.861212 0.449185
v 50.2233 -158.736 1228.08
vn 0.292545 -0.769974 0.56706
v 50.6946 -157.797 1229.31
vn 0.278249 -0.928104 0.247387
v 50.6067 -159.474 1225.95
vn 0.655391 0.337226 0.675826
v 52.0332 -149.451 1226.29
vn 0.811557 0.5691 0.132289
v 51.3006 -146.368 1225.21
vn 0.731146 0.420053 0.53757
v 51.5534 -147.141 1225.78
vn 0.880448 0.47413 -0.00361402
v 51.848 -147.252 1225.18
vn 0.164419 -0.981468 -0.0984179
v 49.6794 -159.971 1222.63
vn 0.20404 -0.975112 0.0867411
v 49.9821 -159.927 1224.13
vn 0.300463 -0.953782 0.00474317
v 50.8943 -159.719 1223.54
vn 0.787856 0.283083 -0.546944
v 51.9301 -149.941 1223.28
vn 0.793291 0.419021 -0.441713
v 51.6561 -147.556 1224.27
vn 0.796046 0.53835 -0.276568
v 51.2309 -146.354 1224.91
vn 0.18962 -0.915663 -0.354409
v 50.3193 -159.225 1219.95
vn 0.292629 -0.936453 -0.193454
v 50.9057 -159.501 1221.45
vn 0.368296 -0.866077 -0.338036
v 51.5424 -158.816 1219.97
vn 0.79405 0.31996 0.516828
v 52.2423 -151.417 1222.03
vn 0.760958 0.404686 0.507122
v 52.4706 -150.196 1221.17
vn 0.88648 0.351604 -0.300878
v 50.8947 -148.245 1222.44
vn 0.88353 0.368055 0.289673
v 51.0406 -148.641 1221.82
vn 0.85469 0.461055 0.238605
v 51.0238 -147.708 1220.96
vn 0.204094 -0.856427 -0.474214
v 50.0526 -158.582 1218.47
vn 0.318776 -0.762057 -0.563605
v 50.3889 -157.897 1217.6
vn 0.402402 -0.790136 -0.46234
v 51.6484 -158.186 1218.79
vn 0.83693 0.219687 -0.501285
v 51.921 -152.175 1218.4
vn 0.822106 0.510619 -0.251815
v 52.2999 -153.095 1218.37
vn 0.815504 0.499811 -0.291792
v 51.5368 -149.742 1218.18
vn 0.943929 0.228036 -0.238743
v 51.8185 -150.368 1218.46
vn 0.757721 0.152964 -0.634398
v 52.2203 -151.612 1219.07
vn 0.306626 0.710679 -0.633179
v 50.2356 -149.359 1217.77
vn 0.832719 0.495593 -0.246914
v 51.4808 -148.527 1219.73
vn 0.236012 -0.813134 -0.532082
v 51.9859 -156.085 1216.16
vn 0.95647 0.284391 0.0654697
v 52.2602 -152.419 1216.29
vn 0.825827 0.367833 0.427444
v 52.3356 -152.413 1215.99
vn 0.550311 0.770172 -0.322478
v 50.4186 -149.942 1216.98
vn 0.481257 0.663758 -0.572554
v 51.1186 -149.706 1217.59
vn 0.567294 0.708408 -0.419923
v 51.37 -150.64 1216.65
vn 0.722921 0.681594 -0.113205
v 51.3676 -150.688 1216.35
vn 0.808111 0.494642 -0.319821
v 51.8378 -150.627 1217.25
vn 0.832476 0.335676 0.440801
v 51.9197 -151.617 1216.32
vn 0.61434 0.101096 0.782538
v 52.2897 -150.289 1215.5
vn 0.628991 0.210753 0.748301
v 50.8376 -149.336 1216.2
vn 0.605255 0.216249 0.766096
v 50.4112 -146.007 1216.21
vn -0.029727 -0.94016 0.339434
v 51.9121 -157.495 1214.01
vn -0.0980553 0.165125 -0.981386
v 50.4481 -151.035 1213.82
vn 0.099274 0.565752 -0.818577
v 50.4274 -151.431 1213.62
vn 0.25821 -0.588533 -0.766131
v 50.4805 -150.417 1213.36
vn 0.619472 0.784008 -0.0398133
v 50.4212 -151.548 1213.02
vn -0.394956 0.497393 -0.772405
v 50.7323 -151.345 1213.66
vn -0.633944 -0.0489062 -0.771831
v 50.8791 -151.052 1213.64
vn -0.488245 0.769698 -0.411317
v 50.7176 -151.626 1213.31
vn -0.771978 0.535089 -0.343116
v 51.0255 -151.349 1213.33
vn 0.183786 -0.596187 -0.781527
v 50.7856 -150.328 1213.36
vn 0.233153 0.972205 0.0213783
v 50.7344 -151.623 1213.01
vn -0.692255 0.649101 0.315358
v 51.0073 -151.337 1213.03
vn -0.908231 -0.228998 0.350253
v 50.9982 -150.436 1213.06
vn 0.493465 -0.836239 0.239157
v 50.7919 -150.207 1213.06
vn -0.708408 -0.426344 -0.562484
v 51.0629 -150.769 1213.35
vn 0.861398 0.484724 0.151777
v 52.5572 -147.558 1214.36
vn 0.745988 0.476668 0.46507
v 51.6618 -146.642 1215.29
vn 0.743844 0.667093 -0.0410338
v 51.6984 -146.301 1214.1
vn -0.349914 -0.922876 -0.160813
v 50.403 -157.629 1210.7
vn -0.0907948 -0.98917 0.115325
v 51.8864 -157.984 1212.19
vn 0.899242 0.414273 0.140503
v 50.2485 -150.977 1212.44
vn 0.751723 -0.639213 0.162231
v 50.2928 -150.679 1212.45
vn 0.158212 0.764554 0.624841
v 50.451 -150.98 1212.24
vn 0.694236 -0.12798 0.708278
v 50.4666 -150.682 1212.28
vn -0.92111 -0.0643221 0.383951
v 50.9269 -150.722 1212.75
vn -0.450514 0.644597 0.617682
v 50.7503 -151.001 1212.38
vn -0.728397 -0.44371 0.522071
v 50.7676 -150.67 1212.45
vn 0.9652 0.26113 -0.0141656
v 52.1819 -149.524 1210.99
vn 0.940533 0.334559 -0.0588915
v 51.8235 -147.721 1211.95
vn 0.817348 0.437604 -0.374761
v 52.2015 -148.077 1212.54
vn 0.818247 0.550606 0.165244
v 50.6258 -145.271 1212.04
vn 0.790624 0.59241 -0.154803
v 50.986 -145.922 1212.91
vn -0.0218669 -0.96814 -0.249455
v 51.9105 -157.524 1209.21
vn 0.94344 0.138869 0.30106
v 52.2954 -149.509 1210.39
vn 0.630754 0.713306 -0.305522
v 50.9463 -147.261 1208.36
vn 0.605677 0.67653 -0.418883
v 51.5544 -147.123 1209.27
vn 0.923244 0.330717 0.19557
v 52.0806 -147.697 1210.45
vn 0.738711 0.646904 -0.189266
v 52.3971 -148.239 1208.63
vn 0.82556 0.543596 -0.151506
v 50.3801 -146.601 1208.39
vn 0.822256 0.563189 -0.0819353
v 51.5872 -146.497 1210.49
vn -0.204907 -0.904811 -0.37327
v 51.6775 -156.525 1205.64
vn -0.550915 -0.751275 -0.363427
v 49.9009 -155.745 1205.67
vn 0.730934 0.678674 0.0716767
v 50.9404 -147.373 1207.76
vn 0.881575 0.416206 0.222706
v 50.4427 -146.616 1207.79
vn 0.832491 0.504744 0.228455
v 50.5412 -145.989 1206.91
vn -0.499439 -0.637429 -0.586724
v 49.9315 -155.161 1204.79
vn -0.410763 -0.485196 -0.771919
v 50.2942 -153.973 1203.5
vn -0.303203 -0.617487 -0.725794
v 51.1452 -154.93 1203.8
vn -0.214824 -0.780389 -0.587234
v 51.689 -156.018 1204.76
vn -0.119302 -0.610291 -0.783142
v 52.0444 -154.969 1203.58
vn 0.742937 0.585368 0.324636
v 52.2548 -147.507 1204.76
vn 0.722171 0.591431 0.358719
v 51.0261 -145.739 1204.21
vn -0.254141 -0.314715 -0.914531
v 50.9418 -153.08 1202.78
vn -0.187026 -0.466433 -0.864559
v 51.5093 -153.715 1202.91
vn -0.0280689 -0.306888 -0.951332
v 52.1405 -153.136 1202.57
vn 0.0683554 -0.102493 -0.992382
v 52.2039 -151.927 1202.3
vn 0.0611181 0.0477998 -0.996985
v 50.3432 -147.304 1201.84
vn 0.314784 0.115794 -0.942074
v 51.5568 -147.076 1202.1
vn 0.176934 0.216852 -0.960036
v 50.9892 -146.444 1202.04
vn 0.372558 0.592949 -0.713872
v 51.3647 -145.01 1202.74
vn 0.271293 0.349211 -0.896912
v 51.3352 -145.573 1202.4
vn 0.737361 0.626099 0.253573
v 52.4004 -146.25 1203
vn 0.341588 0.169971 -0.924353
v 52.4861 -146.541 1202.59
vn 0.705995 -0.104613 0.700448
v 52.5806 -151.501 1232.53
vn 0.451292 -0.53762 0.71225
v 52.3104 -155.627 1230.58
vn 0.579057 -0.550238 0.601607
v 53.1951 -155.942 1229.66
vn 0.605507 -0.333359 0.722657
v 53.6182 -153.601 1230.85
vn 0.587964 -0.444254 0.675971
v 53.5564 -154.779 1230.25
vn 0.737205 -0.155024 0.657645
v 54.3831 -153.023 1230.38
vn 0.708912 -0.304229 0.636308
v 54.5185 -153.618 1230.01
vn 0.838725 -0.00714755 0.544508
v 54.5989 -153.024 1230.08
vn 0.607447 0.792341 -0.0566091
v 53.9841 -152.351 1230.11
vn 0.399715 -0.817514 0.414606
v 52.1715 -158.276 1227.49
vn 0.548385 -0.754987 0.359541
v 53.4051 -157.668 1227.13
vn 0.461621 -0.690131 0.557337
v 52.5356 -157.062 1229.04
vn 0.609429 -0.640084 0.467855
v 53.6952 -156.817 1228.15
vn 0.700656 -0.50875 0.500254
v 54.7055 -155.379 1228.5
vn 0.589039 0.795381 -0.142835
v 54.4447 -153.522 1227.36
vn 0.708499 0.700365 -0.0867092
v 54.5544 -152.933 1229.49
vn 0.792544 0.590398 0.152656
v 52.7996 -152.023 1227.41
vn 0.423452 -0.900646 0.0975927
v 52.1257 -159.15 1224.76
vn 0.448223 -0.853747 0.264975
v 52.4486 -158.721 1225.98
vn 0.559615 -0.809538 0.177424
v 53.0563 -158.59 1225.08
vn 0.660973 -0.692534 0.288985
v 54.3361 -157.098 1226.64
vn 0.790133 0.577373 0.205744
v 53.9493 -153.014 1226.48
vn 0.868831 0.491813 -0.0570257
v 54.2425 -153.152 1225.58
vn 0.750283 0.447158 0.486955
v 52.7532 -151.611 1226.83
vn 0.843171 0.339046 0.417265
v 53.4541 -151.001 1225.65
vn 0.837338 0.385297 0.387829
v 53.69 -152.231 1225.96
vn 0.94755 0.319506 0.00807064
v 53.8667 -152.217 1225.31
vn 0.579961 -0.814632 -0.00454024
v 53.6707 -158.331 1223.59
vn 0.689919 -0.715954 0.106871
v 54.4894 -157.623 1224.22
vn 0.911927 0.409756 0.0221205
v 52.6871 -152.962 1222.58
vn 0.80132 0.353306 -0.482765
v 53.074 -153.014 1223.48
vn 0.82508 0.558254 -0.0871522
v 53.0194 -153.563 1222.56
vn 0.695569 0.653516 -0.298495
v 53.4955 -153.926 1223.15
vn 0.856728 0.243357 -0.454747
v 53.7199 -152.779 1224.39
vn 0.77548 0.48978 -0.398429
v 54.0848 -153.699 1224.36
vn 0.899668 0.298526 -0.318559
v 53.5982 -150.981 1224.75
vn 0.460456 -0.878582 -0.126785
v 52.4946 -158.946 1222.07
vn 0.516741 -0.802473 -0.298356
v 53.0753 -158.227 1220.59
vn 0.634539 -0.756344 -0.159074
v 54.0956 -157.818 1221.81
vn 0.655987 -0.692686 -0.299781
v 54.07 -157.475 1220.62
vn 0.851507 0.418716 0.315615
v 52.958 -153.255 1221.97
vn 0.796341 0.255373 0.548294
v 52.9057 -152.642 1221.69
vn 0.968742 0.244424 0.0423684
v 53.607 -152.336 1220.5
vn 0.706542 0.705573 0.0544578
v 53.5872 -154.191 1221.94
vn 0.870226 0.323342 0.371694
v 53.696 -153.863 1221.05
vn 0.951691 0.296385 0.080255
v 53.8609 -153.851 1220.45
vn 0.815912 0.571124 0.0900327
v 54.0911 -154.474 1220.73
vn 0.872937 0.480671 -0.0832822
v 54.0875 -154.453 1220.13
vn 0.879509 0.475835 -0.00676206
v 52.7432 -150.189 1220.57
vn 0.87471 0.314867 0.36843
v 53.2369 -151.427 1220.83
vn 0.470485 -0.674043 -0.569483
v 52.838 -157.023 1218.13
vn 0.58051 -0.701107 -0.414074
v 53.4734 -157.402 1219.42
vn 0.659186 -0.515399 -0.547574
v 53.7839 -156.171 1218.14
vn 0.857705 -0.0213147 -0.513701
v 54.6027 -155.639 1218.89
vn 0.689858 0.347161 -0.635275
v 52.4675 -152.629 1218.99
vn 0.692826 0.283588 -0.663
v 53.2644 -152.587 1219.59
vn 0.923542 0.275509 -0.266769
v 53.7326 -153.523 1219.86
vn 0.762791 0.535119 -0.363039
v 53.7386 -154.392 1218.93
vn 0.790057 0.314648 -0.526125
v 52.578 -150.519 1219.66
vn 0.877593 0.328779 -0.348906
v 53.265 -151.697 1219.92
vn 0.718941 -0.272289 -0.639517
v 53.1009 -155.186 1216.8
vn 0.519451 -0.725335 -0.451729
v 52.9235 -155.392 1216.49
vn 0.837696 -0.530749 -0.128729
v 53.2505 -154.884 1216.52
vn 0.850927 0.315371 0.420076
v 53.3581 -154.578 1216.22
vn 0.471216 -0.539239 0.697981
v 54.0886 -156.09 1215.37
vn 0.89925 0.406528 0.161508
v 52.4554 -153.351 1216.86
vn 0.907292 0.419691 0.0260826
v 53.0403 -154.282 1216.83
vn 0.742699 0.207247 0.636747
v 52.811 -151.806 1215.13
vn 0.216899 -0.941807 0.256816
v 53.4028 -157.71 1213.11
vn 0.293934 -0.801093 0.521395
v 54.0432 -156.955 1214.39
vn 0.811448 0.143602 0.566507
v 53.7065 -151.915 1214.21
vn 0.935085 0.182059 0.304091
v 53.3883 -149.703 1214.29
vn 0.949314 0.310685 0.0477292
v 53.8779 -151.198 1213.34
vn 0.781171 0.218156 0.584961
v 52.8959 -148.797 1214.92
vn 0.8416 0.454213 -0.292233
v 52.9378 -148.447 1213.43
vn 0.920972 0.35211 0.166819
v 53.1592 -148.79 1214.32
vn 0.947129 0.31291 -0.0709545
v 53.4051 -149.383 1213.7
vn -0.0394664 -0.98768 -0.15143
v 52.1873 -157.976 1210.69
vn 0.204558 -0.978723 -0.0160252
v 53.3912 -157.933 1211.3
vn 0.849942 0.450229 -0.273666
v 53.9968 -152.063 1212.1
vn 0.836445 0.517037 -0.18175
v 54.5365 -153.275 1211.58
vn 0.840211 0.426124 -0.335355
v 52.7271 -150.764 1211.25
vn 0.855412 0.378204 -0.35388
v 53.5114 -150.847 1212.45
vn 0.209344 -0.940135 -0.268927
v 53.4009 -157.746 1210.1
vn 0.226144 -0.958731 -0.172321
v 53.7354 -157.097 1208.63
vn 0.850853 0.520917 0.0685182
v 53.2418 -151.961 1210.31
vn 0.926474 0.319451 0.19899
v 52.5682 -150.706 1210.35
vn 0.911121 0.197626 0.361666
v 53.1578 -149.802 1208.88
vn 0.893121 0.295307 0.339306
v 53.4373 -151.319 1208.87
vn -0.0124436 -0.949605 -0.313202
v 52.844 -156.91 1206.3
vn 0.222906 -0.949926 -0.218983
v 53.7458 -156.897 1206.53
vn 0.788713 0.515828 0.334445
v 54.6659 -152.821 1206.98
vn 0.864866 0.495355 0.0814223
v 53.2828 -149.477 1207.99
vn 0.794856 0.588205 0.149061
v 53.351 -149.428 1206.49
vn 0.881264 0.375498 0.287012
v 54.2 -150.963 1206.14
vn 0.68495 0.726884 -0.049823
v 52.6714 -148.737 1207.42
vn 0.702764 0.698274 0.136147
v 52.6728 -148.711 1206.82
vn 0.0799344 -0.867942 -0.490191
v 53.4676 -156.475 1205.35
vn 0.033804 -0.697625 -0.715665
v 52.9235 -155.391 1203.88
vn 0.237211 -0.535756 -0.810368
v 53.8578 -154.761 1203.5
vn 0.292199 -0.727611 -0.620647
v 54.1695 -155.713 1204.47
vn 0.725713 0.525234 0.444376
v 53.9301 -149.396 1204.69
vn 0.785507 0.586518 0.197422
v 54.1011 -148.462 1203.53
vn 0.0530105 -0.47812 -0.876693
v 53.2895 -154.14 1203.03
vn 0.225855 -0.0633357 -0.9721
v 53.4021 -151.993 1202.38
vn 0.240402 -0.309599 -0.919976
v 53.9377 -153.237 1202.78
vn 0.538092 0.270389 -0.79834
v 54.7093 -149.978 1202.98
vn 0.820717 0.532916 -0.205972
v 53.9048 -148.133 1203.24
vn 0.835849 0.521849 -0.170382
v 54.1763 -148.683 1203.22
vn 0.736039 -0.564599 0.373464
v 54.9944 -156.002 1227.28
vn 0.861279 -0.0893954 0.500207
v 54.9665 -153.623 1229.46
vn 0.894857 0.42043 0.1499
v 55.0794 -153.618 1229.16
vn 0.744641 -0.386505 0.544173
v 55.0882 -154.213 1228.97
vn 0.940231 0.0942356 0.327239
v 55.2422 -153.916 1228.85
vn 0.712094 0.699461 -0.0606275
v 55.1161 -153.679 1228.56
vn 0.780185 -0.592418 0.200878
v 55.5299 -156.218 1225.47
vn 0.818531 -0.492503 0.295715
v 55.94 -155.157 1226.41
vn 0.916292 -0.347704 0.198771
v 56.1726 -155.061 1225.81
vn 0.787982 0.606157 -0.107968
v 56.1916 -155.041 1225.21
vn 0.662539 0.728354 -0.174763
v 55.0857 -154.26 1225.54
vn 0.858248 -0.346461 0.378649
v 55.8959 -154.789 1227.02
vn 0.748888 0.662191 -0.0258578
v 55.9443 -154.491 1227.03
vn 0.498061 0.846863 -0.186436
v 55.6801 -154.382 1226.14
vn 0.682723 0.711183 -0.167657
v 55.9644 -154.69 1225.53
vn 0.532968 0.805869 -0.257914
v 54.761 -154.724 1223.72
vn 0.729989 -0.68145 -0.0523669
v 55.1174 -157.013 1223.04
vn 0.56497 0.808401 -0.16522
v 55.6312 -155.316 1223.1
vn 0.82382 -0.559439 -0.0913652
v 55.8017 -156.138 1222.77
vn 0.733047 0.649082 -0.203309
v 55.6212 -155.507 1222.2
vn 0.972956 -0.230942 -0.00478084
v 56.144 -155.608 1224.29
vn 0.988698 0.105466 -0.106555
v 56.1129 -155.306 1224.3
vn 0.8169 -0.575579 0.037187
v 55.9884 -155.889 1223.98
vn 0.88471 0.420505 -0.201157
v 56.052 -155.572 1223.39
vn 0.977311 -0.0759838 -0.197712
v 55.9672 -155.846 1222.78
vn 0.632031 0.770102 -0.0864861
v 54.7861 -155.111 1220.71
vn 0.813668 -0.528482 -0.242181
v 55.3347 -156.361 1221.26
vn 0.78875 0.575282 -0.21662
v 54.9257 -155.387 1219.8
vn 0.781541 -0.46816 -0.412334
v 54.8294 -155.972 1219.47
vn 0.93305 -0.0138433 -0.35948
v 55.0108 -155.689 1219.73
vn 0.46531 -0.815683 0.343726
v 54.6403 -157.027 1213.73
vn 0.683328 -0.290253 0.669938
v 54.7042 -155.807 1214.95
vn 0.832168 0.360744 0.42114
v 54.8698 -154.574 1213.82
vn 0.663199 -0.49138 0.564547
v 55.2737 -156.406 1214.03
vn 0.804278 0.379922 0.456943
v 55.3869 -155.812 1214.08
vn 0.714281 -0.586981 0.381125
v 55.6422 -156.405 1213.46
vn 0.911472 -0.104876 0.39777
v 55.7749 -156.112 1213.47
vn 0.618693 -0.747976 0.240315
v 55.5593 -156.687 1213.05
vn 0.888132 0.39071 0.242006
v 55.7864 -155.802 1213.18
vn 0.876999 -0.429921 0.21457
v 55.875 -156.397 1212.86
vn 0.4671 -0.864472 -0.185759
v 54.6178 -157.456 1210.68
vn 0.474507 -0.87721 0.0731142
v 54.9224 -157.376 1211.62
vn 0.731647 -0.676087 0.087171
v 55.8539 -156.664 1211.95
vn 0.985934 0.0549772 0.157831
v 55.9872 -156.091 1212.57
vn 0.920563 -0.389337 0.0313252
v 56.086 -156.355 1211.36
vn 0.693 -0.716139 -0.0830349
v 55.8836 -156.634 1211.05
vn 0.91209 0.39998 0.090042
v 56.0665 -155.743 1211.08
vn 0.99646 -0.0840606 -0.0013118
v 56.173 -156.038 1210.77
vn 0.88603 0.46306 0.022935
v 55.0385 -154.219 1212.03
vn 0.823693 0.566903 -0.0122872
v 54.8081 -153.825 1210.84
vn 0.407437 -0.901484 -0.146016
v 54.7508 -156.802 1208.94
vn 0.361811 -0.93001 -0.0646091
v 54.6492 -156.856 1208.04
vn 0.585238 -0.795754 -0.155795
v 55.5752 -156.384 1209.26
vn 0.563438 -0.825996 -0.0164063
v 55.5756 -156.377 1208.66
vn 0.77913 -0.604904 -0.164465
v 55.9993 -156.308 1210.16
vn 0.997001 0.0763244 0.0127832
v 56.1342 -155.705 1209.88
vn 0.873134 -0.481609 -0.0754325
v 56.0629 -155.991 1209.57
vn 0.990788 -0.0920882 0.0992922
v 56.1446 -155.684 1209.28
vn 0.819404 -0.572384 0.0308822
v 56.0645 -155.97 1208.97
vn 0.872391 0.473468 0.121501
v 56.0907 -155.371 1208.99
vn 0.346557 -0.850918 -0.394763
v 54.6784 -156.3 1205.65
vn 0.544885 -0.725739 -0.420004
v 55.6056 -155.804 1205.67
vn 0.502017 -0.843926 -0.189123
v 55.8915 -156.082 1206.87
vn 0.834424 -0.548162 -0.0570527
v 56.4996 -155.629 1207.18
vn 0.80251 0.525814 0.281954
v 56.5314 -155.335 1207.31
vn 0.892682 0.333635 0.302995
v 56.5823 -154.365 1205.73
vn 0.410134 -0.540291 -0.734762
v 55.0712 -154.536 1203.84
vn 0.529094 -0.60747 -0.592487
v 55.6401 -155.146 1204.8
vn 0.671812 -0.437099 -0.598008
v 56.2956 -154.102 1204.53
vn 0.681962 -0.560623 -0.469712
v 56.5664 -154.668 1205.37
vn 0.425916 -0.343422 -0.837053
v 55.0784 -153.617 1203.35
vn 0.728737 0.473313 0.49489
v 55.4781 -152.504 1205.31
vn 0.560623 -0.39974 -0.725196
v 55.7017 -153.97 1203.91
vn 0.757131 0.442195 0.48085
v 56.3458 -152.203 1204
vn 0.60851 -0.167763 -0.77561
v 56.0803 -152.479 1203.68
vn 0.818644 0.185628 -0.543474
v 56.128 -151.881 1203.71
vn 0.686512 -0.278385 -0.671717
v 56.4136 -153.418 1204.26
vn 0.808362 -0.0489586 -0.586647
v 56.3737 -152.612 1203.99
vn 0.834698 -0.210246 -0.508994
v 56.6307 -153.44 1204.55
vn 0.769063 0.593227 -0.237959
v 55.3065 -150.046 1203.47
vn 0.813561 0.47436 0.336304
v 55.5723 -150.707 1203.75
vn 0.457529 -0.102654 -0.883249
v 55.1826 -152.411 1203.07
vn 0.555764 0.15439 -0.816878
v 55.2936 -150.616 1203.15
vn -0.854343 0.32456 0.405904
v 37.6239 -145.177 1228.83
vn -0.981022 -0.0612794 -0.183957
v 37.7172 -143.307 1226.79
vn -0.77062 -0.0248739 -0.636809
v 37.9094 -148.686 1217
vn -0.659347 -0.244331 0.71103
v 40.4209 -141.739 1218.14
vn -0.782285 -0.607815 -0.13635
v 40.142 -151.763 1215.69
vn -0.743289 -0.246804 -0.621779
v 38.6856 -149.906 1216.35
vn -0.848243 -0.180436 0.497923
v 40.2165 -141.922 1217.84
vn -0.782046 -0.11371 -0.61276
v 40.2515 -147.524 1214.64
vn -0.125196 0.165792 0.978182
v 42.2779 -140.699 1231.35
vn -0.324083 0.227817 0.918188
v 41.3082 -142.005 1218.58
vn -0.154533 0.583957 0.796941
v 41.8841 -142.481 1219.02
vn -0.11983 0.949021 0.291549
v 41.8841 -142.481 1219.02
vn -0.170661 0.98251 0.0744946
v 43.0707 -142.425 1219.33
vn -0.878032 -0.477689 -0.0295399
v 40.9179 -149.049 1214.29
vn -0.668697 -0.405289 -0.623366
v 41.8792 -150.59 1213.94
vn 0.304277 0.824781 0.476604
v 43.6971 -142.279 1219.93
vn -0.261856 0.964318 0.0390261
v 44.0027 -142.181 1219.57
vn 0.164851 0.804924 0.570019
v 44.0027 -142.181 1219.57
vn 0.333767 0.746897 -0.575104
v 44.2867 -142.493 1219.93
vn 0.485438 0.873161 0.0440445
v 44.2867 -142.493 1219.93
vn 0.247423 0.733531 0.63302
v 44.3022 -142.197 1219.58
vn -0.46491 0.808168 -0.361556
v 43.7613 -141.055 1207.67
vn 0.485438 0.873161 0.0440445
v 46.1112 -143.506 1219.89
vn 0.762459 0.53522 0.363588
v 46.1112 -143.506 1219.89
vn 0.461162 0.666539 0.585709
v 46.331 -143.612 1219.59
vn 0.618643 0.454613 0.640788
v 46.331 -143.612 1219.59
vn 0.795816 0.443787 0.411983
v 46.8909 -144.392 1219.56
vn 0.121819 0.992165 -0.0277337
v 45.8824 -140.707 1205.28
vn 0.157753 0.963503 -0.216278
v 46.7659 -141.046 1204.37
vn 0.371222 0.919489 -0.12936
v 47.6551 -141.274 1204.06
vn 0.8545 0.476956 0.205774
v 48.5608 -146.922 1219.35
vn 0.656115 0.672832 -0.341774
v 48.5608 -146.922 1219.35
vn 0.211901 0.558748 -0.801809
v 48.5608 -146.922 1219.35
vn -0.00995338 -0.911657 0.410832
v 49.5532 -156.646 1215.84
vn 0.331127 -0.577444 -0.746266
v 50.0763 -151.009 1213.64
vn 0.844543 0.53547 0.00440164
v 50.0763 -151.009 1213.64
vn 0.927318 -0.368349 0.0663351
v 50.0763 -151.009 1213.64
vn 0.770514 0.573067 0.27911
v 49.384 -142.679 1203.42
vn 0.598117 0.646083 -0.474166
v 50.3283 -144.051 1203.37
vn 0.826793 0.201373 0.525227
v 52.5302 -151.198 1232.54
vn 0.71405 0.690254 -0.116972
v 51.4051 -149.971 1233.53
vn 0.679657 0.592589 0.432325
v 51.4051 -149.971 1233.53
vn 0.965942 0.237392 0.102961
v 51.921 -152.175 1218.4
vn 0.629441 -0.740679 -0.234946
v 51.9859 -156.085 1216.16
vn 0.184019 -0.773806 0.606104
v 51.9859 -156.085 1216.16
vn 0.889042 0.435412 0.141492
v 50.4186 -149.942 1216.98
vn 0.721269 0.298496 0.625037
v 50.4186 -149.942 1216.98
vn 0.682804 0.287068 0.671842
v 51.3676 -150.688 1216.35
vn 0.811177 0.49028 -0.318774
v 51.9197 -151.617 1216.32
vn 0.25821 -0.588533 -0.766131
v 50.4481 -151.035 1213.82
vn 0.6004 0.783781 -0.158768
v 50.4274 -151.431 1213.62
vn 0.729914 -0.682041 0.0452334
v 50.4805 -150.417 1213.36
vn 0.265994 -0.894535 -0.359241
v 50.4805 -150.417 1213.36
vn 0.361965 0.746812 0.557901
v 50.4212 -151.548 1213.02
vn 0.326321 0.941938 -0.0791638
v 50.7176 -151.626 1213.31
vn -0.996094 0.0621038 0.0627634
v 51.0255 -151.349 1213.33
vn 0.265994 -0.894535 -0.359241
v 50.7856 -150.328 1213.36
vn -0.651762 -0.484015 -0.583898
v 50.7856 -150.328 1213.36
vn -0.467355 0.782447 0.411528
v 50.7344 -151.623 1213.01
vn -0.973894 0.0216119 0.22597
v 51.0073 -151.337 1213.03
vn -0.757549 -0.563462 -0.329591
v 50.9982 -150.436 1213.06
vn 0.265994 -0.894535 -0.359241
v 50.7919 -150.207 1213.06
vn -0.71874 -0.638262 -0.275743
v 50.7919 -150.207 1213.06
vn -0.484061 -0.690433 0.537576
v 50.7919 -150.207 1213.06
vn -0.99101 0.0226957 0.131851
v 51.0629 -150.769 1213.35
vn -0.873121 0.0732061 -0.481976
v 51.0629 -150.769 1213.35
vn 0.519641 0.680992 0.515968
v 50.2485 -150.977 1212.44
vn 0.979193 -0.150167 0.136495
v 50.2485 -150.977 1212.44
vn 0.694236 -0.12798 0.708278
v 50.2485 -150.977 1212.44
vn 0.694262 -0.128018 0.708245
v 50.2928 -150.679 1212.45
vn 0.694209 -0.127943 0.708311
v 50.451 -150.98 1212.24
vn -0.426207 -0.0939643 0.899732
v 50.451 -150.98 1212.24
vn 0.350581 -0.859374 0.372249
v 50.4666 -150.682 1212.28
vn -0.45652 -0.126984 0.880605
v 50.4666 -150.682 1212.28
vn -0.303345 -0.756163 0.579827
v 50.4666 -150.682 1212.28
vn -0.45652 -0.126984 0.880605
v 50.7503 -151.001 1212.38
vn -0.903206 0.00267814 0.429198
v 50.7503 -151.001 1212.38
vn -0.485749 -0.159703 0.859385
v 50.7676 -150.67 1212.45
vn 0.769991 0.637481 -0.0270301
v 51.3647 -145.01 1202.74
vn 0.75229 0.493621 -0.436347
v 52.4861 -146.541 1202.59
vn 0.727774 0.659032 0.189795
v 52.5806 -151.501 1232.53
vn 0.7582 0.645757 0.0901746
v 54.5989 -153.024 1230.08
vn 0.877514 0.13008 0.461571
v 53.9841 -152.351 1230.11
vn 0.895021 -0.339094 -0.289747
v 52.838 -157.023 1218.13
vn 0.873589 -0.438551 -0.210984
v 53.1009 -155.186 1216.8
vn 0.856865 0.0396008 0.514018
v 53.1009 -155.186 1216.8
vn 0.873589 -0.438551 -0.210984
v 52.9235 -155.392 1216.49
vn 0.392124 -0.538846 0.745576
v 52.9235 -155.392 1216.49
vn 0.853823 0.142526 0.500673
v 53.2505 -154.884 1216.52
vn 0.570791 -0.32419 0.754386
v 53.2505 -154.884 1216.52
vn 0.675923 0.381944 -0.630276
v 54.1763 -148.683 1203.22
vn 0.872779 0.48811 -0.00242435
v 56.1726 -155.061 1225.81
vn 0.99893 -0.0109452 -0.044938
v 56.1916 -155.041 1225.21
vn 0.930502 -0.163038 0.328
v 55.9443 -154.491 1227.03
vn 0.571294 0.777148 -0.26394
v 56.1129 -155.306 1224.3
vn 0.775912 0.348486 0.525851
v 54.7042 -155.807 1214.95
vn 0.77503 -0.198721 0.599866
v 55.3869 -155.812 1214.08
vn 0.992813 -0.10966 0.0479318
v 56.5314 -155.335 1207.31
vn 0.997644 -0.068386 -0.0055332
v 56.5664 -154.668 1205.37
vn 0.911665 0.197214 -0.360519
v 56.3458 -152.203 1204
vn 0.97587 0.149928 0.15874
v 56.6307 -153.44 1204.55
vn 0.679059 0.349442 -0.645576
v 55.3065 -150.046 1203.47
vn 0.778042 0.486007 0.398055
v 55.3065 -150.046 1203.47
f 4//4 14//14 2//2
f 1//1 3//3 9//9
f 2//2 18//18 1//1
f 18//18 3//3 1//1
f 4//4 7//7 5//5
f 7//7 6//6 5//5
f 8//8 6//6 7//7
f 11//11 6//6 8//8
f 31//31 4//4 5//5
f 34//34 31//31 5//5
f 6//6 34//34 5//5
f 4//4 1//1 7//7
f 7//7 9//9 8//8
f 4//4 2//2 1//1
f 1//1 9//9 7//7
f 8//8 9//9 10//10
f 9//9 3//3 17//17
f 17//17 36//36 9//9
f 9//9 36//36 37//37
f 10//10 9//9 37//37
f 39//39 10//10 37//37
f 8//8 12//12 11//11
f 10//10 12//12 8//8
f 10//10 39//39 38//38
f 11//11 12//12 50//50
f 12//12 10//10 38//38
f 50//50 12//12 38//38
f 49//49 11//11 50//50
f 18//18 2//2 14//14
f 18//18 14//14 15//15
f 14//14 35//35 13//13
f 16//16 14//14 13//13
f 15//15 14//14 16//16
f 15//15 59//59 23//23
f 59//59 27//27 23//23
f 16//16 13//13 149//149
f 15//15 16//16 59//59
f 18//18 20//20 19//19
f 18//18 19//19 3//3
f 17//17 3//3 19//19
f 19//19 21//21 17//17
f 21//21 22//22 17//17
f 22//22 42//42 36//36
f 17//17 22//22 36//36
f 21//21 19//19 20//20
f 15//15 23//23 20//20
f 18//18 15//15 20//20
f 23//23 24//24 20//20
f 24//24 21//21 20//20
f 22//22 25//25 26//26
f 22//22 21//21 25//25
f 26//26 42//42 22//22
f 25//25 21//21 24//24
f 45//45 42//42 26//26
f 23//23 27//27 24//24
f 27//27 28//28 24//24
f 25//25 28//28 29//29
f 26//26 25//25 29//29
f 29//29 30//30 26//26
f 30//30 45//45 26//26
f 25//25 24//24 28//28
f 62//62 28//28 27//27
f 30//30 29//29 63//63
f 33//33 13//13 35//35
f 33//33 35//35 31//31
f 32//32 33//33 31//31
f 32//32 70//70 33//33
f 70//70 32//32 72//72
f 4//4 35//35 14//14
f 31//31 35//35 4//4
f 34//34 32//32 31//31
f 49//49 48//48 34//34
f 6//6 49//49 34//34
f 6//6 11//11 49//49
f 34//34 48//48 32//32
f 43//43 38//38 39//39
f 42//42 40//40 36//36
f 37//37 36//36 40//40
f 37//37 40//40 41//41
f 39//39 37//37 41//41
f 39//39 41//41 43//43
f 38//38 43//43 55//55
f 42//42 44//44 40//40
f 44//44 41//41 40//40
f 44//44 47//47 41//41
f 47//47 43//43 41//41
f 45//45 44//44 42//42
f 46//46 44//44 45//45
f 46//46 47//47 44//44
f 47//47 55//55 43//43
f 30//30 46//46 45//45
f 67//67 46//46 30//30
f 67//67 47//47 46//46
f 67//67 66//66 47//47
f 63//63 67//67 30//30
f 66//66 55//55 47//47
f 74//74 48//48 53//53
f 32//32 48//48 72//72
f 74//74 73//73 48//48
f 74//74 53//53 75//75
f 48//48 73//73 72//72
f 51//51 49//49 50//50
f 53//53 48//48 49//49
f 51//51 50//50 52//52
f 50//50 55//55 52//52
f 52//52 55//55 76//76
f 53//53 49//49 51//51
f 53//53 51//51 54//54
f 51//51 52//52 54//54
f 53//53 54//54 75//75
f 50//50 38//38 55//55
f 57//57 106//106 82//82
f 82//82 56//56 57//57
f 82//82 80//80 56//56
f 57//57 56//56 111//111
f 56//56 110//110 111//111
f 149//149 13//13 154//154
f 149//149 150//150 58//58
f 150//150 193//193 58//58
f 16//16 58//58 59//59
f 59//59 60//60 27//27
f 58//58 16//16 149//149
f 58//58 60//60 59//59
f 193//193 60//60 58//58
f 61//61 60//60 193//193
f 210//210 65//65 61//61
f 193//193 194//194 61//61
f 210//210 61//61 194//194
f 60//60 62//62 27//27
f 28//28 62//62 64//64
f 63//63 28//28 64//64
f 28//28 63//63 29//29
f 61//61 62//62 60//60
f 61//61 64//64 62//62
f 65//65 63//63 64//64
f 61//61 65//65 64//64
f 33//33 154//154 13//13
f 67//67 69//69 66//66
f 69//69 221//221 66//66
f 65//65 68//68 63//63
f 68//68 69//69 67//67
f 63//63 68//68 67//67
f 68//68 222//222 69//69
f 222//222 221//221 69//69
f 72//72 155//155 70//70
f 71//71 72//72 73//73
f 71//71 73//73 74//74
f 66//66 76//76 55//55
f 54//54 52//52 76//76
f 221//221 76//76 66//66
f 54//54 76//76 228//228
f 221//221 278//278 76//76
f 76//76 278//278 228//228
f 90//90 161//161 94//94
f 79//79 82//82 78//78
f 79//79 78//78 104//104
f 169//169 79//79 104//104
f 169//169 161//161 79//79
f 78//78 82//82 106//106
f 82//82 79//79 90//90
f 79//79 161//161 90//90
f 80//80 81//81 56//56
f 81//81 110//110 56//56
f 82//82 90//90 84//84
f 80//80 82//82 84//84
f 83//83 80//80 84//84
f 83//83 81//81 80//80
f 86//86 112//112 81//81
f 81//81 112//112 110//110
f 85//85 83//83 84//84
f 81//81 83//83 86//86
f 116//116 112//112 86//86
f 83//83 85//85 87//87
f 83//83 87//87 88//88
f 86//86 83//83 88//88
f 93//93 86//86 88//88
f 93//93 116//116 86//86
f 91//91 87//87 85//85
f 92//92 87//87 91//91
f 89//89 88//88 92//92
f 88//88 87//87 92//92
f 88//88 89//89 93//93
f 90//90 94//94 84//84
f 94//94 95//95 84//84
f 84//84 95//95 85//85
f 91//91 85//85 95//95
f 96//96 92//92 91//91
f 89//89 97//97 93//93
f 97//97 98//98 93//93
f 95//95 96//96 91//91
f 96//96 97//97 92//92
f 89//89 92//92 97//97
f 162//162 95//95 94//94
f 171//171 95//95 162//162
f 171//171 96//96 95//95
f 101//101 99//99 122//122
f 122//122 821//821 100//100
f 77//77 164//164 821//821
f 101//101 77//77 99//99
f 821//821 164//164 100//100
f 165//165 77//77 101//101
f 100//100 123//123 122//122
f 100//100 102//102 123//123
f 103//103 105//105 102//102
f 103//103 102//102 104//104
f 103//103 104//104 78//78
f 103//103 106//106 105//105
f 103//103 78//78 106//106
f 107//107 124//124 105//105
f 106//106 57//57 107//107
f 57//57 111//111 107//107
f 107//107 105//105 106//106
f 111//111 115//115 108//108
f 111//111 108//108 107//107
f 108//108 115//115 109//109
f 124//124 107//107 108//108
f 126//126 124//124 108//108
f 126//126 108//108 109//109
f 110//110 114//114 111//111
f 113//113 114//114 110//110
f 113//113 110//110 112//112
f 114//114 115//115 111//111
f 116//116 113//113 112//112
f 117//117 114//114 113//113
f 116//116 117//117 113//113
f 118//118 114//114 117//117
f 114//114 118//118 115//115
f 119//119 116//116 93//93
f 116//116 119//119 117//117
f 118//118 109//109 115//115
f 118//118 117//117 120//120
f 117//117 119//119 120//120
f 118//118 120//120 121//121
f 118//118 121//121 109//109
f 98//98 119//119 93//93
f 120//120 181//181 182//182
f 119//119 181//181 120//120
f 98//98 181//181 119//119
f 101//101 122//122 128//128
f 128//128 122//122 129//129
f 131//131 122//122 123//123
f 102//102 105//105 123//123
f 105//105 134//134 822//822
f 131//131 123//123 135//135
f 105//105 125//125 134//134
f 822//822 134//134 135//135
f 184//184 135//135 125//125
f 105//105 124//124 125//125
f 125//125 124//124 184//184
f 124//124 126//126 184//184
f 128//128 129//129 127//127
f 129//129 130//130 127//127
f 127//127 136//136 128//128
f 122//122 131//131 129//129
f 136//136 101//101 128//128
f 129//129 131//131 130//130
f 101//101 136//136 197//197
f 139//139 137//137 130//130
f 131//131 132//132 130//130
f 132//132 139//139 130//130
f 131//131 135//135 132//132
f 135//135 133//133 132//132
f 125//125 135//135 134//134
f 135//135 184//184 187//187
f 188//188 135//135 187//187
f 133//133 135//135 188//188
f 197//197 136//136 141//141
f 130//130 137//137 127//127
f 139//139 144//144 137//137
f 138//138 127//127 137//137
f 138//138 136//136 127//127
f 136//136 138//138 141//141
f 137//137 144//144 138//138
f 138//138 144//144 145//145
f 141//141 138//138 142//142
f 138//138 145//145 142//142
f 132//132 133//133 139//139
f 147//147 144//144 139//139
f 141//141 142//142 143//143
f 142//142 146//146 143//143
f 141//141 143//143 197//197
f 153//153 152//152 143//143
f 142//142 145//145 146//146
f 145//145 144//144 146//146
f 144//144 147//147 148//148
f 148//148 146//146 144//144
f 143//143 146//146 153//153
f 148//148 153//153 146//146
f 190//190 147//147 139//139
f 190//190 148//148 147//147
f 148//148 190//190 204//204
f 65//65 211//211 68//68
f 197//197 143//143 151//151
f 143//143 152//152 823//823
f 823//823 152//152 201//201
f 148//148 204//204 202//202
f 153//153 148//148 202//202
f 154//154 70//70 155//155
f 154//154 33//33 70//70
f 225//225 155//155 156//156
f 72//72 156//156 155//155
f 225//225 154//154 155//155
f 72//72 71//71 156//156
f 226//226 225//225 156//156
f 229//229 156//156 71//71
f 231//231 229//229 157//157
f 157//157 71//71 74//74
f 157//157 229//229 71//71
f 157//157 74//74 75//75
f 157//157 75//75 158//158
f 231//231 157//157 158//158
f 75//75 54//54 158//158
f 158//158 54//54 228//228
f 233//233 234//234 159//159
f 159//159 234//234 160//160
f 236//236 160//160 234//234
f 168//168 160//160 236//236
f 243//243 163//163 161//161
f 169//169 243//243 161//161
f 163//163 243//243 170//170
f 175//175 163//163 170//170
f 163//163 162//162 161//161
f 161//161 162//162 94//94
f 163//163 171//171 162//162
f 165//165 101//101 309//309
f 166//166 164//164 77//77
f 166//166 77//77 165//165
f 166//166 168//168 164//164
f 309//309 233//233 165//165
f 233//233 159//159 165//165
f 159//159 166//166 165//165
f 166//166 159//159 160//160
f 168//168 166//166 160//160
f 168//168 167//167 164//164
f 102//102 240//240 169//169
f 236//236 239//239 168//168
f 167//167 168//168 239//239
f 167//167 239//239 240//240
f 243//243 247//247 170//170
f 247//247 178//178 170//170
f 175//175 171//171 163//163
f 172//172 171//171 175//175
f 172//172 96//96 171//171
f 173//173 98//98 97//97
f 97//97 96//96 174//174
f 173//173 97//97 174//174
f 172//172 174//174 96//96
f 176//176 173//173 174//174
f 183//183 173//173 176//176
f 177//177 172//172 175//175
f 172//172 177//177 174//174
f 174//174 177//177 176//176
f 170//170 178//178 175//175
f 178//178 177//177 175//175
f 179//179 177//177 178//178
f 177//177 179//179 176//176
f 183//183 179//179 250//250
f 176//176 179//179 183//183
f 178//178 249//249 179//179
f 164//164 167//167 100//100
f 102//102 100//100 167//167
f 240//240 102//102 167//167
f 104//104 102//102 169//169
f 186//186 121//121 180//180
f 180//180 121//121 120//120
f 182//182 180//180 120//120
f 254//254 180//180 182//182
f 98//98 173//173 181//181
f 183//183 182//182 181//181
f 183//183 181//181 173//173
f 183//183 254//254 182//182
f 253//253 254//254 183//183
f 250//250 253//253 183//183
f 309//309 101//101 252//252
f 252//252 101//101 197//197
f 184//184 314//314 187//187
f 126//126 109//109 185//185
f 184//184 126//126 314//314
f 314//314 126//126 185//185
f 314//314 185//185 186//186
f 109//109 121//121 185//185
f 254//254 186//186 180//180
f 121//121 186//186 185//185
f 188//188 187//187 258//258
f 187//187 314//314 258//258
f 255//255 197//197 196//196
f 188//188 140//140 133//133
f 189//189 140//140 188//188
f 188//188 257//257 189//189
f 257//257 188//188 258//258
f 197//197 198//198 196//196
f 190//190 139//139 133//133
f 190//190 133//133 140//140
f 208//208 204//204 190//190
f 140//140 191//191 190//190
f 208//208 190//190 191//191
f 189//189 191//191 140//140
f 189//189 192//192 191//191
f 192//192 208//208 191//191
f 259//259 192//192 189//189
f 824//824 209//209 827//827
f 149//149 154//154 824//824
f 824//824 154//154 209//209
f 264//264 150//150 149//149
f 150//150 321//321 193//193
f 272//272 270//270 195//195
f 151//151 198//198 197//197
f 826//826 823//823 199//199
f 823//823 201//201 199//199
f 825//825 196//196 198//198
f 200//200 826//826 199//199
f 216//216 200//200 199//199
f 200//200 195//195 826//826
f 195//195 200//200 272//272
f 271//271 272//272 200//200
f 212//212 201//201 152//152
f 212//212 152//152 203//203
f 201//201 216//216 199//199
f 201//201 212//212 213//213
f 204//204 206//206 202//202
f 152//152 153//153 203//203
f 202//202 203//203 153//153
f 202//202 206//206 203//203
f 206//206 212//212 203//203
f 207//207 220//220 206//206
f 827//827 209//209 205//205
f 225//225 207//207 205//205
f 204//204 205//205 206//206
f 204//204 208//208 205//205
f 206//206 205//205 207//207
f 225//225 205//205 154//154
f 205//205 209//209 154//154
f 211//211 210//210 326//326
f 65//65 210//210 211//211
f 222//222 68//68 211//211
f 271//271 200//200 216//216
f 220//220 213//213 212//212
f 206//206 220//220 212//212
f 225//225 214//214 220//220
f 201//201 213//213 216//216
f 213//213 220//220 828//828
f 219//219 214//214 215//215
f 214//214 225//225 215//215
f 213//213 217//217 216//216
f 213//213 828//828 217//217
f 218//218 216//216 217//217
f 217//217 219//219 218//218
f 217//217 214//214 219//219
f 218//218 219//219 215//215
f 220//220 207//207 225//225
f 225//225 223//223 215//215
f 275//275 215//215 223//223
f 275//275 223//223 224//224
f 279//279 224//224 223//223
f 156//156 281//281 226//226
f 226//226 223//223 225//225
f 229//229 281//281 156//156
f 227//227 232//232 228//228
f 232//232 231//231 158//158
f 228//228 278//278 227//227
f 158//158 228//228 232//232
f 226//226 279//279 223//223
f 280//280 279//279 281//281
f 226//226 281//281 279//279
f 282//282 229//229 230//230
f 229//229 231//231 230//230
f 282//282 230//230 284//284
f 231//231 284//284 230//230
f 231//231 232//232 284//284
f 284//284 232//232 227//227
f 235//235 233//233 296//296
f 236//236 234//234 237//237
f 234//234 233//233 235//235
f 237//237 234//234 235//235
f 292//292 237//237 235//235
f 236//236 237//237 297//297
f 241//241 239//239 236//236
f 238//238 241//241 236//236
f 299//299 238//238 236//236
f 238//238 242//242 241//241
f 242//242 238//238 245//245
f 300//300 238//238 299//299
f 238//238 300//300 305//305
f 245//245 238//238 305//305
f 299//299 236//236 297//297
f 239//239 241//241 240//240
f 241//241 169//169 240//240
f 241//241 829//829 169//169
f 242//242 245//245 244//244
f 241//241 242//242 244//244
f 829//829 241//241 244//244
f 244//244 245//245 306//306
f 829//829 244//244 246//246
f 305//305 306//306 245//245
f 306//306 246//246 244//244
f 308//308 247//247 246//246
f 247//247 829//829 246//246
f 310//310 247//247 308//308
f 247//247 251//251 248//248
f 249//249 178//178 248//248
f 248//248 178//178 247//247
f 249//249 248//248 251//251
f 249//249 251//251 179//179
f 179//179 251//251 250//250
f 254//254 314//314 186//186
f 315//315 314//314 254//254
f 253//253 315//315 254//254
f 313//313 255//255 196//196
f 252//252 197//197 255//255
f 252//252 255//255 309//309
f 189//189 256//256 259//259
f 256//256 189//189 257//257
f 257//257 258//258 316//316
f 314//314 316//316 258//258
f 316//316 256//256 257//257
f 259//259 260//260 192//192
f 265//265 824//824 830//830
f 263//263 262//262 259//259
f 262//262 260//260 259//259
f 831//831 261//261 830//830
f 264//264 830//830 261//261
f 265//265 830//830 264//264
f 256//256 263//263 259//259
f 831//831 264//264 261//261
f 833//833 832//832 263//263
f 263//263 256//256 320//320
f 833//833 263//263 320//320
f 264//264 321//321 150//150
f 265//265 149//149 824//824
f 264//264 149//149 265//265
f 323//323 193//193 321//321
f 323//323 266//266 193//193
f 193//193 266//266 194//194
f 266//266 267//267 194//194
f 267//267 210//210 194//194
f 269//269 382//382 196//196
f 382//382 269//269 268//268
f 268//268 269//269 270//270
f 313//313 196//196 382//382
f 272//272 327//327 270//270
f 196//196 825//825 269//269
f 270//270 269//269 195//195
f 267//267 326//326 210//210
f 326//326 267//267 266//266
f 211//211 330//330 222//222
f 330//330 211//211 326//326
f 328//328 270//270 327//327
f 327//327 273//273 274//274
f 834//834 215//215 273//273
f 273//273 215//215 275//275
f 835//835 272//272 271//271
f 327//327 272//272 835//835
f 216//216 218//218 271//271
f 218//218 215//215 834//834
f 278//278 221//221 331//331
f 222//222 331//331 221//221
f 224//224 276//276 275//275
f 273//273 275//275 274//274
f 274//274 276//276 277//277
f 275//275 276//276 274//274
f 334//334 277//277 276//276
f 278//278 336//336 227//227
f 335//335 276//276 224//224
f 224//224 285//285 335//335
f 285//285 224//224 279//279
f 285//285 279//279 280//280
f 281//281 286//286 280//280
f 288//288 286//286 281//281
f 281//281 229//229 282//282
f 282//282 288//288 281//281
f 282//282 283//283 288//288
f 282//282 284//284 283//283
f 284//284 336//336 283//283
f 336//336 284//284 227//227
f 346//346 285//285 287//287
f 285//285 280//280 287//287
f 290//290 287//287 280//280
f 280//280 286//286 290//290
f 286//286 288//288 290//290
f 288//288 283//283 339//339
f 288//288 842//842 338//338
f 288//288 338//338 289//289
f 287//287 290//290 347//347
f 290//290 350//350 347//347
f 289//289 290//290 288//288
f 290//290 289//289 350//350
f 296//296 291//291 292//292
f 291//291 358//358 292//292
f 291//291 357//357 358//358
f 292//292 293//293 237//237
f 358//358 293//293 292//292
f 358//358 359//359 293//293
f 296//296 295//295 291//291
f 295//295 296//296 294//294
f 294//294 362//362 295//295
f 362//362 294//294 309//309
f 295//295 362//362 363//363
f 294//294 296//296 233//233
f 309//309 294//294 233//233
f 291//291 295//295 357//357
f 235//235 296//296 292//292
f 293//293 297//297 237//237
f 293//293 298//298 297//297
f 300//300 299//299 302//302
f 299//299 297//297 298//298
f 298//298 302//302 299//299
f 300//300 302//302 301//301
f 302//302 303//303 301//301
f 302//302 366//366 303//303
f 366//366 304//304 303//303
f 301//301 305//305 300//300
f 301//301 303//303 305//305
f 304//304 305//305 303//303
f 306//306 308//308 246//246
f 307//307 310//310 308//308
f 304//304 306//306 305//305
f 307//307 306//306 304//304
f 306//306 307//307 308//308
f 371//371 310//310 307//307
f 304//304 372//372 307//307
f 372//372 371//371 307//307
f 310//310 251//251 247//247
f 310//310 377//377 251//251
f 313//313 384//384 309//309
f 379//379 312//312 311//311
f 379//379 315//315 312//312
f 311//311 251//251 379//379
f 250//250 311//311 253//253
f 315//315 253//253 312//312
f 311//311 250//250 251//251
f 311//311 312//312 253//253
f 255//255 313//313 309//309
f 315//315 319//319 314//314
f 379//379 319//319 315//315
f 380//380 387//387 317//317
f 316//316 318//318 317//317
f 256//256 316//316 317//317
f 317//317 320//320 256//256
f 318//318 380//380 317//317
f 380//380 318//318 319//319
f 316//316 314//314 318//318
f 319//319 318//318 314//314
f 837//837 833//833 320//320
f 322//322 838//838 836//836
f 317//317 839//839 320//320
f 387//387 839//839 317//317
f 843//843 388//388 840//840
f 322//322 841//841 838//838
f 845//845 841//841 322//322
f 324//324 323//323 846//846
f 324//324 266//266 323//323
f 324//324 325//325 266//266
f 846//846 397//397 324//324
f 397//397 325//325 324//324
f 325//325 326//326 266//266
f 382//382 268//268 390//390
f 390//390 268//268 399//399
f 396//396 326//326 325//325
f 396//396 330//330 326//326
f 328//328 268//268 270//270
f 268//268 328//328 399//399
f 328//328 329//329 399//399
f 329//329 402//402 399//399
f 329//329 328//328 327//327
f 274//274 332//332 327//327
f 327//327 332//332 329//329
f 332//332 402//402 329//329
f 330//330 401//401 331//331
f 331//331 222//222 330//330
f 333//333 402//402 332//332
f 277//277 332//332 274//274
f 277//277 333//333 332//332
f 334//334 276//276 335//335
f 277//277 334//334 333//333
f 334//334 335//335 333//333
f 405//405 336//336 404//404
f 405//405 341//341 336//336
f 493//493 405//405 404//404
f 285//285 337//337 335//335
f 337//337 333//333 335//335
f 340//340 338//338 842//842
f 289//289 338//338 351//351
f 338//338 340//340 351//351
f 336//336 842//842 283//283
f 842//842 342//342 340//340
f 341//341 842//842 336//336
f 341//341 342//342 842//842
f 342//342 343//343 340//340
f 345//345 344//344 341//341
f 344//344 342//342 341//341
f 344//344 343//343 342//342
f 344//344 355//355 343//343
f 355//355 340//340 343//343
f 405//405 345//345 341//341
f 409//409 344//344 345//345
f 409//409 420//420 344//344
f 413//413 285//285 346//346
f 413//413 346//346 348//348
f 337//337 285//285 413//413
f 413//413 348//348 414//414
f 348//348 428//428 414//414
f 347//347 346//346 287//287
f 350//350 353//353 347//347
f 348//348 346//346 347//347
f 348//348 347//347 349//349
f 353//353 349//349 347//347
f 349//349 428//428 348//348
f 349//349 356//356 428//428
f 289//289 351//351 350//350
f 350//350 351//351 352//352
f 353//353 350//350 352//352
f 352//352 431//431 353//353
f 352//352 415//415 431//431
f 351//351 340//340 354//354
f 352//352 351//351 354//354
f 352//352 354//354 415//415
f 354//354 340//340 355//355
f 354//354 355//355 419//419
f 415//415 354//354 423//423
f 420//420 355//355 344//344
f 423//423 354//354 419//419
f 353//353 356//356 349//349
f 428//428 356//356 429//429
f 363//363 357//357 295//295
f 363//363 436//436 357//357
f 357//357 359//359 358//358
f 436//436 434//434 357//357
f 434//434 359//359 357//357
f 360//360 293//293 359//359
f 359//359 435//435 360//360
f 434//434 435//435 359//359
f 360//360 361//361 298//298
f 360//360 435//435 361//361
f 364//364 363//363 362//362
f 436//436 363//363 364//364
f 437//437 436//436 364//364
f 298//298 293//293 360//360
f 361//361 442//442 302//302
f 361//361 302//302 298//298
f 442//442 366//366 302//302
f 366//366 444//444 365//365
f 442//442 443//443 366//366
f 443//443 444//444 366//366
f 365//365 304//304 366//366
f 367//367 304//304 365//365
f 367//367 372//372 304//304
f 368//368 373//373 372//372
f 368//368 372//372 367//367
f 367//367 365//365 369//369
f 368//368 367//367 369//369
f 373//373 368//368 377//377
f 377//377 368//368 375//375
f 444//444 369//369 365//365
f 375//375 368//368 370//370
f 369//369 446//446 370//370
f 369//369 370//370 368//368
f 375//375 370//370 446//446
f 372//372 373//373 371//371
f 373//373 377//377 371//371
f 374//374 377//377 376//376
f 375//375 376//376 377//377
f 376//376 456//456 374//374
f 374//374 456//456 378//378
f 376//376 375//375 446//446
f 376//376 446//446 456//456
f 371//371 377//377 310//310
f 378//378 377//377 374//374
f 462//462 379//379 251//251
f 251//251 377//377 462//462
f 377//377 378//378 462//462
f 463//463 379//379 462//462
f 379//379 469//469 319//319
f 463//463 469//469 379//379
f 381//381 387//387 380//380
f 469//469 381//381 319//319
f 381//381 380//380 319//319
f 383//383 470//470 384//384
f 383//383 385//385 470//470
f 384//384 313//313 382//382
f 383//383 384//384 382//382
f 382//382 390//390 383//383
f 391//391 383//383 390//390
f 385//385 383//383 391//391
f 392//392 385//385 391//391
f 385//385 392//392 472//472
f 473//473 389//389 381//381
f 386//386 395//395 847//847
f 847//847 851//851 386//386
f 395//395 397//397 846//846
f 844//844 847//847 846//846
f 389//389 387//387 381//381
f 846//846 847//847 395//395
f 392//392 391//391 390//390
f 390//390 393//393 392//392
f 393//393 390//390 399//399
f 399//399 478//478 393//393
f 478//478 399//399 402//402
f 393//393 478//478 392//392
f 479//479 394//394 395//395
f 396//396 397//397 398//398
f 325//325 397//397 396//396
f 394//394 397//397 395//395
f 397//397 394//394 398//398
f 482//482 396//396 398//398
f 396//396 482//482 400//400
f 401//401 330//330 400//400
f 396//396 400//400 330//330
f 607//607 402//402 333//333
f 400//400 403//403 401//401
f 404//404 401//401 403//403
f 401//401 404//404 278//278
f 403//403 489//489 404//404
f 486//486 400//400 485//485
f 403//403 400//400 486//486
f 401//401 278//278 331//331
f 404//404 336//336 278//278
f 406//406 607//607 333//333
f 337//337 406//406 333//333
f 406//406 337//337 411//411
f 406//406 411//411 607//607
f 410//410 405//405 408//408
f 407//407 410//410 408//408
f 409//409 410//410 407//407
f 493//493 408//408 405//405
f 407//407 417//417 421//421
f 408//408 617//617 407//407
f 493//493 494//494 408//408
f 410//410 409//409 345//345
f 345//345 405//405 410//410
f 409//409 421//421 420//420
f 407//407 421//421 409//409
f 413//413 411//411 337//337
f 411//411 413//413 412//412
f 411//411 412//412 611//611
f 431//431 415//415 416//416
f 416//416 424//424 418//418
f 496//496 418//418 424//424
f 617//617 417//417 407//407
f 617//617 497//497 417//417
f 495//495 496//496 850//850
f 418//418 501//501 433//433
f 501//501 418//418 496//496
f 420//420 848//848 355//355
f 420//420 421//421 422//422
f 420//420 422//422 848//848
f 849//849 848//848 422//422
f 416//416 415//415 423//423
f 417//417 495//495 421//421
f 495//495 422//422 421//421
f 423//423 424//424 416//416
f 849//849 422//422 850//850
f 422//422 495//495 850//850
f 425//425 412//412 413//413
f 426//426 414//414 428//428
f 425//425 413//413 414//414
f 427//427 414//414 426//426
f 426//426 428//428 430//430
f 427//427 425//425 414//414
f 426//426 430//430 427//427
f 427//427 499//499 425//425
f 427//427 430//430 498//498
f 429//429 356//356 431//431
f 356//356 353//353 431//431
f 428//428 429//429 430//430
f 503//503 430//430 429//429
f 498//498 430//430 503//503
f 432//432 431//431 416//416
f 429//429 431//431 432//432
f 503//503 429//429 432//432
f 433//433 416//416 418//418
f 416//416 433//433 432//432
f 433//433 503//503 432//432
f 501//501 502//502 433//433
f 502//502 503//503 433//433
f 361//361 435//435 441//441
f 435//435 434//434 440//440
f 364//364 362//362 437//437
f 437//437 438//438 436//436
f 509//509 436//436 438//438
f 436//436 509//509 434//434
f 509//509 440//440 434//434
f 441//441 442//442 361//361
f 442//442 439//439 443//443
f 441//441 515//515 442//442
f 442//442 515//515 439//439
f 445//445 444//444 443//443
f 448//448 362//362 309//309
f 449//449 362//362 448//448
f 518//518 362//362 449//449
f 362//362 518//518 437//437
f 445//445 443//443 439//439
f 446//446 451//451 456//456
f 445//445 439//439 522//522
f 439//439 516//516 522//522
f 369//369 444//444 445//445
f 446//446 445//445 451//451
f 445//445 446//446 369//369
f 452//452 448//448 384//384
f 309//309 384//384 448//448
f 449//449 448//448 450//450
f 447//447 450//450 454//454
f 453//453 452//452 459//459
f 454//454 450//450 453//453
f 454//454 459//459 460//460
f 454//454 453//453 459//459
f 455//455 454//454 460//460
f 525//525 454//454 455//455
f 453//453 450//450 448//448
f 452//452 453//453 448//448
f 528//528 378//378 456//456
f 457//457 459//459 452//452
f 452//452 465//465 457//457
f 457//457 465//465 458//458
f 458//458 465//465 466//466
f 458//458 460//460 459//459
f 459//459 457//457 458//458
f 460//460 458//458 461//461
f 461//461 458//458 530//530
f 531//531 455//455 460//460
f 461//461 531//531 460//460
f 384//384 465//465 452//452
f 463//463 462//462 464//464
f 462//462 535//535 464//464
f 465//465 384//384 470//470
f 466//466 470//470 471//471
f 465//465 470//470 466//466
f 458//458 466//466 467//467
f 458//458 467//467 530//530
f 469//469 474//474 381//381
f 468//468 463//463 464//464
f 463//463 468//468 469//469
f 468//468 553//553 469//469
f 385//385 471//471 470//470
f 472//472 471//471 385//385
f 544//544 471//471 472//472
f 852//852 552//552 557//557
f 853//853 474//474 552//552
f 474//474 853//853 381//381
f 476//476 472//472 392//392
f 392//392 478//478 476//476
f 475//475 476//476 478//478
f 566//566 475//475 478//478
f 477//477 476//476 475//475
f 854//854 475//475 566//566
f 545//545 472//472 476//476
f 545//545 476//476 554//554
f 477//477 554//554 476//476
f 866//866 386//386 851//851
f 564//564 386//386 867//867
f 386//386 479//479 395//395
f 479//479 386//386 565//565
f 479//479 480//480 394//394
f 394//394 480//480 398//398
f 480//480 483//483 398//398
f 398//398 483//483 482//482
f 596//596 482//482 483//483
f 487//487 482//482 596//596
f 485//485 482//482 487//487
f 584//584 478//478 402//402
f 584//584 402//402 490//490
f 400//400 482//482 485//485
f 486//486 488//488 489//489
f 485//485 487//487 486//486
f 596//596 486//486 487//487
f 488//488 486//486 484//484
f 486//486 596//596 484//484
f 486//486 489//489 403//403
f 607//607 490//490 402//402
f 491//491 492//492 488//488
f 488//488 604//604 491//491
f 604//604 609//609 491//491
f 491//491 609//609 492//492
f 484//484 604//604 488//488
f 484//484 600//600 604//604
f 492//492 489//489 488//488
f 492//492 493//493 489//489
f 404//404 489//489 493//493
f 494//494 493//493 492//492
f 492//492 610//610 494//494
f 408//408 494//494 617//617
f 611//611 607//607 411//411
f 612//612 611//611 412//412
f 417//417 497//497 495//495
f 495//495 504//504 496//496
f 504//504 501//501 496//496
f 497//497 858//858 495//495
f 617//617 507//507 497//497
f 858//858 497//497 507//507
f 412//412 425//425 612//612
f 612//612 425//425 618//618
f 425//425 499//499 618//618
f 618//618 499//499 621//621
f 498//498 499//499 427//427
f 499//499 498//498 622//622
f 622//622 498//498 500//500
f 621//621 499//499 622//622
f 498//498 503//503 500//500
f 502//502 505//505 503//503
f 505//505 502//502 501//501
f 504//504 505//505 501//501
f 503//503 505//505 506//506
f 504//504 506//506 505//505
f 859//859 506//506 504//504
f 438//438 508//508 509//509
f 632//632 629//629 508//508
f 440//440 510//510 514//514
f 510//510 440//440 509//509
f 511//511 510//510 509//509
f 510//510 517//517 514//514
f 511//511 512//512 510//510
f 517//517 510//510 512//512
f 509//509 508//508 511//511
f 511//511 508//508 629//629
f 629//629 512//512 511//511
f 861//861 513//513 516//516
f 512//512 860//860 517//517
f 860//860 512//512 629//629
f 514//514 435//435 440//440
f 514//514 515//515 441//441
f 514//514 441//441 435//435
f 862//862 515//515 514//514
f 515//515 516//516 439//439
f 515//515 861//861 516//516
f 518//518 519//519 437//437
f 518//518 449//449 524//524
f 519//519 518//518 524//524
f 438//438 437//437 519//519
f 519//519 630//630 438//438
f 640//640 519//519 524//524
f 630//630 519//519 640//640
f 630//630 508//508 438//438
f 522//522 516//516 520//520
f 516//516 513//513 520//520
f 521//521 522//522 520//520
f 513//513 637//637 520//520
f 520//520 637//637 521//521
f 451//451 445//445 522//522
f 449//449 450//450 523//523
f 523//523 524//524 449//449
f 447//447 523//523 450//450
f 454//454 525//525 447//447
f 638//638 524//524 523//523
f 525//525 523//523 447//447
f 638//638 523//523 525//525
f 647//647 638//638 525//525
f 645//645 451//451 522//522
f 451//451 645//645 456//456
f 652//652 456//456 645//645
f 531//531 525//525 455//455
f 531//531 532//532 525//525
f 525//525 532//532 646//646
f 525//525 646//646 647//647
f 526//526 456//456 652//652
f 653//653 528//528 526//526
f 534//534 535//535 529//529
f 528//528 653//653 529//529
f 526//526 652//652 653//653
f 462//462 527//527 535//535
f 526//526 528//528 456//456
f 527//527 462//462 378//378
f 378//378 528//528 527//527
f 528//528 529//529 527//527
f 527//527 529//529 535//535
f 461//461 530//530 532//532
f 531//531 461//461 532//532
f 532//532 530//530 537//537
f 665//665 532//532 537//537
f 665//665 646//646 532//532
f 541//541 533//533 659//659
f 541//541 658//658 542//542
f 541//541 464//464 534//534
f 541//541 534//534 533//533
f 534//534 664//664 533//533
f 664//664 534//534 529//529
f 534//534 464//464 535//535
f 471//471 536//536 466//466
f 466//466 536//536 467//467
f 537//537 530//530 467//467
f 536//536 537//537 467//467
f 537//537 536//536 538//538
f 665//665 537//537 538//538
f 538//538 666//666 665//665
f 658//658 539//539 542//542
f 540//540 542//542 539//539
f 540//540 543//543 542//542
f 677//677 543//543 540//540
f 658//658 669//669 539//539
f 539//539 669//669 670//670
f 678//678 540//540 539//539
f 543//543 677//677 553//553
f 468//468 464//464 542//542
f 541//541 542//542 464//464
f 543//543 553//553 468//468
f 542//542 543//543 468//468
f 545//545 544//544 472//472
f 546//546 544//544 545//545
f 471//471 544//544 536//536
f 538//538 536//536 544//544
f 546//546 538//538 544//544
f 547//547 551//551 683//683
f 683//683 548//548 547//547
f 549//549 553//553 550//550
f 549//549 558//558 553//553
f 561//561 550//550 555//555
f 550//550 561//561 549//549
f 550//550 551//551 547//547
f 863//863 555//555 550//550
f 553//553 687//687 550//550
f 558//558 552//552 474//474
f 558//558 559//559 552//552
f 474//474 469//469 558//558
f 553//553 558//558 469//469
f 679//679 545//545 690//690
f 545//545 864//864 690//690
f 556//556 562//562 555//555
f 559//559 557//557 552//552
f 557//557 559//559 560//560
f 564//564 867//867 868//868
f 559//559 869//869 560//560
f 558//558 549//549 561//561
f 558//558 561//561 559//559
f 559//559 561//561 869//869
f 868//868 563//563 564//564
f 869//869 561//561 555//555
f 562//562 696//696 868//868
f 696//696 563//563 868//868
f 699//699 563//563 696//696
f 564//564 565//565 386//386
f 702//702 582//582 565//565
f 563//563 702//702 565//565
f 563//563 565//565 564//564
f 582//582 479//479 565//565
f 479//479 582//582 480//480
f 585//585 566//566 478//478
f 481//481 567//567 568//568
f 855//855 569//569 870//870
f 856//856 570//570 586//586
f 856//856 871//871 570//570
f 588//588 887//887 874//874
f 857//857 888//888 587//587
f 857//857 587//587 872//872
f 872//872 587//587 579//579
f 568//568 571//571 573//573
f 567//567 571//571 568//568
f 870//870 569//569 575//575
f 875//875 576//576 570//570
f 875//875 570//570 871//871
f 877//877 873//873 882//882
f 879//879 588//588 874//874
f 572//572 571//571 567//567
f 878//878 572//572 567//567
f 574//574 573//573 571//571
f 572//572 574//574 571//571
f 580//580 572//572 878//878
f 573//573 574//574 879//879
f 574//574 577//577 879//879
f 880//880 885//885 578//578
f 580//580 878//878 881//881
f 878//878 883//883 881//881
f 588//588 879//879 591//591
f 879//879 577//577 591//591
f 578//578 590//590 880//880
f 578//578 592//592 590//590
f 578//578 884//884 592//592
f 572//572 886//886 574//574
f 876//876 885//885 880//880
f 702//702 581//581 582//582
f 597//597 583//583 703//703
f 581//581 703//703 583//583
f 595//595 597//597 703//703
f 483//483 597//597 596//596
f 483//483 480//480 583//583
f 583//583 597//597 483//483
f 583//583 582//582 581//581
f 582//582 583//583 480//480
f 584//584 585//585 478//478
f 706//706 585//585 584//584
f 697//697 585//585 707//707
f 707//707 585//585 706//706
f 889//889 589//589 890//890
f 891//891 589//589 889//889
f 587//587 893//893 579//579
f 896//896 894//894 892//892
f 592//592 884//884 895//895
f 880//880 590//590 897//897
f 590//590 592//592 897//897
f 894//894 896//896 898//898
f 715//715 593//593 710//710
f 715//715 599//599 593//593
f 710//710 595//595 703//703
f 595//595 594//594 597//597
f 596//596 594//594 602//602
f 605//605 596//596 602//602
f 595//595 710//710 594//594
f 710//710 593//593 594//594
f 593//593 599//599 594//594
f 484//484 596//596 605//605
f 596//596 597//597 594//594
f 706//706 584//584 598//598
f 716//716 599//599 715//715
f 716//716 602//602 599//599
f 604//604 600//600 608//608
f 601//601 600//600 484//484
f 603//603 600//600 601//601
f 603//603 724//724 600//600
f 603//603 605//605 602//602
f 605//605 603//603 601//601
f 599//599 602//602 594//594
f 605//605 601//601 484//484
f 607//607 584//584 490//490
f 584//584 607//607 606//606
f 614//614 606//606 607//607
f 598//598 584//584 606//606
f 609//609 604//604 608//608
f 616//616 609//609 608//608
f 610//610 609//609 616//616
f 725//725 608//608 724//724
f 725//725 616//616 608//608
f 724//724 608//608 600//600
f 492//492 609//609 610//610
f 607//607 611//611 614//614
f 614//614 611//611 613//613
f 611//611 612//612 613//613
f 619//619 613//613 612//612
f 618//618 619//619 612//612
f 615//615 613//613 619//619
f 615//615 614//614 613//613
f 732//732 615//615 619//619
f 616//616 627//627 617//617
f 610//610 616//616 617//617
f 617//617 627//627 507//507
f 730//730 627//627 616//616
f 617//617 494//494 610//610
f 619//619 618//618 620//620
f 732//732 619//619 620//620
f 620//620 618//618 621//621
f 628//628 733//733 621//621
f 623//623 628//628 621//621
f 622//622 500//500 624//624
f 621//621 622//622 623//623
f 623//623 622//622 624//624
f 623//623 624//624 626//626
f 626//626 628//628 623//623
f 859//859 625//625 506//506
f 625//625 626//626 503//503
f 503//503 626//626 500//500
f 625//625 503//503 506//506
f 626//626 624//624 500//500
f 899//899 507//507 627//627
f 899//899 627//627 900//900
f 625//625 628//628 626//626
f 860//860 629//629 903//903
f 640//640 631//631 630//630
f 630//630 633//633 508//508
f 630//630 631//631 633//633
f 508//508 633//633 632//632
f 634//634 629//629 632//632
f 636//636 629//629 634//634
f 633//633 635//635 632//632
f 902//902 644//644 637//637
f 634//634 632//632 635//635
f 636//636 634//634 635//635
f 635//635 633//633 741//741
f 740//740 644//644 902//902
f 901//901 902//902 637//637
f 638//638 639//639 640//640
f 638//638 640//640 524//524
f 639//639 641//641 640//640
f 641//641 631//631 640//640
f 631//631 741//741 633//633
f 642//642 741//741 631//631
f 631//631 641//641 642//642
f 639//639 649//649 641//641
f 649//649 738//738 641//641
f 738//738 642//642 641//641
f 521//521 637//637 643//643
f 645//645 521//521 643//643
f 643//643 637//637 644//644
f 743//743 643//643 644//644
f 521//521 645//645 522//522
f 647//647 639//639 638//638
f 648//648 647//647 646//646
f 648//648 639//639 647//647
f 648//648 649//649 639//639
f 648//648 657//657 649//649
f 738//738 649//649 744//744
f 645//645 650//650 652//652
f 650//650 654//654 652//652
f 645//645 643//643 650//650
f 650//650 655//655 654//654
f 662//662 655//655 663//663
f 650//650 643//643 748//748
f 651//651 650//650 748//748
f 650//650 651//651 655//655
f 655//655 651//651 663//663
f 651//651 748//748 663//663
f 663//663 748//748 753//753
f 654//654 653//653 652//652
f 529//529 653//653 664//664
f 655//655 664//664 653//653
f 653//653 654//654 655//655
f 656//656 648//648 646//646
f 665//665 656//656 646//646
f 665//665 667//667 656//656
f 656//656 657//657 648//648
f 754//754 657//657 656//656
f 656//656 667//667 754//754
f 755//755 763//763 672//672
f 659//659 658//658 541//541
f 669//669 658//658 660//660
f 661//661 659//659 663//663
f 659//659 661//661 660//660
f 658//658 659//659 660//660
f 659//659 662//662 663//663
f 661//661 672//672 660//660
f 661//661 663//663 753//753
f 672//672 661//661 753//753
f 533//533 664//664 659//659
f 664//664 662//662 659//659
f 655//655 662//662 664//664
f 665//665 666//666 667//667
f 666//666 546//546 680//680
f 667//667 666//666 668//668
f 666//666 680//680 668//668
f 668//668 680//680 766//766
f 676//676 675//675 765//765
f 672//672 763//763 675//675
f 763//763 765//765 675//675
f 668//668 766//766 764//764
f 670//670 669//669 673//673
f 669//669 660//660 672//672
f 673//673 678//678 670//670
f 669//669 672//672 673//673
f 671//671 678//678 673//673
f 671//671 685//685 688//688
f 673//673 674//674 671//671
f 674//674 676//676 685//685
f 674//674 685//685 671//671
f 676//676 686//686 685//685
f 673//673 672//672 675//675
f 673//673 675//675 674//674
f 674//674 675//675 676//676
f 678//678 539//539 670//670
f 677//677 687//687 553//553
f 677//677 540//540 678//678
f 677//677 678//678 688//688
f 688//688 687//687 677//677
f 688//688 678//678 671//671
f 538//538 546//546 666//666
f 545//545 679//679 546//546
f 546//546 679//679 680//680
f 679//679 681//681 680//680
f 681//681 679//679 689//689
f 681//681 766//766 680//680
f 682//682 695//695 765//765
f 765//765 695//695 686//686
f 765//765 686//686 676//676
f 689//689 695//695 682//682
f 681//681 689//689 682//682
f 683//683 684//684 686//686
f 686//686 548//548 683//683
f 684//684 685//685 686//686
f 688//688 685//685 684//684
f 686//686 695//695 548//548
f 684//684 683//683 551//551
f 550//550 687//687 551//551
f 551//551 687//687 684//684
f 687//687 688//688 684//684
f 854//854 566//566 865//865
f 865//865 566//566 698//698
f 905//905 904//904 907//907
f 907//907 691//691 905//905
f 692//692 556//556 695//695
f 906//906 909//909 695//695
f 692//692 695//695 909//909
f 908//908 693//693 910//910
f 693//693 908//908 865//865
f 698//698 693//693 865//865
f 769//769 910//910 693//693
f 692//692 909//909 916//916
f 916//916 556//556 692//692
f 772//772 556//556 916//916
f 694//694 548//548 695//695
f 548//548 694//694 863//863
f 863//863 694//694 555//555
f 555//555 694//694 556//556
f 562//562 556//556 696//696
f 556//556 694//694 695//695
f 702//702 563//563 699//699
f 697//697 566//566 585//585
f 698//698 566//566 697//697
f 698//698 768//768 771//771
f 768//768 698//698 697//697
f 779//779 768//768 697//697
f 772//772 770//770 556//556
f 698//698 771//771 693//693
f 770//770 696//696 556//556
f 770//770 699//699 696//696
f 701//701 699//699 770//770
f 700//700 702//702 699//699
f 704//704 702//702 700//700
f 701//701 711//711 705//705
f 699//699 701//701 700//700
f 700//700 701//701 705//705
f 770//770 786//786 701//701
f 704//704 581//581 702//702
f 704//704 703//703 581//581
f 700//700 705//705 704//704
f 704//704 705//705 703//703
f 705//705 711//711 703//703
f 707//707 706//706 712//712
f 779//779 707//707 778//778
f 707//707 779//779 697//697
f 707//707 712//712 778//778
f 778//778 712//712 788//788
f 714//714 709//709 787//787
f 786//786 708//708 701//701
f 709//709 708//708 786//786
f 709//709 786//786 787//787
f 710//710 703//703 711//711
f 715//715 710//710 714//714
f 714//714 710//710 709//709
f 708//708 710//710 711//711
f 708//708 709//709 710//710
f 711//711 701//701 708//708
f 712//712 706//706 598//598
f 712//712 598//598 713//713
f 719//719 789//789 713//713
f 713//713 788//788 712//712
f 789//789 788//788 713//713
f 714//714 787//787 797//797
f 715//715 714//714 717//717
f 716//716 715//715 717//717
f 721//721 602//602 716//716
f 723//723 716//716 717//717
f 723//723 717//717 714//714
f 603//603 602//602 721//721
f 718//718 598//598 606//606
f 598//598 718//718 719//719
f 718//718 726//726 719//719
f 726//726 718//718 606//606
f 719//719 713//713 598//598
f 798//798 719//719 726//726
f 800//800 789//789 719//719
f 720//720 714//714 797//797
f 714//714 720//720 723//723
f 797//797 802//802 720//720
f 716//716 723//723 721//721
f 723//723 722//722 721//721
f 722//722 723//723 730//730
f 730//730 723//723 809//809
f 720//720 809//809 723//723
f 603//603 721//721 724//724
f 724//724 721//721 722//722
f 725//725 724//724 722//722
f 722//722 616//616 725//725
f 726//726 606//606 614//614
f 798//798 726//726 729//729
f 726//726 614//614 727//727
f 727//727 614//614 615//615
f 615//615 732//732 727//727
f 728//728 727//727 732//732
f 727//727 729//729 726//726
f 727//727 728//728 729//729
f 734//734 728//728 732//732
f 734//734 808//808 728//728
f 818//818 730//730 809//809
f 731//731 817//817 737//737
f 722//722 730//730 616//616
f 730//730 731//731 627//627
f 736//736 627//627 731//731
f 736//736 731//731 737//737
f 733//733 620//620 621//621
f 620//620 733//733 734//734
f 734//734 732//732 620//620
f 733//733 628//628 735//735
f 900//900 911//911 735//735
f 820//820 733//733 735//735
f 911//911 922//922 735//735
f 736//736 900//900 627//627
f 900//900 736//736 911//911
f 636//636 635//635 739//739
f 740//740 636//636 739//739
f 642//642 738//738 749//749
f 740//740 743//743 644//644
f 741//741 739//739 635//635
f 742//742 739//739 741//741
f 739//739 742//742 740//740
f 740//740 742//742 743//743
f 741//741 642//642 749//749
f 741//741 749//749 742//742
f 742//742 750//750 743//743
f 750//750 751//751 743//743
f 742//742 749//749 914//914
f 649//649 657//657 744//744
f 657//657 760//760 744//744
f 745//745 738//738 744//744
f 738//738 745//745 749//749
f 745//745 744//744 746//746
f 749//749 745//745 746//746
f 912//912 747//747 752//752
f 758//758 746//746 744//744
f 746//746 758//758 913//913
f 913//913 758//758 759//759
f 747//747 915//915 752//752
f 751//751 643//643 743//743
f 751//751 748//748 643//643
f 751//751 752//752 753//753
f 748//748 751//751 753//753
f 752//752 750//750 912//912
f 750//750 752//752 751//751
f 914//914 749//749 746//746
f 760//760 657//657 754//754
f 755//755 672//672 753//753
f 752//752 915//915 753//753
f 760//760 754//754 756//756
f 744//744 760//760 758//758
f 915//915 755//755 753//753
f 760//760 756//756 762//762
f 761//761 755//755 915//915
f 762//762 757//757 761//761
f 761//761 757//757 755//755
f 760//760 762//762 758//758
f 758//758 762//762 761//761
f 761//761 759//759 758//758
f 667//667 668//668 764//764
f 667//667 764//764 754//754
f 764//764 766//766 767//767
f 755//755 757//757 763//763
f 764//764 756//756 754//754
f 756//756 764//764 762//762
f 757//757 762//762 765//765
f 757//757 765//765 763//763
f 764//764 767//767 762//762
f 767//767 765//765 762//762
f 767//767 682//682 765//765
f 766//766 681//681 682//682
f 766//766 682//682 767//767
f 775//775 773//773 768//768
f 779//779 775//775 768//768
f 779//779 780//780 775//775
f 769//769 693//693 771//771
f 771//771 917//917 769//769
f 786//786 770//770 776//776
f 768//768 773//773 771//771
f 776//776 770//770 772//772
f 771//771 774//774 917//917
f 771//771 773//773 774//774
f 776//776 772//772 774//774
f 775//775 777//777 773//773
f 773//773 777//777 774//774
f 774//774 777//777 781//781
f 774//774 781//781 776//776
f 777//777 780//780 782//782
f 775//775 780//780 777//777
f 782//782 781//781 777//777
f 788//788 790//790 778//778
f 783//783 778//778 792//792
f 792//792 778//778 790//790
f 779//779 783//783 780//780
f 778//778 783//783 779//779
f 787//787 786//786 784//784
f 784//784 786//786 776//776
f 781//781 782//782 785//785
f 776//776 781//781 784//784
f 784//784 781//781 785//785
f 780//780 783//783 782//782
f 783//783 792//792 782//782
f 782//782 792//792 785//785
f 784//784 785//785 793//793
f 784//784 793//793 797//797
f 787//787 784//784 797//797
f 785//785 792//792 794//794
f 785//785 794//794 793//793
f 791//791 788//788 789//789
f 791//791 790//790 788//788
f 792//792 790//790 794//794
f 790//790 791//791 794//794
f 793//793 794//794 795//795
f 793//793 795//795 797//797
f 791//791 796//796 794//794
f 794//794 796//796 795//795
f 797//797 795//795 802//802
f 795//795 796//796 801//801
f 795//795 801//801 918//918
f 789//789 800//800 791//791
f 719//719 798//798 800//800
f 800//800 798//798 799//799
f 798//798 729//729 799//799
f 805//805 799//799 729//729
f 796//796 791//791 801//801
f 800//800 801//801 791//791
f 799//799 801//801 800//800
f 801//801 799//799 807//807
f 918//918 801//801 919//919
f 803//803 918//918 919//919
f 720//720 802//802 803//803
f 804//804 729//729 728//728
f 728//728 808//808 804//804
f 805//805 729//729 804//804
f 805//805 804//804 810//810
f 808//808 810//810 804//804
f 805//805 810//810 806//806
f 799//799 805//805 807//807
f 805//805 806//806 807//807
f 803//803 809//809 720//720
f 810//810 808//808 812//812
f 812//812 819//819 813//813
f 819//819 812//812 808//808
f 810//810 812//812 814//814
f 811//811 809//809 803//803
f 806//806 814//814 816//816
f 810//810 814//814 806//806
f 818//818 809//809 811//811
f 815//815 814//814 812//812
f 815//815 813//813 920//920
f 818//818 920//920 813//813
f 813//813 815//815 812//812
f 807//807 806//806 816//816
f 919//919 921//921 803//803
f 803//803 921//921 811//811
f 815//815 816//816 814//814
f 815//815 920//920 816//816
f 923//923 730//730 818//818
f 731//731 730//730 923//923
f 819//819 820//820 813//813
f 818//818 813//813 923//923
f 813//813 820//820 922//922
f 819//819 808//808 734//734
f 819//819 734//734 733//733
f 819//819 733//733 820//820
f 735//735 922//922 820//820
